<?xml version="1.0" encoding="utf-8"?>
<!-- Generator: Adobe Illustrator 13.0.0, SVG Export Plug-In . SVG Version: 6.00 Build 14948)  -->
<svg version="1.2" baseProfile="tiny" id="Layer_1" xmlns="http://www.w3.org/2000/svg" xmlns:xlink="http://www.w3.org/1999/xlink"
	 x="0px" y="0px" width="94.45px" height="107.604px" viewBox="0 0 94.45 107.604" xml:space="preserve">
<g>
	<g>
		<path fill="#111111" d="M68.95,14.8c-3.2,0.8-6.7,1.4-10.4,1.9l-4.7,67c2.2-0.301,4.4-0.601,6.4-1c7.9-1.7,12.2-3.801,12.9-6.5
			l5.6-66.9C78.25,11.4,74.95,13.3,68.95,14.8z"/>
		<path fill="#262626" d="M58.55,16.7c3.7-0.5,7.2-1.1,10.4-1.9c6-1.5,9.3-3.4,9.8-5.5c0-0.2,0-0.4,0-0.6c0-2.4-3.3-4.4-9.8-6.1
			C62.35,0.9,54.45,0,45.05,0c-9.3,0-17.2,0.9-23.8,2.6c-6.4,1.6-9.6,3.6-9.8,5.9c1.8,2.9,5,5.1,9.8,6.3c0.6,0.1,1.2,0.3,1.9,0.4
			c5.9,1.4,12.8,2.1,20.8,2.2c0.3,0,0.8,0,1.1,0c2.9,0,5.7-0.2,8.3-0.3C55.15,17,56.95,16.9,58.55,16.7z M68.85,8.4
			c0-1.6-1.1-2.8-3.5-3.5c-4.6-0.8-9.1-1.6-13.8-2.5c2.101,0.4,4.4,1.2,6.7,2.2c3,1.2,4.6,2.4,4.6,3.3c0,1.8-1.6,3.3-4.699,4.5
			c-4.4,2-11.2,2.9-20.4,2.9c-4.8,0-8.5-1-11.4-3c-2.1-1.5-3.1-3-3.1-4.4c0-1.7,1.2-3.1,3.9-4.3c2.7-1.2,7.3-2.3,13.8-3.2
			c0-0.1,1.3-0.1,4.1-0.1c5.7,0,10.4,0.4,14.2,1.1c0.5,0.2,2.8,0.8,7,2c1.8,0.5,2.8,1.3,3.3,2.2c0.2,0.4,0.4,1.3,0.4,2.7
			c0,1.3-0.8,2.6-2.4,4.1c-1.7,1.6-3.5,2.5-5.5,2.5l-1.5-0.1c0-0.1-0.1-0.3-0.5-0.5c2.7-0.9,4.8-1.6,6.2-2.5
			C67.95,10.8,68.85,9.6,68.85,8.4z M18.25,8.2c0-1.9,2.1-3.5,6.2-4.9l0.3,0.1c-0.5,0.6-1.7,1.4-3.6,2.4c-1.4,0.7-2.1,1.5-2.1,2.5
			c0,0.9,1.2,1.9,3.5,2.9c3.2,1.5,4.8,2.3,5,2.4c-0.2-0.1-0.3,0-0.4,0c-0.2,0.1-0.4,0.1-0.6,0.1c-2.2,0-4.2-0.7-5.9-2.1
			C19.15,10.3,18.25,9.2,18.25,8.2z"/>
		<path fill="#2F2F2F" d="M65.35,4.9c2.4,0.7,3.5,1.9,3.5,3.5c0,1.2-0.899,2.4-2.6,3.4c-1.4,0.9-3.5,1.6-6.2,2.5
			c0.4,0.2,0.5,0.4,0.5,0.5l1.5,0.1c2,0,3.8-0.9,5.5-2.5c1.601-1.5,2.4-2.8,2.4-4.1c0-1.4-0.2-2.3-0.4-2.7c-0.5-0.9-1.5-1.7-3.3-2.2
			c-4.2-1.2-6.5-1.8-7-2c-3.8-0.7-8.5-1.1-14.2-1.1c-2.8,0-4.1,0-4.1,0.1c-6.5,0.9-11.1,2-13.8,3.2c-2.7,1.2-3.9,2.6-3.9,4.3
			c0,1.4,1,2.9,3.1,4.4c2.9,2,6.6,3,11.4,3c9.2,0,16-0.9,20.4-2.9c3.1-1.2,4.699-2.7,4.699-4.5c0-0.9-1.6-2.1-4.6-3.3
			c-2.3-1-4.6-1.8-6.7-2.2C56.25,3.3,60.75,4.1,65.35,4.9z M58.25,5.4c2.5,1.3,3.8,2.4,3.8,3.2c0,1.1-1.8,2.2-5.5,3.3
			c-4.6,1.4-11,2.1-19,2.1c-3.3,0-6.3-0.7-9.1-2.3c-2.5-1.4-3.7-2.6-3.7-3.7c0-1.5,1.9-2.9,5.6-4.2c4.8-1.5,11.4-2.1,19.6-1.8
			c-8.7,0-14.7,0.7-17.7,2.1c-1.6,0.7-2.4,1.8-2.4,3.3c0,1.4,0.5,2.4,1.6,2.9c1.9,1,6,1.5,12.1,1.5c2.1,0,4.5-0.4,7.4-1
			c2.899-0.8,4.3-1.5,4.3-2c0-1-0.3-1.8-1-2.4c-1.2-1.2-3.5-1.8-6.7-1.8c-4.1,0-7,0.4-8.8,1.3c-1.4,0.6-2,1.3-2,2.1
			c0,0.4,0.2,0.8,0.7,1.3c0.7,0.6,1.8,1,3.3,1c2.5,0,4.5-0.4,6-1c0.8-0.5,1.5-0.9,1.8-1.4l-0.2-0.1c0.101,0,0.101,0,0.101,0V7.7
			c-2.2-0.5-4.2-0.6-6.2-0.1c-1.7,0.3-2.5,0.6-2.5,0.9c0,0.4,0.3,0.4,0.7,0.2c0.1,0,0.5-0.1,1.2-0.5c0.8-0.4,2.8-0.5,6.1-0.5
			c0.3,0,0.4,0,0.5,0.1c-0.4,0.6-1.1,1-2,1.3c-1.2,0.3-3,0.6-5.7,0.6c-0.7,0-1.4-0.3-2.1-0.7c-0.5-0.3-0.9-0.6-0.9-0.8
			c0,0,0.5-0.5,1.5-1.4c1.9-0.9,5.2-1.4,10-1.4c1.4,0,2.7,0.4,3.9,1c1.1,0.7,1.6,1.3,1.6,1.9c0,0.5-1.5,1-4.399,1.6
			c-2.7,0.5-4.9,0.8-6.7,0.8c-3.1,0-6-0.4-8.5-1c-2.7-0.7-4-1.4-4-2.1c0-0.3,0.3-0.8,0.8-1.3c0.6-0.6,1.1-1,1.5-1.1
			c0.8-0.4,1.3-0.8,1.6-1.1c0.2-0.3,0.5-0.4,0.9-0.5c0.7-0.2,5.8-0.2,15.5-0.2C53.25,3.4,55.55,4,58.25,5.4z"/>
		<path fill="#262626" d="M62.05,8.6c0-0.8-1.3-1.9-3.8-3.2c-2.7-1.4-5-2-7-2c-9.7,0-14.8,0-15.5,0.2c-0.4,0.1-0.7,0.2-0.9,0.5
			c-0.3,0.3-0.8,0.7-1.6,1.1c-0.4,0.1-0.9,0.5-1.5,1.1c-0.5,0.5-0.8,1-0.8,1.3c0,0.7,1.3,1.4,4,2.1c2.5,0.6,5.4,1,8.5,1
			c1.8,0,4-0.3,6.7-0.8c2.899-0.6,4.399-1.1,4.399-1.6c0-0.6-0.5-1.2-1.6-1.9c-1.2-0.6-2.5-1-3.9-1c-4.8,0-8.1,0.5-10,1.4
			c-1,0.9-1.5,1.4-1.5,1.4c0,0.2,0.4,0.5,0.9,0.8c0.7,0.4,1.4,0.7,2.1,0.7c2.7,0,4.5-0.3,5.7-0.6c0.9-0.3,1.6-0.7,2-1.3
			c-0.1-0.1-0.2-0.1-0.5-0.1c-3.3,0-5.3,0.1-6.1,0.5c-0.7,0.4-1.1,0.5-1.2,0.5c-0.4,0.2-0.7,0.2-0.7-0.2c0-0.3,0.8-0.6,2.5-0.9
			c2-0.5,4-0.4,6.2,0.1v0.1c0,0,0,0-0.101,0l0.2,0.1c-0.3,0.5-1,0.9-1.8,1.4c-1.5,0.6-3.5,1-6,1c-1.5,0-2.6-0.4-3.3-1
			c-0.5-0.5-0.7-0.9-0.7-1.3c0-0.8,0.6-1.5,2-2.1c1.8-0.9,4.7-1.3,8.8-1.3c3.2,0,5.5,0.6,6.7,1.8c0.7,0.6,1,1.4,1,2.4
			c0,0.5-1.4,1.2-4.3,2c-2.9,0.6-5.3,1-7.4,1c-6.1,0-10.2-0.5-12.1-1.5c-1.1-0.5-1.6-1.5-1.6-2.9c0-1.5,0.8-2.6,2.4-3.3
			c3-1.4,9-2.1,17.7-2.1c-8.2-0.3-14.8,0.3-19.6,1.8c-3.7,1.3-5.6,2.7-5.6,4.2c0,1.1,1.2,2.3,3.7,3.7c2.8,1.6,5.8,2.3,9.1,2.3
			c8,0,14.4-0.7,19-2.1C60.25,10.8,62.05,9.7,62.05,8.6z"/>
		<path fill="#2F2F2F" d="M24.45,3.3c-4.1,1.4-6.2,3-6.2,4.9c0,1,0.9,2.1,2.4,3.4c1.7,1.4,3.7,2.1,5.9,2.1c0.2,0,0.4,0,0.6-0.1
			c0.1,0,0.2-0.1,0.4,0c-0.2-0.1-1.8-0.9-5-2.4c-2.3-1-3.5-2-3.5-2.9c0-1,0.7-1.8,2.1-2.5c1.9-1,3.1-1.8,3.6-2.4L24.45,3.3z"/>
		<path fill="#111111" d="M23.15,15.2c-0.7-0.1-1.3-0.3-1.9-0.4c-4.8-1.2-8-3.4-9.8-6.3l7.3,68.899c1.1,2.601,4.7,4.4,10.9,5.5
			L23.15,15.2z"/>
		<path fill="#111111" d="M53.35,17.1c-2.6,0.1-5.399,0.3-8.3,0.3c-0.3,0-0.8,0-1.1,0l-0.2,66.8c2.2,0,4.5,0,7-0.2L53.35,17.1z"/>
		<path fill="#1A1A1A" d="M43.95,17.4c-8-0.1-14.9-0.8-20.8-2.2l6.5,67.7c1.6,0.301,3.2,0.5,5.1,0.801c3,0.199,6,0.5,9,0.5
			L43.95,17.4z M34.75,18.3h0.3c1.6,16,2.5,25.9,2.9,29.6c0.9,11.3,1.3,21.2,1.1,29.7c0,0.101-0.1,0.2-0.3,0.2
			c-0.3-6.1-1-15.4-2-27.9c-1-12.5-1.7-21.7-2-27.9V18.3z"/>
		<path fill="#2F2F2F" d="M35.05,18.3h-0.3V22c0.3,6.2,1,15.4,2,27.9c1,12.5,1.7,21.8,2,27.9c0.2,0,0.3-0.1,0.3-0.2
			c0.2-8.5-0.2-18.399-1.1-29.7C37.55,44.2,36.65,34.3,35.05,18.3z"/>
		<path fill="#BD6B98" d="M44.45,85.7h0.1c-0.1,0-0.3,0-0.5,0c-0.3,0-0.6,0-0.8,0c-2.1-0.2-3.9-0.301-5.5-0.301c0.8,0.2,2,0.5,3.5,1
			c0.8,0.301,1.8,0.5,3,0.5c1.3,0.2,2.8,0.301,4.5,0.301c0.5,0,1.2,0,1.8-0.101c1.2-0.1,2.4-0.2,3.7-0.5c1.4-0.3,2.8-0.7,4.4-1.1
			c1.899-0.601,3.899-1.3,6.1-2.101c1.8-0.5,3.5-1,4.8-1.699c-1.7,0.8-4.899,1.699-9.5,2.8c-5.3,1.2-9,1.8-11.5,1.8
			c-0.5,0-1.1-0.1-2.1-0.1C45.35,86,44.75,85.899,44.45,85.7z"/>
		<path fill="#B287AE" d="M44.55,85.7h-0.1c0.3,0.199,0.9,0.3,2,0.5c1,0,1.6,0.1,2.1,0.1c2.5,0,6.2-0.6,11.5-1.8
			c4.601-1.101,7.8-2,9.5-2.8c0.2-0.101,0.2-0.2,0.4-0.301c-0.5,0.101-2.2,0.5-5.2,1.301c-3.2,0.8-4.9,1.199-5,1.199
			c-2.1,0.301-3.8,0.5-5.2,0.801c-1.1,0.199-1.899,0.3-2.3,0.3c-0.2,0-0.5,0-0.6,0.1c-0.4,0-0.7,0-1,0.101
			C47.25,85.3,45.15,85.399,44.55,85.7z"/>
		<path fill="#A673A0" d="M43.25,85.7c0.2,0,0.5,0,0.8,0c-0.1-0.5-0.2-1-0.3-1.5c-3,0-6-0.301-9-0.5c-1.9-0.301-3.5-0.5-5.1-0.801
			c-0.3,0.9-0.4,1.801-0.4,2.601c1.1,0.2,2,0.5,2.5,0.8c-0.5,0.4-0.9,0.5-1,0.6c-0.4,0-0.9,0.101-1.5,0.2c0,0.101,0,0.3,0.1,0.4
			c0.4,0.1,0.7,0.2,1,0.2c-0.1,0-0.2-0.101-0.3-0.101c0.1-0.1,0.2-0.2,0.2-0.2l1.5,0.2c0,0,0.1,0.2,0.3,0.4l0,0
			c0,0.1-0.1,0.2-0.6,0.2c-0.6,0-1.2-0.101-2-0.2v0.1c0.9,0.101,1.8,0.101,2.8,0.3c2.6,0.301,4,0.7,4,1c0,1-1,1.5-2.8,1.5
			c-1,0-2.2-0.199-3.5-0.5c-0.6,2-0.4,3.7,0.6,5.2c1,0.101,2,0.2,3.1,0.3c0.6,0.101,1,0.301,1.4,0.301l4.1,0.399
			c0.4,0.101,0.9,0.101,1.5,0.101c-0.2-1-0.4-2.7-0.6-4.801c0-0.199,0-0.3,0-0.399c-0.3-0.601-0.5-0.9-0.5-1.3
			c-0.1-0.2-0.1-0.801-0.1-1.9c0-0.4,0-0.9,0.2-1.1c-0.1-0.2-0.1-0.301-0.1-0.5h0.2c0,0,0,0,0,0.1c0.1-0.1,0.2-0.2,0.2-0.2
			c0.3,0.2,0.5,0.8,0.6,1.8C40.75,89.2,40.95,90,41.05,91c0,1,0,2.6-0.1,4.6c0,0.601,0,1-0.1,1.2c0.9,0.1,1.9,0.1,2.9,0.1
			c0.8-3.3,1-6.6,0.5-10c-1.2,0-2.2-0.199-3-0.5c-1.5-0.5-2.7-0.8-3.5-1C39.35,85.399,41.15,85.5,43.25,85.7z"/>
		<path fill="#B287AE" d="M40.55,88.399c-0.1-1-0.3-1.6-0.6-1.8c0,0-0.1,0.101-0.2,0.2c0-0.1,0-0.1,0-0.1h-0.2
			c0,0.199,0,0.3,0.1,0.5c-0.2,0.199-0.2,0.699-0.2,1.1c0,1.1,0,1.7,0.1,1.9c0,0.399,0.2,0.699,0.5,1.3c0,0.1,0,0.2,0,0.399
			c0.2,2.101,0.4,3.801,0.6,4.801c0.1,0.1,0.1,0.199,0.1,0.199l0.1-0.1c0.1-0.2,0.1-0.6,0.1-1.2c0.1-2,0.1-3.6,0.1-4.6
			C40.95,90,40.75,89.2,40.55,88.399z"/>
		<path fill="#A66898" d="M43.75,84.2c0.1,0.5,0.2,1,0.3,1.5c0.2,0,0.4,0,0.5,0c0.6-0.301,2.7-0.4,6.101-0.5l0.1-1.2
			C48.25,84.2,45.95,84.2,43.75,84.2z"/>
		<path fill="#AB7BA6" d="M50.75,84l-0.1,1.2c0.3-0.101,0.6-0.101,1-0.101c0.8-0.2,1.6-0.2,2.5-0.399c-0.101-0.301-0.2-0.7-0.301-1
			C52.65,83.899,51.55,83.899,50.75,84z"/>
		<path fill="#AB7BA6" d="M54.25,86.6c-1.3,0.3-2.5,0.4-3.7,0.5l-0.6,9.9c1.1,0,2.1,0,3.1,0c0-0.101,0.101-0.3,0.2-0.3
			c-0.7-0.101-1.2-0.301-1.7-0.5c0.5-0.2,1.2-0.301,2-0.301c0.9-2.1,0.8-4.1-0.1-6.1C53.95,88.7,54.25,87.7,54.25,86.6z"/>
		<path fill="#BD6B98" d="M54.15,84.7c-0.9,0.199-1.7,0.199-2.5,0.399c0.1-0.1,0.399-0.1,0.6-0.1c0.4,0,1.2-0.101,2.3-0.3
			c1.4-0.301,3.101-0.5,5.2-0.801c0.1,0,1.8-0.399,5-1.199c3-0.801,4.7-1.2,5.2-1.301c0.1,0,0.1,0,0.3-0.1c1.4-0.9,2.3-1.8,2.5-2.7
			C66.55,81.5,60.25,83.6,54.15,84.7z"/>
		<path fill="#A66898" d="M54.25,86.6c0,1.101-0.3,2.101-0.8,3.2c0.899,2,1,4,0.1,6.1c1.2-0.199,2.5-0.5,4.2-0.699
			c2.9-0.5,5.5-1.2,8-2c0.6-0.301,2-1,4.2-2.101c2.1-1.1,3.3-1.7,3.5-1.8c0,0.1,0.1,0.1,0.1,0.1s0,0,0-0.1
			c0.101-0.4,0.2-0.8,0.2-1.3c0.2-0.7,0.3-1.2,0.3-1.5c0-0.101,0-0.101,0-0.2c0-0.2-0.1-0.4-0.3-0.6c-0.2-0.101-0.3-0.301-0.3-0.5
			l0.8-5c0-0.5-0.1-1-0.4-1.301C73.65,78.7,73.45,77.7,73.15,76.2c-0.7,2.699-5,4.8-12.9,6.5c-2,0.399-4.2,0.699-6.4,1
			c0.101,0.3,0.2,0.699,0.301,1c6.1-1.101,12.399-3.2,18.6-6.101c-0.2,0.9-1.1,1.8-2.5,2.7c-0.2,0.1-0.2,0.1-0.3,0.1
			c-0.2,0.101-0.2,0.2-0.4,0.301c-1.3,0.699-3,1.199-4.8,1.699c-2.2,0.801-4.2,1.5-6.1,2.101C57.05,85.899,55.65,86.3,54.25,86.6z"
			/>
		<path fill="#AC6C90" d="M53.55,95.899c-0.8,0-1.5,0.101-2,0.301c0.5,0.199,1,0.399,1.7,0.5c0.3,0,0.6,0,1,0
			c4.4,0,8.8-0.801,13.1-2.301c2.9-1,4.9-2,5.801-3c0.399-0.6,0.699-1.1,0.699-1.6c0-0.2-0.1-0.4-0.1-0.4s-0.1,0-0.2,0
			c0,0-0.1,0-0.1-0.1c-0.2,0.1-1.4,0.7-3.5,1.8c-2.2,1.101-3.601,1.8-4.2,2.101c-2.5,0.8-5.1,1.5-8,2
			C56.05,95.399,54.75,95.7,53.55,95.899z"/>
		<path fill="#A66898" d="M50.55,87.1c-0.6,0.101-1.3,0.101-1.8,0.101c-1.7,0-3.2-0.101-4.5-0.301c0.5,3.4,0.3,6.7-0.5,10
			C45.55,97,47.45,97,49.55,97c0.2,0,0.2,0,0.4,0L50.55,87.1z"/>
		<path fill="#1E1E1E" d="M50.75,84c0.8-0.101,1.9-0.101,3.1-0.3l4.7-67c-1.6,0.2-3.399,0.3-5.2,0.4L50.75,84z"/>
		<path fill="#A66898" d="M17.95,82.2c0.3-1.5,0.5-2.5,0.5-2.9c0-0.5,0.2-0.7,0.5-0.7c0.3,0.2,0.4,0.601,0.4,1.3
			c0,1,0,1.5,0.1,1.801c0.2,0.6,0.3,1.199,0.7,1.699c0.1,0.101,0.2,0.2,0.2,0.301c1.3,0.199,3,0.6,5.4,1c1.3,0.3,2.5,0.5,3.5,0.8
			c0-0.8,0.1-1.7,0.4-2.601c-6.2-1.1-9.8-2.899-10.9-5.5c-0.6,2.4-0.9,4.2-0.9,5.5c0,0.301,0.2,1.101,0.5,2.301
			c-0.1,0.1-0.2,0.3-0.3,0.5c-0.2,0.5-0.3,0.899-0.3,1.5c0,0.399,0.1,1.5,0.4,3.399h0.1c0.5,0.8,2,1.8,4.5,2.8
			c2.2,1,4.9,1.7,7.8,2.2c-1-1.5-1.2-3.2-0.6-5.2c-1.7-0.3-3.5-0.899-5.6-1.699c-2.1-0.801-3.7-1.5-4.6-1.9
			c-0.1,0.1-0.1,0.1-0.1,0.1c0.4,0.2,0.8,0.5,1.4,0.801c0.7,0.5,1.6,1,2.7,1.699c0,0.2-0.2,0.301-0.5,0.301
			c-1.4-0.7-2.5-1.101-3.1-1.5c-0.3-0.2-0.4-0.301-0.7-0.301c0.1,0.301,0.3,0.7,0.5,1.301c0.4,0.899,0.7,1.5,0.8,1.6
			c-0.2,0.4-0.5,0.6-0.8,0.6c-0.8,0-1.4-0.699-1.8-2.1c-0.2-1.4-0.3-2.1-0.3-2.1c0-0.301,0.2-0.801,0.5-1.5
			c0.4-0.601,0.6-1,0.6-1.101C18.25,83.399,17.95,82.7,17.95,82.2z M28.25,83c-0.1,0.2-0.5,0.3-1,0.3c-2.4,0-3.9-0.3-4.5-0.8
			c-1.1-0.8-1.7-1.101-2-1.2c0.1-0.1,0.2-0.1,0.2-0.1c1.7,0.199,2.8,0.399,3.3,0.5C25.25,81.899,26.65,82.399,28.25,83z"/>
		<path fill="#B287AE" d="M27.25,83.3c0.5,0,0.9-0.1,1-0.3c-1.6-0.601-3-1.101-4-1.3c-0.5-0.101-1.6-0.301-3.3-0.5
			c0,0-0.1,0-0.2,0.1c0.3,0.1,0.9,0.4,2,1.2C23.35,83,24.85,83.3,27.25,83.3z"/>
		<path fill="#AC6C90" d="M18.45,79.3c0,0.4-0.2,1.4-0.5,2.9c0,0.5,0.3,1.199,1,2.399c0,0.101-0.2,0.5-0.6,1.101
			c-0.3,0.699-0.5,1.199-0.5,1.5c0,0,0.1,0.699,0.3,2.1c0.4,1.4,1,2.1,1.8,2.1c0.3,0,0.6-0.199,0.8-0.6c-0.1-0.1-0.4-0.7-0.8-1.6
			c-0.2-0.601-0.4-1-0.5-1.301c0.3,0,0.4,0.101,0.7,0.301c0.6,0.399,1.7,0.8,3.1,1.5c0.3,0,0.5-0.101,0.5-0.301
			c-1.1-0.699-2-1.199-2.7-1.699c-0.6-0.301-1-0.601-1.4-0.801c0,0,0,0,0.1-0.1c0-0.1,0-0.1,0-0.1c0.2,0,0.5,0.199,0.8,0.199
			c0.4,0.101,0.8,0.301,1.4,0.301c1.1,0.199,2.3,0.3,3.8,0.399c1.4,0.2,2.6,0.3,3.7,0.4c0.8,0.1,1.4,0.2,2,0.2
			c0.5,0,0.6-0.101,0.6-0.2l0,0c-0.2-0.2-0.3-0.4-0.3-0.4l-1.5-0.2c0,0-0.1,0.101-0.2,0.2c0.1,0,0.2,0.101,0.3,0.101
			c-0.3,0-0.6-0.101-1-0.2c-0.5-0.101-0.9-0.2-1.4-0.3c0.5,0,0.9,0,1.3-0.101c0.6-0.1,1.1-0.2,1.5-0.2c0.1-0.1,0.5-0.199,1-0.6
			c-0.5-0.3-1.4-0.6-2.5-0.8c-1-0.3-2.2-0.5-3.5-0.8c-2.4-0.4-4.1-0.801-5.4-1c0-0.101-0.1-0.2-0.2-0.301
			c-0.4-0.5-0.5-1.1-0.7-1.699c-0.1-0.301-0.1-0.801-0.1-1.801c0-0.699-0.1-1.1-0.4-1.3C18.65,78.6,18.45,78.8,18.45,79.3z"/>
		<path fill="#BD6B98" d="M20.55,86.899c-0.3,0-0.6-0.199-0.8-0.199c0,0,0,0,0,0.1c0.9,0.4,2.5,1.1,4.6,1.9
			c2.1,0.8,3.9,1.399,5.6,1.699c1.3,0.301,2.5,0.5,3.5,0.5c1.8,0,2.8-0.5,2.8-1.5c0-0.3-1.4-0.699-4-1c-1-0.199-1.9-0.199-2.8-0.3
			c-1.2-0.2-2.3-0.2-3.2-0.2c-1.8,0-3.1-0.199-4.1-0.5c0-0.1-0.1-0.1-0.2-0.199C21.35,87.2,20.95,87,20.55,86.899z"/>
		<path fill="#A66898" d="M21.95,87.2c0.1,0.1,0.2,0.1,0.2,0.199c1,0.301,2.3,0.5,4.1,0.5c0.9,0,2,0,3.2,0.2V88
			c-1.1-0.101-2.3-0.2-3.7-0.4C24.25,87.5,23.05,87.399,21.95,87.2z"/>
		<path fill="#1E1E1E" d="M17.75,87.2c0-0.601,0.1-1,0.3-1.5c-3-0.7-7-0.7-12.1,0c-5.4,0.6-7.1,3.699-5.2,9.399
			c2.8,3.101,7.9,5.601,15.2,7.601c7.3,1.899,17.5,3,30.8,3.3c13.2,0.399,23.5-0.601,31.1-3c7.601-2.3,13.101-6.8,16.601-13.601
			c-0.7-4-3.9-5.5-9.7-4.6c-5,0.8-8.5,1.4-10.7,1.7c0,0.3-0.1,0.8-0.3,1.5c0,0.5-0.1,0.899-0.2,1.3c0,0.1,0,0.1,0,0.1
			c0.101,0,0.2,0,0.2,0s0.1,0.2,0.1,0.4c0,0.5-0.3,1-0.699,1.6c-0.7,1-2.7,2-6.101,3.2c-4,1.3-8.8,2.101-14,2.4c-1,0-2,0-3.1,0
			c-0.2,0-0.2,0-0.4,0c-2.1,0-4,0-5.8-0.101c-1,0-2,0-2.9-0.1l-0.1,0.1c0,0,0-0.1-0.1-0.199c-0.6,0-1.1,0-1.5-0.101l-4.1-0.399
			c-0.4,0-0.8-0.2-1.4-0.301c-1.1-0.1-2.1-0.199-3.1-0.3c-2.9-0.5-5.6-1.2-7.8-2.2c-2.5-1-4-2-4.5-2.8h-0.1
			C17.85,88.7,17.75,87.6,17.75,87.2z"/>
		<path fill="#A66898" d="M27.95,87.2c0.5,0.1,0.9,0.199,1.4,0.3c-0.1-0.101-0.1-0.3-0.1-0.4C28.85,87.2,28.45,87.2,27.95,87.2z"/>
		<path fill="#A66898" d="M53.25,96.7c-0.1,0-0.2,0.199-0.2,0.3c5.2-0.3,10-1.101,14-2.4c3.4-1.2,5.4-2.2,6.101-3.2
			c-0.9,1-2.9,2-5.801,3c-4.3,1.5-8.699,2.301-13.1,2.301C53.85,96.7,53.55,96.7,53.25,96.7z"/>
		<path fill="#3C3C3C" d="M17.25,104.8c8,1.8,18,2.6,30.2,2.8c12.1,0.101,22.7-1.2,31.6-4.1c8.9-2.8,14-7.601,15.4-14.101
			C90.95,96.2,85.45,100.7,77.85,103c-7.6,2.399-17.899,3.399-31.1,3c-13.3-0.3-23.5-1.4-30.8-3.3c-7.3-2-12.4-4.5-15.2-7.601
			C3.85,99.899,9.35,103,17.25,104.8z"/>
	</g>
</g>
</svg>
