<?xml version="1.0" encoding="utf-8"?>
<!-- Generator: Adobe Illustrator 13.0.0, SVG Export Plug-In . SVG Version: 6.00 Build 14948)  -->
<svg version="1.2" baseProfile="tiny" id="Layer_1" xmlns="http://www.w3.org/2000/svg" xmlns:xlink="http://www.w3.org/1999/xlink"
	 x="0px" y="0px" width="51.5px" height="107.819px" viewBox="0 0 51.5 107.819" xml:space="preserve">
<g>
	<g>
		<path fill="#F58220" d="M30.8,0.819c-1-0.6-2-0.9-3.3-0.8c-3.2,0-4.9,1.8-4.9,5.6c0,0.2,0,0.6,0.1,1.2c-0.1-0.1-0.2-0.3-0.2-0.4
			c0.2,0.6,0.5,1.4,0.7,2.6c0.4,2,0.7,3.4,0.7,4.2c0,0.1,0,0.2-0.1,0.3v0.1c-0.1-0.1-0.2-0.1-0.2-0.3c0,0.2,0.1,0.5,0.2,0.8
			l-0.3,0.3c0-0.1,0-0.1-0.1-0.2c0.4,1.2,0.9,2.7,1.6,4.5c0,0.1,0.1,0.3,0.2,0.3c-0.5-2.5-0.9-4.6-1.2-6.3c-0.5-3.3-0.9-5.7-0.9-7.3
			c0-1.5,0.7-2.7,2-3.8c1.2-1.1,1.9-0.7,1.9,1.1c0-0.2-0.2,1.5-0.7,5.2c0,0.8,0.1,2.4,0.3,4.7c0.3,2.2,0.4,3.7,0.4,4.4
			c0,0,0.1,0,0.1-0.1c0.5-1.6,1.2-3.7,2-6.4c1.9-5,2.9-7.8,3-8.3H32.2C32,1.719,31.5,1.319,30.8,0.819z"/>
		<path fill="#F58220" d="M21.4,5.119c0.1,0.1,0.1,0.1,0.1,0c0.1,0.1,0.1,0.1,0.2,0.1c-2.1-3.2-3.1-3.7-3.1-1.7l3.2,6.3
			c-2-2.7-3.5-3.4-4.5-2.3v0.1c0,0.1,0.2,0.4,0.3,0.5h0.2c0.2,0.1,0.2,0.5,0.2,0.9c0.1,0.3,0.3,0.5,0.3,0.7v-0.2h0.2
			c0.1,0.2,0.1,0.4,0.1,0.7c0,0,0,0.2,0.1,0.2c0.1,0.1,0.1,0.1,0.1,0.1c0.7,0.7,1.5,1.7,2.6,3.1c0.6,0.8,1.2,1.6,1.8,2.4
			c-0.2-0.5-0.5-1-0.7-1.7c-1.2-2.8-2.1-4.8-2.7-6.1c1,0.8,1.8,2,2.5,3.5c-0.2-0.5-0.3-1-0.4-1.5c-0.4-2.1-0.6-3.2-0.6-3.2
			c0-0.2,0-0.3,0.1-0.5c0.1,0,0.1-0.1,0.2-0.2c-0.1-0.4-0.2-0.7-0.2-0.9V5.119z"/>
		<path fill="#E4822C" d="M21.5,5.119c0,0.1,0,0.1-0.1,0v0.3c0,0.2,0.1,0.5,0.2,0.9c-0.1,0.1-0.1,0.2-0.2,0.2
			c-0.1,0.2-0.1,0.3-0.1,0.5c0,0,0.2,1.1,0.6,3.2c0.1,0.5,0.2,1,0.4,1.5c-0.7-1.5-1.5-2.7-2.5-3.5c0.6,1.3,1.5,3.3,2.7,6.1
			c0.2,0.7,0.5,1.2,0.7,1.7c0.8,1.8,1.4,3.3,1.9,4.4c0.1,0,0.2-0.2,0.3-0.4c-0.1-0.5-0.3-0.9-0.4-1.3c-0.7-1.8-1.2-3.3-1.6-4.5
			c0.1,0.1,0.1,0.1,0.1,0.2l0.3-0.3c-0.1-0.3-0.2-0.6-0.2-0.8c0,0.2,0.1,0.2,0.2,0.3v-0.1c0.1-0.1,0.1-0.2,0.1-0.3
			c0-0.8-0.3-2.2-0.7-4.2c-0.2-1.2-0.5-2-0.7-2.6c-0.3-0.4-0.5-0.9-0.8-1.2C21.6,5.219,21.6,5.219,21.5,5.119z"/>
		<path fill="#F79F58" d="M17.8,8.119h-0.2c-0.1-0.1-0.3-0.4-0.3-0.5s0-0.1,0-0.1h-0.2c0,0,0,0.2,0.1,0.2c0.1,0.3,0.1,0.6,0.3,0.9
			c0,0.3,0,0.6,0,1.1c-0.1,0.4-0.2,0.8-0.2,1.4c0,0.4,0,0.5,0,0.3h0.3c0.2-0.6,0.3-1.1,0.4-1.6v-0.1c0,0,0.1,0.1,0.1,0.3
			c0.1,0.1,0.2,0.2,0.2,0.4v1.7h0.2c0.1-0.5,0.1-0.9,0.1-1.4c0.7,1.3,1.5,2.2,2.4,2.9v-0.1c-0.8-0.8-1.5-1.8-2.2-3c0,0,0,0-0.1-0.1
			c-0.1,0-0.1-0.2-0.1-0.2c0-0.3,0-0.5-0.1-0.7h-0.2v0.2c0-0.2-0.2-0.4-0.3-0.7C18,8.619,18,8.219,17.8,8.119z"/>
		<path fill="#F58220" d="M18,9.719v0.1c0,0.1,0.1,0.2,0.1,0.2C18.1,9.819,18,9.719,18,9.719z"/>
		<path fill="#F48D36" d="M18.1,10.019c0,0-0.1-0.1-0.1-0.2c-0.1,0.5-0.2,1-0.4,1.6h-0.3c0,0.2,0,0.1,0-0.3c0-0.6,0.1-1,0.2-1.4
			c-0.4-0.1-0.6,0.2-0.6,0.8c0,0.5,0.7,1.9,2.2,4.4c0.4,0.3,0.7,0.8,1,1.3c0.7,0.9,1.3,1.6,1.7,2.3c0.5,0.4,0.9,1,1.5,1.6v0.1
			c0,0.1-0.1,0.2-0.3,0.2c0,0,0.1,0.1,0.2,0.2c0.5,0.3,0.9,0.6,1.4,0.8c0,0,0.1,0,0.2,0c0.2,0,0.5-0.2,0.7-0.4
			c0.1-0.1,0.1-0.2,0.2-0.3c0,0,0,0,0.1,0c0.2-0.1,0.5-0.3,0.7-0.5c0,0,0-0.1,0-0.2c0-0.5,0.2-1.6,0.6-3.1c0,0.1-0.1,0.1-0.1,0.1
			c0-0.7-0.101-2.2-0.4-4.4c-0.2-2.3-0.3-3.9-0.3-4.7c0.5-3.7,0.7-5.4,0.7-5.2c0-1.8-0.7-2.2-1.9-1.1c-1.3,1.1-2,2.3-2,3.8
			c0,1.6,0.4,4,0.9,7.3c0.3,1.7,0.7,3.8,1.2,6.3c-0.1,0-0.2-0.2-0.2-0.3c0.1,0.4,0.3,0.8,0.4,1.3c-0.1,0.2-0.2,0.4-0.3,0.4
			c-0.5-1.1-1.1-2.6-1.9-4.4c-0.6-0.8-1.2-1.6-1.8-2.4c-1.1-1.4-1.9-2.4-2.6-3.1c0.7,1.2,1.4,2.2,2.2,3v0.1
			c-0.9-0.7-1.7-1.6-2.4-2.9c0,0.5,0,0.9-0.1,1.4h-0.2v-1.7C18.3,10.219,18.2,10.119,18.1,10.019z M26.3,1.119
			c0.1,0.1,0.2,0.4,0.2,0.9c0,0.2,0,0.2,0,0.4c0,0.2,0,1.1-0.2,2.8c0,1.7-0.1,3,0,3.9c-0.5-2.4-0.7-4.1-0.7-5.1c0,0,0-0.2,0.1-0.2
			c-0.2,0.3-0.4,0.7-0.7,1c-0.8,1.4-1.3,2.2-1.5,2.8h-0.2c0.3-0.9,0.7-1.9,1.3-3.1c0.2-0.1,0.2-0.3,0.4-0.5c0-0.2,0-0.3,0.1-0.4
			c0.1-0.1,0.1-0.1,0.2-0.1c0.2-0.3,0.3-0.5,0.5-0.8c0-0.1,0-0.2,0-0.3c-0.3,0.4-0.8,1-1.5,1.7c-0.2,0.3-0.2,0.3-0.2-0.2
			c0-0.4,0.3-1,0.9-1.5c0.3-0.4,0.6-0.7,0.899-0.7c0-0.2,0-0.4,0-0.6H26.3z"/>
		<path fill="#F79F58" d="M26.5,2.019c0-0.5-0.101-0.8-0.2-0.9h-0.4c0,0.2,0,0.4,0,0.6c-0.3,0-0.6,0.3-0.899,0.7
			c-0.6,0.5-0.9,1.1-0.9,1.5c0,0.5,0,0.5,0.2,0.2c0.7-0.7,1.2-1.3,1.5-1.7c0,0.1,0,0.2,0,0.3c-0.2,0.3-0.3,0.5-0.5,0.8
			c-0.1,0-0.1,0-0.2,0.1c-0.1,0.1-0.1,0.2-0.1,0.4c-0.2,0.2-0.2,0.4-0.4,0.5c-0.6,1.2-1,2.2-1.3,3.1h0.2c0.2-0.6,0.7-1.4,1.5-2.8
			c0.3-0.3,0.5-0.7,0.7-1c-0.1,0-0.1,0.2-0.1,0.2c0,1,0.2,2.7,0.7,5.1c-0.1-0.9,0-2.2,0-3.9c0.2-1.7,0.2-2.6,0.2-2.8
			C26.5,2.219,26.5,2.219,26.5,2.019z"/>
		<path fill="#F58220" d="M17.5,9.719c0-0.5,0-0.8,0-1.1c-0.2-0.3-0.2-0.6-0.3-0.9c-0.6,0.8-0.9,2-0.9,3.7l2.4,3.1
			c0.1,0.1,0.3,0.2,0.4,0.4c-1.5-2.5-2.2-3.9-2.2-4.4C16.9,9.919,17.1,9.619,17.5,9.719z"/>
		<path fill="#E4822C" d="M17.8,13.619h-0.3c0.1,0.4,0.2,0.8,0.5,1.1c0.2,0.5,0.5,1,1,1.5c-0.5-0.2-0.9-0.2-1.2-0.1
			c0.5,0.7,1.2,1.6,2.2,2.4c0,0.1,0.1,0.2,0.3,0.3c1.2,1,2,1.6,2.5,1.6l0,0c0,0,0.1,0,0.2,0c0.2,0,0.3-0.1,0.3-0.2v-0.1
			c-0.6-0.6-1-1.2-1.5-1.6c-0.4-0.7-1-1.4-1.7-2.3c-0.3-0.5-0.6-1-1-1.3c-0.1-0.2-0.3-0.3-0.4-0.4
			C18.4,14.119,18.1,13.819,17.8,13.619z"/>
		<path fill="#F58220" d="M22.8,20.419c0.2,0,0.2,0.1,0.4,0.2c-0.1-0.1-0.2-0.2-0.2-0.2C22.9,20.419,22.8,20.419,22.8,20.419z"/>
		<path fill="#F58220" d="M19,16.219c-0.5-0.5-0.8-1-1-1.5c-2.1-1-3.2-0.9-3.2,0.2l5,3.5c0,0,0.1,0.1,0.2,0.1
			c-1-0.8-1.7-1.7-2.2-2.4C18.1,16.019,18.5,16.019,19,16.219z"/>
		<path fill="#F8AD37" d="M25.1,21.619c-0.1-0.1-0.1-0.1-0.1-0.1c-0.2,0.3-0.4,0.5-0.5,0.9c2.899,5.3,4.1,15,3.6,29.1
			c0.4,0.2,0.7,0.5,1.101,0.9c1.1,1,1.6,2.3,1.6,3.8s-0.5,2.801-1.6,3.801c-0.101,0-0.101,0-0.101,0l0.9,6.899
			c0.2-0.1,0.399-0.1,0.6-0.1c0.8,0,1.4,0.2,1.9,0.7c0.5,0.6,0.8,1.199,0.8,2c0,0.699-0.3,1.3-0.8,1.8s-1.101,0.8-1.9,0.8l3.9,30.5
			c0.3-0.1,0.5-0.2,0.8-0.2c0.2-0.2,0.4-0.399,0.6-0.7c1.2-1.199,2.801-1.899,4.601-1.899c1.1,0,2,0.2,2.8,0.7
			c0.3-0.301,0.6-0.601,1-1c1.3-1.101,2-1.7,2-1.801c-0.3-0.3-1-0.5-1.9-0.8C43.5,96.719,43,96.52,42.8,96.52
			c0.1-1.101,0.8-1.801,2-2c-0.2-0.7-0.3-1.5-0.6-2.2c-0.2,0.399-0.4,0.7-0.7,1.1c-0.5,0.5-1.101,0.8-1.9,0.8
			c-0.7,0-1.3-0.3-1.8-0.8c-0.5-0.6-0.8-1.2-0.8-1.899c0-0.801,0.3-1.301,0.8-1.9c0.5-0.5,1.1-0.8,1.8-0.8s1.3,0.2,1.7,0.7
			c-0.5-1.801-1-3.801-1.6-5.801c-1.2-3.199-2.4-6.699-3.4-10.699c-1.5-6.7-2.7-11.801-3.7-15.2H34.7c-0.101-0.3-0.4-0.7-0.5-1.101
			c-0.9-1.899-1.301-3.2-1.4-3.7H33c0.6,1.2,1.8,4.6,3.7,10.5c1.5,4.5,2.5,7.8,2.899,9.899c0.2,0.601,0.4,1.3,0.7,2.101
			c2.5,7.899,3.7,11.899,3.7,12.199l-0.101,0.301c-0.1,0-0.1,0.199-0.3,0.199c0-0.199-0.1-0.199-0.1-0.399l1.6,6.2
			c0,0.199-0.1,0.5-0.3,0.6c-0.5,0.4-1.1,0.9-1.7,1.5c2,0.6,3,0.9,3.101,0.9c0.3,0.199,0.399,0.5,0.399,1.199c0,0-0.399,0.5-1.3,1.4
			c-0.5,0.6-0.9,1-1.2,1.4c0.5-0.2,0.9-0.301,1.2-0.4c2.8-0.9,4.5-1.3,5-1.4c-0.8,0.601-2.6,1.4-5.3,2.301
			c0.5,0.1,0.8,0.3,1.2,0.699c0.399-0.199,0.899-0.3,1.399-0.5c0,0.101,0,0.101,0.2,0.101c0,0,0,0.2,0,0.399
			c0,0.301-0.3,0.7-1,1.101c0,0.1,0,0.1,0,0.1c0,0.3,0,0.4,0,0.5c0,0.101-0.1,0.101-0.2,0.2c0.2,0.4,0.3,0.9,0.4,1.3
			c3-0.899,4.5-2,4.5-3.3c0-0.1,0-0.1,0-0.2c0-0.2,0-0.2-0.101-0.399c-6.6-24.2-12.1-43.2-16.6-57h-0.2c-0.2,0.5-0.6,0.8-1,0.8
			c-0.3,0-0.7-0.3-1-0.8c-0.3-0.6-0.399-1.3-0.399-2c0-0.8,0.1-1.5,0.399-2.1c0.101-0.2,0.2-0.4,0.4-0.4c-0.7-0.3-1.2-0.6-1.7-1.1
			c-0.3-0.4-0.6-0.7-0.8-1.2c0,0.5-0.2,1.1-0.5,2c-0.2,1-0.4,1.6-0.4,1.9h-0.3c0-0.4,0.2-1.2,0.4-2.2c0.199-1.1,0.3-1.7,0.3-1.8
			s-0.7-2.1-2.101-6.1c-1.399-4.1-2.1-6.3-2.1-6.6v-0.4c0,0.1,0,0,0,0H26c0.5,1.1,1.3,3.5,2.6,7c0.7,1.9,1.2,3.3,1.4,4.3
			c0,0,0,0,0-0.1c0-0.9,0.3-1.7,0.8-2.5c-1.7-4.5-3.2-8.1-4.5-10.7c-0.1,0-0.2,0-0.3,0.1c-0.4-0.1-0.5-0.2-0.6-0.6
			c-0.1,0-0.2-0.1-0.3-0.3C25.1,21.719,25.1,21.719,25.1,21.619z M29.8,44.219H30c0.1,0.3,0.3,0.7,0.3,1.3c1,0,1.7,0.2,2,0.6
			c0.2,0.1,0.2,0.4,0.2,0.6c0,0.3-0.2,0.6-0.4,1c-0.3,0.6-0.5,0.9-0.6,1v0.1h1.3c0.2,0.5,0.2,1.2,0.1,2c-0.1,0.9,0,1.6,0.2,2
			l-0.1,0.2c-0.7-0.3-1-0.9-0.9-1.8c0-0.5,0.2-1.1,0.4-1.7v-0.1l-1,0.2c-0.2-0.1-0.4-0.1-0.4-0.1c-0.1,0-0.1-0.3-0.1-0.5
			c0-0.5,0-0.9,0.2-1.2c0.1-0.2,0.399-0.6,0.8-1.1c-0.4-0.2-0.9-0.2-1.601-0.3c-0.399,0-0.6-0.2-0.6-0.6V44.219z M33.3,48.519
			c0-0.3,0-0.5,0-0.5c0-0.1,0.1-0.2,0.2-0.3c2.1,3,3.6,7.8,4.399,14.1c0.301,1.2,1.101,3.899,2.4,8.5c1,3.7,1.6,5.6,1.6,5.899
			c0,0.5,0,0.7-0.1,0.601c0,0.2,0,0.2,0,0.3c-1.2-3.1-2.9-8.4-5.2-15.9C34.399,53.619,33.3,49.419,33.3,48.519z M48.8,95.619
			c-0.9-1.2-1.8-3.1-2.7-5.4c-1-2.8-1.8-4.699-2.3-5.6l0.2-0.1C45.6,87.219,47.3,91.02,48.8,95.619z M36.399,81.219
			c0.2,0.301,0.4,0.601,0.4,1c0,0.4-0.2,0.801-0.4,1c-0.3,0.301-0.6,0.4-1,0.4c-0.399,0-0.8-0.1-1-0.4c-0.3-0.199-0.399-0.6-0.399-1
			c0-0.399,0.1-0.699,0.399-1c0.2-0.199,0.601-0.399,1-0.399C35.8,80.819,36.1,81.02,36.399,81.219z"/>
		<path fill="#FCC373" d="M30,44.219h-0.2v1.6c0,0.4,0.2,0.6,0.6,0.6c0.7,0.1,1.2,0.1,1.601,0.3c-0.4,0.5-0.7,0.9-0.8,1.1
			c-0.2,0.3-0.2,0.7-0.2,1.2c0,0.2,0,0.5,0.1,0.5c0,0,0.2,0,0.4,0.1l1-0.2v0.1c-0.2,0.6-0.4,1.2-0.4,1.7c-0.1,0.9,0.2,1.5,0.9,1.8
			l0.1-0.2c-0.2-0.4-0.3-1.1-0.2-2c0.101-0.8,0.101-1.5-0.1-2h-1.3v-0.1c0.1-0.1,0.3-0.4,0.6-1c0.2-0.4,0.4-0.7,0.4-1
			c0-0.2,0-0.5-0.2-0.6c-0.3-0.4-1-0.6-2-0.6C30.3,44.919,30.1,44.519,30,44.219z"/>
		<path fill="#FCC373" d="M33.3,48.019c0,0,0,0.2,0,0.5c0,0.9,1.1,5.1,3.3,12.7c2.3,7.5,4,12.801,5.2,15.9c0-0.1,0-0.1,0-0.3
			c0.1,0.1,0.1-0.101,0.1-0.601c0-0.3-0.6-2.199-1.6-5.899c-1.3-4.601-2.1-7.3-2.4-8.5c-0.8-6.3-2.3-11.1-4.399-14.1
			C33.399,47.819,33.3,47.919,33.3,48.019z"/>
		<path fill="#FCC373" d="M46.1,90.219c0.9,2.301,1.8,4.2,2.7,5.4c-1.5-4.6-3.2-8.4-4.8-11.1l-0.2,0.1
			C44.3,85.52,45.1,87.419,46.1,90.219z"/>
		<path fill="#FED252" d="M36.8,82.219c0-0.399-0.2-0.699-0.4-1c-0.3-0.199-0.6-0.399-1-0.399c-0.399,0-0.8,0.2-1,0.399
			c-0.3,0.301-0.399,0.601-0.399,1c0,0.4,0.1,0.801,0.399,1c0.2,0.301,0.601,0.4,1,0.4c0.4,0,0.7-0.1,1-0.4
			C36.6,83.02,36.8,82.619,36.8,82.219z"/>
		<path fill="#F58220" d="M25,21.519c0,0,0,0,0.1,0.1c0,0.1,0,0.1,0,0.1c0.1,0.2,0.2,0.3,0.3,0.3c-0.1,0-0.1-0.2-0.1-0.3
			c0,0,0.5-0.4,1.5-1.2c-0.1,0-0.2,0-0.2,0c0-0.1,0-0.1-0.1-0.3c-0.2,0.2-0.5,0.4-0.7,0.5c-0.1,0-0.1,0-0.1,0
			c-0.1,0.1-0.1,0.2-0.2,0.3c-0.2,0.2-0.5,0.4-0.7,0.4c-0.1,0-0.2,0-0.2,0C24.7,21.419,24.8,21.519,25,21.519z"/>
		<path fill="#E4822C" d="M25.3,21.719c0,0.1,0,0.3,0.1,0.3c0.1,0.4,0.2,0.5,0.6,0.6c0.1-0.1,0.2-0.1,0.3-0.1
			c5.7-3.3,9.3-5.9,10.8-7.7c0.601-0.6,0.9-1.3,0.9-1.7c0-0.3,0-0.4-0.2-0.6c0,0-0.1,0-0.3,0c-4.5,3.3-7.7,5.7-9.7,7.3
			c0-0.2,0.2-0.5,0.3-0.8c0.4-1.1,0.9-2.8,1.8-5c0,0,0-0.1,0.101-0.2l0,0c0.399-0.1,1-0.6,1.6-1.5c0.7-0.8,1.4-2,2.2-3.5
			c0-0.2,0-0.4,0-0.6c-0.7,0.1-1.3,0.5-2.1,1.3c-0.101,0-0.2,0.2-0.4,0.3c0.9-2.6,1.3-4.6,1.3-6c0-0.1-0.1-0.6-0.3-1.6h-0.1H32.1
			c-0.1,0.5-1.1,3.3-3,8.3c-0.8,2.7-1.5,4.8-2,6.4c-0.399,1.5-0.6,2.6-0.6,3.1c0,0.1,0,0.2,0,0.2c0.1,0.2,0.1,0.2,0.1,0.3
			c0,0,0.101,0,0.2,0C25.8,21.319,25.3,21.719,25.3,21.719z"/>
		<path fill="#F58220" d="M37.8,12.519c0.2,0.2,0.2,0.3,0.2,0.6c0,0.4-0.3,1.1-0.9,1.7c0.7-0.5,1.5-1,2.101-1.3
			c1.3-1.7,1.3-3.2,0.1-4.8c-1.3-1.5-2.5-1.5-3.8,0c-0.4,0.3-0.7,0.6-0.9,0.9c1.7-1.4,2.7-1.5,2.7-0.4c0,0.5-1.5,2.3-4.6,5.4
			c-1.801,1.8-3.4,3.2-4.601,4.4c-0.1,0.3-0.3,0.6-0.3,0.8c2-1.6,5.2-4,9.7-7.3C37.7,12.519,37.8,12.519,37.8,12.519z"/>
		<path fill="#F58220" d="M35.5,6.019c0-0.3,0-0.4,0-0.5c-0.101,0-0.2-0.1-0.2-0.1c-0.7,0.4-2,1.8-3.6,4.1
			c0.8-0.8,1.399-1.2,2.1-1.3c0,0.2,0,0.4,0,0.6c-0.8,1.5-1.5,2.7-2.2,3.5c0.4-0.4,0.7-0.8,1-1.1C34.6,8.219,35.5,6.519,35.5,6.019z
			"/>
		<path fill="#F58220" d="M30,13.819c-0.101,0.1-0.101,0.2-0.101,0.2C30,14.019,30,13.919,30,13.819L30,13.819z"/>
		<path fill="#F48D36" d="M30,13.819c0,0.1,0,0.2-0.101,0.2c-0.899,2.2-1.399,3.9-1.8,5c1.2-1.2,2.8-2.6,4.601-4.4
			c3.1-3.1,4.6-4.9,4.6-5.4c0-1.1-1-1-2.7,0.4c-0.6,0.4-1.2,1-2,1.6c-0.3,0.3-0.6,0.7-1,1.1C31,13.219,30.399,13.719,30,13.819z
			 M31.8,13.819c-0.4,0.2-0.7,0.3-1,0.4v-0.2c0.3-0.4,1-0.8,2-1.3c0.5-0.2,0.8-0.4,1.2-0.5c0.3-0.2,0.5-0.4,0.8-0.5
			c-0.1,0.1-0.2,0.3-0.2,0.3c0.101,0,0.2,0,0.4,0c-0.2,0.2-0.601,0.5-1.2,0.9c-0.5,0.5-1.1,1.1-1.8,1.6c-1.3,1.2-2.3,2-3,2.7
			l-0.2-0.1C29.1,16.219,30.1,15.119,31.8,13.819z"/>
		<path fill="#F79F58" d="M30.8,14.219c0.3-0.1,0.6-0.2,1-0.4c-1.7,1.3-2.7,2.4-3,3.3l0.2,0.1c0.7-0.7,1.7-1.5,3-2.7
			c0.7-0.5,1.3-1.1,1.8-1.6c0.6-0.4,1-0.7,1.2-0.9c-0.2,0-0.3,0-0.4,0c0,0,0.101-0.2,0.2-0.3c-0.3,0.1-0.5,0.3-0.8,0.5
			c-0.4,0.1-0.7,0.3-1.2,0.5c-1,0.5-1.7,0.9-2,1.3V14.219z"/>
		<path fill="#FCC373" d="M26,24.519h-0.2c0,0,0,0.1,0,0v0.4c0,0.3,0.7,2.5,2.1,6.6c1.4,4,2.101,6,2.101,6.1s-0.101,0.7-0.3,1.8
			c-0.2,1-0.4,1.8-0.4,2.2h0.3c0-0.3,0.2-0.9,0.4-1.9c0.3-0.9,0.5-1.5,0.5-2c0,0,0-0.1,0-0.2s-0.2-0.7-0.5-1.7
			c-0.2-1-0.7-2.4-1.4-4.3C27.3,28.019,26.5,25.619,26,24.519z"/>
		<path fill="#FED252" d="M30.5,37.719c0.2,0.5,0.5,0.8,0.8,1.2c0.5,0.5,1,0.8,1.7,1.1c0-0.2,0.1-0.2,0.1-0.3
			c-0.8-2.3-1.5-4.5-2.3-6.5c-0.5,0.8-0.8,1.6-0.8,2.5c0,0.1,0,0.1,0,0.1c0.3,1,0.5,1.6,0.5,1.7S30.5,37.719,30.5,37.719z"/>
		<path fill="#FED252" d="M33,40.019c-0.2,0-0.3,0.2-0.4,0.4c-0.3,0.6-0.399,1.3-0.399,2.1c0,0.7,0.1,1.4,0.399,2
			c0.3,0.5,0.7,0.8,1,0.8c0.4,0,0.8-0.3,1-0.8c0.101-0.1,0.101-0.1,0.101-0.1c-0.5-1.6-1-3-1.4-4.4C33.1,40.019,33,40.019,33,40.019
			z"/>
		<path fill="#FAA61A" d="M22.8,33.719c0.1,0,0.2,0,0.2,0.1c1,1,1.5,2.2,1.5,3.6c0,1.3-0.5,2.5-1.5,3.4c-0.6,0.7-1.2,1.1-2,1.4
			c-3.3,11.2-6,21.8-8.2,31.6c0.2,0.399,0.2,0.7,0.2,1c0,0.7-0.2,1.3-0.7,1.7c-0.1,0.1-0.1,0.1-0.1,0.199c-0.6,3-1.3,5.9-1.8,8.801
			c0.3,0.699,0.4,1.5,0.4,2.199c0,1.5-0.5,2.801-1.4,4c-0.6,3.601-1.1,7.101-1.5,10.5c0.4,0,0.8,0.101,1.3,0.2
			c2.3,0.3,3.8,0.601,4.6,0.601c0,0,0.5,0,1.7,0.199c1.1,0.101,2.2,0.2,3.3,0.2c2.8,0,4.5,0,5.2,0c0.5,0,0.9,0.101,1.2,0.101
			c-0.1,0-0.2-0.101-0.2-0.2c-0.4-0.3-0.5-0.8-0.5-1.2s0.1-0.9,0.5-1.3c0.3-0.3,0.8-0.4,1.3-0.4c0.4,0,0.8,0.101,1.2,0.4
			c0.3,0.399,0.5,0.899,0.5,1.3s-0.2,0.9-0.5,1.2c-0.4,0.399-0.8,0.5-1.2,0.5c-0.3,0-0.5,0-0.8-0.101c-0.2,0.2-0.5,0.301-0.6,0.4
			s-0.1,0.1-0.3,0.1c2.5,0,4-0.199,4.7-0.199c0.6,0,1.2,0,1.7-0.101c-0.3-0.1-0.5-0.1-0.7-0.2c1.5-0.5,2.8-0.8,4.2-1.1l-3.9-30.5
			c-0.7,0-1.3-0.3-1.8-0.8s-0.8-1.101-0.8-1.8c0-0.801,0.3-1.4,0.8-2c0.3-0.301,0.8-0.5,1.2-0.601l-0.9-6.899
			c-1,1.1-2.3,1.6-3.7,1.6c-1.5,0-2.8-0.6-3.8-1.6c-1.1-1-1.6-2.301-1.6-3.801s0.5-2.8,1.6-3.8c1-1.1,2.3-1.6,3.8-1.6
			c1,0,1.9,0.2,2.7,0.7c0.5-14.1-0.7-23.8-3.6-29.1c-1.2,2-2.6,5.3-4.2,10C21.2,32.519,22.1,33.019,22.8,33.719z M20.2,66.719
			c0.2,0.101,0.3,0.4,0.3,0.7c0,0.2-0.1,0.4-0.3,0.601c-0.2,0.199-0.4,0.399-0.7,0.399c-0.2,0-0.5-0.2-0.7-0.399
			c-0.2-0.2-0.3-0.4-0.3-0.601c0-0.3,0.1-0.6,0.3-0.7c0.2-0.199,0.5-0.3,0.7-0.3C19.8,66.419,20,66.52,20.2,66.719z M27.3,80.52
			c1.2,1.199,1.7,2.5,1.7,4.1s-0.5,2.9-1.7,4.1c-1.1,1.101-2.5,1.7-4,1.7c-1.7,0-3-0.6-4.2-1.7c-1.1-1.199-1.6-2.5-1.6-4.1
			s0.5-2.9,1.6-4.1c1.2-1.101,2.5-1.7,4.2-1.7C24.8,78.819,26.2,79.419,27.3,80.52z M11,98.419c0.6,0,1,0.101,1.4,0.5
			c0.4,0.4,0.6,0.9,0.6,1.5c0,0.5-0.2,1-0.6,1.3c-0.4,0.5-0.8,0.7-1.4,0.7c-0.6,0-1.1-0.2-1.4-0.7c-0.4-0.3-0.6-0.8-0.6-1.3
			c0-0.6,0.2-1.1,0.6-1.5C9.9,98.52,10.4,98.419,11,98.419z"/>
		<path fill="#FFCC4E" d="M20.5,67.419c0-0.3-0.1-0.6-0.3-0.7c-0.2-0.199-0.4-0.3-0.7-0.3c-0.2,0-0.5,0.101-0.7,0.3
			c-0.2,0.101-0.3,0.4-0.3,0.7c0,0.2,0.1,0.4,0.3,0.601c0.2,0.199,0.5,0.399,0.7,0.399c0.3,0,0.5-0.2,0.7-0.399
			C20.4,67.819,20.5,67.619,20.5,67.419z"/>
		<path fill="#FFCC4E" d="M29,84.619c0-1.6-0.5-2.9-1.7-4.1c-1.1-1.101-2.5-1.7-4-1.7c-1.7,0-3,0.6-4.2,1.7
			c-1.1,1.199-1.6,2.5-1.6,4.1s0.5,2.9,1.6,4.1c1.2,1.101,2.5,1.7,4.2,1.7c1.5,0,2.9-0.6,4-1.7C28.5,87.52,29,86.219,29,84.619z"/>
		<path fill="#FFCC4E" d="M12.4,98.919c-0.4-0.399-0.8-0.5-1.4-0.5c-0.6,0-1.1,0.101-1.4,0.5c-0.4,0.4-0.6,0.9-0.6,1.5
			c0,0.5,0.2,1,0.6,1.3c0.3,0.5,0.8,0.7,1.4,0.7c0.6,0,1-0.2,1.4-0.7c0.4-0.3,0.6-0.8,0.6-1.3C13,99.819,12.8,99.319,12.4,98.919z"
			/>
		<path fill="#FFCC4E" d="M23,33.819c0-0.1-0.1-0.1-0.2-0.1l-1.8,8.5c0.8-0.3,1.4-0.7,2-1.4c1-0.9,1.5-2.1,1.5-3.4
			C24.5,36.019,24,34.819,23,33.819z"/>
		<path fill="#FBBD37" d="M22.8,33.719c-0.7-0.7-1.6-1.2-2.5-1.3c-1,2.6-2,5.8-3.2,9.3c0.7,0.5,1.5,0.7,2.4,0.7
			c0.5,0,1.1-0.1,1.5-0.2L22.8,33.719z"/>
		<path fill="#E59F2D" d="M21,42.219c-0.4,0.1-1,0.2-1.5,0.2c-0.9,0-1.7-0.2-2.4-0.7c-1.1,3.6-2.4,7.7-3.7,12.1
			c0.7,1.7,1.1,3.6,1.1,5.7c0,2.5-0.5,4.699-1.6,6.6s-2.3,2.7-3.9,2.7c-1.1,4-2.2,8.2-3.4,12.6c1.2,0.2,2.3,0.8,3.3,1.8
			c0.7,0.601,1.2,1.5,1.5,2.301c0.5-2.9,1.2-5.801,1.8-8.801c-0.4,0.4-1,0.601-1.6,0.601c-0.7,0-1.3-0.3-1.8-0.8
			c-0.5-0.4-0.7-1-0.7-1.7c0-0.601,0.2-1.2,0.7-1.7c0.5-0.4,1.1-0.7,1.8-0.7c0.6,0,1.2,0.3,1.7,0.7c0.2,0.3,0.4,0.5,0.5,0.7
			C15,64.02,17.7,53.419,21,42.219z"/>
		<path fill="#FFCC4E" d="M21.6,60.02c1,1,2.3,1.6,3.8,1.6c1.4,0,2.7-0.5,3.7-1.6c0,0,0,0,0.101,0H29.1l-1-8.5
			c-0.8-0.5-1.7-0.7-2.7-0.7c-1.5,0-2.8,0.5-3.8,1.6c-1.1,1-1.6,2.3-1.6,3.8S20.5,59.02,21.6,60.02z"/>
		<path fill="#FBBD37" d="M14.5,59.52c0-2.101-0.4-4-1.1-5.7c-1.4,4.6-2.8,9.6-4.4,15c1.6,0,2.8-0.8,3.9-2.7S14.5,62.02,14.5,59.52z
			"/>
		<path fill="#FBBD37" d="M12.8,73.819c-0.1-0.2-0.3-0.4-0.5-0.7c-0.5-0.4-1.1-0.7-1.7-0.7c-0.7,0-1.3,0.3-1.8,0.7
			c-0.5,0.5-0.7,1.1-0.7,1.7c0,0.7,0.2,1.3,0.7,1.7c0.5,0.5,1.1,0.8,1.8,0.8c0.6,0,1.2-0.2,1.6-0.601c0-0.1,0-0.1,0.1-0.199
			c0.5-0.4,0.7-1,0.7-1.7C13,74.52,13,74.219,12.8,73.819z"/>
		<path fill="#FCC373" d="M32.8,53.019c0.1,0.5,0.5,1.8,1.4,3.7c0.1,0.4,0.399,0.801,0.5,1.101H34.6c1,3.399,2.2,8.5,3.7,15.2
			c1,4,2.2,7.5,3.4,10.699c0.6,2,1.1,4,1.6,5.801c0.3,1,0.7,1.899,0.9,2.8c0.3,0.7,0.399,1.5,0.6,2.2c-1.2,0.199-1.9,0.899-2,2
			c0.2,0,0.7,0.199,1.6,0.399c0.9,0.3,1.601,0.5,1.9,0.8c0,0.101-0.7,0.7-2,1.801c-0.4,0.399-0.7,0.699-1,1
			c-0.3,0.3-0.6,0.699-0.7,1c-1.8,0.5-3.3,0.899-4.5,1.1c-1.399,0.3-2.399,0.5-3,0.6c-0.899,0.301-2.1,0.5-3.6,0.601
			c-0.2,0.1-0.3,0.1-0.5,0.1c-0.5,0.101-1.101,0.101-1.7,0.101c-0.7,0-2.2,0.199-4.7,0.199c-1.3,0-2.8,0-4.5,0c-0.6,0-1.3,0-2.1,0
			c-0.2,0-1,0-2.7-0.199c-0.3,0-0.6,0.199-1,0.6l1,0.2c0.4,0.2,1.1,0.3,2,0.3c6.8,0.1,10.4,0.3,10.8,0.3c1.5,0,3.5-0.399,6.2-0.899
			c0.1,0,0.3,0,0.4-0.101c1.6-0.399,3.6-0.899,5.6-1.5c0.8-0.2,1.6-0.399,2.3-0.7c0,0,0,0,0.101,0h0.1c0.7-0.199,1.3-0.1,2.1,0.301
			c0.101,0.1,0.301,0.199,0.4,0.3c0.3,0.3,0.7,0.6,0.9,0.8c0.1,0.1,0.3,0.4,0.399,0.5l0,0c0.101-0.1,0.2-0.1,0.2-0.2
			c0-0.1,0-0.2,0-0.5c0,0,0,0,0-0.1c-0.1-0.5-0.3-0.8-0.6-1.101c-0.4-0.399-0.7-0.6-1.2-0.699c2.7-0.9,4.5-1.7,5.3-2.301
			c-0.5,0.101-2.2,0.5-5,1.4c-0.3,0.1-0.7,0.2-1.2,0.4l0,0l0,0c0.3-0.4,0.7-0.801,1.2-1.4c0.9-0.9,1.3-1.4,1.3-1.4
			c0-0.699-0.1-1-0.399-1.199c-0.101,0-1.101-0.301-3.101-0.9c0.601-0.6,1.2-1.1,1.7-1.5c0.2-0.1,0.3-0.4,0.3-0.6l-1.6-6.2
			c0,0.2,0.1,0.2,0.1,0.399c0.2,0,0.2-0.199,0.3-0.199L44,87.719c0-0.3-1.2-4.3-3.7-12.199c-0.3-0.801-0.5-1.5-0.7-2.101
			C39.2,71.319,38.2,68.02,36.7,63.52c-1.9-5.9-3.101-9.3-3.7-10.5H32.8z"/>
		<path fill="#FED252" d="M30.8,56.219c0-1.5-0.5-2.8-1.6-3.8c-0.4-0.4-0.7-0.7-1.101-0.9l1,8.5H29.2
			C30.3,59.02,30.8,57.719,30.8,56.219z"/>
		<path fill="#FED252" d="M33.3,69.52c0-0.801-0.3-1.4-0.8-2c-0.5-0.5-1.101-0.7-1.9-0.7c-0.2,0-0.399,0-0.6,0.1l0.6,5.2
			c0.8,0,1.4-0.3,1.9-0.8S33.3,70.219,33.3,69.52z"/>
		<path fill="#FFCC4E" d="M30,66.919c-0.4,0.101-0.9,0.3-1.2,0.601c-0.5,0.6-0.8,1.199-0.8,2c0,0.699,0.3,1.3,0.8,1.8
			s1.1,0.8,1.8,0.8L30,66.919z"/>
		<path fill="#E29E32" d="M47.8,101.819c-0.2,0-0.2,0-0.2-0.101c-0.5,0.2-1,0.301-1.399,0.5c0.3,0.301,0.5,0.601,0.6,1.101
			c0.7-0.4,1-0.8,1-1.101C47.8,102.02,47.8,101.819,47.8,101.819z"/>
		<path fill="#FED252" d="M46.6,104.119L46.6,104.119c-0.1-0.1-0.3-0.4-0.399-0.5c-0.9,0.4-2.2,0.9-3.9,1.5
			c-2.4,0.7-4.8,1.3-7.3,1.6v0.801c3.3-0.301,6.3-0.801,9-1.301c1.1-0.3,2.1-0.5,3-0.8C46.899,105.02,46.8,104.52,46.6,104.119z"/>
		<path fill="#FFCC4E" d="M27.5,100.819c-0.4-0.3-0.8-0.4-1.2-0.4c-0.5,0-1,0.101-1.3,0.4c-0.4,0.399-0.5,0.899-0.5,1.3
			s0.1,0.9,0.5,1.2c0,0.1,0.1,0.2,0.2,0.2s0.3,0,0.4,0.1c0,0.1,0,0.1-0.1,0.1c0.3,0.101,0.5,0.101,0.8,0.101
			c0.4,0,0.8-0.101,1.2-0.5c0.3-0.3,0.5-0.8,0.5-1.2S27.8,101.219,27.5,100.819z"/>
		<path fill="#FED252" d="M43.5,93.419c0.3-0.399,0.5-0.7,0.7-1.1c-0.2-0.9-0.601-1.8-0.9-2.8c-0.4-0.5-1-0.7-1.7-0.7
			s-1.3,0.3-1.8,0.8c-0.5,0.6-0.8,1.1-0.8,1.9c0,0.699,0.3,1.3,0.8,1.899c0.5,0.5,1.1,0.8,1.8,0.8
			C42.399,94.219,43,93.919,43.5,93.419z"/>
		<path fill="#FED252" d="M44.1,101.02L44.1,101.02L44.1,101.02z"/>
		<path fill="#FED252" d="M43.3,100.52c-0.8-0.5-1.7-0.7-2.8-0.7c-1.8,0-3.4,0.7-4.601,1.899c-0.199,0.301-0.399,0.5-0.6,0.7
			c0.3-0.1,0.5-0.2,0.7-0.2c1-0.199,2.5-0.5,4.3-1c-0.3,0.5-1,1-2.2,1.4c1.2-0.2,2.7-0.6,4.5-1.1
			C42.7,101.219,43,100.819,43.3,100.52z"/>
		<path fill="#FBBD37" d="M10.4,85.52c-0.3-0.801-0.8-1.7-1.5-2.301c-1-1-2.1-1.6-3.3-1.8c-1.1,4-2.3,8.101-3.4,12.3
			c0.7,0.301,1.5,0.4,2.2,0.4c1.8,0,3.3-0.6,4.5-1.9c0.1-0.199,0.4-0.399,0.5-0.5c0.9-1.199,1.4-2.5,1.4-4
			C10.8,87.02,10.7,86.219,10.4,85.52z"/>
		<path fill="#E59F2D" d="M9.4,91.719c-0.1,0.101-0.4,0.301-0.5,0.5c-1.2,1.301-2.7,1.9-4.5,1.9c-0.7,0-1.5-0.1-2.2-0.4
			c-0.6,2.5-1.4,5.101-2,7.801c-0.1,0-0.1,0-0.1,0.1c-0.1,0.1-0.1,0.4-0.1,0.5c0,1.6,2.5,2.9,7.6,4.1c5,1.101,11,1.601,18.2,1.601
			c2.9,0,5.7-0.101,8.3-0.3c-2.8,0-5.5-0.2-7.899-0.4c-2.4-0.1-4.4-0.1-6.101-0.3c-4.7-0.3-7.8-1-9-2.101
			c-1.1-0.199-2-0.5-2.8-0.899c-1.5-0.3-2.4-1.101-2.8-2.101c0.1,0,0.9,0.2,2.4,0.5C8.3,98.819,8.8,95.319,9.4,91.719z"/>
		<path fill="#E29E32" d="M24.9,104.119c0.1-0.1,0.4-0.2,0.6-0.4c0.1,0,0.1,0,0.1-0.1c-0.1-0.1-0.3-0.1-0.4-0.1
			c-0.3,0-0.7-0.101-1.2-0.101c-0.7,0-2.4,0-5.2,0c-1.1,0-2.2-0.1-3.3-0.2c-1.2-0.199-1.7-0.199-1.7-0.199
			c-0.8,0-2.3-0.301-4.6-0.601c-0.5-0.1-0.9-0.2-1.3-0.2c-1.5-0.3-2.3-0.5-2.4-0.5c0.4,1,1.3,1.801,2.8,2.101
			c0.4,0.2,0.9,0.2,1.5,0.2c1.1,0.199,2.5,0.1,4,0l6.3,0.199c1.7,0,3.2,0,4.5,0C24.8,104.219,24.8,104.219,24.9,104.119z"/>
		<path fill="#FAA61A" d="M18,104.219c0.8,0,1.5,0,2.1,0l-6.3-0.199c-1.5,0.1-2.9,0.199-4,0c-0.6,0-1.1,0-1.5-0.2
			c0.8,0.399,1.7,0.7,2.8,0.899c-0.1,0-0.2-0.199-0.3-0.199c0.1,0,0.4-0.101,0.6-0.101c0.4,0,1.6,0.101,3.6,0.601
			c2.6,0.399,5.7,0.6,9.3,0.6c3.7,0,7-0.2,9.8-0.6c0.101-0.2,0.101-0.301,0.2-0.5c-2.7,0.5-4.7,0.899-6.2,0.899
			c-0.399,0-4-0.2-10.8-0.3c-0.9,0-1.6-0.1-2-0.3l-1-0.2c0.4-0.4,0.7-0.6,1-0.6C17,104.219,17.8,104.219,18,104.219z"/>
		<path fill="#E29E32" d="M15,105.02c-2-0.5-3.2-0.601-3.6-0.601c-0.2,0-0.5,0.101-0.6,0.101c0.1,0,0.2,0.199,0.3,0.199
			c1.2,1.101,4.3,1.801,9,2.101c1.7,0.2,3.7,0.2,6.101,0.3c0.6,0,1.399,0,2.1,0c2,0,3.9-0.1,5.7-0.3c0.3-0.101,0.6-0.101,1-0.101
			c2.5-0.3,4.899-0.899,7.3-1.6c1.7-0.6,3-1.1,3.9-1.5c-0.2-0.2-0.601-0.5-0.9-0.8c-0.1-0.101-0.3-0.2-0.4-0.3
			c-2.1,0.699-4,1.199-5.5,1.5c-1.399,0.399-2.899,0.699-4.6,1c-0.2,0-0.5,0-0.7,0c-2.8,0.399-6.1,0.6-9.8,0.6
			C20.7,105.619,17.6,105.419,15,105.02z"/>
		<path fill="#FED252" d="M44.899,102.52c-0.8-0.4-1.399-0.5-2.1-0.301h-0.1c-0.101,0-0.101,0-0.101,0c-0.7,0.301-1.5,0.5-2.3,0.7
			c-2,0.601-4,1.101-5.6,1.5l0.1,0.601c1.7-0.301,3.2-0.601,4.6-1C40.899,103.719,42.8,103.219,44.899,102.52z"/>
		<path fill="#E29E32" d="M40.3,101.219c-1.8,0.5-3.3,0.801-4.3,1c-0.2,0-0.4,0.101-0.7,0.2c-0.3,0-0.5,0.101-0.8,0.2
			c-1.4,0.3-2.7,0.6-4.2,1.1c0.2,0.101,0.4,0.101,0.7,0.2c0.2,0,0.3,0,0.5-0.1c1.5-0.101,2.7-0.3,3.6-0.601
			c0.601-0.1,1.601-0.3,3-0.6C39.3,102.219,40,101.719,40.3,101.219z"/>
		<path fill="#FFCC4E" d="M34.7,104.419c-0.101,0.101-0.301,0.101-0.4,0.101c-0.1,0.199-0.1,0.3-0.2,0.5c0.2,0,0.5,0,0.7,0
			L34.7,104.419z"/>
		<path fill="#FFCC4E" d="M35,106.719c-0.4,0-0.7,0-1,0.101c0,0.2,0,0.5,0.1,0.7c0.4,0,0.7,0,0.9,0V106.719z"/>
		<path fill="#FAA61A" d="M28.3,107.119c-0.7,0-1.5,0-2.1,0c2.399,0.2,5.1,0.4,7.899,0.4c-0.1-0.2-0.1-0.5-0.1-0.7
			C32.2,107.02,30.3,107.119,28.3,107.119z"/>
	</g>
</g>
</svg>
