<?xml version="1.0" encoding="utf-8"?>
<!-- Generator: Adobe Illustrator 13.0.0, SVG Export Plug-In . SVG Version: 6.00 Build 14948)  -->
<svg version="1.2" baseProfile="tiny" id="Layer_1" xmlns="http://www.w3.org/2000/svg" xmlns:xlink="http://www.w3.org/1999/xlink"
	 x="0px" y="0px" width="101.933px" height="62.475px" viewBox="0 0 101.933 62.475" xml:space="preserve">
<g>
	<g>
		<path fill="#4B6D5A" d="M31.433,62.4c8.3-0.899,16.2-3.1,23.7-6.6c4.1-1.9,7.199-4,9.5-6.3c-0.2,0-0.601-0.101-0.9-0.2
			c-0.3-0.101-0.5-0.3-0.5-0.3c-0.4,0-0.8,0-1.4,0.1c-6.3,1.4-14.3,2.1-24.3,1.8c-12.9-0.2-21.5-2.399-25.7-6.2
			c-3.7-3.399-6.2-6.3-7.5-8.699c0.7-0.301,1.2-0.7,1.3-0.9c-0.1,0.1-0.3,0.2-0.5,0.3c0,0,0,0,0-0.1c-0.3,0.3-0.6,0.5-0.8,0.7
			l-0.5,0.3c-0.1,0.1-0.2,0.2-0.3,0.399c-0.2,0.101-0.4,0.2-0.5,0.2c0.1,0,0.1,0,0.1,0c-0.5,0.4-1,0.8-1.5,1.3
			c-0.8,0.7-1.3,1.5-1.5,2.4c-0.8,6.6,2,11.9,8.6,15.9C15.633,60.9,23.233,62.9,31.433,62.4z"/>
		<path fill="#4C6959" d="M23.133,31.5c0.6-0.7,1.1-1.6,1.3-2.6c0.3-0.9,0.1-1.7-0.5-2.6l-1.4-0.4c-4.9,1.8-10.3,4.7-16.2,8.8
			c-0.2,0.101-0.5,0.2-0.7,0.4c-0.1,0.2-0.6,0.6-1.3,0.9c1.3,2.399,3.8,5.3,7.5,8.699c4.2,3.801,12.8,6,25.7,6.2
			c10,0.3,18-0.399,24.3-1.8c0.601-0.1,1-0.1,1.4-0.1c0,0,0.2,0.199,0.5,0.3c0.3,0.1,0.7,0.2,0.9,0.2
			c2.899,0.199,6.6-0.101,11.3-0.601c4.6-0.5,8.1-0.899,10.5-1.1c2.3-0.4,3.5-1,3.8-2c0.5-0.601,1-1.9,1.7-3.601
			c0-0.199,0-0.199-0.101-0.3h-0.199c-0.2,0.101-0.601,0.3-0.801,0.601c-0.1,0-0.3,0.199-0.6,0.399c-0.3,0.4-0.7,0.7-1,1
			c-0.1-0.3-0.3-0.399-0.7-0.399c-0.399,0-2,0.3-5,0.899c-2.5,0.5-4.3,0.9-5.6,1.2c-1.7,0.3-4.101,0.7-7,1.1
			c-0.9,0.101-1.7,0.2-2.5,0.2c0,0,0,0-0.101,0c3.601-1.399,5.9-2.6,6.9-3.6c0.2-0.101,0.3-0.4,0.5-0.5c1.5-1.9,1.5-4.2-0.1-6.8
			c-0.9-1.2-2-1.7-3.601-1.5c-7.1,1.399-14.3,2.8-21.5,4.3c-10.6,2.1-20.6,0.5-29.8-4.9C21.733,33.3,22.533,32.4,23.133,31.5z"/>
		<path fill="#4B6D5A" d="M68.433,46.9c0.8,0,1.6-0.1,2.5-0.2c1-0.8,2.1-1.5,3.1-2.399c0.5-0.3,0.9-0.601,1.2-1
			c-1,1-3.3,2.2-6.9,3.6C68.433,46.9,68.433,46.9,68.433,46.9z"/>
	</g>
	<g>
		<path fill="#67755A" d="M79.533,8.5c-1.1-0.2-2.3-0.3-3.6-0.3l3.399,0.3l-4.399,1.8l7,5.8l10.3-4.1c-1.9-1-3.8-1.8-6-2.3
			C84.033,9,81.733,8.7,79.533,8.5z"/>
		<path fill="#88685D" d="M79.333,8.5l-3.399-0.3l0,0c-1.2,0-2.2,0-3.4,0.1c-1,0-2,0.1-3,0.2h-0.1l0,0h-0.101l-10.399,4.2l-3-2.7
			c-2,0.3-4.2,0.6-6.2,0.9l4.2,3.8l-9.1,3.5l-6.9-5.7l4.8-2.1c-1.3-0.2-2.7-0.4-4-0.5l-2.7,1l-2.1-1.8c-1-0.2-2-0.4-2.9-0.6
			c-2.3-0.5-4.4-0.6-6.6-0.5l3.5,3l2.6,2h-0.2l-11.6,4.5l-5.4-4.8c-0.6,0.6-1.1,1.2-1.6,1.8l4.2,4.1c-1.4,0.6-2.9,1.1-4.4,1.7l0,0
			l-0.6,0.2l-2.8,1.2l-0.4,3.8v0.2h0.1l5.3,5.2l-3.8,1.4c0.5,1.399,1.2,2.6,2,3.8l5-2l6,5.9l-5.2,2.199
			c1.6,1.101,3.2,2.101,5.1,2.801l3.5-1.5l3,2.899c1.4,0.3,2.9,0.4,4.5,0.5l-0.1-0.1h0.1v0.1c0.9,0.101,1.7,0.101,2.5,0.2
			c0.6,0.1,1.1,0.1,1.6,0.1c1.3,0.101,2.6,0.301,3.9,0.5l3.5-1.5l1.8,1.7c2.1,0,4.2,0,6.3,0l-3.899-3.5l12.5-5.3l0.5-0.2l5.3,4.4
			l-0.5,0.2l-9.5,4.3c2.5-0.101,5.1-0.3,7.7-0.5c1.899,0,3.899-0.2,5.8-0.4c0.3,0,0.7,0,0.9,0c0.8,0,1.399-0.1,2.199-0.2l9.9-4.699
			l2.9,2.699c1.6-0.399,3.1-0.8,4.6-1.3c0.6-0.1,1.1-0.3,1.6-0.5l-3.899-3.5l9.3-4.399l2,1.899c0.2-0.2,0.3-0.6,0.5-0.899
			c0.2-0.5,0.3-0.9,0.4-1.4c0.1-0.3,0.1-0.7,0.3-1.1c0-0.5,0.1-0.801,0.1-1.2c0.101-0.8,0.2-1.4,0.2-2l0.2-3.2v-0.6v0.1l-3.7,2.9
			l-4.7-4l8-3.3c-0.1-0.6-0.2-1.1-0.3-1.7c-0.2-0.3-0.4-0.5-0.5-0.8l-9.7,3.8l-5.899-4.8l10.6-4.5c-1.2-0.8-2.3-1.6-3.5-2.2
			l-10.3,4.1l-7-5.8L79.333,8.5z M72.533,11.3l0.4,0.4l6.3,5.5l-10.5,4.2l-6.7-5.9L72.533,11.3z M81.933,20l5.5,5l-10.101,4.1
			l-5.399-4.9L81.933,20z M11.833,24l6.8-2.9l5.6,5.4l-6.9,2.7L11.833,24z M32.733,14.9l6.7,5.5l-12.1,4.8l-6-5.3L32.733,14.9z
			 M48.233,21.2l8.8-3.7l6.5,6l-8.5,3.4L48.233,21.2z M42.733,23.4l0.2-0.1l7,5.7l-0.4,0.1l-12.3,4.9l-6.5-5.8L42.733,23.4z
			 M53.533,31.9l5.4,4.5l-13.1,5.3l-5-4.5L53.533,31.9z M33.633,35.5l-8,3.3l-5.8-6.101l7.6-3.1L33.633,35.5z M34.733,46.1l-4.5-4.4
			l6.8-2.899l4.7,4.5L34.733,46.1z M89.733,27.2l4.5,4.1l-9.6,4.3l-4.801-4.3L89.733,27.2z M79.233,37.9l-7.2,3.3l-5.3-4.399
			l7.8-3.3L79.233,37.9z M66.733,26.4l5.2,4.9l-8,3.1l-5.4-4.6L66.733,26.4z"/>
		<path fill="#67755A" d="M72.933,11.7l-0.4-0.4L72.933,11.7z"/>
		<path fill="#6E7F5C" d="M72.933,11.7l-0.4-0.4l-10.5,4.2l6.7,5.9l10.5-4.2L72.933,11.7z"/>
		<path fill="#6E7F5C" d="M87.433,25l-5.5-5l-10,4.2l5.399,4.9L87.433,25z"/>
		<path fill="#6E7F5C" d="M18.633,21.1l-6.8,2.9l5.5,5.2l6.9-2.7L18.633,21.1z"/>
		<path fill="#6E7F5C" d="M39.433,20.4l-6.7-5.5l-11.4,5l6,5.3L39.433,20.4z"/>
		<path fill="#67755A" d="M57.033,17.5l-8.8,3.7l6.8,5.7l8.5-3.4L57.033,17.5z"/>
		<path fill="#67755A" d="M42.933,23.3l-0.2,0.1l6.8,5.7l0.4-0.1L42.933,23.3z"/>
		<path fill="#6E7F5C" d="M30.733,28.2l6.5,5.8l12.3-4.9l-6.8-5.7L30.733,28.2z"/>
		<path fill="#6E7F5C" d="M58.933,36.4l-5.4-4.5l-12.7,5.3l5,4.5L58.933,36.4z"/>
		<path fill="#67755A" d="M25.633,38.8l8-3.3l-6.2-5.9l-7.6,3.1L25.633,38.8z"/>
		<path fill="#6E7F5C" d="M30.233,41.7l4.5,4.4l7-2.8l-4.7-4.5L30.233,41.7z"/>
		<path fill="#6E7F5C" d="M94.233,31.3l-4.5-4.1l-9.9,4.1l4.801,4.3L94.233,31.3z"/>
		<path fill="#67755A" d="M72.033,41.2l7.2-3.3l-4.7-4.399l-7.8,3.3L72.033,41.2z"/>
		<path fill="#6E7F5C" d="M71.933,31.3l-5.2-4.9l-8.2,3.4l5.4,4.6L71.933,31.3z"/>
		<path fill="#6E7F5C" d="M69.233,8.5c-1.3,0-2.7,0.2-4.2,0.3c-3,0.4-6.1,0.9-9.1,1.2l3,2.7l10.399-4.2H69.233z"/>
		<path fill="#67755A" d="M69.233,8.5h0.1h0.101l0,0h0.1C69.433,8.5,69.333,8.5,69.233,8.5z"/>
		<path fill="#6E7F5C" d="M85.133,18.7l5.899,4.8l9.7-3.8c-1.5-2.2-3.2-4-5-5.5L85.133,18.7z"/>
		<path fill="#6E7F5C" d="M19.333,9c-2.1,0.7-4.1,1.9-5.8,3.5l-0.2,0.2l5.4,4.8l11.6-4.5l-2.4-2l-3.5-3h-0.1
			C22.733,8.1,20.933,8.4,19.333,9z"/>
		<path fill="#6E7F5C" d="M7.833,22.5c-0.2,0.7-0.2,1.5-0.2,2.2c0.1,0.3,0.1,0.5,0.1,0.8c0,0.2,0,0.2,0,0.4c0.2,2.3,0.8,4.4,1.6,6.4
			l3.8-1.4l-5.3-5.2h-0.1v-0.2l0.4-3.8C7.933,21.9,7.833,22.2,7.833,22.5z"/>
		<path fill="#67755A" d="M8.433,20.6c-0.2,0.4-0.2,0.7-0.3,1.1l1-0.5h0.1c0.4-0.2,0.7-0.3,1.1-0.5l0.6-0.2l0.6-0.2l0,0
			c1.5-0.6,3-1.1,4.4-1.7l-4.2-4.1c-1.4,1.8-2.5,3.8-3.2,6C8.433,20.5,8.433,20.5,8.433,20.6z"/>
		<path fill="#6E7F5C" d="M10.333,20.7c-0.4,0.2-0.7,0.3-1.1,0.5h-0.1l-1,0.5l2.8-1.2L10.333,20.7z"/>
		<path fill="#67755A" d="M33.933,9.1l2.1,1.8l2.7-1C37.133,9.6,35.533,9.3,33.933,9.1z"/>
		<path fill="#67755A" d="M30.333,13h0.2l-2.6-2L30.333,13z"/>
		<path fill="#6E7F5C" d="M49.133,10.9c-2.2-0.2-4.2-0.3-6.4-0.5l-4.8,2.1l6.9,5.7l9.1-3.5l-4.2-3.8
			C49.533,10.9,49.333,10.9,49.133,10.9z"/>
		<path fill="#67755A" d="M46.533,47.9l-1.8-1.7l-3.5,1.5c1.5,0.101,3,0.2,4.5,0.2C46.033,47.9,46.333,47.9,46.533,47.9z"/>
		<path fill="#6E7F5C" d="M52.833,47.9c1.4,0,2.9,0,4.4-0.1l9.5-4.3l-5.3-4.4l-12.5,5.3L52.833,47.9z"/>
		<path fill="#6E7F5C" d="M25.233,45.9c1.1,0.2,2.4,0.4,3.5,0.5l-3-2.899l-3.5,1.5C23.233,45.3,24.233,45.7,25.233,45.9z"/>
		<path fill="#67755A" d="M33.233,46.9v-0.1h-0.1L33.233,46.9z"/>
		<path fill="#6E7F5C" d="M16.333,34.1l-5,2c1.4,2.1,3.2,4,5.3,5.7c0.1,0.1,0.3,0.2,0.5,0.399l5.2-2.199L16.333,34.1z"/>
		<path fill="#67755A" d="M101.933,27.9c0-0.3,0-0.6,0-0.8l-0.2,3.2C101.833,29.4,101.933,28.6,101.933,27.9z"/>
		<path fill="#67755A" d="M98.233,29.5l3.7-2.9c0-1.5-0.2-3-0.4-4.4l-8,3.3L98.233,29.5z"/>
		<path fill="#67755A" d="M100.233,37V36.9l-2-1.899l-9.3,4.399l3.899,3.5c2.4-0.899,4.4-2.2,6.101-4
			C99.433,38.3,99.933,37.7,100.233,37z"/>
		<path fill="#67755A" d="M82.733,45.5c1.3-0.2,2.6-0.601,3.9-0.801L83.733,42l-9.9,4.699c1.4-0.199,2.7-0.399,4.101-0.5
			C79.533,46,81.233,45.8,82.733,45.5z"/>
		<path fill="#67755A" d="M66.733,43.5l0.5-0.2l-5.3-4.4l-0.5,0.2L66.733,43.5z"/>
	</g>
	<g>
		<path fill="#4C6959" d="M62.233,5.7c-0.1,0.1-0.2,0.2-0.3,0.3c-0.9,0.3-1.7,0.8-2.7,1.2c0.4-1,0.8-2.3,1.3-3.7
			c-1.3,1-2.3,2.4-3.1,4.2c0.1,0.1,0.1,0.3,0.1,0.5c0,0.1,0,0.4,0,0.7c0.2,0,0.4,0.1,0.7,0.1c0,0.1,0,0.1,0.2,0.1
			c1-0.8,2-1.4,2.8-1.9C61.633,6.5,61.933,6,62.233,5.7z"/>
		<path fill="#4C6959" d="M63.533,7.5c0-0.2,0-0.3,0-0.3c0.4-0.5,0.5-1.1,0.7-1.5c-0.8,0.7-1.5,1.4-2.2,2c-0.1,0-0.2,0-0.3-0.1
			c0,0.1,0,0.1,0,0.1c0,0.3-0.1,0.5-0.2,0.9c0-0.1,0.101-0.1,0.2-0.1c-0.2,0.5-0.8,1.2-1.8,1.9h0.1c0,0.1,0.101,0.1,0.101,0.4
			c0,0.1-0.101,0.2-0.2,0.4c0,0.3,0,0.5-0.101,0.8c0.101,0,0.101,0,0.101,0.1c0.2-0.1,0.399-0.1,0.6-0.1h0.2c0,0.1-0.1,0.2-0.2,0.4
			c0.3,0.3,0.7,0.6,1.101,0.8c0,0.1-0.101,0.2-0.4,0.3c-0.3-0.3-0.7-0.5-1.2-0.7c-0.2,0.2-0.5,0.4-0.8,0.6c-0.6,0.8-1.4,1.8-2.5,2.8
			c0.4,0,0.8,0.2,1.2,0.5c0.1,0,0.2,0,0.3,0l0,0c0.1-0.2,0.1-0.4,0.1-0.5c0-0.5-0.1-0.7-0.5-0.7c0.101-0.2,0.301-0.4,0.7-0.5
			c0.4,0.5,0.5,1,0.5,1.2c0,0.3,0,0.6-0.1,1c0.5,0.2,0.899,0.5,1.3,0.7c0.2,0.1,0.3,0.2,0.5,0.3l0.5-0.3c-0.2-0.2-0.4-0.4-0.7-0.6
			c0-0.1,0-0.1,0-0.1c0.4,0.1,0.7,0.3,0.9,0.5h0.1l0.5,0.1c0,0.1-0.1,0.1-0.1,0.2c0.399,0.2,0.8,0.3,1,0.5c0.3,0.2,0.6,0.4,0.8,0.5
			l0.2-0.5c0,0,0-0.1,0-0.2l0,0v-0.1c-0.101-0.1-0.2-0.2-0.3-0.2c-0.101-0.2-0.2-0.4-0.2-0.5c0.3,0,0.399-0.1,0.399-0.2
			c-0.3-0.1-0.6-0.3-0.8-0.4c-0.2-0.2-0.399-0.5-0.5-0.7c0.4,0,0.7,0.1,0.8,0.1c0.2,0,0.4-0.1,0.601-0.1c1.399,0.4,2.1,0.6,2.3,0.6
			c0.7,0,1-0.1,1-0.3c-1-0.6-3.2-1.5-6.5-2.7c0.2-0.1,0.3-0.1,0.5-0.2c0.4-0.1,0.7-0.3,1.1-0.3c0.101,0,0.2,0,0.2,0
			c0.7,0,1.101-0.1,1.4-0.2c0-0.1,0.3-0.2,0.5-0.5c0.399,0.2,0.7,0.4,0.899,0.6c0.2-0.1,0.2-0.2,0.2-0.3c-0.1-0.2-0.3-0.4-0.8-0.6
			c0.2-0.1,0.3-0.3,0.5-0.3c-0.3,0-0.5,0-0.8,0.1c-0.601-0.3-1.3-0.6-2.2-0.9c2.7-1.8,4.5-3.2,5.1-4.2c-2.1,1-4,1.9-5.6,2.7
			c0.2-0.3,0.3-0.5,0.5-0.7c0.2,0,0.4,0,0.6,0c0.101,0,0.2-0.3,0.5-0.6c-0.1-0.1-0.199-0.2-0.3-0.2
			C63.433,7.9,63.533,7.7,63.533,7.5z"/>
		<path fill="#4B6D5A" d="M61.733,7.6c0-0.2,0-0.3-0.1-0.4c-0.101,0-0.2,0-0.4,0l0,0c-0.8,0.5-1.8,1.1-2.8,1.9c-0.2,0-0.2,0-0.2-0.1
			c-0.3,0-0.5-0.1-0.7-0.1c0-0.3,0-0.6,0-0.7c0-0.2,0-0.4-0.1-0.5c0-0.1,0-0.1,0-0.1c-0.101-0.1-0.101-0.1-0.101-0.1
			c-0.1,0-0.199-0.2-0.3-0.2c-0.1,0.2-0.5,0.6-1,1.2c-0.3,0-0.8,0-1.1-0.1c0,0,0,0-0.101,0c0.101-0.2,0.101-0.4,0.101-0.6
			c0-0.3,0-0.5,0-0.5l-0.2-0.1c-0.2,0.1-0.5,0.5-0.8,1.1c-0.2,0-0.3,0-0.4,0c-0.2-0.1-0.399-0.1-0.6-0.2c0-0.1,0-0.1,0-0.1
			c0.1-1.5,0.2-3.1,0.2-4.7c0-0.3,0-0.4-0.101-0.4c0-0.1-0.1-0.2-0.1-0.2c-0.4,0-0.8,0.1-1.101,0.3c-0.5,0.5-0.8,1.2-0.899,2.1
			c0,0.2,0,0.6,0,0.8c0,0.3,0,0.5,0.1,0.8c-0.1-0.1-0.1-0.1-0.2-0.2c-0.1,0.2-0.3,0.3-0.399,0.5c-0.1-0.1-0.2-0.1-0.2-0.1
			c-0.2-1.7-0.3-3.2-0.3-4.4c-0.1-0.1-0.1-0.3-0.1-0.5c-0.3,0.6-0.6,1.1-0.8,1.5c-0.1,0.2-0.1,0.5-0.2,0.7c-0.1,0.2-0.1,0.8-0.1,1.8
			c0,0,0,0,0,0.1s0,0.1,0,0.2c-0.1-0.1-0.2-0.1-0.2-0.1c-0.2-0.2-0.3-0.5-0.5-0.7c-0.2-0.5-0.4-0.8-0.6-1.2
			c-0.4-0.6-0.8-1.1-1.2-1.6h-0.2c0.4,0.8,0.7,1.8,1,3c-0.8-0.2-1.5-0.5-2.3-0.7c0.8,0.5,1.7,0.9,2.5,1.2c0.3,1.2,0.7,2.5,1,4
			c-0.2-0.4-0.5-0.8-0.7-1.2c-0.2-0.3-0.4-0.5-0.6-0.8c-0.6-0.8-1.2-1.5-1.9-2.1c0-0.1,0-0.1-0.1-0.1c-0.7-0.7-1.4-1.3-2.2-1.7v0.2
			c0.2,0.4,0.8,1,1.5,2l0.2,0.5c0.1,0.2,0.3,0.3,0.5,0.6c-0.4-0.3-0.7-0.4-0.7-0.4l-0.2,0.1c0,0.4,0.2,0.7,0.5,1.3
			c0.2,0.3,0.4,0.6,0.7,0.7c0,0.2,0.1,0.3,0.2,0.4c-0.4-0.3-0.7-0.7-1.1-1c-1.1-1-2-1.5-2.6-1.5c-0.1,0-0.2,0-0.2,0
			c-0.3,0.1-0.5,0.5-0.5,1c0-0.1,0-0.1-0.1-0.2c-0.5-0.3-1-0.5-1.4-0.8l-0.2,0.1c0.6,0.7,1.6,1.4,2.6,2.2V10c-0.3-0.3-0.7-0.5-1-0.7
			c0,0,0,0.1-0.2,0.2c0,0,0,0.2,0,0.5c0.5,0.4,1.2,0.9,1.7,1.3h-0.2c0.1,0.2,0.3,0.3,0.5,0.4c-0.3,0-0.5-0.1-0.8-0.2
			c-1.2-0.2-2.2-0.4-3.1-0.5c0.4,0.2,0.9,0.4,1.6,0.7c1.3,0.5,3,1.2,5.3,2.2c0.1,0.1,0.3,0.3,0.5,0.4c0,0-0.1,0-0.2,0
			c-2.3-0.7-4.1-1.1-5.5-1c0.7,0.6,2.5,1.3,5.4,2.2c0,0,0.1,0,0.2,0c-1.6,0.5-2.6,1-2.9,1.4l-0.1,0.1c-0.2,0.1-0.4,0.2-0.6,0.3
			c-1,0.6-1.6,0.9-2,1.2c-0.4,0.3-0.6,0.5-0.6,0.6c0,0.2,0,0.4,0,0.4c0.1,0.3,0.4,0.5,0.8,0.5c0.2,0,0.5-0.1,1-0.4l0,0
			c0.2,0.1,0.3,0.1,0.5,0.1c0.1,0,0.3,0.1,0.5,0.1l0.5-0.2c0.2,0.1,0.5,0.1,0.7,0.1c0.1,0,0.3,0,0.4,0s0.2,0,0.3-0.1
			s0.3-0.1,0.4-0.1c-0.8,1-1.3,1.7-1.5,2.2c-0.1,0.2-0.2,0.3-0.2,0.4l0.9,0.7c0.4-0.3,1.2-1.3,2.5-2.9c0-0.2,0.1-0.2,0.2-0.4
			c0,0.1,0,0.2,0,0.2c-0.1,0.2-0.1,0.3-0.2,0.3c-0.5,0.7-0.8,1.3-0.8,1.5c0,0.2,0,0.4,0.1,0.4c0,0.1,0,0.1,0-0.1
			c0.2-0.1,0.2-0.1,0.4-0.2c-0.2,0.4-0.2,0.7-0.2,0.9l0.1,0.7c0.1,0.3,0.2,0.5,0.4,0.6c0.2,0.1,0.3,0.1,0.5,0.1l0,0
			c0.2,0,0.5-0.6,0.9-1.6c0.1-0.1,0.1-0.3,0.3-0.6v0.1c0,0.1,0,0.2,0,0.3c0,0.6,0.1,1.2,0.2,1.7c-0.3,0.4-0.6,0.7-0.8,1
			c0.2-0.2,0.6-0.5,0.9-0.7c0,0.1,0.1,0.1,0.2,0.2c0,0.2,0.1,0.4,0.3,0.5c0.3-0.3,0.5-0.9,0.7-1.8c0.2-0.2,0.4-0.4,0.6-0.5
			c0,0,0.1,0.2,0.2,0.2c0.2,0.5,0.3,1,0.6,1.3c0.101,0.2,0.101,0.2,0.2,0.3c0.2-0.1,0.4-0.1,0.4-0.2V24c0-0.1,0-0.3,0-0.5
			c0.1-0.2,0.2-0.4,0.3-0.6l0.3-0.9c0-0.5-0.1-1-0.2-1.5c0.2-0.3,0.5-0.5,0.7-0.8c0.5,0.3,1,0.7,1.5,1c0.4,0.6,0.9,0.9,1.4,1
			c-0.2,0.2-0.2,0.3-0.3,0.4c0,0.2,0,0.4,0.1,0.5c0,0.1,0,0.1,0.1,0.1h0.301h0.1l0.1,0.1c0.2,0,0.4-0.1,0.7-0.3
			c0.5,0.4,0.9,0.6,1.2,0.8c0.8,0.6,1.3,0.9,1.6,0.9c0.2,0,0.4-0.1,0.4-0.2s0-0.3,0.1-0.3c-0.399-0.5-1.1-1.1-1.8-1.7
			c-0.1-0.1-0.2-0.3-0.3-0.3c0-0.1,0.1-0.2,0.2-0.2c0.2-0.3,0.5-0.6,0.8-1c0.1,0,0.1,0,0.1,0c0.101-0.1,0.101-0.1,0.101-0.2
			c0.6,0.3,1.3,0.4,2,0.4c-0.2,0.3-0.2,0.5-0.4,0.8h0.2c0.2-0.1,0.3-0.4,0.5-0.8c0.7-0.2,1-0.5,1-0.9c0-0.2-0.5-0.6-1.5-1.3
			c0.1-0.1,0.2-0.2,0.3-0.3c0.2-0.2,0.2-0.2,0.4-0.2c0-0.1,0.1-0.1,0.1-0.2l-0.5-0.1h-0.1l-0.2,0.2l-0.5,0.3
			c-0.2-0.1-0.3-0.2-0.5-0.3c-0.4-0.2-0.8-0.5-1.3-0.7c0.1-0.4,0.1-0.7,0.1-1c0-0.2-0.1-0.7-0.5-1.2c-0.399,0.1-0.6,0.3-0.7,0.5
			c0.4,0,0.5,0.2,0.5,0.7c0,0.1,0,0.3-0.1,0.5l0,0c-0.1,0-0.2,0-0.3,0c-0.4-0.3-0.8-0.5-1.2-0.5c1.1-1,1.9-2,2.5-2.8
			c0.3-0.2,0.6-0.4,0.8-0.6c0.5,0.2,0.9,0.4,1.2,0.7c0.3-0.1,0.4-0.2,0.4-0.3c-0.4-0.2-0.801-0.5-1.101-0.8
			c0.101-0.2,0.2-0.3,0.2-0.4h-0.2c-0.2,0-0.399,0-0.6,0.1c0-0.1,0-0.1-0.101-0.1c0.101-0.3,0.101-0.5,0.101-0.8
			c0.1-0.2,0.2-0.3,0.2-0.4c0-0.3-0.101-0.3-0.101-0.4h-0.1c-0.101,0.1-0.2,0.2-0.4,0.3c1-0.8,1.601-1.5,2-2.1
			c0.101-0.4,0.2-0.6,0.2-0.9C61.733,7.7,61.733,7.7,61.733,7.6z M51.233,8.7c-0.2,0.1-0.3,0.2-0.5,0.3c0.1-0.4,0.2-0.7,0.2-0.9
			c0.1,0.1,0.2,0.1,0.3,0.1C51.233,8.3,51.233,8.5,51.233,8.7z M46.433,9.8c0.1,0.2,0.3,0.4,0.4,0.7c-0.3-0.3-0.6-0.5-0.9-0.8
			C46.033,9.8,46.233,9.8,46.433,9.8z M47.533,14.9c-0.1,0-0.1,0-0.1,0S47.433,14.9,47.533,14.9L47.533,14.9z M52.033,19
			c0,0,0,0-0.1,0.1c0-0.1,0-0.2,0-0.3C51.933,18.9,52.033,18.9,52.033,19z M58.233,20.2l-0.3,0.1v-0.1c0,0,0,0,0.1-0.1
			C58.033,20.2,58.133,20.2,58.233,20.2z M56.933,19.7c0-0.1-0.2-0.2-0.2-0.2s0.2,0.1,0.3,0.2C56.933,19.7,56.933,19.7,56.933,19.7
			L56.933,19.7z"/>
		<path fill="#4C6959" d="M50.733,9c0.2-0.1,0.3-0.2,0.5-0.3c0-0.2,0-0.4,0-0.5c-0.1,0-0.2,0-0.3-0.1
			C50.933,8.3,50.833,8.6,50.733,9z"/>
		<path fill="#4C6959" d="M46.833,10.5c-0.1-0.3-0.3-0.5-0.4-0.7c-0.2,0-0.4,0-0.5-0.1C46.233,10,46.533,10.2,46.833,10.5z"/>
		<path fill="#88685D" d="M47.433,14.9c0,0,0,0,0.1,0l0,0C47.433,14.9,47.433,14.9,47.433,14.9z"/>
		<path fill="#4C6959" d="M51.933,19.1c0.1-0.1,0.1-0.1,0.1-0.1c0-0.1-0.1-0.1-0.1-0.2C51.933,18.9,51.933,19,51.933,19.1z"/>
		<path fill="#4C6959" d="M56.733,19.5c0,0,0.2,0.1,0.2,0.2l0,0c0,0,0,0,0.1,0C56.933,19.6,56.733,19.5,56.733,19.5z"/>
		<path fill="#88685D" d="M61.733,8.5c-0.1,0-0.2,0-0.2,0.1c-0.399,0.6-1,1.3-2,2.1c0.2-0.1,0.3-0.2,0.4-0.3
			C60.933,9.7,61.533,9,61.733,8.5z"/>
		<path fill="#4C6959" d="M61.733,18.5c0-0.1-0.1-0.2-0.2-0.3c-0.1,0.1-0.2,0.2-0.3,0.3c1,0.7,1.5,1.1,1.5,1.3c0,0.4-0.3,0.7-1,0.9
			c-0.2,0.4-0.3,0.7-0.5,0.8h-0.2c0.2-0.3,0.2-0.5,0.4-0.8c-0.7,0-1.4-0.1-2-0.4c0,0.1,0,0.1-0.101,0.2c0.2,0,0.4,0.1,0.601,0.2
			c0.3,0.2,0.6,0.5,0.8,0.7c0.2,0.1,0.2,0.3,0.3,0.4l0.101-0.1c0.399,0.4,0.699,0.8,1.1,1.1v-0.1c0-0.3-0.1-0.5-0.2-0.8
			c0.3,0.1,0.5,0.3,0.7,0.3c0.4,0,0.6-0.1,0.7-0.2c0-0.1,0-0.1,0.1-0.1v-0.4c0-0.3-0.3-0.5-0.6-1c0.1-0.1,0.3-0.3,0.6-0.5
			c-0.2-0.1-0.3-0.2-0.399-0.3c0.1,0,0.1,0,0.1,0c0.5,0,0.7,0,0.8-0.2h-0.1c-0.4-0.2-1-0.3-1.5-0.4
			C62.233,18.9,61.933,18.7,61.733,18.5z"/>
		<path fill="#4C6959" d="M40.033,5.7h0.2c0.5,0.5,1,1,1.5,1.5c0.6,0,1.5,0.5,2.6,1.5c0.4,0.3,0.7,0.7,1.1,1
			c-0.1-0.1-0.2-0.2-0.2-0.4c-0.3-0.1-0.5-0.4-0.7-0.7c-0.3-0.6-0.5-0.9-0.5-1.3l0.2-0.1c0,0,0.3,0.1,0.7,0.4
			c-0.2-0.3-0.4-0.4-0.5-0.6l-0.2-0.5c-0.4-0.2-0.7-0.3-1-0.5c-0.1,0-0.1,0-0.2,0l0,0c-1.1-0.5-2-1-2.7-1.5c0.2,0.5,0.6,1,1.4,1.7
			c-0.8-0.3-1.4-0.5-1.8-0.5l0,0c-0.1,0-0.1,0.1-0.1,0.3c0,0.1,0,0.1,0.1,0.2c-0.1-0.1-0.2-0.1-0.2-0.2c0,0.1-0.1,0.2-0.1,0.3
			c0.3,0.6,0.7,1.1,1.3,1.7c0.1,0.1,0.1,0.1,0.1,0.2c0-0.5,0.2-0.9,0.5-1C40.933,6.7,40.533,6.2,40.033,5.7z"/>
		<path fill="#88685D" d="M40.233,5.7h-0.2c0.5,0.5,0.9,1,1.5,1.5c0,0,0.1,0,0.2,0C41.233,6.7,40.733,6.2,40.233,5.7z"/>
		<path fill="#4C6959" d="M40.733,9.5c0.2-0.1,0.2-0.2,0.2-0.2c0.3,0.2,0.7,0.4,1,0.7V9.5c-1.5-1.2-2.5-1.6-2.9-1.3
			c0.1,0.3,0.2,0.5,0.4,0.8c-0.7-0.1-1.2-0.1-1.7,0c0.2,0.1,1.2,0.7,3,1.7c0.3,0.3,0.8,0.5,1.3,0.8c-0.1,0-0.1,0-0.1,0
			c0.3,0.1,0.5,0.2,0.8,0.2c-0.2-0.1-0.4-0.2-0.5-0.4h0.2c-0.5-0.4-1.2-0.9-1.7-1.3C40.733,9.7,40.733,9.5,40.733,9.5z"/>
		<path fill="#4C6959" d="M36.833,11c0,0.3,0,0.5,0,0.6c0,1.4,1.4,2.2,4.2,2.6c0.5,0.1,0.9,0.2,1.4,0.3c-0.2,0.1-0.2,0.2-0.4,0.3
			c0.5,0,0.9,0.1,1.4,0.2c-0.1,0-0.1,0-0.1,0c-4.3,0.5-6.4,1.2-6.4,2.2l0.8,0.8c1-0.3,2.3-0.5,4.2-0.8c-0.2,0.1-0.2,0.3-0.4,0.4
			c-0.9,0.3-1.8,0.4-2.7,0.7c0.1,0.2,0.5,0.2,1.2,0.2c0.2,0,0.3,0,0.5,0c0.4-0.3,1-0.6,2-1.2c0.1-0.1,0.2-0.2,0.4-0.3
			c0.1-0.1,0.2-0.1,0.3-0.1c0.3-0.4,1.3-0.9,2.9-1.4c-0.1,0-0.2,0-0.2,0c-2.9-0.9-4.7-1.6-5.4-2.2c1.4-0.1,3.2,0.3,5.5,1
			c0.1,0,0.2,0,0.2,0c-0.2-0.1-0.4-0.3-0.5-0.4c-2.3-1-4-1.7-5.3-2.2C38.733,11.2,37.633,11,36.833,11z"/>
		<path fill="#4C6959" d="M40.533,21.3c0,0.3,0.1,0.5,0.2,0.6c0.1,0,0.2,0.1,0.5,0.1c1.2-0.8,2.3-1.7,3.1-2.3c-0.1,0-0.3,0-0.4,0
			c-0.2,0-0.5,0-0.7-0.1l-0.5,0.2c-0.2,0-0.4-0.1-0.5-0.1c-0.2,0-0.3,0-0.5-0.1l0,0C40.933,20.3,40.533,21,40.533,21.3z"/>
		<path fill="#4C6959" d="M58.533,3.8c0.2-0.6,0.4-1.1,0.4-1.5c0-0.3-0.101-0.3-0.2-0.4c0,0-0.2,0-0.2-0.1c-0.8,1.1-1.5,2.2-2.2,3.2
			c-0.1-1-0.3-1.8-0.6-2.3c-0.2,0.7-0.5,1.8-0.9,3.3c0.101-1.8,0.2-3.5,0.2-5.3c0-0.3,0-0.4,0-0.4l-0.1,0.1
			c-0.3,0.5-0.7,1.7-1.3,3.8c-0.101-0.7-0.301-1.2-0.4-1.5h-0.2c0,0,0,0.1,0,0.2c0.101,0,0.101,0.1,0.101,0.4
			c0,1.6-0.101,3.2-0.2,4.7c0,0,0,0,0,0.1c0.2,0.1,0.399,0.1,0.6,0.2c0.101,0,0.2,0,0.4,0c0.3-0.6,0.6-1,0.8-1.1l0.2,0.1
			c0,0,0,0.2,0,0.5c0,0.2,0,0.4-0.101,0.6c0.101,0,0.101,0,0.101,0c0.3,0.1,0.8,0.1,1.1,0.1c0.5-0.6,0.9-1,1-1.2
			c0.101,0,0.2,0.2,0.3,0.2C58.033,5.9,58.533,4.7,58.533,3.8z"/>
		<path fill="#4C6959" d="M50.533,0.9c-0.1,0.2-0.2,0.6-0.2,1.3c0,0.2,0,0.5,0.1,0.7c-0.2-0.2-0.2-0.3-0.4-0.4h-0.1
			c0,1.2,0.1,2.7,0.3,4.4c0,0,0.1,0,0.2,0.1c0.1-0.2,0.3-0.3,0.399-0.5c0.101,0.1,0.101,0.1,0.2,0.2c-0.1-0.3-0.1-0.5-0.1-0.8
			c0-0.2,0-0.6,0-0.8c0.1-0.9,0.399-1.6,0.899-2.1c-0.199-1.7-0.3-2.7-0.3-3C50.933,0.3,50.633,0.7,50.533,0.9z"/>
		<path fill="#4C6959" d="M47.533,1.7c0,0.3,0,0.4,0,0.5c0,0.5,0.4,1.7,1.2,3.8c0-1,0-1.6,0.1-1.8c0.1-0.2,0.1-0.5,0.2-0.7
			c-0.1-0.3-0.2-0.5-0.3-0.8c0.2-0.5,0.2-0.7,0.1-1c-0.3,0-0.6-0.1-0.9,0C47.733,1.7,47.533,1.7,47.533,1.7z"/>
		<path fill="#4C6959" d="M48.733,6.3c0-0.1,0-0.1,0-0.2c-0.2-0.2-0.5-0.4-0.7-0.6c0.2,0.2,0.3,0.5,0.5,0.7
			C48.533,6.2,48.633,6.2,48.733,6.3z"/>
		<path fill="#4C6959" d="M46.033,2.7h0.2c0.4,0.5,0.8,1,1.2,1.6c-0.9-1.4-1.4-2.6-1.6-3.5c-0.3,0.2-0.4,0.4-0.6,0.9
			c0,0.3-0.1,0.6-0.1,0.8c0,0.5,0.3,1.2,0.7,2.2c0,0,0,0,0,0.1c-0.6-1.3-1.2-2.5-1.9-3.8h-0.1c0.1,0.9,0.2,2,0.5,3
			c-0.6-0.5-1.1-0.8-1.6-1.1c0,0.1,0,0.1-0.2,0.1c0.6,0.7,1.4,1.5,2.3,2.6c0.1,0.1,0.1,0.3,0.1,0.4c0.1,0,0.1,0,0.1,0.1
			c-0.1-0.3-0.1-0.6-0.2-0.9h0.1c0.8,1.1,1.4,2.1,2,3c0.2,0.3,0.4,0.5,0.6,0.8c0.2,0.4,0.5,0.8,0.7,1.2c-0.3-1.5-0.7-2.8-1-4
			c-0.8-0.3-1.7-0.7-2.5-1.2c0.8,0.2,1.5,0.5,2.3,0.7C46.733,4.5,46.433,3.5,46.033,2.7z"/>
		<path fill="#88685D" d="M44.933,5.2h-0.1c0.1,0.3,0.1,0.6,0.2,0.9c0.7,0.6,1.3,1.3,1.9,2.1C46.333,7.3,45.733,6.3,44.933,5.2z"/>
		<path fill="#4C6959" d="M45.033,19.5c-0.1,0-0.3,0-0.4,0.1c-1.1,0.9-1.9,1.7-2.4,2.4l0.3,0.2c0.3-0.2,0.6-0.3,1-0.5
			C43.733,21.2,44.233,20.5,45.033,19.5z"/>
		<path fill="#4C6959" d="M46.033,21.8c0,0.2,0,0.2,0,0.1c-0.2,0.5-0.3,0.9-0.3,1.2s0.2,0.6,0.8,1.1c0-0.2,0.2-0.2,0.2-0.4
			c-0.2-0.1-0.3-0.3-0.4-0.6l-0.1-0.7c0-0.2,0-0.5,0.2-0.9C46.233,21.7,46.233,21.7,46.033,21.8z"/>
		<path fill="#4C6959" d="M46.933,19.5c-0.1,0.2-0.2,0.2-0.2,0.4c0-0.1,0.1-0.1,0.2-0.2C46.933,19.7,46.933,19.6,46.933,19.5z"/>
		<path fill="#4C6959" d="M48.433,22.1c-0.2,0.2-0.3,0.4-0.4,0.7c-0.1,0.4-0.3,0.9-0.5,1.5h-0.2c0-0.1,0-0.1-0.1-0.2
			c0,0.1-0.2,0.4-0.3,0.6c0.1,0,0.3,0.2,0.6,0.3c0-0.1,0.1-0.3,0.2-0.3l0,0c0,0,0,0,0.1,0.1c0.2-0.3,0.5-0.6,0.8-1
			C48.533,23.3,48.433,22.7,48.433,22.1z"/>
		<path fill="#88685D" d="M48.033,22.8c0-0.1,0-0.3,0.1-0.5c-0.4,1-0.7,1.6-0.9,1.6c0,0.1,0,0.1,0,0.2c0.1,0.1,0.1,0.1,0.1,0.2h0.2
			C47.733,23.7,47.933,23.2,48.033,22.8z"/>
		<path fill="#4C6959" d="M48.733,24.1c-0.3,0.2-0.7,0.5-0.9,0.7c0.1,0.1,0.2,0.1,0.4,0.2c0.2-0.3,0.4-0.5,0.7-0.7
			C48.833,24.2,48.733,24.2,48.733,24.1z"/>
		<path fill="#4C6959" d="M50.933,24.5c0.2-0.1,0.3-0.3,0.399-0.5c-0.3-0.3-0.399-0.8-0.6-1.3c-0.2,0.5-0.3,1-0.3,1.3
			c0,0.2,0,0.4,0.1,0.5C50.533,24.5,50.733,24.5,50.933,24.5z"/>
		<path fill="#4C6959" d="M55.933,21.7c-0.5-0.1-1-0.4-1.4-1c-0.5-0.3-1-0.7-1.5-1c-0.2,0.3-0.5,0.5-0.7,0.8
			c0.101,0.5,0.2,1,0.2,1.5l-0.3,0.9c-0.1,0.2-0.2,0.4-0.3,0.6c0,0.2,0,0.4,0,0.5v0.1c0.3,0.4,0.5,0.6,0.8,0.6
			c0.4,0,0.5-0.1,0.5-0.2v-0.2c0.2,0.2,0.3,0.5,0.5,0.7l0.5-0.3c0-0.4,0.1-0.8,0.1-1.5c0-0.4,0-0.8-0.1-1.2c0.6,1.2,1,2,1.3,2.3
			l0.3-0.3c0.101,0,0.101-0.3,0.101-0.7c0-0.1,0-0.2,0-0.3c0.1,0,0.1,0,0.2-0.1v-0.2h-0.301c-0.1,0-0.1,0-0.1-0.1
			c-0.1-0.1-0.1-0.3-0.1-0.5C55.733,22,55.733,21.9,55.933,21.7z"/>
		<path fill="#4C6959" d="M56.333,22.8l-0.1-0.1c0.5,0.8,0.9,1.2,1.3,1.2c0,0.1,0,0.1,0,0.1c0.2,0,0.4,0,0.5-0.2
			c0.101-0.1,0.2-0.2,0.2-0.5c-0.3-0.2-0.7-0.4-1.2-0.8C56.733,22.7,56.533,22.8,56.333,22.8z"/>
		<path fill="#4C6959" d="M58.233,21.7c0.1,0,0.2,0.2,0.3,0.3c0-0.2-0.1-0.3-0.1-0.5C58.333,21.5,58.233,21.6,58.233,21.7z"/>
	</g>
</g>
</svg>
