<?xml version="1.0" encoding="utf-8"?>
<!-- Generator: Adobe Illustrator 13.0.0, SVG Export Plug-In . SVG Version: 6.00 Build 14948)  -->
<svg version="1.2" baseProfile="tiny" id="Layer_1" xmlns="http://www.w3.org/2000/svg" xmlns:xlink="http://www.w3.org/1999/xlink"
	 x="0px" y="0px" width="51.3px" height="39.954px" viewBox="0 0 51.3 39.954" xml:space="preserve">
<g>
	<g>
		<path fill="#EABA2C" d="M34.8,6.1c-0.1,0.1-0.2,0.2-0.3,0.3c-4.8,8.2-7.4,13.5-7.9,16c-0.6,2.6-0.8,4-0.8,4.199
			c0.1,0.5,0.3,0.9,0.6,1.2c0.9-1.1,1.8-2.5,2.3-4.2c0.7-1.899,1.3-3.5,1.7-4.7v0.3c-0.101,0.8-0.2,2-0.5,3.5
			c1.6,3.5,2.6,5.1,2.8,5.1c0.7,0,1.2-0.3,1.399-1C34.2,26.6,34.2,26,34.2,25.1c0.1,0.5,0.1,1.601,0,3.2c0.1,1.4,0.8,2,2,2
			c0.6,0,1.1-0.399,1.5-1.2c0.1-0.5,0.2-1,0.2-1.6c0-1.1-0.4-4.8-1.101-11.3C36.5,12.4,35.7,9.1,34.8,6.1z"/>
		<path fill="#EABA2C" d="M14.5,6.3c-0.4,1.9-0.8,4.2-1.3,7c-0.2,1.5-0.5,3.3-0.7,5.3c-0.2,1.6-0.2,3.2-0.2,4.8
			c0,1.8,0.4,3.1,1.1,3.899c0.3-0.1,0.6-0.399,0.6-0.7c0-0.399,0.1-0.699,0.2-0.8c0.5,0.101,1.2,0,2.1-0.2l0.1,0.2
			c0,0.601,0.1,1.101,0.4,1.8c0.5,0.801,1,1.2,1.7,1.2c0.6,0,1-0.2,1.2-0.7c0.2-0.6,0.3-1,0.5-1.3c0,0.7,0.1,1.4,0.5,2.101
			C21.2,30.1,22,30.6,22.9,30.6c0.8,0,1.3-0.5,1.3-1.699c0-2.301-0.7-5.601-1.9-9.7C21.3,15.6,18.7,11.3,14.5,6.3z"/>
	</g>
	<g>
		<path fill="#FFE24A" d="M8.5,9.1L5.1,7.4c-0.1,0-0.1,0-0.2,0c0,0.2,0.1,0.2,0.2,0c3.3,3.3,5.7,6.7,7.2,10.2
			c1.6,3.6,2.1,5.6,1.6,6.2c1.1-0.899,1.6-1.7,1.6-2.5c0-1.7-1.2-4.3-3.3-7.7C10.9,11.6,9.7,10.1,8.5,9.1z"/>
		<path fill="#FFCB05" d="M0,6.6c0,0.1,0.1,0.2,0.1,0.3c2.4,3.7,3.9,6.9,4.3,9.6c0.5,2.7,0.7,5.7,1,8.9v8.8c4,3.1,9.8,5,17.4,5.6
			c7.5,0.7,14.9-1,22.2-4.899c0-0.4,0-1,0-1.601c0-4,0-8.1,0.4-12.5c0.3-4.4,1.399-8,3.399-11c1.2-1.4,2-2.2,2.5-2.8
			c-2.6-0.5-5.7,0.4-9.3,2.7c-3.5,2.2-6.6,7.2-9,14.899C32.8,24.2,32.7,23.7,32.7,23.2c-0.101,0.6-0.2,1-0.5,1.399
			C31.8,25.2,31.5,25.4,30.9,25.4C28.3,16.2,26.5,9.7,25.8,5.7H26c0.9,1.5,2.3,4.7,4.1,9.5c0.7,2,1.4,3.6,1.7,4.9
			c-2.2-9-4.3-15.8-6.5-20.1c-0.3,0.7-0.6,1.4-1,2.2C21.4,8.6,19,16,17,24.6c-1.3-7.5-4.1-12.8-8.5-15.5c1.2,1,2.4,2.5,3.7,4.5
			c2.1,3.4,3.3,6,3.3,7.7c0,0.8-0.5,1.601-1.6,2.5c0.5-0.6,0-2.6-1.6-6.2c-1.5-3.5-3.9-6.9-7.2-10.2C5,7.6,4.9,7.6,4.9,7.4
			c0.1,0,0.1,0,0.2,0C3.9,6.9,2.6,6.7,1.5,6.5C1.1,6.4,0.6,6.5,0,6.6z M43.7,9.7l0.2-0.1c0.1,0-0.4,0.7-1.601,2.3
			c-1.1,1.5-2.5,3.5-3.8,6s-2.2,4-2.3,4.7h-0.5c-0.2-0.399-0.3-1-0.3-1.899c0-1.3,1-3.4,3.1-6.3C40.6,11.2,42.3,9.7,43.7,9.7z
			 M40.7,28.6c0-2.6,0.5-5.3,1.5-8.2c0.8-2.1,1.8-4.2,3.1-6.2c-0.1,0.5-0.5,2.1-1.1,5c-0.7,2.899-0.9,6-0.9,9.399
			c0.2,3.301,0.2,5.101,0.4,5.2c0,0.2-0.4,0.4-1.3,0.9c0,0,0,0-0.101,0c-0.8,0.5-2.2,1.1-4.3,1.7c-4,1-6.7,1.8-8.1,2.199h-2.5
			L26.7,38.4c1.6-0.7,3.6-1.301,6-1.601c2.3-0.399,5-1.5,7.8-3.1C40.7,31.2,40.7,29.6,40.7,28.6z M24.7,19.2c0,1.6-0.1,4.2-0.2,7.7
			c-0.2,2.3-0.2,4.199-0.2,5.699c1-0.199,3.4-0.399,7-0.899c3.7-0.5,5.8-0.9,6.5-1.5l0,0c-0.1,0.2-0.7,0.899-2,2
			c-1.3,1.2-4.2,2.5-8.5,3.8c-2.3,0.7-3.7,1.1-4.3,1.2c0,0,0.1,0.1,0.2,0.1c0,1.3-0.7,1.9-2.3,1.9c-4.1,0-7.6-1.101-10.5-3.3
			C7.9,34.1,6.6,32.3,6.6,30.6C6.6,30.2,6.5,28.2,6,24.5c-0.4-3.7-0.5-5.7-0.5-6.2l0.1-0.7c0.8,0.2,2,1.5,3.9,3.9
			c0.8,1.1,2.7,4.2,5.8,9.4c1.8-4.5,3.7-9,6-13.5C23.5,12.9,24.7,13.5,24.7,19.2z"/>
		<path fill="#FAC312" d="M43.9,9.6l-0.2,0.1c-1.4,0-3.101,1.5-5.2,4.7c-2.1,2.9-3.1,5-3.1,6.3c0,0.899,0.1,1.5,0.3,1.899h0.5
			c0.1-0.699,1-2.2,2.3-4.7s2.7-4.5,3.8-6C43.5,10.3,44,9.6,43.9,9.6z"/>
		<path fill="#FFE24A" d="M42.2,20.4c-1,2.9-1.5,5.6-1.5,8.2c0,1,0,2.601-0.2,5.101c-2.8,1.6-5.5,2.7-7.8,3.1
			c-2.4,0.3-4.4,0.9-6,1.601l0.7,0.199h2.5C31.3,38.2,34,37.4,38,36.4c2.1-0.601,3.5-1.2,4.3-1.7c0.101,0,0.101,0,0.101,0
			c0.899-0.5,1.3-0.7,1.3-0.9c-0.2-0.1-0.2-1.899-0.4-5.2c0-3.399,0.2-6.5,0.9-9.399c0.6-2.9,1-4.5,1.1-5C44,16.2,43,18.3,42.2,20.4
			z"/>
		<path fill="#FAC312" d="M24.5,26.9c0.1-3.5,0.2-6.101,0.2-7.7c0-5.7-1.2-6.3-3.4-1.8c-2.3,4.5-4.2,9-6,13.5
			c0.7-1.101,0.4-0.301-1,2.199c-1.5,2.5-1.1,1.7,1-2.199c-3.1-5.2-5-8.301-5.8-9.4c-1.9-2.4-3.1-3.7-3.9-3.9l-0.1,0.7
			c0,0.5,0.1,2.5,0.5,6.2c0.5,3.7,0.6,5.7,0.6,6.1c0,1.7,1.3,3.5,3.8,5.301c2.9,2.199,6.4,3.3,10.5,3.3c1.6,0,2.3-0.601,2.3-1.9
			c-0.1,0-0.2-0.1-0.2-0.1c0.6-0.101,2-0.5,4.3-1.2c4.3-1.3,7.2-2.6,8.5-3.8c1.3-1.101,1.9-1.8,2-2l0,0c-0.7,0.6-2.8,1-6.5,1.5
			c-3.6,0.5-6,0.7-7,0.899C24.3,31.1,24.3,29.2,24.5,26.9z"/>
		<path fill="#FFCB05" d="M14.3,33.1c1.4-2.5,1.7-3.3,1-2.199C13.2,34.8,12.8,35.6,14.3,33.1z"/>
		<path fill="#FFE24A" d="M30.1,15.2c-1.8-4.8-3.199-8-4.1-9.5h-0.2c0.7,4,2.5,10.5,5.101,19.7c0.6,0,0.899-0.2,1.3-0.801
			c0.3-0.399,0.399-0.8,0.5-1.399c0,0.1,0,0.1,0,0.2l-0.9-3.3C31.5,18.8,30.8,17.2,30.1,15.2z"/>
	</g>
</g>
</svg>
