<?xml version="1.0" encoding="utf-8"?>
<!-- Generator: Adobe Illustrator 13.0.0, SVG Export Plug-In . SVG Version: 6.00 Build 14948)  -->
<svg version="1.2" baseProfile="tiny" id="Layer_1" xmlns="http://www.w3.org/2000/svg" xmlns:xlink="http://www.w3.org/1999/xlink"
	 x="0px" y="0px" width="161.286px" height="121.937px" viewBox="0 0 161.286 121.937" xml:space="preserve">
<g>
	<g>
		<path fill="#2484C6" d="M143.8,15.836c-0.7-0.9-1.5-1.8-2.1-2.8c-8.2-11.7-19-15.5-32.7-11.5c-6.9,2-12.3,6-16.2,11.8
			c-3.1,4.8-6,8-8.8,9.9c-3.3,9.4-4.8,18-4.5,26c0.1,3.9,0.2,7,0.3,9.5c0.2,2.601,0.3,4.4,0.4,5.4c0.1,0.5,0.2,1.1,0.3,1.7
			c0,1.6,0,3.399,0,5.5c0.8,0.1,1.7,0.1,2.5,0.1c5.2,0,11.2-1.2,18-3.5c6.2-2,9.2-3.6,9.2-4.5c0-0.5-0.2-0.9-0.4-1.3
			c-0.1-0.2-0.2-0.2-0.3-0.4c-0.3-9,0.2-16,1.2-21.1c2-9.5,5.8-14.4,11.3-14.8c1.3-0.2,2.7-0.1,4,0.3c2,0.2,4.1,1.8,6.6,4.6
			c2.4,2.9,2.7,7.9,1.101,15.2c-1.8,7.4,0.8,13,7.5,17c6.8,4,8.8,10.4,6.1,19.5c-0.6,1-1.6,2.5-3,4.7c-3.1,4.899-4.7,9.8-4.7,14.6
			c0,0.101,0.301,2.2,1.2,6.601c0,0.3,0.101,0.699,0.3,1.1c0.301-0.5,0.7-0.8,1.101-1h0.2c0,0,0.1,0.2,0.1,0.8c0,0.101,0,0.2,0,0.3
			c0.1,0,0.2,0,0.3,0c0-1.8,0.3-4.1,0.601-6.8c0.699-5.2,3.199-9.3,7.3-12.2c4.1-2.899,6.7-5.199,7.7-6.8
			c0.399-0.399,0.699-0.899,0.899-1.3c3.5-8.5,2.4-15-3.5-19.7c-5.8-4.6-7.8-11.8-5.899-21.5
			C151.8,31.736,149.8,23.336,143.8,15.836z M138.5,11.437c4,4.3,6,9.3,6,15.1c0,0.7-0.2,1.6-0.4,2.4c-0.5,1.3-1.199,2-2.1,2
			c-1.7-4.2-4.4-8.3-8.1-12.3c-7.301-8-16.2-11.5-26.9-10.8c-0.4,0-0.7-0.1-0.8-0.1c-0.101-0.1-0.2-0.4-0.2-1c0-2.7,2-4.4,6-5.1
			c3.9-0.6,8.3-0.1,13.2,1.6C130.7,5.037,135.1,7.736,138.5,11.437z M111.2,30.236c-1,5.7-1.7,10.1-2.4,13.2c-1.1,4.8-1.7,7.5-1.8,8
			c-0.2,0.8-0.3,4.2-0.5,10.1c0.5,0.101,0.7,0.2,0.7,0.4c-1.5,1.2-4.9,2.7-10,4.5c-5.3,2-9,3-11.2,3h-2c0-0.2-0.2-0.3-0.8-0.5
			c0.399-0.2,1.3-0.5,2.5-0.8c-2.101-0.3-3.4-1.2-3.7-2.9c1-0.3,4.2-1.899,9.8-4.8c5.4-2.8,10.3-10,14.4-21.5
			C110.4,27.336,112,24.437,111.2,30.236z M146.6,50.336c0.301-1.9,0.7-2.9,1.2-3.1c0.3,1,0.8,3,1.3,5.7c0.601,2.5,1.5,4.6,2.7,6.3
			c1.101,1.4,2.8,3.4,5,6c1.601,2.2,2.5,4,2.5,5.7c0,2.7-0.3,5-0.899,6.7c-0.7,2.5-2.2,4.7-4.4,6.6c-0.4-0.1-0.7-0.1-0.8-0.1
			c-0.101-0.101-0.101-0.5-0.101-1c0-0.101,0.5-1.4,1.5-3.7c0.9-2.3,1.4-3.8,1.4-4.3c0-2.5-1.7-5.7-5-9.7s-5-7.6-5-11
			C146,53.437,146.2,52.037,146.6,50.336z"/>
		<path fill="#5995CF" d="M144.5,26.537c0-5.8-2-10.8-6-15.1c-3.4-3.7-7.8-6.4-13.3-8.2c-4.9-1.7-9.3-2.2-13.2-1.6
			c-4,0.7-6,2.4-6,5.1c0,0.6,0.1,0.9,0.2,1c0.1,0,0.399,0.1,0.8,0.1c10.7-0.7,19.6,2.8,26.9,10.8c3.699,4,6.399,8.1,8.1,12.3
			c0.9,0,1.6-0.7,2.1-2C144.3,28.137,144.5,27.236,144.5,26.537z"/>
		<path fill="#5995CF" d="M108.8,43.437c0.7-3.1,1.4-7.5,2.4-13.2c0.8-5.8-0.8-2.9-5,8.7c-4.101,11.5-9,18.7-14.4,21.5
			c-5.6,2.9-8.8,4.5-9.8,4.8c0.3,1.7,1.6,2.601,3.7,2.9c0.8,0.1,1.6,0.1,2.6,0c3.7-0.4,9.8-2.601,18.2-6.601
			c0.2-5.899,0.3-9.3,0.5-10.1C107.1,50.937,107.7,48.236,108.8,43.437z M105.4,45.437c-0.101,0-0.101,0-0.101,0v-0.2
			C105.3,45.236,105.3,45.336,105.4,45.437z"/>
		<path fill="#2484C6" d="M105.3,45.437c0,0,0,0,0.101,0c-0.101-0.1-0.101-0.2-0.101-0.2V45.437z"/>
		<path fill="#3F7FB8" d="M106.5,61.536c-8.4,4-14.5,6.2-18.2,6.601c-1,0.1-1.8,0.1-2.6,0c-1.2,0.3-2.101,0.6-2.5,0.8
			c0.6,0.2,0.8,0.3,0.8,0.5h2c2.2,0,5.9-1,11.2-3c5.1-1.8,8.5-3.3,10-4.5C107.2,61.736,107,61.637,106.5,61.536z"/>
		<path fill="#5995CF" d="M147.8,47.236c-0.5,0.2-0.899,1.2-1.2,3.1c-0.399,1.7-0.6,3.1-0.6,4.1c0,3.4,1.7,7,5,11s5,7.2,5,9.7
			c0,0.5-0.5,2-1.4,4.3c-1,2.3-1.5,3.6-1.5,3.7c0,0.5,0,0.899,0.101,1c0.1,0,0.399,0,0.8,0.1c2.2-1.899,3.7-4.1,4.4-6.6
			c0.6-1.7,0.899-4,0.899-6.7c0-1.7-0.899-3.5-2.5-5.7c-2.2-2.6-3.899-4.6-5-6c-1.2-1.7-2.1-3.8-2.7-6.3
			C148.6,50.236,148.1,48.236,147.8,47.236z"/>
		<path fill="#F15F3D" d="M73.2,13.836c-0.4-0.2-0.7-0.3-1.1-0.5c-4.4-2.3-9.2-4.1-14.2-5.4c-5.1-1.3-10.7-1.3-16.7-0.3
			s-9.4,2-10.2,2.7c-0.8,0.8-1.2,1.2-1.4,1.3c4.9-0.5,8.4-0.9,10.9-1c1.6,0.6,3.9,1.5,6.7,2.4c7,2.4,11.1,3.8,12.3,4.4
			c1.4,0.6,4.5,2.5,9.5,5.9c2.7,1.9,5.5,4.4,8.2,7.8c0.3,0.3,0.6,0.6,0.8,1c0.5,0.6,0.5,0.5,0.4-0.5c-0.2-1,0.3-2.4,1.4-4
			c1-1.5,1.4-2.6,1.4-3.1c0-1.9-0.5-3.7-1.7-5.3C78.2,17.236,76,15.537,73.2,13.836z"/>
		<path fill="#ED1C24" d="M83.2,23.437c0.3-0.4-1-1.8-3.7-4.2c1.2,1.6,1.7,3.4,1.7,5.3c0,0.5-0.4,1.6-1.4,3.1c-1.1,1.6-1.6,3-1.4,4
			c0.1,1,0.1,1.1-0.4,0.5c-0.2-0.4-0.5-0.7-0.8-1c-2.7-3.4-5.5-5.9-8.2-7.8c-5-3.4-8.1-5.3-9.5-5.9c-1.2-0.6-5.3-2-12.3-4.4
			c-2.8-0.9-5.1-1.8-6.7-2.4c-2.5,0.1-6,0.5-10.9,1c0.2-0.1,0.6-0.5,1.4-1.3c0.8-0.7,4.2-1.7,10.2-2.7s11.6-1,16.7,0.3
			c5,1.3,9.8,3.1,14.2,5.4c-7.1-5.2-16.1-7.9-27-8.1c-11.2-0.2-20.2,3.5-27.2,11.1c-6.9,7.7-9.3,16.9-7.3,27.4
			c2.1,10.6,1.1,19.5-2.8,26.601c-4,7.1-6.2,11.3-6.5,12.399c-0.8,2.9-1.3,6.2-1.3,10.2c0,3.5,0.3,6.5,0.9,9c0.7,2.6,1.9,5,3.4,7.2
			c0-0.2-0.1-0.3-0.1-0.5c0.3,0.2,0.7,0.5,1.2,1.1c-0.1-0.8-0.2-1.399-0.2-2.2c-0.4-2.6-0.7-4.1-0.9-4.6c-0.3-0.5-0.3-2.5-0.3-6.4
			c0.1-1.8,0.3-3.5,0.8-5.1c-0.2,0.5-0.4,0.9-0.6,1.2l-0.2,0.3c-0.5-0.2-0.9-0.6-1-1.4c-0.1-0.199-0.1-0.8-0.1-1.6
			c0-3.3,1.1-6.5,3.3-9.5c1.8-2.3,5-5.5,9.9-9.8c2.4-2,4.1-5.2,5.1-9.4c0.9-4.6,1.6-7.6,2.3-9.3c0.5,0.5,0.8,1.5,0.9,2.9
			c0.1,0.4,0.1,1.5,0.1,3.1c0,3.7-0.6,6.8-2,9.3c-0.9,1.7-2.6,3.7-5.1,6.101c-3,2.899-5.2,5.3-6.6,7.1c-1.3,1.8-2.5,3.7-3.6,5.8
			c1.9-2.899,5.2-6.6,10.1-11c4.3-4,6.6-7,7.2-9c0.6-2.1,0.7-5.6,0.5-10.6c-0.2-5.8-0.3-9.8-0.1-12c1-9.4,6.2-14,16-14
			c5,0,8.6,2.1,10.6,6.3c1.2,2.5,1.8,5.3,1.8,8.6c0,0.4,0.2,3.2,0.6,8.4s0.3,7.9-0.1,8.1c-0.7,1.7,1.6,3.7,6.7,6.101
			c5.7,2.5,12.3,4,20,4.2c0-2.101,0-3.9,0-5.5c-0.1-0.601-0.2-1.2-0.3-1.7c-0.1-1-0.2-2.8-0.4-5.4c-0.1-2.5-0.2-5.6-0.3-9.5
			c-0.3-8,1.2-16.6,4.5-26C83.1,24.137,82.8,24.236,83.2,23.437z M60.9,65.736c-1-0.6-1.9-1.5-2.7-2.6c-0.7-1.101-1.2-1.9-1.4-2.2
			l0.2-0.3c1.8,1.1,3.7,2.6,5.9,4.6c2.7,1.7,7.6,2.601,14.6,3l0.3,0.2c-0.5,0.3-1.3,0.5-2.8,0.5
			C68.5,68.937,63.9,67.937,60.9,65.736z M3,93.236c0-0.1,0-0.2,0-0.2l0,0C3,93.036,3,93.137,3,93.236z"/>
		<path fill="#C74A34" d="M58.2,63.137c0.8,1.1,1.7,2,2.7,2.6c3,2.2,7.6,3.2,14.1,3.2c1.5,0,2.3-0.2,2.8-0.5l-0.3-0.2
			c-7-0.399-11.9-1.3-14.6-3c-2.2-2-4.1-3.5-5.9-4.6l-0.2,0.3C57,61.236,57.5,62.036,58.2,63.137z"/>
		<path fill="#F15F3D" d="M17.4,73.337c2.5-2.4,4.2-4.4,5.1-6.101c1.4-2.5,2-5.6,2-9.3c0-1.6,0-2.7-0.1-3.1
			c-0.1-1.4-0.4-2.4-0.9-2.9c-0.7,1.7-1.4,4.7-2.3,9.3c-1,4.2-2.7,7.4-5.1,9.4c-4.9,4.3-8.1,7.5-9.9,9.8c-2.2,3-3.3,6.2-3.3,9.5
			c0,0.8,0,1.4,0.1,1.6c0.1,0.801,0.5,1.2,1,1.4l0.2-0.3c0.2-0.3,0.4-0.7,0.6-1.2c0.7-1.8,1.5-3.6,2.4-5.2c1.1-2.1,2.3-4,3.6-5.8
			C12.2,78.637,14.4,76.236,17.4,73.337z"/>
		<path fill="#FAA61A" d="M11.8,112.437c-0.7-0.5-1.5-1-2.2-1.2c-1-0.3-2.1-0.5-3.3-0.3c-0.1-0.3-0.3-0.5-0.5-0.7
			c-0.1-0.3-0.3-0.399-0.4-0.5c-0.5-0.6-0.9-0.899-1.2-1.1c0,0.2,0.1,0.3,0.1,0.5c0.2,0.3,0.3,0.7,0.5,1.1c0.2,0.2,0.3,0.5,0.4,0.8
			c-0.2,0-0.4,0.101-0.5,0.2c0.2,0.101,0.5,0.2,0.8,0.2c0.5,1,1.2,2.2,2,3.5c-0.5,0.3-0.8,0.5-0.8,0.5c-0.2,0.1-0.3,0.5-0.3,1
			c0,0.2,0.1,0.4,0.2,0.5c0.2,0.2,0.9,0.5,1.9,1c0.2,0,0.4-0.1,0.6-0.3c0.1-0.2,0.1-0.4,0.1-0.5c0-0.101,0-0.3,0-0.9
			c0-0.3-0.1-0.7-0.4-1.3c-0.1-0.3-0.2-0.5-0.4-0.7c-0.2-0.6-0.6-1.3-1.2-2l0,0c1.4,0.601,2.6,1.2,3.6,1.9c0,0.1,0.1,0.1,0.2,0.2
			c0.2,0,0.3,0.1,0.5,0.1v0.2c1,0.8,1.5,1.6,1.5,2.2c0,0.399-0.2,0.899-0.6,1.6c-0.5,0.6-0.6,1.1-0.6,1.5c0,0.2,0,0.3,0,0.4
			c0,0.5,0,0.6,0.2,0.1c0.8-0.9,1.4-1.5,1.6-1.8c0.2-0.4,0.4-1.101,0.4-1.9C14,115.236,13.2,113.837,11.8,112.437z"/>
		<path fill="#FFCB05" d="M7.2,112.236L7.2,112.236c0.6,0.7,1,1.4,1.2,2c-0.1-0.3-0.1-0.399-0.1-0.6c0.3-0.101,1.1,0.1,2.7,0.7
			c-0.1-0.101-0.2-0.101-0.2-0.2C9.8,113.437,8.6,112.837,7.2,112.236z"/>
		<path fill="#FFF685" d="M8.8,114.937c0.1,0,0.1,0.1,0.1,0.2c0.5,0.8,1,1.3,1.4,1.3c0.9,0,1.3-0.2,1.3-0.5l-0.1-1.3v-0.2
			c-0.2,0-0.3-0.1-0.5-0.1c-1.6-0.601-2.4-0.801-2.7-0.7c0,0.2,0,0.3,0.1,0.6C8.6,114.437,8.7,114.637,8.8,114.937z"/>
		<path fill="#FFCB05" d="M8.9,115.137c0-0.101,0-0.2-0.1-0.2c0.3,0.6,0.4,1,0.4,1.3c0,0.601,0,0.8,0,0.9c0,0.1,0,0.3-0.1,0.5
			c-0.2,0.2-0.4,0.3-0.6,0.3c-1-0.5-1.7-0.8-1.9-1c-0.1-0.1-0.2-0.3-0.2-0.5c0-0.5,0.1-0.9,0.3-1c0,0,0.3-0.2,0.8-0.5
			c-0.8-1.3-1.5-2.5-2-3.5c-0.3,0-0.6-0.1-0.8-0.2c0.1-0.1,0.3-0.2,0.5-0.2c-0.1-0.3-0.2-0.6-0.4-0.8c-0.9,0-1.7,0.3-2.4,0.8
			c-1.3,0.9-2,2.5-2,4.601c0-0.101,0.2,0.899,0.6,3c1.1,2.2,3.5,3.3,7,3.3c1.6,0,2.8-0.5,3.8-1.6c0-0.101,0-0.2,0-0.4
			c0-0.4,0.1-0.9,0.6-1.5c0.4-0.7,0.6-1.2,0.6-1.6c0-0.601-0.5-1.4-1.5-2.2l0.1,1.3c0,0.3-0.4,0.5-1.3,0.5
			C9.9,116.437,9.4,115.937,8.9,115.137z M1.2,114.736c0-1.1,0.1-1.7,0.2-1.899c0.1-0.5,0.5-0.9,1.2-1.2c-0.1,0.399-0.3,1-0.6,1.7
			c-0.1,0.5-0.2,1.1-0.2,1.6c0,0.9,0.2,1.8,0.8,2.6c0.2,0.301,1,1.301,2.6,3.101l-0.2,0.3c-2-1.7-3.2-2.9-3.5-3.4
			C1.4,117.337,1.2,116.337,1.2,114.736z"/>
		<path fill="#FAA61A" d="M1.4,112.837c-0.1,0.199-0.2,0.8-0.2,1.899c0,1.601,0.2,2.601,0.3,2.8c0.3,0.5,1.5,1.7,3.5,3.4l0.2-0.3
			c-1.6-1.8-2.4-2.8-2.6-3.101c-0.6-0.8-0.8-1.699-0.8-2.6c0-0.5,0.1-1.1,0.2-1.6c0.3-0.7,0.5-1.301,0.6-1.7
			C1.9,111.937,1.5,112.337,1.4,112.837z"/>
		<path fill="#FAA61A" d="M142.2,108.437c-0.4,0.2-0.8,0.5-1.101,1c-0.199,0.1-0.3,0.3-0.399,0.5c-0.601,0.7-1,1.7-1.4,2.9
			c-0.399,1.399-0.5,2.6-0.5,3.899v1.4c0.9,0.3,1.8,0.5,2.7,0.5c0.6,0,0.9-0.2,1.1-0.5c0.101-0.2,0.2-0.7,0.2-1.5
			c0-0.3-0.2-0.9-0.6-1.601c-0.4-0.6-0.601-1.1-0.601-1.6c0-0.4,0.101-1,0.5-2c0.101-0.5,0.2-1,0.301-1.3c2.199,0.8,3.8,1.8,4.8,3
			c0.899,1.1,1.399,2.399,1.399,4c0,0.399-0.1,0.8-0.199,1.1c0,0.101,0,0.2,0.1,0.2s0.1,0,0.2,0c0.2-0.2,0.399-0.4,0.5-0.5
			c0.2-0.7,0.3-1.5,0.3-2.3c0-1.601-0.6-2.9-1.8-4.101c-1.3-1.199-2.9-1.899-4.9-2c-0.1,0-0.2,0-0.3,0c0-0.1,0-0.199,0-0.3
			c0-0.6-0.1-0.8-0.1-0.8H142.2z"/>
		<path fill="#FFCB05" d="M139.1,110.536c0.301,0.2,0.601,0.301,0.7,0.4c-2.7,2-4,3.5-4,4.8c0,0.5,0.601,1.8,2,4.2
			c-0.399-0.2-0.6-0.4-0.899-0.6c1.6,1.699,3.6,2.6,6.1,2.6c2.3,0,4-0.7,5-2.3c0.2-0.3,0.5-0.8,0.7-1.2c-0.101,0-0.101,0-0.2,0
			s-0.1-0.1-0.1-0.2c0.1-0.3,0.199-0.7,0.199-1.1c0-1.601-0.5-2.9-1.399-4c-1-1.2-2.601-2.2-4.8-3c-0.101,0.3-0.2,0.8-0.301,1.3
			c-0.399,1-0.5,1.6-0.5,2c0,0.5,0.2,1,0.601,1.6c0.399,0.7,0.6,1.301,0.6,1.601c0,0.8-0.1,1.3-0.2,1.5c-0.199,0.3-0.5,0.5-1.1,0.5
			c-0.9,0-1.8-0.2-2.7-0.5v-1.4c0-1.3,0.101-2.5,0.5-3.899c0.4-1.2,0.8-2.2,1.4-2.9c-0.8,0.1-1.4,0.3-2,0.5L139.1,110.536z
			 M143.1,115.937c-0.399-0.5-0.5-1-0.5-1.5c0-1.9,0.801-2.8,2.601-2.4c1.7,0.4,2.6,1.5,2.6,3.7c0,0.5,0,0.8,0,1.2
			c-0.6,0.1-1.2,0.3-2,0.3C144.5,117.236,143.6,116.736,143.1,115.937z"/>
		<path fill="#FFF685" d="M142.6,114.437c0,0.5,0.101,1,0.5,1.5c0.5,0.8,1.4,1.3,2.7,1.3c0.8,0,1.4-0.2,2-0.3c0-0.4,0-0.7,0-1.2
			c0-2.2-0.899-3.3-2.6-3.7C143.4,111.637,142.6,112.536,142.6,114.437z"/>
		<path fill="#FAA61A" d="M139.8,110.937c-0.1-0.1-0.399-0.2-0.7-0.4l-0.399-0.1h-0.2c-1.6,1-2.5,1.8-2.9,2.5
			c-0.399,0.5-0.5,1.5-0.5,2.7c0,1.399,0.601,2.7,1.801,3.7c0.3,0.199,0.5,0.399,0.899,0.6c-1.399-2.4-2-3.7-2-4.2
			C135.8,114.437,137.1,112.937,139.8,110.937z"/>
		<path fill="#FFCB05" d="M5.8,110.236c0.2,0.2,0.4,0.4,0.5,0.7c1.2-0.2,2.3,0,3.3,0.3c-0.8-0.399-1.8-0.8-2.8-0.899
			C6.5,110.236,6.2,110.236,5.8,110.236z"/>
	</g>
</g>
</svg>
