<?xml version="1.0" encoding="utf-8"?>
<!-- Generator: Adobe Illustrator 13.0.0, SVG Export Plug-In . SVG Version: 6.00 Build 14948)  -->
<svg version="1.2" baseProfile="tiny" id="Layer_1" xmlns="http://www.w3.org/2000/svg" xmlns:xlink="http://www.w3.org/1999/xlink"
	 x="0px" y="0px" width="101.2px" height="42.811px" viewBox="0 0 101.2 42.811" xml:space="preserve">
<g>
	<g>
		<path fill="#4B6D5A" d="M23.8,7.343c-0.8,0.2-1.4,0.3-2,0.5c0.1,0.2,0.3,0.4,0.4,0.6C22.3,8.443,22.8,8.043,23.8,7.343z"/>
		<path fill="#938FB7" d="M24.9,9.343c0.1-0.1,0.1-0.3,0.2-0.5c0.1,0,0.1-0.1,0.2-0.1c0.2-0.4,0.6-0.7,1-0.9
			c0.7-0.5,1.5-0.6,2.5-0.4c0.1,0,0.2,0,0.5,0.1l0.1-0.1c-0.2-0.3-0.4-0.6-0.7-0.7c-0.4-0.3-1-0.5-1.8-0.5c-0.9-0.2-1.9,0.1-2.8,0.9
			c-0.2,0.1-0.2,0.2-0.3,0.2c-1,0.7-1.5,1.1-1.6,1.1c-0.1-0.2-0.3-0.4-0.4-0.6c-1.3-2.4-2.9-3.6-4.6-3.8c-1.1-0.1-1.8,0.2-2.3,0.8
			c-0.2,0.5-0.5,1-0.5,1.8c0,0.4,0,1,0.3,1.6c0.2,0.6,0.4,1,0.6,1.2c-1.4,0.4-2.8,0.7-4.4,0.9c-0.9,0.2-1.4,0.6-1.5,1.3
			c0,0.3,0.1,0.6,0.3,0.8c0.1,0.3,0.4,0.6,0.7,0.9c0.9,0.5,2.3,0.9,4.1,1.2c0.2,0,0.3,0,0.4,0c0,0.4-0.1,0.8-0.2,1.2
			c0,0.6,0,1.2,0.2,1.7c0.1,0.5,0.3,0.9,0.5,1.3c0.7,0.8,1.6,1.3,2.9,1.4c1.1,0.1,2.1-0.3,3-1.1c0.6-0.4,0.8-1.1,1-1.8
			c0.1-0.5,0.1-1,0.1-1.5c0,0,0-0.1,0-0.2c0,0.1,0.1,0.1,0.3,0.2c0.9,0.3,1.7,0.5,2.4,0.7c1.2,0.3,2.2,0.3,2.9,0.3
			c0.3,0,0.4-0.1,0.5-0.1c0-0.1,0.2-0.1,0.3,0.1c0.1,0,0.5-0.1,1.2-0.5c0.2,0,0.4,0,0.4-0.2c0-0.2,0-0.6,0-0.9c0-0.4,0-0.8,0-1.2
			c-0.1-0.2-0.6-0.3-1.5-0.5c-0.1,0-0.1,0-0.3,0c-0.2-0.1-0.3-0.1-0.5-0.2c-0.4-0.2-1-0.5-1.6-1c-0.1-0.1-0.2-0.3-0.4-0.4
			c-0.1-0.1-0.1-0.1-0.2-0.1C25.1,10.843,24.8,10.043,24.9,9.343z M18.2,10.743c0.5-0.5,1.3-0.8,2.6-0.8c1.6,0.2,2.5,0.6,2.6,1.3
			c0,0.5-0.1,0.8-0.1,1c0,0,0,0,0,0.1c-0.1,0.3-0.1,0.4-0.2,0.7c-0.3,1.1-1.3,1.6-2.8,1.5c-0.5,0-1-0.1-1.4-0.3
			c-0.5-0.2-0.8-0.5-1-0.8c-0.1-0.4-0.1-0.8,0-1.4c0-0.1,0-0.2,0-0.3c0,0,0-0.1,0-0.3C17.9,11.143,18,10.943,18.2,10.743z"/>
		<path fill="#FFCC4E" d="M20.8,9.943c-1.3,0-2.1,0.3-2.6,0.8c-0.2,0.2-0.3,0.4-0.3,0.7c0,0.2,0,0.3,0,0.3c0,0.1,0,0.2,0,0.3
			c-0.1,0.6-0.1,1,0,1.4c0.2,0.3,0.5,0.6,1,0.8c0.4,0.2,0.9,0.3,1.4,0.3c1.5,0.1,2.5-0.4,2.8-1.5c0.1-0.3,0.1-0.4,0.2-0.7
			c0-0.1,0-0.1,0-0.1c0-0.2,0.1-0.5,0.1-1C23.3,10.543,22.4,10.143,20.8,9.943z"/>
		<path fill="#D49E9F" d="M25.1,8.843c-0.1,0.2-0.1,0.4-0.2,0.5c-0.1,0.7,0.2,1.5,1,2.4c0.1,0,0.1,0,0.2,0.1
			c0.2,0.1,0.3,0.3,0.4,0.4c0.6,0.5,1.2,0.8,1.6,1c0.2,0.1,0.3,0.1,0.5,0.2c0.2,0,0.2,0,0.3,0c0.9,0.2,1.4,0.3,1.5,0.5
			c0,0.4,0,0.8,0,1.2c0,0.3,0,0.7,0,0.9c0.1,0.3,0.2,0.6,0.3,0.9l1.3,1.3c0.7,0.2,1.4,0,2.3-0.4c0.1-0.1,0.3-0.2,0.5-0.4
			c0.4-0.2,0.8-0.7,1.1-1.1c0.3-0.3,0.5-0.6,0.7-0.7c0.1,0,0.1-0.2,0.2-0.2c0.8,0.8,1.6,1.3,2.4,1.8c0.1,0.2,0.7,0.6,1.7,1
			c0.2,0.1,0.3,0.2,0.3,0.2c1.4,0.6,2.4,0.5,2.9-0.3c0.6-0.7,0.9-1.5,0.9-2.2c0-0.5-0.1-1-0.5-1.6c-0.1-0.1-0.1-0.1-0.1-0.1
			c-0.2-0.4-0.4-0.8-0.7-1.2c-0.1-0.1-0.2-0.3-0.3-0.5c-0.3-0.3-0.5-0.6-0.7-0.9c0.6-0.4,2-1.2,4.2-2.3h0.2c0-0.1,0-0.1,0.1-0.1
			c0.2-0.2,0.4-0.3,0.5-0.4c0.3-0.4,0.5-0.8,0.7-1.1l0,0c0-0.1,0-0.3,0-0.3c0.2-0.6,0-1.4-0.6-2.1c-0.1-0.1-0.1-0.2-0.1-0.3
			c-0.1-0.1-0.3-0.2-0.5-0.3c-0.8-0.9-1.8-1.3-2.9-1.2c-0.9,0.1-2.1,0.4-3.5,1.1c-0.6-1.5-1.1-2.6-1.8-3.3c-1.1-1-2.1-1.5-3.1-1.3
			c-0.4,0-1,0.4-2,1c-1,0.8-1.5,1.4-1.5,1.9c-0.1,0.4,0.1,1.5,0.5,3.4c0,0.3,0.1,0.5,0.1,0.9c-1.3,0.2-2.6,0.4-3.7,0.3
			c-0.3-0.1-0.4-0.1-0.5-0.1c-1-0.2-1.8-0.1-2.5,0.4c-0.4,0.2-0.8,0.5-1,0.9C25.2,8.743,25.2,8.843,25.1,8.843z M39.2,8.243
			c0.4,0.3,0.7,0.7,0.9,1.1l0,0c0.6,0.7,0.7,1.4,0.6,1.9c-0.3,0.5-0.7,0.9-1.3,1.4c-0.1,0-0.2,0-0.3,0.1c-0.5,0.3-1,0.5-1.5,0.4
			c-0.7-0.1-1.5-0.4-2.2-1.2l0,0c-0.1-0.1-0.2-0.2-0.3-0.3c-0.1-0.2-0.2-0.2-0.3-0.4c-0.8-1-0.5-2,0.7-2.9c1.4-1,2.6-1.1,3.5-0.4
			C39.1,8.043,39.1,8.143,39.2,8.243z"/>
		<path fill="#FFCC4E" d="M40.1,9.343c-0.2-0.4-0.5-0.8-0.9-1.1c-0.1-0.1-0.1-0.2-0.2-0.3c-0.9-0.7-2.1-0.6-3.5,0.4
			c-1.2,0.9-1.5,1.9-0.7,2.9c0.1,0.2,0.2,0.2,0.3,0.4c0.1,0.1,0.2,0.2,0.3,0.3l0,0c0.7,0.8,1.5,1.1,2.2,1.2c0.5,0.1,1-0.1,1.5-0.4
			c0.1-0.1,0.2-0.1,0.3-0.1c0.6-0.5,1-0.9,1.3-1.4C40.8,10.743,40.7,10.043,40.1,9.343L40.1,9.343z"/>
		<path fill="#4B6D5A" d="M22.7,15.743c-0.2,0-0.3,0-0.3,0c0,0.5,0,1-0.1,1.5c1-0.3,1.9-0.5,2.8-0.8
			C24.4,16.243,23.6,16.043,22.7,15.743z"/>
		<path fill="#4B6D5A" d="M15.3,9.443c-0.1,0-0.1,0-0.2,0c-1.9,0.2-3.3,0.4-4.4,0.5c-1.8,0.4-2.6,0.9-2.6,1.6c0,0.4,0,0.5,0,0.6
			l0.2-0.1c0.2,0.2,0.5,0.2,0.6,0.3s0.4,0.1,0.8,0.1c-0.2-0.2-0.3-0.5-0.3-0.8c0.1-0.7,0.6-1.1,1.5-1.3
			C12.5,10.143,13.9,9.843,15.3,9.443z"/>
		<path fill="#4B6D5A" d="M10.4,13.343c-1,0.3-2,0.6-2.7,0.8c0.1,0.6,0.3,1.3,0.7,2.2c0.7-0.1,1.7-0.4,2.7-0.7
			c1.3-0.4,2.5-0.8,3.4-1.1C12.7,14.243,11.3,13.843,10.4,13.343z"/>
		<path fill="#4B6D5A" d="M10.9,17.443c0,0.4,0,0.5,0.2,0.5c0.2,0.1,0.3,0.1,0.3,0.2c1.1-0.4,2.1-0.7,3.3-1.1c0,0.3,0.1,0.4,0.1,0.4
			h0.1c-0.2-0.5-0.2-1.1-0.2-1.7C12.1,16.643,10.9,17.243,10.9,17.443z"/>
		<path fill="#DC9D57" d="M65.6,3.143c-0.4-0.5-1-0.8-2.101-0.9c-1.1-0.1-1.899,0.2-2.8,1c-1.3,1.1-2,1.6-2,1.6
			c-0.2,0-0.6-0.4-1.399-1.1c-0.9-0.8-1.7-1.2-2.4-1.3c-0.5,0-0.9,0.1-1.4,0.4c-0.699,0.2-1.1,0.7-1.1,1.4c0,0.2,0,0.5,0,0.7
			c0,0.2,0.2,0.4,0.3,0.6c0.2,0.3,0.2,0.5,0.4,0.7c0.1,0.1,0.2,0.2,0.3,0.4c-0.5,0.2-1.2,0.6-2,1.3c-0.3,0.2-0.5,0.4-0.7,0.5
			c0,0.1-0.1,0.2-0.3,0.3c-0.2,0.2-0.3,0.5-0.5,0.7c-0.1,0.2-0.2,0.4-0.2,0.5c0,0.5,0.2,1,0.7,1.2c0.7,0.3,1.8,0.5,3.3,0.3
			c0.3,0,0.5,0,0.7,0c0.5-0.1,0.8-0.2,1.2-0.2c0,0.3,0,0.6-0.101,0.9c0,0.3,0,0.5,0,0.7c0,0.1,0,0.3-0.1,0.4c0,0.8,0.2,1.4,0.3,1.8
			c0.101,0.2,0.2,0.3,0.2,0.4c0,0,0.1,0.2,0.2,0.3c0,0,0.1,0.1,0.2,0.2c0.8,0.6,1.699,0.6,2.6,0c0.1,0,0.2-0.1,0.3-0.2
			c0,0,0,0,0.101,0l0.1-0.1c0.3-0.4,0.6-0.8,0.9-1.4c0.199-0.3,0.399-0.7,0.6-1.2c0-0.1,0-0.3,0.1-0.4
			c0.101-0.1,0.101-0.2,0.101-0.2c0.1-0.4,0.3-0.8,0.399-1.3c0.2,0.1,0.4,0.1,0.7,0.3c0.101,0,0.2,0,0.4,0c1.5,0.4,2.6,0.4,3.5,0
			l0,0c0.1-0.1,0.1-0.2,0.2-0.2c0.1,0,0.1,0,0.1-0.1c0.1,0,0.1,0,0.1-0.1c0.2-0.1,0.301-0.3,0.4-0.6c0,0,0.1-0.1,0.2-0.1
			c0-0.1,0-0.1,0-0.1c0-0.1,0-0.2,0-0.3c0-0.6,0-1.1-0.2-1.3c-0.3-0.6-1.3-1.2-2.9-1.7c0.601-0.5,1-1,1.2-1.5
			c0.101-0.1,0.2-0.2,0.2-0.4c0.1-0.2,0.2-0.3,0.2-0.6c0,0,0-0.3,0.1-0.8c0-0.1,0-0.2,0-0.3C65.7,3.343,65.6,3.243,65.6,3.143z
			 M61.5,8.943c0,0,0,0.1-0.1,0.3c-0.2,0.8-0.8,1.2-2,1.4c-0.3,0.1-0.5,0.1-0.9,0.1h-0.1c-1-0.1-1.7-0.4-2.1-1
			c-0.101-0.1-0.101-0.3-0.101-0.3c-0.1-0.2-0.1-0.5-0.1-0.7c0-0.2,0-0.4,0-0.5s0-0.2,0-0.3s0-0.1,0-0.2c0.2-0.9,1.1-1.3,2.6-1.2
			c1.4,0.2,2.4,0.6,2.7,1.4L61.5,8.943z"/>
		<path fill="#FFCC4E" d="M61.4,9.243c0.1-0.2,0.1-0.3,0.1-0.3l-0.1-1c-0.3-0.8-1.3-1.2-2.7-1.4c-1.5-0.1-2.399,0.3-2.6,1.2
			c0,0.1,0,0.1,0,0.2s0,0.2,0,0.3s0,0.3,0,0.5c0,0.2,0,0.5,0.1,0.7c0,0,0,0.2,0.101,0.3c0.399,0.6,1.1,0.9,2.1,1h0.1
			c0.4,0,0.601,0,0.9-0.1C60.6,10.443,61.2,10.043,61.4,9.243z"/>
		<path fill="#D49E9F" d="M65.4,2.343c0,0.3,0.1,0.5,0.2,0.8c0,0.1,0.1,0.2,0.1,0.2c0,0.1,0,0.2,0,0.3c0.101,0.8,0.2,1.3,0.2,1.4
			c-0.2,0-0.3,0-0.5,0c0,0.2-0.1,0.3-0.2,0.4c-0.2,0.5-0.6,1-1.2,1.5c1.601,0.5,2.601,1.1,2.9,1.7c0.2,0.2,0.2,0.7,0.2,1.3
			c0,0.1,0,0.2,0,0.3c0,0,0,0,0,0.1c0.2-0.1,0.399-0.1,0.6-0.1c0.3-0.1,0.601-0.2,0.9-0.3c-0.5-0.5-0.7-1.1-0.7-1.7
			c-0.5-0.4-0.7-0.9-0.6-1.6c0.1-0.4,0.3-0.8,0.399-1c0.2-0.3,0.4-0.4,0.601-0.6c0.6-0.3,1.199-0.5,1.899-0.4
			c1.101,0.1,1.8,0.3,2.2,0.8c0.1,0.2,0.2,0.3,0.3,0.4c0,0.1,0.2,0.1,0.2,0.2c0,0,0.1,0,0.2,0c0.1,0.2,0.3,0.3,0.399,0.3
			c0.601,0.5,1.2,0.9,1.7,1.2c0.5-0.2,0.9-0.3,1.5-0.3c0.2-0.3,0.2-0.5,0.4-0.8c0.1-0.3,0.3-0.7,0.6-1.1c0-0.3,0.2-0.5,0.4-0.7
			c-1.4-0.4-3.3-0.4-6-0.3c-0.101-0.3-0.2-1-0.3-2.3c-0.4-1.1-1.2-1.7-2.7-1.7C66.8,0.143,65.6,0.843,65.4,2.343z"/>
		<path fill="#4B6D5A" d="M45.1,14.243c0.6,0,1.2,0,1.8,0c0.5,0,1.2,0,2.1,0c-0.3-0.1-0.6-0.3-0.9-0.5
			C47.6,13.643,46.6,13.743,45.1,14.243z"/>
		<path fill="#938FB7" d="M44.5,14.343c0.2-0.1,0.4-0.1,0.6-0.1c1.5-0.5,2.5-0.6,3-0.5c0.3,0.2,0.6,0.4,0.9,0.5
			c0.9,0.6,1.6,0.9,2.1,1c0.5,0,1.1-0.2,1.6-0.5c0.2-0.1,0.3-0.3,0.4-0.3c0.5-0.4,0.8-0.7,1-1c0.1-0.2,0.2-0.5,0.3-0.6
			c0-0.2-0.2-0.5-0.3-0.8c0-0.1-0.2-0.3-0.2-0.4c-0.1-0.1-0.1-0.2-0.2-0.2c-1.5,0.2-2.6,0-3.3-0.3c-0.3,0.2-0.8,0.3-1.5,0.3
			c-1.4-0.2-2-0.8-1.8-2c0,0,0,0,0-0.1l0,0h-0.2c-2.2,1.1-3.6,1.9-4.2,2.3c0.2,0.3,0.4,0.6,0.7,0.9c0.1,0.2,0.2,0.4,0.3,0.5
			c0.3,0.4,0.5,0.8,0.7,1.2C44.4,14.243,44.4,14.243,44.5,14.343z"/>
		<path fill="#4B6D5A" d="M33,7.243c0-0.4-0.1-0.6-0.1-0.9c-1.5,0.1-3,0.3-4.2,0.4c0.3,0.1,0.5,0.4,0.7,0.7l-0.1,0.1
			C30.4,7.643,31.7,7.443,33,7.243z"/>
		<path fill="#DC9D57" d="M36.8,15.443c-0.1,0-0.1,0.2-0.2,0.2v0.6c-0.2,1-0.9,1.5-2.3,1.6c-0.9,0.4-1.6,0.6-2.3,0.4l-1.3-1.3
			c-0.1-0.3-0.2-0.6-0.3-0.9c0,0.2-0.2,0.2-0.4,0.2c-0.7,0.4-1.1,0.5-1.2,0.5c-0.1-0.2-0.3-0.2-0.3-0.1c-0.1,0-0.2,0.1-0.5,0.1
			c0.4,0.2,0.8,0.3,1.3,0.6c-0.3,0.4-0.5,0.6-0.7,0.8c-0.2,0.3-0.5,0.8-0.5,1.1c-0.2,1.7,0.6,2.2,2.2,1.7c1.8-0.7,3-1.1,3.5-1
			l0.8,0.7c0.5,0.4,1.2,0.7,1.8,0.8c1.2,0,2-0.2,2.3-1c0.3-0.5,0.3-1.2-0.1-2.1c1,0.1,1.8,0.1,2.3-0.1c-1-0.4-1.6-0.8-1.7-1
			C38.4,16.743,37.6,16.243,36.8,15.443z"/>
		<path fill="#FFCC4E" d="M34.8,17.443c-0.2,0.2-0.4,0.3-0.5,0.4c1.4-0.1,2.1-0.6,2.3-1.6v-0.6c-0.2,0.1-0.4,0.4-0.7,0.7
			C35.6,16.743,35.2,17.243,34.8,17.443z"/>
		<path fill="#5EAAC9" d="M61.1,12.443c0,0,0,0.1-0.101,0.2c-0.1,0.1-0.1,0.3-0.1,0.4c-0.2,0.5-0.4,0.9-0.6,1.2
			c0.399-0.1,1-0.2,1.6-0.1c1.1,0.1,1.8,0.4,2,0.9c-0.1,0.6-0.1,0.9-0.1,0.9c0,0.2,0,0.3-0.101,0.3c-0.2,1.1-1,1.6-2.5,1.6
			c-1.5-0.1-2.1-0.8-2-2v-0.1c-0.1,0.1-0.2,0.2-0.3,0.2c-0.9,0.6-1.8,0.6-2.6,0c-0.101-0.1-0.2-0.2-0.2-0.2
			c-0.3,0.2-0.601,0.4-0.9,0.7c-1,0.9-1.399,1.5-1.5,1.8c0,0.3,0,0.7,0.2,1c0.2,0.4,0.7,0.7,1.5,0.7c0.2,0,0.7-0.2,1.8-0.5
			c1.2-0.4,1.9-0.6,2.2-0.5c-0.8,0.8-0.5,1.8,0.9,2.8c1.399,1,2.399,0.9,3.199-0.5c0.4-0.5,0.601-1.5,0.7-2.8c0.8-0.8,1.8-1.2,3-1.4
			c0,1.4,0.8,2.2,2.2,2.2c0.9,0.1,2.2-0.2,3.7-0.9c0.6-0.3,1.399-0.6,2.3-1.1c0.3-0.1,0.7-0.3,1-0.5c0.2,0.3,0.3,0.5,0.4,0.8
			c1.3,2.1,2.199,3.4,2.899,4.1c1,1.2,1.7,0.3,2-2.7c0-0.2,0-0.3,0-0.5c0-0.4,0-0.7-0.1-1c0,0,0-0.1,0-0.2c-0.101,0-0.2-0.2-0.2-0.3
			c0-0.2-0.2-0.5-0.3-0.9c0.899,0,1.8-0.1,2.5-0.1c1.3,0,2.5-0.2,3.399-0.2c0.7-0.1,1.301-0.3,1.7-0.3c0-0.1,0.2-0.1,0.2-0.2
			c0.3-0.1,0.6-0.3,0.8-0.5c0.2-0.3,0.4-0.6,0.4-1c0-0.2,0-0.5,0-0.7c-0.2-0.4-0.5-0.8-0.9-1.1c-0.3-0.3-0.8-0.5-1.3-0.7
			c-0.3,0-0.6-0.2-0.9-0.3c-1.1-0.2-2.3-0.5-3.899-0.6c-0.3,0-0.5,0-0.7-0.1v-0.2c0-0.1,0.1-0.2,0.2-0.2v-0.1
			c0.3-0.8,0.5-1.4,0.5-2.2c0.1-0.4,0.1-0.8,0-1.2c-0.101-1.8-1-2.7-2.7-2.9c-1-0.1-1.8,0.3-2.3,1.2c-0.2,0.2-0.4,0.4-0.4,0.7
			c-0.3,0.4-0.5,0.8-0.6,1.1c-0.2,0.3-0.2,0.5-0.4,0.8c-0.3,0.3-0.5,0.6-0.6,0.7c-0.3-0.1-0.601-0.2-0.9-0.4
			c-0.5-0.3-1.1-0.7-1.7-1.2c-0.1,0-0.3-0.1-0.399-0.3c-0.101,0-0.2,0-0.2,0c0-0.1-0.2-0.1-0.2-0.2c-0.399-0.1-0.8-0.2-1.1-0.3
			c-0.3-0.1-0.5-0.1-0.7-0.1c-0.5,0-1.1,0.1-1.5,0.3c-0.3,0.1-0.5,0.2-0.7,0.3c-0.2,0.3-0.3,0.6-0.5,0.8c-0.1,0.1-0.1,0.2-0.3,0.4
			c0,0.1,0,0.4,0,0.7c0,0.1,0,0.2,0,0.3c0,0.6,0.2,1.2,0.7,1.7c0,0.1,0.1,0.1,0.1,0.2v0.1c0.101,0.1,0.3,0.1,0.4,0.3
			c0.2,0.1,0.399,0.2,0.6,0.3c0.4,0.2,1,0.5,1.7,0.8c0.5,0.1,1,0.3,1.5,0.6c-0.1,0-0.2,0.1-0.2,0.2c-0.3,0.3-0.6,0.5-1,0.9
			c-0.3,0.1-0.5,0.4-0.8,0.5c-0.2,0.1-0.5,0.3-0.7,0.4c-0.3,0.2-0.5,0.4-0.7,0.5c-0.399,0.2-0.6,0.4-0.8,0.5c-0.6-0.5-2-0.8-4.2-1.2
			l0.2-0.1c0.2-0.2,0.4-0.3,0.601-0.5c0.1-0.1,0.3-0.2,0.399-0.4c0.5-0.3,0.7-0.7,0.8-1c0.101-0.3,0.101-0.4,0.101-0.6
			c0-0.2,0-0.2-0.101-0.3v-0.1c0,0.1,0,0.1-0.1,0.1c0,0.1,0,0.1-0.1,0.1c-0.101,0-0.101,0.1-0.2,0.2l0,0c-0.9,0.4-2,0.4-3.5,0
			C61.9,11.943,61.4,12.243,61.1,12.443z M77.6,8.943c0.2-0.1,0.399-0.1,0.6,0c0.601,0,1,0.1,1.4,0.5c0.5,0.4,0.8,0.9,1,1.5l0.1,1.7
			c0,0.2,0,0.4,0,0.7c-0.2,0.4-0.5,0.7-0.8,0.9c-0.5,0.4-1.2,0.5-2,0.3c-1.2-0.1-1.9-0.6-2.2-1.5c0-0.2-0.1-0.5-0.1-0.8
			c0-0.2,0-0.3,0.1-0.6c0-0.5,0-0.9,0.101-1.3c0.1-0.2,0.1-0.4,0.3-0.5C76.4,9.243,76.9,8.943,77.6,8.943z"/>
		<path fill="#FFCC4E" d="M78.2,8.943c-0.2-0.1-0.399-0.1-0.6,0c-0.7,0-1.2,0.3-1.5,0.9c-0.2,0.1-0.2,0.3-0.3,0.5
			c-0.101,0.4-0.101,0.8-0.101,1.3c-0.1,0.3-0.1,0.4-0.1,0.6c0,0.3,0.1,0.6,0.1,0.8c0.3,0.9,1,1.4,2.2,1.5c0.8,0.2,1.5,0.1,2-0.3
			c0.3-0.2,0.6-0.5,0.8-0.9c0-0.3,0-0.5,0-0.7l-0.1-1.7c-0.2-0.6-0.5-1.1-1-1.5C79.2,9.043,78.8,8.943,78.2,8.943z"/>
		<path fill="#4B6D5A" d="M61.5,11.143c-0.1,0.5-0.3,0.9-0.399,1.3c0.3-0.2,0.8-0.5,1.5-1c-0.2,0-0.3,0-0.4,0
			C61.9,11.243,61.7,11.243,61.5,11.143z"/>
		<path fill="#FFCC4E" d="M59.3,15.743c-0.101,0-0.101,0-0.101,0v0.1c-0.1,1.2,0.5,1.9,2,2c1.5,0,2.3-0.5,2.5-1.6
			c0.101,0,0.101-0.1,0.101-0.3c0,0,0-0.3,0.1-0.9c-0.2-0.5-0.9-0.8-2-0.9c-0.6-0.1-1.2,0-1.6,0.1c-0.301,0.6-0.601,1-0.9,1.4
			L59.3,15.743z"/>
		<path fill="#4B6D5A" d="M66.5,11.043v0.1c1.101,0.1,2.2,0.1,3.2,0.3c-0.2-0.2-0.3-0.4-0.399-0.6c-0.7-0.1-1.601-0.2-2.4-0.4
			C66.8,10.743,66.7,10.943,66.5,11.043z"/>
		<path fill="#4B6D5A" d="M66.6,11.443c0,0.2,0,0.3-0.101,0.6c-0.1,0.3-0.3,0.7-0.8,1c1.9,0.3,3.601,0.6,5.2,0.8
			c0.3-0.1,0.5-0.4,0.8-0.5c-0.1-0.1-0.1-0.1-0.2-0.1c-0.6-0.3-1.1-0.8-1.6-1.3C68.9,11.743,67.7,11.643,66.6,11.443z"/>
		<path fill="#4B6D5A" d="M64.7,13.943l-0.2,0.1c2.2,0.4,3.601,0.7,4.2,1.2c0.2-0.1,0.4-0.3,0.8-0.5c0.2-0.1,0.4-0.3,0.7-0.5
			c-1.7-0.3-3.3-0.5-4.899-0.8C65.1,13.643,64.9,13.743,64.7,13.943z"/>
		<path fill="#4B6D5A" d="M53.1,6.243c-0.2-0.2-0.2-0.4-0.4-0.7c-0.1-0.2-0.3-0.4-0.3-0.6c-0.2,0-0.3,0-0.4,0
			c-0.199,0.9-0.3,1.4-0.3,1.5C52.2,6.343,52.7,6.243,53.1,6.243z"/>
		<path fill="#938FB7" d="M53.4,6.643c-0.1-0.2-0.2-0.3-0.3-0.4c-0.4,0-0.9,0.1-1.4,0.2c0-0.1,0.101-0.6,0.3-1.5
			c0.101-0.1,0.101-0.1,0.101-0.1c-0.2-1-0.9-1.5-2.2-1.6c-0.8,0-1.5,0.4-2,1.4c0,0.1-0.2,0.3-0.2,0.4c0,0.1,0,0.2,0.1,0.3
			c0.6,0.7,0.8,1.5,0.6,2.1c0,0,0,0.2,0,0.3l0,0c0.2,0,0.3,0,0.5,0c0.8,0.1,1.5,0.2,1.8,0.7c0.2-0.1,0.4-0.3,0.7-0.5
			C52.2,7.243,52.9,6.843,53.4,6.643z"/>
		<path fill="#FFCC4E" d="M47.2,9.243c-0.1,0-0.1,0-0.1,0.1l0,0c0,0.1,0,0.1,0,0.1c-0.2,1.2,0.4,1.8,1.8,2c0.7,0,1.2-0.1,1.5-0.3
			c-0.5-0.2-0.7-0.7-0.7-1.2c0-0.1,0.1-0.3,0.2-0.5c0.2-0.2,0.3-0.5,0.5-0.7c0.2-0.1,0.3-0.2,0.3-0.3c-0.3-0.5-1-0.6-1.8-0.7
			c-0.2,0-0.3,0-0.5,0c-0.2,0.3-0.4,0.7-0.7,1.1C47.6,8.943,47.4,9.043,47.2,9.243z"/>
		<path fill="#44C8F5" d="M54.8,12.143c0.199,0.2,0.399,0.5,0.699,0.7c0-0.2,0-0.4,0-0.7c0.101-0.3,0.101-0.6,0.101-0.9
			c-0.4,0-0.7,0.1-1.2,0.2C54.5,11.643,54.6,11.843,54.8,12.143z"/>
		<path fill="#4B6D5A" d="M54.4,11.443c-0.2,0-0.4,0-0.7,0c0.101,0,0.101,0.1,0.2,0.2c0,0.1,0.2,0.3,0.2,0.4c0.3,0,0.5,0,0.7,0.1
			C54.6,11.843,54.5,11.643,54.4,11.443z"/>
		<path fill="#4B6D5A" d="M53.1,14.443c-0.101,0-0.2,0.2-0.4,0.3c1,0.1,2,0.2,3,0.3c-0.1-0.4-0.3-1-0.3-1.8c-0.2,0-0.3,0-0.6,0.1
			c-0.2,0-0.4,0-0.7,0.1C53.9,13.743,53.6,14.043,53.1,14.443z"/>
		<path fill="#4B6D5A" d="M82.6,9.743c0.1,0,0.3,0,0.399,0c0.101,0.1,0.2,0.1,0.4,0.1c-0.3,0-0.5,0-0.8,0c-0.101,0-0.2,0.1-0.2,0.2
			v0.2c0.2,0.1,0.4,0.1,0.7,0.1c-0.101,0-0.101,0-0.2,0c0.7,0,1.2,0,1.7-0.1c1,0.3,1.8,0.6,2.399,0.7c0.301,0.1,0.601,0.3,0.9,0.3
			c0.6,0.2,1.3,0.2,2.1,0.2c-0.1-0.4-0.1-0.7-0.3-1.1c-0.399-0.3-0.899-0.5-1.3-0.7c-1.7-0.8-3.2-1.5-4.6-1.9
			c-0.2,0-0.4-0.1-0.7-0.2C83.1,8.343,82.9,8.943,82.6,9.743z"/>
		<path fill="#4B6D5A" d="M83.6,15.943c-0.7,0-1.601,0.1-2.5,0.1c0.1,0.4,0.3,0.7,0.3,0.9c0.2,0,0.4,0.1,0.7,0.1
			c0.399,0.2,2.8,0.9,7.3,2c-0.6-1-2.5-1.8-5.4-2.8C83.9,16.143,83.7,16.043,83.6,15.943z"/>
		<path fill="#FFCC4E" d="M72.7,5.843c-0.1-0.1-0.2-0.2-0.3-0.4c-0.4-0.5-1.1-0.7-2.2-0.8c-0.7-0.1-1.3,0.1-1.899,0.4
			c-0.2,0.2-0.4,0.3-0.601,0.6c-0.1,0.2-0.3,0.6-0.399,1c-0.101,0.7,0.1,1.2,0.6,1.6c0-0.1,0-0.2,0-0.3c0-0.3,0-0.6,0-0.7
			c0.2-0.2,0.2-0.3,0.3-0.4c0.2-0.2,0.3-0.5,0.5-0.8c0.2-0.1,0.4-0.2,0.7-0.3c0.4-0.2,1-0.3,1.5-0.3c0.2,0,0.4,0,0.7,0.1
			C71.9,5.643,72.3,5.743,72.7,5.843z"/>
		<path fill="#4B6D5A" d="M76.7,7.243c-0.6,0-1,0.1-1.5,0.3c0.3,0.2,0.601,0.3,0.9,0.4C76.2,7.843,76.4,7.543,76.7,7.243z"/>
		<path fill="#D49E9F" d="M69.7,10.843c-0.2-0.1-0.399-0.2-0.6-0.3c0.1,0.1,0.1,0.2,0.2,0.3c0.1,0.2,0.199,0.4,0.399,0.6
			c0,0.2,0.2,0.3,0.2,0.5c0.5,0.5,1,1,1.6,1.3c0.101,0,0.101,0,0.2,0.1c0.4-0.4,0.7-0.6,1-0.9c0-0.1,0.101-0.2,0.2-0.2
			c-0.5-0.3-1-0.5-1.5-0.6C70.7,11.343,70.1,11.043,69.7,10.843z"/>
		<path fill="#4B6D5A" d="M68.7,10.143c0-0.1-0.1-0.1-0.1-0.2c-0.3,0.1-0.601,0.2-0.9,0.3c0.4,0,0.7,0,1,0V10.143z"/>
		<path fill="#4B6D5A" d="M75.4,17.243c0.5,0.2,1,0.2,1.4,0.3c-0.101-0.3-0.2-0.5-0.4-0.8C76.1,16.943,75.7,17.143,75.4,17.243z"/>
		<path fill="#4B6D5A" d="M82.8,18.543v-0.7c-0.4-0.1-0.801-0.2-1.2-0.4c0.1,0.3,0.1,0.6,0.1,1C82.4,18.443,82.7,18.543,82.8,18.543
			z"/>
		<path fill="#4B6D5A" d="M88.9,15.243c0,0.1-0.2,0.1-0.2,0.2c-0.399,0-1,0.2-1.7,0.3c0.601,0.3,0.9,0.7,1.2,1c0.7,0,1-0.3,1-0.8
			C89.2,15.743,89.1,15.543,88.9,15.243z"/>
		<path fill="#4B6D5A" d="M90.1,14.943c0.1,0,0.1,0,0.3,0c0-0.2,0-0.3,0-0.5c0-0.4-0.1-0.8-0.2-1.4h-0.1l0,0c0,0.2,0,0.5,0,0.7
			c0,0.4-0.2,0.7-0.4,1C89.9,14.743,90,14.843,90.1,14.943z"/>
	</g>
	<g>
		<path fill="#4B6D5A" d="M0,20.943c0,0.3,0,0.5,0,0.7c0,0.601,0,1.3,0.1,2l0,0c3.2,1.7,6.1,3.101,8.9,4.101c-0.7,0-1.4,0-2,0.1
			c-1.7-0.7-3.1-1.1-3.8-1.4c-0.9-0.199-1.7-0.399-2.8-0.5c0.1,0.601,0.1,1.2,0.3,1.7c0.6,0.4,1.1,0.8,1.7,1.101
			c2,1.3,3.8,2.199,5.5,2.8c6.3,2.1,19.9,3.5,40.7,4.1l-1.5-0.2c0-0.1,5-0.399,15-1C73,33.543,80.4,32.543,84.4,31.244
			c3.6-1.101,6.2-1.801,7.7-2.301c2.3-0.199,4.2-0.399,5.5-0.8c2.1-0.399,3.1-1.1,3.1-2.2c0-0.5,0-0.8,0-0.899l-0.2,0.2
			c-0.399-0.301-0.5-0.5-0.6-0.5c-0.2-0.101-0.6-0.2-1.2-0.2c-0.5,0-1.1,0.1-1.899,0.399c-0.9,0.301-1.7,0.5-2.101,0.601
			c-0.6,0.1-3,0.2-6.899,0.5c-0.4,0-0.7,0-1.101,0.1c0.601-0.2,1.101-0.2,1.601-0.399c5.899-1.301,10.3-2.5,12.899-3.7
			c-0.1-0.8-0.399-1.8-0.7-3.1c-1.1,0.2-2.199,0.5-3.399,1c-4.9,1.9-7.7,3-8.4,3.2c-4.3,1.5-9,2.601-14,3.3
			c-4,0-7.7-0.199-11.3-0.199c1.5-0.4,3.1-0.801,4.6-1.101c2.2-0.5,4.4-1.2,6.7-1.899c1.2-0.2,2.5-0.4,3.8-0.601
			c-2.399,0.8-4.8,1.601-7.399,2.4l2.1,0.399c3.5,0,8.5-1.199,15-3.7c6-2.4,8.7-4.5,8-6.3c-0.8-1.8-3.5-4-8.3-6.3
			c-4.9-2.3-5-1.8-0.5,1.9c4.4,3.7,6.2,5.9,5.3,6.7c0-0.3-0.1-0.5-0.1-0.5h-0.2c-1-0.2-1.8,0-2.5,0.4c-1.2,0.8-2.3,1.3-3.3,1.6
			c-1.4,0.5-3,0.9-5,1.2c2.1-0.9,4.1-1.9,6.1-3c0-0.4-0.3-0.7-1-0.9c-5.5,1.9-11.1,3.6-16.8,5.1c-4.8,0.3-10.3,0.4-16.7,0.4
			c-2.5,0-8.6-0.9-18.3-2.6c-7.2-1.4-12.5-2-15.6-1.7c-2.4-0.5-4.4-0.9-5.9-1.2c-1.8-1.8-3.7-2.6-5.7-2.4c-3.6,1.9-3.6,3.6,0.1,4.9
			c4.3,3.7,14.3,6.399,30.1,8.2c-10-0.601-18-1.7-24.1-3.301c-6-1.6-9.8-3.5-11.3-5.7c-0.8,0-1.2,0.5-1.2,1.2
			c0,2.1,5.6,4.2,16.7,6.3c4.1,0.899,8.5,1.5,13,2c-3.6,0.199-7.2,0.3-11,0.3c-0.1,0-0.3,0-0.5,0c-3.6-0.8-6.6-1.601-9.2-2.601
			c-3.7-1.699-6.3-2.8-7.8-3.5c-0.7-0.3-1.5-0.7-2.4-0.899C0.1,21.043,0,21.043,0,20.943z M15.9,19.343c1.6,0.6,3.4,1.1,5.2,1.6
			c6.3,1.8,11.9,2.8,17,2.8c1,0,2.8-0.101,5.4-0.4c0.4-0.1,0.8-0.1,1.2-0.1c4.9,0.399,10.3,0.5,16.2,0.5
			c-3.2,0.699-6.5,1.3-9.8,1.899c-11.4-0.7-21.1-1.8-29.1-3.399c-1.2-0.2-2.3-0.5-3.5-0.7C17.6,20.943,16.8,20.243,15.9,19.343z
			 M80.9,29.143c1,0,2,0,3,0c-5.3,1.5-14.4,2.601-27.2,3.4l-0.3-0.3c-3.2-0.2-6.2-0.301-9-0.601c10.8-0.1,18.2-0.6,22-1.399
			c1.3-0.301,2.4-0.601,3.3-1.101C75.4,29.143,78.1,29.143,80.9,29.143z M57.6,29.143c1.7,0,3.5,0,5.2-0.1
			c-6.601,0.8-15.101,1.1-25.601,1.1c-2.1,0-3.3,0.101-3.5,0.101v0.1c-1.8-0.3-3.5-0.4-5.2-0.7c5.6-0.1,10.8-0.399,15.7-0.8
			C48.5,29.043,52.9,29.143,57.6,29.143z M12,28.744c2.7,0.899,5.4,1.5,8.4,2.199c-4.6-0.699-8.5-1.399-11.5-2.399
			c-0.1,0-0.2-0.101-0.4-0.101C9.5,28.543,10.7,28.643,12,28.744z"/>
	</g>
	<g>
		<path fill="#44C8F5" d="M0.3,22.643c-0.1,1.2,0.2,2.101,1.1,2.8c1.3,1.101,4.1,1.9,8.4,2.4l-0.1,0.2c-0.8,1.7-1,3.6-0.9,5.6
			c0.1,2.5,1.2,3.9,3.3,4.101c1.3,0.1,2.3-0.4,2.9-1.601c0.3-0.3,0.4-0.7,0.5-1.1c0.4-1.101,0.8-2,1.2-2.7c0.3-0.6,0.6-0.9,0.8-1.1
			c0.4,0.199,0.6,0.3,1,0.5c0.6,0.5,1.4,1,2.2,1.8c0.1,0.1,0.3,0.2,0.4,0.399c0.2,0.101,0.4,0.2,0.6,0.301
			c0.3,0.199,0.8,0.399,1.3,0.5c0.3,0,0.5,0,0.8,0.1c1.1,0,2-0.2,2.6-0.9c0.3-0.399,0.5-0.8,0.7-1.199c0.1-0.101,0.2-0.2,0.3-0.4
			c0-0.3,0-0.7,0.1-1.2c0-0.1,0-0.2,0-0.399c0-1-0.2-1.801-0.8-2.601c0,0-0.1-0.1-0.2-0.1c-0.1-0.3-0.4-0.4-0.6-0.601
			c-1-0.8-2.5-1.6-4.5-2.5c0.4-0.5,0.9-1,1.5-1.6c0.7-0.6,1.5-1.4,2.6-2.1c0.4-0.3,0.8-0.5,1-0.8c0.8,0.8,2.5,1.3,5.2,1.8
			l-0.3,0.199c-1.4,1.2-2.1,2.101-2.2,2.801c-0.1,0.6-0.1,1,0,1.399c0.1-0.2,0.2-0.2,0.2-0.3c0.1-0.1,0.2-0.2,0.4-0.3
			c0.9-0.601,2.3-0.5,4.2,0c0.9-0.7,1.4-1.101,1.8-1.3c0.3-1.101,0.6-2,1-2.801c-0.6,0.2-1.3,0.301-2,0.2c-1.4-0.1-2.1-0.5-2.4-1.4
			c0-0.8,0.1-1.3,0.1-1.3c0.2-1.8,1.2-2.7,3.1-2.7c1.8,0,2.7,1,2.5,2.9v0.1c0.1-0.1,0.3-0.3,0.4-0.3c1.1-0.9,2.2-0.8,3.2,0.1
			c0.1,0.1,0.2,0.2,0.2,0.4c0.4-0.4,0.8-0.7,1.2-1.2c1.1-1.3,1.6-2.1,1.7-2.6s0.1-0.9-0.1-1.4c-0.3-0.7-1-1.1-1.9-1.2
			c-0.1,0-0.9,0.3-2.2,0.9c-1.4,0.5-2.3,0.8-2.7,0.8c1-1.3,0.5-2.8-1.1-4.3c-1.7-1.5-2.9-1.2-3.9,0.7c-0.5,0.8-0.8,2.2-0.9,4.2
			c-1,1.1-2.2,1.8-3.7,2c-0.1-2-1-3.1-2.8-3.2c-1-0.2-2.5,0.3-4.4,1.3c-1.1,0.6-2.4,1.3-4,2.3c-1.8-3.6-3.2-6-4.1-7.1
			c-1.2-1.8-2.1-0.4-2.5,3.9c-0.1,0.9,0,1.7,0.3,2.4c0.1,0.5,0.2,1,0.5,1.8c-5,0.3-8,0.7-9.3,1C1,20.743,0.4,21.443,0.3,22.643z
			 M11.9,26.744l-0.2-2.301c0.2-2.3,1.4-3.2,3.6-2.8c2,0.3,3,1.8,2.7,4.2c-0.1,1.2-0.2,2.1-0.5,2.7c-0.6,1-1.5,1.399-2.7,1.2
			C13.3,29.643,12.4,28.643,11.9,26.744z"/>
		<path fill="#FFF685" d="M11.7,24.443l0.2,2.301c0.5,1.899,1.4,2.899,2.9,3c1.2,0.199,2.1-0.2,2.7-1.2c0.3-0.601,0.4-1.5,0.5-2.7
			c0.3-2.4-0.7-3.9-2.7-4.2C13.1,21.243,11.9,22.143,11.7,24.443z"/>
		<path fill="#F8ABAD" d="M23,23.443c0,0-0.1,0-0.1-0.1c-0.6,0.6-1.1,1.1-1.5,1.6c2,0.9,3.5,1.7,4.5,2.5
			C25.4,25.744,24.4,24.443,23,23.443z"/>
		<path fill="#FFF685" d="M34.8,22.143c0.7,0.101,1.4,0,2-0.2c0.3-0.899,0.8-1.6,1.2-2c0.1-0.1,0.1-0.2,0.1-0.2v-0.1
			c0.2-1.9-0.7-2.9-2.5-2.9c-1.9,0-2.9,0.9-3.1,2.7c0,0-0.1,0.5-0.1,1.3C32.7,21.643,33.4,22.043,34.8,22.143z"/>
		<path fill="#F8ABAD" d="M28.5,28.244c0-0.2,0-0.301,0-0.5c-0.5,0.1-1.1,0.3-1.8,0.399c0.6,0.8,0.8,1.601,0.8,2.601
			c0.5,0.5,0.8,1.3,0.6,2.399c-0.1,1-0.4,1.7-1.2,2.3c-0.6,0.5-1.4,0.7-2.4,0.601c-1.2-0.101-2.1-0.5-2.6-1.3
			c-0.1-0.101-0.2-0.301-0.2-0.5c-0.2-0.101-0.4-0.2-0.6-0.301c-0.1-0.199-0.3-0.3-0.4-0.399c-0.8-0.8-1.6-1.3-2.2-1.8
			c-0.6,0.399-1.1,0.6-1.8,0.6c-0.4,0.7-0.8,1.6-1.2,2.7c-0.1,0.399-0.2,0.8-0.5,1.1c1.6,0.5,4,0.5,7.3,0.3
			c0.1,0.4,0.2,1.601,0.4,3.4c0.4,1.5,1.5,2.4,3.2,2.5c2.9,0.3,4.4-0.7,4.6-3c-0.1-0.4-0.1-0.7-0.1-1.1c-0.1-0.101-0.1-0.2-0.2-0.4
			c0-0.1,0-0.2,0.1-0.3c-0.3-1.3-0.4-2-0.4-2.101c0.2-0.1,0.5-0.1,0.6-0.1c0.3-0.9,0.9-1.8,1.8-2.7c-1.9-0.8-3.2-1.6-3.6-2.399
			C28.4,29.744,28.4,29.143,28.5,28.244z"/>
		<path fill="#FAA74A" d="M28.5,27.744c0,0.199,0,0.3,0,0.5c-0.1,0.899-0.1,1.5,0.2,2c0.4,0.8,1.7,1.6,3.6,2.399
			c-0.9,0.9-1.5,1.8-1.8,2.7c-0.1,0.3-0.1,0.6-0.2,0.9c0,0.1,0,0.5,0,1.3c-0.1,0.1-0.1,0.2-0.1,0.3c0.1,0.2,0.1,0.3,0.2,0.4
			c0.3,0.699,1.1,1.199,2.5,1.399c1.2,0.101,2.4-0.399,3.4-1.6c1.6-1.4,2.4-2.2,2.5-2.4c0.1,0,0.8,0.7,1.7,1.8
			c1.1,1.101,2.1,1.7,2.9,1.801c0.5,0,1.1-0.2,1.7-0.5c0.8-0.4,1.3-1.101,1.4-2.101c0.1-0.6-0.1-1.3-0.4-1.899
			c-0.2-0.4-0.3-0.7-0.4-1c-0.2-0.2-0.3-0.4-0.4-0.601c0.6-0.2,1.4-0.899,2.5-2c0.3-0.2,0.5-0.399,0.7-0.6c0.7-1,1.2-1.8,1.2-2.3
			c0.1-0.801-0.2-1.4-0.8-1.801c-0.8-0.399-2.2-0.5-4.1-0.399c-0.2,0-0.6,0.1-0.9,0.2c-0.4,0-0.9,0-1.4,0.1c0.1-0.8,0.2-1.6,0.2-2.3
			c0-1.7-0.1-3-0.5-3.8c-0.1-0.2-0.1-0.3-0.3-0.3c0-0.2-0.1-0.3-0.2-0.4c-1-0.9-2.1-1-3.2-0.1c-0.1,0-0.3,0.2-0.4,0.3
			c0,0,0,0.1-0.1,0.2c-0.4,0.4-0.9,1.1-1.2,2c-0.4,0.801-0.7,1.7-1,2.801c-0.1,0.5-0.4,1.1-0.5,1.699c-0.3,0-0.5-0.199-0.8-0.199
			c-0.1-0.101-0.3-0.101-0.5-0.2c-1.9-0.5-3.3-0.601-4.2,0c-0.2,0.1-0.3,0.2-0.4,0.3c0,0.1-0.1,0.1-0.2,0.3
			C28.9,26.943,28.7,27.343,28.5,27.744z M38.9,27.143c0.1,0,0.1,0,0.2,0c1.3,0,2.1,0.5,2.6,1.5c0.2,0.601,0.3,1.4,0.2,2.2
			c0,0.1,0,0.2,0,0.3c0,0.2,0,0.3,0,0.4c-0.2,1.3-1.3,1.899-3.2,1.7c-1.8-0.2-2.8-0.801-3.3-2.101l-0.1-1.399
			C35.4,28.043,36.7,27.043,38.9,27.143z"/>
		<path fill="#FFF685" d="M39.1,27.143c-0.1,0-0.1,0-0.2,0c-2.2-0.1-3.5,0.9-3.6,2.601l0.1,1.399c0.5,1.3,1.5,1.9,3.3,2.101
			c1.9,0.199,3-0.4,3.2-1.7c0-0.101,0-0.2,0-0.4c0-0.1,0-0.2,0-0.3c0.1-0.8,0-1.6-0.2-2.2C41.2,27.643,40.4,27.143,39.1,27.143z"/>
		<path fill="#44C8F5" d="M42.5,26.343c0.5-0.1,1-0.1,1.4-0.1c0-0.601-0.5-1.301-1.2-2.2C42.7,24.744,42.6,25.543,42.5,26.343z"/>
		<path fill="#9B95C9" d="M44.7,25.943c0,0,0,0,0.1,0.101c1.9-0.101,3.3,0,4.1,0.399c0.4-0.199,1-0.399,1.9-0.3
			c1.6,0.101,2.3,1.101,2.2,2.8c0,0.101,0,0.2,0,0.301c2.801-1.601,4.601-2.801,5.4-3.5c-1-1.4-1.8-2.801-2.3-3.9
			c-2.2,0.7-3.7,1-4.3,0.9c-1.7-1.3-2.9-2.101-3.7-2.101c-0.9-0.1-1.7,0.3-2.6,1.1c-0.8,0.7-1.3,1.5-1.4,2.2
			C44.1,24.543,44.2,25.143,44.7,25.943z"/>
		<path fill="#F8ABAD" d="M60.4,16.043c0-0.1-0.2-0.1-0.3-0.2c-1.601-0.9-2.7-0.7-3.5,0.4c-0.7,1.2-1,2.2-1,3.2
			c0,0.7,0.1,1.5,0.5,2.4c0.5,1.1,1.3,2.5,2.3,3.9c-0.8,0.699-2.6,1.899-5.4,3.5c-0.1,0-0.1,0-0.199,0.1c-0.7,0.7-1.2,1.4-1.4,2.2
			c-0.4,1.1-0.1,2.5,0.8,3.8c0.2,0.2,0.4,0.4,0.601,0.7c1,1.1,2.199,1.7,3.6,1.6c1.1,0,2.5-0.6,4.3-1.6c0.7,2.2,1.4,3.8,2.2,4.8
			c1.3,1.5,2.5,2.2,3.7,1.9c0.5,0,1.3-0.601,2.5-1.5c1.2-1,1.8-1.9,1.899-2.801c0.101-0.6-0.3-2.699-0.899-6.199
			c1.7-0.4,3.3-0.601,4.6-0.5c0.3,0.1,0.5,0.199,0.7,0.199c1.2,0.301,2.2,0.101,3-0.699c0.7-0.301,1.2-0.7,1.5-1.4
			c0.5-1.2,0.2-2.7-1.2-4.3c-1.1-1.3-2.1-2.101-3.1-2.3c-1.2-0.301-1.9-0.5-2.2-0.801c0-1.2,0-2.3,0-3.2c-0.2-0.4-0.3-0.8-0.3-1.2
			l-1.7-1.9c-0.8-0.3-1.7-0.1-2.7,0.6c-0.3,0.2-0.5,0.3-0.6,0.5c-0.5,0.4-1,1-1.5,1.7c-0.3,0.4-0.5,0.8-0.7,1
			c-0.2,0.1-0.3,0.3-0.3,0.3c-1-1.1-2-2-2.9-2.6C62.5,17.243,61.8,16.743,60.4,16.043z M62.5,24.443c0.101,0,0.2-0.199,0.2-0.199
			c0.7-0.5,1.4-0.801,2-0.601c0.7,0,1.7,0.601,2.7,1.8c0,0,0.1,0.2,0.3,0.301c1.3,1.899,1.2,3.399-0.6,4.899
			c-1.9,1.5-3.4,1.601-4.5,0.2c-1.5-1.8-2.101-3.3-1.7-4.6C61.1,25.744,61.7,25.043,62.5,24.443z"/>
		<path fill="#FFF685" d="M62.7,24.244c0,0-0.1,0.199-0.2,0.199c-0.8,0.601-1.399,1.301-1.6,1.801c-0.4,1.3,0.2,2.8,1.7,4.6
			c1.1,1.4,2.6,1.3,4.5-0.2c1.8-1.5,1.899-3,0.6-4.899c-0.2-0.101-0.3-0.301-0.3-0.301c-1-1.199-2-1.8-2.7-1.8
			C64.1,23.443,63.4,23.744,62.7,24.244z"/>
		<path fill="#FAA74A" d="M63.4,15.943c-1.2-0.2-2.2-0.2-3,0.1c1.4,0.7,2.1,1.2,2.3,1.6c0.9,0.6,1.9,1.5,2.9,2.6
			c0,0,0.1-0.2,0.3-0.3v-0.9c0.2-1.4,1-2.3,2.8-2.3c1-0.7,1.9-0.9,2.7-0.6l1.7,1.9c0,0.4,0.1,0.8,0.3,1.2c0-0.1,0.2-0.2,0.5-0.3
			c0.8-0.5,1.3-0.7,1.5-0.5c0.2,0.2,0.3,0.2,0.3,0.1c0.2-0.1,0.4-0.1,0.7-0.1c-0.5-0.3-1-0.7-1.6-1c0.3-0.5,0.6-0.8,0.8-1.2
			c0.3-0.5,0.5-1,0.6-1.6c0.2-2.4-0.6-3.2-2.6-2.6c-2.2,1.2-3.7,1.7-4.3,1.7c-0.101,0-0.4-0.4-1.101-1c-0.6-0.8-1.3-1.2-2.2-1.3
			c-1.399-0.1-2.3,0.3-2.8,1.4C62.9,13.743,62.9,14.743,63.4,15.943z"/>
		<path fill="#FFF685" d="M50.8,26.143c-0.9-0.1-1.5,0.101-1.9,0.3c0.6,0.4,0.9,1,0.8,1.801c0,0.5-0.5,1.3-1.2,2.3
			c0.4,0.5,1.2,0.899,2.3,1c0.1,0,0.3,0,0.6,0c0.2-0.8,0.7-1.5,1.4-2.2c0.1-0.1,0.1-0.1,0.199-0.1c0-0.101,0-0.2,0-0.301
			C53.1,27.244,52.4,26.244,50.8,26.143z"/>
		<path fill="#FFF685" d="M65.9,19.943c0.2-0.2,0.4-0.6,0.7-1c0.5-0.7,1-1.3,1.5-1.7c0.1-0.2,0.3-0.3,0.6-0.5
			c-1.8,0-2.6,0.9-2.8,2.3V19.943z"/>
		<path fill="#9B95C9" d="M86.4,13.443c-0.5-0.2-1.2,0.3-2,1.5c-1,1.2-1.3,2.9-1.1,5.1c-3-1.3-5.301-1.8-6.9-1.6
			c-0.3,0-0.5,0-0.7,0.1c0,0.1-0.1,0.1-0.3-0.1c-0.2-0.2-0.7,0-1.5,0.5c-0.3,0.1-0.5,0.2-0.5,0.3c0,0.9,0,2,0,3.2
			c0.3,0.301,1,0.5,2.2,0.801c1,0.199,2,1,3.1,2.3c1.4,1.6,1.7,3.1,1.2,4.3c-0.3,0.7-0.8,1.1-1.5,1.4c-0.8,0.8-1.8,1-3,0.699
			c-0.2,0-0.4-0.1-0.7-0.199c0,0.1,0,0.1,0,0.199c0.4,1.101,1.4,1.7,3,1.801c1.101,0.199,2.2-0.301,3.4-1.301c1.5-1.399,2.3-2,2.3-2
			c1.8,4.101,3.8,6.2,6.2,6.4c1.3,0.2,2.3-0.2,2.8-1.2c0.3-0.5,0.5-1.399,0.7-2.6c0-0.601-0.101-1.4-0.4-2.3
			c-0.3-0.801-0.6-1.5-0.7-1.801c1.601-0.5,3.301-0.899,5.2-1.3c1.2-0.3,1.7-0.899,1.9-1.899c0.1-2.101-2.101-3.5-6.7-4.3
			c0.5-2.4-0.3-4.4-2.3-5.7C88.1,14.243,86.8,13.443,86.4,13.443z M82,26.443c0.101-1,0.101-1.6,0.101-1.699
			c0.3-2.301,1.5-3.4,3.7-3.3c2.3,0.2,3.3,1.5,3.1,3.7c-0.1,0.9-0.2,1.601-0.5,1.9c-0.6,0.899-1.7,1.3-3.2,1.1
			C83.3,28.043,82.2,27.443,82,26.443z"/>
		<path fill="#FFF685" d="M82.1,24.744c0,0.1,0,0.699-0.101,1.699c0.2,1,1.301,1.601,3.2,1.7c1.5,0.2,2.601-0.2,3.2-1.1
			c0.3-0.3,0.4-1,0.5-1.9c0.2-2.2-0.8-3.5-3.1-3.7C83.6,21.343,82.4,22.443,82.1,24.744z"/>
		<path fill="#9B95C9" d="M48.5,30.543c-0.2,0.2-0.4,0.399-0.7,0.6c-1.1,1.101-1.9,1.8-2.5,2c0.1,0.2,0.2,0.4,0.4,0.601
			c0.4,0,1-0.101,1.7-0.301c-0.1,0.2-0.3,1-0.5,2.4c0.1,1.3,1,2.1,2.5,2.2c1.1,0.1,2-0.5,2.5-2c0.2-0.2,0.2-0.4,0.3-0.7
			c-0.899-1.3-1.2-2.7-0.8-3.8c-0.3,0-0.5,0-0.6,0C49.7,31.443,48.9,31.043,48.5,30.543z"/>
		<path fill="#FFF685" d="M28.1,33.143c0.2-1.1-0.1-1.899-0.6-2.399c0,0.199,0,0.3,0,0.399c-0.1,0.5-0.1,0.9-0.1,1.2
			c-0.1,0.2-0.2,0.3-0.3,0.4c-0.2,0.399-0.4,0.8-0.7,1.199c-0.6,0.7-1.5,0.9-2.6,0.9c-0.3-0.1-0.5-0.1-0.8-0.1
			c-0.5-0.101-1-0.301-1.3-0.5c0,0.199,0.1,0.399,0.2,0.5c0.5,0.8,1.4,1.199,2.6,1.3c1,0.1,1.8-0.101,2.4-0.601
			C27.7,34.843,28,34.143,28.1,33.143z"/>
	</g>
</g>
</svg>
