<?xml version="1.0" encoding="utf-8"?>
<!-- Generator: Adobe Illustrator 13.0.0, SVG Export Plug-In . SVG Version: 6.00 Build 14948)  -->
<svg version="1.2" baseProfile="tiny" id="Layer_1" xmlns="http://www.w3.org/2000/svg" xmlns:xlink="http://www.w3.org/1999/xlink"
	 x="0px" y="0px" width="45.101px" height="26.775px" viewBox="0 0 45.101 26.775" xml:space="preserve">
<g>
	<g>
		<path fill="#5C4B48" d="M22,5.04c-0.2,0-0.6,0.2-1.2,0.6l-0.3-0.4c0,0-0.1-0.1-0.5-0.1c-0.3,0.1-0.6,0.2-0.7,0.2h0.1
			c0.2-0.1,0.4-0.4,0.4-0.8c0-1-0.7-1-2-0.3c-1.8,1-2.8,1.4-2.9,1.4c-0.4,0-0.7,0.1-1,0.4c-0.3,0.2-0.6,0.3-1,0.3
			c2.6,0.1,6.1,0.2,10.6,0.2c1.101,0,2.5,0,4-0.2c0.4-0.1,0.7-0.1,1.101-0.1c0,0-0.101-0.1-0.101-0.2c-0.1-0.1-0.399-0.2-0.5-0.2
			c-0.3,0-0.7,0.2-1.2,0.4v-0.2c0.2-0.2,0.2-0.3,0.2-0.5c0-0.2-0.1-0.4-0.5-0.6c-0.3-0.3-0.7-0.4-1.2-0.4c-0.3,0-0.8,0.1-1.3,0.5
			c-0.6,0.3-1,0.5-1,0.5C22.7,5.24,22.4,5.04,22,5.04z"/>
		<path fill="#FFFFFF" d="M12.9,6.34h-0.1c-2.4,0-3.9,0-4.8,0c-0.1-0.1-0.4-0.1-0.5-0.1c-0.1,0-0.1-0.1-0.2-0.1
			c-0.4-0.1-0.7,0.1-0.7,0.2c-0.5,0.2-0.8,0.2-1.2,0.4c0.4,0,0.9,0,1.6,0.2c0.3,0.1,0.6,0.3,1.1,0.6c1.2,0.5,2,0.8,2.7,0.8
			c0.2,0,0.4-0.1,0.7-0.2c0-0.1,0.1-0.1,0.1-0.1c0.2,0.1,0.3,0.2,0.4,0.2c0.5,0.5,1.1,0.7,1.8,0.8c0.5,0.2,1,0.3,1.6,0.3
			c0.2,0,0.6,0,0.8-0.1c0.1,0,0.1,0,0.2,0.1c1.1,0.7,2.4,1.2,3.8,1.2c1.1,0,1.7-0.3,2-0.6c0.1-0.1,0.1-0.1,0.2-0.2
			c0.4,0.4,1.1,0.6,2.1,0.6c1.5,0,2.7-0.3,3.8-1c0.101,0.3,0.301,0.4,0.7,0.4c1,0,2.101-0.2,3.4-0.7c0.899-0.3,1.399-0.7,1.7-0.9
			l0.1-0.1c0.2,0.2,0.4,0.3,0.9,0.3c1-0.3,1.8-0.7,2.3-1c1.2-0.2,2.1-0.3,2.899-0.3c-0.199-0.1-0.399-0.2-0.5-0.3
			c-0.399-0.1-0.899-0.2-1.5-0.2c-0.3,0-0.6-0.1-0.899-0.2c-1.2,0-2.7-0.1-4.5-0.1c-1.601,0-2.9,0-3.9,0c-0.1,0-0.2,0-0.399,0
			c-0.4,0-0.7,0-1.101,0.1c-1.5,0.2-2.899,0.2-4,0.2C19,6.54,15.5,6.439,12.9,6.34z"/>
		<path fill="#5C4B48" d="M15.4,9.34c-0.6,0-1.1-0.1-1.6-0.3c-0.7-0.1-1.3-0.3-1.8-0.8c-0.1,0-0.2-0.1-0.4-0.2c0,0-0.1,0-0.1,0.1
			c-0.3,0.1-0.5,0.2-0.7,0.2c-0.7,0-1.5-0.3-2.7-0.8c-0.5-0.3-0.8-0.5-1.1-0.6c-0.7-0.2-1.2-0.2-1.6-0.2c0.4-0.2,0.7-0.2,1.2-0.4
			c0-0.1,0.3-0.3,0.7-0.2c-0.3-0.1-0.5-0.2-0.8-0.2c-0.2,0-0.9,0.3-1.9,0.8c-0.6,0.3-1,0.5-1.2,0.8c-0.6,0-0.7,0-0.2,0.1
			c-0.2,0.3-0.4,0.5-0.4,0.7c0,0.2,0.2,0.4,0.6,0.7c-0.2,0.2-0.3,0.3-0.3,0.5v0.3c0.2,0.2,0.3,0.2,0.6,0.2c0.1,0,0.4-0.1,0.8-0.5
			c0.1,0.2,0.5,0.4,1,0.6c0.4,0.1,0.7,0.4,0.9,0.9c0.1,0.2,0.2,0.5,0.4,1c0.2,0.4,0.6,0.6,1.2,0.5c-0.1,0.1-0.2,0.2-0.2,0.4
			c0,0.4,0.2,0.6,0.8,0.6c0.4,0,0.8-0.2,1.2-0.5l0,0c-0.2,0.2-0.3,0.3-0.4,0.5c-0.2,0.2-0.3,0.3-0.3,0.5l0.4,0.8
			c0.3,0.6,0.5,0.899,0.6,0.899c0.5,0,1-0.3,1.5-0.899c0,0.2,0,0.399,0.2,0.6c-0.3,0.2-0.5,0.4-0.8,0.601c-0.5,0.6-0.7,1-0.7,1.199
			c0,0.101,0,0.301,0,0.301c0.1,0.199,0.3,0.399,0.7,0.399c0,0,1-0.7,3-2.2c0,0.101,0.1,0.301,0.3,0.7c0.1,0.3,0.5,0.601,1,0.8
			c-0.3,0.2-0.5,0.5-0.5,0.801l0.1,0.5c0.1,0.199,0.3,0.399,0.6,0.399c0.5,0,1-0.2,1.6-0.5c0.2,0.101,0.4,0.5,0.7,1.101
			c0.3,0.5,0.9,0.699,1.6,0.699c0.3,0,0.6-0.1,0.8-0.3s0.4-0.3,0.6-0.3l0.6,0.4c0.7,0,4.8-2.101,12.399-6.3
			c0.801-0.5,1.7-1,2.601-1.8c1-0.9,1.6-1.4,1.7-1.6c0.199-0.1,1.199-0.6,3-1.6c0.899-0.4,1.3-0.8,1.3-1.4c0-0.4-0.4-0.7-1-0.7
			c-0.8,0-1.3-0.1-1.5-0.5c-0.3-0.2-0.8-0.4-1.5-0.8c-0.9-0.3-1.8-0.6-2.5-0.6c-0.601,0-1.5,0.3-2.5,0.8c-1,0.4-1.4,0.6-1.5,0.6
			c-0.101,0-0.3-0.1-0.4-0.3c-0.1-0.2-0.399-0.3-0.8-0.3c-0.3,0-0.6,0.1-0.8,0.2c-0.4,0.3-0.7,0.4-0.9,0.5c1,0,2.3,0,3.9,0
			c1.8,0,3.3,0.1,4.5,0.1c0.3,0.1,0.6,0.2,0.899,0.2c0.601,0,1.101,0.1,1.5,0.2c0.101,0.1,0.301,0.2,0.5,0.3
			c-0.8,0-1.699,0.1-2.899,0.3c-0.5,0.3-1.3,0.7-2.3,1c-0.5,0-0.7-0.1-0.9-0.3l-0.1,0.1c-0.301,0.2-0.801,0.6-1.7,0.9
			c-1.3,0.5-2.4,0.7-3.4,0.7c-0.399,0-0.6-0.1-0.7-0.4c-1.1,0.7-2.3,1-3.8,1c-1,0-1.7-0.2-2.1-0.6c-0.1,0.1-0.1,0.1-0.2,0.2
			c-0.3,0.3-0.9,0.6-2,0.6c-1.4,0-2.7-0.5-3.8-1.2c-0.1-0.1-0.1-0.1-0.2-0.1C16,9.34,15.6,9.34,15.4,9.34z"/>
		<path fill="#5C4B48" d="M12.6,6.04c0-0.2-0.2-0.3-0.5-0.3c-0.1-0.2-0.6-0.2-1.2-0.2l-1.6,0.5l-0.2-0.1c0-0.2-0.2-0.2-0.6-0.2
			c-0.4,0.3-0.7,0.5-1,0.5c0.1,0,0.4,0,0.5,0.1c0.9,0,2.4,0,4.8,0C12.8,6.24,12.8,6.04,12.6,6.04z"/>
	</g>
	<g>
		<path fill="#E55452" d="M30.601,0.24c-1.5-0.3-2.9-0.3-4.101-0.1c-1.1,0.3-2,0.6-2.5,0.8c-0.6,0.1-1.2,0.4-2,0.6
			c-1.4-0.4-2.7-0.8-4-1c-1-0.3-1.4-0.3-1.4-0.3c0,0.1-0.1,0-0.3,0c-0.3-0.1-1.3,0-2.8,0.5c-1.6,0.4-3.1,1.1-4.7,2
			c-1.5,1-3,2-4.5,3.1l-2.4,1.9h0.2C2,7.84,2,7.84,2,7.939c0,0.1,0.1,0.2,0.3,0.3c0.1,0,0.1-0.1,0.1-0.2v0.2c0,0,0.1,0,0.1-0.2h0.1
			H2.5c-0.1-0.1-0.2-0.3-0.2-0.3c0-0.3,0.7-0.7,2.3-1.1c0,0,0.1,0,0.2,0c0.1-0.1,0.2-0.1,0.4-0.1c1.6-0.5,2.8-0.9,3.6-1
			c2-0.5,4.2-0.3,6.6,0.2c3.2,0.6,5.7,0.9,7.6,0.9c1.4,0,3.4-0.2,6-0.6c2.7-0.5,4.4-0.8,5.101-0.8c1.199,0,2.899,0.3,5,0.8
			c2.5,0.5,3.8,1,3.8,1.5v0.2l0,0h0.5c0.1-0.2,0-0.5-0.4-0.7c-0.6-0.7-1.6-1.5-2.899-2.4c-1-0.7-2.4-1.6-4.2-2.6
			C33.9,1.04,32.2,0.439,30.601,0.24z"/>
		<path fill="#E44247" d="M29,6.04c-2.6,0.4-4.6,0.6-6,0.6c-1.9,0-4.4-0.3-7.6-0.9c-2.4-0.5-4.6-0.7-6.6-0.2c-0.8,0.1-2,0.5-3.6,1
			c-0.2,0-0.3,0-0.4,0.1c-0.1,0-0.2,0-0.2,0c-1.6,0.4-2.3,0.8-2.3,1.1c0,0,0.1,0.2,0.2,0.3h0.1c0,0.1,0,0.1,0.1,0.1
			c0.2-0.1,0.4-0.1,0.7-0.2c0.5-0.2,1-0.3,1.8-0.6c1.9-0.3,4.2-0.5,7.1-0.5c1,0,2.8,0.3,5.5,0.9c2.3,0.5,4.6,0.8,6.6,0.6H24
			c1.5-0.1,3.2-0.3,5-0.8c2-0.5,3.601-0.8,5.2-0.8c1.2,0,4.2,0.3,8.7,1l0,0v-0.2c0-0.5-1.3-1-3.8-1.5c-2.101-0.5-3.801-0.8-5-0.8
			C33.4,5.24,31.7,5.54,29,6.04z"/>
		<path fill="#E55452" d="M2.4,8.24v0.1h0.2C2.5,8.34,2.4,8.34,2.4,8.24z"/>
	</g>
	<g>
		<path fill="#E44247" d="M19,4.54L19,4.54c0,0.5,0.2,0.9,0.4,1.4c-0.2,0-0.4,0-0.4,0s-0.3-0.1-0.8-0.2c-0.4-0.3-0.8-0.7-1.2-1.2
			h-0.1c0.1,0.4,0.2,0.7,0.4,1c-0.3-0.1-0.5-0.2-0.8-0.3c-0.1,0-0.2,0-0.3,0c-0.8-0.6-1.5-1-2.2-1.1c0.2,0.6,0.6,1.2,1.3,2
			c1,1,2,1.5,3,1.5c0.1,0,0.2-0.1,0.3-0.3c-0.2-0.3-0.6-0.5-0.8-0.8c0.1,0.1,0.2,0.2,0.4,0.2c0.1,0,0.1,0,0.1,0
			c0.6,0.6,1.1,0.8,1.6,0.8c0.1,0,0.2,0,0.4,0c-0.3-0.2-0.5-0.4-0.8-0.6c0.2,0,0.4,0.1,0.6,0.1c0.4,0.7,0.9,1,1.4,1
			c0.2,0,0.3-0.1,0.5-0.3c-0.1,0-0.2,0-0.2-0.1c0.1-0.1,0.2-0.3,0.2-0.6c0.1,0,0.4,0,0.5,0c-0.1,0-0.2,0.2-0.3,0.2
			c0,0.1,0.1,0.2,0.3,0.3c0.2,0,0.5-0.1,0.7-0.2c0.1,0.2,0.2,0.2,0.6,0.2c0.2,0,0.301,0,0.601,0c0,0,0.1,0.1,0.3,0.1
			s0.3-0.1,0.6-0.1c0,0,0,0-0.1,0.1c0.2,0.1,0.3,0.1,0.4,0.1c0.3,0,0.6-0.2,0.899-0.7h0.101c-0.101,0.2-0.2,0.3-0.2,0.3
			c0,0.2,0,0.2,0.1,0.3c0.2-0.1,0.5-0.2,0.8-0.4c0.101,0.1,0.301,0.1,0.5,0.1c2.301-0.6,3.5-0.9,3.5-1c0-0.1,0-0.1,0-0.2
			c-1.199-0.1-1.899-0.2-2.3-0.3c0.601-0.6,0.9-0.9,0.9-1.1v-0.2H29.8c-0.5,0.2-1.3,0.6-2,1.4c-0.1-0.1-0.199-0.2-0.3-0.2l-0.5,0.2
			c0.3-0.3,0.4-0.6,0.5-0.7l-0.6,0.6c-0.101,0.1-0.2,0.1-0.3,0.2H26.3c0.4-0.2,0.7-0.4,0.7-0.5c0-0.2-0.2-0.2-0.399-0.2
			c-0.101,0-0.301,0.2-0.801,0.4c-0.1,0-0.1,0-0.199,0.1c0-0.1-0.101-0.1-0.101-0.1c-0.1,0-0.2,0.2-0.5,0.3
			c-0.1,0.1-0.2,0.2-0.3,0.2c0.1,0,0.2-0.2,0.2-0.2c0.7-0.8,1.1-1.5,1.1-2c0-0.1-0.1-0.3-0.2-0.3c-0.399,0.2-0.6,0.5-0.8,0.8
			c0,0.2-0.2,0.5-0.5,1c0,0.2-0.3,0.5-0.8,0.8c-0.5-0.1-1.1-0.1-1.7-0.2c0-0.4-0.1-0.6-0.2-0.9c-0.3,0.1-0.4,0.3-0.4,0.8
			c-0.7-0.1-1-0.2-1.1-0.2c0,0-0.2,0-0.3,0.1C19.7,5.54,19.4,5.04,19,4.54z M21.5,7.54c-0.1-0.2-0.3-0.3-0.5-0.5c0.2,0,0.3,0,0.4,0
			C21.4,7.24,21.4,7.34,21.5,7.54z"/>
		<path fill="#E66159" d="M19.5,2.64c0.9,0,1.3-0.2,1.3-0.6c0-0.8-1-1.1-3.1-1.3c-2.1-0.1-3.6,0.2-4.6,0.9c-0.9,0.7-1.2,1.1-1,1.1
			c0.3,0,0.7-0.1,1.2-0.2c0.3-0.2,0.8-0.3,1.3-0.3C17,2.24,18.6,2.34,19.5,2.64z"/>
		<path fill="#E66159" d="M25.7,1.04c-0.7,0.2-1.2,0.5-1.2,0.7c0,0.3,0.5,0.6,1.3,0.8c0.9,0.2,2.801,0.4,5.601,0.6
			c0.2,0,1,0.3,2,0.9c1,0.4,1.6,0.6,2.1,0.6c0.601,0,1-0.2,1-0.6c0-0.7-0.899-1.4-2.6-2.1c-1.8-0.9-3.5-1.2-5.2-1.2
			C27.5,0.74,26.5,0.84,25.7,1.04z"/>
		<path fill="#D74848" d="M36,11.54c-0.899,0.5-1.8,1-2.7,1.5c-2.1,1.2-4.3,2.1-6.5,3c-0.899,0.3-1.8,0.5-2.8,0.699c-1,0-2,0-3,0
			c-1.1-0.199-2.1-0.3-3-0.5c-1.1-0.3-2.1-0.699-3-1.199c-1.2-0.5-2.6-1.3-3.9-2c-0.8-0.5-1.6-1.1-2.3-1.7c-0.9-0.6-1.8-1.1-2.8-1.6
			c-0.9-0.5-1.7-0.8-2.7-1.1c-0.5-0.2-1-0.3-1.5-0.4c0.2,1.3,1,3,2,5.3c1.1,2.4,2,4,2.9,5.2c0.9,1.2,1.8,2,2.7,2.801
			c0.7,0.6,1.9,1.5,3.4,2.5s3.2,1.8,5.2,2.3c1.7,0.399,3.5,0.5,5.4,0.399c2.1,0,4.1-0.399,6-1.1c1.899-0.9,3.7-2,5.5-3.2
			c1.6-1.3,3.1-2.899,4.2-4.7c0.199-0.399,0.3-0.699,0.6-1c0.3-0.6,0.6-1.199,0.8-1.699l0.3-0.5l0.101-0.101
			c0.1-0.4,0.1-0.7,0.3-1.1l0.1-0.1c0-0.2,0.101-0.2,0.101-0.4c0.2-0.3,0.3-0.6,0.399-0.9l1.801-4.4l-0.5,0.3
			c-0.9,1.4-1.601,2.9-2.101,4.4c-0.6,1.4-1.399,2.8-2.3,4.2c-1.2,1.8-2.5,3.601-4.1,5.101c-0.5,0.399-1,0.8-1.601,1.199
			c-2.5,2-5.399,3-8.6,3c-2.4,0.5-4.8,0.301-7.1-0.5c-2.2-0.5-4.3-1.5-6.3-3.1c-1.6-1.1-3-2.6-4.4-4.4c-0.7-1-1.5-2.199-2.2-3.7
			c-1-1.8-1.8-3.6-2.1-5.4c0.5,0.6,1.1,1.2,1.6,1.7c1.2,1.5,2.6,2.7,4.1,3.7c1.5,1,3.1,2,4.8,2.9c-0.1,0.101-0.2,0.101-0.2,0.101
			c0,0.199,0,0.399,0,0.699c0.9,0.301,1.8,0.7,2.5,1c2,0.801,4,1.2,6.2,1.2c2.1,0.2,4.2,0,6.2-0.7c2-0.699,3.8-1.699,5.5-2.899
			c1.5-1.101,3-2.3,4.4-3.5c1.7-1.6,3.2-2.9,4.399-4.3c-1.1,0.5-2.1,1-3.1,1.5C37.8,10.54,36.9,11.04,36,11.54z"/>
		<path fill="#CC4F4B" d="M33.3,13.04c0.9-0.5,1.801-1,2.7-1.5c0.9-0.5,1.8-1,2.7-1.5c1-0.5,2-1,3.1-1.5l1.301-0.7l0.5-0.3l1.5-1
			c-1.7,0.2-3.301,0.7-5,1.5c-1.5,0.9-3.101,1.7-4.7,2.7c-1.3,0.8-2.4,1.5-3.7,2.2c-0.8,0.5-1.7,1-2.4,1.3
			c-1.199,0.7-2.399,1-3.8,1.301c-0.5,0.1-1,0.199-1.5,0.199c-1.3,0.2-2.6,0.2-3.9,0c-1.5-0.3-2.8-0.699-4.1-1.399
			c-0.9-0.4-1.7-0.9-2.6-1.3c-1-0.5-2.1-1-3-1.6c-1-0.5-2-1-2.9-1.5c-1.2-0.7-2.5-1.4-3.9-1.9c-0.3-0.1-0.7-0.3-1.1-0.4
			c-0.7-0.1-1.6-0.1-2.5,0c0,0,0.1,0.1,0.3,0.1c0.1,0,0.2,0,0.3,0c0.2,0.1,0.4,0.2,0.5,0.3c0.3,0,0.4,0.1,0.7,0.2
			c0.5,0.1,1,0.2,1.5,0.4c1,0.3,1.8,0.6,2.7,1.1c1,0.5,1.9,1,2.8,1.6c0.7,0.6,1.5,1.2,2.3,1.7c1.3,0.7,2.7,1.5,3.9,2
			c0.9,0.5,1.9,0.899,3,1.199c0.9,0.2,1.9,0.301,3,0.5c1,0,2,0,3,0c1-0.199,1.9-0.399,2.8-0.699C29,15.14,31.2,14.239,33.3,13.04z"
			/>
		<path fill="#E44247" d="M41.8,8.54c-1.199,1.4-2.699,2.7-4.399,4.3c-1.4,1.2-2.9,2.399-4.4,3.5c-1.7,1.2-3.5,2.2-5.5,2.899
			c-2,0.7-4.1,0.9-6.2,0.7c-2.2,0-4.2-0.399-6.2-1.2c-0.7-0.3-1.6-0.699-2.5-1c0-0.3,0-0.5,0-0.699c0,0,0.1,0,0.2-0.101
			c-1.7-0.899-3.3-1.899-4.8-2.9c-1.5-1-2.9-2.2-4.1-3.7c-0.5-0.5-1.1-1.1-1.6-1.7c0.3,1.8,1.1,3.6,2.1,5.4c0.7,1.5,1.5,2.7,2.2,3.7
			C8,19.54,9.4,21.04,11,22.14c2,1.6,4.1,2.6,6.3,3.1c2.3,0.801,4.7,1,7.1,0.5c3.2,0,6.1-1,8.6-3c0.601-0.399,1.101-0.8,1.601-1.199
			c1.6-1.5,2.899-3.301,4.1-5.101c0.9-1.399,1.7-2.8,2.3-4.2c0.5-1.5,1.2-3,2.101-4.4L41.8,8.54z"/>
		<path fill="#E44247" d="M40.9,14.439c0-0.2,0.1-0.3,0.1-0.4c0.101-0.3,0.101-0.5,0.2-0.7C41,13.74,41,14.04,40.9,14.439z"/>
	</g>
	<g>
		<path fill="#E65B55" d="M40.9,11.34l-0.2-0.4c-0.2,0.7-0.5,1.6-1.1,2.6l-0.101,0.2l-0.1-0.3c0-0.2,0.2-0.7,0.6-1.4
			c0.3-0.9,0.5-1.4,0.7-1.7l0.1,0.2c0,0.1,0,0.2-0.1,0.4c0.6-0.6,0.8-0.9,0.8-1.2c0-0.3-0.399-0.2-1.1,0.1c-0.8,0.4-1.3,0.7-1.4,1
			c-0.5,0.6-0.8,1-1,1.2c-0.399,0.5-0.899,0.9-1.3,1.2c-0.8,0.5-2.1,1.3-3.7,2.5c-1.899,1.2-2.8,1.9-2.8,2
			c0,0.7-0.6,1.301-1.7,1.801c-1.3,0.5-2.399,0.899-3.1,1.199c-0.9,0.5-1.8,0.801-2.5,1c-1.6,0.5-2.8,0.801-3.5,0.801l-2.3-0.101
			c-0.3,0-0.7,0.101-1,0.3c-0.2,0.301-0.3,0.5-0.3,0.5c0,0.801,3.1,1.5,9.2,1.9c-1,0.4-2.5,0.6-4.5,0.6c-0.4,0-0.6,0-0.8-0.1
			c-0.3-0.1-0.4-0.1-0.5-0.1c-0.2,0-0.2,0-0.1,0.199c0,0.301,1.3,0.5,3.8,0.5c2.399,0.2,4.899-0.5,7.5-1.899
			c2.6-1.4,4.5-2.8,5.899-4.101c1.301-1,2.301-2.399,2.9-4.199C40.3,13.24,40.9,11.54,40.9,11.34z M39.3,14.739
			c0,0.301-0.3,0.9-0.899,2c-0.7,1.2-1.2,2-1.601,2.5c-0.399,0.5-1.1,1.101-2,1.9c-1.3,1-2.199,1.5-2.8,1.5c-0.6,0-0.8-0.2-0.8-0.6
			c0-0.5,0.6-1.5,1.8-2.601c0.7-0.6,1.4-1.2,2.4-1.899c0.5-0.5,1.399-1.5,2.5-2.801C38.8,13.939,39.3,13.939,39.3,14.739z
			 M27.3,24.739h-0.199c-0.7,0.301-1.2,0.5-1.7,0.4C26.4,24.939,27,24.739,27.3,24.739z M29.8,24.04c-0.8,0.5-1.399,0.899-1.8,0.899
			c-0.2,0-0.399-0.2-0.399-0.7c0-0.3,0.5-0.699,1.399-1c0.4-0.199,1-0.3,1.7-0.6c0.1,0.1,0.1,0.2,0.1,0.3
			C30.8,23.14,30.4,23.54,29.8,24.04z M22,23.939l0.1,0.101h-0.2L22,23.939z"/>
		<path fill="#E86E63" d="M38.4,16.739c0.6-1.1,0.899-1.699,0.899-2c0-0.8-0.5-0.8-1.399,0c-1.101,1.301-2,2.301-2.5,2.801
			c-1,0.699-1.7,1.3-2.4,1.899c-1.2,1.101-1.8,2.101-1.8,2.601c0,0.399,0.2,0.6,0.8,0.6c0.601,0,1.5-0.5,2.8-1.5
			c0.9-0.8,1.601-1.4,2-1.9C37.2,18.739,37.7,17.939,38.4,16.739z"/>
		<path fill="#E86E63" d="M28,24.939c0.4,0,1-0.399,1.8-0.899c0.601-0.5,1-0.9,1-1.101c0-0.1,0-0.2-0.1-0.3
			c-0.7,0.3-1.3,0.4-1.7,0.6c-0.899,0.301-1.399,0.7-1.399,1C27.601,24.739,27.8,24.939,28,24.939z"/>
		<path fill="#E86E63" d="M40.7,10.939c0.1-0.2,0.1-0.3,0.1-0.4l-0.1-0.2c-0.2,0.3-0.4,0.8-0.7,1.7c-0.399,0.7-0.6,1.2-0.6,1.4
			l0.1,0.3l0.101-0.2C40.2,12.54,40.5,11.64,40.7,10.939z"/>
		<path fill="#CC4F4B" d="M33.9,15.04L33.9,15.04c-0.5-0.7-0.9-0.801-1.4-0.5l0.101,0.199c0.1,0,0.3,0,0.6,0.2
			C33.4,15.04,33.601,15.04,33.9,15.04z"/>
		<path fill="#CC4F4B" d="M29.5,14.54v0.199c0.7,0.4,1.101,1.2,1.5,2.2l0,0c0-1.1-0.399-1.899-1.3-2.399H29.5z"/>
		<path fill="#CC4F4B" d="M29.5,18.54h0.2c-0.6-1.7-1.4-2.801-2.4-3.301v0.301c0.4,0.199,0.801,0.699,1.2,1.399
			C29.101,17.939,29.4,18.34,29.5,18.54z"/>
		<path fill="#CC4F4B" d="M25.601,16.34l0.699,0.899c0.101-0.199,0-0.399-0.3-0.699c0-0.2-0.2-0.301-0.399-0.301V16.34z"/>
		<path fill="#CC4F4B" d="M24.601,18.84c-0.101-1.601-0.5-2.5-1-2.5c-0.101,0-0.101,0-0.101,0.1c0.601,1.101,0.9,2.101,0.9,3.101
			h0.1L24.601,18.84z"/>
		<path fill="#CC4F4B" d="M18.1,15.739H18c-0.6,0.2-1,1-1,2.301l0.1,1.399h0.2l0.2-2C17.9,16.439,18.1,15.939,18.1,15.739z"/>
		<path fill="#CC4F4B" d="M20,16.239c-0.2,0.101-0.5,0.4-0.7,0.801c-0.2,0.5-0.3,0.8-0.3,1.199c0,1.301,0.3,2.301,0.6,3.2l0.1-0.2
			c-0.3-1-0.3-1.899-0.3-2.5c0-0.6,0.1-1.1,0.4-1.5c0.2-0.5,0.2-0.699,0.2-0.8V16.239z"/>
		<path fill="#CC4F4B" d="M21,16.739v0.101v0.6c0.2,0.4,0.4,0.8,0.6,1c-0.1-0.399-0.1-0.7-0.1-1C21.4,17.04,21.3,16.739,21,16.739
			L21,16.739z"/>
		<path fill="#CC4F4B" d="M16.7,15.54l-0.1-0.301c-0.6,0.101-1.1,0.5-1.3,1.5c-0.2,0.601-0.3,1.4-0.3,2.2v0.3
			c0,0.301,0.1,0.5,0.3,0.5c0.1-1.5,0.4-2.699,0.7-3.3C16.5,15.84,16.7,15.54,16.7,15.54z"/>
		<path fill="#CC4F4B" d="M16.2,15.04h-0.1c-0.4,0.3-0.7,0.6-1,0.8c-0.3,0.399-0.6,0.8-0.5,1.2L16.2,15.04z"/>
		<path fill="#E44D4C" d="M13.3,22.739l-0.2,0.2c1.3,1,2.2,1.601,2.7,1.8V24.54C15,23.84,14.2,23.239,13.3,22.739z"/>
		<path fill="#E44D4C" d="M4.4,12.24c-0.3-0.5-0.5-0.9-0.9-1l-0.1,0.2c-0.1-0.4-0.2-0.5-0.3-0.5l-0.2,0.1c0.7,1.2,1.3,2.3,1.7,3.3
			s1,2.2,2,3.399c0.8,1.301,1.9,2.5,3.2,3.4c1.2,1.2,2,1.8,2.3,1.8c0.2,0,0.2-0.1,0.2-0.3c0-0.1-0.6-0.7-1.8-1.9
			c-0.1-0.199-0.3-0.399-0.5-0.5c-1-1.199-1.8-2.199-2.4-3C7,16.34,6.4,15.64,6,15.04l-0.8-1.5C5.1,13.54,4.9,13.04,4.4,12.24z"/>
	</g>
</g>
</svg>
