<?xml version="1.0" encoding="utf-8"?>
<!-- Generator: Adobe Illustrator 13.0.0, SVG Export Plug-In . SVG Version: 6.00 Build 14948)  -->
<svg version="1.2" baseProfile="tiny" id="Layer_1" xmlns="http://www.w3.org/2000/svg" xmlns:xlink="http://www.w3.org/1999/xlink"
	 x="0px" y="0px" width="61px" height="41.9px" viewBox="0 0 61 41.9" xml:space="preserve">
<g>
	<g>
		<path fill="#F38C84" d="M25.9,19.4c0.5-0.8,1.1-1.7,2-2.4c0.5-0.4,1-0.8,1.2-1c-0.2,0.1-0.5,0.1-0.7,0.1c-0.3,0-0.4,0-0.6,0
			c-1.2,0.6-2,1.5-2.7,2.5c-1,1.8-1.9,5-2.7,9.5c-0.8,4.5-1.3,7-1.6,7.601c-0.9,1.5-2,2.7-3.4,3.7c-0.3,0.199-0.8,0.5-1.3,0.699
			c-0.3,0.2-0.8,0.4-1.5,0.7c-0.3,0.101-1,0.101-1.8,0.101c-0.1-0.2-0.2-0.301-0.3-0.301c-0.1,0-0.5-0.1-1.6-0.199
			c-1,0-2.3-0.5-3.5-1.2C3.5,37,1.9,33.3,2.5,27.9C2.8,26.1,3.1,24.4,3.8,22.6c0.4-1.2,0.7-2,1-2.5c0.8-1.5,1.8-3,3.1-4.5
			c1.4-1.7,2.6-3,3.7-3.7c0.5-0.3,1-0.6,1.5-0.8c-0.6-0.3-1-0.5-1.3-0.7c-2.2,1.6-3.7,3-4.5,4.2c-1.4,1.6-2.5,3.3-3.5,4.9
			c-0.3,0.4-0.6,1.4-1,2.6c-0.8,2-1.2,4-1.4,5.801C0.7,33.6,2.5,37.7,6.8,40.2c1.7,1,3.1,1.5,4.2,1.5c2,0.399,4,0.2,5.9-0.601
			c1.9-0.8,3.2-2,4.2-3.699c0.9-1.5,1.7-4.601,2.4-9.101C24.4,23.7,25.1,20.7,25.9,19.4z"/>
	</g>
	<g>
		<path fill="#F59E96" d="M18.6,13.4c-0.2-0.1-0.5-0.2-0.7-0.3c-0.5,0.5-1.1,1.2-1.8,1.8c-2.4,2.6-4.2,4.9-5.5,7
			c-0.7,1.399-1.2,3.5-1.2,6.3c0,2.7,0,4.2-0.1,4.399C9,33.1,8.5,33.4,7.9,33.7C7.1,34.1,6.3,34.1,5.4,33.6
			C3.3,32.3,2.6,29.7,3.7,26C5.2,22.5,6,20.7,6,20.6c2.1-3.7,4.7-6.8,7.8-9.2c-0.7-0.3-1.3-0.7-1.7-0.9c-1.1,0.9-2.2,1.9-3.3,3.1
			C6.6,16,5,18.2,4.1,20.1c-0.9,2-1.6,4-1.9,6C1.1,32.6,3.1,37.3,8.4,40.4c3,1.699,5.9,1.6,8.7-0.301c1.7-1,3-2.199,3.9-3.8
			c1-1.8,1.7-4.7,2-8.6c0.4-3.8,1.2-6.8,2.4-9c0.2-0.3,0.6-0.8,1.4-1.4c0.5-0.6,0.9-1,1.2-1.2c-0.6-0.1-1.1-0.2-1.7-0.3
			c-0.2,0.3-0.3,0.5-0.4,0.7c-0.1,0.3-0.7,0.9-1.5,1.9c-0.9,1-1.4,1.6-1.6,1.9c-0.5,0.8-1,3.601-1.7,8.101
			c-0.6,4.5-1.4,7.699-2.4,9.399c-0.3,0.5-0.7,0.8-1.2,0.9c-0.5,0.2-1.1,0.2-1.8-0.101c-3.2-1.899-4.2-5-2.9-9.5
			c0.4-1.5,1-3,1.7-4.6c0.8-1.3,1.2-2,1.3-2.1c0.2-0.301,1.1-1.3,2.7-3c1.7-1.6,2.8-2.8,3.2-3.6c0.1-0.1,0.1-0.4,0.1-1.2l0,0
			c-0.4-0.2-0.8-0.3-1.3-0.5c-0.2,0.3-0.5,0.5-0.9,0.8c-3.2,3-5.6,5.4-7.2,7.4L12,22.1c0.4-1.2,0.9-2.2,1.4-3
			c0.6-1.2,2.1-2.9,4.6-5.2C18.2,13.7,18.4,13.6,18.6,13.4z M8.3,37.1C8.3,36.9,8.4,36.7,8.5,36.4c0.6-1.101,1.5-1.5,2.6-0.9
			c1,0.6,1.3,1.2,0.8,2.1C11.2,38.7,10.3,39,9.1,38.4C8.4,38,8.2,37.6,8.3,37.1z"/>
		<path fill="#F6ABA3" d="M8.5,36.4c-0.1,0.3-0.2,0.5-0.2,0.699C8.2,37.6,8.4,38,9.1,38.4c1.2,0.6,2.1,0.3,2.8-0.801
			c0.5-0.899,0.2-1.5-0.8-2.1C10,34.9,9.1,35.3,8.5,36.4z"/>
		<path fill="#F59890" d="M21.8,14.6L21.8,14.6c0,0.8,0,1.1-0.1,1.2c-0.4,0.8-1.5,2-3.2,3.6c-1.6,1.7-2.5,2.7-2.7,3
			c-0.1,0.1-0.5,0.8-1.3,2.1c-0.7,1.6-1.3,3.1-1.7,4.6c-1.3,4.5-0.3,7.601,2.9,9.5C16.4,38.9,17,38.9,17.5,38.7
			c0.5-0.101,0.9-0.4,1.2-0.9c1-1.7,1.8-4.899,2.4-9.399c0.7-4.5,1.2-7.3,1.7-8.101c0.2-0.3,0.7-0.9,1.6-1.9c0.8-1,1.4-1.6,1.5-1.9
			c0.1-0.2,0.2-0.4,0.4-0.7C25,15.6,23.5,15.1,21.8,14.6z"/>
		<path fill="#F6ABA3" d="M17.9,13.1c-0.1,0-0.1,0-0.1,0c-1.7-0.7-3-1.2-4-1.7c-3.1,2.4-5.7,5.5-7.8,9.2c0,0.1-0.8,1.9-2.3,5.4
			c-1.1,3.7-0.4,6.3,1.7,7.6c0.9,0.5,1.7,0.5,2.5,0.101C8.5,33.4,9,33.1,9.3,32.6C9.4,32.4,9.4,30.9,9.4,28.2c0-2.8,0.5-4.9,1.2-6.3
			c1.3-2.101,3.1-4.4,5.5-7C16.8,14.3,17.4,13.6,17.9,13.1z"/>
		<path fill="#F38C84" d="M20.5,14.1c-0.6-0.2-1.2-0.5-1.9-0.7c-0.2,0.2-0.4,0.3-0.6,0.5c-2.5,2.3-4,4-4.6,5.2c-0.5,0.8-1,1.8-1.4,3
			l0.4,0.2c1.6-2,4-4.4,7.2-7.4C20,14.6,20.3,14.4,20.5,14.1z"/>
	</g>
	<g>
		<path d="M57.7,0.1c-0.1-0.1-0.1-0.1-0.1-0.1c-1.2,0.9-3.2,2.3-6.101,4.3c-5.899,4.1-10.7,7-14.5,8.4c-3.8,1.4-7.6,2-11.2,1.9
			c-3.7-0.1-8.8-1.9-15.2-5.3C4.3,5.9,1,4.1,0.8,3.9C0.6,3.7,0.4,3.8,0,4.1c10,7.2,17.7,11,23.1,11.7c5.5,0.6,10.2,0.3,14-1.1
			C41,13.4,44.5,11.6,47.9,9.3C51.3,7,54.4,4.6,57.4,2.2c1.6,1.3,2.399,2,2.5,2.1c0.1,0.1,0.1,0.1,0.2,0.1L61,3.3
			C60.2,1.8,59.101,0.7,57.7,0.1z"/>
	</g>
</g>
</svg>
