<?xml version="1.0" encoding="utf-8"?>
<!-- Generator: Adobe Illustrator 13.0.0, SVG Export Plug-In . SVG Version: 6.00 Build 14948)  -->
<svg version="1.2" baseProfile="tiny" id="Layer_1" xmlns="http://www.w3.org/2000/svg" xmlns:xlink="http://www.w3.org/1999/xlink"
	 x="0px" y="0px" width="55.8px" height="40.814px" viewBox="0 0 55.8 40.814" xml:space="preserve">
<g>
	<g>
		<path fill="#806A50" d="M22.3,24.015c0-0.3,0-0.4-0.1-0.4l-0.1,0.101c-0.2-0.101-0.3-0.101-0.6-0.101c0,0.101,0,0.3,0,0.4l0.2,0.1
			c-0.2,0.2-0.3,0.4-0.4,0.5c-0.3,0.4-0.5,0.9-0.8,1.4c-0.5,0.6-1,1.2-1.5,1.899c-0.5,0.601-0.9,1.5-1.4,2.301
			c-0.5,0.699-0.9,1.199-1.3,1.699c0.2-0.199,0.6-0.399,0.8-0.5c0.5-0.399,0.9-0.8,1.3-1.1c0.9-0.8,1.6-1.7,2.1-2.5
			c0.5-0.9,0.8-1.7,0.8-2.3h0.2c0,0,0.1,0,0.2,0.1c0.1,0,0.1,0.2,0.1,0.4c0-0.101,0.1-0.3,0.1-0.4c-0.1-0.2-0.2-0.399-0.4-0.5
			C22,24.515,22.3,24.114,22.3,24.015z"/>
		<path fill="#70604E" d="M21.5,24.015L21.5,24.015c0-0.101,0-0.3,0-0.4v-0.1c0-0.2,0-0.4,0-0.4c-0.1,0-0.2-0.1-0.2-0.1
			c-0.4,0.3-0.7,0.6-1,1c-1.6,1.5-2.9,2.899-4.2,4.1c-1.1,1.2-2.1,2.3-2.9,3.3c-0.8,0.9-1.6,1.7-2.2,2.4h0.1
			c-0.1,0.1-0.2,0.1-0.3,0.2c-0.8-0.101-1.5-0.3-2.3-0.5c0,0-0.1,0-0.2,0s-0.2,0-0.3-0.101c-0.1,0.101-0.4,0.101-0.5,0.101
			c0,0,0.1,0,0.1,0.1c0.4,0.3,0.8,0.5,1.3,0.9c0.6,0.3,1.4,0.6,2.2,0.7c0.2-0.101,0.9-0.601,2.3-1.301c0.6-0.399,1.2-0.8,1.9-1.199
			c0.2-0.2,0.3-0.301,0.5-0.5c-0.9,0.399-1.9,0.899-2.9,1.3c0.1,0,0.2,0.1,0.4,0.2c-0.5,0.1-0.9,0.1-1.4,0.1
			c-0.3-0.1-0.4-0.1-0.5-0.1c0.5-0.101,1.2-0.301,2-0.801c0.4-0.5,0.9-1.1,1.5-1.8c-0.6,0.4-1.3,0.9-2.1,1.4c1.2-1.4,2.6-2.8,4.1-4
			c0.1-0.2,0.6-0.601,1.5-1.3c0.9-1,1.4-1.601,1.5-1.7c0,0.2-0.1,0.5-0.3,0.8c0-0.1,0-0.1,0.1-0.1
			C20.5,25.114,21,24.314,21.5,24.015z"/>
		<path fill="#776D63" d="M21.5,24.015L21.5,24.015c-0.5,0.3-1,1.1-1.8,2.2c-0.4,0.699-0.9,1.5-1.5,2.399c-0.3,0.5-0.6,0.9-0.8,1.5
			c-0.5,0.8-1.1,1.4-1.6,2.101c-0.2,0.199-0.3,0.3-0.5,0.5c0.2-0.2,0.4-0.301,0.6-0.5c0.1-0.101,0.2-0.2,0.4-0.301
			c0.4-0.5,0.8-1,1.3-1.699c0.5-0.801,0.9-1.7,1.4-2.301c0.5-0.899,1-1.699,1.5-2.3c0.2-0.399,0.5-0.7,0.8-1
			c0.1-0.1,0.2-0.3,0.4-0.5L21.5,24.015z"/>
		<path fill="#63574B" d="M19.6,26.314c0.2-0.3,0.3-0.6,0.3-0.8c-0.1,0.1-0.6,0.7-1.5,1.7C18.8,27.015,19.1,26.614,19.6,26.314z"/>
		<path fill="#554D45" d="M19.7,26.215c-0.1,0-0.1,0-0.1,0.1c-0.5,0.3-0.8,0.7-1.2,0.9c-0.9,0.699-1.4,1.1-1.5,1.3
			c-1.5,1.2-2.9,2.6-4.1,4c0.8-0.5,1.5-1,2.1-1.4c1.4-1,2.2-1.6,2.6-1.8c0.1-0.1,0.3-0.2,0.4-0.3c0.1-0.101,0.2-0.3,0.3-0.4
			C18.8,27.715,19.3,26.914,19.7,26.215z"/>
		<path fill="#70604E" d="M20.5,25.614c0,0,0.1-0.1,0.2-0.1c-0.1,0.1-0.2,0.3-0.2,0.5c0.3-0.5,0.5-1,0.8-1.4
			C21,24.914,20.7,25.215,20.5,25.614z"/>
		<path fill="#554D45" d="M20.7,25.515c-0.1,0-0.2,0.1-0.2,0.1c-0.5,0.601-1,1.4-1.5,2.3c0.5-0.699,1-1.3,1.5-1.899
			C20.5,25.814,20.6,25.614,20.7,25.515z"/>
		<path fill="#63574B" d="M17.9,29.015c-0.1,0.1-0.3,0.2-0.4,0.3c-0.4,0.2-1.2,0.8-2.6,1.8c-0.6,0.7-1.1,1.3-1.5,1.8
			c-0.2,0.2-0.3,0.2-0.4,0.4c1.5-0.9,3-2.2,4.4-3.8C17.5,29.314,17.8,29.114,17.9,29.015z"/>
		<path fill="#806A50" d="M17.9,29.015c-0.1,0.1-0.4,0.3-0.5,0.5c-1.4,1.6-2.9,2.899-4.4,3.8c0.1-0.2,0.2-0.2,0.4-0.4
			c-0.8,0.5-1.5,0.7-2,0.801c0.1,0,0.2,0,0.5,0.1c0.5,0,0.9,0,1.4-0.1c-0.2-0.101-0.3-0.2-0.4-0.2c1-0.4,2-0.9,2.9-1.3
			c0.5-0.7,1.1-1.301,1.6-2.101c0.2-0.6,0.5-1,0.8-1.5C18.1,28.715,18,28.914,17.9,29.015z"/>
		<path fill="#806A50" d="M18.5,25.314c-1,0.9-1.8,1.9-2.4,2.8c1.3-1.2,2.6-2.6,4.2-4.1C19.7,24.215,19.1,24.715,18.5,25.314z"/>
		<path fill="#806A50" d="M23.7,26.914c0,0,0,0,0.1-0.1c0-0.1,0-0.1,0-0.1C23.7,26.715,23.7,26.814,23.7,26.914z"/>
		<path fill="#70604E" d="M23.8,26.814c-0.1,0.1-0.1,0.1-0.1,0.1c-0.9,2.101-2.3,3.801-4.1,5.101c-0.3,0.3-0.7,0.6-1.1,1
			c1-0.8,2-1.601,3-2.601c0.8-0.8,1.4-1.5,1.9-2.3c0.7-1,1.2-1.899,1.5-2.6C24.8,25.614,24.4,26.114,23.8,26.814z"/>
		<path fill="#776D63" d="M23.7,26.914c0-0.1,0-0.199,0.1-0.199c0.2-0.7,0.5-1.5,0.7-2.2c0,0-0.3,0.3-0.9,1
			c-0.2,0.399-0.5,0.7-0.8,1.2c-0.6,0.699-1.3,1.5-2,2.6c-1,1.2-2,2.2-3.2,3.1c-0.1,0-0.1,0-0.2,0.101c-0.5,0.3-1,0.6-1.5,0.8
			c-0.3,0.2-0.4,0.3-0.6,0.4c0.2,0,0.3-0.101,0.6-0.101c1.2-0.399,2.4-0.899,3.4-1.5c0.1,0,0.2-0.1,0.3-0.1
			C21.4,30.715,22.8,29.015,23.7,26.914z"/>
		<path fill="#63574B" d="M23.6,25.515c0-0.101,0-0.3,0-0.3l-0.1,0.1c-0.2,0.3-0.6,0.8-0.9,1.3c0-0.1,0-0.1,0.1-0.1l0.1-0.101
			c0,0.101,0,0.101,0,0.301C23.1,26.215,23.4,25.914,23.6,25.515z"/>
		<path fill="#70604E" d="M22.8,25.614l-0.1-1.1h-0.2c0,0.3-0.1,0.6-0.2,1c0,0,0,0.2,0,0.399c0,0.301-0.3,1-0.7,1.7
			c0.1-0.1,0.2-0.2,0.3-0.3c0.1-0.2,0.2-0.4,0.3-0.6C22.4,26.414,22.5,26.015,22.8,25.614z"/>
		<path fill="#63574B" d="M22.3,25.515v-0.101l-0.1,0.101H22c-0.1,0-0.1,0.1-0.1,0.1c0,0.101-0.1,0.3-0.1,0.4c0,0.1,0,0.1,0,0.1
			c0,0.7-0.7,1.8-1.8,3.101c-0.5,0.899-1.1,1.699-1.5,2.199c-0.4,0.301-0.7,0.7-1.1,1.101c0.1-0.101,0.1-0.101,0.2-0.101
			c0.6-0.6,1.2-1.199,1.8-1.899c0.9-1.2,1.6-2.2,2.2-2.9c0.4-0.7,0.7-1.399,0.7-1.7C22.3,25.715,22.3,25.515,22.3,25.515z"/>
		<path fill="#776857" d="M21.7,25.614c-0.1-0.1-0.2-0.1-0.2-0.1h-0.2c0,0.6-0.3,1.399-0.8,2.3c-0.5,0.8-1.2,1.7-2.1,2.5
			c-0.4,0.3-0.8,0.7-1.3,1.1c-0.3,0.2-0.7,0.601-1.2,0.801c-0.2,0.199-0.4,0.3-0.6,0.5c-0.7,0.399-1.3,0.8-1.9,1.199
			c-1.4,0.7-2.1,1.2-2.3,1.301H11l0,0c0,0.1,0,0.199,0,0.199c0,0.2,0.1,0.2,0.4,0c0.2,0.101,0.5,0,0.8,0c0.4-0.1,0.8-0.3,1.3-0.5
			c0.3-0.199,0.6-0.399,1-0.6c0.2-0.2,0.5-0.3,0.8-0.6c0.2-0.101,0.3-0.2,0.6-0.4c0.5-0.5,1.1-1.1,1.9-1.8
			c0.8-0.8,1.6-1.601,2.2-2.3c1.1-1.301,1.8-2.4,1.8-3.101c0,0,0,0,0-0.1C21.8,25.814,21.8,25.614,21.7,25.614z"/>
		<path fill="#554D45" d="M22.8,26.715c0-0.2,0-0.2,0-0.301l-0.1,0.101c-0.1,0-0.1,0-0.1,0.1c-0.1,0-0.2,0.2-0.3,0.4
			c-0.2,0.1-0.3,0.1-0.4,0.3c-0.1,0.1-0.2,0.2-0.3,0.3c-0.6,0.7-1.3,1.7-2.2,2.9c-0.6,0.7-1.2,1.3-1.8,1.899
			c1.2-0.899,2.2-1.899,3.2-3.1C21.5,28.215,22.2,27.414,22.8,26.715z"/>
		<path fill="#806A50" d="M22.3,27.015c-0.1-0.101-0.1-0.2-0.1-0.3c-0.1,0.199-0.2,0.399-0.3,0.6C22,27.114,22.1,27.114,22.3,27.015
			z"/>
		<path fill="#70604E" d="M24,28.114c0.1,0,0.1,0.2,0.1,0.4c0,0.899-1,2.2-3,4.1c-2.2,2.3-4.4,3.4-6.5,3.4c-0.1,0-0.2,0-0.3,0
			c-0.9,0.399-1.8,0.6-2.7,0.7l2,0.8c2.8-0.5,5.3-1.8,7.4-3.7c0.6-0.6,1.2-1.2,1.6-1.7c0.7-1.2,1.3-2.3,1.7-3c0-0.2,0-0.399,0-0.5
			c0-0.5,0.2-1,0.4-1.399c-0.3,0.399-0.7,0.899-1.1,1.3c-0.9,1.1-1.7,2-2.4,2.899c0.7-0.699,1.6-1.8,2.7-3.3H24z"/>
		<path fill="#776857" d="M24.1,28.515c0-0.2,0-0.4-0.1-0.4h-0.1c-1.1,1.5-2,2.601-2.7,3.3c-0.2,0.101-0.4,0.301-0.6,0.5
			c-0.2,0.2-0.6,0.5-0.9,0.7c-0.7,0.5-1.4,0.9-2.2,1.3c-1.3,0.601-2.7,1.101-4.2,1.601l0.1,0.1c0.3,0.2,0.6,0.3,0.9,0.4
			c0.1,0,0.2,0,0.3,0c2.1,0,4.3-1.101,6.5-3.4C23.1,30.715,24.1,29.414,24.1,28.515z"/>
		<path fill="#806A50" d="M23.6,28.515c-0.1-0.101-0.1-0.3-0.2-0.4c-0.5,0.8-1.1,1.5-1.9,2.3c-1,1-2,1.801-3,2.601
			c0,0-0.1,0.1-0.2,0.2c0.5-0.2,1-0.4,1.4-0.601c0.3-0.2,0.7-0.5,0.9-0.7c0.2-0.199,0.4-0.399,0.6-0.5
			C21.9,30.515,22.7,29.614,23.6,28.515z"/>
		<path fill="#806A50" d="M24.5,30.215c0-0.101,0-0.101,0-0.101c0-0.1,0-0.1,0-0.1c-0.1,0.1-0.2,0.1-0.4,0.3c0,0.2-0.1,0.4-0.2,0.6
			c0.2-0.199,0.4-0.399,0.5-0.5C24.5,30.314,24.5,30.215,24.5,30.215z"/>
		<path fill="#70604E" d="M24.9,29.515c0-0.101,0-0.3,0-0.3s0,0,0.1,0.1c0.5-0.7,0.9-1.4,1.2-2.1c-0.6,0.699-1.2,1.3-1.7,1.899
			c-0.1,0.4-0.2,0.9-0.4,1.2c0.2-0.2,0.3-0.2,0.4-0.3C24.6,29.814,24.7,29.614,24.9,29.515z"/>
		<path fill="#554D45" d="M24.9,29.215c0,0,0,0.199,0,0.3c-0.1,0.1-0.3,0.399-0.4,0.7c0,0,0,0.1-0.1,0.199
			c0.1-0.3,0.4-0.399,0.5-0.699c-0.2,1.199-0.9,2.399-2,3.8c-0.1,0-0.1,0.1-0.2,0.1c-1.6,2.101-3.5,3.5-5.8,3.9c-1,0.5-2,0.7-3.1,1
			c0.1,0,0.2,0,0.3,0h0.1c0.2,0.1,0.3,0.1,0.5,0.1s0.4,0,0.7,0c3,0,5.5-1.399,7.5-4.1c0.5-0.8,1-1.4,1.3-2.101
			c0.4-0.899,0.7-1.5,0.8-2.199c0-0.101,0-0.2,0-0.301c0-0.1,0-0.199,0-0.199c0-0.2,0-0.301,0-0.4
			C24.9,29.215,24.9,29.215,24.9,29.215z"/>
		<path fill="#70604E" d="M25,29.914c0,0.101,0,0.2,0,0.301v0.8c0,0.399-0.1,1-0.2,1.5c0.5-0.7,0.8-1.4,1.1-1.9
			c0.4-1,0.6-1.7,0.6-2.399c-0.1,0-0.5,0.699-1.2,1.699c0,0.101-0.2,0.2-0.2,0.301c0-0.101,0-0.101,0-0.2c0-0.2,0-0.4,0.1-0.5
			C25.1,29.614,25,29.715,25,29.914z"/>
		<path fill="#806A50" d="M25.1,30.015c0,0.1,0,0.1,0,0.2c0-0.101,0.2-0.2,0.2-0.301C25.3,29.914,25.2,30.015,25.1,30.015z"/>
		<path fill="#63574B" d="M24.7,28.215c-0.2,0.3-0.2,0.5-0.4,0.899c-0.4,0.7-1,1.8-1.7,3c-0.1,0.3-0.2,0.5-0.4,0.8
			c0.5-0.5,1.1-1.199,1.7-2c0.1-0.199,0.2-0.399,0.2-0.6c0.2-0.3,0.3-0.8,0.4-1.2C24.5,28.814,24.6,28.515,24.7,28.215z"/>
		<path fill="#806A50" d="M10.8,34.015c0.1-0.101,0.2-0.101,0.3-0.2H11c0.6-0.7,1.4-1.5,2.2-2.4c-0.3,0.101-0.6,0.301-0.8,0.5
			c-1,0.601-1.8,1.101-2.4,1.5c-0.6,0-1.2,0.101-1.7,0.101c0.1,0,0.2,0,0.2,0C9.3,33.715,10,33.914,10.8,34.015z"/>
		<path fill="#806A50" d="M11.4,35.414c-0.3,0.2-0.4,0.2-0.4,0c-0.5,0.101-1,0.301-1.5,0.5l0.7,0.301c0.8-0.2,1.6-0.5,2.3-0.801
			c-0.1,0-0.2,0-0.3,0C11.9,35.414,11.6,35.515,11.4,35.414z"/>
		<path fill="#776D63" d="M11,35.414c0,0,0-0.1,0-0.199l0,0c-1.1,0.3-1.8,0.399-2.1,0.399l-0.4,0.101c0,0.399,0.3,0.5,0.9,0.199h0.1
			C10,35.715,10.5,35.515,11,35.414z"/>
		<path fill="#806A50" d="M11,35.215h0.1c-0.8-0.101-1.6-0.4-2.2-0.7c-0.5-0.4-0.9-0.601-1.3-0.9c-0.1,0-0.3,0.101-0.5,0.101
			c-0.3,0.199-0.5,0.399-0.6,0.8c-0.3,0.1-0.6,0.1-1,0.1c-1-0.6-1.7-0.899-2.1-0.899c-0.3,0-0.4,0-0.5,0.1l-0.1,0.1
			c0,0.101,0.2,0.2,0.7,0.7c-0.3-0.1-0.5-0.1-0.6-0.1l0.1,0.2l0,0c1.1,0.6,1.9,1.199,2.5,1.8c0.3,0.3,0.6,0.6,1,1
			c3.1,2.2,6.5,3.3,10.3,3.3c3.2,0,5.7-1.4,7.5-4.4c1.1-1.899,1.6-3.5,1.6-4.899c0-0.4,0-0.601,0-0.9c-0.3,0.5-0.6,1.2-1.1,1.9
			c-0.3,1.1-0.9,2.3-1.7,3.6c-1.6,2.601-3.5,4-5.6,4c-0.2,0-0.7-0.2-1.5-0.5c-0.9,0.3-1.7,0.4-2.7,0.4c-1.8,0-3.2-0.5-4.2-1.3
			c-0.5-0.4-0.7-0.801-0.8-1.2c-0.3-0.101-0.5-0.3-0.5-0.4c0-0.5-0.2-1-0.5-1.399c0,0,0.3,0.1,0.8,0.3c0.3,0.1,0.5,0.2,0.7,0.2
			c-0.5-0.301-0.8-0.601-0.8-0.7l0.1-0.101l0.8,0.2C9.2,35.614,9.9,35.515,11,35.215z"/>
		<path fill="#70604E" d="M12.2,35.414c0.1,0,0.2,0,0.3,0c0.4-0.199,0.9-0.3,1.3-0.5c-0.1,0-0.2,0-0.3,0
			C13,35.114,12.6,35.314,12.2,35.414z"/>
		<path fill="#70604E" d="M15.3,33.715c-0.3,0.3-0.6,0.399-0.8,0.6c0.4-0.2,0.9-0.4,1.4-0.7C15.6,33.614,15.5,33.715,15.3,33.715z"
			/>
		<path fill="#63574B" d="M13.4,35.614l-0.1-0.1c1.5-0.5,2.9-1,4.2-1.601c0.2-0.3,0.5-0.399,0.8-0.699c0.1-0.101,0.2-0.2,0.2-0.2
			c0.4-0.4,0.8-0.7,1.1-1c-0.1,0-0.2,0.1-0.3,0.1c-1.9,1.9-3.8,2.8-5.5,2.8c-0.4,0.2-0.9,0.301-1.3,0.5
			c-0.7,0.301-1.5,0.601-2.3,0.801l1.4,0.5c0.9-0.101,1.8-0.301,2.7-0.7C14,35.914,13.7,35.814,13.4,35.614z"/>
		<path fill="#554D45" d="M13.5,34.914c0.1,0,0.2,0,0.3,0c1.7,0,3.6-0.899,5.5-2.8c-1,0.601-2.2,1.101-3.4,1.5
			c-0.5,0.3-1,0.5-1.4,0.7C14.1,34.515,13.8,34.715,13.5,34.914z"/>
		<path fill="#554D45" d="M8.9,35.614l-0.8-0.2L8,35.515c0,0.1,0.3,0.399,0.8,0.7c0.3,0.3,0.8,0.5,1.5,0.899
			c0.3,0.3,0.7,0.4,1.1,0.601c0.7,0.399,1.5,0.6,2.3,0.8c0.6-0.3,1.1-0.4,1.6-0.7c-0.3,0-0.4,0-0.7,0h-0.1l-0.2-0.1l-0.7-0.2l-2-0.8
			l-1.4-0.5l-0.7-0.301H9.4c-0.6,0.301-0.9,0.2-0.9-0.199L8.9,35.614z"/>
		<path fill="#70604E" d="M8.8,36.215c-0.2,0-0.4-0.101-0.7-0.2c-0.5-0.2-0.8-0.3-0.8-0.3c0.3,0.399,0.5,0.899,0.5,1.399
			c0,0.101,0.2,0.3,0.5,0.4c0.1,0.399,0.3,0.8,0.8,1.2c1,0.8,2.4,1.3,4.2,1.3c1,0,1.8-0.101,2.7-0.4c-0.1,0-0.1,0-0.2-0.1
			c1.1-0.2,2.1-0.5,3.1-1c1.5-0.8,2.9-2,4.1-3.601c0.5-0.699,0.9-1.5,1.2-2.5c-0.3,0.7-0.8,1.301-1.3,2.101c-2,2.7-4.5,4.1-7.5,4.1
			c-0.3,0-0.5,0-0.7,0c-0.2,0.101-0.6,0.101-0.8,0.2l-0.1-0.1c0.1-0.101,0.2-0.101,0.4-0.2h-0.1c-0.1,0-0.2,0-0.2,0
			c-0.1,0-0.3,0-0.4,0c-1.2,0-2.4-0.3-3.5-0.8c0.3,0,0.5,0,0.9,0c0.1,0,0.4,0,0.5,0c-0.4-0.2-0.8-0.301-1.1-0.601
			C9.6,36.715,9.1,36.515,8.8,36.215z"/>
		<path fill="#806A50" d="M14.6,37.814c0.3,0,0.4,0,0.7,0c2.2-1.1,4.3-2.4,6.1-4.1c0.2-0.2,0.5-0.5,0.8-0.801
			c0.2-0.3,0.3-0.5,0.4-0.8c-0.4,0.5-1,1.101-1.6,1.7c-2.1,1.9-4.6,3.2-7.4,3.7l0.7,0.2C14.4,37.715,14.5,37.715,14.6,37.814z"/>
		<path fill="#70604E" d="M14.5,37.814h0.1c-0.1-0.1-0.2-0.1-0.3-0.1L14.5,37.814z"/>
		<path fill="#806A50" d="M13.9,38.515c0,0,0.1,0,0.2,0c-0.1,0-0.2,0-0.3,0s-0.2,0-0.3,0C13.6,38.515,13.8,38.515,13.9,38.515z"/>
		<path fill="#63574B" d="M14.2,38.515c-0.2,0.1-0.3,0.1-0.4,0.2l0.1,0.1c0.2-0.1,0.6-0.1,0.8-0.2
			C14.5,38.614,14.4,38.614,14.2,38.515z"/>
		<path fill="#806A50" d="M13.5,38.515c0,0,0.1,0,0.2,0c-0.8-0.2-1.6-0.4-2.3-0.8c-0.1,0-0.4,0-0.5,0c-0.4,0-0.6,0-0.9,0
			C11.1,38.215,12.3,38.515,13.5,38.515z"/>
		<path fill="#776D63" d="M13.7,38.515c-0.1,0-0.2,0-0.2,0c0.1,0,0.2,0,0.3,0c1.1-0.3,2.1-0.5,3.1-1c1.6-0.601,3.2-1.601,4.6-2.9
			c0.5-0.399,1-0.7,1.4-1.1c1.1-1.4,1.8-2.601,2-3.8c-0.1,0.3-0.4,0.399-0.5,0.699c-0.1,0.101-0.3,0.301-0.5,0.5
			c-0.6,0.801-1.2,1.5-1.7,2c-0.3,0.301-0.6,0.601-0.8,0.801c-1.8,1.699-3.9,3-6.1,4.1C14.8,38.114,14.3,38.215,13.7,38.515z"/>
		<path fill="#63574B" d="M24.8,32.515c0.1-0.5,0.2-1.101,0.2-1.5v-0.8c-0.1,0.699-0.4,1.3-0.8,2.199c-0.3,1-0.7,1.801-1.2,2.5
			c0,0.2-0.1,0.2-0.2,0.4c-0.9,1.3-2.3,2.4-3.9,3.2c-1,0.5-2,0.8-3.1,1c0.1,0.1,0.1,0.1,0.2,0.1c0.8,0.3,1.3,0.5,1.5,0.5
			c2.1,0,4-1.399,5.6-4C23.9,34.814,24.5,33.614,24.8,32.515z"/>
		<path fill="#63574B" d="M22.7,33.614c0.1,0,0.1-0.1,0.2-0.1c-0.4,0.399-0.9,0.7-1.4,1.1c-1.4,1.3-3,2.3-4.6,2.9
			C19.2,37.114,21.1,35.715,22.7,33.614z"/>
		<path fill="#806A50" d="M22.8,35.314c0.1-0.2,0.2-0.2,0.2-0.4c-1.2,1.601-2.6,2.801-4.1,3.601
			C20.5,37.715,21.9,36.614,22.8,35.314z"/>
		<path fill="#70604E" d="M19.7,32.614c-0.4,0.2-0.9,0.4-1.4,0.601c-0.3,0.3-0.6,0.399-0.8,0.699C18.3,33.515,19,33.114,19.7,32.614
			z"/>
		<path fill="#70604E" d="M17.8,31.515c-0.8,0.7-1.4,1.3-1.9,1.8c0.5-0.2,1-0.5,1.5-0.8c0.4-0.4,0.7-0.8,1.1-1.101
			c0.4-0.5,1-1.3,1.5-2.199C19.4,29.914,18.6,30.715,17.8,31.515z"/>
		<path fill="#70604E" d="M16.3,31.914c-0.2,0.101-0.3,0.2-0.4,0.301c0.5-0.2,0.9-0.601,1.2-0.801
			C16.9,31.515,16.5,31.715,16.3,31.914z"/>
		<path fill="#63574B" d="M31.7,24.015h-0.2c0,0.8,0.101,1.6,0.4,2.5c0.1,0.399,0.3,0.8,0.6,1.2c0.3,0.8,0.8,1.399,1.4,2.1
			c2,1.9,3.1,3,3.399,3.3c0.5,0.4,1,0.8,1.5,1.101c-1-0.7-1.899-1.601-2.8-2.5c-1.2-1.301-2.1-2.5-2.6-3.5
			c-0.601-0.801-1.101-1.601-1.4-2.2h0.2c0.2,0.1,0.3,0.3,0.5,0.5c-0.1,0-0.1-0.101-0.1-0.2c0.1-0.2,0.1-0.4,0.1-0.6
			c-0.1-0.2-0.2-0.2-0.2-0.301C32.2,24.814,31.9,24.314,31.7,24.015z"/>
		<path fill="#806A50" d="M29,26.414c-0.1,0.101-0.2,0.301-0.2,0.601c0,2.1,0.601,4.399,1.801,6.899c2.199,4.2,5.699,6.4,10.3,6.4
			c2.6,0,4.6-0.6,6.2-1.8c0.3-0.2,0.5-0.4,0.8-0.5c0.5-0.4,1.2-0.8,2-1.3c2.1-1.301,3.2-2,3.2-2.2s0-0.4-0.101-0.4h-0.1
			c-2.101,0.101-5-0.5-8.4-1.899c-1.1-0.5-2.1-0.9-2.899-1.2c-0.801-1.4-1.801-2.7-3-4c-0.801-1-1.601-1.7-2.301-2.101
			c0.5,0.601,1.5,1.7,2.9,3.4c1.4,1.6,2.2,2.8,2.3,3.9c1.4,1,3.2,1.899,5.101,2.6c-0.7,0.2-1.2,0.3-1.7,0.3c0,0-0.101,0-0.2,0
			s-0.1,0-0.2,0c0,0.101,0,0.101,0,0.101c0.3,0.199,0.5,0.3,0.9,0.3c0.6,0.2,1.3,0.3,2.1,0.5v0.1c0,0-0.399,0.101-1,0.2
			c-0.2,0.1-0.399,0.1-0.6,0.1c0,0.101-0.3,0.101-0.5,0.101c0,0,0,0-0.101,0c0,0-0.1,0-0.199,0c-0.101,0-0.2,0-0.301,0
			c0.7,0.399,1.301,0.899,2.101,1.3c0,0.1,0,0.1,0,0.1s0.1-0.199,0.3-0.199c-0.3,0.5-1,1-2.1,1.5
			c-1.301,0.699-2.801,0.899-4.5,0.899c-3,0-5.5-1.2-7.301-3.7c-0.5-0.5-1-1.199-1.5-1.899c-1.3-1.7-1.899-3.101-1.899-4.101
			l0.1-0.5c-0.2-0.399-0.5-0.899-0.7-1.399c0.2,0.2,0.5,0.5,0.7,0.7l0,0h0.2c-0.1-0.101-0.1-0.2-0.1-0.2c-0.2-0.7-0.4-1.4-0.4-1.9
			c0.1-0.2,0.1-0.5,0.1-0.6H29.9c0.2,0.6,0.399,1.2,0.6,1.8c0.101-0.2,0.3-0.3,0.4-0.3c0,0,0,0.1,0,0.3s0,0.4,0.2,0.8
			c0.1,0.2,0.199,0.4,0.3,0.601h0.1c0,0,0,0,0,0.1c0.601,1.1,1.101,1.9,1.4,2.6c1.6,1.7,3.899,3.2,6.8,4.601l-0.1,0.1
			c-0.101-0.1-0.2-0.1-0.301-0.1c1.2,0.399,2.5,0.7,4,1.1c0,0,0.101,0,0,0c0.301,0,0.7,0,1.2,0c-0.1,0-0.2-0.1-0.399-0.1
			c-3.5,0-6.601-1.8-9.301-5.4c-0.3-0.399-0.5-0.899-0.8-1.2c-1.1-1-1.6-1.699-1.6-1.899c0.1-0.3,0.1-0.4,0.1-0.4s0.2,0.2,0.4,0.4
			c-0.3-0.4-0.5-1-0.7-1.4c-0.3-0.6-0.6-0.899-0.6-1H32c0.5,1.101,1.101,2.3,2.101,3.5c-0.801-1.1-1.301-2.1-1.601-2.899
			c-0.3-0.4-0.5-0.801-0.6-1.2c-0.3,0.399-0.4,0.899-0.601,1.399c-0.1-0.399-0.3-0.699-0.5-1c-0.399-0.5-0.8-0.8-1.199-0.8
			C29.4,26.114,29.2,26.215,29,26.414z M50.101,35.614c-0.2,0.101-0.4,0.3-0.601,0.5c0.101-0.2,0.101-0.399,0.2-0.6
			c0.2,0,0.3,0,0.6,0L50.101,35.614z"/>
		<path fill="#776D63" d="M29.8,26.515c0,0.1,0,0.399-0.1,0.6c0,0.5,0.2,1.2,0.4,1.9c0.399,0.6,0.8,1.399,1.399,2.1
			c-0.399-0.5-0.5-0.7-0.5-0.8l0.2-0.1c0.2,0.3,0.4,0.5,0.7,0.899c-0.5-0.8-1-1.7-1.4-2.7l0,0v-0.1c-0.2-0.6-0.399-1.2-0.6-1.8H29.8
			z"/>
		<path fill="#806A50" d="M30.601,28.414c-0.101,0-0.101,0-0.101,0l0,0H30.601z"/>
		<path fill="#63574B" d="M30.5,28.414c0,0,0,0,0.101,0c0,0,0,0,0.1,0c0.2,0.2,0.2,0.5,0.4,0.7c-0.2-0.399-0.2-0.6-0.2-0.8
			s0-0.3,0-0.3c-0.101,0-0.3,0.1-0.4,0.3V28.414z"/>
		<path fill="#554D45" d="M30.601,28.414H30.5c0.4,1,0.9,1.9,1.4,2.7c0.2,0.3,0.5,0.601,0.8,1l0.2,0.101c0,0.1,0,0.199,0,0.199
			c-0.3-0.699-0.8-1.5-1.4-2.6c0-0.1,0-0.1,0-0.1h-0.1c-0.101-0.2-0.2-0.4-0.3-0.601c-0.2-0.2-0.2-0.5-0.4-0.7
			C30.601,28.414,30.601,28.414,30.601,28.414z"/>
		<path fill="#554D45" d="M30.101,29.015c0,0,0,0.1,0.1,0.2c0.1,0.399,0.3,0.899,0.6,1.5c0.101,0.199,0.2,0.399,0.4,0.5l-0.1,0.399
			c0,0,0.399,0.8,1,2.3c0.3,0.601,0.5,1.2,0.899,2c0.101,0.2,0.2,0.301,0.3,0.5c1.801,2.5,4.301,3.7,7.301,3.7
			c1.699,0,3.199-0.2,4.5-0.899c1.1-0.5,1.8-1,2.1-1.5c-0.2,0-0.3,0.199-0.3,0.199c-0.4,0.2-0.8,0.4-1.101,0.601
			c-0.199,0-0.399,0.1-0.5,0.1c-0.5,0.2-1,0.4-1.8,0.5c-0.6,0-1.3,0.101-2.1,0.2c-0.5,0-1.101,0-1.8,0c-2.2,0-4.101-0.8-5.5-2.3
			c-0.4-0.5-0.7-0.9-1.101-1.5c-0.1-0.3-0.2-0.601-0.399-0.9c-0.2-0.399-0.301-0.8-0.5-1.2c-0.2-0.5-0.2-0.899-0.301-1.399
			c0.101,0.2,0.301,0.399,0.5,0.6c-0.399-0.6-0.699-1.1-0.8-1.5C30.9,30.414,30.5,29.614,30.101,29.015z"/>
		<path fill="#63574B" d="M30,29.215L30,29.215v0.699l-0.1,0.5c0,1,0.6,2.4,1.899,4.101c0.5,0.7,1,1.399,1.5,1.899
			c-0.1-0.199-0.199-0.3-0.3-0.5c-0.399-0.8-0.6-1.399-0.899-2c-0.101-0.199-0.2-0.3-0.2-0.399c0-0.101-0.4-1.101-1.101-2.8
			c-0.3-0.601-0.5-1.101-0.6-1.5H30z"/>
		<path fill="#70604E" d="M30,29.914v-0.699c-0.2-0.2-0.5-0.5-0.7-0.7C29.5,29.015,29.8,29.515,30,29.914z"/>
		<path fill="#554D45" d="M35.7,24.515c0,0,0,0,0,0.1c0,0.2,0.1,0.5,0.2,0.7c0.3,0.7,0.6,1.2,1,1.8c0.3,0.4,0.7,1,1.2,1.5
			c0.8,0.9,1.8,2,3,3.3c0.199,0.2,0.3,0.2,0.399,0.4c0-0.1,0-0.1,0-0.1c-0.1-1.101-0.899-2.301-2.3-3.9c-1.4-1.7-2.4-2.8-2.9-3.4
			c-0.199-0.3-0.3-0.399-0.399-0.5L35.7,24.515z"/>
		<path fill="#806A50" d="M35.7,24.614c-0.1-0.1-0.2-0.1-0.3-0.1c0.1,0.2,0.3,0.6,0.5,0.8C35.8,25.114,35.7,24.814,35.7,24.614z"/>
		<path fill="#70604E" d="M35.9,25.314c-0.2-0.2-0.4-0.6-0.5-0.8c-0.3-0.4-0.5-0.9-0.7-1.3c-0.3,0.199-0.6,0.5-0.6,1.3l0,0
			c0,0.6,0.399,1.399,0.899,2.5c-0.3-0.4-0.5-0.601-0.8-0.8H34c0.5,1.399,1.9,3.3,4.101,5.8c1,0.7,2.3,1.3,3.8,1.8
			c-0.2-0.1-0.3-0.2-0.4-0.3c-0.3-0.2-0.5-0.4-0.7-0.7c-0.6-0.6-1.199-1.2-1.8-1.8c-0.6-0.8-2.1-2.8-4.5-5.9
			c0.101-0.1,0.101-0.1,0.101-0.2c0.8,0.7,1.699,1.601,2.699,2.801c-0.199-0.2-0.3-0.4-0.399-0.601
			C36.5,26.515,36.2,26.015,35.9,25.314z"/>
		<path fill="#806A50" d="M34.101,24.515L34.101,24.515c-0.4,0-0.801,0.3-1.2,0.7c0,0.199,0,0.3,0.1,0.399v-0.399h0.2
			c0.6,1,1.6,2.8,2.9,5.1c0.6,0.7,1.3,1.2,2,1.7c-2.2-2.5-3.601-4.4-4.101-5.8h0.2c0.3,0.199,0.5,0.399,0.8,0.8
			C34.5,25.914,34.101,25.114,34.101,24.515z"/>
		<path fill="#63574B" d="M34.601,24.914c0,0.101,0,0.101-0.101,0.2c2.4,3.101,3.9,5.101,4.5,5.9c0.601,0.6,1.2,1.2,1.8,1.8
			c0.4,0.4,0.801,0.7,1.2,1.1c0.9,0.2,1.9,0.5,2.9,0.7v0.2c0,0.1-0.101,0.2-0.2,0.3c0.1,0,0.2,0,0.2,0c0.5,0,1-0.1,1.7-0.3
			c-1.9-0.7-3.7-1.6-5.101-2.6c0,0,0,0,0,0.1c-0.1-0.2-0.2-0.2-0.399-0.4c-0.7-0.5-1.5-1.199-2.101-1.899
			c-0.6-0.9-1.2-1.601-1.7-2.3C36.3,26.515,35.4,25.614,34.601,24.914z"/>
		<path fill="#70604E" d="M32.8,25.114c-0.199,0-0.3,0.101-0.3,0.3c0,0.101,0.101,0.101,0.2,0.301l0.2-0.101l0.1,0.101v-0.101
			c-0.1-0.1-0.1-0.2-0.1-0.399C32.8,25.215,32.8,25.114,32.8,25.114z"/>
		<path fill="#776857" d="M33,25.215v0.399v0.101l-0.1,0.399c0,0,0.6,0.9,1.6,2.5c0.3,0.601,0.7,1.4,1.101,2.101
			c0.199,0.199,0.3,0.3,0.3,0.399c1.2,1.2,2.6,2.3,3.899,3.3c0.101,0,0.101,0,0.2,0.101c1.3,0.5,2.5,0.8,3.9,0.8
			c0.1,0,0.2,0,0.399-0.1c0.101,0,0.101,0,0.2,0c0,0,0,0,0-0.101c0.101,0,0.101,0,0.2,0c0.1-0.1,0.2-0.2,0.2-0.3v-0.2
			c-1-0.2-2-0.5-2.9-0.7c0,0-0.1,0-0.1-0.1c-1.5-0.5-2.8-1.1-3.8-1.8c-0.7-0.5-1.4-1-2-1.7c-1.301-2.3-2.301-4.1-2.9-5.1H33z"/>
		<path fill="#70604E" d="M32,27.114h-0.399c0,0.101,0.3,0.4,0.6,1c-0.1-0.1-0.2-0.2-0.2-0.399h0.2c1.7,3.3,4.2,5.699,7.4,7.399
			c0.3,0,0.5,0.101,0.899,0.101c-0.6-0.2-1.2-0.601-1.7-1c-0.5-0.301-1-0.7-1.5-1.101c-0.3-0.3-1.399-1.399-3.399-3.3
			c-0.601-0.7-1.101-1.3-1.4-2.1c0.3,0.8,0.8,1.8,1.601,2.899C33.101,29.414,32.5,28.215,32,27.114z"/>
		<path fill="#776D63" d="M32.7,26.515c-0.2-0.2-0.3-0.4-0.5-0.5H32c0.3,0.6,0.8,1.399,1.4,2.2c0.5,0.8,1.2,1.5,2,2.3
			c0.1,0.2,0.3,0.399,0.5,0.6c0-0.1-0.101-0.2-0.3-0.399c-0.4-0.7-0.801-1.5-1.101-2.101C33.7,27.814,33.101,27.114,32.7,26.515z"/>
		<path fill="#554D45" d="M32.601,26.314c0,0.1,0,0.2,0.1,0.2c0.4,0.6,1,1.3,1.8,2.1c-1-1.6-1.6-2.5-1.6-2.5l0.1-0.399l-0.1-0.101
			l-0.2,0.101C32.7,25.914,32.7,26.114,32.601,26.314z"/>
		<path fill="#70604E" d="M32.5,29.114c0,0,0,0.101-0.1,0.4c0,0.2,0.5,0.899,1.6,1.899c0.3,0.301,0.5,0.801,0.8,1.2
			c2.7,3.601,5.801,5.4,9.301,5.4c0.199,0,0.3,0.1,0.399,0.1c-0.5,0-0.899,0-1.2,0c0,0-0.3,0-0.5,0c-0.399,0-0.899,0-1.399,0
			c-0.3,0-0.5,0-0.8-0.1c-0.601,0.1-1.2,0.2-2,0.2c-1.7,0-3.101-0.7-4.301-2.101c-0.5-0.399-0.899-0.7-1.3-1.1
			c-0.2-0.4-0.5-0.9-0.899-1.601c0.199,0.4,0.3,0.801,0.5,1.2c0.899,1.3,2.199,2.4,3.699,3.2c-0.699-0.1-1.3-0.3-1.899-0.7
			c1.5,1.3,3.899,2,7,2.2c0.8-0.1,1.5-0.2,2.1-0.2c0.2,0,0.4-0.1,0.5-0.2c0.5-0.3,0.9-0.399,1.101-0.5c0.3,0,0.399,0,0.699,0.101
			c0.301-0.2,0.7-0.4,1.101-0.601c0,0,0,0,0-0.1c-0.8-0.4-1.4-0.9-2.101-1.3c-1.3-0.101-2.5-0.4-3.8-1c0.2,0.2,0.3,0.3,0.5,0.5
			c0,0,0.101,0,0.3,0.1c-0.199-0.1-0.3-0.1-0.3-0.1c0.3,0.2,0.5,0.5,0.9,0.7c-1.101-0.301-2.101-0.801-3-1.5c0,0,0,0-0.101,0
			c-1.6-0.7-3-1.7-4.3-3.101c-0.8-0.7-1.5-1.6-2.1-2.6C32.7,29.314,32.5,29.114,32.5,29.114z"/>
		<path fill="#776857" d="M32.2,27.715H32c0,0.199,0.101,0.3,0.2,0.399c0.2,0.4,0.4,1,0.7,1.4c0.6,1,1.3,1.899,2.1,2.6
			c1.3,1.4,2.7,2.4,4.3,3.101c0.101,0,0.101,0,0.101,0c0.6,0.3,1.399,0.5,2.1,0.8c0,0,0.101,0,0.3,0.1c-0.199-0.1-0.3-0.1-0.3-0.1
			c-0.7-0.3-1.3-0.601-1.899-0.9C36.4,33.414,33.9,31.015,32.2,27.715z"/>
		<path fill="#70604E" d="M31.101,31.614l0.1-0.399c-0.2-0.101-0.3-0.301-0.4-0.5c0.7,1.699,1.101,2.699,1.101,2.8
			c0,0.1,0.1,0.2,0.2,0.399C31.5,32.414,31.101,31.614,31.101,31.614z"/>
		<path fill="#776857" d="M31,30.314c0,0.1,0.101,0.3,0.5,0.8c0.101,0.4,0.4,0.9,0.8,1.5c0.101,0.2,0.2,0.5,0.301,0.7
			c0.199,0.2,0.399,0.6,0.5,0.9c0.699,0.8,1.399,1.399,2.3,2c0.399,0.3,0.899,0.5,1.399,0.8c1.101,0.5,2.2,0.8,3.601,0.899
			c0.2,0,0.5,0,0.899,0c0.5,0,0.601,0,0.5-0.1c-3.3-0.6-5.699-1.7-7.3-3.3c-0.1-0.101-0.1-0.101-0.1-0.101
			c-0.601-0.899-1.101-1.5-1.5-2.199l-0.2-0.101c-0.3-0.399-0.6-0.7-0.8-1c-0.3-0.399-0.5-0.6-0.7-0.899L31,30.314z"/>
		<path fill="#806A50" d="M31.8,32.015c0.101,0.5,0.101,0.899,0.301,1.399c0.399,0.7,0.699,1.2,0.899,1.601
			c0.4,0.399,0.8,0.7,1.3,1.1c-0.5-0.6-0.899-1.2-1.399-2c0-0.2-0.101-0.6-0.3-0.8c-0.101-0.2-0.2-0.5-0.301-0.7
			C32.101,32.414,31.9,32.215,31.8,32.015z"/>
		<path fill="#776D63" d="M32.9,32.414c0,0,0-0.1,0-0.199c0.399,0.699,0.899,1.3,1.5,2.199c1.5,1.301,3.2,2.2,4.899,2.601
			c0.101,0,0.2,0,0.301,0.1l0.1-0.1C36.8,35.614,34.5,34.114,32.9,32.414z"/>
		<path fill="#63574B" d="M32.601,34.614c0.199,0.3,0.3,0.601,0.399,0.9c0.4,0.6,0.7,1,1.101,1.5c0.1,0,0.199,0.1,0.3,0.1
			c0.6,0.4,1.2,0.601,1.899,0.7C34.8,37.015,33.5,35.914,32.601,34.614z"/>
		<path fill="#806A50" d="M35.4,36.215v0.1c0.399,0.2,0.899,0.5,1.399,0.7C36.3,36.715,35.8,36.515,35.4,36.215z"/>
		<path fill="#63574B" d="M35.4,36.314v-0.1c-0.9-0.601-1.601-1.2-2.3-2c-0.101-0.301-0.301-0.7-0.5-0.9c0.199,0.2,0.3,0.6,0.3,0.8
			c0.5,0.8,0.899,1.4,1.399,2c1.2,1.4,2.601,2.101,4.301,2.101c0.8,0,1.399-0.101,2-0.2H40.8c-0.199-0.101-0.3-0.101-0.399-0.101
			c-1.4-0.1-2.5-0.399-3.601-0.899C36.3,36.814,35.8,36.515,35.4,36.314z"/>
		<path fill="#554D45" d="M34.4,34.414c0,0,0,0,0.1,0.101c1.601,1.6,4,2.7,7.3,3.3c0.101,0.1,0,0.1-0.5,0.1
			c-0.399,0-0.699,0-0.899,0c0.1,0,0.2,0,0.399,0.101c0.2,0,0.4,0,0.601,0.1c0.5,0,1,0,1.399,0c0.2,0,0.5,0,0.5,0c0.101,0,0,0,0,0
			c-1.5-0.399-2.8-0.7-4-1.1C37.601,36.614,35.9,35.715,34.4,34.414z"/>
		<path fill="#806A50" d="M34.4,37.114c-0.101,0-0.2-0.1-0.3-0.1c1.399,1.5,3.3,2.3,5.5,2.3c0.699,0,1.3,0,1.8,0
			C38.3,39.114,35.9,38.414,34.4,37.114z"/>
		<path fill="#554D45" d="M35.4,30.515c-0.8-0.8-1.5-1.5-2-2.3c0.5,1,1.399,2.199,2.6,3.5c0.9,0.899,1.8,1.8,2.8,2.5
			c0.5,0.399,1.101,0.8,1.7,1c0.101,0.199,0.4,0.3,0.5,0.3c1.3,0.6,2.5,0.899,3.8,1c0.101,0,0.2,0,0.301,0c0.1,0,0.199,0,0.199,0
			c0.2,0,0.4,0,0.601-0.101c0.2,0,0.399,0,0.6-0.1c0.601-0.1,1-0.2,1-0.2v-0.1c-0.8-0.2-1.5-0.3-2.1-0.5c-0.4,0-0.8-0.101-1.101-0.3
			c-0.199,0.1-0.3,0.1-0.399,0.1c-1.4,0-2.601-0.3-3.9-0.8c0.2,0,0.4,0.1,0.5,0.3c-0.2-0.2-0.5-0.3-0.7-0.4
			c-1.3-1-2.699-2.1-3.899-3.3C35.7,30.914,35.5,30.715,35.4,30.515z"/>
		<path fill="#806A50" d="M37.3,27.715c0.5,0.699,1.101,1.399,1.7,2.3c0.601,0.7,1.4,1.399,2.101,1.899c-1.2-1.3-2.2-2.399-3-3.3
			c-0.5-0.5-0.9-1.1-1.2-1.5C37,27.314,37.101,27.515,37.3,27.715z"/>
		<path fill="#806A50" d="M41.5,36.015c-0.2-0.2-0.3-0.3-0.5-0.5c-0.1,0-0.399-0.101-0.5-0.3c-0.399,0-0.6-0.101-0.899-0.101
			C40.2,35.414,40.8,35.715,41.5,36.015z"/>
		<path fill="#806A50" d="M41.9,33.814c0,0.1,0.1,0.1,0.1,0.1c-0.399-0.399-0.8-0.699-1.2-1.1c0.2,0.3,0.4,0.5,0.7,0.7
			C41.601,33.614,41.7,33.715,41.9,33.814z"/>
		<path fill="#70604E" d="M44.5,35.215c-0.1,0-0.1,0-0.2,0c0.301,0.199,0.7,0.3,1.101,0.3C45,35.515,44.8,35.414,44.5,35.215z"/>
		<path fill="#70604E" d="M45.9,36.414c-0.2,0.101-0.4,0.101-0.601,0.101c0.101,0,0.101,0,0.101,0
			C45.601,36.515,45.9,36.515,45.9,36.414z"/>
		<path fill="#776D63" d="M40,34.515c-0.1-0.101-0.1-0.101-0.2-0.101c0.2,0.101,0.5,0.2,0.7,0.4C40.4,34.614,40.2,34.515,40,34.515z
			"/>
		<path fill="#806A50" d="M40.8,38.015h-0.199c0.3,0.1,0.5,0.1,0.8,0.1C41.2,38.015,41,38.015,40.8,38.015z"/>
		<path fill="#806A50" d="M44,38.914c-0.1,0.101-0.3,0.2-0.5,0.2c0.8-0.1,1.3-0.3,1.8-0.5c0.101,0,0.301-0.1,0.5-0.1
			c-0.3-0.101-0.399-0.101-0.699-0.101C44.9,38.515,44.5,38.614,44,38.914z"/>
		<path fill="#806A50" d="M41.5,36.015c-0.7-0.3-1.5-0.5-2.1-0.8c0.899,0.699,1.899,1.199,3,1.5C42,36.515,41.8,36.215,41.5,36.015z
			"/>
	</g>
	<g>
		<path fill="#534B43" d="M25,21.114l-0.1-0.1c-2.5,0.7-4.7,2-6.4,3.5c-0.7,0.7-1.9,2.1-3.6,4.3c-2.5,3.4-6.1,5.2-10.6,5.2
			c-0.5,0-1.3-0.101-2.4-0.4c-0.1,0-0.3,0-0.4,0c-0.9-0.1-1.4-0.2-1.5-0.2c0.5,0.101,1,0.301,1.5,0.7c0,0,0.1,0.101,0.3,0.2
			c0.3,0.1,0.7,0.2,1.2,0.4c0.6,0.199,1.4,0.199,2.2,0.199c3.1,0,5.6-0.8,7.7-2.399c0.5-0.4,1.6-1.601,3.5-3.7
			c2-2.3,4.1-4.3,6.2-5.8c1.7-1,2.4-1.601,2.4-1.601C25,21.114,25,21.114,25,21.114z"/>
		<path fill="#534B43" d="M25.4,21.914l-0.2-0.3c-1.6,0.601-2.8,1.601-3.8,3.2c-1.5,2.4-2.3,3.8-2.6,4.2c-2.1,2.1-3.3,3.399-3.9,3.7
			c-2.3,1.5-5.3,2.399-8.9,2.399l-1.6-0.1c-0.4-0.101-0.6-0.101-0.8-0.101H3.5c0,0,0,0,0.1,0.101H3.5c0.2,0.1,0.5,0.3,0.8,0.5
			c0.2,0,0.5,0.1,0.7,0.2c0.3,0.199,0.5,0.399,0.9,0.6c2,0.8,4.2,1.3,6.7,1.3c0.1,0,0.3-0.1,0.8-0.1s1.1-0.2,2-0.4
			c0.8-0.1,1.9-0.6,3.1-1.3c1.3-0.7,2.6-1.8,3.9-3.1c1.2-1.301,2.1-2.801,2.7-4.5c1.8-3,1.1-2.5-2.1,1.5c-3.2,4-6.3,6.3-9.2,6.6
			c-3,0.3-5,0.3-5.9,0c-1-0.3-1.4-0.6-1.5-0.6c3.4,0,6.1-0.801,8.5-2.2c1.2-0.8,2.6-2.101,4.1-3.9c0.3-0.3,1.2-1.7,2.9-4.3
			C22.9,23.614,24,22.515,25.4,21.914z"/>
		<path fill="#534B43" d="M24.8,25.715c0.3-0.101,0.6-0.2,1-0.2c0.1-0.8,0.1-1.101,0.1-1.3c0-0.101,0-0.2,0-0.2l-0.1,0.1
			C25.6,24.215,25.3,24.814,24.8,25.715z"/>
		<path fill="#534B43" d="M30.8,21.114c0,0,0,0,0,0.3c0,0,0.7,0.601,2.4,1.601c2.1,1.5,4.2,3.5,6.3,5.8c1.8,2.1,2.9,3.3,3.4,3.7
			c2.1,1.6,4.6,2.399,7.7,2.399c1.5,0,2.699-0.199,3.399-0.6c0.601-0.4,1.2-0.8,1.8-0.9c-0.199,0-0.8,0.101-1.899,0.2
			c-1.101,0.3-1.9,0.4-2.4,0.4c-4.5,0-8.1-1.8-10.6-5.2c-1.7-2.2-2.9-3.6-3.601-4.3c-1.699-1.5-3.8-2.8-6.399-3.5L30.8,21.114z"/>
		<path fill="#534B43" d="M30.601,21.614l-0.101,0.3c1.3,0.601,2.4,1.7,3.4,3.4c1.7,2.6,2.6,4,2.899,4.3
			c1.5,1.8,2.801,3.101,4.101,3.9c2.399,1.399,5.1,2.2,8.5,2.2c0,0-0.5,0.3-1.5,0.6c-0.9,0.3-2.9,0.3-5.9,0
			c-2.899-0.3-6-2.6-9.2-6.6c-3.199-4-3.899-4.5-2.1-1.5c0.6,1.699,1.5,3.199,2.8,4.5c1.2,1.3,2.5,2.399,3.8,3.1
			c1.2,0.7,2.301,1.2,3.2,1.3c0.8,0.2,1.4,0.4,1.9,0.4s0.7,0.1,0.7,0.1c2.6,0,4.8-0.5,6.8-1.3c0.399-0.2,0.6-0.4,0.899-0.6
			c0.7-0.2,1.5-0.5,2-0.7h-0.699c0.199-0.101,0.199-0.101,0.3-0.101h-0.3c-0.101,0-0.301,0-0.601,0.101l-1.7,0.1
			c-3.699,0-6.6-0.899-8.899-2.399c-0.5-0.301-1.8-1.601-3.9-3.7c-0.3-0.4-1.1-1.8-2.6-4.2C33.5,23.215,32.2,22.215,30.601,21.614z"
			/>
		<path fill="#534B43" d="M27.9,27.914c0-0.199-0.1-0.199-0.1-0.199s-0.1,0-0.2,0c0,0,0,0.1,0,0.3c0,0.1,0,0.1,0,0.1
			c-0.6,0.9-1.5,2.8-2.7,5.8c-2.3,3.801-5.3,5.801-8.9,5.801c-3,0-5.4-0.5-7.2-1.301c-1.4-0.899-2.4-1.399-2.9-1.699
			c0.6,0.399,1.6,1.1,2.9,2.3c1.6,1,4,1.5,7.1,1.5c3.1,0,6.1-1.9,9-5.601c1.5-2.199,2.6-3.899,3-5.399c0.5,1.5,1.5,3.2,3,5.399
			c2.899,3.7,5.899,5.601,9,5.601c3.1,0,5.6-0.5,7.1-1.5c1.3-1.2,2.3-1.9,2.9-2.3c-0.5,0.3-1.4,0.8-2.9,1.699
			c-1.899,0.801-4.2,1.301-7.2,1.301c-3.699,0-6.6-2-8.899-5.801c-1.2-3-2.101-4.899-2.7-5.8c0,0,0,0,0-0.1c0-0.2,0-0.3-0.1-0.3H28
			C28,27.715,27.9,27.715,27.9,27.914z"/>
	</g>
	<g>
		<path fill="#F3CA8D" d="M27,0.114c-0.4,0-1.3,1-2.7,3.2s-1.9,3.8-1.7,4.9c0.3,1,0.3,2.5,0.4,4.5c0,1.4,0,2.9,0.1,4.4
			c0,0.5,0,0.9,0.1,1.4c0.2,1.899,0.3,3.1,0.3,3.6c0.1,0.601,0.3,1.601,0.5,3.101c0.1,0.3,0.5,1.399,1.1,3.399
			c0.5,1.5,0.8,2.601,0.9,3.101c0.1,0.199,0.4,0.3,0.5,0.3c0.3,0.1,0.6,0.1,0.9,0.1c0.9,0,2.1-0.899,3.6-2.6
			c1-1.101,1.9-2.3,2.5-3.4c0.9-1.399,2.101-2.7,3.5-4.1c2-1.9,2.9-1.9,2.9-0.2c0,0.3,0,0.7-0.3,1.2
			c-0.301,0.5-0.7,0.899-1.101,0.899c-0.5,0-0.8-0.1-1-0.3c-0.399,0.3-0.7,0.601-1,0.9c1.101,0,1.8,0,1.9,0c0.8,0,1.5-0.9,2.2-2.4
			c0.699-1.3,0.899-2.3,0.899-3c0-2.9-1.6-5-4.899-6.3c-0.301-0.2-0.7-0.3-1.101-0.3c0.9,2.6,1.3,4.3,1.4,5c-0.4-0.9-0.7-2-1-3.4
			c0,0.4,0,0.8,0.2,1.3c0.199,1,0.3,1.6,0.3,1.9c0,0.2,0,0.4,0,0.4s0,0,0,0.1s0,0.1-0.2,0.1c-2.2-5.6-3.5-9.9-3.9-12.9h0.2
			c0.2,0.4,0.8,1.6,1.7,3.9c0.3,0.5,0.4,1.1,0.7,1.6c-0.3-0.8-0.5-1.5-0.8-2.3c-2-6.1-4.2-8.8-6.7-8.1
			C27.5,0.114,27.4,0.114,27,0.114z M26.8,4.814c0.1-0.6,0.2-0.9,0.2-1.2c2.9-0.4,5.4,5.7,7.5,18.3c-1.899,5.2-3.8,7.801-5.6,7.801
			c-0.6,0-1.1-1.601-1.4-4.601c-0.1-1.6-0.1-4-0.1-7.4c0-1.4-0.1-3.4-0.4-6.1c-0.2-2.6-0.4-4.5-0.4-5.7
			C26.6,5.614,26.6,5.214,26.8,4.814z M36.4,15.015c0-1.3,0.6-1.5,1.899-0.5c1.301,1,2,2.1,2,3.5c0,0.3-0.1,0.5-0.199,0.7
			c-0.101,0.3-0.4,0.4-0.801,0.4c-0.5,0-0.8-0.4-1-1c0-0.7-0.1-1.1-0.199-1.1c-0.101-0.4-0.5-0.7-1-1.1S36.4,15.214,36.4,15.015z"/>
		<path fill="#F3D7AD" d="M27,3.614c0,0.3-0.1,0.6-0.2,1.2c-0.2,0.4-0.2,0.8-0.2,1.1c0,1.2,0.2,3.1,0.4,5.7c0.3,2.7,0.4,4.7,0.4,6.1
			c0,3.4,0,5.8,0.1,7.4c0.3,3,0.8,4.601,1.4,4.601c1.8,0,3.7-2.601,5.6-7.801C32.4,9.314,29.9,3.214,27,3.614z M31.601,15.714
			c-0.101-0.1-0.101-0.1-0.101-0.1S31.5,15.614,31.601,15.714z"/>
		<path fill="#F3CA8D" d="M31.601,15.714c-0.101-0.1-0.101-0.1-0.101-0.1S31.5,15.614,31.601,15.714z"/>
		<path fill="#F3D7AD" d="M38.3,14.515c-1.3-1-1.899-0.8-1.899,0.5c0,0.2,0.2,0.5,0.7,0.9s0.899,0.7,1,1.1
			c0.1,0,0.199,0.4,0.199,1.1c0.2,0.6,0.5,1,1,1c0.4,0,0.7-0.1,0.801-0.4c0.1-0.2,0.199-0.4,0.199-0.7
			C40.3,16.614,39.601,15.515,38.3,14.515z"/>
		<path fill="#F2C174" d="M24.3,3.314c1.4-2.2,2.3-3.2,2.7-3.2c0.4,0,0.5,0,0.4,0c-0.3-0.3-0.9,0-1.6,0.8c-0.2,0.2-0.3,0.3-0.5,0.5
			c-1.2,1.2-2,2.4-2.7,3.6c-0.7,1.2-1.5,3.1-2.1,5.7c-0.4,1.3-1,3.2-1.7,5.8c-0.1,0.2-0.2,0.4-0.2,0.6c-0.4,2-0.5,3.7-0.3,5.101
			c-0.8-0.801-1.7-1.301-2.4-1.301c-0.9,0-1.3,0.301-1.3,1c0,0.101,0.1,0.2,0.2,0.301c0.1-0.101,0.3-0.2,0.8-0.2
			c0.7-0.101,1.3,0.1,2,0.399c0.2,0.2,0.5,0.7,1.2,1.301c0.1,0.199,0.8,1.3,2.1,3.199c0.5,0.601,1.1,1.601,1.7,3.101
			c0.1,0,0.1,0,0.1,0.1c0.2,0.101,0.2,0.3,0.4,0.4c1.1,1.399,1.5,1.899,1.4,1.5c0.4,0.5,1,0.899,1.5,1.1l0,0
			c0.2,0.101,0.4,0.2,0.5,0.3c0.4,0,0.6,0.101,1,0.101c1,0,2.101-0.601,3.4-1.8c-0.3,0.3-0.601,0.399-1,0.699l2.2-1.899
			c0.3-0.3,0.399-0.5,0.699-0.8c0-0.101,0-0.101,0.101-0.101c0.5-0.899,1.5-2.6,3-5.1c1.399-2.3,2.6-3,3.899-2.3
			c-0.899,0.399-1.699,0.899-2.3,1.399c0.2,0.2,0.5,0.3,1,0.3c0.4,0,0.8-0.399,1.101-0.899c0.3-0.5,0.3-0.9,0.3-1.2
			c0-1.7-0.9-1.7-2.9,0.2c-1.399,1.399-2.6,2.7-3.5,4.1c-0.6,1.101-1.5,2.3-2.5,3.4c-1.5,1.7-2.7,2.6-3.6,2.6c-0.3,0-0.6,0-0.9-0.1
			c-0.1,0-0.4-0.101-0.5-0.3c-0.1-0.5-0.4-1.601-0.9-3.101c-0.6-2-1-3.1-1.1-3.399c-0.2-1.5-0.4-2.5-0.5-3.101
			c0-0.5-0.1-1.7-0.3-3.6c-0.1-0.5-0.1-0.9-0.1-1.4c-0.1-1.5-0.1-3-0.1-4.4c-0.1-2-0.1-3.5-0.4-4.5
			C22.4,7.114,22.9,5.515,24.3,3.314z M20,16.515h-0.1c0.4-3.1,0.8-5.5,1.2-7c0.8-2.7,1.9-5,3.4-6.8c-1.4,2-2.5,4.3-3.1,6.8
			C20.9,11.214,20.4,13.515,20,16.515z M20.5,22.614h-0.2l-0.1-0.399C20.3,22.215,20.4,22.414,20.5,22.614z"/>
		<path fill="#534B43" d="M19.9,16.515H20c0.4-3,0.9-5.3,1.4-7c0.6-2.5,1.7-4.8,3.1-6.8c-1.5,1.8-2.6,4.1-3.4,6.8
			C20.7,11.015,20.3,13.415,19.9,16.515z"/>
		<path fill="#F3CA8D" d="M20.3,22.614h0.2c-0.1-0.2-0.2-0.399-0.3-0.399L20.3,22.614z"/>
		<path fill="#F2C174" d="M32.5,5.015h-0.2c0.4,3,1.7,7.3,3.9,12.9c0.2,0,0.2,0,0.2-0.1s0-0.1,0-0.1s0-0.2,0-0.4
			c0-0.3-0.101-0.9-0.3-1.9c-0.2-0.5-0.2-0.9-0.2-1.3c-0.2-0.6-0.4-1.2-0.5-2h0.1c-0.2-0.4-0.399-1-0.6-1.6
			c-0.3-0.5-0.4-1.1-0.7-1.6C33.3,6.614,32.7,5.415,32.5,5.015z"/>
		<path fill="#F3CA8D" d="M25.3,1.415c0.2-0.2,0.3-0.3,0.5-0.5c-0.3,0.2-0.4,0.3-0.7,0.5c-3.3,3.3-5.3,7.6-6,12.8
			c-2,0.1-3.5,0.8-4.5,2c-0.2,0.3-0.3,0.6-0.5,0.9c-0.3,0.9-0.6,1.8-0.6,2.9c0,1.3,0.1,2.2,0.4,2.6c0.6,1.4,2,2.101,4.4,2.3
			c-0.8-0.8-1.4-1.199-1.6-1.199c-0.7,0-1.2-0.2-1.5-0.601c-0.3-0.2-0.4-0.5-0.4-0.7c0-0.1,0-0.1,0-0.199
			c-0.1-0.101-0.2-0.2-0.2-0.301c0-0.699,0.4-1,1.3-1c0.7,0,1.6,0.5,2.4,1.301c-0.2-1.4-0.1-3.101,0.3-5.101c0-0.2,0.1-0.4,0.2-0.6
			c0.7-2.6,1.3-4.5,1.7-5.8c0.6-2.6,1.4-4.5,2.1-5.7C23.3,3.814,24.1,2.614,25.3,1.415z M16.9,15.314c1.1-0.6,1.7-0.5,1.7,0.2
			c0,0.2-0.1,0.5-0.6,0.8c-0.4,0.3-0.5,0.6-0.5,0.7c0,0.1,0,0.1,0.1,0.1s0.2,0.1,0.2,0.2c0,0.7-0.3,1.1-0.9,1.1
			c-0.3,0-0.6-0.3-1.1-0.8c-0.2-0.1-0.3-0.3-0.4-0.5c-0.3-0.1-0.4-0.2-0.4-0.3C15,16.314,15.6,15.814,16.9,15.314z"/>
		<path fill="#F3D7AD" d="M18.6,15.515c0-0.7-0.6-0.8-1.7-0.2c-1.3,0.5-1.9,1-1.9,1.5c0,0.1,0.1,0.2,0.4,0.3
			c0.1,0.2,0.2,0.4,0.4,0.5c0.5,0.5,0.8,0.8,1.1,0.8c0.6,0,0.9-0.4,0.9-1.1c0-0.1-0.1-0.2-0.2-0.2s-0.1,0-0.1-0.1
			c0-0.1,0.1-0.4,0.5-0.7C18.5,16.015,18.6,15.714,18.6,15.515z"/>
		<path fill="#534B43" d="M35.5,12.515c0-0.1,0-0.3,0-0.4h-0.1c0.1,0.8,0.3,1.4,0.5,2c0.3,1.4,0.6,2.5,1,3.4
			C36.8,16.814,36.4,15.114,35.5,12.515z"/>
		<path fill="#534B43" d="M17.6,22.414c-0.7-0.3-1.3-0.5-2-0.399c-0.5,0-0.7,0.1-0.8,0.2c0,0.1,0,0.1,0,0.199c0,0.2,0.1,0.5,0.4,0.7
			c0.3,0.101,0.7,0.101,1.3,0.101c1.1,0,2.5,1.3,4,3.899c0.4,0.601,0.9,1.3,1.3,1.8c0.7,1.101,1.3,2,2,2.7l0.2,0.4
			c0.1,0.1,0.2,0.1,0.3,0.2c0.1,0.199,0.2,0.3,0.5,0.399c-0.1,0-0.2-0.1-0.3-0.1c-0.6-0.8-1.2-1.5-1.8-2.4c0-0.1,0-0.1-0.1-0.1
			c-0.6-1.5-1.2-2.5-1.7-3.101c-1.3-1.899-2-3-2.1-3.199C18.1,23.114,17.8,22.614,17.6,22.414z"/>
		<path fill="#F2C174" d="M18.3,24.914c0.5,0.601,1.2,1.301,1.8,2.101c0.5,0.5,1.1,1.2,1.7,1.899c-0.4-0.5-0.9-1.199-1.3-1.8
			c-1.5-2.6-2.9-3.899-4-3.899c-0.6,0-1,0-1.3-0.101c0.3,0.4,0.8,0.601,1.5,0.601C16.9,23.715,17.5,24.114,18.3,24.914z"/>
		<path fill="#F3CA8D" d="M20.1,27.015c0,0.1,0.2,0.2,0.3,0.399c1,1.4,2.1,2.801,3.4,4.2c-0.7-0.7-1.3-1.6-2-2.7
			C21.2,28.215,20.6,27.515,20.1,27.015z"/>
		<path fill="#F2C174" d="M34.5,27.114c-0.399,0.601-1,1.5-1.6,2.5c0.1-0.2,0.2-0.399,0.399-0.6c0.2-0.2,0.2-0.4,0.301-0.5
			C33.9,28.015,34.3,27.515,34.5,27.114z"/>
		<path fill="#534B43" d="M32.9,29.614c0.6-1,1.2-1.899,1.6-2.5l0.9-1.2c0.2-0.399,0.399-0.699,0.6-0.899s0.4-0.4,0.5-0.5
			c0.3-0.3,0.601-0.601,1-0.9c0.601-0.5,1.4-1,2.3-1.399c-1.3-0.7-2.5,0-3.899,2.3C34.4,27.015,33.4,28.715,32.9,29.614z"/>
		<path fill="#F3CA8D" d="M33.601,28.515c0.199-0.3,0.3-0.4,0.399-0.601c0.8-1.199,1.5-2.199,2-2.899c-0.2,0.2-0.399,0.5-0.6,0.899
			l-0.9,1.2C34.3,27.515,33.9,28.015,33.601,28.515z"/>
		<path fill="#534B43" d="M30.9,31.715c0.1-0.101,0.2-0.2,0.3-0.2c0.6-0.4,0.9-0.8,0.9-1l0,0l-2.2,1.899
			C30.3,32.114,30.601,32.015,30.9,31.715z"/>
		<path fill="#F3CA8D" d="M26,33.114L26,33.114c-0.5-0.2-1.1-0.6-1.5-1.1c0.1,0.399-0.3-0.101-1.4-1.5c-0.2-0.101-0.2-0.3-0.4-0.4
			c0.6,0.9,1.2,1.601,1.8,2.4c0.5,0.2,0.9,0.5,1.4,0.6H26z"/>
	</g>
</g>
</svg>
