<?xml version="1.0" encoding="utf-8"?>
<!-- Generator: Adobe Illustrator 13.0.0, SVG Export Plug-In . SVG Version: 6.00 Build 14948)  -->
<svg version="1.2" baseProfile="tiny" id="Layer_1" xmlns="http://www.w3.org/2000/svg" xmlns:xlink="http://www.w3.org/1999/xlink"
	 x="0px" y="0px" width="63.3px" height="16.909px" viewBox="0 0 63.3 16.909" xml:space="preserve">
<g>
	<g>
		<path d="M63,3.509c0,0.1,0,0.2,0,0.2c0.2-0.1,0.301-0.3,0.301-0.5c0-0.4-0.2-1-0.601-1.7c-0.5-0.9-1-1.3-1.399-1.1
			c0,0-0.101,0-0.101,0.1c0.3,0.1,0.601,0.6,1,1.4C62.7,2.709,63,3.209,63,3.509z"/>
		<path fill="#7E5548" d="M48.1,6.209c0-0.7-0.3-1-0.9-1c-0.5,0-1,0.3-1.5,0.9c-0.399-0.1-0.7-0.1-1,0c-0.1-0.5-0.5-0.7-1.2-0.7
			c-0.3,0-0.8,0.3-1.1,0.8c-0.1,0-0.2,0.2-0.2,0.2c-0.3,0.2-0.5,0.2-0.6,0.4v-0.1c0.1-0.6-0.101-1-0.9-1c-0.2,0-0.5,0.2-0.8,0.5
			c-0.3,0.2-0.6,0.3-0.7,0.3c-0.5,0-1,0-1.399-0.1c0.6,0.4,1.199,1,1.8,1.7c1,1.3,1.6,2.3,1.6,3.1c0,0.4-0.2,0.601-0.7,0.601
			c-0.1,0-0.3-0.2-0.5-0.5c0,0.3-0.399,0.5-0.8,0.5c-0.5,0-0.899-0.101-1.2-0.2c-0.1,0.1-0.3,0.1-0.399,0.1
			c-0.4,0-0.601-0.2-0.8-0.7c-0.5,0.801-1.101,1.2-1.601,1.2c-0.399,0-0.6-0.3-0.6-0.899c-0.8,0.3-1.4,0.5-1.8,0.5
			c-0.8,0-1.3-0.4-1.601-1.101c-0.1,0.2-0.2,0.4-0.4,0.5c-0.3,0.4-0.8,0.601-1.5,0.601c-0.3,0-0.6-0.101-0.8-0.101
			c0.1,0.2,0.3,0.4,0.5,0.4c0.1,0.1,0.3,0.3,0.6,0.3c3,0,5.6-0.2,8-0.3c2.1-0.2,3.7-0.3,4.7-0.5c0.5,0,0.899,0,1.5,0
			c-0.101-0.2-0.101-0.2-0.101-0.4c0-0.5-0.1-1.3-0.399-2.2C43,7.909,42.7,7.109,42.7,6.709c1.101,0.9,1.601,2.2,1.601,4.2
			c0,0.3,0,0.5,0,0.7c0,0,0.199,0,0.3,0c-0.101,0-0.101,0-0.101,0.1l0.101,0.2c-0.101,0-0.3,0-0.4,0.1c0,0.2-0.1,0.301-0.3,0.4
			c-0.1-0.1-0.1-0.2-0.1-0.2c-0.101,0-0.301,0.101-0.5,0.2c-0.4,0.1-0.601,0.3-0.601,0.7c0,0.1,0,0.2,0,0.3
			c0.101,0.1,0.3,0.2,0.601,0.2c0.199,0,0.5-0.101,0.899-0.3c0.3-0.2,0.5-0.301,0.601-0.301c0.399,0,0.899-0.1,1.5-0.399
			c0.699-0.2,1-0.4,1.3-0.4c0.1,0,0.2,0.101,0.2,0.2c0.1,0.1,0.199,0.2,0.3,0.2c0.2,0,0.5-0.2,0.899-0.4l0,0
			c0.4,0,1.801-0.899,4.301-2.8c0.699-0.5,1.3-0.9,1.699-1.2c0.2-0.2,0.301-0.3,0.5-0.4c1.101-0.9,1.601-1.4,1.601-1.6
			c0,0,0-0.1,0-0.2c0.899-0.6,1.6-1.2,2.1-1.6c-1.1,0-2.3,0.5-3.6,1.5c-0.3,0.1-0.4,0.3-0.601,0.4c-0.5,0.1-1.1,0.3-1.8,0.6
			c-0.2,0.1-0.399,0.2-0.6,0.3c0-0.9-0.4-1.3-1.101-1.4c-0.1-0.1-0.199-0.1-0.3-0.1c-0.2,0-0.5,0.1-0.7,0.2
			c-0.899,0.3-1.699,0.3-2,0.3C48.3,6.209,48.2,6.209,48.1,6.209L48.1,6.209z M45.6,11.609v-0.3c0.2-1.7,0.399-2.9,0.399-3.7H46.1
			c0.2,0.8,0.399,1.5,0.399,2.1C46.2,10.81,46,11.409,45.6,11.609z M47.8,11.909l-0.2-0.1c0.2-0.301,0.399-0.801,0.5-1.4
			c0-0.7,0.2-1,0.5-1.2v1.2c0,0.1,0,0.4-0.2,0.8C48.2,11.609,48.1,11.81,47.8,11.909z"/>
		<path fill="#745348" d="M45.6,11.31v0.3c0.399-0.2,0.6-0.8,0.899-1.9c0-0.6-0.199-1.3-0.399-2.1H46
			C46,8.409,45.8,9.609,45.6,11.31z"/>
		<path fill="#745348" d="M47.6,11.81l0.2,0.1c0.3-0.1,0.399-0.3,0.6-0.7c0.2-0.399,0.2-0.7,0.2-0.8v-1.2c-0.3,0.2-0.5,0.5-0.5,1.2
			C48,11.009,47.8,11.509,47.6,11.81z"/>
		<path fill="#745348" d="M44.3,11.609c0-0.2,0-0.4,0-0.7c0-2-0.5-3.3-1.601-4.2c0,0.4,0.3,1.2,0.601,2.3
			c0.3,0.9,0.399,1.7,0.399,2.2c0,0.2,0,0.2,0.101,0.4c0,0.1,0,0.3,0,0.6c0,0,0,0.101,0.1,0.2c0.2-0.1,0.3-0.2,0.3-0.4
			C44.2,11.909,44.2,11.709,44.3,11.609z"/>
		<path fill="#7E5548" d="M24.7,6.109c-0.1-0.2-0.4-0.3-0.6-0.3c-0.3,0-0.5,0.1-0.6,0.3c-0.2,0.3-0.3,0.3-0.5,0.4
			c0-0.3-0.1-0.6-0.2-0.7c0-0.2-0.3-0.4-0.8-0.4c-0.4,0-0.6,0.1-0.7,0.2c-0.1,0.1-0.1,0.3-0.2,0.5c0-0.7-0.2-1-0.6-1
			c-0.5-0.1-0.8,0.1-0.9,0.7c-0.2-0.2-0.4-0.3-0.7-0.3c-0.4,0-0.7,0.2-0.7,0.6c0,0.1,0,0.3,0,0.5c-0.1,0-0.1,0-0.1,0s0,0-0.1,0
			c-0.2-0.2-0.3-0.4-0.5-0.4c-0.3,0-0.5,0.2-0.6,0.5c-0.4,0-0.7,0.1-1,0.2c-0.1-0.1-0.2-0.1-0.3-0.1l-0.1,0.1
			c-0.3,0-0.5,0.2-0.5,0.3c-0.3-0.1-1.1-0.5-2.6-1.1c-0.3,0-0.6,0.1-0.6,0.5c-0.6-0.4-1-0.4-1.2-0.1c0.2,0.2,1.4,1.4,3.4,3.5
			c2.1,2,3.6,3,4.6,3c0.3,0,0.5,0,0.6-0.1c0,0,0,0,0.1,0c0.3,0,0.6-0.1,1-0.3c0.7,0,1.3,0,2,0c0.4,0,0.8,0,1.2,0
			c-0.2-0.4-0.3-1-0.3-1.5c0-0.7,0.1-1.4,0.4-2.2c0.4-0.9,0.8-1.5,1.4-1.8c0.2,0,0.2,0.1,0.2,0.4c0,0.4-0.1,1.2-0.5,2.5
			c-0.2,1.101-0.5,1.9-0.7,2.601c0.6-0.2,1.2-0.3,1.6-0.5c0.2-0.101,0.4-0.2,0.5-0.4c0,0.101,0,0.2,0,0.2c0.1,0.2,0.5,0.3,0.8,0.3
			s0.4-0.1,0.6-0.399c0-0.101,0-0.101,0.1-0.101c-0.4,0-0.7-0.2-0.8-0.6c0-0.5,0-0.7,0-0.7c0-1.3,0.6-2.3,1.8-3.1
			c0.7-0.6,1.8-0.9,3.1-1.2c-4.5,0.1-6.7,0.3-6.8,0.3L24.7,6.109z M21.6,8.709c0.3-1.1,0.7-1.6,1.1-1.8c-0.6,1.5-1,3.3-1,5.3
			c-0.2,0-0.4-0.2-0.4-0.399c-0.1-0.101-0.1-0.301-0.1-0.7C21.2,10.409,21.3,9.609,21.6,8.709z M20.2,7.209c0,0.1,0,0.1,0.1,0
			c0,0.1,0,0.2,0,0.4c0,0.3,0,0.6-0.1,1.1c-0.2,0.4-0.3,0.9-0.3,1.5c0,0.5,0.1,0.9,0.3,1.2v0.2c0,0.1-0.1,0.2-0.4,0.2
			c-0.2,0-0.5-0.2-0.5-0.801c0-0.5,0-0.8,0-0.8c0-0.5,0.1-1,0.3-1.7C19.7,7.709,20,7.409,20.2,7.209z"/>
		<path fill="#745348" d="M22.7,6.909c-0.4,0.2-0.8,0.7-1.1,1.8c-0.3,0.9-0.4,1.7-0.4,2.4c0,0.399,0,0.6,0.1,0.7
			c0,0.199,0.2,0.399,0.4,0.399C21.7,10.209,22.1,8.409,22.7,6.909z"/>
		<path fill="#745348" d="M20.3,7.209c-0.1,0.1-0.1,0.1-0.1,0c-0.2,0.2-0.5,0.5-0.6,1.3c-0.2,0.7-0.3,1.2-0.3,1.7c0,0,0,0.3,0,0.8
			c0,0.601,0.3,0.801,0.5,0.801c0.3,0,0.4-0.101,0.4-0.2v-0.2c-0.2-0.3-0.3-0.7-0.3-1.2c0-0.6,0.1-1.1,0.3-1.5
			c0.1-0.5,0.1-0.8,0.1-1.1C20.3,7.409,20.3,7.309,20.3,7.209z"/>
		<path fill="#745348" d="M25,7.109c-0.6,0.3-1,0.9-1.4,1.8c-0.3,0.8-0.4,1.5-0.4,2.2c0,0.5,0.1,1.1,0.3,1.5c0,0.2,0.1,0.3,0.2,0.5
			c0.1-0.2,0.2-0.4,0.3-0.5c0.2-0.7,0.5-1.5,0.7-2.601c0.4-1.3,0.5-2.1,0.5-2.5C25.2,7.209,25.2,7.109,25,7.109z"/>
		<path d="M27.6,11.709L27.6,11.709c0,0,0-0.1,0.1-0.1c0.1-0.4,0.2-0.7,0.4-0.9c-0.1,0.2-0.1,0.2-0.1,0.4c0,0.1,0,0.1,0.1,0.2
			c0,0.1,0.1,0.3,0.4,0.399c0.2,0,0.5,0.101,0.8,0.101c0.7,0,1.2-0.2,1.5-0.601c0.2-0.1,0.3-0.3,0.4-0.5
			c0.3,0.7,0.8,1.101,1.601,1.101c0.399,0,1-0.2,1.8-0.5c0,0.6,0.2,0.899,0.6,0.899c0.5,0,1.101-0.399,1.601-1.2
			c0.199,0.5,0.399,0.7,0.8,0.7c0.1,0,0.3,0,0.399-0.1c0.301,0.1,0.7,0.2,1.2,0.2c0.4,0,0.8-0.2,0.8-0.5c0.2,0.3,0.4,0.5,0.5,0.5
			c0.5,0,0.7-0.2,0.7-0.601c0-0.8-0.6-1.8-1.6-3.1c-0.601-0.7-1.2-1.3-1.8-1.7c-0.601-0.3-1.2-0.6-1.7-0.7c-1.7,0-3.101,0.2-4.4,0.4
			c-1.3,0.3-2.4,0.6-3.1,1.2c-1.2,0.8-1.8,1.8-1.8,3.1c0,0,0,0.2,0,0.7C26.9,11.509,27.2,11.709,27.6,11.709z M32.7,10.709
			c-0.5,0-0.7-0.399-0.7-1.3c-0.1-0.8-0.5-1.2-1.3-1.2c-0.4,0-0.7,0-1,0.2c0.9-0.7,2.3-1,3.9-1c0.899,0,1.6,0.1,2.2,0.3
			c-0.2,0-0.601,0.1-0.9,0.3c-0.2,0.1-0.4,0.6-0.7,1.5C33.9,10.31,33.4,10.709,32.7,10.709z"/>
		<path fill="#7E5548" d="M32,9.409c0,0.9,0.2,1.3,0.7,1.3c0.7,0,1.2-0.399,1.5-1.2c0.3-0.899,0.5-1.399,0.7-1.5
			c0.3-0.2,0.7-0.3,0.9-0.3c-0.601-0.2-1.301-0.3-2.2-0.3c-1.6,0-3,0.3-3.9,1c0.3-0.2,0.6-0.2,1-0.2C31.5,8.209,31.9,8.609,32,9.409
			z"/>
		<path fill="#7E5548" d="M28,11.109c0-0.2,0-0.2,0.1-0.4c-0.2,0.2-0.3,0.5-0.4,0.9c0-0.2,0.2-0.2,0.4-0.3
			C28,11.209,28,11.209,28,11.109z"/>
		<path d="M2.6,0.809l-0.1-0.1c-1.7,0.4-2.5,1.4-2.5,2.9c0,0.6,0.1,1.1,0.2,1.3l0.1-0.2c-0.1-0.8-0.1-1.5,0.3-2.1
			C0.9,1.809,1.6,1.209,2.6,0.809z"/>
	</g>
	<g>
		<path fill="#FFFFFF" d="M48,5.909c0-0.5,0.2-1,0.4-1.3c-0.1-0.9-0.8-1.2-2.2-1c-0.2,0.1-0.5,0.1-0.6,0.2v0.3l-0.3,2.5L45,6.709
			c-0.199-0.1-0.3-0.3-0.3-0.6c0-0.5,0-1,0.2-1.6c0.2-0.4,0.3-0.8,0.4-0.9c-0.101-0.4-0.301-0.5-0.801-0.5c-0.1,0-0.199,0-0.3,0.1
			c-0.1-0.1-0.2-0.2-0.399-0.1c-0.101-0.1-0.101-0.1-0.101-0.2c-0.1-0.2-0.399-0.3-0.899-0.3c-0.4,0-0.9,0.3-1.5,0.9
			c-0.4,0.4-0.7,0.9-0.801,1.2v-0.4c0.101-1,0-1.5-0.5-1.5c0,0-0.1,0-0.199,0.1c-0.2-0.4-0.601-0.6-1.301-0.6
			c-0.3,0-0.399,0.1-0.6,0.3c-0.1,0-0.2,0.1-0.3,0.2h-1l-0.101-0.2c0.101-0.7,0-1.2-0.5-1.2c-0.399,0-0.899,0.2-1.399,0.8
			c0,0.1,0,0.2,0,0.3c0,0.4,0,1.1-0.2,2.2c-0.2,1-0.3,2.4-0.3,3.8c2.5-0.1,4.3-0.1,5.5-0.2c1.7,0.3,3.2,0.2,4.5-0.4
			c0.1-0.1,0.2-0.3,0.399-0.5c0.101,0.3,0.301,0.5,0.5,0.7c0.5,0.1,1,0.1,1.301,0.3c0.899-0.2,1.5-0.8,1.899-2.1c0,0.1,0,0.3,0,0.5
			c0,0.1,0,0.4,0,1.1c0.101,0.7,0.601,1,1.4,1c1.1,0,2-0.6,2.7-1.8c0.1,0,0.1,0.1,0.199,0.3c0.101,0.3,0.5,0.5,1.101,0.5
			c0.5,0,1.1-0.3,1.7-1.1c0.1-0.1,0.199-0.2,0.3-0.3c0.1,0.1,0.3,0.2,0.6,0.2c0.4,0,0.7-0.3,1-0.8c0.4-0.5,0.5-0.8,0.5-1
			c-0.1-0.1-0.1-0.3-0.1-0.4s0-0.1,0.1-0.3c-0.1-0.2-0.3-0.2-0.5,0c-0.1,0-0.399,0.4-1,1.1c0-0.1-0.1-0.1-0.2-0.1
			c-0.3-0.3-0.8-0.5-1.8-0.6c-0.6,0-1,0.1-1.2,0.4c-0.199-0.2-0.399-0.3-0.699-0.3c0,0-0.101,0-0.301,0
			c-0.199,0.1-0.199,0-0.199-0.1c0-0.2-0.2-0.2-0.801-0.3c-0.699-0.1-1.199,0.1-1.699,0.4c-0.101-0.1-0.2-0.1-0.301-0.2
			c0,0.2-0.1,0.5-0.399,0.9c-0.101,0.3-0.101,0.7,0,1h-0.2C48.2,6.209,48,6.109,48,5.909z M52.7,4.909c0.3,0.2,0.4,0.4,0.4,0.7
			c0,0.2-0.101,0.6-0.4,1.2c0.101,0.1,0,0.1-0.2,0.1c-0.3,0-0.3-0.2-0.3-0.5C52.3,5.609,52.5,5.109,52.7,4.909z M39,6.109
			c0-0.2,0.101-0.8,0.4-1.7c0.3-0.8,0.6-1.3,0.8-1.5c0.101,0,0.3,0.2,0.3,0.5c0,0.7-0.399,1.8-1.1,3.4C39.1,6.709,39,6.509,39,6.109
			z"/>
		<path fill="#E8E8E8" d="M53.1,5.609c0-0.3-0.101-0.5-0.4-0.7c-0.2,0.2-0.399,0.7-0.5,1.5c0,0.3,0,0.5,0.3,0.5
			c0.2,0,0.301,0,0.2-0.1C53,6.209,53.1,5.809,53.1,5.609z"/>
		<path fill="#E8E8E8" d="M39.4,4.409c-0.3,0.9-0.4,1.5-0.4,1.7c0,0.4,0.101,0.6,0.4,0.7c0.7-1.6,1.1-2.7,1.1-3.4
			c0-0.3-0.199-0.5-0.3-0.5C40,3.109,39.7,3.609,39.4,4.409z"/>
		<path fill="#E8E8E8" d="M48.4,4.609c-0.2,0.3-0.4,0.8-0.4,1.3c0,0.2,0.2,0.3,0.4,0.5h0.2c-0.101-0.3-0.101-0.7,0-1
			c0.3-0.4,0.399-0.7,0.399-0.9c0-0.1,0-0.3-0.1-0.3C48.7,4.209,48.6,4.409,48.4,4.609z"/>
		<path fill="#E8E8E8" d="M45.3,3.609c-0.101,0.1-0.2,0.5-0.4,0.9c-0.2,0.6-0.2,1.1-0.2,1.6c0,0.3,0.101,0.5,0.3,0.6l0.301-0.1
			l0.3-2.5v-0.3v-0.4C45.5,3.409,45.3,3.409,45.3,3.609z"/>
		<path fill="#CA6E6B" d="M57.7,4.909c0.101,0,0.3,0.1,0.5,0.1c1.8-0.4,2.9-0.9,3.3-1.6c-0.399-0.5-1.199-0.5-2.3-0.1
			c-0.899,0.3-1.399,0.6-1.5,0.9c-0.1,0.2-0.1,0.2-0.1,0.3S57.6,4.809,57.7,4.909z"/>
		<path fill="#FFFFFF" d="M27.9,4.409c0-0.7,0.1-1.5,0.2-2.3c-0.6-0.2-1.8,0.1-3.4,1.1c0-0.3-0.1-0.6-0.2-0.6
			c-0.1,0.8-0.3,1.8-0.7,3c-0.4,0-0.6-0.4-0.6-1.2c0-0.3,0-0.7,0.1-1c-0.3-0.2-0.8-0.3-1.6-0.3c-1,0.1-1.2,0.4-0.7,1.1h-0.2
			c-0.1-0.2-0.2-0.5-0.2-0.6c-0.1-0.2-0.4-0.4-0.9-0.4c0,0,0,0-0.1,0c0.1,0.1,0.2,0.2,0.2,0.4l-0.2,2v0.5c0,0.1,0.1,0.1,0.1,0.3
			c0.7,1.2,1.5,1.8,2.5,1.8c0.7,0,1.3-0.3,1.6-0.8c0.1-0.2,0.2-0.3,0.3-0.5c0.2,0.5,0.6,0.9,1.2,1.2c2,0.3,4.6,0.5,7.7,0.399
			c0.2,0,0.5,0,0.9,0c0.1,0,0.1,0,0.2,0C34,8.209,34,8.109,34,8.409c-0.3-0.3-0.399-0.7-0.399-1.1c-0.101-1.7-0.2-2.6-0.2-2.9
			c0-0.5,0.1-1,0.2-1.7c0.1-0.3,0.2-0.6,0.3-0.8h-0.1l0,0c-0.2-0.3-0.5-0.3-0.801-0.3c-0.3,0-0.399,0.1-0.5,0.3
			c-0.1,0.2-0.1,0.3-0.2,0.5c-0.1-0.3-0.3-0.4-0.7-0.4c-0.3,0-0.4,0.1-0.5,0.3c0-0.2,0-0.4,0-0.4c-0.1-0.3-0.4-0.3-0.7-0.3
			c-0.6,0-1.1,0.1-1.4,0.5c0.1,0.1,0.1,0.2,0.1,0.3c0,0.3-0.1,1.8-0.4,4.5l-0.1,0.2c-0.3-0.4-0.5-0.9-0.6-1.4
			C27.9,5.609,27.9,5.109,27.9,4.409z"/>
		<path fill="#E8E8E8" d="M28.1,2.109c-0.1,0.8-0.2,1.6-0.2,2.3s0,1.2,0.1,1.3c0.1,0.5,0.3,1,0.6,1.4l0.1-0.2
			c0.3-2.7,0.4-4.2,0.4-4.5c0-0.1,0-0.2-0.1-0.3c-0.1-0.5-0.4-0.5-0.8-0.4C28.1,1.809,28.1,1.909,28.1,2.109z"/>
		<path fill="#E8E8E8" d="M24.5,2.209c-0.1-0.1-0.1-0.3-0.1-0.3c-0.6,0-0.9,0.5-1.1,1.3v0.2c-0.1,0.3-0.1,0.7-0.1,1
			c0,0.8,0.2,1.2,0.6,1.2c0.4-1.2,0.6-2.2,0.7-3C24.5,2.409,24.5,2.309,24.5,2.209z"/>
		<path fill="#E8E8E8" d="M33.9,1.909c-0.1,0.2-0.2,0.5-0.3,0.8c-0.101,0.7-0.2,1.2-0.2,1.7c0,0.3,0.1,1.2,0.2,2.9
			c0,0.4,0.1,0.8,0.399,1.1c0-0.3,0-0.2,0.101,0.1c0-1.399,0.1-2.8,0.3-3.8c0.2-1.1,0.2-1.8,0.2-2.2c0-0.1,0-0.2,0-0.3
			c-0.2-0.5-0.4-0.8-0.4-0.9C34.1,1.409,34,1.609,33.9,1.909z"/>
		<path fill="#FFFFFF" d="M17.5,3.609c-0.8,0.1-1.3,0.3-1.7,0.6c0,0,0,0,0.1,0c0.1,0.4,0.2,0.8,0.2,1.2c0,0.5-0.1,0.7-0.4,0.8
			c-0.1,0-0.2-0.3-0.3-0.8c-0.1-0.3-0.2-0.5-0.2-0.7c0-0.1-0.1-0.1-0.2-0.1c-1.7-0.2-2.7,0-3,0.7l-0.1-0.1c-0.3-0.1-0.6-0.1-0.8-0.1
			c0.1,0.1,0.4,0.3,0.5,0.5c0.2,0.4,0.5,0.8,0.9,1.4c0.1,0.1,0,0.2-0.3,0.2c-0.2,0-0.6-0.4-1-1c-0.2-0.3-0.4-0.6-0.5-0.8
			c-0.1,0-0.1,0-0.2,0c-0.9-0.3-1.4-0.2-1.4,0.5c1,1,1.5,1.5,1.6,1.5c0.1,0,0.4-0.1,0.6-0.3c0.1-0.1,0.1-0.1,0.2-0.1
			c0.6,0.7,1.5,1.1,2.7,1.1c0.4,0,0.6-0.1,0.9-0.2c0.6-0.1,0.9-0.4,0.9-1c0,0,0,0,0-0.1c0.5,0.9,1.2,1.4,2.1,1.4c1,0,1.5-0.7,1.5-2
			v-0.1c-0.1,0.1-0.2,0.1-0.3,0.1c-0.2-0.3-0.4-0.6-0.4-1.2c0.1-0.4,0.2-0.8,0.3-1.1c-0.1,0-0.1,0.2-0.1,0.3
			C18.7,3.709,18.2,3.609,17.5,3.609z"/>
		<path fill="#E8E8E8" d="M15.9,4.209c-0.1,0-0.1,0-0.1,0c-0.3,0-0.6,0.1-0.6,0.5l0,0c0,0.2,0.1,0.4,0.2,0.7
			c0.1,0.5,0.2,0.8,0.3,0.8c0.3-0.1,0.4-0.3,0.4-0.8C16.1,5.009,16,4.609,15.9,4.209z"/>
		<path fill="#E8E8E8" d="M19.6,6.109v-0.5l0.2-2c0-0.2-0.1-0.3-0.2-0.4c0,0,0-0.1-0.1-0.1c-0.2,0-0.3,0.3-0.3,0.8
			c-0.1,0.3-0.2,0.7-0.3,1.1c0,0.6,0.2,0.9,0.4,1.2C19.4,6.209,19.5,6.209,19.6,6.109z"/>
		<path fill="#E8E8E8" d="M10.7,5.409c0.1,0.2,0.3,0.5,0.5,0.8c0.4,0.6,0.8,1,1,1c0.3,0,0.4-0.1,0.3-0.2c-0.4-0.6-0.7-1-0.9-1.4
			c-0.1-0.2-0.4-0.4-0.5-0.5c-0.2-0.2-0.4-0.2-0.6-0.1C10.6,5.109,10.6,5.209,10.7,5.409z"/>
		<path fill="#FFFFFF" d="M43.1,10.609c0,0-0.4,0-0.9,0c-0.6,0-1.5,0.1-2.899,0.5c0.1,0,0.199,0.1,0.199,0.1
			c0.101,0,0.101,0.2,0.101,0.5c0,0.2-0.101,0.5-0.101,0.9c-0.199,0.6-0.3,1-0.399,1.1c-0.3-0.6-0.4-1.3-0.4-1.899
			c0-0.2,0-0.5,0.101-0.7c-1.2-0.2-2.101-0.4-3-0.4c-0.7,0.101-1.301,0.2-1.601,0.5c0,0.2,0.101,0.4,0.3,0.8
			c0.101,0.601,0.2,1.101,0.2,1.2c0,0.2-0.1,0.5-0.2,0.9c0.7,0.2,1.4,0.2,2.101,0.1c0.6-0.2,0.899-0.1,0.899,0.2
			c0.101,0.2,0.2,0.4,0.601,0.4c0.399,0,0.7-0.4,0.899-1.2c0.2,0.3,0.601,0.5,1.301,0.5c0.3,0,0.5-0.2,0.899-0.5v0.399
			c0.101,0.2,0.3,0.301,0.601,0.301c0.5,0,0.899-0.4,1.3-1c0-0.2-0.101-0.4-0.101-0.4c0-0.3,0.101-0.5,0.101-0.8
			c0.1-0.601,0.2-0.9,0.399-1.101c0.2,0.601,0.4,1,0.4,1.4c0,0.5-0.1,0.8-0.2,1.2c0.3,0.1,0.5,0.3,0.601,0.3
			c1.3,0,2.199-0.2,2.6-0.5c0.1,0,0.1-0.1,0.2-0.2c-0.101,0-0.2,0-0.3,0c0,0-0.101-0.1-0.101-0.3c0-0.4,0.101-0.7,0.4-0.8
			c0.2,0.1,0.3,0.3,0.3,0.5c0,0.1-0.1,0.2-0.1,0.3v0.1c0.199,0.101,0.399,0.2,0.699,0.2c0.2,0,0.301-0.2,0.601-0.5
			c0-0.1,0-0.1,0-0.1c0.1,0,0.3,0,0.5,0c0.1,0,0.399,0,0.5-0.2c0.2-0.2,0.3-0.4,0.3-0.7c0-0.399-0.3-0.5-0.9-0.399
			c-0.199,0.1-0.3,0.1-0.399,0.1c-0.101,0-0.4,0-0.601,0.2c-0.3,0.2-0.5,0.399-0.699,0.6c0-0.1,0-0.2,0-0.3c0-0.7-0.7-1.1-2.101-1.2
			c-0.7,0-1.1,0.2-1.5,0.4C43.6,10.909,43.4,10.709,43.1,10.609z"/>
		<path fill="#E8E8E8" d="M43.5,11.009c-0.199,0.2-0.3,0.5-0.399,1.101c0,0.3-0.101,0.5-0.101,0.8c0,0,0.101,0.2,0.101,0.4
			c0,0.1,0,0.1,0.1,0.199c0.101,0.301,0.2,0.5,0.3,0.601c0.101-0.2,0.101-0.4,0.2-0.5c0.101-0.4,0.2-0.7,0.2-1.2
			C43.9,12.009,43.7,11.609,43.5,11.009z"/>
		<path fill="#E8E8E8" d="M47.1,13.209c0,0,0.1,0,0.2-0.2v-0.1c0-0.1,0.1-0.2,0.1-0.3c0-0.2-0.1-0.4-0.3-0.5
			c-0.3,0.1-0.4,0.399-0.4,0.8c0,0.2,0.101,0.3,0.101,0.3C46.9,13.209,47,13.209,47.1,13.209z"/>
		<path fill="#FFFFFF" d="M24.7,11.709c0-0.1,0-0.1,0-0.2c0.8-0.1,1.1,0.4,1.1,1.301l-0.1,1c0.3,0.3,0.5,0.399,0.6,0.399l1.4-0.5
			c0.2,0,0.5,0.101,0.8,0.2c0.2,0.2,0.5,0.3,0.7,0.3c0.3,0,0.6-0.2,1-0.5c0,0.2,0.1,0.4,0.3,0.4c0.5,0,0.9,0.1,1.1,0.3
			c0.3,0.2,0.899,0.3,1.7,0.3c0.199,0,0.399-0.1,0.8-0.399c0.1-0.101,0.1-0.2,0.2-0.2c-0.101-0.3-0.301-0.7-0.5-1.2
			c-0.101-0.7-0.2-1.2-0.2-1.3c0-0.2,0-0.2,0-0.3c0-0.101-0.4-0.101-1-0.2c-0.5-0.2-1.1-0.2-1.8-0.101c-0.6,0.101-0.9,0.101-1,0.2
			c0.3,0.101,0.5,0.7,0.9,2c0,0.2-0.1,0.3-0.1,0.4c0,0-0.1,0-0.2,0.1c-0.2-0.1-0.4-0.6-0.7-1.3l-0.1-0.9c0-0.1,0-0.3,0-0.3
			c-0.4-0.2-1-0.3-1.8-0.3c-1.3-0.1-2.2,0-2.6,0.4c-0.4-0.4-0.9-0.601-1.6-0.5c-1.1,0.1-1.9,0.399-2,1.1c-0.4-0.3-0.9-0.5-1.5-0.5
			c-1.1-0.2-1.8-0.1-2,0.5c-0.1-0.1-0.1-0.1-0.1-0.1c-0.4-0.2-0.8-0.2-1-0.101c-0.1,0.2-0.1,0.2-0.1,0.2c0,0.2,0.2,0.3,0.5,0.6
			c0.3,0.2,0.7,0.4,1,0.5c0,0,0,0,0.1,0.101c0.4,0.3,0.9,0.5,1.6,0.5c0.2,0,0.4-0.101,0.5-0.3c0.1,0.1,0.2,0.199,0.3,0.3
			c0.2,0.2,0.3,0.3,0.5,0.3s0.3,0,0.5-0.2c0.1,0,0.2,0.101,0.3,0.2c-0.6-0.8-1-1.4-1-1.7c0-0.1,0.1-0.3,0.1-0.3c0.1,0,0.2,0,0.2,0
			c0.1,0,0.2,0.3,0.5,0.7c0.2,0.5,0.3,0.8,0.3,0.8c0,0.2-0.1,0.3-0.1,0.3v0.2c0,0,0.1,0,0.3,0c0.1,0,0.1,0,0.2-0.2
			c0-0.1,0.1-0.1,0.3-0.1c0.2,0,0.7,0.1,1.5,0.3c0.3,0,0.6,0,0.7-0.1c-0.1-0.2-0.3-0.4-0.4-0.7S24.7,12.409,24.7,11.709z"/>
		<path fill="#E8E8E8" d="M24.7,11.509c0,0.101,0,0.101,0,0.2c0,0.7,0,1.101,0.1,1.4s0.3,0.5,0.4,0.7c0.1,0.1,0.3,0.199,0.4,0.3
			c0.1-0.101,0.1-0.2,0.1-0.2v-0.1l0.1-1C25.8,11.909,25.5,11.409,24.7,11.509z"/>
		<path fill="#E8E8E8" d="M21.5,11.909c0,0-0.1,0-0.2,0c0,0-0.1,0.2-0.1,0.3c0,0.3,0.4,0.9,1,1.7v-0.2c0,0,0.1-0.1,0.1-0.3
			c0,0-0.1-0.3-0.3-0.8C21.7,12.209,21.6,11.909,21.5,11.909z"/>
		<path fill="#E8E8E8" d="M29.8,11.209c0,0-0.1,0-0.2,0c0,0,0,0.2,0,0.3l0.1,0.9c0.3,0.7,0.5,1.2,0.7,1.3c0.1-0.1,0.2-0.1,0.2-0.1
			c0-0.101,0.1-0.2,0.1-0.4C30.3,11.909,30.1,11.31,29.8,11.209z"/>
		<path fill="#E8E8E8" d="M34.2,11.209c-0.2,0-0.3,0-0.5,0c0,0,0,0-0.1,0.101c0,0.1,0,0.1,0,0.3c0,0.1,0.1,0.6,0.2,1.3
			c0.199,0.5,0.399,0.9,0.5,1.2c0,0,0.1,0.1,0.199,0.1c0,0,0,0,0-0.1c0.101-0.4,0.2-0.7,0.2-0.9c0-0.1-0.1-0.6-0.2-1.2
			C34.3,11.609,34.2,11.409,34.2,11.209z"/>
		<path fill="#E8E8E8" d="M39.3,11.109c-0.101,0-0.301,0-0.5,0c-0.101,0.2-0.101,0.5-0.101,0.7c0,0.6,0.101,1.3,0.4,1.899
			c0.1-0.1,0.2-0.5,0.399-1.1c0-0.4,0.101-0.7,0.101-0.9c0-0.3,0-0.5-0.101-0.5C39.5,11.209,39.4,11.109,39.3,11.109z"/>
		<path fill="#CA6E6B" d="M6.5,4.709c0.3,0,0.5-0.2,0.5-0.5c0-0.5-0.8-0.8-2.3-1.3c-1.5-0.4-2.2-0.3-2.2,0.3c0,0.4,0.6,0.7,1.8,1
			C5.3,4.609,6.1,4.709,6.5,4.709z"/>
	</g>
	<g>
		<path fill="#CA6D54" d="M47.6,2.909c-0.8-0.2-1.2-0.4-1.4-0.5c-0.2,0-0.5-0.1-0.6-0.2c0.399,0.2,0.6,0.4,0.6,0.5
			c0,0.4-0.2,0.6-0.6,0.7c0,0.2,0,0.3,0.1,0.6c0,0.1,0,0.1,0,0.1c0,0.1-0.1,0.1-0.2,0.1c-0.199,0-0.399-0.3-0.699-0.8l0,0
			c-0.301,0-0.601-0.1-1.101-0.2c0.101,0.2,0.3,0.2,0.4,0.4c-0.101,0-0.3,0-0.5,0c-0.7,0-1.3-0.1-1.8-0.4v-0.3
			c-0.5,0-1.101-0.2-1.7-0.3c0,0.1-0.101,0.3-0.2,0.6h-0.1c-0.101-0.3-0.2-0.6-0.301-0.7c-1.5-0.3-3.1-0.5-4.899-0.6
			c-0.101,0.3-0.4,0.6-0.601,1c-0.199-0.2-0.399-0.5-0.5-1c-1.1-0.1-2.2-0.2-3.3-0.2c0,0-0.4,0.1-1.1,0.2c-0.3,0.3-0.5,0.5-0.6,0.8
			v0.9l0,0v-0.9c-0.2,0.2-0.3,0.4-0.3,0.5H28c-0.3,0-0.4-0.2-0.4-0.6c0-0.2,0-0.2,0.1-0.4c-0.5,0-1,0.2-1.6,0.2c0,0,0.1,0,0.2,0
			c0.8,0.1,1.1,0.2,1.1,0.5s-0.3,0.5-1.1,0.5c-0.5,0-0.8,0-1.1-0.2c0,0.2,0,0,0-0.2c0-0.2,0.1-0.4,0.4-0.4c-0.8,0.1-1.6,0.3-2.5,0.4
			c0.1,0.2,0.3,0.4,0.5,0.6c-0.1,0.1-0.5,0.1-1.3,0.1c-0.7,0-1.1-0.1-1.3-0.1c0-0.1,0.1-0.2,0.2-0.2c-0.2,0-0.4,0-0.5,0
			c-1.1,0.2-2.1,0.4-3.1,0.5c0.2,0.1,0.5,0.2,0.8,0.2c0.6,0.1,0.8,0.3,0.9,0.3l0.2,0.2c-0.3-0.1-0.7-0.2-1-0.3
			c-0.5-0.1-0.9-0.2-1.1-0.3c-0.9,0.2-1.8,0.3-2.4,0.4c0.2,0,0.3,0.1,0.4,0.2c0.1,0,0.1,0.1,0.1,0.4c0,0.1,0,0.1,0,0.2
			c0,0-0.1,0-0.3,0c-0.2-0.1-0.7-0.2-1.2-0.2c-0.1,0.1-0.1,0-0.1-0.3v-0.1c-1.7,0.3-2.7,0.5-2.8,0.5c-1.6-0.2-2.6-0.4-3-0.5v-0.3
			c-0.2-0.1-0.4-0.1-0.5-0.1c-0.3-0.3-0.5-0.3-0.7-0.3c-0.3,0-0.4,0-0.4,0.3l0.1,0.3c0,0.1,0.1,0.2,0.2,0.2c0.2,0,0.4,0.1,0.7,0.2
			c-0.2,0.1-0.2,0.2-0.2,0.3c0,0.2,0.3,0.2,0.8,0.3c0.2,0.1,0.4,0.1,0.5,0.2c0,0,0.1,0.1,0.3,0.1c0.3-0.2,0.6-0.2,1.1-0.2
			c0.3,0,0.7,0,1,0.2c0.1,0.1,0.2,0.1,0.2,0.1c0.1,0,0.3-0.1,0.4-0.2c0.6-0.3,1.2-0.5,2-0.5c0.7,0,1.2,0,1.6,0.2c0.1,0,0.1,0,0.1,0
			c0.2,0,0.3-0.2,0.5-0.3c0.5-0.5,1.2-0.7,1.8-0.7c0.6,0,1.1,0.1,1.5,0.3l0.3,0.2c0.1,0,0.2-0.2,0.5-0.3c0.6-0.5,1.3-0.6,2.3-0.4
			c0.7,0,1.2,0.2,1.4,0.4c0-0.2,0.1-0.3,0.4-0.4c0.5-0.5,1.2-0.7,2.4-0.7c1.1,0,1.8,0.2,1.9,0.6c0.7-0.8,1.7-1.1,2.9-0.9
			c1.4,0.3,2.2,0.7,2.5,1.2c0.101-0.2,0.3-0.3,0.5-0.5c0.4-0.4,1.2-0.7,2.3-0.7c1,0,1.7,0.2,2.301,0.7c0.399,0.4,0.8,0.7,1,0.9
			c0-0.1,0.199-0.2,0.699-0.6c0.5-0.3,1.101-0.6,2-0.5c0.801,0,1.601,0.4,2.101,0.9c0.1,0.1,0.2,0.3,0.3,0.3c0,0,0,0,0.1,0
			c0.601-0.3,1.2-0.5,1.601-0.5c0.6,0,1,0.2,1.3,0.5s0.4,0.4,0.5,0.5c0.8-0.5,1.6-0.7,2.1-0.8c0.601,0,1.101,0.2,1.601,0.6
			c0.5,0.4,0.7,0.5,0.8,0.5l0.1,0.1l0.601-0.4c0.399-0.2,0.7-0.2,1-0.2c0.2,0,0.5,0.2,0.899,0.4c0.101,0,0.2,0.1,0.2,0.1
			c0.101-0.1,0.4-0.1,0.601-0.3c0.5-0.3,1-0.6,1.3-0.7l-0.101,0.6v0.3c0.101,0.1,0.101,0.2,0.301,0.2c0.399,0,0.5-0.4,0.5-1.3
			c0-0.6-0.301-0.6-1.101-0.3c-0.1,0.1-0.2,0.2-0.2,0.2c-0.1,0-0.1,0-0.199,0c-0.801,0-1.301,0.2-1.4,0.4c-0.2-0.2-0.5-0.2-0.8-0.2
			c-0.4,0-0.601,0-0.9,0.1c0-0.1-0.1-0.1-0.1-0.1c-0.101-0.1-0.4-0.1-0.8-0.1c-0.101,0-0.2,0-0.2,0.1c-0.5-0.5-1.101-0.7-1.9-0.7
			c-0.2,0-0.399,0-0.5,0c-0.2-0.2-0.399-0.3-0.5-0.3c-0.1,0-0.2,0-0.3,0c-0.2,0-0.3-0.1-0.4-0.2c-0.399-0.1-0.8-0.2-0.899-0.1
			C47.8,3.109,47.6,3.009,47.6,2.909z M46.5,4.009c0.2-0.3,0.5-0.4,0.7-0.4c0.101,0,0.4,0,0.601,0.1c0.399,0.2,0.5,0.4,0.699,0.5
			c-0.1,0.3-0.3,0.4-0.5,0.4c-0.199,0-0.399,0-0.8-0.2C46.8,4.209,46.6,4.209,46.5,4.009z M36.9,2.209c0.1,0,0.2,0,0.3,0
			c0.3,0,0.601,0.1,1.3,0.4c0.601,0.2,1,0.3,1.101,0.5c-0.101,0.1-0.101,0.3-0.2,0.3s-0.2,0.1-0.4,0.1c-0.3,0-0.6-0.1-1.1-0.4
			C37.3,2.709,37,2.409,36.9,2.209z M32.1,3.009c-0.5-0.2-0.8-0.4-0.8-0.6c0.3-0.2,0.7-0.2,1.2,0c0.5,0.1,0.801,0.3,1,0.5
			c-0.199,0.3-0.3,0.5-0.5,0.5C32.7,3.409,32.5,3.209,32.1,3.009z M19.6,4.209c0,0,0,0,0.1,0H19.6L19.6,4.209z M18.6,3.909
			c-0.1,0-0.1,0-0.1,0S18.5,3.909,18.6,3.909z"/>
		<path fill="#D27C5E" d="M47.2,3.609c-0.2,0-0.5,0.1-0.7,0.4c0.101,0.2,0.301,0.2,0.7,0.4c0.4,0.2,0.601,0.2,0.8,0.2
			c0.2,0,0.4-0.1,0.5-0.4c-0.199-0.1-0.3-0.3-0.699-0.5C47.6,3.609,47.3,3.609,47.2,3.609z"/>
		<path fill="#D27C5E" d="M37.2,2.209c-0.1,0-0.2,0-0.3,0c0.1,0.2,0.4,0.5,1,0.9c0.5,0.3,0.8,0.4,1.1,0.4c0.2,0,0.301-0.1,0.4-0.1
			s0.1-0.2,0.2-0.3c-0.101-0.2-0.5-0.3-1.101-0.5C37.8,2.309,37.5,2.209,37.2,2.209z"/>
		<path fill="#D27C5E" d="M31.3,2.409c0,0.2,0.3,0.4,0.8,0.6c0.399,0.2,0.6,0.4,0.899,0.4c0.2,0,0.301-0.2,0.5-0.5
			c-0.199-0.2-0.5-0.4-1-0.5C32,2.209,31.6,2.209,31.3,2.409z"/>
		<path fill="#BB684F" d="M45.7,4.109c0,0,0,0,0-0.1c-0.1-0.3-0.1-0.4-0.1-0.6c0.399-0.1,0.6-0.3,0.6-0.7c0-0.1-0.2-0.3-0.6-0.5
			c-0.3-0.1-0.601-0.2-1-0.3c-0.601-0.3-1.4-0.5-2.4-0.7c-1.6-0.3-3.2-0.6-4.7-0.8c-2.199-0.2-4.3-0.2-6.1,0c-0.7,0-1.3,0.1-2,0.2
			c-0.2,0-0.6,0.1-0.8,0.2c-1.8,0.4-3.1,0.6-3.9,0.8c-0.3,0-2,0.3-5.1,1c-0.9,0.2-2,0.4-3.1,0.6c-3.3,0.8-6.2,1.1-8.4,1v0.1v0.3
			c0.4,0.1,1.4,0.3,3,0.5c0.1,0,1.1-0.2,2.8-0.5c0,0,0-0.1,0-0.2h0.7c0.1,0,0.2,0,0.4,0c0.6-0.1,1.5-0.2,2.4-0.4
			c-0.1-0.1-0.1-0.1-0.2-0.1c0.1,0,0.3,0,0.4,0c1-0.1,2-0.3,3.1-0.5c0.1,0,0.3,0,0.5,0c0.3-0.5,0.7-0.7,1.1-0.7
			c0.3,0,0.5,0.2,0.8,0.3c0.9-0.1,1.7-0.3,2.5-0.4c0.1-0.1,0.3-0.1,0.5-0.2c0.6,0,1.1-0.2,1.6-0.2c-0.1,0.2-0.1,0.2-0.1,0.4
			c0,0.4,0.1,0.6,0.4,0.6h0.2c0-0.1,0.1-0.3,0.3-0.5c0.1-0.3,0.3-0.5,0.6-0.8c0.7-0.1,1.1-0.2,1.1-0.2c1.1,0,2.2,0.1,3.3,0.2
			c0.101,0.5,0.301,0.8,0.5,1c0.2-0.4,0.5-0.7,0.601-1c1.8,0.1,3.399,0.3,4.899,0.6c0.101,0.1,0.2,0.4,0.301,0.7h0.1
			c0.1-0.3,0.2-0.5,0.2-0.6c0.6,0.1,1.2,0.3,1.7,0.3l0,0c0.399-0.1,0.8-0.2,1.3,0c0.2,0.1,0.5,0.2,0.6,0.3
			c0.5,0.1,0.8,0.2,1.101,0.2l0,0c0.3,0.5,0.5,0.8,0.699,0.8C45.6,4.209,45.7,4.209,45.7,4.109z"/>
		<path fill="#D27C5E" d="M43.1,2.909c-0.5-0.2-0.9-0.1-1.3,0l0,0v0.3c0.5,0.3,1.1,0.4,1.8,0.4c0.2,0,0.399,0,0.5,0
			c-0.101-0.2-0.3-0.2-0.4-0.4C43.6,3.109,43.3,3.009,43.1,2.909z"/>
		<path fill="#CA6D54" d="M42.2,1.209c1,0.2,1.8,0.4,2.4,0.7c-1.3-0.7-2.5-1-3.4-1.1c-0.399,0-1.1-0.1-2.2-0.3
			c-1-0.2-2.199-0.3-3.5-0.3c-1.199,0-2.1,0-2.8,0c-0.4,0-0.7,0.1-1.3,0.2c1.8-0.2,3.9-0.2,6.1,0C39,0.609,40.6,0.909,42.2,1.209z"
			/>
		<path fill="#D27C5E" d="M26.1,2.409c-0.2,0.1-0.4,0.1-0.5,0.2c-0.3,0-0.4,0.2-0.4,0.4c0,0.2,0,0.4,0,0.2c0.3,0.2,0.6,0.2,1.1,0.2
			c0.8,0,1.1-0.2,1.1-0.5s-0.3-0.4-1.1-0.5C26.2,2.409,26.1,2.409,26.1,2.409z"/>
		<path fill="#CA6D54" d="M28.6,0.809c-0.5,0.1-1,0.1-1.6,0.2c-3.6,0.5-6,1.1-7.4,1.6c3.1-0.7,4.8-1,5.1-1
			C25.5,1.409,26.8,1.209,28.6,0.809z"/>
		<path fill="#D27C5E" d="M21,3.609c0.2,0,0.6,0.1,1.3,0.1c0.8,0,1.2,0,1.3-0.1c-0.2-0.2-0.4-0.4-0.5-0.6c-0.3-0.1-0.5-0.3-0.8-0.3
			c-0.4,0-0.8,0.2-1.1,0.7C21.1,3.409,21,3.509,21,3.609z"/>
		<path fill="#D27C5E" d="M17.6,3.909c-0.1,0-0.3,0-0.4,0c0.1,0,0.1,0,0.2,0.1c0.2,0.1,0.6,0.2,1.1,0.3c0.3,0.1,0.7,0.2,1,0.3
			l-0.2-0.2c-0.1,0-0.3-0.2-0.9-0.3C18.1,4.109,17.8,4.009,17.6,3.909z"/>
		<path fill="#D27C5E" d="M15.5,5.209c0-0.1,0-0.1,0-0.2c0-0.3,0-0.4-0.1-0.4c-0.1-0.1-0.2-0.2-0.4-0.2c-0.2,0-0.3,0-0.4,0h-0.7
			c0,0.1,0,0.2,0,0.2v0.1c0,0.3,0,0.4,0.1,0.3c0.5,0,1,0.1,1.2,0.2C15.4,5.209,15.5,5.209,15.5,5.209z"/>
		<path fill="#CA6D54" d="M47.8,13.409c0,0,0,0,0.1,0c0.3,0,0.5-0.1,0.5-0.2c0,0-0.2-0.1-0.6-0.3c-0.301,0-0.601-0.1-0.601-0.1
			c0-0.101-0.2,0.1-0.5,0.399c-0.399,0.3-1,0.4-1.8,0.2c-0.8-0.1-1.3-0.3-1.4-0.6c-0.199-0.301-0.3-0.4-0.3-0.301
			c0,0.101-0.1,0.2-0.5,0.601c-0.1,0-0.1,0-0.1,0c0.2,0,0.399-0.101,0.6-0.2c0.101,0.1,0.3,0.3,0.3,0.4c0,0.1-0.1,0.199-0.199,0.3
			c0,0,0.1,0,0.199,0l0.101-0.101c0,0.101,0,0.101,0,0.2c0,0.2-0.101,0.3-0.2,0.5c0.4,0,0.8,0,0.8,0c0.3,0,0.4,0.2,0.4,0.3
			c0,0.101,0,0.2,0,0.2C46.6,14.209,47.7,13.709,47.8,13.409z"/>
		<path fill="#D27C5E" d="M43.5,13.31c0-0.101-0.199-0.301-0.3-0.4c-0.2,0.1-0.399,0.2-0.6,0.2c-0.2,0.1-0.4,0.1-0.5,0.1
			c-0.101,0.101-0.3,0.2-0.5,0.2c-0.101,0.1-0.3,0.2-0.3,0.3v0.2c0.3,0.2,0.5,0.3,0.699,0.3c0.2,0,0.5-0.1,0.7-0.2
			c0.2-0.1,0.3-0.1,0.4-0.199c0.1-0.101,0.1-0.2,0.2-0.2C43.4,13.509,43.5,13.409,43.5,13.31z"/>
		<path fill="#BB684F" d="M43.5,13.609c-0.1,0-0.199,0-0.199,0c-0.101,0-0.101,0.1-0.2,0.2c-0.101,0.1-0.2,0.1-0.4,0.199
			c0,0.101,0,0.101-0.1,0.101c0,0.1,0,0.1,0,0.1c-3.4,0.2-5.9,0.4-7.5,0.5c-0.101-0.1-0.101-0.2-0.3-0.3
			c-0.101-0.2-0.301-0.3-0.5-0.3v0.1c0,0.101,0,0.2,0.199,0.5c-0.5,0-0.899,0-1.3,0l0,0c-0.2,0-0.3,0-0.399,0c-0.301,0-0.601,0-1,0
			c-0.1-0.1-0.2-0.3-0.2-0.5c-0.4-0.6-0.8-0.8-1.2-0.6c0.1,0.3,0.2,0.7,0.5,1.1c-0.8,0-1.7-0.1-2.5-0.1c-0.6,0-1.2-0.101-1.7-0.2
			c-0.1-0.2-0.2-0.3-0.2-0.5c-0.3-0.4-0.5-0.6-0.9-0.6v0.1c0,0.2,0,0.3-0.1,0.4c0.1,0.199,0.1,0.399,0.2,0.6c-0.3,0-0.5,0-0.8-0.1
			c-0.4,0-1.2-0.2-2.3-0.601c0,0,0,0,0-0.1c-0.4-0.4-0.7-0.601-1.1-0.4c0,0.101,0.1,0.4,0.3,1c0,0,0,0,0,0.101
			c0,0.1,0.2,0.199,0.3,0.3c0.1,0.1,0.1,0.1,0.2,0.1c0.2,0.2,0.3,0.4,0.4,0.4c0.2,0,0.3,0,0.3-0.101c0.4,0.2,0.9,0.2,1.5,0.4
			c2.1,0.4,4.9,0.6,8.3,0.6c0.8,0,2.199-0.1,4.3-0.3H37.5c0.9,0,1.601-0.1,2-0.1c0.101,0,0.2,0,0.4,0c0.6-0.101,1.2-0.2,1.8-0.2
			c0.5,0,1-0.1,1.5-0.2c0.8,0,1.3-0.1,1.4-0.5c0,0,0-0.1,0-0.2c0-0.1-0.101-0.3-0.4-0.3c0,0-0.399,0-0.8,0c0.1-0.2,0.2-0.3,0.2-0.5
			c0-0.1,0-0.1,0-0.2L43.5,13.609z"/>
		<path fill="#CA6D54" d="M41.6,13.409c-0.101,0-0.4,0-0.601,0c-0.8,0-1.3-0.2-1.699-0.5c-0.101-0.2-0.2-0.3-0.2-0.3
			c-0.101,0-0.5,0.3-1,0.8s-1.4,0.6-2.4,0.2c-0.899-0.2-1.5-0.601-1.6-1c0,0.1-0.101,0.5-0.5,0.899c-0.3,0.4-1,0.5-2.2,0.101
			c-0.7-0.2-1.1-0.4-1.3-0.7c-0.7,0.6-1.5,0.8-2.4,0.8c-1.1-0.1-1.6-0.3-1.8-0.5c-0.2-0.3-0.3-0.5-0.3-0.5c-0.1,0-0.3,0.2-0.4,0.3
			c-0.4,0.2-0.9,0.301-1.5,0.301c-0.6,0-1.1-0.101-1.4-0.2c-0.1,0-0.2-0.101-0.3-0.2l0,0l-0.3-0.1c-0.5,0.399-1,0.6-1.7,0.399
			c-0.8-0.1-1.2-0.3-1.4-0.5c-0.1-0.1-0.2-0.1-0.3-0.1s-0.2,0.1-0.2,0.3v0.2c0,0,0,0.1,0.1,0.1c0.1,0,0.2-0.1,0.4-0.2
			c0.2,0.4,1.4,1,3.5,1.601c-0.1-0.101-0.3-0.2-0.3-0.3c0-0.101,0-0.101,0-0.101c-0.2-0.6-0.3-0.899-0.3-1c0.4-0.2,0.7,0,1.1,0.4
			c0,0.1,0,0.1,0,0.1c1.1,0.4,1.9,0.601,2.3,0.601c0.3,0.1,0.5,0.1,0.8,0.1c-0.1-0.2-0.1-0.4-0.2-0.6c-0.2,0.3-0.5,0.399-1.2,0.399
			c-0.3,0-0.6-0.1-0.8-0.3c0.1-0.2,0.5-0.3,1.1-0.5c0.5-0.2,0.8-0.3,0.9-0.3c0,0.1,0.1,0.1,0.1,0.1s0,0,0,0.101
			c0.4,0,0.6,0.199,0.9,0.6c0,0.2,0.1,0.3,0.2,0.5c0.5,0.1,1.1,0.2,1.7,0.2c0.8,0,1.7,0.1,2.5,0.1c-0.3-0.399-0.4-0.8-0.5-1.1
			c0.4-0.2,0.8,0,1.2,0.6c0,0.2,0.1,0.4,0.2,0.5c0.4,0,0.7,0,1,0c0.1,0,0.199,0,0.399,0c-0.3,0-0.5-0.1-0.6-0.2
			c0.2-0.3,0.399-0.399,0.6-0.6c0.4-0.2,0.7-0.2,1,0.1c0,0.2-0.1,0.301-0.3,0.4c-0.2,0.2-0.4,0.3-0.7,0.3c0.4,0,0.8,0,1.3,0
			c-0.199-0.3-0.199-0.399-0.199-0.5v-0.1c0.199,0,0.399,0.1,0.5,0.3c0.199,0.1,0.199,0.2,0.3,0.3c1.6-0.1,4.1-0.3,7.5-0.5
			c0,0,0,0,0-0.1c0.1,0,0.1,0,0.1-0.101c-0.2,0.101-0.5,0.2-0.7,0.2c-0.199,0-0.399-0.1-0.699-0.3v-0.2
			C41.3,13.609,41.5,13.509,41.6,13.409z M39.3,13.009c0.1,0,0.1,0.101,0.1,0.2c0,0.2-0.2,0.4-0.4,0.601
			c-0.3,0.3-0.5,0.399-0.699,0.399h-0.2c-0.101,0.101-0.2,0-0.2-0.2c0-0.3,0.2-0.399,0.4-0.6c0.399-0.2,0.8-0.3,0.899-0.5
			C39.2,13.009,39.3,13.009,39.3,13.009z M29.2,13.81c0.5-0.2,0.9-0.2,1-0.101c0,0.2-0.1,0.3-0.4,0.5c-0.3,0.2-0.6,0.3-0.8,0.3
			l-0.7-0.1c-0.1,0-0.1-0.2-0.1-0.2C28.3,14.109,28.6,13.909,29.2,13.81z"/>
		<path fill="#D27C5E" d="M39.4,13.209c0-0.1,0-0.2-0.1-0.2c0,0-0.101,0-0.101-0.1c-0.1,0.2-0.5,0.3-0.899,0.5
			c-0.2,0.2-0.4,0.3-0.4,0.6c0,0.2,0.1,0.301,0.2,0.2h0.2c0.199,0,0.399-0.1,0.699-0.399C39.2,13.609,39.4,13.409,39.4,13.209z"/>
		<path fill="#D27C5E" d="M30.2,13.709c-0.1-0.1-0.5-0.1-1,0.101c-0.6,0.1-0.9,0.3-1,0.399c0,0,0,0.2,0.1,0.2l0.7,0.1
			c0.2,0,0.5-0.1,0.8-0.3C30.1,14.009,30.2,13.909,30.2,13.709z"/>
		<path fill="#CA6D54" d="M39.9,15.609c0,0,0,0,0.1,0c0.5,0,1.101-0.101,1.7-0.2C41.1,15.409,40.5,15.509,39.9,15.609z"/>
		<path fill="#D27C5E" d="M33.9,14.409c0.2-0.1,0.3-0.2,0.3-0.4c-0.3-0.3-0.6-0.3-1-0.1c-0.2,0.2-0.399,0.3-0.6,0.6
			c0.1,0.101,0.3,0.2,0.6,0.2l0,0C33.5,14.709,33.7,14.609,33.9,14.409z"/>
		<path fill="#D27C5E" d="M25.6,13.209c0,0-0.1,0-0.1-0.1c-0.1,0-0.4,0.1-0.9,0.3c-0.6,0.2-1,0.3-1.1,0.5c0.2,0.2,0.5,0.3,0.8,0.3
			c0.7,0,1-0.1,1.2-0.399c0.1-0.101,0.1-0.2,0.1-0.4v-0.1C25.6,13.209,25.6,13.209,25.6,13.209z"/>
		<path fill="#CA6D54" d="M39.2,12.409L39.2,12.409h-0.1C39.1,12.409,39.1,12.409,39.2,12.409z"/>
	</g>
	<g>
		<path d="M62,3.909c0-1.1-0.3-1.6-0.8-1.5c-0.6,0-2,0.5-4.399,1.5c-2.301,0.8-5.801,0.3-10.5-1.7c-4.7-1.9-10-2.6-15.8-2
			c-4.7,0.5-8.9,1.4-12.9,2.5c-3.9,1.2-7,1.6-9.1,1.2c-2.2-0.3-3.7-0.8-4.6-1.3c-0.9-0.4-1.6-0.4-1.8,0.2c-0.4,0.6-0.3,0.9,0.1,1.1
			c0.4,0.2,2,0.7,4.6,1.4c0.5,0.3,1.5,0.9,2.8,1.8c2,1.3,3.5,2.399,4.4,3.3c2.6,2.4,5.5,4.1,8.5,5c2.5,0.8,6.7,1,12.7,0.8
			s9.8-0.8,11.601-1.7c1.8-0.899,4.399-2.899,7.8-5.699c1.899-1.601,3.2-2.8,4.1-3.4c0.101-0.1,0.4-0.3,0.601-0.5
			c0.6-0.3,1.3-0.4,2-0.4C61.7,4.209,62,4.109,62,3.909z M57.8,4.209c2.3-1,3.3-1.2,3-0.5c-1,0.2-3,1.7-6.101,4.3
			c-3.2,2.9-6.1,4.9-8.5,6.1c-2.5,1.1-7.5,1.8-14.9,1.8c-3.3,0-6-0.3-7.9-0.9c-3.3-0.899-5.9-2.399-7.9-4.3c-2-1.8-3.8-3.3-5.3-4.1
			c-1.6-0.9-2.5-1.4-2.7-1.7c-0.3-0.2-0.8-0.3-1.8-0.5c-0.9-0.2-1.5-0.2-1.5-0.2c-1.5-0.4-1.9-0.8-1.4-1.2c1.2,0.2,2.4,0.6,3.7,1
			c1.2,0.4,2.2,0.6,2.8,0.6c0.4,0,1.3,0,2.7,0c1.2,0,5.5-1,12.5-2.8c7.1-1.9,13.1-1.9,18.4-0.1c5.3,1.8,8.7,2.9,10.3,3.2
			C54.8,5.209,56.3,4.909,57.8,4.209z"/>
		<path d="M50.1,13.509c-0.8,0.601-1.9,1.101-3.5,1.7c-1.7,0.5-3.7,0.9-6,1.2h0.1H41c1.5,0,3.601-0.3,6.301-1.2
			c0.399-0.1,0.899-0.3,1.5-0.6c0.699-0.5,1.1-0.8,1.399-1L50.1,13.509z"/>
		<path d="M21.6,1.209c2.1-0.5,3.4-0.7,3.6-0.8c-0.5,0-1.9,0.3-4.4,0.9c-2.3,0.6-3.7,1-4.1,1.1H17C17.8,2.209,19.3,1.809,21.6,1.209
			z"/>
		<path d="M17.6,14.009L17.6,14.009c1,0.7,2.5,1.4,4.4,1.9c2,0.7,3.8,1,5.5,1c0.2,0,0.5,0,0.7-0.2c-3-0.1-5.4-0.5-7-1.1
			C19.8,14.81,18.6,14.31,17.6,14.009z"/>
	</g>
</g>
</svg>
