<?xml version="1.0" encoding="utf-8"?>
<!-- Generator: Adobe Illustrator 13.0.0, SVG Export Plug-In . SVG Version: 6.00 Build 14948)  -->
<svg version="1.2" baseProfile="tiny" id="Layer_1" xmlns="http://www.w3.org/2000/svg" xmlns:xlink="http://www.w3.org/1999/xlink"
	 x="0px" y="0px" width="27.738px" height="23.021px" viewBox="0 0 27.738 23.021" xml:space="preserve">
<g>
	<g>
		<path fill="#F15B5B" d="M7.9,5.1C7.8,5,7.6,5,7.4,5.1c0.3,0.4,0.4,0.8,0.5,1.2c0.5,1.3,1.3,2.4,2,3.3v0.1C8.8,8.5,7.9,6.9,7.3,5
			C5.8,5.1,4.5,6.4,3.2,8.6c0.5,0.9,0.8,1.6,1.2,2c0.4,0.5,0.8,1,1.3,1.4c0.6,0.1,1.1,0,1.6-0.5C5.9,10.2,5.2,9.3,5,8.7l0.1-0.2
			c0.4,0.9,1.2,1.8,2.4,2.9c0.8,0.1,1.4,0.1,1.7-0.1c0.3-0.2,0.5-0.3,0.3-0.4c-0.1-0.2-0.2-0.3-0.4-0.5C8.1,9,7.4,8,7.3,7.5
			c0-0.1,0-0.3,0.1-0.4C7.9,8.4,8.8,9.6,10,11c0.7,0.4,1.3,0.3,1.6,0c-0.4-0.8-0.8-1.5-1.1-2c-0.6-1.1-1-2-1.3-2.6
			C8.9,6,8.7,5.5,8.5,5.1C8.3,5.1,8.2,5.1,7.9,5.1z M5.3,7.4L5.2,7l0.1-0.1C5.8,8,6.4,9,7.2,9.9L7.3,10C6.4,9.5,5.8,8.6,5.3,7.4z"/>
		<path fill="#F15B5B" d="M13,3.1c0,0,0.2,0.2,0.2,0.3c0.4,0.6,0.7,1,0.8,1.1c0.2,0.5,0.6,1.2,1.3,2.2l0.6,2c0.5,0,0.8-0.3,0.9-1
			c0-0.3-0.101-0.6-0.101-0.9C16.3,5.9,16.1,5.3,16.1,5c-0.1,0,0-0.1,0.1-0.2C16.3,5.3,16.7,5.9,16.8,6.7c0.1,0.3,0.1,0.6,0.1,0.8
			c0.4-0.2,0.8-0.5,1.3-1.1L16.3,0.6l-0.4-0.3c-0.7,0.2-1.3,0.7-1.8,1.4C13.9,2.2,13.4,2.7,13,3.1z"/>
		<path fill="#F15B5B" d="M12.4,3.7c0.1,0.3,0.4,0.8,0.5,1.2c0.6,1.1,1,2.1,1.3,3.2c0.101,0.4,0.2,1,0.2,2c0.4-0.1,0.8-0.4,0.9-0.6
			c0.2-0.2,0.5-0.4,0.6-0.5c-0.5-0.9-0.6-1.4-0.8-1.7c-0.7-1.6-1.4-2.9-2.2-4.1C12.7,3.4,12.5,3.5,12.4,3.7z"/>
		<path fill="#F15B5B" d="M12.7,4.9c-0.2-0.4-0.4-0.8-0.5-1.1C11.3,4.5,10.4,5,9.4,5.1c0.4,1,0.8,2,1.4,3.3c0.4,0.9,0.8,1.8,1.4,2.6
			c0.2,0.1,0.6,0,0.8-0.4C12.3,10,11.9,9.4,11.8,9h0.1c0.4,0.6,0.9,1.1,1.4,1.5c0.4,0.2,0.7,0.1,0.899-0.2c0-0.2,0-0.4,0-0.6
			C14.2,9,14,8.4,14,8.1C13.8,7.3,13.3,6.1,12.7,4.9z"/>
		<path fill="#F15B5B" d="M18.8,3.5c-0.5-0.8-0.601-1.1-0.7-1.2L18.2,2C18.7,2.9,19,3.9,19.4,5.1c0,0,0.3-0.1,0.7-0.2
			c0.3-0.2,0.7-0.6,1.2-1.2c-0.2-0.6-0.5-1.2-0.9-2c-0.2-0.6-0.5-1.2-0.7-1.6C19.3,0,18.8,0,18.3,0c0.1,0.1,0.2,0.3,0.3,0.5
			c0.7,1,1,1.6,1.1,2.1V3l0,0c-0.3-0.3-0.399-0.6-0.6-1.1s-0.3-0.9-0.4-1L18.2,0C17.4,0,16.8,0,16.3,0.1c0.2,0.6,0.5,1.3,0.899,2.3
			c0.5,1.4,0.9,2.7,1.101,3.7c0.6-0.1,1-0.5,1.1-0.9C19.2,4.7,18.9,4.1,18.8,3.5z"/>
		<path fill="#F15B5B" d="M20.8,1.7c0,0.2,0.1,0.8,0.5,2C21.8,3.9,22,3.6,22,3.3C21.9,3.1,21.9,3,21.9,3c-0.1-0.9-0.399-1.7-0.6-2.5
			c-0.4-0.1-1-0.2-1.4-0.3L20.8,1.7z"/>
		<path fill="#F15B5B" d="M22.9,2.9L22.5,1.5c0,0,0-0.1,0.1-0.2c0.1,0.3,0.3,0.8,0.5,1.6c0.5-0.3,1.6-0.5,3.2-0.7
			c-1.8-0.8-3.4-1.3-4.9-1.7c0.4,1,0.601,1.8,0.8,2.1C22.2,3,22.3,3.1,22.5,3.1C22.7,3.1,22.8,3.1,22.9,2.9z"/>
		<path fill="#F15B5B" d="M27.3,6c-0.8-0.5-1.4-0.9-2-1.2C24.9,5,24.5,5.4,24.4,6c0.4,0.3,0.8,0.6,1.3,1.1c0.801,0.8,1.5,1.6,2,2.3
			C27.5,8.1,27.4,7,27.3,6z"/>
		<path fill="#F15B5B" d="M25.5,4.5C25.7,4.6,25.9,4.7,26.1,4.9c0.3,0.2,0.8,0.5,1.2,0.9C27.1,3.9,27,2.7,27,2.3
			C26.2,3,25.7,3.7,25.5,4.5z"/>
		<path fill="#F15B5B" d="M27.7,10L27.5,9.6C27.3,9.4,26.4,8.5,25,7.1C24.7,6.8,24.4,6.5,24.3,6.3c-0.4,0.2-0.601,0.3-0.9,0.4
			c-0.2,0.2-0.399,0.5-0.5,1c0.4,0.6,0.9,1,1.3,1.8c0.101,0.1,0.7,1.1,1.7,3c0,0.1,0,0.1,0,0.2h-0.1c-0.5-1.2-1.101-2.1-1.8-3
			c-0.5-0.8-0.801-1.2-1-1.5C22.9,8,22.9,8,22.8,8c-0.7,0.1-1,0.5-1.3,1.2c0.6,0.7,0.8,1,0.899,1.1c1.2,1.4,2,2.601,2.3,3.2
			c0.301,0.4,0.7,1.1,1.2,2.1c1-0.6,1.4-1.5,1.4-2.6c-0.101-0.3-0.2-0.5-0.3-0.6c-0.7-1.1-1-1.8-1.101-1.9L24.5,8.6
			c0.1,0,0.199-0.1,0.1-0.1c0.9,1,1.9,2.2,2.7,3.7c0,0.1,0.1,0.2,0.1,0.3C27.7,11.7,27.8,10.9,27.7,10z"/>
		<path fill="#F15B5B" d="M18.5,14.6L16.7,13.1C16.1,13,15.8,13.3,15.6,13.7c0.3,0.399,0.7,0.899,1.1,1.399
			c1.101,1.5,1.601,2.5,1.9,3.5L18.5,18.7v0.1c-0.101-0.1-0.301-0.6-0.7-1.5l-1-1.7c-0.4-0.5-0.9-1.1-1.5-1.8
			c-0.5-0.1-0.8-0.1-0.8,0.2C14.4,14.1,14.4,14.3,14.4,14.4c0,0.899,0,1.399,0.2,1.899c0.1,0.3,0.3,0.8,0.7,1.601
			C15.7,18.6,16,19.1,16,19.2v0.1c-1.101-1-1.801-2.399-2.3-4.2c0-0.199,0-0.399,0-0.6c-0.3,0-0.7-0.1-1.4-0.1c-0.7,0-1.6,0.3-3,1
			c0,0-0.1,0.3-0.1,0.6c0.1,0.4,0.2,1.1,0.5,2c0.2,1,0.6,1.9,1,2.6V20.9h-0.2C9.8,19.1,9.4,18.2,9.4,18.1c-0.3-1.1-0.5-2-0.5-2.699
			C8.4,15,7.9,15.1,7.4,15.6l0,0c0.6,2,1.3,3.801,2.1,5.5c0.4,0.5,0.7,1,1,1.601c1.2,0.5,2,0.399,2.9-0.2c-0.1-0.1-0.2-0.3-0.4-0.4
			c-0.7-1.3-1.2-2.199-1.4-2.8c-0.1-0.2-0.1-0.3,0.1-0.399c0.5,1.199,1.2,2.399,2,3.699c2-0.199,3.6-0.699,5.1-1.5
			C20,20.4,20.9,19.7,21.4,19.4C21,18.4,20.7,17.6,20.3,17.1C19.3,15.6,18.8,14.8,18.5,14.6z"/>
		<path fill="#F15B5B" d="M19.4,13c0-0.1,0.101-0.2,0.101-0.3c1.199,1.2,2.3,2.5,3.1,4.1c0.2,0.3,0.3,0.8,0.7,1.3
			c1.1-0.5,2-1.3,2.399-2.3c-0.5-1-0.8-1.7-1.199-2.2c-0.801-1.399-2-2.8-3.2-4.2c-0.5,0.1-0.9,0.4-1.2,1.1c0.2,0.3,0.4,0.6,0.7,1
			c1.5,2.2,2.399,3.7,2.5,4.4v0.3L23.2,16.3L23,15.9C22.9,15.5,22.6,14.8,21.9,13.7c-0.5-1-0.8-1.5-1-1.7c-0.399-0.5-0.7-1-1-1.4
			c-1.2,0.5-2.2,1.2-3,2.3C19,14.3,20.6,16.3,21.7,19.1c0.5-0.199,1-0.6,1.4-1c-0.2-0.399-0.4-0.8-0.5-1c-0.3-0.699-1-1.6-1.9-2.699
			C19.9,13.5,19.4,13,19.4,13z"/>
		<path fill="#F15B5B" d="M7.2,15.7V15.6C6.5,15.2,5.8,15.4,5.2,15.9L5.3,17.1l0.6,1.4c0,0.2,0.2,0.4,0.3,0.6c0.5,1,0.8,1.601,1,2
			C7.3,21.4,7.5,21.9,7.8,22.2c1,0.7,1.8,0.8,2.5,0.5c-0.4-0.4-0.6-1-0.9-1.3C8.6,20.2,7.9,18.3,7.2,15.7z"/>
		<path fill="#F15B5B" d="M2.8,11.1c0-0.1,0.1-0.1,0-0.1C3,11.2,3.4,11.7,4,12.4c0.2,0.1,0.3,0.2,0.3,0.4c0.6,0.101,1-0.2,1-0.7
			c-0.4-0.5-0.8-0.9-1-1.3C3.7,10,3.3,9.4,3,8.7c-0.5,1-0.8,1.9-1.3,3.1c-0.1,0.1,0,0.1-0.1,0.2c0.4,0.5,0.9,1,1.5,1.5
			c0.6,0,1-0.2,1.2-0.7c-0.1-0.1-0.3-0.3-0.4-0.4C3.2,11.7,2.8,11.3,2.8,11.1z"/>
		<path fill="#F15B5B" d="M2.2,14.1c-0.4-0.399-0.9-0.6-1-0.899C0.7,14.4,0.3,15.3,0,16.1C0.8,15.3,1.4,14.7,2.2,14.1z"/>
		<path fill="#F15B5B" d="M2,13.7C2.3,14,2.4,14.1,2.5,14.1c0.2,0,0.3-0.199,0.4-0.5C2.7,13.4,2.4,13.1,2.2,12.9
			c-0.3-0.4-0.5-0.5-0.7-0.7c-0.2,0.3-0.2,0.5-0.3,0.8C1.5,13.2,1.9,13.5,2,13.7z"/>
		<path fill="#F15B5B" d="M3.1,17v-0.9c-0.9,0-1.9,0.2-2.9,0.301C0.6,17.1,1.8,18.3,3.8,19.7C3.3,18.3,3.2,17.4,3.1,17z"/>
		<path fill="#F15B5B" d="M3.1,16.1c0.1,0,0.2,0.101,0.2,0.2c0,0.601,0.2,1.8,0.7,3.4v0.2C4.3,20.1,4.6,20.4,4.9,20.6
			c0-0.1-0.1-0.199-0.1-0.3c-0.5-1-0.9-2.3-1.4-3.899c0.3,0.3,0.5,0.699,0.7,1.3c0.4,1.2,0.7,1.899,0.8,2c0,0,0.1,0.3,0.3,1h0.1
			C5.4,20.9,5.7,21.1,6,21.3c0.3,0.2,0.6,0.3,0.9,0.601c-0.1-0.5-0.5-1.2-0.8-2c-0.7-1.301-1.2-2.601-1.6-4
			C4,15.7,3.7,15.7,3.1,16.1z"/>
	</g>
</g>
</svg>
