<?xml version="1.0" encoding="utf-8"?>
<!-- Generator: Adobe Illustrator 13.0.0, SVG Export Plug-In . SVG Version: 6.00 Build 14948)  -->
<svg version="1.2" baseProfile="tiny" id="Layer_1" xmlns="http://www.w3.org/2000/svg" xmlns:xlink="http://www.w3.org/1999/xlink"
	 x="0px" y="0px" width="80.3px" height="21.013px" viewBox="0 0 80.3 21.013" xml:space="preserve">
<g>
	<g>
		<path fill="#FFFFFF" d="M70.601,5.913c-1.2-0.3-2.301-0.5-3.301-0.6c0.801,0.8,1.2,1.6,1.301,2.3c0.199,0.5,0.399,1,0.5,1.6
			c-0.4-0.6-1.2-1-2.4-1c-0.1,0-0.3,0-0.4,0.1c-1.5,0.1-2.199,1.1-2.199,2.8v0.2c0,0.101,0.199,0.4,0.199,0.8
			c0.5,0.601,1.2,0.9,2.301,0.9c0.699,0,1.199-0.1,1.699-0.4c-0.1,0-0.199,0.2-0.199,0.301c-1.2,1.899-2.9,2.8-5.301,2.8
			c-2.5,0-4.5-1-5.8-3c-0.8-1.3-1.2-2.3-1.2-3.3c0-0.6,0.101-1.2,0.301-1.6c-3.301,2.2-5.9,5.4-7.9,9.5c0.6,0.101,2.4,0.5,5.2,1.3
			c2.399,0.7,5.2,1,8.399,1c4.301-0.899,7.301-2.1,8.801-3.699c1.1-1.2,2-2.4,2.699-3.7c0.601-1.8,0.9-3.8,0.801-5.8
			C73.101,6.413,71.9,6.213,70.601,5.913z"/>
		<path d="M67.3,5.312c1,0.1,2.101,0.3,3.301,0.6c1.3,0.3,2.5,0.5,3.5,0.5c3.5-0.2,5.6-2.3,6.199-6.4c-2.399,2.1-4.8,3.2-7.3,3.1
			c-0.6,0-1.2,0-1.8-0.2c-10-1.5-16.9,1.4-20.9,8.7c-0.3,0.801-0.699,1.5-1,2.301c-0.399,0.899-0.699,1.899-1,2.899
			c0,0.101,0,0.3-0.1,0.5c2-4.1,4.6-7.3,7.9-9.5c0-0.2,0.1-0.2,0.199-0.2c0.5-0.4,0.9-0.7,1.2-0.7c-0.1,0.1-0.1,0.2-0.1,0.4
			c0,0.1,0.2,0.8,0.8,2.3c0.1,0.1,0.1,0.2,0.3,0.3c0.601,1,1.601,1.5,2.7,1.8c0.3,0.1,0.6,0.1,0.9,0.1c0.8,0,1.5-0.2,2-0.5v-0.2
			c0-1.7,0.699-2.7,2.199-2.8c0-0.2,0-0.4,0-0.5c0-1.2-0.3-2-0.899-2.7c0.2,0,0.5,0,0.899,0.1c0.101,0,0.301,0,0.5,0
			C66.9,5.213,67.101,5.213,67.3,5.312z M60.8,7.913v-0.5c0-0.3,0-0.5,0.2-0.5c0.101,0,0.5,0,1.101,0c0,0.1,0,0.2,0,0.3
			c0,0.6-0.2,0.8-0.801,0.8L60.8,7.913z"/>
		<path fill="#FFFFFF" d="M60.8,7.413v0.5l0.5,0.1c0.601,0,0.801-0.2,0.801-0.8c0-0.1,0-0.2,0-0.3c-0.601,0-1,0-1.101,0
			C60.8,6.913,60.8,7.113,60.8,7.413z"/>
		<path fill="#BCDCD2" d="M71.2,2.913c0.6,0.2,1.2,0.2,1.8,0.2c-0.899-0.5-1.899-1.1-2.899-1.6c-2-1.1-4.101-1.6-6.301-1.5
			c-1.1,0-2.199,0.1-3.199,0.4c-1.2,0.2-2.301,0.5-3.5,1c-1.9,1.1-3.5,2.5-4.801,4.5c-1.199,1.9-2.1,4-2.5,6.3l0.5-0.601
			C54.3,4.312,61.2,1.413,71.2,2.913z"/>
		<path d="M74.4,9.812H74.3c-0.199,0.8-0.6,1.601-1,2.4c-0.699,1.3-1.6,2.5-2.699,3.7c-1.5,1.6-4.5,2.8-8.801,3.699
			c-0.5,0-1,0.2-1.6,0.301c-0.1,0-0.3,0-0.4,0c0.301,0,0.5,0,0.7,0c1.3-0.2,2.5-0.301,3.601-0.5c-0.101,0.1-0.2,0.199-0.2,0.3
			c-0.101,0.1-0.101,0.1-0.101,0.1c-0.199,0.4-0.399,0.8-0.5,1c0.301-0.399,0.601-0.899,0.801-1.1c0.1-0.101,0.199-0.2,0.199-0.3
			c0.601,0,1.101-0.2,1.5-0.2c0,0,0,0.1,0,0.2c-0.199,0.3-0.199,0.699-0.199,1.199h0.1c0.1-0.5,0.1-0.899,0.3-1.199
			c0.101-0.2,0.101-0.2,0.101-0.301c0.699-0.1,1.199-0.199,1.699-0.3c0.101-0.1,0.2-0.2,0.301-0.2c0.399,0.5,0.699,0.801,0.8,0.801
			l0,0c-0.2-0.301-0.3-0.601-0.4-0.9c0.101-0.1,0.101-0.1,0.3-0.1c0.801-0.301,1.5-0.801,2.101-1.2c0.3,0.5,0.7,1.1,1.1,1.899
			c-0.2-0.699-0.5-1.1-0.7-1.5c0-0.199-0.199-0.399-0.199-0.5c0.1-0.199,0.199-0.199,0.399-0.3l0.4,0.4H72
			c-0.1-0.101-0.2-0.3-0.3-0.601c-0.1,0-0.1,0-0.1,0c0.3-0.199,0.5-0.5,0.699-0.8c0.2-0.2,0.301-0.399,0.301-0.5
			c0.5,0.101,1.1,0.601,1.699,1.3v-0.199c-0.199-0.2-0.5-0.5-1-0.9c-0.199-0.1-0.5-0.3-0.6-0.3c0.2-0.3,0.4-0.8,0.6-1.101
			c0.301,0.101,0.601,0.5,1,0.801H74.4c-0.3-0.5-0.5-0.7-0.5-0.801c-0.101-0.1-0.3-0.199-0.4-0.199c0.101-0.301,0.101-0.7,0.3-1
			l1.7,0.6c0.4,0.3,0.8,0.6,1.3,1.1v-0.1c-0.3-0.6-0.699-1.1-1-1.3c-0.399-0.3-1-0.601-1.899-0.601c0-0.1,0-0.1,0-0.199
			C74.101,11.213,74.3,10.413,74.4,9.812z"/>
		<path fill="#A9C1E2" d="M68.601,7.613c-0.101-0.7-0.5-1.5-1.301-2.3c-0.199-0.1-0.399-0.1-0.5-0.1c0,0.1,0,0.2,0.101,0.2
			c0.399,0.5,0.7,1,0.899,1.7c-0.199,0.3-0.3,0.5-0.5,0.5c-0.5,0-0.8-0.2-1-0.8l-0.199-0.7c0-0.5,0-0.7,0.199-0.9
			c-0.399-0.1-0.699-0.1-0.899-0.1c0.6,0.7,0.899,1.5,0.899,2.7c0,0.1,0,0.3,0,0.5c0.101-0.1,0.301-0.1,0.4-0.1c1.2,0,2,0.4,2.4,1
			C69,8.613,68.8,8.113,68.601,7.613z"/>
		<path fill="#6E9DD0" d="M67.3,7.613c0.2,0,0.301-0.2,0.5-0.5c-0.199-0.7-0.5-1.2-0.899-1.7c-0.101,0-0.101-0.1-0.101-0.2
			c-0.199,0-0.399,0-0.5,0c-0.199,0.2-0.199,0.4-0.199,0.9l0.199,0.7C66.5,7.413,66.8,7.613,67.3,7.613z"/>
		<path fill="#A9C1E2" d="M57.9,9.413c0.2,0.2,0.399,0.4,0.6,0.5c-0.2-0.1-0.2-0.2-0.3-0.3c-0.6-1.5-0.8-2.2-0.8-2.3
			c0-0.2,0-0.3,0.1-0.4c-0.3,0-0.7,0.3-1.2,0.7c0.301-0.2,0.601-0.2,0.601-0.2C57.2,7.913,57.5,8.613,57.9,9.413z"/>
		<path fill="#6E9DD0" d="M58.5,9.913c-0.2-0.1-0.399-0.3-0.6-0.5c-0.4-0.8-0.7-1.5-1-2c0,0-0.3,0-0.601,0.2c0,0,0,0.2,0,0.3
			c0,0.2,0,0.6,0.2,1c0.2,0.5,0.601,1.2,1.101,2c0.199,0.2,0.3,0.4,0.5,0.5c0,0.1,0,0.1-0.101,0.199
			c-0.2,0.301-0.399,0.5-0.399,0.601l0.5,0.3c0.1-0.1,0.3-0.2,0.5-0.4c0.199,0.101,0.399,0.301,0.5,0.4c0,0.1-0.2,0.1-0.301,0.1
			c-0.199,0.301-0.399,0.5-0.399,0.601c0,0.2,0.1,0.399,0.1,0.399c0.101,0,0.2,0,0.3,0.101c0.101-0.101,0.301-0.2,0.7-0.5
			c0.101-0.101,0.2-0.2,0.3-0.3c0,0,0.101,0.1,0.301,0.199c0,0.101-0.101,0.301-0.101,0.4c0,0.3,0.101,0.6,0.5,0.9
			c0.101-0.101,0.2-0.301,0.3-0.601c0.101-0.2,0.2-0.3,0.301-0.399c0.1,0,0.199,0,0.399,0.1c0,0.5,0.101,0.9,0.2,1.1
			c0.2-0.1,0.4-0.199,0.4-0.199l0.1-0.801c0.1,0,0.1,0,0.1,0c0.101,0,0.101,0,0.2,0c0,0.301,0.3,0.601,0.8,0.801
			c0.101,0,0.2-0.301,0.301-0.5c0-0.2,0-0.301-0.101-0.5c0.2-0.101,0.4-0.2,0.601-0.301c0.1-0.199,0.199-0.399,0.199-0.5
			c0-0.3-0.3-0.5-0.699-0.5c-0.801,0-1.601-0.1-2.4-0.399C60.101,11.413,59.101,10.913,58.5,9.913z"/>
		<path fill="#A9C1E2" d="M64.3,12.112c0-0.399-0.199-0.699-0.199-0.8c-0.5,0.3-1.2,0.5-2,0.5c-0.301,0-0.601,0-0.9-0.1
			c0.8,0.3,1.6,0.399,2.4,0.399c0.399,0,0.699,0.2,0.699,0.5c0,0.101-0.1,0.301-0.199,0.5c0.399,0.101,0.6,0.301,0.6,0.801
			s-0.2,0.699-0.6,0.899c-0.4,0.101-1.301,0.3-2.601,0.3c-1.899,0-3.3-0.899-4.399-2.399c-0.601-1.101-1-1.8-1-2.5
			c0-0.2,0-0.5,0.199-0.9c0-0.2,0.2-0.3,0.2-0.4c-0.2-0.4-0.2-0.8-0.2-1c0-0.1,0-0.3,0-0.3c-0.1,0-0.199,0-0.199,0.2
			c-0.2,0.4-0.301,1-0.301,1.6c0,1,0.4,2,1.2,3.3c1.3,2,3.3,3,5.8,3c2.4,0,4.101-0.9,5.301-2.8c0-0.101,0.1-0.301,0.199-0.301
			c-0.5,0.301-1,0.4-1.699,0.4C65.5,13.013,64.8,12.713,64.3,12.112z"/>
		<path fill="#8BAED9" d="M62.2,13.612l-0.1,0.801c0,0-0.2,0.1-0.4,0.199c-0.1-0.199-0.2-0.6-0.2-1.1c-0.2-0.1-0.3-0.1-0.399-0.1
			c-0.101,0.1-0.2,0.199-0.301,0.399c-0.1,0.3-0.199,0.5-0.3,0.601c-0.399-0.301-0.5-0.601-0.5-0.9c0-0.1,0.101-0.3,0.101-0.4
			c-0.2-0.1-0.301-0.199-0.301-0.199c-0.1,0.1-0.199,0.199-0.3,0.3c-0.399,0.3-0.6,0.399-0.7,0.5c-0.1-0.101-0.199-0.101-0.3-0.101
			c0,0-0.1-0.199-0.1-0.399c0-0.101,0.2-0.3,0.399-0.601c0.101,0,0.301,0,0.301-0.1c-0.101-0.1-0.301-0.3-0.5-0.4
			c-0.2,0.2-0.4,0.301-0.5,0.4l-0.5-0.3c0-0.101,0.199-0.3,0.399-0.601c0.101-0.1,0.101-0.1,0.101-0.199
			c-0.2-0.101-0.301-0.301-0.5-0.5c-0.5-0.8-0.9-1.5-1.101-2c0,0.1-0.2,0.2-0.2,0.4c-0.199,0.4-0.199,0.7-0.199,0.9
			c0,0.7,0.399,1.399,1,2.5c1.1,1.5,2.5,2.399,4.399,2.399c1.3,0,2.2-0.199,2.601-0.3c0.399-0.2,0.6-0.399,0.6-0.899
			s-0.2-0.7-0.6-0.801c-0.2,0.101-0.4,0.2-0.601,0.301c0.101,0.199,0.101,0.3,0.101,0.5c-0.101,0.199-0.2,0.5-0.301,0.5
			c-0.5-0.2-0.8-0.5-0.8-0.801c-0.1,0-0.1,0-0.2,0C62.3,13.612,62.3,13.612,62.2,13.612z"/>
		<path fill="#FFFFFF" d="M60.2,19.913c0.6-0.101,1.1-0.301,1.6-0.301C58.2,19.713,57.601,19.812,60.2,19.913z"/>
		<path fill="#FFFFFF" d="M60.5,19.913c0.101,0,0.3,0,0.601,0c1,0,1.899-0.101,2.8-0.2c0-0.101,0.1-0.2,0.2-0.3
			C63,19.612,61.8,19.713,60.5,19.913z"/>
		<path fill="#FFFFFF" d="M66.101,19.112c0,0.101,0,0.101-0.101,0.301c0.601-0.2,1.3-0.4,1.8-0.601
			C67.3,18.913,66.8,19.013,66.101,19.112z"/>
		<path fill="#FFFFFF" d="M64.3,19.413c0,0.1-0.1,0.199-0.199,0.3c0.6-0.101,1.199-0.2,1.699-0.3c0-0.101,0-0.2,0-0.2
			C65.4,19.213,64.9,19.413,64.3,19.413z"/>
		<path fill="#FFFFFF" d="M48.2,17.312c0.1-0.2,0.1-0.399,0.1-0.5C48.3,16.913,48.3,17.112,48.2,17.312z"/>
		<path fill="#FFFFFF" d="M50.3,11.612l-0.5,0.601c0,0.2-0.199,0.7-0.5,1.7C49.601,13.112,50,12.413,50.3,11.612z"/>
		<path fill="#BCDCD2" d="M21,0.613c-1.1-0.3-2.2-0.4-3.3-0.4c-2.4-0.1-4.6,0.4-6.8,1.5c-1,0.5-2.1,1.1-3.1,1.7c0.7,0,1.3-0.1,2-0.3
			c10.6-1.5,18,1.4,22.2,8.8l0.6,0.5c-0.5-2.3-1.3-4.4-2.7-6.3c-1.3-2-3.1-3.4-5.1-4.5C23.6,1.113,22.3,0.812,21,0.613z"/>
		<path d="M22.3,8.913c0.6,0,1.2,0.2,1.5,0.4c0.5-1.2,0.7-1.7,0.7-1.8s0-0.3,0-0.4c0.2,0.1,0.5,0.3,0.8,0.4c0.2,0.1,0.4,0.3,0.6,0.4
			c3.5,2.3,6.2,5.5,8.4,9.6c0-0.1-0.1-0.4-0.2-0.6c-0.2-1-0.5-1.9-1-2.801c-0.3-0.8-0.7-1.5-1.1-2.199c-4.2-7.4-11.6-10.3-22.2-8.8
			c-0.7,0.2-1.3,0.3-2,0.3c-2.7,0-5.2-1-7.8-3.2c0.6,4.1,2.8,6.2,6.6,6.4c1.2,0,2.4-0.2,3.9-0.5c1.1-0.2,2.3-0.5,3.4-0.6
			c0.2,0,0.3,0,0.4,0c0.1-0.1,0.2-0.1,0.3-0.1c0.5,0,0.9,0,1.3,0c-0.6,0.5-0.9,1.4-0.9,2.5c0,0.7,0.3,1.5,0.8,2.2l0,0
			c0.3,0.4,0.8,0.8,1.3,1.1c0.3,0.2,0.6,0.399,0.8,0.6c0.5,0.101,0.9,0.101,1.5,0.101c0.2,0,0.4,0,0.5,0l-0.2-0.801
			C19.7,9.613,20.6,8.913,22.3,8.913z M18.7,7.613c0,0.5-0.2,0.8-0.8,0.8c-0.4,0-0.7-0.3-0.7-0.8c0-0.7,0.3-1,0.7-1
			C18.5,6.713,18.7,7.013,18.7,7.613z"/>
		<path fill="#FFFFFF" d="M17.9,8.413c0.6,0,0.8-0.3,0.8-0.8c0-0.6-0.2-0.9-0.8-1c-0.4,0-0.7,0.3-0.7,1
			C17.2,8.113,17.5,8.413,17.9,8.413z"/>
		<path fill="#FFFFFF" d="M23.8,9.312c-0.3-0.2-0.9-0.4-1.5-0.4c-1.7,0-2.6,0.7-2.6,2.2l0.2,0.801l0.1,0.699c0.4,1,1.1,1.5,2.1,1.5
			c1.8,0,2.7-0.899,2.7-2.8C24.8,10.413,24.5,9.613,23.8,9.312z"/>
		<path fill="#A9C1E2" d="M25.9,7.913c-0.2-0.1-0.4-0.3-0.6-0.4c-0.3-0.1-0.6-0.3-0.8-0.4c0,0.1,0,0.3,0,0.4s-0.2,0.6-0.7,1.8
			c0.7,0.3,1,1.1,1,2c0,1.9-0.9,2.8-2.7,2.8c-1,0-1.7-0.5-2.1-1.5l-0.1-0.699c-0.1,0-0.3,0-0.5,0c-0.6,0-1,0-1.5-0.101
			c0.6,0.3,1,0.601,1.5,0.8c0,0.5-0.4,0.801-1.2,0.801c0.1,0.199,0.3,0.5,0.3,0.8c0,0.7-0.4,1.1-1,1.1c-1.9,0-3.4-1-4.3-3.1
			c-0.6-2-0.9-3.1-0.9-3.1c0-0.9,0.5-1.7,1.3-2.7c0.1-0.1,0.2-0.2,0.3-0.3c0.1-0.2,0.2-0.4,0.4-0.5c0-0.1,0-0.1,0-0.1
			c-0.1,0-0.2,0-0.4,0c-0.8,0.8-1.3,1.6-1.3,2.4c-0.4,0.5-0.5,1-0.5,1.7c0,1.2,0.3,2.3,1,3.5c1.2,1.801,3,2.801,5.5,2.801
			c2.9,0,5-1,6.3-3c0.9-1.301,1.3-2.3,1.3-3.3C26.2,9.013,26.1,8.413,25.9,7.913z M24.5,8.113c0.1-0.2,0.2-0.4,0.3-0.5
			c0.4,0.3,0.5,0.6,0.5,1v0.6c0,0.2-0.1,0.2-0.5,0.2l-0.5-0.2c-0.1,0.1-0.1-0.1-0.1-0.4C24.2,8.613,24.3,8.413,24.5,8.113z"/>
		<path fill="#6E9DD0" d="M24.8,7.613c-0.1,0.1-0.2,0.3-0.3,0.5c-0.2,0.3-0.3,0.5-0.3,0.7c0,0.3,0,0.5,0.1,0.4l0.5,0.2
			c0.4,0,0.5,0,0.5-0.2v-0.6C25.3,8.213,25.2,7.913,24.8,7.613z"/>
		<path fill="#FFFFFF" d="M25.9,7.913c0.2,0.5,0.3,1.1,0.3,1.7c0,1-0.4,2-1.3,3.3c-1.3,2-3.4,3-6.3,3c-2.5,0-4.3-1-5.5-2.801
			c-0.7-1.199-1-2.3-1-3.5c0-0.7,0.1-1.2,0.5-1.7c0-0.8,0.5-1.6,1.3-2.4c-1.1,0.1-2.3,0.4-3.4,0.6c-1.5,0.3-2.7,0.5-3.9,0.5
			c0,2,0.2,4,0.9,5.8c0.8,1.3,1.7,2.5,2.8,3.699c1.7,1.601,4.8,2.801,9.5,3.7c3.3,0,6.3-0.3,9-1c3-0.8,4.8-1.2,5.5-1.3
			C32.1,13.413,29.4,10.213,25.9,7.913z"/>
		<path fill="#6E9DD0" d="M17.9,11.812c-0.2-0.2-0.5-0.399-0.8-0.6c-0.5-0.3-1-0.7-1.3-1.1l0,0c-0.6-0.7-0.9-1.3-0.9-2
			c0-1.5-0.1-2.4-0.3-2.7c-0.1,0-0.2,0-0.3,0.1c0,0,0,0,0,0.1c-0.2,0.1-0.3,0.3-0.4,0.5c-0.1,0.5-0.3,1-0.3,1.5
			c-0.1,0.1-0.3,0.2-0.4,0.2c-0.4,0.1-0.6,0.4-0.6,0.6c0,0.2,0,0.4,0,0.4l0.2,0.1h0.1c0,0.1,0.2,0.1,0.4,0.1c0.1,0,0.3-0.1,0.5-0.2
			c0,0.1,0,0.2,0,0.3c-0.1,0-0.2,0.1-0.2,0.2c-0.3,0.2-0.5,0.4-0.5,0.6c0.2,0,0.5-0.1,0.8-0.3c0,0.1,0.1,0.3,0.2,0.6
			c-0.3,0.2-0.5,0.4-0.5,0.7c0,0.2,0.1,0.4,0.2,0.5h0.3c0.1,0,0.2,0,0.3-0.2c0.1,0.3,0.2,0.6,0.4,0.7c-0.2,0.399-0.2,0.699-0.2,0.8
			c0,0.3,0,0.5,0,0.6c0,0.101,0.2,0.2,0.5,0.2c0.3,0,0.4-0.1,0.2-0.1l0.3-0.601c0.3,0.2,0.7,0.3,1,0.4v0.399
			c0,0.101,0,0.301,0.2,0.7c0.1,0.5,0.4,0.601,0.7,0.601c0.3,0,0.4,0,0.3-0.101c0.1,0,0.1-0.2,0.1-0.5s0-0.6-0.1-0.899
			c0.1,0,0.3,0,0.4,0c0.8,0,1.2-0.301,1.2-0.801C18.9,12.413,18.5,12.112,17.9,11.812z"/>
		<path fill="#8BAED9" d="M18.5,14.213c0-0.3-0.2-0.601-0.3-0.8c-0.1,0-0.3,0-0.4,0c0.1,0.3,0.1,0.6,0.1,0.899s0,0.5-0.1,0.5
			c0.1,0.101,0,0.101-0.3,0.101c-0.3,0-0.6-0.101-0.7-0.601c-0.2-0.399-0.2-0.6-0.2-0.7v-0.399c-0.3-0.101-0.7-0.2-1-0.4l-0.3,0.601
			c0.2,0,0.1,0.1-0.2,0.1c-0.3,0-0.5-0.1-0.5-0.2c0-0.1,0-0.3,0-0.6c0-0.101,0-0.4,0.2-0.8c-0.2-0.101-0.3-0.4-0.4-0.7
			c-0.1,0.2-0.2,0.2-0.3,0.2h-0.3c-0.1-0.101-0.2-0.301-0.2-0.5c0-0.3,0.2-0.5,0.5-0.7c-0.1-0.3-0.2-0.5-0.2-0.6
			c-0.3,0.2-0.6,0.3-0.8,0.3c0-0.2,0.2-0.4,0.5-0.6c0-0.1,0.1-0.2,0.2-0.2c0-0.1,0-0.2,0-0.3c-0.2,0.1-0.4,0.2-0.5,0.2
			c-0.2,0-0.4,0-0.4-0.1h-0.1l-0.2-0.1c0,0,0-0.2,0-0.4c0-0.2,0.2-0.5,0.6-0.6c0.1,0,0.3-0.1,0.4-0.2c0-0.5,0.2-1,0.3-1.5
			c-0.1,0.1-0.2,0.2-0.3,0.3c-0.8,1-1.3,1.8-1.3,2.7c0,0,0.3,1.1,0.9,3.1c0.9,2.1,2.4,3.1,4.3,3.1
			C18.1,15.312,18.5,14.913,18.5,14.213z"/>
		<path fill="#FFFFFF" d="M20.6,20.112c0.2,0,0.4,0,0.7,0c-1.5-0.199-2.7-0.3-3.9-0.5c0.1,0.101,0.1,0.2,0.2,0.301
			C18.5,20.013,19.6,20.112,20.6,20.112z"/>
		<path d="M17.1,19.612c0,0.101,0.1,0.2,0.2,0.301c0.2,0.199,0.5,0.699,0.9,1.1c-0.1-0.2-0.3-0.6-0.6-1c0-0.1,0-0.1,0-0.1
			c-0.1-0.101-0.1-0.2-0.2-0.301c1.2,0.2,2.4,0.301,3.9,0.5c0.2,0,0.3,0,0.5,0h-0.2h-0.1c-0.6-0.199-1.2-0.199-1.7-0.3
			c-4.7-0.899-7.8-2.1-9.5-3.7c-1.1-1.199-2-2.399-2.8-3.699c-0.4-0.801-0.8-1.5-1-2.4H6.3c0.2,0.6,0.3,1.4,0.5,2.6
			c0,0.101,0,0.101,0,0.2c-0.9,0-1.6,0.3-2,0.601c-0.3,0.199-0.7,0.699-1,1.3v0.1c0.4-0.5,0.9-0.899,1.4-1.1L7,13.112
			c0.1,0.301,0.3,0.7,0.3,1c-0.2,0-0.3,0.101-0.5,0.301c0,0-0.2,0.199-0.5,0.699h0.2c0.3-0.3,0.7-0.699,1-0.8
			c0.1,0.3,0.4,0.8,0.6,1.101c-0.2,0-0.3,0.199-0.5,0.3c-0.6,0.399-1,0.7-1.1,0.899v0.2c0.6-0.7,1.1-1.2,1.7-1.3
			c0.1,0.1,0.2,0.3,0.3,0.4c0.3,0.3,0.5,0.699,0.8,0.899l-0.1,0.101c-0.1,0.199-0.3,0.3-0.3,0.5l0,0l0.6-0.5
			c0.1,0.199,0.3,0.199,0.4,0.399c-0.1,0.101-0.2,0.3-0.3,0.601c-0.2,0.3-0.5,0.699-0.7,1.3c0.4-0.7,0.9-1.3,1.2-1.8
			c0.7,0.5,1.4,0.8,2.2,1.199c0.2,0,0.3,0,0.4,0.101c-0.1,0.2-0.3,0.5-0.5,0.899l0,0c0.1,0,0.4-0.3,0.9-0.699c0,0,0.2,0,0.3,0
			c0.5,0.199,1.2,0.3,1.8,0.5c0.1,0,0.1,0,0.1,0.199c0.2,0.301,0.3,0.7,0.3,1.2l0.2,0.101c0-0.601-0.2-1-0.3-1.301
			c0-0.1,0-0.199,0-0.199C15.9,19.413,16.5,19.612,17.1,19.612z"/>
		<path fill="#FFFFFF" d="M17.3,19.913c-0.1-0.101-0.2-0.2-0.2-0.301c-0.6,0-1.2-0.199-1.6-0.199c0,0,0,0.1,0,0.199
			C16.1,19.713,16.6,19.812,17.3,19.913z"/>
		<path fill="#FFFFFF" d="M21.5,20.112h0.1c2.6-0.1,2-0.199-1.8-0.3C20.3,19.913,20.9,19.913,21.5,20.112z"/>
		<path fill="#FFFFFF" d="M33.1,14.112c-0.3-1-0.5-1.5-0.5-1.699l-0.6-0.5C32.4,12.612,32.8,13.312,33.1,14.112z"/>
		<path fill="#A9C1E2" d="M15.9,5.413c-0.4,0-0.8,0-1.3,0c0.2,0.3,0.3,1.2,0.3,2.7c0,0.7,0.3,1.3,0.9,2c-0.5-0.7-0.8-1.5-0.8-2.2
			C15,6.812,15.3,5.913,15.9,5.413z"/>
		<path fill="#FFFFFF" d="M13.4,18.913c0.6,0.3,1.2,0.5,1.9,0.699c0-0.199,0-0.199-0.1-0.199C14.6,19.213,13.9,19.112,13.4,18.913z"
			/>
	</g>
</g>
</svg>
