<?xml version="1.0" encoding="utf-8"?>
<!-- Generator: Adobe Illustrator 13.0.0, SVG Export Plug-In . SVG Version: 6.00 Build 14948)  -->
<svg version="1.2" baseProfile="tiny" id="Layer_1" xmlns="http://www.w3.org/2000/svg" xmlns:xlink="http://www.w3.org/1999/xlink"
	 x="0px" y="0px" width="92.8px" height="24.38px" viewBox="0 0 92.8 24.38" xml:space="preserve">
<g>
	<g>
		<path d="M6.9,10C6.1,7.7,5.8,6,6,5.1l8.4,0.4c1.3-0.1,2.7,0,4,0c0.2,0,0.5,0,0.8,0.1C19.1,5.8,19,6,18.9,6.2
			c-0.4,1.2-0.6,2.5-0.6,4.3c0.2,2,0.7,4,1.7,5.9c0.3,0.601,0.6,1.101,0.9,1.7l0.1,0.1c0.1,0,0.2,0.2,0.3,0.301
			c0.4-0.5,0.8-1,1.1-1.5c-0.1-0.301-0.3-0.5-0.4-0.7c-0.2-0.8-0.4-1.2-0.4-1.3c0-1.2,0.7-1.801,1.9-1.801c0.3,0,0.6,0.101,0.8,0.2
			c0.2-0.5,0.3-0.9,0.5-1.4c0.5-1.9,0.7-3.3,0.5-4c1.5,1.1,2.8,2.5,4,4.4c0.8,1.3,1.5,2.601,2.2,4c1.3,2.601,2.7,5.3,4.1,7.8
			c-0.1-1.1-0.3-2.399-0.5-3.699C33.9,14.2,31.8,9.5,28.8,6c-2.9-3.5-7-5-12.5-4.7C10.8,1.5,5.5,1.2,0,0c2.8,7.7,5.5,12.8,7.8,15.2
			c2.5,2.301,4.1,3.601,5.1,4c0.7,0.5,1.6,1,2.3,1.5c-1.9-1.5-3.4-2.899-4.6-4.3C8.9,14.4,7.8,12.3,6.9,10z M20.2,11.4
			c0.3-0.2,0.6-0.2,0.9-0.1c0,0.1,0,0.2,0,0.4c0,0.1,0,0.3,0,0.5c0,0-0.2,0.1-0.5,0.1l-0.5-0.1c-0.2,0.1-0.2,0-0.2-0.4
			C19.9,11.7,20,11.5,20.2,11.4z"/>
		<path fill="#FFFFFF" d="M21.1,11.3c-0.3-0.1-0.6-0.1-0.9,0.1c-0.2,0.1-0.3,0.3-0.3,0.4c0,0.4,0,0.5,0.2,0.4l0.5,0.1
			c0.3,0,0.5-0.1,0.5-0.1c0-0.2,0-0.4,0-0.5C21.1,11.5,21.1,11.4,21.1,11.3z"/>
		<path fill="#FFF200" d="M6,5.1C5.8,6,6.1,7.7,6.9,10c0.9,2.3,2,4.4,3.7,6.4c-0.1-0.899-0.3-1.7-0.3-2.6c0-2.9,1.1-5.4,3.2-7.6
			c0.3-0.2,0.6-0.5,0.9-0.7L6,5.1z"/>
		<path fill="#D7DF23" d="M14.4,5.5c-0.3,0.2-0.6,0.5-0.9,0.7c-2.1,2.2-3.2,4.7-3.2,7.6c0,0.899,0.2,1.7,0.3,2.6
			c1.2,1.4,2.7,2.8,4.6,4.3c-0.7-0.5-1.6-1-2.3-1.5c0.9,0.801,1.9,1.4,3.1,2c2.1,1.301,5.1,2.101,9,2.601c1.3-0.5,2.6-1.3,3.6-2.4
			c1.5-1.399,2.5-3.2,2.9-5c-0.7-1.399-1.4-2.7-2.2-4c-1.2-1.9-2.5-3.3-4-4.4c0.2,0.7,0,2.1-0.5,4c-0.2,0.5-0.3,0.9-0.5,1.4
			c0.2,0,0.3,0.101,0.5,0.101c0-1,0.1-1.8,0.3-2.3c0.1-0.8,0.7-1.4,1.7-1.5c0,0.2,0,0.3,0,0.5v0.5h0.1c0,1.7-0.1,3.1-0.6,4.3
			c-0.1,0.5-0.4,1-0.7,1.399c-0.4,1.2-1,2.101-1.6,2.7c0.4,0.1,0.8,0.3,1.3,0.8c0.4,0.5,0.6,0.8,0.6,1.101V21.2
			c0.4-0.399,0.8-0.8,1.3-1.199c-0.4-0.301-0.7-0.5-1-0.801C25.6,18.7,25.3,18.3,25.3,18c0.4,0.1,0.9,0.399,1.5,1
			c0.3,0.199,0.5,0.399,0.8,0.6c0.4-0.4,0.7-0.8,1.1-1.1h-0.1c-0.1,0-0.5-0.301-1.3-0.7c-0.5-0.3-0.7-0.601-0.8-0.7
			c0.3,0,0.7,0.1,1.2,0.4c0.6,0.199,0.9,0.5,1.1,0.899c0.5-0.7,1-1.2,1.3-1.8c0.4,0.3,0.5,0.8,0.5,1.4c0,0.5-0.4,1.199-1.3,2.5
			C28.1,22,26.9,22.7,25.8,22.7c-0.5,0-0.9-0.1-1-0.3c0.1-0.2,0.5-0.6,1-1.2l0,0c-0.3-0.199-0.7-0.5-1-1c-0.3-0.5-0.7-0.8-0.9-1
			C23.3,19.7,22.6,20,21.8,20h-0.1c0.1,0,0.1,0.199,0.1,0.199c0,0.801-0.2,1.5-0.5,2.101C21.1,22.2,21,22.2,20.9,22.1v-0.3
			c0-0.5,0.2-1.101,0.4-2L21.1,19.7c0-0.1-0.1-0.199-0.2-0.199c0,0-0.1,0.1-0.1,0.199c-1.1-1-2.2-2.5-3.1-4.6s-1.4-3.7-1.4-4.9
			c0-0.2,0-0.2,0-0.3c-0.1,0.6-0.2,0.9-0.2,1.1c0,2.2,0.7,4.7,2.2,7.7C17.6,19,16.9,18,16.2,16c-0.6-1.601-0.9-2.9-0.9-3.8
			c0-1.7,0.3-3,1-4.3C16.4,8,16.6,8,16.6,8.2c0.2-0.5,0.6-1,1.2-1.6c0,0,0,0,0.1,0c0.2,0,0.2,0.1,0.2,0.3c0,0.1-0.2,1-0.6,2.5
			c0,1.6,0.6,3.601,1.9,6c0.2,0.3,0.4,0.601,0.6,1c-1-1.899-1.5-3.9-1.7-5.9c0-1.8,0.2-3.1,0.6-4.3C19,6,19.1,5.8,19.2,5.6
			c-0.3-0.1-0.6-0.1-0.8-0.1C17.1,5.5,15.7,5.4,14.4,5.5z M15.6,6.7c0.3,0,0.5,0,0.5,0c0.2,0.1,0.2,0.3,0.2,0.5c0,0.3,0,0.4,0,0.3
			l-0.8-0.6L15.6,6.7z M27.3,14.2L27.5,14c0.1,0,0.4,0.1,0.9,0.399c0.4,0.2,0.7,0.4,0.9,0.601C29.1,15,28.5,14.7,27.3,14.2z
			 M27.1,15.7c0.4-0.1,0.8,0,1.3,0.101c0.4,0.2,0.7,0.399,0.9,0.5l-0.2,0.1c-0.3,0-0.6-0.2-1-0.399c-0.3-0.101-0.6-0.2-1-0.2V15.7z
			 M15.3,9c-0.2,0-0.5-0.1-1-0.4c-0.2-0.2-0.5-0.4-0.7-0.6C14.3,7.9,14.8,8.2,15.3,9z M14.6,12.7c0,0-0.1,0.101-0.2,0.101
			C14.3,12.9,14.2,13,14,13c-0.4,0-0.9-0.2-1.2-0.4c-0.1,0-0.2-0.1-0.6-0.4c0,0.5,0.1,1.2,0.4,2.3c0,0.1,0,0.199,0,0.3
			c1.4-0.2,2.2-0.3,2.3-0.3v0.3c-0.6,0.399-1.1,0.5-1.4,0.5c-0.3,0-0.5-0.101-0.7-0.101h-0.1c0.1,0.5,0.2,0.801,0.2,1l-0.6,0.5
			C12,16.5,11.6,16,11.3,14.9C11,14,10.8,13.5,10.8,13.2c0-3.899,1.3-6.2,3.9-7c-0.6,0.4-1.1,1.3-1.6,2.8c-0.2,0.3-0.3,0.6-0.4,0.9
			c0.4-0.2,1.1,0.1,1.9,0.8l-0.5,0.1c-1-0.1-1.5-0.3-1.5-0.7V10c-0.2,0.8-0.3,1.5-0.4,2h0.1c1.1,0.2,1.8,0.3,2.3,0.4V12.7z M13.6,18
			c-0.1,0-0.1,0-0.1-0.2c0.1-0.101,0.4-0.3,0.8-0.4c0.5-0.3,0.8-0.399,1-0.399C15.1,17.4,14.5,17.7,13.6,18z M16.6,20.5
			c-0.2,0-0.3-0.101-0.3-0.301c0.4-0.8,1-1.199,1.5-1.199C17.5,19.7,17.1,20.2,16.6,20.5z M22.8,19.9c0.3,0.101,0.5,0.3,0.5,0.601
			l0.2,0.6V22h-0.2C22.8,21.7,22.6,21.2,22.6,20.7C22.6,20.3,22.7,20,22.8,19.9z M18.8,20.4c0.3-0.399,0.7-0.6,1-0.7
			C19.7,20,19.6,20.4,19.5,20.8c-0.2,0.399-0.5,0.6-0.9,0.7l-0.3-0.4C18.5,20.8,18.7,20.5,18.8,20.4z"/>
		<path fill="#C0C743" d="M16.1,6.7c0,0-0.2,0-0.5,0l-0.1,0.2l0.8,0.6c0,0.1,0,0,0-0.3C16.3,7,16.3,6.8,16.1,6.7z"/>
		<path fill="#C0C743" d="M27.5,14L27.3,14.2c1.2,0.5,1.8,0.801,2,0.801c-0.2-0.2-0.5-0.4-0.9-0.601C27.9,14.1,27.6,14,27.5,14z"/>
		<path fill="#C0C743" d="M28.4,15.8c-0.5-0.101-0.9-0.2-1.3-0.101V15.8c0.4,0,0.7,0.1,1,0.2c0.4,0.199,0.7,0.399,1,0.399l0.2-0.1
			C29.1,16.2,28.8,16,28.4,15.8z"/>
		<path fill="#C0C743" d="M14.3,8.6c0.5,0.3,0.8,0.4,1,0.4c-0.5-0.8-1-1.1-1.7-1C13.8,8.2,14.1,8.4,14.3,8.6z"/>
		<path fill="#C0C743" d="M14.4,12.8c0.1,0,0.2-0.101,0.2-0.101v-0.3c-0.5-0.1-1.2-0.2-2.3-0.4h-0.1c0.1-0.5,0.2-1.2,0.4-2v0.1
			c0,0.4,0.5,0.6,1.5,0.7l0.5-0.1c-0.8-0.7-1.5-1-1.9-0.8c0.1-0.3,0.2-0.6,0.4-0.9c0.5-1.5,1-2.4,1.6-2.8c-2.6,0.8-3.9,3.1-3.9,7
			c0,0.301,0.2,0.801,0.5,1.7c0.3,1.101,0.7,1.601,1,1.8l0.6-0.5c0-0.199-0.1-0.5-0.2-1h0.1c0.2,0,0.4,0.101,0.7,0.101
			c0.3,0,0.8-0.101,1.4-0.5v-0.3c-0.1,0-0.9,0.1-2.3,0.3c0-0.101,0-0.2,0-0.3c-0.3-1.101-0.4-1.801-0.4-2.3c0.4,0.3,0.5,0.4,0.6,0.4
			c0.3,0.2,0.8,0.4,1.2,0.4C14.2,13,14.3,12.9,14.4,12.8z"/>
		<path fill="#C0C743" d="M13.5,17.8c0,0.2,0,0.2,0.1,0.2c0.9-0.301,1.5-0.601,1.7-1c-0.2,0-0.5,0.1-1,0.399
			C13.9,17.5,13.6,17.7,13.5,17.8z"/>
		<path fill="#C0C743" d="M16.3,20.2c0,0.2,0.1,0.301,0.3,0.301c0.5-0.301,0.9-0.801,1.2-1.5C17.3,19,16.7,19.4,16.3,20.2z"/>
		<path fill="#C0C743" d="M23.3,20.5c0-0.301-0.2-0.5-0.5-0.601c-0.1,0.101-0.2,0.4-0.2,0.8c0,0.5,0.2,1,0.7,1.301h0.2v-0.9
			L23.3,20.5z"/>
		<path fill="#C0C743" d="M19.8,19.7c-0.3,0.101-0.7,0.301-1,0.7c-0.1,0.101-0.3,0.4-0.5,0.7l0.3,0.4c0.4-0.101,0.7-0.301,0.9-0.7
			C19.6,20.4,19.7,20,19.8,19.7z"/>
		<path fill="#C0C743" d="M17.9,6.6c-0.1,0-0.1,0-0.1,0c-0.6,0.6-1,1.1-1.2,1.6c0-0.2-0.2-0.2-0.3-0.3c-0.7,1.3-1,2.6-1,4.3
			c0,0.9,0.3,2.2,0.9,3.8c0.7,2,1.4,3,2.1,2.699c-1.5-3-2.2-5.5-2.2-7.7c0-0.2,0.1-0.5,0.2-1.1c0,0.1,0,0.1,0,0.3
			c0,1.2,0.5,2.8,1.4,4.9s2,3.6,3.1,4.6c0-0.1,0.1-0.199,0.1-0.199c0.1,0,0.2,0.1,0.2,0.199l0.2,0.101c-0.2,0.899-0.4,1.5-0.4,2v0.3
			c0.1,0.1,0.2,0.1,0.4,0.2c0.3-0.601,0.5-1.3,0.5-2.101c0,0,0-0.199-0.1-0.199h0.1c0.8,0,1.5-0.301,2.1-0.801
			c0.2,0.2,0.6,0.5,0.9,1c0.3,0.5,0.7,0.801,1,1l0,0c-0.5,0.601-0.9,1-1,1.2c0.1,0.2,0.5,0.3,1,0.3c1.1,0,2.3-0.699,3.5-2.199
			c0.9-1.301,1.3-2,1.3-2.5c0-0.601-0.1-1.101-0.5-1.4c-0.3,0.6-0.8,1.1-1.3,1.8C28.6,18,28.3,17.7,27.7,17.5
			c-0.5-0.301-0.9-0.4-1.2-0.4c0.1,0.1,0.3,0.4,0.8,0.7c0.8,0.399,1.2,0.7,1.3,0.7h0.1c-0.4,0.3-0.7,0.699-1.1,1.1
			c-0.3-0.2-0.5-0.4-0.8-0.6c-0.6-0.601-1.1-0.9-1.5-1c0,0.3,0.3,0.699,0.9,1.199c0.3,0.301,0.6,0.5,1,0.801
			c-0.5,0.399-0.9,0.8-1.3,1.199V21c0-0.301-0.2-0.601-0.6-1.101c-0.5-0.5-0.9-0.7-1.3-0.8c0.6-0.6,1.2-1.5,1.6-2.7
			C25.9,16,26.2,15.5,26.3,15c0.5-1.2,0.6-2.601,0.6-4.3h-0.1v-0.5c0-0.2,0-0.3,0-0.5c-1,0.1-1.6,0.7-1.7,1.5
			c-0.2,0.5-0.3,1.3-0.3,2.3c0.3,0.3,0.5,0.8,0.5,1.5c0,0.3-0.2,0.8-0.5,1.5c-0.5,0.699-0.9,1-1.2,1c-0.5,0-0.8-0.101-1.1-0.4
			c-0.4,0.4-0.7,0.9-1.2,1.4v0.1c-0.1-0.1-0.2-0.3-0.3-0.4l-0.1-0.1c-0.3-0.6-0.6-1.1-0.9-1.7c-0.2-0.399-0.4-0.7-0.6-1
			c-1.3-2.399-1.9-4.4-1.9-6c0.4-1.5,0.6-2.4,0.6-2.5C18.1,6.7,18.1,6.6,17.9,6.6z"/>
		<path fill="#D7DF23" d="M22.5,17.1c0-0.1,0-0.1-0.1-0.1c-0.3,0.5-0.7,1-1.1,1.5C21.8,18,22.1,17.5,22.5,17.1z"/>
		<path fill="#FFFFFF" d="M22.4,17c0.1,0,0.1,0,0.1,0.1c0.3,0.3,0.6,0.4,1.1,0.4c0.3,0,0.7-0.301,1.2-1c0.3-0.7,0.5-1.2,0.5-1.5
			c0-0.7-0.2-1.2-0.5-1.5c-0.2,0-0.3-0.101-0.5-0.101c-0.2-0.1-0.5-0.2-0.8-0.2c-1.2,0-1.9,0.601-1.9,1.801c0,0.1,0.2,0.5,0.4,1.3
			C22.1,16.5,22.3,16.7,22.4,17z"/>
		<path fill="#D7DF23" d="M21,18.2c0.1,0.101,0.2,0.301,0.3,0.4v-0.1C21.2,18.4,21.1,18.2,21,18.2z"/>
		<path fill="#FFF200" d="M35.6,24.2c-1.4-2.5-2.8-5.199-4.1-7.8c-0.4,1.8-1.4,3.601-2.9,5c-1,1.101-2.3,1.9-3.6,2.4
			C27.8,24.2,31.3,24.4,35.6,24.2z"/>
		<path d="M22.9,23.7l0.2-0.199c-0.2,0.1-0.3,0.199-0.3,0.199H22.9z"/>
		<path fill="#D7DF23" d="M73.601,5.7C73.8,5.9,73.8,6.1,73.9,6.4c0.399,1.1,0.7,2.4,0.7,4.2c-0.101,0.9-0.301,1.8-0.5,2.6
			c0.199,0,0.199,0,0.399,0.101c0.601-1.5,0.8-2.7,0.8-3.8C74.9,8,74.8,7.2,74.8,7c0-0.2,0-0.3,0.101-0.3c0.1,0,0.2,0,0.2,0
			C75.601,7.2,76,7.8,76.3,8.3c0-0.1,0.2-0.3,0.301-0.3c0.6,1.2,0.899,2.7,0.899,4.2c0,1-0.3,2.3-0.899,4
			c-0.7,2-1.301,2.801-2,2.601c1.5-3,2.199-5.601,2.199-7.8c0-0.1-0.199-0.5-0.3-1v0.2c0,1.1-0.3,2.3-0.899,3.9
			c0.199,0.3,0.199,0.7,0.199,1.2c0,0.399-0.1,0.899-0.5,1.3C75,17,74.601,17.3,74,17.4c-0.6,1-1.2,1.8-1.899,2.4
			C72,19.7,71.9,19.6,71.9,19.5C71.8,19.6,71.8,19.7,71.8,19.7C71.7,19.8,71.601,19.9,71.601,20c0.199,0.699,0.3,1.399,0.3,2V22.2
			c-0.101,0.101-0.101,0.2-0.3,0.2c-0.301-0.6-0.5-1.2-0.5-2.1c0-0.101,0-0.101,0-0.2l0,0c-0.801,0-1.5-0.3-2.2-0.9
			c-0.2,0.301-0.5,0.601-0.8,1.2C67.7,20.8,67.3,21.1,67,21.3v0.1c0.601,0.5,0.9,0.9,1.101,1.101c-0.2,0.199-0.5,0.3-1,0.3
			c-1.2,0-2.301-0.7-3.5-2.2c-1-1.2-1.4-2.1-1.4-2.5c0-0.6,0.1-1.1,0.5-1.4c0.4,0.5,0.8,1.101,1.4,1.801c0.1-0.4,0.5-0.7,1-1
			c0.5-0.2,1-0.301,1.199-0.301c0,0.2-0.199,0.301-0.8,0.7c-0.7,0.4-1.1,0.601-1.2,0.7l-0.199-0.1C64.5,18.9,64.8,19.3,65.3,19.7
			C65.5,19.5,65.8,19.2,66,19c0.601-0.5,1.101-0.801,1.601-0.801c0,0.2-0.301,0.601-1,1.101c-0.301,0.2-0.601,0.5-1,0.7
			c0.5,0.5,1,1,1.3,1.3c0-0.101,0-0.101,0-0.3c0-0.2,0.2-0.5,0.7-1S68.5,19.2,68.8,19.2c-0.6-0.6-1.199-1.5-1.6-2.699
			c-0.3-0.5-0.6-0.9-0.7-1.4c-0.399-1.1-0.6-2.6-0.6-4.3h0.2L66,10.2c0,0,0.101-0.2,0.101-0.4c1,0.2,1.5,0.7,1.699,1.6
			c0.101,0.5,0.301,1.4,0.301,2.601c0.3,0.699,1.399,2,3.1,4.199l0.4,0.5c-2-2.8-3.101-5-3.5-6.5c-0.5-2-0.7-3.4-0.601-4.1
			c-1.5,1.1-2.8,2.6-3.899,4.4c-0.801,1.3-1.5,2.7-2.2,4c0.399,1.899,1.399,3.5,2.8,5c1.1,1.1,2.3,1.899,3.6,2.5
			c3.9-0.601,6.9-1.5,9-2.601C78,20.7,79,20,79.9,19.4c-0.7,0.4-1.5,0.9-2.3,1.3c1.899-1.3,3.5-2.8,4.699-4.199
			c0.101-0.801,0.2-1.7,0.2-2.5c0-3-1-5.5-3.2-7.601c-0.199-0.4-0.5-0.6-0.8-0.9c-1.399,0-2.7,0-4,0.2C74.2,5.7,73.9,5.7,73.601,5.7
			z M76.8,6.8c0,0,0.101,0,0.4,0L77.4,7l-0.8,0.5c0,0.2,0,0.2,0-0.2C76.601,7,76.601,6.9,76.8,6.8z M63.7,16.5l-0.1-0.101
			c0.199-0.2,0.5-0.3,0.899-0.399c0.4-0.301,0.9-0.301,1.3-0.301v0.2c-0.399,0-0.699,0.101-1,0.3C64.4,16.4,64.101,16.5,63.7,16.5z
			 M65.4,14.1l0.1,0.1c-1.1,0.601-1.7,0.9-1.899,0.9C63.8,15,64,14.7,64.5,14.5C64.9,14.2,65.3,14,65.4,14.1z M80.101,10
			c0-0.3-0.2-0.6-0.301-1c-0.5-1.4-1.1-2.3-1.699-2.8C80.7,7.1,82,9.4,82,13.2c0,0.301-0.2,1-0.399,1.801
			C81.2,16,80.8,16.7,80.5,16.8l-0.6-0.5c0-0.101,0.1-0.5,0.2-1.101l0,0c-0.301,0.2-0.5,0.2-0.7,0.2c-0.4,0-0.9-0.2-1.5-0.399V14.7
			c0.2-0.1,0.899,0,2.3,0.301c0.1-0.2,0.1-0.301,0.1-0.5c0.301-1,0.301-1.801,0.301-2.2c-0.301,0.2-0.5,0.399-0.5,0.399
			C79.8,13,79.3,13,78.8,13c-0.199,0-0.3,0-0.3,0c-0.1-0.101-0.2-0.2-0.2-0.301v-0.2c0.4-0.1,1.2-0.2,2.301-0.5v0.1
			c0-0.6-0.101-1.2-0.4-1.9l0,0c0,0.3-0.5,0.6-1.4,0.7l-0.6-0.2C79.101,10.1,79.7,9.8,80.101,10z M79.4,18c0,0-0.101,0.1-0.2,0.199
			c-0.9-0.399-1.4-0.699-1.7-1.1c0.3,0,0.601,0.1,1.101,0.4C78.9,17.7,79.3,17.8,79.4,18z M78.5,8.7c-0.399,0.3-0.7,0.5-0.899,0.4
			c0.5-0.7,1-1.1,1.6-1.1C79.101,8.2,78.8,8.5,78.5,8.7z M76.601,20.4c0,0.101-0.101,0.101-0.301,0.2c-0.5-0.4-1-0.9-1.3-1.6
			C75.601,19,76.101,19.5,76.601,20.4z M74.601,21.2L74.3,21.6c-0.5-0.1-0.699-0.4-0.899-0.7c-0.101-0.399-0.3-0.8-0.4-1.1
			c0.3,0.1,0.7,0.3,1,0.7C74.101,20.7,74.3,20.9,74.601,21.2z M69.4,22.1v-0.9l0.1-0.699C69.601,20.2,69.7,20,70,20
			c0.101,0.199,0.3,0.399,0.3,0.699c0,0.601-0.3,1-0.699,1.4H69.4z"/>
		<path fill="#C0C743" d="M77.2,6.8c-0.3,0-0.4,0-0.4,0c-0.199,0.1-0.199,0.2-0.199,0.5c0,0.4,0,0.4,0,0.2L77.4,7L77.2,6.8z"/>
		<path fill="#C0C743" d="M63.601,16.4l0.1,0.101c0.4,0,0.7-0.101,1.1-0.301c0.301-0.199,0.601-0.3,1-0.3v-0.2
			c-0.399,0-0.899,0-1.3,0.301C64.101,16.1,63.8,16.2,63.601,16.4z"/>
		<path fill="#C0C743" d="M65.5,14.2l-0.1-0.1c-0.101-0.1-0.5,0.1-0.9,0.4C64,14.7,63.8,15,63.601,15.1
			C63.8,15.1,64.4,14.8,65.5,14.2z"/>
		<path fill="#C0C743" d="M79.8,9c0.101,0.4,0.301,0.7,0.301,1c-0.4-0.2-1,0.1-1.9,0.7l0.6,0.2c0.9-0.1,1.4-0.4,1.4-0.7l0,0
			c0.3,0.7,0.4,1.3,0.4,1.9V12c-1.101,0.3-1.9,0.4-2.301,0.5v0.2c0,0.101,0.101,0.2,0.2,0.301c0,0,0.101,0,0.3,0
			c0.5,0,1,0,1.301-0.301c0,0,0.199-0.2,0.5-0.399c0,0.399,0,1.2-0.301,2.2c0,0.199,0,0.3-0.1,0.5c-1.4-0.301-2.1-0.4-2.3-0.301V15
			C78.5,15.2,79,15.4,79.4,15.4c0.2,0,0.399,0,0.7-0.2l0,0C80,15.8,79.9,16.2,79.9,16.3l0.6,0.5c0.3-0.101,0.7-0.8,1.101-1.8
			C81.8,14.2,82,13.5,82,13.2c0-3.8-1.3-6.1-3.899-7C78.7,6.7,79.3,7.6,79.8,9z"/>
		<path fill="#C0C743" d="M79.2,18.2C79.3,18.1,79.4,18,79.4,18c-0.101-0.2-0.5-0.301-0.8-0.5c-0.5-0.301-0.801-0.4-1.101-0.4
			C77.8,17.5,78.3,17.8,79.2,18.2z"/>
		<path fill="#C0C743" d="M77.601,9.1C77.8,9.2,78.101,9,78.5,8.7c0.3-0.2,0.601-0.5,0.7-0.7C78.601,8,78.101,8.4,77.601,9.1z"/>
		<path fill="#C0C743" d="M76.3,20.6c0.2-0.1,0.301-0.1,0.301-0.2C76.101,19.5,75.601,19,75,19C75.3,19.7,75.8,20.2,76.3,20.6z"/>
		<path fill="#C0C743" d="M74.3,21.6l0.301-0.4C74.3,20.9,74.101,20.7,74,20.5c-0.3-0.4-0.7-0.601-1-0.7c0.101,0.3,0.3,0.7,0.4,1.1
			C73.601,21.2,73.8,21.5,74.3,21.6z"/>
		<path fill="#C0C743" d="M69.4,21.2v0.9h0.2C70,21.7,70.3,21.3,70.3,20.7c0-0.3-0.199-0.5-0.3-0.699c-0.3,0-0.399,0.199-0.5,0.5
			L69.4,21.2z"/>
		<path d="M73.9,6.4c-0.101-0.3-0.101-0.5-0.3-0.7c0.3,0,0.6,0,0.899,0c1.3-0.2,2.601-0.2,4-0.2l8.3-0.3c0.301,1,0,2.5-0.899,4.9
			c-0.8,2.3-2,4.4-3.601,6.4C81.101,17.9,79.5,19.4,77.601,20.7c0.8-0.399,1.6-0.899,2.3-1.3c1-0.399,2.7-1.8,5.1-4.2
			c2.4-2.3,5-7.399,7.8-15C87.4,1.2,82,1.7,76.601,1.4C71.101,1.1,66.9,2.7,64,6.1c-2.899,3.4-5.1,8.3-6.2,14.4
			c-0.3,1.5-0.5,2.699-0.5,3.8C58.601,21.7,60,19.2,61.4,16.5c0.7-1.301,1.399-2.7,2.2-4C64.7,10.7,66,9.2,67.5,8.1
			c-0.1,0.7,0.101,2.1,0.601,4.1c0.399,1.5,1.5,3.7,3.5,6.5c0-0.199,0.199-0.3,0.3-0.5c0.2-0.5,0.5-0.8,0.7-1.3
			c0-0.2-0.101-0.3-0.2-0.399c-0.2-0.5-0.3-0.801-0.3-1.101c0-1.399,0.699-2,1.899-2.2c0.101,0,0.101,0,0.101,0
			c0.199-0.8,0.399-1.7,0.5-2.6C74.601,8.8,74.3,7.5,73.9,6.4z M69.601,12.7c0.199-0.2,0.5-0.2,0.899,0c0,0,0.101,0.2,0.101,0.4
			c0,0.6-0.301,0.8-0.7,0.8l-0.5-0.1C69.3,13.7,69.3,13.7,69.3,13.7s0-0.199,0-0.3C69.3,13.1,69.3,12.8,69.601,12.7z"/>
		<path fill="#FFFFFF" d="M70.5,12.7c-0.399-0.2-0.7-0.2-0.899,0C69.3,12.8,69.3,13.1,69.3,13.4c0,0.101,0,0.3,0,0.3
			s0,0,0.101,0.101l0.5,0.1c0.399,0,0.7-0.2,0.7-0.8C70.601,12.9,70.5,12.7,70.5,12.7z"/>
		<path fill="#C0C743" d="M75.101,6.7c0,0-0.101,0-0.2,0C74.8,6.7,74.8,6.8,74.8,7c0,0.2,0.101,1,0.5,2.5c0,1.1-0.199,2.3-0.8,3.8
			c0.601,0.1,0.9,0.399,1.101,0.8c0.6-1.6,0.899-2.8,0.899-3.9V10c0.101,0.5,0.3,0.9,0.3,1c0,2.2-0.699,4.8-2.199,7.8
			c0.699,0.2,1.3-0.601,2-2.601c0.6-1.699,0.899-3,0.899-4c0-1.5-0.3-3-0.899-4.2C76.5,8,76.3,8.2,76.3,8.3
			C76,7.8,75.601,7.2,75.101,6.7z"/>
		<path fill="#FFF200" d="M86.8,5.2l-8.3,0.3c0.3,0.3,0.601,0.5,0.8,0.9C81.5,8.5,82.5,11,82.5,14c0,0.8-0.1,1.699-0.2,2.5
			c1.601-2,2.801-4.101,3.601-6.4C86.8,7.7,87.101,6.2,86.8,5.2z"/>
		<path fill="#C0C743" d="M67.8,11.4c-0.199-0.9-0.699-1.4-1.699-1.6c0,0.2-0.101,0.4-0.101,0.4l0.101,0.6h-0.2
			c0,1.7,0.2,3.2,0.6,4.3c0.101,0.5,0.4,0.9,0.7,1.4c0.4,1.199,1,2.1,1.6,2.699c-0.3,0-0.699,0.301-1.199,0.801s-0.7,0.8-0.7,1
			c0,0.199,0,0.199,0,0.3c-0.3-0.3-0.8-0.8-1.3-1.3c0.399-0.2,0.699-0.5,1-0.7c0.699-0.5,1-0.9,1-1.101c-0.5,0-1,0.301-1.601,0.801
			c-0.2,0.199-0.5,0.5-0.7,0.699c-0.5-0.399-0.8-0.8-1.199-1.199l0.199,0.1c0.101-0.1,0.5-0.3,1.2-0.7c0.601-0.399,0.8-0.5,0.8-0.7
			c-0.199,0-0.699,0.101-1.199,0.301c-0.5,0.3-0.9,0.6-1,1c-0.601-0.7-1-1.301-1.4-1.801C62.3,17,62.2,17.5,62.2,18.1
			c0,0.4,0.4,1.3,1.4,2.5c1.199,1.5,2.3,2.2,3.5,2.2c0.5,0,0.8-0.101,1-0.3C67.9,22.3,67.601,21.9,67,21.4v-0.1
			c0.3-0.2,0.7-0.5,1.101-0.9c0.3-0.6,0.6-0.899,0.8-1.2c0.7,0.601,1.399,0.9,2.2,0.9l0,0c0,0.1,0,0.1,0,0.2
			c0,0.899,0.199,1.5,0.5,2.1c0.199,0,0.199-0.1,0.3-0.2V22c0-0.601-0.101-1.301-0.3-2c0-0.101,0.1-0.2,0.199-0.301
			c0,0,0-0.1,0.101-0.199c0,0.1,0.1,0.199,0.2,0.3C72.8,19.2,73.4,18.4,74,17.4c-0.1,0-0.2,0-0.3,0c-0.4,0-0.8-0.2-1.1-0.5
			c-0.2,0.5-0.5,0.8-0.7,1.3c-0.101,0.2-0.3,0.301-0.3,0.5l0,0l-0.4-0.5C69.5,16,68.4,14.7,68.101,14
			C68.101,12.8,67.9,11.9,67.8,11.4z"/>
		<path fill="#FFF200" d="M67.8,24c-1.3-0.601-2.5-1.4-3.6-2.5c-1.4-1.5-2.4-3.101-2.8-5C60,19.2,58.601,21.7,57.3,24.3
			C61.601,24.5,65.101,24.3,67.8,24z"/>
		<path fill="#FFFFFF" d="M74,13.2c-1.2,0.2-1.899,0.801-1.899,2.2c0,0.3,0.1,0.601,0.3,1.101c0.1,0.1,0.2,0.199,0.2,0.399
			c0.3,0.3,0.699,0.5,1.1,0.5c0.1,0,0.2,0,0.3,0c0.601-0.1,1-0.399,1.3-0.8c0.4-0.4,0.5-0.9,0.5-1.3c0-0.5,0-0.9-0.199-1.2
			c-0.2-0.4-0.5-0.7-1.101-0.8C74.3,13.2,74.3,13.2,74.101,13.2C74.101,13.2,74.101,13.2,74,13.2z"/>
		<path fill="#D7DF23" d="M71.601,18.7L71.601,18.7c0-0.199,0.199-0.3,0.3-0.5C71.8,18.4,71.601,18.5,71.601,18.7z"/>
		<path d="M69.8,23.7L69.9,23.8h0.2C70,23.8,69.9,23.7,69.8,23.7z"/>
	</g>
</g>
</svg>
