<?xml version="1.0" encoding="utf-8"?>
<!-- Generator: Adobe Illustrator 13.0.0, SVG Export Plug-In . SVG Version: 6.00 Build 14948)  -->
<svg version="1.2" baseProfile="tiny" id="Layer_1" xmlns="http://www.w3.org/2000/svg" xmlns:xlink="http://www.w3.org/1999/xlink"
	 x="0px" y="0px" width="90.899px" height="42.8px" viewBox="0 0 90.899 42.8" xml:space="preserve">
<g>
	<g>
		<path d="M77.5,11.2c-0.601-0.2-1.3-0.5-1.9-0.6C72.2,9.7,69,9.5,66.2,10c0,0.1,0.1,0.2,0.3,0.4c1,0.1,2.7,0.3,5,0.8
			c-1.101,0.3-2.3,0.6-3.601,1.2c-5.699,2.4-9.5,6.8-11.399,13c-0.101,0.3-0.3,0.601-0.3,1c-0.7,1.8-1,3.101-1.2,4
			c-1.3,0.3-2.101,0.5-2.2,0.8c1.9,0.5,5.2,0.2,10-0.8c4.8-1.1,8.4-1.899,10.7-2.2c2.399-0.399,5.399-0.3,9,0.2
			c3.7,0.4,6.6,0.4,8.399,0c0,0,0,0,0-0.1C90.399,28.2,90.2,28.2,90,28.2c-0.8,0-1.601,0-2.3,0c0.199-0.5,0.399-1,0.5-1.5
			c0.199-0.5,0.199-0.899,0.3-1.3c0.6-3.9-0.4-7.2-3.2-9.8C82.899,13.2,80.3,11.7,77.5,11.2z M86.399,27.9c0,0,0,0.101,0,0.2
			c-0.1,0-0.1,0-0.1,0c-2.1-0.7-3.9-1.1-5.6-1.4v-0.3c0-0.899-0.2-1.7-0.5-2.6c-0.301-0.7-0.7-1.4-1.2-2.101
			c-1.601-2.2-4-3.2-7-2.899c-2.3-0.1-4.2,0.6-5.5,2c-1.3,1.399-2.101,2.7-2.2,3.8c-0.1,0.6-0.1,1-0.2,1.4c0,0.5-0.1,1-0.2,1.399
			c0,0.8,0,1.2,0,1.4c-3.8,0.899-6.5,1.399-8,1.5C56.2,29.8,56.5,28.9,57,27.7l0,0c1.2-3.199,2.2-5.5,3.2-7
			c3.699-5.9,9.1-8.4,16.199-7.7C84.2,13.7,87.7,17.8,86.7,25.4C86.5,26.7,86.399,27.5,86.399,27.9z M73.1,24.5
			c0.3,0.3,0.601,0.5,0.601,0.8s-0.2,0.6-0.5,0.899c-0.9-0.8-1.4-1.199-1.5-1.3v-0.1C72.2,24.4,72.7,24.3,73.1,24.5z M75.899,26.4
			c-0.3,0-0.5,0-0.699,0.101c0-0.301,0.1-0.7,0.1-1.101c0-1.899-0.9-2.899-2.9-2.7C70.5,22.8,69.6,23.9,69.6,26
			c0,0,0.101,0.399,0.2,1c0.1,0.199,0.1,0.3,0.2,0.399C69.2,27.5,68.2,27.8,67.2,28c0-0.2-0.101-0.4-0.301-0.601
			c-0.1-0.5-0.199-0.899-0.199-1c0-0.7,0.5-1.6,1.199-2.6c1-1.3,2.301-1.9,4-1.9c2.601,0,4.301,0.8,5.2,2.3
			c0.3,0.601,0.5,1.301,0.601,2.2C77.1,26.3,76.399,26.4,75.899,26.4z M78.3,26.4c0,0,0-0.1,0-0.2c0-1.699-0.6-3-1.9-3.899
			c-1-0.8-2.399-1.3-4-1.3c-1.699,0-3,0.5-4.199,1.3c-1.2,0.899-1.801,2.2-1.801,3.8c0,0.9,0.2,1.6,0.7,1.9
			C66.3,28.2,65.5,28.4,64.7,28.6v-0.4c0-1.699,0.399-3.199,1.1-4.5c1.4-2.6,3.9-3.899,7.4-3.899c3.199,0,5.199,1.2,6.199,3.7
			c0,0,0,0.1,0,0.199c0.4,0.801,0.7,1.801,0.801,2.9C79.5,26.5,78.899,26.4,78.3,26.4z"/>
		<path fill="#FEF2CD" d="M86.3,28.1l0.1-0.2c0-0.399,0.101-1.2,0.301-2.5l-6.5-1.6c0.3,0.899,0.5,1.7,0.5,2.6v0.3
			C82.399,27,84.2,27.4,86.3,28.1z"/>
		<path fill="#FFFAE1" d="M79,21.7c0.5,0.7,0.899,1.4,1.2,2.101l6.5,1.6c1-7.6-2.5-11.7-10.301-12.4c-7.1-0.7-12.5,1.8-16.199,7.7
			c-1,1.5-2,3.8-3.2,7l0,0L64.1,26c0.101-0.4,0.101-0.801,0.2-1.4c0.1-1.1,0.9-2.4,2.2-3.8c1.3-1.4,3.2-2.1,5.5-2
			C75,18.5,77.399,19.5,79,21.7z M76.1,13.5c1,0.1,2.3,0.5,3.7,1.2c3.6,1.7,5.4,3.8,5.4,6.3c0,0.2,0,0.5-0.2,0.7
			C84.899,22,84.7,22,84.399,22C84,20.9,83.3,19.7,82.2,18.5c-2-2.3-4.601-3.5-7.801-3.7c0,0.1,0-0.1,0-0.4
			C74.399,13.7,74.899,13.5,76.1,13.5z"/>
		<path fill="#FFFFFF" d="M79.8,14.7c-1.4-0.7-2.7-1.1-3.7-1.2c-1.2,0-1.7,0.2-1.7,0.9c0,0.3,0,0.5,0,0.4
			c3.2,0.2,5.801,1.4,7.801,3.7c1.1,1.2,1.8,2.4,2.199,3.5c0.301,0,0.5,0,0.601-0.301c0.2-0.2,0.2-0.5,0.2-0.7
			C85.2,18.5,83.399,16.4,79.8,14.7z"/>
		<path fill="#FEF2CD" d="M63.899,28.8c0-0.2,0-0.601,0-1.4C64,27,64.1,26.5,64.1,26L57,27.7c-0.5,1.2-0.8,2.101-1.101,2.601
			C57.399,30.2,60.1,29.7,63.899,28.8z"/>
		<path fill="#EF4130" d="M75.2,26.5C75.399,26.4,75.6,26.4,75.899,26.4c0.5,0,1.2-0.1,1.801,0C77.6,25.5,77.399,24.8,77.1,24.2
			c-0.899-1.5-2.6-2.3-5.2-2.3c-1.699,0-3,0.601-4,1.9C67.2,24.8,66.7,25.7,66.7,26.4c0,0.101,0.1,0.5,0.199,1
			C67.1,27.6,67.2,27.8,67.2,28c1-0.2,2-0.5,2.8-0.601c-0.101-0.1-0.101-0.2-0.2-0.399c-0.1-0.601-0.2-1-0.2-1
			c0-2.101,0.9-3.2,2.8-3.301c2-0.199,2.9,0.801,2.9,2.7C75.3,25.8,75.2,26.2,75.2,26.5z"/>
		<path fill="#C14E36" d="M78.3,26.2c0,0.101,0,0.2,0,0.2c0.6,0,1.2,0.101,1.9,0.2c-0.101-1.1-0.4-2.1-0.801-2.9
			c0-0.1,0-0.199,0-0.199c-1-2.5-3-3.7-6.199-3.7c-3.5,0-6,1.3-7.4,3.899C65.1,25,64.7,26.5,64.7,28.2v0.4
			c0.8-0.2,1.6-0.4,2.399-0.6c-0.5-0.301-0.7-1-0.7-1.9c0-1.6,0.601-2.9,1.801-3.8c1.199-0.8,2.5-1.3,4.199-1.3c1.601,0,3,0.5,4,1.3
			C77.7,23.2,78.3,24.5,78.3,26.2z"/>
		<path d="M80.5,9.8c-1.3-0.6-2.4-0.8-3.4-0.6c0.4,0.1,1.4,0.5,3.2,1.3c1.2,0.5,2.3,1,3.1,1.3l0.101-0.1C82.7,11,81.7,10.4,80.5,9.8
			z"/>
		<path d="M81.2,31.7C80.899,31.4,80.2,31.3,79,31c-1.8-0.2-3.8-0.301-6.4-0.2c-4.899,0.6-7.7,1.2-8.1,1.899h0.3
			c0.4,0,1.6-0.3,3.3-0.8c2.3-0.399,5.2-0.5,8.8-0.5c1.601,0,2.601,0,3,0.101C80.2,31.6,80.6,31.8,81,31.9
			C81.1,31.9,81.2,31.8,81.2,31.7z"/>
		<path d="M6.6,6.8c-0.4,0.3-0.7,0.6-1,0.9C1.9,11.5,0,16,0,21.2c0,5.2,1.9,9.7,5.6,13.5C9.3,38.4,13.7,40.3,19,40.3
			c4.2,0,7.9-1.3,11.2-3.7c-2.8,2.8-6.3,4.9-10.4,6.2h1.5c3.6-0.4,7.2-2.9,11.1-7.4c3.5-4.3,5.3-7.7,5.3-10.3V25
			c0.2-1.2,0.3-2.5,0.3-3.8c0-1-0.1-1.8-0.1-2.7c-0.6-4.1-2.4-7.7-5.5-10.8C29.5,4.8,26.1,3,22.2,2.4c2.3-0.6,4.3-0.9,5.9-1.2
			c0-0.2,0-0.3,0-0.4l-0.2,0.1c-0.2,0-0.4,0-0.5,0C23.5,1,20.1,1.5,16.9,2.2C13,2.7,9.5,4.2,6.6,6.8z M6.7,9
			c1.5-1.5,3.1-2.7,4.8-3.5c1.4-0.7,2.7-1.1,4.2-1.4c1-0.2,2.2-0.3,3.3-0.3c4.9,0,8.9,1.7,12.4,5.2c3.4,3.4,5.1,7.5,5.1,12.4
			c0,1-0.1,2-0.2,2.9c-0.6,3.5-2.2,6.7-4.9,9.5c-3.5,3.399-7.5,5.1-12.4,5.1c-4.8,0-8.9-1.7-12.3-5.1C3.2,30.3,1.5,26.2,1.5,21.4
			c0-3.4,0.8-6.4,2.4-9C4.7,11.2,5.6,10,6.7,9z"/>
		<path fill="#FFFAE1" d="M11.5,5.5C9.8,6.3,8.2,7.5,6.7,9c-1.1,1-2,2.2-2.8,3.4c-0.3,1.4-0.5,2.9-0.5,4.4c0,4.8,1.7,8.899,5,12.2
			c3.4,3.399,7.5,5.1,12.3,5.1c4.7,0,8.8-1.7,12.2-5.1c1.4-1.4,2.5-3,3.4-4.7c0.1-0.9,0.2-1.9,0.2-2.9c0-4.9-1.7-9-5.1-12.4
			C27.9,5.5,23.9,3.8,19,3.8c-1.1,0-2.3,0.1-3.3,0.3C14.2,4.4,12.9,4.8,11.5,5.5z M24.2,6.2c1.5,0.5,3,1.5,4.7,3
			c4.3,3.8,6.5,7.8,6.5,11.9c0,0.1,0,0.6,0,1.8c-0.2,1.101-0.5,1.8-1.2,1.8c0,0-0.4-1.3-1-3.7c-0.8-2.8-1.5-4.7-2-5.8
			c-2.2-3.9-4.3-6.5-6.5-7.7c-1.6-0.4-2.5-0.8-2.5-1.3C22.2,5.6,22.9,5.5,24.2,6.2z M27.2,21.4c0,0.1,0,0.3-0.1,0.4L26.7,22
			c0-0.2-0.2-0.601-0.5-1.2c-0.3-0.5-0.5-0.9-0.6-1.1c0.3,0,0.7,0.1,1.1,0.5C27,20.7,27.2,21,27.2,21.4z M24.1,19.7
			c0.4,0.5,0.6,1,0.6,1.6c0,0.7-0.2,1.2-0.6,1.6c-0.4,0.5-1,0.601-1.7,0.601c-0.6,0-1.1-0.101-1.5-0.601
			C20.4,22.5,20.2,22,20.2,21.3c0-0.6,0.2-1.1,0.7-1.6c0.4-0.5,0.9-0.7,1.5-0.7C23.1,19,23.7,19.2,24.1,19.7z M19.2,21.2
			c0-0.5,0.1-0.8,0.3-1.1c0.2,0.4,0.2,0.7,0.2,1.3c0,0.601,0,1.101,0.1,1.4h-0.2C19.3,22.3,19.2,21.8,19.2,21.2z"/>
		<path fill="#FFFFFF" d="M28.9,9.2c-1.7-1.5-3.2-2.5-4.7-3c-1.3-0.7-2-0.6-2,0c0,0.5,0.9,0.9,2.5,1.3c2.2,1.2,4.3,3.8,6.5,7.7
			c0.5,1.1,1.2,3,2,5.8c0.6,2.4,1,3.7,1,3.7c0.7,0,1-0.699,1.2-1.8c0-1.2,0-1.7,0-1.8C35.4,17,33.2,13,28.9,9.2z"/>
		<path d="M27.1,21.8c0.1-0.101,0.1-0.3,0.1-0.4c0-0.4-0.2-0.7-0.5-1.2c-0.4-0.4-0.8-0.5-1.1-0.5c0.1,0.2,0.3,0.6,0.6,1.1
			c0.3,0.6,0.5,1,0.5,1.2L27.1,21.8z"/>
		<path fill="#C14E36" d="M24.7,21.3c0-0.6-0.2-1.1-0.6-1.6c-0.4-0.5-1-0.7-1.7-0.7c-0.6,0-1.1,0.2-1.5,0.7c-0.5,0.5-0.7,1-0.7,1.6
			c0,0.7,0.2,1.2,0.7,1.6c0.4,0.5,0.9,0.601,1.5,0.601c0.7,0,1.3-0.101,1.7-0.601C24.5,22.5,24.7,22,24.7,21.3z M24.2,21.4
			c0,0.4-0.1,0.9-0.5,1.3c-0.3,0.301-0.8,0.5-1.2,0.5c-0.4,0-0.8-0.199-1.2-0.5c-0.4-0.399-0.6-0.899-0.6-1.3c0-0.6,0.2-0.9,0.6-1.3
			s0.8-0.6,1.2-0.6c0.4,0,0.9,0.2,1.2,0.6C24.1,20.5,24.2,20.8,24.2,21.4z"/>
		<path d="M23.7,22.7c0.4-0.399,0.5-0.899,0.5-1.3c0-0.6-0.1-0.9-0.5-1.3c-0.3-0.4-0.8-0.6-1.2-0.6c-0.4,0-0.8,0.2-1.2,0.6
			s-0.6,0.7-0.6,1.3c0,0.4,0.2,0.9,0.6,1.3c0.4,0.301,0.8,0.5,1.2,0.5C22.9,23.2,23.4,23,23.7,22.7z"/>
		<path d="M19.5,20.1c-0.2,0.3-0.3,0.6-0.3,1.1c0,0.6,0.1,1.1,0.4,1.6h0.2c-0.1-0.3-0.1-0.8-0.1-1.4C19.7,20.8,19.7,20.5,19.5,20.1z
			"/>
		<path fill="#FEF2CD" d="M19,38.9c4.9,0,8.9-1.7,12.4-5.1c2.7-2.8,4.3-6,4.9-9.5c-0.9,1.7-2,3.3-3.4,4.7
			c-3.4,3.399-7.5,5.1-12.2,5.1c-4.8,0-8.9-1.7-12.3-5.1c-3.3-3.301-5-7.4-5-12.2c0-1.5,0.2-3,0.5-4.4c-1.6,2.6-2.4,5.6-2.4,9
			c0,4.8,1.7,8.9,5.2,12.4C10.1,37.2,14.2,38.9,19,38.9z"/>
		<path d="M3.9,5.5c0,0.4,0,0.5,0,0.3c4.2-3.4,7.3-5.3,9.5-5.6L12.9,0h-1c-1.2,0-2.9,0.7-5,2C4.9,3.4,3.9,4.6,3.9,5.5z"/>
	</g>
</g>
</svg>
