<?xml version="1.0" encoding="utf-8"?>
<!-- Generator: Adobe Illustrator 13.0.0, SVG Export Plug-In . SVG Version: 6.00 Build 14948)  -->
<svg version="1.2" baseProfile="tiny" id="Layer_1" xmlns="http://www.w3.org/2000/svg" xmlns:xlink="http://www.w3.org/1999/xlink"
	 x="0px" y="0px" width="97.4px" height="34.947px" viewBox="0 0 97.4 34.947" xml:space="preserve">
<g>
	<g>
		<path d="M92,7.747c0.101-0.1,0.801-0.5,2-1.3l-1.199,0.4c-2,0.6-3.301,1-3.801,1h-0.3c-0.7-0.8-1.399-1.6-2.2-2.6
			c0.101,0,0.2-0.1,0.301-0.3c0.199-0.2,0.199-0.4,0.3-0.5c-0.101,0-0.4,0.2-0.8,0.4c0,0-0.101,0-0.2,0.1c-0.8-0.9-1.8-1.6-3-2.1
			c0.1-0.1,0.2-0.2,0.2-0.4c0.199-0.4,0.399-0.7,0.5-0.9c-0.301,0.1-0.601,0.4-1,1.1c-1.5-0.6-3.301-0.9-5.301-0.9
			c-3.8,0-7.199,1.6-10.399,4.8c-3.101,3.2-5.101,4.9-5.9,5.4c-0.7,0.3-1.399,0.8-2.2,1.3c-0.199,0-0.5,0.1-0.699,0.3
			c1.399,0.2,2.699-0.4,4.199-1.7c1.5-1.2,3.301-2.9,5.301-5c2-2.2,4.899-3.4,8.399-3.6c3.601-0.1,6.5,0.9,8.8,3.1
			c2.301,2.2,4,3.6,4.801,4.3c0.3,0.1,0.699,0.3,0.899,0.5c0.601,0.3,1.101,0.7,1.7,1c1.4,0.8,3.1,0.9,5,0.3c-0.2,0-0.4,0-0.6,0.1
			C94,12.347,92,11.747,91,10.447c-0.5-0.6-1.1-1.2-1.699-2.1C90.2,8.347,91.1,8.147,92,7.747z"/>
		<path fill="#FFF685" d="M90.7,11.147c-0.2-0.2-0.6-0.4-0.899-0.5c-0.801-0.7-2.5-2.1-4.801-4.3c-2.3-2.2-5.199-3.2-8.8-3.1
			c-3.5,0.2-6.399,1.4-8.399,3.6c-2,2.1-3.801,3.8-5.301,5c-1.5,1.3-2.8,1.9-4.199,1.7c0.199-0.2,0.5-0.3,0.699-0.3
			c-0.5,0-0.899,0-1.199,0.1c-0.101,0-0.301,0-0.301,0c0.2,0.1,0.301,0.1,0.5,0.1c-0.199,0.2-0.6,0.3-1.3,0.4c-0.1,0-0.1,0-0.1,0
			c-0.101,0.1-0.3,0.4-0.3,0.6c0,0.4,0.199,0.7,0.5,0.8c0.1,0,0.1,0,0.1,0c0.1,0,0.2-0.1,0.4-0.1c0.199-0.2,0.5-0.3,1-0.3l0.199,0.1
			l0.101,0.2c-0.3,0.1-0.5,0.3-0.8,0.4c0.399,0.1,0.899,0.1,1.5,0.1c0,0,0.1,0,0.199,0c-0.1-0.1-0.199-0.1-0.3-0.2
			c0.101,0.1,0.3,0.1,0.5,0.2c0.101,0,0.101,0,0.3,0c0,0,0,0.1,0.101,0.1c1.2,0.5,2.399,1.3,3.6,2.6c0.2,0.3,1.4,1.9,3.7,5.2
			c0.8,1.2,1.6,2.2,2.6,3.1c1.301,1.2,2.801,2.301,4.5,3.101c0.4,0.1,0.801,0.3,1.101,0.399h0.1v0.101c1.3,0.399,2.601,0.6,4,0.6
			c2,0.101,3.8-0.2,5.601-1c1.699-0.8,3-2,4-3.6c0.5-0.9,1.1-1.9,1.699-2.8c0-0.2,0.101-0.4,0.2-0.601c0.8-2.5,1.3-4.9,1.3-7.2
			C92.5,14.247,91.8,12.747,90.7,11.147z M82,11.647c-0.399-0.3-0.699-0.5-1-0.8c0.101,1.1,0.101,2,0.101,3c0,1.1,0.1,2.3,0.2,3.4
			c3.5,1.399,5.199,3.5,5.199,6.2c0,0.8-0.5,1.8-1.399,3c-0.8,1-1.8,1.8-3,2.199L82,30.347l-0.5,0.2c-0.399-0.3-0.6-0.8-0.8-1.6
			c-0.3,0-0.6,0-0.899,0c-0.801,0-1.5-0.101-2.101-0.301c0,0.2,0,0.5,0,0.7l-0.2,0.2c-0.1,0.1-0.3,0.2-0.5,0.2
			c-0.6,0-0.899-0.601-1-1.8v-0.101c-0.699-0.3-1.199-0.8-1.6-1.399c-0.9-1.101-1.3-2-1.3-2.801c0-0.399,0.2-0.899,0.399-1.3
			c0.301-0.5,0.601-0.8,1.2-0.8c0.101,0,0.5,0.7,1.3,2.2c0-2.3,0-4.101,0-5.601c-1.899-1.1-2.8-2.6-2.8-4.399
			c0-2.9,1.101-4.8,3.3-5.5c0.2-1,0.301-2.1,0.5-3c0.7,0.2,1,0.6,1,1c0,0.1-0.1,0.5-0.199,1v0.7c0.399,0,0.899-0.1,1.3-0.1
			c0.2,0,0.2,0,0.399,0c0-3.8,0.301-4.4,0.801-1.7c0.199,0.7,0.3,1.2,0.399,1.9c0.9,0.2,1.7,0.4,2.4,0.9
			c1.3,0.7,1.899,1.5,1.899,2.5c0,0.4-0.1,0.8-0.199,1c-0.301,0.4-0.7,0.7-1.101,0.7C83.1,12.647,82.5,12.147,82,11.647z
			 M81.5,6.047c0-1.8,1.5-1.4,4.5,1.2c2.9,2.6,4.4,4.7,4.4,6.2c0,0.5-0.3,0.8-0.9,0.8C89.2,14.247,86.5,11.547,81.5,6.047z
			 M66.2,15.747c0.7,0.7,1.5,1.9,2.3,3.5c1.2,1.2,2.301,2.5,3.5,4c1.101,1.399,1.7,2.2,1.7,2.5c0,0.5,0,0.899-0.2,1.399
			c-0.199,0.7-0.6,1.101-1,1.101c-0.6,0-2.1-1.7-4.5-5c-2.699-3.9-4.5-6.2-5.5-7C63.6,14.447,64.8,14.247,66.2,15.747z"/>
		<path fill="#678C5D" d="M81,10.847c0.301,0.3,0.601,0.5,1,0.8c0.5,0.5,1.101,1,1.7,1.5c0.4,0,0.8-0.3,1.101-0.7
			c0.1-0.2,0.199-0.6,0.199-1c0-1-0.6-1.8-1.899-2.5c-0.7-0.5-1.5-0.7-2.4-0.9c-0.1-0.7-0.2-1.2-0.399-1.9
			c-0.5-2.7-0.801-2.1-0.801,1.7c-0.199,0-0.199,0-0.399,0c-0.4,0-0.9,0.1-1.3,0.1v-0.7c0.1-0.5,0.199-0.9,0.199-1
			c0-0.4-0.3-0.8-1-1c-0.199,0.9-0.3,2-0.5,3c-2.199,0.7-3.3,2.6-3.3,5.5c0,1.8,0.9,3.3,2.8,4.399c0,1.5,0,3.301,0,5.601
			c-0.8-1.5-1.199-2.2-1.3-2.2c-0.6,0-0.899,0.3-1.2,0.8c-0.199,0.4-0.399,0.9-0.399,1.3c0,0.801,0.399,1.7,1.3,2.801
			c0.4,0.6,0.9,1.1,1.6,1.399v0.101c0.101,1.199,0.4,1.8,1,1.8c0.2,0,0.4-0.101,0.5-0.2l0.2-0.2c0-0.2,0-0.5,0-0.7
			c0.601,0.2,1.3,0.301,2.101,0.301c0.3,0,0.6,0,0.899,0c0.2,0.8,0.4,1.3,0.8,1.6l0.5-0.2l0.101-1.7c1.2-0.399,2.2-1.199,3-2.199
			c0.899-1.2,1.399-2.2,1.399-3c0-2.7-1.699-4.801-5.199-6.2c-0.101-1.1-0.2-2.3-0.2-3.4C81.1,12.847,81.1,11.947,81,10.847z
			 M82.1,20.447c1.2,0.699,1.7,1.699,1.7,3c0,0.399-0.301,0.8-0.9,1.5c-0.2,0.3-0.5,0.5-0.8,0.699c-0.101-1.399-0.2-3-0.4-4.699
			c-0.1-0.2-0.1-0.5-0.2-0.7C81.8,20.247,82,20.347,82.1,20.447z M79,10.047c0.101,0,0.301,0.1,0.5,0.1c0,2.5,0,4.7,0,6.4
			c-0.5-0.3-1-0.4-1.399-0.6c0.1-0.7,0.1-1.3,0.1-1.9l-0.2-3.8C78.3,10.147,78.6,10.047,79,10.047z M76.2,11.747c0,0,0,0,0.101,0
			c-0.101,0.9-0.2,1.9-0.2,2.9c-0.3-0.4-0.4-0.8-0.4-1.2C75.8,12.847,76,12.247,76.2,11.747z M79.6,19.447c0,0.6,0,1.1,0.1,1.5
			c0.101,2.1,0.2,3.899,0.4,5.3c-1,0-1.8-0.3-2.601-0.601c0-1.699,0.101-3.199,0.301-4.6c0-0.8,0.1-1.4,0.199-2.1
			c0.101,0.1,0.301,0.199,0.5,0.199C78.9,19.247,79.3,19.347,79.6,19.447z"/>
		<path fill="#FFF685" d="M83.8,23.447c0-1.301-0.5-2.301-1.7-3c-0.101-0.101-0.3-0.2-0.601-0.2c0.101,0.2,0.101,0.5,0.2,0.7
			c0.2,1.699,0.3,3.3,0.4,4.699c0.3-0.199,0.6-0.399,0.8-0.699C83.5,24.247,83.8,23.847,83.8,23.447z"/>
		<path fill="#FFF685" d="M79.5,10.147c-0.199,0-0.399-0.1-0.5-0.1c-0.399,0-0.699,0.1-1,0.2l0.2,3.8c0,0.6,0,1.2-0.1,1.9
			c0.399,0.2,0.899,0.3,1.399,0.6C79.5,14.847,79.5,12.647,79.5,10.147z"/>
		<path fill="#FFF685" d="M76.3,11.747c-0.101,0-0.101,0-0.101,0c-0.2,0.5-0.399,1.1-0.5,1.7c0,0.4,0.101,0.8,0.4,1.2
			C76.1,13.647,76.2,12.647,76.3,11.747z"/>
		<path fill="#FFF685" d="M79.7,20.947c-0.1-0.4-0.1-0.9-0.1-1.5c-0.3-0.101-0.7-0.2-1.101-0.301c-0.199,0-0.399-0.1-0.5-0.199
			c-0.1,0.699-0.199,1.3-0.199,2.1c-0.2,1.4-0.301,2.9-0.301,4.6c0.801,0.301,1.601,0.601,2.601,0.601
			C79.9,24.847,79.8,23.047,79.7,20.947z"/>
		<path fill="#FDF9CA" d="M86,7.247c-3-2.6-4.5-3-4.5-1.2c5,5.5,7.7,8.2,8,8.2c0.601,0,0.9-0.3,0.9-0.8
			C90.4,11.947,88.9,9.847,86,7.247z"/>
		<path fill="#F7E985" d="M68.5,19.247c-0.8-1.6-1.6-2.8-2.3-3.5c-1.399-1.5-2.6-1.3-3.7,0.5c1,0.8,2.801,3.1,5.5,7
			c2.4,3.3,3.9,5,4.5,5c0.4,0,0.801-0.4,1-1.101c0.2-0.5,0.2-0.899,0.2-1.399c0-0.3-0.6-1.101-1.7-2.5
			C70.8,21.747,69.7,20.447,68.5,19.247z"/>
		<path d="M92.7,21.646c0.4-0.6,0.9-1.199,1.4-1.6c1.2-1.1,1.899-1.7,2.1-1.8c-0.2,0-0.399,0-0.5,0c-0.6,0.3-1.2,0.6-1.7,1.1
			c-0.399,0.5-0.899,0.9-1.3,1.5c-0.2,0.101-0.2,0.3-0.399,0.4c-0.4,0.7-0.801,1.5-1.301,2.2c-0.6,0.899-1.199,1.899-1.699,2.8
			c-1,1.6-2.301,2.8-4,3.6c-1.801,0.8-3.601,1.101-5.601,1c-1.399,0-2.7-0.2-4-0.6v-0.101h-0.1c-0.3-0.1-0.7-0.3-1.101-0.399
			c-1.699-0.8-3.199-1.9-4.5-3.101c-1-0.899-1.8-1.899-2.6-3.1c-2.3-3.3-3.5-4.9-3.7-5.2c-1.2-1.3-2.399-2.1-3.6-2.6
			c-0.101,0-0.3-0.1-0.4-0.1c-0.2-0.1-0.399-0.1-0.5-0.2c0.101,0.1,0.2,0.1,0.3,0.2c0.301,0.1,0.601,0.3,1,0.6
			c0.801,1,2.301,2.5,4.101,4.6c0.399,0.601,0.899,1.3,1.5,2c1.3,1.9,2.6,3.5,3.899,4.9c1,1.2,2.301,2.2,3.7,3.2
			c0.101,0.1,0.3,0.199,0.4,0.3c-0.3,0.5-0.3,1.1-0.3,2v0.2l0,0c0.3-0.301,0.699-0.9,1.199-1.601l0,0c0.801,0.3,1.601,0.601,2.5,0.8
			c-0.199,0.2-0.199,0.5-0.199,0.601v0.399c0.199-0.3,0.399-0.5,0.5-0.8h0.1c0.1,0,0.1-0.1,0.1-0.1c0.101,0,0.2,0,0.301,0
			c0.699,0.1,1.199,0.1,1.899,0.1l-0.1,2.101h0.1c0.3-0.7,0.4-1.4,0.4-2c0,0,0,0,0-0.101c0.899,0,1.7-0.1,2.6-0.2
			c0,0.101,0,0.2,0,0.2c0,0.5,0.101,0.8,0.3,0.9c0-0.101,0.101-0.4,0.101-0.8c0-0.101,0-0.2,0-0.4c0-0.1,0-0.1,0.1-0.1
			c0.601-0.2,1.3-0.4,1.9-0.7c0.399,0.5,0.7,0.899,1.3,1.5l0.3-0.3c-0.399-0.7-0.7-1.2-1.1-1.601c0.899-0.5,1.6-1.1,2.2-2
			c0.699-0.8,1.199-1.7,1.699-2.6C91,25.047,91.8,23.347,92.7,21.646z"/>
		<path d="M58.6,15.147l-0.101-0.2l-0.199-0.1c-0.5,0-0.801,0.1-1,0.3c-0.2,0-0.301,0.1-0.4,0.1c-0.1,0.1-0.3,0.1-0.4,0.1
			c-0.199,0-0.199-0.1-0.399-0.4c-0.101-0.1-0.3-0.3-0.3-0.4c0-0.3,0.3-0.6,0.8-0.7c0,0,0,0,0.1,0c0.7-0.1,1.101-0.2,1.3-0.4
			c-0.199,0-0.3,0-0.5-0.1c-0.199,0-0.5,0-0.699,0c-0.801,0-1.301,0.4-1.301,1.1c0,0.2,0.2,0.4,0.301,0.7
			c0.199,0.4,0.399,0.6,0.699,0.6c0.4,0,0.601,0,0.801,0c0.199-0.1,0.399-0.1,0.5-0.2C58.1,15.447,58.3,15.247,58.6,15.147z"/>
		<path d="M78,0.947c0.7,0.2,1,0.3,1.301,0.3c0.199,0,0.3-0.1,0.399-0.1c-2.6-1.4-5.2-1.5-7.7-0.4c-2,0.9-4.3,2.6-7,5.3H65.1
			c1-1,2.1-1.9,3.399-2.8c2.601-1.8,5.301-2.6,7.9-2.6C76.9,0.647,77.5,0.747,78,0.947z"/>
		<path d="M55.5,12.247v-0.1c-0.5,0-1,0.2-1.399,0.7c-0.3,0.4-0.4,0.7-0.4,1c0,0.2,0.101,0.5,0.5,1l0.101-0.1
			c-0.2-0.5-0.101-0.9,0.199-1.3C54.6,13.247,55,12.847,55.5,12.247z"/>
		<path d="M41.2,11.847c0,0-0.1,0-0.2,0.1c0.2,0,0.6,0.3,1.1,0.7c0.7,0.5,0.9,0.7,0.9,0.9c0,0.3-0.1,0.8-0.5,1.4h0.3
			c0.3-0.5,0.5-0.9,0.5-1.3C43.3,13.047,42.6,12.447,41.2,11.847z"/>
		<path fill="#FFF685" d="M40.8,13.847L40.8,13.847c-0.8-0.1-1.2-0.2-1.3-0.4c0.1,0,0.3,0,0.5-0.1c-0.2,0-0.2,0-0.3,0
			c-0.4-0.1-0.9-0.1-1.2-0.1c0.2,0,0.3,0.1,0.6,0.3c-1.3,0.2-2.8-0.4-4.2-1.7c-1.4-1.2-3.2-2.9-5.3-5c-2.1-2.2-4.8-3.4-8.4-3.6
			c-3.5-0.1-6.4,0.9-8.8,3.1c-2.4,2.2-4,3.6-4.9,4.3c-0.2,0.1-0.5,0.3-0.8,0.5c-1.2,1.6-1.7,3.1-1.7,4.5c0,2.3,0.3,4.7,1.2,7.2
			c0.1,0.2,0.1,0.4,0.3,0.601c0.5,0.899,1.1,1.899,1.6,2.8c1,1.6,2.3,2.8,3.9,3.6c1.8,0.8,3.8,1.101,5.7,1c1.3,0,2.7-0.2,4.1-0.6
			v-0.101l0,0c0.3-0.1,0.7-0.3,1-0.399c1.7-0.8,3.3-1.9,4.7-3.101c0.8-0.899,1.7-1.899,2.5-3.1c2.3-3.3,3.5-4.9,3.8-5.2
			c1.1-1.3,2.3-2.1,3.5-2.6c0.1,0,0.1-0.1,0.2-0.1c0,0,0.2,0,0.3,0c0.1-0.1,0.2-0.1,0.4-0.2c-0.1,0.1-0.2,0.1-0.2,0.2h0.1
			c0.6,0,1.1,0,1.4-0.1c-0.2-0.1-0.5-0.3-0.7-0.4v-0.2l0.3-0.1c0.5,0,0.9,0.1,1,0.3c0.2,0,0.2,0.1,0.4,0.1l0,0
			c0.4-0.1,0.5-0.4,0.5-0.8C41,14.247,41,13.947,40.8,13.847z M32.3,10.747c0,0.5-0.3,0.7-0.9,0.7c-1.6-1-3.3-2-4.9-2.9
			c-3.2-1.9-4.8-2.8-4.8-2.7c0-2.4,1.8-2.5,5.3-0.1C30.5,8.147,32.3,9.747,32.3,10.747z M24,11.247c0,0.4-0.2,0.7-0.3,1
			c-0.2,0.4-0.6,0.6-1,0.6c-0.6-0.5-1.2-1-1.8-1.5c-0.4-0.2-0.6-0.5-0.9-0.7c0,1.1,0.1,2,0.1,3c0,1.1,0,2.2,0.2,3.3
			c3.4,1.4,5.1,3.5,5.1,6.3c0,0.8-0.4,1.8-1.3,3c-0.8,1-1.8,1.7-3.1,2.1v1.8l-0.6,0.101c-0.3-0.3-0.6-0.8-0.8-1.5
			c-0.3,0-0.6,0-0.8,0c-0.8,0-1.5-0.101-2.2-0.4c0,0.3,0,0.5,0,0.8l-0.1,0.101c-0.2,0.1-0.4,0.2-0.6,0.2c-0.6,0-0.9-0.601-1-1.7
			v-0.101c-0.6-0.399-1.1-0.8-1.6-1.399c-0.8-1.101-1.2-2-1.2-2.9c0-0.399,0.1-0.899,0.3-1.2c0.3-0.5,0.7-0.899,1.3-0.899
			c0.1,0,0.4,0.7,1.2,2.2c0-2.2,0-4.101,0.1-5.601c-1.9-1-2.9-2.6-2.9-4.4c0-2.9,1.2-4.7,3.4-5.5c0.1-1,0.3-2.1,0.4-3
			c0.8,0.3,1.1,0.6,1.1,1c0,0.2-0.2,0.5-0.3,1l0.1,0.8c0.3,0,0.8-0.1,1.2-0.1c0.2,0,0.3,0,0.5,0c0-3.8,0.3-4.4,0.8-1.8
			c0.2,0.7,0.2,1.3,0.4,2c0.8,0.1,1.6,0.4,2.4,0.9C23.3,9.347,24,10.247,24,11.247z M29,19.547c3.6-4.7,5.4-5.8,5.4-3.3
			c0,0.5-1.4,2.399-4.1,5.8c-2.8,3.6-4.8,5.8-6,6.4c-0.3,0-0.5,0-0.5,0s-0.1-0.2-0.1-0.5C23.7,27.047,25.5,24.247,29,19.547z"/>
		<path fill="#FDF9CA" d="M31.4,11.447c0.6,0,0.9-0.2,0.9-0.7c0-1-1.8-2.6-5.3-5c-3.5-2.4-5.3-2.3-5.3,0.1c0-0.1,1.6,0.8,4.8,2.7
			C28.1,9.447,29.8,10.447,31.4,11.447z"/>
		<path fill="#678C5D" d="M23.7,12.247c0.1-0.3,0.3-0.6,0.3-1c0-1-0.7-1.9-1.9-2.5c-0.8-0.5-1.6-0.8-2.4-0.9c-0.2-0.7-0.2-1.3-0.4-2
			c-0.5-2.6-0.8-2-0.8,1.8c-0.2,0-0.3,0-0.5,0c-0.4,0-0.9,0.1-1.2,0.1l-0.1-0.8c0.1-0.5,0.3-0.8,0.3-1c0-0.4-0.3-0.7-1.1-1
			c-0.1,0.9-0.3,2-0.4,3c-2.2,0.8-3.4,2.6-3.4,5.5c0,1.8,1,3.4,2.9,4.4c-0.1,1.5-0.1,3.4-0.1,5.601c-0.8-1.5-1.1-2.2-1.2-2.2
			c-0.6,0-1,0.399-1.3,0.899c-0.2,0.301-0.3,0.801-0.3,1.2c0,0.9,0.4,1.8,1.2,2.9c0.5,0.6,1,1,1.6,1.399v0.101
			c0.1,1.1,0.4,1.7,1,1.7c0.2,0,0.4-0.101,0.6-0.2l0.1-0.101c0-0.3,0-0.5,0-0.8c0.7,0.3,1.4,0.4,2.2,0.4c0.2,0,0.5,0,0.8,0
			c0.2,0.7,0.5,1.2,0.8,1.5l0.6-0.101v-1.8c1.3-0.399,2.3-1.1,3.1-2.1c0.9-1.2,1.3-2.2,1.3-3c0-2.8-1.7-4.9-5.1-6.3
			c-0.2-1.1-0.2-2.2-0.2-3.3c0-1-0.1-1.9-0.1-3c0.3,0.2,0.5,0.5,0.9,0.7c0.6,0.5,1.2,1,1.8,1.5C23.1,12.847,23.5,12.647,23.7,12.247
			z M20.6,20.747c-0.1-0.3-0.1-0.5-0.1-0.8c0.3,0.1,0.5,0.199,0.6,0.3c1.1,0.6,1.7,1.6,1.7,3c0,0.3-0.3,0.8-1,1.5
			c-0.2,0.2-0.5,0.5-0.7,0.6C21,23.947,20.8,22.347,20.6,20.747z M16.9,9.947c0.3-0.1,0.6-0.1,1-0.1c0.1,0,0.4,0,0.6,0
			c0,2.5,0,4.7,0,6.4c-0.6-0.2-1-0.4-1.4-0.5c0-0.8,0-1.4,0-1.9L16.9,9.947z M15.1,11.447c0,0,0,0,0.1,0c-0.1,0.9-0.1,1.9-0.2,2.9
			c-0.2-0.3-0.3-0.7-0.3-1.1C14.7,12.647,14.9,12.047,15.1,11.447z M17.5,18.847c0.3,0.101,0.7,0.3,1,0.4c0,0.6,0,1,0.1,1.5
			c0.1,2.1,0.2,3.8,0.4,5.2c-1,0-1.8-0.2-2.5-0.601c0-1.6,0-3.1,0.2-4.5c0.1-0.8,0.1-1.5,0.2-2.1C17,18.847,17.3,18.847,17.5,18.847
			z"/>
		<path fill="#FFF685" d="M20.5,19.947c0,0.3,0,0.5,0.1,0.8c0.2,1.6,0.4,3.2,0.5,4.6c0.2-0.1,0.5-0.399,0.7-0.6c0.7-0.7,1-1.2,1-1.5
			c0-1.4-0.6-2.4-1.7-3C21,20.146,20.8,20.047,20.5,19.947z"/>
		<path fill="#FFF685" d="M17.9,9.847c-0.4,0-0.7,0-1,0.1l0.2,3.9c0,0.5,0,1.1,0,1.9c0.4,0.1,0.8,0.3,1.4,0.5c0-1.7,0-3.9,0-6.4
			C18.3,9.847,18,9.847,17.9,9.847z"/>
		<path fill="#FFF685" d="M15.2,11.447c-0.1,0-0.1,0-0.1,0c-0.2,0.6-0.4,1.2-0.4,1.8c0,0.4,0.1,0.8,0.3,1.1
			C15.1,13.347,15.1,12.347,15.2,11.447z"/>
		<path fill="#FFF685" d="M18.5,19.247c-0.3-0.101-0.7-0.3-1-0.4c-0.2,0-0.5,0-0.6-0.1c-0.1,0.6-0.1,1.3-0.2,2.1
			c-0.2,1.4-0.2,2.9-0.2,4.5c0.7,0.4,1.5,0.601,2.5,0.601c-0.2-1.4-0.3-3.101-0.4-5.2C18.5,20.247,18.5,19.847,18.5,19.247z"/>
		<path fill="#F7E985" d="M34.4,16.247c0-2.5-1.8-1.4-5.4,3.3c-3.5,4.7-5.3,7.5-5.3,8.4c0,0.3,0.1,0.5,0.1,0.5s0.2,0,0.5,0
			c1.2-0.601,3.2-2.801,6-6.4C33,18.646,34.4,16.747,34.4,16.247z"/>
		<path d="M40.8,13.847L40.8,13.847c0.5,0.1,0.7,0.4,0.7,0.7c0,0.1,0,0.3-0.2,0.4c-0.2,0.3-0.3,0.4-0.3,0.4c-0.2,0-0.3,0-0.5-0.1
			c-0.2,0-0.2-0.1-0.4-0.1c-0.1-0.2-0.5-0.3-1-0.3l-0.3,0.1v0.2c0.2,0.1,0.5,0.3,0.7,0.4c0.3,0.1,0.5,0.1,0.6,0.2c0.2,0,0.4,0,0.9,0
			c0.2,0,0.4-0.2,0.6-0.6c0.2-0.3,0.2-0.5,0.2-0.7c0-0.7-0.3-1.1-1.1-1.1c-0.3,0-0.6,0-0.7,0c-0.2,0.1-0.4,0.1-0.5,0.1
			C39.6,13.647,40,13.747,40.8,13.847z"/>
		<path d="M21.2,3.247c3.6,0.2,6.3,1.4,8.4,3.6c2.1,2.1,3.9,3.8,5.3,5c1.4,1.3,2.9,1.9,4.2,1.7c-0.3-0.2-0.4-0.3-0.6-0.3
			c-0.9-0.5-1.7-1-2.3-1.3c-0.8-0.5-2.7-2.2-5.9-5.4c-3.2-3.2-6.6-4.8-10.5-4.8c-1.9,0-3.7,0.3-5.1,0.9c-0.5-0.7-0.8-1-1-1.1
			c0.1,0.2,0.2,0.5,0.4,0.9c0,0.2,0.1,0.3,0.2,0.4c-1.2,0.5-2.2,1.2-3,2.1c-0.1-0.1-0.2-0.1-0.2-0.1c-0.3-0.2-0.6-0.4-0.8-0.4
			c0,0.1,0.2,0.3,0.3,0.5c0.1,0.2,0.2,0.3,0.4,0.3c-0.9,1-1.7,1.8-2.3,2.6H8.5c-0.7,0-1.9-0.4-3.8-1l-1.2-0.4
			c1.1,0.8,1.8,1.2,1.9,1.3c0.9,0.4,1.8,0.6,2.7,0.6c-0.6,0.9-1.2,1.5-1.7,2.1c-1.1,1.3-3,1.9-5.8,2.1c-0.2-0.1-0.4-0.1-0.6-0.1
			c2,0.6,3.7,0.5,5-0.3c0.5-0.3,1.1-0.7,1.7-1c0.3-0.2,0.6-0.4,0.8-0.5c0.9-0.7,2.5-2.1,4.9-4.3C14.8,4.147,17.7,3.147,21.2,3.247z"
			/>
		<path d="M37.8,15.647c-0.2,0-0.3,0.1-0.5,0.1c-1.2,0.5-2.4,1.3-3.5,2.6c-0.3,0.3-1.5,1.9-3.8,5.2c-0.8,1.2-1.7,2.2-2.5,3.1
			c-1.4,1.2-3,2.301-4.7,3.101c-0.3,0.1-0.7,0.3-1,0.399l0,0v0.101c-1.4,0.399-2.8,0.6-4.1,0.6c-1.9,0.101-3.9-0.2-5.7-1
			c-1.6-0.8-2.9-2-3.9-3.6c-0.5-0.9-1.1-1.9-1.6-2.8c-0.5-0.7-1-1.5-1.5-2.2c0-0.101-0.2-0.3-0.3-0.4c-0.4-0.6-0.9-1-1.4-1.5
			s-1-0.8-1.6-1.1c-0.1,0-0.3,0-0.5,0c0.1,0.1,0.8,0.7,2.1,1.8c0.5,0.4,1,1,1.4,1.6c0.8,1.7,1.8,3.4,2.6,5.101
			c0.5,0.899,1.2,1.8,1.8,2.6c0.6,0.9,1.3,1.5,2.2,2c-0.4,0.4-0.8,0.9-1.1,1.601l0.3,0.3c0.5-0.601,1-1,1.3-1.5
			c0.6,0.3,1.2,0.5,2,0.7c0,0,0,0,0,0.1c0,0.2,0,0.3,0,0.4c0,0.399,0,0.699,0.2,0.8c0.1-0.101,0.2-0.4,0.2-0.9c0,0,0-0.1,0-0.2
			c0.8,0.101,1.8,0.2,2.6,0.2c0,0.101,0,0.101,0,0.101c0,0.6,0.2,1.3,0.4,2h0.1l-0.1-2.101c0.6,0,1.3,0,1.9-0.1c0.1,0,0.2,0,0.4,0
			v0.1h0.1c0.2,0.3,0.3,0.5,0.5,0.8v-0.399c0-0.101-0.1-0.4-0.1-0.601c0.8-0.199,1.6-0.5,2.3-0.8h0.1c0.4,0.7,0.9,1.3,1.1,1.601h0.2
			v-0.2c0-0.9-0.2-1.5-0.4-2c0.2-0.101,0.3-0.2,0.5-0.3c1.3-1,2.5-2,3.7-3.2c1.2-1.4,2.5-3,3.8-4.9c0.5-0.7,1-1.399,1.5-2
			c1.9-2.1,3.2-3.6,4.1-4.6c0.4-0.3,0.7-0.5,1.1-0.6c0-0.1,0.1-0.1,0.2-0.2C38,15.547,37.9,15.547,37.8,15.647z"/>
		<path d="M60,18.646H59.8c1.3,3.101,2.399,5.301,3.199,6.601c1.801,2.6,4.101,4.6,7,6C65.4,28.047,62,23.847,60,18.646z"/>
		<path d="M32.3,6.047h0.1c-2.7-2.7-5.1-4.4-7-5.3c-2.6-1.1-5.1-1-7.7,0.4c0.1,0,0.3,0.1,0.4,0.1c0.2,0,0.7-0.1,1.2-0.3
			c0.7-0.2,1.2-0.3,1.7-0.3c2.7,0,5.3,0.8,7.8,2.6C30.2,4.147,31.3,5.047,32.3,6.047z"/>
		<path d="M33,24.947c-1.6,2.699-3.5,4.899-5.9,6.5c2.7-1.2,4.8-3.2,6.4-6c1.3-3.101,2.4-5.301,3.3-6.601
			C36.3,19.347,35,21.447,33,24.947z"/>
	</g>
</g>
</svg>
