<?xml version="1.0" encoding="utf-8"?>
<!-- Generator: Adobe Illustrator 13.0.0, SVG Export Plug-In . SVG Version: 6.00 Build 14948)  -->
<svg version="1.2" baseProfile="tiny" id="Layer_1" xmlns="http://www.w3.org/2000/svg" xmlns:xlink="http://www.w3.org/1999/xlink"
	 x="0px" y="0px" width="101.8px" height="22.137px" viewBox="0 0 101.8 22.137" xml:space="preserve">
<g>
	<g>
		<path fill="#F9AA8F" d="M79.9,7.638c-0.3,0.1-0.5,0.2-0.8,0.3c-2.6,1-4.4,1.9-5.6,2.7c-1.301,1.1-3,2.1-5.101,3.3
			c-2.5,1.399-4.6,2.3-6.399,2.6c0.199,0.2,0.199,0.2,0.3,0.3l0.1,0.2c-0.2,0-0.5,0-1.1,0c-0.2,0-0.3,0.2-0.3,0.3
			c0.1,0,0.1,0.101,0,0.2c1.899,0.9,3.699,1.3,5.699,1.3c0.5,0,2.601-0.3,6.101-1c3.399-0.6,7.2-1,11.399-1c0,0,0.101,0,0.2,0
			c0.8,0.9,3,1.2,6.601,1.2c3.1,0,5.699-1.5,7.8-4.5c0.2-0.2,0.2-0.4,0.399-0.5c0,0-0.1,0-0.199,0c-0.4,0.5-1,1.1-2,1.7
			c-1,0.6-2.101,1.1-3.301,1.5c0.301,0.3,0.601,0.3,1,0.3c0.4,0,0.601,0,0.601-0.3h0.2c0-0.101,0,0,0.1,0c-0.5,0.5-0.8,0.8-0.9,0.8
			c-0.699,0-1.199-0.3-1.5-0.7c-1.199,0.2-2.5,0.4-3.899,0.4c-0.5,0-0.8,0-1.3,0c-0.2,0.3-0.4,0.6-0.7,1
			c-0.101-0.101-0.101-0.2-0.101-0.2C87,17.337,87,17.038,87,16.837c0-0.1,0-0.1,0.199-0.3c-0.8-0.1-1.5-0.3-2-0.7
			c-0.699-0.5-1.1-0.899-1.399-1c0.7-0.7,1.3-1,1.8-0.899c0.9,0.3,1.8,0.399,2.6,0.5c0-0.101-0.1-0.2-0.199-0.4
			c-0.301-0.3-0.5-0.5-0.5-0.7c0-0.3,0.1-0.5,0.3-0.5c0.2,0.2,0.1,0.4-0.101,0.5c0,0.3,0.2,0.601,0.5,1c0.101,0,0.101,0,0.2,0.101
			c0.3,0.1,0.7,0.1,1.101,0.1c0.6,0,1.199,0,1.699-0.1c0.101-0.4,0.101-0.9,0.101-1.101c0-0.5-0.3-0.7-0.8-0.8v-0.2
			c0.699,0.2,1.1,0.4,1.199,0.9c0,0.3,0,0.6-0.199,1l0.8,0.1c0.2-0.1,0.5-0.1,0.8-0.1c0.1-0.2,0.3-0.4,0.4-0.5
			c0.5-0.5,0.699-0.9,0.699-1.2c0-0.2-0.199-0.6-0.699-1.1c-0.7-0.6-1-0.8-1-0.9h0.1c1.2,1,1.9,1.7,1.9,2c0,0.6-0.301,1-0.801,1.3
			c0,0.101-0.1,0.2-0.199,0.2c1.199-0.3,2.199-0.7,3-1.2c0.5-0.399,0.8-0.8,1.1-1c0.1-0.6,0-1.1-0.1-1.2
			c-0.301-0.3-0.801-0.6-1.5-0.9c-0.801-0.2-1.301-0.5-1.5-0.9c0.3,0,0.899,0.2,1.699,0.5c1,0.5,1.5,0.9,1.5,1.2
			c0.101,0.2,0.2,0.5,0.301,1c0.399-0.4,0.699-0.7,0.8-0.7c0.399,0.5,0.7,0.7,0.7,0.8c0,0.4-0.101,0.801-0.4,1.2
			c0.1,0,0.1,0,0.1,0.101c1.301-2,1.9-3.601,1.9-4.9c0-0.8-0.3-1.7-0.9-2.4c0.101,0.3,0.2,0.6,0.2,0.9c0,0.2,0,0.2-0.1,0.3
			c0.2,0,0.3,0,0.2,0.1c0,0.1-0.101,0.1-0.101,0.2c0-0.1-0.2-0.1-0.2-0.1c0,0.2-0.199,0.4-0.3,0.5c0.601,0.5,0.8,1,0.8,1.6
			s-0.199,0.9-0.899,0.9c-3.101-1.1-5.601-2-7.7-2.5c-0.7,0.2-1.6,0.3-2.3,0.3c-1.4,0-2.4-0.4-3.101-1.3
			C84.2,6.538,81.9,6.938,79.9,7.638z M83.6,10.738c-0.9,0.3-1.4,0.6-1.4,0.899c0,0.2,0.2,0.601,0.5,1.2
			c0.2,0.7,0.301,1.101,0.301,1.2c0,0.5-0.301,1-0.9,1.4c-0.7,0.6-1.2,1-1.4,1.199L80.5,16.738c0.1-0.7,0.3-1.101,0.699-1.4
			c0-0.1,0-0.1,0-0.1c-0.199,0.1-0.199,0.1-0.399,0.3c-0.601,0.3-2.101,0.5-4.3,0.5c-0.101-0.1-0.5-0.2-1-0.2l-0.301-0.1
			c0.4-0.5,1.5-0.9,3.2-1.101c0.8-0.1,1.601-0.1,2.2-0.1c-0.3-0.1-0.6-0.2-0.8-0.4c-0.3-0.3-0.601-0.6-0.601-0.8
			c0-0.3,0.301-0.8,0.601-1.2c0.399-0.399,0.7-0.6,0.899-0.6c0,0.2-0.3,0.5-0.699,0.8c-0.301,0.4-0.5,0.7-0.5,0.9
			c0,0.3,0.3,0.6,1,0.8c0.3,0.2,0.699,0.3,0.8,0.5c0.2,0,0.399,0,0.5,0.1c-0.101,0.101-0.2,0.101-0.3,0.2c0,0.101,0,0.101,0,0.2
			c0.1-0.2,0.199-0.2,0.3-0.3c0.7-0.2,0.899-0.4,0.899-0.7c-0.5-1.2-0.699-1.9-0.699-2.2c0-0.6,0.199-1,0.699-1.2
			c0.301-0.1,1.101-0.5,2.7-1.1C85.2,10.038,84.6,10.538,83.6,10.738z"/>
		<path fill="#C74A34" d="M82.2,11.637c0-0.3,0.5-0.6,1.4-0.899c1-0.2,1.6-0.7,1.8-1.2c-1.6,0.6-2.399,1-2.7,1.1
			c-0.5,0.2-0.699,0.6-0.699,1.2c0,0.3,0.199,1,0.699,2.2c0,0.3-0.199,0.5-0.899,0.7c-0.101,0.1-0.2,0.1-0.3,0.3c0-0.1,0-0.1,0-0.2
			c0-0.1-0.101-0.2-0.2-0.3c-0.101-0.2-0.5-0.3-0.8-0.5c-0.7-0.2-1-0.5-1-0.8c0-0.2,0.199-0.5,0.5-0.9
			c0.399-0.3,0.699-0.6,0.699-0.8c-0.199,0-0.5,0.2-0.899,0.6c-0.3,0.4-0.601,0.9-0.601,1.2c0,0.2,0.301,0.5,0.601,0.8
			c0.2,0.2,0.5,0.301,0.8,0.4c0.2,0,0.4,0,0.6,0c0,0.2,0,0.3,0,0.7c0,0,0,0,0,0.1c-0.399,0.3-0.6,0.7-0.699,1.4l0.199-0.101
			c0.2-0.199,0.7-0.6,1.4-1.199c0.6-0.4,0.9-0.9,0.9-1.4c0-0.1-0.101-0.5-0.301-1.2C82.4,12.238,82.2,11.837,82.2,11.637z"/>
		<path fill="#FCCBB7" d="M81.8,14.637c-0.101-0.1-0.3-0.1-0.5-0.1c0.1,0.1,0.2,0.2,0.2,0.3C81.6,14.738,81.7,14.738,81.8,14.637z"
			/>
		<path fill="#FCCBB7" d="M81.2,15.238c0-0.4,0-0.5,0-0.7c-0.199,0-0.399,0-0.6,0c-0.6,0-1.4,0-2.2,0.1
			c-1.7,0.2-2.8,0.601-3.2,1.101l0.301,0.1c0.5,0,0.899,0.101,1,0.2c2.199,0,3.699-0.2,4.3-0.5C81,15.337,81,15.337,81.2,15.238z"/>
		<path fill="#F69474" d="M79.1,7.938c0.3-0.1,0.5-0.2,0.8-0.3c2-0.7,4.3-1.1,6.8-1.1c-0.199-0.3-0.3-0.5-0.5-0.8
			c-0.3-1.4-0.5-2.2-0.5-2.4c0-0.8,0.4-1.6,1.101-2.2c-1-0.1-2.3-0.1-3.9,0.3c-4.1,0.9-7.8,2.9-11.1,5.9
			c-0.101,0-0.101,0.1-0.101,0.2c-0.399,0.3-1,1.1-2.1,2.3c-0.9,1.1-1.9,1.9-2.8,2.3c-0.3,0.2-0.8,0.4-1.3,0.601
			c-0.9,0.3-2,0.8-3.2,1.1c-0.5,0.2-1,0.2-1.601,0.4c-1,0.3-1.699,0.6-2,0.899l0,0c1.101,0.2,2.4,0.2,4,0.2
			c-0.1,0.101-0.399,0.2-1,0.3c0,0.2-0.199,0.4-0.3,0.601c0.3,0.1,0.5,0.3,0.601,0.3c1.8-0.3,3.899-1.2,6.399-2.6
			c2.101-1.2,3.8-2.2,5.101-3.3C74.7,9.837,76.5,8.938,79.1,7.938z"/>
		<path fill="#F9AA8F" d="M71.7,7.538c-0.699,0.3-1.5,0.8-2.3,1.5c-1.899,1.5-3.2,2.7-3.899,3.7c0.5-0.2,1-0.4,1.3-0.601
			c0.899-0.399,1.899-1.2,2.8-2.3C70.7,8.638,71.3,7.837,71.7,7.538z"/>
		<path fill="#F9AA8F" d="M60.7,14.238c0.601-0.2,1.101-0.2,1.601-0.4c-0.9-0.1-1.7-0.3-2.3-0.3c-1.101,0-1.601,0.6-1.7,1.7
			c0.1-0.101,0.2-0.2,0.399-0.101C59,14.837,59.7,14.538,60.7,14.238z"/>
		<path fill="#C74A34" d="M58.7,15.137c-0.199-0.1-0.3,0-0.399,0.101c-0.101,0-0.101,0.1-0.101,0.3c-0.3-0.2-0.5-0.2-0.5-0.2v0.2
			c0.101,0.1,0.301,0.3,0.7,0.7c0.101,0.1,0.3,0.2,0.4,0.3c0.1,0,0.2,0,0.399,0c0,0.1,0.101,0.2,0.2,0.2
			c0.601,0.6,1.101,0.8,1.4,0.8c0.2,0,0.2,0,0.2,0c0.1-0.1,0.1-0.2,0-0.2c0-0.1,0.1-0.3,0.3-0.3c0.6,0,0.899,0,1.1,0l-0.1-0.2
			c-0.101-0.1-0.101-0.1-0.3-0.3c-0.101,0-0.301-0.2-0.601-0.3c0.101-0.2,0.3-0.4,0.3-0.601c0.601-0.1,0.9-0.199,1-0.3
			C61.1,15.337,59.8,15.337,58.7,15.137L58.7,15.137z"/>
		<path fill="#F69474" d="M59.2,16.538c-0.199,0-0.3,0-0.399,0c0.2,0.1,0.3,0.2,0.6,0.2C59.3,16.738,59.2,16.637,59.2,16.538z"/>
		<path fill="#F9AA8F" d="M91.7,1.238c0-0.1,0-0.1,0-0.1c-0.199-0.1-0.5-0.1-0.6,0C91.2,1.138,91.5,1.138,91.7,1.238z"/>
		<path fill="#FCCBB7" d="M91.7,1.138c0,0,0,0,0,0.1c-0.8,0.2-1.199,0.8-1.199,1.8c0,0,0,0.3,0,0.7c0.199,0.4,0.5,0.6,1,0.6
			c0.6,0,1.1-0.3,1.6-1c0.4-0.5,0.6-1,0.6-1.2c0-0.3,0-0.6-0.199-0.8c-0.2-0.3-0.7-0.4-1.301-0.3C92,1.038,91.8,1.038,91.7,1.138z"
			/>
		<path fill="#F69474" d="M91.7,1.238c-0.199-0.1-0.5-0.1-0.6-0.1c-1-0.1-1.9,0-2.7,0.1c0,0.1,0,0.1,0,0.2c0,0.2-0.2,0.6-0.399,1.1
			c-0.301,0.5-0.4,0.8-0.4,0.8c0,1.5,0.8,2.3,2.3,2.3c1.101,0,1.8-0.3,2.5-0.7c0.601-0.4,1.101-0.7,1.3-0.7c0.7,0,1,0.3,1,1
			c0,0.5-0.5,1.1-1.6,1.8c-0.4,0.2-0.6,0.3-1,0.5c2.1,0.5,4.6,1.4,7.7,2.5c0.7,0,0.899-0.3,0.899-0.9s-0.199-1.1-0.8-1.6
			c0.101-0.1,0.3-0.3,0.3-0.5c0,0-0.1,0-0.199,0c-0.601,0-1.2,0.2-1.4,0.3c-0.1,0-0.3,0.3-0.8,0.7c-0.3,0-0.601-0.3-1-0.8
			c-0.3-0.5-0.601-0.8-1.101-0.7c0.5-0.4,0.9-0.4,1.2,0c0.101,0.3,0.3,0.7,0.601,1.2c0.3-0.1,0.899-0.4,1.5-0.9c0.699,0,1,0,1.3,0
			c0.1-0.1,0.1-0.1,0.1-0.3c0-0.3-0.1-0.6-0.2-0.9c-0.199-1.1-1.1-2.1-2.5-2.9c-1.199-0.6-2.5-1.1-4.199-1.4
			c0.199,0.2,0.199,0.5,0.199,0.8c0,0.2-0.199,0.7-0.6,1.2c-0.5,0.7-1,1-1.6,1c-0.5,0-0.801-0.2-1-0.6c0-0.4,0-0.7,0-0.7
			C90.5,2.038,90.9,1.438,91.7,1.238z"/>
		<path fill="#C74A34" d="M88,2.538c0.199-0.5,0.399-0.9,0.399-1.1c0-0.1,0-0.1,0-0.2c-0.1-0.9-0.6-1-1.399-0.3
			c0,0.1-0.101,0.1-0.2,0.2c-0.7,0.6-1.101,1.4-1.101,2.2c0,0.2,0.2,1,0.5,2.4c0.2,0.3,0.301,0.5,0.5,0.8c0.7,0.9,1.7,1.3,3.101,1.3
			c0.7,0,1.6-0.1,2.3-0.3c0.4-0.2,0.6-0.3,1-0.5c1.1-0.7,1.6-1.3,1.6-1.8c0-0.7-0.3-1-1-1c-0.199,0-0.699,0.3-1.3,0.7
			c-0.7,0.4-1.399,0.7-2.5,0.7c-1.5,0-2.3-0.8-2.3-2.3C87.6,3.337,87.7,3.038,88,2.538z"/>
		<path fill="#C74A34" d="M99,6.837c-0.601,0.5-1.2,0.8-1.5,0.9c-0.301-0.5-0.5-0.9-0.601-1.2c-0.3-0.4-0.7-0.4-1.2,0
			c0.5-0.1,0.801,0.2,1.101,0.7c0.399,0.5,0.7,0.8,1,0.8c0.5-0.4,0.7-0.7,0.8-0.7c0.2-0.1,0.8-0.3,1.4-0.3c0.1,0,0.199,0,0.199,0
			s0.2,0,0.2,0.1c0-0.1,0.101-0.1,0.101-0.2c0.1-0.1,0-0.1-0.2-0.1C100,6.837,99.7,6.837,99,6.837z"/>
		<path fill="#C74A34" d="M98,11.538c-0.101-0.5-0.2-0.8-0.301-1c0-0.3-0.5-0.7-1.5-1.2c-0.8-0.3-1.399-0.5-1.699-0.5
			c0.199,0.4,0.699,0.7,1.5,0.9c0.699,0.3,1.199,0.6,1.5,0.9c0.1,0.1,0.199,0.6,0.1,1.2v0.2c0.1,0.5,0.6,0.8,1.4,1
			c0.1,0,0.199,0,0.199,0c0.101,0,0.2,0,0.301,0c-0.101-0.1-0.2-0.1-0.301-0.1c0-0.101,0-0.101-0.1-0.101c-0.5-0.1-0.9-0.5-1.1-0.8
			C98,11.837,98,11.637,98,11.538z"/>
		<path fill="#FCCBB7" d="M98.8,10.837c-0.101,0-0.4,0.3-0.8,0.7c0,0.1,0,0.3,0,0.5c0.199,0.3,0.6,0.7,1.1,0.8
			c0.3-0.399,0.4-0.8,0.4-1.2C99.5,11.538,99.2,11.337,98.8,10.837z"/>
		<path fill="#FCCBB7" d="M97.6,12.038v-0.2c-0.3,0.2-0.6,0.601-1.1,1c-0.801,0.5-1.801,0.9-3,1.2c-0.301,0.3-0.5,0.6-0.5,0.8
			c0,0.5,0.199,0.9,0.5,1.2c0,0.1,0.1,0.2,0.199,0.2c1.2-0.4,2.301-0.9,3.301-1.5c1-0.601,1.6-1.2,2-1.7
			C98.2,12.837,97.7,12.538,97.6,12.038z"/>
		<path fill="#C74A34" d="M95.6,16.238c-0.1,0-0.1-0.101-0.1,0h-0.2c0,0.3-0.2,0.3-0.601,0.3c-0.399,0-0.699,0-1-0.3
			c-0.1,0-0.199-0.101-0.199-0.2c-0.301-0.3-0.5-0.7-0.5-1.2c0-0.2,0.199-0.5,0.5-0.8c0.1,0,0.199-0.1,0.199-0.2
			c0.5-0.3,0.801-0.7,0.801-1.3c0-0.3-0.7-1-1.9-2h-0.1c0,0.1,0.3,0.3,1,0.9c0.5,0.5,0.699,0.9,0.699,1.1c0,0.3-0.199,0.7-0.699,1.2
			c-0.101,0.1-0.301,0.3-0.4,0.5c-0.1,0.1-0.2,0.2-0.3,0.3v-0.2h-0.5l-0.8-0.1c0.199-0.4,0.199-0.7,0.199-1
			c-0.1-0.5-0.5-0.7-1.199-0.9v0.2c0.5,0.1,0.8,0.3,0.8,0.8c0,0.2,0,0.7-0.101,1.101c0,0,0,0,0,0.1c0.9,0,1.301,0.1,1.5,0.3
			c0,0,0,0.2,0.101,0.2l0,0c0,0.1,0,0.2,0,0.2l0,0c0.1,0.1,0.2,0.399,0.2,0.8c0,0.1,0.199,0.2,0.199,0.3
			c0.301,0.4,0.801,0.7,1.5,0.7C94.8,17.038,95.1,16.738,95.6,16.238z"/>
		<path fill="#FCCBB7" d="M91.2,14.538c0-0.1,0-0.1,0-0.1c-0.5,0.1-1.1,0.1-1.699,0.1c-0.4,0-0.801,0-1.101-0.1
			c0.2,0.3,0.3,0.6,0.3,0.6c0,0.4-0.199,0.9-0.699,1.7c0.5,0,0.8,0,1.3,0c1.399,0,2.7-0.2,3.899-0.4c0-0.1-0.199-0.2-0.199-0.3
			c0-0.4-0.101-0.7-0.2-0.8l0,0c0,0,0-0.101,0-0.2l0,0c-0.101,0-0.101-0.2-0.101-0.2C92.5,14.637,92.1,14.538,91.2,14.538z"/>
		<path fill="#FCCBB7" d="M92.8,14.538c0.1-0.1,0.2-0.2,0.3-0.3c-0.3,0-0.6,0-0.8,0.1h0.5V14.538z"/>
		<path fill="#C74A34" d="M87.7,13.337c0.2-0.1,0.301-0.3,0.101-0.5c-0.2,0-0.3,0.2-0.3,0.5c0,0.2,0.199,0.4,0.5,0.7
			c0.1,0.2,0.199,0.3,0.199,0.4c0.2,0.3,0.301,0.399,0.301,0.6s-0.301,0.5-0.801,1c-0.199,0.2-0.399,0.4-0.5,0.5
			C87,16.738,87,16.738,87,16.837c0,0.2,0,0.5,0.199,0.7c0,0,0,0.1,0.101,0.2c0.3-0.4,0.5-0.7,0.7-1c0.5-0.8,0.699-1.3,0.699-1.7
			c0,0-0.1-0.3-0.3-0.6c-0.1-0.101-0.1-0.101-0.2-0.101C87.9,13.938,87.7,13.637,87.7,13.337z"/>
		<path fill="#FCCBB7" d="M88.5,15.038c0-0.2-0.101-0.3-0.301-0.6c-0.8-0.101-1.699-0.2-2.6-0.5c-0.5-0.101-1.1,0.199-1.8,0.899
			c0.3,0.101,0.7,0.5,1.399,1c0.5,0.4,1.2,0.601,2,0.7c0.101-0.1,0.301-0.3,0.5-0.5C88.2,15.538,88.5,15.238,88.5,15.038z"/>
		<path fill="#F9AA8F" d="M27.4,5.337h0.1c-0.3-0.3-0.6-0.6-1-0.9c0,0.1,0,0.2,0,0.3c0,0.3,0,0.5-0.1,0.7c0.1,0.1,0.1,0.1,0.2,0.1
			C26.8,5.337,27.1,5.337,27.4,5.337z"/>
		<path fill="#C74A34" d="M27.5,5.337h-0.1c-0.3,0-0.6,0-0.8,0.2c-0.1,0-0.2,0.2-0.4,0.2c-0.2,0.3-0.7,0.5-1.1,0.5
			c-1.6,0-2.3-0.5-2.3-1.6c0-0.2,0.1-0.4,0.3-0.6c0.1,0,0.1,0,0.1-0.1c0.1-0.2,0.2-0.4,0.2-0.6c0-0.1,0-0.3-0.1-0.5
			c-0.1-0.5-0.4-0.6-0.8-0.3c-0.1,0-0.3,0.2-0.4,0.3c-0.1,0.2-0.3,0.4-0.4,0.5c-0.5,0.7-0.9,1.3-0.9,2c0,0.5,0.3,1,0.7,1.7
			c0.9,1,2.1,1.5,3.7,1.5c1,0,1.8-0.3,2.4-0.8c0.6-0.4,0.8-0.9,0.8-1.2C28.5,5.738,28.2,5.337,27.5,5.337z"/>
		<path fill="#FCCBB7" d="M26.5,4.438c-0.1-0.9-0.5-1.2-1.3-1.1c-0.2,0-0.4,0-0.5,0.1c-0.4,0.1-0.7,0.4-0.7,0.8
			c-0.1,0.1-0.2,0.3-0.2,0.5c0,0.3,0.2,0.6,0.4,0.8c0.3,0.3,0.6,0.5,1.2,0.5c0.5,0,0.8-0.2,1-0.6c0.1-0.2,0.1-0.4,0.1-0.7
			C26.5,4.638,26.5,4.538,26.5,4.438z"/>
		<path fill="#F9AA8F" d="M24.7,3.438c-0.1-0.1-0.2-0.1-0.3-0.1c-0.4-0.2-0.7-0.3-1.1-0.5c0.1,0.2,0.1,0.4,0.1,0.5
			c0,0.2-0.1,0.4-0.2,0.6c0.3,0.1,0.5,0.1,0.8,0.3C24,3.837,24.3,3.538,24.7,3.438z"/>
		<path fill="#F69474" d="M28.4,6.538c0,0.3-0.2,0.8-0.8,1.2c-0.6,0.5-1.4,0.8-2.4,0.8c-1.6,0-2.8-0.5-3.7-1.5
			c-0.4-0.7-0.7-1.2-0.7-1.7c0-0.7,0.4-1.3,0.9-2c-3.2-1.1-6.1-1.8-8.9-1.8c-3.6,0-6.6,0.7-8.8,1.8c-0.3,0.2-0.6,0.4-0.9,0.6
			c-1.8,1.2-2.7,2.6-2.7,4.1c0,0,0,0.3,0.1,0.8c0.2,0.4,0.3,0.5,0.7,0.7c0.2,0,0.5,0.1,0.8,0.1c0.4,0,1.4-0.6,3.2-1.8
			c2.3-1.1,5.1-1.7,8.2-1.7c0.3,0,1.9,0.2,4.8,0.4c0.5,0.2,1.2,0.5,2,0.7c3.8,1.3,6.2,2.1,7.3,2.6c0.6,0.4,2.4,1.6,5.5,3.7
			c1.8,1.2,3.5,2,5,2.5c0-0.5,0.2-0.5,0.5-0.3c0.6,0.6,1,0.5,1.5-0.2c-0.3-0.4-0.6-0.7-1-0.8l0.1-0.2c1.8,0.1,2.9,0.2,3.2,0.4v0.399
			c0-0.2,0.1-0.3,0.2-0.2c0.4,0.2,0.7,0.2,0.9,0.2v0.5l0,0c0.1-0.1,0.4-0.2,0.6-0.3h-0.1l-1.1-0.5l-9-4.7l-0.9-0.4
			c-0.4-0.4-0.8-0.6-1.1-1c-0.1-0.2-0.3-0.3-0.4-0.4C30.5,7.837,29.5,7.238,28.4,6.538z M7.4,5.038c0.1,0,0.1,0,0.1,0.1
			S7.4,5.138,7.4,5.038z M7.4,4.938c-0.1-0.1-0.2-0.1-0.4-0.1c-0.5,0-1,0.2-1.3,0.7c-0.3,0.3-0.5,0.5-0.6,0.5
			c-0.2,0-0.6-0.1-1.1-0.5c-0.5-0.3-0.7-0.5-0.7-0.5c-0.4,0-0.8,0.3-1.3,0.7c0-0.7,0.4-1,1.2-1c0.5,0.1,1.2,0.5,1.8,0.9
			c0.2-0.1,0.4-0.3,0.5-0.4c0.3-0.2,0.5-0.5,0.5-0.7h1.2C7.2,4.738,7.3,4.837,7.4,4.938z"/>
		<path fill="#C74A34" d="M7.4,5.038c0,0.1,0.1,0.2,0.1,0.1S7.5,5.038,7.4,5.038z"/>
		<path fill="#C74A34" d="M7,4.837c0.2,0,0.3,0,0.4,0.1c-0.1-0.1-0.2-0.2-0.2-0.4H6c0,0.2-0.2,0.5-0.5,0.7c-0.1,0.1-0.3,0.3-0.5,0.4
			c-0.6-0.4-1.3-0.8-1.8-0.9c-0.8,0-1.2,0.3-1.2,1c0.5-0.4,0.9-0.7,1.3-0.7c0,0,0.2,0.2,0.7,0.5c0.5,0.4,0.9,0.5,1.1,0.5
			c0.1,0,0.3-0.2,0.6-0.5C6,5.038,6.5,4.837,7,4.837z"/>
		<path fill="#F69474" d="M26.2,5.738c0.2,0,0.3-0.2,0.4-0.2c-0.1,0-0.1,0-0.2-0.1c-0.2,0.4-0.5,0.6-1,0.6c-0.6,0-0.9-0.2-1.2-0.5
			c-0.2-0.2-0.4-0.5-0.4-0.8c0-0.2,0.1-0.4,0.2-0.5c-0.3-0.2-0.5-0.2-0.8-0.3c0,0.1,0,0.1-0.1,0.1c-0.2,0.2-0.3,0.4-0.3,0.6
			c0,1.1,0.7,1.6,2.3,1.6C25.5,6.238,26,6.038,26.2,5.738z"/>
		<path fill="#F9AA8F" d="M6.4,2.238c-0.9,0.3-1.7,0.7-2.4,1.1c2.2-1.1,5.2-1.8,8.8-1.8c2.8,0,5.7,0.7,8.9,1.8
			c0.1-0.1,0.3-0.3,0.4-0.5c0.1-0.1,0.3-0.3,0.4-0.3c-2.1-0.7-4.5-1.1-7.1-1.2C11.8,1.038,8.8,1.337,6.4,2.238z"/>
		<path fill="#F9AA8F" d="M13.4,6.138c-3.1,0-5.9,0.6-8.2,1.7c-1.8,1.2-2.8,1.8-3.2,1.8c-0.3,0-0.6-0.1-0.8-0.1
			c0.2,1.2,0.8,2.7,1.9,4.2s2.6,2.6,4.4,3.399c0.2-0.399,0.4-0.8,0.5-1.399c0.2-0.4,0.4-0.7,0.5-0.9c0.2-0.2,0.6-0.5,1.5-1.1
			c0.7-0.4,1-0.7,1-1.101c0-0.199-0.1-0.3-0.3-0.5c-0.1-0.1-0.2-0.3-0.2-0.5c0-0.3,0.2-0.5,0.5-0.6c0.5-0.3,1.1-0.3,1.7,0
			c0,0-0.7,0.2-2,0.5c0.2,0.1,0.3,0.3,0.5,0.7c0.2,0.3,0.3,0.5,0.3,0.6c0,0.4-0.4,0.7-1.2,1.2c-0.9,0.5-1.5,0.8-1.6,1
			c-0.2,0.1-0.2,0.5-0.2,1.3c0,0.5-0.3,0.7-0.7,0.8l-0.1,0.101c1.5,0.5,3.3,0.8,5.4,0.8c0.3-0.5,0.6-1,1.1-1.3
			c0-0.101,0-0.101,0.1-0.2c-0.8,0-1.3-0.2-1.3-0.9l0.1-0.3c0.1,0,0.3-0.1,0.4-0.1c0-0.2-0.2-0.7-0.5-1.2c-0.4-0.7-0.5-1-0.5-1.2
			h0.2c0.1,0.2,0.3,0.7,0.6,1.3c0.3,0.4,0.7,0.801,1.4,1c-0.1-0.1-0.2-0.3-0.2-0.399c-0.1-0.5-0.3-0.9-0.3-1.101
			c0-0.3,0.5-0.8,1.4-1.399c0.7-0.5,0.8-1,0.1-1.6l0.1-0.1c0.5,0.3,0.7,0.7,0.7,1.2c0,0.1-0.3,0.5-1,1c-0.7,0.5-1,0.8-1,0.899
			c0,0.2,0.2,0.7,0.5,1.5c1.1,0,2.2,0,3.3,0c0.1-0.3,0.2-0.399,0.3-0.6c0.2-0.2,0.8-0.3,1.6-0.5c-0.5,0.6-1,1-1.5,1.1
			c2.3-0.1,4.4-0.1,6.3-0.3c1.7,0,4.6,0.9,8.7,2.5c-0.6,0.5-1.2,0.8-1.9,0.8c-0.8,0-2.2-0.399-4.2-1c-2-0.699-3.7-1.1-5.1-1.1
			c-1.5,0.2-2.8,0.3-3.8,0.3c0,0.101,0,0.2,0,0.3c0,0.101-0.2,0.2-0.5,0.301c1.2-0.2,2.3-0.4,3.6-0.4c1.5,0,2.5,0.2,3.2,0.5
			c0.5,0.2,1.1,0.3,1.6,0.3c0.1,0,0.2,0,0.4,0c1.2,1,3.1,1.5,5.7,1.5c2,0,4-0.3,5.9-0.8c0.1-0.1,0.4-0.2,0.5-0.2l-0.6-0.1
			c0.4-0.4,0.9-0.7,1.4-0.9c-0.2-0.1-0.9-0.3-1.9-0.6v-0.2c-1.5-0.5-3.2-1.3-5-2.5c-3.1-2.1-4.9-3.3-5.5-3.7
			c-1.1-0.5-3.5-1.3-7.3-2.6c-0.8-0.2-1.5-0.5-2-0.7C15.3,6.337,13.7,6.138,13.4,6.138z M6.5,8.138c1-0.7,1.7-0.9,2-0.8
			c-0.2,0.2-0.8,0.5-1.8,1.1c-0.8,0.4-1.3,0.9-1.5,1.4c0,0.2-0.2,0.8-0.3,1.6c-0.4,0.8-1.1,1.3-2.1,1.6c0-0.1,0.4-0.5,1.2-1.3
			c0.7-0.7,1-1.4,1-2.1C5.2,9.337,5.7,8.738,6.5,8.138z M36.7,15.938c-0.1,0-0.2,0-0.2,0.1c0-0.1,0-0.2,0-0.2
			S36.6,15.837,36.7,15.938z"/>
		<path fill="#C74A34" d="M8.5,7.337c-0.3-0.1-1,0.1-2,0.8c-0.8,0.6-1.3,1.2-1.5,1.5c0,0.7-0.3,1.4-1,2.1c-0.8,0.8-1.2,1.2-1.2,1.3
			c1-0.3,1.7-0.8,2.1-1.6c0.1-0.8,0.3-1.4,0.3-1.6c0.2-0.5,0.7-1,1.5-1.4C7.7,7.837,8.3,7.538,8.5,7.337z"/>
		<path fill="#C74A34" d="M15.8,10.538l-0.1,0.1c0.7,0.6,0.6,1.1-0.1,1.6c-0.9,0.6-1.4,1.1-1.4,1.399c0,0.2,0.2,0.601,0.3,1.101
			c0,0.1,0.1,0.3,0.2,0.399c-0.7-0.199-1.1-0.6-1.4-1c-0.3-0.6-0.5-1.1-0.6-1.3h-0.2c0,0.2,0.1,0.5,0.5,1.2c0.3,0.5,0.5,1,0.5,1.2
			l0,0c0.5,0.1,1,0.1,1.2,0.1c0,0.101,0,0.2,0,0.4c0,0.3-0.1,0.6-0.4,0.8c-0.1,0.1-0.1,0.1-0.1,0.2c-0.5,0.3-0.8,0.8-1.1,1.3
			c-0.1,0.1-0.1,0.2-0.1,0.2s0.2-0.101,0.2-0.2c0.8-0.5,1.3-0.9,1.5-1.1c0.1-0.101,0.2-0.2,0.3-0.4s0.2-0.5,0.2-1
			c-0.1-0.1-0.2-0.2-0.2-0.3c0,0,0,0,0-0.101c-0.3-0.8-0.5-1.3-0.5-1.5c0-0.1,0.3-0.399,1-0.899c0.7-0.5,1-0.9,1-1
			C16.5,11.238,16.3,10.837,15.8,10.538z"/>
		<path fill="#FCCBB7" d="M15,15.137c0,0.101,0,0.101,0,0.101c0,0.1,0.1,0.2,0.2,0.3c0,0.5-0.1,0.8-0.2,1c0.6,0,1.7,0,3.2-0.2
			c0-0.3,0-0.6,0-1c0,0,0-0.1,0.1-0.2C17.2,15.137,16.1,15.137,15,15.137z"/>
		<path fill="#FCCBB7" d="M18.7,15.137h-0.2c0,0.2,0,0.601,0.2,1.2c1,0,2.3-0.1,3.8-0.3c1.4,0,3.1,0.4,5.1,1.1c2,0.601,3.4,1,4.2,1
			c0.7,0,1.3-0.3,1.9-0.8c-4.1-1.6-7-2.5-8.7-2.5C23.1,15.038,21,15.038,18.7,15.137z"/>
		<path fill="#C74A34" d="M18.5,15.137h0.2c0.5-0.1,1-0.5,1.5-1.1c-0.8,0.2-1.4,0.3-1.6,0.5c-0.1,0.2-0.2,0.3-0.3,0.6
			c-0.1,0.101-0.1,0.2-0.1,0.2c0,0.4,0,0.7,0,1c0,0.2-0.1,0.4-0.2,0.7l0,0c0-0.1,0.2-0.1,0.2-0.1c0.3-0.101,0.5-0.2,0.5-0.301
			c0-0.1,0-0.199,0-0.3C18.5,15.738,18.5,15.337,18.5,15.137z"/>
		<path fill="#F9AA8F" d="M16.5,17.337c0.5-0.1,1-0.3,1.5-0.3c0.1-0.3,0.2-0.5,0.2-0.7c-1.5,0.2-2.6,0.2-3.2,0.2
			c-0.1,0.2-0.2,0.3-0.3,0.4c-0.2,0.199-0.7,0.6-1.5,1.1C13.8,18.038,14.8,17.837,16.5,17.337z"/>
		<path fill="#FCCBB7" d="M14.7,15.738c0-0.2,0-0.3,0-0.4c-0.2,0-0.7,0-1.2-0.1l0,0c-0.1,0-0.3,0.1-0.4,0.1l-0.1,0.3
			c0,0.7,0.5,0.9,1.3,0.9C14.6,16.337,14.7,16.038,14.7,15.738z"/>
		<path fill="#C74A34" d="M10.5,11.637c0,0.2,0.1,0.4,0.2,0.5c0.2,0.2,0.3,0.301,0.3,0.5c0,0.4-0.3,0.7-1,1.101
			c-0.9,0.6-1.3,0.899-1.5,1.1c-0.1,0.2-0.3,0.5-0.5,0.9c-0.1,0.6-0.3,1-0.5,1.399c0,0.101,0,0.101,0,0.101h0.2l0.1-0.101
			c0.4-0.1,0.7-0.3,0.7-0.8c0-0.8,0-1.2,0.2-1.3c0.1-0.2,0.7-0.5,1.6-1c0.8-0.5,1.2-0.8,1.2-1.2c0-0.1-0.1-0.3-0.3-0.6
			c-0.2-0.4-0.3-0.601-0.5-0.7c1.3-0.3,2-0.5,2-0.5c-0.6-0.3-1.2-0.3-1.7,0C10.7,11.138,10.5,11.337,10.5,11.637z"/>
		<path fill="#F9AA8F" d="M43.7,14.637c-0.3,0.101-0.5,0.2-0.9,0.4l1.1,0.5c0,0,0-0.1,0-0.2C43.9,15.038,43.8,14.738,43.7,14.637z"
			/>
		<path fill="#C74A34" d="M39.1,14.538l-0.1,0.2c0.4,0.1,0.7,0.399,1,0.8c-0.5,0.7-0.9,0.8-1.5,0.2c-0.3-0.2-0.5-0.2-0.5,0.3v0.2
			c1,0.3,1.7,0.5,1.9,0.6c-0.5,0.2-1,0.5-1.4,0.9l0.6,0.1c0.2-0.3,0.6-0.5,1.1-0.5l-0.1,0.2c-0.1,0.1-0.1,0.2-0.1,0.2l0,0
			c0,0.1,0.1,0.1,0.4,0.1l0,0c0.2,0,0.3-0.1,0.3-0.3c0.2,0,0.4-0.2,0.6-0.2c0.5-0.2,1.1-0.3,1.4-0.5c0.1-0.1,0.3-0.2,0.3-0.3
			c0,0,0,0,0.1,0h0.1h0.1c0.1,0,0.2,0,0.2,0c0.1-0.2,0.2-0.2,0.3-0.4c0.2-0.3,0.2-0.399,0.3-0.5v-0.1H44c-0.2,0.1-0.5,0.2-0.6,0.3
			l0,0v-0.5c-0.2,0-0.5,0-0.9-0.2c-0.1-0.1-0.2,0-0.2,0.2v-0.399C42,14.738,40.9,14.637,39.1,14.538z M39.8,16.038l0.4,0.1H39
			L39.8,16.038z"/>
		<path fill="#F69474" d="M40.2,16.137l-0.4-0.1l-0.8,0.1H40.2z"/>
		<path fill="#F69474" d="M44.2,15.637h-0.1c-0.1,0.101-0.1,0.2-0.3,0.5c-0.1,0.2-0.2,0.2-0.3,0.4c0.1-0.1,0.2-0.1,0.2-0.2
			C44,16.337,44.2,16.038,44.2,15.637z"/>
		<path fill="#F69474" d="M43.1,16.538c-0.1,0-0.1,0-0.1,0c0.1,0,0.1,0,0.2,0H43.1z"/>
		<path fill="#F9AA8F" d="M42.7,16.837L42.7,16.837c-0.3,0.2-0.9,0.3-1.4,0.5c-0.2,0-0.4,0.2-0.6,0.2c0,0.2-0.1,0.3-0.3,0.3
			C41,17.837,41.8,17.538,42.7,16.837z"/>
		<path fill="#F9AA8F" d="M39.5,17.738c0.2,0,0.3,0,0.5,0c0,0,0-0.101,0.1-0.2l0.1-0.2c-0.5,0-0.9,0.2-1.1,0.5
			C39.2,17.738,39.4,17.738,39.5,17.738z"/>
		<path fill="#F9AA8F" d="M32.9,9.938l0.9,0.4c-0.4-0.3-0.8-0.5-1.1-0.8c-0.3-0.2-0.7-0.4-0.9-0.6C32.1,9.337,32.5,9.538,32.9,9.938
			z"/>
	</g>
	<g>
		<path d="M76.2,3.238c-0.899,0.4-2.699,1.7-5.399,3.8c-0.101,0-1.7,1.3-4.8,3.8c-3.5,2.5-7.601,3.7-12.301,3.4
			c0.2,0.1,0.601,0.3,1.101,0.8c0.6,0.3,1.2,0.5,2.2,0.5c2.5,2.8,6.399,4.1,11.5,4.1c1.3,0,3.1-0.3,5.3-1.1
			c4.2-1.2,8.3-1.4,12.399-0.5c7,1.7,12-0.5,15.2-6.3c0.3-0.9,0.4-1.8,0.4-2.7c0-1.6-0.3-2.8-0.7-3.7c-0.7-1.3-2.1-2.1-4.1-2.5
			c1.5,1.8,2.399,2.9,2.699,3.5c0.4,0.9,0.7,2.2,0.7,3.9c0,0.5-0.399,1.3-1.2,2.5c-0.699,1.1-2.199,2.399-4.399,3.8
			c-2.101,1.3-5.4,1.5-10,0.5c-4.601-1-8.2-0.9-11,0.3c-2.601,0.9-4.3,1.2-5.4,1.2c-3.2,0-6-0.5-8.399-1.7c-1-0.5-1.601-1-2.2-1.2
			c0.2,0,0.2,0,0.399,0c2.5,0,4.801-0.8,7-2.3c0.5-0.3,2.5-2,5.7-4.8c4.9-4.3,10.601-6.8,16.9-7.1l-0.3,0.6
			c-0.301,2.6,0.6,4,2.899,4.4c1.3,0.1,2.3-0.2,3.101-1.2c0.5-0.7,0.699-1.4,0.5-2.1l-0.601-0.6l-2.7,0.2l1.7-1.1
			c1,0.1,2.101,0.4,3.2,0.8c2,0.6,3.4,0.8,4,0.6c-1-0.8-2.1-1.4-3.1-1.7c-1-0.4-2.301-0.6-4-0.8c-1.301-0.2-2.7-0.3-4.2-0.4
			C83.4,0.538,79.4,1.538,76.2,3.238z"/>
		<path d="M69.5,4.538c3.5-2.5,7.6-4,12.5-4.5c-4.301-0.3-8.601,1.2-13.101,4.5c-2.1,1.5-4.399,2.9-7.1,4.2
			c-1.3,0.8-2.4,1.3-3.4,1.6c0,0.5,0.3,0.5,0.9,0.2C61.8,9.738,65.2,7.738,69.5,4.538z"/>
		<path d="M58.4,19.038c0.101,0.6,0.601,1.2,1.5,1.8c1.2,0.9,2.601,1.3,4.4,1.3c1.2,0,1.7-0.1,1.899-0.1c-2.699-0.3-4.5-0.7-5.5-1.2
			c-0.199-0.1-0.899-0.6-2.1-1.8H58.4z"/>
		<path d="M47,15.038c0.5-0.5,0.9-0.7,1.2-0.8c-4.7,0.3-8.8-0.9-12.4-3.4c-3.1-2.5-4.8-3.8-4.8-3.8c-2.8-2.1-4.5-3.4-5.3-3.8
			c-3.2-1.7-7.3-2.7-12.2-3.1c-1.5,0.1-3,0.2-4.2,0.4c-1.6,0.2-2.9,0.4-3.9,0.8c-1.2,0.3-2.2,0.9-3.2,1.7c0.6,0.2,2,0,4-0.6
			c1.2-0.4,2.2-0.7,3.3-0.8l4.5-0.2c3.2,0.2,6.4,0.9,9.3,2.2c-0.1,0-0.2,0-0.3,0c-0.3,0.1-0.5,0.6-0.5,1.4l0.5,1.7
			c0.6,1,1.5,1.6,2.7,1.6c0.8,0,1.5-0.3,2-0.8c0.4-0.3,0.6-0.7,0.6-1c0.9,0.5,1.7,1.2,2.6,2c3.3,2.8,5.1,4.5,5.8,4.8
			c2.1,1.5,4.5,2.3,6.9,2.3c0.1,0,0.2,0,0.4,0c-0.5,0.2-1.3,0.7-2.2,1.2c-2.4,1.2-5.2,1.7-8.4,1.7c-1,0-2.9-0.3-5.4-1.2
			c-2.8-1.2-6.5-1.3-11-0.3s-7.9,0.8-10-0.5c-2.2-1.4-3.6-2.7-4.4-3.8c-0.8-1.2-1.2-2-1.2-2.5c0-1.7,0.3-3,0.8-3.9
			c0.2-0.6,1.1-1.7,2.6-3.5c-2,0.4-3.4,1.2-4.1,2.5c-0.4,0.9-0.7,2.1-0.7,3.7c0,0.9,0.2,1.8,0.4,2.7c3.1,5.8,8.2,8,15.1,6.3
			c4.2-0.9,8.3-0.7,12.5,0.5c2.2,0.8,4,1.1,5.4,1.1c5,0,8.8-1.3,11.4-4.1C45.7,15.538,46.5,15.337,47,15.038z M26.2,5.038
			c-0.5,0-1.1,0-1.7,0.2c0-0.5,0-0.8,0-1C25,4.438,25.6,4.738,26.2,5.038z"/>
		<path d="M81,19.738c-2.5,0.1-3.801,0.5-3.801,1.1c0,0.5,0.101,0.5,0.2,0.3c0.3-0.1,1.101-0.199,2-0.399c1.3-0.3,3-0.4,5.101-0.4
			c0.3,0,1.199,0.2,2.699,0.601c1.301,0.399,2.2,0.6,2.601,0.8v-0.2c-1.3-0.7-2.3-1.2-2.601-1.3C85.7,19.738,83.7,19.637,81,19.738z
			"/>
		<path d="M40,8.738c-2.7-1.3-5-2.7-7.1-4.2c-4.4-3.3-8.9-4.8-13.1-4.5c4.9,0.5,9,2,12.4,4.5c4.3,3.2,7.8,5.2,10.3,6
			c0.6,0.3,0.9,0.3,0.9-0.2C42.5,10.038,41.4,9.538,40,8.738z"/>
		<path d="M20.7,19.738c-0.2-0.101-1-0.2-2.2-0.2h-1.9c-1.9,0.2-3.3,0.3-4.1,0.7c-0.4,0.3-0.7,0.5-0.8,0.6
			c0.2,0.101,1.3-0.1,3.1-0.5C17,19.938,19,19.738,20.7,19.738z"/>
		<path d="M43.4,19.038h-0.2c-1.2,1.2-1.9,1.7-2,1.8c-1.1,0.5-2.9,0.9-5.5,1.2c0,0,0.7,0.1,1.8,0.1c1.7,0,3.2-0.399,4.4-1.3
			C42.8,20.238,43.3,19.637,43.4,19.038z"/>
	</g>
</g>
</svg>
