<?xml version="1.0" encoding="utf-8"?>
<!-- Generator: Adobe Illustrator 13.0.0, SVG Export Plug-In . SVG Version: 6.00 Build 14948)  -->
<svg version="1.2" baseProfile="tiny" id="Layer_1" xmlns="http://www.w3.org/2000/svg" xmlns:xlink="http://www.w3.org/1999/xlink"
	 x="0px" y="0px" width="89.3px" height="28.8px" viewBox="0 0 89.3 28.8" xml:space="preserve">
<g>
	<g>
		<path fill="#FFFFFF" d="M31.7,5.6c0-2.3-0.7-2.7-2.1-1.4c-0.7,0.8-1.7,1.9-3,3.4c-1.3,0.8-2.7,1.6-4.2,2.4
			c-0.4,0.2-0.9,0.4-1.2,0.6c0.2,0.1,0.5,0.3,0.8,0.7c1.2,1.2,1.7,2.5,1.7,4c0,1.301-0.4,2.7-1,4c-1,2.301-2.6,3.4-4.7,3.4
			c-2.6,0-4.3-0.7-5.3-2.3C12.2,19.8,12,18.9,12,17.9c0-0.8,0.2-1.601,0.3-2.3c0.2-0.4,0.3-0.8,0.4-1c-1.2,0.6-2.6,1.3-4.2,2.1
			c-4,2.1-6,3.9-6,5.4c0,0.3,1.8,1.199,5.5,3C12,27,15.2,28,17.3,28c4.4,0,7.3-1.7,8.6-4.8c0.4-0.9,0.7-2.2,0.8-3.7
			c0.2-1.399,0.3-2.3,0.3-2.399C30.2,9.7,31.7,5.9,31.7,5.6z M16.9,25.8c-1.1,0.301-2.2,0.301-3.4,0c-2-0.699-4.1-1.399-6.2-2.3
			c-1.2-0.5-2.4-1-3.4-1.5c-0.2-0.6,0-1.1,0.4-1.6c0.6-0.4,1-0.8,1.6-1.2c1.1-1,3.2-1.5,6.1-1.7l-3,2.4c0.5,0.2,1.9,1.2,4,3.2
			C14.5,24.4,15.8,25.3,16.9,25.8z"/>
		<path fill="#CCCCCC" d="M13.5,25.8c1.2,0.301,2.3,0.301,3.4,0c-1.1-0.5-2.4-1.399-3.9-2.699c-2.1-2-3.5-3-4-3.2l3-2.4
			c-2.9,0.2-5,0.7-6.1,1.7c-0.6,0.4-1,0.8-1.6,1.2c-0.4,0.5-0.6,1-0.4,1.6c1,0.5,2.2,1,3.4,1.5C9.4,24.4,11.5,25.101,13.5,25.8z"/>
		<path fill="#0066B3" d="M22.7,19.3c0.6-1.3,1-2.699,1-4c0-1.5-0.5-2.8-1.7-4c-0.3-0.4-0.6-0.6-0.8-0.7c-0.1,0-0.2,0-0.2,0
			c-0.7-0.5-1-0.3-1.1,0.6c0,0.2,0,0.5,0,0.7c0,0.2,0.3,1.1,1,2.9c-0.8,3.2-1.8,4.8-2.9,4.8c-1.4,0-2.3-0.2-2.8-0.601
			c0-0.1-0.2-0.2-0.2-0.3c0.2,0.3,0.3,0.5,0.5,0.7c0.7,0.8,1.5,1.2,2.5,1.2c0.9,0,1.7-0.801,2.6-2.4c1.1-1.9,1.6-2.8,1.6-2.9
			c0.1,0.101,0.2,0.101,0.3,0.101c0.2,0,0.2,0.2,0.2,0.399c-1.2,4.2-2.7,6.301-4.5,6.301c-2.2,0-3.7-0.801-4.3-2.5
			C13.6,19,13.5,17.9,13.5,16.5c0-0.2,0.1-0.6,0.4-1.3c0.3-0.7,0.6-1.2,0.8-1.6c0.5,0.2,0.8,0.6,0.8,1.2l0.1-0.1
			c0.3-0.6,0.4-1,0.4-1c0-0.3-0.1-0.4-0.1-0.5h-0.1l-0.1-0.1L15.3,13H15c-0.2,0-0.4,0-0.6,0.1c-0.4,0.1-0.7,0.3-1,0.8
			c-0.2,0.2-0.4,0.4-0.7,0.7c-0.1,0.2-0.2,0.6-0.4,1c-0.1,0.699-0.3,1.5-0.3,2.3c0,1,0.2,1.899,0.7,2.5c1,1.6,2.7,2.3,5.3,2.3
			C20.1,22.7,21.7,21.601,22.7,19.3z"/>
		<path fill="#034EA2" d="M22.7,15.8c0-0.199,0-0.399-0.2-0.399c-0.1,0-0.2,0-0.3-0.101c0,0.101-0.5,1-1.6,2.9
			c-0.9,1.6-1.7,2.4-2.6,2.4c-1,0-1.8-0.4-2.5-1.2c-0.2-0.2-0.3-0.4-0.5-0.7c-0.1-0.2-0.2-0.5-0.3-0.9c0-0.1,0-0.1,0-0.199
			c0-0.101,0-0.101,0-0.2c0-0.3,0.2-0.7,0.5-1.3c0.2-0.7,0.3-1,0.3-1.101c0-0.1,0-0.2,0-0.2c0-0.6-0.3-1-0.8-1.2
			c-0.2,0.4-0.5,0.9-0.8,1.6c-0.3,0.7-0.4,1.1-0.4,1.3c0,1.4,0.1,2.5,0.4,3.101c0.6,1.699,2.1,2.5,4.3,2.5
			C20,22.101,21.5,20,22.7,15.8z"/>
		<path fill="#FFFFFF" d="M19.9,11.9c0-0.2,0-0.5,0-0.7c-0.9,0.4-1.7,0.8-2.4,1.1c-0.4,0.2-1,0.5-1.7,0.9h0.1c0,0.1,0.1,0.2,0.1,0.5
			c0,0-0.1,0.4-0.4,1l-0.1,0.1c0,0,0,0.1,0,0.2c0,0.1-0.1,0.4-0.3,1.101c-0.3,0.6-0.5,1-0.5,1.3c0,0.1,0,0.1,0,0.2
			c0,0.1,0,0.1,0,0.199c0.1,0.4,0.2,0.7,0.3,0.9c0,0.1,0.2,0.2,0.2,0.3c0.5,0.4,1.4,0.601,2.8,0.601c1.1,0,2.1-1.601,2.9-4.8
			C20.2,13,19.9,12.1,19.9,11.9z"/>
		<path fill="#FFFFFF" d="M15,13h0.3c-0.2-0.3-0.5-0.2-0.9,0.1C14.6,13,14.8,13,15,13z"/>
		<path d="M57.5,4.1c0,0.2,0.1,0.6,0.199,1c0,0.3,0,0.7,0.101,1.1c0.399,2.5,1.5,6.5,3.2,11.9C63.4,25.3,66.3,28.8,70,28.8
			c3.699-0.1,7.199-1.1,10.5-3c3.5-1.8,6-2.399,7.8-1.5c0.2,0,0.2,0,0.2-0.3c-0.2-0.5-0.4-1-0.7-1.7C86.5,19.601,84.7,17.4,82.2,16
			c-2.5-1.4-5.6-2.8-9.199-4C71.7,11.6,70.4,11.1,69.2,10.5c-0.1-0.2-0.199-0.2-0.3-0.2c-1.899-0.9-3.7-1.9-5.2-3
			C61,5.4,58.5,3,56.1,0C56.3,0.7,56.9,2,57.5,4.1z M58.3,4.2c0.3,0.5,0.899,1.1,1.7,2c1.3,1.2,3.899,2.8,7.8,4.6
			c0.2,0.1,0.5,0.2,0.7,0.4c-1.2,0.1-1.801,1.2-1.801,3.3c0,0.3,0,0.6,0,0.9C66.8,16.2,67,17,67.2,17.7l0.101,0.1
			c0,0.301,0.2,0.5,0.2,0.7l0.199,0.2c0.9,1.9,2.301,2.9,4.301,2.9c1.5,0,2.5-0.801,3-2.4c0.1-1.6,0-2.7-0.101-3.1
			c-0.2-0.5-0.399-1.2-0.7-2.101C74.1,13.8,74,13.7,74,13.7c0.1,0,0.199,0,0.3,0.1c0.2,0.1,0.399,0.2,0.7,0.3
			c0.5,0.2,1.199,0.6,1.699,0.9c2.301,1.101,4.2,2,5.5,2.8c2.301,1.5,3.7,3,4.101,4.801c0,0.199,0,0.199,0.1,0.399
			c-0.2,0-0.2,0-0.399,0c-0.101,0-0.301,0-0.5,0.101C84.2,23.2,82,24,78.9,25.4c-3.399,1.6-6.3,2.3-8.5,2.2
			c-2.2,0-4.1-1.301-5.7-3.5c-0.8-1.301-1.5-2.5-2-3.801c-0.5-1-0.8-2-1.1-3c-0.4-1.3-0.7-2.899-1.2-4.6c-0.399-1.3-0.7-2.6-1.1-4
			C58.9,6.7,58.5,5.2,58.3,4.2z"/>
		<path fill="#FFFFFF" d="M60,6.2c-0.801-0.9-1.4-1.5-1.7-2c0.2,1,0.6,2.5,1,4.5c0.399,1.4,0.7,2.7,1.1,4c0.3,0.9,0.8,1.9,1.3,3
			c-0.5-1.5-1-3-1.5-4.5C60.1,10.5,60,9.8,60,9.2l0.8-1c1.1,6,3.2,10.5,6.2,13.2c1.3,1.399,2.8,2.3,4.6,2.6l5-0.399l0.4,0.6
			c-0.9,1.8-2.5,2.6-4.7,2.6C67.9,26.4,64.8,24,63.2,19.7c-0.3-0.7-0.6-1.4-0.899-2.1c0.1,0.399,0.2,1.1,0.2,1.899
			c0.1,0.3,0.1,0.601,0.199,0.8c0.5,1.301,1.2,2.5,2,3.801c1.601,2.199,3.5,3.5,5.7,3.5c2.2,0.1,5.101-0.601,8.5-2.2
			c3.101-1.4,5.3-2.2,6.601-2.3c0.399-0.301,0.6-0.4,0.8-0.5C85.9,20.8,84.5,19.3,82.2,17.8C80.9,17,79,16.101,76.7,15
			c0.101,0.1,0.2,0.3,0.301,0.601c0.199,0.699,0.199,1.5,0.199,2.3c0,1-0.199,1.899-0.6,2.5c-0.9,1.6-2.7,2.3-5.4,2.3
			c-2,0-3.5-1.1-4.6-3.4c-0.6-1.3-1-2.699-1-4c0-1.5,0.6-2.8,1.6-4c0.301-0.2,0.5-0.3,0.601-0.5C63.9,9,61.3,7.4,60,6.2z"/>
		<path fill="#0066B3" d="M68.5,11.2c-0.2-0.2-0.5-0.3-0.7-0.4C67.7,11,67.5,11.1,67.2,11.3c-1,1.2-1.6,2.5-1.6,4
			c0,1.301,0.4,2.7,1,4c1.1,2.301,2.6,3.4,4.6,3.4c2.7,0,4.5-0.7,5.4-2.3c0.4-0.601,0.6-1.5,0.6-2.5c0-0.8,0-1.601-0.199-2.3
			C76.9,15.3,76.8,15.1,76.7,15C76.2,14.7,75.5,14.3,75,14.1c0.1,0.3,0.199,0.7,0.5,1.1c0.199,0.7,0.399,1.1,0.399,1.3
			c0,1.4-0.2,2.5-0.5,3.101c-0.7,1.699-2.1,2.5-4.3,2.5c-1.2,0-2.4-1.101-3.4-3.4L67.5,18.5c0-0.2-0.2-0.399-0.2-0.7L67.2,17.7
			c-0.199-0.5-0.3-1.1-0.6-1.9c0-0.199,0.1-0.399,0.1-0.399c0-0.3,0-0.6,0-0.9C66.7,12.4,67.3,11.3,68.5,11.2z"/>
		<path fill="#034EA2" d="M66.6,15.8c0.3,0.801,0.4,1.4,0.6,1.9C67,17,66.8,16.2,66.7,15.4C66.7,15.4,66.6,15.601,66.6,15.8z"/>
		<path fill="#CCCCCC" d="M62.3,17.601C62.6,18.3,62.9,19,63.2,19.7c1.601,4.3,4.7,6.7,9.101,7.1c2.2,0,3.8-0.8,4.7-2.6l-0.4-0.6
			L71.6,24c-1.8-0.3-3.3-1.2-4.6-2.6c-3-2.7-5.101-7.2-6.2-13.2l-0.8,1c0,0.6,0.1,1.3,0.199,2c0.5,1.5,1,3,1.5,4.5
			c0.2,0.5,0.301,0.9,0.5,1.4C62.3,17.101,62.3,17.3,62.3,17.601z"/>
		<path fill="#034EA2" d="M67.7,18.7c1,2.3,2.2,3.4,3.4,3.4c2.2,0,3.6-0.801,4.3-2.5c0.3-0.601,0.5-1.7,0.5-3.101
			c0-0.2-0.2-0.6-0.399-1.3c-0.301-0.4-0.4-0.8-0.5-1.1c-0.301-0.1-0.5-0.2-0.7-0.3C74.2,13.8,74.2,13.9,74.2,14
			c0.301,0.9,0.5,1.601,0.7,2.101C75,16.5,75.1,17.601,75,19.2c-0.5,1.6-1.5,2.4-3,2.4C70,21.601,68.6,20.601,67.7,18.7z"/>
		<path fill="#0066B3" d="M74.3,13.8c-0.101-0.1-0.2-0.1-0.3-0.1c0,0,0.1,0.1,0.199,0.3C74.2,13.9,74.2,13.8,74.3,13.8z"/>
		<path fill="#FFFFFF" d="M57.8,6.2C57.7,5.8,57.7,5.4,57.7,5.1c-0.1,0.1-0.1,0.3-0.1,0.5C57.6,5.7,57.7,5.8,57.8,6.2z"/>
		<path d="M59.5,1.2C59.7,2,60.5,3,62.1,4c1.4,1,2.9,1.8,4.4,2.4C66.7,6.7,66.9,6.7,66.9,6.2C64.5,5.1,62,3.3,59.5,1.2z"/>
		<path d="M55.6,7.8v0.4c0,3.2,0.5,6.4,1.6,9.5c1.101,3.4,2.801,6.5,5,9.3l0.4-0.2c-2.3-2.6-3.9-5.699-5.1-9.399
			c-0.801-2.7-1.4-6-1.601-9.7h-0.2L55.6,7.8z"/>
		<path d="M89.2,21.4c0,0,0.101-0.101,0.101-0.3c0-1.301-2-3.5-6.101-6.4c-4-2.5-6.199-3.9-6.3-4c0.4,0.4,2.601,2,6.601,4.9
			C86.5,17.601,88.3,19.601,89.2,21.4L89.2,21.4z"/>
	</g>
	<g>
		<path d="M29.9,1.2c-2.7,2.1-5.1,3.9-7.4,5c0,0.5,0,0.5,0.3,0.2C24.3,5.8,25.9,5,27.2,4C28.7,3,29.6,2,29.9,1.2z"/>
		<path d="M33.2,0c-2.5,3-5,5.4-7.5,7.3c-2.7,1.9-5.8,3.4-9.4,4.7c-3.6,1.2-6.6,2.6-9.1,4c-2.6,1.4-4.5,3.601-5.7,6.3
			C1.2,23,1,23.5,0.7,24c0.1,0.3,0.2,0.3,0.3,0.3C2.7,23.4,5.3,24,8.7,25.8c3.5,1.9,7,2.9,10.6,3c3.7,0,6.6-3.5,8.9-10.699
			c2.4-7.2,3.5-11.9,3.5-14C32.5,2,33,0.7,33.2,0z M29.3,6.2c0.9-0.9,1.4-1.5,1.7-2c-0.2,1-0.5,2.5-1,4.5c-1,3.5-1.8,6.4-2.3,8.6
			c-0.5,2.2-1.6,4.5-3.2,6.801c-1.5,2.199-3.4,3.5-5.6,3.5c-2.2,0.1-5-0.601-8.5-2.2C6.9,23.8,4.5,23,3.3,23c-0.1,0-0.3,0-0.4,0
			c0.3-1.899,1.6-3.6,4.1-5.2c2-1.1,4.7-2.5,8.3-4.1c-0.4,1-0.8,1.9-0.9,2.4c-0.2,0.399-0.2,1.5-0.1,3.1c0.4,1.6,1.4,2.4,3,2.4
			c2,0,3.5-1,4.4-3.101c0.6-1.3,0.9-2.6,0.9-4c0-2.1-0.6-3.2-1.9-3.3C25,9.2,27.9,7.6,29.3,6.2z"/>
		<path d="M32.2,17.7c1-3.1,1.5-6.3,1.5-9.5V7.8l-0.1-0.1h-0.1c-0.3,3.7-0.9,7-1.8,9.7c-1.1,3.7-2.7,6.8-5,9.399L27,27
			C29.3,24.2,31,21.101,32.2,17.7z"/>
		<path d="M0.1,21.4h0.1c0.8-1.8,2.7-3.8,5.5-5.8c4-2.9,6.3-4.5,6.7-4.9c-0.2,0.1-2.2,1.5-6.4,4c-4,2.9-6,5.1-6,6.4
			C0,21.3,0,21.4,0.1,21.4z"/>
	</g>
	<g>
		<path fill="#FFFFFF" d="M70.7,16.4c-2-1.5-3-1.2-3,1L68.5,19c0.699,1.101,1.699,1.601,3,1.601c0.399,0,0.699-0.2,1.199-0.301
			c0.5-0.199,0.801-0.5,0.801-0.899C72.6,18.2,71.6,17.2,70.7,16.4z"/>
		<path fill="#FFFFFF" d="M23.7,13.4c0-1-0.5-1.4-1.5-1.4c-1.1,0.1-1.6,0.6-1.6,1.4l0.1,0.8c0.3,0.6,0.8,0.9,1.5,0.9
			C23.2,15.1,23.7,14.6,23.7,13.4z"/>
		<path fill="#FFFFFF" d="M17,15.1c-0.9-0.4-1.6-0.3-2,0.5c-0.4,0.5-0.5,1.1-0.5,1.899c0,0.5,0.2,1.101,0.5,1.8
			c0.6,1.101,1.3,1.7,2.3,1.7c0.4,0,0.8-0.2,1.4-0.6c0.6-0.3,0.9-0.7,0.9-1.101c-0.1-0.3-0.1-0.6-0.1-0.699c-1,0-1.6-0.5-1.7-1.4
			C17.7,16,17.4,15.3,17,15.1z"/>
		<path fill="#FFFFFF" d="M75.4,14.1c-1.1,0-1.6,0.6-1.6,1.8c0,0.3,0.1,0.7,0.2,0.8c0.199,0.5,0.8,0.6,1.699,0.6
			c0.301,0,0.7-0.1,1-0.3C76.9,16.7,77,16.4,77,16.2C77,14.8,76.5,14.1,75.4,14.1z"/>
	</g>
</g>
</svg>
