<?xml version="1.0" encoding="utf-8"?>
<!-- Generator: Adobe Illustrator 13.0.0, SVG Export Plug-In . SVG Version: 6.00 Build 14948)  -->
<svg version="1.2" baseProfile="tiny" id="Layer_1" xmlns="http://www.w3.org/2000/svg" xmlns:xlink="http://www.w3.org/1999/xlink"
	 x="0px" y="0px" width="93.869px" height="40.787px" viewBox="0 0 93.869 40.787" xml:space="preserve">
<g>
	<g>
		<path fill="#ED1C24" d="M42.492,8.834c-0.7-2-1.7-3.9-3.1-5.7c-0.5-0.6-1-1.1-1.6-1.4c-2.3-1.4-4.9-1.8-7.8-1.5
			c-2.6,0.4-4.9,1.3-7,2.7c-0.5,0.3-0.8,0.6-1.3,1v-0.2c-0.5-0.4-0.9-0.7-1.3-1c-2-1.4-4.4-2.2-6.9-2.6c-0.3-0.1-0.6-0.1-0.8-0.1
			c1,0.2,2.3,0.7,3.8,1.3c2.9,1.4,4.3,2.4,4.3,3c0,0.8-0.4,1.2-1.2,1.2c-0.2,0-1.2-0.6-2.9-1.8c-1.9-1.1-3.7-1.7-5.4-1.7
			c-1.4,0-3.1,0.7-5.1,1.9c-1.7,1.3-2.6,2-2.7,2.1c-0.1,0-0.3,0-0.3-0.1c0,0-0.1-0.2-0.1-0.4c0-0.8,0.6-1.7,1.7-2.5
			c1-0.8,2.7-1.8,5.1-2.8c0.2,0,0.4-0.2,0.6-0.2c-1.8,0.2-3.4,0.7-4.9,1.5c-0.6,0.4-1.1,0.9-1.6,1.5c-3.3,4.2-4.5,8.9-3.8,14
			c0.1,0.7,0.2,1.4,0.3,2.2c1.9,5,4.5,9.1,8,12.3c1.5,1.3,2.7,2.399,3.8,3.399c1.4,1.3,2.8,2.5,4.2,3.5c0.4,0.4,0.8,0.601,1.2,0.9
			c3.2,2.2,6.3,1.899,9.3-0.9c1.5-1,2.8-2.1,4-3.5c1.4-1.2,2.8-2.7,4.4-4.5c2.9-3.2,5.4-6.899,7.4-11.1c0.2-0.8,0.3-1.4,0.4-2.1
			c0.2-1,0.3-1.9,0.3-2.7c-0.1,0-0.1,0-0.2,0l-0.6-0.5c0-0.5,0.5-1,1.3-1.5c1.1-0.6,2.7-0.8,4.9-0.6c1.601,0.2,2.5,0.8,2.5,1.6
			c0,0.1,0,0.2-0.1,0.5c-0.101,0.1-0.3,0.2-0.601,0.2c0,0-0.199,0-0.3,0c0,0.9,0,1.8,0.101,2.8c0.199,0.7,0.3,1.4,0.5,2.2
			c1.5,4.3,3.699,7.8,6.399,10.8c-0.899-1-1.6-2-2.2-2.801c-1.3-1.899-2.399-3.899-3.199-6.1c-0.801-2.4-1.301-4.6-1.301-6.4
			c0-0.1,0-0.2,0.101-0.5c1,0.5,1.7,1.3,1.899,2.5c0.4,2,0.7,3.1,0.7,3.3c1.4,3,2.5,5.1,3.2,6.2c1.4,2.301,4,5,7.9,8.101
			c3.399,2.899,5.199,4.399,5.199,4.5c0,0.3-0.3,0.5-0.8,0.6c-0.3,0-0.7-0.1-1.1-0.2c2.7,1.601,5.5,1.601,8.6-0.199
			c0.7-0.301,1.4-0.801,2.101-1.301c1-0.8,2-1.8,3-2.8c1.199-1.2,2.699-2.7,4.199-4.5c3-3.2,5.5-6.899,7.5-11.1
			c0.2-0.8,0.301-1.4,0.5-2.1c0.7-5.2-0.699-9.9-4-14.1c-0.399-0.6-0.899-1.1-1.5-1.4c-2.3-1.4-4.899-1.8-7.8-1.5
			c-2.6,0.4-4.899,1.3-7,2.7c-0.399,0.3-0.899,0.6-1.3,1v-0.2c-0.4-0.4-0.9-0.7-1.3-1c-2.101-1.4-4.4-2.2-7-2.6
			c-2.9-0.4-5.5,0.1-7.8,1.4c-0.601,0.4-1.101,0.9-1.5,1.5c-1.5,1.8-2.5,3.7-3.2,5.7c0.399,0.2,0.899,0.3,1.3,0.5
			c1.1,0.4,1.6,1,1.6,1.5c0,0.2,0,0.3-0.199,0.5c-0.2,0.2-0.4,0.3-0.7,0.3s-0.9-0.2-1.601-0.5c-0.699-0.5-1.699-0.7-3.1-0.7
			c-2.6,0-4.4,0.2-5.3,0.6l-1.4,0.5c-0.2,0-0.4,0-0.4-0.1c0,0-0.1-0.1-0.2-0.1c-0.1,0-0.1-0.2-0.1-0.5c0-0.5,0.4-0.8,1.1-1.2
			c1.1-0.6,2.7-0.9,5-1c1.2,0,2.2,0,3.2,0.1c-0.801-0.2-1.801-0.4-3-0.4c-1.9-0.1-3.3,0-4.3,0.5
			C42.892,8.734,42.692,8.734,42.492,8.834z M54.792,3.834c0-0.9,0.7-1.8,2.1-2.5c1.8-0.8,4.101-1.1,7-0.9c1.5,0.6,4.101,2,8.2,4.2
			c0.7-1.9,3.6-3.1,8.6-3.6c2.301-0.3,4.301-0.3,6,0.2c1,0.3,1.801,0.7,2.301,1.2c0.5,0.3,0.699,0.8,0.699,1.1
			c0,0.2,0,0.5-0.199,0.6c-0.101,0.1-0.101,0.1-0.2,0.1c-0.101,0.3-0.5,0.3-0.8,0.3c0,0-0.801-0.3-2.2-0.9c-0.3-0.1-0.5-0.2-0.7-0.3
			c-1-0.2-2.1-0.3-3.3-0.3c-2.601,0-4.9,0.7-7.2,1.9c-1.7,1.3-2.7,1.8-2.8,1.8c-0.2,0-1.601-0.7-4.101-2.2
			c-2.5-1.6-4.699-2.3-6.5-2.3c-1.5,0-2.899,0.4-4.3,1.3c-1.2,0.8-1.7,1.3-1.899,1.3c-0.301,0-0.5-0.2-0.7-0.6V3.834z M25.992,3.734
			c-1.2,0.8-1.8,1.3-1.9,1.3c-0.4,0-0.6-0.2-0.6-0.5c0-0.2,0-0.3,0-0.4c0-1.1,0.8-1.9,2.5-2.6c1.5-0.6,3.3-0.9,5.4-0.9
			c5.3-0.1,7.9,1.4,7.9,4.4c0,0.3-0.2,0.5-0.6,0.5c-0.3,0-1.2-0.5-2.9-1.5c-1.5-1-3.1-1.5-4.8-1.5
			C29.292,2.534,27.692,3.034,25.992,3.734z M20.592,9.834c0,0.1-0.1,0.2-0.1,0.2l0,0c0.4,0.4,0.8,0.7,1.2,0.9v0.1
			c0.4-0.1,0.8-0.5,1.1-0.8c0.1,0,0.2-0.1,0.2-0.2c2-1.7,4.2-3,6.8-3.7c2.9-0.8,4.9-0.1,6.2,2.2c1.8,3,2.4,5.9,1.7,8.8
			c-0.7,2.9-2.7,6.2-5.9,9.8c-1.6,1.9-3.1,3.5-4.3,4.8c-1.3,1.5-2.9,2.9-4.8,3.9c-0.3,0.2-0.7,0.399-1,0.5
			c-2.1-0.9-4-2.101-5.8-3.601c-1.4-1.399-3.2-3.3-5.1-5.699c-2.8-3.7-4.5-6.7-5-9.101c-0.8-3.4-0.2-6.6,1.6-9.6
			c1.3-2.3,3.3-3,6.1-2.1c2.3,0.6,4.2,1.6,6,3c-0.5-0.5-1.2-1-1.8-1.5c-2-1.4-4.1-2-6.2-2c-2,0-3.5,0.9-4.7,2.8
			c-0.8,2.2-1.3,3.4-1.5,3.7c-0.1-0.2-0.2-0.3-0.2-0.7c0-5.3,2.6-7.7,7.7-7.1c1.9,0.3,3.7,0.9,5.4,2
			C19.692,7.534,20.492,8.734,20.592,9.834z M34.192,25.234c1.3-1.899,2.5-3,3.3-3.699c0,0.1,0.1,0.199,0.2,0.5
			c0,1.3-2.1,3.899-6.2,7.899c-3.8,3.5-6.7,6-8.7,7.101c2-2,4.7-4.5,7.9-7.301C31.492,28.934,32.692,27.334,34.192,25.234z
			 M55.892,12.334c-0.399,0-0.6-0.1-0.6-0.6c0-0.6,0.7-1.8,2.1-3.7c1.4-2.1,2.601-3.1,3.3-3.3c3-0.5,5.7,0,7.801,1.5
			c1.899,1.3,2.8,2.5,2.8,3.8c0,0,0,0.1,0,0.2c0.5,0.3,0.7,0.5,0.5,0.4s-0.3-0.1-0.4-0.1c0.3,0.1,0.4,0.2,0.7,0.4v0.1
			c0.4-0.1,0.8-0.5,1.1-0.8c0.101,0,0.2-0.1,0.2-0.2c2-1.7,4.2-3,6.8-3.7c2.801-0.8,4.9-0.1,6.301,2.2c1.699,3,2.199,5.9,1.6,8.8
			c-0.7,2.9-2.6,6.2-5.9,9.8c-2,2.4-3.699,4.2-5,5.4c-1.5,1.699-3.199,2.899-5.1,3.8c-0.4-0.101-0.7-0.4-1.1-0.5
			c-1.4-0.7-2.801-1.5-4.101-2.601c-1.5-1.3-3.399-3.399-5.7-6.199c-2.8-3.7-4.5-6.7-5-9.101c-0.399-1.9-0.399-3.8,0-5.6
			C56.092,12.334,55.993,12.334,55.892,12.334z M88.993,20.534c0,2-2.101,5.1-6.301,9.2c-3.6,3.7-6.5,6.101-8.8,7.2
			c-0.2,0.2-0.399,0.101-0.399-0.2c0,0,1.8-1.8,5.3-5.199c4.1-4.101,7.399-8.101,9.899-11.8
			C88.892,20.034,88.993,20.234,88.993,20.534z M2.392,15.234c0.2,2.1,0.8,4.5,1.8,7.1c0.8,2.1,2.5,4.399,5,7.2
			c1.3,1.5,3.5,3.8,6.6,6.8c-5.1-3.3-9-7-11.7-11c-2.6-3.9-3.9-7.8-3.9-11.8c0-2.1,0.3-3,0.8-2.6
			C1.592,11.234,1.992,12.734,2.392,15.234z"/>
		<path fill="#EE563C" d="M56.892,1.334c-1.399,0.7-2.1,1.6-2.1,2.5v0.4c0.2,0.4,0.399,0.6,0.7,0.6c0.199,0,0.699-0.5,1.899-1.3
			c1.4-0.9,2.8-1.3,4.3-1.3c1.801,0,4,0.7,6.5,2.3c2.5,1.5,3.9,2.2,4.101,2.2c0.1,0,1.1-0.5,2.8-1.8c2.3-1.2,4.6-1.9,7.2-1.9
			c1.2,0,2.3,0.1,3.3,0.3c0.2,0.1,0.4,0.2,0.7,0.3c1.399,0.6,2.2,0.9,2.2,0.9c0.3,0,0.699,0,0.8-0.3c0.1,0,0.1,0,0.2-0.1
			c0.199-0.1,0.199-0.4,0.199-0.6c0-0.3-0.199-0.8-0.699-1.1c-0.5-0.5-1.301-0.9-2.301-1.2c-1.699-0.5-3.699-0.5-6-0.2
			c-5,0.5-7.899,1.7-8.6,3.6c-4.1-2.2-6.7-3.6-8.2-4.2C60.993,0.234,58.692,0.534,56.892,1.334z"/>
		<path fill="#EE563C" d="M24.092,5.034c0.1,0,0.7-0.5,1.9-1.3c1.7-0.7,3.3-1.2,5-1.2c1.7,0,3.3,0.5,4.8,1.5c1.7,1,2.6,1.5,2.9,1.5
			c0.4,0,0.6-0.2,0.6-0.5c0-3-2.6-4.5-7.9-4.4c-2.1,0-3.9,0.3-5.4,0.9c-1.7,0.7-2.5,1.5-2.5,2.6c0,0.1,0,0.2,0,0.4
			C23.492,4.834,23.692,5.034,24.092,5.034z"/>
		<path fill="#D2442F" d="M20.492,10.034c0,0,0.1-0.1,0.1-0.2c-0.1-1.1-0.9-2.3-2.4-3.4c-1.7-1.1-3.5-1.7-5.4-2
			c-5.1-0.6-7.7,1.8-7.7,7.1c0,0.4,0.1,0.5,0.2,0.7c0.2-0.3,0.7-1.5,1.5-3.7c1.2-1.9,2.7-2.8,4.7-2.8c2.1,0,4.2,0.6,6.2,2
			c0.6,0.5,1.3,1,1.8,1.5c0.3,0.2,0.6,0.5,0.9,0.8C20.492,10.034,20.492,10.034,20.492,10.034z"/>
		<path fill="#ED1164" d="M20.492,10.034L20.492,10.034c0,0,0,0-0.1,0c-0.3-0.3-0.6-0.6-0.9-0.8c-1.8-1.4-3.7-2.4-6-3
			c-2.8-0.9-4.8-0.2-6.1,2.1c-1.8,3-2.4,6.2-1.6,9.6c0.5,2.4,2.2,5.4,5,9.101c1.9,2.399,3.7,4.3,5.1,5.699
			c1.8,1.5,3.7,2.7,5.8,3.601c0.3-0.101,0.7-0.3,1-0.5c1.9-1,3.5-2.4,4.8-3.9c1.2-1.3,2.7-2.899,4.3-4.8c3.2-3.6,5.2-6.9,5.9-9.8
			c0.7-2.9,0.1-5.8-1.7-8.8c-1.3-2.3-3.3-3-6.2-2.2c-2.6,0.7-4.8,2-6.8,3.7c0,0.1-0.1,0.2-0.2,0.2c-0.3,0.3-0.7,0.7-1.1,0.8v-0.1
			C21.292,10.734,20.892,10.434,20.492,10.034z"/>
		<path fill="#EE563C" d="M37.492,21.535c-0.8,0.699-2,1.8-3.3,3.699c-1.5,2.101-2.7,3.7-3.5,4.5c-3.2,2.801-5.9,5.301-7.9,7.301
			c2-1.101,4.9-3.601,8.7-7.101c4.1-4,6.2-6.6,6.2-7.899C37.592,21.734,37.492,21.634,37.492,21.535z"/>
		<path fill="#ED1164" d="M56.192,12.234c0.101,0,0.101,0.1,0,0.1c-0.399,1.8-0.399,3.7,0,5.6c0.5,2.4,2.2,5.4,5,9.101
			c2.301,2.8,4.2,4.899,5.7,6.199c1.3,1.101,2.7,1.9,4.101,2.601c0.399,0.1,0.699,0.399,1.1,0.5c1.9-0.9,3.6-2.101,5.1-3.8
			c1.301-1.2,3-3,5-5.4c3.301-3.6,5.2-6.9,5.9-9.8c0.6-2.9,0.1-5.8-1.6-8.8c-1.4-2.3-3.5-3-6.301-2.2c-2.6,0.7-4.8,2-6.8,3.7
			c0,0.1-0.1,0.2-0.2,0.2c-0.3,0.3-0.699,0.7-1.1,0.8v-0.1c-0.3-0.2-0.4-0.3-0.7-0.4c0.101,0,0.2,0,0.4,0.1s0-0.1-0.5-0.4
			c-0.3-0.2-0.601-0.5-0.9-0.7c-1.399-1-2.399-1.6-3-2c-1.1-0.5-2.2-1-3.399-1.3c-0.5-0.2-1-0.3-1.5-0.3c-2,0.1-3.7,1-4.801,2.8
			C57.192,9.334,56.692,10.534,56.192,12.234z"/>
		<path fill="#D2442F" d="M56.192,12.334c0.101,0,0.101-0.1,0-0.1c0.5-1.7,1-2.9,1.5-3.5c1.101-1.8,2.801-2.7,4.801-2.8
			c0.199,0,0.199,0,0.3,0c1.6,0,3.1,0.5,4.6,1.6c0.601,0.4,1.601,1,3,2c0.3,0.2,0.601,0.5,0.9,0.7c0-0.1,0-0.2,0-0.2
			c0-1.3-0.9-2.5-2.8-3.8c-2.101-1.5-4.801-2-7.801-1.5c-0.699,0.2-1.899,1.2-3.3,3.3c-1.399,1.9-2.1,3.1-2.1,3.7
			c0,0.5,0.2,0.6,0.6,0.6C55.993,12.334,56.092,12.334,56.192,12.334z"/>
		<path fill="#ED1C24" d="M63.993,6.234c1.199,0.3,2.3,0.8,3.399,1.3c-1.5-1.1-3-1.6-4.6-1.6c-0.101,0-0.101,0-0.3,0
			C62.993,5.934,63.493,6.034,63.993,6.234z"/>
		<path fill="#EE563C" d="M82.692,29.734c4.2-4.1,6.301-7.199,6.301-9.2c0-0.3-0.101-0.5-0.301-0.8c-2.5,3.7-5.8,7.7-9.899,11.8
			c-3.5,3.399-5.3,5.199-5.3,5.199c0,0.301,0.199,0.4,0.399,0.2C76.192,35.834,79.092,33.434,82.692,29.734z"/>
		<path fill="#D2442F" d="M4.192,22.334c-1-2.6-1.6-5-1.8-7.1c-0.4-2.5-0.8-4-1.4-4.3c-0.5-0.4-0.8,0.5-0.8,2.6
			c0,4,1.3,7.9,3.9,11.8c2.7,4,6.6,7.7,11.7,11c-3.1-3-5.3-5.3-6.6-6.8C6.692,26.734,4.992,24.434,4.192,22.334z"/>
		<path fill="#EE563C" d="M43.292,10.934c0.9-0.4,2.7-0.6,5.3-0.6c1.4,0,2.4,0.2,3.1,0.7c0.7,0.3,1.301,0.5,1.601,0.5
			s0.5-0.1,0.7-0.3c0.199-0.2,0.199-0.3,0.199-0.5c0-0.5-0.5-1.1-1.6-1.5c-0.4-0.2-0.9-0.3-1.3-0.5c-0.3,0-0.601,0-0.8-0.1
			c-1-0.1-2-0.1-3.2-0.1c-2.3,0.1-3.9,0.4-5,1c-0.7,0.4-1.1,0.7-1.1,1.2c0,0.3,0,0.5,0.1,0.5c0.1,0,0.2,0.1,0.2,0.1
			c0,0.1,0.2,0.1,0.4,0.1L43.292,10.934z"/>
		<path fill="#EE563C" d="M19.592,5.534c0.8,0,1.2-0.4,1.2-1.2c0-0.6-1.4-1.6-4.3-3c-1.5-0.6-2.8-1.1-3.8-1.3c-0.8,0-1.5,0-2.2,0
			c-0.2,0-0.4,0.2-0.6,0.2c-2.4,1-4.1,2-5.1,2.8c-1.1,0.8-1.7,1.7-1.7,2.5c0,0.2,0.1,0.4,0.1,0.4c0,0.1,0.2,0.1,0.3,0.1
			c0.1-0.1,1-0.8,2.7-2.1c2-1.2,3.7-1.9,5.1-1.9c1.7,0,3.5,0.6,5.4,1.7C18.392,4.934,19.392,5.534,19.592,5.534z"/>
		<path fill="#D2442F" d="M49.592,13.734c0.3,0.2,0.6,0.3,0.8,0.5c0.101,0,0.3,0,0.3,0c0.301,0,0.5-0.1,0.601-0.2
			c0.1-0.3,0.1-0.4,0.1-0.5c0-0.8-0.899-1.4-2.5-1.6c-2.2-0.2-3.8,0-4.9,0.6c-0.8,0.5-1.3,1-1.3,1.5l0.6,0.5c0.1,0,0.1,0,0.2,0
			c0-0.1,0.2-0.2,0.3-0.3c0.2-0.1,0.4-0.2,0.7-0.5c0.5-0.4,1.3-0.5,2.6-0.5c0.1,0,0.3,0,0.4,0
			C48.493,13.234,49.192,13.434,49.592,13.734z"/>
		<path fill="#D2442F" d="M50.792,14.234c-0.101,0.3-0.101,0.4-0.101,0.5c0,1.8,0.5,4,1.301,6.4c0.8,2.2,1.899,4.2,3.199,6.1
			c0.601,0.801,1.301,1.801,2.2,2.801c1.3,1.5,2.8,3.1,4.601,4.8c2.5,2.399,4.5,3.8,5.8,4.399c0.399,0.101,0.8,0.2,1.1,0.2
			c0.5-0.1,0.8-0.3,0.8-0.6c0-0.101-1.8-1.601-5.199-4.5c-3.9-3.101-6.5-5.8-7.9-8.101c-0.7-1.1-1.8-3.199-3.2-6.2
			c0-0.2-0.3-1.3-0.7-3.3C52.493,15.534,51.792,14.734,50.792,14.234z"/>
		<path fill="#ED1C24" d="M47.092,13.234c-1.3,0-2.1,0.1-2.6,0.5c-0.3,0.3-0.5,0.4-0.7,0.5c1.3-0.5,2.6-0.9,3.7-1
			C47.392,13.234,47.192,13.234,47.092,13.234z"/>
	</g>
	<g>
		<path fill="#FFFFFF" d="M35.192,11.234c-0.8-1-1.8-1.4-3-1.2c-3,0.3-4.7,3.2-5.4,8.5c-0.2,1.5-1.1,4.5-2.6,8.6
			c-1.4,4-2.1,6.1-2.1,6.2l0.5,1.1c0.8,0.101,1.8-0.1,3.1-1c1.2-0.7,3.3-3.3,6.3-7.6s4.5-7.8,4.5-10.5
			C36.492,13.634,35.992,12.234,35.192,11.234z"/>
		<path fill="#FFFFFF" d="M85.792,11.034c-0.7-1-1.601-1.5-2.5-1.4c-2.5,0.1-4.3,3.1-5.601,9.1c-0.399,1.5-1.399,4.4-3.1,8.5
			c-1.6,4-2.4,6-2.4,6.101c0,0.3,0,0.5,0.101,0.6c0.2,0.4,0.6,0.601,1.2,0.601c1.1,0,2.8-1.2,5.199-3.801
			c1.601-1.899,3.101-3.8,4.5-5.899c0.801-1.3,1.601-2.9,2.301-5c0.899-2.3,1.3-4.1,1.3-5.3
			C86.792,13.234,86.493,12.034,85.792,11.034z"/>
	</g>
</g>
</svg>
