<?xml version="1.0" encoding="utf-8"?>
<!-- Generator: Adobe Illustrator 13.0.0, SVG Export Plug-In . SVG Version: 6.00 Build 14948)  -->
<svg version="1.2" baseProfile="tiny" id="Layer_1" xmlns="http://www.w3.org/2000/svg" xmlns:xlink="http://www.w3.org/1999/xlink"
	 x="0px" y="0px" width="106.6px" height="36.232px" viewBox="0 0 106.6 36.232" xml:space="preserve">
<g>
	<path fill="#95B6DF" d="M97,9.172c-2.8-2.5-5.8-3.7-9-3.7c-1,0-2.699,0.3-5,0.9c-2.199,0.6-3.3,0.8-3.399,0.8
		c-0.601,0-1.2-0.2-1.9-0.7c-0.899-0.8-1.5-1.2-1.8-1.4c-1.8-0.8-4.6,0-8.4,2.6c-1.5,1-2.5,1.9-3.199,2.8c-1,1.1-1.5,2.2-1.5,3.5
		c0,3.6,1.199,7.2,3.399,11c3.3,5.8,8.601,8.7,15.5,8.7c6.5,0,11.5-2.9,14.9-8.7c2.399-4.101,3.6-8,3.6-11.7
		C100.2,12.472,99.1,11.072,97,9.172z"/>
	<path fill="#95B6DF" d="M41.5,23.472c1.4-3.8,2.1-7.7,2.1-11.8c0-1-1.5-2.1-4.6-3.5c-3.6-1.6-7.8-2.5-12.5-2.5
		c-4.7-0.6-8.5-0.7-11.5-0.5c-4.6,0.4-7.4,2-8.2,5c-0.2,0.2-0.3,0.4-0.3,0.6c0,0.6,0,0.8,0.1,0.8v0.1c0,0.2,0,0.3,0,0.5
		c0.2,3.8,1.3,7.4,3.2,11c3.9,7.199,10.2,10.8,18.7,10.8C34.7,33.972,39,30.472,41.5,23.472z"/>
</g>
<g>
	<path fill="#FFFFFF" d="M93.5,26.172c2.301-2.7,3.301-5.601,3.301-8.4c0-2.4-0.5-4.1-1.801-4.8c-1.699-1-4.5,0.5-8.3,4.2
		c-0.899,0.8-3.7,2.7-8.6,5.7c-3.8,2.2-5.601,4.101-5.601,5.5c0,0,0,0.7,0.2,2.101c0.8,1.3,2.7,2,5.8,2
		C85.2,32.472,90.2,30.372,93.5,26.172z"/>
	<path fill="#FFFFFF" d="M83.5,13.472c2,0,3.5-0.1,4.2-0.5c-2.1-1.3-4.1-2.1-6.1-2.8c-3.601-1-6-0.6-7.3,1.3
		c0.899,0.4,1.399,0.8,1.6,1.4C76.6,13.272,79.1,13.472,83.5,13.472z"/>
	<path fill="#FFFFFF" d="M65.6,13.572c-0.3,0.5-0.601,1.3-0.601,2.3c0,1.1,0.301,2.4,0.601,3.8c0.7,2.3,1.6,3.5,2.899,3.5
		c0.5,0,1-0.101,1.301-0.5c0.399-0.301,0.5-0.801,0.5-1.4c0-0.3,0-0.7-0.2-1.2c0.5-0.6,1.2-1.4,1.8-2.3c1.2-1.8,1.8-2.9,1.8-3.3
		c0-0.9-1.399-1.8-4.1-2.6C67.1,10.972,65.8,11.572,65.6,13.572z"/>
	<path fill="#FFFFFF" d="M26.1,11.472c-0.5-0.4-1.1-0.8-1.8-1c0.7,0,1.3,0,1.8,0l-0.1-0.3c-1.2-0.4-3-0.6-5-0.8c-0.4,0-0.7,0-1.1,0
		c-1.6-0.3-2.6-0.2-3.1,0.3c-0.5,0.2-0.8,0.3-1,0.5c0.2,0.2,0.4,0.3,0.7,0.4c0,0.6,0,0.7,0.1,0.4c1.9,1.3,3.6,2,5.2,2
		c1.5,0,2.6-0.2,3.2-0.5C25.4,12.172,25.8,11.872,26.1,11.472z"/>
	<path fill="#FFFFFF" d="M38,11.872c-1.7-1.9-4.2-0.9-7.5,2.8c0,0.2-2.4,2.7-7,7.5c-3.5,3.6-5.2,5.699-5.2,6.3
		c0,0,0.5,0.899,1.3,2.5c1.2,1.7,2.6,2.5,4.2,2.5c5.8,0,10.2-1.9,13-5.8c2-2.7,3-6,3-9.7C39.8,15.172,39.3,13.172,38,11.872z"/>
	<path fill="#FFFFFF" d="M8.3,10.972c-0.1,0.3-0.2,0.7-0.2,1.3c0,0.1,0.2,1.4,0.4,4.2c0.2,0.9,0.4,1.6,0.7,2.2
		c-0.2,0.5-0.4,0.9-0.4,1.1c0,0.6,0.2,0.8,0.4,1c0.1,0.1,0.4,0.2,0.8,0.2c0.3-0.101,0.5-0.3,0.8-0.5l0,0c1.2,0,1.8-0.7,1.8-2
		c0-0.2,0-0.4,0-0.5c0.3-0.4,0.6-0.8,0.9-1.3c1.4-2.3,2.1-3.7,2.1-4.1c0-1-1.2-1.9-3.6-2.6C9.8,9.272,8.6,9.572,8.3,10.972z"/>
</g>
<g>
	<path d="M103.6,10.372c1-2.8,2-5.9,3-9.4c-23.3-0.7-39-0.9-47.101-0.5h-0.3c0,0.1,0,0.1,0.101,0.2C59.2,0.972,59,1.372,59,1.772
		c-2.5-0.2-5.8-0.2-10.2-0.2c-0.4,0-0.7,0-1,0.2c-0.1-0.3-0.2-0.8-0.3-1.6h-0.1v-0.1c-0.1,0-0.1,0-0.2,0c-9.7-0.2-25.5,0-47.2,0.8
		c1,3.4,2.2,6.6,3.4,9.3h2.4c0.4-0.2,1.2-0.4,2.5-0.6c10.2-1.2,21.4-1.2,33.5,0c-0.4,1.5-0.6,3-0.6,4.3c0,0.3,0.1,0.7,0.4,1.1
		c0.4,0.4,0.9,0.6,1.6,0.7c0.1,0,0.3,0,0.5,0c0.4,0,0.8-0.1,1.1-0.2c1.3-0.5,2.2-1.6,2.9-3.7c0.3-0.2,0.6-0.3,0.9-0.5
		c1.4-0.8,3-1.2,4.6-1.2c1.601,0,3.3,0.5,5.101,1.6c0.199,0.2,0.5,0.3,0.8,0.5c0.7,1.9,1.5,3,2.7,3.5c0.399,0.2,0.8,0.2,1.199,0.2
		c0.2,0,0.4,0,0.5,0c0.7-0.1,1.2-0.3,1.5-0.8c0.301-0.3,0.5-0.6,0.5-1c0-1.4,0-3-0.1-4.7c11.8-0.9,22.8-0.8,33,0.5
		c1.2,0.1,2.1,0.3,2.6,0.5H103.6z M100.8,4.472c0.3,0.4,0.5,0.7,0.5,1.2c0,0.4-0.2,0.9-0.5,1.2c-0.4,0.3-0.801,0.5-1.301,0.5
		c-0.399,0-0.8-0.2-1.199-0.5c-0.301-0.3-0.5-0.8-0.5-1.2c0-0.5,0.199-0.8,0.5-1.2c0.399-0.4,0.8-0.5,1.199-0.5
		C100,3.972,100.4,4.072,100.8,4.472z M91.6,2.672l0.1,0.3c-0.399,0-0.899,0-1.8,0.1c-4.2-0.1-13.1-0.1-26.6-0.2c0-0.2,0-0.3,0-0.4
		c0-0.7,0.6-1.1,1.699-1.3c0.801-0.2,2.2-0.2,4.2-0.2c0.8,0,7.5,0.2,20,0.7c0.5,0,1,0.2,1.4,0.4C90.9,2.172,91.2,2.472,91.6,2.672z
		 M56.3,1.872c1.8,0.1,2.699,0.2,3,0.3c0,0.2-0.101,0.4-0.2,0.5c-0.9-0.1-2.3-0.1-4.3,0c-4.3,0-6.601,0-7-0.2
		c0.2-0.1,0.8-0.3,2.2-0.5c1.2-0.1,2.2-0.3,2.8-0.3C53.6,1.672,54.8,1.772,56.3,1.872z M58.5,7.872c-1.5-0.7-3.3-1-5.399-1.1
		c-2.1-0.1-3.7,0.2-4.9,0.8c0-1,0-1.9-0.1-2.8c1.9,0.2,5.399,0.2,10.5,0.3C58.5,5.972,58.5,6.872,58.5,7.872z M38.5,2.572
		c0,0-0.2,0.1-0.5,0.1H10.5c-0.2,0-0.2-0.2-0.2-0.7l0.2-0.8c6-0.2,11.9-0.3,17.5-0.7c1,0,2.5,0.1,4.6,0.2c2.7,0.2,4.7,0.3,6,0.5
		l0.2,0.8C38.7,2.372,38.6,2.472,38.5,2.572z M5.5,4.172c0.3-0.3,0.8-0.5,1.2-0.5c0.5,0,0.9,0.2,1.3,0.5c0.3,0.4,0.5,0.8,0.5,1.3
		c0,0.4-0.2,0.9-0.5,1.2c-0.4,0.3-0.8,0.5-1.3,0.5c-0.4,0-0.9-0.2-1.2-0.5c-0.3-0.3-0.5-0.8-0.5-1.2C5,4.972,5.2,4.572,5.5,4.172z"
		/>
	<path fill="#CCCCCC" d="M101.3,5.672c0-0.5-0.2-0.8-0.5-1.2c-0.4-0.4-0.801-0.5-1.301-0.5c-0.399,0-0.8,0.1-1.199,0.5
		c-0.301,0.4-0.5,0.7-0.5,1.2c0,0.4,0.199,0.9,0.5,1.2c0.399,0.3,0.8,0.5,1.199,0.5c0.5,0,0.9-0.2,1.301-0.5
		C101.1,6.572,101.3,6.072,101.3,5.672z"/>
	<path fill="#333333" d="M91.7,2.972l-0.1-0.3c-0.4-0.2-0.7-0.5-1-0.6c-0.4-0.2-0.9-0.4-1.4-0.4c-12.5-0.5-19.2-0.7-20-0.7
		c-2,0-3.399,0-4.2,0.2c-1.1,0.2-1.699,0.6-1.699,1.3c0,0.1,0,0.2,0,0.4c13.5,0.1,22.399,0.1,26.6,0.2
		C90.8,2.972,91.3,2.972,91.7,2.972z"/>
	<path fill="#333333" d="M59.3,2.172c-0.301-0.1-1.2-0.2-3-0.3c-1.5-0.1-2.7-0.2-3.5-0.2c-0.6,0-1.6,0.2-2.8,0.3
		c-1.4,0.2-2,0.4-2.2,0.5c0.4,0.2,2.7,0.2,7,0.2c2-0.1,3.399-0.1,4.3,0C59.2,2.572,59.3,2.372,59.3,2.172z"/>
	<path fill="#333333" d="M38,2.672c0.3,0,0.5-0.1,0.5-0.1c0.1-0.1,0.2-0.2,0.3-0.6l-0.2-0.8c-1.3-0.2-3.3-0.3-6-0.5
		c-2.1-0.1-3.6-0.2-4.6-0.2c-5.6,0.4-11.5,0.5-17.5,0.7l-0.2,0.8c0,0.5,0,0.7,0.2,0.7H38z"/>
	<path fill="#CCCCCC" d="M6.7,3.672c-0.4,0-0.9,0.2-1.2,0.5c-0.3,0.4-0.5,0.8-0.5,1.3c0,0.4,0.2,0.9,0.5,1.2
		c0.3,0.3,0.8,0.5,1.2,0.5c0.5,0,0.9-0.2,1.3-0.5c0.3-0.3,0.5-0.8,0.5-1.2c0-0.5-0.2-0.9-0.5-1.3C7.6,3.872,7.2,3.672,6.7,3.672z"/>
	<path fill="#5DA9DD" d="M101,10.372c-0.5-0.2-1.399-0.4-2.6-0.5c0.1,4.3-0.1,7.3-0.4,9c-1.399,9.5-7.5,14.2-18.5,14.2
		c-8.5,0-13.6-4.399-15.399-13.1c-0.3-1.3-0.5-2.6-0.601-4.1c-0.1,0-0.3,0-0.5,0c-0.399,0-0.8,0-1.199-0.2
		c0.3,4.3,1.399,8.3,3.199,11.9c3.4,6.5,9,9.4,16.801,8.5c7.899-0.8,12.8-3.399,15-7.6c2.1-4.4,3.399-8,3.699-11.2
		C100.8,14.072,101,11.872,101,10.372z"/>
	<path fill="#5DA9DD" d="M44.8,15.472c-0.3,0.1-0.7,0.2-1.1,0.2c-0.2,0-0.4,0-0.5,0c-0.2,1.5-0.4,2.9-0.6,4.1
		c-1.8,8.8-7,13.2-15.4,13.2c-10.9,0-17.2-4.8-18.6-14.3c-0.2-1.7-0.3-4.7-0.3-9.1c-1.3,0.2-2.1,0.4-2.5,0.6c0.1,0.4,0.2,2,0.4,5.2
		c0.1,3.1,1.3,7,3.5,11.7c2.1,4.8,7.1,7.5,14.9,8.4c7.9,0.7,13.1-1.3,15.9-6.101C43.2,24.472,44.6,19.872,44.8,15.472z"/>
</g>
</svg>
