<?xml version="1.0" encoding="utf-8"?>
<!-- Generator: Adobe Illustrator 13.0.0, SVG Export Plug-In . SVG Version: 6.00 Build 14948)  -->
<svg version="1.2" baseProfile="tiny" id="Layer_1" xmlns="http://www.w3.org/2000/svg" xmlns:xlink="http://www.w3.org/1999/xlink"
	 x="0px" y="0px" width="131.3px" height="50px" viewBox="0 0 131.3 50" xml:space="preserve">
<g>
	<path fill="#A66898" d="M124.2,14.8c0.4-0.9,0.601-1.4,0.601-1.9c0-1.6-3.601-1.6-11-0.1C111.3,13.3,107,14.4,101,15.9
		c-4.6,1.4-9.1,2.9-13.399,4.6c-5.8,2.4-8.8,4.2-8.8,5.4c0,0.8-0.601,1.8-1.9,2.7C75.6,29.5,75,30.7,75,32
		c0,2.2,2.301,4.7,7.101,7.7c4.7,3,9.399,4.8,13.7,5.5c0,1.3,0.8,2,2.199,2c2.2,0,5.301-0.8,9.301-2.5c4.1-1.8,6.8-3.3,8.199-4.8
		c2.101-2.4,3.801-5.4,5.2-9c1.3-3.601,2.2-6.6,2.601-9c0.199-0.8,0.3-2.3,0.3-4.4C123.6,16.5,123.8,15.7,124.2,14.8z"/>
	<path fill="#A66898" d="M52.3,27.3c-2.8-2.8-5.3-4.8-7.7-6.3c-2.3-1.4-4-2.5-5.3-3.2c-2.2-1.3-4.5-2.2-6.6-2.8
		c-1.7-0.4-4.1-1.5-7.2-3.1L21,9.5c-0.1,0-0.6,0.2-1.5,0.6c-0.8,0.5-1.3,0.7-1.5,0.7c-2.6-0.7-5.2-1.2-7.7-1.5
		c-5-0.7-7.6-0.2-7.6,1.3c0,0.5,0.3,0.9,0.8,1.2c0.4,0.1,1,0.5,1.9,0.8c1.9,0.9,2.9,3,3.1,6.1c0,1.2,0.3,2.8,0.9,4.6
		c0.4,1,0.9,2.4,1.6,4.2c0.3,1.101,0.8,2.601,1.5,4.7c0.7,1.7,1.5,3.1,2.5,4.2c1.8,1.8,3.6,3.5,5.7,4.8c3.6,2.4,7.1,3.6,10.5,3.6
		c4.1,0,9.4-1.3,15.9-3.899C53.6,38.3,57,36,57,34.2C57,32.7,55.4,30.4,52.3,27.3z"/>
</g>
<g>
	<path fill="#FFFFFF" d="M121.8,16.4c0-1.5-1.5-1.8-4.801-0.6c-3.1,1.1-4.8,2.4-5,3.7c-0.199,1-0.6,2.2-1.1,3.5
		c-0.1,0.2-0.6,1.5-1.4,3.8c-1,2.4-2.899,5.4-5.6,9.101c-2.4,3.5-3.7,5.3-3.7,5.5c0,0,0.101,0.3,0.2,0.8c0.2,0.6,0.8,0.9,1.6,0.9
		c4.601,0,9.101-2.7,13.301-8.301C119.7,29.2,121.8,23,121.8,16.4z"/>
	<path fill="#FFFFFF" d="M92.5,42.2c0.301,0,0.7-0.2,0.801-0.5C93,41.5,91.5,40.5,89,39.101c-2.699-1.5-4.199-2.4-4.899-2.9
		c-1.601-1.4-2.9-2.5-3.8-3.1c-1.301-1.2-2.301-1.9-3-2c0.5,1.6,2.1,3.8,5,6.399C85.8,40.601,89.2,42.2,92.5,42.2z"/>
	<path fill="#FFFFFF" d="M48,39c4-2.3,6-4.399,6-6.1c0-0.9-0.5-1.4-1.6-1.9c-1.7-0.6-3.2-1.5-4.4-2.8c-1.3-0.5-2.5-0.3-3.7,0.7
		c-1.2,1.3-2,2.1-2.5,2.6c-1.9,2-4.2,3.601-6.6,4.5c-0.8,0.4-2.8,0.7-5.9,0.9c-1.9,0.3-2.8,1-2.8,2.3c0,0,0.7,0.7,2.2,2
		c1.7,1.3,3.1,2,4.3,2C38.3,43.2,43.3,41.8,48,39z"/>
	<path fill="#FFFFFF" d="M13.2,24.2c-0.2-0.6-0.5-1.7-0.8-3.2c-0.3-1.6-0.6-2.6-0.7-3.1c-0.4-2.2-0.9-3.4-1.5-3.4
		c-0.5-0.1-0.7,0.7-0.7,2.4c0,3.1,0.9,6.8,2.8,10.899c2.2,4.9,5,8.101,8.4,9.301l0.1-0.301c-1.4-1.899-2.8-4-4.3-6.199
		C15,28,13.8,25.9,13.2,24.2z"/>
</g>
<g>
	<path fill="#806A50" d="M130.8,0.9c0,0,0-0.1,0-0.2C129.2,1,127.5,1.4,126,1.7c0,0.1-0.1,0.1-0.199,0.2c0-0.1,0-0.1,0-0.1
		C125,1.9,124.3,2,123.6,2.2c0,0.1,0,0.2,0.1,0.3C123.8,2.6,123.8,2.8,123.8,3c0.399,1,1,1.5,1.899,1.5c0.3,0,0.5-0.1,0.8-0.3
		c0.4-0.2,0.7-0.3,0.9-0.3c1.4,0,2.4-0.1,2.9-0.4c0,0,0.199-0.1,0.199-0.2C130.6,2.5,130.7,1.7,130.8,0.9z"/>
	<path fill="#806A50" d="M130.8,0.9c-0.101,0.8-0.2,1.6-0.301,2.4C130.8,3,130.8,2.5,130.8,1.5C130.8,1.3,130.8,1,130.8,0.9z"/>
	<path fill="#A78952" d="M130.3,3.5c-0.5,0.3-1.5,0.4-2.9,0.4c-0.2,0-0.5,0.1-0.9,0.3c-0.3,0.2-0.5,0.3-0.8,0.3
		C124.8,4.5,124.2,4,123.8,3c0-0.2,0-0.4-0.101-0.5c-3,0.6-5.8,1.2-8.399,1.9c1.5,1.8,2.199,3.1,2.199,3.7c0,0.9-0.3,1.7-0.899,2.4
		c-1,1-2.601,1.4-4.9,1.4c-1.899,0-3.2-0.8-4-2.5C107.3,7.6,107,6.7,107,6.6V6.5c-2.3,0.6-4.5,1.3-6.399,2c-0.101,0-0.3,0-0.4,0.1
		v0.2c0,0.7-0.2,1.2-0.6,1.9C99,11.6,98,12.1,96.8,12.1c-1.301,0-2.4-0.3-3.2-1c-4,1.7-7.601,3.5-10.8,5.5
		c-2.101,1.3-4,2.9-5.801,5.1L73.1,27.3c-0.5,0.7-0.8,1.4-1.2,2.2c0.1,0,0.1,0,0.1,0.101c1.801,0.899,2.7,2.1,2.801,3.6
		c0.199-0.3,0.5-0.5,0.699-0.8C75.6,32,75.8,31.7,76.1,31.5c-0.5-0.1-0.9-0.3-1.3-0.399c-0.601-0.4-1-0.7-1-1.2
		c0-3.2,1.699-4.6,4.899-4.2c0.8,0.2,1.601,0.4,2.3,0.8c0.5-0.5,1-0.9,1.5-1.3c-1.6-0.3-2.399-1-2.399-2.3c0-0.7,0.2-1.2,0.399-1.5
		c0.7-0.7,1.301-1.5,1.7-2.3c0.101-0.2,0.4-0.8,0.8-1.7c0.5-0.9,1-1.4,1.7-1.5c0.8-0.2,1.8-0.6,3.101-1.2c1.199-0.3,2.1-0.1,2.8,0.9
		c0.399,1,0.6,1.8,0.7,2.2v1.4c0,0.3,0,0.7-0.101,1c1.601-0.8,3.4-1.5,5.3-2.2L96.3,17.2c0-1.8,1.899-3.5,5.5-5.1
		c1.5-0.6,2.699-0.3,3.899,0.9c0.8,0.9,1.2,1.5,1.3,2.1c4.801-1,10-1.8,15.601-2.3C121.8,22.2,120,29.5,117,34.7
		c0.5-0.1,0.9,0,1.301,0.3c1.1,0.7,1.699,1.601,1.699,2.7c-1.699,3.7-3,5.5-4.199,5.5c-1,0-1.801-0.3-2.301-1
		c-0.3-0.7-0.5-1-0.5-1.1c0-0.601,0.2-1.301,0.601-1.9c-1.8,2-3.9,3.3-6.3,4c-0.5,0.2-0.9,0.3-1.301,0.4C106,44,106.1,44.5,106.1,45
		c0,0.8-0.3,1.7-1.101,2.7c-0.5,0.9-1.1,1.5-1.8,1.8c6.601,0,12-2.6,16-7.7c0.2-0.399,0.5-0.8,0.8-1.1c1-1.6,1.9-3.5,2.801-5.5
		c-0.601-0.2-1-0.6-1.301-1.2c-0.3-0.5-0.399-0.899-0.399-1.3c0-0.8,0.399-1.8,1.2-3c0.899-1.3,1.3-2,1.3-2.2l-1-6.3
		c0-1.5,1.2-3.2,3.7-5c0.899-0.5,1.5-0.8,2.1-1C129.1,11.6,129.8,7.7,130.3,3.5z M125.6,10.1c-0.8,1-1.9,1.5-3.4,1.5
		c-1.899,0-3.1-0.3-3.6-1c-0.101-0.2-0.3-0.6-0.3-1.2c0-2.4,1.399-3.8,4-4.4c2.699-0.5,4,0.6,4,3.4C126.3,8.9,126.1,9.5,125.6,10.1z
		"/>
	<path fill="#806A50" d="M122.2,11.6c1.5,0,2.601-0.5,3.4-1.5c0.5-0.6,0.7-1.2,0.7-1.7c0-2.8-1.301-3.9-4-3.4c-2.601,0.6-4,2-4,4.4
		c0,0.6,0.199,1,0.3,1.2C119.1,11.3,120.3,11.6,122.2,11.6z M123.6,8.8C123.2,8.9,122.8,9,122.5,9c-0.399,0-0.699,0-0.8-0.1
		c-0.2,0-0.399-0.2-0.399-0.5V8.2c0.199-0.2,0.5-0.3,1-0.6c0.6-0.1,1-0.2,1.199-0.1C123.5,8,123.5,8.5,123.6,8.8z"/>
	<path fill="#A78952" d="M122.5,9c0.301,0,0.7-0.1,1.101-0.2C123.5,8.5,123.5,8,123.5,7.5c-0.199-0.1-0.6,0-1.199,0.1
		c-0.5,0.3-0.801,0.4-1,0.6v0.2c0,0.3,0.199,0.5,0.399,0.5C121.8,9,122.1,9,122.5,9z"/>
	<path fill="#806A50" d="M128.4,15.2c-0.6,0.2-1.2,0.5-2.1,1c-2.5,1.8-3.7,3.5-3.7,5l1,6.3c0,0.2-0.4,0.9-1.3,2.2
		c-0.801,1.2-1.2,2.2-1.2,3c0,0.4,0.1,0.8,0.399,1.3c0.301,0.601,0.7,1,1.301,1.2c0.1,0,0.1,0,0.199,0c2.101-5,4-11.7,5.601-20
		C128.5,15.2,128.5,15.2,128.4,15.2z M126.1,20.2c0.2-0.2,0.7-0.7,1.399-1.3c0.101,0.4,0,1-0.5,2c-0.199,0.5-0.5,1.2-1,2
		c-0.199-0.6-0.399-1.2-0.399-1.5C125.6,21,125.8,20.7,126.1,20.2z"/>
	<path fill="#A78952" d="M127.5,18.9c-0.699,0.6-1.199,1.1-1.399,1.3c-0.3,0.5-0.5,0.8-0.5,1.2c0,0.3,0.2,0.9,0.399,1.5
		c0.5-0.8,0.801-1.5,1-2C127.5,19.9,127.6,19.3,127.5,18.9z"/>
	<path fill="#A78952" d="M112.8,6.4c-0.2-0.5-0.301-0.9-0.601-1.3c-0.7,0.2-1.5,0.4-2.2,0.6C109.8,6.3,109.8,6.5,109.8,6.6
		c0,0.3,0,0.5,0,0.7c0.1,0.1,0.3,0.2,0.6,0.2l2.4-0.1V6.4z"/>
	<path fill="#806A50" d="M112.2,5.1c0.3,0.4,0.4,0.8,0.601,1.3v1l-2.4,0.1c-0.3,0-0.5-0.1-0.6-0.2c0-0.2,0-0.4,0-0.7
		c0-0.1,0-0.3,0.199-0.9c0-0.1,0.101-0.2,0.2-0.3c-1.1,0.2-2.2,0.5-3.1,0.8C107,6.4,107,6.5,107,6.5v0.1c0,0.1,0.301,1,0.7,2.8
		c0.8,1.7,2.101,2.5,4,2.5c2.3,0,3.9-0.4,4.9-1.4c0.6-0.7,0.899-1.5,0.899-2.4c0-0.6-0.699-1.9-2.199-3.7c0-0.1-0.101-0.2-0.101-0.3
		C114,4.4,113,4.6,112,4.9C112,4.9,112.2,5,112.2,5.1z"/>
	<path fill="#A78952" d="M107,15.1c0.101,0.1,0.101,0.2,0.101,0.3c4.7-1,9.7-1.8,15.2-2.3c-0.7,9.3-2.5,16.4-5.301,21.6
		c3-5.2,4.801-12.5,5.601-21.9C117,13.3,111.8,14.1,107,15.1z"/>
	<path fill="#806A50" d="M102.3,16.2c1.5-0.3,3.1-0.7,4.699-1.1c-0.1-0.6-0.5-1.2-1.3-2.1c-1.2-1.2-2.399-1.5-3.899-0.9
		c-3.601,1.6-5.5,3.3-5.5,5.1L96.5,18c0.801-0.3,1.601-0.5,2.4-0.8c0.3-0.4,0.7-0.8,1.1-1.2c0.7-0.5,1.301-0.9,1.9-1.1
		C102,15.4,102.1,15.8,102.3,16.2z"/>
	<path fill="#A78952" d="M102.3,16.2c-0.2-0.4-0.301-0.8-0.4-1.3c-0.6,0.2-1.2,0.6-1.9,1.1c-0.399,0.4-0.8,0.8-1.1,1.2
		C100,16.9,101.2,16.5,102.3,16.2z"/>
	<path fill="#A78952" d="M102.5,16.5c-0.1,0-0.199-0.1-0.199-0.3c-1.101,0.3-2.301,0.7-3.4,1c-0.1,0.2-0.1,0.3-0.2,0.4
		C99.9,17.2,101.2,16.9,102.5,16.5z"/>
	<path fill="#806A50" d="M93.5,10.9c0,0.1,0,0.1,0.101,0.2c0.8,0.7,1.899,1,3.2,1c1.199,0,2.199-0.5,2.8-1.4
		c0.399-0.7,0.6-1.2,0.6-1.9V8.6c0-0.1,0-0.2,0-0.2C97.8,9.1,95.6,10,93.5,10.9z"/>
	<path fill="#806A50" d="M90.6,15.6c-0.7-1-1.601-1.2-2.8-0.9c-1.301,0.6-2.301,1-3.101,1.2C84,16,83.5,16.5,83,17.4
		c-0.399,0.9-0.699,1.5-0.8,1.7c-0.399,0.8-1,1.6-1.7,2.3C80.3,21.7,80.1,22.2,80.1,22.9c0,1.3,0.8,2,2.399,2.3
		c2.5-1.8,5.4-3.5,8.7-5c0.101-0.3,0.101-0.7,0.101-1v-1.4C91.2,17.4,91,16.6,90.6,15.6z M85.8,22.1l-1-0.2
		C85,21.4,85.5,20.7,86,20.1c0.7-0.6,1-1.1,1.101-1.2c0.5,0.3,0.899,0.5,1.2,0.6c-0.301,0.5-0.7,1-0.9,1.3
		C87,21.4,86.5,21.9,85.8,22.1z"/>
	<path fill="#A78952" d="M84.8,21.9l1,0.2c0.699-0.2,1.199-0.7,1.6-1.3c0.2-0.3,0.6-0.8,0.9-1.3c-0.301-0.1-0.7-0.3-1.2-0.6
		C87,19,86.7,19.5,86,20.1C85.5,20.7,85,21.4,84.8,21.9z"/>
	<path fill="#A78952" d="M91.2,20.2c-0.1,0-0.1,0.2-0.2,0.3c1.801-0.8,3.601-1.6,5.601-2.3c0,0,0,0-0.101-0.1V18
		C94.6,18.7,92.8,19.4,91.2,20.2z"/>
	<path fill="#A78952" d="M82.7,25.2c-0.1,0-0.2,0-0.2,0c-0.5,0.4-1,0.8-1.5,1.3c0,0,0,0,0.101,0C81.6,26,82.2,25.7,82.7,25.2z"/>
	<path fill="#806A50" d="M91,43.2c0.101,0.2,0.2,0.4,0.301,0.5c0,0.2,0.199,0.2,0.199,0.4c0.5,0.899,1.101,1.6,1.801,2
		c1.899,1.3,4.1,2.3,6.6,3.199c0.1,0,0.1,0,0.1,0c1.101,0.2,2.2,0.2,3.2,0.2c0.7-0.3,1.3-0.899,1.8-1.8c0.801-1,1.101-1.9,1.101-2.7
		c0-0.5-0.101-1-0.101-1.399c-0.1-0.101-0.1-0.2-0.1-0.2c-1.3,0.3-2.4,0.5-3.7,0.6l0.3,0.4L103,45c-0.399,0.7-0.699,1.101-1,1.101
		c-0.1,0-1.5-0.5-4.199-1.4c-0.4-0.2-0.801-0.3-1.2-0.5C94.8,44.101,92.9,43.8,91,43.2z"/>
	<path fill="#806A50" d="M86.3,41.5C85.2,40.9,84,40.4,83,39.7c0,0.2-0.1,0.2-0.199,0.4c-0.301,0.8-0.7,1.1-1,1.1
		c-0.301,0-0.5,0-0.5,0L81.2,41c0.101-0.6-0.1-1.3-0.399-2.1c0-0.101,0-0.101,0-0.2C80.7,38.5,80.6,38.2,80.5,38
		c-1-0.7-2.1-1.5-3.199-2.5c0,0.101,0,0.2,0,0.3c0,0.101,0,0.101,0.1,0.4c0.1,0.6,0.4,2,0.9,4.3v0.2c1.899,1.4,3.899,2.7,5.899,3.8
		c0.601-0.399,1-1,1.4-1.7c0.2-0.3,0.399-0.6,0.5-0.899C86.2,41.7,86.2,41.601,86.3,41.5z"/>
	<path fill="#A78952" d="M81.8,41.2c0.3,0,0.699-0.3,1-1.1c-0.601-0.4-1.301-0.9-2-1.4c0,0.1,0,0.1,0,0.2c0.3,0.8,0.5,1.5,0.399,2.1
		l0.101,0.2C81.3,41.2,81.5,41.2,81.8,41.2z"/>
	<path fill="#A78952" d="M86.1,41.9C86,42.2,85.8,42.5,85.6,42.8c-0.4,0.7-0.8,1.301-1.4,1.7C89,47,94.3,48.601,99.9,49.3
		c-2.5-0.899-4.7-1.899-6.6-3.199C92.6,45.7,92,45,91.5,44.101c0-0.2-0.199-0.2-0.199-0.4C89.5,43.3,87.8,42.7,86.1,41.9z"/>
	<path fill="#A78952" d="M84.2,44.5c-0.2,0-0.2,0.2-0.399,0.2c4.8,2.6,10.199,4.2,16,5c0.5,0,1,0,1.5,0.1c-0.5-0.1-1-0.3-1.4-0.5
		C94.3,48.601,89,47,84.2,44.5z"/>
	<path fill="#806A50" d="M100,49.3c0,0,0,0-0.1,0c0.4,0.2,0.9,0.4,1.4,0.5c0.199,0,0.199,0,0.3,0.101c0.2,0,0.399,0,0.6,0
		c0.3-0.101,0.601-0.2,1-0.4C102.2,49.5,101.1,49.5,100,49.3z"/>
	<path fill="#806A50" d="M117,34.7L117,34.7c-0.5,0.2-0.899,0.6-1.199,1.4c-0.301,0.8-0.801,1.6-1.5,2.399
		C115.3,37.4,116.2,36.101,117,34.7z"/>
	<path fill="#806A50" d="M118.3,35c-0.4-0.3-0.801-0.399-1.301-0.3c-0.8,1.4-1.699,2.7-2.699,3.8c0,0-0.101,0.2-0.2,0.2l0,0
		C114,38.8,114,38.9,114,38.9c-0.199,0.1-0.199,0.2-0.399,0.3c-0.4,0.6-0.601,1.3-0.601,1.9c0,0.1,0.2,0.399,0.5,1.1
		c0.5,0.7,1.301,1,2.301,1c1.199,0,2.5-1.8,4.199-5.5C120,36.601,119.4,35.7,118.3,35z"/>
	<path fill="#A78952" d="M103.2,49.5c-0.399,0.2-0.7,0.3-1,0.4c7.101,0.2,12.8-2.5,17-8.101C115.2,46.9,109.8,49.5,103.2,49.5z"/>
	<path fill="#A78952" d="M102,46.101c0.301,0,0.601-0.4,1-1.101l-0.5-0.6c-1.699,0.2-3.199,0.3-4.699,0.3
		C100.5,45.601,101.9,46.101,102,46.101z"/>
	<path fill="#806A50" d="M48.3,17.2c-0.5-0.9-1-1.4-1.7-1.5c-0.8-0.2-1.8-0.6-3.1-1.2c-1.2-0.4-2.1,0-2.8,0.9
		c-0.4,1-0.6,1.8-0.7,2.2V19c0,0.3,0,0.7,0.2,1c3.2,1.5,6.1,3.2,8.6,5c1.6-0.3,2.4-1,2.4-2.3c0-0.7-0.2-1.2-0.4-1.5
		c-0.7-0.7-1.3-1.5-1.7-2.3C49,18.7,48.7,18.1,48.3,17.2z M43.9,20.6c-0.3-0.3-0.6-0.7-0.9-1.4c0.3,0,0.6-0.2,1.2-0.5
		c0.1,0.2,0.4,0.5,1.1,1.2c0.5,0.6,1,1.3,1.2,1.8l-1,0.2C44.8,21.7,44.3,21.2,43.9,20.6z"/>
	<path fill="#A78952" d="M43,19.2c0.3,0.7,0.6,1.1,0.9,1.4c0.4,0.6,0.9,1.1,1.6,1.3l1-0.2c-0.2-0.5-0.7-1.2-1.2-1.8
		c-0.7-0.7-1-1-1.1-1.2C43.6,19,43.3,19.2,43,19.2z"/>
	<path fill="#A78952" d="M46.6,15.7c0.7,0.1,1.2,0.6,1.7,1.5c0.4,0.9,0.7,1.5,0.8,1.7c0.4,0.8,1,1.6,1.7,2.3
		c0.2,0.3,0.4,0.8,0.4,1.5c0,1.3-0.8,2-2.4,2.3c0.5,0.4,1,0.8,1.5,1.2c0.7-0.3,1.5-0.5,2.3-0.7c3.2-0.4,4.9,1,4.9,4.2
		c0,0.5-0.4,0.8-1,1.2c-0.4,0.1-0.8,0.3-1.3,0.399c0.2,0.2,0.4,0.601,0.6,0.9c0.2,0.3,0.5,0.5,0.7,0.8c0.1-1.5,1-2.6,2.8-3.6
		c0,0,0,0,0.1-0.101c-0.4-0.8-0.8-1.399-1.1-2.199l-4-5.601c-1.8-2.1-3.7-3.8-5.8-5.1c-3.2-2-6.8-3.9-10.8-5.5c-0.8,0.6-1.9,1-3.2,1
		c-1.2,0-2.2-0.4-2.8-1.4c-0.4-0.6-0.6-1.2-0.6-1.9c0-0.1,0-0.1,0-0.2c-0.1,0-0.3-0.1-0.5-0.1c-1.8-0.7-4-1.4-6.3-2
		c0,0.1,0,0.1,0,0.2c0,0-0.3,1-0.7,2.7c-0.8,1.7-2.1,2.6-4,2.6c-2.3,0-4-0.5-4.9-1.5c-0.6-0.7-0.9-1.4-0.9-2.4
		c0-0.6,0.7-1.9,2.2-3.8c-2.6-0.6-5.4-1.2-8.4-1.8C7.5,2.4,7.5,2.6,7.5,2.9c-0.3,0.9-1,1.4-1.9,1.4C5.3,4.3,5.1,4.1,4.8,4
		C4.4,3.9,4.1,3.8,3.9,3.8C2.5,3.8,1.5,3.6,1,3.3C1.5,7.5,2.2,11.4,2.9,15c0.6,0.2,1.2,0.5,2.1,1c2.5,1.8,3.7,3.5,3.7,5l-1,6.3
		c0,0.2,0.4,0.9,1.3,2.2c0.8,1.2,1.2,2.2,1.2,3c0,0.4-0.1,0.9-0.4,1.3c-0.3,0.601-0.7,1-1.3,1.101c0.9,2.1,1.8,4,2.8,5.6
		c0.3,0.3,0.6,0.7,0.9,1.101c4,5.1,9.3,7.8,15.9,7.699c-0.7-0.399-1.3-0.899-1.8-1.8c-0.8-1-1.1-1.899-1.1-2.7
		c0-0.5,0.1-0.899,0.1-1.399c-0.4-0.2-0.8-0.2-1.3-0.4c-2.4-0.8-4.5-2.1-6.4-4c0.5,0.601,0.7,1.2,0.7,1.9c0,0-0.1,0.399-0.5,1.1
		c-0.5,0.7-1.3,1-2.3,1c-1.2,0-2.5-1.8-4.2-5.5c0-1.1,0.6-2,1.7-2.7c0.4-0.3,0.8-0.399,1.3-0.3c-3-5.1-4.8-12.5-5.6-22
		c5.6,0.6,10.8,1.4,15.6,2.4c0.1-0.5,0.5-1.3,1.3-2c1.2-1.3,2.4-1.6,3.9-1c3.6,1.6,5.5,3.3,5.5,5.1l-0.2,0.9
		c1.8,0.6,3.7,1.3,5.4,2.1C40,19.7,40,19.3,40,19v-1.4c0.1-0.4,0.3-1.2,0.7-2.2c0.7-0.9,1.6-1.3,2.8-0.9
		C44.8,15.1,45.8,15.5,46.6,15.7z M13,9.2c0,0.6-0.2,1-0.3,1.2c-0.5,0.6-1.7,1-3.6,1c-1.5,0-2.6-0.5-3.4-1.5C5.2,9.3,5,8.8,5,8.2
		c0-2.7,1.3-3.9,4-3.3C11.6,5.4,13,6.9,13,9.2z"/>
	<path fill="#806A50" d="M12.7,10.4c0.1-0.2,0.3-0.6,0.3-1.2c0-2.3-1.4-3.8-4-4.3C6.3,4.3,5,5.5,5,8.2c0,0.6,0.2,1.1,0.7,1.7
		c0.8,1,1.9,1.5,3.4,1.5C11,11.4,12.2,11,12.7,10.4z M9.6,8.8c-0.1,0-0.4,0-0.8,0c-0.3,0-0.7-0.1-1.1-0.3c0.1-0.2,0.1-0.6,0.1-1.2
		C8,7.2,8.4,7.3,9,7.5C9.5,7.6,9.8,7.9,10,8v0.2C10,8.5,9.8,8.7,9.6,8.8z"/>
	<path fill="#A78952" d="M8.8,8.8c0.4,0,0.7,0,0.8,0C9.8,8.7,10,8.5,10,8.2V8C9.8,7.9,9.5,7.6,9,7.5C8.4,7.3,8,7.2,7.8,7.3
		c0,0.6,0,1-0.1,1.2C8.1,8.7,8.5,8.8,8.8,8.8z"/>
	<path fill="#A78952" d="M48.8,25h-0.2c0.6,0.5,1.1,0.9,1.6,1.3c0.1-0.1,0.1-0.1,0.1-0.1C49.8,25.8,49.3,25.4,48.8,25z"/>
	<path fill="#806A50" d="M56.5,30.9c0.6-0.4,1-0.7,1-1.2c0-3.2-1.7-4.6-4.9-4.2c-0.8,0.2-1.6,0.4-2.3,0.7c1.9,1.6,3.5,3.3,4.9,5.1
		C55.7,31.2,56.1,31,56.5,30.9z"/>
	<path fill="#A78952" d="M59.5,29.3c-0.5-0.8-0.9-1.5-1.2-2.199c0.3,0.8,0.7,1.399,1.1,2.199H59.5z"/>
	<path fill="#A78952" d="M59.5,29.3L59.4,29.4c1.6,0.6,2.1,1.5,1.4,2.3c-0.6,0.9-1,1.6-1,2.2c0,0.5,0,0.899-0.1,1.1
		c3.6-2.6,6.9-3,10.101-1.2l0,0c0.6,0.4,1.1,0.9,1.5,1.2c0.199-0.1,0.199-0.399,0.1-0.899s-0.4-1.2-1.1-1.9c0,0,0,0-0.101,0
		c-0.6,0-0.899-0.3-1.1-0.7L69,30.9c0-0.601,0.4-0.9,1.2-0.7c0.2,0,0.4,0,0.601,0.1C71,30,71.5,29.8,71.9,29.5h-0.1
		C68,27.2,63.9,27.2,59.5,29.3z M67.8,30.2c0,0.5-0.101,0.8-0.301,1c-0.399,0.2-1.5,0.3-3.2,0.3c-0.8,0-1.3-0.3-1.7-0.899l-0.3-0.7
		c0-0.9,1-1.3,2.8-1.4C67,28.4,67.8,28.9,67.8,30.2z"/>
	<path fill="#806A50" d="M67.5,31.2c0.2-0.2,0.301-0.5,0.301-1c0-1.3-0.801-1.8-2.7-1.7c-1.8,0.101-2.8,0.5-2.8,1.4l0.3,0.7
		c0.4,0.6,0.9,0.899,1.7,0.899C66,31.5,67.1,31.4,67.5,31.2z"/>
	<path fill="#806A50" d="M59.4,29.4V29.3C59.3,29.4,59.3,29.4,59.3,29.4c-1.8,1-2.7,2.1-2.8,3.6c0,0.2,0,0.3,0,0.5v0.2l3.2,1.3
		c0.1-0.2,0.1-0.6,0.1-1.1c0-0.601,0.4-1.3,1-2.2C61.5,30.9,61,30,59.4,29.4z"/>
	<path fill="#806A50" d="M54,35.601c0-0.101,0-0.2,0-0.2c-1.1,0.8-2.2,1.7-3.2,2.5c-0.1,0.1-0.2,0.399-0.3,0.6
		c0,0.101,0,0.101,0,0.2c-0.3,0.8-0.5,1.5-0.4,2.1L50,40.9c0,0.1-0.2,0.1-0.5,0.1c-0.3,0-0.7-0.3-1-1.1c-0.1-0.2-0.2-0.2-0.2-0.4
		c-1,0.7-2.1,1.2-3.3,1.7c0.1,0.2,0.2,0.3,0.2,0.5c0.1,0.2,0.3,0.5,0.5,0.9c0.4,0.8,0.8,1.3,1.4,1.6c2.1-1,4-2.3,5.9-3.7
		c0,0,0-0.1,0-0.2c0.5-2.3,0.8-3.699,0.9-4.399C54,35.7,54,35.7,54,35.601z"/>
	<path fill="#A78952" d="M59.7,35c-0.9,0.9-1.8,1.5-2.5,2.2c-1.4,1-2.3,1.7-2.7,2.1c-0.5,0.4-1,0.801-1.5,1.2
		c-0.1,0.2-0.2,0.5-0.3,0.7c0.7-0.5,1.4-1,2.1-1.5c0.5-0.5,1.4-1.2,2.4-2c-0.1-0.1,0.3-0.5,1-1.2C58.7,36.2,59.2,35.7,59.7,35z"/>
	<path fill="#A78952" d="M57.2,37.2c0.7-0.7,1.6-1.3,2.5-2.2l-3.2-1.3c-0.9,0.8-1.7,1.5-2.6,2.2c-0.1,0.7-0.4,2.1-0.9,4.399
		c0,0.101,0,0.2,0,0.2c0.5-0.399,1-0.8,1.5-1.2C54.9,38.9,55.8,38.2,57.2,37.2z"/>
	<path fill="#A78952" d="M50.5,38.7c0-0.1,0-0.1,0-0.2c-0.7,0.5-1.3,1-2,1.4c0.3,0.8,0.7,1.1,1,1.1c0.3,0,0.5,0,0.5-0.1l0.1-0.101
		C50,40.2,50.2,39.5,50.5,38.7z"/>
	<path fill="#A78952" d="M45.7,42.601c-0.2-0.4-0.4-0.7-0.5-0.9c-1.7,0.8-3.4,1.4-5.2,1.8c0,0.2-0.2,0.2-0.2,0.4
		c-0.5,0.899-1.2,1.6-1.8,2c-1.9,1.3-4.1,2.3-6.6,3.2c5.6-0.7,10.9-2.301,15.7-4.9C46.5,43.9,46.1,43.4,45.7,42.601z"/>
	<path fill="#A78952" d="M47.5,44.5c-0.2,0-0.2-0.1-0.4-0.3c-4.8,2.6-10.1,4.2-15.7,4.9c-0.4,0.1-0.9,0.399-1.4,0.5
		c0.5-0.101,1-0.101,1.5-0.101C37.3,48.7,42.6,47.101,47.5,44.5z"/>
	<path fill="#806A50" d="M81,26.5c-0.699-0.399-1.5-0.6-2.3-0.8c-3.2-0.4-4.899,1-4.899,4.2c0,0.5,0.399,0.8,1,1.2
		c0.399,0.1,0.8,0.3,1.3,0.399C77.5,29.7,79.1,28,81,26.5z"/>
	<path fill="#A78952" d="M71.8,29.5h0.1c0.4-0.8,0.7-1.5,1.2-2.2C72.6,28,72.3,28.7,71.8,29.5z"/>
	<path fill="#806A50" d="M71.9,29.5L71.9,29.5c-0.4,0.3-0.9,0.5-1.1,0.8c-0.2-0.1-0.4-0.1-0.601-0.1C69.4,30,69,30.3,69,30.9
		l0.101,0.6c0.2,0.4,0.5,0.7,1.1,0.7c0.101,0,0.101,0,0.101,0c0.699,0.7,1,1.4,1.1,1.9s0.1,0.8-0.1,0.899
		c0.1,0.101,0.199,0.2,0.3,0.2l5.8,1l-2.6-2.5c0-0.2,0-0.3,0-0.5c-0.101-1.5-1-2.7-2.801-3.6C72,29.5,72,29.5,71.9,29.5z"/>
	<path fill="#A78952" d="M71.6,35.2c0.899,0.8,1.8,1.5,2.6,2.2c1.3,1.1,2.2,1.8,2.601,2.1c0.5,0.4,1,0.8,1.5,1.2v-0.2
		c-0.5-2.3-0.801-3.7-0.9-4.3L71.6,35.2z"/>
	<path fill="#A78952" d="M74.2,37.4c-0.8-0.7-1.7-1.4-2.6-2.2l-0.4,0.3c0.8,0.4,1.4,0.9,1.9,1.2c0.7,0.7,1.1,1.1,1.1,1.2
		c1,0.8,1.8,1.5,2.3,2c0.7,0.5,1.4,1,2.101,1.6c-0.101-0.3-0.2-0.6-0.3-0.8c-0.5-0.4-1-0.8-1.5-1.2C76.4,39.2,75.5,38.5,74.2,37.4z"
		/>
	<path fill="#A78952" d="M69.8,33.8L69.8,33.8C69.7,33.9,69.6,34,69.6,34.2c0.6,0.4,1,0.8,1.6,1.3c0-0.2,0.101-0.3,0.101-0.5
		C70.9,34.7,70.4,34.2,69.8,33.8z"/>
	<path fill="#806A50" d="M31.1,8.1c0,0.1,0,0.2,0,0.3c0,0.1,0,0.1,0,0.2c0,0.7,0.2,1.3,0.6,1.9c0.6,1,1.6,1.4,2.8,1.4
		c1.3,0,2.4-0.4,3.2-1c0.1,0,0.1-0.1,0.1-0.1C35.7,9.8,33.5,8.9,31.1,8.1z"/>
	<path fill="#806A50" d="M24.2,6c-0.9-0.2-2-0.5-3-0.8c0,0.1,0.1,0.2,0.1,0.3c0.2,0.5,0.2,0.9,0.2,0.9c0,0.4,0,0.5,0,0.6
		c-0.1,0.2-0.3,0.3-0.6,0.3l-2.4-0.2v-1c0.1-0.4,0.3-0.8,0.6-1.2c0.1,0,0.2-0.1,0.2-0.2c-1-0.2-2-0.5-3.1-0.8C16.1,4,16,4.1,16,4.1
		c-1.5,1.9-2.2,3.2-2.2,3.8c0,1,0.3,1.7,0.9,2.4c0.9,1,2.6,1.5,4.9,1.5c1.9,0,3.2-0.9,4-2.6c0.4-1.7,0.7-2.7,0.7-2.7
		c0-0.1,0-0.1,0-0.2C24.3,6.3,24.3,6.1,24.2,6z"/>
	<path fill="#A78952" d="M21.5,6.4c0,0,0-0.4-0.2-0.9c-0.7-0.2-1.5-0.4-2.2-0.6c-0.3,0.4-0.5,0.8-0.6,1.2v1l2.4,0.2
		c0.3,0,0.5-0.1,0.6-0.3C21.5,6.9,21.5,6.8,21.5,6.4z"/>
	<path fill="#A78952" d="M29,16c0,0.2-0.1,0.2-0.2,0.3c1.4,0.4,2.6,0.7,3.8,1.1c-0.1-0.2-0.1-0.2-0.2-0.4C31.3,16.7,30.2,16.4,29,16
		z"/>
	<path fill="#A78952" d="M24.2,15.2c0-0.1,0-0.2,0.1-0.3c-4.8-1-10-1.8-15.6-2.4c0.8,9.5,2.6,16.9,5.6,22l0,0
		C11.5,29.4,9.7,22.2,9,12.9C14.5,13.5,19.5,14.2,24.2,15.2z"/>
	<path fill="#806A50" d="M29,16c0.2-0.4,0.3-0.8,0.4-1.4c0.6,0.3,1.2,0.6,1.9,1.2c0.4,0.4,0.8,0.8,1.1,1.2c0.8,0.3,1.6,0.5,2.4,0.9
		L35,17c0-1.8-1.9-3.5-5.5-5.1c-1.5-0.6-2.7-0.3-3.9,1c-0.8,0.7-1.2,1.5-1.3,2C25.9,15.2,27.5,15.7,29,16z"/>
	<path fill="#A78952" d="M29.4,14.6c-0.1,0.6-0.2,1-0.4,1.4c1.2,0.4,2.3,0.7,3.4,1c-0.3-0.4-0.7-0.8-1.1-1.2
		C30.6,15.2,30,14.9,29.4,14.6z"/>
	<path fill="#A78952" d="M34.8,17.9L34.8,17.9c-0.1,0-0.1,0.1-0.2,0.1c2,0.7,3.9,1.5,5.7,2.2c-0.1,0-0.1-0.2-0.1-0.2
		C38.5,19.2,36.6,18.5,34.8,17.9z"/>
	<path fill="#806A50" d="M7.5,2.9c0-0.3,0-0.5,0.1-0.6c0-0.2,0-0.3,0-0.3C7,1.9,6.3,1.7,5.5,1.5c0,0.1,0,0.1,0,0.1
		c-0.1,0-0.2-0.1-0.2-0.1c-1.5-0.4-3.1-0.6-4.8-1c0,0,0,0.1,0,0.2c0.1,0.8,0.2,1.6,0.3,2.4L1,3.3c0.5,0.3,1.5,0.5,2.9,0.5
		c0.2,0,0.5,0.1,0.9,0.2c0.3,0.1,0.5,0.3,0.8,0.3C6.5,4.3,7.2,3.8,7.5,2.9z"/>
	<path fill="#806A50" d="M0.8,3.1C0.7,2.3,0.6,1.5,0.5,0.7c0,0.2,0,0.3,0,0.6C0.5,2.3,0.5,2.9,0.8,3.1z"/>
	<path fill="#806A50" d="M2.9,15c-0.1,0-0.1,0-0.2,0c1.6,8.4,3.5,15,5.6,20c0.1-0.1,0.1-0.1,0.2-0.1c0.6-0.101,1-0.5,1.3-1.101
		c0.3-0.399,0.4-0.899,0.4-1.3c0-0.8-0.4-1.8-1.2-3c-0.9-1.3-1.3-2-1.3-2.2l1-6.3c0-1.5-1.2-3.2-3.7-5C4.1,15.5,3.5,15.2,2.9,15z
		 M5.7,21.2c0,0.3-0.2,0.9-0.4,1.5c-0.5-0.8-0.8-1.5-1-2c-0.5-1-0.6-1.6-0.5-2C4.5,19.4,5,19.8,5.2,20C5.5,20.5,5.7,20.8,5.7,21.2z"
		/>
	<path fill="#A78952" d="M5.3,22.7c0.2-0.6,0.4-1.2,0.4-1.5c0-0.4-0.2-0.7-0.5-1.2c-0.2-0.2-0.7-0.6-1.4-1.3c-0.1,0.4,0,1,0.5,2
		C4.5,21.2,4.8,21.9,5.3,22.7z"/>
	<path fill="#806A50" d="M13,34.8c-1.1,0.7-1.7,1.601-1.7,2.7c1.7,3.7,3,5.5,4.2,5.5c1,0,1.8-0.3,2.3-1c0.4-0.7,0.5-1.1,0.5-1.1
		c0-0.7-0.2-1.3-0.7-1.9c-0.1-0.1-0.1-0.2-0.3-0.3c0,0,0-0.1,0-0.2h-0.1c0,0-0.2-0.1-0.2-0.2c-1-1.1-1.9-2.399-2.7-3.8
		C13.8,34.4,13.4,34.5,13,34.8z"/>
	<path fill="#806A50" d="M14.3,34.5L14.3,34.5c0.8,1.4,1.7,2.7,2.7,3.8c-0.7-0.8-1.2-1.6-1.5-2.399C15.2,35.101,14.8,34.7,14.3,34.5
		L14.3,34.5z"/>
	<path fill="#806A50" d="M25.4,43.2c0,0,0,0.1-0.1,0.2c0,0.5-0.1,0.899-0.1,1.399c0,0.801,0.3,1.7,1.1,2.7c0.5,0.9,1.1,1.4,1.8,1.8
		c1.1,0,2.1-0.1,3.2-0.199c0,0,0,0,0.1,0c2.5-0.9,4.7-1.9,6.6-3.2c0.6-0.4,1.3-1.101,1.8-2c0-0.2,0.2-0.2,0.2-0.4
		c0.1-0.1,0.2-0.3,0.3-0.5c-1.9,0.601-3.8,0.9-5.6,1c-0.4,0.2-0.8,0.3-1.2,0.5c-2.7,0.9-4.1,1.4-4.2,1.4c-0.3,0-0.6-0.4-1-1.101
		l0.5-0.6l0.3-0.3C27.8,43.7,26.6,43.5,25.4,43.2z"/>
	<path fill="#806A50" d="M28.1,49.3c0.4,0.2,0.7,0.301,1.1,0.4c0.1,0,0.3,0,0.5,0c0.1-0.1,0.1-0.1,0.3-0.1c0.5-0.101,1-0.4,1.4-0.5
		c-0.1,0-0.1,0-0.1,0C30.2,49.2,29.2,49.3,28.1,49.3z"/>
	<path fill="#A78952" d="M29.2,49.7c-0.4-0.1-0.7-0.2-1.1-0.4c-6.6,0.101-11.9-2.6-15.9-7.699C16.3,47.2,22,49.9,29.2,49.7z"/>
	<path fill="#A78952" d="M28.8,44.2l-0.5,0.6c0.4,0.7,0.7,1.101,1,1.101c0.1,0,1.5-0.5,4.2-1.4C32,44.5,30.5,44.4,28.8,44.2z"/>
	<path fill="none" stroke="#806A50" stroke-linecap="round" stroke-linejoin="round" d="M71.6,35.2c0.899,0.8,1.8,1.5,2.6,2.2
		c1.3,1.1,2.2,1.8,2.601,2.1c0.5,0.4,1,0.8,1.5,1.2c1.899,1.4,3.899,2.7,5.899,3.8C89,47,94.3,48.601,99.9,49.3c0.1,0,0.1,0,0.1,0
		c1.101,0.2,2.2,0.2,3.2,0.2c6.601,0,12-2.6,16-7.7c0.3-0.5,0.601-1,1-1.5c1-1.399,1.9-3.1,2.8-5.1c2.101-5,4-11.7,5.601-20
		c0.7-3.7,1.399-7.7,1.899-11.9c0.101-0.8,0.2-1.6,0.301-2.4c0-0.1,0-0.2,0-0.3c0,0,0,0,0,0.1C129.2,1,127.5,1.4,126,1.7
		c-0.1,0-0.199,0-0.199,0.1C125,1.9,124.3,2,123.6,2.2c-3,0.7-5.8,1.3-8.4,1.9C114,4.4,113,4.6,112,4.9C111.3,5,110.8,5.3,110.2,5.4
		c-1.1,0.2-2.2,0.5-3.1,0.8c-2.3,0.7-4.3,1.3-6.2,1.9c-0.3,0-0.4,0.2-0.7,0.3c-2.399,0.7-4.6,1.6-6.7,2.5
		c-3.899,1.6-7.3,3.4-10.5,5.3c-2.199,1.4-4.199,3.2-6,5.5L73.1,27.3c-0.5,0.7-0.8,1.4-1.2,2.2l0,0"/>
	<path fill="none" stroke="#806A50" stroke-linecap="round" stroke-linejoin="round" d="M102.3,16.2c-1.101,0.3-2.301,0.7-3.4,1
		c-0.8,0.3-1.6,0.5-2.4,0.8c-1.899,0.7-3.699,1.4-5.3,2.2c-3.3,1.5-6.2,3.2-8.7,5c-0.5,0.4-1,0.8-1.5,1.3
		c-1.899,1.5-3.5,3.2-4.899,5c-0.3,0.2-0.5,0.5-0.601,0.9C75.3,32.7,75,32.9,74.8,33.2c0.899,0.8,1.699,1.6,2.5,2.3
		c1.1,1,2.199,1.8,3.199,2.5c0.801,0.7,1.7,1.2,2.5,1.7c1,0.7,2.2,1.2,3.301,1.8c1.5,0.7,3.199,1.3,4.699,1.7
		c1.9,0.6,3.801,0.9,5.601,1c1.899,0.2,3.7,0.1,5.6-0.2c1.3-0.1,2.4-0.3,3.7-0.6c0.6-0.2,1.1-0.4,1.6-0.5c2.5-0.8,4.7-2.2,6.601-4.2
		l0,0c0.1,0,0.2-0.2,0.2-0.2c1-1.1,1.899-2.399,2.699-3.8c3-5.2,4.801-12.5,5.601-21.9C117,13.3,111.8,14.1,107,15.1
		C105.4,15.5,103.8,15.9,102.3,16.2"/>
	<path fill="none" stroke="#806A50" stroke-linecap="round" stroke-linejoin="round" d="M59.4,29.3c-0.4-0.8-0.8-1.399-1.1-2.199
		l-4-5.601c-1.8-2.3-3.8-4.1-6-5.5c-3.1-1.9-6.6-3.6-10.5-5.2c-2.1-1-4.3-1.9-6.7-2.7c-0.3-0.1-0.5-0.2-0.7-0.2
		c-1.9-0.6-3.9-1.3-6.2-1.9c-0.9-0.2-2-0.5-3-0.8C20.5,5,20,4.9,19.3,4.7c-1-0.2-2-0.5-3.1-0.8C13.5,3.3,10.7,2.6,7.6,2
		C7,1.9,6.3,1.7,5.5,1.5c0,0-0.1,0-0.2,0c-1.5-0.4-3.1-0.6-4.8-1l0,0c0,0,0,0.1,0,0.2c0.1,0.8,0.2,1.6,0.3,2.4
		C1.3,7.4,2,11.4,2.7,15c1.6,8.4,3.5,15,5.6,20c0.9,1.9,1.9,3.7,2.8,5.101c0.4,0.5,0.7,1,1.1,1.5c4,5.1,9.3,7.8,15.9,7.699
		c1.1,0,2.1-0.1,3.2-0.199c0,0,0,0,0.1,0c5.6-0.7,10.9-2.301,15.7-4.9c2.1-1,4-2.3,5.9-3.7c0.5-0.399,1-0.8,1.5-1.2
		c0.4-0.399,1.3-1.1,2.7-2.1c0.7-0.7,1.6-1.3,2.5-2.2c3.6-2.6,6.9-3,10.101-1.2l0,0c0.6,0.4,1.1,0.9,1.5,1.2"/>
	<path fill="none" stroke="#806A50" stroke-linecap="round" stroke-linejoin="round" d="M59.4,29.3h0.1c4.4-2.1,8.5-2.1,12.3,0.2"/>
	<line fill="none" stroke="#806A50" stroke-linecap="round" stroke-linejoin="round" x1="59.4" y1="29.4" x2="59.4" y2="29.3"/>
	<path fill="none" stroke="#806A50" stroke-linecap="round" stroke-linejoin="round" d="M55.8,32.2c0.2,0.3,0.5,0.5,0.7,0.8
		c-0.9,0.9-1.7,1.601-2.5,2.4c-1.1,0.8-2.2,1.7-3.2,2.5c-0.8,0.6-1.6,1.1-2.5,1.6c-1,0.7-2.1,1.2-3.3,1.7c-1.5,0.8-3.2,1.4-4.7,1.8
		c-1.9,0.601-3.8,0.9-5.6,1c-1.9,0.2-3.7,0.101-5.6-0.1c-1.3-0.2-2.5-0.4-3.7-0.7c-0.6-0.2-1.1-0.4-1.6-0.5
		c-2.5-0.8-4.7-2.2-6.5-4.2h-0.1c0,0-0.2-0.1-0.2-0.2c-1-1.1-1.9-2.399-2.7-3.8c-3-5.1-4.8-12.5-5.6-22c5.6,0.6,10.8,1.4,15.6,2.4
		c1.6,0.3,3.2,0.8,4.7,1.1c1.2,0.4,2.3,0.7,3.4,1c0.8,0.3,1.6,0.5,2.4,0.9c1.8,0.6,3.7,1.3,5.4,2.1c3.2,1.5,6.1,3.2,8.6,5
		c0.5,0.4,1,0.8,1.5,1.2c1.9,1.6,3.5,3.3,4.9,5.1C55.4,31.5,55.6,31.9,55.8,32.2"/>
</g>
<g>
	<path fill="#FFF200" d="M123.5,8.4c0-0.6-0.199-1.1-0.6-1.5c-0.4-0.5-0.9-0.7-1.6-0.7c-0.5,0-1,0.2-1.5,0.7
		c-0.5,0.4-0.601,0.9-0.601,1.5c0,0.6,0.101,1.1,0.601,1.5c0.5,0.5,1,0.7,1.5,0.7c0.699,0,1.199-0.2,1.6-0.7
		C123.3,9.5,123.5,9,123.5,8.4z"/>
	<path fill="#FFF200" d="M9.2,8.1C9.2,7.5,9,7,8.5,6.5C8.1,6.1,7.6,5.9,7,5.9S5.9,6.1,5.5,6.5C5,7,4.8,7.5,4.8,8.1S5,9.2,5.5,9.6
		c0.4,0.5,0.9,0.7,1.5,0.7s1.1-0.2,1.5-0.7C9,9.2,9.2,8.7,9.2,8.1z"/>
</g>
</svg>
