<?xml version="1.0" encoding="utf-8"?>
<!-- Generator: Adobe Illustrator 13.0.0, SVG Export Plug-In . SVG Version: 6.00 Build 14948)  -->
<svg version="1.2" baseProfile="tiny" id="Layer_1" xmlns="http://www.w3.org/2000/svg" xmlns:xlink="http://www.w3.org/1999/xlink"
	 x="0px" y="0px" width="94.591px" height="37.601px" viewBox="0 0 94.591 37.601" xml:space="preserve">
<g>
	<g>
		<path fill="#5DA9DD" d="M85.737,8.9c-0.399-0.6-0.899-0.8-1.899-0.8c-2,0-3.101-0.2-3.301-0.3c-0.8-0.9-2.5-1.9-4.699-3
			c-2-0.8-4-0.7-6,0.1c-2.101,1.3-3.5,2-4.301,2.4c-1.699,0.9-3.199,2.4-4.5,4.6c-1,2-1.5,3.8-1.5,5.3c0,1.3,0.101,2.8,0.5,4.5
			c0.301,1.7,0.7,3.1,1.2,4.4c0.3,0.899,1.5,2.199,3.5,4c2.8,2.199,5.601,3.399,8.601,3.399c0.5,0,2.5-0.899,5.699-2.7
			c2.5-1.199,4.101-2.3,4.7-3.399c0.601-1.101,1.601-2.5,3-4.3c1-1.5,1.5-2.801,1.5-3.8c0-1.6-0.5-3.4-1.5-5.1
			c-1-1.8-1.5-2.7-1.5-2.7c0-0.3,0.101-0.5,0.3-0.8c0.301-0.4,0.301-0.7,0.301-0.9C85.938,9.6,85.838,9.2,85.737,8.9z"/>
		<path fill="#5DA9DD" d="M36.138,15.2c0-4.2-1.4-7.5-4.3-9.6c-2.6-1.9-5.8-2.7-9.5-2.2c-3.8,0.4-7,1.9-9.5,4.5
			c-2.9,2.8-4.3,6.3-4.3,10.6c0,0.5,0,1.1,0.2,1.7c-0.4,0.5-0.5,1.3-0.5,2.1c0,0,0.4,1.4,1.3,4.2c1.2,2.601,3.2,3.9,5.7,4.2
			c2.1,2,4.4,3,6.8,3c6.5,0,10.8-2.7,12.8-8C35.737,23.5,36.138,20,36.138,15.2z"/>
	</g>
	<g>
		<path fill="#FFFFFF" d="M87.537,17.1c0-4.1-1.5-7.2-4.399-9.3c-2.601-1.9-5.8-2.6-9.7-2.5c-3.7,0.2-6.9,1.2-9.7,3
			c-2.899,2-4.399,4.4-4.399,7.3c0,0.5,0,0.6,0,0.6c0,0.2,0.199,0.3,0.3,0.4c1-2.4,2.2-4.3,3.7-5.9c2.699-2.8,7.5-4.2,14.199-4.2
			c1.101,0,2.601,0.7,4.5,2.3c1.801,1.4,2.801,2.5,3.101,3.4c0.2,0.7,0.6,1.9,0.899,3.4c0.301,1.5,0.601,2.5,0.801,3.1
			C87.338,18.3,87.537,17.7,87.537,17.1z"/>
		<path fill="#FFFFFF" d="M81.438,27.7c2.1-2.1,3.2-4.6,3.2-7.6c0-2.9-1.101-5.5-3.2-7.601c-2.1-2.2-4.6-3.2-7.6-3.2
			s-5.601,1-7.801,3.2c-2,2.1-3.1,4.7-3.1,7.601c0,3,1.1,5.5,3.1,7.6c2.2,2.1,4.801,3.2,7.801,3.2S79.338,29.8,81.438,27.7z
			 M65.037,20.101c0-2.5,1-4.601,2.7-6.4c1.8-1.8,3.9-2.6,6.4-2.6s4.7,0.8,6.399,2.6c1.801,1.8,2.601,3.9,2.601,6.4
			c0,2.5-0.8,4.6-2.601,6.399c-1.699,1.7-3.899,2.7-6.399,2.7s-4.601-1-6.4-2.7C66.037,24.7,65.037,22.601,65.037,20.101z"/>
		<path fill="#FFFFFF" d="M69.237,15.2c-1.399,1.4-2.1,3-2.1,5c0,1.9,0.7,3.5,2.1,4.9c1.3,1.399,3,2,4.9,2c2,0,3.7-0.601,5-2
			c1.399-1.4,2-3,2-4.9c0-2-0.601-3.6-2-5c-1.3-1.3-3-2-5-2C72.237,13.2,70.537,13.9,69.237,15.2z M70.537,23.7
			c-1-1-1.5-2.2-1.5-3.7c0-1.4,0.5-2.7,1.5-3.8c1-1,2.301-1.5,3.801-1.5s2.699,0.5,3.699,1.5c1.101,1.1,1.7,2.4,1.7,3.8
			c0,1.5-0.6,2.7-1.7,3.7c-1,1.1-2.199,1.6-3.699,1.6S71.537,24.8,70.537,23.7z"/>
		<path fill="#FFFFFF" d="M72.037,20.601c0,0.5,0.301,1,0.801,1.3c0.6,0.399,1.199,0.6,1.8,0.6c0.899,0,1.5-0.399,2-1.3l0.399-1.1
			c0-1.9-0.8-2.8-2.5-2.7C72.938,17.5,72.037,18.6,72.037,20.601z M74.537,18.8c0.801,0,1.101,0.5,1.101,1.4c0,0.4-0.5,0.6-1.3,0.9
			c-0.301,0-0.5-0.301-0.801-0.7C73.537,19.3,73.838,18.7,74.537,18.8z"/>
		<path fill="#FFFFFF" d="M36.038,16.6c0.1-0.1,0.2-0.3,0.2-0.4c0.1,0,0.1-0.2,0.1-0.6c0-2.9-1.5-5.4-4.5-7.4
			c-2.7-1.8-5.9-2.8-9.7-3c-3.8-0.1-7.1,0.7-9.6,2.5c-3,2.1-4.5,5.2-4.5,9.3c0,0.7,0.3,1.2,0.7,1.7c0.3-0.6,0.6-1.7,0.8-3.1
			c0.4-1.6,0.7-2.7,1-3.4c0.3-0.9,1.3-2,3-3.5c2-1.5,3.5-2.2,4.5-2.2c6.8,0,11.5,1.3,14.3,4.2C33.737,12.2,35.038,14.2,36.038,16.6z
			"/>
		<path fill="#FFFFFF" d="M32.737,20.101c0-3-1.1-5.5-3.2-7.601c-2.2-2.2-4.7-3.3-7.7-3.3s-5.5,1.1-7.7,3.3
			c-2.1,2.1-3.1,4.6-3.1,7.601c0,2.899,1,5.5,3.1,7.6c2.2,2.1,4.7,3.1,7.7,3.1s5.5-1,7.7-3.1C31.638,25.601,32.737,23,32.737,20.101
			z M27.837,13.7c1.8,1.7,2.7,3.9,2.7,6.4c0,2.5-0.9,4.6-2.7,6.399c-1.7,1.7-3.8,2.601-6.3,2.601s-4.7-0.9-6.5-2.601
			c-1.7-1.8-2.6-3.899-2.6-6.399c0-2.5,0.9-4.7,2.6-6.4c1.8-1.8,4-2.7,6.5-2.7S26.138,11.9,27.837,13.7z"/>
		<path fill="#FFFFFF" d="M28.438,20.101c0-1.9-0.7-3.5-2.1-4.9c-1.3-1.4-3-2-4.9-2s-3.6,0.6-4.9,2c-1.4,1.4-2.1,3-2.1,4.9
			c0,2,0.7,3.6,2.1,5c1.3,1.3,3,2,4.9,2s3.6-0.7,4.9-2C27.737,23.7,28.438,22.101,28.438,20.101z M21.337,14.7
			c1.4,0,2.7,0.5,3.7,1.5c1.1,1,1.6,2.3,1.6,3.7c0,1.5-0.5,2.8-1.6,3.8c-1,1-2.3,1.5-3.7,1.5c-1.5,0-2.8-0.5-3.8-1.5
			s-1.6-2.3-1.6-3.8c0-1.4,0.6-2.7,1.6-3.7S19.837,14.7,21.337,14.7z"/>
		<path fill="#FFFFFF" d="M22.737,21.9c0.6-0.4,0.8-0.8,0.8-1.3c0-2.101-0.8-3.2-2.5-3.3c-1.7,0-2.5,0.9-2.5,2.7l0.5,1.2
			c0.4,0.9,1.1,1.3,2,1.3C21.638,22.5,22.138,22.2,22.737,21.9z M22.038,20.3c-0.2,0.5-0.5,0.801-0.7,0.801
			c-0.9-0.301-1.3-0.601-1.3-1c0-0.9,0.3-1.3,1-1.4C21.737,18.7,22.038,19.2,22.038,20.3z"/>
	</g>
	<g>
		<path d="M93.237,16.3c-0.399-0.1-0.899-0.2-1.6-0.3c-0.601-4-2.3-7.5-5.3-10.4C82.737,1.9,78.237,0,73.037,0
			c-5.199,0-9.699,1.9-13.3,5.6c-3,3-4.7,6.5-5.3,10.5c-2.1-0.9-4.7-1.4-7.6-1.3c-2.3,0-4.3,0.4-6,1.1c-0.6-3.9-2.4-7.4-5.3-10.3
			c-3.7-3.7-8.2-5.6-13.4-5.6c-5.1,0-9.6,1.9-13.3,5.6c-2.8,2.8-4.5,6.1-5.1,9.9c-0.1,0-0.2,0-0.2,0c-0.5,0-1,0.1-1.3,0.1
			c-0.4,0.1-0.6,0.2-0.8,0.5c-1.9,2.1-1.9,4.5-0.1,7.1h0.9c0.6,0,1.1,0,1.6,0c0.7,3.4,2.5,6.4,5,9c3.7,3.6,8.2,5.4,13.7,5.3
			c5.5-0.2,9.7-1.8,12.8-4.899c3-3.2,5.1-6,6.1-8.4c1-2.5,3-3.7,6.1-3.6c3,0,5,1,6,2.8c2,3.7,4,6.6,6.2,8.8
			c3.601,3.6,8.101,5.4,13.3,5.4c5.2,0,9.7-1.801,13.301-5.4c2.5-2.6,4.199-5.5,5-8.7c0.199,0,0.5,0,0.8,0
			c0.399,0,0.8-0.2,1.1-0.399c0.101-0.301,0.3-0.4,0.5-0.7C95.037,20.101,94.838,18.1,93.237,16.3z M82.537,9.3
			c2.5,2.7,3.801,5.9,3.801,9.5c0,3.8-1.301,6.9-3.801,9.5c-2.699,2.601-5.8,3.9-9.5,3.9c-3.699,0-6.899-1.3-9.5-3.9
			c-2.699-2.6-4-5.699-4-9.5c0-3.6,1.301-6.8,4-9.5c2.601-2.6,5.801-3.8,9.5-3.8C76.737,5.5,79.838,6.7,82.537,9.3z M31.638,9.3
			c2.6,2.7,3.9,5.9,3.9,9.5c0,0.6,0,1.1,0,1.6c-0.2,0.899-0.4,1.8-0.7,2.7c-0.6,2-1.7,3.6-3.2,5.199c-2.6,2.601-5.8,3.9-9.5,3.9
			c-3.7,0-6.8-1.3-9.4-3.9c-2.7-2.6-4-5.699-4-9.5c0-3.6,1.3-6.8,4-9.5c2.6-2.6,5.7-3.8,9.4-3.8C25.837,5.5,29.038,6.7,31.638,9.3z"
			/>
	</g>
</g>
</svg>
