<?xml version="1.0" encoding="utf-8"?>
<!-- Generator: Adobe Illustrator 13.0.0, SVG Export Plug-In . SVG Version: 6.00 Build 14948)  -->
<!DOCTYPE svg PUBLIC "-//W3C//DTD SVG 1.1//EN" "http://www.w3.org/Graphics/SVG/1.1/DTD/svg11.dtd">
<svg version="1.1" id="Layer_1" xmlns="http://www.w3.org/2000/svg" xmlns:xlink="http://www.w3.org/1999/xlink" x="0px" y="0px"
	 width="68.267px" height="74.412px" viewBox="0 0 68.267 74.412" enable-background="new 0 0 68.267 74.412" xml:space="preserve">
<path fill-rule="evenodd" clip-rule="evenodd" fill="#2E2C2C" d="M15.854,26.251c0,0-2.041-1.19-2.211-3.4
	c-0.17-2.04,1.021-5.102,1.021-5.102s-0.511-1.02-1.021-0.509c-0.51,0.679-1.02,5.101-1.19,5.611c0,0.68,1.871,3.911,1.871,3.911
	L15.854,26.251z"/>
<path fill-rule="evenodd" clip-rule="evenodd" fill="#2E2C2C" d="M9.222,39.174c0,0-1.36,1.871-3.4,1.871
	C3.61,40.874,0.72,39.514,0.72,39.514s-1.19,0.512-0.51,1.021c0.51,0.51,4.761,1.359,5.44,1.531
	c0.682,0.168,3.912-1.531,3.912-1.531L9.222,39.174z"/>
<path fill-rule="evenodd" clip-rule="evenodd" fill="#2E2C2C" d="M19.936,66.891c0,0-2.211,0.17-3.231,2.041
	c-1.021,1.869-1.19,5.102-1.19,5.102s-0.85,0.85-1.19,0c-0.17-0.682,1.19-4.932,1.36-5.611c0.17-0.512,3.23-2.551,3.23-2.551
	L19.936,66.891z"/>
<path fill-rule="evenodd" clip-rule="evenodd" fill="#2E2C2C" d="M49.521,22.511c0,0,2.041-1.19,2.041-3.231
	c0.17-2.04-1.021-5.101-1.021-5.101s0.51-1.19,1.021-0.511c0.51,0.68,1.02,4.931,1.189,5.612c0.171,0.68-1.7,3.741-1.7,3.741
	L49.521,22.511z"/>
<path fill-rule="evenodd" clip-rule="evenodd" fill="#2E2C2C" d="M59.044,39.174c0,0,1.36,1.871,3.399,1.871
	c2.213-0.172,5.102-1.531,5.102-1.531s1.191,0.512,0.512,1.021c-0.512,0.51-4.762,1.359-5.441,1.531
	c-0.681,0.168-3.911-1.531-3.911-1.531L59.044,39.174z"/>
<path fill-rule="evenodd" clip-rule="evenodd" fill="#2E2C2C" d="M48.332,66.891c0,0,2.21,0.17,3.23,2.041
	c1.02,1.869,1.189,5.102,1.189,5.102s0.851,0.85,1.19,0c0.171-0.682-1.19-4.932-1.36-5.611c-0.17-0.512-3.23-2.551-3.23-2.551
	L48.332,66.891z"/>
<path fill-rule="evenodd" clip-rule="evenodd" fill="#2E2C2C" d="M30.817,10.268c1.7-0.681,2.04,0.85,3.4,1.359
	c1.53,0.681,3.231,1.362,3.231,3.232c0,3.06-2.551,5.78-6.292,5.78s-6.802-2.55-6.802-5.611c0-1.701,1.701-2.04,2.891-2.891
	C28.268,11.458,28.606,9.417,30.817,10.268L30.817,10.268z"/>
<path fill-rule="evenodd" clip-rule="evenodd" fill="#FFFFFF" d="M27.586,14.688c0.682,0,1.19-0.509,1.19-1.19
	c0-0.85-0.509-1.359-1.19-1.359c-0.68,0-1.189,0.51-1.189,1.359C26.396,14.179,26.906,14.688,27.586,14.688L27.586,14.688z"/>
<path fill-rule="evenodd" clip-rule="evenodd" fill="#FFFFFF" d="M34.218,14.519c0.681,0,1.36-0.51,1.36-1.19
	c0-0.68-0.68-1.36-1.36-1.36c-0.68,0-1.19,0.68-1.19,1.36C33.027,14.009,33.538,14.519,34.218,14.519L34.218,14.519z"/>
<path fill-rule="evenodd" clip-rule="evenodd" fill="#2E2C2C" d="M34.014,14.34c0.51,0,0.851-0.339,0.851-0.851
	c0-0.509-0.341-0.849-0.851-0.849s-0.85,0.34-0.85,0.849C33.164,14.001,33.504,14.34,34.014,14.34L34.014,14.34z"/>
<path fill-rule="evenodd" clip-rule="evenodd" fill="#2E2C2C" d="M27.699,14.518c0.341,0,0.852-0.511,0.852-0.851
	c0-0.511-0.511-0.851-0.852-0.851c-0.51,0-0.85,0.339-0.85,0.851C26.85,14.007,27.189,14.518,27.699,14.518L27.699,14.518z"/>
<path fill-rule="evenodd" clip-rule="evenodd" fill="#2E2C2C" d="M34.898,15.539c15.984,0,27.887,13.944,27.887,30.099
	c0,16.152-13.773,28.396-29.758,28.396c-15.983,0-29.076-13.094-29.076-29.248C3.951,28.632,18.914,15.539,34.898,15.539
	L34.898,15.539z"/>
<g>
	<g>
		<path fill-rule="evenodd" clip-rule="evenodd" fill="#EE302D" d="M34.898,15.539c-0.511,0-0.85,0-1.19,0.17
			c-2.21,5.612-3.062,12.583-2.041,21.085c1.53,13.945,4.932,26.185,9.862,33.669c11.394-3.402,20.065-13.436,20.065-26.018
			C61.595,28.973,50.201,15.539,34.898,15.539z M28.437,16.389C15.854,19.11,5.141,30.332,5.141,43.596
			c0,13.773,9.693,25.166,22.615,27.715c2.891-7.65,3.742-20.064,3.062-34.517C30.646,28.463,29.797,21.66,28.437,16.389z"/>
	</g>
</g>
<path fill-rule="evenodd" clip-rule="evenodd" fill="#2E2C2C" d="M19.1,3.732c3.318,0,5.807,2.287,7.466,4.572
	c1.104,1.372,2.211,2.741,2.488,4.342c0,0.457,1.382,0,1.382-0.229c-1.382-1.6-1.936-4.113-3.594-5.483
	c-1.106-0.686-1.936-1.602-3.318-2.286C22.142,3.505,20.758,3.961,19.1,3.732L19.1,3.732z"/>
<path fill-rule="evenodd" clip-rule="evenodd" fill="#2E2C2C" d="M18.546,1.221c0.83,0,1.659,0.456,1.659,1.141
	c0,0.229,0,0.458,0,0.687c-0.275,0.684-0.829,2.514-1.383,2.742c-1.105,0-1.936,0.229-2.765-0.228
	c-0.829-0.23-1.106-0.915-1.382-1.372c0-0.458-0.277-0.686,0-1.143c0.553-0.687,1.105-1.143,1.659-1.372
	C17.164,1.221,17.44,0.991,18.546,1.221L18.546,1.221z"/>
<path fill-rule="evenodd" clip-rule="evenodd" fill="#FFC20E" d="M18.546,1.449c0.83,0,1.384,0.457,1.384,0.913
	c0,0.458,0.275,0.458,0,0.687c0,0.684-0.554,2.284-1.107,2.514c-1.105,0-1.658,0.228-2.487-0.23
	c-0.554-0.228-1.106-0.684-1.106-1.141c0-0.458-0.277-0.686,0-1.143c0.277-0.457,1.106-0.916,1.658-1.143
	C17.44,1.449,17.717,1.221,18.546,1.449L18.546,1.449z"/>
<path fill-rule="evenodd" clip-rule="evenodd" fill="#2E2C2C" d="M38.877,3.634c-3.063,0-7.069,1.516-6.363,9.087
	c-0.234,0.253-1.885,0.253-1.177-1.009c0.235-0.506,0.235-1.01,0.235-1.767c0-0.507,0.707-3.029,0.941-3.282
	c0.943-1.514,2.121-2.525,3.3-3.284c0.472-0.252,1.886-0.504,2.356-0.756C39.348,2.624,39.818,3.38,38.877,3.634L38.877,3.634z"/>
<path fill-rule="evenodd" clip-rule="evenodd" fill="#B82025" d="M15.854,27.271c2.211,0,3.91,1.87,3.91,4.08
	c0,2.382-2.039,4.082-4.25,4.082s-3.911-1.871-3.911-4.082C11.603,28.973,13.643,27.271,15.854,27.271L15.854,27.271z"/>
<path fill-rule="evenodd" clip-rule="evenodd" fill="#B82025" d="M24.355,38.155c2.551,0,4.421,2.211,4.421,4.932
	c0,2.551-2.21,4.59-4.761,4.59s-4.762-2.211-4.762-4.762C19.254,40.196,21.635,38.155,24.355,38.155L24.355,38.155z"/>
<path fill-rule="evenodd" clip-rule="evenodd" fill="#B82025" d="M18.064,53.118c2.551,0,4.421,2.211,4.421,4.762
	s-2.211,4.59-4.761,4.59c-2.551,0-4.592-2.039-4.592-4.59S15.514,53.118,18.064,53.118L18.064,53.118z"/>
<path fill-rule="evenodd" clip-rule="evenodd" fill="#B82025" d="M47.141,22.171c2.211,0,3.742,2.039,3.742,4.251
	c0,2.21-1.871,3.91-4.082,3.91c-2.21,0-4.08-1.869-4.08-4.081C42.721,24.04,44.76,22.171,47.141,22.171L47.141,22.171z"/>
<path fill-rule="evenodd" clip-rule="evenodd" fill="#B82025" d="M50.883,52.436c2.551,0,4.421,2.211,4.421,4.764
	c0,2.549-2.212,4.59-4.762,4.59c-2.551,0-4.591-2.041-4.591-4.59C45.951,54.647,48.332,52.436,50.883,52.436L50.883,52.436z"/>
<path fill-rule="evenodd" clip-rule="evenodd" fill="#B82025" d="M41.02,35.944c2.891,0,4.932,2.38,4.932,5.271
	s-2.551,5.102-5.271,5.102c-2.891,0-5.271-2.381-5.271-5.271S38.129,35.944,41.02,35.944L41.02,35.944z"/>
<path fill-rule="evenodd" clip-rule="evenodd" fill="#FEFAD9" d="M17.725,53.458c-2.041,0-4.082,1.701-4.082,3.912
	c0,2.209,1.701,3.91,3.911,3.91s4.081-1.701,4.081-3.742C21.635,55.329,19.936,53.458,17.725,53.458z M24.355,38.155
	c-2.381,0-4.592,1.871-4.592,4.25c0,2.381,1.871,4.422,4.252,4.422s4.421-1.871,4.421-4.252
	C28.437,40.196,26.736,38.155,24.355,38.155z M19.084,31.013c0-2.04-1.53-3.741-3.57-3.741c-2.041,0-3.911,1.53-3.911,3.741
	c0,2.04,1.53,3.741,3.571,3.741C17.214,34.754,19.084,33.053,19.084,31.013z M46.461,29.652c2.041,0,3.74-1.53,3.74-3.571
	s-1.529-3.91-3.57-3.91c-2.04,0-3.91,1.7-3.91,3.74S44.42,29.652,46.461,29.652z M50.542,52.778c-2.04,0-4.081,1.699-4.081,3.912
	c0,2.211,1.701,3.91,3.911,3.91c2.04,0,4.081-1.699,4.081-3.74C54.453,54.647,52.752,52.778,50.542,52.778z M41.02,35.434
	c-2.551,0-5.102,2.21-5.102,4.932c0,2.549,2.211,4.76,4.932,4.76c2.551,0,4.932-2.039,4.932-4.76
	C45.781,37.813,43.74,35.434,41.02,35.434z"/>
<path fill-rule="evenodd" clip-rule="evenodd" fill="#2E2C2C" d="M39.584,0.099c-0.942,0-1.649,0.506-1.649,1.262
	c0,0.759-0.235,0.759,0,1.263c0,0.756,0.471,3.03,1.179,3.282c1.178,0,1.885,0.251,2.826-0.252c0.707-0.252,1.18-1.01,1.18-1.767
	c0-0.506,0.234-0.759,0-1.514c-0.236-0.759-0.943-1.263-1.65-1.767C40.763,0.099,40.291-0.153,39.584,0.099L39.584,0.099z"/>
<path fill-rule="evenodd" clip-rule="evenodd" fill="#FFC20E" d="M39.584,0.099c-0.707,0-1.414,0.506-1.414,1.262
	c0,0.506,0,0.506,0,0.759c0,0.757,0.472,3.03,1.178,3.03c0.943,0.251,1.65,0.251,2.356,0c0.472-0.506,0.942-1.263,1.179-1.77
	c0-0.504,0.236-0.756,0-1.261c-0.471-0.759-0.943-1.263-1.65-1.514C40.526,0.099,40.291-0.153,39.584,0.099L39.584,0.099z"/>
</svg>
