<?xml version="1.0" encoding="utf-8"?>
<!-- Generator: Adobe Illustrator 13.0.0, SVG Export Plug-In . SVG Version: 6.00 Build 14948)  -->
<!DOCTYPE svg PUBLIC "-//W3C//DTD SVG 1.1//EN" "http://www.w3.org/Graphics/SVG/1.1/DTD/svg11.dtd">
<svg version="1.1" id="Layer_1" xmlns="http://www.w3.org/2000/svg" xmlns:xlink="http://www.w3.org/1999/xlink" x="0px" y="0px"
	 width="221.478px" height="125.973px" viewBox="0 0 221.478 125.973" enable-background="new 0 0 221.478 125.973"
	 xml:space="preserve">
<path fill-rule="evenodd" clip-rule="evenodd" fill="#EB7A23" d="M123.568,89.607c-1.229,2.863,21.275,22.816,11.047,26.908
	c-10.253,4.092-10.687-2.166-10.687-2.166s0.024-2.912,4.116-3.73s-1.781-16.487-9.122-15.139L123.568,89.607z"/>
<path fill-rule="evenodd" clip-rule="evenodd" fill="#2E2C2C" stroke="#2E2C2C" stroke-width="0" stroke-linecap="square" stroke-miterlimit="10" d="
	M0,46.573c3.658,1.3,14.489,2.84,19.254,2.84c0.434,0,1.011,0.409,0.794,0.385C10.783,48.932,7.678,48.715,0,46.573L0,46.573z"/>
<path fill-rule="evenodd" clip-rule="evenodd" fill="#2E2C2C" stroke="#2E2C2C" stroke-width="0" stroke-linecap="square" stroke-miterlimit="10" d="
	M0.072,38.077c3.297,2.045,13.671,5.921,18.437,7.004c0.409,0.096,0.866,0.602,0.674,0.554C10.157,42.722,7.124,41.808,0.072,38.077
	L0.072,38.077z"/>
<path fill-rule="evenodd" clip-rule="evenodd" fill="#2E2C2C" stroke="#2E2C2C" stroke-width="0" stroke-linecap="square" stroke-miterlimit="10" d="
	M5.055,31.073c2.575,2.743,11.577,8.977,15.933,11.216c0.385,0.192,0.674,0.794,0.505,0.674
	C13.502,37.956,10.807,36.319,5.055,31.073L5.055,31.073z"/>
<path fill-rule="evenodd" clip-rule="evenodd" fill="#2E2C2C" d="M42.577,35.501c-0.048-1.059,0.529-2.815,0.217-3.538
	c-1.107-2.526-1.493-3.466-4.549-3.778c-1.444-0.169-2.334,0.554-3.249,1.564c-1.95,2.142-0.963,4.284,1.709,5.343
	c0.818,0.313,2.72,0.915,3.394,0.795C40.339,35.839,43.203,35.839,42.577,35.501L42.577,35.501z"/>
<path fill-rule="evenodd" clip-rule="evenodd" fill="#FFFFFF" d="M42.168,35.598c-0.048-0.987,0.505-2.624,0.217-3.273
	c-1.035-2.383-1.396-3.249-4.236-3.538c-1.372-0.145-2.19,0.529-3.057,1.468c-1.829,1.975-0.891,3.972,1.588,4.959
	c0.77,0.313,2.552,0.866,3.177,0.746C40.074,35.935,42.746,35.935,42.168,35.598L42.168,35.598z"/>
<path fill-rule="evenodd" clip-rule="evenodd" fill="#4AB1E0" d="M37.691,35.982c-0.602-0.023-1.419-0.625-1.853-0.843
	c-1.251-0.649-1.275-1.756-0.722-3.152c0.361-0.914,1.3-1.035,2.287-1.035c1.492,0,1.974,0.843,2.479,1.733
	c0.241,0.434,0.481,1.299,0.289,1.78c-0.457,1.18-0.144,1.541-1.348,1.613C39.159,36.199,38.004,35.982,37.691,35.982L37.691,35.982
	z"/>
<path fill-rule="evenodd" clip-rule="evenodd" fill="#2E2C2C" d="M37.354,35.693c-0.434,0-1.035-0.48-1.348-0.649
	c-0.915-0.529-0.938-1.372-0.529-2.455c0.265-0.722,0.962-0.843,1.661-0.818c1.107,0,1.444,0.649,1.829,1.349
	c0.168,0.336,0.337,1.011,0.217,1.396c-0.337,0.915-0.121,1.203-1.011,1.251C38.438,35.862,37.595,35.693,37.354,35.693
	L37.354,35.693z"/>
<path fill-rule="evenodd" clip-rule="evenodd" fill="#FFFFFF" d="M37.763,33.527c-0.144-0.023-0.361-0.168-0.481-0.24
	c-0.337-0.168-0.337-0.457-0.193-0.843c0.096-0.24,0.337-0.265,0.602-0.265c0.41,0,0.53,0.217,0.674,0.458
	c0.048,0.12,0.12,0.336,0.072,0.481c-0.121,0.313-0.048,0.408-0.361,0.433C38.172,33.576,37.86,33.527,37.763,33.527L37.763,33.527z
	"/>
<path fill-rule="evenodd" clip-rule="evenodd" fill="#2E2C2C" stroke="#2E2C2C" stroke-width="0" stroke-linecap="square" stroke-miterlimit="10" d="
	M48.715,30.64c-0.554,0.24-0.771,0.891-0.843,1.469c-0.048,0.36-0.12,0.745-0.024,1.106c0.024,0.072-0.241,0.097-0.241,0.072
	c0.072-0.457-0.072-0.987,0.096-1.372c0.096-0.265,0.217-0.506,0.337-0.77C48.209,30.832,48.474,30.808,48.715,30.64L48.715,30.64z"
	/>
<path fill-rule="evenodd" clip-rule="evenodd" fill="#2E2C2C" stroke="#2E2C2C" stroke-width="0" stroke-linecap="square" stroke-miterlimit="10" d="
	M32.877,28.063c-0.096,0.578,0.361,1.084,0.818,1.445c0.265,0.24,0.554,0.481,0.915,0.602c0.072,0-0.048,0.24-0.072,0.216
	c-0.337-0.265-0.866-0.433-1.107-0.77c-0.168-0.217-0.313-0.434-0.458-0.674C32.781,28.569,32.877,28.354,32.877,28.063
	L32.877,28.063z"/>
<path fill-rule="evenodd" clip-rule="evenodd" fill="#2E2C2C" stroke="#2E2C2C" stroke-width="0" stroke-linecap="square" stroke-miterlimit="10" d="
	M34.683,27.486c-0.337,0.481-0.217,1.155,0,1.685c0.145,0.338,0.241,0.698,0.529,0.963c0.048,0.048-0.168,0.192-0.192,0.169
	c-0.144-0.409-0.529-0.794-0.578-1.228c-0.048-0.265-0.072-0.53-0.072-0.818C34.346,27.92,34.563,27.752,34.683,27.486
	L34.683,27.486z"/>
<path fill-rule="evenodd" clip-rule="evenodd" fill="#2E2C2C" stroke="#2E2C2C" stroke-width="0" stroke-linecap="square" stroke-miterlimit="10" d="
	M36.488,25.682c-0.481,0.313-0.578,0.987-0.554,1.564c0,0.385,0,0.746,0.168,1.107c0.024,0.048-0.241,0.12-0.241,0.072
	c0-0.434-0.241-0.915-0.144-1.349c0.048-0.265,0.12-0.505,0.216-0.794C36.031,25.97,36.271,25.874,36.488,25.682L36.488,25.682z"/>
<path fill-rule="evenodd" clip-rule="evenodd" fill="#F48030" d="M34.707,34.033c4.356-1.372,7.774-6.763,6.138-11.385
	c-1.372-7.798-2.744-7.558-5.343-13.983c7.558,4.404,14.851,8.328,15.837,14.923c1.131-0.361,0.048-1.781,6.041-0.072
	C61.302,14.827,56.489,7.967,59.256,0c5.584,5.536,16.006,23.443,13.888,31.723c2.84,6.739,3.032,24.141,10.807,27.414
	s37.884-1.492,57.451,2.046c12.78-6.475,29.268-52.133,80.076-40.772c-3.586,32.733-36.752,47.223-48.979,49.773
	c-12.228,2.527-27.27,1.661-27.27,1.661s2.069,15.717,0.843,18.581c-1.229,2.864,21.275,22.793,11.047,26.908
	c-10.254,4.092-10.687-2.166-10.687-2.166s0.024-2.912,4.116-3.73s-1.781-16.511-9.123-15.14c-7.34,1.349-36.896,9.7-45.874,8.353
	c-8.954-1.372-3.972,10.084-0.289,11.312c3.706,1.228,5.078,5.055,3.441,7.919s-12.973,0.674-13.791-2.6s0.265-16.246,0.265-16.246
	l-6.98-0.409c0,0,1.661,11.457,0.434,15.981c-1.228,4.501-10.903,8.593-15.019,1.637c-4.091-6.956,3.947-5.729,7.221-6.956
	c3.273-1.251-1.228-12.708-1.228-12.708s-5.849-5.632-8.304-10.133c-3.032-5.584,0.746-18.653-7.004-22.938
	c-7.413-0.192-15.813-2.72-23.9-7.581C23.009,58.15,9.771,55.888,7.967,47.295c2.744-0.265-2.359,1.925-1.059-1.275
	c0.674-2.72,0.529,0.192-1.107-2.143c5.247-2.671,7.461-4.38,21.252-7.437L34.707,34.033z"/>
<path fill-rule="evenodd" clip-rule="evenodd" fill="#2E2C2C" stroke="#2E2C2C" stroke-width="0" stroke-linecap="square" stroke-miterlimit="10" d="
	M14.08,45.683c0.192,2.479-0.842,5.728-3.394,7.028c-0.602,0.649-1.179-0.072-1.757-0.241c-3.104-2.166-3.995-6.956-3.225-10.181
	C9.001,36.85,13.406,40.7,14.08,45.683L14.08,45.683z"/>
<path fill-rule="evenodd" clip-rule="evenodd" fill="#A7A8AC" stroke="#2E2C2C" stroke-width="0" stroke-linecap="square" stroke-miterlimit="10" d="
	M8.183,47.15c-0.409,0.385-0.77,0.145-1.227,0.048c-1.18-0.577-0.722-1.949-1.083-2.937c0.024-1.011,0.216-2.094,0.842-2.983
	c0.481-0.097,0.674-0.361,1.155-0.146C9.363,42.674,9.267,45.297,8.183,47.15L8.183,47.15z"/>
<path fill-rule="evenodd" clip-rule="evenodd" fill="#FFFFFF" d="M7.822,46.332c-0.217,0.217-0.241,0.698-0.65,0.529
	c-0.842-0.914-0.915-2.479-0.698-3.634c0.192-0.385,0.144-0.938,0.625-1.084c0.818,0.481,0.867,1.565,0.939,2.432L7.822,46.332z"/>
<path fill-rule="evenodd" clip-rule="evenodd" fill="#2E2C2C" d="M58.342,36.873c-0.072-0.962,0.458-2.503,0.192-3.129
	c-0.986-2.262-1.324-3.104-4.043-3.369c-1.299-0.145-2.094,0.505-2.888,1.396c-1.901,2.07-1.444,4.693,1.517,4.982
	c0.77,0.072,2.407,0.891,3.008,0.771C56.344,37.499,58.896,37.186,58.342,36.873L58.342,36.873z"/>
<path fill-rule="evenodd" clip-rule="evenodd" fill="#FFFFFF" d="M57.764,36.753c-0.048-0.866,0.434-2.311,0.193-2.912
	c-0.915-2.095-1.252-2.889-3.779-3.153c-1.203-0.12-1.925,0.481-2.695,1.324c-1.612,1.757-0.794,3.538,1.42,4.404
	c0.674,0.265,2.238,0.77,2.792,0.674C55.911,37.042,58.27,37.042,57.764,36.753L57.764,36.753z"/>
<path fill-rule="evenodd" clip-rule="evenodd" fill="#4AB1E0" d="M55.622,37.162c-0.529-0.024-1.275-0.409-1.637-0.602
	c-1.107-0.602-1.131-1.564-0.65-2.792c0.313-0.818,1.155-0.938,2.022-0.938c1.348,0,1.757,0.746,2.214,1.54
	c0.216,0.385,0.409,1.155,0.241,1.589c-0.409,1.035-0.145,1.083-1.228,1.131C56.897,37.21,55.911,37.162,55.622,37.162
	L55.622,37.162z"/>
<path fill-rule="evenodd" clip-rule="evenodd" fill="#2E2C2C" d="M55.863,37.138c-0.457,0-1.083-0.457-1.396-0.625
	c-0.963-0.506-0.987-1.349-0.578-2.407c0.289-0.698,1.011-0.794,1.757-0.794c1.131,0,1.492,0.649,1.877,1.323
	c0.193,0.313,0.361,0.986,0.217,1.372c-0.337,0.866-0.096,1.155-1.035,1.203C56.97,37.307,56.104,37.138,55.863,37.138
	L55.863,37.138z"/>
<path fill-rule="evenodd" clip-rule="evenodd" fill="#FFFFFF" d="M53.961,35.092c-0.145,0-0.361-0.144-0.458-0.192
	c-0.289-0.168-0.289-0.434-0.168-0.746c0.097-0.217,0.313-0.265,0.554-0.265c0.361,0,0.458,0.217,0.578,0.409
	c0.072,0.12,0.121,0.313,0.072,0.434c-0.12,0.288-0.024,0.36-0.313,0.385C54.298,35.14,54.034,35.092,53.961,35.092L53.961,35.092z"
	/>
<path fill-rule="evenodd" clip-rule="evenodd" fill="#2E2C2C" stroke="#2E2C2C" stroke-width="0" stroke-linecap="square" stroke-miterlimit="10" d="
	M54.347,25.32c0.024-0.096-0.097-0.265-0.41-0.337c-0.192-0.048-0.216-0.072-0.409-0.097c-0.289-0.048-1.251-0.216-1.348-0.12
	c-0.145,0.12-0.265,0.217-0.145,0.361c0.072,0.12,0.337,0.265,0.577,0.313c0.217,0.072,0.313,0.121,0.578,0.145
	c0.289,0.024,0.602,0,0.794-0.048C54.226,25.465,54.347,25.44,54.347,25.32L54.347,25.32z"/>
<path fill-rule="evenodd" clip-rule="evenodd" fill="#2E2C2C" stroke="#2E2C2C" stroke-width="0" stroke-linecap="square" stroke-miterlimit="10" d="
	M51.506,28.642c-0.072,0.506,0.337,0.963,0.722,1.3c0.265,0.192,0.505,0.409,0.843,0.506c0.048,0.024-0.072,0.217-0.097,0.217
	c-0.289-0.265-0.746-0.386-0.987-0.698c-0.145-0.192-0.265-0.386-0.409-0.602C51.435,29.099,51.53,28.883,51.506,28.642
	L51.506,28.642z"/>
<path fill-rule="evenodd" clip-rule="evenodd" fill="#2E2C2C" stroke="#2E2C2C" stroke-width="0" stroke-linecap="square" stroke-miterlimit="10" d="
	M53.119,28.137c-0.313,0.408-0.193,1.011,0,1.492c0.12,0.289,0.216,0.625,0.457,0.866c0.048,0.024-0.144,0.145-0.144,0.145
	c-0.145-0.386-0.481-0.722-0.53-1.083c-0.048-0.265-0.048-0.481-0.072-0.746C52.831,28.497,52.999,28.377,53.119,28.137
	L53.119,28.137z"/>
<path fill-rule="evenodd" clip-rule="evenodd" fill="#2E2C2C" stroke="#2E2C2C" stroke-width="0" stroke-linecap="square" stroke-miterlimit="10" d="
	M54.539,28.16c-0.409,0.289-0.505,0.891-0.481,1.396c0,0.313,0,0.649,0.145,0.963c0.024,0.048-0.192,0.096-0.192,0.072
	c-0.024-0.386-0.217-0.818-0.145-1.18c0.048-0.241,0.12-0.481,0.192-0.723C54.154,28.401,54.371,28.329,54.539,28.16L54.539,28.16z"
	/>
<path fill-rule="evenodd" clip-rule="evenodd" fill="#2E2C2C" d="M51.603,57.452c-6.089,10.012-24.791,3.995-25.561,3.152
	c0,0.024-0.361-0.36,0.77-0.626C30.784,61.158,44.069,65.346,51.603,57.452L51.603,57.452z"/>
<path fill-rule="evenodd" clip-rule="evenodd" fill="#2E2C2C" stroke="#2E2C2C" stroke-width="0" stroke-linecap="square" stroke-miterlimit="10" d="
	M52.542,58.294c0.145-0.77,0.024-1.829-1.781-1.949c-0.072-0.049,0.024-0.506,0.289-0.265c0.096,0.096,0.24,0.096,0.409,0.168
	c0.097,0.024,0.65,0.289,0.723,0.361c0.265,0.24,0.433,0.577,0.578,0.938c0.048,0.12,0.072,0.434,0.072,0.578
	C52.806,58.414,52.59,58.511,52.542,58.294L52.542,58.294z"/>
<path fill-rule="evenodd" clip-rule="evenodd" fill="#2E2C2C" stroke="#2E2C2C" stroke-width="0" stroke-linecap="square" stroke-miterlimit="10" d="
	M20.218,40.074c0.024-0.169-0.097-0.409-0.385-0.505c-0.193-0.072-0.193-0.097-0.361-0.146c-0.265-0.071-1.18-0.313-1.252-0.191
	c-0.144,0.191-0.241,0.313-0.144,0.554c0.072,0.168,0.336,0.385,0.529,0.457c0.216,0.096,0.313,0.192,0.554,0.216
	c0.265,0.024,0.554,0,0.722-0.072C20.121,40.291,20.218,40.268,20.218,40.074L20.218,40.074z"/>
<path fill-rule="evenodd" clip-rule="evenodd" fill="#2E2C2C" stroke="#2E2C2C" stroke-width="0" stroke-linecap="square" stroke-miterlimit="10" d="
	M20.218,44.672c0.024-0.169-0.097-0.386-0.385-0.506c-0.193-0.072-0.193-0.096-0.361-0.145c-0.265-0.072-1.18-0.313-1.252-0.192
	c-0.144,0.217-0.241,0.337-0.144,0.577c0.072,0.146,0.336,0.361,0.529,0.457c0.216,0.097,0.313,0.169,0.554,0.218
	c0.265,0.023,0.554-0.024,0.722-0.097C20.121,44.888,20.218,44.863,20.218,44.672L20.218,44.672z"/>
<path fill-rule="evenodd" clip-rule="evenodd" fill="#2E2C2C" stroke="#2E2C2C" stroke-width="0" stroke-linecap="square" stroke-miterlimit="10" d="
	M25.104,44.311c0.12-0.12,0.168-0.361-0.024-0.626c-0.096-0.168-0.096-0.192-0.216-0.313c-0.192-0.217-0.794-0.915-0.939-0.866
	c-0.216,0.096-0.385,0.144-0.433,0.409c-0.024,0.168,0.072,0.48,0.192,0.674c0.121,0.191,0.145,0.313,0.337,0.481
	c0.216,0.168,0.457,0.288,0.65,0.336C24.911,44.455,25.007,44.479,25.104,44.311L25.104,44.311z"/>
<path fill-rule="evenodd" clip-rule="evenodd" fill="#2E2C2C" d="M45.826,61.904c-3.899,0.843-15.741,0.866-16.342-0.771
	c1.203,1.011,9.603,2.792,10.421,4.093C42.192,66.093,43.419,61.977,45.826,61.904L45.826,61.904z"/>
<path fill-rule="evenodd" clip-rule="evenodd" fill="#2E2C2C" stroke="#2E2C2C" stroke-width="0" stroke-linecap="square" stroke-miterlimit="10" d="
	M31.072,51.579c-1.179-0.169-4.404-2.792-5.728-4.549c-0.121-0.169-0.337,0-0.289,0.072C27.775,49.75,28.666,50.688,31.072,51.579
	L31.072,51.579z"/>
<path fill-rule="evenodd" clip-rule="evenodd" fill="#2E2C2C" stroke="#2E2C2C" stroke-width="0" stroke-linecap="square" stroke-miterlimit="10" d="
	M61.543,38.631c-0.217-0.626-0.962-0.964-1.613-1.107c-0.409-0.097-0.842-0.217-1.275-0.145c-0.072,0.023-0.072-0.289-0.048-0.289
	c0.506,0.12,1.131,0.024,1.564,0.24c0.313,0.169,0.554,0.313,0.842,0.506C61.351,38.053,61.375,38.341,61.543,38.631L61.543,38.631z
	"/>
<path fill-rule="evenodd" clip-rule="evenodd" fill="#2E2C2C" stroke="#2E2C2C" stroke-width="0" stroke-linecap="square" stroke-miterlimit="10" d="
	M63.42,36.729c-0.843-0.409-2.118-0.288-3.129-0.072c-0.65,0.145-1.324,0.266-1.853,0.578c-0.097,0.048-0.337-0.217-0.289-0.217
	c0.77-0.168,1.54-0.602,2.334-0.649c0.505-0.024,1.011-0.024,1.541-0.024C62.674,36.344,62.939,36.585,63.42,36.729L63.42,36.729z"
	/>
<path fill-rule="evenodd" clip-rule="evenodd" fill="#FCD7BC" d="M220.683,20.338c0.049,0.265,0.121,0.506,0.17,0.771
	c-1.662,13.406-8.281,23.707-16.344,31.361c-0.986-0.192,6.787-11.529,8.953-14.562c0.41-0.578-13.43,13.262-14.127,12.973
	c0.264-1.612,13.453-14.296,13.719-15.909c-4.213,1.011-14.369,10.879-18.605,11.89c4.572-3.129,8.328-11.817,12.9-14.971
	c-5.27,0.891-13.381,8.762-18.652,9.651c5.607-3.057,9.578-10.638,15.211-13.67c-4.309,0.794-9.242,4.886-13.551,5.704
	c4.598-2.6,9.82-8.473,14.418-11.071c-5.826,0.553-10.014,5.607-15.838,6.137c4.814-1.973,8.617-6.69,12.973-9.868
	C207.734,18.269,213.992,18.701,220.683,20.338L220.683,20.338z M195.46,19.713c-3.105,1.348-6.234,2.671-9.748,2.983
	C188.792,21.421,192.042,20.41,195.46,19.713L195.46,19.713z"/>
<path fill-rule="evenodd" clip-rule="evenodd" fill="#2E2C2C" stroke="#2E2C2C" stroke-width="0" stroke-linecap="square" stroke-miterlimit="10" d="
	M29.725,41.639c-1.155,0.674-4.501,0.386-5.969-0.385c-0.121-0.048-0.313,0.265-0.241,0.265
	C26.379,42.192,27.318,42.481,29.725,41.639L29.725,41.639z"/>
<path fill-rule="evenodd" clip-rule="evenodd" fill="#2E2C2C" stroke="#2E2C2C" stroke-width="0" stroke-linecap="square" stroke-miterlimit="10" d="
	M28.618,33.793c-1.035,1.588-4.26,4.019-5.753,4.452c-0.12,0.048-0.265,0.481-0.216,0.457
	C25.464,37.018,26.403,36.536,28.618,33.793L28.618,33.793z"/>
<path fill-rule="evenodd" clip-rule="evenodd" fill="#FCD7BC" d="M156.806,106.143c3.105,4.886,4.621,9.459,0.313,11.191
	c-10.254,4.092-10.687-2.166-10.687-2.166s0.024-2.912,4.116-3.73c1.444-0.289,1.637-2.407,1.011-4.958
	C153.316,106.479,155.073,106.551,156.806,106.143L156.806,106.143z M90.834,109.945c0.746,2.671,2.72,5.439,4.429,6.017
	c3.706,1.228,5.078,5.055,3.441,7.919s-12.973,0.674-13.791-2.6c-0.481-1.949-0.313-7.341-0.072-11.36
	C86.791,110.018,88.813,110.018,90.834,109.945L90.834,109.945z M78.752,109.439c0.337,3.683,0.578,8.568-0.12,11.168
	c-1.228,4.501-10.903,8.593-15.019,1.637c-4.091-6.956,3.947-5.729,7.221-6.956c1.444-0.554,1.372-3.104,0.842-5.776
	c0.891-0.12,1.757-0.337,2.6-0.649C75.744,109.127,77.26,109.295,78.752,109.439L78.752,109.439z"/>
<path fill-rule="evenodd" clip-rule="evenodd" fill="#FCD7BC" d="M135.482,107.321c2.238,4.116,2.863,7.702-0.867,9.194
	c-10.253,4.092-10.687-2.166-10.687-2.166c0.024-3.899,5.415-2.263,5.464-6.138C131.51,108.212,133.484,108.14,135.482,107.321
	L135.482,107.321z"/>
</svg>
