<?xml version="1.0" encoding="utf-8"?>
<!-- Generator: Adobe Illustrator 13.0.0, SVG Export Plug-In . SVG Version: 6.00 Build 14948)  -->
<!DOCTYPE svg PUBLIC "-//W3C//DTD SVG 1.1//EN" "http://www.w3.org/Graphics/SVG/1.1/DTD/svg11.dtd">
<svg version="1.1" id="Layer_1" xmlns="http://www.w3.org/2000/svg" xmlns:xlink="http://www.w3.org/1999/xlink" x="0px" y="0px"
	 width="128.11px" height="110.708px" viewBox="0 0 128.11 110.708" enable-background="new 0 0 128.11 110.708"
	 xml:space="preserve">
<path fill-rule="evenodd" clip-rule="evenodd" fill="#C8DD69" d="M22.541,28.139C1.21,41.344-6.338,59.24,5.797,91.101
	c2.345,6.191,3.497,10.326,6.007,12.465c3.784,3.229,17.257,5.102,21.021,2.099c3.661-2.941,7.672-18.78,8.146-14.563
	c0.843,7.344,4.319,11.334,5.532,13.987c1.646,3.538,4.629,3.209,13.145,4.176c2.982,0.35,9.133-0.638,12.341-1.811
	c12.342-14.604,14.234-27.049,15.016-42.907c0.946-19.685-8.248-24.354-26.823-31.944c-7.034-2.879-17.813-5.409-25.464-5.409
	c-2.736,0-6.007,1.192-8.64,1.09L22.541,28.139z"/>
<path fill-rule="evenodd" clip-rule="evenodd" fill="#E2ECB3" d="M7.381,95.359c1.42,3.867,2.551,6.603,4.423,8.207
	c3.784,3.229,17.257,5.102,21.021,2.099c1.521-1.234,1.872-2.633,3.25-5.966C29.472,103.051,14.333,100.44,7.381,95.359
	L7.381,95.359z"/>
<path fill-rule="evenodd" clip-rule="evenodd" fill="#E2ECB3" d="M44.097,100.81c0.967,1.769,1.893,3.146,2.406,4.278
	c1.646,3.538,4.629,3.209,13.145,4.176c2.982,0.35,9.133-0.638,12.341-1.811c1.729-2.016,3.229-4.011,4.566-5.965
	c-6.006,1.378-12.979,1.892-20.055,1.172C50.515,102.044,46.689,101.427,44.097,100.81L44.097,100.81z"/>
<path fill-rule="evenodd" clip-rule="evenodd" fill="#D98BBB" d="M23.117,28.139c-13.863,8.577-22.05,19.108-23.017,34
	c3.518,2.305,2.139,5.925,14.274,6.418c12.157,0.494,21.434-13.555,21.434-22.667s-3.806-13.657-7.878-17.628
	c-0.411,0.021-0.803,0.041-1.173,0.021L23.117,28.139z"/>
<path fill-rule="evenodd" clip-rule="evenodd" fill="#FFFFFF" d="M22.541,28.139C9.006,36.51,1.025,46.754,0.1,61.276
	c3.414,2.262,2.077,5.78,13.925,6.253c11.849,0.494,20.878-13.205,20.878-22.091c0-8.887-3.702-13.309-7.672-17.176
	c-0.392,0.021-0.782,0.041-1.152,0.021L22.541,28.139z"/>
<path fill-rule="evenodd" clip-rule="evenodd" fill="#D98BBB" d="M22.356,28.242C10.241,35.791,2.609,44.862,0.552,57.204
	c2.407,1.953,1.934,4.689,11.602,5.08c10.284,0.432,18.101-11.457,18.101-19.15c0-7.692-3.188-11.539-6.644-14.892
	c-0.35,0.021-0.68,0.041-0.987,0.021L22.356,28.242z"/>
<path fill-rule="evenodd" clip-rule="evenodd" fill="#71845E" d="M96.845,12.835c-2.707-1.45-6.474-2.37-10.411-2.928
	s-8.046-0.753-11.426-0.742c-5.831,0.26-13.091,3.245-18.091,8.245c-3-11-13.401-13.244-23.401-14.244
	c1,12-7.174,15.842-10.174,25.842c-1,3,4.308,5.529,6.308,7.529c6,5,10.248,2.463,15.668,8.953c1.855,1.658,7.136,4.968,9.208,6.898
	c6.215,5.79,13.063,11.972,18.499,13.535c17.305,4.957,25.807-2.907,35.373-12.904c2.344-2.428,8.242-12.829,12.725-25.417
	c1.971-6.006-5.204-6.664-5.806-9.379c-1.66-7.383,3.119-8.685,2.849-12.819c0.291,0.432-0.034,2.168-7.732,3.052
	C106.572,8.91,98.007,5.287,96.845,12.835L96.845,12.835z"/>
<path fill-rule="evenodd" clip-rule="evenodd" fill="#C8DD69" d="M95.315,13.371c-5.204-2.818-14.522-3.579-21.063-3.579
	c-2.18,0-15.612,2.16-17.669,5.307c-1.214-4.196-1.892-4.669-4.258-6.973C43.686-0.35,39.017,2.654,32.065,0
	c-2.859,1.728,0.534,8.083-1.708,13.371c-3.167,7.528-7.98,9.872-9.133,16.866c7.508,8.33,7.303,10.758,19.089,10.758
	c2.18,0,5.046,3.528,8.954,8.116c5.616,6.582,16.696,14.078,23.073,15.929c16.702,4.854,26.061-2.18,35.316-11.909
	c2.242-2.365,6.768-13.123,11.087-25.382c1.173-3.147-1.419-2.777-0.781-9.895c0.658-7.343,1.83-11.025,1.584-15.036
	c0.268,0.411-3.373,1.954-10.799,2.818C105.024,6.068,96.446,6.027,95.315,13.371L95.315,13.371z"/>
<path fill-rule="evenodd" clip-rule="evenodd" fill="#2E2C2C" stroke="#2E2C2C" stroke-width="0" stroke-linecap="square" stroke-miterlimit="10" d="
	M63.433,41.118c-2.942-7.302,10.799-2.592,17.525-3.209c3.456-0.308,14.255-8.782,15.529-7.59c5.76,5.41,12.486,7.076,17.628,1.584
	c7.487-8.021,4.67-17.237-4.134-18.43c-1.729,1.584-2.818,0.864-3.415-0.638c-0.699-1.769,2.098-1.666,2.592-3.559
	c0.885-3.414,2.694-4.813,3.209,0.206c9.071,5.862,24.827,15.776,8.968,36.284c-3.764,4.875-10.243,7.549-15.735,9.771
	C92.559,60.823,69.09,55.105,63.433,41.118L63.433,41.118z"/>
<path fill-rule="evenodd" clip-rule="evenodd" fill="#2E2C2C" stroke="#2E2C2C" stroke-width="0" stroke-linecap="square" stroke-miterlimit="10" d="
	M97.948,57.1c-0.432,0.145-0.885,0.37-1.337,0.658c-4.32,2.818-3.724,2.263-6.953,2.428c-2.529,0.103-3.476-2.242-6.644-4.135
	L97.948,57.1z"/>
<path fill-rule="evenodd" clip-rule="evenodd" fill="#C8DD69" d="M109.528,13.021c-1.728,1.584-1.515,1.396-2.09-0.085
	c-0.7-1.79,1.443-1.363,1.938-3.255c0.885-3.415,2.508-4.92,3.022,0.078c9.07,5.883,24.323,15.027,8.484,35.556
	c-7.323,9.462-18.204,11.972-33.528,10.881c-10.119-0.698-20.322-7.733-23.84-15.386c-3.291-7.158,10.265-2.734,16.991-3.353
	c3.455-0.309,6.545-12.93,15.817-5.532c6.188,4.937,13.679,5.902,18.8,0.41C122.631,24.313,118.332,14.213,109.528,13.021
	L109.528,13.021z"/>
<path fill-rule="evenodd" clip-rule="evenodd" fill="#2E2C2C" d="M93.587,30.668c0.124-1.357,1.522-2.365,1.604-2.652
	c0.247-0.803-0.967-1.214-0.802-0.906C94.657,27.645,93.752,29.393,93.587,30.668L93.587,30.668z"/>
<path fill-rule="evenodd" clip-rule="evenodd" fill="#2E2C2C" d="M99.265,32.788c-0.617-1.337,0.123-3.064,0.041-3.373
	c-0.206-0.885-1.563-0.597-1.234-0.392C98.606,29.374,98.729,31.512,99.265,32.788L99.265,32.788z"/>
<path fill-rule="evenodd" clip-rule="evenodd" fill="#2E2C2C" d="M104.099,30.709c-0.844-0.74-0.844-2.18-0.987-2.385
	c-0.433-0.557-1.297,0.061-1.008,0.102C102.597,28.509,103.316,29.969,104.099,30.709L104.099,30.709z"/>
<path fill-rule="evenodd" clip-rule="evenodd" fill="#D98BBB" d="M96.755,13.391c-5.348-3.065-15.838-3.6-21.433-3.6
	c-1.604,0-12.219,1.275-16.991,4.278C67.588,22.442,88.527,19.911,96.755,13.391L96.755,13.391z"/>
<path fill-rule="evenodd" clip-rule="evenodd" fill="#71845E" d="M95.604,17.627c1.192-0.617,3.064-0.102,3.373-0.185
	c0.822-0.226,0.37-0.946-0.411-1.193C97.558,15.962,95.974,16.271,95.604,17.627L95.604,17.627z"/>
<path fill-rule="evenodd" clip-rule="evenodd" fill="#2E2C2C" stroke="#2E2C2C" stroke-width="0" stroke-linecap="square" stroke-miterlimit="10" d="
	M124.44,31.265c-0.514-1.563-2.283-2.345-3.866-2.715c-1.008-0.247-2.036-0.556-3.106-0.35c-0.185,0.041-0.144-0.72-0.082-0.7
	c1.214,0.309,2.715,0.063,3.785,0.598c0.72,0.37,1.337,0.74,2.016,1.193C124.03,29.826,124.05,30.545,124.44,31.265L124.44,31.265z"
	/>
<path fill-rule="evenodd" clip-rule="evenodd" fill="#FFFFFF" d="M96.755,13.165c-5.348-2.88-15.838-3.373-21.433-3.373
	c-1.604,0-11.745,1.254-16.518,4.072C68.061,21.701,88.527,19.252,96.755,13.165L96.755,13.165z"/>
<path fill-rule="evenodd" clip-rule="evenodd" fill="#2E2C2C" stroke="#2E2C2C" stroke-width="0" stroke-linecap="square" stroke-miterlimit="10" d="
	M118.126,39.184c0.638-1.501-0.185-3.27-1.131-4.586c-0.597-0.844-1.151-1.749-2.098-2.305c-0.186-0.103,0.35-0.638,0.391-0.576
	c0.72,1.009,1.995,1.831,2.447,2.941c0.309,0.741,0.535,1.44,0.762,2.223C118.764,37.827,118.291,38.382,118.126,39.184
	L118.126,39.184z"/>
<path fill-rule="evenodd" clip-rule="evenodd" fill="#2E2C2C" stroke="#2E2C2C" stroke-width="0" stroke-linecap="square" stroke-miterlimit="10" d="
	M109.056,43.627c1.008-1.296,0.658-3.209,0.082-4.73c-0.37-0.967-0.679-1.975-1.46-2.757c-0.124-0.144,0.514-0.534,0.534-0.452
	c0.433,1.151,1.481,2.262,1.625,3.477c0.103,0.781,0.145,1.521,0.165,2.324C110.022,42.475,109.426,42.887,109.056,43.627
	L109.056,43.627z"/>
<path fill-rule="evenodd" clip-rule="evenodd" fill="#71845E" d="M36.548,89.044c1.069,1.255,3.024,1.275,4.629,1.008
	c1.028-0.165,2.077-0.288,2.982-0.885c0.164-0.103,0.432,0.597,0.349,0.597C43.295,89.97,42,90.772,40.786,90.69
	c-0.802-0.062-1.521-0.165-2.324-0.309C37.495,90.217,37.207,89.558,36.548,89.044L36.548,89.044z"/>
<path fill-rule="evenodd" clip-rule="evenodd" fill="#71845E" d="M36.548,6.521c5.431,1.749,15.099,14.007,16.888,12.794
	c0.164-0.104,0.432,0.617,0.35,0.617C50.186,20.508,44.056,10.408,36.548,6.521L36.548,6.521z"/>
<path fill-rule="evenodd" clip-rule="evenodd" fill="#71845E" d="M37.68,15.859c3.312,0.37,10.243,6.293,11.148,5.389
	c0.082-0.082,0.309,0.309,0.268,0.309C47.101,22.297,42.431,17.217,37.68,15.859L37.68,15.859z"/>
<path fill-rule="evenodd" clip-rule="evenodd" fill="#71845E" d="M104.941,26.02c0.885-4.484-4.792-11.169-8.865-12.526
	c-0.37-0.123,0.432-1.378,0.535-1.275C101.897,17.155,104.941,18.204,104.941,26.02L104.941,26.02z"/>
<path fill-rule="evenodd" clip-rule="evenodd" fill="#2E2C2C" d="M74.231,41.858c0.392-0.945,1.955,0.124,5.945,4.629
	c0.781,3.291-2.654,2.469-3.95,2.201c-1.851-1.152-5.327-3.621-5.491-4.279C70.488,43.319,72.154,42.908,74.231,41.858
	L74.231,41.858z"/>
<path fill-rule="evenodd" clip-rule="evenodd" fill="#FFFFFF" d="M74.047,41.838c0.37-0.885,1.83,0.123,5.574,4.34
	c0.74,3.086-1.893,2.427-3.106,2.18c-1.728-1.069-5.121-3.496-5.266-4.113C71.002,43.215,72.113,42.825,74.047,41.838L74.047,41.838
	z"/>
<path fill-rule="evenodd" clip-rule="evenodd" fill="#71845E" d="M27.951,62.962c-0.967,0-2.14,0.493-2.14,1.687
	s1.214,2.694,2.201,2.694c0.967,0,1.913-0.967,1.913-2.159C29.925,63.991,28.938,62.962,27.951,62.962L27.951,62.962z"/>
<path fill-rule="evenodd" clip-rule="evenodd" fill="#EC7A23" d="M27.765,63.25c-0.781,0-1.707,0.391-1.707,1.337
	c0,0.967,0.946,2.16,1.728,2.16c0.782,0,1.522-0.761,1.522-1.728C29.308,64.073,28.547,63.25,27.765,63.25L27.765,63.25z"/>
<path fill-rule="evenodd" clip-rule="evenodd" fill="#2E2C2C" stroke="#2E2C2C" stroke-width="0" stroke-linecap="square" stroke-miterlimit="10" d="
	M70.94,44.533c1.049-1.995,3.683-2.941,4.978-2.407c0.145,0.063,0.083-0.576,0.021-0.555c-2.078-0.823-4.711,0.699-5.555,3.209
	C70.488,44.799,70.838,44.491,70.94,44.533L70.94,44.533z"/>
<path fill-rule="evenodd" clip-rule="evenodd" fill="#71845E" d="M27.951,67.118c-0.967,0-2.839,7.733-2.839,8.927
	s5.41,0.699,6.459-0.144c1.028-0.844-1.852-4.916-1.852-6.109C29.719,68.578,28.938,67.118,27.951,67.118L27.951,67.118z"/>
<path fill-rule="evenodd" clip-rule="evenodd" fill="#EC7A23" d="M28.033,67.837c-0.822,0-2.427,6.562-2.427,7.569
	c0,1.028,4.607,0.597,5.492-0.103c0.884-0.72-1.563-4.176-1.563-5.204C29.535,69.092,28.856,67.837,28.033,67.837L28.033,67.837z"/>
<path fill-rule="evenodd" clip-rule="evenodd" fill="#FFFFFF" d="M28.321,63.25c-0.493,0-1.09,0.247-1.09,0.863
	c0,0.617,0.617,1.379,1.11,1.379s0.967-0.494,0.967-1.111C29.308,63.786,28.815,63.25,28.321,63.25L28.321,63.25z"/>
<path fill-rule="evenodd" clip-rule="evenodd" fill="#71845E" d="M28.423,69.544c0.844,0.371,1.729,7.117,1.954,6.232
	c0.021-0.082-0.35,0.268-0.35,0.288C29.514,76.785,29.637,70.902,28.423,69.544L28.423,69.544z"/>
<path fill-rule="evenodd" clip-rule="evenodd" fill="#71845E" d="M28.423,69.544c0.227,0.371,0.474,7.405,0.535,6.5
	c0-0.082-0.35,0.104-0.35,0.124C28.465,76.909,28.752,70.902,28.423,69.544L28.423,69.544z"/>
<path fill-rule="evenodd" clip-rule="evenodd" fill="#71845E" d="M27.724,68.866c0.227,0.391-0.576,8.187-0.514,7.303
	c0.021-0.083-0.329,0.103-0.329,0.103C26.737,77.011,28.053,70.245,27.724,68.866L27.724,68.866z"/>
<path fill-rule="evenodd" clip-rule="evenodd" fill="#71845E" d="M17.295,68.084c-0.843,0-1.871,0.432-1.871,1.48
	s1.069,2.366,1.912,2.366c0.864,0,1.688-0.844,1.688-1.893C19.024,68.989,18.16,68.084,17.295,68.084L17.295,68.084z"/>
<path fill-rule="evenodd" clip-rule="evenodd" fill="#EC7A23" d="M17.131,68.332c-0.699,0-1.502,0.35-1.502,1.192
	c0,0.823,0.844,1.893,1.522,1.893c0.699,0,1.357-0.679,1.357-1.522C18.509,69.051,17.81,68.332,17.131,68.332L17.131,68.332z"/>
<path fill-rule="evenodd" clip-rule="evenodd" fill="#71845E" d="M17.295,71.725c-0.843,0-2.488,6.809-2.488,7.857
	s4.751,0.597,5.677-0.144c0.905-0.721-1.625-4.32-1.625-5.369S18.16,71.725,17.295,71.725L17.295,71.725z"/>
<path fill-rule="evenodd" clip-rule="evenodd" fill="#EC7A23" d="M17.378,72.363c-0.74,0-2.14,5.78-2.14,6.664
	c0,0.885,4.053,0.515,4.813-0.103c0.781-0.638-1.358-3.661-1.358-4.566C18.694,73.473,18.098,72.363,17.378,72.363L17.378,72.363z"
	/>
<path fill-rule="evenodd" clip-rule="evenodd" fill="#FFFFFF" d="M17.625,68.332c-0.452,0-0.967,0.226-0.967,0.761
	s0.535,1.214,0.987,1.214c0.433,0,0.864-0.433,0.864-0.968C18.509,68.804,18.057,68.332,17.625,68.332L17.625,68.332z"/>
<path fill-rule="evenodd" clip-rule="evenodd" fill="#71845E" d="M17.708,73.864c0.74,0.329,1.521,6.253,1.728,5.472
	c0.021-0.062-0.309,0.247-0.309,0.247C18.674,80.241,18.777,75.057,17.708,73.864L17.708,73.864z"/>
<path fill-rule="evenodd" clip-rule="evenodd" fill="#71845E" d="M17.708,73.864c0.205,0.329,0.411,6.5,0.473,5.719
	c0-0.062-0.309,0.082-0.309,0.103C17.749,80.343,17.996,75.057,17.708,73.864L17.708,73.864z"/>
<path fill-rule="evenodd" clip-rule="evenodd" fill="#71845E" d="M17.09,73.268c0.205,0.329-0.494,7.199-0.433,6.417
	c0-0.062-0.309,0.083-0.309,0.103C16.226,80.425,17.378,74.481,17.09,73.268L17.09,73.268z"/>
<path fill-rule="evenodd" clip-rule="evenodd" fill="#71845E" d="M6.106,66.5c-0.761,0-1.646,0.37-1.646,1.275
	c0,0.925,0.926,2.077,1.666,2.077c0.762,0,1.461-0.74,1.461-1.666C7.587,67.282,6.846,66.5,6.106,66.5L6.106,66.5z"/>
<path fill-rule="evenodd" clip-rule="evenodd" fill="#EC7A23" d="M5.942,66.727c-0.597,0-1.296,0.287-1.296,1.008
	c0,0.74,0.74,1.646,1.337,1.646s1.151-0.576,1.151-1.316C7.134,67.343,6.538,66.727,5.942,66.727L5.942,66.727z"/>
<path fill-rule="evenodd" clip-rule="evenodd" fill="#71845E" d="M6.106,69.668c-0.761,0-2.18,5.902-2.18,6.809
	c0,0.925,4.134,0.534,4.936-0.104c0.782-0.638-1.418-3.765-1.418-4.669C7.444,70.799,6.846,69.668,6.106,69.668L6.106,69.668z"/>
<path fill-rule="evenodd" clip-rule="evenodd" fill="#EC7A23" d="M6.168,70.223c-0.639,0-1.852,4.999-1.852,5.78
	s3.496,0.452,4.176-0.082c0.678-0.556-1.193-3.188-1.193-3.97C7.299,71.169,6.785,70.223,6.168,70.223L6.168,70.223z"/>
<path fill-rule="evenodd" clip-rule="evenodd" fill="#FFFFFF" d="M6.374,66.727c-0.37,0-0.844,0.185-0.844,0.638
	c0,0.473,0.474,1.069,0.864,1.069s0.74-0.391,0.74-0.844C7.134,67.118,6.764,66.727,6.374,66.727L6.374,66.727z"/>
<path fill-rule="evenodd" clip-rule="evenodd" fill="#71845E" d="M6.456,71.519c0.638,0.288,1.316,5.431,1.481,4.752
	c0.021-0.063-0.247,0.206-0.268,0.227C7.279,77.052,7.381,72.569,6.456,71.519L6.456,71.519z"/>
<path fill-rule="evenodd" clip-rule="evenodd" fill="#71845E" d="M6.456,71.519c0.165,0.288,0.35,5.656,0.411,4.979
	c0-0.063-0.267,0.062-0.267,0.082C6.498,77.134,6.703,72.569,6.456,71.519L6.456,71.519z"/>
<path fill-rule="evenodd" clip-rule="evenodd" fill="#71845E" d="M5.921,71.005c0.185,0.288-0.433,6.253-0.392,5.574
	c0.021-0.063-0.246,0.082-0.246,0.082C5.16,77.238,6.168,72.054,5.921,71.005L5.921,71.005z"/>
<path fill-rule="evenodd" clip-rule="evenodd" fill="#71845E" d="M35.047,52.39c-0.762,0-1.646,0.349-1.646,1.275
	c0,0.905,0.926,2.057,1.667,2.057c0.761,0,1.46-0.741,1.46-1.646S35.788,52.39,35.047,52.39L35.047,52.39z"/>
<path fill-rule="evenodd" clip-rule="evenodd" fill="#EC7A23" d="M34.882,52.595c-0.597,0-1.296,0.31-1.296,1.028
	c0,0.721,0.74,1.646,1.337,1.646s1.152-0.598,1.152-1.316C36.076,53.233,35.479,52.595,34.882,52.595L34.882,52.595z"/>
<path fill-rule="evenodd" clip-rule="evenodd" fill="#71845E" d="M35.047,55.538c-0.762,0-2.181,5.902-2.181,6.828
	c0,0.905,4.134,0.535,4.937-0.123c0.781-0.638-1.419-3.744-1.419-4.648C36.384,56.668,35.788,55.538,35.047,55.538L35.047,55.538z"
	/>
<path fill-rule="evenodd" clip-rule="evenodd" fill="#EC7A23" d="M35.088,56.092c-0.617,0-1.831,5.02-1.831,5.801
	c0,0.761,3.497,0.452,4.176-0.104c0.679-0.534-1.193-3.188-1.193-3.949C36.24,57.059,35.726,56.092,35.088,56.092L35.088,56.092z"/>
<path fill-rule="evenodd" clip-rule="evenodd" fill="#FFFFFF" d="M35.314,52.595c-0.391,0-0.843,0.186-0.843,0.659
	c0,0.473,0.473,1.049,0.864,1.049c0.369,0,0.74-0.371,0.74-0.844C36.076,53.007,35.705,52.595,35.314,52.595L35.314,52.595z"/>
<path fill-rule="evenodd" clip-rule="evenodd" fill="#71845E" d="M35.397,57.409c0.637,0.288,1.316,5.431,1.48,4.752
	c0.021-0.063-0.246,0.205-0.268,0.205C36.219,62.942,36.322,58.437,35.397,57.409L35.397,57.409z"/>
<path fill-rule="evenodd" clip-rule="evenodd" fill="#71845E" d="M35.397,57.409c0.164,0.288,0.35,5.637,0.391,4.957
	c0.021-0.062-0.247,0.082-0.247,0.104C35.417,63.024,35.643,58.437,35.397,57.409L35.397,57.409z"/>
<path fill-rule="evenodd" clip-rule="evenodd" fill="#71845E" d="M34.862,56.895c0.165,0.287-0.432,6.252-0.391,5.553
	c0-0.061-0.247,0.083-0.268,0.104C34.101,63.106,35.109,57.922,34.862,56.895L34.862,56.895z"/>
<path fill-rule="evenodd" clip-rule="evenodd" fill="#875B8F" d="M31.242,102.126c-1.296,0-5.327,2.365-4.176,5.101
	c1.152,2.736,2.941,0.699,4.237,0.699s2.53-1.275,2.53-2.858C33.833,103.484,32.538,102.126,31.242,102.126L31.242,102.126z"/>
<path fill-rule="evenodd" clip-rule="evenodd" fill="#875B8F" d="M22.973,101.941c-1.296,0-5.719,2.366-4.566,5.102
	c1.151,2.735,4.689,1.46,5.985,1.46s2.53-1.275,2.53-2.858C26.922,104.06,24.269,101.941,22.973,101.941L22.973,101.941z"/>
<path fill-rule="evenodd" clip-rule="evenodd" fill="#875B8F" d="M14.704,100.79c-1.296,0-5.512,1.604-4.36,4.34
	c1.151,2.715,4.094,2.612,5.389,2.612c1.297,0,2.53-1.296,2.53-2.859C18.262,103.298,16,100.79,14.704,100.79L14.704,100.79z"/>
<path fill-rule="evenodd" clip-rule="evenodd" fill="#D98BBB" d="M31.448,102.023c-1.193,0-4.916,2.181-3.847,4.711
	c1.069,2.51,2.715,0.638,3.908,0.638s2.324-1.193,2.324-2.633C33.833,103.278,32.64,102.023,31.448,102.023L31.448,102.023z"/>
<path fill-rule="evenodd" clip-rule="evenodd" fill="#D98BBB" d="M23.837,101.838c-1.193,0-5.267,2.201-4.217,4.71
	c1.068,2.53,4.319,1.358,5.512,1.358c1.193,0,2.324-1.193,2.324-2.654C27.457,103.813,25.03,101.838,23.837,101.838L23.837,101.838z
	"/>
<path fill-rule="evenodd" clip-rule="evenodd" fill="#D98BBB" d="M16.226,100.79c-1.192,0-5.101,1.46-4.031,3.99
	c1.049,2.509,3.764,2.406,4.957,2.406s2.345-1.172,2.345-2.633C19.497,103.093,17.418,100.79,16.226,100.79L16.226,100.79z"/>
<path fill-rule="evenodd" clip-rule="evenodd" fill="#875B8F" d="M68.41,104.615c-1.151,0.021-4.71,2.201-3.64,4.607
	c1.069,2.407,2.633,0.576,3.784,0.556c1.152-0.021,2.222-1.193,2.201-2.592C70.735,105.767,69.563,104.594,68.41,104.615
	L68.41,104.615z"/>
<path fill-rule="evenodd" clip-rule="evenodd" fill="#875B8F" d="M61.046,104.574c-1.151,0.021-5.06,2.201-3.97,4.628
	c1.069,2.407,4.176,1.214,5.327,1.193c1.153-0.021,2.222-1.173,2.202-2.592C64.585,106.405,62.199,104.553,61.046,104.574
	L61.046,104.574z"/>
<path fill-rule="evenodd" clip-rule="evenodd" fill="#875B8F" d="M53.107,104.43c-1.152,0.021-4.875,1.521-3.806,3.929
	c1.07,2.406,3.682,2.263,4.834,2.242c1.151-0.021,2.242-1.193,2.201-2.592C56.315,106.611,54.279,104.41,53.107,104.43
	L53.107,104.43z"/>
<path fill-rule="evenodd" clip-rule="evenodd" fill="#D98BBB" d="M68.575,104.512c-1.049,0.021-4.319,2.016-3.332,4.258
	c0.987,2.222,2.427,0.515,3.476,0.494c1.07-0.021,2.058-1.091,2.037-2.387S69.645,104.492,68.575,104.512L68.575,104.512z"/>
<path fill-rule="evenodd" clip-rule="evenodd" fill="#D98BBB" d="M61.807,104.492c-1.069,0.021-4.648,2.016-3.661,4.237
	s3.847,1.131,4.916,1.11c1.05-0.021,2.057-1.09,2.016-2.386C65.058,106.158,62.877,104.471,61.807,104.492L61.807,104.492z"/>
<path fill-rule="evenodd" clip-rule="evenodd" fill="#D98BBB" d="M54.279,104.594c-1.069,0.021-4.505,1.379-3.517,3.62
	c0.987,2.222,3.394,2.078,4.442,2.058c1.07-0.021,2.057-1.091,2.037-2.386C57.22,106.589,55.329,104.574,54.279,104.594
	L54.279,104.594z"/>
<path fill-rule="evenodd" clip-rule="evenodd" fill="#2E2C2C" d="M64.907,38.492c-1.296,0.082-2.674,1.439-2.962,1.522
	c-0.823,0.206-0.761-0.576-0.206-1.152C62.48,38.122,63.981,37.607,64.907,38.492L64.907,38.492z"/>
<path fill-rule="evenodd" clip-rule="evenodd" fill="#D98BBB" d="M93.978,11.972c-5.348-1.934-13.061-2.18-18.655-2.18
	c-1.604,0-9.935,1.11-14.708,3.002C69.871,18.04,85.729,16.064,93.978,11.972L93.978,11.972z"/>
<path fill-rule="evenodd" clip-rule="evenodd" fill="#FFFFFF" d="M85.895,10.265c-2.16-0.227-4.34-0.35-6.418-0.412
	c1.07,0.802,2.387,2.324,3.188,2.324C83.262,12.177,86.038,11.251,85.895,10.265L85.895,10.265z M77.853,9.812
	c-0.885-0.02-1.729-0.02-2.53-0.02c-0.597,0-2.14,0.144-4.073,0.432c-0.864,0.329-1.728,0.288-2.304,0.966
	c0.186,4.217,2.427,2.674,4.772-0.123c0.267-0.309,2.098-1.275,2.057-0.432c-0.021,0.72-1.357,2.818,0.062,3.292
	c2.304,0.761,1.604-2.304,1.872-3.682C77.749,10.059,77.79,9.915,77.853,9.812L77.853,9.812z"/>
<path fill-rule="evenodd" clip-rule="evenodd" fill="#FFFFFF" d="M19.024,35.359c0,1.522-1.749,2.55-1.749,4.628
	c0,3.929,4.854-2.674,7.405-1.954c4.689,1.378,1.789,7.96-4.094,6.006c-1.439-0.493-4.175-0.657-3.579,1.667
	c0.885,3.455,9.03,1.893,6.727,6.664c-0.926,1.934-4.196,2.303-5.513,0.535c-0.863-1.152-1.419-5.574-3.97-3.024
	c-1.357,1.378-0.699,9.174-4.031,7.405c-3.477-1.831,0.926-4.69,0.534-6.191c-0.35-1.337-1.213-2.612-2.55-1.275
	c-0.803,0.803-1.132,1.811-2.16,2.345C3,53.768,5.592,48.708,6.25,48.008c1.254-1.398,7.384-1.09,5.779-3.496
	c-0.802-1.214-3.661-2.592-1.069-4.32c1.584-1.049,1.975,1.646,2.489,2.16c0.596,0.597,1.48-1.81,1.48-2.283
	C14.93,35.893,15.753,32.706,19.024,35.359L19.024,35.359z"/>
<path fill-rule="evenodd" clip-rule="evenodd" fill="#726656" d="M73.902,29.084c0.206-1.172,1.872-2.139,1.975-2.386
	c0.329-0.698-0.946-0.679-0.781-0.411C75.384,26.719,74.149,27.974,73.902,29.084L73.902,29.084z"/>
<path fill-rule="evenodd" clip-rule="evenodd" fill="#2E2C2C" d="M75.815,19.994c-3.949,0-4.011,2.077-4.607,4.505
	c-1.008,4.135,4.237,4.484,7.487,4.195c3.25-0.268,4.176-0.144,5.636-2.488C85.792,23.881,79.765,19.994,75.815,19.994
	L75.815,19.994z"/>
<path fill-rule="evenodd" clip-rule="evenodd" fill="#2E2C2C" d="M72.895,30.196c0.124-1.131,1.296-1.995,1.357-2.222
	c0.227-0.679-0.802-1.028-0.658-0.761C73.8,27.645,73.038,29.126,72.895,30.196L72.895,30.196z"/>
<path fill-rule="evenodd" clip-rule="evenodd" fill="#2E2C2C" d="M77.688,31.985c-0.515-1.109,0.103-2.57,0.041-2.838
	c-0.185-0.74-1.316-0.494-1.049-0.329C77.132,29.106,77.235,30.916,77.688,31.985L77.688,31.985z"/>
<path fill-rule="evenodd" clip-rule="evenodd" fill="#2E2C2C" d="M81.76,30.237c-0.72-0.617-0.72-1.83-0.843-1.995
	c-0.35-0.474-1.091,0.041-0.844,0.083C80.484,28.385,81.102,29.62,81.76,30.237L81.76,30.237z"/>
<path fill-rule="evenodd" clip-rule="evenodd" fill="#FFFFFF" d="M76.33,20.466c-2.16,0-4.237,0.638-4.525,4.505
	s6.232,3.949,7.796,3.62s4.566-1.049,4.566-3.168C84.167,23.305,78.489,20.466,76.33,20.466L76.33,20.466z"/>
<path fill-rule="evenodd" clip-rule="evenodd" fill="#A6CE39" d="M77.584,22.092c-2.057,0-3.105,0.164-4.36,2.961
	c-1.234,2.798,2.365,4.299,4.978,3.805c2.613-0.514,3.538-1.624,3.538-3.311C81.739,23.86,79.621,22.092,77.584,22.092
	L77.584,22.092z"/>
<path fill-rule="evenodd" clip-rule="evenodd" fill="#2E2C2C" d="M76.371,23.573c-1.173,0-2.571,0.576-2.571,2.016
	s1.44,3.27,2.633,3.27c1.172,0,2.304-1.172,2.304-2.611S77.544,23.573,76.371,23.573L76.371,23.573z"/>
<path fill-rule="evenodd" clip-rule="evenodd" fill="#FFFFFF" d="M78.182,24.417c-0.494,0-1.111,0.205-1.111,0.678
	c0,0.494,0.638,1.111,1.152,1.111c0.493,0,0.987-0.391,0.987-0.885S78.695,24.417,78.182,24.417L78.182,24.417z"/>
<path fill-rule="evenodd" clip-rule="evenodd" fill="#2E2C2C" d="M71.887,22.625c0.987,0.434,4.176-1.109,6.007-0.514
	c1.83,0.597,3.578,1.029,4.442,0.535c-1.687-1.255-4.731-2.181-6.006-2.181C75.055,20.466,72.73,20.817,71.887,22.625L71.887,22.625
	z"/>
<path fill-rule="evenodd" clip-rule="evenodd" fill="#F4BB19" d="M72.565,22.174c0.987,0.35,3.497-0.885,5.328-0.433
	c1.83,0.474,3.126,1.11,3.99,0.72c-1.687-0.967-4.279-1.995-5.554-1.995C75.055,20.466,73.409,20.754,72.565,22.174L72.565,22.174z"
	/>
<path fill-rule="evenodd" clip-rule="evenodd" fill="#726656" d="M102.083,29.106c-0.186-1.07-1.563-1.975-1.667-2.222
	c-0.267-0.658,0.803-0.638,0.658-0.392C100.848,26.905,101.877,28.078,102.083,29.106L102.083,29.106z"/>
<path fill-rule="evenodd" clip-rule="evenodd" fill="#2E2C2C" d="M100.107,21.68c2.284,0,3.559,0.885,4.073,3.168
	c0.844,3.826-2.612,4.587-6.13,3.908c-3.497-0.699-4.957-0.947-4.957-3.064C93.094,23.593,97.804,21.68,100.107,21.68L100.107,21.68
	z"/>
<path fill-rule="evenodd" clip-rule="evenodd" fill="#FFFFFF" d="M99.244,22.338c1.81,0,4.36-0.68,4.607,2.941
	c0.227,3.6-5.019,3.436-6.829,3.436c-1.831,0-3.559-1.029-3.559-3.004C93.464,23.716,97.413,22.338,99.244,22.338L99.244,22.338z"/>
<path fill-rule="evenodd" clip-rule="evenodd" fill="#F4BB19" d="M99.244,22.338c1.707,0,4.072-0.597,4.546,2.345
	c-1.852,0.185-5.637-0.021-7.467-1.687C97.372,22.565,98.483,22.338,99.244,22.338L99.244,22.338z"/>
<path fill-rule="evenodd" clip-rule="evenodd" fill="#FFFFFF" d="M99.244,22.338c1.707,0,4.072-0.597,4.546,2.345
	c-1.852,0.185-5.637-0.021-7.467-1.687C97.372,22.565,98.483,22.338,99.244,22.338L99.244,22.338z"/>
<path fill-rule="evenodd" clip-rule="evenodd" fill="#2E2C2C" d="M99.244,22.338c1.707,0,4.072-0.597,4.546,2.345
	c-0.823-0.658-1.316-0.575-2.633-1.09c-1.42-0.556-3.888-0.37-4.834-0.597C97.372,22.565,98.483,22.338,99.244,22.338L99.244,22.338
	z"/>
<path fill-rule="evenodd" clip-rule="evenodd" fill="#F4BB19" d="M99.244,22.338c1.707,0,4.072-0.597,4.546,2.345
	c-0.823-0.658-1.461-1.028-2.798-1.542c-1.398-0.556-3.723,0.082-4.669-0.145C97.372,22.565,98.483,22.338,99.244,22.338
	L99.244,22.338z"/>
<path fill-rule="evenodd" clip-rule="evenodd" fill="#A6CE39" d="M97.989,23.12c-1.584,0-2.407,0.123-3.373,2.448
	c-0.968,2.304,1.83,3.559,3.846,3.126c2.037-0.411,2.736-1.336,2.736-2.735C101.198,24.581,99.573,23.12,97.989,23.12L97.989,23.12z
	"/>
<path fill-rule="evenodd" clip-rule="evenodd" fill="#2E2C2C" d="M97.043,24.333c-0.905,0-1.995,0.493-1.995,1.667
	c0,1.192,1.132,2.693,2.036,2.693c0.926,0,1.79-0.945,1.79-2.139S97.969,24.333,97.043,24.333L97.043,24.333z"/>
<path fill-rule="evenodd" clip-rule="evenodd" fill="#FFFFFF" d="M98.462,25.033c-0.411,0-0.863,0.165-0.863,0.576
	c0,0.392,0.473,0.905,0.885,0.905c0.391,0,0.761-0.329,0.761-0.74C99.244,25.383,98.853,25.033,98.462,25.033L98.462,25.033z"/>
<path fill-rule="evenodd" clip-rule="evenodd" fill="#71845E" d="M34.78,21.968c3.312,0.37,10.264,6.294,11.148,5.39
	c0.082-0.063,0.309,0.308,0.268,0.328C44.2,28.407,39.531,23.346,34.78,21.968L34.78,21.968z"/>
<path fill-rule="evenodd" clip-rule="evenodd" fill="#2E2C2C" d="M66.032,45.75c18.153,24.58,33.275,12.401,35.785,10.51
	c-1.234,1.934-12.061,2.707-14.158,2.605c-3.003-0.207-4.624-0.141-7.318-1.58L66.032,45.75z"/>
<path fill-rule="evenodd" clip-rule="evenodd" d="M66.9,46.358c16.064,13.74,27.483,11.059,36.604,9.394
	c-2.421,0.441-9.544,4.854-12.177,4.689c-3.723-0.329-8.228,0.988-24.21-14.439L66.9,46.358z"/>
<path fill-rule="evenodd" clip-rule="evenodd" fill="#FFFFFF" d="M67.509,47.401c15.145,12.953,26.702,10.188,35.301,8.618
	c-2.282,0.416-4.467,3.715-11.479,4.421c-3.506,0.353-7.017,3.155-22.084-11.389L67.509,47.401z"/>
<path fill-rule="evenodd" clip-rule="evenodd" fill="#71845E" d="M88.813,17.542c-0.493,0-1.09,0.247-1.09,0.864
	c0,0.617,0.617,1.398,1.132,1.398c0.493,0,0.987-0.494,0.987-1.111C89.843,18.078,89.328,17.542,88.813,17.542L88.813,17.542z"/>
<path fill-rule="evenodd" clip-rule="evenodd" fill="#EC7A23" d="M88.711,17.707c-0.391,0-0.885,0.185-0.885,0.678
	c0,0.494,0.515,1.111,0.905,1.111c0.412,0,0.802-0.391,0.802-0.885S89.122,17.707,88.711,17.707L88.711,17.707z"/>
<path fill-rule="evenodd" clip-rule="evenodd" fill="#71845E" d="M88.813,19.682c-0.493,0-1.46,4.01-1.46,4.628
	c0,0.616,2.797,0.349,3.332-0.083s-0.946-2.529-0.946-3.146C89.739,20.442,89.328,19.682,88.813,19.682L88.813,19.682z"/>
<path fill-rule="evenodd" clip-rule="evenodd" fill="#EC7A23" d="M88.855,20.073c-0.433,0-1.255,3.394-1.255,3.908
	c0,0.514,2.386,0.309,2.839-0.063c0.452-0.37-0.803-2.159-0.803-2.674C89.637,20.71,89.287,20.073,88.855,20.073L88.855,20.073z"/>
<path fill-rule="evenodd" clip-rule="evenodd" fill="#FFFFFF" d="M88.999,17.707c-0.246,0-0.556,0.124-0.556,0.432
	s0.31,0.72,0.576,0.72c0.268,0,0.514-0.268,0.514-0.576S89.267,17.707,88.999,17.707L88.999,17.707z"/>
<path fill-rule="evenodd" clip-rule="evenodd" fill="#71845E" d="M89.061,20.936c0.433,0.206,0.885,3.683,1.008,3.229
	c0.021-0.041-0.164,0.145-0.185,0.145C89.616,24.701,89.698,21.657,89.061,20.936L89.061,20.936z"/>
<path fill-rule="evenodd" clip-rule="evenodd" fill="#71845E" d="M89.061,20.936c0.124,0.206,0.247,3.826,0.268,3.374
	c0-0.042-0.164,0.062-0.164,0.062C89.081,24.742,89.226,21.657,89.061,20.936L89.061,20.936z"/>
<path fill-rule="evenodd" clip-rule="evenodd" fill="#71845E" d="M88.711,20.607c0.103,0.186-0.309,4.217-0.268,3.765
	c0-0.041-0.185,0.041-0.185,0.062C88.197,24.803,88.876,21.307,88.711,20.607L88.711,20.607z"/>
<path fill-rule="evenodd" clip-rule="evenodd" fill="#71845E" d="M65.141,17.517c-0.493,0-1.09,0.246-1.09,0.864
	c0,0.617,0.617,1.398,1.132,1.398c0.493,0,0.987-0.494,0.987-1.111C66.17,18.052,65.655,17.517,65.141,17.517L65.141,17.517z"/>
<path fill-rule="evenodd" clip-rule="evenodd" fill="#EC7A23" d="M65.038,17.681c-0.391,0-0.885,0.186-0.885,0.679
	c0,0.494,0.515,1.111,0.905,1.111c0.412,0,0.802-0.391,0.802-0.885S65.449,17.681,65.038,17.681L65.038,17.681z"/>
<path fill-rule="evenodd" clip-rule="evenodd" fill="#71845E" d="M65.141,19.657c-0.493,0-1.46,4.01-1.46,4.628
	c0,0.616,2.797,0.349,3.332-0.083s-0.946-2.529-0.946-3.146C66.066,20.417,65.655,19.657,65.141,19.657L65.141,19.657z"/>
<path fill-rule="evenodd" clip-rule="evenodd" fill="#EC7A23" d="M65.183,20.047c-0.433,0-1.255,3.394-1.255,3.908
	c0,0.514,2.386,0.309,2.839-0.063c0.452-0.37-0.803-2.159-0.803-2.674C65.964,20.685,65.614,20.047,65.183,20.047L65.183,20.047z"/>
<path fill-rule="evenodd" clip-rule="evenodd" fill="#FFFFFF" d="M65.326,17.681c-0.246,0-0.556,0.124-0.556,0.433
	s0.31,0.72,0.576,0.72c0.268,0,0.514-0.268,0.514-0.576S65.594,17.681,65.326,17.681L65.326,17.681z"/>
<path fill-rule="evenodd" clip-rule="evenodd" fill="#71845E" d="M65.388,20.911c0.433,0.206,0.885,3.683,1.008,3.229
	c0.021-0.041-0.164,0.145-0.185,0.145C65.943,24.675,66.025,21.631,65.388,20.911L65.388,20.911z"/>
<path fill-rule="evenodd" clip-rule="evenodd" fill="#71845E" d="M65.388,20.911c0.124,0.206,0.247,3.826,0.268,3.374
	c0-0.042-0.164,0.062-0.164,0.062C65.408,24.716,65.553,21.631,65.388,20.911L65.388,20.911z"/>
<path fill-rule="evenodd" clip-rule="evenodd" fill="#71845E" d="M65.038,20.582c0.103,0.186-0.309,4.217-0.268,3.765
	c0-0.041-0.185,0.041-0.185,0.062C64.524,24.778,65.203,21.282,65.038,20.582L65.038,20.582z"/>
<path fill-rule="evenodd" clip-rule="evenodd" fill="#71845E" d="M58.876,14.683c-0.493,0-1.09,0.247-1.09,0.864
	c0,0.617,0.617,1.398,1.132,1.398c0.493,0,0.987-0.494,0.987-1.111C59.906,15.218,59.391,14.683,58.876,14.683L58.876,14.683z"/>
<path fill-rule="evenodd" clip-rule="evenodd" fill="#EC7A23" d="M58.774,14.848c-0.391,0-0.885,0.185-0.885,0.678
	c0,0.494,0.515,1.111,0.905,1.111c0.412,0,0.802-0.391,0.802-0.885S59.185,14.848,58.774,14.848L58.774,14.848z"/>
<path fill-rule="evenodd" clip-rule="evenodd" fill="#71845E" d="M58.876,16.823c-0.493,0-1.46,4.01-1.46,4.628
	c0,0.616,2.797,0.349,3.332-0.083s-0.946-2.529-0.946-3.146C59.802,17.583,59.391,16.823,58.876,16.823L58.876,16.823z"/>
<path fill-rule="evenodd" clip-rule="evenodd" fill="#EC7A23" d="M58.918,17.213c-0.433,0-1.255,3.394-1.255,3.908
	c0,0.514,2.386,0.309,2.839-0.063c0.452-0.37-0.803-2.159-0.803-2.674C59.7,17.851,59.35,17.213,58.918,17.213L58.918,17.213z"/>
<path fill-rule="evenodd" clip-rule="evenodd" fill="#FFFFFF" d="M59.062,14.848c-0.246,0-0.556,0.124-0.556,0.432
	S58.816,16,59.083,16c0.268,0,0.514-0.268,0.514-0.576S59.33,14.848,59.062,14.848L59.062,14.848z"/>
<path fill-rule="evenodd" clip-rule="evenodd" fill="#71845E" d="M59.124,18.077c0.433,0.206,0.885,3.683,1.008,3.229
	c0.021-0.041-0.164,0.145-0.185,0.145C59.679,21.841,59.761,18.797,59.124,18.077L59.124,18.077z"/>
<path fill-rule="evenodd" clip-rule="evenodd" fill="#71845E" d="M59.124,18.077c0.124,0.206,0.247,3.826,0.268,3.374
	c0-0.042-0.164,0.062-0.164,0.062C59.144,21.882,59.289,18.797,59.124,18.077L59.124,18.077z"/>
<path fill-rule="evenodd" clip-rule="evenodd" fill="#71845E" d="M58.774,17.748c0.103,0.186-0.309,4.217-0.268,3.765
	c0-0.041-0.185,0.041-0.185,0.062C58.26,21.944,58.939,18.448,58.774,17.748L58.774,17.748z"/>
<path fill-rule="evenodd" clip-rule="evenodd" fill="#71845E" d="M55.375,16.897c-0.56,5.679-10.495,17.722-8.932,19.214
	c0.136,0.138-0.512,0.552-0.529,0.472C44.59,33.188,53.165,25.058,55.375,16.897L55.375,16.897z"/>
</svg>
