<?xml version="1.0" encoding="utf-8"?>
<!-- Generator: Adobe Illustrator 13.0.0, SVG Export Plug-In . SVG Version: 6.00 Build 14948)  -->
<!DOCTYPE svg PUBLIC "-//W3C//DTD SVG 1.1//EN" "http://www.w3.org/Graphics/SVG/1.1/DTD/svg11.dtd">
<svg version="1.1" id="Layer_1" xmlns="http://www.w3.org/2000/svg" xmlns:xlink="http://www.w3.org/1999/xlink" x="0px" y="0px"
	 width="110.404px" height="85.582px" viewBox="0 0 110.404 85.582" enable-background="new 0 0 110.404 85.582"
	 xml:space="preserve">
<path fill-rule="evenodd" clip-rule="evenodd" fill="#F6EF7C" d="M53.623,28.98c0,0-0.476-0.624-2.083-3.313
	c-1.608-2.706-3.593-4.888-5.02-6.413c-1.411-1.509-4.429-3.068-6.742-4.938c-2.313-1.853-7.644-4.806-9.957-6.266
	c-2.296-1.477-7.415-3.28-10.121-4.642c-2.691-1.362-5.856-1.46-6.89-1.837c-1.05-0.378-6.496-0.132-8.218,0.295
	C2.887,2.292,2.034,3.67,1.723,5.047c-0.329,1.362-0.229,1.46-0.229,1.46s-0.739,2.969-0.739,4.266c0,1.296,0.476,2.378,1.493,3.74
	c1.017,1.377,2.231,5.216,2.493,6.102c0.279,0.901,0,2.608,0.131,3.23c0.115,0.624,0.64,1.297,0.886,2.232
	c0.246,0.95-0.312,3.279-0.066,4.592c0.246,1.313,0.672,4.069,2.707,6.086c2.034,2.002,3.772,1.574,5.954,1.936
	c2.165,0.361,3.707,0.131,4.347,0c0.64-0.132,2.509-0.196,3.149-0.246c0.624-0.049,0.624,0,0.656,0.165
	c0.016,0.163-2.969,2.049-3.264,2.197c-0.312,0.132-2.838,2.313-3.281,3.166c-2.56,4.822-4.495,2.197-3.478,8.513
	c0.131,0.756,0.098,2.772-0.115,3.593c-0.229,0.82-0.082,2.805,0.115,3.116c0.197,0.313,1.181,1.427,1.443,1.821
	c0.263,0.394-0.131,2.133-0.147,2.641c-0.016,0.492,0.624,0.82,1.443,1.411c0.82,0.59,1.033,1.395,1.05,1.607
	c0.033,0.197,0.066,1.673,0.246,2.247c0.164,0.591,3.363,2.739,3.576,3.019c0.213,0.263,0,1.525,0.196,1.984
	c0.197,0.443,1.903,1.69,3.051,2.034c1.165,0.328,1.132,0.541,1.132,1.197c0,0.673,0.525,1.411,1.329,2.083
	c0.788,0.689,1.181,0.656,2.018,0.805c5.036,0.902,2.034,3.461,5.15,5.265c0.591,0.328,1.509,0.313,1.673,0.198
	c0.165-0.116,0.476-0.624,0.952-0.854c0.492-0.229,0.968-0.132,1.083-0.165c0.098-0.016,0.032-0.344,0.196-0.59
	c0.165-0.262,0.788-1.017,1.034-1.362c0.246-0.327,2.1-7.955,2.903-8.939c0.82-1.001,2.313-2.788,2.904-3.379
	c0.606-0.591,1.542-1.147,2.247-1.442c0.688-0.296,2.69-3.873,3.018-4.314c0.328-0.443,2.871-5.578,2.986-5.906
	c0.13-0.327,0.361-0.278,0.672-0.295c0.329-0.017,0.558-0.853,0.673-1.46c0.131-0.607,0.787-1.969,0.853-2.034
	C54.246,54.684,54.492,26.258,53.623,28.98L53.623,28.98z"/>
<path fill-rule="evenodd" clip-rule="evenodd" fill="#F6EF7C" d="M52.245,29.243c0,0,0.738,1.87,0.82,2.066
	c0.082,0.196,0.377,0.936,0.525,1.101c0.147,0.179,0.344,0.344,0.213,0.459c-0.115,0.114-0.787,0.524-1.05,0.754
	c-0.262,0.213-0.689,0.459-0.672,0.655c0.016,0.198,0.328,0.771,0.442,0.969c0.131,0.196,0.493,0.656,0.459,0.983
	c-0.033,0.345-0.935,0.869-3.97,0.968c-3.035,0.1-8.628,0.296-12.253,0.296c-3.641,0-15.271,1.264-15.271,1.264
	c-0.017-0.165-0.017-0.214-0.64-0.165c-4.658,0.377-5.889,2.936-6.823,2.608c-10.417-3.691-8.907-8.989-9.153-10.284
	C4.625,29.62,5.2,27.308,4.954,26.373c-0.246-0.919-0.771-1.592-0.885-2.198c-0.131-0.607,0.147-2.313-0.131-3.183
	c-0.263-0.885-1.46-4.691-2.477-6.037C0.459,13.611,0,12.528,0,11.249c0-3.265,1.165-9.334,1.377-10.22
	c0.329-1.361,9.908,0.901,10.532,1.115c1.033,0.378,4.15,0.477,6.823,1.821c2.674,1.345,7.726,3.133,10.006,4.593
	c2.28,1.443,7.546,4.363,9.825,6.2c2.281,1.837,5.282,3.379,6.677,4.872c1.394,1.509,3.362,3.657,4.954,6.332
	C51.786,28.636,52.245,29.243,52.245,29.243L52.245,29.243z"/>
<path fill-rule="evenodd" clip-rule="evenodd" fill="#B99CC9" d="M55.181,27.16c-0.049-0.032-0.098-0.065-0.148-0.083
	c-0.181-0.049-0.41-0.508-0.689-1.246c-0.279-0.755-0.41-0.623-0.673-0.475c-0.262,0.146-0.115,0.869-0.147,1.196
	c-0.033,0.328-0.131,0.805-0.181,1.264c-0.049,0.442,0.065,1.001,0.065,1.164c-0.016,0.147-0.459,0.247-0.738,0.395
	c-0.279,0.147-0.361,0.36-0.361,0.36s-0.443-0.574-1.969-3.149c-1.525-2.56-3.412-4.626-4.756-6.053
	c-1.329-1.443-4.2-2.92-6.381-4.691c-2.198-1.756-7.25-4.561-9.432-5.938c-2.182-1.395-7.037-3.102-9.597-4.396
	c-2.559-1.296-5.544-1.396-6.528-1.739c-1-0.36-6.167-0.131-7.792,0.279C4.232,4.441,3.429,5.752,3.133,7.049
	C2.821,8.344,2.92,8.444,2.92,8.444s-0.706,2.82-0.706,4.034c0,1.23,0.443,2.265,1.411,3.56c0.968,1.297,2.116,4.938,2.379,5.774
	c0.262,0.854,0,2.477,0.115,3.067s0.606,1.214,0.836,2.116c0.246,0.886-0.295,3.101-0.066,4.347c0.246,1.246,0.64,3.855,2.56,5.757
	c1.936,1.903,3.592,1.493,5.642,1.839c2.067,0.344,3.527,0.131,4.134,0c0.606-0.132,2.378-0.181,2.985-0.23
	c0.59-0.049,0.59,0,0.623,0.147c0.017,0.165-2.822,1.952-3.1,2.084c-0.295,0.13-2.69,2.197-3.101,3.001
	c-2.428,4.577-4.265,2.101-3.297,8.071c0.115,0.721,0.099,2.624-0.115,3.411c-0.213,0.771-0.082,2.658,0.115,2.952
	c0.18,0.296,1.115,1.362,1.361,1.723c0.246,0.361-0.131,2.018-0.148,2.494c0,0.476,0.591,0.787,1.378,1.345
	c0.771,0.557,0.967,1.328,1,1.525c0.017,0.181,0.049,1.574,0.213,2.132c0.18,0.559,3.199,2.592,3.395,2.854
	c0.214,0.263,0,1.46,0.197,1.888c0.181,0.426,1.804,1.606,2.887,1.919c1.099,0.327,1.083,0.524,1.083,1.147
	c0,0.624,0.492,1.329,1.247,1.969c0.754,0.655,1.115,0.623,1.902,0.755c4.774,0.869,1.936,3.28,4.905,4.986
	c0.558,0.327,1.427,0.296,1.575,0.196c0.147-0.114,0.442-0.591,0.902-0.804c0.459-0.229,0.919-0.131,1.017-0.164
	c0.098-0.016,0.033-0.328,0.197-0.558c0.147-0.245,0.755-0.968,0.984-1.279c0.229-0.328,1.985-7.546,2.756-8.48
	c0.771-0.951,2.182-2.641,2.756-3.198c0.557-0.574,1.443-1.083,2.116-1.361c0.655-0.296,2.559-3.675,2.854-4.102
	c0.312-0.427,2.723-5.281,2.837-5.594c0.115-0.312,0.328-0.278,0.64-0.278c0.312-0.018,0.508-0.805,0.64-1.395
	c0.115-0.575,0.738-1.854,0.804-1.919c0.082-0.065,0.115,0.688,0.328,1.033c0.23,0.328,0.214-0.082,0.427,0.54
	c0.213,0.608,0.377,3.38,0.443,4.118c0.065,0.705,0.951,2.051,1.148,2.625V27.16z"/>
<path fill-rule="evenodd" clip-rule="evenodd" fill="#E080BE" d="M52.311,29.735c0,0,0.706,1.788,0.787,1.984
	c0.082,0.196,0.361,0.902,0.509,1.067c0.131,0.147,0.312,0.327,0.197,0.426c-0.115,0.115-0.755,0.508-1.001,0.722
	c-0.262,0.214-0.672,0.443-0.656,0.64c0.033,0.181,0.328,0.722,0.443,0.919c0.115,0.181,0.459,0.623,0.427,0.951
	c-0.017,0.328-0.886,0.82-3.806,0.919c-2.92,0.098-8.268,0.278-11.745,0.278c-3.494,0-14.632,1.214-14.632,1.214
	c-0.033-0.147-0.033-0.196-0.623-0.147c-4.462,0.345-5.643,2.82-6.545,2.493c-9.99-3.544-8.53-8.612-8.776-9.858
	c-0.229-1.246,0.312-3.461,0.066-4.347c-0.23-0.902-0.722-1.525-0.836-2.116s0.147-2.214-0.115-3.067
	c-0.263-0.836-1.411-4.478-2.379-5.774c-0.967-1.295-1.411-2.329-1.411-3.56c0-3.133,1.132-8.955,1.329-9.792
	c0.311-1.296,9.497,0.869,10.104,1.082c0.984,0.344,3.97,0.443,6.528,1.739c2.56,1.295,7.415,3.002,9.597,4.396
	c2.181,1.377,7.233,4.182,9.432,5.938c2.182,1.771,5.052,3.248,6.381,4.691c1.345,1.427,3.231,3.493,4.756,6.053
	C51.867,29.161,52.311,29.735,52.311,29.735L52.311,29.735z"/>
<path fill-rule="evenodd" clip-rule="evenodd" fill="#8E6B43" d="M53.344,28.389c0,0,0.344-0.131,0.574-0.622
	c0.246-0.492,0-0.869,0.509-0.657c0.525,0.198,0.606-0.033,0.606-0.033c-0.181-0.049-0.41-0.508-0.689-1.246
	c-0.279-0.755-0.41-0.623-0.673-0.475c-0.262,0.146-0.115,0.869-0.147,1.196c-0.033,0.328-0.131,0.82-0.181,1.264
	C53.327,27.997,53.327,28.209,53.344,28.389L53.344,28.389z"/>
<path fill-rule="evenodd" clip-rule="evenodd" fill="#D4D794" d="M33.266,14.89c0,0,0.148-0.805-0.542-1.51
	c-0.672-0.705-3.362-2.937-4.412-2.969c-1.066-0.017-2.543,0.197-3.691,0.623c-1.148,0.41-0.984-1.378-2.772-2.165
	c-1.788-0.804-3.904-1.936-5.413-2.689c-1.509-0.755-4.035-2.543-5.314-1.543C9.858,5.623,9.104,7.459,8.776,7.64
	C8.448,7.836,9.432,9.001,8.727,9.476C8.021,9.953,8.3,10.199,8.448,10.822c0.131,0.607,1.345,1.279,0.984,1.788
	c-0.345,0.492-1.05,0.771-0.64,1.805c0.426,1.033,1.165,1.213,1.165,1.574c0,0.345-0.378,1.017-0.049,1.952
	c0.328,0.935,0.935,1.476,0.82,2.296c-0.115,0.837-0.066,4.15-0.066,4.987c0,0.854,0.033,1.656,0.033,3.018
	c0,1.362-0.377,1.411-0.131,2.067c0.229,0.656,0,3.297,1.788,4.74c1.789,1.46,10.58,1.328,12.778,0.624
	c2.214-0.705,5.889-4.905,5.512-6.644c-0.377-1.739-0.574-2.674-0.935-3.527c-0.377-0.837,0.131-1.64,0.41-2.821
	c0.295-1.165,0.098-2.066,0.853-2.574c0.755-0.525,2.641-0.755,2.641-0.755s0.329-3.429,0-3.954
	C33.266,14.89,33.266,14.89,33.266,14.89L33.266,14.89z"/>
<path fill-rule="evenodd" clip-rule="evenodd" fill="#B99CC9" d="M18.076,13.479c-1.492-2.28-3.707-2.362-4.084-2.313
	c-0.377,0.05-0.049-2.592-1.887-2.115c-1.821,0.476-2.28,0.524-2.231,1.264c0.05,0.754,0.902,1.837,0.689,2.214
	c-0.213,0.377-0.82,0.164-0.476,1.246c0.361,1.083,1.46,2.444,1.296,2.806c-0.165,0.345,0.771,2.772,0.64,3.854
	c-0.148,1.082-0.985,3.953-0.854,5.363c0.148,1.411,2.214,5.545,2.346,7.104c0.148,1.542,1.279,3.018,2.362,3.1
	c1.066,0.099,3.149,0.428,2.198-0.705c-0.935-1.132-2.575-1.558-0.935-1.836c1.64-0.28,7.759-0.329,8.038-2.971
	c0.295-2.624,0.853-4.313,0.574-4.986c-0.278-0.656,0.657-1.066,0.181-2.903c-0.459-1.837-0.558-2.214-0.558-2.214
	s0.935-1.313,1.739-1.788s3.379,0.901,3.954-0.05c0.558-0.935,0.459-1.591,0.787-2.296c0.328-0.706,1.936-0.902,1.411-1.361
	c-0.508-0.476,0.558-0.524-0.542-1.51c-1.083-0.984-2.313-1.82-3.362-2.264c-1.034-0.443-1.706-0.705-2.313-0.377
	c-0.624,0.328-1.001-0.558-2.428,0.295c-1.427,0.837-1.936,0.902-2.821,1.361c-0.886,0.443-2.494,1.821-2.871,1.592
	C18.552,13.758,18.076,13.479,18.076,13.479L18.076,13.479z"/>
<path fill-rule="evenodd" clip-rule="evenodd" fill="#FF6CCB" d="M11.695,18.236c0,0,1.116-1.05,2.445-0.952
	c1.312,0.1,1.968,0.329,3.28-0.426c1.329-0.754,2.33-3.133,2.33-3.149c-0.377,0.229-0.672,0.361-0.82,0.279
	c-0.377-0.229-0.854-0.509-0.854-0.509c-1.492-2.28-3.707-2.362-4.084-2.313c-0.377,0.05-0.049-2.592-1.887-2.115
	c-1.821,0.476-2.28,0.524-2.231,1.264c0.05,0.754,0.902,1.837,0.689,2.214c-0.213,0.377-0.82,0.164-0.476,1.246
	c0.361,1.083,1.46,2.444,1.296,2.806C11.302,16.759,11.499,17.449,11.695,18.236L11.695,18.236z"/>
<path fill-rule="evenodd" clip-rule="evenodd" fill="#652D90" d="M16.879,13.693c-0.148-1.116-1.198-1.919-2.346-1.771
	s-1.984,1.164-1.837,2.279c0.131,1.115,1.181,1.903,2.33,1.772C16.19,15.826,17.01,14.808,16.879,13.693L16.879,13.693z"/>
<path fill-rule="evenodd" clip-rule="evenodd" fill="#FFF198" d="M14.927,13.183c-0.591,0-1.066,0.296-1.066,0.64
	c0,0.346,0.476,0.641,1.066,0.641c0.59,0,1.066-0.295,1.066-0.641C15.993,13.479,15.518,13.183,14.927,13.183L14.927,13.183z"/>
<path fill-rule="evenodd" clip-rule="evenodd" fill="#FF6CCB" d="M11.729,27.685c0-0.018,0.115-0.395,1.066-0.361
	c0.968,0.017,1.64-1.821,2.723-3.018c1.083-1.198,1.132-1.953,2.214-2.084c1.083-0.147,3.806,0.459,5.282,0.492
	c1.493,0.017,3.051,1.017,3.051,1.033c-0.049,0.902-0.525,1.263-0.312,1.755c0.279,0.673-0.278,2.362-0.574,4.986
	c-0.279,2.642-6.397,2.69-8.038,2.971c-1.641,0.278,0,0.704,0.935,1.836c0.378,0.442,0.279,0.672-0.049,0.771l-0.181,0.032l0,0
	c-0.033,0-0.41,0.017-0.837,0.017c-0.393-0.033-0.803-0.082-1.131-0.115c-0.049,0-0.115,0-0.164-0.016
	c-0.148-0.066-0.509-0.263-0.919-0.492c-0.655-0.591-1.18-1.574-1.279-2.592C13.418,31.818,12.385,29.472,11.729,27.685
	L11.729,27.685z"/>
<path fill-rule="evenodd" clip-rule="evenodd" fill="#D4D794" d="M16.535,24.568c0.23-0.164,2.116-0.672,2.969-0.607
	c0.836,0.065,2.411,0.395,3.231,1.542c0.82,1.164,0.951,2.575,0.656,3.085c-0.279,0.524-1.001,1.656-1.689,2.181
	c-0.673,0.559-1.69,1.41-2.46,1.329c-0.788-0.098-1.887-0.607-1.903-1.231c-0.033-0.606,0.181-0.704-0.542-0.935
	c-0.738-0.229-1.788-0.016-1.739-1.196c0.033-1.182,0.247-2.527,0.443-3.052C15.682,25.142,16.535,24.568,16.535,24.568
	L16.535,24.568z"/>
<path fill-rule="evenodd" clip-rule="evenodd" fill="#FFFFFF" d="M19.061,26.766c-0.492-0.049-0.919,0.196-0.952,0.558
	c-0.033,0.344,0.345,0.673,0.837,0.722c0.492,0.032,0.918-0.213,0.951-0.559C19.93,27.127,19.553,26.816,19.061,26.766
	L19.061,26.766z"/>
<path fill-rule="evenodd" clip-rule="evenodd" fill="#E0E487" d="M8.497,4.375c0.82-0.164,1.64-0.246,1.313,0.032
	C9.464,4.687,8.628,5.442,7.89,6.392c-0.738,0.952-1.279,2.97-1.427,3.659c-0.131,0.688-0.755,1.493-0.804,1.853
	c-0.066,0.345,0.213,0.902,0.984,1.674c0.754,0.755,1.279,2.264,1.46,2.969c0.196,0.688,1.066,2.854,0.984,3.379
	c-0.082,0.541,0.361,2.248,0.476,3.051c0.098,0.805-0.591,1.674-0.706,2.411c-0.115,0.755,0.328,2.051,0.246,2.593
	c-0.082,0.525-0.411,0.508-0.131,1.706c0.262,1.213,0.049,2.198,0.476,2.838c0.41,0.64,0.508,0.936,0.525,1.869
	c0.016,0.935,1.59,2.575,2.148,3.019c0.542,0.459,4.429,1.608,4.626,1.787c0.213,0.165-1.903,0.1-3.494-0.688
	c-1.575-0.803-3.805-2.443-4.38-4.199c-0.59-1.755-0.328-2.952-0.722-3.624c-0.377-0.673-0.509-1.083-0.131-1.641
	c0.377-0.559,0-0.887,0.164-2.264c0.148-1.378-0.492-1.313-0.377-2.051c0.115-0.755,0.459-1.034,0.64-1.952
	c0.181-0.918-0.394-2.133-0.738-3.543c-0.328-1.411-1.689-4.396-2.46-5.118c-0.771-0.722-1.197-1.427-0.918-2.788
	s1.066-4.658,2.198-5.676C7.677,4.654,8.497,4.375,8.497,4.375L8.497,4.375z"/>
<path fill-rule="evenodd" clip-rule="evenodd" fill="#EBDFA6" d="M14.353,10.526c-0.295-0.671-0.837-0.869-0.41-1.623
	c0.427-0.737,0.656-1.214,2.05-1.379c1.378-0.163,1.952-0.098,2.444,0.147c0.492,0.229-0.853,0.229-1.428,1.051
	c-0.59,0.82,0.247,1.887-0.787,2.116S14.353,10.526,14.353,10.526L14.353,10.526z"/>
<path fill-rule="evenodd" clip-rule="evenodd" fill="#6C417A" d="M29.739,60.474c1.247-1.262,4.281-1.081,5.314,0.346
	c1.148,1.591,0.886,4.478-0.049,6.43c-0.541,1.165-3.297,1.033-4.593,0.229C28.083,66.068,27.443,62.821,29.739,60.474
	L29.739,60.474z"/>
<path fill-rule="evenodd" clip-rule="evenodd" fill="#FFFFFF" d="M31.675,61.147c1.116-0.213,2.739,0.476,3.035,1.575
	c0.394,1.46-0.115,3.609-1.46,4.265c-1.246,0.606-3.346-0.377-3.806-1.689C28.837,63.559,29.952,61.493,31.675,61.147L31.675,61.147
	z"/>
<linearGradient id="SVGID_1_" gradientUnits="userSpaceOnUse" x1="18.2681" y1="57.7026" x2="36.623" y2="57.7026">
	<stop  offset="0" style="stop-color:#FFFFFF"/>
	<stop  offset="0.6905" style="stop-color:#FFFFFF"/>
	<stop  offset="0.9952" style="stop-color:#FFF0D7"/>
</linearGradient>
<path fill-rule="evenodd" clip-rule="evenodd" fill="url(#SVGID_1_)" d="M21.275,42.611c0,0.328,0.672,2.739-0.361,3.56
	c-1.05,0.837-1.919,1.87-1.985,2.642c-0.066,0.771,0.918,1.214,0.721,2.297c-0.18,1.083-1.476,2.1-1.377,2.805
	s1.525,1.247,1.689,2.297c0.164,1.065-0.394,2.115,0.115,2.804c0.525,0.689,1.87,0.525,2.149,1.526
	c0.278,1.017-0.214,2.165,0.623,2.969c0.853,0.787,1.624-0.36,2.034,0.787c0.394,1.165,0.623,3.035,1.657,3.248
	c1.05,0.213,2.576,0.574,2.657,1.985c0.099,1.41-0.36,2.066,1.001,2.345c1.361,0.28,2.673-0.016,3.74,0.869
	c1.05,0.902,1.115,1.723,1.869,0.969c0.755-0.755,1.51-2.215-0.328-3.149c-1.837-0.951-4.084-1.838-5.036-2.396
	c-0.935-0.574-2.771-3.904-3.198-5.084c-0.41-1.181-1.689-2.116-2.296-3.02c-0.607-0.885-0.443-1.656-0.984-2.443
	c-0.558-0.771-1.575-1.706-2.428-2.854c-0.853-1.147-2.247-0.951-1.378-2.28c0.87-1.344,0.509-2.05,0.787-2.575
	c0.295-0.509,0.131-2.346,0.247-2.838c0.115-0.492,2.493-2.066,3.002-3.1c0.525-1.034-0.443-2.56-1.05-2.575
	C22.521,41.398,21.275,42.611,21.275,42.611L21.275,42.611z"/>
<linearGradient id="SVGID_2_" gradientUnits="userSpaceOnUse" x1="15.5088" y1="59.9146" x2="35.3569" y2="59.9146">
	<stop  offset="0" style="stop-color:#FFFFFF"/>
	<stop  offset="0.6905" style="stop-color:#FFFFFF"/>
	<stop  offset="0.9952" style="stop-color:#FFF0D7"/>
</linearGradient>
<path fill-rule="evenodd" clip-rule="evenodd" fill="url(#SVGID_2_)" d="M17.995,43.612c-0.213,0.328-0.525,0.854-0.525,1.56
	c0,0.704-0.295,2.82-0.754,3.591c-0.443,0.771-1.525,1.133-1.116,2.313c0.394,1.165,1.148,2.477,0.738,3.33
	c-0.394,0.853-1.099,1.723-0.197,2.641c0.886,0.902,1.001,1.821,1.313,3.231c0.295,1.411,0.344,1.246,0.935,2.034
	c0.591,0.771,0.64,0.623,0.935,1.805c0.312,1.181-0.394,1.624,0.869,2.329c1.279,0.705,1.51,0.771,2.149,1.854
	s0.672,1.723,1.131,2.182c0.443,0.476,1.903,0.854,2.379,1.559c0.459,0.704,1.312,2.001,1.706,2.592
	c0.394,0.59,2.23,0.623,2.854,0.623c0.606,0,2.198,0.738,3.33,1.066c1.132,0.327,2.214-0.05,1.23-0.214
	c-1.001-0.163-2.805-1.182-4.101-1.525c-1.296-0.36-2.346-0.164-3.002-1.181c-0.656-1.001-0.967-1.837-2.526-2.936
	c-1.542-1.101-1.083-0.869-1.985-2.183c-0.918-1.329-1.279-1.722-2.214-2.493c-0.952-0.787-1.362-2.148-1.493-2.755
	c-0.115-0.608-0.721-0.969-1.229-1.921c-0.525-0.967-0.377-1.787-0.739-2.804c-0.344-1.017-1.132-1.723-1.148-2.166
	c-0.033-0.443,0.836-1.788,0.672-2.788c-0.164-1.017-0.902-2.1-0.656-2.805c0.263-0.706,0.329-0.887,0.788-1.854
	c0.443-0.968,0.771-2.216,0.771-3.085s0.443-2.115,0.213-2.215C18.076,43.3,17.995,43.612,17.995,43.612L17.995,43.612z"/>
<path fill-rule="evenodd" clip-rule="evenodd" fill="#F6EF7C" d="M17.076,44.219c0,0-0.984,0.853-1.033,1.656
	c-0.049,0.787-0.41,2.494-1.148,3.444c-0.754,0.969-0.902,1.985-0.624,2.658c0.278,0.688,0.541,1.378,0.197,2.313
	c-0.361,0.934-0.656,2.837,0.082,3.789c0.755,0.934,1.018,1.968,1.066,2.951c0.05,0.985,0.591,1.361,1.362,2.561
	c0.771,1.213,0.656,1.672,1.148,2.706c0.492,1.033,1.902,1.838,2.477,2.607c0.558,0.788,0.344,1.132,0.804,2.051
	c0.442,0.918,1.525,1.263,2.444,1.968c0.918,0.722,1.329,2.543,2.28,3.249c0.935,0.705,2.493,0.754,3.642,0.803
	c1.148,0.049,1.706-0.147,2.788,0.378c1.083,0.524,1.673,0.524,2.33,0.213c0.656-0.311,0.853,0.278,1.87-1.559
	c1-1.837,2.133-3.084,1.952-3.116c-0.197-0.049-2.411,1.592-2.756,2.494c-0.361,0.885-0.918,1.705-1.985,1.59
	c-1.049-0.114-2.28-0.77-4.232-0.918c-1.952-0.132-2.493-0.181-3.428-1.477s-1.083-2.05-2.132-2.689
	c-1.066-0.624-1.739-1.689-2.231-2.608c-0.508-0.918-1.591-1.739-2.362-2.526c-0.771-0.805-0.82-2.543-1.362-3.165
	c-0.542-0.608-0.443-2.69-1.198-3.643c-0.754-0.936-1.624-1.477-1.673-2.771c-0.049-1.297,0.262-1.592,0.279-2.887
	c0.033-1.297-0.508-3.577-0.246-4.266c0.246-0.673,1.263-1.756,1.444-3.395c0.196-1.658,0.574-2.494,0.574-2.494L17.076,44.219z"/>
<path fill-rule="evenodd" clip-rule="evenodd" fill="#D4D794" d="M52.475,44.268c0,0-4.249,6.726-5.332,9.317
	c-1.082,2.592-4.182,8.792-4.232,10.958c-0.033,1.345,0.165,2.869,0.509,3.871c0.508-0.411,1.131-0.755,1.641-0.969
	c0.655-0.278,2.559-3.657,2.854-4.084c0.312-0.427,2.723-5.281,2.837-5.594c0.115-0.312,0.328-0.278,0.64-0.278
	c0.312-0.018,0.508-0.805,0.64-1.395c0.115-0.575,0.738-1.854,0.804-1.919c0.017,0,0.017,0,0.017,0s1.509-1.607,1.525-1.837
	c0.016-0.229-0.919-2.806-0.919-2.806s-0.771-1.164-0.738-1.821C52.737,47.04,52.475,44.268,52.475,44.268L52.475,44.268z"/>
<path fill-rule="evenodd" clip-rule="evenodd" fill="#655F58" d="M54.656,28.881C53.803,7.065,42.73,2.735,41.255,3.916
	c0.196-0.558,0.771-0.754,1.131-0.295c7.333,1.066,12.926,16.025,12.549,22.752L54.656,28.881z"/>
<path fill-rule="evenodd" clip-rule="evenodd" fill="#FFFFFF" d="M33.856,49.927c-0.065,0.689,0.525,0.886-0.59,1.313
	c-1.132,0.427-3.854,0.558-4.872,0.361c-1.017-0.181-2.509-1.56-2.887-2.362c-0.377-0.82-1.165-3.855-0.64-4.658
	c0.542-0.788,3.429-4.068,6.25-4.217c2.822-0.146,4.478,1.001,4.954,1.625c0.476,0.64,0.41,2.689,0.722,3.395
	c0.328,0.689,0.656,1.362,0.164,1.46c-0.509,0.099-1.214,0.443-1.329,0.902c-0.115,0.46-0.05,0.722-0.738,1.034
	C34.201,49.107,33.856,49.927,33.856,49.927L33.856,49.927z"/>
<path fill-rule="evenodd" clip-rule="evenodd" fill="#D09E4B" d="M28.919,49.681c-1.017-0.311-2.608-2.608-2.46-4.199
	c0.229-2.428,3.675-4.101,6.119-4.035c2.51,0.081,3.806,3.149,2.625,5.053C33.856,48.665,31.413,50.452,28.919,49.681L28.919,49.681
	z"/>
<path fill-rule="evenodd" clip-rule="evenodd" fill="#D4D794" d="M29.756,48.582c-0.788-0.245-2.018-2.017-1.903-3.264
	c0.181-1.869,2.854-3.166,4.741-3.116c1.936,0.065,2.953,2.444,2.035,3.92C33.594,47.795,31.691,49.19,29.756,48.582L29.756,48.582z
	"/>
<path fill-rule="evenodd" clip-rule="evenodd" fill="#684123" d="M38.794,6.097c-0.607-0.196-1.526-1.524-1.427-2.444
	c0.131-1.427,2.132-2.395,3.542-2.345c1.46,0.033,2.231,1.82,1.542,2.936C41.664,5.507,40.237,6.541,38.794,6.097L38.794,6.097z"/>
<path fill-rule="evenodd" clip-rule="evenodd" fill="#F4F2BA" d="M39.27,5.458c-0.46-0.147-1.165-1.181-1.1-1.902
	c0.099-1.1,1.657-1.837,2.756-1.821c1.132,0.033,1.723,1.428,1.181,2.28C41.5,4.999,40.401,5.801,39.27,5.458L39.27,5.458z"/>
<path fill-rule="evenodd" clip-rule="evenodd" fill="#6C417A" d="M37.039,52.47c1.033-1.05,3.526-0.902,4.379,0.279
	c0.935,1.311,0.722,3.69-0.049,5.281c-0.443,0.952-2.707,0.853-3.79,0.197C35.678,57.064,35.152,54.406,37.039,52.47L37.039,52.47z"
	/>
<path fill-rule="evenodd" clip-rule="evenodd" fill="#FFFFFF" d="M38.63,53.028c0.919-0.181,2.247,0.393,2.494,1.296
	c0.328,1.181-0.083,2.952-1.198,3.494c-1.033,0.508-2.756-0.313-3.133-1.394C36.301,55.012,37.22,53.291,38.63,53.028L38.63,53.028z
	"/>
<path fill-rule="evenodd" clip-rule="evenodd" fill="#6C417A" d="M42.747,44.728c0.82-0.837,2.822-0.722,3.494,0.229
	c0.755,1.034,0.591,2.936-0.032,4.215c-0.361,0.771-2.166,0.689-3.035,0.165C41.648,48.402,41.222,46.27,42.747,44.728
	L42.747,44.728z"/>
<path fill-rule="evenodd" clip-rule="evenodd" fill="#FFFFFF" d="M44.011,45.171c0.738-0.148,1.804,0.311,2,1.032
	c0.263,0.952-0.065,2.378-0.951,2.806c-0.82,0.393-2.214-0.247-2.51-1.116C42.157,46.761,42.878,45.383,44.011,45.171L44.011,45.171
	z"/>
<path fill-rule="evenodd" clip-rule="evenodd" fill="#FFC10E" d="M33.135,43.333c0.607-0.114,1.477,0.263,1.64,0.853
	c0.214,0.787-0.065,1.952-0.787,2.296c-0.672,0.328-1.821-0.196-2.067-0.9C31.609,44.646,32.2,43.513,33.135,43.333L33.135,43.333z"
	/>
<path fill-rule="evenodd" clip-rule="evenodd" fill="#F6EF7C" d="M56.781,28.384c0,0,0.477-0.625,2.084-3.314
	c1.607-2.705,3.592-4.887,5.02-6.412c1.41-1.51,4.429-3.068,6.741-4.939c2.313-1.852,7.644-4.805,9.957-6.266
	c2.296-1.477,7.415-3.279,10.12-4.641c2.691-1.363,5.856-1.461,6.891-1.838c1.049-0.377,6.495-0.131,8.217,0.295
	c1.707,0.428,2.561,1.805,2.871,3.182c0.328,1.363,0.229,1.461,0.229,1.461s0.739,2.969,0.739,4.266c0,1.295-0.477,2.377-1.494,3.74
	c-1.016,1.377-2.23,5.215-2.492,6.102c-0.279,0.9,0,2.607-0.132,3.23c-0.114,0.623-0.64,1.297-0.886,2.232
	c-0.246,0.949,0.313,3.279,0.066,4.592s-0.673,4.068-2.707,6.086c-2.034,2.002-3.773,1.574-5.955,1.936
	c-2.164,0.361-3.707,0.131-4.347,0c-0.64-0.133-2.509-0.197-3.149-0.246c-0.623-0.049-0.623,0-0.656,0.164
	c-0.016,0.164,2.97,2.049,3.264,2.197c0.313,0.133,2.839,2.313,3.281,3.166c2.56,4.822,4.495,2.197,3.479,8.514
	c-0.132,0.756-0.099,2.771,0.114,3.592c0.229,0.82,0.082,2.805-0.114,3.117c-0.197,0.313-1.182,1.426-1.443,1.82
	c-0.264,0.395,0.131,2.133,0.146,2.641c0.017,0.492-0.623,0.82-1.443,1.412c-0.82,0.59-1.033,1.395-1.049,1.607
	c-0.033,0.197-0.066,1.672-0.246,2.246c-0.164,0.592-3.363,2.74-3.576,3.02c-0.213,0.262,0,1.525-0.197,1.984
	c-0.197,0.443-1.902,1.689-3.051,2.033c-1.165,0.328-1.132,0.541-1.132,1.197c0,0.674-0.524,1.412-1.329,2.084
	c-0.787,0.689-1.181,0.656-2.018,0.805c-5.035,0.902-2.033,3.461-5.15,5.264c-0.591,0.328-1.51,0.313-1.673,0.199
	c-0.165-0.117-0.476-0.625-0.952-0.854c-0.492-0.23-0.968-0.133-1.082-0.166c-0.099-0.016-0.033-0.344-0.197-0.59
	c-0.164-0.262-0.787-1.016-1.033-1.361c-0.246-0.328-2.1-7.955-2.903-8.939c-0.82-1.002-2.313-2.789-2.903-3.379
	c-0.607-0.592-1.542-1.148-2.248-1.443c-0.688-0.295-2.689-3.873-3.018-4.314c-0.328-0.443-2.871-5.578-2.986-5.906
	c-0.13-0.326-0.36-0.277-0.672-0.295c-0.328-0.016-0.558-0.852-0.672-1.459c-0.131-0.607-0.787-1.969-0.854-2.035
	C56.158,54.087,55.912,25.662,56.781,28.384L56.781,28.384z"/>
<path fill-rule="evenodd" clip-rule="evenodd" fill="#F6EF7C" d="M58.16,28.646c0,0-0.738,1.871-0.82,2.066
	c-0.082,0.197-0.377,0.936-0.525,1.102c-0.147,0.178-0.344,0.344-0.213,0.459c0.115,0.113,0.787,0.523,1.049,0.754
	c0.263,0.213,0.689,0.459,0.673,0.654c-0.016,0.199-0.327,0.771-0.442,0.969c-0.131,0.197-0.492,0.656-0.459,0.984
	c0.032,0.344,0.935,0.869,3.969,0.967c3.035,0.1,8.629,0.297,12.254,0.297c3.641,0,15.271,1.264,15.271,1.264
	c0.017-0.166,0.017-0.215,0.64-0.166c4.658,0.377,5.889,2.936,6.823,2.609c10.417-3.691,8.907-8.99,9.153-10.285
	c0.247-1.297-0.327-3.607-0.081-4.543c0.245-0.92,0.77-1.592,0.885-2.199c0.131-0.607-0.147-2.313,0.131-3.182
	c0.264-0.885,1.461-4.691,2.478-6.037c1.001-1.344,1.46-2.428,1.46-3.707c0-3.264-1.164-9.334-1.377-10.219
	c-0.329-1.361-9.908,0.9-10.532,1.115c-1.033,0.377-4.149,0.477-6.823,1.82c-2.674,1.346-7.727,3.133-10.006,4.594
	c-2.28,1.443-7.547,4.363-9.826,6.199c-2.28,1.838-5.281,3.379-6.676,4.873c-1.395,1.508-3.363,3.656-4.954,6.332
	C58.619,28.041,58.16,28.646,58.16,28.646L58.16,28.646z"/>
<path fill-rule="evenodd" clip-rule="evenodd" fill="#B99CC9" d="M55.223,26.564c0.049-0.033,0.098-0.066,0.148-0.084
	c0.181-0.049,0.41-0.508,0.689-1.246c0.279-0.754,0.411-0.623,0.672-0.475c0.263,0.146,0.115,0.869,0.147,1.197
	s0.132,0.805,0.181,1.264c0.049,0.441-0.065,1-0.065,1.164c0.017,0.146,0.459,0.246,0.737,0.395
	c0.279,0.146,0.361,0.359,0.361,0.359s0.443-0.574,1.969-3.148c1.525-2.561,3.412-4.627,4.756-6.053
	c1.33-1.443,4.2-2.92,6.382-4.691c2.198-1.756,7.251-4.561,9.432-5.938c2.183-1.395,7.037-3.102,9.597-4.396
	c2.559-1.297,5.544-1.396,6.528-1.74c1.001-0.359,6.167-0.131,7.792,0.279c1.623,0.395,2.427,1.705,2.723,3.002
	c0.312,1.295,0.213,1.395,0.213,1.395s0.705,2.82,0.705,4.035c0,1.23-0.443,2.264-1.41,3.559c-0.969,1.297-2.116,4.939-2.379,5.775
	c-0.262,0.854,0,2.477-0.115,3.066c-0.114,0.592-0.605,1.215-0.836,2.117c-0.246,0.885,0.295,3.1,0.066,4.346
	c-0.246,1.246-0.641,3.855-2.561,5.758c-1.936,1.902-3.592,1.492-5.642,1.838c-2.067,0.344-3.526,0.131-4.134,0
	s-2.379-0.18-2.986-0.23c-0.59-0.049-0.59,0-0.623,0.148c-0.016,0.164,2.822,1.951,3.101,2.084c0.296,0.129,2.69,2.197,3.101,3
	c2.428,4.578,4.265,2.102,3.297,8.072c-0.115,0.721-0.099,2.623,0.115,3.41c0.213,0.771,0.082,2.658-0.115,2.953
	c-0.18,0.295-1.115,1.361-1.361,1.723s0.131,2.018,0.148,2.494c0,0.475-0.592,0.787-1.379,1.344c-0.771,0.557-0.967,1.328-1,1.525
	c-0.018,0.182-0.05,1.574-0.214,2.133c-0.181,0.559-3.198,2.592-3.396,2.854c-0.213,0.264,0,1.461-0.197,1.889
	c-0.18,0.426-1.804,1.605-2.887,1.918c-1.1,0.328-1.082,0.525-1.082,1.148s-0.492,1.328-1.247,1.969
	c-0.755,0.654-1.115,0.623-1.902,0.754c-4.774,0.869-1.937,3.281-4.905,4.986c-0.558,0.328-1.427,0.297-1.574,0.197
	c-0.148-0.115-0.443-0.592-0.902-0.805c-0.459-0.229-0.919-0.131-1.018-0.164c-0.098-0.016-0.033-0.328-0.196-0.557
	c-0.147-0.246-0.755-0.969-0.984-1.279c-0.229-0.328-1.985-7.547-2.756-8.48c-0.771-0.951-2.182-2.641-2.756-3.199
	c-0.558-0.574-1.443-1.082-2.116-1.361c-0.655-0.295-2.559-3.674-2.854-4.102c-0.313-0.426-2.723-5.281-2.838-5.594
	c-0.115-0.311-0.328-0.277-0.641-0.277c-0.311-0.018-0.508-0.805-0.639-1.395c-0.115-0.576-0.738-1.855-0.805-1.92
	c-0.081-0.064-0.114,0.689-0.327,1.033c-0.229,0.328-0.214-0.082-0.427,0.541c-0.213,0.607-0.377,3.379-0.443,4.117
	c-0.064,0.705-0.951,2.051-1.148,2.625V26.564z"/>
<path fill-rule="evenodd" clip-rule="evenodd" fill="#C376AF" d="M58.094,29.138c0,0-0.705,1.789-0.787,1.984
	c-0.082,0.197-0.361,0.902-0.509,1.068c-0.131,0.146-0.312,0.326-0.196,0.426c0.115,0.115,0.754,0.508,1,0.721
	c0.263,0.215,0.673,0.443,0.656,0.641c-0.033,0.18-0.328,0.721-0.443,0.918c-0.114,0.182-0.459,0.623-0.426,0.951
	c0.016,0.328,0.886,0.82,3.805,0.92c2.92,0.098,8.268,0.277,11.746,0.277c3.494,0,14.631,1.215,14.631,1.215
	c0.033-0.148,0.033-0.197,0.623-0.148c4.463,0.346,5.644,2.82,6.545,2.494c9.99-3.545,8.531-8.613,8.777-9.859
	c0.229-1.246-0.313-3.461-0.066-4.346c0.23-0.902,0.722-1.525,0.836-2.117c0.115-0.59-0.146-2.213,0.115-3.066
	c0.263-0.836,1.41-4.479,2.379-5.775c0.967-1.295,1.41-2.328,1.41-3.559c0-3.133-1.131-8.955-1.328-9.793
	c-0.312-1.295-9.498,0.869-10.104,1.082c-0.984,0.344-3.97,0.443-6.528,1.74c-2.56,1.295-7.414,3.002-9.597,4.396
	c-2.181,1.377-7.233,4.182-9.432,5.938c-2.182,1.771-5.052,3.248-6.382,4.691c-1.344,1.426-3.23,3.492-4.756,6.053
	C58.537,28.564,58.094,29.138,58.094,29.138L58.094,29.138z"/>
<path fill-rule="evenodd" clip-rule="evenodd" fill="#D4D794" d="M77.139,14.294c0,0-0.148-0.805,0.541-1.51
	c0.672-0.705,3.362-2.938,4.412-2.969c1.066-0.018,2.543,0.197,3.691,0.623c1.148,0.41,0.984-1.379,2.771-2.166
	c1.789-0.803,3.904-1.936,5.414-2.689c1.508-0.754,4.035-2.543,5.314-1.543c1.263,0.986,2.018,2.822,2.346,3.004
	c0.328,0.195-0.656,1.361,0.049,1.836c0.705,0.477,0.427,0.723,0.279,1.346c-0.131,0.607-1.346,1.279-0.984,1.787
	c0.344,0.492,1.049,0.771,0.639,1.805c-0.426,1.033-1.164,1.213-1.164,1.574c0,0.346,0.378,1.018,0.049,1.953
	c-0.328,0.934-0.935,1.475-0.82,2.295c0.115,0.838,0.066,4.15,0.066,4.988c0,0.854-0.033,1.656-0.033,3.018s0.377,1.41,0.131,2.066
	c-0.229,0.656,0,3.297-1.787,4.74c-1.789,1.461-10.58,1.328-12.778,0.625c-2.214-0.705-5.889-4.906-5.512-6.645
	c0.378-1.738,0.574-2.674,0.935-3.527c0.378-0.836-0.131-1.639-0.41-2.82c-0.295-1.166-0.098-2.066-0.852-2.574
	c-0.756-0.525-2.642-0.756-2.642-0.756s-0.329-3.428,0-3.953C77.139,14.294,77.139,14.294,77.139,14.294L77.139,14.294z"/>
<path fill-rule="evenodd" clip-rule="evenodd" fill="#B99CC9" d="M92.328,12.882c1.492-2.279,3.707-2.361,4.084-2.313
	s0.049-2.592,1.887-2.115c1.82,0.475,2.279,0.523,2.23,1.264c-0.049,0.754-0.902,1.836-0.689,2.213
	c0.214,0.377,0.82,0.164,0.477,1.246c-0.361,1.084-1.461,2.445-1.297,2.807c0.165,0.344-0.771,2.771-0.639,3.854
	c0.147,1.082,0.984,3.953,0.854,5.363c-0.148,1.412-2.215,5.545-2.346,7.104c-0.148,1.543-1.279,3.018-2.363,3.1
	c-1.066,0.1-3.148,0.428-2.197-0.705c0.935-1.131,2.575-1.557,0.935-1.836c-1.64-0.279-7.759-0.328-8.038-2.971
	c-0.295-2.623-0.852-4.313-0.573-4.986c0.278-0.656-0.657-1.066-0.181-2.902c0.459-1.838,0.558-2.215,0.558-2.215
	s-0.935-1.313-1.739-1.787c-0.803-0.477-3.379,0.9-3.953-0.051c-0.558-0.934-0.459-1.59-0.787-2.295
	c-0.328-0.707-1.936-0.902-1.41-1.361c0.508-0.477-0.559-0.525,0.541-1.51c1.082-0.984,2.313-1.82,3.362-2.264
	c1.034-0.443,1.706-0.705,2.313-0.377c0.623,0.328,1-0.559,2.428,0.295c1.427,0.836,1.936,0.902,2.82,1.361
	c0.887,0.443,2.494,1.82,2.871,1.592C91.852,13.162,92.328,12.882,92.328,12.882L92.328,12.882z"/>
<path fill-rule="evenodd" clip-rule="evenodd" fill="#FF6CCB" d="M98.709,17.64c0,0-1.115-1.051-2.445-0.953
	c-1.312,0.1-1.967,0.33-3.279-0.426c-1.329-0.754-2.33-3.133-2.33-3.148c0.378,0.229,0.673,0.361,0.82,0.279
	c0.377-0.23,0.854-0.51,0.854-0.51c1.492-2.279,3.707-2.361,4.084-2.313s0.049-2.592,1.887-2.115c1.82,0.475,2.279,0.523,2.23,1.264
	c-0.049,0.754-0.902,1.836-0.689,2.213c0.214,0.377,0.82,0.164,0.477,1.246c-0.361,1.084-1.461,2.445-1.297,2.807
	C99.103,16.164,98.905,16.853,98.709,17.64L98.709,17.64z"/>
<path fill-rule="evenodd" clip-rule="evenodd" fill="#652D90" d="M93.525,13.097c0.147-1.117,1.197-1.92,2.346-1.771
	c1.148,0.146,1.984,1.164,1.837,2.279c-0.132,1.115-1.181,1.902-2.329,1.771C94.214,15.23,93.395,14.212,93.525,13.097
	L93.525,13.097z"/>
<path fill-rule="evenodd" clip-rule="evenodd" fill="#FFF198" d="M95.477,12.587c0.592,0,1.066,0.295,1.066,0.639
	c0,0.346-0.475,0.641-1.066,0.641c-0.59,0-1.065-0.295-1.065-0.641C94.411,12.882,94.887,12.587,95.477,12.587L95.477,12.587z"/>
<path fill-rule="evenodd" clip-rule="evenodd" fill="#FF6CCB" d="M98.676,27.089c0-0.018-0.115-0.395-1.066-0.361
	c-0.968,0.016-1.64-1.822-2.723-3.018c-1.083-1.199-1.132-1.953-2.215-2.084c-1.082-0.148-3.805,0.459-5.281,0.492
	c-1.493,0.016-3.051,1.016-3.051,1.033c0.049,0.902,0.524,1.262,0.312,1.754c-0.278,0.674,0.278,2.363,0.573,4.986
	c0.279,2.643,6.398,2.691,8.038,2.971c1.641,0.279,0,0.705-0.935,1.836c-0.378,0.443-0.279,0.672,0.049,0.771l0.181,0.033l0,0
	c0.032,0,0.41,0.016,0.837,0.016c0.393-0.033,0.803-0.082,1.131-0.115c0.049,0,0.115,0,0.164-0.016
	c0.148-0.066,0.51-0.262,0.92-0.492c0.654-0.59,1.18-1.574,1.279-2.592C96.986,31.222,98.02,28.876,98.676,27.089L98.676,27.089z"/>
<path fill-rule="evenodd" clip-rule="evenodd" fill="#D4D794" d="M93.869,23.972c-0.229-0.164-2.115-0.672-2.969-0.607
	c-0.836,0.064-2.411,0.395-3.231,1.541c-0.819,1.164-0.95,2.576-0.656,3.086c0.279,0.523,1.001,1.656,1.689,2.18
	c0.673,0.559,1.69,1.41,2.46,1.33c0.788-0.098,1.887-0.607,1.904-1.232c0.033-0.605-0.182-0.703,0.541-0.934
	c0.738-0.23,1.787-0.016,1.738-1.197c-0.032-1.182-0.246-2.527-0.442-3.051C94.723,24.546,93.869,23.972,93.869,23.972
	L93.869,23.972z"/>
<path fill-rule="evenodd" clip-rule="evenodd" fill="#FFFFFF" d="M91.344,26.169c0.492-0.049,0.918,0.197,0.951,0.559
	c0.033,0.344-0.345,0.672-0.837,0.721c-0.491,0.033-0.919-0.213-0.95-0.559C90.475,26.531,90.852,26.22,91.344,26.169L91.344,26.169
	z"/>
<path fill-rule="evenodd" clip-rule="evenodd" fill="#E0E487" d="M101.907,3.779c-0.819-0.164-1.64-0.246-1.313,0.033
	c0.345,0.279,1.181,1.033,1.92,1.984c0.737,0.951,1.279,2.969,1.427,3.658c0.131,0.689,0.755,1.494,0.804,1.854
	c0.065,0.344-0.214,0.902-0.984,1.674c-0.755,0.754-1.279,2.264-1.46,2.969c-0.196,0.688-1.066,2.854-0.984,3.379
	c0.082,0.541-0.361,2.248-0.476,3.051c-0.099,0.805,0.591,1.674,0.706,2.41c0.114,0.756-0.328,2.051-0.246,2.594
	c0.082,0.525,0.41,0.508,0.131,1.705c-0.262,1.213-0.049,2.199-0.477,2.838c-0.409,0.641-0.508,0.936-0.524,1.869
	c-0.016,0.936-1.591,2.576-2.148,3.02c-0.542,0.459-4.429,1.607-4.626,1.787c-0.213,0.164,1.903,0.1,3.494-0.689
	c1.575-0.803,3.805-2.443,4.38-4.199c0.59-1.754,0.327-2.951,0.722-3.623c0.377-0.674,0.509-1.084,0.131-1.641
	c-0.377-0.559,0-0.887-0.164-2.264c-0.147-1.379,0.492-1.313,0.377-2.051c-0.114-0.756-0.459-1.035-0.639-1.953
	c-0.182-0.918,0.394-2.133,0.738-3.543c0.328-1.41,1.689-4.396,2.46-5.117c0.771-0.723,1.197-1.428,0.919-2.789
	c-0.279-1.361-1.066-4.658-2.199-5.676C102.728,4.058,101.907,3.779,101.907,3.779L101.907,3.779z"/>
<path fill-rule="evenodd" clip-rule="evenodd" fill="#EBDFA6" d="M96.051,9.929c0.296-0.67,0.838-0.869,0.41-1.623
	c-0.426-0.736-0.656-1.213-2.05-1.379c-1.378-0.162-1.952-0.098-2.444,0.148c-0.492,0.229,0.854,0.229,1.428,1.051
	c0.59,0.82-0.246,1.887,0.787,2.115C95.215,10.472,96.051,9.929,96.051,9.929L96.051,9.929z"/>
<path fill-rule="evenodd" clip-rule="evenodd" fill="#6C417A" d="M80.665,59.878c-1.247-1.262-4.281-1.082-5.314,0.346
	c-1.148,1.59-0.886,4.477,0.049,6.43c0.541,1.164,3.297,1.033,4.593,0.229C82.321,65.472,82.961,62.224,80.665,59.878L80.665,59.878
	z"/>
<path fill-rule="evenodd" clip-rule="evenodd" fill="#FFFFFF" d="M78.729,60.55c-1.116-0.213-2.739,0.477-3.034,1.576
	c-0.395,1.459,0.114,3.609,1.459,4.264c1.246,0.607,3.347-0.377,3.807-1.689C81.566,62.962,80.452,60.896,78.729,60.55L78.729,60.55
	z"/>
<linearGradient id="SVGID_3_" gradientUnits="userSpaceOnUse" x1="-307.6958" y1="57.1069" x2="-289.3408" y2="57.1069" gradientTransform="matrix(-1 0 0 1 -215.5596 0)">
	<stop  offset="0" style="stop-color:#FFFFFF"/>
	<stop  offset="0.6905" style="stop-color:#FFFFFF"/>
	<stop  offset="0.9952" style="stop-color:#FFF0D7"/>
</linearGradient>
<path fill-rule="evenodd" clip-rule="evenodd" fill="url(#SVGID_3_)" d="M89.129,42.015c0,0.328-0.672,2.738,0.361,3.559
	c1.049,0.838,1.919,1.871,1.984,2.643c0.066,0.77-0.918,1.213-0.721,2.297c0.18,1.082,1.475,2.1,1.377,2.805
	s-1.525,1.246-1.689,2.297c-0.164,1.064,0.394,2.115-0.115,2.803c-0.524,0.689-1.869,0.525-2.148,1.527
	c-0.279,1.016,0.213,2.164-0.623,2.969c-0.854,0.787-1.624-0.361-2.034,0.787c-0.394,1.164-0.623,3.035-1.657,3.248
	c-1.049,0.213-2.575,0.574-2.656,1.984c-0.1,1.41,0.359,2.066-1.002,2.346s-2.674-0.016-3.74,0.869
	c-1.049,0.902-1.114,1.723-1.869,0.969c-0.755-0.756-1.51-2.215,0.328-3.15c1.837-0.951,4.084-1.838,5.036-2.395
	c0.935-0.574,2.771-3.904,3.198-5.084c0.41-1.182,1.689-2.117,2.297-3.02c0.607-0.885,0.442-1.656,0.984-2.443
	c0.557-0.771,1.574-1.707,2.428-2.855c0.853-1.146,2.246-0.951,1.377-2.279c-0.869-1.344-0.508-2.051-0.787-2.576
	c-0.295-0.508-0.131-2.346-0.246-2.838s-2.492-2.066-3.002-3.1c-0.525-1.033,0.443-2.559,1.05-2.574
	C87.883,40.802,89.129,42.015,89.129,42.015L89.129,42.015z"/>
<linearGradient id="SVGID_4_" gradientUnits="userSpaceOnUse" x1="-310.4556" y1="59.3188" x2="-290.6064" y2="59.3188" gradientTransform="matrix(-1 0 0 1 -215.5596 0)">
	<stop  offset="0" style="stop-color:#FFFFFF"/>
	<stop  offset="0.6905" style="stop-color:#FFFFFF"/>
	<stop  offset="0.9952" style="stop-color:#FFF0D7"/>
</linearGradient>
<path fill-rule="evenodd" clip-rule="evenodd" fill="url(#SVGID_4_)" d="M92.41,43.015c0.213,0.328,0.524,0.854,0.524,1.561
	c0,0.703,0.296,2.82,0.755,3.59c0.443,0.771,1.525,1.133,1.115,2.314c-0.394,1.164-1.148,2.477-0.738,3.33
	c0.394,0.852,1.1,1.723,0.197,2.641c-0.886,0.902-1.001,1.82-1.313,3.23c-0.295,1.412-0.344,1.246-0.936,2.035
	c-0.59,0.771-0.639,0.623-0.935,1.805c-0.312,1.18,0.394,1.623-0.869,2.328c-1.279,0.705-1.51,0.771-2.149,1.854
	c-0.64,1.084-0.672,1.723-1.131,2.182c-0.443,0.477-1.903,0.854-2.379,1.559c-0.459,0.705-1.313,2.002-1.707,2.592
	c-0.393,0.59-2.23,0.623-2.854,0.623c-0.606,0-2.197,0.738-3.33,1.066c-1.132,0.328-2.214-0.049-1.23-0.213
	c1.002-0.164,2.806-1.182,4.102-1.525c1.296-0.361,2.346-0.164,3.002-1.182c0.656-1,0.967-1.836,2.525-2.936
	c1.543-1.1,1.083-0.869,1.985-2.182c0.919-1.33,1.279-1.723,2.214-2.494c0.952-0.787,1.362-2.148,1.494-2.754
	c0.114-0.609,0.721-0.969,1.229-1.922c0.525-0.967,0.378-1.787,0.739-2.803c0.345-1.018,1.132-1.723,1.147-2.166
	c0.033-0.443-0.836-1.789-0.672-2.789c0.164-1.016,0.902-2.1,0.656-2.805c-0.263-0.705-0.328-0.887-0.787-1.854
	c-0.443-0.967-0.771-2.215-0.771-3.084s-0.443-2.115-0.213-2.215C92.328,42.705,92.41,43.015,92.41,43.015L92.41,43.015z"/>
<path fill-rule="evenodd" clip-rule="evenodd" fill="#F6EF7C" d="M93.328,43.623c0,0,0.984,0.854,1.033,1.656
	c0.05,0.787,0.41,2.494,1.148,3.445c0.754,0.969,0.902,1.984,0.623,2.658c-0.277,0.688-0.541,1.377-0.196,2.313
	c0.36,0.934,0.656,2.838-0.081,3.789c-0.756,0.934-1.018,1.969-1.066,2.951c-0.051,0.986-0.592,1.361-1.362,2.561
	c-0.771,1.213-0.656,1.672-1.148,2.707c-0.491,1.033-1.902,1.838-2.477,2.607c-0.558,0.787-0.345,1.131-0.804,2.051
	c-0.443,0.918-1.525,1.262-2.444,1.967c-0.919,0.723-1.329,2.543-2.28,3.25c-0.935,0.705-2.493,0.754-3.642,0.803
	c-1.147,0.049-1.706-0.148-2.788,0.377c-1.083,0.525-1.673,0.525-2.33,0.213c-0.655-0.311-0.853,0.279-1.869-1.559
	c-1-1.836-2.133-3.084-1.952-3.115c0.196-0.049,2.411,1.592,2.756,2.494c0.36,0.885,0.919,1.705,1.985,1.59
	c1.049-0.115,2.279-0.77,4.231-0.918c1.952-0.133,2.493-0.182,3.429-1.477c0.935-1.297,1.082-2.051,2.132-2.689
	c1.066-0.625,1.739-1.689,2.231-2.609c0.508-0.918,1.591-1.738,2.361-2.525c0.771-0.805,0.82-2.543,1.361-3.166
	c0.542-0.607,0.443-2.689,1.198-3.643c0.755-0.936,1.624-1.477,1.673-2.771c0.049-1.297-0.262-1.592-0.279-2.887
	c-0.033-1.297,0.509-3.576,0.246-4.266c-0.246-0.672-1.263-1.756-1.443-3.395C93.378,44.376,93,43.541,93,43.541L93.328,43.623z"/>
<path fill-rule="evenodd" clip-rule="evenodd" fill="#D4D794" d="M57.93,43.671c0,0,4.248,6.727,5.332,9.318
	c1.082,2.592,4.182,8.791,4.231,10.957c0.032,1.346-0.165,2.869-0.509,3.871c-0.508-0.41-1.131-0.754-1.641-0.969
	c-0.655-0.277-2.559-3.656-2.854-4.084c-0.313-0.426-2.723-5.281-2.838-5.594c-0.115-0.311-0.328-0.277-0.641-0.277
	c-0.311-0.018-0.508-0.805-0.639-1.395c-0.115-0.576-0.738-1.855-0.805-1.92c-0.016,0-0.016,0-0.016,0s-1.509-1.607-1.526-1.836
	c-0.016-0.23,0.918-2.807,0.918-2.807s0.771-1.164,0.738-1.82C57.667,46.443,57.93,43.671,57.93,43.671L57.93,43.671z"/>
<path fill-rule="evenodd" clip-rule="evenodd" fill="#655F58" d="M55.748,28.285C56.602,6.468,67.674,2.138,69.149,3.32
	c-0.196-0.559-0.771-0.754-1.132-0.295C60.686,4.091,55.092,19.05,55.469,25.777L55.748,28.285z"/>
<path fill-rule="evenodd" clip-rule="evenodd" fill="#FFFFFF" d="M76.548,49.332c0.065,0.689-0.524,0.885,0.591,1.313
	c1.131,0.426,3.854,0.557,4.871,0.361c1.018-0.182,2.51-1.561,2.888-2.363c0.377-0.82,1.165-3.855,0.64-4.658
	c-0.541-0.787-3.429-4.068-6.25-4.217c-2.822-0.146-4.479,1.002-4.953,1.625c-0.477,0.641-0.41,2.689-0.723,3.395
	c-0.328,0.689-0.656,1.363-0.164,1.461c0.509,0.098,1.214,0.443,1.328,0.902c0.115,0.459,0.051,0.721,0.738,1.033
	C76.203,48.511,76.548,49.332,76.548,49.332L76.548,49.332z"/>
<path fill-rule="evenodd" clip-rule="evenodd" fill="#D09E4B" d="M81.485,49.085c1.017-0.311,2.608-2.609,2.46-4.199
	c-0.229-2.428-3.674-4.102-6.118-4.035c-2.51,0.08-3.806,3.148-2.624,5.053C76.548,48.068,78.992,49.855,81.485,49.085
	L81.485,49.085z"/>
<path fill-rule="evenodd" clip-rule="evenodd" fill="#D4D794" d="M80.648,47.986c0.787-0.246,2.018-2.018,1.903-3.264
	c-0.181-1.869-2.854-3.166-4.741-3.117c-1.936,0.066-2.952,2.445-2.034,3.92C76.811,47.199,78.713,48.593,80.648,47.986
	L80.648,47.986z"/>
<path fill-rule="evenodd" clip-rule="evenodd" fill="#684123" d="M71.609,5.501c0.607-0.197,1.526-1.525,1.428-2.445
	c-0.131-1.426-2.133-2.395-3.543-2.344c-1.46,0.033-2.23,1.82-1.541,2.936C68.74,4.912,70.167,5.945,71.609,5.501L71.609,5.501z"/>
<path fill-rule="evenodd" clip-rule="evenodd" fill="#F4F2BA" d="M71.135,4.861c0.459-0.146,1.164-1.18,1.1-1.902
	c-0.1-1.1-1.658-1.836-2.756-1.82c-1.133,0.033-1.723,1.428-1.182,2.279C68.904,4.402,70.003,5.205,71.135,4.861L71.135,4.861z"/>
<path fill-rule="evenodd" clip-rule="evenodd" fill="#6C417A" d="M73.365,51.875c-1.033-1.051-3.526-0.902-4.379,0.279
	c-0.936,1.311-0.723,3.689,0.049,5.281c0.443,0.951,2.707,0.852,3.789,0.197C74.727,56.468,75.252,53.81,73.365,51.875
	L73.365,51.875z"/>
<path fill-rule="evenodd" clip-rule="evenodd" fill="#FFFFFF" d="M71.774,52.431c-0.919-0.18-2.247,0.393-2.493,1.297
	c-0.328,1.18,0.082,2.951,1.197,3.494c1.033,0.508,2.756-0.313,3.133-1.395C74.104,54.416,73.185,52.695,71.774,52.431
	L71.774,52.431z"/>
<path fill-rule="evenodd" clip-rule="evenodd" fill="#6C417A" d="M67.657,44.132c-0.82-0.838-2.821-0.723-3.493,0.229
	c-0.756,1.035-0.592,2.936,0.031,4.215c0.361,0.771,2.166,0.689,3.035,0.166C68.756,47.806,69.183,45.673,67.657,44.132
	L67.657,44.132z"/>
<path fill-rule="evenodd" clip-rule="evenodd" fill="#FFFFFF" d="M66.394,44.576c-0.737-0.148-1.804,0.311-2.001,1.031
	c-0.262,0.953,0.065,2.379,0.951,2.807c0.82,0.393,2.215-0.248,2.51-1.117C68.248,46.166,67.525,44.787,66.394,44.576L66.394,44.576
	z"/>
<path fill-rule="evenodd" clip-rule="evenodd" fill="#FFC10E" d="M77.27,42.738c-0.607-0.115-1.477,0.262-1.641,0.852
	c-0.213,0.787,0.066,1.953,0.787,2.297c0.673,0.328,1.821-0.197,2.067-0.9C78.795,44.05,78.205,42.917,77.27,42.738L77.27,42.738z"
	/>
<path fill-rule="evenodd" clip-rule="evenodd" fill="#655F58" d="M58.176,29.3c0,0-0.591,1.607-1.051,2.624
	c-0.475,1.001-0.639,0.657-0.262,1.034s1.689,0.82,1.46,1.361c-0.246,0.541-0.804,1.246-0.853,1.689
	c-0.05,0.443-0.23,0.919-0.23,2.133c0,1.23-0.41,1.574,0.049,2.902c0.443,1.313,0.738,2.444,0.738,2.444s-0.032,1.362-0.032,2.183
	c0,0.819-0.214,1.886-0.541,2.509c-0.329,0.64-0.493,1.164-0.755,1.87s-0.87,1.641-0.477,2.034c0.395,0.41,1.411,1.657,1.411,1.657
	c-0.049,0.049-0.099,0.704-0.312,1.033c-0.213,0.344-0.197-0.082-0.41,0.54c-0.213,0.608-0.377,3.38-0.459,4.118
	c-0.065,0.722-0.968,2.1-1.148,2.657c-0.049,0.115-0.082,0.229-0.098,0.361c-0.033-0.132-0.065-0.246-0.098-0.361
	c-0.197-0.558-1.1-1.936-1.165-2.657c-0.066-0.738-0.23-3.51-0.443-4.118c-0.213-0.622-0.197-0.196-0.427-0.54
	c-0.196-0.329-0.246-0.984-0.311-1.033c0,0,1.017-1.247,1.411-1.657c0.41-0.394-0.197-1.328-0.459-2.034s-0.426-1.23-0.755-1.87
	c-0.328-0.623-0.542-1.689-0.542-2.509c0-0.82-0.049-2.183-0.049-2.183s0.312-1.132,0.754-2.444c0.443-1.328,0.05-1.672,0.05-2.902
	c0-1.214-0.197-1.689-0.246-2.133c-0.033-0.443-0.607-1.148-0.837-1.689s1.083-0.984,1.46-1.361
	c0.377-0.377,0.213-0.033-0.262-1.034c-0.476-1.017-1.066-2.624-1.066-2.624s0.082-0.213,0.361-0.36
	c0.279-0.147,0.722-0.247,0.738-0.395c0-0.163-0.115-0.722-0.065-1.164c0.049-0.443,0.148-0.936,0.181-1.264
	c0.032-0.327-0.115-1.05,0.147-1.196c0.263-0.148,0.394-0.28,0.673,0.475c0.279,0.738,0.508,1.197,0.689,1.246
	c0.099,0.033,0.197,0.115,0.263,0.165c0.065-0.05,0.164-0.132,0.262-0.165c0.165-0.049,0.394-0.508,0.673-1.246
	c0.296-0.755,0.427-0.623,0.673-0.475c0.262,0.146,0.115,0.869,0.164,1.196c0.032,0.328,0.131,0.82,0.164,1.264
	c0.049,0.442-0.066,1.001-0.049,1.164c0.016,0.147,0.441,0.247,0.721,0.395C58.109,29.087,58.176,29.3,58.176,29.3L58.176,29.3z"/>
<path fill-rule="evenodd" clip-rule="evenodd" fill="#746754" d="M55.207,33.123c-0.246,0.163-0.673,0.542-0.952,1.213
	c-0.426,1.019-0.951,2.28-0.853,3.149c0.098,0.869-0.017,2.329-0.083,2.724c-0.065,0.41-0.788,2.28-0.754,2.576
	c0.033,0.294,0.131,0.704,1.116,1.41c0.59,0.41,1.148,0.64,1.525,0.721c0.361-0.081,0.935-0.311,1.509-0.721
	c0.983-0.706,1.083-1.116,1.115-1.41c0.033-0.296-0.673-2.166-0.737-2.576c-0.083-0.395-0.182-1.854-0.1-2.724
	c0.1-0.869-0.41-2.131-0.836-3.149C55.863,33.665,55.453,33.286,55.207,33.123L55.207,33.123z"/>
<path fill-rule="evenodd" clip-rule="evenodd" fill="#746754" d="M53.353,54.988c0-0.017-0.016-0.017-0.016-0.017
	c-0.115-0.196-0.033-1.575,0.23-1.805c0.278-0.229,1.033-0.918,1.476-1.246c0.066-0.033,0.115-0.065,0.164-0.099
	c0.049,0.033,0.098,0.065,0.147,0.099c0.443,0.328,1.198,1.017,1.476,1.246c0.279,0.229,0.345,1.608,0.246,1.805
	c-0.016,0-0.016,0-0.016,0.017c-0.05,0.049-0.082,0.131-0.148,0.327c-0.213,0.608-0.377,3.38-0.459,4.118
	c-0.065,0.722-0.968,2.1-1.148,2.657c-0.049,0.115-0.082,0.229-0.098,0.361c-0.033-0.132-0.065-0.246-0.098-0.361
	c-0.197-0.558-1.1-1.936-1.165-2.657c-0.066-0.738-0.23-3.51-0.443-4.118C53.435,55.119,53.386,55.037,53.353,54.988L53.353,54.988z
	"/>
<path fill-rule="evenodd" clip-rule="evenodd" fill="#9E6642" d="M54.354,54.216c0.098-0.049,0.147-0.163,0.59-0.163h0.263h0.262
	c0.427,0,0.492,0.114,0.59,0.163l0.132,0.181c0,0-0.23,0.247-0.624,0.263c-0.115,0.016-0.246,0-0.361,0
	c-0.131,0-0.263,0.016-0.377,0c-0.377-0.016-0.623-0.263-0.623-0.263L54.354,54.216z M55.207,60.008L55.207,60.008
	c0.098,0,0.197,0,0.279-0.018c0.312-0.098,0.492-0.361,0.065-0.393c-0.115-0.018-0.229-0.018-0.344-0.018s-0.246,0-0.344,0.018
	c-0.443,0.031-0.246,0.295,0.049,0.393C54.994,60.008,55.092,60.008,55.207,60.008L55.207,60.008z M55.207,58.498L55.207,58.498
	h0.017c0.541,0.051,0.853-0.262,0.706-0.344c-0.132-0.049-0.427-0.296-0.722-0.36c-0.295,0.064-0.59,0.312-0.722,0.36
	c-0.164,0.082,0.148,0.395,0.706,0.344H55.207z M55.207,56.776L55.207,56.776l0.131,0.032c0.377,0.066,0.754,0.033,0.738-0.081
	c-0.017-0.131-0.525-0.427-0.82-0.477h-0.049h-0.065c-0.279,0.05-0.804,0.346-0.82,0.477c0,0.114,0.377,0.147,0.754,0.081
	L55.207,56.776z"/>
<path fill-rule="evenodd" clip-rule="evenodd" fill="#7C5034" d="M56.814,38.568c0.146,0-0.592-0.771-0.607-1.509
	c-0.033-0.722-1.017-0.164-1.017-0.574c-0.213,0.263-0.968-0.147-0.984,0.574c-0.033,0.738-0.771,1.509-0.607,1.509l-0.164-0.41
	c0-0.245-0.017-0.475-0.033-0.673c-0.099-0.869,0.426-2.131,0.853-3.149c0.279-0.671,0.706-1.05,0.952-1.213
	c0.246,0.163,0.656,0.542,0.952,1.213c0.426,1.019,0.936,2.28,0.836,3.149c-0.016,0.198-0.033,0.428-0.033,0.673L56.814,38.568z"/>
<path fill-rule="evenodd" clip-rule="evenodd" fill="#8E6B43" d="M57.143,27.955c0,0-0.328-0.131-0.574-0.622
	c-0.23-0.492,0.016-0.869-0.509-0.657c-0.508,0.198-0.59-0.033-0.59-0.033c0.165-0.049,0.394-0.508,0.673-1.246
	c0.296-0.755,0.427-0.623,0.673-0.475c0.262,0.146,0.115,0.869,0.164,1.196c0.032,0.328,0.131,0.82,0.164,1.264
	C57.175,27.562,57.158,27.775,57.143,27.955L57.143,27.955z"/>
<path fill-rule="evenodd" clip-rule="evenodd" fill="#FFFFFF" d="M57.58,30.883c0,0-0.656-0.148-0.968-0.607
	s-0.361-1.377-0.147-1.689c0.196-0.313,0.721-0.064,0.721-0.064s0.542,0.262,0.656,0.311c0.115,0.066,0.361,0.313,0.361,0.313
	s-0.131,0.475-0.246,0.77C57.842,30.211,57.58,30.883,57.58,30.883L57.58,30.883z"/>
<path fill-rule="evenodd" clip-rule="evenodd" fill="#2E2C2C" d="M57.186,29.686c-0.36,0-0.656-0.246-0.656-0.525
	c0-0.295,0.296-0.525,0.656-0.525c0.361,0,0.656,0.23,0.656,0.525C57.842,29.44,57.547,29.686,57.186,29.686L57.186,29.686z"/>
<path fill-rule="evenodd" clip-rule="evenodd" fill="#FFFFFF" d="M52.899,30.883c0,0,0.656-0.147,0.967-0.606
	c0.312-0.46,0.361-1.378,0.148-1.689c-0.197-0.313-0.722-0.065-0.722-0.065s-0.542,0.262-0.656,0.311
	c-0.115,0.066-0.361,0.313-0.361,0.313s0.131,0.476,0.246,0.771C52.636,30.211,52.899,30.883,52.899,30.883L52.899,30.883z"/>
<path fill-rule="evenodd" clip-rule="evenodd" fill="#2E2C2C" d="M53.292,29.686c0.361,0,0.656-0.246,0.656-0.524
	c0-0.296-0.295-0.525-0.656-0.525s-0.656,0.229-0.656,0.525C52.636,29.44,52.932,29.686,53.292,29.686L53.292,29.686z"/>
</svg>
