<?xml version="1.0" encoding="utf-8"?>
<!-- Generator: Adobe Illustrator 13.0.0, SVG Export Plug-In . SVG Version: 6.00 Build 14948)  -->
<!DOCTYPE svg PUBLIC "-//W3C//DTD SVG 1.1//EN" "http://www.w3.org/Graphics/SVG/1.1/DTD/svg11.dtd">
<svg version="1.1" id="Layer_1" xmlns="http://www.w3.org/2000/svg" xmlns:xlink="http://www.w3.org/1999/xlink" x="0px" y="0px"
	 width="100.119px" height="81.898px" viewBox="0 0 100.119 81.898" enable-background="new 0 0 100.119 81.898"
	 xml:space="preserve">
<path fill="#FFD243" d="M36.03,70.417c-0.316,4.888,16.644,11.363,20.317,11.48c3.672,0.129-0.623-9.792-0.147-15.313
	C48.458,69.903,36.158,70.289,36.03,70.417L36.03,70.417z"/>
<path fill="#2E2C2C" d="M16.414,32.123c0.108-4.077-0.662-7.324-5.973-7.255c-3.317,0.049-5.548,1.421-5.499,4.777
	c0.059,4.669-0.455,10.907,3.682,11.393C12.366,41.462,16.473,36.052,16.414,32.123L16.414,32.123z"/>
<path fill="#FFFFFF" d="M15.644,32.716c0.099-3.801-0.622-6.832-5.568-6.763c-3.1,0.05-5.183,1.333-5.133,4.452
	c0.059,4.363-0.425,10.188,3.435,10.633C11.873,41.443,15.703,36.389,15.644,32.716L15.644,32.716z"/>
<path fill="#C9DA2A" d="M12.633,32.765c-0.03-2.19-2.063-4.808-4.393-4.976c-3.752-0.286-3.88,6.357-2.073,9.151
	c0.938,1.45,0.898,1.647,2.448,1.629C10.313,38.54,12.653,34.177,12.633,32.765L12.633,32.765z"/>
<path fill="#2E2C2C" d="M11.577,33.664c-0.069-0.83-0.444-1.748-1.106-1.738c-0.404,0.011-0.464-0.089-0.809,0.021
	c-0.563,0.177-2.478,0.71-2.547,1.45c-0.109,1.225-0.217,2.014,0.167,2.98C7.529,37,8.181,37.514,8.645,37.583
	c0.474,0.078,0.721,0.315,1.214-0.02c0.533-0.356,1.046-1.106,1.333-1.777C11.557,34.917,11.715,34.602,11.577,33.664L11.577,33.664
	z"/>
<path fill="none" d="M11.577,33.664c-0.069-0.83-0.444-1.748-1.106-1.738c-0.404,0.011-0.464-0.089-0.809,0.021
	c-0.563,0.177-2.478,0.71-2.547,1.45c-0.109,1.225-0.217,2.014,0.167,2.98C7.529,37,8.181,37.514,8.645,37.583
	c0.474,0.078,0.721,0.315,1.214-0.02c0.533-0.356,1.046-1.106,1.333-1.777C11.557,34.917,11.715,34.602,11.577,33.664L11.577,33.664
	z"/>
<path fill="#FF8B00" d="M78.519,31.324c-9.971-11.985-47.08-35.382-66.666-3.742C5.071,38.54,4.222,45.194,1.714,51.778
	c0.79,4.226,3.781,8.776,9.862,14.117c16.062,14.127,33.121,10.168,47.356,4.521c15.694-6.239,15.873-18.322,21.657-28.175
	c0.248,3.219,17.968,8.756,15.896,5.666c-6.416-9.595-13.998-8.144-12.873-15.884c-2.24-2.23,9.27-9.447,7.481-9.654
	c-1.784-0.207-1.342-1.175-3.581,2.458C86.208,26.951,78.083,31.946,78.519,31.324L78.519,31.324z"/>
<path fill="none" d="M78.519,31.324c-9.971-11.985-47.08-35.382-66.666-3.742C5.071,38.54,4.222,45.194,1.714,51.778
	c0.79,4.226,3.781,8.776,9.862,14.117c16.062,14.127,33.121,10.168,47.356,4.521c15.694-6.239,15.873-18.322,21.657-28.175
	c0.248,3.219,17.968,8.756,15.896,5.666c-6.416-9.595-13.998-8.144-12.873-15.884c-2.24-2.23,9.27-9.447,7.481-9.654
	c-1.784-0.207-1.342-1.175-3.581,2.458C86.208,26.951,78.083,31.946,78.519,31.324L78.519,31.324z"/>
<path fill="#C9DA2A" d="M78.519,31.324C69.783,20.82,40.215,1.569,19.85,18.243c5.153,4.689-0.069,8.855,4.551,13.476
	c5.055,5.064,6.584-6.052,9.862,3.012c2.044,5.657,5.193-5.845,8.184,2.438c2.616,7.236,10.643-3.327,11.639,2.004
	c1.313,6.99,7.799,0.997,7.799,3.22c0,5.773,2.783,14.916,9.289,18.974c2.961-5.134,5.953-13.584,9.418-19.122
	c0.722,4.512,22.332,14.938,19.222,8.993C94.472,40.998,87.345,33.11,88.46,25.371c-2.23-2.23,4.146-5.005,2.359-5.223
	c-1.787-0.207-2.873-1.44-5.104,2.191C84.412,24.453,78.083,31.946,78.519,31.324L78.519,31.324z"/>
<path fill="#FFE680" d="M78.519,31.324C69.783,20.82,40.215,1.569,19.85,18.243c5.153,4.689,0.632,8.53,5.252,13.16
	c5.054,5.054,6.13-6.832,9.408,2.229c2.043,5.656,5.815-4.936,8.806,3.348c2.606,7.235,10.919-4.138,11.048,1.283
	c0.197,8.796,7.877,1.164,7.877,3.386c0,5.774,3.436,14.433,9.951,18.479c2.951-5.133,4.936-12.35,8.399-17.888L78.519,31.324z"/>
<path fill="#A8B531" d="M78.519,31.324c-7.918-9.527-32.962-26.24-52.755-16.852c2.37,5.784-0.543,15.271,4.156,10.571
	c4.788-4.787,0.503,8.097,10.859,1.729c3.979-2.449,1.826,4.383,3.762,5.734c1.836,1.273,10.375,1.816,11.441,0.286
	c4.234-6.101,1.332,6.259,6.377,4.255c6.15-2.459,4.027,0.09,5.312,4.373c0.593,1.964,4.867-1.718,4.867,4.284
	c0,4.403-0.039,4.038,2.271,7.354c1.502-3.683,3.467-7.117,5.784-10.819L78.519,31.324z"/>
<path fill="#2E2C2C" d="M22.515,31.966c0.108-4.066-0.671-7.324-5.973-7.246c-3.317,0.05-5.558,1.422-5.509,4.778
	c0.069,4.669-0.454,10.908,3.692,11.393C18.467,41.314,22.574,35.904,22.515,31.966L22.515,31.966z"/>
<path fill="#2E2C2C" d="M12.485,66.942l-0.662-0.405c13.229-1.155,18.757-10.415,20.573-10.296l1.461,0.522
	C15.792,60.94,26.552,69.775,12.485,66.942L12.485,66.942z"/>
<path fill="none" d="M12.485,66.942l-0.662-0.405c13.229-1.155,18.757-10.415,20.573-10.296l1.461,0.522
	C15.792,60.94,26.552,69.775,12.485,66.942L12.485,66.942z"/>
<path fill="#FFFFFF" d="M21.745,32.568c0.099-3.802-0.622-6.832-5.578-6.763c-3.09,0.05-5.183,1.333-5.134,4.451
	c0.069,4.363-0.425,10.188,3.436,10.633C17.964,41.295,21.794,36.24,21.745,32.568L21.745,32.568z"/>
<path fill="#C9DA2A" d="M21.024,33.338c-0.03-2.19-2.074-4.798-4.393-4.976c-3.751-0.276-3.88,6.356-2.083,9.151
	c0.948,1.45,0.908,1.647,2.458,1.629C18.704,39.123,21.044,34.759,21.024,33.338L21.024,33.338z"/>
<path fill="#2E2C2C" d="M21.054,34.246c-0.069-0.839-0.454-1.758-1.105-1.737c-0.405,0-0.464-0.099-0.81,0.011
	c-0.563,0.178-2.478,0.711-2.547,1.461c-0.108,1.214-0.217,2.004,0.168,2.98c0.247,0.611,0.898,1.137,1.362,1.204
	c0.474,0.069,0.72,0.316,1.214-0.029c0.533-0.354,1.047-1.104,1.333-1.776C21.024,35.5,21.192,35.184,21.054,34.246L21.054,34.246z"
	/>
<path fill="none" d="M21.054,34.246c-0.069-0.839-0.454-1.758-1.105-1.737c-0.405,0-0.464-0.099-0.81,0.011
	c-0.563,0.178-2.478,0.711-2.547,1.461c-0.108,1.214-0.217,2.004,0.168,2.98c0.247,0.611,0.898,1.137,1.362,1.204
	c0.474,0.069,0.72,0.316,1.214-0.029c0.533-0.354,1.047-1.104,1.333-1.776C21.024,35.5,21.192,35.184,21.054,34.246L21.054,34.246z"
	/>
<path fill="#FFFFFF" d="M18.072,33.684c-0.029-0.287-0.207-0.612-0.503-0.612c-0.188,0.01-0.217-0.029-0.375,0.01
	c-0.257,0.061-1.135,0.247-1.165,0.515c-0.06,0.424-0.109,0.711,0.069,1.046c0.118,0.218,0.415,0.403,0.632,0.425
	c0.217,0.029,0.326,0.118,0.553-0.01c0.247-0.119,0.484-0.386,0.612-0.622C18.063,34.127,18.142,34.019,18.072,33.684L18.072,33.684
	z"/>
<path fill="#2E2C2C" d="M40.501,18.145c-0.059-0.829-2.083-1.451-2.734-1.441c-0.405,0.01-0.464-0.089-0.81,0.021
	c-0.563,0.177-2.488,0.71-2.547,1.45c-0.108,1.225-0.217,2.015,0.168,2.98c0.247,0.623,0.898,1.136,1.362,1.205
	c0.464,0.078,0.71,0.314,1.214-0.021c0.533-0.355,2.537-0.06,2.823-0.74C40.333,20.741,40.65,19.083,40.501,18.145L40.501,18.145z"
	/>
<path fill="none" d="M40.501,18.145c-0.059-0.829-2.083-1.451-2.734-1.441c-0.405,0.01-0.464-0.089-0.81,0.021
	c-0.563,0.177-2.488,0.71-2.547,1.45c-0.108,1.225-0.217,2.015,0.168,2.98c0.247,0.623,0.898,1.136,1.362,1.205
	c0.464,0.078,0.71,0.314,1.214-0.021c0.533-0.355,2.537-0.06,2.823-0.74C40.333,20.741,40.65,19.083,40.501,18.145L40.501,18.145z"
	/>
<path fill="#2E2C2C" d="M98.36,47.84c-1.934,1.273-11.903-5.134-14.204-6.003c-0.207-0.078-0.533,0.436-0.435,0.445
	C90.246,42.874,97.533,48.215,98.36,47.84L98.36,47.84z"/>
<path fill="none" d="M98.36,47.84c-1.934,1.273-11.903-5.134-14.204-6.003c-0.207-0.078-0.533,0.436-0.435,0.445
	C90.246,42.874,97.533,48.215,98.36,47.84L98.36,47.84z"/>
<path fill="#2E2C2C" d="M8.536,50.239c-0.02-0.475-0.819-0.84-1.076-0.83c-0.158,0-0.178-0.06-0.316,0.011
	c-0.217,0.099-0.967,0.414-0.997,0.839c-0.039,0.711-0.079,1.176,0.069,1.737c0.099,0.355,0.355,0.661,0.533,0.7
	c0.188,0.04,0.276,0.188,0.474-0.01c0.208-0.207,0.997-0.039,1.106-0.435C8.467,51.759,8.595,50.792,8.536,50.239L8.536,50.239z"/>
<path fill="none" d="M8.536,50.239c-0.02-0.475-0.819-0.84-1.076-0.83c-0.158,0-0.178-0.06-0.316,0.011
	c-0.217,0.099-0.967,0.414-0.997,0.839c-0.039,0.711-0.079,1.176,0.069,1.737c0.099,0.355,0.355,0.661,0.533,0.7
	c0.188,0.04,0.276,0.188,0.474-0.01c0.208-0.207,0.997-0.039,1.106-0.435C8.467,51.759,8.595,50.792,8.536,50.239L8.536,50.239z"/>
<path fill="#2E2C2C" d="M51.144,19.576c-0.059-1.372-2.083-2.389-2.733-2.369c-0.414,0.01-0.465-0.158-0.811,0.021
	c-0.563,0.296-2.487,1.175-2.556,2.397c-0.108,2.016-0.218,3.317,0.177,4.917c0.238,1.007,0.889,1.866,1.364,1.984
	c0.463,0.107,0.711,0.513,1.215-0.04c0.531-0.592,2.535-0.108,2.813-1.214C50.976,23.851,51.292,21.116,51.144,19.576L51.144,19.576
	z"/>
<path fill="none" d="M51.144,19.576c-0.059-1.372-2.083-2.389-2.733-2.369c-0.414,0.01-0.465-0.158-0.811,0.021
	c-0.563,0.296-2.487,1.175-2.556,2.397c-0.108,2.016-0.218,3.317,0.177,4.917c0.238,1.007,0.889,1.866,1.364,1.984
	c0.463,0.107,0.711,0.513,1.215-0.04c0.531-0.592,2.535-0.108,2.813-1.214C50.976,23.851,51.292,21.116,51.144,19.576L51.144,19.576
	z"/>
<path fill="#2E2C2C" d="M61.519,22.399c-0.059-0.829-2.082-1.451-2.744-1.441c-0.403,0.01-0.465-0.089-0.809,0.021
	c-0.563,0.178-2.479,0.711-2.549,1.451c-0.107,1.225-0.217,2.015,0.168,2.99c0.248,0.612,0.898,1.126,1.363,1.194
	c0.475,0.08,0.721,0.316,1.215-0.021c0.533-0.354,2.547-0.059,2.822-0.738C61.351,24.996,61.667,23.338,61.519,22.399L61.519,22.399
	z"/>
<path fill="none" d="M61.519,22.399c-0.059-0.829-2.082-1.451-2.744-1.441c-0.403,0.01-0.465-0.089-0.809,0.021
	c-0.563,0.178-2.479,0.711-2.549,1.451c-0.107,1.225-0.217,2.015,0.168,2.99c0.248,0.612,0.898,1.126,1.363,1.194
	c0.475,0.08,0.721,0.316,1.215-0.021c0.533-0.354,2.547-0.059,2.822-0.738C61.351,24.996,61.667,23.338,61.519,22.399L61.519,22.399
	z"/>
<path fill="#C47A1F" d="M64.283,56.31c-0.089-1.204-3.011-2.104-3.957-2.082c-0.595,0.009-0.673-0.14-1.177,0.02
	c-0.811,0.267-3.584,1.026-3.682,2.104c-0.158,1.767-0.316,2.912,0.246,4.313c0.346,0.889,1.293,1.649,1.965,1.747
	c0.682,0.1,1.037,0.455,1.758-0.039c0.771-0.513,3.672-0.089,4.086-1.064C64.037,60.062,64.501,57.662,64.283,56.31L64.283,56.31z"
	/>
<path fill="#C47A1F" d="M44.865,45.668c-0.089-1.204-3.011-2.103-3.959-2.083c-0.592,0.01-0.671-0.139-1.175,0.021
	c-0.809,0.267-3.583,1.037-3.682,2.103c-0.158,1.777-0.316,2.912,0.247,4.324c0.345,0.889,1.293,1.639,1.964,1.737
	c0.681,0.099,1.037,0.454,1.757-0.029c0.77-0.523,3.672-0.1,4.086-1.066C44.628,49.42,45.082,47.021,44.865,45.668L44.865,45.668z"
	/>
<path fill="#C47A1F" d="M33.721,40.063c-0.099-1.186-3.209-2.08-4.205-2.058c-0.634,0.013-0.721-0.139-1.244,0.013
	c-0.871,0.268-3.819,1.021-3.919,2.091c-0.162,1.755-0.336,2.881,0.262,4.273c0.373,0.884,1.381,1.626,2.09,1.73
	c0.722,0.104,1.095,0.453,1.866-0.034c0.822-0.512,3.907-0.093,4.33-1.057C33.46,43.79,33.945,41.409,33.721,40.063L33.721,40.063z"
	/>
<path fill="#2E2C2C" d="M33.887,57.83c-0.405-1.272-1.451-2.833-4.314-1.569c-0.148-0.029-0.385-0.771,0.208-0.611
	c0.247,0.06,0.474-0.049,0.78-0.108c0.158-0.021,1.234-0.04,1.412,0c0.592,0.158,1.145,0.542,1.639,0.967
	c0.177,0.148,0.464,0.633,0.572,0.859C34.381,57.82,34.134,58.156,33.887,57.83L33.887,57.83z"/>
<path fill="none" d="M33.887,57.83c-0.405-1.272-1.451-2.833-4.314-1.569c-0.148-0.029-0.385-0.771,0.208-0.611
	c0.247,0.06,0.474-0.049,0.78-0.108c0.158-0.021,1.234-0.04,1.412,0c0.592,0.158,1.145,0.542,1.639,0.967
	c0.177,0.148,0.464,0.633,0.572,0.859C34.381,57.82,34.134,58.156,33.887,57.83L33.887,57.83z"/>
<path fill="#F281CC" d="M79.744,30.554c-7.908-9.526-34.188-25.471-53.981-16.081c2.37,5.784,1.214,12.813,5.903,8.125
	c4.798-4.8-0.197,8.439,10.158,2.071c3.98-2.447,1.195,5.38,3.13,6.733c1.836,1.272,9.525,1.688,10.602,0.146
	c4.236-6.091,4.187,5.678,9.25,3.731c7.818-3.011,1.699,0.336,2.982,4.62c0.592,1.965,6.268-2.408,6.268,3.584
	c0,4.402-1.125,6.259,1.187,9.575c1.5-3.683,3.03-7.117,5.35-10.819c0.722,4.512,22.332,14.937,19.222,8.993
	c-2.586-4.965-9.783-16.664-7.049-38.155c-1.787-0.207-5.646,3.959-7.877,7.592C83.583,22.785,79.317,31.176,79.744,30.554
	L79.744,30.554z"/>
<path fill="#FFD243" d="M31.607,39.813c-0.069-0.938-2.418-1.648-3.179-1.628c-0.474,0.009-0.533-0.109-0.938,0.02
	c-0.652,0.197-2.873,0.799-2.952,1.648c-0.128,1.392-0.256,2.29,0.198,3.386c0.276,0.701,1.037,1.293,1.579,1.372
	c0.543,0.079,0.83,0.354,1.402-0.029c0.622-0.405,2.941-0.068,3.277-0.829C31.41,42.766,31.775,40.88,31.607,39.813L31.607,39.813z"
	/>
<path fill="none" d="M31.607,39.813c-0.069-0.938-2.418-1.648-3.179-1.628c-0.474,0.009-0.533-0.109-0.938,0.02
	c-0.652,0.197-2.873,0.799-2.952,1.648c-0.128,1.392-0.256,2.29,0.198,3.386c0.276,0.701,1.037,1.293,1.579,1.372
	c0.543,0.079,0.83,0.354,1.402-0.029c0.622-0.405,2.941-0.068,3.277-0.829C31.41,42.766,31.775,40.88,31.607,39.813L31.607,39.813z"
	/>
<path fill="#FFD243" d="M44.421,45.648c-0.089-1.007-2.833-1.748-3.722-1.737c-0.552,0.009-0.631-0.119-1.105,0.021
	c-0.76,0.217-3.366,0.858-3.455,1.757c-0.148,1.48-0.296,2.438,0.227,3.612c0.326,0.74,1.214,1.362,1.846,1.451
	c0.642,0.089,0.977,0.375,1.648-0.029c0.73-0.435,3.455-0.078,3.84-0.889C44.194,48.787,44.618,46.783,44.421,45.648L44.421,45.648z
	"/>
<path fill="#FFD243" d="M62.965,55.933c-0.079-0.977-2.435-1.709-3.198-1.691c-0.469,0.008-0.539-0.113-0.938,0.017
	c-0.652,0.217-2.896,0.838-2.963,1.719c-0.132,1.44-0.263,2.375,0.19,3.515c0.286,0.726,1.043,1.339,1.59,1.425
	c0.549,0.078,0.834,0.371,1.416-0.025c0.617-0.433,2.955-0.078,3.285-0.872C62.765,58.998,63.13,57.047,62.965,55.933L62.965,55.933
	z"/>
<path fill="#93BA49" d="M66.112,25.466c-0.067-0.947-2.389-1.657-3.139-1.647c-0.463,0.01-0.533-0.108-0.928,0.02
	c-0.652,0.207-2.854,0.819-2.922,1.668c-0.129,1.402-0.258,2.312,0.188,3.427c0.287,0.7,1.037,1.304,1.57,1.382
	c0.533,0.079,0.818,0.355,1.391-0.029c0.613-0.414,2.912-0.068,3.238-0.849C65.925,28.448,66.281,26.552,66.112,25.466
	L66.112,25.466z"/>
<path fill="#C9DA2A" d="M65.438,25.924c-0.059-0.779-2.172-1.361-2.844-1.343c-0.424,0-0.484-0.089-0.85,0.011
	c-0.582,0.168-2.576,0.672-2.645,1.361c-0.109,1.155-0.229,1.896,0.178,2.804c0.256,0.583,0.928,1.066,1.412,1.137
	c0.492,0.067,0.75,0.296,1.264-0.021c0.553-0.335,2.645-0.059,2.932-0.689C65.261,28.372,65.585,26.813,65.438,25.924L65.438,25.924
	z"/>
<path fill="none" d="M65.438,25.924c-0.059-0.779-2.172-1.361-2.844-1.343c-0.424,0-0.484-0.089-0.85,0.011
	c-0.582,0.168-2.576,0.672-2.645,1.361c-0.109,1.155-0.229,1.896,0.178,2.804c0.256,0.583,0.928,1.066,1.412,1.137
	c0.492,0.067,0.75,0.296,1.264-0.021c0.553-0.335,2.645-0.059,2.932-0.689C65.261,28.372,65.585,26.813,65.438,25.924L65.438,25.924
	z"/>
<path fill="#93BA49" d="M54.034,19.907c-0.07-0.898-2.262-1.57-2.973-1.56c-0.443,0.009-0.502-0.101-0.877,0.02
	c-0.613,0.197-2.695,0.771-2.766,1.579c-0.117,1.323-0.236,2.182,0.188,3.238c0.258,0.66,0.969,1.224,1.473,1.303
	c0.512,0.079,0.779,0.346,1.322-0.029c0.573-0.385,2.754-0.068,3.061-0.8C53.856,22.73,54.192,20.933,54.034,19.907L54.034,19.907z"
	/>
<path fill="#C9DA2A" d="M55.181,19.833c-0.059-0.78-2.162-1.361-2.844-1.353c-0.424,0.01-0.482-0.089-0.848,0.01
	c-0.582,0.168-2.576,0.672-2.646,1.372c-0.107,1.146-0.227,1.886,0.178,2.804c0.258,0.573,0.928,1.066,1.412,1.126
	c0.494,0.068,0.75,0.296,1.263-0.021c0.554-0.335,2.646-0.06,2.933-0.691C55.003,22.271,55.33,20.712,55.181,19.833L55.181,19.833z"
	/>
<path fill="none" d="M55.181,19.833c-0.059-0.78-2.162-1.361-2.844-1.353c-0.424,0.01-0.482-0.089-0.848,0.01
	c-0.582,0.168-2.576,0.672-2.646,1.372c-0.107,1.146-0.227,1.886,0.178,2.804c0.258,0.573,0.928,1.066,1.412,1.126
	c0.494,0.068,0.75,0.296,1.263-0.021c0.554-0.335,2.646-0.06,2.933-0.691C55.003,22.271,55.33,20.712,55.181,19.833L55.181,19.833z"
	/>
<path fill="#93BA49" d="M42.547,15.147c-0.079-1.026-2.586-1.797-3.396-1.776c-0.504,0.01-0.573-0.119-1.007,0.021
	c-0.691,0.217-3.07,0.879-3.149,1.797c-0.138,1.52-0.267,2.497,0.208,3.69c0.306,0.761,1.115,1.412,1.688,1.491
	c0.583,0.089,0.889,0.396,1.501-0.03c0.662-0.443,3.149-0.077,3.495-0.906C42.331,18.366,42.725,16.312,42.547,15.147L42.547,15.147
	z"/>
<path fill="#C9DA2A" d="M43.276,15.213c-0.069-0.897-2.478-1.569-3.258-1.55c-0.484,0.01-0.553-0.108-0.968,0.01
	c-0.661,0.197-2.952,0.771-3.031,1.569c-0.128,1.313-0.256,2.162,0.198,3.209c0.296,0.661,1.076,1.224,1.629,1.303
	c0.553,0.069,0.849,0.336,1.441-0.028c0.632-0.387,3.021-0.069,3.366-0.79C43.078,18.007,43.453,16.219,43.276,15.213L43.276,15.213
	z"/>
<path fill="#FFD243" d="M35.864,11.483C35.548,6.596,52.507,0.12,56.181,0.001c3.672-0.128-0.623,9.793-0.147,15.313
	C48.292,11.996,35.992,11.611,35.864,11.483L35.864,11.483z"/>
<path fill="#5E340D" d="M90.949,26.743c-3.082,0.355-9.558,5.864-10.396,5.035c-0.078-0.08-0.285,0.267-0.246,0.286
	C82.171,32.755,86.524,28.017,90.949,26.743L90.949,26.743z"/>
<path fill="#5E340D" d="M93.406,35.51c-2.972-0.879-11.087,1.67-11.529,0.582c-0.041-0.099-0.377,0.14-0.346,0.168
	C82.981,37.622,88.835,34.956,93.406,35.51L93.406,35.51z"/>
<path fill="#5E340D" d="M92.853,44.986c-2.389-1.974-10.85-2.833-10.83-4.008c0.011-0.108-0.395-0.021-0.375,0.02
	C82.437,42.815,88.875,42.677,92.853,44.986L92.853,44.986z"/>
<path fill="#2E2C2C" d="M52.269,3.899c-3.089,0.275-9.693,5.637-10.503,4.788c-0.079-0.079-0.296,0.267-0.256,0.286
	C43.354,9.704,47.818,5.064,52.269,3.899L52.269,3.899z"/>
<path fill="#4C2F0C" d="M52.269,3.899c-3.089,0.275-9.693,5.637-10.503,4.788c-0.079-0.079-0.296,0.267-0.256,0.286
	C43.354,9.704,47.818,5.064,52.269,3.899L52.269,3.899z"/>
<path fill="#2E2C2C" d="M54.037,7.118c-1.966,0.177-6.16,3.583-6.674,3.04c-0.049-0.05-0.188,0.168-0.168,0.178
	C48.371,10.8,51.203,7.858,54.037,7.118L54.037,7.118z"/>
<path fill="#4C2F0C" d="M54.037,7.118c-1.966,0.177-6.16,3.583-6.674,3.04c-0.049-0.05-0.188,0.168-0.168,0.178
	C48.371,10.8,51.203,7.858,54.037,7.118L54.037,7.118z"/>
<path fill="#2E2C2C" d="M48.291,75.195c2.312,0.207,7.256,4.225,7.856,3.583c0.062-0.06,0.229,0.207,0.199,0.218
	C54.964,79.538,51.619,76.073,48.291,75.195L48.291,75.195z"/>
<path fill="#4C2F0C" d="M48.291,75.195c2.312,0.207,7.256,4.225,7.856,3.583c0.062-0.06,0.229,0.207,0.199,0.218
	C54.964,79.538,51.619,76.073,48.291,75.195L48.291,75.195z"/>
<path fill="#2E2C2C" d="M45.517,76.745c1.965,0.178,6.162,3.583,6.684,3.04c0.039-0.05,0.188,0.168,0.157,0.178
	C51.183,80.427,48.349,77.485,45.517,76.745L45.517,76.745z"/>
<path fill="#4C2F0C" d="M45.517,76.745c1.965,0.178,6.162,3.583,6.684,3.04c0.039-0.05,0.188,0.168,0.157,0.178
	C51.183,80.427,48.349,77.485,45.517,76.745L45.517,76.745z"/>
</svg>
