<?xml version="1.0" encoding="utf-8"?>
<!-- Generator: Adobe Illustrator 13.0.0, SVG Export Plug-In . SVG Version: 6.00 Build 14948)  -->
<!DOCTYPE svg PUBLIC "-//W3C//DTD SVG 1.1//EN" "http://www.w3.org/Graphics/SVG/1.1/DTD/svg11.dtd">
<svg version="1.1" id="Layer_1" xmlns="http://www.w3.org/2000/svg" xmlns:xlink="http://www.w3.org/1999/xlink" x="0px" y="0px"
	 width="133.318px" height="83.638px" viewBox="0 0 133.318 83.638" enable-background="new 0 0 133.318 83.638"
	 xml:space="preserve">
<path fill-rule="evenodd" clip-rule="evenodd" fill="#DFBC6E" d="M67.121,61.856C64.785,63.111,59.68,65.425,59.68,68
	c0,2.703,2.423,3.071,5.019,3.071c1.773,0,3.354-0.476,4.997-0.476s1.989,0.281,3.569-0.822c1.903-1.32-1.515-3.331-2.92-4.023
	C69.479,65.294,67.684,62.267,67.121,61.856L67.121,61.856z"/>
<path fill-rule="evenodd" clip-rule="evenodd" fill="#FFD068" d="M67.056,62.375c-2.098,1.124-6.684,3.2-6.684,5.494
	c0,2.423,2.164,2.769,4.499,2.769c1.58,0,3.007-0.433,4.5-0.433c1.471,0,1.773,0.237,3.18-0.735
	c1.709-1.189-1.342-2.985-2.596-3.613C69.176,65.468,67.554,62.744,67.056,62.375L67.056,62.375z"/>
<path fill-rule="evenodd" clip-rule="evenodd" fill="#FFD068" stroke="#2E2C2C" stroke-width="0" stroke-linecap="square" stroke-miterlimit="10" d="
	M25.331,35.942C44.993,8.45,64.828-3.534,91.305,0.9c45.728,7.636,58.057,56.889,17.261,75.232
	c-15.423,6.943-15.228-7.246-29.894-10.166c-16.18-3.245-23.123-4.65-36.34-15.207C39.521,48.509,27.537,35.683,25.331,35.942
	L25.331,35.942z"/>
<path fill-rule="evenodd" clip-rule="evenodd" fill="#DFBC6E" d="M16.613,52.641c0.087,13.497,1.99,25.286,17.672,25.286
	c4.088,0,8.09-0.303,11.789-0.994c2.229-0.411,4.349-0.953,6.316-1.645c2.423-0.865,4.629-1.946,6.532-3.288
	c6.813-4.78,9.777-12.783,5.408-25.222c6.338,0.563,9.236-20.462,12.005-23.274c0.216-0.217-12.222,2.206-23.448,7.852
	c-7.311,0.346-11.594-2.055-18.473-0.714c-4.65,0.909-8.869,1.341-12.913,3.245c-5.213-2.185-21.652-3.656-21.501-3.353
	c3.634,7.419,9.388,15.596,13.887,20.16C14.84,51.667,15.748,52.294,16.613,52.641L16.613,52.641z"/>
<path fill-rule="evenodd" clip-rule="evenodd" fill="#835644" d="M85.227,59.628c-0.866,2.639-3.656,1.449-2.207,5.191
	c2.553,6.619,10.534-0.563,12.286-3.396c3.007-4.802-2.53-11.053-6.316-12.957c-4.391-2.185-13.93-0.801-16.958,2.617
	c-6.078,6.9-4.218,21.826,5.387,25.481c4.456,1.687,24.334,3.071,29.763-0.151c5.365-3.354-21.673-10.771-23.166-10.016
	c-1.622-0.93-8.782-5.342-4.001-9.344C83.279,54.328,85.508,59.628,85.227,59.628L85.227,59.628z"/>
<path fill-rule="evenodd" clip-rule="evenodd" fill="#FFDB8C" d="M13.822,43.08c1.212,3.635,2.899,3.57,2.899,8.697
	c0,13.453,1.558,25.502,17.391,25.459c3.288,0,6.359,0.346,9.432-0.108c2.206,0.821,4.563-0.324,6.641-1.946
	c1.232-0.368,1.362-0.477,2.487-0.931c0.497,0.497,1.514,0.735,3.244-1.341c7.593-4.651,12.438-13.585,7.376-26.715
	c-1.601-4.195,1.99-9.647,3.526-11.183c4.586-4.564-2.055-6.165-4.543-4.976c-9.906,4.716-21.306,0.368-31.256,2.293
	c-4.911,0.93-10.686,2.292-14.839,4.607C13.736,38.3,14.559,42.691,13.822,43.08L13.822,43.08z"/>
<path fill-rule="evenodd" clip-rule="evenodd" fill="#FFDB8C" d="M28.315,36.332C26.239,35.705,0.52,28.956,2.013,31.94
	c3.569,7.16,7.981,14.039,12.394,18.452C22.107,58.092,30.176,42.518,28.315,36.332L28.315,36.332z"/>
<path fill-rule="evenodd" clip-rule="evenodd" fill="#FFDB8C" d="M50.423,33.823c2.919-3.158,24.355-9.496,24.14-9.28
	c-3.635,3.634-1.99,21.263-10.578,20.441c-1.969-0.173-4.499,1.039-7.766-1.839c-1.816-1.622-3.374-3.374-4.953-5.169
	C48.843,35.229,50.963,33.866,50.423,33.823L50.423,33.823z"/>
<path fill-rule="evenodd" clip-rule="evenodd" fill="#EC7B4E" d="M51.525,73.104c-0.563-0.454-0.995-0.778-1.276-1.06
	c-0.194-0.195-0.173-0.303-0.627-0.412c-0.476-0.129-1.06-1.189-1.06-1.687c0-1.103,3.244-1.471,4.218-1.471
	c0.454,0,1.275,0.843,1.275,1.255c0,0.713-0.691,1.341-1.06,1.687C52.606,71.828,51.937,72.26,51.525,73.104L51.525,73.104z"/>
<path fill-rule="evenodd" clip-rule="evenodd" fill="#835644" stroke="#2E2C2C" stroke-width="0" stroke-linecap="square" stroke-miterlimit="10" d="
	M38.093,74.337c3.894,2.033,9.279,3.807,12.806-0.195c0.41-0.476,0.303-1.773,1.298-1.146c1.73,1.082,1.644,1.211,3.331-0.303
	c0.844-0.735,2.055-1.666,2.466-2.747c0.346-0.887,0.107,0.714-0.714,1.73c-0.735,0.909-2.855,3.915-4.65,2.898
	c-1.276-0.714-3.829,3.071-7.247,2.617c-1.752-0.237-2.898-0.8-4.499-1.167C39.758,75.765,36.622,73.839,38.093,74.337
	L38.093,74.337z"/>
<path fill-rule="evenodd" clip-rule="evenodd" fill="#FFD068" d="M86.026,59.736c-0.821,2.467-4.088,1.515-2.834,5.063
	c2.38,6.77,9.756-1.709,11.399-4.436c2.747-4.542-2.703-9.495-6.251-11.291c-4.109-2.033-13.021-0.734-15.855,2.467
	c-5.71,6.445-3.85,20.116,5.019,23.837c7.528,3.136,26.324,3.071,30.153,0.671c2.661-1.666-7.962-20.796-11.834-15.148
	c-4.161,6.068-9.018,6.344-9.667,6.668c-2.769,1.428-11.529-7.549-6.402-11.096C82.998,54.22,84.945,56.622,86.026,59.736
	L86.026,59.736z"/>
<path fill-rule="evenodd" clip-rule="evenodd" fill="#835644" d="M117.716,39.749c-2.25-4.001-2.51-7.852-5.798-11.983
	c-7.44-9.366-34.154-2.25-34.154,10.556c0,2.185,0.844,6.403,1.946,7.745c0.995,1.211,4.76,3.396,1.926-0.13
	c-10.772-13.455,7.657-21.609,17.716-21.328c4.715,0.13,9.972,0.692,12.762,4.715c0.801,1.146,3.071,4.564,3.418,5.905
	C115.855,36.505,117.65,39.922,117.716,39.749L117.716,39.749z"/>
<path fill-rule="evenodd" clip-rule="evenodd" fill="#DFBC6E" d="M17.847,66.485c-3.094,1.666-9.907,4.759-9.907,8.177
	c0,3.612,3.223,4.088,6.684,4.088c2.357,0,4.478-0.627,6.684-0.627c2.164,0,2.64,0.367,4.737-1.082
	c2.531-1.773-2.011-4.455-3.893-5.386C21.004,71.071,18.604,67.026,17.847,66.485L17.847,66.485z"/>
<path fill-rule="evenodd" clip-rule="evenodd" fill="#FFD068" d="M17.76,67.156c-2.791,1.492-8.891,4.283-8.891,7.354
	c0,3.224,2.877,3.678,5.992,3.678c2.119,0,4.001-0.584,5.992-0.584c1.946,0,2.379,0.324,4.261-0.974
	c2.271-1.579-1.816-4.001-3.483-4.823C20.594,71.287,18.431,67.654,17.76,67.156L17.76,67.156z"/>
<path fill-rule="evenodd" clip-rule="evenodd" fill="#835644" d="M43.608,60.039c-8.198,3.872-22.106-1.06-22.713-2.941
	c1.623,1.623,6.814,5.883,13.845,5.191C38.18,62.137,37.055,62.656,43.608,60.039L43.608,60.039z"/>
<path fill-rule="evenodd" clip-rule="evenodd" fill="#835644" d="M54.878,43.449c-1.752,0.237-3.525,2.206-3.915,2.336
	c-1.103,0.389-1.103-0.714-0.367-1.558C51.525,43.167,53.537,42.324,54.878,43.449L54.878,43.449z"/>
<path fill-rule="evenodd" clip-rule="evenodd" fill="#835644" d="M25.525,47.255c1.601-0.779,4.175-0.13,4.563-0.217
	c1.125-0.303,0.52-1.211-0.563-1.492C28.164,45.158,26.022,45.568,25.525,47.255L25.525,47.255z"/>
<path fill-rule="evenodd" clip-rule="evenodd" fill="#835644" d="M48.604,57.898c6.793,4.002,13.261-2.12,13.282-3.656
	c-0.151,1.752-2.38,5.862-6.922,5.775C52.867,60.017,53.797,60.537,48.604,57.898L48.604,57.898z"/>
<path fill-rule="evenodd" clip-rule="evenodd" fill="#835644" d="M36.449,65.123c0.064-1.125-1.602-2.358-1.666-2.617
	c-0.194-0.715,1.492-0.692,1.232-0.477C35.563,62.375,36.471,64.062,36.449,65.123L36.449,65.123z"/>
<path fill-rule="evenodd" clip-rule="evenodd" fill="#835644" d="M30.457,65.62c0.757-1.06,0.281-3.05,0.39-3.331
	c0.302-0.779,1.558,0,1.211,0.087C31.517,62.505,31.127,64.582,30.457,65.62L30.457,65.62z"/>
<path fill-rule="evenodd" clip-rule="evenodd" fill="#835644" d="M26.218,63.5c1.232-0.324,1.492-2.055,1.73-2.162
	c0.648-0.325,1.687,0.41,1.298,0.367C28.597,61.619,27.364,63.154,26.218,63.5L26.218,63.5z"/>
<path fill-rule="evenodd" clip-rule="evenodd" fill="#835644" d="M52.282,63.002c0.735-1.081,0.281-3.05,0.39-3.331
	c0.303-0.801,1.535-0.021,1.211,0.064C53.342,59.887,52.953,61.943,52.282,63.002L52.282,63.002z"/>
<path fill-rule="evenodd" clip-rule="evenodd" fill="#835644" d="M58.08,62.203c0.064-1.125-1.623-2.38-1.688-2.617
	c-0.194-0.715,1.514-0.693,1.232-0.498C57.192,59.433,58.08,61.121,58.08,62.203L58.08,62.203z"/>
<path fill-rule="evenodd" clip-rule="evenodd" fill="#835644" d="M62.903,58.676c-0.692-0.909-2.487-1.081-2.683-1.255
	c-0.584-0.476,0.411-1.275,0.39-0.994C60.589,56.923,62.189,57.833,62.903,58.676L62.903,58.676z"/>
<path fill-rule="evenodd" clip-rule="evenodd" fill="#835644" d="M60.956,60.58c-0.303-1.081-2.293-1.73-2.422-1.947
	c-0.412-0.627,1.211-1.124,1.017-0.843C59.226,58.244,60.61,59.563,60.956,60.58L60.956,60.58z"/>
<path fill-rule="evenodd" clip-rule="evenodd" fill="#835644" d="M55.376,62.613c0.454-1.017-0.648-2.769-0.628-3.05
	c0.087-0.735,1.665-0.087,1.319,0C55.527,59.736,55.765,61.619,55.376,62.613L55.376,62.613z"/>
<path fill-rule="evenodd" clip-rule="evenodd" fill="#835644" d="M39.109,64.236c0.043-0.909-1.319-1.926-1.385-2.142
	c-0.151-0.585,1.233-0.563,1.018-0.39C38.373,61.986,39.109,63.349,39.109,64.236L39.109,64.236z"/>
<path fill-rule="evenodd" clip-rule="evenodd" fill="#835644" d="M23.405,61.986c0.865-0.303,1.255-1.947,1.428-2.076
	c0.476-0.391,0.995,0.908,0.757,0.757C25.2,60.45,24.206,61.662,23.405,61.986L23.405,61.986z"/>
<path fill-rule="evenodd" clip-rule="evenodd" fill="#835644" d="M9.67,80.33c0.994-1.429,0.39-4.068,0.519-4.457
	c0.411-1.06,2.077,0,1.622,0.107C11.098,76.154,10.578,78.923,9.67,80.33L9.67,80.33z"/>
<path fill-rule="evenodd" clip-rule="evenodd" fill="#835644" d="M14.947,81.583c0.974-1.449,0.368-4.066,0.52-4.456
	c0.39-1.06,2.056,0,1.601,0.108C16.354,77.409,15.835,80.177,14.947,81.583L14.947,81.583z"/>
<path fill-rule="evenodd" clip-rule="evenodd" fill="#835644" d="M19.706,81.583c0.974-1.449,0.368-4.066,0.52-4.456
	c0.39-1.06,2.055,0,1.601,0.108C21.112,77.409,20.594,80.177,19.706,81.583L19.706,81.583z"/>
<path fill-rule="evenodd" clip-rule="evenodd" fill="#7A5647" d="M63.185,71.828c0.735-1.081,0.281-3.05,0.389-3.331
	c0.303-0.801,1.536,0,1.212,0.065C64.244,68.713,63.854,70.767,63.185,71.828L63.185,71.828z"/>
<path fill-rule="evenodd" clip-rule="evenodd" fill="#835644" d="M66.754,72.023c0.735-1.082,0.28-3.051,0.389-3.332
	c0.303-0.801,1.536-0.021,1.211,0.065C67.813,68.908,67.424,70.962,66.754,72.023L66.754,72.023z"/>
<path fill-rule="evenodd" clip-rule="evenodd" fill="#7A5647" d="M47.827,73.839c0.302,0,0.562-0.303,0.562-0.67
	c0-0.347-0.26-0.649-0.562-0.649c-0.304,0-0.563,0.303-0.563,0.649C47.265,73.537,47.523,73.839,47.827,73.839L47.827,73.839z"/>
<path fill-rule="evenodd" clip-rule="evenodd" fill="#7A5647" d="M43.306,74.964c0.324,0,0.563-0.303,0.563-0.648
	c0-0.369-0.238-0.671-0.563-0.671c-0.303,0-0.563,0.302-0.563,0.671C42.743,74.662,43.003,74.964,43.306,74.964L43.306,74.964z"/>
<path fill-rule="evenodd" clip-rule="evenodd" fill="#7A5647" d="M56.284,70.854c0.194,0,0.346-0.173,0.346-0.389
	c0-0.217-0.151-0.39-0.346-0.39c-0.173,0-0.324,0.173-0.324,0.39C55.96,70.681,56.111,70.854,56.284,70.854L56.284,70.854z"/>
<path fill-rule="evenodd" clip-rule="evenodd" fill="#7A5647" d="M54.532,71.396c0.195,0,0.346-0.174,0.346-0.391
	c0-0.194-0.15-0.367-0.346-0.367c-0.173,0-0.325,0.173-0.325,0.367C54.207,71.222,54.359,71.396,54.532,71.396L54.532,71.396z"/>
<path fill-rule="evenodd" clip-rule="evenodd" fill="#7A5647" d="M55.916,69.167c0.173,0,0.324-0.174,0.324-0.39
	s-0.151-0.39-0.324-0.39s-0.324,0.174-0.324,0.39S55.743,69.167,55.916,69.167L55.916,69.167z"/>
<path fill-rule="evenodd" clip-rule="evenodd" fill="#7A5647" d="M45.188,72.52c0.324,0,0.563-0.303,0.563-0.649
	c0-0.367-0.238-0.67-0.563-0.67c-0.303,0-0.563,0.303-0.563,0.67C44.625,72.217,44.885,72.52,45.188,72.52L45.188,72.52z"/>
<path fill-rule="evenodd" clip-rule="evenodd" fill="#835644" d="M31.971,73.255c-3.871,0.541-7.7,5.711-8.436,8.891
	c2.704-2.423,1.969-6.619,8.674-8.328C32.101,73.645,32.015,73.472,31.971,73.255L31.971,73.255z"/>
<path fill-rule="evenodd" clip-rule="evenodd" fill="#835644" d="M34.155,73.623c-2.725,2.121-4.736,6.295-4.953,8.912
	c2.012-2.4,1.276-5.775,5.213-8.371C34.285,74.013,34.199,73.818,34.155,73.623L34.155,73.623z"/>
<path fill-rule="evenodd" clip-rule="evenodd" fill="#835644" d="M35.951,73.472c-1.255,3.201-0.822,7.83,0.347,10.166
	c0.476-3.094-1.904-5.603,0.151-9.842C36.275,73.709,36.103,73.601,35.951,73.472L35.951,73.472z"/>
<path fill-rule="evenodd" clip-rule="evenodd" fill="#835644" d="M61.519,66.485c2.553-0.671,6.295,1.558,7.571,3.353
	c-2.314-0.8-2.942-3.634-7.593-2.941C61.54,66.766,61.54,66.615,61.519,66.485L61.519,66.485z"/>
<path fill-rule="evenodd" clip-rule="evenodd" fill="#835644" d="M60.092,67.631c2.249,0.627,4.585,2.726,5.407,4.305
	c-1.882-0.995-2.293-3.288-5.43-3.894C60.092,67.913,60.113,67.783,60.092,67.631L60.092,67.631z"/>
<path fill-rule="evenodd" clip-rule="evenodd" fill="#835644" d="M59.183,67.89c1.622,1.688,2.553,4.695,2.423,6.469
	c-1.104-1.817-0.26-4.002-2.661-6.121C59.053,68.128,59.118,68.021,59.183,67.89L59.183,67.89z"/>
<path fill-rule="evenodd" clip-rule="evenodd" fill="#835644" d="M44.689,21.558c-1.254,4.564-0.821,11.161,0.347,14.514
	c0.476-4.413-1.903-8.003,0.151-14.06C45.015,21.904,44.842,21.752,44.689,21.558L44.689,21.558z"/>
<path fill-rule="evenodd" clip-rule="evenodd" fill="#835644" d="M37.379,16.475c-1.254,4.564,1.428,15.704,2.574,19.057
	c0.497-4.413-4.132-12.546-2.077-18.603C37.682,16.821,37.53,16.669,37.379,16.475L37.379,16.475z"/>
<path fill-rule="evenodd" clip-rule="evenodd" fill="#835644" d="M29.938,23.418c2.207,3.786,3.223,10.253,2.834,13.952
	c-1.406-4.002,0.064-8.437-3.201-13.303C29.722,23.894,29.851,23.678,29.938,23.418L29.938,23.418z"/>
<path fill-rule="evenodd" clip-rule="evenodd" fill="#FCC79B" d="M61.616,30.752c2.919-3.158,13.452-6.491,13.236-6.274
	c-3.635,3.634-1.99,21.264-10.578,20.441c-1.969-0.174,0.447,0.967-2.819-1.911c-4.354-2.097-2.041-7.698-2.581-7.741L61.616,30.752
	z"/>
<path fill-rule="evenodd" clip-rule="evenodd" fill="#785647" d="M59.85,40.324C57.318,28.794,71.984,24.23,74.796,24.771
	c-2.271,0.325-13.864,2.444-16.438,10.145C58.443,37.728,60.045,38.615,59.85,40.324L59.85,40.324z"/>
<path fill-rule="evenodd" clip-rule="evenodd" fill="#FCC79B" d="M11.101,33.813c-3.468-2.25-11.014-2.726-10.766-2.577
	c4.163,2.499,11.793,21.353,16.64,17.752c1.12-0.811,0.238,1.121,0.724-2.842c1.566-3.522-2.826-8.438-2.517-8.655L11.101,33.813z"
	/>
<path fill-rule="evenodd" clip-rule="evenodd" fill="#835644" d="M18.176,43.728C14.91,33.301,3.049,29.927,1.127,31.441
	c2.849-0.865,11.42,1.298,16.4,6.619C18.662,40.656,17.157,42.257,18.176,43.728L18.176,43.728z"/>
</svg>
