<?xml version="1.0" encoding="utf-8"?>
<!-- Generator: Adobe Illustrator 13.0.0, SVG Export Plug-In . SVG Version: 6.00 Build 14948)  -->
<!DOCTYPE svg PUBLIC "-//W3C//DTD SVG 1.1//EN" "http://www.w3.org/Graphics/SVG/1.1/DTD/svg11.dtd">
<svg version="1.1" id="Layer_1" xmlns="http://www.w3.org/2000/svg" xmlns:xlink="http://www.w3.org/1999/xlink" x="0px" y="0px"
	 width="133.72px" height="124.001px" viewBox="0 0 133.72 124.001" enable-background="new 0 0 133.72 124.001"
	 xml:space="preserve">
<path fill-rule="evenodd" clip-rule="evenodd" fill="#B07146" d="M112.352,106.925c-0.987-3.986-2.631-11.959-2.671-15.985
	c-0.083-5.712-2.014-11.301-4.973-16.19c-2.014-3.369-4.767-6.657-5.795-10.972c4.315-2.794,10.973-7.766,14.302-1.315
	c0.738,3.124,2.095,7.932,2.054,11.096c-0.083,5.711,0.986,10.19,3.657,15.245c2.261,4.231,5.835,10.644,5.548,15.491
	c-1.685,0.371-3.781-1.972-5.506-1.931c-1.726,0.083-3.452,0.041-5.178,0.163C112.598,102.611,113.502,106.638,112.352,106.925
	L112.352,106.925z"/>
<path fill-rule="evenodd" clip-rule="evenodd" fill="#FCC7A9" d="M112.063,102.693c-1.315-5.466-0.041-11.096-1.356-16.561
	c-0.657-2.877-2.096-6.287-3.615-9.739c-2.014-4.644-5.589-8.095-6.493-11.876c1.563-0.37,3.165-2.096,5.424-2.875
	c1.973-0.371,2.836-1.809,6.944,1.602c1.562,6.41,1.233,12.903,2.754,19.313c1.644,6.822,6.575,12.452,8.22,19.273
	C120.036,102.775,115.967,101.789,112.063,102.693L112.063,102.693z"/>
<path fill-rule="evenodd" clip-rule="evenodd" fill="#FFFFFF" d="M123.445,73.845l-0.575,0.699
	c-4.478-6.37-12.081-20.875-11.957-29.012c0.124-8.137,11.794-6.37,10.52,1.931c-1.315,8.301-23.258,15.78-23.258,15.78l0.041-1.15
	c0,0,21.491-7.973,22.518-14.629c1.027-6.657-8.342-8.054-8.424-1.561C112.229,52.437,119.871,68.791,123.445,73.845L123.445,73.845
	z"/>
<path fill="#FFFFFF" d="M123.486,73.886l-0.575,0.699l-0.081-0.082l0.575-0.699L123.486,73.886z M122.911,74.585l-0.041,0.041
	l-0.04-0.041l0.04-0.041L122.911,74.585z M122.83,74.585h-0.041l0.122-0.082l0,0L122.83,74.585z M122.911,74.503L122.911,74.503
	l-0.041,0.041L122.911,74.503z M122.789,74.585c-0.617-0.904-1.274-1.973-2.014-3.123l0.123-0.082
	c0.698,1.191,1.397,2.219,2.013,3.123L122.789,74.585z M120.775,71.462c-0.698-1.192-1.479-2.465-2.219-3.863l0.123-0.041
	c0.739,1.356,1.479,2.671,2.219,3.822L120.775,71.462z M118.557,67.599c-3.863-7.026-7.809-16.19-7.726-22.066h0.123
	c-0.082,5.835,3.862,14.999,7.726,22.025L118.557,67.599z M110.831,45.533c0.041-2.671,1.314-4.274,2.959-4.973l0.041,0.124
	c-1.603,0.658-2.836,2.26-2.877,4.849H110.831z M113.79,40.56c0.82-0.329,1.685-0.41,2.588-0.329v0.124
	c-0.862-0.082-1.768,0-2.547,0.329L113.79,40.56z M116.378,40.231c0.864,0.083,1.767,0.37,2.548,0.905l-0.082,0.081
	c-0.739-0.492-1.602-0.78-2.466-0.862V40.231z M118.926,41.136c1.767,1.11,3.041,3.288,2.548,6.328h-0.123
	c0.492-2.999-0.739-5.137-2.507-6.247L118.926,41.136z M121.474,47.464c-1.274,8.383-23.217,15.78-23.258,15.821l-0.041-0.123
	c0.041,0,21.902-7.438,23.176-15.698H121.474z M98.216,63.285l-0.124,0.041l0.042-0.123l0.041,0.041L98.216,63.285z M98.134,63.203
	l0.041-1.109h0.123l-0.041,1.15L98.134,63.203z M98.175,62.093v-0.041h0.041v0.041H98.175z M98.216,62.052
	c0.041-0.041,21.408-7.973,22.436-14.588h0.124c-1.027,6.698-22.478,14.67-22.519,14.67L98.216,62.052z M120.651,47.464
	c0.37-2.384-0.574-4.109-2.014-4.972l0.083-0.124c1.438,0.904,2.425,2.671,2.055,5.095H120.651z M118.638,42.492
	c-0.575-0.411-1.273-0.617-1.972-0.699l0.041-0.124c0.698,0.083,1.397,0.329,2.014,0.699L118.638,42.492z M116.666,41.793
	c-0.699-0.083-1.356,0-2.014,0.247l-0.042-0.083c0.658-0.288,1.356-0.37,2.097-0.288L116.666,41.793z M114.652,42.04
	c-1.273,0.534-2.261,1.809-2.301,3.863h-0.123c0.041-2.137,1.067-3.411,2.382-3.945L114.652,42.04z M112.352,45.903v0.041h-0.123
	v-0.041H112.352z M112.352,45.944c0,0.903,0.163,1.972,0.411,3.247h-0.124c-0.247-1.233-0.41-2.343-0.41-3.247H112.352z
	 M112.763,49.19c0.246,1.232,0.616,2.588,1.109,4.026l-0.124,0.042c-0.492-1.438-0.863-2.835-1.109-4.068H112.763z M113.872,53.217
	c2.383,7.479,7.067,16.971,9.614,20.628l-0.081,0.041c-2.59-3.657-7.273-13.149-9.657-20.628L113.872,53.217z M123.486,73.845
	l0.042,0.041h-0.042l-0.041-0.041H123.486z"/>
<path fill-rule="evenodd" clip-rule="evenodd" fill="#FFFFFF" d="M110.461,101.912c2.999-4.026,9.122-3.451,13.273-2.794
	c2.178,1.931,1.52,8.013,0.862,9.452c-1.191,1.971-4.273,1.189-6.123-2.139c-0.493,1.521-1.027,4.151-3.657,3.617
	C111.2,108.24,110.379,105.486,110.461,101.912L110.461,101.912z"/>
<path fill-rule="evenodd" clip-rule="evenodd" fill="#FFFFFF" d="M133.72,85.228l-0.371-1.355
	c-1.355-4.85-6.451-20.793-12.491-15.451c-9.041,7.972-0.246,14.506,5.506,20.013l0.288-1.727l0.617,0.616l0.738,0.452l-0.041-1.726
	l0.74,0.451l0.781,0.493l-0.165-1.85l0.781,0.495l0.698,0.492l0.041-1.726l0.698,0.492l0.452,0.616l0.74-1.355l0.452,0.616
	L133.72,85.228z"/>
<path fill-rule="evenodd" clip-rule="evenodd" fill="#714C42" d="M123.035,72.818l-0.616,0.658
	c-4.314-6.041-11.671-19.931-11.465-27.738c0.206-7.808,11.794-6.288,10.396,1.726c-1.397,8.013-23.341,15.698-23.341,15.698
	l0.082-1.068c0,0,21.45-8.218,22.56-14.629c1.109-6.41-8.137-7.643-8.3-1.355C112.146,52.354,119.542,67.969,123.035,72.818
	L123.035,72.818z"/>
<path fill-rule="evenodd" clip-rule="evenodd" fill="#4A4642" d="M111.241,102.405c2.672-3.493,8.096-3.04,11.794-2.507
	c1.891,1.603,1.274,6.822,0.657,8.055c-1.068,1.685-3.779,1.068-5.382-1.768c-0.493,1.314-0.946,3.533-3.288,3.123
	C111.857,107.789,111.16,105.446,111.241,102.405L111.241,102.405z"/>
<path fill-rule="evenodd" clip-rule="evenodd" fill="#FFFFFF" d="M77.176,100.308c3.863-3.246,9.656-1.272,13.561,0.371
	c1.644,2.342-0.411,8.095-1.396,9.328c-1.603,1.644-4.396,0.205-5.425-3.453c-0.862,1.357-1.972,3.781-4.397,2.631
	C76.437,106.596,76.271,103.719,77.176,100.308L77.176,100.308z"/>
<path fill-rule="evenodd" clip-rule="evenodd" fill="#4A4642" d="M77.834,100.925c3.41-2.753,8.547-1.068,11.999,0.329
	c1.521,2.013-0.329,6.903-1.192,7.972c-1.439,1.397-3.945,0.164-4.848-2.959c-0.74,1.15-1.727,3.205-3.904,2.261
	C77.136,106.309,77.012,103.843,77.834,100.925L77.834,100.925z"/>
<path fill-rule="evenodd" clip-rule="evenodd" fill="#FFFFFF" d="M88.682,99.734c-0.986,7.109-1.191,9.492-5.096,8.753
	c-3.862-0.781-1.355-4.603-0.903-9.78C84.736,98.954,86.422,99.651,88.682,99.734L88.682,99.734z"/>
<path fill-rule="evenodd" clip-rule="evenodd" fill="#FCD9D2" d="M88.806,99.98c-1.604,5.917-1.809,9.41-5.055,8.342
	c-3.206-1.068-1.191-4.191-0.247-8.547C85.189,100.186,87.243,100.308,88.806,99.98L88.806,99.98z"/>
<path fill-rule="evenodd" clip-rule="evenodd" fill="#FCC7AA" d="M92.709,49.437c10.314,0-9.246,12.451,6.903,30.696
	c16.108,18.286-2.178,25.107-12.491,25.107c-10.273,0-19.273-12.452-7.479-25.107C91.436,67.476,82.436,49.437,92.709,49.437
	L92.709,49.437z"/>
<path fill-rule="evenodd" clip-rule="evenodd" fill="#B07146" d="M50.754,90.775c-4.686-4.273-6.698-10.23-6.698-16.436
	c0-9.369-0.534-20.464,7.684-26.834c6.615-5.013,15.081-6.74,22.93-8.835c12.286-3.287,24.285-1.191,34.106,6.985l0,0
	c4.273,3.535,6.122,8.055,6.821,12.082c0.945,5.424,2.259,14.012-1.397,20.012c-8.999,9.41-20.834,20.588-35.38,20.588
	C69.204,98.337,58.273,97.392,50.754,90.775L50.754,90.775z"/>
<path fill-rule="evenodd" clip-rule="evenodd" fill="#FFE2B7" d="M51.493,90.201c-4.644-4.109-6.492-9.945-6.492-15.986
	c0-8.999-0.576-19.929,7.438-26.051c4.026-3.124,10.93-5.424,17.627-7.356c12.451-3.534,26.424-4.191,36.901,4.562
	c3.78,3.122,5.876,4.725,7.109,9.082c1.068,4.89,4.726,14.382,0.123,21.943c-2.137,3.452-6.369,6.493-9.492,9.575
	c-6.329,6.246-16.849,11.628-25.929,11.628C69.574,97.596,58.644,96.57,51.493,90.201L51.493,90.201z"/>
<path fill-rule="evenodd" clip-rule="evenodd" fill="#B07146" d="M39.823,23.22C16.975,9.208-10.844,26.466,4.73,50.628
	c13.725,21.245,36.49,7.603,42.736,0.822c1.233-1.315,2.096-1.396,3.533-4.026c-0.698,1.191-2.588,3.575-8.546,8.095
	c4.027,1.521,6.205,1.233,9.41-2.014c1.973-2.013,2.055-4.355,1.644-7.643c0-0.206-0.041-0.411-0.124-0.575
	c1.027-0.699,2.178-1.192,3.494-1.315c5.301-0.535,10.067,0.165,15.533,4.027c6.287,4.479,6.656,3.328,9.368-3.37
	c5.507-13.725-7.931-2.095-17.464-5.793c-4.027-1.521,0.493-13.027-5.918-17.629C52.644,17.137,42.412,22.891,39.823,23.22
	L39.823,23.22z"/>
<path fill-rule="evenodd" clip-rule="evenodd" fill="#625D5D" d="M73.108,56.956c-4.686-3.903-15.821,1.275-21.369,2.877
	c-2.26,0.657-4.562,1.396-6.369,2.301c-0.494,4.027-0.37,8.219-0.37,12.08c0,3.412,0.575,6.781,1.932,9.781
	c2.753,1.027,5.875,1.232,8.67,1.232c4.068,0,9.205-0.164,12.04-3c1.396-1.355-0.698-6.738,0.246-8.26
	C72.943,65.708,83.71,65.75,73.108,56.956z M96.735,62.792c4.069,0,8.795-2.425,11.629-5.22c1.356-1.398,3.288-2.753,4.233-4.273
	c0.246-0.412,0.452-0.822,0.575-1.274c-1.273-2.67-3.205-4.191-6.205-6.656c-5.219-4.356-11.301-6.37-17.669-6.863
	c-1.686,0.617-3.248,1.315-4.316,2.136c-3.615,2.754-3.369,7.645-3.369,11.67c0,2.712,0.864,5.302,2.918,7.151
	C87.737,62.298,92.627,62.792,96.735,62.792z M114.118,75.941c-0.575-1.932-1.521-2.67-3.205-4.068
	c-4.685-3.903-10.931-3.615-16.478-2.055c-3.042,0.863-6.124,1.932-7.932,3.287c-3.575,2.754-3.328,7.644-3.328,11.671
	c0,2.712,0.863,5.302,2.917,7.149c1.563,1.398,3.534,2.22,5.588,2.672c4.974-2.136,9.616-5.26,13.027-8.629
	c3.123-3.082,7.355-6.123,9.492-9.575v-0.042C114.159,76.228,114.118,76.064,114.118,75.941z"/>
<path fill-rule="evenodd" clip-rule="evenodd" fill="#B07146" d="M36.536,117.814c1.028-3.081,3.287-9.122,5.095-11.917
	c2.59-3.985,3.494-8.546,3.165-12.984c-0.205-3.041-1.11-6.329,0-9.698c5.096-0.328,13.355-0.493,13.274,5.137
	c-0.781,2.424-1.891,5.424-3.371,7.561c-2.752,3.904-3.903,7.396-3.903,11.835c0.041,3.739-0.412,9.78-1.644,13.479
	c-1.644-0.37-3.083-3.534-4.603-4.109c-1.562-0.575-3.083-1.233-4.686-1.768C38.796,114.979,37.727,118.061,36.536,117.814
	L36.536,117.814z"/>
<path fill-rule="evenodd" clip-rule="evenodd" fill="#FDD1B8" d="M38.261,114.709c1.398-4.442,5.137-7.988,6.534-12.388
	c0.74-2.307,1.069-5.297,1.356-8.373c0.369-4.059-1.192-7.859-0.248-10.936c1.604,0.342,3.823-0.342,6.165,0
	c1.932,0.428,3.369-0.256,5.424,3.76c-1.643,5.168-4.972,9.697-6.574,14.865c-1.767,5.51,0,11.406-1.767,16.916
	C45.289,117.742,42.165,115.521,38.261,114.709L38.261,114.709z"/>
<path fill-rule="evenodd" clip-rule="evenodd" fill="#FCD9D2" d="M102.447,96.57c2.261,5.712,4.192,8.671,0.986,9.739
	c-3.204,1.068-3.492-2.631-5.342-6.698C99.694,98.954,101.38,97.802,102.447,96.57L102.447,96.57z"/>
<path fill-rule="evenodd" clip-rule="evenodd" fill="#FCD9D2" d="M92.217,102.035c0.82,6.081,1.972,8.26-1.398,8.506
	c-3.369,0.287-2.752-3.41-3.575-7.766C88.97,102.527,90.449,101.994,92.217,102.035L92.217,102.035z"/>
<path fill-rule="evenodd" clip-rule="evenodd" fill="#FFFFFF" d="M37.234,113.746c4.521-1.726,9.657,0.905,13.027,2.877
	c1.027,2.096-2.384,6.041-3.658,6.78c-1.972,0.945-4.314-0.698-4.396-3.657c-1.151,0.863-2.835,2.465-4.931,1.15
	C34.933,118.348,35.508,116.129,37.234,113.746L37.234,113.746z"/>
<path fill-rule="evenodd" clip-rule="evenodd" fill="#4A4642" d="M37.686,114.322c3.986-1.397,8.547,0.863,11.588,2.589
	c0.946,1.767-2.054,5.136-3.164,5.794c-1.726,0.781-3.863-0.658-3.945-3.205c-1.027,0.74-2.506,2.095-4.356,0.986
	C35.714,118.266,36.166,116.376,37.686,114.322L37.686,114.322z"/>
<path fill-rule="evenodd" clip-rule="evenodd" fill="#B07146" d="M80.258,118.923c-0.575-3.163-1.973-9.41-3.41-12.327
	c-2.055-4.149-2.302-8.753-1.396-13.149c0.615-3,2.423-6.205,0.861-9.246c-2.219-1.89-12.779-2.014-13.479,3.617
	c0.494,2.465,1.15,5.547,2.385,7.807c2.177,4.109,2.877,7.643,2.219,12.081c-0.534,3.698-0.863,9.779-0.165,13.52
	c1.685-0.206,3.534-3.246,5.138-3.698c1.602-0.452,3.246-0.945,4.889-1.355C78.408,115.882,79.066,119.047,80.258,118.923
	L80.258,118.923z"/>
<path fill-rule="evenodd" clip-rule="evenodd" fill="#FDD1B8" d="M78.942,114.445c-0.821-4.355-4.067-8.096-4.849-12.409
	c-0.451-2.261-0.369-5.138-0.246-8.097c0.164-3.904,2.219-7.438,1.645-10.437c-2.097-0.739-3.74-0.616-6.124-0.534
	c-1.931,0.287-3.329-0.492-5.876,3.164c0.945,5.095,3.656,9.697,4.604,14.793c1.026,5.424-1.48,10.889-0.494,16.273
	C71.587,116.787,74.998,114.898,78.942,114.445L78.942,114.445z"/>
<path fill-rule="evenodd" clip-rule="evenodd" fill="#FFFFFF" d="M80.135,114.773c-4.273-2.055-9.738,0.124-13.355,1.809
	c-1.315,1.973,1.562,6.205,2.712,7.068c1.851,1.068,4.397-0.37,4.89-3.328c1.028,0.945,2.467,2.712,4.727,1.562
	C81.778,119.541,81.532,117.322,80.135,114.773L80.135,114.773z"/>
<path fill-rule="evenodd" clip-rule="evenodd" fill="#4A4642" d="M79.601,115.308c-3.78-1.726-8.63,0.164-11.876,1.603
	c-1.15,1.726,1.356,5.3,2.383,6.04c1.604,0.904,3.904-0.329,4.356-2.836c0.905,0.781,2.178,2.303,4.191,1.314
	C81.039,119.417,80.834,117.485,79.601,115.308L79.601,115.308z"/>
<path fill-rule="evenodd" clip-rule="evenodd" fill="#FDB84B" d="M132.774,84.407l-0.329-1.192
	c-1.191-4.314-5.711-18.451-11.055-13.725c-8.053,7.068-0.245,12.862,4.85,17.752l0.247-1.52l0.575,0.533l0.657,0.37l-0.041-1.48
	l0.616,0.37l0.699,0.453l-0.124-1.645l0.698,0.452l0.616,0.411l0.042-1.521l0.616,0.452l0.411,0.535l0.616-1.234l0.411,0.576
	L132.774,84.407z"/>
<path fill-rule="evenodd" clip-rule="evenodd" fill="#2E2C2C" d="M130.35,83.873c0,0-2.425-9.287-8.547-14.014
	C125.378,71.544,130.063,79.886,130.35,83.873L130.35,83.873z"/>
<path fill-rule="evenodd" clip-rule="evenodd" fill="#2E2C2C" d="M131.747,83.667c0,0-2.384-9.327-8.548-14.013
	C126.815,71.297,131.5,79.681,131.747,83.667L131.747,83.667z"/>
<path fill-rule="evenodd" clip-rule="evenodd" fill="#2E2C2C" d="M128.994,84.612c0,0-3.905-8.63-7.973-14.629
	C124.062,74.256,127.638,79.845,128.994,84.612L128.994,84.612z"/>
<path fill-rule="evenodd" clip-rule="evenodd" fill="#2E2C2C" d="M127.966,85.187c0,0-6.409-7.109-6.944-14.834
	C120.405,74.256,124.803,82.804,127.966,85.187L127.966,85.187z"/>
<path fill-rule="evenodd" clip-rule="evenodd" fill="#2E2C2C" d="M126.774,85.968c0,0-6.451-7.15-6.985-14.834
	C119.173,75.038,123.569,83.583,126.774,85.968L126.774,85.968z"/>
<path fill-rule="evenodd" clip-rule="evenodd" fill="#FFD9A1" d="M52.274,20.466c-4.11-3.329,0.451-9.411,1.438-13.19
	c0.494-1.973-2.424-7.396-5.218-7.274c-7.314,0.371-7.068,6.986-5.137,12.246c1.068,2.794,2.342,3.945,3.534,5.999
	C47.672,19.521,50.836,22.685,52.274,20.466L52.274,20.466z"/>
<path fill-rule="evenodd" clip-rule="evenodd" fill="#FFE2B7" d="M39.618,22.603C16.771,8.549-11.049,25.849,4.524,50.012
	c13.725,21.245,36.49,7.561,42.736,0.821c1.233-1.356,2.096-1.438,3.535-4.068c-0.699,1.233-1.767,3.904-7.725,8.424
	c4.026,1.521,5.382,0.946,8.588-2.342c1.973-2.014,2.054-4.356,1.644-7.603c0-0.247-0.041-0.41-0.123-0.575
	c1.027-0.74,2.178-1.233,3.492-1.355c3.328,1.479,6.493-2.22,11.958,1.684c6.286,4.479,9.41,6.986,12.245-0.081
	c5.301-13.396-12.574-3.74-16.765-6.698c-3.535-2.466,0.492-13.068-5.919-17.629C52.439,16.481,42.207,22.233,39.618,22.603
	L39.618,22.603z"/>
<path fill-rule="evenodd" clip-rule="evenodd" fill="#DDAA5A" d="M67.479,19.686c-1.726-0.617-3.945-2.712-5.794-2.342
	c0.658-0.862,1.357-1.931,1.931-3.329c-1.15,0.329-2.835,0.247-4.233,0.535c0-0.699,0.042-1.479,0.165-2.343
	c0.083-0.575-2.959,3.494-3.369,4.892c-0.082-0.658-0.575-1.192-1.438-1.644c-0.617-0.74-1.398-1.686-2.096-2.959
	c-0.164-0.247-0.205,0.863-0.164,2.219c-0.534-0.124-1.109-0.206-1.767-0.289c-2.876-0.246,0.781,1.932,1.727,2.835l0.246,0.206
	c0.082,0.369,0.124,0.698,0.206,0.904c-0.986-1.027-3.205-0.617-5.999,0.946c-1.973,1.15,0.205,1.19,1.89,1.232
	c-0.986,0.411-1.603,0.822-1.726,1.191c-0.123,0.494,0.617,0.986,2.63,1.398c0.287,0.082,0.616,0.082,0.985,0.082
	c-0.247,0.206-0.451,0.452-0.657,0.739c-1.15,1.563-1.85,2.794-1.602,3.37c0.165,0.493,1.068,0.452,2.959-0.37
	c0.944-0.411,2.095-1.562,3.123-2.466c-0.986,1.521-2.589,3.904-4.603,5.754c1.48,0.328,4.438-1.151,6.287-2.753
	c0.041,1.562,0,3.329-0.328,5.054c1.068-0.452,2.219-2.26,2.917-4.15c0.822,0.863,1.849,1.685,2.383,2.877
	c0.165-0.329-0.165-1.603,0.37-2.506c0.576-0.987,0.616-1.932,0.371-2.753c1.191,0.205,2.547,0.287,3.656,0.945
	c-0.041-0.37-1.068-1.15-1.191-2.219c-0.206-1.603-1.232-2.466-2.301-3C63.451,21.412,65.342,21.001,67.479,19.686L67.479,19.686z"
	/>
<path fill-rule="evenodd" clip-rule="evenodd" fill="#2E2C2C" d="M53.794,34.643c-1.848-2.383-2.711-2.013-7.52-2.917
	c0.042,3.534-0.822,3.124,0.288,5.343c1.397,2.876,2.507,4.807,7.109,5.917C55.233,39.821,55.644,36.862,53.794,34.643
	L53.794,34.643z"/>
<path fill-rule="evenodd" clip-rule="evenodd" fill="#FFF1E9" d="M63.082,40.766c2.137,1.521,7.602-0.287,9.984-0.78
	c1.849-0.412,5.959-0.658,6.328,1.396c1.274,7.232-7.232,4.931-9.82,2.425c-1.027-0.987-2.63-1.028-4.027-1.398
	c-0.493-0.123-1.727-0.246-2.096-0.534C63.164,41.669,62.342,40.56,63.082,40.766L63.082,40.766z"/>
<path fill-rule="evenodd" clip-rule="evenodd" fill="#FFFFFF" d="M53.425,34.849c-1.685-2.137-2.425-1.808-6.74-2.589
	c0,3.165-0.944,3.288,0.452,4.972c2.014,2.384,2.342,4.069,6.164,5.096C54.698,39.533,55.109,36.862,53.425,34.849L53.425,34.849z"
	/>
<path fill-rule="evenodd" clip-rule="evenodd" fill="#2E2C2C" d="M57.821,36.944c-0.986,0.658-2.465,0.329-2.712,0.411
	c-0.657,0.288-0.247,1.315-0.123,1.026C55.15,37.931,56.877,37.561,57.821,36.944L57.821,36.944z"/>
<path fill-rule="evenodd" clip-rule="evenodd" fill="#2E2C2C" d="M56.959,31.766c-0.699,1.439-2.671,2.055-2.877,2.343
	c-0.616,0.822,0.616,1.767,0.535,1.356C54.534,34.767,56.26,33.123,56.959,31.766L56.959,31.766z"/>
<path fill-rule="evenodd" clip-rule="evenodd" fill="#2E2C2C" d="M53.301,29.095c-0.041,1.644-1.644,3-1.726,3.371
	c-0.246,0.986,1.274,1.396,1.068,1.027C52.274,32.876,53.219,30.657,53.301,29.095L53.301,29.095z"/>
<path fill-rule="evenodd" clip-rule="evenodd" fill="#2E2C2C" d="M47.959,28.068c0.821,1.479,0.082,3.533,0.205,3.904
	c0.288,0.986,1.85,0.575,1.48,0.369C48.987,31.972,48.7,29.506,47.959,28.068L47.959,28.068z"/>
<path fill-rule="evenodd" clip-rule="evenodd" fill="#2E2C2C" d="M50.589,44.917c0.822-0.864,0.698-2.384,0.863-2.59
	c0.37-0.616,1.356-0.041,1.027,0.042C51.987,42.492,51.329,44.094,50.589,44.917L50.589,44.917z"/>
<path fill-rule="evenodd" clip-rule="evenodd" fill="#2E2C2C" d="M47.795,43.684c1.068-0.698,1.356-2.342,1.561-2.507
	c0.575-0.575,1.439,0.288,1.11,0.288C49.931,41.465,48.781,42.985,47.795,43.684L47.795,43.684z"/>
<path fill-rule="evenodd" clip-rule="evenodd" fill="#2E2C2C" d="M44.918,40.027c1.192-0.165,2.015-1.439,2.26-1.521
	c0.699-0.287,1.109,0.781,0.823,0.657C47.549,38.958,46.028,39.821,44.918,40.027L44.918,40.027z"/>
<path fill-rule="evenodd" clip-rule="evenodd" fill="#2E2C2C" d="M41.836,35.752c1.562,0.617,3.534-0.369,3.904-0.287
	c1.027,0.164,0.821,1.766,0.534,1.397C45.864,36.287,43.357,36.287,41.836,35.752L41.836,35.752z"/>
<path fill-rule="evenodd" clip-rule="evenodd" fill="#2E2C2C" d="M40.728,19.645c-0.864-0.206-3.576-0.617-4.931-0.411
	c0.081,3.411,0.534,3.945,2.629,6.615c0.986,1.275,1.85,1.192,3.657,1.479C43.48,24.206,43.809,20.425,40.728,19.645L40.728,19.645z
	"/>
<path fill-rule="evenodd" clip-rule="evenodd" fill="#FFFFFF" d="M42.042,21.658c-1.232-1.604-2.179-2.179-5.835-1.767
	c0.165,0.821-0.288,2.301,0.78,3.574c1.48,1.768,0.946,3.042,5.014,3.658C42.617,25.233,43.274,23.179,42.042,21.658L42.042,21.658z
	"/>
<path fill-rule="evenodd" clip-rule="evenodd" fill="#4AB2E1" d="M41.507,22.069c-0.863-1.027-2.834-1.48-4.026-0.658
	c-1.891,1.314,0.615,4.562,2.547,5.219c1.027,0.329,1.068,0.411,1.808-0.205C42.658,25.767,42.083,22.726,41.507,22.069
	L41.507,22.069z"/>
<path fill-rule="evenodd" clip-rule="evenodd" fill="#2E2C2C" d="M40.892,22.767c-0.371-0.411-0.987-0.656-1.398-0.287
	c-0.288,0.205-0.329,0.205-0.534,0.411c-0.287,0.411-1.316,1.685-1.068,2.095c0.452,0.658,0.698,1.11,1.314,1.398
	c0.411,0.165,1.069,0.082,1.397-0.124c0.329-0.246,0.576-0.246,0.781-0.657c0.164-0.452,0.205-1.11,0.123-1.602
	C41.385,23.384,41.385,23.138,40.892,22.767L40.892,22.767z"/>
<path fill="none" stroke="#2E2C2C" stroke-width="0" stroke-linecap="square" stroke-miterlimit="10" d="M40.892,22.767
	c-0.371-0.411-0.987-0.656-1.398-0.287c-0.288,0.205-0.329,0.205-0.534,0.411c-0.287,0.411-1.316,1.685-1.068,2.095
	c0.452,0.658,0.698,1.11,1.314,1.398c0.411,0.165,1.069,0.082,1.397-0.124c0.329-0.246,0.576-0.246,0.781-0.657
	c0.164-0.452,0.205-1.11,0.123-1.602C41.385,23.384,41.385,23.138,40.892,22.767L40.892,22.767z"/>
<path fill-rule="evenodd" clip-rule="evenodd" fill="#2E2C2C" d="M45.33,23.055c-0.74,0.493-1.85,0.206-2.015,0.287
	c-0.493,0.206-0.204,0.987-0.123,0.781C43.357,23.795,44.59,23.507,45.33,23.055L45.33,23.055z"/>
<path fill-rule="evenodd" clip-rule="evenodd" fill="#2E2C2C" d="M43.685,19.234c-0.411,0.862-1.561,1.232-1.725,1.396
	c-0.33,0.493,0.37,1.068,0.329,0.781C42.247,21.001,43.274,20.055,43.685,19.234L43.685,19.234z"/>
<path fill-rule="evenodd" clip-rule="evenodd" fill="#2E2C2C" d="M42.001,17.302c-0.042,1.15-1.151,2.054-1.192,2.301
	c-0.165,0.657,0.862,0.945,0.698,0.699C41.261,19.892,41.919,18.371,42.001,17.302L42.001,17.302z"/>
<path fill-rule="evenodd" clip-rule="evenodd" fill="#FFFFFF" d="M40.069,21.74c-0.165-0.164-0.452-0.287-0.616-0.123
	c-0.124,0.082-0.165,0.082-0.247,0.205c-0.123,0.166-0.616,0.741-0.494,0.945c0.206,0.288,0.288,0.494,0.617,0.658
	c0.165,0.082,0.453,0.041,0.617-0.083c0.165-0.081,0.288-0.081,0.369-0.287c0.083-0.206,0.083-0.493,0.042-0.74
	C40.315,22.028,40.315,21.946,40.069,21.74L40.069,21.74z"/>
<path fill-rule="evenodd" clip-rule="evenodd" fill="#2E2C2C" d="M38.097,16.398c0.577,1.11,0.041,2.63,0.123,2.918
	c0.248,0.738,1.398,0.411,1.11,0.246C38.836,19.316,38.632,17.467,38.097,16.398L38.097,16.398z"/>
<path fill-rule="evenodd" clip-rule="evenodd" fill="#2E2C2C" d="M39.741,29.301c0.37-0.781,0-1.85,0.042-2.014
	c0.123-0.535,0.945-0.329,0.739-0.205C40.193,27.247,40.069,28.562,39.741,29.301L39.741,29.301z"/>
<path fill-rule="evenodd" clip-rule="evenodd" fill="#2E2C2C" d="M37.44,28.233c0.821-0.493,1.027-1.685,1.192-1.849
	c0.452-0.411,1.068,0.247,0.821,0.247C39.042,26.589,38.22,27.74,37.44,28.233L37.44,28.233z"/>
<path fill-rule="evenodd" clip-rule="evenodd" fill="#2E2C2C" d="M50.589,48.862c0.452-0.823,0.698-2.137-1.396-2.959
	c-0.042-0.124,0.205-0.617,0.451-0.206c0.083,0.123,0.247,0.206,0.411,0.329c0.124,0.083,0.657,0.617,0.74,0.739
	c0.205,0.371,0.288,0.822,0.328,1.315c0,0.165-0.082,0.534-0.163,0.698C50.836,49.107,50.548,49.149,50.589,48.862L50.589,48.862z"
	/>
<path fill="#B08133" d="M50.589,48.862c0.452-0.823,0.698-2.137-1.396-2.959c-0.042-0.124,0.205-0.617,0.451-0.206
	c0.083,0.123,0.247,0.206,0.411,0.329c0.124,0.083,0.657,0.617,0.74,0.739c0.205,0.371,0.288,0.822,0.328,1.315
	c0,0.165-0.082,0.534-0.163,0.698C50.836,49.107,50.548,49.149,50.589,48.862L50.589,48.862z"/>
<path fill-rule="evenodd" clip-rule="evenodd" fill="#EE9022" d="M46.45,20.001c-1.219-3.249-1.671-4.737,0.36-8.708
	c2.031-3.97,8.348-7.219,14.529-6.271c-2.526,1.083-4.602,2.887-5.82,5.324c-1.669,3.249-1.535,7.083,0.089,10.603
	C54.03,22.752,49.878,22.077,46.45,20.001L46.45,20.001z"/>
<path fill-rule="evenodd" clip-rule="evenodd" fill="#FDB84B" d="M46.224,19.324c-0.723-1.896-1.038-3.205-0.631-5.009
	c2.977,1.851,6.091,2.482,8.753,1.985c0.136,1.535,0.542,3.069,1.219,4.558C52.901,21.625,49.518,21.219,46.224,19.324
	L46.224,19.324z M47.261,10.525c0.542-0.812,1.264-1.578,2.122-2.301c1.804,1.309,3.88,2.256,5.864,2.663
	c-0.496,1.082-0.766,2.21-0.856,3.383C51.909,13.91,49.383,12.646,47.261,10.525L47.261,10.525z M51.909,6.6
	c0.992-0.496,2.031-0.902,3.159-1.218c0.811,0.632,1.668,1.173,2.526,1.624c-0.497,0.586-0.902,1.218-1.217,1.895l-0.091,0.09
	C54.842,8.495,53.307,7.773,51.909,6.6L51.909,6.6z"/>
<path fill-rule="evenodd" clip-rule="evenodd" fill="#EE9022" d="M64.577,39.455c4.898-0.323,9.288-2.356,12.245-6.099
	c4.76-6.053,4.251-14.926-0.6-22.181c0.091,3.835-0.972,7.532-3.327,10.537c-3.189,4.065-8.179,6.145-13.54,6.145
	C57.877,31.922,59.68,36.729,64.577,39.455L64.577,39.455z"/>
<path fill-rule="evenodd" clip-rule="evenodd" fill="#FDB84B" d="M71.232,37.792c1.802-0.878,3.465-2.033,4.851-3.558
	c-4.343-1.526-7.209-4.76-8.039-8.457c-1.526,0.832-3.189,1.386-4.946,1.709C63.236,31.738,66.103,35.804,71.232,37.792
	L71.232,37.792z M78.994,29.566c0.462-1.2,0.785-2.448,0.971-3.743c-2.819-0.646-5.36-2.126-7.163-3.974
	c-0.878,1.109-1.94,2.079-3.096,2.911C71.601,27.44,74.883,29.29,78.994,29.566L78.994,29.566z M80.104,22.035
	c-0.092-1.294-0.324-2.588-0.694-3.929c-1.386-0.23-2.726-0.693-3.927-1.339c-0.323,0.97-0.693,1.94-1.201,2.818
	C75.852,20.74,77.7,21.757,80.104,22.035L80.104,22.035z"/>
<path fill-rule="evenodd" clip-rule="evenodd" fill="#F19020" d="M66.163,20.179c-1.685-0.658-3.985-3.042-5.671-1.808
	c-1.15,0.822-2.506,1.89-2.26,1.808c0.206-0.083,0.823-0.699,1.068-1.726c0.165-0.617-0.369-2.424,0-4.972
	c0.082-0.535-2.547,3.124-2.917,4.355c-0.124-1.232-1.891-2.095-4.686-2.341c-2.547-0.289,0.658,1.684,1.48,2.505
	c1.15,1.11,1.644,1.685,1.725,1.973c0.205,0.616-1.725-0.164-3.492,0.452c-1.644,0.534-2.753,1.069-2.918,1.603
	c-0.124,0.452,0.535,0.863,2.26,1.233c1.192,0.246,3.288-0.288,4.644-0.206c1.109,0.041,1.971-0.904,0.492,0.041
	c-0.37,0.205-2.219,3.945-4.93,6.534c1.684,0.371,5.628-2.013,6.657-3.863c-0.042,1.932,2.219,2.836,3.082,4.767
	c0.165-0.287-0.165-1.397,0.328-2.22c1.481-2.547-1.067-4.601-1.396-5.505C60.288,21.822,62.917,22.274,66.163,20.179L66.163,20.179
	z"/>
<path fill-rule="evenodd" clip-rule="evenodd" fill="#F4763F" d="M62.834,15.083c-1.767,0.493-5.013-0.083-5.67,1.932
	c-0.411,1.314-0.903,2.958-0.739,2.794c0.123-0.206,0.288-1.068-0.124-2.055c-0.247-0.575-1.767-1.766-2.959-4.027
	c-0.246-0.452-0.204,4.068,0.248,5.26c-0.864-0.904-2.794-0.576-5.219,0.863c-2.178,1.273,1.521,0.986,2.671,1.151
	c1.603,0.205,2.342,0.37,2.59,0.575c0.492,0.37-1.48,0.904-2.59,2.424c-0.986,1.397-1.562,2.507-1.397,3
	c0.165,0.451,0.945,0.411,2.589-0.329c1.068-0.452,2.465-2.137,3.576-2.876c0.944-0.657,1.068-1.932,0.41-0.288
	c-0.123,0.411,0.575,4.521-0.083,8.178c1.603-0.657,3.329-4.932,3.083-7.027c1.109,1.602,3.492,0.986,5.3,2.054
	c-0.041-0.328-0.945-1.068-1.027-2.013c-0.328-2.917-3.575-3.082-4.396-3.617C59.055,19.892,61.438,18.7,62.834,15.083
	L62.834,15.083z"/>
<path fill-rule="evenodd" clip-rule="evenodd" fill="#4AB2E1" d="M53.219,35.383c-1.15-1.398-3.821-2.015-5.382-0.905
	c-2.548,1.809,0.822,6.164,3.411,6.986c1.355,0.452,1.438,0.617,2.424-0.248C54.74,40.314,53.958,36.287,53.219,35.383
	L53.219,35.383z"/>
<path fill-rule="evenodd" clip-rule="evenodd" fill="#2E2C2C" d="M52.397,36.287c-0.493-0.494-1.315-0.822-1.891-0.37
	c-0.369,0.287-0.451,0.287-0.698,0.576c-0.37,0.534-1.767,2.218-1.438,2.794c0.575,0.863,0.904,1.479,1.767,1.849
	c0.575,0.246,1.396,0.123,1.85-0.165c0.452-0.288,0.78-0.288,1.027-0.863c0.287-0.617,0.328-1.479,0.205-2.137
	C53.055,37.15,53.055,36.821,52.397,36.287L52.397,36.287z"/>
<path fill="none" stroke="#2E2C2C" stroke-width="0" stroke-linecap="square" stroke-miterlimit="10" d="M52.397,36.287
	c-0.493-0.494-1.315-0.822-1.891-0.37c-0.369,0.287-0.451,0.287-0.698,0.576c-0.37,0.534-1.767,2.218-1.438,2.794
	c0.575,0.863,0.904,1.479,1.767,1.849c0.575,0.246,1.396,0.123,1.85-0.165c0.452-0.288,0.78-0.288,1.027-0.863
	c0.287-0.617,0.328-1.479,0.205-2.137C53.055,37.15,53.055,36.821,52.397,36.287L52.397,36.287z"/>
<path fill-rule="evenodd" clip-rule="evenodd" fill="#FFFFFF" d="M51.329,34.972c-0.247-0.247-0.617-0.411-0.905-0.205
	c-0.164,0.165-0.205,0.123-0.287,0.287c-0.206,0.248-0.823,1.027-0.658,1.274c0.247,0.411,0.411,0.658,0.781,0.862
	c0.287,0.083,0.658,0.042,0.862-0.081c0.206-0.124,0.37-0.124,0.493-0.411c0.124-0.288,0.124-0.657,0.082-0.986
	C51.616,35.342,51.616,35.177,51.329,34.972L51.329,34.972z"/>
<path fill-rule="evenodd" clip-rule="evenodd" fill="#B07146" d="M22.03,52.231c3.493-4.603,7.52,1.725,4.809,3.534
	C24.865,55.354,23.18,53.956,22.03,52.231L22.03,52.231z"/>
<path fill="none" stroke="#2E2C2C" stroke-width="0" stroke-linecap="square" stroke-miterlimit="10" d="M22.03,52.231
	c3.493-4.603,7.52,1.725,4.809,3.534C24.865,55.354,23.18,53.956,22.03,52.231L22.03,52.231z"/>
<path fill-rule="evenodd" clip-rule="evenodd" fill="#2E2C2C" d="M3.498,28.355c3.616-2.875,5.465,2.835,3.041,3.7
	C5.1,31.314,4.032,29.918,3.498,28.355L3.498,28.355z"/>
<path fill="#B07146" stroke="#2E2C2C" stroke-width="0" stroke-linecap="square" stroke-miterlimit="10" d="M3.498,28.355
	c3.616-2.875,5.465,2.835,3.041,3.7C5.1,31.314,4.032,29.918,3.498,28.355L3.498,28.355z"/>
<path fill-rule="evenodd" clip-rule="evenodd" fill="#2E2C2C" d="M35.55,25.397c0.698-0.124,1.232-0.905,1.397-0.945
	c0.411-0.164,0.698,0.493,0.493,0.411C37.152,24.74,36.248,25.274,35.55,25.397L35.55,25.397z"/>
<path fill-rule="evenodd" clip-rule="evenodd" fill="#2E2C2C" d="M33.002,22.233c1.15,0.451,2.629-0.246,2.875-0.206
	c0.781,0.124,0.617,1.314,0.412,1.068C35.96,22.645,34.111,22.645,33.002,22.233L33.002,22.233z"/>
</svg>
