<?xml version="1.0" encoding="utf-8"?>
<!-- Generator: Adobe Illustrator 13.0.0, SVG Export Plug-In . SVG Version: 6.00 Build 14948)  -->
<!DOCTYPE svg PUBLIC "-//W3C//DTD SVG 1.1//EN" "http://www.w3.org/Graphics/SVG/1.1/DTD/svg11.dtd">
<svg version="1.1" id="Layer_1" xmlns="http://www.w3.org/2000/svg" xmlns:xlink="http://www.w3.org/1999/xlink" x="0px" y="0px"
	 width="129.089px" height="106.514px" viewBox="0 0 129.089 106.514" enable-background="new 0 0 129.089 106.514"
	 xml:space="preserve">
<path fill-rule="evenodd" clip-rule="evenodd" fill="#BB7751" d="M112.297,86.24c-1.712-0.63-1.592-0.927-0.168,0.049
	c-1.198-1.546-1.092-1.818,0.125-0.066c-0.982-2.369-0.857-2.706,1.226-0.711c-1.853-2.643-1.746-2.952,1.243-1.149
	c-2.736-2.584-2.601-3.044,1.365-2.664c-3.722-1.309-3.611-1.775,0.057-2.94c-3.479,0.261-3.398-0.167-0.744-1.945
	c-1.246,0.43-1.85,0.521-1.963,0.296c-0.112-0.229,0.265-0.774,1.135-1.157c-0.779-0.196-1.064-0.232-1.018,0.199
	c-0.26-0.858-0.186-1.249,0.46-0.111c-0.532-1.901-0.493-2.276,0.79-0.216c-1.178-2.882-1.111-3.328,1.563-0.706
	c-2.415-4.367-2.291-5.589,2.54-8.728c-3.146,0.529-4.198,0.205-4.275-0.947c-0.038-0.575,0.167-1.358,0.487-2.339
	c-0.557,0.4-0.869,0.349-0.662,0.384c-0.612-0.589-0.708-1.09,0.582-0.882c-1.631-1.671-1.934-2.599,0.959-3.719
	c-3.652-0.636-4.11-1.465-2.143-4.633c-3.048,1.607-3.67,0.877-3.961-1.804c-1.124,1.314-1.916,0.68-2.812,0.053
	c-0.868-0.544-1.839-1.083-2.903-1.571c-2.126-0.978-4.623-1.763-7.52-2.354c-0.905-0.186-1.851-0.353-1.262,0.701
	c-2.557-1.349-3.58-1.478-6.676-0.233c1.552-1.404,1.064-1.449-0.643-1.166c0.803-0.396,0.385-0.463-0.23-0.517
	c-0.182-0.021-0.604-0.018-0.916-0.164c-0.626-0.291-0.813-1.179,0.037-3.771c-0.865,0.953-1.585,1.666-1.994,2.034
	c-0.881,0.681-1.45,1.017-0.271-0.286c-2.313,1.696-2.875,1.757-1.463-1.47c-2.676,3.173-3.377,3.059-4.568-1.396
	c0.869,4.596,0.828,4.743,0.285-0.008c-0.105,4.906-0.713,4.913-3.734,1.119c1.729,3.813,1.094,3.998-2.389,2.652
	c2.268,1.997,1.688,2.465-0.732,2.819c1.29,0.806,0.74,1.496,0.148,2.278c-0.506,0.757-1.054,1.607-1.613,2.505
	c-3.35,5.392-7.107,12.524-14.07,14.641c-4.971,1.514-9.15-2.312-9.901-0.518c-0.239,0.573-0.193,1.514,0.054,2.678
	c0.123,0.582,0.296,1.22-0.528,0.975c1.25,1.599,1.503,2.31-1.612,3.04c3.679,0.736,3.991,1.49,3.019,4.269
	c0.817-0.635,1.313-0.764,1.137-1.124c0.849,0.611,1.027,0.991-0.357,0.391c1.742,1.34,1.922,1.699-0.771,1.41
	c3.056,1,3.238,1.352,0.044,2.678c3.558-0.637,3.741-0.304,1.889,2.269c2.211-1.922,2.389-1.609,1.872,0.608
	c0.542-0.621,0.919-0.767,1.04-0.786c0.472,0.198,0.688,0.523-0.104,0.354c1.236,0.807,1.464,1.117-0.393,0.976
	c2.325,0.753,2.566,1.056-0.383,2.175c3.688-0.225,4.204,0.352,4.972,4.43c0.307-2.965,0.865-2.43,2.143-0.949
	c-0.062-0.224,0.057-0.211,0.268-0.083c0.212,0.127,0.515,0.37,0.277,0.496c1.16,0.588,1.792,1.044-0.587,2.325
	c1.226-0.137,2.116-0.182,2.82-0.014c0.705,0.167,1.225,0.548,1.537,1.234c0.655,0.738,1.102,1.785,0.739,3.709
	c0.76-2.279,0.852-3.114-0.591-3.1c2.167-0.435,2.8-0.021,0.42,2.547c3.083-2.215,3.153-2.274-0.107-0.317
	c3.691-1.855,4.051-1.693,0.333,0.853c4.22-2.326,4.697-2.128,1.681,2.197c3.099-4,2.705-3.872-1.305-1.511
	c4.122-2.145,5.048-2.044,4.679,3.05c1.668-4.566,2.04-4.139,2.645-0.115c-0.294-2.493-0.356-1.391-0.541,0.41
	c0.69-1.648,1.257-2.598,2.723-1.353c-0.224-1.195-0.223-1.846,0.021-2.044c0.262-0.199,0.767,0.05,0.272,1.104
	c0.693-1.569,1.226-1.286-0.01-0.07c1.433-1.619,2.205-1.451-0.046-0.385c2.578-0.93,3.274-0.842,0.187,1.082
	c3.246-1.811,2.711-1.788-0.164-0.874c2.313-0.781,2.814-0.806,0.21,1.054c3.477-1.855,3.848-1.827,0.572,1.457
	c4.052-3.191,4.121-3.117,0.308,0.527c3.139-3.48,2.783-3.418-0.615-1.192c2.423-2.068,1.802-1.975-0.383-1.273
	c2.021-0.646,2.57-0.694,0.357,1.211c3.241-1.984,3.719-2.012,1.02,1.785c4.039-3.858,4.809-3.867,5.973,2.612
	c0.307-6.42,1.008-6.35,4.838-2.538c-2.319-3.57-1.51-3.4,1.202-2.199c-0.806-0.74,0.29-0.451,1.617-0.092
	c-1.655-0.576-2.667-0.96-1.466-0.423c-2.11-1.029-2.008-1.137,0.115-0.536c-0.982-0.648,0.059-0.589,1.479-0.501
	c-1.302-0.148-1.748-0.232-1.344-0.253c-0.192-0.091,0.465-0.116,1.367-0.151c0.002-0.041,0.247-0.089,0.613-0.146
	c0.366-0.06,0.854-0.127,1.279-0.171c0.701-0.138,1.338-0.257,0.822,0.679c1.773-1.21,2.395-1.363,1.523,1.304
	c2.095-3.007,2.697-3.195,3.059,1.04c0.856-4.654,1.471-4.89,4.172-0.952c-1.498-4.444-0.91-4.716,2.602-2.825
	c-2.421-2.446-1.914-2.726,0.689-2.346c-0.809-0.484-1.094-0.805-1.14-0.832c0.179-0.442,0.598-0.593,0.833,0.334
	c0.342-1.33,0.497-1.59,0.189,0.064c0.783-2.183,1.104-2.451,1.042,0.321c0.685-3.323,0.988-3.608,1.726,0.192
	c-0.149-4.388,0.135-4.69,2.494-0.465c-1.607-5.075-1.16-5.639,4.088-4.284c-4.414-2.538-4.028-3.156-0.205-4.584
	c-1.56,0.07-2.26-0.062-2.351-0.256C110.479,86.413,110.941,85.874,112.297,86.24c-1.215-0.716-1.527-0.518-1.234,0.433
	C110.77,85.722,111.083,85.524,112.297,86.24z"/>
<path fill-rule="evenodd" clip-rule="evenodd" fill="#DBF1F7" d="M90.537,50.11l4.929-11.229
	c-3.006-5.604-6.893-17.057-15.031-18.407c-7.404-1.227-9.612-1.594-14.378,4.275c-5.215,6.4,5.093,10.736,11.003,13.682
	c1.923,0.961,5.972,4.562,6.953,6.524c0.634,1.268,1.452,4.295,2.475,4.929C87.101,50.273,91.702,50.11,90.537,50.11L90.537,50.11z"
	/>
<path fill-rule="evenodd" clip-rule="evenodd" fill="#8E6D2A" d="M40.677,81.669c-2.27-2.7-3.313-4.52-6.811-5.175
	c-5.174-0.98-5.276,3.376-1.206,3.764c2.454,0.225-1.105,2.884-0.573,5.152c0.573,2.517,3.988,3.621,6.974,2.476
	c1.043-0.389,2.147-1.923,2.374-2.657C41.741,84.185,40.882,83.019,40.677,81.669L40.677,81.669z"/>
<path fill="#675F52" stroke="#2E2C2C" stroke-width="0" stroke-linecap="square" stroke-miterlimit="10" d="M112.376,79.748
	c-0.634,4.089-2.128,10.144-5.542,11.964c3.945-1.779,4.52-6.565,10.326-5.236C112.601,86.885,112.335,79.686,112.376,79.748
	L112.376,79.748z"/>
<path fill-rule="evenodd" clip-rule="evenodd" fill="#8E6D2A" d="M38.693,80.707c5.01,1.882,6.462,0.165,11.003-2.043
	c1.042-0.492,3.293-2.025,4.213-2.639c2.639-1.738,1.779-1.656,4.029,1.432c0.021,0.02-3.089,2.208-4.05,2.843
	c-2.25,1.451-5.973,2.68-8.528,3.313c-0.756,0.186-3.19,0.408-3.825,0c-0.47-0.326-1.329-0.164-1.349-0.244
	C40.126,83.019,39.042,80.996,38.693,80.707L38.693,80.707z"/>
<path fill-rule="evenodd" clip-rule="evenodd" fill="#FFD072" d="M39.286,81.383c5.011,1.778,7.056-1.166,11.003-2.68
	c1.084-0.429,3.21-2.638,4.153-3.212c2.616-1.656,1.247-1.063,3.497,1.862c0.021,0.021-3.089,2.106-4.05,2.679
	c-2.25,1.392-5.973,2.556-8.528,3.15c-0.756,0.185-3.19,0.388-3.825,0c-0.47-0.287-1.329-0.144-1.349-0.226
	C40.126,82.631,39.634,81.65,39.286,81.383L39.286,81.383z"/>
<path fill-rule="evenodd" clip-rule="evenodd" fill="#FFD072" d="M110.643,85.591c-1.617-0.576-1.504-0.85-0.159,0.046
	c-1.132-1.421-1.031-1.67,0.116-0.061c-0.924-2.177-0.807-2.486,1.158-0.654c-1.747-2.426-1.647-2.711,1.172-1.056
	c-2.581-2.374-2.453-2.796,1.29-2.447c-3.513-1.201-3.409-1.63,0.053-2.7c-3.284,0.239-3.206-0.154-0.702-1.787
	c-1.176,0.395-1.745,0.479-1.852,0.27c-0.106-0.208,0.25-0.709,1.07-1.062c-0.734-0.179-1.005-0.212-0.96,0.183
	c-0.245-0.788-0.175-1.146,0.435-0.102c-0.504-1.747-0.467-2.09,0.744-0.197c-1.11-2.648-1.048-3.059,1.475-0.649
	c-2.279-4.012-2.162-5.135,2.398-8.02c-2.969,0.487-3.963,0.19-4.036-0.868c-0.035-0.529,0.158-1.248,0.46-2.148
	c-0.525,0.368-0.819,0.318-0.624,0.353c-0.579-0.543-0.669-1.001,0.55-0.812c-1.54-1.534-1.824-2.386,0.904-3.416
	c-3.447-0.583-3.879-1.345-2.022-4.255c-2.876,1.477-3.464,0.805-3.737-1.657c-1.062,1.207-1.809,0.625-2.654,0.049
	c-0.82-0.5-1.736-0.995-2.74-1.443c-2.006-0.898-4.363-1.617-7.097-2.163c-0.854-0.171-1.746-0.322-1.191,0.645
	c-2.411-1.239-3.378-1.357-6.299-0.213c1.464-1.291,1.004-1.332-0.606-1.071c0.756-0.364,0.362-0.428-0.218-0.477
	c-0.172-0.02-0.57-0.015-0.865-0.148c-0.591-0.269-0.767-1.084,0.034-3.465c-0.816,0.875-1.494,1.531-1.881,1.869
	c-0.83,0.624-1.369,0.933-0.257-0.263c-2.182,1.559-2.714,1.614-1.38-1.351c-2.525,2.913-3.187,2.81-4.311-1.283
	c0.819,4.223,0.779,4.357,0.268-0.006c-0.1,4.505-0.673,4.512-3.523,1.027c1.631,3.504,1.032,3.672-2.255,2.438
	c2.141,1.834,1.593,2.264-0.691,2.589c1.218,0.739,0.698,1.375,0.14,2.093c-0.478,0.696-0.994,1.477-1.521,2.302
	c-3.162,4.952-7.821,8.374-14.393,10.316c-4.691,1.392-7.522,1.011-8.231,2.657c-0.225,0.526-0.181,1.39,0.051,2.461
	c0.116,0.534,0.281,1.12-0.498,0.896c1.18,1.466,1.418,2.121-1.521,2.79c3.473,0.678,3.766,1.37,2.849,3.922
	c0.771-0.581,1.238-0.701,1.072-1.032c0.801,0.563,0.969,0.912-0.337,0.358c1.645,1.232,1.814,1.562-0.727,1.297
	c2.883,0.919,3.056,1.242,0.041,2.46c3.358-0.585,3.53-0.278,1.783,2.084c2.086-1.766,2.254-1.479,1.766,0.559
	c0.512-0.571,0.867-0.706,0.981-0.723c0.445,0.183,0.649,0.482-0.098,0.326c1.167,0.74,1.382,1.024-0.37,0.895
	c2.195,0.692,2.421,0.971-0.362,1.999c3.481-0.207,3.968,0.323,4.692,4.069c0.29-2.725,0.816-2.232,2.022-0.872
	c-0.058-0.206,0.055-0.194,0.253-0.078c0.199,0.117,0.485,0.341,0.261,0.459c1.094,0.539,1.69,0.957-0.554,2.134
	c1.156-0.126,1.997-0.166,2.661-0.013c0.666,0.154,1.156,0.502,1.45,1.135c0.618,0.679,1.04,1.639,0.697,3.407
	c0.719-2.095,0.804-2.861-0.557-2.849c2.045-0.399,2.642-0.02,0.396,2.341c2.909-2.036,2.976-2.09-0.102-0.291
	c3.484-1.704,3.824-1.557,0.315,0.783c3.983-2.137,4.433-1.956,1.586,2.018c2.926-3.675,2.554-3.557-1.231-1.389
	c3.891-1.969,4.765-1.877,4.416,2.802c1.574-4.195,1.926-3.801,2.496-0.105c-0.277-2.289-0.336-1.276-0.512,0.379
	c0.652-1.516,1.188-2.388,2.57-1.245c-0.211-1.099-0.209-1.692,0.021-1.877c0.247-0.182,0.723,0.046,0.257,1.017
	c0.654-1.442,1.156-1.183-0.01-0.064c1.352-1.489,2.082-1.335-0.043-0.355c2.433-0.853,3.09-0.771,0.176,0.994
	c3.064-1.663,2.559-1.643-0.154-0.804c2.183-0.717,2.656-0.74,0.197,0.969c3.282-1.705,3.631-1.679,0.541,1.34
	c3.823-2.934,3.889-2.863,0.29,0.483c2.962-3.199,2.627-3.141-0.581-1.097c2.287-1.9,1.701-1.813-0.359-1.169
	c1.904-0.593,2.424-0.639,0.336,1.112c3.059-1.822,3.51-1.848,0.962,1.64c3.813-3.543,4.539-3.554,5.638,2.399
	c0.289-5.897,0.951-5.832,4.565-2.333c-2.189-3.278-1.425-3.122,1.135-2.019c-0.761-0.679,0.272-0.413,1.526-0.083
	c-1.563-0.529-2.518-0.882-1.385-0.391c-1.991-0.943-1.895-1.043,0.109-0.491c-0.926-0.596,0.055-0.541,1.396-0.461
	c-1.23-0.135-1.65-0.213-1.27-0.23c-0.182-0.084,0.438-0.108,1.291-0.141c0.001-0.034,0.232-0.082,0.579-0.134
	c0.345-0.055,0.805-0.117,1.206-0.158c0.662-0.126,1.264-0.235,0.776,0.625c1.675-1.112,2.26-1.252,1.439,1.197
	c1.976-2.764,2.544-2.935,2.885,0.955c0.809-4.276,1.389-4.491,3.938-0.876c-1.414-4.081-0.859-4.332,2.455-2.594
	c-2.285-2.248-1.808-2.504,0.649-2.156c-0.763-0.443-1.032-0.738-1.075-0.763c0.17-0.406,0.564-0.545,0.786,0.306
	c0.323-1.222,0.47-1.461,0.179,0.061c0.74-2.005,1.042-2.25,0.984,0.296c0.646-3.055,0.932-3.315,1.628,0.176
	c-0.142-4.031,0.127-4.309,2.354-0.428c-1.518-4.662-1.095-5.18,3.857-3.936c-4.166-2.33-3.802-2.898-0.193-4.211
	c-1.472,0.064-2.133-0.057-2.219-0.235C108.925,85.751,109.362,85.254,110.643,85.591c-1.147-0.657-1.441-0.474-1.166,0.399
	C109.202,85.118,109.496,84.934,110.643,85.591z"/>
<path fill-rule="evenodd" clip-rule="evenodd" fill="#4B4744" d="M91.434,50.147c-0.554,0.415-1.033,0.281-1.549-0.119
	c-0.467,0.146-0.97,0.022-1.485-0.091c-0.515-0.119-1.042-0.23-1.581-0.335c-0.809-0.16-1.645-0.307-2.001-1.236
	c-1.37,0.664-2.263,0.543-3.153-0.993c-0.123,1.907-0.223,2.382-0.489,0.22c0.054,3.1-0.059,3.566-1.163,0.509
	c0.869,3.979,0.744,4.438-2.469,2.288c2.838,2.608,2.586,2.607-0.615,0.593c2.889,2.456,2.896,3.149-0.04,5.279
	c2.707-1.194,2.47-0.951,0.021,0.424c1.592-1.382,0.973-1.638-0.889-1.947c1.645,0.878,2.049,1.7,1.428,3.141
	c0.873-0.153,0.723,0.306,0.212,0.763c-0.382,0.288-1.122,0.568-2.177,0.854c2.615,0.372,2.427,0.777,0.229,1.467
	c1.865-0.377,1.722-0.465-0.179-0.819c1.598,0.68,1.415,1.367,0.574,2.085c0.399,0.064,0.143,0.159-0.25-0.104
	c-0.313-0.307-0.759-0.969-1.36-2.089c0.923,4.84,0.466,5.561-4.407,5.602c4.123,1.068,3.841,1.47,0.172,2.646
	c3.188-0.615,2.987-0.453,0.109,0.39c2.282-0.082,1.886,0.517,0.457,1.127c0.746-0.667,0.46-1.327-0.808-2.958
	c0.818,1.137,0.638,2.076,0.391,2.769c-0.233,0.685-0.535,1.121-0.964,1.314c-0.855,0.387-2.219-0.204-4.618-1.723
	c3.456,4.327,2.768,4.938-1.094,5.888c2.806-0.074,2.451,0.208,0.281,0.88c1.688-0.538,1.564-0.684-0.28-0.868
	c1.276,0.587,0.836,1.142,0.374,1.231c0.104-0.244,0.186-0.956-0.572-2.396c0.731,1.048,0.466,1.832,0.309,2.247
	c-0.103,0.389-0.097,0.405,0.025,0.049c0.179-0.392,0.474-1.156-0.32-2.169c0.697,0.845,0.239,1.616-0.17,2.132
	c-1.223,1.544-1.983,0.779-3.228-3.174c1.088,4.093,1.692,4.997,3.042,3.37c0.45-0.541,0.981-1.364,0.361-2.284
	c0.777,0.865,0.346,1.655-0.066,2.189c-1.233,1.6-2.292,0.893-4.671-2.733c1.711,5.454,1.076,5.721-3.127,4.133
	c2.986,2.09,2.404,2.325-0.241,2.576c1.399,0.242,0.735,0.497-0.059,0.799c-0.753,0.291-1.634,0.623-2.693,1.02
	c3.531-1.332,2.64-1.048-0.196-0.152c1.039-0.416,0.135-0.219-0.773-0.066c1.862,4.301,4.694,7.882,8.094,10.687
	c0.681,0.562,1.383,1.092,1.737,1.744c1.091,0.346,1.834,0.813,1.674,2.388c1.676-0.705,2.45-0.301,3.079,1.569
	c0.798-1.973,1.441-2.491,3.159-0.621c-0.433-2.979,0.21-3.573,3.583-2.474c-2.086-2.357-1.444-3.021,2.786-2.327
	c-2.953-2.085-2.317-2.812,2.33-3.086c-3.388-1.234-2.763-2.016,1.866-2.667c-3.395-0.958-2.785-1.787,1.596-2.438
	c-3.183-1.05-2.594-1.918,1.854-2.801c-3.293-0.889-2.727-1.791,1.646-2.898c-3.271-0.723-2.735-1.649,1.515-2.82
	c-3.21-0.701-2.706-1.645,1.468-2.982c-3.205-0.562-2.739-1.518,1.221-3.15c-3.07-0.278-2.646-1.237,1.121-2.715
	c-2.967-0.433-2.588-1.387,1.292-2.813c-3.338-0.031-3.155-0.544,0.618-1.707c-3.464,0.341-3.34,0.03,0.281-0.982
	c-3.302,0.006-3.108-0.689,0.345-2.2c-3.229,1.191-3.196,1.569-0.368,2.304c-2.744-0.6-2.607-1.495,0.338-3.686
	c-2.623,0.618-2.441-0.062-0.463-1.961c-1.469,0.541-1.139-0.143-0.412-1.131c0.177-0.597,0.752-1.5,1.501-2.626
	c-0.882,0.874-1.454,1.356-1.772,1.451c-0.368,0.143-0.482-0.1-0.441-0.686c0.025-0.563,0.205-1.464,0.454-2.666
	C91.281,52.398,91.336,51.533,91.434,50.147C91.348,50.7,91.348,50.7,91.434,50.147z"/>
<path fill-rule="evenodd" clip-rule="evenodd" fill="#4B4744" d="M110.944,58.026c-1.052-0.282-1.474-0.994-1.94-1.635
	c-0.515-0.54-1.071-1.008-1.734-1.424c-1.326-0.831-3.073-1.453-5.544-2.415c-0.037,0.725-0.09,1.48-0.156,2.265
	c-0.066,0.782-0.147,1.595-0.314,0.843c-0.027,2.422-0.143,3.282-0.807,0.099c0.134,1.648,0.207,2.847,0.061,3.457
	c0.076,0.727-0.065,0.865-0.373,0.39c-0.283-0.467-0.732-1.55-1.381-3.321c0.401,1.788,0.691,3.187,0.834,4.193
	c0.143,1.008,0.139,1.62-0.076,1.829c-0.16,0.225-0.531,0.046-1.119-0.536c-0.588-0.584-1.393-1.566-2.451-2.956
	c0.953,1.862,1.655,3.319,2.1,4.394c0.445,1.073,0.633,1.764,0.531,2.085c-0.042,0.334-0.374,0.3-0.97-0.073
	c-0.596-0.374-1.455-1.088-2.583-2.118c1.002,1.515,1.736,2.714,2.211,3.604c0.475,0.892,0.691,1.476,0.611,1.753
	c0.016,0.297-0.268,0.287-0.791-0.007c-0.524-0.295-1.288-0.877-2.284-1.732c0.847,1.35,1.463,2.422,1.857,3.226
	c0.394,0.804,0.567,1.338,0.462,1.582c0.033,0.295-0.214,0.301-0.659,0.048s-1.09-0.766-1.923-1.531
	c0.879,1.683,1.424,2.914,1.629,3.711c0.223,0.801,0.104,1.166-0.348,1.113c-0.441-0.049-1.218-0.516-2.319-1.381
	c2.509,4.583,2.083,5.576-0.832,3.492c2.009,4.056,1.528,5.037-1.074,3.07c1.58,3.911,1.038,4.873-1.172,2.795
	c1.068,3.98,0.466,4.918-1.523,2.434c0.718,4.329,0.05,5.233-2.128,2.661c0.772,4.346,0.036,5.21-3.543,4.837
	c2.035,2.057,1.229,2.875-0.369,3.809c-0.092,0.649-0.974,1.413-1.895,2.146c1.004,0.052,1.918,0.105,2.719,0.182
	c0.91,0.005,1.706,0.033,1.479,1.178c1.76-1.149,2.496-1.183,2.641,1.18c1.328-2.519,2.063-2.645,3.974-0.366
	c-0.378-2.653,0.417-2.903,2.86-2.287c-0.387-0.785-0.383-1.343-0.082-1.76c0.303-0.415,0.9-0.688,1.518-0.465
	c0.148-0.928,0.314-1.361-0.042-0.282c0.987-1.841,1.449-2.172,1.622,0.285c0.541-3.233,0.791-3.681,2.104-0.205
	c-0.669-4.305-0.274-4.688,5.114-4.181c-4.729-1.348-4.464-1.806,1.359-4.079c-5.201,1.395-4.845,0.979,0.341-1.329
	c-4.581,1.411-4.334,0.934,0.28-1.395c-4.086,1.384-3.805,0.92,0.136-0.923c-3.394,0.902-3.128,0.427,0.129-1.047
	c-2.739,0.513-2.488,0.029,0.19-1.104c-2.002-0.224-1.592-1.104,0.475-2.179c-1.297-0.705-0.936-1.604,0.635-2.478
	c-0.899-0.937-0.588-1.848,0.889-2.693c-0.908-0.981-0.648-1.899,0.684-2.787c-0.867-0.946-0.66-1.862,0.729-2.768
	c-1.03-0.92-0.879-1.829,0.795-2.707c-1.424-0.927-1.326-1.822,1.057-2.868c-2.246-0.725-2.206-1.601-0.212-3.325
	C110.35,60.327,110.333,59.477,110.944,58.026C110.286,58.644,110.286,58.644,110.944,58.026z"/>
<path fill-rule="evenodd" clip-rule="evenodd" fill="#DBF1F7" d="M90.518,49.002c4.275-7.936,7.158-18.427,17.059-22.006
	c5.765-2.064,13.518-5.154,19.326-0.449c7.545,6.135-6.381,23.58-12.354,26.729c-7.485,3.947-3.355,6.522-12.803,1.8
	C99.395,53.911,89.843,51.067,90.518,49.002L90.518,49.002z"/>
<path fill-rule="evenodd" clip-rule="evenodd" fill="#FFD072" d="M40.412,81.833c-2.208-2.638-3.232-4.417-6.647-5.052
	c-5.052-0.96-5.134,3.293-1.166,3.661c2.392,0.226-1.084,2.822-0.573,5.053c0.573,2.453,3.906,3.537,6.811,2.412
	c1.022-0.388,2.106-1.881,2.311-2.599C41.455,84.288,40.616,83.162,40.412,81.833L40.412,81.833z"/>
<path fill-rule="evenodd" clip-rule="evenodd" fill="#2E2C2C" d="M73.727,55.103c0.246-1.065,0.186-2.599-2.392-2.926
	c-0.083-0.08,0.062-0.695,0.407-0.347c0.145,0.143,0.369,0.163,0.615,0.267c0.121,0.04,0.879,0.49,0.981,0.592
	c0.368,0.347,0.593,0.859,0.757,1.37c0.061,0.184,0.061,0.635,0.041,0.84C74.096,55.307,73.768,55.45,73.727,55.103L73.727,55.103z"
	/>
<path fill-rule="evenodd" clip-rule="evenodd" fill="#2E2C2C" d="M35.074,56.534c-0.573-0.307-1.473-0.489-2.025,0.921
	c-0.061,0.04-0.408-0.143-0.143-0.287c0.103-0.062,0.143-0.164,0.245-0.307c0.042-0.062,0.41-0.43,0.471-0.47
	c0.266-0.143,0.593-0.204,0.9-0.225c0.124,0,0.389,0.061,0.491,0.102C35.237,56.35,35.257,56.555,35.074,56.534L35.074,56.534z"/>
<path fill-rule="evenodd" clip-rule="evenodd" fill="#E8AA42" d="M83.79,72.712c2.086,0.306,3.211-2.148,5.297-1.843
	c2.188,0.819,4.459,4.727,4.5,6.32c0.981,0,2.598,3.068,1.738,4.418c-1.268,1.636-3.907-2.966-4.07-3.497
	c-0.184-0.512,2.699,5.276,2.107,5.932c-0.533,0.775-2.559,1.001-2.74-0.123c-0.205-1.433-0.799-3.191-1.188-4.215
	c-0.307-0.141,0.9,6.321-0.123,6.219c-0.347,0.531-2.064,0.163-2.105-1.452c-0.062-1.963-0.594-4.479-0.327-4.479
	c-0.245,1.758,0.204,3.947-1.126,4.847c-1.063,0.268-2.024-0.389-1.473-2.822c0.635-0.776,1.637-4.969,0.145-5.359
	c-1.043,2.395-4.93,6.075-4.582,2.108c-0.471-0.942,2.986-3.724,2.986-3.724S83.688,72.568,83.79,72.712L83.79,72.712z"/>
<path fill-rule="evenodd" clip-rule="evenodd" fill="#FFD072" d="M80.21,61.321c2.394,1.389,3.497,5.255,4.499,7.873
	c0.696,1.8-0.674,5.317,2.025,3.129c1.391-1.124,1.329-1.718,0-3.354c-0.715-0.9-0.695-2.004-1.125-3.149
	c-0.49-1.31-1.943-2.865-2.25-4.05C83.033,60.542,81.069,58.784,80.21,61.321L80.21,61.321z"/>
<path fill-rule="evenodd" clip-rule="evenodd" fill="#2E2C2C" d="M14.356,68.397c6.278,0,12.66,6.544,14.888,10.163
	c1.411,2.312,3.006,4.582,3.375,7.424c0.061,0.491,1.901-0.204,1.8-0.388c-1.718-2.721-3.355-7.179-5.583-9.408
	c-1.473-1.452-5.439-4.458-7.076-5.787C19.775,68.785,16.462,68.805,14.356,68.397L14.356,68.397z"/>
<path fill="#A8D598" d="M14.356,68.397c6.278,0,12.66,6.544,14.888,10.163c1.411,2.312,3.006,4.582,3.375,7.424
	c0.061,0.491,1.901-0.204,1.8-0.388c-1.718-2.721-3.355-7.179-5.583-9.408c-1.473-1.452-5.439-4.458-7.076-5.787
	C19.775,68.785,16.462,68.805,14.356,68.397L14.356,68.397z"/>
<path fill-rule="evenodd" clip-rule="evenodd" fill="#2E2C2C" d="M29.592,83.592c0.409-2.188,5.196-4.889,6.34-3.722
	c1.35,1.329-0.307,2.718-1.391,3.803c-0.45,0.45-1.452,1.801-1.82,2.188c-0.858,0.858,1.35-1.309,1.575-1.574
	c0.96-1.188,2.516-1.943,3.722-0.962c0.921,0.758-1.166,2.721-1.677,3.23c-0.286,0.288-0.797,0.717-1.104,1.003
	c-2.699,2.7,1.555-1.656,2.966-2.188c2.045-0.799,2.72,1.083,1.493,2.597c-1.759,2.147-3.682,3.805-6.32,2.147
	C31.863,89.174,29.163,86.046,29.592,83.592L29.592,83.592z"/>
<path fill="#8E6D2A" stroke="#2E2C2C" stroke-width="0" stroke-linecap="square" stroke-miterlimit="10" d="M29.592,83.592
	c0.409-2.188,5.196-4.889,6.34-3.722c1.35,1.329-0.307,2.718-1.391,3.803c-0.45,0.45-1.452,1.801-1.82,2.188
	c-0.858,0.858,1.35-1.309,1.575-1.574c0.96-1.188,2.516-1.943,3.722-0.962c0.921,0.758-1.166,2.721-1.677,3.23
	c-0.286,0.288-0.797,0.717-1.104,1.003c-2.699,2.7,1.555-1.656,2.966-2.188c2.045-0.799,2.72,1.083,1.493,2.597
	c-1.759,2.147-3.682,3.805-6.32,2.147C31.863,89.174,29.163,86.046,29.592,83.592L29.592,83.592z"/>
<path fill-rule="evenodd" clip-rule="evenodd" fill="#F4BB19" d="M29.573,83.859c0.408-2.108,5.009-4.705,6.135-3.601
	c1.289,1.31-0.307,2.638-1.35,3.682c-0.429,0.429-1.39,1.737-1.758,2.106c-0.84,0.816,1.308-1.248,1.534-1.534
	c0.919-1.125,2.413-1.86,3.579-0.9c0.88,0.717-1.125,2.618-1.616,3.108c-0.286,0.267-0.776,0.676-1.063,0.962
	c-2.618,2.598,1.493-1.596,2.842-2.105c1.964-0.759,2.619,1.043,1.454,2.493c-1.699,2.067-3.56,3.661-6.095,2.087
	C31.781,89.237,29.183,86.209,29.573,83.859L29.573,83.859z"/>
<path fill="#FFD072" stroke="#2E2C2C" stroke-width="0" stroke-linecap="square" stroke-miterlimit="10" d="M29.573,83.859
	c0.408-2.108,5.009-4.705,6.135-3.601c1.289,1.31-0.307,2.638-1.35,3.682c-0.429,0.429-1.39,1.737-1.758,2.106
	c-0.84,0.816,1.308-1.248,1.534-1.534c0.919-1.125,2.413-1.86,3.579-0.9c0.88,0.717-1.125,2.618-1.616,3.108
	c-0.286,0.267-0.776,0.676-1.063,0.962c-2.618,2.598,1.493-1.596,2.842-2.105c1.964-0.759,2.619,1.043,1.454,2.493
	c-1.699,2.067-3.56,3.661-6.095,2.087C31.781,89.237,29.183,86.209,29.573,83.859L29.573,83.859z"/>
<g>
	<path fill="#A8D598" d="M30.101,64.306c-1.723,2.571-1.406,11.145-0.344,12.951c0.659,1.118,1.29,2.341,2.495,3.181
		c0.2,0.152-0.632,0.738-0.688,0.636c-0.775-1.373-2.382-3.104-2.782-4.58c-0.289-0.94-1.751-3.309-1.894-4.301
		C26.686,70.971,29.726,65.247,30.101,64.306L30.101,64.306z"/>
</g>
<g>
	<path fill="#FFD067" d="M9.93,61.541c0,0,0.962-5.724,5.776-1.898c0,0,4.626,3.33-1.613,6.25c0,0,6.051,1.099,2.896,6.24
		c0,0-3.214,3.473-6.358-0.418c0,0-0.838,4.547-4.387,3.35c-3.549-1.2-3.172-4.725-1.382-5.966c0,0-3.892,3.162-4.752-2.155
		c-0.912-5.64,4.201-3.842,4.201-3.842s-2.497-4.418,1.459-5.91c0,0,5.153-0.537,3.822,4.194"/>
</g>
<path opacity="0.85" fill="#D76C27" d="M13.868,64.761c-2.388,0.383-2.103,2.618-0.687,3.729c-1.75-1.333-1.985,1.685-1.262,2.608
	c-0.858-2.257-3.116-2.646-3.921-0.214c0.061-3.133-1.726-3.401-3.996-2.488c2.847-2.023,1.219-3.401-0.114-5.074
	c2.048,1.617,3.702-0.149,3.56-2.094c1.523,2.553,2.723,1.982,4.222-0.26c-0.323,1.275-2.176,4.55,2.034,3.644"/>
<path fill="#FDFAD4" d="M10.682,63.015c-0.158,0.321-0.21,0.507-0.634,0.425c-0.587-1.042,0.705-1.28,0.512-0.117"/>
<path fill="#FDFAD4" d="M7.034,66.131c-0.158,0.319-0.21,0.504-0.636,0.422c-0.589-1.038,0.705-1.279,0.513-0.115"/>
<path fill="#FDFAD4" d="M8.315,63.153c-0.157,0.319-0.21,0.503-0.633,0.422c-0.59-1.039,0.704-1.279,0.511-0.115"/>
<path fill="#FDFAD4" d="M6.721,68.291c-0.158,0.32-0.211,0.502-0.632,0.422c-0.591-1.038,0.703-1.278,0.508-0.114"/>
<path fill="#FDFAD4" d="M13.001,66.5c-0.158,0.319-0.211,0.507-0.635,0.423c-0.588-1.039,0.706-1.279,0.511-0.115"/>
<g>
	<path fill="none" d="M8.992,65.576c1.098-0.169,1.806-1.26,1.276-2.249"/>
	<path fill="#FFFFFF" d="M9.058,65.577c1.181-0.229,1.802-1.188,1.293-2.258c-0.001-0.002-0.179-0.008-0.167,0.013
		c0.495,1.048-0.091,2.014-1.258,2.243C8.866,65.588,9.035,65.583,9.058,65.577L9.058,65.577z"/>
</g>
<g>
	<path fill="none" d="M9.081,65.177c0.518,1.186,2.234,2.078,3.496,1.648"/>
	<path fill="#FFFFFF" d="M9.093,65.248c0.627,1.279,2.133,2.064,3.514,1.668c0.004-0.002-0.034-0.189-0.061-0.18
		c-1.352,0.387-2.861-0.364-3.479-1.625C9.032,65.042,9.083,65.222,9.093,65.248L9.093,65.248z"/>
</g>
<g>
	<path fill="none" d="M10.886,65.972c1.141-0.604,1.905-2.385,1.379-3.609"/>
	<path fill="#FFFFFF" d="M10.953,65.953c1.23-0.72,1.9-2.282,1.399-3.626c-0.002-0.007-0.187,0.047-0.175,0.075
		c0.489,1.318-0.145,2.878-1.359,3.589C10.753,66.031,10.931,65.966,10.953,65.953L10.953,65.953z"/>
</g>
<path fill="#FDFAD4" d="M12.919,61.888c-0.157,0.319-0.21,0.505-0.633,0.422c-0.588-1.04,0.705-1.279,0.512-0.113"/>
<path fill="#FDFAD4" d="M11.15,65.91c-0.446,0.928-0.592,1.468-1.848,1.199c-1.809-3.086,2.004-3.703,1.506-0.305"/>
<g>
	<path fill="none" d="M9.268,66.683c-0.023-0.897-0.828-2.607-1.683-3.405"/>
	<path fill="#FFFFFF" d="M9.275,66.644c-0.062-1.024-0.771-2.524-1.686-3.427c-0.004-0.003-0.027,0.104-0.008,0.122
		c0.898,0.887,1.615,2.374,1.677,3.384C9.263,66.778,9.278,66.663,9.275,66.644L9.275,66.644z"/>
</g>
<g>
	<path fill="none" d="M9.713,66.177c-0.288,1.225-1.778,2.329-3.063,2.079"/>
	<path fill="#FFFFFF" d="M9.713,66.249c-0.378,1.331-1.686,2.3-3.076,2.099c-0.005,0-0.001-0.188,0.027-0.183
		c1.364,0.195,2.679-0.74,3.05-2.056C9.736,66.039,9.72,66.222,9.713,66.249L9.713,66.249z"/>
</g>
<path fill="#FDFAD4" d="M10.727,69.764c-0.157,0.319-0.21,0.506-0.634,0.424c-0.589-1.038,0.705-1.278,0.509-0.115"/>
<path fill-rule="evenodd" clip-rule="evenodd" fill="#E8AA42" d="M52.1,18.205c-0.25,0.325-0.835,0.271-1.229,0.01
	c-0.393-0.263-0.594-0.732-0.429-1.629c-2.48,1.703-3.498,1.7-4.43-1.608c-0.998,3.384-1.91,3.463-4.423,1.345
	c0.999,2.319,0.377,2.428-1.606,1.543c0.788,1.138,0.215,1.285-0.804,1.238c-0.085,0.379-0.615,0.563-1.069,0.505
	c-0.454-0.057-0.832-0.356-1.082-1.157c-1.392,2.546-2.268,3.082-4.627,0.394c0.712,3.874-0.06,4.521-3.991,4.034
	c1.227,0.939,1.664,1.594,1.518,2.135c-0.146,0.541-0.873,0.97-2.172,0.357c0.609,1.392,0.646,1.741,0.152,0.003
	c0.193,2.503-0.145,2.918-1.74,0.455c0.804,3.446,0.351,4.021-3.218,2.47c0.882,0.906,1.418,1.577,1.611,2.082
	c0.191,0.506,0.039,0.848-0.457,1.093c-0.495,0.249-1.333,0.402-2.512,0.534c1.29,0.403,1.811,0.757,1.331,0.213
	c0.414,1.29-0.173,1.683-1.948,1.313c1.207,1.33,1.264,1.895-0.914,1.096c2.018,2.006,1.801,2.649-1.205,2.82
	c1.632,1.164,2.065,2.11,1.777,3.188c-0.145,0.538-0.469,1.11-0.994,1.649c0.61,0.371,0.87,0.807,0.031,0.127
	c1.112,1.715,1.125,2.313-1.165,1.074c2.407,3.014,2.588,4.171-1.668,6.246c1.602,0.058,2.709,0.218,3.44,0.549
	c0.731,0.33,1.084,0.831,0.729,1.351c0.537,0.962,0.367,1.94-0.749,3.235c1.723-0.882,2.319-1.064,0.267-1.288
	c2.93,0.642,3.213,1.243,0.057,2.703c3.762-0.481,4.084-0.103,1.256,2.734c3.504-2.002,3.859-1.543,2.826,2.229
	c1.073-1.216,1.81-1.611,2.418-1.437c0.608,0.175,1.086,0.92,0.58,1.911c1.364-0.192,1.742-0.139,0.083-0.107
	c2.504,0.385,2.97,0.746,0.042,1.595c4.357,0.196,5.355,0.84,5.334,6.283c0.694-1.424,1.274-2.315,1.841-2.762
	c0.566-0.448,1.119-0.45,1.756-0.097c0.638,0.353,1.36,1.061,1.702,2.519c0.292-1.48,0.433-1.879-0.729-1.07
	c1.88-1.006,2.457-0.807,1.031,1.348c2.549-1.817,3.097-1.682,2.2,1.565c2.014-2.995,2.583-2.877,3.171,0.677
	c0.895-3.296,1.811-3.183,3.961-1.209c-0.164-0.92-0.017-1.376,0.322-1.575c0.34-0.198,0.873-0.142,1.203,0.118
	c0.572-0.29,0.94-0.381,0.229,0.22c1.523-0.743,1.967-0.797,0.458,0.614c2.831-1.61,3.699-1.796,2.475,2.024
	c2.925-4.299,3.757-4.592,8.078-1.035c-1.609-2.92-1.663-4.111-0.417-4.735c0.623-0.313,1.57-0.483,2.224,0.307
	c-0.211-1.21-0.349-1.462-0.989-0.762c1.015-1.224,1.529-1.492,0.528,0.401c2.014-2.443,2.513-2.725,1.494,0.853
	c2.001-4.152,2.483-4.445,3.454,0.56c-0.024-5.607,0.44-5.917,4.95-2.587c-3.622-3.901-3.198-4.165,1.525-3.38
	c-3.859-1.449-3.418-1.852,0.039-2.109c-2.563,0.14-2.109,0.422,0.075,1.567c-1.508-1.332-1.308-2.151-0.291-2.869
	c-0.403-0.336,0.01-0.572,0.616-0.504c0.607,0.069,1.408,0.442,2.491,1.132c-1.938-3.702-1.345-4.563,2.204-5.23
	c-2.76-0.696-2.514-1.164-0.248-1.931c-1.689-0.032-1.357-0.365-0.203-0.772c-0.773-0.602-0.723-1.279-0.394-1.788
	c0.33-0.512,0.94-0.854,2.009-1.01c-1.694-1.929-1.557-3.106,0.24-4.794c-1.729-0.172-1.73-0.808-0.909-1.961
	c-0.851-0.138-0.882-0.793-0.917-1.455c-0.1-0.595-0.206-1.152-0.113-1.642c0.095-0.492,0.387-0.915,1.089-1.246
	c-2.042-1.236-2.452-2.098-0.421-3.819c-3.003,0.121-3.564-0.617-2.724-3.313c-1.774,1.646-2.102,1.305-1.737-0.851
	c-1.027,1.489-1.365,1.163-1.521-0.354c-0.574,0.868-0.966,0.546-1.131-0.121c-0.156-0.084-0.084-0.511,0.447-1.048
	c-2.677-0.217-3.516-0.874-2.492-3.745c-2.732,1.488-3.604,0.763-4.441-1.575c-0.376,1.247-0.781,0.946-1.092-0.02
	c-0.145,0.243-0.196-0.181,0.172-0.729c-2.859-0.009-4.044-0.521-3.149-4.052c-3.244,2.633-4.408,2.247-6.149-0.712
	c-0.298,2.359-1.174,2.144-2.371,1.228C52.669,18.466,52.351,18.467,52.1,18.205C52.444,18.6,52.444,18.6,52.1,18.205z"/>
<path fill-rule="evenodd" clip-rule="evenodd" fill="#FFD072" d="M52.282,18.641c-0.241,0.319-0.804,0.265-1.183,0.01
	c-0.379-0.258-0.573-0.716-0.415-1.593c-2.389,1.665-3.369,1.662-4.268-1.572c-0.961,3.309-1.839,3.386-4.261,1.314
	c0.963,2.268,0.363,2.372-1.547,1.51c0.759,1.111,0.207,1.255-0.774,1.208c-0.082,0.371-0.593,0.551-1.029,0.496
	c-0.438-0.057-0.802-0.351-1.042-1.134c-1.341,2.49-2.185,3.014-4.457,0.386c0.685,3.786-0.059,4.42-3.845,3.943
	c1.182,0.918,1.603,1.559,1.462,2.088c-0.14,0.528-0.841,0.947-2.093,0.348c0.586,1.361,0.622,1.702,0.146,0.005
	c0.187,2.445-0.139,2.852-1.676,0.443c0.774,3.37,0.337,3.932-3.1,2.414c0.851,0.887,1.367,1.542,1.552,2.036
	c0.185,0.494,0.039,0.828-0.439,1.069c-0.476,0.241-1.284,0.392-2.419,0.521c1.242,0.394,1.745,0.739,1.282,0.21
	c0.399,1.26-0.167,1.644-1.877,1.282c1.163,1.301,1.218,1.852-0.88,1.071c1.944,1.961,1.735,2.59-1.161,2.757
	c1.572,1.137,1.989,2.063,1.711,3.117c-0.139,0.526-0.452,1.085-0.958,1.612c0.589,0.362,0.838,0.789,0.03,0.124
	c1.07,1.676,1.083,2.261-1.123,1.051c2.319,2.946,2.493,4.076-1.607,6.105c1.542,0.056,2.61,0.212,3.313,0.536
	c0.705,0.322,1.044,0.813,0.703,1.319c0.518,0.94,0.353,1.897-0.721,3.162c1.659-0.86,2.233-1.039,0.256-1.258
	c2.823,0.629,3.096,1.216,0.054,2.644c3.625-0.471,3.935-0.101,1.21,2.673c3.376-1.957,3.718-1.509,2.723,2.178
	c1.033-1.189,1.743-1.576,2.329-1.404c0.586,0.171,1.046,0.898,0.559,1.867c1.313-0.188,1.679-0.134,0.081-0.104
	c2.412,0.376,2.861,0.729,0.04,1.558c4.198,0.193,5.159,0.821,5.14,6.145c0.667-1.393,1.227-2.265,1.773-2.701
	c0.546-0.438,1.078-0.439,1.692-0.095c0.614,0.345,1.31,1.037,1.639,2.463c0.281-1.448,0.417-1.837-0.702-1.048
	c1.812-0.983,2.367-0.787,0.994,1.318c2.456-1.777,2.983-1.645,2.119,1.529c1.94-2.926,2.488-2.812,3.056,0.662
	c0.862-3.221,1.744-3.111,3.815-1.181c-0.157-0.9-0.016-1.347,0.311-1.54c0.327-0.195,0.841-0.139,1.159,0.115
	c0.551-0.284,0.906-0.372,0.221,0.214c1.467-0.727,1.896-0.779,0.442,0.602c2.727-1.575,3.563-1.757,2.383,1.978
	c2.817-4.202,3.619-4.488,7.782-1.012c-1.55-2.854-1.603-4.018-0.403-4.629c0.6-0.305,1.513-0.472,2.142,0.3
	c-0.203-1.182-0.336-1.43-0.952-0.744c0.978-1.196,1.473-1.46,0.508,0.392c1.94-2.388,2.421-2.662,1.439,0.834
	c1.928-4.059,2.393-4.347,3.328,0.548c-0.024-5.482,0.424-5.784,4.767-2.529c-3.488-3.814-3.08-4.071,1.471-3.304
	c-3.718-1.417-3.293-1.811,0.036-2.063c-2.468,0.136-2.03,0.412,0.073,1.533c-1.452-1.303-1.26-2.104-0.281-2.807
	c-0.387-0.328,0.01-0.559,0.596-0.491c0.584,0.067,1.355,0.433,2.398,1.105c-1.867-3.619-1.295-4.462,2.124-5.113
	c-2.659-0.68-2.423-1.137-0.239-1.887c-1.627-0.03-1.309-0.355-0.197-0.754c-0.744-0.59-0.695-1.252-0.377-1.75
	c0.317-0.498,0.905-0.834,1.935-0.986c-1.633-1.885-1.501-3.036,0.23-4.685c-1.666-0.17-1.666-0.79-0.876-1.918
	c-0.819-0.136-0.849-0.776-0.883-1.425c-0.096-0.58-0.198-1.124-0.107-1.604c0.09-0.48,0.372-0.895,1.047-1.216
	c-1.967-1.209-2.361-2.053-0.404-3.735c-2.894,0.118-3.435-0.604-2.625-3.238c-1.709,1.608-2.023,1.275-1.672-0.832
	c-0.991,1.456-1.316,1.137-1.467-0.347c-0.553,0.849-0.93,0.534-1.088-0.117c-0.151-0.082-0.082-0.501,0.43-1.026
	c-2.578-0.212-3.387-0.853-2.4-3.661c-2.633,1.457-3.473,0.747-4.279-1.539c-0.363,1.22-0.752,0.926-1.052-0.02
	c-0.14,0.237-0.188-0.176,0.166-0.71c-2.754-0.01-3.895-0.511-3.033-3.961c-3.125,2.573-4.247,2.195-5.924-0.696
	c-0.288,2.306-1.131,2.096-2.285,1.199C52.831,18.896,52.524,18.897,52.282,18.641C52.614,19.028,52.614,19.028,52.282,18.641z"/>
<path fill-rule="evenodd" clip-rule="evenodd" fill="#2E2C2C" d="M27.573,4.674c4.274,0,7.649,3.784,9.878,7.403
	c1.412,2.291,3.007,4.563,3.375,7.404c0.061,0.511,1.901-0.186,1.779-0.369c-1.698-2.74-2.332-6.666-4.56-8.896
	c-1.473-1.473-2.925-2.72-4.562-4.05C31.5,4.552,29.679,5.083,27.573,4.674L27.573,4.674z"/>
<path fill="none" stroke="#2E2C2C" stroke-width="0" stroke-linecap="square" stroke-miterlimit="10" d="M27.573,4.674
	c4.274,0,7.649,3.784,9.878,7.403c1.412,2.291,3.007,4.563,3.375,7.404c0.061,0.511,1.901-0.186,1.779-0.369
	c-1.698-2.74-2.332-6.666-4.56-8.896c-1.473-1.473-2.925-2.72-4.562-4.05C31.5,4.552,29.679,5.083,27.573,4.674L27.573,4.674z"/>
<path fill-rule="evenodd" clip-rule="evenodd" fill="#EB7A31" d="M60.254,45.005c-1.165,0.062-2.495,1.207-2.556,2.455
	c-0.062,2.003,3.477,1.922,4.929,0.919c0.756-0.531,0.858-0.531,0.817-1.35C63.384,46.129,61.01,44.965,60.254,45.005L60.254,45.005
	z"/>
<path fill-rule="evenodd" clip-rule="evenodd" fill="#2E2C2C" d="M64.549,32.14c-1.207-3.905-6.299-5.788-9.428-3.823
	c-1.779,1.104-2.781,2.229-2.781,4.786c0,4.929,2.638,4.949,7.895,5.133c2.474,0.082,4.273-0.696,4.703-3.006
	C65.389,32.877,65.061,34.167,64.549,32.14L64.549,32.14z"/>
<path fill-rule="evenodd" clip-rule="evenodd" fill="#2E2C2C" d="M40.13,33.573c-1.063-3.456-5.112-3.844-7.874-2.127
	c-1.555,0.982-3.804,2.189-3.804,4.459c0,4.355,3.456,5.174,6.954,3.823c2.025-0.777,4.335-0.714,4.724-2.761
	C40.519,34.903,40.559,35.352,40.13,33.573L40.13,33.573z"/>
<path fill-rule="evenodd" clip-rule="evenodd" fill="#2E2C2C" d="M61.871,6.229c-1.064,0.081-2.25,0.716-2.25,1.799
	c0,0.676-0.144,0.758,0,1.35c0.205,0.941,0.838,4.132,1.8,4.254c1.553,0.206,2.557,0.411,3.803-0.225
	c0.799-0.388,1.474-1.472,1.576-2.229c0.102-0.777,0.43-1.187,0-2.025c-0.45-0.9-1.391-1.758-2.25-2.249
	C63.465,6.29,63.057,6.003,61.871,6.229L61.871,6.229z"/>
<path fill="none" stroke="#2E2C2C" stroke-width="0" stroke-linecap="square" stroke-miterlimit="10" d="M61.871,6.229
	c-1.064,0.081-2.25,0.716-2.25,1.799c0,0.676-0.144,0.758,0,1.35c0.205,0.941,0.838,4.132,1.8,4.254
	c1.553,0.206,2.557,0.411,3.803-0.225c0.799-0.388,1.474-1.472,1.576-2.229c0.102-0.777,0.43-1.187,0-2.025
	c-0.45-0.9-1.391-1.758-2.25-2.249C63.465,6.29,63.057,6.003,61.871,6.229L61.871,6.229z"/>
<path fill-rule="evenodd" clip-rule="evenodd" fill="#2E2C2C" d="M59.621,9.441c-4.233,0-9.981,1.656-8.917,11.575
	c-0.205,0.408-2.68,0.408-1.637-1.248c0.409-0.675,0.307-1.452,0.451-2.454c0.061-0.511,1.022-3.784,1.329-4.275
	c1.042-1.655,2.741-2.943,4.499-4.049c0.614-0.368,2.353-0.797,3.149-0.9C60.071,7.926,60.827,8.99,59.621,9.441L59.621,9.441z"/>
<path fill="none" stroke="#2E2C2C" stroke-width="0" stroke-linecap="square" stroke-miterlimit="10" d="M59.621,9.441
	c-4.233,0-9.981,1.656-8.917,11.575c-0.205,0.408-2.68,0.408-1.637-1.248c0.409-0.675,0.307-1.452,0.451-2.454
	c0.061-0.511,1.022-3.784,1.329-4.275c1.042-1.655,2.741-2.943,4.499-4.049c0.614-0.368,2.353-0.797,3.149-0.9
	C60.071,7.926,60.827,8.99,59.621,9.441L59.621,9.441z"/>
<path fill-rule="evenodd" clip-rule="evenodd" fill="#2E2C2C" d="M43.525,18.151c0-2.412-1.37-3.619-2.699-4.948
	c-0.777-0.776,0.654-0.02,1.125,0.225c0.531,0.266,2.413,2.659,2.474,2.25c0.143-1.206-0.593-3.845,0.225-2.25
	c0.185,0.39,0.797,3.58,0.88,2.925c0.144-1.104,0.082-2.393,0.449-3.375c0.368-0.92,0.859-1.288,1.35-1.799
	c0.388-0.368,0.225,0,0.225,0.45c0,0.777-0.368,1.37-0.449,2.25c-0.041,0.674-0.226,1.452-0.226,2.024
	c0,0.757-0.021,0.122-0.225,0.449c-0.552,0.88,0.39,0.512,0.675,0.225c0.185-0.184,0.573-0.776,0.675-0.899
	c0.941-1.146,0.164,0.634,0,0.899c-0.368,0.594,0.369,1.391,0.45,1.574c0.185,0.329-0.286,0.247-0.45,0.227
	c-0.777-0.102-1.452,0-2.474,0H44.2C43.485,18.377,43.381,18.582,43.525,18.151L43.525,18.151z"/>
<path fill="none" stroke="#2E2C2C" stroke-width="0" stroke-linecap="square" stroke-miterlimit="10" d="M43.525,18.151
	c0-2.412-1.37-3.619-2.699-4.948c-0.777-0.776,0.654-0.02,1.125,0.225c0.531,0.266,2.413,2.659,2.474,2.25
	c0.143-1.206-0.593-3.845,0.225-2.25c0.185,0.39,0.797,3.58,0.88,2.925c0.144-1.104,0.082-2.393,0.449-3.375
	c0.368-0.92,0.859-1.288,1.35-1.799c0.388-0.368,0.225,0,0.225,0.45c0,0.777-0.368,1.37-0.449,2.25
	c-0.041,0.674-0.226,1.452-0.226,2.024c0,0.757-0.021,0.122-0.225,0.449c-0.552,0.88,0.39,0.512,0.675,0.225
	c0.185-0.184,0.573-0.776,0.675-0.899c0.941-1.146,0.164,0.634,0,0.899c-0.368,0.594,0.369,1.391,0.45,1.574
	c0.185,0.329-0.286,0.247-0.45,0.227c-0.777-0.102-1.452,0-2.474,0H44.2C43.485,18.377,43.381,18.582,43.525,18.151L43.525,18.151z"
	/>
<path fill-rule="evenodd" clip-rule="evenodd" fill="#FFFFFF" d="M39.333,34.042c-1.002-3.23-4.745-3.6-7.322-1.982
	c-1.473,0.919-3.559,2.045-3.559,4.15c0,4.05,3.231,4.807,6.463,3.56c1.901-0.717,4.049-0.654,4.417-2.558
	C39.68,35.27,39.741,35.7,39.333,34.042L39.333,34.042z"/>
<path fill-rule="evenodd" clip-rule="evenodd" fill="#FFFFFF" d="M58.005,28.788c-3.128-0.123-5.624,0.428-5.624,4.498
	c0,2.537,1.023,4.276,3.599,4.276c3.58,0,8.345,0.47,8.754-2.7C65.102,31.998,61.01,28.788,58.005,28.788L58.005,28.788z"/>
<path fill-rule="evenodd" clip-rule="evenodd" fill="#4AB2E1" d="M36.366,39.381c2.271-1.329,1.657-2.884,0.185-4.356
	c-1.636-1.657-6.32,0.021-6.32,2.188c0,1.677,1.268,2.373,2.761,2.373c0.777,0,1.268,0.082,1.984,0
	C35.406,39.524,36.653,39.28,36.366,39.381L36.366,39.381z"/>
<path fill-rule="evenodd" clip-rule="evenodd" fill="#4AB2E1" d="M58.005,31.261c-1.799,0-3.967,1.657-4.151,3.561
	c-0.266,3.066,5.174,3.25,7.484,1.799c1.207-0.736,1.37-0.716,1.37-1.984C62.708,33.245,59.17,31.261,58.005,31.261L58.005,31.261z"
	/>
<path fill-rule="evenodd" clip-rule="evenodd" fill="#2E2C2C" d="M69.193,51.427c-10.962,9.429-12.973,8.126-16.267,9.19
	c-6.708,2.167-19.279-2.38-22.531-6.451c3.497,4.705,16.044,10.162,22.629,7.626C55.008,61.035,60.661,60.127,69.193,51.427
	L69.193,51.427z"/>
<path fill-rule="evenodd" clip-rule="evenodd" fill="#2E2C2C" d="M55.447,60.325c-2.893,2.092-7.687,2.257-10.386,0.259
	c2.907,2.513,4.369,3.683,6.329,3.809C53.269,64.511,55.463,60.231,55.447,60.325L55.447,60.325z"/>
<path fill-rule="evenodd" clip-rule="evenodd" fill="#2E2C2C" d="M57.227,32.773c-0.672,0.05-1.424,0.438-1.424,1.135
	c0,0.416-0.076,0.466,0,0.828c0.156,0.597,0.543,2.586,1.139,2.662c0.957,0.131,1.602,0.258,2.379-0.129
	c0.489-0.259,0.904-0.931,0.98-1.422c0.053-0.466,0.26-0.725,0-1.24c-0.285-0.569-0.878-1.111-1.396-1.396
	C58.208,32.823,57.975,32.642,57.227,32.773L57.227,32.773z"/>
<path fill="none" stroke="#2E2C2C" stroke-width="0" stroke-linecap="square" stroke-miterlimit="10" d="M57.78,33.594
	c-0.532,0.041-1.125,0.347-1.125,0.898c0,0.329-0.062,0.369,0,0.655c0.124,0.471,0.429,2.045,0.901,2.106
	c0.756,0.102,1.268,0.203,1.881-0.103c0.389-0.204,0.715-0.736,0.777-1.125c0.041-0.368,0.206-0.572,0-0.98
	c-0.225-0.451-0.695-0.88-1.104-1.105C58.557,33.635,58.373,33.492,57.78,33.594L57.78,33.594z"/>
<path fill-rule="evenodd" clip-rule="evenodd" fill="#2E2C2C" d="M33.308,35.314c-0.613,0.055-1.275,0.421-1.275,1.068
	c0,0.395-0.081,0.451,0,0.817c0.131,0.562,0.477,2.477,1.009,2.534c0.876,0.142,1.462,0.255,2.152-0.141
	c0.454-0.226,0.853-0.873,0.905-1.325c0.052-0.478,0.239-0.703,0-1.21c-0.265-0.534-0.796-1.069-1.276-1.352
	C34.211,35.34,33.971,35.171,33.308,35.314L33.308,35.314z"/>
<path fill="none" stroke="#2E2C2C" stroke-width="0" stroke-linecap="square" stroke-miterlimit="10" d="M33.75,35.986
	c-0.472,0.041-0.982,0.308-0.982,0.776c0,0.288-0.062,0.328,0,0.594c0.102,0.41,0.368,1.801,0.776,1.842
	c0.675,0.102,1.125,0.184,1.657-0.103c0.348-0.165,0.655-0.634,0.696-0.962c0.041-0.347,0.184-0.51,0-0.879
	c-0.204-0.389-0.614-0.776-0.981-0.981C34.445,36.006,34.26,35.884,33.75,35.986L33.75,35.986z"/>
<path fill-rule="evenodd" clip-rule="evenodd" fill="#EB7A31" d="M32.932,47.644c-1.167,0.063-2.516,1.206-2.557,2.453
	c-0.061,1.984,3.476,1.925,4.908,0.921c0.756-0.531,0.879-0.531,0.817-1.35C36.061,48.768,33.687,47.603,32.932,47.644
	L32.932,47.644z"/>
<path fill-rule="evenodd" clip-rule="evenodd" fill="#2E2C2C" d="M59.784,46.006c-0.838,0.041-1.779,0.86-1.819,1.739
	c-0.042,1.411,2.454,1.371,3.476,0.634c0.532-0.368,0.613-0.347,0.593-0.94C61.993,46.805,60.317,45.987,59.784,46.006
	L59.784,46.006z"/>
<path fill-rule="evenodd" clip-rule="evenodd" fill="#2E2C2C" d="M32.604,48.625c-0.776-0.226-1.943,0.225-2.27,1.043
	c-0.491,1.33,1.882,2.085,3.088,1.738c0.635-0.184,0.696-0.144,0.86-0.695C34.445,50.097,33.136,48.768,32.604,48.625L32.604,48.625
	z"/>
<path stroke="#2E2C2C" stroke-width="0" stroke-linecap="square" stroke-miterlimit="10" d="M69.867,52.941
	c0.246-1.065,0.185-2.599-2.392-2.925c-0.083-0.081,0.061-0.694,0.408-0.348c0.144,0.143,0.368,0.163,0.613,0.267
	c0.123,0.04,0.881,0.491,0.982,0.593c0.367,0.347,0.593,0.858,0.757,1.37c0.061,0.184,0.061,0.634,0.04,0.839
	C70.236,53.146,69.908,53.289,69.867,52.941L69.867,52.941z"/>
<path stroke="#2E2C2C" stroke-width="0" stroke-linecap="square" stroke-miterlimit="10" d="M31.213,54.372
	c-0.573-0.307-1.472-0.489-2.024,0.921c-0.062,0.04-0.408-0.143-0.143-0.286c0.102-0.062,0.143-0.163,0.245-0.307
	c0.042-0.062,0.41-0.43,0.47-0.471c0.266-0.143,0.593-0.204,0.9-0.225c0.124,0,0.389,0.061,0.491,0.102
	C31.376,54.188,31.396,54.392,31.213,54.372L31.213,54.372z"/>
<path fill-rule="evenodd" clip-rule="evenodd" fill="#2E2C2C" d="M28.493,30.035c1.207,0.551,1.718,2.189,1.943,2.353
	c0.675,0.49,1.452-0.512,1.104-0.451C30.968,32.018,29.618,30.607,28.493,30.035L28.493,30.035z"/>
<path fill-rule="evenodd" clip-rule="evenodd" fill="#2E2C2C" d="M34.649,27.702c0.45,1.044-0.163,2.374-0.123,2.619
	c0.143,0.676,1.207,0.512,0.961,0.328C35.079,30.382,35.038,28.706,34.649,27.702L34.649,27.702z"/>
<path fill-rule="evenodd" clip-rule="evenodd" fill="#2E2C2C" d="M40.09,29.052c-0.124,1.146-1.289,2.005-1.371,2.23
	c-0.204,0.673,0.818,1.022,0.675,0.757C39.169,31.609,39.946,30.137,40.09,29.052L40.09,29.052z"/>
<path fill-rule="evenodd" clip-rule="evenodd" fill="#2E2C2C" d="M64.12,26.252c-0.143,1.348-1.554,2.391-1.636,2.678
	c-0.246,0.799,0.96,1.227,0.818,0.921C63.036,29.318,63.937,27.54,64.12,26.252L64.12,26.252z"/>
<path fill-rule="evenodd" clip-rule="evenodd" fill="#2E2C2C" d="M58.353,24.104c0.634,1.35-0.103,3.088-0.041,3.415
	c0.224,0.88,1.595,0.594,1.267,0.388C59.048,27.56,58.905,25.392,58.353,24.104L58.353,24.104z"/>
<path fill-rule="evenodd" clip-rule="evenodd" fill="#2E2C2C" d="M53.485,26.209c0.838,0.737,0.858,2.21,1.002,2.394
	c0.409,0.572,1.309-0.04,1.002-0.103C54.999,28.439,54.263,26.947,53.485,26.209L53.485,26.209z"/>
<path fill-rule="evenodd" clip-rule="evenodd" fill="#FFFFFF" d="M59.293,33.388c-0.225,0.021-0.511,0.163-0.511,0.41
	c0,0.164-0.021,0.184,0,0.307c0.061,0.225,0.204,0.941,0.409,0.981c0.368,0.041,0.593,0.082,0.879-0.062
	c0.164-0.081,0.327-0.328,0.348-0.511c0.02-0.164,0.102-0.268,0-0.45c-0.102-0.205-0.307-0.409-0.512-0.513
	C59.662,33.409,59.579,33.347,59.293,33.388L59.293,33.388z"/>
<path fill-rule="evenodd" clip-rule="evenodd" fill="#FFFFFF" d="M34.854,35.802c-0.246,0.021-0.512,0.163-0.512,0.408
	c0,0.163-0.042,0.184,0,0.308c0.04,0.205,0.184,0.939,0.408,0.961c0.348,0.061,0.572,0.102,0.86-0.041
	c0.183-0.103,0.327-0.327,0.348-0.511c0.04-0.185,0.102-0.266,0-0.449c-0.082-0.205-0.307-0.411-0.49-0.513
	C35.222,35.823,35.12,35.76,34.854,35.802L34.854,35.802z"/>
<path fill-rule="evenodd" clip-rule="evenodd" fill="#2E2C2C" d="M52.974,24.574c1.759-0.858,4.582-0.122,5.011-0.244
	c1.247-0.328,0.572-1.31-0.614-1.638C55.878,22.284,53.505,22.713,52.974,24.574L52.974,24.574z"/>
<path fill-rule="evenodd" clip-rule="evenodd" fill="#2E2C2C" d="M40.11,27.519c-1.759-0.838-4.581-0.123-5.011-0.245
	c-1.248-0.307-0.573-1.31,0.614-1.637C37.206,25.229,39.578,25.678,40.11,27.519L40.11,27.519z"/>
<path fill-rule="evenodd" clip-rule="evenodd" fill="#F9A366" d="M61.915,6.748C60.973,6.83,59.91,7.38,59.91,8.342
	c0,0.593-0.123,0.674,0,1.186c0.204,0.839,0.757,3.682,1.595,3.804c1.391,0.164,2.292,0.35,3.395-0.204
	c0.695-0.348,1.309-1.309,1.391-2.003c0.103-0.676,0.369-1.044,0-1.78c-0.388-0.797-1.227-1.574-1.983-2.005
	C63.326,6.787,62.978,6.542,61.915,6.748L61.915,6.748z"/>
<path fill-rule="evenodd" clip-rule="evenodd" fill="#2E2C2C" d="M27.911,0.08c1.063,0.082,2.25,0.694,2.25,1.778
	c0,0.694,0.143,0.778,0,1.351c-0.206,0.939-0.838,4.15-1.8,4.274c-1.554,0.204-2.557,0.408-3.805-0.226
	c-0.797-0.388-1.473-1.473-1.575-2.25c-0.102-0.776-0.429-1.186,0-2.024c0.451-0.88,1.391-1.758,2.25-2.229
	C26.314,0.12,26.703-0.147,27.911,0.08L27.911,0.08z"/>
<path fill="none" stroke="#2E2C2C" stroke-width="0" stroke-linecap="square" stroke-miterlimit="10" d="M27.911,0.08
	c1.063,0.082,2.25,0.694,2.25,1.778c0,0.694,0.143,0.778,0,1.351c-0.206,0.939-0.838,4.15-1.8,4.274
	c-1.554,0.204-2.557,0.408-3.805-0.226c-0.797-0.388-1.473-1.473-1.575-2.25c-0.102-0.776-0.429-1.186,0-2.024
	c0.451-0.88,1.391-1.758,2.25-2.229C26.314,0.12,26.703-0.147,27.911,0.08L27.911,0.08z"/>
<path fill-rule="evenodd" clip-rule="evenodd" fill="#F9A366" d="M28.052,0.488c0.941,0.082,2.006,0.634,2.006,1.595
	c0,0.613,0.102,0.696,0,1.208c-0.205,0.816-0.758,3.68-1.596,3.783c-1.391,0.184-2.291,0.348-3.395-0.204
	c-0.715-0.35-1.309-1.311-1.391-1.984c-0.102-0.694-0.389-1.063,0-1.8c0.389-0.798,1.227-1.574,1.983-2.005
	C26.622,0.549,26.99,0.284,28.052,0.488L28.052,0.488z"/>
<path fill="none" stroke="#2E2C2C" stroke-width="0" stroke-linecap="square" stroke-miterlimit="10" d="M28.052,0.488
	c0.941,0.082,2.006,0.634,2.006,1.595c0,0.613,0.102,0.696,0,1.208c-0.205,0.816-0.758,3.68-1.596,3.783
	c-1.391,0.184-2.291,0.348-3.395-0.204c-0.715-0.35-1.309-1.311-1.391-1.984c-0.102-0.694-0.389-1.063,0-1.8
	c0.389-0.798,1.227-1.574,1.983-2.005C26.622,0.549,26.99,0.284,28.052,0.488L28.052,0.488z"/>
</svg>
