<?xml version="1.0" encoding="utf-8"?>
<!-- Generator: Adobe Illustrator 13.0.0, SVG Export Plug-In . SVG Version: 6.00 Build 14948)  -->
<!DOCTYPE svg PUBLIC "-//W3C//DTD SVG 1.1//EN" "http://www.w3.org/Graphics/SVG/1.1/DTD/svg11.dtd">
<svg version="1.1" id="Layer_1" xmlns="http://www.w3.org/2000/svg" xmlns:xlink="http://www.w3.org/1999/xlink" x="0px" y="0px"
	 width="118.988px" height="112.763px" viewBox="0 0 118.988 112.763" enable-background="new 0 0 118.988 112.763"
	 xml:space="preserve">
<path fill-rule="evenodd" clip-rule="evenodd" fill="#EAC994" d="M86.721,105.79c-4.035,6.527,11.072,6.088,12.264-0.402
	C100.103,99.21,88.224,105.571,86.721,105.79L86.721,105.79z"/>
<path fill-rule="evenodd" clip-rule="evenodd" fill="#FFE0B6" d="M86.94,105.479c-3.685,5.958,10.083,5.554,11.165-0.367
	C99.131,99.485,88.296,105.277,86.94,105.479L86.94,105.479z"/>
<path fill-rule="evenodd" clip-rule="evenodd" fill="#EAC994" d="M92.202,102.106c-3.429,6.709,5.664,10.247,10.762,9.954
	c4.234-0.257,11.311,0.257,14.172-3.482c1.704-2.237,2.162-5.629,0.477-8.635c-2.348-4.126-7.628-4.547-12.669-3.833
	c-3.209,0.458-4.987,1.266-7.718,2.549C95.135,99.649,93.265,101.135,92.202,102.106L92.202,102.106z"/>
<path fill-rule="evenodd" clip-rule="evenodd" fill="#FFE0B6" d="M92.606,101.942c-3.282,6.544,5.462,10.027,10.357,9.732
	c4.052-0.218,10.854,0.276,13.585-3.354c1.631-2.182,2.07-5.501,0.439-8.416c-2.256-4.051-7.333-4.472-12.174-3.776
	c-3.06,0.439-4.767,1.229-7.388,2.475C95.411,99.558,93.631,100.987,92.606,101.942L92.606,101.942z"/>
<path fill-rule="evenodd" clip-rule="evenodd" fill="#EAC994" d="M34.742,91.991c0,4.456,5.334,9.975-0.459,13.2
	c-2.512,1.394-7.957,1.797-9.809,0c-1.777-1.761-0.531-4.839,0-7.389c0.624-2.877,0.826-9.807,2.512-11.842
	c1.632-1.962,2.896-1.247,4.327,1.119C32.156,88.473,35.309,91.662,34.742,91.991L34.742,91.991z"/>
<path fill-rule="evenodd" clip-rule="evenodd" fill="#FFE0B6" d="M34.118,91.736c0,4.289,5.061,9.624-0.422,12.722
	c-2.383,1.34-7.516,1.742-9.258,0c-1.705-1.705-0.514-4.675,0-7.112c0.568-2.786,0.77-9.46,2.366-11.421
	c1.539-1.889,2.731-1.211,4.087,1.081C31.679,88.345,34.667,91.425,34.118,91.736L34.118,91.736z"/>
<path fill-rule="evenodd" clip-rule="evenodd" fill="#EAC994" d="M18.534,70.635C21.707,77.49,6.491,85.704,2.878,89.315
	c-10.522,10.541,15.308,24.529,22.586,11.294c2.035-3.686,3.281-2.678,3.281-7.389c0-5.885,1.027-6.782-3.482-11.294
	C22.77,79.436,21.23,71.313,18.534,70.635L18.534,70.635z"/>
<path fill-rule="evenodd" clip-rule="evenodd" fill="#FFE0B6" d="M19.47,71.496c3.152,6.563-12.576,14.85-16.151,18.296
	c-10.449,10.083,14.74,22.439,21.54,10.817c2.054-3.502,3.887-3.796,3.887-8.323c0-5.629,1.027-6.49-3.445-10.817
	C22.825,79.086,22.165,72.139,19.47,71.496L19.47,71.496z"/>
<path fill-rule="evenodd" clip-rule="evenodd" fill="#2E2C2C" d="M8.99,14.623c-0.295,0.035-1.76,2.676-1.778,3.574
	c0,1.632-0.312,2.09,0.256,3.63c0.605,1.687,2.292,3.281,4.582,3.482c2.66,0.221,3.926-5.225,3.631-7.332
	c-0.128-0.844-1.174-3.429-2.475-3.19c-0.238,0.036-2.017-0.33-2.273-0.349C10.456,14.402,8.916,14.273,8.99,14.623L8.99,14.623z"/>
<path fill-rule="evenodd" clip-rule="evenodd" fill="#FFFFFF" d="M9.082,15.374c-0.275,0.036-1.596,2.42-1.596,3.207
	c-0.019,1.486-0.293,1.907,0.221,3.283c0.549,1.521,2.053,2.95,4.124,3.135c2.384,0.2,3.539-4.693,3.263-6.601
	c-0.108-0.752-1.043-3.099-2.218-2.878c-0.22,0.037-1.814-0.294-2.054-0.313C10.401,15.172,9.027,15.063,9.082,15.374L9.082,15.374z
	"/>
<path fill-rule="evenodd" clip-rule="evenodd" fill="#4AB1E0" d="M11.08,24.98c5.407,0.86,2.75-7.792-0.479-6.839
	c-1.099,0.331-1.594,0.257-2.418,1.138c-1.027,1.081-0.037,3.189,0.477,3.794c0.514,0.605,0.622,1.082,1.392,1.503
	C10.401,24.761,11.849,25.272,11.08,24.98L11.08,24.98z"/>
<path fill-rule="evenodd" clip-rule="evenodd" fill="#2E2C2C" d="M11.17,24.814c-0.549,0.019-1.283-0.55-1.649-0.751
	c-1.118-0.605-1.118-1.65-0.605-2.988c0.348-0.88,1.211-1.045,2.109-1.045c1.356-0.037,1.759,0.752,2.199,1.595
	c0.221,0.403,0.403,1.229,0.221,1.706c-0.44,1.117-0.166,1.465-1.267,1.557C12.491,25.017,11.462,24.814,11.17,24.814L11.17,24.814z
	"/>
<path fill-rule="evenodd" clip-rule="evenodd" fill="#FFFFFF" d="M12.894,23.128c-0.238,0-0.568-0.238-0.733-0.33
	c-0.495-0.274-0.514-0.715-0.293-1.265c0.146-0.366,0.531-0.421,0.916-0.421c0.606,0.018,0.788,0.348,0.99,0.695
	c0.11,0.184,0.201,0.533,0.11,0.716c-0.184,0.477-0.055,0.624-0.531,0.642C13.482,23.219,13.023,23.128,12.894,23.128L12.894,23.128
	z"/>
<path fill-rule="evenodd" clip-rule="evenodd" fill="#2E2C2C" d="M14.435,12.404c0.036-0.148-0.074-0.386-0.366-0.496
	c-0.166-0.055-0.185-0.092-0.35-0.129c-0.258-0.073-1.119-0.311-1.211-0.183c-0.127,0.183-0.22,0.312-0.127,0.551
	c0.073,0.146,0.312,0.349,0.513,0.44s0.293,0.164,0.532,0.2c0.256,0.02,0.531-0.018,0.696-0.09
	C14.342,12.624,14.435,12.588,14.435,12.404L14.435,12.404z"/>
<path fill="none" stroke="#2E2C2C" stroke-width="0" stroke-linecap="square" stroke-miterlimit="10" d="M14.435,12.404
	c0.036-0.148-0.074-0.386-0.366-0.496c-0.166-0.055-0.185-0.092-0.35-0.129c-0.258-0.073-1.119-0.311-1.211-0.183
	c-0.127,0.183-0.22,0.312-0.127,0.551c0.073,0.146,0.312,0.349,0.513,0.44s0.293,0.164,0.532,0.2c0.256,0.02,0.531-0.018,0.696-0.09
	C14.342,12.624,14.435,12.588,14.435,12.404L14.435,12.404z"/>
<path fill-rule="evenodd" clip-rule="evenodd" fill="#2E2C2C" d="M5.78,11.615c-0.108,0.898,0.588,1.724,1.284,2.292
	c0.459,0.366,0.898,0.77,1.485,0.936c0.092,0.018-0.092,0.384-0.129,0.365c-0.531-0.439-1.356-0.696-1.76-1.228
	c-0.275-0.348-0.494-0.697-0.733-1.082C5.652,12.44,5.817,12.074,5.78,11.615L5.78,11.615z"/>
<path fill="none" stroke="#2E2C2C" stroke-width="0" stroke-linecap="square" stroke-miterlimit="10" d="M5.78,11.615
	c-0.108,0.898,0.588,1.724,1.284,2.292c0.459,0.366,0.898,0.77,1.485,0.936c0.092,0.018-0.092,0.384-0.129,0.365
	c-0.531-0.439-1.356-0.696-1.76-1.228c-0.275-0.348-0.494-0.697-0.733-1.082C5.652,12.44,5.817,12.074,5.78,11.615L5.78,11.615z"/>
<path fill-rule="evenodd" clip-rule="evenodd" fill="#2E2C2C" d="M9.044,10.734c-0.55,0.734-0.331,1.779,0,2.641
	c0.219,0.532,0.403,1.082,0.843,1.522c0.073,0.073-0.293,0.292-0.293,0.256c-0.258-0.642-0.844-1.265-0.935-1.925
	c-0.073-0.44-0.092-0.844-0.11-1.302C8.531,11.377,8.861,11.139,9.044,10.734L9.044,10.734z"/>
<path fill="none" stroke="#2E2C2C" stroke-width="0" stroke-linecap="square" stroke-miterlimit="10" d="M9.044,10.734
	c-0.55,0.734-0.331,1.779,0,2.641c0.219,0.532,0.403,1.082,0.843,1.522c0.073,0.073-0.293,0.292-0.293,0.256
	c-0.258-0.642-0.844-1.265-0.935-1.925c-0.073-0.44-0.092-0.844-0.11-1.302C8.531,11.377,8.861,11.139,9.044,10.734L9.044,10.734z"
	/>
<path fill-rule="evenodd" clip-rule="evenodd" fill="#2E2C2C" d="M11.189,10.753c-0.751,0.514-0.917,1.577-0.88,2.494
	c0.019,0.568,0.019,1.155,0.275,1.705c0.054,0.092-0.349,0.183-0.367,0.146c-0.019-0.695-0.366-1.465-0.238-2.126
	c0.092-0.421,0.201-0.824,0.349-1.247C10.474,11.192,10.859,11.084,11.189,10.753L11.189,10.753z"/>
<path fill="none" stroke="#2E2C2C" stroke-width="0" stroke-linecap="square" stroke-miterlimit="10" d="M11.189,10.753
	c-0.751,0.514-0.917,1.577-0.88,2.494c0.019,0.568,0.019,1.155,0.275,1.705c0.054,0.092-0.349,0.183-0.367,0.146
	c-0.019-0.695-0.366-1.465-0.238-2.126c0.092-0.421,0.201-0.824,0.349-1.247C10.474,11.192,10.859,11.084,11.189,10.753
	L11.189,10.753z"/>
<path fill-rule="evenodd" clip-rule="evenodd" fill="#EAC994" d="M3.654,33.064c2.55,1.706,2.843,1.613,3.392,4.582
	c1.633,8.801,12.521,12.725,11.293,22.532c-0.732,5.831-3.006,7.829,4.602,7.15c10.102-0.898,10.339-0.898,14.227-10.761
	c3.722-9.461,19.873-14.227,15.198-28.986c-3.776-11.915-5.372-15.397-14.574-22.934c-9.718-3.61-26.786-2.291-27.793,9.735
	c-0.348,4.197,3.429,7.462-1.394,9.771C6.459,25.199,1.73,27.547,3.654,33.064L3.654,33.064z"/>
<path fill-rule="evenodd" clip-rule="evenodd" fill="#FFE0B6" d="M3.892,32.625c0.166,0.99,1.705,1.245,2.53,2.034
	c0.733,0.698,0.752,1.687,1.009,3.044c1.596,8.543,12.173,12.356,10.981,21.908c-0.697,5.664-2.914,7.606,4.473,6.948
	c9.827-0.882,10.064-0.882,13.841-10.47c3.612-9.203,19.342-13.84,14.777-28.194c-3.667-11.587-5.225-14.979-14.172-22.293
	c-9.441-3.52-26.051-2.236-27.022,9.46c-0.349,4.088,2.53,8.488-3.722,10.742C4.9,26.41,2.867,29.454,3.892,32.625L3.892,32.625z"/>
<path fill-rule="evenodd" clip-rule="evenodd" fill="#2E2C2C" d="M39.331,29.417c-0.11-1.798,0.897-4.75,0.366-5.959
	c-1.87-4.308-2.53-5.903-7.7-6.452c-2.476-0.257-3.979,0.972-5.536,2.676c-3.317,3.612-1.632,7.26,2.896,9.057
	c1.394,0.532,4.62,1.576,5.757,1.356C35.517,30.021,40.393,30.021,39.331,29.417L39.331,29.417z"/>
<path fill-rule="evenodd" clip-rule="evenodd" fill="#A38458" d="M5.542,34.036c0.221,0.66,0.697,1.338,1.87,1.798
	c5.316,2.089,10.889,7.479,16.628,7.516c6.307,0.055,6.545-1.704,11.477-3.85c0.954-0.403,3.703-3.612,1.43-1.613
	c-5.391,4.73-10.102,7.57-16.005,5.242c-3.336-1.302-5.701-2.236-8.727-3.905C10.438,38.233,4.827,34.477,5.542,34.036L5.542,34.036
	z"/>
<path fill-rule="evenodd" clip-rule="evenodd" fill="#FFFFFF" d="M38.249,29.215c-0.092-1.668,0.843-4.437,0.348-5.555
	c-1.741-4.016-2.365-5.519-7.187-6.014c-2.31-0.238-3.721,0.898-5.17,2.493c-3.097,3.355-1.521,6.766,2.715,8.435
	c1.282,0.512,4.308,1.467,5.37,1.264C34.691,29.765,39.239,29.765,38.249,29.215L38.249,29.215z"/>
<path fill-rule="evenodd" clip-rule="evenodd" fill="#4AB1E0" d="M31.759,29.509c-1.045,0-2.421-1.027-3.136-1.395
	c-2.109-1.136-2.163-3.006-1.246-5.354c0.622-1.557,2.236-1.777,3.887-1.777c2.547,0.018,3.336,1.43,4.198,2.951
	c0.421,0.716,0.824,2.201,0.494,3.025c-0.789,1.979-0.237,2.603-2.291,2.713C34.252,29.912,32.309,29.509,31.759,29.509
	L31.759,29.509z"/>
<path fill-rule="evenodd" clip-rule="evenodd" fill="#2E2C2C" d="M30.805,28.701c-0.642,0-1.503-0.641-1.942-0.861
	c-1.321-0.714-1.34-1.87-0.771-3.318c0.387-0.971,1.375-1.1,2.402-1.1c1.577,0.018,2.071,0.879,2.603,1.814
	c0.257,0.458,0.496,1.376,0.294,1.89c-0.478,1.227-0.147,1.612-1.411,1.686C32.344,28.959,31.135,28.701,30.805,28.701
	L30.805,28.701z"/>
<path fill-rule="evenodd" clip-rule="evenodd" fill="#FFFFFF" d="M33.445,27.033c-0.293,0-0.659-0.275-0.843-0.367
	c-0.568-0.311-0.587-0.807-0.33-1.43c0.165-0.422,0.586-0.476,1.027-0.476c0.695,0,0.898,0.385,1.136,0.788
	c0.109,0.183,0.221,0.587,0.129,0.807c-0.221,0.531-0.074,0.696-0.624,0.733C34.106,27.145,33.592,27.033,33.445,27.033
	L33.445,27.033z"/>
<path fill-rule="evenodd" clip-rule="evenodd" fill="#BBED72" d="M29.577,0.945c5.408,3.466,10.854-1.724,16.078-0.843
	c4.253,0.733,3.007,7.627,2.842,10.761c-0.092,1.633-0.33,3.154,0.366,4.382c0.495,0.88,1.943,1.688,1.119,1.669
	C43.583,16.656,33.848,10.497,30.53,4.74c-0.604-1.082-1.559-2.071-1.778-3.244C28.239-1.034,29.063,0.507,29.577,0.945
	L29.577,0.945z"/>
<path fill-rule="evenodd" clip-rule="evenodd" fill="#2E2C2C" d="M8.971,34.623c0.165-0.019-0.185-0.403-0.33-0.532
	c-0.092-0.092-0.092-0.092-0.202-0.165c-0.165-0.109-0.714-0.495-0.897-0.495c-0.295-0.035-0.478-0.054-0.587,0.019
	c-0.074,0.056-0.037,0.166,0.055,0.258c0.092,0.091,0.092,0.146,0.293,0.237c0.202,0.11,0.605,0.495,0.808,0.568
	C8.384,34.587,8.806,34.642,8.971,34.623L8.971,34.623z"/>
<path fill="none" stroke="#2E2C2C" stroke-width="0" stroke-linecap="square" stroke-miterlimit="10" d="M8.971,34.623
	c0.165-0.019-0.185-0.403-0.33-0.532c-0.092-0.092-0.092-0.092-0.202-0.165c-0.165-0.109-0.714-0.495-0.897-0.495
	c-0.295-0.035-0.478-0.054-0.587,0.019c-0.074,0.056-0.037,0.166,0.055,0.258c0.092,0.091,0.092,0.146,0.293,0.237
	c0.202,0.11,0.605,0.495,0.808,0.568C8.384,34.587,8.806,34.642,8.971,34.623L8.971,34.623z"/>
<path fill="#A38458" d="M39.921,38.309c-0.258-0.733-1.083-1.063-1.834-1.228c-0.458-0.092-0.935-0.239-1.43-0.129
	c-0.092,0.019-0.092-0.33-0.055-0.312c0.568,0.11,1.265-0.019,1.777,0.238c0.33,0.146,0.624,0.33,0.936,0.513
	C39.719,37.631,39.737,37.979,39.921,38.309L39.921,38.309z"/>
<path fill-rule="evenodd" clip-rule="evenodd" fill="#2E2C2C" d="M34.508,13.778c0.019-0.146-0.073-0.366-0.366-0.476
	c-0.165-0.074-0.185-0.111-0.348-0.148c-0.258-0.054-1.137-0.292-1.211-0.183c-0.129,0.203-0.239,0.312-0.129,0.551
	c0.056,0.146,0.312,0.348,0.514,0.439s0.294,0.185,0.532,0.201c0.256,0.037,0.531-0.017,0.697-0.072
	C34.416,13.999,34.508,13.98,34.508,13.778L34.508,13.778z"/>
<path fill="none" stroke="#2E2C2C" stroke-width="0" stroke-linecap="square" stroke-miterlimit="10" d="M34.508,13.778
	c0.019-0.146-0.073-0.366-0.366-0.476c-0.165-0.074-0.185-0.111-0.348-0.148c-0.258-0.054-1.137-0.292-1.211-0.183
	c-0.129,0.203-0.239,0.312-0.129,0.551c0.056,0.146,0.312,0.348,0.514,0.439s0.294,0.185,0.532,0.201
	c0.256,0.037,0.531-0.017,0.697-0.072C34.416,13.999,34.508,13.98,34.508,13.778L34.508,13.778z"/>
<path fill-rule="evenodd" clip-rule="evenodd" fill="#2E2C2C" d="M24.866,18.912c-1.192,0.512-1.669,1.98-1.852,3.245
	c-0.111,0.807-0.275,1.631-0.037,2.456c0.055,0.147-0.55,0.183-0.532,0.128c0.148-0.973-0.164-2.145,0.185-3.024
	c0.237-0.587,0.477-1.1,0.77-1.668C23.765,19.351,24.333,19.279,24.866,18.912L24.866,18.912z"/>
<path fill="none" stroke="#2E2C2C" stroke-width="0" stroke-linecap="square" stroke-miterlimit="10" d="M24.866,18.912
	c-1.192,0.512-1.669,1.98-1.852,3.245c-0.111,0.807-0.275,1.631-0.037,2.456c0.055,0.147-0.55,0.183-0.532,0.128
	c0.148-0.973-0.164-2.145,0.185-3.024c0.237-0.587,0.477-1.1,0.77-1.668C23.765,19.351,24.333,19.279,24.866,18.912L24.866,18.912z"
	/>
<path fill-rule="evenodd" clip-rule="evenodd" fill="#2E2C2C" d="M42.795,25.786c0.678-1.099,0.256-2.567-0.331-3.721
	c-0.366-0.732-0.696-1.504-1.356-2.054c-0.129-0.091,0.35-0.459,0.385-0.403c0.423,0.88,1.34,1.669,1.559,2.604
	c0.128,0.605,0.221,1.173,0.294,1.814C43.455,24.796,43.033,25.181,42.795,25.786L42.795,25.786z"/>
<path fill="none" stroke="#2E2C2C" stroke-width="0" stroke-linecap="square" stroke-miterlimit="10" d="M42.795,25.786
	c0.678-1.099,0.256-2.567-0.331-3.721c-0.366-0.732-0.696-1.504-1.356-2.054c-0.129-0.091,0.35-0.459,0.385-0.403
	c0.423,0.88,1.34,1.669,1.559,2.604c0.128,0.605,0.221,1.173,0.294,1.814C43.455,24.796,43.033,25.181,42.795,25.786L42.795,25.786z
	"/>
<path fill-rule="evenodd" clip-rule="evenodd" fill="#A38458" d="M19.017,44.414c-2.549-0.185-7.81-3.21-8.066-3.906
	c0.696,0.53,1.889,2.55,2.86,2.987C15.222,44.119,17.477,44.138,19.017,44.414L19.017,44.414z"/>
<path fill-rule="evenodd" clip-rule="evenodd" fill="#2E2C2C" d="M26.295,13.705c-0.128,0.972,0.623,1.853,1.375,2.475
	c0.477,0.385,0.953,0.826,1.596,0.99c0.109,0.037-0.11,0.422-0.147,0.403c-0.568-0.477-1.448-0.751-1.889-1.319
	c-0.292-0.386-0.531-0.752-0.77-1.156C26.148,14.586,26.314,14.2,26.295,13.705L26.295,13.705z"/>
<path fill="none" stroke="#2E2C2C" stroke-width="0" stroke-linecap="square" stroke-miterlimit="10" d="M26.295,13.705
	c-0.128,0.972,0.623,1.853,1.375,2.475c0.477,0.385,0.953,0.826,1.596,0.99c0.109,0.037-0.11,0.422-0.147,0.403
	c-0.568-0.477-1.448-0.751-1.889-1.319c-0.292-0.386-0.531-0.752-0.77-1.156C26.148,14.586,26.314,14.2,26.295,13.705L26.295,13.705
	z"/>
<path fill-rule="evenodd" clip-rule="evenodd" fill="#2E2C2C" d="M29.375,12.752c-0.587,0.789-0.367,1.925,0,2.841
	c0.22,0.569,0.422,1.174,0.898,1.632c0.073,0.092-0.313,0.33-0.329,0.295c-0.258-0.697-0.899-1.357-0.99-2.072
	c-0.074-0.477-0.092-0.917-0.11-1.394C28.807,13.467,29.156,13.191,29.375,12.752L29.375,12.752z"/>
<path fill="none" stroke="#2E2C2C" stroke-width="0" stroke-linecap="square" stroke-miterlimit="10" d="M29.375,12.752
	c-0.587,0.789-0.367,1.925,0,2.841c0.22,0.569,0.422,1.174,0.898,1.632c0.073,0.092-0.313,0.33-0.329,0.295
	c-0.258-0.697-0.899-1.357-0.99-2.072c-0.074-0.477-0.092-0.917-0.11-1.394C28.807,13.467,29.156,13.191,29.375,12.752
	L29.375,12.752z"/>
<path fill-rule="evenodd" clip-rule="evenodd" fill="#2E2C2C" d="M32.107,12.788c-0.825,0.532-0.99,1.688-0.953,2.659
	c0.036,0.622,0.019,1.265,0.312,1.852c0.036,0.109-0.403,0.2-0.403,0.146c-0.019-0.733-0.403-1.559-0.257-2.273
	c0.091-0.477,0.22-0.898,0.367-1.356C31.337,13.266,31.759,13.119,32.107,12.788L32.107,12.788z"/>
<path fill="none" stroke="#2E2C2C" stroke-width="0" stroke-linecap="square" stroke-miterlimit="10" d="M32.107,12.788
	c-0.825,0.532-0.99,1.688-0.953,2.659c0.036,0.622,0.019,1.265,0.312,1.852c0.036,0.109-0.403,0.2-0.403,0.146
	c-0.019-0.733-0.403-1.559-0.257-2.273c0.091-0.477,0.22-0.898,0.367-1.356C31.337,13.266,31.759,13.119,32.107,12.788
	L32.107,12.788z"/>
<path fill-rule="evenodd" clip-rule="evenodd" fill="#652D90" d="M78.056,52.404c-9.44-3.981-19.369-3.981-29.277-3.011
	c-8.637,0.842-15.647,7.068-22.545,11.929c-6.413,4.486-13.722-0.411-9.946,6.375c20.583,36.904,45.28,45.653,85.455,33.652
	c3.927-1.16,9.741-4.882,11.854-7.274c1.383-1.551-3.029-2.58-5.854-5.775c-5.215-5.909-4.243-16.864-13.796-23.93L78.056,52.404z"
	/>
<path fill-rule="evenodd" clip-rule="evenodd" fill="#CC69C7" d="M65.418,50.011c-5.328-2.244-14.003,0.803-19.481,0.467
	c-4.785-0.281-7.123,3.87-5.458,8.04c3.251,8.207,9.421,4.356,12.693-0.056c2.506-3.384,4.244-2.376,7.124-4.394
	c0.822-0.58,2.521-1.178,3.494-1.871C63.98,52.069,66.69,50.235,65.418,50.011L65.418,50.011z"/>
<path fill-rule="evenodd" clip-rule="evenodd" fill="#CC69C7" d="M70.524,51.62c-4.694-0.654-13.256,4.729-17.126,8.636
	c-4.898,4.955-3.702,7.311,2.056,10.414c3.776,2.038,8.376,3.794,12.061,5.646c4.354,2.188,4.242-10.114,4.822-13.441
	C73.159,58.144,75.814,52.367,70.524,51.62L70.524,51.62z"/>
<path fill-rule="evenodd" clip-rule="evenodd" fill="#CC69C7" d="M48.181,67.697c-5.59-2.992-9.795-8.918-11.965-10.618
	c-1.141-0.899-10.264,5.627-10.487,6.094c-1.346,2.674-0.786,6.281,1.402,9.067c2.262,2.86,8.075,10.842,11.984,8.095
	c2.635-1.851,2.484-4.188,3.999-6.712C43.676,72.708,49.379,68.276,48.181,67.697L48.181,67.697z"/>
<path fill-rule="evenodd" clip-rule="evenodd" fill="#CC69C7" d="M67.68,79.344c-1.495-2.637-16.002-9.553-18.806-8.413
	c-5.833,2.357-4.637,6.001-7.797,10.282C36.59,87.29,53.061,91.515,57.436,93.59C64.914,97.142,66.953,83.532,67.68,79.344
	L67.68,79.344z"/>
<path fill-rule="evenodd" clip-rule="evenodd" fill="#CC69C7" d="M75.011,53.189c0.11,7.684-1.722,15.107-3.722,22.715
	c-1.684,6.431,8.806,1.981,11.778,2.243c1.887,0.169,8.748,1.384,8.095-1.925c-0.523-2.692-1.833-4.618-2.448-7.144
	c-0.806-3.196-5.049-9.551-7.272-11.852c-1.385-1.421-2.226-3.384-3.723-4C76.187,52.591,75.046,52.125,75.011,53.189L75.011,53.189
	z"/>
<path fill-rule="evenodd" clip-rule="evenodd" fill="#CC69C7" d="M82.132,56.293c0.561-0.393,1.327,0.636,1.813,0.99
	c1.401,1.047,3.085,2.113,4.543,3.31c2.523,2.075,4.991,4.226,7.796,6.468c2.71,2.188,3.084,4.375,4.02,6.713
	c1.177,2.897-4.767,5.271-7.216,4.543c-1.047-0.3-2.356-10.694-4.524-13.125c-1.253-1.401-4.656-6.843-6.356-8.039
	C82.469,57.62,81.814,56.518,82.132,56.293L82.132,56.293z"/>
<path fill-rule="evenodd" clip-rule="evenodd" fill="#CC69C7" d="M70.298,80.503c-1.926-0.188-4.058,8.058-4.394,9.982
	c-0.561,3.292-1.925,4.955,2.524,5.74c9.028,1.59,24.378,3.327,22.471-9.479c-0.841-5.646-1.868-8.3-8.169-6.711
	c-2.413,0.617-5.048,0.131-7.516,0.617C74.617,80.783,70.28,80.672,70.298,80.503L70.298,80.503z"/>
<path fill-rule="evenodd" clip-rule="evenodd" fill="#CC69C7" d="M91.255,80.466c0.169,3.159,1.01,6.021,1.215,8.021
	c0.243,2.147-0.168,2.204,0,4.373c0.243,2.937,8.468,0.318,9.871-0.936c3.011-2.653,2.096-7.908,0.3-11.796
	c-0.822-1.795-0.785-3.234-3.422-2.188C98.23,78.334,91.63,80.335,91.255,80.466L91.255,80.466z"/>
<path fill-rule="evenodd" clip-rule="evenodd" fill="#CC69C7" d="M21.708,64.631c-4.73,0.972-5.944-1.514-3.047,3.684
	c14.359,27.967,44.458,52.439,92.656,27.033c1.457-0.767-0.17-2.338-2.675-4.245c-1.756,0.991-3.402,2.058-4.917,2.525
	c-19.835,5.925-32.773,6.486-48.927,0.561C37.208,87.738,31.43,80.653,21.708,64.631L21.708,64.631z"/>
<path fill-rule="evenodd" clip-rule="evenodd" fill="#2E2C2C" d="M12.528,10.331c0.037-0.146-0.073-0.365-0.367-0.476
	c-0.166-0.074-0.183-0.109-0.349-0.146c-0.256-0.056-1.119-0.294-1.211-0.184c-0.127,0.202-0.219,0.312-0.127,0.55
	c0.074,0.147,0.312,0.349,0.514,0.44c0.201,0.092,0.293,0.184,0.53,0.202c0.258,0.035,0.531-0.019,0.697-0.074
	C12.436,10.552,12.528,10.516,12.528,10.331L12.528,10.331z"/>
<path fill="none" stroke="#2E2C2C" stroke-width="0" stroke-linecap="square" stroke-miterlimit="10" d="M12.528,10.331
	c0.037-0.146-0.073-0.365-0.367-0.476c-0.166-0.074-0.183-0.109-0.349-0.146c-0.256-0.056-1.119-0.294-1.211-0.184
	c-0.127,0.202-0.219,0.312-0.127,0.55c0.074,0.147,0.312,0.349,0.514,0.44c0.201,0.092,0.293,0.184,0.53,0.202
	c0.258,0.035,0.531-0.019,0.697-0.074C12.436,10.552,12.528,10.516,12.528,10.331L12.528,10.331z"/>
<path fill-rule="evenodd" clip-rule="evenodd" fill="#515151" d="M2.127,95.585c-0.036-0.165-0.221-0.329-0.531-0.329
	c-0.184,0.019-0.203,0-0.368,0.019c-0.256,0.037-1.154,0.146-1.19,0.293C0,95.788-0.054,95.952,0.129,96.117
	c0.11,0.11,0.422,0.201,0.641,0.22c0.221,0,0.331,0.055,0.568-0.019c0.239-0.072,0.477-0.219,0.624-0.348
	C2.127,95.805,2.2,95.751,2.127,95.585L2.127,95.585z"/>
<path fill-rule="evenodd" clip-rule="evenodd" fill="#2E2C2C" d="M5.335,101.524c-0.073-0.183-0.348-0.366-0.751-0.293
	c-0.239,0.056-0.295,0.037-0.495,0.11c-0.33,0.111-1.485,0.459-1.485,0.661c-0.019,0.311-0.037,0.512,0.237,0.695
	c0.185,0.129,0.605,0.184,0.898,0.147c0.294-0.056,0.458-0.019,0.734-0.166c0.311-0.145,0.585-0.384,0.732-0.585
	C5.39,101.837,5.482,101.745,5.335,101.524L5.335,101.524z"/>
<path fill="#515151" stroke="#2E2C2C" stroke-width="0" stroke-linecap="square" stroke-miterlimit="10" d="M5.335,101.524
	c-0.073-0.183-0.348-0.366-0.751-0.293c-0.239,0.056-0.295,0.037-0.495,0.11c-0.33,0.111-1.485,0.459-1.485,0.661
	c-0.019,0.311-0.037,0.512,0.237,0.695c0.185,0.129,0.605,0.184,0.898,0.147c0.294-0.056,0.458-0.019,0.734-0.166
	c0.311-0.145,0.585-0.384,0.732-0.585C5.39,101.837,5.482,101.745,5.335,101.524L5.335,101.524z"/>
<path fill-rule="evenodd" clip-rule="evenodd" fill="#515151" d="M13.823,104c-0.164-0.019-0.367,0.129-0.439,0.421
	c-0.037,0.185-0.056,0.203-0.074,0.367c-0.037,0.275-0.146,1.155-0.017,1.229c0.219,0.093,0.348,0.184,0.567,0.056
	c0.129-0.092,0.294-0.367,0.367-0.569c0.056-0.219,0.128-0.312,0.109-0.568c0-0.256-0.072-0.514-0.164-0.678
	C14.043,104.055,14.006,103.963,13.823,104L13.823,104z"/>
<path fill="none" stroke="#2E2C2C" stroke-width="0" stroke-linecap="square" stroke-miterlimit="10" d="M13.823,104
	c-0.164-0.019-0.367,0.129-0.439,0.421c-0.037,0.185-0.056,0.203-0.074,0.367c-0.037,0.275-0.146,1.155-0.017,1.229
	c0.219,0.093,0.348,0.184,0.567,0.056c0.129-0.092,0.294-0.367,0.367-0.569c0.056-0.219,0.128-0.312,0.109-0.568
	c0-0.256-0.072-0.514-0.164-0.678C14.043,104.055,14.006,103.963,13.823,104L13.823,104z"/>
<path fill-rule="evenodd" clip-rule="evenodd" fill="#515151" d="M107.069,110.851c-0.127-0.036-0.348,0.037-0.477,0.293
	c-0.091,0.147-0.109,0.166-0.164,0.313c-0.092,0.237-0.403,1.008-0.313,1.099c0.166,0.146,0.275,0.257,0.495,0.184
	c0.146-0.037,0.367-0.258,0.477-0.422c0.092-0.183,0.184-0.257,0.239-0.477c0.055-0.238,0.036-0.495,0-0.66
	C107.271,110.961,107.252,110.888,107.069,110.851L107.069,110.851z"/>
<path fill="none" stroke="#2E2C2C" stroke-width="0" stroke-linecap="square" stroke-miterlimit="10" d="M107.069,110.851
	c-0.127-0.036-0.348,0.037-0.477,0.293c-0.091,0.147-0.109,0.166-0.164,0.313c-0.092,0.237-0.403,1.008-0.313,1.099
	c0.166,0.146,0.275,0.257,0.495,0.184c0.146-0.037,0.367-0.258,0.477-0.422c0.092-0.183,0.184-0.257,0.239-0.477
	c0.055-0.238,0.036-0.495,0-0.66C107.271,110.961,107.252,110.888,107.069,110.851L107.069,110.851z"/>
<path fill-rule="evenodd" clip-rule="evenodd" fill="#515151" d="M112.588,110.063c-0.166,0.108-0.275,0.384-0.148,0.751
	c0.093,0.219,0.074,0.256,0.185,0.439c0.147,0.293,0.659,1.302,0.843,1.265c0.293-0.037,0.478-0.037,0.624-0.329
	c0.073-0.183,0.055-0.587-0.037-0.844c-0.073-0.275-0.073-0.421-0.257-0.679c-0.184-0.256-0.457-0.477-0.659-0.568
	C112.864,109.972,112.772,109.917,112.588,110.063L112.588,110.063z"/>
<path fill="none" stroke="#2E2C2C" stroke-width="0" stroke-linecap="square" stroke-miterlimit="10" d="M112.588,110.063
	c-0.166,0.108-0.275,0.384-0.148,0.751c0.093,0.219,0.074,0.256,0.185,0.439c0.147,0.293,0.659,1.302,0.843,1.265
	c0.293-0.037,0.478-0.037,0.624-0.329c0.073-0.183,0.055-0.587-0.037-0.844c-0.073-0.275-0.073-0.421-0.257-0.679
	c-0.184-0.256-0.457-0.477-0.659-0.568C112.864,109.972,112.772,109.917,112.588,110.063L112.588,110.063z"/>
<path fill-rule="evenodd" clip-rule="evenodd" fill="#2E2C2C" d="M117.281,106.633c-0.074,0.129-0.054,0.368,0.146,0.551
	c0.147,0.128,0.147,0.165,0.276,0.239c0.201,0.146,0.88,0.642,0.988,0.568c0.184-0.11,0.313-0.184,0.294-0.422
	c0-0.165-0.146-0.421-0.294-0.568c-0.146-0.147-0.2-0.257-0.402-0.348c-0.201-0.111-0.458-0.166-0.624-0.166
	C117.446,106.487,117.355,106.487,117.281,106.633L117.281,106.633z"/>
<path fill="#515151" stroke="#2E2C2C" stroke-width="0" stroke-linecap="square" stroke-miterlimit="10" d="M117.281,106.633
	c-0.074,0.129-0.054,0.368,0.146,0.551c0.147,0.128,0.147,0.165,0.276,0.239c0.201,0.146,0.88,0.642,0.988,0.568
	c0.184-0.11,0.313-0.184,0.294-0.422c0-0.165-0.146-0.421-0.294-0.568c-0.146-0.147-0.2-0.257-0.402-0.348
	c-0.201-0.111-0.458-0.166-0.624-0.166C117.446,106.487,117.355,106.487,117.281,106.633L117.281,106.633z"/>
</svg>
