<?xml version="1.0" encoding="utf-8"?>
<!-- Generator: Adobe Illustrator 13.0.0, SVG Export Plug-In . SVG Version: 6.00 Build 14948)  -->
<!DOCTYPE svg PUBLIC "-//W3C//DTD SVG 1.1//EN" "http://www.w3.org/Graphics/SVG/1.1/DTD/svg11.dtd">
<svg version="1.1" id="Layer_1" xmlns="http://www.w3.org/2000/svg" xmlns:xlink="http://www.w3.org/1999/xlink" x="0px" y="0px"
	 width="68.773px" height="117.264px" viewBox="0 0 68.773 117.264" enable-background="new 0 0 68.773 117.264"
	 xml:space="preserve">
<path fill="none" stroke="#FFFFFF" stroke-width="0" stroke-linecap="square" stroke-miterlimit="10" d="M10.128,75.583
	c-4.706,0.337-7.395,0.337-8.067-4.706c0-4.369,0-8.74,0-13.109C0.38,62.474-1.3,75.92,5.422,79.952
	c5.714,3.362,4.033-1.009,5.714-5.378"/>
<path fill="#B0C2CC" d="M10.464,75.92c-2.353,0.335-6.05,0.672-7.395-1.346c-1.008-1.68-1.345-3.361-1.345-5.378
	c0-3.025-0.336-7.396,0.336-10.084c-1.345,4.035-1.345,8.74-0.672,13.109c0.336,3.699,2.353,6.387,5.378,8.068
	c3.361,1.68,3.698-4.034,4.034-5.715c0.336-0.336,1.008,0,0.672,0.336c-0.672,1.682-0.336,6.051-2.689,6.387
	c-2.689,0.672-5.377-2.354-6.722-4.369c-3.025-5.043-2.353-13.781-0.336-19.16c0.336-0.336,0.672-0.336,0.672,0
	c0,3.697,0,7.395,0,11.429c0,5.378,3.025,6.387,7.731,6.05C10.801,75.246,10.801,75.92,10.464,75.92L10.464,75.92z"/>
<path fill="#B0C2CC" d="M29.624,7.347c-4.37,1.008-8.74,4.034-10.42,8.403c-2.353,1.681-4.034,4.37-5.042,7.059
	c-0.672,1.008-2.017,1.344-2.689,2.353c-2.017,2.017-4.034,5.042-2.017,8.067c1.681,1.681,4.37,3.362,5.379,5.714
	c1.008,1.009,1.344,2.353,2.353,3.698c-0.672,0.672-1.681,1.344-2.353,2.689c-1.009,0.336-1.345,1.344-2.017,2.017
	c-0.337,1.008-1.009,1.68-1.345,3.025c-0.336,2.016-1.345,4.033-2.353,6.05c-1.345,4.034-4.706,23.529-2.689,22.185
	c0,2.018,0.672,4.37,0,6.387c-0.672,1.346-0.672,3.697-0.336,5.043c0,3.697,1.009,8.403,0.672,12.101
	c-0.336,0.673-0.336,1.345-1.008,2.017c-1.344,1.344-3.361,5.378-0.336,6.387c1.008,1.008,2.689-0.672,3.698,0.336
	c0.671,0,1.008,0,1.344,0.336c0.336-0.336,0.672,0,1.345,0c0,0.673,0,1.346,0.336,2.018c3.698,0,7.395-0.336,10.757-0.336
	c1.68-0.336,3.025,0,3.697,1.344c1.345-1.68,2.689,0,4.034-0.672c1.008-1.008,2.353,0,3.697-0.336
	c0.672-1.345,1.345,0.336,2.353-0.336c1.009-0.336,1.009-1.346,1.009-2.354c-0.336,0,0-0.336,0-0.672
	c-1.009-1.01-0.336-3.697-2.354-4.034c-0.336,0.337-0.672,0-0.672,0c-0.672-4.706-1.681-9.748-0.672-14.79
	c0.672-3.025,2.689-4.705,3.362-7.395c0.672-1.009,0.336-2.018,1.345-3.025c0-0.336,0.336-0.673,0.336-0.673
	c0.336,0,0.336,0,0.336,0c1.681-0.672,4.033,0.673,4.033,2.689c1.009,1.681,2.017,4.706,2.017,6.387v19.159
	c0,0.336-0.335,0.672-0.335,1.009v4.034c1.008,0.336,2.352,0.336,3.697,0.336l0.336-1.008l0,0c0-2.018,2.354-4.035,4.033-4.035
	c0-0.336,0-0.672,0-1.008c-0.336,0-1.008,0-1.68,0c-0.672-2.354-0.337-5.378-0.337-8.066c0-11.43,0-22.521,0-33.95
	c-1.009-1.345-1.009-3.025-1.009-5.042c1.009,0.672,0,0-0.336-0.337c-1.681-3.025-4.705-7.731,0.336-9.412
	c-0.336-1.344-0.672-2.353-1.008-3.698c0-0.336-0.336-0.336-0.336-0.672v-2.017h-0.336c-0.337-0.672,0.672-0.672,1.008-1.008
	c1.681,0.336,2.018-0.672,3.025-2.017l0.672,1.008c0.336-0.672-0.672-0.672-0.672-1.344s0.336-1.681,0.336-2.689
	c0.672,0,1.008,0.336,1.681,0.672c0-1.008-2.017-0.336-1.681-1.681c0-1.344,0-1.344,1.344-1.344h-1.68
	c-0.336-2.354-1.928-26.213-1.928-28.567c0.672-1.344,12.012,23.524,12.348,21.507c1.009-2.352,3.697-4.706,2.354-7.73
	c-0.673-1.345-1.345-3.025-3.361-3.698c-0.673-0.672-5.043-5.714-5.379-5.714c-0.336-0.672-0.336-1.344-1.344-1.344
	c-1.346-1.345-5.379-2.689-7.396-1.681c-1.008-1.008-2.688-1.344-3.697-2.353c-1.68,0-3.024-0.672-4.369-0.672
	c-2.689-0.672-6.05,0.336-8.404,0.672C30.633,7.011,29.96,7.011,29.624,7.347L29.624,7.347z"/>
<linearGradient id="SVGID_1_" gradientUnits="userSpaceOnUse" x1="5.0859" y1="78.9248" x2="16.8511" y2="78.9248">
	<stop  offset="0" style="stop-color:#FFFFFF"/>
	<stop  offset="1" style="stop-color:#DFF3FD"/>
</linearGradient>
<path fill="url(#SVGID_1_)" d="M14.834,49.364L14.834,49.364L14.834,49.364l-0.672,1.681c-0.336,2.353,1.008,4.034,0,6.386
	c-0.336,1.345-1.681,2.018-1.344,3.698c-0.337,0-0.673,0.336-1.009,0.672c-0.336,0.673-0.336,1.346-1.008,1.009l-0.336-0.336
	c-0.336,1.009,0,2.017,0,3.36c1.345,26.892-0.336-9.411,1.681,7.396c-0.672,0-0.672-0.673-0.672-1.01
	c-0.672-2.353-1.008-4.705-1.681-6.722c-0.336-3.025,0.336-6.387,0.673-9.076c-1.009,1.681-1.681,3.697-1.009,5.714
	c-0.672,0.673-0.335,2.018-0.672,3.025c0.337,1.009-0.336,2.018-0.336,3.025c0.336-0.336,0.336-0.336,0.673-0.336
	c0.671,0.672,1.008,1.345,1.008,2.017c0,0.337-0.336,0.672-0.672,1.009c-0.335-0.337-0.672,0-1.008,0
	c0.336,1.344,0,2.689-0.336,4.033c0.336-0.672,1.009-1.008,1.68-1.008c0,0,0.673,0,1.009,0.336c2.689,2.354,5.377,2.017-1.009,4.033
	c-0.671,0-1.344-0.672-1.68-1.344V74.91c-0.336,2.018-1.008,3.361-0.672,5.379c1.008,1.344,3.025,1.68,2.353,3.697
	c0.336,0.336,0.673,1.008,1.009,2.018c-0.673,0.336-1.009,0.672-1.681,0.336c-0.673,0-0.673-0.674-1.009-1.01
	c0.336,1.682,0.672,3.025,0.672,5.043H8.447v-0.336c0-2.018-0.672-3.361-1.008-5.379C5.758,90.373,9.12,98.104,6.767,104.49
	c-0.672,0.336-1.344,1.345-1.681,2.017c0,1.009,0,2.353,0.336,3.025h0.336c-0.672-1.681,0-3.36,1.345-4.706
	c0.336-0.336,1.008-0.672,1.68-0.336l0,0c-1.008,0-2.017,1.008-2.353,2.017c-0.672,1.009-0.672,2.017-0.336,3.362
	c0.336,0,1.009,0.336,1.681,0.336c0-0.336-0.336-1.009,0-1.346c0.336-1.344,0.336-4.033,2.353-4.369h0.336
	c-1.681,1.008-2.353,3.361-2.353,5.379c0.672,0.336,1.344,0.672,2.017,0.672h0.336c-0.673-1.009-0.336-2.689,0-3.697
	c0.336-1.009,1.008-2.018,2.354-2.018c0.335,0.672-1.009,0.336-1.345,1.009c-1.008,1.345-1.345,3.024-0.672,4.37
	c0.336-0.673,0.672,0.672,1.344,0.336c0.336-1.345,1.345-2.689,2.689-3.361c0.672,0.336,0.672-0.336,1.344-0.673
	c0.673-2.017-1.008-4.369-0.672-6.722c0-1.682,0-4.034-0.336-5.379c-0.672-6.723,0.673-19.832-1.008-25.883
	c0.336-0.336-0.336-2.353,0.336-2.353c1.68-5.714,0.336-11.429,1.68-17.143l0.673-1.344c-0.336,0-1.008-0.673-1.345-0.336
	C14.834,48.02,15.506,49.028,14.834,49.364L14.834,49.364z"/>
<linearGradient id="SVGID_2_" gradientUnits="userSpaceOnUse" x1="26.3848" y1="96.9531" x2="38.3643" y2="96.9531">
	<stop  offset="0" style="stop-color:#FFFFFF"/>
	<stop  offset="1" style="stop-color:#DFF3FD"/>
</linearGradient>
<path fill="url(#SVGID_2_)" d="M37.019,81.297c-3.025,1.008-6.386,1.345-9.412,0.672c-0.672,2.018-0.336,4.371-1.008,6.387
	c-0.672,4.707,0.336,10.085,1.681,14.455c-0.336,1.008,0,2.688,0.336,4.033c-0.336,1.68,0.336,4.033-0.672,6.051c0,0,0,0,0.336,0
	h0.336c0.336-0.673,0-1.009-0.336-1.682c0.672-0.336,0-0.672,0.336-1.008c0.336,0.672,0,1.681,0.672,2.354c0,0-0.336,0,0,0.336
	c0.672,0.672,1.345,0.336,2.016,0c0.673-0.673,0.673-1.009,0.673-1.682c0-1.344-0.673-3.025-1.681-3.697
	c0-0.336,0-0.336,0.337-0.336c0.671,0,0.671,0.672,1.344,1.344c0,1.009,0.672,2.354,0.336,3.362
	c0.336,0.336,0.336,1.009,1.008,1.009s1.681-0.336,2.017-1.346c-0.672-1.68-1.344-4.033-3.361-5.042c0-0.335,0-0.335,0.336-0.672
	c1.345,0.672,1.681,2.017,2.353,3.024c0.336,1.01,1.345,2.018,1.009,3.362c0.672,0.337,1.681,0.337,1.681-0.673
	c0-1.68-0.337-3.697-2.018-4.369c-0.672,0-0.336-0.673-1.008-0.336c-1.009-0.672-0.336-2.018-0.672-2.689
	c-0.672-4.033-1.009-7.395-0.336-11.429c0-3.697,3.025-6.386,4.37-9.748c0-0.673,0.673-1.345,0.673-2.353
	C37.691,80.625,37.355,80.961,37.019,81.297L37.019,81.297z"/>
<path fill-rule="evenodd" clip-rule="evenodd" fill="#B0C2CC" d="M29.96,77.936c0.672,5.379-1.345,21.177-1.681,24.538
	c1.681,0.337-0.336,0.337-0.336,0.673c0.336,3.36,2.353,8.402,2.017,9.412c-0.672,2.688-4.034,4.033-5.378,4.033
	c-0.672,0-3.025-0.336-3.698-0.336c0,0-0.335,0-0.335,0.336c-0.673,0.672-3.698,0.672-4.371-0.673c0-0.336,0-0.673,0-1.009
	c0,0,0,0-0.335,0c0,0-0.336,0.336-0.673,0.336c-3.361,1.682-6.05-1.344-6.05-3.024c0.671-3.362,4.37-7.06,5.714-7.396
	c0.672-0.336-1.009-26.555,0.672-34.286c-0.336-3.36,0-6.386,0.336-9.747c0.335-0.336,0.335-0.673,0.672-1.009
	c1.681-1.681,0-4.034,0.672-6.05c1.68-1.345-0.336-3.025-0.672-4.37c1.345-1.681,1.008-3.698,2.353-5.379
	c1.682,0.336,2.017-1.68,2.689-2.688c0.672,0.672,1.345,0.336,2.017,0c1.008,0.336,1.345,1.008,1.345,2.353
	c0,0.672,1.008,0.672,1.68,0.672c1.008-0.336,1.681-1.344,1.008-2.353l0,0c0-0.672-0.672-2.016-0.672-3.025
	c0.336-0.336,1.008-0.672,1.008-1.344c1.681,1.344,2.353,3.361,3.361,5.042c1.009,1.344-1.344,1.68-1.68,3.025l0,0
	c0.672-0.672,1.345-1.345,2.353-1.681c0.672,1.009,2.353,2.354,3.698,2.017c0,0.336-0.337,0.672-0.337,1.008
	c0.673-0.336,0.673-0.672,1.009-1.344c0.336,0,0.672,0.336,1.009,0c1.009-0.336,2.017-0.336,3.024,0.336
	c2.689-0.336,5.379-0.672,7.731-1.008l-0.337,0.336c0,1.344-0.336,3.025-0.671,4.37l0.671,0.673c1.01,0.672,1.682-1.009,2.689-0.336
	c2.689,6.723,2.354,11.428,2.689,19.16c1.345,8.067-0.672,37.311,0,37.311c1.008,0.673,3.697,1.345,4.034,4.706
	c0.336,2.354-2.017,4.37-3.698,3.361v-0.336c-2.016,1.681-4.369,1.681-6.386,1.008c-0.673,0-2.017,0.337-2.689,0.337
	c-1.345,0-3.361-1.681-4.034-4.034c-0.336-1.344,1.682-6.051,1.682-9.411c0-1.009-1.009-12.101-1.009-19.833
	c-0.336,0,0.672,0,0.672,0c-1.345-1.344-1.008-2.688-2.353-4.033h-0.336c0,0.336,0,0.336,0,0.672c-1.681-1.008-3.025,0-4.706,0.337
	C32.985,77.936,31.304,77.6,29.96,77.936L29.96,77.936z"/>
<path fill="#2E2C2C" d="M40.38,52.726c-0.336,0.672,0.337,1.008,0.337,1.681c0.336,0.336,1.008-0.336,1.008-0.672
	c0-0.672,0.337-1.345-0.335-2.017C41.053,51.717,40.717,52.389,40.38,52.726L40.38,52.726z"/>
<path fill="#2E2C2C" d="M21.22,55.415c-0.671,1.345,0,2.689,0.336,3.697c1.008,1.008,1.681,2.017,2.69,2.017
	c1.344,0,2.352,0,3.024-0.672c1.008-1.681,0.672-3.362,0-4.707c-1.008-1.008-2.017-0.672-3.361-1.008
	c-1.008,1.008-1.008-1.008-2.353-0.672L21.22,55.415z"/>
<path fill-rule="evenodd" clip-rule="evenodd" fill="#DEF2FB" d="M29.624,81.633c-0.336,7.059-1.681,17.816-2.017,20.505v0.336
	v0.337c0.336,3.361,2.017,8.066,1.681,9.411c-0.672,2.353-3.697,4.034-5.042,4.034c-0.673,0-2.69-0.337-3.698-0.673
	c0,0.336,0,0.336-0.337,0.336c-0.336,0.673-3.697,1.009-4.034-0.336c-0.335-0.673-0.335-0.673-0.335-1.009l0,0
	c0,0-0.336,0.336-0.673,0.336c-3.361,1.682-5.042-1.344-4.706-3.024c0.336-3.362,3.025-5.042,4.37-5.379
	c1.008-0.335,0-27.899,1.68-35.967c0-3.024-1.008-6.722-0.672-10.083c0.335,0,0.335-0.673,0.335-1.008
	c1.681-1.345,0.336-3.698,0.673-5.715c1.681-1.345,0-3.025-0.336-4.37c1.008-1.681,1.008-3.698,2.353-5.379
	c1.682,0.336,2.017-1.68,2.689-2.688c0.336,0.672,1.008,0.336,1.681,0c1.009,0.336,1.344,1.008,1.344,2.353
	c0,0.672,1.009,0.672,1.681,0.672c0.672-0.336,1.344-1.344,1.008-2.353l0,0c0-0.672-0.672-2.016-0.672-3.025
	c0.336-0.336,1.008-0.672,1.008-1.344c1.681,1.344,2.354,3.025,3.362,4.706c0.672,1.68-1.681,2.017-2.017,3.361h0.336
	c0.672-0.672,1.008-1.345,2.016-1.681c1.009,1.009,2.354,2.354,4.034,1.681c0,0.672-0.672,1.008-0.336,1.344
	c0.336-0.336,0.336-1.008,0.673-1.344c0.336,0,0.672,0,1.008,0c1.009-0.336,2.018-0.336,3.361,0c2.354,0,4.706-0.336,7.395-1.008
	l-0.335,0.672c0,1.344-0.374,2.573-0.71,3.917l0.791-0.153c1.361,0.222,1.425-0.447,2.098-0.111
	c2.353,7.396,3.199,10.465,2.863,20.213c1.344,7.731-0.672,36.976,0,36.976c1.008,0.672,3.697,1.344,4.033,4.705
	c0.336,3.697-3.361,3.361-3.361,3.361s-0.336,0-0.336-0.336c-1.345,2.017-3.697,1.681-5.378,1.008c-0.673,0-1.009,0.336-1.682,0.336
	c-1.345,0-3.36-1.68-4.032-4.033c-0.337-1.344,1.344-6.051,1.344-9.412c0-1.008-1.344-12.1-1.344-19.496
	c-0.337-0.336-0.337-0.336-0.337-0.336c-1.009-0.672-1.009-1.68-1.345-2.688c-1.344,0.672-3.361,1.345-4.033,1.681
	c0,0.336-1.009,0-0.673,0.336C33.321,81.633,31.304,81.969,29.624,81.633L29.624,81.633z"/>
<path fill="#B0C2CC" d="M41.39,65.162c-1.01,0.337-0.337,1.682-0.337,2.689c1.009,1.345,2.688,1.008,3.697,0.672
	c2.017-0.672,1.345-2.689,2.354-4.033c0-0.672-0.337-1.344-0.673-2.017c-0.672,0-1.344,0-2.017,0.673
	c-0.673,0.672-1.345,1.68-2.353,1.68L41.39,65.162z"/>
<path fill="#2E2C2C" d="M19.54,64.826c0,0.336-0.673,0-0.336,0.673c-0.337,0.335,0,0.335,0,0.672c0.672,0,0.672-0.672,1.008-0.672
	C20.549,64.826,19.876,64.826,19.54,64.826L19.54,64.826z"/>
<path fill="#2E2C2C" d="M25.591,70.205l0.336,1.008c0.672,0,0.672-1.008,1.344-1.008l-0.336-1.009
	C26.599,69.196,25.927,69.532,25.591,70.205L25.591,70.205z"/>
<path fill="#B0C2CC" d="M16.515,72.558c0,0.673-0.336,1.345-1.008,2.017c0.672,1.346,0,3.697,2.017,3.697
	c1.009,0.336,1.681,0.672,2.689,0c0.672-0.336,0.672-1.344,0.672-2.352h-0.335c0.671-0.674,0-1.01-0.337-1.682
	c-0.336-0.672-1.345-1.344-1.345-2.354c-0.335-0.336-0.335-0.672-0.672-0.672C17.859,71.885,16.851,71.549,16.515,72.558
	L16.515,72.558z"/>
<path fill="#B0C2CC" d="M32.985,83.986c-1.681,0-0.336,1.344-0.336,2.018c0.336,0.336,1.009,0.336,1.345,0
	c1.008-0.338,1.344-1.346,2.017-2.018c0-0.336,0-0.672-0.336-1.009C34.666,82.978,33.994,84.322,32.985,83.986L32.985,83.986z"/>
<rect x="43.405" y="86.676" fill="#2E2C2C" width="0.336" height="0.336"/>
<path fill="#2E2C2C" d="M12.145,92.726l0.336-0.336l-0.336-0.336C12.145,92.39,11.809,92.39,12.145,92.726L12.145,92.726z"/>
<path fill-rule="evenodd" clip-rule="evenodd" fill="#2E2C2C" d="M12.481,114.574c0,0,0-0.336,0.337-0.336l0,0l0.335,0.336
	c0,0.336,0,0.672,0,0.672c0,0.337-0.335,0.337-0.335,0.337l0,0h-0.337C12.481,115.246,12.481,114.91,12.481,114.574L12.481,114.574z
	"/>
<path fill-rule="evenodd" clip-rule="evenodd" fill="#2E2C2C" d="M18.195,116.256l0.336-0.337l0,0c0.335,0,0.335,0.337,0.335,0.337
	c0,0.336,0,0.336,0,0.672v0.336c0,0,0,0-0.335,0c0,0-0.336,0-0.336-0.336C18.195,116.928,18.195,116.592,18.195,116.256
	L18.195,116.256z"/>
<path fill-rule="evenodd" clip-rule="evenodd" fill="#2E2C2C" d="M24.918,115.919l0.336-0.336c0.336,0,0.336,0,0.336,0l0.336,0.336
	c0,0.337,0,0.337,0,0.673c-0.336,0-0.336,0.336-0.336,0.336l0,0c-0.336,0-0.336,0-0.336-0.336
	C25.254,116.592,24.918,116.256,24.918,115.919L24.918,115.919z"/>
<polygon fill="#2E2C2C" points="44.75,40.961 45.087,40.625 44.75,40.625 44.75,40.625 "/>
<path fill="#2E2C2C" d="M50.802,46.339c0.335,0.336,0.335,0.336,0.335,0.336c1.009,0,1.681-0.672,2.017-0.672
	c0-0.672-1.008-1.008-1.008-2.017c-0.336-0.672-0.336-1.344-1.009-2.017l0.337-0.335C50.128,42.978,51.474,44.994,50.802,46.339
	L50.802,46.339z"/>
<rect x="29.624" y="52.053" fill="#939598" width="0.336" height="0.336"/>
<path fill="#B0C2CC" d="M68.296,32.632l-0.324,0.669c-0.976,0.335-1.301,0-1.949,0v-0.335c-0.326-0.334-0.326,0-0.65,0
	c-0.326-0.334-0.976-0.669-0.976-1.004c-4.55-2.344-6.175-7.367-9.099-11.051c-0.325-0.335,0-1.004-0.65-1.004
	c-0.324,0.669,0.17,0.813,0.52,1.385c1.115,1.826,1.094,4.476,2.08,14.02c0.066,0.647,1.3,0,1.949-0.335
	c-0.324,0.335-0.649,0.335-0.975,0.335c-1.299,0.335,1.113,2.203,0,7.368c-0.099,0.456-1.625,1.339-1.949,2.009
	c-3.899,4.689-9.1,6.028-19.498,4.354c-3.25-0.334-9.748-3.684-11.374-6.028c-5.849,1.004-2.275,8.372-8.124,9.712
	c0.326-0.335-3.574,0-3.25-0.335c-0.325,0-0.325-0.335-0.65-0.335c-1.3-1.34-1.95-2.344-3.574-3.349
	c-1.625-3.014-5.2-4.354-7.799-6.363c-1.949-1.674-2.275-5.358-1.3-7.367c0.325-1.34,1.3-2.01,1.95-3.014
	c0.649-1.674,2.275-2.344,2.925-3.684c0.65-3.684,2.274-7.703,4.874-10.382c0.65-2.678,2.275-5.357,3.575-7.702
	c1.3-1.005,2.275-2.68,3.575-3.015c0.975-1.339,2.599-2.009,3.899-2.679c0.65-0.335,1.299-0.669,1.95-1.339
	c3.25-1.34,6.824-3.014,10.724-3.014c1.625-0.335,3.575,0,5.524,0c1.625,1.004,3.899,0.669,5.199,1.674
	c0.649-0.335,1.626-0.335,2.6-0.67c2.601,0.335,4.875,0,7.475,1.005c0.975,0,1.3,0.669,1.95,1.339c0.65,0,0.65,0.67,0.975,1.005
	c1.299,0.335,1.624,2.009,3.25,2.344c1.299,1.004,8.773,13.73,7.475,17.079C68.622,26.605,67.321,29.619,68.296,32.632
	L68.296,32.632z"/>
<path fill="#DEF2FB" d="M22.229,5.667c-4.706,2.017-9.076,6.723-10.756,11.765c0.336,0.336,2.353-0.672,1.681,0.672
	c-2.689-0.336-3.025,2.017-4.37,3.698c-1.68,3.697-3.361,8.067-1.344,12.1l-0.336,0.336H6.767l-1.008-5.042
	c-2.017,3.025-5.378,5.042-4.706,9.076c0.672,5.042,7.395,4.37,9.076,8.739c2.017,1.681,3.362,4.034,6.387,5.042
	c1.345-1.008,1.008-2.689,2.017-3.697c0.335-4.034,0.335-7.731-1.009-12.101c-0.672-4.37-2.688-9.748-0.672-13.782l0.336-0.335
	c-0.336,1.345,0,2.353,0,3.698c0,0,0-0.336,0.336-0.336c0.336,3.361-0.336,7.731,2.017,10.756
	c7.059,7.395,10.42,12.773,20.504,13.109c2.018,0,4.37,0.336,6.387-0.672c0-0.672,1.344-1.681,1.008-1.681
	c0.673,1.681,2.354-5.042,0-1.008c0.336,0.672,1.346-1.008,1.01-2.017h-1.01c-2.688-1.68-6.386-3.361-5.714-6.722
	c0.337-1.681,2.017-2.353,3.362-3.362c2.017-0.672,4.033-1.344,6.05-0.336c1.345,1.008,2.688,2.354,2.353,3.698
	c-0.336,2.689-2.016,5.042-4.033,6.387h-0.672c0,1.008,0.672,1.008,1.344,1.344c1.009,0,1.682,0,2.689,0.672
	c0.672-1.008,2.354-0.672,3.025-2.017c1.008,0.335,1.345-0.672,1.681-1.345c-0.336-1.008-1.681-1.008-2.017-1.681v-0.336
	l2.353,1.008c0.336-0.672,0-2.353-0.336-3.025c-0.336-0.335-1.345,0-1.345-0.672c0.336-0.336,0.672,0,1.345-0.336
	c-0.673-0.336-0.673-2.017-1.681-1.008c-0.336,0,0-0.336-0.336-0.336c0.336-0.336,0.336-0.336,0.672-0.336
	c-0.336-1.681,0.48-11.506-4.705-22.185c-0.657-1.352-0.672-2.689-1.682-3.698c0,0,0-0.336,0.336-0.336
	c2.354,2.689,3.697,6.05,4.706,9.748c1.681,3.361,4.37,6.387,6.387,9.748c1.345,1.681,3.361,3.025,5.042,3.698v0.336
	c0.672-0.336,1.009,0.336,1.345-0.336c0.337-2.017-0.673-4.033,0.337-6.05c0.335-1.009-1.682-1.009-2.018-2.017
	c-0.336-0.672-0.672-2.018,0.336-2.689c-1.344-1.009,0.336-1.681,0.672-2.689c0-0.672-0.336-1.008-0.672-1.345
	c-0.672,0-1.008,2.689-2.017,1.008c-0.672-1.008-1.009-2.689-0.336-4.033c0.336-2.353-3.024-2.689-3.698-5.042
	c0-1.009-0.672-1.345-1.008-2.353c0.672,1.008,1.008,2.353,1.344,3.697c0.673,0.672,1.346,1.681,1.346,2.689
	C58.532,11.044,59.54,5.33,55.171,3.65c-3.025-1.345-5.715-0.336-9.076-0.672v0.336c-4.033-1.344-8.067-2.353-12.437-1.344
	c-3.697-0.336-7.059,1.344-10.084,2.689L22.229,5.667z"/>
<path fill="#C1C0C3" d="M22.565,15.079h0.337l-0.337-0.672C22.565,14.406,22.565,14.742,22.565,15.079L22.565,15.079z"/>
<path fill="#FFFFFF" d="M28.616,23.818h0.336H28.616c1.008-1.008,0.336-2.017,0-3.025l-0.672-1.008
	C28.616,20.792,29.288,22.473,28.616,23.818L28.616,23.818z"/>
<path fill="#FFFFFF" d="M45.422,17.431c-0.335,0.672,0,1.008,0.673,1.008l0,0C46.431,17.767,46.095,17.431,45.422,17.431
	L45.422,17.431z"/>
<path fill="#FFFFFF" d="M26.263,21.129c0,0.336,0,0.672,0,0.672l0.336,0.336C26.935,21.801,26.935,20.792,26.263,21.129
	L26.263,21.129z"/>
<path fill="#FFFFFF" d="M48.111,19.784c-0.337,0.336-1.008,1.008-1.345,1.008c1.008-0.336,2.018-0.672,2.689-2.017
	c0-0.672-1.008-1.008-1.682-1.68C48.448,18.104,48.111,18.775,48.111,19.784L48.111,19.784z"/>
<path fill="#2E2C2C" d="M60.548,23.146c0.338,0.336,0,1.345,0.338,1.681c0,0,0.335,0.336,0,0.336c0.672,0,1.344,2.017,2.688,1.345
	c0.336-0.672,0-1.345,0-1.681c-0.673-0.336-0.673-0.672-1.009-0.336c-1.008-0.336-1.345-1.345-2.018-2.018
	c-0.336-1.344,1.01-2.688,0.338-4.033C59.876,19.784,59.876,21.465,60.548,23.146L60.548,23.146z"/>
<path fill="#2E2C2C" d="M65.591,30.541c0,0.336,0.336,0.672,0.672,0.336h0.336l-0.336-0.672
	C66.263,30.205,65.591,30.205,65.591,30.541L65.591,30.541z"/>
<path fill="#2E2C2C" d="M40.717,37.6c0.673,2.353,2.353,4.369,4.033,5.378c1.345,0.336,2.354,1.681,3.698,1.008
	c2.688-1.008,4.033-3.361,5.041-5.714c0.336-1.68-0.336-3.025-1.344-4.034c-3.025-2.017-7.396-0.672-10.421,1.345
	C41.053,35.919,41.053,36.927,40.717,37.6L40.717,37.6z"/>
<rect x="41.39" y="35.247" fill="#2E2C2C" width="0.335" height="0.336"/>
<path fill="#FFFFFF" d="M47.774,36.255c0,0.672,0.674,1.008,1.01,1.345c1.344-0.672,3.361,0,3.697-1.681
	c0.336-1.009-0.672-1.009-1.345-1.009C49.792,34.91,48.784,35.247,47.774,36.255L47.774,36.255z"/>
<path fill-rule="evenodd" clip-rule="evenodd" fill="#363A3D" d="M21.893,24.826c-0.336-3.697,3.026-7.059,6.051-6.387
	c1.681,0.336,3.025,1.008,4.034,3.025c1.681,4.034-0.336,5.042-4.37,7.059c-2.016,0.672-3.697,0.672-4.705-1.009
	C21.557,25.499,22.229,26.507,21.893,24.826L21.893,24.826z"/>
<path fill-rule="evenodd" clip-rule="evenodd" fill="#363A3D" d="M41.725,17.767c-0.335-3.025,2.689-4.706,5.379-4.034
	c1.345,0,3.698,0.336,4.37,2.353c1.68,3.698-0.672,5.378-4.035,5.378c-1.68,0-3.697,1.008-4.705-0.672
	C41.725,19.112,42.062,19.448,41.725,17.767L41.725,17.767z"/>
<path fill-rule="evenodd" clip-rule="evenodd" fill="#FFFFFF" d="M42.397,18.104c-0.336-3.025,2.353-4.706,4.706-4.034
	c1.345,0.336,3.36,0.336,4.033,2.353c1.345,3.361-0.673,5.042-3.698,5.042c-1.344,0-3.024,0.672-4.033-0.672
	C42.733,19.112,42.733,19.448,42.397,18.104L42.397,18.104z"/>
<path fill-rule="evenodd" clip-rule="evenodd" fill="#FFFFFF" d="M25.927,19.784c2.353-1.009,4.706-1.345,6.05,2.017
	c1.008,2.017,0.672,3.697-1.344,4.706c-2.689,1.008-6.386,3.025-7.731,0.672C21.557,24.826,23.574,20.792,25.927,19.784
	L25.927,19.784z"/>
<path fill-rule="evenodd" clip-rule="evenodd" fill="#0398D2" d="M46.767,21.465c-2.353-0.336-2.353-1.681-1.68-3.361
	c0.672-2.017,4.705-2.353,5.715-0.336c0.335,1.345-0.338,2.353-1.346,2.689c-0.672,0.336-1.008,0.673-1.682,0.673
	C47.438,21.465,46.431,21.465,46.767,21.465L46.767,21.465z"/>
<path fill-rule="evenodd" clip-rule="evenodd" fill="#0398D2" d="M26.935,21.801c1.344-0.672,3.698,0.336,4.369,2.017
	c1.345,2.689-3.025,4.706-5.042,4.37c-1.344-0.336-1.344-0.336-2.016-1.345C23.91,25.499,25.927,22.473,26.935,21.801L26.935,21.801
	z"/>
<path fill-rule="evenodd" clip-rule="evenodd" fill="#2E2C2C" d="M27.943,22.137c0.672-0.336,1.681,0,2.017,0.672
	c0,0.336,0.335,0.336,0.335,1.008s0.673,3.025,0,3.361c-1.008,0.336-1.344,1.008-2.353,0.672c-0.672,0-1.345-0.336-1.681-1.008
	c-0.336-0.335-0.672-0.672-0.672-1.344s0.336-1.681,0.672-2.017C26.935,22.81,26.935,22.473,27.943,22.137L27.943,22.137z"/>
<path fill-rule="evenodd" clip-rule="evenodd" fill="#2E2C2C" d="M47.774,16.423c0.674,0,1.346,0,1.682,0.672
	c0,0.336,0.336,0.336,0.336,0.672c0,0.672,0.672,2.689,0,3.025s-1.008,0.672-2.018,0.672c-0.336-0.336-1.008-0.672-1.344-1.009
	c0-0.672-0.336-0.672-0.336-1.344c0-0.336,0.336-1.345,0.672-1.681C47.104,16.759,47.104,16.759,47.774,16.423L47.774,16.423z"/>
<path fill-rule="evenodd" clip-rule="evenodd" fill="#363A3D" d="M49.456,11.044c-0.672,1.009-0.672,2.354-0.672,2.689
	c-0.336,0.673-1.346,0-1.01,0C48.111,13.733,48.784,12.053,49.456,11.044L49.456,11.044z"/>
<path fill-rule="evenodd" clip-rule="evenodd" fill="#363A3D" d="M43.741,11.381c0,1.009,1.009,1.681,1.009,2.017
	c0.337,0.672-0.673,0.672-0.673,0.672C44.414,13.733,43.741,12.053,43.741,11.381L43.741,11.381z"/>
<path fill-rule="evenodd" clip-rule="evenodd" fill="#363A3D" d="M40.044,14.07c0.336,1.009,1.681,1.344,2.018,1.344
	c0.336,0.672-0.337,1.345-0.337,1.009C41.725,16.086,40.38,15.079,40.044,14.07L40.044,14.07z"/>
<path fill-rule="evenodd" clip-rule="evenodd" fill="#363A3D" d="M20.212,19.784c0.672,1.008,2.017,1.345,2.353,1.681
	c0.337,0.672-0.336,1.345-0.336,1.008C22.229,21.801,20.884,20.792,20.212,19.784L20.212,19.784z"/>
<path fill-rule="evenodd" clip-rule="evenodd" fill="#363A3D" d="M23.91,16.086c0,1.345,1.345,2.353,1.345,2.689
	c0,1.009-1.008,1.009-1.008,0.672C24.582,19.112,23.91,17.431,23.91,16.086L23.91,16.086z"/>
<path fill-rule="evenodd" clip-rule="evenodd" fill="#363A3D" d="M28.616,16.086c-0.336,1.009,0,2.353,0,2.353
	c0,0.672-1.009,0.336-0.672,0.336C28.279,18.439,28.279,17.095,28.616,16.086L28.616,16.086z"/>
<path fill-rule="evenodd" clip-rule="evenodd" fill="#FFFFFF" d="M26.263,24.826c0,0,0.336,0,0.336,0.336h0.336
	c0,0.336,0,1.008,0,1.008c-0.336,0.336-0.672,0.336-0.672,0.336c-0.336,0-0.336-0.336-0.672-0.336v-0.336c0-0.336,0-0.336,0-0.672
	C25.927,25.163,25.927,24.826,26.263,24.826L26.263,24.826z"/>
<path fill-rule="evenodd" clip-rule="evenodd" fill="#FFFFFF" d="M46.431,18.104c0.336,0,0.673,0,0.673,0c0,0.336,0,0.336,0,0.336
	c0,0.336,0.335,1.008,0,1.008c0,0-0.337,0.336-0.673,0.336l-0.336-0.336c0-0.336-0.336-0.336,0-0.336c0-0.336,0-0.672,0-0.672
	C46.431,18.104,46.431,18.104,46.431,18.104L46.431,18.104z"/>
<path fill="#FFFFFF" d="M46.095,48.356c0.336,0.672,7.059-1.008,7.395-2.689l-2.016,0.672c-0.337-0.336-0.337-0.336-0.337-0.672
	h-0.335c-0.674,0-1.01-1.345-2.018-0.672C48.784,45.667,48.111,46.339,46.095,48.356L46.095,48.356z"/>
<path fill-rule="evenodd" clip-rule="evenodd" fill="#2E2C2C" d="M36.683,48.02c4.034,1.344,9.076,2.353,11.766-2.354
	c0.336-0.672,0-2.017,1.008-1.345c4.033,3.026,8.739-2.017,9.076-3.025c0-1.008-1.009,6.387-8.404,4.706
	c-0.336,0-0.672,0-1.008,0.336c-1.346,0.672-2.689,3.361-5.379,3.361C42.397,49.7,35.338,47.684,36.683,48.02L36.683,48.02z"/>
<path fill-rule="evenodd" clip-rule="evenodd" fill="#2E2C2C" d="M44.414,114.91c0-0.336,0.336-0.336,0.336-0.336l0,0
	c0,0,0.337,0,0.337,0.336c0,0,0,0.336,0,0.673c0,0,0,0-0.337,0c0,0,0,0.336,0,0h-0.336C44.414,115.246,44.414,114.91,44.414,114.91
	L44.414,114.91z"/>
<path fill-rule="evenodd" clip-rule="evenodd" fill="#2E2C2C" d="M49.792,115.246c0-0.336,0.336-0.336,0.336-0.336l0,0
	c0,0,0.336,0,0.336,0.336c0,0.337,0,0.337,0,0.673v0.337c-0.336,0-0.336,0-0.336,0c0-0.337-0.336,0-0.336-0.337V115.246
	L49.792,115.246z"/>
<path fill-rule="evenodd" clip-rule="evenodd" fill="#2E2C2C" d="M55.171,112.895l0.336-0.336l0,0l0.336,0.336
	c0,0.336,0,0.672,0,0.672c0,0.336,0,0.336-0.336,0.336l0,0h-0.336C55.171,113.566,55.171,113.23,55.171,112.895L55.171,112.895z"/>
<g>
	<path fill-rule="evenodd" clip-rule="evenodd" fill="#525356" d="M19.54,109.532c-3.025,0.337-3.697,4.37-3.362,6.051
		c0-1.009-1.008,0-0.335-1.009C15.843,112.222,16.851,109.196,19.54,109.532L19.54,109.532z"/>
	<path fill="#525356" stroke="#2E2C2C" stroke-width="0" stroke-linecap="square" stroke-miterlimit="10" d="M12.481,114.574
		c0,0,0-0.336,0.337-0.336l0,0l0.335,0.336c0,0.336,0,0.672,0,0.672c0,0.337-0.335,0.337-0.335,0.337l0,0h-0.337
		C12.481,115.246,12.481,114.91,12.481,114.574L12.481,114.574z"/>
	<path fill="#525356" stroke="#2E2C2C" stroke-width="0" stroke-linecap="square" stroke-miterlimit="10" d="M18.195,116.256
		l0.336-0.337l0,0c0.335,0,0.335,0.337,0.335,0.337c0,0.336,0,0.336,0,0.672v0.336c0,0,0,0-0.335,0c0,0-0.336,0-0.336-0.336
		C18.195,116.928,18.195,116.592,18.195,116.256L18.195,116.256z"/>
	<path fill="#525356" stroke="#2E2C2C" stroke-width="0" stroke-linecap="square" stroke-miterlimit="10" d="M24.918,115.919
		l0.336-0.336c0.336,0,0.336,0,0.336,0l0.336,0.336c0,0.337,0,0.337,0,0.673c-0.336,0-0.336,0.336-0.336,0.336l0,0
		c-0.336,0-0.336,0-0.336-0.336C25.254,116.592,24.918,116.256,24.918,115.919L24.918,115.919z"/>
	<path fill="#525356" d="M30.296,45.331v0.672c1.681,0,3.698-1.681,5.715-1.008c0.336,0,0.672,0,1.008-0.336
		C35.002,43.985,32.313,44.994,30.296,45.331L30.296,45.331z"/>
	<path fill="#525356" stroke="#363A3D" stroke-width="0" stroke-linecap="square" stroke-miterlimit="10" d="M36.683,48.02
		c4.034,1.344,9.076,2.353,11.766-2.354c0.336-0.672,0-2.017,1.008-1.345c4.033,3.026,8.739-2.017,9.076-3.025
		c0-1.008-1.009,6.387-8.404,4.706c-0.336,0-0.672,0-1.008,0.336c-1.346,0.672-2.689,3.361-5.379,3.361
		C42.397,49.7,35.338,47.684,36.683,48.02L36.683,48.02z"/>
	<path fill="#525356" d="M45.087,46.339c0,0.336,0,0.336,0.335,0.336c0.337,0,0.337-0.672,0.337-1.008c-0.337,0-0.337-0.336-0.672,0
		V46.339z"/>
	<path fill="#525356" d="M42.733,44.994c0,0.336,0.336,0.336,0.336,0.336c0.672,0,0.672-0.672,0.672-1.009c-0.336,0-0.672,0-1.008,0
		V44.994z"/>
	<path fill="#525356" d="M42.062,48.02l0.336,0.336c0.672-0.336,0.672-0.672,0.672-1.008c-0.336-0.337-0.672-0.337-1.008-0.337
		V48.02z"/>
	<path fill="#525356" d="M55.507,41.633c0.336,0,0.336,0.335,0.672,0.335c0.336-0.335,0.336-0.672,0.336-1.008
		c-0.336-0.336-0.336-0.336-0.672-0.336L55.507,41.633z"/>
	<path fill="#525356" d="M53.489,40.289c0,0,0,0.336,0.336,0.336s0.336-0.672,0.336-1.008c-0.336,0-0.336-0.336-0.672,0V40.289z"/>
	<path fill="#525356" d="M52.817,42.978c0,0.336,0,0.336,0.336,0.672c0.336-0.336,0.336-0.672,0.336-1.345c-0.336,0-0.336,0-0.672,0
		V42.978z"/>
	<path fill="#525356" d="M33.658,50.373h0.336c1.344-1.009,2.017-3.362,3.698-4.034c0.336-0.336,0.673-0.672,0.673-1.008
		C36.347,46.339,35.002,48.356,33.658,50.373L33.658,50.373z"/>
	<path fill="#525356" d="M38.7,52.053l0.336,0.336c0.672-1.681,0.336-4.033,1.681-5.714c0-0.336,0-0.672,0-1.008
		C39.372,47.348,39.036,50.037,38.7,52.053L38.7,52.053z"/>
	<path fill-rule="evenodd" clip-rule="evenodd" fill="#525356" d="M21.557,109.869c-0.672,2.353-0.672,5.377-0.672,6.723
		c0.336-1.346-0.672,0-0.335-1.009C20.549,112.895,20.549,112.222,21.557,109.869L21.557,109.869z"/>
	<path fill-rule="evenodd" clip-rule="evenodd" fill="#525356" d="M46.431,108.859c0.673,2.689,0.673,5.379,0.673,6.724
		c0-1.009,0.671,0,0.335-1.009C47.438,112.222,47.438,111.549,46.431,108.859L46.431,108.859z"/>
	<path fill-rule="evenodd" clip-rule="evenodd" fill="#525356" d="M50.464,108.523c1.346,2.354,2.018,5.043,2.354,6.387
		c-0.336-1.008,1.008-0.336,0-1.344C52.146,111.213,52.146,110.541,50.464,108.523L50.464,108.523z"/>
	<path fill="#525356" stroke="#2E2C2C" stroke-width="0" stroke-linecap="square" stroke-miterlimit="10" d="M44.414,114.91
		c0-0.336,0.336-0.336,0.336-0.336l0,0c0,0,0.337,0,0.337,0.336c0,0,0,0.336,0,0.673c0,0,0,0-0.337,0c0,0,0,0.336,0,0h-0.336
		C44.414,115.246,44.414,114.91,44.414,114.91L44.414,114.91z"/>
	<path fill="#525356" stroke="#2E2C2C" stroke-width="0" stroke-linecap="square" stroke-miterlimit="10" d="M49.792,115.246
		c0-0.336,0.336-0.336,0.336-0.336l0,0c0,0,0.336,0,0.336,0.336c0,0.337,0,0.337,0,0.673v0.337c-0.336,0-0.336,0-0.336,0
		c0-0.337-0.336,0-0.336-0.337V115.246L49.792,115.246z"/>
	<path fill="#525356" stroke="#2E2C2C" stroke-width="0" stroke-linecap="square" stroke-miterlimit="10" d="M55.171,112.895
		l0.336-0.336l0,0l0.336,0.336c0,0.336,0,0.672,0,0.672c0,0.336,0,0.336-0.336,0.336l0,0h-0.336
		C55.171,113.566,55.171,113.23,55.171,112.895L55.171,112.895z"/>
</g>
<g>
	<path fill="#96A0A6" d="M12.11,50.745c-0.278-0.385,0.035,2.652,0.035,2.989s0,0.672-0.336,0.672h-0.336
		c-0.336,0.336,0,1.008-0.672,1.344c-0.336,2.017-0.336,4.37-0.336,6.386c0.336,0.337,0.672,0.337,1.345,0.337
		c0.672-0.673,0.672-2.017,0.672-3.025c1.345-1.681,2.555-5.774,1.303-6.945C12.788,51.571,13.212,52.271,12.11,50.745z"/>
	<path fill="#96A0A6" d="M15.506,57.095h0.336c0,0.336-0.336,1.008-0.336,1.681l0.672,0.336c1.681-1.681-0.672-4.37,1.009-6.386
		c0-0.672-0.336-1.345-0.672-2.017C15.843,52.389,15.843,54.742,15.506,57.095L15.506,57.095z"/>
	<path fill="#96A0A6" d="M21.557,54.406c0,2.353-0.336,5.042,2.017,6.051c0.673,0.672,1.681,0.336,2.689,0.336
		c1.008-1.009,1.344-2.354,1.008-3.698c0,0-0.336-1.008-0.672-1.345c-1.008-0.672-2.689-0.336-4.034-0.336
		C22.229,55.079,21.893,54.742,21.557,54.406L21.557,54.406z"/>
	<path fill="#96A0A6" d="M45.759,56.759c0,0.336-0.337,1.008-0.337,1.68c0,0.336,0.673,0.336,1.345,0.336
		c0.672-0.336,1.008-1.345,1.682-2.017c0-0.672-0.337-0.672-1.01-1.009C46.767,55.75,46.431,56.087,45.759,56.759L45.759,56.759z"/>
	<path fill="#96A0A6" d="M44.75,63.482c0,0.672-1.009,1.344-1.345,1.68c-0.672,0.337-2.016,0-2.016,1.009
		c-0.337,0.673-0.673,1.345,0.335,2.017c1.345,0.672,2.353,0,3.362-0.336c0.672-1.344,1.344-2.353,1.68-4.033
		c-0.336,0-0.336-1.009-0.672-1.009C45.422,62.81,45.087,63.146,44.75,63.482L44.75,63.482z"/>
	<path fill="#96A0A6" d="M13.153,64.154c-0.335,0.336-0.672,0.336-1.008,0.672c0,0.673,0.336,1.345,0.336,2.018
		c0.337,0,1.009,0.336,1.345,0c0.336-0.673,0.672-1.682,0-2.354C13.49,64.154,13.49,64.154,13.153,64.154L13.153,64.154z"/>
	<path fill="#96A0A6" d="M18.532,65.499c0,0.335,0,0.672,0.335,1.009c0.673,0,1.345,0,2.017-0.674c0-0.672-0.335-1.008-0.672-1.344
		C19.54,64.154,18.532,64.826,18.532,65.499L18.532,65.499z"/>
	<path fill="#96A0A6" d="M12.818,65.162c0,0.672,0,1.009,0.335,1.346c0.336-0.337,0.336-1.009,0.672-1.346
		C13.49,64.49,13.153,64.826,12.818,65.162L12.818,65.162z"/>
	<path fill="#96A0A6" d="M25.254,69.868c0,0.672,0,1.345,0.336,1.681c0.672,0.336,1.344-0.336,1.68-0.672
		c0.672-0.672,0.336-1.345,0.336-2.018C26.599,68.188,25.927,69.196,25.254,69.868L25.254,69.868z"/>
	<path fill="#96A0A6" d="M16.851,72.895c-0.673,1.008-0.673,3.025,0,4.033c0,0.336,0.336,0.336,0.336,0.672
		c1.008,0,2.353,1.681,3.362,0c-0.337-1.345,0-2.354-1.009-3.361c-0.336,0-0.336-0.672-0.673-1.008
		c-0.335-0.673-0.335-1.01-1.008-1.346C18.195,72.895,17.187,72.558,16.851,72.895L16.851,72.895z"/>
	<path fill="#96A0A6" d="M8.447,75.246c0,1.009,0.336,2.018,1.008,2.354c0.672-0.336,1.009-0.672,1.009-1.345
		c0.336-0.672-0.336-1.009-0.336-2.017C9.456,74.238,8.783,74.574,8.447,75.246L8.447,75.246z"/>
	<path fill="#96A0A6" d="M44.077,78.607c0,1.01,0.337,1.682,1.01,2.018c1.008,0.336,1.344-0.336,1.68-1.008
		c0.337-0.674-0.672-1.01-1.008-1.346C45.087,78.271,44.077,77.936,44.077,78.607L44.077,78.607z"/>
	<path fill="#96A0A6" d="M4.078,76.928h0.336c-0.336,0.336-0.336,1.008-0.336,1.008c0.336,0.336,1.008,0.672,1.344,0.336
		c0-0.672,0.336-1.344,0-1.68C5.086,76.255,4.414,76.255,4.078,76.928L4.078,76.928z"/>
	<path fill="#96A0A6" d="M7.775,82.978c0,0.673,0.336,1.345,0.672,2.017c0.336,0.336,0.336,1.01,1.008,1.01
		c0.336-0.338,0.672-0.338,0.672-0.674c-1.008-1.344-0.672-3.025-2.689-4.033C7.775,81.633,7.775,82.642,7.775,82.978L7.775,82.978z
		"/>
	<path fill="#96A0A6" d="M32.985,84.322c-0.336,0.336-0.336,0.672,0,1.008c0.336,0.674,1.008,0.336,1.345,0.336
		c0.672-0.672,1.681-1.344,1.008-2.352C34.666,83.314,33.994,84.658,32.985,84.322L32.985,84.322z"/>
	<path fill="#96A0A6" d="M45.759,90.037c0,0.672-0.672,0.672-1.009,1.008c0,1.681-0.336,2.689,0,4.369
		c1.345,0.673,1.681,2.354,3.361,1.682c1.009-0.336,2.017-1.009,2.353-2.018c0.338-0.672,0.338-1.008,0-1.344
		c-0.336,0-2.016-4.033-2.016-4.706C47.438,87.684,46.431,89.364,45.759,90.037L45.759,90.037z"/>
	<path fill="#96A0A6" d="M29.288,91.045c0,0.336,0.336,0.672,0.336,1.009c0.336,0.336,1.009,0.336,1.68,0.336
		c0.336-0.336,0-0.673,0-1.345c-0.335-0.336,0-1.008-0.671-1.008C29.96,90.037,29.288,90.373,29.288,91.045L29.288,91.045z"/>
	<path fill="#96A0A6" d="M11.473,91.045c-0.336-0.336-0.336-0.336-0.672-0.336c-0.673,1.008,0,2.017-0.336,3.361
		c0,0.672,1.008,0.336,1.345,0.336c0.672-0.336,1.344-0.672,1.344-1.344c0-1.009-0.335-1.682-0.672-2.354
		c-0.336,0-0.672,0-0.672-0.336C11.809,90.709,11.473,90.709,11.473,91.045L11.473,91.045z"/>
	<path fill="#96A0A6" d="M10.801,93.734c0.672,0.336,1.344,0,1.68-0.336c0.337-0.673,0-1.345-0.336-1.682
		c0,0.337-0.672-0.336-1.008,0c0-0.336,0.336-0.336-0.336-0.336C10.464,92.054,10.801,93.063,10.801,93.734L10.801,93.734z"/>
	<path fill="#96A0A6" d="M9.792,98.775v0.337c-0.336,0-0.336,0.673,0,1.009c0,0.336,0.336,0.336,0.673,0.336
		c0.672-0.336,0.672-1.008,0.672-1.682C10.801,98.44,10.128,98.775,9.792,98.775L9.792,98.775z"/>
	<path fill="#96A0A6" d="M25.254,50.037c0,1.008,0.672,1.681,1.681,2.017c0.672,0,1.344,0.336,2.017-0.336
		c0.672-0.672,0.336-1.681,0.336-2.689c-0.672,0-1.345,1.009-2.017-0.336c0,0-0.336,0-0.672,0
		C25.591,48.356,25.927,49.7,25.254,50.037L25.254,50.037z"/>
	<path fill="#96A0A6" d="M21.557,49.364c0.336,0.672,1.345,0.672,2.017,1.009c0.673-0.336,1.345-0.673,1.345-1.345l0,0
		c-0.336,0-0.672-0.336-0.672-0.672v0.336c-0.673-0.336-1.009-1.681-2.018-1.344C22.229,48.02,20.884,48.356,21.557,49.364
		L21.557,49.364z"/>
	<path fill="#96A0A6" d="M52.146,4.322h0.336c-1.68,1.008,0.336,2.353,0.672,3.361c0.336,0,0.672,0.336,1.008,0.336
		c0.337-0.672,0.673-1.008,0.337-1.681c-0.673-1.008-1.009-2.688-2.353-2.353V4.322z"/>
	<path fill="#96A0A6" d="M39.708,9.027c0.336,1.345,0.672,3.026,2.354,3.362c0.672,0.335,1.344,0.672,2.016,0.335
		c1.345-2.017-1.68-3.025-2.688-4.37C40.38,8.019,39.708,8.019,39.708,9.027L39.708,9.027z"/>
	<path fill="#96A0A6" d="M23.574,12.39c0.673,1.68-2.689,4.706,0.673,4.706c0.672-0.336,1.008-1.009,1.68-1.009V15.75
		c0-0.672,0.336-1.344,0.672-1.681c0-1.008,0-2.017-0.672-2.353C25.254,11.381,23.574,11.381,23.574,12.39L23.574,12.39z"/>
	<path fill="#96A0A6" d="M54.161,12.053l-0.336-0.336c0,0.673,0,1.008,0.336,1.681c0.673,0.672,1.682,1.681,2.689,1.008
		c1.009,0,0.673-1.345,1.345-1.681c-0.336-1.008-0.672-2.017-1.345-2.353c0.337-0.672-1.008,0-1.008-0.672
		C54.498,9.7,55.171,11.381,54.161,12.053L54.161,12.053z"/>
	<path fill="#96A0A6" d="M9.533,25.922L9.533,25.922c-0.723,1.882,1.449,3.763,2.173,5.645c0.725-0.941,0.725,0,2.172-0.941
		c1.449-1.882,0.725-4.704,0.725-6.585c-0.725,0-0.725-2.822-1.449-2.822C10.982,22.159,10.257,24.041,9.533,25.922L9.533,25.922z"
		/>
	<path fill="#96A0A6" d="M58.195,19.784c-0.336,1.345,0.337,3.025,0.673,4.706c1.344,1.008,2.018,3.025,4.033,3.361
		c1.009-0.336,1.345-0.672,1.681-1.344c-0.336-1.009,0-2.689-1.345-3.025c0,0,0,0,0.337,0c-0.337,0-0.673-0.336-1.009,0
		c-0.672-0.672-1.008-1.345-0.672-2.017c1.008-1.681,0.336-3.698-0.673-5.042C59.54,16.423,58.868,18.439,58.195,19.784
		L58.195,19.784z"/>
	<path fill="#96A0A6" d="M14.657,14.291c0,0.672,0,1.681,0.672,2.353c0.336,0.336,1.344,0.336,2.017,0
		c0.672-0.672,1.009-2.353,0.336-3.361c0-1.008-1.009-0.672-1.345-1.008C14.993,12.274,15.329,13.619,14.657,14.291L14.657,14.291z"
		/>
	<path fill="#96A0A6" d="M2.733,36.591c0.672,0.672,0.336,1.68,1.681,1.68c1.008-0.335,0.335-1.68,0.672-2.689
		c-0.336-0.336-0.336-1.345-1.008-1.345C3.406,35.247,3.069,35.583,2.733,36.591L2.733,36.591z"/>
	<path fill="#96A0A6" d="M34.33,31.885c0,0.336-0.336,1.008,0.336,1.681c0.672,0,1.009,0,1.681-0.336c0-0.672,0.672-1.345,0-1.681
		v-0.336C35.675,30.541,35.002,31.213,34.33,31.885L34.33,31.885z"/>
	<path fill="#96A0A6" d="M11.5,35.333c-0.606-0.123-1.454-0.083-1.82,0.684c-0.245,1.211-1.699,1.128-2.791,1.328
		c-0.041,0.202-0.324,0.565-0.163,0.808c0.564,0.324,0.645,0.971,1.411,1.336c0.646-0.079,1.697-0.077,2.426-0.561
		c1.132-0.402,1.377-1.614,1.582-2.624C12.227,35.901,11.703,35.374,11.5,35.333L11.5,35.333z"/>
	<path fill="#96A0A6" d="M19.204,37.6c-0.337,1.68,1.008,4.034,0,5.378c0.672,1.344-0.337,3.697,1.008,4.033
		c0.337,0.673,0,1.009-0.672,1.009l-0.336,0.336c0.672,0,1.345-0.672,2.353-0.672c-0.336,0-0.336-0.673,0.336-0.673
		c0.336-0.336,0.672,0.337,1.009,0.673c0.336,1.008,0,3.025,1.68,3.361c0.672,0,1.009-0.672,1.345-1.345
		c0-2.353-3.698-4.37-0.672-6.387c-0.336-1.68-2.353-2.017-3.362-3.025h0.336l-0.672-0.336c0.336-0.673-1.345-1.345-1.681-2.017
		C19.54,37.6,19.204,37.6,19.204,37.6L19.204,37.6z"/>
	<path fill="#96A0A6" d="M18.198,39.899c-0.985-0.2-2.357-0.168-2.926,0.949c-0.359,1.775-2.717,1.607-4.479,1.867
		c-0.06,0.296-0.508,0.821-0.239,1.184c0.924,0.495,1.074,1.45,2.327,2.01c1.044-0.096,2.747-0.061,3.912-0.749
		c1.821-0.556,2.179-2.332,2.479-3.813C19.392,40.757,18.527,39.965,18.198,39.899L18.198,39.899z"/>
	<path fill="#96A0A6" d="M18.667,95.766c-1.7,1.576-3.043,5.442-2.685,7.731c-0.224,0.644,0.29,0.822,0.066,1.468
		c1.542,0.535,2.481,4.471,5.143,1.785c0.38-2.757,1.566-4.512,0.694-6.979c-0.514-0.179-0.066-1.468-0.358-2.29
		c-0.066-1.467,0.158-2.112-0.646-3.113C20.723,96.479,19.405,95.299,18.667,95.766L18.667,95.766z"/>
	<path fill="#96A0A6" d="M33.937,53.69c-0.673,1.008-0.673,3.025,0,4.033c0,0.336,0.336,0.336,0.336,0.672
		c1.008,0,2.354,1.681,3.361,0c-0.336-1.345,0-2.353-1.008-3.361c-0.336,0-0.336-0.672-0.674-1.008
		c-0.335-0.672-0.335-1.009-1.008-1.345C35.28,53.69,34.272,53.354,33.937,53.69L33.937,53.69z"/>
	<path fill="#96A0A6" d="M22.81,35.334c-0.488,0.58-0.488,1.739,0,2.318c0,0.193,0.243,0.193,0.243,0.386
		c0.731,0,1.706,0.966,2.437,0c-0.244-0.773,0-1.353-0.731-1.932c-0.243,0-0.243-0.386-0.487-0.58
		c-0.243-0.386-0.243-0.58-0.731-0.773C23.784,35.334,23.053,35.141,22.81,35.334L22.81,35.334z"/>
	<path fill="#96A0A6" d="M22.13,82.421c-0.944-0.761-2.953-0.939-4.017-0.359c-0.334-0.03-0.365,0.305-0.7,0.274
		c-0.09,1.005-1.883,2.194-0.299,3.35c1.37-0.217,2.344,0.209,3.438-0.706c0.03-0.335,0.7-0.274,1.064-0.581
		c0.7-0.273,1.035-0.244,1.429-0.883C22.01,83.76,22.435,82.785,22.13,82.421L22.13,82.421z"/>
	<path fill="#96A0A6" d="M47.353,107.059L47.353,107.059c0.336,0.672,1.009,0.335,1.345,0.672c0.672,0,1.009-0.672,1.345-1.009
		c-0.336-1.009-0.336-2.353-1.345-3.024C48.024,104.705,46.681,105.713,47.353,107.059L47.353,107.059z"/>
	<path fill="#96A0A6" d="M48.942,86.385L48.942,86.385c0.337,0.672,1.01,0.336,1.346,0.672c0.672,0,1.008-0.672,1.344-1.008
		c-0.336-1.009-0.336-2.354-1.344-3.025C49.615,84.031,48.271,85.04,48.942,86.385L48.942,86.385z"/>
	<path fill="#96A0A6" d="M55.593,16.123L55.593,16.123c0.336,0.672,1.009,0.335,1.345,0.672c0.672,0,1.009-0.672,1.345-1.008
		c-0.336-1.008-0.336-2.353-1.345-3.025C56.265,13.77,54.921,14.778,55.593,16.123L55.593,16.123z"/>
</g>
<path fill="#525356" d="M60.692,41.392l-0.115,0.453c-1.4-0.231-2.288-1.659-4.254-1.309c-0.167-0.162-0.334-0.325-0.501-0.487
	C57.788,39.699,59.407,40.708,60.692,41.392L60.692,41.392z"/>
<path fill="#525356" d="M60.947,38.87l-0.115,0.453c-1.4-0.231-2.288-1.659-4.254-1.309c-0.167-0.162-0.334-0.325-0.501-0.487
	C58.043,37.176,59.662,38.186,60.947,38.87L60.947,38.87z"/>
<path fill="#525356" d="M60.692,41.392l-0.115,0.453c-1.4-0.231-2.288-1.659-4.254-1.309c-0.167-0.162-0.334-0.325-0.501-0.487
	C57.788,39.699,59.407,40.708,60.692,41.392L60.692,41.392z"/>
<path fill="#525356" d="M59.986,34.674l0.216,0.415c-1.199,0.76-2.812,0.286-4.045,1.856c-0.232-0.01-0.466-0.021-0.698-0.03
	C56.692,35.344,58.572,35.019,59.986,34.674L59.986,34.674z"/>
</svg>
