<?xml version="1.0" encoding="utf-8"?>
<!-- Generator: Adobe Illustrator 13.0.0, SVG Export Plug-In . SVG Version: 6.00 Build 14948)  -->
<!DOCTYPE svg PUBLIC "-//W3C//DTD SVG 1.1//EN" "http://www.w3.org/Graphics/SVG/1.1/DTD/svg11.dtd">
<svg version="1.1" id="Layer_1" xmlns="http://www.w3.org/2000/svg" xmlns:xlink="http://www.w3.org/1999/xlink" x="0px" y="0px"
	 width="161.061px" height="234.012px" viewBox="0 0 161.061 234.012" enable-background="new 0 0 161.061 234.012"
	 xml:space="preserve">
<path fill-rule="evenodd" clip-rule="evenodd" fill="#EAA653" d="M78.803,143.691c6.957,10.149-1.141,19.045-2.965,27.94
	c-0.456,2.053,2.623,5.588,6.158,9.352c9.465,10.149,8.895,22.693,21.896,21.097c6.956-0.798,6.044-1.597,4.105-5.474
	c-2.395-4.676-17.22-20.527-17.22-23.721c0-11.518,6.842-14.939,10.947-22.237c2.737-5.019-3.535-7.185-7.526-8.781
	C88.268,139.586,83.479,141.981,78.803,143.691L78.803,143.691z"/>
<path fill-rule="evenodd" clip-rule="evenodd" fill="#EAA653" d="M126.357,130.007c3.878,3.535,13.571,6.843,19.045,8.097
	c5.702,1.368,3.649,27.94,3.193,34.668c-0.57,7.869-7.412,14.826-7.755,5.475c-0.342-7.526-3.079-8.439-0.685-8.211
	c1.825,0.228,0.799-11.975,0.799-14.255c0-5.246-4.789-3.422-8.211-3.764c-7.869-0.798-11.86-1.597-15.623-3.991
	C109.594,143.464,125.104,136.051,126.357,130.007L126.357,130.007z"/>
<path fill-rule="evenodd" clip-rule="evenodd" fill="#EAA653" d="M62.152,128.638l2.167-3.991c-9.579-1.482-19.044-2.965-26.8-9.237
	l-0.455-0.57c3.192-12.544-0.799-25.887-10.721-21.554c-14.141,6.272,9.01,22.694,8.781,22.353
	c-2.623,9.123-9.01,16.193-18.36,13.343l1.255,0.456c9.009,4.903,15.623-3.991,18.246-13.001l0.684-0.342l-1.14,0.114
	C44.362,122.822,51.775,126.129,62.152,128.638L62.152,128.638z M35.125,114.041c-7.299-5.931-17.334-14.939-7.412-19.045
	C35.125,91.803,38.09,102.409,35.125,114.041L35.125,114.041L35.125,114.041z"/>
<path fill-rule="evenodd" clip-rule="evenodd" fill="#EAA653" d="M0,133.998c1.482-0.57,3.08,0.114,4.563-0.456
	c7.641-1.026,19.045-0.798,18.588-2.737c-2.28-4.562-14.711-5.474-14.939-14.939c-0.113,0.913-1.254-0.342-1.482,0.685
	c-0.228,1.597,0.57,5.36,0.342,6.957c-0.342,0-0.569,0-0.797,0c-0.229,0.113-1.027-0.229-1.256-0.229
	c0.343,0.342,1.256,1.141,1.598,1.482c-0.229,0-0.457,0.114-0.685,0.114c-0.228,0.114-1.368,0.114-1.597,0.228
	c0.342,0.343,1.597,0.685,2.053,1.026c-0.229,0-0.456,0.114-0.799,0.114c-0.228,0.114-2.736-0.228-2.965-0.228
	c0.342,0.342,2.965,1.14,3.308,1.482c-0.228,0-0.456,0.114-0.685,0.114s-3.648-0.229-3.877-0.343
	c0.229,0.456,2.509,1.368,2.623,1.825c0.113,0.569,1.025,0.798,1.025,1.368C3.308,131.604,1.711,132.744,0,133.998L0,133.998z"/>
<path fill-rule="evenodd" clip-rule="evenodd" fill="#F9CE8A" d="M79.829,142.323c7.07,10.035-1.141,18.931-2.965,27.826
	c-0.456,2.166,1.482,5.588,5.132,9.465c9.465,10.149,9.922,23.265,23.036,21.782c6.956-0.799,1.597-3.079-0.343-6.957
	c-2.28-4.676-15.053-18.36-15.053-21.554c0-11.518,9.01-16.422,13.115-23.721c2.851-4.903-3.535-7.184-7.413-8.667
	C89.295,138.104,84.619,140.498,79.829,142.323L79.829,142.323z"/>
<path fill-rule="evenodd" clip-rule="evenodd" fill="#FFE298" d="M65.688,129.664l0.343-3.991
	c-10.036-1.597-21.668-3.421-29.651-10.035l0,0h-0.113c3.307-12.659,0.113-27.598-10.378-23.036
	c-11.974,5.245,1.026,16.878,9.466,23.378l-0.342-0.228c-2.738,9.579-9.238,17.79-19.045,14.825l1.254,0.456
	c9.808,2.736,15.738-5.018,18.475-14.369h0.342v-0.114C44.933,123.507,54.854,127.042,65.688,129.664L65.688,129.664z
	 M35.239,114.839c-7.526-6.271-19.272-15.966-8.554-20.869c8.439-3.877,11.746,8.667,8.668,20.869H35.239L35.239,114.839z"/>
<path fill-rule="evenodd" clip-rule="evenodd" fill="#F9CE8A" d="M126.814,131.261c3.648,3.422,12.771,6.615,17.904,7.755
	c5.359,1.255,3.535,26.229,3.078,32.616c-0.57,7.412-6.956,13.913-7.298,5.245c-0.343-7.184-1.938-6.044,0.342-5.815
	c1.711,0.228,0.456-13.229,0.456-15.396c0-5.018-4.903-4.562-8.097-4.904c-7.413-0.798-11.519-0.228-15.167-2.395
	C111.076,144.033,125.674,136.963,126.814,131.261L126.814,131.261z"/>
<path fill-rule="evenodd" clip-rule="evenodd" fill="#EAA653" d="M115.866,27.712c5.36,11.632,3.535,31.247,1.368,48.012
	c-1.597,12.772-11.176,24.86-23.036,24.86c-17.334,3.535-30.448,5.246-32.273,21.326c-1.368,22.01,2.509,34.212-3.079,41.853
	c-1.939,0-11.404,1.938-12.772,5.132c-3.193,8.211-5.474,26.115-10.378,32.159c0,3.422,7.07,6.729,10.264,4.904
	c1.597-12.545,2.166-12.887,4.676-24.519c1.938-7.299,10.72-6.614,13.115-7.755c9.807-4.904,8.438-10.72,12.201-20.414
	c3.193-8.438,1.141-9.807,9.922-8.78c0.799,0,14.598,2.965,13.001,0.456c-4.79,10.378,22.124,57.134,22.124,79.03
	c0,6.272,7.641,5.93,8.781,2.167c0.57-1.825-6.615-51.205-8.098-57.249c4.563-22.808,2.737-20.756,10.721-33.414
	c7.754-19.159,5.701-48.695,5.701-70.363c0.912-11.29,0-32.729-7.982-51.09C127.27,20.642,125.56,26.001,115.866,27.712
	L115.866,27.712z"/>
<path fill-rule="evenodd" clip-rule="evenodd" fill="#FFE298" d="M114.041,32.388c5.246,11.29,5.475,30.449,3.422,46.757
	c-1.597,12.544-12.658,22.58-24.177,22.58c-16.992,3.535-29.194,5.132-30.791,20.869c-1.483,21.439,1.71,35.467-3.764,42.994
	c-2.053,0-10.491,1.254-11.746,4.333c-3.192,7.982-4.676,25.773-9.579,31.703c0,3.422,5.246,6.614,8.324,4.79
	c1.598-12.316,1.027-14.369,3.65-25.659c1.824-7.07,11.746-6.5,14.141-7.641c9.465-4.79,9.237-13.571,12.887-23.036
	c3.193-8.097,1.141-7.527,9.693-6.501c0.798,0.114,15.053,2.965,13.457,0.57c-4.676,10.036,20.869,53.258,20.869,74.697
	c0,6.158,7.527,9.579,8.667,5.93c0.456-1.824-7.298-50.063-8.667-55.88c4.447-22.353,3.079-20.642,10.834-33.072
	c7.526-18.702,5.93-46.187,5.93-67.284c0.799-11.062-1.482-31.589-9.236-49.607C125.217,25.432,123.507,30.677,114.041,32.388
	L114.041,32.388z"/>
<path fill-rule="evenodd" clip-rule="evenodd" fill="#9C5D45" d="M37.52,202.993c0.342,2.166,7.869,1.482,8.211-0.456
	c3.08,1.482,4.105,9.351,4.105,9.351l-5.588,1.482l-0.342-4.105l-0.799,4.105c0,0-9.693-1.824-9.693-4.105
	C33.414,207.099,37.52,202.993,37.52,202.993L37.52,202.993z"/>
<path fill-rule="evenodd" clip-rule="evenodd" fill="#9C5D45" d="M98.189,199.571c0.342,2.281,9.352,0.343,9.693-1.482
	c2.965,1.482,4.105,9.352,4.105,9.352l-2.965,1.482l-0.456-4.105l-0.685,4.105c0,0-11.176,1.482-11.176-2.28
	C96.707,202.993,98.189,199.571,98.189,199.571L98.189,199.571z"/>
<path fill-rule="evenodd" clip-rule="evenodd" fill="#9C5D45" d="M121.682,223.521c0.457,2.28,7.869,1.482,8.325-0.343
	c2.966,1.482,4.105,9.352,4.105,9.352l-5.702,1.482l-1.482-5.245l0.457,5.245c0,0-9.809-1.938-9.809-4.105
	C117.576,227.626,121.682,223.521,121.682,223.521L121.682,223.521z"/>
<path fill-rule="evenodd" clip-rule="evenodd" fill="#9C5D45" d="M141.277,170.223c-1.482,1.608,0.684,10.993,2.509,11.396
	c-1.368,3.62-9.124,5.229-9.124,5.229l-0.912-1.476c1.482-0.401,2.966-0.938,4.448-1.474l-4.903,0.67c0,0-1.369-9.117,0.113-13.944
	C137.172,170.49,141.277,170.223,141.277,170.223L141.277,170.223z"/>
<path fill-rule="evenodd" clip-rule="evenodd" fill="#FFE298" d="M1.255,132.972c1.368-0.57,2.737,0.114,4.105-0.342
	c6.843-0.913,16.878-0.685,16.536-2.396c-2.053-4.219-13.115-4.903-13.343-13.343c-0.114,0.799-1.141-0.228-1.255,0.57
	c-0.229,1.369,0.457,4.79,0.229,6.158c-0.229,0-0.457,0-0.685,0.114c-0.228,0-0.912-0.342-1.14-0.228
	c0.342,0.228,1.14,0.912,1.482,1.254c-0.229,0-0.457,0.114-0.57,0.114c-0.229,0.114-1.255,0.114-1.482,0.228
	c0.342,0.229,1.482,0.57,1.824,0.913c-0.229,0-0.456,0.113-0.684,0.113c-0.229,0-2.396-0.228-2.623-0.228
	c0.228,0.342,2.623,1.026,2.965,1.254c-0.229,0.114-0.457,0.114-0.685,0.229c-0.228-0.114-3.193-0.342-3.421-0.342
	c0.113,0.342,2.28,1.254,2.395,1.596c0,0.457,0.912,0.685,0.912,1.141C4.334,130.805,2.737,131.945,1.255,132.972L1.255,132.972z"/>
<path fill-rule="evenodd" clip-rule="evenodd" fill="#EAA653" d="M6.387,127.155c0,0,7.185,4.105,13.913,3.079
	C17.106,131.489,9.01,129.437,6.387,127.155L6.387,127.155z"/>
<path fill-rule="evenodd" clip-rule="evenodd" fill="#EAA653" d="M6.729,125.901c0,0,7.756,2.736,13.914,3.877
	C16.194,129.095,10.492,127.954,6.729,125.901L6.729,125.901z"/>
<path fill-rule="evenodd" clip-rule="evenodd" fill="#EAA653" d="M6.957,124.875c0,0,8.325,0.342,13.457,4.676
	C18.361,126.813,10.379,124.419,6.957,124.875L6.957,124.875z"/>
<path fill-rule="evenodd" clip-rule="evenodd" fill="#EAA653" d="M7.641,123.393c0,0,5.703,3.307,13.115,6.5
	C18.703,127.155,9.466,124.875,7.641,123.393L7.641,123.393z"/>
<g>
	<g>
		<path fill-rule="evenodd" clip-rule="evenodd" fill="#FAB17D" d="M115.98,162.166c-1.598,2.852,1.368,4.22,4.676,5.474
			c0.798-3.648,1.368-6.728,1.824-9.237C119.629,158.973,117.006,160.342,115.98,162.166z M119.516,73.898
			c2.053,1.255,4.219-2.053,5.474-4.22c1.255-2.166,3.079-2.166,1.026-3.307c-1.711-1.026-5.588-0.685-7.527,0.912
			c-0.113,1.824-0.228,3.649-0.342,5.474C118.488,73.214,119.059,73.557,119.516,73.898z M110.164,102.522
			c3.991,2.281,11.404-4.219,13.799-8.324c2.395-4.22,1.482-7.869-2.395-10.15c-1.141-0.684-2.965-1.026-4.904-1.026
			c-1.711,5.931-5.474,10.948-10.377,14.369C107.313,99.672,108.682,101.61,110.164,102.522z M129.095,87.583
			c-2.395,4.105-5.018,17.106-1.14,19.388c2.166,1.254,5.701,1.026,8.895-0.229c0.342-5.359,0.456-10.948,0.456-16.308
			C133.998,87.583,130.577,85.074,129.095,87.583z M123.507,74.583c-2.396,4.105,5.588,5.246,9.466,7.412
			c2.623,1.482,3.421,1.482,4.333,0c0-3.991-0.114-7.868-0.114-11.518C132.744,69.451,125.56,71.048,123.507,74.583z
			 M126.472,60.328c-0.912,0.569,9.124,7.982,9.237-0.799c0.229-8.896-3.764-5.588-4.105-4.903
			c-0.456,0.569-5.246,1.938-6.044,2.509C124.762,57.591,127.385,59.644,126.472,60.328z M77.434,112.216
			c-4.789,0-9.465,2.966-9.465,7.413s7.185,3.649,11.975,3.649c4.789,0,10.149,2.509,10.149-2.053
			C90.093,116.778,82.225,112.216,77.434,112.216z M94.996,118.944c3.878,2.281,6.843-3.421,8.326-7.07
			c1.482-3.764,3.192-4.903,2.053-8.553c-1.141-3.649-12.659,2.053-15.055,6.158C87.926,113.585,91.119,116.664,94.996,118.944z
			 M126.13,109.365c-3.878-2.281-13.343-0.912-15.737,3.193c-2.396,4.22,2.395,12.658,6.271,14.939
			c3.877,2.28,9.466-6.158,11.86-10.264C130.92,113.015,130.007,111.646,126.13,109.365z M103.436,142.095
			c-2.395,4.105,5.588,5.246,9.465,7.413c3.878,2.28,3.764,0.912,6.158-3.193c2.396-4.105,3.992-5.246,0.115-7.526
			C115.296,136.507,105.83,137.876,103.436,142.095z M108.567,170.377c-0.798,2.509,1.71,3.193,2.851,4.562
			c1.255,1.369,1.141,0.456,1.939-1.938c0.684-2.509,1.254-3.193,0-4.562C112.217,167.07,109.252,167.982,108.567,170.377z
			 M111.875,158.402c1.482-2.509,2.508-3.192,0.113-4.447c-2.28-1.368-7.982-0.57-9.352,1.938c-1.482,2.396,3.308,3.079,5.589,4.448
			C110.62,161.71,110.506,160.912,111.875,158.402z M72.873,146.999c-2.281-1.369-7.983-0.57-9.352,1.938
			c-1.482,2.509-0.229,8.325,2.053,9.579c2.395,1.369,5.816-4.562,7.185-7.07C74.241,149.052,75.268,148.367,72.873,146.999z
			 M58.162,167.64c-1.483-0.798-5.019-0.342-5.932,1.255c-0.912,1.597,2.054,2.053,3.536,2.851c1.482,0.913,1.482,0.343,2.396-1.254
			C59.074,169.009,59.645,168.553,58.162,167.64z M73.898,130.234c-2.28-1.254-7.982-1.482-9.351,1.026
			c-1.483,2.509-0.229,5.36,2.167,6.729c2.28,1.369,12.088,0.229,13.57-2.28C81.654,133.313,76.294,131.604,73.898,130.234z
			 M109.708,130.349c2.395-4.105,1.597-5.246-2.281-7.526c-3.878-2.281-13.343-0.799-15.737,3.307s-2.737,9.693,1.141,11.975
			C96.707,140.385,107.313,134.454,109.708,130.349z"/>
	</g>
</g>
<path fill-rule="evenodd" clip-rule="evenodd" fill="#EAA653" d="M104.689,18.589c4.563,15.053,0.57-0.342-7.754,24.747
	c-5.133,3.649-9.01,4.675-8.211,15.053c0.342,5.36,4.447,9.58,9.579,8.211c5.815-1.597,10.948-3.307,12.544-6.5
	c2.852-2.737,9.352,0.57,17.335-2.167c15.852-5.018,17.448-11.975,18.589-20.299c1.025-8.781,0.684-12.202-0.685-16.194
	c4.22-0.228,10.149-0.342,13.799-6.956c1.368-2.395,1.71-9.922,0.114-13.229c-2.965,5.018-6.5,4.105-10.948,6.158
	c-2.622,1.026-2.965,4.562-6.5,5.701c-1.597,0.457-3.193-2.28-5.36-2.851c-1.254-0.456-11.062-1.254-12.43-0.685
	c-3.65,1.369-12.089,0.799-15.738,0.799C103.892,2.167,97.733,6.5,91.233,0C93.971,21.212,102.865,13.343,104.689,18.589
	L104.689,18.589z"/>
<path fill-rule="evenodd" clip-rule="evenodd" fill="#FFE298" d="M105.83,18.36c4.334,14.142-0.342,2.737-8.097,26.344
	c-4.79,3.535-9.009,3.535-8.325,13.343c0.342,5.018,4.22,9.009,9.01,7.755c5.588-1.597,9.579-2.623,10.947-5.588
	c2.737-2.509,11.519-0.114,18.932-2.737c14.711-5.588,16.193-12.431,17.105-20.299c1.027-8.325,0.457-13.8-0.798-17.448
	c3.877-0.229,9.693,2.053,13.229-4.105c1.255-2.281,3.193-9.922,1.255-11.519c-3.649,3.308-5.36,2.965-9.58,4.79
	c-2.395,1.14-3.877,5.474-7.184,6.5c-1.483,0.456-3.878-3.193-5.816-3.764c-1.255-0.342-10.492-1.14-11.746-0.684
	c-3.535,1.368-11.404,0.798-14.826,0.798c-4.789-7.641-10.605-3.649-16.764-9.808C95.681,21.896,104.119,13.457,105.83,18.36
	L105.83,18.36z"/>
<path fill-rule="evenodd" clip-rule="evenodd" fill="#C36E35" d="M91.233,47.669c-0.913,1.026-1.597,2.509-2.167,4.334
	c-0.114,0.228-0.114,0.456-0.114,0.684c0.685,0.343,1.255,0.457,2.054,0.343c0.684-0.114,1.367-0.685,1.596-1.255
	c0.229-0.456,0.57-0.684,0.456-1.368c-0.228-0.685-0.685-1.482-1.14-2.053C91.689,48.125,91.461,47.897,91.233,47.669L91.233,47.669
	z"/>
<path fill-rule="evenodd" clip-rule="evenodd" fill="#2E2C2C" d="M108.111,32.844c0.456-0.912,0-2.167,0.114-2.395
	c0.114-0.685,0.912-0.456,0.685-0.229C108.567,30.449,108.453,31.932,108.111,32.844L108.111,32.844z"/>
<path fill-rule="evenodd" clip-rule="evenodd" fill="#2E2C2C" d="M103.207,32.958c1.255-1.026,1.598-3.308,1.825-3.535
	c0.685-0.799,1.597,0.456,1.255,0.342C105.603,29.765,104.348,31.932,103.207,32.958L103.207,32.958z"/>
<path fill-rule="evenodd" clip-rule="evenodd" fill="#2E2C2C" d="M133.543,25.089c-0.799,0.57-3.08,2.852-3.878,4.334
	c3.308,2.28,4.105,2.28,8.097,2.166c1.824,0,2.395-0.912,3.992-2.395C139.814,25.659,136.508,22.694,133.543,25.089L133.543,25.089z
	"/>
<path fill-rule="evenodd" clip-rule="evenodd" fill="#FFFFFF" d="M136.394,25.203c-2.396,0.114-3.536,0.57-5.816,4.22
	c0.913,0.456,1.938,1.938,3.878,1.824c2.736-0.114,3.535,1.255,6.956-2.053C140.156,27.256,138.674,25.089,136.394,25.203
	L136.394,25.203z"/>
<path fill-rule="evenodd" clip-rule="evenodd" fill="#4AB2E1" d="M136.051,25.432c-1.596,0.228-3.193,1.596-3.078,3.877
	c0,2.737,4.676,2.623,6.613,1.255c1.027-0.685,1.141-0.685,1.141-1.711C140.613,27.598,138.788,24.861,136.051,25.432
	L136.051,25.432z"/>
<path fill-rule="evenodd" clip-rule="evenodd" fill="#2E2C2C" stroke="#2E2C2C" stroke-width="0" stroke-linecap="square" stroke-miterlimit="10" d="
	M136.508,26.8c-3.65,0.456-2.51,4.789,0,4.676c1.025,0,1.596,0.113,2.28-0.229C141.639,29.536,139.016,26.001,136.508,26.8
	L136.508,26.8z"/>
<path fill-rule="evenodd" clip-rule="evenodd" fill="#2E2C2C" d="M140.385,23.492c-0.113,1.026-1.141,1.825-1.141,2.053
	c-0.229,0.685,0.799,0.913,0.57,0.685C139.701,25.888,140.271,24.404,140.385,23.492L140.385,23.492z"/>
<path fill-rule="evenodd" clip-rule="evenodd" fill="#2E2C2C" d="M135.253,22.01c0.57,1.026,0.114,2.281,0.114,2.623
	c0.229,0.57,1.254,0.342,1.026,0.229C135.938,24.633,135.709,22.922,135.253,22.01L135.253,22.01z"/>
<path fill-rule="evenodd" clip-rule="evenodd" fill="#2E2C2C" d="M132.288,22.238c1.026,0.798,1.14,2.509,1.255,2.736
	c0.569,0.57,1.596-0.228,1.254-0.228C134.227,24.747,133.2,23.036,132.288,22.238L132.288,22.238z"/>
<path fill-rule="evenodd" clip-rule="evenodd" fill="#2E2C2C" d="M128.639,25.203c1.482,0.229,2.509,1.824,2.852,1.938
	c0.798,0.343,1.367-1.026,1.025-0.798C131.945,26.571,130.007,25.432,128.639,25.203L128.639,25.203z"/>
<path fill-rule="evenodd" clip-rule="evenodd" fill="#2E2C2C" d="M141.867,32.844c-0.456-0.912-1.711-1.368-1.824-1.482
	c-0.457-0.57,0.342-1.141,0.342-0.912C140.271,30.905,141.411,31.932,141.867,32.844L141.867,32.844z"/>
<path fill-rule="evenodd" clip-rule="evenodd" fill="#2E2C2C" d="M139.358,34.212c0-1.14-0.912-2.166-0.912-2.395
	c-0.114-0.798,0.912-0.912,0.798-0.685C138.902,31.589,139.358,33.072,139.358,34.212L139.358,34.212z"/>
<path fill-rule="evenodd" clip-rule="evenodd" fill="#2E2C2C" d="M135.253,35.809c0.57-1.482,0.114-3.535,0.114-3.877
	c0.229-1.026,1.254-0.57,0.912-0.343C135.938,31.932,135.709,34.326,135.253,35.809L135.253,35.809z"/>
<path fill-rule="evenodd" clip-rule="evenodd" fill="#2E2C2C" d="M130.577,34.099c1.255-0.799,1.597-2.623,1.825-2.852
	c0.684-0.684,1.596,0.342,1.254,0.342C132.973,31.589,131.718,33.3,130.577,34.099L130.577,34.099z"/>
<path fill-rule="evenodd" clip-rule="evenodd" fill="#C36E35" d="M100.356,52.687c-0.685,0.114-1.597,0.57-1.482,1.369
	c0,0.456-0.114,0.57,0,1.026c0.228,0.684,0.798,2.965,1.482,2.965c1.141,0.114,1.825,0.229,2.737-0.229
	c0.57-0.342,1.025-1.14,1.025-1.71c0.115-0.57,0.343-0.913,0-1.482c-0.342-0.685-1.14-1.255-1.71-1.597
	C101.611,52.687,101.269,52.459,100.356,52.687L100.356,52.687z"/>
<path fill-rule="evenodd" clip-rule="evenodd" fill="#C36E35" d="M140.841,4.334c0.913,0.228,0.913,0.228,1.825,0.456
	c-1.141,3.192-1.482,8.211-2.623,11.404c-1.255,1.14-2.852-0.457-3.422-1.141C137.762,11.86,139.701,7.413,140.841,4.334
	L140.841,4.334z"/>
<path fill-rule="evenodd" clip-rule="evenodd" fill="#C28557" d="M140.385,3.764c0.685,1.026,1.824,0.456,2.736,0.798
	c0,0.685,0,0.799-0.342,1.368c-0.912,0-2.166-0.228-2.851-0.569C139.701,4.79,139.929,4.447,140.385,3.764L140.385,3.764z"/>
<path fill-rule="evenodd" clip-rule="evenodd" fill="#C36E35" d="M112.217,1.482c0.912-0.114,0.912-0.228,1.824-0.228
	c0.229,3.307,2.395,9.807,2.623,13.114c-0.798,1.482-3.421,0-4.105-0.456C112.445,10.72,112.331,4.79,112.217,1.482L112.217,1.482z"
	/>
<path fill-rule="evenodd" clip-rule="evenodd" fill="#C28557" d="M111.761,1.141c0.57,0.342,2.28,0.114,2.737-0.343
	c0.113,0.685,0.113,1.255,0.228,1.825c-0.798,0.342-2.167,0.228-2.965,0.114C111.761,2.167,111.761,1.824,111.761,1.141
	L111.761,1.141z"/>
<path fill-rule="evenodd" clip-rule="evenodd" fill="#9C5D45" d="M113.129,0.456c0.799-0.114,1.482,0,1.482,0.229
	c0,0.228-0.684,0.57-1.482,0.57c-0.798,0.113-1.368,0-1.368-0.229S112.331,0.456,113.129,0.456L113.129,0.456z"/>
<path fill-rule="evenodd" clip-rule="evenodd" fill="#FFFFFF" d="M135.253,28.511c0.685,0,1.141-0.343,1.141-0.913
	s-0.456-1.026-1.141-1.026c-0.569,0-1.026,0.456-1.026,1.026S134.684,28.511,135.253,28.511L135.253,28.511z"/>
<path fill-rule="evenodd" clip-rule="evenodd" fill="#2E2C2C" d="M107.77,24.063c-0.799,0.685-3.08,2.965-3.878,4.334
	c3.193,2.395,3.991,2.28,7.983,2.28c1.938-0.113,2.395-0.912,3.991-2.395C114.041,24.747,110.62,21.782,107.77,24.063L107.77,24.063
	z"/>
<path fill-rule="evenodd" clip-rule="evenodd" fill="#FFFFFF" d="M110.62,24.291c-2.395,0-3.649,0.456-5.815,4.22
	c0.912,0.342,1.938,1.824,3.877,1.824c2.736-0.229,3.535,1.254,6.956-2.167C114.383,26.229,112.9,24.177,110.62,24.291
	L110.62,24.291z"/>
<path fill-rule="evenodd" clip-rule="evenodd" fill="#4AB2E1" d="M110.164,24.404c-1.482,0.343-3.079,1.597-3.079,3.992
	c0.114,2.736,4.676,2.623,6.729,1.254c1.026-0.684,1.14-0.684,1.026-1.824C114.84,26.571,113.016,23.835,110.164,24.404
	L110.164,24.404z"/>
<path fill-rule="evenodd" clip-rule="evenodd" fill="#2E2C2C" stroke="#2E2C2C" stroke-width="0" stroke-linecap="square" stroke-miterlimit="10" d="
	M110.734,25.773c-3.649,0.57-2.509,4.903,0,4.676c0.912,0.114,1.482,0.228,2.281-0.229
	C115.866,28.624,113.243,25.089,110.734,25.773L110.734,25.773z"/>
<path fill-rule="evenodd" clip-rule="evenodd" fill="#2E2C2C" d="M114.498,22.466c0,1.141-1.027,1.938-1.141,2.167
	c-0.114,0.57,0.798,0.912,0.684,0.685C113.813,24.861,114.498,23.492,114.498,22.466L114.498,22.466z"/>
<path fill-rule="evenodd" clip-rule="evenodd" fill="#2E2C2C" d="M109.48,20.983c0.455,1.026,0,2.395,0.113,2.623
	c0.114,0.685,1.254,0.456,0.912,0.229C110.164,23.606,109.936,22.01,109.48,20.983L109.48,20.983z"/>
<path fill-rule="evenodd" clip-rule="evenodd" fill="#2E2C2C" d="M106.515,21.212c1.026,0.912,1.026,2.509,1.255,2.736
	c0.57,0.685,1.482-0.113,1.141-0.113C108.34,23.721,107.427,22.124,106.515,21.212L106.515,21.212z"/>
<path fill-rule="evenodd" clip-rule="evenodd" fill="#2E2C2C" d="M102.865,24.291c1.482,0.228,2.51,1.824,2.852,1.938
	c0.798,0.229,1.368-1.026,1.025-0.912C106.059,25.659,104.234,24.519,102.865,24.291L102.865,24.291z"/>
<path fill-rule="evenodd" clip-rule="evenodd" fill="#2E2C2C" d="M116.094,31.817c-0.456-0.912-1.711-1.254-1.938-1.482
	c-0.342-0.456,0.456-1.141,0.343-0.799C114.498,29.993,115.638,31.02,116.094,31.817L116.094,31.817z"/>
<path fill-rule="evenodd" clip-rule="evenodd" fill="#2E2C2C" d="M113.471,33.186c0.115-1.026-0.912-2.166-0.912-2.395
	c-0.113-0.685,1.027-0.798,0.799-0.57C113.129,30.563,113.586,32.159,113.471,33.186L113.471,33.186z"/>
<path fill-rule="evenodd" clip-rule="evenodd" fill="#2E2C2C" d="M110.05,34.668c0.456-1.482,0-3.535,0.114-3.877
	c0.229-0.912,1.141-0.57,0.912-0.342C110.62,30.791,110.506,33.3,110.05,34.668L110.05,34.668z"/>
<path fill-rule="evenodd" clip-rule="evenodd" fill="#2E2C2C" d="M104.689,33.186c1.255-0.798,1.598-2.736,1.825-2.851
	c0.685-0.685,1.711,0.342,1.368,0.342C107.199,30.677,105.944,32.388,104.689,33.186L104.689,33.186z"/>
<path fill-rule="evenodd" clip-rule="evenodd" fill="#FFFFFF" d="M109.48,27.598c0.569,0,1.14-0.456,1.14-1.026
	s-0.57-1.026-1.14-1.026c-0.57,0-1.141,0.456-1.141,1.026S108.91,27.598,109.48,27.598L109.48,27.598z"/>
<path fill-rule="evenodd" clip-rule="evenodd" fill="#FFEAD0" d="M107.427,14.142c0.114-0.229,0.343-0.57,0.57-0.913
	c-2.622-3.991-5.815-1.824-9.123-5.132c1.255,10.036,5.245,7.07,6.614,8.439C106.172,15.852,106.629,14.939,107.427,14.142
	L107.427,14.142z"/>
<path fill-rule="evenodd" clip-rule="evenodd" fill="#2E2C2C" d="M114.27,20.642c0.57,0,1.141-0.456,1.141-1.026
	s-0.57-1.026-1.141-1.026s-1.141,0.456-1.141,1.026S113.699,20.642,114.27,20.642L114.27,20.642z"/>
<path fill-rule="evenodd" clip-rule="evenodd" fill="#2E2C2C" d="M134.568,21.668c0.57,0,1.027-0.456,1.027-1.026
	s-0.457-1.026-1.027-1.026c-0.684,0-1.141,0.456-1.141,1.026S133.885,21.668,134.568,21.668L134.568,21.668z"/>
<path fill-rule="evenodd" clip-rule="evenodd" fill="#FFEAD0" d="M144.832,19.272c-0.228-0.342-0.456-0.684-0.684-0.912
	c1.824-5.359,9.01-5.93,13-8.325c-1.254,10.15-10.947,8.098-12.316,9.58C144.148,18.816,145.517,19.957,144.832,19.272
	L144.832,19.272z"/>
<path fill-rule="evenodd" clip-rule="evenodd" fill="#9C5D45" d="M141.867,3.649c0.799,0.228,1.369,0.57,1.254,0.798
	c0,0.229-0.684,0.229-1.482,0.114c-0.798-0.228-1.367-0.456-1.367-0.685C140.385,3.535,141.069,3.535,141.867,3.649L141.867,3.649z"
	/>
<path fill-rule="evenodd" clip-rule="evenodd" fill="#EAA653" d="M119.401,54.283c-1.255,2.623-2.509,3.764-3.764,4.334
	c-1.938,1.368-3.649,0.798-4.903,1.141c0,0-0.457,0-0.114-0.343C113.813,58.617,117.121,58.047,119.401,54.283L119.401,54.283z"/>
<path fill-rule="evenodd" clip-rule="evenodd" fill="#EAA653" d="M119.972,54.968c-0.343-0.229-0.456-1.141-1.255-1.026
	c0,0-0.113-0.229,0.114-0.229c0.456,0.229,0.685,0.343,1.255,1.026C120.199,54.968,120.086,55.082,119.972,54.968L119.972,54.968z"
	/>
<path fill-rule="evenodd" clip-rule="evenodd" fill="#C6865B" d="M135.367,2.623c-15.51,0.912-5.93,6.387-11.633,6.272
	c-2.166-5.588-10.834-6.729-15.852,0.912c-1.141,1.482,9.123-6.5,10.948,0.114c-1.71-1.939-9.579,0.342-14.597,3.307
	c10.491,2.509,8.324-1.026,10.719-0.684c-1.025,1.14-0.228-1.141-2.395,1.938c-2.053,2.851-2.166,7.412-1.824,8.438
	c0.342,0.913,1.482-4.903,4.903-6.386c2.281-1.026,4.106-3.991,5.702-3.193c-2.736-0.229-6.729,0.799-2.395,8.896
	c-1.254-8.667,8.553-4.448,8.097-8.781c2.167,3.307,7.983,2.167,11.746,4.333c-4.562-8.324-4.676-7.868-12.544-7.755
	C129.551,10.149,132.516,10.035,135.367,2.623L135.367,2.623z"/>
<path fill-rule="evenodd" clip-rule="evenodd" fill="#FAB599" d="M133.771,3.764c-13.685,0.798-5.132,5.702-10.264,5.588
	c-1.938-5.018-9.693-6.044-14.142,0.798c-0.912,1.369,8.098-5.702,9.809,0c-1.598-1.597-8.554,0.456-13.002,3.079
	c9.238,2.167,7.414-0.912,9.466-0.57c-0.798,0.913-0.114-1.14-2.052,1.597c-1.939,2.623-1.939,6.614-1.598,7.527
	c0.229,0.912,1.255-4.334,4.22-5.702c2.053-0.913,3.764-3.535,5.132-2.852c-2.395-0.114-5.93,0.799-2.053,7.983
	c-1.141-7.755,7.527-3.992,7.07-7.869c2.053,2.965,7.07,1.938,10.492,3.877c-4.105-7.412-4.22-6.956-11.176-6.842
	C128.639,10.492,131.262,10.378,133.771,3.764L133.771,3.764z"/>
</svg>
