<?xml version="1.0" encoding="utf-8"?>
<!-- Generator: Adobe Illustrator 13.0.0, SVG Export Plug-In . SVG Version: 6.00 Build 14948)  -->
<svg version="1.2" baseProfile="tiny" id="Layer_1" xmlns="http://www.w3.org/2000/svg" xmlns:xlink="http://www.w3.org/1999/xlink"
	 x="0px" y="0px" width="104.954px" height="156.966px" viewBox="0 0 104.954 156.966" xml:space="preserve">
<path fill="#24211D" d="M34.86,65.513c0,0-13.85,17.494-17.494,28.428c-2.915,2.916-22.596,10.934-16.035,29.156
	c7.289,18.223,19.68,40.819,78.722,24.783c16.036-2.916,25.512-26.241-0.729-77.265C73.493,58.953,34.86,59.682,34.86,65.513
	L34.86,65.513z"/>
<path fill="none" stroke="#FFFFFF" stroke-width="0" stroke-linecap="square" stroke-miterlimit="10" d="M34.86,65.513
	c0,0-13.85,17.494-17.494,28.428c-2.915,2.916-22.596,10.934-16.035,29.156c7.289,18.223,19.68,40.819,78.722,24.783
	c16.036-2.916,25.512-26.241-0.729-77.265C73.493,58.953,34.86,59.682,34.86,65.513L34.86,65.513z"/>
<path fill="#FFFFFF" d="M86.613,74.26c-9.476,9.476-43.006,0-51.753-6.56c-16.036-1.458-16.765-12.392-16.036-24.783
	c2.187-11.663,15.308-27.699,21.139-30.614c11.662-5.832,37.903-0.729,40.819,3.645C82.968,19.592,94.63,34.17,95.36,48.748
	C96.088,57.495,96.088,65.513,86.613,74.26L86.613,74.26z"/>
<path fill="none" stroke="#282421" stroke-width="0" stroke-linecap="square" stroke-miterlimit="10" d="M86.613,74.26
	c-9.476,9.476-43.006,0-51.753-6.56c-16.036-1.458-16.765-12.392-16.036-24.783c2.187-11.663,15.308-27.699,21.139-30.614
	c11.662-5.832,37.903-0.729,40.819,3.645C82.968,19.592,94.63,34.17,95.36,48.748C96.088,57.495,96.088,65.513,86.613,74.26
	L86.613,74.26z"/>
<path fill="#DDDDDC" d="M27.571,37.814c0,0.729,0,1.458-0.729,1.458c-0.729,0-1.458,0-2.188-0.729L27.571,37.814z M24.655,38.543
	c-1.457-5.103,8.019-16.765,13.121-23.325l2.187,1.458c-5.103,6.56-13.12,17.494-12.392,21.138L24.655,38.543z M37.776,15.218
	c0.729-1.458,1.458-2.187,2.187-2.916l2.187,1.458c-0.729,0.729-1.458,2.187-2.187,2.916L37.776,15.218z M39.962,12.303
	c0.729-0.729,1.458-1.458,1.458-1.458l1.458,2.187c0,0,0,0-0.729,0.729L39.962,12.303z M41.42,10.845l1.458,2.187l-0.729-1.458
	L41.42,10.845z M42.878,13.032L42.878,13.032l-1.458-2.187l0,0L42.878,13.032z M42.878,13.032c0,0.729-1.458,0.729-1.458,0
	c-0.729-0.729-0.729-1.458,0-2.187L42.878,13.032z"/>
<path fill="#24211D" d="M51.625,34.899c0.729-0.729,8.747-5.832,10.934,0.729c7.289,8.018,7.289,7.289,4.374,13.12
	c0,0-8.019,6.56-13.12,2.916c-5.103-4.373-2.916-6.56-2.916-6.56S46.523,38.543,51.625,34.899L51.625,34.899z"/>
<path fill="#24211D" d="M29.757,29.796c2.187-0.729,8.019,0.729,5.103,8.018c0,0-7.289,2.916-8.018,4.374
	C26.842,44.375,17.366,36.356,29.757,29.796L29.757,29.796z"/>
<path fill="#24211D" d="M29.029,45.833c1.458-1.458,10.205,0,10.934,2.187c0.729,2.187-0.729,2.916-2.187,3.645
	c-2.187,1.458-5.832,2.187-5.832,2.187S26.113,47.291,29.029,45.833L29.029,45.833z"/>
<path fill="#FFFFFF" d="M56.727,44.375c0,0.729,1.458,1.458,2.187,0.729c0.729,0,1.458-0.729,0.729-2.187
	c0-0.729-0.729-0.729-2.187-0.729C56.727,42.917,55.999,43.646,56.727,44.375L56.727,44.375z"/>
<path fill="#FFFFFF" d="M29.757,36.356c0,0.729,0.729,1.458,0.729,0.729c0.729,0,0.729-0.729,0.729-0.729
	c0-0.729-0.729-1.458-1.458-0.729C29.757,35.628,29.029,36.356,29.757,36.356L29.757,36.356z"/>
<path fill="#DDDDDC" d="M68.39,14.489c9.476,3.645,20.409,28.428,19.681,36.446c0,7.289,3.645,1.458,3.645,1.458l-1.458,7.289
	l-8.019-7.289c0,0-2.915,0-3.645,6.56c-0.729,6.56-19.681,5.832-19.681,5.832V54.58l-4.373-2.187c0,0,0,4.374-3.645,8.019
	c-3.645,2.915-13.12,5.102-13.12,5.102l-4.374-1.457l1.458,2.187c9.476,5.831,20.409,8.747,32.072,10.204
	c10.934,2.188,24.783-3.645,26.97-21.867c-0.729-17.494-14.578-38.632-17.494-40.09c-1.458-0.729-13.85-5.831-17.494-2.187
	C54.541,15.218,64.746,13.032,68.39,14.489L68.39,14.489z"/>
<line fill="none" stroke="#24211D" stroke-width="0" stroke-linecap="square" stroke-miterlimit="10" x1="29.757" y1="26.152" x2="20.282" y2="24.694"/>
<line fill="none" stroke="#24211D" stroke-width="0" stroke-linecap="square" stroke-miterlimit="10" x1="33.402" y1="23.236" x2="26.842" y2="18.863"/>
<line fill="none" stroke="#24211D" stroke-width="0" stroke-linecap="square" stroke-miterlimit="10" x1="34.86" y1="20.321" x2="31.944" y2="19.592"/>
<line fill="none" stroke="#24211D" stroke-width="0" stroke-linecap="square" stroke-miterlimit="10" x1="36.318" y1="15.218" x2="27.571" y2="10.116"/>
<path fill="none" stroke="#24211D" stroke-width="0" stroke-linecap="square" stroke-miterlimit="10" d="M72.763,23.236
	c1.458-0.729,2.916-0.729,5.103-2.187c-1.458,1.458-2.187,2.916-3.645,4.373c1.458,0,3.645,0,5.103,0
	c-0.729,0.729-1.458,2.187-2.187,2.916c2.187-0.729,5.102,0,6.56,0c-1.458,0.729-2.187,2.187-3.645,2.916
	c3.645,0,7.289,1.458,10.205,3.645"/>
<path fill="none" stroke="#24211D" stroke-width="0" stroke-linecap="square" stroke-miterlimit="10" d="M88.071,58.953
	c0.729-1.458,2.187-1.458,3.645-0.729c-0.729,0-3.645,0-5.103,0c2.187,0.729,2.915,2.187,4.373,2.916
	c-0.729,0.729-2.187,0.729-2.915,1.458c0.729,0.729,1.457,1.458,1.457,2.915c-1.457-0.729-3.645,0-5.102-0.729
	c0.729,1.458,0.729,2.916,1.457,3.645"/>
<path fill="#24211D" d="M79.324,15.947c0,0,8.018,21.867,10.934,23.325c3.645,1.458,12.392-0.729,14.578-11.663
	c1.458-10.205-10.934-21.867-18.952-18.223C77.866,13.032,77.866,12.303,79.324,15.947L79.324,15.947z"/>
<path fill="#24211D" d="M52.354,10.116c0,0-19.681,6.56-18.952,13.12c-2.915-0.729-8.747-10.205-4.373-17.494
	C34.131-0.818,53.083-4.462,52.354,10.116L52.354,10.116z"/>
<path fill="#FFFFFF" d="M47.251,73.531c0,0-10.934-5.103-14.578-0.729c-2.916,5.103-10.205,20.41-10.934,21.867
	c-0.729,1.458-10.205,3.645-12.392,11.663c-2.187,8.747,2.916,40.09,36.445,32.801C56.727,137.675,80.782,112.893,47.251,73.531
	L47.251,73.531z"/>
<path fill="none" stroke="#24211D" stroke-width="0" stroke-linecap="square" stroke-miterlimit="10" d="M47.251,73.531
	c0,0-10.934-5.103-14.578-0.729c-2.916,5.103-10.205,20.41-10.934,21.867c-0.729,1.458-10.205,3.645-12.392,11.663
	c-2.187,8.747,2.916,40.09,36.445,32.801C56.727,137.675,80.782,112.893,47.251,73.531L47.251,73.531z"/>
<path fill="#DDDDDC" d="M44.335,80.091c0,0,6.561,10.205,4.374,15.308c-1.458,5.831-8.019,5.103-9.476,4.373
	c-2.188-0.729,6.56,5.103,20.409,0c1.458-5.103-3.645-18.223-12.392-26.24c-0.729-0.729-5.831-2.916-9.476-2.187
	C34.86,71.345,38.504,72.802,44.335,80.091L44.335,80.091z"/>
<path fill="none" stroke="#24211D" stroke-width="0" stroke-linecap="square" stroke-miterlimit="10" d="M10.077,116.537
	c0,0,12.392,16.035,25.513,10.934c13.12-5.103,24.782-10.934,26.969-14.578c2.188-4.374,0.729,12.391-0.729,13.12
	c-0.729,1.458-42.276,32.801-52.481-8.747"/>
<path fill="#24211D" d="M69.119,81.549c0,0,18.952,4.374,14.578,12.392c-4.373,8.018-29.885,38.632-40.09,34.259
	C34.131,123.826,61.101,88.109,69.119,81.549L69.119,81.549z"/>
<path fill="#24211D" d="M29.757,78.634c0,0-5.103,8.018-7.289,12.391C15.179,103.416,7.89,87.38,4.975,75.718
	C1.331,64.056,15.909,51.664,20.282,51.664c3.645,0.729,4.373,8.018,2.187,12.392C20.282,68.429,27.571,77.904,29.757,78.634
	L29.757,78.634z"/>
<path fill="#DDDDDC" d="M30.487,83.007c0,0-1.458,2.187-1.458,10.934c0,2.916,2.187,3.645,3.645,5.103s-10.205-4.374-16.036,1.458
	c-4.373,2.915-5.103,4.373-5.831,5.831c-0.729,0.729-2.187,5.831-2.187,5.831s-1.458-13.12,13.12-16.765
	c2.187-3.645,9.476-22.597,11.662-22.597C31.944,77.176,31.215,79.362,30.487,83.007L30.487,83.007z"/>
<path fill="#24211D" d="M75.679,125.283c0,0,16.036,21.867,3.645,26.241c-12.392,4.373-68.518,10.934-74.349-2.916
	C-0.857,134.76,61.101,124.555,75.679,125.283L75.679,125.283z"/>
<path fill-rule="evenodd" fill="#FFFFFF" d="M33.402,31.254c-0.729-0.729-1.458-1.458-1.458-1.458l-0.729,0.729
	c0,0,1.458,0,1.458,0.729S33.402,31.254,33.402,31.254L33.402,31.254z"/>
<path fill-rule="evenodd" fill="#605E5D" d="M57.457,46.562c1.457,0,3.645-1.458,3.645-2.916c0.729-2.187-0.729-3.645-2.916-4.374
	c-1.458,0-2.916,1.458-3.645,3.645C54.541,44.375,55.269,46.562,57.457,46.562L57.457,46.562z"/>
<path fill="none" stroke="#24211D" stroke-width="0" stroke-linecap="square" stroke-miterlimit="10" d="M57.457,46.562
	c1.457,0,3.645-1.458,3.645-2.916c0.729-2.187-0.729-3.645-2.916-4.374c-1.458,0-2.916,1.458-3.645,3.645
	C54.541,44.375,55.269,46.562,57.457,46.562L57.457,46.562z"/>
<path fill-rule="evenodd" fill="#FFFFFF" d="M57.457,45.833c1.457,0.729,2.915-0.729,2.915-2.187
	c0.729-1.458-0.729-2.916-2.187-3.645c-1.458,0-2.916,1.458-2.916,2.916C55.269,44.375,55.999,45.833,57.457,45.833L57.457,45.833z"
	/>
<path fill-rule="evenodd" fill="#73635B" d="M57.457,45.833c0.729,0,1.457,0,2.187,0c0-0.729,0.729-0.729,0.729-1.458
	c0-1.458-0.729-2.187-2.187-2.187c-0.729,0-2.187,0.729-2.187,1.458c0,0.729,0,1.458,0.729,2.187
	C57.457,45.833,57.457,45.833,57.457,45.833L57.457,45.833z"/>
<path fill-rule="evenodd" fill="#24211D" d="M57.457,45.833c0.729,0,1.457-0.729,2.187-1.458c0-0.729-0.729-1.458-1.458-1.458
	s-1.458,0-2.187,1.458C55.999,45.104,56.727,45.833,57.457,45.833L57.457,45.833z"/>
<path fill="none" stroke="#24211D" stroke-width="0" stroke-linecap="square" stroke-miterlimit="10" d="M57.457,45.833
	c0.729,0,1.457-0.729,2.187-1.458c0-0.729-0.729-1.458-1.458-1.458s-1.458,0-2.187,1.458C55.999,45.104,56.727,45.833,57.457,45.833
	L57.457,45.833z"/>
<path fill-rule="evenodd" fill="#FFFFFF" d="M56.727,43.646c0,0.729,0.729,0,0.729,0c0-0.729,0-0.729-0.729-0.729h-0.729
	C55.999,43.646,55.999,43.646,56.727,43.646L56.727,43.646z"/>
<path fill-rule="evenodd" fill="#828180" d="M29.757,39.272c1.458,0.729,2.916-0.729,2.916-2.187
	c0.729-1.458-0.729-2.916-2.187-3.645c-1.458,0-2.916,1.458-3.645,2.916C26.842,37.814,27.571,39.272,29.757,39.272L29.757,39.272z"
	/>
<path fill-rule="evenodd" fill="#FFFFFF" d="M57.457,36.356c-2.188-0.729-3.645,0.729-3.645,0.729s-0.729,0.729,0,1.458
	c0.729,0,2.187-1.458,3.645-1.458C58.914,37.814,57.457,36.356,57.457,36.356L57.457,36.356z"/>
<path fill-rule="evenodd" fill="#FFFFFF" d="M29.757,39.272c1.458,0.729,2.916-0.729,2.916-2.187c0-1.458-0.729-2.916-2.187-2.916
	c-1.458,0-2.916,0.729-2.916,2.187C26.842,37.814,28.299,39.272,29.757,39.272L29.757,39.272z"/>
<path fill-rule="evenodd" fill="#73635B" d="M29.757,39.272c0.729,0.729,1.458,0,2.187,0c0-0.729,0-0.729,0-1.458
	s-0.729-2.187-1.457-2.187c-1.458,0-2.188,0.729-2.188,1.458c-0.729,0.729,0,1.458,0,2.187
	C29.029,39.272,29.029,39.272,29.757,39.272L29.757,39.272z"/>
<path fill-rule="evenodd" fill="#24211D" d="M29.757,39.272c0.729,0,1.458-0.729,2.187-1.458c0-0.729-0.729-1.458-1.457-1.458
	c-0.729,0-2.188,0.729-2.188,1.458S29.029,39.272,29.757,39.272L29.757,39.272z"/>
<path fill-rule="evenodd" fill="#FFFFFF" d="M28.299,37.814c0.729,0,0.729-0.729,0.729-0.729v-0.729c-0.729,0-0.729,0-0.729,0.729
	V37.814L28.299,37.814z"/>
<path fill-rule="evenodd" fill="#24211D" d="M37.776,53.851L37.776,53.851L37.776,53.851c-0.729,0-0.729,0-0.729,0l0,0
	c0,0.729,0,0.729,0,0.729h0.729C37.776,54.58,37.776,54.58,37.776,53.851L37.776,53.851L37.776,53.851z"/>
<path fill="none" stroke="#24211D" stroke-width="0" stroke-linecap="square" stroke-miterlimit="10" d="M37.776,53.851
	L37.776,53.851L37.776,53.851c-0.729,0-0.729,0-0.729,0l0,0c0,0.729,0,0.729,0,0.729h0.729C37.776,54.58,37.776,54.58,37.776,53.851
	L37.776,53.851L37.776,53.851z"/>
<path fill-rule="evenodd" fill="#24211D" d="M40.691,55.308c0,0,0-0.729-0.729-0.729l0,0h-0.729c0,0.729,0,0.729,0,0.729h0.729l0,0
	H40.691L40.691,55.308L40.691,55.308z"/>
<path fill="none" stroke="#24211D" stroke-width="0" stroke-linecap="square" stroke-miterlimit="10" d="M40.691,55.308
	c0,0,0-0.729-0.729-0.729l0,0h-0.729c0,0.729,0,0.729,0,0.729h0.729l0,0H40.691L40.691,55.308L40.691,55.308z"/>
<path fill-rule="evenodd" fill="#24211D" d="M41.42,53.122c0,0,0-0.729-0.729-0.729l0,0c0,0-0.729-0.729-0.729,0l0,0l0,0
	c0.729,0.729,0.729,0.729,0.729,0.729l0,0C41.42,53.122,41.42,53.122,41.42,53.122L41.42,53.122z"/>
<path fill="none" stroke="#24211D" stroke-width="0" stroke-linecap="square" stroke-miterlimit="10" d="M41.42,53.122
	c0,0,0-0.729-0.729-0.729l0,0c0,0-0.729-0.729-0.729,0l0,0l0,0c0.729,0.729,0.729,0.729,0.729,0.729l0,0
	C41.42,53.122,41.42,53.122,41.42,53.122L41.42,53.122z"/>
<line fill="none" stroke="#24211D" stroke-width="0" stroke-linecap="square" stroke-miterlimit="10" x1="33.402" y1="58.224" x2="31.944" y2="53.122"/>
<path fill-rule="evenodd" fill="#24211D" d="M26.842,49.477L26.842,49.477L26.842,49.477v-0.729c-0.729,0-0.729,0-0.729,0
	c0,0.729,0,0.729,0,0.729l0,0C26.113,49.477,26.113,49.477,26.842,49.477C26.842,50.206,26.842,50.206,26.842,49.477L26.842,49.477z
	"/>
<path fill="none" stroke="#24211D" stroke-width="0" stroke-linecap="square" stroke-miterlimit="10" d="M26.842,49.477
	L26.842,49.477L26.842,49.477v-0.729c-0.729,0-0.729,0-0.729,0c0,0.729,0,0.729,0,0.729l0,0
	C26.113,49.477,26.113,49.477,26.842,49.477C26.842,50.206,26.842,50.206,26.842,49.477L26.842,49.477z"/>
<path fill-rule="evenodd" fill="#24211D" d="M25.384,50.935L25.384,50.935c0,0,0,0,0-0.729h-0.729l0,0l0,0v0.729l0,0
	C24.655,50.935,24.655,50.935,25.384,50.935L25.384,50.935z"/>
<path fill="none" stroke="#24211D" stroke-width="0" stroke-linecap="square" stroke-miterlimit="10" d="M25.384,50.935
	L25.384,50.935c0,0,0,0,0-0.729h-0.729l0,0l0,0v0.729l0,0C24.655,50.935,24.655,50.935,25.384,50.935L25.384,50.935z"/>
<path fill-rule="evenodd" fill="#24211D" d="M27.571,52.393L27.571,52.393L27.571,52.393v-0.729l0,0l0,0
	C27.571,52.393,27.571,52.393,27.571,52.393L27.571,52.393L27.571,52.393L27.571,52.393z"/>
<path fill="none" stroke="#24211D" stroke-width="0" stroke-linecap="square" stroke-miterlimit="10" d="M27.571,52.393
	L27.571,52.393L27.571,52.393v-0.729l0,0l0,0C27.571,52.393,27.571,52.393,27.571,52.393L27.571,52.393L27.571,52.393L27.571,52.393
	z"/>
<path fill-rule="evenodd" fill="#FFFFFF" d="M33.402,46.562c-1.458-0.729-2.915-0.729-2.915-0.729s-1.458,0.729-0.729,0.729
	C29.757,47.291,33.402,48.019,33.402,46.562L33.402,46.562z"/>
<path fill="#DDDDDC" d="M82.239,21.05c0,0,3.645,10.934,5.103,11.662c2.187,0.729,6.561-0.729,7.289-5.831
	c0.729-5.103-5.103-10.205-9.476-8.747C81.51,20.321,81.51,19.592,82.239,21.05L82.239,21.05z"/>
<path fill="#DDDDDC" d="M37.046,15.947c0.729-2.916,9.477-2.916,9.477-5.103c0.729-2.187,0-4.374-5.103-5.102
	c-5.831-0.729-10.934,6.56-8.019,10.205C35.589,20.321,35.589,16.676,37.046,15.947L37.046,15.947z"/>
<path fill-rule="evenodd" fill="#605E5D" d="M62.558,42.188c-1.457-2.187-4.373-3.645-6.56-2.187
	c-1.458,0.729-2.187,2.187-1.458,3.645c0,2.916,1.458,2.916,5.103,2.916c1.458,0,2.915-0.729,3.645-2.187
	C62.558,42.917,62.558,43.646,62.558,42.188L62.558,42.188z"/>
<path fill-rule="evenodd" fill="#FFFFFF" d="M58.185,40.73c-2.187,0-4.373,0-3.645,2.916c0,1.458,0.729,2.916,2.187,2.916
	c2.916-0.729,5.831,0,5.831-2.187C62.558,42.188,59.643,40.001,58.185,40.73L58.185,40.73z"/>
<path fill-rule="evenodd" fill="#605E5D" d="M61.83,38.543c0,0.729-0.729,1.458-0.729,1.458c-0.729,0.729,0.729,0.729,0,0.729
	C61.101,40.73,61.83,39.272,61.83,38.543L61.83,38.543z"/>
<path fill-rule="evenodd" fill="#605E5D" d="M58.185,37.085c0,0.729,0,2.187,0,2.187c0,0.729,0.729,0.729,0.729,0.729
	C58.185,39.272,58.185,37.814,58.185,37.085L58.185,37.085z"/>
<path fill-rule="evenodd" fill="#605E5D" d="M54.541,38.543c0.729,0.729,0.729,1.458,0.729,2.187c0.729,0,1.458-0.729,0.729-0.729
	C55.999,40.001,55.269,39.272,54.541,38.543L54.541,38.543z"/>
<path fill-rule="evenodd" fill="#986D2D" d="M60.372,45.833c2.187-0.729,1.458-2.187,0.729-3.645c-0.729-1.458-5.103-1.458-5.832,0
	c-1.457,1.458,0,3.645,1.458,3.645c0.729,0,1.458,0,2.187,0C59.643,45.833,60.372,45.833,60.372,45.833L60.372,45.833z"/>
<path fill-rule="evenodd" fill="#24211D" d="M58.914,41.459c-2.915,0-3.645,4.374-0.729,3.645c0.729,0,0.729,0,1.458,0
	C61.83,45.104,60.372,41.459,58.914,41.459L58.914,41.459z"/>
<path fill-rule="evenodd" fill="#FFFFFF" d="M60.372,42.188c-0.729,0-0.729,0-0.729,0c0,0.729,0,0.729,0,0.729v0.729h0.729h0.729
	v-0.729C61.101,42.917,61.101,42.917,60.372,42.188L60.372,42.188L60.372,42.188z"/>
<path fill-rule="evenodd" fill="#24211D" d="M65.474,48.019c-0.729-0.729-1.458-1.458-2.916-1.458c-0.729,0-1.457,0-2.187,0
	l0.729-0.729c0.729,0.729,1.457,0,2.187,0.729c0,0,0.729,0,1.458,0.729C64.746,47.291,64.746,48.019,65.474,48.019L65.474,48.019z"
	/>
<path fill-rule="evenodd" fill="#605E5D" d="M34.131,36.356c0-2.916-2.916-3.645-5.103-2.916c-0.729,0.729-2.187,1.458-2.916,2.916
	c-1.458,2.916,0.729,3.645,3.645,3.645c1.458-0.729,3.645,0,3.645-1.458C34.131,37.085,34.131,37.814,34.131,36.356L34.131,36.356z"
	/>
<path fill-rule="evenodd" fill="#FFFFFF" d="M33.402,36.356c0-2.187-2.187-2.916-3.645-2.916c-1.458,0.729-3.645,1.458-3.645,2.916
	c-0.729,2.916,0.729,2.916,3.645,2.916c1.458,0,2.916,0.729,3.645-0.729C33.402,37.085,34.131,37.814,33.402,36.356L33.402,36.356z"
	/>
<path fill-rule="evenodd" fill="#986D2D" d="M31.944,38.543c2.188,0,1.458-1.458,0.729-3.645c-0.729-1.458-4.374-0.729-5.831,0.729
	c-0.729,2.187,0,4.373,2.187,3.645c0.729-0.729,0.729,0,1.458,0C31.215,39.272,30.487,39.272,31.944,38.543L31.944,38.543z"/>
<path fill-rule="evenodd" fill="#24211D" d="M30.487,34.899c-2.188,0-2.916,4.374-0.729,3.645c0.729,0,1.458,0,1.458,0
	C33.402,38.543,32.673,34.899,30.487,34.899L30.487,34.899z"/>
<path fill-rule="evenodd" fill="#605E5D" d="M26.842,31.983c0.729,0.729,0.729,2.187,0.729,2.187c0.729,0,1.458,0,1.458,0
	C28.299,34.17,27.571,32.712,26.842,31.983L26.842,31.983z"/>
<path fill-rule="evenodd" fill="#605E5D" d="M31.215,31.254c0,0.729,0,1.458,0,2.187c0,0,0.729,0,0,0
	C31.215,33.441,31.215,31.983,31.215,31.254L31.215,31.254z"/>
<path fill-rule="evenodd" fill="#605E5D" d="M34.86,33.441c0,0.729-1.458,0.729-1.458,0.729c0,0.729,0.729,1.458,0.729,0.729
	C34.131,34.899,34.86,34.17,34.86,33.441L34.86,33.441z"/>
<path fill-rule="evenodd" fill="#FFFFFF" d="M31.944,35.628h-0.729c0,0,0,0,0,0.729c0,0,0,0.729,0.729,0.729c0,0,0,0,0.729,0l0,0
	c0-0.729,0.729-0.729,0.729-0.729c-0.729,0-0.729-0.729-0.729-0.729S32.673,35.628,31.944,35.628L31.944,35.628z"/>
<path fill-rule="evenodd" fill="#24211D" d="M48.709,56.766c0-1.458-0.729-1.458-1.458-2.187c-0.729,0-0.729-0.729-1.458-0.729l0,0
	c0.729,0,1.458,0,2.187,0.729c0,0,0,0.729,0.729,0.729C48.709,56.037,48.709,56.037,48.709,56.766L48.709,56.766z"/>
<path fill="none" stroke="#24211D" stroke-width="0" stroke-linecap="square" stroke-miterlimit="10" d="M48.709,56.766
	c0-1.458-0.729-1.458-1.458-2.187c-0.729,0-0.729-0.729-1.458-0.729l0,0c0.729,0,1.458,0,2.187,0.729c0,0,0,0.729,0.729,0.729
	C48.709,56.037,48.709,56.037,48.709,56.766L48.709,56.766z"/>
<path fill-rule="evenodd" fill="#24211D" d="M34.131,63.326c0.729,0.729,2.187,0,2.915,0c0.729,0,1.458,0,2.188-0.729l0,0
	c-0.729,0.729-0.729,1.458-1.458,1.458C36.318,64.784,34.86,64.056,34.131,63.326L34.131,63.326z"/>
<path fill="none" stroke="#24211D" stroke-width="0" stroke-linecap="square" stroke-miterlimit="10" d="M34.131,63.326
	c0.729,0.729,2.187,0,2.915,0c0.729,0,1.458,0,2.188-0.729l0,0c-0.729,0.729-0.729,1.458-1.458,1.458
	C36.318,64.784,34.86,64.056,34.131,63.326L34.131,63.326z"/>
<path fill-rule="evenodd" fill="#24211D" d="M27.571,57.495c-0.729-0.729-1.458-1.458-2.187-2.187
	c2.187,2.187,3.645,3.645,5.831,4.374c5.831,2.916,12.392,2.187,16.765-4.374C42.878,61.868,33.402,61.868,27.571,57.495
	L27.571,57.495z"/>
<path fill="none" stroke="#24211D" stroke-width="0" stroke-linecap="square" stroke-miterlimit="10" d="M27.571,57.495
	c-0.729-0.729-1.458-1.458-2.187-2.187c2.187,2.187,3.645,3.645,5.831,4.374c5.831,2.916,12.392,2.187,16.765-4.374
	C42.878,61.868,33.402,61.868,27.571,57.495L27.571,57.495z"/>
<path fill-rule="evenodd" fill="#FFFFFF" d="M43.607,123.097c-2.187,0.729-2.187,1.458-3.645,2.916
	c0.729-1.458,2.187-1.458,2.916-2.187C44.335,123.826,43.607,123.097,43.607,123.097L43.607,123.097z"/>
<path fill-rule="evenodd" fill="#FFFFFF" d="M45.065,126.013c-2.187,1.458-2.187,2.187-2.187,3.645c0-0.729,0.729-1.458,2.187-2.187
	C45.793,126.013,45.065,126.013,45.065,126.013L45.065,126.013z"/>
<path fill-rule="evenodd" fill="#FFFFFF" d="M47.251,126.741c-0.729,1.458,0,2.187,0,3.645c0-0.729,0-1.458,0.729-2.915
	C48.709,126.013,47.251,126.741,47.251,126.741L47.251,126.741z"/>
<path fill-rule="evenodd" fill="#24211D" d="M20.282,54.58c0-2.187,0.729-2.916,2.187-3.645c-0.729,0.729-0.729,1.458-1.458,2.916
	C21.01,55.308,20.282,54.58,20.282,54.58L20.282,54.58z"/>
<path fill-rule="evenodd" fill="#24211D" d="M21.74,56.037c0-2.187,0.729-2.916,2.187-3.645c-0.729,0-1.458,1.458-1.458,2.916
	C22.468,56.766,21.74,56.037,21.74,56.037L21.74,56.037z"/>
</svg>
