<?xml version="1.0" encoding="utf-8"?>
<!-- Generator: Adobe Illustrator 13.0.0, SVG Export Plug-In . SVG Version: 6.00 Build 14948)  -->
<svg version="1.2" baseProfile="tiny" id="Layer_1" xmlns="http://www.w3.org/2000/svg" xmlns:xlink="http://www.w3.org/1999/xlink"
	 x="0px" y="0px" width="172.211px" height="169.139px" viewBox="0 0 172.211 169.139" xml:space="preserve">
<g>
	<path fill="#5D381C" d="M83.61,55.43c0,21.867,26.24,40.09,47.379,40.09c13.85,0,28.428-13.85,29.885-39.361
		c0.729-31.343-16.765-40.09-38.632-39.361C100.375,16.797,83.61,34.292,83.61,55.43L83.61,55.43z"/>
	<path fill-rule="evenodd" fill="#F28021" d="M98.917,134.152c0,0,6.561-37.903,0-49.565C90.17,69.279,79.236,39.394,43.521,41.581
		c-17.494,0.729-26.241,11.662-26.241,11.662S3.43,61.99,0.515,74.381c-2.916,12.392,7.289-6.561,12.392-5.103
		c5.102,2.187,9.476-1.458,9.476,0.729c-0.729,2.187-5.103,2.915-7.289,4.373c-5.103,3.645,2.915-4.373,11.662,0
		c9.477,5.103,1.458,2.187,5.103,6.561c2.916,4.373,5.831,3.645,3.645,16.765c-2.187,12.392-0.729,16.036-3.645,25.512
		s2.187,19.681,2.187,19.681s4.374,9.476,13.85,13.85c8.747,5.102,24.054,7.289,32.072,2.915c8.747-4.373,13.12-5.831,14.578-8.747
		C96.73,148.001,101.104,137.068,98.917,134.152L98.917,134.152z"/>
	<path fill="#5D381C" d="M96.73,148.001c0,0-9.476-2.916-22.597-10.934C48.622,122.49,83.61,78.754,60.285,58.345
		c-15.308-13.849-34.988-3.645-34.988-3.645s16.036-5.831,30.614,5.103c8.747,6.561,10.205,20.409,5.103,37.903
		c-5.103,18.951-5.831,41.548,9.476,43.734C83.61,143.627,93.814,150.188,96.73,148.001L96.73,148.001z"/>
	<path fill-rule="evenodd" fill="#5D381C" d="M153.585,50.328c0,0,3.645-30.614,0-30.614s15.308-0.729,13.85-2.187
		c-0.729-2.188-6.561-2.916-6.561-2.916s13.85-1.458,10.934-3.645c-3.645-2.916-13.12,0.729-13.12,0.729s6.561-11.662,2.916-11.662
		c-3.645,0.729-7.289,10.934-7.289,10.934s-0.729-13.12-2.916-9.476c-1.458,2.915,0.729,10.934-0.729,9.476
		c-1.458-0.729-5.103-10.934-5.831-5.831c0,5.831,6.56,11.662,6.56,11.662s-49.565,29.156-37.903,39.361
		C125.158,66.364,153.585,50.328,153.585,50.328L153.585,50.328z"/>
	<path fill-rule="evenodd" fill="#F28021" d="M93.086,61.99c4.373-5.103-18.223-8.018-16.765-28.428
		c0-2.915-3.645,3.645-8.019,2.916c-4.373-0.729,5.831-5.103,5.831-5.103s-13.12-3.645-10.934-5.103
		c2.188-1.457,10.934,1.458,10.934,1.458s-7.289-11.662-4.373-10.934c2.916,0.729,6.561,7.289,6.561,7.289
		s-1.458-17.493,1.458-10.934c2.915,6.561,0.729,14.578,0.729,14.578s26.24,6.561,21.139,8.747
		C94.544,37.936,93.086,61.99,93.086,61.99L93.086,61.99z"/>
	<path fill-rule="evenodd" fill="#F28021" d="M152.856,47.412c0,0,3.645-29.156,0-29.156s14.578-0.729,13.85-2.187
		c-0.729-2.187-6.561-2.187-6.561-2.187s13.85-1.458,10.205-4.374c-2.916-2.187-12.392,1.458-12.392,1.458s6.56-11.662,2.915-10.934
		c-3.645,0-7.289,10.205-7.289,10.205s-0.729-13.121-2.187-9.477c-2.187,2.916,0,10.205-0.729,9.477
		c-1.458-0.729-5.103-10.934-5.831-5.832c0,5.103,5.831,10.934,5.831,10.934s-47.379,28.428-35.717,38.633
		C125.887,63.448,152.856,47.412,152.856,47.412L152.856,47.412z"/>
	<path fill-rule="evenodd" fill="#F28021" d="M117.869,93.333c0,0-3.645,0.729-5.103,5.103c-1.458,4.374,4.373-2.187,4.373-0.729
		c0.729,1.458-3.645,2.187-2.915,5.831c0,4.374,2.187-5.103,2.915-3.645c0,2.187-2.187,5.103-2.915,7.289
		c-1.458,2.187-16.036,10.934-17.494,19.681c-1.458,9.476-0.729,16.036,2.187,18.223c2.916,2.187,7.289,5.103,5.831,6.561
		c-2.187,0.729-6.56,6.56-5.102,8.747c1.457,2.187,7.289,7.289,13.849,7.289c6.561,0.729,16.036-0.729,17.494,0
		c0.729,0,1.458,2.187,8.747,0.729c7.289-0.729,4.373-4.373,6.56-3.645c1.458,0,2.188-3.645,2.188-2.187s9.476-0.729,8.018-2.916
		c-0.729-1.458,2.916,1.458,3.645-1.458c0-0.729,1.458-0.729,1.458-2.187c0.729-2.187,0.729-0.729,0.729-2.187
		c0-2.187-1.458,0-2.187-2.916c-1.458-2.187,0,0,0,0s-4.373-2.915-7.289-0.729c-3.645,1.458-8.018-2.187-9.476-2.187
		c-1.458,0.729,10.204-5.832,10.204-11.663c0-1.458,5.103-5.831,3.645-9.476c-0.729-3.645-2.187-5.831-3.645-5.103
		c-0.729,0,4.374-13.12,2.916-13.849c-1.458-1.458-2.916-2.188-0.729-0.729c2.187,0.729,13.849-2.187,7.289-10.934
		c-5.103-6.561-8.747-8.747-8.747-8.747s-5.103-5.103-8.019-4.373c-2.915,0.729-3.645,1.458-3.645,2.187
		c0,1.458-0.729-3.645-2.915-3.645c-2.188,0-5.832-0.729-8.019,2.916c-1.458,2.915-8.018,6.56-6.56,8.018
		C126.615,93.333,117.869,93.333,117.869,93.333L117.869,93.333z"/>
	<path fill-rule="evenodd" fill="#F9D38E" d="M168.893,91.875c-10.934-11.663-23.325-8.019-22.597-8.019
		c0.729,0-7.289,10.934-6.56,8.747c1.457-2.916,0.729-5.103,1.457-10.934c-0.729,8.018-11.662,10.205-8.746,13.85
		c-0.729-2.916-14.578-7.289-22.597-8.019c9.476,2.916,16.765,7.289,16.765,8.019c0.729,1.457-3.645-5.103-11.662,2.187
		c11.662-5.103,8.018-0.729,9.476,2.187c-11.662,0.729-5.103,5.103-16.036,9.476c3.645,0.729,11.663-1.457,15.308-1.457
		c-8.019,3.645,0,6.56-3.645,8.746c-0.729,0,5.103,8.019,8.018-0.729c1.458-0.729,5.831,7.289,3.645,9.476
		c5.831-8.018,8.019-5.831,8.019-11.662c0,4.373,0,2.915,2.915,9.476c0.729-0.729,1.458-14.578,2.188-10.934
		c1.457,5.831,4.373,11.662,5.102,10.934c-1.457-3.645,0-7.289,1.458-10.205c2.187-5.102,10.934,2.916,8.019,2.916
		c0.729-0.729-1.458-3.645-4.374-7.289c-0.729-1.458,10.934-0.729,13.85-1.458c-1.458-1.458-7.289-4.373-5.103-5.103
		c7.289,0,2.916-2.187,8.018-1.457c2.188,1.457-5.831-2.916-9.476-5.832C165.248,95.52,164.519,94.062,168.893,91.875
		L168.893,91.875z"/>
	<path fill="none" stroke="#24211D" stroke-width="0" stroke-linecap="square" stroke-miterlimit="10" d="M114.225,129.049
		c10.934-10.934,32.801,5.103,19.68,21.139c-2.187,2.187-9.476,5.103-6.56,5.103c3.645,0.729,5.831,2.915,10.934,0.729
		c5.103-1.458,6.561-0.729,8.018,0c2.188,0.729,4.374,4.374,2.188,6.561"/>
	<path fill="none" stroke="#24211D" stroke-width="0" stroke-linecap="square" stroke-miterlimit="10" d="M139.007,159.664
		c0,0,2.187,0.729,2.187,3.645c0,2.916-4.373,5.831-4.373,5.831"/>
	<path fill="none" stroke="#24211D" stroke-width="0" stroke-linecap="square" stroke-miterlimit="10" d="M144.109,160.393
		c0,0,2.916,1.457,2.187,4.373"/>
	<path fill="none" stroke="#24211D" stroke-width="0" stroke-linecap="square" stroke-miterlimit="10" d="M152.856,153.833
		c0,0,3.645,0.729,3.645,2.916c0,2.187,0,4.373-1.458,5.102"/>
	<path fill="none" stroke="#24211D" stroke-width="0" stroke-linecap="square" stroke-miterlimit="10" d="M157.229,152.375
		c0,0,3.645,0,2.916,5.831"/>
	<path fill-rule="evenodd" fill="#FFFFFF" d="M161.604,87.501c-10.205-0.729-18.952,0-18.952,0c0.729-0.729-5.103,4.374-4.373,2.916
		c0.729-1.458,0.729-3.645,0.729-7.289c-0.729,5.831-8.018,6.56-5.831,9.476c-0.729-2.187-9.476-5.103-15.307-5.103
		c6.56,1.458,11.662,4.374,11.662,5.103c0.729,0.729-2.187-3.645-8.018,0.729c8.018-2.915,5.102,0,6.56,2.188
		c-7.289,0-3.645,3.645-10.934,6.56c2.916,0,8.019-1.457,10.205-1.457c-5.103,2.187,0.729,4.373-2.187,5.831
		c-0.729,0,2.915,5.103,5.831,0c0.729-0.729,3.645,4.373,1.458,5.831c4.373-5.103,5.831-3.645,5.831-8.018
		c0,2.915,0,2.187,2.187,6.56c0,0,0.729-9.476,1.458-7.289c0.729,3.645,2.916,8.019,2.916,7.289c-0.729-2.187,0-5.103,1.457-6.56
		c1.458-3.645,6.561,2.187,5.103,1.457c0.729,0-0.729-2.187-2.915-4.373c-0.729-0.729,7.289-0.729,9.476-0.729
		c-0.729-1.458-6.561-4.374-5.103-4.374c5.103,0,3.645-0.729,6.561,0c1.457,0.729-5.832-2.916-8.019-5.103
		C152.856,91.875,158.688,88.959,161.604,87.501L161.604,87.501z"/>
	<path fill="#F28021" d="M84.339,55.43c0,20.409,25.512,37.902,45.921,37.902c13.85,0,28.428-13.12,29.157-37.902
		c0.729-29.886-16.036-38.633-37.903-37.903C101.104,17.527,84.339,34.292,84.339,55.43L84.339,55.43z"/>
	<path fill="#6C4630" d="M128.803,72.195c0.729,1.458,2.915,2.187,5.102,1.458c2.188-0.729,3.645-2.916,2.916-5.103
		c-0.729-1.458-3.645-2.187-5.103-0.729C129.531,68.55,128.073,70.737,128.803,72.195L128.803,72.195z"/>
	<path fill="#F69C99" d="M129.531,71.465c0.729,2.188,2.916,2.188,5.103,1.458c2.187-0.729,2.915-2.915,2.187-4.373
		c-0.729-2.187-2.916-2.187-5.103-1.458S128.803,70.008,129.531,71.465L129.531,71.465z"/>
	<path fill="#73635B" d="M137.549,22.628c0.729,0,2.916-0.729,2.188,0.729c0,0.729,0,1.458,0,2.187c0.729,0,0.729-0.729,1.457-0.729
		v-0.729h0.729c0.729-0.729,1.458-1.458,1.458-2.187c-0.729,0-1.458-1.458-2.188-2.916h-0.729
		C139.736,19.713,136.82,21.9,137.549,22.628L137.549,22.628z"/>
	<path fill="#73635B" d="M139.736,25.544c0-0.729,0-1.458,0-2.187c0.729-1.458-1.458-0.729-2.188-0.729
		c-0.729-0.729,2.188-2.915,2.916-3.645l0,0c-0.729,0-2.187,0.729-2.916,1.458v0.729c-0.729,0.729-0.729,0.729-0.729,1.457
		c0,0,0.729,1.458,1.458,2.188l0,0C139.007,25.544,139.736,25.544,139.736,25.544L139.736,25.544z"/>
	<path fill="#73635B" d="M141.193,25.544h-0.729c0.729,0.729,4.374,5.103,5.103,7.289c0,0.729,0,1.458,0,2.187
		c-0.729,0-0.729,0.729-1.458,0.729c-0.729-0.729-1.458-2.188-2.187-4.374c0,0,2.916,2.916,2.187,2.187
		c-0.729-2.187-3.645-6.56-4.373-7.289l0,0c0,0.729,0.729,6.561,2.187,8.747c0.729,0.729,1.458,1.458,2.187,1.458
		c0.729,0,2.187-0.729,3.645-2.187C147.754,31.375,142.651,26.273,141.193,25.544L141.193,25.544z"/>
	<path fill="#73635B" d="M150.67,26.273c-2.187-1.457-5.831-2.915-7.289-3.645c0,0.729-0.729,1.458-1.458,1.458v0.729l0,0
		c-0.729,0-0.729,0.729-0.729,0.729c1.458,0.729,6.561,5.831,6.561,8.747l0.729-0.729l1.457-2.187
		c2.188-1.458,2.916-2.187,2.916-3.645C152.856,27.002,152.128,27.002,150.67,26.273L150.67,26.273z"/>
	<path fill="#73635B" d="M136.82,21.171L136.82,21.171l0.729-0.729c0.729-0.729,0.729-1.458,1.458-2.187
		c0-0.729-1.458-5.103-2.915-7.289c-0.729-1.458-1.458-2.187-2.188-2.187c-0.729,0-1.457,0.729-3.645,2.915l-1.457,1.458
		c-0.729,0.729-0.729,1.458-1.458,1.458C130.26,14.611,135.362,19.713,136.82,21.171L136.82,21.171z"/>
	<path fill="#73635B" d="M128.073,17.527c-0.729-0.729,2.187,2.915,2.187,2.915c-2.187-0.729-3.645-2.187-3.645-2.915
		c0,0,0-0.729,0.729-0.729c0.729-0.729,1.458-0.729,2.187-0.729c2.187,1.458,5.831,4.373,7.289,5.103l0,0
		c-1.458-1.458-6.561-6.561-9.476-6.561c-0.729,1.458-1.458,2.187-1.458,2.916c0,0.729,0,1.457,1.458,2.187
		c2.187,2.187,7.289,2.187,8.747,2.187l0,0C135.362,21.171,130.26,18.255,128.073,17.527L128.073,17.527z"/>
	<path fill="#5D381C" d="M82.881,146.543c0,0-2.187,0.729-15.307-2.916c-34.987-10.934,4.373-60.499-16.765-80.18
		c-12.392-16.036-36.446-2.916-40.091,0c-1.457,1.458,21.868-9.476,35.717,6.561c6.561,8.018,3.645,26.24,0.729,33.529
		c-8.747,18.952-8.747,32.072,0.729,41.548C58.827,156.749,79.966,148.73,82.881,146.543L82.881,146.543z"/>
	<path fill-rule="evenodd" fill="#24211D" d="M103.291,64.176c0-1.457,1.457-2.915,1.457-2.915c0-0.729-1.457-0.729-0.729-0.729
		C104.02,61.261,103.291,62.719,103.291,64.176L103.291,64.176z"/>
	<path fill-rule="evenodd" fill="#24211D" d="M109.122,64.906c-0.729-0.729-0.729-2.916-0.729-2.916c0-0.729-1.457-0.729-0.729,0
		C107.664,61.99,108.393,64.176,109.122,64.906L109.122,64.906z"/>
	<path fill-rule="evenodd" fill="#24211D" d="M113.495,62.719c-1.458-0.729-1.458-2.188-1.458-2.188c-0.729-0.729-1.457,0-0.729,0
		C111.309,60.532,112.037,61.99,113.495,62.719L113.495,62.719z"/>
	<path fill-rule="evenodd" fill="#706352" d="M151.398,52.514c-0.729-1.458-2.915-2.187-2.915-2.916c0-0.729,0.729-0.729,0.729,0
		C149.212,49.598,150.67,51.056,151.398,52.514L151.398,52.514z"/>
	<path fill-rule="evenodd" fill="#24211D" d="M147.025,43.039c5.103,0,5.103,0.729,5.831,3.645c2.187,4.373-2.916,6.56-7.289,6.56
		c-4.374,0-5.831,0.729-6.561-2.187C139.007,48.141,142.651,43.767,147.025,43.039L147.025,43.039z"/>
	<path fill-rule="evenodd" fill="#FFFFFF" d="M146.296,44.497c3.645-0.729,5.103-2.188,6.561,2.915
		c0.729,4.374-5.103,5.103-8.018,5.103c-2.188,0.729-5.103,0-5.103-1.458S142.651,44.497,146.296,44.497L146.296,44.497z"/>
	<path fill-rule="evenodd" fill="#24211D" d="M93.086,59.803c0.729,2.187,4.373,2.187,4.373,2.916
		c1.458,0.729-1.457,2.187-0.729,1.457C96.73,63.448,93.814,61.99,93.086,59.803L93.086,59.803z"/>
	<path fill-rule="evenodd" fill="#706352" d="M101.833,70.737c0-1.458,1.458-2.916,1.458-3.645s-1.458,0-1.458,0
		C102.562,67.821,101.833,69.279,101.833,70.737L101.833,70.737z"/>
	<path fill-rule="evenodd" fill="#24211D" d="M100.375,59.803c-4.373,1.458-3.645,3.645-3.645,6.561
		c0.729,5.102,6.561,3.645,10.205,2.187s4.373-2.187,5.102-5.103C112.767,60.532,104.748,58.345,100.375,59.803L100.375,59.803z"/>
	<path fill-rule="evenodd" fill="#FFFFFF" d="M101.104,60.532c-2.187,0.729-4.373,2.188-2.915,6.561
		c0.729,4.373,8.018,2.187,9.476,0.729c1.458-0.729,5.103-2.915,4.373-5.102C110.58,60.532,103.291,59.075,101.104,60.532
		L101.104,60.532z"/>
	<path fill-rule="evenodd" fill="#6C4630" d="M101.833,61.261c-1.458,0.729-2.187,1.458-2.916,5.103
		c0,2.915,4.374,3.645,6.561,2.187s2.187-2.916,1.458-4.374C106.936,61.99,104.02,60.532,101.833,61.261L101.833,61.261z"/>
	<path fill-rule="evenodd" fill="#24211D" d="M103.291,62.719c-1.458,0.729-2.188,1.457-2.188,3.645
		c0,2.187,1.458,2.915,3.645,1.457c2.188-0.729,2.188-1.457,1.458-2.915C106.206,63.448,104.02,62.719,103.291,62.719
		L103.291,62.719z"/>
	<path fill-rule="evenodd" fill="#FFFFFF" d="M105.478,64.176c-0.729,0-1.458,0-1.458,0.729c0,0.729,1.458,1.458,2.187,0.729
		c0,0,0.729-0.729,0.729-1.458C106.206,64.176,105.478,63.448,105.478,64.176L105.478,64.176z"/>
	<path fill-rule="evenodd" fill="#24211D" d="M96.002,56.159c2.187-2.916,5.831-2.916,6.56-2.187c1.458-0.729,0-2.187-1.458-2.187
		C98.917,51.786,96.002,53.243,96.002,56.159L96.002,56.159z"/>
	<path fill-rule="evenodd" fill="#24211D" d="M96.73,64.176c1.458,0,4.373-2.915,6.561-2.915c2.187,0,4.373,0,5.102-0.729
		c-2.187-0.729-5.831-0.729-7.289,0C99.646,60.532,97.459,61.99,96.73,64.176L96.73,64.176z"/>
	<path fill-rule="evenodd" fill="#73635B" d="M97.459,63.448c1.458,0,3.645-2.187,5.832-2.187c2.187-0.729,3.645,0,5.102-0.729
		c-2.915-0.729-5.831-0.729-7.289,0C99.646,60.532,98.188,61.99,97.459,63.448L97.459,63.448z"/>
	<path fill-rule="evenodd" fill="#24211D" d="M96.002,56.159c0.729,2.187,3.645,3.645,3.645,3.645
		c0.729,1.458-2.188,2.187-1.458,1.458C98.917,60.532,96.73,58.345,96.002,56.159L96.002,56.159z"/>
	<path fill-rule="evenodd" fill="#24211D" d="M90.899,64.906c2.187,0.729,5.103-0.729,5.831-0.729c1.458,0.729,0,2.916,0,2.188
		C96.002,65.634,93.086,65.634,90.899,64.906L90.899,64.906z"/>
	<path fill="#FFFFFF" d="M137.549,22.628c0.729,0,2.916-0.729,2.188,0.729c0,0.729,0,1.458,0,1.458c0.729,0,0.729,0,1.457-0.729l0,0
		h0.729c0.729-0.729,1.458-1.458,0.729-2.187c0,0-0.729-1.458-1.458-2.187c-0.729-0.729-0.729-0.729-0.729-0.729
		C139.736,19.713,137.549,21.9,137.549,22.628L137.549,22.628z"/>
	<path fill="#FFFFFF" d="M139.736,24.816c0,0,0-0.729,0-1.458c0.729-1.458-1.458-0.729-2.188-0.729c0-0.729,2.188-2.915,2.916-3.645
		l0,0c-0.729,0-2.187,0.729-2.187,1.458l-0.729,0.729c-0.729,0.729-0.729,0.729-0.729,1.457c0,0,0.729,0.729,1.458,2.188h0.729
		C139.007,25.544,139.736,25.544,139.736,24.816L139.736,24.816z"/>
	<path fill="#FFFFFF" d="M141.193,24.816c-0.729,0.729-0.729,0.729-0.729,0.729c0.729,0.729,3.645,4.373,4.374,5.831
		c0,0.729,0,2.187,0,2.187c-0.729,0.729-0.729,0.729-1.458,0.729c-0.729,0-1.458-1.458-2.188-3.645c0,0,2.916,2.915,2.916,2.187
		c-0.729-2.187-3.645-6.561-4.373-7.289l0,0c0,1.458,0.729,5.831,2.187,8.747c0.729,0.729,0.729,0.729,1.458,0.729
		c0.729,0,2.187-0.729,3.645-1.458C147.025,30.647,141.923,26.273,141.193,24.816L141.193,24.816z"/>
	<path fill="#FFFFFF" d="M149.94,25.544c-2.187-1.458-5.831-2.187-6.56-2.916c-0.729,0.729-0.729,1.458-1.458,1.458v0.729h-0.729
		l0,0c0.729,1.457,5.832,5.831,5.832,8.746c0-0.729,0-0.729,0.729-1.457l1.458-1.458c1.458-1.458,2.187-2.187,2.187-2.916
		C151.398,27.002,150.67,26.273,149.94,25.544L149.94,25.544z"/>
	<path fill="#FFFFFF" d="M136.82,21.171L136.82,21.171l0.729-0.729c0.729-0.729,1.458-1.458,1.458-1.458
		c0-0.729-1.458-5.102-2.187-6.56s-1.458-2.187-2.187-2.187c-0.729,0-1.458,0.729-2.916,2.187l-2.187,1.458
		c0,0.729-0.729,1.457-0.729,1.457C130.989,15.339,136.092,19.713,136.82,21.171L136.82,21.171z"/>
	<path fill="#FFFFFF" d="M129.531,17.527c-0.729,0,2.187,2.915,2.187,2.915c-2.187-0.729-3.645-1.458-3.645-2.187s0-0.729,0-1.458
		c0.729,0,1.458,0,2.187,0c2.188,0.729,5.832,3.645,6.561,4.374l0,0c-0.729-1.458-5.831-5.832-8.018-5.832
		c-1.458,1.458-1.458,2.188-1.458,2.916s0,1.458,0.729,1.458c2.187,2.187,7.289,2.187,8.019,2.187h0.729
		C136.092,21.171,130.989,18.984,129.531,17.527L129.531,17.527z"/>
	<path fill="#73635B" d="M89.441,45.225c0-0.729-1.458-2.187,0-2.187c0.729,0,1.458,0,2.187-0.729c-0.729,0-0.729-0.729-1.458-0.729
		v-0.729h-0.729c-0.729-0.729-1.458-1.458-2.187-0.729c0,0-1.458,1.458-2.187,2.916c0,0,0,0,0,0.729
		C85.797,43.767,88.713,45.954,89.441,45.225L89.441,45.225z"/>
	<path fill="#73635B" d="M91.628,42.309c-0.729,0.729-1.458,0.729-2.187,0.729c-1.458,0,0,1.458,0,2.187
		c-0.729,0.729-3.645-1.458-4.373-1.458l0,0c0,0.729,1.457,1.458,2.187,2.187h0.729c0.729,0.729,0.729,0.729,1.458,0.729
		c0.729-0.729,0.729-1.458,2.187-2.916l0,0C91.628,43.039,91.628,43.039,91.628,42.309L91.628,42.309z"/>
	<path fill="#73635B" d="M90.899,41.581c0.729,0,0.729,0,0.729,0c0.729-0.729,3.645-5.103,5.831-5.831
		c0.729-0.729,1.458-0.729,2.188-0.729l0.729,0.729c0,1.457-1.458,2.187-2.916,3.645c0,0,1.458-3.645,0.729-3.645
		c-1.458,1.457-5.103,5.831-5.831,6.56l0,0c0.729,0,5.831-2.187,8.018-4.373c0.729-0.729,0.729-1.458,0.729-2.187
		c0-0.729-1.457-1.458-2.915-2.916C95.272,33.562,92.357,40.123,90.899,41.581L90.899,41.581z"/>
	<path fill="#73635B" d="M89.441,31.375c-0.729,2.916-1.458,6.561-1.458,8.019c0.729,0,1.458,0.729,2.187,0.729v0.729h0.729v0.729
		c1.458-1.458,4.373-8.019,7.289-8.747c0,0-0.729,0-0.729-0.729l-2.187-1.458c-2.187-0.729-3.645-1.458-4.373-1.458
		C90.17,29.189,90.17,30.647,89.441,31.375L89.441,31.375z"/>
	<path fill="#73635B" d="M87.983,46.683L87.983,46.683l-0.729-0.729c-0.729,0-1.458-0.729-2.187-1.457
		c-0.729,0.729-5.103,2.915-6.561,5.102c-0.729,0.729-1.458,1.458-1.458,2.188c0,0.729,1.458,2.187,3.645,2.915l1.458,1.458
		c0.729,0,1.458,0.729,2.187,0.729C82.881,54.701,87.255,48.141,87.983,46.683L87.983,46.683z"/>
	<path fill="#73635B" d="M86.525,55.43c0,0.729,2.188-2.916,2.188-2.916c0,2.916-0.729,4.373-1.458,4.373
		c-0.729,0.729-0.729,0-1.458,0c-0.729-0.729-0.729-1.457-0.729-2.187c0.729-2.187,2.915-7.289,2.915-8.018l0,0
		c-0.729,1.458-5.103,8.018-3.645,10.204c1.458,0.729,2.187,1.458,2.916,1.458c0.729-0.729,1.458-0.729,1.458-2.187
		c1.457-2.916,0.729-8.018,0.729-9.476c-0.729,0-0.729,0-0.729,0C88.713,48.141,86.525,53.243,86.525,55.43L86.525,55.43z"/>
	<path fill="#FFFFFF" d="M89.441,45.225c0-0.729-1.458-2.187,0-2.187c0.729,0,1.458,0,2.187-0.729c-0.729,0-0.729-0.729-1.458-0.729
		l0,0l-0.729-0.729c-0.729-0.729-1.458-0.729-2.187,0c0,0-0.729,0.729-1.458,2.187c-0.729,0-0.729,0-0.729,0.729
		C85.797,43.767,88.713,45.954,89.441,45.225L89.441,45.225z"/>
	<path fill="#FFFFFF" d="M91.628,42.309c-0.729,0.729-1.458,0.729-2.187,0.729c-1.458,0,0,1.458,0,2.187
		c-0.729,0.729-3.645-1.458-4.373-1.458l0,0c0.729,0.729,1.457,1.458,2.187,1.458l0.729,0.729c0.729,0,0.729,0,1.458,0
		s0.729-0.729,1.458-2.187l0,0C91.628,43.039,91.628,43.039,91.628,42.309L91.628,42.309z"/>
	<path fill="#FFFFFF" d="M90.899,41.581c0,0,0,0,0.729,0c0-0.729,2.916-4.374,5.103-5.103c0.729-0.729,1.458-0.729,2.187-0.729
		v0.729c0,0.729-0.729,2.187-2.915,2.916c0,0,2.187-2.916,1.457-2.916c-1.457,1.458-5.102,5.103-5.831,5.831l0,0
		c1.458,0,5.831-1.457,8.019-3.645c0-0.729,0.729-1.458,0.729-2.187c-0.729-0.729-1.458-1.458-2.916-2.187
		C94.544,34.292,91.628,40.123,90.899,41.581L90.899,41.581z"/>
	<path fill="#FFFFFF" d="M89.441,32.833c-0.729,2.187-0.729,5.831-1.458,7.289c0.729,0,1.458,0,2.187,0.729l0,0l0,0
		c0.729,0.729,0.729,0.729,0.729,0.729c0.729-1.458,3.645-7.289,6.56-7.289c0-0.729-0.729-0.729-0.729-0.729l-2.187-1.457
		c-1.458-1.458-2.916-1.458-3.645-1.458C90.17,30.647,90.17,31.375,89.441,32.833L89.441,32.833z"/>
	<path fill="#FFFFFF" d="M87.983,45.954L87.983,45.954h-0.729c-0.729-0.729-1.458-0.729-2.187-1.457
		c-0.729,0.729-3.645,2.915-5.832,4.373c-0.729,0.729-1.457,1.458-0.729,2.187c0,0.729,0.729,1.458,2.916,2.916l1.457,0.729
		c0.729,0.729,1.458,0.729,1.458,0.729C83.61,53.243,87.255,47.412,87.983,45.954L87.983,45.954z"/>
	<path fill="#FFFFFF" d="M86.525,54.701c0,0.729,2.188-2.915,2.188-2.915c0,2.187-0.729,3.645-1.458,4.373c0,0-0.729,0-0.729-0.729
		c-0.729,0-0.729-0.729-0.729-2.188c0-1.457,2.187-5.831,2.187-6.56c0,0,0,0,0-0.729c-0.729,1.458-4.373,7.289-3.645,9.477
		c1.458,0.729,2.916,1.457,3.645,1.457c0-0.729,0.729-0.729,0.729-1.457c1.457-2.916,0.729-7.289,0.729-8.747
		c-0.729,0-0.729,0-0.729,0C88.713,47.412,87.255,52.514,86.525,54.701L86.525,54.701z"/>
	<path fill-rule="evenodd" fill="#B1632A" d="M114.225,104.267c0,0,3.645-0.729,7.289-0.729c2.915,0.729,5.831-0.729,11.662-5.831
		c5.103-5.103,9.476-4.374,10.934-2.916c2.187,2.187,0.729,5.832-1.458,5.103c2.916,0.729,1.458,7.289-1.458,5.831
		c0.729,0,0,7.289-3.645,5.832c-4.373-0.729-1.457-2.916-6.56,3.645c-5.831,5.831-19.681,6.56-21.867,0.729
		s-0.729-7.289-0.729-7.289S111.309,103.538,114.225,104.267L114.225,104.267z"/>
	<path fill-rule="evenodd" fill="#B1632A" d="M158.688,122.49c-2.187,2.915-5.103,2.187-6.56,0.729
		c-2.188-0.729-3.645-1.458-0.729-4.373c-1.458,1.457-5.103-0.729-5.103-3.645c0-2.188,2.916-2.916,2.916-2.916
		s-4.373-0.729-3.645-5.103c0.729-4.373,7.289-2.187,7.289-2.187c0.729,0,1.458,0.729,2.187,0.729
		c1.458-2.915-0.729-5.831,2.187-5.831c6.561,1.458,15.308,12.392,8.019,19.681C163.79,121.032,157.959,123.218,158.688,122.49
		L158.688,122.49z"/>
	<path fill-rule="evenodd" fill="#F28021" d="M114.225,104.267c0,0,3.645-0.729,6.56,0c3.645,0.729,6.561-0.729,11.663-5.832
		c5.102-4.373,9.476-3.645,10.204-2.187c2.916,1.458,1.458,5.103-0.729,4.374c2.916,1.457,1.458,7.289-1.458,5.831
		c0.729,0,0,6.56-3.645,5.103c-3.645-0.729-0.729-2.916-6.561,2.915c-5.831,5.831-19.68,6.561-21.138,1.458
		c-2.187-5.831-0.729-7.289-0.729-7.289S110.58,103.538,114.225,104.267L114.225,104.267z"/>
	<path fill="#FFFFFF" d="M129.531,70.737c0.729,0,0.729,0,1.458-0.729c0.729,0,0.729-0.729,0.729-0.729
		c-0.729,0-0.729,0-1.458,0.729L129.531,70.737L129.531,70.737z"/>
	<path fill-rule="evenodd" fill="#F28021" d="M157.959,121.76c-2.187,2.916-4.374,2.187-5.831,1.458
		c-1.458-1.458-2.916-2.187,0-4.373c-1.458,1.457-4.374-0.729-4.374-2.916s2.187-2.916,2.187-2.916s-3.645,0-2.915-4.373
		c0-3.645,5.831-1.458,5.831-1.458c0.729-0.729,2.187,0,2.916,0c-4.374-15.307,16.765,2.187,10.204,11.663
		C165.248,120.302,157.959,122.49,157.959,121.76L157.959,121.76z"/>
	<path fill-rule="evenodd" fill="#24211D" d="M149.94,72.195c0-0.729-0.729-0.729-1.457-0.729h-0.729v-0.729
		c0,0,0.729,0,0.729,0.729c0.729,0,0.729,0,1.457,0V72.195L149.94,72.195z"/>
	<path fill="none" stroke="#24211D" stroke-width="0" stroke-linecap="square" stroke-miterlimit="10" d="M149.94,72.195
		c0-0.729-0.729-0.729-1.457-0.729h-0.729v-0.729c0,0,0.729,0,0.729,0.729c0.729,0,0.729,0,1.457,0V72.195L149.94,72.195z"/>
	<path fill-rule="evenodd" fill="#24211D" d="M134.634,85.315c1.458,0,2.915-0.729,3.645-1.458c0.729,0,1.458-0.729,2.187-1.458
		h0.729c-1.457,0.729-1.457,2.188-2.187,2.916C137.549,86.043,135.362,85.315,134.634,85.315L134.634,85.315z"/>
	<path fill="none" stroke="#24211D" stroke-width="0" stroke-linecap="square" stroke-miterlimit="10" d="M134.634,85.315
		c1.458,0,2.915-0.729,3.645-1.458c0.729,0,1.458-0.729,2.187-1.458h0.729c-1.457,0.729-1.457,2.188-2.187,2.916
		C137.549,86.043,135.362,85.315,134.634,85.315L134.634,85.315z"/>
	<path fill-rule="evenodd" fill="#24211D" d="M123.7,82.399c-0.729-0.729-2.187-0.729-3.645-1.457
		c3.645,1.457,6.56,2.915,9.476,3.645c8.018,0.729,16.765-3.645,18.952-12.392C145.567,81.67,133.176,86.043,123.7,82.399
		L123.7,82.399z"/>
	<path fill="none" stroke="#24211D" stroke-width="0" stroke-linecap="square" stroke-miterlimit="10" d="M123.7,82.399
		c-0.729-0.729-2.187-0.729-3.645-1.457c3.645,1.457,6.56,2.915,9.476,3.645c8.018,0.729,16.765-3.645,18.952-12.392
		C145.567,81.67,133.176,86.043,123.7,82.399L123.7,82.399z"/>
	<path fill-rule="evenodd" fill="#24211D" d="M120.056,79.484l-0.729,0.729c0,0.729-0.729,0.729-0.729,1.458l0,0
		c0-0.729,0-1.458,0.729-1.458v-0.729C120.056,79.484,120.056,79.484,120.056,79.484L120.056,79.484z"/>
	<path fill="none" stroke="#24211D" stroke-width="0" stroke-linecap="square" stroke-miterlimit="10" d="M120.056,79.484
		l-0.729,0.729c0,0.729-0.729,0.729-0.729,1.458l0,0c0-0.729,0-1.458,0.729-1.458v-0.729
		C120.056,79.484,120.056,79.484,120.056,79.484L120.056,79.484z"/>
	<path fill-rule="evenodd" fill="#FDC90B" d="M146.296,44.497c2.188-0.729,5.103-1.458,6.561,2.187
		c-2.916,0.729-7.289,0.729-10.205-0.729C144.109,45.225,145.567,44.497,146.296,44.497L146.296,44.497z"/>
	<path fill-rule="evenodd" fill="#FFFFFF" d="M146.296,44.497c2.188-0.729,5.103-1.458,6.561,2.187
		c-2.916,0.729-7.289,0.729-10.205-0.729C144.109,45.225,145.567,44.497,146.296,44.497L146.296,44.497z"/>
	<path fill-rule="evenodd" fill="#24211D" d="M152.128,37.207c1.457,2.916,2.915,6.561-0.729,6.561
		c-0.729,1.458-3.645-0.729-2.915-0.729C153.585,44.497,153.585,40.852,152.128,37.207L152.128,37.207z"/>
	<path fill-rule="evenodd" fill="#24211D" d="M147.754,36.478c1.458,2.187,5.103,5.831,1.458,6.561c0,1.458-3.645,0.729-2.916,0.729
		C151.398,43.039,149.94,39.394,147.754,36.478L147.754,36.478z"/>
	<path fill-rule="evenodd" fill="#24211D" d="M144.109,37.207c0.729,2.916,3.645,5.832,2.916,5.832c0,2.187-2.916,1.458-2.187,1.458
		C147.025,43.039,144.839,39.394,144.109,37.207L144.109,37.207z"/>
	<path fill-rule="evenodd" fill="#24211D" d="M145.567,38.665c-2.187,0.729-4.374,2.916-4.374,2.916
		c-1.457,0.729-1.457-0.729-0.729-1.458C141.193,38.665,143.381,37.936,145.567,38.665L145.567,38.665z"/>
	<path fill-rule="evenodd" fill="#6C4630" d="M144.839,45.954c-1.458,0-2.916,0.729-3.646,3.645
		c-0.729,2.916,2.916,3.645,5.832,3.645c2.915-0.729,2.915-2.187,2.915-4.373C149.212,46.683,147.025,45.954,144.839,45.954
		L144.839,45.954z"/>
	<path fill-rule="evenodd" fill="#24211D" d="M144.839,47.412c-0.729,0-2.916,1.458-2.188,2.916c0,1.458,2.188,2.915,3.645,2.915
		c1.458,0,2.188-1.457,2.188-2.915S146.296,47.412,144.839,47.412L144.839,47.412z"/>
	<path fill-rule="evenodd" fill="#FFFFFF" d="M147.025,48.87c0,0-0.729,0-0.729,0.729c0,0.729,0.729,1.458,1.458,0.729
		c0,0,0.729,0,0.729-0.729C148.483,48.87,147.754,48.87,147.025,48.87L147.025,48.87z"/>
	<path fill-rule="evenodd" fill="#24211D" d="M146.296,44.497c2.188-0.729,5.103-1.458,6.561,2.187
		c-1.458-0.729-2.187-0.729-3.645-1.458c-2.187,0-5.103,0.729-6.561,0.729C144.109,45.225,145.567,44.497,146.296,44.497
		L146.296,44.497z"/>
	<path fill-rule="evenodd" fill="#73635B" d="M146.296,44.497c2.188-0.729,5.103-1.458,6.561,2.187
		c-1.458-0.729-2.187-1.458-4.373-1.458c-1.458-0.729-4.374,0.729-5.832,0.729C144.109,45.225,145.567,44.497,146.296,44.497
		L146.296,44.497z"/>
</g>
</svg>
