<?xml version="1.0" encoding="utf-8"?>
<!-- Generator: Adobe Illustrator 13.0.0, SVG Export Plug-In . SVG Version: 6.00 Build 14948)  -->
<svg version="1.2" baseProfile="tiny" id="Layer_1" xmlns="http://www.w3.org/2000/svg" xmlns:xlink="http://www.w3.org/1999/xlink"
	 x="0px" y="0px" width="135.499px" height="116.803px" viewBox="0 0 135.499 116.803" xml:space="preserve">
<path fill="#AAA195" d="M25.664,36.478c12.391-4.373,17.493,2.916,37.174,2.188c24.054,2.187,29.886-0.729,44.464,4.373
	c28.427,8.018,35.716,49.565-8.747,67.788C54.091,129.05,27.851,82.4,22.02,69.28c0,0-7.289-2.916-10.205-8.747
	C19.104,41.581,12.543,52.514,25.664,36.478L25.664,36.478z"/>
<path fill="#E5DCC6" d="M25.664,37.936c12.391-4.373,17.493,2.916,36.445,1.458c24.782,2.916,29.885,0,44.463,4.373
	c28.428,8.019,34.988,48.108-8.747,65.603C49.718,128.321,22.02,84.586,21.29,69.28c0,0-6.56-2.188-9.476-8.747
	C19.104,43.039,12.543,53.244,25.664,37.936L25.664,37.936z"/>
<path fill="#F0E7CD" d="M32.224,61.991c10.205-2.188,14.578,2.187,31.343,1.457c21.139,1.458,26.241,0,38.633,2.188
	c24.054,5.831,30.614,30.613-8.019,41.547C56.277,118.117,33.682,90.417,28.579,81.67c0,0-5.831-1.457-8.747-5.102
	C26.393,64.906,20.562,72.195,32.224,61.991L32.224,61.991z"/>
<path fill="#AAA195" d="M89.079,89.689c4.373,5.103,4.373,10.204,7.289,14.578c3.645-2.187,5.831,3.645,1.457,4.373
	c2.188,3.645-0.729,6.561-3.645,5.103c-0.729,1.458-0.729,3.645-3.645,2.916c-2.187,0-3.645-2.916-3.645-5.832
	c-3.645-2.915-14.578-9.476-13.12-16.765S83.247,83.858,89.079,89.689L89.079,89.689z"/>
<path fill="#AAA195" d="M113.133,80.213c14.578-5.832,24.783,14.578,21.867,17.493c-0.729,0.729-2.187-0.729-2.187-0.729
	s0.729,2.187-0.729,2.915c-0.729,0.729-2.187-0.729-2.187-0.729s0.729,2.187-0.729,2.916c-2.187,1.457-5.103-3.645-5.103-3.645
	c-4.373,5.831-13.12,5.102-16.036,0C103.657,91.147,106.572,82.4,113.133,80.213L113.133,80.213z"/>
<path fill="#F0E7CD" d="M113.133,80.942c13.85-5.103,23.325,12.392,20.409,15.307c-0.729,0.729-2.187-0.729-2.187-0.729
	s0.729,2.187,0,2.916c-1.458,0.729-2.187-0.729-2.187-0.729s0.729,1.458-0.729,2.916c-2.187,0.729-5.102-3.645-5.102-3.645
	c-4.374,5.103-12.392,4.373-15.308,0C103.657,91.147,106.572,83.128,113.133,80.942L113.133,80.942z"/>
<path fill-rule="evenodd" fill="#AAA195" d="M43.157,9.509c0.729,0,10.205,0,11.663,2.915c2.187,2.187,5.102,7.289,5.102,14.578
	c0.729,6.561,16.036,29.886,16.766,32.801c7.289,16.036-8.747,23.325-16.766,26.97c-20.409,8.747-40.09-0.729-48.836-10.204
	C8.17,72.924-1.306,67.092,0.151,56.888c1.458-10.205,8.747-13.85,13.121-16.766c4.373-2.915,13.12-13.12,18.951-18.223
	C38.055,16.798,40.242,8.051,43.157,9.509L43.157,9.509z"/>
<path fill="#F0E7CD" d="M89.079,90.417c4.373,4.374,3.645,8.747,6.56,13.12c3.645-2.187,5.103,3.645,1.458,4.374
	c1.458,2.915-0.729,5.831-3.645,4.373c0,1.458-0.729,2.916-2.916,2.916c-2.187,0-2.187-1.458-2.187-4.374
	c-3.645-2.187-15.307-9.476-13.849-16.035C75.958,87.502,83.247,84.586,89.079,90.417L89.079,90.417z"/>
<path fill-rule="evenodd" fill="#AAA195" d="M43.887,10.966c0,0-3.645-11.662-8.019-10.934c-4.373,0.729-9.476,2.187-6.56,6.561
	c2.915,5.103,9.476,9.476,9.476,9.476S44.615,15.34,43.887,10.966L43.887,10.966z"/>
<path fill-rule="evenodd" fill="#AAA195" d="M57.007,18.255c0,0,8.747-3.645,10.204-6.56c2.188-2.187,2.188-10.205-3.645-9.477
	c-5.831,0.729-8.018,5.103-8.746,8.019c-1.458,2.916-3.645,4.373-0.729,6.561C57.007,18.255,57.007,18.255,57.007,18.255
	L57.007,18.255z"/>
<path fill-rule="evenodd" fill="#F0E7CD" d="M43.157,10.966c0.729,0,10.205,0,11.663,2.916c2.187,2.187,4.373,7.289,5.102,13.85
	c0.729,6.56,12.392,27.698,14.579,32.071c5.831,13.85-6.561,22.597-15.308,25.512c-19.681,8.747-39.361,0-48.107-9.476
	C8.17,72.924,0.881,67.822,2.339,57.617c1.458-9.476,6.56-12.392,11.662-17.494c5.831-5.102,13.85-12.391,18.952-17.493
	C38.055,18.255,40.971,10.238,43.157,10.966L43.157,10.966z"/>
<path fill-rule="evenodd" fill="#F0E7CD" d="M43.157,10.966c0,0-3.645-10.204-7.289-9.476s-8.018,1.458-5.103,5.831
	c2.188,4.374,8.019,8.019,8.019,8.019S43.887,14.611,43.157,10.966L43.157,10.966z"/>
<path fill-rule="evenodd" fill="#F5F1E0" d="M38.784,20.443c0.729,0,8.018,0,9.476,2.187c1.458,1.458,3.645,5.831,3.645,10.934
	c0.729,5.103,13.12,23.325,13.12,26.24c2.187,14.578-6.56,17.494-13.12,20.41c-16.036,6.56-32.072-0.729-38.632-8.019
	c-2.916-2.187-8.019-6.56-7.289-14.578c1.458-8.018,4.373-10.934,6.56-12.392c2.916-2.187,13.85-10.934,18.223-15.307
	C35.14,26.274,37.326,19.713,38.784,20.443L38.784,20.443z"/>
<path fill-rule="evenodd" fill="#F0E7CD" d="M57.735,18.255c0,0,7.289-3.645,8.747-5.831c1.458-2.915,1.458-10.205-2.916-9.476
	c-5.102,0.729-6.56,5.103-8.018,8.018c-0.729,2.188-2.916,4.374-0.729,5.832C57.735,18.255,57.735,18.255,57.735,18.255
	L57.735,18.255z"/>
<path fill-rule="evenodd" fill="#FBF8C8" d="M40.971,12.424c0,0-2.916-8.018-4.373-8.018c-2.188,0-2.916-1.458-3.645,0.729
	c0,2.187,1.457,4.374,2.915,5.103c1.458,1.458,2.187,2.916,4.374,2.916C41.699,13.882,40.971,12.424,40.971,12.424L40.971,12.424z"
	/>
<path fill-rule="evenodd" fill="#FBF8C8" d="M57.007,16.069c0,0,6.56-5.103,5.831-6.56c-0.729-2.188,0-3.645-2.187-2.916
	s-3.645,2.187-4.374,3.645c0,2.187-1.457,3.645-0.729,5.103C55.549,17.527,57.007,16.069,57.007,16.069L57.007,16.069z"/>
<path fill-rule="evenodd" fill="#24211D" d="M55.549,25.544c-1.458-1.457-2.187-1.457-2.187-1.457s-1.458,0-1.458,0.729
	c0.729,0,2.187,0.729,2.916,1.458C54.82,27.732,55.549,25.544,55.549,25.544L55.549,25.544z"/>
<path fill-rule="evenodd" fill="#24211D" d="M47.531,32.833c1.457,0,2.915-1.457,3.645-2.915c0-1.458-0.729-3.645-2.188-3.645
	c-1.457,0-2.915,0.729-3.645,2.915C45.344,30.647,46.073,32.105,47.531,32.833L47.531,32.833z"/>
<path fill="none" stroke="#24211D" stroke-width="0" stroke-linecap="square" stroke-miterlimit="10" d="M47.531,32.833
	c1.457,0,2.915-1.457,3.645-2.915c0-1.458-0.729-3.645-2.188-3.645c-1.457,0-2.915,0.729-3.645,2.915
	C45.344,30.647,46.073,32.105,47.531,32.833L47.531,32.833z"/>
<path fill-rule="evenodd" fill="#FFFFFF" d="M47.531,32.833c1.457,0,2.915-0.729,2.915-2.915c0.729-1.458,0-2.916-1.458-2.916
	c-2.187-0.729-3.645,0.729-3.645,2.187C45.344,30.647,46.073,32.105,47.531,32.833L47.531,32.833z"/>
<path fill="none" stroke="#24211D" stroke-width="0" stroke-linecap="square" stroke-miterlimit="10" d="M47.531,32.833
	c1.457,0,2.915-0.729,2.915-2.915c0.729-1.458,0-2.916-1.458-2.916c-2.187-0.729-3.645,0.729-3.645,2.187
	C45.344,30.647,46.073,32.105,47.531,32.833L47.531,32.833z"/>
<path fill-rule="evenodd" fill="#75886C" d="M47.531,32.833c1.457,0,2.187-0.729,2.915-1.457c0-1.458-0.729-2.188-2.187-2.916
	c-0.729,0-2.187,0.729-2.187,1.458C46.073,31.376,46.802,32.105,47.531,32.833L47.531,32.833z"/>
<path fill-rule="evenodd" fill="#24211D" d="M47.531,32.105c0.729,0,1.457-0.729,1.457-1.458c0,0,0-0.729-0.729-1.458
	c-0.729,0-1.458,0.729-1.458,1.458C46.802,31.376,46.802,32.105,47.531,32.105L47.531,32.105z"/>
<path fill="none" stroke="#24211D" stroke-width="0" stroke-linecap="square" stroke-miterlimit="10" d="M47.531,32.105
	c0.729,0,1.457-0.729,1.457-1.458c0,0,0-0.729-0.729-1.458c-0.729,0-1.458,0.729-1.458,1.458
	C46.802,31.376,46.802,32.105,47.531,32.105L47.531,32.105z"/>
<path fill-rule="evenodd" fill="#66605A" d="M16.188,61.991c0.729,0,1.458-0.729,2.188-2.188c0-0.729-0.729-1.458-1.458-2.187
	c-1.458,0-2.187,0.729-2.187,2.187C14.001,60.533,14.73,61.261,16.188,61.991L16.188,61.991z"/>
<path fill-rule="evenodd" fill="#66605A" d="M67.94,64.177c-0.729,1.458,0,2.915-0.729,3.645
	c-8.018,10.204-15.307,11.662-29.885,12.392c0,0-10.934-1.458-18.223-7.289c-7.289-5.832-9.476-8.019-9.476-11.663
	c0.729-3.645-1.458-1.458-1.458,0c2.916,10.205,19.681,17.494,30.614,18.223c12.392,0,20.409-2.915,24.054-5.831
	c3.645-2.187,7.289-8.018,6.561-8.747C68.669,64.177,67.94,64.177,67.94,64.177L67.94,64.177z"/>
<path fill-rule="evenodd" fill="#FFFFFF" d="M46.802,30.647c0.729,0,0.729,0,1.458-0.729l-0.729-0.729c-0.729,0-0.729,0-0.729,0.729
	V30.647L46.802,30.647z"/>
<path fill-rule="evenodd" fill="#C59F88" d="M56.277,7.322c-5.831,0-6.56,2.916-6.56,2.188c0,0,0-0.729-0.729-1.458
	c0-1.458-2.187-1.458-2.915-3.645c0.729,2.915,0,4.373,1.458,5.103c-0.729-0.729-5.103-1.458-8.019,0
	c3.645-0.729,6.561,0.729,6.561,0.729c0,0.729-2.916,0.729-5.103,3.645c2.187-2.187,5.103-2.187,5.103-1.458
	c-3.645,1.458-2.187,1.458-4.374,4.374c0.729-0.729,3.645-2.916,5.103-2.916c-2.187,2.187-2.187,5.831-2.915,7.289
	c0,0,2.187-4.373,4.373-6.561c0,0,2.916,5.103,2.187,6.561c-0.729-4.373-1.458-5.103-0.729-7.289
	c0.729,1.458,3.645,2.187,5.103,4.373c0,0-3.645-5.102-4.374-5.102c-0.729-0.729,6.561,2.915,7.289,2.187
	c-3.645-2.187-5.103-3.645-5.103-4.374C52.633,10.238,51.904,8.051,56.277,7.322L56.277,7.322z"/>
<path fill-rule="evenodd" fill="#66605A" d="M59.922,61.991c0.729,0,2.188-0.729,2.188-1.458c0-0.729-0.729-2.188-1.458-2.188
	c-0.729,0-1.458,0.729-2.187,1.458C58.465,60.533,59.193,61.991,59.922,61.991L59.922,61.991z"/>
<path fill-rule="evenodd" fill="#24211D" d="M37.326,32.105c2.187,0,3.645-0.729,3.645-2.916c0.729-1.457-0.729-2.915-2.187-3.645
	c-1.458,0-2.916,0.729-3.645,2.916C35.14,29.918,35.868,31.376,37.326,32.105L37.326,32.105z"/>
<path fill="none" stroke="#24211D" stroke-width="0" stroke-linecap="square" stroke-miterlimit="10" d="M37.326,32.105
	c2.187,0,3.645-0.729,3.645-2.916c0.729-1.457-0.729-2.915-2.187-3.645c-1.458,0-2.916,0.729-3.645,2.916
	C35.14,29.918,35.868,31.376,37.326,32.105L37.326,32.105z"/>
<path fill-rule="evenodd" fill="#24211D" d="M40.971,21.9c-1.458-0.729-2.187,0-2.187,0s-0.729,0.729-0.729,1.458
	c0.729,0,2.188-1.458,2.916-0.729C41.699,22.629,40.971,21.9,40.971,21.9L40.971,21.9z"/>
<path fill-rule="evenodd" fill="#FFFFFF" d="M38.055,32.105c1.458,0,2.916-0.729,2.916-2.187c0.729-1.458-0.729-2.916-2.187-3.645
	c-1.458,0-2.916,0.729-2.916,2.187C35.14,29.918,35.868,32.105,38.055,32.105L38.055,32.105z"/>
<path fill="none" stroke="#24211D" stroke-width="0" stroke-linecap="square" stroke-miterlimit="10" d="M38.055,32.105
	c1.458,0,2.916-0.729,2.916-2.187c0.729-1.458-0.729-2.916-2.187-3.645c-1.458,0-2.916,0.729-2.916,2.187
	C35.14,29.918,35.868,32.105,38.055,32.105L38.055,32.105z"/>
<path fill-rule="evenodd" fill="#75886C" d="M38.055,32.105c0.729,0,2.188-0.729,2.188-1.458c0-1.458-0.729-2.187-1.458-2.915
	c-1.458,0-2.187,0.729-2.916,2.187C35.868,30.647,36.598,32.105,38.055,32.105L38.055,32.105z"/>
<path fill-rule="evenodd" fill="#24211D" d="M38.055,31.376c0.729,0.729,1.458,0,1.458-0.729c0-0.729,0-1.458-0.729-1.458
	c-0.729,0-1.458,0-1.458,0.729C37.326,30.647,37.326,31.376,38.055,31.376L38.055,31.376z"/>
<path fill="none" stroke="#24211D" stroke-width="0" stroke-linecap="square" stroke-miterlimit="10" d="M38.055,31.376
	c0.729,0.729,1.458,0,1.458-0.729c0-0.729,0-1.458-0.729-1.458c-0.729,0-1.458,0-1.458,0.729
	C37.326,30.647,37.326,31.376,38.055,31.376L38.055,31.376z"/>
<path fill-rule="evenodd" fill="#FFFFFF" d="M37.326,30.647l0.729-0.729c0-0.729,0-0.729-0.729-0.729c0,0-0.729,0-0.729,0.729
	C36.598,29.918,36.598,29.918,37.326,30.647L37.326,30.647z"/>
<path fill-rule="evenodd" fill="#AAA195" d="M127.711,70.737c0,0.729,3.645,8.019,4.373,10.205
	c1.458-2.187,0.729-10.205,0.729-10.934C130.627,64.177,125.524,67.092,127.711,70.737L127.711,70.737z"/>
<path fill="#AAA195" d="M14.001,107.182c2.187,0,9.476,1.458,29.886-0.729c13.849-3.645-12.392-13.85-12.392-13.85h-2.916
	c0.729-2.187,0.729-3.645,0-5.831c-0.729-2.187-2.187-8.018-5.831-8.747c-3.645-0.729-1.458,6.561-1.458,6.561
	S8.898,88.959,6.712,94.062C5.254,99.893,7.441,106.454,14.001,107.182L14.001,107.182z"/>
<path fill="#AAA195" d="M16.917,77.297c0,0-2.916-0.729-3.645,0.729c-1.458,1.458,2.187,7.289,7.289,9.477
	c5.103,1.457,0.729-4.374,0.729-4.374L16.917,77.297z"/>
<path fill="#F0E7CD" d="M13.272,105.725c0,0,18.223,2.187,30.614-0.729c13.12-2.187-11.663-10.934-11.663-10.934l-13.849-0.729
	L13.272,105.725z"/>
<path fill="#F0E7CD" d="M16.917,77.297c0,0-2.187-0.729-2.916,0.729c-0.729,1.458,2.916,7.289,7.289,9.477
	c4.374,1.457,0.729-3.645,0.729-3.645L16.917,77.297z"/>
<path fill="#AAA195" d="M22.02,77.297c0,0-2.916-1.458-4.374,0c-1.458,0.729-0.729,7.289,3.645,10.205
	c4.374,2.915,2.187-2.916,2.187-2.916L22.02,77.297z"/>
<path fill="#F0E7CD" d="M22.02,78.026c0,0-2.188-1.457-3.645-0.729c-1.458,0.729-0.729,8.018,2.915,10.934s2.916-3.645,2.916-3.645
	L22.02,78.026z"/>
<path fill="#F0E7CD" d="M21.29,84.586c0,0-11.662,5.103-13.12,10.205c-2.916,5.831,5.103,16.035,12.392,9.476
	c6.56-5.831,8.747-12.392,8.018-16.765c-0.729-2.188-2.915-8.019-5.103-8.747C19.832,78.026,21.29,84.586,21.29,84.586L21.29,84.586
	z"/>
<path fill-rule="evenodd" fill="#C59F88" d="M57.735,11.696c-5.103-3.645-8.018-1.458-7.289-1.458c0,0,0-0.729,0-2.187
	c0.729-0.729,0.729-2.187,0.729-4.374c0,3.645-3.645,4.374-2.916,5.832c0-1.458-4.373-2.916-7.289-2.916
	c3.645,0.729,5.831,2.916,5.831,2.916c0,0.729-2.915-0.729-5.831,2.187c2.916-1.458,5.103-0.729,5.103-0.729
	c-3.645,0.729-2.187,2.188-5.103,4.374c0.729,0,4.373-2.187,5.103-2.187c-2.187,1.457-2.187,3.645-3.645,5.102
	c0,0,2.187-2.187,4.373-3.645c0.729,0,2.187,5.832,1.458,6.561c0.729-4.373,0-5.103,0.729-6.561c0,1.458,2.188,2.916,3.645,5.832
	c0,0-2.187-5.832-2.915-7.289c-0.729,0,5.831,5.831,5.831,5.102c-2.187-2.915-2.916-5.102-2.916-5.831
	C52.633,11.696,54.091,10.966,57.735,11.696L57.735,11.696z"/>
</svg>
