<?xml version="1.0" encoding="utf-8"?>
<!-- Generator: Adobe Illustrator 13.0.0, SVG Export Plug-In . SVG Version: 6.00 Build 14948)  -->
<svg version="1.2" baseProfile="tiny" id="Layer_1" xmlns="http://www.w3.org/2000/svg" xmlns:xlink="http://www.w3.org/1999/xlink"
	 x="0px" y="0px" width="185.152px" height="133.532px" viewBox="0 0 185.152 133.532" xml:space="preserve">
<path fill-rule="evenodd" fill="#C08557" d="M129.67,18.223c0,0,5.103-4.373,15.307-3.645c9.476,0.729,13.12,5.832,14.578,10.934
	c3.645,12.392,5.103,23.325-11.662,26.97c-7.289,0.729-13.85,0.729-13.85,0.729l1.458-9.476c0,0,7.289,5.102,10.934,3.645
	c8.747-3.645,10.934-18.224,0.729-21.868c-5.102-2.187-14.578,5.832-14.578,5.832L129.67,18.223L129.67,18.223z"/>
<path fill-rule="evenodd" fill="#FCC78C" d="M131.856,26.97c0,0,1.458-2.187,2.916-0.729c2.187,0.729,0-2.916,0-2.916
	c2.915,0.729,3.645,0,5.102,0.729c2.916,0.729-1.457-4.374-2.187-3.645c-1.458,0.729,3.645-2.188,8.019-2.188
	c7.289,0,13.12,10.205,13.12,18.952c0,5.103-1.458,8.018-3.645,10.205c-2.916,2.187-5.831,2.187-9.476,1.457
	c-3.645-0.729-10.934-0.729-10.934-2.187C135.501,45.922,136.959,40.091,131.856,26.97L131.856,26.97z"/>
<path fill-rule="evenodd" fill="#C08557" d="M88.122,21.867c0,0-2.916-4.373-8.747-5.831c-5.831-0.729-12.392-3.645-18.223,0.729
	c-5.832,3.645-9.477,15.307-9.477,15.307s-2.186,16.036,0.729,19.681c6.56,9.476,30.614,0,29.886-1.458
	C81.562,48.108,78.646,40.819,88.122,21.867L88.122,21.867z"/>
<path fill-rule="evenodd" fill="#FCC78C" d="M85.206,27.699c0,0-1.458-2.188-3.645-0.729c-2.187,0.729,0-2.915,0-2.915
	c-2.915,0.729-3.645,0-5.831,0.729c-2.916,0.729,1.458-3.645,2.916-3.645c1.457,0.729-4.374-2.187-8.747-2.187
	c-8.019,0.729-13.85,10.204-13.85,18.951c0,5.832,0.729,8.019,3.645,10.205s5.831,2.187,10.205,1.458
	c3.645,0,11.662-0.729,11.662-1.458C80.833,46.65,79.375,40.819,85.206,27.699L85.206,27.699z"/>
<path fill-rule="evenodd" fill="#C08557" d="M90.309,58.313c0,0-56.855,15.307-56.855,23.324c0.729,8.747,2.188,9.477-2.915,11.663
	c-5.831,2.916,40.819-24.783,50.295-22.597c9.476,2.188,8.018,0,8.747,4.374c1.457,4.373,1.457,14.578,0,14.578
	c0,0,0-0.729-0.729-0.729c0.729,0.729,5.831,5.831,7.289,10.204c2.187,5.831,5.103,10.205,5.103,10.205s0-5.831,2.187-10.205
	c2.187-5.103,13.121-5.103,13.121-5.103s2.915-4.373,9.476-4.373c7.289,0.729,4.373-3.645,5.103,0.729
	c0.729,4.374-8.019,19.681-8.019,19.681s8.747-22.596,8.747-21.867c0,0.729,0.729-8.018-0.729-13.12
	c0.729,0.729,4.373,0.729,7.289,3.645c4.373,5.103,8.746,13.85,8.746,12.392c0-3.645-0.729-4.374,1.458-7.289
	c1.458-2.188-5.103-16.766-7.289-16.766c0,0-2.187-2.187-5.103-2.915c-2.915-0.729-6.56-0.729-8.746-0.729
	c-5.103-0.729-2.916,0-1.458-0.729S109.989,72.892,90.309,58.313L90.309,58.313z M88.851,88.928h-0.729l0,0H88.851z M97.598,119.541
	c1.458,0.729,2.187,0.729,2.187,0.729l23.325-10.205l-22.596,10.205L97.598,119.541z"/>
<path fill-rule="evenodd" fill="#F89F62" d="M96.869,61.958c3.645,2.187,2.187,34.987-2.188,33.529
	c-4.373-0.729,6.561,13.85,6.561,13.85l5.103,4.373c0,0,30.614-24.782,22.596-18.951c-7.289,5.831-5.831-29.156-6.56-29.156
	C120.923,64.873,104.158,67.06,96.869,61.958L96.869,61.958z"/>
<path fill-rule="evenodd" fill="#C08557" d="M128.94,112.981c0,0,8.747-15.308,8.019-19.681c-0.729-3.645,0.729-9.476-6.561-10.205
	c-6.56,0-9.476,3.645-10.204,5.103c0,0-8.747,8.747-10.934,13.85c-1.458,4.373-2.188,10.204-2.188,10.204s-2.915-4.373-4.373-10.204
	c-1.458-5.103-8.019-10.205-8.019-10.205s-4.373-4.373-8.746-5.103c-4.374-1.457-10.205,0-11.663,6.561
	c-2.187,5.831,2.916,17.494,2.916,17.494l8.018,9.476l21.139,2.915L128.94,112.981z"/>
<path fill-rule="evenodd" fill="#FCC78C" d="M92.495,114.439c0,0-5.831-4.374-5.831-10.205c0-5.103-0.729-14.578-2.916-16.765
	c-2.915-2.187-8.018-1.458-8.018,2.187c0.729,3.645,8.018,12.392,6.561,15.307c-2.188,2.188-3.645,3.645-5.103,1.458
	c-0.729-2.187-1.458-10.204-4.374-13.12c-2.187-2.916-8.018-0.729-8.018,2.187c-0.729,3.645,10.205,13.12,8.747,13.85
	c-1.458,0.729-2.187,2.187-2.916,0.729c-1.458-2.187-5.103-8.018-8.019-8.747c-2.915-1.457-7.289,0.729-5.102,5.103
	c2.916,5.103,5.831,6.561,10.934,7.289c-3.645,2.187-9.477-2.187-13.121-1.458c-2.915,0.729-2.186,6.561,1.459,8.019
	c0,0,5.83,2.187,11.662,3.645c5.831,1.458,5.831,2.187,10.205,5.103c3.645,2.915,5.102,5.102,8.746,4.373s7.289-2.916,8.747-4.373
	c0.729-2.188,2.187-9.477,3.645-11.663s4.374-7.289,4.374-7.289s-1.458-8.018-5.832-5.103
	C93.225,107.879,92.495,114.439,92.495,114.439L92.495,114.439z"/>
<path fill-rule="evenodd" fill="#C08557" d="M133.314,40.091c0,0,1.458-14.579-0.729-18.952c-2.187-3.645-5.102-8.747-8.746-10.205
	c-2.916-1.457-16.766-5.831-27.699-1.457c-10.934,5.102-9.476,8.746-12.392,15.307c-2.915,5.831-4.373,21.139-0.729,26.241
	c2.916,5.102,10.205,8.746,13.85,10.934c-3.645-2.916-2.188-11.663-2.188-11.663s2.188-10.204,5.103-12.392
	c2.916-2.915,4.374-4.373,13.85-5.831C123.109,29.886,133.314,40.091,133.314,40.091L133.314,40.091z M97.598,62.687
	c1.458,0.729,2.916,1.458,5.103,2.187L97.598,62.687z M102.7,64.873c2.187,0.729,5.103,0.729,8.018,1.458L102.7,64.873z
	 M110.718,66.331c3.645,0,7.289-0.729,10.934-2.187C116.55,65.603,111.447,66.331,110.718,66.331L110.718,66.331z M126.025,62.687
	c4.373-2.187,6.56-4.373,8.018-6.561C134.043,56.126,131.128,59.042,126.025,62.687L126.025,62.687z M134.043,56.126
	c0.729-0.729,1.458-2.187,1.458-2.915C134.772,54.669,134.043,56.126,134.043,56.126L134.043,56.126z M137.688,46.65
	c0.729-2.187,0-5.831-0.729-8.018C137.688,41.548,137.688,45.192,137.688,46.65L137.688,46.65z"/>
<path fill-rule="evenodd" fill="#FCC78C" d="M93.953,37.175c-2.187-6.561-6.561-12.392-3.645-16.765
	c3.645-6.561,8.747-9.477,17.494-3.645c4.373-9.477,20.409-2.188,22.596,4.373c1.458,6.561-1.458,18.223-3.645,17.494
	C124.567,37.903,104.158,26.97,93.953,37.175L93.953,37.175z"/>
<path fill-rule="evenodd" fill="#FFFFFF" d="M93.225,33.53c0,0-4.374-8.019-1.458-11.663c2.915-4.373,5.103-4.373,8.747-4.373
	s8.018,0.729,8.747,4.373c-0.729-1.457-1.458-4.373,3.645-6.56c4.373-1.458,16.035,2.915,14.578,9.476
	c-1.458,7.289-5.103,4.373-1.458,5.831S99.784,26.97,93.225,33.53L93.225,33.53z"/>
<path fill-rule="evenodd" fill="#FCC78C" d="M113.634,128.288c2.187,2.916,9.476,5.103,13.12,5.103s9.476-4.373,10.934-7.289
	c2.187-2.187,9.476-8.018,13.85-8.018c3.645-0.729,2.915-9.477-1.458-7.289c-5.103,2.187-7.289,5.831-8.018,3.645
	c-0.729-2.188,2.187-5.103,3.645-5.832c1.457-1.457,4.373-4.373,3.645-5.831c0-2.187-2.916-8.018-7.289-2.915
	c-2.916,3.645-2.188,8.018-5.103,8.746c-4.374-1.457,7.289-14.578,5.103-17.493c-3.645-2.916-7.289-2.187-8.747,3.645
	c-2.187,5.103-3.645,9.476-3.645,9.476s1.458-9.476,2.915-15.307c0.729-5.832-9.476-2.916-9.476-0.729s-1.458,9.476-0.729,11.663
	c0.729,3.645-0.729,9.476-2.916,10.934c-2.915,0.729-2.915-0.729-2.915-0.729l-4.374-4.373c-6.561-8.019-13.12,5.831-6.561,9.476
	C109.261,116.626,112.176,119.541,113.634,128.288L113.634,128.288z"/>
<path fill-rule="evenodd" fill="#FCC78C" d="M126.025,29.886c0,0-5.103-2.916-16.765-1.458c-11.663,0.729-24.055,2.187-26.97,7.289
	c-5.103,10.205,3.645,29.886,14.578,29.156l9.476,1.458c13.85,2.916,32.072-3.645,31.343-18.951
	C137.688,43.735,138.417,25.512,126.025,29.886L126.025,29.886z"/>
<path fill-rule="evenodd" fill="#24211D" d="M110.718,45.192c2.916,2.188,0.729-4.373,3.645-5.831c2.916-0.729,7.289,1.458,7.289,0
	c1.458-3.645-7.289-6.561-12.391-5.831c-4.374,1.458-9.477,4.373-9.477,5.831c0.729,2.916,8.019-2.916,8.747,0.729
	C108.531,40.091,108.531,43.006,110.718,45.192L110.718,45.192z"/>
<path fill-rule="evenodd" fill="#24211D" d="M91.767,21.139c0,0,0.729-2.916,1.458-3.645c1.457-0.729,3.645-1.458,3.645-1.458
	s0.729-2.187-0.729-1.458c-0.729,0-5.831,4.374-5.831,5.103C90.309,21.139,91.767,21.139,91.767,21.139L91.767,21.139z"/>
<path fill-rule="evenodd" fill="#24211D" d="M114.362,13.85c0,0,4.374,0.729,5.832,0.729c1.457,0.729,3.645,2.188,3.645,2.188
	s2.187,0.729,0.729-1.458s-10.205-2.916-10.205-2.916C113.634,12.392,114.362,13.85,114.362,13.85L114.362,13.85z"/>
<path fill-rule="evenodd" fill="#C08557" d="M107.803,11.663c0.729-2.916-0.729-6.561,3.645-9.476c0,0-3.645,2.915-4.374,2.187
	c-0.729-0.729-1.458-2.187-2.187-4.374c0,0,0,5.103,0,6.561c0.729,1.458-2.187-1.458-5.103-1.458
	c3.645,2.187,6.561,3.645,5.103,4.374C104.158,10.205,107.803,11.663,107.803,11.663L107.803,11.663z"/>
<path fill-rule="evenodd" fill="#24211D" d="M105.615,23.325c0-2.915-2.915-3.645-5.831-2.915c-0.729,0.729-2.915,1.457-3.645,2.915
	c-1.458,3.645,0.729,5.103,5.103,4.374c1.458-0.729,3.645,0,4.373-1.458C105.615,24.783,105.615,24.783,105.615,23.325
	L105.615,23.325z"/>
<path fill-rule="evenodd" fill="#FFFFFF" d="M105.615,24.055c-0.729-2.916-2.915-4.374-5.102-3.645
	c-1.458,0.729-3.645,2.187-4.374,3.645c-0.729,2.915,1.458,3.645,4.374,2.915c1.457,0,3.645,0.729,4.373-0.729
	S105.615,25.512,105.615,24.055L105.615,24.055z"/>
<path fill-rule="evenodd" fill="#C1A15E" d="M103.429,26.97c2.187,0,2.187-2.187,0.729-4.373c-1.458-2.187-5.832-1.458-7.289,0.729
	c-1.458,2.187,0,5.103,2.187,4.374c0.729-0.729,1.458-0.729,2.187-0.729C101.971,27.699,101.242,26.97,103.429,26.97L103.429,26.97z
	"/>
<path fill-rule="evenodd" fill="#24211D" d="M101.242,21.867c-3.645,0-4.373,5.832-0.729,5.103c0.729,0,1.457,0,1.457,0
	C105.615,26.241,103.429,21.867,101.242,21.867L101.242,21.867z"/>
<path fill-rule="evenodd" fill="#24211D" d="M97.598,18.952c0.729,0.729,0.729,2.187,0.729,2.187c0.729,0,1.458,0,1.458,0
	C99.056,21.139,98.326,19.681,97.598,18.952L97.598,18.952z"/>
<path fill-rule="evenodd" fill="#24211D" d="M102.7,18.223c0,0.729-0.729,1.458-0.729,2.188h0.729
	C102.7,20.41,102.7,18.952,102.7,18.223L102.7,18.223z"/>
<path fill-rule="evenodd" fill="#24211D" d="M106.345,20.41c0,0.729-0.729,0.729-1.458,1.457l0.729,0.729
	C105.615,21.867,106.345,21.139,106.345,20.41L106.345,20.41z"/>
<path fill-rule="evenodd" fill="#FFFFFF" d="M99.056,22.597c-0.729,0-0.729,0-0.729,0c0,0.729,0,0.729,0,0.729s0,0.729,0,1.458
	h0.729c0.729,0,0.729-0.729,0.729-0.729s0,0,0-0.729c0,0,0,0,0-0.729C99.056,22.597,99.056,22.597,99.056,22.597L99.056,22.597z"/>
<path fill-rule="evenodd" fill="#24211D" d="M119.465,21.867c-0.729-2.915-4.373-3.645-5.831-2.187
	c-1.458,0.729-2.187,1.458-2.187,2.916c0.729,3.645,2.187,3.645,5.831,2.915c1.458,0,2.916,0,2.916-2.187
	C120.194,21.867,120.194,22.597,119.465,21.867L119.465,21.867z"/>
<path fill-rule="evenodd" fill="#FFFFFF" d="M115.092,19.681c-2.187,0-3.645,0.729-3.645,3.645c0.729,1.458,1.458,2.187,2.915,2.187
	c2.188,0,5.832,0,5.832-2.187S117.278,19.681,115.092,19.681L115.092,19.681z"/>
<path fill-rule="evenodd" fill="#24211D" d="M119.465,17.494c0,1.458-1.458,2.187-1.458,2.187c0,0.729,0.729,0.729,0.729,0.729
	C118.736,19.681,119.465,18.223,119.465,17.494L119.465,17.494z"/>
<path fill-rule="evenodd" fill="#24211D" d="M115.092,16.766c0.729,0.729,0,2.187,0,2.187c0.729,0.729,1.458,0,1.458,0
	C115.82,18.952,115.82,17.494,115.092,16.766L115.092,16.766z"/>
<path fill-rule="evenodd" fill="#24211D" d="M112.176,18.223c0.729,0.729,0.729,1.458,0.729,1.458c0,0.729,0.729,0,0.729,0
	C112.905,19.681,112.905,18.952,112.176,18.223L112.176,18.223z"/>
<path fill-rule="evenodd" fill="#C1A15E" d="M118.007,25.512c2.188-0.729,2.188-2.187,0.729-4.373c-0.729-1.458-5.103-1.458-6.561,0
	c-1.458,2.187,0,4.373,2.187,4.373c0,0,1.458,0,2.188,0C117.278,25.512,118.007,25.512,118.007,25.512L118.007,25.512z"/>
<path fill-rule="evenodd" fill="#24211D" d="M115.82,20.41c-3.645,0-4.373,5.102-1.458,4.373c0.729,0,1.458,0,2.188,0
	C118.736,24.783,117.278,20.41,115.82,20.41L115.82,20.41z"/>
<path fill-rule="evenodd" fill="#FFFFFF" d="M113.634,21.867c-0.729-0.729-0.729,0-0.729,0l0,0c0,0.729,0,1.458,0,1.458h0.729
	c0,0,0.729,0,0.729-0.729l0,0C114.362,21.867,114.362,21.867,113.634,21.867L113.634,21.867L113.634,21.867z"/>
<path fill-rule="evenodd" fill="#FCC78C" d="M144.248,86.74c0,0,1.458-6.56,3.645-8.747c2.187-1.457,1.458-9.476,1.458-9.476
	s2.187-3.645,5.831-1.458c7.289,3.645-2.916,10.205-1.458,11.663c0.729,1.458,4.373,2.915,7.289,2.187l16.765-5.831
	c1.458,0,4.374,0.729,4.374,2.915c0.729,2.916-1.458,4.374-1.458,4.374c3.645,0,4.373,5.103,1.458,7.289
	c2.187,0,5.831,7.289-0.729,8.018c1.458,0.729,0,2.916-1.457,2.916c-2.916,0-13.121-4.373-21.139-4.373
	C154.452,96.945,142.062,94.029,144.248,86.74L144.248,86.74z"/>
<path fill-rule="evenodd" fill="#C08557" d="M152.995,86.74c3.645-2.915,0-8.018,0.729-8.018
	C153.724,78.723,156.64,83.825,152.995,86.74L152.995,86.74z"/>
<path fill-rule="evenodd" fill="#C08557" d="M167.573,93.301c2.187-9.476-2.188-8.747-2.916-8.747
	C164.657,84.554,169.03,84.554,167.573,93.301L167.573,93.301z"/>
<path fill-rule="evenodd" fill="#C08557" d="M169.76,85.283c0.729,1.457,10.934-2.916,10.934-2.188
	C180.693,83.096,170.488,86.74,169.76,85.283L169.76,85.283z"/>
<path fill-rule="evenodd" fill="#C08557" d="M171.218,90.385c-0.729,1.458,10.934-0.729,10.934-0.729S171.218,91.843,171.218,90.385
	L171.218,90.385z"/>
<path fill-rule="evenodd" fill="#C08557" d="M170.488,94.029c-0.729,1.458,10.934,3.645,10.934,3.645S169.76,95.487,170.488,94.029
	L170.488,94.029z"/>
<path fill-rule="evenodd" fill="#24211D" d="M133.314,45.192c0,1.458,0.729,2.916,0,3.645c-4.374,8.747-9.476,12.392-20.409,14.578
	c0,0-8.747,0-14.579-3.645c-6.56-3.645-9.476-6.56-9.476-10.204c-0.729-2.916-2.187-0.729-1.458,0
	c4.374,8.747,16.766,13.12,25.513,12.392c9.476-1.458,16.035-5.103,18.223-8.019c2.187-2.187,3.645-8.018,2.915-8.018
	C133.314,45.192,133.314,45.192,133.314,45.192L133.314,45.192z"/>
<path fill-rule="evenodd" fill="#24211D" d="M136.959,47.38c-0.729-0.729-1.458-1.458-2.916-1.458c-0.729,0-1.458-0.729-2.187,0
	v-0.729c0.729,0,2.187,0,2.916,0c0,0.729,0.729,0.729,1.457,0.729C136.229,46.65,136.229,46.65,136.959,47.38L136.959,47.38z"/>
<path fill-rule="evenodd" fill="#24211D" d="M84.478,51.024c0-1.458,2.187-2.188,3.645-2.916c0.729,0,1.458-0.729,2.187-0.729
	s0.729,0,0,0c-0.729,0.729-2.187,0-2.916,0.729c-0.729,0-1.457,0.729-2.187,0.729C84.478,49.566,84.478,50.295,84.478,51.024
	L84.478,51.024z"/>
<path fill-rule="evenodd" fill="#24211D" d="M112.176,62.687c0,0-0.729-10.205,0-11.662c0-1.458,0-5.832,0-5.832
	s-2.915-4.373-1.458,1.458c1.458,5.103,0,16.036,0.729,16.036C112.905,63.415,112.176,62.687,112.176,62.687L112.176,62.687z"/>
<path fill-rule="evenodd" fill="#C2C0BE" d="M104.887,36.445c-2.916,1.458-1.458,3.646,1.458,1.458c0,0,0.729-0.729,1.458-0.729
	C109.989,35.717,107.073,35.717,104.887,36.445L104.887,36.445z"/>
<path fill-rule="evenodd" fill="#24211D" d="M118.007,43.006L118.007,43.006c0,0,0,0,0,0.729l0,0c0,0,0.729,0.729,0.729,0l0,0
	c0,0,0,0,0-0.729l0,0H118.007L118.007,43.006z"/>
<path fill-rule="evenodd" fill="#24211D" d="M117.278,45.922h-0.729v0.729l0.729,0.729c0,0,0,0,0.729,0c0-0.729,0-0.729,0-0.729l0,0
	c0-0.729,0-0.729,0-0.729C117.278,45.922,117.278,45.922,117.278,45.922L117.278,45.922z"/>
<path fill-rule="evenodd" fill="#24211D" d="M120.923,45.192c0,0,0,0,0,0.729l0,0v0.729h0.729v-0.729l0,0v-0.729
	C120.923,45.192,120.923,45.192,120.923,45.192L120.923,45.192z"/>
<path fill-rule="evenodd" fill="#24211D" d="M99.784,43.735c-0.729,0-0.729,0-0.729,0.729l0,0c0,0,0,0.729,0.729,0.729l0,0
	c0.729,0,0.729,0,0.729-0.729l0,0C100.514,44.464,99.784,44.464,99.784,43.735L99.784,43.735L99.784,43.735z"/>
<path fill-rule="evenodd" fill="#24211D" d="M98.326,46.65v0.729l0,0v0.729c0.729,0,0.729,0,0.729,0s0,0,0-0.729c0,0,0.729,0,0,0
	l0,0C99.056,46.65,99.056,46.65,98.326,46.65L98.326,46.65z"/>
<path fill-rule="evenodd" fill="#24211D" d="M102.7,46.65c-0.729,0-0.729,0-0.729,0l0,0c0,0.729,0,0.729,0,0.729
	c0.729,0,0.729,0,0.729,0h0.729V46.65C102.7,46.65,102.7,46.65,102.7,46.65L102.7,46.65L102.7,46.65z"/>
<path fill-rule="evenodd" fill="#24211D" d="M122.381,27.699c0-0.729-1.458-1.458-2.187-1.458c-0.729-0.729-1.458-0.729-2.188-0.729
	l0,0c0.729,0,1.458,0,2.188,0c0.729,0,1.457,0.729,1.457,0.729C122.381,26.97,122.381,26.97,122.381,27.699L122.381,27.699z"/>
<path fill-rule="evenodd" fill="#24211D" d="M92.495,29.886c0.729-1.458,2.916-1.458,4.374-2.187c0.729,0,2.187,0,2.915,0
	c0.729,0,0.729-0.729,0.729-0.729c-1.458,0.729-2.916,0-4.374,0.729c-0.729,0-1.458,0-2.187,0.729
	C93.225,28.428,93.225,29.156,92.495,29.886L92.495,29.886z"/>
<path fill-rule="evenodd" fill="#FCC78C" d="M33.453,91.843c1.459-2.187,0.729-7.289,0.729-10.934s2.187-15.307,0.729-17.494
	c-0.729-2.187-3.645-5.102-6.561-0.729c-3.645,3.645,0,8.747-0.729,10.934c0,2.187-0.729,2.916-5.832,2.916
	c-5.102-0.729-8.018-4.374-8.746-8.747c-1.459-5.103-7.289-1.458-5.104,2.915c1.459,4.374,4.374,8.747,5.832,8.747
	c-0.729,0.729-8.018-5.831-10.205-6.56c-1.457-0.729-4.373,1.457-2.187,5.831c2.915,4.373,10.204,5.831,10.934,6.561
	C9.4,84.554,5.026,81.638,2.111,83.096c-3.645,1.458-2.188,5.832,1.457,6.561c3.645,1.458,8.018,2.187,10.934,2.187
	c-2.916,1.458-7.289,1.458-9.476,1.458s-3.645,6.561,2.915,5.831c5.832,0,6.561-1.458,9.477-2.187
	C20.334,96.945,29.08,96.945,33.453,91.843L33.453,91.843z"/>
<path fill-rule="evenodd" fill="#C08557" d="M18.146,80.181c-0.729,0-2.187,12.392,1.458,13.12
	C14.502,92.572,17.418,80.181,18.146,80.181L18.146,80.181z"/>
<path fill-rule="evenodd" fill="#C08557" d="M83.02,110.065c-0.729,0-10.934,5.831-10.205,9.476
	C70.628,115.168,82.291,109.337,83.02,110.065L83.02,110.065z"/>
</svg>
