<?xml version="1.0" encoding="utf-8"?>
<!-- Generator: Adobe Illustrator 13.0.0, SVG Export Plug-In . SVG Version: 6.00 Build 14948)  -->
<svg version="1.2" baseProfile="tiny" id="Layer_1" xmlns="http://www.w3.org/2000/svg" xmlns:xlink="http://www.w3.org/1999/xlink"
	 x="0px" y="0px" width="161.035px" height="182.957px" viewBox="0 0 161.035 182.957" xml:space="preserve">
<path fill="#A44B46" d="M69.976,156.714L60.5,142.867c0,0-12.392,0.729-13.85,9.475c-11.662-8.018-21.139-7.289-21.139-7.289
	s0,2.188,0.729,3.646v2.186c0.729,4.375,2.187,9.477,2.915,13.121c0.729,2.188,0.729,2.916,0,4.373c0,0.729,0,2.188,0.729,3.646
	c0.729,2.187,2.915,3.646,3.645,4.373c0,1.458,1.458,4.374,4.373,5.103c0.729,0.729,1.458,0.729,2.188,1.459
	c0.729,0,1.457,0,2.915,0c0.729,0,1.458-0.729,2.187-1.459c1.458-0.729,2.188-2.187,2.916-4.373
	c0.729-3.645-0.729-8.746-2.916-13.121c1.458,0.729,2.188,0.729,3.645,0c1.458,1.459,6.561,5.104,12.392,3.646
	c0-0.729,0.729-0.729,0.729-0.729C67.06,165.462,69.247,159.63,69.976,156.714L69.976,156.714z"/>
<path fill="#F69C99" d="M67.789,156.714c-1.458-4.373-7.289-9.475-11.663-11.662c0.729-0.729-6.56,1.459-10.204,8.019
	c-4.374-2.915-18.223-6.56-18.223-5.831c0.729,2.188,0.729,5.831,2.187,9.477c0.729,4.373,2.915,10.205,2.915,12.392
	c0,2.916,1.458,5.832,3.645,5.832c1.458,0,2.188,0,3.646-2.916c1.457-3.646,0.729,2.916-1.458,3.646
	c-2.188,0.729-2.188,2.916,0.729,3.645c2.187,0,4.374-2.188,4.374-3.645c0-2.188,0.729,2.916-2.188,3.645
	c-2.187,1.458,0.729,2.916,2.916,0s2.187-10.934-2.916-18.223C44.464,164.003,60.5,169.106,67.789,156.714L67.789,156.714z"/>
<path fill="#FCC78C" d="M110.794,125.373c0,0-4.373-10.935,2.188-19.681c6.561-9.478,9.477-14.579,24.782-19.682
	c14.579-5.102,26.241-11.662,22.597-6.56c-3.645,4.373-13.119,18.223-5.104,20.409c8.02,2.188-16.035,8.747-9.475,13.85
	c6.559,5.104-9.477,10.205-11.664,10.205L110.794,125.373z"/>
<path fill="#C1A15E" d="M110.794,125.373l4.373-0.729c0,0-4.373-13.851,0.729-18.224c5.103-3.645,6.562-14.578,21.867-20.41
	c14.579-5.831-10.935,4.374-14.578,7.289c-3.646,2.916-11.662,10.935-12.392,16.767
	C109.337,115.167,109.337,115.167,110.794,125.373L110.794,125.373z"/>
<path fill="#FCC78C" d="M74.349,123.914c0,0,8.02-16.035,0-29.156C66.331,81.638,62.687,73.62,41.548,67.06
	C21.139,60.5,5.832,51.023,10.205,58.313c5.103,6.561,16.036,26.241,5.103,29.886c-11.663,3.645,21.138,12.39,10.934,19.679
	c-9.476,8.02,12.392,15.309,16.036,15.309L74.349,123.914z"/>
<path fill="#C1A15E" d="M74.349,123.914l-6.56-0.729c0,0,8.747-21.139,2.187-26.971c-6.561-5.103-8.018-21.138-28.428-29.155
	C21.867,59.77,56.126,72.89,61.229,77.264c5.103,4.373,14.578,15.307,15.308,23.323C77.993,109.337,77.993,109.337,74.349,123.914
	L74.349,123.914z"/>
<path fill="#F69C99" d="M131.798,132.654c0,0.002,10.205,2.194,10.934-2.18c0-5.831-11.647-1.423-11.639-1.405
	c-1.381,0.671-2.076,0.677-2.076,0.677s0.625-0.632,1.295-1.882c0.01,0,0.019,0,0.028,0c0.729-1.457,2.916-2.916,5.103-3.646
	c0.729,0,1.459-0.729,1.459-0.729c4.373-1.458,2.187-5.102-1.459-4.373c-4.262,0.71-5.756,4.189-7.854,7.739
	c-0.01-0.01-0.021-0.017-0.03-0.026c-0.729,1.457-0.729,2.187-0.729,2.187s-2.752,0.258-5.64-1.16
	c-2.65-2.129-4.749-4.809-7.479-6.856c-3.646-4.375-5.832,0.728-3.646,4.373c0.729,0.729,1.458,2.187,2.187,2.916
	c2.188,2.187,9.477,3.644,9.477,3.644c3.591,0.719,3.646,2.146,5.041,4.278c1.541,3.432,3.466,4.648,7.282,5.724
	c2.804,0.681,6.188-2.372,2.466-4.791c-2.188-1.458-4.128-0.38-6.315-2.566c-0.017,0.017-0.563-0.626-0.58-0.609
	c-0.207-0.281-0.604-0.957-0.604-2.034C129.018,131.933,130.387,132.612,131.798,132.654z"/>
<path fill="#A44B46" d="M94.029,112.251c69.247-68.518,15.309-40.818,20.41-31.342c-1.458,1.457-2.188,5.831-2.188,5.831
	s-7.289-2.916-9.477-2.188c-2.188,1.457-1.458,5.831-1.458,5.831s-12.392-5.103-13.12-1.458c0,3.645,1.458,6.561,1.458,6.561
	s-15.308,0-13.12,3.646c2.187,3.645,3.645,4.373,3.645,4.373s-11.663,0.729-16.036,4.373c-4.374,3.645-2.916,5.104,4.373,7.289
	c0,0-12.392,5.832-10.934,10.205c0,0,1.458,1.457,4.374,1.457c2.187,0,0,2.188-2.916,2.916c-2.916,0.729,2.187,5.103,2.187,5.103
	s-3.645-0.729-3.645,1.458c-0.729,2.916-0.729,4.374-0.729,4.374s-3.645-6.562-4.374-5.832c-1.457,1.458-2.915,5.103-2.915,5.103
	s-18.952-18.223-20.41-17.492c-2.187,0.729-4.373,2.187-4.373,2.187s0.729-8.019-0.729-9.476c-1.458-0.729-2.916,0.729-2.916,0.729
	s1.458-5.831,0.729-6.561c-1.457-1.459-3.645,0.729-3.645,0.729s0-6.562-1.457-8.019c-0.729-1.459-2.188,1.457-2.188,1.457
	s-3.645-7.289-4.373-6.561c-1.458,0.729-0.729,4.374-0.729,4.374s-6.561-2.915-6.561-0.729c0,2.188,5.103,5.832,5.103,5.832
	s-5.831-1.457-5.103,0.729c1.458,2.188,5.831,5.103,5.831,5.103s-6.56,0.729-4.373,2.916c2.187,1.457,4.373,4.373,4.373,4.373
	s-4.373,0-3.645,2.188c0.729,2.916,9.476,8.747,9.476,8.747s26.97,27.698,48.108,14.578
	C69.976,140.68,83.096,118.083,94.029,112.251L94.029,112.251z"/>
<path fill="#24211D" d="M30.614,139.222c0,0-8.747,8.018-9.476,0c-0.729-0.729-2.916-8.02-2.916-8.747
	c-0.729-6.562-11.662-24.782-10.204-24.782c0.729,0,13.849,10.204,14.578,10.934c4.373,5.103,18.951,16.035,19.681,18.223
	c1.458,4.374,8.018,7.289,10.204,6.561c2.188,0,8.747-2.187,8.747,0c0,0-0.729,2.188-2.187,5.104
	c-1.458,2.914-4.373,5.83-8.747,5.83C42.277,153.07,34.988,145.052,30.614,139.222L30.614,139.222z"/>
<path fill="#F69C99" d="M6.561,107.878c0,0,0.729-2.187,4.373,2.188c2.916,4.373,29.157,19.682,30.614,26.971
	c1.458,6.56,9.477,8.746,15.308,5.102s9.476-10.204,18.223-21.867c0.729-1.457,2.187-2.915,3.645-4.373
	c4.373-4.374,8.018-8.747,13.12-11.663c5.103-3.646,20.409-11.661,16.765-6.56c-8.746,13.119,10.205,8.746,10.205,24.783
	c0,3.645-5.104,21.867-20.409,35.715c-13.12,15.309-39.361,16.767-56.855,10.935c-11.662-3.646-6.56-6.56-13.849-12.392
	c-8.747-8.018-8.019-13.85-8.747-24.055C18.952,125.373,6.561,107.878,6.561,107.878L6.561,107.878z"/>
<path fill="#A44B46" d="M100.589,96.944c2.188,8.019,5.104,29.886,5.104,29.886l7.289-4.373L121,77.265L100.589,96.944z"/>
<path fill="#FBF8C8" d="M24.055,149.425c-0.729-3.645-5.832-24.053-5.832-24.781c0.729-0.729,17.494,24.781,24.055,29.156
	c8.747,6.56,23.325-0.729,30.614-5.832C83.826,140.68,93.3,120.27,93.3,120.27l0,0c0,0,10.205-17.493,10.205-10.933
	c0,2.914,5.103,9.476,5.832,11.662c0.729,2.187,6.56-10.205,6.56-10.205C120.271,160.359,47.38,195.348,24.055,149.425
	L24.055,149.425z"/>
<path fill="#FCC78C" d="M67.789,150.884c0,1.457,11.662,13.119,18.951,10.205c0,0-0.729,1.457-1.457,1.457
	c-6.561,2.188-16.766-5.832-18.224-10.934L67.789,150.884z"/>
<path fill="#FCC78C" d="M79.451,142.867c1.458,6.559,7.289,8.746,16.765,10.934H93.3c0,0-14.577-2.916-14.577-10.934H79.451z"/>
<path fill="#FCC78C" d="M43.006,150.156c0,0-5.103-0.73,0,10.203l-2.915-3.645c0,0-3.646-7.289,2.915-7.289V150.156z"/>
<path fill="#FCC78C" d="M36.445,147.968c0,0-2.915,0-3.645,2.916v0.729c0,0,1.458-3.645,4.374-2.916L36.445,147.968z"/>
<path fill="#24211D" d="M84.554,113.71c0,0-2.915,2.187-1.458,4.373c1.458,2.187,4.374,0.729,4.374,0.729s-2.916,0.729-3.645-1.458
	C82.367,115.167,84.554,113.71,84.554,113.71L84.554,113.71z"/>
<path fill="#24211D" d="M85.283,118.813c0,0-2.916,2.187-1.457,4.373c1.457,2.187,4.372,0.729,4.372,0.729s-2.915,0.729-3.645-1.457
	C83.096,121,85.283,118.813,85.283,118.813L85.283,118.813z"/>
<path fill="#24211D" d="M80.181,118.083c0,0-2.916,2.187-1.458,4.373c1.458,2.188,5.103,0.729,5.103,0.729s-3.645,0.729-4.374-1.458
	C77.993,119.541,80.181,118.083,80.181,118.083L80.181,118.083z"/>
<path fill="#24211D" d="M75.078,132.662c0,0-2.916,2.187-1.458,4.373c1.458,2.188,5.103,0.729,5.103,0.729s-3.645,0.729-4.374-1.458
	S75.078,132.662,75.078,132.662L75.078,132.662z"/>
<path fill="#24211D" d="M64.873,139.951c0,0-2.187,1.457-1.458,3.645c1.458,1.457,3.645,0,3.645,0s-2.187,0.729-2.915-0.729
	C63.415,141.408,64.873,139.951,64.873,139.951L64.873,139.951z"/>
<path fill="#24211D" d="M64.873,144.324c0,0-2.187,1.457-0.729,2.916c0.729,2.186,3.645,0.729,3.645,0.729s-2.187,0-2.916-0.729
	C64.145,145.781,64.873,144.324,64.873,144.324L64.873,144.324z"/>
<path fill="#24211D" d="M61.229,143.595c0,0-2.187,1.457-0.729,2.916c0.729,2.188,3.645,0.729,3.645,0.729s-2.916,0.729-3.645-0.729
	C59.771,145.052,61.229,143.595,61.229,143.595L61.229,143.595z"/>
<path fill="none" d="M73.62,108.607c0,0,5.103,0,8.019,2.915c2.187,2.916,1.457,5.103,0,5.103
	C80.181,117.354,73.62,108.607,73.62,108.607"/>
<path fill="#F69C99" d="M83.494,111.813c-0.729-2.186-3.817-4.863-18.621-1.019c-2.85,1.427-4.309,0.063-6.417-1.359
	c0.008-0.01-3.199-3.33-10.909-1.488c-2.916,1.459-2.188,5.832,1.457,5.104c2.859,0,8.381-1.608,10.037,0.66
	c0,0-1.458,0.729-3.645,1.457c-2.916,0.729-10.205,2.916-7.289,7.291c3.645,5.101,8.018-2.916,10.934-5.104
	c0.729-0.729,1.458-0.729,1.458-0.729s0,0.729,0,1.457c0,2.916-2.367,6.055-3.452,7.746c-2.915,3.644,1.994,5.375,4.91,3.188
	c3.645-2.915,2.473-7.176,1.744-10.82c-0.304-1.621-0.287-2.3-0.287-2.3s1.458-1.458,4.374-1.458
	C69.976,114.439,82.547,122.148,83.494,111.813z"/>
<path fill="#A44B46" d="M43.006,155.257c2.187-5.102-5.831-12.391-12.392-14.577c0,0-8.018-1.458-10.204,7.288
	C10.205,137.764,0,137.764,0,137.764s0,2.187,0.729,3.646v2.187c0,4.374,0,10.204,0.729,13.851c0.729,1.457,0,2.914,0,3.645
	c-0.729,0.729-0.729,2.187-0.729,3.645c1.458,2.916,2.915,4.373,3.645,5.104c0,1.457,0.729,4.373,3.645,5.83
	c0.729,0,0.729,0.729,2.187,1.459c0.729,0,1.458,0.729,2.187,0c0.729,0,1.458,0,2.916-0.729s2.187-2.187,2.915-4.373
	c1.458-2.916,1.458-8.019-0.729-12.392c1.458,0,2.187,0,3.645,0c1.458,1.457,4.373,4.373,10.205,3.645
	C37.175,162.546,39.361,162.546,43.006,155.257L43.006,155.257z"/>
<path fill="#F69C99" d="M42.277,154.528c0.729-5.103-5.832-10.935-13.121-11.661c-2.915,0.729-5.102-0.73-9.476,5.102
	c-4.373-3.645-17.493-8.018-17.493-7.288c0,1.456,0,5.831,0.729,9.476s2.187,10.204,1.458,12.393c0,2.914,1.458,5.83,2.915,6.56
	c1.458,0,2.188,0,3.645-2.915c2.188-2.916,0.729,2.915-1.457,3.645c-2.188,0.729-2.188,2.916,0,3.646
	c2.915,0.729,5.102-1.458,5.102-2.916c0.729-2.187,0,2.916-2.187,3.646c-2.915,0.729,0,2.187,2.187,0
	c2.916-2.916,3.645-10.205-0.729-18.223C16.766,158.902,40.091,164.733,42.277,154.528L42.277,154.528z"/>
<path fill="#F69C99" d="M123.916,29.156c0,0-5.832-6.56-5.104-9.476c0.729-2.187-3.645-5.103-7.289-5.832
	c-2.916-0.729-4.373,0-5.831,0s-2.187,0.729-3.646,1.458c-5.103,2.916-8.746,5.831-11.662,10.934c-0.729,0,0.729-2.916-0.729,0.729
	c-1.458,3.646-1.458,5.831-3.645,5.102c-2.187,5.103-2.187,5.103-7.289,9.476c-7.289,6.56-17.494,18.952-5.103,34.259
	c12.392,14.578,19.68,13.849,26.969,16.765c7.289,2.187,30.615-2.916,40.091-16.036c9.476-12.392,6.561-13.849,6.561-13.849
	C150.155,48.837,158.902,49.566,123.916,29.156L123.916,29.156z"/>
<path fill="#B16C68" d="M121,21.867c0.729-0.729-1.459,0,2.187,0.729c20.41,10.934,0,16.036-7.289,15.307
	C109.337,38.632,112.981,23.325,121,21.867L121,21.867z"/>
<path fill="#A44B46" d="M111.523,13.849l7.289-6.56c0,0-12.393-2.916-16.036,2.916c-1.458-2.916,0-10.205,0-10.205
	s-8.747,8.018-10.204,11.663c-1.458,2.916-2.188-5.103-2.188-5.103s-5.102,11.663-2.915,14.578c1.458,2.916-4.374-0.729-4.374-0.729
	s-0.729,10.934,2.916,11.663c4.373,0.729,1.458-6.56,10.205-11.663C98.403,18.952,101.318,13.12,111.523,13.849L111.523,13.849z"/>
<path fill="#A44B46" d="M115.896,83.824c3.645,2.916,8.747,1.458,11.663-1.458C125.373,86.011,119.541,89.655,115.896,83.824
	L115.896,83.824z"/>
<path fill="none" d="M83.826,50.294c0,0,0-2.916-2.917-1.458c-2.916,1.458-2.916,2.916-2.916,2.916"/>
<path fill="#B16C68" d="M113.71,37.903c0,0-8.748-8.747-11.662-8.747c-3.646,0-8.748-1.458-12.393,2.187
	c-11.663,10.205-7.289,16.765,0.729,15.307c3.646-0.729,13.121-4.374,13.851-5.831L113.71,37.903z"/>
<path fill="#A44B46" d="M94.029,65.602c-9.476-5.102,0.729-18.952,8.747-11.663C108.607,59.771,101.318,69.976,94.029,65.602
	L94.029,65.602z"/>
<path fill="#4D4B43" d="M96.945,62.686c-4.373-2.187-0.729-8.747,3.645-6.56C104.962,59.042,100.589,65.602,96.945,62.686
	L96.945,62.686z"/>
<path fill="#A44B46" d="M139.951,53.21c-5.103-5.103,3.646-12.392,7.289-5.832C150.884,51.752,143.596,56.855,139.951,53.21
	L139.951,53.21z"/>
<path fill="#4D4B43" d="M143.596,52.481c-2.916-1.458-0.729-5.832,2.187-4.374C148.697,49.566,146.511,54.668,143.596,52.481
	L143.596,52.481z"/>
<path fill="#24211D" d="M89.656,32.072c2.188-1.458,5.104-0.729,5.104-0.729s1.457,1.458,0.729,1.458
	c-0.729,0.729-3.645-0.729-5.104,0.729C88.198,34.987,89.656,32.072,89.656,32.072L89.656,32.072z"/>
<path fill="#24211D" d="M119.541,24.054c2.188-0.729,4.375,0,4.375,0s0.729,1.458,0,1.458c0,0-2.188-0.729-3.646,0
	S119.541,24.054,119.541,24.054L119.541,24.054z"/>
<path fill="#706352" d="M121.729,37.174c0-1.458,1.457-2.916,1.457-2.916c0.729-0.729-0.729-0.729-0.729,0
	C123.186,34.259,121.729,35.716,121.729,37.174L121.729,37.174z"/>
<path fill="#24211D" d="M123.186,28.427c-2.915,0.729-3.646,1.458-4.373,4.374c0,4.374,3.646,5.103,7.289,3.645
	s5.831-1.458,5.103-4.374C131.205,29.885,125.373,28.427,123.186,28.427L123.186,28.427z"/>
<path fill="#FFFFFF" d="M123.916,29.156c-1.459,0-4.375,0-4.375,3.645c0,4.374,5.832,3.645,8.02,2.916
	c2.188,0,3.645-1.458,3.645-3.645C130.475,29.885,126.102,29.156,123.916,29.156L123.916,29.156z"/>
<path fill="#955942" d="M122.457,30.614c1.459-0.729,2.916,0,3.646,2.187c1.458,2.187-1.458,4.374-3.646,3.645
	c-2.187,0-2.916-0.729-2.916-2.187C118.813,32.801,121,30.614,122.457,30.614L122.457,30.614z"/>
<path fill="#24211D" d="M122.457,31.343c0.729,0,2.188,0.729,2.916,1.458c0,1.458-1.457,3.645-2.188,3.645
	c-1.457,0-2.915-0.729-2.915-2.187C120.271,32.801,121,32.072,122.457,31.343L122.457,31.343z"/>
<path fill="#FFFFFF" d="M125.373,32.072c0,0,0.729,0,0.729,0.729l-0.729,0.729c-0.729,0-0.729,0-0.729-0.729
	C123.916,32.072,124.644,32.072,125.373,32.072L125.373,32.072z"/>
<path fill="#706352" d="M90.384,46.65c0-1.458,1.459-3.645,1.459-3.645c0-0.729-1.459-0.729-0.729,0
	C91.114,43.005,90.384,45.192,90.384,46.65L90.384,46.65z"/>
<path fill="#24211D" d="M93.3,35.716c2.916-0.729,4.373,0,5.832,2.916c2.187,4.374-2.188,6.561-6.561,6.561
	s-6.561,0.729-7.289-2.187S90.384,36.445,93.3,35.716L93.3,35.716z"/>
<path fill="#FFFFFF" d="M91.843,37.174c2.916-0.729,5.83-2.187,7.289,2.187c1.457,4.374-5.104,5.832-8.019,5.832
	c-2.187,0.729-4.374,0-5.103-2.187C85.283,40.09,89.656,37.174,91.843,37.174L91.843,37.174z"/>
<path fill="#955942" d="M89.656,38.632c2.188-0.729,2.916-0.729,5.104,1.458c2.187,2.916-0.729,5.103-2.916,5.832
	c-2.915,0-4.373-0.729-5.104-2.187C86.74,41.548,88.198,39.361,89.656,38.632L89.656,38.632z"/>
<path fill="#24211D" d="M90.384,40.09c1.459-0.729,2.916-0.729,3.646,0.729c0,1.458-0.729,3.645-2.187,4.374
	c-0.729,0-2.188-0.729-2.915-2.187C88.928,41.548,89.656,40.09,90.384,40.09L90.384,40.09z"/>
<path fill="#FFFFFF" d="M93.3,40.09c0,0,0.729,0,1.459,0c0,0.729-0.729,1.458-0.729,1.458c-0.729,0-1.456,0-1.456-0.729
	C92.572,40.819,92.572,40.09,93.3,40.09L93.3,40.09z"/>
<path fill="#24211D" d="M92.572,35.716c-1.458,0.729-6.561,2.187-7.289,6.56c1.457-1.458,2.915-2.187,5.102-2.916
	c1.459-1.458,5.104-2.187,6.562-2.916C95.487,36.445,94.029,34.987,92.572,35.716L92.572,35.716z"/>
<path fill="#4D4B43" d="M88.928,38.632c2.187-1.458,4.372-4.373,8.018-2.187c-2.187,0-2.916,0-5.103,0.729
	c-2.188,1.458-5.104,3.645-6.561,4.374C86.74,40.09,87.47,39.361,88.928,38.632L88.928,38.632z"/>
<path fill="#24211D" d="M123.916,29.156c-1.459,0-4.375,0-4.375,2.916c0.729-0.729,1.459-0.729,2.916-1.458
	c1.459-0.729,3.646-0.729,5.104-1.458C126.102,29.156,124.644,29.156,123.916,29.156L123.916,29.156z"/>
<path fill="#4D4B43" d="M123.916,29.156c-1.459,0-4.375,0-4.375,2.916c0.729-0.729,1.459-0.729,2.916-1.458
	c1.459-1.458,3.646-0.729,5.104-1.458C126.102,29.156,124.644,29.156,123.916,29.156L123.916,29.156z"/>
<path fill="#24211D" d="M80.181,37.903c0.729,2.916,2.915,7.289,5.104,4.373c1.457,0.729,2.187-2.916,1.457-2.187
	C84.554,43.734,81.639,41.548,80.181,37.903L80.181,37.903z"/>
<path fill="#24211D" d="M83.096,34.259c0,2.916,0,7.289,3.646,5.831c0.729,0.729,2.916-2.187,2.188-1.458
	C85.283,41.548,83.096,37.903,83.096,34.259L83.096,34.259z"/>
<path fill="#24211D" d="M86.012,32.801c1.458,1.458,0.729,5.831,2.187,5.831c0.729,1.458,2.916-1.458,2.188-0.729
	C87.47,38.632,87.47,34.259,86.012,32.801L86.012,32.801z"/>
<path fill="#24211D" d="M131.205,25.512c0.729,1.458,1.457,5.103-1.459,4.374c-0.729,1.458-2.187-0.729-2.187-0.729
	C131.205,30.614,131.933,27.698,131.205,25.512L131.205,25.512z"/>
<path fill="#24211D" d="M128.289,24.054c0.729,1.458,2.916,4.374,0,5.103c-0.729,1.458-2.916,0-2.188,0
	C129.746,29.156,129.018,26.241,128.289,24.054L128.289,24.054z"/>
<path fill="#24211D" d="M125.373,24.054c0,2.187,2.188,4.374,1.457,5.103c0,1.458-2.914,0.729-2.187,0
	C126.83,28.427,125.373,26.241,125.373,24.054L125.373,24.054z"/>
<path fill="#24211D" d="M121.729,39.361c0-0.729,0.729-2.187,0.729-2.916s-1.459-0.729-0.729,0
	C121.729,36.445,121.729,38.632,121.729,39.361L121.729,39.361z"/>
<path fill="#24211D" d="M126.83,40.09c-0.729-0.729,0-2.916-0.729-2.916c0-0.729-1.458,0-0.729,0S126.102,39.361,126.83,40.09
	L126.83,40.09z"/>
<path fill="#24211D" d="M131.205,37.174c-1.459-0.729-1.459-1.458-1.459-2.187c-0.729,0-1.457,0.729-0.729,0.729
	C129.018,35.716,130.475,36.445,131.205,37.174L131.205,37.174z"/>
<path fill="#24211D" d="M99.132,47.379c0-1.458-1.459-2.916-2.188-2.916c0-0.729,1.458-1.458,1.458-1.458
	C97.673,43.734,99.132,45.921,99.132,47.379L99.132,47.379z"/>
<path fill="#24211D" d="M92.572,50.294c0.729-1.458,0-3.645,0-3.645c0-1.458,1.457-0.729,1.457-0.729
	C93.3,46.65,93.3,48.837,92.572,50.294L92.572,50.294z"/>
<path fill="#24211D" d="M86.74,48.108c0.729-0.729,0.729-2.187,0.729-2.916c0.729-0.729,1.458,0,1.458,0
	C88.198,45.192,87.47,47.379,86.74,48.108L86.74,48.108z"/>
<path fill="#A44B46" d="M145.053,69.246c-2.915,11.663-30.613,13.85-35.716,14.578c-4.375,1.458-17.494-4.373-25.512-13.12
	c-8.02-8.018-2.917-21.867-2.917-22.596c0.729-0.729-4.373,13.12,3.645,21.868c8.019,8.018,19.681,13.849,24.054,12.391
	C113.71,81.638,141.408,77.265,145.053,69.246L145.053,69.246z"/>
<path fill="#FCC78C" d="M52.481,153.8c-0.729,1.457,6.561,16.035,15.308,15.307c-0.729,0.729-1.458,1.458-2.187,1.458
	c-6.561,0-14.578-10.205-13.85-16.036L52.481,153.8z"/>
</svg>
