<?xml version="1.0" encoding="utf-8"?>
<!-- Generator: Adobe Illustrator 13.0.0, SVG Export Plug-In . SVG Version: 6.00 Build 14948)  -->
<svg version="1.2" baseProfile="tiny" id="Layer_1" xmlns="http://www.w3.org/2000/svg" xmlns:xlink="http://www.w3.org/1999/xlink"
	 x="0px" y="0px" width="129.303px" height="230.08px" viewBox="0 0 129.303 230.08" xml:space="preserve">
<path fill="#605E5D" d="M28.428,145.116c-5.103-3.645-16.036,5.103-16.766,10.205c-0.729,2.914,2.188,5.103,4.374,6.56
	c0.729,0,2.187,0.729,3.645,0.729c3.646,0.729,6.563-3.646,8.021-6.563C30.614,153.863,31.343,145.847,28.428,145.116
	L28.428,145.116z"/>
<path fill="#DAA557" d="M74.349,100.653c-1.458,0-13.12-2.916-15.307-5.103c7.289-13.85,4.373-19.681,6.56-59.042
	c0-16.036,11.663-24.782,16.036-21.138c1.458,0.73,4.374-10.933,5.104-10.204c2.912,2.187,0.729,0,2.187,2.916
	c0.729,1.457,5.831-2.916,6.563-1.458c3.646,9.476,4.371,8.018,5.104,11.662c5.102,26.97-18.223,45.192-16.036,68.518
	c0,5.103-14.578,0-10.934,1.458C77.265,89.72,74.349,100.653,74.349,100.653L74.349,100.653z"/>
<path fill="#DAA557" d="M50.295,95.551c2.187,0.729,13.849-2.187,16.765-4.374c-8.018-13.849-7.289-19.68-5.831-59.041
	c0-8.747,0-20.409-5.103-18.952c-1.458,0.729-0.729-11.662-1.458-11.662c-2.915,1.458-0.729,0-2.915,2.187
	c-1.458,1.458-5.104-4.373-5.832-3.645c-7.289,8.019-5.831,7.289-7.289,10.205c-15.307,23.325-3.646,34.259,3.645,56.126
	c4.374,12.392,13.121,16.036,8.747,17.493C47.379,85.346,50.295,95.551,50.295,95.551L50.295,95.551z"/>
<path fill="#DAA557" d="M45.389,187.026c0,2.916-0.926,20.047,2.719,25.149c-4.374-0.729-17.494,10.935-8.747,16.036
	c5.104,5.104,25.516-0.729,25.516-11.662c0.729-3.645,0-10.934,0-11.663c0-0.729,0.729-1.458,2.187-1.458h0.729
	c2.187,0,1.457,0.729,1.457,2.188c0.729,1.457-0.729,10.934,1.458,12.391c1.458,1.458,6.561,2.188,11.663,2.188
	c31.343,4.373,30.609-23.325,5.102-13.121c-0.729,0,0,2.188-0.729,2.916c0,0,2.187-7.289,2.912-13.85c0-1.457,0-3.646,0-5.104
	v-0.729c-2.188,1.459-5.103,2.188-8.743,2.916c-1.458,2.916-3.646,4.373-6.563,5.832c-2.187,0-5.103,0.729-7.289,0.729
	c-2.916,0-5.831-0.729-8.018-2.188c-2.916-1.457-2.426-7.068-4.616-9.258c-2.914-1.455-7.58-1.166-9.038-2.624V187.026z"/>
<path fill="none" d="M53.939,156.05c0,0-4.374-0.729-6.561,2.188c-2.188,2.188-5.104,8.019-5.104,8.019s-10.204-8.019-12.392-8.019
	c-2.188,0-8.746,13.12-8.746,18.95c0.729,5.832,9.476,16.037,13.12,16.037c2.916,0,10.934-1.459,17.494-13.853
	C57.584,166.983,53.939,156.05,53.939,156.05"/>
<path fill="#D86E27" d="M48.837,183.021c-4.373,5.83-13.12,1.457-16.036,2.188c2.916-3.646,2.916-5.831,5.103-10.937
	c2.188-0.729,10.938-2.914,13.12-3.646C51.023,172.813,48.837,180.833,48.837,183.021L48.837,183.021z"/>
<path fill="#F28021" d="M37.903,173.544c0,2.916-4.373,11.662-4.373,11.662c-2.188,0-13.117-12.393-13.85-17.493
	c2.915-1.458,6.563-2.916,8.018-5.103c0.729-0.729,6.563,7.289,7.289,6.56C37.175,169.17,35.717,173.544,37.903,173.544
	L37.903,173.544z"/>
<path fill="#DAA557" d="M23.325,132.726c-0.729-2.188,0.729-5.832-2.188-7.289c-3.645-0.729-5.832,2.916-5.832,5.104
	c-1.457-2.188-3.645-2.915-5.831-2.915c-2.915,0.729-5.103,2.188-3.645,4.373c-1.458-1.458-2.915,0-3.646,1.458
	c-0.729,1.458,0,3.646,1.458,4.373C1.458,136.369,0,138.558,0,140.743c0,3.645,3.645,5.104,5.831,7.289
	c0.729,0,1.458,0.729,2.187,1.458c2.916,2.187,5.832,4.372,9.479,4.372c3.645,0,7.289-2.188,8.746-5.83
	C29.885,140.743,26.24,138.558,23.325,132.726L23.325,132.726z"/>
<path fill="#F6CD8C" d="M12.392,149.49c-2.187-1.458-2.916-3.646-2.187-5.832c0.729-5.103,5.831-10.204,10.934-6.56l0,0
	c2.188,1.457,3.646,4.373,2.915,7.289c-1.458,2.911-4.373,6.56-8.018,6.56C14.578,150.947,13.12,150.219,12.392,149.49
	L12.392,149.49z M21.139,126.894L21.139,126.894c0,0,0,0-0.729,0c-1.458-0.729-2.915,0.729-3.646,2.188c0,1.458,0,4.374,1.458,6.562
	l0,0c-0.729-0.729-2.187-1.457-2.187-3.646c-0.729-0.729-0.729-0.729-1.458-1.458c-1.458-0.729-3.646-1.458-5.104-1.458
	c-2.187,0.729-3.645,2.188-2.187,4.374c0,0,0-0.729-0.729-0.729c-0.729-0.729-2.916,0-3.645,1.459
	c-0.729,1.457,0.729,3.645,2.187,5.103c0,0,0,0,0-0.729c-1.458-0.729-3.645,0.729-3.645,2.916c0,1.457,1.458,2.916,2.915,4.373
	c0.729,0,2.188,0.729,2.916,1.457c0,0,0,0,0.729,0.729c0.729,0,0.729,0.729,1.458,0.729c0.729,0.729,1.458,0.729,1.458,1.457
	c2.188,1.459,3.646,2.188,6.563,2.188c3.645,0,6.56-2.188,8.018-5.104c2.916-6.562-0.729-8.746-2.916-14.578
	C21.867,131.269,22.596,128.353,21.139,126.894L21.139,126.894z"/>
<path fill="#DAA557" d="M16.036,133.454c0,0-8.747,4.373-8.021,9.477C8.018,142.931,8.747,138.558,16.036,133.454L16.036,133.454z"
	/>
<path fill="#DAA557" d="M5.103,132.726c0,0,2.915-0.729,5.104,3.646c0,0-2.188-5.831-5.832-5.104L5.103,132.726z"/>
<path fill="#DAA557" d="M2.916,138.558c0,0,2.187-0.729,4.373,2.188c0,0-1.458-4.374-5.104-3.646l-0.729,0.729L2.916,138.558z"/>
<path fill="#FFFFFF" d="M21.139,137.099c-5.103-3.645-10.205,1.459-10.934,6.563c-0.729,2.188,0,4.374,2.187,5.832
	c0.729,0.729,2.188,1.457,3.646,1.457c3.645,0,6.56-3.646,8.018-6.563C24.783,141.472,23.325,138.558,21.139,137.099L21.139,137.099
	L21.139,137.099z"/>
<path fill="none" d="M80.909,156.778c0,0,4.373,0,6.56,2.916c2.188,2.187,4.374,8.746,4.374,8.746s10.934-8.021,13.12-8.021
	c2.187,0.729,8.018,13.853,7.289,19.685c-0.729,5.83-10.205,15.307-13.854,15.307c-3.645,0-11.658-2.188-16.765-15.307
	C76.535,167.713,80.909,156.778,80.909,156.778"/>
<path fill="#C2C0BE" d="M109.336,175.002c-0.729-5.832-2.915-12.392-4.373-12.392s-4.373,1.457-7.289,2.914
	c-2.188,5.104-1.458,10.936,0.729,16.037c0.729,0,1.458,0,2.188,0C104.234,181.562,107.149,178.646,109.336,175.002L109.336,175.002
	z"/>
<path fill="#F28021" d="M109.336,175.002c-2.188,3.646-5.104,6.56-8.746,6.56c-0.729,0-1.458,0-2.188,0
	c0.729,0.729,0.729,1.459,1.458,1.459c1.458,2.916,2.916,5.104,5.104,6.563c2.916-1.458,5.103-4.374,5.103-7.289
	C110.065,180.104,110.065,177.917,109.336,175.002L109.336,175.002z"/>
<path fill="#D86E27" d="M84.554,184.478c3.646,5.832,8.018,8.021,11.662,8.748c-2.915-3.646-4.373-8.02-4.373-13.121
	c-2.188-0.729-4.374-2.188-6.561-3.645C84.554,179.375,84.554,181.562,84.554,184.478L84.554,184.478z"/>
<path fill="#F28021" d="M91.843,180.104c0,5.102,1.458,9.476,4.373,13.119c0.729,0.729,0.729,0.729,1.458,0.729
	c2.187,0,7.333-2.698,9.52-5.613c-2.188-1.458-2.186-2.769-3.644-5.685c-0.729,0,1.75-1.459,1.021-2.187
	C102.857,182.438,88.048,178.84,91.843,180.104L91.843,180.104z"/>
<path fill="#C2C0BE" d="M97.674,165.524c-1.458,1.459-2.916,2.188-4.373,2.916c-0.729,3.646-1.458,8.02-1.458,11.664
	c2.187,0.729,5.002,2.258,10.687,1.237c-2.187-5.102-4.52-11.659-2.332-16.763L97.674,165.524z"/>
<path fill="#DAA557" d="M112.98,156.778c2.188-1.457,3.646-5.104,5.832-3.646c3.646,0.729,3.646,5.104,1.457,7.289
	c2.916-0.729,5.104,0,7.289,1.457c1.458,1.458,2.188,4.374,0,5.104c1.458,0,2.188,2.188,1.458,3.646
	c0,2.188-2.187,2.916-3.645,2.916c2.187,0,2.187,2.188,0.729,4.373c-2.188,2.188-5.832,2.188-8.747,1.458
	c-4.374,0-8.747,0.729-13.12-2.188c-2.916-2.916-4.374-6.563-2.916-10.205C102.776,159.694,107.149,159.694,112.98,156.778
	L112.98,156.778z"/>
<path fill="#F6CD8C" d="M111.523,177.188c-0.729,0-2.188-0.729-3.645-1.459c-2.916-2.188-3.646-7.289-2.188-10.205
	c0.729-2.188,3.646-3.646,5.832-3.646h0.729c5.831,0,6.561,7.289,4.373,11.663C115.896,175.729,113.71,177.188,111.523,177.188
	L111.523,177.188z M118.083,153.863L118.083,153.863c-2.188,0-2.188,2.915-4.373,3.645c-5.104,2.916-9.479,2.187-11.663,9.476
	c-0.729,3.646,0.729,6.563,3.645,8.748c3.646,2.916,6.563,2.188,10.938,2.916c1.458,0,2.916,0,4.374,0s2.915,0,3.645-1.459
	c1.458-1.457,0.729-3.645-0.729-3.645c-0.729,0-0.729,0-0.729,0c1.458,0,4.373-0.729,4.373-2.916c0.729-1.458,0-2.915-1.457-2.915
	c-0.729,0-0.729,0-0.729,0c2.187-0.729,2.187-3.646,0.729-5.103c-1.458-0.729-3.645-1.459-5.832-1.459h-0.729
	c-1.458,0.729-2.916,1.459-3.646,1.459c-0.729,0-0.729,0-0.729,0c2.915-0.729,4.373-3.646,5.102-5.104
	c0.729-1.458,0-2.916-1.457-3.646L118.083,153.863L118.083,153.863z"/>
<path fill="#DAA557" d="M118.813,162.61c0,0,3.646,8.746,0,12.392C118.813,175.002,120.999,169.899,118.813,162.61L118.813,162.61z"
	/>
<path fill="#DAA557" d="M127.559,168.44c0,0-2.187-2.188-6.56-0.729c0,0,5.103-2.916,7.289,0L127.559,168.44z"/>
<path fill="#DAA557" d="M125.372,174.272c0,0-1.458-2.188-5.104-1.459c0,0,4.374-1.457,6.563,1.459v0.729L125.372,174.272z"/>
<path fill="#DAA557" d="M120.999,157.508c0,0-2.188,4.373-5.831,5.103c0,0,2.915,0,5.102-2.187L120.999,157.508z"/>
<path fill="#FFFFFF" d="M111.523,161.881c-2.188,0-5.103,1.458-5.832,3.646c-1.457,2.916-0.729,8.021,2.188,10.205
	c1.457,0.729,2.915,1.457,3.645,1.457c2.188,0,4.373-1.457,5.104-3.645c2.188-4.374,1.458-11.663-4.373-11.663H111.523
	L111.523,161.881z"/>
<path fill="#DAA557" d="M101.318,165.524c0,0-1.458,1.459-1.458,5.104c0,2.916,6.563,13.121,8.021,11.663
	c1.457-1.458,0-4.374,0-4.374S101.318,174.272,101.318,165.524L101.318,165.524z"/>
<path fill="#F6CD8C" d="M46.65,188.122c0,2.916,0,19.681,4.373,24.783c-4.373-0.729-18.223,7.289-10.204,12.392
	c5.104,4.373,24.058-0.729,24.782-10.935c0.729-3.646,0-10.204-0.729-10.938c0-0.729,1.458-1.453,2.187-1.453
	c0.729,0,0.729,0,0.729,0c2.187,0.729,1.457,1.453,1.457,2.187c0.729,1.458-0.729,10.204,1.458,11.661
	c1.458,0.729,6.561,2.188,10.934,2.188c29.886,3.645,29.886-18.951,5.831-10.204c-0.729,0-0.729,0-1.457,0.729
	c0,0,2.187-6.561,2.915-13.12c0-1.458,0-2.916,0-4.373v-0.729c-2.188,0.729-5.104,2.188-8.018,2.916
	c-2.188,2.188-3.646,3.646-7.289,4.373c-1.458,0.729-3.646,1.459-6.563,1.459s-5.831-0.729-8.018-2.188
	c-2.188-1.458-3.646-2.188-5.104-5.104C50.295,191.038,48.108,189.58,46.65,188.122L46.65,188.122z"/>
<path fill="#DAA557" d="M48.837,207.073c0,0,2.187,0.729,2.916,2.188c0,0-0.729-2.916-4.374-3.645L48.837,207.073z"/>
<path fill="#DAA557" d="M83.824,209.261c0,0,3.645-2.916,6.561-0.729l0.729-0.729C91.113,207.803,86.74,205.616,83.824,209.261
	L83.824,209.261z"/>
<path fill="#DAA557" d="M59.771,200.515c1.458,0.729,9.479,5.104,16.769-0.729C76.535,199.784,71.434,204.158,59.771,200.515
	L59.771,200.515z"/>
<path fill="#465F60" d="M46.65,185.206c0,5.104-2.187,24.783,0,28.428c0.729,0,20.409,2.916,21.143,2.916
	c1.457,0-0.729-8.019,1.457-13.85c2.188,8.018-2.188,13.85,1.458,12.392c3.645-2.187,16.765-2.916,21.863-8.747
	c-3.645-5.103-2.915-16.765-2.915-17.494c-0.729-0.729-32.068,1.459-32.068,0.729C54.668,189.58,48.837,185.937,46.65,185.206
	L46.65,185.206z"/>
<path fill="#828180" d="M46.65,161.881c0-0.729,0.729-1.457,0.729-2.187c2.187-2.188,7.289-1.459,7.289-1.459
	s2.187,3.646,0.729,10.935c-0.729,0.729-1.458,1.458-1.458,1.458C52.481,166.983,50.295,163.339,46.65,161.881L46.65,161.881z"/>
<path fill="#716F6E" d="M52.481,156.778c3.646,2.188,0,10.205,1.458,13.85c-2.187,2.188-14.578,4.374-16.765,5.104
	c2.187-4.373,0.729-10.935,0-13.851C37.903,161.151,51.023,158.235,52.481,156.778L52.481,156.778z"/>
<path fill="#949393" d="M88.198,163.339c-0.729-0.729-0.729-1.458-1.454-2.188c-1.458-2.188-6.563-2.188-6.563-2.188
	s-2.187,3.646-1.457,10.937c0.729,0.729,0.729,1.457,1.457,2.188C81.638,167.713,84.554,164.797,88.198,163.339L88.198,163.339z"/>
<path fill="#949393" d="M88.198,163.339c-3.645,1.458-6.561,4.374-8.019,8.747c1.458,1.458,3.646,2.916,5.104,4.374
	c0.729-2.916,2.915-6.561,5.103-8.747C89.656,166.255,88.927,164.797,88.198,163.339L88.198,163.339z"/>
<path fill="#949393" d="M93.301,168.44c-0.729,0.729-2.188,1.459-2.188,1.459s0-0.729-0.729-2.188
	c-2.188,2.188-4.373,5.831-5.104,8.747c2.188,1.457,4.374,2.915,6.563,3.646C91.843,176.46,92.571,172.086,93.301,168.44
	L93.301,168.44z"/>
<path fill="#4F4C4A" d="M94.758,167.713c0,0-5.104,2.915-5.104,4.373c0,0,0.729-2.916,2.915-3.646L94.758,167.713z"/>
<path fill="none" d="M48.837,167.713c0-2.188,1.458-4.374,2.187-3.646c0,0-2.915,5.832-3.645,15.308c0,0-2.188,0.729-2.188,4.374
	c-0.729,3.645,8.747,8.746,21.867,9.477c12.396,0,20.409-4.375,21.14-8.748c0,0,0.729-1.457-2.188-5.103
	c0,0-0.729-10.205-4.374-16.765"/>
<line fill="none" x1="81.638" y1="162.61" x2="82.367" y2="161.881"/>
<path fill="#0F8FCF" d="M67.06,186.664c0,0,1.458,1.458,0,5.831l-0.729,0.729c0,0,2.187-4.373,0-5.83L67.06,186.664z"/>
<path fill="#0F8FCF" d="M75.807,185.937c0,0,2.188,1.457,0,5.83l-0.729,0.729c0,0,2.187-4.373,0-5.831L75.807,185.937z"/>
<path fill="#0F8FCF" d="M83.096,183.749c0,0,2.188,1.457,0,5.102l-0.729,0.729c0,0,2.187-3.646,0-5.831H83.096z"/>
<path fill="none" d="M48.108,180.833c0,0,3.646,5.104,15.311,6.561s20.409-3.645,21.867-6.561
	C85.282,180.833,67.06,194.683,48.108,180.833"/>
<path fill="#FFFFFF" d="M51.753,173.544L51.753,173.544c-0.729,1.458-1.458,2.188-0.729,3.645c0,0.729,0,0.729,0,0.729
	c0.729,0,0.729,0,0.729-0.729l0,0l0,0c0-1.457,0-2.187,0-2.187c0.729,0,1.457,0.729,1.457,2.187c0,0,0,0,0.729,0
	c0.729,0,1.458-0.729,1.458-1.457l0,0c0,0,0,0.729,0.729,1.457c0,0.729,0,2.188,0,2.916l0,0c0.729,0.729,0.729,0,0.729,0l0,0
	c0-0.729,0-0.729,0-0.729l0,0c0-0.729,0-1.458,0-2.188c0-0.73,0-2.188-0.729-2.916l0,0l0,0c-0.729,0-1.458,0.729-1.458,0.729
	c0,0.729-0.729,0.729-0.729,1.458c-0.729-1.458-0.729-2.188-1.458-2.916L51.753,173.544L51.753,173.544z"/>
<path fill="#FFFFFF" d="M56.854,176.46c0,1.457,0,2.915,0.729,3.645c1.458,0.729,2.187,1.457,3.645,0.729
	c0.729,0,2.188-0.729,2.188-2.187v-0.729l0.729-0.729c0-2.187-1.457-2.187-2.187-2.916C60.499,173.544,58.313,175.002,56.854,176.46
	L56.854,176.46z M58.313,179.375L58.313,179.375c-0.729-0.729-0.729-1.458,0-2.187c0.729-1.459,2.188-2.188,3.646-1.459
	c0.729,0,0.729,0.729,0.729,2.188c0,0,0,0,0,0.729c-0.729,0.729-1.458,1.459-2.188,1.459
	C59.77,180.104,59.042,180.104,58.313,179.375L58.313,179.375z"/>
<path fill="#FFFFFF" d="M69.246,175.002C68.518,175.002,68.518,175.002,69.246,175.002c0,0.729,0,2.187-0.729,2.915
	c0,1.458-0.729,2.188-1.458,2.916c-0.729,0-1.458,0-1.458,0c-1.458-1.458-1.458-3.645-0.729-5.104c0-0.729,0-0.729,0-0.729
	c-0.729,0-0.729,0-0.729,0c-0.729,1.458-0.729,5.104,0.729,5.831c0,0.729,0.729,1.458,2.187,0.729
	c1.458-0.729,2.188-2.188,2.916-2.916c0-1.457,0-2.916,0-3.645C69.246,174.272,69.246,174.272,69.246,175.002L69.246,175.002z"/>
<path fill="#FFFFFF" d="M71.434,177.188L71.434,177.188c0,0.729,0,0.729,0,1.457c0.729,0.729,1.457,0.729,2.915,0.729
	c0.729,0,0.729,0,1.458,0.729c0,0.729-0.729,0.729-1.458,0.729c-1.458,0.729-2.187,0-2.915-0.729h-0.729v0.729
	c0.729,0.729,2.187,1.458,3.645,1.458c0.729-0.729,2.188-1.458,2.188-2.188c0.729,0,0.729-0.729,0-0.729
	c0-0.729-1.457-0.729-2.188-0.729c-0.729,0-1.458-0.729-2.187-0.729c0,0,0,0,0-0.729c0.729-1.459,2.187-1.459,3.645-1.459h0.729
	c0,0,0.729,0,0.729-0.729h-0.729h-0.729C74.349,175.002,72.162,175.002,71.434,177.188L71.434,177.188z"/>
<path fill="#FFFFFF" d="M80.909,173.544c-0.729,0.729-2.188,0.729-2.916,0.729l0,0c-0.729,0-0.729,0.729-0.729,0.729
	c0,1.458,0,2.187,0,3.646c0,0.729,0.729,1.457,0.729,2.188s0,0.729,0,0.729c1.458,0.729,3.645,0,5.103-1.457l0,0
	c0-0.729-0.729-0.729-0.729-0.729c-0.729,0.729-2.916,1.458-3.646,1.458c0-0.729,0-1.458,0-2.188
	c-0.729-0.729-0.729-2.188-0.729-2.916c0,0,0,0,0-0.729c1.458,0,2.187,0,3.645-0.729c0-0.729,0-0.729,0-0.729l0,0
	C80.909,172.813,80.909,172.813,80.909,173.544L80.909,173.544z"/>
<path fill="#FFFFFF" d="M80.18,177.917c-0.729,0.729-1.457,0.729-2.187,0.729l0,0c0,0.729,0,0.729,0,0.729
	c1.458,0,2.187,0,2.916-0.729v-0.729H80.18L80.18,177.917z"/>
<path fill="#753633" d="M73.62,158.235c-0.729-0.729-1.458-1.457-2.916-2.188c-2.915-1.458-7.289-0.729-10.205,0
	c-3.646,0.729-3.646,5.104-2.188,7.289c1.458,3.646,5.831,6.563,10.205,5.831c3.646-1.457,5.104-5.104,5.104-8.746
	C74.349,159.694,73.62,158.966,73.62,158.235L73.62,158.235z"/>
<path fill="#F6CD8C" d="M72.891,149.49c0-1.458-0.729-2.916-1.457-3.646c-2.188-2.188-5.832-0.729-8.019,0
	c-2.188,0.729-2.188,8.746-1.458,13.12c1.458,5.104,4.374,10.204,7.289,8.747c2.916-1.458,4.374-8.021,4.374-13.851
	C73.62,152.405,73.62,150.947,72.891,149.49L72.891,149.49z"/>
<path fill="#F1B91B" d="M80.909,167.713c0,1.457,0.729,2.915,0.729,4.373c0.729-0.729,0.729-1.458,0.729-2.187
	C81.638,169.17,80.909,168.44,80.909,167.713L80.909,167.713z"/>
<path fill="#E24525" d="M81.638,172.086c0.729,0.729,1.458,2.187,2.188,3.646c0.729,2.188,2.188,3.646,2.916,5.104
	c0-2.188,0-5.104,0.729-7.289c-2.187-0.729-3.645-2.188-5.102-3.646C82.367,170.628,82.367,171.356,81.638,172.086L81.638,172.086z"
	/>
<path fill="#F1B91B" d="M52.481,161.881c-0.729-1.457-0.729-2.915-1.458-3.646c0,0,0,0-0.729,0c0,2.188-0.729,5.104-2.188,7.289
	c2.915,2.916,5.831,5.832,7.289,9.478c0-0.729,0.729-1.458,0.729-1.458C56.854,169.899,53.939,164.797,52.481,161.881
	L52.481,161.881z"/>
<path fill="#F1B91B" d="M45.921,177.917c0,0,0.729,0,0.729-0.729l0,0c2.188-2.188,3.646-5.104,4.373-7.289
	c-1.458,1.457-2.915,2.187-4.373,2.914C46.65,175.002,45.921,176.46,45.921,177.917L45.921,177.917z"/>
<path fill="#8D5E5A" d="M67.06,165.524L67.06,165.524L67.06,165.524z"/>
<path fill="#DAA557" d="M51.023,159.694c0,0-5.831,12.392-6.56,22.597l-0.729,3.646c0,0,4.374,5.83,16.036,7.289
	c12.396,2.188,28.428,0,30.614-5.104c0,0-4.373-24.783-6.563-27.698c-2.187-2.916-2.911-3.646-2.911-3.646l-9.479,2.188
	l-3.645,10.204l-3.646-4.373l-3.645-6.562L51.023,159.694z"/>
<path fill="#3D2B74" d="M51.023,156.778c0,0-5.103,14.578-5.831,24.783v3.645c0,0,3.646,5.104,16.036,6.561
	c12.396,2.188,25.516,0,27.698-4.373c0,0-3.646-24.783-5.831-27.699c-2.187-2.911-2.187-3.645-2.187-3.645l-8.021,2.188
	l-3.645,10.204l-4.373-4.373l-3.646-6.563L51.023,156.778z"/>
<path fill="#F28021" d="M51.023,156.778c0,0-5.342,14.212-6.071,25.146l-0.729,4.665c0,0,4.615,4.451,17.005,6.636
	c12.396,1.457,26.969,0,29.156-5.104c0,0-4.373-25.512-6.557-29.156c-2.188-2.916-2.188-2.916-2.188-2.916l-8.747,2.188
	l-3.645,10.205l-3.646-4.373l-3.645-7.286H51.023V156.778z"/>
<path fill="#949393" d="M76.535,156.05c-1.457,6.561-3.646,11.663-8.746,13.12c-3.646,1.458-5.104-8.746-8.021-13.12
	c-2.916,1.458-5.103,0-5.103,0s6.561,18.223,10.934,19.682c0,0,2.916,0.729,5.832,0c0,0,2.915,0,8.021-13.851
	C80.909,158.235,79.451,156.778,76.535,156.05L76.535,156.05z"/>
<path fill="#2B557E" d="M45.921,175.002v0.729l0,0C45.921,175.002,45.921,175.002,45.921,175.002L45.921,175.002L45.921,175.002z
	 M48.108,166.255L48.108,166.255v0.729C48.108,166.255,48.108,166.255,48.108,166.255L48.108,166.255z"/>
<path fill="#1695D3" d="M58.313,162.61v0.729c0,0,0,0.729,0.729,0.729l0,0L58.313,162.61z"/>
<path fill="#1695D3" d="M57.584,160.424c0,0,0,0.729,0.729,0.729l0,0L57.584,160.424z"/>
<path fill="#2B557E" d="M80.909,160.424L80.909,160.424L80.909,160.424z"/>
<path fill="#2B557E" d="M88.198,181.562L88.198,181.562L88.198,181.562L88.198,181.562L88.198,181.562z"/>
<path fill="#DAA557" d="M54.668,158.235c0,0,5.103,12.393,12.392,14.578c0,0,2.916,0,5.104-1.457
	c2.187-1.457,6.561-9.479,6.561-13.121h-0.729c0,0-3.646,13.121-8.747,13.851c-5.831,0.729-12.396-10.205-13.853-13.851H54.668z"/>
<path fill="#DAA557" d="M59.042,158.966c0,0,4.373,8.018,6.56,8.747l-0.729,0.729c0,0-5.104-5.104-6.563-10.205L59.042,158.966z"/>
<path fill="#DAA557" d="M63.415,177.188c0,0-0.729,16.035,0,16.765l1.458-0.729c0,0-0.729-14.578,0-16.035
	C64.873,176.46,63.415,177.188,63.415,177.188L63.415,177.188z"/>
<path fill="#DAA557" d="M22.596,132.726c0,0-0.729,3.646,1.458,5.832c0,0-2.187-0.729-2.915-3.646L22.596,132.726z"/>
<path fill="#DAA557" d="M34.987,119.604c0-2.916,0-26.24,16.036-40.09c12.396-10.205,33.53-6.561,44.464,16.036
	c3.646,6.56,5.831,18.223,4.373,25.512c-0.729,3.646-1.458,1.459-4.373,2.916c-2.187,0.729-3.645,1.457-5.831,2.188
	c-4.37,1.458-9.477,2.915-13.85,3.646c-10.205,2.188-21.867,3.646-30.614-2.188C40.819,125.437,37.175,123.249,34.987,119.604
	L34.987,119.604z"/>
<path fill="#FAFBFC" d="M68.518,152.405c-2.187,0-7.289-2.188-9.476-3.646c-5.832-0.729-5.104,0.729-10.205-0.729
	c-3.646-1.458-8.747-3.646-10.938-7.289c0.729,0.729,0.729,2.187,1.458,2.915c-4.374-2.915-7.289-7.289-7.289-12.392
	c-0.729-7.289,2.915-12.395,9.479-15.311c0.729,0,2.187,0,1.458,0c-2.188,0-1.458-0.729-1.458-0.729c9.476-5.103,16.036,0,16.036,0
	l8.747-0.729l6.56,2.188c0,0,6.563-4.375,12.396-2.188c0,0,0.729,0-1.458,0.729c2.188-0.729,5.832,0,8.019,0.729
	c3.646,0.729,9.476,3.646,10.204,8.021c-0.729,0-0.729-0.729-1.457-0.729c1.457,0.729,2.187,2.916,2.915,5.104
	c0.729,1.459,1.458,3.646,0.729,5.832c0,0.729-0.729,5.103-2.188,2.916c0,2.911-2.915,4.369-4.373,5.827
	c-2.188,2.188-4.373,3.646-7.289,5.104c-5.831,2.187-8.018,2.187-13.85,2.912C75.807,150.947,69.246,152.405,68.518,152.405
	L68.518,152.405z"/>
<path fill="#F6CD8C" d="M66.331,75.142c-5.832,0-10.938,2.187-15.312,5.831c-13.849,11.662-13.849,29.885-13.849,35.717
	c1.457-0.729,2.915-1.458,4.373-2.188c0.729,0,2.187-0.729,1.458-0.729c-2.188,0-1.458-0.729-1.458-0.729
	c3.645-1.457,5.831-2.187,8.747-2.187c5.103,0,8.018,2.187,8.018,2.187h8.747l6.563,1.458c0,0,4.373-2.915,9.476-2.915
	c1.458,0,2.188,0.729,3.646,0.729c0,0,1.458,0.729-1.458,1.458c0.729-0.729,2.187-0.729,3.645-0.729s2.916,0.729,4.374,0.729
	c1.457,0.729,3.645,0.729,5.102,2.187c0-6.561-0.729-13.85-3.645-19.681C88.198,81.701,76.535,75.142,66.331,75.142L66.331,75.142z"
	/>
<path fill="#D7DAE2" d="M88.927,113.044c-0.729,0-0.729,0-1.458,0l0,0c5.832,0,10.934,4.374,13.121,8.747
	c-0.729-0.729-2.188-0.729-2.916-0.729h-0.729c2.915,0,4.373,5.832,4.373,8.021c0.729,2.188,0,4.374-0.729,6.563
	c0-0.729,0-2.188,0-2.916c-0.729,2.916-3.646,4.373-5.104,5.832c-2.187,2.188-4.374,3.646-6.561,5.103
	c-2.188,1.458-5.831,2.188-8.018,3.646c0.729-0.729,1.458-2.188,2.187-2.914c-2.916,2.914-7.289,4.373-11.662,5.83l0,0
	c0.729,0,2.915,0,3.646,0c6.56,0,10.934-0.729,16.765-2.916c2.915-1.457,5.103-2.914,8.018-5.103
	c1.458-1.458,4.374-2.916,4.374-5.832l0,0l0,0l0,0h0.729l0,0l0,0c0.729,0,1.458-2.188,1.458-2.915l0,0c0-0.729,0-1.458,0-2.188
	c0-1.459,0-2.916-0.729-4.375c-0.729-2.188-1.457-4.373-2.915-5.83c0.729,0.729,0.729,0.729,1.458,1.457
	c-0.729-4.373-6.561-8.021-10.934-8.749C91.843,113.773,90.385,113.044,88.927,113.044L88.927,113.044z"/>
<path fill="#DAA557" d="M56.126,112.315c0,0-8.747-3.645-14.578,1.458c0,0,1.458,0,2.187,0c0,0-10.204,2.916-11.658,12.392
	c-1.458,9.477,6.56,16.036,6.56,16.036l-0.729-2.188c0,0,2.916,5.832,14.577,8.021c0,0,8.021,2.188,9.479,2.188l0.729,0.729
	c0,0-8.019-0.729-9.477-1.457c-1.457,0-10.938-2.916-13.853-7.289c0,0,0.729,2.915,1.458,3.646c0,0-10.202-8.021-10.202-18.225
	c0-9.479,10.202-13.85,10.935-13.121c0,0-1.458-0.729-2.188-0.729C39.361,113.773,48.108,107.213,56.126,112.315L56.126,112.315z"/>
<path fill="#DAA557" d="M106.421,131.996c0,0.729-0.729,0.729-0.729,1.458c-0.729,1.458-0.729,2.188-1.457,2.915
	c-1.458,2.916-3.645,5.103-6.561,6.562c0.729,0,2.187,0,2.916-1.459c3.645-2.187,6.56-6.56,6.56-10.203L106.421,131.996
	L106.421,131.996z"/>
<path fill="#DAA557" d="M97.674,142.931c0,0,2.187-1.459,2.187-3.646c0,0-5.103,10.205-24.054,10.205l-0.729,1.457
	c0,0,11.662,1.458,21.138-6.563v1.458c0,0,4.374-2.916,5.103-4.37L97.674,142.931z"/>
<path fill="#F6CD8C" d="M74.349,100.653c-1.458,0-13.12-2.916-15.307-5.103c7.289-13.12,6.56-19.681,8.018-57.584
	c0.729-16.036,10.205-24.783,14.578-21.139c1.458,0.729,4.374-10.934,5.104-10.204c2.916,2.187,0.729,0,2.187,2.915
	c0.729,1.458,5.831-2.915,6.563-1.457c3.646,9.476,2.188,8.018,2.912,11.662c5.104,26.97-18.947,43.734-16.765,67.06
	c0.729,4.373-11.662,0-8.018,1.458C77.265,89.719,74.349,100.653,74.349,100.653L74.349,100.653z"/>
<path fill="#F6E3C3" d="M67.06,80.973c0,0,0.729,2.915,2.188,0c9.477-14.578,16.766-37.903,22.597-52.481
	c2.188-5.103-5.831-5.103-10.205-4.374c-8.747,3.645,2.188,29.156-12.392,53.939L67.06,80.973z"/>
<path fill="#F6CD8C" d="M51.023,96.279c2.188,0,13.854-2.915,16.036-5.103c-8.018-13.12-9.476-19.68-8.018-57.583
	c0-9.477,2.915-20.41-2.916-18.223c-0.729,0,0-11.663-0.729-11.663c-2.916,1.458-0.729,0-2.916,2.187
	c-1.458,0.729-4.373-4.373-5.831-3.645c-6.561,7.289-5.103,6.561-6.561,9.477C25.51,35.05,37.173,45.984,43.733,67.122
	c3.646,12.392,12.396,15.308,8.747,16.765C48.108,85.346,51.023,96.279,51.023,96.279L51.023,96.279z"/>
<path fill="#F6E3C3" d="M67.06,91.177c0,0-4.373-2.915-6.561-5.102c-14.578-15.308-21.867-47.38-21.867-53.211
	c0-4.373,8.747-8.747,11.663-2.188c2.915,5.104-7.289,34.987,13.849,57.584L67.06,91.177z"/>
<path fill="#24211D" d="M95.487,132.726c0-0.729,0-2.188-2.187-2.188c0,0,0-0.729,0,0c0.729,0,0.729,0,0.729,0h0.729
	c0.729,0.729,0.729,0.729,0.729,1.458V132.726L95.487,132.726L95.487,132.726z"/>
<path fill="none" d="M95.487,132.726c0-0.729,0-2.188-2.187-2.188c0,0,0-0.729,0,0c0.729,0,0.729,0,0.729,0h0.729
	c0.729,0.729,0.729,0.729,0.729,1.458V132.726L95.487,132.726L95.487,132.726z"/>
<path fill="#24211D" d="M44.464,131.269c-0.729-0.729-2.188-0.729-3.646,1.457c0,0-0.729,0,0-0.729l0,0
	c0.729,0,0.729-0.729,1.457-0.729c0-0.729,0.729-0.729,1.458-0.729h0.729C44.464,131.269,45.192,131.269,44.464,131.269
	L44.464,131.269z"/>
<path fill="none" d="M44.464,131.269c-0.729-0.729-2.188-0.729-3.646,1.457c0,0-0.729,0,0-0.729l0,0
	c0.729,0,0.729-0.729,1.457-0.729c0-0.729,0.729-0.729,1.458-0.729h0.729C44.464,131.269,45.192,131.269,44.464,131.269
	L44.464,131.269z"/>
<path fill="#24211D" d="M63.415,108.671c-0.729-2.916-5.104-3.645-7.289-2.187c-2.188,1.458-4.373,2.187-4.373,5.103
	c0,4.373,3.645,5.104,7.289,3.645c2.187-0.729,4.373-0.729,4.373-2.916C64.144,110.129,64.144,110.857,63.415,108.671
	L63.415,108.671z"/>
<path fill="#FFFFFF" d="M62.687,109.399c-0.729-2.915-4.374-3.645-7.289-2.187c-1.458,1.458-3.645,2.187-3.645,4.374
	c0,4.373,3.645,5.103,6.56,3.645c2.188-0.729,4.374-0.729,4.374-2.916C63.415,110.857,63.415,110.857,62.687,109.399L62.687,109.399
	z"/>
<path fill="#67BEEB" d="M59.771,113.773c2.188-1.458,1.458-2.916,0-5.103c-1.458-1.458-5.103,0.729-5.831,2.187
	c-0.729,2.187,0.729,4.374,2.915,2.916c0.729,0,0.729,0,1.458,0C59.042,113.773,60.499,113.044,59.771,113.773L59.771,113.773z"/>
<path fill="#24211D" d="M56.854,109.399c-2.915,0.729-2.915,5.832,0,4.374c0.729,0.729,1.458,0,2.188,0
	C61.229,112.315,59.042,108.671,56.854,109.399L56.854,109.399z"/>
<path fill="none" d="M56.854,109.399c-2.915,0.729-2.915,5.832,0,4.374c0.729,0.729,1.458,0,2.188,0
	C61.229,112.315,59.042,108.671,56.854,109.399L56.854,109.399z"/>
<path fill="#24211D" d="M51.753,105.026c1.457,0.729,2.187,2.187,2.187,2.916c0.729,0,1.458-0.729,1.458-0.729
	C54.668,107.213,53.21,105.755,51.753,105.026L51.753,105.026z"/>
<path fill="#24211D" d="M58.313,102.84c0,1.458,0,2.915,0,2.915c0,0.729,0.729,0.729,0.729,0
	C58.313,105.755,58.313,104.298,58.313,102.84L58.313,102.84z"/>
<path fill="#24211D" d="M63.415,104.298c0,1.457-0.729,2.187-1.458,2.187c0,0.729,1.458,1.458,0.729,0.729
	C62.687,107.213,63.415,105.755,63.415,104.298L63.415,104.298z"/>
<path fill="#FFFFFF" d="M54.668,109.399l-0.729,0.729c0,0,0,0,0,0.729c0,0,0,1.458,0.729,1.458c0.729,0,0.729,0,1.458,0
	c0-0.729,0-0.729,0-0.729c0-0.729,0.729-0.729,0-0.729c0-0.729,0-0.729-0.729-0.729C55.397,109.399,55.397,109.399,54.668,109.399
	L54.668,109.399z"/>
<path fill="#24211D" d="M73.62,99.195c1.458-0.729,3.645,0,4.373,0c0.728,0,0-0.729-0.729-1.458
	C75.807,97.737,73.62,97.737,73.62,99.195L73.62,99.195z"/>
<path fill="#24211D" d="M57.584,99.195c-1.458-1.458-4.374-0.729-4.374-0.729c-0.729,0-0.729-0.729,0.729-1.457
	C54.668,97.009,56.854,97.009,57.584,99.195L57.584,99.195z"/>
<path fill="#24211D" d="M74.349,104.298c0.729,1.457,0,2.915,0,2.915c0,0.729,1.458,0.729,1.458,0.729
	C75.078,107.213,75.078,105.755,74.349,104.298L74.349,104.298z"/>
<path fill="#24211D" d="M80.18,110.857c-0.729-3.645-5.831-5.103-8.746-3.645c-1.458,1.458-2.916,2.187-2.916,4.374
	c0,5.103,2.916,5.103,8.021,5.103c2.188,0,3.645-0.729,4.374-2.916C80.909,111.587,80.909,113.044,80.18,110.857L80.18,110.857z"/>
<path fill="#FFFFFF" d="M74.349,107.942c-2.915,0-5.831,0-5.831,4.373c0,2.187,1.458,3.645,3.646,3.645
	c3.645,0,8.018,0.729,8.747-2.187C80.909,110.857,77.265,107.942,74.349,107.942L74.349,107.942z"/>
<path fill="#24211D" d="M80.18,105.026c0,1.458-1.457,2.916-1.457,2.916c-0.729,0.729,0.729,1.457,0.729,0.729
	C78.723,107.942,80.18,106.484,80.18,105.026L80.18,105.026z"/>
<path fill="#24211D" d="M69.976,105.026c0.729,0.729,0.729,2.187,0.729,2.187c0.729,0.729,1.458,0,0.729,0
	C71.434,107.213,70.704,105.755,69.976,105.026L69.976,105.026z"/>
<path fill="#67BEEB" d="M76.535,115.231c2.188-0.729,2.188-2.188,1.458-4.374c-0.729-1.458-5.104-2.187-6.563-0.729
	c-1.458,2.187,0,5.103,1.457,4.373c0.729,0,1.458,0,2.188,0.729C75.807,115.231,76.535,115.231,76.535,115.231L76.535,115.231z"/>
<path fill="#24211D" d="M74.349,110.129c-3.645,0-4.373,5.103-1.458,4.373c0.729,0.729,1.458,0.729,2.188,0.729
	C77.993,114.502,76.535,110.129,74.349,110.129L74.349,110.129z"/>
<path fill="none" d="M74.349,110.129c-3.645,0-4.373,5.103-1.458,4.373c0.729,0.729,1.458,0.729,2.188,0.729
	C77.993,114.502,76.535,110.129,74.349,110.129L74.349,110.129z"/>
<path fill="#FFFFFF" d="M71.434,110.129c-0.729,0-0.729,0-0.729,0c0,0.729-0.729,0.729-0.729,0.729s0,1.458,0.729,1.458l0.729,0.729
	c0.729-0.729,0.729-0.729,0.729-0.729s0.729-0.729,0-0.729v-0.729C71.434,110.129,71.434,110.129,71.434,110.129L71.434,110.129z"/>
<path fill="#24211D" d="M61.957,131.269c0,0-0.729,0-0.729,0.729l0.729,0.729c0.729-0.729,0.729,0,0.729-0.729L61.957,131.269
	L61.957,131.269z"/>
<path fill="#24211D" d="M76.535,131.269c-0.729,0-0.729,0-0.729,0c-0.729,0.729,0.729,0.729,0.729,0.729s0,0,0.729,0L76.535,131.269
	L76.535,131.269z"/>
<path fill="#24211D" d="M94.029,131.996c-8.743,17.494-41.548,18.223-51.021,0.729c0.729,3.645,18.951,16.032,27.698,14.574
	C75.078,147.303,92.571,136.369,94.029,131.996L94.029,131.996z"/>
<path fill="none" d="M94.029,131.996c-8.743,17.494-41.548,18.223-51.021,0.729c0.729,3.645,18.951,16.032,27.698,14.574
	C75.078,147.303,92.571,136.369,94.029,131.996L94.029,131.996z"/>
<path fill="#24211D" d="M67.789,145.847c-0.729-5.104-1.458-16.037-2.188-18.224c0-0.729,0-1.458,0.729-0.729
	c0.729,1.459,1.458,13.121,2.187,18.953C67.789,145.847,67.789,145.847,67.789,145.847L67.789,145.847z"/>
<path fill="none" d="M67.789,145.847c-0.729-5.104-1.458-16.037-2.188-18.224c0-0.729,0-1.458,0.729-0.729
	c0.729,1.459,1.458,13.121,2.187,18.953C67.789,145.847,67.789,145.847,67.789,145.847L67.789,145.847z"/>
<path fill="#F28021" d="M66.331,115.96c4.373,0,8.747,3.645,8.747,6.561s-4.374,5.104-8.021,5.104c-4.373,0-7.289-2.188-8.018-5.104
	C58.313,118.876,61.957,115.96,66.331,115.96L66.331,115.96z"/>
<path fill="#24211D" d="M59.042,128.353c-0.729,0-0.729,0-0.729,0.729c-0.729,0,0.729,0.729,0.729,0c0.729,0,0.729,0,0.729,0
	L59.042,128.353L59.042,128.353z"/>
<path fill="#24211D" d="M63.415,128.353c-0.729,0-0.729,0-0.729,0.729c-0.729,0.729,0.729,0.729,0.729,0.729
	c0.729,0,0.729,0,0.729-0.729L63.415,128.353L63.415,128.353z"/>
<path fill="#24211D" d="M72.162,129.81h-0.729c0,0.729,0.729,1.459,1.457,0.729l0,0C72.891,130.538,72.891,129.81,72.162,129.81
	L72.162,129.81z"/>
<path fill="#24211D" d="M76.535,126.894h-0.729c0,0.729,0.729,0.729,1.458,0.729l0,0C77.265,127.623,77.265,126.894,76.535,126.894
	L76.535,126.894z"/>
<path fill="#FFFFFF" d="M62.687,119.604c-0.729,0-1.458,0-2.188,0.729c0,1.457,1.458,2.188,2.916,1.457c0.729,0,0.729,0,0.729-0.729
	C64.144,121.063,63.415,119.604,62.687,119.604L62.687,119.604z"/>
<path fill="#F6CD8C" d="M44.464,87.532c0,0-2.916,4.374-4.374,3.645c0,0,0,1.458,2.187,0.729c0,0-2.187,1.458-2.915,1.458
	c0,0,1.458,1.457,2.915,0L44.464,87.532z"/>
<path fill="#DAA557" d="M44.464,87.532c0,0-2.188,2.916-4.374,3.645c0,0,0.729,1.458,2.916,0c0,0-1.458,1.458-3.646,2.188
	c0,0,2.188,1.457,3.646,0.729c0,0-2.188,1.458-5.104-0.729l0,0l1.458-0.729c0,0-0.729-0.729-0.729-1.458
	C38.632,91.177,41.548,89.72,44.464,87.532L44.464,87.532z"/>
<path fill="#F6CD8C" d="M88.927,87.532c0,0,8.019,4.374,10.205,3.645c0,0-1.458,2.916-5.104,2.188c0,0,5.831,1.457,6.563,0.729
	c0,0-4.374,5.104-6.563,3.646L88.927,87.532z"/>
<path fill="#DAA557" d="M88.927,87.532c0,0,4.374,3.645,9.476,4.374c0,0-1.457,2.187-5.102,0.729c0,0,2.187,2.188,5.831,2.188
	c0,0-2.188,2.916-4.374,2.916c0,0,3.645,1.458,7.289-2.916l0.729-1.457h-3.645c0,0,0.729-0.729,0.729-2.916
	C99.86,90.448,94.758,90.448,88.927,87.532L88.927,87.532z"/>
<path fill="none" d="M73.62,152.405c-0.729,0-0.729,0-0.729,0"/>
<path fill="none" d="M72.891,152.405c0,0-0.729,0-1.457,0"/>
<path fill="#DAA557" d="M58.313,148.761c0,0,9.479,10.934,20.41-0.729C78.723,148.032,68.518,156.05,58.313,148.761L58.313,148.761z
	"/>
<path fill="#FFFFFF" d="M73.62,73.684c-8.021-0.729-9.479,3.645-9.479,2.915c0,0,0-1.457-0.729-2.187
	c0.729-2.187-3.646-2.187-4.373-5.103c0.729,4.374,0,5.832,2.187,7.289c-0.729-1.457-7.289-1.457-10.934-0.729
	c4.373,0,8.747,1.458,8.747,2.187c0.729,0-3.646,0.729-7.289,4.374c3.645-2.916,7.289-2.916,7.289-2.188
	c-5.104,2.188-2.916,2.188-6.563,6.561c1.458-0.729,5.831-3.645,8.021-4.373c-2.915,2.915-2.915,8.018-4.373,10.204
	c0,0,3.645-5.103,5.831-8.747c0.729,0,4.374,7.289,3.645,8.747c-0.729-5.831-1.458-7.289-1.458-9.476
	c0.729,2.187,5.104,2.916,8.021,5.831c0,0-5.104-6.56-7.289-7.289c-0.729-0.729,10.205,3.645,10.205,2.916
	c-4.374-2.916-5.832-5.103-7.289-5.831C68.518,77.328,67.789,75.142,73.62,73.684L73.62,73.684z"/>
<path fill="#FFFFFF" d="M75.807,79.515c-7.289-5.103-10.934-1.458-10.934-2.187c0.729,0,0.729-1.458,0.729-2.187
	c0.729-2.188,0.729-2.916,0.729-6.561c0,4.373-5.104,5.831-3.646,8.018c-0.729-1.457-6.561-4.373-10.205-4.373
	c4.373,1.458,7.289,3.645,7.289,4.373c0.729,0.729-4.373-1.457-8.018,2.916c4.373-1.458,7.289-1.458,7.289-0.729
	c-5.104,0-2.188,2.915-7.289,5.831c1.457,0,5.831-2.916,8.018-2.916c-3.645,1.458-3.645,5.831-5.103,6.561
	c-0.729,0.729,2.916-2.187,5.831-4.374c0.729-0.729,2.916,8.019,1.458,9.477c1.458-5.832,0-7.289,0.729-10.205
	c0.729,2.916,4.373,5.103,5.831,8.747c0,0-2.916-8.747-4.374-9.476c-0.729-0.729,8.021,7.289,8.747,6.56
	c-3.645-4.373-4.373-7.289-5.102-8.747C69.246,79.515,69.976,78.786,75.807,79.515L75.807,79.515z"/>
<path fill="#DAA557" d="M37.175,223.108c1.457-0.729,3.645,0,4.373,0c0.729-0.729,0.729-1.457-0.729-1.457
	C39.361,220.923,37.903,221.651,37.175,223.108L37.175,223.108z"/>
<path fill="#DAA557" d="M42.276,228.212c0-1.458,2.188-2.915,2.188-3.645c0-0.73-0.729-0.729-1.458,0
	C41.548,225.297,40.819,227.483,42.276,228.212L42.276,228.212z"/>
<path fill="#DAA557" d="M99.86,207.803c2.188,0,4.374,0.729,4.374,0.729c1.457,0,0.729-1.458,0-1.458
	C102.776,206.345,100.59,206.345,99.86,207.803L99.86,207.803z"/>
<path fill="#DAA557" d="M97.674,212.176c2.187-0.729,5.831,0.729,6.561,0.729c1.457-0.729,0.729-1.458-0.729-1.458
	C101.318,210.718,98.402,210.718,97.674,212.176L97.674,212.176z"/>
<path fill="#DAA557" d="M26.97,147.303c0,0,2.188,3.646,0,5.832c-2.187,2.188-8.747,5.103-9.476,2.915
	c0-2.188-3.646-3.645-3.646-3.645S21.867,153.863,26.97,147.303L26.97,147.303z"/>
<path fill="#F28021" d="M13.12,153.863c-5.831,5.831,7.289,1.458,11.663,1.458c0,0.729,0.729,2.187,0.729,2.187
	c0,0.729,5.104,5.103,4.373,5.831c-1.457,2.188,5.832,20.41,3.646,21.867C29.885,184.478,6.561,156.778,13.12,153.863L13.12,153.863
	z"/>
<path fill="#949393" d="M29.885,146.574c1.458,0.729,6.561,14.577,7.29,15.307c1.457,3.646,1.457,9.478,1.457,13.121
	c-2.188,0.729-13.849-18.952-16.036-18.952C27.698,153.863,30.614,148.761,29.885,146.574L29.885,146.574z"/>
<path fill="#FDEDF6" d="M87.249,119.155c4.373,0,8.747,3.873,8.747,6.972s-4.374,5.425-8.021,5.425
	c-4.373,0-7.289-2.326-8.018-5.425C79.231,122.254,82.875,119.155,87.249,119.155L87.249,119.155z"/>
<path fill="#FDEDF6" d="M45.791,117.427c4.373,0,8.747,3.873,8.747,6.973c0,3.099-4.374,5.425-8.021,5.425
	c-4.373,0-7.289-2.326-8.018-5.425C37.773,120.524,41.417,117.427,45.791,117.427L45.791,117.427z"/>
</svg>
