<?xml version="1.0" encoding="utf-8"?>
<!-- Generator: Adobe Illustrator 13.0.0, SVG Export Plug-In . SVG Version: 6.00 Build 14948)  -->
<svg version="1.2" baseProfile="tiny" id="Layer_1" xmlns="http://www.w3.org/2000/svg" xmlns:xlink="http://www.w3.org/1999/xlink"
	 x="0px" y="0px" width="161.818px" height="188.176px" viewBox="0 0 161.818 188.176" xml:space="preserve">
<path fill="#AAA8A7" d="M72.163,169.836c0,0,3.646,7.289,5.103,12.393c2.188,4.373-0.729,5.102-3.646,4.373
	c-2.915,0,0.729,0.729,0.729-2.188c0-2.188,0.729-3.645-1.458-7.289c-2.188-2.916-2.188-5.104-2.188-5.104
	S71.433,169.105,72.163,169.836L72.163,169.836z"/>
<path fill="#AAA8A7" d="M91.843,165.462l0.729-0.729c0,0,4.373,4.373,5.831,5.104c0.729,1.458,3.645,5.104,4.374,8.018
	c1.457,2.916,1.457,9.477-2.916,9.477c-5.104-0.729,0.729-3.645,0.729-5.102c0-2.188,0.729-3.646-2.187-7.289
	c-2.188-2.916-0.729-1.459-1.458-2.916c-1.457-0.729-4.373-3.646-4.373-3.646S91.114,166.191,91.843,165.462L91.843,165.462z"/>
<path fill="#24211D" d="M81.638,117.354c0,0-3.646-6.561-5.831-6.561l5.102,14.578l-5.831-9.477l-0.729,11.662l-3.646-14.578
	l-5.103,14.578l0.729-16.035l-6.56,11.662l2.915-12.392l-10.935,8.747l8.747-11.662l-13.849,5.831l10.934-8.747l-11.663,1.458
	l7.289-6.562l-10.204,4.375l9.477-8.02l-5.831,5.104l3.645-7.29l0.729-1.458l-8.019-0.729l8.019-3.645
	c1.458-0.729,9.476,1.457,10.205,2.187c2.187,0.729,0.729-0.729,3.645,3.645c2.188,3.645,10.204,8.747,10.204,8.747l8.02,4.373
	l-5.104,2.188L81.638,117.354z"/>
<path fill="none" d="M81.638,117.354c0,0-3.646-6.561-5.831-6.561l5.102,14.578l-5.831-9.477l-0.729,11.662l-3.646-14.578
	l-5.103,14.578l0.729-16.035l-6.56,11.662l2.915-12.392l-10.935,8.747l8.747-11.662l-13.849,5.831l10.934-8.747l-11.663,1.458
	l7.289-6.562l-10.204,4.375l9.477-8.02l-5.831,5.104l3.645-7.29l0.729-1.458l-8.019-0.729l8.019-3.645
	c1.458-0.729,9.476,1.457,10.205,2.187c2.187,0.729,0.729-0.729,3.645,3.645c2.188,3.645,10.204,8.747,10.204,8.747l8.02,4.373
	l-5.104,2.188L81.638,117.354z"/>
<path fill="#24211D" d="M51.024,99.859c3.645-5.103,0.729-4.373,0.729-3.645l-13.12,6.561l7.289-13.12l-13.849,7.29l11.662-11.663
	l-13.12,3.645l11.662-6.561l-14.578-1.457l14.578-2.188L28.428,73.62l13.849-0.729l-13.849-5.103h14.577l-10.205-6.56l12.393,2.915
	l-8.02-8.018l13.851,5.103h-4.373l-5.104-5.831l8.019,2.915c1.458,0.729,5.103,7.289,5.831,8.019c0.729,2.915,0.729,0.729,0,5.102
	c-0.729,4.374,0.729,13.85,0.729,13.85l2.915,8.747l-5.102-2.188L51.024,99.859z"/>
<path fill="#C2C0BE" d="M107.878,39.361c0,0,8.747-5.832,11.663-10.205c-0.729,0.729-10.205-7.289-9.476-6.562
	c0.729,0,8.746,0.729,8.746,0.729s0.729,4.373,0.729,5.831c0.729-1.458,0.729-2.916,0.729-3.646C117.355,21.139,116.625,0,112.981,0
	c-2.915,0-13.85,10.934-14.578,11.662c0,0.729-5.104,14.578-6.561,19.681c8.746,2.188,5.831,4.374,5.831,4.374
	s7.289,5.831,4.373,5.831c-2.187,0-7.289,1.458-10.934-0.729c-1.458-0.729-3.646-1.457-5.103-2.187
	c-2.915,0-5.831-0.729-8.747-2.187h-8.746l3.645-3.645l0,0l-6.561-5.831C54.667,18.95,40.818,9.475,39.361,10.204
	c-2.916,0-5.832,0.729-2.916,4.373c2.187,3.645,3.645,8.018,2.187,11.662c-2.187,3.645-1.458,16.766-1.458,16.766
	S36.446,58.313,53.21,62.687c12.393,2.915-9.476-5.832-1.458,19.68c4.374,14.578,16.036,24.055,25.513,30.613
	c0,0,6.561,0,13.85,6.562c2.187-0.729,4.374-2.187,6.561-3.646c-2.916-5.103-5.103-10.934-5.83-17.494c0,0,2.914-5.83,5.102-8.746
	c2.916-2.915,9.477-7.289,9.477-7.289s10.935-7.289,23.325-11.662c0.729-2.187-2.916-2.916-3.646-5.831
	c-1.457-5.103,0.729-10.934-10.204-18.952C104.963,38.632,107.878,39.361,107.878,39.361L107.878,39.361z"/>
<path fill="#24211D" d="M62.686,25.512c-0.729-1.458-2.188-2.187-3.646-2.916c0,1.458-0.729,4.374-2.915,5.103
	C59.042,28.428,61.958,26.97,62.686,25.512L62.686,25.512z"/>
<path fill="#24211D" d="M98.403,11.662c0,0-2.915,6.561-1.458,8.747c0.729,1.458,9.477-5.831,9.477-5.831
	S98.403,12.392,98.403,11.662L98.403,11.662z"/>
<path fill="#4F4C4A" d="M52.482,86.011c1.458,2.188,2.187,4.374,3.645,6.562c4.373,0.729,9.477-8.018,8.019-8.747
	C62.686,83.824,56.126,85.282,52.482,86.011L52.482,86.011z"/>
<path fill="#C2C0BE" d="M76.779,112.594c0,0,9.233,10.592,8.504,17.881c-0.729,6.561-8.747,7.289-16.765,6.561
	c-8.02-1.458-7.289-2.188-14.578-2.188c-6.562-0.729-12.393,5.832-10.935,12.392c0,0,0,0,0,0.729
	c1.457,5.831,8.019,13.12,13.12,18.224c5.831,5.83,0,17.492,0,17.492s2.188,4.375,13.85,4.375
	c12.392-0.729,0.729-13.121,1.458-15.309c0.729-2.915,6.561-7.289,11.663-4.373c5.831,2.916,2.187,13.85,2.187,13.85
	s-0.729,6.561,8.018,5.832c2.916,0,5.104-0.729,6.562-2.916c0.729-0.729,0.729-1.459,1.458-2.188c0-0.729,0-0.729,0-1.458
	s0-0.729,0-1.458c0-2.188-0.729-3.645-1.458-5.102c-1.458-1.459-1.458-2.188-1.458-2.188l-0.729-0.729
	c-1.458-1.457-4.374-4.373-4.374-4.373s-0.729-1.457,0-2.916v-0.729l0,0c1.458-1.458,4.374-3.645,6.562-8.02
	c3.645-8.018-0.729-29.885-8.747-36.444c-4.546-8.281-13.573-7.108-13.573-7.108L76.779,112.594z"/>
<path fill="#24211D" d="M58.313,170.564c0.729,2.187,0.729,5.103,0,7.289c2.187-1.459,7.289-7.289,5.831-7.289H58.313z"/>
<path fill="#24211D" d="M72.891,175.667c-0.729-1.458-1.458-2.916-1.458-2.916c0-0.729,0.729-1.457,1.458-2.187
	c-1.458-2.188-5.104-8.019-4.373-9.477c0-1.458-2.188,2.188-1.458,5.104C67.06,169.105,71.433,174.209,72.891,175.667
	L72.891,175.667z"/>
<path fill="#24211D" d="M59.771,134.848c-1.458,0-2.916,0-5.831,0c-0.729,0-1.458,0-1.458,0c2.915,2.188,5.831,8.747,6.56,10.935
	c0,0,0-3.646,0.729-5.103C60.5,139.95,59.771,137.035,59.771,134.848L59.771,134.848z"/>
<path fill="#24211D" d="M83.096,121.729c0.729,1.457,1.458,3.645,2.187,5.103c1.458,0,4.373-0.729,4.373-1.458
	S84.554,122.457,83.096,121.729L83.096,121.729z"/>
<path fill="#24211D" d="M99.861,155.986c0.729-2.188,0.729-3.646,0.729-6.562c-0.729-2.915-2.915-8.018-3.645-8.018
	C96.216,141.408,99.132,150.155,99.861,155.986L99.861,155.986z"/>
<path fill="#24211D" d="M85.283,132.661c-1.458,2.187-3.645,3.646-6.561,3.646l0,0c4.374,0,9.477,8.746,9.477,8.746l0.729,4.373
	c0,0,2.187-2.187,2.187-4.373c1.458-3.645,0-5.103-0.729-6.561c0-1.457-5.104-7.289-5.104-7.289
	C85.283,131.934,85.283,131.934,85.283,132.661L85.283,132.661z"/>
<path fill="#24211D" d="M63.416,29.156c0,0,5.831,3.645,8.019,2.916L60.5,21.139l9.477,6.56l-5.103-10.934l10.204,10.934
	l-2.187-15.307l6.561,14.578l0.729-13.12l2.916,12.391l5.831-12.391l-2.188,13.849l9.476-11.662l-5.103,13.12l9.476-6.561
	l-4.373,9.477l7.289-9.477l-4.373,12.392l7.289-8.018l2.188,0.729l-7.289,9.476l8.018-2.915l-5.831,6.56
	c-0.729,1.458-8.747,2.916-9.476,2.916c-2.916,0-0.729,0.729-5.103-1.458c-3.646-2.187-13.12-3.645-13.12-3.645H67.06l3.645-4.373
	L63.416,29.156z"/>
<path fill="none" d="M63.416,29.156c0,0,5.831,3.645,8.019,2.916L60.5,21.139l9.477,6.56l-5.103-10.934l10.204,10.934l-2.187-15.307
	l6.561,14.578l0.729-13.12l2.916,12.391l5.831-12.391l-2.188,13.849l9.476-11.662l-5.103,13.12l9.476-6.561l-4.373,9.477
	l7.289-9.477l-4.373,12.392l7.289-8.018l2.188,0.729l-7.289,9.476l8.018-2.915l-5.831,6.56c-0.729,1.458-8.747,2.916-9.476,2.916
	c-2.916,0-0.729,0.729-5.103-1.458c-3.646-2.187-13.12-3.645-13.12-3.645H67.06l3.645-4.373L63.416,29.156z"/>
<path fill="#F9F1D0" d="M64.144,57.584c0,0,6.561-8.747,0.729-15.308c-5.103-5.831-14.578-8.018-15.308-10.934
	c-0.729-2.915-1.458,8.019-1.458,12.392c-0.729,5.103,2.188,12.392,5.832,13.85C57.584,58.313,64.144,57.584,64.144,57.584
	L64.144,57.584z"/>
<path fill="#24211D" d="M91.114,96.945c0,0,2.187-4.375,4.374-6.562c1.457-2.187,6.56-5.831,6.56-5.831s19.682-15.308,32.072-13.85
	c13.12,2.187,26.97,7.289,27.698,16.765c0,15.308-8.019,22.597-27.698,32.802c-5.103,2.916-11.663,4.373-17.494,4.373
	C103.505,123.914,91.843,115.168,91.114,96.945L91.114,96.945z"/>
<path fill="#4F4C4A" d="M51.752,67.06c2.188,2.187,8.747,8.018,10.935,8.018c2.188-0.729-3.646,2.188-7.289,2.188
	c-2.915,0-4.373,0.729-5.103-0.729C48.837,70.704,50.295,67.06,51.752,67.06L51.752,67.06z"/>
<path fill="#4F4C4A" d="M61.229,99.859c2.187,4.375,6.56-4.373,8.746-4.373c2.188-0.729,1.458,8.748-2.915,9.477
	C64.874,102.775,62.686,101.318,61.229,99.859L61.229,99.859z"/>
<path fill="#24211D" d="M91.114,97.674c2.916,17.494,0,20.409,8.747,19.682c8.747-1.459,14.578,5.83,14.578,5.83
	C107.878,125.372,91.114,112.252,91.114,97.674L91.114,97.674z"/>
<path fill="none" d="M91.114,97.674c2.916,17.494,0,20.409,8.747,19.682c8.747-1.459,14.578,5.83,14.578,5.83
	C107.878,125.372,91.114,112.252,91.114,97.674L91.114,97.674z"/>
<path fill="#24211D" d="M72.163,137.035c0,0,4.373,1.457,3.646,6.56c-1.458,4.374-5.832,13.121-5.832,12.392
	c-0.729-1.457,1.458-5.83,0-10.204c-1.457-5.103-3.646-9.476-3.646-9.476L72.163,137.035z"/>
<path fill="#24211D" d="M56.126,166.191c0,0-1.458-14.578-0.729-15.309c0.729,0-2.188,2.188-2.188,6.561
	c-0.729,5.104,0.729,6.562,0.729,6.562L56.126,166.191z"/>
<path fill="#24211D" d="M82.367,168.378c0,0,0-13.12-0.729-13.851c-1.458-1.457,0,1.459-1.458,5.104
	c-0.729,2.916-3.646,8.747-3.646,8.747H82.367z"/>
<path fill="#24211D" d="M93.3,164.005c0,0-7.288-6.562-7.288-7.289c0-1.458,5.103,13.849,8.019,13.849
	C96.945,171.294,91.114,166.191,93.3,164.005L93.3,164.005z"/>
<polygon fill="#24211D" points="74.349,179.313 65.602,178.583 75.078,181.498 "/>
<path fill="#24211D" d="M86.011,174.938c0,0,6.561,2.916,7.288,2.188c0.729,0-7.288,1.458-7.288,2.188
	C85.283,180.77,86.011,174.938,86.011,174.938L86.011,174.938z"/>
<path fill="#24211D" d="M101.319,177.854c0,0-2.916,3.646-5.104,2.916c-2.916-1.457,5.104,2.188,5.104,0.729V177.854z"/>
<path fill="#24211D" d="M58.313,185.872h16.765c0,0-0.729,2.187-7.289,2.187C60.5,187.329,58.313,185.872,58.313,185.872
	L58.313,185.872z"/>
<path fill="#24211D" d="M86.011,185.872h13.85c0,0-2.916,2.915-5.831,2.187C91.114,188.059,88.199,188.787,86.011,185.872
	L86.011,185.872z"/>
<path fill="#24211D" d="M97.674,129.018l-5.831,1.457c0,0,7.289,2.916,7.289,5.104C99.861,137.035,97.674,129.018,97.674,129.018
	L97.674,129.018z"/>
<path fill="#24211D" d="M94.03,122.457l-2.916-2.916c0,0-3.645-2.188-4.373-2.188C86.011,118.083,90.385,121.729,94.03,122.457
	L94.03,122.457z"/>
<path fill="none" d="M94.03,122.457l-2.916-2.916c0,0-3.645-2.188-4.373-2.188C86.011,118.083,90.385,121.729,94.03,122.457
	L94.03,122.457z"/>
<path fill="#24211D" d="M48.108,15.307l-5.831,4.374c0,0,3.645-6.561,1.458-7.289C42.277,10.934,48.108,15.307,48.108,15.307
	L48.108,15.307z"/>
<path fill="none" d="M48.108,15.307l-5.831,4.374c0,0,3.645-6.561,1.458-7.289C42.277,10.934,48.108,15.307,48.108,15.307
	L48.108,15.307z"/>
<polygon fill="#24211D" points="39.362,23.325 45.193,23.325 38.632,26.24 "/>
<polygon fill="none" points="39.362,23.325 45.193,23.325 38.632,26.24 "/>
<polygon fill="#24211D" points="37.174,35.717 43.006,36.445 37.174,39.361 "/>
<polygon fill="none" points="37.174,35.717 43.006,36.445 37.174,39.361 "/>
<path fill="#24211D" d="M37.904,48.837l5.103,1.458c0,0-1.458,5.103-2.188,3.645C39.362,52.481,37.904,48.837,37.904,48.837
	L37.904,48.837z"/>
<path fill="none" d="M37.904,48.837l5.103,1.458c0,0-1.458,5.103-2.188,3.645C39.362,52.481,37.904,48.837,37.904,48.837
	L37.904,48.837z"/>
<path fill="#24211D" d="M116.625,8.018h-7.289c0,0,8.02,5.832,8.02,4.374S116.625,8.018,116.625,8.018L116.625,8.018z"/>
<path fill="none" d="M116.625,8.018h-7.289c0,0,8.02,5.832,8.02,4.374S116.625,8.018,116.625,8.018L116.625,8.018z"/>
<path fill="#24211D" d="M118.812,23.325c0,0-8.019-0.729-8.746-0.729c-0.729-0.729,8.746,7.289,9.476,6.561
	C119.542,27.698,118.812,23.325,118.812,23.325L118.812,23.325z"/>
<path fill="none" d="M118.812,23.325c0,0-8.019-0.729-8.746-0.729c-0.729-0.729,8.746,7.289,9.476,6.561
	C119.542,27.698,118.812,23.325,118.812,23.325L118.812,23.325z"/>
<path fill="#24211D" d="M98.403,11.662c-0.729,1.458-3.646,5.832-1.458,6.561C97.674,15.307,98.403,13.12,98.403,11.662
	L98.403,11.662z"/>
<path fill="none" d="M98.403,11.662c-0.729,1.458-3.646,5.832-1.458,6.561C97.674,15.307,98.403,13.12,98.403,11.662L98.403,11.662z
	"/>
<path fill="#24211D" d="M90.385,75.807c0-1.458,2.188-2.916,2.188-3.645s-1.458-1.458-1.458-1.458
	C91.843,71.433,90.385,74.349,90.385,75.807L90.385,75.807z"/>
<path fill="#24211D" d="M98.403,79.451c-0.729-2.187,0-4.374,0-5.103c0-1.458-2.188-0.729-1.458-0.729
	C97.674,74.349,97.674,77.265,98.403,79.451L98.403,79.451z"/>
<path fill="#24211D" d="M105.692,75.807c-1.458-0.729-1.458-2.916-1.458-2.916c-0.729-0.729-2.188,0-1.457,0
	C103.505,72.891,104.234,75.077,105.692,75.807L105.692,75.807z"/>
<path fill="#706352" d="M126.831,70.704c-0.729-1.458-2.916-2.187-2.916-2.916c-0.729-0.729,0.729-0.729,0.729-0.729
	C124.644,67.788,126.101,69.246,126.831,70.704L126.831,70.704z"/>
<path fill="#24211D" d="M122.457,60.499c2.916-0.729,5.104,0,6.562,3.645c2.187,5.103-2.916,7.289-8.019,7.289
	c-5.832-0.729-8.019-0.729-8.747-3.645C112.252,64.873,118.812,60.499,122.457,60.499L122.457,60.499z"/>
<path fill="#FFFFFF" d="M121,61.229c2.915,0,6.561-2.187,7.289,3.645c1.458,5.103-6.561,5.831-9.477,6.56
	c-2.188,0.729-5.103-0.729-5.831-3.645C112.981,64.873,118.083,61.957,121,61.229L121,61.229z"/>
<path fill="#FDC90B" d="M121,61.229c2.915,0,5.831-1.458,7.289,2.915c-2.916,0.729-8.019,0.729-11.663-1.457
	C118.083,61.957,120.27,61.229,121,61.229L121,61.229z"/>
<path fill="#DDDDDC" d="M91.114,96.945c0,0,2.187-4.375,3.645-6.562c2.188-2.187,7.289-5.831,7.289-5.831S121,69.246,133.391,70.704
	c12.391,2.187,26.239,7.289,27.697,16.765c2.188,15.309-15.308,28.428-32.801,33.53C113.71,124.645,93.3,123.186,91.114,96.945
	L91.114,96.945z"/>
<path fill="#FFFFFF" d="M121,61.229c2.915,0,5.831-1.458,7.289,2.915c-2.916,0.729-8.019,0.729-11.663-1.457
	C118.083,61.957,120.27,61.229,121,61.229L121,61.229z"/>
<path fill="#FFFFFF" d="M97.674,104.234c6.561-13.122,26.971-22.597,40.091-21.14c9.476,0.729,19.681,1.458,21.139,8.018
	c1.457,11.663-22.597,22.597-35.717,26.241C112.252,120.27,99.861,123.914,97.674,104.234L97.674,104.234z"/>
<path fill="#24211D" d="M121,61.229c2.915,0,5.831-1.458,7.289,2.915c-1.458-1.457-2.188-0.729-4.374-1.457
	c-2.187-0.729-5.831,0.729-7.289,0C118.083,61.957,120.27,61.229,121,61.229L121,61.229z"/>
<path fill="#C2C0BE" d="M121,61.229c2.915,0,5.831-1.458,7.289,2.915c-1.458-1.457-2.188-1.457-4.374-2.187
	c-2.187,0-5.831,1.458-7.289,0.729C118.083,61.957,120.27,61.229,121,61.229L121,61.229z"/>
<path fill="#67BEEB" d="M119.542,62.687c-2.916,0.729-3.645,0.729-4.374,4.373c-1.457,3.645,2.916,5.103,5.832,4.373
	c3.646-1.457,4.373-2.915,3.646-5.102C124.644,64.144,121.728,62.687,119.542,62.687L119.542,62.687z"/>
<path fill="#24211D" d="M117.355,64.144c-1.458,0-3.646,1.458-2.916,3.645c0,2.188,2.916,4.374,4.373,4.374
	c2.188-0.729,3.645-2.187,2.916-4.374C121.728,65.602,119.542,64.144,117.355,64.144L117.355,64.144z"/>
<path fill="#FFFFFF" d="M120.27,65.602c-0.729,0-0.729,0.729-0.729,0.729c0,0.729,0.729,1.457,1.458,1.457
	c0.729,0,0.729-0.729,0.729-1.457C121.728,65.602,121,65.602,120.27,65.602L120.27,65.602z"/>
<path fill="#24211D" d="M74.349,67.788c1.458,2.916,6.56,4.374,7.289,4.374c0.729,2.187-2.916,3.645-2.916,2.915
	C79.452,73.62,75.807,70.704,74.349,67.788L74.349,67.788z"/>
<path fill="#706352" d="M86.011,86.011c0-2.187,2.188-4.373,2.916-4.373c0-1.458-2.188-1.458-2.188-0.729
	C87.469,81.638,86.011,83.824,86.011,86.011L86.011,86.011z"/>
<path fill="#24211D" d="M86.011,69.246c-6.561,1.458-6.561,5.103-6.561,9.476c-0.729,8.019,8.747,6.561,14.578,5.103
	s8.018-1.458,9.476-6.56C105.692,72.891,93.3,67.788,86.011,69.246L86.011,69.246z"/>
<path fill="#FFFFFF" d="M87.469,69.976c-4.373,0.729-7.289,2.187-6.562,9.476c0.729,7.289,12.392,5.103,15.308,3.645
	c2.188-0.729,7.289-2.916,6.562-6.561C102.047,72.162,91.114,69.246,87.469,69.976L87.469,69.976z"/>
<path fill="#67BEEB" d="M88.927,72.891c-3.646,0.729-5.104,0.729-5.831,6.561c-0.729,5.103,5.103,6.56,8.746,5.103
	c3.646-1.458,5.103-3.645,4.373-6.561C95.488,74.349,91.843,72.162,88.927,72.891L88.927,72.891z"/>
<path fill="#24211D" d="M86.741,73.62c-2.187,0-5.103,2.187-4.374,5.102c0,3.645,4.374,6.561,7.289,6.561
	c2.188-0.729,4.374-3.645,3.645-6.561C92.572,75.077,89.656,72.891,86.741,73.62L86.741,73.62z"/>
<path fill="#FFFFFF" d="M91.843,76.535c-0.729,0-2.188,0.729-1.458,1.458c0,0.729,1.458,1.458,2.188,1.458
	c0.729,0,1.458-0.729,1.458-1.458C94.03,76.535,92.572,76.535,91.843,76.535L91.843,76.535z"/>
<path fill="#24211D" d="M86.011,59.771c-2.915-0.729-7.289,0.729-8.019,0.729c-2.187,0-1.458-1.457,0.729-2.187
	C80.909,56.854,84.554,56.854,86.011,59.771L86.011,59.771z"/>
<path fill="#24211D" d="M80.18,75.077c1.458,0.729,7.289-2.915,10.204-2.915c3.646,0.729,7.289,0.729,8.747,0
	c-3.645-2.187-9.477-2.916-11.662-2.187C85.283,70.704,80.909,71.433,80.18,75.077L80.18,75.077z"/>
<path fill="#949393" d="M80.909,74.349c2.188,0,5.832-2.916,9.478-2.916c3.645,0.729,5.83,1.458,7.288,0
	c-2.916-0.729-8.019-2.187-10.204-1.457C85.283,70.704,82.367,71.433,80.909,74.349L80.909,74.349z"/>
<path fill="#24211D" d="M80.909,62.687c0,2.915,4.374,5.831,4.374,6.56c0.729,2.187-3.645,2.916-2.916,2.187
	C83.825,69.976,80.909,65.602,80.909,62.687L80.909,62.687z"/>
<path fill="#24211D" d="M70.705,74.349c2.915,2.187,8.019,0.729,8.747,0.729c1.457,0.729-0.729,4.374-0.729,3.645
	C78.722,77.265,73.62,76.535,70.705,74.349L70.705,74.349z"/>
<path fill="#24211D" d="M112.252,74.349c0-2.187,2.188-3.645,2.188-4.373c0.729-0.729-1.458-1.458-0.729-0.729
	C113.71,69.976,112.252,72.162,112.252,74.349L112.252,74.349z"/>
<path fill="#24211D" d="M120.27,77.265c-0.729-2.188,0-4.374,0-5.103c0-1.458-2.188-0.729-1.458-0.729
	C119.542,72.162,119.542,75.077,120.27,77.265L120.27,77.265z"/>
<path fill="#24211D" d="M127.559,74.349c-1.458-1.458-1.458-3.645-1.458-3.645c-0.729-0.729-2.188,0-1.457,0
	C125.373,70.704,126.101,72.891,127.559,74.349L127.559,74.349z"/>
<path fill="#24211D" d="M110.794,108.607c2.188,0,4.373-2.188,4.373-5.104c0-2.915-2.187-5.104-4.373-5.104
	c-2.916,0-4.373,2.188-4.373,5.104C106.421,106.421,107.878,108.607,110.794,108.607L110.794,108.607z"/>
<path fill="none" d="M110.794,108.607c2.188,0,4.373-2.188,4.373-5.104c0-2.915-2.187-5.104-4.373-5.104
	c-2.916,0-4.373,2.188-4.373,5.104C106.421,106.421,107.878,108.607,110.794,108.607L110.794,108.607z"/>
<path fill="#24211D" d="M128.289,53.21c1.458,2.916,2.915,8.019-1.458,7.289c-0.729,2.188-3.645-0.729-2.916-0.729
	C129.017,61.957,129.747,56.854,128.289,53.21L128.289,53.21z"/>
<path fill="#24211D" d="M123.186,52.481c1.458,2.187,5.103,5.831,1.458,7.289c0,2.187-4.374,0.729-3.646,0.729
	C126.831,59.771,125.373,55.397,123.186,52.481L123.186,52.481z"/>
<path fill="#24211D" d="M118.812,53.21c0.729,2.916,4.374,6.561,3.645,7.289c0,1.458-4.373,1.458-3.645,0.729
	C121.728,59.771,118.812,55.397,118.812,53.21L118.812,53.21z"/>
<path fill="#24211D" d="M93.3,97.674l-0.729-0.729c0,0-2.188-0.729-2.916,0.729c-0.729,0.729-1.457,1.458-0.729,2.188
	c0.729,0,0-2.916,1.458-1.459C92.572,99.132,93.3,97.674,93.3,97.674L93.3,97.674z"/>
<path fill="none" d="M93.3,97.674l-0.729-0.729c0,0-2.188-0.729-2.916,0.729c-0.729,0.729-1.457,1.458-0.729,2.188
	c0.729,0,0-2.916,1.458-1.459C92.572,99.132,93.3,97.674,93.3,97.674L93.3,97.674z"/>
<path fill="#24211D" d="M153.071,91.113c1.458,0,2.916-2.187,2.916-4.373c0-1.458-1.458-3.646-2.916-3.646
	c-1.457,0-2.915,2.188-2.915,3.646C150.156,88.927,151.614,91.113,153.071,91.113L153.071,91.113z"/>
<path fill="none" d="M153.071,91.113c1.458,0,2.916-2.187,2.916-4.373c0-1.458-1.458-3.646-2.916-3.646
	c-1.457,0-2.915,2.188-2.915,3.646C150.156,88.927,151.614,91.113,153.071,91.113L153.071,91.113z"/>
<path fill="#24211D" d="M118.812,51.753c-2.915-0.729-6.561,0.729-7.289,0.729c-2.188,0-1.457-1.458,0-2.187
	C113.71,48.837,117.355,48.837,118.812,51.753L118.812,51.753z"/>
<path fill="#C2C0BE" d="M33.53,95.486c4.374-0.729,10.205,2.188,13.121,7.289c4.373,6.561,3.645,15.308-1.458,23.326
	c0,0.729-1.458,0.729-1.458,0c-0.729,0-1.458-1.459-0.729-1.459c4.373-7.289,5.103-14.578,1.457-20.408
	c-2.915-4.375-7.289-6.562-10.934-5.832c-8.018,0.729-9.476,13.85-9.476,14.578c0,0,0,0.729-0.729,0.729h-0.729
	c-0.729,0-8.747-3.645-14.578-0.729c-2.188,1.457-3.646,4.373-5.104,7.289c-0.729,4.373,0,7.289,2.188,10.934
	c9.476,12.392,38.632,15.308,39.359,15.308c0.729,0,1.458,0.729,1.458,2.188c-0.729,0.729-1.458,0.729-2.187,0.729
	c-0.729,0-30.614-2.915-40.819-16.765C0,129.018-0.729,124.645,0.729,120.27c0.729-4.373,2.916-8.018,5.831-9.476
	c5.832-2.915,11.663-1.458,15.308,0C22.596,106.421,24.784,96.216,33.53,95.486L33.53,95.486z"/>
<path fill="#24211D" d="M32.073,98.402c-2.916,1.457-4.374,3.645-5.103,5.832c0-1.459-0.729-2.916-0.729-3.646s0-0.729,0-0.729
	c1.458-2.187,2.916-3.645,5.832-4.373C32.073,96.216,32.073,96.945,32.073,98.402L32.073,98.402L32.073,98.402z"/>
<path fill="#24211D" d="M43.006,124.645c2.915-4.375,3.646-9.477,3.646-13.121c0.729-0.729,2.187,0,2.915,0.729
	c0,4.373-1.458,9.476-4.373,13.851c0,0.729-1.458,0.729-1.458,0C43.006,126.102,42.277,124.645,43.006,124.645L43.006,124.645z"/>
<path fill="#24211D" d="M32.073,147.239c0-0.729,0.729-1.458,1.457-2.188c5.832,1.458,10.934,1.458,10.934,1.458l0.729,0.729
	c0,0.729,0,0.729,0,1.458c0,0.729-0.729,0.729-1.458,0.729C43.735,149.426,38.632,148.697,32.073,147.239L32.073,147.239z"/>
<path fill="#24211D" d="M4.374,134.119c0-1.458,0.729-2.188,1.458-2.188c3.646,3.646,8.019,6.561,13.12,8.748
	c-0.729,0-1.458,0.729-2.187,2.187C11.663,140.68,7.29,137.764,4.374,134.119L4.374,134.119z"/>
<path fill="#24211D" d="M15.307,112.252c-2.188,0-5.104,0-7.289,0.729c-1.458,0.729-2.188,2.188-3.646,3.646
	c0.729-1.457,0-2.187-0.729-2.915c0.729-1.458,1.458-2.188,2.915-2.916c2.916-1.458,5.103-1.458,8.019-1.458L15.307,112.252z"/>
<path fill="#24211D" d="M41.548,143.595c0-4.372,5.831-20.409,2.188-20.409c-4.373,0.729-7.289,10.935-15.307,9.477
	c1.456,0.729,3.645,1.458,5.83,1.458c-0.729,1.458-0.729,4.373-0.729,5.103l2.188-3.645l0,0c0,0.729,0,1.458,0,1.458
	s0.729-1.458,1.457-1.458c0,1.458-1.457,2.188-1.457,3.645c0.729-0.729,1.457-2.187,2.188-2.916
	c-0.729,1.459-0.729,2.188-1.458,3.646c0.729,0,2.187-2.187,2.187-2.187c0.729,0,0.729-0.729,1.458,0
	C40.819,139.223,41.548,141.408,41.548,143.595L41.548,143.595z"/>
<path fill="#C2C0BE" d="M41.548,142.137c-0.729-5.102,5.104-18.951,2.188-18.951c-4.373,0.729-7.289,10.935-14.578,9.477
	c2.188,0.729,3.646,0.729,5.103,0.729c0,1.457-0.729,4.373-0.729,5.103c0.729,0,2.188-3.646,2.188-3.646s0,0,0,0.729v0.729
	c0.729,0,0.729-0.729,1.456-0.729l0,0c0,0.729-0.729,2.187-0.729,2.187s1.458-1.457,1.458-2.187c0,0.729,0,0.729,0,0.729
	l-0.729,2.916l1.458-1.459c0.729,0,0.729-0.729,1.458-0.729C40.819,138.492,40.819,140.68,41.548,142.137L41.548,142.137z"/>
<path fill="#24211D" d="M37.904,136.307c0,0,5.103-5.832,5.103-11.662C43.735,127.559,40.09,134.119,37.904,136.307L37.904,136.307z
	"/>
<path fill="#24211D" d="M37.174,135.577c0,0,3.646-5.831,5.832-10.935C41.548,128.288,39.362,132.661,37.174,135.577L37.174,135.577
	z"/>
<path fill="#24211D" d="M35.717,134.848c0,0,2.188-6.56,7.289-10.203C40.09,126.102,36.446,131.934,35.717,134.848L35.717,134.848z"
	/>
<path fill="#24211D" d="M34.988,134.848c-0.729,0,2.187-6.56,8.019-10.203C40.09,125.372,35.717,131.934,34.988,134.848
	L34.988,134.848z"/>
</svg>
