<?xml version="1.0" encoding="utf-8"?>
<!-- Generator: Adobe Illustrator 13.0.0, SVG Export Plug-In . SVG Version: 6.00 Build 14948)  -->
<svg version="1.2" baseProfile="tiny" id="Layer_1" xmlns="http://www.w3.org/2000/svg" xmlns:xlink="http://www.w3.org/1999/xlink"
	 x="0px" y="0px" width="197.535px" height="140.031px" viewBox="0 0 197.535 140.031" xml:space="preserve">
<path fill-rule="evenodd" fill="#F28021" d="M47.379,59.771c0,0-11.663,4.374-13.85,5.103c-2.916,0.729-2.916,0.729-2.916,0.729
	s-8.747-0.729-13.12-2.915C13.85,60.5,8.747,53.939,9.476,51.753c0-1.458-2.916-5.103,2.187-15.308
	c1.458-3.645,10.205-16.036,2.916-19.681c-4.373-2.187-5.102-2.187-5.102-2.187s-1.458,0-2.187-0.729
	C6.561,13.12,1.458,13.12,1.458,8.747c0.729-4.373,6.56-7.289,8.018-7.289c7.289,0.729,20.409,5.103,19.681,18.223
	c0,4.373-0.729,13.12-3.645,14.578c-2.916,2.187-4.374,5.103-6.561,9.476c-3.645,8.019,5.832,12.392,13.121,12.392
	c1.458,0,10.933-2.915,12.391-0.729S47.379,59.771,47.379,59.771L47.379,59.771z"/>
<path fill="#4D2C2A" d="M48.108,61.229c0,0-11.662,4.373-14.578,5.103l-0.729-2.916c2.916,0,14.578-5.103,14.578-5.103
	L48.108,61.229z M33.53,66.331l-2.916,0.729v-2.915l2.187-0.729L33.53,66.331z M30.614,67.06L30.614,67.06L30.614,67.06v-1.458
	V67.06z M30.614,67.06c0,0-9.476-0.729-13.849-2.915l1.458-2.916c3.645,2.187,12.392,2.916,12.392,2.916V67.06z M16.765,64.145
	L16.765,64.145l1.458-2.916l0,0L16.765,64.145z M16.765,64.145L16.765,64.145l0.729-1.458L16.765,64.145z M16.765,64.145
	c-0.729-0.729-0.729-0.729-1.458-1.458l1.458-2.187c0.729,0.729,1.458,0.729,1.458,0.729L16.765,64.145z M15.307,62.687
	c-0.729-0.729-1.458-0.729-2.187-1.458l2.187-2.187c0.729,0.729,0.729,0.729,1.458,1.458L15.307,62.687z M13.121,61.229
	c-2.916-3.645-5.832-8.018-5.103-9.476l2.916,0.729c-0.729,0.729,1.458,3.645,4.374,6.561L13.121,61.229z M8.018,51.753
	c0,0,0-0.729-0.729-0.729l2.916-0.729c0,0.729,0.729,1.458,0.729,2.187L8.018,51.753z M7.289,51.023
	c0-2.915-1.458-7.289,2.916-15.307l2.187,0.729c-3.645,8.019-2.187,11.663-2.187,13.85L7.289,51.023z M12.392,36.445L12.392,36.445
	h-0.729H12.392z M10.205,35.717L10.205,35.717l2.187,0.729l0,0L10.205,35.717z M10.205,35.717L10.205,35.717l1.458,0.729
	L10.205,35.717z M10.205,35.717c0-0.729,0.729-1.458,0.729-2.187l2.916,1.457c-0.729,0.729-0.729,1.458-1.458,1.458L10.205,35.717z
	 M10.934,33.53c0.729-1.458,2.187-2.916,2.916-4.374l2.187,0.729c-0.729,2.187-1.458,3.645-2.187,5.102L10.934,33.53z M13.85,29.156
	c1.458-4.373,3.645-9.476,0-10.934l0.729-2.187c5.832,2.187,4.374,8.747,1.458,13.85L13.85,29.156z M13.85,18.223
	c-4.374-2.187-4.374-2.187-4.374-2.187l0.729-2.187c0,0,0,0,4.373,2.187L13.85,18.223z M10.205,13.12L10.205,13.12v0.729
	l-0.729,0.729L10.205,13.12z M9.476,16.036c0,0-2.187,0-2.916-0.729l1.458-2.188c0.729,0,2.187,0,2.187,0L9.476,16.036z
	 M8.018,13.12L8.018,13.12L7.289,13.85L8.018,13.12z M6.561,15.308L6.561,15.308l1.458-2.188l0,0L6.561,15.308z M8.018,13.12
	L8.018,13.12L7.289,13.85L8.018,13.12z M6.561,15.308c0,0-0.729,0-0.729-0.729l0.729-2.187c0.729,0,1.458,0,1.458,0.729
	L6.561,15.308z M5.832,14.578C3.645,14.578,0,13.12,0,8.747h2.916c0,2.187,2.187,2.916,3.645,3.645L5.832,14.578z M0,8.747L0,8.747
	h1.458H0z M0,8.747L0,8.747h2.916l0,0H0z M0,8.747L0,8.747h1.458H0z M0,8.747c0.729-0.729,0.729-1.458,0.729-2.187l2.916,0.729
	c0,0.729-0.729,0.729-0.729,1.458H0z M0.729,6.561c0.729-0.729,0.729-1.458,1.458-2.187l2.187,1.457
	C3.645,6.561,3.645,7.289,3.645,7.289L0.729,6.561z M2.187,4.374C4.374,1.458,8.018,0,9.476,0L8.747,2.916
	c-0.729,0-2.916,1.458-4.374,2.915L2.187,4.374z M9.476,0L9.476,0v1.458V0z M9.476,0L9.476,0L8.747,2.916l0,0L9.476,0z M8.747,2.916
	L8.747,2.916l0.729-1.458L8.747,2.916z M9.476,0c0.729,0.729,2.187,0.729,3.645,0.729l-0.729,2.915
	c-1.458,0-2.187-0.729-3.645-0.729L9.476,0z M13.121,0.729c0.729,0.729,2.187,0.729,3.645,1.457l-0.729,2.188
	c-1.458,0-2.187-0.729-3.645-0.729L13.121,0.729z M16.765,2.187c7.289,2.188,14.578,7.289,13.849,17.494h-2.916
	c0.729-8.747-5.832-13.12-11.663-15.307L16.765,2.187z M30.614,19.681L30.614,19.681h-2.916l0,0H30.614z M30.614,19.681
	L30.614,19.681h-1.458H30.614z M30.614,19.681c0,0.729,0,1.458,0,2.187h-2.916c0-1.458,0-1.458,0-2.187H30.614z M30.614,21.867
	c0,0.729,0,1.458,0,2.187h-2.916c0-0.729,0-1.457,0-2.187H30.614z M30.614,24.054c-0.729,5.103-2.187,10.205-4.374,11.663
	l-1.458-2.187c1.458-0.729,2.187-5.832,2.916-9.477H30.614z M26.241,35.717c-1.458,0.729-2.187,2.187-2.916,3.645l-2.916-2.187
	c1.458-1.458,2.916-2.916,4.374-3.645L26.241,35.717z M23.325,39.361c-1.458,1.458-2.187,2.915-2.916,4.373l-2.187-0.729
	c0.729-2.187,1.458-3.645,2.187-5.831L23.325,39.361z M20.41,43.734c0,1.458-0.729,2.187-0.729,3.645h-2.916
	c0-1.458,0.729-2.915,1.458-4.373L20.41,43.734z M19.681,47.379c0,1.458,0.729,2.188,1.458,3.645l-2.187,1.458
	c-0.729-1.458-2.187-2.915-2.187-5.103H19.681z M21.139,51.023c1.458,0.729,2.187,2.188,3.645,2.188l-0.729,2.915
	c-2.187-0.729-3.645-2.187-5.103-3.645L21.139,51.023z M24.783,53.211c2.187,1.457,5.102,1.457,7.289,1.457v2.916
	c-2.916,0-5.832,0-8.018-1.458L24.783,53.211z M32.072,57.584L32.072,57.584v-1.458V57.584z M32.072,54.668L32.072,54.668v2.916l0,0
	V54.668z M32.072,57.584L32.072,57.584v-1.458V57.584z M32.072,54.668c0,0,0.729,0,2.187,0l0.729,2.188
	c-1.458,0.729-2.187,0.729-2.916,0.729V54.668z M34.259,54.668c3.645-0.729,9.476-2.187,10.934,0l-2.188,1.458
	c-0.729-0.729-5.102,0.729-8.018,0.729L34.259,54.668z M45.193,54.668c1.457,1.458,3.645,3.645,3.645,3.645L46.65,60.5
	c0,0-2.187-2.188-3.645-4.374L45.193,54.668z M48.837,58.313l1.457,1.458l-2.187,1.458l-0.729-1.458L48.837,58.313z"/>
<path fill-rule="evenodd" fill="#24211D" d="M41.548,61.957c-1.458,0.729-2.188,0.729-2.916,1.458c-0.729,0-0.729-0.729-0.729-0.729
	c-0.729-2.187-2.187-7.289,1.458-5.831C42.277,58.313,41.548,61.229,41.548,61.957L41.548,61.957z M30.614,65.602L30.614,65.602
	c0,0-1.458,0-3.645-0.729c0.729-2.187,2.187-6.561,2.916-5.831c1.458,0.729,3.645,1.458,2.187,3.645
	C31.343,64.145,31.343,64.873,30.614,65.602L30.614,65.602z M21.139,64.145c-1.458-0.729-2.187-0.729-3.645-1.458
	c0,0-0.729,0-0.729-0.729c0.729-1.457,2.187-3.645,2.916-3.645c0.729-0.729,4.374-2.915,2.916,1.458
	C22.596,61.957,21.867,63.415,21.139,64.145L21.139,64.145z M10.205,54.668c-0.729-1.457-0.729-2.187-0.729-2.915l0,0
	c2.187-0.729,5.102,0,5.831,0c1.458,0.729,0,2.187-2.187,2.915C12.392,54.668,10.934,54.668,10.205,54.668L10.205,54.668z
	 M8.747,45.921c0-1.457,0-2.187,0.729-4.373c2.187,0,4.374,1.458,5.831,2.187c0.729,0.729-0.729,1.458-2.916,2.187
	C11.663,46.65,10.205,45.921,8.747,45.921L8.747,45.921z M10.934,36.445c0,0,0,0,0.729,0c0-1.458,1.458-2.915,2.187-5.103
	c0.729,1.458,2.187,2.188,4.373,2.188c4.374,2.915,0,5.831-6.56,3.645C11.663,37.175,11.663,37.175,10.934,36.445L10.934,36.445z
	 M15.307,28.428c0.729-1.458,1.458-2.916,1.458-4.374c2.916,0.729,5.102,0.729,5.831,0c2.187-1.457,3.645,2.916-2.187,5.103
	C18.223,29.886,16.765,29.156,15.307,28.428L15.307,28.428z M16.765,21.139c0-0.729,0-2.187-0.729-2.916
	c2.187-1.458,5.831-1.458,7.289-1.458s-0.729,2.916-1.458,4.374C21.139,21.867,18.952,21.867,16.765,21.139L16.765,21.139z
	 M12.392,16.036c-2.187-1.458-2.916-1.458-2.916-1.458s0,0-0.729,0c2.187-2.187,5.103-4.373,5.831-5.103
	c1.458-0.729,1.458,1.458,0.729,3.645C15.307,13.85,13.85,14.578,12.392,16.036L12.392,16.036z"/>
<path fill-rule="evenodd" fill="#24211D" d="M5.103,13.12c-2.187-0.729-3.645-1.457-3.645-4.373
	c0.729-4.373,5.103-6.561,7.289-7.289c0.729,1.458,1.458,3.645,0,7.289C7.289,10.934,5.832,12.392,5.103,13.12L5.103,13.12z"/>
<path fill-rule="evenodd" fill="#4D2C2A" d="M129.017,61.229c0,0-7.289,0-9.476-2.187c-2.916-1.458-5.832-4.374-9.477-8.019
	s-6.56-8.018-14.578-11.662c-8.018-3.645-13.12-4.374-24.054-3.645c-10.205,0.729-16.036,4.373-16.765,5.831
	c-0.729,1.458-5.831,2.187-10.205,13.12c-4.373,10.934-2.187,20.41-1.458,21.867c0.729,1.458,0.729,4.374,2.188,5.832
	c0.729,2.187-1.458,6.56-1.458,9.476c0,2.187-0.729,3.645,1.458,8.018c2.187,3.645,3.645,8.747,4.373,11.663
	c0,2.915-2.187,4.373,0,6.56c1.458,1.458,3.645,4.374,5.103,4.374c2.187,0,2.187,8.018,8.747,5.831c0,0,4.373-2.916,3.645-5.103
	c-1.458-2.187,0-3.645-5.103-4.373c-5.103-0.729,3.645,1.458,3.645,1.458s0.729,3.645,1.458,5.102
	c0.729,0.729,2.187,1.458,2.187,1.458c2.187,0,4.373-2.187,4.373-2.915c0-1.458,5.103,1.457,5.103-3.645
	c-0.729-5.832-1.458-4.374-5.103-7.289c-3.645-3.645-6.56-1.458-8.746-7.289c-2.916-5.832-0.729-8.019-0.729-8.019
	s1.458-3.645,2.916-3.645c1.458,0.729,5.103,10.205,5.103,12.392c0,1.458,2.915,2.916,4.373,4.373
	c1.458,2.188,2.916,6.561,4.373,6.561c1.458,0,5.103-1.458,5.103-2.916c0-0.729,2.916,0.729,4.374-0.729
	c1.457-1.458,2.187-1.458,0.729-3.645c1.458,0.729,3.645,0,4.373-2.187c0.729-1.458,0.729-2.187-0.729-2.916
	c-1.458-0.729,8.747,3.645,8.747,2.187c0-0.729,2.187,11.663,5.103,14.578c2.187,2.188,4.373,5.103,11.662,5.832
	c0,2.187,0.729,6.56,1.458,7.289c2.187,5.102,6.561,4.373,9.476,4.373c2.916,0,5.831-2.916,5.831-2.916s5.103,1.458,10.205-3.645
	c-2.187-1.457,0.729,2.188,2.916-3.645c2.187-5.831-8.747-7.289-8.747-7.289s-4.374,0-7.289-3.645
	c-2.916-4.373-1.458-1.457,0.729-0.729c2.916,0,8.019,0,9.476-0.729c3.645-1.458,2.916,8.018,4.374,8.018s2.915,3.645,5.103,5.831
	c2.187,2.187,10.204,2.916,10.204,0c0.729,1.458,5.103,2.916,7.289-1.458c0,1.458,1.458,1.458,2.188,1.458
	c2.915-0.729,5.102-3.645,2.187-7.289c-4.374-5.831-8.747-4.373-8.747-4.373c0.729-2.187-2.187-2.187-3.645-0.729
	c-1.458,1.458,0.729-8.746,0.729-8.746s-5.831,0.729-8.747,0.729c-2.915-0.729-8.018-0.729-16.765-4.373
	c-8.747-4.374-14.578-5.832-16.036-12.392c-1.458-6.561-1.458-6.561-1.458-6.561s-2.915-6.561,2.188-10.205
	C129.017,72.891,129.017,61.229,129.017,61.229L129.017,61.229z"/>
<path fill="#472725" d="M180.041,71.434L180.041,71.434c0-0.729,2.187-1.458,3.645-2.916c2.187-1.458,4.374-3.645,4.374-7.289
	c0.729-2.187,0.729-3.645,0-5.831l0,0l0,0c0,0,0-2.187-1.458-4.374c-1.458-2.187-3.645-5.103-8.019-5.831h-0.729
	c-2.916-0.729-5.831-0.729-8.019,0.729l0,0l0,0c-0.729,0-2.187,0.729-3.645,2.188c-1.457,1.458-2.915,2.915-3.645,6.56
	c0,0.729,0,2.188,0,3.645c0,0.729,0,0.729,0,0.729c-0.729,0-0.729,0-0.729,0c0-2.187,0-3.645,0-4.374
	c0.729-3.645,2.187-6.56,4.373-8.018c1.458-1.458,2.916-1.458,2.916-1.458l0,0l0,0c2.916-1.458,5.831-1.458,8.747-1.458
	c0.729,0,0.729,0,1.458,0.729c4.373,0.729,7.289,3.645,8.747,6.56c0.729,2.188,1.457,4.374,1.457,4.374h-0.729h0.729
	c0,2.187,0,3.645,0,5.831c-0.729,4.373-2.915,6.561-5.102,8.747c-2.188,1.458-4.374,2.187-4.374,2.187h-0.729
	C179.312,71.434,179.312,71.434,180.041,71.434L180.041,71.434z"/>
<path fill="#472725" d="M185.143,47.379c0,0.729,0.729,0.729,0.729,0.729h-0.729h0.729c1.458,1.458,2.916,3.645,2.916,5.103l0,0l0,0
	c0.729,1.457,0.729,2.187,0.729,2.187l0,0c0,2.187,0,3.645,0,5.831c-0.729,4.373-2.915,6.561-5.102,8.747c-0.729,0-0.729,0-0.729,0
	s-0.729,0-0.729-0.729c0.729,0,0.729,0,0.729-0.729c2.187-1.458,4.374-3.645,4.374-7.289c0.729-2.187,0.729-3.645,0-5.831l0,0l0,0
	c0,0,0,0,0-0.729c0-0.729-0.729-2.187-1.458-3.645c0-0.729-0.729-1.457-1.458-2.187v-0.729c-0.729,0,0,0,0,0
	C185.143,47.379,185.143,47.379,185.143,47.379L185.143,47.379z"/>
<path fill="#EEA643" d="M180.041,71.434c0,0,10.934-3.645,8.747-16.036c0,0-0.729-8.019-9.476-10.934
	c-2.916-0.729-6.561-0.729-10.205,0.729c0,0-8.018,3.645-6.561,13.12L180.041,71.434z"/>
<path fill="#B17B40" d="M186.601,51.023c0.729,1.458,1.458,2.916,1.458,3.645c0,0.729,0,0.729,0,0.729l0,0l0,0
	c0.729,2.187,0.729,3.645,0,5.831c0,3.645-2.188,5.831-4.374,7.289c0,0.729,0,0.729-0.729,0.729l-0.729-0.729
	c3.645-3.645,5.103-6.561,5.832-9.476C188.059,56.855,188.059,53.939,186.601,51.023L186.601,51.023z"/>
<path fill="#472725" d="M188.059,54.668c0,0.729,0,0.729,0,0.729l0,0l0,0c0.729,2.187,0.729,3.645,0,5.831
	c0.729-2.187,0.729-3.645,0-5.831l0,0l0,0C188.059,55.397,188.059,55.397,188.059,54.668L188.059,54.668z"/>
<path fill="#B17B40" d="M185.143,48.837c0.729,0.729,1.458,1.458,1.458,2.187c0.729,1.458,1.458,2.916,1.458,3.645
	c0-0.729-0.729-2.187-1.458-3.645c1.458,2.916,1.458,5.832,1.458,8.019c-0.729,2.915-2.188,5.831-5.832,9.476
	c0-0.729-0.729-0.729-0.729-0.729c3.645-3.645,5.103-5.832,5.831-8.747C187.33,55.397,186.601,52.481,185.143,48.837L185.143,48.837
	z"/>
<path fill="#24211D" d="M175.667,65.602c0,0,15.307-5.102,2.187-14.578c0,0-5.831-3.645-6.561,10.205L175.667,65.602z"/>
<path fill="#472725" d="M175.667,65.602L175.667,65.602L175.667,65.602c0.729-0.729,2.187-1.457,3.645-2.187
	c0.729-0.729,1.458-1.458,2.187-2.187s0.729-1.458,0.729-2.187c0.729-0.729,0-2.187-0.729-2.916
	c-0.729-1.458-2.187-2.915-4.373-4.373l0.729-0.729l-0.729,0.729h0.729h-0.729l0,0h0.729h-0.729c0,0,0,0-0.729-0.729
	c-0.729,0-1.458,0-2.187,1.458c-0.729,0.729-2.187,2.187-2.187,5.831c0,0.729-0.729,2.188-0.729,2.916l0,0l0,0l5.103,4.373H175.667
	L175.667,65.602L175.667,65.602v0.729l-5.103-4.374c0,0,0,0,0-0.729s0-2.187,0-2.916c0.729-3.645,1.458-5.831,2.916-6.56
	c0.729-1.458,2.187-1.458,2.915-1.458c0.729,0,1.458,0.729,1.458,0.729l0,0c2.187,1.458,3.645,2.916,5.103,4.374
	c0.729,1.458,0.729,2.915,0.729,3.645c0,1.458-0.729,2.187-1.458,3.645c-2.187,2.187-5.831,3.645-6.56,3.645l0,0V65.602z"/>
<path fill-rule="evenodd" fill="#F28021" d="M126.831,61.957c0,0-6.561-0.729-9.477-2.187c-2.187-1.458-5.102-4.373-8.746-8.018
	c-2.916-3.645-6.561-8.019-13.85-11.663c-8.018-2.915-13.12-4.373-22.596-3.645c-10.205,1.458-16.036,4.374-16.766,5.831
	c-0.729,1.458-5.831,2.188-10.204,13.121c-4.374,10.934-1.458,20.409-0.729,21.867c0.729,1.458,0,3.645,1.458,5.831
	c1.458,1.458-0.729,5.831-0.729,8.747c-0.729,2.915-0.729,3.645,1.457,8.018c1.458,3.645,3.645,9.477,3.645,11.663
	c0,2.915-1.457,4.373,0,5.831c1.458,2.187,4.374,4.373,5.103,4.373c1.458,0,2.187,8.019,8.019,5.103c0,0,3.645-1.458,3.645-4.373
	c-2.187,2.915,5.831,5.831,5.831,0.729c0.729-1.458,5.103,1.458,4.373-3.645c-0.729-5.831-0.729-3.645-3.645-6.56
	c-3.645-3.645-6.56-1.458-8.746-7.289c-2.188-5.832,0-8.019,0-8.019s1.457-3.645,2.915-2.916c1.458,0,5.103,9.477,5.103,10.935
	c0,1.457,2.916,3.645,4.373,5.831c1.458,1.458,2.916,4.373,4.374,4.373s4.373-1.458,4.373-2.915c1.458,2.187,7.289,0,5.103-3.645
	c3.645,2.187,5.831-3.645,2.916-4.374c-1.458-0.729,9.476,2.916,9.476,2.187c0-1.457,3.645,11.663,5.831,14.578
	c2.916,2.916,7.289,3.645,11.662,5.103c0.729,9.476,3.645,9.476,5.832,10.934c2.915,1.458,8.018,0,9.476-2.187
	c0.729-2.187,1.458-5.103-1.458-5.103c2.916,0,2.916,1.458,2.916,4.374c0,1.457,4.373,0.729,6.56-0.729
	c2.188-1.458,0.729-5.831-0.729-5.831c0-0.729,2.187,2.187,2.916,3.645c0,0.729,2.187,0,2.915-2.916
	c0-5.831-9.476-8.746-10.204-8.018c0,0-3.645,0-6.561-3.645s-1.458-2.187,0.729-1.458c2.188,0,8.747,0.729,10.205,0
	c3.645-2.187,4.373,6.561,5.831,7.289c0.729,0,3.645,6.561,6.561,7.289c2.187,0.729,8.747,2.187,8.018-0.729
	c0.729,2.187,6.561,2.187,7.289-2.187c0,1.457,0.729,2.187,1.458,1.457c2.916,0,4.374-1.457,1.458-5.102
	c-3.645-5.103-6.561-3.645-6.561-3.645s-3.645-0.729-4.373-3.645c-0.729-3.645-2.187-7.289-2.187-7.289s-5.832,0.729-8.747,0.729
	c-2.916-0.729-8.019,0-16.765-4.373c-8.019-4.374-13.85-5.832-15.308-12.392c-0.729-6.561-0.729-6.561-0.729-6.561
	s-3.645-6.561,2.187-9.476C126.831,73.62,126.831,61.957,126.831,61.957L126.831,61.957z"/>
<path fill-rule="evenodd" fill="#24211D" d="M67.06,94.758c-2.187,2.188,3.645-5.831,7.289-9.476
	c3.645-2.915,4.373-12.392,4.373-12.392l0.729-2.915c0,0-2.188,11.662-5.103,15.307C70.705,88.198,64.874,96.945,67.06,94.758
	L67.06,94.758z"/>
<path fill="none" stroke="#24211D" stroke-width="0" stroke-linecap="square" stroke-miterlimit="10" d="M163.276,116.626
	c0,0-4.374,0.729-2.187,2.187"/>
<path fill-rule="evenodd" fill="#24211D" d="M76.536,81.638c4.373-1.458,8.747-7.289,8.747-7.289c0.729,0-3.645,6.561-8.019,8.019
	C76.536,82.367,77.264,81.638,76.536,81.638L76.536,81.638z"/>
<path fill-rule="evenodd" fill="#24211D" d="M76.536,82.367v-0.729c4.373,2.187,8.747-2.915,8.747-2.187
	C85.283,79.451,80.909,84.554,76.536,82.367L76.536,82.367z"/>
<path fill="none" stroke="#24211D" stroke-width="0" stroke-linecap="square" stroke-miterlimit="10" d="M76.536,82.367v-0.729
	c4.373,2.187,8.747-2.915,8.747-2.187C85.283,79.451,80.909,84.554,76.536,82.367L76.536,82.367z"/>
<path fill-rule="evenodd" fill="#24211D" d="M45.193,91.843c0,0,4.373-0.729,5.102,2.187c1.458,2.187,3.645,2.916,6.561,3.645
	c3.645,1.458,1.458,3.645,1.458,3.645s-11.663,0-12.392-2.916C45.193,96.216,45.193,91.843,45.193,91.843L45.193,91.843z"/>
<path fill="none" stroke="#24211D" stroke-width="0" stroke-linecap="square" stroke-miterlimit="10" d="M45.193,91.843
	c0,0,4.373-0.729,5.102,2.187c1.458,2.187,3.645,2.916,6.561,3.645c3.645,1.458,1.458,3.645,1.458,3.645s-11.663,0-12.392-2.916
	C45.193,96.216,45.193,91.843,45.193,91.843L45.193,91.843z"/>
<path fill-rule="evenodd" fill="#24211D" d="M43.005,73.62c0,0,3.645,1.458,6.561,4.373c2.187,3.645,7.289,3.645,7.289,3.645
	s2.187,1.458-0.729,2.916c-2.916,0.729-10.205-1.458-10.205-1.458L43.005,73.62z"/>
<path fill="none" stroke="#24211D" stroke-width="0" stroke-linecap="square" stroke-miterlimit="10" d="M43.005,73.62
	c0,0,3.645,1.458,6.561,4.373c2.187,3.645,7.289,3.645,7.289,3.645s2.187,1.458-0.729,2.916c-2.916,0.729-10.205-1.458-10.205-1.458
	L43.005,73.62z"/>
<path fill-rule="evenodd" fill="#24211D" d="M53.939,43.006c0,0,5.103,0,3.645,5.831c-0.729,5.831-2.915,10.205-0.729,14.578
	c1.458,3.645,2.187,4.374,3.645,5.831c1.458,1.458,0,7.289-3.645,2.916c-4.373-5.103-8.018-9.476-8.747-14.578
	c0-5.103,0-5.103,0-5.103s-1.458,0,0-2.187S53.939,43.006,53.939,43.006L53.939,43.006z"/>
<path fill="none" stroke="#24211D" stroke-width="0" stroke-linecap="square" stroke-miterlimit="10" d="M53.939,43.006
	c0,0,5.103,0,3.645,5.831c-0.729,5.831-2.915,10.205-0.729,14.578c1.458,3.645,2.187,4.374,3.645,5.831
	c1.458,1.458,0,7.289-3.645,2.916c-4.373-5.103-8.018-9.476-8.747-14.578c0-5.103,0-5.103,0-5.103s-1.458,0,0-2.187
	S53.939,43.006,53.939,43.006L53.939,43.006z"/>
<path fill-rule="evenodd" fill="#24211D" d="M74.349,36.445c0,0,0,17.494,0,20.41c-0.729,3.645,2.915,8.746,2.915,8.746
	s1.458,5.832-4.373,2.188c-5.831-4.374-7.289-29.886-7.289-29.886L74.349,36.445z"/>
<path fill="none" stroke="#24211D" stroke-width="0" stroke-linecap="square" stroke-miterlimit="10" d="M74.349,36.445
	c0,0,0,17.494,0,20.41c-0.729,3.645,2.915,8.746,2.915,8.746s1.458,5.832-4.373,2.188c-5.831-4.374-7.289-29.886-7.289-29.886
	L74.349,36.445z"/>
<path fill-rule="evenodd" fill="#24211D" d="M86.741,37.175c0,0-5.103,22.596-2.188,24.782c2.188,2.916,2.916,3.645,4.374,0.729
	c0-1.458,2.915-24.055,6.56-21.867C97.674,42.276,86.741,37.175,86.741,37.175L86.741,37.175z"/>
<path fill="none" stroke="#24211D" stroke-width="0" stroke-linecap="square" stroke-miterlimit="10" d="M86.741,37.175
	c0,0-5.103,22.596-2.188,24.782c2.188,2.916,2.916,3.645,4.374,0.729c0-1.458,2.915-24.055,6.56-21.867
	C97.674,42.276,86.741,37.175,86.741,37.175L86.741,37.175z"/>
<path fill-rule="evenodd" fill="#24211D" d="M107.15,49.566c0,0-6.561-0.729-6.561,7.289c0,8.018,0.729,18.951,0,19.68
	c-1.458,1.458,0.729,8.747,2.916,2.916c1.458-6.561,2.915-13.85,2.187-16.036s6.561-8.018,6.561-8.018L107.15,49.566z"/>
<path fill="none" stroke="#24211D" stroke-width="0" stroke-linecap="square" stroke-miterlimit="10" d="M107.15,49.566
	c0,0-6.561-0.729-6.561,7.289c0,8.018,0.729,18.951,0,19.68c-1.458,1.458,0.729,8.747,2.916,2.916
	c1.458-6.561,2.915-13.85,2.187-16.036s6.561-8.018,6.561-8.018L107.15,49.566z"/>
<path fill-rule="evenodd" fill="#24211D" d="M123.915,61.229c0,0-1.458,10.205-4.373,13.12c-2.916,2.187-9.477,14.578-12.392,13.12
	c-2.187-1.457,1.458-3.645,1.458-3.645s8.018-10.934,8.018-13.849c0.729-3.645,0-9.476,2.916-9.476
	C121.728,61.229,123.915,61.229,123.915,61.229L123.915,61.229z"/>
<path fill="none" stroke="#24211D" stroke-width="0" stroke-linecap="square" stroke-miterlimit="10" d="M123.915,61.229
	c0,0-1.458,10.205-4.373,13.12c-2.916,2.187-9.477,14.578-12.392,13.12c-2.187-1.457,1.458-3.645,1.458-3.645
	s8.018-10.934,8.018-13.849c0.729-3.645,0-9.476,2.916-9.476C121.728,61.229,123.915,61.229,123.915,61.229L123.915,61.229z"/>
<path fill-rule="evenodd" fill="#24211D" d="M49.566,107.879l3.645,1.458c0,0,4.373,1.457,0.729,3.645
	c-4.373,1.457-3.645-0.729-3.645-0.729L49.566,107.879z"/>
<path fill="none" stroke="#24211D" stroke-width="0" stroke-linecap="square" stroke-miterlimit="10" d="M49.566,107.879
	l3.645,1.458c0,0,4.373,1.457,0.729,3.645c-4.373,1.457-3.645-0.729-3.645-0.729L49.566,107.879z"/>
<path fill-rule="evenodd" fill="#24211D" d="M69.975,96.945h5.103c0,0,5.103,2.187,0.729,3.645c-3.645,1.457-4.374,0-4.374,0
	L69.975,96.945z"/>
<path fill="none" stroke="#24211D" stroke-width="0" stroke-linecap="square" stroke-miterlimit="10" d="M69.975,96.945h5.103
	c0,0,5.103,2.187,0.729,3.645c-3.645,1.457-4.374,0-4.374,0L69.975,96.945z"/>
<path fill-rule="evenodd" fill="#24211D" d="M104.234,96.945c0,0,5.103,2.187,6.561,2.187c0.729,0,5.831,2.187,0.729,2.915
	c-5.831,0.729-7.289-1.457-7.289-1.457V96.945z"/>
<path fill="none" stroke="#24211D" stroke-width="0" stroke-linecap="square" stroke-miterlimit="10" d="M104.234,96.945
	c0,0,5.103,2.187,6.561,2.187c0.729,0,5.831,2.187,0.729,2.915c-5.831,0.729-7.289-1.457-7.289-1.457V96.945z"/>
<path fill-rule="evenodd" fill="#24211D" d="M104.963,104.234l-0.729-1.458c0,0,5.103,2.916,6.561,3.645
	c1.458,0,7.289,2.187,1.458,2.916c-6.561,1.457-6.561-1.458-6.561-1.458S104.963,104.963,104.963,104.234L104.963,104.234z"/>
<path fill="none" stroke="#24211D" stroke-width="0" stroke-linecap="square" stroke-miterlimit="10" d="M104.963,104.234
	l-0.729-1.458c0,0,5.103,2.916,6.561,3.645c1.458,0,7.289,2.187,1.458,2.916c-6.561,1.457-6.561-1.458-6.561-1.458
	S104.963,104.963,104.963,104.234L104.963,104.234z"/>
<path fill-rule="evenodd" fill="#24211D" d="M107.15,117.354l8.018,2.187c0,0,6.561,0,2.187,2.187c-5.102,2.916-8.018,0-8.018,0
	L107.15,117.354z"/>
<path fill="none" stroke="#24211D" stroke-width="0" stroke-linecap="square" stroke-miterlimit="10" d="M107.15,117.354
	l8.018,2.187c0,0,6.561,0,2.187,2.187c-5.102,2.916-8.018,0-8.018,0L107.15,117.354z"/>
<path fill-rule="evenodd" fill="#24211D" d="M145.782,115.168c0,0,1.458-0.729,5.103,0.729c3.645,0.729,5.103,1.458,0.729,2.916
	c-3.645,1.458-5.102-1.458-5.102-1.458L145.782,115.168z"/>
<path fill="none" stroke="#24211D" stroke-width="0" stroke-linecap="square" stroke-miterlimit="10" d="M145.782,115.168
	c0,0,1.458-0.729,5.103,0.729c3.645,0.729,5.103,1.458,0.729,2.916c-3.645,1.458-5.102-1.458-5.102-1.458L145.782,115.168z"/>
<path fill="none" stroke="#24211D" stroke-width="0" stroke-linecap="square" stroke-miterlimit="10" d="M123.915,78.723
	c0,0,2.187,2.915,3.645,3.645c1.458,0.729,3.645,1.457,3.645,1.457s2.916,2.916-0.729,2.188c-3.645,0-8.019-3.645-8.019-3.645
	L123.915,78.723z"/>
<path fill="#F28021" d="M154.529,53.939c0,0,30.614,1.458,34.987,34.259c0,0,0.729,4.373,4.374,4.373c0,0-1.458,2.916-3.645,2.916
	c0,0,2.915,0,5.103,4.373c0,0-3.645-1.458-5.832,0.729c0,0,4.374,0.729,5.103,3.645c0,0-8.747-0.729-10.204,5.103
	c0,0-32.802,18.223-64.873-2.916c0,0-5.103-3.645-8.019-2.187c0,0,0-2.916,2.916-4.374c0,0-2.916-1.458-5.103-0.729
	c0,0,1.458-2.916,3.645-3.645c0,0-3.645,0.729-5.831-2.187c0,0,3.645,0.729,5.103-1.458
	C112.252,91.843,115.897,53.939,154.529,53.939L154.529,53.939z"/>
<path fill="none" stroke="#FFFFFF" stroke-width="0" stroke-linecap="square" stroke-miterlimit="10" d="M154.529,53.939
	c0,0,30.614,1.458,34.987,34.259c0,0,0.729,4.373,4.374,4.373c0,0-1.458,2.916-3.645,2.916c0,0,2.915,0,5.103,4.373
	c0,0-3.645-1.458-5.832,0.729c0,0,4.374,0.729,5.103,3.645c0,0-8.747-0.729-10.204,5.103c0,0-32.802,18.223-64.873-2.916
	c0,0-5.103-3.645-8.019-2.187c0,0,0-2.916,2.916-4.374c0,0-2.916-1.458-5.103-0.729c0,0,1.458-2.916,3.645-3.645
	c0,0-3.645,0.729-5.831-2.187c0,0,3.645,0.729,5.103-1.458C112.252,91.843,115.897,53.939,154.529,53.939L154.529,53.939z"/>
<path fill="#472725" d="M106.42,54.668L106.42,54.668L106.42,54.668z"/>
<path fill="#472725" d="M154.529,53.939L154.529,53.939c0,0,0.729,0,2.916,0c3.645,0.729,10.934,2.187,17.493,7.289
	c6.561,5.103,13.121,13.12,14.578,26.97l0,0l0,0l0,0c0,0,0.729,0.729,1.458,2.187c0,0.729,1.458,1.458,2.187,2.187
	c0.729,0,0.729,0,0.729,0h0.729v0.729c0,0-0.729,0.729-1.458,1.457c-0.729,0-1.457,0.729-2.915,0.729l0,0v-0.729
	c0,0,0.729,0,2.187,0.729c0.729,0.729,2.187,2.187,3.645,3.645c0,0.729,0,0.729-0.729,0.729c0,0,0,0.729,0,0l0,0
	c-0.729,0-0.729,0-1.458,0c-0.729,0-1.458,0-2.187,0c-0.729,0-1.458,0.729-1.458,0.729h-0.729V99.86c0,0,1.458,0,2.188,0.729
	c1.457,0.729,2.915,2.187,3.645,3.645c0,0,0,0.729-0.729,0.729l0,0l0,0c-0.729,0-2.915,0-5.103,0
	c-0.729,0.729-2.187,0.729-2.915,1.458c-0.729,0.729-1.458,1.458-1.458,2.916h-0.729c0,0-17.494,10.204-40.091,7.289
	c-8.018-1.458-16.765-4.374-25.512-10.205l0,0l0,0c-0.729,0-2.915-2.187-5.103-2.187c-0.729,0-1.457,0-2.187,0c0,0.729,0,0.729,0,0
	c-0.729,0-0.729,0-0.729,0s0,0,0-0.729c0.729-0.729,0.729-2.915,2.915-4.373l0.729,0.729l-0.729,0.729
	c0-0.729-0.729-0.729-2.187-1.458c-0.729,0-1.458,0-2.187,0.729l0,0c-0.729-0.729-0.729-0.729-0.729-0.729s0.729-0.729,1.457-2.187
	c0.729-0.729,1.458-1.458,2.916-2.188v0.729v0.729c0,0-0.729,0-2.187-0.729c-0.729,0-2.916-0.729-4.374-2.187v-0.729
	c0.729,0,0.729,0,0.729,0l0,0h0.729c0.729,0,1.458,0,2.187,0c0.729,0,1.458-0.729,1.458-1.458l0.729,0.729h-0.729v-0.729
	c0.729-2.915,2.187-12.391,8.747-21.138C126.101,61.229,137.035,53.211,154.529,53.939L154.529,53.939L154.529,53.939v0.729
	c-17.494,0-27.698,7.289-33.53,16.036c-5.831,8.747-8.018,17.494-8.018,20.409v0.729l0,0l0,0c-0.729,1.458-2.187,1.458-2.916,1.458
	c-0.729,0.729-1.457,0.729-2.187,0.729c-0.729-0.729-0.729-0.729-0.729-0.729l0,0l0.729-0.729c0.729,1.458,2.187,2.187,3.645,2.187
	h0.729c0.729,0,0.729,0,0.729,0l0,0l0,0c0.729,0,0.729,0,0.729,0.729c0,0,0,0-0.729,0.729c-0.729,0-1.458,0.729-2.187,1.458
	c-0.729,0.729-0.729,0.729-0.729,1.458l0,0l0,0l0,0h-0.729v-0.729c0.729,0,1.458,0,2.187,0c2.187,0,2.916,0.729,2.916,0.729
	c0,0.729,0,0.729,0,0.729s0,0,0,0.729c-2.187,0.729-2.187,2.915-2.187,3.645l0,0l0,0l0,0h-0.729v-0.729c0.729,0,1.458-0.729,2.916,0
	c0.729,0,2.187,0.729,3.645,1.458c0.729,0,1.458,0.729,1.458,0.729v0.729v-0.729c8.747,5.831,16.765,8.746,24.782,9.476
	c10.934,2.187,21.139,0,28.428-2.187c3.645-0.729,6.561-2.188,8.019-2.916c1.457-0.729,2.187-0.729,2.187-0.729
	c0.729-0.729,0.729-0.729,0.729-0.729h0.729v0.729l-0.729-0.729c0.729-1.458,1.458-2.187,2.916-2.915
	c1.458-1.458,3.645-1.458,5.103-1.458c1.457,0,2.915,0,2.915,0l0,0l-0.729,0.729c0-1.458-1.458-2.916-2.187-3.645
	c-0.729,0-1.458,0-1.458,0c0-0.729-0.729-0.729-0.729-0.729l0,0l0,0l0,0V99.86c0.729-0.729,1.458-0.729,2.188-0.729
	c0.729,0,2.187,0,2.187,0c0.729,0,1.458,0,1.458,0v0.729h-0.729c-0.729-2.187-2.187-2.915-2.915-3.645c-0.729,0-0.729,0-1.458-0.729
	l0,0l0,0l0,0l0,0l0,0l0,0l0,0c-0.729,0-0.729,0-0.729,0c0-0.729,0.729-0.729,0.729-0.729c0.729,0,1.458-0.729,2.187-1.457
	c0.729,0,0.729,0,0.729-0.729c0,0,0,0,0.729,0l0,0l0,0l0,0v0.729c0,0,0,0-0.729,0c-0.729,0-1.457-0.729-2.187-0.729
	c-0.729-1.458-1.458-2.187-1.458-2.915c-0.729-0.729-0.729-1.458-0.729-1.458l0,0c-1.458-13.12-8.018-21.139-14.578-26.241
	c-6.561-5.102-13.85-6.56-17.494-7.289c-0.729,0-1.458,0-1.458,0c-0.729,0-0.729,0-0.729,0l0,0V53.939v0.729V53.939z"/>
<path fill="#B17B40" d="M116.625,77.993c0.729,0,1.458,0,1.458,0c-0.729,2.916-2.187,5.831-2.187,8.747
	c-0.729,5.831,0,10.934,3.645,15.307c1.457,2.916,4.373,5.832,8.018,8.019c-0.729,0-0.729,0-0.729,0l0,0l-0.729-0.729l0,0l0,0
	h-0.729l0,0l0,0l0,0c-1.458-0.729-2.916-1.458-4.374-2.916l0,0l0,0l0,0h-0.729l0,0c0,0,0,0,0-0.729c-0.729,0-0.729,0-0.729,0l0,0
	c0,0-0.729-0.729-1.458-0.729c-1.458-0.729-2.916-1.458-3.645-1.458c-0.729,0-1.458,0-2.187,0c0-0.729,0.729-2.187,2.187-2.915
	c0-0.729,0-0.729,0-0.729l0,0c0,0,0,0,0-0.729c0,0-0.729-0.729-2.916-0.729c0,0-0.729,0-1.458,0c0.729,0,0.729-0.729,0.729-0.729
	c0.729-0.729,1.458-1.458,2.187-1.458c0.729-0.729,0.729-0.729,0.729-0.729l0,0c0-0.729,0-0.729-0.729-0.729l0,0l0,0l0,0
	c0,0,0,0-0.729,0h-0.729c-1.458,0-2.187,0-2.915-0.729c0.729,0,0.729,0,1.457-0.729c0.729,0,2.188,0,2.916-1.458l0,0l0,0l0,0v-0.729
	l0,0l0,0c0-0.729,0-0.729,0-0.729l0,0l0,0l0,0v-0.729l0,0l0,0l0,0l0,0l0,0l0,0l0,0v-0.729l0,0l0,0l0,0l0,0l0,0l0,0c0,0,0,0,0-0.729
	c0.729,0,0.729,0,0.729,0l0,0l0,0l0,0l0,0c0,0,0,0,0-0.729l0,0l0,0l0,0l0,0l0,0l0,0c0-0.729,0-0.729,0-0.729l0,0l0,0l0,0v-0.729l0,0
	C114.439,83.824,115.167,80.909,116.625,77.993L116.625,77.993z"/>
<path fill="#472725" d="M126.831,110.065L126.831,110.065L126.831,110.065L126.831,110.065z M126.101,109.337L126.101,109.337
	L126.101,109.337L126.101,109.337L126.101,109.337z M125.373,109.337L125.373,109.337h0.729H125.373L125.373,109.337z
	 M125.373,109.337L125.373,109.337L125.373,109.337L125.373,109.337L125.373,109.337z M120.999,106.421L120.999,106.421
	c1.458,1.458,2.916,2.187,4.374,2.916C123.915,108.607,122.457,107.879,120.999,106.421L120.999,106.421z M120.999,106.421
	L120.999,106.421L120.999,106.421L120.999,106.421L120.999,106.421z M120.27,106.421L120.27,106.421h0.729H120.27L120.27,106.421z
	 M120.27,105.692L120.27,105.692c0,0.729,0,0.729,0,0.729S120.27,106.421,120.27,105.692L120.27,105.692z M112.981,91.113
	L112.981,91.113v0.729V91.113L112.981,91.113z M112.981,91.113L112.981,91.113L112.981,91.113L112.981,91.113L112.981,91.113z
	 M112.981,90.385L112.981,90.385L112.981,90.385L112.981,90.385L112.981,90.385z M112.981,90.385L112.981,90.385L112.981,90.385
	L112.981,90.385L112.981,90.385z M112.981,89.656L112.981,89.656L112.981,89.656L112.981,89.656L112.981,89.656z M112.981,89.656
	L112.981,89.656L112.981,89.656L112.981,89.656L112.981,89.656z M112.981,89.656L112.981,89.656L112.981,89.656L112.981,89.656
	L112.981,89.656z M112.981,89.656L112.981,89.656L112.981,89.656L112.981,89.656L112.981,89.656z M112.981,88.927L112.981,88.927
	L112.981,88.927L112.981,88.927L112.981,88.927z M112.981,88.927L112.981,88.927L112.981,88.927L112.981,88.927L112.981,88.927z
	 M112.981,88.927L112.981,88.927L112.981,88.927L112.981,88.927L112.981,88.927z M112.981,88.198L112.981,88.198
	c0,0.729,0,0.729,0,0.729S112.981,88.927,112.981,88.198L112.981,88.198z M113.709,88.198L113.709,88.198L113.709,88.198
	L113.709,88.198L113.709,88.198z M113.709,88.198L113.709,88.198L113.709,88.198L113.709,88.198L113.709,88.198z M113.709,87.469
	L113.709,87.469c0,0.729,0,0.729,0,0.729S113.709,88.198,113.709,87.469L113.709,87.469z M113.709,87.469L113.709,87.469
	L113.709,87.469L113.709,87.469L113.709,87.469z M113.709,87.469L113.709,87.469L113.709,87.469L113.709,87.469L113.709,87.469z
	 M113.709,87.469L113.709,87.469L113.709,87.469L113.709,87.469L113.709,87.469z M113.709,86.74L113.709,86.74L113.709,86.74
	L113.709,86.74L113.709,86.74z M113.709,86.74L113.709,86.74L113.709,86.74L113.709,86.74L113.709,86.74z M113.709,86.012
	L113.709,86.012L113.709,86.012L113.709,86.012L113.709,86.012z"/>
<path fill="#472725" d="M120.27,107.149L120.27,107.149L120.27,107.149L120.27,107.149z M120.27,107.149L120.27,107.149
	L120.27,107.149L120.27,107.149L120.27,107.149z M119.542,107.149L119.542,107.149L119.542,107.149L119.542,107.149L119.542,107.149
	z"/>
<path fill="#B17B40" d="M126.101,109.337l0.729,0.729L126.101,109.337L126.101,109.337z M126.101,109.337L126.101,109.337
	L126.101,109.337L126.101,109.337L126.101,109.337z M125.373,109.337L125.373,109.337L125.373,109.337L125.373,109.337
	L125.373,109.337z M125.373,109.337L125.373,109.337L125.373,109.337L125.373,109.337L125.373,109.337z M120.999,106.421
	L120.999,106.421L120.999,106.421L120.999,106.421L120.999,106.421z M120.999,106.421L120.999,106.421L120.999,106.421
	L120.999,106.421L120.999,106.421z M120.27,106.421L120.27,106.421L120.27,106.421L120.27,106.421L120.27,106.421z M119.542,105.692
	L119.542,105.692c0,0,0,0,0.729,0C119.542,105.692,119.542,105.692,119.542,105.692L119.542,105.692z M112.981,91.113
	L112.981,91.113L112.981,91.113L112.981,91.113L112.981,91.113z M112.981,90.385L112.981,90.385c0,0,0,0,0,0.729
	C112.981,90.385,112.981,90.385,112.981,90.385L112.981,90.385z M112.981,90.385L112.981,90.385L112.981,90.385L112.981,90.385
	L112.981,90.385z M112.981,89.656L112.981,89.656v0.729V89.656L112.981,89.656z M112.981,89.656L112.981,89.656L112.981,89.656
	L112.981,89.656L112.981,89.656z M112.981,89.656L112.981,89.656L112.981,89.656L112.981,89.656L112.981,89.656z M112.981,89.656
	L112.981,89.656L112.981,89.656L112.981,89.656L112.981,89.656z M112.981,88.927L112.981,88.927v0.729V88.927L112.981,88.927z
	 M112.981,88.927L112.981,88.927L112.981,88.927L112.981,88.927L112.981,88.927z M112.981,88.927L112.981,88.927L112.981,88.927
	L112.981,88.927L112.981,88.927z M112.981,88.927L112.981,88.927L112.981,88.927L112.981,88.927L112.981,88.927z M113.709,88.198
	L113.709,88.198c0,0,0,0-0.729,0C113.709,88.198,113.709,88.198,113.709,88.198L113.709,88.198z M113.709,88.198L113.709,88.198
	L113.709,88.198L113.709,88.198L113.709,88.198z M113.709,88.198L113.709,88.198L113.709,88.198L113.709,88.198L113.709,88.198z
	 M113.709,87.469L113.709,87.469L113.709,87.469L113.709,87.469L113.709,87.469z M113.709,87.469L113.709,87.469L113.709,87.469
	L113.709,87.469L113.709,87.469z M113.709,87.469L113.709,87.469L113.709,87.469L113.709,87.469L113.709,87.469z M113.709,86.74
	L113.709,86.74c0,0,0,0,0,0.729C113.709,86.74,113.709,86.74,113.709,86.74L113.709,86.74z M113.709,86.74L113.709,86.74
	L113.709,86.74L113.709,86.74L113.709,86.74z M113.709,86.012L113.709,86.012v0.729V86.012L113.709,86.012z M118.083,77.993
	L118.083,77.993c0.729,0,0.729,0,1.458,0l0,0c-1.458,2.916-2.188,5.831-2.916,8.747c-0.729,5.103,0.729,10.205,3.645,14.578
	c2.916,4.374,7.289,8.019,13.12,11.663c-2.187-0.729-4.373-2.188-6.56-2.916c0,0,0,0,0.729,0c-3.645-2.187-6.561-5.103-8.018-8.019
	c-3.645-4.373-4.374-9.476-3.645-15.307C115.897,83.824,117.354,80.909,118.083,77.993L118.083,77.993z M116.625,77.993
	L116.625,77.993L116.625,77.993c-1.458,2.916-2.187,5.831-2.916,8.019C114.439,83.824,115.167,80.909,116.625,77.993L116.625,77.993
	z"/>
<path fill="#472725" d="M112.981,96.216v-0.729V96.216z M115.897,77.265L115.897,77.265c0.729,0,0.729,0.729,0.729,0.729
	c-1.458,2.916-2.187,5.831-2.916,8.019l0,0v0.729l0,0l0,0l0,0c0,0,0,0,0,0.729l0,0l0,0l0,0l0,0l0,0l0,0c0,0.729,0,0.729,0,0.729l0,0
	l0,0l0,0l0,0c0,0,0,0-0.729,0c0,0.729,0,0.729,0,0.729l0,0l0,0l0,0l0,0l0,0l0,0v0.729l0,0l0,0l0,0l0,0l0,0l0,0l0,0v0.729l0,0l0,0
	l0,0c0,0,0,0,0,0.729l0,0l0,0v0.729l0,0l0,0l0,0c-0.729,1.458-2.187,1.458-2.916,1.458c-0.729,0.729-0.729,0.729-1.457,0.729
	c0.729,0.729,1.457,0.729,2.915,0.729h0.729c0.729,0,0.729,0,0.729,0l0,0l0,0l0,0c0.729,0,0.729,0,0.729,0.729l0,0
	c0,0,0,0-0.729,0.729v-0.729v0.729c-0.729,0-1.458,0.729-2.187,1.458c0,0,0,0.729-0.729,0.729c0.729,0,1.458,0,1.458,0
	c2.187,0,2.916,0.729,2.916,0.729c0,0.729,0,0.729,0,0.729l0,0c0,0,0,0,0,0.729c-1.458,0.729-2.187,2.187-2.187,2.915
	c0.729,0,1.457,0,2.187,0c0.729,0,2.187,0.729,3.645,1.458c0.729,0,1.458,0.729,1.458,0.729l0,0c0,0,0,0,0.729,0
	c0,0.729,0,0.729,0,0.729l0,0h0.729l0,0l0,0l0,0c1.458,1.458,2.916,2.187,4.374,2.916l0,0l0,0l0,0h0.729l0,0l0,0l0.729,0.729l0,0
	c2.187,0.729,4.373,2.187,6.56,2.916l0,0c0.729,0,0.729,0,0.729,0.729h-0.729l0,0c-4.373-1.458-8.747-3.645-13.12-6.561l0,0l0,0l0,0
	c-0.729,0-0.729,0-0.729,0l0,0c0-0.729,0-0.729-0.729-0.729l0,0l0,0c-0.729,0-2.915-2.187-5.103-2.187l0,0c-0.729,0-1.457,0-2.187,0
	c0,0.729,0,0.729,0,0.729c0-0.729,0-0.729,0-0.729c-0.729,0-0.729,0-0.729,0s0,0,0-0.729l0,0c0.729-0.729,0.729-2.187,2.187-3.645
	c0,0-0.729-0.729-1.458-0.729c-0.729,0-1.458,0-2.187,0.729l0,0l0,0c-0.729-0.729-0.729-0.729-0.729-0.729l0,0
	c0,0,0.729-0.729,1.457-2.187c0,0,0.729-0.729,1.458-1.458c-0.729,0-0.729,0-0.729,0c-0.729,0-2.916-0.729-4.374-2.187l0,0
	c0-0.729,0-0.729,0-0.729c0.729,0,0.729,0,0.729,0l0,0l0,0h0.729c0.729,0,1.458,0,2.187,0c0.729,0,1.458-0.729,1.458-0.729
	c0-0.729,0-0.729,0-0.729C112.252,88.927,112.981,83.824,115.897,77.265L115.897,77.265z"/>
<path fill="#FDE4AD" d="M180.77,97.674c0,0,7.289,0,7.289,7.289c0,0-4.374,10.934-13.121,12.392c0,0-24.782,5.103-26.24-7.289
	c0,0-0.729-10.205,18.951-10.205L180.77,97.674z"/>
<path fill="#472725" d="M180.77,97.674v-0.729h0.729c1.458,0.729,2.916,0.729,4.373,2.187c1.458,0.729,2.916,2.915,2.188,5.831
	v0.729c0,0-0.729,2.187-2.916,5.102c-2.187,2.916-5.103,6.561-10.205,7.289l0,0c0,0-8.747,1.458-16.036,0.729
	c-2.915-0.729-5.102-1.458-7.289-2.916c-1.457-0.729-2.915-2.915-3.645-5.831l0,0c0,0,0,0,0-0.729
	c0.729-1.458,1.458-4.374,4.374-6.561c2.187-1.458,7.289-3.645,15.307-3.645v0.729v-0.729l13.121-2.187l0,0V97.674v0.729
	l-13.121,2.188l0,0c-8.018-0.729-12.392,1.457-15.307,3.645c-2.187,1.458-2.916,3.645-2.916,5.103v0.729l0,0l0,0l0,0h-0.729h0.729
	c0,2.187,1.458,4.373,2.916,5.103c1.458,1.458,4.373,2.187,6.56,2.187c3.645,0.729,8.019,0.729,10.934,0.729
	c1.458-0.729,2.916-0.729,3.646-0.729c0.729,0,0.729,0,0.729,0c0.729,0,0.729,0,0.729,0l0,0l0,0
	c4.374-1.458,7.289-4.373,9.477-7.289c0.729-0.729,1.457-2.187,2.187-3.645c0,0,0-0.729,0.729-0.729v-0.729l0,0h0.729h-0.729
	c0-2.916-0.729-4.373-2.187-5.103c-1.458-1.458-2.916-1.458-3.645-1.458l0,0h-0.729l0,0V97.674v0.729V97.674z"/>
<path fill="none" stroke="#FFFFFF" stroke-width="0" stroke-linecap="square" stroke-miterlimit="10" d="M175.667,82.367
	c0,0-0.729,2.187,1.458,7.289"/>
<line fill="none" stroke="#FFFFFF" stroke-width="0" stroke-linecap="square" stroke-miterlimit="10" x1="177.125" y1="89.656" x2="181.499" y2="96.216"/>
<path fill="none" stroke="#FFFFFF" stroke-width="0" stroke-linecap="square" stroke-miterlimit="10" d="M181.499,96.216
	c1.458,2.187-0.729,4.374-1.458,5.831c0,0-5.831,6.561-14.578-0.729c0,0-4.373-5.103-5.831-14.578"/>
<path fill="#472725" d="M176.396,83.096l-0.729-0.729L176.396,83.096L176.396,83.096l-0.729-0.729L176.396,83.096h-0.729
	c0,0.729,0,2.916,2.187,6.561h-0.729h0.729l4.373,6.56h-0.729h0.729c0.729,0.729,0.729,1.458,0.729,2.187
	c-0.729,0.729-0.729,1.458-1.458,2.188c0,0.729-0.729,0.729-0.729,1.457l0,0c0,0-0.729,0.729-2.188,2.188
	c-1.457,0.729-3.645,1.458-6.56,0.729c-2.188,0-4.374-1.458-7.289-3.645l0,0c0,0-3.645-5.103-5.832-14.578
	c0-0.729,0.729-0.729,0.729-0.729s0.729,0,0.729,0.729c0.729,4.373,2.187,8.018,2.916,10.205c0.729,1.457,1.458,2.187,1.458,2.915
	c0.729,0,0.729,0.729,0.729,0.729l0,0l0,0v0.729v-0.729c2.916,2.187,5.103,2.915,6.561,3.645c2.915,0,4.373-0.729,5.831-1.458
	c0.729,0,1.458-0.729,1.458-0.729s0-0.729,0.729-0.729l0,0l0,0l0,0v0.729v-0.729c0,0,0.729-0.729,0.729-1.458
	c0.729-0.729,0.729-0.729,0.729-1.458c0-0.729,0-0.729,0-1.457l0,0l-4.373-6.561v-0.729c-2.188-3.645-2.188-5.832-2.188-6.561
	s0-0.729,0-0.729s0.729-0.729,0.729,0C176.396,82.367,176.396,82.367,176.396,83.096L176.396,83.096z"/>
<path fill="#432924" d="M176.396,95.487c10.205-0.729,8.019,0,8.747,2.915c-0.729,1.458-2.187,2.916-2.916,3.645
	c0,0-8.018,10.205-19.681-1.457C162.546,99.86,163.276,96.216,176.396,95.487L176.396,95.487z"/>
<path fill="#472725" d="M175.667,96.216L175.667,96.216c2.915,0,4.373-0.729,5.103,0c0.729,0,0.729,0,1.457,0v0.729v0.729
	c0,0.729,0,0.729,0.729,1.458h-0.729c0,0.729,0,1.458-0.729,1.458c0,0.729-0.729,1.457-0.729,1.457l0,0c0,0-0.729,0.729-2.188,2.188
	c-1.457,0.729-3.645,1.458-6.56,0.729c-2.188,0-4.374-1.458-7.289-4.373l0,0c0,0,0,0,0-0.729c0,0,0.729-1.458,2.187-2.187
	S171.293,96.216,175.667,96.216L175.667,96.216L175.667,96.216v0.729c-5.103,0.729-7.289,1.457-8.747,2.187
	c-0.729,0.729-0.729,0.729-1.458,0.729c0,0.729,0,0.729,0,0.729l0,0h-0.729l0.729-0.729c2.916,2.916,5.103,4.374,7.289,4.374
	s3.645-0.729,5.103-1.458c0.729,0,1.458-0.729,1.458-0.729s0-0.729,0.729-0.729l0,0l0,0l0,0v0.729v-0.729
	c0,0,0.729-0.729,0.729-1.458c0.729,0,0.729-0.729,0.729-1.458l0.729,0.729h-0.729c0-0.729,0-1.458,0-1.458c0-0.729,0-0.729,0-0.729
	h-0.729c-0.729,0-2.188,0-5.103,0V96.216v0.729V96.216z"/>
<path fill="#2E2323" d="M152.342,106.421L152.342,106.421c0,0-0.729-0.729-2.187-1.458c-0.729-0.729-2.188-1.458-3.645-2.187
	c0,0-0.729,0-1.458,0l0,0c0-0.729,0-0.729,0-0.729c0.729,0,1.458,0,1.458,0c2.187,0,3.645,1.458,5.102,2.188
	c0.729,0.729,1.458,1.458,1.458,1.458c0.729,0,0.729,0.729,0,0.729C153.071,106.421,153.071,106.421,152.342,106.421
	L152.342,106.421z"/>
<path fill="#2E2323" d="M150.884,109.337L150.884,109.337c-0.729,0-1.458-0.729-3.645-0.729s-4.373,0-6.561,0.729
	c-0.729,0-0.729,0-0.729,0c-0.729-0.729,0-0.729,0-0.729c2.916-1.458,5.831-1.458,7.289-0.729c2.187,0,3.645,0.729,3.645,0.729
	c0.729,0,0.729,0.729,0.729,0.729H150.884L150.884,109.337z"/>
<path fill="#2E2323" d="M151.613,112.252c0,0,0,0-0.729,0s-1.458,0.729-2.916,0.729h-0.729c-0.729,0-0.729,0.729-1.458,0.729
	c0,0,0,0-0.729,0c0-0.729,0-0.729,0.729-0.729c0-0.729,0.729-0.729,1.458-0.729c1.458-0.729,4.373-0.729,4.373-0.729h0.729
	C152.342,112.252,152.342,112.252,151.613,112.252L151.613,112.252z"/>
<path fill="#2E2323" d="M183.685,101.318c0,0,0.729-1.458,2.187-2.187c1.458-1.458,3.645-2.916,5.103-2.916
	c0.729,0,0.729,0.729,0.729,0.729s0,0.729-0.729,0.729c-1.458,0-2.915,0.729-4.373,2.187c-0.729,0-1.458,0.729-1.458,1.458h-0.729
	l0,0v0.729h-0.729C183.685,101.318,183.685,101.318,183.685,101.318L183.685,101.318z"/>
<path fill="#2E2323" d="M185.872,103.505c0,0,4.374-2.187,9.477-1.458c0.729,0,1.457,0,2.187,0c0,0.729,0,0.729,0,0.729
	c0,0.729,0,0.729-0.729,0.729c-0.729,0-0.729-0.729-1.457-0.729c-2.188,0-4.374,0-5.832,0.729c-0.729,0-1.457,0.729-2.187,0.729
	h-0.729v0.729l0,0c0,0-0.729,0-0.729-0.729C185.872,104.234,185.872,104.234,185.872,103.505L185.872,103.505z"/>
<path fill="#2E2323" d="M185.872,106.421c0,0,2.916,0,5.103,0.729c0,0,0.729,0,1.458,0v0.729h-0.729c0,0-0.729,0-1.458,0
	c-0.729,0-1.458,0-2.916,0h-0.729c-0.729,0-0.729,0-0.729,0l-0.729-0.729L185.872,106.421L185.872,106.421z"/>
<path fill="#4D2C2A" d="M158.173,80.18c0,0-1.458-2.915-13.12-3.645c0,0-2.916,0-3.645,2.188c-0.729,0.729-1.458,3.645,0.729,3.645
	c0,0,3.645,0.729,13.85,0C155.987,82.367,159.631,82.367,158.173,80.18L158.173,80.18z"/>
<path fill="#EEA643" d="M139.222,61.229c0,0-1.458-13.12-16.036-13.85c0,0-9.477-1.458-14.578,8.747
	c-1.458,2.187-2.188,6.561-1.458,10.934c0,0,2.187,10.205,13.849,10.934L139.222,61.229z"/>
<path fill="#472725" d="M139.222,61.229L139.222,61.229c0-0.729-0.729-2.916-2.188-5.831c-2.187-3.645-5.102-6.561-10.934-7.289
	c-0.729,0-2.187,0-2.915,0l0,0l0,0c-0.729,0-2.916-0.729-5.832,0.729c-2.915,0.729-5.831,2.916-8.018,7.289
	c-0.729,1.458-1.458,2.916-1.458,5.103c-0.729,1.458-0.729,3.645,0,5.831l0,0l0,0c0,0,0.729,2.187,2.187,4.374
	c1.458,2.915,4.374,5.102,9.477,5.831c0,0,0.729,0,1.457,0v0.729v0.729c-0.729,0-1.457,0-1.457-0.729
	c-5.832-0.729-8.747-3.645-10.934-5.831c-1.458-2.916-1.458-5.103-1.458-5.103l0,0l0,0c-0.729-2.187-0.729-4.373-0.729-5.831
	c0.729-2.187,1.458-4.373,2.188-5.831c2.187-4.374,5.831-7.289,9.476-8.019c2.915-0.729,5.103-0.729,5.103-0.729v0.729V46.65
	c1.457,0,2.187,0,2.915,0.729c5.832,0.729,9.477,4.374,11.663,7.289c2.187,3.645,2.187,6.561,2.187,6.561s0,0.729-0.729,0.729
	V61.229L139.222,61.229z"/>
<path fill="#B17B40" d="M112.981,51.023c-2.187,2.916-3.645,5.832-4.373,9.477c0,1.457,0,2.915,0,4.373l0,0
	c1.457,5.831,5.831,10.205,12.391,12.392h-0.729h-0.729c-5.103-0.729-8.019-2.916-9.477-5.831c-1.457-2.188-2.187-4.374-2.187-4.374
	l0,0l0,0c-0.729-2.187-0.729-4.373,0-5.831c0-2.187,0.729-3.645,1.458-5.103l0,0v-0.729l0,0l0,0c0.729,0,0.729,0,0.729,0l0,0
	c0-0.729,0-0.729,0-0.729l0,0l0,0l0,0c0,0,0,0,0-0.729l0,0c0.729,0,0.729,0,0.729,0l0,0l0,0l0,0v-0.729l0,0l0,0l0,0
	C111.523,52.481,112.252,51.753,112.981,51.023L112.981,51.023z"/>
<path fill="#472725" d="M109.336,55.397v0.729V55.397L109.336,55.397z M109.336,55.397L109.336,55.397L109.336,55.397
	L109.336,55.397L109.336,55.397z M110.065,55.397L110.065,55.397L110.065,55.397L110.065,55.397L110.065,55.397z M110.065,54.668
	L110.065,54.668L110.065,54.668L110.065,54.668L110.065,54.668z M110.065,54.668L110.065,54.668L110.065,54.668L110.065,54.668
	L110.065,54.668z M110.065,53.939L110.065,53.939L110.065,53.939L110.065,53.939L110.065,53.939z M110.794,53.939L110.794,53.939
	L110.794,53.939L110.794,53.939L110.794,53.939z M110.794,53.939L110.794,53.939L110.794,53.939L110.794,53.939L110.794,53.939z
	 M110.794,53.211L110.794,53.211L110.794,53.211L110.794,53.211L110.794,53.211z M110.794,53.211L110.794,53.211L110.794,53.211
	L110.794,53.211z"/>
<path fill="#B17B40" d="M122.457,76.535L122.457,76.535c0,0,0,0,0,0.729l-1.458,0.729c0,0.729,0,0.729,0,0.729v-0.729l0,0
	L122.457,76.535z"/>
<path fill="#B17B40" d="M115.897,49.566c-2.916,2.915-5.103,6.56-5.832,10.934c-0.729,1.457-0.729,2.915,0,3.645l0,0
	c0.729,5.831,5.832,10.934,12.392,11.662v0.729l-1.458,1.458c0-0.729,0-0.729,0-0.729l0,0c-0.729,0-1.457,0-1.457,0
	c-5.103-0.729-8.019-2.916-9.477-5.831c-1.457-2.188-2.187-4.374-2.187-4.374s0.729,2.187,2.187,4.374
	c1.458,2.915,4.374,5.102,9.477,5.831h0.729h0.729c-6.56-2.187-10.934-6.561-12.391-12.392l0,0c0-1.458,0-2.916,0-4.373
	c0.729-3.645,2.187-6.561,4.373-9.477c-0.729,0.729-1.458,1.458-2.187,2.188C112.981,51.023,114.439,50.295,115.897,49.566
	L115.897,49.566z"/>
<path fill="#B17B40" d="M107.878,61.229c-0.729,1.458-0.729,3.645,0,5.831l0,0l0,0C107.15,64.873,107.15,62.687,107.878,61.229
	L107.878,61.229z M109.336,56.126L109.336,56.126L109.336,56.126L109.336,56.126L109.336,56.126z M109.336,55.397L109.336,55.397
	L109.336,55.397L109.336,55.397L109.336,55.397z M110.065,55.397L110.065,55.397c0,0,0,0-0.729,0
	C110.065,55.397,110.065,55.397,110.065,55.397L110.065,55.397z M110.065,54.668L110.065,54.668c0,0,0,0,0,0.729
	C110.065,54.668,110.065,54.668,110.065,54.668L110.065,54.668z M110.065,54.668L110.065,54.668L110.065,54.668L110.065,54.668
	L110.065,54.668z M110.065,53.939L110.065,53.939c0,0.729,0,0.729,0,0.729S110.065,54.668,110.065,53.939L110.065,53.939z
	 M110.794,53.939L110.794,53.939c0,0,0,0-0.729,0C110.794,53.939,110.794,53.939,110.794,53.939L110.794,53.939z M110.794,53.939
	L110.794,53.939L110.794,53.939L110.794,53.939L110.794,53.939z M110.794,53.211L110.794,53.211v0.729V53.211L110.794,53.211z
	 M110.794,53.211L110.794,53.211L110.794,53.211L110.794,53.211L110.794,53.211z"/>
<path fill="#24211D" d="M114.439,64.145c0.729-4.374,5.103-7.289,9.476-6.561c2.916,0,5.831,2.916,6.561,6.561
	c-0.729-0.729-1.458-0.729-1.458-0.729c0,0.729,0,1.458,0,2.187h-0.729c0,0,0,0.729,0,1.458c-0.729,0-0.729,0-1.458,0
	c0.729,0,0.729,0.729,0.729,1.458c-1.458,0-4.373,2.916-5.831,4.373C117.354,72.162,114.439,67.789,114.439,64.145L114.439,64.145z"
	/>
<path fill="#472725" d="M114.439,64.145L114.439,64.145c0.729-5.103,5.103-8.019,9.476-7.289c3.645,0.729,6.561,3.645,6.561,6.56
	c0,0.729,0,0.729,0,0.729l0,0c-0.729,0-0.729,0-1.458,0c0,0,0,0-0.729,0l0.729-0.729l0,0c0,0,0,0,0,0.729
	c0.729,0,0.729,0,0.729,0.729l0,0v0.729c0,0,0,0-0.729,0c0,0,0,0,0,0.729c-0.729,0-0.729,0-0.729,0v-0.729l0,0c0,0,0,0.729,0,1.458
	c0.729,0,0,0,0,0h-0.729l0,0c0,0,0,0-0.729,0l0,0l0.729-0.729c0,0.729,0,0.729,0,1.458l0,0c0,0.729,0,0.729,0,0.729l0,0
	l-0.729,0.729c-1.458,0.729-3.645,2.916-4.374,4.374c-0.729,0-0.729,0-0.729,0c-2.187,0-4.374-1.458-5.831-3.645
	C114.439,68.518,113.709,66.331,114.439,64.145L114.439,64.145h0.729c0,1.457,0.729,3.645,1.458,5.102
	c1.458,2.188,2.916,2.916,5.103,3.645l0,0h-0.729c1.458-0.729,2.188-2.187,3.645-2.915c0-0.729,0.729-1.458,1.458-1.458
	c0-0.729,0.729-0.729,1.458-0.729v0.729h-0.729c0-0.729,0-0.729,0-0.729c0-0.729,0-0.729,0-0.729s0,0,0-0.729l0,0
	c0.729,0,0.729,0,0.729,0l0,0c0.729,0,0.729,0,0.729,0v0.729h-0.729c0-0.729,0-1.458,0-1.458s0,0,0-0.729h0.729l0,0
	c0.729,0,0.729,0,0.729,0v0.729l0,0c-0.729,0-0.729-0.729-0.729-0.729c0-0.729,0-0.729,0-0.729l0,0c0-0.729,0-0.729,0-0.729
	s0,0,0.729,0c0,0,0,0,0.729,0c0,0,0,0,0.729,0v0.729h-0.729c-0.729-3.645-2.915-5.832-5.831-6.561c-2.187,0-4.373,0.729-5.831,1.458
	c-1.458,1.458-2.187,2.915-2.916,5.103H114.439z"/>
<path fill="#24211D" d="M166.92,62.687c0,0,5.831,0.729,10.205,5.103c0,0,0.729,1.457,0,2.187c-0.729,0-0.729,0-2.188-0.729
	c-2.187-1.457-5.831-2.187-6.56-2.187c0,0,0.729,2.187,1.457,4.374c0,0,5.832,2.187,5.832,3.645c0,0,0,0.729-0.729,0.729
	c-0.729,0-2.187,0-3.645-0.729c0,0,0.729,5.831-0.729,5.102c0,0-2.187,0-3.645-5.102c0,0-1.458,0.729-5.103,0.729
	c0,0-0.729,0-1.458-0.729c-0.729-1.458-0.729-2.188,5.103-3.645c0,0-0.729-2.916-1.458-4.374c0,0-5.103,0.729-8.018,2.187
	c0,0-1.458,0.729-2.187,0c0,0-0.729-0.729-0.729-1.457c0,0,1.458-3.645,9.476-5.103c0,0-2.187-4.374-4.373-5.103
	c0,0-6.561-0.729-10.934,1.458c0,0-4.373,1.458-2.916-3.645c3.645-0.729,7.289-1.458,10.934-1.458c0,0,7.289,0.729,15.308,4.373
	c-0.729,0.729-2.916,0.729-5.831,0C164.734,58.313,166.191,60.5,166.92,62.687L166.92,62.687z"/>
<path fill="#4D2C2A" d="M172.751,78.723c0,0,0.729-2.188,9.476-4.374c0,0,2.188,0,2.916,1.458c1.458,0.729,2.916,2.916,0.729,3.645
	c0,0-2.915,0.729-10.934,1.458C174.938,80.909,172.023,80.909,172.751,78.723L172.751,78.723z"/>
<path fill="#814B20" d="M126.101,103.505c1.458,2.188-0.729,3.645-3.645,4.374c-1.458-0.729-2.187-0.729-2.915-1.458
	c0,0-0.729-0.729-1.458-1.458C121.728,104.234,126.101,102.776,126.101,103.505L126.101,103.505z"/>
<path fill="#472725" d="M126.101,103.505h0.729c0,0,0.729,0.729,0,1.458c0,0.729-0.729,1.458-1.458,2.187
	c-0.729,0.729-1.458,0.729-2.916,1.458c0,0,0,0-0.729,0c-0.729-0.729-1.458-1.458-2.916-2.187l0,0l0,0c0,0-0.729-0.729-1.458-0.729
	c0,0,0,0,0-0.729l0,0c2.188-0.729,3.645-1.458,5.103-1.458c0.729-0.729,1.458-0.729,2.187-0.729c0.729,0,0.729,0,1.458,0l0,0
	c0.729,0,0.729,0.729,0.729,0.729H126.101h0.729H126.101L126.101,103.505L126.101,103.505L126.101,103.505L126.101,103.505
	L126.101,103.505L126.101,103.505L126.101,103.505L126.101,103.505L126.101,103.505L126.101,103.505L126.101,103.505
	L126.101,103.505c-0.729,0-0.729,0-1.458,0c-1.457,0.729-4.373,1.458-6.56,2.188v-0.729l0,0c0.729,0,1.458,0.729,1.458,0.729v0.729
	v-0.729c0.729,0.729,2.187,1.457,2.915,2.187l0,0l0,0c0.729-0.729,1.458-1.458,2.187-1.458c0.729-0.729,1.458-1.458,1.458-1.458
	C126.101,104.234,126.101,104.234,126.101,103.505L126.101,103.505L126.101,103.505z"/>
<path fill="#814B20" d="M124.643,97.674c1.458,2.916-5.831,2.187-7.289,2.187c-1.457,0-2.915,0.729-4.373,0.729
	c0.729,0,0.729-0.729,1.458-0.729c0,0-2.916-1.458-5.103-0.729c0,0,0.729-2.187,2.916-3.645
	C116.625,96.216,123.915,96.216,124.643,97.674L124.643,97.674z"/>
<path fill="#472725" d="M124.643,97.674L124.643,97.674c0.729,0,0.729,0.729,0.729,0.729c0,0.729-0.729,0.729-0.729,1.458
	c-0.729,0-0.729,0-1.457,0.729c-1.458,0-2.188,0-3.645,0c-0.729,0-2.188,0-2.188,0l0,0c-1.457,0-2.915,0-3.645,0.729
	c-0.729,0-0.729,0-0.729-0.729c0,0,0,0,0-0.729c0,0,0.729,0,0.729-0.729l0.729,0.729l-0.729,0.729l0,0
	c0-0.729-0.729-0.729-2.187-1.458c-0.729,0-1.458,0-2.187,0.729l0,0c-0.729-0.729-0.729-0.729-0.729-0.729s0.729-0.729,0.729-1.458
	c0.729-0.729,1.458-1.458,2.916-2.187l0,0c2.915,0,5.831,0,8.746,0.729c0.729,0,1.458,0,2.188,0
	C123.915,96.945,124.643,96.945,124.643,97.674L124.643,97.674h-0.729c0,0,0,0-0.729,0c-0.729-0.729-1.458-0.729-2.188-0.729
	c-2.915-0.729-5.831-0.729-8.746-0.729v-0.729v0.729c-0.729,0.729-1.458,1.458-1.458,2.187c-0.729,0-0.729,0-0.729,0.729l0,0l0,0
	l0,0h-0.729v-0.729c0.729,0,1.458,0,2.187,0c2.187,0,2.916,0.729,2.916,0.729c0,0.729,0,0.729,0,0.729s0,0,0,0.729h-0.729h-0.729
	V99.86c1.458,0,2.916,0,4.373-0.729c0,0,0.729,0,1.458,0c1.458,0.729,2.916,0.729,3.645,0c0.729,0,0.729,0,1.458,0c0,0,0,0,0-0.729
	l0,0c0,0,0,0,0-0.729H124.643z"/>
<path fill="#814B20" d="M112.252,91.843c0,0,0-2.187,1.457-5.831c3.645,3.645,11.663,4.373,11.663,6.56
	c0,2.916-7.289,1.458-9.476,0.729c-2.188,0-3.645-0.729-4.374-0.729L112.252,91.843L112.252,91.843z"/>
<path fill="#472725" d="M112.252,91.843h-0.729v-0.729c0.729-1.457,0.729-2.915,1.458-5.102c0-0.729,0-0.729,0-0.729
	c0.729,0,0.729,0,0.729,0c1.458,2.187,5.103,2.916,7.289,3.645c1.458,0.729,2.916,1.458,3.645,1.458
	c0,0.729,0.729,0.729,0.729,0.729c0.729,0.729,0.729,0.729,0.729,1.458l0,0c0,0.729-0.729,1.458-0.729,1.458
	c-0.729,0.729-2.187,0.729-3.645,0.729c-0.729,0-2.187,0-3.645-0.729c-0.729,0-2.187,0-2.187,0
	c-1.458-0.729-2.188-0.729-2.188-0.729c-0.729,0-1.457,0-2.187,0c-0.729,0-0.729,0-0.729-0.729l0,0
	c0.729-0.729,0.729-0.729,0.729-1.458L112.252,91.843h-0.729H112.252h0.729c-0.729,0.729-0.729,0.729-1.458,1.458v-0.729v-0.729
	c0.729,0,1.458,0.729,2.187,0.729c0.729,0,1.458,0,2.188,0c0.729,0.729,1.457,0.729,2.915,0.729s2.916,0.729,4.374,0
	c0.729,0,0.729,0,1.457,0l0.729-0.729l0,0l0,0c0,0,0,0-0.729-0.729c0,0-0.729-0.729-1.457-0.729
	c-1.458-0.729-3.645-1.457-5.103-2.187c-2.187-0.729-3.645-1.458-5.103-2.915h0.729l0,0c-0.729,2.187-0.729,4.373-0.729,5.102v0.729
	l0,0l0,0H112.252z"/>
<path fill-rule="evenodd" fill="#4D2C2A" d="M190.246,91.113c-2.187-2.187-4.374-4.373-6.561-6.56c-0.729,0-2.187,0-2.915,0.729
	c-0.729,0.729-1.458,1.458-1.458,2.916c-1.458,3.645,0,5.831,2.915,4.373c0.729,0,2.188,0.729,2.916,0
	C185.143,92.571,188.788,91.113,190.246,91.113L190.246,91.113z"/>
<path fill-rule="evenodd" fill="#24211D" d="M190.246,90.385L190.246,90.385c0,0,0,0-0.729,0c-0.729,0.729-0.729,1.458-1.457,1.458
	l0,0c0.729,0,1.457-0.729,1.457-0.729C190.246,91.113,190.246,91.113,190.246,90.385L190.246,90.385z"/>
<path fill-rule="evenodd" fill="#24211D" d="M188.059,91.843c0-0.729,0-2.187-0.729-2.916c-1.458-1.458-2.187-2.187-4.373-2.187
	c-1.458,0.729-2.187,1.458-2.187,2.187c-1.458,2.187,0,5.103,2.915,4.374c0.729,0,2.187,0,2.916,0
	C186.601,92.571,188.788,91.843,188.059,91.843L188.059,91.843z"/>
<path fill-rule="evenodd" fill="#FFFFFF" d="M187.33,91.843c0-0.729,0-2.187-0.729-2.916c-1.458-1.458-1.458-2.187-3.645-1.458
	c-1.458,0-2.187,0.729-2.187,2.188c-1.458,1.457,0,2.915,2.187,2.915c0.729,0,2.187,0,2.915,0
	C185.872,92.571,188.059,91.843,187.33,91.843L187.33,91.843z"/>
<path fill-rule="evenodd" fill="#955942" d="M181.499,92.571c-0.729,0-1.458-0.729-0.729-2.187c0-0.729,0.729-1.458,1.457-1.458
	c0.729-0.729,2.188,0,2.916,0c0.729,1.458,1.458,3.645-0.729,4.374C185.143,93.301,183.685,93.301,181.499,92.571L181.499,92.571z"
	/>
<path fill-rule="evenodd" fill="#24211D" d="M182.957,92.571c-0.729,0-0.729,0-1.458,0s-1.458-0.729-1.458-2.187
	c0.729-0.729,0.729-0.729,1.458-0.729c1.458-0.729,1.458,0,2.187,0.729l0.729,0.729c0,0.729,0,1.458-0.729,1.458H182.957
	L182.957,92.571z"/>
<path fill-rule="evenodd" fill="#FFFFFF" d="M184.415,91.113h-0.729v-0.729v-0.729c0.729,0,0.729,0,0.729,0.729l0,0
	C184.415,91.113,184.415,91.113,184.415,91.113L184.415,91.113L184.415,91.113z"/>
<path fill-rule="evenodd" fill="#24211D" d="M191.704,92.571c-0.729-0.729-1.458-0.729-2.188-0.729h-0.729c-0.729,0-0.729,0-0.729,0
	c0.729,0,1.457,0,1.457,0c0.729,0,0.729,0,1.458,0C190.974,91.843,190.974,92.571,191.704,92.571L191.704,92.571z"/>
<path fill="none" stroke="#24211D" stroke-width="0" stroke-linecap="square" stroke-miterlimit="10" d="M191.704,92.571
	c-0.729-0.729-1.458-0.729-2.188-0.729h-0.729c-0.729,0-0.729,0-0.729,0c0.729,0,1.457,0,1.457,0c0.729,0,0.729,0,1.458,0
	C190.974,91.843,190.974,92.571,191.704,92.571L191.704,92.571z"/>
<path fill-rule="evenodd" fill="#4D2C2A" d="M155.987,96.216c1.458-1.458,0.729-2.187,0-2.915c-0.729-2.916-2.916-5.103-7.289-3.645
	c-1.458,0.729-3.645,2.915-4.374,4.373c-0.729,0.729-0.729,2.187,0,2.187c0.729,0,2.916,0.729,5.832,1.458
	c0.729,0,3.645,0.729,4.373,0C154.529,97.674,157.445,96.216,155.987,96.216L155.987,96.216z"/>
<path fill-rule="evenodd" fill="#24211D" d="M150.884,87.469c-0.729-0.729,1.458-1.457,2.187-0.729c0,0,0.729,0.729,0,0.729h-0.729
	c0,0,0,0-0.729,0C151.613,87.469,151.613,88.198,150.884,87.469L150.884,87.469L150.884,87.469z"/>
<path fill="none" stroke="#24211D" stroke-width="0" stroke-linecap="square" stroke-miterlimit="10" d="M150.884,87.469
	c-0.729-0.729,1.458-1.457,2.187-0.729c0,0,0.729,0.729,0,0.729h-0.729c0,0,0,0-0.729,0
	C151.613,87.469,151.613,88.198,150.884,87.469L150.884,87.469L150.884,87.469z"/>
<path fill-rule="evenodd" fill="#24211D" d="M147.968,97.674c0.729-1.458,0-2.916,0.729-3.645c0.729-2.187,1.458-2.916,4.373-2.916
	c1.458,0,2.187,0.729,2.916,1.458c1.458,2.187,0.729,5.103-2.187,5.103c-0.729,0-2.916,0.729-2.916,0.729
	C150.156,98.402,147.968,97.674,147.968,97.674L147.968,97.674z"/>
<path fill-rule="evenodd" fill="#FFFFFF" d="M148.698,97.674c0-1.458,0-2.916,0-3.645c1.458-2.187,1.458-2.916,4.373-2.916
	c1.458,0,2.187,0.729,2.916,1.458c1.458,2.187,0.729,4.374-2.187,5.103c-0.729,0-2.188,0.729-2.916,0
	C150.884,97.674,147.968,97.674,148.698,97.674L148.698,97.674z"/>
<path fill-rule="evenodd" fill="#955942" d="M150.884,97.674c0.729,0.729,2.187,0,2.187,0c1.458-0.729,1.458-2.187,0.729-2.916
	c0-1.457-1.458-1.457-2.188-1.457c-1.457,0-1.457,0.729-2.187,1.457c-0.729,0.729-0.729,1.458-0.729,1.458
	c0.729,1.458,0,1.458,1.458,1.458C149.426,97.674,150.884,97.674,150.884,97.674L150.884,97.674z"/>
<path fill-rule="evenodd" fill="#24211D" d="M150.884,97.674c0.729,0,1.458,0,1.458,0c1.458-0.729,1.458-1.458,0.729-2.916
	c0-0.729-0.729-0.729-1.458-0.729c-1.457,0-1.457,0.729-2.187,1.458c0,0-0.729,0.729-0.729,1.458c0.729,0.729,0,0.729,1.458,0.729
	C149.426,98.402,150.884,97.674,150.884,97.674L150.884,97.674z"/>
<path fill-rule="evenodd" fill="#FFFFFF" d="M153.071,96.216l0.729-0.729c0,0,0,0,0-0.729c0,0,0,0-0.729,0c0,0,0,0-0.729,0
	c0,0.729,0,0.729,0,0.729S152.342,96.216,153.071,96.216C152.342,96.216,153.071,96.216,153.071,96.216L153.071,96.216z"/>
<path fill-rule="evenodd" fill="#24211D" d="M145.053,99.132c0-0.729,0.729-0.729,1.458-1.458c0.729,0,0.729,0,1.457,0l0,0
	c-0.729,0-1.457,0-1.457,0c-0.729,0-0.729,0.729-1.458,0.729C145.053,98.402,145.053,98.402,145.053,99.132L145.053,99.132z"/>
<path fill="none" stroke="#24211D" stroke-width="0" stroke-linecap="square" stroke-miterlimit="10" d="M145.053,99.132
	c0-0.729,0.729-0.729,1.458-1.458c0.729,0,0.729,0,1.457,0l0,0c-0.729,0-1.457,0-1.457,0c-0.729,0-0.729,0.729-1.458,0.729
	C145.053,98.402,145.053,98.402,145.053,99.132L145.053,99.132z"/>
<path fill-rule="evenodd" fill="#24211D" d="M142.867,96.945c0.729-0.729,2.187,0,3.645,0c0,0,0.729,0.729,1.457,0.729h0.729
	c-0.729,0-2.187-0.729-2.916-0.729c0,0-0.729,0-1.458-0.729C143.595,96.216,143.595,96.945,142.867,96.945L142.867,96.945z"/>
<path fill="none" stroke="#24211D" stroke-width="0" stroke-linecap="square" stroke-miterlimit="10" d="M142.867,96.945
	c0.729-0.729,2.187,0,3.645,0c0,0,0.729,0.729,1.457,0.729h0.729c-0.729,0-2.187-0.729-2.916-0.729c0,0-0.729,0-1.458-0.729
	C143.595,96.216,143.595,96.945,142.867,96.945L142.867,96.945z"/>
<path fill-rule="evenodd" fill="#24211D" d="M158.902,110.065c0-1.458,0.729-2.187,1.458-2.187c0-0.729,0.729-0.729,1.458-0.729
	v-0.729c-0.729,0.729-1.458,0.729-2.187,1.458c0,0-0.729,0-0.729,0.729C158.902,109.337,158.902,109.337,158.902,110.065
	L158.902,110.065z"/>
<path fill="none" stroke="#24211D" stroke-width="0" stroke-linecap="square" stroke-miterlimit="10" d="M158.902,110.065
	c0-1.458,0.729-2.187,1.458-2.187c0-0.729,0.729-0.729,1.458-0.729v-0.729c-0.729,0.729-1.458,0.729-2.187,1.458
	c0,0-0.729,0-0.729,0.729C158.902,109.337,158.902,109.337,158.902,110.065L158.902,110.065z"/>
<path fill-rule="evenodd" fill="#24211D" d="M175.667,115.896c-0.729,0.729-2.187,0-2.916,0c-0.729,0-1.458-0.729-2.187-0.729l0,0
	c0.729,0.729,1.458,1.458,2.187,1.458c0.729,0,1.458,0,1.458,0C174.938,116.626,175.667,115.896,175.667,115.896L175.667,115.896z"
	/>
<path fill="none" stroke="#24211D" stroke-width="0" stroke-linecap="square" stroke-miterlimit="10" d="M175.667,115.896
	c-0.729,0.729-2.187,0-2.916,0c-0.729,0-1.458-0.729-2.187-0.729l0,0c0.729,0.729,1.458,1.458,2.187,1.458c0.729,0,1.458,0,1.458,0
	C174.938,116.626,175.667,115.896,175.667,115.896L175.667,115.896z"/>
<path fill="#24211D" d="M158.173,101.318L158.173,101.318c0,0.729,0,0.729,0,0.729c0.729,0.729,0.729,0.729,1.458,0.729
	c0-0.729,0-0.729,0-0.729v-0.729l0,0l-0.729-0.729c0,0,0,0-0.729,0C158.173,101.318,158.173,101.318,158.173,101.318
	L158.173,101.318z"/>
<path fill="#24211D" d="M158.902,104.234c0,0,0,0,0,0.729c0,0,0,0,0,0.729c0.729,0,1.458,0,1.458,0v-0.729l0,0
	c0-0.729,0-0.729,0-0.729l0,0c-0.729,0-0.729,0-0.729,0S159.631,104.234,158.902,104.234L158.902,104.234z"/>
<path fill="#24211D" d="M161.818,102.776c0,0,0,0,0,0.729v0.729c0.729,0,1.458,0,1.458,0v-0.729l0,0c0-0.729,0-0.729,0-0.729
	s0,0-0.729,0l0,0C162.546,102.776,162.546,102.776,161.818,102.776L161.818,102.776z"/>
<path fill-rule="evenodd" fill="#24211D" d="M182.227,109.337c0.729-0.729,1.458-1.458,2.188-2.188
	c-2.188,2.188-3.645,4.374-5.832,5.103c-6.56,3.645-13.849,2.916-18.951-3.645C165.462,115.168,175.667,115.168,182.227,109.337
	L182.227,109.337z"/>
<path fill="none" stroke="#24211D" stroke-width="0" stroke-linecap="square" stroke-miterlimit="10" d="M182.227,109.337
	c0.729-0.729,1.458-1.458,2.188-2.188c-2.188,2.188-3.645,4.374-5.832,5.103c-6.56,3.645-13.849,2.916-18.951-3.645
	C165.462,115.168,175.667,115.168,182.227,109.337L182.227,109.337z"/>
<path fill="#24211D" d="M182.957,102.047c0,0,0,0-0.729,0.729c0,0,0,0,0.729,0.729h0.729c0-0.729,0-0.729,0.729-0.729
	c0,0,0,0-0.729-0.729l0,0l0,0C182.957,102.047,182.957,102.047,182.957,102.047L182.957,102.047L182.957,102.047z"/>
<path fill="#24211D" d="M182.957,104.963c0,0,0,0,0,0.729c0,0,0,0,0,0.729c0.729,0,0.729,0,1.458,0c0-0.729,0-0.729,0-0.729
	s0,0,0-0.729l0,0h-0.729C183.685,104.963,183.685,104.963,182.957,104.963L182.957,104.963L182.957,104.963z"/>
<path fill-rule="evenodd" fill="#24211D" d="M180.041,83.096c-0.729-0.729,0.729-1.458,2.187-0.729v0.729h-0.729
	c-0.729,0-0.729,0-0.729,0H180.041C180.041,83.096,179.312,83.096,180.041,83.096L180.041,83.096z"/>
<path fill="none" stroke="#24211D" stroke-width="0" stroke-linecap="square" stroke-miterlimit="10" d="M180.041,83.096
	c-0.729-0.729,0.729-1.458,2.187-0.729v0.729h-0.729c-0.729,0-0.729,0-0.729,0H180.041
	C180.041,83.096,179.312,83.096,180.041,83.096L180.041,83.096z"/>
<path fill-rule="evenodd" fill="#24211D" d="M104.234,107.149c-9.476-2.187-32.071-13.12-32.071-19.681c0,0,0,0-0.729,1.458
	C72.891,91.843,77.994,99.86,104.234,107.149L104.234,107.149z"/>
<path fill="none" stroke="#24211D" stroke-width="0" stroke-linecap="square" stroke-miterlimit="10" d="M104.234,107.149
	c-9.476-2.187-32.071-13.12-32.071-19.681c0,0,0,0-0.729,1.458C72.891,91.843,77.994,99.86,104.234,107.149L104.234,107.149z"/>
<path fill-rule="evenodd" fill="#4D2C2A" d="M64.874,119.541c2.187,0.729,2.187,4.374,0.729,6.561l1.458-1.458
	C67.06,121.728,67.789,120.999,64.874,119.541L64.874,119.541z"/>
<path fill-rule="evenodd" fill="#4D2C2A" d="M69.975,118.813c2.916,0,3.645,3.645,3.645,5.831c0,0,0.729-2.187,0-2.187
	C73.62,120.271,72.891,118.813,69.975,118.813L69.975,118.813z"/>
<path fill-rule="evenodd" fill="#24211D" d="M63.416,129.017c1.458-1.457,0-2.915-2.188-3.645c-0.729,0,0-0.729,1.458-0.729
	S64.874,127.56,63.416,129.017L63.416,129.017z"/>
<path fill-rule="evenodd" fill="#24211D" d="M70.705,127.56c1.458-0.729,0.729-2.916-0.729-3.645c-0.729,0,0-0.729,0.729-0.729
	C72.891,123.186,72.891,126.83,70.705,127.56L70.705,127.56z"/>
<path fill-rule="evenodd" fill="#24211D" d="M75.807,124.644c1.457-0.729,0.729-2.916-0.729-3.645c-0.729,0,0-0.729,0.729-0.729
	C77.994,120.271,77.994,123.915,75.807,124.644L75.807,124.644z"/>
<path fill-rule="evenodd" fill="#4D2C2A" d="M88.198,107.149c2.188,0,3.645,3.645,3.645,5.832c-0.729,0,0-2.188,0-2.188
	C91.114,108.607,91.114,107.149,88.198,107.149L88.198,107.149z"/>
<path fill-rule="evenodd" fill="#4D2C2A" d="M84.553,109.337c2.188,0.729,2.188,4.373,0.729,5.831c0,0.729,1.458-0.729,1.458-0.729
	C86.741,111.523,87.469,110.065,84.553,109.337L84.553,109.337z"/>
<path fill-rule="evenodd" fill="#24211D" d="M94.758,110.065c-0.729,0-0.729-2.187-1.458-2.187c-0.729-0.729-0.729-0.729,0-0.729
	C94.03,107.879,95.487,110.065,94.758,110.065L94.758,110.065z"/>
<path fill-rule="evenodd" fill="#24211D" d="M90.385,114.438c-0.729-0.729-0.729-2.187-2.188-2.187c0-0.729,0.729-1.458,1.458-1.458
	C90.385,111.523,91.114,114.438,90.385,114.438L90.385,114.438z"/>
<path fill-rule="evenodd" fill="#24211D" d="M83.825,117.354c-0.729-0.729,0-2.187-0.729-2.916c0-0.729,0.729-0.729,1.457-0.729
	C85.283,115.168,83.825,117.354,83.825,117.354L83.825,117.354z"/>
<path fill-rule="evenodd" fill="#FFFFFF" d="M171.293,99.132c-1.458,0.729-2.915,0.729-3.645,1.458c-2.187,0-2.915,0-2.915-0.729
	c0,0,1.457-0.729,2.915-1.458c2.187-0.729,2.916-1.457,4.374-1.457c0.729,0,1.458,0,1.458,0c0,0.729,0.729,0.729-0.729,1.457
	C173.481,98.402,171.293,99.132,171.293,99.132L171.293,99.132z"/>
<path fill-rule="evenodd" fill="#4D2C2A" d="M161.089,125.372c2.187,0,2.915,3.645,2.915,5.103c0,0.729,0.729-1.458,0.729-1.458
	C164.004,126.83,164.004,125.372,161.089,125.372L161.089,125.372z"/>
<path fill-rule="evenodd" fill="#4D2C2A" d="M167.649,123.915c2.187,0,3.645,3.645,2.916,5.102c0,0.729,0.729-1.457,0.729-1.457
	C170.565,125.372,170.565,123.915,167.649,123.915L167.649,123.915z"/>
<path fill-rule="evenodd" fill="#4D2C2A" d="M142.137,128.288c2.916,0,3.645,3.645,3.645,5.103c0,0,0.729-1.458,0-1.458
	C145.053,129.746,145.053,128.288,142.137,128.288L142.137,128.288z"/>
<path fill-rule="evenodd" fill="#24211D" d="M132.662,139.95c0-1.457,0.729-3.645,0-5.102c-0.729-0.729,0.729-0.729,1.458,0
	C134.848,136.306,133.39,140.68,132.662,139.95L132.662,139.95z"/>
<path fill-rule="evenodd" fill="#24211D" d="M144.324,137.035c-0.729-0.729-0.729-2.916-1.457-3.645
	c-0.729,0,0.729-0.729,1.457-0.729C145.053,133.391,145.053,137.035,144.324,137.035L144.324,137.035z"/>
<path fill-rule="evenodd" fill="#24211D" d="M148.698,131.933c-0.729-0.729-0.729-2.187-1.458-2.916
	c-0.729-0.729,0.729-1.457,1.458-1.457C149.426,129.017,149.426,132.661,148.698,131.933L148.698,131.933z"/>
<path fill-rule="evenodd" fill="#24211D" d="M126.101,122.457c1.458,0.729,2.916,0,4.374,0c0.729-0.729,2.187-0.729,2.915-2.187
	v0.729c-0.729,0.729-2.187,1.458-2.915,2.187c-0.729,0-1.458,0-2.187,0C127.559,123.186,126.831,122.457,126.101,122.457
	L126.101,122.457z"/>
<path fill="none" stroke="#24211D" stroke-width="0" stroke-linecap="square" stroke-miterlimit="10" d="M126.101,122.457
	c1.458,0.729,2.916,0,4.374,0c0.729-0.729,2.187-0.729,2.915-2.187v0.729c-0.729,0.729-2.187,1.458-2.915,2.187
	c-0.729,0-1.458,0-2.187,0C127.559,123.186,126.831,122.457,126.101,122.457L126.101,122.457z"/>
<path fill-rule="evenodd" fill="#24211D" d="M161.089,134.119c0-0.729,0.729-2.187,0-3.645c-0.729-0.729,0.729-0.729,1.457,0
	C162.546,131.204,161.818,134.849,161.089,134.119L161.089,134.119z"/>
<path fill-rule="evenodd" fill="#24211D" d="M168.378,132.661c-0.729-0.729,0-2.187-0.729-3.645c0,0,1.458-0.729,1.458,0
	C169.835,130.475,168.378,133.391,168.378,132.661L168.378,132.661z"/>
<path fill-rule="evenodd" fill="#24211D" d="M174.938,130.475c-0.729-0.729-0.729-2.187-1.457-3.645
	c-0.729,0,0.729-0.729,1.457-0.729C175.667,127.56,175.667,130.475,174.938,130.475L174.938,130.475z"/>
<path fill-rule="evenodd" fill="#24211D" d="M56.855,114.438c1.458,1.458,2.916,0.729,4.373,0c1.458,0,2.188-0.729,2.916-1.457
	c0,0,0.729,0.729,0,0.729c-0.729,0-1.458,1.458-2.916,1.458c-0.729,0-1.457,0-2.187,0.729
	C58.313,115.896,57.583,115.168,56.855,114.438L56.855,114.438z"/>
<path fill="none" stroke="#24211D" stroke-width="0" stroke-linecap="square" stroke-miterlimit="10" d="M56.855,114.438
	c1.458,1.458,2.916,0.729,4.373,0c1.458,0,2.188-0.729,2.916-1.457c0,0,0.729,0.729,0,0.729c-0.729,0-1.458,1.458-2.916,1.458
	c-0.729,0-1.457,0-2.187,0.729C58.313,115.896,57.583,115.168,56.855,114.438L56.855,114.438z"/>
<path fill-rule="evenodd" fill="#24211D" d="M80.18,102.776c0.729,0.729,1.458,0,1.458,0c0.729,0,0.729,0,1.458-0.729l0,0
	c-0.729,0.729-0.729,0.729-1.458,0.729h-0.729C80.909,103.505,80.18,102.776,80.18,102.776L80.18,102.776z"/>
<path fill="none" stroke="#24211D" stroke-width="0" stroke-linecap="square" stroke-miterlimit="10" d="M80.18,102.776
	c0.729,0.729,1.458,0,1.458,0c0.729,0,0.729,0,1.458-0.729l0,0c-0.729,0.729-0.729,0.729-1.458,0.729h-0.729
	C80.909,103.505,80.18,102.776,80.18,102.776L80.18,102.776z"/>
</svg>
