<?xml version="1.0" encoding="utf-8"?>
<!-- Generator: Adobe Illustrator 13.0.0, SVG Export Plug-In . SVG Version: 6.00 Build 14948)  -->
<svg version="1.2" baseProfile="tiny" id="Layer_1" xmlns="http://www.w3.org/2000/svg" xmlns:xlink="http://www.w3.org/1999/xlink"
	 x="0px" y="0px" width="117.742px" height="156.395px" viewBox="0 0 117.742 156.395" xml:space="preserve">
<path fill="#F89F62" d="M39.02,13.12c0,0,4.373-1.458,5.831-1.458s1.458-2.187,2.187-1.458c0.729,0.729,0-1.458,0-1.458
	s8.747-2.187,10.934,2.188c1.458,0.729,5.104-0.729,6.561-0.729c2.188,0.729,3.646,1.458,3.646,1.458
	c-0.729,0.729-2.915,1.458-3.646,2.188c2.188,0,5.831,1.458,6.561,2.187c-2.186,0-2.915,2.188-3.645,2.916
	c2.188-1.458,5.104-0.729,8.018,1.458c-2.187,0-3.645,2.188-3.645,3.646c-0.729,0-0.729-0.729-1.458,0
	c-9.476-2.916-19.681-5.831-29.156-8.747C40.478,14.578,39.748,13.849,39.02,13.12L39.02,13.12z"/>
<path fill="#F89F62" d="M19.339,89.655c-1.458-2.188-4.373-4.373-4.373-4.373l-1.458,1.457c0,0-2.187-8.746-2.916-8.018
	c-0.729,1.458-2.187,6.561-3.645,2.187c-2.187-5.103,0.729-2.915-2.187-6.56c-2.916-3.646-5.83-12.392-4.372-17.494
	c0.729-4.374,0-11.663,2.187-11.663s-3.645,0.729-2.187-0.729c1.457-2.187,5.831-8.018,5.831-8.018s-5.103,1.457-2.187-1.458
	c3.645-3.646,3.645-3.646,3.645-3.646s-5.832,0.729-2.188-1.458c3.644-2.187,0.729-3.645,2.188-3.645
	c0.729,0,1.457,0.729,1.457,0.729s-3.645-2.915-3.645-8.018c0-4.373-0.729-16.765,0-16.036C6.947,2.915,6.219,0,9.134,0
	c2.188,0,13.121,5.103,13.85,5.831c0,1.458,10.934,6.561,9.476,8.019c-1.457,0.729,6.561-2.915,10.934-0.729
	c0.729,0.729,0.729,0.729,1.458,0.729l0,0l-4.373-0.729c0,0,16.765,7.289,18.951,12.393c2.187,5.83,8.748-3.645,12.394-3.645
	c0,0,5.102,2.915,5.102,3.646c0,0.729,4.373-2.916,5.832-2.916c2.187-0.729,8.019-2.188,10.205-2.916
	c2.914,0,3.645-0.729,6.56-0.729c2.188,0,2.916-0.729,3.646,0c0.729,0.729,0.729,1.458,0.729,3.646
	c-0.729,2.187-1.458,4.372-1.458,4.372s-1.458,6.562-2.916,8.02c-1.457,2.187,1.458,1.458-2.915,5.831
	c-3.645,4.373-6.561,5.831-6.561,5.831l1.457,1.458l-1.457,0.729l0.729,3.646l0.729,2.916l-2.916-2.188l1.459,5.831l-2.188-0.729
	c0,0,0.729,11.662-1.458,12.392c-1.458,0.729-2.915,1.457-2.915,1.457s0,9.478-2.188,11.663c-2.188,2.188-5.832,5.104-6.561,6.56
	c0,2.188-2.188-0.729-2.188-0.729c-5.832,4.373-7.288,4.373-6.561,4.373L19.339,89.655z M43.393,10.934L43.393,10.934L43.393,10.934
	L43.393,10.934z M47.037,11.662h0.729c-0.729-0.729,0-1.458,0-1.458C47.037,10.204,47.037,10.934,47.037,11.662L47.037,11.662
	L47.037,11.662z M47.767,12.391L47.767,12.391C48.495,12.391,48.495,12.391,47.767,12.391L47.767,12.391z M52.14,13.12L52.14,13.12
	L52.14,13.12L52.14,13.12L52.14,13.12l-2.915-5.103c-0.729,0.729-0.729,1.458,0,2.187C49.953,10.934,52.14,13.12,52.14,13.12
	L52.14,13.12z M49.225,8.018c0.729,0,1.457,0,3.645,0c0.729,0,2.187,0,2.915,0.729C52.869,8.018,49.225,8.018,49.225,8.018
	L49.225,8.018z M63.074,10.204c0.729-0.729,1.457-0.729,1.457-0.729S63.803,9.476,63.074,10.204L63.074,10.204z M67.447,10.934
	c1.458,0.729-2.188,2.915-2.188,2.915C60.158,13.849,67.447,10.934,67.447,10.934L67.447,10.934z M65.261,13.849
	c0,0,1.457-0.729,2.188,0.729C67.447,13.849,66.718,13.849,65.261,13.849L65.261,13.849z M68.175,18.223
	c0.729,0,0.729,0.729,0,0.729V18.223L68.175,18.223z M69.634,18.951c1.457,0,2.916,0,3.645,0H69.634z M73.278,18.951
	c0.729,0,0.729,0.729,0.729,0.729v0.729C74.007,19.68,73.278,18.951,73.278,18.951L73.278,18.951z"/>
<path fill="#F89F62" d="M63.803,93.3c0.729,0,1.458,0,3.646,3.646c0,0,8.018,1.458,1.457,1.458c0,0,5.102,3.645,7.289,5.103
	c2.915,1.457,9.477,10.204,8.746,8.747c-1.457-2.188-2.915,0-2.915,0s4.373,2.915,4.373,6.561c0,3.645,0.729,21.867-0.729,21.867
	c-0.729,0,3.646,0.729,3.646,0.729s2.915-1.458,3.646-0.729c0,0.729-0.729,2.187-0.729,2.187s2.188,0,4.374-1.457
	c2.188-1.458,1.458-2.916,2.188-2.916c1.457,0,2.916-1.458,2.916-1.458s2.914-3.645,2.914-5.103c0-2.188-0.729-8.019-2.187-8.746
	c-1.458-0.729,1.458-1.458,1.458-1.458s-6.561-9.477-8.747-9.477c-1.458-0.729-1.458-2.916-0.729-2.916
	c0.729,0-0.729-1.458-1.457-2.187c0-1.458-1.459-3.646,2.187-2.916c3.646,0.729,6.562,2.916,6.562,0.729
	c-0.729-1.457,1.457-1.457,3.645,0.729c2.915,2.916,2.915,3.645,2.915,3.645l0.729-2.187c0,0,0.729,2.187,1.457,3.645
	c1.457,1.458,4.373,5.831,5.103,8.747c0.729,2.188,1.458,17.493,0.729,17.493c-1.459,0,1.457,0,1.457,0s-5.832,5.831-4.373,5.831
	c0.729,0.729,1.457,0.729,1.457,0.729s-9.476,5.831-6.561,5.831c2.916,0.729-1.458,2.188-1.458,2.188l-10.204,2.916
	c0,0-18.223,2.915-24.055,1.458c-5.102-0.729-12.391-1.458-12.391-1.458L39.02,153.8c0,0-5.103-0.729-3.645-5.102
	c1.458-4.374,0-5.832,4.373-5.832c4.374,0,5.103,0,5.103,0l-1.458-2.915c0,0-5.831-1.458-5.831-2.187
	c0-1.458-1.458,5.102-1.458,5.102s-2.187,11.663-8.018,10.934c-5.831-1.457-17.494-0.729-17.494-0.729s-2.915-2.188-5.103-4.373
	c-1.457-2.188-3.645-4.374-1.457-7.289c1.457-3.645,5.102-3.645,5.102-3.645l5.103,0.729c0,0,2.187,0,2.916-3.645
	c0.729-4.373,2.187-16.766,2.187-16.766l-0.729-2.187c0,0-1.458,0.729-2.188-1.458c0-2.188-0.729-8.747,0.729-8.747
	s-2.187,0.729-2.187-0.729c0-2.187,2.187-11.662,3.645-10.934c1.458,0-2.188-0.729-2.188-0.729s3.646-1.458,3.646-2.916
	c0-0.729,0-1.457-0.729-1.457L63.803,93.3z M42.664,13.849L42.664,13.849L42.664,13.849L42.664,13.849z M45.58,14.578
	c0.729,0,0.729,0,0.729,0c-0.729-0.729,0-1.458,0.729-1.458c-0.729,0-0.729,0.729-0.729,1.458H45.58L45.58,14.578z M47.037,15.307
	L47.037,15.307L47.037,15.307L47.037,15.307z M50.682,16.035L50.682,16.035L50.682,16.035L50.682,16.035L50.682,16.035l-2.915-5.102
	c-0.729,0.729-0.729,1.457,0,2.187C48.495,13.849,50.682,16.035,50.682,16.035L50.682,16.035z M47.767,10.934
	c0.729,0,1.458,0,3.645,0c0.729,0,1.458,0,2.187,0.729C51.411,10.934,47.767,10.934,47.767,10.934L47.767,10.934z M61.615,13.12
	c0-0.729,0.729-0.729,1.459-0.729C62.345,12.391,61.615,12.391,61.615,13.12L61.615,13.12z M65.261,13.849
	c0.729,0.729-2.188,2.916-2.188,2.916C58.7,16.035,65.261,13.849,65.261,13.849L65.261,13.849z M63.074,16.765
	c0,0,1.457-0.729,2.188,0.729C65.261,16.765,64.531,16.765,63.074,16.765L63.074,16.765z M65.989,20.409
	c0.729,0.729,0.729,0.729,0,0.729C65.989,21.138,65.989,21.138,65.989,20.409L65.989,20.409z M67.447,21.138
	c1.458,0,2.915,0,3.645,0.729L67.447,21.138z M71.091,21.867h0.729c0,0.729,0,0.729-0.729,0.729
	C71.82,21.867,71.091,21.867,71.091,21.867L71.091,21.867z"/>
<path fill="#F4E4DD" d="M95.146,142.136c0.729,0,1.458,0,1.458-0.729c2.187-1.458,1.458-2.916,2.187-2.916
	c1.459,0,2.916-0.729,2.916-1.458c1.457,1.458,2.188,2.916,3.646,4.374c2.187,1.457,5.831,2.187,9.476,2.915
	c-2.187,0.729-8.746,5.103-6.561,5.103c2.916,0.729-1.458,2.188-1.458,2.188l-4.373,0.729c-2.916-2.916-5.831-8.747-5.831-8.747
	L95.146,142.136z M104.621,131.932L104.621,131.932c0-1.457-0.729-6.561-1.457-8.019c2.188,0,4.373,0,6.561-0.729
	c1.458-0.729,3.645-2.188,5.831-4.374v0.729c0,1.457,0.729,7.289,0.729,12.392c-4.375,0.729-9.478,0-9.478,0L104.621,131.932
	L104.621,131.932z"/>
<path fill="#FBC7B0" d="M29.544,19.68c0,0,0-5.103-2.187-6.561c-1.458-2.187-5.103-4.374-8.019-5.831
	c-2.916-1.458-9.476-5.103-9.476-5.103c-0.729,0-2.187-1.458-2.187,2.187c0,2.916-0.729,8.747,0,12.393
	c0.729,3.645,3.645,8.747,4.373,8.747c1.458,0.729,6.561,1.456,7.289,0c0.729-1.458,1.458-1.458,1.458-2.916
	c0.729-1.458,3.645,2.187,3.645,1.458c0-1.458-1.458-3.646-1.458-3.646s-0.729-2.916,2.187-1.458
	C28.086,19.68,29.544,19.68,29.544,19.68L29.544,19.68z"/>
<path fill="#FBC7B0" d="M80.567,29.885c0,0,1.458-2.916,5.103-5.103c4.373-2.188,5.104-2.915,9.477-3.645
	c3.645,0,4.373-1.458,6.561-0.729c2.188,0-5.103,15.307-5.103,15.307s-6.562,10.935-7.289,5.104
	c-1.458-5.104-2.187-2.916-2.187-2.916s1.457,0-0.729-2.915C83.483,32.801,80.567,29.885,80.567,29.885L80.567,29.885z"/>
<path fill="#FFFFFF" d="M44.851,15.307l-3.645-0.729c0,0,15.308,5.831,18.952,12.391c2.916,5.832,5.104,4.374,4.373,13.851
	c0,9.476,0,13.12-0.729,15.307c-1.459,2.188-2.916,6.562-2.916,8.02c0,0.729,0.729,4.373,2.188,0
	c2.188-5.831,2.915-14.578,2.915-21.14c0-2.915,1.458-11.662,1.458-11.662s0.729-8.019,4.373-8.746c3.645,0,2.188-2.188,2.188-2.188
	l-5.103-0.729c0,0,1.457-4.373-3.646-4.373c-4.373-0.729,2.916-2.916,2.916-2.916s-2.188-2.188-4.373-1.457
	c-2.188,0.729-4.374,3.645-4.374,3.645s-0.729-3.645-3.645-4.374c-2.915-1.458-6.56-0.729-6.56-0.729l3.645,5.103
	c0,0-3.645-3.645-4.374-2.916c-0.729,0-1.458,0.729,0,1.458c0.729,1.458-2.187-2.187-4.373-0.729
	C41.936,13.849,44.851,15.307,44.851,15.307L44.851,15.307z"/>
<path fill="#FBC7B0" d="M76.194,39.36c0,0-1.458,9.476-5.103,13.12c-2.916,4.374-5.832,9.477-5.832,9.477l-0.729,3.646
	c0,2.187,0.729,0,5.104-2.916c4.373-2.915,10.205-5.104,8.746-3.646c-0.729,0.729-0.729,2.188-0.729,2.188s5.104,1.458,5.104,0.729
	c0-0.729-0.729-0.729-2.188-2.187c-2.188-0.729,0.729-2.916,0.729-2.916s-3.645-0.729-8.746,2.187s-5.832,3.646-5.832,3.646
	s3.646-5.104,5.104-7.289c1.458-2.916,5.104-7.289,5.104-8.747C76.923,44.463,78.38,40.818,76.194,39.36L76.194,39.36z"/>
<path fill="#FBC7B0" d="M48.495,35.716c0,0,7.289,5.104,8.019,7.289c0,2.188,2.915,5.831,2.915,10.935
	C58.7,59.042,60.158,59.771,58.7,60.5c-0.729,1.458-3.645,2.188-3.645,3.646c0,0.729,0,2.187,0,2.187
	c-1.458,0-0.729-2.915-0.729-5.831c-0.729-2.916-8.018-9.476-9.476-10.934s-0.729,4.373-0.729,4.373s-2.187-0.729-3.645-0.729
	c-0.729,0.729-4.374-3.645-4.374-3.645s-0.729,2.187,0,3.645c0,0.729,1.458,1.458,1.458,1.458l-3.645-0.729c0,0-0.729-2.188,0-2.188
	s0.729,0.729,0.729,0.729s-0.729-3.646,0-3.646c0.729-0.729,0-3.645,2.187-1.457s3.645,4.373,4.373,4.373c0.729,0,1.458,0,1.458,0
	s-0.729-1.458-0.729-2.187c0-0.729,1.457-2.188,1.457-2.188s0.729-2.188,2.188,0c0.729,2.188,5.102,6.561,5.102,6.561
	s2.916,2.187,2.916,3.645c0.729,1.458,0.729,0.729,1.458,2.188c0,2.187,0,2.187,0,2.187s1.458-0.729,2.187-1.458
	c0.729-1.458,0.729-4.374,0.729-4.374s-1.457-5.102-1.457-7.289c-0.729-1.457-3.645-6.56-3.645-7.289
	C52.14,40.818,48.495,35.716,48.495,35.716L48.495,35.716z"/>
<path fill="#24211D" d="M55.056,83.824c-0.729-0.729-0.729,0-0.729,0c-1.457,7.289-8.018,7.289-12.391,5.831
	c-2.916-1.458-3.645-5.104-3.645-5.831c0,0.729-0.729,5.103,3.645,6.56C47.037,92.571,53.598,90.384,55.056,83.824L55.056,83.824z"
	/>
<path fill="#24211D" d="M63.803,88.197c0.729-0.729,0,0.729-2.916,2.187c-2.187,1.458-8.747,0-8.018-3.645
	c-0.729,4.374,5.831,5.832,8.018,4.374C63.803,89.655,63.803,88.197,63.803,88.197L63.803,88.197z"/>
<path fill="#24211D" d="M46.309,90.384c0,0,0.729,3.646,3.645,2.916c2.187,0,7.289-2.187,5.831-2.916
	C53.598,91.842,49.225,93.3,46.309,90.384L46.309,90.384z"/>
<path fill="#B76128" d="M65.261,93.3c0.729,1.458-5.104,4.373-5.104,4.373s0.729-4.373,0.729-2.187c0,2.186-9.476,4.374-9.476,4.374
	c-0.729,0.729,7.289-0.729,8.018-2.916c0,1.458,0,2.187,0,2.187S65.989,95.486,65.261,93.3L65.261,93.3z"/>
<path fill="none" d="M44.122,80.908c0,0-8.019-5.103-17.494-1.458"/>
<path fill="none" d="M41.936,80.908c0,0-8.019-3.645-15.308,1.458"/>
<path fill="none" d="M39.748,82.366c0,0-7.289-0.729-10.934,3.645"/>
<path fill="none" d="M43.393,83.094c0,0-7.289-1.456-13.849,5.104"/>
<path fill="none" d="M67.447,86.739c0,0,9.477,0.729,10.934,3.645"/>
<path fill="none" d="M68.175,87.469c0,0,5.832,0.729,8.02,2.915"/>
<path fill="none" d="M68.175,88.927c0,0,5.104,2.188,5.832,2.915"/>
<path fill="#F4E4DD" d="M6.219,32.801c0,0,3.645,8.019,7.289,12.392c3.645,3.645,2.915,2.188,2.915,2.188s2.188,2.188-2.915,2.188
	c-4.374,0.729-10.205-4.374-10.205-4.374H0.388l1.457-3.646l4.374-5.102H3.303L6.219,32.801z"/>
<path fill="#F4E4DD" d="M0.388,60.499V59.77c0,0,5.831,5.831,9.476,5.102c3.645,0,5.831,2.188,2.187,4.374
	c-3.645,1.458-5.831,3.646-7.289,2.915c-2.187-0.729-3.645-5.831-3.645-5.831S-0.342,62.686,0.388,60.499L0.388,60.499z"/>
<path fill="#F4E4DD" d="M65.989,94.758c0,0,0,12.393-4.374,16.036c-4.373,3.646,1.459,2.915,1.459,2.915
	c6.561-2.187,13.85-10.204,12.391-10.934c-1.457-1.458-6.56-4.373-6.56-4.373l2.187-0.729l-3.645-0.729L65.989,94.758z"/>
<path fill="#F4E4DD" d="M80.567,107.149c0,0-4.373,9.476-5.831,10.934c-2.188,1.458-5.104,5.104,0,4.373
	c4.373-0.729,10.934-6.56,10.934-6.56l-2.187-3.646l0.729-0.729L80.567,107.149z"/>
<path fill="#F4E4DD" d="M86.398,127.559c0,0-2.915,2.916-4.373,2.916c-1.458-0.729-3.645,2.187-0.729,2.915c2.188,0,5.103,0,5.103,0
	L86.398,127.559L86.398,127.559z"/>
<path fill="none" d="M20.797,97.673c0,0-3.645,6.562,1.458,4.374c4.373-2.916-2.916,2.188-2.187,6.562"/>
<path fill="#B76128" d="M9.134,151.612c-2.187-1.458-1.457-6.561,2.916-8.747c3.645-1.457,6.561,0.729,7.289,0.729
	c0,0-2.916-2.187-7.289,0C8.405,145.052,7.677,150.884,9.134,151.612L9.134,151.612z"/>
<path fill="#B76128" d="M36.833,137.764c1.458-2.188,1.458-1.458,2.187-3.646c-0.729,0.729,0,0.729,0.729-0.729
	c1.458,0-0.729-2.915,0-3.646c1.458-0.729,3.645-13.12,2.916-13.849c0,0-2.187,12.391-3.645,13.12
	c-0.729,1.458,0.729,2.915,0.729,4.373c-0.729,0.729-0.729-0.729-1.457-1.458C38.291,134.848,38.291,134.848,36.833,137.764
	L36.833,137.764z"/>
<path fill="none" d="M19.339,118.083c0,0,1.458,5.104,4.374,8.019"/>
<path fill="#B76128" d="M41.206,153.799c0,0-3.645-2.915-2.915-7.289c0.729-4.373,7.289-4.373,8.018-3.645
	c0,0.729-6.561-0.729-7.289,3.645C38.291,150.154,41.206,153.799,41.206,153.799L41.206,153.799z"/>
<path fill="#B76128" d="M65.989,154.528c-10.934-4.374-19.681-7.289-21.867-13.12c-3.645-10.205,3.645-21.139,13.12-19.681
	c0,0-2.187-2.188,2.187-2.188c3.645,0,1.458,7.289,2.188,2.188c1.457-4.374,2.188,1.458,2.188,1.458
	c0,0.729-0.729-5.104-2.188-0.729c-0.729,5.104,0.729-1.458-2.188-2.187c-2.915-0.729-0.729,1.458-0.729,1.458
	c-10.205-1.458-18.223,10.934-13.12,20.408C48.495,147.968,56.514,150.884,65.989,154.528L65.989,154.528z"/>
<path fill="#FFFFFF" d="M29.544,19.68c0,0-8.747-2.915-10.934-1.457c-2.916,1.457,2.915-2.188,4.373-2.188
	c2.187,0-1.458-0.729-5.103,0c-3.645,0.729,2.916-2.915,2.916-2.915h-5.103c0,0,0.729-3.645,2.916-3.645
	c2.187,0.729,0-1.458-3.645-2.188C11.321,6.56,6.219,0.729,9.863,2.187c2.915,1.458,11.662,5.831,13.85,8.018
	c2.187,1.458,4.373,3.646,4.373,3.646L29.544,19.68z"/>
<path fill="#FFFFFF" d="M80.567,29.885l5.831,5.104h2.188l-4.373-2.188c0,0,0.729-2.916,3.645-2.916
	c2.188,0-2.916-1.458-2.916-1.458l5.832-2.187c0,0-6.561,0-2.916-1.458c3.645-0.729,3.645-2.915,7.289-3.645
	c2.916-0.729-5.831,1.457-9.477,3.645C82.753,26.969,80.567,29.885,80.567,29.885L80.567,29.885z"/>
<path fill="#24211D" d="M64.531,85.282c0.729,0,0.729-0.729,0.729-0.729c0-0.729,0-0.729-0.729-0.729c0,0,0,0,0,0.729V85.282
	L64.531,85.282z"/>
<path fill="#24211D" d="M62.345,86.739c0,0,0,0,0-0.729v-0.729c-0.729,0-0.729,0.729-0.729,0.729
	C61.615,86.739,61.615,86.739,62.345,86.739L62.345,86.739z"/>
<path fill="#24211D" d="M60.887,84.552c0.729,0,0.729,0,0.729-0.729c0,0,0-0.729-0.729-0.729v0.729
	C60.887,84.552,60.887,84.552,60.887,84.552L60.887,84.552z"/>
<path fill="#F8C4C3" d="M53.598,78.722c0,0,5.831,0.729,6.562,1.458c0,1.458-0.729,2.187-2.188,2.914
	c-0.729,0-1.457,0.729-2.915,0.729c-0.729,0-0.729,0.729-2.187-0.729c-0.729-0.729-1.458-2.914-1.458-2.914
	S50.682,77.993,53.598,78.722L53.598,78.722z"/>
<path fill="#24211D" d="M47.767,81.638c0.729,0,0.729,0,0.729-0.729c0,0,0-0.729-0.729-0.729v0.729
	C47.767,81.638,47.767,81.638,47.767,81.638L47.767,81.638z"/>
<path fill="#24211D" d="M45.58,83.094L45.58,83.094c0-0.729,0-0.729,0-0.729c-0.729,0-0.729,0-0.729,0.729
	C44.851,83.094,44.851,83.094,45.58,83.094L45.58,83.094z"/>
<path fill="#24211D" d="M48.495,85.282c0.729,0,0.729,0,0.729-0.729c0,0,0-0.729-0.729-0.729l-0.729,0.729
	C47.767,85.282,48.495,85.282,48.495,85.282L48.495,85.282z"/>
<path fill="#24211D" d="M42.664,67.06c-2.187-7.289-13.12-10.205-21.139-10.936c0,0,5.103-5.102,11.663-4.373
	c2.915,0.729,5.103,2.188,6.56,3.646c0.729,2.187,1.458,3.645,2.188,4.374C42.664,61.228,42.664,67.06,42.664,67.06L42.664,67.06z"
	/>
<path fill="#24211D" d="M42.664,70.704c0,0,1.458-7.289-2.187-12.392c-2.187-3.646-15.308-5.104-17.494-0.729
	c0,0.729,0,1.458,0.729,2.188c1.457,6.56,2.915,8.018,5.831,9.476c2.187,1.458,6.56,1.458,10.204,0.729
	C41.206,69.975,41.936,70.704,42.664,70.704L42.664,70.704z"/>
<path fill="#FFFFFF" d="M41.936,69.975c0,0,2.187-6.561-1.458-11.662c-2.916-3.646-14.578-5.104-16.765-0.729
	c0,0.729,0,1.458,0,2.188c1.457,5.831,3.645,7.289,5.831,8.746c2.187,1.458,6.56,1.458,10.204,0.729
	C40.478,69.246,41.206,69.975,41.936,69.975L41.936,69.975z"/>
<path fill="#8B443C" d="M33.188,69.975c3.645,0,6.56-2.915,6.56-6.561c0-3.645-2.915-6.561-6.56-6.561s-6.561,2.916-6.561,6.561
	C26.627,67.06,29.544,69.975,33.188,69.975L33.188,69.975z"/>
<path fill="#D27F44" d="M42.664,67.06c-0.729-8.02-10.934-11.663-19.681-10.205c0,0,5.103-5.104,10.934-3.646
	c2.916,0.729,4.374,2.188,5.831,3.646c1.458,1.458,1.458,2.916,2.188,3.645C42.664,61.957,42.664,67.06,42.664,67.06L42.664,67.06z"
	/>
<path fill="#24211D" d="M32.459,68.517c2.188,0,4.374-1.457,4.374-3.646c0-2.187-2.187-4.373-4.374-4.373s-3.645,2.188-3.645,4.373
	C28.814,67.06,30.272,68.517,32.459,68.517L32.459,68.517z"/>
<path fill="#FFFFFF" d="M30.272,59.771c1.458,0,2.187,0.729,1.458,2.187c0,0.729-0.729,1.458-2.187,1.458s-2.187-1.458-1.458-2.188
	C28.086,59.771,29.544,59.041,30.272,59.771L30.272,59.771z"/>
<path fill="#24211D" d="M87.128,70.704c-5.104-0.729-10.205-0.729-15.309-1.458c2.188-2.187,5.831-4.374,12.393-2.916
	C87.128,67.788,87.128,70.704,87.128,70.704L87.128,70.704z"/>
<path fill="#24211D" d="M71.82,69.246c5.104-4.374,19.682-4.374,13.85,5.831c-2.187,3.646-2.916,2.916-7.289,4.373
	c-2.916,0.729-5.83-0.729-7.289-1.457c-1.457-1.458-2.916,0-2.916-2.188C68.175,73.619,70.362,70.704,71.82,69.246L71.82,69.246z"/>
<path fill="#FFFFFF" d="M71.82,69.975c5.104-3.646,18.952-3.646,13.12,5.103c-2.187,3.646-2.915,2.188-7.289,3.646
	c-2.187,1.458-4.373,0-5.831-1.458c-2.188-0.729-2.915,0.729-2.915-1.458C68.905,74.349,70.362,71.433,71.82,69.975L71.82,69.975z"
	/>
<path fill="#8B443C" d="M78.38,78.722c2.916,0,5.832-2.188,5.832-5.831c0-2.916-2.916-5.831-5.832-5.831
	c-3.645,0-5.83,2.915-5.83,5.831C72.55,76.535,74.736,78.722,78.38,78.722L78.38,78.722z"/>
<path fill="#D27F44" d="M86.398,70.704c-4.373-3.645-9.477-3.645-14.578-1.458c2.188-1.458,5.104-3.645,11.663-2.187
	C86.398,67.788,86.398,70.704,86.398,70.704L86.398,70.704z"/>
<path fill="#24211D" d="M77.651,77.264c2.188,0,3.646-1.458,3.646-3.646c0-2.187-1.457-3.645-3.646-3.645
	c-1.457,0-3.646,1.458-3.646,3.645C74.005,75.806,76.194,77.264,77.651,77.264L77.651,77.264z"/>
<path fill="#FFFFFF" d="M74.736,73.619c1.458,0,2.188-1.458,2.188-2.187c0-0.729-0.729-2.188-2.188-2.188
	c-0.729,0-1.458,1.458-1.458,2.188C73.278,72.161,74.007,73.619,74.736,73.619L74.736,73.619z"/>
<path fill="#B76128" d="M5.489,148.697c-1.457-1.458,0.729-5.104,1.458-6.562s4.374-2.916,8.019-2.187
	c4.373,0,1.457-1.458,2.915-0.729c2.188,0,2.916-8.018,3.645-10.203c1.458-2.916,3.645-14.578,3.645-14.578
	c0,0.729-1.457,12.392-2.915,15.307c-1.458,2.188-2.187,10.205-3.645,10.205c-1.458-0.729,0.729,1.458-2.916,0.729
	c-4.373-0.729-8.018,0.729-8.747,2.187C6.219,144.323,4.032,147.968,5.489,148.697L5.489,148.697z"/>
<path fill="#24211D" d="M93.688,67.788c0,0-1.458,2.916-3.646,2.916c-2.187,0-5.103-0.729-4.373-1.458
	C87.856,69.975,91.501,70.704,93.688,67.788L93.688,67.788z"/>
<path fill="#24211D" d="M92.958,64.872c0,0,0,2.916-2.187,3.646c-2.188,0.729-5.103,1.458-4.374,0.729
	C87.856,69.246,92.229,67.788,92.958,64.872L92.958,64.872z"/>
<path fill="#24211D" d="M13.508,53.938c0,0,2.187,3.645,5.103,3.645c2.915,0,8.018-1.458,6.56-2.187
	C22.983,56.854,16.423,57.583,13.508,53.938L13.508,53.938z"/>
<path fill="#24211D" d="M14.966,48.836c0,0,0.729,4.374,2.915,5.832c2.916,1.457,8.019,2.188,6.561,0.729
	C22.255,56.125,16.423,53.938,14.966,48.836L14.966,48.836z"/>
<path fill="#24211D" d="M84.212,59.771c-2.188-1.458-4.373-0.729-4.373-0.729S78.38,59.771,79.11,60.5
	c0.729,0.729,3.646-0.729,4.374,0.729C84.94,62.686,84.212,59.771,84.212,59.771L84.212,59.771z"/>
<path fill="#24211D" d="M33.917,45.921c-1.458-1.458-3.645-1.458-3.645-1.458s-2.187,1.458-1.458,1.458
	c0.729,0.729,3.645,0,4.374,1.458C34.646,48.836,33.917,45.921,33.917,45.921L33.917,45.921z"/>
</svg>
