<?xml version="1.0" encoding="utf-8"?>
<!-- Generator: Adobe Illustrator 13.0.0, SVG Export Plug-In . SVG Version: 6.00 Build 14948)  -->
<svg version="1.2" baseProfile="tiny" id="Layer_1" xmlns="http://www.w3.org/2000/svg" xmlns:xlink="http://www.w3.org/1999/xlink"
	 x="0px" y="0px" width="171.346px" height="150.414px" viewBox="0 0 171.346 150.414" xml:space="preserve">
<g>
	<path fill="#EEB875" d="M137.418,108.607l-8.019,5.832l11.663,10.934c1.458,3.646,8.019-7.289,7.289-9.477
		C147.623,111.523,141.063,106.419,137.418,108.607L137.418,108.607z"/>
	<path fill="#24211D" d="M146.894,112.251l6.561,5.103c0,0,2.916,7.289,0,11.664c-2.916,5.104-3.646,4.373-3.646,4.373
		s-3.646,0.729-4.373-1.459c-1.458-2.187-4.374-6.56-4.374-6.56s3.646-0.729,4.374-2.916
		C146.894,120.27,147.623,118.083,146.894,112.251L146.894,112.251z"/>
	<path fill="#EEB875" d="M51.016,112.529l-6.17,14.301c0,0,6.007,12.551,13.295,3.803c0,0,0.554-3.074,0.554-3.803
		c0.729-4.373,1.518-9.543,2.246-12.459c-0.729-0.729-6.804-1.961-8.262-1.961L51.016,112.529z M57.967,128.289L57.967,128.289
		L57.967,128.289L57.967,128.289L57.967,128.289z"/>
	<path fill="#24211D" d="M44.847,126.83l-4.373,8.02c0,0-1.458,2.188,1.458,4.373c3.646,2.188,7.289,2.916,8.747,2.188
		c0.729-0.729,5.83-1.457,5.83-2.916c0-2.187-0.729-4.373,1.458-6.562c2.188-1.457-0.729-1.457-0.729-1.457
		C52.865,132.662,47.763,131.205,44.847,126.83L44.847,126.83z"/>
	<path fill="#F5D6D6" d="M155.641,55.397h2.188c0,0,0-4.373,2.188-4.373s4.374,0.729,4.374,2.187c0,2.187,2.188-0.729,4.373-0.729
		c2.187,0,2.188,5.103,0.729,5.832c-0.729,0.729,0,0,1.458,2.915c1.458,3.645-1.458,5.103-2.916,4.374
		c-1.458,0,2.916,1.457,2.188,5.103c-0.729,3.645-6.561,4.373-6.561,2.915c0-2.187-1.458,4.375-3.646,1.458
		c-2.916-2.916-2.916-2.916-2.916-2.916s4.374-4.373,2.916-6.56c-0.729-1.458-2.188-2.916-2.188-2.916V60.5
		c0,0-1.458-3.645-2.916-2.187C153.454,59.77,157.099,55.397,155.641,55.397L155.641,55.397z"/>
	<path fill="#F5D6D6" d="M79.105,25.512L79.105,25.512c1.458,0.729,2.188,2.915,2.188,4.373l0,0c0,0.729,0,0.729,0,0.729l0,0
		c0,0.729,0,0.729,0,1.458l0,0c0,0.729-0.729,0.729-0.729,1.458l0,0c0,0.729,0,0.729-0.729,1.458l0,0c0,0,0,0,0.729,0
		c0.729,0-1.458,1.458-2.916,2.187l0,0l0,0c0,0.729,0,0.729-0.729,0.729l0,0l0,0l0,0l0,0l0,0l0,0v0.729l0,0H76.19l0,0l0,0l0,0l0,0
		l0,0v0.729l0,0h-0.729l0,0l0,0l0,0l0,0l0,0l0,0l0,0l0,0l0,0l0,0l0,0h-0.729l0,0v0.729l0,0l0,0l0,0l0,0l0,0l0,0l0,0h-0.729l0,0l0,0
		l0,0l0,0l0,0l0,0l0,0l0,0l0,0c0,0,0,0-0.729,0.729l0,0c-0.729,0.729-2.188,0.729-3.646,1.458l0,0l0,0l0,0l0,0l0,0l0,0l0,0l0,0l0,0
		l0,0l0,0l0,0l0,0l0,0l0,0l0,0l0,0l0,0l0,0l0,0l0,0l0,0c0,0,0,0,0,0.729l0,0l0,0l0,0l0,0l0,0l0,0c0,0.729,0,0.729,0,1.458l0,0l0,0
		l0,0l0,0c0,0.729,0,0.729,0,0.729l0,0v0.729l0,0l0,0l0,0l0,0v0.729l0,0c1.458,2.916,2.916,5.831,2.916,5.831l0,0h0.729
		c0,0,0,5.103,0.729,5.103h-0.729c-2.916,11.663-9.477,16.766-19.681,21.867l0,0l0,0v0.729l0,0l0,0l0,0l0,0
		c-2.188,0.729-6.561,2.916-8.747,3.646l0,0l0,0l0,0l0,0l0,0c-0.729,0-0.729-0.729-0.729-0.729l0,0l0,0l0,0l0,0l0,0l0,0H33.913
		c-0.729,0-0.58-0.037-1.31-0.768l-2.733-0.759l-0.33,1.524l0,0l0,0c-2.188,2.916,2.916,4.375,2.916,4.375s-1.458,1.457-1.458,4.373
		c0,2.188,5.832,2.188,4.374,2.188c-1.458,0.729,0,0.729-1.458,4.373c-1.458,3.644,6.562,4.373,4.374,4.373
		s-1.458,1.457-1.458,2.916c0.729,2.188,5.103,0.729,5.103,0.729s-1.458,0-0.729,4.375c0.729,3.645,5.104,0,5.832,3.645
		c1.458,2.916,5.831-2.188,5.103-0.729c0,1.457,4.822,4.282,4.822,4.282s-0.356-2.317,0.535-3.149
		c1.724-0.416,1.47,0.965,2.198,3.149c1.457,2.188-0.019,3.192,3.625,3.923c3.646,0,1.939-16.953,1.939-16.953l4.374,1.459
		c0,0,2.916,1.457,0.729,2.188c-2.188,0.729,0,3.646-0.729,5.832c0,2.187-0.729,5.103-1.458,6.56c-0.729,2.188,5.104-1.457,5.104,0
		c-0.729,0.729,2.188,2.188,4.374,2.916c2.188,0.729,3.646-2.916,3.646-2.916s0,2.916,2.916,2.916s2.188,0,2.188,0.729
		c0,1.457,2.916,2.187,5.832,2.916c2.188,0,2.188-5.832,2.188-4.375c0.729,1.459,2.916,2.916,5.104,2.916s1.458-3.645,1.458-2.188
		c0,0.729,3.646,1.459,5.832,0.729c2.188-0.729,2.188-3.646,2.188-3.646l1.458,0.729h3.646l3.646-5.832l3.051-3.256
		c2.187-2.916,4.683-8.395,2.496-10.58c0.729,1.457-0.443-0.014,2.472-0.741c2.916-0.73,0.729-3.646,0.729-0.73
		c0.729,2.188,5.103,3.646,5.103,3.646l0.729,5.102c0,0-1.458,6.562,0,6.562c1.458,0.729,4.374,1.457,5.832,0
		c0.729-1.457,0-7.289,0.729-3.646c0.729,2.916,4.373,0.729,4.373,0.729s0-5.104-0.729-3.646c0,2.187,7.289-0.729,8.018-3.646
		c0.729-2.188-1.458-5.104-0.729-4.375c0.729,0.729,4.374-0.729,5.103-2.188c0-1.457-2.187-3.645-2.187-2.914
		c0,0.729,4.372-1.459,4.372-3.645c0.729-2.189-5.103-1.459-1.457-2.189c2.915,0,3.645-4.372,3.645-6.559
		c0-1.459-4.374-2.188-2.187-2.188c1.457,0.729,2.915-2.915,3.645-4.374c0-1.457-2.187-1.457-2.187-1.457s2.187-2.188,2.187-3.646
		c0.729-1.457-2.187-2.187-2.187-2.187l1.457-2.187c0,0,0,0,1.458-2.187c1.458-2.188-4.373-4.374-2.916-4.374
		c1.458,0,0.729-2.187,0-2.915c-0.729-0.729-3.646,0-3.646,0.729c0.729,1.458,2.916-3.645,2.916-5.831
		c0.729-2.187-2.188-3.645-3.646-4.374s-4.373,1.458-4.373,1.458s2.187-0.729,2.916-2.187c0.729-1.458,0-3.645-2.188-5.103
		c-1.458-1.458-2.916,1.458-2.916,1.458s0-0.729,0-2.916s-2.187-2.915-3.645-3.645c-2.188-0.729-5.104,1.458-5.104,1.458
		s0.729-0.729,1.458-2.187c1.458-2.187-0.729-2.916-2.187-3.645c-1.458-1.458-4.374,1.458-4.374,1.458s0.729,0,1.458-2.187
		c1.458-2.188-1.458-2.188-2.188-2.916c-0.729-0.728-2.915,2.916-2.915,2.916s0.729-2.188,0.729-4.374
		c-0.729-1.458-3.646-2.915-6.561-2.915c-2.188,0-3.646,2.188-3.646,2.188s0-4.374-2.916-5.104
		c-3.646-0.729-2.916,5.831-2.188,4.373c0-2.187-2.188-5.103-4.374-5.831c-1.458-0.729-6.562-0.729-8.019,0.729
		c-1.458,0.729-2.188,3.646-2.188,3.646s0,0-0.729-2.916c0-2.187-5.104-2.187-5.832-2.187c-1.458,0-2.188,2.915-2.188,2.187
		c0-0.729-2.188-2.187-3.646-1.458c-2.188,1.458,0,2.916,0,2.916s0-1.458-4.374-2.188C81.292,21.138,79.834,24.054,79.105,25.512
		L79.105,25.512z"/>
	<path fill="#FFFFFF" d="M79.105,26.969L79.105,26.969c1.458,0.729,2.188,2.188,2.188,4.374l0,0v0.729l0,0c0,0.729,0,0.729,0,1.458
		l0,0c0,0.729-0.729,0.729-0.729,1.458l0,0c0,0-0.729,0.729-0.729,1.458l0,0c-8.019-8.019-20.409-3.645-10.205,10.934l0,0
		c1.458,2.915,2.916,5.831,2.916,5.831c0.729,0,0.729,0,0.729,0l0,0l0.729,4.373v0.729c-2.916,10.934-10.205,16.036-19.682,21.138
		l0,0l0,0l0,0l0,0h-0.729l0,0l0,0c-1.458,1.459-5.83,3.646-8.018,3.646l0,0l0,0l0,0l0,0l0,0c0,0,0,0-0.729,0l0,0l0,0l0,0l0,0l0,0
		l0,0H35.37c-1.458,0-1.512-0.41-2.97-0.41l-0.557-0.506c0,0-0.131,0.102-0.861,0.102l0.013,0.814l0,0l0,0l0,0l0,0
		c-2.916,2.188,2.916,3.646,2.916,3.646s-2.188,2.188-2.188,4.373s5.831,2.188,4.374,2.916c-0.729,0,0,0-1.458,3.645
		c-1.458,3.646,6.561,4.373,4.374,4.373c-1.458-0.729-0.729,1.459-0.729,2.916s4.374,0,4.374,0s-1.458,0.729-0.729,4.373
		c0.729,3.646,5.104,0.729,6.561,3.646c0.729,3.646,5.104-2.187,4.373-0.729c0,1.459,2.916,3.646,2.916,3.646
		s-0.729-2.916,1.458-4.373c2.916-1.459,1.458-6.563,2.916-4.373c0.729,2.187-1.458-2.916,2.188-2.916
		c2.916,0.729,3.646-0.729,3.646-0.729l4.374,2.188c0,0,2.188,1.458,0,1.458c-1.458,0.729,0,3.646-0.729,6.56
		c0,1.459-0.729,4.375-0.729,5.832c-0.729,2.188,4.374-1.457,4.374,0c-0.729,0.729,2.188,2.188,4.374,2.916
		c2.188,0.729,3.646-2.916,3.646-2.916s0,2.916,2.188,2.916c2.916,0,2.188,0,2.188,0.729c0,0.729,3.646,2.188,5.831,2.188
		c2.916,0.729,2.188-5.103,2.916-3.646c0,1.457,2.916,2.916,4.374,2.916c2.188,0,1.458-3.646,1.458-2.188
		c0.729,0.729,3.646,1.457,5.831,0.729c2.188-0.729,2.188-3.645,2.188-3.645l1.458,0.729c0,0,3.646,0,2.916,0l4.374-5.104
		l-0.729-5.103c2.188-2.188,3.646-8.747,1.458-10.936c0.729,1.46,3.646,2.188,6.561,1.46c2.915-0.729,0.729-3.646,1.458-0.729
		c0,2.187,4.374,3.646,4.374,3.646l1.458,5.103c0,0-2.188,5.832-0.729,6.561c1.458,0,4.374,1.459,5.832-0.729
		c0.729-1.458,0-6.562,0.729-3.646c0.729,3.646,4.374,1.457,4.374,1.457s0-5.103-0.729-3.646c-0.729,1.458,6.56-0.729,7.288-3.646
		c1.458-2.914-0.729-5.102-0.729-4.373c0.729,0.729,4.374-0.729,5.104-2.187s-2.188-3.646-2.188-2.916
		c0.729,0.729,4.374-1.458,4.374-3.646c0.729-2.186-4.374-1.457-1.458-1.457c3.646-0.729,4.374-5.102,4.374-6.561
		c0-1.457-4.374-2.916-2.916-2.188c2.188,0.729,3.646-2.916,3.646-4.373c0.729-1.459-2.188-1.459-2.188-1.459
		s2.188-2.187,2.188-3.645c0.729-1.457-1.458-2.187-1.458-2.187l0.729-2.187c0,0,0,0,1.458-1.458
		c1.458-2.187-4.374-4.373-2.916-4.373s1.458-2.188,0.729-2.916c-1.458-1.458-3.646,0-3.646,0.729s2.188-4.373,2.916-5.831
		c0-2.187-2.188-3.645-3.646-4.373c-1.458-0.729-4.374,1.458-4.374,1.458s1.458-0.729,2.188-2.188c1.458-1.457,0-3.645-1.458-5.102
		c-2.188-0.729-2.916,1.457-2.916,1.457s0-0.729,0-2.915s-2.188-2.916-3.646-3.645c-2.188-0.729-5.103,2.187-5.103,2.187
		s0.729-0.729,1.458-2.916c0.729-1.457-0.729-2.187-2.187-3.645c-1.458-0.729-4.374,2.188-4.374,2.188s0.729,0,2.187-2.188
		c0.729-2.187-2.187-2.187-2.916-2.915c-0.729-0.729-2.915,2.915-2.915,2.915s0.729-2.915,0.729-4.373s-3.646-2.916-5.832-2.916
		c-2.916,0-3.646,1.458-3.646,1.458s0-3.645-2.916-4.373c-3.646,0-2.916,5.831-2.916,4.373c0.729-2.187-1.458-4.373-3.646-5.831
		c-1.458-0.729-6.561,0-8.019,0.729s-1.458,3.645-1.458,3.645s-0.729,0-0.729-2.915c-0.729-2.188-5.832-2.188-6.562-2.188
		c-0.729,0-2.188,3.646-2.188,2.188c0-0.729-2.188-2.188-3.646-1.458c-1.458,1.458,0,2.916,0,2.916s0-1.458-3.646-2.188
		C81.292,23.325,79.834,25.512,79.105,26.969L79.105,26.969z"/>
	<path fill="#F5D6D6" d="M19.335,33.53c1.458,1.458,2.916,2.187,4.374,2.187c2.916,2.187,5.832,0,8.747-5.103
		c0-0.729,0-0.729,0-0.729h-3.646c0,0,0,0,3.646,0c5.831,0.729,9.477-2.916,11.663-5.103c0-0.729,0.729-0.729,0.729,0
		c1.458,1.458,2.916,2.916,5.832,3.645l0,0c0,0-3.646-8.747-1.458-5.103c1.458,3.645,0,2.188,2.916,5.832l0,0
		c1.458,1.457,2.188,2.187,2.916,2.187c2.916,1.458,5.83,0.729,5.83,0.729l0,0c0,0,0.729-1.458,2.188-2.188
		c0.729-0.729,1.458-0.729,2.188-1.458c1.458-1.458,3.646-2.187,4.374-2.915s2.188-1.458,3.646-1.458
		c2.188-0.729,3.646-1.458,4.374-1.458c2.188,0,4.373,0,5.831,0.729c0.729-0.729,1.458-2.915-0.729-4.373
		c-2.188-2.187-3.646,4.373-2.188-0.729c1.458-4.373-2.916-5.831-4.374-6.56c-1.458-1.458-5.104,1.458-5.104,1.458
		s0.729-0.729,2.188-2.187c2.188-1.458,0.729-4.374-0.729-4.374c-0.729-0.729-2.916,2.187-2.916,2.187s0-2.916,0-4.374
		C68.901,2.187,65.256,0,62.341,1.458c-2.188,1.458-1.458,3.645-1.458,3.645s-0.729-0.729-0.729-2.187
		C59.425,0.729,56.509,0,53.594,0s-2.916,7.289-2.916,5.102c0-2.916-2.916-2.916-5.832-2.916c-2.188,0-1.458,5.103-1.458,5.103
		S41.931,6.56,40.474,6.56C39.016,5.831,36.1,8.747,36.1,8.747l3.507,2.628c0,0,0.866,4.661,1.596,2.475
		c0-2.187-4.364-6.137-7.28-5.408c-3.646,0-2.925,3.951-2.925,3.951s0-1.458,0-3.645s-4.374-4.374-5.831-2.187
		c-2.188,2.187,0,5.103,0,4.374c-0.729-0.729-2.188-2.187-4.374-2.916c-1.458-0.729-2.188-0.729-4.374,1.458
		c-2.916,2.187,1.458,5.832-1.458,5.102c-2.188-0.729-5.831-0.729-5.831,2.188c-0.729,3.645,0,6.56,0,6.56s-2.916-0.729-3.646,0
		c0,0.729,1.458,3.645,1.458,3.645s-5.104,0.729-6.562,3.645s1.458,5.832,5.104,6.561c2.188,0.729,4.374-8.747,2.916-2.187
		c-2.188,6.56,2.916,8.747,5.832,8.747c0.729-1.458,1.458-2.188,2.916-2.916l0,0c0.729-1.458-2.916-0.729-2.916-0.729l2.916,0.729
		l0,0l0,0l0,0l0,0V40.09c0.729-0.729,1.458-1.458,2.188-1.458c1.458-1.458-3.646-1.458-3.646-1.458s3.646,0.729,5.104,0l0,0l0,0
		C22.25,35.716,19.335,33.53,19.335,33.53L19.335,33.53z"/>
	<path fill="#FFFFFF" d="M20.793,32.072c1.458,1.458,2.916,1.458,4.374,2.187c2.188,1.458,5.103,0,8.019-5.102l0,0l-3.646-0.729
		c0,0,0.729,0.729,4.373,0.729c4.374,0,8.747-2.916,10.205-5.832c0.729,0,0.729,0,1.458,0.729c0.729,1.458,2.188,2.187,5.104,2.915
		l0,0c0,0-2.916-7.289-1.458-4.373c1.458,3.645,0.729,2.187,2.916,5.831l0,0c1.458,0.729,2.188,1.458,2.916,2.188
		c2.188,0.729,5.102,0,5.102,0l0,0c0,0,1.458-0.729,2.916-2.188c0,0,0.729-0.729,1.458-0.729c1.458-1.458,2.916-2.916,4.374-3.646
		c0.729,0,2.188-0.729,3.646-0.729c1.458-0.729,2.916-1.458,3.646-1.458c2.188,0,4.374,0,5.831,0.729
		c0.729-0.729,0.729-2.916-0.729-3.645c-2.188-2.187-3.646,3.645-2.188-0.729c1.458-4.373-2.188-5.831-3.646-6.56
		s-5.103,1.458-5.103,1.458s0-0.729,2.188-1.458c2.188-1.458,0.729-4.374-0.729-4.374c-1.458-0.729-3.646,1.458-3.646,1.458
		s0.729-2.187,0-3.645c0-1.458-3.646-3.645-5.831-2.187s-2.187,2.916-2.187,2.916s0-0.729-0.729-2.187
		c0-2.187-2.916-2.187-5.832-2.187S50.679,7.287,50.679,5.1c0-1.458-2.916-1.458-5.104-1.458s-2.188,4.374-2.188,4.374
		S42.66,7.289,41.202,6.56c-1.458,0-4.373,2.916-4.373,2.916l5.103,1.458c0,0-0.729,4.374-0.729,2.916
		c0.729-1.458-3.646-5.102-6.561-5.102c-2.916,0.729-2.916,3.645-2.916,3.645s0.729-1.458,0-3.645c0-1.458-3.646-3.645-5.104-1.458
		c-2.188,2.187,0,5.103-0.729,3.645c0-0.729-1.458-2.187-3.646-2.187c-1.458-0.729-2.188-0.729-4.373,1.458
		c-2.188,1.458,1.458,4.373-0.729,4.373c-2.916-0.729-5.832-0.729-6.561,2.188c0,2.915,0.729,5.831,0.729,5.831
		s-2.916-0.729-3.646,0c0,0.729,1.458,2.916,1.458,2.916s-5.104,0.729-6.561,3.645c-1.458,2.915,1.458,5.831,5.103,6.56
		c2.188,0.729,4.374-8.018,2.916-2.187c-2.188,5.831,2.916,8.018,5.103,8.018c0.729-0.729,2.188-2.187,2.916-2.915l0,0
		c0.729-0.729-2.916-0.729-2.916-0.729l2.916,0.729l0,0l0,0l0,0l0,0l0,0c0.729-0.729,1.458-1.458,2.188-2.187
		c1.458-1.458-3.646-0.729-3.646-0.729s3.646,0.729,5.103-0.729l0,0l0,0C23.708,34.258,20.793,32.072,20.793,32.072L20.793,32.072z"
		/>
	<path fill="none" d="M14.233,34.258c0,0,0.729,3.645,1.458,2.916"/>
	<path fill="#FCC78C" d="M20.793,40.09c-30.613-12.392-2.188-28.428,13.12-6.561l-5.831,5.103
		C25.167,40.819,22.25,40.819,20.793,40.09L20.793,40.09z"/>
	<path fill="#F6D9CC" d="M28.082,32.801l-6.561-2.188c0,0-4.374-1.457-5.832-0.729c-1.458,0.729-2.188,2.187-0.729,2.916
		c0.729,0.729,2.188,2.187,2.188,2.187l0,0c0,0-3.646-1.458-4.374-2.187c-1.458-1.458-2.916-3.645,0.729-5.103
		c2.916-0.729,6.561,1.458,6.561,1.458L28.082,32.801z"/>
	<path fill="#24211D" d="M16.419,43.735c2.188,0,5.104-1.458,5.831-4.374c0-2.187-1.458-5.103-3.646-5.831
		c-2.916,0-5.103,1.458-5.831,4.373C12.046,40.09,13.504,43.005,16.419,43.735L16.419,43.735z"/>
	<path fill="#FFFFFF" d="M16.419,43.735c2.188,0,4.374-1.458,5.104-3.645c0.729-2.188-0.729-5.103-3.646-5.103
		c-2.188-0.729-4.374,0.729-5.104,3.645C12.775,40.819,14.233,43.005,16.419,43.735L16.419,43.735z"/>
	<path fill="#75886C" d="M16.419,43.005c2.188,0,3.646-0.729,3.646-2.915c0.729-1.458-0.729-2.916-2.188-3.645
		c-1.458,0-3.646,0.729-3.646,2.915C13.504,40.819,14.961,42.277,16.419,43.005L16.419,43.005z"/>
	<path fill="#24211D" d="M16.419,41.547c0.729,0,2.188-0.729,2.188-1.457c0-0.729-0.729-2.188-1.458-2.188
		c-1.458,0-2.188,0-2.188,1.458C14.233,40.09,14.961,41.547,16.419,41.547L16.419,41.547z"/>
	<path fill="#FCC78C" d="M84.937,36.446c26.971-31.344-12.393-37.904-24.055-6.561c-3.646,2.188-5.831,1.458-5.831,1.458
		l-0.729-0.729c0,0,0,0-0.729,0c0-0.729,0.729,1.458-3.646-4.373c-0.729,0-4.374-1.458-5.83-2.187h-0.729
		c-2.188,0-6.561,2.187-10.205,5.103h-0.729l0,0l0,0c-2.188,5.102-5.104,6.56-7.289,5.102c-0.729,0-1.458,0-1.458,0
		c-0.729,0-0.729,0.729-1.458,0.729l0,0l0,0c0,0-0.729,0-0.729,0.729l0,0c-0.729,0-0.729,0-0.729,0.729c0,0,0,0-0.729,0
		c-0.729,0.729-0.729,1.457-1.458,2.187l0,0l0,0l0,0l0,0l0,0h-0.729l0.729-0.729v0.729l0,0c-1.458,0.729-2.188,2.187-2.916,2.915
		c0,0,0,0-0.729,0c-2.916,3.645-5.831,7.289-5.831,8.747c-0.729,2.187-4.374,0-4.374,7.289S13.5,73.62,13.5,73.62s0,0,10.205,5.831
		c10.935,5.832,21.918,4.365,25.3,3.438c2.535-0.693,18.436-9.269,21.352-12.914c2.916-2.916,8.019-10.205,5.831-18.223
		c-1.458-5.831-8.019-10.205-5.831-12.392C75.461,40.819,84.208,37.903,84.937,36.446L84.937,36.446z"/>
	<path fill="#24211D" d="M5.486,53.21c-0.729,0.729-0.729,2.187-0.729,4.373c0,0.729,0,0.729,0,1.458
		c0.729,0,1.458-0.729,1.458-1.458C6.215,57.583,6.944,54.668,5.486,53.21L5.486,53.21z"/>
	<path fill="#FCC78C" d="M65.256,107.15l-0.729,5.102c0,0-1.458,5.104-1.458,7.289c0.729,2.188,0,13.852-0.729,16.768
		c-0.729,2.187,7.289,2.914,7.289,2.914s6.561-1.457,7.289-4.373s0.729-26.971-2.916-29.887
		C71.087,102.046,65.256,107.15,65.256,107.15L65.256,107.15z"/>
	<path fill="#24211D" d="M62.341,136.307c0,0-4.374,5.829-3.646,8.745c2.188,6.562,8.747,5.832,13.12,4.373
		c5.104-1.457,3.646-8.018,5.104-5.102c0.729,3.645,0-9.478,0-9.478c-0.729,2.916-7.289,4.373-7.289,4.373
		S61.612,138.494,62.341,136.307L62.341,136.307z"/>
	<path fill="#FCC78C" d="M125.756,101.318l-1.458,2.188l0,0l0,0v0.729l0,0l0,0l-0.729,0.729l0,0l0,0v0.729l0,0l-0.729,0.729l0,0
		v0.729l0,0l-0.729,0.729l0,0c-0.729,0.729-1.458,2.187-1.458,2.187l0,0l0.729,5.104l-4.374,5.832
		c-2.188,4.373-5.103,8.746-5.103,8.746s2.916,5.832,6.561,5.104c3.646,0,10.935-2.188,10.935-5.104
		c0-2.188,4.374-15.307,5.831-20.408v-0.729l0,0l-0.729-5.104l0,0c0,0-2.916-0.729-4.373-2.916c-0.729,0-0.729,0-1.458,0
		c-0.729,0-0.729,0-1.458,0c0,0,0,0,0,0.729C126.485,101.318,126.485,101.318,125.756,101.318L125.756,101.318z M122.111,107.878
		c-0.729,0.729-0.729,1.457-1.458,2.187C120.653,110.064,121.382,108.607,122.111,107.878L122.111,107.878z M120.653,110.064
		c-0.729,1.459-1.458,3.646-1.458,5.104c0,0.729-0.729,2.916-2.188,5.832l4.374-5.832L120.653,110.064z M134.502,103.505
		c0,0-2.916-0.729-4.373-2.916c1.458,0,2.188,0.729,3.646,1.457C133.774,102.046,134.502,102.775,134.502,103.505L134.502,103.505z
		 M135.231,109.335v-0.729V109.335L135.231,109.335z M128.671,100.589c-0.729,0-0.729,0-1.458,0
		C127.942,100.589,127.942,100.589,128.671,100.589L128.671,100.589z"/>
	<path fill="#24211D" d="M111.907,129.746l-4.374,8.748c0,0,2.188,5.83,5.83,6.561c4.374,0,10.935-2.188,12.393-5.104
		s3.646-9.477,3.646-9.477C123.492,133.382,117.738,137.764,111.907,129.746L111.907,129.746z"/>
	<path fill="#24211D" d="M17.877,57.583L22.25,60.5c0,0,5.104-4.374,1.458-5.831C20.793,53.21,17.877,57.583,17.877,57.583
		L17.877,57.583z"/>
	<path fill="#24211D" d="M60.883,66.331c0,0-2.188-14.578-3.646-8.018c-4.372,21.867-19.68,25.513-35.716,19.681
		c16.766,2.188,32.072,2.916,35.716-18.224C58.696,53.21,60.883,66.331,60.883,66.331L60.883,66.331z"/>
	<path fill="#F6D9CC" d="M61.612,37.903l7.289-5.831c0,0,4.374-4.373,6.561-4.373c2.188,0,3.646,2.187,2.916,3.645
		S76.19,34.99,76.19,34.99l0,0c0,0,4.374-2.916,5.104-5.104c0-1.458,0.729-5.831-3.646-5.831s-8.019,5.103-8.019,5.103
		L61.612,37.903z"/>
	<path fill="#FFFFFF" d="M157.099,56.855l1.458-0.729c0,0,0-2.915,2.188-2.915c1.458,0,3.646,0,3.646,1.458
		c0,1.457,1.458-0.729,3.646-0.729c1.458,0,1.458,4.374,0.729,5.103c-0.729,0.729,0,0,1.458,2.916
		c0.729,2.187-1.458,3.645-2.916,3.645s2.916,1.457,2.188,4.373c-0.729,2.916-5.831,3.645-5.831,2.187
		c0-1.457-1.458,3.645-3.646,1.458c-2.188-2.915-2.188-2.915-2.188-2.915s3.646-3.646,2.916-5.103
		c-0.729-2.188-2.188-2.916-2.188-2.916V61.23c0,0-1.458-3.645-2.188-2.187C154.912,60.5,157.828,56.125,157.099,56.855
		L157.099,56.855z"/>
	<path fill="#24211D" d="M39.745,45.192c2.916,0.729,5.831-0.729,5.831-3.645c0.729-2.915-0.729-5.831-3.646-6.56
		S36.1,36.445,36.1,39.36C35.371,42.277,36.829,45.192,39.745,45.192L39.745,45.192z"/>
	<path fill="#FFFFFF" d="M39.745,45.921c2.916,0,5.103-1.458,5.831-4.374c0.729-2.187-1.458-5.102-3.646-5.831
		c-2.916,0-5.103,1.458-5.831,4.374C35.371,42.277,37.558,45.192,39.745,45.921L39.745,45.921z"/>
	<path fill="#75886C" d="M40.474,45.192c1.458,0,3.646-0.729,3.646-2.915c0.729-2.187-0.729-3.645-2.188-4.374
		c-2.188,0-4.374,1.458-4.374,2.916C36.829,43.005,38.287,44.463,40.474,45.192L40.474,45.192z"/>
	<path fill="#24211D" d="M41.202,44.463c0.729,0,2.188-0.729,2.188-2.187c0-0.729-0.729-2.187-1.458-2.187
		c-1.458,0-2.188,0.729-2.916,1.457C39.016,43.005,39.745,43.735,41.202,44.463L41.202,44.463z"/>
	<path fill="#FFFFFF" d="M42.66,41.547c0.729,0.729,0.729,0,1.458,0c0-0.729-0.729-0.729-0.729-1.457
		c-0.729,0-0.729,0.729-0.729,0.729C41.931,41.547,42.66,41.547,42.66,41.547L42.66,41.547z"/>
	<path fill="#24211D" d="M28.811,56.855c1.458-2.187-0.729-4.374-0.729-4.374s-2.916-0.729-2.188,0c0,1.458,4.374,2.916,2.188,5.103
		C25.895,60.5,28.811,56.855,28.811,56.855L28.811,56.855z"/>
	<path fill="#FFFFFF" d="M17.148,38.632c0.729,0,0.729,0,0.729-0.729c0,0,0-0.729-0.729-0.729l-0.729,0.729
		C16.419,38.632,16.419,38.632,17.148,38.632L17.148,38.632z"/>
	<path fill="#F5D6D6" d="M87.853,77.264c-6.561,2.916-6.561-2.915-5.832-4.373C82.021,72.891,82.75,78.723,87.853,77.264
		L87.853,77.264z"/>
	<path fill="#24211D" d="M34.642,34.258c0,2.916,2.188,2.916,2.188,2.916s1.458,0,0.729-0.729c-0.729,0-2.916,0-2.916-2.916
		C35.371,30.614,33.913,33.53,34.642,34.258L34.642,34.258z"/>
	<path fill="#24211D" d="M36.1,33.53c0,2.187,2.188,2.916,2.188,2.916l0.729-0.729c-0.729-0.729-3.646-1.458-2.916-3.645
		c0.729-1.458,0.729-1.458,0.729-1.458C36.829,31.343,35.371,32.801,36.1,33.53L36.1,33.53z"/>
	<path fill="#24211D" d="M11.317,34.258c0,2.188,2.188,2.188,2.188,2.188s0.729,0,0.729-0.729c-0.729,0-2.916,0-2.188-2.915
		C12.046,30.614,11.317,33.53,11.317,34.258L11.317,34.258z"/>
	<path fill="#24211D" d="M12.775,32.801c0,2.915,1.458,2.915,1.458,2.915s1.458-0.729,0.729-0.729c-0.729,0-2.916-0.729-2.188-2.916
		c0.729-0.729,0.729-1.458,0.729-1.458C13.504,31.343,12.046,32.801,12.775,32.801L12.775,32.801z"/>
	<path fill="#F5D6D6" d="M80.563,91.841c-5.832,5.104-8.019,0-7.289-2.186C72.545,90.384,74.732,95.486,80.563,91.841L80.563,91.841
		z"/>
	<path fill="#F5D6D6" d="M72.545,89.656c-5.831,6.561-8.019,0-7.289-2.188C64.527,88.927,66.714,94.757,72.545,89.656L72.545,89.656
		z"/>
	<path fill="#F5D6D6" d="M57.238,94.757c-2.916,9.478-8.746,5.104-9.476,2.188C48.491,98.402,53.594,102.775,57.238,94.757
		L57.238,94.757z"/>
	<path fill="#F5D6D6" d="M47.763,96.945c-7.289,8.018-9.477,0-8.747-2.916C38.287,95.486,40.474,102.775,47.763,96.945
		L47.763,96.945z"/>
	<path fill="#F5D6D6" d="M94.413,77.994c-5.831,6.561-8.019,0-7.289-2.188C86.395,76.537,88.582,82.367,94.413,77.994L94.413,77.994
		z"/>
	<path fill="#F5D6D6" d="M100.244,77.994c-8.747,1.457-6.562-5.103-4.374-6.561C95.871,72.162,94.413,78.723,100.244,77.994
		L100.244,77.994z"/>
	<path fill="#F5D6D6" d="M57.967,85.283c0-8.02,5.831-6.561,7.289-4.373C64.527,80.18,58.696,77.994,57.967,85.283L57.967,85.283z"
		/>
	<path fill="#F5D6D6" d="M67.443,80.91c-0.729-8.748,5.104-5.832,6.562-3.646C73.274,75.807,67.443,73.62,67.443,80.91L67.443,80.91
		z"/>
	<path fill="#F5D6D6" d="M17.148,22.596c2.916-7.289,7.289-2.916,8.019-0.729C24.438,20.41,20.793,16.765,17.148,22.596
		L17.148,22.596z"/>
	<path fill="#F5D6D6" d="M25.167,21.138c2.916-8.018,7.289-2.916,7.289-0.729C32.456,18.952,28.811,14.578,25.167,21.138
		L25.167,21.138z"/>
	<path fill="#F5D6D6" d="M49.949,10.934c7.288-2.187,7.288,3.644,5.831,5.832C56.509,16.036,56.509,10.205,49.949,10.934
		L49.949,10.934z"/>
	<path fill="#F5D6D6" d="M58.696,15.307c8.019-3.645,7.289,3.645,5.831,5.103C65.256,19.68,65.985,13.849,58.696,15.307
		L58.696,15.307z"/>
	<path fill="#F5D6D6" d="M146.894,84.552c4.374,8.748-2.916,9.478-5.103,8.021C143.25,93.3,149.81,92.572,146.894,84.552
		L146.894,84.552z"/>
	<path fill="#F5D6D6" d="M141.792,96.216c0.729,10.935-6.562,7.289-8.019,4.373C134.502,102.046,141.063,104.962,141.792,96.216
		L141.792,96.216z"/>
	<path fill="#F5D6D6" d="M134.502,95.486v2.188c0,0,3.646,0.729,3.646,2.916c-0.729,2.188,0.751,4.463-0.707,3.735
		c-2.188,0-2.209,2.097-2.209,4.282c0,2.188-5.103,1.459-5.831,0c-0.729-1.457,0,0-3.646,0.729
		c-2.916,0.729-4.374-2.188-3.646-3.646c0.729-1.459-1.458,2.914-5.104,1.457c-2.916-1.457-2.916-7.289-1.458-7.289
		c1.458,0.729-4.374-2.188-0.729-3.645c2.916-2.188,2.916-2.188,2.916-2.188s3.646,4.373,5.831,4.373
		c2.188-0.729,3.646-2.188,3.646-2.188l1.458,0.729c0,0,4.374-1.457,2.916-2.916C130.129,92.572,134.502,96.216,134.502,95.486
		L134.502,95.486z"/>
	<path fill="#FFFFFF" d="M133.774,92.572l1.458,4.373c0,0,2.916,1.457,2.188,3.645c0,1.459-2.188,3.646-3.646,3.646
		c-1.458-0.729,0.729,1.457,0,3.646c0,1.457-4.374,0.729-5.104-0.729c0-0.729,0,0-2.916,0.729s-3.646-1.459-2.916-2.916
		c0-0.729-1.458,2.188-4.374,1.457c-2.916-1.457-2.916-6.56-1.458-6.56c1.458,0.729-5.103-2.188-2.188-3.646
		c2.916-2.188,2.916-4.373,2.916-4.373S133.774,93.3,133.774,92.572L133.774,92.572z"/>
	<path fill="#F5D6D6" d="M119.196,70.705c4.373,8.746-2.916,9.477-5.104,8.018C114.822,79.451,122.111,78.723,119.196,70.705
		L119.196,70.705z"/>
	<path fill="#F5D6D6" d="M114.093,78.723c0,10.204-7.288,6.561-8.746,4.372C106.075,84.552,112.635,87.468,114.093,78.723
		L114.093,78.723z"/>
	<path fill="#F5D6D6" d="M115.551,62.686c9.477,2.187,6.561,8.019,3.646,8.747C120.653,71.433,124.298,64.873,115.551,62.686
		L115.551,62.686z"/>
	<path fill="#F5D6D6" d="M138.147,64.873c2.916,6.561-2.188,6.561-3.646,5.832C135.231,71.433,140.334,70.705,138.147,64.873
		L138.147,64.873z"/>
	<path fill="#F5D6D6" d="M135.231,59.042c7.289,1.458,4.374,5.831,2.916,6.561C138.876,64.873,141.792,60.5,135.231,59.042
		L135.231,59.042z"/>
	<path fill="#F5D6D6" d="M137.418,77.264c2.916,5.831-2.188,6.563-4.374,5.831C133.774,83.095,138.876,83.095,137.418,77.264
		L137.418,77.264z"/>
	<path fill="#F5D6D6" d="M134.502,71.433c7.29,0.729,4.374,5.831,2.916,6.561C138.147,77.264,140.334,72.891,134.502,71.433
		L134.502,71.433z"/>
	<path fill="#F5D6D6" d="M102.431,35.716c8.747-8.018,12.392,0,11.663,2.916C114.093,37.174,110.449,29.157,102.431,35.716
		L102.431,35.716z"/>
	<path fill="#F5D6D6" d="M113.364,34.988c12.393-4.374,10.935,5.831,8.747,8.747C123.569,42.277,125.027,32.801,113.364,34.988
		L113.364,34.988z"/>
	<path fill="#F5D6D6" d="M91.497,40.819c5.104-11.662,11.663-5.103,11.663-2.187C103.16,37.174,96.6,31.343,91.497,40.819
		L91.497,40.819z"/>
	<path fill="#F5D6D6" d="M65.985,121.729c-8.747,1.457-6.561-5.104-5.104-6.562C61.612,115.896,60.154,122.457,65.985,121.729
		L65.985,121.729z"/>
	<path fill="#F5D6D6" d="M82.021,99.861v2.914c0,0,3.646,0,3.646,2.188c-0.729,2.188-1.458,4.375-2.916,4.375
		c-1.458-0.729,0.729,1.457,0,3.645c0,2.188-5.103,1.459-5.831,0c0-1.457,0,0-2.916,0.729c-3.646,0.729-4.374-2.187-3.646-3.646
		c0-0.729-2.188,2.916-5.104,1.459c-3.646-0.729-2.916-7.289-1.458-6.563c1.458,0-4.373-2.188-1.458-4.373
		c3.646-2.188,3.646-2.188,3.646-2.188s3.646,5.104,5.831,4.373c1.458-0.729,3.646-2.187,3.646-2.187l1.458,0.729
		c0,0,3.646-0.729,2.916-2.916C78.376,96.945,82.021,101.318,82.021,99.861L82.021,99.861z"/>
	<path fill="#FFFFFF" d="M82.021,96.945l0.729,4.373c0,0,2.916,1.457,2.916,3.645c-0.729,2.188-2.916,3.646-4.374,3.646
		s0.729,1.457,0.729,3.646c-0.729,1.457-5.103,0.729-5.103,0c-0.729-1.457,0,0-2.916,0.729c-2.916,0.729-3.646-2.188-3.646-3.646
		c0.729-0.729-1.458,2.914-4.374,1.457c-2.188-0.729-2.188-6.562-0.729-5.832c0.729,0-5.104-2.187-2.188-4.373
		c2.916-1.457,2.916-4.373,2.916-4.373S82.021,97.673,82.021,96.945L82.021,96.945z"/>
	<path fill="#F5D6D6" d="M114.822,111.523c-3.645,8.746-8.746,4.373-9.476,2.188C105.346,114.439,111.178,118.813,114.822,111.523
		L114.822,111.523z"/>
	<path fill="#F5D6D6" d="M147.623,77.264c9.477,5.831,2.188,9.477-0.729,9.477C148.352,86.74,154.912,83.095,147.623,77.264
		L147.623,77.264z"/>
	<path fill="#F5D6D6" d="M53.594,16.765l-0.729,2.187c0,0,4.373,0.729,3.645,2.915c0,2.188-1.457,3.646-2.915,3.646
		s0.729,2.187,0.729,4.373c-0.729,2.188-5.832,0.729-5.832,0c-0.729-1.458,0,0-3.646,0.729c-2.916,0.729-4.373-2.188-3.646-3.646
		c0-1.457-2.188,2.188-5.103,1.458c-2.916-1.458-2.916-7.289-1.458-7.289s-4.374-2.187-0.729-3.645
		c2.916-2.187,2.916-2.187,2.916-2.187s3.646,4.373,5.831,4.373c2.188-0.729,3.646-2.187,3.646-2.187l1.458,0.729
		c0,0,3.646-1.457,2.916-2.915C49.22,13.849,53.594,17.494,53.594,16.765L53.594,16.765z"/>
	<path fill="#FFFFFF" d="M52.865,13.849l0.729,4.373c0,0,2.915,1.458,2.915,2.916c-0.729,2.187-2.915,4.374-4.373,3.645
		c-1.458,0,0.729,2.187,0.729,3.645c-0.729,2.188-5.103,1.458-5.103,0c-0.729-0.729,0,0-2.916,0.729
		c-2.916,0.729-3.646-2.188-3.646-2.916c0.729-1.458-1.458,2.187-4.373,1.458c-2.188-1.458-2.188-6.561-0.729-6.561
		c1.458,0.729-5.104-2.187-2.188-3.645c2.916-2.187,2.916-4.373,2.916-4.373S52.865,14.578,52.865,13.849L52.865,13.849z"/>
	<path fill="#24211D" d="M43.389,29.157c-2.188-1.458-4.374-0.729-4.374-0.729s-1.458,0.729-1.458,1.458
		c0.729,0,3.646-0.729,5.104,0.729C44.118,32.072,43.389,29.157,43.389,29.157L43.389,29.157z"/>
	<path fill="#24211D" d="M22.25,31.343c-2.188-1.458-4.373-0.729-4.373-0.729s-1.458,0.729-0.729,1.458
		c0.729,0,2.916-0.729,4.374,0.729C22.979,34.258,22.25,31.343,22.25,31.343L22.25,31.343z"/>
	<path fill="#24211D" d="M39.016,32.072c-0.729,2.187,0.729,3.645,0.729,3.645h1.458c-0.729-0.729-2.916-2.915-0.729-4.373
		c0.729-0.729,1.458-1.458,0.729-1.458C41.202,30.614,39.016,31.343,39.016,32.072L39.016,32.072z"/>
	<path fill="#24211D" d="M15.69,31.343c-1.458,1.458-0.729,3.645-0.729,3.645s1.458,0,1.458-0.729
		c-0.729-0.729-1.458-2.915,0.729-3.645c0.729,0,1.458,0,0.729,0C17.877,30.614,16.419,30.614,15.69,31.343L15.69,31.343z"/>
</g>
</svg>
