<?xml version="1.0" encoding="utf-8"?>
<!-- Generator: Adobe Illustrator 13.0.0, SVG Export Plug-In . SVG Version: 6.00 Build 14948)  -->
<svg version="1.2" baseProfile="tiny" id="Layer_1" xmlns="http://www.w3.org/2000/svg" xmlns:xlink="http://www.w3.org/1999/xlink"
	 x="0px" y="0px" width="168.378px" height="204.227px" viewBox="0 0 168.378 204.227" xml:space="preserve">
<g>
	<path fill="#C2C0BE" d="M68.517,141.11c0,0,6.561,13.12,3.645,20.409c12.392-1.458,19.681,3.646,19.681,3.646
		s-1.459,1.458-2.188,2.187l-2.916,3.646c1.458,10.934-10.204,17.494-13.12,19.681c-2.915,10.934-8.747,17.494-18.951,10.934
		c-1.458,1.458-5.103-0.729-7.289-1.458c-5.832-0.729-2.916-7.288-1.458-10.203c5.831-7.289,7.289-8.747,10.205-13.851
		c-13.85-5.831-2.188-34.259-6.561-31.343C66.331,128.719,56.126,146.941,68.517,141.11L68.517,141.11z"/>
	<path fill="#C2C0BE" d="M52.482,152.772l-0.729,4.374C42.277,158.604,0.729,170.267,0,146.213c0-31.344,42.277-16.036,35.716,4.373
		C32.801,119.972,0,128.719,2.187,144.755c0.729,6.56,2.916,14.578,18.951,14.578C37.903,159.333,52.482,156.417,52.482,152.772
		L52.482,152.772z"/>
	<path fill="#C2C0BE" d="M118.812,136.008l-14.578,14.578c0,0,12.393,8.018,20.409,5.831c-2.915,12.392,1.458,19.681,1.458,19.681
		s1.458-1.458,2.188-2.187l2.188-0.729c2.915-2.188,20.408-14.579,22.596-16.766c1.458-1.458,5.104-2.188,5.831-2.188
		c3.646-2.187,4.374-5.103,2.916-5.831c2.916,0,4.373-4.374,4.373-5.103c1.458-0.729,2.188-2.188,1.458-4.373
		c0-0.729,0.729-1.458,0.729-2.188c-0.729-5.831-9.477-4.373-12.392-2.915c-8.019,4.373-10.205,5.831-15.308,8.019
		c13.85-28.428-11.662-22.596-11.662-23.325c0-2.187,5.104,24.783,1.458,20.41c0,0,0,0-0.729,0
		C126.832,135.279,121.728,135.279,118.812,136.008L118.812,136.008z"/>
	<path fill="#C2C0BE" d="M93.3,25.942c19.681,7.289,23.324-19.68-2.188-25.512c-8.019-2.187-15.308,4.374-16.036,10.205
		c0,5.103,0,8.018,2.187,8.018C79.451,19.382,93.3,25.942,93.3,25.942L93.3,25.942z"/>
	<path fill="#FFFFFF" d="M91.841,25.214c0.729,1.458,3.646,2.187,8.02,1.458c3.645-1.458,4.373-7.289,2.188-9.477
		c-2.188-2.187-13.12-16.765-21.139-5.103C72.891,23.756,91.841,23.756,91.841,25.214L91.841,25.214z"/>
	<path fill="#C2C0BE" d="M51.752,29.587C56.855,19.382,39.36,4.075,26.24,25.214c-6.561,10.205-1.458,26.97,15.307,25.512
		c9.477-1.458,5.832-16.036,5.832-16.036L51.752,29.587z"/>
	<path fill="#FFFFFF" d="M49.566,30.316c0.729-0.729,0-4.374-2.916-7.289c-2.915-2.916-7.289-0.729-9.476,2.916
		c-2.187,3.646-11.662,21.14,5.831,20.409C60.5,46.352,48.108,31.774,49.566,30.316L49.566,30.316z"/>
	<path fill="#DDDDDC" d="M95.512,93.183c2.187,1.458,29.86-35.898,25.485-46.102c-5.102-10.935-32.355-32.838-53.493-28.466
		c-21.138,4.374-25.228,25.55-25.228,25.55s-8.019,18.952-2.187,29.155c6.56,10.205,5.831,17.494,24.782,20.41
		c18.223,2.188,28.362-0.041,28.362-0.041L95.512,93.183z"/>
	<path fill="#949393" d="M109.335,33.96c-2.916-2.916-5.83-5.103-9.476-7.289c-1.458,0-2.916,0.729-3.646,1.458
		c-1.457,0.729-1.457,2.187-2.188,3.645c0,5.832,2.188,8.019,5.104,5.832c0.729-0.729,2.916,0,3.645-0.729
		C102.776,36.876,107.878,34.689,109.335,33.96L109.335,33.96z"/>
	<path fill="#BBB0D5" d="M96.945,96.646c0,0,19.682-7.289,19.682-9.476c0-2.188,1.457-2.916,5.103-3.646
		c3.646-0.729,4.373-1.458,9.476,3.646c7.289,8.747,3.158-0.009,3.888-0.738c1.457-3.646,4.86,0.738-0.972,8.755
		c-5.832,8.02-3.645-3.645-3.645-3.645s2.188-0.729,0,4.374c-1.458,8.018-3.645,8.747-4.374,12.392
		c-0.729,6.561,1.458,10.935,0,15.308c-2.915,6.561-0.729,11.662-11.662,13.85c-10.205,2.187-21.14,7.289-37.175,8.747
		c-16.765,1.457-24.054,5.102-25.512,6.56c-2.187,0.729-7.289-5.831-5.103-8.018l2.187-2.188c0,0,1.458-18.951,0-21.139
		c-2.187-2.187-5.831-10.205-12.391-16.036c-3.645-2.916-2.188,0.729-3.645-2.916c-1.458-4.373-5.103-8.018-3.645-8.018
		c4.373,0,11.662-8.747,9.476-8.747c-2.916,0.729,7.289-1.458,8.018,6.561C46.65,97.376,75.078,103.936,96.945,96.646L96.945,96.646
		z"/>
	<path fill="#DDDDDC" d="M131.932,119.243c0,0,10.935-0.729,10.935,7.289c0,6.56-5.103,17.492-6.561,21.138
		c7.289-8.746,21.138-14.578,25.512-13.12c4.373,2.187,4.373,6.561,1.458,3.645c-2.187-2.914-8.019,0-5.832-1.458
		c2.188-0.729,5.832,1.458,6.562,5.104c0.729,2.916-2.188,4.374-4.373,2.187c-0.729-1.457-2.916-1.457-4.375-1.457v1.457
		c3.646,0,4.375,0.729,5.104,2.916c0,2.188-2.916,5.831-5.831,7.289c-3.645,0.729-10.204,5.831-14.577,9.477
		c-4.375,2.916-9.477,5.103-11.664,6.561c0,0,0-0.729,0-2.187c-4.373-5.832-2.914-10.935-1.457-13.121v-0.729
		c-2.916-0.729-10.205-0.729-11.662,0.729c-2.188,1.458-27.698,19.681-30.614,16.766c-2.915-2.188,0.729,6.561-3.645,10.204
		c-5.103,4.374-9.476,9.478-9.476,9.478s-1.458,8.018-9.476,9.476c-5.103,0.729-5.831-3.645-5.103-7.289
		c-1.458,10.935-10.934,6.561-4.373-0.729c-5.103,7.289-6.561,4.374-7.29,3.645c-2.915-4.373,10.935-16.765,15.308-18.951
		c4.373-2.916,2.916-4.373-2.187-6.561c-5.831-2.188-13.85-8.747-5.103-21.867c5.103-2.188,18.951-3.646,32.801-4.373
		c13.119,0,31.343-8.019,31.343-8.019S135.578,121.43,131.932,119.243L131.932,119.243z"/>
	<path fill="#FFFFFF" d="M115.897,45.623c0,0-4.374,8.018-11.663,2.187S93.3,47.081,93.3,47.081s-7.289,3.645-8.747,3.645
		c-8.018,0.729-23.325,1.458-28.427,9.477c-5.103,8.019-8.019,17.493-5.832,23.324c4.374,12.393,14.578,9.477,32.801,10.935
		c18.224,2.187,37.902-37.903,37.175-44.464c-0.729-6.561-4.373-9.477-4.373-9.477S118.083,45.623,115.897,45.623L115.897,45.623z"
		/>
	<path fill="#8F81B5" d="M37.903,106.852c0,0,15.308-10.205,12.392-14.578c-7.289-12.392-10.934-8.747-13.12-5.103
		c0,2.187,2.916,3.645,0.729,5.103c-1.457,1.458-2.187,0.729-8.018,1.458c-5.103,1.457-1.458,6.561-1.458,6.561
		c0,0.729,2.916,8.019,5.103,7.289C34.988,106.122,37.903,106.852,37.903,106.852L37.903,106.852z"/>
	<path fill="#8F81B5" d="M128.289,79.882c-0.729-4.373-11.662-2.916-10.935,4.373c1.458,8.019,10.205,13.85,15.308,13.85
		c4.373,0,11.662-9.476,5.832-13.85c-4.373-2.915-5.066,0.851-6.523-0.607C130.511,82.19,131.205,83.526,128.289,79.882
		L128.289,79.882z"/>
	<path fill="#24211D" d="M94.757,60.93c0-0.729,0.729-1.457,1.459-2.187l0.729-0.729c0.729,0,0-0.729,0-0.729
		c0,0.729-0.729,0.729-1.458,1.458c0,0,0,0.729-0.729,0.729C94.757,60.201,94.757,60.201,94.757,60.93L94.757,60.93z"/>
	<path fill="#24211D" d="M109.335,44.895c0.729,2.915,5.104,3.646,9.477,2.188c3.645-1.458,6.561-4.374,5.831-7.289
		c-1.457-2.916-5.831-3.646-9.476-2.916C110.794,38.334,108.608,41.979,109.335,44.895L109.335,44.895z"/>
	<path fill="#24211D" d="M110.794,64.575c-0.729,0.729-2.188,0.729-2.916,0.729c-0.729-0.729-1.459-0.729-2.188-0.729
		c0-0.729,0,0,0,0c0.729,0,1.458,0.729,2.188,0.729c0.729,0,0.729,0,1.457,0C110.065,65.304,110.065,65.304,110.794,64.575
		L110.794,64.575z"/>
	<path fill="#24211D" d="M106.419,50.726L106.419,50.726c0,0.729,0,0.729,0,1.458c0.729,0,0.729,0,1.459-0.729l0,0
		c0-0.729,0-0.729,0-0.729s0,0,0-0.729c-0.729,0-0.729,0-0.729,0h-0.729C106.419,50.726,106.419,50.726,106.419,50.726
		L106.419,50.726z"/>
	<path fill="#24211D" d="M107.878,53.641c0,0,0,0,0,0.729c0,0,0,0,0,0.729c0.729,0,1.457,0,1.457,0c0-0.729,0-0.729,0-0.729v-0.729
		l0,0c-0.729,0-0.729,0-0.729,0S108.608,53.641,107.878,53.641L107.878,53.641L107.878,53.641z"/>
	<path fill="#24211D" d="M110.794,51.454c0,0.729,0,0.729-0.729,0.729c0.729,0.729,0.729,0.729,0.729,0.729c0.729,0,0.729,0,1.457,0
		c0,0,0,0,0-0.729l0,0c0-0.729-0.729-0.729-0.729-0.729l0,0H110.794L110.794,51.454L110.794,51.454z"/>
	<path fill="#24211D" d="M115.897,57.285c0.729-0.729,1.457-1.457,1.457-2.188c-1.457,2.188-2.915,4.374-4.373,5.831
		c-5.103,2.916-12.392,4.374-17.494-0.729C101.319,65.304,110.794,63.117,115.897,57.285L115.897,57.285z"/>
	<path fill="#24211D" d="M107.878,33.231L107.878,33.231c-0.729,0-0.729,0-0.729,0c-0.729,0.729-1.458,1.458-2.187,2.188l0,0
		c0.729-0.729,1.457-1.458,2.187-1.458L107.878,33.231L107.878,33.231z"/>
	<path fill="#FFFFFF" d="M118.083,40.521c-0.729-1.458,0-2.187,1.457-2.915c0.729,0,2.188,0,2.188,1.457
		c0.729,0.729,0,2.188-1.458,2.188C119.542,41.979,118.083,41.25,118.083,40.521L118.083,40.521z"/>
	<path fill="#24211D" d="M104.962,35.418c-0.729-1.458-0.729-3.646-1.457-3.646c-2.188-2.187-2.916-2.916-6.562-1.458
		c-1.458,0-1.458,1.458-2.187,2.916c-0.729,2.916,0.729,5.831,4.373,4.374c0.729,0,2.916,0,3.645-0.729
		C103.505,36.876,105.692,35.418,104.962,35.418L104.962,35.418z"/>
	<path fill="#FFFFFF" d="M104.234,35.418c-0.729-0.729-0.729-2.916-1.458-3.646c-2.187-1.458-2.915-2.187-5.831-1.458
		c-1.458,0.729-1.458,1.458-2.188,2.916c-0.729,2.916,1.459,4.374,4.373,4.374c0.729,0,2.916-0.729,2.916-0.729
		C102.776,36.876,104.962,35.418,104.234,35.418L104.234,35.418z"/>
	<path fill="#67BEEB" d="M99.13,36.876c-0.729,0.729-1.457,0.729-2.187,0.729c-1.458,0-2.187-1.458-2.187-2.916
		c0-0.729,0.729-1.458,2.187-2.187c1.458-0.729,2.187,0,2.916,0.729c0.729,0,1.458,0.729,1.458,1.458c0,1.458,0,1.458-0.729,2.188
		C100.589,36.876,99.861,36.876,99.13,36.876L99.13,36.876z"/>
	<path fill="#24211D" d="M98.403,37.605h-1.458c-1.458,0-2.188-1.458-2.188-2.187c0-1.458,0.729-1.458,1.459-2.188
		c1.457-0.729,2.187,0,2.914,0.729c0.729,0,0.729,0.729,0.729,1.458c0.729,0.729,0.729,0.729,0,1.458
		C99.861,36.876,99.13,37.605,98.403,37.605L98.403,37.605z"/>
	<path fill="#FFFFFF" d="M99.861,34.689h-0.729c0,0-0.729,0-0.729-0.729c0,0,0.729,0,0.729-0.729c0.729,0,0.729,0,0.729,0.729h0.729
		C100.589,34.689,100.589,34.689,99.861,34.689C100.589,34.689,99.861,34.689,99.861,34.689L99.861,34.689z"/>
	<path fill="#24211D" d="M109.335,35.418c-0.729-0.729-1.457-0.729-2.187-0.729c-0.729,0.729-0.729,0.729-1.458,0.729l0,0
		c0.729-0.729,0.729-0.729,1.458-0.729s0.729,0,1.458,0L109.335,35.418L109.335,35.418z"/>
	<path fill="#949393" d="M77.264,44.165c0.729-2.188,0-2.915-0.729-3.646c-2.187-3.645-5.831-6.56-10.934-3.645
		c-2.187,0.729-4.374,4.374-5.103,6.561c-0.729,1.458-0.729,2.915,0,3.646c1.458-0.729,4.373,0,8.747,0.729
		c1.458-0.729,4.373-0.729,5.103-1.458C75.078,46.352,77.994,44.165,77.264,44.165L77.264,44.165z"/>
	<path fill="#24211D" d="M66.331,47.081c0-0.729-0.729-2.916-0.729-4.374c1.458-2.915,2.187-4.373,5.831-5.103
		c1.458,0,2.916,0.729,4.373,2.188c2.916,2.187,2.188,6.56-2.187,7.289c-0.729,0-2.915,1.458-3.645,0.729
		C69.247,47.81,65.602,47.81,66.331,47.081L66.331,47.081z"/>
	<path fill="#FFFFFF" d="M67.06,47.081c0-1.458-0.729-2.916-0.729-4.374c1.458-2.915,2.187-3.646,5.103-4.373
		c2.187-0.729,2.916,0,4.373,1.458c2.188,2.187,1.458,5.103-1.457,6.56c-1.458,0-3.645,1.458-4.374,1.458
		C69.975,47.81,66.331,47.81,67.06,47.081L67.06,47.081z"/>
	<path fill="#67BEEB" d="M69.975,47.81c1.458,0,2.187-0.729,2.916-1.458c1.458-0.729,1.458-2.187,0.729-3.645
		c-0.729-1.457-2.187-1.457-3.645-1.457s-2.187,1.457-2.915,2.187c0,0.729,0,2.188,0,2.915c0.729,1.458,0,1.458,2.187,1.458
		C68.517,47.81,69.975,47.81,69.975,47.81L69.975,47.81z"/>
	<path fill="#24211D" d="M69.975,47.81c0.729,0,1.458-0.729,2.187-1.458c1.458-0.729,0.729-2.187,0-3.645
		c0-0.729-1.457-0.729-2.187-0.729c-1.458,0-2.187,1.458-2.915,2.188c0,0.729,0,1.458,0,2.187c0.729,0.729,0,1.458,1.457,1.458
		H69.975L69.975,47.81z"/>
	<path fill="#FFFFFF" d="M72.891,44.165L72.891,44.165c0.729,0,0.729-0.729,0.729-1.458c-0.729,0-0.729,0-1.458,0
		c0,0,0,0-0.729,0.729v0.729c0.729,0,0,0,0.729,0C72.162,44.895,72.162,44.165,72.891,44.165L72.891,44.165z"/>
	<path fill="#24211D" d="M63.416,32.503c-0.729-0.729,1.457-2.188,2.915-1.458c0.729,0.729,1.458,0.729,1.458,1.458
		c-0.729,0-1.458,0-2.187,0c0,0,0,0-0.729,0s-0.729,0.729-0.729,0.729C63.416,33.231,63.416,33.231,63.416,32.503L63.416,32.503z"/>
	<path fill="#24211D" d="M61.958,49.996c0-0.729,1.458-1.457,2.187-1.457s1.458-0.729,2.187,0V47.81c-0.729,0-2.187,0-2.915,0.729
		c0,0-0.729,0-0.729,0.729C61.958,49.268,61.958,49.996,61.958,49.996L61.958,49.996z"/>
	<path fill="#24211D" d="M59.042,47.81c1.458-0.729,2.916-0.729,4.374-0.729c0.729,0.729,2.187,0.729,2.915,0.729c0,0,0.729,0,0,0
		s-2.187-0.729-2.915-0.729c-0.729,0-1.458,0-2.188,0C59.771,47.081,59.771,47.81,59.042,47.81L59.042,47.81z"/>
	<path fill="#8F81B5" d="M45.921,148.399c0-1.458-0.729-2.187,0-2.916c0-0.729,0.729-0.729,2.187-0.729c2.187-0.729,5.103,0,7.289,0
		c3.645,0,5.831-0.729,8.747-2.188c0-0.729,0-0.729,0.729-0.729c1.458-2.188,2.916-4.373,3.645-5.831
		c2.188-3.646,4.374-6.562,6.561-9.476c0-0.729,0-2.188,0-3.646l0,0c-2.187,2.188-4.373,5.104-5.831,8.018
		c-2.187,2.188-5.831,4.374-8.747,5.831c-2.916,0.729-5.831,0-8.747,1.458l0,0c3.645-3.645,9.476-2.187,12.392-6.56
		c0.729-1.458,1.458-2.916,0.729-3.646c0-1.457-0.729-2.188-2.187-2.188c-2.187-0.729-7.289,0.729-9.476,2.188l0,0
		c2.916-2.188,6.561-2.915,9.476-4.373c1.458-0.729,2.187-2.188,2.916-2.916c0-0.729,0-0.729,0-1.457
		c-0.729,0-0.729-0.729-2.187-0.729c-2.188-0.729-5.832-0.729-8.019,0c-1.458,0-2.915,0.729-4.373,0.729
		c-1.458,0.729-2.916,0-3.645,0.729l0,0l0,0l0,0c1.457-1.458,3.645-2.187,5.831-2.916c1.458-0.729,4.373-1.457,5.103-3.645
		c-1.458-2.188-3.645-2.915-5.103-4.373c-0.729-0.729-1.458-0.729-1.458-0.729c-4.373-2.916-8.747-4.374-12.392-5.832
		c0,0,0,0,0,0.729c0,0.729-0.729,2.187-1.458,2.187c-0.729,0.729-0.729,0.729-1.457,0.729c-0.729-0.729-0.729-1.457-1.458-1.457
		c0-0.729-0.729-1.458-1.458-2.188c0.729,1.458,1.458,2.188,2.187,3.646c1.458,1.458,1.458,3.645,2.916,4.374
		c1.458,1.458,3.645,2.187,4.373,3.645c1.458,1.458,1.458,3.646,2.187,5.831c0,0.729,0,1.458,0.729,2.916l0,0l0,0
		c-1.458,1.458,0,3.646,1.458,5.831c0,0.729,0.729,0.729,0.729,1.458c0,0,0,0.729,0,1.458c0,0.729-0.729,1.457-0.729,2.187
		c0.729,0,1.457,0.729,1.457,1.458c0.729,2.915-2.187,3.646-3.645,6.561C43.735,144.755,43.735,145.483,45.921,148.399
		L45.921,148.399z"/>
	<path fill="#8F81B5" d="M114.439,102.478c-2.188,0.729-2.916,1.458-4.374,2.188c5.103-1.458,10.205-2.188,15.308-1.458
		c-2.916,0-5.103,0-8.019,0.729c2.188,0,0,0,2.188,0.729c0,0-0.729,0.729-0.729,1.457c2.916,0,2.916,8.747,3.646,11.663
		c0.729,2.187-0.729,3.645-2.188,5.103c-5.104,5.104-13.85-0.729-18.951,5.104c2.915-2.188,7.289-1.458,10.934-1.458
		c2.916,0,5.103,0,8.019-0.729c2.916,0,9.476-2.915,8.019-5.831c-5.103-3.645-3.646-11.662-2.916-24.783l0,0
		c0,1.458,0.729,2.916,0,3.646c0,2.916-1.457,2.916-3.645,2.916C118.812,101.749,116.625,102.478,114.439,102.478L114.439,102.478z"
		/>
	<path fill="#8F81B5" d="M45.921,144.755c0,0,15.307-6.562,24.783-6.562c8.746-0.729,21.867-3.645,27.698-3.645
		s18.951-6.56,19.682-8.747c0.729-2.187,12.392-11.662,11.662-12.392c0,0,2.916-1.457,3.645,1.458
		c1.458,2.187-4.373,19.681-9.477,21.139c-5.83,2.187-29.886,10.205-37.175,8.747c-6.56-0.729-38.632,6.56-37.903,8.747
		C49.566,154.959,41.547,150.586,45.921,144.755L45.921,144.755z"/>
	<path fill="#8F81B5" d="M73.62,13.551c0,0-5.831-10.934-16.765-7.289c-2.916-0.729-16.765,7.289-3.645,21.867
		c0.729-5.832,12.392-10.205,16.765-12.393C74.349,14.281,73.62,13.551,73.62,13.551L73.62,13.551z"/>
	<path fill="#24211D" d="M89.656,25.942c0,0.729,0.729,0.729,0.729,0.729c0.729,0,0.729,0,0.729-0.729
		c0.729,0,1.458-0.729,1.458-0.729c0-0.729,0-0.729,0-0.729s-0.729,0-1.458,0c0,0,0,0-0.729,0
		C90.384,25.214,89.656,25.214,89.656,25.942L89.656,25.942L89.656,25.942z"/>
	<path fill="#7B7095" d="M70.705,6.262c4.373,2.188,5.831,5.831,6.56,5.831l0,0c0,1.458-0.729,2.188-0.729,2.188
		c-0.729,0.729-0.729,0-1.458,0l0,0c-0.729,0-10.205,4.373-16.036,6.561l-2.915,2.916c-0.729,0-3.645,4.374-3.645,4.374
		c0,0.729,0,0.729,0,0.729s0,0,0-0.729c-4.374-4.374-5.832-9.476-5.103-13.121c1.457-5.831,6.56-8.018,7.289-8.747
		C61.958,2.617,67.789,4.075,70.705,6.262L70.705,6.262z M70.705,6.991L70.705,6.991c-5.103-2.916-10.205-2.916-16.036,0
		c0,0-5.103,2.916-6.561,8.018c-0.729,2.187,0,4.374,0.729,7.289c0.729,1.458,2.188,3.645,3.646,5.832
		c0-0.729,2.915-5.104,2.915-5.104l0,0l3.645-2.187l0,0c5.831-2.916,16.036-7.289,16.036-7.289h0.729c0,0.729,0,0.729,0,0.729
		s0.729-0.729,0.729-2.188C75.806,12.093,74.349,9.178,70.705,6.991L70.705,6.991z M75.078,14.281L75.078,14.281L75.078,14.281
		L75.078,14.281L75.078,14.281z"/>
	<path fill="#BBB0D5" d="M76.536,11.365c0,0-8.019-10.205-18.223-6.561c0,0-13.121,5.831-3.645,18.952c0,0,13.12-8.019,17.493-9.476
		C77.264,12.093,76.536,11.365,76.536,11.365L76.536,11.365z"/>
	<path fill="#8F81B5" d="M88.927,11.365c0,0-2.916,8.746-23.325,8.746c0,0-5.831,0-11.663,5.104c0,0,11.663-15.307,26.241-13.85
		C80.18,11.365,88.198,12.093,88.927,11.365L88.927,11.365z"/>
	<path fill="#DDDDDC" d="M135.578,79.882c1.457,0.729,1.457,2.187,1.457,2.916c0,0.729-1.457,1.457-2.914,2.187
		c-2.188,0.729-5.104,0-6.562-1.458c-1.458-0.729-1.458-2.916-1.458-3.645l0,0c0-0.729,0.95-2.058,2.409-2.058l1.182,0.506
		C131.878,77.601,134.121,78.424,135.578,79.882L135.578,79.882z"/>
	<path fill="#C2C0BE" d="M133.39,77.695v0.729c0,0.729,0,0.729-0.729,0.729c-2.188-1.458-3.646-1.458-5.104-0.729
		c-0.729,0.729-0.729,2.187-0.729,2.916c0,1.458,1.457,2.187,2.914,2.915c3.646,0.729,5.832,0.729,6.562-0.729
		c0.729-0.729,0.729-2.187-0.729-4.373c0-0.729,0-0.729,0.729-0.729c0-0.729,0,0,0.729,0c0.729,2.187,1.457,4.374,0,5.831
		c-0.729,1.458-3.646,1.458-7.289,0.729c-2.188-0.729-3.646-1.458-4.373-3.645c0-1.458,0.729-2.916,1.457-3.646
		C128.289,76.966,130.475,76.966,133.39,77.695L133.39,77.695z"/>
	<path fill="#DDDDDC" d="M119.542,66.762c4.373-2.187,8.018,1.458,10.934,2.915c2.915,1.458,6.561,0.729,10.204,2.188
		c1.458,0.729,2.187,1.457,2.187,2.915s-1.457,2.915-2.187,3.645c-2.915,2.187-4.373,2.187-7.289,2.187l-2.187-0.729
		c-4.373-1.458-1.459-5.103-5.832-6.561c-1.457-0.729-3.645-0.729-5.103-2.188C118.083,70.406,118.083,68.22,119.542,66.762
		L119.542,66.762z"/>
	<path fill="#C2C0BE" d="M119.542,66.762c3.645-2.187,6.56,0,9.476,1.458c0.729,0,1.458,0.729,2.187,0.729
		c1.459,0.729,2.916,0.729,4.373,1.458c1.459,0,3.646,0.729,5.104,1.458h0.729c0.729,0.729,1.457,0.729,2.188,2.915
		c0,2.187-2.188,3.645-2.916,4.373c-2.188,2.188-3.645,2.188-5.831,2.188h-1.458l0,0l-2.188-0.729
		c-2.916-1.456-2.916-2.914-3.645-4.372c0-0.729-0.729-2.188-2.188-2.916c-0.729,0-1.457,0-2.187-0.729
		c-1.458,0-2.188,0-3.646-0.729c-0.729-0.729-1.457-2.188-1.457-2.916C118.083,67.49,118.812,66.762,119.542,66.762L119.542,66.762z
		 M139.951,78.424L139.951,78.424c0.729-0.729,2.188-2.188,2.188-3.646s0-1.458-1.458-2.187h-0.729
		c-2.916-1.458-6.561-1.458-9.476-2.187c-0.729-0.729-1.458-0.729-2.188-1.458c-2.187-1.458-5.83-2.916-8.018-1.458
		c-0.729,0-1.458,0.729-1.458,1.458c0,0,0,0.729,0.729,0.729c0,0.729,0.729,0.729,0.729,1.458c0.729,0,2.188,0.729,2.916,0.729
		s2.188,0.729,2.915,0.729c0.729,0.729,1.458,1.458,2.187,2.187c0,0,0,0.729,0.729,1.458c0,0.729,0,0.729,0,1.458
		c0.729,0.729,1.458,1.458,2.915,2.188h1.458h1.458C137.035,79.882,137.764,79.882,139.951,78.424L139.951,78.424z"/>
	<path fill="#DDDDDC" d="M131.205,73.321c0.729,0.729,3.645-6.56,4.373-10.203c1.457-3.646,2.188-6.562,1.457-8.747
		c0,0-0.729-0.729-1.457-0.729c-0.729,0-1.457,0-1.457,0.729c-2.188,0.729-2.916,3.645-3.646,5.831v0.729
		C130.475,63.117,125.373,70.406,131.205,73.321L131.205,73.321z"/>
	<path fill="#C2C0BE" d="M135.578,53.641c0.729,0,1.457,0,1.457,0.729c1.459,2.187,0,5.831-0.729,9.476
		c-0.729,2.916-2.188,6.562-1.458,7.289c0.729,0,0.729,0,0.729,0.729c-0.729,0-0.729,0-0.729,0c-2.187-1.458-0.729-4.374,0-8.02
		c1.458-3.645,2.916-7.289,1.458-8.747c0,0-0.729-0.729-1.458-0.729s-0.729,0-1.458,0.729c-2.188,0.729-2.188,4.374-2.915,6.562
		v0.729c-0.729,2.188-1.458,6.562-2.916,6.562c-0.729,0.729-1.458,0-2.187-0.729c0-0.729,0-0.729,0-0.729c0.729,0,0.729,0,0.729,0
		c0.729,0.729,0.729,0.729,0.729,0.729c0.729,0,2.188-2.916,2.916-5.832v-0.729c0-2.188,0.729-6.562,2.916-8.02
		C133.39,53.641,134.121,52.912,135.578,53.641L135.578,53.641z"/>
	<path fill="#DDDDDC" d="M143.595,67.49c1.458,0,2.188,0.729,2.914,0.729c0.729,0.729,0.729,2.188,0,3.646
		c-0.729,2.187-3.645,3.645-5.83,4.372c-0.729,0-2.915,0-3.645-1.458l0,0c0-0.729,0-1.458,0.729-2.187c0,0,0,0,0-0.729
		C138.494,70.406,141.41,68.22,143.595,67.49L143.595,67.49z"/>
	<path fill="#DDDDDC" d="M139.221,61.659c0.729,0,1.458,1.458,2.188,2.916c0,2.915-1.459,6.56-2.916,8.018
		c-1.459,0.729-3.646,1.458-4.373,0.729c-0.729,0-0.729,0-1.459-0.729c0-0.729,0-0.729,0-1.458c0,0,0,0,0-0.729l0,0
		c0-2.188,1.459-5.831,2.916-8.02C137.035,60.93,138.494,60.93,139.221,61.659L139.221,61.659z"/>
	<path fill="#C2C0BE" d="M143.595,67.49c1.458-0.729,2.914,0,2.914,0.729c0.729,0.729,0.729,2.188,0,3.646
		c-0.729,2.187-3.645,3.645-5.102,4.372c-1.457,0-3.645-0.729-3.645-1.458l0,0c-0.729-0.729-0.729-1.458,0-2.187
		c0-0.729,0-0.729,0-0.729C138.494,70.406,141.41,68.22,143.595,67.49L143.595,67.49z M145.783,71.135L145.783,71.135
		c0-0.729,0-1.458,0-2.187c-0.729-0.729-1.459-0.729-2.188,0c-1.458,0-4.374,2.187-5.104,3.645l0,0c0,0.729-0.729,1.458,0,1.458l0,0
		c0,0.729,1.459,1.458,2.188,0.729C142.867,74.779,145.053,73.321,145.783,71.135L145.783,71.135z"/>
	<path fill="none" d="M133.39,70.406c-0.729-2.188,0.729-5.831,2.916-7.289c2.188-2.916,4.373-1.458,4.373,1.458
		c0,2.915-0.729,5.831-2.915,7.289C136.306,73.321,132.662,73.321,133.39,70.406"/>
	<path fill="#C2C0BE" d="M139.221,60.93c0.729,0.729,2.188,2.188,2.188,3.646c0,2.915-1.459,5.831-2.916,8.018
		c-1.459,0.729-3.646,1.458-4.373,0.729c-0.729,0-0.729-0.729-0.729-0.729c-0.729-0.729-0.729-1.458-0.729-2.187l0,0l0,0
		c0-2.188,1.459-6.562,2.916-8.02S138.494,60.93,139.221,60.93L139.221,60.93z M137.764,71.865L137.764,71.865
		c1.457-1.458,2.915-4.374,2.187-7.289c0-1.458-0.729-2.188-1.457-2.188c-0.729-0.729-1.459,0-2.188,0.729
		c-1.458,1.458-2.916,5.103-2.916,7.289l0,0c0,0,0.729,0,0,0c0,0.729,0,1.457,0.729,1.457v0.729
		C135.578,72.593,137.035,72.593,137.764,71.865L137.764,71.865z"/>
	<path fill="#DDDDDC" d="M143.595,64.575c0.729,0.729,0.729,2.187,0.729,3.645c0,2.188-1.457,4.373-3.645,5.831
		c-1.458,0.729-2.915,0.729-3.645,0s-0.729-0.729-0.729-0.729c0-0.729,0-1.457,0-2.188l0,0c0-2.187,2.187-5.103,3.646-5.831
		C141.41,63.846,142.867,64.575,143.595,64.575L143.595,64.575z"/>
	<path fill="none" d="M137.035,71.135c0-2.187,2.188-4.373,3.646-5.831c2.187-1.458,3.646,0,2.916,2.188
		c0,2.187-1.458,4.374-2.916,5.831C138.494,74.051,136.306,73.321,137.035,71.135"/>
	<path fill="#C2C0BE" d="M143.595,64.575c0.729,0.729,0.729,1.457,0.729,3.645s-1.457,4.373-3.645,5.831
		c-1.458,0.729-2.915,0-3.645-0.729h-0.729c0-0.729,0-1.457,0-2.188l0,0c0-2.187,2.187-5.103,3.646-5.831
		C141.41,63.846,142.867,64.575,143.595,64.575L143.595,64.575z M143.595,67.49L143.595,67.49c0-0.729,0-1.458-0.729-2.188
		c-0.729,0-1.457,0-2.188,0.729c-1.458,0.729-2.915,3.645-3.645,5.103l0,0c0,0.729,0,1.458,0,1.458h0.729
		c0,0.729,1.457,0.729,2.188,0C142.137,71.865,142.867,69.677,143.595,67.49L143.595,67.49z"/>
	<path fill="#8F81B5" d="M64.873,106.852c16.036,5.831,37.903-0.729,37.903-5.831c0.729-14.578-4.373-10.205-8.747-8.019
		c-1.457,0.729-22.596,0.729-25.512,0.729c-1.457-0.729-2.915,1.457-8.018-2.188c-5.831-4.373-8.747,11.663-5.831,13.121
		C56.855,105.394,64.873,106.852,64.873,106.852L64.873,106.852z"/>
	<path fill="#FFFFFF" d="M32.072,86.442c0-0.729,0.729,0.729,0.729,1.457c-2.188,5.832-6.561,7.289-13.121,5.104
		c-1.458-0.729-2.187-0.729-3.644-0.729c-0.729,0-1.458,0-2.187,0c-1.458,0-2.916,0.729-3.645,0c0-0.729-0.729-0.729,0-1.458
		c0-0.729,3.645-0.729,5.103-0.729c0.729,0,0.729,0,0.729-0.729v-0.729c-4.374-0.729-6.56-2.188-6.56-3.646
		c0.729-0.729,0.729-0.729,0.729-1.458c0.729,0,2.187,0.729,5.103,2.188v0.729l0,0c0.729,0,1.458,0,1.458-0.729v-0.729l0,0l0,0
		c-1.458-0.729-2.916-2.187-4.374-3.645c0-0.729-0.729-1.458-0.729-1.458c0-0.729,0-1.458,0-1.458c0.729,0,0.729-0.729,0.729-0.729
		c1.458,0,3.645,2.915,5.102,3.646l0.729,1.458c0.729,0,0.729,0,1.458,0c0-0.729,0-1.458,0-1.458
		c-5.831-5.831-5.831-8.747-5.831-9.477c0,0,0-0.729,0.729-0.729c1.458-1.458,3.645,0.729,6.56,4.374
		c1.458,2.187,3.645,4.373,5.103,4.373c1.458,0.729,2.187,0,2.187,0c0.729-0.729,0.729-2.188,1.458-2.916c0-0.729,0-1.457,0-2.188
		c0-1.458,0.729-2.187,1.458-2.187s0.729,0,1.458,0.729c0.729,0.729,0.729,2.916,0,4.374c0,0.729,0,1.458,0,2.188
		c0,0.729,0,1.458,0,2.916c0.729,0.729,0.729,2.187,0.729,2.915C32.801,85.713,32.072,85.713,32.072,86.442L32.072,86.442z"/>
	<path fill="#DDDDDC" d="M33.53,88.629c0.729-1.458,0-6.562,0-8.02c0-2.187,1.458-5.831,0-7.289
		c-1.458-2.914-3.645-0.729-4.373,1.458c-0.729,2.188,0.729,5.104-2.188,5.104c-3.645-0.729-8.747-11.662-12.391-9.476
		c-3.645,2.914,2.916,10.203,4.374,11.661c-1.458-1.458-5.831-6.56-7.289-3.645c-2.187,2.187,2.916,6.561,4.374,7.289
		c-1.458-0.729-6.56-4.373-6.56-0.729c-0.729,2.915,4.373,4.373,6.56,4.373c-2.187,0-8.747,0-5.832,3.646
		c0.729,1.458,4.374,0,5.832,0s2.187,0,3.644,0.729C26.241,95.918,30.614,95.188,33.53,88.629L33.53,88.629z"/>
	<path fill="none" d="M33.53,88.629c0.729-1.458,0-6.562,0-8.02c0-2.187,1.458-5.831,0-7.289c-1.458-2.914-3.645-0.729-4.373,1.458
		c-0.729,2.188,0.729,5.104-2.188,5.104c-3.645-0.729-8.747-11.662-12.391-9.476c-3.645,2.914,2.916,10.203,4.374,11.661
		c-1.458-1.458-5.831-6.56-7.289-3.645c-2.187,2.187,2.916,6.561,4.374,7.289c-1.458-0.729-6.56-4.373-6.56-0.729
		c-0.729,2.915,4.373,4.373,6.56,4.373c-2.187,0-8.747,0-5.832,3.646c0.729,1.458,4.374,0,5.832,0s2.187,0,3.644,0.729
		C26.241,95.918,30.614,95.188,33.53,88.629L33.53,88.629z"/>
	<path fill="#C2C0BE" d="M34.258,88.629c0-0.729,0-0.729-0.729-1.458c0,0-0.729,0-0.729,0.729
		c-2.188,5.832-5.832,7.289-13.121,5.104c-1.458-0.729-2.187-0.729-3.644-0.729c-0.729,0-1.458,0-2.187,0
		c-1.458,0.729-2.916,0.729-3.645,0c0,0-0.729-0.729,0-0.729c0-1.457,3.645-1.457,5.103-1.457c0.729,0,0.729,0,1.458-0.729
		l-0.729-0.729c-4.374-0.729-6.56-2.188-5.832-3.646c0-0.729,0-0.729,0-0.729c0.729-0.729,2.916,0,5.103,2.188h0.729l0,0h0.729
		c0-0.729,0-0.729,0-1.458l0,0l0,0c-1.458-0.729-2.916-2.187-3.645-3.645c-0.729,0-1.458-0.729-1.458-1.458
		c0-0.729,0-0.729,0.729-1.458l0,0c1.458,0,3.645,2.187,5.102,3.645l0.729,0.729c0.729,0,0.729,0,1.458,0c0-0.729,0-0.729,0-1.458
		c-5.102-5.831-5.831-8.019-5.831-9.476l0.729-0.729c1.458-0.729,3.645,1.458,6.56,4.374c2.187,2.188,3.645,4.373,5.831,5.102
		c0.729,0,1.458,0,1.458-0.729c1.458-0.729,1.458-2.187,1.458-2.916c0-0.729,0-1.457,0-2.187s1.458-2.188,1.458-2.188
		c0.729,0,1.458,0,1.458,0.729c0.729,1.458,0.729,2.916,0,5.103c0,0.729,0,1.458,0,2.187c0,0.729,0,1.458,0,2.188
		c0.729,0.729,0.729,2.915,0.729,2.915c-0.729,0.729,0,0.729,0,1.458c0,0,0.729,0,1.458,0c0.729-1.458,0-2.916,0-4.373
		c-0.729-1.458-0.729-2.188-0.729-2.188c0-0.729,0-1.456,0.729-2.187c0-2.187,0-4.373-0.729-5.831s-2.187-1.458-2.915-1.458
		c-1.458,0-2.916,2.188-2.916,3.646c0,0.729,0,1.458-0.729,2.187c0,0.729,0,1.458,0,1.458c0,0.729-0.729,0.729-0.729,0
		c-1.457,0-2.915-2.187-4.373-3.645c-2.916-3.646-5.831-7.289-8.747-5.104c-0.729,0.729-1.458,1.458-1.458,2.188
		c0,1.457,0.729,2.915,1.458,5.102c0,0-0.729-0.729-1.458,0c-0.729,0-1.458,0-1.458,0.729c-0.729,0.729-0.729,1.458-0.729,2.187
		c0,0.729,0.729,2.187,1.458,2.916c-0.729-0.729-1.458-0.729-2.187,0c0,0-0.729,0.729-1.458,2.187c0,0.729,0.729,1.458,0.729,2.188
		c0.729,0.729,1.458,1.458,2.916,1.458c-1.458,0.729-2.916,0.729-2.916,1.458c-0.729,0.729-0.729,2.187,0.729,3.645
		c0.729,0.729,2.916,0.729,4.373,0c0.729,0,1.458,0,2.187,0c1.458,0,1.458,0,2.916,0.729C26.969,97.376,31.343,95.188,34.258,88.629
		L34.258,88.629z"/>
	<path fill="#DDDDDC" d="M32.801,89.357c-0.729-5.831,5.102-8.018,5.831-1.458c1.458,6.562-2.187,6.562-4.374,8.02
		c-1.457,0.729-2.187,2.187-2.915,2.187c-0.729,0-5.103-1.458-4.374-2.916c1.458-1.457,3.645-2.915,3.645-3.645
		C31.343,90.815,32.072,90.815,32.801,89.357L32.801,89.357z"/>
	<path fill="#C2C0BE" d="M37.174,95.188c1.458-1.457,2.916-3.645,2.916-5.831c0-0.729-0.729-2.915-1.458-3.645
		c0,0,0-0.729-0.729-0.729c0,0,0,0-0.729,0l0,0c0-0.729,0-0.729,0-0.729c-1.458,0-2.187,0-2.916,0
		c-1.457,0.729-1.457,2.188-2.187,3.645c0,0.729,0,1.458,0,1.458c-0.729,1.458-1.458,2.188-2.915,2.188
		c-1.458,0.729-2.188,1.458-2.916,2.916c0,0.729,0,0.729,0,0.729c0.729,2.188,2.187,2.916,3.645,3.646
		C32.072,98.833,34.988,97.376,37.174,95.188L37.174,95.188z M34.988,86.442L34.988,86.442c0.729,0,0.729,0,0.729,0s0,0,0.729,0
		s0.729,0,0.729,0l0,0c0.729,0.729,1.458,2.188,1.458,2.915c0,2.188-1.458,3.646-2.916,5.104s-3.645,2.916-5.831,2.187
		c-0.729,0-0.729,0-1.458-0.729c0,0,0-0.729-0.729-0.729c0.729-0.729,1.458-1.457,2.187-2.187c1.458-0.729,2.916-1.458,3.645-2.915
		c0-0.729,0-0.729,0-1.458c0.729-1.458,0.729-2.916,1.458-2.916l0,0C34.988,85.713,34.988,85.713,34.988,86.442L34.988,86.442z"/>
	<path fill="#716F6E" d="M44.463,198.694c0-1.458,2.187-2.188,3.645-3.645c0.729,0-0.729-0.729-0.729,0
		c-0.729,0-1.458,0.729-2.188,1.457l-0.729,0.729C44.463,197.965,44.463,197.965,44.463,198.694L44.463,198.694z"/>
	<path fill="#716F6E" d="M52.482,202.339c-0.729-2.188,0.729-3.646,1.457-5.104c0-0.729-0.729-0.729-1.457,0
		c0,0.729-0.729,1.458-0.729,2.188c0,0.729,0,0.729,0,1.458C51.752,201.609,52.482,201.609,52.482,202.339L52.482,202.339z"/>
	<path fill="#716F6E" d="M63.416,203.067c-1.458-0.729-1.458-2.916-1.458-4.373c0-0.729-0.729,0-0.729,0.729
		c0,0.729,0,1.458,0,2.187c0.729,0.729,0.729,0.729,1.458,1.458L63.416,203.067L63.416,203.067z"/>
	<path fill="#716F6E" d="M161.089,153.502c-0.729-2.188-2.188-2.916-3.646-3.646c-0.729,0,0-0.729,0.729-0.729
		c0.729,0.729,1.459,0.729,2.188,1.458c0,0.729,0.729,0.729,0.729,1.458C161.089,152.044,161.089,152.772,161.089,153.502
		L161.089,153.502z"/>
	<path fill="#716F6E" d="M165.462,144.755c-0.729-1.458-2.916-2.188-3.646-2.916c-0.729-0.729,0-0.729,0.729-0.729
		c0.729,0.729,1.457,0.729,2.188,1.458c0,0,0,0.729,0.729,1.457V144.755L165.462,144.755z"/>
	<path fill="#716F6E" d="M166.191,139.652c0-1.458-1.457-2.187-2.188-2.916c-0.729,0,0-0.729,0.729,0c0,0,0.729,0,1.457,0.729v0.729
		C166.919,138.924,166.191,138.924,166.191,139.652L166.191,139.652z"/>
</g>
</svg>
