<?xml version="1.0" encoding="utf-8"?>
<!-- Generator: Adobe Illustrator 13.0.0, SVG Export Plug-In . SVG Version: 6.00 Build 14948)  -->
<svg version="1.2" baseProfile="tiny" id="Layer_1" xmlns="http://www.w3.org/2000/svg" xmlns:xlink="http://www.w3.org/1999/xlink"
	 x="0px" y="0px" width="149.426px" height="149.245px" viewBox="0 0 149.426 149.245" xml:space="preserve">
<g>
	<path fill="#F28021" d="M129.746,94.758c-2.915,2.916-2.915,10.205-2.915,17.494c0,4.373,0,9.476-1.458,11.662
		c-0.729,2.187-1.458,3.645-3.645,4.374c-3.645,1.457-8.747-0.729-8.747-0.729c-0.729-0.729-1.458,0-1.458,0
		c0,0.729,0,1.458,0.729,1.458c0,0,5.831,2.916,10.204,0.729c2.187-0.729,3.645-2.187,5.103-5.102
		c0.729-2.916,0.729-7.29,0.729-12.392c0-6.561,0-13.85,2.916-16.036c0.729-0.729,2.187-0.729,3.645,0
		c0.729,0,1.458-0.729,1.458-0.729c0-0.729-0.729-1.458-0.729-1.458C133.39,93.3,131.204,94.029,129.746,94.758L129.746,94.758z"/>
	<path fill="#944F2E" d="M132.662,95.487c-1.458-4.374,2.915-6.56,6.56-5.832c5.832,2.187,2.188,8.018,10.205,8.747
		C149.426,98.403,135.577,104.234,132.662,95.487L132.662,95.487z"/>
	<path fill="#CC8A66" d="M69.975,120.27c0,9.476-1.458,16.036-0.729,18.952c0,4.373-1.458,7.289-2.916,8.018
		c-1.458,1.458-2.187,1.458-6.56,1.458c-0.729,0.729-2.916,0-3.645-0.729c-1.458,0.729-2.916,0.729-3.645,0
		c-0.729,0.729-1.458,0.729-2.187,0c-5.103-3.645,1.458-10.204,4.374-9.476c5.831,0.729,2.915-5.103,2.915-5.103
		c0-10.204-2.915-26.24,5.832-29.885c8.018-3.645,7.289-6.561,9.476-0.729C74.349,107.15,70.705,112.252,69.975,120.27
		L69.975,120.27z"/>
	<path fill="#F0BD88" d="M85.283,95.487c0,0,9.476,11.663,21.867,21.867c17.493,8.019,16.036,37.175-7.289,26.241
		c-12.392,2.916-18.952,0.729-24.783-2.187c-17.494-9.476-21.139-42.277-21.139-42.277L85.283,95.487z"/>
	<path fill="#CC8A66" d="M112.252,123.915c-0.729-1.458-5.832,7.289-5.832,7.289s0,8.747,0,9.476c0,0,0.729,0,2.188,0.729
		c1.457,0,2.915-0.729,4.373-2.187c0-0.729,0-2.916,0.729-4.374C116.625,130.475,114.439,125.373,112.252,123.915L112.252,123.915z"
		/>
	<path fill="#CC8A66" d="M110.794,137.764c-0.729,1.458,0.729,1.458,0.729,2.187c0.729,3.645,0,5.831-1.458,6.561
		c-1.457,0.729-4.373,1.457-8.746,1.457c-0.729,0.729-2.916,0-3.645-0.729c-1.458,0.729-2.916,0.729-3.646,0
		c-0.729,0.729-1.457,0.729-2.187,0c-3.645-2.187,0-8.018,2.916-7.289c5.831,1.458,4.373-5.103,4.373-5.103
		c-0.729-5.103-2.187-10.934,3.645-13.12c3.645-2.187,10.205-0.729,11.663,5.831C115.167,132.662,112.252,132.662,110.794,137.764
		L110.794,137.764z"/>
	<path fill="#F0BD88" d="M69.975,120.27c-0.729,9.476-1.458,16.036-1.458,18.952c0.729,4.373-0.729,6.56-2.187,7.289
		c-1.458,1.457-2.187,1.457-6.56,1.457c-0.729,0.729-2.916,0-3.645-0.729c-1.458,0.729-2.188,0.729-2.916,0
		c-0.729,0.729-2.187,0.729-2.187,0c-3.645-2.187-0.729-8.018,2.915-7.289c5.832,0.729,4.374-5.831,4.374-5.831
		c0-10.205-2.916-26.241,5.103-29.886c8.018-3.645,6.56-6.56,8.746-0.729C73.62,107.878,69.975,112.252,69.975,120.27L69.975,120.27
		z"/>
	<path fill="#944F2E" d="M57.583,142.867c0,0-2.187,0.729-1.457,4.373c0,0-0.729-0.729-0.729-2.187
		C55.397,142.867,57.583,142.867,57.583,142.867L57.583,142.867z"/>
	<path fill="#944F2E" d="M53.939,142.137c0,0-2.187,1.458-0.729,5.103c0,0-1.458-0.729-1.458-2.916
		C52.482,142.867,53.939,142.137,53.939,142.137L53.939,142.137z"/>
	<path fill="#F0BD88" d="M110.794,137.764c-0.729,1.458,0,1.458,0,2.187c0.729,3.645-0.729,5.831-2.187,6.561
		c-1.458,1.457-2.916,1.457-6.561,1.457c-0.729,0.729-2.916,0-3.645-0.729c-1.458,0.729-2.916,0.729-3.645,0
		c0,0.729-1.458,0.729-2.187,0c-2.916-2.187,0-8.018,2.915-7.289c5.832,1.458,4.374-5.103,4.374-5.103
		c-0.729-5.103-2.187-10.934,3.645-13.12c3.645-2.187,9.476-0.729,10.934,5.831C115.167,132.662,112.252,132.662,110.794,137.764
		L110.794,137.764z"/>
	<path fill="#944F2E" d="M99.861,142.867c0,0-2.916,0.729-1.458,4.373c0,0-1.458-0.729-0.729-2.187
		C97.674,142.867,99.861,142.867,99.861,142.867L99.861,142.867z"/>
	<path fill="#CC8A66" d="M69.975,120.27c0.729,9.476,1.458,16.036,1.458,18.952c-0.729,4.373,0.729,7.289,2.187,8.746
		c1.458,0.729,2.187,0.729,6.561,0.729c1.458,0.729,3.645,0.729,3.645,0c1.458,0,2.915,0,3.645-0.729
		c0.729,0.729,1.458,0.729,2.187,0c3.645-2.187,0-10.204-2.916-8.746c-5.831,1.457-2.915-5.832-2.915-5.832
		c1.458-8.018,5.103-26.24-2.916-29.156c-8.747-3.645-11.662-7.289-13.849-1.458C66.331,107.15,69.247,112.252,69.975,120.27
		L69.975,120.27z"/>
	<path fill="#F0BD88" d="M69.975,120.27c0.729,9.476,2.187,16.036,1.458,18.952c-0.729,4.373,0.729,6.56,2.187,7.289
		c1.458,1.457,2.916,1.457,6.561,1.457c1.458,0.729,2.915,0,3.645-0.729c1.458,0.729,2.915,0.729,3.645,0
		c0,0.729,1.458,0.729,2.187,0c2.916-2.187,0-8.018-2.916-7.289c-5.831,1.458-4.373-5.103-4.373-5.103
		c0.729-8.018,5.831-26.97-1.458-29.885c-8.747-3.645-10.934-7.29-13.12-1.458C66.331,107.878,69.975,112.252,69.975,120.27
		L69.975,120.27z"/>
	<path fill="#944F2E" d="M82.367,142.867c0,0,2.916,0.729,1.458,4.373c0,0,1.458-0.729,0.729-2.187
		C84.553,142.867,82.367,142.867,82.367,142.867L82.367,142.867z"/>
	<path fill="#944F2E" d="M86.011,142.137c0,0,2.187,1.458,1.458,5.103c0,0,0.729-0.729,0.729-2.916
		C88.198,142.867,86.011,142.137,86.011,142.137L86.011,142.137z"/>
	<path fill="#944F2E" d="M96.216,142.137c0,0-2.188,1.458-1.458,5.103c0,0-0.729-0.729-0.729-2.916
		C94.758,142.867,96.216,142.137,96.216,142.137L96.216,142.137z"/>
	<path fill="#6ABF63" d="M96.945,69.247c0,0,8.019,0,10.934,2.916c0,0-8.018-1.458-10.204,0.729L96.945,69.247z"/>
	<path fill="#6ABF63" d="M34.988,91.114c0,0-8.018,0.729-10.934,3.645c0,0,8.018-2.916,10.205-0.729L34.988,91.114z"/>
	<path fill="#965F3B" d="M94.758,91.843c0,10.933-11.663,20.41-25.512,20.41c-13.85,0-25.512-9.477-25.512-20.41
		c0-10.934,11.663-19.681,25.512-19.681C83.095,72.162,94.758,80.909,94.758,91.843L94.758,91.843z"/>
	<path fill="#F28021" d="M113.709,75.078c0-1.458,10.205,2.916,10.205,1.458c0.729-5.103-4.373-8.747-4.373-10.205
		c0-0.729,8.018,2.187,8.018,1.458c-1.458-7.289-7.289-9.476-10.205-10.934c-1.457-5.103,8.019,1.458,8.019,0.729
		c-2.187-8.018-10.934-8.747-12.392-8.747c0-0.729,7.289-6.56,6.561-7.289c-0.729-0.729-7.289-2.916-8.019-2.916
		c0.729-0.729,6.561-2.187,6.561-3.645c-0.729-0.729-13.12-5.103-14.578-5.103c1.458-1.458,5.103-5.102,3.645-5.831
		c0-1.458-5.103,0.729-5.831,0c-0.729-0.729,2.915-4.374,2.187-5.103c0,0-10.205,1.458-11.663,0.729
		c-0.729-0.729,5.103-4.374,4.374-4.374c-0.729-0.729-8.747,1.458-10.205,1.458c-2.187-2.916,4.373-9.476,5.103-8.018
		c-3.645-4.374-19.681-1.458-18.952,1.458c-0.729,0-0.729-9.476-2.187-10.205c-0.729,0-2.915,8.747-3.645,8.747c0,0,0,0-0.729,0
		c0-0.729-1.458-2.187-1.458-2.187c-1.458,0-1.458,1.458-2.187,2.916l0,0C60.5,5.832,67.06,1.458,66.331,1.458
		c-0.729,0.729-8.747,5.831-10.204,5.831c-0.729,0-2.188-5.102-3.645-5.102c-0.729,0-1.458,5.831-2.916,5.831
		c-0.729,0-2.916-2.916-3.645-2.187c-1.458,0,0.729,8.747-0.729,9.476c-0.729,0-3.645-4.374-4.374-4.374
		c-1.458,0.729,0,5.103-1.458,5.832c-0.729,0-11.663-1.458-12.392-0.729c5.103,0,7.289,3.645,7.289,3.645
		c-0.729,0-14.578,1.458-15.307,2.187c5.103,0.729,5.103,1.458,5.831,5.832c-1.458,0-16.036,3.645-16.036,5.103
		c8.747-1.458,10.205,1.458,9.476,2.187s-6.56-0.729-7.289,0.729c0,0.729,1.458,2.916,1.458,3.645c-0.729,0-1.458,0-2.187,0
		c0,0.729,0,0.729,0.729,1.458c-2.916,0.729-9.476,10.934-9.476,11.663c0,1.458,5.831-2.916,7.289-2.916
		C7.289,50.295,0.729,59.771,0,59.771C0,61.229,10.205,60.5,10.205,60.5c-2.187,1.458-4.373,2.916-4.373,3.645
		s5.831,2.916,6.56,2.916c-1.458,0.729-7.289,18.223-7.289,18.952c0.729,0,5.831-7.289,8.747-7.289
		C12.392,77.265,5.103,93.3,6.56,96.945c0-1.458,8.747-5.831,8.747-2.187c0,0-2.916,1.458-1.458,4.373
		c-0.729-0.729,5.832-2.915,7.289,0c-0.729-2.915-4.373,11.663-2.916,16.036c0-2.187,9.476-11.662,10.934-7.289
		c0.729,0.729,0,10.205,0.729,10.934c0.729-5.103,5.103-5.831,6.56-5.103c0.729,0.729,3.645,8.747,4.374,9.477
		c-0.729-2.916,1.458-5.832,2.187-5.832c1.458,0.729,4.374,7.29,9.476,8.747c-3.645-4.373-2.187-8.018-0.729-7.289
		c1.458,0,5.103,8.019,12.392,12.392c-2.916-10.205,0-13.85,1.458-10.934c1.458-0.729,8.747,3.645,11.662,10.205
		c5.103-4.374-2.915-12.392-2.187-13.121c1.458-0.729,8.018,8.747,9.476,8.019c0.729,0-2.187-8.019-0.729-8.747
		c0.729-0.729,5.831,3.645,6.56,3.645c0.729-0.729-0.729-6.561,0.729-7.289c0.729-0.729,5.831,3.645,7.289,2.916
		c0.729-0.729-4.374-9.477-3.645-10.205c1.458-0.729,5.831,2.916,6.561,2.187c0.729-0.729-1.458-5.103-0.729-5.831
		c0.729-0.729,11.663,4.373,12.392,3.645s-6.561-9.476-5.831-10.205c0.729-0.729,6.56,0,10.204,3.644
		c2.916-5.102-7.289-12.391-6.56-13.12c0-1.458,5.831-2.916,10.934,4.374C120.999,82.367,113.709,76.536,113.709,75.078
		L113.709,75.078z"/>
	<path fill="#944F2E" d="M22.596,78.722c0-0.729-8.018,2.187-8.018,1.458c-0.729-4.374,3.645-7.289,3.645-8.018
		c0-1.458-6.56,2.187-6.56,0.729c0.729-5.103,5.103-8.018,7.289-8.747c1.458-4.374-6.56,1.458-5.831,0.729
		c1.458-6.56,8.018-7.289,8.747-7.289c0-0.729-5.831-5.103-5.102-5.832c0.729-0.729,5.831-2.916,5.831-2.916
		s-5.103-1.458-4.374-2.187c0-0.729,10.205-5.103,10.934-5.103c-0.729-0.729-4.374-3.645-3.645-5.102
		c0.729-0.729,5.103,0.729,5.103,0c0.729-0.729-2.187-3.645-2.187-3.645c0.729-0.729,8.747,0.729,9.476,0
		c0.729-0.729-4.374-2.916-3.645-3.645c0.729-0.729,7.289,1.458,8.018,0.729c2.187-2.187-2.916-7.289-3.645-5.831
		c2.916-3.645,16.036-2.187,15.307,0c0.729,0,0-8.018,1.458-8.018c0.729,0,2.187,6.56,2.916,6.56c0.729,0,0.729,0,0.729,0
		c0-0.729,0.729-1.458,1.458-1.458s0.729,0.729,1.458,1.458l0,0c0.729-2.187-4.374-5.831-3.645-5.831
		c0.729,0,7.289,4.374,8.018,4.374c0.729,0,2.187-4.374,2.916-4.374c0.729,0,1.458,4.374,2.187,4.374
		c1.458,0.729,2.916-2.187,3.645-2.187c0.729,0.729,0,8.018,0.729,8.018c0.729,0,2.916-3.645,3.645-3.645
		c0.729,0.729,0,4.374,0.729,4.374c1.458,0.729,10.204-1.458,10.934-0.729c-4.374,0-6.561,2.916-5.831,3.645
		c0.729,0,11.662,0,12.392,0.729C93.3,32.072,93.3,32.801,93.3,36.446c0.729-0.729,12.392,2.187,13.12,2.916
		c-7.289-0.729-8.018,1.458-8.018,2.916c0.729,0.729,5.831-0.729,5.831,0c0.729,0-0.729,2.187-0.729,2.916c0.729,0,1.458,0,1.458,0
		s0,0.729,0,1.458c2.187,0,8.018,8.018,8.018,8.747c0,0.729-5.103-2.187-5.831-2.187c1.458,0.729,7.289,8.018,7.289,8.018
		c0,0.729-8.019,0.729-8.019,1.458c1.458,0.729,3.645,1.458,3.645,2.187s-4.373,2.916-5.102,2.916
		c0.729,0.729,6.56,14.578,6.56,14.578c-0.729,0.729-5.103-5.102-7.289-5.102c1.458-1.458,8.019,11.663,6.561,14.578
		c0-1.458-7.289-4.374-7.289-1.458c0,0,2.915,1.458,1.458,3.645c0-0.729-4.374-2.916-5.832,0c0.729-2.187,4.374,9.476,2.916,13.121
		c0-2.187-8.019-8.747-8.747-5.831c-0.729,0.729,0,8.746-0.729,8.746c-0.729-3.645-4.374-3.645-5.103-3.645
		c-0.729,0.729-2.916,8.019-3.645,8.019c0.729-2.187-0.729-5.103-2.187-4.374c-0.729,0-2.916,5.832-6.561,7.289
		c2.187-3.645,0.729-6.56,0-6.56c-0.729,0.729-3.645,7.289-9.476,10.934c2.187-8.019-0.729-10.934-1.458-8.747
		c-1.458,0-7.289,3.645-9.476,8.747c-4.374-2.916,2.187-10.205,1.458-10.205c-1.458-0.729-6.561,7.289-7.29,6.561
		c-0.729,0,1.458-6.561,0-7.289c-0.729,0-4.374,3.645-5.103,3.645c-0.729-0.729,0-5.831-0.729-5.831
		c-0.729-0.729-5.103,2.915-5.832,2.187c-0.729,0,2.916-8.019,2.187-8.019c-0.729-0.729-4.374,2.188-5.103,2.188
		c-0.729-0.729,0.729-4.374,0-5.103c-0.729-0.729-8.747,4.373-9.476,3.645c-0.729-0.729,5.103-8.018,4.374-8.747
		s-5.102,0-8.018,3.645c-2.916-3.645,5.103-10.205,4.374-10.934c0-0.729-5.102-2.187-8.747,3.645
		C17.494,85.283,23.325,79.451,22.596,78.722L22.596,78.722z"/>
	<path fill="#F0BD88" d="M39.361,51.024c0,4.373-3.645,8.018-8.018,8.018s-8.018-3.645-8.018-8.018c0-4.374,3.645-8.018,8.018-8.018
		S39.361,46.65,39.361,51.024L39.361,51.024z"/>
	<g>
		<path fill="#703F24" d="M31.343,46.65c-2.187,0-4.374,1.458-4.374,4.374c0,1.307,0.789,2.344,1.884,2.975l4.41-6.93
			C32.661,46.801,32.006,46.65,31.343,46.65z"/>
		<path fill="#703F24" d="M33.263,47.069l-4.41,6.93c0.178,0.103,0.365,0.189,0.558,0.269l4.4-6.914
			C33.636,47.244,33.452,47.153,33.263,47.069z"/>
		<path fill="#6B3A23" d="M33.811,47.354l-4.4,6.914c0.321,0.133,0.653,0.24,0.999,0.305l4.179-6.566
			C34.354,47.756,34.096,47.534,33.811,47.354z"/>
		<path fill="#663622" d="M34.589,48.006l-4.179,6.566c0.308,0.058,0.62,0.096,0.934,0.096c0.042,0,0.085-0.009,0.127-0.01
			l3.556-6.096C34.896,48.36,34.749,48.176,34.589,48.006z"/>
		<path fill="#623321" d="M35.026,48.563l-3.556,6.096c0.075-0.002,0.149-0.013,0.225-0.019l3.758-5.168
			C35.342,49.14,35.202,48.835,35.026,48.563z"/>
		<path fill="#5D2F20" d="M35.454,49.471l-3.758,5.168c0.408-0.029,0.812-0.096,1.197-0.219l2.737-4.302
			C35.589,49.888,35.523,49.679,35.454,49.471z"/>
		<path fill="#5D2F20" d="M35.717,51.024c0-0.322-0.037-0.619-0.087-0.906l-2.737,4.302C34.456,53.919,35.717,52.684,35.717,51.024z
			"/>
	</g>
	<path fill="#F0BD88" d="M85.283,34.988c0,4.374-3.645,8.018-8.019,8.018c-4.373,0-8.018-3.645-8.018-8.018s3.645-8.018,8.018-8.018
		C81.638,26.97,85.283,30.614,85.283,34.988L85.283,34.988z"/>
	<g>
		<path fill="#703F24" d="M81.638,34.988c0-2.187-2.188-4.374-4.374-4.374c-1.212,0-2.41,0.684-3.25,1.655l7.457,3.729
			C81.57,35.666,81.638,35.329,81.638,34.988z"/>
		<path fill="#703F24" d="M81.471,35.998l-7.457-3.729c-0.219,0.252-0.408,0.522-0.569,0.808l7.64,3.82
			C81.248,36.608,81.38,36.309,81.471,35.998z"/>
		<path fill="#6B3A23" d="M81.084,36.897l-7.64-3.82c-0.108,0.192-0.2,0.388-0.278,0.59l7.565,3.782
			C80.865,37.273,80.977,37.088,81.084,36.897z"/>
		<path fill="#663622" d="M80.732,37.45l-7.565-3.782c-0.122,0.319-0.2,0.645-0.234,0.977l7.102,3.551
			C80.29,37.968,80.526,37.722,80.732,37.45z"/>
		<path fill="#623321" d="M80.034,38.195l-7.102-3.551c-0.012,0.115-0.041,0.229-0.041,0.344c0,0.13,0.032,0.259,0.047,0.388
			l6.525,3.263C79.665,38.506,79.852,38.356,80.034,38.195z"/>
		<path fill="#5D2F20" d="M79.463,38.639l-6.525-3.263c0.051,0.436,0.164,0.866,0.362,1.274l5.041,2.521
			C78.733,39.048,79.111,38.872,79.463,38.639z"/>
		<path fill="#5D2F20" d="M78.341,39.171L73.3,36.65c0.731,1.51,2.345,2.711,3.964,2.711C77.628,39.361,77.988,39.282,78.341,39.171
			z"/>
	</g>
	<path fill="#F0BD88" d="M34.988,48.837c9.476-16.036,26.97-20.409,45.921-8.018c24.783,15.307,24.783,34.988,13.85,42.277
		c-18.952,13.849-45.192,23.325-63.415,9.476C21.138,84.554,29.156,59.042,34.988,48.837L34.988,48.837z"/>
	<path fill="#DDA37C" d="M101.319,66.331c-1.458-0.729-4.374-0.729-5.832,0c0,0,3.645,0,6.561,1.458
		C101.319,67.06,101.319,66.331,101.319,66.331L101.319,66.331z"/>
	<path fill="#DDA37C" d="M27.699,88.198c0.729,0.729,0.729,1.458,1.458,2.187c2.187-2.916,5.103-4.374,5.103-4.374
		C32.072,86.011,29.885,87.469,27.699,88.198L27.699,88.198z"/>
	<path fill="#DDA37C" d="M26.241,80.909c2.187-2.187,5.103-3.645,5.103-3.645c-2.187,0-3.645,0.729-5.103,1.458
		C26.241,79.451,26.241,80.18,26.241,80.909L26.241,80.909z"/>
	<path fill="#ECA185" d="M59.042,61.958c10.205-1.458,16.036,8.018,18.952,14.578c2.187,7.289-8.019,13.849-14.578,14.578
		c-3.645,0.729-13.121-1.458-13.85-6.56C48.837,81.638,48.108,63.415,59.042,61.958L59.042,61.958z"/>
	<path fill="#ECA185" d="M99.131,79.451c-3.645-5.831-11.662-8.018-19.681-5.103c-7.289,2.916-10.204,5.832-10.934,8.747
		c0,2.916,1.458,5.103,2.188,9.476c0.729,0.729,2.187,1.458,3.645,2.187c7.289-2.916,14.578-7.289,20.409-11.663
		C96.216,82.367,97.674,80.909,99.131,79.451L99.131,79.451z"/>
	<path fill="#DEA383" d="M62.686,58.313c10.205-1.458,16.765,8.018,18.952,14.578C84.553,80.18,73.62,86.74,67.06,87.469
		c-4.374,0.729-13.85-1.458-14.578-6.56C52.482,78.722,51.024,60.5,62.686,58.313L62.686,58.313z"/>
	<path fill="#FFFFFF" d="M68.517,104.234c8.747-1.458,26.241-10.205,25.512-16.036c-0.729-5.832-18.223-8.018-26.969-6.56
		c-8.019,0.729-26.97,8.018-26.241,13.849C41.548,102.047,60.5,104.963,68.517,104.234L68.517,104.234z"/>
	<path fill="#FFFFFF" d="M69.247,92.572c2.187,2.187,8.018,4.373,11.662,4.373c8.019,0,16.036-4.373,16.766-11.662
		c1.457-10.205-10.205-14.579-20.41-10.934c-6.56,2.916-10.204,5.832-10.204,8.747C66.331,86.011,67.789,88.198,69.247,92.572
		L69.247,92.572z"/>
	<path fill="#FFFFFF" d="M69.247,91.843c-1.458,2.187-5.831,7.289-9.476,8.747c-7.289,2.916-16.037,2.187-20.41-4.373
		c-4.374-8.747,2.916-18.223,14.578-18.223c8.019,0,12.392,1.458,13.85,4.373C69.247,85.283,68.517,87.469,69.247,91.843
		L69.247,91.843z"/>
	<polygon fill="#24211D" points="67.06,86.011 69.975,98.403 67.789,86.011 	"/>
	<path fill="#CF9A7D" d="M79.451,74.349c0-0.729-0.729-1.458-0.729-1.458c-11.662,0-22.596,5.103-27.698,7.289
		c0,0.729,0,1.458,0,1.458c0.729,5.102,10.204,7.289,13.849,7.289C71.433,88.198,82.367,81.638,79.451,74.349L79.451,74.349z"/>
	<g>
		<path fill="#FBD8BB" d="M64.873,87.469c0.13-0.015,0.263-0.035,0.396-0.054c-0.374,0.023-0.745,0.054-1.124,0.054
			c-5.006,0-9.591-2.049-12.816-5.473C53.045,86.316,60.826,88.144,64.873,87.469z"/>
		<path fill="#FBD9BC" d="M64.144,87.469c0.379,0,0.75-0.031,1.124-0.054c4.339-0.621,10.061-3.643,12.622-7.685
			c-2.992,4.279-7.956,7.01-13.746,7.01c-5.461,0-10.185-2.429-13.217-6.294c0.033,0.177,0.065,0.339,0.097,0.463
			c0.055,0.38,0.166,0.739,0.304,1.087C54.553,85.42,59.138,87.469,64.144,87.469z"/>
		<path fill="#FBD9BC" d="M64.144,86.74c5.79,0,10.754-2.73,13.746-7.01c0.871-1.374,1.373-2.865,1.334-4.419
			c-2.238,6.182-8.199,10.7-15.08,10.7c-5.595,0-10.583-2.99-13.458-7.428c0.07,0.768,0.157,1.398,0.242,1.863
			C53.959,84.311,58.683,86.74,64.144,86.74z"/>
		<path fill="#FCDBBE" d="M64.144,86.011c6.881,0,12.842-4.518,15.08-10.7c-0.014-0.54-0.09-1.087-0.242-1.64
			c-1.708,6.831-8,11.611-14.838,11.611c-6.037,0-11.03-3.127-13.546-7.94c0.023,0.44,0.053,0.858,0.087,1.24
			C53.561,83.021,58.549,86.011,64.144,86.011z"/>
		<path fill="#FCDBBE" d="M64.144,85.283c6.838,0,13.13-4.78,14.838-11.611c-0.072-0.259-0.155-0.519-0.26-0.781
			c-0.064-0.193-0.133-0.389-0.205-0.587c-1.126,6.919-7.149,12.25-14.373,12.25c-6.187,0-11.491-3.913-13.598-9.38
			c-0.003,0.771,0.016,1.5,0.052,2.169C53.114,82.155,58.107,85.283,64.144,85.283z"/>
		<path fill="#FCDBBF" d="M64.144,84.554c7.224,0,13.247-5.331,14.373-12.25c-0.169-0.464-0.359-0.941-0.569-1.425
			c-0.474,7.546-6.793,12.946-13.804,12.946c-6.341,0-12.125-4.416-13.524-10.842c-0.049,0.756-0.071,1.489-0.074,2.191
			C52.653,80.641,57.958,84.554,64.144,84.554z"/>
		<path fill="#FCDBBF" d="M64.144,83.825c7.011,0,13.33-5.4,13.804-12.946c-0.218-0.501-0.458-1.01-0.718-1.522
			c0.012,0.207,0.034,0.411,0.034,0.619c0,7.289-5.831,13.12-13.12,13.12s-13.12-5.831-13.12-13.12c0-0.194,0.021-0.386,0.032-0.579
			c-0.222,1.208-0.361,2.42-0.436,3.586C52.019,79.409,57.803,83.825,64.144,83.825z"/>
		<path fill="#FCDBBF" d="M58.911,58.648c-2.618,0.753-4.454,2.459-5.722,4.623C54.581,61.272,56.563,59.643,58.911,58.648z"/>
		<path fill="#FCDBBF" d="M64.144,83.096c7.289,0,13.12-5.831,13.12-13.12c0-0.208-0.022-0.413-0.034-0.619
			c-0.292-0.574-0.607-1.151-0.951-1.725c0.167,0.755,0.257,1.538,0.257,2.344c0,7.289-5.831,12.391-12.392,12.391
			s-12.392-5.102-12.392-12.391c0-6.561,5.831-11.663,12.392-11.663c0.079,0,0.157,0.01,0.236,0.011
			c-1.231-0.198-2.525-0.22-3.881-0.011c-0.563,0.07-1.086,0.191-1.589,0.335c-2.348,0.995-4.33,2.624-5.722,4.623
			c-1.068,1.824-1.737,3.963-2.133,6.125c-0.011,0.193-0.032,0.385-0.032,0.579C51.024,77.265,56.855,83.096,64.144,83.096z"/>
		<path fill="#FCDBBF" d="M51.752,69.976c0,7.289,5.831,12.391,12.392,12.391s12.392-5.102,12.392-12.391
			c0-0.806-0.09-1.589-0.257-2.344c-0.526-0.88-1.115-1.75-1.76-2.587c0.82,1.5,1.287,3.182,1.287,4.932
			c0,6.56-5.102,11.663-11.662,11.663s-11.662-5.103-11.662-11.663c0-5.832,5.102-10.934,11.662-10.934
			c1.849,0,3.573,0.417,5.108,1.128c-1.485-0.912-3.114-1.563-4.872-1.846c-0.079-0.001-0.157-0.011-0.236-0.011
			C57.583,58.313,51.752,63.415,51.752,69.976z"/>
		<path fill="#FCDDC1" d="M52.482,69.976c0,6.56,5.102,11.663,11.662,11.663s11.662-5.103,11.662-11.663
			c0-1.75-0.467-3.431-1.287-4.932c-1.467-1.902-3.233-3.626-5.267-4.874c-1.535-0.712-3.26-1.128-5.108-1.128
			C57.583,59.042,52.482,64.144,52.482,69.976z M75.078,69.976c0,6.56-5.103,10.934-10.934,10.934S53.21,76.536,53.21,69.976
			c0-5.832,5.103-10.205,10.934-10.205S75.078,64.144,75.078,69.976z"/>
		<path fill="#FCDDC1" d="M53.21,69.976c0,6.56,5.103,10.934,10.934,10.934s10.934-4.374,10.934-10.934
			c0-5.832-5.103-10.205-10.934-10.205S53.21,64.144,53.21,69.976z M74.349,69.976c0,5.831-4.374,10.205-10.205,10.205
			s-10.205-4.374-10.205-10.205c0-5.103,4.374-9.476,10.205-9.476S74.349,64.873,74.349,69.976z"/>
		<path fill="#FCDDC1" d="M53.939,69.976c0,5.831,4.374,10.205,10.205,10.205s10.205-4.374,10.205-10.205
			c0-5.103-4.374-9.476-10.205-9.476S53.939,64.873,53.939,69.976z M73.62,69.976c0,5.831-4.373,9.476-9.476,9.476
			s-9.476-3.645-9.476-9.476c0-5.103,4.373-8.747,9.476-8.747S73.62,64.873,73.62,69.976z"/>
		<path fill="#FCDDC1" d="M54.668,69.976c0,5.831,4.373,9.476,9.476,9.476s9.476-3.645,9.476-9.476c0-5.103-4.373-8.747-9.476-8.747
			S54.668,64.873,54.668,69.976z M72.891,69.976c0,5.102-3.645,8.747-8.747,8.747s-8.747-3.645-8.747-8.747
			c0-4.374,3.645-8.018,8.747-8.018S72.891,65.602,72.891,69.976z"/>
		<path fill="#FCDDC1" d="M55.397,69.976c0,5.102,3.645,8.747,8.747,8.747s8.747-3.645,8.747-8.747c0-4.374-3.645-8.018-8.747-8.018
			S55.397,65.602,55.397,69.976z M72.162,69.976c0,4.373-3.645,8.018-8.018,8.018s-8.018-3.645-8.018-8.018
			c0-4.374,3.645-7.289,8.018-7.289S72.162,65.602,72.162,69.976z"/>
		<path fill="#FCDEC2" d="M56.126,69.976c0,4.373,3.645,8.018,8.018,8.018s8.018-3.645,8.018-8.018c0-4.374-3.645-7.289-8.018-7.289
			S56.126,65.602,56.126,69.976z M71.433,69.976c0,4.373-3.645,7.289-7.289,7.289c-4.373,0-7.289-2.916-7.289-7.289
			c0-3.645,2.916-6.561,7.289-6.561C67.789,63.415,71.433,66.331,71.433,69.976z"/>
		<path fill="#FCDEC2" d="M56.855,69.976c0,4.373,2.916,7.289,7.289,7.289c3.645,0,7.289-2.916,7.289-7.289
			c0-3.645-3.645-6.561-7.289-6.561C59.771,63.415,56.855,66.331,56.855,69.976z M70.705,69.976c0,3.645-2.916,6.56-6.561,6.56
			s-6.561-2.916-6.561-6.56c0-2.916,2.916-5.832,6.561-5.832S70.705,67.06,70.705,69.976z"/>
		<path fill="#FCDEC2" d="M69.975,69.976c0,3.645-2.915,5.831-5.831,5.831s-5.831-2.187-5.831-5.831
			c0-2.916,2.915-5.832,5.831-5.832c-3.645,0-6.561,2.916-6.561,5.832c0,3.645,2.916,6.56,6.561,6.56s6.561-2.916,6.561-6.56
			c0-2.916-2.916-5.832-6.561-5.832C67.06,64.144,69.975,67.06,69.975,69.976z"/>
		<path fill="#FCDEC3" d="M58.313,69.976c0,3.645,2.915,5.831,5.831,5.831s5.831-2.187,5.831-5.831c0-2.916-2.915-5.832-5.831-5.832
			S58.313,67.06,58.313,69.976z M64.144,64.873c2.916,0,5.103,2.916,5.103,5.103c0,2.916-2.187,5.102-5.103,5.102
			s-5.103-2.187-5.103-5.102C59.042,67.789,61.228,64.873,64.144,64.873z"/>
		<path fill="#FCDEC3" d="M64.144,75.078c2.916,0,5.103-2.187,5.103-5.102c0-2.187-2.187-5.103-5.103-5.103
			s-5.103,2.916-5.103,5.103C59.042,72.891,61.228,75.078,64.144,75.078z M64.144,65.602c2.187,0,4.373,2.187,4.373,4.374
			c0,2.916-2.187,4.373-4.373,4.373s-4.373-1.458-4.373-4.373C59.771,67.789,61.958,65.602,64.144,65.602z"/>
		<path fill="#FDE0C3" d="M64.144,74.349c2.187,0,4.373-1.458,4.373-4.373c0-2.187-2.187-4.374-4.373-4.374
			s-4.373,2.187-4.373,4.374C59.771,72.891,61.958,74.349,64.144,74.349z M64.144,66.331c2.187,0,3.645,2.187,3.645,3.645
			c0,2.187-1.458,3.645-3.645,3.645S60.5,72.162,60.5,69.976C60.5,68.518,61.958,66.331,64.144,66.331z"/>
		<path fill="#FDE0C3" d="M64.144,73.62c2.187,0,3.645-1.458,3.645-3.645c0-1.458-1.458-3.645-3.645-3.645S60.5,68.518,60.5,69.976
			C60.5,72.162,61.958,73.62,64.144,73.62z M64.144,67.06c1.458,0,2.916,1.458,2.916,2.916c0,2.187-1.458,2.916-2.916,2.916
			s-2.916-0.729-2.916-2.916C61.228,68.518,62.686,67.06,64.144,67.06z"/>
		<path fill="#FDE0C4" d="M64.144,72.891c1.458,0,2.916-0.729,2.916-2.916c0-1.458-1.458-2.916-2.916-2.916
			s-2.916,1.458-2.916,2.916C61.228,72.162,62.686,72.891,64.144,72.891z M64.144,67.789c1.458,0,2.187,1.458,2.187,2.187
			c0,1.458-0.729,2.187-2.187,2.187s-2.187-0.729-2.187-2.187C61.958,69.247,62.686,67.789,64.144,67.789z"/>
		<path fill="#FDE0C4" d="M64.144,72.162c1.458,0,2.187-0.729,2.187-2.187c0-0.729-0.729-2.187-2.187-2.187
			s-2.187,1.458-2.187,2.187C61.958,71.433,62.686,72.162,64.144,72.162z M64.144,68.518c0.729,0,1.458,0.729,1.458,1.458
			c0,1.458-0.729,1.458-1.458,1.458s-1.458,0-1.458-1.458C62.686,69.247,63.416,68.518,64.144,68.518z"/>
		<path fill="#FDE0C4" d="M64.144,71.433c0.729,0,1.458,0,1.458-1.458c0-0.729-0.729-1.458-1.458-1.458s-1.458,0.729-1.458,1.458
			C62.686,71.433,63.416,71.433,64.144,71.433z M64.144,69.247l0.729,0.729c0,0.729-0.729,0.729-0.729,0.729
			c-0.729,0-0.729,0-0.729-0.729C63.416,69.976,63.416,69.247,64.144,69.247z"/>
		<path fill="#FEE1C6" d="M64.144,70.704c0,0,0.729,0,0.729-0.729l-0.729-0.729c-0.729,0-0.729,0.729-0.729,0.729
			C63.416,70.704,63.416,70.704,64.144,70.704z"/>
	</g>
	<path fill="#944F2E" d="M78.722,72.891c0-0.729,0-0.729,0-1.458c-12.392,0-23.325,5.103-28.427,7.289
		c0,0.729,0.729,1.458,0.729,2.187c0.729,5.102,9.476,7.289,13.849,6.56C71.433,86.74,81.638,80.18,78.722,72.891L78.722,72.891z"/>
	
		<path fill="none" stroke="#FFFFFF" stroke-width="0.7289" stroke-linecap="round" stroke-linejoin="round" stroke-miterlimit="10" d="
		M86.011,80.18c0,0,8.018-2.916,19.681,2.916"/>
	
		<path fill="none" stroke="#FFFFFF" stroke-width="0.7289" stroke-linecap="round" stroke-linejoin="round" stroke-miterlimit="10" d="
		M88.198,84.554c0,0,9.477,0.729,19.681,7.289"/>
	
		<path fill="none" stroke="#FFFFFF" stroke-width="0.7289" stroke-linecap="round" stroke-linejoin="round" stroke-miterlimit="10" d="
		M87.469,89.656c0,0,10.205,0.729,16.765,10.934"/>
	
		<path fill="none" stroke="#FFFFFF" stroke-width="0.7289" stroke-linecap="round" stroke-linejoin="round" stroke-miterlimit="10" d="
		M43.734,88.927c-6.56,2.187-10.205,4.373-16.036,9.476"/>
	
		<path fill="none" stroke="#FFFFFF" stroke-width="0.7289" stroke-linecap="round" stroke-linejoin="round" stroke-miterlimit="10" d="
		M44.463,93.3c0,0-8.747,3.645-14.578,11.663"/>
	
		<path fill="none" stroke="#FFFFFF" stroke-width="0.7289" stroke-linecap="round" stroke-linejoin="round" stroke-miterlimit="10" d="
		M48.837,97.674c0,0-12.392,6.56-16.765,14.579"/>
	<path fill="#944F2E" d="M103.505,65.602c0,0-5.103-0.729-8.747,0c0,0,6.561,0.729,8.018,2.187L103.505,65.602z"/>
	<path fill="#944F2E" d="M23.325,80.18c0,0,3.645-3.645,8.018-3.645c0,0-5.832,3.645-6.561,6.56L23.325,80.18z"/>
	<path fill="#944F2E" d="M34.259,84.554c-2.916,0-8.747,4.374-8.747,4.374l-0.729,1.458c0.729,0,2.916,0,3.645,0
		C29.885,87.469,34.259,84.554,34.259,84.554L34.259,84.554z"/>
	<path fill="#24211D" d="M49.566,82.367c0,0.729-0.729,0.729-0.729,0.729s-0.729,0-0.729-0.729h0.729H49.566L49.566,82.367z"/>
	<path fill="#24211D" d="M48.837,85.283c0,0,0,0-0.729,0l0,0c0-0.729,0-0.729,0-0.729C48.837,84.554,48.837,84.554,48.837,85.283
		L48.837,85.283z"/>
	<path fill="#24211D" d="M46.65,83.096c0,0.729-0.729,0.729-0.729,0.729s-0.729,0-0.729-0.729h0.729H46.65L46.65,83.096z"/>
	
		<path fill="none" stroke="#944F2E" stroke-width="0.7289" stroke-linecap="round" stroke-linejoin="round" stroke-miterlimit="10" d="
		M73.62,43.735c0,0,3.645-2.187,7.289,0"/>
	
		<path fill="none" stroke="#DDA37C" stroke-width="0.7289" stroke-linecap="round" stroke-linejoin="round" stroke-miterlimit="10" d="
		M34.988,56.126c0,0,2.187-2.916,5.831-2.916"/>
	
		<path fill="none" stroke="#944F2E" stroke-width="0.7289" stroke-linecap="round" stroke-linejoin="round" stroke-miterlimit="10" d="
		M34.988,56.126c0,0,1.458-2.916,5.831-2.916"/>
	<path fill-rule="evenodd" fill="#24211D" d="M86.74,48.837c-2.187-2.916-6.56-2.187-8.746,0c-0.729,1.458-1.458,2.916-0.729,4.374
		c2.187,4.374,3.645,2.916,8.019,1.458c2.187-0.729,3.645-2.187,2.915-3.645C87.469,48.837,87.469,50.295,86.74,48.837L86.74,48.837
		z"/>
	<path fill-rule="evenodd" fill="#FFFFFF" d="M80.18,48.108c-2.187,0.729-3.645,2.187-2.187,5.103
		c0.729,2.187,2.187,3.645,3.645,2.187c2.915-0.729,6.56-2.187,5.831-4.373C86.74,48.108,83.095,47.379,80.18,48.108L80.18,48.108z"
		/>
	<path fill-rule="evenodd" fill="#24211D" d="M84.553,44.463c0,0.729-0.729,2.187-0.729,2.187c0,0.729,1.458,0.729,0.729,0.729
		C84.553,46.65,84.553,45.192,84.553,44.463L84.553,44.463z"/>
	<path fill-rule="evenodd" fill="#24211D" d="M79.451,44.463c0.729,0.729,0.729,2.187,0.729,2.916c0.729,0.729,1.458,0,1.458,0
		C80.909,46.65,80.18,45.192,79.451,44.463L79.451,44.463z"/>
	<path fill-rule="evenodd" fill="#24211D" d="M75.806,48.108c1.458,0,1.458,0.729,2.188,1.458l0.729-0.729
		C77.994,48.837,77.264,48.108,75.806,48.108L75.806,48.108z"/>
	<path fill-rule="evenodd" fill="#955942" d="M86.011,53.939c2.187-1.458,1.458-3.645,0-5.103c-2.187-2.187-8.018,0-8.747,2.187
		c-0.729,2.916,2.187,5.831,4.374,5.102c0.729-0.729,2.187-0.729,2.915-1.458C85.283,54.668,86.011,53.939,86.011,53.939
		L86.011,53.939z"/>
	<path fill-rule="evenodd" fill="#24211D" d="M80.909,49.566c-3.645,0.729-2.915,6.56,0.729,5.103c0.729,0,1.457-0.729,2.187-0.729
		C86.74,52.481,83.825,48.108,80.909,49.566L80.909,49.566z"/>
	<path fill-rule="evenodd" fill="#FFFFFF" d="M78.722,51.024v0.729c0,0,0,0,0,0.729v0.729c0.729,0,0.729,0,1.458,0v-0.729
		c0,0,0.729-0.729,0-0.729c0,0,0,0-0.729-0.729C79.451,51.024,79.451,51.024,78.722,51.024L78.722,51.024z"/>
	<path fill-rule="evenodd" fill="#24211D" d="M92.572,54.668c-0.729-0.729-2.188-1.458-3.645-0.729c-0.729,0-1.458,0-2.916,0
		c0,0.729,0,0,0.729,0c0.729,0,1.458-0.729,2.188-0.729c0.729,0,1.457,0,2.187,0C91.842,53.939,91.842,53.939,92.572,54.668
		L92.572,54.668z"/>
	<path fill-rule="evenodd" fill="#24211D" d="M43.734,62.687c-0.729-3.645-4.373-4.374-7.289-2.916
		c-1.458,0.729-3.645,1.458-4.373,3.645c-1.458,5.103,2.187,5.832,6.56,4.374c2.187,0,4.374,0,5.102-1.458
		C43.734,64.144,43.734,64.144,43.734,62.687L43.734,62.687z"/>
	<path fill-rule="evenodd" fill="#FFFFFF" d="M43.006,63.415c-0.729-3.645-3.645-4.373-6.561-3.645
		c-1.458,0.729-3.645,2.916-4.373,4.374c0,4.374,2.187,4.374,5.831,3.645c1.458-0.729,4.374,0,5.103-1.458
		C43.006,64.144,43.734,64.873,43.006,63.415L43.006,63.415z"/>
	<path fill-rule="evenodd" fill="#955942" d="M41.548,67.06c2.187,0,1.458-3.645,0-5.831c-2.187-2.187-7.289-0.729-8.747,2.187
		c-1.458,2.916,0.729,5.832,2.916,4.374c1.458,0,2.187,0,2.916,0S38.632,67.789,41.548,67.06L41.548,67.06z"/>
	<path fill-rule="evenodd" fill="#24211D" d="M37.903,61.229c-4.374,0.729-4.374,7.289,0,5.831c0.729,0.729,1.458,0,2.187,0
		C43.734,65.602,40.819,60.5,37.903,61.229L37.903,61.229z"/>
	<path fill-rule="evenodd" fill="#24211D" d="M32.801,58.313c1.458,0,1.458,2.187,2.187,2.187c0,0.729,1.458,0,0.729,0
		C34.988,60.5,34.259,58.313,32.801,58.313L32.801,58.313z"/>
	<path fill-rule="evenodd" fill="#24211D" d="M39.361,56.126c0,1.458-0.729,2.916-0.729,2.916c0,0.729,1.458,0.729,0.729,0
		C39.361,59.042,39.361,57.584,39.361,56.126L39.361,56.126z"/>
	<path fill-rule="evenodd" fill="#24211D" d="M44.463,58.313c-0.729,1.458-1.458,2.187-1.458,2.187
		c-0.729,0.729,0.729,0.729,0,0.729C43.006,60.5,43.734,59.042,44.463,58.313L44.463,58.313z"/>
	<path fill-rule="evenodd" fill="#FFFFFF" d="M34.988,62.687h-0.729c0,0.729,0,0.729,0,0.729s0,1.458,0.729,1.458h0.729
		c0.729,0,0.729-0.729,0.729-0.729v-0.729c0,0,0-0.729-0.729-0.729C35.717,62.687,35.717,62.687,34.988,62.687L34.988,62.687z"/>
	<path fill-rule="evenodd" fill="#24211D" d="M28.427,71.433c0.729-1.458,2.916-2.187,5.103-2.187
		c1.458-0.729,2.187-0.729,3.645-0.729c0.729,0,0.729-0.729,0-0.729c-1.458,0-2.916,0-4.374,0.729
		c-0.729,0.729-1.458,0.729-2.916,1.458C29.156,70.704,29.156,70.704,28.427,71.433L28.427,71.433z"/>
	<path fill="#24211D" d="M86.011,75.807c0,0,0,0-0.729,0h-0.729c0-0.729,0.729-0.729,0.729-0.729
		C86.011,75.078,86.011,75.078,86.011,75.807L86.011,75.807z"/>
	<path fill="#24211D" d="M85.283,77.994v0.729c-0.729,0-0.729-0.729-0.729-0.729s0-0.729,0.729-0.729V77.994L85.283,77.994z"/>
	<path fill="#24211D" d="M83.095,76.536c0,0,0,0-0.729,0h-0.729c0-0.729,0.729-0.729,0.729-0.729
		C83.095,75.807,83.095,75.807,83.095,76.536L83.095,76.536z"/>
	<path fill-rule="evenodd" fill="#FFFFFF" d="M57.583,78.722c-1.457,0.729-2.915,1.458-2.915,1.458c0,0.729,0,0.729,0,0.729
		s0.729,0.729,2.187,0.729c2.187-0.729,3.645-1.458,5.103-2.187s2.187-1.458,2.187-2.187c0,0,0.729-0.729,0-0.729
		s-1.458,0-2.916,0.729C59.771,77.265,59.042,77.994,57.583,78.722L57.583,78.722z"/>
	<path fill="#944F2E" d="M86.74,105.692c0,0-1.457-5.103-5.102-7.289c0,0,2.187,6.561,2.187,8.747L86.74,105.692z"/>
	<path fill="#944F2E" d="M84.553,108.608c0,0-2.187-5.103-4.373-7.289c0,0,2.187,7.289,1.458,9.476L84.553,108.608z"/>
	<path fill-rule="evenodd" fill="#24211D" d="M91.114,79.451c-0.729,0.729,0,2.187,0,2.916c-3.645,9.476-8.019,12.392-18.952,16.765
		c0,0-8.746,2.188-15.307-0.729c-7.289-2.187-9.476-2.916-10.205-5.831c-0.729-2.916-1.458-0.729-0.729,0
		c4.374,7.289,18.951,8.018,26.97,5.831c9.476-3.645,14.578-8.018,16.036-10.205c2.187-2.916,3.645-8.747,2.915-8.747
		C91.114,78.722,91.114,79.451,91.114,79.451L91.114,79.451z"/>
</g>
</svg>
