<?xml version="1.0" encoding="utf-8"?>
<!-- Generator: Adobe Illustrator 13.0.0, SVG Export Plug-In . SVG Version: 6.00 Build 14948)  -->
<svg version="1.2" baseProfile="tiny" id="Layer_1" xmlns="http://www.w3.org/2000/svg" xmlns:xlink="http://www.w3.org/1999/xlink"
	 x="0px" y="0px" width="119.5px" height="79.235px" viewBox="0 0 119.5 79.235" xml:space="preserve">
<g>
	<path d="M104,28.1c-0.1,0.1-0.199,0.1-0.3,0.1c-0.899,0-1.6,0.2-2.3,0.7c0,0.4,0.2,0.5,0.6,0.5c0,0,0.101,0,0.2,0.1
		c1-0.3,2.101-0.5,3.101-0.6c0.199,0,0.3,0,0.399,0c0.101,0,0.101,0,0.101,0c-0.101-0.1-0.101-0.2-0.301-0.3c0,0-0.1,0-0.199,0
		c0-0.1,0-0.1-0.101-0.2c0,0,0,0-0.1-0.1c0,0-0.101,0-0.2-0.1C104.6,28.2,104.2,28.2,104,28.1z"/>
	<path d="M107.3,26.5c-0.101,0-0.2,0-0.2-0.1c-0.101,0-0.101,0-0.101,0c-1.199-0.5-2.3-0.7-3.699-0.5c-0.7,0.1-1.4,0.3-2.101,0.4
		c-0.5,0.1-0.7,0.4-0.7,0.9l0.101,0.1c0.1,0.1,0.1,0.1,0.2,0.1c2.5-0.5,5-0.7,7.399-0.6C107.8,26.7,107.6,26.6,107.3,26.5z"/>
	<path d="M111.1,30.5C110,31.2,109,31.9,108,33c-0.6,0.6-1.199,1.4-1.699,2.2c-0.2,0.3-0.301,0.7-0.5,1.2l-1-0.1v-0.8
		c-1.7-2.1-3.7-3.9-5.801-5.5c-0.5-0.3-1-0.7-1.5-1.1L94.8,28.8c-0.7,0.4-1.301,1-1.7,1.6c-0.4,0.6-0.9,1.2-1.2,1.9
		c-0.2,0.3-0.3,0.6-0.4,1.1C92.1,35,93,36.5,94,37.8c0.5,0.6,1,1.1,1.4,1.7c-2.7,1.8-5.7,3.1-8.8,4C85.7,43.8,84.8,43.9,84,44
		c-1.199,0.2-2.3,0.4-3.3,0.601c-1.1-0.101-2.2-0.2-3.2-0.2c-0.5-0.9-1-1.7-1.5-2.5c-0.8-1.2-1.6-2.4-2.5-3.5
		c-1.1-1.5-2.1-3.1-3.1-4.9c-0.2-0.5-0.5-1-0.9-1.5c-1.1-1.4-2.399-2.6-4-3.6c-2.8-1.7-5.6-3-8.6-4c-1.2-0.3-2.2-0.7-3.2-1
		c-1.6-0.6-3.1-0.8-4.6-0.4l-0.5-0.1l-1.9-2c2.2-0.3,4.3-1,6.4-2c1.3-0.7,2.6-1.4,3.8-2c1.1-0.5,2.1-0.9,3.2-1.4
		c2.5-1,4.8-2.6,6.6-4.6c0.9-0.9,1.7-1.8,2.4-2.7c1-1.2,1.1-2.3,0.5-3.6c-0.7-1.7-1.9-3-3.7-3.7C64.7,0.3,63.6,0,62.3,0
		c-2.5,0.2-4.9,0.8-7.3,1.9c-4.1,1.6-7.6,4-10.6,7.1c-1.9,2.1-3.5,4.4-4.6,6.9c-0.1,0.1-0.1,0.2-0.1,0.4l-0.3,0.2l-0.6,2.3L35.2,21
		l-4-2.3l-0.3,0.1c-0.2-0.2-0.5-0.3-0.6-0.4c-0.6-0.1-1.3-0.4-1.9-0.5c-1.7-0.5-3.3-0.7-5-0.7c-4-0.1-7.7,0.4-11.5,1.6
		c-0.2,0.1-0.5,0.1-0.8,0C8,20.3,5,22,2.3,24.3c-0.4,0.3-0.8,0.7-1.2,1.1c0,0-0.1,0.1-0.1,0.3c-0.4,0.9-0.7,1.9-1,2.9
		c0.9,1.3,1.9,2.3,3.3,3.1c1.1,0.6,2.2,0.8,3.5,0.7c3.9-0.1,7.6-0.8,11.2-1.9c-1.9,1.7-3.6,3.7-5,5.9c-0.9,1.6-1.8,3.1-2.6,4.7
		c-0.9,1.8-1.2,3.8-1,5.899c0.2,1.5,0.4,3,0.6,4.5c0.3,1.2,0.5,2.4,1,3.5c0.3,0.4,0.6,0.9,0.8,1.5c0.3,0.801,0.8,1.7,1.3,2.5
		c1.6,2.7,3.8,4.801,6.5,6.5c0.8,0.5,1.5,1,2.1,1.7c0.1,0,0.2,0,0.4-0.1c1.6,0.3,3.3,0.6,5.1,0.899L26.4,71.8l-1,0.3
		c-0.3-0.101-0.7,0-1.1,0.2c-0.2,0-0.5,0-0.9,0.199c-0.5,0.301-0.9,0.601-1.2,1c0,0.301,0,0.5,0,0.7c0,0.101,0,0.101,0,0.2
		s0,0.1,0,0.1c0,0.301,0.2,0.301,0.4,0.4c1,0.3,1.9,0.1,2.6-0.3c0.9,0,1.9-0.101,2.7-0.3c2.8-0.801,5.7-1.5,8.5-2.301l0.3,4
		L35.9,76.1c-0.5-0.101-1,0.1-1.5,0.2c-0.3,0-0.5,0.199-0.7,0.3l0,0c-0.3,0.2-0.5,0.5-0.7,0.8c0,0.1,0,0.2,0,0.4c0,0,0,0.199,0,0.3
		c0.5,1.1,1.2,1.399,2.1,0.899c0.8-0.5,2.6-1,5.3-1.3c2.8-0.399,5.5-0.7,8.3-1.2c2.7-0.3,4.6-0.699,5.9-1c1.1-0.3,2.3-0.5,3.4-0.699
		c1.1-0.301,1.7-0.301,1.7-0.301c1.8-0.6,3.5-1,5.3-1.3c2.101-0.399,4.101-1,6.2-2.1c0-0.101,0-0.101,0-0.2c0.2-0.1,0.2-0.1,0.4-0.2
		c0-0.1,0-0.1,0-0.1c0.1,0,0.1,0,0.1,0c0-0.101,0-0.101,0-0.101c0.2-0.1,0.4-0.3,0.5-0.5c0-0.199-0.1-0.3-0.1-0.5
		c-0.101,0-0.2,0-0.2-0.1s0-0.1,0-0.1c0-0.101,0-0.2,0-0.301c0,0,0-0.199-0.1-0.199C71.7,68.5,71.4,68.5,71.1,68.5l0,0
		c0,0.101-0.2,0.101-0.2,0.101c-0.2,0.1-0.2,0.2-0.3,0.2c0,0,0-0.101-0.101-0.2h-0.1l0,0c-0.8,0.6-1.7,0.899-2.5,1.2
		c-0.9,0.3-1.8,0.6-2.7,0.8c-0.3,0.2-0.5,0-0.6-0.3c-0.101-0.2-0.101-0.5,0-0.7c0,0,0,0-0.101,0c0-1.3-0.199-2.601-0.6-3.8
		c3-0.801,6-1.801,9-3c1.5-0.7,2.9-1.4,4.3-2.101c1.5-0.7,2.9-1.399,4.3-2c1.2-0.5,2.301-1.2,3.5-1.7c1.101-0.5,2.301-1,3.5-1.5
		c1.601-0.899,3.101-2,4.5-3.3c2.2-2,4.7-4,7.5-6c-0.899,1.7-1.199,3.5-0.5,5.3c0.301,1,0.7,1.9,1.4,2.7c0.7,0.9,1.7,1.8,2.7,2.4
		h2.5c0.1-0.2,0.399-0.4,0.5-0.601c1-1.699,1.6-3.5,1.7-5.399c0.199-2.5-0.301-4.8-1.5-7c-0.2-0.3-0.5-0.7-0.601-1.101
		c2.3,0.101,4,0,5-0.5c0.7-0.3,1.4-0.6,2.101-0.8c1.3-0.5,2.399-1.3,3.3-2.3c0.6-0.6,1.1-1.5,1.5-2.4c0.5-1.3,0.899-2.7,0.899-4.1
		c0-0.4,0-0.8,0-1.1l-2.3-2.4c-1.3,0.1-2.5,0.4-3.8,0.7C112.6,29.8,111.8,30,111.1,30.5z M107.6,37.3c-0.3-0.2-0.4-0.4-0.5-0.5
		l1-1.4l0.8-0.1c0.8-1.5,1.9-2.7,3.4-3.3c0.8-0.2,1.399-0.5,2.199-0.6c0.801,0,1.601,0.1,2.5,0.2c0.601,1.5,0.301,2.8-0.699,3.8
		s-1.9,2-3,2.9c-0.601,0.5-1.301,1.1-2.101,1.5c-0.899,0.5-2.399,1-4.5,1.6L108,40c-0.1-0.4-0.1-0.7-0.1-1.1
		c-0.1-0.3-0.1-0.5-0.2-0.6c-0.2-0.3-0.399-0.4-0.5-0.6l0.5,0.1c0.101,0,0.2,0,0.3,0C107.8,37.5,107.7,37.4,107.6,37.3z M104.9,38.9
		c0.2,0,0.5,0.2,0.8,0.4c-0.2,0.3-0.399,0.7-0.6,1.1c-0.4,0.6-1,1.3-1.9,1.9l-1.7-0.801l1.101-2.2C103.3,38.6,104.1,38.5,104.9,38.9
		z M103,44.3c0.5-0.4,0.9-0.5,1.4-0.7c1.8,2.3,2.5,4.899,2.1,7.7c-0.199,1-0.399,2-0.699,2.899C104.7,54.3,103.7,54,103,53
		c-0.899-1-1.199-2.199-1-3.6c0.101-0.6,0.101-1.1,0.2-1.6c0-0.7,0.101-1.4,0.101-2.2c0.1-0.2,0.1-0.5,0.199-0.7
		C102.7,44.7,102.8,44.5,103,44.3z M67.3,4.2L67.2,4.5l0.4,0.8c-1.2,2.1-2.7,3.9-4.7,5.2c-0.8,0.7-1.7,1.3-2.5,1.9
		c-1.7,1.2-3.3,2.2-5.2,3c-0.8,0.2-1.6,0.6-2.3,1c-0.6,0.2-1.2,0.4-1.8,0.5c-2.6,0.8-5.3,1.4-8,1.9c-1,0.1-2.2,0.1-3.2,0
		c0-0.2,0-0.3,0.2-0.3c0-0.1,0-0.1,0.1-0.1c0.2,0,0.4,0,0.6,0l1.1-2.2c0-0.1,0-0.1,0-0.1V16l0.5-1c0-0.1,0-0.1,0.1-0.1
		c0-0.1,0-0.1,0.1-0.1l0.3-0.7c1.7-2.1,3.5-4,5.4-5.8c0.4-0.5,1-0.9,1.6-1.3c2.2-1.5,4.5-2.7,7-3.6c1.3-0.5,2.7-1,4-1.5
		c1.2-0.4,2.5-0.4,3.7,0C65.9,2.3,66.7,3,67.3,4.2z M55.4,26.4v-0.2l0,0c2,0.3,3.7,1.1,5.4,2.2c0.399,0.3,0.899,0.6,1.399,1
		c0.5,0.2,1,0.5,1.5,0.9c1,0.9,1.9,1.7,2.7,2.6c1.4,1.5,2.7,3,3.9,4.5c1.1,1.4,2.1,2.9,3.1,4.4c0.5,0.6,0.8,1.199,1.3,2
		c0.3,0.6,0.7,1.399,1,2.1c0.4,0.6,0.8,1.4,1.101,2.1l0.3-0.3l2.1-0.2l0.5,0.5c4-0.899,7.9-2.399,11.601-4.3
		c1.8-0.899,3.6-1.899,5.399-3L97.3,41.3L98.7,41.2l-0.2,0.4c0.4,0.2,0.601,0.6,0.7,1c0,0.1,0,0.2,0,0.3c0.3,0.1,0.5,0.4,0.8,0.7
		c0,0.1,0.101,0.2,0.101,0.2c0,0.1,0,0.1,0,0.1C100,44.1,100,44.2,100,44.3C98.5,46,96.7,47.5,94.7,48.8
		C94.2,49,93.8,49.3,93.4,49.7c-1.8,1.3-3.8,2.5-5.9,3.5C86.3,53.9,85.2,54.6,84,55.3C82.5,56.3,80.8,57,79.1,57.8
		C77.2,58.5,75.2,59.3,73.3,60c-1.9,0.7-3.9,1.301-5.9,1.801c-3.3,0.899-6.5,1.699-9.8,2.3c-1.9,0.399-3.9,0.7-5.8,1.1
		c-1.9,0.5-3.9,0.8-5.9,0.8c-1,0.101-2.1,0.2-3.1,0.301C38.7,67,34.7,66.9,30.7,66.2c-1.3-0.3-2.5-0.5-3.8-0.6
		c-1.1-0.101-2.2-0.101-3.2-0.3C23.4,65.2,23.2,65,23.1,64.8c-0.4-0.301-0.9-0.601-1.4-1c-3.8-2.301-6.4-5.5-8-9.7
		C13.7,54,13.6,54,13.6,54c-0.5-1.5-0.8-2.899-1-4.399C12.4,49,12.4,48.5,12.3,47.9c4.6,1.1,9.3,1.4,14.1,0.6
		c0.6-0.199,1.2-0.3,1.8-0.6c0.4-0.1,0.8-0.4,1.2-0.6c0.5-0.301,0.9-0.801,1.3-1.4c0.2-0.5,0.3-0.9,0.4-1.4
		c0.4-1,0.6-1.899,0.9-2.899c0.1-0.5,0.2-1,0.3-1.5c0.1-1,0.1-2,0-2.9c-0.1-0.9-0.3-1.8-0.6-2.7c-0.2-0.5-0.5-0.9-0.7-1.3
		c-2.6-1.3-5.4-1.8-8.5-1.5c-0.4,0.1-0.8,0.1-1.2,0.2c-0.2,0-0.6,0-0.8,0c-0.1,0-0.2,0-0.3,0.1c0.1-0.1,0.2-0.1,0.2-0.1
		c-0.2,0-0.3-0.1-0.3-0.3c0.9-1.7,2.4-3.1,4.5-4.1c0.1-0.1,0.3-0.1,0.4-0.2c1.9-0.9,3.7-1.5,5.7-2c0.7-0.2,1.5-0.4,2.4-0.4
		c0.2,0,0.4,0.1,0.6,0.3l0.4-0.2l2.8,1.4c-0.2,0.6-0.6,1.3-1,1.9c0,0.1,0,0.2,0,0.3c-0.2,0.4-0.2,0.8-0.2,1.2
		c-0.1,0.2-0.1,0.4-0.1,0.6c-0.1,0.8-0.2,1.6-0.2,2.4c-0.2,0.6-0.3,1.4-0.2,2.1V35c0,0,0,0,0,0.1c0.1,1.4,0.5,2.9,1.2,4.3
		c0.3,0.6,0.7,1.2,1.2,1.9c0.3,0.5,0.8,1.1,1.3,1.6c0.7,0.7,1.4,1.4,2.2,1.7c0.7,0.3,1.3,0.6,2,0.8c0.6,0.1,1.2,0.3,1.9,0.4
		c0.4,0.1,0.7,0.1,1.1,0.1c0.8,0,1.5-0.1,2.3-0.1c0.8-0.101,1.7-0.301,2.5-0.7c0.3-0.101,0.7-0.3,1.2-0.7c1.3-0.9,2.3-2.1,2.9-3.6
		c0-0.4,0.1-0.8,0.1-1.2c0.1-0.3,0.3-0.7,0.3-1.1c0.1-0.1,0.1-0.2,0.2-0.4L55.5,38c0,0,0,0,0.1-0.1c0-0.4-0.1-0.9-0.2-1.3
		c-0.2-1-0.3-1.8-0.5-2.7c-0.1-0.2-0.2-0.3-0.2-0.4v-0.3c-0.6-1.4-1.3-2.8-2.3-3.9c-0.9-1.2-1.9-2.1-3-2.9c-0.1,0-0.2-0.1-0.2-0.1
		c-0.6-0.8-1.3-1.4-2-1.7l0.1-0.1l0.6,0.2c0.1-0.1,0.2-0.1,0.4-0.1v-0.1c1.9,0.4,3.9,0.9,5.9,1.5l1,0.2v0.1
		C55.3,26.3,55.4,26.3,55.4,26.4z M42.9,27c0.8-0.2,1.7-0.6,2.3-1c2.5,1.3,4.5,3,6,5.3c0.5,0.6,0.8,1.2,1.1,2
		c0.6,1.5,0.8,2.9,0.6,4.5c0.1,0.1,0.2,0.3,0.2,0.5c0,0.3,0,0.7-0.2,1.2c-0.2,0.4-0.5,0.9-0.7,1.4c-1.1,1.7-2.5,2.7-4.5,3
		c-1.6,0.3-3.2,0-4.8-0.9c-1-0.6-2-1.3-2.9-2.1c-1.1-1-1.8-2.1-2.3-3.5c-0.6-1.2-0.8-2.6-0.7-4c0-0.1,0-0.2,0-0.2
		c0.1-1,0.4-2,0.9-2.9c0-0.1,0-0.2,0-0.4c-0.1-0.3,0-0.6,0.3-1c0.1,0,0.2-0.1,0.4-0.1c-0.1-0.1,0-0.2,0-0.2c0.3-0.4,0.7-1,1.1-1.4
		C40.7,27.4,41.9,27.3,42.9,27z M46.1,23.6c-0.2,0.2-0.4,0.3-0.5,0.5c-0.6,0.4-1.2,0.5-1.7,0.3c-2.7,0.8-5.4,0.8-8.2,0.1l-0.8-1.1
		c0.4-0.6,0.9-1.1,1.4-1.5c0.9-1,2.1-1.4,3.5-1.4c1.6-0.1,2.9,0.4,4.2,1.1c0.7,0.5,1.3,1,1.9,1.6C46,23.3,46.1,23.4,46.1,23.6z
		 M32.9,21.2c0.5,0.2,0.8,0.5,0.9,1c-0.2,0.2-0.4,0.3-0.6,0.4c0,0,0,0,0.1,0l-0.4,0.3l-1.8,0.3c-2.4,0.8-4.7,1.7-7,2.7
		c-1.4,0.6-2.9,1.2-4.4,1.6c-2.3,0.6-4.5,1.3-6.6,1.9c-1.6,0.5-3.2,0.6-5,0.5c-2.1-0.1-4-0.9-5.7-2c0.2-1.1,0.8-2,1.6-2.6
		c0.9-0.7,1.8-1.3,2.8-1.9c0.3-0.2,0.7-0.5,1.2-0.6c2-1.1,4.1-1.9,6.3-2.4c2.1-0.6,4.1-1.1,6.3-1.4c2.3,0,4.8,0.4,7.1,1
		C29.4,20.2,31.2,20.6,32.9,21.2z M29.9,36.6c0.3,1.2,0.5,2.5,0.3,3.8c-0.1,0.9-0.3,1.8-0.5,2.7c-0.2,0.5-0.5,1.1-0.8,1.7
		c-0.2,0.199-0.3,0.5-0.5,0.6c-2,1.1-4,1.6-6.3,1.5c-2.5-0.3-5-0.5-7.4-0.7C13.9,46,13,45.9,12.1,45.8c0-0.4,0.1-0.9,0.2-1.2
		c0.8-4.2,2.9-7.8,6.1-10.8c3-0.1,5.8-0.1,8.7,0.1c1,0.2,1.8,0.8,2.3,1.7C29.6,35.9,29.7,36.3,29.9,36.6z M94.3,34.5
		C94.1,34,94,33.6,93.9,33.2l1.3-1.8h1.7l5.3,4.9c-1.5,0.6-2.7,1.7-3.399,3.3c0,0.1,0,0.3,0,0.4c-0.101-0.1-0.101-0.1-0.2-0.1
		C96.7,38.5,95.2,36.7,94.3,34.5z M100.7,45.9c0,0-0.1,0.1-0.1,0.2v-0.2l0,0C100.7,45.9,100.7,45.9,100.7,45.9z M61.9,71.4
		c-0.1,0.2-0.3,0.4-0.6,0.4c-2.2,0.8-4.3,1-6.4,0.5c-0.1,0-0.2,0-0.3-0.2c0-0.3,0-0.601,0.1-0.8c-0.1,0-0.1,0-0.1,0l0,0L54.1,68
		L62,66.3c0.101,1.5,0.2,3,0.4,4.3C62.4,70.9,62.2,71.2,61.9,71.4z M52.7,73.2c-0.1,0.101-0.2,0.2-0.3,0.3c-0.2,0-0.3,0-0.5,0.101
		c-4.2,0.7-8.5,1.399-12.7,2.2c-0.1-1.5-0.1-3-0.2-4.5c0,0,0,0-0.1-0.101c0.1,0,0.1,0,0.2,0.101C40,70.9,41,70.5,41.9,70.2
		c1-0.399,1.9-0.7,2.8-0.8c2.4-0.6,4.9-0.9,7.4-1.1c0.1,1.3,0.3,2.6,0.4,3.899c0,0.101,0,0.101-0.1,0.101c0.1,0,0.1,0,0.2,0
		C52.8,72.5,52.8,72.8,52.7,73.2z M35.4,68.9c0.2,0.1,0.3,0.2,0.4,0.3c-0.7,0.2-1.3,0.4-1.9,0.7c-0.5,0.1-0.8,0.3-1.2,0.4
		c0,0-0.1,0-0.2-0.101V70.3c-0.1,0-0.3,0-0.4,0C31.2,70.7,30.4,71,29.7,71.5l-1,0.101l0.4-3.3C31.2,68.5,33.3,68.7,35.4,68.9z"/>
	<path fill="#EC008C" d="M107.1,36.8c0.1,0.1,0.2,0.3,0.5,0.5c0.1,0.1,0.2,0.2,0.399,0.5c-0.1,0-0.199,0-0.3,0l-0.5-0.1
		c0.101,0.2,0.3,0.3,0.5,0.6c0.101,0.1,0.101,0.3,0.2,0.6c0,0.4,0,0.7,0.1,1.1l-1.3,1.4c2.101-0.6,3.601-1.1,4.5-1.6
		c0.8-0.4,1.5-1,2.101-1.5c1.1-0.9,2-1.9,3-2.9s1.3-2.3,0.699-3.8c-0.899-0.1-1.699-0.2-2.5-0.2c-0.8,0.1-1.399,0.4-2.199,0.6
		c-1.5,0.6-2.601,1.8-3.4,3.3l-0.8,0.1L107.1,36.8z M109.4,36.5c-0.2-0.1-0.3-0.1-0.3-0.1c0.6-1.9,2-3.2,4-4
		c0.2-0.2,0.5-0.3,0.7-0.4c0.199,0.1,0.3,0.1,0.3,0.2c0.1,0,0.2,0,0.2,0.1c0.3-0.1,0.5-0.2,0.699-0.3c0.101,0,0.101,0,0.101,0
		s0,0,0,0.1c-1.4,1.1-2.9,2.1-4.4,3.2c-0.5,0.3-0.8,0.7-1,1.2C109.6,36.5,109.5,36.5,109.4,36.5z"/>
	<path fill="#FAD5E5" d="M109.1,36.4c0,0,0.1,0,0.3,0.1c0.1,0,0.2,0,0.3,0c0.2-0.5,0.5-0.9,1-1.2c1.5-1.1,3-2.1,4.4-3.2L115,32
		c-0.199,0.1-0.399,0.2-0.699,0.3c0-0.1-0.101-0.1-0.2-0.1c0-0.1-0.101-0.1-0.3-0.2c-0.2,0.1-0.5,0.2-0.7,0.4
		C111.1,33.2,109.7,34.5,109.1,36.4z"/>
	<path fill="#FAA61A" d="M115.1,32c0,0,0,0-0.101,0l0.101,0.1C115.1,32,115.1,32,115.1,32z"/>
	<path fill="#FFF200" d="M105.7,39.3c-0.3-0.2-0.6-0.4-0.8-0.4c-0.8-0.4-1.6-0.3-2.3,0.4l-1.101,2.2l1.7,0.801
		c0.9-0.601,1.5-1.301,1.9-1.9C105.3,40,105.5,39.6,105.7,39.3z"/>
	<path fill="#EC008C" d="M104.4,43.6c-0.5,0.2-0.9,0.3-1.4,0.7c-0.199,0.199-0.3,0.399-0.5,0.6c-0.1,0.2-0.1,0.5-0.199,0.7
		c0,0.8-0.101,1.5-0.101,2.2c-0.1,0.5-0.1,1-0.2,1.6c-0.199,1.4,0.101,2.6,1,3.6c0.7,1,1.7,1.301,2.801,1.2
		c0.3-0.899,0.5-1.899,0.699-2.899C106.9,48.5,106.2,45.9,104.4,43.6z M103.9,45c0.1,0,0.1,0,0.2,0c0.1,0,0.2,0,0.3,0.2
		c0,0,0,0.101,0.1,0.101c-0.6,1.1-0.899,2.199-1.199,3.399c0,0.101,0,0.101,0,0.2c-0.101,0.1-0.2,0.1-0.2,0.3
		C103,49.3,103,49.3,103,49.3c-0.1,0-0.199,0-0.199-0.101c-0.101,0-0.101-0.1-0.2-0.2c-0.101-0.399-0.2-0.8-0.2-1.199
		C102.3,46.7,102.8,45.8,103.9,45z"/>
	<path fill="#FAD5E5" d="M104.1,45c-0.101,0-0.101,0-0.2,0c-1.1,0.801-1.6,1.7-1.5,2.801c0,0.399,0.1,0.8,0.2,1.199
		c0.1,0.101,0.1,0.2,0.2,0.2c0,0.101,0.1,0.101,0.199,0.101c0,0,0,0,0.101-0.101c0-0.2,0.1-0.2,0.2-0.3c0-0.1,0-0.1,0-0.2
		c0.3-1.2,0.6-2.3,1.199-3.399c-0.1,0-0.1-0.101-0.1-0.101C104.3,45,104.2,45,104.1,45z"/>
	<path fill="#C77EB5" d="M67.2,4.5L67.3,4.2C66.7,3,65.9,2.3,64.6,1.9c-1.2-0.4-2.5-0.4-3.7,0c-1.3,0.5-2.7,1-4,1.5
		c-2.5,0.9-4.8,2.1-7,3.6c-0.6,0.4-1.2,0.8-1.6,1.3c-1.9,1.8-3.7,3.7-5.4,5.8l0.2,0.2c-0.2,0.1-0.4,0.3-0.5,0.5
		c-0.1,0-0.1,0-0.1,0.1c-0.1,0-0.1,0-0.1,0.1l0,0c0,0.4-0.2,0.8-0.5,1v0.1c0,0,0,0,0,0.1l-1.1,2.2c-0.2,0-0.4,0-0.6,0
		c-0.1,0-0.1,0-0.1,0.1c-0.2,0-0.2,0.1-0.2,0.3c1,0.1,2.2,0.1,3.2,0c2.7-0.5,5.4-1.1,8-1.9c0.6-0.1,1.2-0.3,1.8-0.5
		c0.7-0.4,1.5-0.8,2.3-1c1.9-0.8,3.5-1.8,5.2-3c0.8-0.6,1.7-1.2,2.5-1.9c2-1.3,3.5-3.1,4.7-5.2L67.2,4.5z M49.6,8.5
		c0.5-0.3,0.8-0.6,1.3-0.9c1.5-1,3-1.8,4.7-2.3c0.3,0,0.6,0.1,0.8,0.4c0,0.1,0,0.1,0,0.2c-0.5,0.5-1.3,1.1-2,1.5
		c-0.8,0.5-1.5,0.9-2.3,1.4c-2.5,1.9-5,4-7.4,6.2c-0.6,0.6-1.2,1.2-1.8,1.9c0,0,0,0.1-0.1,0.3c-0.1,0-0.1,0.1-0.1,0.1
		c0,0.1,0,0.1-0.1,0.1c0,0-0.1,0-0.2,0h-0.2c-0.1-0.3-0.2-0.5-0.1-0.8c0.1-0.1,0.1-0.2,0.1-0.3c0.9-1.1,1.9-2.2,2.9-3.1
		C46.3,11.4,47.8,9.9,49.6,8.5z"/>
	<path fill="#C7C4E2" d="M50.9,7.6c-0.5,0.3-0.8,0.6-1.3,0.9c-1.8,1.4-3.3,2.9-4.5,4.7c-1,0.9-2,2-2.9,3.1c0,0.1,0,0.2-0.1,0.3
		c-0.1,0.3,0,0.5,0.1,0.8h0.2c0.1,0,0.2,0,0.2,0c0.1,0,0.1,0,0.1-0.1c0,0,0-0.1,0.1-0.1c0.1-0.2,0.1-0.3,0.1-0.3
		c0.6-0.7,1.2-1.3,1.8-1.9c2.4-2.2,4.9-4.3,7.4-6.2c0.8-0.5,1.5-0.9,2.3-1.4c0.7-0.4,1.5-1,2-1.5c0-0.1,0-0.1,0-0.2
		c-0.2-0.3-0.5-0.4-0.8-0.4C53.9,5.8,52.4,6.6,50.9,7.6z"/>
	<path fill="#F58220" d="M42.4,15L42.4,15l-0.5,1C42.2,15.8,42.4,15.4,42.4,15z"/>
	<path fill="#F58220" d="M42.6,14.8c0.1-0.2,0.3-0.4,0.5-0.5l-0.2-0.2L42.6,14.8z"/>
	<path fill="#2484C6" d="M55.2,26.2l-1-0.2c-2-0.6-4-1.1-5.9-1.5v0.1c-0.2,0-0.3,0-0.4,0.1l-0.6-0.2l-0.1,0.1c0.7,0.3,1.4,0.9,2,1.7
		c0,0,0.1,0.1,0.2,0.1c1.1,0.8,2.1,1.7,3,2.9c1,1.1,1.7,2.5,2.3,3.9v0.3c0,0.1,0.1,0.2,0.2,0.4c0.2,0.9,0.3,1.7,0.5,2.7
		c0.1,0.4,0.2,0.9,0.2,1.3C55.5,38,55.5,38,55.5,38l0.1,0.1c-0.1,0.2-0.1,0.3-0.2,0.4c0,0.4-0.2,0.8-0.3,1.1c0,0.4-0.1,0.8-0.1,1.2
		c-0.6,1.5-1.6,2.699-2.9,3.6c-0.5,0.4-0.9,0.6-1.2,0.7c-0.8,0.399-1.7,0.6-2.5,0.7c-0.8,0-1.5,0.1-2.3,0.1c-0.4,0-0.7,0-1.1-0.1
		c-0.7-0.101-1.3-0.301-1.9-0.4c-0.7-0.2-1.3-0.5-2-0.8c-0.8-0.3-1.5-1-2.2-1.7c-0.5-0.5-1-1.1-1.3-1.6c-0.5-0.7-0.9-1.3-1.2-1.9
		c-0.7-1.4-1.1-2.9-1.2-4.3c0-0.1,0-0.1,0-0.1v-0.1c-0.1-0.7,0-1.5,0.2-2.1c0-0.8,0.1-1.6,0.2-2.4c0-0.2,0-0.4,0.1-0.6
		c0-0.4,0-0.8,0.2-1.2c0-0.1,0-0.2,0-0.3c0.4-0.6,0.8-1.3,1-1.9L34.1,25l-0.4,0.2c-0.2-0.2-0.4-0.3-0.6-0.3c-0.9,0-1.7,0.2-2.4,0.4
		v0.1c0.5,0.1,1,0.4,1.3,0.8c0,0.1,0.1,0.1,0.1,0.2c0,0-0.1,0.1-0.2,0.2c0,0.2-0.1,0.3-0.2,0.4c-1.8,0.8-3.6,1.5-5.4,2.3
		c-0.9,0.3-1.6,0.8-2.4,1.3c-0.5,0.4-1,0.3-1.3-0.1c0.1-1.2,0.8-2.2,2-2.9v-0.1c-2.1,1-3.6,2.4-4.5,4.1c0,0.2,0.1,0.3,0.3,0.3
		c0,0-0.1,0-0.2,0.1c0.1-0.1,0.2-0.1,0.3-0.1c0.2,0,0.6,0,0.8,0c0.4-0.1,0.8-0.1,1.2-0.2c3.1-0.3,5.9,0.2,8.5,1.5
		c0.2,0.4,0.5,0.8,0.7,1.3c0.3,0.9,0.5,1.8,0.6,2.7c0.1,0.9,0.1,1.9,0,2.9c-0.1,0.5-0.2,1-0.3,1.5c-0.3,1-0.5,1.899-0.9,2.899
		c-0.1,0.5-0.2,0.9-0.4,1.4c-0.4,0.6-0.8,1.1-1.3,1.4c-0.4,0.199-0.8,0.5-1.2,0.6c-0.6,0.3-1.2,0.4-1.8,0.6
		c-4.8,0.801-9.5,0.5-14.1-0.6c0.1,0.6,0.1,1.1,0.3,1.7c0.2,1.5,0.5,2.899,1,4.399c0,0,0.1,0,0.1,0.101c1.6,4.2,4.2,7.399,8,9.7
		c0.5,0.399,1,0.699,1.4,1c0.1,0.199,0.3,0.399,0.6,0.5c1,0.199,2.1,0.199,3.2,0.3c1.3,0.1,2.5,0.3,3.8,0.6c4,0.7,8,0.8,12.1,0.101
		c1-0.101,2.1-0.2,3.1-0.301c2,0,4-0.3,5.9-0.8c1.9-0.399,3.9-0.7,5.8-1.1c3.3-0.601,6.5-1.4,9.8-2.3c2-0.5,4-1.101,5.9-1.801
		C75.2,59.3,77.2,58.5,79.1,57.8C80.8,57,82.5,56.3,84,55.3c1.2-0.7,2.301-1.4,3.5-2.101c2.101-1,4.101-2.2,5.9-3.5
		c0.4-0.399,0.8-0.7,1.3-0.899c2-1.301,3.8-2.801,5.3-4.5c0-0.101,0-0.2,0.101-0.4c0,0,0,0,0-0.1c0,0-0.101-0.101-0.101-0.2
		c-0.3-0.3-0.5-0.601-0.8-0.7c0-0.1,0-0.2,0-0.3c-0.1-0.4-0.3-0.8-0.7-1l0.2-0.4L97.3,41.3L96.7,40.7c-1.8,1.101-3.6,2.101-5.399,3
		C87.6,45.6,83.7,47.1,79.7,48l-0.5-0.5l-2.1,0.2L76.8,48C76.5,47.3,76.1,46.5,75.7,45.9c-0.3-0.7-0.7-1.5-1-2.1
		c-0.5-0.801-0.8-1.4-1.3-2c-1-1.5-2-3-3.1-4.4c-1.2-1.5-2.5-3-3.9-4.5c-0.8-0.9-1.7-1.7-2.7-2.6c-0.5-0.4-1-0.7-1.5-0.9
		c-0.5-0.4-1-0.7-1.399-1c-1.7-1.1-3.4-1.9-5.4-2.2v0.2c0-0.1-0.1-0.1-0.2-0.1V26.2z M57.7,29.9l0.2-0.1c4.1,1.5,7.5,4.1,10,7.8
		c1,1.3,1.8,2.8,2.7,4.3c0.7,1.3,1.3,2.7,2,4.2c0.2,0.7,0,1.1-0.7,1.3c-0.8,0.2-1.3-0.1-1.6-0.9c-0.9-2.6-2.101-4.8-3.801-6.7
		C66.1,39.2,65.6,38.6,65.1,38.1c-0.5-0.7-1-1.4-1.7-2.1c-2-1.9-4-3.6-6.3-5c-0.2-0.1-0.2-0.2-0.2-0.5C57.1,30.2,57.3,30,57.7,29.9z
		 M29.6,29.3L29.6,29.3c0.1,0.1,0.3,0.1,0.3,0.2c0.1,0.1,0.2,0.2,0.2,0.3c-0.2,1.1-0.8,1.5-1.7,1.1C28.1,29.9,28.5,29.4,29.6,29.3
		L29.6,29.3z M41.9,47.3c0,0,0,0,0,0.1c-1.5,0.4-3.2,0.6-4.8,0.8c-0.7-0.3-1.2-0.399-1.8-0.6c1.7-0.3,3.4-0.601,5.1-0.8
		C41,46.7,41.5,46.8,41.9,47.3z M38.6,44.9c-0.1,0-0.2,0.1-0.2,0.3c0,0.101,0,0.101,0,0.2c-1,0.2-1.8,0.1-2.7-0.3
		c0-0.101,0-0.2,0.1-0.3c0.1-0.101,0.1-0.101,0.1-0.2c0.8-0.101,1.5-0.101,2.3-0.101c0.1,0.101,0.2,0.101,0.2,0.2
		C38.4,44.8,38.5,44.9,38.6,44.9z M73.1,48.8c0.1-0.101,0.1-0.2,0.2-0.2C73.4,48.5,73.5,48.5,73.7,48.5l0,0
		c0.4,0.2,0.7,0.601,0.9,1.101c0,0,0,0.1,0,0.2c-0.2,0.3-0.4,0.5-0.7,0.6c-0.7-0.2-0.9-0.6-0.8-1.3c0-0.101,0-0.101,0-0.101
		C73.1,48.9,73.1,48.8,73.1,48.8z M80.1,49.9c0.1-0.1,0.1-0.3,0.2-0.4C85.7,48.2,90.7,45.9,95,42.8c0.5-0.4,0.9-0.5,1.301-0.601
		c0.199,0,0.399,0.101,0.5,0.2c0.1,0,0.199,0.1,0.199,0.1c0.101,0.4,0.101,0.7,0,0.9c-0.1,0.1-0.199,0.2-0.3,0.3
		c-4.3,2.8-9,4.9-14,6.5c-0.5,0.101-1,0.2-1.5,0.3c-0.5,0-0.8-0.199-1.1-0.5C80.1,50,80.1,50,80.1,49.9z"/>
	<path fill="#FFCB05" d="M57.7,29.9c0,0,0.1,0,0.2,0v-0.1L57.7,29.9z"/>
	<path fill="#A2C8EA" d="M57.9,29.9c-0.1,0-0.2,0-0.2,0c-0.4,0.1-0.6,0.3-0.8,0.6c0,0.3,0,0.4,0.2,0.5c2.3,1.4,4.3,3.1,6.3,5
		c0.7,0.7,1.2,1.4,1.7,2.1c0.5,0.5,1,1.1,1.399,1.7c1.7,1.9,2.9,4.1,3.801,6.7c0.3,0.801,0.8,1.101,1.6,0.9c0.7-0.2,0.9-0.6,0.7-1.3
		c-0.7-1.5-1.3-2.9-2-4.2c-0.9-1.5-1.7-3-2.7-4.3c-2.5-3.7-5.9-6.3-10-7.8V29.9z"/>
	<path fill="#FFF200" d="M57.9,29.8v0.1V29.8z"/>
	<path fill="#FFF200" d="M29.6,29.3L29.6,29.3L29.6,29.3z"/>
	<path fill="#A2C8EA" d="M29.6,29.3c-1.1,0.1-1.5,0.6-1.2,1.6c0.9,0.4,1.5,0,1.7-1.1c0-0.1-0.1-0.2-0.2-0.3
		C29.9,29.4,29.7,29.4,29.6,29.3z"/>
	<path d="M41.9,47.4c0-0.1,0-0.1,0-0.1c-0.4-0.5-0.9-0.601-1.5-0.5C38.7,47,37,47.3,35.3,47.6c0.6,0.2,1.1,0.3,1.8,0.6
		C38.7,48,40.4,47.8,41.9,47.4z"/>
	<path d="M38.4,45.2c0-0.2,0.1-0.3,0.2-0.3c-0.1,0-0.2-0.1-0.2-0.2c0-0.1-0.1-0.1-0.2-0.2c-0.8,0-1.5,0-2.3,0.101
		c0,0.1,0,0.1-0.1,0.2c-0.1,0.1-0.1,0.199-0.1,0.3c0.9,0.399,1.7,0.5,2.7,0.3C38.4,45.3,38.4,45.3,38.4,45.2z"/>
	<path fill="#A2C8EA" d="M73.3,48.6c-0.101,0-0.101,0.1-0.2,0.2c0,0,0,0.1,0,0.199c0,0,0,0,0,0.101c-0.101,0.7,0.1,1.1,0.8,1.3
		c0.3-0.1,0.5-0.3,0.7-0.6c0-0.101,0-0.2,0-0.2c-0.2-0.5-0.5-0.9-0.9-1.101l0,0C73.5,48.5,73.4,48.5,73.3,48.6z"/>
	<path fill="#A2C8EA" d="M80.3,49.5C80.2,49.6,80.2,49.8,80.1,49.9c0,0.1,0,0.1,0,0.1c0.3,0.301,0.6,0.5,1.1,0.5
		c0.5-0.1,1-0.199,1.5-0.3c5-1.6,9.7-3.7,14-6.5c0.101-0.1,0.2-0.2,0.3-0.3c0.101-0.2,0.101-0.5,0-0.9c0,0-0.1-0.1-0.199-0.1
		c-0.101-0.1-0.301-0.2-0.5-0.2C95.9,42.3,95.5,42.4,95,42.8C90.7,45.9,85.7,48.2,80.3,49.5z"/>
	<path fill="#A2C8EA" d="M32.1,26.4c0-0.1-0.1-0.1-0.1-0.2c-0.3-0.4-0.8-0.7-1.3-0.8c-2,0.5-3.8,1.2-5.6,2c-0.2,0-0.4,0.1-0.5,0.2
		c-1.2,0.7-1.9,1.7-2,2.9c0.3,0.4,0.8,0.5,1.3,0.1c0.8-0.5,1.5-1,2.4-1.3c1.8-0.8,3.6-1.5,5.4-2.3c0.1-0.1,0.2-0.2,0.2-0.4
		C32,26.5,32.1,26.4,32.1,26.4z"/>
	<path fill="#FFCB05" d="M24.6,27.6c0.1-0.1,0.3-0.2,0.5-0.2c1.8-0.8,3.6-1.5,5.6-2v-0.1c-2,0.5-3.8,1.1-5.7,2
		c-0.1,0.1-0.3,0.1-0.4,0.2V27.6z"/>
	<path fill="#C77EB5" d="M45.2,26c-0.6,0.4-1.5,0.8-2.3,1c-1,0.3-2.2,0.4-3.2,0.2c-0.4,0.4-0.8,1-1.1,1.4c0,0-0.1,0.1,0,0.2
		c-0.2,0-0.3,0.1-0.4,0.1c-0.3,0.4-0.4,0.7-0.3,1c0,0.2,0,0.3,0,0.4c-0.5,0.9-0.8,1.9-0.9,2.9c0,0,0,0.1,0,0.2
		c-0.1,1.4,0.1,2.8,0.7,4c0.5,1.4,1.2,2.5,2.3,3.5c0.9,0.8,1.9,1.5,2.9,2.1c1.6,0.9,3.2,1.2,4.8,0.9c2-0.3,3.4-1.3,4.5-3
		c0.2-0.5,0.5-1,0.7-1.4c0.2-0.5,0.2-0.9,0.2-1.2c0-0.2-0.1-0.4-0.2-0.5c0.2-1.6,0-3-0.6-4.5c-0.3-0.8-0.6-1.4-1.1-2
		C49.7,29,47.7,27.3,45.2,26z M40.4,28.2L40.4,28.2c0.2,0,0.3,0.1,0.4,0.2c0.1,0,0.1,0,0.1,0c-0.9,2-1.4,4-1.5,6.2
		c0.2,1.4,0.6,2.8,1.3,4.3c0.1,0,0.1,0.1,0.2,0.1c0,0.4,0,0.7,0.2,1c0.1,0.1,0.1,0.2,0.2,0.3c0,0.1,0,0.1-0.1,0.1
		c0,0.1,0,0.2-0.1,0.3c0,0,0,0,0,0.101c-0.1,0-0.2,0-0.2,0c-1.3-0.8-2.1-2-2.3-3.601c0-0.2-0.1-0.4-0.2-0.6
		c-0.1-0.2-0.2-0.5-0.3-0.8c-0.1-0.4-0.1-0.9,0-1.4c0-2,0.4-3.8,1.3-5.5c0-0.1,0.2-0.2,0.3-0.4c0,0,0,0,0.1,0
		c0.1-0.1,0.3-0.2,0.4-0.3H40.4z"/>
	<path fill="#C7C4E2" d="M40.4,28.2L40.4,28.2h-0.2c-0.1,0.1-0.3,0.2-0.4,0.3c-0.1,0-0.1,0-0.1,0c-0.1,0.2-0.3,0.3-0.3,0.4
		c-0.9,1.7-1.3,3.5-1.3,5.5c-0.1,0.5-0.1,1,0,1.4c0.1,0.3,0.2,0.6,0.3,0.8c0.1,0.2,0.2,0.4,0.2,0.6c0.2,1.6,1,2.8,2.3,3.601
		c0,0,0.1,0,0.2,0c0-0.101,0-0.101,0-0.101c0.1-0.1,0.1-0.2,0.1-0.3c0.1,0,0.1,0,0.1-0.1c-0.1-0.1-0.1-0.2-0.2-0.3
		c-0.2-0.3-0.2-0.6-0.2-1c-0.1,0-0.1-0.1-0.2-0.1c-0.7-1.5-1.1-2.9-1.3-4.3c0.1-2.2,0.6-4.2,1.5-6.2c0,0,0,0-0.1,0
		C40.7,28.3,40.6,28.2,40.4,28.2z"/>
	<path fill="#FFF200" d="M45.6,24.1c0.1-0.2,0.3-0.3,0.5-0.5c0-0.2-0.1-0.3-0.2-0.4c-0.6-0.6-1.2-1.1-1.9-1.6
		c-1.3-0.7-2.6-1.2-4.2-1.1c-1.4,0-2.6,0.4-3.5,1.4c-0.5,0.4-1,0.9-1.4,1.5l0.8,1.1c2.8,0.7,5.5,0.7,8.2-0.1
		C44.4,24.6,45,24.5,45.6,24.1z"/>
	<path fill="#C77EB5" d="M33.8,22.2c-0.1-0.5-0.4-0.8-0.9-1c-1.7-0.6-3.5-1-5.2-1.2c-2.3-0.6-4.8-1-7.1-1c-2.2,0.3-4.2,0.8-6.3,1.4
		c-2.2,0.5-4.3,1.3-6.3,2.4c-0.5,0.1-0.9,0.4-1.2,0.6c-1,0.6-1.9,1.2-2.8,1.9c-0.8,0.6-1.4,1.5-1.6,2.6c1.7,1.1,3.6,1.9,5.7,2
		c1.8,0.1,3.4,0,5-0.5c2.1-0.6,4.3-1.3,6.6-1.9c1.5-0.4,3-1,4.4-1.6c2.3-1,4.6-1.9,7-2.7l1.8-0.3l0.4-0.3c-0.1,0-0.1,0-0.1,0
		C33.4,22.5,33.6,22.4,33.8,22.2z M18.9,20.6c0,0.1,0.2,0.2,0.2,0.2v0.1c-0.5,0.9-1.4,1.5-2.5,1.6c-0.5,0-0.9,0.1-1.2,0.2
		c-0.1,0.1-0.2,0.1-0.3,0.1l-0.2,0.1c-0.3,0-0.5,0.1-0.8,0.1c0,0,0,0,0,0.1c-0.2,0-0.2,0-0.4,0.1l-0.4,0.1c-0.2,0.1-0.6,0.2-0.8,0.3
		c-0.7,0.3-1.3,0.6-1.8,1c-1,0.3-2,0.6-3,1c-0.4,0.2-0.8,0.4-1.2,0.6c-0.1,0.1-0.2,0.2-0.4,0.3c-0.4,0.3-0.8,0.4-1.2,0.7
		c-0.1,0-0.1,0.1-0.1,0.1c-0.1,0.1-0.1,0.1,0,0.1c-0.1,0.1-0.3,0.1-0.4,0.1c0,0-0.1,0-0.2-0.1c-0.2-0.9,0.3-1.7,1.5-2.2
		c1.3-0.8,2.7-1.4,4.2-1.8c1.2-0.6,2.5-1.1,3.8-1.5C15.4,21.4,17.1,21,18.9,20.6z"/>
	<path fill="#C7C4E2" d="M19.1,20.8c0,0-0.2-0.1-0.2-0.2c-1.8,0.4-3.5,0.8-5.2,1.3c-1.3,0.4-2.6,0.9-3.8,1.5c-1.5,0.4-2.9,1-4.2,1.8
		c-1.2,0.5-1.7,1.3-1.5,2.2c0.1,0.1,0.2,0.1,0.2,0.1c0.1,0,0.3,0,0.4-0.1c-0.1,0-0.1,0,0-0.1c0,0,0-0.1,0.1-0.1
		c0.4-0.3,0.8-0.4,1.2-0.7c0.2-0.1,0.3-0.2,0.4-0.3c0.4-0.2,0.8-0.4,1.2-0.6c1-0.4,2-0.7,3-1c0.5-0.4,1.1-0.7,1.8-1
		c0.2-0.1,0.6-0.2,0.8-0.3l0.4-0.1c0.2-0.1,0.2-0.1,0.4-0.1c0-0.1,0-0.1,0-0.1c0.3,0,0.5-0.1,0.8-0.1l0.2-0.1c0.1,0,0.2,0,0.3-0.1
		c0.3-0.1,0.7-0.2,1.2-0.2c1.1-0.1,2-0.7,2.5-1.6V20.8z"/>
	<path fill="#0095DA" d="M30.2,40.4c0.2-1.3,0-2.6-0.3-3.8c-0.2-0.3-0.3-0.7-0.5-1c-0.5-0.9-1.3-1.5-2.3-1.7
		c-2.9-0.2-5.7-0.2-8.7-0.1c-3.2,3-5.3,6.6-6.1,10.8c-0.1,0.3-0.2,0.8-0.2,1.2C13,45.9,13.9,46,14.7,46.2c2.4,0.2,4.9,0.4,7.4,0.7
		c2.3,0.1,4.3-0.4,6.3-1.5c0.2-0.1,0.3-0.4,0.5-0.6c0.3-0.601,0.6-1.2,0.8-1.7C29.9,42.2,30.1,41.3,30.2,40.4z M26.6,35
		c0-0.1,0.1-0.2,0.1-0.3c0.1-0.1,0.2-0.1,0.2-0.2c2,1,2.5,2.6,1.6,4.8c-0.1,0-0.1,0.1-0.1,0.1c0-0.1-0.1-0.2-0.2-0.3
		c0-0.2,0-0.2-0.1-0.3c0-0.1-0.1-0.2-0.2-0.3c0-0.5-0.1-1.1-0.2-1.6c-0.1-0.2-0.1-0.5-0.1-0.7c-0.2-0.4-0.5-0.7-0.9-1
		C26.7,35.2,26.6,35.1,26.6,35z M19.3,34.5c0.4,0.1,0.6,0.3,0.8,0.5c0,0.1,0,0.2,0,0.3v0.1c-0.2,0.1-0.2,0.2-0.4,0.4
		c-1.5,2.4-3.1,4.8-4.6,7.3c-0.2,0.2-0.3,0.3-0.4,0.3c-0.1,0-0.3,0-0.4-0.1c-0.1,0-0.2-0.101-0.2-0.101c0.3-3.7,2.1-6.6,5.2-8.6
		V34.5z M13.5,44.3c0.1,0,0.2-0.101,0.2-0.101c0.1-0.1,0.2-0.1,0.3-0.2l0,0c0.1,0,0.2,0.101,0.3,0.2c0.1,0.101,0.1,0.2,0.2,0.3
		c0.1,0,0.1,0.101,0.1,0.2c0,0.3-0.2,0.601-0.6,0.7c-0.2-0.1-0.4-0.2-0.6-0.4c0-0.1,0-0.199,0-0.3c0-0.1,0-0.2,0-0.2
		C13.4,44.4,13.4,44.4,13.5,44.3z"/>
	<path fill="#C7EAFB" d="M26.7,34.7c0,0.1-0.1,0.2-0.1,0.3s0.1,0.2,0.1,0.2c0.4,0.3,0.7,0.6,0.9,1c0,0.2,0,0.5,0.1,0.7
		c0.1,0.5,0.2,1.1,0.2,1.6c0.1,0.1,0.2,0.2,0.2,0.3c0.1,0.1,0.1,0.1,0.1,0.3c0.1,0.1,0.2,0.2,0.2,0.3c0,0,0-0.1,0.1-0.1
		c0.9-2.2,0.4-3.8-1.6-4.8C26.9,34.6,26.8,34.6,26.7,34.7z"/>
	<path fill="#C7EAFB" d="M20.1,35c-0.2-0.2-0.4-0.4-0.8-0.5v0.1c-3.1,2-4.9,4.9-5.2,8.6c0,0,0.1,0.101,0.2,0.101
		c0.1,0.1,0.3,0.1,0.4,0.1c0.1,0,0.2-0.1,0.4-0.3c1.5-2.5,3.1-4.9,4.6-7.3c0.2-0.2,0.2-0.3,0.4-0.4v-0.1
		C20.1,35.2,20.1,35.1,20.1,35z"/>
	<path fill="#C7EAFB" d="M13.7,44.2c0,0-0.1,0.101-0.2,0.101c-0.1,0.1-0.1,0.1-0.1,0.199c0,0,0,0.101,0,0.2c0,0.101,0,0.2,0,0.3
		c0.2,0.2,0.4,0.301,0.6,0.4c0.4-0.1,0.6-0.4,0.6-0.7c0-0.1,0-0.2-0.1-0.2c-0.1-0.1-0.1-0.199-0.2-0.3C14.2,44.1,14.1,44,14,44l0,0
		C13.9,44.1,13.8,44.1,13.7,44.2z"/>
	<path fill="#EC008C" d="M93.9,33.2c0.1,0.4,0.2,0.8,0.4,1.3c0.899,2.2,2.399,4,4.3,5.4l0.2-0.3c0.699-1.6,1.899-2.7,3.399-3.3
		l-5.3-4.9h-1.7L93.9,33.2z M96.6,32.4c0,0.1,0,0.2,0.1,0.2c0,0.2,0,0.3,0,0.4s0,0.2-0.1,0.4c0,0,0,0,0,0.1c0.1,0.4,0.1,0.8,0.1,1.2
		c0,0.2,0,0.2,0,0.3s0,0.2-0.1,0.2c-0.101,0.1-0.2,0.1-0.3,0.1C95,34.4,94.8,33.4,95.7,32.1c0.101,0,0.2,0,0.4-0.1
		c0.1,0.1,0.2,0.2,0.399,0.4C96.6,32.4,96.6,32.4,96.6,32.4z"/>
	<path fill="#FAD5E5" d="M96.7,32.6c-0.1,0-0.1-0.1-0.1-0.2c0,0,0,0-0.101,0C96.3,32.2,96.2,32.1,96.1,32c-0.2,0.1-0.3,0.1-0.4,0.1
		C94.8,33.4,95,34.4,96.3,35.3c0.1,0,0.199,0,0.3-0.1c0.1,0,0.1-0.1,0.1-0.2s0-0.1,0-0.3c0-0.4,0-0.8-0.1-1.2c0-0.1,0-0.1,0-0.1
		c0.1-0.2,0.1-0.3,0.1-0.4S96.7,32.8,96.7,32.6z"/>
	<path fill="#F15A22" d="M98.8,39.6l-0.2,0.3c0.1,0,0.1,0,0.2,0.1C98.8,39.9,98.8,39.7,98.8,39.6z"/>
	<path d="M117.7,43.4c0,0.1-0.1,0.1-0.3,0.2c-0.3,2.3-1.2,4.3-2.5,6c0,0.1,0,0.2-0.1,0.2c0,0.199,0,0.199,0,0.399
		c0,0,0.1,0.101,0.199,0.101c0.101,0,0.2,0,0.301,0c0-0.101,0-0.101,0.1-0.2c1.9-1.8,2.8-3.9,2.7-6.5
		c-0.101-0.101-0.2-0.101-0.3-0.2C117.8,43.4,117.8,43.4,117.7,43.4z"/>
	<path d="M115.7,43.9c0,0.1-0.1,0.1-0.1,0.1c-0.101,0.101-0.101,0.101-0.2,0.2c-0.6,1.4-1.4,2.8-2.4,4c0.101,0.2,0.2,0.3,0.5,0.4
		c0.101-0.101,0.2-0.101,0.2-0.101c1-0.899,1.7-2,2-3.199c0.101-0.101,0.101-0.101,0.2-0.2c0.2-0.2,0.2-0.3,0.3-0.5
		c-0.1-0.101-0.1-0.2-0.1-0.2c0-0.1,0-0.2-0.101-0.3C115.9,44,115.8,44,115.7,43.9z"/>
	<path d="M64.7,16.1c-0.1-0.1-0.3-0.1-0.3-0.2V16c-0.3,0-0.5,0.2-0.5,0.4c0,0,0,0.1,0,0.2c0,0.5,0.1,1,0,1.7c0.1,0,0.2,0.1,0.2,0.1
		s0,0.1,0,0.2c0,0,0,0.1,0,0.2s0,0.1,0,0.3c0.1,0,0.2,0,0.3,0c0,0,0,0,0.1,0C64.6,19,64.6,18.9,64.6,18.9
		C64.9,17.9,64.9,17,64.7,16.1z"/>
	<path d="M71.1,10.5c0,0.1,0,0.3,0,0.4c0.8,2,1.5,4,1.899,6.1c0.101,0.1,0.101,0.2,0.2,0.2c0.2,0,0.2,0,0.3-0.1c0,0,0,0,0-0.1
		c0.101,0,0.101,0,0.101-0.1c0,0,0-0.1,0-0.3c-0.2-2.2-0.7-4.2-1.601-6.1c-0.1-0.1-0.199-0.1-0.3-0.1c-0.1,0-0.1,0-0.2,0l0,0
		c-0.1,0-0.199,0-0.3,0.1H71.1z"/>
	<path d="M68,14.8c0,0.2,0.101,0.4,0.4,0.5c0,0.1,0,0.1,0.1,0.2c0.4,1.5,0.601,2.9,0.601,4.4c0,0.1,0,0.2,0,0.3
		C69,20.4,69,20.6,69.1,20.8c0.1,0,0.2,0,0.3-0.1c0-0.1,0-0.1,0.1-0.2c0-0.1,0-0.1,0.101-0.2c0-0.1,0-0.1,0-0.2
		c0.1-0.1,0.1-0.2,0.1-0.2c0.7-2.1,0.4-4-1.1-5.6c-0.101,0-0.2,0-0.2,0.1c-0.2,0-0.3,0-0.4,0.1C68,14.6,68,14.7,68,14.8z"/>
	<path d="M30.4,7V6.9c-0.1,0-0.1-0.1-0.2-0.1c-3.5,1-6.8,2.6-9.8,4.8c-1.3,1.1-2.5,2.3-3.3,3.7c0.1,0.1,0.3,0.1,0.3,0.2
		c0.2-0.1,0.3-0.1,0.3-0.1v-0.1c0.1-0.1,0.1-0.1,0.2-0.2c0.5-0.3,1-0.7,1.5-1.2C22.7,11,26.4,8.7,30.4,7z"/>
	<path d="M29.3,12.4c-0.1,0-0.1,0-0.1,0c-0.3,0-0.5,0.1-0.8,0.1l-0.2,0.1c-0.3,0.2-0.3,0.4-0.4,0.8c0.1,0,0.1,0,0.1,0.1
		c0.2,0,0.3,0,0.5-0.1c0,0,0,0,0.1,0C28.9,13,29.1,12.8,29.3,12.4z"/>
	<path d="M99.4,55c-0.1-0.1-0.1-0.199-0.1-0.199c-1-0.2-2.101-0.601-3-1.2c-0.101,0-0.101,0-0.2,0c0,0-0.101,0.1-0.101,0.2
		c-0.1,0-0.199,0-0.199,0.1c0.8,1.2,1.899,1.7,3.5,1.5c0-0.1,0-0.1,0-0.1c0-0.101,0-0.101,0.1-0.2C99.4,55,99.4,55,99.4,55z"/>
	<path d="M95.2,55.3c-0.1,0.199-0.1,0.3-0.1,0.5c0.899,1,1.8,1.3,2.7,0.8C97.7,56.5,97.7,56.5,97.6,56.3
		C97.3,56.3,97.1,56.2,97,56.2c-0.5-0.399-1.1-0.7-1.699-1C95.3,55.2,95.2,55.2,95.2,55.3z"/>
	<path d="M17.6,9.5c0-0.1,0-0.1-0.1-0.1c-0.3,0-0.6,0-0.8,0c-3.6,1.8-6.8,4.3-9.3,7.5c0,0.1,0,0.2,0,0.4v0.1c0.1,0,0.2,0.1,0.3,0.1
		c0,0.1,0.1,0.1,0.2,0.2c0-0.1,0.1-0.1,0.2-0.1c0.1-0.1,0.2-0.2,0.2-0.2C11.1,14.4,14.2,11.8,17.6,9.5z"/>
</g>
</svg>
