<?xml version="1.0" encoding="utf-8"?>
<!-- Generator: Adobe Illustrator 13.0.0, SVG Export Plug-In . SVG Version: 6.00 Build 14948)  -->
<svg version="1.2" baseProfile="tiny" id="Layer_1" xmlns="http://www.w3.org/2000/svg" xmlns:xlink="http://www.w3.org/1999/xlink"
	 x="0px" y="0px" width="108.025px" height="68.714px" viewBox="0 0 108.025 68.714" xml:space="preserve">
<path d="M83.2,1.324c-0.101-0.2-0.3-0.4-0.5-0.5c-3.2-0.9-6.5-1-9.8-0.6c-1.5,0.2-3,0.5-4.7,0.7c-1.101,0.3-2.3,0.7-3.4,1.3
	c-4.2,2.1-8,4.7-11.399,8c-2.5,2.2-4.9,4.5-7.5,6.6c-4.101,3.5-8,7.3-11.7,11.5l-7.2-0.9c1.3-1.9,1.8-3.9,1.2-6.1
	c-2.3-1.4-4.8-1.5-7.2-0.5c-0.1,0-0.1,0-0.3,0c-0.1,0-0.3,0.1-0.6,0.1v0.1c-0.1,0-0.2,0-0.3,0c-0.7,0.3-1.3,0.7-1.9,0.9
	c-0.2,0.1-0.3,0.2-0.4,0.3l-0.9-4.1c-0.1,0-0.1,0-0.1-0.1c-0.1-0.2-0.2-0.5-0.3-0.7c-0.1-0.1-0.1-0.3-0.3-0.5
	c-0.3-0.3-0.8-0.6-1.3-0.9v-0.1h-0.2c-1.5-0.1-3-0.3-4.3-0.6c-1.5,0.2-2.9,0.6-4.3,1.2c-0.5,0.3-0.9,0.8-1.1,1.3v0.6
	c-1.2,3.2-1.8,6.6-1.7,10.3c0.1,2.7,0.2,5.5,0.3,8.2c0,0.7,0.3,1.5,0.5,2.2l-1.2,1.6l-1.9,4.101l-0.1,1l-0.4,0.399v0.4L0,46.923
	c0,0.5,0.1,0.801,0.2,1.2c0.1,0.3,0.1,0.601,0.3,1c2.2,0.9,4.4,1.5,6.9,1.8c1.4,0,2.7-0.199,4-0.5c0.5-0.199,1.1-0.5,1.6-0.699
	c1.2-1,2.4-2.101,3.3-3.301c7.4,3.301,15.2,5.801,23.3,7.301c-3,2.699-5,6-6.199,9.699c0,0.301,0,0.601,0.1,1
	c5.9,3.801,12.3,5,19.1,3.9c1-0.2,1.9-0.5,2.9-0.9c4.7-2.5,8.7-6,11.7-10.399c6.399,0.5,12.5,0.1,18.6-1.101
	c2.9-0.5,5.4-1.699,7.601-3.5c0,0.101,0,0.5,0,0.7c-0.301,2.3-0.2,4.7,0.5,7c0.3,1,1,1.601,2,2c0,0,0,0,0.1,0.101c0.1,0,0.1,0,0.1,0
	c0.9,0.199,1.801,0.199,2.601-0.301c0.2-0.199,0.399-0.3,0.5-0.5c0,0,0-0.1,0-0.199c0.5-0.9,0.899-1.801,1.2-2.801
	c1-3.399,0.8-6.899-0.5-10.3l0.3-3.399c3-2.4,5.399-5.301,7.2-8.801c1-1.6,0.8-3-0.601-4c-0.5-0.3-1.1-0.5-1.8-0.5
	c-3.5,2.1-6.1,5.1-8,8.9c-0.1,0.2-0.1,0.5-0.1,0.9c-0.101,0.1-0.101,0.199-0.2,0.3c-0.3,0.2-0.5,0.1-0.601-0.2c0-0.1,0-0.1,0-0.2
	v-0.1c0-0.101,0-0.101,0-0.101c-0.199-0.699-0.3-1.399-0.5-2c0-0.1,0-0.1-0.199-0.199c0,0,0-0.101,0-0.2l0,0c0-0.101,0-0.101,0-0.2
	c0,0,0,0-0.101,0c-0.1,0-0.1,0-0.1-0.1c0,0,0,0-0.101-0.101l0,0c0-0.1,0-0.1,0-0.2c-0.1,0-0.1,0-0.1-0.1c0,0,0,0,0-0.1l0,0
	c-0.4-0.7-0.9-1.301-1.4-1.9c0,0,0,0,0-0.1c-1-1.7-2.399-3-4-3.9l0,0c-0.1,0-0.1,0-0.199,0c-0.301-0.2-0.5-0.4-0.801-0.5
	c-0.1,0-0.1,0-0.1,0c-0.4-0.4-0.9-0.6-1.3-0.8c-0.2-0.2-0.3-0.4-0.3-0.7c0-0.2,0-0.3,0.1-0.5c-0.1-0.3-0.2-0.7-0.4-1
	c-0.199-0.3-0.3-0.6-0.5-0.9c-1.3-1.1-2.699-1.8-4.3-2.3c-0.5-0.2-0.899-0.3-1.1-0.6l-3-0.9l0.1-2.3c1-3.6,2.601-7,5.101-10.1
	c0.5-0.7,0.8-1.4,1.1-2.1C85.1,6.224,84.9,3.524,83.2,1.324z M53.4,12.624c1.899-1.7,3.8-3.2,5.699-4.7c0.5-0.3,0.801-0.6,1.2-0.8
	c1.9-1.4,4-2.7,6.2-3.6c2.3-1,4.6-1.4,7.1-1.4c0.101,0,0.2,0,0.301,0c1.699,0.1,3.5,0.3,5.3,0.6c1.2-0.2,2.1,0.1,2.899,0.6
	c0.5,1.5,0.301,3-0.399,4.5c-3.3,6.5-7.101,12.5-11.4,18.3c-3.2,4.2-6.7,8.4-10,12.7c-0.899,1.1-2,1.8-3.399,2.1
	c-4.301,1.2-8.7,1.9-13.101,2.101c-2.7,0.1-5.5,0-8.2-0.2c-2.1-0.5-3.399-1.6-4-3.5c-0.1-0.5-0.1-1,0-1.4c0.801-2.6,1.9-5,3.5-7.2
	c1-1.4,2-2.6,3.301-3.8c3.3-3.1,6.699-6.1,10-9.1c0.1-0.3,0.199-0.5,0.5-0.6c0.5-0.7,1.1-1.2,1.699-1.8
	C51.5,14.324,52.4,13.424,53.4,12.624z M76,21.924l0.1-0.1v0.1l0,0c0.101,0.4,0.101,0.9-0.1,1.2v0.5l-0.4,0.1c0,0,0,0,0,0.1
	c0,0-0.1,0-0.199,0h-0.2l0.1-0.1c-0.1,0-0.1,0-0.2,0v0.2l-0.399,0.2l0.399-0.8c0-0.4,0.301-0.9,0.601-1.2
	C75.8,22.024,75.9,21.924,76,21.924z M73.5,25.424l2.4,0.4l-0.101,2.5l0.9,0.6l1.1-0.8l-0.1-2.3c2.6,0.1,4.899,1,6.899,2.6
	c0.301,0.3,0.601,0.5,0.801,0.8l0.199,0.6H85.4l-10.801-1c-1.199,0.6-2.6,1.1-4.399,1.5L73.5,25.424z M74.4,32.124l0.5-0.1
	l-0.301,0.5c0.2,0.2,0.301,0.6,0.2,1c-0.399,1.6-0.5,3.3-0.3,5c0.1,0.8,0.3,1.6,0.5,2.3c0.1,0.4,0.3,0.8,0.4,1.2
	c0.699,0.3,1.399,0.7,2,1.2c0.3,0,0.6,0,1,0c2.5,0,5.199-0.4,7.8-0.801c1.6-0.3,3.1-0.699,4.7-1.399c0.699-0.4,1.5-0.7,2.199-1
	c0.4,0.1,0.7,0.2,0.801,0.399l0,0l0.399,0.9v1l-1.2,1.5c-4.399-0.5-8.3,0.8-11.5,3.9c-0.5,0.399-0.8,0.8-1.199,1.399
	c0.399,1.601,1.6,2.4,3.699,2.4c2.801-0.3,5.601-1.2,8.2-2.7c-0.7,1.5-2.1,2.7-3.899,3.7c-2.801,1.399-5.801,2-8.801,2.1
	c-1.199,0.101-2.5,0.101-3.6,0.101c-1.4,0.1-2.7,0.199-4.1,0.199c-0.301,0-0.5,0-0.801,0.101c-2.3,0.2-4.6,0.1-6.899-0.4
	c-0.601-0.2-1.101-0.2-1.601-0.399c-0.399,0-0.699,0-1-0.2l-4.699-0.3v-10c2.5-0.9,4.5-2.301,6.199-4.301
	c1.7-2.199,3.5-4.3,5.101-6.5l5.899-0.8l0,0c0.101,0,0.101,0,0.2-0.1L74.4,32.124z M76.9,32.124c0-0.2,0.199-0.3,0.399-0.3l0,0l0,0
	c3.2-0.6,6.5-0.1,9.8,1.4c2.301,1,4.4,2.5,6,4.6c-0.899,0.6-1.8,1.1-2.699,1.6c-1.9,0.601-3.801,1.101-5.801,1.4
	c-1.899,0.4-3.8,0.5-5.699,0.5c-0.801,0-1.5-0.1-2.101-0.5l-0.1-0.1c-0.101-0.2-0.101-0.301-0.2-0.5c-0.1-0.301-0.1-0.601-0.3-0.9
	c-0.101-0.4-0.101-0.7-0.101-1c-0.1-0.6-0.199-1.1-0.199-1.6l-0.101-0.7l0.101-0.2C76,34.524,76.2,33.324,76.9,32.124z M54.4,56.124
	l-0.5,3.601c0.1,0,0.199,0.199,0.199,0.199c0.301,0.301,0.5,0.5,0.7,0.801c0.2,0,0.3,0,0.601,0c0.199-0.301,0.6-0.601,0.899-1
	l0.5-3.301l7.4,0.5c-2.4,3.2-5.3,5.9-8.7,8.2c-0.6,0.3-1.3,0.601-2.1,0.7c-4.801,1.1-9.301,0.7-13.7-1.3
	c-0.601-0.101-1.101-0.4-1.7-0.7c-0.6-0.4-1.2-0.8-1.8-1.3c0.399-0.8,0.899-1.601,1.3-2.4c1.1-2,2.4-3.899,4.1-5.6
	c0.2-0.101,0.301-0.2,0.301-0.3l1.5,0.199l-0.301,4c0,0.101,0.101,0.2,0.2,0.301c0.3,0,0.4,0.1,0.601,0.199
	c0.3-0.199,0.699-0.3,1.199-0.399v-0.101c0-0.199,0.101-0.399,0.301-0.5l-0.101-3.1L54.4,56.124z M54.3,44.423l0.3,9.101l-9.6-1.4
	c-0.2-1.2-0.4-2.3-0.5-3.399c-0.1-0.5-0.2-0.801-0.3-1.2c-0.101-0.3-0.3-0.601-0.4-0.9c-0.2-0.399-0.399-0.7-0.6-0.899L54.3,44.423z
	 M104.9,33.624c0-0.1,0.199-0.1,0.199-0.1l1,0.4c-1.3,3.8-3.699,6.8-7,8.9l-0.899-0.5C99.7,38.824,101.9,35.824,104.9,33.624z
	 M95.4,44.124c0.199-0.2,0.5-0.3,0.699-0.3c0.801,0,1.4,0.3,1.801,0.7v0.1v0.101c0.399,0.5,0.5,1,0.5,1.699
	c-0.101,0.5-0.2,0.801-0.301,1v0.101c-0.399,1-1.399,1.6-2.8,1.399c-0.3-0.1-0.5-0.199-0.7-0.5C93.5,46.724,93.8,45.224,95.4,44.124
	z M90.8,45.724c0.3,0,0.601,0,1,0.1l0.101,1.1c-3,1.5-6,2.301-9.301,2.2C84.9,47.224,87.6,46.024,90.8,45.724z M98.4,50.423
	c0.3,0.7,0.5,1.4,0.8,2.101c0.2,1.7,0.1,3.6-0.5,5.399c0,0,0,0,0,0.2c0.1,0.101,0,0.3-0.101,0.4c0,0,0,0.2-0.1,0.2s-0.1,0.1,0,0.1
	c0,0,0,0,0,0.1c0,0,0,0,0.1,0.101c-0.1,0-0.1,0-0.1,0.1c0,0,0,0,0,0.101c-0.1,0-0.1,0-0.1,0.1s0,0.1,0,0.1h-0.2
	c-0.5,0.301-1.101,0.4-2,0c-0.601-0.199-1-0.699-1.101-1.399c-0.199-1.4-0.199-2.8-0.199-4.101c0.1-1,0.399-2,0.699-3l1-0.199
	c0.2-0.101,0.5-0.2,0.801-0.301c0,0,0,0,0.1,0l0.7-0.199C98.3,50.224,98.4,50.423,98.4,50.423z M6.9,18.824c0.2-0.3,0.3-0.5,0.5-0.5
	c0.5-0.4,1.3-0.6,2-0.6c0.4,0,0.7,0,0.9-0.1c1.1-0.2,2,0.1,2.8,0.5c0.3,0,0.4,0.1,0.5,0.1h0.5l3.2,8.9l-0.9,0.8l0.1,0.9
	c0.1,0.2,0.4,0.3,0.6,0.3c3.8,0.7,7.7,1.2,11.5,1.2c1.3,0,2.5,0,3.8,0c-1.5,1.7-2.601,3.7-3.2,6c-0.2,0.9-0.2,1.6-0.101,2.5
	c0.601,3.4,2.5,5.4,5.7,6.1c2,0.5,3.9,0.801,5.8,0.801l0.101,0.199c0.3,0.2,0.6,0.4,0.7,0.801c0,0.1,0,0.1,0,0.199
	c0.3,0.4,0.5,0.9,0.699,1.5c0,0.101,0,0.301,0,0.5c0.5,0.9,0.801,2,0.7,3c-0.399,0-0.7-0.199-1-0.199c-0.1,0-0.1-0.2-0.1-0.2
	c-7.7-1.601-15.1-3.9-22.6-7c-0.3-0.101-0.6-0.2-1-0.4l3.1-6l-1.1-0.899c-1.5,0-3.2,0-4.7,0.1c-0.8-0.1-1.7-0.1-2.5-0.2
	c-1.9-0.2-3.7,0.101-5.5,0.7c-0.3,0-0.7,0.1-1,0.3c-0.3-0.399-0.5-0.899-0.6-1.5c-0.1-0.2-0.2-0.399-0.3-0.7
	c-0.3-1.8-0.5-3.6-0.5-5.5c-0.1-2.3,0.2-4.6,0.7-6.9c0-0.6,0.1-1.2,0.1-1.8c0.1-0.9,0.4-1.6,0.8-2.4
	C6.7,19.224,6.8,18.924,6.9,18.824z M2.2,45.923c0,0,0-0.1,0-0.199c0.5-1.301,1.1-2.601,2-3.9c1-1.7,2.6-2.6,4.7-2.6
	c2.6-0.2,5.2-0.4,7.7-0.7c0.8-0.2,1.5-0.101,2,0.399c0.2,0.2,0.3,0.4,0.2,0.601c-0.2,0.6-0.4,1-0.7,1.3l-0.1,0.5
	c-1.6,2.1-3.2,4.2-5,6.1c-0.5,0.601-1.1,1-1.8,1.2c-3.2,0.5-6.3,0.101-9.2-1.2c-0.1-0.1-0.1-0.1-0.1-0.1l0.3-0.4
	c-0.1-0.1-0.1-0.1-0.1-0.199c0-0.101-0.1-0.301,0-0.5v-0.101C2.1,46.024,2.1,45.923,2.2,45.923z M19.4,23.324c0-0.1,0-0.1,0.2-0.2
	c1.3-0.7,2.9-1.2,4.5-1.3c0.8,0,1.3,0.2,1.8,0.6l0,0c0.7,0.5,0.7,1.4,0.3,2.3c-0.4,1-1.1,1.7-1.9,2.5l-3.7-0.8l-2-2.1
	c0-0.1,0.1-0.3,0.2-0.5c0.1-0.1,0.1-0.3,0.3-0.4L19.4,23.324z"/>
<path fill="#FFCB05" d="M59.1,7.924c-1.899,1.5-3.8,3-5.699,4.7c-1,0.8-1.9,1.7-2.801,2.8c-0.6,0.6-1.199,1.1-1.699,1.8
	c-0.301,0.1-0.4,0.3-0.5,0.6c-3.301,3-6.7,6-10,9.1c-1.301,1.2-2.301,2.4-3.301,3.8c-1.6,2.2-2.699,4.6-3.5,7.2
	c-0.1,0.4-0.1,0.9,0,1.4c0.601,1.9,1.9,3,4,3.5c2.7,0.2,5.5,0.3,8.2,0.2c4.4-0.2,8.8-0.9,13.101-2.101c1.399-0.3,2.5-1,3.399-2.1
	c3.3-4.3,6.8-8.5,10-12.7c4.3-5.8,8.101-11.8,11.4-18.3c0.7-1.5,0.899-3,0.399-4.5c-0.8-0.5-1.699-0.8-2.899-0.6
	c-1.8-0.3-3.601-0.5-5.3-0.6c-0.101,0-0.2,0-0.301,0c-2.5,0-4.8,0.4-7.1,1.4c-2.2,0.9-4.3,2.2-6.2,3.6
	C59.9,7.324,59.6,7.624,59.1,7.924z M68,5.824c0.1,0,0.2,0.1,0.3,0.3c-0.1,0.2-0.1,0.4-0.2,0.7c0,0.1-0.1,0.3-0.199,0.5
	c-7,5-13.601,10.5-19.801,16.5c-3.899,3.7-7,8-9.199,12.6c-0.2,0.301-0.2,0.601,0,0.9c-0.5,1.4-1.301,1.5-2.301,0.6
	c-0.699-2.3-0.199-4.399,1.301-6.3c0.5-0.5,1-0.9,1.5-1.3c2.1-3,4.5-5.8,7-8.5c0.199-0.1,0.5-0.5,0.699-0.7
	c0.301-0.2,0.5-0.3,0.801-0.3c5.5-5.5,11.399-10.5,17.699-15c0,0,0.2,0,0.301-0.1c0,0,0,0,0.199-0.1c0.101,0,0.301,0,0.4-0.1l0,0
	c0.4,0,0.6,0.1,1,0.2C67.6,5.724,67.8,5.724,68,5.824z"/>
<path fill="#FFF200" d="M68.3,6.124c-0.1-0.2-0.2-0.3-0.3-0.3c-0.2-0.1-0.4-0.1-0.5-0.1c-0.4-0.1-0.6-0.2-1-0.2l0,0
	c-0.1,0.1-0.3,0.1-0.4,0.1c-0.199,0.1-0.199,0.1-0.199,0.1c-0.101,0.1-0.301,0.1-0.301,0.1c-6.3,4.5-12.199,9.5-17.699,15
	c-0.301,0-0.5,0.1-0.801,0.3c-0.199,0.2-0.5,0.6-0.699,0.7c-2.5,2.7-4.9,5.5-7,8.5c-0.5,0.4-1,0.8-1.5,1.3c-1.5,1.9-2,4-1.301,6.3
	c1,0.9,1.801,0.801,2.301-0.6c-0.2-0.3-0.2-0.6,0-0.9c2.199-4.6,5.3-8.899,9.199-12.6c6.2-6,12.801-11.5,19.801-16.5
	c0.1-0.2,0.199-0.4,0.199-0.5C68.2,6.524,68.2,6.324,68.3,6.124z"/>
<path fill="#FFCB05" d="M75.9,25.824l-2.4-0.4l-3.3,4.9c1.8-0.4,3.2-0.9,4.399-1.5l10.801,1v-0.6c-0.2-0.3-0.5-0.5-0.801-0.8
	c-2-1.6-4.3-2.5-6.899-2.6l0.1,2.3l-1.1,0.8l-0.9-0.6L75.9,25.824z"/>
<path fill="#40835E" d="M74.8,33.524c0.101-0.4,0-0.8-0.2-1l-0.5-0.4l-5.899,0.8c-1.601,2.2-3.4,4.3-5.101,6.5
	c-1.699,2-3.699,3.4-6.199,4.301v10l4.699,0.3c0.301,0.2,0.601,0.2,1,0.2c0.5,0.199,1,0.199,1.601,0.399
	c2.3,0.5,4.6,0.601,6.899,0.4c0.301-0.101,0.5-0.101,0.801-0.101c1.399,0,2.699-0.1,4.1-0.199c1.1,0,2.4,0,3.6-0.101
	c3-0.1,6-0.7,8.801-2.1c1.8-1,3.199-2.2,3.899-3.7c-2.6,1.5-5.399,2.4-8.2,2.7c-2.1,0-3.3-0.8-3.699-2.4
	c0.399-0.6,0.699-1,1.199-1.399c3.2-3.101,7.101-4.4,11.5-3.9l1.2-1.5v-1l-0.399-0.9l0,0c-0.101-0.199-0.4-0.3-0.801-0.399
	c-0.699,0.3-1.5,0.6-2.199,1c-1.601,0.7-3.101,1.1-4.7,1.399c-2.601,0.4-5.3,0.801-7.8,0.801c-0.4,0-0.7,0-1,0
	c-0.601-0.5-1.301-0.9-2-1.2c-0.101-0.4-0.301-0.8-0.4-1.2c-0.2-0.7-0.4-1.5-0.5-2.3C74.3,36.824,74.4,35.124,74.8,33.524z
	 M72.4,33.924c0-0.1,0.199-0.2,0.199-0.2c0.2,0,0.4,0.1,0.601,0.2c0.1,3,0.5,5.9,1.2,8.8c0,0.1,0,0.1,0,0.199
	c0,0.2-0.101,0.2-0.2,0.301c-0.101,0.1-0.3,0.1-0.4,0.199c-0.2-0.1-0.399-0.1-0.6-0.199c-0.4-0.7-0.8-1.4-1.3-2
	C71.6,38.724,71.6,36.324,72.4,33.924z"/>
<path fill="#AFBA4C" d="M72.6,33.724c0,0-0.199,0.1-0.199,0.2c-0.801,2.4-0.801,4.8-0.5,7.3c0.5,0.6,0.899,1.3,1.3,2
	c0.2,0.1,0.399,0.1,0.6,0.199c0.101-0.1,0.3-0.1,0.4-0.199c0.1-0.101,0.2-0.101,0.2-0.301c0-0.1,0-0.1,0-0.199
	c-0.7-2.9-1.101-5.801-1.2-8.8C73,33.824,72.8,33.724,72.6,33.724z"/>
<path fill="#00AEEF" d="M77.3,31.824c-0.2,0-0.399,0.1-0.399,0.3c-0.7,1.2-0.9,2.4-1,3.7l-0.101,0.2l0.101,0.7
	c0,0.5,0.1,1,0.199,1.6c0,0.3,0,0.6,0.101,1c0.2,0.3,0.2,0.6,0.3,0.9c0.1,0.199,0.1,0.3,0.2,0.5l0.1,0.1
	c0.601,0.4,1.3,0.5,2.101,0.5c1.899,0,3.8-0.1,5.699-0.5c2-0.3,3.9-0.8,5.801-1.4c0.899-0.5,1.8-1,2.699-1.6
	c-1.6-2.1-3.699-3.6-6-4.6C83.8,31.724,80.5,31.224,77.3,31.824L77.3,31.824L77.3,31.824z M77.9,34.524c0-0.1,0-0.2,0-0.2
	c0.1-0.3,0.199-0.5,0.399-0.6c0.101-0.2,0.101-0.3,0.101-0.3c0.199-0.1,0.199-0.1,0.3-0.1c0.399-0.1,0.899-0.2,1.399-0.5
	c0.101-0.1,0.301-0.1,0.4-0.1c3.2-0.4,6.1,0.6,8.5,2.7c0.1,0.101,0.2,0.2,0.2,0.301c0.1,0.1,0.2,0.199,0.2,0.399
	c0,0.101,0,0.2,0,0.2c0,0.2,0,0.3,0,0.3c0,0.101-0.2,0.2-0.301,0.2c-0.199,0-0.399,0.1-0.5,0.3c-3.199-2-6.399-2.6-10-1.7
	c-0.199-0.1-0.3-0.1-0.5-0.2c-0.1-0.1-0.199-0.3-0.199-0.4C77.9,34.824,77.8,34.724,77.9,34.524z"/>
<path fill="#C7EAFB" d="M77.9,34.324c0,0,0,0.1,0,0.2c-0.101,0.2,0,0.3,0,0.3c0,0.1,0.1,0.3,0.199,0.4c0.2,0.1,0.301,0.1,0.5,0.2
	c3.601-0.899,6.801-0.3,10,1.7c0.101-0.2,0.301-0.3,0.5-0.3c0.101,0,0.301-0.1,0.301-0.2c0,0,0-0.1,0-0.3c0,0,0-0.1,0-0.2
	c0-0.2-0.101-0.3-0.2-0.399c0-0.101-0.101-0.2-0.2-0.301c-2.4-2.1-5.3-3.1-8.5-2.7c-0.1,0-0.3,0-0.4,0.1c-0.5,0.3-1,0.4-1.399,0.5
	c-0.101,0-0.101,0-0.3,0.1c0,0,0,0.1-0.101,0.3C78.1,33.824,78,34.024,77.9,34.324z"/>
<path fill="#FFCB05" d="M53.9,59.724l0.5-3.601l-9.101-1.3l0.101,3.1c-0.2,0.101-0.301,0.301-0.301,0.5v0.101
	c-0.5,0.1-0.899,0.2-1.199,0.399c-0.2-0.1-0.301-0.199-0.601-0.199c-0.1-0.101-0.2-0.2-0.2-0.301l0.301-4l-1.5-0.199
	c0,0.1-0.101,0.199-0.301,0.3c-1.699,1.7-3,3.6-4.1,5.6c-0.4,0.8-0.9,1.601-1.3,2.4c0.6,0.5,1.2,0.899,1.8,1.3
	c-0.1-0.1-0.2-0.3-0.3-0.4c-0.101-0.6-0.101-1.199,0-1.899c0-0.101,0-0.3,0.1-0.4c0.4-0.399,0.8-0.899,0.8-1.6
	c0-0.101,0-0.101,0-0.3c0.801-1.5,1.9-2.7,3.4-3.101c0.1,0.101,0.2,0.2,0.4,0.3c-1,1.801-1.801,3.7-2.7,5.5
	c0,0-0.101,0.2-0.101,0.301c0.4,0.6,0.9,1.199,1.4,2c-0.4,0.3-0.9,0.399-1.3,0.3c4.399,2,8.899,2.399,13.7,1.3
	c0.8-0.1,1.5-0.4,2.1-0.7c3.4-2.3,6.3-5,8.7-8.2l-7.4-0.5l-0.5,3.301c-0.3,0.399-0.7,0.699-0.899,1c-0.301,0-0.4,0-0.601,0
	c-0.2-0.301-0.399-0.5-0.7-0.801C54.1,59.923,54,59.724,53.9,59.724z"/>
<path fill="#FFF200" d="M38.6,59.224c0,0.199,0,0.199,0,0.3c0,0.7-0.399,1.2-0.8,1.6c-0.1,0.101-0.1,0.3-0.1,0.4
	c-0.101,0.7-0.101,1.3,0,1.899c0.1,0.101,0.2,0.301,0.3,0.4c0.6,0.3,1.1,0.6,1.7,0.7c0.399,0.1,0.899,0,1.3-0.3
	c-0.5-0.801-1-1.4-1.4-2c0-0.101,0.101-0.301,0.101-0.301c0.899-1.8,1.7-3.699,2.7-5.5c-0.2-0.1-0.301-0.199-0.4-0.3
	C40.5,56.524,39.4,57.724,38.6,59.224z"/>
<path fill="#40835E" d="M54.6,53.524l-0.3-9.101l-11.1,1.301c0.2,0.199,0.399,0.5,0.6,0.899c0.101,0.3,0.3,0.601,0.4,0.9
	c0.1,0.399,0.2,0.7,0.3,1.2c0.1,1.1,0.3,2.199,0.5,3.399L54.6,53.524z"/>
<path fill="#F58220" d="M105.1,33.524c0,0-0.199,0-0.199,0.1c-3,2.2-5.2,5.2-6.7,8.7l0.899,0.5c3.301-2.1,5.7-5.1,7-8.9
	L105.1,33.524z"/>
<path fill="#FFCB05" d="M96.1,43.824c-0.199,0-0.5,0.1-0.699,0.3c-1.601,1.101-1.9,2.601-0.801,4.3c0.2,0.301,0.4,0.4,0.7,0.5
	c1.4,0.2,2.4-0.399,2.8-1.399v-0.101c0.101-0.199,0.2-0.5,0.301-1c0-0.699-0.101-1.199-0.5-1.699v-0.101v-0.1
	C97.5,44.124,96.9,43.824,96.1,43.824z"/>
<path fill="#F58220" d="M91.8,45.824c-0.399-0.1-0.7-0.1-1-0.1c-3.2,0.3-5.899,1.5-8.2,3.399c3.301,0.101,6.301-0.7,9.301-2.2
	L91.8,45.824z"/>
<path fill="#F58220" d="M99.2,52.524c-0.3-0.7-0.5-1.4-0.8-2.101c0,0-0.101-0.199-0.2-0.199l-0.7,0.199c-0.1,0-0.1,0-0.1,0
	c-0.301,0.101-0.601,0.2-0.801,0.301l-1,0.199c-0.3,1-0.6,2-0.699,3c0,1.301,0,2.7,0.199,4.101c0.101,0.7,0.5,1.2,1.101,1.399
	c0.899,0.4,1.5,0.301,2,0h0.2c0,0,0,0,0-0.1s0-0.1,0.1-0.1c0-0.101,0-0.101,0-0.101c0-0.1,0-0.1,0.1-0.1
	c-0.1-0.101-0.1-0.101-0.1-0.101c0-0.1,0-0.1,0-0.1c-0.1,0-0.1-0.1,0-0.1s0.1-0.2,0.1-0.2c0.101-0.101,0.2-0.3,0.101-0.4
	c0-0.2,0-0.2,0-0.2C99.3,56.124,99.4,54.224,99.2,52.524z"/>
<path fill="#40835E" d="M7.4,18.324c-0.2,0-0.3,0.2-0.5,0.5c-0.1,0.1-0.2,0.4-0.3,0.5c-0.4,0.8-0.7,1.5-0.8,2.4
	c0,0.6-0.1,1.2-0.1,1.8c-0.5,2.3-0.8,4.6-0.7,6.9c0,1.9,0.2,3.7,0.5,5.5c0.1,0.301,0.2,0.5,0.3,0.7c0.1,0.601,0.3,1.101,0.6,1.5
	c0.3-0.2,0.7-0.3,1-0.3c1.8-0.6,3.6-0.9,5.5-0.7c0.8,0.101,1.7,0.101,2.5,0.2c1.5-0.1,3.2-0.1,4.7-0.1l1.1,0.899l-3.1,6
	c0.4,0.2,0.7,0.3,1,0.4c7.5,3.1,14.9,5.399,22.6,7c0,0,0,0.2,0.1,0.2c0.3,0,0.601,0.199,1,0.199c0.101-1-0.2-2.1-0.7-3
	c0-0.199,0-0.399,0-0.5c-0.199-0.6-0.399-1.1-0.699-1.5c0-0.1,0-0.1,0-0.199c-0.101-0.4-0.4-0.601-0.7-0.801L40.6,45.724
	c-1.899,0-3.8-0.301-5.8-0.801c-3.2-0.699-5.1-2.699-5.7-6.1c-0.1-0.9-0.1-1.6,0.101-2.5c0.6-2.3,1.7-4.3,3.2-6
	c-1.301,0-2.5,0-3.8,0c-3.8,0-7.7-0.5-11.5-1.2c-0.2,0-0.5-0.1-0.6-0.3l-0.1-0.9l0.9-0.8l-3.2-8.9h-0.5c-0.1,0-0.2-0.1-0.5-0.1
	c-0.8-0.4-1.7-0.7-2.8-0.5c-0.2,0.1-0.5,0.1-0.9,0.1C8.7,17.724,7.9,17.924,7.4,18.324z M7,19.924c0.1-0.1,0.2-0.1,0.3-0.2
	c0.2-0.1,0.4-0.2,0.5-0.3c0.3-0.1,0.4-0.3,0.5-0.5c0.1,0,0.3,0,0.3,0c0.2,0,0.3-0.1,0.5-0.1l0,0c1.1-0.1,2.1,0.1,3,0.6
	c0.1,0,0.1,0.1,0.2,0.2c0,0.1,0,0.2,0,0.3c0,0.2-0.1,0.2-0.1,0.4c-0.1,0-0.1,0.1-0.1,0.2c-1.3,0-2.3,0.3-3.2,0.8
	c-0.1,0-0.3,0.1-0.5,0.2c-0.5,1.3-0.8,2.6-1.1,3.9c-0.2,1.1-0.6,2.2-1.1,3.1c-0.1-0.1-0.1-0.2-0.2-0.2c-0.1-0.1-0.1-0.2-0.1-0.3
	c-0.1-0.2-0.1-0.2-0.1-0.4c-0.1-0.1-0.2-0.2-0.3-0.3c0-1.3,0.1-2.6,0.3-3.9C5.9,22.224,6.3,20.924,7,19.924z M6.2,31.424
	c0.2-0.1,0.4-0.1,0.6-0.1c0.1,0.1,0.2,0.2,0.3,0.4c0.1,0.3,0.1,0.6,0.1,1c0,0.1-0.1,0.1-0.1,0.3c-0.3,0.2-0.4,0.3-0.5,0.5
	c-0.3-0.1-0.4-0.2-0.6-0.2c-0.2-0.6-0.2-1.1,0.1-1.6c0-0.1,0-0.2,0-0.3C6.2,31.424,6.2,31.324,6.2,31.424z M27.3,31.224
	c0.8,0.1,1.5,0.3,1.9,0.9c-4.3,1.7-8.6,1.6-12.9-0.2c-0.2-0.1-0.4-0.2-0.4-0.5c0.2-0.3,0.7-0.6,1.2-0.7c0,0,0.1-0.1,0.2-0.2
	c0.1,0,0.1,0,0.1-0.1c0.2,0,0.3,0,0.5-0.1l0,0c2.9,1.4,5.9,1.7,9,1C27.1,31.224,27.1,31.224,27.3,31.224z"/>
<path fill="#AFBA4C" d="M7.3,19.724c-0.1,0.1-0.2,0.1-0.3,0.2c-0.7,1-1.1,2.3-1.2,3.5c-0.2,1.3-0.3,2.6-0.3,3.9
	c0.1,0.1,0.2,0.2,0.3,0.3c0,0.2,0,0.2,0.1,0.4c0,0.1,0,0.2,0.1,0.3c0.1,0,0.1,0.1,0.2,0.2c0.5-0.9,0.9-2,1.1-3.1
	c0.3-1.3,0.6-2.6,1.1-3.9c0.2-0.1,0.4-0.2,0.5-0.2c0.9-0.5,1.9-0.8,3.2-0.8c0-0.1,0-0.2,0.1-0.2c0-0.2,0.1-0.2,0.1-0.4
	c0-0.1,0-0.2,0-0.3c-0.1-0.1-0.1-0.2-0.2-0.2c-0.9-0.5-1.9-0.7-3-0.6l0,0c-0.2,0-0.3,0.1-0.5,0.1c0,0-0.2,0-0.3,0
	c-0.1,0.2-0.2,0.4-0.5,0.5C7.7,19.524,7.5,19.624,7.3,19.724z"/>
<path fill="#AFBA4C" d="M6.8,31.324c-0.2,0-0.4,0-0.6,0.1c0-0.1,0,0-0.1,0c0,0.1,0,0.2,0,0.3c-0.3,0.5-0.3,1-0.1,1.6
	c0.2,0,0.3,0.1,0.6,0.2c0.1-0.2,0.2-0.3,0.5-0.5c0-0.2,0.1-0.2,0.1-0.3c0-0.4,0-0.7-0.1-1C7,31.524,6.9,31.424,6.8,31.324z"/>
<path fill="#AFBA4C" d="M29.2,32.124c-0.4-0.6-1.1-0.8-1.9-0.9c-0.2,0-0.2,0-0.4,0.1c-3.1,0.7-6.1,0.4-9-1l0,0
	c-0.2,0.1-0.3,0.1-0.5,0.1c0,0.1,0,0.1-0.1,0.1c-0.1,0.1-0.2,0.2-0.2,0.2c-0.5,0.1-1,0.4-1.2,0.7c0,0.3,0.2,0.4,0.4,0.5
	C20.6,33.724,24.9,33.824,29.2,32.124z"/>
<path fill="#D7DF23" d="M2.2,45.724c0,0.1,0,0.199,0,0.199c-0.1,0-0.1,0.101-0.1,0.2v0.101c-0.1,0.199,0,0.399,0,0.5
	c0,0.1,0,0.1,0.1,0.199l-0.2,0.5c2.9,1.301,6,1.7,9.2,1.2c0.7-0.2,1.3-0.6,1.8-1.2c1.8-1.899,3.4-4,5-6.1l0.1-0.5
	c0.3-0.3,0.5-0.7,0.7-1.3c0.1-0.2,0-0.4-0.2-0.601c-0.5-0.5-1.2-0.6-2-0.399c-2.5,0.3-5.1,0.5-7.7,0.7c-2.1,0-3.7,0.899-4.7,2.6
	C3.3,43.124,2.7,44.423,2.2,45.724z"/>
<path fill="#D7DF23" d="M19.6,23.124c-0.2,0.1-0.2,0.1-0.2,0.2l-0.3,0.1c-0.2,0.1-0.2,0.3-0.3,0.4c-0.1,0.2-0.2,0.4-0.2,0.5l2,2.1
	l3.7,0.8c0.8-0.8,1.5-1.5,1.9-2.5c0.4-0.9,0.4-1.8-0.3-2.3l0,0c-0.5-0.4-1-0.6-1.8-0.6C22.5,21.924,20.9,22.424,19.6,23.124z"/>
</svg>
