<?xml version="1.0" encoding="utf-8"?>
<!-- Generator: Adobe Illustrator 13.0.0, SVG Export Plug-In . SVG Version: 6.00 Build 14948)  -->
<svg version="1.2" baseProfile="tiny" id="Layer_1" xmlns="http://www.w3.org/2000/svg" xmlns:xlink="http://www.w3.org/1999/xlink"
	 x="0px" y="0px" width="127.696px" height="78.076px" viewBox="0 0 127.696 78.076" xml:space="preserve">
<g>
	<path d="M68.797,2.9l-3.301,5.5l1.2,17.3h-0.7c-0.699,0.8-1.5,1.5-2.7,1.7c-0.5,0-1,0.3-1.3,0.6c-0.5,0.3-0.8,0.8-1,1.3
		c-0.3,0.7-0.6,1.5-0.8,2.1c-0.1,0.4-0.2,0.8-0.5,1.2c-0.1,0.1-0.2,0.2-0.2,0.3v6.3l-0.7-0.3c-2.5,1.2-5.1,2.2-7.6,3
		c-2.2,0.7-4.4,1.7-6.4,2.7l-0.3,0.5c-1.7,0.8-3.5,1.8-5.1,2.7c-0.9,0.6-2,1-3.1,1.3c-1.1,0.101-2.3,0.101-3.3,0.3l-1.7-1.699
		c-0.8-0.301-1.5-0.801-1.8-1.301c-1.7-3.1-3-6.399-3.5-9.899l-14,1.8l-0.7,0.8c-0.5,4.601-0.3,9.101,0.4,13.7l-4.7,1.1
		c-0.5-1-0.5-2-0.1-3c0.9-2,1.4-3.899,1.6-6c0-0.6,0-1.3,0-2c-0.7-1.399-1.9-2.199-3.5-2.399c-1.5,0.3-2.3,1.1-2.4,2.3
		c-0.3,1.8-0.3,3.6-0.1,5.3c0.1,0.9,0.2,1.9,0.3,2.8c-1.5,1-2.5,2.2-2.7,3.801c-0.2,1-0.1,2,0.4,2.899l2.5,1.4l-1.9,3.399
		c-0.1,1.301-0.1,2.5-0.5,3.801c-0.1,0.5,0,1.199,0.4,1.8c0.5,1.3,1.3,2.399,2.3,3.2h3.2l0.9-0.801c1.1-1.6,1.5-3.199,1.4-5
		c0-2.699-0.3-5.399-0.6-7.899c-0.2-0.601-0.4-1.101-0.8-1.601l0.1-0.399l4.4-0.2l0.3,10.9l1.1,0.899c3.5-0.5,7.2-0.6,11-0.2
		c5.2-0.1,10.3,0.301,15.5,0.801c3.2,0.5,6.4,1.199,9.5,2c0.7,0.199,1.4,0.399,2.1,0.5c0.4,0.199,0.7,0.199,1.1,0.5
		c17.3,2,34.5,2.1,51.8,0.399c1.899-0.3,3.6-0.7,5.3-1.2c2.8-0.699,5.399-2,7.899-3.699c0.5-0.301,1-0.601,1.5-1
		c2.9-2.2,5.301-4.801,7.101-8c0.6-1.101,1.1-2.301,1.399-3.5c0-0.2,0.101-0.5,0.2-0.7c-0.1-1.4-0.2-3-0.7-4.4
		c0-0.399-0.199-0.8-0.399-1.2c0-0.199,0-0.5-0.3-0.8c-1.601-2.399-3.7-4.3-6-5.7c-2.301-1.3-4.801-2.3-7.5-2.7
		c-3.5-0.4-7-0.8-10.5-1c-3.5-0.4-7.101-0.6-10.601-0.8c-1.5,0-3,0-4.5-0.1c0-1-0.1-2.1-0.399-3c-0.2-0.2-0.4-0.5-0.601-0.7
		c0-1.6-0.7-2.8-2.2-3.6c-1.199-0.7-2.399-1.2-3.5-1.6c-2-0.6-3.899-1-5.899-1.1l-0.101-0.7l-1-0.4c-0.5-4.4-0.6-8.8-0.199-13.1
		c0-0.7,0.199-1.2,0.6-1.8l0.4,1.2c0.899,0.7,2,0.8,3.3,0.7c0.899-0.4,1.7-0.5,2.6-0.8c0.601-3,0.8-6.1,0.3-9.2
		c0-0.4-0.199-0.7-0.5-0.9c-0.5-0.7-1.3-1.1-2.199-1.3c-0.801,0.1-1.5,0.2-2.2,0.4c-0.4,0.1-0.8,0.3-1.101,0.5
		c-0.199,0.4-0.5,0.7-0.6,1L68.797,2.9z M67.597,11.3c0-1.5,0.399-2.8,1.2-3.9c0.5-1.4,1.6-2.5,3.199-3.2l1.5,0.8
		c0.4,0,0.5,0.3,0.601,0.8c0,0.7,0,1.4,0.1,2.1c-0.899,0.1-1.7,0.4-2.3,0.9c-0.2,0.1-0.4,0.3-0.6,0.5c-0.5,2.7-0.801,5.4-0.5,8
		c0.399,3,0.699,5.9,0.899,8.8l-3.2-0.3c0-1.6-0.199-3.3-0.199-5c-0.301-2.1-0.5-4.4-0.801-6.6c0-0.4,0-0.9,0-1.3
		C67.496,12.4,67.496,11.8,67.597,11.3L67.597,11.3z M78.297,2.8c0.1,0.7,0.199,1.4,0.199,2.1c0.101,1.2,0.2,2.4,0.101,3.5
		c-0.101,0.4-0.101,0.9-0.3,1.4c0,0-0.2,0-0.301,0c-0.199,0.2-0.399,0.3-0.5,0.4c-0.699,0.1-1.199-0.2-1.5-0.8
		c-0.3-2.1-0.3-4.4,0-6.5c0.101-0.3,0.4-0.5,0.801-0.6l0.5,0.2l0.699-0.3C78.097,2.4,78.196,2.6,78.297,2.8z M83.797,32.9
		L83.797,32.9c-2,0-4-0.2-5.9-0.6c-0.6-0.5-1.1-0.9-1.4-1.3c-0.1-0.1-0.1-0.2,0-0.2c0-0.8,0.2-1.6,0.301-2.4
		c2.8,0.4,5.199,1.9,7,4.4V32.9z M85.396,39.2c0.2,0,0.5,0,0.8,0c6.2,0,12.5,0.2,18.8,0.7l-0.8,1.101v2.7l-0.3,0.3
		c0,0.2,0,0.399,0.1,0.7c0,1,0.2,2,0.301,3c0.1,0.6,0.3,1.199,0.8,1.8l-0.101,0.399c0.4,0.301,0.801,0.5,1.301,0.5
		c6.199,1.2,12.199,0.801,18-1c0.1,0.301,0.1,0.801,0.199,1.301c0,1.5-0.199,3-0.699,4.6c-0.4,1.2-1,2.3-1.601,3.4
		c-1,0.5-2.1,0.8-3.3,0.899c-12.4,0.101-24.8,0.3-37.2,0.5c-0.2,0-0.3,0-0.5,0c-5.6-0.1-10.899,0.601-16.3,1.8c-0.1,0-0.4,0-0.5,0
		c-0.6,0-1.2,0.101-1.9,0.2c-0.1-0.2-0.3-0.399-0.6-0.399c-3.5-0.5-6.7-1.601-9.9-3.101c-1.8-1.3-3.2-2.7-4.4-4.6
		c-0.1,0-0.1-0.101-0.1-0.101c-0.6-1.199-1-2.5-1.1-3.8c-0.1-0.1-0.1-0.1-0.1-0.1c-0.1-0.101-0.1-0.2-0.2-0.3V49.6
		c0-0.1,0-0.2,0-0.3c-0.3-0.6-0.6-1.2-0.8-1.8c0-0.101,0-0.101,0-0.101c1.2-0.5,2.4-1.1,3.7-1.6c0.7-0.4,1.5-0.7,2.2-1
		c0.6-0.5,1.3-0.8,2-1.2c0.6-0.3,1.3-0.399,2.1-0.5c2.1-0.5,4.3-1.1,6.4-1.7c1.8-0.6,3.601-0.8,5.5-0.6
		C73.196,39.8,79.297,39.3,85.396,39.2z M83.996,34.4l0.801,1.9c-7.601-0.2-15.2,0.6-22.5,2.5c0-1.5,0-3.1,0-4.8
		c0-0.3,0.1-0.6,0.2-0.7c0.3-0.9,0.5-1.7,0.7-2.6c0.1-0.4,0.1-0.7,0.1-1c2.7-0.9,5.7-1.4,8.8-1.3h0.1c0.101,0,0.2,0,0.3,0
		c0.5-0.1,1-0.1,1.301-0.1h0.8c-0.101,0.5-0.2,1-0.3,1.5c-0.2,2,0.5,3.3,2.3,4c2,0.9,4.1,1,6.2,0.6
		C83.196,34.4,83.597,34.4,83.996,34.4z M49.097,66.8c-0.1,0.1-0.2,0.1-0.3,0c-4.3-0.9-8.6-1.7-13-2.3c-6.9-0.8-13.8-0.8-20.8-0.101
		V62c3.3,0.6,6-0.3,8.4-2.7c0.5-0.5,0.9-1.1,1.1-1.7c1-3.6,0.8-7-0.5-10.399c-0.2-0.301-0.3-0.601-0.5-0.801c-2-2.3-4.5-3.3-7.8-3.1
		c-0.5,0-1.1,0.2-1.6,0.3v-2.3c3.3-1.3,6.7-1.7,10.1-1.4c0.8,2.2,1.9,4.4,3.1,6.7c0.8,1.601,1.7,3.101,3,4.5
		c0.5,0.101,1.1,0.2,1.7,0.3c1,0,2.2,0,3.3,0c0.9-0.199,1.7-0.3,2.5-0.6c2-0.8,3.8-1.6,5.6-2.5c0.2-0.1,0.4-0.3,0.6-0.4
		c0.2,0.5,0.3,1,0.3,1.601c0.1,0.1,0.2,0.2,0.2,0.2s0,0.1,0.1,0.199c0,0,0,0.101,0,0.2c0,0.101,0,0.101,0,0.2
		c0.1,0.1,0.2,0.1,0.2,0.2c0,0.1,0,0.2,0.1,0.2c0,0.1,0,0.199,0.1,0.199c0.2,1.2,0.4,2.301,0.9,3.5c1.5,3,3.9,5.101,7.1,6.301
		c0.6,0.6,1.3,1,2.2,1.199c1.3,0.4,2.8,0.801,4.1,1.4c0,0.1,0.2,0.1,0.3,0.1V63.5c-0.1,0.1-0.1,0.2-0.1,0.2
		c-0.1,0-0.2,0.199-0.2,0.199c-2.5,1.301-4.9,2.5-7.5,3.301C49.997,66.899,49.196,66.7,49.097,66.8z M56.497,66.7
		c1-0.4,2-0.801,3.1-1.2c3-1.3,6.2-2.101,9.399-2.601c4-0.6,8-1,12-1c0.2,0,0.4,0,0.5,0c2.5-0.199,5-0.199,7.4-0.199
		c9.4-0.101,18.9-0.301,28.2-0.5c1.1-0.101,2.1-0.101,3.2-0.101c-1.5,1.4-3.2,2.601-5.101,3.601c-2.7,1.3-5.7,2.3-8.899,3.199
		c-5.301,1-11,1.5-17.101,1.601c-6.2,0.1-11.899,0.1-16.8,0c-5.9-0.101-11.9-0.601-17.8-1.601C55.296,67.6,55.997,67.1,56.497,66.7z
		 M122.896,46.5c-0.1,0.3-0.1,0.5-0.3,0.7c-0.2,0.5-0.601,0.8-1.4,0.8c-4.6,0.2-9.2,0.399-13.899,0.5c-0.7-1.101-1-2.3-1.101-3.601
		c0-0.1,0-0.1,0-0.1c0-0.3,0-0.6,0-0.9c0.101-0.399,0.2-0.899,0.3-1.3c0-0.3,0.101-0.5,0.2-0.7c-0.1,0-0.1,0-0.2,0
		c-0.1-0.699,0.2-1.199,0.9-1.5c0.1-0.1,0.1-0.1,0.2-0.1c0-0.1,0-0.2,0-0.3c4.2,0.2,7.899,1.399,11.399,3.6
		c0.801,0.5,1.601,1.101,2.5,1.7c0.301,0.2,0.5,0.4,0.801,0.6C122.496,46,122.696,46.3,122.896,46.5z M1.796,55.7l0.1-0.5l1.6-1.5
		l0.3,1.199l-0.3,2.601L1.796,55.7z M3.997,44.1V43.7l1-0.801c1-0.1,1.6,0.4,1.6,1.5c0,0.601,0,1.301-0.1,2c-0.4,1.2-1,2.2-1.7,3
		l-0.6-4.5c-0.1-0.1-0.2-0.3-0.2-0.5C3.997,44.3,3.997,44.2,3.997,44.1z M22.097,46.7c0.1,0.1,0.1,0.199,0.2,0.199
		c0.2,0.801,0.5,1.601,0.7,2.5c0.2,0.801,0.3,1.7,0.5,2.5c0.1,1.5,0.1,3-0.2,4.5c0,0,0,0-0.1,0.101c-0.1,0.1-0.1,0.2-0.2,0.2
		c0,0.1,0,0.199,0,0.199c0,0.101,0,0.301,0,0.301c-2,2.399-4.7,3.5-8,3.5v-6.2c-0.1-1.101-0.2-2.3-0.4-3.3
		c-0.1-1.4-0.3-2.601-0.6-3.801c-0.2-1-0.2-1.8,0-2.699c2.7-0.101,5.3,0.5,7.8,1.699l0,0C21.796,46.5,21.997,46.6,22.097,46.7z
		 M3.997,61.6c0.5-1.2,1-2.2,1.7-3.2c0.4-0.5,0.6-0.399,0.6,0c0.2,2.801,0.4,5.601,0.6,8.4l-1.2,2.2h-1.7l-1.7-2.601
		c0.2-0.8,0.3-1.5,0.6-2.1C3.196,63.3,3.497,62.399,3.997,61.6z"/>
	<path fill="#1E6EA6" d="M67.597,12.2c0-0.4,0-0.7,0-0.9l0,0c-0.101,0.5-0.101,1.1-0.101,1.6c0,0.4,0,0.9,0,1.3
		c0.301,2.2,0.5,4.5,0.801,6.6c0,1.7,0.199,3.4,0.199,5l3.2,0.3c-0.2-2.9-0.5-5.8-0.899-8.8c-0.301-2.6,0-5.3,0.5-8
		c0.199-0.2,0.399-0.4,0.6-0.5c0.6-0.5,1.4-0.8,2.3-0.9c-0.1-0.7-0.1-1.4-0.1-2.1c-0.101-0.5-0.2-0.8-0.601-0.8l-1.5-0.8
		c-1.6,0.7-2.699,1.8-3.199,3.2c0.699-1,1.699-2,3.199-2.6c0,0,0,0,0.101-0.1c0.2,0.1,0.3,0.2,0.399,0.3c0,0,0,0,0.101,0.1
		c-0.4,0.7-1.101,1.5-2,1.9c-0.3,0.3-0.4,0.4-0.601,0.8c-0.8,1.5-1.5,3-2,4.6c0,0.2,0,0.3,0,0.3c0,0.1,0,0.2,0,0.2
		c-0.1,0-0.1-0.1-0.1-0.2c-0.1,0-0.1-0.1-0.1-0.3c0,0,0,0-0.101-0.1C67.597,12.3,67.597,12.2,67.597,12.2z M68.797,13.7
		c0,0.1,0,0.1,0,0.2c0.1,0.1,0.1,0.1,0.1,0.2c0.1,0.2,0,0.3-0.1,0.4c0,0.1,0,0.1-0.101,0.1c-0.2,0-0.3,0-0.399,0
		c-0.301-0.4-0.301-0.7,0-0.9c0.1-0.1,0.199-0.1,0.199-0.1C68.496,13.7,68.696,13.7,68.797,13.7z"/>
	<path fill="#0085B8" d="M68.797,13.9c0-0.1,0-0.1,0-0.2c-0.101,0-0.301,0-0.301-0.1c0,0-0.1,0-0.199,0.1
		c-0.301,0.2-0.301,0.5,0,0.9c0.1,0,0.199,0,0.399,0c0.101,0,0.101,0,0.101-0.1c0.1-0.1,0.199-0.2,0.1-0.4
		C68.896,14,68.896,14,68.797,13.9z"/>
	<path fill="#0085B8" d="M67.597,11.3c0,0.2,0,0.5,0,0.9c0,0,0,0.1,0.1,0.1c0.101,0.1,0.101,0.1,0.101,0.1c0,0.2,0,0.3,0.1,0.3
		c0,0.1,0,0.2,0.1,0.2c0,0,0-0.1,0-0.2c0,0,0-0.1,0-0.3c0.5-1.6,1.2-3.1,2-4.6c0.2-0.4,0.301-0.5,0.601-0.8c0.899-0.4,1.6-1.2,2-1.9
		C72.496,5,72.496,5,72.496,5c-0.1-0.1-0.199-0.2-0.399-0.3c-0.101,0.1-0.101,0.1-0.101,0.1c-1.5,0.6-2.5,1.6-3.199,2.6
		C67.996,8.5,67.597,9.8,67.597,11.3z"/>
	<path fill="#0095DA" d="M78.496,4.9c0-0.7-0.1-1.4-0.199-2.1c-0.101-0.2-0.2-0.4-0.301-0.6l-0.699,0.3l-0.5-0.2
		c-0.4,0.1-0.7,0.3-0.801,0.6c-0.3,2.1-0.3,4.4,0,6.5c0.301,0.6,0.801,0.9,1.5,0.8c0.101-0.1,0.301-0.2,0.5-0.4
		c0.101,0,0.301,0,0.301,0c0.199-0.5,0.199-1,0.3-1.4C78.696,7.3,78.597,6.1,78.496,4.9z M77.597,2.9c0,0.1,0,0.1,0.1,0.1
		c0.2,1.6,0.101,3-0.399,4.4c0,0.1,0,0.3,0,0.4c-0.101,0-0.101,0-0.2,0c-0.101,0-0.101,0-0.2,0s-0.1,0-0.2,0
		c-0.399-1.5-0.3-3,0.101-4.5c0.1,0,0.1-0.1,0.1-0.3c0.2,0,0.3-0.1,0.4-0.1c0,0,0,0,0-0.1C77.496,2.9,77.496,2.9,77.597,2.9z"/>
	<path fill="#8ED8F8" d="M77.696,3c-0.1,0-0.1,0-0.1-0.1c-0.101,0-0.101,0-0.3-0.1c0,0.1,0,0.1,0,0.1c-0.101,0-0.2,0.1-0.4,0.1
		c0,0.2,0,0.3-0.1,0.3c-0.4,1.5-0.5,3-0.101,4.5c0.101,0,0.101,0,0.2,0s0.1,0,0.2,0c0.1,0,0.1,0,0.2,0c0-0.1,0-0.3,0-0.4
		C77.797,6,77.896,4.6,77.696,3z"/>
	<path fill="#FFF200" d="M83.797,32.9v-0.1c-1.801-2.5-4.2-4-7-4.4c-0.101,0.8-0.301,1.6-0.301,2.4c-0.1,0-0.1,0.1,0,0.2
		c0.301,0.4,0.801,0.8,1.4,1.3C79.797,32.7,81.797,32.9,83.797,32.9z"/>
	<path fill="#FFF200" d="M86.196,39.2c-0.3,0-0.6,0-0.8,0c-6.1,0.1-12.2,0.6-18.2,1.6c-1.899-0.2-3.7,0-5.5,0.6
		c-2.1,0.601-4.3,1.2-6.4,1.7c-0.8,0.101-1.5,0.2-2.1,0.5c-0.7,0.4-1.4,0.7-2,1.2c-0.7,0.3-1.5,0.6-2.2,1c-1.3,0.5-2.5,1.1-3.7,1.6
		c0,0,0,0,0,0.101c0.2,0.6,0.5,1.2,0.8,1.8c0,0.1,0,0.2,0,0.3V49.7c0.1,0.1,0.1,0.199,0.2,0.3c0,0,0,0,0.1,0.1
		c0.1,1.3,0.5,2.601,1.1,3.8c0,0,0,0.101,0.1,0.101c1.2,1.899,2.6,3.3,4.4,4.6c3.2,1.5,6.4,2.601,9.9,3.101
		c0.3,0,0.5,0.199,0.6,0.399c0.7-0.1,1.3-0.2,1.9-0.2c0.1,0,0.4,0,0.5,0c5.4-1.199,10.7-1.899,16.3-1.8c0.2,0,0.3,0,0.5,0
		c12.4-0.2,24.8-0.399,37.2-0.5c1.2-0.1,2.3-0.399,3.3-0.899c0.601-1.101,1.2-2.2,1.601-3.4c0.5-1.6,0.699-3.1,0.699-4.6
		c-0.1-0.5-0.1-1-0.199-1.301c-5.801,1.801-11.801,2.2-18,1c-0.5,0-0.9-0.199-1.301-0.5l0.101-0.399c-0.5-0.601-0.7-1.2-0.8-1.8
		c-0.101-1-0.301-2-0.301-3c-0.1-0.301-0.1-0.5-0.1-0.7l0.3-0.3V41l0.8-1.101C98.696,39.4,92.396,39.2,86.196,39.2z M81.797,40.899
		c0,0,0,0,0.1,0.101c-1.6,0.7-3.2,0.899-5.1,0.8c-0.101,0-0.301,0-0.301-0.1c-0.199,0-0.199-0.101-0.3-0.2
		c-2.399,1.1-5,1.7-7.899,1.8c-2.2,0.3-4.4,0.6-6.5,1.3c-3.8,1.101-7.4,2.3-11,3.8c-0.7,0.2-1.3,0.301-1.9,0.5c-0.1,0-0.3,0-0.4-0.1
		c-0.1-1.1,0.5-1.8,1.7-2.2c3-0.899,5.8-1.8,8.8-2.7c1.8-0.6,3.6-1.1,5.5-1.5c2-0.399,4-0.6,6.2-0.6c0.9-0.1,2-0.2,2.9-0.5
		c0.899-0.1,1.7-0.3,2.399-0.3c0.101,0.1,0.2,0.1,0.301,0.2c0.5-0.4,1.199-0.601,1.8-0.7C79.496,40.2,80.597,40.399,81.797,40.899z
		 M76.496,52.5c-1.199-1.3-1.6-2.8-1.3-4.5c0.101-0.3,0.4-0.601,0.601-0.8c1.1-1.5,2.5-2.7,4.199-3.5c1.601,0,3.2,0.3,4.5,1.1
		c1.601,1.1,2.301,2.6,1.9,4.6c-0.3,1.5-1.1,2.801-2.4,3.7c-1,0.5-2,0.9-3.199,1.2c-0.5-0.2-1.301-0.3-1.9-0.3
		C77.996,53.899,77.196,53.3,76.496,52.5z M72.297,48.399c0.1,0.801,0,1.601-0.4,2.4c-0.2,0.3-0.4,0.6-0.6,0.9
		c-1.2,1.8-3,2.5-5.301,2.199c-1.199-0.3-2.2-1-3.1-1.8c-1.6-1.399-2.1-3.2-1.4-5.2c0.1-0.699,0.5-1.199,1-1.6
		c1.5-0.7,3-1.1,4.7-0.9c0.8,0,1.7,0.301,2.601,0.7C70.996,45.8,71.797,46.899,72.297,48.399z M92.297,43.399
		c0.5-0.199,1.199-0.5,1.8-0.5c0.899-0.199,1.899-0.199,2.7,0c0.699,0.301,1.199,0.801,1.6,1.5c0.4,0.801,0.6,1.7,0.8,2.801
		c0.2,2-0.5,3.5-2,4.699c-1.399,1.101-2.899,1.5-4.399,1c-1-0.3-1.7-1-2.101-1.899c-0.7-1.4-1.1-3-1.2-4.601l0.4-0.8
		C90.396,44.8,91.196,44,92.297,43.399z"/>
	<path fill="#FFFCD5" d="M81.896,41c-0.1-0.101-0.1-0.101-0.1-0.101c-1.2-0.5-2.301-0.699-3.7-0.399c-0.601,0.1-1.3,0.3-1.8,0.7
		c-0.101-0.101-0.2-0.101-0.301-0.2c-0.699,0-1.5,0.2-2.399,0.3c-0.9,0.3-2,0.4-2.9,0.5c-2.2,0-4.2,0.2-6.2,0.6
		c-1.899,0.4-3.7,0.9-5.5,1.5c-3,0.9-5.8,1.801-8.8,2.7c-1.2,0.4-1.8,1.101-1.7,2.2c0.1,0.1,0.3,0.1,0.4,0.1
		c0.6-0.199,1.2-0.3,1.9-0.5c3.6-1.5,7.2-2.699,11-3.8c2.1-0.7,4.3-1,6.5-1.3c2.899-0.1,5.5-0.7,7.899-1.8
		c0.101,0.1,0.101,0.2,0.3,0.2c0,0.1,0.2,0.1,0.301,0.1C78.696,41.899,80.297,41.7,81.896,41z"/>
	<path d="M75.196,48c-0.3,1.7,0.101,3.2,1.3,4.5c0.7,0.8,1.5,1.399,2.4,1.5c0.6,0,1.4,0.1,1.9,0.3c1.199-0.3,2.199-0.7,3.199-1.2
		c1.301-0.899,2.101-2.2,2.4-3.7c0.4-2-0.3-3.5-1.9-4.6c-1.3-0.8-2.899-1.1-4.5-1.1c-1.699,0.8-3.1,2-4.199,3.5
		C75.597,47.399,75.297,47.7,75.196,48z M79.196,46.399c0.3-0.3,0.601-0.5,0.8-0.699l3.5,0.6l1.101,1.4c0.3,1.3-0.101,2.399-1.2,3.3
		c-0.9,0.7-2,1.2-3.3,1.3c-0.9-0.2-1.8-0.6-2.5-1.1l-0.601-2.5C77.496,47.7,78.297,46.899,79.196,46.399z"/>
	<path fill="#ED1651" d="M79.996,45.7c-0.199,0.199-0.5,0.399-0.8,0.699c-0.899,0.5-1.7,1.301-2.2,2.301l0.601,2.5
		c0.7,0.5,1.6,0.899,2.5,1.1c1.3-0.1,2.399-0.6,3.3-1.3c1.1-0.9,1.5-2,1.2-3.3l-1.101-1.4L79.996,45.7z M80.496,47.2
		c0,0.1,0,0.1,0,0.199c0,0.2-0.199,0.301-0.3,0.301c-0.1,0-0.2,0-0.3,0c-0.1,0.199-0.2,0.3-0.3,0.3c0,0.1,0,0.1-0.101,0.2h-0.199
		c-0.101,0.1-0.2,0.1-0.301,0.199c-0.399,0.301-0.6,0.801-0.699,1.2c0,0.101,0,0.3-0.101,0.4c-0.2-0.101-0.3-0.101-0.5-0.101
		c-0.399-1.5,0.3-2.5,2.101-3l0,0C79.996,46.899,80.297,47.1,80.496,47.2z"/>
	<path fill="#F8ABAD" d="M80.496,47.399c0-0.1,0-0.1,0-0.199c-0.199-0.101-0.5-0.301-0.699-0.301l0,0c-1.801,0.5-2.5,1.5-2.101,3
		c0.2,0,0.3,0,0.5,0.101c0.101-0.101,0.101-0.3,0.101-0.4c0.1-0.399,0.3-0.899,0.699-1.2c0.101-0.1,0.2-0.1,0.301-0.199h0.199
		c0.101-0.101,0.101-0.101,0.101-0.2c0.1,0,0.2-0.101,0.3-0.3c0.1,0,0.2,0,0.3,0C80.297,47.7,80.496,47.6,80.496,47.399z"/>
	<path d="M71.896,50.8c0.4-0.8,0.5-1.6,0.4-2.4c-0.5-1.5-1.301-2.6-2.5-3.3c-0.9-0.399-1.801-0.7-2.601-0.7
		c-1.7-0.199-3.2,0.2-4.7,0.9c-0.5,0.4-0.9,0.9-1,1.6c-0.7,2-0.2,3.801,1.4,5.2c0.9,0.8,1.9,1.5,3.1,1.8
		c2.301,0.301,4.101-0.399,5.301-2.199C71.496,51.399,71.696,51.1,71.896,50.8z M64.396,50.8c-0.5-0.4-0.8-0.9-0.9-1.5
		c-0.2-0.9-0.2-1.6,0-2.1c1.5-0.7,3-0.801,4.6-0.5c1.2,0.3,1.899,1,2.1,2.199c0.101,0.601-0.1,1.2-0.6,1.7
		c-0.3,0.3-0.601,0.5-0.8,0.8C67.196,51.7,65.696,51.6,64.396,50.8z"/>
	<path fill="#ED1651" d="M63.497,49.3c0.1,0.6,0.4,1.1,0.9,1.5c1.3,0.8,2.8,0.9,4.4,0.6c0.199-0.3,0.5-0.5,0.8-0.8
		c0.5-0.5,0.7-1.1,0.6-1.7c-0.2-1.199-0.899-1.899-2.1-2.199c-1.601-0.301-3.101-0.2-4.6,0.5C63.296,47.7,63.296,48.399,63.497,49.3
		z M64.296,49.2c0,0,0,0-0.1,0c-0.1-0.2-0.2-0.301-0.2-0.301c0-0.199,0-0.3,0-0.3c0-0.2,0-0.3,0-0.399c0.4-0.601,0.8-1,1.5-1.101
		c0.5,0,0.801,0.101,1,0.601c0.101,0,0.101,0,0.101,0c0,0.1,0,0.1-0.101,0.199c0,0.101-0.1,0.101-0.199,0.2c0,0.101,0,0.101,0,0.101
		c-0.101,0-0.2,0-0.301,0c0,0-0.1,0-0.199,0C65.297,48.399,64.797,48.899,64.296,49.2z"/>
	<path fill="#F8ABAD" d="M64.196,49.2c0.1,0,0.1,0,0.1,0c0.5-0.301,1-0.801,1.5-1c0.1,0,0.199,0,0.199,0c0.101,0,0.2,0,0.301,0
		c0,0,0,0,0-0.101c0.1-0.1,0.199-0.1,0.199-0.2c0.101-0.1,0.101-0.1,0.101-0.199c0,0,0,0-0.101,0c-0.199-0.5-0.5-0.601-1-0.601
		c-0.699,0.101-1.1,0.5-1.5,1.101c0,0.1,0,0.199,0,0.399c0,0,0,0.101,0,0.3C63.997,48.899,64.097,49,64.196,49.2z"/>
	<path d="M94.097,42.899c-0.601,0-1.3,0.301-1.8,0.5c-1.101,0.601-1.9,1.4-2.4,2.2l-0.4,0.8c0.101,1.601,0.5,3.2,1.2,4.601
		c0.4,0.899,1.101,1.6,2.101,1.899c1.5,0.5,3,0.101,4.399-1c1.5-1.199,2.2-2.699,2-4.699c-0.2-1.101-0.399-2-0.8-2.801
		c-0.4-0.699-0.9-1.199-1.6-1.5C95.996,42.7,94.996,42.7,94.097,42.899z M92.896,45c0.3-0.2,0.5-0.2,0.7-0.4
		c1.6-0.2,2.7,0.3,3.6,1.4c0.3,1.7-0.1,3.1-1.2,4.3c-0.399,0.3-0.699,0.6-1.1,1l-1.9-0.3l-1.5-4C91.597,46,92.196,45.399,92.896,45z
		"/>
	<path fill="#ED1651" d="M93.597,44.6c-0.2,0.2-0.4,0.2-0.7,0.4c-0.7,0.399-1.3,1-1.4,2l1.5,4l1.9,0.3c0.4-0.4,0.7-0.7,1.1-1
		c1.101-1.2,1.5-2.6,1.2-4.3C96.297,44.899,95.196,44.399,93.597,44.6z M92.597,46.2c0.2-0.2,0.399-0.4,0.7-0.5c0,0,0,0,0-0.101
		c0.1,0,0.199,0,0.199,0l0,0c0.301,0,0.5,0,0.801,0.101c0,0,0,0,0.1,0.1c-0.6,0.6-1.2,1.4-1.6,2.4c-0.101,0-0.2,0.199-0.2,0.199
		c-0.101,0-0.101,0-0.2,0.101c-0.1-0.101-0.1-0.101-0.2-0.101c-0.1,0-0.2-0.199-0.2-0.199c0-0.101,0-0.2,0-0.2
		C91.896,47.3,92.097,46.7,92.597,46.2z"/>
	<path fill="#F8ABAD" d="M93.297,45.7c-0.301,0.1-0.5,0.3-0.7,0.5c-0.5,0.5-0.7,1.1-0.601,1.8c0,0,0,0.1,0,0.2
		c0,0,0.101,0.199,0.2,0.199c0.101,0,0.101,0,0.2,0.101c0.1-0.101,0.1-0.101,0.2-0.101c0,0,0.1-0.199,0.2-0.199
		c0.399-1,1-1.801,1.6-2.4c-0.1-0.1-0.1-0.1-0.1-0.1c-0.301-0.101-0.5-0.101-0.801-0.101l0,0c0,0-0.1,0-0.199,0
		C93.297,45.7,93.297,45.7,93.297,45.7z"/>
	<path fill="#009659" d="M84.797,36.3l-0.801-1.9c-0.399,0-0.8,0-1.199,0c-2.101,0.4-4.2,0.3-6.2-0.6c-1.8-0.7-2.5-2-2.3-4
		c0.1-0.5,0.199-1,0.3-1.5h-0.8c-0.301,0-0.801,0-1.301,0.1c-0.1,0-0.199,0-0.3,0h-0.1c-3.101-0.1-6.101,0.4-8.8,1.3
		c0,0.3,0,0.6-0.1,1c-0.2,0.9-0.4,1.7-0.7,2.6c-0.1,0.1-0.2,0.4-0.2,0.7c0,1.7,0,3.3,0,4.8C69.597,36.9,77.196,36.1,84.797,36.3z
		 M68.496,30.4c-0.199,0.2-0.399,0.2-0.6,0.1c-1.1,0.5-1.9,1.1-2.6,1.8c-0.101,0.1-0.101,0.3-0.2,0.4c-0.101,0.1-0.101,0.2-0.2,0.3
		c0.1,1.3-0.4,2.2-1.3,2.7c0,0.1-0.1,0.1-0.3-0.1c-0.3-0.5-0.4-1.2-0.2-1.8c0.2-0.5,0.2-1,0.4-1.6c0.8-1.4,2-2.4,3.6-2.9
		c0.2,0,0.399,0,0.5,0c0.3,0,0.5,0,0.8,0.1c0.1,0,0.1,0.2,0.1,0.2c0.101,0.2,0.101,0.3,0,0.5C68.496,30.2,68.496,30.3,68.496,30.4z
		 M63.597,36.4c0.1,0,0.2,0,0.2-0.1c0.1,0.1,0.2,0.1,0.2,0.1c0.1,0.1,0.1,0.1,0.2,0.2c0.1,0.1,0.1,0.2,0.1,0.2c0,0.1,0,0.3,0,0.4
		c0,0,0,0,0,0.1c-0.1,0-0.3,0-0.3,0.1c-0.3,0.1-0.5,0-0.7-0.1c0-0.2,0-0.4,0-0.5c0,0,0-0.2,0.2-0.3
		C63.497,36.4,63.597,36.4,63.597,36.4z"/>
	<path fill="#D7DF23" d="M67.896,30.5c0.2,0.1,0.4,0.1,0.6-0.1c0-0.1,0-0.2,0-0.3c0.101-0.2,0.101-0.3,0-0.5c0,0,0-0.2-0.1-0.2
		c-0.3-0.1-0.5-0.1-0.8-0.1c-0.101,0-0.3,0-0.5,0c-1.601,0.5-2.8,1.5-3.6,2.9c-0.2,0.6-0.2,1.1-0.4,1.6c-0.2,0.6-0.1,1.3,0.2,1.8
		c0.2,0.2,0.3,0.2,0.3,0.1c0.899-0.5,1.399-1.4,1.3-2.7c0.1-0.1,0.1-0.2,0.2-0.3c0.1-0.1,0.1-0.3,0.2-0.4
		C65.996,31.6,66.797,31,67.896,30.5z"/>
	<path fill="#D7DF23" d="M63.796,36.3c0,0.1-0.1,0.1-0.2,0.1c0,0-0.1,0-0.1,0.1c-0.2,0.1-0.2,0.3-0.2,0.3c0,0.1,0,0.3,0,0.5
		c0.2,0.1,0.4,0.2,0.7,0.1c0-0.1,0.2-0.1,0.3-0.1c0-0.1,0-0.1,0-0.1c0-0.1,0-0.3,0-0.4c0,0,0-0.1-0.1-0.2c-0.1-0.1-0.1-0.1-0.2-0.2
		C63.997,36.4,63.896,36.4,63.796,36.3z"/>
	<path fill="#F58220" d="M48.796,66.8c0.1,0.1,0.2,0.1,0.3,0c0.1-0.1,0.9,0.1,2.7,0.4c2.6-0.801,5-2,7.5-3.301v-0.6
		c-1.3-0.6-2.8-1-4.1-1.4c-0.9-0.199-1.6-0.6-2.2-1.199c-3.2-1.2-5.6-3.301-7.1-6.301c-0.5-1.199-0.7-2.3-0.9-3.5
		c-0.1,0-0.1-0.1-0.1-0.199c-0.1,0-0.1-0.101-0.1-0.2c0-0.101-0.1-0.101-0.2-0.2c0-0.1,0-0.1,0-0.2c0-0.1,0-0.2,0-0.2
		c-0.1-0.1-0.1-0.199-0.1-0.199s-0.1-0.101-0.2-0.2c0-0.601-0.1-1.101-0.3-1.601c-0.2,0.101-0.4,0.301-0.6,0.4
		c-1.8,0.9-3.6,1.7-5.6,2.5c-0.8,0.3-1.6,0.4-2.5,0.6c-1.1,0-2.3,0-3.3,0c-0.6-0.1-1.2-0.199-1.7-0.3c-1.3-1.399-2.2-2.899-3-4.5
		c-1.2-2.3-2.3-4.5-3.1-6.7c-3.4-0.3-6.8,0.101-10.1,1.4v2.3c0.5-0.1,1.1-0.3,1.6-0.3c3.3-0.2,5.8,0.8,7.8,3.1
		c0.2,0.2,0.3,0.5,0.5,0.801c1.3,3.399,1.5,6.8,0.5,10.399c-0.2,0.601-0.6,1.2-1.1,1.7c-2.4,2.4-5.1,3.3-8.4,2.7v2.399
		c7-0.699,13.9-0.699,20.8,0.101C40.196,65.1,44.497,65.899,48.796,66.8z M29.196,51c0.1,0.1,0.1,0.1,0.2,0.1
		c0.1,0.101,0.1,0.4,0.1,0.601c0,0,0,0-0.1,0c-0.1,0.199-0.2,0.199-0.4,0c-0.1,0-0.2-0.101-0.2-0.301c0-0.1,0-0.199,0-0.199
		s0.2-0.101,0.2-0.2v-0.101C29.196,50.899,29.196,50.899,29.196,51z M30.196,52.7c0.1-0.101,0.1-0.301,0.2-0.301
		c0.6-0.1,1.2-0.1,1.9,0c0.7,0.301,1.7,0.301,2.5,0.301c1.7-0.301,3.3-0.801,4.8-1.5c1.4-0.801,2.9-1.301,4.4-1.5
		c0.2,0.3,0.2,0.6-0.3,0.699c-0.1,0-0.2,0-0.3,0.101c0,0.1,0,0.1-0.1,0.1c0,0.101,0,0.101,0,0.2c-3.1,2.4-6.7,3.6-10.5,3.6
		c-1.2,0-2-0.5-2.6-1.399C30.097,52.899,30.196,52.7,30.196,52.7z M22.396,41.2c0.1,0,0.1,0,0.1,0.1l0,0c0,0.1,0,0.3,0,0.3
		c-2,0.2-3.9,0.4-5.8,1c-0.4,0-0.9,0-1.2,0c-0.2-0.1-0.3-0.2-0.5-0.3c0,0,0,0-0.1-0.1c-0.1-0.2,0-0.301,0.1-0.4
		c1.5-0.7,3-1.1,4.6-1.2C20.597,40.5,21.497,40.7,22.396,41.2z"/>
	<path fill="#FFCB05" d="M29.396,51.1c-0.1,0-0.1,0-0.2-0.1c0-0.101,0-0.101-0.2-0.101V51c0,0.1-0.2,0.2-0.2,0.2s0,0.1,0,0.199
		c0,0.2,0.1,0.301,0.2,0.301c0.2,0.199,0.3,0.199,0.4,0c0.1,0,0.1,0,0.1,0C29.497,51.5,29.497,51.2,29.396,51.1z"/>
	<path fill="#FFCB05" d="M30.396,52.399c-0.1,0-0.1,0.2-0.2,0.301c0,0-0.1,0.199,0,0.3c0.6,0.899,1.4,1.399,2.6,1.399
		c3.8,0,7.4-1.199,10.5-3.6c0-0.1,0-0.1,0-0.2c0.1,0,0.1,0,0.1-0.1c0.1-0.101,0.2-0.101,0.3-0.101c0.5-0.1,0.5-0.399,0.3-0.699
		c-1.5,0.199-3,0.699-4.4,1.5c-1.5,0.699-3.1,1.199-4.8,1.5c-0.8,0-1.8,0-2.5-0.301C31.597,52.3,30.997,52.3,30.396,52.399z"/>
	<path fill="#FFCB05" d="M22.497,41.3c0-0.1,0-0.1-0.1-0.1c-0.9-0.5-1.8-0.7-2.8-0.601c-1.6,0.101-3.1,0.5-4.6,1.2
		c-0.1,0.1-0.2,0.2-0.1,0.4c0.1,0.1,0.1,0.1,0.1,0.1c0.2,0.1,0.3,0.2,0.5,0.3c0.3,0,0.8,0,1.2,0c1.9-0.6,3.8-0.8,5.8-1
		C22.497,41.6,22.497,41.399,22.497,41.3L22.497,41.3z"/>
	<path fill="#FAA61A" d="M59.597,63.399c-0.1,0-0.3,0-0.3-0.1v0.6c0,0,0.1-0.199,0.2-0.199c0,0,0-0.101,0.1-0.2V63.399z"/>
	<path fill="#FAA61A" d="M59.597,65.5c-1.1,0.399-2.1,0.8-3.1,1.2c-0.5,0.399-1.2,0.899-1.9,1.199c5.9,1,11.899,1.5,17.8,1.601
		c4.9,0.1,10.6,0.1,16.8,0c6.101-0.101,11.8-0.601,17.101-1.601C109.496,67,112.496,66,115.196,64.7c1.9-1,3.601-2.2,5.101-3.601
		c-1.101,0-2.101,0-3.2,0.101c-9.3,0.199-18.8,0.399-28.2,0.5c-2.4,0-4.9,0-7.4,0.199c-0.1,0-0.3,0-0.5,0c-4,0-8,0.4-12,1
		C65.797,63.399,62.597,64.2,59.597,65.5z M60.597,66.3c1.6-0.7,3.2-1.2,4.899-1.6c2.801-0.7,5.7-1.101,8.5-1.5
		c2-0.301,3.9,0,5.601,0.699h0.1c-2.7,0.801-5.399,1.2-8.399,1.301c-0.5,0-1,0-1.5,0c-3.301,0.5-6.5,1.3-9.4,2.699
		c-0.1,0-0.1,0-0.2,0h-0.2C59.497,67.2,59.796,66.7,60.597,66.3z M82.496,63.399c0.101,0,0.101,0,0.2,0.101
		c0.101,0,0.101,0.1,0.101,0.1c0,0.101,0,0.101,0,0.101s0,0,0,0.199c0,0,0,0.101,0,0.2c-0.7,0.3-1.301,0.3-2-0.1
		c0-0.101,0-0.101,0-0.101c0-0.199,0-0.199,0-0.199s0,0,0-0.101c0.1,0,0.1-0.1,0.199-0.2c0,0,0.101,0,0.2,0
		c0-0.1,0.101-0.1,0.101-0.1h0.1c0-0.1,0-0.1,0-0.3c0.1-0.101,0.1-0.101,0.1-0.101c0.101,0.2,0.101,0.301,0.101,0.4
		c0-0.1,0-0.1,0.1,0c0.101-0.1,0.101-0.1,0.2-0.1s0.1,0,0.1-0.101c0.101,0.101,0.301,0.101,0.301,0.101s0.1,0,0.199,0.1
		C82.496,63.399,82.496,63.399,82.496,63.399z"/>
	<path fill="#FFCB05" d="M65.496,64.7c-1.7,0.399-3.3,0.899-4.899,1.6c-0.8,0.4-1.1,0.9-0.6,1.6h0.2c0.1,0,0.1,0,0.2,0
		c2.9-1.399,6.1-2.199,9.4-2.699c0.5,0,1,0,1.5,0c3-0.101,5.699-0.5,8.399-1.301h-0.1c-1.7-0.699-3.601-1-5.601-0.699
		C71.196,63.6,68.297,64,65.496,64.7z"/>
	<path fill="#FFCB05" d="M82.696,63.5c-0.1-0.101-0.1-0.101-0.2-0.101c0,0,0,0,0-0.1c-0.1-0.1-0.199-0.1-0.199-0.1
		s-0.2,0-0.301-0.101c0,0.101,0,0.101-0.1,0.101s-0.1,0-0.2,0.1c-0.1-0.1-0.1-0.1-0.1,0c0-0.1,0-0.2-0.101-0.4c0,0,0,0-0.1,0.101
		c0,0.2,0,0.2,0,0.3h-0.1c0,0-0.101,0-0.101,0.1c-0.1,0-0.2,0-0.2,0c-0.1,0.101-0.1,0.2-0.199,0.2c0,0.101,0,0.101,0,0.101
		s0,0,0,0.199c0,0,0,0,0,0.101c0.699,0.399,1.3,0.399,2,0.1c0-0.1,0-0.2,0-0.2c0-0.199,0-0.199,0-0.199s0,0,0-0.101
		C82.797,63.6,82.797,63.5,82.696,63.5z"/>
	<path fill="#2484C6" d="M122.597,47.2c0.2-0.2,0.2-0.4,0.3-0.7c-0.2-0.2-0.4-0.5-0.6-0.601c-0.301-0.199-0.5-0.399-0.801-0.6
		c-0.899-0.6-1.699-1.2-2.5-1.7c-3.5-2.2-7.199-3.399-11.399-3.6c0,0.1,0,0.2,0,0.3c-0.101,0-0.101,0-0.2,0.1
		c-0.7,0.301-1,0.801-0.9,1.5c0.101,0,0.101,0,0.2,0c-0.1,0.2-0.2,0.4-0.2,0.7c-0.1,0.4-0.199,0.9-0.3,1.3c0,0.301,0,0.601,0,0.9
		c0,0,0,0,0,0.1c0.101,1.301,0.4,2.5,1.101,3.601c4.699-0.101,9.3-0.3,13.899-0.5C121.996,48,122.396,47.7,122.597,47.2z
		 M120.297,46.899c0-0.1,0-0.1,0-0.199c0.1,0,0.1-0.101,0.1-0.101c0-0.1,0-0.1,0-0.2c0.2-0.199,0.6-0.399,0.8-0.5
		c0.2,0.101,0.3,0.101,0.4,0.101c0.1,0.1,0.2,0.1,0.2,0.2c0,0.1,0,0.199,0,0.199c0,0.101,0,0.2,0,0.301
		C121.297,47,120.896,47.1,120.297,46.899z M109.297,41.3c0.1,0,0.1,0,0.1,0.1c-0.1,0.5-0.4,0.9-0.8,1.4l-0.101,0.1
		c-0.1,1-0.1,1.9,0,2.9c0,0.2,0,0.5,0,0.7c0.101,0.1,0.101,0.1,0.2,0.1c0,0.101,0,0.101,0.101,0.2c0,0.1,0,0.1,0,0.3
		c0,0.101,0,0.101-0.101,0.3c-0.8,0.301-1.3-0.1-1.6-1.199c-0.5-2,0-3.801,1.3-5.2c0.1,0,0.1,0,0.1-0.101c0.101,0,0.2,0,0.301,0
		C108.996,40.899,109.196,41.1,109.297,41.3z"/>
	<path fill="#95B6DF" d="M120.297,46.7c0,0.1,0,0.1,0,0.199c0.6,0.2,1,0.101,1.5-0.199c0-0.101,0-0.2,0-0.301c0,0,0-0.1,0-0.199
		c0-0.101-0.101-0.101-0.2-0.2c-0.101,0-0.2,0-0.4-0.101c-0.2,0.101-0.6,0.301-0.8,0.5c0,0.101,0,0.101,0,0.2
		C120.396,46.6,120.396,46.7,120.297,46.7z"/>
	<path fill="#95B6DF" d="M109.396,41.399c0-0.1,0-0.1-0.1-0.1c-0.101-0.2-0.301-0.4-0.5-0.4c-0.101,0-0.2,0-0.301,0
		c0,0.101,0,0.101-0.1,0.101c-1.3,1.399-1.8,3.2-1.3,5.2c0.3,1.1,0.8,1.5,1.6,1.199c0.101-0.199,0.101-0.199,0.101-0.3
		c0-0.2,0-0.2,0-0.3c-0.101-0.1-0.101-0.1-0.101-0.2c-0.1,0-0.1,0-0.2-0.1c0-0.2,0-0.5,0-0.7c-0.1-1-0.1-1.9,0-2.9l0.101-0.1
		C108.996,42.3,109.297,41.899,109.396,41.399z"/>
	<path fill="#FFCB05" d="M1.896,55.2l-0.1,0.5l1.7,1.8l0.3-2.601l-0.3-1.199L1.896,55.2z"/>
	<path fill="#0085B8" d="M5.296,43.399c0,0.101,0.1,0.101,0.2,0.2c0,0.5-0.2,1-0.7,1.5c-0.1,0.101-0.2,0.2-0.2,0.2
		c-0.3,0-0.4-0.2-0.4-0.4l0.6,4.5c0.7-0.8,1.3-1.8,1.7-3c0.1-0.699,0.1-1.399,0.1-2c0-1.1-0.6-1.6-1.6-1.5l-1,0.801V44.1
		c0-0.1,0-0.1,0.1-0.2c0.1,0,0.1,0,0.1-0.1s0.1-0.2,0.1-0.2c0.2-0.1,0.3-0.1,0.5-0.2c0-0.1,0.1-0.1,0.2-0.1
		C4.997,43.3,5.196,43.3,5.296,43.399z"/>
	<path fill="#0095DA" d="M5.497,43.6c-0.1-0.1-0.2-0.1-0.2-0.2c-0.1-0.1-0.3-0.1-0.3-0.1c-0.1,0-0.2,0-0.2,0.1
		c-0.2,0.101-0.3,0.101-0.5,0.2c0,0-0.1,0.101-0.1,0.2s0,0.1-0.1,0.1c-0.1,0.101-0.1,0.101-0.1,0.2c0,0.101,0,0.2,0,0.3
		c0,0.2,0.1,0.4,0.2,0.5c0,0.2,0.1,0.4,0.4,0.4c0,0,0.1-0.1,0.2-0.2C5.296,44.6,5.497,44.1,5.497,43.6z"/>
	<path fill="#FFF200" d="M22.296,46.899c-0.1,0-0.1-0.1-0.2-0.199c-0.1-0.101-0.3-0.2-0.3-0.301l0,0c-2.5-1.199-5.1-1.8-7.8-1.699
		c-0.2,0.899-0.2,1.699,0,2.699c0.3,1.2,0.5,2.4,0.6,3.801c0.2,1,0.3,2.199,0.4,3.3v6.2c3.3,0,6-1.101,8-3.5c0,0,0-0.2,0-0.301
		c0,0,0-0.1,0-0.199c0.1,0,0.1-0.101,0.2-0.2c0.1-0.101,0.1-0.101,0.1-0.101c0.3-1.5,0.3-3,0.2-4.5c-0.2-0.8-0.3-1.699-0.5-2.5
		C22.796,48.5,22.497,47.7,22.296,46.899z M19.896,46.7c0.1,0,0.1,0,0.1,0.1s0,0.1,0.1,0.3c0.1,0.101,0.1,0.101,0.1,0.101
		s0.1,0.1,0.1,0.199c-1.7,0-3.3-0.199-5.1-0.8c-0.2,0-0.4-0.2-0.6-0.3c0-0.2,0-0.4,0-0.6c0.1-0.101,0.3-0.301,0.4-0.301
		C16.796,45.399,18.497,45.8,19.896,46.7z M21.497,48.2c0.1,0,0.2,0.1,0.3,0.199c0,0,0,0,0.1,0c0.1,0.5-0.1,1-0.6,1.4
		c0,0.1-0.1,0.1-0.2,0.1c-0.1,0-0.1,0-0.3-0.1C20.396,49.1,20.597,48.5,21.497,48.2L21.497,48.2z"/>
	<path fill="#FFFCD5" d="M19.997,46.8c0-0.1,0-0.1-0.1-0.1c-1.4-0.9-3.1-1.301-4.9-1.301c-0.1,0-0.3,0.2-0.4,0.301
		c0,0.199,0,0.399,0,0.6c0.2,0.1,0.4,0.3,0.6,0.3c1.8,0.601,3.4,0.8,5.1,0.8c0-0.1-0.1-0.199-0.1-0.199s0,0-0.1-0.101
		C19.997,46.899,19.997,46.899,19.997,46.8z"/>
	<path fill="#FFFCD5" d="M21.796,48.399c-0.1-0.1-0.2-0.199-0.3-0.199l0,0c-0.9,0.3-1.1,0.899-0.7,1.6c0.2,0.1,0.2,0.1,0.3,0.1
		c0.1,0,0.2,0,0.2-0.1c0.5-0.4,0.7-0.9,0.6-1.4C21.796,48.399,21.796,48.399,21.796,48.399z"/>
	<path fill="#0085B8" d="M5.696,58.399c-0.7,1-1.2,2-1.7,3.2c0.5-0.8,1-1.399,1.8-2c0.1,0,0.2,0.101,0.3,0.101
		c0.1,0,0.1,0,0.1,0.199c-0.4,1-0.9,2-1.6,3c-0.4,0.801-0.7,1.5-0.8,2.4c0,0.4-0.1,0.6-0.4,0.9c0,0,0,0,0,0.1s0,0.1-0.1,0.1
		c-0.1,0.301-0.3,0.301-0.5,0.101c0-0.101,0-0.2,0-0.3c0,0,0-0.101,0-0.2c0-0.601,0-1.101,0.1-1.7c-0.3,0.6-0.4,1.3-0.6,2.1
		L3.997,69h1.7l1.2-2.2c-0.2-2.8-0.4-5.6-0.6-8.4C6.296,58,6.097,57.899,5.696,58.399z"/>
	<path fill="#0095DA" d="M6.196,59.899c0-0.199,0-0.199-0.1-0.199c-0.1,0-0.2-0.101-0.3-0.101c-0.8,0.601-1.3,1.2-1.8,2
		s-0.8,1.7-1.1,2.7c-0.1,0.6-0.1,1.1-0.1,1.7c0,0.1,0,0.2,0,0.2c0,0.1,0,0.199,0,0.3c0.2,0.2,0.4,0.2,0.5-0.101c0.1,0,0.1,0,0.1-0.1
		s0-0.1,0-0.1c0.3-0.301,0.4-0.5,0.4-0.9c0.1-0.9,0.4-1.6,0.8-2.4C5.296,61.899,5.796,60.899,6.196,59.899z"/>
	<path d="M1.196,39.3c0.1,0,0.1,0.1,0.2,0.2c0.1,0,0.2,0,0.4,0c0-0.1,0.2-0.2,0.3-0.2c0.1-0.3,0.2-0.5,0.4-0.5
		c1.6-1.1,3.3-1.2,5.1-0.6c-0.1,0-0.1-0.2-0.1-0.2c-0.9-1.2-2-1.7-3.7-1.4c-0.8,0.2-1.5,0.7-2,1.4c-0.3,0.2-0.5,0.4-0.6,0.7
		c0,0.1,0,0.1,0,0.2c0,0,0,0.1,0,0.2C1.097,39.2,1.097,39.2,1.196,39.3z"/>
	<path d="M5.997,34c0,0,0,0-0.1,0c-0.4-0.2-0.7-0.3-1.1-0.5c-0.8,0.1-1.5,0.4-2.1,1.1c-0.1,0.2,0.1,0.3,0.3,0.6
		c0.8,0.1,1.5-0.2,2.3-0.9C5.497,34.2,5.796,34.1,5.997,34z"/>
	<path d="M9.896,72.1c-0.1-0.1-0.1-0.1-0.1-0.1c-0.1-0.101-0.2-0.101-0.3-0.2c-0.1,0.1-0.2,0.1-0.2,0.1c-0.1,0-0.1,0-0.1,0
		c-0.3,0.301-0.6,0.601-0.9,0.9c-0.9,0.8-2,0.8-3,0.2c-1.1-0.601-2-0.601-2.8,0c0,0,0,0.1,0.1,0.2c0,0,0.1,0.199,0.2,0.199
		c0.5,0.101,1,0.301,1.4,0.5C6.796,75,8.696,74.399,9.896,72.1z"/>
	<path d="M4.097,76.3c-0.2,0.1-0.3,0.4-0.3,0.7c0.7,1.1,1.5,1.399,2.5,0.7c0,0,0,0-0.1-0.101c-0.7-0.399-1.3-0.8-1.9-1.399
		C4.296,76.1,4.196,76.2,4.097,76.3z"/>
</g>
</svg>
