<?xml version="1.0" encoding="utf-8"?>
<!-- Generator: Adobe Illustrator 13.0.0, SVG Export Plug-In . SVG Version: 6.00 Build 14948)  -->
<svg version="1.2" baseProfile="tiny" id="Layer_1" xmlns="http://www.w3.org/2000/svg" xmlns:xlink="http://www.w3.org/1999/xlink"
	 x="0px" y="0px" width="132.049px" height="83.961px" viewBox="0 0 132.049 83.961" xml:space="preserve">
<g>
	<path d="M113.338,31.8l-1-4.2c-14-2.2-28.101-3.2-42.5-2.9c0.3-0.3,0.6-0.6,1-1c1.2-1.1,2.399-2.1,3.5-3.1c1.7-1.3,3.5-2.7,5.2-4
		c0.6-0.5,0.899-1.2,1-1.9c-3.101-1.8-5.2-4.3-6.2-7.3c-1-2.7-2.5-5.1-4.7-7.4l-1.1,0.6c-0.101,2.3-0.601,4.6-1.801,6.8
		c-1.399,2.3-3.5,4-6.5,4.7c-0.5,0.3-1,0.4-1.5,0.5l-0.4,1l1.7,1.3l4.1,8.8l0.3,1c-9.9,0-19.9,0.2-29.8,0.4c-1.1,0-2.2,0.2-3.3,0.5
		c-3.1,0.8-6.3,1.5-9.5,2.1c-1.1,0-2.2,0.2-3.2,0.6l-0.9,1.2l0.1,3.8l-17.3,21.5l-0.3,0.7l0.4,1.1c-0.8,5-0.9,10.101,0,15.301
		c0.3,1.5,0.5,3,0.7,4.5l14.5,1.699c0.1,0.7,0.4,1.5,0.8,2.2c1.2,1.9,2.9,3,5.2,3.101c3.1,0.199,5.3-1,7-3.5
		c0.1-0.2,0.1-0.301,0.2-0.301c0,0,0,0.101,0.1,0.101c1,2,2.5,3.3,4.6,3.899c3.1,0.9,5.7,0.101,7.9-2.199c0.3-0.4,0.7-0.801,1-1.2
		c0.3-0.5,0.5-0.8,0.6-1.3l0.4,0.199l22.8-0.399l0,0c0,0.1,0,0.1,0,0.2c0.101-0.101,0.2-0.101,0.3-0.2c0.2,0,0.301-0.101,0.4-0.101
		c0.2,0,0.4,0,0.5,0.101l20.8-0.4V78.4c0,0,0,0.1,0,0.199c0.101,0,0.2,0.101,0.3,0.101c0.2,0.7,0.601,1.3,1.2,1.7
		c0.3,0.3,0.601,0.699,1,0.899c0,0.101,0,0.101,0,0.101c0.3,0.199,0.5,0.3,0.8,0.5c0.101,0.1,0.301,0.199,0.5,0.199
		c1.301,0.5,2.7,0.601,4.101,0.4c0-0.1,0.1-0.1,0.2-0.1c1.399-0.101,2.699-0.601,3.8-1.5c1.2-1,2-2,2.6-3.2c0,0,0,0.1,0,0.2
		c1.5,2.8,4.101,4.199,7.601,3.899c3.1-0.2,5.3-1.7,6.6-4.2c0.3,0,0.8,0,1.2-0.199c1-0.2,1.899-0.301,2.899-0.301
		c0.2,0,0.301-0.1,0.4-0.199c2.8-0.2,5.6-0.301,8.4-0.301c0.199-0.199,0.3-0.199,0.3-0.3c1.2-1.2,1.8-2.899,1.7-5
		c-0.101-4.899-0.2-9.899-0.2-14.899l-2.5-3.2v-0.4c0-0.2-0.101-0.2-0.2-0.399c-0.2-0.101-0.3-0.4-0.4-0.7
		c-0.8-0.7-1.5-1.601-2.1-2.601c-0.2-0.399-0.4-0.699-0.7-1c-0.6-0.699-1.1-1.399-1.6-2.1c-0.3-0.3-0.5-0.5-0.9-0.7L113.338,31.8z
		 M111.838,33.4h0.1l0.5,20.5l0,0h3.7h3.7l7.2-0.2l2.3,4V67.6V68.4v1.3v3.2l-0.4,0.899c-2.1,0.101-4.2,0.3-6.3,0.5
		c-1.7,0-3.3,0.101-4.8,0.101l-2.5-3.9l-1.601-2.6l-20.3,0.5l-0.6,0.899l-0.8,0.9l-4,5.1l-20.7,0.7c0-0.1,0-0.1,0-0.1
		c-0.4,0-0.7,0-1,0.1c-2.6,0.4-5.2,0.6-7.9,0.6c-3-0.1-6,0-8.9,0.101c-0.2,0-0.3,0-0.4,0.1c-0.5,0.101-0.9-0.1-1.2-0.399
		c0,0.1,0,0.199,0,0.199l-3.9,0.2c-0.9-2.7-2.6-4.6-4.9-5.7c-0.1-0.1-0.2-0.199-0.3-0.199l-1.2-0.5c-0.1,0-0.2,0-0.3,0
		c-0.2-0.101-0.5-0.2-0.8-0.301h-0.4c-0.1-0.1-0.2-0.1-0.3-0.1c-3.2-0.6-6.5-0.9-9.7-0.8c-0.5,0.2-1,0.3-1.4,0.5
		c-1.4-0.3-2.6-0.3-3.9-0.3l-1.1,1.5l-3.7,5.1l-12.8-1.4c-0.1-0.699-0.2-1.3-0.3-2c0-0.199-0.1-0.5-0.2-0.699
		c-0.1-0.9-0.2-1.801-0.3-2.7c-0.1-0.601-0.2-1.3-0.2-1.8c-0.2-2.7-0.3-5.4-0.1-8c0-0.101,0-0.101,0-0.2c0-0.101,0-0.101,0-0.101
		c0-0.199,0.1-0.399,0.2-0.5l0,0c0-0.199,0-0.199,0-0.3c0-0.5,0.1-0.899,0.3-1.3c0-0.6,0-1.1,0-1.7c0,0,0,0,0-0.1
		c0-0.101,0-0.101,0.1-0.101c0-0.1,0-0.199,0.1-0.199l0.5-0.601c0.3,0,0.6,0.101,0.9,0.101h0.2c1.9,0.3,3.8,0.699,5.8,1
		c1.9,0.199,3.8,0.199,5.7,0c0.1-0.101,0.3-0.101,0.4-0.101l1.5-0.2c0.1-0.1,0.1-0.1,0.3-0.1c0.8-0.1,1.8-0.2,2.7-0.3
		c0.2,0,0.5,0,0.7,0.1c0.3-0.2,0.5-0.399,0.6-0.7l0,0h0.1c0.1-0.199,0.1-0.399,0.1-0.699c0,0,0-0.101,0-0.301
		c-0.6-6.399-0.9-12.7-0.9-19l-1.9-1.4l0.1-2c2.9-1.5,6.2-2.5,9.7-2.8c0.6-0.2,1.3-0.2,2-0.2c1.3-0.1,2.5-0.1,3.7-0.1
		c5.7-0.2,11.4-0.2,17.1-0.2c2.5-0.1,5-0.1,7.4-0.1c1.8,0,3.5,0.1,5.3,0.3l1.1,1l1.7-1.6l42.7,1.8l0.899,2.3v0.2
		C111.838,31.7,111.938,32.4,111.838,33.4z M113.338,34.8l8.6,11.3c0.4,0.5,0.8,1,1.101,1.4c0,0.1,0,0.1,0,0.1l3,4l-12-0.199
		l-0.601-1.301L113.338,34.8z M19.938,35.7c0,0.1,0,0.2,0,0.4v16.1c-5,0.899-10,0.899-15,0l15-17.1
		C19.438,35.6,19.438,35.9,19.938,35.7z M68.138,9c0.8-1.1,1.6-2.3,2.2-3.6l6.1,10l-9.399,8.3l-0.7,0.6c0-0.1,0-0.2,0-0.2
		c-0.101-0.2-0.101-0.3-0.101-0.4c-0.399-2.7-1.3-5.1-2.8-7.4c-0.4-0.7-0.8-1.4-1.3-2c1.6-0.9,3-1.9,4-3.2
		C66.838,10.4,67.438,9.7,68.138,9z M94.938,71.1c0-0.199,0.101-0.199,0.3-0.199c0.101,0,0.2,0,0.4,0.1h0.1c1.7-0.1,3.5-0.1,5.2-0.1
		c0.8,2.199,0.7,4.5-0.1,6.6c-0.101,0.1-0.3,0.4-0.4,0.5c-0.2,0.3-0.5,0.5-0.7,0.7c-0.5,0.6-1.199,0.899-1.899,1.2
		c-1.9,0.399-3.8,0.3-5.601-0.301c-0.3,0-0.5-0.199-0.699-0.199c-0.2-0.301-0.4-0.5-0.601-0.7c0-0.101,0-0.101,0-0.101
		c-0.399-0.5-0.6-1-0.899-1.6c0-0.3,0.199-0.5,0.3-0.7c0.2-0.399,0.5-0.7,0.7-0.899c0.899-1,1.699-2,2.399-3.101
		C93.838,71.7,94.338,71.3,94.938,71.1z M26.638,71.6L26.638,71.6c0.7,1.2,1.3,2.5,1.6,3.801c-0.1,0.199-0.3,0.5-0.3,0.699
		c0,0.601,0,1.2-0.1,1.801c-1.2,2.5-3.2,3.699-6,3.399c-2.4-0.2-3.9-1.399-4.4-3.399l3.5-6l4.1-0.5L26.638,71.6z M30.338,76.5
		c0-1.6,0.3-3.1,1.2-4.4l6.6,0.7l3.5,4.5c-0.3,0.2-0.4,0.5-0.4,1c-0.1,0.101-0.3,0.3-0.4,0.601c-0.5,0.6-1,1.199-1.7,1.699
		c-1.9,1.4-3.9,1.5-6,0.4C31.338,80,30.438,78.5,30.338,76.5z M106.438,70.9c0.101,0,0.101,0,0.2,0c1.2,0,2.4-0.101,3.6-0.2
		c0.101,0,0.101,0,0.101,0c0.6-0.101,1.3-0.101,2-0.101c0,0,0,0,0-0.1c0.1,0.1,0.2,0.1,0.3,0.1s0.1,0,0.2,0l2.7,4.101
		c-0.101,0.5-0.101,0.899-0.101,1.399l0,0c-0.1,0.5-0.2,0.801-0.5,1.2c-1.5,2.101-3.6,2.8-6.2,2.3c-0.8-0.1-1.5-0.399-2.1-0.899
		c-2-1.5-2.8-3.601-2.6-6c0-0.4,0.199-0.8,0.3-1.101c0.2-0.199,0.3-0.5,0.399-0.699C105.338,70.9,105.938,70.9,106.438,70.9z"/>
	<path fill="#FFF9AE" d="M111.938,33.4h-0.1c0.1-1,0-1.7-0.601-2.1v-0.2l-0.899-2.3l-42.7-1.8l-1.7,1.6l-1.1-1
		c-1.8-0.2-3.5-0.3-5.3-0.3c-2.4,0-4.9,0-7.4,0.1c-5.7,0-11.4,0-17.1,0.2c-1.2,0-2.4,0-3.7,0.1c-0.7,0-1.4,0-2,0.2v0.2
		c2-0.4,3.8-0.5,5.7-0.4c5.8,0.5,11.5,0.4,17.1-0.3c0.6,0,1,0.3,1.3,0.7c0.1,0.1,0.1,0.2,0.1,0.2c-0.4,0.8-1.1,1.3-1.9,1.6
		c-1.3,0.2-2.5,0.4-3.8,0.4c-6,0-12.2,0-18.2,0.3c-0.8,0-1.7,0.1-2.4,0.3c-2.1,0.8-4.1,1.1-6.1,1c-0.2,0-0.2,0-0.4-0.2
		c0-0.1,0-0.2-0.1-0.3c0,0,0-0.1,0-0.3c0.1,0,0.1-0.2,0.1-0.2c2.7-1.4,5.6-2.3,8.6-2.8v-0.2c-3.5,0.3-6.8,1.3-9.7,2.8l-0.1,2
		l1.9,1.4c0,6.3,0.3,12.6,0.9,19c0,0.2,0,0.301,0,0.301c1.5-0.101,3-0.301,4.6-0.4l0.7-14.3l5.3-1.9c3.7-0.2,7.1,0.4,10.4,1.8
		l0.1,1.7c1.2,4.2,1.2,8.5,0.2,12.8c0,0,0.1,0,0.2,0.101c1.2,0.1,2.5,0.2,3.8,0.399l0.2-14.2l0.5-0.5c0.3-0.1,0.5-0.2,0.6-0.3
		c5.4-2.3,10.4-1.7,15.4,1.9l0.3,4.1l1,5.5c0.1,0.801,0.2,1.5,0.2,2.301c0,0.199,0,0.5,0.1,0.699c0.9-0.199,1.9-0.199,3-0.1
		c0.4,0.1,0.7,0.1,1.2,0.1c0-0.399-0.1-0.699-0.1-1c-0.101-2.199-0.101-4.199-0.2-6.399c-0.4-1.8-0.5-3.4-0.5-5.2c0-0.1,0-0.3,0-0.4
		c0-0.5,0.2-0.8,0.5-1c-0.2,0-0.2-0.2-0.3-0.4l1.6-0.7c4.6-0.7,8.9-0.1,13.1,1.6l1.101,10l0.6,0.801v1.5c1.9,0.1,3.8,0.3,5.7,0.5
		v0.5l-0.5-13.8l-1.8-1.4c0.1-0.5,0.399-0.8,1-0.8c1,0,2,0,3,0c3.6-0.2,6.7,0.7,9.6,2.5v0.9l0.5,0.8l2.101,9.8l-0.2,1.699
		c2.5,0,4.8,0.301,7.1,0.801v0.5L111.938,33.4z M54.638,29.1c0-0.2,0-0.4,0.2-0.5c0.1-0.1,0.1-0.1,0.1-0.2c0.2,0,0.3,0,0.4,0
		c0.3-0.1,0.6-0.1,0.8-0.2c0.8-0.2,1.2,0.1,1.5,0.7c0,0,0,0.1,0,0.2c-0.7,1.2-1.7,1.3-3,0.3C54.638,29.3,54.638,29.2,54.638,29.1z"
		/>
	<path fill="#FFFCD5" d="M54.838,28.6c-0.2,0.1-0.2,0.3-0.2,0.5c0,0.1,0,0.2,0,0.3c1.3,1,2.3,0.9,3-0.3c0-0.1,0-0.2,0-0.2
		c-0.3-0.6-0.7-0.9-1.5-0.7c-0.2,0.1-0.5,0.1-0.8,0.2c-0.1,0-0.2,0-0.4,0C54.938,28.5,54.938,28.5,54.838,28.6z"/>
	<path fill="#ED1C24" d="M112.438,53.9v-0.5c-2.3-0.5-4.6-0.801-7.1-0.801c-0.101,0.301-0.4,0.5-0.5,0.601
		c-0.5,0.2-0.9,0.399-1.5,0.399c-0.101,0.101-0.3,0.101-0.4,0.101c0,0.1-0.1,0.1-0.1,0.2c0,0,0,0-0.101,0c-0.3,0-0.5,0-0.8,0
		c-0.1,0-0.399,0-0.5,0.1l-6.5,0.4c-0.1,0-0.2,0-0.3,0c-0.2-0.101-0.3-0.101-0.3-0.101c-0.101,0-0.3,0-0.4,0h-0.1
		c-0.101,0-0.3,0-0.3,0c-0.101-0.1-0.2-0.1-0.2-0.1c-0.101,0-0.2,0-0.3,0c0-0.101-0.101-0.101-0.101-0.101c-0.1,0-0.2,0-0.2,0
		c-0.199,0-0.3,0-0.399,0c0,0,0,0-0.101,0l-0.6-1.199v-0.5c-1.9-0.2-3.8-0.4-5.7-0.5v1l-1,1.199l-14.399,2l0,0
		c-0.101-0.3-0.101-0.6-0.2-0.8v-0.2V54.9c0,0,0,0,0-0.101c-0.101-0.6-0.2-1.2-0.2-1.7c-0.5,0-0.8,0-1.2-0.1c-1.1-0.1-2.1-0.1-3,0.1
		c0,0.301,0,0.5,0,0.801c0,0.399,0,0.8,0.1,1.199c0,0.301,0,0.601,0.1,1c0.1,1.601,0.2,3.301,0.3,5c0.2,1.9,0.4,3.801,0.5,5.601
		c0,0.1,0,0.2,0,0.399v2c0,0,0,0,0,0.101c0.101,0,0.2,0,0.2,0c0,0.1-0.1,0.1-0.2,0.2l0,0c0,0.1,0,0.199,0,0.399V69.9
		c0,0,0,0,0.101,0.1c0.3,0.3,0.8,0.3,1.3,0.1c0-0.1,0-0.1,0-0.199c0.6,0.199,1.2,0.3,1.8,0.199c0.5-0.199,1-0.199,1.5-0.199
		c3.5,0.199,6.8,0,10.3-0.301c0.9,0,1.8,0.101,2.8,0.2c2.4,0.101,4.9,0.3,7.301,0.4l0.8-0.9l0.6-0.899l20.3-0.5l1.601,2.6
		c2.399-0.1,4.7-0.2,7.1-0.4c1,0,2.101-0.199,3.101-0.399c1.3-0.3,2.6-0.3,3.8,0v-1.3V67.6l0,0V57.7l-2.3-4l-7.2,0.2
		c-0.101,0-0.101,0-0.101,0s0,0-0.1,0c-0.7,0-1.6,0-2.3,0h-1.2H112.438L112.438,53.9z M126.138,54.4c0.1,0,0.2,0,0.3,0V54.3
		c1.9,1.4,2.601,3.3,2.3,5.9c-0.199,1-0.3,2-0.3,3c0,1.1-0.2,2-0.6,2.899c-0.101,0-0.3,0-0.4,0.101c-0.899-1.101-1.1-2.601-0.8-4.3
		c0.3-1.601,0.3-3.2,0.3-4.801c-0.2-0.399-0.5-0.699-0.7-1.1c-0.199-0.1-0.3-0.3-0.3-0.4c-0.1-0.199-0.1-0.399-0.1-0.6
		C125.838,54.7,125.938,54.6,126.138,54.4z"/>
	<path fill="#FAA61A" d="M126.438,54.4c-0.1,0-0.2,0-0.3,0c-0.2,0.199-0.3,0.3-0.3,0.6c0,0.2,0,0.4,0.1,0.6
		c0,0.101,0.101,0.301,0.3,0.4c0.2,0.4,0.5,0.7,0.7,1.1c0,1.601,0,3.2-0.3,4.801c-0.3,1.699-0.1,3.199,0.8,4.3
		c0.101-0.101,0.3-0.101,0.4-0.101c0.399-0.899,0.6-1.8,0.6-2.899c0-1,0.101-2,0.3-3c0.301-2.601-0.399-4.5-2.3-5.9V54.4z"/>
	<path d="M104.838,53.2c0.1-0.101,0.399-0.3,0.5-0.601l0.2-1.699l-2.101-9.8l-0.5-0.8v-0.9c-2.899-1.8-6-2.7-9.6-2.5c-1,0-2,0-3,0
		c-0.601,0-0.9,0.3-1,0.8l1.8,1.4l0.5,13.8l0.6,1.199c0.101,0,0.101,0,0.101,0c0.1,0,0.2,0,0.399,0c0,0,0.101,0,0.2,0
		c0,0,0.101,0,0.101,0.101c0.1,0,0.199,0,0.3,0c0,0,0.1,0,0.2,0.1c0,0,0.199,0,0.3,0h0.1c0.101,0,0.3,0,0.4,0c0,0,0.1,0,0.3,0.101
		c0.1,0,0.2,0,0.3,0l6.5-0.4c0.5-0.1,1-0.2,1.5-0.3c0.101,0,0.3,0,0.4-0.101C103.938,53.6,104.338,53.4,104.838,53.2z M92.838,44
		c0-0.1,0-0.3,0-0.4l-0.3-4.5l7.699,0.5l3.301,11.9l-10.101,1.2l-0.5-8.601C92.838,44.1,92.838,44.1,92.838,44z"/>
	<path fill="#0095DA" d="M95.539,39.9L95.539,39.9c0.899-0.1,1.6,0.2,2,0.9c0.1,0.1,0.1,0.1,0.199,0.1c-0.199,0.2-0.3,0.3-0.399,0.4
		c-0.101,0.1-0.4,0.1-0.5,0.3c-1.5-0.2-2.4,0.4-2.4,2c-0.1,0.301-0.1,0.7-0.399,1c-0.101,0-0.2,0-0.4,0s-0.3,0-0.4,0
		c-0.1,0-0.1-0.199-0.199-0.199c0-0.101-0.101-0.101-0.101-0.101c0-0.1,0-0.2,0-0.2l0.5,8.601l10.101-1.2l-3.301-11.9l-7.699-0.5
		l0.3,4.5c0.1-0.399,0.1-0.699,0.1-1.1c0-0.4,0.101-0.9,0.2-1.2C93.738,40.4,94.539,40,95.539,39.9z"/>
	<path fill="#8ED8F8" d="M95.539,39.9L95.539,39.9c-1,0.1-1.801,0.5-2.4,1.4c-0.1,0.3-0.2,0.8-0.2,1.2c0,0.4,0,0.7-0.1,1.1
		c0,0.101,0,0.301,0,0.4s0,0.1,0.1,0.1c0,0,0,0.101,0,0.2c0,0,0.101,0,0.101,0.101c0.1,0,0.1,0.199,0.199,0.199c0.101,0,0.2,0,0.4,0
		s0.3,0,0.4,0c0.3-0.3,0.3-0.699,0.399-1c0-1.6,0.9-2.2,2.4-2c0.1-0.2,0.399-0.2,0.5-0.3c0.1-0.1,0.2-0.2,0.399-0.4
		c-0.1,0-0.1,0-0.199-0.1C97.138,40.1,96.438,39.8,95.539,39.9z"/>
	<path fill="#FCD3C1" d="M116.138,53.9h1.2c0.7,0,1.6,0,2.3,0c0.1,0,0.1,0,0.1,0s0,0,0.101,0H116.138z"/>
	<path fill="#FFFCD5" d="M20.738,30.9c0,0,0,0.2-0.1,0.2c0,0.2,0,0.3,0,0.3c0.1,0.1,0.1,0.2,0.1,0.3c0.2,0.2,0.2,0.2,0.4,0.2
		c2,0.1,4-0.2,6.1-1c0.7-0.2,1.6-0.3,2.4-0.3c6-0.3,12.2-0.3,18.2-0.3c1.3,0,2.5-0.2,3.8-0.4c0.8-0.3,1.5-0.8,1.9-1.6
		c0,0,0-0.1-0.1-0.2c-0.3-0.4-0.7-0.7-1.3-0.7c-5.6,0.7-11.3,0.8-17.1,0.3c-1.9-0.1-3.7,0-5.7,0.4
		C26.338,28.6,23.438,29.5,20.738,30.9z"/>
	<path fill="#ED1C24" d="M4.238,54.4c-0.3,0-0.6-0.101-0.9-0.101l-0.5,0.601c-0.1,0-0.1,0.1-0.1,0.199c-0.1,0-0.1,0-0.1,0.101
		c0,0.1,0,0.1,0,0.1c0,0.601,0,1.101,0,1.7c0.2-0.9,0.7-1.6,1.5-2c0.6-0.1,1,0.3,1.1,0.9V56.1c-1.1,2.5-1.3,5.301-0.7,8.301
		c0.1,0.5,0.1,1,0,1.6s-0.3,1.1-0.4,1.7c-0.5,0.6-1.1,0.5-1.6-0.101c-0.2-3-0.2-6-0.2-9c-0.1,0.101-0.2,0.301-0.2,0.5
		c0,0,0,0,0,0.101c0,0.1,0,0.1,0,0.2c-0.2,2.6-0.1,5.3,0.1,8c0,0.5,0.1,1.199,0.2,1.8c0.1,0,0.2,0,0.2,0c0,0.3,0.2,0.5,0.5,0.6
		c1,0.2,2.1,0.3,3.2,0.3c2.3,0,4.6,0.2,6.9,0.5c1.1,0.2,2.1,0.101,3-0.199c1.1,0.199,2.4,0.3,3.5,0.5l1.1-1.5c1.3,0,2.5,0,3.9,0.3
		c0.4-0.2,0.9-0.3,1.4-0.5c3.2-0.101,6.5,0.2,9.7,0.8c0.1,0,0.2,0,0.3,0.1h0.4c0.3,0.101,0.6,0.2,0.8,0.301c0.1,0,0.2,0,0.3,0
		l1.2,0.5c0.1,0,0.2,0.1,0.3,0.199c0.7,0,1.3,0,2,0c0.8,0,1.8-0.1,2.6-0.199c1.3-0.301,2.6-0.301,3.9-0.2c0.1,0,0.2,0,0.3,0v-1.3
		c0-0.101,0-0.301,0-0.301c0-0.3,0-0.5,0-0.699V67c0-2.6-0.1-5.3-0.3-7.8c0-1.101,0-2.101,0-3.2v-2.4c-1.3-0.199-2.6-0.3-3.8-0.399
		c-0.1-0.101-0.2-0.101-0.2-0.101c-0.1,0.4-0.2,0.801-0.3,1.101l-0.1,0.399c-2.4-0.199-4.8-0.199-7.1-0.3c-0.6-0.1-1.1-0.2-1.7-0.2
		c-2-0.3-4-0.5-6-0.5l-0.5,0.301l-1-0.301V53c-1.6,0.1-3.1,0.3-4.6,0.4c0,0.3,0,0.5-0.1,0.699h-0.1l0,0c-0.1,0.301-0.3,0.5-0.6,0.7
		c-0.2-0.1-0.5-0.1-0.7-0.1c-0.9,0.1-1.9,0.2-2.7,0.3c-0.2,0-0.2,0-0.3,0.1l-1.5,0.2c-0.1,0-0.3,0-0.4,0.101
		c-1.9,0.199-3.8,0.199-5.7,0c-2-0.301-3.9-0.7-5.8-1H4.238z"/>
	<path fill="#FAA61A" d="M2.338,58.6L2.338,58.6c0,3,0,6,0.2,9c0.5,0.601,1.1,0.7,1.6,0.101c0.1-0.601,0.3-1.101,0.4-1.7
		s0.1-1.1,0-1.6c-0.6-3-0.4-5.801,0.7-8.301V55.9c-0.1-0.601-0.5-1-1.1-0.9c-0.8,0.4-1.3,1.1-1.5,2c-0.2,0.4-0.3,0.8-0.3,1.3
		C2.338,58.4,2.338,58.4,2.338,58.6z"/>
	<path fill="#FFF685" d="M29.338,28.1v-0.2V28.1z"/>
	<path d="M26.938,53v0.6l1,0.301l0.5-0.301c2,0,4,0.2,6,0.5c0.6,0,1.1,0.101,1.7,0.2c2.3,0.101,4.7,0.101,7.1,0.3l0.1-0.399
		c0.1-0.3,0.2-0.7,0.3-1.101c1-4.3,1-8.6-0.2-12.8l-0.1-1.7c-3.3-1.4-6.7-2-10.4-1.8l-5.3,1.9L26.938,53z M38.738,39.4
		c0.9,0.2,1.9,0.2,2.9,0.4v1.3l0.5,0.8l-0.2,10.7l-13.5-1.199l0.6-11.3C32.338,39.3,35.638,39,38.738,39.4z"/>
	<path fill="#0095DA" d="M41.638,39.8c-1-0.2-2-0.2-2.9-0.4c-3.1-0.4-6.4-0.1-9.7,0.7l-0.6,11.3l13.5,1.199l0.2-10.7l-0.5-0.8V39.8z
		 M32.338,39.6c0.2,0.1,0.3,0,0.5,0c1.3,0.3,2.4,0.6,3.5,1.1c0.1,0.1,0.2,0.2,0.3,0.2c-0.7,1-1.8,1.2-3.2,0.7
		c-0.5-0.2-1.1-0.2-1.6,0.1c-0.2,0.2-0.5,0.2-0.8,0.3c0,0.1,0,0.2,0,0.4s-0.1,0.3-0.1,0.5c0,0.199,0,0.3,0,0.399
		c-0.2,0.2-0.4,0.3-0.6,0.5c-0.1,0.101-0.3,0.3-0.4,0.5c-0.2-0.2-0.3-0.2-0.5-0.3c0-0.1-0.1-0.1-0.1-0.1c-0.2-0.4-0.2-0.801-0.2-1.2
		c0-0.4,0-1,0-1.5C29.938,40.1,30.938,39.6,32.338,39.6z M29.438,46c0-0.1,0.1-0.1,0.2-0.1c0,0,0.2,0,0.3,0l0,0
		c0.4,0,0.7,0.199,0.9,0.699c0,0,0,0.101,0.1,0.101c-0.4,1.1-1,1.3-1.9,0.6c-0.1-0.399-0.1-0.7,0.1-0.899
		C29.238,46.2,29.338,46.1,29.438,46z"/>
	<path fill="#8ED8F8" d="M32.838,39.6c-0.2,0-0.3,0.1-0.5,0c-1.4,0-2.4,0.5-3.2,1.6c0,0.5,0,1.1,0,1.5c0,0.399,0,0.8,0.2,1.2
		c0,0,0.1,0,0.1,0.1c0.2,0.1,0.3,0.1,0.5,0.3c0.1-0.2,0.3-0.399,0.4-0.5c0.2-0.2,0.4-0.3,0.6-0.5c0-0.1,0-0.2,0-0.399
		c0-0.2,0.1-0.301,0.1-0.5s0-0.3,0-0.4c0.3-0.1,0.6-0.1,0.8-0.3c0.5-0.3,1.1-0.3,1.6-0.1c1.4,0.5,2.5,0.3,3.2-0.7
		c-0.1,0-0.2-0.1-0.3-0.2C35.238,40.2,34.138,39.9,32.838,39.6z"/>
	<path fill="#8ED8F8" d="M29.638,45.9c-0.1,0-0.2,0-0.2,0.1c-0.1,0.1-0.2,0.2-0.3,0.4c-0.2,0.199-0.2,0.5-0.1,0.899
		c0.9,0.7,1.5,0.5,1.9-0.6c-0.1,0-0.1-0.101-0.1-0.101c-0.2-0.5-0.5-0.699-0.9-0.699l0,0C29.838,45.9,29.638,45.9,29.638,45.9z"/>
	<path d="M48.338,38.9l-0.5,0.5l-0.2,14.2V56c0,1.1,0,2.1,0,3.2c0.2,2.5,0.3,5.2,0.3,7.8v1.4c0,0.199,0,0.399,0,0.699
		c0,0,0,0.2,0,0.301v1.3c0,1.1,0,2.2,0,3.2c0,0,0,0-0.1,0.1c0,0,0,0.1-0.1,0.1s-0.1,0-0.1,0.101c0,0.1,0,0.1,0,0.1
		c0,0.101,0,0.101,0,0.101c0.1,0.1,0.2,0.199,0.2,0.199c0.1,0.101,0.1,0.101,0.1,0.2c0.4,0.101,0.9,0.101,1.3,0.101
		c2.9,0.5,5.9,0.6,8.9,0.399c2.3-0.2,4.7-0.2,7-0.2c0.5-0.1,1-0.199,1.5-0.3c0.5-0.2,0.8-0.5,0.9-1.1c0.1-0.8,0-1.3-0.4-1.601
		c-0.1-0.699-0.1-1.399-0.1-2.1c-0.101-0.1-0.101-0.1-0.101-0.1V69.8c0-0.2,0-0.3,0-0.399l0,0c0-0.101,0-0.101,0-0.2
		c0-0.101,0-0.101,0-0.101v-2c0-0.199,0-0.3,0-0.399c-0.1-1.8-0.3-3.7-0.5-5.601c-0.1-1.699-0.2-3.399-0.3-5
		c-0.1-0.399-0.1-0.699-0.1-1c-0.1-0.399-0.1-0.8-0.1-1.199c0-0.301,0-0.5,0-0.801c-0.1-0.199-0.1-0.5-0.1-0.699
		c0-0.801-0.1-1.5-0.2-2.301l-1-5.5l-0.3-4.1c-5-3.6-10-4.2-15.4-1.9C48.838,38.7,48.638,38.8,48.338,38.9z M55.338,39.7
		c-0.2,1.9-0.2,3.7-0.2,5.7c0.1,1.5,0.2,3.1,0.2,4.699c0,0.9,0.1,1.801,0.1,2.801c0.2,2.1,0.3,4.199,0.5,6.199
		c0.2,3.101,0.4,6.2,0.5,9.301c0,0.8,0,1.6,0,2.5l0.2,2.3c-1,0.1-1.8,0.2-2.7,0.2v-2.7c0.1-1.4,0.1-2.9,0-4.3
		c0-3.101-0.1-6.2-0.3-9.301c-0.2-1.8-0.3-3.699-0.4-5.5l-0.1-1.399c0-0.601,0-1.101,0-1.601c-0.1-0.199-0.1-0.5-0.1-0.699
		c-0.1-2.601-0.4-5.301-0.6-7.8C53.338,39.8,54.338,39.7,55.338,39.7z M56.238,42.9c0.1-1.101,0-2.2-0.1-3.2c0.5,0.1,1,0.2,1.5,0.2
		c0.4,0.1,0.8,0.2,1.2,0.3c0.1,2.899,0.3,5.7,0.5,8.5l0.2,3.8c0,0.1,0,0.2,0.1,0.4c0,0.199,0,0.199,0,0.399c0,2,0.1,3.8,0.3,5.8
		c0.2,3,0.4,6.101,0.7,9.2c0,0.8,0,1.4,0.1,2.2s0.1,1.6,0.2,2.4c-1.1,0.1-2.3,0.199-3.3,0.199c0-0.899,0-1.8-0.1-2.699
		c-0.1-1.601-0.2-3.101-0.2-4.7c-0.1-3.101-0.2-6.101-0.5-9.101c-0.1-1.199-0.2-2.5-0.2-3.699c-0.1-1-0.2-2.2-0.3-3.2
		C56.238,47.4,56.138,45.1,56.238,42.9z M61.138,41c0.3,0.1,0.7,0.4,1,0.6l1.3,8.4c0,0.3,0.1,0.6,0.2,0.9c0,0,0,0.1,0,0.199
		l0.1,0.801c0,0.399,0,0.699,0.1,1c0,0.3,0,0.5,0,0.699c0.3,2.301,0.5,4.601,0.5,6.9c0.1,3.1,0.3,6.2,0.6,9.2c0,0.2,0,0.3,0,0.399
		c0,0.2,0,0.301,0,0.301l0.2,2.6c-0.8-0.1-1.5-0.2-2.2-0.1c-0.3,0-0.6,0-1,0v-1.5c0-0.301,0-0.5,0-0.801c0-1.3-0.1-2.699-0.3-4
		c-0.3-2.199-0.5-4.5-0.6-6.8c-0.2-2.3-0.4-4.6-0.4-6.899c-0.1-1.2-0.2-2.301-0.3-3.5c-0.2-2.7-0.2-5.301-0.2-8c0-0.3,0-0.5-0.1-0.8
		C60.338,40.7,60.838,40.9,61.138,41z M49.138,41.1c0.8-0.4,1.7-0.7,2.5-0.8c0,0.2,0,0.5,0,0.8c0,0.8,0,1.5,0.1,2.3
		c0.2,3,0.4,6.199,0.6,9.199c0,0.101,0,0.301,0.1,0.301c0,0.699,0,1.5,0,2.1c0.1,1.1,0.2,2.3,0.2,3.5c0.2,3.1,0.3,6.1,0.3,9.2
		c0,0.8,0,1.6,0,2.399V73.4c-0.3,0-0.6,0-1,0.1c-0.6,0.1-1.2,0-1.8-0.1c-0.1,0-0.3,0-0.5,0c0-1,0-2,0-2.9c-0.1-1.2,0-2.4,0.1-3.6
		c0.2-1.601,0.2-3.2,0.1-4.7c0-1.3,0-2.601,0.1-3.9c0-1.8-0.1-3.5-0.6-5.2V52.9c0-0.101,0-0.2,0-0.301l0,0c0,0,0-0.1-0.1-0.199
		c0,0,0,0-0.1,0V41.1z"/>
	<path fill="#FFF685" d="M55.138,45.4c0-2,0-3.8,0.2-5.7c-1,0-2,0.1-2.9,0.4c0.2,2.5,0.5,5.2,0.6,7.8c0,0.199,0,0.5,0.1,0.699
		c0,0.5,0,1,0,1.601l0.1,1.399c0.1,0.4,0.1,0.9,0.1,1.301c0.7,0,1.4,0,2.1,0c0-1-0.1-1.9-0.1-2.801
		C55.338,48.5,55.238,46.9,55.138,45.4z"/>
	<path fill="#ED1C24" d="M53.238,51.6c0.1,1.801,0.2,3.7,0.4,5.5c0.2,3.101,0.3,6.2,0.3,9.301c0.1,1.399,0.1,2.899,0,4.3
		c0-0.101,0-0.3,0.1-0.601c0.8,0.101,1.6,0.2,2.4,0.2c0,0.101,0,0.3,0,0.601c0-0.9,0-1.7,0-2.5c-0.1-3.101-0.3-6.2-0.5-9.301
		c-0.2-2-0.3-4.1-0.5-6.199c-0.7,0-1.4,0-2.1,0C53.338,52.5,53.338,52,53.238,51.6z"/>
	<path fill="#FFF685" d="M54.038,70.1c-0.1,0.301-0.1,0.5-0.1,0.601v2.7c0.9,0,1.7-0.101,2.7-0.2l-0.2-2.3c0-0.301,0-0.5,0-0.601
		C55.638,70.3,54.838,70.2,54.038,70.1z"/>
	<path fill="#FFF685" d="M56.138,39.7c0.1,1,0.2,2.1,0.1,3.2c-0.1,2.199,0,4.5,0.1,6.8c0.1,1,0.2,2.2,0.3,3.2c1,0,2,0,3,0
		c-0.1-0.2-0.1-0.301-0.1-0.4l-0.2-3.8c-0.2-2.8-0.4-5.601-0.5-8.5c-0.4-0.1-0.8-0.2-1.2-0.3C57.138,39.9,56.638,39.8,56.138,39.7z"
		/>
	<path fill="#ED1C24" d="M59.938,59.1c-0.2-2-0.3-3.8-0.3-5.8c0-0.2,0-0.2,0-0.399c-1,0-2,0-3,0c0,1.199,0.1,2.5,0.2,3.699
		c0.3,3,0.4,6,0.5,9.101c0,1.6,0.1,3.1,0.2,4.7c1.1,0,2.1,0,3.2,0.1c-0.1-0.8-0.1-1.4-0.1-2.2C60.338,65.2,60.138,62.1,59.938,59.1z
		"/>
	<path fill="#FFF685" d="M60.738,70.5c-1.1-0.1-2.1-0.1-3.2-0.1c0.1,0.899,0.1,1.8,0.1,2.699c1,0,2.2-0.1,3.3-0.199
		C60.838,72.1,60.838,71.3,60.738,70.5z"/>
	<path fill="#FFF685" d="M62.138,41.6c-0.3-0.2-0.7-0.5-1-0.6s-0.8-0.3-1.1-0.4c0.1,0.3,0.1,0.5,0.1,0.8c0,2.7,0,5.3,0.2,8
		c0.1,1.199,0.2,2.3,0.3,3.5c1,0,2.1,0,3.2,0c-0.1-0.301-0.1-0.601-0.1-1l-0.1-0.801c0-0.1,0-0.199,0-0.199
		c-0.1-0.301-0.2-0.601-0.2-0.9L62.138,41.6z"/>
	<path fill="#ED1C24" d="M63.838,53.6c0-0.199,0-0.399,0-0.699c-1.1,0-2.2,0-3.2,0c0,2.3,0.2,4.6,0.4,6.899
		c0.1,2.3,0.3,4.601,0.6,6.8c0.2,1.301,0.3,2.7,0.3,4c0.2,0,0.4,0,0.5,0c0.4,0,0.7,0,0.9,0c0.6-0.199,1.1-0.399,1.6-0.5
		c0-0.1,0-0.199,0-0.399c-0.3-3-0.5-6.101-0.6-9.2C64.338,58.2,64.138,55.9,63.838,53.6z"/>
	<path fill="#FFF685" d="M64.938,70.4c0,0,0-0.101,0-0.301c-0.5,0.101-1,0.301-1.6,0.5c-0.2,0-0.5,0-0.9,0c-0.1,0-0.3,0-0.5,0
		c0,0.301,0,0.5,0,0.801v1.5c0.4,0,0.7,0,1,0c0.7-0.101,1.4,0,2.2,0.1L64.938,70.4z"/>
	<path fill="#FFF685" d="M51.638,40.3c-0.8,0.1-1.7,0.4-2.5,0.8v11.3c0.1,0,0.1,0,0.1,0c0.1,0.1,0.1,0.199,0.1,0.199l0,0
		c0,0.101,0,0.2,0,0.301c0,0,0,0.1,0,0.199c1-0.1,2-0.1,3.1-0.199c-0.1,0-0.1-0.2-0.1-0.301c-0.2-3-0.4-6.199-0.6-9.199
		c-0.1-0.801-0.1-1.5-0.1-2.3C51.638,40.8,51.638,40.5,51.638,40.3z"/>
	<path fill="#ED1C24" d="M49.338,53.1c0.5,1.7,0.6,3.4,0.6,5.2c-0.1,1.3-0.1,2.601-0.1,3.9c0.1,1.5,0.1,3.1-0.1,4.7
		c-0.1,1.199-0.2,2.399-0.1,3.6c0.1-0.1,0.2-0.1,0.3-0.1c0.2,0,0.3,0,0.4,0c0.1-0.101,0.3-0.101,0.4-0.101c0.4-0.1,0.7-0.2,0.9-0.2
		c0.5,0,0.9,0,1.3,0c0-0.8,0-1.6,0-2.399c0-3.101-0.1-6.101-0.3-9.2c0-1.2-0.1-2.4-0.2-3.5c0-0.6,0-1.4,0-2.1
		C51.338,53,50.338,53,49.338,53.1c0-0.1,0-0.199,0-0.199V53.1z"/>
	<path fill="#FFF685" d="M50.338,70.4c-0.1,0-0.2,0-0.4,0c-0.1,0-0.2,0-0.3,0.1c0,0.9,0,1.9,0,2.9c0.2,0,0.4,0,0.5,0
		c0.6,0.1,1.2,0.199,1.8,0.1c0.4-0.1,0.7-0.1,1-0.1V70.1c-0.4,0-0.8,0-1.3,0c-0.2,0-0.5,0.101-0.9,0.2
		C50.638,70.3,50.438,70.3,50.338,70.4z"/>
	<path d="M71.138,38l-1.6,0.7c0.1,0.2,0.1,0.4,0.3,0.4c-0.3,0.2-0.5,0.5-0.5,1c0,0.1,0,0.3,0,0.4c0,1.8,0.1,3.4,0.5,5.2
		c0.1,2.2,0.1,4.2,0.2,6.399c0,0.301,0.1,0.601,0.1,1c0,0.5,0.1,1.101,0.2,1.7c0,0.101,0,0.101,0,0.101V55.1v0.2
		c0.1,0.2,0.1,0.5,0.2,0.8l0,0l14.399-2l1-1.199v-1v-1.5l-0.6-0.801l-1.101-10C80.039,37.9,75.738,37.3,71.138,38z M76.338,40.1
		c2,0.3,4.1,0.5,6.1,0.8l1.601,10.7L71.438,53.9l-0.2-12.101c0.301-0.7,0.5-1.5,0.601-2.4C73.338,39.7,74.838,39.9,76.338,40.1z"/>
	<path fill="#0095DA" d="M82.438,40.9c-2-0.3-4.1-0.5-6.1-0.8c-1.5-0.2-3-0.4-4.5-0.7c-0.101,0.9-0.3,1.7-0.601,2.4l0.2,12.101
		L84.039,51.6L82.438,40.9z M74.438,40.4c0.5,0,0.9,0,1.3-0.1c0.7-0.2,1.2-0.1,1.601,0.5c0,0.1,0,0.1,0,0.1
		c-0.5,0.8-1.4,1.2-2.601,1.3c-0.399,0.1-0.8,0.2-1.1,0.7c-0.1,0.399-0.2,0.699-0.2,1.199c0.101,0.301,0.101,0.5,0,0.801
		c0,0.199-0.1,0.399-0.2,0.5c0,0.3,0,0.6-0.1,0.899c0,0.3,0,0.601-0.2,0.9c0,0.1,0,0.2,0,0.2s0,0.1-0.1,0.199
		c-0.101,0-0.2,0-0.3,0.101c-0.101-0.101-0.2-0.101-0.301-0.101c-0.3-0.699-0.399-1.5-0.3-2.3c0.2-1,0.2-2.2,0-3.2
		C72.638,41.1,73.438,40.6,74.438,40.4z"/>
	<path fill="#8ED8F8" d="M75.738,40.3c-0.399,0.1-0.8,0.1-1.3,0.1c-1,0.2-1.8,0.7-2.5,1.7c0.2,1,0.2,2.2,0,3.2
		c-0.1,0.8,0,1.601,0.3,2.3c0.101,0,0.2,0,0.301,0.101c0.1-0.101,0.199-0.101,0.3-0.101c0.1-0.1,0.1-0.199,0.1-0.199s0-0.101,0-0.2
		c0.2-0.3,0.2-0.601,0.2-0.9c0.1-0.3,0.1-0.6,0.1-0.899c0.101-0.101,0.2-0.301,0.2-0.5c0.101-0.301,0.101-0.5,0-0.801
		c0-0.5,0.101-0.8,0.2-1.199c0.3-0.5,0.7-0.601,1.1-0.7c1.2-0.1,2.101-0.5,2.601-1.3c0,0,0,0,0-0.1
		C76.938,40.2,76.438,40.1,75.738,40.3z"/>
	<path fill="#FCD3C1" d="M102.838,53.9c0-0.101,0.1-0.101,0.1-0.2c-0.5,0.1-1,0.2-1.5,0.3c0.101-0.1,0.4-0.1,0.5-0.1
		c0.3,0,0.5,0,0.8,0C102.838,53.9,102.838,53.9,102.838,53.9z"/>
	<path fill="#FCD3C1" d="M92.838,69.3l-0.8,0.9L92.838,69.3z"/>
	<path fill="#FFF9AE" d="M92.039,70.2c-2.4-0.101-4.9-0.3-7.301-0.4c-1-0.1-1.899-0.2-2.8-0.2c-3.5,0.301-6.8,0.5-10.3,0.301
		c-0.5,0-1,0-1.5,0.199c-0.6,0.101-1.2,0-1.8-0.199c0,0.1,0,0.1,0,0.199c-0.5,0.2-1,0.2-1.3-0.1c0,0.7,0,1.4,0.1,2.1
		c0.4,0.301,0.5,0.801,0.4,1.601c-0.101,0.6-0.4,0.899-0.9,1.1c-0.5,0.101-1,0.2-1.5,0.3c-2.3,0-4.7,0-7,0.2
		c-3,0.2-6,0.101-8.9-0.399c-0.4,0-0.9,0-1.3-0.101c0-0.1,0-0.1-0.1-0.2c0,0-0.1-0.1-0.2-0.199c0,0,0,0,0-0.101c0,0,0,0,0-0.1
		c0-0.101,0-0.101,0.1-0.101s0.1-0.1,0.1-0.1c0.1-0.1,0.1-0.1,0.1-0.1c0-1,0-2.101,0-3.2c-0.1,0-0.2,0-0.3,0
		c-1.3-0.101-2.6-0.101-3.9,0.2c-0.8,0.1-1.8,0.199-2.6,0.199c-0.7,0-1.3,0-2,0c2.3,1.101,4,3,4.9,5.7l3.9-0.2c0,0,0-0.1,0-0.199
		c0.3,0.3,0.7,0.5,1.2,0.399c0.1-0.1,0.2-0.1,0.4-0.1c2.9-0.101,5.9-0.2,8.9-0.101c2.7,0,5.3-0.199,7.9-0.6c0.3-0.1,0.6-0.1,1-0.1
		c0,0,0,0,0,0.1l20.7-0.7L92.039,70.2z"/>
	<path fill="#FCD3C1" d="M66.938,69.4c0.101-0.101,0.2-0.101,0.2-0.2c0,0-0.1,0-0.2,0C66.938,69.3,66.938,69.3,66.938,69.4z"/>
	<path fill="#FFF9AE" d="M16.238,70.4c-0.9,0.3-1.9,0.399-3,0.199c-2.3-0.3-4.6-0.5-6.9-0.5c-1.1,0-2.2-0.1-3.2-0.3
		c-0.3-0.1-0.5-0.3-0.5-0.6c0,0-0.1,0-0.2,0c0.1,0.899,0.2,1.8,0.3,2.7h0.2c0.1-0.301,0.2-0.7,0.3-1c0-0.101,0-0.101,0.1-0.2
		c0.1,0,0.2,0,0.3,0c0.7,0.399,1.1,1,1.3,1.899V72.7c0,0.2-0.1,0.3-0.2,0.399c0,0.101-0.1,0.2-0.1,0.301
		c-0.9-0.101-1.4-0.301-1.5-0.801h-0.2c0.1,0.7,0.2,1.301,0.3,2l12.8,1.4l3.7-5.1C18.638,70.7,17.338,70.6,16.238,70.4z"/>
	<path fill="#FFFCD5" d="M3.638,70.7c-0.1,0-0.2,0-0.3,0c-0.1,0.1-0.1,0.1-0.1,0.2c-0.1,0.3-0.2,0.699-0.3,1
		c0,0.199,0,0.5,0.2,0.699c0.1,0.5,0.6,0.7,1.5,0.801c0-0.101,0.1-0.2,0.1-0.301c0.1-0.1,0.2-0.199,0.2-0.399V72.6
		C4.738,71.7,4.338,71.1,3.638,70.7z"/>
	<path fill="#FFF685" d="M2.938,71.9h-0.2c0.1,0.199,0.2,0.5,0.2,0.699h0.2C2.938,72.4,2.938,72.1,2.938,71.9z"/>
	<path fill="#FCD3C1" d="M129.338,68.4V67.6l0,0V68.4z"/>
	<path fill="#FFF9AE" d="M129.338,69.7c-1.2-0.3-2.5-0.3-3.8,0c-1,0.2-2.101,0.399-3.101,0.399c-2.399,0.2-4.7,0.301-7.1,0.4
		l2.5,3.9c1.5,0,3.1-0.101,4.8-0.101c2.1-0.2,4.2-0.399,6.3-0.5l0.4-0.899V69.7z"/>
	<path fill="#0095DA" d="M113.738,37.6c0,0,0-0.1,0.101-0.1c0-0.1,0.1-0.1,0.1-0.2c0.101,0,0.2-0.1,0.3-0.2c0.101,0,0.101,0,0.2,0
		l0,0c0.9,0.7,1.8,1.5,2.5,2.5c1.601,2.3,3.3,4.4,5,6.5l-8.6-11.3l0.1,15.3l0.601,1.301l12,0.199l-3-4c0,0.101,0,0.2,0.1,0.301
		c0.1,0.1,0.2,0.199,0.2,0.399V48.4c-0.101,0.1-0.2,0.199-0.3,0.199c-0.2,0-0.5,0-0.7,0c-1.8-0.899-3.2-2.199-4.4-4
		c-0.399-0.6-0.899-1.199-1.399-1.699C115.138,41.3,114.238,39.6,113.738,37.6z M123.338,50.4c-0.101-0.301-0.101-0.5,0-0.801V49.4
		c0,0,0.1-0.101,0.1-0.2c0.101,0,0.3,0,0.4-0.101l0,0c0.1,0,0.1,0,0.2,0.101c0.3,0.3,0.3,0.7,0.3,1c-0.101,0.1-0.101,0.1-0.101,0.2
		c0,0-0.1,0-0.199,0.1c-0.101,0.1-0.101,0.1-0.2,0.2C123.638,50.6,123.438,50.5,123.338,50.4z"/>
	<path fill="#8ED8F8" d="M123.338,49.6c-0.101,0.301-0.101,0.5,0,0.801c0.1,0.1,0.3,0.199,0.5,0.3c0.1-0.101,0.1-0.101,0.2-0.2
		c0.1-0.1,0.199-0.1,0.199-0.1c0-0.101,0-0.101,0.101-0.2c0-0.3,0-0.7-0.3-1c-0.101-0.101-0.101-0.101-0.2-0.101l0,0
		c-0.101,0.101-0.3,0.101-0.4,0.101c0,0.1-0.1,0.2-0.1,0.2V49.6z"/>
	<path fill="#8ED8F8" d="M113.838,37.5c-0.101,0-0.101,0.1-0.101,0.1c0.5,2,1.4,3.7,2.801,5.3c0.5,0.5,1,1.1,1.399,1.699
		c1.2,1.801,2.601,3.101,4.4,4c0.2,0,0.5,0,0.7,0c0.1,0,0.199-0.1,0.3-0.199V48.3c0-0.2-0.101-0.3-0.2-0.399
		c-0.1-0.101-0.1-0.2-0.1-0.301c0,0,0,0,0-0.1c-0.301-0.4-0.7-0.9-1.101-1.4c-1.7-2.1-3.399-4.2-5-6.5c-0.7-1-1.6-1.8-2.5-2.5l0,0
		c-0.1,0-0.1,0-0.2,0c-0.1,0.1-0.199,0.2-0.3,0.2C113.938,37.4,113.838,37.4,113.838,37.5z"/>
	<path fill="#0095DA" d="M19.938,36.1c0-0.2,0-0.3,0-0.4c-0.5,0.2-0.5-0.1,0-0.6l-15,17.1c5,0.899,10,0.899,15,0V36.1z M16.138,41.1
		c0.5-1.3,1.3-2.2,2.5-2.6c0.5,0.1,0.9,0.5,1,1.1c0,0,0,0.1,0,0.2c-2.7,4.3-5.8,8-9.5,11.3c-0.5,0.4-1,0.801-1.6,1
		c-0.2,0-0.3-0.1-0.4-0.199c-0.1-0.101-0.2-0.301-0.3-0.5c-0.1-0.301,0-0.5,0.1-0.601c2.5-2.899,5-5.7,7.6-8.7
		C15.838,41.8,15.938,41.4,16.138,41.1z"/>
	<path fill="#8ED8F8" d="M18.638,38.5c-1.2,0.4-2,1.3-2.5,2.6c-0.2,0.3-0.3,0.7-0.6,1c-2.6,3-5.1,5.8-7.6,8.7
		c-0.1,0.101-0.2,0.3-0.1,0.601c0.1,0.199,0.2,0.399,0.3,0.5c0.1,0.1,0.2,0.199,0.4,0.199c0.6-0.199,1.1-0.6,1.6-1
		c3.7-3.3,6.8-7,9.5-11.3c0-0.1,0-0.2,0-0.2C19.538,39,19.138,38.6,18.638,38.5z"/>
	<path fill="#647B98" d="M95.238,70.9c-0.199,0-0.3,0-0.3,0.199c-0.6,0.2-1.1,0.601-1.5,1.2c-0.7,1.101-1.5,2.101-2.399,3.101
		c-0.2,0.199-0.5,0.5-0.7,0.899c-0.101,0.2-0.3,0.4-0.3,0.7c0.3,0.6,0.5,1.1,0.899,1.6c0,0,0,0,0,0.101c0.2,0.2,0.4,0.399,0.601,0.7
		c0.199,0,0.399,0.199,0.699,0.199c1.801,0.601,3.7,0.7,5.601,0.301c0.7-0.301,1.399-0.601,1.899-1.2c0.2-0.2,0.5-0.4,0.7-0.7
		c0.101-0.1,0.3-0.4,0.4-0.5c0.8-2.1,0.899-4.4,0.1-6.6c-1.7,0-3.5,0-5.2,0.1h-0.1C95.438,70.9,95.338,70.9,95.238,70.9z
		 M94.838,73.1c0.1,0,0.1,0,0.2,0c1.699,0.301,2.1,1.301,1.3,2.9c-0.101,0.4-0.4,0.6-0.9,0.7c-1,0.2-1.8-0.101-2.3-1.101
		c0-0.199,0-0.399-0.1-0.5c0-0.3,0.1-0.5,0.199-0.8c0.101-0.2,0.301-0.399,0.601-0.7c0.2-0.199,0.5-0.3,0.7-0.399
		C94.638,73.1,94.738,73.1,94.838,73.1z"/>
	<path d="M95.039,73.1c-0.101,0-0.101,0-0.2,0c-0.101,0-0.2,0-0.3,0.101c-0.2,0.1-0.5,0.2-0.7,0.399c-0.3,0.301-0.5,0.5-0.601,0.7
		c-0.1,0.3-0.199,0.5-0.199,0.8c0.1,0.101,0.1,0.301,0.1,0.5c0.5,1,1.3,1.301,2.3,1.101c0.5-0.101,0.8-0.3,0.9-0.7
		C97.138,74.4,96.738,73.4,95.039,73.1z"/>
	<path fill="#647B98" d="M26.638,71.6L26.638,71.6l-1.6-0.199l-4.1,0.5l-3.5,6c0.5,2,2,3.199,4.4,3.399c2.8,0.3,4.8-0.899,6-3.399
		c0.1-0.601,0.1-1.2,0.1-1.801c0-0.199,0.2-0.5,0.3-0.699C27.938,74.1,27.338,72.8,26.638,71.6z M23.038,74.2
		c1.8,0.3,2.1,1.2,1.1,2.6c-0.7,1.101-1.4,1.101-2.1,0.101c-0.1-0.301-0.2-0.5-0.2-0.801C21.638,75.1,22.138,74.4,23.038,74.2z"/>
	<path d="M24.138,76.8c1-1.399,0.7-2.3-1.1-2.6c-0.9,0.2-1.4,0.899-1.2,1.899c0,0.301,0.1,0.5,0.2,0.801
		C22.738,77.9,23.438,77.9,24.138,76.8z"/>
	<path fill="#647B98" d="M31.538,72.1c-0.9,1.301-1.2,2.801-1.2,4.4c0.1,2,1,3.5,2.8,4.5c2.1,1.1,4.1,1,6-0.4
		c0.7-0.5,1.2-1.1,1.7-1.699c0.1-0.301,0.3-0.5,0.4-0.601c0-0.5,0.1-0.8,0.4-1l-3.5-4.5L31.538,72.1z M38.038,76.1
		c0,0.101,0,0.2,0,0.2c-0.5,1.7-1.5,2.101-3,1.3c-0.1,0-0.2-0.1-0.3-0.199c-0.4-1.5,0.2-2.5,1.6-2.801l0,0
		C37.138,74.7,37.738,75.3,38.038,76.1z"/>
	<path d="M38.038,76.3c0,0,0-0.1,0-0.2c-0.3-0.8-0.9-1.399-1.7-1.5l0,0c-1.4,0.301-2,1.301-1.6,2.801c0.1,0.1,0.2,0.199,0.3,0.199
		C36.538,78.4,37.538,78,38.038,76.3z"/>
	<path fill="#647B98" d="M106.638,70.9c-0.1,0-0.1,0-0.2,0c-0.5,0-1.1,0-1.7,0c-0.1,0.199-0.199,0.5-0.399,0.699
		c-0.101,0.301-0.3,0.7-0.3,1.101c-0.2,2.399,0.6,4.5,2.6,6c0.6,0.5,1.3,0.8,2.1,0.899c2.601,0.5,4.7-0.199,6.2-2.3
		c0.3-0.399,0.4-0.7,0.5-1.2l0,0c0-0.5,0-0.899,0.101-1.399l-2.7-4.101c-0.101,0-0.101,0-0.2,0s-0.2,0-0.3-0.1c0,0.1,0,0.1,0,0.1
		c-0.7,0-1.4,0-2,0.101c0,0,0,0-0.101,0C109.039,70.8,107.838,70.9,106.638,70.9z M109.438,72.6c0-0.1,0-0.199,0.101-0.1
		c0.1,0,0.199,0,0.3-0.1c1.7,0.3,2.2,1.199,1.6,2.899c-0.1,0.4-0.5,0.7-1,0.8c-1.5,0.301-2.2-0.399-2-1.899
		C108.539,73.5,108.938,72.9,109.438,72.6z"/>
	<path d="M109.539,72.5c-0.101-0.1-0.101,0-0.101,0.1c-0.5,0.301-0.899,0.9-1,1.601c-0.2,1.5,0.5,2.2,2,1.899
		c0.5-0.1,0.9-0.399,1-0.8c0.601-1.7,0.101-2.6-1.6-2.899C109.738,72.5,109.638,72.5,109.539,72.5z"/>
</g>
</svg>
