<?xml version="1.0" encoding="utf-8"?>
<!-- Generator: Adobe Illustrator 13.0.0, SVG Export Plug-In . SVG Version: 6.00 Build 14948)  -->
<svg version="1.2" baseProfile="tiny" id="Layer_1" xmlns="http://www.w3.org/2000/svg" xmlns:xlink="http://www.w3.org/1999/xlink"
	 x="0px" y="0px" width="121.2px" height="64.971px" viewBox="0 0 121.2 64.971" xml:space="preserve">
<g>
	<path d="M100.8,8.041v-0.5c-2.8-0.8-5.7-1.9-8.7-3.2c-5.6-2.3-11.6-3.4-17.8-3.5c-3.8-0.1-7.5-0.3-11.2-0.6
		c-7.6-0.5-15.1-0.2-22.7,0.7c-4.5,0.1-8.9,0.8-13.2,2c-3.7,0.8-7.3,2.1-10.7,3.8c-1.6,0.9-3,2-4.1,3.5c-0.6,0.7-1.1,1.3-1.7,2
		c-1.1,1-2,2.2-2.8,3.5c-2.5,3.9-4.1,8.2-4.7,13c-0.4,3.2-0.7,6.3-0.9,9.6c-0.3,0.2-0.5,0.399-0.8,0.6c-0.2,0.2-0.5,0.4-0.6,0.7
		c-0.1,0.1-0.1,0.1-0.1,0.1c-0.1,0.7-0.3,1.301-0.4,2c-0.1,0.7,0,1.301,0.1,2c0.2,0.301,0.2,0.5,0.3,0.7l2.3,1.9v0.7L2,47.24
		c-0.1,0.101-0.2,0.301-0.5,0.4c-0.2,0.1-0.5,0.3-0.7,0.6c-0.1,0.101-0.3,0.301-0.4,0.5v0.2l-0.2,0.3c-0.1,0.2-0.2,0.5-0.2,0.801
		c0,0.199,0,0.5,0.1,0.699c0.1,0.7,0.2,1.301,0.3,1.9c0.2,0.1,0.4,0.3,0.6,0.4c0,0,0.1,0.1,0.2,0.199c0.2,0.2,0.6,0.4,0.9,0.5v0.101
		c0.1,0.1,0.1,0.1,0.2,0.1c1.2,0.4,2.5,0.601,3.8,0.601c3.3,0.699,6.1,1,8.4,0.8c2.3-0.2,4.6-0.101,6.9,0.399c0,2,1,3.9,2.7,5.601
		c1.2,1.2,2.5,1.899,3.9,2.5c2.9,1.1,5.7,1.3,8.5,0.5c1-0.3,1.9-0.8,2.8-1.601c0.4-0.5,0.9-0.899,1.5-1.3c0.7-1.2,1.4-2.399,2-3.5
		c0.3-0.6,0.5-1,0.6-1.6c0.1-0.7,0.1-1.5,0.1-2.3c12.8,1.699,25.7,2.1,38.9,1.5c0.101,1,0.3,2,0.5,3c0.101,0.6,0.5,1.199,0.9,1.699
		c0.399,0.4,0.899,0.801,1.399,1.2l0.5,1c1.801,1.2,3.9,1.9,6.101,2.3c4.1,0.801,7.399-0.5,10-3.699
		c1.8-2.101,2.399-4.5,1.899-7.101c0.601,0,1.2,0.101,1.801,0.101c0.3,0,0.699,0,1.199,0c0.4-0.101,0.801-0.2,1.301-0.301
		c0.3-0.1,0.699-0.199,1.199-0.399v0.6l0.5-0.6l4.101,0.1l1.399-0.2l1.301,0.5l0.6-0.399l1.7-3.2l-0.101-4.2l2.5-3
		c0-0.2,0-0.3,0-0.399c0-0.2-0.199-0.301-0.199-0.5c-0.2-0.101-0.301-0.301-0.4-0.5c-0.2-0.301-0.5-0.5-0.8-0.7
		c-0.3-0.3-0.601-0.4-1-0.601c-0.101,0-0.3,0-0.5,0c-0.3-0.1-0.5-0.199-0.601-0.199c-0.399-5.101-1.199-10-2.699-14.8
		c-1-3.2-2.5-6.2-4.5-9C107.8,12.741,104.6,10.041,100.8,8.041z M95,7.241c1.6,0.5,3.1,1.1,4.5,2c-0.601,6.4,0,11.1,2,14.1
		s3.8,5.1,5.699,6.2c1.801,1,3.301,2,4.801,2.8c1,0.4,1.899,0.7,2.899,0.7l0.9,7.5c-1.9,0-3.601,0.699-5.2,1.899l0.1,2.3
		l5.801,1.601l0.3,3.7l-1.3,0.5l-0.2,0.5L114.7,51.24l-10.5,0.101c-0.8-3.5-2.699-6-5.8-7.3c-1.2-0.5-2.399-0.9-3.7-1.301
		c-2.199-0.399-4.199-0.199-6,0.801c-2.199,1-3.899,2.699-5.1,4.699c-0.6,1-1.1,2-1.4,3c-0.3,0.801-0.5,1.5-0.699,2.301l-8.9-0.2
		c-0.3,0.2-0.7,0.2-1.2,0c-0.2,0-0.399,0-0.6-0.101c-0.4,0-0.8,0-1.3-0.1c0,0.1,0,0.1,0,0.1L67.2,53.041c-1.199,0-2.3,0.1-3.5,0.199
		c-4,0-8.1-0.199-12.2-0.6c-0.5-0.1-0.9-0.1-1.3-0.3c-0.7-0.101-1.3-0.2-2-0.101c-0.5,0-0.8-0.199-1.2-0.3h-2.8l-0.4-1.3
		c0.1-1.6-0.6-2.9-1.9-3.9c-0.9-0.699-1.9-1.5-2.7-2.199c-3.8-2.601-7.5-2.801-11.4-0.801c-1,0.5-1.9,1.2-2.7,2
		c-1.7,1.801-2.9,3.801-3.6,6.2c0,0.101,0,0.101,0,0.3L21,52.841l1.3,0.399H9.9l1.4-1.399l-0.3-2.2l-6.6-1.8v-1.3l1-0.2V46.24
		c0,0,0,0,0.1,0c0.4-0.399,0.7-0.899,0.7-1.5c0.1-0.1,0.1-0.3,0.1-0.5c0.1-0.6,0.2-1.199,0.1-1.899c0-0.5-0.1-0.9-0.4-1.2v-0.5
		l-1.9-2.6l0.1-2.9c6.1,1.4,11.9,1.1,17.4-0.8c0.2,0.3,0.2,0.7,0.2,1v0.2c-0.1,0.399,0,0.699,0,1c0.9,0.699,1.6,0.5,2-0.301
		c0-0.6-0.2-1.1-0.6-1.5c0-0.1,0-0.199-0.1-0.199c-0.1-0.2-0.1-0.301-0.1-0.5c0.9-0.101,1.9-0.4,2.8-0.7c0.4,0,0.7-0.101,1.1-0.101
		c2.8-7.2,3.1-14.5,0.9-21.7l-12.2-2c4.8-2.3,9.8-3.8,15.1-4.5c1.9-0.4,3.8-0.7,5.8-1c5-0.6,9.9-1,14.8-1.1c4.2-0.2,8.4-0.2,12.5,0
		c5.3,0.1,10.6,0.5,15.899,1.1C84.9,4.541,90,5.641,95,7.241z M104.5,23.541c-0.9-1.8-1.7-3.8-2.301-5.8
		c-0.699-2.5-1.199-5-1.399-7.7c4.3,3.2,7.7,7.3,10.2,12.2c1.5,2.9,2.699,5.9,3.5,9c-3-1-5.5-2.6-7.7-4.7c-0.8-0.8-1.5-1.5-2.3-2.3
		V23.541z M118.2,44.541h-2l0.101-0.2l-4.3-1.4l4.1-0.899l2.1-1l1.301,1.8L118.4,44.24L118.2,44.541z M97.7,44.541
		c0.7,0.5,1.301,0.899,1.801,1.399c0.199,0.101,0.5,0.3,0.699,0.601c1.801,1.5,2.601,3.199,2.7,5.1c0,0.1,0,0.1,0,0.3
		c-0.1-0.2-0.2-0.2-0.2-0.3c-2.1-1.9-4.5-3.5-7.3-4.6c-2.399-0.101-4.5,0.3-6.6,1.199c-2.601,1.2-4.601,3-6.3,5.301
		c0.699-3.301,2.5-5.9,5.5-7.5c0.8-0.5,1.699-0.9,2.699-1.101c1.101-0.2,2.301-0.2,3.5,0C95.5,45.041,96.7,44.94,97.7,44.541z
		 M98,50.541c0.5,0.399,1,0.8,1.5,1.199c0.6,0.7,1.3,1.301,2.199,1.601l0.4,1.1c-0.4,1.8-1,3.3-2.1,4.8c-1.301,2-3,3.101-5.301,3.7
		c-1.199,0.2-2.5,0.101-3.699-0.5c-0.801-0.399-1.5-0.8-2.301-1.2c-1.1,0-2-0.5-2.699-1.5c-0.4-0.399-0.9-0.699-1.301-1L83.8,55.041
		l1.1-1.601c0.3-0.399,0.5-0.7,0.8-0.899c2.5-2.601,5.5-3.801,9-3.601C96,49.141,97.1,49.641,98,50.541z M23.1,12.541l3.7,1.3
		c1,5.7,0.7,11.1-0.8,16.4l-0.3,1.6c-1,0.2-2.2,0.4-3.2,0.5c-0.2-0.8-0.3-1.6-0.5-2.4c0.2,0,0.3,0,0.4-0.1c0.1,0.1,0.3,0,0.5-0.1
		l0,0c0.1,0,0.1,0,0.1,0c0.1-0.1,0.1-0.2,0.2-0.2l0,0c0.1-0.2,0.1-0.3,0.2-0.3c0.3-0.4,0.5-0.9,0.6-1.3c0.1-1.1,0.3-2.2,0.4-3.2
		c0.1-1,0-2-0.2-3c-0.1-0.1-0.3-0.2-0.4-0.2c-0.5-0.2-1-0.2-1.5-0.2c-0.9,0-1.6,0.2-2.4,0.4c0,0-0.1,0.1-0.1,0.2
		c-0.5,0.7-0.8,1.5-1,2.4c0,0.8-0.2,1.5-0.4,2.2c0,0.4,0,0.7-0.1,0.9c-0.1,0.3-0.1,0.5-0.1,0.7c0,0,0,0,0,0.1
		c-0.1,0.2-0.1,0.5,0,0.8c0.1,0.1,0.2,0.2,0.4,0.3h0.1c0.1,0.2,0.3,0.3,0.5,0.4c0.6,0.1,1.2,0.2,1.7,0.3c0.2,0.8,0.3,1.7,0.5,2.5
		c-5.6,0.9-11.2,1.1-16.7,0.7c-0.2-0.2-0.2-0.2-0.2-0.3c0.5-6.6,2.5-12.6,5.9-17.9c0.9-1.3,2-2.5,3.1-3.7L23.1,12.541z M2.2,40.24
		c0.3-0.3,0.6-0.5,1-0.699c0.5,0.199,0.8,0.6,1,1c0,0.1,0,0.1,0,0.199c0.7,1.2,0.7,2.4,0,3.601c0,0.2-0.2,0.2-0.4,0.2
		c-0.9,0-1.5-0.5-1.9-1.301c0-0.1,0-0.1-0.1-0.199l0,0c0,0,0,0,0-0.101l0,0C1.3,41.841,1.4,40.94,2.2,40.24z M22.9,22.44
		c0.1,0,0.3,0.1,0.4,0.1c0.1,1,0.1,2-0.1,3.1c0,0.1,0,0.2,0,0.3c0.1,0.9-0.2,1.8-0.6,2.6c-0.2,0-0.3,0-0.6,0.1
		c-0.1,0.1-0.2,0.1-0.3,0c-0.8-0.1-1.5-0.3-2.3-0.4c-0.2,0-0.2,0-0.2-0.2c0,0,0-0.1,0.1-0.2c0-0.1,0-0.2,0-0.3
		c0.5-1.5,0.9-3,1.1-4.5c0.1-0.1,0.2-0.1,0.3-0.1c0.5-0.2,0.8-0.3,1.3-0.5c0.2,0,0.3,0,0.4,0c0-0.1,0-0.1,0.1-0.1c0,0,0.1,0,0.2,0
		C22.7,22.341,22.8,22.341,22.9,22.44z M40.5,52.24c0.2,0.2,0.6,0.4,1,0.7l0.4,0.601c0.3,1.6,0.1,3-0.7,4.199
		c-1.1,1.601-2.3,3-3.5,4.2c-2.5,0.601-5.2,0.8-7.8,0.4c-2.7-0.4-4.8-2-6.1-4.601c-0.5-0.8-1-1.8-1.3-2.8l0.3-0.7l0.6-0.199
		l0.4-1.101c2.4-2.2,5.4-3.399,8.7-3.2c0.3,0,0.7,0,1,0c0,0,0,0,0,0.101C36.1,50.041,38.4,50.94,40.5,52.24z M42.3,51.041
		c-0.5,0.399-1.1,0.3-1.7-0.301c-0.6-0.5-1.3-1-2.1-1.399c-5.6-2.101-10.9-1.5-15.9,2c1.9-4.601,5.3-7.101,10.1-7.3
		c1.2-0.101,2.5,0.1,3.7,0.5c3.1,1,5.1,3.199,6,6.5l0,0H42.3z M8.6,51.341c-1.1,0.399-2.1,0.7-3.1,1.2c-1.5,0.699-2.7,0.399-3.7-1
		v-2.5l0.6-0.301c0,0.2,0.1,0.301,0.3,0.601l0.1-0.101l6.9,1.801C9.4,51.24,8.9,51.341,8.6,51.341z"/>
	<path fill="#FFCB05" d="M99.5,9.241c-1.4-0.9-2.9-1.5-4.5-2c-5-1.6-10.101-2.7-15.301-3.2c-5.3-0.6-10.6-1-15.899-1.1
		c-4.1-0.2-8.3-0.2-12.5,0c-4.9,0.1-9.8,0.5-14.8,1.1c-2,0.3-3.9,0.6-5.8,1c-5.3,0.7-10.3,2.2-15.1,4.5l12.2,2
		c2.2,7.2,1.9,14.5-0.9,21.7c-0.4,0-0.7,0.101-1.1,0.101c-0.9,0.3-1.9,0.6-2.8,0.7c0,0.199,0,0.3,0.1,0.5c0.1,0,0.1,0.1,0.1,0.199
		c0.4,0.4,0.6,0.9,0.6,1.5c-0.4,0.801-1.1,1-2,0.301c0-0.301-0.1-0.601,0-1v-0.2c0-0.3,0-0.7-0.2-1c-5.5,1.899-11.3,2.2-17.4,0.8
		l-0.1,2.9l1.9,2.6v0.5c0.3,0.3,0.4,0.7,0.4,1.2c0.1,0.7,0,1.3-0.1,1.899c0,0.2,0,0.4-0.1,0.5c0,0.601-0.3,1.101-0.7,1.5
		c-0.1,0-0.1,0-0.1,0v0.101l-1,0.2v1.3l6.6,1.8l0.3,2.2L9.9,53.24h12.4L21,52.841l0.5-0.601c0-0.199,0-0.199,0-0.3
		c0.7-2.399,1.9-4.399,3.6-6.2c0.8-0.8,1.7-1.5,2.7-2c3.9-2,7.6-1.8,11.4,0.801c0.8,0.699,1.8,1.5,2.7,2.199c1.3,1,2,2.301,1.9,3.9
		l0.4,1.3H47c0.4,0.101,0.7,0.3,1.2,0.3c0.7-0.1,1.3,0,2,0.101c0.4,0.2,0.8,0.2,1.3,0.3c4.1,0.4,8.2,0.6,12.2,0.6
		c1.2-0.1,2.301-0.199,3.5-0.199c0.2,0,0.5,0,0.7,0c0.601,0,1.101,0,1.601,0.1s0.899,0.1,1.3,0.1c0.2,0.101,0.399,0.101,0.6,0.101
		c0.5,0.2,0.9,0.2,1.2,0l8.9,0.2c0.199-0.801,0.399-1.5,0.699-2.301c0.301-1,0.801-2,1.4-3c1.2-2,2.9-3.699,5.1-4.699
		c1.801-1,3.801-1.2,6-0.801c1.301,0.4,2.5,0.801,3.7,1.301c3.101,1.3,5,3.8,5.8,7.3l10.5-0.101l0.601-0.199l0.2-0.5l1.3-0.5
		l-0.3-3.7L110.7,44.74l-0.1-2.3c1.6-1.2,3.3-1.899,5.2-1.899l-0.9-7.5c-1,0-1.899-0.3-2.899-0.7c-1.5-0.8-3-1.8-4.801-2.8
		c-1.899-1.1-3.699-3.2-5.699-6.2S98.9,15.641,99.5,9.241z M97,12.44c-0.101,0.1-0.2,0.2-0.301,0.3c-0.199,0.1-0.3,0.2-0.6,0.3
		c-0.9-0.3-1.6-0.6-2.5-0.8c-0.9-0.3-1.8-0.5-2.6-0.8c-4.601-1.2-9.301-2.1-14-2.6c-14-1.5-27.8-1.5-41.601-0.1
		c-2.8,0.3-5.5,0.8-8,1.5c-2,0.7-3.9,0.6-5.5-0.2c0-0.1,0-0.3-0.1-0.3c0-0.2,0-0.2,0-0.4c0.1-0.1,0.1-0.2,0.1-0.3
		c0.5-0.5,1-0.8,1.6-1c1-0.3,2-0.5,3.2-0.5c1.1,0,2.2-0.1,3.4-0.3c5.6-0.8,11.1-1.6,16.7-2.3c2.9-0.1,5.9,0,8.8,0.1
		c7.4,0.5,14.7,0.9,22.1,1.3c6.801,0.4,13.301,1.9,19.5,4.5c0.101,0.1,0.101,0.2,0.2,0.4c0,0,0,0.1,0,0.3v0.2
		c-0.1,0.2-0.1,0.3-0.2,0.4C97.2,12.241,97,12.341,97,12.44z M89.2,12.94c1.5-0.2,3,0,4.5,0.5c0.801,0.3,1.7,0.9,2.5,1.6
		c0.5,1.8,0.801,3.7,1.301,5.6c0.5,2.4,0.3,4.7-0.5,6.7c-0.801,0.2-1.601,0.4-2.5,0.6c-2.101,0.5-4.2,0.4-6.301-0.3l-0.699-6.4
		c-0.2-0.7-0.301-1.5-0.4-2.2C86.7,16.541,87.4,14.541,89.2,12.94z M84.2,26.641c-0.1,0.3-0.199,0.6-0.199,0.9
		c-0.9,0.4-1.801,0.8-2.601,1.2c-1.7,0.6-3.5,0.8-5.2,0.4c-1.399-0.1-2.3-0.5-2.8-1.2l-0.2-1.9L73,25.741c0-0.7,0-1.5,0-2.1
		c-0.101-1.4-0.301-2.8-0.5-4.1c-0.5-2.5-0.4-4.9,0.399-7.2l1.2-0.8c1.4-0.1,2.9-0.2,4.4,0c2.899,0.5,4.6,2.4,5.1,5.5
		C84,20.241,84.2,23.44,84.2,26.641z M92.2,39.041l-0.5-0.801c0.101,0,0.301,0.101,0.4,0.301c0.1,0,0.2,0.1,0.3,0.199
		C92.3,38.841,92.2,38.94,92.2,39.041z M79.4,49.041c-0.2-0.301-0.6-0.5-0.8-0.601c-0.1-0.2-0.1-0.399-0.1-0.6
		c0-0.101,0-0.3,0.1-0.3c2.9-4.9,7.7-7.4,14.4-7.5c-1.601,1-3.5,1.699-5.301,2.399c-3.199,1.101-5.6,3.101-7.199,6.2
		c-0.2,0.1-0.5,0.2-0.7,0.3C79.7,48.94,79.5,48.94,79.4,49.041z M33.1,25.541l-0.5-1.3c-0.1-2.6,0-5.3,0.2-8c0-0.9,0.1-1.9,0.4-2.9
		c0.3-0.3,0.8-0.6,1.3-1c2.9-1.9,5.7-2.1,8.5-0.4l0.4,0.3c0.3,2.9,0.4,5.8,0.2,8.6c-0.1,0.9-0.2,1.9-0.4,2.9c-0.1,0.5-0.5,1-1,1.2
		C39,26.241,36,26.44,33.1,25.541z M30.9,40.74c1.2-0.3,1.8-0.399,1.9-0.3c-0.1,0.101-0.3,0.2-0.3,0.3c-0.1,0.301-0.2,0.5-0.4,0.601
		c-0.1,0.1-0.1,0.2-0.2,0.3c-4.1,0.9-7.5,2.7-10.1,5.8c-0.3,0.2-0.4,0.5-0.6,0.8c-0.2,0-0.4,0.101-0.5,0.101
		c-0.8,0.2-1.2-0.101-1.2-0.8c1.6-2.5,3.6-4.2,6-5.101C27.9,41.541,29.8,40.94,30.9,40.74z M49.4,21.541c0.1-2.3,0.5-3.8,1-4.2
		l0.1-1c0.1,0.5,0.3,0.7,0.8,0.5c6.1-2.1,11.899-1.4,17.3,2.1v0.6l0.4,0.6v1.6l0.3,0.3c0.899,2,1,3.7,0.5,5.2l0.399,0.6
		c1.5,7.899,1.601,15.899,0.5,23.8c-0.399,0.1-0.8,0.1-1.199,0.1c-0.301,0-0.601,0-0.9,0c-1.1,0.2-2.1,0.2-3.1,0.101
		c-1.801-0.101-3.5-0.3-5.101-0.2c-2.7,0-5.3-0.3-7.8-0.9c-0.1,0-0.2,0-0.4,0c-0.5,0-1-0.1-1.4-0.199l-0.6-6l0.2-1.101
		c-0.4-4.1-0.7-8.2-0.9-12.2C49.2,27.141,49.2,23.94,49.4,21.541z"/>
	<path fill="#FFF200" d="M96.7,12.741c0.101-0.1,0.2-0.2,0.301-0.3c0-0.1,0.199-0.2,0.199-0.3c0.101-0.1,0.101-0.2,0.2-0.4v-0.2
		c0-0.2,0-0.3,0-0.3c-0.1-0.2-0.1-0.3-0.2-0.4c-6.199-2.6-12.699-4.1-19.5-4.5C70.3,5.94,63,5.541,55.6,5.041
		c-2.9-0.1-5.9-0.2-8.8-0.1c-5.6,0.7-11.1,1.5-16.7,2.3c-1.2,0.2-2.3,0.3-3.4,0.3c-1.2,0-2.2,0.2-3.2,0.5c-0.6,0.2-1.1,0.5-1.6,1
		c0,0.1,0,0.2-0.1,0.3c0,0.2,0,0.2,0,0.4c0.1,0,0.1,0.2,0.1,0.3c1.6,0.8,3.5,0.9,5.5,0.2c2.5-0.7,5.2-1.2,8-1.5
		C49.2,7.341,63,7.341,77,8.841c4.699,0.5,9.399,1.4,14,2.6c0.8,0.3,1.699,0.5,2.6,0.8c0.9,0.2,1.6,0.5,2.5,0.8
		C96.4,12.94,96.5,12.841,96.7,12.741z"/>
	<path d="M93.7,13.44c-1.5-0.5-3-0.7-4.5-0.5c-1.8,1.6-2.5,3.6-2.1,6.1c0.1,0.7,0.2,1.5,0.4,2.2l0.699,6.4
		c2.101,0.7,4.2,0.8,6.301,0.3c0.899-0.2,1.699-0.4,2.5-0.6c0.8-2,1-4.3,0.5-6.7c-0.5-1.9-0.801-3.8-1.301-5.6
		C95.4,14.341,94.5,13.741,93.7,13.44z M89,14.94l5.399,0.3l0.601,1.1v0.7l1.699,5.8c0.2,1.7-0.5,2.9-2.1,3.4
		c-1.9,0.5-3.7,0.5-5.5-0.4v-4.9c-0.5-0.7-0.8-1.6-0.9-2.6c0-1,0.2-2.1,0.5-3.1L89,14.94z"/>
	<path fill="#0095DA" d="M94.4,15.241L89,14.94l-0.301,0.3c-0.3,1-0.5,2.1-0.5,3.1c0.101,1,0.4,1.9,0.9,2.6v4.9
		c1.8,0.9,3.6,0.9,5.5,0.4c1.6-0.5,2.3-1.7,2.1-3.4L95,17.041v-0.7L94.4,15.241z M90.1,17.241c0-0.2,0-0.4,0-0.6
		c0.1-0.1,0.1-0.2,0.3-0.3c0.101-0.1,0.3-0.2,0.4-0.3c0.2,0.1,0.399,0.2,0.6,0.3c0.101,0.1,0.2,0.2,0.3,0.3
		c-0.199,1.1-0.3,2.3-0.3,3.5c0,0.2,0,0.4,0,0.6c-0.399,0-0.7-0.2-0.899-0.5c0-0.2-0.101-0.3-0.301-0.4
		C90,19.041,90,18.141,90.1,17.241z"/>
	<path fill="#C7EAFB" d="M90.1,16.641c0,0.2,0,0.4,0,0.6c-0.1,0.9-0.1,1.8,0.1,2.6c0.2,0.1,0.301,0.2,0.301,0.4
		c0.199,0.3,0.5,0.5,0.899,0.5c0-0.2,0-0.4,0-0.6c0-1.2,0.101-2.4,0.3-3.5c-0.1-0.1-0.199-0.2-0.3-0.3c-0.2-0.1-0.399-0.2-0.6-0.3
		c-0.101,0.1-0.3,0.2-0.4,0.3C90.2,16.44,90.2,16.541,90.1,16.641z"/>
	<path d="M84,27.541c0-0.3,0.1-0.6,0.199-0.9c0-3.2-0.199-6.4-0.6-9.6c-0.5-3.1-2.2-5-5.1-5.5c-1.5-0.2-3-0.1-4.4,0l-1.2,0.8
		c-0.8,2.3-0.899,4.7-0.399,7.2c0.199,1.3,0.399,2.7,0.5,4.1c0,0.6,0,1.4,0,2.1l0.199,0.3l0.2,1.9c0.5,0.7,1.4,1.1,2.8,1.2
		c1.7,0.4,3.5,0.2,5.2-0.4C82.2,28.341,83.1,27.94,84,27.541z M81.2,14.741v0.6l0.301,0.7v0.6l1,9.9c-2.101,1-4.301,1.3-6.7,0.8
		c-0.3-0.1-0.601-0.2-1-0.3l-1-12.8l0.899-1.5c1.801-0.4,3.5,0,5,1C80.2,14.041,80.7,14.341,81.2,14.741z"/>
	<path fill="#0095DA" d="M81.2,15.341v-0.6c-0.5-0.4-1-0.7-1.5-1c-1.5-1-3.199-1.4-5-1l-0.899,1.5l1,12.8c0.399,0.1,0.7,0.2,1,0.3
		c2.399,0.5,4.6,0.2,6.7-0.8l-1-9.9v-0.6L81.2,15.341z M75,15.44c0.1-0.2,0.199-0.4,0.399-0.6c0-0.1,0.101-0.2,0.2-0.3
		c0.2-0.1,0.4-0.2,0.6-0.2v-0.1c0.101,0.1,0.301,0.1,0.4,0.3c0.1,0,0.1,0.2,0.2,0.2c-0.3,1.5-0.2,3,0.2,4.5c0,0.2,0,0.3,0.1,0.4
		c-0.1,0.3-0.1,0.6-0.4,0.9c0,0.1-0.1,0.2-0.199,0.2c-1.2-1.4-1.801-3-1.601-5C75,15.641,75,15.541,75,15.44z"/>
	<path fill="#C7EAFB" d="M75.4,14.841c-0.2,0.2-0.3,0.4-0.399,0.6c0,0.1,0,0.2-0.101,0.3c-0.2,2,0.4,3.6,1.601,5
		c0.1,0,0.199-0.1,0.199-0.2c0.301-0.3,0.301-0.6,0.4-0.9c-0.1-0.1-0.1-0.2-0.1-0.4c-0.4-1.5-0.5-3-0.2-4.5
		c-0.101,0-0.101-0.2-0.2-0.2c-0.1-0.2-0.3-0.2-0.4-0.3v0.1c-0.199,0-0.399,0.1-0.6,0.2C75.5,14.641,75.4,14.741,75.4,14.841z"/>
	<path fill="#FFF200" d="M91.7,38.24l0.5,0.801c0-0.101,0.101-0.2,0.2-0.301c-0.1-0.1-0.2-0.199-0.3-0.199
		C92,38.341,91.8,38.24,91.7,38.24z"/>
	<path fill="#FFF200" d="M78.6,48.44c0.2,0.101,0.6,0.3,0.8,0.601c0.101-0.101,0.3-0.101,0.4-0.101c0.2-0.1,0.5-0.2,0.7-0.3
		c1.6-3.1,4-5.1,7.199-6.2c1.801-0.7,3.7-1.399,5.301-2.399c-6.7,0.1-11.5,2.6-14.4,7.5c-0.1,0-0.1,0.199-0.1,0.3
		C78.5,48.041,78.5,48.24,78.6,48.44z"/>
	<path d="M32.6,24.241l0.5,1.3c2.9,0.9,5.9,0.7,9.1-0.6c0.5-0.2,0.9-0.7,1-1.2c0.2-1,0.3-2,0.4-2.9c0.2-2.8,0.1-5.7-0.2-8.6
		l-0.4-0.3c-2.8-1.7-5.6-1.5-8.5,0.4c-0.5,0.4-1,0.7-1.3,1c-0.3,1-0.4,2-0.4,2.9C32.6,18.94,32.5,21.641,32.6,24.241z M35.4,14.041
		l0.5-0.8l5.6-0.5l0.5,0.6l-0.1,10l-1.4,1.1h-6.1c-1-3.3-1-6.7,0-10.2L35.4,14.041z"/>
	<path fill="#0095DA" d="M35.9,13.241l-0.5,0.8l-1,0.2c-1,3.5-1,6.9,0,10.2h6.1l1.4-1.1l0.1-10l-0.5-0.6L35.9,13.241z M36.6,14.541
		c0.2,0,0.2,0,0.4-0.1v-0.1c0.2,0.1,0.3,0.2,0.4,0.3c0.1,0.1,0.2,0.1,0.3,0.3c0,0.4-0.2,0.8-0.6,1.3c-0.1,0-0.2,0.1-0.2,0.3
		c0,0.9-0.2,1.7-0.8,2.5c-0.1,0.2-0.1,0.2-0.1,0.3c-0.2,0.1-0.3,0.1-0.4,0.2c-0.2-0.4-0.2-0.7-0.4-1c0-0.2-0.1-0.3-0.2-0.3
		c0.2-1.3,0.7-2.5,1.4-3.5C36.4,14.641,36.5,14.541,36.6,14.541z"/>
	<path fill="#C7EAFB" d="M37,14.44c-0.2,0.1-0.2,0.1-0.4,0.1c-0.1,0-0.2,0.1-0.2,0.2c-0.7,1-1.2,2.2-1.4,3.5c0.1,0,0.2,0.1,0.2,0.3
		c0.2,0.3,0.2,0.6,0.4,1c0.1-0.1,0.2-0.1,0.4-0.2c0-0.1,0-0.1,0.1-0.3c0.6-0.8,0.8-1.6,0.8-2.5c0-0.2,0.1-0.3,0.2-0.3
		c0.4-0.5,0.6-0.9,0.6-1.3c-0.1-0.2-0.2-0.2-0.3-0.3c-0.1-0.1-0.2-0.2-0.4-0.3V14.44z"/>
	<path fill="#FFF200" d="M32.8,40.44c-0.1-0.1-0.7,0-1.9,0.3c-1.1,0.2-3,0.801-5.4,1.7c-2.4,0.9-4.4,2.601-6,5.101
		c0,0.699,0.4,1,1.2,0.8c0.1,0,0.3-0.101,0.5-0.101c0.2-0.3,0.3-0.6,0.6-0.8c2.6-3.1,6-4.899,10.1-5.8c0.1-0.1,0.1-0.2,0.2-0.3
		c0.2-0.101,0.3-0.3,0.4-0.601C32.5,40.641,32.7,40.541,32.8,40.44z"/>
	<path d="M50.4,17.341c-0.5,0.4-0.9,1.9-1,4.2c-0.2,2.4-0.2,5.6,0.1,9.7c0.2,4,0.5,8.1,0.9,12.2l-0.2,1.101l0.6,6
		c0.4,0.1,0.9,0.199,1.4,0.199v-0.1c0.2,0.1,0.3,0.1,0.4,0.1c2.5,0.601,5.1,0.9,7.8,0.9c1.601-0.1,3.3,0.1,5.101,0.2
		c1,0.1,2,0.1,3.1-0.101c0.2,0,0.6-0.1,0.9-0.199l0,0c0,0,0,0.1,0,0.199c0.399,0,0.8,0,1.199-0.1c1.101-7.9,1-15.9-0.5-23.8
		l-0.399-0.6c0.5-1.5,0.399-3.2-0.5-5.2l-0.3-0.3v-1.6l-0.4-0.6v-0.6c-5.4-3.5-11.2-4.2-17.3-2.1c-0.5,0.2-0.7,0-0.8-0.5
		L50.4,17.341z M50.6,18.741l0.6-1h2.5c-0.5,5.3-0.3,10.7,0.4,16.2c0.6,3.9,0.9,8,1,12c0.1,1.4,0.1,2.8,0.1,4.3
		c-1-0.199-2-0.3-3-0.5v-0.5l-0.4-0.699l-0.1-5.101l-0.3-0.399L50.6,18.741z M67.2,18.94l0.601,3.1c0.899,3,1.399,6.2,1.5,9.5
		c0.2,5,0.3,10.1,0.2,15.2c0,1.2,0,2.301,0,3.5l0,0c-0.101,0-0.301,0.101-0.5,0.2c-0.2,0.101-0.301,0.101-0.4,0.2
		c-0.8-0.1-1.6-0.1-2.4-0.1l-2-32.601L67.2,18.94z M59.7,17.241l3.9,0.6l1.2,32.7c-1.3,0-2.601,0-4,0L59.7,17.241z M54.1,17.741
		l4.9-0.5l0.6,33.3c-1.1,0-2.2-0.101-3.2-0.301L54.1,17.741z"/>
	<path fill="#F58220" d="M51.2,17.741l-0.6,1l0.8,24.3l0.3,0.399l0.1,5.101l0.4,0.699v0.5c1,0.2,2,0.301,3,0.5
		c0-1.5,0-2.899-0.1-4.3c-0.1-4-0.4-8.1-1-12c-0.7-5.5-0.9-10.9-0.4-16.2H51.2z"/>
	<path fill="#FAA61A" d="M67.8,22.041l-0.601-3.1l-3-1l2,32.601c0.801,0,1.601,0,2.4,0.1c0.1-0.1,0.2-0.1,0.4-0.2
		c0.199-0.1,0.399-0.2,0.5-0.2l0,0c0-1.199,0-2.3,0-3.5c0.1-5.1,0-10.199-0.2-15.2C69.2,28.241,68.7,25.041,67.8,22.041z"/>
	<path fill="#F58220" d="M63.6,17.841l-3.9-0.6l1.1,33.3c1.399,0,2.7,0,4,0L63.6,17.841z"/>
	<path fill="#FAA61A" d="M59,17.241l-4.9,0.5l2.3,32.5c1,0.2,2.1,0.301,3.2,0.301L59,17.241z"/>
	<path fill="#FAA61A" d="M69.5,51.541c-0.301,0.1-0.7,0.199-0.9,0.199c0.3,0,0.6,0,0.9,0C69.5,51.641,69.5,51.541,69.5,51.541
		L69.5,51.541z"/>
	<path fill="#F58220" d="M52.2,50.74c0.2,0,0.3,0,0.4,0c-0.1,0-0.2,0-0.4-0.1V50.74z"/>
	<path fill="#FAA61A" d="M67.9,53.041c-0.2,0-0.5,0-0.7,0L69.5,53.24c0,0,0,0,0-0.1C69,53.041,68.5,53.041,67.9,53.041z"/>
	<path fill="#0095DA" d="M102.2,17.741c0.601,2,1.4,4,2.301,5.8v0.7c0.8,0.8,1.5,1.5,2.3,2.3c2.2,2.1,4.7,3.7,7.7,4.7
		c-0.801-3.1-2-6.1-3.5-9c-2.5-4.9-5.9-9-10.2-12.2C101,12.741,101.5,15.241,102.2,17.741z M103,13.541L103,13.541
		c2.199,1.5,4,3.7,5.199,6.3c0,0.1,0,0.2,0,0.3c0.301,0.2,0.601,0.6,0.801,0.9c0.199,0.3,0.199,0.7,0.3,1c-0.4,0.1-0.7-0.1-0.8-0.5
		c-0.2-0.3-0.4-0.6-0.7-1c-2-1.8-3.8-4-5.4-6.3c0-0.1,0-0.2,0-0.3l0.101-0.2c0.1,0,0.1,0,0.199,0
		C102.7,13.641,102.9,13.641,103,13.541z"/>
	<path fill="#C7EAFB" d="M103,13.541L103,13.541c-0.101,0.1-0.301,0.1-0.301,0.2c-0.1,0-0.1,0-0.199,0l-0.101,0.2c0,0.1,0,0.2,0,0.3
		c1.601,2.3,3.4,4.5,5.4,6.3c0.3,0.4,0.5,0.7,0.7,1c0.1,0.4,0.399,0.6,0.8,0.5c-0.101-0.3-0.101-0.7-0.3-1
		c-0.2-0.3-0.5-0.7-0.801-0.9c0-0.1,0-0.2,0-0.3C107,17.241,105.2,15.041,103,13.541z"/>
	<path fill="#C7C4E2" d="M116.2,44.541h2l0.2-0.301l1.101-1.399l-1.301-1.8l-2.1,1L112,42.94l4.3,1.4L116.2,44.541z"/>
	<path fill="#F58220" d="M99.5,45.94c-0.5-0.5-1.101-0.899-1.801-1.399c-1,0.399-2.199,0.5-3.5,0.399c-1.199-0.2-2.399-0.2-3.5,0
		c-1,0.2-1.899,0.601-2.699,1.101c-3,1.6-4.801,4.199-5.5,7.5C84.2,51.24,86.2,49.44,88.8,48.24c2.1-0.899,4.2-1.3,6.6-1.199
		c2.8,1.1,5.2,2.699,7.3,4.6h0.2c-0.1-1.9-0.899-3.6-2.7-5.1C100,46.24,99.7,46.041,99.5,45.94z"/>
	<path fill="#85849A" d="M99.5,51.74c-0.5-0.399-1-0.8-1.5-1.199c-0.9-0.9-2-1.4-3.301-1.601c-3.5-0.2-6.5,1-9,3.601
		c-0.3,0.199-0.5,0.5-0.8,0.899l-1.1,1.601L84.7,58.74c0.4,0.301,0.9,0.601,1.301,1c-0.2-0.5-0.5-1-0.601-1.5
		c-0.399-1.399-0.6-2.8-0.2-4.199c0-0.101,0.2-0.2,0.301-0.301c0.199,0,0.199-0.1,0.399-0.199c0.2,0.1,0.4,0.199,0.601,0.199
		c0.199,2.601,1,5,2.5,7.101c0,0.1,0.1,0.2,0.1,0.3c-0.1,0.1-0.3,0.1-0.4,0.1c0.801,0.4,1.5,0.801,2.301,1.2
		c1.199,0.601,2.5,0.7,3.699,0.5c2.301-0.6,4-1.7,5.301-3.7c1.1-1.5,1.699-3,2.1-4.8l-0.4-1.1C100.8,53.041,100.1,52.44,99.5,51.74z
		 M98,53.541c0,0,0.1,0.199,0.199,0.199c0,1.601-0.699,3-2,4.2c-0.1,0-0.199,0-0.199,0.101c0-0.801,0.199-1.5,0.399-2.2l-1.5,2.6
		c-2.899,0.601-4.8-0.5-5.5-3.399l0.9-2.5l1.1-0.801c1.601-1.1,3.3-1,4.8,0.5l0.601,1.4c0-0.1,0.1-0.3,0.2-0.4l0,0
		c0.199-0.1,0.199-0.1,0.399,0H97.5C97.7,53.24,97.8,53.341,98,53.541z"/>
	<path fill="#7D98BB" d="M98.2,53.74c-0.1,0-0.199-0.199-0.199-0.199c-0.2-0.2-0.301-0.301-0.5-0.301H97.4c-0.2-0.1-0.2-0.1-0.399,0
		l0,0c-0.101,0.101-0.2,0.301-0.2,0.4s0,0.1,0,0.1c0,0.301,0.1,0.5,0.2,0.7c0,0.101,0,0.2,0,0.3c-0.301,0.301-0.5,0.7-0.601,1.101
		c-0.2,0.7-0.399,1.399-0.399,2.2c0-0.101,0.1-0.101,0.199-0.101C97.5,56.74,98.2,55.341,98.2,53.74z"/>
	<path d="M96.8,53.74c0,0,0,0,0-0.1l-0.601-1.4c-1.5-1.5-3.199-1.6-4.8-0.5l-1.1,0.801l-0.9,2.5c0.7,2.899,2.601,4,5.5,3.399
		l1.5-2.6c0.101-0.4,0.3-0.8,0.601-1.101c0-0.1,0-0.199,0-0.3C96.9,54.24,96.8,54.041,96.8,53.74z M93,57.041
		c-0.601,0-1.2-0.301-1.601-0.7c-0.5-0.4-0.7-0.9-0.7-1.5c0-0.601,0.2-1.101,0.7-1.601c0.4-0.399,1-0.6,1.601-0.5
		c0.699-0.1,1.199,0.101,1.699,0.5c0.5,0.5,0.801,1,0.801,1.601c0,0.6-0.301,1.1-0.801,1.5C94.2,56.74,93.7,57.041,93,57.041z"/>
	<path fill="#C7C4E2" d="M91.4,56.341c0.4,0.399,1,0.7,1.601,0.7c0.699,0,1.199-0.301,1.699-0.7c0.5-0.4,0.801-0.9,0.801-1.5
		c0-0.601-0.301-1.101-0.801-1.601c-0.5-0.399-1-0.6-1.699-0.5c-0.601-0.1-1.2,0.101-1.601,0.5c-0.5,0.5-0.7,1-0.7,1.601
		C90.7,55.44,90.9,55.94,91.4,56.341z"/>
	<path fill="#C7C4E2" d="M86.5,53.74c-0.2,0-0.4-0.1-0.601-0.199c-0.2,0.1-0.2,0.199-0.399,0.199
		c-0.101,0.101-0.301,0.2-0.301,0.301C84.8,55.44,85,56.841,85.4,58.24c0.101,0.5,0.4,1,0.601,1.5c0.699,1,1.6,1.5,2.699,1.5
		c0.101,0,0.301,0,0.4-0.1c0-0.1-0.1-0.2-0.1-0.3C87.5,58.74,86.7,56.341,86.5,53.74z"/>
	<path fill="#0095DA" d="M26.8,13.841l-3.7-1.3l-9.6-1.2c-1.1,1.2-2.2,2.4-3.1,3.7c-3.4,5.3-5.4,11.3-5.9,17.9c0,0.1,0,0.1,0.2,0.3
		c5.5,0.4,11.1,0.2,16.7-0.7c-0.2-0.8-0.3-1.7-0.5-2.5c-0.5-0.1-1.1-0.2-1.7-0.3c-0.2-0.1-0.4-0.2-0.5-0.4h-0.1
		c-0.2-0.1-0.3-0.2-0.4-0.3c-0.1-0.3-0.1-0.6,0-0.8c0-0.1,0-0.1,0-0.1c0-0.2,0-0.4,0.1-0.7c0.1-0.2,0.1-0.5,0.1-0.9
		c0.2-0.7,0.4-1.4,0.4-2.2c0.2-0.9,0.5-1.7,1-2.4c0-0.1,0.1-0.2,0.1-0.2c0.8-0.2,1.5-0.4,2.4-0.4c0.5,0,1,0,1.5,0.2
		c0.1,0,0.3,0.1,0.4,0.2c0.2,1,0.3,2,0.2,3c-0.1,1-0.3,2.1-0.4,3.2c-0.1,0.4-0.3,0.9-0.6,1.3c-0.1,0-0.1,0.1-0.2,0.3l0,0
		c-0.1,0-0.1,0.1-0.2,0.2c0,0,0,0-0.1,0l0,0c-0.2,0.1-0.4,0.2-0.5,0.1c-0.1,0.1-0.2,0.1-0.4,0.1c0.2,0.8,0.3,1.6,0.5,2.4
		c1-0.1,2.2-0.3,3.2-0.5l0.3-1.6C27.5,24.94,27.8,19.541,26.8,13.841z M14.2,12.141c0.3,0.1,0.6,0.1,0.8,0.3
		c0.2,0.1,0.3,0.1,0.3,0.3c0,0.1,0,0.3,0,0.5c-0.1,0.1-0.1,0.3-0.2,0.4c-3.4,3.6-5.5,7.9-6.2,13.1c0,0.3-0.1,0.5-0.1,0.7
		c-0.1,0.1-0.2,0.1-0.3,0.2s-0.2,0.3-0.5,0.3c-0.2-0.2-0.5-0.4-0.7-0.5c0.3-5.9,2.5-10.9,6.5-15C13.8,12.241,14,12.241,14.2,12.141z
		 M6.3,30.94c0-0.2,0-0.4,0-0.7c0,0,0.1,0,0.1-0.1c0.2-0.1,0.3-0.1,0.4-0.2c0,0,0,0,0-0.1c0.2,0.1,0.4,0.1,0.6,0.1
		c0.1,0.1,0.3,0.3,0.4,0.4c0,0,0,0.2,0,0.3c0.1,0.4,0,0.7-0.4,0.9c-0.1,0.2-0.2,0.2-0.4,0.4c-0.1,0-0.3,0-0.5,0
		c-0.1-0.2-0.2-0.2-0.2-0.4C6.3,31.341,6.3,31.141,6.3,30.94z"/>
	<path fill="#C7EAFB" d="M15,12.44c-0.2-0.2-0.5-0.2-0.8-0.3c-0.2,0.1-0.4,0.1-0.4,0.3c-4,4.1-6.2,9.1-6.5,15
		c0.2,0.1,0.5,0.3,0.7,0.5c0.3,0,0.4-0.2,0.5-0.3s0.2-0.1,0.3-0.2c0-0.2,0.1-0.4,0.1-0.7c0.7-5.2,2.8-9.5,6.2-13.1
		c0.1-0.1,0.1-0.3,0.2-0.4c0-0.2,0-0.4,0-0.5C15.3,12.541,15.2,12.541,15,12.44z"/>
	<path fill="#C7EAFB" d="M6.3,30.241c0,0.3,0,0.5,0,0.7c0,0.2,0,0.4,0,0.6c0,0.2,0.1,0.2,0.2,0.4c0.2,0,0.4,0,0.5,0
		c0.2-0.2,0.3-0.2,0.4-0.4c0.4-0.2,0.5-0.5,0.4-0.9c0-0.1,0-0.3,0-0.3c-0.1-0.1-0.3-0.3-0.4-0.4c-0.2,0-0.4,0-0.6-0.1
		c0,0.1,0,0.1,0,0.1c-0.1,0.1-0.2,0.1-0.4,0.2C6.4,30.241,6.3,30.241,6.3,30.241z"/>
	<path fill="#FFF200" d="M3.2,39.541c-0.4,0.199-0.7,0.399-1,0.699c-0.8,0.7-0.9,1.601-0.4,2.7l0,0c0,0.101,0,0.101,0,0.101l0,0
		c0.1,0.1,0.1,0.1,0.1,0.199c0.4,0.801,1,1.301,1.9,1.301c0.2,0,0.4,0,0.4-0.2c0.7-1.2,0.7-2.4,0-3.601c0-0.1,0-0.1,0-0.199
		C4,40.141,3.7,39.74,3.2,39.541z"/>
	<path fill="#FFCB05" d="M23.3,22.541c-0.1,0-0.3-0.1-0.4-0.1c-0.1-0.1-0.2-0.1-0.2-0.1c-0.1,0-0.2,0-0.2,0c-0.1,0-0.1,0-0.1,0.1
		c-0.1,0-0.2,0-0.4,0c-0.5,0.2-0.8,0.3-1.3,0.5c-0.1,0-0.2,0-0.3,0.1c-0.2,1.5-0.6,3-1.1,4.5c0,0.1,0,0.2,0,0.3
		c-0.1,0.1-0.1,0.2-0.1,0.2c0,0.2,0,0.2,0.2,0.2c0.8,0.1,1.5,0.3,2.3,0.4c0.1,0.1,0.2,0.1,0.3,0c0.3-0.1,0.4-0.1,0.6-0.1
		c0.4-0.8,0.7-1.7,0.6-2.6c0-0.1,0-0.2,0-0.3C23.4,24.541,23.4,23.541,23.3,22.541z M21.5,23.141c0,0,0,0,0,0.1
		c-0.2,0.8-0.5,1.5-0.7,2.4c0,0.1,0,0.1-0.1,0.1c0,0.1-0.2,0.1-0.2,0.1c-0.1,0.1-0.1,0.1-0.1,0.1c-0.3-0.8-0.2-1.6,0.1-2.4
		c0.2-0.3,0.4-0.5,0.8-0.6C21.4,23.041,21.4,23.041,21.5,23.141z M20.4,26.341c0.2,0.1,0.4,0.2,0.4,0.4c0,0,0,0,0,0.1
		c-0.3,0.4-0.5,0.4-0.8,0.1c0,0,0,0,0-0.1c0-0.1,0-0.1,0-0.1c0-0.1,0-0.1,0-0.2l0,0c0.1,0,0.1,0,0.2-0.1
		C20.2,26.44,20.3,26.44,20.4,26.341z"/>
	<path fill="#FFF200" d="M21.5,23.241c0-0.1,0-0.1,0-0.1c-0.1-0.1-0.1-0.1-0.2-0.2c-0.4,0.1-0.6,0.3-0.8,0.6
		c-0.3,0.8-0.4,1.6-0.1,2.4c0,0,0,0,0.1-0.1c0,0,0.2,0,0.2-0.1c0.1,0,0.1,0,0.1-0.1C21,24.741,21.3,24.041,21.5,23.241z"/>
	<path fill="#FFF200" d="M20.8,26.741c0-0.2-0.2-0.3-0.4-0.4c-0.1,0.1-0.2,0.1-0.2,0.1c-0.1,0.1-0.1,0.1-0.2,0.1l0,0
		c0,0.1,0,0.1,0,0.2c0,0,0,0,0,0.1c0,0.1,0,0.1,0,0.1c0.3,0.3,0.5,0.3,0.8-0.1C20.8,26.741,20.8,26.741,20.8,26.741z"/>
	<path fill="#85849A" d="M41.5,52.94c-0.4-0.3-0.8-0.5-1-0.7c-2.1-1.3-4.4-2.199-7-2.399c0-0.101,0-0.101,0-0.101c-0.3,0-0.7,0-1,0
		c-3.3-0.199-6.3,1-8.7,3.2l-0.4,1.101l-0.6,0.199l-0.3,0.7c0.3,1,0.8,2,1.3,2.8c1.3,2.601,3.4,4.2,6.1,4.601
		c2.6,0.399,5.3,0.2,7.8-0.4c1.2-1.2,2.4-2.6,3.5-4.2c0.8-1.199,1-2.6,0.7-4.199L41.5,52.94z M37.6,53.541
		c0.1,0,0.2,0.199,0.3,0.199c0.1,0.301,0.1,0.601,0.1,1c-0.1,0.101-0.1,0.2-0.1,0.301c-0.5,0.699-1,1.3-1.5,2
		c-0.6,0.199-1,0.3-1.6,0.5c0.6-1,1.2-2,2-2.9c-0.1-0.2-0.1-0.4-0.1-0.6c-0.1-0.101-0.1-0.301-0.1-0.301
		c0.2-0.199,0.3-0.399,0.4-0.5c0.1,0,0.2,0,0.2,0C37.4,53.341,37.4,53.44,37.6,53.541z M24.9,52.841c0.1-0.101,0.4-0.101,0.5-0.101
		c0.5,0.801,0.8,1.5,0.6,2.5c-0.1,0.101-0.1,0.2-0.1,0.301c0.4,1.199,1.1,2.199,2.3,2.899c0.2,0.601,0.6,1.101,0.8,1.601
		c-0.2,0.199-0.6,0.3-0.8,0.5c-2-1-3.5-2.5-4.4-4.601c0.4-0.8,0.6-1.7,0.7-2.6c0-0.101,0-0.2,0.1-0.3
		C24.7,52.94,24.8,52.841,24.9,52.841z M32.5,49.94c0.3,0,0.7,0.101,1,0.3c2.1,0.801,2.9,2.301,2.5,4.7l-2.3,2.101
		c-0.7,0-1.3,0-1.8,0c-1.4,0-2.3-0.7-2.7-2c-0.4-1.101-0.2-2.2,0.5-3.101C30.4,50.94,31.4,50.24,32.5,49.94z"/>
	<path fill="#7D98BB" d="M37.9,53.74c-0.1,0-0.2-0.199-0.3-0.199c-0.2-0.101-0.2-0.2-0.4-0.301c0,0-0.1,0-0.2,0
		c-0.1,0.101-0.2,0.301-0.4,0.5c0,0,0,0.2,0.1,0.301c0,0.199,0,0.399,0.1,0.6c-0.8,0.9-1.4,1.9-2,2.9c0.6-0.2,1-0.301,1.6-0.5
		c0.5-0.7,1-1.301,1.5-2c0-0.101,0-0.2,0.1-0.301C38,54.341,38,54.041,37.9,53.74z"/>
	<path fill="#C7C4E2" d="M25.4,52.74c-0.1,0-0.4,0-0.5,0.101c-0.1,0-0.2,0.1-0.3,0.2c-0.1,0.1-0.1,0.199-0.1,0.3
		c-0.1,0.899-0.3,1.8-0.7,2.6c0.9,2.101,2.4,3.601,4.4,4.601c0.2-0.2,0.6-0.301,0.8-0.5c-0.2-0.5-0.6-1-0.8-1.601
		c-1.2-0.7-1.9-1.7-2.3-2.899c0-0.101,0-0.2,0.1-0.301C26.2,54.24,25.9,53.541,25.4,52.74z"/>
	<path d="M33.5,50.24c-0.3-0.199-0.7-0.3-1-0.3c-1.1,0.3-2.1,1-2.8,2c-0.7,0.9-0.9,2-0.5,3.101c0.4,1.3,1.3,2,2.7,2
		c0.5,0,1.1,0,1.8,0L36,54.94C36.4,52.541,35.6,51.041,33.5,50.24z M34.8,53.74c0,0.5-0.2,1-0.6,1.5c-0.5,0.301-1,0.5-1.7,0.601
		c-0.7-0.101-1.1-0.3-1.6-0.601c-0.5-0.5-0.6-1-0.6-1.5c0-0.699,0.1-1.199,0.6-1.5c0.5-0.5,0.9-0.699,1.6-0.699
		c0.7,0,1.2,0.199,1.7,0.699C34.6,52.541,34.8,53.041,34.8,53.74z"/>
	<path fill="#C7C4E2" d="M34.2,55.24c0.4-0.5,0.6-1,0.6-1.5c0-0.699-0.2-1.199-0.6-1.5c-0.5-0.5-1-0.699-1.7-0.699
		c-0.7,0-1.1,0.199-1.6,0.699c-0.5,0.301-0.6,0.801-0.6,1.5c0,0.5,0.1,1,0.6,1.5c0.5,0.301,0.9,0.5,1.6,0.601
		C33.2,55.74,33.7,55.541,34.2,55.24z"/>
	<path fill="#F58220" d="M40.6,50.74c0.6,0.601,1.2,0.7,1.7,0.301h0.1c-0.9-3.301-2.9-5.5-6-6.5c-1.2-0.4-2.5-0.601-3.7-0.5
		c-4.8,0.199-8.2,2.699-10.1,7.3c5-3.5,10.3-4.101,15.9-2C39.3,49.74,40,50.24,40.6,50.74z"/>
	<path fill="#C7C4E2" d="M5.5,52.541c1-0.5,2-0.801,3.1-1.2c0.3,0,0.8-0.101,1.1-0.3L2.8,49.24l-0.1,0.101
		c-0.2-0.3-0.3-0.4-0.3-0.601l-0.6,0.301v2.5C2.8,52.94,4,53.24,5.5,52.541z"/>
</g>
</svg>
