<?xml version="1.0" encoding="utf-8"?>
<!-- Generator: Adobe Illustrator 13.0.0, SVG Export Plug-In . SVG Version: 6.00 Build 14948)  -->
<svg version="1.2" baseProfile="tiny" id="Layer_1" xmlns="http://www.w3.org/2000/svg" xmlns:xlink="http://www.w3.org/1999/xlink"
	 x="0px" y="0px" width="101.241px" height="89.28px" viewBox="0 0 101.241 89.28" xml:space="preserve">
<g>
	<path d="M19.599,0c-0.2,0.1-0.3,0.1-0.4,0.1c-0.2,0.1-0.5,0.3-0.9,0.4c-0.3,0.3-0.6,0.7-0.8,1c-0.1,0.2-0.3,0.4-0.3,0.5
		c0,0.3,0,0.5,0,0.6c-0.1,0.7,0,1.2,0.4,1.6c1.3,1.7,3.1,2.3,5.1,1.8c0.2,0,0.2,0.2,0.3,0.3c0,0,0,0.1,0,0.2
		c0.1,0.1,0.2,0.2,0.3,0.3c0,0.1,0,0.2,0.1,0.2c-0.1,0.2,0,0.3,0.1,0.5c0,0.1,0.1,0.3,0.2,0.5c0,0,0,0.1,0,0.3c0,0,0,0,0,0.1
		s0,0.1,0,0.2c0.1,0.1,0.2,0.2,0.3,0.2c-0.1,0-0.1,0,0,0.1c0,0.1,0,0.2,0,0.3c0.2,0.3,0.3,0.6,0.3,1c0.1,0.2,0.1,0.4,0.1,0.7
		c0,0.1,0,0.1,0,0.1c0.1,0.1,0.1,0.2,0.1,0.3c0,0,0,0,0.2,0.1c0,0.1,0,0.1,0,0.2c0,0,0,0.1,0,0.2c0,0,0,0,0,0.2c0,0,0,0.1,0.1,0.2
		c0.1,0,0.1,0,0.1,0.1c0.1,1.4,0.3,3,0.6,4.4c0.2,0.9,0.4,1.9,0.7,2.8c0.1,0.1,0.1,0.1,0.2,0.1c0.1,0.1,0.1,0.2,0.1,0.2
		c0.1,0.2,0.2,0.3,0.2,0.4c0,0.1,0,0.1,0.2,0.1c0.1,0.2,0.3,0.5,0.4,0.6c0.3,0.3,0.5,0.5,0.7,0.7c0.1,0,0.1,0.1,0.2,0.2
		c-0.6,0.8-1.2,1.8-1.5,2.7c-0.2,0.5-0.5,1-0.7,1.3c-0.1,0.2-0.1,0.5-0.1,0.6c-0.2,0.1-0.3,0.2-0.4,0.4c-1.4,2.4-2.6,4.8-3.6,7.4
		c-1.6,4.1-3.2,8.2-4.9,12.3c0,0.101,0,0.101,0,0.2c0,0.101,0,0.101,0.1,0.2c-0.1,0.1-0.1,0.1-0.1,0.1c-0.1,0.101-0.1,0.2-0.1,0.301
		c0,0,0,0.199,0,0.3l0,0c-1,0.1-2,0.399-3,0.7c-0.7,0.199-1.4,0.5-2.1,0.699c-0.9,0.301-1.5,0.801-1.8,1.7c-0.3-0.1-0.6-0.2-0.9-0.3
		c0,0.1,0,0.1,0,0.1c-0.1,0-0.2,0-0.4,0c0,0.101-0.1,0.101-0.2,0.101c-2.6,2-4.5,4.6-5.8,7.7c-2.2,5.5-3,11.199-2.6,17.399
		c0.2,0.3,0.4,0.5,0.5,0.8c0.3,0.301,0.3,0.801,0.2,1.301c0.4,0.5,0.7,1.199,0.9,1.699c1,2,2.2,3.9,3.5,5.801
		c0.2,0,0.3,0.1,0.5,0.199c0.5,0.301,0.9,0.801,1.3,1.2c4.1,2.8,8.6,3.3,13.5,1.601c3.6-1.301,6.7-3.5,9.2-6.5
		c3.8-4.801,5.7-10.2,5.5-16.2c1.8,1.1,3.7,2,5.5,2.7c0.3-0.101,0.5-0.2,0.5-0.301c0.9,0.5,1.9,1,3,1.301c0.2,0.1,0.3,0.1,0.5,0.1
		c0.8-0.2,1.8-0.4,2.7-0.4c-0.1,0.4-0.1,0.801-0.2,1.301c-0.3,0-0.7,0-1.1,0.199c-0.1,0-0.2,0-0.3,0c-0.1,0.101-0.1,0.101-0.2,0.2
		c-0.1,0.101-0.2,0.101-0.4,0.2c0-0.1,0-0.1,0-0.1c-0.2-0.101-0.3-0.101-0.3-0.2c-0.1,0.1-0.2,0.1-0.2,0.2c-0.2,0-0.2,0-0.2,0
		s0,0,0,0.1c-0.1,0.1-0.1,0.1-0.1,0.2c-0.1,0.2-0.1,0.399,0,0.5c-0.1,0.1-0.1,0.2,0,0.2c1.8,0.5,3.7,0.699,5.6,0.699
		c0,0,0-0.1,0.1-0.199c0.1,0,0.1-0.101,0.1-0.101c0-0.1,0-0.2,0-0.2c0-0.3-0.2-0.5-0.4-0.699c-0.6-0.5-1.1-0.801-1.6-0.801
		c0-0.6-0.1-1-0.2-1.6c1.5-0.1,3-0.1,4.5-0.1c1.5,0,3.1,0,4.699,0.1c-0.1,0.3-0.199,0.6-0.399,0.9c0,0.1,0,0.199,0,0.399
		c0,0.9,0,1.8,0,2.8c-1.101-0.1-1.9,0.301-2.7,1c0,0.2,0,0.301,0,0.301c0,0.199,0,0.3,0,0.399c0.1,0.101,0.2,0.2,0.2,0.3
		c1.5,0.101,2.899,0.301,4.399,0.7c1,0.3,1.801-0.1,2.2-0.899c-0.1-0.301-0.2-0.5-0.399-0.601c-0.9-0.6-1.801-1-2.601-1.3
		c0-0.1,0-0.1,0.101-0.1c0-0.5,0-0.801,0-1.2l0.1-0.101c0-0.1,0-0.199,0.1-0.399c0-0.8,0-1.5,0.101-2.2c2.2,0,4.399-0.1,6.6-0.1
		c-0.1,0.199-0.1,0.5-0.1,0.699c0.2,1.801,0.5,3.5,1.1,5.2c0,0.101,0.101,0.101,0.3,0.3c0.4,0.301,0.7,0.801,0.7,1.301
		c0.3,0.5,0.601,0.8,1,1.199c2.601,2.2,5.7,3.9,9.3,5c0.4,0,0.801,0.101,1.101,0c3.3-0.199,6.5-1.199,9.5-2.699
		c0.7-0.5,1.2-1,1.7-1.5c1.5-1.9,3.1-3.801,4.5-5.7c2.5-5.8,3.699-11.9,3.699-18.4c0-1.2-0.199-2.399-0.6-3.399
		c0.3-0.2,0.4-0.5,0.5-0.7c0.6-2.601,0.1-4.9-1.6-7.1c-0.301-1.2-1-2.1-2.2-2.7c-0.101-0.1-0.101-0.1-0.101-0.2c0-0.3,0-0.6,0-0.8
		c0.2-0.5,0.301-0.9,0.5-1.3c-0.1,0-0.1-0.1-0.1-0.2l0,0c0.4-0.4,0.7-0.9,1.1-1.4c0.301-0.3,0.601-0.6,1-0.9
		c0.101-0.2,0.301-0.3,0.5-0.5c0,0,0-0.1,0-0.2c0.101-0.2,0.2-0.3,0.301-0.3c0.1-0.1,0.199-0.2,0.199-0.2c1-0.3,1.801-0.8,2.601-1.3
		s1.2-1.3,1.399-2.3c0.101-0.7,0-1.3-0.1-1.9c-0.5-1.8-1.5-2.8-2.9-3.3C94.5,24,90.5,23.5,86.5,23.8c-2.301,0.2-4.601,0.5-6.801,1.2
		c-0.6,0.1-1,0.3-1.399,0.6c-1.601,1.4-3,2.9-4.101,4.7c-1,1.3-2.1,2-3.6,2c-2.5,0.1-4.8,1-6.9,2.6c0,0.1,0,0.2-0.1,0.4
		c-0.1,0-0.1,0-0.1,0.1c-0.101,0.1-0.101,0.1-0.2,0.2c0,0,0,0.1-0.101,0.2C63.099,35.8,63,36,63,36.2c-0.101,0-0.101,0-0.101,0.1
		c0,0,0,0,0,0.1C60.199,35,57.5,34.3,54.5,34c-0.9,0.2-1.7,0.2-2.5,0.3c-0.101,0-0.301-0.1-0.301-0.3c0,0,0,0,0-0.1
		c-0.8-1.4-2-2.6-3.3-3.4c-0.1-0.1-0.1-0.1-0.1-0.2c0,0-0.1,0-0.1-0.1V30c0,0,0-0.1,0-0.2l0,0c-0.1-0.2-0.1-0.2-0.2-0.2
		c0.2,0,0.4,0,0.7,0.2c-0.5-0.3-1-0.4-1.4-0.5h0.1c0.6-0.3,1.3-0.7,1.8-1.1c2.5-2.2,5.1-4.1,8.1-5.6c0.1-0.1,0.2-0.2,0.399-0.3
		c0.2,0,0.301-0.1,0.5-0.3c1.5-0.9,3.2-1.2,5-0.9c1.9,0.3,3.7,0.9,5.5,1.6c1.9,0.8,3.601,0.6,5-0.4c0.101-0.4,0.2-0.8,0.2-1.1
		c0-0.2,0-0.4,0-0.7c-0.5-1.4-1.399-2.5-2.8-3.3c-2.6-1.5-5.4-2.2-8.4-2.3C62,15,61.199,15.3,60.5,15.8c-0.4,0.2-0.801,0.7-1,1
		c-0.2,0.1-0.4,0.2-0.5,0.4c-0.101,0-0.101,0-0.301,0c0,0,0,0,0.2-0.1c0-0.1,0-0.1,0-0.2c-0.2-0.6-0.399-1.2-0.7-1.7
		c0-0.1,0-0.2,0-0.2c-0.1-0.4-0.199-0.7-0.3-1c1.101-0.7,1.4-1.7,1.101-3.2c0,0,0-0.1,0-0.2c-1.5-1.8-3.301-2.8-5.801-2.8
		c-0.699,0.3-1.5,0.5-2.6,0.4c-0.4,0-0.6,0.2-0.8,0.6c-0.1,0-0.3,0-0.3,0c-0.3,0.1-0.5,0.2-0.7,0.4c-0.1,0.1-0.3,0.3-0.3,0.3
		c0,0.1,0,0.3,0,0.4c0,0.3,0,0.5,0,0.8c0.8,1.8,2.2,3,4.2,3.6c0.9,0.2,1.801,0.3,2.601,0.2c0,0.1,0,0.1,0,0.2c0,0.2,0,0.3,0,0.6
		c0.399,0.5,0.7,1,1,1.7c0.1,0.3,0.2,0.6,0.399,1c0,0,0,0,0.101,0.2c-2.3,1-4.601,2.3-6.6,3.8c-2.2,1.5-4.5,1.8-6.9,1
		c-0.3-0.1-0.6-0.2-0.8-0.4c-1.8-0.8-3.5-1.8-5-2.9v0.1c0-0.1-0.1-0.2-0.2-0.2c-0.1,0-0.3,0-0.5-0.1c-0.1,0-0.1,0-0.1,0
		c-0.7-0.8-1.3-1.3-2-1.9c-1.6-0.8-3.2-1.6-4.8-2.3c-0.1-0.3-0.2-0.3-0.2-0.4c-0.1-0.1-0.1-0.1,0-0.2c-0.1-0.1-0.1-0.2-0.1-0.4
		c0,0,0,0,0-0.1c-0.1,0-0.1-0.2-0.1-0.2c-0.1-0.1-0.1-0.1-0.1-0.2v-0.2c-0.1-0.4-0.1-0.8-0.1-1.2c-0.1-0.3-0.1-0.6,0-0.9
		c0,0,0-0.1,0-0.2c-0.1,0-0.1,0-0.1-0.1c0-0.1,0-0.2-0.1-0.2c-0.1-0.2-0.1-0.5-0.1-0.7c-0.1-0.8-0.3-1.5-0.5-2.3c0-0.2,0-0.4,0-0.5
		c1-0.1,1.8-0.5,2.8-1.2c0-0.1,0-0.1,0.1-0.3c0.1,0.2,0.2,0.2,0.3,0.3c0.3,0.2,0.6,0.3,0.8,0.5c2.4,1.2,4.7,1.4,7.2,0.5
		c0.3-1.5-0.1-3-1.1-4.3c-1.4-1.8-3.4-2.5-5.9-2c-0.8,0.3-1.5,0.8-2,1.6c-0.1,0-0.1,0.1-0.1,0.2c0,0.2,0,0.3-0.1,0.5
		c0,0.2,0,0.5,0,0.8c-0.8,0.4-1.6,0.6-2.5,0.7c0,0,0,0.1,0,0.2c0-0.1,0-0.2-0.1-0.2c-0.1,0-0.1,0-0.2-0.1c0-0.1,0-0.2,0-0.2
		c0-0.1,0-0.1,0-0.2c0,0,0-0.1,0-0.2c-1.7-2.8-4-4.1-7-4.1C20.199,0,19.899,0,19.599,0z M19.999,1.6c0.1,0,0.2,0,0.2,0.1
		c0.5-0.1,0.9-0.2,1.3-0.1c0.1-0.1,0.2-0.1,0.4-0.1h0.1c0.1,0,0.1,0,0.2,0c0,0,0,0,0.1,0c0,0.1,0,0.1,0,0.1c0.4,0.1,0.7,0.2,1.1,0.3
		c0-0.1,0-0.1,0.1-0.1c0-0.1,0-0.1,0.1,0c0.1-0.1,0.1-0.1,0.2-0.1V1.6c0.2,0.2,0.3,0.3,0.5,0.4l0,0c0,0.2,0,0.3,0,0.3
		c0.2,0,0.4,0.2,0.6,0.2c0,0.1,0.1,0.3,0.2,0.4c0.1,0,0.1,0,0.1,0V2.8c0.2,0.1,0.3,0.2,0.5,0.3c0.1,0,0.1,0.1,0.2,0.2
		c-0.1,0.1-0.1,0.2-0.2,0.3c0.2,0.2,0.3,0.4,0.4,0.5c0.1,0.2,0.2,0.4,0.4,0.6c0.2,1.3,0.6,2.6,1,3.8c0,0.6,0.1,1.1,0.1,1.8
		c0,0,0,0.1,0.1,0.2c0,0,0,0.1,0.1,0.1c0.2,1.6,0.4,3,0.6,4.7c0,0.2,0.1,0.3,0.3,0.5c0.5,0.2,1.1,0.5,1.6,0.9
		c0.9,0.5,1.9,1.1,2.9,1.6c1.3,0.8,2.5,1.5,3.9,2.4c0.1-0.1,0.1-0.1,0.3-0.1c0.1-0.1,0.1-0.1,0.1-0.1c0.9,1.1,2.1,1.8,3.5,2.3
		c0.2,0,0.4,0.2,0.5,0.3c1,0.9,2,1.4,3.3,1.7c0.2,0,0.4,0,0.7,0c0.8-0.2,1.6-0.4,2.5-0.6c0,0,0,0,0.2,0.1c-0.1,0-0.1,0-0.1,0.1
		c0.8-0.3,1.5-0.6,2.2-1.1c1.2-1,2.5-1.7,3.899-2.3c2.101-1,4.301-2.1,6.101-3.4c0.399-0.1,0.899-0.3,1.2-0.8c0,0,0.1,0,0.199,0
		c0-0.1,0.101-0.1,0.2-0.2c0-0.1,0.101-0.1,0.101-0.1c0.5-0.2,1.1-0.3,1.699-0.3c0.5,0,1,0,1.5,0.2c1,0.3,2,0.6,2.9,0.9
		c0.1,0,0.1,0,0.2,0c0,0,0.2,0.1,0.2,0.2c0.5,0.1,1,0.4,1.6,0.7c0.1,0,0.2-0.2,0.4-0.2c0.3,0,0.5,0.2,0.6,0.4
		c0.1,0.1,0.1,0.1,0.1,0.1c0,0.1,0,0.2-0.1,0.3S71,18.9,71,19c0.3,0.2,0.6,0.5,0.899,0.8c0.3,0,0.4,0,0.601,0.4c0,0,0,0.1,0.199,0.1
		C72.5,20.4,72.5,20.4,72.5,20.5c0,0,0,0.1,0,0.2c0,0.1,0.199,0.2,0.199,0.3c0,0.2-0.199,0.4-0.3,0.5c-0.1,0.1-0.1,0.1-0.1,0.2
		c-1-0.1-2-0.2-3-0.4c-0.101,0-0.101,0-0.2,0c-0.4-0.1-0.8-0.1-1.1-0.2c-0.4-0.3-0.801-0.4-1.101-0.6c-0.1,0-0.2-0.1-0.399-0.2
		c-0.5-0.3-1.101-0.5-1.601-0.6c-0.1,0.1-0.2,0.1-0.2,0.1c-0.3,0.2-0.6,0.2-0.8-0.2v-0.1c-0.1,0-0.2,0-0.2,0
		c-0.3-0.1-0.6-0.1-0.8-0.1c-0.1,0-0.2,0.1-0.399,0.1c0,0-0.2,0-0.2-0.1c-0.8,0-1.601,0.2-2.3,0.4c-3.7,1.5-7,3.5-9.9,6.2
		c-0.2,0.2-0.5,0.3-0.7,0.5c-1,0.5-2,1-2.9,1.5c-2.2,0.1-4.3-0.4-6.3-1.4c-0.1,0-0.1,0-0.2-0.1c-0.8-0.3-1.7-0.7-2.5-1l0,0
		c-0.3-1-0.8-1.7-1.5-2.2c-0.9-0.6-1.8-0.8-2.8-0.8c-0.9-1-2.1-1.5-3.6-1.4c-0.1-0.2-0.2-0.3-0.4-0.4c-0.2-0.2-0.3-0.3-0.5-0.4
		c-0.9-0.7-1.5-1.7-1.7-2.8c-0.1-0.5-0.1-1,0-1.5c-0.1,0-0.1,0-0.1-0.2c-0.2,0-0.2,0-0.2-0.1c0-0.2,0-0.4-0.1-0.7
		c-0.2-0.7-0.4-1.5-0.4-2.3c0-0.3,0-0.6,0-0.9c-0.1,0-0.2-0.1-0.1-0.2c-0.1,0-0.1-0.1-0.2-0.1c0.1-0.5,0-0.8,0-1.1
		c-0.1-0.4-0.3-0.9-0.4-1.2c-0.1-0.2-0.3-0.4-0.3-0.5c0-0.1,0-0.2,0-0.2c0-0.1,0-0.2,0-0.2c-0.1-0.1-0.1-0.1-0.2-0.1
		c0-0.2,0-0.2-0.1-0.2c-0.1-1.2-0.5-2.2-1.2-3c-0.1-0.3-0.4-0.4-0.6-0.3c-1.9,0.3-3.4-0.1-4.6-1.2c-0.1-0.2-0.2-0.5-0.1-0.7
		c0-0.4,0.2-0.6,0.6-0.8c0.1,0,0.3-0.1,0.7-0.2C19.699,1.8,19.899,1.7,19.999,1.6z M36.099,2.9c1.7,0.5,2.5,1.7,2.5,3.6
		c-1.7,0.1-3.5,0-5.1-0.3c-0.8-0.5-1.4-1-1.9-1.7c0-0.1,0-0.1,0-0.2c-0.1,0-0.1-0.1-0.1-0.1h-0.1c0-0.2,0-0.2,0-0.4
		c-0.1-0.2-0.1-0.5-0.1-0.8c0.1-0.1,0.2-0.2,0.2-0.2c0.2-0.3,0.4-0.5,0.7-0.5c0.1-0.1,0.3-0.1,0.5,0
		C33.899,2.3,34.999,2.5,36.099,2.9z M28.299,6.6c-0.1-0.3-0.1-0.4-0.1-0.6c0.1,0,0.2,0,0.3,0h0.2c0-0.1,0-0.2,0-0.2
		c0-0.1,0-0.1,0.1-0.2c0.7-0.3,1.2-0.4,1.9-0.6c0,0.1,0,0.2,0.2,0.3l0,0c0,0,0,0-0.2,0C29.999,5.8,29.199,6.3,28.299,6.6z
		 M34.199,26.2c0-0.2-0.1-0.2-0.2-0.2c-0.3-1-0.8-1.7-1.6-2c0.1,0,0.1,0,0.3,0c0.6,0.1,1.5,0.2,2.5,0.2c1.5,1.6,2.1,3.8,1.8,6.2
		c-0.1,0.8-0.5,1.4-0.8,2c-0.7,1-1.5,1.9-2.5,2.6c-0.4,0.3-0.7,0.3-1.2,0.3c-0.5-0.1-1.1-0.3-1.5-0.5c1.2-0.6,2.1-1.5,2.8-2.7
		c-0.1-0.3,0-0.5,0.2-0.7C34.499,29.6,34.599,28,34.199,26.2z M37.799,31.8c0.1,0,0.2,0,0.2,0c0.2,0,0.3,0,0.5,0
		c0.2,0.3,0.5,0.5,0.8,0.6c-1.6,2.5-3,5.1-4.3,7.7c-0.5-1.1-0.8-2.3-1.3-3.6c0.1,0,0.1,0,0.1,0c0.1-0.2,0.1-0.3,0.1-0.5
		c0,0,0.1-0.2,0.2-0.2s0.2-0.1,0.4-0.2C36.199,34.9,37.299,33.6,37.799,31.8z M38.699,30.5c-0.3,0-0.5,0-0.7,0
		c0.2-1.2,0.1-2.5-0.1-3.7c0.7,0.5,1.6,0.8,2.5,1c1.3,1,2.6,1.5,3.9,1.5c0,0.1,0,0.1-0.1,0.2c0.1,0.1,0.1,0.3,0,0.4
		c-0.2,0.3-0.3,0.6-0.4,0.9c-0.1,0.1-0.1,0.2-0.1,0.2s0,0.1,0,0.2c-0.1,0-0.1,0-0.1,0.1c-0.2,0.1-0.4,0.3-0.6,0.5
		c0,0.2,0,0.2-0.1,0.4v0.1v0.1c-0.2,0.1-0.3,0.4-0.4,0.6l0,0c-0.2,0.1-0.2,0.2-0.2,0.2c-0.1,0.1-0.1,0.3-0.3,0.4v0.2c0,0,0,0,0,0.1
		c-0.3,0.6-0.6,1.3-0.9,1.9c-1.3,2.6-2.5,5.2-3.7,7.9c-1.8,3.9-3.5,7.9-5.2,11.9c-0.2,0.5-0.3,0.899-0.5,1.399
		c0,0.2-0.2,0.301-0.2,0.4c-0.2,0.4-0.5,0.9-0.6,1.4v0.5l-0.2,0.1c0,0.1,0,0.2-0.1,0.2c-0.1,0.2-0.1,0.399-0.2,0.5
		c-0.1,0.399,0,0.899,0.1,1.399l0,0c0,0.101,0,0.301,0,0.301c0.2-0.301,0.4-0.601,0.5-1c0.5,1.399,1.3,2.6,2.4,3.6v0.1
		c-0.2,0.601-0.2,1.301-0.2,2c0,2.7-0.5,5.301-1.5,7.801c-1.2,2.199-2.5,4.3-4.2,6.3c-2,2.399-4.4,4.3-7.2,5.6
		c-2.3,0.9-4.5,1.101-6.8,0.601c-5.6-1.301-9.2-4.9-10.6-10.601c-0.2-0.2-0.3-0.399-0.4-0.6c-0.5-1.601-0.6-3.3-0.6-5.101
		c0-6.699,2.1-12.399,6.4-17.5c0.5-0.399,1-0.699,1.6-1l0,0V52.1c0.6,0.399,1.3,0.7,1.9,1.2c0.4,0,0.7-0.101,1.1-0.101
		c2.2-0.399,4.3,0,6.2,0.9c1.1,0.5,2.3,0.6,3.5,0.399c0.4-0.199,0.9-0.199,1.1,0c1.8-0.3,3.3,0,4.6,1c-0.1,0.301-0.3,0.5-0.4,0.801
		c-0.1,0-0.1,0-0.1-0.101c0.1,0.2,0.2,0.5,0.2,0.8c0,0.2,0,0.301,0,0.5c-0.3,0.5-0.7,1-1.1,1.301c-0.4,0.899-0.8,1.8-1.2,2.8
		c-1.2-1.8-2.8-2.7-5.2-2.601c-0.1,0-0.2,0-0.4,0c-0.9-0.1-1.6,0.2-2.1,0.801c0,0,0,0,0,0.199c-0.1,0-0.1,0.101-0.1,0.2
		c-0.7,0.8-1.5,1.601-2.2,2.601c-1.9,2.5-2.7,5.199-2.2,8.199c0.4,0.801,0.7,1.7,0.8,2.601c0,0.2,0.1,0.399,0.2,0.7
		c0.4,0.6,1,1,1.7,1.5c1.8,0.8,3.5,0.8,5.3-0.101c0.7-0.399,1.5-1.1,2.2-1.899c1.5-1.801,2.5-4,2.9-6.301
		c0.4-0.399,0.7-0.8,1.1-1.199c0.3-0.301,0.5-0.7,0.8-1.101c0-0.3,0.2-0.5,0.3-0.7c0.1-0.3,0.2-0.699,0.4-1c0.3-0.5,0.6-0.8,1-0.899
		c0-0.2,0-0.4,0-0.601c0-0.199,0-0.399,0.1-0.5c-0.1-0.5-0.1-1-0.1-1.3c0-0.2,0-0.399,0-0.5c-0.1,0.3-0.2,0.601-0.3,1v-0.1
		c-0.4,0.899-0.9,1.7-1.2,2.7c-0.6,0.899-1.2,1.699-2,2.3c-0.3,0.2-0.5,0.399-0.7,0.5c-0.7,1.3-1.8,2.2-3.4,2.7c-0.1,0-0.1,0-0.2,0
		c-0.1-0.301-0.1-0.4-0.2-0.601c0-0.399,0.1-0.8,0.4-1c0.4-0.6,0.8-1,1.4-1.6c0,0,0.1,0,0.2-0.101c0.2-0.1,0.3-0.3,0.5-0.5
		c0.2-0.199,0.4-0.3,0.5-0.5l0,0c0.2-0.399,0.4-0.699,0.8-1c0.2-0.199,0.2-0.5,0.3-0.699c-0.1,0-0.1-0.101-0.1-0.2
		c0.5-1.101,1.1-2.4,1.7-3.601c0,0,0,0,0.1,0c0.2-0.5,0.4-0.899,0.7-1.399c-0.2-0.101-0.2-0.101-0.2-0.101
		c0.2-0.399,0.4-0.699,0.5-1.199c0,0,0-0.101,0.1-0.101s0.1,0,0.1,0c0.2-0.399,0.4-0.899,0.6-1.2c-0.1-0.1-0.1-0.1-0.1-0.1
		c0.1-0.3,0.2-0.6,0.4-0.9c0.1,0,0.1,0.101,0.1,0.2c0.1-0.6,0.4-0.899,0.5-1.399c0,0,0-0.101,0-0.2c1.3-3,2.5-5.8,4-8.6
		c0.8-2.2,1.8-4.2,3-6.2c0.4-0.8,0.8-1.6,1.3-2.3c0.3-0.9,0.8-1.7,1.2-2.7c0.1,0,0.1,0,0.1-0.1c0,0,0,0,0.1-0.1
		c0.1-0.3,0.3-0.6,0.5-0.8c-0.1-0.1-0.1-0.2-0.2-0.2c-0.2-0.1-0.2-0.3-0.4-0.3c-0.1,0-0.2,0-0.3,0
		C39.699,31,39.199,30.7,38.699,30.5z M44.699,30.5c0-0.1,0.1-0.2,0.2-0.2c0.2-0.1,0.4-0.3,0.6-0.3c0.1,0,0.2,0,0.2,0.2h-0.2
		c0,0.1,0,0.1,0.1,0.1c1.6,0.7,3.1,1.7,4.5,2.9c0.1,0.1,0.1,0.3,0.2,0.4c0.2,0.2,0.3,0.4,0.4,0.6c0,0.1,0,0.1,0,0.1
		c0,0.1,0,0.2,0,0.2c0.2,0.2,0.3,0.4,0.4,0.5c0.1,0.1,0.1,0.1,0.1,0.2v0.1c0.101,0,0.101,0.1,0.301,0.1c0.1,0.1,0.199,0.2,0.3,0.4
		c0.1,0.3,0.2,0.7,0.399,1c0.301,0.5,0.7,1,1.301,1.2c0,0.3,0.199,0.6,0.5,0.9c0.6,0.6,1.199,1.1,2,1.5c0.899,0.6,2,1.1,3.199,1.1
		c0.601,0.1,1.301,0.1,1.9,0.3c0.8,0.2,1.2,0,1.6-0.7c-0.1-0.2-0.199-0.3-0.399-0.3c-1.101-0.5-2.101-0.8-3.3-1
		c-2.5-0.3-4.5-1.6-6.101-4.2l0,0c0.5,0,1,0,1.4,0c1.7,0,3.399,0.4,5.2,0.9c1.199,0.3,2.399,0.9,3.5,1.7
		c2.3,1.6,4.699,3.4,6.899,5.2c0,0.1,0,0.1,0,0.2c0,0,0,0.1,0,0.2c0,0,0,0,0,0.2C69,44.5,68,44.9,67,45.2
		c-7.5,1.8-15.101,2.4-22.8,1.8c-2.2-0.3-4.2-1.1-6-2.5c1.7-3.5,3.3-7,5.1-10.5c0,0,0.1,0,0.2,0c0-0.2,0-0.2,0.1-0.4
		c0.5-1.1,1.1-2.3,1.8-3.4C45.099,30.3,44.899,30.3,44.699,30.5z M31.299,24.7c0.3,0.1,0.6,0.3,1,0.3c0,0.2,0.1,0.5,0.2,0.6
		c0.3,0.4,0.5,1,0.5,1.6c0.1,0.1,0.2,0.1,0.2,0.2s0,0.1,0,0.1c0,0.3,0,0.5,0,0.8c0,0.6,0,1.2,0,1.9c-0.1,0.1-0.2,0.1-0.2,0.1
		c-0.1,0-0.1,0.2-0.1,0.2c0,0.1,0,0.1,0,0.2c0,0.1,0,0.1,0,0.2c-0.7,1.3-1.6,2.4-2.7,3.1c0,0,0,0,0,0.2c0-0.2,0-0.2,0-0.2
		c-0.4-0.4-0.7-1-1-1.7c-0.2-0.8-0.3-1.6-0.2-2.3c0-0.6,0-1.2,0.2-1.6c0-0.1,0-0.2,0-0.4C29.499,26.6,30.199,25.5,31.299,24.7z
		 M32.199,23.5c-0.2,0-0.5,0.1-0.6,0.2c-1.4,0.8-2.3,1.7-2.9,2.9c0,0,0,0.1-0.2,0.2c-0.9,2.8-2,5.7-3.3,8.4c-2.1,4-3.7,8.1-4.8,12.5
		c0,0,0,0.101,0.1,0.101h-0.1c-0.9-0.2-1.7-0.2-2.5-0.2c1.1-3.1,2.4-6.1,3.8-9.1c0.9-2.1,1.8-4.2,2.8-6.3c0.5-1.4,1.1-2.7,1.7-4
		c0.1-0.1,0.2-0.2,0.3-0.2c0.1-0.2,0.2-0.2,0.2-0.3c0-0.1,0-0.1,0-0.1c0-0.1,0-0.1,0-0.2c0.2-0.4,0.3-0.7,0.4-1
		c0.2-0.4,0.4-0.9,0.6-1.2c0.1-0.2,0.2-0.4,0.3-0.6c0.3,0,0.5-0.1,0.9-0.3c0.2-0.3,0.5-0.7,0.8-1c0,0,0,0,0-0.1
		c0.1-0.3,0.2-0.7,0.2-0.9c0.4,0.1,1,0.2,1.4,0.2c0.3,0.2,0.5,0.4,0.7,0.6c0,0.1,0,0.1,0.1,0.2c0,0,0,0,0.1,0.1V23.5z M27.999,31.3
		c0.1,1.5,0.7,2.7,1.9,4c0.8,0.9,1.7,1.3,2.6,1.2c0.2,1.3,0.4,2.5,1,3.5c-0.2-0.2-0.3-0.2-0.4-0.2c-2.4-0.8-4.9-1.2-7.4-1.2
		c-0.3-0.1-0.7-0.1-1,0C25.699,36.2,26.899,33.6,27.999,31.3z M33.399,41.3c0,0.1,0,0.1,0.1,0.2c0,0,0,0,0,0.1v0.2c0,0,0,0.1,0,0.2
		c0.1,0,0.1,0,0.2,0.2c0,0,0.1,0.1,0.2,0.2c-1.1,2.4-2.2,4.6-3.2,7c0,0.1,0,0.1,0,0.1s0-0.1-0.1-0.199c-2.4-2.5-5.4-3.5-8.8-3.4
		c-0.1,0-0.1,0-0.1,0.1v-0.1c0.5-1.1,1-2.3,1.5-3.4c0.4-1.1,0.8-2.2,1.2-3.2C27.299,39.8,30.299,40.5,33.399,41.3z M29.199,49.5
		c0,0.301,0.3,0.5,0.5,0.7c0,0,0.1,0.101,0.2,0.101c0.1,0.199,0.2,0.3,0.3,0.3c-0.1,0.399-0.2,0.7-0.3,1.1
		c-0.6-0.5-1.2-0.899-1.9-1.399c-2.2-1.301-4.6-2.101-7.1-2.5c0.2-0.4,0.3-0.801,0.5-1.2c0.1,0.1,0.3,0.2,0.5,0.2
		C24.499,47,26.999,47.8,29.199,49.5z M37.999,47.8h0.2c1,2.1,2,4.3,2.8,6.5c0,0.1,0,0.199,0,0.199c0,0.101,0,0.101,0,0.2
		c0.1,0.101,0.1,0.101,0.2,0.2c0,0.1,0,0.1,0,0.1c0,0.101,0,0.2,0,0.301c0,0,0,0,0,0.1c0.2,0.3,0.3,0.4,0.7,0.6
		c-0.1,0-0.1,0,0,0.101c0,0.1,0,0.2,0,0.399c0.1,0,0.2,0,0.3,0l0,0c0.1,0.101,0.3,0.301,0.3,0.301c0,0.1,0,0.199,0.1,0.399
		s0.1,0.4,0.1,0.601c0.3,0.5,0.6,0.899,0.9,1.3c0.4,0.5,0.9,0.899,1.4,1.2c2.5,1.3,5.1,1.699,7.7,0.899c0.2,0,0.301,0,0.5,0
		c1.801,0,3.5-0.1,5.301,0c6.899,0.3,13.8,0.101,20.699-0.6c0.2-0.101,0.301-0.101,0.5-0.101c0,0.101,0,0.2,0,0.301
		c0,0,0.2,0,0.301,0c0,0,0.1,0,0.199,0c0-0.101,0-0.2,0.101-0.301c0.899,0,1.7,0,2.5,0h0.1c0.101,0,0.101,0,0.3,0
		C83,60.6,82.899,60.8,82.799,60.8c-1.601,1.8-3.101,3.5-4.601,5.199c0,0.101,0,0.2,0,0.301c-5.199,0.5-10.3,1-15.5,1.3
		c-2,0.2-4,0.2-6,0.2c-4.5-0.301-9-0.2-13.399,0.199c-0.3-0.399-0.8-0.699-1.4-1c-2-2-3.6-4.5-4.6-7.399c-0.8-2.101-1.6-4.101-2.8-6
		c0,0,0-0.101,0.1-0.101c0-0.199,0.1-0.3,0.1-0.3c0-0.2-0.1-0.2-0.2-0.3c0,0,0,0-0.1,0c0.9-1.9,1.8-3.9,2.6-5.9
		c0.1,0,0.1-0.1,0.2-0.199c0,0.1,0,0.199,0,0.3c0.2,0.2,0.3,0.399,0.7,0.5c0,0,0,0,0,0.1C37.899,47.8,37.899,47.8,37.999,47.8z
		 M38.999,47.5c0,0,0-0.1,0-0.199c0,0,0,0,0-0.101c0-0.1,0-0.1,0-0.2l0,0c-0.1-0.399-0.3-0.699-0.4-0.8c0.7,0.5,1.6,0.9,2.5,1.2
		c0.4,0.1,0.9,0.2,1.2,0.4c-1,1-1.2,2.399-0.7,4c0.1,0,0.1,0.199,0.1,0.199c0.2,0.101,0.3,0.301,0.3,0.5
		c-0.1,0.101-0.3,0.301-0.4,0.301c-0.1-0.301-0.2-0.5-0.4-0.801C40.699,50.4,39.899,48.9,38.999,47.5z M42.199,50.2
		c0-0.2,0-0.2,0-0.3c-0.1-0.8,0.1-1.5,0.7-2.1c2.7,0.699,5.5,1,8.3,0.899c0.101,0.101,0.301,0.4,0.5,0.601c0,0.1,0,0.199,0,0.199
		c0,0.301,0,0.5,0,0.801c-0.6,0.3-1.1,0.899-1.5,1.399c0.1,0.5,0.5,0.8,1,0.8c0,0,0,0.2,0,0.301c-0.2,0.399-0.2,0.8-0.2,1.399
		c-0.3,0.101-0.5,0.4-0.7,0.601c-0.1,0-0.1,0-0.1,0.1s-0.1,0.2-0.2,0.4c0,0,0,0.1,0,0.199c0,0.101,0,0.2,0,0.301l0,0
		C49.899,56,49.899,56,49.799,56c0.1,0.101,0.1,0.2,0.1,0.301c0.2,0.199,0.3,0.5,0.3,0.8c0.1,0.1,0.1,0.1,0.3,0.2c0,0,0,0,0,0.1
		s0,0.1,0,0.2c0,0.2,0,0.3,0,0.399c-0.3,0.5-0.7,0.801-1.1,1.101c-0.1,0.1-0.1,0.2-0.2,0.2c0,0.1,0,0.1,0,0.199l-0.2,0.101
		c-0.1,0.2-0.1,0.2-0.1,0.399c0,0,0,0.101,0.1,0.2c0,0,0,0,0,0.101c-0.1,0-0.3,0-0.3,0c-2.4-0.101-4-1.2-5.2-3.4c0-0.1,0-0.1,0-0.1
		c-0.2-0.301-0.4-0.601-0.5-1c0,0,0,0,0-0.101c0-0.2-0.1-0.399-0.1-0.5c-0.2-0.1-0.3-0.2-0.4-0.2l-0.2-0.199
		c-0.1-0.2-0.1-0.5-0.1-0.601c0-0.2,0-0.399,0-0.7c0,0,0,0,0.1-0.1c0.2-0.2,0.4-0.3,0.7-0.4c0.1-0.1,0.1-0.199,0.1-0.3
		c0.1-0.2,0.1-0.2,0.1-0.399c-0.1,0-0.1-0.101-0.2-0.101c-0.1-0.399-0.4-0.6-0.7-0.7c0.2-0.1,0.2-0.199,0.3-0.199s0.1,0,0.1-0.101
		c0-0.2,0-0.2,0-0.3C42.499,50.6,42.299,50.3,42.199,50.2z M12.899,51.6c-0.4,0.1-0.9,0.2-1.3,0.2c-0.3,0-0.6-0.2-0.7-0.2
		c0-0.2,0-0.3,0.1-0.3c0-0.301,0-0.4,0.2-0.601c0-0.1,0-0.1,0.1-0.2c0,0,0-0.199,0.1-0.199c0.3,0,0.5,0.199,0.8,0.199
		c0,0,0.1,0,0.2,0c0.1,0,0.1,0,0.3,0c0,0,0-0.1,0.1-0.1c1.4-0.8,2.8-1.2,4.4-1.4c3.2,0,6.3,0.5,9.3,1.801c0.2,0.199,0.5,0.5,0.8,0.8
		c0.4,0.2,0.7,0.5,1.2,0.8c0.2,0.1,0.5,0.4,0.7,0.7c0,0.1-0.1,0.3-0.2,0.399V53.8c-0.1,0.1-0.1,0.3-0.2,0.5h-0.1
		c-1.8-1.101-4-1.5-6.5-0.801C19.299,52,16.299,51.3,12.899,51.6z M19.199,60.5c0.4,0,0.8,0,1.2-0.1c0.1-0.1,0.1-0.1,0.3-0.1
		c0.7-0.101,1.3,0,2,0.199c1,0.801,1.7,1.7,2.2,2.5c-0.6,0.801-1.2,1.4-2,1.801c-0.2-0.301-0.5-0.301-0.7-0.4c-0.1,0-0.1,0-0.2,0.1
		c-1.5,0.301-2.5,1.301-3.1,3c-0.2,0.301-0.2,0.601-0.2,0.9c-0.1,0.6-0.2,1.2-0.1,1.9c0.1,0.199,0.3,0.3,0.4,0.5
		c0,0.199,0.1,0.5,0.3,0.8c0.2,0,0.4,0,0.5,0.1c0.4,0.101,0.7,0.101,1.2-0.1s0.9-0.4,1.3-0.7c0.9-0.6,1.7-1.1,2.6-1.9
		c-0.7,1.801-1.7,3.4-3,4.801c-1.6,1-3.2,1.3-4.9,1.199c-0.3-0.199-0.5-0.399-0.6-0.5c-0.1,0-0.2-0.199-0.4-0.3c0,0-0.1-0.1-0.2-0.2
		c-0.1-0.399-0.1-0.699-0.3-1.1c-0.1-0.1-0.2-0.4-0.3-0.4c0-0.1,0-0.199,0-0.199c-0.1-0.101-0.1-0.2,0-0.301c-0.1,0-0.2,0-0.2,0
		c0-0.199,0-0.199,0-0.3c-0.3-0.7-0.3-1.2-0.3-1.899c0-1,0.2-2,0.3-3c0-0.101,0-0.101,0.1-0.2c0,0,0-0.101,0.1-0.2
		c0-0.1,0-0.1,0-0.1s0-0.101,0-0.2c0-0.101,0.1-0.3,0.2-0.3c0-0.2,0-0.2,0.1-0.301c-0.1,0-0.1,0,0,0c0.2-0.399,0.5-0.699,0.7-1.199
		c0.5-0.801,1-1.7,1.7-2.5c0.1,0,0.3-0.301,0.5-0.5c0.1-0.101,0.1-0.2,0.3-0.301c-0.1-0.1,0-0.1,0-0.199c0,0,0.2,0,0.3,0
		c0-0.101,0-0.101,0.1-0.101C19.099,60.6,19.099,60.5,19.199,60.5z M21.499,67c-0.1,0.101-0.1,0.301,0,0.5c-0.1,0.7,0,1.4,0.1,2
		c0.1,0.101,0.1,0.101,0.2,0.101c-0.1,0.2-0.2,0.2-0.3,0.3s-0.3,0.3-0.5,0.4c-0.3,0-0.5,0.199-0.7,0.199c-0.1,0-0.1,0-0.2-0.199
		c-0.1-0.101-0.2-0.4-0.3-0.7c0,0,0-0.101,0.1-0.101c0.1-1.3,0.5-2.5,1.3-3.5c0.2,0,0.4,0,0.7,0.101
		C21.699,66.3,21.499,66.6,21.499,67z M33.799,54.5c0.1,0,0.2,0.101,0.2,0.301c1,1.5,1.7,3.199,2,5c0.5,1.199,1.2,2.5,1.8,3.699
		c0.3,0.5,0.5,1,0.9,1.5c0.2,0.301,0.4,0.601,0.6,1c-0.8-0.199-1.6-0.5-2.4-0.8c-0.7-0.2-1.2-0.5-1.8-0.899c0-0.101,0-0.101,0-0.101
		c-0.1-0.2-0.2-0.399-0.4-0.5c-0.2-0.1-0.3-0.2-0.5-0.2l0,0c-0.3-0.3-0.5-0.5-0.7-0.899c-0.8-0.8-1.5-1.8-2-3
		c0.2-0.3,0.5-0.8,0.6-1.3c0.6-1.101,1.1-2.301,1.6-3.601c0-0.1,0-0.2,0.1-0.3V54.5z M52,9.1c0.199,0.1,0.3,0.1,0.5,0.2
		C53,9.2,53.5,9.1,54,9c1.199,0,2.3,0.5,3.199,1.3c0.301,0.3,0.601,0.7,0.9,1.1c0,0.1,0,0.1,0,0.2c0,0.1,0,0.2,0,0.4
		c0,0,0,0.1,0,0.2c0,0,0,0,0,0.1c0,0,0,0.1,0,0.2c-0.1,0-0.1,0-0.2,0.1c0,0.1-0.1,0.2-0.2,0.2c0,0-0.1,0.1-0.199,0.2
		c0,0-0.101,0.1-0.2,0.2c-2.8,0.5-5.3,0-7.4-1.6c-0.2-0.1-0.2-0.3-0.2-0.3c-0.1-0.1-0.2-0.2-0.2-0.3c-0.1,0-0.2,0-0.2-0.1
		c-0.1-0.1-0.1-0.1-0.1-0.2c0-0.1,0-0.1,0-0.2s0-0.2,0-0.3V10c0,0,0-0.1,0-0.2c0,0,0-0.1,0-0.2c0.1,0,0.3-0.1,0.3-0.1
		c0.2,0,0.4-0.1,0.5-0.1c0.2,0,0.2,0.1,0.5,0.1c0,0,0-0.1,0.2,0c0.3-0.2,0.5-0.3,1-0.3C51.699,9.2,51.899,9.2,52,9.1z M56.699,14.7
		c0-0.2,0-0.3,0-0.4c0.101,0,0.2,0,0.4-0.1c0,0.1,0,0.1,0,0.1c0.1,0.9,0.4,1.7,0.9,2.5c0,0,0,0,0.1,0.1s0.1,0.3,0.1,0.4
		c0.101,0,0.101,0,0.301,0.1c-0.301,0.1-0.7,0.2-1,0.4c0-0.2,0-0.3-0.101-0.3c-0.1-0.2-0.1-0.5-0.1-0.7
		c-0.101,0-0.101-0.1-0.101-0.2c0-0.1,0-0.1-0.1-0.1c0-0.1,0-0.2,0.1-0.2C57.099,15.7,57,15.2,56.699,14.7z M90.099,25.2
		c0.1,0,0.4,0,0.5,0c2.9-0.2,5.6,0.4,8,1.8c0.1,0,0.1,0,0.1,0c0,0.1,0,0.2,0.101,0.3c0.1,0,0.1,0.2,0.2,0.3c0,0,0,0.1,0,0.2
		c0.199,0,0.3,0.2,0.399,0.2c0.101,0,0.101,0,0.101,0.1c0.1,0.3,0.199,0.6,0.199,0.9c0,0.1,0,0.2,0.101,0.2c0,0.1,0,0.1,0.1,0.2
		c0,0.1,0,0.1,0,0.1c0,0.1,0,0.3,0.101,0.4c0,0.1,0,0.1,0,0.1c0,0.2,0.1,0.2,0.199,0.3c0,0,0,0,0,0.1c-0.1,0.1-0.199,0.2-0.3,0.4
		c-1.2,0.5-2.6,0.9-3.899,1c-0.2,0-0.301,0-0.301,0c-2.1-0.4-4.199-0.4-6.3,0c-0.6,0.2-1.1,0.4-1.7,0.7c0,0.3-0.199,0.5-0.399,0.8
		c-0.4,0.7-1.101,1.5-1.7,2.3c-0.4,0.7-0.9,1.5-1.6,2.2c-0.2,0.5-0.601,0.8-1.101,1l0,0c-0.2,0.1-0.399,0.2-0.7,0.4
		c-0.1,0.1-0.199,0.1-0.399,0.3c-0.8,0.3-1.601,0.7-2.5,0.9c-0.3,0.1-0.5,0.1-0.8,0.2c-2.5,0.9-5,1.7-7.5,2.4
		c-1.5-1.7-3.2-3.2-5.101-4.7c-0.7-0.5-1.399-1-2.2-1.5c1-1.8,2.601-2.6,4.801-2.5c0.199,0,0.399,0,0.5,0h0.1c0.1,0,0.1,0,0.1,0l0,0
		c0,0,0,0,0.101,0c1.6-0.1,3-0.7,4.2-1.5c0-0.2,0-0.3,0.1-0.3c0.1-0.2,0.1-0.3,0.2-0.5c0,0,0-0.2,0.1-0.2c0,0,0,0,0.101,0
		c0,0,0.1,0,0.199,0h0.101c0.2,0,0.2,0,0.3,0s0.1,0,0.1-0.1c0.9-0.9,1.601-1.9,2.101-3c0.1-0.2,0.2-0.2,0.3-0.4
		c0.4-0.5,0.9-1,1.4-1.2c0-0.1,0.199-0.1,0.3-0.1c0.2-0.2,0.5-0.4,0.899-0.6v-0.1c0.2,0,0.301,0,0.5,0.1
		C83.399,25.3,86.699,24.9,90.099,25.2z M89,33.5c0.199-0.1,0.3-0.2,0.5-0.2c2,0.2,4.1,0.2,6.199,0c0.301-0.1,0.601-0.1,1-0.1
		c-0.399,0.1-0.699,0.3-1,0.6C95.5,34,95.199,34.3,95,34.4c-0.301,0.6-0.7,1.1-1.101,1.6c-0.2,0.1-0.399,0.3-0.399,0.5
		C93.399,36.8,93.199,37,93,37c0,0-0.101,0.1-0.101,0.2c-0.1,0-0.2,0.1-0.2,0.2c-2,1.9-4.199,3.8-6.5,5.4c-0.3,0.2-0.699,0.5-1,0.7
		c0,0-0.1,0-0.199,0v0.1c-3,2-6.301,3.5-9.801,4.5c-1.699,0.5-3.6,0.899-5.5,1.399c-2.8,0.5-5.699,0.7-8.5,0.301l0,0
		c-0.1-0.301-0.3-0.601-0.5-0.801c0,0,0,0,0-0.1c0.2-0.4,0.2-0.7,0-1.1c1.2-0.101,2.301-0.301,3.5-0.5
		c1.301-0.301,2.7-0.7,4.101-0.801c1.6-0.199,2.6-1.2,2.7-2.8c1.899-0.2,3.8-0.5,5.699-1.1c0.4-0.1,0.801-0.2,1.101-0.3
		c0.7-0.3,1.399-0.5,2.2-0.7c1.3-0.3,2.5-0.9,3.3-1.9c1.2-0.7,2.2-1.7,2.899-3C86.899,35.3,87.799,34.3,89,33.5z M75.5,49.5
		c0.199,0,0.5,0,0.6,0c1.6-0.5,3.2-1.199,4.8-2c0,0,0.101-0.1,0.2-0.1c0.2-0.3,0.6-0.4,1.1-0.6c0.301-0.101,0.7-0.301,1-0.5
		c0.101,0,0.301,0,0.4-0.101c-0.1,0-0.3,0-0.3,0c0.7-0.399,1.399-0.9,2.2-1.4c0.3,0.1,0.6,0.1,1,0c2.199-0.5,4.3,0,6.199,1.2
		c0.301,0.5,0.601,0.801,0.9,1.301c-0.1,0-0.1,0-0.1,0c0,0.199,0,0.3,0,0.5c0,0.199,0,0.399,0.1,0.5c0.1,0.199,0.2,0.199,0.3,0.3
		c0.3,0.2,0.4,0.6,0.601,0.899c0.1,0.101,0.199,0.301,0.199,0.5c0.2,0.5,0.301,1,0.601,1.301c0,0.199,0,0.5,0.1,0.699
		c0.8,6,0.101,12-2.1,17.5c-1.3,2.5-2.8,4.801-4.4,7C87,78,85,79,82.799,80c-1.101,0.301-2.101,0.5-3.101,0.5
		c-5.199-0.3-9.199-2.5-12-6.5c-0.1-0.199-0.1-0.5-0.199-0.6c-0.4-1.6-0.801-3.1-1.301-4.6c1.101-0.101,2.301-0.2,3.4-0.301
		c0.1,0,0.3,0,0.5-0.1c0.4-0.1,0.9-0.2,1.3-0.2c0.601,0,1,0,1.5,0.101C73.899,68.2,75,68.1,76,68c0.199,0,0.399,0,0.699,0
		c0,0,0,0,0.101,0.101c-0.101,0.1-0.101,0.2-0.3,0.399C76.699,69,76.699,69.3,77,69.6c0.699,1.6,1.899,2.399,3.5,2.6
		c2.399,0.3,4.5-0.399,6.3-2.2c0.1-0.1,0.1-0.199,0.1-0.199c0.7-1.301,1.3-2.5,1.8-3.9c0-0.1,0-0.1,0-0.3c0-0.101,0-0.101,0-0.2
		c0.101-0.1,0.101-0.2,0.2-0.3c0-0.101,0.101-0.2,0.2-0.3c0,0,0-0.2,0-0.301c0,0,0-0.1,0-0.199c0.1-0.101,0.1-0.2,0.1-0.301
		c0.101,0,0.2-0.199,0.301-0.199c0-0.2,0-0.301,0-0.301c0-0.1,0-0.199,0-0.3c0-0.1,0-0.2,0.1-0.2c0.1-0.199,0.1-0.3,0.3-0.399
		c0-0.101,0-0.3-0.1-0.5c-0.101-1.601-0.3-3.3-0.4-4.9c-0.2-0.1-0.2-0.2-0.3-0.399c-0.4-0.601-0.7-1.301-0.9-2
		c0-0.101,0-0.101,0-0.101c0-0.1,0.101-0.1,0.101-0.2c0.399-0.199,0.6-0.5,0.8-0.899c0.3-0.3,0.6-0.601,0.9-0.8
		c0.5-0.7,1-1.5,1.3-2.2c0-0.101,0-0.101,0-0.101c-0.5-0.199-1-0.399-1.4-0.6c0,0,0,0-0.1,0c-1.101,0.1-2.3,0.2-3.5,0.3
		C86.199,50.3,86.199,50.3,86,50.3c-1.301,0.199-2.601,0.3-3.801,0.1v0.1C80,50.7,77.799,50.8,75.699,51c-1,0.301-1.8,0.301-2.6,0
		C73,51.1,73,51.2,73,51.3c-1.101,0-2.2,0-3.301,0.199c0-0.199,0.101-0.3,0.2-0.5c0.7-0.1,1.5-0.199,2.3-0.399
		c0-0.101,0-0.101,0-0.101s0-0.1,0-0.199c0,0,0,0,0.101,0c0.6-0.2,1.2-0.301,1.8-0.4C74.5,49.8,75,49.6,75.5,49.5z M52.299,48.8
		c-0.101,0-0.101-0.101-0.101-0.2C52.5,48.5,52.699,48.5,53,48.5c-0.101,0.301-0.301,0.4-0.301,0.7c0,0.101,0,0.3,0,0.3
		c0,0.101,0,0.301,0,0.301s0.101,0,0.2,0.1c0,0.2,0.101,0.3,0.3,0.4c-0.199,0-0.3,0-0.3,0.1c-0.2,0.2-0.399,0.4-0.6,0.6
		c0,0.2,0,0.301,0,0.4c0,0.2,0,0.4,0,0.7c0,0.1,0,0.1,0.1,0.2c0,0,0,0.1,0.101,0.199c-0.101,0-0.2,0-0.2,0
		C52.199,52.6,52,52.8,52,52.8c0-0.301,0-0.601,0-1c0,0-0.101,0,0-0.101c-0.101-0.1-0.2-0.2-0.2-0.399c0.2,0,0.3-0.2,0.399-0.301
		c0.301-0.399,0.301-0.8,0.5-1.199C52.5,49.8,52.5,49.6,52.5,49.5h-0.101c0-0.1,0-0.199,0-0.3c0,0,0-0.1,0-0.2
		C52.299,49,52.299,48.9,52.299,48.8z M53.5,49.5c0,0,0,0,0-0.1c0.199-0.4,0.5-0.6,0.699-0.9c0.101-0.1,0.101-0.1,0.301,0
		c1.5-0.1,3.199-0.199,4.8-0.399c0.2,0.2,0.399,0.399,0.399,0.6c-0.399,0.101-0.699,0.5-0.8,0.8c0,0.101,0,0.301,0,0.301
		S58.899,50,59,50.2c0.3,0,0.6,0,0.899,0.101c-0.1,0-0.1,0-0.1,0c0,0.1,0,0.199,0,0.199C59.899,50.6,60,50.6,60,50.6
		c-0.5,0.399-1,1-1.301,1.5c-0.1,0-0.1,0-0.1,0.1c0.1,0.3,0.4,0.601,0.8,0.601l0,0c0,0.1,0,0.1,0.101,0.199
		c-0.101,0-0.101,0-0.101,0c-0.399,0.4-0.7,0.801-1.2,1.101C58,54.2,57.799,54.3,57.5,54.5c0.1,0,0.1,0,0.199,0.101
		c-0.1,0-0.199,0.1-0.3,0.2c-1.1,0.899-2.399,1.5-3.6,2c-1.101,0.399-2,1-2.5,1.899c-0.101,0.101-0.3,0.101-0.3,0.101
		c0-0.2,0.1-0.4,0.2-0.5c-0.1-0.101-0.1-0.101-0.1-0.101c0.1-0.2,0.1-0.399,0.1-0.399v-0.2c0.101-0.2,0.2-0.4,0.301-0.7
		c0.199-0.5,0.5-0.9,0.699-1.3c0.101,0.1,0.301,0.2,0.5,0.2c0,0,0.101,0,0.2,0c0.101,0,0.3-0.2,0.3-0.301
		c-0.199-0.3-0.3-0.5-0.5-0.6C52.5,54.8,52.5,54.8,52.5,54.8c-0.101-0.101-0.101-0.2-0.2-0.301c0-0.1,0-0.199-0.101-0.3
		c0.101-0.2,0.101-0.3,0.2-0.399C52.5,53.6,52.5,53.5,52.5,53.5c0.199,0,0.399,0,0.6,0c0.1-0.1,0.2-0.199,0.4-0.199
		c0-0.101,0-0.101,0-0.101c0.1-0.2,0.1-0.399,0-0.399c0-0.2,0-0.301,0-0.4s-0.2-0.1-0.301-0.1c0-0.101,0-0.101,0-0.101V52
		C53.099,51.8,53,51.7,53,51.6c0.5-0.5,1.199-0.8,2-1c0-0.101,0-0.2,0-0.3l0,0V50.2c-0.301,0-0.5-0.2-0.801-0.399l0,0
		C54,49.6,53.799,49.6,53.5,49.5z M67.899,51.4c0,0.1,0,0.1,0,0.2c-2,0.1-4,0.2-6,0.399c0,0,0,0-0.1,0
		c-0.101,0.101-0.101,0.101-0.101,0.2c0,0-0.1,0-0.199,0c0.199-0.2,0.199-0.2,0.199-0.399c0-0.101,0-0.2,0-0.2
		c-0.1,0-0.199-0.101-0.199-0.101C61,51.6,60.699,51.8,60.199,52V51.8c0.301-0.2,0.5-0.4,0.7-0.601C62.199,51.8,63.5,52,65,51.6
		c1-0.2,2-0.3,3-0.4C68,51.3,68,51.3,67.899,51.4z M60.399,52.9c0.3,0,0.5-0.1,0.8-0.1c0,0.1,0.101,0.199,0.301,0.199
		c0.199,0,0.399,0,0.699,0c9-0.5,18.2-1,27.301-1.6c-0.2,0.3-0.301,0.6-0.5,0.9c-0.101,0.1-0.101,0.199-0.2,0.3
		c-0.601,0.8-1.3,1.6-1.9,2.3c-0.399,0.4-0.8,0.6-1.399,0.7c-1.4,0.2-2.801,0.399-4.301,0.5c-2,0.1-3.899,0.3-5.8,0.5
		c-2.2,0.2-4.2,0.3-6.399,0.399c-5,0-9.9,0.5-14.801,1.301c1.601-0.801,3-2,4.4-3.301c0.4-0.1,0.9-0.399,1.4-1
		C60.199,53.6,60.299,53.3,60.399,52.9z M58.299,58.7c1.1,0,2.2,0,3.3,0c0.9-0.1,1.6-0.2,2.5-0.399c0.6,0,1.1,0,1.6,0
		c-0.199,0.3-0.3,0.6-0.199,1c-0.101,0-0.101,0-0.2,0c-0.101,0.1-0.101,0.199-0.101,0.199c0,0.101,0,0.301,0,0.301
		c0,0.199,0,0.3,0,0.399c-2.699,0-5.5-0.2-8.1-0.399c-1.1,0.199-2.2,0.3-3.4,0.399c-0.199-0.399-0.5-0.5-1-0.399
		C52,60,51.099,60.2,50.299,60.2c0.3-0.1,0.7-0.2,0.899-0.399c0,0,0.101,0,0.101-0.101c0.1-0.1,0.2-0.1,0.2-0.2
		c0.1,0.101,0.199,0.101,0.199,0.101c0.101,0,0.101,0,0.2,0c1.4-0.101,2.8-0.2,4.3-0.3c0.301-0.5,0.9-0.7,1.7-0.7
		C58,58.7,58.199,58.7,58.299,58.7z M67,60.2c0.199-0.399,0.399-0.7,0.5-1.2c0,0,0,0,0-0.1c0.1-0.1,0.199-0.3,0.199-0.4
		c0-0.1,0-0.199,0-0.199l0,0c0.5,0,1,0,1.4,0s0.9,0,1.4,0c0.199-0.101,0.399-0.101,0.6-0.301c0.1,0,0.2,0,0.3-0.1
		c0.9-0.1,1.601-0.1,2.2,0.3c0.1,0,0.1,0,0.2,0c0.399,0,0.7-0.2,1.1-0.3c0.8-0.3,1.601-0.4,2.601-0.4c0.399,0,0.8,0,1.399,0
		c-0.399,0.301-0.7,0.801-0.7,1.5c0,0,0,0,0,0.101c0,0.2,0,0.5-0.1,0.7c-0.6,0-1,0-1.4-0.101c-1,0.101-2.1,0.3-3.1,0.5
		c-0.9,0.2-1.9,0.101-2.9-0.1c-0.399,0.1-0.699,0.1-1.1,0.1C68.699,60.2,68,60.2,67,60.2z M51.199,55.2
		c0.101-0.2,0.301-0.3,0.5-0.399c0,0.199,0,0.199,0,0.399c-0.199,0.101-0.399,0.3-0.6,0.4c0,0,0,0,0.1-0.101c0,0,0-0.1,0-0.199
		C51.199,55.3,51.199,55.3,51.199,55.2z M50.899,56c-0.2,0.101-0.2,0.2-0.2,0.301c0,0-0.2-0.101-0.2-0.2
		C50.599,56.1,50.699,56.1,50.899,56z M87.199,55.8c0.101,0,0.101-0.101,0.2-0.2c0.2,0.8,0.5,1.6,0.9,2.2c0,0.199,0,0.399,0.1,0.5
		c0.2,1.5,0.3,2.899,0.3,4.199c-0.199,0-0.3,0.101-0.399,0.301V63c0,0.2,0,0.4-0.101,0.601L88,63.8C88,64,88,64,88,64.1
		c0,0.2,0,0.399-0.101,0.6c-0.1,0.101-0.2,0.101-0.2,0.2s0,0.2,0,0.3c-0.1,0.2-0.1,0.4-0.199,0.601
		c-0.601,1.8-1.601,3.199-3.2,4.399c-2.5,1.8-4.5,1.3-5.8-1.2c-0.301-0.199-0.601-0.5-1-0.899c0.199-0.101,0.399-0.3,0.5-0.5
		c0,0.2,0,0.2,0,0.399c0.199-0.199,0.3-0.399,0.5-0.5c0,0-0.2,0-0.2-0.1c0.2-0.1,0.2-0.1,0.399-0.2c0-0.1,0.2-0.1,0.301-0.2
		c0,0,0,0,0-0.1c0.699-1.1,1.5-2.1,2.399-2.9c0,0,0.101,0,0.101-0.199c0,0.199,0,0.199,0,0.199c0,0.301,0,0.7,0.1,1
		c0.1,0.101,0.1,0.2,0.2,0.301c0.1,0.1,0.2,0.199,0.3,0.199c0.5,0,1.1,0,1.6,0c0.801-0.699,1.5-1.5,2.101-2.5c0-0.199,0-0.5,0-0.699
		c0-0.4,0-0.801,0-1.301c-0.101-0.1-0.101-0.199-0.2-0.199c-0.1-0.301-0.4-0.301-0.6-0.5c0.199-0.301,0.5-0.5,0.6-0.7
		c0-0.101,0-0.101,0-0.2c-2-0.1-4.1-0.1-6,0c-0.1,0-0.1,0-0.1,0c0,0.1,0,0.1,0,0.2c-0.301,0-0.5,0.1-0.601,0.2V59.7
		c0.101-0.1,0.3-0.2,0.601-0.3c0,0,0,0,0.1-0.1c0,0,0-0.101,0-0.2c-0.1-0.101-0.1-0.4-0.2-0.601c0.101,0,0.2-0.199,0.3-0.199
		c0.2-0.301,0.301-0.5,0.5-0.801c0.301-0.1,0.7-0.1,1-0.1c0-0.1,0-0.1,0.101-0.2c1-0.2,2-0.2,3,0.101c0.1,0,0.1,0,0.2,0h-0.101
		c0.3,0,0.7,0,1.101,0c0,0,0.1,0,0.199,0c0.2-0.2,0.301-0.4,0.4-0.5V56.7C86.5,56.4,86.899,56.1,87.199,55.8z M82.5,64.1
		c0-0.101,0-0.3,0-0.5c-0.2-0.2-0.2-0.3-0.2-0.601c0.399-0.199,0.7-0.5,0.899-0.699c0.5-0.4,0.801-0.801,1.2-1.301c0,0,0,0,0,0.101
		c0.101,0.399,0.3,0.7,0.3,1.1C84.399,63,83.799,63.8,83,64.4c0,0-0.101,0-0.301,0C82.599,64.3,82.5,64.2,82.5,64.1z M92.699,39.3
		c0-0.1,0.101-0.3,0.2-0.3c0,0.2,0,0.3,0,0.5c-0.1,0.3,0,0.7,0.101,1c0.399,1,1,1.8,2,2.3c0,0.2,0,0.2,0,0.3
		c0.3,0.7,0.699,1.3,1,1.9v0.2c0.3,0.601,0.6,1.2,0.899,1.8c-0.1,0.101-0.1,0.2,0,0.301C97,48,97.099,48.6,97,49.3
		c-0.7-0.5-1.301-1.301-1.801-2c-2-2.8-4.5-4.101-7.3-4.101C89.5,42,91,40.6,92.699,39.3z"/>
	<path fill="#FFF200" d="M19.999,1.6c-0.1,0.1-0.3,0.2-0.3,0.2c-0.4,0.2-0.7,0.5-0.8,0.8c0,0,0,0.2,0,0.3c0,0.4,0.1,0.7,0.2,1.1
		c0.3,0.1,0.6,0,0.9-0.2c0-0.1,0-0.2,0-0.3c0-0.2,0-0.2,0-0.5c0,0,0,0,0.1,0c0.2-0.3,0.3-0.5,0.4-0.8V2c0-0.2-0.2-0.2-0.3-0.3
		C20.199,1.6,20.099,1.6,19.999,1.6z"/>
	<path fill="#FAA61A" d="M18.899,2.6c0.1-0.3,0.4-0.6,0.8-0.8c-0.4,0.1-0.6,0.2-0.7,0.2c-0.4,0.2-0.6,0.4-0.6,0.8
		c-0.1,0.2,0,0.5,0.1,0.7c1.2,1.1,2.7,1.5,4.6,1.2c0.2-0.1,0.5,0,0.6,0.3c0.7,0.8,1.1,1.8,1.2,3c0.1,0,0.1,0,0.1,0.2
		c0.1,0,0.1,0,0.2,0.1c0,0,0,0.1,0,0.2c0,0,0,0.1,0,0.2c0,0.1,0.2,0.3,0.3,0.5c0.1,0.3,0.3,0.8,0.4,1.2c0,0.3,0.1,0.6,0,1.1
		c0.1,0,0.1,0.1,0.2,0.1c-0.1,0.1,0,0.2,0.1,0.2c0,0.3,0,0.6,0,0.9c0,0.8,0.2,1.6,0.4,2.3c0.1,0.3,0.1,0.5,0.1,0.7
		c0,0.1,0,0.1,0.2,0.1c0,0.2,0,0.2,0.1,0.2c-0.1,0.5-0.1,1,0,1.5c0.2,1.1,0.8,2.1,1.7,2.8c0.2,0.1,0.3,0.2,0.5,0.4
		c0.2,0.1,0.3,0.2,0.4,0.4c1.5-0.1,2.7,0.4,3.6,1.4c1,0,1.9,0.2,2.8,0.8c0.7,0.5,1.2,1.2,1.5,2.2l0,0c0.8,0.3,1.7,0.7,2.5,1
		c0.1,0.1,0.1,0.1,0.2,0.1c2,1,4.1,1.5,6.3,1.4c0.9-0.5,1.9-1,2.9-1.5c0.2-0.2,0.5-0.3,0.7-0.5c2.9-2.7,6.2-4.7,9.9-6.2
		c0.699-0.2,1.5-0.4,2.3-0.4C62,18.6,62,18,62.199,17.5c-0.199,0-0.3,0-0.5,0c0-0.1,0-0.2,0-0.2c0-0.1,0-0.1,0-0.2
		c0-0.1,0-0.1,0-0.1c0.2-0.2,0.301-0.2,0.5-0.3c0.5-0.2,0.9-0.4,1.301-0.5c0.1,0,0.1,0,0.199,0c-0.6,0-1.199,0.1-1.699,0.3
		c0,0-0.101,0-0.101,0.1c-0.1,0.1-0.2,0.1-0.2,0.2c-0.1,0-0.199,0-0.199,0c-0.301,0.5-0.801,0.7-1.2,0.8c-1.8,1.3-4,2.4-6.101,3.4
		c-1.399,0.6-2.699,1.3-3.899,2.3c-0.7,0.5-1.4,0.8-2.2,1.1h-0.1c0,0.1,0,0.1,0,0.1c0,0.1,0,0.2,0,0.3c-0.1,0-0.1,0,0,0
		c-1.1,1.2-2.5,1.5-3.8,1c-0.2,0-0.3-0.2-0.2-0.3c0-0.1,0-0.2,0-0.3c0,0,0.1,0,0.2-0.1c0.3-0.1,0.8-0.3,1.3-0.3c-0.3,0-0.5,0-0.7,0
		c-1.3-0.3-2.3-0.8-3.3-1.7c-0.1-0.1-0.3-0.3-0.5-0.3c-1.4-0.5-2.6-1.2-3.5-2.3c0,0,0,0-0.1,0.1c-0.2,0-0.2,0-0.3,0.1
		c-1.4-0.9-2.6-1.6-3.9-2.4c0.4,0.4,0.8,0.8,1,1.3c0,0.1,0,0.1,0,0.2c0.1,0,0.2,0.2,0.3,0.3v0.1c0,0-0.1,0-0.2,0
		c0-0.1-0.1-0.1-0.1-0.2l0,0h-0.1c-0.1,0-0.1,0-0.2,0c-1.4-1-2.9-2-4.4-2.7c-0.1,0-0.1,0-0.2-0.1c-0.1,0-0.1-0.1,0-0.2
		c0,0,0,0,0-0.1c-0.1-0.1-0.1-0.1,0-0.1c0.1,0,0.2-0.1,0.2-0.2c0-0.1,0.2-0.1,0.2-0.1l0,0c0.2,0,0.5,0.1,0.6,0.2
		c-0.5-0.4-1.1-0.7-1.6-0.9c-0.2-0.2-0.3-0.3-0.3-0.5c-0.2-1.7-0.4-3.1-0.6-4.7c-0.1,0-0.1-0.1-0.1-0.1c-0.1-0.1-0.1-0.2-0.1-0.2
		c0-0.7-0.1-1.2-0.1-1.8c-0.4-1.2-0.8-2.5-1-3.8c-0.2-0.2-0.3-0.4-0.4-0.6c-0.1-0.1-0.2-0.3-0.4-0.5c0,0.2-0.2,0.4-0.2,0.5
		c0.4,0.7,0.7,1.4,0.8,2.4c0,0,0,0,0.1,0.1c-0.1,0.1-0.1,0.2-0.1,0.4c-0.1,0.1-0.1,0.3-0.1,0.5c0,0.1,0,0.1,0,0.1
		c-0.2,0.1-0.3,0.1-0.3,0.2c-0.4-1.6-1-2.9-2-4l0.1,0.2c0,0,0,0.1-0.1,0.2c-0.1,0-0.2,0.1-0.2,0.2c-0.5,0.1-0.8,0-1.1-0.4
		c0-0.3,0-0.5,0-0.7c-0.1-0.3-0.1-0.3,0-0.5c0.3-0.3,0.5-0.6,0.8-0.9c-0.4-0.1-0.7-0.2-1.1-0.3c-0.3,0.7-0.5,1.5-0.6,2.4l0,0
		c-0.1,0.2-0.2,0.4-0.5,0.5c-0.7-0.5-0.7-1.3-0.3-2.2c0-0.1,0-0.1,0-0.1c0.2-0.3,0.4-0.5,0.6-0.6c-0.4-0.1-0.8,0-1.3,0.1
		c0.1,0.1,0.3,0.1,0.3,0.3v0.2c-0.1,0.3-0.2,0.5-0.4,0.8c-0.1,0-0.1,0-0.1,0c0,0.3,0,0.3,0,0.5c0,0.1,0,0.2,0,0.3
		c-0.3,0.2-0.6,0.3-0.9,0.2c-0.1-0.4-0.2-0.7-0.2-1.1C18.899,2.8,18.899,2.6,18.899,2.6z"/>
	<path fill="#FFF200" d="M20.899,2.2c0,0,0,0,0,0.1c-0.4,0.9-0.4,1.7,0.3,2.2c0.3-0.1,0.4-0.3,0.5-0.5l0,0c0.1-0.9,0.3-1.7,0.6-2.4
		c0,0,0,0,0-0.1c-0.1,0-0.1,0-0.1,0c-0.1,0-0.1,0-0.2,0h-0.1c-0.2,0-0.3,0-0.4,0.1C21.299,1.7,21.099,1.9,20.899,2.2z"/>
	<path fill="#FAA61A" d="M24.999,2.9c0,0,0,0,0.1,0c-0.1-0.1-0.2-0.3-0.2-0.4c-0.2,0-0.4-0.2-0.6-0.2c0,0.2-0.1,0.3-0.1,0.5
		c0.1,0.2,0.3,0.2,0.5,0.5V3.2c0-0.1,0.1-0.2,0.2-0.2C24.899,2.9,24.899,2.9,24.999,2.9z"/>
	<path fill="#FFF200" d="M25.099,2.9c-0.1,0-0.1,0-0.1,0c-0.1,0-0.1,0-0.1,0.1c-0.1,0-0.2,0.1-0.2,0.2v0.1c-0.3,0.2-0.3,0.5-0.2,0.7
		c0,0.1,0,0.1,0.2,0.2c0.3,0,0.5,0,0.8-0.1c0-0.1,0.2-0.3,0.2-0.5c0.1-0.1,0.1-0.2,0.2-0.3c-0.1-0.1-0.1-0.2-0.2-0.2
		c-0.2-0.1-0.3-0.2-0.5-0.3v0.1C25.199,2.9,25.199,2.9,25.099,2.9z"/>
	<path fill="#FFF200" d="M23.799,1.7c-0.1,0-0.1,0-0.2,0.1c-0.1-0.1-0.1-0.1-0.1,0c-0.1,0-0.1,0-0.1,0.1c-0.3,0.3-0.5,0.6-0.8,0.9
		c-0.1,0.2-0.1,0.2,0,0.5c0,0.2,0,0.4,0,0.7c0.3,0.4,0.6,0.5,1.1,0.4c0-0.1,0.1-0.2,0.2-0.2c0.1-0.1,0.1-0.2,0.1-0.2l-0.1-0.2l0,0
		c-0.1-0.2-0.1-0.3-0.1-0.5c0.1-0.1,0.2-0.3,0.2-0.3c0.1,0,0.1-0.1,0.2-0.2c0-0.2,0.1-0.3,0.1-0.5c0,0,0-0.1,0-0.3l0,0
		c-0.2-0.1-0.3-0.2-0.5-0.4V1.7z"/>
	<path fill="#FFCB05" d="M24.699,3.3c-0.2-0.3-0.4-0.3-0.5-0.5c-0.1,0.1-0.1,0.2-0.2,0.2c0,0-0.1,0.2-0.2,0.3c0,0.2,0,0.3,0.1,0.5
		l0,0c1,1.1,1.6,2.4,2,4c0-0.1,0.1-0.1,0.3-0.2c0,0,0,0,0-0.1c0-0.2,0-0.4,0.1-0.5c0-0.2,0-0.3,0.1-0.4c-0.1-0.1-0.1-0.1-0.1-0.1
		c-0.1-1-0.4-1.7-0.8-2.4c-0.3,0.1-0.5,0.1-0.8,0.1c-0.2-0.1-0.2-0.1-0.2-0.2C24.399,3.8,24.399,3.5,24.699,3.3z"/>
	<path fill="#FFCB05" d="M30.299,16.7c-0.1-0.1-0.4-0.2-0.6-0.2l0,0c0,0-0.2,0-0.2,0.1c0,0.1-0.1,0.2-0.2,0.2c-0.1,0-0.1,0,0,0.1
		c0,0.1,0,0.1,0,0.1c-0.1,0.1-0.1,0.2,0,0.2c0.1,0.1,0.1,0.1,0.2,0.1c1.5,0.7,3,1.7,4.4,2.7c0.1,0,0.1,0,0.2,0h0.1l0,0
		c0,0.1,0.1,0.1,0.1,0.2c0.1,0,0.2,0,0.2,0v-0.1c-0.1-0.1-0.2-0.3-0.3-0.3c0-0.1,0-0.1,0-0.2c-0.2-0.5-0.6-0.9-1-1.3
		C32.199,17.8,31.199,17.2,30.299,16.7z"/>
	<path fill="#FFCB05" d="M44.199,25.1c-0.1,0.1-0.2,0.1-0.2,0.1c0,0.1,0,0.2,0,0.3c-0.1,0.1,0,0.3,0.2,0.3c1.3,0.5,2.7,0.2,3.8-1
		c-0.1,0-0.1,0,0,0c0-0.1,0-0.2,0-0.3c0,0,0,0,0-0.1h0.1c0-0.1,0-0.1,0.1-0.1c-0.2-0.1-0.2-0.1-0.2-0.1c-0.9,0.2-1.7,0.4-2.5,0.6
		C44.999,24.8,44.499,25,44.199,25.1z"/>
	<path fill="#FFCB05" d="M62.199,16.7c-0.199,0.1-0.3,0.1-0.5,0.3c0,0,0,0,0,0.1c0,0.1,0,0.1,0,0.2c0,0,0,0.1,0,0.2
		c0.2,0,0.301,0,0.5,0c0.101-0.3,0.601-0.7,1.101-1c0,0,0.1,0,0.2-0.1c0.199,0.1,0.199,0.1,0.5,0.1c0,0,0,0.1,0,0.2
		c0,0.1,0,0.1,0,0.2s0,0.1,0,0.2c-0.301,0.2-0.601,0.4-0.801,0.5c0.4,0,0.801,0,1.301-0.1c0.3-0.3,0.699-0.5,1-0.7
		c0.1,0,0.199,0,0.399,0c-0.1-0.1-0.2-0.1-0.2-0.1c-0.1-0.1-0.1-0.1-0.199-0.1c0-0.1-0.101-0.1-0.301-0.2c-0.5-0.2-1-0.2-1.5-0.2
		c-0.1,0-0.1,0-0.199,0C63.099,16.3,62.699,16.5,62.199,16.7z"/>
	<path fill="#FAA61A" d="M62.899,19c-0.1,0-0.1,0.1,0,0.2c0,0.1,0,0.1,0.101,0.1c-0.101,0-0.101,0-0.101,0.1c0.2,0,0.5,0,0.8,0.1
		c0,0,0.101,0,0.2,0c-0.1-0.9,0.101-1.5,0.601-2c-0.5,0.1-0.9,0.1-1.301,0.1C63.099,17.7,63,17.8,63,17.8c0,0.4,0,0.7-0.101,1
		C62.899,18.8,62.899,18.9,62.899,19z"/>
	<path fill="#FFF200" d="M62.899,19.2c-0.1-0.1-0.1-0.2,0-0.2c0-0.1,0-0.2,0-0.2C63,18.5,63,18.2,63,17.8c0,0,0.1-0.1,0.199-0.2
		c0.2-0.1,0.5-0.3,0.801-0.5c0-0.1,0-0.1,0-0.2s0-0.1,0-0.2c0-0.1,0-0.2,0-0.2c-0.301,0-0.301,0-0.5-0.1c-0.101,0.1-0.2,0.1-0.2,0.1
		c-0.5,0.3-1,0.7-1.101,1C62,18,62,18.6,62.299,19.4c0,0.1,0.2,0.1,0.2,0.1c0.199,0,0.3-0.1,0.399-0.1c0-0.1,0-0.1,0.101-0.1
		C62.899,19.3,62.899,19.3,62.899,19.2z"/>
	<path fill="#FAA61A" d="M66.5,17.2c0,0,0,0,0,0.1c-0.2,0.3-0.5,0.6-1,0.7c-0.2,0.4-0.301,0.9-0.5,1.3
		c-0.101,0.2-0.101,0.3-0.101,0.4c0.5,0.1,1.101,0.3,1.601,0.6c0,0-0.2-0.1-0.2-0.3c-0.101-0.2-0.101-0.4-0.101-0.5s0-0.2,0-0.3
		c0-0.1,0-0.2,0.101-0.2c0,0,0,0,0.2-0.1c0-0.1,0-0.1,0-0.1c0-0.1,0-0.2,0-0.2c0.399-0.7,0.899-1.1,1.6-1.3
		c-0.9-0.3-1.9-0.6-2.9-0.9c0.2,0.1,0.301,0.1,0.301,0.2c0.1,0,0.1,0,0.199,0.1c0,0,0.101,0,0.2,0.1c0-0.1,0-0.1,0-0.1
		C66.199,16.7,66.5,16.8,66.5,17.2z"/>
	<path fill="#FFF200" d="M66.5,17.3c0-0.1,0-0.1,0-0.1c0-0.4-0.301-0.5-0.601-0.5c0,0,0,0,0,0.1c-0.2,0-0.3,0-0.399,0
		c-0.301,0.2-0.7,0.4-1,0.7c-0.5,0.5-0.7,1.1-0.601,2v0.1c0.2,0.4,0.5,0.4,0.8,0.2c0,0,0.101,0,0.2-0.1c0-0.1,0-0.2,0.101-0.4
		c0.199-0.4,0.3-0.9,0.5-1.3C66,17.9,66.299,17.6,66.5,17.3z"/>
	<path fill="#FAA61A" d="M68.699,17.5v0.1c0,0.6-0.3,1-0.699,1.4c-0.101,0-0.2,0.1-0.301,0.2c-0.1,0.3-0.199,0.6-0.3,1
		c-0.1,0-0.1,0.1-0.1,0.2c-0.2,0.1-0.3,0.1-0.4,0.1c0.3,0.2,0.7,0.3,1.101,0.6c0.3,0.1,0.699,0.1,1.1,0.2c-0.3-0.1-0.4-0.3-0.6-0.5
		c0-1.3,0.5-2.2,1.6-2.6c-0.6-0.3-1.1-0.6-1.6-0.7C68.5,17.5,68.5,17.5,68.699,17.5z"/>
	<path fill="#FFF200" d="M68.699,17.6v-0.1c-0.199,0-0.199,0-0.199,0c0-0.1-0.2-0.2-0.2-0.2c-0.101,0-0.101,0-0.2,0
		c-0.7,0.2-1.2,0.6-1.6,1.3c0,0,0,0.1,0,0.2c0,0,0,0,0,0.1c-0.2,0.1-0.2,0.1-0.2,0.1c-0.101,0-0.101,0.1-0.101,0.2
		c0,0.1,0,0.2,0,0.3s0,0.3,0.101,0.5c0,0.2,0.2,0.3,0.2,0.3c0.199,0.1,0.3,0.2,0.399,0.2c0.101,0,0.2,0,0.4-0.1c0-0.1,0-0.2,0.1-0.2
		c0.101-0.4,0.2-0.7,0.3-1c0.101-0.1,0.2-0.2,0.301-0.2C68.399,18.6,68.699,18.2,68.699,17.6z"/>
	<path fill="#FFF200" d="M71,19c0-0.1,0-0.1,0.1-0.2s0.1-0.2,0.1-0.3c0,0,0,0-0.1-0.1c-0.1-0.2-0.3-0.4-0.6-0.4
		c-0.2,0-0.301,0.2-0.4,0.2c-1.1,0.4-1.6,1.3-1.6,2.6c0.199,0.2,0.3,0.4,0.6,0.5c0.1,0,0.1,0,0.2,0c0.1,0,0.1,0,0.2,0
		c0,0,0.1-0.1,0.199-0.1c0-0.1,0-0.2,0.101-0.3c0.1-0.3,0.2-0.6,0.2-0.9c0.3-0.3,0.699-0.6,1-0.8C71,19.1,71,19,71,19z"/>
	<path fill="#FAA61A" d="M71,19c0,0,0,0.1,0,0.2c-0.301,0.2-0.7,0.5-1,0.8c0,0.3-0.101,0.6-0.2,0.9c-0.101,0.1-0.101,0.2-0.101,0.3
		c-0.1,0-0.199,0.1-0.199,0.1c-0.101,0-0.101,0-0.2,0c1,0.2,2,0.3,3,0.4c0-0.1,0-0.1,0.1-0.2c0.101-0.1,0.3-0.3,0.3-0.5
		c0-0.1-0.199-0.2-0.199-0.3c0,0,0,0,0,0.1c-0.101,0-0.101,0-0.2,0c-0.101,0.1-0.3,0.2-0.4,0.3c-0.2,0.1-0.399,0.1-0.5,0.1
		c-0.1,0-0.2,0-0.3-0.1c-0.1-0.1-0.1-0.2-0.2-0.3c0,0,0-0.1,0-0.2c0-0.1,0-0.1,0-0.1s0,0,0-0.1s0-0.1,0.101-0.2
		c0-0.1,0.1-0.2,0.199-0.2c0.101-0.2,0.101-0.2,0.101-0.2c0.1,0,0.2,0,0.399,0l0,0c0,0,0.101,0,0.2,0C71.599,19.5,71.299,19.2,71,19
		z"/>
	<path fill="#FFF200" d="M71.699,19.8L71.699,19.8c-0.199,0-0.3,0-0.399,0c0,0,0,0-0.101,0.2C71.099,20,71,20.1,71,20.2
		c-0.101,0.1-0.101,0.1-0.101,0.2s0,0.1,0,0.1s0,0,0,0.1c0,0.1,0,0.2,0,0.2C71,20.9,71,21,71.099,21.1c0.1,0.1,0.2,0.1,0.3,0.1
		c0.101,0,0.3,0,0.5-0.1c0.101-0.1,0.3-0.2,0.4-0.3c0.1,0,0.1,0,0.2,0c0-0.1,0-0.1,0-0.1c0-0.1,0-0.2,0-0.2c0-0.1,0-0.1,0.199-0.2
		c-0.199,0-0.199-0.1-0.199-0.1c-0.2-0.4-0.301-0.4-0.601-0.4C71.799,19.8,71.699,19.8,71.699,19.8z"/>
	<path fill="#0085B8" d="M38.599,6.5c0-1.9-0.8-3.1-2.5-3.6c-1.1-0.4-2.2-0.6-3.4-0.6c-0.2-0.1-0.4-0.1-0.5,0
		c-0.3,0-0.5,0.2-0.7,0.5c0,0-0.1,0.1-0.2,0.2c0,0.3,0,0.6,0.1,0.8c0,0.2,0,0.2,0,0.4h0.1c0,0,0,0.1,0.1,0.1c0,0.1,0,0.1,0,0.2
		c0.5,0.7,1.1,1.2,1.9,1.7C35.099,6.5,36.899,6.6,38.599,6.5z M34.499,3L34.499,3c0.4,0,0.5,0.1,0.8,0.3c0.2,0,0.3,0.1,0.4,0.3
		c-0.6,0.6-1.3,0.8-2.2,0.6c-0.7-0.2-1.2-0.4-1.5-0.8c0-0.1,0-0.1,0-0.1c0-0.1,0-0.2,0-0.3c-0.1,0-0.1,0,0,0c0-0.1,0.1-0.2,0.2-0.4
		c0,0,0,0,0.1,0c0,0,0.1,0,0.2,0c0,0,0.2,0,0.2-0.1C33.299,2.5,33.899,2.6,34.499,3z"/>
	<path fill="#95B6DF" d="M34.499,3L34.499,3c-0.6-0.4-1.2-0.5-1.8-0.5c0,0.1-0.2,0.1-0.2,0.1c-0.1,0-0.2,0-0.2,0c-0.1,0-0.1,0-0.1,0
		c-0.1,0.2-0.2,0.3-0.2,0.4c-0.1,0-0.1,0,0,0c0,0.1,0,0.2,0,0.3c0,0,0,0,0,0.1c0.3,0.4,0.8,0.6,1.5,0.8c0.9,0.2,1.6,0,2.2-0.6
		c-0.1-0.2-0.2-0.3-0.4-0.3C34.999,3.1,34.899,3,34.499,3z"/>
	<path fill="#0085B8" d="M28.199,6c0,0.2,0,0.3,0.1,0.6c0.9-0.3,1.7-0.8,2.4-1.3h0.2c-0.2-0.1-0.2-0.2-0.2-0.3
		c-0.7,0.2-1.2,0.3-1.9,0.6c-0.1,0.1-0.1,0.1-0.1,0.2c0,0,0,0.1,0,0.2h-0.2C28.399,6,28.299,6,28.199,6z"/>
	<path fill="#FFCB05" d="M33.999,26c0.1,0,0.2,0,0.2,0.2c0.4,1.8,0.3,3.4-0.2,5.2c-0.2,0.2-0.3,0.4-0.2,0.7
		c-0.7,1.2-1.6,2.1-2.8,2.7c0.4,0.2,1,0.4,1.5,0.5c0.5,0,0.8,0,1.2-0.3c1-0.7,1.8-1.6,2.5-2.6c0.3-0.6,0.7-1.2,0.8-2
		c0.3-2.4-0.3-4.6-1.8-6.2c-1,0-1.9-0.1-2.5-0.2c-0.2,0-0.2,0-0.3,0C33.199,24.3,33.699,25,33.999,26z M34.099,24.8
		c0.1-0.1,0.1-0.1,0.1-0.1c1-0.1,1.6,0.3,1.9,1.1c0,0,0,0.1,0,0.2l0,0c-0.1,0.2-0.1,0.2-0.1,0.3c0,0,0,0-0.1,0c-0.2,0-0.2,0-0.2,0
		c-0.5-0.3-1-0.7-1.5-0.8c0,0-0.2-0.1-0.3-0.2v-0.1c0-0.1,0-0.2,0-0.2c0-0.1,0-0.1,0-0.2h0.1C33.999,24.8,33.999,24.8,34.099,24.8z"
		/>
	<path fill="#FFF9AE" d="M34.199,24.7c0,0,0,0-0.1,0.1c-0.1,0-0.1,0-0.1,0h-0.1c0,0.1,0,0.1,0,0.2c0,0,0,0.1,0,0.2v0.1
		c0.1,0.1,0.3,0.2,0.3,0.2c0.5,0.1,1,0.5,1.5,0.8c0,0,0,0,0.2,0c0.1,0,0.1,0,0.1,0c0-0.1,0-0.1,0.1-0.3l0,0c0-0.1,0-0.2,0-0.2
		C35.799,25,35.199,24.6,34.199,24.7z"/>
	<path fill="#ED1C24" d="M37.999,31.8c0,0-0.1,0-0.2,0c-0.5,1.8-1.6,3.1-3.3,3.8c-0.2,0.1-0.3,0.2-0.4,0.2s-0.2,0.2-0.2,0.2
		c0,0.2,0,0.3-0.1,0.5c0,0,0,0-0.1,0c0.5,1.3,0.8,2.5,1.3,3.6c1.3-2.6,2.7-5.2,4.3-7.7c-0.3-0.1-0.6-0.3-0.8-0.6
		C38.299,31.8,38.199,31.8,37.999,31.8z"/>
	<path fill="#FFCB05" d="M37.999,30.5c0.2,0,0.4,0,0.7,0c0.5,0.2,1,0.5,1.3,0.8c0.1,0,0.2,0,0.3,0c0.2,0,0.2,0.2,0.4,0.3
		c0.1,0,0.1,0.1,0.2,0.2c-0.2,0.2-0.4,0.5-0.5,0.8c0,0,0,0,0.1-0.1c0,0,0.2,0,0.3,0l0,0c0.1,0,0.1,0,0.2,0c0,0.1,0,0.1,0.1,0.2
		c-1.1,2.6-2.2,5.3-3.5,7.9c-1.2,2.4-2.3,4.899-3.4,7.399c-0.3,0.801-0.7,1.601-1.3,2.4c-0.1-0.1-0.1-0.4,0.1-0.6c0,0,0-0.2,0.1-0.2
		c1-3.601,2.3-7.1,4.1-10.5c0.6-1.2,1.1-2.4,1.8-3.6c-0.5,0.7-0.9,1.5-1.3,2.3c-1.2,2-2.2,4-3,6.2c-1.5,2.8-2.7,5.6-4,8.6
		c0,0.1,0,0.2,0,0.2c-0.1,0.5-0.4,0.8-0.5,1.399c0-0.1,0-0.2-0.1-0.2c-0.2,0.301-0.3,0.601-0.4,0.9c0,0,0,0,0.1,0.1
		c-0.2,0.301-0.4,0.801-0.6,1.2c0,0,0,0-0.1,0s-0.1,0.101-0.1,0.101c-0.1,0.5-0.3,0.8-0.5,1.199c0,0,0,0,0.2,0.101
		c-0.3,0.5-0.5,0.899-0.7,1.399c-0.1,0-0.1,0-0.1,0c-0.6,1.2-1.2,2.5-1.7,3.601c0,0.1,0,0.2,0.1,0.2c-0.1,0.199-0.1,0.5-0.3,0.699
		c-0.4,0.301-0.6,0.601-0.8,1l0,0c-0.1,0.2-0.3,0.301-0.5,0.5c-0.2,0.2-0.3,0.4-0.5,0.5c-0.1,0.101-0.2,0.101-0.2,0.101
		c-0.6,0.6-1,1-1.4,1.6c-0.3,0.2-0.4,0.601-0.4,1c0.1,0.2,0.1,0.3,0.2,0.601c0.1,0,0.1,0,0.2,0c1.6-0.5,2.7-1.4,3.4-2.7
		c0.2-0.101,0.4-0.3,0.7-0.5c0.8-0.601,1.4-1.4,2-2.3c0.3-1,0.8-1.801,1.2-2.7v0.1c0.1-0.399,0.2-0.7,0.3-1l0.3-0.7
		c0-0.1,0.2-0.399,0.2-0.5V58.8h0.2c0.1-0.5,0.4-1,0.6-1.4c0-0.1,0.2-0.2,0.2-0.4c0.2-0.5,0.3-0.899,0.5-1.399c1.7-4,3.4-8,5.2-11.9
		c1.2-2.7,2.4-5.3,3.7-7.9c0.3-0.6,0.6-1.3,0.9-1.9c0-0.1,0-0.1,0-0.1v-0.2c0.2-0.1,0.2-0.3,0.3-0.4c0,0,0-0.1,0.2-0.2l0,0
		c0.1-0.2,0.2-0.5,0.4-0.6v-0.1v-0.1c0.1-0.2,0.1-0.2,0.1-0.4c0.2-0.2,0.4-0.4,0.6-0.5c0-0.1,0-0.1,0.1-0.1c0-0.1,0-0.2,0-0.2
		s0-0.1,0.1-0.2c0.1-0.3,0.2-0.6,0.4-0.9c0.1-0.1,0.1-0.3,0-0.4c0.1-0.1,0.1-0.1,0.1-0.2c-1.3,0-2.6-0.5-3.9-1.5
		c-0.9-0.2-1.8-0.5-2.5-1C38.099,28,38.199,29.3,37.999,30.5z M32.099,51.4c0.1,0.1,0.1,0.1,0.2,0.1c0,0.101,0,0.101,0.1,0.101
		c0,0.399-0.1,0.6-0.2,0.8c-0.1,0.1-0.2,0.1-0.2,0.1c0,0.101,0,0.2,0,0.301l0,0c-0.1,0.1-0.2,0.199-0.3,0.199l0,0
		c-0.1,0-0.2,0-0.3,0c0-0.199,0-0.5,0-0.6c-0.1-0.1-0.1-0.1-0.1-0.1c0.2-0.2,0.3-0.301,0.4-0.5c0,0,0-0.101,0-0.2
		c0.1,0,0.3-0.101,0.4-0.101V51.4z"/>
	<path fill="#FFF200" d="M32.299,51.5c-0.1,0-0.1,0-0.2-0.1v0.1c-0.1,0-0.3,0.101-0.4,0.101c0,0.1,0,0.2,0,0.2
		c-0.1,0.199-0.2,0.3-0.4,0.5c0,0,0,0,0.1,0.1c0,0.1,0,0.4,0,0.6c0.1,0,0.2,0,0.3,0l0,0c0.1,0,0.2-0.1,0.3-0.199l0,0
		c0-0.101,0-0.2,0-0.301c0,0,0.1,0,0.2-0.1c0.1-0.2,0.2-0.4,0.2-0.8C32.299,51.6,32.299,51.6,32.299,51.5z"/>
	<path fill="#FFF200" d="M41.099,32.7c-0.1-0.1-0.1-0.1-0.1-0.2c-0.1,0-0.1,0-0.2,0l0,0c-0.1,0-0.3,0-0.3,0
		c-0.1,0.1-0.1,0.1-0.1,0.1c-0.1,0.1-0.1,0.1-0.1,0.1c0,0.1,0,0.1-0.1,0.1c-0.4,1-0.9,1.8-1.2,2.7c-0.7,1.2-1.2,2.4-1.8,3.6
		c-1.8,3.4-3.1,6.899-4.1,10.5c-0.1,0-0.1,0.2-0.1,0.2c-0.2,0.199-0.2,0.5-0.1,0.6c0.6-0.8,1-1.6,1.3-2.4c1.1-2.5,2.2-5,3.4-7.399
		C38.899,38,39.999,35.3,41.099,32.7z"/>
	<path fill="#856397" d="M12.899,53.2c-0.4,0-0.7,0.101-1.1,0.101c-0.6-0.5-1.3-0.801-1.9-1.2V52l0,0c-0.6,0.301-1.1,0.601-1.6,1
		c-4.3,5.101-6.4,10.801-6.4,17.5c0,1.801,0.1,3.5,0.6,5.101c0.1,0.2,0.2,0.399,0.4,0.6c1.4,5.7,5,9.3,10.6,10.601
		c2.3,0.5,4.5,0.3,6.8-0.601c2.8-1.3,5.2-3.2,7.2-5.6c1.7-2,3-4.101,4.2-6.3c1-2.5,1.5-5.101,1.5-7.801c0-0.699,0-1.399,0.2-2v-0.1
		c-1.1-1-1.9-2.2-2.4-3.6c-0.1,0.399-0.3,0.699-0.5,1c0,0,0-0.2,0-0.301l0,0h-0.2c-0.1,0.101-0.1,0.301-0.1,0.5c0,0.2,0,0.4,0,0.601
		c-0.4,0.1-0.7,0.399-1,0.899c-0.2,0.301-0.3,0.7-0.4,1c-0.1,0.2-0.3,0.4-0.3,0.7c-0.3,0.4-0.5,0.8-0.8,1.101
		c-0.4,0.399-0.7,0.8-1.1,1.199c-0.4,2.301-1.4,4.5-2.9,6.301c-0.7,0.8-1.5,1.5-2.2,1.899c-1.8,0.9-3.5,0.9-5.3,0.101
		c-0.7-0.5-1.3-0.9-1.7-1.5c-0.1-0.301-0.2-0.5-0.2-0.7c-0.1-0.9-0.4-1.8-0.8-2.601c-0.5-3,0.3-5.699,2.2-8.199
		c0.7-1,1.5-1.801,2.2-2.601c0-0.1,0-0.2,0.1-0.2c0-0.199,0-0.199,0-0.199c0.5-0.601,1.2-0.9,2.1-0.801c0.2,0,0.3,0,0.4,0
		c2.4-0.1,4,0.801,5.2,2.601c0.4-1,0.8-1.9,1.2-2.8c0.4-0.301,0.8-0.801,1.1-1.301c0-0.199,0-0.3,0-0.5c0-0.3-0.1-0.6-0.2-0.8
		c0,0.101,0,0.101,0.1,0.101c0.1-0.301,0.3-0.5,0.4-0.801c-1.3-1-2.8-1.3-4.6-1c-0.2-0.199-0.7-0.199-1.1,0
		c-1.2,0.2-2.4,0.101-3.5-0.399C17.199,53.2,15.099,52.8,12.899,53.2z M12.299,54.8c-0.4,0.8-1.1,1.6-2,2.199
		c-0.3,0.301-0.7,0.601-1,1.2c-0.3,0.4-0.7,0.7-1.1,0.8c0,0-0.1,0-0.2,0c-1,1.801-1.8,3.801-2.5,5.801c-0.3,0.699-0.8,1.199-1.3,1.5
		c-0.2,0-0.5-0.101-0.5-0.4c0-1.4,0.3-2.6,0.8-3.9c0.8-2.199,1.9-4.399,3.2-6.399c0.5-0.9,1.3-1.4,2.3-1.601c0.2,0,0.4,0.2,0.5,0.4
		c0.4-0.1,0.5-0.2,0.8-0.2c0.4,0,0.7,0.101,0.9,0.5C12.299,54.7,12.299,54.8,12.299,54.8z M4.199,68h0.1
		c0.2,0.101,0.5,0.301,0.6,0.601c0,0.1,0,0.2,0,0.2c-0.3,0.8-0.8,1-1.5,0.5C3.299,69.2,3.299,69,3.299,69c0-0.199,0-0.199,0.1-0.3
		c0.2-0.399,0.5-0.6,0.8-0.6V68z M19.499,77.5c0.2,0,0.5,0.101,0.6,0.4c0.1,0.1,0.1,0.1,0.1,0.2c-0.2,0.5-0.7,0.7-1.2,0.2
		c0,0,0-0.101,0-0.2c0-0.101,0-0.3,0-0.3C19.099,77.6,19.299,77.6,19.499,77.5L19.499,77.5z M27.499,70.3c0,0.199,0,0.199,0.1,0.199
		c-0.1,0-0.1,0.101-0.1,0.101c0,0.1,0,0.2-0.1,0.399c-0.2,2.9-1.5,5.101-4,6.601c-0.4,0.2-0.7,0.2-1-0.101
		c-0.2,0-0.4,0.101-0.5,0.301c-0.2-0.301,0-0.4,0.4-0.601c0,0,0,0,0-0.1c0-0.101,0-0.3,0.1-0.3c2.1-1.601,3.5-3.801,3.9-6.301
		c0.1-0.199,0.2-0.3,0.3-0.5c0.1-0.1,0.1-0.1,0.1-0.1c0-0.1,0.2-0.1,0.3-0.1C27.199,69.8,27.499,70,27.499,70.3z"/>
	<path fill="#9B95C9" d="M10.299,57c0.9-0.6,1.6-1.399,2-2.199c0,0,0-0.101-0.1-0.101c-0.2-0.399-0.5-0.5-0.9-0.5
		c-0.3,0-0.4,0.101-0.8,0.2c-0.1-0.2-0.3-0.4-0.5-0.4c-1,0.2-1.8,0.7-2.3,1.601c-1.3,2-2.4,4.2-3.2,6.399
		c-0.5,1.301-0.8,2.5-0.8,3.9c0,0.3,0.3,0.4,0.5,0.4c0.5-0.301,1-0.801,1.3-1.5c0.7-2,1.5-4,2.5-5.801c0.1,0,0.2,0,0.2,0
		c0.4-0.1,0.8-0.399,1.1-0.8C9.599,57.6,9.999,57.3,10.299,57z"/>
	<path fill="#9B95C9" d="M4.299,68l-0.1,0.101c-0.3,0-0.6,0.2-0.8,0.6c-0.1,0.101-0.1,0.101-0.1,0.3c0,0,0,0.2,0.1,0.301
		c0.7,0.5,1.2,0.3,1.5-0.5c0,0,0-0.101,0-0.2C4.799,68.3,4.499,68.1,4.299,68z"/>
	<path fill="#2B87A6" d="M4.199,68.1L4.299,68h-0.1V68.1z"/>
	<path fill="#9B95C9" d="M20.099,77.9c-0.1-0.3-0.4-0.4-0.6-0.4l0,0c-0.2,0.101-0.4,0.101-0.5,0.301c0,0,0,0.199,0,0.3
		c0,0.1,0,0.2,0,0.2c0.5,0.5,1,0.3,1.2-0.2C20.199,78,20.199,78,20.099,77.9z"/>
	<path fill="#9B95C9" d="M27.599,70.5c-0.1,0-0.1,0-0.1-0.199c0-0.301-0.3-0.5-0.5-0.5c-0.1,0-0.3,0-0.3,0.1c0,0,0,0-0.1,0.1
		c-0.1,0.2-0.2,0.301-0.3,0.5c-0.4,2.5-1.8,4.7-3.9,6.301c-0.1,0-0.1,0.199-0.1,0.3c0,0.1,0,0.1,0,0.1c-0.4,0.2-0.6,0.3-0.4,0.601
		c0.1-0.2,0.3-0.301,0.5-0.301c0.3,0.301,0.6,0.301,1,0.101c2.5-1.5,3.8-3.7,4-6.601c0.1-0.199,0.1-0.3,0.1-0.399
		C27.499,70.6,27.499,70.5,27.599,70.5z"/>
	<path d="M30.699,58.8V58.5c0,0.101-0.2,0.4-0.2,0.5L30.699,58.8z"/>
	<path fill="#ED1C24" d="M43.599,33.6c-0.1,0.2-0.1,0.2-0.1,0.4c-0.1,0-0.2,0-0.2,0c-1.8,3.5-3.4,7-5.1,10.5c1.8,1.4,3.8,2.2,6,2.5
		c7.7,0.601,15.3,0,22.8-1.8c1-0.3,2-0.7,2.899-1.2c0-0.2,0-0.2,0-0.2c0-0.1,0-0.2,0-0.2c0-0.1,0-0.1,0-0.2
		c-2.2-1.8-4.6-3.6-6.899-5.2c-1.101-0.8-2.301-1.4-3.5-1.7c-1.801-0.5-3.5-0.9-5.2-0.9c-0.4,0-0.9,0-1.4,0l0,0
		C54.5,38.2,56.5,39.5,59,39.8c1.199,0.2,2.199,0.5,3.3,1c0.2,0,0.3,0.1,0.399,0.3c-0.399,0.7-0.8,0.9-1.6,0.7
		c-0.6-0.2-1.3-0.2-1.9-0.3C58,41.5,56.899,41,56,40.4c-0.801-0.4-1.4-0.9-2-1.5c-0.301-0.3-0.5-0.6-0.5-0.9
		c-0.601-0.2-1-0.7-1.301-1.2c-0.199-0.3-0.3-0.7-0.399-1c-0.101-0.2-0.2-0.3-0.3-0.4c-0.2,0-0.2-0.1-0.301-0.1v-0.1
		c0-0.1,0-0.1-0.1-0.2c-0.1-0.1-0.2-0.3-0.4-0.5c0,0,0-0.1,0-0.2c0,0,0,0,0-0.1c-0.1-0.2-0.2-0.4-0.4-0.6c-0.1-0.1-0.1-0.3-0.2-0.4
		c-1.4-1.2-2.9-2.2-4.5-2.9c-0.1,0-0.1,0-0.1-0.1h-0.1C44.699,31.3,44.099,32.5,43.599,33.6z M42.899,45.5c0,0,0,0,0.1,0.101
		c0,0,0,0,0,0.2c-0.5,0-0.9,0.1-1.4,0.1c-0.7-0.1-1.3-0.5-1.8-1c-0.1-0.1-0.1-0.4-0.1-0.4c-0.1-0.2,0-0.3,0-0.5c0,0,0.1,0,0.2,0
		c0.1-0.2,0.1-0.2,0.1-0.2s0,0,0.1,0c0.6,0.6,1.1,1,1.8,1.4c0,0.1,0,0.1,0.1,0.1C42.199,45.4,42.499,45.4,42.899,45.5z M45.699,31.8
		c0.2-0.1,0.3-0.2,0.5-0.2c1.8,0.9,3.3,2.4,4.4,4.4c0.3,0.5,0.4,1.2,0.5,1.8l0,0h-0.1c0,0,0,0-0.1,0.1c0-0.1-0.2-0.1-0.2-0.1
		c-0.1,0-0.2,0-0.2,0c0-0.2,0-0.2,0-0.2c-1.2-0.5-2.1-1.4-2.8-2.5c-0.7-0.9-1.5-1.9-2.4-2.6c-0.1-0.1-0.1-0.2,0-0.3
		C45.399,32,45.499,32,45.699,31.8z M56.199,36.2c0,0,0.101,0,0.2,0l0,0c1.2-0.2,2.2,0.1,3.101,0.8c0,0.1,0,0.1,0,0.2
		c0.1,0,0.199,0.1,0.3,0.2c0.1,0.1,0.2,0.1,0.3,0.2c-1.6,0-3.1-0.1-4.5-0.3c-0.1-0.1-0.1-0.1-0.1-0.2c-0.101-0.1-0.101-0.2,0-0.3
		c0,0,0,0,0.1-0.1C55.699,36.5,56,36.3,56.199,36.2z M52.5,38.8c0.199,0.1,0.5,0.2,0.699,0.5c0,0.1,0,0.2,0,0.2
		c0,1.1-0.399,1.3-1.399,0.7c-0.101-0.2-0.101-0.5-0.101-0.7c0.101-0.2,0.2-0.4,0.301-0.5C52.099,39,52.299,38.9,52.5,38.8
		L52.5,38.8z M56.699,46.3c-0.699,0-1-0.301-1.1-0.5c3.3-0.5,6.6-1,9.9-1.5c0.199,0,0.5,0,0.699,0c0,0,0,0.1,0.101,0.2
		c-2.3,1-4.8,1.7-7.601,1.8C58,46.3,57.299,46.3,56.699,46.3z M68.099,43.3c0.1,0.2,0.1,0.3,0.1,0.4c0,0.1,0,0.1,0,0.1
		C68,43.8,68,44,67.899,44c-0.2,0-0.2,0-0.2,0c-0.1,0-0.199,0-0.3-0.2c-0.1,0-0.1,0-0.1,0c-0.101-0.2,0-0.3,0.2-0.4
		c0-0.1,0.1-0.1,0.199-0.1c0,0,0.2,0,0.301,0C68,43.3,68,43.3,68.099,43.3z"/>
	<path fill="#F58220" d="M42.999,45.6c-0.1-0.101-0.1-0.101-0.1-0.101c-0.4-0.1-0.7-0.1-0.9-0.2c-0.1,0-0.1,0-0.1-0.1
		c-0.7-0.4-1.2-0.8-1.8-1.4c-0.1,0-0.1,0-0.1,0s0,0-0.1,0.2c-0.1,0-0.2,0-0.2,0c0,0.2-0.1,0.3,0,0.5c0,0,0,0.3,0.1,0.4
		c0.5,0.5,1.1,0.9,1.8,1c0.5,0,0.9-0.1,1.4-0.1C42.999,45.6,42.999,45.6,42.999,45.6z"/>
	<path fill="#F58220" d="M46.199,31.6c-0.2,0-0.3,0.1-0.5,0.2c-0.2,0.2-0.3,0.2-0.4,0.4c-0.1,0.1-0.1,0.2,0,0.3
		c0.9,0.7,1.7,1.7,2.4,2.6c0.7,1.1,1.6,2,2.8,2.5c0,0,0,0,0,0.2c0,0,0.1,0,0.2,0c0,0,0.2,0,0.2,0.1c0.1-0.1,0.1-0.1,0.1-0.1h0.1l0,0
		c-0.1-0.6-0.2-1.3-0.5-1.8C49.499,34,47.999,32.5,46.199,31.6z"/>
	<path fill="#F58220" d="M56.399,36.2c-0.1,0-0.2,0-0.2,0c-0.199,0.1-0.5,0.3-0.6,0.5c-0.1,0.1-0.1,0.1-0.1,0.1
		c-0.101,0.1-0.101,0.2,0,0.3c0,0.1,0,0.1,0.1,0.2c1.4,0.2,2.9,0.3,4.5,0.3c-0.1-0.1-0.2-0.1-0.3-0.2c-0.101-0.1-0.2-0.2-0.3-0.2
		c0-0.1,0-0.1,0-0.2C58.599,36.3,57.599,36,56.399,36.2L56.399,36.2z"/>
	<path fill="#F58220" d="M53.199,39.3C53,39,52.699,38.9,52.5,38.8l0,0c-0.2,0.1-0.4,0.2-0.5,0.2c-0.101,0.1-0.2,0.3-0.301,0.5
		c0,0.2,0,0.5,0.101,0.7c1,0.6,1.399,0.4,1.399-0.7C53.199,39.5,53.199,39.4,53.199,39.3z"/>
	<path fill="#F58220" d="M55.599,45.8c0.1,0.199,0.4,0.5,1.1,0.5c0.601,0,1.301,0,2,0C61.5,46.2,64,45.5,66.299,44.5
		c-0.101-0.1-0.101-0.2-0.101-0.2c-0.199,0-0.5,0-0.699,0C62.199,44.8,58.899,45.3,55.599,45.8z"/>
	<path fill="#F58220" d="M68.199,43.7c0-0.1,0-0.2-0.1-0.4c-0.1,0-0.1,0-0.1,0c-0.101,0-0.301,0-0.301,0c-0.1,0-0.199,0-0.199,0.1
		c-0.2,0.1-0.301,0.2-0.2,0.4c0,0,0,0,0.1,0c0.101,0.2,0.2,0.2,0.3,0.2c0,0,0,0,0.2,0c0.101,0,0.101-0.2,0.3-0.2
		C68.199,43.8,68.199,43.8,68.199,43.7z"/>
	<path fill="#FFF200" d="M32.299,25c-0.4,0-0.7-0.2-1-0.3c-1.1,0.8-1.8,1.9-2.1,3.3c0,0.2,0,0.3,0,0.4c-0.2,0.4-0.2,1-0.2,1.6
		c-0.1,0.7,0,1.5,0.2,2.3c0.3,0.7,0.6,1.3,1,1.7l0,0c1.1-0.7,2-1.8,2.7-3.1c0-0.1,0-0.1,0-0.2c0-0.1,0-0.1,0-0.2c0,0,0-0.2,0.1-0.2
		c0,0,0.1,0,0.2-0.1c0-0.7,0-1.3,0-1.9c0-0.3,0-0.5,0-0.8c0,0,0,0,0-0.1s-0.1-0.1-0.2-0.2c0-0.6-0.2-1.2-0.5-1.6
		C32.399,25.5,32.299,25.2,32.299,25z M30.999,26c0-0.1,0.2-0.2,0.3-0.2c0.4,0.1,0.7,0.4,0.7,0.8c0,0.1,0,0.1,0,0.2
		c-0.4,1-1.1,1.8-2.1,2.5c0-0.1-0.2-0.1-0.2-0.1c-0.1-0.1-0.1-0.1-0.2-0.2C29.399,27.8,29.899,26.8,30.999,26z"/>
	<path fill="#FFF9AE" d="M31.299,25.8c-0.1,0-0.3,0.1-0.3,0.2c-1.1,0.8-1.6,1.8-1.5,3c0.1,0.1,0.1,0.1,0.2,0.2c0,0,0.2,0,0.2,0.1
		c1-0.7,1.7-1.5,2.1-2.5c0-0.1,0-0.1,0-0.2C31.999,26.2,31.699,25.9,31.299,25.8z"/>
	<path fill="#FFCB05" d="M31.599,23.7c0.1-0.1,0.4-0.2,0.6-0.2v-0.1c-0.1-0.1-0.1-0.1-0.1-0.1c-0.1-0.1-0.1-0.1-0.1-0.2
		c-0.2-0.2-0.4-0.4-0.7-0.6c-0.4,0-1-0.1-1.4-0.2c0,0.2-0.1,0.6-0.2,0.9c0,0.1,0,0.1,0,0.1c-0.3,0.3-0.6,0.7-0.8,1
		c-0.4,0.2-0.6,0.3-0.9,0.3c-0.1,0.2-0.2,0.4-0.3,0.6c-0.2,0.3-0.4,0.8-0.6,1.2c-0.1,0.3-0.2,0.6-0.4,1c0,0.1,0,0.1,0,0.2
		c0,0,0,0,0,0.1c0.4-0.8,0.8-1.5,1.3-2.3c0.3-0.5,0.7-0.8,1.2-0.9c0,0,0,0.1,0,0.3c0,0,0,0,0.1,0.1c-1.3,2.1-2.6,4.1-3.6,6.4
		c-0.2,0.3-0.3,0.5-0.5,0.9c0,0-0.2,0-0.2,0.1c-0.1,0.2-0.3,0.4-0.5,0.5c0-0.2,0-0.5,0.2-0.8c0,0,0,0,0-0.2c0.5-1.3,1.2-2.6,1.8-3.8
		c-0.1,0-0.2,0.1-0.3,0.2c-0.6,1.3-1.2,2.6-1.7,4c-1,2.1-1.9,4.2-2.8,6.3c-1.4,3-2.7,6-3.8,9.1c0.8,0,1.6,0,2.5,0.2V47.7
		c1.1-4.4,2.7-8.5,4.8-12.5c1.3-2.7,2.4-5.6,3.3-8.4c0.2-0.1,0.2-0.2,0.2-0.2C29.299,25.4,30.199,24.5,31.599,23.7z"/>
	<path fill="#FFF200" d="M29.299,24.9c-0.1-0.1-0.1-0.1-0.1-0.1c0-0.2,0-0.3,0-0.3c-0.5,0.1-0.9,0.4-1.2,0.9
		c-0.5,0.8-0.9,1.5-1.3,2.3c0,0.1-0.1,0.1-0.2,0.3c-0.6,1.2-1.3,2.5-1.8,3.8c0,0.2,0,0.2,0,0.2c-0.2,0.3-0.2,0.6-0.2,0.8
		c0.2-0.1,0.4-0.3,0.5-0.5c0-0.1,0.2-0.1,0.2-0.1c0.2-0.4,0.3-0.6,0.5-0.9C26.699,29,27.999,27,29.299,24.9z"/>
	<path fill="#0066B3" d="M33.499,41.5c-0.1-0.1-0.1-0.1-0.1-0.2c-3.1-0.8-6.1-1.5-9-2c-0.4,1-0.8,2.1-1.2,3.2
		c-0.5,1.1-1,2.3-1.5,3.4h0.1c3.4-0.1,6.4,0.9,8.8,3.4l0.1,0.1c1-2.4,2.1-4.6,3.2-7c-0.1-0.1-0.2-0.2-0.2-0.2
		c-0.1-0.2-0.1-0.2-0.2-0.2c0-0.1,0-0.2,0-0.2v-0.2C33.499,41.5,33.499,41.5,33.499,41.5z M31.999,42.5L31.999,42.5
		c0,0.1-0.1,0.3-0.2,0.3c-0.1,0.1-0.1,0.1-0.1,0.2c-1.8,0-3.5-0.4-5.3-0.8c-0.6-0.2-1.2-0.4-1.7-0.6c-0.2-0.1-0.3-0.1-0.4-0.2
		c0-0.1,0-0.2,0-0.3c0-0.1,0-0.2,0-0.3c0.6-0.5,1.2-0.6,1.9-0.5C28.299,40.6,30.199,41.3,31.999,42.5z"/>
	<path fill="#0085B8" d="M31.999,42.5L31.999,42.5c-1.8-1.2-3.7-1.9-5.8-2.2c-0.7-0.1-1.3,0-1.9,0.5c0,0.1,0,0.2,0,0.3
		c0,0.1,0,0.2,0,0.3c0.1,0.1,0.2,0.1,0.4,0.2c0.5,0.2,1.1,0.4,1.7,0.6c1.8,0.4,3.5,0.8,5.3,0.8c0-0.1,0-0.1,0.1-0.2
		C31.899,42.8,31.999,42.6,31.999,42.5z"/>
	<path fill="#0085B8" d="M29.699,50.2c-0.2-0.2-0.5-0.399-0.5-0.7c-2.2-1.699-4.7-2.5-7.3-2.699c-0.2,0-0.4-0.101-0.5-0.2
		c-0.2,0.399-0.3,0.8-0.5,1.2c2.5,0.399,4.9,1.199,7.1,2.5c0.7,0.5,1.3,0.899,1.9,1.399c0.1-0.399,0.2-0.7,0.3-1.1
		c-0.1,0-0.2-0.101-0.3-0.3C29.799,50.3,29.699,50.2,29.699,50.2z"/>
	<path fill="#0095DA" d="M38.199,47.8h-0.2c-0.1,0-0.1,0-0.1-0.101c0-0.1,0-0.1,0-0.1c-0.4-0.101-0.5-0.3-0.7-0.5L36.999,47
		c-0.8,2-1.7,4-2.6,5.9c0.1,0,0.1,0,0.1,0c0.1,0.1,0.2,0.1,0.2,0.3c0,0-0.1,0.101-0.1,0.3c-0.1,0-0.1,0.101-0.1,0.101
		c1.2,1.899,2,3.899,2.8,6c1,2.899,2.6,5.399,4.6,7.399c0.6,0.301,1.1,0.601,1.4,1c4.4-0.399,8.899-0.5,13.399-0.199c2,0,4,0,6-0.2
		c5.2-0.3,10.301-0.8,15.5-1.3c0-0.101,0-0.2,0-0.301c1.5-1.699,3-3.399,4.601-5.199V60.5c-0.8,0-1.601,0-2.5,0
		c-0.101,0.101-0.101,0.2-0.101,0.301c-0.1,0-0.199,0-0.199,0c-0.101,0-0.301,0-0.301,0c0-0.101,0-0.2,0-0.301
		c-0.199,0-0.3,0-0.5,0.101c-6.899,0.7-13.8,0.899-20.699,0.6c-1.801-0.1-3.5,0-5.301,0c-0.199,0-0.3,0-0.5,0
		c-2.6,0.8-5.2,0.4-7.7-0.899c-0.5-0.301-1-0.7-1.4-1.2c-0.3-0.4-0.6-0.8-0.9-1.3c0-0.2,0-0.4-0.1-0.601s-0.1-0.3-0.1-0.399
		c0,0-0.2-0.2-0.3-0.301l0,0c-0.1,0-0.2,0-0.3,0c0-0.199,0-0.3,0-0.399c-0.1-0.101-0.1-0.101,0-0.101c-0.4-0.199-0.5-0.3-0.7-0.6
		c0-0.1,0-0.1,0-0.1c0-0.101,0-0.2,0-0.301c0,0,0,0,0-0.1c-0.1-0.1-0.1-0.1-0.2-0.2c0-0.1,0-0.1,0-0.2c0,0,0-0.1,0-0.199
		C40.199,52.1,39.199,49.9,38.199,47.8z M37.699,49.8c0,0-0.1,0-0.1-0.2c0-0.101,0-0.101,0-0.101c0.1-0.199,0.1-0.199,0.2-0.3
		c0.1,0,0.2,0,0.2-0.1V49c0.1,0.101,0.2,0.2,0.2,0.2c0.1,0,0.2,0.101,0.3,0.101c0,0.1,0,0.1,0.1,0.199c0,0,0,0.101,0.1,0.301
		c0,0,0.2,0.199,0.3,0.3c0,0.1,0,0.1,0,0.1c1,3.3,2.3,6.601,3.9,9.8c0,0,0,0.2,0.1,0.301c1.4,1.199,3.2,1.899,5.1,2
		c6.2,0.3,12.4,0.5,18.6,0.3c2.601-0.101,5.301-0.3,7.9-0.5c1.6-0.2,3.1-0.3,4.7-0.101c0.1,0,0.2,0.101,0.3,0.2
		c0.1,0.101,0.1,0.101,0.1,0.3c0,0,0,0,0,0.101c-0.1,0-0.1,0.2-0.199,0.3c-9.5,1.2-19.2,1.4-28.8,0.8c-2.3-0.1-4.5-0.6-6.5-1.399
		c-0.7-0.301-1.3-0.7-2-1c-0.3-0.5-0.7-1.101-1-1.601c0-0.1,0-0.1-0.1-0.2c-0.1-0.399-0.2-0.8-0.3-1.199
		c-0.1-0.101-0.3-0.301-0.3-0.4s0-0.1,0-0.1c0-0.2,0-0.2,0-0.2c0-0.101,0-0.101,0-0.101c-0.1,0-0.2-0.1-0.2-0.199
		c0-0.101,0-0.301,0-0.5c0,0,0-0.2,0-0.301c-0.1,0-0.1,0-0.1-0.1s0-0.1-0.1-0.1c0-0.101,0-0.101,0-0.2c0-0.101,0-0.101,0-0.101
		c-0.1-0.3-0.4-0.5-0.4-0.699c0-0.101-0.2-0.301-0.2-0.301c-0.3-1.199-0.6-2.5-1.1-3.6c-0.1-0.1-0.2-0.4-0.2-0.4
		C38.199,50.5,37.999,50.2,37.699,49.8z"/>
	<path fill="#8ED8F8" d="M37.599,49.6c0,0.2,0.1,0.2,0.1,0.2c0.3,0.399,0.5,0.699,0.5,1.199c0,0,0.1,0.301,0.2,0.4
		c0.5,1.1,0.8,2.4,1.1,3.6c0,0,0.2,0.2,0.2,0.301c0,0.199,0.3,0.399,0.4,0.699c0,0,0,0,0,0.101c0,0.1,0,0.1,0,0.2
		c0.1,0,0.1,0,0.1,0.1s0,0.1,0.1,0.1c0,0.101,0,0.301,0,0.301c0,0.199,0,0.399,0,0.5c0,0.1,0.1,0.199,0.2,0.199c0,0,0,0,0,0.101
		c0,0,0,0,0,0.2c0,0,0,0,0,0.1s0.2,0.3,0.3,0.4c0.1,0.399,0.2,0.8,0.3,1.199c0.1,0.101,0.1,0.101,0.1,0.2c0.3,0.5,0.7,1.101,1,1.601
		c0.7,0.3,1.3,0.699,2,1c2,0.8,4.2,1.3,6.5,1.399c9.6,0.601,19.3,0.4,28.8-0.8c0.1-0.1,0.1-0.3,0.199-0.3c0-0.101,0-0.101,0-0.101
		c0-0.199,0-0.199-0.1-0.3c-0.1-0.1-0.2-0.2-0.3-0.2c-1.601-0.199-3.101-0.1-4.7,0.101c-2.6,0.2-5.3,0.399-7.9,0.5
		c-6.199,0.2-12.399,0-18.6-0.3c-1.9-0.101-3.7-0.801-5.1-2c-0.1-0.101-0.1-0.301-0.1-0.301c-1.6-3.199-2.9-6.5-3.9-9.8
		c0,0,0,0,0-0.1c-0.1-0.101-0.3-0.3-0.3-0.3c-0.1-0.2-0.1-0.301-0.1-0.301c-0.1-0.1-0.1-0.1-0.1-0.199c-0.1,0-0.2-0.101-0.3-0.101
		c0,0-0.1-0.1-0.2-0.2V49.1c0,0.1-0.1,0.1-0.2,0.1c-0.1,0.101-0.1,0.101-0.2,0.3C37.599,49.5,37.599,49.5,37.599,49.6z"/>
	<path fill="#ED1C24" d="M82.899,60.5h-0.1V60.8L82.899,60.5z"/>
	<path fill="#2B87A6" d="M38.999,47.3c0,0.1,0,0.199,0,0.199c0.9,1.4,1.7,2.9,2.2,4.5c0.2,0.301,0.3,0.5,0.4,0.801
		c0.1,0,0.3-0.2,0.4-0.301c0-0.199-0.1-0.399-0.3-0.5c0,0,0-0.199-0.1-0.199c-0.5-1.601-0.3-3,0.7-4c-0.3-0.2-0.8-0.301-1.2-0.4
		c-0.9-0.3-1.8-0.7-2.5-1.2c0.1,0.101,0.3,0.4,0.4,0.8l0,0c0,0.101,0,0.101,0,0.2C38.999,47.3,38.999,47.3,38.999,47.3z"/>
	<path fill="#2B87A6" d="M42.199,49.9c0,0.1,0,0.1,0,0.3c0.1,0.101,0.3,0.4,0.5,0.7c0,0.1,0,0.1,0,0.3c0,0.101,0,0.101-0.1,0.101
		s-0.1,0.1-0.3,0.199c0.3,0.101,0.6,0.301,0.7,0.7c0.1,0,0.1,0.101,0.2,0.101c0,0.199,0,0.199-0.1,0.399c0,0.101,0,0.2-0.1,0.3
		c-0.3,0.101-0.5,0.2-0.7,0.4c-0.1,0.1-0.1,0.1-0.1,0.1c0,0.301,0,0.5,0,0.7c0,0.101,0,0.4,0.1,0.601l0.2,0.199
		c0.1,0,0.2,0.101,0.4,0.2c0,0.101,0.1,0.3,0.1,0.5c0,0.101,0,0.101,0,0.101c0.1,0.399,0.3,0.699,0.5,1c0,0,0,0,0,0.1
		c1.2,2.2,2.8,3.3,5.2,3.4l0.2-0.301c0-0.199,0-0.199,0.1-0.399l0.2-0.101c0-0.1,0-0.1,0-0.199c0.1,0,0.1-0.101,0.2-0.2
		c0.4-0.3,0.8-0.601,1.1-1.101c0-0.1,0-0.199,0-0.399c0-0.101,0-0.101,0-0.2s0-0.1,0-0.1c-0.2-0.101-0.2-0.101-0.3-0.2
		c0-0.3-0.1-0.601-0.3-0.8c0-0.101,0-0.2-0.1-0.301c0.1,0,0.1,0,0.2-0.199l0,0c0-0.101,0-0.2,0-0.301c0-0.1,0-0.199,0-0.199
		c0.1-0.2,0.2-0.301,0.2-0.4s0-0.1,0.1-0.1c0.2-0.2,0.4-0.5,0.7-0.601c0-0.6,0-1,0.2-1.399c0-0.101,0-0.301,0-0.301
		c-0.5,0-0.899-0.3-1-0.8c0.4-0.5,0.9-1.1,1.5-1.399c0-0.301,0-0.5,0-0.801c0,0,0-0.1,0-0.199c-0.199-0.2-0.399-0.5-0.5-0.601
		c-2.8,0.101-5.6-0.2-8.3-0.899C42.299,48.4,42.099,49.1,42.199,49.9z M43.999,48.5c0-0.1,0-0.1,0.2-0.1c0.6-0.1,1.1,0,1.7,0.4
		c0.1,0.1,0.3,0.199,0.6,0.199c0,0.101,0,0.2,0,0.2V49.3c0,0.1-0.2,0.1-0.2,0.199c-0.3,0-0.5,0-0.8,0.101
		c-0.7-0.101-1.5-0.3-2.3-0.2c0-0.1,0-0.1,0-0.2c-0.2-0.1-0.2-0.2-0.2-0.399c0,0,0-0.101,0-0.2c0-0.101,0.1-0.101,0.2-0.101
		C43.399,48.5,43.699,48.5,43.999,48.5z M43.599,51.6c0.1,0,0.1,0,0.1,0c0.3,0,0.5,0,0.6-0.101c0.8-0.1,1.5,0.101,2,0.601
		c0,0,0,0.1,0.2,0.1c-0.2,0.101-0.2,0.101-0.2,0.101c-0.1,0.199-0.4,0.199-0.6,0.199c0,0-0.1,0-0.2,0.101c-0.6-0.101-1.3-0.3-2-0.4
		c0-0.1-0.1-0.1-0.1-0.2l0,0c0-0.199,0-0.199,0.1-0.199C43.499,51.7,43.499,51.7,43.599,51.6z M43.599,50.8
		c-0.1-0.101-0.2-0.2-0.3-0.301c0.1-0.1,0.2-0.199,0.2-0.199c0-0.101,0.1-0.101,0.2-0.101c0,0,0,0,0.1,0c1.9,0.101,3.9,0.3,5.8,0.4
		c0.1,0,0.1,0.1,0.1,0.2c0.1,0.199,0,0.399,0,0.5c-0.2,0.199-0.3,0.199-0.5,0.199C47.199,51.6,45.399,51.4,43.599,50.8z
		 M44.899,55.5c0.1-0.3,0.2-0.5,0.3-0.5s0.1,0,0.2,0c0.9,0.301,1.9,0.601,3.1,0.601l0,0c0.2,0,0.2,0,0.4,0c0,0-0.1,0.2-0.2,0.399
		c0,0,0,0.2-0.2,0.2c-1.1,0.3-2.2,0.3-3.3-0.2C44.999,55.8,44.999,55.6,44.899,55.5z M43.699,56.8c0-0.2,0-0.301,0-0.5
		c0-0.101,0-0.2,0.1-0.301c0.1,0,0.2,0,0.4-0.199c0.5,0.199,1,0.399,1.3,0.8c0.1,0,0.1,0.1,0.1,0.2c-0.1,0.1-0.2,0.199-0.4,0.399
		c-0.2,0-0.2,0-0.3,0C44.499,57.2,43.999,57,43.699,56.8z"/>
	<path fill="#009BCA" d="M44.199,48.4c-0.2,0-0.2,0-0.2,0.1c-0.3,0-0.6,0-0.8,0c-0.1,0-0.2,0-0.2,0.101c0,0.1,0,0.2,0,0.2
		c0,0.199,0,0.3,0.2,0.399c0,0.101,0,0.101,0,0.2c0.8-0.1,1.6,0.1,2.3,0.2c0.3-0.101,0.5-0.101,0.8-0.101c0-0.1,0.2-0.1,0.2-0.199
		V49.2c0,0,0-0.1,0-0.2c-0.3,0-0.5-0.1-0.6-0.199C45.299,48.4,44.799,48.3,44.199,48.4z"/>
	<path fill="#009BCA" d="M43.699,51.6c0,0,0,0-0.1,0c-0.1,0.1-0.1,0.1-0.1,0.2c-0.1,0-0.1,0-0.1,0.199l0,0
		c0,0.101,0.1,0.101,0.1,0.2c0.7,0.101,1.4,0.3,2,0.4c0.1-0.101,0.2-0.101,0.2-0.101c0.2,0,0.5,0,0.6-0.199c0,0,0,0,0.2-0.101
		c-0.2,0-0.2-0.1-0.2-0.1c-0.5-0.5-1.2-0.7-2-0.601C44.199,51.6,43.999,51.6,43.699,51.6z"/>
	<path d="M43.299,50.5c0.1,0.101,0.2,0.2,0.3,0.301c1.8,0.6,3.6,0.8,5.6,0.699c0.2,0,0.3,0,0.5-0.199c0-0.101,0.1-0.301,0-0.5
		c0-0.101,0-0.2-0.1-0.2c-1.9-0.101-3.9-0.3-5.8-0.4c-0.1,0-0.1,0-0.1,0c-0.1,0-0.2,0-0.2,0.101
		C43.499,50.3,43.399,50.4,43.299,50.5z"/>
	<path d="M45.199,55c-0.1,0-0.2,0.2-0.3,0.5c0.1,0.101,0.1,0.301,0.3,0.5c1.1,0.5,2.2,0.5,3.3,0.2c0.2,0,0.2-0.2,0.2-0.2
		c0.1-0.199,0.2-0.399,0.2-0.399c-0.2,0-0.2,0-0.4,0l0,0c-1.2,0-2.2-0.3-3.1-0.601C45.299,55,45.299,55,45.199,55z"/>
	<path fill="#009BCA" d="M43.699,56.3c0,0.199,0,0.3,0,0.5c0.3,0.199,0.8,0.399,1.2,0.399c0.1,0,0.1,0,0.3,0
		c0.2-0.2,0.3-0.3,0.4-0.399c0-0.101,0-0.2-0.1-0.2c-0.3-0.4-0.8-0.601-1.3-0.8C43.999,56,43.899,56,43.799,56
		C43.699,56.1,43.699,56.2,43.699,56.3z"/>
	<path fill="#FAA61A" d="M11.599,51.8c0.4,0,0.9-0.101,1.3-0.2c3.4-0.3,6.4,0.399,9.3,1.899c2.5-0.699,4.7-0.3,6.5,0.801l0.3-0.5
		V53.5c0.1-0.1,0.2-0.3,0.2-0.399c-0.2-0.3-0.5-0.601-0.7-0.7c-0.5-0.3-0.8-0.6-1.2-0.8c-0.3-0.3-0.6-0.601-0.8-0.8
		c-3-1.301-6.1-1.801-9.3-1.801c-1.6,0.2-3,0.601-4.4,1.4c-0.1,0-0.1,0.1-0.1,0.1c-0.2,0-0.2,0-0.3,0c-0.1,0-0.2,0-0.2,0
		c-0.3,0-0.5-0.199-0.8-0.199c-0.1,0-0.1,0.199-0.1,0.199c-0.1,0.101-0.1,0.101-0.1,0.2c-0.2,0.2-0.2,0.3-0.2,0.601
		c-0.1,0-0.1,0.1-0.1,0.3C10.999,51.6,11.299,51.8,11.599,51.8z M19.499,49.6c0.1,0,0.1,0,0.2,0c0.3,0,0.3,0.2,0.4,0.5
		c-0.1,0.1-0.1,0.1-0.1,0.1c0,0.101,0,0.101-0.1,0.101c-2,0-4,0.199-5.9,0.5c-0.1,0-0.1-0.101-0.2-0.2c0,0,0,0,0.1-0.101
		c0,0,0,0,0-0.1s0-0.1,0-0.1c0.3-0.5,0.8-0.7,1.4-0.801c0.6,0,1.1-0.1,1.6-0.199c0.8,0,1.6,0,2.4,0.199
		C19.399,49.5,19.499,49.5,19.499,49.6z M21.499,49.6L21.499,49.6c0,0,0.1,0,0.2,0c0.2,0.2,0.2,0.399,0.3,0.6
		c0,0.101,0,0.101,0,0.101c-0.1,0.1-0.3,0.199-0.4,0.3c-0.1-0.101-0.3-0.2-0.4-0.3c0-0.101,0-0.301,0.2-0.5
		C21.399,49.8,21.399,49.6,21.499,49.6z"/>
	<path fill="#FFCB05" d="M19.699,49.6c-0.1,0-0.1,0-0.2,0c0-0.101-0.1-0.101-0.2-0.101c-0.8-0.199-1.6-0.199-2.4-0.199
		c-0.5,0.1-1,0.199-1.6,0.199c-0.6,0.101-1.1,0.301-1.4,0.801c0,0,0,0,0,0.1s0,0.1,0,0.1c-0.1,0.101-0.1,0.101-0.1,0.101
		c0.1,0.1,0.1,0.2,0.2,0.2c1.9-0.301,3.9-0.5,5.9-0.5c0.1,0,0.1,0,0.1-0.101c0,0,0,0,0.1-0.1C19.999,49.8,19.999,49.6,19.699,49.6z"
		/>
	<path fill="#FFCB05" d="M21.499,49.6L21.499,49.6c-0.1,0-0.1,0.2-0.1,0.2c-0.2,0.199-0.2,0.399-0.2,0.5c0.1,0.1,0.3,0.199,0.4,0.3
		c0.1-0.101,0.3-0.2,0.4-0.3c0,0,0,0,0-0.101c-0.1-0.2-0.1-0.399-0.3-0.6C21.599,49.6,21.499,49.6,21.499,49.6z"/>
	<path fill="#0095DA" d="M20.399,60.4c-0.4,0.1-0.8,0.1-1.2,0.1c-0.1,0-0.1,0.101-0.1,0.2c-0.1,0-0.1,0-0.1,0.101
		c-0.1,0-0.3,0-0.3,0c0,0.1-0.1,0.1,0,0.199c-0.2,0.101-0.2,0.2-0.3,0.301c-0.2,0.199-0.4,0.5-0.5,0.5c-0.7,0.8-1.2,1.699-1.7,2.5
		c-0.2,0.5-0.5,0.8-0.7,1.199c-0.1,0-0.1,0,0,0c-0.1,0.101-0.1,0.101-0.1,0.301c-0.1,0-0.2,0.199-0.2,0.3c0,0.1,0,0.2,0,0.2
		s0,0,0,0.1c-0.1,0.1-0.1,0.2-0.1,0.2c-0.1,0.1-0.1,0.1-0.1,0.2c-0.1,1-0.3,2-0.3,3c0,0.699,0,1.199,0.3,1.899
		c0,0.101,0,0.101,0,0.3c0,0,0.1,0,0.2,0c-0.1,0.101-0.1,0.2,0,0.301c0,0,0,0.1,0,0.199c0.1,0,0.2,0.301,0.3,0.4
		c0.2,0.4,0.2,0.7,0.3,1.1c0.1,0.101,0.2,0.2,0.2,0.2c0.2,0.101,0.3,0.3,0.4,0.3c0.1,0.101,0.3,0.301,0.6,0.5
		c1.7,0.101,3.3-0.199,4.9-1.199c1.3-1.4,2.3-3,3-4.801c-0.9,0.801-1.7,1.301-2.6,1.9c-0.4,0.3-0.8,0.5-1.3,0.7s-0.8,0.2-1.2,0.1
		c-0.1-0.1-0.3-0.1-0.5-0.1c-0.2-0.3-0.3-0.601-0.3-0.8c-0.1-0.2-0.3-0.301-0.4-0.5c-0.1-0.7,0-1.301,0.1-1.9c0-0.3,0-0.6,0.2-0.9
		c0.6-1.699,1.6-2.699,3.1-3c0.1-0.1,0.1-0.1,0.2-0.1c0.2,0.1,0.5,0.1,0.7,0.4c0.8-0.4,1.4-1,2-1.801c-0.5-0.8-1.2-1.699-2.2-2.5
		c-0.7-0.199-1.3-0.3-2-0.199C20.499,60.3,20.499,60.3,20.399,60.4z"/>
	<path fill="#0066B3" d="M21.499,67.5c-0.1-0.199-0.1-0.399,0-0.5c0-0.399,0.2-0.699,0.4-0.899C21.599,66,21.399,66,21.199,66
		c-0.8,1-1.2,2.2-1.3,3.5c-0.1,0-0.1,0.101-0.1,0.101c0.1,0.3,0.2,0.6,0.3,0.7c0.1,0.199,0.1,0.199,0.2,0.199
		c0.2,0,0.4-0.199,0.7-0.199c0.2-0.101,0.4-0.301,0.5-0.4s0.2-0.1,0.3-0.3c-0.1,0-0.1,0-0.2-0.101
		C21.499,68.9,21.399,68.2,21.499,67.5z"/>
	<path fill="#0085B8" d="M33.999,54.8l-0.3-0.101c-0.5,1.3-1,2.5-1.6,3.601c-0.1,0.5-0.4,1-0.6,1.3c0.5,1.2,1.2,2.2,2,3
		c0.2,0.399,0.4,0.6,0.7,0.899l0,0c0.2,0,0.3,0.101,0.5,0.2c0.2,0.101,0.3,0.3,0.4,0.5c0,0,0,0,0,0.101
		c0.6,0.399,1.1,0.699,1.8,0.899c0.8,0.3,1.6,0.601,2.4,0.8c-0.2-0.399-0.4-0.699-0.6-1c-0.4-0.5-0.6-1-0.9-1.5
		c-0.6-1.199-1.3-2.5-1.8-3.699C35.699,58,34.999,56.3,33.999,54.8z"/>
	<path fill="#0085B8" d="M54.5,10.5c-0.2,0-0.301,0-0.301,0c-0.199,0-0.399,0-0.6,0c-1.1-0.2-2.1,0-3.1,0.3c-0.2,0-0.3,0-0.3-0.1
		c-0.1-0.1-0.1-0.1-0.2-0.1c0-0.1,0-0.1,0-0.2c-0.1-0.1-0.1-0.1-0.1-0.1v-0.1c0.2-0.4,0.4-0.6,0.8-0.7c-0.2-0.1-0.2,0-0.2,0
		c-0.3,0-0.3-0.1-0.5-0.1c-0.1,0-0.3,0.1-0.5,0.1c0,0-0.2,0.1-0.3,0.1c0,0.1,0,0.2,0,0.2c0,0.1,0,0.2,0,0.2v0.2c0,0.1,0,0.2,0,0.3
		s0,0.1,0,0.2c0,0.1,0,0.1,0.1,0.2c0,0.1,0.1,0.1,0.2,0.1c0,0.1,0.1,0.2,0.2,0.3c0,0,0,0.2,0.2,0.3c2.101,1.6,4.601,2.1,7.4,1.6
		c0.1-0.1,0.2-0.2,0.2-0.2c0.1-0.1,0.199-0.2,0.199-0.2c0.101,0,0.2-0.1,0.2-0.2c0.101-0.1,0.101-0.1,0.2-0.1c0-0.1,0-0.2,0-0.2
		c0-0.1,0-0.1,0-0.1c0-0.1,0-0.2,0-0.2c0-0.2,0-0.3,0-0.4c0-0.1,0-0.1,0-0.2c-0.3-0.4-0.6-0.8-0.9-1.1C56.299,9.5,55.199,9,54,9
		c-0.5,0.1-1,0.2-1.5,0.3c0.699,0.2,1.399,0.6,1.8,1.1C54.5,10.4,54.5,10.5,54.5,10.5z M55.199,9.5c0.101,0,0.101,0,0.2-0.1
		c0.101,0.1,0.3,0.2,0.3,0.2c0.101,0.1,0.101,0.1,0.2,0.2V10c-0.1,0.2-0.1,0.3-0.1,0.3c-0.101,0.1-0.101,0.1-0.101,0.2
		c0,0-0.199,0-0.3,0.1c-0.2-0.1-0.3-0.2-0.399-0.3c-0.101-0.1-0.101-0.3,0-0.4c0-0.1,0-0.3,0-0.3C55,9.5,55.099,9.5,55.199,9.5z"/>
	<path fill="#95B6DF" d="M55.399,9.4c-0.1,0.1-0.1,0.1-0.2,0.1c-0.1,0-0.199,0-0.199,0.1c0,0,0,0.2,0,0.3
		c-0.101,0.1-0.101,0.3,0,0.4c0.1,0.1,0.199,0.2,0.399,0.3c0.101-0.1,0.3-0.1,0.3-0.1c0-0.1,0-0.1,0.101-0.2c0,0,0-0.1,0.1-0.3V9.8
		c-0.1-0.1-0.1-0.1-0.2-0.2C55.699,9.6,55.5,9.5,55.399,9.4z"/>
	<path fill="#95B6DF" d="M54.199,10.5c0,0,0.101,0,0.301,0c0,0,0-0.1-0.2-0.1c-0.4-0.5-1.101-0.9-1.8-1.1
		c-0.2-0.1-0.301-0.1-0.5-0.2c-0.101,0.1-0.301,0.1-0.301,0.1c-0.5,0-0.7,0.1-1,0.3c-0.4,0.1-0.6,0.3-0.8,0.7v0.1c0,0,0,0,0.1,0.1
		c0,0.1,0,0.1,0,0.2c0.1,0,0.1,0,0.2,0.1c0,0.1,0.1,0.1,0.3,0.1c1-0.3,2-0.5,3.1-0.3C53.799,10.5,54,10.5,54.199,10.5z"/>
	<path fill="#0085B8" d="M56.699,14.3c0,0.1,0,0.2,0,0.4c0.301,0.5,0.4,1,0.5,1.6c-0.1,0-0.1,0.1-0.1,0.2c0.1,0,0.1,0,0.1,0.1
		c0,0.1,0,0.2,0.101,0.2c0,0.2,0,0.5,0.1,0.7c0.101,0,0.101,0.1,0.101,0.3c0.3-0.2,0.699-0.3,1-0.4c-0.2-0.1-0.2-0.1-0.301-0.1
		c0-0.1,0-0.3-0.1-0.4S58,16.8,58,16.8c-0.5-0.8-0.801-1.6-0.9-2.5c0,0,0,0,0-0.1C56.899,14.3,56.799,14.3,56.699,14.3z"/>
	<path fill="#AFBA4C" d="M89.599,26.4c0.1,0,0.1,0.1,0.1,0.1C88,27.3,86,27.6,84,27.5c-0.801,0-1.5,0.1-2.2,0.5
		c-0.2,0-0.4,0.1-0.601,0.2c0,0,0,0,0,0.1c0,0,0,0,0.101,0.1c0.6,0.5,1,1,1.7,1.4c0.3,0,0.699,0,1,0.2c0,0.2,0,0.2,0,0.2
		c0.3-0.2,0.699-0.2,0.899,0.1c0,0.2,0.101,0.3,0.101,0.5c0.199-0.1,0.6,0,1.1,0.2h0.1c0.4,0,0.801,0.1,1,0.3
		c0.101,0,0.101,0,0.101,0.1c0.3,0,0.5,0.1,0.7,0.4c0,0,0,0,0.1,0c-0.1,0.3-0.2,0.5-0.4,0.7c0.601-0.3,1.101-0.5,1.7-0.7
		c2.101-0.4,4.2-0.4,6.3,0c0,0,0.101,0,0.301,0c1.3-0.1,2.699-0.5,3.899-1c0.101-0.2,0.2-0.3,0.3-0.4c0-0.1,0-0.1,0-0.1
		c-0.1-0.1-0.199-0.1-0.199-0.3c0,0,0,0,0-0.1c-0.101-0.1-0.101-0.3-0.101-0.4c0,0,0,0,0-0.1c-0.1-0.1-0.1-0.1-0.1-0.2
		c-0.101,0-0.101-0.1-0.101-0.2c0-0.3-0.1-0.6-0.199-0.9c0-0.1,0-0.1-0.101-0.1c-0.1,0-0.2-0.2-0.399-0.2c0-0.1,0-0.2,0-0.2
		c-0.101-0.1-0.101-0.3-0.2-0.3c-0.101-0.1-0.101-0.2-0.101-0.3c0,0,0,0-0.1,0c-2.4-1.4-5.1-2-8-1.8c-0.1,0-0.4,0-0.5,0
		c-3.4-0.3-6.7,0.1-9.9,1.2c0.101,0.1,0.301,0.2,0.301,0.4c0.399-0.2,0.699-0.3,1-0.3c1-0.5,2.199-0.7,3.399-0.8
		c1.3-0.2,2.601-0.1,3.8,0.3c0.301,0.2,0.5,0.2,0.801,0.3C89.5,26.3,89.5,26.3,89.599,26.4z M92,26.4v0.1
		c-0.5,0.8-1.101,0.9-1.801,0.4c0-0.2,0-0.3,0-0.4c0.101-0.2,0.101-0.2,0.301-0.3c0.199-0.2,0.5-0.2,0.8-0.2
		C91.699,26,91.899,26.2,92,26.4z"/>
	<path fill="#D7DF23" d="M92,26.5v-0.1c-0.101-0.2-0.301-0.4-0.7-0.4c-0.3,0-0.601,0-0.8,0.2c-0.2,0.1-0.2,0.1-0.301,0.3
		c0,0.1,0,0.2,0,0.4C90.899,27.4,91.5,27.3,92,26.5z"/>
	<path fill="#D7DF23" d="M89.699,26.5c0,0,0-0.1-0.1-0.1c-0.1-0.1-0.1-0.1-0.1-0.1c-0.301-0.1-0.5-0.1-0.801-0.3
		c-1.199-0.4-2.5-0.5-3.8-0.3c-1.2,0.1-2.399,0.3-3.399,0.8c-0.301,0-0.601,0.1-1,0.3C79.699,27,79,27.5,78.199,28
		c-0.1,0.1-0.199,0.2-0.3,0.4c0,0.1,0,0.1,0,0.3c0,0.1,0,0.1,0,0.3c-0.1,0,0,0,0,0.1c0.101,0.1,0.101,0.1,0.3,0.1c0.9-0.4,2-0.7,3-1
		c0.2-0.1,0.4-0.2,0.601-0.2c0.7-0.4,1.399-0.5,2.2-0.5C86,27.6,88,27.3,89.699,26.5z"/>
	<path fill="#40835E" d="M81.299,28.4c-0.101-0.1-0.101-0.1-0.101-0.1c0-0.1,0-0.1,0-0.1c-1,0.3-2.1,0.6-3,1
		c-0.199,0-0.199,0-0.3-0.1c0-0.1-0.1-0.1,0-0.1c0-0.2,0-0.2,0-0.3c0-0.2,0-0.2,0-0.3c0.101-0.2,0.2-0.3,0.3-0.4
		c0.801-0.5,1.5-1,2.301-1.2c0-0.2-0.2-0.3-0.301-0.4c-0.199-0.1-0.3-0.1-0.5-0.1v0.1C79.299,26.6,79,26.8,78.799,27
		c-0.101,0-0.101,0.2-0.2,0.3l-0.1-0.2c-0.5,0.2-1,0.7-1.4,1.2c-0.1,0.2-0.2,0.2-0.3,0.4c-0.5,1.1-1.2,2.1-2.101,3
		c0,0.1,0,0.1-0.1,0.1c0,0,0,0,0.1,0c0,0,0,0,0,0.2l-0.1-0.2c-0.1,0-0.1,0-0.3,0h-0.101c-0.1,0-0.199,0-0.199,0
		c-0.101,0-0.101,0-0.101,0c-0.1,0-0.1,0.2-0.1,0.2c-0.101,0.2-0.101,0.3-0.2,0.5c-0.1,0-0.1,0.1-0.1,0.3c0,0,0,0.2,0.199,0.4
		c0,0,0.2,0.1,0.301,0.1c0.1,0.1,0.199,0.2,0.3,0.2c0,0,0,0,0,0.1c1.899,1.1,3.6,2.4,5.2,3.8c0.1,0.4,0.3,0.9,0.6,1.2
		c0.6,0.7,1.1,1,1.7,0.9c0.2-0.2,0.3-0.2,0.399-0.3C82.299,39,82.5,39,82.5,38.8c0.199,0,0.3,0,0.399,0l0,0c0.5-0.2,0.9-0.5,1.101-1
		c0-0.2,0-0.2,0-0.2c0.199-0.1,0.3-0.1,0.3-0.3c0.399-0.5,0.7-1.1,1.2-1.5c0-0.1,0-0.2,0.1-0.2c0.6-0.8,1.3-1.6,1.7-2.3
		c0.2-0.3,0.3-0.5,0.399-0.8c0.2-0.2,0.301-0.4,0.4-0.7c-0.1,0-0.1,0-0.1,0c-0.2-0.3-0.4-0.4-0.7-0.4c0-0.1,0-0.1-0.101-0.1
		c-0.199-0.2-0.6-0.3-1-0.3h-0.1c-0.5-0.2-0.9-0.3-1.1-0.2c0-0.2-0.101-0.3-0.101-0.5c-0.2-0.3-0.6-0.3-0.899-0.1c0,0,0,0,0-0.2
		c-0.301-0.2-0.7-0.2-1-0.2C82.299,29.4,81.899,28.9,81.299,28.4z M80.899,29.8c0-0.2,0-0.2,0-0.3c0,0.1,0,0.1,0.101,0.1
		C80.899,29.6,80.899,29.6,80.899,29.8z"/>
	<path fill="#812990" d="M80.899,29.5c0,0.1,0,0.1,0,0.3c0-0.2,0-0.2,0.101-0.2C80.899,29.6,80.899,29.6,80.899,29.5z"/>
	<path fill="#812990" d="M85.599,35.6c-0.1,0-0.1,0.1-0.1,0.2c-0.5,0.4-0.801,1-1.2,1.5c0,0.2-0.101,0.2-0.3,0.3c0,0,0,0,0,0.2
		C84.699,37.1,85.199,36.3,85.599,35.6z"/>
	<path fill="#812990" d="M87.699,32.5c-0.1,0.3-0.199,0.5-0.399,0.8C87.5,33,87.699,32.8,87.699,32.5z"/>
	<path fill="#812990" d="M78.599,27.3c0.1-0.1,0.1-0.3,0.2-0.3c-0.101,0-0.3,0-0.3,0.1L78.599,27.3z"/>
	<path fill="#D7DF23" d="M69.099,34.3H69c-0.2,0-0.301,0-0.5,0c-1.301,0.2-2.301,0.7-3.2,1.7c0,0.1,0,0.2,0.1,0.3
		c0,0,0,0.1,0.101,0.2c0,0,0.199,0.2,0.399,0.3c1.101-0.8,2.3-1.3,3.601-1.5c0-0.1,0-0.1,0.1-0.1c0.1-0.1,0.1-0.2,0.1-0.2
		c0.2,0,0.5-0.1,0.601-0.2c-0.101-0.2-0.3-0.2-0.601-0.2c0-0.1,0-0.1,0-0.1c-0.199-0.1-0.3-0.2-0.399-0.2c-0.101,0-0.101,0-0.101,0
		l0,0C69.199,34.3,69.199,34.3,69.099,34.3z"/>
	<path fill="#AFBA4C" d="M69.299,34.3c0.1,0,0.2,0.1,0.399,0.2c0,0,0,0,0,0.1c0.301,0,0.5,0,0.601,0.2c-0.101,0.1-0.4,0.2-0.601,0.2
		c0,0,0,0.1-0.1,0.2c-0.1,0-0.1,0-0.1,0.1c-1.301,0.2-2.5,0.7-3.601,1.5c-0.2-0.1-0.399-0.3-0.399-0.3
		c-0.101-0.1-0.101-0.2-0.101-0.2c-0.1-0.1-0.1-0.2-0.1-0.3c0.899-1,1.899-1.5,3.2-1.7l0,0c-2.2-0.1-3.801,0.7-4.801,2.5
		c0.801,0.5,1.5,1,2.2,1.5c1.9,1.5,3.601,3,5.101,4.7c2.5-0.7,5-1.5,7.5-2.4c0.3-0.1,0.5-0.1,0.8-0.2c0.899-0.2,1.7-0.6,2.5-0.9
		c-0.601,0.1-1.101-0.2-1.7-0.9c-0.3-0.3-0.5-0.8-0.6-1.2c-1.601-1.4-3.301-2.7-5.2-3.8c0-0.1,0-0.1,0-0.1c-0.101,0-0.2-0.1-0.3-0.2
		c-0.101,0-0.301-0.1-0.301-0.1C73.5,33,73.5,32.8,73.5,32.8C72.299,33.6,70.899,34.2,69.299,34.3z"/>
	<path fill="#375896" d="M74.699,32c0-0.2,0-0.2,0-0.2c-0.1,0-0.1,0-0.1,0L74.699,32z"/>
	<path fill="#812990" d="M82.899,38.8c-0.1,0-0.2,0-0.399,0c0,0.2-0.2,0.2-0.301,0.4C82.5,39,82.699,38.9,82.899,38.8z"/>
	<path fill="#812990" d="M68.5,34.3L68.5,34.3c0.199,0,0.3,0,0.5,0C68.899,34.3,68.699,34.3,68.5,34.3z"/>
	<path fill="#40835E" d="M89.5,33.3c-0.2,0-0.301,0.1-0.5,0.2c-1.2,0.8-2.101,1.8-2.801,3.2C85.5,38,84.5,39,83.299,39.7
		c-0.8,1-2,1.6-3.3,1.9c-0.801,0.2-1.5,0.4-2.2,0.7c-0.3,0.1-0.7,0.2-1.101,0.3c-1.899,0.6-3.8,0.9-5.699,1.1
		c-0.101,1.6-1.101,2.601-2.7,2.8c-1.4,0.101-2.8,0.5-4.101,0.801c-1.199,0.199-2.3,0.399-3.5,0.5c0.2,0.399,0.2,0.699,0,1.1
		c0,0.1,0,0.1,0,0.1c0.2,0.2,0.4,0.5,0.5,0.801l0,0C64,50.2,66.899,50,69.699,49.5c1.9-0.5,3.801-0.899,5.5-1.399
		c3.5-1,6.801-2.5,9.801-4.5v-0.1c0.1,0,0.199,0,0.199,0c0.301-0.2,0.7-0.5,1-0.7c2.301-1.6,4.5-3.5,6.5-5.4
		c0-0.1,0.101-0.2,0.2-0.2C92.899,37.1,93,37,93,37c0.199,0,0.399-0.2,0.5-0.5c0-0.2,0.199-0.4,0.399-0.5c0.4-0.5,0.8-1,1.101-1.6
		c0.199-0.1,0.5-0.4,0.699-0.6c0.301-0.3,0.601-0.5,1-0.6c-0.399,0-0.699,0-1,0.1C93.599,33.5,91.5,33.5,89.5,33.3z"/>
	<path fill="#856397" d="M76.099,49.5c-0.1,0-0.4,0-0.6,0c-0.5,0.101-1,0.301-1.4,0.4c-0.6,0.1-1.2,0.2-1.8,0.4
		c-0.101,0-0.101,0-0.101,0c0,0.1,0,0.199,0,0.199s0,0,0,0.101c-0.8,0.2-1.6,0.3-2.3,0.399c-0.1,0.2-0.2,0.301-0.2,0.5
		C70.799,51.3,71.899,51.3,73,51.3c0-0.101,0-0.2,0.1-0.301c0.8,0.301,1.6,0.301,2.6,0c2.101-0.199,4.301-0.3,6.5-0.5v-0.1
		c1.2,0.2,2.5,0.1,3.801-0.1c0.199,0,0.199,0,0.3-0.101c1.2-0.1,2.399-0.2,3.5-0.3c0.1,0,0.1,0,0.1,0c0.4,0.2,0.9,0.4,1.4,0.6
		c0,0,0,0,0,0.101c-0.3,0.7-0.8,1.5-1.3,2.2c-0.301,0.199-0.601,0.5-0.9,0.8c-0.2,0.399-0.4,0.7-0.8,0.899
		c0,0.101-0.101,0.101-0.101,0.2c0,0,0,0,0,0.101c0.2,0.699,0.5,1.399,0.9,2c0.1,0.199,0.1,0.3,0.3,0.399
		c0.101,1.601,0.3,3.3,0.4,4.9c0.1,0.2,0.1,0.399,0.1,0.5c-0.2,0.1-0.2,0.2-0.3,0.399c-0.1,0-0.1,0.101-0.1,0.2c0,0.101,0,0.2,0,0.3
		c0,0,0,0.101,0,0.301c-0.101,0-0.2,0.199-0.301,0.199c0,0.101,0,0.2-0.1,0.301c0,0.1,0,0.199,0,0.199c0,0.101,0,0.301,0,0.301
		c-0.1,0.1-0.2,0.199-0.2,0.3c-0.1,0.1-0.1,0.2-0.2,0.3c0,0.1,0,0.1,0,0.2c0,0.2,0,0.2,0,0.3c-0.5,1.4-1.1,2.6-1.8,3.9
		c0,0,0,0.1-0.1,0.199c-1.8,1.801-3.9,2.5-6.3,2.2c-1.601-0.2-2.801-1-3.5-2.6C76.699,69.3,76.699,69,76.5,68.5
		c0.199-0.199,0.199-0.3,0.3-0.399C76.699,68,76.699,68,76.699,68c-0.3,0-0.5,0-0.699,0c-1,0.101-2.101,0.2-3.101,0.301
		C72.399,68.2,72,68.2,71.399,68.2c-0.399,0-0.899,0.101-1.3,0.2c-0.2,0.1-0.4,0.1-0.5,0.1c-1.1,0.101-2.3,0.2-3.4,0.301
		c0.5,1.5,0.9,3,1.301,4.6c0.1,0.1,0.1,0.4,0.199,0.6c2.801,4,6.801,6.2,12,6.5c1,0,2-0.199,3.101-0.5c2.2-1,4.2-2,6.1-3.5
		c1.601-2.199,3.101-4.5,4.4-7c2.2-5.5,2.899-11.5,2.1-17.5c-0.1-0.199-0.1-0.5-0.1-0.699C95,51,94.899,50.5,94.699,50
		c0-0.199-0.1-0.399-0.199-0.5c-0.2-0.3-0.301-0.699-0.601-0.899c-0.1-0.101-0.2-0.101-0.3-0.3C93.5,48.2,93.5,48,93.5,47.8
		c0-0.2,0-0.301,0-0.5c0,0,0,0,0.1,0c-0.3-0.5-0.6-0.801-0.9-1.301c-1.899-1.2-4-1.7-6.199-1.2c-0.4,0.1-0.7,0.1-1,0
		c-0.801,0.5-1.5,1-2.2,1.4c0,0,0.2,0,0.3,0c-0.1,0.101-0.3,0.101-0.4,0.101c-0.3,0.199-0.699,0.399-1,0.5
		c-0.5,0.199-0.899,0.3-1.1,0.6c-0.1,0-0.2,0.1-0.2,0.1C79.299,48.3,77.699,49,76.099,49.5z M90,56.8c0,0,0.1,0,0.199,0
		c1,1.5,1.5,3.3,1.4,5.399c-0.3,3.3-1.6,6.101-4.1,8.3c-0.101,0-0.2,0-0.2,0.101c0-0.101,0-0.101,0.1-0.101
		c1.3-1.699,2.2-3.5,2.7-5.399c0.6-2.8,0.6-5.5-0.3-8.101C89.899,56.9,89.899,56.8,90,56.8z M69.699,71c0,0,0,0,0,0.101
		c1,1.399,2,2.7,3.301,4c-0.101,0.1-0.101,0.1-0.101,0.2c-0.1,0-0.2,0.1-0.2,0.199c-1.1,0.301-2.1,0-3-0.899c-1.5-1.4-2-3.101-1.5-5
		c0.101-0.3,0.301-0.4,0.7-0.3V69.2C69.5,69.5,69.799,70.1,69.699,71z"/>
	<path fill="#9B95C9" d="M90.199,56.8c-0.1,0-0.199,0-0.199,0c-0.101,0-0.101,0.1-0.2,0.199c0.899,2.601,0.899,5.301,0.3,8.101
		c-0.5,1.899-1.4,3.7-2.7,5.399H87.5c2.5-2.199,3.8-5,4.1-8.3C91.699,60.1,91.199,58.3,90.199,56.8z"/>
	<path fill="#2B87A6" d="M87.5,70.5h-0.101c-0.1,0-0.1,0-0.1,0.101C87.299,70.5,87.399,70.5,87.5,70.5z"/>
	<path fill="#9B95C9" d="M69.699,71.1c0-0.101,0-0.101,0-0.101c0.101-0.899-0.199-1.5-0.8-1.8V69.3c-0.399-0.101-0.6,0-0.7,0.3
		c-0.5,1.899,0,3.6,1.5,5c0.9,0.899,1.9,1.2,3,0.899c0-0.1,0.101-0.199,0.2-0.199c0-0.101,0-0.101,0.101-0.2
		C71.699,73.8,70.699,72.5,69.699,71.1z"/>
	<path fill="#2B87A6" d="M68.899,69.2V69.3V69.2z"/>
	<path fill="#2B87A6" d="M52.199,48.6c0,0.1,0,0.2,0.101,0.2c0,0.1,0,0.199,0.1,0.199c0,0.101,0,0.2,0,0.2c0,0.101,0,0.2,0,0.3H52.5
		c0,0.101,0,0.301,0.199,0.301C52.5,50.2,52.5,50.6,52.199,51C52.099,51.1,52,51.3,51.799,51.3c0,0.199,0.1,0.3,0.2,0.399
		C51.899,51.8,52,51.8,52,51.8c0,0.399,0,0.699,0,1c0,0,0.199-0.2,0.3-0.301c0,0,0.1,0,0.2,0c-0.101-0.1-0.101-0.199-0.101-0.199
		c-0.1-0.101-0.1-0.101-0.1-0.2c0-0.3,0-0.5,0-0.7c0-0.1,0-0.2,0-0.4c0.2-0.199,0.399-0.399,0.6-0.6c0-0.1,0.101-0.1,0.3-0.1
		c-0.199-0.101-0.3-0.2-0.3-0.4c-0.1-0.1-0.2-0.1-0.2-0.1s0-0.2,0-0.301c0,0,0-0.199,0-0.3c0-0.3,0.2-0.399,0.301-0.7
		C52.699,48.5,52.5,48.5,52.199,48.6z"/>
	<path fill="#2B87A6" d="M53.5,49.4c0,0.1,0,0.1,0,0.1c0.3,0.101,0.5,0.101,0.699,0.301c0-0.2,0-0.301,0-0.301v-0.1
		c0.5-0.3,1.101-0.4,1.9-0.2c0.1,0,0.1,0.101,0.1,0.101c0.101,0.199,0.101,0.3,0,0.5c0,0,0,0-0.1,0.1c-0.4,0.2-0.8,0.3-1.1,0.3V50.3
		l0,0c0,0.1,0,0.199,0,0.3c-0.801,0.2-1.5,0.5-2,1c0,0.1,0.1,0.2,0.199,0.399v0.2c0,0,0,0,0,0.101c0.101,0,0.301,0,0.301,0.1
		s0,0.2,0,0.4c0.1,0,0.1,0.199,0,0.399c0,0,0,0,0,0.101c0-0.101,0.199-0.101,0.399,0V53.2C53.899,53.3,54,53.3,54,53.3
		c0.1,0.1,0.1,0.1,0.199,0.199c0,0.101,0,0.301-0.199,0.4c0,0.1-0.101,0.1-0.101,0.1c-0.6,0.301-0.899,0.2-1-0.199
		c0-0.2,0.101-0.301,0.2-0.301c-0.2,0-0.4,0-0.6,0c0,0,0,0.101-0.101,0.301c-0.1,0.1-0.1,0.199-0.2,0.399
		c0.101,0.101,0.101,0.2,0.101,0.3c0.1,0.101,0.1,0.2,0.2,0.301c0,0,0,0,0.199,0.1c0.2,0.1,0.301,0.3,0.5,0.6
		c0,0.101-0.199,0.301-0.3,0.301c-0.1,0-0.2,0-0.2,0c-0.199,0-0.399-0.101-0.5-0.2C52,56,51.699,56.4,51.5,56.9
		c-0.101,0.3-0.2,0.5-0.301,0.7v0.2c0,0,0,0.199-0.1,0.399c0,0,0,0,0.1,0.101c-0.1,0.1-0.2,0.3-0.2,0.5c0,0,0.2,0,0.3-0.101
		c0.5-0.899,1.399-1.5,2.5-1.899c1.2-0.5,2.5-1.101,3.6-2c0.101-0.101,0.2-0.2,0.3-0.2c-0.1-0.101-0.1-0.101-0.199-0.101
		c0.3-0.199,0.5-0.3,0.699-0.399c0.5-0.3,0.801-0.7,1.2-1.101V52.8l0,0c-0.399,0-0.7-0.301-0.8-0.601c0-0.1,0-0.1,0.1-0.1
		C59,51.6,59.5,51,60,50.6c0,0-0.101,0-0.2-0.101c0,0,0-0.1,0-0.199c0,0,0,0,0.1,0C59.599,50.2,59.299,50.2,59,50.2
		C58.899,50,58.899,49.8,58.899,49.8s0-0.2,0-0.301c0.101-0.3,0.4-0.699,0.8-0.8c0-0.2-0.199-0.399-0.399-0.6
		c-1.601,0.2-3.3,0.3-4.8,0.399c-0.2-0.1-0.2-0.1-0.301,0C54,48.8,53.699,49,53.5,49.4z M57.799,49.5c0.399-0.199,0.7,0,0.8,0.301
		c0,0,0,0,0.1,0v0.1c-0.6,0.4-1.199,0.7-1.699,0.7c-0.5,0.1-1-0.101-1.5-0.3C56.199,49.8,56.899,49.5,57.799,49.5z M57.199,51.3
		c0.301-0.101,0.7,0,1,0.3c0,0,0,0.1,0.101,0.2C57.699,52.2,57.199,52.5,56.699,52.5s-1-0.1-1.5-0.399
		C55.799,51.7,56.5,51.4,57.199,51.3z M57.599,52.9c0.1-0.1,0.2-0.1,0.3,0C58,53,58,53,58,53.2c-0.2,0.3-0.5,0.601-0.801,0.7
		c-0.699,0.4-1.5,0.6-2.3,0.4l-0.2-0.101c0-0.1,0-0.1,0-0.2c0,0,0-0.1,0.2-0.199c0,0,0,0,0.101-0.2c0.6-0.101,1.199-0.3,1.899-0.5
		l0,0c0.2-0.101,0.3-0.101,0.5-0.2C57.5,52.9,57.5,52.9,57.599,52.9z M55.199,51c0.101,0,0.2,0,0.301,0c0,0.101,0,0.101,0.1,0.2
		c-0.3,0.9-0.9,1.2-1.7,0.8c-0.1-0.199-0.1-0.199-0.1-0.399c0,0,0,0,0.1-0.101C54.199,51.3,54.699,51,55.199,51z M52.299,57.3
		c-0.101,0-0.101-0.101-0.101-0.101c-0.1-0.1-0.1-0.2-0.1-0.2c0.1-0.399,0.3-0.699,0.6-1c0,0,0.101,0,0.2,0c0,0,0.101,0,0.101,0.101
		c0.1,0,0.1,0.1,0.199,0.1c0,0.3-0.199,0.601-0.5,1c0,0,0,0,0,0.101C52.5,57.3,52.399,57.3,52.299,57.3z"/>
	<path d="M58.599,49.8c-0.1-0.301-0.4-0.5-0.8-0.301c-0.9,0-1.601,0.301-2.3,0.801c0.5,0.199,1,0.399,1.5,0.3
		c0.5,0,1.1-0.3,1.699-0.7v-0.1C58.599,49.8,58.599,49.8,58.599,49.8z"/>
	<path d="M58.199,51.6c-0.3-0.3-0.699-0.4-1-0.3c-0.699,0.1-1.399,0.399-2,0.8c0.5,0.3,1,0.399,1.5,0.399s1-0.3,1.601-0.699
		C58.199,51.7,58.199,51.6,58.199,51.6z"/>
	<path d="M57.899,52.9c-0.1-0.1-0.2-0.1-0.3,0c-0.1,0-0.1,0-0.2,0c-0.2,0.1-0.3,0.1-0.5,0.2l0,0c-0.7,0.2-1.3,0.399-1.899,0.5
		c-0.101,0.2-0.101,0.2-0.101,0.2c-0.2,0.1-0.2,0.199-0.2,0.199c0,0.101,0,0.101,0,0.2l0.2,0.101c0.8,0.199,1.601,0,2.3-0.4
		c0.301-0.1,0.601-0.4,0.801-0.7C58,53,58,53,57.899,52.9z"/>
	<path fill="#009BCA" d="M55.5,51c-0.101,0-0.2,0-0.301,0c-0.5,0-1,0.301-1.3,0.5c-0.1,0.101-0.1,0.101-0.1,0.101
		c0,0.2,0,0.2,0.1,0.399c0.8,0.4,1.4,0.101,1.7-0.8C55.5,51.1,55.5,51.1,55.5,51z"/>
	<path fill="#009BCA" d="M52.199,57.2c0,0,0,0.101,0.101,0.101c0.1,0,0.2,0,0.399,0c0-0.101,0-0.101,0-0.101
		c0.301-0.399,0.5-0.7,0.5-1c-0.1,0-0.1-0.1-0.199-0.1C53,56,52.899,56,52.899,56c-0.1,0-0.2,0-0.2,0c-0.3,0.301-0.5,0.601-0.6,1
		C52.099,57,52.099,57.1,52.199,57.2z"/>
	<path fill="#009BCA" d="M54.199,49.8L54.199,49.8C54.5,50,54.699,50.2,55,50.2c0.3,0,0.699-0.1,1.1-0.3c0.1-0.1,0.1-0.1,0.1-0.1
		c0.101-0.2,0.101-0.301,0-0.5c0,0,0-0.101-0.1-0.101c-0.8-0.2-1.4-0.1-1.9,0.2v0.1C54.199,49.5,54.199,49.6,54.199,49.8z"/>
	<path fill="#009BCA" d="M53.099,53.5c-0.1,0-0.2,0.101-0.2,0.301c0.101,0.399,0.4,0.5,1,0.199c0,0,0.101,0,0.101-0.1
		c0.199-0.1,0.199-0.3,0.199-0.4c-0.1-0.1-0.1-0.1-0.199-0.199c0,0-0.101,0-0.101-0.101V53.3c-0.2-0.101-0.399-0.101-0.399,0
		C53.299,53.3,53.199,53.4,53.099,53.5z"/>
	<path fill="#0095DA" d="M61.199,52.8c-0.3,0-0.5,0.1-0.8,0.1c-0.1,0.4-0.2,0.7-0.399,1.1c-0.5,0.601-1,0.9-1.4,1
		c-1.4,1.301-2.8,2.5-4.4,3.301C59.099,57.5,64,57,69,57c2.199-0.1,4.199-0.199,6.399-0.399c1.9-0.2,3.8-0.4,5.8-0.5
		c1.5-0.101,2.9-0.3,4.301-0.5c0.6-0.101,1-0.3,1.399-0.7c0.601-0.7,1.3-1.5,1.9-2.3c0.1-0.101,0.1-0.2,0.2-0.3
		c0.199-0.301,0.3-0.601,0.5-0.9C80.399,52,71.199,52.5,62.199,53c-0.3,0-0.5,0-0.699,0C61.299,53,61.199,52.9,61.199,52.8z
		 M64.5,55c-0.5,0-1,0-1.5,0.2c-1.101,0.3-2,0-2.5-0.899l0,0C60.5,54.2,60.699,54,60.699,54c1.4,0.2,2.801,0.2,4.2,0
		c2-0.399,4-0.5,6-0.6c3.8-0.2,7.601-0.4,11.4-0.9c1.7-0.1,3.3-0.199,4.899-0.3c0.101,0.101,0.301,0.2,0.5,0.3c0,0,0,0,0,0.101
		c0,0.2,0,0.399-0.1,0.6c-0.1,0.101-0.2,0.2-0.3,0.3C79.699,54.2,72.099,54.7,64.5,55z"/>
	<path fill="#8ED8F8" d="M63,55.2c0.5-0.2,1-0.2,1.5-0.2c7.6-0.3,15.199-0.8,22.8-1.5c0.1-0.1,0.2-0.199,0.3-0.3
		c0.1-0.2,0.1-0.399,0.1-0.6c0-0.101,0-0.101,0-0.101c-0.199-0.1-0.399-0.199-0.5-0.3c-1.6,0.101-3.199,0.2-4.899,0.3
		c-3.8,0.5-7.601,0.7-11.4,0.9c-2,0.1-4,0.2-6,0.6c-1.399,0.2-2.8,0.2-4.2,0c0,0-0.199,0.2-0.199,0.301l0,0
		C61,55.2,61.899,55.5,63,55.2z"/>
	<path fill="#856397" d="M67.5,59c-0.101,0.5-0.301,0.801-0.5,1.2c1,0,1.699,0,2.6,0c0.4,0,0.7,0,1.1-0.1c1,0.2,2,0.3,2.9,0.1
		c1-0.2,2.1-0.399,3.1-0.5c0.4,0.101,0.801,0.101,1.4,0.101c0.1-0.2,0.1-0.5,0.1-0.7c0-0.101,0-0.101,0-0.101
		c0-0.699,0.301-1.199,0.7-1.5c-0.6,0-1,0-1.399,0c-1,0-1.801,0.101-2.601,0.4c-0.399,0.1-0.7,0.3-1.1,0.3c-0.101,0-0.101,0-0.2,0
		c-0.6-0.399-1.3-0.399-2.2-0.3c-0.1,0.1-0.2,0.1-0.3,0.1c-0.2,0.2-0.4,0.2-0.6,0.301c-0.5,0-1,0-1.4,0s-0.9,0-1.4,0V58.5
		c0,0.101-0.1,0.301-0.199,0.4C67.5,59,67.5,59,67.5,59z"/>
	<path fill="#0095DA" d="M87.399,55.6c-0.1,0.1-0.1,0.2-0.2,0.2c-0.3,0.3-0.699,0.6-1.1,0.899V56.8c-0.1,0.1-0.2,0.3-0.4,0.5
		c-0.1,0-0.199,0-0.199,0c-0.4,0-0.801,0-1.101,0h-0.1c-1-0.301-2-0.301-3-0.101c-0.101,0.101-0.101,0.101-0.101,0.2
		c-0.3,0-0.699,0-1,0.1C80,57.8,79.899,58,79.699,58.3c-0.1,0-0.199,0.199-0.3,0.199c0.101,0.2,0.101,0.5,0.2,0.601
		c0,0.1,0,0.2,0,0.2v0.1c1.9-0.1,4-0.1,6,0c0,0.1,0,0.1,0,0.2c-0.1,0.2-0.4,0.399-0.6,0.7c0.199,0.199,0.5,0.199,0.6,0.5
		c0.1,0,0.1,0.1,0.2,0.199c0,0.5,0,0.9,0,1.301c0,0.199,0,0.5,0,0.699c-0.601,1-1.3,1.801-2.101,2.5c-0.5,0-1.1,0-1.6,0
		c-0.1,0-0.2-0.1-0.3-0.199c-0.101-0.101-0.101-0.2-0.2-0.301c-0.1-0.3-0.1-0.699-0.1-1h-0.101C80.5,64.8,79.699,65.8,79,66.9
		c0,0.1,0,0.1,0,0.1c-0.101,0.101-0.301,0.101-0.301,0.2C78.5,67.3,78.5,67.3,78.299,67.4c0,0.1,0.2,0.1,0.2,0.1
		C78.299,67.6,78.199,67.8,78,68c0-0.199,0-0.199,0-0.399c-0.101,0.2-0.301,0.399-0.5,0.5c0.399,0.399,0.699,0.7,1,0.899
		c1.3,2.5,3.3,3,5.8,1.2c1.6-1.2,2.6-2.6,3.2-4.399c0.1-0.2,0.1-0.4,0.199-0.601c0-0.1,0-0.2,0-0.3s0.101-0.1,0.2-0.2
		C88,64.5,88,64.3,88,64.1C88,64,88,64,88,63.8l0.199-0.2c0.101-0.2,0.101-0.4,0.101-0.601V62.8c0.1-0.2,0.2-0.301,0.399-0.301
		c0-1.3-0.1-2.699-0.3-4.199c-0.1-0.101-0.1-0.301-0.1-0.5C87.899,57.2,87.599,56.4,87.399,55.6z"/>
	<path fill="#0066B3" d="M82.5,63.6c0,0.2,0,0.399,0,0.5c0,0.1,0.1,0.2,0.199,0.3c0.2,0,0.301,0,0.301,0
		c0.8-0.6,1.399-1.4,1.699-2.2c0-0.399-0.199-0.7-0.3-1.1c0-0.101,0-0.101,0-0.101c-0.399,0.5-0.7,0.9-1.2,1.301
		C83,62.5,82.699,62.8,82.299,63C82.299,63.3,82.299,63.4,82.5,63.6z"/>
	<path fill="#FAA61A" d="M92,41.5c0,0,0.1,0,0.199-0.1c1.7,0.8,3,1.9,3.801,3.6c-0.301-0.6-0.7-1.2-1-1.9c0-0.1,0-0.1,0-0.3
		c-1-0.5-1.601-1.3-2-2.3c-0.101-0.3-0.2-0.7-0.101-1l-0.2-0.2C91,40.6,89.5,42,87.899,43.2c2.8,0,5.3,1.3,7.3,4.101
		c0.5,0.699,1.101,1.5,1.801,2c0.1-0.7,0-1.301-0.101-2c-0.1-0.101-0.1-0.2,0-0.301c-0.3-0.6-0.6-1.199-0.899-1.8c0,0,0,0,0,0.1l0,0
		v0.1c-0.2,0.1-0.301,0.1-0.301,0.1C93.899,44.7,92.5,43.6,91.5,42c-0.101,0-0.101,0,0-0.1c0-0.1,0-0.1,0.1-0.1
		c0.1-0.2,0.1-0.3,0.2-0.3C91.799,41.5,91.899,41.5,92,41.5z"/>
	<path fill="#FFCB05" d="M92.199,41.4C92.099,41.5,92,41.5,92,41.5c-0.101,0-0.2,0-0.2,0c-0.101,0-0.101,0.1-0.2,0.3
		c-0.1,0-0.1,0-0.1,0.1c-0.101,0.1-0.101,0.1,0,0.1c1,1.6,2.399,2.7,4.199,3.5c0,0,0.101,0,0.301-0.1v-0.1l0,0c0-0.1,0-0.1,0-0.1V45
		C95.199,43.3,93.899,42.2,92.199,41.4z"/>
</g>
</svg>
