<?xml version="1.0" encoding="utf-8"?>
<!-- Generator: Adobe Illustrator 13.0.0, SVG Export Plug-In . SVG Version: 6.00 Build 14948)  -->
<svg version="1.2" baseProfile="tiny" id="Layer_1" xmlns="http://www.w3.org/2000/svg" xmlns:xlink="http://www.w3.org/1999/xlink"
	 x="0px" y="0px" width="167.245px" height="118.921px" viewBox="0 0 167.245 118.921" xml:space="preserve">
<g>
	<path d="M8.3,36.622c-0.7,0.4-1.6,0.7-2.4,1.1c-0.2,0-0.2,0-0.3,0c-0.1-0.1-0.2-0.2-0.3-0.4c-2.2-0.2-4,0.5-5.2,2.5
		c0,0.5,0,1.2-0.1,1.7c0,0.6,0.1,1.2,0.3,1.6c1.8,0.1,3.7,0.4,5.6,0.6c0,0,0.1,0.1,0.2,0.4c0.6,1.5,2,1.6,4,0.6c0-0.1,0-0.3,0.1-0.4
		c0-0.2,0-0.4,0-0.6c0.4-0.4,0.8-0.7,1-1.1c0.4-0.8,0.9-1.5,1.4-2.3c-0.1-0.3-0.1-0.7-0.2-1.1c-0.1-0.1-0.1-0.4-0.1-0.5
		c-0.2-0.4-0.4-0.7-0.6-1.1c-0.1-0.3-0.2-0.4-0.4-0.6c-0.2-0.2-0.4-0.3-0.7-0.5c-0.5-0.1-1.1-0.2-1.6-0.3
		C8.7,36.321,8.6,36.521,8.3,36.622z M9,37.721c0.5,0.1,1.1,0.4,1.6,0.6c0.1,0.2,0.3,0.4,0.4,0.5c0.1,0.4,0.2,0.8,0.3,1.2
		c0,0.1-0.1,0.3-0.2,0.6c-0.4,1-1.1,1.9-2,2.8c-0.6,0-1.2,0-1.9,0c0-0.3,0-0.7,0-0.9c0-0.4,0-0.8,0-1.2c-0.1-0.2-0.3-0.3-0.5-0.6
		c-0.2,0.3-0.4,0.4-0.6,0.6c0,0.2-0.1,0.4-0.2,0.5c-1.6,0-3.2-0.1-4.8-0.1c0-0.1,0-0.4,0-0.6c0-0.1,0-0.4,0-0.5c0-0.3,0-0.5,0-0.6
		c1.5-0.5,2.8-1.1,3.9-1.7c0.1,0,0.2,0.2,0.3,0.3c0.2,0.2,0.4,0.5,0.6,0.9c0.2-0.2,0.3-0.3,0.6-0.4c0.7-0.5,1.5-1,2.2-1.4
		C8.8,37.721,8.9,37.622,9,37.721z"/>
	<path fill="#96D5D2" d="M10.6,38.321c-0.5-0.2-1.1-0.5-1.6-0.6c-0.1-0.1-0.2,0-0.3,0c-0.7,0.4-1.5,0.9-2.2,1.4
		c-0.3,0.1-0.4,0.2-0.6,0.4c-0.2-0.4-0.4-0.7-0.6-0.9c-0.1-0.1-0.2-0.3-0.3-0.3c-1.1,0.6-2.4,1.2-3.9,1.7c0,0.1,0,0.3,0,0.6
		c0,0.1,0,0.4,0,0.5c0,0.2,0,0.5,0,0.6c1.6,0,3.2,0.1,4.8,0.1c0.1-0.1,0.2-0.3,0.2-0.5c0.2-0.2,0.4-0.3,0.6-0.6
		c0.2,0.3,0.4,0.4,0.5,0.6c0,0.4,0,0.8,0,1.2c0,0.2,0,0.6,0,0.9c0.7,0,1.3,0,1.9,0c0.9-0.9,1.6-1.8,2-2.8c0.1-0.3,0.2-0.5,0.2-0.6
		c-0.1-0.4-0.2-0.8-0.3-1.2C10.9,38.721,10.7,38.521,10.6,38.321z"/>
	<path d="M41.3,11.821c0,0.2,0,0.4,0,0.5c0,0.3,0,0.4,0,0.7c0,0.1,0.1,0.2,0.1,0.3c-1.8,0.2-3.4,1-4.8,2.3c-1.3,1-2.2,2.1-2.8,3.3
		c0,0.6,0,1.2,0,1.7s0,1.1,0,1.7c0,0.2,0,0.4,0,0.6c0.2,0.2,0.4,0.3,0.6,0.6c0.2,0.3,0.4,0.7,0.5,1c0.5,0.6,0.8,1.2,1.1,1.8
		c0.1,0.2,0.2,0.4,0.3,0.5c2.2,0.1,4.3,0.2,6.5,0.3c0.1-0.1,0.3-0.3,0.5-0.3c1-0.5,1.8-1.1,2.6-2.1c0.2-0.4,0.4-0.7,0.7-1.1
		c0.3,0.3,0.5,0.6,1,0.7c2.5,1.4,5.1,1.9,7.8,1.7c0.9-0.8,1.9-1.7,2.7-2.5c0.1-0.2,0.2-0.4,0.3-0.5c0.4-0.3,0.7-0.7,0.8-1.2
		c0.6-0.1,1.1-0.3,1.8-0.6c0,0.5,0,1.1,0.1,1.7c0,0.2,0,0.3,0.1,0.6c0.6-0.1,1.3-0.1,1.9-0.1c0.8,0.2,1.5,0.2,2.2,0.1
		c-0.2,0.8-0.2,1.7,0,2.6c0.1,0.2,0.4,0.4,0.6,0.6c0,0.1,0,0.4-0.1,0.5c0,0.6,0,1.1,0.3,1.7c-0.6,0.4-0.8,0.9-0.7,1.5
		c-0.1,0-0.1,0-0.1,0c-0.5-0.1-1-0.1-1.5,0v0.1c-0.2,0.1-0.4,0.1-0.5,0.2c-0.1,0-0.2,0-0.2,0.1c-0.2,0.1-0.3,0.3-0.4,0.3
		c0.1,0.6-0.1,1.3-0.6,2.1c-0.5,0.9-0.8,1.9-1,2.8c-0.3,1.2-0.7,2.5-1,3.7c-0.1,0.6-0.2,1.3-0.2,1.9c-0.6,2.4-1.1,4.9-1.6,7.4
		c0,0,0,0.1,0,0.2c0,0.2,0,0.5-0.1,0.6c-0.1,0.4-0.1,0.8-0.2,1.1c-0.2,0.9-0.4,1.8-0.6,2.8c-0.1,0.3-0.1,0.4-0.1,0.6
		c-0.7,0.3-1.4,0.5-2,0.8c-0.6,1.2-1.2,2.6-1.7,4c0,0,0,0.1,0,0.2c-0.1,0.2-0.1,0.4-0.2,0.6c0,0.1,0,0.1-0.1,0.1
		c-0.6,2.101-1,4.301-1.1,6.7c-0.1,0.4-0.3,0.8-0.6,1c-1.1,0.3-2.3,0.4-3.5,0.3c-0.5,0.2-1.2,0.301-1.8,0.5
		c-2.8,0.101-5.6,0.101-8.3-0.199c-0.7,0.199-1.6,0.3-2.4,0.399c-0.3,0-0.7,0-1,0c-0.1,0-0.1,0-0.2,0.101c-0.3,0.1-0.6,0.1-1,0.199
		c-0.3,0.5-0.3,1.101-0.3,1.7l0,0c0,0.4,0,0.9,0.2,1.4c0.4,1.1,0.9,2.2,1.5,3.399c0,0.101,0,0.2,0.1,0.301
		c0.7,1.899,1.4,3.699,2,5.6c1.7,6,4,11.5,7.1,16.6c-1.9,0.801-3.7,2.101-5.4,3.7c-0.2,0-0.3,0-0.4,0s-0.2,0-0.3,0.101
		c-0.2,0.199-0.3,0.3-0.5,0.3c-0.1,0.3-0.3,0.6-0.5,0.7c-1.3-0.101-2.8-0.101-4.1-0.2c-0.2-0.2-0.2-0.4-0.5-0.5
		c-0.2-0.3-0.4-0.5-0.6-0.7c-0.2-0.2-0.4-0.4-0.6-0.6c-1.2,0-2.3-0.101-3.5-0.2c-0.2-0.101-0.4-0.101-0.7-0.101
		c0,0.101,0,0.101,0,0.101c-0.2,0.1-0.5,0.2-0.7,0.3c-0.4,0.2-0.9,0.3-1.3,0.5c-0.1,0.2-0.2,0.3-0.3,0.6c0,0,0,0,0,0.101
		c0,0.1-0.1,0.3,0,0.5c0,0.1,0,0.3,0,0.5c0,0.1,0.2,0.399,0.4,0.399c0.3,0.101,0.6,0.2,0.9,0.2c0.2-0.2,0.3-0.3,0.5-0.5
		c0.2-0.2,0.5-0.5,0.7-0.6c1-0.101,1.9-0.101,2.9-0.101c0.1,0,0.1,0,0.1,0.101c0.2,0.1,0.4,0.2,0.6,0.399
		c0.2,0.101,0.6,0.301,0.9,0.5c0.3,0.2,0.7,0.4,1,0.601c0.5,0,1.1,0,1.6,0s0.9,0,1.4,0c0.7,0,1.3,0,1.8,0c0.3,0.1,0.6,0.2,0.9,0.2
		c0,0,0.1,0,0.3-0.101c0.5-0.5,1-1.1,1.7-1.5c1-1,2.3-2,3.8-2.7c0.1-0.1,0.2-0.199,0.3-0.199c0.2-0.101,0.5-0.2,0.6-0.301
		c0.1,0.2,0.1,0.301,0.3,0.5c0.4-0.399,0.9-0.699,1.5-0.899c0.1,0,0.1,0,0.3,0c0-0.101,0-0.101,0-0.2c0.1-0.1,0.3-0.1,0.5-0.1
		c0.5-0.101,0.8-0.101,1.1-0.101c4.9-1,9.4-0.2,13.4,2c0,0.101,0.1,0.101,0.2,0.101c1.5,0.6,2.8,1.199,4.3,1.899
		c0.8-0.1,1.7-0.1,2.7-0.1c0.3-0.5,0.8-0.9,1.2-1.3c0.4-0.5,1-0.801,1.6-1.301c0,0,0.1-0.1,0.2-0.199l0,0c3.6-3.9,8.3-4.7,14-2.2
		c0.1,0,0.2,0,0.3,0.1c0.9,0.601,1.9,1.3,2.9,1.9c0.699,0.399,1.399,0.7,2.1,1.1c0.3,0.2,0.6,0.4,0.9,0.5
		c-0.2,0.101-0.301,0.101-0.5,0.2c-0.801,0.3-1.601,0.7-2.301,1.1c-1.5,0.9-2.899,1.801-4.3,3.101c0,0.1,0,0.1,0,0.1
		c-0.1,0-0.1,0-0.1,0s-0.2-0.1-0.3-0.2c-0.7-0.399-1.4-0.899-2.101-1.399c-0.6-0.3-1-0.601-1.3-1c-0.5,0-0.9,0-1.3-0.101
		c-2,0.2-4,0.7-5.7,1.301c-2,0.8-4.1,1.699-6.1,2.399c-1.6,0.601-2.9,0.601-4,0c-4.9-2.399-10.2-3.6-15.8-3.7
		c-0.5,0.2-0.9,0.5-1.5,0.801c-0.3,0.199-0.7,0.399-1.1,0.699c-1.1,0.7-2.2,1.601-3.3,2.601c-2.9,2.6-6.2,3-9.7,1.5
		c-1.2-0.601-2.2-0.9-3-1.101l0,0c-0.8-0.1-1.3-0.1-1.8,0.101c-0.9-0.101-1.9-0.3-2.9-0.4c-0.6,0.5-1.5,0.8-2.7,1.101
		c-0.9,0.3-1.7,0.699-2.4,1.399c-0.1,0-0.1,0-0.1,0c-0.4,0-0.9,0.2-1.3,0.2c-0.1,0-0.2,0-0.3,0.1c-0.4,0.101-0.6,0.101-1.1,0.101
		c0,0,0,0-0.1,0c-0.2-0.2-0.4-0.3-0.6-0.4c-0.2-0.1-0.2-0.2-0.4-0.3c-0.1-0.1-0.2-0.2-0.4-0.3c-0.2,0-0.4,0.1-0.7,0.2
		c-0.1,0-0.2,0.3-0.4,0.399c0.1,0.2,0.2,0.4,0.2,0.5l0.1,0.101c0.3,0.399,0.6,0.699,0.9,1.1c0.2,0.2,0.3,0.4,0.5,0.5
		c0.7,0.2,1.4,0.2,2,0c3.6-0.8,7.2-1.9,10.7-3.1c1,0.5,2.1,1.1,3.2,1.6c0.5,0.3,0.9,0.5,1.5,0.7c0.9,0.3,1.6,0.3,2.4,0.3
		c0.1,0,0.2,0,0.2,0c1.3,0,2.5-0.4,3.7-1.2c0.4-0.3,0.8-0.6,1.3-1.1c0.4-0.3,0.7-0.601,1.2-1c1-0.8,1.9-1.4,3-1.9
		c2.8-1.3,5.8-1.3,9,0c1.2,0.5,2.5,1,3.8,1.4c1,0.3,2.1,0.6,3.2,1c2,0.399,3.8,0.8,5.8,1.1c0.2,0,0.3-0.1,0.5-0.2
		c3.7-2.699,7.8-4.199,12.2-4.699c0.3,0.199,0.6,0.3,0.8,0.399c0.5,0.4,1,0.8,1.5,1.101c0.5,0.399,1.2,0.8,1.7,1.199
		c0.3,0,0.6,0,1,0c0,0,0-0.199,0.1-0.3c0,0.3,0,0.4,0,0.601c0.2,0.199,0.4,0.399,0.5,0.5c0.2,0.3,0.4,0.5,0.601,0.699
		c1.1,0,2.199,0,3.3,0c1.1-1.5,2.1-2,3.1-1.5c0,0.2,0,0.301,0,0.5c0,0.2,0,0.5,0,0.601c0.2,0.2,0.4,0.399,0.5,0.5
		c0.5,0.5,1,0.8,1.4,1.1c0.899-0.1,1.8-0.1,2.6-0.1c0.101,0,0.101,0,0.2,0.1c0,0.2,0,0.5,0,0.7c0,0.6,0,1.3,0,2c0,0,0,0.1,0,0.2
		c-0.1,0-0.1,0-0.2,0c-2,0.3-4,0.6-5.8,1.2c-5.8-1.4-11.7-2.101-17.8-2.4c-1.1,1.2-2.4,1.7-3.9,1.5c-4.6-0.8-9.2-1.3-13.8-1.8
		c-0.1,0-0.2,0-0.3,0c-1.8-0.2-3.7-0.4-5.5-0.5c0,0,0,0-0.1,0c-2.2,1.1-4.4,2-6.6,2.899c-0.3,0.101-0.5,0.101-0.7,0.2
		c-0.6,0.9-1.5,1.4-2.4,1.5c-0.9,0.101-1.8,0.2-2.7,0.2c-1.1,0.2-2.2,0.2-3.2,0.3c-0.3,0-0.5,0-0.7,0.101c-0.3-0.2-0.6-0.4-1-0.5
		c-0.8-0.301-1.6-0.7-2.3-1.101c-0.2,0-0.3-0.2-0.5-0.3c-0.5-0.3-1-0.6-1.5-1c-0.3-0.1-0.3-0.2-0.5-0.2c-0.1,0.2-0.2,0.4-0.2,0.5
		c-1.5-0.5-3.1-0.6-4.7-0.5c-0.7,0.5-1.6,1-2.6,1.5c-2,0.8-4,1.4-6.1,2c-0.8-0.3-1.5-0.5-2.3-0.8c-1.8-0.7-3.5-1-4.7-1
		c-1-0.1-2,0.1-2.8,0.5c0.3,0.1,0.5,0.3,0.8,0.5c0.2,0.2,0.4,0.4,0.6,0.6c0.5,0.101,1,0.2,1.5,0.4c2.5,0.7,5,1.3,7.3,2
		c0.3-0.2,0.6-0.2,0.7-0.4c4.1-2.1,8.3-3.1,12.7-3c0.8,0.7,1.7,1.301,2.8,1.7c4.5,2,8.8,1.601,12.8-1.3c0.6-0.1,1.2-0.3,1.8-0.5
		c1.1-0.4,2.2-0.7,3.4-0.9c7-1.199,14-0.399,20.8,2.2c0.8-0.3,1.6-0.8,2.4-1.1c0.6-0.4,1-0.5,1.5-0.601c2.3-0.6,4.5-0.5,6.6,0.2
		c3.9,1.3,7.9,1.7,12,1.4c-0.1-0.101-0.1-0.2-0.1-0.3c2.5,0.3,4.6-0.2,6.2-1.601c0.3-0.3,0.5-0.5,0.699-0.6c0-0.3,0-0.4,0-0.7
		c0-0.2,0-0.5,0.101-0.7c0-0.6,0-1.1-0.101-1.6c-0.1-1-0.399-1.8-0.899-2.5c-0.101-0.101-0.2-0.3-0.3-0.4
		c0.199-0.1,0.3-0.2,0.399-0.399c0,0,0,0,0.101,0c0.699,0,1.399,0,2.199,0c0,0.199,0,0.3,0,0.399c0,0.4,0,0.8,0,1.101
		c0,0.3,0,0.399,0,0.6c0.2,0.2,0.301,0.4,0.5,0.5c0.101,0.3,0.301,0.5,0.601,0.7c1.5,0,3,0,4.5,0c0-0.101,0-0.2,0.1-0.2
		c0.3-0.4,0.5-0.8,0.8-1.1c0-0.101,0-0.101,0-0.101c0.101,0,0.101-0.1,0.2-0.2c0-0.1,0-0.1,0-0.199c0.101,0,0.3,0,0.4,0
		c0.3,0,0.5,0,0.899,0c0,0,0,0,0.101,0c0.1,0,0.1,0,0.1,0s0,0,0,0.1c0.4,0.3,0.8,0.7,1,1.2c0.2,0.3,0.4,0.5,0.5,1
		c0,0,0.101,0.1,0.3,0.1c0.101,0.2,0.2,0.2,0.301,0.4c0.1,0,0.1,0,0.199,0c0,0.2,0,0.5,0,0.6c0.101,0.2,0.101,0.4,0.101,0.5
		c0.2,0.2,0.5,0.5,0.6,0.601c0,0,0,0,0.101,0.1c0.1,0,0.199,0,0.3,0c0.2,0.1,0.6,0.2,0.899,0.3c0.5,0.2,1.101,0.4,1.601,0.5
		c0.1,0,0.1-0.1,0.1-0.3l0,0c0-0.2-0.1-0.3-0.2-0.5c-0.699-0.5-1.3-1-1.8-1.5c0-0.1-0.2-0.2-0.2-0.3c-0.1-0.2-0.1-0.2-0.1-0.4
		c0-0.1,0-0.1,0-0.1c-0.1-0.2-0.1-0.4-0.1-0.5c-0.101-0.2-0.2-0.4-0.2-0.4c-0.3-0.6-0.601-1.1-1-1.6c-1.4-1.5-3.101-1.8-5.4-0.9
		c-0.1,0.101-0.1,0.4-0.1,0.5c-0.2,0.3-0.5,0.5-0.601,0.601c-0.3,0.199-0.6,0.3-0.899,0.399c0,0,0,0-0.101,0
		c-0.8,0.2-1.399-0.1-1.899-0.7c0-0.1,0-0.199,0-0.3c-0.101-0.1-0.101-0.399,0-0.6c-0.101-0.101-0.101-0.2,0-0.3
		c0-0.601-0.101-1.101-0.5-1.7c-0.101,0-0.2,0-0.3,0c-1.2,0-2.5,0-3.7,0c-0.4,0.399-0.7,0.6-0.9,1c-0.2,0.1-0.3,0.2-0.399,0.399
		c-0.301,0.301-0.5,0.7-0.601,1.101c-0.1-0.3-0.399-0.5-0.5-0.8c-0.1-0.101-0.2-0.2-0.399-0.301c0,0-0.101-0.199-0.2-0.3
		c0-0.5,0-1.1,0.1-1.6c-0.1-0.3-0.1-0.4-0.1-0.601c-0.101-0.199-0.4-0.3-0.601-0.5c-0.3-0.199-0.699-0.199-1.1-0.3
		c-1.8,0.601-3.1,1.5-3.9,2.7c-0.399,0-0.8,0-1.1,0c-0.2,0-0.2,0-0.2-0.1c-0.2,0-0.399,0-0.399-0.101c0,0,0-0.1,0.1-0.2
		c1.4-1.899,3.6-3,6.3-3.5c0.101-0.3,0.4-0.399,0.5-0.5c0.5-0.399,0.9-0.6,1.4-0.8c0-0.1,0-0.1-0.101-0.2c0.101,0,0.101,0,0.101,0
		c0.6-0.3,1.2-0.6,1.899-0.8c0.5-0.5,1.101-1,1.601-1.6c1.7-0.9,3.7-1.101,5.6-0.8c0.101-0.101,0.3,0,0.4,0.199
		c0.3,0.301,0.5,0.601,0.7,1.101c0.1,0.1,0.199,0.399,0.3,0.5c0,0.2,0.1,0.399,0.1,0.6c0.101,0.2,0.101,0.4,0.3,0.601
		c1.801,0.8,3.7,1.899,5.5,3.3c0.5,0.399,1,0.7,1.5,1.1c0.2,0.2,0.301,0.3,0.5,0.4c0.101,0.2,0.301,0.399,0.601,0.6
		c0,0,0.1,0,0.1,0.101c0.2,0,0.4,0.1,0.5,0.199c0.101,0,0.2,0,0.3,0.101c1,0,2.101,0,3.101,0h0.1c0.101-0.2,0.2-0.3,0.4-0.4
		c1,0.4,2,0.8,3,1.101c0.7,0.8,1.5,1.5,2.2,2.3c0.6,0.8,1.399,1.3,2.3,1.7c0.1,0.3,0.399,0.699,0.7,1c0,0.1,0,0.1,0,0.3
		c0.199,0,0.399,0.1,0.5,0.1v0.101c0.199,0.1,0.3,0.3,0.5,0.399c0.199,0,0.399,0.2,0.5,0.4c0,0.1,0,0.3,0.1,0.399
		c0.1,0.2,0.2,0.4,0.5,0.601c0.2,0.3,0.3,0.5,0.6,0.6c0.301,0,0.801-0.2,1.2-0.3c0-0.2,0.101-0.3,0.101-0.4
		c0.1-0.199,0.1-0.399,0.199-0.6c-0.6-1.1-1.399-2.2-2.3-3c-0.1,0-0.1,0-0.1-0.2c-0.101,0-0.101-0.1-0.101-0.2
		c-0.5-0.5-1-0.899-1.399-1.399c-0.101,0-0.101,0.1-0.101,0.1s0,0.101,0,0.2c-0.1-0.1-0.1-0.1-0.1-0.2c-1.3-1.1-2.7-2.5-4.1-3.7
		c-0.7-0.1-1.601-0.3-2.301-0.5c-0.199-0.1-0.3-0.199-0.399-0.199c-0.101,0-0.101,0-0.101,0c0-0.101,0-0.101,0-0.101
		c0.101,0,0.101,0,0.101,0c-0.101-0.1-0.101-0.2-0.101-0.2c0-0.1,0-0.1,0-0.1v-0.1v-0.101c0-0.2,0.101-0.399,0.2-0.5
		c0-0.1,0.101-0.2,0.4-0.3c0-0.1,0.1-0.1,0.3-0.1c0.5-0.2,1.1-0.301,1.6-0.301c0.101-0.1,0.2-0.1,0.4,0c2-0.899,3.9-1,5.9-0.3
		c0.199,0,0.3,0,0.399,0c0.3,0,0.5,0,0.601,0c0.199,0.101,0.3,0.101,0.3,0.101c0.399,0.199,0.7,0.3,1.1,0.399
		c0.3,0.101,0.5,0.3,0.8,0.5c0.5-1,1.101-1.8,1.7-2.5c0.3-0.399,0.5-0.6,0.8-0.8c0-0.1,0-0.1,0-0.1c0-0.101,0-0.2,0-0.301
		c1-1.1,2-2,2.9-2.899c0.8-0.601,1.5-1.3,2.2-1.8c2.6-1.7,5.2-2.601,8-2.801c1-0.199,1.899-0.199,2.899-0.199
		c2.2,0.1,4.7,0.5,7.301,1.5c0.899,0.8,1.8,1.5,2.8,2.199c0.399,0.301,0.7,0.601,1,1.101c0,0.1,0,0.2,0,0.399c0,0.2,0,0.5,0,0.7
		c0,0,0,0,0,0.101c-0.601-0.301-1.3-0.7-2-0.801c-0.5-0.199-1.101-0.3-1.601-0.399c-0.3-0.101-0.699-0.3-0.899-0.3
		c-0.101-0.101-0.101-0.101-0.101-0.2v-0.101c-0.1-0.199-0.3-0.399-0.3-0.5c-0.5-0.199-1.1,0-1.5,0c-1,0.101-2,0.2-2.899,0.4
		c-0.2,0.1-0.4,0.2-0.5,0.7c-1.5,0-2.9,0.1-4.301,0.5c-1.199,0.399-1.899,1.1-2.399,2.2c0,0.399,0,0.699,0,1.1c0,0.3,0,0.7,0,1.2
		c0,0.1,0,0.3,0,0.5c0.1,0.1,0.2,0.399,0.399,0.6c0.101,0.2,0.101,0.4,0.101,0.5c-0.2,0.101-0.4,0.3-0.5,0.4l-0.101-0.101
		c-0.1-0.3-0.3-0.5-0.399-0.699c-2.3-0.7-4.4-0.301-6.3,1c0,0.199,0,0.399,0,0.5c0,0.3,0,0.399-0.101,0.699
		c0,0.101-0.1,0.301-0.1,0.5c-0.3,0.2-0.4,0.4-0.5,0.601c0,0.399,0,0.7,0,1.1c0,0.4,0,0.8,0,1.101c0,0.1,0,0.199,0,0.3
		c0,0.1,0,0.1,0,0.3c-0.101,0-0.2,0.1-0.2,0.2c-0.2,0.1-0.3,0.3-0.3,0.399c-0.2,0.4-0.4,0.7-0.5,1.101c0,0.1,0,0.3,0,0.5
		c0.2,0.1,0.6,0.3,1,0.3c0,0,0,0,0.1,0.1c0.101,0,0.4,0,0.601,0.101c0.199,0,0.3,0,0.5,0c0.1-0.4,0.1-0.7,0.199-1
		c0.101-0.9,0.101-1.9,0-2.8c-0.1-0.7,0.2-1.2,0.601-1.7c0.3-0.101,0.6-0.3,1-0.4c0,0,0.1,0,0.399-0.1
		c0-0.101,0.101-0.101,0.101-0.2s0-0.2,0-0.3c0.1-0.101,0.1-0.4,0.1-0.5c0.8,0,1.601,0,2.4,0v0.1c-0.101,0.3-0.101,0.4-0.2,0.601
		c-0.1,0.199-0.1,0.399,0,0.5c0.1,0.3,0.2,0.399,0.3,0.699c0.9,0,1.601,0,2.5,0c0.2-0.3,0.4-0.399,0.5-0.6c0-0.1,0-0.1,0.101-0.1
		c0,0,0-0.101,0.1-0.101s0.1-0.1,0.2-0.2c-0.4-1.5-0.5-3-0.4-4.6c-0.1-0.1-0.1-0.1-0.1-0.2c0-0.1-0.101-0.2,0-0.399
		c0-0.101,0-0.2,0.1-0.2v-0.101c0-0.1,0-0.199,0.101-0.3c0-0.1,0.1-0.2,0.3-0.2c0-0.199,0-0.3,0-0.399c0,0,0-0.101,0.1-0.101
		c0-0.199,0-0.3,0.101-0.399c0.199,0,0.3,0,0.3,0c0.1,0,0.2,0,0.399,0l0,0c0.2-0.101,0.301-0.101,0.5-0.101v-0.1
		c0.2,0,0.601,0.1,0.801,0.2c0.699,0.1,1.3,0.1,1.899,0.1c0.2,0.2,0.4,0.4,0.4,0.601c0.1,0.3,0.2,0.399,0.2,0.5
		c0,0.1,0.199,0.1,0.199,0.199c-0.3,0.5-0.5,1.101-0.899,1.601c0,0.1,0,0.3,0,0.5c0,0.7,0,1.5,0,2.2c0.1,0.3,0.399,0.399,0.5,0.699
		c0,0.101,0.1,0.301,0.2,0.5c0,0.2,0,0.4,0,0.601c0.899,1.2,1.8,2.6,2.699,4c1.101,0.3,2.2,0.8,3.2,1.5c0.101,0,0.3,0.1,0.3,0.1
		c2.2,0.5,3.601-0.1,4.5-1.6c-0.199-0.2-0.399-0.4-0.5-0.7c-0.399,0-0.8-0.1-1.199-0.2c-0.601,0.2-1.301,0.5-2.101,0.7
		c-1.399-0.8-2.7-1.5-3.899-2.3c-0.301-0.9-0.801-1.601-1.5-2.3c0-0.2,0-0.301,0-0.601c0-0.1,0-0.3,0-0.5
		c-0.301-0.399-0.601-0.7-0.7-1.1c0-0.2,0-0.4,0-0.601c-0.101-0.399-0.3-0.8-0.3-1.1c0.3-0.3,0.399-0.4,0.6-0.7
		c0.7-1.2,1.3-2.5,1.7-3.7c0.3,0,0.6,0,1,0c0,0,0,0,0.1,0c0.101,0.101,0.101,0.301,0.3,0.4c0.2,0.2,0.301,0.4,0.5,0.7
		c0.9,0.1,1.801,0.399,2.7,0.7c0.4,0.199,0.8,0.399,1.3,0.699c0.801,0.101,1.7,0.101,2.601-0.199c0.2-0.101,0.5-0.301,0.7-0.601
		c0-0.2,0-0.3-0.101-0.5c-0.1-0.2-0.1-0.399-0.2-0.5c-0.199-0.2-0.3-0.5-0.399-0.7c0-0.199,0-0.3,0-0.399c0-0.3,0-0.5,0-0.601
		c-0.5-0.899-1.2-1.6-2-2.199c-1.101-0.7-2-1.5-2.9-2.301c-0.6-0.3-1.1-0.399-1.6-0.6c-1.8-0.8-3.601-1.2-5.5-1.2
		c-6.5,0.3-12,2.601-16.5,7.3c3-8.399,6.7-16.6,11.399-24.5c5.601-9.8,12.4-18.3,20.5-25.7c0-0.3,0.101-0.7,0-1.1
		c0-0.4-0.1-0.7-0.3-1c-0.2-0.2-0.6-0.4-0.899-0.4c-0.2-0.1-0.5-0.1-0.7-0.1c-15.8,7.6-32.101,13.3-49.101,16.9
		c0.2-3.2-0.1-6.4-1-9.4c-0.3-0.8-0.399-1.5-0.699-2.2c-0.2-0.2-0.4-0.3-0.601-0.4c-2.1-1.4-4.5-2.4-6.899-2.9
		c0.3-1.6,0.3-3.3,0-4.9c0.5-5.3,0.8-10.8,0.699-16.2c0.101-1.1,0.101-2.3,0.101-3.3c0-0.7,0-1.2-0.3-1.7c0-0.1,0-0.2,0-0.3
		s-0.101-0.1-0.101-0.2c-0.2-0.3-0.399-0.6-0.5-0.8c0-0.1,0.101-0.1,0.101-0.1c0-0.2-0.101-0.3-0.2-0.4c-0.9-0.4-1.7-0.7-2.5-1
		c0.6-1,1.2-2.1,1.899-3.2c0.301-0.5,0.7-1,1.2-1.6c0-0.4,0-0.8-0.1-1.2c-0.101-1.1-0.601-2.1-1.5-2.8c-0.4-0.4-0.8-0.8-1-1.1
		c-2.5-0.7-5-1.2-7.5-1.5c-0.4-0.8-1-1.6-1.601-2.2c-1.5-1.5-3.3-2.5-5.199-3.2c-1.301-0.5-2.601-0.6-3.7-0.1c0-0.1,0-0.1-0.101-0.1
		c-2.899,0.8-5.399,2.5-7.1,5.2c0,0.1,0,0.1,0,0.2c-0.5,0.3-0.9,0.5-1.4,0.8c-0.4-0.4-0.8-0.8-1.1-1.1c-0.5-0.4-1-1-1.2-1.7
		c-0.1-0.2-0.3-0.5-0.3-0.6c-0.4-0.2-0.7-0.4-1-0.6c-3.5-2.5-7.3-3.7-11.5-3.5c0,0,0,0.1-0.2,0.1c-1.5,0.4-2.6,1.2-3.6,2.5
		c-0.2,0.3-0.4,0.6-0.5,1C50.5,2.421,44.6,5.122,41.3,11.821z M44.3,9.521c0-0.2,0.2-0.4,0.3-0.5c1-0.7,2-1.2,3-1.7
		c4-1.8,8.2-2.6,12.4-2.1c0.2-0.4,0.5-0.6,0.8-1c3.3-3,7.3-3.1,11.8-0.3c1.2,1,2.2,2.1,3,3.3c1,1.8,2.5,2.5,4.5,2.3
		c0.8-1.3,1.6-2.6,2.5-3.8c0.3-0.6,0.8-1,1.3-1.2c5.5-2.2,9.8-0.7,12.601,4.2c1.8,0.2,3.6,0.4,5.399,0.9c1.9,0.4,3.2,1.5,4,3.4
		c-0.2,0.3-0.3,0.7-0.399,1.1c-0.101,0.7-0.5,1.3-1.101,1.7c-0.1,0.2-0.399,0.3-0.5,0.5c-0.1,0.4-0.2,0.8-0.399,1.1
		c-0.101,0.2-0.2,0.4-0.2,0.7c-1.2-0.3-2.4-0.4-3.5-0.4c-0.101-0.5-0.3-1-0.5-1.5c0.5-0.4,0.899-0.8,1.399-1.2
		c-0.199-0.2-0.399-0.4-0.5-0.4c-0.3-0.2-0.699-0.3-1-0.3c-0.3,0-0.5,0.2-0.8,0.3c-0.399,0.2-0.7,0.4-1.1,0.6
		c-0.4,0.6-0.7,1.1-1.2,1.6c-0.2,0.2-0.3,0.3-0.6,0.4c-0.301,0-0.7,0-1.101-0.1l0,0c0.101-0.7,0.101-1.4,0-2c0-0.3-0.1-0.5-0.2-0.6
		c-0.899-0.1-1.699-0.2-2.6-0.2c-0.4,0.2-0.8,0.4-1.4,0.8c-0.6,0.3-1.199,0.6-1.6,1c0,0.4,0,0.7,0,1.1c0,0.2,0,0.5,0,0.6
		c-0.8-0.1-1.5-0.1-2.3-0.1c0,0,0,0-0.101-0.1c-0.399-0.2-0.8-0.4-1.1-0.5c-0.1,0-0.2,0-0.2,0c-0.1,0-0.1,0-0.2,0.1
		c-0.1,0.1-0.3,0.3-0.399,0.5c0,0,0,0,0,0.1l0,0c-0.5,0.4-1,0.9-1.2,1.6c0,0.2-0.1,0.3-0.2,0.4c-0.2,0.2-0.5,0.4-0.7,0.5
		c-0.1,0.1-0.1,0.1-0.1,0.2s0,0.1,0,0.1c-0.3,0.1-0.7,0-1-0.2c-0.2-0.7-0.3-1.4-0.4-2.2c0.1-0.1,0.1-0.1,0.2-0.1v-0.1
		c0.2-0.3,0.4-0.4,0.7-0.6c0-0.2,0-0.3,0-0.4s0-0.2,0-0.3c0,0,0,0-0.2,0c-0.1-0.2-0.2-0.4-0.4-0.5c-0.1,0.1-0.2,0.1-0.3,0.1
		c-0.6,0.3-1.1,0.7-1.4,1.2c-0.9-0.2-1.5-0.2-2,0c0-0.2,0-0.3,0-0.4c0-0.1,0-0.2-0.1-0.3c-0.3-0.5-0.6-0.8-1.1-0.8
		c-0.2,0-0.5,0.1-0.6,0.2c-0.1,0.1-0.1,0.3,0,0.5c0.4,1.4,0.1,2.6-0.9,3.8c-1.4,1-3,1.5-4.8,1.2c-0.1,0-0.2-0.1-0.3-0.2
		c-0.2-0.2-0.3-0.4-0.4-0.8c0-0.5-0.4-0.7-1.2-0.7c-0.1,0-0.1,0.1-0.1,0.1c-0.2,0.1-0.2,0.2-0.2,0.4c-1.4,1.3-3,1.8-4.8,1.2
		c-0.1,0-0.1-0.1-0.2-0.2c0,0,0-0.1,0-0.2c0-0.7,0-1.5,0-2.1c0-0.1,0-0.1-0.1-0.1s-0.1-0.2-0.1-0.3c-0.1-0.1-0.1-0.1-0.2-0.3
		c-0.1-0.1-0.3-0.1-0.3-0.2c-0.3,0.1-0.6,0.2-1,0.4c0,0,0,0-0.1,0.1c-0.1,0-0.1,0-0.2,0.1c-1.5,1.2-3.3,1.7-5.2,1.4
		c0-0.5,0-1.1,0-1.6c0-0.1,0-0.4,0-0.6c0.4-0.1,0.8-0.4,1.2-0.8c0.2-0.1,0.3-0.2,0.5-0.4c-0.2-0.2-0.3-0.3-0.5-0.5
		c0-0.1,0.2-0.1,0.3-0.2c-0.1,0-0.3-0.1-0.3-0.1c-0.3-0.1-0.5-0.1-0.7-0.2c-0.4,0.2-0.8,0.6-1.2,1.1c-1.1,1.1-1.3,2.3-0.8,3.7
		c0.1,0.3,0.2,0.4,0.4,0.5c0.1,0.1,0.2,0.3,0.3,0.4c0.2,0.1,0.3,0.4,0.5,0.5c0.8,0,1.5,0.1,2.1,0c-0.3,0.4-0.6,0.6-1,0.8
		c-2.6,1.7-5.3,1.7-8.2,0c-0.1-0.2-0.1-0.4-0.2-0.6c0-0.2-0.2-0.3-0.4-0.6c-0.1-0.1-0.3-0.3-0.5-0.5c-0.2,0-0.5,0-0.8,0
		c-0.8,0.9-1.5,1.7-2.2,2.6c-1.6,2.2-4,2.5-6.8,1.2c-0.2-0.4-0.4-0.8-0.5-1.2c-0.4-0.5-0.7-1.1-1-1.7c0-0.1-0.2-0.4-0.3-0.5
		c0-0.2,0-0.4,0-0.6c0-0.2,0-0.4,0-0.6s0-0.4,0-0.6c0.1-0.1,0.2-0.3,0.3-0.5c0.5-1.2,1.4-2.2,2.5-2.9c0.6-0.3,1.2-0.6,1.7-0.9
		c0.4-0.1,0.8-0.3,1.3-0.3c0,0,0,0,0.2,0.1c0.1,0.2,0.5,0.3,0.8,0.5c0.2,0.2,0.5,0.3,0.8,0.5c0.5,0,1.1-0.1,1.7-0.2
		c0.1,0,0.3-0.1,0.4-0.3c-0.2-0.4-0.4-0.7-0.7-1.1c-0.5-0.6-0.9-1.1-1.2-1.7c0-0.3-0.2-0.4-0.3-0.7c0.3-0.3,0.5-0.7,0.6-1.2
		C43.8,10.622,43.9,10.122,44.3,9.521z M90.4,16.821c1.4-1,2.2-1.1,2.7-0.1c0.1,0.4,0.2,0.7,0.2,1.1c0.1,0.2,0.1,0.3,0.1,0.5
		c0.5,0.3,0.8,0.5,1.101,0.8c0.199,0,0.3,0,0.399,0.1c0.2-0.2,0.5-0.5,0.8-0.7c0.2,0.2,0.5,0.3,0.601,0.5c0.1-0.2,0.2-0.3,0.399-0.4
		c0.5-0.5,1-0.9,1.4-1.4c0,0.3,0.1,0.5,0.1,0.8c-0.8,0.1-1.3,0.7-1.699,1.3c0.399,0.7,0.399,1.4,0.199,2.4c-1,3.2-1.699,6.3-2,9.5
		c-0.199,0.8-0.399,1.5-0.5,2.4c0,0.1,0,0.2,0,0.5c0,0,0,0-0.1,0.1c-0.1,0.4-0.1,0.8-0.2,1.2c0,1.8-0.3,3.7-0.8,5.4
		c0,0.2,0,0.4,0,0.6c-0.2,1.1-0.3,2.3-0.4,3.4c-0.1,0.7-0.199,1.3-0.399,1.9c0,0.1,0,0.1,0,0.2s0,0.2,0,0.2c-0.7,0-1.4,0.1-2.2,0.1
		l0,0c0-0.1,0-0.1,0-0.2s0.1-0.2,0.1-0.2c0-0.7,0.101-1.2,0.301-1.7c0-0.1,0-0.3,0-0.4c-0.101-0.1-0.101-0.4-0.101-0.6
		c0.4-0.7,0.601-1.4,0.601-2.4c0-5.2-0.101-10.5-0.101-15.6c0-0.1,0-0.1-0.1-0.1c-0.101-0.2-0.3-0.3-0.4-0.3c0-0.3,0-0.5,0.101-0.7
		H90.4c-1.1-0.3-2.1-0.6-2.899-1c-0.2-0.2-0.4-0.2-0.601-0.3c0.2-0.7,0.3-1.6,0.2-2.3c0.1-0.2,0.2-0.4,0.4-0.5
		c0.399-0.6,0.699-1,0.8-1.5c0.2-0.2,0.6-0.3,0.899-0.5c0.2-0.4,0.601-0.8,0.801-1.2c0-0.1,0.1-0.3,0.1-0.5
		C90.2,17.122,90.2,16.921,90.4,16.821z M79.6,20.521c0,0.1,0.2,0.2,0.2,0.2c0,0.1,0,0.3,0,0.3c0.1,0.2,0.2,0.4,0.3,0.6
		c0.2,0.1,0.5,0.4,0.6,0.5c0.4,0,0.9,0,1.4,0c0-0.1,0.2-0.3,0.3-0.4c0.4,0,0.7-0.2,1-0.5c0,0.6,0,1.3,0.2,1.9c-0.1,0-0.2,0-0.3,0
		c0,0,0,0,0,0.1c-0.2,0-0.3,0-0.5,0.1c0,0-0.1,0.1-0.2,0.2c-0.2,0.1-0.3,0.2-0.4,0.3c-0.1,0.2-0.4,0.4-0.6,0.5c0,0.3,0,0.4,0,0.7
		c0,0.1,0,0.3,0,0.5c0,0.2,0,0.5,0,0.6c-0.3,0.2-0.4,0.3-0.6,0.5c0,0.2-0.1,0.6-0.2,1c-0.1,0.1-0.1,0.2-0.2,0.2
		c-0.3,1.4-0.5,2.8-0.7,4.2c-0.4,3.6-0.8,7.1-1.3,10.7c0,0.8,0,1.6,0.1,2.4c0,1.2-0.1,2.5-0.2,3.7c-2.2,0.4-4.3,0.9-6.4,1.3
		c0-0.7,0-1.4,0-2.1l0,0c0-2.2,0-4.2,0-6.3v-0.1c-0.1-1.4-0.1-2.7,0-3.9c0.1-1,0.2-1.9,0.5-2.8c-0.2-0.9-0.2-1.8-0.1-2.8
		c-0.1-0.1-0.2-0.1-0.2-0.2c0-0.2-0.1-0.3-0.2-0.4c-0.1-0.4-0.2-0.5-0.5-0.7c-0.2-0.1-0.4-0.1-0.7-0.1c0-0.2,0-0.5,0.2-0.7
		c0-1.1,0-2.3,0-3.3c0.2-0.2,0.3-0.4,0.3-0.6c0.2-0.1,0.2-0.4,0.5-0.6c0-0.2,0-0.4,0-0.5c0-0.3,0-0.4,0-0.7c0-0.1,0.2-0.2,0.4-0.4
		c0-0.1,0.2-0.2,0.3-0.3c0.2,0,0.4,0,0.6,0c0.4-0.6,1-1.1,1.7-1.5c1.2-0.8,2-1.9,2.2-3.2c0.3-0.1,0.7-0.1,1-0.1c0.4,0,0.8,0,1.4,0
		c-0.1,0.6-0.1,1-0.1,1.5C79.5,20.321,79.5,20.421,79.6,20.521z M71.1,23.521c-0.2,0.1-0.3,0.2-0.3,0.3c0,0.2,0,0.4,0,0.5
		c-0.1,0.4-0.2,0.8-0.2,1.2c-0.2,0.2-0.5,0.5-0.6,0.6c0,0.4,0,0.7,0.1,1.1c0,0.9,0,1.9-0.2,2.8c-0.3,0.2-0.4,0.5-0.5,0.7l0,0
		c-0.7,0-1.5-0.1-2.2-0.2c0.1-0.2,0.2-0.4,0.4-0.5c0-0.2,0-0.3,0-0.5c0.2-1.5,0.2-3,0-4.5c-0.2-0.3-0.5-0.4-0.7-0.7
		c0-0.1,0-0.3,0-0.5c0-0.1,0-0.3,0-0.5C68.3,23.421,69.6,23.521,71.1,23.521z M64.8,32.921c1.8-0.1,3.7-0.2,5.6-0.2
		c0,0,0.1,0.1,0.2,0.2c-0.2,2.2-0.2,4.4-0.2,7.1c0.1,1.7,0.1,3.6,0,5.3c0,0.4,0,0.7,0,1c0,0.3,0,0.5,0,0.8c-0.1,1.1-0.2,2.2-0.3,3.4
		v0.1c-3.5,0.9-7,1.9-10.3,3c0.1-0.7,0.2-1.4,0.3-2.1c0.2-0.8,0.5-1.7,0.7-2.5h-0.1c0.1-0.3,0.2-0.7,0.2-1l0.1-0.6
		c-0.1-0.2-0.1-0.3-0.1-0.4s0-0.2,0-0.2c0-0.1,0-0.1,0-0.2c0-0.6,0.2-1.3,0.4-1.9c0-0.1,0-0.1,0-0.2c0-0.2,0-0.2,0.1-0.2
		c0-0.1,0-0.2,0.1-0.2c0-0.1,0-0.1-0.1-0.3l0,0c0.1-0.6,0.2-1.1,0.4-1.7c0.6-2.8,1.3-5.6,2.1-8.4c0.1-0.1,0.2-0.2,0.3-0.3
		C64.3,33.221,64.6,33.122,64.8,32.921z M81.6,37.521c0-0.3,0-0.6,0-0.9c0.4-3.4,1-6.8,1.7-10l0,0c0.1-0.4,0.3-0.8,0.3-1.1
		c0.3-0.1,0.6-0.2,0.9-0.4c0.3-0.3,0.6-0.4,1.1-0.4l0,0c0.2,0,0.5,0.2,0.6,0.4c0.101,0,0.101,0,0.2,0.1c1.8,0.3,2.9,1.5,3,3.2
		c0,0.5,0,0.9,0,1.3c0.101,0.8,0,1.4-0.3,1.9c-0.1,1.1-0.1,2.1,0,3.2c0,0.3,0,0.5,0.1,0.8c0,0.7,0,1.4,0,2.1
		c-0.1,0.8-0.199,1.4-0.199,2.2c-0.101,0.7-0.101,1.3-0.2,1.9c-0.2,0.9-0.5,1.9-0.601,2.8c-0.1,1-0.3,1.9-0.3,2.9
		c-2.5,0.2-4.8,0.5-7.1,1c0.1-0.2,0.1-0.3,0.1-0.4c-0.1-0.5-0.3-1-0.3-1.4c0.3-1,0.3-1.9,0.4-2.9c0-0.2,0-0.6,0-0.9
		c0-0.1,0-0.2,0.1-0.3c0-0.1,0-0.3,0-0.4v-0.5c0-0.7,0.1-1.5,0.2-2.2c0-0.2,0-0.3,0-0.4C81.3,38.622,81.4,38.021,81.6,37.521z
		 M102.5,20.622c0.8,0.1,1.5,0.1,2.3,0.1c0.2,0.4,0.6,0.7,1,0.8c0.1,3.7,0,7.5-0.101,11.2c0,0,0,0,0,0.1c-0.1,0.9-0.1,1.7-0.1,2.4
		c-0.1,0.8-0.2,1.5-0.2,2.1c0,0.8-0.1,1.6-0.1,2.5c-0.2,2.3-0.4,4.6-0.7,6.9c-2.3-0.2-4.6-0.2-7,0c-0.6,0-1,0-1.5,0.1
		c-0.2,0.1-0.2,0.3-0.4,0.3c-0.199,0-0.399-0.1-0.5-0.3H95c0,0,0,0,0-0.1c-0.101,0-0.101-0.1-0.2-0.2c-0.101-2.5,0-4.9,0.2-7.4
		c0-0.5,0-1,0.1-1.4c0.1-1,0.2-1.7,0.4-2.5c0-0.7,0.199-1.4,0.399-2.1c0-0.4,0.101-0.8,0.2-1.1c0.1-0.3,0.1-0.5,0.1-0.8
		c0.7-3.4,1.601-6.9,2.5-10.2c0.101-0.2,0.101-0.3,0.101-0.4c0,0,0,0-0.101-0.1c-0.199,0.2-0.3,0.2-0.399,0.5
		c0.1-0.3,0.1-0.5,0.1-0.7c0.101-0.1,0.101-0.2,0.101-0.2C99.9,20.021,101.3,20.122,102.5,20.622z M85.4,18.721
		c0.4,0.4,0.7,0.5,1.2,0.7c-0.5,0.4-0.8,0.9-1,1.6c0,0.2,0,0.4,0,0.6c0,0.4,0,0.7,0,1.1c-0.2,0.1-0.3,0.4-0.3,0.5
		c-0.3,0-0.5-0.1-0.7-0.1c0-1,0-2.1-0.3-3.2c0.1-0.1,0.2-0.1,0.3-0.2C84.9,19.421,85.1,19.122,85.4,18.721z M159.8,51.021
		c0,0.1-0.101,0.1-0.2,0.2c-5.5,7.5-10.7,15.2-15.6,23.3c-0.9,1.5-1.7,3.101-2.7,4.601c-1.2,2.1-2.4,4.3-3.5,6.6
		c-2.8,5.101-4.9,10.5-6.5,16c-2.601-0.8-5.3-1-8-0.5c-1.9,0.2-3.4,1.101-4.601,2.601c-3.199,0.5-5.8-0.2-7.899-2.101
		c-1.9-1.6-3.7-3.399-5.3-5.5c-2.2-0.5-4.301-0.3-6.301,0.7c-1,0.4-1.899,0.9-2.899,1.4c-1.3,0.5-2.3,0.5-3.2,0
		c-4.8-3.2-10.3-4.601-16.5-3.801c-0.7,0.301-1.3,0.7-1.8,1.5c-3.7,4-7.7,5-12.5,2.7c-0.7-0.3-1.4-0.6-2.2-0.899
		c-5.2-1.801-9.8-2.101-14-0.601c-0.3-0.6-0.7-1.2-1-1.7c-0.8-1.399-1.5-2.8-2-4.3c-1-2.7-2-5.399-2.8-8.1
		c-1.4-3.9-3-7.601-4.9-11.101c-0.1-0.199-0.1-0.399-0.1-0.6c7.6-0.3,14.8-0.5,22-0.6c14.8,0,29.5-1.101,44.1-3.2
		c5.5-0.9,10.9-1.9,16.2-3.4c14.1-3.7,28.1-8.2,41.8-13.1L159.8,51.021z M111.9,52.221c0,0.4,0.101,0.7,0.3,1.1
		c0.9,2.9,1.301,5.9,1.2,9.1c0,0.1,0,0.2,0,0.3c-8.5,1.601-17.399,2.9-26.3,3.601c-10.3,0.8-20.6,1.399-30.8,1.8c-0.4,0-0.8,0-1.2,0
		c-0.2,0-0.4,0-0.6,0c0.1,0,0.1-0.101,0.1-0.2c-0.1-0.1-0.2-0.1-0.3-0.2c-0.1-0.5-0.2-1-0.1-1.6c0.1-0.101,0.1-0.4,0.3-0.5
		c-0.1-0.5,0-0.9,0.1-1.3c0-0.101,0-0.101,0-0.101c0.2-1.3,0.5-2.5,0.8-3.899c0.2-0.7,0.5-1.4,0.8-2.101c0.1-0.4,0.3-0.7,0.4-1.1
		c8.5-3.4,17.3-5.4,26.5-5.9c1.6-0.1,3.1-0.4,4.7-0.6C96.2,48.721,104.3,49.221,111.9,52.221z"/>
	<path fill="#96D5D2" d="M44.6,9.021c-0.1,0.1-0.3,0.3-0.3,0.5c-0.4,0.6-0.5,1.1-0.9,1.6c-0.1,0.5-0.3,0.9-0.6,1.2
		c0.1,0.3,0.3,0.4,0.3,0.7c0.3,0.6,0.7,1.1,1.2,1.7c0.3,0.4,0.5,0.7,0.7,1.1c-0.1,0.2-0.3,0.3-0.4,0.3c-0.6,0.1-1.2,0.2-1.7,0.2
		c-0.3-0.2-0.6-0.3-0.8-0.5c-0.3-0.2-0.7-0.3-0.8-0.5c-0.2-0.1-0.2-0.1-0.2-0.1c-0.5,0-0.9,0.2-1.3,0.3c-0.5,0.3-1.1,0.6-1.7,0.9
		c-1.1,0.7-2,1.7-2.5,2.9c-0.1,0.2-0.2,0.4-0.3,0.5c0,0.2,0,0.4,0,0.6s0,0.4,0,0.6c0,0.2,0,0.4,0,0.6c0.1,0.1,0.3,0.4,0.3,0.5
		c0.3,0.6,0.6,1.2,1,1.7c0.1,0.4,0.3,0.8,0.5,1.2c2.8,1.3,5.2,1,6.8-1.2c0.7-0.9,1.4-1.7,2.2-2.6c0.3,0,0.6,0,0.8,0
		c0.2,0.2,0.4,0.4,0.5,0.5c0.2,0.3,0.4,0.4,0.4,0.6c0.1,0.2,0.1,0.4,0.2,0.6c2.9,1.7,5.6,1.7,8.2,0c0.4-0.2,0.7-0.4,1-0.8
		c-0.6,0.1-1.3,0-2.1,0c-0.2-0.1-0.3-0.4-0.5-0.5c-0.1-0.1-0.2-0.3-0.3-0.4c-0.2-0.1-0.3-0.2-0.4-0.5c-0.5-1.4-0.3-2.6,0.8-3.7
		c0.4-0.5,0.8-0.9,1.2-1.1c0.2,0.1,0.4,0.1,0.7,0.2c0,0,0.2,0.1,0.3,0.1c-0.1,0.1-0.3,0.1-0.3,0.2c0.2,0.2,0.3,0.3,0.5,0.5
		c-0.2,0.2-0.3,0.3-0.5,0.4c-0.4,0.4-0.8,0.7-1.2,0.8c0,0.2,0,0.5,0,0.6c0,0.5,0,1.1,0,1.6c1.9,0.3,3.7-0.2,5.2-1.4
		c0.1-0.1,0.1-0.1,0.2-0.1c0.1-0.1,0.1-0.1,0.1-0.1c0.4-0.2,0.7-0.3,1-0.4c0,0.1,0.2,0.1,0.3,0.2c0.1,0.2,0.1,0.2,0.2,0.3
		c0,0.1,0,0.3,0.1,0.3s0.1,0,0.1,0.1c0,0.6,0,1.4,0,2.1c0,0.1,0,0.2,0,0.2c0.1,0.1,0.1,0.2,0.2,0.2c1.8,0.6,3.4,0.1,4.8-1.2
		c0-0.2,0-0.3,0.2-0.4c0,0,0-0.1,0.1-0.1c0.8,0,1.2,0.2,1.2,0.7c0.1,0.4,0.2,0.6,0.4,0.8c0.1,0.1,0.2,0.2,0.3,0.2
		c1.8,0.3,3.4-0.2,4.8-1.2c1-1.2,1.3-2.4,0.9-3.8c-0.1-0.2-0.1-0.4,0-0.5c0.1-0.1,0.4-0.2,0.6-0.2c0.5,0,0.8,0.3,1.1,0.8
		c0.1,0.1,0.1,0.2,0.1,0.3c0,0.1,0,0.2,0,0.4c0.5-0.2,1.1-0.2,2,0c0.3-0.5,0.8-0.9,1.4-1.2c0.1,0,0.2,0,0.3-0.1
		c0.2,0.1,0.3,0.3,0.4,0.5c0.2,0,0.2,0,0.2,0c0,0.1,0,0.2,0,0.3s0,0.2,0,0.4c-0.3,0.2-0.5,0.3-0.7,0.6v0.1l-0.2,0.1
		c0.1,0.8,0.2,1.5,0.4,2.2c0.3,0.2,0.7,0.3,1,0.2c0,0,0,0,0-0.1s0-0.1,0.1-0.2c0.2-0.1,0.5-0.3,0.7-0.5c0.1-0.1,0.2-0.2,0.2-0.4
		c0.2-0.7,0.7-1.2,1.2-1.6v-0.1c0.1-0.2,0.3-0.4,0.399-0.5c0.101-0.1,0.101-0.1,0.2-0.1c0,0,0.101,0,0.2,0c0.3,0.1,0.7,0.3,1.1,0.5
		c0.101,0.1,0.101,0.1,0.101,0.1c0.8,0,1.5,0,2.3,0.1c0-0.1,0-0.4,0-0.6c0-0.4,0-0.7,0-1.1c0.4-0.4,1-0.7,1.6-1
		c0.601-0.4,1-0.6,1.4-0.8c0.9,0,1.7,0.1,2.6,0.2c0.101,0.1,0.2,0.3,0.2,0.6c0.101,0.6,0.101,1.3,0,2l0,0c0.4,0.1,0.8,0.1,1.101,0.1
		c0.3-0.1,0.399-0.2,0.6-0.4c0.5-0.5,0.8-1,1.2-1.6c0.399-0.2,0.7-0.4,1.1-0.6c0.3-0.1,0.5-0.3,0.8-0.3c0.301,0,0.7,0.1,1,0.3
		c0.101,0,0.301,0.2,0.5,0.4c-0.5,0.4-0.899,0.8-1.399,1.2c0.2,0.5,0.399,1,0.5,1.5c1.1,0,2.3,0.1,3.5,0.4c0-0.3,0.1-0.5,0.2-0.7
		c0.199-0.3,0.3-0.7,0.399-1.1c0.101-0.2,0.4-0.3,0.5-0.5c0.601-0.4,1-1,1.101-1.7c0.1-0.4,0.199-0.8,0.399-1.1
		c-0.8-1.9-2.1-3-4-3.4c-1.8-0.5-3.6-0.7-5.399-0.9c-2.801-4.9-7.101-6.4-12.601-4.2c-0.5,0.2-1,0.6-1.3,1.2
		c-0.9,1.2-1.7,2.5-2.5,3.8c-2,0.2-3.5-0.5-4.5-2.3c-0.8-1.2-1.8-2.3-3-3.3c-4.5-2.8-8.5-2.7-11.8,0.3c-0.3,0.4-0.6,0.6-0.8,1
		c-4.2-0.5-8.4,0.3-12.4,2.1C46.6,7.821,45.6,8.321,44.6,9.021z M38.3,17.221c0.3-0.5,0.8-0.6,1.2-0.7c1-0.2,1.8,0.2,2.3,1
		c0,0,0,0.1,0.1,0.2c0,0.4-0.2,0.8-0.6,1c-0.3,0.2-0.7,0.4-1,0.5c-0.2,0.3-0.4,0.6-0.4,0.9c-0.3,0.3-0.5,0.6-0.8,0.9
		c0,0,0,0.1,0,0.2v0.1c0,0.1-0.2,0.2-0.2,0.3c-0.1,0.1-0.2,0.1-0.3,0.1c-0.2,0-0.3,0-0.4-0.1c-0.1-0.1-0.1-0.2-0.2-0.3v-0.1
		c-0.1-0.1-0.1-0.2-0.1-0.2C37.1,19.721,37.3,18.421,38.3,17.221z M44.7,11.821c0-0.3,0-0.6,0-0.9c1.7-2.7,4.2-4.4,7.6-4.9
		c0.3,0.1,0.7,0.1,1.1,0.1c0.1,0,0.2,0,0.4-0.1c0.1,0.1,0.2,0.1,0.3,0.1c0,0.1,0,0.2,0.1,0.3s0.1,0.2,0.1,0.2
		c-0.1,0.1-0.2,0.3-0.2,0.5c-2.2,1.5-4.2,3-6.3,4.5c-0.2,0.1-0.4,0.2-0.5,0.4c0,0.2-0.1,0.6-0.2,0.8c0,0.3-0.2,0.6-0.2,0.9
		c-0.7,0.6-1.3,0.6-2-0.1C44.8,13.021,44.6,12.421,44.7,11.821z M89.5,7.721c-0.101-0.1-0.2-0.1-0.2-0.1c-0.101,0-0.101,0-0.2,0
		c-1.9,0.2-3.8,0.9-5.3,2c-0.2,0.2-0.4,0.6-0.6,0.9c-0.2,0.3-0.5,0.5-0.9,0.6c-0.2,0-0.4-0.1-0.5-0.2c-0.1-0.1-0.2-0.2-0.2-0.2
		c-0.2-0.1-0.2-0.2-0.3-0.2c-0.2-2.7,1.2-4.4,4.1-5.2c0.9-0.2,1.8-0.3,2.5-0.6c1.5,0,2.5,0.7,3,2.1c0.101,0.1,0.101,0.2,0,0.3
		c0.101,0,0.2,0.1,0.3,0.2c0,0.1,0,0.2,0.101,0.2c-0.101,0-0.2,0-0.3,0c-0.101,0-0.2,0-0.2,0c-0.101,0.1-0.3,0.1-0.3,0.2
		c-0.2,0-0.301,0.1-0.5,0.2C89.8,7.821,89.7,7.721,89.5,7.721z M92.9,7.521c0-0.1,0.2-0.1,0.4-0.1c1.5,0.6,1.6,1.5,0.2,2.4
		c-0.4,0.3-0.7,0.3-1.2-0.1c-0.4-0.4-0.4-0.9-0.3-1.5C92.2,7.821,92.4,7.622,92.9,7.521z M66.2,2.021c1.2,0.1,2.4,0.3,3.4,0.7
		c0,0.1,0.2,0.1,0.2,0.2c0.1,0.9-0.5,1.4-1.5,1.7c-1.5,0.4-3,0.8-4.5,1.5c-0.9,1.6-2,2.5-3.5,2.5c-0.4,0-0.7-0.3-0.7-0.6
		c-0.1-0.3-0.1-0.6-0.1-0.9c0.9-2.4,2.5-3.9,4.7-4.7c0.3-0.1,0.7-0.2,1-0.3C65.6,2.122,65.9,2.122,66.2,2.021z M70.6,5.721
		c0,0,0,0,0.1,0c0.1-0.1,0.2-0.2,0.2-0.1v-0.1c1.2,0.6,1.4,1.5,0.9,2.6v0.1C69.8,8.221,69.4,7.321,70.6,5.721z"/>
	<path fill="#C9E9E6" d="M39.5,16.521c-0.4,0.1-0.9,0.2-1.2,0.7c-1,1.2-1.2,2.5-0.4,3.8c0,0,0,0.1,0.1,0.2v0.1
		c0.1,0.1,0.1,0.2,0.2,0.3c0.1,0.1,0.2,0.1,0.4,0.1c0.1,0,0.2,0,0.3-0.1c0-0.1,0.2-0.2,0.2-0.3v-0.1c0-0.1,0-0.2,0-0.2
		c0.3-0.3,0.5-0.6,0.8-0.9c0-0.3,0.2-0.6,0.4-0.9c0.3-0.1,0.7-0.3,1-0.5c0.4-0.2,0.6-0.6,0.6-1c-0.1-0.1-0.1-0.2-0.1-0.2
		C41.3,16.721,40.5,16.321,39.5,16.521z"/>
	<path fill="#C9E9E6" d="M44.7,10.921c0,0.3,0,0.6,0,0.9c-0.1,0.6,0.1,1.2,0.2,1.8c0.7,0.7,1.3,0.7,2,0.1c0-0.3,0.2-0.6,0.2-0.9
		c0.1-0.2,0.2-0.6,0.2-0.8c0.1-0.2,0.3-0.3,0.5-0.4c2.1-1.5,4.1-3,6.3-4.5c0-0.2,0.1-0.4,0.2-0.5c0,0,0-0.1-0.1-0.2
		s-0.1-0.2-0.1-0.3c-0.1,0-0.2,0-0.3-0.1c-0.2,0.1-0.3,0.1-0.4,0.1c-0.4,0-0.8,0-1.1-0.1C48.9,6.521,46.4,8.221,44.7,10.921z"/>
	<path fill="#C9E9E6" d="M89.3,7.622c0,0,0.1,0,0.2,0.1c0.199,0,0.3,0.1,0.5,0.2c0.199-0.1,0.3-0.2,0.5-0.2c0-0.1,0.199-0.1,0.3-0.2
		c0,0,0.1,0,0.2,0c0.1,0,0.199,0,0.3,0c-0.101,0-0.101-0.1-0.101-0.2c-0.1-0.1-0.199-0.2-0.3-0.2c0.101-0.1,0.101-0.2,0-0.3
		c-0.5-1.4-1.5-2.1-3-2.1c-0.7,0.3-1.6,0.4-2.5,0.6c-2.9,0.8-4.3,2.5-4.1,5.2c0.1,0,0.1,0.1,0.3,0.2c0,0,0.1,0.1,0.2,0.2
		c0.1,0.1,0.3,0.2,0.5,0.2c0.4-0.1,0.7-0.3,0.9-0.6c0.2-0.3,0.4-0.7,0.6-0.9c1.5-1.1,3.399-1.8,5.3-2
		C89.2,7.622,89.2,7.622,89.3,7.622z"/>
	<path fill="#C9E9E6" d="M93.3,7.421c-0.2,0-0.4,0-0.4,0.1c-0.5,0.1-0.7,0.3-0.899,0.7c-0.101,0.6-0.101,1.1,0.3,1.5
		c0.5,0.4,0.8,0.4,1.2,0.1C94.9,8.921,94.8,8.021,93.3,7.421z"/>
	<path fill="#C9E9E6" d="M69.6,2.721c-1-0.4-2.2-0.6-3.4-0.7c-0.3,0.1-0.6,0.1-1,0.1c-0.3,0.1-0.7,0.2-1,0.3
		c-2.2,0.8-3.8,2.3-4.7,4.7c0,0.3,0,0.6,0.1,0.9c0,0.3,0.3,0.6,0.7,0.6c1.5,0,2.6-0.9,3.5-2.5c1.5-0.7,3-1.1,4.5-1.5
		c1-0.3,1.6-0.8,1.5-1.7C69.8,2.821,69.6,2.821,69.6,2.721z"/>
	<path fill="#C9E9E6" d="M70.7,5.721c-0.1,0-0.1,0-0.1,0c-1.2,1.6-0.8,2.5,1.2,2.5v-0.1c0.5-1.1,0.3-2-0.9-2.6v0.1
		C70.9,5.521,70.8,5.622,70.7,5.721z"/>
	<path fill="#009BCA" d="M70.8,23.821c0-0.1,0.1-0.2,0.3-0.3c-1.5,0-2.8-0.1-4.2-0.2c0,0.2,0,0.4,0,0.5c0,0.2,0,0.4,0,0.5
		c0.2,0.3,0.5,0.4,0.7,0.7c0.2,1.5,0.2,3,0,4.5c0,0.2,0,0.3,0,0.5c-0.2,0.1-0.3,0.3-0.4,0.5c0.7,0.1,1.5,0.2,2.2,0.2l0,0
		c0.1-0.2,0.2-0.5,0.5-0.7c0.2-0.9,0.2-1.9,0.2-2.8c-0.1-0.4-0.1-0.7-0.1-1.1c0.1-0.1,0.4-0.4,0.6-0.6c0-0.4,0.1-0.8,0.2-1.2
		C70.8,24.221,70.8,24.021,70.8,23.821z"/>
	<path fill="#FFF685" d="M70.4,32.721c-1.9,0-3.8,0.1-5.6,0.2c-0.2,0.2-0.5,0.3-0.6,0.5c-0.1,0.1-0.2,0.2-0.3,0.3
		c-0.8,2.8-1.5,5.6-2.1,8.4c1.4-0.8,3.1-1.2,4.9-1.1c1.2,0,2.6,0,3.7,0c0,0.7,0,1.3,0,2.1c-2.8-0.1-5.5,0.4-8.2,1.2
		c-0.1,0.1-0.4,0.2-0.6,0.3c-0.2,0-0.3,0.1-0.3,0.1c-0.2,0.6-0.4,1.3-0.4,1.9c0,0.1,0,0.1,0,0.2c0,0,0,0.1,0,0.2
		c1.7-1,3.6-1.7,5.5-1.8c1.4,0,2.7,0,4,0.1c0.1-1.7,0.1-3.6,0-5.3c0-2.7,0-4.9,0.2-7.1C70.5,32.821,70.4,32.721,70.4,32.721z
		 M65.5,33.721c0.1,0,0.3-0.1,0.4-0.1c0.6,0,1,0.2,1.2,0.9c0.1,0,0.1,0,0.1,0.2c-0.3,1.9-1.2,3.1-2.6,4c-0.3-0.1-0.5-0.2-0.7-0.4
		c0-0.2-0.1-0.2-0.1-0.2C63.6,36.221,64.3,34.821,65.5,33.721z"/>
	<path fill="#FFFCD5" d="M65.9,33.622c-0.1,0-0.3,0.1-0.4,0.1c-1.2,1.1-1.9,2.5-1.7,4.4c0,0,0.1,0,0.1,0.2c0.2,0.2,0.4,0.3,0.7,0.4
		c1.4-0.9,2.3-2.1,2.6-4c0-0.2,0-0.2-0.1-0.2C66.9,33.821,66.5,33.622,65.9,33.622z"/>
	<path fill="#ED1C24" d="M61.4,43.821L61.4,43.821c0.1,0.2,0.1,0.2,0.1,0.3c-0.1,0-0.1,0.1-0.1,0.2c-0.1,0-0.1,0-0.1,0.2
		c0,0.1,0,0.1,0,0.2c0,0,0.1-0.1,0.3-0.1c0.2-0.1,0.5-0.2,0.6-0.3c2.7-0.8,5.4-1.3,8.2-1.2c0-0.8,0-1.4,0-2.1c-1.1,0-2.5,0-3.7,0
		c-1.8-0.1-3.5,0.3-4.9,1.1C61.6,42.721,61.5,43.221,61.4,43.821z"/>
	<path fill="#ED1C24" d="M70.4,45.321c-1.3-0.1-2.6-0.1-4-0.1c-1.9,0.1-3.8,0.8-5.5,1.8c0,0.1,0,0.2,0.1,0.4l-0.1,0.6
		c0,0.3-0.1,0.7-0.2,1h0.1c0.3-0.1,0.5-0.3,0.8-0.4c0-0.1,0.2-0.1,0.3-0.3c2.7-1.2,5.5-1.6,8.5-1.2c0-0.3,0-0.5,0-0.8
		C70.4,46.021,70.4,45.721,70.4,45.321z"/>
	<path fill="#FFF685" d="M70.1,50.622v-0.1c0.1-1.2,0.2-2.3,0.3-3.4c-3-0.4-5.8,0-8.5,1.2c-0.1,0.2-0.3,0.2-0.3,0.3
		c-0.3,0.1-0.5,0.3-0.8,0.4c-0.2,0.8-0.5,1.7-0.7,2.5c-0.1,0.7-0.2,1.4-0.3,2.1C63.1,52.521,66.6,51.521,70.1,50.622z M62.6,48.721
		L62.6,48.721c1.2,0.8,1.3,1.6,0.2,2.5c-0.2,0.2-0.3,0.3-0.5,0.3c-0.4,0-0.7-0.3-0.9-0.7c0-0.1,0-0.1,0-0.3c0-0.2,0-0.4,0-0.5
		c0.2-0.3,0.4-0.6,0.5-0.9c0.1-0.1,0.2-0.1,0.2-0.2C62.3,48.821,62.4,48.821,62.6,48.721z"/>
	<path fill="#FFFCD5" d="M62.6,48.721L62.6,48.721c-0.2,0.1-0.3,0.1-0.5,0.2c0,0.1-0.1,0.1-0.2,0.2c-0.1,0.3-0.3,0.6-0.5,0.9
		c0,0.1,0,0.3,0,0.5c0,0.2,0,0.2,0,0.3c0.2,0.4,0.5,0.7,0.9,0.7c0.2,0,0.3-0.1,0.5-0.3C63.9,50.321,63.8,49.521,62.6,48.721z"/>
	<path fill="#ED1C24" d="M81.6,36.622c0,0.3,0,0.6,0,0.9c-0.2,0.5-0.3,1.1-0.3,1.6c2.3-1.5,4.899-2,7.899-1.4c0-0.7,0-1.4,0-2.1
		c-1.1-0.1-2.199-0.3-3.3-0.4c-0.8,0.2-1.5,0.4-2.1,0.5C83.1,36.021,82.3,36.221,81.6,36.622z"/>
	<path fill="#FFF685" d="M81,42.921c0,0.3,0,0.7,0,0.9c-0.1,1-0.1,1.9-0.4,2.9c0,0.4,0.2,0.9,0.3,1.4c0,0.1,0,0.2-0.1,0.4
		c2.3-0.5,4.6-0.8,7.1-1c0-1,0.2-1.9,0.3-2.9c0.101-0.9,0.4-1.9,0.601-2.8c-2.2,0.2-4.3,0.3-6.5,0.8
		C81.9,42.721,81.4,42.721,81,42.921z M82.9,43.721c0.6,0,1,0.3,1.3,0.9c0.101,0,0.101,0.1,0.101,0.1c0.2,2.1-0.5,2.9-2.2,2.3
		c-0.4-0.2-0.7-0.4-0.7-0.9C81.3,44.821,81.8,44.021,82.9,43.721z"/>
	<path fill="#FFFCD5" d="M84.2,44.622c-0.3-0.6-0.7-0.9-1.3-0.9c-1.1,0.3-1.6,1.1-1.5,2.4c0,0.5,0.3,0.7,0.7,0.9
		c1.7,0.6,2.4-0.2,2.2-2.3C84.3,44.721,84.3,44.622,84.2,44.622z"/>
	<path fill="#FFF685" d="M81.3,39.521c-0.1,0.7-0.2,1.5-0.2,2.2c0-0.3,0-0.5,0.1-0.8c0.9-0.6,2.1-0.9,3.1-1.1
		c1.6-0.2,3.1-0.1,4.7,0.1c0-0.8,0.1-1.4,0.199-2.2c-3-0.6-5.6-0.1-7.899,1.4C81.3,39.221,81.3,39.321,81.3,39.521z"/>
	<path fill="#ED1C24" d="M81.2,40.921c-0.1,0.3-0.1,0.5-0.1,0.8v0.5c0,0.1,0,0.3,0,0.4c-0.1,0.1-0.1,0.2-0.1,0.3
		c0.4-0.2,0.9-0.2,1.3-0.3c2.2-0.5,4.3-0.6,6.5-0.8c0.1-0.6,0.1-1.2,0.2-1.9c-1.601-0.2-3.101-0.3-4.7-0.1
		C83.3,40.021,82.1,40.321,81.2,40.921z"/>
	<path fill="#FFFCD5" d="M85.6,24.721L85.6,24.721c-0.5,0-0.8,0.1-1.1,0.4c-0.101,0.1-0.2,0.2-0.2,0.3c-0.4,1.1-0.7,2.2-1.2,3.3
		c-0.8,2-0.5,3.5,0.9,4.9c0.1,0,0.2,0,0.3-0.1c0.1-0.1,0.2-0.2,0.3-0.2c0-0.2,0.2-0.3,0.3-0.4c0.101-0.2,0.101-0.3,0.2-0.5
		c0.6-2.3,1-4.7,1.3-7.1v-0.1c-0.1-0.1-0.1-0.1-0.2-0.1C86.1,24.921,85.8,24.721,85.6,24.721z"/>
	<path fill="#FFF685" d="M86.4,25.221v0.1c-0.3,2.4-0.7,4.8-1.3,7.1c-0.1,0.2-0.1,0.3-0.2,0.5c-0.1,0.1-0.3,0.2-0.3,0.4
		c-0.1,0-0.2,0.1-0.3,0.2c-0.101,0.1-0.2,0.1-0.3,0.1c-1.4-1.4-1.7-2.9-0.9-4.9c0.5-1.1,0.8-2.2,1.2-3.3c0-0.1,0.1-0.2,0.2-0.3
		c-0.301,0.2-0.601,0.3-0.9,0.4c0,0.3-0.2,0.7-0.3,1.1l0,0c-0.7,3.2-1.3,6.6-1.7,10c0.7-0.4,1.5-0.6,2.2-0.9
		c0.6-0.1,1.3-0.3,2.1-0.5c1.101,0.1,2.2,0.3,3.3,0.4c-0.1-0.3-0.1-0.5-0.1-0.8c-0.1-1.1-0.1-2.1,0-3.2c0.3-0.5,0.4-1.1,0.3-1.9
		c0-0.4,0-0.8,0-1.3C89.3,26.721,88.2,25.521,86.4,25.221z"/>
	<path fill="#FFF685" d="M104.8,20.721c-0.8,0-1.5,0-2.3-0.1c-1.2-0.5-2.601-0.6-4-0.5c0,0,0,0.1-0.101,0.2c0,0.2,0,0.4-0.1,0.7
		c0.1-0.3,0.2-0.3,0.399-0.5c0.101,0.1,0.101,0.1,0.101,0.1c0,0.1,0,0.2-0.101,0.4c-0.899,3.3-1.8,6.8-2.5,10.2c0,0.3,0,0.5-0.1,0.8
		c-0.1,0.3-0.2,0.7-0.2,1.1c0.9-0.4,1.9-0.5,3.101-0.4c0.3-0.1,0.6-0.1,0.899-0.2c0.601-0.2,1.2-0.4,1.8-0.5c1.5,0,2.801,0.1,4,0.7
		c0.101-3.7,0.2-7.5,0.101-11.2C105.4,21.421,105,21.122,104.8,20.721z M101,21.321c0.399,0,0.8,0.3,0.899,0.8
		c0.101,0,0.101,0.2,0.101,0.3c-0.7,2.3-1.7,4.7-2.801,6.8c-0.1,0.1-0.199,0.1-0.3,0.2c-1.2-1-1.6-2.3-1-4.1
		C98.3,23.221,99.3,22.021,101,21.321z"/>
	<path fill="#FFFCD5" d="M101.9,22.122c-0.1-0.5-0.5-0.8-0.899-0.8c-1.7,0.7-2.7,1.9-3.101,4c-0.6,1.8-0.2,3.1,1,4.1
		c0.101-0.1,0.2-0.1,0.3-0.2c1.101-2.1,2.101-4.5,2.801-6.8C102,22.321,102,22.122,101.9,22.122z"/>
	<path fill="#FFF685" d="M105.1,35.122c-0.9-0.4-1.8-0.7-2.7-1c-2.2,0.7-4.6,1.1-6.899,1.1c-0.2,0.8-0.301,1.5-0.4,2.5
		c1.8-0.8,3.6-1.1,5.6-1.1c1.601,0.1,3.2,0.3,4.7,0.7c0-0.6,0.101-1.3,0.2-2.1C105.4,35.221,105.3,35.122,105.1,35.122z"/>
	<path fill="#ED1C24" d="M102.4,34.122c0.9,0.3,1.8,0.6,2.7,1c0.2,0,0.3,0.1,0.5,0.1c0-0.7,0-1.5,0.1-2.4c0-0.1,0-0.1,0-0.1
		c-1.199-0.6-2.5-0.7-4-0.7c-0.6,0.1-1.199,0.3-1.8,0.5c-0.3,0.1-0.6,0.1-0.899,0.2c-1.2-0.1-2.2,0-3.101,0.4
		c-0.2,0.7-0.399,1.4-0.399,2.1C97.8,35.221,100.2,34.821,102.4,34.122z"/>
	<path fill="#ED1C24" d="M105.4,37.321c-1.5-0.4-3.1-0.6-4.7-0.7c-2,0-3.8,0.3-5.6,1.1c-0.1,0.4-0.1,0.9-0.1,1.4
		c2.8-0.4,5.6-0.5,8.5-0.3c0.6,0.4,1.199,0.8,1.8,1C105.3,38.921,105.4,38.122,105.4,37.321z"/>
	<path fill="#FFF685" d="M105.3,39.821c-0.601-0.2-1.2-0.6-1.8-1c-2.9-0.2-5.7-0.1-8.5,0.3c-0.2,2.5-0.301,4.9-0.2,7.4
		c0.1,0.1,0.1,0.2,0.2,0.2c0,0.1,0,0.1,0,0.1H95.2c0.101,0.2,0.301,0.3,0.5,0.3c0.2,0,0.2-0.2,0.4-0.3c0.5-0.1,0.9-0.1,1.5-0.1
		c2.4-0.2,4.7-0.2,7,0C104.9,44.421,105.1,42.122,105.3,39.821z M97.4,39.521c1.3,0.6,1.601,1.7,1.101,3.4
		c-0.101,0.4-0.301,0.9-0.601,1.3c-0.2,0-0.5,0.1-0.6,0.1c-0.2,0-0.3,0-0.4,0c-0.7-1-1-2.2-0.7-3.6c0-0.1,0-0.2,0-0.4
		c0.101-0.4,0.301-0.6,0.7-0.7C97.1,39.521,97.3,39.521,97.4,39.521z"/>
	<path fill="#FFFCD5" d="M98.5,42.921c0.5-1.7,0.199-2.8-1.101-3.4c-0.1,0-0.3,0-0.5,0.1c-0.399,0.1-0.6,0.3-0.7,0.7
		c0,0.2,0,0.3,0,0.4c-0.3,1.4,0,2.6,0.7,3.6c0.101,0,0.2,0,0.4,0c0.1,0,0.399-0.1,0.6-0.1C98.2,43.821,98.4,43.321,98.5,42.921z"/>
	<path fill="#009BCA" d="M86.6,19.421c-0.5-0.2-0.8-0.3-1.2-0.7c-0.3,0.4-0.5,0.7-0.8,1c-0.1,0.1-0.2,0.1-0.3,0.2
		c0.3,1.1,0.3,2.2,0.3,3.2c0.2,0,0.4,0.1,0.7,0.1c0-0.1,0.1-0.4,0.3-0.5c0-0.4,0-0.7,0-1.1c0-0.2,0-0.4,0-0.6
		C85.8,20.321,86.1,19.821,86.6,19.421z"/>
	<path fill="#009EDB" d="M159.6,51.221l-0.2-0.1c-13.7,4.9-27.7,9.399-41.8,13.1c-5.3,1.5-10.7,2.5-16.2,3.4
		c-14.6,2.1-29.3,3.2-44.1,3.2c-7.2,0.1-14.4,0.3-22,0.6c0,0.2,0,0.4,0.1,0.6c1.9,3.5,3.5,7.2,4.9,11.101c0.8,2.7,1.8,5.399,2.8,8.1
		c0.5,1.5,1.2,2.9,2,4.3c0.3,0.5,0.7,1.101,1,1.7c4.2-1.5,8.8-1.2,14,0.601c0.8,0.3,1.5,0.6,2.2,0.899c4.8,2.3,8.8,1.3,12.5-2.7
		c0.5-0.8,1.1-1.199,1.8-1.5c6.2-0.8,11.7,0.601,16.5,3.801c0.9,0.5,1.9,0.5,3.2,0c1-0.5,1.899-1,2.899-1.4c2-1,4.101-1.2,6.301-0.7
		c1.6,2.101,3.399,3.9,5.3,5.5c2.1,1.9,4.7,2.601,7.899,2.101c1.2-1.5,2.7-2.4,4.601-2.601c2.7-0.5,5.399-0.3,8,0.5
		c1.6-5.5,3.7-10.899,6.5-16c1.1-2.3,2.3-4.5,3.5-6.6c1-1.5,1.8-3.101,2.7-4.601C148.9,66.421,154.1,58.721,159.6,51.221z
		 M155.4,54.122c0.101,0,0.2,0,0.4,0.2c0.1,0.1,0.1,0.2,0.2,0.4c0.1,0,0.1,0.1,0.1,0.1c-1.1,1.9-2.8,3.1-5.2,3.6
		c-3.5,0.8-7,1.9-10.399,3.3c-0.2-0.1-0.601-0.2-0.801-0.399c-0.699,0.6-1.199,0.699-1.6,0.3c0.2-0.5,0.6-0.8,1.2-0.9
		c0.899-1.1,2-1.9,3.399-2.3c4.101-1.4,8.301-2.9,12.4-4.3c0.1,0,0.2,0,0.2,0C155.4,54.122,155.4,54.122,155.4,54.122z
		 M135.9,61.221c0,0.101,0.101,0.101,0.2,0.2c-0.2,1.6-0.9,1.8-2.1,1c-0.101-0.2-0.101-0.3-0.101-0.4c0-0.199,0-0.3,0-0.399
		c0-0.101,0.101-0.3,0.101-0.3c0.1-0.101,0.199-0.2,0.3-0.2c0-0.101,0.1-0.101,0.2-0.101c0.199,0,0.3-0.1,0.399-0.1v-0.1
		C135.3,60.721,135.6,61.021,135.9,61.221z M132.2,69.122c-0.1,0-0.1,0.1,0,0.2c-0.1,0-0.199,0-0.1,0.1c-0.1,0.9-0.4,1.7-1,2.3
		c-0.6,0.601-1.1,1-1.7,1.3c-0.7,2.801-1.2,5.7-1.6,8.7c0.1,0,0.399,0.101,0.5,0.3c0.5,0.601,0.7,1.301,0.899,2.101
		c0,0.399,0.101,0.7,0.101,1.1c-0.4,0.5-0.601,1-0.8,1.601c0,0.199,0,0.399,0,0.6c-0.4,0.2-0.9,0.3-1.301,0.4
		c0,0.8,0,1.399-0.1,2.199c-0.1,0.601-0.1,1.101-0.1,1.801c0,0.199,0,0.5,0.1,0.899H127c-0.2,0.3-0.5,0.601-0.5,1
		c0,0.101,0,0.2,0,0.3c0,0.2,0.199,0.5,0.3,0.801c0,0.1,0,0.3,0,0.399c0.1,0,0.1,0,0.1,0c0.101-0.1,0.3-0.3,0.4-0.399
		c0.1,0,0.2,0,0.3,0c0.9-0.101,1.5-0.601,1.9-1.4c0.8-1.6,0.3-2.7-1.2-3.3c-0.101-0.101-0.101-0.3-0.101-0.4
		c0.2-0.7,0.801-1,1.801-0.8c0.3,0.1,0.699,0.2,1,0.3c0.399,0.5,0.6,1.101,0.8,1.601c0,0.6,0.1,1.199,0.2,1.699
		c-0.801,2.2-2.2,4-4.2,5.2c-0.4,0-0.8,0-1.101,0c0,0,0,0,0,0.101c-0.199,0.3-0.199,0.699-0.199,1c0,0.3-0.101,0.3-0.101,0.399
		c-0.1,0.3-0.399,0.4-0.6,0.5c-0.5,0-0.9-0.1-1.3-0.1c-0.5-0.5-0.7-1-0.7-1.601c0-0.3,0-0.699-0.101-0.899
		c-0.8-0.3-1.5-0.601-2.3-1.101c-0.5-0.899-0.899-1.699-1.2-2.6c0-0.1,0-0.1,0-0.1c-0.3-0.7-0.399-1.5-0.699-2.2
		c-0.101-0.7-0.101-1.3,0.399-1.7c0-0.2,0.3-0.3,0.4-0.4c0.2,0,0.5-0.199,0.6-0.3c0,0,0,0,0.101-0.1c0.1,0.1,0.3,0.1,0.3,0.1
		c0.3,0.101,0.5,0.2,0.8,0.3c0.2,0.101,0.3,0.2,0.4,0.4c-0.101,0.2-0.2,0.3-0.2,0.5c-0.3,0.2-0.5,0.4-0.9,0.6
		c0.101,0.2,0.101,0.301,0.2,0.601s0.1,0.6,0.2,1c0,0.2,0.1,0.399,0.2,0.5c0.199,0.2,0.3,0.399,0.699,0.6c0,0.3,0.2,0.5,0.4,0.9h0.1
		c0.101,0.2,0.4,0.5,0.7,0.7c0,0,0.101,0.1,0.2,0.199c-0.1-0.3-0.1-0.6-0.2-0.899c0.3-0.101,0.4-0.4,0.4-0.5
		c0.1-0.3,0.2-0.4,0.399-0.5c0-0.101,0-0.101,0-0.101c0-0.199,0-0.3,0-0.5c-0.1-0.3-0.199-0.399-0.199-0.5
		c0.1-0.1,0.199-0.1,0.399-0.1c0-0.2,0-0.4,0-0.7c0-0.5,0-0.899,0-1.5c0.101-0.7,0.101-1.399,0.2-2c-0.1-0.1-0.1-0.1-0.1-0.1
		c-0.101,0-0.4-0.101-0.7-0.2c-0.4-0.5-0.7-1.1-0.7-1.7c0-0.399,0-0.7-0.1-1c0.6-0.899,1.199-1.6,1.8-2.399
		c0.1-0.2,0.3-0.2,0.5-0.301c0,0,0,0,0.1,0c0.101-1.5,0.4-3.1,0.601-4.6c0.399-1.5,0.699-3,1-4.4
		c-0.601-0.199-1.301-0.5-2.101-0.899l0,0v-0.101h-0.1c-0.2-0.5-0.3-1-0.2-1.5l0,0c0.1-0.6,0.1-1.199-0.1-1.8c0-0.1,0-0.2,0-0.399
		c0,0,0-0.101,0.1-0.101c0.1-0.399,0.2-0.6,0.2-1c0.3-0.7,0.7-1.2,1.2-1.8v-0.1c0,0,0,0,0.199,0c0,0,0,0,0.101,0
		c0-0.101,0.1-0.101,0.2-0.101c0.3-0.1,0.5-0.2,0.8-0.2l0,0c0.3-0.1,0.6-0.199,1-0.199c1.899,0,3,1,3.2,3c0,0,0,0.199,0.1,0.3
		c0,0.1,0,0.1,0.1,0.1c-0.1,0-0.199,0-0.1,0.101C132.2,68.622,132.2,68.721,132.2,69.122z M116.9,70.122c0,0,0.101,0.1,0.4,0.2
		c0.5,0.8,0.7,1.5,0.6,2.5c-0.1,0.899-0.2,1.899-0.5,2.8c-0.7,1.399-1.899,2.2-3.7,2.3c-2.899,0.2-4.3-1.1-4-3.9
		c0.101-2.3,1.2-3.899,3.301-4.8C114.4,69.221,115.7,69.622,116.9,70.122z M124.3,72.322 M98.5,73.322c0.5-0.2,0.899-0.5,1.3-0.801
		c0.1,0,0.1,0,0.2,0c0.199,0,0.3-0.199,0.3,0v-0.199c3.2,0.399,4.6,2.199,4.1,5.399c-0.1,0.8-0.2,1.5-0.6,2.2
		c-2.2,1.8-4.5,2-6.8,0.4c0-0.101,0-0.101,0-0.2c0-0.101-0.101-0.101-0.101-0.2s0-0.1,0-0.2c0,0,0-0.1-0.1-0.2
		c-0.101-0.1-0.2-0.3-0.4-0.399c-0.1,0-0.1,0-0.1-0.101c-0.101-0.5-0.3-0.899-0.3-1.399c-0.101-0.601,0-1.3,0.3-1.9
		c0-0.1,0.1-0.2,0.2-0.2c0-0.1,0.1-0.199,0.199-0.3v-0.1c0.101-0.101,0.101-0.101,0.101-0.2s0-0.2,0.1-0.2
		C97.3,74.122,97.9,73.721,98.5,73.322z M79.1,75.721c0.7,0.9,1,1.9,1,3c-0.2,2-1.3,3.3-3.5,3.8c-2.5,0.601-4.1-0.3-4.8-2.6
		c-0.2-0.5-0.2-1.1-0.2-1.7c0-0.5,0.3-1.1,0.4-1.7c0.6-0.5,1.2-1,1.8-1.5c0.3-0.3,0.7-0.399,1.1-0.6
		C76.7,74.021,78.1,74.521,79.1,75.721z M61.6,75.721c0.3-0.2,0.5-0.3,0.9-0.399c0.1-0.101,0.1-0.101,0.2-0.101
		c0.4-0.3,0.9-0.5,1.3-0.5c2.6-0.2,4,1,4.3,3.5c0.2,1.9-0.4,3.4-1.8,4.3c-2.6,1.601-4.7,1.2-6.6-1.199c0-0.101-0.1-0.2-0.3-0.4
		c0-0.2,0-0.4,0-0.6c0-0.601,0-1.2,0-1.7c0-0.101,0-0.101,0-0.3c0,0,0-0.101,0.2-0.2c0,0,0-0.101,0.1-0.4c0,0,0-0.1,0-0.3
		c0-0.1,0-0.1,0.1-0.2c0.3-0.399,0.7-0.7,1.1-1.1c0.1-0.101,0.1-0.2,0.2-0.3C61.3,75.822,61.4,75.721,61.6,75.721z M93,77.122
		c0.1,0.3,0.3,0.6,0.3,0.899c0,1.101,0,2-0.4,3c-1.6,2.601-3.899,3.2-6.6,1.801c-2.5-1.101-3.2-2.9-2.3-5.4c0.8-2.1,2.3-3.2,4.5-3.3
		C90.7,74.322,92.2,75.322,93,77.122z M38.4,73.322c0.2-0.301,0.4-0.601,0.8-0.7c0.2-0.101,0.4-0.101,0.4-0.101
		c1.5,0.5,2.2,1.601,2.3,3.2c0,0.601,0.1,1.4,0.3,2c0.9,2.601,1.6,5.101,2.1,7.601c0,0.199,0,0.3,0,0.399c0,0.101,0,0.2,0,0.3
		c0,0,0,0.101,0.1,0.2c-0.1,0.101-0.1,0.101-0.1,0.101c-0.1,0.1-0.2,0.1-0.3,0.1c-0.1-0.1-0.1-0.2-0.2-0.3c0,0,0-0.101-0.2-0.101
		c-1.4-1.199-2.5-2.699-3.2-4.699C39.4,78.721,38.8,76.122,38.4,73.322z M56.1,80.021c0,0.5-0.2,0.9-0.5,1.301
		c-0.7,0.8-1.5,1.399-2.6,1.8c-0.8,0.1-1.6,0.1-2.4-0.3c-1.9-0.801-2.7-2.301-2.3-4.2c0-0.101,0-0.101,0.1-0.3
		c0.1-0.2,0.2-0.2,0.3-0.301c0-0.1,0-0.1,0-0.199c0-0.101,0-0.101,0-0.2c0.2-0.8,0.7-1.4,1.5-1.8c0.3-0.101,0.7-0.2,1.2-0.2
		c0.1,0,0.2,0,0.4,0C54.9,75.521,56.4,77.021,56.1,80.021z M44.6,87.822c0.2,0,0.3,0,0.5-0.101l0,0c1.2,0.5,1.3,1.3,0.4,2.3
		c-0.1,0.101-0.2,0.101-0.4,0.2c-0.5-0.1-0.8-0.2-1-0.6c-0.2-0.5-0.1-0.9,0.2-1.4C44.3,88.122,44.4,88.021,44.6,87.822z"/>
	<path fill="#8ED8F8" d="M155.8,54.321c-0.2-0.2-0.3-0.2-0.4-0.2c0,0,0,0-0.1,0c0,0-0.101,0-0.2,0c-4.1,1.4-8.3,2.9-12.4,4.3
		c-1.399,0.4-2.5,1.2-3.399,2.3c-0.601,0.101-1,0.4-1.2,0.9c0.4,0.399,0.9,0.3,1.6-0.3c0.2,0.199,0.601,0.3,0.801,0.399
		c3.399-1.399,6.899-2.5,10.399-3.3c2.4-0.5,4.101-1.7,5.2-3.6c0,0,0-0.1-0.1-0.1C155.9,54.521,155.9,54.421,155.8,54.321z"/>
	<path fill="#8ED8F8" d="M136.1,61.421c-0.1-0.1-0.2-0.1-0.2-0.2c-0.3-0.2-0.6-0.5-1-0.399v0.1c-0.1,0-0.2,0.1-0.399,0.1
		c-0.101,0-0.2,0-0.2,0.101c-0.101,0-0.2,0.1-0.3,0.2c0,0-0.101,0.199-0.101,0.3c0,0.1,0,0.2,0,0.399c0,0.101,0,0.2,0.101,0.4
		C135.2,63.221,135.9,63.021,136.1,61.421z"/>
	<path d="M132.2,69.322c-0.1-0.101-0.1-0.2,0-0.2c0-0.4,0-0.5-0.1-0.8c-0.1-0.101,0-0.101,0.1-0.101c-0.1,0-0.1,0-0.1-0.1
		c-0.1-0.101-0.1-0.3-0.1-0.3c-0.2-2-1.301-3-3.2-3c-0.4,0-0.7,0.1-1,0.199l0,0c-0.3,0-0.5,0.101-0.8,0.2c-0.101,0-0.2,0-0.2,0.101
		c-0.101,0-0.101,0-0.101,0l-0.199,0.1c-0.5,0.6-0.9,1.1-1.2,1.8c0,0.4-0.101,0.601-0.2,1c-0.1,0-0.1,0.101-0.1,0.101
		c0,0.199,0,0.3,0,0.399c0.199,0.601,0.199,1.2,0.1,1.8l0,0c-0.1,0.5,0,1,0.2,1.5h0.1v0.101l0,0c0.8,0.399,1.5,0.7,2.101,0.899
		c-0.301,1.4-0.601,2.9-1,4.4c-0.2,1.5-0.5,3.1-0.601,4.6c-0.1,0-0.1,0-0.1,0c-0.2,0.101-0.4,0.101-0.5,0.301
		c-0.601,0.8-1.2,1.5-1.8,2.399c0.1,0.3,0.1,0.601,0.1,1c0,0.601,0.3,1.2,0.7,1.7c0.3,0.1,0.6,0.2,0.7,0.2c0,0,0,0,0.1,0.1
		c-0.1,0.601-0.1,1.3-0.2,2c0,0.601,0,1,0,1.5c0,0.3,0,0.5,0,0.7c-0.2,0-0.3,0-0.399,0.1c0,0.101,0.1,0.2,0.199,0.5
		c0,0.2,0,0.301,0,0.5c0,0,0,0,0,0.101c-0.199,0.1-0.3,0.2-0.399,0.5c0,0.1-0.101,0.399-0.4,0.5c0.101,0.3,0.101,0.6,0.2,0.899
		c-0.1-0.1-0.2-0.199-0.2-0.199c-0.3-0.2-0.6-0.5-0.7-0.7h-0.1c-0.2-0.4-0.4-0.601-0.4-0.9c-0.399-0.2-0.5-0.399-0.699-0.6
		c-0.101-0.101-0.2-0.3-0.2-0.5c-0.101-0.4-0.101-0.7-0.2-1s-0.1-0.4-0.2-0.601c0.4-0.199,0.601-0.399,0.9-0.6
		c0-0.2,0.1-0.3,0.2-0.5c-0.101-0.2-0.2-0.3-0.4-0.4c-0.3-0.1-0.5-0.199-0.8-0.3c0,0-0.2,0-0.3-0.1c-0.101,0.1-0.101,0.1-0.101,0.1
		c-0.1,0.101-0.399,0.3-0.6,0.3c-0.101,0.101-0.4,0.2-0.4,0.4c-0.5,0.4-0.5,1-0.399,1.7c0.3,0.7,0.399,1.5,0.699,2.2c0,0,0,0,0,0.1
		c0.301,0.9,0.7,1.7,1.2,2.6c0.8,0.5,1.5,0.801,2.3,1.101c0.101,0.2,0.101,0.6,0.101,0.899c0,0.601,0.2,1.101,0.7,1.601
		c0.399,0,0.8,0.1,1.3,0.1c0.2-0.1,0.5-0.2,0.6-0.5c0-0.1,0.101-0.1,0.101-0.399c0-0.301,0-0.7,0.199-1c0-0.101,0-0.101,0-0.101
		c0.301,0,0.7,0,1.101,0c2-1.2,3.399-3,4.2-5.2c-0.101-0.5-0.2-1.1-0.2-1.699c-0.2-0.5-0.4-1.101-0.8-1.601
		c-0.301-0.1-0.7-0.2-1-0.3c-1-0.2-1.601,0.1-1.801,0.8c0,0.101,0,0.3,0.101,0.4c1.5,0.6,2,1.7,1.2,3.3c-0.4,0.8-1,1.3-1.9,1.4
		c-0.1,0-0.2,0-0.3,0c-0.101,0.1-0.3,0.3-0.4,0.399c0,0,0,0-0.1,0c0-0.1,0-0.3,0-0.399c-0.101-0.301-0.3-0.601-0.3-0.801
		c0-0.1,0-0.199,0-0.3c0-0.399,0.3-0.7,0.5-1h0.1c-0.1-0.399-0.1-0.7-0.1-0.899c0-0.7,0-1.2,0.1-1.801c0.1-0.8,0.1-1.399,0.1-2.199
		c0.4-0.101,0.9-0.2,1.301-0.4c0-0.2,0-0.4,0-0.6c0.199-0.601,0.399-1.101,0.8-1.601c0-0.399-0.101-0.7-0.101-1.1
		c-0.199-0.8-0.399-1.5-0.899-2.101c-0.101-0.199-0.4-0.3-0.5-0.3c0.399-3,0.899-5.899,1.6-8.7c0.601-0.3,1.101-0.699,1.7-1.3
		c0.6-0.6,0.9-1.399,1-2.3C132,69.322,132.1,69.322,132.2,69.322z M130.7,68.021c0,0,0,0,0.101,0.101c0,0.1,0,0.1,0,0.1
		c0,0.101,0,0.3-0.101,0.3c0,0.101,0,0.101,0,0.2c0,0.3-0.199,0.5-0.3,0.9c-0.399,1.2-1.1,1.6-2.2,1.399
		c0,0.101-0.1,0.101-0.199,0.101H127.9l0,0c-0.1,0-0.3,0-0.399,0c-0.101,0-0.101,0-0.101,0c-0.1-0.101-0.3-0.3-0.399-0.4
		c-0.601-1.6-0.301-2.899,0.8-3.899c0.1-0.101,0.1-0.101,0.399-0.101c0-0.1,0-0.1,0.101-0.1c0-0.101,0-0.101,0-0.101s0.1,0,0.2,0
		C129.7,66.721,130.4,67.122,130.7,68.021z"/>
	<path fill="#FFF200" d="M130.8,68.122c-0.101-0.101-0.101-0.101-0.101-0.101c-0.3-0.899-1-1.3-2.199-1.5v0.101
		c-0.101,0-0.2,0-0.2,0l0,0c-0.101,0-0.101,0-0.101,0.1c-0.3,0-0.3,0-0.399,0.101c-1.101,1-1.4,2.3-0.8,3.899
		c0.1,0.101,0.3,0.3,0.399,0.4c0.101,0,0.101-0.101,0.101-0.2v0.2c0.1,0,0.3,0,0.399,0l0,0H128c0.1,0,0.199,0,0.199-0.101
		c1.101,0.2,1.801-0.199,2.2-1.399c0.101-0.4,0.3-0.601,0.3-0.9c0-0.1,0-0.1,0-0.2c0.101,0,0.101-0.199,0.101-0.3
		C130.8,68.221,130.8,68.221,130.8,68.122z"/>
	<path d="M117.3,70.322c-0.3-0.101-0.4-0.2-0.4-0.2c-1.2-0.5-2.5-0.9-3.899-0.9c-2.101,0.9-3.2,2.5-3.301,4.8
		c-0.3,2.801,1.101,4.101,4,3.9c1.801-0.1,3-0.9,3.7-2.3c0.3-0.9,0.4-1.9,0.5-2.8C118,71.822,117.8,71.122,117.3,70.322z
		 M112.5,71.122c1.1,0,2.3,0.1,3.399,0.399c0,0.101,0,0.2,0.101,0.301c0.3,1,0.199,2.1-0.2,3.199c-0.101,0.101-0.2,0.101-0.3,0.2
		c-0.101,0-0.2,0.2-0.2,0.4c-1,0.1-2,0.2-3,0.3c-0.2,0.1-0.4-0.1-0.5-0.2C110.7,74.021,110.9,72.521,112.5,71.122z"/>
	<path fill="#FFF200" d="M115.9,71.521c-1.1-0.3-2.3-0.399-3.399-0.399c-1.601,1.399-1.801,2.899-0.7,4.6c0.1,0.101,0.3,0.3,0.5,0.2
		c1-0.1,2-0.2,3-0.3c0-0.2,0.1-0.4,0.2-0.4c0.1-0.1,0.199-0.1,0.3-0.2c0.399-1.1,0.5-2.199,0.2-3.199
		C115.9,71.721,115.9,71.622,115.9,71.521z"/>
	<path d="M99.8,72.521c-0.4,0.301-0.8,0.601-1.3,0.801c-0.601,0.399-1.2,0.8-1.601,1.399c-0.1,0-0.1,0.101-0.1,0.2s0,0.1-0.101,0.2
		v0.1c-0.1,0.101-0.199,0.2-0.199,0.3c-0.101,0-0.2,0.101-0.2,0.2c-0.3,0.601-0.4,1.3-0.3,1.9c0,0.5,0.199,0.899,0.3,1.399
		c0,0.101,0,0.101,0.1,0.101c0.2,0.1,0.3,0.3,0.4,0.399c0.1,0.101,0.1,0.2,0.1,0.2c0,0.101,0,0.101,0,0.2s0.101,0.1,0.101,0.2
		c0,0.1,0,0.1,0,0.2c2.3,1.6,4.6,1.399,6.8-0.4c0.399-0.7,0.5-1.4,0.6-2.2c0.5-3.2-0.899-5-4.1-5.399v0.199c0-0.199-0.101,0-0.3,0
		C99.9,72.521,99.9,72.521,99.8,72.521z M102.8,75.721c0.399,0.9,0.3,1.9-0.101,2.7c-1,1.3-2.399,1.7-4.199,1.2
		c-0.101-0.101-0.101-0.3-0.101-0.4c-0.2-0.399-0.399-0.7-0.6-1c-0.101-0.1-0.101-0.2-0.101-0.3c-0.1-0.2-0.199-0.4-0.199-0.6
		c0-0.101,0-0.2,0-0.2c0.399-1.3,1.199-2.4,2.3-3.101c1.1-0.1,2.1,0.2,2.899,1C102.7,75.221,102.8,75.521,102.8,75.721z"/>
	<path fill="#FFF200" d="M102.7,78.421c0.4-0.8,0.5-1.8,0.101-2.7c0-0.2-0.101-0.5-0.101-0.7c-0.8-0.8-1.8-1.1-2.899-1
		c-1.101,0.7-1.9,1.801-2.3,3.101c0,0,0,0.1,0,0.2c0,0.199,0.1,0.399,0.199,0.6c0,0.1,0,0.2,0.101,0.3c0.2,0.3,0.399,0.601,0.6,1
		c0,0.101,0,0.3,0.101,0.4C100.3,80.122,101.7,79.721,102.7,78.421z"/>
	<path d="M80.1,78.721c0-1.1-0.3-2.1-1-3c-1-1.2-2.4-1.7-4.2-1.3c-0.4,0.2-0.8,0.3-1.1,0.6c-0.6,0.5-1.2,1-1.8,1.5
		c-0.1,0.601-0.4,1.2-0.4,1.7c0,0.601,0,1.2,0.2,1.7c0.7,2.3,2.3,3.2,4.8,2.6C78.8,82.021,79.9,80.721,80.1,78.721z M77.4,76.122
		v0.1c0.2,0,0.2,0,0.4,0.101c-0.1,0,0,0.199,0,0.3c0.1,0.1,0.3,0.3,0.3,0.5c0,0.3,0,0.6,0,0.899c0,2.301-1.2,3.301-3.7,3
		c0-0.1,0-0.1-0.1-0.199c-0.5-0.301-0.9-0.801-1.2-1.301c0-0.3,0-0.399,0-0.399c0-0.3,0-0.601,0-1c0,0,0-0.101,0.1-0.2
		c0.3-0.8,0.9-1.4,1.6-1.9C75.5,76.322,76.4,76.521,77.4,76.122z"/>
	<path fill="#FFF200" d="M77.4,76.221v-0.1c-1,0.399-1.9,0.2-2.6-0.101c-0.7,0.5-1.3,1.101-1.6,1.9c-0.1,0.1-0.1,0.2-0.1,0.2
		c0,0.399,0,0.7,0,1c0,0,0,0.1,0,0.399c0.3,0.5,0.7,1,1.2,1.301c0.1,0.1,0.1,0.1,0.1,0.199c2.5,0.301,3.7-0.699,3.7-3
		c0-0.3,0-0.6,0-0.899c0-0.2-0.2-0.4-0.3-0.5c0-0.101-0.1-0.3,0-0.3C77.6,76.221,77.6,76.221,77.4,76.221z"/>
	<path d="M62.5,75.322c-0.4,0.1-0.6,0.199-0.9,0.399c-0.2,0-0.3,0.101-0.3,0.101c-0.1,0.1-0.1,0.199-0.2,0.3
		c-0.4,0.399-0.8,0.7-1.1,1.1c-0.1,0.101-0.1,0.101-0.1,0.2c0,0.2,0,0.3,0,0.3c-0.1,0.3-0.1,0.4-0.1,0.4c-0.2,0.1-0.2,0.2-0.2,0.2
		c0,0.199,0,0.199,0,0.3c0,0.5,0,1.1,0,1.7c0,0.199,0,0.399,0,0.6c0.2,0.2,0.3,0.3,0.3,0.4c1.9,2.399,4,2.8,6.6,1.199
		c1.4-0.899,2-2.399,1.8-4.3c-0.3-2.5-1.7-3.7-4.3-3.5c-0.4,0-0.9,0.2-1.3,0.5C62.6,75.221,62.6,75.221,62.5,75.322z M65.9,76.721
		c0.2,0.3,0.4,0.601,0.4,1c0.3,1,0.3,1.9-0.2,2.9c-0.5,0.399-1,0.8-1.6,1.2c-1.4,0.199-2.5-0.301-3.3-1.301
		c-0.1-0.399-0.1-0.699-0.1-0.899c0-0.5,0-0.9,0.2-1.4c0.1-0.1,0.2-0.2,0.3-0.3c0.2-0.2,0.3-0.5,0.3-0.8c0.2,0.1,0.3,0.1,0.4,0.2
		c0.3,0,0.6,0,0.8-0.101c0,0,0.1-0.1,0.2-0.1c0-0.101,0-0.101,0.1-0.2c0-0.1,0-0.2,0.1-0.2c0.1-0.1,0.4-0.1,0.5-0.1
		c0.1-0.101,0.1-0.101,0.2-0.101C64.9,76.221,65.5,76.221,65.9,76.721z"/>
	<path fill="#FFF200" d="M66.3,77.721c0-0.399-0.2-0.7-0.4-1c-0.4-0.5-1-0.5-1.7-0.2c-0.1,0-0.1,0-0.2,0.101c-0.1,0-0.4,0-0.5,0.1
		c-0.1,0-0.1,0.101-0.1,0.2c-0.1,0.1-0.1,0.1-0.1,0.2c-0.1,0-0.2,0.1-0.2,0.1c-0.2,0.101-0.5,0.101-0.8,0.101
		c-0.1-0.101-0.2-0.101-0.4-0.2c0,0.3-0.1,0.6-0.3,0.8c-0.1,0.1-0.2,0.2-0.3,0.3c-0.2,0.5-0.2,0.9-0.2,1.4c0,0.2,0,0.5,0.1,0.899
		c0.8,1,1.9,1.5,3.3,1.301c0.6-0.4,1.1-0.801,1.6-1.2C66.6,79.622,66.6,78.721,66.3,77.721z"/>
	<path d="M93.3,78.021c0-0.3-0.2-0.6-0.3-0.899c-0.801-1.8-2.301-2.8-4.5-3c-2.2,0.1-3.7,1.2-4.5,3.3c-0.9,2.5-0.2,4.3,2.3,5.4
		c2.7,1.399,5,0.8,6.6-1.801C93.3,80.021,93.3,79.122,93.3,78.021z M91.2,80.521c0,0.101-0.199,0.2-0.3,0.301
		c-0.399,0.199-0.6,0.5-0.899,0.8c-1.5,0.399-2.801,0.1-4.101-0.8c-0.1-0.101-0.3-0.301-0.3-0.5c-0.2-0.301-0.3-0.5-0.5-0.801
		c0-0.399,0-0.8,0.2-1.199c0.1-0.5,0.399-1,0.8-1.5c0.1,0,0.3-0.101,0.5-0.101c0.7-0.399,1.3-0.6,2.1-0.8c0.101,0,0.2,0.1,0.2,0.1
		c1,0.301,1.9,0.801,2.601,1.5c0,0.4,0,0.801,0,1.301S91.4,79.921,91.2,80.521z"/>
	<path fill="#FFF200" d="M90.9,80.822c0.101-0.101,0.3-0.2,0.3-0.301c0.2-0.6,0.301-1.199,0.301-1.699s0-0.9,0-1.301
		c-0.7-0.699-1.601-1.199-2.601-1.5c0,0-0.1-0.1-0.2-0.1c-0.8,0.2-1.399,0.4-2.1,0.8c-0.2,0-0.4,0.101-0.5,0.101
		c-0.4,0.5-0.7,1-0.8,1.5c-0.2,0.399-0.2,0.8-0.2,1.199c0.2,0.301,0.3,0.5,0.5,0.801c0,0.199,0.2,0.399,0.3,0.5
		c1.3,0.899,2.601,1.199,4.101,0.8C90.3,81.322,90.5,81.021,90.9,80.822z"/>
	<path fill="#8ED8F8" d="M39.2,72.622c-0.4,0.1-0.6,0.399-0.8,0.7c0.4,2.8,1,5.399,2,8c0.7,2,1.8,3.5,3.2,4.699
		c0.2,0,0.2,0.101,0.2,0.101c0.1,0.1,0.1,0.2,0.2,0.3c0.1,0,0.2,0,0.3-0.1c0,0,0,0,0.1-0.101c-0.1-0.1-0.1-0.2-0.1-0.2
		c0-0.1,0-0.199,0-0.3c0-0.1,0-0.2,0-0.399c-0.5-2.5-1.2-5-2.1-7.601c-0.2-0.6-0.3-1.399-0.3-2c-0.1-1.6-0.8-2.7-2.3-3.2
		C39.6,72.521,39.4,72.521,39.2,72.622z"/>
	<path d="M55.6,81.322c0.3-0.4,0.5-0.801,0.5-1.301c0.3-3-1.2-4.5-4.3-4.399c-0.2,0-0.3,0-0.4,0c-0.5,0-0.9,0.1-1.2,0.2
		c-0.8,0.399-1.3,1-1.5,1.8c0,0.1,0,0.1,0,0.2c0,0.1,0,0.1,0,0.199c-0.1,0.101-0.2,0.101-0.3,0.301c-0.1,0.199-0.1,0.199-0.1,0.3
		c-0.4,1.899,0.4,3.399,2.3,4.2c0.8,0.399,1.6,0.399,2.4,0.3C54.1,82.721,54.9,82.122,55.6,81.322z M53.9,77.421
		c0.2,0.1,0.2,0.2,0.2,0.3c0.2,0.3,0.4,0.5,0.5,0.8c0,0.101,0,0.2,0,0.2s0,0.101,0,0.2c0.1,0.1,0.1,0.2,0.2,0.2c0,0,0,0.1,0,0.399
		c-0.1,0.101-0.2,0.2-0.4,0.301c-0.3,0.399-0.6,0.899-1,1.399c-2,0.8-3.3,0.101-3.6-2c0.1-0.1,0.3-0.399,0.3-0.5
		c0.1-0.399,0.2-0.7,0.4-1c0.2,0,0.4-0.1,0.6-0.1c0.3-0.101,0.7-0.3,1-0.5C52.7,77.221,53.3,77.221,53.9,77.421z"/>
	<path fill="#FFF200" d="M54.1,77.721c0-0.1,0-0.2-0.2-0.3c-0.6-0.2-1.2-0.2-1.8-0.3c-0.3,0.2-0.7,0.399-1,0.5
		c-0.2,0-0.4,0.1-0.6,0.1c-0.2,0.3-0.3,0.601-0.4,1c0,0.101-0.2,0.4-0.3,0.5c0.3,2.101,1.6,2.8,3.6,2c0.4-0.5,0.7-1,1-1.399
		c0.2-0.101,0.3-0.2,0.4-0.301c0-0.3,0-0.399,0-0.399c-0.1,0-0.1-0.101-0.2-0.2c0-0.1,0-0.2,0-0.2s0-0.1,0-0.2
		C54.5,78.221,54.3,78.021,54.1,77.721z"/>
	<path fill="#8ED8F8" d="M45.1,87.721c-0.2,0.101-0.3,0.101-0.5,0.101c-0.2,0.199-0.3,0.3-0.3,0.399c-0.3,0.5-0.4,0.9-0.2,1.4
		c0.2,0.399,0.5,0.5,1,0.6c0.2-0.1,0.3-0.1,0.4-0.2C46.4,89.021,46.3,88.221,45.1,87.721L45.1,87.721z"/>
	<path fill="#9B95C9" d="M112.2,53.321c-0.199-0.4-0.3-0.7-0.3-1.1c-7.6-3-15.7-3.5-24.1-1.6c-1.601,0.2-3.101,0.5-4.7,0.6
		c-9.2,0.5-18,2.5-26.5,5.9c-0.1,0.4-0.3,0.7-0.4,1.1c-0.3,0.7-0.6,1.4-0.8,2.101c-0.3,1.399-0.6,2.6-0.8,3.899c0,0,0,0,0,0.101
		c-0.1,0.399-0.2,0.8-0.1,1.3c-0.2,0.1-0.2,0.399-0.3,0.5c-0.1,0.6,0,1.1,0.1,1.6c0.1,0.101,0.2,0.101,0.3,0.2c0,0.1,0,0.2-0.1,0.2
		c0.2,0,0.4,0,0.6,0c0.4,0,0.8,0,1.2,0c10.2-0.4,20.5-1,30.8-1.8c8.9-0.7,17.8-2,26.3-3.601c0-0.1,0-0.2,0-0.3
		C113.5,59.221,113.1,56.221,112.2,53.321z M110.2,52.622c0.101-0.1,0.2-0.1,0.301-0.1c2,1.3,2.8,3.4,2.3,6.2
		c-0.101,0.8-0.3,1.601-0.601,2.4c-0.199,0.1-0.3,0.2-0.5,0.3c-0.199,0.1-0.399,0.2-0.5,0.2c-0.3-0.2-0.399-0.3-0.699-0.5
		c0,0-0.101-0.101-0.101-0.2c-0.2-2.6-0.399-5.2-0.7-7.8C109.7,52.821,109.8,52.622,110.2,52.622z M88,56.321c0-0.1,0-0.1,0-0.2
		c0.199-0.4,0.399-0.6,0.699-0.9c0.301-0.1,0.601-0.4,0.801-0.5c0.1-0.1,0.1-0.2,0.1-0.2c0.1-0.2,0.1-0.3,0.1-0.4
		c0.2-0.3,0.5-0.4,0.7-0.5c0.3,0,0.4,0,0.4,0c3.1,0.1,4.2,1.6,3.3,4.5c-0.3,1.1-1,2.1-1.9,2.899c-1.3,0.801-2.399,0.7-3.5-0.3
		c-0.199-0.2-0.399-0.399-0.5-0.5c-0.199-0.2-0.3-0.2-0.399-0.3c0-0.4-0.101-0.9,0-1.4c0-0.4,0-0.9,0-1.4c0,0,0-0.1,0.1-0.1
		C88,56.721,88.1,56.622,88,56.321z M85.8,58.921c-0.2,0.4-0.4,0.9-0.601,1.3c-1.3,2.101-2.899,3-5,2.7c-0.6-0.1-1-0.3-1.1-0.9
		c-1-2.8-0.4-4.899,2-6.6c0.3-0.3,0.8-0.5,1.2-0.4C85.1,54.921,86.2,56.221,85.8,58.921z M71.9,56.921c0-0.2,0-0.2,0-0.2
		c0.7-0.6,1.4-0.9,2.4-0.9c2.2,0.3,3,1.4,2.6,3.6c0,0.1,0,0.1,0,0.2c-0.9,2.7-2.8,4-5.8,3.8c-0.3,0-0.5-0.2-0.7-0.6
		c-0.5-1.601-0.3-3.101,0.5-4.5c0.2-0.3,0.5-0.7,0.9-1.1c0,0,0-0.1,0.1-0.1C71.9,57.021,71.9,57.021,71.9,56.921z M59.6,56.122
		c0.3-0.1,0.5-0.1,0.7-0.1c0.7,0,1.2,0.3,1.5,1c0.1,0,0.1,0.1,0.1,0.2c0,0.2,0,0.4-0.1,0.5c0,0.1-0.1,0.3-0.2,0.4
		c-0.7,0.3-1.5,0.6-2.3,0.9c0,0.1,0,0.1-0.1,0.2c-0.1,0-0.1,0.1-0.1,0.2c-0.2,0.1-0.2,0.2-0.2,0.3c-0.2,0.9-0.5,1.601-0.8,2.4
		c0,0.2-0.2,0.5-0.2,0.7c-0.3,0.399-0.8,0.699-1.4,0.6c-1.1-2.7-0.4-4.9,2-6.7C58.8,56.321,59.2,56.221,59.6,56.122z M62.8,58.721
		c0-0.2,0.1-0.4,0.1-0.4c0.5-0.2,1-0.5,1.6-0.7c0.1-0.1,0.4-0.2,0.5-0.3c2.3,0.7,2.9,2.2,2.2,4.4c-0.1,0.3-0.1,0.4-0.3,0.5
		c-1.5,2.3-3.5,2.9-5.9,2c-0.2-0.1-0.4-0.2-0.6-0.399c-0.3-1.801,0.2-3.301,1.6-4.4c0.1-0.2,0.4-0.3,0.6-0.4
		C62.7,58.821,62.7,58.721,62.8,58.721z M57.7,64.521c0.1,0,0.1,0.101,0.1,0.101c0,0.399-0.2,0.8-0.4,1.1c-0.1,0.2-0.1,0.3-0.1,0.4
		c-0.7,0.3-1.2,0.2-1.5-0.4c0-0.1,0-0.399,0-0.5c0-0.1,0-0.2,0-0.399c0.1-0.2,0.3-0.5,0.6-0.7c0.1,0,0.1-0.101,0.2-0.101
		c0-0.1,0-0.1,0-0.1c0.2,0,0.3,0,0.4-0.1l0,0c0.1,0,0.3,0.1,0.3,0.199C57.4,64.122,57.5,64.221,57.7,64.521z"/>
	<path fill="#C7C4E2" d="M110.5,52.521c-0.101,0-0.2,0-0.301,0.1c-0.399,0-0.5,0.2-0.5,0.5c0.301,2.6,0.5,5.2,0.7,7.8
		c0,0.1,0.101,0.2,0.101,0.2c0.3,0.2,0.399,0.3,0.699,0.5c0.101,0,0.301-0.101,0.5-0.2c0.2-0.1,0.301-0.2,0.5-0.3
		c0.301-0.8,0.5-1.6,0.601-2.4C113.3,55.921,112.5,53.821,110.5,52.521z"/>
	<path d="M88,56.122c0,0.1,0,0.1,0,0.2c0.1,0.3,0,0.4-0.101,0.7c-0.1,0-0.1,0.1-0.1,0.1c0,0.5,0,1,0,1.4c-0.101,0.5,0,1,0,1.4
		c0.1,0.1,0.2,0.1,0.399,0.3c0.101,0.101,0.301,0.3,0.5,0.5c1.101,1,2.2,1.101,3.5,0.3c0.9-0.8,1.601-1.8,1.9-2.899
		c0.9-2.9-0.2-4.4-3.3-4.5c0,0-0.101,0-0.4,0c-0.2,0.1-0.5,0.2-0.7,0.5c0,0.1,0,0.2-0.1,0.4c0,0,0,0.1-0.1,0.2
		c-0.2,0.1-0.5,0.4-0.801,0.5C88.4,55.521,88.2,55.721,88,56.122z M89.6,56.521c0.4-0.4,0.8-0.8,1.3-1.2c0.8-0.2,1.4,0.1,2,0.8
		c0,0.2,0,0.4,0,0.6c0,0.4-0.1,0.9-0.2,1.4c-0.1,0-0.1,0-0.199,0.1c-0.301,0.7-1,1.3-1.601,1.7c-0.7-0.1-1.2-0.4-1.6-1.1
		c0-0.2,0-0.5,0-0.7c0-0.5,0-1,0.1-1.4C89.5,56.622,89.5,56.622,89.6,56.521z"/>
	<path fill="#FFF200" d="M90.9,55.321c-0.5,0.4-0.899,0.8-1.3,1.2c-0.1,0.1-0.1,0.1-0.2,0.2c-0.1,0.4-0.1,0.9-0.1,1.4
		c0,0.2,0,0.5,0,0.7c0.399,0.7,0.899,1,1.6,1.1c0.601-0.4,1.3-1,1.601-1.7c0.1-0.1,0.1-0.1,0.199-0.1c0.101-0.5,0.2-1,0.2-1.4
		c0-0.2,0-0.4,0-0.6C92.3,55.421,91.7,55.122,90.9,55.321z"/>
	<path d="M85.2,60.221c0.2-0.4,0.4-0.9,0.601-1.3c0.399-2.7-0.7-4-3.5-3.9c-0.4-0.1-0.9,0.1-1.2,0.4c-2.4,1.7-3,3.8-2,6.6
		c0.1,0.601,0.5,0.801,1.1,0.9C82.3,63.221,83.9,62.322,85.2,60.221z M84,58.122c-0.1,0.5-0.1,1-0.1,1.5c-0.9,1.1-2,1.7-3.3,1.8
		c-0.1-0.2-0.2-0.3-0.3-0.5c0-0.4-0.2-0.9-0.2-1.3c-0.1-0.1,0-0.2,0-0.3c0.2-1.2,0.8-2,1.8-2.6c0.7-0.1,1.4-0.1,2,0c0,0,0,0.2,0,0.4
		c0.1,0,0.1,0.1,0.2,0.3C84,57.721,84,57.921,84,58.122z"/>
	<path fill="#FFF200" d="M83.9,59.622c0-0.5,0-1,0.1-1.5c0-0.2,0-0.4,0.1-0.7c-0.1-0.2-0.1-0.3-0.2-0.3c0-0.2,0-0.4,0-0.4
		c-0.6-0.1-1.3-0.1-2,0c-1,0.6-1.6,1.4-1.8,2.6c0,0.1-0.1,0.2,0,0.3c0,0.399,0.2,0.899,0.2,1.3c0.1,0.2,0.2,0.3,0.3,0.5
		C81.9,61.322,83,60.721,83.9,59.622z"/>
	<path d="M71.9,56.721c0,0,0,0,0,0.2c0,0.1,0,0.1,0,0.2c-0.1,0-0.1,0.1-0.1,0.1c-0.4,0.4-0.7,0.8-0.9,1.1c-0.8,1.4-1,2.9-0.5,4.5
		c0.2,0.399,0.4,0.6,0.7,0.6c3,0.2,4.9-1.1,5.8-3.8c0-0.1,0-0.1,0-0.2c0.4-2.2-0.4-3.3-2.6-3.6C73.3,55.821,72.6,56.122,71.9,56.721
		z M75.3,57.821c0,0.1,0,0.2,0,0.3c0,0,0,0,0,0.1c0,0.1,0.1,0.1,0.1,0.3c0.1,0,0.1,0.1,0.2,0.2c-0.1,0-0.1,0-0.2,0.1
		c0,0-0.1,0.1-0.1,0.2s0,0.1,0,0.2c0,0,0,0.1,0,0.2s0,0.1,0,0.2c-0.1,0.1-0.2,0.2-0.2,0.399c-0.5,0.601-1.1,1.2-1.8,1.7
		c-0.6,0-1.1,0-1.7,0c0,0,0,0,0-0.1c-0.3-2.1,0.6-3.5,2.6-4c0.1,0,0.1,0,0.1,0C74.8,57.521,75.1,57.622,75.3,57.821z"/>
	<path fill="#FFF200" d="M75.3,58.122c0-0.1,0-0.2,0-0.3c-0.2-0.2-0.5-0.3-1-0.2c0,0,0,0-0.1,0c-2,0.5-2.9,1.9-2.6,4
		c0,0.1,0,0.1,0,0.1c0.6,0,1.1,0,1.7,0c0.7-0.5,1.3-1.1,1.8-1.7c0-0.2,0.1-0.3,0.2-0.399c0-0.1,0-0.1,0-0.2s0-0.2,0-0.2
		c0-0.1,0-0.1,0-0.2s0.1-0.2,0.1-0.2c0.1-0.1,0.1-0.1,0.2-0.1c-0.1-0.1-0.1-0.2-0.2-0.2c0-0.2-0.1-0.2-0.1-0.3
		C75.3,58.122,75.3,58.122,75.3,58.122z"/>
	<path fill="#C7C4E2" d="M60.3,56.021c-0.2,0-0.4,0-0.7,0.1c-0.4,0.1-0.8,0.2-1.1,0.6c-2.4,1.8-3.1,4-2,6.7c0.6,0.1,1.1-0.2,1.4-0.6
		c0-0.2,0.2-0.5,0.2-0.7c0.3-0.8,0.6-1.5,0.8-2.4c0-0.1,0-0.2,0.2-0.3c0-0.1,0-0.2,0.1-0.2c0.1-0.1,0.1-0.1,0.1-0.2
		c0.8-0.3,1.6-0.6,2.3-0.9c0.1-0.1,0.2-0.3,0.2-0.4c0.1-0.1,0.1-0.3,0.1-0.5c0-0.1,0-0.2-0.1-0.2C61.5,56.321,61,56.021,60.3,56.021
		z"/>
	<path d="M62.9,58.321c0,0-0.1,0.2-0.1,0.4c-0.1,0-0.1,0.1-0.2,0.3c-0.2,0.1-0.5,0.2-0.6,0.4c-1.4,1.1-1.9,2.6-1.6,4.4
		c0.2,0.199,0.4,0.3,0.6,0.399c2.4,0.9,4.4,0.3,5.9-2c0.2-0.1,0.2-0.2,0.3-0.5c0.7-2.2,0.1-3.7-2.2-4.4c-0.1,0.1-0.4,0.2-0.5,0.3
		C63.9,57.821,63.4,58.122,62.9,58.321z M64.6,59.421c0.1-0.1,0.3-0.1,0.5-0.2c0.1,0.1,0.2,0.1,0.3,0.1c0.1,0,0.1,0,0.1,0.1
		c0.2,0.2,0.3,0.3,0.4,0.5c0.2,0.3,0.2,0.6,0.2,1c-1,1.6-2.5,2.2-4.2,2.2c0-0.3,0-0.4,0-0.7c0.1-0.3,0.2-0.7,0.4-0.8
		C63.1,60.822,63.9,60.122,64.6,59.421z"/>
	<path fill="#FFF200" d="M65.1,59.221c-0.2,0.1-0.4,0.1-0.5,0.2c-0.7,0.7-1.5,1.4-2.3,2.2c-0.2,0.1-0.3,0.5-0.4,0.8
		c0,0.3,0,0.4,0,0.7c1.7,0,3.2-0.601,4.2-2.2c0-0.4,0-0.7-0.2-1c-0.1-0.2-0.2-0.3-0.4-0.5c0-0.1,0-0.1-0.1-0.1
		C65.3,59.321,65.2,59.321,65.1,59.221z"/>
	<path fill="#C7C4E2" d="M57.8,64.622c0,0,0-0.101-0.1-0.101c-0.2-0.3-0.3-0.399-0.4-0.5c0-0.1-0.2-0.199-0.3-0.199l0,0
		c-0.1,0.1-0.2,0.1-0.4,0.1c0,0,0,0,0,0.1c-0.1,0-0.1,0.101-0.2,0.101c-0.3,0.2-0.5,0.5-0.6,0.7c0,0.199,0,0.3,0,0.399
		c0,0.101,0,0.4,0,0.5c0.3,0.601,0.8,0.7,1.5,0.4c0-0.101,0-0.2,0.1-0.4C57.6,65.421,57.8,65.021,57.8,64.622z"/>
	<path fill="#8ED8F8" d="M157.7,97.122c0,0.1,0,0.1,0.101,0.2c0.2,0,0.6,0.199,0.899,0.3c0.5,0.1,1.101,0.2,1.601,0.399
		c0.7,0.101,1.399,0.5,2,0.801c0-0.101,0-0.101,0-0.101c0-0.2,0-0.5,0-0.7c0-0.199,0-0.3,0-0.399c-0.3-0.5-0.601-0.8-1-1.101
		c-1-0.699-1.9-1.399-2.8-2.199c-2.601-1-5.101-1.4-7.301-1.5c-1,0-1.899,0-2.899,0.199c-2.8,0.2-5.4,1.101-8,2.801
		c-0.7,0.5-1.4,1.199-2.2,1.8c-0.9,0.899-1.9,1.8-2.9,2.899c0,0.101,0,0.2,0,0.301c0,0,0,0,0,0.1c-0.3,0.2-0.5,0.4-0.8,0.8
		c-0.6,0.7-1.2,1.5-1.7,2.5c-0.3-0.2-0.5-0.399-0.8-0.5c0,0.101,0,0.101,0,0.101c-0.5-0.2-0.899-0.301-1.399-0.601
		c-0.101,0-0.301,0-0.601,0c-0.1,0-0.2,0-0.399,0c-2-0.7-3.9-0.6-5.9,0.3c-0.2-0.1-0.3-0.1-0.4,0c-0.5,0-1.1,0.101-1.6,0.301
		c-0.2,0-0.3,0-0.3,0.1c-0.3,0.1-0.4,0.2-0.4,0.3c-0.1,0.101-0.2,0.3-0.2,0.5v0.101c0,0.1,0,0.1,0,0.199c0,0,0,0.101,0.101,0.2
		c0,0,0,0-0.101,0c0.101,0.101,0.101,0.101,0.101,0.101c0.1,0,0.2,0.1,0.399,0.199c0.7,0.2,1.601,0.4,2.301,0.5
		c1.399,1.2,2.8,2.601,4.1,3.7h0.1c0,0,0-0.1,0.101-0.1c0.399,0.5,0.899,0.899,1.399,1.399c0,0.101,0,0.2,0.101,0.2
		c0,0.2,0,0.2,0.1,0.2c0.9,0.8,1.7,1.9,2.3,3c-0.1,0.2-0.1,0.4-0.199,0.6c0,0.101-0.101,0.2-0.101,0.4c-0.399,0.1-0.899,0.3-1.2,0.3
		c-0.3-0.1-0.399-0.3-0.6-0.6c-0.3-0.2-0.4-0.4-0.5-0.601l-0.1,0.101c-0.101-0.3-0.301-0.7-0.5-0.9c-0.2-0.1-0.301-0.3-0.5-0.399
		v-0.101c-0.101,0-0.301-0.1-0.5-0.1c0-0.2,0-0.2,0-0.3c-0.301-0.301-0.601-0.7-0.7-1c-0.9-0.4-1.7-0.9-2.3-1.7
		c-0.7-0.8-1.5-1.5-2.2-2.3c-1-0.301-2-0.7-3-1.101c-0.2,0.101-0.3,0.2-0.4,0.4h-0.1c-1,0-2.101,0-3.101,0
		c-0.1-0.101-0.199-0.101-0.3-0.101c-0.1,0-0.2,0-0.2,0.101c-0.1-0.101-0.199-0.3-0.3-0.3c0-0.101-0.1-0.101-0.1-0.101
		c-0.3-0.2-0.5-0.399-0.601-0.6c-0.199-0.101-0.3-0.2-0.5-0.4c-0.5-0.2-1-0.6-1.5-0.899c0,0,0-0.101,0-0.2
		c-1.8-1.4-3.699-2.5-5.5-3.3c-0.199-0.2-0.199-0.4-0.3-0.601c0-0.2-0.1-0.399-0.1-0.6c-0.101-0.101-0.2-0.4-0.3-0.5
		c-0.2-0.5-0.4-0.8-0.7-1.101c-0.101-0.199-0.3-0.3-0.4-0.199c-1.899-0.301-3.899-0.101-5.6,0.8c-0.5,0.6-1.101,1.1-1.601,1.6
		c-0.699,0.2-1.3,0.5-1.899,0.8c0,0,0,0-0.101,0c0.101,0.101,0.101,0.101,0.101,0.2c-0.5,0.2-0.9,0.4-1.4,0.8
		c-0.1,0.101-0.399,0.2-0.5,0.5c-2.7,0.5-4.899,1.601-6.3,3.5c0.1,0.101,0.1,0.2,0.1,0.2c0.101,0,0.101,0.101,0.2,0.101
		c0,0.1,0,0.1,0.2,0.1c0.3,0,0.7,0,1.1,0c0.801-1.2,2.101-2.1,3.9-2.7c0.4,0.101,0.8,0.101,1.1,0.3c0.2,0.2,0.5,0.301,0.601,0.5
		c0,0.2,0,0.301,0.1,0.601c-0.1,0.5-0.1,1.1-0.1,1.6c0.1,0.101,0.2,0.3,0.2,0.3c0.399,0.2,0.899,0.2,1.399,0c0,0,0,0,0.101,0
		c0.1-0.199,0.199-0.3,0.399-0.399c0.2-0.4,0.5-0.601,0.9-1c1.2,0,2.5,0,3.7,0c0.1,0,0.199,0,0.3,0c0.399,0.6,0.5,1.1,0.5,1.7
		c-0.101,0.1-0.101,0.199,0,0.3c-0.101,0.2-0.101,0.5,0,0.6c0.5,0.4,1.1,0.7,1.7,0.9c0,0,0.1,0,0.199,0.1h0.101
		c0.3-0.1,0.6-0.2,0.899-0.399c0.101-0.101,0.4-0.301,0.601-0.601c0-0.1,0-0.399,0.1-0.5c2.3-0.899,4-0.6,5.4,0.9
		c0.3,0.2,0.6,0.5,0.899,0.7c0,0.3,0.101,0.5,0.101,0.8v0.1c0,0,0.1,0.2,0.2,0.4c0,0.1,0,0.3,0.1,0.5c0,0,0,0,0,0.1
		c0.1,0.2,0.2,0.5,0.3,0.7c0.5,0.5,1.101,1,1.8,1.5c0.101,0.2,0.2,0.3,0.2,0.5l0,0c0.9,0.6,2,0.8,3.101,0.8
		c0.8,0.9,1.699,1.3,2.899,1.101c0,0.3,0.101,0.5,0.3,0.6c1.301,1.4,2.7,1.5,4,0.4c0.101,0,0.2,0,0.5,0.1c0.101,0,0.301,0,0.601,0.2
		c0.899,0.5,1.899,0.5,2.7-0.101c0.5-0.399,0.8-0.8,0.8-1.399c0.2,0.3,0.6,0.6,1,0.899c0.3,0.301,0.7,0.301,1.1,0
		c1.101-0.8,1.5-1.8,1.4-3.1c0.1,0.1,0.2,0.2,0.399,0.3c1.9,1.2,3.5,0.7,4.601-1.3c0-0.1,0-0.2,0-0.3c0,0,0,0,0.1-0.101
		c-0.1-0.1-0.1-0.1-0.1-0.1c-0.4,0-0.8-0.2-1-0.3c0-0.2,0-0.4,0-0.5c0.1-0.4,0.3-0.7,0.5-1.101c0-0.1,0.1-0.3,0.3-0.399
		c0-0.101,0.1-0.2,0.2-0.2c0-0.2,0-0.2,0-0.3c0-0.101,0-0.2,0-0.3c0-0.301,0-0.7,0-1.101c0-0.399,0-0.7,0-1.1
		c0.1-0.2,0.2-0.4,0.5-0.601c0-0.199,0.1-0.399,0.1-0.5c0.101-0.3,0.101-0.399,0.101-0.699c0-0.101,0-0.301,0-0.5
		c1.899-1.301,4-1.7,6.3-1c0.1,0.199,0.3,0.399,0.399,0.699l0.101,0.101c0.1-0.101,0.3-0.3,0.5-0.4c0-0.1,0-0.3-0.101-0.5
		c-0.199-0.2-0.3-0.5-0.399-0.6c0-0.2,0-0.4,0-0.5c0-0.5,0-0.9,0-1.2c0-0.4,0-0.7,0-1.1c0.5-1.101,1.2-1.801,2.399-2.2
		c1.4-0.4,2.801-0.5,4.301-0.5c0.1-0.5,0.3-0.601,0.5-0.7c0.899-0.2,1.899-0.3,2.899-0.4c0.4,0,1-0.199,1.5,0
		c0,0.101,0.2,0.301,0.3,0.5V97.122z M106.4,101.122c0,0.1,0,0.1,0.101,0.2c-3.2,0.699-6.2,1.6-9.2,2.699
		c-0.3,0.101-0.4,0-0.7-0.199c-0.2-0.101-0.3-0.2-0.4-0.301c0,0,0-0.199,0-0.3v-0.1c0-0.101,0-0.2,0-0.3
		c1.7-1.7,3.801-2.9,6.5-3.301c0.101,0,0.2,0,0.301-0.1C104.9,99.122,105.9,99.721,106.4,101.122z M135.9,100.921
		c0.9-2.2,2.5-3.9,4.9-4.8c2.5-0.9,5-1.4,7.5-1.5c0.1,0.1,0.399,0.2,0.6,0.2c0.101,0.1,0.3,0.199,0.3,0.3
		c-1.399,1.7-3.399,2.899-5.899,3.5c-2.9,0.6-4.9,2.2-6,4.6C135.7,103.221,135.3,102.521,135.9,100.921z M130,105.421
		c0,0.1,0,0.2,0,0.3c0,0,0,0.101-0.101,0.2c-0.1,0.1-0.1,0.2-0.1,0.2c-2.2,0-4.3-0.4-6.3-1.101c-0.101,0-0.101-0.1-0.101-0.199
		c-0.1,0-0.1-0.101-0.1-0.2c0,0,0-0.101,0.1-0.101c0-0.199,0-0.3,0.101-0.399c0.399-0.4,0.8-0.5,1.399-0.5c0.4,0,0.8,0,1.101-0.101
		c1.5,0.101,2.899,0.601,3.899,1.7C130,105.322,130,105.322,130,105.421z"/>
	<path fill="#C7EAFB" d="M106.5,101.322c-0.101-0.101-0.101-0.101-0.101-0.2c-0.5-1.4-1.5-2-3.399-1.7c-0.101,0.1-0.2,0.1-0.301,0.1
		c-2.699,0.4-4.8,1.601-6.5,3.301c0,0.1,0,0.199,0,0.3v0.1c0,0.101,0,0.3,0,0.3c0.101,0.101,0.2,0.2,0.4,0.301
		c0.3,0.199,0.4,0.3,0.7,0.199C100.3,102.921,103.3,102.021,106.5,101.322z"/>
	<path fill="#C7EAFB" d="M140.8,96.122c-2.4,0.899-4,2.6-4.9,4.8c-0.6,1.6-0.2,2.3,1.4,2.3c1.1-2.399,3.1-4,6-4.6
		c2.5-0.601,4.5-1.8,5.899-3.5c0-0.101-0.199-0.2-0.3-0.3c-0.2,0-0.5-0.101-0.6-0.2C145.8,94.721,143.3,95.221,140.8,96.122z"/>
	<path fill="#C7EAFB" d="M130,105.721c0-0.1,0-0.2,0-0.3s0-0.1-0.101-0.2c-1-1.1-2.399-1.6-3.899-1.7
		c-0.301,0.101-0.7,0.101-1.101,0.101c-0.6,0-1,0.1-1.399,0.5c-0.101,0.1-0.101,0.2-0.101,0.399c-0.1,0-0.1,0.101-0.1,0.101
		c0,0.1,0,0.2,0.1,0.2c0,0.1,0,0.199,0.101,0.199c2,0.7,4.1,1.101,6.3,1.101c0,0,0-0.101,0.1-0.2
		C130,105.822,130,105.721,130,105.721z"/>
	<path fill="#007DC5" d="M151.9,99.721c-0.6,0-1.2,0-1.899-0.1c0.199,0.1,0.3,0.2,0.399,0.3c0,0,0,0.1,0.2,0.2
		c-0.2,0.1-0.2,0.2-0.3,0.399c0,0.101-0.2,0.2-0.3,0.301c-0.101,0.199-0.2,0.399-0.4,0.6c-0.2,0.1-0.2,0.2-0.3,0.3
		c-0.101,1.3-0.3,2.601-0.3,4c0,0.4-0.101,0.7-0.2,1.101c-0.101,0.3-0.3,0.3-0.5,0.3c-0.2-0.101-0.4-0.101-0.5-0.2
		c0-0.2,0-0.2,0-0.4c-0.101,0.101-0.101,0.2-0.2,0.2c0,0,0,0.101,0.1,0.3h-0.1c-0.1-0.1-0.1-0.1-0.1-0.199
		c-0.101,0-0.101,0-0.101,0.1c-0.1,0.2-0.3,0.3-0.5,0.6c-0.899,0-1.6,0-2.5,0c-0.1-0.3-0.2-0.399-0.3-0.699
		c-0.1-0.101-0.1-0.301,0-0.5c0.1-0.2,0.1-0.301,0.2-0.601v-0.1c-0.8,0-1.601,0-2.4,0c0,0.1,0,0.399-0.1,0.5c0,0.1,0,0.2,0,0.3
		c0.399-0.3,0.8-0.6,1.3-0.8c0.4,0.1,0.7,0.2,0.8,0.5c0,0.1,0,0.2,0,0.3c-1,1.7-1.899,3.5-2.6,5.3c0,0.101,0,0.2,0,0.4
		c-0.4,0-0.9-0.2-1.2-0.7c-0.1-0.2-0.2-0.3-0.2-0.3c0-0.2,0-0.4,0.101-0.601c0.1-0.1,0.199-0.399,0.199-0.399
		c0.101-1.5,0.5-2.601,1.5-3.5c-0.3,0.1-0.399,0.1-0.399,0.1c-0.4,0.101-0.7,0.3-1,0.4c-0.4,0.5-0.7,1-0.601,1.7
		c0.101,0.899,0.101,1.899,0,2.8c-0.1,0.3-0.1,0.6-0.199,1c-0.2,0-0.301,0-0.5,0c-0.2-0.101-0.5-0.101-0.601-0.101
		c-0.1,0.101-0.1,0.101-0.1,0.101c0.7,1.5,1.7,1.899,3.2,1.1c0.6,0.101,1.199,0,1.8-0.3c0.6,0,1.2,0,1.7-0.2
		c0.699,0.2,1.3,0.4,2,0.601c1.899,0.6,3.6,0.5,4.899-0.5c0.601,0,1.3-0.101,1.9-0.301c0.399,0.4,0.8,0.601,1.3,0.601
		c0.2-0.2,0.4,0,0.7,0c0.7,0.1,1.399,0,2-0.5c0.2-0.2,0.5-0.4,0.6-0.5c-1-0.7-2.1-1.2-3.2-1.5c-0.899-1.4-1.8-2.8-2.699-4
		c0-0.2,0-0.4,0-0.601c-0.101-0.199-0.2-0.399-0.2-0.5c-0.101-0.3-0.4-0.399-0.5-0.699c0-0.7,0-1.5,0-2.2c0-0.2,0-0.4,0-0.5
		c0.399-0.5,0.6-1.101,0.899-1.601c0-0.1-0.199-0.1-0.199-0.199c0-0.101-0.101-0.2-0.2-0.5C152.3,100.122,152.1,99.921,151.9,99.721
		z"/>
	<path fill="#00AEEF" d="M148.3,99.622c0,0-0.101,0-0.3,0c-0.101,0.1-0.101,0.2-0.101,0.399c0,0,0.101,0,0.2,0
		c0.1-0.1,0.2-0.199,0.3-0.199c0.101-0.101,0.2-0.101,0.3-0.2C148.5,99.622,148.4,99.622,148.3,99.622z"/>
	<path fill="#0095DA" d="M149.2,99.421v0.1c-0.199,0-0.3,0-0.5,0.101l0,0c-0.1,0.1-0.199,0.1-0.3,0.2c-0.1,0-0.2,0.1-0.3,0.199
		c-0.2,0.101-0.3,0.2-0.3,0.5c-0.2,0-0.3,0.101-0.3,0.2c-0.101,0.101-0.101,0.2-0.101,0.3c0,0,0,0,0,0.101c0,0.2-0.1,0.5,0,0.6
		c-0.1,0.101-0.1,0.101,0,0.2c-0.1,1.6,0,3.1,0.4,4.6c0,0.2,0,0.2,0,0.4c0.1,0.1,0.3,0.1,0.5,0.2c0.2,0,0.399,0,0.5-0.3
		c0.1-0.4,0.2-0.7,0.2-1.101c0-1.399,0.199-2.7,0.3-4c0.1-0.1,0.1-0.2,0.3-0.3c0.2-0.2,0.3-0.4,0.4-0.6c0.1-0.101,0.3-0.2,0.3-0.301
		c0.1-0.199,0.1-0.3,0.3-0.399c-0.2-0.101-0.2-0.2-0.2-0.2c-0.1-0.1-0.2-0.2-0.399-0.3C149.8,99.521,149.4,99.421,149.2,99.421z"/>
	<path fill="#00AEEF" d="M147.4,101.122L147.4,101.122c-0.1,0-0.1,0.1-0.1,0.2c-0.101,0.199,0,0.3,0,0.399c0,0.101,0,0.101,0.1,0.2
		c-0.1-0.1-0.1-0.1,0-0.2C147.3,101.622,147.4,101.322,147.4,101.122z"/>
	<path fill="#0095DA" d="M143.9,106.421c0-0.1,0-0.2,0-0.3c-0.1-0.3-0.399-0.4-0.8-0.5c-0.5,0.2-0.9,0.5-1.3,0.8
		c0,0.1-0.101,0.1-0.101,0.2c-1,0.899-1.399,2-1.5,3.5c0,0-0.1,0.3-0.199,0.399c-0.101,0.2-0.101,0.4-0.101,0.601
		c0,0,0.101,0.1,0.2,0.3c0.3,0.5,0.8,0.7,1.2,0.7c0-0.2,0-0.3,0-0.4C142,109.921,142.9,108.122,143.9,106.421z"/>
	<path fill="#00AEEF" d="M127.7,109.921c0-0.1,0-0.2,0-0.2h-0.1C127.6,109.822,127.6,109.822,127.7,109.921z"/>
	<path fill="#00AEEF" d="M129,114.122c-0.101-0.2-0.301-0.4-0.5-0.4c0.199,0.2,0.399,0.601,0.5,0.9l0.1-0.101
		C129,114.421,129,114.221,129,114.122z"/>
	<path fill="#8ED8F8" d="M107.8,109.322c-0.101,0-0.3,0-0.4,0c0,0.1,0,0.1,0,0.199c-0.1,0.101-0.1,0.2-0.2,0.2
		c0.601,0,1-0.1,1.5-0.399C108.3,109.322,108.1,109.322,107.8,109.322z"/>
	<path fill="#007DC5" d="M107.2,109.721c0,0,0,0,0,0.101c-0.3,0.3-0.5,0.699-0.8,1.1c-0.1,0-0.1,0.1-0.1,0.2c-1.5,0-3,0-4.5,0
		c-0.3-0.2-0.5-0.4-0.601-0.7c-0.199-0.1-0.3-0.3-0.5-0.5c0-0.2,0-0.3,0-0.6c0-0.301,0-0.7,0-1.101c0-0.1,0-0.2,0-0.399
		c-0.8,0-1.5,0-2.199,0c-0.101,0.3-0.2,0.5-0.2,0.8c0.5,0.7,0.8,1.5,0.899,2.5c0.101,0,0.101,0.1,0.2,0.3c0,0.1,0,0.3,0,0.7
		c0,0.1,0,0.3,0,0.5c-0.1,0.1-0.1,0.1-0.1,0.1c-0.101,0.2-0.101,0.5-0.101,0.7c0,0.3,0,0.4,0,0.7c-0.199,0.1-0.399,0.3-0.699,0.6
		c0.3,0.4,0.8,0.7,1.3,0.5c1.899-0.2,3.8-0.5,5.8-0.5c0.6,0.5,1.3,0.7,1.9,0c0.399,0.101,0.8,0.2,1.199,0.101
		c0,0.1,0.2,0.199,0.2,0.3c1.2,1.399,2.5,1.399,3.9,0c0.2-0.2,0.399-0.601,0.399-0.9c-0.3-0.1-0.699-0.2-0.899-0.3
		c-0.101,0-0.2,0-0.3,0c-0.101-0.1-0.101-0.1-0.101-0.1c-0.1-0.101-0.399-0.4-0.6-0.601c0-0.1,0-0.3-0.101-0.5c0-0.1,0-0.399,0-0.6
		c-0.1,0-0.1,0-0.199,0c-0.101-0.2-0.2-0.2-0.301-0.4c-0.199,0-0.3-0.1-0.3-0.1c-0.1-0.5-0.3-0.7-0.5-1c-0.2-0.5-0.6-0.9-1-1.2
		l-0.2-0.1C108.2,109.622,107.8,109.721,107.2,109.721z"/>
	<path fill="#0095DA" d="M108.8,109.322c-0.101,0-0.101,0-0.101,0l0.2,0.1c0-0.1,0-0.1,0-0.1S108.9,109.322,108.8,109.322z"/>
	<path fill="#812990" d="M69.3,102.622c-1,0-1.9,0-2.7,0.1c-1.5-0.7-2.8-1.3-4.3-1.899c-0.1,0-0.2,0-0.2-0.101c-4-2.2-8.5-3-13.4-2
		c-0.3,0-0.6,0-1.1,0.101c-0.2,0-0.4,0-0.5,0.1c0,0.1,0,0.1,0,0.2c-0.2,0-0.2,0-0.3,0c-0.6,0.2-1.1,0.5-1.5,0.899
		c-0.2-0.199-0.2-0.3-0.3-0.5c-0.1,0.101-0.4,0.2-0.6,0.301c-0.1,0-0.2,0.1-0.3,0.199c-1.5,0.7-2.8,1.7-3.8,2.7
		c-0.7,0.4-1.2,1-1.7,1.5c-0.2,0.101-0.3,0.101-0.3,0.101c-0.3,0-0.6-0.101-0.9-0.2c-0.5,0-1.1,0-1.8,0c-0.5,0-0.9,0-1.4,0
		s-1.1,0-1.6,0c-0.3-0.2-0.7-0.4-1-0.601c-0.3-0.199-0.7-0.399-0.9-0.5c-0.2-0.199-0.4-0.3-0.6-0.399c0-0.101,0-0.101-0.1-0.101
		c-1,0-1.9,0-2.9,0.101c-0.2,0.1-0.5,0.399-0.7,0.6c-0.2,0.2-0.3,0.3-0.5,0.5c-0.3,0-0.6-0.1-0.9-0.2c-0.2,0-0.4-0.3-0.4-0.399
		c0-0.2,0-0.4,0-0.5c-0.1-0.2,0-0.4,0-0.5c0-0.101,0-0.101,0-0.101c-0.2,0.101-0.4,0.2-0.6,0.4c-1.9,1.6-3.9,3.1-5.9,4.4
		c0,0,0,0,0,0.1c-1.2,0.5-1.8,1.3-1.7,2.5c0.2,0.1,0.2,0.2,0.4,0.3c0.2,0.101,0.4,0.2,0.6,0.4c0.1,0,0.1,0,0.1,0
		c0.5,0,0.7,0,1.1-0.101c0.1-0.1,0.2-0.1,0.3-0.1c0.4,0,0.9-0.2,1.3-0.2c0,0,0,0,0.1,0c0.7-0.7,1.5-1.1,2.4-1.399
		c1.2-0.301,2.1-0.601,2.7-1.101c1,0.101,2,0.3,2.9,0.4c0.5-0.2,1-0.2,1.8-0.101l0,0c0.8,0.2,1.8,0.5,3,1.101
		c3.5,1.5,6.8,1.1,9.7-1.5c1.1-1,2.2-1.9,3.3-2.601c0.4-0.3,0.8-0.5,1.1-0.699c0.6-0.301,1-0.601,1.5-0.801
		c5.6,0.101,10.9,1.301,15.8,3.7c1.1,0.601,2.4,0.601,4,0c2-0.7,4.1-1.6,6.1-2.399c1.7-0.601,3.7-1.101,5.7-1.301
		c0.4,0.101,0.8,0.101,1.3,0.101c0.3,0.399,0.7,0.7,1.3,1c0.7,0.5,1.4,1,2.101,1.399c0.1,0.101,0.3,0.2,0.3,0.2l0.1-0.1
		c1.4-1.3,2.8-2.2,4.3-3.101c0.7-0.399,1.5-0.8,2.301-1.1c0.199-0.1,0.3-0.1,0.5-0.2c-0.301-0.1-0.601-0.3-0.9-0.5
		c-0.7-0.399-1.4-0.7-2.1-1.1c-1-0.601-2-1.3-2.9-1.9c-0.1-0.1-0.2-0.1-0.3-0.1c-5.7-2.5-10.4-1.7-14,2.2v0.199c-0.1,0-0.2,0-0.2,0
		c-0.6,0.5-1.2,0.801-1.6,1.301c1.3-1,2.6-1.801,4.1-2.601c0.2,0,0.3,0,0.5-0.1c0.5,0,1.1,0.1,1.5,0.5l0,0
		c-1.8,2.399-4.3,4-7.2,4.899c-0.1,0.101-0.4,0-0.7-0.199c-0.1-0.101-0.2-0.2-0.3-0.301C68.6,103.221,68.9,102.822,69.3,102.622z
		 M45.4,100.622c0.1-0.101,0.2-0.101,0.3-0.101s0.2,0.101,0.4,0.2c0,0,0,0,0.1,0.101c0.4-0.101,0.7-0.101,1.1,0c0-0.101,0,0,0,0
		c-0.4,0.1-0.7,0.199-1,0.3c-2,1.5-4.1,2.899-6.2,4.2c-0.5-0.101-0.8-0.301-1-0.601C40.3,102.122,42.4,100.822,45.4,100.622z"/>
	<path fill="#9B95C9" d="M45.7,100.521c-0.1,0-0.2,0-0.3,0.101c-3,0.2-5.1,1.5-6.3,4.1c0.2,0.3,0.5,0.5,1,0.601
		c2.1-1.301,4.2-2.7,6.2-4.2c0.3-0.101,0.6-0.2,1-0.3c0,0,0-0.101,0,0c-0.4-0.101-0.7-0.101-1.1,0c-0.1-0.101-0.1-0.101-0.1-0.101
		C45.9,100.622,45.8,100.521,45.7,100.521z"/>
	<path fill="#5B75A7" d="M72.3,99.822c0,0.1,0,0.1,0,0.199V99.822L72.3,99.822z"/>
	<path fill="#9B95C9" d="M74.6,98.721c-1.5,0.8-2.8,1.601-4.1,2.601c-0.4,0.399-0.9,0.8-1.2,1.3c-0.4,0.2-0.7,0.6-0.9,0.899
		c0.1,0.101,0.2,0.2,0.3,0.301c0.3,0.199,0.6,0.3,0.7,0.199c2.9-0.899,5.4-2.5,7.2-4.899l0,0c-0.4-0.4-1-0.5-1.5-0.5
		C74.9,98.721,74.8,98.721,74.6,98.721z"/>
	<path fill="#0066B3" d="M58.6,107.622c-1.3-0.4-2.6-0.9-3.8-1.4c-3.2-1.3-6.2-1.3-9,0c-1.1,0.5-2,1.101-3,1.9
		c-0.5,0.399-0.8,0.7-1.2,1c-0.5,0.5-0.9,0.8-1.3,1.1c0,0.101,0,0.2,0,0.3c1.6-1.899,3.7-3.1,6.3-3.699c0.3,0,0.6-0.101,0.9-0.101
		c0.1-0.1,0.1-0.1,0.3-0.2c0.4,0.301,0.8,0.301,1.3,0.2c0.2,0,0.3,0,0.6,0c0.1,0,0.1,0.101,0.2,0.2c0,0.1,0,0.2-0.1,0.2
		c-0.1,0.2-0.4,0.399-0.7,0.399c-0.2,0-0.4,0-0.5,0.101c-2.9,1.1-5.5,2.6-8,4.5c0,0-0.2,0-0.3,0.1c-0.2-0.1-0.4-0.3-0.7-0.5
		c0,0,0,0-0.1-0.1c0.2-0.4,0.4-0.7,0.8-0.9c-1.2,0.7-2.3,1-3.7,0.7c0,0-0.1,0-0.2,0c-0.8,0-1.5,0-2.4-0.3c-0.6-0.2-1-0.4-1.5-0.7
		c-1.1-0.5-2.2-1.1-3.2-1.6c-3.5,1.199-7.1,2.3-10.7,3.1c-0.6,0.2-1.3,0.2-2,0c-0.2-0.1-0.3-0.3-0.5-0.5c-0.3-0.4-0.6-0.7-0.9-1.1
		c-0.6,0.1-1.1,0.399-1.7,0.699c-0.8,0.4-1.5,0.7-2.3,1.101c-1.5,0.6-2.8,1.5-3.7,2.8c1.2,0,2.9,0.3,4.7,1c0.8,0.3,1.5,0.5,2.3,0.8
		c2.1-0.6,4.1-1.2,6.1-2c1-0.5,1.9-1,2.6-1.5c1.6-0.1,3.2,0,4.7,0.5c0-0.1,0.1-0.3,0.2-0.5c0.2,0,0.2,0.101,0.5,0.2
		c0.5,0.4,1,0.7,1.5,1c0.2,0.1,0.3,0.3,0.5,0.3c0.7,0.4,1.5,0.8,2.3,1.101c0.4,0.1,0.7,0.3,1,0.5c0.2-0.101,0.4-0.101,0.7-0.101
		c1-0.1,2.1-0.1,3.2-0.3c0.9,0,1.8-0.1,2.7-0.2c0.9-0.1,1.8-0.6,2.4-1.5c0.2-0.1,0.4-0.1,0.7-0.2c2.2-0.899,4.4-1.8,6.6-2.899
		c0.1,0,0.1,0,0.1,0c1.8,0.1,3.7,0.3,5.5,0.5c0.1,0,0.2,0,0.3,0c4.6,0.5,9.2,1,13.8,1.8c1.5,0.2,2.8-0.3,3.9-1.5
		c6.1,0.3,12,1,17.8,2.4c1.8-0.601,3.8-0.9,5.8-1.2c0.101-0.101,0.101-0.2,0.2-0.2c0-0.7,0-1.4,0-2c0-0.2,0-0.5,0-0.7
		c-0.1-0.1-0.1-0.1-0.2-0.1c-0.8,0-1.7,0-2.6,0.1c-0.4-0.3-0.9-0.6-1.4-1.1c-0.1-0.101-0.3-0.3-0.5-0.5c0-0.101,0-0.4,0-0.601
		c0-0.199,0-0.3,0-0.5c-1-0.5-2,0-3.1,1.5c-1.101,0-2.2,0-3.3,0c-0.2-0.199-0.4-0.399-0.601-0.699c-0.1-0.101-0.3-0.301-0.5-0.5
		c0-0.2,0-0.301,0-0.601c-0.1,0.101-0.1,0.3-0.1,0.3c-0.4,0-0.7,0-1,0c-0.5-0.399-1.2-0.8-1.7-1.199c-0.5-0.301-1-0.7-1.5-1.101
		c-0.2-0.1-0.5-0.2-0.8-0.399c-4.4,0.5-8.5,2-12.2,4.699c-0.2,0.101-0.3,0.2-0.5,0.2c-2-0.3-3.8-0.7-5.8-1.1
		C60.7,108.221,59.6,107.921,58.6,107.622z M53.8,107.622c0.1,0,0.3,0.1,0.3,0.1c-0.3,0.9-0.9,0.9-1.8,0.101c0,0-0.1-0.101,0-0.2
		c0-0.101,0-0.101,0-0.101l0,0c0.1-0.1,0.3-0.199,0.3-0.3C53.1,107.322,53.4,107.521,53.8,107.622z M26,111.021
		c0.1,0.101,0.3,0.101,0.5,0.101c-1.2,1-2.6,1.7-4.1,2.3c-0.4,0.2-0.8,0.3-1.3,0.5c-1,0.5-1.9,0.4-2.4-0.3c1.5-1.4,3.4-2.2,5.6-2.7
		c0.3-0.1,0.5-0.2,0.6-0.2C25.3,110.822,25.6,110.921,26,111.021z M81.4,105.921c0.2,0,0.2,0.1,0.2,0.2c-0.3,1.5-1.2,1.8-2.7,0.7
		c0-0.101,0-0.301,0-0.4c0-0.2,0-0.3,0-0.4c0.2-0.199,0.3-0.3,0.5-0.399c0.2-0.101,0.4-0.2,0.5-0.3
		C80.6,105.322,81.1,105.521,81.4,105.921z M77.7,106.822c0.1,0,0.2,0.1,0.2,0.199c-1.7,1.301-3.6,2.5-5.8,3.301
		c-0.3,0.1-0.7,0.199-1,0.399c-1.2,0.2-1.8-0.3-1.8-1.399c1.6-1.801,3.8-2.9,6.3-3.2C76.5,106.122,77.2,106.322,77.7,106.822z"/>
	<path fill="#0095DA" d="M54.1,107.721c0,0-0.2-0.1-0.3-0.1c-0.4-0.101-0.7-0.3-1.2-0.4c0,0.101-0.2,0.2-0.3,0.3l0,0
		c0,0,0,0,0,0.101c-0.1,0.1,0,0.2,0,0.2C53.2,108.622,53.8,108.622,54.1,107.721z"/>
	<path fill="#0095DA" d="M26.5,111.122c-0.2,0-0.4,0-0.5-0.101c-0.4-0.1-0.7-0.199-1.1-0.3c-0.1,0-0.3,0.101-0.6,0.2
		c-2.2,0.5-4.1,1.3-5.6,2.7c0.5,0.7,1.4,0.8,2.4,0.3c0.5-0.2,0.9-0.3,1.3-0.5C23.9,112.822,25.3,112.122,26.5,111.122z"/>
	<path fill="#0095DA" d="M81.6,106.122c0-0.101,0-0.2-0.2-0.2c-0.3-0.4-0.8-0.6-1.5-0.6c-0.1,0.1-0.3,0.199-0.5,0.3
		c-0.2,0.1-0.3,0.2-0.5,0.399c0,0.101,0,0.2,0,0.4c0,0.1,0,0.3,0,0.4C80.4,107.921,81.3,107.622,81.6,106.122z"/>
	<path fill="#0095DA" d="M77.9,107.021c0-0.1-0.1-0.199-0.2-0.199c-0.5-0.5-1.2-0.7-2.1-0.7c-2.5,0.3-4.7,1.399-6.3,3.2
		c0,1.1,0.6,1.6,1.8,1.399c0.3-0.2,0.7-0.3,1-0.399C74.3,109.521,76.2,108.322,77.9,107.021z"/>
	<path fill="#0095DA" d="M49.7,106.721c-0.3,0-0.4,0-0.6,0c-0.5,0.101-0.9,0.101-1.3-0.2c-0.2,0.101-0.2,0.101-0.3,0.2
		c-0.3,0-0.6,0.101-0.9,0.101c-2.6,0.6-4.7,1.8-6.3,3.699c0,0.101,0,0.101,0,0.2c-0.4,0.2-0.6,0.5-0.8,0.9c0.1,0.1,0.1,0.1,0.1,0.1
		c0.3,0.2,0.5,0.4,0.7,0.5c0.1-0.1,0.3-0.1,0.3-0.1c2.5-1.9,5.1-3.4,8-4.5c0.1-0.101,0.3-0.101,0.5-0.101c0.3,0,0.6-0.199,0.7-0.399
		c0.1,0,0.1-0.101,0.1-0.2C49.8,106.822,49.8,106.721,49.7,106.721z"/>
	<path fill="#5B75A7" d="M40.3,110.721c0-0.1,0-0.1,0-0.2c0-0.1,0-0.199,0-0.3c-1.2,0.8-2.4,1.2-3.7,1.2
		C38,111.721,39.1,111.421,40.3,110.721z"/>
	<path fill="#0095DA" d="M102.3,108.721c0,0.101,0,0.2,0,0.3c0.5,0.601,1.1,0.9,1.899,0.7c0,0-0.1,0-0.199-0.1
		C103.4,109.421,102.8,109.122,102.3,108.721z"/>
	<path fill="#5B75A7" d="M85.4,105.622l-0.1,0.1c0,0,0,0,0.1,0C85.4,105.721,85.4,105.721,85.4,105.622z"/>
	<path d="M30.7,23.521c-0.2-0.3-0.4-0.4-0.6-0.6c-0.2,0.1-0.5,0.2-0.8,0.2c-0.2,0-0.3-0.1-0.4-0.2c-0.5,0.1-1,0.2-1.4,0.2
		c-0.7,0-1.2-0.1-1.5-0.4c-0.2-0.4-0.4-0.7-0.6-1.2c-0.1-0.6-0.5-1.2-1.2-1.7c-0.6-0.1-1.2-0.2-1.7-0.3c0,0.1,0,0.1-0.1,0.1
		c-2.1,0.6-3.5,1.8-4.4,3.6c0,0.8,0,1.5-0.1,2.3c-0.1,0.6,0,1.2,0.2,1.9c-0.8-0.3-1.7-0.3-2.8-0.2c-0.8,0.1-1.5,0.5-2,1.3
		c-0.6,0.6-1,1.2-1.4,1.8c0,0.3,0,0.5,0,0.8c-0.1,0.7,0,1.5,0.2,2.1c0,0.2,0,0.4,0,0.5c0.1,0.1,0.2,0.3,0.3,0.4c0.1,0,0.1,0,0.2,0
		c0.5,0.2,0.9,0.4,1.4,0.7c1.1-0.1,2,0,2.6,0.2c0.1,0.1,0.3,0.1,0.4,0.2c-0.4,0.4-0.7,0.9-0.9,1.3c0,0.1,0,0.1-0.1,0.1
		c-0.1,0.1-0.4,0.4-0.5,0.6c-0.2,0.5-0.3,1.1-0.3,1.6c0,0.3,0,0.4,0.1,0.7c0.3,0.2,0.5,0.4,0.7,0.6c0.1,0.2,0.2,0.5,0.3,0.7
		c0.3,0.3,0.5,0.5,0.8,0.6c0.1,0.1,0.2,0.2,0.4,0.2c0,0,0,0.1,0.1,0.1c0,0,0.1,0,0.3,0c0.7,0,1.3,0,2.1,0.1c0,0,0.1,0,0.2,0
		c0,0,0.1-0.1,0.2-0.1c0.2,0,0.2,0,0.4-0.1c1.2-0.4,1.8-1,2.1-1.9c0.2-0.1,0.3-0.2,0.4-0.5l0,0c1,0.8,2.2,1.2,3.6,1.1
		c0.2-0.1,0.5-0.2,0.7-0.3c0.5-0.2,1-0.5,1.5-0.9h0.2c0.1-0.1,0.3-0.3,0.4-0.4c0.1-0.4,0.2-0.6,0.5-0.9c0.1-0.1,0.1-0.1,0.1-0.1
		c0-0.1,0-0.2,0-0.2c0.1-0.2,0.2-0.3,0.4-0.5c1.3-1.9,1.2-3.8-0.6-5.5c-0.1-0.1-0.3-0.2-0.4-0.3c-0.1,0-0.3-0.1-0.4-0.1
		c0,0,0,0,0-0.1c0.3-0.3,0.8-0.5,1.1-0.9c1.1-1,1.7-2.3,1.7-3.8c-0.2-0.2-0.3-0.5-0.5-0.6c0-0.5-0.1-1-0.3-1.4c0-0.1,0-0.2,0-0.3
		C31.1,23.821,30.9,23.622,30.7,23.521z M24.9,22.921c0,0.3-0.1,0.7-0.2,1c-0.5,1.3-0.9,2.4-1.1,3.5c0.3,0.1,0.7,0.1,1.1,0.1
		c-0.1,0-0.1,0-0.1-0.1c0-0.2,0-0.3,0-0.4c0-0.3,0-0.6,0-0.9c0.4-0.8,1-1.3,1.8-1.4c0-0.1,0.2-0.1,0.3-0.1s0.2,0,0.2,0
		c0.9,0,1.8,0,2.7,0c0,0,0,0,0.1,0.1c0.1,0.1,0.2,0.3,0.3,0.5c0,0,0,0.1,0.1,0.2c0,0.1,0,0.2,0,0.3c0,1.5-0.4,2.9-1.5,4.1
		c-1,0.5-2,1-3,1.6c0.1,0.2,0.2,0.2,0.2,0.2c1.5-0.1,2.5,0.2,2.9,1.1c0.2,0.3,0.3,0.7,0.4,1.1c0.2,0.2,0.2,0.3,0.2,0.5
		c0,0.2,0,0.4,0,0.6s0,0.3,0,0.6c0,0.1,0,0.3,0,0.5c-0.3,0.2-0.4,0.5-0.4,0.7c-0.3,0.9-0.9,1.6-1.8,2.1c-0.5,0.1-1.1,0.1-1.7,0
		c-0.3,0-0.5-0.1-0.7-0.3c-0.1-0.5-0.3-1.2-0.4-1.8l0,0c0.1-0.1,0.2-0.4,0.3-0.6c-0.1-0.1-0.3-0.3-0.4-0.4l0,0h-0.1
		c0-0.1-0.1-0.1-0.2-0.1c-0.5,0.2-0.9,0.6-1.1,1.1c0,0,0,0.1-0.1,0.2c0,0.1,0,0.2,0,0.2c-0.1,0.1-0.1,0.1-0.2,0.2
		c-0.1,0-0.2,0.1-0.2,0.3c-0.1,0.2-0.2,0.5-0.3,0.8c-1.2,1.8-2.7,2.3-4.6,1.3c-0.1-0.2-0.1-0.5-0.1-0.6c-0.2-0.5-0.2-1-0.2-1.5
		c0-0.1,0-0.2,0.1-0.3c0.3-0.3,0.5-0.6,0.7-1c0.1-0.2,0.2-0.5,0.3-0.7c0-0.1,0-0.2,0.1-0.4c0.8-0.4,1-1.1,0.8-1.9
		c-0.1,0-0.2,0-0.4-0.1v0.1c-0.1,0-0.2,0-0.2,0c-0.1,0.2-0.3,0.3-0.3,0.4h-0.1c0-0.1,0-0.2,0-0.3c-0.1-0.1-0.2-0.1-0.4-0.1
		c-0.2,0-0.3,0-0.4,0.1c-0.2,0.1-0.2,0.2-0.3,0.2c0,0,0,0-0.1,0.1c-0.1,0-0.1,0-0.2,0s-0.1,0-0.2,0c-0.9-0.1-1.7-0.2-2.5-0.4
		c-0.4-0.1-0.6-0.2-0.7-0.6c0,0,0-0.1-0.1-0.3c0-0.1,0-0.2,0-0.3c0-0.4,0-0.8,0-1.1c0.2-0.2,0.3-0.4,0.4-0.7h0.1
		c0.3-0.3,0.6-0.6,0.9-1c0.2-0.2,0.5-0.3,0.9-0.3c1.5,0.3,2.6,0.2,3.6-0.3c0.2,0,0.5-0.1,0.8-0.1c-0.3-0.3-0.4-0.5-0.6-0.6
		c0-0.2-0.1-0.4,0-0.6c0-0.2,0-0.3,0-0.6c-0.2-2.6,0.9-4.5,3.4-5.6c0.2,0,0.4,0,0.6,0.1C23.9,21.721,24.5,22.321,24.9,22.921z"/>
	<path fill="#96D5D2" d="M24.7,23.921c0.1-0.3,0.2-0.7,0.2-1c-0.4-0.6-1-1.2-1.6-1.6c-0.2-0.1-0.4-0.1-0.6-0.1
		c-2.5,1.1-3.6,3-3.4,5.6c0,0.3,0,0.4,0,0.6c-0.1,0.2,0,0.4,0,0.6c0.2,0.1,0.3,0.3,0.6,0.6c-0.3,0-0.6,0.1-0.8,0.1
		c-1,0.5-2.1,0.6-3.6,0.3c-0.4,0-0.7,0.1-0.9,0.3c-0.3,0.4-0.6,0.7-0.9,1h-0.1c-0.1,0.3-0.2,0.5-0.4,0.7c0,0.3,0,0.7,0,1.1
		c0,0.1,0,0.2,0,0.3c0.1,0.2,0.1,0.3,0.1,0.3c0.1,0.4,0.3,0.5,0.7,0.6c0.8,0.2,1.6,0.3,2.5,0.4c0.1,0,0.1,0,0.2,0s0.1,0,0.2,0
		c0.1-0.1,0.1-0.1,0.1-0.1c0.1,0,0.1-0.1,0.3-0.2c0.1-0.1,0.2-0.1,0.4-0.1c0.2,0,0.3,0,0.4,0.1c0,0.1,0,0.2,0,0.3h0.1
		c0-0.1,0.2-0.2,0.3-0.4c0,0,0.1,0,0.2,0v-0.1c0.2,0.1,0.3,0.1,0.4,0.1c0.2,0.8,0,1.5-0.8,1.9c-0.1,0.2-0.1,0.3-0.1,0.4
		c0.3-0.4,0.7-0.8,1.1-1c0.3-0.1,0.3-0.3,0.6-0.3c0.3,0,0.7,0.2,0.9,0.5c0.1,0,0.2,0.1,0.2,0.2c-0.3,1-0.9,2-1.9,2.7
		c-0.5,0.5-1,0.4-1.4-0.1c0-0.5,0-0.9,0.2-1.3c-0.2,0.4-0.4,0.7-0.7,1c-0.1,0.1-0.1,0.2-0.1,0.3c0,0.5,0,1,0.2,1.5
		c0,0.1,0,0.4,0.1,0.6c1.9,1,3.4,0.5,4.6-1.3c0.1-0.3,0.2-0.6,0.3-0.8c0-0.2,0.1-0.3,0.2-0.3c0.1-0.1,0.1-0.1,0.2-0.2
		c0,0,0-0.1,0-0.2c0.1-0.1,0.1-0.2,0.1-0.2c0.2-0.5,0.6-0.9,1.1-1.1c0.1,0,0.2,0,0.2,0.1h0.1l0,0c0.1,0.1,0.3,0.3,0.4,0.4
		c-0.1,0.2-0.2,0.5-0.3,0.6l0,0c0.1,0.6,0.3,1.3,0.4,1.8c0.2,0.2,0.4,0.3,0.7,0.3c0.6,0.1,1.2,0.1,1.7,0c0.9-0.5,1.5-1.2,1.8-2.1
		c0-0.2,0.1-0.5,0.4-0.7c0-0.2,0-0.4,0-0.5c0-0.3,0-0.4,0-0.6s0-0.4,0-0.6c0-0.2,0-0.3-0.2-0.5c-0.1-0.4-0.2-0.8-0.4-1.1
		c-0.4-0.9-1.4-1.2-2.9-1.1c0,0-0.1,0-0.2-0.2c1-0.6,2-1.1,3-1.6c1.1-1.2,1.5-2.6,1.5-4.1c0-0.1,0-0.2,0-0.3
		c-0.1-0.1-0.1-0.2-0.1-0.2c-0.1-0.2-0.2-0.4-0.3-0.5c-0.1-0.1-0.1-0.1-0.1-0.1c-0.9,0-1.8,0-2.7,0c0.6,0.1,1,0.5,1.3,1.1
		c-0.1,0,0,0,0.1,0.1c-0.7,1-1.6,1.8-2.9,2.2c-0.3-0.1-0.5-0.2-0.6-0.4c-0.1,0-0.1,0-0.1-0.1c-0.4,0-0.8,0-1.1-0.1
		C23.8,26.321,24.2,25.221,24.7,23.921z M23.9,23.122c0,0.1-0.1,0.2-0.2,0.4c-0.1,0.1-0.1,0.3-0.1,0.5c-0.1,0-0.2,0-0.2,0.1
		c-0.2,0-0.3,0.1-0.5,0.1c-0.5,0.8-1.2,1.4-1.9,1.8c-0.9-1.7-0.7-2.9,1-3.9c0.1-0.3,0.3-0.3,0.5-0.4c0.6,0.1,1,0.5,1.3,1.1
		C23.9,22.821,23.9,23.021,23.9,23.122z M14.6,30.821c0-0.1-0.1-0.4,0-0.7c0-0.4,0.3-0.6,0.6-0.8c0,0,0-0.1,0.1,0
		c0.2,0,0.3,0,0.3-0.1c1-0.1,1.5,0.1,1.8,1c0,0.1,0,0.2,0,0.3C16.7,31.721,15.8,31.821,14.6,30.821z"/>
	<path fill="#C9E9E6" d="M23.7,23.521c0.1-0.2,0.2-0.3,0.2-0.4c0-0.1,0-0.3-0.1-0.3c-0.3-0.6-0.7-1-1.3-1.1
		c-0.2,0.1-0.4,0.1-0.5,0.4c-1.7,1-1.9,2.2-1,3.9c0.7-0.4,1.4-1,1.9-1.8c0.2,0,0.3-0.1,0.5-0.1c0-0.1,0.1-0.1,0.2-0.1
		C23.6,23.821,23.6,23.622,23.7,23.521z"/>
	<path fill="#C9E9E6" d="M14.6,30.122c-0.1,0.3,0,0.6,0,0.7c1.2,1,2.1,0.9,2.8-0.3c0-0.1,0-0.2,0-0.3c-0.3-0.9-0.8-1.1-1.8-1
		c0,0.1-0.1,0.1-0.3,0.1c-0.1-0.1-0.1,0-0.1,0C14.9,29.521,14.6,29.721,14.6,30.122z"/>
	<path fill="#C9E9E6" d="M26.9,24.622c0,0-0.1,0-0.2,0s-0.3,0-0.3,0.1c-0.8,0.1-1.4,0.6-1.8,1.4c0,0.3,0,0.6,0,0.9
		c0,0.1,0,0.2,0,0.4c0,0.1,0,0.1,0.1,0.1c0,0.1,0,0.1,0.1,0.1c0.1,0.2,0.3,0.3,0.6,0.4c1.3-0.4,2.2-1.2,2.9-2.2
		c-0.1-0.1-0.2-0.1-0.1-0.1C27.9,25.122,27.5,24.721,26.9,24.622z"/>
	<path fill="#C9E9E6" d="M21,35.021c0-0.1-0.1-0.2-0.2-0.2c-0.2-0.3-0.6-0.5-0.9-0.5c-0.3,0-0.3,0.2-0.6,0.3c-0.4,0.2-0.8,0.6-1.1,1
		c-0.1,0.2-0.2,0.5-0.3,0.7c-0.2,0.4-0.2,0.8-0.2,1.3c0.4,0.5,0.9,0.6,1.4,0.1C20.1,37.021,20.7,36.021,21,35.021z"/>
</g>
</svg>
