<?xml version="1.0" encoding="utf-8"?>
<!-- Generator: Adobe Illustrator 13.0.0, SVG Export Plug-In . SVG Version: 6.00 Build 14948)  -->
<svg version="1.2" baseProfile="tiny" id="Layer_1" xmlns="http://www.w3.org/2000/svg" xmlns:xlink="http://www.w3.org/1999/xlink"
	 x="0px" y="0px" width="116.469px" height="95.471px" viewBox="0 0 116.469 95.471" xml:space="preserve">
<g>
	<path d="M39.769,28.9c-0.2,0.2-0.4,0.4-0.7,0.6c-0.9,0.2-1.7,0.8-2.4,1.6c0,0.2-0.1,0.4-0.2,0.6c-0.3,0.6-0.5,1.3-0.6,2
		c-0.1,0.1-0.1,0.2-0.1,0.3c-0.1,0-0.1,0.1-0.1,0.1c0,0.3,0,0.5,0.1,0.8c0,0.3,0.2,0.6,0.4,0.8c1.5,1.3,3.2,1.8,5.3,1.5
		c0.2,0,0.4,0,0.7,0c0.3,1,0.5,1.9,0.9,2.9l0,0c0.1,0.4,0.2,0.8,0.4,1.2c-1.7,1.9-3.1,3.9-4.6,5.9c-0.9,1.4-1.9,2.8-2.9,4.2
		c-0.8-0.699-1.7-1-2.7-1.3c-1.8-0.5-3.6-0.899-5.4-1.1c-0.2,0-0.3,0-0.4,0c-3-0.101-6-0.101-9-0.2c-1.6,0.3-3.3,0.7-5,1.3
		c-1.7,0.5-3.3,1.4-4.8,2.5c-0.3,0.101-0.5,0.4-0.8,0.601c-0.4,0.5-0.9,1-1.4,1.399c-1.3,1.3-2.4,2.7-3.1,4.3
		c-0.6,1.101-1.1,2.2-1.6,3.301c-0.1,0.3-0.1,0.399-0.1,0.699c-0.6,1-0.9,2.101-1.2,3.2c-0.5,2.101-0.6,4.4-0.3,6.7
		c0.1,1.3,0.2,2.6,0.2,3.8c0,0.3,0.1,0.5,0.1,0.7c0.2,0.4,0.3,0.9,0.3,1.3c0.4,1.601,0.9,3.101,1.6,4.5c0.6,1.2,1.4,2.3,2.3,3.2
		c0.1,0.3,0.3,0.5,0.6,0.7c0.1,0.399,0.3,0.8,0.6,1.1c1,1,2.3,2,3.6,2.7c0.7,0.5,1.3,0.8,2,1.1c0.9,0.4,1.7,0.601,2.5,0.9
		c0.7,0.2,1.4,0.5,2,0.7c0.7,0.399,1.3,0.399,1.6,0.1c0.1,0,0.1,0,0.1,0c0.2,0.2,0.4,0.3,0.6,0.4c0.7,0.2,1.5,0.3,2.4,0.5
		c2.9,0.399,5.8,0.3,8.8-0.4c2.7-0.6,5.3-1.6,7.9-3c2.6-1.6,4.6-3.6,6.1-6.3c1.4-2.6,2.3-5.3,2.9-8.2c0.1-0.3,0.1-0.7,0.2-1.1
		c0.1-0.5,0.1-1-0.1-1.5c0.7-0.101,1.3-0.2,2-0.3c0,0.399,0.2,0.8,0.4,1.3c0.1,0.1,0.2,0.2,0.3,0.399c0.3,0.801,0.8,1.7,1.4,2.5
		c0.4,0.601,0.8,0.801,1.2,0.801c-0.3,0.8-0.6,1.399-1,2.199c-0.1,0-0.1,0-0.1,0.101v0.1c-2.9-0.3-4.6,0.8-5.2,3.2
		c0.2,0.2,0.2,0.3,0.3,0.5c3.4,1.9,6.7,1.9,9.9,0c0-0.1,0-0.2,0-0.3c-0.3-0.601-0.7-1.2-1.2-1.7c-0.3-0.2-0.5-0.4-0.7-0.6
		c-0.1-0.101-0.3-0.2-0.4-0.301c0.4-0.8,0.8-1.6,1.2-2.399c1.8,0.399,3.6,0.2,5.4-0.4c1-0.5,1.8-1.1,2.399-2.1
		c1.3-2,1.8-4.101,1.3-6.3c0.301-0.5,0.5-0.801,0.801-1.2c1.699-1.9,3.3-3.9,4.699-6c0,0,0-0.101,0.101-0.101
		c0.899-1.199,1.7-2.3,2.399-3.399c0,0,0.101-0.101,0.101-0.2c0.2-0.2,0.2-0.3,0.399-0.4c0.301-0.5,0.7-0.899,1-1.3
		c0.601-0.7,1.2-1.5,1.7-2.1c1.601-2.101,3.2-4.3,4.7-6.5c1.1-1.101,2.2-2.4,3.1-3.6c0.5,1.3,0.801,2.7,1.301,4.1c0,0,0,0.1,0.1,0.1
		s0.1,0.101,0.1,0.101v0.1c-1.199,0.2-2.399,0.7-3.5,1.3c-1.899,1.4-3.699,2.9-5.3,4.7c-1.2,1.2-2.1,2.7-2.899,4.2c0,0,0,0,0,0.1
		c-0.301,0.5-0.5,0.9-0.601,1.5c0,0,0,0-0.1,0c0,0.101,0,0.101-0.101,0.2c0,0.1,0,0.1,0,0.1c-0.1,0.2-0.199,0.4-0.199,0.601
		c-0.801,2.399-1.301,4.899-1.801,7.399c0.101,2.7,0.4,5.301,0.7,8c0.4,1.101,0.8,2.301,1.3,3.5c0.301,0.601,0.5,1,0.9,1.5
		c0,0.2,0.1,0.4,0.2,0.601c0.899,1,1.7,2.1,2.2,3.3c0.199,0.4,0.5,0.7,0.699,0.8c0.5,0.3,0.801,0.7,1.101,1.101
		c0.399,0.6,0.899,1.199,1.6,1.6c0.601,0.3,1.101,0.7,1.601,1c0.8,0.7,1.699,1.1,2.699,1.3c5,2.4,10.301,3,15.9,1.7
		c0.1,0,0.2,0,0.4,0c0.8,0.1,1.699,0,2.5-0.3c0.3-0.2,0.6-0.2,1-0.3c3.5-0.9,6.3-3,8.3-6.101c0.2-0.2,0.399-0.399,0.399-0.6
		c0.9-1.4,1.7-2.8,2.5-4.3c0.7-1.301,1.301-2.7,1.801-4.101c0.699-2.1,1-4.2,1-6.5c0-1.399,0-2.8-0.301-4.2
		c-0.1-0.5-0.199-1-0.5-1.5c0.101-0.8,0-1.399-0.3-2c-0.2-0.3-0.3-0.5-0.399-0.8c-0.301-0.899-0.601-1.7-1-2.6
		c-0.301-0.7-0.601-1.3-1-1.9c-1.601-2.399-3.601-4.5-6-6.399c-2.301-1.7-4.9-3-7.801-3.7c-3-0.7-5.899-1-9-0.8c0,0-0.199,0-0.3,0
		c-0.3,0-0.5,0-0.8,0c-0.9-3.101-1.7-6.2-2.6-9.3c-0.5-1.9-1-3.8-1.4-5.7c-0.1-0.6-0.4-1.2-0.7-1.7c0-0.1,0-0.1,0-0.2s0-0.1,0-0.1
		c-0.1-0.1-0.1-0.1-0.1-0.1c0.2-0.1,0.5-0.2,0.7-0.4l-0.7,0.3c-0.3-2.1-0.8-4.1-1.601-6c0-0.1,0-0.1-0.1-0.1
		c0.9-0.3,1.6-0.4,2.5-0.7c0.7-0.5,1.4-1,2.1-1.5c1-0.7,2-1.5,2.801-2.3c1-0.9,1.8-2,2.5-3.2c1.199-2.2,2-4.5,2.199-6.9
		c0-0.6,0.301-1,0.7-1.3c-0.1-0.2-0.1-0.4-0.1-0.6c0.3-0.2,0.6-0.3,0.899-0.4c0.301-0.3,0.5-0.6,1-0.9c1.5-1.1,3-2.1,4.5-3
		c0.101-0.1,0.101-0.1,0.2-0.2c0.5-1.1,0.5-2.2,0-3.2c-0.2-0.1-0.2-0.1-0.3-0.1c-0.9-0.8-1.8-1.1-2.9-1.1c-0.6,0.2-1.199,0.4-2,0.5
		c-0.1,0-0.199,0-0.199,0c-1.7,0.8-3.301,1.7-4.801,2.9c-0.8,0.8-1.399,2-1.899,3.2c-0.101,0.3-0.101,0.5-0.3,0.6v0.2
		c0.1,0,0.1,0.1,0.199,0.1c0.2,0.6,0.5,1.1,0.801,1.6c0.1,0.1,0.1,0.3,0.199,0.4c0,0.4-0.1,0.6-0.3,0.9c0.101,2-0.5,3.7-1.7,5.1
		c-0.3,1.1-0.899,1.9-1.699,2.5c-0.601,0.5-1.301,0.9-1.7,1.2c-0.101,0-0.101,0.1-0.2,0.2c-1.3,1-2.6,1.6-4.1,1.7
		c-1.7,0.9-3.5,1.1-5.101,0.9c-0.3,0-0.5-0.1-0.8-0.1c-1.1,0.2-2.4,0-3.7-0.4c-0.2-0.1-0.399-0.1-0.7-0.1
		c-1.199-0.2-2.699-0.8-4.5-2c-0.5,0.1-1.1-0.2-1.699-0.7c-1.301-1.2-2.5-2.5-3.5-3.8c-0.601-0.6-1.301-1.1-2-1.6
		c-0.4,0.1-0.8,0.1-1.3,0.2h-0.2c0,0,0,0-0.1,0c-2.5,0.8-4.8,2-6.9,3.7c0,0-0.1,0.2-0.2,0.2c-0.3,0.6-0.6,1.1-0.8,1.7
		c0,0.1,0,0.1,0,0.2c-0.1,0.1-0.1,0.1-0.1,0.1c0,0.1,0,0.2,0,0.2c-0.1,0.3,0,0.5,0.1,0.8c0.1,0.1,0.3,0.3,0.6,0.5l0,0
		c0,0.1,0,0.1,0.1,0.2l0,0c0.1,0,0.2,0,0.3,0c1.9,0,3.7-0.4,5.3-1c0.2,0,0.4-0.1,0.7-0.3c0.1-0.1,0.3-0.1,0.5-0.2
		c0,0.1,0,0.1,0.1,0.1s0.3-0.1,0.4-0.2c0.2,0.5,0.4,0.9,0.7,1.2c0.8,0.4,1.5,0.9,2.3,1.6c1.699,1.6,3.8,2.7,6.1,3.2
		c1.1,0.2,2.3,0.5,3.4,0.6c2.8,0.5,5.5,0.6,8.199,0.3c0,0,0,0.1,0,0.2c0.101,0.4,0.2,0.8,0.2,1.2c0.3,0.9,0.601,1.9,0.8,2.8
		c0.101,0.4,0.2,0.8,0.2,1.2c0.101,0.6,0.101,0.9,0.4,1.3h-0.101c0,0.3,0,0.4,0,0.6c0.2,0.7,0.301,1.4,0.5,2
		c-0.399,0.1-0.8,0.2-1.199,0.4c-3,0.8-6.101,1.3-9.301,1.4c-1.199,0.1-2.5,0.2-3.899,0.4c-5.101,0.6-10.3,1.1-15.4,1.3
		c-1,0-1.8,0.2-2.5,0.5c-0.2-0.3-0.2-0.7-0.4-1.1c-0.1-0.7-0.5-1.4-0.8-1.9c0.2-0.1,0.5-0.1,0.8-0.1c0,0,0,0,0.1,0
		c1.7,0.1,3.4,0.2,5.1,0.1c1.7,0,3-0.5,3.9-1.2c0.6-0.2,1.1-0.6,1.3-1.2c0.1-0.3,0.1-0.6,0.2-0.8c0.1-0.4,0.3-0.7,0.4-1
		c-0.2-0.1-0.4-0.3-0.6-0.3c-0.2-0.3-0.4-0.7-0.8-0.9c-1.6-1.2-3.4-1.8-5.4-2.1c-1.5-0.2-2.9-0.7-4-1.7c-0.1,0-0.2,0-0.2-0.1
		c-0.1,0-0.1,0-0.1-0.1s0-0.2-0.1-0.2c-0.1-0.1-0.2-0.1-0.3-0.2c-0.2,0-0.3-0.1-0.5-0.2c0,0,0,0-0.1-0.1c-0.7-0.7-1.7-1.1-2.7-1.1
		c-0.2-0.1-0.3-0.1-0.3,0c-0.2,0-0.4,0-0.5,0c-0.1,0-0.2,0-0.3,0s-0.2,0-0.3,0c-0.1,0-0.1,0-0.1,0c0,0.1,0,0.1-0.1,0.1
		s-0.4,0.1-0.6,0.3l0,0c0,0.1,0,0.1-0.1,0.2c-0.2,0.1-0.4,0.3-0.6,0.5c-0.1,0.2-0.1,0.4-0.2,0.5c-0.2,0.3-0.4,0.6-0.6,1
		c-0.1,0.2-0.1,0.4-0.2,0.6V28.9z M37.269,34.3c0.1-0.3,0.1-0.7,0-1.1c0.9-1.1,1.9-2.1,3.1-2.8c0.4-0.1,0.8-0.3,1.1-0.5
		c0,0,0-0.1,0-0.2c0.2-1.1,0.5-2,1.3-2.6c0.7,0,1.4,0.3,1.9,0.8c2,1.4,4.1,2.3,6.5,2.7c0.3,0.1,0.6,0.2,1,0.3c1.5,0.5,3,1.2,4.3,2
		c0,0.2,0,0.2,0,0.3c0,0.2,0,0.3,0,0.3c-1.3,0.7-2.8,1.1-4.3,1.2c-2.3,0.1-4.5,0.2-6.8,0.4c0-0.1,0-0.1,0-0.1
		c-0.2-0.1-0.2,0-0.4,0.1l0,0c-2,0.1-4,0.3-5.9,0.4C38.369,35.2,37.769,34.8,37.269,34.3z M58.668,15.5c0.301,0,0.5,0.2,0.5,0.5
		c-2.2,1.9-4.7,3.1-7.6,3.5c-0.1-0.1-0.2-0.1-0.2-0.2c-0.1-0.1-0.1-0.1-0.1-0.1c0.1-0.1,0.1-0.1,0.1-0.1c0.1-0.3,0.3-0.6,0.5-0.7
		c0-0.1,0-0.2,0-0.2c0.6-0.7,1.3-1.3,2.2-1.7c0.1,0,0.1-0.1,0.1-0.2c0.2-0.1,0.3-0.1,0.5-0.2c0.7-0.1,1.3-0.5,1.9-0.8
		c0.1-0.1,0.4-0.1,0.6-0.2c0.2,0,0.3,0,0.5,0c0,0,0,0,0.1,0c0.2,0.1,0.4,0.2,0.8,0.2C58.668,15.4,58.668,15.4,58.668,15.5z
		 M59.869,19.9c-0.2-0.5-0.5-0.9-0.899-1.3c0.399-0.2,0.699-0.5,1-0.7c0.3-0.3,0.699-0.4,1-0.7c0.399,0.8,1,1.3,2,1.8
		c0.699,0.9,1.699,1.5,2.8,1.8c0.1,0.1,0.2,0.1,0.2,0.1c2.6,1.5,5.399,2.3,8.3,2.4c2.899,0.3,5.7-0.1,8.399-1.2
		c3.801-1.4,6.301-3.7,7.7-7.1c0.101-0.1,0.101-0.3,0.3-0.5c0,0,0-0.1,0-0.2s0-0.2,0-0.3c0.101-0.1,0.301-0.4,0.4-0.5
		c0-0.1,0-0.2,0.1-0.3c0-0.6,0-1.1,0.101-1.7c0.2-0.4,0.399-0.7,0.5-1.1c0-0.3,0-0.5,0.1-0.8c0.5-0.1,1-0.1,1.601-0.2
		c-0.4,1.2-0.7,2.6-0.801,4.1c0,0-0.199,0.1-0.199,0.2c-0.301,1.7-0.9,3-2,4.2c0,0.1,0,0.2,0,0.3c-0.101,0.1-0.101,0.2-0.101,0.3
		c-0.7,0.5-1.2,1.2-1.7,2c-1,0.7-1.899,1.5-2.899,2c-4.101,2.2-8.3,3.1-12.601,2.7c-0.5,0-0.8,0-1.199,0c-2-0.3-4-0.8-6-1.2
		c-0.2-0.1-0.5-0.3-0.801-0.3c-2-0.8-3.8-2.1-5.199-3.6l0,0C59.869,20,59.869,20,59.869,19.9z M44.269,38.5c-0.1-0.5-0.3-1-0.6-1.4
		c0.3-0.1,0.6-0.2,1-0.2c0.1-0.1,0.2-0.1,0.3-0.1c0.2,0.7,0.4,1.3,0.5,1.9c0.2,0,0.3,0,0.5,0c0.1,0.5,0.2,1.2,0.4,1.7l0,0
		c0,0.1,0,0.1,0,0.1c0.1,0.1,0.1,0.2,0.1,0.4c0.2,1.1,0.5,2.2,0.9,3.4c0.1,0.3,0.1,0.8,0.3,1.1l0.4,1.7c0.1,0.6,0.3,1.3,0.4,1.9
		c0.1,0,0.1,0.1,0.2,0.1c0.1,0.5,0.3,1.101,0.5,1.7c0.9,2.4,1.8,4.9,2.4,7.4c0.1,0.1,0.1,0.199,0.1,0.199c0,0.101,0,0.2,0.1,0.301
		c0.7,2.399,1.4,4.699,2.2,6.899c-0.5,0.101-0.8,0.4-1.2,0.601c0-0.101,0-0.2-0.1-0.301c0-0.3-0.1-0.399-0.2-0.6c0-0.1,0-0.1,0-0.2
		c0,0,0,0,0-0.1c-0.1-0.101-0.1-0.3-0.2-0.4c-0.1-0.1-0.1-0.2-0.1-0.399c-0.2-0.5-0.4-0.801-0.5-1.2c0-0.2-0.1-0.3-0.2-0.4
		c-0.5-1.399-1-2.7-1.5-4.1c0,0,0,0,0-0.101c0-0.3-0.2-0.699-0.3-0.899c-0.3-1.2-0.6-2.4-0.9-3.5c-0.8-2.9-1.6-5.7-2.4-8.5
		c-0.5-1.5-0.9-2.9-1.5-4.3c-0.1,0-0.1-0.1-0.1-0.1c-0.1-0.6-0.3-1.1-0.3-1.6C44.369,39.1,44.369,38.8,44.269,38.5z M80.469,25.5
		v-0.1c0.3,0.1,0.699,0.2,0.899,0.5c0.101,0.1,0.101,0.1,0.101,0.2c0,0.4,0.199,0.9,0.399,1.3c0.101,0.1,0.101,0.3,0.3,0.4
		c0.4,1.8,0.801,3.6,1.301,5.3c0,0.3,0,0.4-0.2,0.5c-0.101,0.1-0.101,0.1-0.101,0.1c0,0.2,0,0.3,0.101,0.4c0,0,0,0.1,0.1,0.3
		c0.5,1.7,1.101,3.5,1.5,5.3c0.101,0.2,0.101,0.3,0,0.4c0.3,1.1,0.601,2.3,0.8,3.4c0.301,0.9,0.5,1.9,0.7,2.8
		c0.3,0.4,0.5,0.9,0.601,1.6c0,0.3,0.1,0.6,0.199,0.8c0.301,0.699,0.5,1.399,0.7,2.1c0.601,2.1,1.101,4.2,1.601,6.3
		c0,0.4,0.199,0.601,0.199,1c0.301,0.5,0.601,1.3,0.801,2c0,0.5,0.199,1,0.3,1.5c1.2,3.8,2.2,7.5,2.8,11.5l0,0
		c-0.1,0.2-0.2,0.3-0.4,0.4c-0.199,0.3-0.399,0.399-0.699,0.3c-0.301-0.2-0.5-0.2-0.7-0.2c-0.101-0.2-0.3-0.5-0.3-0.899
		c-0.301-1.601-0.7-3.301-1.101-5c-0.1-0.5-0.2-1-0.399-1.4c-0.601-1.4-0.9-2.8-1-4.3c-0.5-1.5-1-3.101-1.4-4.7
		c-0.1-0.3-0.2-0.6-0.2-0.9l-0.2-0.3c-0.6-2.3-1.199-4.6-1.899-6.8l-0.101-0.2c-0.199-1-0.5-2-0.8-3c-0.2-0.5-0.3-0.9-0.399-1.4
		c-0.2-0.6-0.301-1.2-0.5-1.8c-0.5-2.3-1-4.4-1.7-6.6c0-0.1,0-0.1,0.1-0.2c-0.1,0-0.1,0-0.1-0.1c0,0-0.101-0.1-0.101-0.2
		c-0.1-0.6-0.199-1.1-0.3-1.7h0.101c-0.101-0.3-0.301-0.6-0.301-1c0,0-0.1,0-0.199,0c-0.2-1-0.301-1.9-0.5-2.8
		c-0.2-0.7-0.4-1.2-0.5-1.9c-0.101-0.2-0.101-0.3-0.2-0.4v-0.1c0-0.3-0.101-0.4-0.101-0.6c0-0.1,0-0.1-0.1-0.1c0-0.1,0-0.1,0-0.1
		c0-0.1,0-0.1,0-0.2c0,0,0,0-0.1-0.1c0-0.1,0-0.1,0-0.2c0-0.1,0-0.1,0-0.2c0-0.2,0-0.3,0-0.3c0-0.2,0.199-0.4,0.399-0.5
		c0.101,0,0.101,0,0.101-0.1c0.1,0,0.199,0,0.199,0S80.369,25.5,80.469,25.5z M73.769,38.5c0.399,0,0.7,0,1,0
		c1.2-0.3,2.399-0.5,3.6-0.7c0.8,0.1,1.601,0,2.2-0.2c0.1,0.4,0.1,0.8,0.2,1.1l0,0c-0.101,0.1-0.101,0.1-0.3,0.1
		c-0.301-0.1-0.601,0-1,0.1c-4.9,0.6-9.801,1.1-14.9,1.6c-5.4,0.4-10.6,1.2-15.9,2.4c-0.1-0.6-0.2-1.2-0.4-1.8
		c1.7-0.3,3.4-0.6,5.2-0.8c1.9-0.2,3.8-0.4,5.7-0.6l0.301-0.1c2.199-0.1,4.5-0.4,6.699-0.5C68.668,38.8,71.269,38.6,73.769,38.5z
		 M91.168,6.7c0-0.1,0-0.1,0-0.2c0.4-0.3,0.7-0.7,1-1.1c0.101-0.2,0.2-0.3,0.301-0.3c1.3-1,2.6-1.9,3.899-2.7
		c0.3-0.2,0.8-0.3,1.2-0.3c0.7,0,1.4,0.1,2.1,0.1c0,0.3,0,0.6,0.101,0.9c0.1,0.1,0.2,0.3,0.2,0.5c-0.801,0.7-1.601,1.4-2.5,2
		c-1.101,0.8-2,1.1-2.5,0.9c-0.2,0-0.301,0.1-0.5,0.2c-0.2,0.2-0.5,0.4-0.7,0.5c-0.9,0.1-1.8,0.1-2.601,0.1
		C91.168,7.1,91.168,6.9,91.168,6.7z M102.269,61.8c0.5,0.4,0.899,0.9,1.399,1.5c0.2,0.3,0.4,0.8,0.5,1.1
		c0.301,0.601,0.5,1.2,0.7,1.7c-2.899,1.4-5.8,2.9-8.7,4.601c-0.199,0.199-0.5,0.399-0.6,0.5c-0.2-0.2-0.5-0.4-0.9-0.601
		c0.101,0,0.2-0.1,0.301-0.2c0.6-0.8,1.199-1.5,1.8-2.3c1.3-1.5,2.6-2.899,4-4.2c0.7-0.699,1.1-1.3,1.399-2
		C102.168,61.899,102.168,61.899,102.269,61.8z M101.668,52.1c1.4,0.5,2.7,1.3,3.9,2.101c0.6,0.3,1,0.8,1.4,1.3
		c0.5,0.5,1.1,0.899,1.699,1.3c0.5,0.7,1.2,1.5,1.801,2.2c0.699,0.6,1.199,1.5,1.5,2.3c0,0.2,0.1,0.4,0.199,0.6
		c0.101,0.2,0.2,0.301,0.2,0.601c0.101,0.1,0.101,0.399,0.3,0.5c0,0.1,0,0.1,0,0.2c0.101,0.199,0.101,0.3,0.301,0.399
		c0,0,0,0,0,0.101c0.5,1,0.8,2.199,1.1,3.3c0.4,1.2,0.6,2.6,0.7,4c0.2,1.5,0.1,2.899-0.101,4.3c0,0.5-0.1,1-0.199,1.4
		c-0.301,1.399-0.7,2.6-1.2,3.8c-0.601,1.5-1.4,2.899-2.3,4.3c-0.2,0.5-0.5,1-0.601,1.5c-0.5,0.5-0.899,1.1-1.399,1.7
		c-1.301,1.8-3.2,3.1-5.301,3.899c-1,0.301-1.899,0.601-2.699,1c-1-0.1-1.801-0.1-2.7,0.2c-2.3,0.7-4.8,0.9-7.3,0.7
		c-1.5-0.2-3-0.5-4.5-1.1c-0.801-0.4-1.7-0.601-2.5-0.9c-0.2-0.2-0.5-0.3-0.801-0.3c-1.199-0.2-2.1-0.601-2.899-1.4
		c-0.3-0.3-0.7-0.6-1.101-0.899c-0.3-0.301-0.699-0.601-1-0.9c-0.8-0.8-1.399-1.5-1.8-2.5c-0.3-0.5-0.7-1-1.2-1.5c0,0,0,0,0-0.1
		c-1.8-2.5-3-5.301-3.699-8.5c-0.301-1-0.4-2.101-0.301-3.2c0.301-2.101,0.5-4.3,1-6.4c0.5-2.7,1.601-5.2,3.301-7.399
		c0.899-1.2,1.8-2.301,2.699-3.301c1.601-1.899,3.5-3.1,5.801-3.8c0.199,0,0.399-0.1,0.5-0.1l0,0c0.5,1.5,0.699,2.899,1,4.399
		c0,0.101,0,0.101,0.1,0.101c0.1,0.1,0.1,0.1,0.1,0.1c0,0.101,0,0.101,0,0.2s0,0.1,0,0.2c0,0,0,0,0.101,0.1c0,0,0,0.101,0.1,0.101
		c0,0.1,0,0.199,0,0.199c0,0.101,0,0.101,0,0.2c0.101,0,0.101,0,0.101,0.101c0,0,0,0.1,0.1,0.199c0,0,0,0.101,0.1,0.101
		c0,0.2,0,0.5,0.101,0.7h-0.101c0,0-0.199,0-0.3,0c-0.1,0-0.2,0-0.2,0c-2,0.8-3.5,2-4.6,3.8c-0.3,0.399-0.4,0.7-0.6,1.1
		c-0.301,0.4-0.601,0.8-0.801,1.2c-0.5,0.8-1,1.6-1.5,2.3c0,0.101-0.1,0.4-0.199,0.601c-0.301,1-0.5,2.199-0.601,3.399
		c0,0.7,0,1.3-0.1,1.9c0.1,0.1,0.1,0.2,0.1,0.2c0.101,0.1,0.101,0.199,0.101,0.3c0,0.399,0,0.6,0,0.899c0,0.2,0.199,0.301,0.199,0.5
		c0,0.101,0.101,0.2,0.2,0.4c0.3,1.4,0.8,2.8,1.4,4.1c1.1,2.101,2.7,3.801,4.899,5.4c5.301,3.7,10.801,4.2,16.601,1.6
		c0.1-0.1,0.2-0.1,0.2-0.199c0-0.101,0.1-0.2,0.199-0.2v-0.2c0.4,0,0.601-0.2,0.9-0.4c0.1-0.1,0.1-0.1,0.1-0.1
		c0.7-0.3,1.301-0.7,1.801-1.3c0.199-0.2,0.3-0.4,0.399-0.5c0.3-0.4,0.601-0.8,1-1.101c0.4-0.699,0.8-1.399,1.101-2.1
		c0.199-0.4,0.3-0.8,0.5-1.3c0.699-1,1.1-2.2,1.199-3.5c0-1,0-2-0.199-2.9c0-0.3,0-0.6-0.101-0.899V71.1c-0.1-0.2-0.1-0.5-0.1-0.7
		c0-0.199,0-0.3,0.1-0.5c-0.1-0.1-0.1-0.199-0.1-0.3c-0.101-0.399-0.101-0.8-0.3-1.2c-0.301-1.199-0.7-2.399-1-3.5
		c-0.601-1.899-1.7-3.399-3.301-4.5c-2.199-1.5-4.399-2.6-6.8-3.3c-1.1-0.2-2.2-0.5-3.399-0.6l0,0c-0.5,0-1.2,0.1-1.801,0.1
		c-0.5-2-1-4-1.5-6c-0.1-0.1-0.1-0.1-0.199-0.2c0.1,0,0.199,0,0.199,0c2.301,0,4.5,0.101,6.7,0.301c0.3,0,0.7,0.199,1.101,0.3
		c0.3,0.1,0.699,0.2,1,0.2C99.469,51.5,100.569,51.7,101.668,52.1z M81.168,40.1c0,0.3,0.101,0.4,0.2,0.7c-1.6,1.9-3.1,4-4.5,6.1
		c-0.8,1.2-1.7,2.3-2.5,3.5c-1.8,2.301-3.6,4.7-5.399,7c-1.101,1.601-2.301,3.101-3.5,4.7c-1-1-2.301-1.399-3.801-1.3
		c-0.199,0.1-0.3,0.1-0.5,0.1c-0.5,0-1,0-1.5,0C59.569,61,59.469,61,59.269,61.1c-0.101-0.1-0.3-0.1-0.4,0c0,0,0,0-0.1,0h-0.101
		c-0.2,0.101-0.3,0.2-0.5,0.4l0,0l0,0c-0.1,0-0.2,0-0.2,0.1c-0.2,0.101-0.3,0.3-0.3,0.5c-0.2,0-0.2,0.101-0.3,0.2c0,0-0.1,0-0.2-0.1
		c-0.1,0.1-0.2,0.199-0.3,0.3c-0.1,0-0.1,0-0.1,0.1c0.2,0.101,0.3,0.2,0.4,0.3c0,0.2,0.2,0.5,0.3,0.7c0,0.101,0.1,0.2,0.2,0.3
		c0.3,0.2,0.7,0.4,1,0.5c0,0.101,0,0.101-0.1,0.2c-0.1,0.101-0.1,0.2-0.1,0.3c-0.1,0.2-0.3,0.4-0.4,0.601c0,0.1,0,0.1,0,0.1
		c-0.1,0-0.1,0-0.1,0c-0.5-0.1-1.1-0.1-1.6-0.2c-0.2,0-0.2,0-0.4,0.101h-0.2c-0.1,0-0.1,0-0.1,0s0-0.101-0.1-0.101
		s-0.1-0.1-0.2-0.199c-0.2-1-0.6-1.9-0.9-2.801c-0.7-2.3-1.4-4.5-2.1-6.8c-0.9-2.7-1.7-5.5-2.5-8.5c-0.3-1-0.6-2-0.9-3.1
		c0,0,0,0,0.1,0c2.6-0.6,5.3-1,8.1-1.4c3-0.3,6.2-0.6,9.3-1.1c4.399-0.6,8.899-1,13.3-1.3c0,0,0.2,0,0.3,0h0.1l0,0
		c0.101,0,0.2,0,0.2,0C80.668,40.2,80.969,40.1,81.168,40.1z M81.869,42.9c0.101,0.2,0.101,0.4,0.2,0.6c0,0.1,0,0.1,0,0.2h0.1
		c0,0.3,0.101,0.5,0.2,0.8c-1,1.2-2.1,2.4-3.2,3.5c-0.5,0.6-1.1,1.2-1.5,2c-0.1,0.1-0.199,0.1-0.199,0.2c-2,2.8-4.101,5.6-6.101,8.3
		c-0.1,0.1-0.2,0.2-0.2,0.2c-2,2.899-4.199,5.8-6.5,8.6c-0.1,0.1-0.199,0.1-0.3,0.2c0,0-0.1,0-0.2,0.1c-0.399,0.5-0.699,1-0.899,1.5
		c-0.101-0.1-0.101-0.3-0.2-0.5c-0.1-0.1-0.1-0.3-0.3-0.5c0,0,0,0,0.1,0c0.3-0.6,0.7-1,1.101-1.5c1.8-2.3,3.5-4.6,5.199-7.1
		c1.801-2.4,3.5-4.7,5.301-7c1.199-1.5,2.399-3.101,3.5-4.8C79.269,46.1,80.569,44.5,81.869,42.9z M84.969,60.6c0.1,0,0.1,0,0.199,0
		c0.301-0.1,0.801-0.1,1.101-0.399c0.2-0.101,0.399-0.2,0.5-0.301c0.3,1,0.6,2,0.8,3.101c0.1,0.1,0.1,0.399,0.1,0.6
		c0.2,0.5,0.301,0.9,0.5,1.5l0,0c0,0.101,0,0.101,0,0.101c0.2,0.899,0.5,1.8,0.7,2.699c0,0,0,0,0,0.101c0.101,0,0.101,0,0.101,0.1
		l0,0c0,0.101,0,0.3,0,0.4c0.199,0.7,0.3,1.399,0.5,2.1c-0.301-0.399-0.601-0.7-0.801-1.1c-0.6-1.101-1.3-2.101-2.1-3.2
		c0-0.1,0-0.1-0.1-0.1c-0.9-1.601-2-3-3-4.301C83.969,61.399,84.469,61,84.969,60.6z M82.168,63.399c0-0.1,0-0.199,0.101-0.3
		c0.1,0,0.2-0.1,0.2-0.3c0.199-0.2,0.199-0.3,0.3-0.3c1.2,2.2,2.6,4.399,4.1,6.399c0,0.101,0,0.2,0.101,0.2
		c0.1,0.4,0.3,0.8,0.5,1.101c-2.301-1.4-4.7-2.7-7.101-3.7C80.769,65.399,81.369,64.399,82.168,63.399z M91.769,58.7
		c-0.101-0.2-0.101-0.301-0.101-0.5c0-0.101,0.101-0.101,0.2-0.101C91.769,58.399,91.769,58.5,91.769,58.7z M94.168,58.3
		c0.5,0.2,1.101,0.3,1.601,0.5c0.399,0.2,0.7,0.3,1.1,0.4c-0.399,0.399-0.7,0.899-0.899,1.5c-0.301,0.699-0.601,1.399-1,2.1
		c-0.5,1.3-1,2.4-1.5,3.7c0-0.101,0-0.2,0-0.3c-0.301-1.4-0.5-2.801-0.9-4.2c0,0,0-0.101-0.1-0.2c0.199-1.3,0.3-2.4,0.5-3.7
		C93.369,58.1,93.668,58.1,94.168,58.3z M100.969,61.7c0,0.1,0,0.1,0,0.199c-2.5,2.4-4.801,4.801-7,7.4v-0.1
		c0.199-0.301,0.3-0.7,0.399-1.2c0-0.101,0.101-0.2,0.101-0.3c0.199-0.2,0.3-0.601,0.3-0.9c0.6-1.3,1.2-2.7,1.8-4.1
		c0.6-1,0.9-2.101,1.2-3.101c1.1,0.4,2.1,0.9,3.2,1.3c0.1,0.101,0.199,0.2,0.399,0.2c-0.2,0.2-0.3,0.4-0.399,0.5V61.7z M91.469,75.1
		c0.199,0,0.5,0,0.8,0s0.6-0.1,0.899-0.1c0.2,0,0.301,0,0.4,0c0.1-0.101,0.1-0.2,0.1-0.3c0,0,0,0,0.101,0c0.6-0.301,1-0.9,1.2-1.601
		c0,0.101,0,0.2,0.199,0.3c0,0,0,0.101,0,0.2c0,0.3-0.1,0.5-0.199,0.8c-0.101,0.301-0.2,0.601-0.301,0.9c0,0,0,0,0,0.1
		c-0.6,0.301-1.199,0.5-1.699,0.7c-0.101-0.1-0.101-0.1-0.2-0.1C92.269,75.7,91.769,75.5,91.469,75.1z M96.569,74.399
		c0-0.199,0-0.3,0-0.399c3.2,0.1,6.4,0.1,9.7-0.3c0.1,0,0.1,0,0.2,0c0,0.6-0.101,1.199-0.2,1.699
		c-0.101,0.301-0.101,0.601-0.3,0.801c-0.2,0.3-0.301,0.6-0.301,0.899c-0.199-0.1-0.5-0.2-0.699-0.2
		c-0.9-0.399-1.801-0.699-2.801-0.899c-1.699-0.601-3.5-1.2-5.399-1.601l0,0C96.668,74.399,96.668,74.399,96.569,74.399z
		 M96.469,72.8c0-0.2-0.101-0.4-0.2-0.6c0.3-0.101,0.6-0.2,0.899-0.5c0.301-0.2,0.5-0.5,0.801-0.601c0.8-0.6,1.699-1,2.699-1.399
		c1.5-0.601,2.801-1.301,4.2-2c0.101-0.101,0.3-0.2,0.5-0.2c0.2,0.6,0.4,1.399,0.601,2c0,0.1,0,0.2,0,0.399
		c0.199,0.5,0.199,1.101,0.1,1.601c-0.1,0.2,0,0.5,0.1,0.7c-0.5-0.101-0.899-0.101-1.5,0c-0.1,0.1-0.3,0.1-0.5,0.1
		C101.469,72.1,98.969,72.3,96.469,72.8z M89.969,75.7c0,0,0,0,0,0.1s0.1,0.2,0.199,0.3V76.2c0.101,0.1,0.2,0.199,0.301,0.3
		c-0.301,0.3-0.5,0.6-0.801,1c-0.899,1.2-1.8,2.5-2.699,3.7c-0.7,0.899-1.2,1.8-1.4,2.8c-0.1-0.101-0.1-0.3-0.1-0.3
		c-0.301-0.2-0.7-0.301-0.9-0.5c-0.4-0.301-0.9-0.7-1.2-1.101c-0.2-0.3-0.399-0.6-0.7-0.7l0,0c-0.199-0.399-0.399-0.8-0.5-1.199
		c1.601-1.101,3.5-2,5.301-2.801C88.469,77,89.269,76.5,89.969,75.7z M89.369,74.899c0.101,0,0.101,0.101,0.101,0.2
		c0,0-0.101,0-0.2,0c-2.8,1.2-5.3,2.601-7.7,4.3c-0.2-0.3-0.4-0.699-0.6-1c-0.9-1.3-1.4-2.8-1.601-4.3c0.101,0,0.3,0,0.4,0
		c1.6,0,3.1,0.101,4.7,0.4c1.6,0.2,3.199,0.2,5,0.2C89.369,74.7,89.369,74.8,89.369,74.899z M87.569,71.899c0.2,0.2,0.6,0.5,0.9,0.7
		c0.3,0.4,0.699,0.5,1.1,0.5c-0.1,0.101-0.1,0.2-0.1,0.4c0-0.101-0.101-0.101-0.101-0.101c-3.3-0.5-6.6-0.8-9.899-0.899
		c0-0.3,0-0.4,0-0.601c0-0.3,0-0.5,0-0.699c0-1.2,0.1-2.5,0.5-3.601C82.469,68.899,84.969,70.3,87.569,71.899z M90.969,86.1
		c-1.5-0.3-3-0.8-4.5-1.6c1-1.3,1.899-2.601,2.699-4c0.801-1.101,1.5-2.2,2.2-3.4c0.2,0.101,0.4,0.3,0.7,0.4
		c0.1,0,0.3-0.101,0.4-0.101C91.668,80.2,91.168,83.1,90.969,86.1z M93.869,77.2c0,0,0,0.199,0,0.3c0.101,1.8,0.601,3.6,1.4,5.2
		c0.3,0.699,0.399,1.3,0.5,2c0,0.6,0.3,0.8,0.7,0.899c0,0.101,0,0.2,0,0.2c-1.301,0.3-2.801,0.5-4.101,0.5
		c0.101-0.3,0.101-0.6,0.101-1c0-0.5,0-1,0-1.4c0.199-2.3,0.699-4.5,1.199-6.699C93.668,77.2,93.769,77.2,93.869,77.2z M95.469,78.2
		c0-0.301-0.101-0.601-0.301-0.801c1,0.601,2,1.4,2.801,2.2c1,1.101,2.199,2.101,3.199,3.101c0.301,0.3,0.5,0.399,0.7,0.399
		c-0.3,0.3-0.6,0.4-0.899,0.7c-1.2,0.7-2.301,1.3-3.4,1.7c-0.1-0.101-0.1-0.2-0.2-0.2c0-0.1,0-0.2,0-0.2c-0.2-1.6-0.7-3.1-1.3-4.6
		C95.769,79.7,95.569,79,95.469,78.2z M100.369,79.899c-1.399-1.399-2.899-2.6-4.5-3.699c0.2-0.2,0.3-0.601,0.5-0.801
		c1.8,0.801,3.601,1.5,5.601,2c0.8,0.2,1.6,0.601,2.399,1c0.101,0.101,0.3,0.2,0.601,0.2c-0.2,0.4-0.301,0.8-0.5,1.101
		c-0.301,0.5-0.801,1-1.101,1.6c-0.2,0.2-0.399,0.5-0.6,0.8c-0.3-0.6-0.8-1-1.3-1.399C101.069,80.5,100.668,80.2,100.369,79.899z
		 M64.668,62.8c-0.699,0.2-1.3,0.3-2,0.4c-0.6,0.1-1.199,0.199-1.699,0.1c-0.801-0.1-1.601-0.2-2.5-0.5l0,0v-0.1
		c0.2-0.101,0.4-0.2,0.6-0.301C61.069,61.7,62.969,61.899,64.668,62.8z M44.369,44.3c0,0,0,0,0,0.1c0,0.2,0.1,0.5,0.2,0.8
		c-0.8,1-1.5,2-2.1,3.1c-2,2.3-3.9,4.7-5.8,7.1c0,0.101,0,0.101,0,0.101c-0.3,0.6-0.7,1.1-1,1.6c-1.5,1.8-3,3.4-4.5,5.101
		c-0.4,0.6-0.8,1.199-1.2,1.8c-0.2,0.1-0.3,0.399-0.4,0.6c-0.7,0.9-1.4,1.7-2.1,2.5c-0.3,0.4-0.5,0.601-0.8,1V68.2
		c-0.2,0.199-0.3,0.3-0.5,0.5c-0.5,0.399-0.9,0.899-1.4,1.399c-0.3-0.1-0.7-0.2-1.1-0.2c0.3-0.399,0.5-0.699,0.7-0.899
		c0.2-0.4,0.5-0.8,0.8-1.101c0,0,0.2-0.1,0.3-0.199c0-0.101,0-0.2,0.1-0.2c0.1-0.101,0.1-0.3,0.1-0.4c0.5-0.7,1-1.3,1.5-1.899
		c0.7-1,1.5-1.801,2.2-2.7c0.8-0.9,1.4-1.8,2.1-2.601c1.8-2.3,3.5-4.399,5.3-6.699c0-0.101,0-0.101,0-0.101c0.1,0,0.2-0.1,0.2-0.2
		c0.5-0.6,0.9-1.199,1.4-1.8c0-0.1,0.1-0.3,0.1-0.399c1.7-2.101,3.2-4.2,4.6-6.4c0.3-0.4,0.6-0.8,0.9-1.2c0.1,0.3,0.2,0.5,0.2,0.9
		c0,0,0,0,0.1,0.1c0,0,0,0,0.1,0C44.369,44.2,44.369,44.2,44.369,44.3z M45.169,47.4c1,3.8,2.1,7.7,3.5,11.4c0,0.2,0,0.3,0,0.4
		c0.7,2.8,1.5,5.5,2.3,8.199h0.1c-0.4,0.4-0.9,0.801-1.3,1.301c-0.1,0-0.3,0-0.4,0c-1.2,0.1-2.2,0.3-3.4,0.399
		c0-0.899-0.1-1.8-0.3-2.6c-0.5-1.5-1-3-1.5-4.4c-1-2.3-2.2-4.399-3.7-6.2c-0.3-0.399-0.5-0.8-0.8-1c0-0.1,0-0.199,0-0.199
		c0-0.101,0-0.101,0-0.101c0-0.1,0-0.1,0-0.1l0,0c0.3-0.5,0.8-0.9,1.1-1.3C42.669,51.5,44.069,49.5,45.169,47.4z M41.169,60.5
		c0.3,0.8,0.6,1.6,1,2.399c0.2,0.2,0.3,0.5,0.3,0.7c0.7,1.601,1.2,3.101,1.4,4.8c0.1,0.101,0.1,0.2,0.1,0.4s0,0.4,0.2,0.6h-0.1
		c-1.4,0.101-2.7,0.4-4.1,0.7c0,0,0,0-0.1,0c-0.4,0-0.7,0-1.1,0c0.2-0.2,0.3-0.5,0.4-0.7c-0.5-2.399-1.3-4.699-2.5-6.699
		c-0.3-0.4-0.5-0.801-0.7-1.2c-0.4-0.4-0.8-0.7-1.4-1c0.4-0.4,0.8-1,1.2-1.4c0.4-0.6,0.9-1.2,1.4-1.8c0.2-0.2,0.3-0.3,0.5-0.3
		c0.2-0.3,0.4-0.5,0.5-0.8c0.3,0.5,0.7,1,1.2,1.399c0,0.101,0,0.2,0,0.3C39.969,58.7,40.569,59.6,41.169,60.5z M59.668,64.5
		c0.301,0,0.5,0,0.801,0c-0.101,0.1-0.301,0.2-0.301,0.399l0,0c-0.399,0.101-0.6,0.4-0.8,0.801c0-0.101-0.2-0.101-0.2-0.101
		c0-0.1,0.2-0.1,0.2-0.2V65.2c0.101-0.2,0.101-0.5,0.3-0.601V64.5z M58.169,68.399c-0.5-0.3-1.2-0.399-1.8-0.5
		c-0.3,0.2-0.7,0.301-1.1,0.301c-0.1,0-0.1,0-0.1-0.101c-0.1,0-0.1,0-0.2,0.101c-0.2,0.199-0.3,0.3-0.5,0.399
		c-0.8,0.4-1.4,0.9-1.8,1.601c-0.2,0.3-0.3,0.5-0.3,0.8c-0.1,0.1-0.2,0.399-0.2,0.5c0,0.1,0,0.1-0.1,0.2c-0.1,0-0.1,0.199-0.1,0.199
		c-0.1,0.301-0.1,0.7-0.2,1.101c0,0.399-0.1,0.7-0.1,1.2c0.1,0.199,0.2,0.3,0.3,0.5c0.2,0.399,0.5,0.699,0.8,0.899c0,0,0,0,0.1,0
		c0,0,0,0,0.1,0.101c0,0.1,0.2,0.199,0.2,0.1h0.1c0,0,0,0,0,0.1c-0.3,0.4-0.5,0.9-0.8,1.301c-0.4-0.2-0.8-0.601-1.1-1
		c0-0.101,0-0.101,0-0.101c-0.2-0.2-0.3-0.6-0.4-0.8c-0.1-0.1-0.2-0.2-0.3-0.3c0-0.5,0-1-0.1-1.5c-0.1-0.7,0-1.4,0.1-2.2
		c0.1-0.1,0.1-0.1,0.1-0.2c0,0,0,0-0.1-0.1c0.3-1.5,1.1-2.5,2.5-3.101c0.3-0.399,0.9-0.699,1.5-0.8c0.1,0,0.1,0,0.1,0
		c0.4,0,0.6,0,0.7,0c0.7,0,1.5,0,2.2,0c0.3,0,0.5,0,0.7,0l0,0c0.8,0.3,1.601,0.601,2.101,1c0.3,0.3,0.6,0.601,0.899,1V69.2
		c0.101,0.199,0.101,0.3,0.101,0.399c0.199,0.101,0.3,0.3,0.5,0.4c0.1,0.3,0.199,0.6,0.199,1.1c0.101,0,0.101,0,0.2,0
		c0,0.101,0,0.3,0,0.4c0.101,0.5,0,1-0.2,1.5c-0.199,1.1-0.699,2.1-1.5,2.899c-0.5,0.5-1,0.801-1.6,1.2c-0.4,0.101-0.7,0.3-1.1,0.4
		c-0.3,0.1-0.5,0.2-0.8,0.3c-0.2,0-0.2,0-0.3,0.1C56.169,78,55.669,78,55.169,78l0,0c0.1-0.4,0.2-0.8,0.3-1.101
		c0.1-0.199,0.2-0.399,0.2-0.5c0.3,0.101,0.5,0.101,0.7,0.101c0.2,0,0.4-0.101,0.6-0.2c0.7,0.1,1.4-0.2,2.1-0.6
		c1.3-0.801,1.9-1.801,1.8-3.101v-0.1c0,0,0,0,0-0.101c-0.1-0.199,0-0.3,0.101-0.5c0,0,0,0,0-0.1s0-0.1-0.101-0.2
		c-0.1-0.1-0.1-0.1-0.1-0.2V71.2c0-0.101,0-0.101,0-0.2c0-0.101-0.101-0.2-0.101-0.3c-0.399-0.7-0.899-1.301-1.5-1.7
		C58.769,68.7,58.469,68.5,58.169,68.399z M55.469,72.899c0.1,0,0.1,0,0.2-0.1c0,0.1,0.1,0.1,0.2,0.1c0.1,0.2,0.3,0.5,0.4,0.601
		c-0.1,0.2-0.2,0.5-0.3,0.6c0,0-0.1,0-0.2,0.101c0,0.199-0.1,0.3-0.1,0.5c-0.3,0.699-0.7,1.3-1,1.899V76.7c0,0.1,0,0.199,0,0.3l0,0
		c-0.2,0.1-0.2,0.1-0.3,0.2c0,0.1,0,0.199,0,0.199c0,0.101,0,0.101-0.1,0.101c-0.1,0-0.1,0.1-0.2,0.1c-0.1,0.5-0.3,1-0.4,1.5
		c-0.1,0-0.1,0-0.2,0c0,0.4-0.1,0.8-0.3,1.101c0,0,0,0.1-0.1,0.199V80.5c-0.1,0.2-0.3,0.399-0.4,0.6c0,0,0,0,0,0.101
		c0,0,0,0.1,0,0.199c-0.2,0.101-0.2,0.101-0.3,0.301c-0.2-0.101-0.2-0.2-0.4-0.2c0,0,0,0,0-0.101c0.2-0.199,0.2-0.399,0.2-0.699
		V80.6c0.3-0.2,0.5-0.5,0.6-0.8c0-0.1,0-0.2,0.1-0.3c0.3-0.7,0.5-1.4,0.8-2.101c0-0.1,0.1-0.199,0.1-0.3c0.4-0.6,0.6-1.2,0.7-1.899
		c0-0.101,0-0.101,0.1-0.2C54.869,74.2,55.169,73.5,55.469,72.899z M55.669,72c-0.1,0-0.1,0.1-0.2,0.1c-0.5,0.4-1,0.8-1.4,1.4
		c0,0.3-0.1,0.5-0.2,0.7c-0.2,0.3-0.2,0.399-0.1,0.699l0,0c-0.1-0.3-0.3-0.399-0.5-0.699c-0.1-0.101-0.1-0.101-0.1-0.2
		c0-0.101,0-0.2-0.1-0.3c-0.2-1.2,0-2.2,0.6-3.2c0-0.101,0.1-0.101,0.1-0.101c0.9-0.399,1.5-0.899,1.9-1.5
		c1.4-0.199,2.5,0.2,3.5,1.301c0,0,0,0.1,0,0.199c0,0.101,0.2,0.2,0.301,0.4c0,0.2,0.1,0.4,0.199,0.6c0.301,0.4,0.301,0.9,0.101,1.4
		c0,0.1,0,0.1,0,0.1C59.668,73,59.668,73,59.668,73.1l0,0c0,0,0,0.101,0,0.3c-0.3,0.2-0.6,0.5-0.899,0.801
		c-0.2,0.3-0.5,0.6-0.8,0.899c-0.3,0-0.6,0.101-0.9,0.2s-0.6,0.1-0.9,0.2c0.2-0.4,0.3-0.7,0.5-1v-0.101c0.1-0.3,0.2-0.5,0.3-0.8
		c0,0,0,0,0-0.1l0,0c0.1-0.2,0.2-0.3,0.2-0.4c0-0.1,0-0.1,0-0.1c-0.1-0.101-0.1-0.2-0.2-0.3c0,0,0,0-0.1,0
		c-0.1-0.101-0.1-0.301,0-0.5c-0.1-0.101-0.2-0.101-0.2-0.2c-0.2,0-0.5-0.101-0.7-0.101l0,0C55.869,72,55.769,72,55.669,72
		L55.669,72z M43.369,74.399c0.4-0.1,1-0.199,1.4-0.3c0,0.7-0.1,1.3-0.2,2c-0.1,1-0.4,2-0.7,3c-0.4,0.8-0.7,1.4-1.2,2.101
		c0,0.1,0,0.199,0,0.3l0,0c-0.7,1.1-1.3,2.1-2,3.2c-0.7,1.399-1.7,2.699-3,3.699c-0.2,0.101-0.3,0.2-0.5,0.2c-1,0.601-2,1.2-2.8,1.9
		c-2.6,1.2-5.2,1.899-7.9,2.2c-1,0.1-2,0-2.9-0.101c-1.8-0.1-3.5-0.3-5.2-0.6c-0.3,0-0.6,0-0.9-0.101c-0.2-0.1-0.5-0.1-0.7-0.1
		c-0.5-0.3-1.1-0.5-1.7-0.6c-0.2-0.101-0.3-0.101-0.4-0.101c-0.8-0.1-1.4-0.399-2.2-0.6c-0.1-0.101-0.1-0.2-0.2-0.2
		c-1-0.7-2-1.3-3-2c-0.7-0.5-1.3-1-1.8-1.6c-0.2-0.4-0.6-0.7-1-1c-0.6-1-1.2-1.9-2-2.7c-0.1-0.2-0.2-0.4-0.3-0.601
		c-0.4-0.6-0.7-1.199-0.9-1.899l0,0c-0.2-0.4-0.4-0.8-0.5-1.101c0-0.3,0-0.5-0.1-0.8c-0.3-1.2-0.5-2.5-0.7-3.899
		c-0.2-1.801-0.2-3.601-0.2-5.5c0.1-0.7,0.2-1.4,0.4-2.101c0.5-2.2,1.2-4.399,2.2-6.399c0.4-1,1-2,1.7-2.801
		c0.1-0.1,0.1-0.199,0.2-0.3c0.1-0.1,0.2-0.3,0.4-0.5l0,0c0,0,0-0.1,0.1-0.1c0-0.101,0-0.101,0-0.2c0.1-0.1,0.2-0.2,0.3-0.3
		c0.1-0.101,0.2-0.2,0.3-0.3c0.8-0.801,1.6-1.601,2.5-2.2c1.8-1.4,3.8-2.3,5.9-2.8c0.6-0.101,1-0.101,1.6-0.2
		c0.6,0,1.2-0.101,1.9-0.2c0.2-0.1,0.5-0.1,0.7-0.1c0.7-0.2,1.3-0.2,1.8-0.101c1.6,0,3.2,0,4.7,0c0.7,0.101,1.3,0.2,2,0.3
		c0,0.101,0.1,0.101,0.2,0.101c1.3,0.2,2.8,0.5,4.1,1c0.4,0.1,0.9,0.3,1.4,0.5l0.2,0.1c0.1,0.101,0.1,0.101,0.2,0.101s0.1,0,0.2,0.1
		c-0.1,0.1-0.1,0.1-0.1,0.1c-0.4,0.5-0.9,1-1.3,1.601l0,0c0,0.1,0,0.1,0,0.1c-0.6,0.8-1.2,1.5-1.8,2.101
		c-0.1,0.3-0.3,0.399-0.4,0.699c-0.5-0.399-1-0.699-1.5-0.8c-0.3-0.1-0.7-0.2-1.2-0.399c-1-0.301-2.1-0.601-3.3-0.7
		c-0.2,0-0.5,0-0.7,0.1c-0.8-0.1-1.5-0.1-2.4-0.1c-0.4,0.2-1.1,0.3-1.8,0.399c-1.3-0.1-2.5,0.2-3.6,0.7c-1.9,0.5-3.5,1.5-4.8,3.101
		c-1.6,1.199-2.9,2.699-3.5,4.5c-0.2,0.6-0.4,1.199-0.5,1.8c-0.1,0-0.1,0.1-0.1,0.1c-0.1,0.3-0.1,0.4-0.1,0.601c0,0.1,0,0.199,0,0.3
		c-0.1,0.3-0.1,0.7-0.2,1.1c-0.2,1.101-0.2,2.3-0.1,3.4c0.1,0,0.1,0.1,0.1,0.2c0,0,0,0.199,0,0.3c0,0,0,0.1,0.1,0.1
		c0.1,0.101,0.1,0.2,0.1,0.3c0,0.101,0,0.101,0,0.2c0,0,0,0.101,0,0.3c0,0,0.1,0.101,0.1,0.2c0,0,0,0.101,0.1,0.2
		c-0.1,0.1-0.1,0.2-0.1,0.2s0,0.1,0,0.2c0.1,0,0.1,0.199,0.1,0.199c0.1,0.2,0.1,0.4,0.1,0.601c0.3,1.6,0.9,3.1,1.8,4.5
		c0.1,0.399,0.3,0.8,0.6,1.1c0.3,0.5,0.7,1,1,1.4c0.7,0.7,1.4,1.399,2.1,1.899c1.3,0.9,2.7,1.7,4.2,2.4c0.7,0.3,1.3,0.5,2.1,0.7
		c2.7,0.8,5.4,0.8,8.2-0.101c0.2-0.1,0.5-0.199,0.8-0.3c0.4-0.1,0.7-0.2,0.9-0.3c1.3-1,2.5-1.8,3.9-2.6c0.1,0,0.1,0,0.1,0
		c0.6-0.601,1.1-1.101,1.7-1.601c0.8-0.7,1.5-1.6,2.1-2.5c0.7-1.399,1.3-2.899,1.7-4.399c0.2,0,0.3,0,0.5,0
		c0.7-0.101,1.4-0.2,2.1-0.2c0.2,0,0.3,0,0.4-0.101c0.5-0.1,0.9,0,1.2,0.101V74.399z M44.669,70.6c0,0,0.1,0,0.1,0.101
		c0.9-0.301,1.9-0.5,2.9-0.4c0.3,0.1,0.7-0.1,1-0.2c0,0,0.1-0.1,0.2-0.2c0.1,0,0.1,0,0.1,0c0.1,0,0.2,0,0.2,0.101
		c-0.2,0.399-0.4,0.8-0.7,1.2c0,0.399,0,0.8,0,1.199c-0.1,0-0.3,0-0.5,0c-0.3,0-0.5,0-0.8,0.101c-0.5,0-1.2,0.1-1.8,0.2
		c-2.9,0.3-5.8,0.6-8.7,0.899c-0.1,0-0.2,0-0.3,0c-3.6,0.3-7,0.8-10.5,1.3c0.3-0.399,0.6-0.8,0.8-1.399c0.1-0.2,0.3-0.4,0.3-0.7
		c0.2,0,0.3,0,0.5-0.1c1-0.101,1.9-0.2,2.9-0.2c3.6-0.2,7.3-0.601,11-1.4c0.8-0.1,1.6-0.2,2.3-0.399c0.3,0,0.5,0,0.8,0
		C44.469,70.7,44.669,70.7,44.669,70.6z M46.969,84.2h-0.1c0.1-0.101,0.1-0.101,0.1-0.101l0,0c2.4,0.2,4.7,0.3,7,0
		c0,0.101,0.1,0.3,0.2,0.4C51.569,85.5,49.169,85.399,46.969,84.2z M48.369,82.3c0.1,0.1,0.1,0.1,0.1,0.1c1.6,0,3,0.301,4.5,0.9
		c-2,0.2-4,0.2-6,0.1C47.369,82.899,47.769,82.5,48.369,82.3z M63.769,64.2c-0.101,0.199-0.101,0.3-0.2,0.3c-0.4,0.6-1,1.2-1.6,1.7
		c-0.101,0.199-0.2,0.3-0.301,0.5c-0.3-0.301-0.699-0.601-1.1-0.7c0.2-0.5,0.5-0.9,0.7-1.5c0.1,0,0.1,0,0.1-0.101
		C62.168,64.5,62.969,64.399,63.769,64.2z M23.469,57.3c0,0.1,0,0.1,0,0.2c0,0-0.1,0.1-0.3,0.2c0,1.5-0.1,3.199-0.1,4.699
		c0,1.601-0.1,3.101-0.4,4.7V67.2c0,0.5-0.1,1-0.2,1.6c0-0.6-0.1-1.1-0.3-1.6c-0.8-3.101-1.6-6.2-2.4-9.4c0.5-0.2,0.9-0.3,1.4-0.3
		C21.969,57.399,22.769,57.3,23.469,57.3z M27.869,58.7c0,0,0,0,0.1-0.101c0-0.1,0.1-0.399,0.1-0.6c0.6,0.2,1.3,0.5,1.8,0.899
		c-1.1,1.5-2.2,2.9-3.1,4.4c0.4-1.3,0.7-2.8,1.1-4.2l0,0C27.869,59,27.869,58.899,27.869,58.7z M27.069,57.7c0,0,0,0-0.1,0.1
		c-0.4,1.7-0.8,3.3-1.4,4.9c-0.4,1-0.6,2-0.7,3c-0.4,0.399-0.7,0.8-0.9,1.199c0.2-2.199,0.4-4.399,0.5-6.699c0-1.101-0.1-2-0.3-2.9
		C25.169,57.3,26.169,57.5,27.069,57.7z M34.469,62.5c0.2,0.2,0.4,0.6,0.6,0.899c0.2,0.2,0.4,0.5,0.6,0.801v0.1
		c0.1,0.2,0.3,0.4,0.4,0.7c-0.4,0.2-0.9,0.5-1.2,0.899c-1.7,1-3.4,2-5.1,3c-0.3,0.2-0.5,0.301-0.8,0.4c-0.6,0.2-1.3,0.6-1.8,1.1
		c1.1-1.3,2-2.699,2.8-4.1c0.7-0.9,1.3-1.8,2-2.7c0.5-0.6,1-1.2,1.6-1.8c0.2,0.2,0.4,0.3,0.8,0.4c0,0.1,0.1,0.199,0.1,0.199
		C34.469,62.5,34.469,62.5,34.469,62.5z M18.869,58c0,0.8,0.1,1.6,0.4,2.5c0.8,3,1.5,6.1,2.1,9.2c-0.4-0.601-0.7-1.2-1-1.7
		c-1.7-3-3.6-5.8-5.7-8.5C15.969,58.8,17.369,58.3,18.869,58z M11.369,62.5c0.7-0.601,1.4-1.4,2-2c0.1-0.2,0.3-0.4,0.4-0.4
		c0.1,0.101,0.2,0.4,0.4,0.5c1.5,2.101,2.9,4.101,4.2,6.3c0.6,0.9,1,1.801,1.4,2.801c-0.3-0.2-0.5-0.5-0.8-0.7
		c-2.4-2.3-5-4.4-7.7-6.3C11.269,62.6,11.369,62.5,11.369,62.5z M10.569,63.6c0.1,0.101,0.1,0.101,0.2,0.2c2.6,2.2,5.2,4.4,7.7,6.8
		c-0.8-0.2-1.6-0.5-2.4-0.8s-1.7-0.7-2.5-0.9c-1.3-0.5-2.8-1-4.2-1.399c0.2-0.8,0.4-1.601,0.6-2.4
		C10.169,64.5,10.369,64.1,10.569,63.6z M14.269,70.6L14.269,70.6c1.8,0.9,3.6,1.601,5.6,2.2c0,0.1,0,0.2,0,0.3V73.2
		c-0.4-0.101-0.6-0.2-1-0.2c-3.1-0.601-6.4-0.9-9.6-1.2c0-0.9,0-1.9,0-2.8C10.969,69.399,12.669,69.899,14.269,70.6z M18.969,74.7
		c-0.8,0.3-1.7,0.5-2.6,0.8c-1.1,0.5-2.3,0.8-3.5,1c-0.8,0.2-1.5,0.6-2.1,1c-0.6-1.101-1-2.4-1.3-3.8c0-0.2,0-0.5-0.1-0.7
		c2.8,0.399,5.5,0.899,8.3,1.399C18.069,74.5,18.569,74.6,18.969,74.7z M16.469,81.7c0-0.101,0-0.101,0-0.2c0.4-0.5,1-1.101,1.5-1.5
		c1.4-1.3,2.6-2.601,3.5-4.101c0,0,0,0,0.1,0.101c0.1,0,0.1,0,0.1,0c-0.3,0.5-0.5,1-0.7,1.5c-0.3,1-0.6,2-0.8,3
		c-0.4,1.3-0.8,2.7-0.9,4.1c-0.8-0.3-1.5-0.6-2.3-1c-0.4-0.2-0.8-0.5-1.2-0.7c0,0,0,0,0.1-0.1c0-0.1,0-0.1,0.1-0.2
		c0.1-0.2,0.3-0.5,0.4-0.6C16.469,81.899,16.469,81.8,16.469,81.7z M17.969,76.6c0.7,0,1.3-0.1,1.8-0.399c-0.9,1-1.9,1.899-2.8,2.8
		c-1.1,0.899-1.8,2-2.2,3.2c-1.4-1.101-2.5-2.301-3.5-3.801c2-0.399,4-0.899,6-1.699C17.469,76.6,17.769,76.6,17.969,76.6z
		 M37.369,69c-0.1,0.1-0.1,0.1-0.1,0.3c-0.1,0.3,0,0.6,0.2,0.8c-0.1,0-0.1,0.101,0,0.101c-3,0.3-6,0.699-8.8,1.199
		c2.8-1.5,5.5-3.199,8-4.899C36.969,67.2,37.169,68.1,37.369,69z M37.469,75c0,0,0,0.1-0.1,0.2v0.199c0,0.101,0,0.2-0.1,0.2
		c-0.1,0.4-0.3,0.7-0.4,1c-1.1-0.5-2.2-0.899-3.2-1.2c0.7-0.1,1.5-0.199,2.3-0.3C36.469,75.1,36.969,75,37.469,75z M23.169,71.399
		c0.5,0.101,0.9,0.301,1.3,0.7c0.2,0.4,0.3,0.8,0.2,1.2c-0.2,1.2-0.9,1.6-2,1.3c-0.2,0-0.4-0.1-0.5-0.3c-0.5-0.4-0.7-0.9-0.7-1.3
		c0.2-0.101,0.2-0.4,0.2-0.601l0,0c0-0.199,0.2-0.3,0.3-0.5C22.369,71.7,22.769,71.6,23.169,71.399z M23.469,76.5
		c0.1,0,0.2,0,0.3,0.1c0.2,0.5,0.4,1.101,0.8,1.601c0.9,1.199,1.8,2.399,2.5,3.699c0.2,0.2,0.4,0.601,0.4,0.9
		c0.2,0.9,0.7,1.3,1.3,1.4c-0.1,0-0.3,0.1-0.5,0.199c-0.8,0.2-1.6,0.5-2.4,0.7c-0.2,0-0.4,0-0.5,0.101
		C24.769,82.2,24.169,79.399,23.469,76.5z M22.469,77.399c0,0,0,0,0,0.101c0.5,2.6,1,5.1,1.4,7.8c-0.1,0-0.2,0-0.2,0
		c-0.9,0-1.7,0-2.4-0.2c-0.3,0-0.6-0.1-0.9-0.1C21.169,82.399,21.769,79.899,22.469,77.399z M29.369,84v-0.101
		c0-0.199,0.1-0.3,0.1-0.399c-0.3-0.601-0.7-1.3-1.1-2c-0.9-1.601-2-3.101-3.1-4.7c2.2,1.3,4.4,2.4,6.7,3.5c0.2,0.1,0.3,0.2,0.5,0.3
		c0.2,0.3,0.5,0.4,0.8,0.5c-0.3,0.3-0.5,0.4-0.6,0.601C31.669,82.6,30.469,83.399,29.369,84z M34.069,77c0.3,0.1,0.5,0.1,0.7,0.2
		c0.6,0.3,1,0.399,1.6,0.399c-0.7,0.9-1.4,1.8-2,2.5c-2.4-1.5-4.9-2.7-7.6-3.899c1.4-0.101,2.7-0.301,4-0.5
		C31.769,76.399,32.769,76.8,34.069,77z"/>
	<path fill="#FFCC4E" d="M37.269,33.2c0.1,0.4,0.1,0.8,0,1.1c0.5,0.5,1.1,0.9,1.8,1.2c1.9-0.1,3.9-0.3,5.9-0.4l0,0
		c0.2-0.1,0.2-0.2,0.4-0.1c0,0,0,0,0,0.1c2.3-0.2,4.5-0.3,6.8-0.4c1.5-0.1,3-0.5,4.3-1.2c0,0,0-0.1,0-0.3c0-0.1,0-0.1,0-0.3
		c-1.3-0.8-2.8-1.5-4.3-2c-0.4-0.1-0.7-0.2-1-0.3c-2.4-0.4-4.5-1.3-6.5-2.7c-0.5-0.5-1.2-0.8-1.9-0.8c-0.8,0.6-1.1,1.5-1.3,2.6
		c0,0.1,0,0.2,0,0.2c-0.3,0.2-0.7,0.4-1.1,0.5C39.169,31.1,38.169,32.1,37.269,33.2z M38.669,34.5c-0.9,0-1.2-0.4-0.7-1.3
		c0.4-0.9,1-1.6,1.9-2.1c0.5-0.3,0.8-0.6,1.3-0.9c0.4-0.2,0.8-0.5,1.2-0.8c-0.2-1,0.2-1.6,1.1-1.9c0.1,0,0.2,0.1,0.3,0.2
		c0,0,0,0,0,0.1s0,0.2,0,0.3c0,0,0,0.1,0,0.2c-0.1,0.1-0.1,0.1-0.2,0.1c-0.1,0.1-0.1,0.1-0.1,0.1c0,1.5-0.6,2.6-2,3.2
		C40.269,32.4,39.369,33.3,38.669,34.5z"/>
	<path fill="#FFF200" d="M37.969,33.2c-0.5,0.9-0.2,1.3,0.7,1.3c0.7-1.2,1.6-2.1,2.8-2.8c1.4-0.6,2-1.7,2-3.2c0,0,0,0,0.1-0.1
		c0.1,0,0.1,0,0.2-0.1c0-0.1,0-0.2,0-0.2c0-0.1,0-0.2,0-0.3s0-0.1,0-0.1c-0.1-0.1-0.2-0.2-0.3-0.2c-0.9,0.3-1.3,0.9-1.1,1.9
		c-0.4,0.3-0.8,0.6-1.2,0.8c-0.5,0.3-0.8,0.6-1.3,0.9C38.969,31.6,38.369,32.3,37.969,33.2z"/>
	<path fill="#FAA61A" d="M59.168,16c0-0.3-0.199-0.5-0.5-0.5c0-0.1,0-0.1-0.1-0.2c-0.4,0-0.6-0.1-0.8-0.2c-0.1,0-0.1,0-0.1,0
		c-0.2,0-0.3,0-0.5,0c-0.2,0.1-0.5,0.1-0.6,0.2c-0.6,0.3-1.2,0.7-1.9,0.8c-0.2,0.1-0.3,0.1-0.5,0.2c0,0.1,0,0.2-0.1,0.2
		c0,0,0,0,0.1,0s0.2,0.1,0.3,0.2c0.1,0,0.2,0,0.2,0.1c0,0.2-0.1,0.3-0.1,0.3c-0.1,0.1-0.1,0.1-0.1,0.3c-0.8,0.5-1.4,1.1-2,1.7
		c-0.1,0-0.3-0.1-0.3-0.1c-0.2-0.1-0.4-0.4-0.3-0.6l0,0c-0.2,0.1-0.4,0.4-0.5,0.7c0,0,0,0-0.1,0.1c0,0,0,0,0.1,0.1
		c0,0.1,0.1,0.1,0.2,0.2C54.469,19.1,56.969,17.9,59.168,16z"/>
	<path fill="#FFF200" d="M54.569,17.1c0,0,0.1-0.1,0.1-0.3c0-0.1-0.1-0.1-0.2-0.1c-0.1-0.1-0.2-0.2-0.3-0.2s-0.1,0-0.1,0
		c-0.9,0.4-1.6,1-2.2,1.7c0,0,0,0.1,0,0.2l0,0c-0.1,0.2,0.1,0.5,0.3,0.6c0,0,0.2,0.1,0.3,0.1c0.6-0.6,1.2-1.2,2-1.7
		C54.469,17.2,54.469,17.2,54.569,17.1z"/>
	<path fill="#ED1164" d="M58.969,18.6c0.399,0.4,0.699,0.8,0.899,1.3c0,0.1,0,0.1,0.101,0.2l0,0c1.399,1.5,3.199,2.8,5.199,3.6
		c0.301,0,0.601,0.2,0.801,0.3c2,0.4,4,0.9,6,1.2c0.399,0,0.699,0,1.199,0c4.301,0.4,8.5-0.5,12.601-2.7c1-0.5,1.899-1.3,2.899-2
		c0.5-0.8,1-1.5,1.7-2c0-0.1,0-0.2,0.101-0.3c0-0.1,0-0.2,0-0.3c1.1-1.2,1.699-2.5,2-4.2c0-0.1,0.199-0.2,0.199-0.2
		c0.101-1.5,0.4-2.9,0.801-4.1c-0.601,0.1-1.101,0.1-1.601,0.2c-0.1,0.3-0.1,0.5-0.1,0.8c-0.101,0.4-0.3,0.7-0.5,1.1
		c-0.101,0.6-0.101,1.1-0.101,1.7c-0.1,0.1-0.1,0.2-0.1,0.3c-0.1,0.1-0.3,0.4-0.4,0.5c0,0.1,0,0.2,0,0.3s0,0.2,0,0.2
		c-0.199,0.2-0.199,0.4-0.3,0.5c-1.399,3.4-3.899,5.7-7.7,7.1c-2.699,1.1-5.5,1.5-8.399,1.2c-2.9-0.1-5.7-0.9-8.3-2.4
		c0,0-0.101,0-0.2-0.1c-1.101-0.3-2.101-0.9-2.8-1.8c-1-0.5-1.601-1-2-1.8c-0.301,0.3-0.7,0.4-1,0.7
		C59.668,18.1,59.369,18.4,58.969,18.6z M60.969,19.1c0.1-0.2,0.199-0.3,0.399-0.2c0.8,0.7,1.8,1.3,2.8,1.9
		c0.101,0.1,0.2,0.1,0.301,0.2l-0.101,0.1c-0.1,0-0.2,0.1-0.3,0.2c-1.1-0.1-2.1-0.6-2.9-1.4C60.969,19.7,60.969,19.5,60.969,19.1z
		 M92.369,10.4L92.369,10.4c0,0,0.101,0,0.3,0.1c0,0,0,0.1,0.101,0.3c0,0.1,0,0.1,0,0.1c0,1.6-0.4,3.2-1.3,4.5
		c0,0.1,0,0.1-0.101,0.1c-0.3,0-0.6,0-0.7-0.2c0.5-1.3,0.801-2.8,1-4.2V11C91.869,10.6,92.069,10.5,92.369,10.4z"/>
	<path fill="#F6ADCD" d="M61.369,18.9c-0.2-0.1-0.3,0-0.399,0.2c0,0.4,0,0.6,0.199,0.8c0.801,0.8,1.801,1.3,2.9,1.4
		c0.1-0.1,0.2-0.2,0.3-0.2l0.101-0.1c-0.101-0.1-0.2-0.1-0.301-0.2C63.168,20.2,62.168,19.6,61.369,18.9z"/>
	<path fill="#F6ADCD" d="M92.369,10.4L92.369,10.4c-0.3,0.1-0.5,0.2-0.7,0.6v0.1c-0.199,1.4-0.5,2.9-1,4.2
		c0.101,0.2,0.4,0.2,0.7,0.2c0.101,0,0.101,0,0.101-0.1c0.899-1.3,1.3-2.9,1.3-4.5c0,0,0,0,0-0.1c-0.101-0.2-0.101-0.3-0.101-0.3
		C92.469,10.4,92.369,10.4,92.369,10.4z"/>
	<path fill="#0066B3" d="M43.669,37.1c0.3,0.4,0.5,0.9,0.6,1.4c-0.1-0.4-0.1-0.8-0.1-1.1c0.2,0,0.3-0.1,0.4-0.2l0,0
		c0.1,0,0.1,0,0.2,0.1c0.4,1.6,0.7,3.1,1.2,4.7v0.1c0,0,0,0.1-0.1,0.3c0,0,0,0-0.1,0.1c0.1,0.1,0.2,0.3,0.2,0.5c0,0,0,0.1-0.1,0.1
		c-0.2-0.1-0.2-0.2-0.2-0.5c0-0.1,0-0.1,0-0.1c-0.6-1-1-2-1.2-3c0,0.5,0.2,1,0.3,1.6c0,0,0,0.1,0.1,0.1c0.6,1.4,1,2.8,1.5,4.3
		c0.8,2.8,1.6,5.6,2.4,8.5c0.3,1.1,0.6,2.3,0.9,3.5c0.1,0.2,0.3,0.6,0.3,0.899c0,0.101,0,0.101,0,0.101c0.5,1.399,1,2.7,1.5,4.1
		c0.1,0.101,0.2,0.2,0.2,0.4c0.1,0.399,0.3,0.7,0.5,1.2c0,0.199,0,0.3,0.1,0.399c0.1,0.101,0.1,0.3,0.2,0.4c0,0.1,0,0.1,0,0.1
		c0,0.101,0,0.101,0,0.2c0.1,0.2,0.2,0.3,0.2,0.6c0.1,0.101,0.1,0.2,0.1,0.301c0.4-0.2,0.7-0.5,1.2-0.601
		c-0.8-2.2-1.5-4.5-2.2-6.899c-0.1-0.101-0.1-0.2-0.1-0.301c0,0,0-0.1-0.1-0.199c-0.6-2.5-1.5-5-2.4-7.4c-0.2-0.6-0.4-1.2-0.5-1.7
		c-0.1,0-0.1-0.1-0.2-0.1c-0.1-0.601-0.3-1.3-0.4-1.9l-0.4-1.7c-0.2-0.3-0.2-0.8-0.3-1.1c-0.4-1.2-0.7-2.3-0.9-3.4
		c0-0.2,0-0.3-0.1-0.4c0,0,0,0,0-0.1l0,0c-0.2-0.5-0.3-1.2-0.4-1.7c-0.2,0-0.3,0-0.5,0c-0.1-0.6-0.3-1.2-0.5-1.9
		c-0.1,0-0.2,0-0.3,0.1C44.269,36.9,43.969,37,43.669,37.1z"/>
	<path fill="#95B6DF" d="M44.169,37.4c0,0.3,0,0.7,0.1,1.1c0.1,0.3,0.1,0.6,0.2,1c0.2,1,0.6,2,1.2,3c0,0,0,0,0,0.1
		c0,0.3,0,0.4,0.2,0.5c0.1,0,0.1-0.1,0.1-0.1c0-0.2-0.1-0.4-0.2-0.5c0.1-0.1,0.1-0.1,0.1-0.1c0.1-0.2,0.1-0.3,0.1-0.3V42
		c-0.5-1.6-0.8-3.1-1.2-4.7c-0.1-0.1-0.1-0.1-0.2-0.1l0,0C44.469,37.3,44.369,37.4,44.169,37.4z"/>
	<path fill="#0066B3" d="M79.969,26L79.969,26c0.699,0.6,1.199,1.5,1.399,2.6c0.3,1.2,0.4,2.4,0.7,3.6c0.1,0.4,0.1,0.9,0,1.2
		c0.1,0.1,0.1,0.3,0.1,0.5c0.101,0,0.101,0.1,0.2,0.2c-0.1,0-0.1,0-0.2,0.1c0,0,0,0.1-0.199,0.2c0-0.1-0.101-0.1-0.2-0.2
		c0-0.1-0.101-0.1-0.101-0.2c0-0.1-0.1-0.2-0.199-0.3c0-0.1-0.101-0.1-0.101-0.2c-0.399-1-0.7-2.1-0.899-3.2
		c0.199,0.9,0.3,1.8,0.5,2.8c0.1,0,0.199,0,0.199,0c0,0.4,0.2,0.7,0.301,1h-0.101c0.101,0.6,0.2,1.1,0.3,1.7
		c0,0.1,0.101,0.2,0.101,0.2c0,0.1,0,0.1,0.1,0.1c-0.1,0.1-0.1,0.1-0.1,0.2c0.7,2.2,1.2,4.3,1.7,6.6c0.199,0.6,0.3,1.2,0.5,1.8
		c0.1,0.5,0.199,0.9,0.399,1.4c0.3,1,0.601,2,0.8,3l0.101,0.2c0.7,2.2,1.3,4.5,1.899,6.8l0.2,0.3c0,0.301,0.101,0.601,0.2,0.9
		c0.4,1.6,0.9,3.2,1.4,4.7c0.1,1.5,0.399,2.899,1,4.3c0.199,0.4,0.3,0.9,0.399,1.4c0.4,1.699,0.8,3.399,1.101,5
		c0,0.399,0.199,0.699,0.3,0.899c0.2,0,0.399,0,0.7,0.2c0.3,0.1,0.5,0,0.699-0.3c0.2-0.101,0.301-0.2,0.4-0.4l0,0
		c-0.6-4-1.6-7.7-2.8-11.5c-0.101-0.5-0.3-1-0.3-1.5c-0.2-0.7-0.5-1.5-0.801-2c0-0.399-0.199-0.6-0.199-1c-0.5-2.1-1-4.2-1.601-6.3
		c-0.2-0.7-0.399-1.4-0.7-2.1c-0.1-0.2-0.199-0.5-0.199-0.8c-0.101-0.7-0.301-1.2-0.601-1.6c-0.2-0.9-0.399-1.9-0.7-2.8
		c-0.199-1.1-0.5-2.3-0.8-3.4c0.101-0.1,0.101-0.2,0-0.4c-0.399-1.8-1-3.6-1.5-5.3c-0.1-0.2-0.1-0.3-0.1-0.3
		c-0.101-0.1-0.101-0.2-0.101-0.4c0,0,0,0,0.101-0.1c0.2-0.1,0.2-0.2,0.2-0.5c-0.5-1.7-0.9-3.5-1.301-5.3
		c-0.199-0.1-0.199-0.3-0.3-0.4c-0.2-0.4-0.399-0.9-0.399-1.3c0-0.1,0-0.1-0.101-0.2c-0.2-0.3-0.6-0.4-0.899-0.5v0.1
		c-0.101,0-0.301,0-0.301,0s-0.1,0-0.199,0c0,0.1,0,0.1-0.101,0.1c-0.2,0.1-0.399,0.3-0.399,0.5c0,0,0,0.1,0,0.3c0,0.1,0,0.1,0,0.2
		c0,0.1,0,0.1,0,0.2c0.1,0.1,0.1,0.1,0.1,0.1c0,0.1,0,0.1,0,0.2c0,0,0,0,0,0.1c0.1,0,0.1,0,0.1,0.1c0-0.2-0.1-0.5-0.199-0.8
		c0-0.1,0.1-0.2,0.199-0.3C79.769,26.1,79.869,26.1,79.969,26z M82.469,35.6c0,0,0,0,0.1,0s0.2,0,0.2,0.1c0.1,0.2,0.2,0.3,0.1,0.4
		v0.1l-0.1,0.1c0,0.1-0.101,0.1-0.2,0.2c-0.1-0.1-0.1-0.1-0.2-0.1c-0.1-0.2-0.1-0.4,0-0.6c0-0.1,0-0.1,0-0.1
		C82.369,35.6,82.369,35.6,82.469,35.6z"/>
	<path fill="#95B6DF" d="M82.569,35.6c-0.1,0-0.1,0-0.1,0c-0.101,0-0.101,0-0.101,0.1c0,0,0,0,0,0.1c-0.1,0.2-0.1,0.4,0,0.6
		c0.101,0,0.101,0,0.2,0.1c0.1-0.1,0.2-0.1,0.2-0.2l0.1-0.1v-0.1c0.101-0.1,0-0.2-0.1-0.4C82.769,35.6,82.668,35.6,82.569,35.6z"/>
	<path fill="#95B6DF" d="M79.969,26L79.969,26c-0.101,0.1-0.2,0.1-0.301,0.2c-0.1,0.1-0.199,0.2-0.199,0.3
		c0.1,0.3,0.199,0.6,0.199,0.8s0.101,0.3,0.101,0.6c0.1,0.1,0.1,0.3,0.2,0.5c0.1,0.7,0.3,1.2,0.5,1.9c0.199,1.1,0.5,2.2,0.899,3.2
		c0,0.1,0.101,0.1,0.101,0.2c0.1,0.1,0.199,0.2,0.199,0.3c0,0.1,0.101,0.1,0.101,0.2c0.1,0.1,0.2,0.1,0.2,0.2
		c0.199-0.1,0.199-0.2,0.199-0.2c0.101-0.1,0.101-0.1,0.2-0.1c-0.1-0.1-0.1-0.2-0.2-0.2c0-0.2,0-0.4-0.1-0.5c0.1-0.3,0.1-0.8,0-1.2
		c-0.3-1.2-0.4-2.4-0.7-3.6C81.168,27.5,80.668,26.6,79.969,26z"/>
	<path fill="#0066B3" d="M79.769,27.9V28c0.1,0.1,0.1,0.2,0.2,0.4C79.869,28.2,79.869,28,79.769,27.9z"/>
	<path fill="#0066B3" d="M74.769,38.5c-0.3,0-0.601,0-1,0c-2.5,0.1-5.101,0.3-7.601,0.6c-2.199,0.1-4.5,0.4-6.699,0.5l-0.301,0.1
		c-1.899,0.2-3.8,0.4-5.7,0.6c-1.8,0.2-3.5,0.5-5.2,0.8c0.2,0.6,0.3,1.2,0.4,1.8c5.3-1.2,10.5-2,15.9-2.4c5.1-0.5,10-1,14.9-1.6
		c0.399-0.1,0.699-0.2,1-0.1c0.199,0,0.199,0,0.3-0.1l0,0c-0.101-0.3-0.101-0.7-0.2-1.1c-0.6,0.2-1.4,0.3-2.2,0.2
		C77.168,38,75.969,38.2,74.769,38.5z M53.469,41L53.469,41c-0.3,0.1-0.5,0.2-0.9,0.2c-0.1,0.1-0.1,0.2-0.1,0.2c0,0.1,0,0.1,0,0.1
		c-1.3,0.4-2.5,0.4-3.7,0.1c0-0.1,0-0.2,0-0.2c0-0.1,0-0.1,0-0.2c1.2-0.2,2.4-0.3,3.5-0.4C52.669,41,52.969,41,53.469,41z"/>
	<path fill="#95B6DF" d="M53.469,41L53.469,41c-0.5,0-0.8,0-1.2-0.2c-1.1,0.1-2.3,0.2-3.5,0.4c0,0.1,0,0.1,0,0.2c0,0,0,0.1,0,0.2
		c1.2,0.3,2.4,0.3,3.7-0.1c0,0,0,0,0-0.1c0,0,0-0.1,0.1-0.2C52.969,41.2,53.169,41.1,53.469,41z"/>
	<path fill="#FAA61A" d="M97.569,2.1c-0.4,0-0.9,0.1-1.2,0.3c-1.3,0.8-2.6,1.7-3.899,2.7c-0.101,0-0.2,0.1-0.301,0.3
		c-0.3,0.4-0.6,0.8-1,1.1v0.2c0,0.2,0,0.4,0,0.6c0.801,0,1.7,0,2.601-0.1c0.2-0.1,0.5-0.3,0.7-0.5c0.199-0.1,0.3-0.2,0.5-0.2
		c0.5,0.2,1.399-0.1,2.5-0.9c0.899-0.6,1.699-1.3,2.5-2c0-0.2-0.101-0.4-0.2-0.5c-0.101-0.3-0.101-0.6-0.101-0.9
		C98.969,2.2,98.269,2.1,97.569,2.1z M94.469,4.5c0,0,0,0,0,0.1c-0.301,0.9-0.801,1.5-1.7,2.1c-0.3,0-0.601,0-0.7-0.2
		c0-0.1,0-0.3,0-0.3c0-0.1,0-0.1,0-0.2c0.6-0.5,1.1-1.1,1.7-1.6c0.2,0,0.399,0,0.5-0.1c0.1-0.1,0.2-0.1,0.2-0.1
		c0.1-0.1,0.199-0.1,0.199-0.1C94.668,4.2,94.569,4.4,94.469,4.5z"/>
	<path fill="#FFF200" d="M94.469,4.6c0-0.1,0-0.1,0-0.1c0.1-0.1,0.199-0.3,0.199-0.4c0,0-0.1,0-0.199,0.1c0,0-0.101,0-0.2,0.1
		c-0.101,0.1-0.3,0.1-0.5,0.1c-0.601,0.5-1.101,1.1-1.7,1.6c0,0.1,0,0.1,0,0.2c0,0,0,0.2,0,0.3c0.1,0.2,0.4,0.2,0.7,0.2
		C93.668,6.1,94.168,5.5,94.469,4.6z"/>
	<path fill="#678C5D" d="M105.569,54.2c-1.2-0.801-2.5-1.601-3.9-2.101c-1.1-0.399-2.199-0.6-3.199-0.899c-0.301,0-0.7-0.101-1-0.2
		c-0.4-0.101-0.801-0.3-1.101-0.3c-2.2-0.2-4.399-0.301-6.7-0.301v0.2c0.5,2,1,4,1.5,6c0.601,0,1.301-0.1,1.801-0.1l0,0
		c1.199,0.1,2.3,0.399,3.399,0.6c2.4,0.7,4.601,1.8,6.8,3.3c1.601,1.101,2.7,2.601,3.301,4.5c0.3,1.101,0.699,2.301,1,3.5
		c0.199,0.4,0.199,0.801,0.3,1.2c0,0.101,0,0.2,0.1,0.3c-0.1,0.2-0.1,0.301-0.1,0.5c0,0.2,0,0.5,0.1,0.7V71.2
		c0.101,0.3,0.101,0.6,0.101,0.899c0.199,0.9,0.199,1.9,0.199,2.9c-0.1,1.3-0.5,2.5-1.199,3.5c-0.2,0.5-0.301,0.899-0.5,1.3
		c0-0.1,0-0.1,0-0.2c0.399-0.7,0.699-1.399,1.199-2.1c0-0.4,0.101-0.8,0.5-1c0-0.101,0-0.101,0.101-0.2c0.5-2.1,0.8-4.2,0.899-6.3
		c0-0.101,0-0.3,0.101-0.3c0.2-0.101,0.2-0.2,0.399-0.2l0,0c0,0,0.101,0,0.2,0c0.601,2.7,0.3,5.3-0.8,7.8c-0.1,0.1-0.1,0.1-0.1,0.2
		c-0.301,1.1-0.801,2.2-1.601,3.2c-0.7,2.1-2,3.699-3.7,4.8c-0.399,0.3-0.8,0.3-1.199,0.3c-0.301,0-0.4-0.1-0.5-0.3
		c0.5-0.5,1-1,1.6-1.3c0.6-0.7,1.2-1.601,1.8-2.301c-0.399,0.301-0.7,0.7-1,1.101c-0.1,0.1-0.2,0.3-0.399,0.5
		c-0.5,0.6-1.101,1-1.801,1.3c0,0,0,0-0.1,0.1c-0.3,0.2-0.5,0.4-0.9,0.4v0.2l-0.399,0.399c-5.8,2.601-11.3,2.101-16.601-1.6
		c-2.199-1.6-3.8-3.3-4.899-5.4c-0.601-1.3-1.101-2.699-1.4-4.1c-0.1-0.2-0.2-0.3-0.2-0.4c0-0.199-0.199-0.3-0.199-0.5
		c0-0.3,0-0.5,0-0.899c0-0.101,0-0.2-0.101-0.3c0,0,0-0.101-0.1-0.2c0.1-0.601,0.1-1.2,0.1-1.9c0.101-1.2,0.3-2.399,0.601-3.399
		c0.1-0.2,0.199-0.5,0.199-0.601c0.5-0.7,1-1.5,1.5-2.3c0.2-0.4,0.5-0.8,0.801-1.2c0.199-0.399,0.3-0.7,0.6-1.1
		c1.1-1.8,2.6-3,4.6-3.8c0,0,0.101,0,0.2,0c0.101,0,0.3,0,0.3,0h0.101c-0.101-0.2-0.101-0.5-0.101-0.7c-0.1,0-0.1-0.101-0.1-0.101
		c-0.1-0.1-0.1-0.199-0.1-0.199c0-0.101,0-0.101-0.101-0.101c0-0.1,0-0.1,0-0.2c0,0,0-0.1,0-0.199c-0.1,0-0.1-0.101-0.1-0.101
		c-0.101-0.1-0.101-0.1-0.101-0.1c0-0.101,0-0.101,0-0.2s0-0.1,0-0.2c0,0,0,0-0.1-0.1c-0.1,0-0.1,0-0.1-0.101
		c-0.301-1.5-0.5-2.899-1-4.399l-0.5,0.1c-2.301,0.7-4.2,1.9-5.801,3.8c-0.899,1-1.8,2.101-2.699,3.301
		c-1.7,2.199-2.801,4.699-3.301,7.399c-0.5,2.101-0.699,4.3-1,6.4c-0.1,1.1,0,2.2,0.301,3.2c0.699,3.199,1.899,6,3.699,8.5
		c0,0.1,0,0.1,0,0.1c0.5,0.5,0.9,1,1.2,1.5c0.4,1,1,1.7,1.8,2.5c0.301,0.3,0.7,0.6,1,0.9c0.4,0.3,0.801,0.6,1.101,0.899
		c0.8,0.8,1.7,1.2,2.899,1.4c0.301,0,0.601,0.1,0.801,0.3c0.8,0.3,1.699,0.5,2.5,0.9c1.5,0.6,3,0.899,4.5,1.1c2.5,0.2,5,0,7.3-0.7
		c0.899-0.3,1.7-0.3,2.7-0.2c0.8-0.399,1.699-0.699,2.699-1c2.101-0.8,4-2.1,5.301-3.899c0.5-0.601,0.899-1.2,1.399-1.7
		c0.101-0.5,0.4-1,0.601-1.5c0.899-1.4,1.699-2.8,2.3-4.3c0.5-1.2,0.899-2.4,1.2-3.8c0.1-0.4,0.199-0.9,0.199-1.4
		c0.2-1.4,0.301-2.8,0.101-4.3c-0.101-1.4-0.3-2.8-0.7-4c-0.3-1.101-0.6-2.3-1.1-3.3c0-0.101,0-0.101,0-0.101
		c-0.2-0.1-0.2-0.2-0.301-0.399c0-0.101,0-0.101,0-0.2c-0.199-0.101-0.199-0.4-0.3-0.5c0-0.3-0.1-0.4-0.2-0.601
		c-0.1-0.199-0.199-0.399-0.199-0.6c-0.301-0.8-0.801-1.7-1.5-2.3c-0.601-0.7-1.301-1.5-1.801-2.2c-0.6-0.4-1.199-0.8-1.699-1.3
		C106.569,55,106.168,54.5,105.569,54.2z M83.769,52.5c0.2,0.1,0.3,0.2,0.399,0.3c0,0,0,0.1,0.101,0.1c-0.8,1-1.8,1.801-2.9,2.601
		c-1.2,1-2.2,2-3.2,3.1c-0.199,0.5-0.6,0.8-1,1.101c-0.199,0.5-0.399,0.899-0.699,1.399c0,0.2-0.101,0.4-0.301,0.601
		c-0.5,1.3-1.1,2.5-1.6,3.8c-0.2,0.5-0.4,1-0.8,1.6c-0.101,0.3-0.4,0.4-0.7,0.2c-0.4-0.4-0.4-0.9-0.1-1.5
		c0.1-0.2,0.199-0.4,0.399-0.6c-0.1-0.2,0-0.5,0.101-0.7v-0.101c0-0.199,0.199-0.3,0.199-0.399c0.101-0.101,0.101-0.101,0.101-0.101
		c0-0.399,0.1-0.699,0.2-0.899c0.1-0.101,0.199-0.3,0.199-0.4c1.2-2.7,2.801-5.1,5-7.2c1.301-1.199,2.601-2,4.101-2.699
		C83.469,52.6,83.668,52.6,83.769,52.5z M101.168,87.6c-0.199,0-0.199,0-0.399-0.1c-0.101-0.101-0.101-0.2-0.101-0.4V87
		c0.101-0.2,0.301-0.4,0.5-0.5c0,0,0.101,0,0.2,0l0,0c0.101,0,0.101,0,0.101,0c0.1,0.1,0.1,0.1,0.1,0.1c0,0.4-0.1,0.7-0.3,0.9
		C101.168,87.5,101.168,87.5,101.168,87.6z M72.069,69.6c0.3-0.399,0.7-0.6,1.1-0.8c0.101,0.1,0.2,0.1,0.2,0.1
		C73.469,69,73.469,69,73.469,69c-0.101,0.399-0.301,0.8-0.5,1.2c0,0.1,0,0.1,0,0.199c-0.2,0-0.301,0.101-0.4,0.101s-0.2,0-0.3,0
		c-0.2-0.3-0.3-0.5-0.2-0.8V69.6z"/>
	<path fill="#D7DF23" d="M84.168,52.8c-0.1-0.1-0.199-0.2-0.399-0.3c-0.101,0.1-0.3,0.1-0.5,0.2c-1.5,0.699-2.8,1.5-4.101,2.699
		c-2.199,2.101-3.8,4.5-5,7.2c0,0.101-0.1,0.3-0.199,0.4c-0.101,0.2-0.2,0.5-0.2,0.899c0,0,0,0-0.101,0.101
		c0,0.1-0.199,0.2-0.199,0.399V64.5c-0.101,0.2-0.2,0.5-0.101,0.7c-0.2,0.199-0.3,0.399-0.399,0.6c-0.301,0.6-0.301,1.1,0.1,1.5
		c0.3,0.2,0.6,0.1,0.7-0.2c0.399-0.6,0.6-1.1,0.8-1.6c0.5-1.3,1.1-2.5,1.6-3.8c0.2-0.2,0.301-0.4,0.301-0.601
		c0.3-0.5,0.5-0.899,0.699-1.399c0.4-0.301,0.801-0.601,1-1.101c1-1.1,2-2.1,3.2-3.1c1.101-0.8,2.101-1.601,2.9-2.601
		C84.168,52.899,84.168,52.8,84.168,52.8z"/>
	<path fill="#D7DF23" d="M100.769,87.5c0.2,0.1,0.2,0.1,0.399,0.1c0-0.1,0-0.1,0.101-0.1c0.2-0.2,0.3-0.5,0.3-0.9c0,0,0,0-0.1-0.1
		c0,0,0,0-0.101,0l0,0c-0.1,0-0.2,0-0.2,0c-0.199,0.1-0.399,0.3-0.5,0.5v0.1C100.668,87.3,100.668,87.399,100.769,87.5z"/>
	<path fill="#D7DF23" d="M73.168,68.8c-0.399,0.2-0.8,0.4-1.1,0.8V69.7c-0.1,0.3,0,0.5,0.2,0.8c0.1,0,0.2,0,0.3,0
		s0.2-0.101,0.4-0.101c0-0.1,0-0.1,0-0.199c0.199-0.4,0.399-0.801,0.5-1.2c0,0,0,0-0.101-0.101
		C73.369,68.899,73.269,68.899,73.168,68.8z"/>
	<path fill="#86537B" d="M89.469,50.399c0.1,0.101,0.1,0.101,0.199,0.2v-0.2C89.668,50.399,89.569,50.399,89.469,50.399z"/>
	<path fill="#86537B" d="M84.469,51.5c-0.101,0-0.301,0.1-0.5,0.1L84.469,51.5L84.469,51.5z"/>
	<path fill="#86537B" d="M100.769,85.899l0.399-0.399c-0.1,0-0.199,0.1-0.199,0.2C100.969,85.8,100.869,85.8,100.769,85.899z"/>
	<path fill="#D7DF23" d="M109.869,69.5c-0.1,0-0.2,0-0.2,0l0,0c-0.199,0-0.199,0.1-0.399,0.2c-0.101,0-0.101,0.199-0.101,0.3
		c-0.1,2.1-0.399,4.2-0.899,6.3c-0.101,0.1-0.101,0.1-0.101,0.2c-0.399,0.2-0.5,0.6-0.5,1c-0.5,0.7-0.8,1.399-1.199,2.1
		c0,0.101,0,0.101,0,0.2c-0.301,0.7-0.7,1.4-1.101,2.1c-0.6,0.7-1.2,1.601-1.8,2.301c-0.6,0.3-1.1,0.8-1.6,1.3
		c0.1,0.2,0.199,0.3,0.5,0.3c0.399,0,0.8,0,1.199-0.3c1.7-1.101,3-2.7,3.7-4.8c0.8-1,1.3-2.101,1.601-3.2c0-0.101,0-0.101,0.1-0.2
		C110.168,74.8,110.469,72.2,109.869,69.5z"/>
	<path fill="#0066B3" d="M82.069,43.5c-0.1-0.2-0.1-0.4-0.2-0.6c-1.3,1.6-2.6,3.2-3.899,4.8c-1.101,1.7-2.301,3.3-3.5,4.8
		c-1.801,2.3-3.5,4.6-5.301,7c-1.699,2.5-3.399,4.8-5.199,7.1c-0.4,0.5-0.801,0.9-1.101,1.5c-0.1,0-0.1,0-0.1,0
		c0.2,0.2,0.2,0.4,0.3,0.5c0.1,0.2,0.1,0.4,0.2,0.5c0.2-0.5,0.5-1,0.899-1.5c0.101-0.1,0.2-0.1,0.2-0.1
		c0.101-0.101,0.2-0.101,0.3-0.2c2.301-2.8,4.5-5.7,6.5-8.6c0,0,0.101-0.101,0.2-0.2c2-2.7,4.101-5.5,6.101-8.3
		c0-0.101,0.1-0.101,0.199-0.2c0.4-0.8,1-1.4,1.5-2c1.101-1.1,2.2-2.3,3.2-3.5c-0.1-0.3-0.2-0.5-0.2-0.8h-0.1
		C82.069,43.6,82.069,43.6,82.069,43.5z M81.569,44.1c0.1,0,0.1,0,0.2,0c0.1,0.1,0.1,0.3,0,0.4c0,0,0,0,0,0.1
		c-0.101,0.1-0.3,0.2-0.4,0.3c-0.7,1.2-1.8,2.3-3,3.1c-0.2,0.1-0.2,0.2-0.399,0.399c0,0,0,0-0.101,0c0.101-0.1,0.101-0.2,0.101-0.3
		c0,0,0,0,0.1-0.1c0,0,0,0,0-0.1s0-0.2,0-0.3c1.1-1.3,2.2-2.5,3.4-3.5H81.569z"/>
	<path fill="#95B6DF" d="M81.769,44.1c-0.101,0-0.101,0-0.2,0h-0.1c-1.2,1-2.301,2.2-3.4,3.5c0,0.1,0,0.2,0,0.3s0,0.1,0,0.1
		c-0.1,0.1-0.1,0.1-0.1,0.1c0,0.1,0,0.2-0.101,0.3c0.101,0,0.101,0,0.101,0c0.199-0.2,0.199-0.3,0.399-0.399c1.2-0.8,2.3-1.9,3-3.1
		c0.101-0.1,0.3-0.2,0.4-0.3c0-0.1,0-0.1,0-0.1C81.869,44.4,81.869,44.2,81.769,44.1z"/>
	<path fill="#95B6DF" d="M92.269,75.1c-0.3,0-0.601,0-0.8,0c0.3,0.4,0.8,0.601,1.3,0.9c0.1,0,0.1,0,0.2,0.1
		c0.5-0.2,1.1-0.399,1.699-0.7c0-0.1,0-0.1,0-0.1c0.101-0.3,0.2-0.6,0.301-0.9c0.1-0.3,0.199-0.5,0.199-0.8c0-0.1,0-0.2,0-0.2
		c-0.199-0.1-0.199-0.199-0.199-0.3c-0.2,0.7-0.601,1.3-1.2,1.601c-0.101,0-0.101,0-0.101,0c0,0.1,0,0.199-0.1,0.3
		c-0.1,0-0.2,0-0.4,0C92.869,75,92.569,75.1,92.269,75.1z"/>
	<path fill="#9B95C9" d="M62.668,63.2c0.7-0.101,1.301-0.2,2-0.4c-1.699-0.9-3.6-1.1-5.6-0.4c-0.2,0.101-0.4,0.2-0.6,0.301v0.1
		c0.9,0.3,1.7,0.4,2.5,0.5C61.469,63.399,62.069,63.3,62.668,63.2z"/>
	<path fill="#95B6DF" d="M44.369,44.4c0-0.1,0-0.1,0-0.1c0-0.1,0-0.1,0-0.2c-0.1,0-0.1,0-0.1,0c-0.1-0.1-0.2-0.2-0.3-0.1
		c-1.1,0.7-1.9,1.8-2.5,3.1c0,0,0,0.1,0,0.2s0,0.1,0,0.2c-0.1,0-0.1,0.1-0.2,0.2c-0.3,0.3-0.4,0.6-0.6,0.9c0.1,0,0.1,0,0.2,0
		c0.3-0.4,0.6-0.7,0.8-1.1c0,0,0.1,0,0.3,0c0,0,0,0,0-0.1c0,0,0,0,0.1-0.1C42.769,46.2,43.469,45.2,44.369,44.4z"/>
	<path fill="#0066B3" d="M44.269,44.1c-0.1-0.1-0.1-0.1-0.1-0.1c0-0.4-0.1-0.6-0.2-0.9c-0.3,0.4-0.6,0.8-0.9,1.2
		c-1.4,2.2-2.9,4.3-4.6,6.4c0,0.1-0.1,0.3-0.1,0.399c-0.5,0.601-0.9,1.2-1.4,1.8c0,0.101-0.1,0.2-0.2,0.2c0,0,0,0,0,0.101
		c-1.8,2.3-3.5,4.399-5.3,6.699c-0.7,0.801-1.3,1.7-2.1,2.601c-0.7,0.899-1.5,1.7-2.2,2.7c-0.5,0.6-1,1.199-1.5,1.899
		c0,0.101,0,0.3-0.1,0.4c-0.1,0-0.1,0.1-0.1,0.2c-0.1,0.1-0.3,0.199-0.3,0.199c-0.3,0.301-0.6,0.7-0.8,1.101
		c-0.2,0.2-0.4,0.5-0.7,0.899c0.4,0,0.8,0.101,1.1,0.2c0.5-0.5,0.9-1,1.4-1.399c0.2-0.2,0.3-0.301,0.5-0.5V68.1
		c0.3-0.399,0.5-0.6,0.8-1c0.7-0.8,1.4-1.6,2.1-2.5c0.1-0.2,0.2-0.5,0.4-0.6c0.4-0.601,0.8-1.2,1.2-1.8c1.5-1.7,3-3.301,4.5-5.101
		c0.3-0.5,0.7-1,1-1.6c0,0,0,0,0-0.101c1.9-2.399,3.8-4.8,5.8-7.1c0.6-1.1,1.3-2.1,2.1-3.1c-0.1-0.3-0.2-0.6-0.2-0.8
		c-0.9,0.8-1.6,1.8-2.3,2.9c-0.1,0.1-0.1,0.1-0.1,0.1c0,0.1,0,0.1,0,0.1c-0.2,0-0.3,0-0.3,0c-0.2,0.4-0.5,0.7-0.8,1.1
		c-0.1,0-0.1,0-0.2,0c0.2-0.3,0.3-0.6,0.6-0.9c0.1-0.1,0.1-0.2,0.2-0.2c0-0.1,0-0.1,0-0.2s0-0.2,0-0.2c0.6-1.3,1.4-2.4,2.5-3.1
		C44.069,43.9,44.169,44,44.269,44.1z"/>
	<path fill="#678C5D" d="M42.169,62.899c-0.4-0.8-0.7-1.6-1-2.399c-0.6-0.9-1.2-1.8-1.8-2.601c0-0.1,0-0.199,0-0.3
		c-0.5-0.399-0.9-0.899-1.2-1.399c-0.1,0.3-0.3,0.5-0.5,0.8c-0.2,0-0.3,0.1-0.5,0.3c-0.5,0.6-1,1.2-1.4,1.8c-0.4,0.4-0.8,1-1.2,1.4
		c0.6,0.3,1,0.6,1.4,1c0.2,0.399,0.4,0.8,0.7,1.2c1.2,2,2,4.3,2.5,6.699c-0.1,0.2-0.2,0.5-0.4,0.7c0.4,0,0.7,0,1.1,0
		c0.1,0,0.1,0,0.1,0c1.4-0.3,2.7-0.6,4.1-0.7l-0.2-1c-0.2-1.699-0.7-3.199-1.4-4.8C42.469,63.399,42.369,63.1,42.169,62.899z"/>
	<path fill="#86537B" d="M43.969,68.8c0-0.2,0-0.3-0.1-0.4l0.2,1h0.1C43.969,69.2,43.969,69,43.969,68.8z"/>
	<path fill="#9B95C9" d="M60.469,64.5c-0.301,0-0.5,0-0.801,0v0.1c-0.199,0.101-0.199,0.4-0.3,0.601v0.199
		c0,0.101-0.2,0.101-0.2,0.2c0,0,0.2,0,0.2,0.101c0.2-0.4,0.4-0.7,0.8-0.801l0,0C60.168,64.7,60.369,64.6,60.469,64.5z"/>
	<path fill="#0066B3" d="M56.369,67.899c0.6,0.101,1.3,0.2,1.8,0.5c0.3,0.101,0.6,0.301,1,0.601c0.601,0.399,1.101,1,1.5,1.7
		c0,0.1,0.101,0.199,0.101,0.3c0,0.1,0,0.1,0,0.2v0.199c0,0.101,0,0.101,0.1,0.2c0.101,0.101,0.101,0.101,0.101,0.2s0,0.1,0,0.1
		c-0.101,0.2-0.2,0.301-0.101,0.5c0,0.101,0,0.101,0,0.101v0.1c0.101,1.3-0.5,2.3-1.8,3.101c-0.7,0.399-1.4,0.699-2.1,0.6
		c-0.2,0.1-0.4,0.2-0.6,0.2c-0.2,0-0.4,0-0.7-0.101c0,0.101-0.1,0.301-0.2,0.5c-0.1,0.301-0.2,0.7-0.3,1.101l0,0
		c0.5,0,1,0,1.7-0.101c0.1-0.1,0.1-0.1,0.3-0.1c0.3-0.1,0.5-0.2,0.8-0.3c0.4-0.101,0.7-0.3,1.1-0.4c0.6-0.399,1.1-0.7,1.6-1.2
		c0.801-0.8,1.301-1.8,1.5-2.899c0.2-0.5,0.301-1,0.2-1.5c0-0.101,0-0.3,0-0.4c-0.1,0-0.1,0-0.2,0c0-0.5-0.1-0.8-0.199-1.1
		c-0.2-0.101-0.301-0.3-0.5-0.4c0-0.1,0-0.2-0.101-0.399V69.1c-0.3-0.399-0.6-0.7-0.899-1c-0.5-0.399-1.301-0.7-2.101-1l0,0
		c-0.2,0-0.4,0-0.7,0c-0.7,0-1.5,0-2.2,0c-0.1,0-0.3,0-0.7,0c0,0,0,0-0.1,0c-0.6,0.101-1.2,0.4-1.5,0.8
		c0.3-0.199,0.7-0.399,1.2-0.399c0.1-0.101,0.3-0.101,0.6-0.101c-0.3,0.9-1,1.601-2.2,1.9c-0.3,0.1-0.4,0.2-0.6,0.4
		c-0.4,0.5-0.7,1-1,1.5c0,0.199-0.1,0.399-0.2,0.5c0,0.1,0,0.1,0,0.1c-0.2-0.1-0.2-0.3-0.1-0.4c0-0.1,0-0.1,0.1-0.199
		c-0.1,0-0.1,0-0.2-0.101c0,0.101,0,0.101-0.1,0.2c-0.1,0.8-0.2,1.5-0.1,2.2c0.1,0.5,0.1,1,0.1,1.5c0.1,0.1,0.2,0.2,0.3,0.3
		c0.1,0.2,0.2,0.6,0.4,0.8c0,0,0,0,0,0.101c0.3,0.399,0.7,0.8,1.1,1c0.3-0.4,0.5-0.9,0.8-1.301l-0.1-0.1c0,0.1-0.2,0-0.2-0.1
		c-0.1-0.101-0.1-0.101-0.1-0.101c-0.1,0-0.1,0-0.1,0c-0.3-0.2-0.6-0.5-0.8-0.899c-0.1-0.2-0.2-0.301-0.3-0.5
		c0-0.5,0.1-0.801,0.1-1.2c0.1-0.4,0.1-0.8,0.2-1.101c0,0,0-0.199,0.1-0.199c0.1-0.101,0.1-0.101,0.1-0.2c0-0.101,0.1-0.4,0.2-0.5
		c0-0.3,0.1-0.5,0.3-0.8c0.4-0.7,1-1.2,1.8-1.601c0.2-0.1,0.3-0.2,0.5-0.399c0.1-0.101,0.1-0.101,0.2-0.101
		c0,0.101,0,0.101,0.1,0.101C55.669,68.2,56.069,68.1,56.369,67.899z M61.269,73.6c0.1-0.1,0.1-0.1,0.2,0
		c0.199,0.101,0.199,0.4,0,0.601c0,0,0,0,0,0.1c-0.5,0.9-1.301,1.6-2.301,1.8C59.969,75.3,60.668,74.5,61.269,73.6z"/>
	<path fill="#95B6DF" d="M61.469,73.6c-0.101-0.1-0.101-0.1-0.2,0c-0.601,0.9-1.3,1.7-2.101,2.5c1-0.2,1.801-0.899,2.301-1.8
		c0-0.1,0-0.1,0-0.1C61.668,74,61.668,73.7,61.469,73.6z"/>
	<path fill="#95B6DF" d="M52.169,69.7c0.2-0.2,0.3-0.301,0.6-0.4c1.2-0.3,1.9-1,2.2-1.9c-0.3,0-0.5,0-0.6,0.101
		c-0.5,0-0.9,0.2-1.2,0.399c-1.4,0.601-2.2,1.601-2.5,3.101c0.1,0.1,0.1,0.1,0.1,0.1c0.1,0.101,0.1,0.101,0.2,0.101
		c-0.1,0.1-0.1,0.1-0.1,0.199c-0.1,0.101-0.1,0.301,0.1,0.4c0,0,0,0,0-0.1c0.1-0.101,0.2-0.301,0.2-0.5
		C51.469,70.7,51.769,70.2,52.169,69.7z"/>
	<path fill="#9B95C9" d="M55.669,72.8c-0.1,0.1-0.1,0.1-0.2,0.1c-0.3,0.601-0.6,1.301-0.9,2.101c-0.1,0.1-0.1,0.1-0.1,0.2
		c-0.1,0.699-0.3,1.3-0.7,1.899c0,0.101-0.1,0.2-0.1,0.3c-0.3,0.7-0.5,1.4-0.8,2.101c-0.1,0.1-0.1,0.2-0.1,0.3
		c-0.1,0.3-0.3,0.6-0.6,0.8V80.7c0,0.3,0,0.5-0.2,0.699c0,0.101,0,0.101,0,0.101c0.2,0,0.2,0.1,0.4,0.2c0.1-0.2,0.1-0.2,0.3-0.301
		c0-0.1,0-0.199,0-0.199c0-0.101,0-0.101,0-0.101c0.1-0.2,0.3-0.399,0.4-0.6v-0.101c0.1-0.1,0.1-0.199,0.1-0.199
		c0.2-0.301,0.3-0.7,0.3-1.101c0.1,0,0.1,0,0.2,0c0.1-0.5,0.3-1,0.4-1.5c0.1,0,0.1-0.1,0.2-0.1c0.1,0,0.1,0,0.1-0.101
		c0,0,0-0.1,0-0.199c0.1-0.101,0.1-0.101,0.3-0.2l0,0c0-0.101,0-0.2,0-0.3V76.6c0.3-0.6,0.7-1.2,1-1.899c0-0.2,0.1-0.301,0.1-0.5
		c0.1-0.101,0.2-0.101,0.2-0.101c0.1-0.1,0.2-0.399,0.3-0.6c-0.1-0.101-0.3-0.4-0.4-0.601C55.769,72.899,55.669,72.899,55.669,72.8z
		"/>
	<path fill="#9B95C9" d="M55.469,72.1c0.1,0,0.1-0.1,0.2-0.1l0,0c0.1,0,0.2,0,0.3-0.101l0,0c0.2,0,0.5,0.101,0.7,0.101
		c0,0.1,0.1,0.1,0.2,0.2c-0.1,0.199-0.1,0.399,0,0.5c0.1,0,0.1,0,0.1,0c0.1,0.1,0.1,0.199,0.2,0.3c0,0,0,0,0,0.1
		c0,0.101-0.1,0.2-0.2,0.4l0,0c0,0.1,0,0.1,0,0.1c-0.1,0.3-0.2,0.5-0.3,0.8V74.5c-0.2,0.3-0.3,0.6-0.5,1
		c0.3-0.101,0.6-0.101,0.9-0.2s0.6-0.2,0.9-0.2c0.3-0.3,0.6-0.6,0.8-0.899c0.3-0.301,0.6-0.601,0.899-0.801c0-0.199,0-0.3,0-0.3l0,0
		c0-0.1,0-0.1,0.101-0.2c0,0,0,0,0-0.1c0.2-0.5,0.2-1-0.101-1.4c-0.1-0.199-0.199-0.399-0.199-0.6c-0.101-0.2-0.301-0.3-0.301-0.4
		c0-0.1,0-0.199,0-0.199c-1-1.101-2.1-1.5-3.5-1.301c-0.4,0.601-1,1.101-1.9,1.5c0,0-0.1,0-0.1,0.101c-0.6,1-0.8,2-0.6,3.2
		c0.1,0.1,0.1,0.199,0.1,0.3c0,0.1,0,0.1,0.1,0.2c0.2,0.3,0.4,0.399,0.5,0.699l0,0c-0.1-0.3-0.1-0.399,0.1-0.699
		c0.1-0.2,0.2-0.4,0.2-0.7C54.469,72.899,54.969,72.5,55.469,72.1z"/>
	<path fill="#678C5D" d="M44.769,74.1c-0.4,0.101-1,0.2-1.4,0.3V74.5c-0.3-0.101-0.7-0.2-1.2-0.101c-0.1,0.101-0.2,0.101-0.4,0.101
		c-0.7,0-1.4,0.1-2.1,0.2c-0.2,0-0.3,0-0.5,0c-0.4,1.5-1,3-1.7,4.399c-0.6,0.9-1.3,1.8-2.1,2.5c-0.6,0.5-1.1,1-1.7,1.601
		c1.5-0.801,2.7-2,3.5-3.4c0.6-1.1,1.3-2.1,2-3.2c0.1-0.1,0.2-0.2,0.3-0.399c0.1,0,0.1,0,0.2-0.101h0.1l0,0c0.2,0,0.3,0.101,0.4,0.3
		c0.1,0,0.1,0,0.2,0.101c-1.1,3.399-3,6.1-6,8.3c-1.6,1-3.2,1.7-4.9,2.1c-0.1,0-0.2-0.1-0.3-0.1c0,0,0-0.1,0-0.2
		c-0.1,0-0.1,0-0.1-0.1c0,0,0-0.101,0-0.2c0.2-0.2,0.4-0.3,0.6-0.5c-0.2,0.1-0.5,0.2-0.9,0.3c-0.3,0.101-0.6,0.2-0.8,0.3
		c-2.8,0.9-5.5,0.9-8.2,0.101c-0.8-0.2-1.4-0.4-2.1-0.7c-1.5-0.7-2.9-1.5-4.2-2.4c-0.7-0.5-1.4-1.199-2.1-1.899
		c-0.3-0.4-0.7-0.9-1-1.4c-0.3-0.3-0.5-0.7-0.6-1.1c-0.9-1.4-1.5-2.9-1.8-4.5c0-0.2,0-0.4-0.1-0.601c0,0,0-0.199-0.1-0.199
		c0-0.101,0-0.2,0-0.2s0-0.101,0.1-0.2c-0.1-0.1-0.1-0.2-0.1-0.2c0-0.1-0.1-0.2-0.1-0.2c0-0.199,0-0.3,0-0.3c0-0.1,0-0.1,0-0.2
		c0-0.1,0-0.199-0.1-0.3c-0.1,0-0.1-0.1-0.1-0.1c0-0.101,0-0.3,0-0.3c0-0.101,0-0.2-0.1-0.2c-0.1-1.101-0.1-2.3,0.1-3.4
		c0.1-0.399,0.1-0.8,0.2-1.1c0-0.101,0-0.2,0-0.3c0-0.2,0-0.301,0.1-0.601c0,0,0-0.1,0.1-0.1c0.1-0.601,0.3-1.2,0.5-1.8
		c0.6-1.801,1.9-3.301,3.5-4.5c1.3-1.601,2.9-2.601,4.8-3.101c1.1-0.5,2.3-0.8,3.6-0.7c0.7-0.1,1.4-0.199,1.8-0.399
		c0.9,0,1.6,0,2.4,0.1c0.2-0.1,0.5-0.1,0.7-0.1c1.2,0.1,2.3,0.399,3.3,0.7c0.5,0.199,0.9,0.3,1.2,0.399c0.5,0.101,1,0.4,1.5,0.8
		c0.1-0.3,0.3-0.399,0.4-0.699c0.6-0.601,1.2-1.301,1.8-2.101c0,0,0,0,0-0.1l0,0c0.4-0.601,0.9-1.101,1.3-1.601l-0.1-0.199
		c-0.1,0-0.1,0-0.2-0.101l-0.2-0.1c-0.5-0.2-1-0.4-1.4-0.5c-1.3-0.5-2.8-0.8-4.1-1c-0.1,0-0.2,0-0.2-0.101c-0.7-0.1-1.3-0.199-2-0.3
		c-1.5,0-3.1,0-4.7,0c0.4,0.101,0.7,0.3,1,0.5c0.2,0.101,0.2,0.2,0.2,0.4c-0.1,0.5-0.5,0.7-1,0.7c-3.7,0.199-7.2,1.199-10.3,2.8
		c-1.7,0.899-2.9,2.1-3.9,3.6c-0.4,0.5-0.8,1.101-1.1,1.7c-0.7,1.1-1.3,2.2-1.8,3.4c0,0,0,0.1,0,0.199c-0.1,0.7-0.6,1-1.3,0.7
		c0.1-1.1,0.4-2.2,0.9-3.399c0.9-2.101,2.3-4.101,4.1-5.801c1-1,2.2-1.8,3.4-2.399c2.4-1.101,4.8-1.9,7.3-2.2
		c-0.7,0.1-1.3,0.2-1.9,0.2c-0.6,0.1-1,0.1-1.6,0.2c-2.1,0.5-4.1,1.399-5.9,2.8c-0.9,0.6-1.7,1.399-2.5,2.2
		c-0.1,0.1-0.2,0.199-0.3,0.3c-0.1,0.1-0.2,0.2-0.3,0.3c0,0.1,0,0.1,0,0.2c-0.1,0-0.1,0.1-0.1,0.1l0,0c-0.2,0.2-0.3,0.4-0.4,0.5
		c-0.1,0.101-0.1,0.2-0.2,0.3c-0.7,0.801-1.3,1.801-1.7,2.801c-1,2-1.7,4.199-2.2,6.399c-0.2,0.7-0.3,1.4-0.4,2.101
		c0,1.899,0,3.699,0.2,5.5c0.2,1.399,0.4,2.699,0.7,3.899c0.1,0.3,0.1,0.5,0.1,0.8c0.1,0.301,0.3,0.7,0.5,1.101l0,0
		c0.2,0.7,0.5,1.3,0.9,1.899c0.1,0.2,0.2,0.4,0.3,0.601c0.8,0.8,1.4,1.7,2,2.7c0.4,0.3,0.8,0.6,1,1c0.5,0.6,1.1,1.1,1.8,1.6
		c1,0.7,2,1.3,3,2c0.1,0,0.1,0.1,0.2,0.2c0.8,0.2,1.4,0.5,2.2,0.6c0.1,0,0.2,0,0.4,0.101c0.6,0.1,1.2,0.3,1.7,0.6
		c0.2,0,0.5,0,0.7,0.1c0.3,0.101,0.6,0.101,0.9,0.101c1.7,0.3,3.4,0.5,5.2,0.6c0.9,0.101,1.9,0.2,2.9,0.101c2.7-0.301,5.3-1,7.9-2.2
		c0.8-0.7,1.8-1.3,2.8-1.9c0.2,0,0.3-0.1,0.5-0.2c1.3-1,2.3-2.3,3-3.699c0.7-1.101,1.3-2.101,2-3.2l0,0c0-0.101,0-0.2,0-0.3
		c0.5-0.7,0.8-1.301,1.2-2.101c0.3-1,0.6-2,0.7-3C44.669,75.399,44.769,74.8,44.769,74.1z M3.669,66.2L3.669,66.2
		c0.3,0,0.6,0.3,0.6,0.6c0,0.1,0,0.1,0,0.1c-0.1,0.301-0.4,0.601-0.8,0.7c-0.1-0.1-0.1-0.1-0.2-0.1c-0.1,0-0.1,0-0.1-0.101
		c-0.1-0.1-0.2-0.199-0.2-0.3c0.1-0.2,0.1-0.3,0.1-0.5C3.169,66.399,3.369,66.2,3.669,66.2z M16.369,89L16.369,89L16.369,89
		L16.369,89z"/>
	<path fill="#D7DF23" d="M3.669,66.2L3.669,66.2c-0.3,0-0.5,0.199-0.6,0.399c0,0.2,0,0.3-0.1,0.5c0,0.101,0.1,0.2,0.2,0.3
		c0,0.101,0,0.101,0.1,0.101c0.1,0,0.1,0,0.2,0.1c0.4-0.1,0.7-0.399,0.8-0.7c0,0,0,0,0-0.1C4.269,66.5,3.969,66.2,3.669,66.2z"/>
	<path d="M16.369,89L16.369,89L16.369,89L16.369,89z"/>
	<path fill="#D7DF23" d="M22.769,51.1c-0.3-0.2-0.6-0.399-1-0.5c-0.5-0.1-1.1-0.1-1.8,0.101c-0.2,0-0.5,0-0.7,0.1
		c-2.5,0.3-4.9,1.1-7.3,2.2c-1.2,0.6-2.4,1.399-3.4,2.399c-1.8,1.7-3.2,3.7-4.1,5.801c-0.5,1.199-0.8,2.3-0.9,3.399
		c0.7,0.3,1.2,0,1.3-0.7c0-0.1,0-0.199,0-0.199c0.5-1.2,1.1-2.301,1.8-3.4c0.3-0.6,0.7-1.2,1.1-1.7c1-1.5,2.2-2.7,3.9-3.6
		c3.1-1.601,6.6-2.601,10.3-2.8c0.5,0,0.9-0.2,1-0.7C22.969,51.3,22.969,51.2,22.769,51.1z"/>
	<path fill="#D7DF23" d="M29.669,85.8c-0.2,0.2-0.4,0.3-0.6,0.5c0,0.1,0,0.2,0,0.2c0,0.1,0,0.1,0.1,0.1c0,0.101,0,0.2,0,0.2
		c0.1,0,0.2,0.1,0.3,0.1c1.7-0.399,3.3-1.1,4.9-2.1c3-2.2,4.9-4.9,6-8.3c-0.1-0.101-0.1-0.101-0.2-0.101c-0.1-0.199-0.2-0.3-0.4-0.3
		l0,0h-0.1c-0.1,0.101-0.1,0.101-0.2,0.101c-0.1,0.199-0.2,0.3-0.3,0.399c-0.7,1.101-1.4,2.101-2,3.2c-0.8,1.4-2,2.6-3.5,3.4
		c0,0,0,0-0.1,0C32.169,84,30.969,84.8,29.669,85.8z"/>
	<path fill="#0066B3" d="M44.769,70.7c0-0.101-0.1-0.101-0.1-0.101c0,0.101-0.2,0.101-0.2,0.101c-0.3,0-0.5,0-0.8,0
		c-0.7,0.199-1.5,0.3-2.3,0.399c-3.7,0.8-7.4,1.2-11,1.4c-1,0-1.9,0.1-2.9,0.2c-0.2,0.1-0.3,0.1-0.5,0.1c0,0.3-0.2,0.5-0.3,0.7
		c-0.2,0.6-0.5,1-0.8,1.399c3.5-0.5,6.9-1,10.5-1.3c0.1,0,0.2,0,0.3,0c2.9-0.3,5.8-0.6,8.7-0.899c0.6-0.101,1.3-0.2,1.8-0.2
		c0.3-0.101,0.5-0.101,0.8-0.101c0.2,0,0.4,0,0.5,0c0-0.399,0-0.8,0-1.199c0.3-0.4,0.5-0.801,0.7-1.2c0-0.101-0.1-0.101-0.2-0.101
		c0,0,0,0-0.1,0c-0.1,0.101-0.2,0.2-0.2,0.2c-0.3,0.101-0.7,0.3-1,0.2C46.669,70.2,45.669,70.399,44.769,70.7z M33.969,72.5
		c0,0,0,0,0,0.1c-2.1,0.9-4.3,1.4-6.6,1.2c-0.2,0-0.2-0.1-0.4-0.1c0-0.101,0-0.101,0-0.101c0-0.1,0-0.2,0-0.2c2.2-0.5,4.2-0.8,6.4-1
		C33.569,72.5,33.769,72.5,33.969,72.5z"/>
	<path fill="#95B6DF" d="M33.969,72.6c0-0.1,0-0.1,0-0.1c-0.2,0-0.4,0-0.6-0.101c-2.2,0.2-4.2,0.5-6.4,1c0,0,0,0.101,0,0.2
		c0,0,0,0,0,0.101c0.2,0,0.2,0.1,0.4,0.1C29.669,74,31.869,73.5,33.969,72.6z"/>
	<path fill="#9B95C9" d="M46.969,84.1L46.969,84.1V84.2c2.2,1.199,4.6,1.3,7.2,0.3c-0.1-0.101-0.2-0.3-0.2-0.4
		C51.669,84.399,49.369,84.3,46.969,84.1z"/>
	<path fill="#9B95C9" d="M48.469,82.399c0,0,0,0-0.1-0.1c-0.6,0.2-1,0.6-1.4,1.1c2,0.101,4,0.101,6-0.1
		C51.469,82.7,50.069,82.399,48.469,82.399z"/>
	<path fill="#95B6DF" d="M24.469,72.1c-0.4-0.399-0.8-0.6-1.3-0.7c-0.4,0.2-0.8,0.301-1.2,0.5c-0.1,0.2-0.3,0.301-0.3,0.5l0,0
		c0,0.2,0,0.5-0.2,0.601c0,0.399,0.2,0.899,0.7,1.3c0.1,0.2,0.3,0.3,0.5,0.3c1.1,0.3,1.8-0.1,2-1.3
		C24.769,72.899,24.669,72.5,24.469,72.1z"/>
</g>
</svg>
