<?xml version="1.0" encoding="utf-8"?>
<!-- Generator: Adobe Illustrator 13.0.0, SVG Export Plug-In . SVG Version: 6.00 Build 14948)  -->
<svg version="1.2" baseProfile="tiny" id="Layer_1" xmlns="http://www.w3.org/2000/svg" xmlns:xlink="http://www.w3.org/1999/xlink"
	 x="0px" y="0px" width="96.834px" height="62.262px" viewBox="0 0 96.834 62.262" xml:space="preserve">
<g>
	<path d="M95.013,7.448c-0.1-0.2-0.199-0.3-0.399-0.5c0.1,0,0.2,0.3,0.2,0.5c-2.301-2.6-3.9-4.1-4.801-4.8
		c-0.3-0.2-0.5-0.2-0.699-0.3c-2.801-0.6-5.7-1.1-8.5-1.7c-4.301-1.1-8.4-0.8-12.101,0.9c-3.2,1.5-6.399,3-9.399,4.7
		c-1,0.6-1.9,1.1-2.9,1.6c-0.6,0.4-1.1,0.6-1.6,1c-1,0.5-1.9,1-2.801,1.6c-0.1,0-0.1,0-0.199,0c0,0.1,0,0.1,0,0.1
		c-1,0.7-2,1.4-3,2.1c-3.9,2.3-7.7,4.4-11.6,6.6c-4,2.2-7.9,4.5-11.9,6.7c-0.9,0.5-1.8,0.8-2.8,0.9c-0.2,0.2-0.4,0.4-0.7,0.6
		c-2.3,1-4.7,2-7.3,2.8c-2.2,0.6-4.4,1.2-6.5,2.1c-0.8,0.2-1.5,0.5-2.1,0.899c-4.1,2.5-6.1,6.101-5.9,10.801
		c0.4,0.699,0.9,1.3,1.5,1.8c1,1.2,2.3,2.2,3.5,3.1c1.6,1.101,3.3,2.101,5.2,2.8c2.5,1,4.8,1.801,7.3,2.601
		c5,1.5,10.2,2.399,15.3,2.6c2,0.2,3.9,0.2,5.8,0.2c2.2,0,4.4,0.1,6.5,0.3c1.2,0.2,2.2,0,3.2-0.5c0.5,1.8,1.5,3.2,3,4.101
		c1.5,0.8,3,1.3,4.8,1.199c0.399-0.199,0.899-0.399,1.3-0.6c2.6-1.4,4.3-3.4,5-6.2c0.4-1.6,0.4-3.1,0.1-4.7
		c0.301-0.1,0.5-0.3,0.801-0.399c2.8-2,5.699-4,8.5-5.9c4.699-3.1,8.699-6.6,12.3-10.6c1.899,0.8,3.7,0.6,5.5-0.4
		c0.7-0.5,1.2-0.899,1.7-1.5c2-2.4,2.5-5.1,1.8-8.2c0.6-0.7,1.2-1.4,1.6-2.2c0.5-0.8,1-1.7,1.4-2.6c0.2-0.3,0.3-0.5,0.399-0.9
		c0-0.2,0-0.3,0-0.5c0-0.6,0.101-1.1,0.2-1.7C97.114,12.849,96.513,10.048,95.013,7.448z M90.513,6.349c0.4,0.2,0.9,0.6,1.301,1.1
		c0.699,0.6,1.1,1.4,1.5,2.1c0.1,0,0.1,0,0.1,0.2c0.1,0,0.1,0.1,0.1,0.1c0.601,1.4,1,2.8,1.101,4.2c0,0.1,0,0.2,0,0.2
		c0.1,0.8,0,1.6-0.101,2.5c-0.199,0.4-0.199,0.8-0.399,1.3c-0.4,1.4-1.101,2.4-2.101,3.2c0,0.1,0,0.1-0.199,0.1
		c0,0.1,0,0.1-0.101,0.1c-0.3,0-0.5,0-0.6-0.2c0.1-0.1,0.1-0.1,0.1-0.2h-0.1c-0.101,0-0.101,0-0.101,0s0,0,0-0.1l-1.1-0.2l-0.7,0.2
		l-0.6-0.2c-0.601,0.3-1.2,0.7-1.8,1.2c-1,0.7-1.9,1.5-2.601,2.6c-1.2,1.9-1.7,4-1.5,6.3c-1.5,2-3.399,3.899-5.399,5.399
		c-1.9,1.301-3.801,2.7-5.801,4.101c-2.699,1.899-5.699,3.6-8.699,5c-0.101,0-0.101,0-0.101,0.1c-0.1,0-0.2,0-0.3,0.101
		c-0.1,0-0.1,0-0.1,0c-0.101,0.1-0.101,0.199-0.2,0.3c0,0,0,0-0.101,0c-0.5,0.399-1.1,0.6-1.6,1c-0.1,0-0.2,0-0.3-0.101
		c0,0,0-0.199-0.101-0.3l0,0c-0.199-0.1-0.5-0.2-0.699-0.399c0-0.101,0-0.2,0-0.2c-0.2,0-0.2-0.101-0.2-0.101h-0.101
		c-0.1-0.1-0.199-0.1-0.3-0.199c-0.1,0-0.1,0-0.2,0c0-0.101,0-0.101,0.101-0.101c-2.2-1.3-4.2-1-6.101,0.8
		c-0.699,0.5-1.399,1.2-2,1.9c0,0.1-0.199,0.2-0.199,0.3l0,0c-0.301,0.101-0.301,0.3-0.5,0.5c-0.2,0.3-0.301,0.5-0.5,0.8
		c-0.301,0.601-0.601,1.2-1,1.801c0,0.199,0,0.199,0,0.3c0,0-0.2,0.1-0.3,0.3c-0.2,0.2-0.5,0.4-0.6,0.6
		c-0.9,0.7-1.7,1.101-2.6,1.101c-2,0.2-4,0.399-6.1,0.2l-0.1,0.199c-0.6-0.3-1.2-0.399-1.8-0.399c-0.1,0-0.3,0-0.3,0.2
		c-4.2-0.2-8.2-0.601-12.4-1.301c-1-0.199-2-0.399-3-0.6c-4.3-0.9-8.4-2.5-12.3-4.7c-1.3-0.899-2.5-1.8-3.7-2.899
		c-0.9-1.101-1.7-2.2-2.3-3.601c0.2-0.1,0.3-0.399,0.4-0.6c0.1-0.4,0.3-0.601,0.5-1c1.8-2.5,4.3-4.3,7.3-4.9c0-0.1,0-0.1,0.1-0.2
		c0.3-0.199,0.7-0.399,1-0.399c-0.1,0.1-0.1,0.2-0.1,0.3c1.5-0.4,3-0.8,4.5-1.3c0.2-0.101,0.5-0.3,0.8-0.3c2.5-1,5-2.101,7.5-3.2
		c2.3-1.1,4.6-2.4,6.9-3.6c2.8-1.7,5.6-3.3,8.4-5c1.9-1.1,3.8-2.2,5.7-3.2c1.9-1.1,3.7-2.2,5.5-3.3c1.6-0.9,3-1.8,4.5-2.8
		c2.199-1.4,4.3-2.7,6.5-4c0.6-0.5,1.199-0.9,1.8-1.2c1.7-1.1,3.399-2,5.2-2.7c1.8-0.9,3.699-1.2,5.5-0.9c1,0.2,2,0.2,2.899,0.2
		c0.8,0,1.8,0.1,2.7,0.1c1.1,0.1,2.3,0.3,3.4,0.5C86.314,3.849,88.513,4.749,90.513,6.349z M88.713,23.349
		c0.101-0.1,0.3-0.3,0.601-0.3c2.5,0.7,3.399,2.4,2.399,5.1c-0.6,2.1-2,3.3-4.2,3.5c-0.199,0-0.399,0-0.5,0c-1.3-0.8-2-2.1-2.1-3.4
		c-0.1-1,0.3-2,0.9-2.8c0-0.1,0-0.2,0.1-0.4c0.8-0.7,1.6-1.3,2.6-1.8C88.614,23.349,88.614,23.349,88.713,23.349z M56.513,46.248
		c1.801,0.5,3,1.601,3.601,3.2c0.1,0.3,0.2,0.5,0.399,0.9c0.601,1.7,0.601,3.5-0.1,5.3c-0.6,1.5-1.4,2.6-2.6,3.5
		c-1.601,1-3.301,1.3-5.2,0.5c-0.9-1.6-1.5-3.2-1.601-4.6c-0.1-0.7,0-1.5,0.2-2.2c0.101-0.2,0.101-0.4,0.3-0.601
		c0-0.199,0-0.3,0-0.399c0-0.4,0-0.8,0.2-1.3c0.101-0.101,0.101-0.101,0.101-0.2c0.5-0.8,0.899-1.4,1.3-2.101
		c0.5-0.699,1.1-1.199,1.899-1.5c0,0,0.101,0,0.101-0.1c0.2,0,0.399,0,0.399,0C55.814,46.448,56.114,46.349,56.513,46.248z"/>
	<path fill="#F58220" d="M91.814,7.448c-0.4-0.5-0.9-0.9-1.301-1.1c-2-1.6-4.199-2.5-6.699-2.9c-1.101-0.2-2.301-0.4-3.4-0.5
		c-0.9,0-1.9-0.1-2.7-0.1c-0.899,0-1.899,0-2.899-0.2c-1.801-0.3-3.7,0-5.5,0.9c-1.801,0.7-3.5,1.6-5.2,2.7
		c-0.601,0.3-1.2,0.7-1.8,1.2l0.399,0.4c0,0.1,0.101,0.1,0.3,0.1c0-0.1,0.101-0.1,0.301-0.1c0.5-0.3,0.8-0.5,1.199-0.7
		c0.2,0,0.301,0.1,0.5,0.2v-0.1c0.4-0.2,0.801-0.4,1.301-0.6c2.199-1.1,4.699-1.5,7.199-1.3c-0.5,0.5-1,1.1-1.199,1.8
		c-0.7,0.3-1,0.9-0.801,1.6c0,0.1,0.101,0.1,0.2,0.1c0.3-0.1,0.601-0.3,1-0.4c2.3-1.2,4.601-2.1,6.9-2.9
		c-0.601,1.9-1.3,3.8-2.101,5.7c0,0,0,0,0,0.1c-0.1,0.1,0,0.3,0,0.5c0.101,0,0.2,0,0.301,0c0.199-0.1,0.3-0.3,0.5-0.4
		c2.199-1.6,4.5-2.8,6.899-3.6c-0.399,1.5-0.899,2.8-1.7,4.1c0.101,0.1,0.301,0.1,0.301,0.1c1.699-0.6,3.199-1.3,4.5-2.3
		c0,0,0,0.1,0,0.2c-0.5,1.5-1,2.9-1.2,4.3c-0.101,0.1-0.101,0.1-0.101,0.2l0,0c0,0.1,0,0.1,0.101,0.1c0,0.2,0,0.3,0,0.4
		c0,0.1,0,0.1,0,0.3c0.1,0,0.2,0,0.399,0c0,0,0,0,0.101-0.2c1.2-0.9,2.5-2,3.8-3.1c0.1,1.1-0.1,2.3-0.4,3.4c-0.3,1-0.5,2.1-0.5,3.1
		c0.101,0,0.301,0,0.5,0c0.801-0.9,1.5-1.6,2.101-2.4c0,0,0,0.1-0.101,0.1c0,0.2-0.1,0.3,0,0.5c-0.1,0.1-0.1,0.1-0.1,0.1
		c-0.1,0.1-0.1,0.1-0.2,0.1c0,0.1,0,0.2,0,0.3c0,0.3,0,0.7,0,1c-0.1,0.4-0.3,0.8-0.6,1.1c-0.3,0.6-0.601,1.2-0.9,1.8
		c0,0.1,0,0.1-0.1,0.2c0.1,0.2,0.3,0.2,0.6,0.2c0.101,0,0.101,0,0.101-0.1c0.199,0,0.199,0,0.199-0.1c1-0.8,1.7-1.8,2.101-3.2
		c0.2-0.5,0.2-0.9,0.399-1.3c0.101-0.9,0.2-1.7,0.101-2.5c0,0,0-0.1,0-0.2c-0.101-1.4-0.5-2.8-1.101-4.2c0,0,0-0.1-0.1-0.1
		c0-0.2,0-0.2-0.1-0.2C92.914,8.849,92.513,8.048,91.814,7.448z"/>
	<path fill="#FFCB05" d="M93.013,16.648c-0.1-0.2,0-0.3,0-0.5c0.101,0,0.101-0.1,0.101-0.1c-0.601,0.8-1.3,1.5-2.101,2.4
		c-0.199,0-0.399,0-0.5,0c0-1,0.2-2.1,0.5-3.1c0.301-1.1,0.5-2.3,0.4-3.4c-1.3,1.1-2.6,2.2-3.8,3.1c0.1,0,0.1,0,0.1,0.2
		c-0.1,0-0.1,0-0.2,0l0,0c-0.199,0-0.3,0-0.399,0c0-0.2,0-0.2,0-0.3c0-0.1,0-0.2,0-0.4c-0.101,0-0.101,0-0.101-0.1l0,0
		c0-0.1,0-0.1,0.101-0.2c0.2-1.4,0.7-2.8,1.2-4.3c0-0.1,0-0.2,0-0.2c-1.301,1-2.801,1.7-4.5,2.3c0,0-0.2,0-0.301-0.1
		c0.801-1.3,1.301-2.6,1.7-4.1c-2.399,0.8-4.7,2-6.899,3.6c0.8,0.4,1.699,0.6,2.699,1c0.5,0.2,1,0.4,1.7,0.7
		c1.2,0.6,2.4,1.2,3.601,1.9v-0.1c0,0.1,0,0.3,0.199,0.4c0.4,0.1,0.7,0.5,1,0.8c0.301,0.1,0.301,0.1,0.5,0.2h0.101
		c0.1,0.1,0.2,0.1,0.3,0.2c-0.1-0.1-0.1-0.2-0.2-0.4c0,0,0,0,0.101,0c0,0.2,0.1,0.3,0.199,0.5c0,0.1,0,0.1,0.101,0.2
		c0.1,0,0.2,0.1,0.2,0.2c0.8,0.8,1.5,1.7,1.899,2.7c0,0.1,0,0.1,0,0.2c0,0.1,0,0.1,0,0.2s0,0.1,0,0.2c0.101,0,0.101,0,0.101,0.1
		c0.1,0,0.1,0,0.1,0.1s0,0.2,0,0.3c0,0,0,0,0,0.1c0,0,0,0,0.1,0c0,0.1,0,0.1,0,0.1s0,0,0.101,0h0.1c0.3-0.6,0.601-1.2,0.9-1.8
		c0.3-0.3,0.5-0.7,0.6-1.1c0-0.3,0-0.7,0-1c0-0.1,0-0.2,0-0.3c0.101,0,0.101,0,0.2-0.1C92.914,16.749,92.914,16.749,93.013,16.648z"
		/>
	<path fill="#FFF200" d="M90.814,20.448c0-0.1,0-0.1-0.101-0.1c0-0.1,0-0.1,0-0.2s0-0.1,0-0.2c0-0.1,0-0.1,0-0.2
		c-0.399-1-1.1-1.9-1.899-2.7c0-0.1-0.101-0.2-0.2-0.2c-0.101-0.1-0.101-0.1-0.101-0.2c-0.1-0.2-0.199-0.3-0.199-0.5
		c-0.101,0-0.101,0-0.101,0c0.101,0.2,0.101,0.3,0.2,0.4v0.1c0.3,1.1,0.1,2.2-0.9,3.2c-0.8,1.6-2,3-3.399,4
		c-0.7,0.9-1.601,1.7-2.601,2.4c-6.199,3.3-12.899,5.2-20,5.7l0,0c0.101,0.2,0.301,0.5,0.301,0.601c1.699,3.3,2.3,6.8,1.899,10.3
		c0,0.899-0.399,1.7-0.899,2.5c3-1.4,6-3.101,8.699-5c2-1.4,3.9-2.8,5.801-4.101c2-1.5,3.899-3.399,5.399-5.399
		c-0.2-2.3,0.3-4.4,1.5-6.3c0.7-1.1,1.601-1.9,2.601-2.6c0.6-0.5,1.199-0.9,1.8-1.2l0.6,0.2l0.7-0.2l1.1,0.2c-0.1,0-0.1,0-0.1,0
		c0-0.1,0-0.1,0-0.1c0-0.1,0-0.2,0-0.3S90.914,20.448,90.814,20.448z M75.614,32.448c0.1,0,0.2,0,0.2-0.1
		c-0.7,0.7-1.601,1.2-2.801,1.6c-1.899,0.5-3.8,0.9-5.899,1.3c-0.7,0.101-1.5,0-2.3-0.399c-0.101,0-0.2,0-0.301-0.3
		c0.101-0.101,0.101-0.101,0.101-0.101c0.1,0,0.1,0,0.1-0.1c0.101,0,0.101,0,0.101-0.101c0.199,0,0.199,0,0.199,0
		c3.2,0,6.5-0.6,9.5-1.5c0.301-0.199,0.601-0.3,0.9-0.399c0.1,0,0.1,0,0.1,0C75.513,32.448,75.513,32.448,75.614,32.448z
		 M72.614,35.648l-0.101,0.1c0,0,0,0-0.1,0.101l0,0c0,0.1,0,0.1,0,0.2c-1.9,0.899-4,1.399-6.2,1.199c-0.1-0.199-0.2-0.3-0.3-0.5l0,0
		c0.1-0.3,0.1-0.3,0.4-0.399c1.699,0.1,3.399,0,5.199-0.5C71.814,35.748,72.213,35.648,72.614,35.648z M65.713,39.448
		c-0.1-0.1-0.2-0.3-0.2-0.5c0-0.1,0-0.1,0.101-0.1c0.1,0,0.1,0,0.1,0c1,0.2,2,0.1,3-0.4c0.101,0.101,0.3,0.2,0.3,0.4l0,0
		c-0.899,0.899-2,1.1-3.199,0.7C65.814,39.549,65.713,39.549,65.713,39.448z"/>
	<path fill="#59A056" d="M75.814,32.349c0,0.1-0.101,0.1-0.2,0.1c-0.101,0-0.101,0-0.101-0.1c0,0,0,0-0.1,0
		c-0.3,0.1-0.6,0.2-0.9,0.399c-3,0.9-6.3,1.5-9.5,1.5c0,0,0,0-0.199,0c0,0.101,0,0.101-0.101,0.101c0,0.1,0,0.1-0.1,0.1
		c0,0,0,0-0.101,0.101c0.101,0.3,0.2,0.3,0.301,0.3c0.8,0.399,1.6,0.5,2.3,0.399c2.1-0.399,4-0.8,5.899-1.3
		C74.213,33.549,75.114,33.049,75.814,32.349z"/>
	<path fill="#59A056" d="M72.513,35.748l0.101-0.1c-0.4,0-0.8,0.1-1.101,0.2c-1.8,0.5-3.5,0.6-5.199,0.5
		c-0.301,0.1-0.301,0.1-0.4,0.399l0,0c0.1,0.2,0.2,0.301,0.3,0.5c2.2,0.2,4.3-0.3,6.2-1.199c0-0.101,0-0.101,0-0.2l0,0
		C72.513,35.748,72.513,35.748,72.513,35.748z"/>
	<path fill="#59A056" d="M65.513,38.948c0,0.2,0.101,0.4,0.2,0.5c0,0.101,0.101,0.101,0.101,0.101c1.199,0.399,2.3,0.199,3.199-0.7
		l0,0c0-0.2-0.199-0.3-0.3-0.4c-1,0.5-2,0.601-3,0.4c0,0,0,0-0.1,0C65.513,38.849,65.513,38.849,65.513,38.948z"/>
	<path fill="#FFCB05" d="M65.013,7.249v0.1c0,0.1,0,0.1,0,0.1s0,0,0.101,0c-0.101,0.1-0.101,0.3-0.101,0.4l0,0
		c0.7,0,1.301,0.2,1.9,0.6c1.5,0.2,2.9,0.5,4.4,0.9c2.1,0.5,4.1,1.1,6.199,1.9c0.801-1.9,1.5-3.8,2.101-5.7
		c-2.3,0.8-4.601,1.7-6.9,2.9c-0.399,0.1-0.7,0.3-1,0.4c-0.1,0-0.2,0-0.2-0.1c-0.199-0.7,0.101-1.3,0.801-1.6
		c0.199-0.7,0.699-1.3,1.199-1.8c-2.5-0.2-5,0.2-7.199,1.3C65.814,6.849,65.414,7.048,65.013,7.249z"/>
	<path fill="#FFF200" d="M63.914,8.749c0,0,0,0,0,0.1c-1.2,0.9-2.4,1.7-3.6,2.7c-0.301,0.5-0.801,0.9-1.2,1.4c0,0.1,0,0.1-0.101,0.1
		c-1.199,2.7-1.899,5.5-1.699,8.5c0.199,2,0.699,3.9,1.699,5.7c0.5,0.8,1,1.7,1.5,2.7c1.301,0,2.5-0.1,3.801-0.3c1-0.1,2-0.3,3-0.7
		c0.5-0.2,1.199-0.4,1.699-0.5c3.301-0.4,6.301-1.6,9-3.6c0.101-0.1,0.301-0.2,0.5-0.4c-4.8,1.3-9.5,1.1-13.8-0.7
		c-0.6-0.2-1-0.5-1.399-0.9c-0.301-0.1-0.601-0.3-0.801-0.5c-0.5-0.5-0.699-1-0.699-1.6c0,0,0,0,0-0.1s0-0.1,0-0.2
		c0,0,0,0-0.101-0.1c-0.3-3.4,1.101-5.8,4.101-7.4c1.1-0.6,2.199-1.1,3.5-1.4c0.399-0.1,0.899-0.2,1.199-0.3
		c2.301,0,4.301,0.6,5.801,2c0,0.1,0.1,0.1,0.199,0.2c0.7,1.1,0.801,2.4,0.301,3.6c-0.5,1.5-1.5,2.4-3.101,2.6
		c-1.6,0.2-2.7-0.3-3.399-1.7c0.199-1.9,1.399-2.6,3.3-2.4c0.5,0.1,0.899,0.4,0.899,0.9c0.301,0.9-0.199,1.4-1,1.8
		c0.801-0.3,1.5-0.7,1.9-1.4c0.5-0.6,0.6-1.3,0.2-2c-0.8-1-1.8-1.5-3-1.8c-2.4-0.3-4.601,0.5-6.3,2.4c-1.2,1-1.5,2.4-0.801,3.8
		c0.5,0.9,1.2,1.6,2,2.1c2.601,1.5,5.5,2,8.4,1.4c0.9-0.2,1.8-0.3,2.6-0.5c2-0.5,3.601-1.6,5-3.2c0.9-0.8,1.801-1.6,2.5-2.5
		c0.101-0.2,0.101-0.3,0.101-0.5c0.2-0.2,0.2-0.6,0-0.8h0.2c0-0.2,0-0.2,0-0.2c-1.2-0.7-2.4-1.3-3.601-1.9c-0.7-0.3-1.2-0.5-1.7-0.7
		c-1-0.4-1.899-0.6-2.699-1c-0.2,0.1-0.301,0.3-0.5,0.4c-0.101,0-0.2,0-0.301,0c0-0.2-0.1-0.4,0-0.5c0-0.1,0-0.1,0-0.1
		c-2.1-0.8-4.1-1.4-6.199-1.9c-1.5-0.4-2.9-0.7-4.4-0.9c-0.6-0.4-1.2-0.6-1.9-0.6l0,0c-0.399,0.2-0.8,0.6-1.1,0.8V8.749z
		 M69.013,9.548v0.2c0,0.1,0,0.1,0,0.2c-1.199,0.5-2.3,0.9-3.5,1.5c-1.699,0.6-3,1.6-4,3c-1,1.4-1.6,3-1.699,4.8
		c-0.101,2.1,0.3,4.2,1.3,6.1c0.899,0.8,1.899,1.5,3,2c0.3,0.1,0.6,0.2,0.899,0.4c0.101,0,0.2,0.1,0.2,0.2c-0.2,0.5-0.6,0.6-1.2,0.5
		c-2.199-0.9-3.8-2.4-4.5-4.6c-0.699-2.3-0.8-4.6-0.199-7.1c0-0.7,0.399-1.3,0.8-1.9c1.6-2.4,3.7-4,6.6-4.9c0.601-0.1,1.3-0.4,2-0.5
		c0.101,0,0.3,0,0.3,0V9.548z"/>
	<path fill="#59A056" d="M69.013,9.749v-0.2v-0.1c0,0-0.199,0-0.3,0c-0.7,0.1-1.399,0.4-2,0.5c-2.899,0.9-5,2.5-6.6,4.9
		c-0.4,0.6-0.8,1.2-0.8,1.9c-0.601,2.5-0.5,4.8,0.199,7.1c0.7,2.2,2.301,3.7,4.5,4.6c0.601,0.1,1,0,1.2-0.5c0-0.1-0.1-0.2-0.2-0.2
		c-0.3-0.2-0.6-0.3-0.899-0.4c-1.101-0.5-2.101-1.2-3-2c-1-1.9-1.4-4-1.3-6.1c0.1-1.8,0.699-3.4,1.699-4.8c1-1.4,2.301-2.4,4-3
		c1.2-0.6,2.301-1,3.5-1.5C69.013,9.849,69.013,9.849,69.013,9.749z"/>
	<path fill="#2484C6" d="M63.914,8.849c0-0.1,0-0.1,0-0.1v-0.1c0.3-0.2,0.7-0.6,1.1-0.8l0,0l0,0c0-0.1,0-0.3,0.101-0.4
		c-0.101,0-0.101,0-0.101,0s0,0,0-0.1c-0.199-0.1-0.3-0.2-0.5-0.2c-0.399,0.2-0.699,0.4-1.199,0.7c-0.2,0-0.301,0-0.301,0.1
		c-1.1,0.7-2,1.4-2.899,2.3c-1.2,1-2.3,2.2-3.101,3.6c0,0.1,0,0.1,0,0.1c0,0.1,0,0.2,0,0.3c0,0,0,0,0,0.1c0,0.1,0,0.1-0.1,0.1
		c-0.1,0.1-0.1,0.1-0.1,0.1c0,0.2,0,0.3-0.101,0.4c-0.2,0.5-0.399,0.9-0.6,1.1c0,0.4,0,0.7-0.101,0.9c-0.199,0.6-0.3,1.1-0.5,1.6
		c-0.199,0.4-0.199,0.9-0.199,1.2c0,0.1,0,0.3,0,0.6c0.199,1,0.199,2.1,0.199,3.1c0.2,0.4,0.301,0.8,0.301,1.3
		c0.199,1.1,0.5,2.2,1.199,3.3c0,0.4,0.101,0.8,0.301,1.3c0.199,0.2,0.3,0.5,0.5,0.9c0.3,0.6,0.6,1.5,0.899,2.2
		c0,0.101,0,0.3,0.101,0.3c0.3,0.7,0.5,1.5,0.699,2.301c0.5,2.1,0.7,4.1,0.601,6.3c0,0.1,0,0.1,0,0.1
		c-0.101,0.101-0.101,0.101-0.101,0.101c0,0.199,0,0.3-0.1,0.3c-0.1,0.5-0.2,0.899-0.4,1.2c0,0,0,0,0,0.1s0,0.1,0,0.2
		c-0.199,0.1-0.399,0.399-0.5,0.6c-0.1,0.3-0.199,0.5-0.3,0.8c0,0.2-0.1,0.5-0.1,0.7c-0.101,0-0.101,0-0.101,0.101
		c0.101,0,0.101,0,0.2,0c0.101,0.1,0.2,0.1,0.3,0.199h0.101c0-0.1,0-0.1,0-0.199c0,0.1,0,0.1,0.2,0.1c0,0.1,0,0.1,0,0.2l0,0
		c0,0,0,0.1,0,0.2c0.199,0.199,0.5,0.3,0.699,0.399l0,0c0.101,0.101,0.101,0.3,0.101,0.3c0.1,0.101,0.2,0.101,0.3,0.101
		c0.5-0.4,1.1-0.601,1.6-1c0.101,0,0.101,0,0.101,0c0.1-0.101,0.1-0.2,0.2-0.3l0,0c0,0,0,0,0.1,0c0.1-0.101,0.2-0.101,0.3-0.101
		c0-0.1,0-0.1,0.101-0.1c0.5-0.8,0.899-1.601,0.899-2.5c0.4-3.5-0.2-7-1.899-10.3c0-0.101-0.2-0.4-0.301-0.601
		c-0.399-0.6-0.699-1.3-1-2c-0.5-1-1-1.9-1.5-2.7c-1-1.8-1.5-3.7-1.699-5.7c-0.2-3,0.5-5.8,1.699-8.5c0.101,0,0.101,0,0.101-0.1
		c0.399-0.5,0.899-0.9,1.2-1.4C61.513,10.548,62.713,9.749,63.914,8.849z M58.513,29.249c0-0.1,0-0.2,0-0.3v0.1
		C58.513,29.148,58.513,29.148,58.513,29.249z"/>
	<path fill="#FFF200" d="M58.513,28.948c0,0.1,0,0.2,0,0.3c0-0.1,0-0.1,0-0.2V28.948z"/>
	<path fill="#EC008C" d="M69.314,11.548c-1.301,0.3-2.4,0.8-3.5,1.4c-3,1.6-4.4,4-4.101,7.4c0.101,0.1,0.101,0.1,0.101,0.1
		c0,0.1,0,0.1,0,0.2s0,0.1,0,0.1c0,0.6,0.199,1.1,0.699,1.6c0.2,0.2,0.5,0.4,0.801,0.5c0.399,0.4,0.8,0.7,1.399,0.9
		c4.3,1.8,9,2,13.8,0.7c-0.199,0.2-0.399,0.3-0.5,0.4c-2.699,2-5.699,3.2-9,3.6c-0.5,0.1-1.199,0.3-1.699,0.5c-1,0.4-2,0.6-3,0.7
		c-1.301,0.2-2.5,0.3-3.801,0.3c0.301,0.7,0.601,1.4,1,2l0,0c7.101-0.5,13.801-2.4,20-5.7c1-0.7,1.9-1.5,2.601-2.4
		c1.399-1,2.6-2.4,3.399-4c1-1,1.2-2.1,0.9-3.2v-0.1c-0.1-0.1-0.2-0.1-0.3-0.2h-0.101c-0.199-0.1-0.199-0.1-0.5-0.2
		c-0.3-0.3-0.6-0.7-1-0.8c-0.199-0.1-0.199-0.3-0.199-0.4v0.1c0,0,0,0,0,0.2h-0.2c0.2,0.2,0.2,0.6,0,0.8c0,0.2,0,0.3-0.101,0.5
		c-0.699,0.9-1.6,1.7-2.5,2.5c-1.399,1.6-3,2.7-5,3.2c-0.8,0.2-1.699,0.3-2.6,0.5c-2.9,0.6-5.8,0.1-8.4-1.4c-0.8-0.5-1.5-1.2-2-2.1
		c-0.699-1.4-0.399-2.8,0.801-3.8c1.699-1.9,3.899-2.7,6.3-2.4c1.2,0.3,2.2,0.8,3,1.8c0.399,0.7,0.3,1.4-0.2,2
		c-0.4,0.7-1.1,1.1-1.9,1.4c0.801-0.4,1.301-0.9,1-1.8c0-0.5-0.399-0.8-0.899-0.9c-1.9-0.2-3.101,0.5-3.3,2.4
		c0.699,1.4,1.8,1.9,3.399,1.7c1.601-0.2,2.601-1.1,3.101-2.6c0.5-1.2,0.399-2.5-0.301-3.6c-0.1-0.1-0.199-0.1-0.199-0.2
		c-1.5-1.4-3.5-2-5.801-2C70.213,11.349,69.713,11.448,69.314,11.548z"/>
	<path fill="#FFF200" d="M60.114,10.249c0.899-0.9,1.8-1.6,2.899-2.3c-0.199,0-0.3,0-0.3-0.1l-0.399-0.4c-2.2,1.3-4.301,2.6-6.5,4
		c-1.5,1-2.9,1.9-4.5,2.8c-1.801,1.1-3.601,2.2-5.5,3.3c-1.9,1-3.8,2.1-5.7,3.2c-2.8,1.7-5.6,3.3-8.4,5c-2.3,1.2-4.6,2.5-6.9,3.6
		c-2.5,1.1-5,2.2-7.5,3.2c0,0,0.2,0,0.2,0.199c0,0,0,0,0,0.101c0,0,0,0.1,0,0.2c0,0.1,0,0.1,0,0.199c0,0.101,0.2,0.2,0.3,0.2
		c1,2,2.6,3.4,4.7,4.101c0.3,0.1,0.5,0.3,0.7,0.3c0.2-0.3,0.4-0.601,0.6-1c0.4-0.3,0.7-0.4,1.2-0.5v-0.101
		c0.1-0.1,0.3-0.199,0.3-0.3h0.2c2.2-1.3,4.5-2.5,6.8-3.6c1.5-0.601,3.1-1,4.7-1.1c1.3-0.2,2.5-0.3,3.7-0.4c1.3-0.2,2.6-0.3,3.8-0.3
		c4.5,0.1,8.9-0.1,13.3-0.3c-0.2-0.4-0.301-0.7-0.5-0.9c-0.2-0.5-0.301-0.9-0.301-1.3c-0.699-1.1-1-2.2-1.199-3.3
		c0-0.5-0.101-0.9-0.301-1.3c0-1,0-2.1-0.199-3.1c0-0.3,0-0.5,0-0.6c0-0.3,0-0.8,0.199-1.2c0.2-0.5,0.301-1,0.5-1.6
		c0.101-0.2,0.101-0.5,0.101-0.9c0.2-0.2,0.399-0.6,0.6-1.1c0.101-0.1,0.101-0.2,0.101-0.4c0,0,0,0,0.1-0.1c0.1,0,0.1,0,0.1-0.1
		c0-0.1,0-0.1,0-0.1c0-0.1,0-0.2,0-0.3c0,0,0,0,0-0.1C57.814,12.448,58.914,11.249,60.114,10.249z M54.114,16.048c0,0,0,0,0.1,0
		c-0.1,0.1-0.1,0.3-0.1,0.3c0,0.1,0,0.1-0.101,0.1c0.101,0.1,0.101,0.3,0.2,0.3c-0.2,0.2-0.2,0.6-0.2,0.8c0,0.2,0,0.2-0.199,0.2
		c-0.601,3.3-0.9,6.8-0.9,10.4c0,0.1,0,0.1,0,0.2c0.1,0,0.2,0.1,0.2,0.4c-0.101,0.2-0.3,0.4-0.7,0.4c-0.1-0.1-0.3-0.2-0.4-0.2
		c-0.5-4.1-0.1-8,1.4-11.5C53.513,16.849,53.814,16.448,54.114,16.048z M51.013,19.648c0,0.1,0,0.2,0,0.2c0,0.1,0,0.1-0.1,0.2
		c0.1,0.1,0.1,0.3,0.1,0.4c-0.699,3.1-1.199,6.3-1.699,9.4c0,0.1,0,0.1,0,0.1c-0.2,0-0.301,0-0.5,0c-0.5-3.5,0.2-6.7,1.9-9.9
		C50.713,19.849,50.814,19.749,51.013,19.648L51.013,19.648z M47.713,17.948c0.1,0,0.2,0.1,0.3,0.2c0,0.1,0,0.1,0.1,0.1
		c-0.3,1.2-1,2.2-1.9,3.1c-0.5,0.5-1.1,1.1-1.5,1.7c0,0,0,0,0,0.2c-1.2,2.7-3.3,4.4-6.2,5c-0.4,0.1-0.6,0.1-1,0.2
		c-2.4,0.7-4.8,1.4-7.4,1.8c-2.6,0.5-4.8,1.6-6.8,3.3c-0.7,0.699-1.5,1.199-2.4,1.399c-0.1,0-0.1,0-0.1,0
		c-0.2,0.3-0.4,0.4-0.6,0.601c-0.2,0.199-0.4,0.199-0.5,0c0-0.101,0-0.101-0.1-0.2v-0.101c0.2-0.5,0.5-0.899,0.8-1.3
		c0.1,0,0.1,0,0.1-0.1c0.1,0,0.1,0,0-0.101c0-0.1,0-0.1,0-0.199c0.6-0.301,1.4-0.801,2-1.5c0.6-0.601,1.3-1.2,2.2-1.601
		c3-1.5,6.1-2.7,9.3-3.6c1.4-0.5,2.8-1,4.3-1.4c1.2-0.3,2.2-0.7,3-1.4c1.7-1.1,3.2-2.5,4.5-4c0,0,0,0,0-0.1c0.6-0.5,1.1-1.2,1.6-1.9
		c0.1,0,0.1,0,0.1-0.1C47.514,17.948,47.514,17.948,47.713,17.948z M47.313,25.048c0,0.1,0,0.1,0,0.2c0.1,0.1,0.2,0.2,0.2,0.2
		c-0.6,1-0.8,2-0.8,3c0,0,0,0,0,0.1c0.1,0,0.3,0.2,0.3,0.4c-0.2,0.2-0.4,0.4-0.7,0.4c0,0-0.2,0-0.3-0.1c-0.2-0.1-0.2-0.3-0.2-0.4
		c-0.4-1.5,0-2.8,1.3-3.8c0-0.1,0-0.1,0.1-0.2c0,0,0,0,0.1,0C47.313,24.849,47.313,24.948,47.313,25.048z"/>
	<path fill="#F58220" d="M54.213,16.048c-0.1,0-0.1,0-0.1,0c-0.3,0.4-0.601,0.8-0.7,1.4c-1.5,3.5-1.9,7.4-1.4,11.5
		c0.101,0,0.301,0.1,0.4,0.2c0.4,0,0.6-0.2,0.7-0.4c0-0.3-0.101-0.4-0.2-0.4c0-0.1,0-0.1,0-0.2c0-3.6,0.3-7.1,0.9-10.4
		c0.199,0,0.199,0,0.199-0.2c0-0.2,0-0.6,0.2-0.8c-0.1,0-0.1-0.2-0.2-0.3c0.101,0,0.101,0,0.101-0.1
		C54.114,16.349,54.114,16.148,54.213,16.048z"/>
	<path fill="#F58220" d="M51.013,19.849c0,0,0-0.1,0-0.2l0,0c-0.199,0.1-0.3,0.2-0.3,0.4c-1.7,3.2-2.4,6.4-1.9,9.9
		c0.2,0,0.3,0,0.5,0c0,0,0,0,0-0.1c0.5-3.1,1-6.3,1.699-9.4c0-0.1,0-0.3-0.1-0.4C51.013,19.948,51.013,19.948,51.013,19.849z"/>
	<path fill="#C77EB5" d="M48.014,18.148c-0.1-0.1-0.2-0.2-0.3-0.2c-0.2,0-0.2,0-0.2,0c0,0.1,0,0.1-0.1,0.1c-0.5,0.7-1,1.4-1.6,1.9
		c0,0.1,0,0.1,0,0.1c-1.3,1.5-2.8,2.9-4.5,4c-0.8,0.7-1.8,1.1-3,1.4c-1.5,0.4-2.9,0.9-4.3,1.4c-3.2,0.9-6.3,2.1-9.3,3.6
		c-0.9,0.4-1.6,1-2.2,1.601c-0.6,0.699-1.4,1.199-2,1.5c0,0.1,0,0.1,0,0.199c0.1,0.101,0.1,0.101,0,0.101c0,0.1,0,0.1-0.1,0.1
		c-0.3,0.4-0.6,0.8-0.8,1.3v0.101c0.1,0.1,0.1,0.1,0.1,0.2c0.1,0.199,0.3,0.199,0.5,0c0.2-0.2,0.4-0.301,0.6-0.601c0,0,0,0,0.1,0
		c0.9-0.2,1.7-0.7,2.4-1.399c2-1.7,4.2-2.8,6.8-3.3c2.6-0.4,5-1.1,7.4-1.8c0.4-0.1,0.6-0.1,1-0.2c2.9-0.6,5-2.3,6.2-5
		c0-0.2,0-0.2,0-0.2c0.4-0.6,1-1.2,1.5-1.7c0.9-0.9,1.6-1.9,1.9-3.1C48.014,18.249,48.014,18.249,48.014,18.148z"/>
	<path fill="#F58220" d="M47.313,25.249c0-0.1,0-0.1,0-0.2s0-0.2,0-0.2c-0.1,0-0.1,0-0.1,0c-0.1,0.1-0.1,0.1-0.1,0.2
		c-1.3,1-1.7,2.3-1.3,3.8c0,0.1,0,0.3,0.2,0.4c0.1,0.1,0.3,0.1,0.3,0.1c0.3,0,0.5-0.2,0.7-0.4c0-0.2-0.2-0.4-0.3-0.4
		c0-0.1,0-0.1,0-0.1c0-1,0.2-2,0.8-3C47.514,25.448,47.414,25.349,47.313,25.249z"/>
	<path fill="#FFF200" d="M43.414,36.049c2.1,0,4.3-0.2,6.4-0.301c1.699,0,3.5-0.399,5.1-0.899c0.4,0,0.6,0,0.9,0.1
		c0.1,0.101,0.1,0.101,0.1,0.101c0,2.399-0.2,4.699-0.8,7c-0.3,1.399-1.101,2.5-2.101,3.5c-0.899,0.899-1.8,1.5-2.899,2
		c-0.101,0.1-0.101,0.1-0.101,0.1c0.101,0.1,0.301,0.1,0.5,0.1c-0.1,0.101-0.1,0.101-0.199,0.2l0.199,0.2c0.601-0.7,1.301-1.4,2-1.9
		c1.9-1.8,3.9-2.1,6.101-0.8c0-0.2,0.1-0.5,0.1-0.7c0.101-0.3,0.2-0.5,0.3-0.8c0.101-0.2,0.301-0.5,0.5-0.6c0-0.101,0-0.101,0-0.2
		s0-0.1,0-0.1c0.2-0.301,0.301-0.7,0.4-1.2c0.1,0,0.1-0.101,0.1-0.3c0,0,0,0,0.101-0.101c0,0,0,0,0-0.1c0.1-2.2-0.101-4.2-0.601-6.3
		c-0.199-0.801-0.399-1.601-0.699-2.301c-0.101,0-0.101-0.199-0.101-0.3c-0.2,0-0.5,0.101-0.7,0.101
		c-0.199,0.199-0.199,0.199-0.399,0.199c-6.101-0.199-12.2-0.199-18.3,0.101c-0.5,0-0.8,0-1.3,0.1c-2.7,0.5-5.5,1.3-8,2.3
		c-1.2,0.4-2.3,1.101-3.3,2c-0.2,0.2-0.4,0.301-0.6,0.4c-0.1,0.1-0.1,0.2-0.1,0.2c0,0.1,0,0.1,0,0.1c-0.1,0.101-0.1,0.101-0.2,0.101
		c0,0.199,0,0.199,0,0.199c0,0.101,0,0.101,0,0.2c-0.2,0-0.3,0.2-0.5,0.3c0.2,0.101,0.3,0.101,0.5,0.101c0.2,0.1,0.5,0.2,0.7,0.399
		c0.3,0.101,0.5,0.101,0.7,0.2c0.7,0.4,1.5,0.9,2.2,1.3c-0.1,0-0.1,0-0.1,0c0-0.199,0-0.199,0-0.199c0-0.101,0-0.101,0-0.101
		l0.1-0.1c0.2-0.2,0.4-0.4,0.5-0.601c0.1-0.199,0.2-0.3,0.3-0.399c0.1,0,0.1,0,0.1-0.101c0-0.1,0-0.1,0-0.199l0,0
		c0.1-0.101,0.2-0.2,0.4-0.2c0,0,0,0,0-0.101l0.1-0.1c2.5-1.7,5.3-2.5,8.4-2.4C40.514,36.248,42.014,36.148,43.414,36.049z"/>
	<path fill="#59A056" d="M49.814,35.748c-2.101,0.101-4.3,0.301-6.4,0.301c-1.4,0.1-2.9,0.199-4.2,0.199c-3.1-0.1-5.9,0.7-8.4,2.4
		l-0.1,0.1c0,0.101,0,0.101,0,0.101c-0.2,0-0.3,0.1-0.4,0.2l0,0c0,0.1,0,0.1,0,0.199c0,0.101,0,0.101-0.1,0.101
		c-0.1,0.1-0.2,0.2-0.3,0.399c-0.1,0.2-0.3,0.4-0.5,0.601l-0.1,0.1c0,0,0,0,0,0.101c0,0,0,0,0,0.199c0,0,0,0,0.1,0
		c0.1,0.101,0.2,0.101,0.3,0.101c0,0,0,0,0.1,0c0.2,0,0.3,0,0.5-0.101c0.7-0.399,1.5-0.899,2.4-1.3c0,0,0.1,0,0.2-0.1
		c0.4-0.101,0.9-0.2,1.3-0.3c0.3,0,0.8,0,1.1-0.101c3.1-0.1,6.2,0.101,9.4,0.8c0,0,0.1,0.101,0.3,0.101c1.2,0,2.4,0,3.5-0.101
		c0.1,0,0.1,0,0.2,0c0.8-0.1,1.601-0.3,2.3-0.699c0,0.3,0,0.399,0,0.699c-0.1,1.7-0.399,3.301-0.899,5c-0.101,0.101-0.3,0.2-0.3,0.4
		c-0.101,0.2-0.301,0.3-0.301,0.5c-0.5,0.4-1,0.8-1.5,1.3c0,0.101,0,0.101,0,0.101v0.1c0,0.1,0,0.1,0,0.2h0.1c0,0,0,0,0.2,0.1
		c0.5,0.3,1,0.4,1.7,0.2c0,0,0,0,0.101-0.1c1.1-0.5,2-1.101,2.899-2c1-1,1.801-2.101,2.101-3.5c0.6-2.301,0.8-4.601,0.8-7
		c0,0,0,0-0.1-0.101c-0.301-0.1-0.5-0.1-0.9-0.1C53.314,35.349,51.513,35.748,49.814,35.748z"/>
	<path fill="#EC008C" d="M40.713,30.849c-1.2,0.1-2.4,0.2-3.7,0.4c-1.6,0.1-3.2,0.5-4.7,1.1c-2.3,1.1-4.6,2.3-6.8,3.6h-0.2
		c0,0.101-0.2,0.2-0.3,0.3v0.101c-0.5,0.1-0.8,0.2-1.2,0.5c-0.2,0.399-0.4,0.7-0.6,1c0.6,0.399,1.3,0.7,1.9,1
		c0-0.101,0.2-0.101,0.2-0.101c0.2-0.1,0.3-0.3,0.5-0.3c0-0.1,0-0.1,0-0.2c0,0,0,0,0-0.199c0.1,0,0.1,0,0.2-0.101c0,0,0,0,0-0.1
		c0,0,0-0.101,0.1-0.2c0.2-0.1,0.4-0.2,0.6-0.4c1-0.899,2.1-1.6,3.3-2c2.5-1,5.3-1.8,8-2.3c0.5-0.1,0.8-0.1,1.3-0.1
		c6.1-0.3,12.2-0.3,18.3-0.101c0.2,0,0.2,0,0.399-0.199c0.2,0,0.5-0.101,0.7-0.101c-0.3-0.7-0.6-1.6-0.899-2.2
		c-4.4,0.2-8.801,0.4-13.3,0.3C43.313,30.548,42.014,30.648,40.713,30.849z"/>
	<path fill="#FFF200" d="M48.713,39.748c-0.1,0-0.1,0-0.2,0c-1.1,0.101-2.3,0.101-3.5,0.101c-0.2,0-0.3-0.101-0.3-0.101
		c-3.2-0.699-6.3-0.899-9.4-0.8c-0.3,0.101-0.8,0.101-1.1,0.101c-0.4,0.1-0.9,0.199-1.3,0.3c-0.1,0.1-0.2,0.1-0.2,0.1
		c-0.9,0.4-1.7,0.9-2.4,1.3c-0.2,0.101-0.3,0.101-0.5,0.101c-0.1,0-0.1,0-0.1,0c1.3,0.7,2.6,1.5,4.1,2.1c2.5,1.101,5,2,7.7,2.8
		c2,0.601,4,1.101,6,1.601c0.2,0,0.4,0,0.6,0h-0.1c0-0.101,0-0.101,0-0.2v-0.1c0,0,0,0,0-0.101c0.5-0.5,1-0.899,1.5-1.3
		c0-0.2,0.2-0.3,0.301-0.5c0-0.2,0.199-0.3,0.3-0.4c0.5-1.699,0.8-3.3,0.899-5c0-0.3,0-0.399,0-0.699
		C50.314,39.448,49.513,39.648,48.713,39.748z M43.813,41.349c0,0,0.1,0,0.2,0c0.3,0.899,0.3,1.8-0.3,2.7l-0.1,0.1
		c-0.2,0.1-0.3,0.2-0.6,0.2c0.3-0.7,0.4-1.4,0.6-2.101v-0.199c0-0.101-0.1-0.2-0.1-0.2h-0.1c-0.1-0.101-0.1-0.3,0-0.4
		c0.1,0,0.1,0,0.1,0v-0.1c0.1,0,0.1,0,0.2,0v-0.101C43.713,41.248,43.713,41.248,43.813,41.349z M45.514,41.349
		c0-0.101,0-0.101,0-0.101h0.1c0.1,0.101,0.2,0.2,0.2,0.301c0.2,0,0.2,0,0.2,0c0,1.3-0.2,2.5-0.9,3.699c0,0,0,0,0,0.101
		c-0.2,0.1-0.4,0.1-0.6-0.101c0.2-0.5,0.3-1.3,0.5-1.899c0.2-0.601,0.3-1.3,0.4-2H45.514z M47.514,43.849c-0.2,0.5-0.4,1-0.6,1.5
		s-0.5,1.1-0.9,1.5c-0.2,0-0.2,0-0.2,0s-0.1,0-0.2-0.101c0,0,0,0-0.1-0.1c0.3-0.8,0.5-1.5,0.8-2.2c0.3-0.7,0.5-1.6,0.7-2.399
		c0,0,0,0,0.1,0c0.1,0,0.1,0,0.2,0C47.713,42.448,47.813,43.049,47.514,43.849z"/>
	<path fill="#F58220" d="M44.014,41.349c-0.1,0-0.2,0-0.2,0c-0.1-0.101-0.1-0.101-0.1-0.101v0.101c-0.1,0-0.1,0-0.2,0v0.1
		c0,0,0,0-0.1,0c-0.1,0.101-0.1,0.3,0,0.4h0.1c0,0,0.1,0.1,0.1,0.2v0.199c-0.2,0.7-0.3,1.4-0.6,2.101c0.3,0,0.4-0.101,0.6-0.2
		l0.1-0.1C44.313,43.148,44.313,42.248,44.014,41.349z"/>
	<path fill="#F58220" d="M45.514,41.248c0,0,0,0,0,0.101h-0.1c-0.1,0.7-0.2,1.399-0.4,2c-0.2,0.6-0.3,1.399-0.5,1.899
		c0.2,0.2,0.4,0.2,0.6,0.101c0-0.101,0-0.101,0-0.101c0.7-1.199,0.9-2.399,0.9-3.699c0,0,0,0-0.2,0c0-0.101-0.1-0.2-0.2-0.301
		H45.514z"/>
	<path fill="#F58220" d="M46.914,45.349c0.2-0.5,0.4-1,0.6-1.5c0.3-0.8,0.2-1.4-0.2-1.8c-0.1,0-0.1,0-0.2,0c-0.1,0-0.1,0-0.1,0
		c-0.2,0.8-0.4,1.699-0.7,2.399c-0.3,0.7-0.5,1.4-0.8,2.2c0.1,0.1,0.1,0.1,0.1,0.1c0.1,0.101,0.2,0.101,0.2,0.101s0,0,0.2,0
		C46.414,46.448,46.713,45.849,46.914,45.349z"/>
	<path fill="#FFF200" d="M59.114,45.748c0,0,0,0.101,0.2,0.101l0,0c0-0.101,0-0.101,0-0.2c-0.2,0-0.2,0-0.2-0.1
		C59.114,45.648,59.114,45.648,59.114,45.748z"/>
	<path fill="#FFF200" d="M62.314,45.549L62.314,45.549c0,0,0,0,0.1,0C62.314,45.549,62.314,45.549,62.314,45.549z"/>
	<path fill="#EC008C" d="M87.713,15.249c0-0.2,0-0.2-0.1-0.2c-0.101,0.2-0.101,0.2-0.101,0.2l0,0
		C87.614,15.249,87.614,15.249,87.713,15.249z"/>
	<path fill="#FFCB05" d="M50.314,48.448c0-0.1,0.199-0.2,0.199-0.3l-0.199-0.2c0.1-0.1,0.1-0.1,0.199-0.2c-0.199,0-0.399,0-0.5-0.1
		c-0.699,0.2-1.2,0.1-1.7-0.2c-0.2-0.1-0.2-0.1-0.2-0.1c-0.2,0-0.4,0-0.6,0c-2-0.5-4-1-6-1.601c-2.7-0.8-5.2-1.699-7.7-2.8
		c-1.5-0.6-2.8-1.399-4.1-2.1c-0.1,0-0.2,0-0.3-0.101c-0.7-0.399-1.5-0.899-2.2-1.3c-0.2-0.1-0.4-0.1-0.7-0.2
		c-0.2-0.199-0.5-0.3-0.7-0.399c-0.2,0-0.3,0-0.5-0.101c0,0-0.2,0-0.2,0.101c-0.6-0.3-1.3-0.601-1.9-1c-0.2,0-0.4-0.2-0.7-0.3
		c-2.1-0.7-3.7-2.101-4.7-4.101c-0.1,0-0.3-0.1-0.3-0.2c0-0.1,0-0.1,0-0.199c0-0.101,0-0.2,0-0.2c0-0.101,0-0.101,0-0.101
		c0-0.199-0.2-0.199-0.2-0.199c-0.3,0-0.6,0.199-0.8,0.3c-1.5,0.5-3,0.899-4.5,1.3c-0.2,0.3-0.6,0.7-1,1.2c-0.7,0.5-1.2,1.1-1.5,1.8
		c-0.5,0.7-0.8,1.3-1.2,1.9c0,0.199,0,0.399-0.1,0.699c-0.1,0.101-0.2,0.2-0.2,0.4c3-0.4,6.1-0.7,9.5-0.8c1,0,1.9-0.3,2.8-0.9l0,0
		c0,0,0,0.101-0.1,0.2c0,0.1,0,0.1-0.1,0.2c-0.4,0.399-0.8,1-1,1.6c-0.8,1-1.6,1.8-2.6,2.601c2,0.699,3.9,0.6,5.8-0.601
		c0.2,0,0.4-0.2,0.5-0.5c0,0.101,0,0.3,0,0.4c0,0.1,0,0.1,0,0.1c0,0.4-0.1,0.9-0.2,1.4c-0.2,0.5-0.5,1-0.8,1.5
		c-0.1,0.2-0.3,0.5-0.3,0.6c-0.4,0.4-0.7,0.7-0.9,1c-0.1,0.101-0.1,0.2-0.2,0.4c2.7-1,5.6-2.101,8.4-3.5h0.1c0.1,0,0.1,0,0.2,0
		c0.3-0.2,0.7-0.4,1-0.7c0.1,0.1,0.1,0.2,0.1,0.2c0,0.1,0,0.1,0,0.1c-0.5,1.101-1.1,2.4-1.5,3.4c-0.8,1.7-1.7,3.1-2.9,4.5
		c3.2-0.7,6.2-1.7,9.2-2.9c0.3-0.1,0.6-0.399,0.8-0.7c0.5-0.199,0.9-0.399,1.2-0.8c0,0,0,0,0.1,0.101c-0.4,0.899-0.8,1.899-1.3,3
		c-0.1,0.3-0.2,0.5-0.3,0.8c1.3-0.8,2.6-1.601,4-2.3c0,0.699,0.1,1.399,0.2,2.199c-0.1,0.301-0.2,0.7-0.2,1.101
		c-0.1,0.3-0.2,0.6-0.4,0.899c1.7-0.1,3.2-0.5,4.7-1.399c1.5-0.601,2.8-1.5,4-2.5l0,0c0.2,0,0.5,0,0.5,0.2
		c0.2,0.399,0,0.699-0.2,0.899c-0.1,0.3-0.2,0.4-0.1,0.5c0.1,0,0.3,0,0.3-0.2l0,0c0.2-0.199,0.4-0.199,0.6-0.199
		c0.1-0.2,0.2-0.2,0.4-0.301c0.199-0.3,0.3-0.5,0.5-0.8C50.013,48.748,50.013,48.549,50.314,48.448L50.314,48.448z"/>
	<path fill="#F58220" d="M47.813,48.849L47.813,48.849c-1.2,1-2.5,1.899-4,2.5c-1.5,0.899-3,1.3-4.7,1.399
		c0.2-0.3,0.3-0.6,0.4-0.899c0-0.4,0.1-0.8,0.2-1.101c-0.1-0.8-0.2-1.5-0.2-2.199c-1.4,0.699-2.7,1.5-4,2.3c0.1-0.3,0.2-0.5,0.3-0.8
		c0.5-1.101,0.9-2.101,1.3-3c-0.1-0.101-0.1-0.101-0.1-0.101c-0.3,0.4-0.7,0.601-1.2,0.8c-0.2,0.301-0.5,0.601-0.8,0.7
		c-3,1.2-6,2.2-9.2,2.9c1.2-1.4,2.1-2.8,2.9-4.5c0.4-1,1-2.3,1.5-3.4c0,0,0,0,0-0.1c0,0,0-0.101-0.1-0.2c-0.3,0.3-0.7,0.5-1,0.7
		c-0.1,0-0.1,0-0.2,0h-0.1c-2.8,1.399-5.7,2.5-8.4,3.5c0.1-0.2,0.1-0.3,0.2-0.4c0.2-0.3,0.5-0.6,0.9-1c0-0.1,0.2-0.399,0.3-0.6
		c0.3-0.5,0.6-1,0.8-1.5c0.1-0.5,0.2-1,0.2-1.4c0,0,0,0,0-0.1c0-0.101,0-0.3,0-0.4c-0.1,0.3-0.3,0.5-0.5,0.5
		c-1.9,1.2-3.8,1.3-5.8,0.601c1-0.801,1.8-1.601,2.6-2.601c0.2-0.6,0.6-1.2,1-1.6c0.1-0.101,0.1-0.101,0.1-0.2
		c0.1-0.1,0.1-0.2,0.1-0.2l0,0c-0.9,0.601-1.8,0.9-2.8,0.9c-3.4,0.1-6.5,0.399-9.5,0.8c0-0.2,0.1-0.3,0.2-0.4
		c0.1-0.3,0.1-0.5,0.1-0.699c0.4-0.601,0.7-1.2,1.2-1.9c0.3-0.7,0.8-1.3,1.5-1.8c0.4-0.5,0.8-0.9,1-1.2c0-0.1,0-0.2,0.1-0.3
		c-0.3,0-0.7,0.2-1,0.399c-0.1,0.101-0.1,0.101-0.1,0.2c-3,0.601-5.5,2.4-7.3,4.9c-0.2,0.399-0.4,0.6-0.5,1
		c-0.1,0.2-0.2,0.5-0.4,0.6c0.6,1.4,1.4,2.5,2.3,3.601c1.2,1.1,2.4,2,3.7,2.899c3.9,2.2,8,3.8,12.3,4.7c1,0.2,2,0.4,3,0.6
		c4.2,0.7,8.2,1.101,12.4,1.301c0-0.2,0.2-0.2,0.3-0.2c0.6,0,1.2,0.1,1.8,0.399l0.1-0.199c2.1,0.199,4.1,0,6.1-0.2
		c0.9,0,1.7-0.4,2.6-1.101c0.1-0.199,0.4-0.399,0.6-0.6c0.1-0.2,0.3-0.3,0.3-0.3c0-0.101,0-0.101,0-0.3c0.4-0.601,0.7-1.2,1-1.801
		c-0.2,0.101-0.301,0.101-0.4,0.301c-0.2,0-0.4,0-0.6,0.199l0,0c0,0.2-0.2,0.2-0.3,0.2c-0.1-0.1,0-0.2,0.1-0.5
		c0.2-0.2,0.4-0.5,0.2-0.899C48.313,48.849,48.014,48.849,47.813,48.849z"/>
	<path fill="#A3238E" d="M89.013,23.648c-0.699,0.6-1.5,1.2-2.199,1.8c-0.101,0.4-0.301,0.7-0.5,1c0,0.1-0.2,0.3-0.301,0.4
		c0,0.4,0,0.6-0.199,1c-0.101,0-0.2,0.2-0.301,0.3c-0.1-0.1-0.199-0.2-0.199-0.3c-0.101,0-0.101,0-0.101-0.1
		c-0.1-0.5,0.101-1.2,0.4-1.7c0.1-0.2,0.2-0.4,0.2-0.6c-0.601,0.8-1,1.8-0.9,2.8c0.1,1.3,0.8,2.6,2.1,3.4c0.101,0,0.301,0,0.5,0
		c2.2-0.2,3.601-1.4,4.2-3.5c1-2.7,0.101-4.4-2.399-5.1c-0.301,0-0.5,0.2-0.601,0.3c0,0.1,0.101,0.1,0.2,0.1
		C88.914,23.548,88.914,23.548,89.013,23.648z M89.914,27.048c0,0,0,0,0.1,0v-0.1c0,0,0.101,0,0.301,0
		c0.199,0.3,0.199,0.5,0.199,0.8c0,0.1,0,0.1,0,0.1c0,0.2-0.199,0.5-0.199,0.7c0,0,0,0,0,0.2c-0.301,0-0.5,0.1-0.7,0.2
		c-0.101-0.1-0.2-0.2-0.3-0.2c0-0.3,0-0.4,0.199-0.4C89.713,27.849,89.814,27.448,89.914,27.048z M85.414,28.548c0,0,0,0,0.1,0h0.2
		c0.101,0,0.101,0.2,0.101,0.3c0.1,0.1,0.1,0.1,0.1,0.1c-0.1,0.1-0.1,0.2-0.1,0.3c-0.101,0-0.101,0-0.101,0.1
		c-0.1-0.1-0.2-0.1-0.399-0.1c0-0.1,0-0.1,0-0.2c-0.101-0.1-0.101-0.1-0.101-0.1C85.213,28.749,85.314,28.749,85.414,28.548z
		 M89.114,25.948c0.1,0,0.2,0,0.2,0.1c0.1,0.5,0.1,0.8,0,1.3c0,0.2,0,0.5,0,0.8c-0.101,0.1-0.301,0.2-0.301,0.2
		c-0.199,0.4-0.5,0.6-0.699,1c-0.2,0.1-0.301,0.1-0.5,0.2l-0.101-0.1c-0.1,0-0.2-0.1-0.399-0.1c0-0.1,0-0.2-0.101-0.3
		c-0.1-0.1-0.1-0.1-0.1-0.2c-0.101-1.4,0.399-2.5,1.5-3.4C88.814,25.548,88.914,25.749,89.114,25.948z"/>
	<path fill="#C7C4E2" d="M90.013,27.048c-0.1,0-0.1,0-0.1,0c-0.1,0.4-0.2,0.8-0.4,1.3c-0.199,0-0.199,0.1-0.199,0.4
		c0.1,0,0.199,0.1,0.3,0.2c0.2-0.1,0.399-0.2,0.7-0.2c0-0.2,0-0.2,0-0.2c0-0.2,0.199-0.5,0.199-0.7c0,0,0,0,0-0.1
		c0-0.3,0-0.5-0.199-0.8c-0.2,0-0.301,0-0.301,0V27.048z"/>
	<path fill="#C7C4E2" d="M85.513,28.548c-0.1,0-0.1,0-0.1,0c-0.1,0.2-0.2,0.2-0.2,0.4c0,0,0,0,0.101,0.1c0,0.1,0,0.1,0,0.2
		c0.199,0,0.3,0,0.399,0.1c0-0.1,0-0.1,0.101-0.1c0-0.1,0-0.2,0.1-0.3c0,0,0,0-0.1-0.1c0-0.1,0-0.3-0.101-0.3H85.513z"/>
	<path d="M89.314,26.048c0-0.1-0.101-0.1-0.2-0.1c-0.2-0.2-0.3-0.4-0.5-0.5c-1.101,0.9-1.601,2-1.5,3.4c0,0.1,0,0.1,0.1,0.2
		c0.101,0.1,0.101,0.2,0.101,0.3c0.199,0,0.3,0.1,0.399,0.1l0.101,0.1c0.199-0.1,0.3-0.1,0.5-0.2c0.199-0.4,0.5-0.6,0.699-1
		c0,0,0.2-0.1,0.301-0.2c0-0.3,0-0.6,0-0.8C89.414,26.849,89.414,26.548,89.314,26.048z"/>
	<path fill="#C7C4E2" d="M86.814,25.448c0.699-0.6,1.5-1.2,2.199-1.8c-0.1-0.1-0.1-0.1-0.1-0.2c-0.1,0-0.2,0-0.2-0.1
		c-0.1,0-0.1,0-0.2-0.1c-1,0.5-1.8,1.1-2.6,1.8c-0.1,0.2-0.1,0.3-0.1,0.4c0,0.2-0.101,0.4-0.2,0.6c-0.3,0.5-0.5,1.2-0.4,1.7
		c0,0.1,0,0.1,0.101,0.1c0,0.1,0.1,0.2,0.199,0.3c0.101-0.1,0.2-0.3,0.301-0.3c0.199-0.4,0.199-0.6,0.199-1
		c0.101-0.1,0.301-0.3,0.301-0.4C86.513,26.148,86.713,25.849,86.814,25.448z"/>
	<path fill="#A3238E" d="M57.314,47.248c0.1,0.101,0.1,0.101,0.1,0.101c-0.1,0-0.1,0-0.1,0.1c0,0,0,0-0.101,0.101
		c0,0.1,0,0.1,0.101,0.199c-0.101,0-0.2,0.101-0.301,0.101c-0.1,0.1-0.199,0.1-0.199,0.1c-1.101,0.4-2.2,0.9-3.101,1.8
		c-0.2,0.101-0.3,0.5-0.399,0.7c-0.101,0.2-0.2,0.3-0.301,0.4c0,0.2,0,0.3-0.1,0.5c-0.1,0-0.1,0.1-0.1,0.1l-0.101,0.101
		c-0.1,0.6-0.2,1.3-0.399,1.899c0,0,0,0-0.2,0c0,0.101-0.101,0.101-0.101,0.101c-0.1,0-0.199,0-0.199-0.101
		c-0.101,0-0.101,0-0.101,0c-0.2-0.5-0.2-0.899-0.2-1.2c-0.199,0.2-0.199,0.4-0.3,0.601c-0.2,0.7-0.3,1.5-0.2,2.2
		c0.101,1.399,0.7,3,1.601,4.6c1.899,0.8,3.6,0.5,5.2-0.5c1.199-0.9,2-2,2.6-3.5c0.7-1.8,0.7-3.6,0.1-5.3
		c-0.199-0.4-0.3-0.601-0.399-0.9c-0.601-1.6-1.8-2.7-3.601-3.2c-0.399,0.101-0.699,0.2-1,0.4c0.601-0.1,1.101,0.1,1.7,0.2
		c0.101,0,0.101,0,0.101,0.1c0,0.101,0,0.101,0,0.101C57.314,47.148,57.314,47.148,57.314,47.248z M58.513,51.148
		c0,0.1,0.101,0.2,0.2,0.2c0.2,0.899,0.3,1.6,0.101,2.2c0,0,0,0,0.1-0.101c0.1,0,0.1,0,0.1,0c0.101,0,0.301,0,0.301,0.101
		c0,0.1,0,0.3,0,0.3c0.199,0,0.199,0,0.199,0.1c-0.199,1.4-1,2.2-2.399,2.9c-0.101-0.101-0.3-0.2-0.4-0.3
		c0.3-0.4,0.601-0.7,1.3-1.101c0.101-0.3,0.4-0.6,0.601-0.899c0-0.101,0-0.2,0-0.5c-0.101,0.3-0.2,0.399-0.3,0.6
		c-0.301,0.7-0.801,1.2-1.5,1.3c-1,0.4-1.7-0.1-2.101-1.2c-0.1-0.5-0.1-1.199,0-1.699c0.101-0.101,0.101-0.2,0.2-0.4v-0.1
		c0.1,0,0.1,0,0.1-0.101c0-0.1,0.101-0.399,0.301-0.6c0,0,0.199-0.101,0.199-0.3l0.2-0.101c0.3-0.399,0.601-0.7,1-1
		c0.101,0,0.101,0,0.3-0.1c0,0.1,0,0.1,0.101,0.1c0,0,0.1,0,0.2,0c0,0,0.1,0.101,0.199,0.2
		C57.814,50.849,58.114,50.948,58.513,51.148z M51.814,54.849c0.1,0,0.1,0,0.199,0c0.301,0,0.4,0.2,0.5,0.5c0,0,0,0,0,0.1
		c0,0,0,0,0,0.101c-0.1,0-0.1,0.199-0.199,0.3l0,0h-0.2c-0.2,0-0.3-0.101-0.4-0.3c-0.2-0.101-0.2-0.2-0.2-0.301
		c0-0.1,0-0.199,0.2-0.3C51.713,54.849,51.814,54.849,51.814,54.849z"/>
	<path d="M58.713,51.349c-0.1,0-0.2-0.101-0.2-0.2c-0.399-0.2-0.699-0.3-1-0.5c-0.1-0.1-0.199-0.2-0.199-0.2c-0.101,0-0.2,0-0.2,0
		c-0.101,0-0.101,0-0.101-0.1c-0.199,0.1-0.199,0.1-0.3,0.1c-0.399,0.3-0.7,0.601-1,1l-0.2,0.101c0,0.199-0.199,0.3-0.199,0.3
		c-0.2,0.2-0.301,0.5-0.301,0.6c0,0.101,0,0.101-0.1,0.101v0.1c-0.1,0.2-0.1,0.3-0.2,0.4c-0.1,0.5-0.1,1.199,0,1.699
		c0.4,1.101,1.101,1.601,2.101,1.2c0.699-0.1,1.199-0.6,1.5-1.3c0.1-0.2,0.199-0.3,0.3-0.6c0,0,0,0,0-0.101c0.1-0.1,0.1-0.1,0.1-0.1
		c0.101-0.101,0.101-0.2,0.101-0.3C59.013,52.948,58.914,52.248,58.713,51.349z"/>
	<path fill="#A3238E" d="M58.814,53.549c0,0.1,0,0.199-0.101,0.3c0.101-0.101,0.101-0.101,0.101-0.101
		C58.814,53.648,58.814,53.648,58.814,53.549z"/>
	<path fill="#C7C4E2" d="M58.814,53.549c0,0.1,0,0.1,0,0.199c0,0,0,0-0.101,0.101c0,0,0,0-0.1,0.1c0,0.101,0,0.101,0,0.101
		c0,0.3,0,0.399,0,0.5c-0.2,0.3-0.5,0.6-0.601,0.899c-0.699,0.4-1,0.7-1.3,1.101c0.101,0.1,0.3,0.199,0.4,0.3
		c1.399-0.7,2.2-1.5,2.399-2.9c0-0.1,0-0.1-0.199-0.1c0,0,0-0.2,0-0.3c0-0.101-0.2-0.101-0.301-0.101c0,0,0,0-0.1,0
		C58.814,53.549,58.814,53.549,58.814,53.549z"/>
	<path fill="#C7C4E2" d="M52.013,54.849c-0.1,0-0.1,0-0.199,0c0,0-0.101,0-0.101,0.1c-0.2,0.101-0.2,0.2-0.2,0.3
		c0,0.101,0,0.2,0.2,0.301c0.101,0.199,0.2,0.3,0.4,0.3h0.2l0,0c0.1-0.101,0.1-0.3,0.199-0.3c0-0.101,0-0.101,0-0.101
		c0-0.1,0-0.1,0-0.1C52.414,55.049,52.314,54.849,52.013,54.849z"/>
	<path fill="#C7C4E2" d="M57.414,47.349c0,0,0,0-0.1-0.101c0-0.1,0-0.1,0-0.199c0,0,0,0,0-0.101c0-0.1,0-0.1-0.101-0.1
		c-0.6-0.101-1.1-0.3-1.7-0.2c0,0-0.199,0-0.399,0c0,0.1-0.101,0.1-0.101,0.1c-0.8,0.301-1.399,0.801-1.899,1.5
		c-0.4,0.7-0.8,1.301-1.3,2.101c0,0.1,0,0.1-0.101,0.2c-0.2,0.5-0.2,0.899-0.2,1.3c0,0.1,0,0.2,0,0.399c0,0.301,0,0.7,0.2,1.2
		c0,0,0,0,0.101,0c0,0.101,0.1,0.101,0.199,0.101c0,0,0.101,0,0.101-0.101c0.2,0,0.2,0,0.2,0c0.199-0.6,0.3-1.3,0.399-1.899
		l0.101-0.101c0,0,0-0.1,0.1-0.1c0.1-0.2,0.1-0.3,0.1-0.5c0.101-0.101,0.2-0.2,0.301-0.4c0.1-0.2,0.199-0.6,0.399-0.7
		c0.9-0.899,2-1.399,3.101-1.8c0,0,0.1,0,0.199-0.1c0.101,0,0.2-0.101,0.301-0.101c-0.101-0.1-0.101-0.1-0.101-0.199
		c0.101-0.101,0.101-0.101,0.101-0.101C57.314,47.349,57.314,47.349,57.414,47.349z"/>
</g>
</svg>
