<?xml version="1.0" encoding="utf-8"?>
<!-- Generator: Adobe Illustrator 13.0.0, SVG Export Plug-In . SVG Version: 6.00 Build 14948)  -->
<svg version="1.2" baseProfile="tiny" id="Layer_1" xmlns="http://www.w3.org/2000/svg" xmlns:xlink="http://www.w3.org/1999/xlink"
	 x="0px" y="0px" width="66.625px" height="93.205px" viewBox="0 0 66.625 93.205" xml:space="preserve">
<path d="M34.424,72.776c-0.1,0-0.1,0-0.2,0c-0.2,0.301-0.2,0.5-0.1,0.801c0,0.1,0,0.199,0,0.3c0,0.2-0.1,0.5-0.1,0.8
	c-0.2,0.3-0.4,0.6-0.7,0.7c-1,0.899-1.5,2-1.6,3.3c-0.1,0.3,0.1,0.6,0.4,0.7c0.8,0.5,1.6,0.6,2.4,0.1c0,0.3,0,0.7,0,1.101
	c0,0,0,0.1,0.1,0.199c-0.2,0-0.4,0-0.6,0c-0.2,0-0.4,0.101-0.4,0.301l0,0c-0.3,0.399-0.1,0.699,0.4,0.699c0,0.101,0,0.101,0,0.2
	c0.2,0,0.3,0,0.4,0.101c0.4,0,0.8,0,1.2,0c0.2-0.101,0.5-0.2,0.7-0.301c0.5-0.1,0.6-0.399,0.3-0.699c0,0,0,0-0.1-0.101
	c0,0,0,0-0.1-0.1c-0.4-0.101-0.8-0.101-1.1-0.101c0-0.399,0-0.699,0-1c1,0.101,1.7-0.199,2.3-1c0-0.199,0-0.199,0.1-0.3
	c0.2-0.7,0.2-1.3,0-1.899c-0.1-0.301-0.3-0.601-0.6-0.801c-0.5-0.8-1.2-1.5-2-2.199c-0.1,0-0.1-0.2-0.1-0.2
	C34.924,73.077,34.724,72.776,34.424,72.776z M34.624,74.476c0.1-0.1,0.2-0.2,0.3-0.2s0.2,0.101,0.2,0.301h0.2v0.1
	c0.3,0.1,0.5,0.3,0.7,0.7c0,0,0,0.2,0.1,0.2c0.2,0.3,0.5,0.699,0.7,1c0.2,0.399,0.2,0.8,0.2,1.199c-0.1,0.801-0.7,1.301-1.6,1.2
	c-0.1,0-0.1,0-0.1,0c0-0.2,0-0.399,0-0.7c0-0.1,0-0.199,0-0.399c0.1-0.5,0-0.8-0.4-0.9h-0.1c0,0.101-0.1,0.101-0.1,0.101
	c-0.2,0.5-0.3,1-0.2,1.6v0.1c-0.1,0-0.2,0-0.2,0.2c-0.7,0.101-1.3,0.101-1.8-0.3c0-0.1,0-0.3,0-0.4c0-0.199,0.1-0.3,0.1-0.5
	c0.2-0.5,0.4-1,0.9-1.399c0.3-0.3,0.7-0.7,1-1.101c0,0,0-0.1,0-0.199c0.1-0.101,0.1-0.301,0.1-0.5
	C34.624,74.577,34.624,74.577,34.624,74.476z"/>
<path fill="#FAA61A" d="M34.924,74.376h0.1l0.1,0.2c0-0.2-0.1-0.301-0.2-0.301s-0.2,0.101-0.3,0.2c0,0.101,0,0.101,0,0.101
	c0,0.199,0,0.399-0.1,0.5c0,0.1,0,0.199,0,0.199s0,0-0.1,0.101c-0.1,0-0.1,0.2-0.1,0.3c-0.3,0.2-0.5,0.4-0.7,0.7
	c-0.3,0.399-0.6,0.8-0.9,1.2c-0.1,0.1-0.1,0.199-0.1,0.199c0,0.2-0.1,0.301-0.1,0.5c0,0.101,0.1,0.301,0.3,0.301
	c0.3,0.199,0.5,0,0.5-0.301c0.3-0.5,0.6-0.899,1-1.3c0.2-0.3,0.3-0.6,0.5-0.8c0,0.1,0,0.2,0,0.4c0,0.1,0,0.199,0.1,0.199
	c0.2,0,0.4-0.199,0.5-0.5c0.1,0.101,0.1,0.101,0.1,0.2v0.101c0.3,0.199,0.5,0.199,0.6-0.101c0.2,0.101,0.3-0.1,0.4-0.2
	c-0.2-0.199-0.3-0.5-0.4-0.699c-0.1,0-0.1-0.2-0.1-0.2c-0.2-0.4-0.4-0.601-0.7-0.7c0.1,0.1,0.2,0.4,0.2,0.7c0,0.2-0.2,0.2-0.4,0.2
	c-0.1,0-0.2-0.2-0.3-0.301c-0.1-0.199-0.1-0.5,0-0.699c0,0,0,0,0-0.101C34.824,74.376,34.824,74.376,34.924,74.376z"/>
<path fill="#FFCB05" d="M35.024,74.376h-0.1c-0.1,0-0.1,0-0.1,0.1c0,0.101,0,0.101,0,0.101c-0.1,0.199-0.1,0.5,0,0.699
	c0.1,0.101,0.2,0.301,0.3,0.301c0.2,0,0.4,0,0.4-0.2c0-0.3-0.1-0.601-0.2-0.7v-0.1h-0.2L35.024,74.376z"/>
<path fill="#ED1A3B" d="M32.624,77.776c0,0,0-0.1,0.1-0.199c0.3-0.4,0.6-0.801,0.9-1.2c0.2-0.3,0.4-0.5,0.7-0.7c0-0.1,0-0.3,0.1-0.3
	c0.1-0.101,0.1-0.101,0.1-0.101c-0.3,0.4-0.7,0.801-1,1.101C33.024,76.776,32.824,77.276,32.624,77.776z"/>
<path fill="#ED1A3B" d="M32.824,78.577c-0.2,0-0.3-0.2-0.3-0.301c0,0.101,0,0.301,0,0.4c0.5,0.4,1.1,0.4,1.8,0.3
	c0-0.2,0.1-0.2,0.2-0.2v-0.1c-0.1-0.6,0-1.1,0.2-1.6c0,0,0.1,0,0.1-0.101h0.1c0.4,0.101,0.5,0.4,0.4,0.9c0,0.2,0,0.3,0,0.399
	c0,0.301,0,0.5,0,0.7c0,0,0,0,0.1,0c0.9,0.101,1.5-0.399,1.6-1.2c0-0.399,0-0.8-0.2-1.199c-0.2-0.301-0.5-0.7-0.7-1
	c0.1,0.199,0.2,0.5,0.4,0.699c-0.1,0.101-0.2,0.301-0.4,0.2c-0.1,0.3-0.3,0.3-0.6,0.101v-0.101c0-0.1,0-0.1-0.1-0.2
	c-0.1,0.301-0.3,0.5-0.5,0.5c-0.1,0-0.1-0.1-0.1-0.199c0-0.2,0-0.301,0-0.4c-0.2,0.2-0.3,0.5-0.5,0.8c-0.4,0.4-0.7,0.8-1,1.3
	C33.324,78.577,33.124,78.776,32.824,78.577z"/>
<g>
	<path d="M64.924,36.676c2.301-6.2,2.301-12.2-0.199-18.2c-3.301-8.3-9.4-13.8-18-16.4c-7.4-2.4-14.9-2.7-22.601-1
		c-8.9,2.1-15.5,7-20,14.7c-4.4,7.7-5.3,15.7-2.6,24.2c0.6,1.9,1.3,3.7,2.1,5.4c0.7,0.4,1.2,1.1,1.7,2c0.5,0.899,1.1,1.8,1.7,2.8
		c2.6,3.5,5.5,6.8,8.6,9.8c2.7,2.7,5.2,5.7,7.4,8.8l0,0c0.3,1.301,0.6,2.5,1,3.801c0.1,0.199,0.3,0.199,0.5,0.199
		c0.1-0.1,0.1-0.1,0.3-0.1c0.8,3,1.4,6.1,1.8,9.2c0,0.2,0.2,0.2,0.2,0.399c0.1,0.2,0.2,0.601,0.2,1c0.1,0.2,0.3,0.301,0.5,0.5
		c0.1,0.301,0.2,0.601,0.3,1c-0.1,0.101-0.2,0.2-0.2,0.2c0.2,0.2,0.4,0.4,0.5,0.601c0.2,1.199,0.2,2.399,0.2,3.699
		c0.1,0,0.1,0.101,0.2,0.101c0,0,0,0.1,0.1,0.1c0,0.101,0,0.3,0,0.4c0.1,0.6,0.2,1.399,0.4,2.1c0,0,0,0,0,0.101c0,0.3,0,0.5,0,0.8
		c0.3,0,0.6,0,0.8,0.1h-0.1c0.1,0,0.1,0,0.1,0c3.7,0.4,7.2,0.3,10.8-0.5c0.3,0.2,0.5,0.2,0.8,0c0.1,0,0.1-0.1,0.2-0.1
		c0-0.101,0-0.101,0-0.101c0-0.1,0-0.1,0.1-0.1s0.3,0,0.4-0.1c0.1-0.101,0.1-0.2,0.1-0.2c0.7-3.4,1-6.8,1.3-10.101
		c0-0.199,0.1-0.199,0.1-0.199c0-0.301,0-0.5,0-0.5c0-0.101,0-0.101,0-0.101c0.101-0.399,0.2-0.8,0.3-1.2c0.5-2.8,1-5.8,1.5-8.899
		c0.101,0,0.2,0,0.301,0c0.1-0.101,0.199-0.3,0.199-0.5c0.2-2,0.7-4.101,1.4-6c3.3-2.8,6.1-6.2,8.6-9.8c0.7-1.301,1.5-2.4,2.2-3.601
		C60.725,46.376,63.024,41.676,64.924,36.676z M46.424,3.976c0.101,0.1,0.101,0.1,0.2,0.2c3,0.8,5.8,2.5,8.101,4.7
		c3,2.8,5.3,6.1,6.899,10c1.601,4,2.101,8.2,1.5,12.5c-0.6,4.3-1.8,8.4-3.6,12.5c-0.4,0.9-0.9,1.7-1.601,2.1
		c-1,2.101-2.3,4.2-3.699,6.2c-2.801,4.1-6,8-9.5,11.7l-2-0.601c6.3-12.6,9-25.7,8.2-39.6l-0.8-1.1c0-0.9-0.1-1.9-0.2-2.7
		c-0.399-1.2-1-2.3-1.6-3.4c-0.1-0.1-0.1-0.1-0.1-0.2s0-0.1,0-0.1c0-0.1,0-0.2,0-0.2c-1.2-2.5-2.7-4.8-4.5-6.8
		c-0.2-0.3-0.4-0.5-0.601-0.7c-0.2-0.3-0.5-0.5-0.9-0.7c-0.8-0.1-1.2-0.6-1.1-1.2l-0.2-0.1l0.8-2.3c0.1,0,0.2,0,0.3,0l0,0
		c0.1-0.3,0.3-0.5,0.6-0.7c0.3-0.1,0.4-0.2,0.601-0.1C44.424,3.276,45.524,3.476,46.424,3.976z M39.124,2.176c0.4,0,0.5,0.2,0.7,0.5
		c0.2,0.8,0.1,1.5-0.6,1.8l-0.3,0.4c-3.9,3.7-7.8,4-11.9,1c-0.2-0.2-0.4-0.5-0.5-0.7c0,0,0,0,0.1,0c-0.2-0.1-0.3-0.2-0.5-0.3
		c0-0.4,0-0.6,0-0.9c0-0.1,0-0.3,0-0.5c0.1-0.1,0.2-0.1,0.2-0.1c0.1-0.4,0.4-0.9,0.9-1.2c0.4-0.3,0.7-0.5,1.1-0.5c0.5,0,1,0,1.5,0
		c0,0,0,0,0.1,0h0.1C33.124,1.676,36.124,1.776,39.124,2.176z M33.624,9.176L33.624,9.176c0.2,0.6,0.2,1.2,0.2,1.8
		c0.1,0.2,0.2,0.3,0.3,0.5c0.2,0.4,0.2,0.7,0.2,1c0,4.5,0.2,8.8,0.5,13.2c0.2,3.2,0.5,6.5,0.7,9.7c0.3,4.3,0.3,8.7,0,13
		c-0.3,4.3-0.7,8.7-1.2,13c0,0.5-0.2,0.8-0.3,1.2c0,0,0,0.1,0,0.199l-0.6,0.301c-1.5,0.199-3,0.6-4.4,1c-0.5,0.1-0.9,0.199-1.2,0.3
		h-0.1c-0.2-0.101-0.4-0.3-0.6-0.601c-1.4-3.899-2.8-7.8-4.4-11.6c-0.6-1.4-1-2.9-1.2-4.5c0-0.5,0-1,0-1.5
		c-0.9-3.7-1.4-7.5-1.4-11.5c-0.1-4.3,0.1-8.5,0.9-12.6c0.5-3,1.6-5.7,3.2-8.3c0.2-0.4,0.4-0.7,0.6-1.1c0.1-0.3,0.2-0.5,0.5-0.6
		c0.3-0.7,0.8-1.2,1.3-1.9c0.4-0.3,0.9-0.6,1.2-1H33.624z M26.324,7.576c-0.3,0.3-0.5,0.6-0.7,0.9c-0.3,0.3-0.5,0.6-0.7,0.9
		c-0.3,0.3-0.4,0.5-0.6,0.8c-0.3,0.5-0.7,0.9-1.1,1.3c-1,1.3-1.8,2.7-2.4,4.4c-0.1,0.3-0.2,0.6-0.2,0.8c-0.4,0.8-0.6,1.5-1,2.3
		c-0.8,2-1.2,4.2-1.3,6.4c0,2.1-0.1,4.3-0.3,6.5c-0.2,4.4,0.1,8.8,1,13.1c0.5,2.2,1.1,4.3,1.8,6.4c0.2,0.899,0.6,1.899,0.9,2.8
		c0.6,1.5,1.1,3,1.6,4.5c0.2,0.6,0.4,1.1,0.5,1.8l0.3,0.2c0.2,0.4,0.2,0.6,0.4,1c0,0.2,0,0.4,0,0.5c0.1,0.2,0.1,0.4,0.1,0.6
		c0,0.2,0.2,0.4,0.2,0.601s0.2,0.3,0.3,0.399c0,0.101,0.2,0.2,0.2,0.4c0.2,0.2,0.3,0.5,0.3,0.9c0.1,0,0.2,0.1,0.2,0.1
		c-0.6,0.4-1.2,0.8-1.8,1.2c-3.4-4.2-7-8.2-10.8-12.101c-3.4-3.3-6.2-7.2-8.2-11.6c-1.5-3.2-2.3-6.4-2.4-9.8c0,0,0-0.2,0.1-0.2
		c-0.1-0.7,0-1.3,0.1-2c0.1-0.6,0.2-1,0.2-1.5c0.5-4.2,1.6-8.2,3.5-11.9c2.4-4.9,6.1-8.6,11-11.1c1.5-0.8,3.1-1.3,4.8-1.8
		c0,0,0.2,0,0.2,0.1c0.1-0.1,0.3-0.1,0.4-0.2c1,0.2,1.6,0.8,1.9,1.6L26.324,7.576z M35.024,9.176h1.1c0.5-0.7,1.1-1.2,2-1.3
		c0.2,0,0.4,0.1,0.5,0.2l0.3-0.1c8.1,7,11.3,16.1,9.5,27.3c-0.199,1.3-0.3,2.4-0.3,3.7v0.1c-0.1,1.5-0.5,3-1,4.5
		c-0.1,0.8-0.399,1.7-0.6,2.6c-0.601,2.6-1.4,5.2-2.5,7.7c-1,2.899-2.1,5.7-3.5,8.399c-0.1,0-0.3,0-0.4,0c-1.4,0-2.7,0.101-4,0.301
		c1.3-17.7,0.9-35.4-0.8-53.2L35.024,9.176L35.024,9.176z M24.524,69.276c-0.2-0.199-0.2-0.199-0.2-0.3c-0.2-0.399-0.3-0.8-0.5-1.2
		c0.7-0.5,1.4-0.899,2.2-1c0.1-0.1,0.3-0.199,0.5-0.3c0,0,0.1,0,0.1-0.1c0.2,0.2,0.4,0.1,0.7-0.101l0,0c0.2-0.1,0.3-0.1,0.4-0.1
		c2.3-1.3,4.7-1.9,7.4-2c0.7,0,1.4,0,2-0.1c0.6,0,1.3,0,1.9,0c1.4-0.101,2.5,0.1,3.3,0.8c0.3,0,0.5,0,0.7,0c0,0.1,0.1,0.1,0.1,0.2
		c0.8,0,1.5,0.1,2.101,0.5c-0.101,0.1-0.101,0.1-0.101,0.199c-0.5,1.2-0.7,2.301-0.899,3.601c-6.5,0.1-12.8,0.7-19,1.7
		c-0.2-0.101-0.2-0.301-0.4-0.5C24.624,70.276,24.524,69.776,24.524,69.276z M34.824,71.376c0.2,0,0.4,0,0.7,0.1l-0.1-0.1
		c0.2,0,0.4,0,0.6,0c2.7-0.2,5.4-0.3,8-0.4c-0.5,3-1.101,6-1.6,9c-0.1,0.101-0.2,0.101-0.2,0.3c-0.1,0.101-0.1,0.2-0.1,0.301
		c-0.5,0.199-1.2,0.3-2,0.3c-1,0-2,0.1-2.9,0.1c-0.6,0.101-1.2,0.101-1.8,0c-0.4,0.101-0.9,0-1.4,0v0.101c-0.9,0-1.7,0.1-2.7,0.199
		c-1.2,0-2.2,0.301-3.2,0.7c-0.1,0-0.1,0-0.1-0.1c-0.2-0.3-0.2-0.601-0.2-0.9c-0.5-1.7-0.8-3.6-0.9-5.399c-0.1-1.101-0.4-2.2-0.9-3
		c0.4-0.101,0.8-0.2,1.1-0.2c2.4-0.3,4.7-0.601,7-0.8h0.1C34.424,71.476,34.624,71.376,34.824,71.376z M29.024,83.976
		c-0.2-0.3-0.2-0.6-0.4-0.899c4.4-0.601,8.9-0.801,13.3-1l0,0c0.1,0.1,0.1,0.199,0.1,0.199c-0.1,0.2-0.2,0.5-0.3,0.801
		c-4.2,0.199-8.4,0.6-12.7,1.199C29.024,84.176,29.024,84.077,29.024,83.976z M29.324,85.776c0.2,0,0.3,0,0.4,0s0.2,0,0.3,0
		c0-0.1,0.1-0.1,0.2-0.1c0.1-0.1,0.3-0.2,0.5-0.2c2.1-0.6,4.4-0.8,6.7-0.6h0.1h0.1h0.1c0,0,0,0,0.1,0s0.2,0,0.3,0
		c0-0.101,0.1-0.101,0.3-0.101c0.6-0.199,1.1-0.199,1.6,0c0.3-0.1,0.6-0.1,0.8-0.1c0.2-0.1,0.2-0.1,0.4-0.1c0.4,0,0.6,0,0.9-0.101
		c-0.1,1.3-0.2,2.5-0.3,3.7c-0.1,0.1-0.1,0.1-0.1,0.2c0,0,0,0-0.1,0.1c0,0.101,0,0.2,0,0.3c0,0.2,0,0.301,0,0.601c0,0,0,0,0,0.1
		c-0.1,0-0.1,0.101-0.1,0.101c0,0.199,0,0.3,0,0.399c-0.2,0.4-0.3,0.9-0.4,1.3c-0.2,0-0.5-0.1-0.7-0.1c-0.6,0.1-1.2,0.2-1.7,0.3
		c0-0.1,0-0.1,0-0.1c-0.2,0-0.5,0.1-0.7,0.1c-0.1,0-0.3,0-0.4,0.101c-0.4,0.1-0.9,0.1-1.3,0.1c-2,0.3-4,0.3-5.8,0
		c-0.2,0-0.4,0-0.5,0c-0.2-1.3-0.4-2.7-0.5-4.1C29.424,86.976,29.324,86.376,29.324,85.776z"/>
	<path fill="#007DC5" d="M46.624,4.176c-0.1-0.1-0.1-0.1-0.2-0.2c-0.899-0.5-2-0.7-3.199-0.6c-0.2-0.1-0.301,0-0.601,0.1
		c-0.3,0.2-0.5,0.4-0.6,0.7l0,0c-0.1,0-0.2,0-0.3,0l-0.8,2.3l0.2,0.1c-0.1,0.6,0.3,1.1,1.1,1.2c0.4,0.2,0.7,0.4,0.9,0.7
		c0.2,0.2,0.4,0.4,0.601,0.7c1.8,2,3.3,4.3,4.5,6.8c0,0,0,0.1,0,0.2c0,0,0,0,0,0.1s0,0.1,0.1,0.2c0.6,1.1,1.2,2.2,1.6,3.4
		c0.101,0.8,0.2,1.8,0.2,2.7l0.8,1.1c0.801,13.9-1.899,27-8.2,39.6l2,0.601c3.5-3.7,6.699-7.601,9.5-11.7
		c1.399-2,2.699-4.1,3.699-6.2c0.7-0.4,1.2-1.2,1.601-2.1c1.8-4.1,3-8.2,3.6-12.5c0.601-4.3,0.101-8.5-1.5-12.5
		c-1.6-3.9-3.899-7.2-6.899-10C52.424,6.676,49.624,4.976,46.624,4.176z M45.424,4.876c-0.1,0.4-0.3,0.8-0.5,1
		c-0.199,0.1-0.3,0.2-0.5,0.3c1.101,0.5,1.7,1.3,2.2,2.3c2.4,2.8,4.2,5.9,5.4,9.4c0.1,0.5,0.2,1,0.1,1.4c0,0.1,0,0.1,0,0.2
		c0.101,0.1,0.101,0.2,0.101,0.3c0.1,0.1,0.1,0.2,0.1,0.2s0,0.1-0.1,0.2c0,0,0,0.1,0,0.2c-0.101,0-0.101,0-0.101,0.1
		c0,0,0,0.1,0,0.2c0,0,0,0.2,0,0.3c0,0,0,0.1,0.101,0.2c-0.2,0-0.2-0.1-0.301-0.2c-0.1,0-0.199-0.2-0.199-0.3s-0.101-0.2-0.101-0.2
		c-0.1-0.1-0.2-0.1-0.2-0.1c-0.899-2-1.899-3.8-3-5.5c-0.3-0.5-0.399-0.9-0.5-1.4c-0.5-0.5-0.899-1-1.3-1.5l-0.1-0.1
		c-0.101-0.1-0.101-0.2-0.101-0.2s0-0.1,0-0.2c0,0,0-0.1-0.1-0.1c-0.6-0.6-1.1-1.2-1.6-1.9c0,0,0-0.1-0.101-0.1v-0.2
		c0,0,0-0.1,0-0.2v-0.1c-1.6-0.5-2.2-1.6-2-3c0-0.5,0.1-0.8,0.4-1.1c0.3-0.3,0.6-0.4,1-0.6c0,0,0.1,0,0.3,0c0.4,0,0.7,0.2,0.9,0.5
		C45.324,4.776,45.324,4.876,45.424,4.876z M52.624,23.876c1.4,0.8,1.4,1.8,0.2,2.8c-0.2,0.2-0.3,0.2-0.4,0c-0.8-0.5-1-1.1-0.699-2
		c0.1-0.3,0.3-0.5,0.6-0.7c0.1,0,0.1,0,0.1,0C52.524,23.876,52.624,23.876,52.624,23.876L52.624,23.876z M56.524,47.176
		c0.1,0.1,0.1,0.2,0.1,0.2c0.101,0,0.101,0.1,0.101,0.2c-2.2,3.5-4.801,6.899-7.601,10.199c-1,1.301-2.1,2.5-3.3,3.601
		c-0.1-0.101-0.2-0.2-0.4-0.2c0.7-1.9,1.7-3.6,3.2-5.2c1.4-1.6,2.8-3.1,4-4.7c0.5-0.699,1.101-1.5,1.7-2.3
		C55.024,48.176,55.624,47.577,56.524,47.176z"/>
	<path fill="#95B6DF" d="M44.924,5.876c0.2-0.2,0.4-0.6,0.5-1c-0.1,0-0.1-0.1-0.199-0.2c-0.2-0.3-0.5-0.5-0.9-0.5
		c-0.2,0-0.3,0-0.3,0c-0.4,0.2-0.7,0.3-1,0.6c-0.3,0.3-0.4,0.6-0.4,1.1c-0.2,1.4,0.4,2.5,2,3v0.1c0,0.1,0,0.2,0,0.2v0.2
		c0.101,0,0.101,0.1,0.101,0.1c0.5,0.7,1,1.3,1.6,1.9c0.1,0,0.1,0.1,0.1,0.1c0,0.1,0,0.2,0,0.2s0,0.1,0.101,0.2l0.1,0.1
		c0.4,0.5,0.8,1,1.3,1.5c0.101,0.5,0.2,0.9,0.5,1.4c1.101,1.7,2.101,3.5,3,5.5c0,0,0.101,0,0.2,0.1c0,0,0.101,0.1,0.101,0.2
		s0.1,0.3,0.199,0.3c0.101,0.1,0.101,0.2,0.301,0.2c-0.101-0.1-0.101-0.2-0.101-0.2c0-0.1,0-0.3,0-0.3c0-0.1,0-0.2,0-0.2
		c0-0.1,0-0.1,0.101-0.1c0-0.1,0-0.2,0-0.2c0.1-0.1,0.1-0.2,0.1-0.2s0-0.1-0.1-0.2c0-0.1,0-0.2-0.101-0.3c0-0.1,0-0.1,0-0.2
		c0.101-0.4,0-0.9-0.1-1.4c-1.2-3.5-3-6.6-5.4-9.4c-0.5-1-1.1-1.8-2.2-2.3C44.624,6.076,44.725,5.976,44.924,5.876z"/>
	<path fill="#95B6DF" d="M52.824,26.676c1.2-1,1.2-2-0.2-2.8l0,0c0,0-0.1,0-0.2,0.1c0,0,0,0-0.1,0c-0.3,0.2-0.5,0.4-0.6,0.7
		c-0.301,0.9-0.101,1.5,0.699,2C52.524,26.876,52.624,26.876,52.824,26.676z"/>
	<path fill="#0095DA" d="M56.624,47.376c0,0,0-0.101-0.1-0.2c-0.9,0.4-1.5,1-2.2,1.8c-0.6,0.8-1.2,1.601-1.7,2.3
		c-1.2,1.601-2.6,3.101-4,4.7c-1.5,1.601-2.5,3.3-3.2,5.2c0.2,0,0.301,0.1,0.4,0.2c1.2-1.101,2.3-2.3,3.3-3.601
		c2.8-3.3,5.4-6.699,7.601-10.199C56.725,47.476,56.725,47.376,56.624,47.376z"/>
	<path fill="#ED1651" d="M39.824,2.676c-0.2-0.3-0.3-0.5-0.7-0.5c-3-0.4-6-0.5-9.1-0.5c0.5,0,0.8,0.2,1.1,0.6c0,0.1,0,0.1,0.1,0.1
		c-0.2,0.8-0.7,1.2-1.6,1.3c-0.1,0-0.3,0-0.3,0.1c-0.1,0.1-0.1,0.1-0.1,0.2c-0.1,0-0.1,0.1-0.2,0.2c0,0,0,0-0.1,0.1
		s-0.1,0.3-0.1,0.5c0,0.4-0.1,0.7-0.3,0.9c-1.4,0-1.8-0.8-1.3-2.1c0.4-1.1,1.2-1.8,2.4-1.9c0,0,0,0,0.2,0c-0.5,0-1,0-1.5,0
		c-0.4,0-0.7,0.2-1.1,0.5c-0.5,0.3-0.8,0.8-0.9,1.2c0,0-0.1,0-0.2,0.1c0,0.2,0,0.4,0,0.5c0,0.3,0,0.5,0,0.9c0.2,0.1,0.3,0.2,0.5,0.3
		c-0.1,0-0.1,0-0.1,0c0.1,0.2,0.3,0.5,0.5,0.7c4.1,3,8,2.7,11.9-1l0.3-0.4C39.924,4.176,40.024,3.476,39.824,2.676z"/>
	<path fill="#F3859B" d="M29.824,1.676c-0.2,0-0.2,0-0.2,0c-1.2,0.1-2,0.8-2.4,1.9c-0.5,1.3-0.1,2.1,1.3,2.1
		c0.2-0.2,0.3-0.5,0.3-0.9c0-0.2,0-0.4,0.1-0.5s0.1-0.1,0.1-0.1c0.1-0.1,0.1-0.2,0.2-0.2c0-0.1,0-0.1,0.1-0.2c0-0.1,0.2-0.1,0.3-0.1
		c0.9-0.1,1.4-0.5,1.6-1.3c-0.1,0-0.1,0-0.1-0.1c-0.3-0.4-0.6-0.6-1.1-0.6h-0.1C29.824,1.676,29.824,1.676,29.824,1.676z"/>
	<path fill="#FFCB05" d="M33.624,9.176L33.624,9.176h-5.8c-0.3,0.4-0.8,0.7-1.2,1c-0.5,0.7-1,1.2-1.3,1.9c-0.3,0.1-0.4,0.3-0.5,0.6
		c-0.2,0.4-0.4,0.7-0.6,1.1c-1.6,2.6-2.7,5.3-3.2,8.3c-0.8,4.1-1,8.3-0.9,12.6c0,4,0.5,7.8,1.4,11.5c0,0.5,0,1,0,1.5
		c0.2,1.6,0.6,3.1,1.2,4.5c1.6,3.8,3,7.7,4.4,11.6c0.2,0.301,0.4,0.5,0.6,0.601h0.1c0.3-0.101,0.7-0.2,1.2-0.3
		c1.4-0.4,2.9-0.801,4.4-1l0.6-0.301c0-0.1,0-0.199,0-0.199c0.1-0.4,0.3-0.7,0.3-1.2c0.5-4.3,0.9-8.7,1.2-13c0.3-4.3,0.3-8.7,0-13
		c-0.2-3.2-0.5-6.5-0.7-9.7c-0.3-4.4-0.5-8.7-0.5-13.2c0-0.3,0-0.6-0.2-1c-0.1-0.2-0.2-0.3-0.3-0.5
		C33.824,10.376,33.824,9.776,33.624,9.176z M28.624,10.676c1,0.7,1,1.6-0.2,2.7c-0.1,0-0.1,0.2-0.3,0.3c-1.1,1.8-2.1,3.7-2.8,5.5
		c-0.8,2.8-1.5,5.6-2.3,8.4c-0.2,0.8-0.5,0.8-1.1,0.3c-0.3-0.4-0.5-0.8-0.6-1.4c0-1,0.2-1.9,0.3-3c0.9-4.3,2.6-8.3,5.3-11.8
		C27.324,11.176,28.024,10.776,28.624,10.676z M21.724,31.576c0-0.1,0-0.2,0-0.2c0.1,0,0.2-0.2,0.3-0.2c0-0.1,0.1-0.2,0.1-0.2
		c0.1,0,0.2,0,0.3,0l0,0c0.1,0,0.2,0,0.3,0c0.1,0.2,0.1,0.3,0.1,0.4v0.1c0,0.2-0.2,0.4-0.3,0.5c0,0.1,0,0.1-0.1,0.2
		c-0.1,0-0.2,0-0.3,0c-0.1-0.1-0.3-0.2-0.4-0.2C21.724,31.776,21.724,31.676,21.724,31.576z M34.024,43.976c0.3,1.5,0.5,3.1,0.4,4.8
		c-0.1,3.5-0.4,6.9-1.1,10.301c0,0.1,0,0.1,0,0.1c-0.1,0.1-0.2,0.1-0.2,0.2c0.1,1.2-0.1,2.3-0.5,3.3v0.1c-0.2,0.101-0.3,0.2-0.5,0.2
		c-0.1,0.101-0.1,0.101-0.2,0.101c-0.1-0.101-0.3-0.301-0.5-0.4c0.2-1.1,0.4-2.5,0.6-3.7c0-0.1,0.1-0.2,0.2-0.2
		c0.8-4.199,1.2-8.5,1.2-12.7c0-0.7,0.1-1.3,0.2-1.9c0,0,0.2-0.1,0.3-0.2H34.024z"/>
	<path fill="#FFF200" d="M28.424,13.376c1.2-1.1,1.2-2,0.2-2.7c-0.6,0.1-1.3,0.5-1.7,1c-2.7,3.5-4.4,7.5-5.3,11.8
		c-0.1,1.1-0.3,2-0.3,3c0.1,0.6,0.3,1,0.6,1.4c0.6,0.5,0.9,0.5,1.1-0.3c0.8-2.8,1.5-5.6,2.3-8.4c0.7-1.8,1.7-3.7,2.8-5.5
		C28.324,13.576,28.324,13.376,28.424,13.376z"/>
	<path fill="#FFF200" d="M21.724,31.376c0,0,0,0.1,0,0.2s0,0.2,0,0.4c0.1,0,0.3,0.1,0.4,0.2c0.1,0,0.2,0,0.3,0
		c0.1-0.1,0.1-0.1,0.1-0.2c0.1-0.1,0.3-0.3,0.3-0.5v-0.1c0-0.1,0-0.2-0.1-0.4c-0.1,0-0.2,0-0.3,0l0,0c-0.1,0-0.2,0-0.3,0
		c0,0-0.1,0.1-0.1,0.2C21.924,31.176,21.824,31.376,21.724,31.376z"/>
	<path fill="#FFF200" d="M34.424,48.776c0.1-1.7-0.1-3.3-0.4-4.8h-0.1c-0.1,0.1-0.3,0.2-0.3,0.2c-0.1,0.6-0.2,1.2-0.2,1.9
		c0,4.2-0.4,8.5-1.2,12.7c-0.1,0-0.2,0.101-0.2,0.2c-0.2,1.2-0.4,2.601-0.6,3.7c0.2,0.1,0.4,0.3,0.5,0.4c0.1,0,0.1,0,0.2-0.101
		c0.2,0,0.3-0.1,0.5-0.2v-0.1c0.4-1,0.6-2.1,0.5-3.3c0-0.101,0.1-0.101,0.2-0.2c0,0,0,0,0-0.1
		C34.024,55.676,34.324,52.276,34.424,48.776z"/>
	<path fill="#EC008C" d="M25.624,8.476c0.2-0.3,0.4-0.6,0.7-0.9l-1.5-1.7c-0.3-0.8-0.9-1.4-1.9-1.6c-0.1,0.1-0.3,0.1-0.4,0.2
		c0-0.1-0.2-0.1-0.2-0.1c-1.7,0.5-3.3,1-4.8,1.8c-4.9,2.5-8.6,6.2-11,11.1c-1.9,3.7-3,7.7-3.5,11.9c0,0.5-0.1,0.9-0.2,1.5
		c-0.1,0.7-0.2,1.3-0.1,2c-0.1,0-0.1,0.2-0.1,0.2c0.1,3.4,0.9,6.6,2.4,9.8c2,4.4,4.8,8.3,8.2,11.6c3.8,3.9,7.4,7.9,10.8,12.101
		c0.6-0.4,1.2-0.8,1.8-1.2c0,0-0.1-0.1-0.2-0.1c0-0.4-0.1-0.7-0.3-0.9c0-0.2-0.2-0.3-0.2-0.4c-0.1-0.1-0.3-0.199-0.3-0.399
		s-0.2-0.4-0.2-0.601c0-0.199,0-0.399-0.1-0.6c0-0.1,0-0.3,0-0.5c-0.2-0.4-0.2-0.6-0.4-1l-0.3-0.2c-0.1-0.7-0.3-1.2-0.5-1.8
		c-0.5-1.5-1-3-1.6-4.5c-0.3-0.9-0.7-1.9-0.9-2.8c-0.7-2.101-1.3-4.2-1.8-6.4c-0.9-4.3-1.2-8.7-1-13.1c0.2-2.2,0.3-4.4,0.3-6.5
		c0.1-2.2,0.5-4.4,1.3-6.4c0.4-0.8,0.6-1.5,1-2.3c0-0.2,0.1-0.5,0.2-0.8c0.6-1.7,1.4-3.1,2.4-4.4c0.4-0.4,0.8-0.8,1.1-1.3
		c0.2-0.3,0.3-0.5,0.6-0.8C25.124,9.076,25.324,8.776,25.624,8.476z M22.924,6.776c-0.1,0.1-0.1,0.1-0.1,0.1c-4,1.5-7.4,3.9-10,7.2
		c-1.6,2-3,4.1-4,6.4c-0.2,0.9-0.6,1.8-1.2,2.5c-0.1,0.3-0.4,0.4-0.7,0.4c-0.1-0.1-0.3-0.2-0.5-0.2c-0.1-0.1-0.1-0.2-0.1-0.2
		c-0.1-2.4,0.5-4.6,1.8-6.7c1.5-2.4,3.3-4.6,5.4-6.4c2.3-2.1,5-3.5,8-4.4c0.6,0,1.1,0.2,1.5,0.6c0,0.1,0,0.1,0.1,0.2
		c-0.1,0.1-0.1,0.1-0.1,0.1C23.024,6.476,22.924,6.676,22.924,6.776z M4.924,26.476c-0.1-0.1-0.1-0.1-0.1-0.3
		c0.2-0.2,0.5-0.4,0.7-0.6c0-0.1,0.1-0.1,0.1-0.2c0,0,0.1,0,0.2,0h0.2c0.3,0,0.5,0.1,0.6,0.4c0.1,0.1,0.1,0.2,0.1,0.2
		c-0.4,1.1-0.9,1.4-1.8,0.7C4.924,26.676,4.924,26.576,4.924,26.476z M18.324,45.576c0.3,2,0.8,3.9,1.6,5.8
		c0.7,1.899,1.4,3.899,2.1,5.899c0.3,1.7,0.8,3.2,1.6,4.7c0,0.4,0.1,0.9,0.4,1.3c0,0.101,0,0.101,0,0.2c0,0.101,0,0.101,0,0.2
		c0.1,0.1,0.1,0.3,0,0.5c0,0-0.2,0.1-0.3,0.2c-0.2,0-0.4-0.2-0.6-0.4v-0.2c0-0.1,0-0.1,0-0.1c-0.1-0.1-0.2-0.3-0.3-0.4
		c0-0.199,0-0.6-0.1-0.899v-0.101c-0.1-0.1-0.2-0.1-0.3-0.3c0-0.1,0-0.2,0-0.3s0-0.1,0-0.2c-0.1-0.2-0.3-0.399-0.4-0.7v-0.1
		c0,0,0-0.1,0-0.2c-0.1-0.1-0.2-0.2-0.2-0.3c0-0.5,0-0.9-0.2-1.4v-0.1c-0.1-0.3-0.3-0.5-0.6-0.6c0-0.101,0-0.2,0-0.301v-0.1
		c0-0.1-0.1-0.3-0.2-0.4c-0.2-0.6-0.3-1.199-0.3-1.899c-1-2.7-1.9-5.3-2.5-8.2C17.924,46.476,18.024,45.976,18.324,45.576z"/>
	<path fill="#C7A0CB" d="M22.824,6.876c0,0,0,0,0.1-0.1c0-0.1,0.1-0.3,0.1-0.4c0,0,0,0,0.1-0.1c-0.1-0.1-0.1-0.1-0.1-0.2
		c-0.4-0.4-0.9-0.6-1.5-0.6c-3,0.9-5.7,2.3-8,4.4c-2.1,1.8-3.9,4-5.4,6.4c-1.3,2.1-1.9,4.3-1.8,6.7c0,0,0,0.1,0.1,0.2
		c0.2,0,0.4,0.1,0.5,0.2c0.3,0,0.6-0.1,0.7-0.4c0.6-0.7,1-1.6,1.2-2.5c1-2.3,2.4-4.4,4-6.4C15.424,10.776,18.824,8.376,22.824,6.876
		z"/>
	<path fill="#C7A0CB" d="M4.824,26.176c0,0.2,0,0.2,0.1,0.3c0,0.1,0,0.2,0,0.2c0.9,0.7,1.4,0.4,1.8-0.7c0,0,0-0.1-0.1-0.2
		c-0.1-0.3-0.3-0.4-0.6-0.4h-0.2c-0.1,0-0.2,0-0.2,0c0,0.1-0.1,0.1-0.1,0.2C5.324,25.776,5.024,25.976,4.824,26.176z"/>
	<path fill="#C7A0CB" d="M19.924,51.376c-0.8-1.9-1.3-3.8-1.6-5.8c-0.3,0.4-0.4,0.9-0.3,1.6c0.6,2.9,1.5,5.5,2.5,8.2
		c0,0.7,0.1,1.3,0.3,1.899c0.1,0.101,0.2,0.301,0.2,0.4v0.1c0,0.101,0,0.2,0,0.301c0.3,0.1,0.5,0.3,0.6,0.6v0.1
		c0.2,0.5,0.2,0.9,0.2,1.4c0,0.1,0.1,0.2,0.2,0.3c0,0.101,0,0.2,0,0.2v0.1c0.1,0.301,0.3,0.5,0.4,0.7c0,0.101,0,0.101,0,0.2
		s0,0.2,0,0.3c0.1,0.2,0.2,0.2,0.3,0.3v0.101c0.1,0.3,0.1,0.7,0.1,0.899c0.1,0.101,0.2,0.301,0.3,0.4c0,0,0,0,0,0.1v0.2
		c0.2,0.2,0.4,0.4,0.6,0.4c0.1-0.101,0.3-0.2,0.3-0.2c0.1-0.2,0.1-0.4,0-0.5c0-0.1,0-0.1,0-0.2c0-0.1,0-0.1,0-0.2
		c-0.3-0.399-0.4-0.899-0.4-1.3c-0.8-1.5-1.3-3-1.6-4.7C21.324,55.276,20.624,53.276,19.924,51.376z"/>
	<path fill="#009659" d="M36.124,9.176h-1.1l0,0l0.3,0.2c1.7,17.8,2.1,35.5,0.8,53.2c1.3-0.2,2.6-0.301,4-0.301c0.1,0,0.3,0,0.4,0
		c1.4-2.699,2.5-5.5,3.5-8.399c1.1-2.5,1.899-5.101,2.5-7.7c0.2-0.9,0.5-1.8,0.6-2.6c0.5-1.5,0.9-3,1-4.5v-0.1
		c0-1.3,0.101-2.4,0.3-3.7c1.801-11.2-1.399-20.3-9.5-27.3l-0.3,0.1c-0.1-0.1-0.3-0.2-0.5-0.2
		C37.224,7.976,36.624,8.476,36.124,9.176z M39.024,11.476c0,0.1,0,0.2,0,0.2c-0.3,3-0.1,6,0.3,9c0.3,1.7,0.4,3.3,0.4,5.1
		c0.1,1.6,0,3.3-0.1,5c-0.1,0.1-0.1,0.1-0.1,0.2c-0.1,0-0.1,0-0.1,0.1c-0.3,0.3-0.5,0.3-0.8,0.1c0-0.1-0.1-0.2-0.1-0.2
		c-0.6-3-0.9-6-1-9c0-0.9-0.1-1.8-0.4-2.8c-0.5-2.8-0.7-5.6-0.5-8.5c0.6-0.8,1.3-1.5,2.1-2
		C40.124,9.376,40.224,10.376,39.024,11.476z M39.024,34.676c0.1,0.1,0.2,0.2,0.4,0.3c0.1,0.1,0.1,0.1,0.1,0.2
		c0,0.9-0.5,1.1-1.3,0.6c0,0,0-0.1-0.1-0.1c0-0.1,0-0.3,0-0.3c0.1-0.2,0.2-0.2,0.3-0.3c0-0.1,0.1-0.2,0.2-0.3c0,0,0,0,0.1,0
		C38.824,34.676,38.924,34.676,39.024,34.676z M46.324,41.876c0.1,0.1,0.2,0.2,0.2,0.3c0,0,0,0.1,0.1,0.1c-0.1,0.2-0.2,0.4-0.1,0.6
		c0,0.1,0,0.1,0,0.2s-0.101,0.1-0.2,0.3c0,0,0,0-0.1,0.1c-0.601,3.8-1.601,7.5-2.9,11c-0.1,0.101-0.1,0.101-0.1,0.2
		c0,0-0.101,0.1-0.2,0.3c0,0.7-0.4,1.3-0.9,2c0,0.7-0.2,1.2-0.5,1.8c-0.5,0.801-0.9,1.5-1.4,2.301c-0.2,0.1-0.3,0.199-0.5,0.3
		c-0.1-0.101-0.2-0.101-0.3-0.2c-0.1-0.2-0.2-0.5-0.1-0.8v-0.101c0.7-1,1.2-2.1,1.7-3.199c0-0.4,0.2-0.9,0.6-1.301
		c0-0.1,0-0.1,0-0.199v-0.101c0-0.2,0.1-0.3,0.4-0.5c0-0.399,0.1-0.8,0.1-1.2v-0.1c1.4-3.4,2.5-6.8,3.3-10.3
		c0.2-0.2,0.301-0.6,0.301-0.8c0.3-0.3,0.399-0.4,0.5-0.6C46.225,41.876,46.225,41.876,46.324,41.876z"/>
	<path fill="#D7DF23" d="M39.024,11.676c0,0,0-0.1,0-0.2c1.2-1.1,1.1-2.1-0.3-2.8c-0.8,0.5-1.5,1.2-2.1,2c-0.2,2.9,0,5.7,0.5,8.5
		c0.3,1,0.4,1.9,0.4,2.8c0.1,3,0.4,6,1,9c0,0,0.1,0.1,0.1,0.2c0.3,0.2,0.5,0.2,0.8-0.1c0-0.1,0-0.1,0.1-0.1c0-0.1,0-0.1,0.1-0.2
		c0.1-1.7,0.2-3.4,0.1-5c0-1.8-0.1-3.4-0.4-5.1C38.924,17.676,38.724,14.676,39.024,11.676z"/>
	<path fill="#D7DF23" d="M39.424,34.976c-0.2-0.1-0.3-0.2-0.4-0.3c-0.1,0-0.2,0-0.3,0.1c-0.1,0-0.1,0-0.1,0
		c-0.1,0.1-0.2,0.2-0.2,0.3c-0.1,0.1-0.2,0.1-0.3,0.3c0,0,0,0.2,0,0.3c0.1,0,0.1,0.1,0.1,0.1c0.8,0.5,1.3,0.3,1.3-0.6
		C39.524,35.076,39.524,35.076,39.424,34.976z"/>
	<path fill="#D7DF23" d="M46.524,42.176c0-0.1-0.101-0.2-0.2-0.3c-0.1,0-0.1,0-0.1,0.1c-0.101,0.2-0.2,0.3-0.5,0.6
		c0,0.2-0.101,0.6-0.301,0.8c-0.8,3.5-1.899,6.899-3.3,10.3v0.1c0,0.4-0.1,0.801-0.1,1.2c-0.3,0.2-0.4,0.3-0.4,0.5v0.101
		c0,0.1,0,0.1,0,0.199c-0.4,0.4-0.6,0.9-0.6,1.301c-0.5,1.1-1,2.199-1.7,3.199v0.101c-0.1,0.3,0,0.6,0.1,0.8
		c0.1,0.1,0.2,0.1,0.3,0.2c0.2-0.101,0.3-0.2,0.5-0.3c0.5-0.801,0.9-1.5,1.4-2.301c0.3-0.6,0.5-1.1,0.5-1.8c0.5-0.7,0.9-1.3,0.9-2
		c0.1-0.2,0.2-0.3,0.2-0.3c0-0.1,0-0.1,0.1-0.2c1.3-3.5,2.3-7.2,2.9-11c0.1-0.1,0.1-0.1,0.1-0.1c0.1-0.2,0.2-0.2,0.2-0.3
		s0-0.1,0-0.2c-0.101-0.2,0-0.4,0.1-0.6C46.524,42.276,46.524,42.176,46.524,42.176z"/>
	<path fill="#ED1651" d="M24.324,68.976c0,0.101,0,0.101,0.2,0.3c0,0.5,0.1,1,0.3,1.301c0.2,0.199,0.2,0.399,0.4,0.5
		c6.2-1,12.5-1.601,19-1.7c0.199-1.3,0.399-2.4,0.899-3.601c0-0.1,0-0.1,0.101-0.199c-0.601-0.4-1.301-0.5-2.101-0.5
		c0-0.101-0.1-0.101-0.1-0.2c-0.2,0-0.4,0-0.7,0c-0.8-0.7-1.9-0.9-3.3-0.8c-0.6,0-1.3,0-1.9,0c-0.6,0.1-1.3,0.1-2,0.1
		c-2.7,0.1-5.1,0.7-7.4,2c-0.1,0-0.2,0-0.4,0.1l0,0c-0.3,0.2-0.5,0.301-0.7,0.101c0,0.1-0.1,0.1-0.1,0.1c-0.2,0.101-0.4,0.2-0.5,0.3
		c-0.8,0.101-1.5,0.5-2.2,1C24.024,68.176,24.124,68.577,24.324,68.976z M39.724,65.376c0.1,0.2,0.1,0.399,0,0.6
		c-0.1,0.101-0.1,0.2-0.2,0.2c0,0.1,0,0.1-0.1,0.1c0,0-0.2,0-0.3,0c-0.1,0-0.1,0-0.2-0.1c-0.2-0.1-0.3-0.4-0.3-0.6
		c0-0.2,0-0.301,0.1-0.4c0,0,0.2-0.1,0.3-0.1c0-0.101,0-0.101,0.1-0.101c0.3,0.101,0.4,0.2,0.5,0.3
		C39.724,65.276,39.724,65.276,39.724,65.376z M37.624,65.776c0,0,0,0.101,0,0.2c-0.4,0.101-0.7,0.101-1.1,0.2c0,0,0,0.1-0.1,0.1
		s-0.1,0-0.1,0.101c-3.3,0.7-6.5,1.399-9.7,2.399c-0.5,0.101-0.8,0-1-0.399c-0.2-0.101-0.3-0.3-0.2-0.601
		c2-1.399,4.3-2.199,6.9-2.699c0.7-0.101,1.3-0.2,2-0.2c0.8,0,1.5,0.2,2.2,0.5c0,0,0,0,0.1,0.1l0,0c0.4,0.101,0.6,0.2,1,0.2
		C37.624,65.676,37.624,65.676,37.624,65.776z"/>
	<path fill="#F3859B" d="M39.724,65.976c0.1-0.2,0.1-0.399,0-0.6c0-0.101,0-0.101-0.1-0.101c-0.1-0.1-0.2-0.199-0.5-0.3
		c-0.1,0-0.1,0-0.1,0.101c-0.1,0-0.3,0.1-0.3,0.1c-0.1,0.1-0.1,0.2-0.1,0.4c0,0.199,0.1,0.5,0.3,0.6c0.1,0.1,0.1,0.1,0.2,0.1
		c0.1,0,0.3,0,0.3,0c0.1,0,0.1,0,0.1-0.1C39.624,66.176,39.624,66.077,39.724,65.976z"/>
	<path fill="#F3859B" d="M37.624,65.976c0-0.1,0-0.2,0-0.2c0-0.1,0-0.1,0-0.1c-0.4,0-0.6-0.1-1-0.2l0,0c-0.1-0.1-0.1-0.1-0.1-0.1
		c-0.7-0.3-1.4-0.5-2.2-0.5c-0.7,0-1.3,0.1-2,0.2c-2.6,0.5-4.9,1.3-6.9,2.699c-0.1,0.301,0,0.5,0.2,0.601c0.2,0.399,0.5,0.5,1,0.399
		c3.2-1,6.4-1.699,9.7-2.399c0-0.101,0-0.101,0.1-0.101s0.1-0.1,0.1-0.1C36.924,66.077,37.224,66.077,37.624,65.976z"/>
	<path d="M33.224,77.976c0.1,0.101,0.1,0.101,0.1,0.101v-0.101c0-0.1,0-0.1-0.1-0.1C33.224,77.976,33.224,77.976,33.224,77.976z"/>
	<path fill="#FFCB05" d="M28.624,83.077c0.2,0.3,0.2,0.6,0.4,0.899c0,0.101,0,0.2,0,0.3c4.3-0.6,8.5-1,12.7-1.199
		c0.1-0.301,0.2-0.601,0.3-0.801c0,0,0-0.1-0.1-0.199l0,0C37.524,82.276,33.024,82.476,28.624,83.077z"/>
	<path fill="#FAA61A" d="M29.724,85.776c-0.1,0-0.2,0-0.4,0c0,0.601,0.1,1.2,0.2,1.801c0.1,1.399,0.3,2.8,0.5,4.1c0.1,0,0.3,0,0.5,0
		c1.8,0.3,3.8,0.3,5.8,0c0.4,0,0.9,0,1.3-0.1c0.1-0.101,0.3-0.101,0.4-0.101c0.2,0,0.5-0.1,0.7-0.1c0,0,0,0,0,0.1
		c0.5-0.1,1.1-0.2,1.7-0.3c0.2,0,0.5,0.1,0.7,0.1c0.1-0.399,0.2-0.899,0.4-1.3c0-0.1,0-0.2,0-0.399c0,0,0-0.101,0.1-0.101
		c0-0.1,0-0.1,0-0.1c0-0.3,0-0.4,0-0.601c0-0.1,0-0.199,0-0.3c0.1-0.1,0.1-0.1,0.1-0.1c0-0.101,0-0.101,0.1-0.2
		c0.1-1.2,0.2-2.4,0.3-3.7c-0.3,0.101-0.5,0.101-0.9,0.101c-0.2,0-0.2,0-0.4,0.1c-0.2,0-0.5,0-0.8,0.1c-0.5-0.199-1-0.199-1.6,0
		c-0.2,0-0.3,0-0.3,0.101c-0.1,0-0.2,0-0.3,0s-0.1,0-0.1,0h-0.1h-0.1h-0.1c-2.3-0.2-4.6,0-6.7,0.6c-0.2,0-0.4,0.101-0.5,0.2
		c-0.1,0-0.2,0-0.2,0.1C29.924,85.776,29.824,85.776,29.724,85.776z M41.024,85.376L41.024,85.376c0.2,0.399,0.4,0.899,0.3,1.3
		c-0.1,0.1-0.1,0.1,0,0.2c-0.2,0.7-0.2,1.5-0.2,2.3c0,0.1,0,0.1,0,0.2c-0.1,0.2-0.3,0.399-0.6,0.5c-0.1-0.101-0.2-0.3-0.4-0.3
		c0.2-0.7,0.3-1.601,0.3-2.301c0-0.1,0-0.199,0-0.199C40.624,86.376,40.724,85.976,41.024,85.376z M32.324,89.776v0.101
		c0,0.1,0,0.1,0,0.2c-0.1,0.1-0.1,0.199-0.2,0.3c-1.1,0.5-1.8,0-2-1.3c-0.1-0.601-0.1-1.2-0.3-1.801c0-0.899,0.2-1.3,1-1.399
		C31.824,86.776,32.324,88.077,32.324,89.776z"/>
	<path fill="#FFCB05" d="M41.024,85.376L41.024,85.376c-0.3,0.6-0.4,1-0.6,1.7c0,0,0,0.1,0,0.199c0,0.7-0.1,1.601-0.3,2.301
		c0.2,0,0.3,0.199,0.4,0.3c0.3-0.101,0.5-0.3,0.6-0.5c0-0.101,0-0.101,0-0.2c0-0.8,0-1.6,0.2-2.3c-0.1-0.101-0.1-0.101,0-0.2
		C41.424,86.276,41.224,85.776,41.024,85.376z"/>
	<path fill="#FFCB05" d="M32.324,89.876v-0.101c0-1.699-0.5-3-1.5-3.899c-0.8,0.1-1,0.5-1,1.399c0.2,0.601,0.2,1.2,0.3,1.801
		c0.2,1.3,0.9,1.8,2,1.3c0.1-0.101,0.1-0.2,0.2-0.3C32.324,89.976,32.324,89.976,32.324,89.876z"/>
</g>
</svg>
