<?xml version="1.0" encoding="utf-8"?>
<!-- Generator: Adobe Illustrator 13.0.0, SVG Export Plug-In . SVG Version: 6.00 Build 14948)  -->
<svg version="1.2" baseProfile="tiny" id="Layer_1" xmlns="http://www.w3.org/2000/svg" xmlns:xlink="http://www.w3.org/1999/xlink"
	 x="0px" y="0px" width="103.341px" height="80.042px" viewBox="0 0 103.341 80.042" xml:space="preserve">
<g>
	<path d="M66.242,0c-0.101,0.1-0.101,0.1-0.101,0.1c-0.199,0.1-0.3,0.2-0.5,0.3c-0.3,0.2-0.699,0.5-1,0.8
		c-2.199,1.9-4.199,3.8-6.1,5.9c-0.1,0.1-0.3,0.2-0.4,0.3c-0.1,0.1-0.199,0.2-0.1,0.3c0.1,0.2,0.1,0.2,0.2,0.4
		c0.2,0.1,0.399,0.1,0.6,0.3l0,0c-0.1,0.2-0.2,0.5-0.3,0.8c0.6,0.3,1.1,0.7,1.5,1.3c0.1,0,0.1,0,0.2,0c0,0.1,0,0.1,0,0.2
		c-0.101,0-0.101,0,0,0c-0.101,0.2-0.101,0.3-0.101,0.5c0,1.5-0.199,3.1-0.6,4.7c-0.5,2-1.1,3.9-1.6,5.9c0,0,0,0,0,0.1l0,0h-0.101
		c0,0,0,0-0.1,0c-0.101-0.4-0.2-0.7-0.5-1.1c-0.3-0.6-0.7-1-1.101-1.4c-0.3-0.5-0.699-0.8-1.1-0.8c-0.1-0.1-0.3-0.2-0.5-0.2
		c-0.7-0.2-1.6-0.3-2.3-0.5c-2-1.1-4.1-1.5-6.7-1.3c-0.4,0-0.9,0.1-1.3,0.4c-4.3,1.9-7.1,4.9-8.5,9.3c-1.1,3.5-1.3,6.9-0.3,10.5
		c0.2,0.1,0.2,0.3,0.3,0.5c0.2,0.2,0.3,0.5,0.4,0.6c-0.1,0.1-0.2,0.3-0.4,0.5c-0.7,0.6-1.4,1.3-2.1,2c-2.3,2.1-4.5,4.4-6.7,6.6
		c-1.5-1.399-3.4-1.899-5.8-1.699c0-0.101,0-0.101,0-0.101c0-0.1,0-0.1,0-0.1c-1.6,0.1-3.2,0.3-4.6,0.8c-0.4,0.2-0.9,0.4-1.3,0.4
		c-1.1,0.6-2,1.5-2.9,2.5c-1.2,1.399-2,3.1-2.4,5c-0.5,2-0.5,4.1,0,6.199c0.2,0.801,0.4,1.601,0.9,2.4c0,0.3,0.1,0.6,0.3,0.9
		c0.1,0.3,0.3,0.699,0.5,1c0.2,0.5,0.4,0.699,0.6,1c0,0.1-0.1,0.3-0.2,0.5c-0.3-0.101-0.6-0.2-0.8-0.2c-1.1-0.9-2.3-1.601-3.6-2.101
		c-0.1-0.199-0.2-0.3-0.3-0.3c0-0.1,0-0.2,0-0.2c0-0.199,0-0.5,0-0.6s0-0.3,0-0.4c0-0.1,0-0.199,0-0.199s0,0,0-0.101
		c0.1-1.5-0.7-2.1-2.4-1.7c0,0-0.1,0-0.2,0c-0.4,0.2-0.6,0.301-0.9,0.601c-0.6,0.399-1,0.899-1.3,1.5c-0.4,0.2-0.7,0.5-0.9,0.899
		c-0.4,0.5-0.8,1-1.2,1.5c-0.2,0.5-0.2,1-0.3,1.601c-0.1,0.7-0.2,1.3-0.1,1.899c0.2,0.4,0.4,0.601,0.7,0.801
		c0,0.3,0.1,0.399,0.2,0.699c0.1,0.101,0.1,0.101,0.2,0.101c0.2,0.2,0.6,0.2,0.9,0.1c0.1,0,0.1,0,0.1,0c0.1,0.101,0.1,0.101,0.1,0.2
		c0.1,0.2,0.2,0.3,0.4,0.5c0.2,0.1,0.4,0.2,0.6,0.3c0.6,0.601,1.5,1.101,2.5,1.4c0.2,0.2,0.5,0.399,0.7,0.5
		c0.4,0.1,0.8,0.399,1.3,0.6c0.1,0,0.3,0.101,0.5,0.2c0.9,0.4,1.8,0.9,2.7,1.4c0.3,0.3,0.5,0.399,0.9,0.699c0.3,0.2,0.5,0.5,0.9,0.7
		c0.1,0.101,0.4,0.2,0.7,0.2c1,0.2,2.2,0.1,3.3-0.1c0.4,0,0.9,0,1.4-0.101c1.3,0.3,2.8,0.7,4.1,1c2.2,0.7,4.6,1.101,6.9,1.2
		c1,0.1,2,0.3,2.8,0.7c0.7,0.2,1.2,0.3,1.7,0.3l0,0c0,0.1,0,0.2,0,0.2c0.2,0,0.3,0,0.3,0c0.3,0,0.7,0,1,0v0.1c0,0.101,0,0.2,0,0.2
		c0.2,0.1,0.4,0.2,0.6,0.1c1.1-0.3,2.2-0.8,3.2-1.399c0.7-0.4,1.4-1,2-1.5c0.6-0.5,1.2-0.9,1.7-1.5c0.2,0,0.2-0.2,0.2-0.4
		c0.3-1,0.3-2,0.3-3.1c0.2,0.2,0.5,0.399,0.7,0.6c0.8,0.3,1.5,0.5,2.1,0.9c0.5,0.2,1.1,0.399,1.7,0.5c1.1,0.1,2.2,0.399,3.2,0.6
		c0.2,0,0.3,0,0.5,0c0.8-0.2,1.8-0.5,2.6-0.7c3.399-1.1,5.899-3.199,7.399-6.3c1.7-3.2,2.101-6.6,1.5-10
		c-0.199-0.2-0.199-0.5-0.199-0.899c0-0.101,0.199-0.2,0.199-0.301c0.2-0.1,0.4-0.199,0.601-0.199c0.899-0.7,1.7-1.301,2.7-2
		c3.1-1.9,6.199-3.7,9.5-5.301c0,0,0,0,0.1,0.101c0.3-0.2,0.6-0.5,0.8-0.7c0.101,0.2,0.3,0.4,0.4,0.6c0.7,0.4,1.399,0.9,1.899,1.4
		c0.301,0.4,0.7,0.6,1,0.8c3.2,1.4,6.5,2.3,9.9,2.8c0.6,0,1.1,0,1.7,0.2c5-1.6,8.399-4.899,10.2-9.899c1-2.7,1.5-5.4,1.699-8.2
		c0.301-3.6-0.5-6.3-2.5-8.3l0,0c-0.1,0-0.1,0-0.1-0.1c-0.4-0.3-0.7-0.7-1.2-0.8c-2-0.8-4.1-1.4-6.2-1.6
		c0.101-0.4,0.2-0.8,0.301-1.1c0-0.8,0.1-1.7,0.199-2.5c0.101-1.8,0.301-3.5,0.5-5.2c0.101-0.3,0.101-0.4,0.101-0.6
		c0.2,0,0.399,0,0.5,0c0,0,0,0,0.1,0c0.4-0.5,1.101-0.9,2.2-1c0.1,0,0.2,0,0.4-0.1c0.199-0.4,0.399-0.7,0.699-1.1
		c0.101-0.1,0.301-0.3,0.5-0.5c0.101,0,0.101-0.1,0.2-0.3c0,0,0-0.1,0-0.2c1.5-1.1,2.601-2.6,3.4-4.3c0-0.2,0.1-0.2,0.2-0.2
		c0.199-0.3,0.199-0.5,0.199-0.8c0.101,0,0.2,0,0.2-0.1c0.2-0.2,0.3-0.4,0.5-0.7c0,0,0-0.1,0-0.2c-0.2-0.3-0.399-0.5-0.8-0.4
		c-1,0.4-2,0.7-2.9,1c-0.399-0.1-0.8-0.2-1.3-0.1c-0.7,0.1-1.399,0.2-2.1,0.2c-0.101,0-0.101,0-0.2,0s-0.1,0-0.1,0.1
		c-1.301,0-2.7-0.1-4-0.5c-4.5-1-9-1.8-13.5-2.5c-0.801,0-1.4-0.3-2-0.5c-0.301-0.1-0.5-0.2-0.601-0.3c-0.6,0-1.1,0-1.7-0.2
		c-0.699-0.3-1.3-0.6-2-0.7c-0.5-0.1-0.899-0.3-1.3-0.4c-0.3-0.1-0.6-0.1-0.7-0.1c-0.1-0.1-0.1-0.2-0.199-0.3
		C68.641,1.2,67.442,0.6,66.242,0z M66.942,2.2c-0.301,0.1-0.4,0.2-0.5,0.4c1.199,0.3,2.399,0.7,3.6,1.1V3.6c0,0,0-0.1,0-0.2
		c0,0,0,0-0.1,0c-0.101-0.1-0.2-0.2-0.301-0.2c0-0.1,0-0.1,0-0.1c0.2,0,0.301,0,0.5,0.1c0,0,0,0,0,0.1
		c0.101,0.1,0.101,0.1,0.101,0.1c0,0.2,0,0.3,0,0.4s0,0.1,0,0.1c1.1,0.4,2.2,0.7,3.3,1c1.9,0.5,3.9,0.9,5.9,1.3
		c0.699,0.2,1.5,0.4,2.3,0.5c0.7,0.2,1.5,0.4,2.3,0.5c3.4,0.7,6.8,1,10.1,1.3c0.101,0,0.301,0,0.301,0c0.199-0.1,0.3-0.1,0.399-0.1
		c0.4,0,0.8-0.2,1.2-0.2c0.4,0.2,0.8,0.4,1.2,0.4c0.399,0,0.8,0,1.2,0c0.199-0.1,0.399-0.2,0.5-0.2c0.3-0.2,0.699-0.4,1.1-0.5
		c0.1,0,0.1,0,0.2,0.1c0.1,0.1,0.2,0.1,0.2,0.2c0,0.1,0,0.2,0.1,0.3s0.1,0.1,0.1,0.2c-1.6,1.5-3,2.9-4.5,4.6c0,0.1,0,0.1,0,0.1
		c-1.1,0.6-2.199,0.8-3.199,0.6c-0.101-0.1-0.101-0.1-0.101-0.2c-0.5-0.1-0.899-0.1-1.399-0.2c-0.101,0-0.301,0-0.5,0
		c-2.7-0.4-5.301-1-7.801-1.7c-1.3-0.3-2.6-0.7-4-0.8c-2.199-0.4-4.5-0.7-6.699-1c-1.5-0.3-3-0.5-4.4-0.8c-0.8-0.1-1.6-0.3-2.4-0.4
		c-0.8,0-1.5-0.2-2.199-0.3c-1.2,0-2.301,0-3.4-0.1c0.1-0.1,0.1-0.3,0.2-0.4c0,0,0-0.1-0.101-0.2l0,0c1.301-1.1,2.4-2.2,3.5-3.3
		c1-1,2.101-1.8,3.2-2.6C66.841,2.1,66.841,2.2,66.942,2.2z M11.941,52.9c0.8-1.6,1.8-3,3-4.3c0.9-0.9,1.9-1.4,3.2-1.7
		c0.5-0.1,1-0.3,1.5-0.4c0,0,0,0,0.2,0.101c0.1-0.101,0.1-0.101,0.3-0.2c0.5,0.1,0.9,0.1,1.3,0.1c1,0.101,1.8,0.301,2.5,0.801
		c-0.1,0-0.3,0.1-0.3,0.1c0.1,0,0.3-0.1,0.5,0c0.7,0,1.2,0.3,1.6,0.9c-0.3,0.3-0.7,0.6-1,1c-1.8,2-3.6,3.899-5.2,5.899
		c-0.1,0.101-0.2,0.101-0.3,0.3l0,0c-0.3,0.301-0.6,0.801-0.9,1.101c-0.1,0-0.1,0.2-0.2,0.2c-0.5,0.699-1,1.199-1.5,1.899
		c-0.1,0-0.2,0-0.3,0l0,0c-0.3,0.3-0.5,0.7-0.8,1.101c-0.3,0.399-0.4,0.699-0.6,1c-0.1,0.199-0.1,0.199-0.1,0.399
		c-0.1,0.101-0.2,0.3-0.3,0.4c-0.1-0.101-0.1-0.101-0.1-0.3l-0.1,0.1c-0.1,0.4-0.2,0.6-0.4,1c0,0.1,0,0.1,0,0.1V62.6
		c-0.1,0.3-0.3,0.399-0.6,0.6c-0.2-0.1-0.4-0.2-0.4-0.399c0-0.301-0.1-0.5-0.2-0.601c0-0.2-0.1-0.399-0.1-0.5
		c-0.2-0.2-0.3-0.399-0.3-0.5c-0.4-0.7-0.6-1.3-0.7-2v-0.1C11.242,57,11.341,55,11.941,52.9z M24.742,51.9c0.1-0.1,0.2-0.1,0.4-0.1
		c0-0.101,0-0.101,0.1-0.2c-0.1,0.1-0.1,0.1-0.1,0.2v0.1l0.1,0.1c1.3,0.4,2.6,0.7,3.8,1.101c0.4,0.399,0.9,0.8,1.5,1.1
		c1.1,0.4,1.6,1.101,1.4,2.3c-0.2,0.301-0.5,0.601-0.7,0.9c-0.1,0.1-0.2,0.3-0.3,0.4c-0.1,0.1-0.2,0.199-0.3,0.199
		c-0.1,0.101-0.2,0.2-0.3,0.2c-0.1,0.101-0.1,0.101-0.1,0.2c-0.1,0.1-0.1,0.1-0.3,0.1c-2.1,1.7-4.7,2.7-7.4,3.2
		c-0.6,0.101-1.3,0.3-1.9,0.5c-1.5,0.4-2.7,0.101-3.7-0.899c0-0.2,0-0.301,0-0.4c1.3-1.8,2.8-3.5,4.3-5.1
		c0.7-0.801,1.4-1.5,2.1-2.301c0.1-0.199,0.3-0.399,0.6-0.6C24.142,52.5,24.441,52.2,24.742,51.9z M25.742,51.4c-0.1,0-0.1,0-0.2,0
		c1.4-1.2,2.8-2.6,4.1-4.2c0.2-0.3,0.3-0.5,0.6-0.7c0.7-0.699,1.5-1.399,2.2-2.1c1.7-1.5,3.4-3,4.9-4.7c0.8-0.5,1.6-1.2,2.3-1.7
		c0-0.1,0.2-0.1,0.2-0.1c0.3-0.3,0.6-0.5,0.9-0.6c0.7-0.7,1.5-1.3,2.4-1.9c0,0,0.1-0.1,0.2-0.1c1.2-1.2,2.5-2.2,3.8-3.1
		c0.5-0.3,0.9-0.6,1.3-0.8c2.6-2,5.2-4,7.9-5.8c0.5-0.3,0.9-0.7,1.3-0.9c0.301-0.3,0.5-0.4,0.601-0.7h0.2
		c0.1-0.1,0.199-0.1,0.199-0.2c1.5-1.4,3-2.7,4.801-3.7c1.699-0.2,3.5-0.2,5.3,0c-1.601,0.3-3,0.9-4.3,1.8c-0.9,0.5-1.5,1-2,1.8
		c-0.601,0.7-1.101,1.6-1.5,2.3c-0.5,0.3-0.9,0.4-1.301,0.7c-0.399,0.3-0.8,0.7-1.199,0.9c-3,1.9-5.801,4-8.601,6.3
		c-0.6,0.5-1.1,0.9-1.7,1.2c-0.7,0.4-1.4,0.9-2,1.5c-0.2,0.3-0.5,0.6-0.6,0.9l0,0c-0.1,0.1-0.2,0.2-0.3,0.3c-0.6,1.1-0.8,2.5-0.4,4
		c0.1,0.6,0.6,1.1,1.3,1.1c2.5,0.2,5-0.1,7.4-1c3.1-1.2,6.1-2.5,8.9-4.1c1.8-1,3.699-2.1,5.399-3.4c2-1.5,4.2-2.9,6.4-4.1
		c2.1-1.2,3.899-2.5,5.6-4.1c0-0.3-0.1-0.5-0.2-0.6c-0.199-0.1-0.399-0.2-0.5-0.2c-0.199,0-0.5,0-0.8-0.1c-0.6-0.1-1.2-0.3-1.7-0.4
		c0-0.3-0.199-0.5-0.199-0.7c-0.2-0.7-0.5-1.2-0.9-1.7s-0.9-0.9-1.4-1.2c2.801,0.6,5.601,1.1,8.5,1.3c0.2,0.2,0.4,0.3,0.601,0.3
		c1,0.4,1.899,0.9,2.7,1.6c0,0.1,0,0.2,0,0.3c-0.301,0.5-0.5,1-0.801,1.4c-1.199,0.4-2.3,1.2-3.399,2.2c-0.3,0.2-0.7,0.5-1.101,0.9
		c-1.5,1.3-2.5,3.1-3,5.1c0,0.4-0.199,0.9-0.399,1.3c-0.8,2.5-1.4,4.9-1.8,7.601c-0.2,1-0.2,2.1,0.1,3c-0.1,0.1-0.1,0.1-0.2,0.1
		c-0.1,0-0.1-0.1-0.1-0.1c-0.101-0.101-0.2-0.101-0.3-0.101c0,0-0.101,0-0.2,0c-0.601,0.2-1,0.601-1.5,0.9c-4,2.399-8,4.8-12,7.2
		c-1.101-1.7-2.7-2.5-5-2.601c-1.4-0.8-3.101-1.1-4.8-0.8c-2.6,0.4-4.9,1.5-7,3.1c-2.5,2-4,4.601-4.5,7.801
		c-0.1,0.399-0.1,0.699-0.2,1.199c-0.1,0-0.1,0-0.2,0c0.1,1-0.5,1.9-1.6,2.5c-3,1.801-6,3.2-9.1,4.601c-1,0.399-2,0.7-3.1,1
		c-0.5,0.2-1,0.5-1.5,0.899c-1.4,0.801-3,1.5-4.6,1.9c-0.3,0.1-0.6,0.1-0.9,0.1c-0.2,0.2-0.4,0.2-0.6,0.4l0,0c0,0.1-0.2,0.1-0.2,0.1
		c-0.3,0-0.5,0.101-0.7,0.2c-0.2,0-0.5,0.101-0.8,0.3c-1.1,0-2.2-0.199-3.2-0.5c-0.2-0.199-0.4-0.3-0.4-0.3
		c-0.6-0.7-0.8-1.5-0.9-2.3c0-0.1,0-0.2,0.1-0.3c-0.1-0.2-0.1-0.5,0.1-0.9c0.6-2.2,1.5-4.399,2.7-6.2c0.3-0.899,0.7-1.6,1.3-2.3
		c0.7,1.101,1.8,1.601,3.1,1.601c4.3-0.101,7.9-1.5,10.9-4c0.3-0.101,0.5-0.2,0.7-0.2c0.4-0.4,0.9-0.8,1.3-1.2
		c0.5-0.6,1-1.2,1.3-1.9c0.2-0.699,0-1.199-0.4-1.699c-1.7-2-3.9-3.2-6.6-3.5C26.142,51.4,25.941,51.4,25.742,51.4z M32.441,70.7
		c0.7-0.399,1.4-0.7,2-1c1.9-0.7,3.7-1.7,5.4-2.6c0.1,1.1,0.3,2.1,1,2.899c-0.1,0-0.2,0-0.2,0.101c-1.5,0.1-2.7,0.5-3.7,1.399
		c-0.1,0.101-0.3,0.101-0.5,0.2c-2,0.2-3.8,0.101-5.8-0.1C31.242,71.3,31.941,71.1,32.441,70.7z M34.142,73.4
		c0.3,0.2,0.8,0.3,1.1,0.3c-0.1,0.101-0.1,0.2-0.1,0.3c0,1.2-0.2,2.301-0.3,3.4c-0.1,0-0.1,0-0.2,0.1l0,0
		c-4.2-0.899-8.3-1.699-12.5-2.399c2-0.8,4-1.601,5.9-2.5c0.1,0,0.2,0.1,0.4,0.2c1.2,0.399,2.3,0.5,3.5,0.5l0,0
		c0.7,0.1,1.5,0.199,2.1,0.1H34.142z M36.441,77.5c0,0,0,0-0.1,0.101c0-0.601,0-1.101,0.1-1.601c0-1.5,0.5-2.699,1.6-3.5
		c0.1-0.1,0.1-0.1,0.2-0.199c0.8-0.4,1.7-0.601,2.5-0.601c0.1,0,0.1,0,0.1,0c0.1,0,0.3,0,0.5,0l0,0c0,0.101,0,0.2,0,0.4
		c-0.1,0.399-0.1,0.7,0.1,1.1c-0.2,0.7-0.5,1.4-0.9,2c-0.5,0.3-1,0.8-1.4,1.2c-0.6,0.5-1.2,0.9-1.7,1.1
		C37.142,77.4,36.841,77.4,36.441,77.5z M13.242,63.8L13.242,63.8L13.242,63.8L13.242,63.8z M11.242,67.2c0,0.101-0.1,0.3-0.2,0.601
		c-0.3,0.699-0.6,1.399-0.8,2c-0.1,0.5-0.2,1-0.3,1.6c0,0.2,0,0.4,0,0.7c-2.1-1.5-4.5-2.7-6.8-3.601c0.7-1.5,1.7-2.699,2.8-3.699
		c0.2,0,0.3,0,0.3,0c0.1,0,0.1-0.2,0.2-0.301c0,0,0,0,0.1,0C8.042,65.6,9.642,66.5,11.242,67.2z M5.841,62.2
		c0,0.101,0,0.101,0,0.101c0.1,0.1,0.1,0.199,0.2,0.199s0.1,0.101,0.1,0.101c0,0.1,0,0.2,0,0.2c0,0.199,0,0.399,0.1,0.5
		c-0.1,0-0.3,0-0.4,0c0,0,0,0-0.1,0c-0.2,0.3-0.4,0.5-0.6,0.699c-0.3,0.2-0.7,0.4-0.9,0.801c-0.7,1-1.4,1.8-2,2.699
		c0,0,0-0.1,0-0.199c-0.1,0-0.2,0-0.4,0l0,0c-0.1,0-0.1-0.101-0.1-0.2c-0.3-1.101,0.1-2.101,0.9-2.9c1-1.2,2.1-2,3.2-2.399
		C5.841,62,5.841,62,5.841,62.2z M100.841,32c0,0.1,0,0.3,0,0.4c0.101,0.3,0.101,0.6,0,1c0.3,0.5,0.3,1.1,0.3,1.9
		c0,0.8-0.1,1.6-0.199,2.5c-0.101,0.6-0.301,1.3-0.7,1.9c-0.101,0.8-0.4,1.601-0.601,2.3c-0.199,0.9-0.5,1.601-1,2.4
		c-0.699,1.6-1.699,3.1-2.699,4.6c-0.301,0.4-0.7,0.7-1.101,0.9c-0.6,0.5-1.2,1-1.8,1.5c-1.1,1-2.3,1.4-3.6,1v0.1
		c-0.4,0.101-0.801,0.101-1.2,0c-0.101-0.1-0.101-0.199-0.3-0.3c-0.301-0.3-0.7-0.5-1.301-0.7l0,0c0,0.101,0.2,0.2,0.301,0.4
		c-0.101-0.1-0.101-0.1-0.2-0.1c-0.9-0.101-1.8-0.4-2.601-0.9c-0.399,0.1-0.899,0-1.3-0.4c-0.399,0-0.7-0.1-0.899-0.199
		c-2.301-1.2-3.601-2.9-4-5.2c0-0.4-0.101-0.8,0-1.2c0-1.4,0.1-2.9,0.199-4.3c0-0.8,0.2-1.7,0.5-2.6c0.2-0.4,0.4-0.7,0.5-1.1
		c0.7-1.7,1.7-3.3,3-4.5c1.101-1.6,2.5-2.8,4.301-3.5c0.399-0.3,0.8-0.4,1.199-0.5c0.5-0.3,1-0.5,1.601-0.8
		c2.899,0.5,5.7,1.3,8.6,2.3c-0.1,0-0.1,0-0.1,0.1c1.1,0.4,2.1,1.2,2.8,2.2c0.1,0,0.1,0.1,0.1,0.2s0,0.2,0,0.4
		C100.742,31.8,100.742,31.9,100.841,32z M91.442,15.4c0.399,0.1,0.699,0.2,1.199,0.3c-0.5,3.1-1,6.2-1.399,9.3
		c-0.7-0.1-1.4-0.1-2.2-0.1c-0.1,0-0.2,0-0.4,0.1c0-0.1,0-0.1,0-0.1c0-0.3,0-0.6-0.1-0.9c0.1-0.1,0.2-0.2,0.3-0.4
		c0.3-2.5,0.8-5,1.5-7.4c0.101-0.1,0.101-0.3,0.3-0.3c0-0.1,0-0.1,0-0.1c0-0.1,0.2-0.1,0.2-0.1c0-0.1,0-0.3,0-0.5
		c0.101,0,0.101,0,0.3,0C91.141,15.3,91.242,15.3,91.442,15.4z M88.841,15c-0.1,0.2-0.1,0.3-0.2,0.4c-0.3,2.3-0.899,4.5-1.699,6.6
		c-1.5-1-3.101-1.6-4.9-1.8c-4.6-0.6-9.1-1.5-13.4-2.7c-1.199-0.1-2.199-0.2-3.199-0.1c0-0.1,0-0.2,0-0.2c0-0.6,0-1.1,0-1.6
		c0-1,0.199-2,0.6-3c0.2-0.7,0.3-1.2,0.1-1.7c6.101,0.5,12.2,1.7,18.101,3.3C85.742,14.5,87.242,14.8,88.841,15z M64.841,10.7
		c-0.6,1.4-0.899,2.7-1,4.2c-0.1,0.6-0.2,1.1-0.2,1.7c-0.1,0.3-0.1,0.7,0,1c-0.199,0-0.199,0-0.399,0c0,0.1,0,0.2,0,0.3
		c-1.101,0.5-2.101,1.2-3.101,2c0.101-0.2,0.2-0.5,0.301-0.7c0-0.6,0-1.1,0.3-1.6c-0.101-0.1-0.101-0.2,0-0.2
		c0.1-0.1,0.1-0.2,0.2-0.2c0.3-1.9,0.699-3.7,1-5.6c0-0.1,0-0.3,0-0.4c0.1-0.1,0.1-0.1,0.1-0.2c0.1-0.1,0.1-0.1,0.1-0.1h0.101
		c-0.101-0.2-0.101-0.3-0.101-0.3C63.141,10.6,63.942,10.6,64.841,10.7z M65.042,23.9c0.1-0.3,0.4-0.5,0.6-0.6
		c0.801-0.7,1.801-1.3,2.9-1.6c0.3,0.1,0.5,0.1,0.7,0.2c0.899-0.4,1.899-0.4,2.8,0c1.5,0.4,2.4,1.3,2.9,2.5
		c-0.101,0-0.301,0-0.4-0.1c0.3,0.5,0.4,1,0.4,1.6c0,0.1-0.101,0.3-0.2,0.5c0.2,0,0.3,0,0.399,0.1v0.1c0,0.1,0,0.1,0,0.2h-0.1
		c-0.4,0.1-0.6,0.4-0.8,0.7c-0.101,0.1-0.3,0.3-0.3,0.3c-3.2,1.6-6.101,3.5-8.801,5.6c-1.8,1.4-3.699,2.5-5.699,3.6
		c0.199-0.8,0.399-1.6,0.5-2.5c0-0.8,0.199-1.6,0.5-2.2l0,0c0.199-1.2,0.6-2.3,1.199-3.3c0.301-0.8,0.801-1.7,1.2-2.6
		c0.3-0.6,0.8-1.2,1.3-1.8C64.442,24.4,64.641,24.1,65.042,23.9z M59.242,29.7c-0.101,0.6-0.3,1.2-0.4,1.7
		c-0.399,2-0.6,4.1-0.399,6.1c-0.7,0.4-1.4,0.8-2.101,1c-0.2,0.1-0.3,0.2-0.399,0.3c0-0.1,0-0.1,0-0.2c-0.101-0.3-0.2-0.7-0.301-1.1
		c0-0.1-0.1-0.1-0.1-0.2s0-0.1-0.1-0.2c-0.801-1.5-2.101-2.3-3.601-2.6C54.141,32.7,56.641,31,59.242,29.7z M50.841,19.2
		c0.1,0,0.2,0.2,0.3,0.2c1.1,0,2,0.2,3,0.7c0,0.1,0,0.1,0.101,0.1c0,0,0,0,0,0.1c0.1,0,0.2,0,0.2,0.1c0.5,0.4,0.899,0.8,1.199,1.3
		c0.101,0.2,0.101,0.6,0,0.9c0,0,0,0.2,0,0.3c0,0,0,0,0,0.1s0,0.2,0,0.2c0,0.1,0,0.2,0,0.2c0,0.1,0,0.1-0.1,0.2c-0.1,0-0.1,0-0.2,0
		c0.101,0.1,0.101,0.2,0.101,0.2s0,0,0,0.1c-1.5,1-3,2.1-4.4,3.2c-0.1,0.1-0.1,0.1-0.1,0.1c-0.5,0.2-0.8,0.5-1.3,0.8
		c-0.2,0.2-0.2,0.3-0.4,0.4c-0.8,0.6-1.6,1.2-2.5,1.9c-0.1,0.1-0.3,0.1-0.5,0.3l0,0c-0.1,0-0.1,0-0.1,0c-0.2,0.2-0.5,0.3-0.7,0.5
		c-0.7,0.7-1.5,1.3-2.2,1.9c-1.3,0.7-2.5,1.4-3.8,2.3c-0.5,0.3-0.9,0.6-1.3,1.1c-0.9-2.5-1.2-5-0.6-7.5c0.6-2.9,1.9-5.3,3.9-7.3
		c2-1.9,4.1-2.8,6.4-2.7C48.742,19.1,49.841,19.2,50.841,19.2z M53.442,39.5c0,0.1,0,0.1,0,0.1c-2.3,0.7-4.5,1.1-6.7,1.2
		c0-0.101,0-0.2-0.1-0.301c0-0.1,0-0.1,0-0.2s0-0.2,0-0.3c0.2-0.5,0.4-1,0.8-1.4c0.7-0.7,1.3-1.3,2-2c0.1,0.2,0.3,0.3,0.5,0.4
		c0.5,0,1,0.2,1.4,0.4C52.442,37.7,53.141,38.4,53.442,39.5z M54.942,39.2c0-0.1,0-0.2,0-0.2s0,0,0.1,0.1
		C54.942,39.1,54.942,39.1,54.942,39.2z M44.642,56.5c0-0.199,0.1-0.199,0.2-0.3c1.6-1.6,3.4-2.7,5.7-3.399
		c0.5-0.2,1-0.301,1.6-0.301c0.801,0.101,1.601,0.301,2.4,0.5c1.1,0.301,2.3,0.601,3.4,1.2c0,0.101,0,0.101,0.1,0.101
		c0,0,0,0.1,0,0.199c-0.1,0-0.1,0-0.1,0.101l0,0c1.199,0.7,2,1.7,2.3,3.399c0.2,0.5,0.2,1.2,0.2,1.801c0,2.5-0.5,4.8-1.601,7.199
		c-0.7,1.301-1.5,2.301-2.6,3.2c-0.8,1-2,1.9-3.3,2.4c-0.801,0.2-1.5,0.2-2.101,0c-0.5,0-0.9,0.1-1.4,0.1c-0.5-0.1-1-0.2-1.4-0.5
		c-0.1,0-0.1,0-0.1,0c-2-0.3-3.7-1.2-4.9-2.899c-1.4-2-1.8-4-1.1-6.101c0-2.1,0.5-3.899,1.9-5.7
		C44.142,57.2,44.341,56.8,44.642,56.5z M61.942,55.1c0-0.101,0-0.101,0.1-0.101c-0.1,0.101-0.1,0.2-0.2,0.301
		c0-0.101-0.1-0.2-0.2-0.301C61.742,55,61.841,55,61.942,55.1z M39.841,65.8h-0.2c0,0,0.2-0.101,0.2-0.2
		C39.841,65.7,39.841,65.7,39.841,65.8z"/>
	<path fill="#C74A34" d="M66.442,2.6c0.1-0.2,0.199-0.3,0.5-0.4c-0.101,0-0.101-0.1-0.101-0.2c-1.1,0.8-2.2,1.6-3.2,2.6
		c-1.1,1.1-2.199,2.2-3.5,3.3l0,0c0.101,0.1,0.101,0.2,0.101,0.2c-0.101,0.1-0.101,0.3-0.2,0.4c1.1,0.1,2.2,0.1,3.4,0.1
		c0.699,0.1,1.399,0.3,2.199,0.3c0.801,0.1,1.601,0.3,2.4,0.4c1.4,0.3,2.9,0.5,4.4,0.8c2.199,0.3,4.5,0.6,6.699,1
		c1.4,0.1,2.7,0.5,4,0.8c2.5,0.7,5.101,1.3,7.801,1.7c0.199,0,0.399,0,0.5,0c0.5,0.1,0.899,0.1,1.399,0.2c0,0.1,0,0.1,0.101,0.2
		c1,0.2,2.1,0,3.199-0.6c0,0,0,0,0-0.1c1.5-1.7,2.9-3.1,4.5-4.6c0-0.1,0-0.1-0.1-0.2s-0.1-0.2-0.1-0.3c0-0.1-0.101-0.1-0.2-0.2
		c-0.101-0.1-0.101-0.1-0.2-0.1c-0.4,0.1-0.8,0.3-1.1,0.5c-0.101,0-0.301,0.1-0.5,0.2c-0.4,0-0.801,0-1.2,0c-0.4,0-0.8-0.2-1.2-0.4
		c-0.4,0-0.8,0.2-1.2,0.2c-0.1,0-0.2,0-0.399,0.1c0,0-0.2,0-0.301,0c-3.3-0.3-6.699-0.6-10.1-1.3c-0.8-0.1-1.6-0.3-2.3-0.5
		c-0.8-0.1-1.601-0.3-2.3-0.5c-2-0.4-4-0.8-5.9-1.3c-1.1-0.3-2.2-0.6-3.3-1c0,0,0,0,0-0.1s0-0.2,0-0.4c0,0,0,0-0.101-0.1
		c0-0.1,0-0.1,0-0.1c-0.199-0.1-0.3-0.1-0.5-0.1c0,0,0,0,0,0.1c0.101,0,0.2,0.1,0.301,0.2c0.1,0,0.1,0,0.1,0c0,0.1,0,0.2,0,0.2v0.1
		C68.841,3.3,67.641,2.9,66.442,2.6z M61.841,7.1c0-0.2,0-0.4,0-0.5c1.101-1.4,2.601-2.4,4.3-3V3.4c0.5,0,0.9,0.2,1.101,0.8l0,0
		c-0.601,0.8-1.3,1.4-2.3,1.9c-0.7,0.3-1.301,0.7-1.9,1.3C62.442,7.8,62.141,7.7,61.841,7.1z"/>
	<path fill="#F58466" d="M61.841,6.6c0,0.1,0,0.3,0,0.5c0.3,0.6,0.601,0.7,1.2,0.3c0.6-0.6,1.2-1,1.9-1.3c1-0.5,1.699-1.1,2.3-1.9
		l0,0c-0.2-0.6-0.601-0.8-1.101-0.8v0.2C64.442,4.2,62.942,5.2,61.841,6.6z"/>
	<path fill="#FAA61A" d="M12.941,51.8c0.5-1.101,1.2-2,2-2.9c1-0.9,2-1.6,3.2-2c-1.3,0.3-2.3,0.8-3.2,1.7c-1.2,1.3-2.2,2.7-3,4.3
		c-0.6,2.1-0.7,4.1-0.3,6.2v0.1c0.1,0.7,0.3,1.3,0.7,2c0,0.101,0.1,0.3,0.3,0.5c0,0.101,0.1,0.3,0.1,0.5
		c0.1,0.101,0.2,0.3,0.2,0.601c0,0.199,0.2,0.3,0.4,0.399c0.3-0.2,0.5-0.3,0.6-0.6V62.5c0,0,0,0,0-0.1c0.2-0.4,0.3-0.6,0.4-1
		l0.1-0.1c0,0.199,0,0.199,0.1,0.3c0.1-0.101,0.2-0.3,0.3-0.4c0-0.2,0-0.2,0.1-0.399c0.2-0.301,0.3-0.601,0.6-1
		c0.3-0.4,0.5-0.801,0.8-1.101c-0.1-0.1-0.1-0.1-0.1-0.1c0.1-0.3,0.1-0.4,0.3-0.7c0.1-0.4,0.2-0.6,0.3-0.9c0-0.199,0-0.399,0.1-0.5
		c0.3-1.3,0.8-2.6,1.4-3.8c0-0.1,0-0.1,0-0.2l0,0c1.3-2.199,2.9-3.899,5-5c0.1-0.1,0.1-0.1,0.3-0.1c0,0,0.2-0.1,0.3-0.1
		c-0.7-0.5-1.5-0.7-2.5-0.801c-0.4,0-0.8,0-1.3-0.1c-0.2,0.1-0.2,0.1-0.3,0.2h0.1c0.1,0.1,0.1,0.1,0.1,0.2c0,0,0,0.1,0,0.199
		c0,0,0,0.101-0.1,0.2c-0.2,0.2-0.5,0.4-0.8,0.601c-0.7,0.6-1.5,1.199-2.4,1.699c-0.9,0.601-1.5,1.4-1.9,2.4c-0.6,1.4-1.2,2.7-1.9,4
		c-0.1,0.3-0.1,0.4-0.1,0.7c0,0,0,0.2-0.1,0.3c0,0-0.1,0-0.1,0.1c-0.1,0-0.2,0-0.2,0c-0.2,0-0.3-0.199-0.4-0.199
		c-0.1-0.301-0.1-0.5-0.1-0.801c0-0.1,0-0.199,0.1-0.3C11.941,54.3,12.242,53,12.941,51.8z M13.542,58.3c0.1,0,0.1,0.1,0.2,0.199
		c0.1,0,0.1,0.2,0.2,0.301c0,0.1,0,0.1,0,0.199c-0.1,0.301-0.3,0.5-0.7,0.601c-0.3-0.101-0.4-0.101-0.6-0.3c0-0.101,0-0.301,0-0.301
		c0-0.1,0.1-0.1,0.1-0.199c0.1-0.101,0.4-0.2,0.5-0.301c0-0.1,0.1-0.199,0.2-0.1C13.441,58.3,13.441,58.3,13.542,58.3z"/>
	<path fill="#FFCB05" d="M13.742,58.5c-0.1-0.1-0.1-0.199-0.2-0.199s-0.1,0-0.1,0.1c-0.1-0.1-0.2,0-0.2,0.1
		c-0.1,0.101-0.4,0.2-0.5,0.301c0,0.1-0.1,0.1-0.1,0.199c0,0,0,0.2,0,0.301c0.2,0.199,0.3,0.199,0.6,0.3
		c0.4-0.101,0.6-0.3,0.7-0.601c0-0.1,0-0.1,0-0.199C13.841,58.7,13.841,58.5,13.742,58.5z"/>
	<path fill="#FFCB05" d="M14.941,48.9c-0.8,0.9-1.5,1.8-2,2.9c-0.7,1.199-1,2.5-0.9,3.899c-0.1,0.101-0.1,0.2-0.1,0.3
		c0,0.301,0,0.5,0.1,0.801c0.1,0,0.2,0.199,0.4,0.199c0,0,0.1,0,0.2,0c0-0.1,0.1-0.1,0.1-0.1c0.1-0.1,0.1-0.3,0.1-0.3
		c0-0.3,0-0.4,0.1-0.7c0.7-1.3,1.3-2.6,1.9-4c0.4-1,1-1.8,1.9-2.4c0.9-0.5,1.7-1.1,2.4-1.699c0.3-0.2,0.6-0.4,0.8-0.601
		c0.1-0.1,0.1-0.2,0.1-0.2c0-0.1,0-0.199,0-0.199c0-0.101,0-0.101-0.1-0.2h-0.1c-0.2-0.101-0.2-0.101-0.2-0.101
		c-0.5,0.101-1,0.301-1.5,0.4C16.941,47.3,15.941,48,14.941,48.9z"/>
	<path fill="#FFF200" d="M23.642,47.4c-0.2,0-0.2,0-0.3,0.1c-2.1,1.101-3.7,2.801-5,5l0,0c0,0.101,0,0.101,0,0.2
		c-0.6,1.2-1.1,2.5-1.4,3.8c-0.1,0.101-0.1,0.301-0.1,0.5c-0.1,0.301-0.2,0.5-0.3,0.9c-0.2,0.3-0.2,0.4-0.3,0.7c0,0,0,0,0.1,0.1l0,0
		c0.1,0,0.2,0,0.3,0c0.5-0.7,1-1.2,1.5-1.899c0.1,0,0.1-0.2,0.2-0.2c0.3-0.3,0.6-0.8,0.9-1.101l0,0c0.1-0.199,0.2-0.199,0.3-0.3
		c1.6-2,3.4-3.899,5.2-5.899c0.3-0.4,0.7-0.7,1-1c-0.4-0.601-0.9-0.9-1.6-0.9C23.941,47.3,23.742,47.4,23.642,47.4z M23.242,47.8
		c0.3,0.1,0.4,0.199,0.5,0.399c0,0.101,0,0.101,0,0.101c-1.1,1.1-2.1,2.3-2.9,3.6c-0.2,0.3-0.4,0.5-0.7,0.6
		c-0.2-0.1-0.3-0.199-0.4-0.3c-0.1-0.5,0-1,0.4-1.5c0-0.1,0.1-0.3,0-0.399c0.9-1.101,2-1.9,3.1-2.4V47.8z"/>
	<path fill="#FFFCD5" d="M23.742,48.2c-0.1-0.2-0.2-0.3-0.5-0.399v0.1c-1.1,0.5-2.2,1.3-3.1,2.4c0.1,0.1,0,0.3,0,0.399
		c-0.4,0.5-0.5,1-0.4,1.5c0.1,0.101,0.2,0.2,0.4,0.3c0.3-0.1,0.5-0.3,0.7-0.6c0.8-1.3,1.8-2.5,2.9-3.6
		C23.742,48.3,23.742,48.3,23.742,48.2z"/>
	<path fill="#F15A22" d="M25.142,51.8c-0.2,0-0.3,0-0.4,0.1c-0.3,0.3-0.6,0.6-0.8,1c-0.3,0.2-0.5,0.4-0.6,0.6
		c-0.7,0.801-1.4,1.5-2.1,2.301c-1.5,1.6-3,3.3-4.3,5.1c0,0.1,0,0.2,0,0.4c1,1,2.2,1.3,3.7,0.899c0.6-0.2,1.3-0.399,1.9-0.5
		c2.7-0.5,5.3-1.5,7.4-3.2c0.2,0,0.2,0,0.3-0.1c0-0.1,0-0.1,0.1-0.2c0.1,0,0.2-0.1,0.3-0.2c0.1,0,0.2-0.1,0.3-0.199
		c0.1-0.101,0.2-0.301,0.3-0.4c0.2-0.3,0.5-0.6,0.7-0.9c0.2-1.199-0.3-1.899-1.4-2.3c-0.6-0.3-1.1-0.7-1.5-1.1
		c-1.2-0.4-2.5-0.7-3.8-1.101l-0.1-0.1V51.8c0-0.101,0-0.101,0.1-0.2C25.142,51.7,25.142,51.7,25.142,51.8z M25.242,52.6
		c0,0.1,0.2,0.1,0.2,0.1c0,0.8-0.3,1.5-0.8,2.101c-2,2.199-4,4.3-6,6.399c0,0.101-0.2,0.101-0.3,0.2c-0.2-0.1-0.3-0.1-0.4-0.2
		c-0.1-0.1-0.1-0.2-0.1-0.2s0,0-0.1-0.1c0-0.1,0-0.2,0-0.3c0-0.101,0-0.101,0-0.101c2.1-2.899,4.4-5.5,6.9-7.8
		c0.1-0.1,0.2-0.1,0.3-0.1l0,0C24.941,52.6,25.142,52.6,25.242,52.6z"/>
	<path fill="#F9A870" d="M25.441,52.7c0,0-0.2,0-0.2-0.1c-0.1,0-0.3,0-0.3,0l0,0c-0.1,0-0.2,0-0.3,0.1c-2.5,2.3-4.8,4.9-6.9,7.8
		c0,0,0,0,0,0.101c0,0.1,0,0.2,0,0.3c0.1,0.1,0.1,0.1,0.1,0.1s0,0.101,0.1,0.2c0.1,0.101,0.2,0.101,0.4,0.2c0.1-0.1,0.3-0.1,0.3-0.2
		c2-2.1,4-4.2,6-6.399C25.142,54.2,25.441,53.5,25.441,52.7z"/>
	<path fill="#ED1C24" d="M31.642,45.5c1-1.199,2.2-2.199,3.3-3.199c1-0.9,2.1-1.801,3.2-2.601c0.5-0.4,1-0.8,1.5-1.2
		c1.2-1,2.3-2,3.5-3.1c-0.9,0.6-1.7,1.2-2.4,1.9c-0.3,0.1-0.6,0.3-0.9,0.6c0,0-0.2,0-0.2,0.1c-0.7,0.5-1.5,1.2-2.3,1.7
		c-1.5,1.7-3.2,3.2-4.9,4.7c-0.7,0.7-1.5,1.4-2.2,2.1c-0.3,0.2-0.4,0.4-0.6,0.7c-1.3,1.601-2.7,3-4.1,4.2c0.1,0,0.1,0,0.2,0
		c0.2,0,0.4,0,0.7-0.1c2.7,0.3,4.9,1.5,6.6,3.5c0.4,0.5,0.6,1,0.4,1.699c-0.3,0.7-0.8,1.301-1.3,1.9c-0.4,0.4-0.9,0.8-1.3,1.2
		c-0.2,0-0.4,0.1-0.7,0.2c-3,2.5-6.6,3.899-10.9,4c-1.3,0-2.4-0.5-3.1-1.601c-0.6,0.7-1,1.4-1.3,2.3c-1.2,1.801-2.1,4-2.7,6.2
		c-0.2,0.4-0.2,0.7-0.1,0.9c-0.1,0.1-0.1,0.2-0.1,0.3c0.1,0.8,0.3,1.6,0.9,2.3c0,0,0.2,0.101,0.4,0.3c1,0.301,2.1,0.5,3.2,0.5
		c0.3-0.199,0.6-0.3,0.8-0.3c0.2-0.1,0.4-0.2,0.7-0.2c0,0,0.2,0,0.2-0.1l0,0c0.2-0.2,0.4-0.2,0.6-0.4c0.3,0,0.6,0,0.9-0.1
		c1.6-0.4,3.2-1.1,4.6-1.9c0.5-0.399,1-0.699,1.5-0.899c1.1-0.3,2.1-0.601,3.1-1c3.1-1.4,6.1-2.8,9.1-4.601c1.1-0.6,1.7-1.5,1.6-2.5
		c0.1,0,0.1,0,0.2,0c0.1-0.5,0.1-0.8,0.2-1.199c0.5-3.2,2-5.801,4.5-7.801c2.1-1.6,4.4-2.699,7-3.1c1.7-0.3,3.4,0,4.8,0.8
		c2.3,0.101,3.899,0.9,5,2.601c4-2.4,8-4.801,12-7.2c0.5-0.3,0.899-0.7,1.5-0.9c0.1,0,0.2,0,0.2,0c0.1,0,0.199,0,0.3,0.101
		c0,0,0,0.1,0.1,0.1c0.101,0,0.101,0,0.2-0.1c-0.3-0.9-0.3-2-0.1-3c0.399-2.7,1-5.101,1.8-7.601c0.2-0.4,0.399-0.9,0.399-1.3
		c0.5-2,1.5-3.8,3-5.1c0.4-0.4,0.801-0.7,1.101-0.9c1.1-1,2.2-1.8,3.399-2.2c0.301-0.4,0.5-0.9,0.801-1.4c0-0.1,0-0.2,0-0.3
		c-0.801-0.7-1.7-1.2-2.7-1.6c-0.2,0-0.4-0.1-0.601-0.3c-2.899-0.2-5.699-0.7-8.5-1.3c0.5,0.3,1,0.7,1.4,1.2s0.7,1,0.9,1.7
		c0,0.2,0.199,0.4,0.199,0.7c0.5,0.1,1.101,0.3,1.7,0.4c0.3,0.1,0.601,0.1,0.8,0.1c0.101,0,0.301,0.1,0.5,0.2
		c0.101,0.1,0.2,0.3,0.2,0.6c-1.7,1.6-3.5,2.9-5.6,4.1c-2.2,1.2-4.4,2.6-6.4,4.1c-1.7,1.3-3.6,2.4-5.399,3.4
		c-2.801,1.6-5.801,2.9-8.9,4.1c-2.4,0.9-4.9,1.2-7.4,1c-0.7,0-1.2-0.5-1.3-1.1c-0.4-1.5-0.2-2.9,0.4-4c0.1-0.1,0.2-0.2,0.3-0.3l0,0
		c0.1-0.3,0.4-0.6,0.6-0.9c0.6-0.6,1.3-1.1,2-1.5c0.6-0.3,1.1-0.7,1.7-1.2c2.8-2.3,5.601-4.4,8.601-6.3c0.399-0.2,0.8-0.6,1.199-0.9
		c0.4-0.3,0.801-0.4,1.301-0.7c0.399-0.7,0.899-1.6,1.5-2.3c0.5-0.8,1.1-1.3,2-1.8c1.3-0.9,2.699-1.5,4.3-1.8
		c-1.8-0.2-3.601-0.2-5.3,0c-1.801,1-3.301,2.3-4.801,3.7c0,0.1-0.1,0.1-0.199,0.2h-0.2c-0.101,0.3-0.3,0.4-0.601,0.7
		c-0.399,0.2-0.8,0.6-1.3,0.9c-2.7,1.8-5.3,3.8-7.9,5.8c1.4-0.9,2.6-1.8,3.8-2.7c2.2-1.7,4.399-3.3,6.7-4.8
		c0.699-0.9,1.5-1.5,2.5-1.8c0.3,0.1,0.5,0.2,0.6,0.5c0.1,0.1,0.1,0.1,0.1,0.2c-1.199,1.1-2.5,2.2-3.8,3.1c-1.399,1-2.8,2.1-4.2,3.3
		c-1.5,1.2-3.2,2.4-5,3.5c-2.4,1.7-4.7,3.7-7,5.9c-1,1-2.2,1.899-3.3,2.8c-0.2,0-0.4,0.1-0.6,0.3c-2.3,1.7-4.4,3.7-6.3,5.8
		c-1,1.101-1.8,2.101-2.7,3.101c-0.1,0-0.1,0-0.1,0c-0.1,0.1-0.2,0.1-0.2,0.2c-0.7-0.601-0.7-1.301,0-2.101
		C29.841,47.6,30.742,46.6,31.642,45.5z M16.941,64.3c0.1,0,0.1,0,0.2,0.1c-1.5,2.4-2.7,4.9-3.5,7.7c-0.1,0.1-0.2,0.2-0.3,0.399
		c0,0,0,0.101,0,0.2c0,0.101,0,0.3-0.1,0.4c0,0,0,0-0.1-0.101c-0.2,0-0.3-0.1-0.4-0.199V72.7c0-0.1-0.1-0.1-0.1-0.1
		c-0.5-1.101-0.5-2.2,0-3.4c0.7-1.7,1.6-3.3,2.7-4.7c0.3-0.5,0.6-0.699,1-0.699C16.742,63.8,16.841,64,16.941,64.3z"/>
	<path fill="#F58466" d="M17.142,64.4c-0.1-0.1-0.1-0.1-0.2-0.1c-0.1-0.301-0.2-0.5-0.6-0.5c-0.4,0-0.7,0.199-1,0.699
		c-1.1,1.4-2,3-2.7,4.7c-0.5,1.2-0.5,2.3,0,3.4c0,0,0.1,0,0.1,0.1V72.8c0.1,0.1,0.2,0.199,0.4,0.199c0.1,0.101,0.1,0.101,0.1,0.101
		c0.1-0.101,0.1-0.3,0.1-0.4c0-0.1,0-0.2,0-0.2c0.1-0.199,0.2-0.3,0.3-0.399C14.441,69.3,15.642,66.8,17.142,64.4z"/>
	<path fill="#F58466" d="M34.941,42.3c-1.1,1-2.3,2-3.3,3.199c-0.9,1.101-1.8,2.101-2.7,3.2c-0.7,0.8-0.7,1.5,0,2.101
		c0-0.101,0.1-0.101,0.2-0.2c0,0,0,0,0.1,0c0.9-1,1.7-2,2.7-3.101c1.9-2.1,4-4.1,6.3-5.8c0.2-0.2,0.4-0.3,0.6-0.3
		c1.1-0.9,2.3-1.8,3.3-2.8c2.3-2.2,4.6-4.2,7-5.9c1.8-1.1,3.5-2.3,5-3.5c1.4-1.2,2.801-2.3,4.2-3.3c1.3-0.9,2.601-2,3.8-3.1
		c0-0.1,0-0.1-0.1-0.2c-0.1-0.3-0.3-0.4-0.6-0.5c-1,0.3-1.801,0.9-2.5,1.8c-2.301,1.5-4.5,3.1-6.7,4.8c-1.2,0.9-2.4,1.8-3.8,2.7
		c-0.4,0.2-0.8,0.5-1.3,0.8c-1.3,0.9-2.6,1.9-3.8,3.1c-0.1,0-0.2,0.1-0.2,0.1c-1.2,1.1-2.3,2.1-3.5,3.1c-0.5,0.4-1,0.8-1.5,1.2
		C37.042,40.5,35.941,41.4,34.941,42.3z"/>
	<path fill="#F15A22" d="M35.242,73.7c-0.3,0-0.8-0.1-1.1-0.3h-0.1c-0.6,0.1-1.4,0-2.1-0.1l0,0c-1.2,0-2.3-0.101-3.5-0.5
		c-0.2-0.101-0.3-0.2-0.4-0.2c-1.9,0.899-3.9,1.7-5.9,2.5c4.2,0.7,8.3,1.5,12.5,2.399l0,0c0.1-0.1,0.1-0.1,0.2-0.1
		c0.1-1.1,0.3-2.2,0.3-3.4C35.142,73.9,35.142,73.8,35.242,73.7z M33.642,74.1c0,0.1,0.2,0.1,0.3,0.1c-0.5,0.601-1.3,0.8-2.5,0.601
		c-1-0.2-2-0.5-3-0.801c-0.1-0.199-0.2-0.399-0.3-0.399c-0.1-0.101-0.1-0.101-0.1-0.2c-0.1-0.2,0.1-0.3,0.2-0.4c0.2,0,0.2,0,0.3-0.1
		C30.142,73.4,31.941,73.8,33.642,74.1z"/>
	<path fill="#F9A870" d="M33.941,74.2c-0.1,0-0.3,0-0.3-0.1c-1.7-0.3-3.5-0.7-5.1-1.2c-0.1,0.1-0.1,0.1-0.3,0.1
		c-0.1,0.101-0.3,0.2-0.2,0.4c0,0.1,0,0.1,0.1,0.2c0.1,0,0.2,0.2,0.3,0.399c1,0.301,2,0.601,3,0.801
		C32.642,75,33.441,74.8,33.941,74.2z"/>
	<path fill="#C74A34" d="M36.341,77.6c0.1-0.101,0.1-0.101,0.1-0.101c0.4-0.1,0.7-0.1,1,0c0.5-0.199,1.1-0.6,1.7-1.1
		c0.4-0.4,0.9-0.9,1.4-1.2c0.4-0.6,0.7-1.3,0.9-2c-0.2-0.399-0.2-0.7-0.1-1.1c0-0.2,0-0.3,0-0.4l0,0c-0.2,0-0.4,0-0.5,0
		c0,0,0,0-0.1,0c-0.8,0-1.7,0.2-2.5,0.601c-0.1,0.1-0.1,0.1-0.2,0.199c-1.1,0.801-1.6,2-1.6,3.5C36.341,76.5,36.341,77,36.341,77.6z
		"/>
	<path fill="#F15A22" d="M11.042,67.8c0.1-0.301,0.2-0.5,0.2-0.601c-1.6-0.7-3.2-1.6-4.7-2.7c-0.1,0-0.1,0-0.1,0
		c-0.1,0.101-0.1,0.301-0.2,0.301c0,0-0.1,0-0.3,0c-1.1,1-2.1,2.199-2.8,3.699c2.3,0.9,4.7,2.101,6.8,3.601c0-0.3,0-0.5,0-0.7
		c0.1-0.6,0.2-1.1,0.3-1.6C10.441,69.2,10.742,68.5,11.042,67.8z M7.142,65.3c0,0.1,0,0.1,0.1,0.199c1,0.5,2,1,2.9,1.801
		c0,0,0,0-0.1,0.1s-0.1,0.1-0.1,0.2c-1.5,0-2.7-0.5-3.7-1.601c-0.1-0.199-0.1-0.399,0-0.6c0-0.1,0-0.1,0-0.2
		c0.1-0.1,0.1-0.2,0.2-0.2s0.2,0,0.2,0C6.841,65,7.042,65.1,7.142,65.3z"/>
	<path fill="#F9A870" d="M7.242,65.5c-0.1-0.1-0.1-0.1-0.1-0.199c-0.1-0.2-0.3-0.301-0.5-0.301c0,0-0.1,0-0.2,0s-0.1,0.101-0.2,0.2
		c0,0.101,0,0.101,0,0.2c-0.1,0.2-0.1,0.4,0,0.6c1,1.101,2.2,1.601,3.7,1.601c0-0.101,0-0.101,0.1-0.2s0.1-0.1,0.1-0.1
		C9.242,66.5,8.242,66,7.242,65.5z"/>
	<path fill="#C74A34" d="M5.841,62.3c0,0,0,0,0-0.101c0-0.2,0-0.2,0-0.399c-1.1,0.399-2.2,1.199-3.2,2.399c-0.8,0.8-1.2,1.8-0.9,2.9
		c0,0.1,0,0.2,0.1,0.2l0,0c0.2,0,0.3,0,0.4,0c0,0.1,0,0.199,0,0.199c0.6-0.899,1.3-1.699,2-2.699c0.2-0.4,0.6-0.601,0.9-0.801
		c0.2-0.199,0.4-0.399,0.6-0.699c0.1,0,0.1,0,0.1,0c0.1,0,0.3,0,0.4,0c-0.1-0.101-0.1-0.301-0.1-0.5c0,0,0-0.101,0-0.2
		c0,0,0-0.101-0.1-0.101S5.941,62.4,5.841,62.3z"/>
	<path fill="#FFF200" d="M99.242,31.2c0.2,0.2,0.399,0.3,0.5,0.6c-0.101,0,0,0,0.1,0.1c-0.7,0.5-1.399,0.6-2.399,0.5
		c-0.2,0-0.301,0-0.5,0.2c-2.101,1.3-4,2.8-5.5,4.7c-0.2,0.1-0.301,0.2-0.5,0.2c-0.101,0.1-0.101,0.3-0.101,0.4
		c-0.1,0-0.2,0.2-0.2,0.4c0,0-0.1,0-0.199,0.1c0-0.1,0-0.1,0-0.1c0-0.2,0-0.4,0.199-0.4c0-0.1,0-0.3,0-0.4c0,0,0,0,0-0.1
		c0,0-0.1,0-0.199,0c0.1-0.5,0.199-0.9,0.5-1.3c-1.5,2.3-2.4,4.7-2.801,7.2c-0.5,1.5-0.8,3.1-0.8,4.699c0.101,1.2,0.2,2.2,0.5,3.301
		c0.101,0.3,0.3,0.6,0.601,0.699c0.399,0.2,0.699,0.4,1,0.4c1.3,0.4,2.5,0,3.6-1c0.6-0.5,1.2-1,1.8-1.5c0.4-0.2,0.8-0.5,1.101-0.9
		c1-1.5,2-3,2.699-4.6c0.5-0.8,0.801-1.5,1-2.4c0.2-0.699,0.5-1.5,0.601-2.3c0.399-0.6,0.6-1.3,0.7-1.9c0.1-0.9,0.199-1.7,0.199-2.5
		c0-0.8,0-1.4-0.3-1.9c0.101-0.4,0.101-0.7,0-1C100.641,31.8,100.141,31.4,99.242,31.2z M94.542,38c0.1-0.1,0.1-0.1,0.1-0.1
		c0.101,0,0.2,0,0.301,0c0.1,0,0.199,0,0.3,0c1.1,0.6,1.5,1.6,1.2,3c-0.2,0.7-0.5,1.5-0.9,2.1c-0.7,1.301-1.7,1.4-2.8,0.7
		c-0.5-0.3-0.7-0.8-0.601-1.399c0-1.9,0.801-3.3,2.301-4.3C94.442,38,94.442,38,94.542,38z M91.042,39.4c0.1,0,0.2,0.1,0.4,0.1
		c0,0.1,0,0.1,0,0.2c-0.101,0.8-0.5,1.2-1.2,0.8c0,0-0.101-0.1,0-0.1c-0.101-0.1-0.101-0.2-0.101-0.2
		C90.341,39.7,90.641,39.4,91.042,39.4z"/>
	<path d="M94.641,37.9c0,0,0,0-0.1,0.1c-0.1,0-0.1,0-0.1,0c-1.5,1-2.301,2.4-2.301,4.3c-0.1,0.6,0.101,1.1,0.601,1.399
		c1.1,0.7,2.1,0.601,2.8-0.7c0.4-0.6,0.7-1.399,0.9-2.1c0.3-1.4-0.101-2.4-1.2-3c-0.101,0-0.2,0-0.3,0
		C94.841,37.9,94.742,37.9,94.641,37.9z M94.442,39.4c0.199,0,0.5,0,0.699,0.2c0,0.1,0,0.2-0.1,0.3c-0.1,0.5-0.1,1-0.1,1.5
		c-0.301,0.8-0.801,1.2-1.301,1.5c-0.1,0-0.1-0.1-0.1-0.1C93.442,41.5,93.641,40.4,94.442,39.4L94.442,39.4z"/>
	<path fill="#F58220" d="M95.141,39.6c-0.199-0.2-0.5-0.2-0.699-0.2l0,0c-0.801,1-1,2.1-0.9,3.4c0,0,0,0.1,0.1,0.1
		c0.5-0.3,1-0.7,1.301-1.5c0-0.5,0-1,0.1-1.5C95.141,39.8,95.141,39.7,95.141,39.6z"/>
	<path fill="#FFFCD5" d="M91.442,39.5c-0.2,0-0.301-0.1-0.4-0.1c-0.4,0-0.7,0.3-0.9,0.8c0,0,0,0.1,0.101,0.2c-0.101,0,0,0.1,0,0.1
		c0.7,0.4,1.1,0,1.2-0.8C91.442,39.6,91.442,39.6,91.442,39.5z"/>
	<path fill="#FFFCD5" d="M99.742,31.8c-0.101-0.3-0.3-0.4-0.5-0.6c-0.4-0.4-1.101-0.6-1.8-0.4c-2,0.7-3.9,2-5.5,3.6
		c-0.5,0.5-0.801,1.1-1,1.7c-0.301,0.4-0.4,0.8-0.5,1.3c0.1,0,0.199,0,0.199,0c0,0.1,0,0.1,0,0.1c0,0.1,0,0.3,0,0.4
		c-0.199,0-0.199,0.2-0.199,0.4c0,0,0,0,0,0.1c0.1-0.1,0.199-0.1,0.199-0.1c0-0.2,0.101-0.4,0.2-0.4c0-0.1,0-0.3,0.101-0.4
		c0.199,0,0.3-0.1,0.5-0.2c1.5-1.9,3.399-3.4,5.5-4.7c0.199-0.2,0.3-0.2,0.5-0.2c1,0.1,1.699,0,2.399-0.5
		C99.742,31.8,99.641,31.8,99.742,31.8z"/>
	<path fill="#FAA61A" d="M100.841,32.4c0-0.1,0-0.3,0-0.4c-0.1-0.1-0.1-0.2-0.2-0.2c0-0.2,0-0.3,0-0.4s0-0.2-0.1-0.2
		c-0.7-1-1.7-1.8-2.8-2.2c0-0.1,0-0.1,0.1-0.1c-2.899-1-5.7-1.8-8.6-2.3c-0.601,0.3-1.101,0.5-1.601,0.8
		c-0.399,0.1-0.8,0.2-1.199,0.5c-1.801,0.7-3.2,1.9-4.301,3.5c-1.3,1.2-2.3,2.8-3,4.5c-0.1,0.4-0.3,0.7-0.5,1.1
		c-0.3,0.9-0.5,1.8-0.5,2.6c-0.1,1.399-0.199,2.899-0.199,4.3c-0.101,0.4,0,0.8,0,1.2c0.399,2.3,1.699,4,4,5.2
		c0.199,0.1,0.5,0.199,0.899,0.199c0.4,0.4,0.9,0.5,1.3,0.4c0.801,0.5,1.7,0.8,2.601,0.9c0.1,0,0.1,0,0.2,0.1
		c-0.101-0.2-0.301-0.3-0.301-0.4l0,0c0.601,0.2,1,0.4,1.301,0.7c0.199,0.101,0.199,0.2,0.3,0.3c0.399,0.101,0.8,0.101,1.2,0v-0.1
		c-0.301,0-0.601-0.2-1-0.4c-0.301-0.1-0.5-0.399-0.601-0.699c-0.3-1.101-0.399-2.101-0.5-3.301c0-1.6,0.3-3.199,0.8-4.699
		c0.4-2.5,1.301-4.9,2.801-7.2c0.199-0.6,0.5-1.2,1-1.7c1.6-1.6,3.5-2.9,5.5-3.6c0.699-0.2,1.399,0,1.8,0.4
		C100.141,31.4,100.641,31.8,100.841,32.4z M90.742,28.3c0.1,0.1,0.1,0.1,0.1,0.1c-0.399,0.8-0.899,1.3-1.8,1.6
		c-0.6,0.3-1.1,0.6-1.7,1c-2.7,1.8-4.7,4.2-6.2,7c-0.1,0.3-0.3,0.5-0.5,0.8c-0.1,0.1-0.199,0.1-0.399,0.2c-0.101,0-0.3-0.1-0.4-0.2
		c-0.1-0.1-0.1-0.1-0.2-0.2c0.5-2.4,1.601-4.6,3.4-6.4c1.9-2.1,4.2-3.6,6.6-4.5C90.141,27.6,90.542,27.9,90.742,28.3z M80.442,42.5
		c0.1,0.101,0.1,0.101,0.1,0.2c-0.3,1.101-0.8,1.2-1.4,0.4c-0.199-0.2-0.199-0.3-0.199-0.5c0.199-0.101,0.199-0.2,0.3-0.2
		c0-0.1,0.2-0.2,0.2-0.2c0.1,0,0.1,0,0.199,0c0-0.1,0.101-0.2,0.301-0.1C80.141,42,80.442,42.2,80.442,42.5z"/>
	<path fill="#FFCB05" d="M90.841,28.4c0,0,0,0-0.1-0.1c-0.2-0.4-0.601-0.7-1.101-0.6c-2.399,0.9-4.699,2.4-6.6,4.5
		c-1.8,1.8-2.9,4-3.4,6.4c0.101,0.1,0.101,0.1,0.2,0.2c0.101,0.1,0.3,0.2,0.4,0.2c0.2-0.1,0.3-0.1,0.399-0.2
		c0.2-0.3,0.4-0.5,0.5-0.8c1.5-2.8,3.5-5.2,6.2-7c0.601-0.4,1.101-0.7,1.7-1C89.942,29.7,90.442,29.2,90.841,28.4z"/>
	<path fill="#FFCB05" d="M80.542,42.7c0-0.1,0-0.1-0.1-0.2c0-0.3-0.301-0.5-0.5-0.399c-0.2-0.101-0.301,0-0.301,0.1
		c-0.1,0-0.1,0-0.199,0c0,0-0.2,0.101-0.2,0.2c-0.101,0-0.101,0.1-0.3,0.2c0,0.2,0,0.3,0.199,0.5
		C79.742,43.9,80.242,43.8,80.542,42.7z"/>
	<path fill="#F15A22" d="M92.641,15.7c-0.5-0.1-0.8-0.2-1.199-0.3c0,0,0,0,0.1,0.1c-0.3,2.2-0.8,4.4-1.6,6.5c0,0.1,0,0.1,0,0.2
		c0,0.1,0,0.2,0,0.2c0,0.1,0,0.1,0,0.1c-0.101,0.3-0.301,0.4-0.5,0.5c0.1-0.2,0.1-0.4,0.1-0.6c-0.1-0.1-0.1-0.2-0.1-0.2
		c0-0.1-0.101-0.2-0.2-0.3c0.2-2.2,0.8-4.3,1.899-6.2c0-0.1,0-0.1,0-0.2s0-0.1,0-0.1l0,0c0.101,0,0.2,0,0.301,0
		c-0.2-0.1-0.301-0.1-0.301-0.2c-0.199,0-0.199,0-0.3,0c0,0.2,0,0.4,0,0.5c0,0-0.2,0-0.2,0.1c0,0,0,0,0,0.1
		c-0.199,0-0.199,0.2-0.3,0.3c-0.7,2.4-1.2,4.9-1.5,7.4c-0.1,0.2-0.2,0.3-0.3,0.4c0.1,0.3,0.1,0.6,0.1,0.9c0,0,0,0,0,0.1
		c0.2-0.1,0.301-0.1,0.4-0.1c0.8,0,1.5,0,2.2,0.1C91.641,21.9,92.141,18.8,92.641,15.7z"/>
	<path fill="#F9A870" d="M91.542,15.5c-0.1-0.1-0.1-0.1-0.1-0.1c-0.101,0-0.2,0-0.301,0l0,0c0,0,0,0,0,0.1s0,0.1,0,0.2
		c-1.1,1.9-1.699,4-1.899,6.2c0.1,0.1,0.2,0.2,0.2,0.3c0,0,0,0.1,0.1,0.2c0,0.2,0,0.4-0.1,0.6c0.199-0.1,0.399-0.2,0.5-0.5
		c0,0,0,0,0-0.1c0,0,0-0.1,0-0.2c0-0.1,0-0.1,0-0.2C90.742,19.9,91.242,17.7,91.542,15.5z"/>
	<path fill="#F15A22" d="M63.841,14.9c0.101-1.5,0.4-2.8,1-4.2c-0.899-0.1-1.7-0.1-2.7-0.1c0,0,0,0.1,0.101,0.3h-0.101
		c0,0,0,0-0.1,0.1c0,0.1,0,0.1-0.1,0.2c0,0.1,0,0.3,0,0.4c-0.301,1.9-0.7,3.7-1,5.6c-0.101,0-0.101,0.1-0.2,0.2
		c-0.101,0-0.101,0.1,0,0.2c-0.3,0.5-0.3,1-0.3,1.6c-0.101,0.2-0.2,0.5-0.301,0.7c1-0.8,2-1.5,3.101-2c0-0.1,0-0.2,0-0.3
		c0.2,0,0.2,0,0.399,0c-0.1-0.3-0.1-0.7,0-1C63.641,16,63.742,15.5,63.841,14.9z M63.242,10.9c0.2,0,0.399,0.1,0.6,0.3
		c0,0.1,0,0.1,0.101,0.2c-0.2,1.3-0.601,2.5-1.301,3.7c0,0.1-0.1,0.2-0.199,0.3h-0.2c-0.101,0-0.101-0.2-0.2-0.2
		c-0.1-0.1-0.1-0.1-0.1-0.2c0.199-1.1,0.5-2.4,0.699-3.6c0-0.2,0.2-0.3,0.301-0.4c0-0.1,0-0.1,0.1-0.1S63.141,10.9,63.242,10.9z"/>
	<path fill="#F9A870" d="M63.841,11.2c-0.2-0.2-0.399-0.3-0.6-0.3c-0.101,0-0.101,0-0.2,0s-0.1,0-0.1,0.1
		c-0.101,0.1-0.301,0.2-0.301,0.4c-0.199,1.2-0.5,2.5-0.699,3.6c0,0.1,0,0.1,0.1,0.2c0.1,0,0.1,0.2,0.2,0.2h0.2
		c0.1-0.1,0.199-0.2,0.199-0.3c0.7-1.2,1.101-2.4,1.301-3.7C63.841,11.3,63.841,11.3,63.841,11.2z"/>
	<path fill="#7670B3" d="M65.641,23.3c-0.199,0.1-0.5,0.3-0.6,0.6c-0.4,0.2-0.6,0.5-0.9,0.7c-0.5,0.6-1,1.2-1.3,1.8
		c-0.399,0.9-0.899,1.8-1.2,2.6c-0.6,1-1,2.1-1.199,3.3l0,0c-0.301,0.6-0.5,1.4-0.5,2.2c-0.101,0.9-0.301,1.7-0.5,2.5
		c2-1.1,3.899-2.2,5.699-3.6c2.7-2.1,5.601-4,8.801-5.6c0,0,0.199-0.2,0.3-0.3c0.2-0.3,0.399-0.6,0.8-0.7h0.1c0-0.1,0-0.1,0-0.2
		v-0.1c-0.1-0.1-0.199-0.1-0.399-0.1c0.1-0.2,0.2-0.4,0.2-0.5c0-0.6-0.101-1.1-0.4-1.6c0.1,0.1,0.3,0.1,0.4,0.1
		c-0.5-1.2-1.4-2.1-2.9-2.5c-0.9-0.4-1.9-0.4-2.8,0c-0.2-0.1-0.4-0.1-0.7-0.2C67.442,22,66.442,22.6,65.641,23.3z M62.242,30.3
		c-0.101-0.3-0.101-0.5,0-0.7c0.2-0.2,0.2-0.6,0.2-0.8c0.8-2.4,2.399-4.4,4.5-5.9c0.3-0.3,0.699-0.5,1.199-0.5s1,0.1,1.301,0.6
		c0,0,0,0,0.1,0.1c-0.1,0.4-0.4,0.7-0.7,0.8c-0.3,0-0.5,0-0.7,0c-1.899,1.5-3.3,3.1-4.5,5c-0.199,0.3-0.399,0.5-0.699,0.6
		c0,0.1,0,0.1,0,0.2c0,0.1,0,0.1,0,0.2c-0.101,0-0.101,0.1-0.101,0.3c-0.1-0.1-0.2,0-0.2,0c0,0.1-0.1,0.1-0.199,0.1
		C62.442,30.2,62.242,30.3,62.242,30.3z M62.242,32.6c-0.101,0-0.101,0-0.101,0.1c-0.1,0-0.199,0-0.199,0.1
		c-0.101-0.1-0.2-0.2-0.301-0.3c0-0.1,0.101-0.3,0.2-0.6c0.101,0,0.101,0,0.101,0c0.1-0.1,0.199-0.3,0.199-0.3
		c0.101,0,0.2,0,0.301,0l0,0c0,0,0.1,0.1,0.199,0.2C62.641,32,62.442,32.4,62.242,32.6z"/>
	<path fill="#95B6DF" d="M62.242,29.6c-0.101,0.2-0.101,0.4,0,0.7c0,0,0.2-0.1,0.2,0c0.1,0,0.199,0,0.199-0.1c0,0,0.101-0.1,0.2,0
		c0-0.2,0-0.3,0.101-0.3c0-0.1,0-0.1,0-0.2c0-0.1,0-0.1,0-0.2c0.3-0.1,0.5-0.3,0.699-0.6c1.2-1.9,2.601-3.5,4.5-5c0.2,0,0.4,0,0.7,0
		c0.3-0.1,0.601-0.4,0.7-0.8c-0.1-0.1-0.1-0.1-0.1-0.1c-0.301-0.5-0.801-0.6-1.301-0.6s-0.899,0.2-1.199,0.5
		c-2.101,1.5-3.7,3.5-4.5,5.9C62.442,29,62.442,29.4,62.242,29.6z"/>
	<path fill="#95B6DF" d="M62.141,32.7c0-0.1,0-0.1,0.101-0.1c0.2-0.2,0.399-0.6,0.399-0.8c-0.1-0.1-0.199-0.2-0.199-0.2l0,0
		c-0.101,0-0.2,0-0.301,0c0,0-0.1,0.2-0.199,0.3c0,0,0,0-0.101,0c-0.1,0.3-0.2,0.5-0.2,0.6c0.101,0.1,0.2,0.2,0.301,0.3
		C61.942,32.7,62.042,32.7,62.141,32.7z"/>
	<path fill="#7E5548" d="M58.841,31.4c0.101-0.5,0.3-1.1,0.4-1.7c-2.601,1.3-5.101,3-7.4,4.8c1.5,0.3,2.8,1.1,3.601,2.6
		c0.1,0.1,0.1,0.1,0.1,0.2s0.1,0.1,0.1,0.2c0.101,0.4,0.2,0.8,0.301,1.1c0,0.1,0,0.1,0,0.2c0.1-0.1,0.199-0.2,0.399-0.3
		c0.7-0.2,1.4-0.6,2.101-1C58.242,35.5,58.442,33.4,58.841,31.4z"/>
	<path fill="#FAA61A" d="M51.142,19.4c-0.1,0-0.2-0.2-0.3-0.2c-1,0-2.1-0.1-3-0.3c-2.3-0.1-4.4,0.8-6.4,2.7c-2,2-3.3,4.4-3.9,7.3
		c-0.6,2.5-0.3,5,0.6,7.5c0.4-0.5,0.8-0.8,1.3-1.1c1.3-0.9,2.5-1.6,3.8-2.3c0.7-0.6,1.5-1.2,2.2-1.9c0.2-0.2,0.5-0.3,0.7-0.5
		c0,0,0,0,0.1,0l0,0c-0.1-0.1-0.1-0.1-0.1-0.1l0,0c0,0,0-0.1,0.1-0.1c0-0.1,0-0.3,0-0.5c0-0.1,0-0.2,0.2-0.3c0-0.1,0-0.2,0-0.2
		s0-0.1,0.1-0.1c0-0.1,0-0.1,0-0.2c0.1-0.1,0.1-0.1,0.1-0.1c0-0.1,0-0.1,0-0.1c0.1-0.5,0.2-0.9,0.3-1.2c0.1-0.2,0.2-0.3,0.2-0.4
		s0.1-0.2,0.1-0.3s0-0.2,0.1-0.3c0.1-0.1,0.1-0.1,0.1-0.1h0.1c0.1-0.3,0.3-0.6,0.4-0.9c0.2-0.4,0.5-0.8,0.7-1.2c1-1.7,2.3-3,4-3.7
		c0.101,0,0.2,0,0.2,0c0.2-0.2,0.4-0.3,0.601-0.4c0.1,0,0.199,0,0.3,0c0.2,0,0.399,0.1,0.5,0.1c0,0,0,0,0-0.1l0,0v-0.1
		c0-0.1,0-0.1,0-0.1c-0.101,0-0.101,0-0.101-0.1C53.141,19.6,52.242,19.4,51.142,19.4z M47.142,19.5c0.1,0.1,0.2,0.1,0.3,0.1
		c-0.2,0.9-0.9,1.5-2,1.8c-0.2,0-0.3,0-0.3,0.1c-2.4,1.8-4.2,3.9-5.7,6.4c0,0.1-0.2,0.3-0.3,0.4c0,0.1,0,0.1,0,0.1s0,0,0,0.1
		c-0.2,0.1-0.2,0.3-0.3,0.3c0,0-0.2,0-0.2,0.1c0-0.1-0.2-0.1-0.2-0.2c0-0.1,0-0.1-0.1-0.1c0-0.1,0-0.1,0-0.2c0,0,0,0,0.1,0
		c0-0.2,0-0.3,0.1-0.4c0.1-1.9,0.9-3.6,2.5-5.1c1.2-1.3,2.6-2.3,4.1-3c0.5-0.3,0.8-0.4,1.2-0.5c0.3,0,0.5,0,0.6,0
		S47.142,19.4,47.142,19.5z M40.042,29.7c0.1,0.1,0.1,0.2,0.1,0.2c-0.3,0.9-0.9,1-1.7,0.5c-0.1-0.6,0.2-1,1-1.1
		C39.742,29.3,39.941,29.4,40.042,29.7z"/>
	<path fill="#FFCB05" d="M47.441,19.6c-0.1,0-0.2,0-0.3-0.1c0-0.1-0.1-0.1-0.2-0.1s-0.3,0-0.6,0c-0.4,0.1-0.7,0.2-1.2,0.5
		c-1.5,0.7-2.9,1.7-4.1,3c-1.6,1.5-2.4,3.2-2.5,5.1c-0.1,0.1-0.1,0.2-0.1,0.4c-0.1,0-0.1,0-0.1,0c0,0.1,0,0.1,0,0.2
		c0.1,0,0.1,0,0.1,0.1c0,0.1,0.2,0.1,0.2,0.2c0-0.1,0.2-0.1,0.2-0.1c0.1,0,0.1-0.2,0.3-0.3c0-0.1,0-0.1,0-0.1s0,0,0-0.1
		c0.1-0.1,0.3-0.3,0.3-0.4c1.5-2.5,3.3-4.6,5.7-6.4c0-0.1,0.1-0.1,0.3-0.1C46.542,21.1,47.242,20.5,47.441,19.6z"/>
	<path fill="#FFCB05" d="M40.142,29.9c0,0,0-0.1-0.1-0.2c-0.1-0.3-0.3-0.4-0.6-0.4c-0.8,0.1-1.1,0.5-1,1.1
		C39.242,30.9,39.841,30.8,40.142,29.9z"/>
	<path fill="#FFF200" d="M52.841,20.8c0,0-0.1,0-0.2,0c-1.7,0.7-3,2-4,3.7c-0.2,0.4-0.5,0.8-0.7,1.2c-0.1,0.3-0.3,0.6-0.4,0.9h-0.1
		c0,0,0,0-0.1,0.1c-0.1,0.1-0.1,0.2-0.1,0.3s-0.1,0.2-0.1,0.3s-0.1,0.2-0.2,0.4c-0.1,0.3-0.2,0.7-0.3,1.2c0,0,0,0,0,0.1
		c0,0,0,0-0.1,0.1c0,0.1,0,0.1,0,0.2c-0.1,0-0.1,0.1-0.1,0.1s0,0.1,0,0.2c-0.2,0.1-0.2,0.2-0.2,0.3c0,0.2,0,0.4,0,0.5
		c-0.1,0-0.1,0.1-0.1,0.1l0,0c0,0,0,0,0.1,0.1c0.2-0.2,0.4-0.2,0.5-0.3c0.9-0.7,1.7-1.3,2.5-1.9c0.2-0.1,0.2-0.2,0.4-0.4
		c0.5-0.3,0.8-0.6,1.3-0.8c0,0,0,0,0.1-0.1c1.4-1.1,2.9-2.2,4.4-3.2c0-0.1,0-0.1,0-0.1s0-0.1-0.101-0.2c0.101,0,0.101,0,0.2,0
		c0.1-0.1,0.1-0.1,0.1-0.2c0,0,0-0.1,0-0.2c0,0,0-0.1,0-0.2s0-0.1,0-0.1c0-0.1,0-0.3,0-0.3c0.101-0.3,0.101-0.7,0-0.9
		c-0.3-0.5-0.699-0.9-1.199-1.3c0-0.1-0.101-0.1-0.2-0.1v0.1l0,0c0,0.1,0,0.1,0,0.1c0.3,0.1,0.6,0.4,0.7,0.7c0.1,0,0.1,0,0.1,0.1
		c0,0.5-0.2,0.7-0.8,0.8c-0.101,0-0.3-0.1-0.4-0.1c-1,0.5-2,1.2-2.9,2c-0.1,0.2-0.2,0.4-0.3,0.4c-0.2,0.1-0.4,0.1-0.5,0.2
		c0-0.1,0-0.1,0-0.2c-0.1,0-0.2-0.1-0.2-0.2c0-0.2,0.1-0.3,0.2-0.4c0-0.1,0-0.2,0.1-0.3c0-0.1,0-0.2,0-0.2c0-0.1,0-0.2,0-0.3
		C50.941,22,51.841,21.3,52.841,20.8z"/>
	<path fill="#FFFCD5" d="M54.242,20.5c-0.101,0-0.3-0.1-0.5-0.1c-0.101,0-0.2,0-0.3,0c-0.2,0.1-0.4,0.2-0.601,0.4
		c-1,0.5-1.9,1.2-2.6,2.2c0,0.1,0,0.2,0,0.3c0,0,0,0.1,0,0.2c-0.1,0.1-0.1,0.2-0.1,0.3c-0.1,0.1-0.2,0.2-0.2,0.4
		c0,0.1,0.1,0.2,0.2,0.2c0,0.1,0,0.1,0,0.2c0.1-0.1,0.3-0.1,0.5-0.2c0.1,0,0.2-0.2,0.3-0.4c0.9-0.8,1.9-1.5,2.9-2
		c0.101,0,0.3,0.1,0.4,0.1c0.6-0.1,0.8-0.3,0.8-0.8c0-0.1,0-0.1-0.1-0.1C54.841,20.9,54.542,20.6,54.242,20.5z"/>
	<path fill="#7E5548" d="M53.442,39.6c0,0,0,0,0-0.1c-0.301-1.1-1-1.8-2.101-2.1c-0.4-0.2-0.9-0.4-1.4-0.4c-0.2-0.1-0.4-0.2-0.5-0.4
		c-0.7,0.7-1.3,1.3-2,2c-0.4,0.4-0.6,0.9-0.8,1.4c0,0.1,0,0.2,0,0.3s0,0.1,0,0.2c0.1,0.101,0.1,0.2,0.1,0.301
		C48.941,40.7,51.142,40.3,53.442,39.6z"/>
	<path fill="#FAA61A" d="M44.841,56.2c-0.1,0.101-0.2,0.101-0.2,0.3c-0.3,0.301-0.5,0.7-0.8,1c-1.4,1.801-1.9,3.601-1.9,5.7
		c-0.7,2.101-0.3,4.101,1.1,6.101c1.2,1.699,2.9,2.6,4.9,2.899c0,0,0,0,0.1,0c0.4,0.3,0.9,0.4,1.4,0.5c0.5,0,0.9-0.1,1.4-0.1
		c-0.3-0.101-0.5-0.3-0.7-0.4c-1.2-1-1.7-2.1-1.7-3.6c0-0.8,0-1.601,0-2.3c0.1-2,0.6-3.801,1.5-5.5c0.2-0.5,0.3-1,0.6-1.5
		c0.1-0.2,0.2-0.301,0.3-0.5c0.6-1,1.3-1.801,2.3-2.4c0.2-0.2,0.5-0.6,0.7-0.8c0.601-0.601,1.3-1,2.101-1.101
		c0.6-0.1,1.199,0,1.699,0.301c0.101-0.101,0.101-0.101,0.2-0.101c0-0.1,0-0.1,0.101-0.1l0,0c0-0.101,0-0.101,0.1-0.101
		c0-0.1,0-0.199,0-0.199c-0.1,0-0.1,0-0.1-0.101c-1.101-0.6-2.301-0.899-3.4-1.2c-0.8-0.199-1.6-0.399-2.4-0.5
		c-0.6,0-1.1,0.101-1.6,0.301C48.242,53.5,46.441,54.6,44.841,56.2z M49.441,55c-0.5,0.301-1.1,0.801-1.6,1.2
		c-1.5,1.3-2.5,2.8-3,4.601c-0.2,0.199-0.4,0.3-0.7,0.5c-0.2-0.101-0.3-0.301-0.4-0.301c-0.1,0-0.1,0-0.1-0.1c0-2.7,1.3-4.9,3.8-6.4
		c1.4-1,2.8-1.5,4.5-1.6c0.1,0.1,0.2,0.1,0.4,0.2c0.101,0.1,0.101,0.1,0.101,0.2c-0.301,0.699-1,1.199-2.101,1.399
		C50.042,54.8,49.742,54.8,49.441,55z M43.042,62.6c0.3,0,0.5,0.3,0.6,0.7l0,0c-0.4,0.899-0.8,1-1.6,0.5c0-0.101,0-0.2,0-0.301V63.3
		c0.2-0.301,0.5-0.5,0.8-0.7C42.941,62.6,42.941,62.6,43.042,62.6z"/>
	<path fill="#FFCB05" d="M47.841,56.2c0.5-0.399,1.1-0.899,1.6-1.2c0.3-0.199,0.6-0.199,0.9-0.3c1.1-0.2,1.8-0.7,2.101-1.399
		c0-0.101,0-0.101-0.101-0.2c-0.2-0.101-0.3-0.101-0.4-0.2c-1.7,0.1-3.1,0.6-4.5,1.6c-2.5,1.5-3.8,3.7-3.8,6.4c0,0.1,0,0.1,0.1,0.1
		c0.1,0,0.2,0.2,0.4,0.301c0.3-0.2,0.5-0.301,0.7-0.5C45.341,59,46.341,57.5,47.841,56.2z"/>
	<path fill="#FFCB05" d="M43.642,63.3c-0.1-0.4-0.3-0.7-0.6-0.7c-0.1,0-0.1,0-0.2,0c-0.3,0.2-0.6,0.399-0.8,0.7V63.5
		c0,0.101,0,0.2,0,0.301C42.841,64.3,43.242,64.2,43.642,63.3L43.642,63.3z"/>
	<path fill="#FFFCD5" d="M55.942,54.5c-0.801,0.101-1.5,0.5-2.101,1.101c-0.2,0.2-0.5,0.6-0.7,0.8c-0.899,1-1.5,2.1-1.899,3.3
		c0,0.101-0.1,0.101-0.1,0.101c-0.2,0.199-0.2,0.399-0.3,0.6c-0.1,0.1-0.1,0.1-0.1,0.2c0.1,0,0.1,0.1,0.2,0.2c0,0,0,0,0.1,0
		s0.1,0,0.2,0c0.2-0.2,0.2-0.301,0.4-0.5c0-0.101,0-0.2,0.2-0.301c1.101-1.1,2.3-2.399,3.3-3.699c0.301-0.301,0.7-0.5,1.101-0.4
		c1.1,0.1,1.899-0.1,2.5-0.6C58.641,55.2,58.641,55.2,58.641,55.2c-0.3-0.2-0.6-0.399-1-0.399C57.141,54.5,56.542,54.4,55.942,54.5z
		"/>
	<path fill="#FFF200" d="M56.242,55.9c-0.4-0.1-0.8,0.1-1.101,0.4c-1,1.3-2.199,2.6-3.3,3.699c-0.2,0.101-0.2,0.2-0.2,0.301
		c-0.2,0.199-0.2,0.3-0.4,0.5c-0.1,0-0.1,0-0.2,0s-0.1,0-0.1,0c-0.1-0.101-0.1-0.2-0.2-0.2c0-0.101,0-0.101,0.1-0.2
		c0.1-0.2,0.1-0.4,0.3-0.6c0,0,0.1,0,0.1-0.101c0.4-1.2,1-2.3,1.899-3.3c-1,0.6-1.7,1.4-2.3,2.4c-0.1,0.199-0.2,0.3-0.3,0.5
		c-0.3,0.5-0.4,1-0.6,1.5c-0.9,1.699-1.4,3.5-1.5,5.5c0,0.699,0,1.5,0,2.3c0,1.5,0.5,2.6,1.7,3.6c0.2,0.101,0.4,0.3,0.7,0.4
		c0.6,0.2,1.3,0.2,2.101,0c1.3-0.5,2.5-1.4,3.3-2.4c1.1-0.899,1.899-1.899,2.6-3.2c1.101-2.399,1.601-4.699,1.601-7.199
		c0-0.601,0-1.301-0.2-1.801c-0.3-1.699-1.101-2.699-2.3-3.399c-0.101,0-0.101,0-0.101,0.1c-0.1,0-0.1,0-0.2,0.101
		c0.4,0,0.7,0.199,1,0.399c0,0,0,0,0.101,0.101C58.141,55.8,57.341,56,56.242,55.9z M52.942,63.3c0,0,0.1-0.101,0.199-0.2
		c0-0.101,0-0.101,0-0.101c0.2-0.699,0.601-1.1,1.301-1.399c0.199-0.101,0.399-0.2,0.699-0.101c1.801,0,2.5,0.801,2.101,2.5
		c-0.101,0.5-0.4,0.9-0.9,1.2c-0.6,1.3-1.5,1.601-2.7,1c-0.5-0.399-0.8-0.8-0.8-1.399C52.841,64.3,52.841,63.8,52.942,63.3z
		 M49.642,64c-0.1,0-0.2-0.1-0.2-0.199c0-0.5,0.3-1,0.8-1.301c0.2,0,0.2,0,0.4-0.1c0.1,0.1,0.2,0.1,0.3,0.2c0.1,0.1,0.1,0.2,0.1,0.2
		c-0.1,0.399-0.4,0.699-0.7,1c-0.1,0.1-0.1,0.199-0.1,0.199c-0.1,0-0.2,0-0.3,0c0,0,0,0-0.1,0C49.742,64,49.642,64,49.642,64z"/>
	<path d="M53.141,63.1c-0.1,0.1-0.199,0.2-0.199,0.2c-0.101,0.5-0.101,1-0.101,1.5c0,0.6,0.3,1,0.8,1.399c1.2,0.601,2.101,0.3,2.7-1
		c0.5-0.3,0.8-0.7,0.9-1.2c0.399-1.699-0.3-2.5-2.101-2.5c-0.3-0.1-0.5,0-0.699,0.101c-0.7,0.3-1.101,0.7-1.301,1.399
		C53.141,63,53.141,63,53.141,63.1z M54.341,63c0.101-0.1,0.101-0.1,0.101-0.199c0.1,0,0.199-0.101,0.199-0.2
		c0.5,0.1,0.9,0.2,1.301,0.2c0,0.1,0,0.199,0,0.199c0,0.301,0,0.601,0,1c-0.5,0.4-1,0.801-1.301,1.301c0,0-0.1,0-0.199,0
		C53.942,64.6,53.841,63.8,54.341,63z"/>
	<path fill="#F58220" d="M54.442,62.8c0,0.1,0,0.1-0.101,0.199c-0.5,0.801-0.399,1.601,0.101,2.301c0.1,0,0.199,0,0.199,0
		c0.301-0.5,0.801-0.9,1.301-1.301c0-0.399,0-0.699,0-1c0,0,0-0.1,0-0.199c-0.4,0-0.801-0.101-1.301-0.2
		C54.641,62.7,54.542,62.8,54.442,62.8z"/>
	<path fill="#FFFCD5" d="M49.441,63.8c0,0.1,0.1,0.199,0.2,0.199c0,0,0.1,0,0.2,0c0.1,0,0.1,0,0.1,0c0.1,0,0.2,0,0.3,0
		c0,0,0-0.1,0.1-0.199c0.3-0.301,0.6-0.601,0.7-1c0,0,0-0.101-0.1-0.2c-0.1-0.101-0.2-0.101-0.3-0.2c-0.2,0.1-0.2,0.1-0.4,0.1
		C49.742,62.8,49.441,63.3,49.441,63.8z"/>
	<path d="M7.941,78.2c0,0.101,0,0.2,0,0.2c0,0.1,0,0.2-0.1,0.2c0.1,0,0.3,0,0.4,0c-0.1-0.101-0.1-0.2-0.2-0.4H7.941z"/>
</g>
</svg>
