<?xml version="1.0" encoding="utf-8"?>
<!-- Generator: Adobe Illustrator 13.0.0, SVG Export Plug-In . SVG Version: 6.00 Build 14948)  -->
<svg version="1.2" baseProfile="tiny" id="Layer_1" xmlns="http://www.w3.org/2000/svg" xmlns:xlink="http://www.w3.org/1999/xlink"
	 x="0px" y="0px" width="107.427px" height="92.8px" viewBox="0 0 107.427 92.8" xml:space="preserve">
<g>
	<path d="M73.464,0c-0.801,0.1-1.5,0.3-2.301,0.5c-4.199,0.9-8.199,2.3-12,4.4c-3,1.7-6,3.4-9,5.3c-0.9,0.8-1.7,1.6-2.5,2.5
		c-1.5,1.6-2.9,3.3-4.1,5.1c-2.1,3.1-3.9,6.4-5.2,9.8c-0.4,0.8-0.9,1.6-1.5,2.2c0.1,0,0.1,0.1,0.1,0.2c-0.8,0.8-2,1.1-3.3,0.8
		c-0.7-0.1-1.2-0.2-1.8-0.4c-3.9-1-7.9-0.9-11.6,0.2c-1.8,0.6-3,1.7-3.6,3.3c-0.1,0.3-0.2,0.5-0.2,0.8c0.2,0.3,0.4,0.9,0.5,1.5
		c0,0.4,0.1,0.8,0.2,1.4c0.8,0.7,2,1.3,3.5,1.8c1.6,0.5,3.1,0.9,4.7,1.3c1.5,0.3,2.2,0.6,2.1,1c-0.1,0.2-0.2,0.7-0.3,1.6
		c0,0.7,0,1.1,0,1.3c0,4.3-0.2,8.601-0.5,12.8l0,0c0,0.101,0.1,0.2,0.1,0.301c0.4,1.3,0.7,2.6,1.2,4c0.6,0.6,1.1,1.3,1.5,2
		c0,0.1,0,0.199,0.1,0.3c-0.1,0.2-0.1,0.2-0.1,0.3c-0.1,0.1-0.1,0.3-0.2,0.3c-0.1,0.101-0.3,0.101-0.4,0
		c-0.1,0.101-0.2,0.101-0.2,0.101c-1.2,0.5-2.5,1-3.7,1.699c-1.4,0.7-2.8,1.301-4.1,1.801c-2.4,1-5,1.8-7.5,2.399
		c-1.1,0.3-2.2,0.601-3.2,0.8c-1.2,0.5-2.4,0.5-3.4,0.301c-0.8-0.4-1.4-0.9-2.1-1.5c0-0.101-0.1-0.2-0.2-0.301
		c-0.3-1-0.4-1.8-0.1-2.699c0-0.4,0-0.801,0.1-1.4c0.3-1.1,1-1.9,2.2-2.1c1.7,0.199,2.3,1,1.7,2.3v0.1c0.4,1.101,1.3,1.3,2.6,0.8
		c0.2-0.1,0.3-0.199,0.5-0.3c0.9-0.899,1.3-2,1.2-3.399c0-0.5-0.2-0.801-0.2-1.2c-0.4-1-1-1.7-1.8-2c0-0.2-0.1-0.3-0.2-0.4
		c-0.1-0.3-0.3-0.5-0.5-0.7c-1.2-0.1-2.3-0.1-3.4,0.2c-1.1,0.2-2.3,0.7-3.4,1.4c0,0.1-0.2,0.2-0.2,0.2c-0.7,1-1.3,2.199-2.1,3.199
		c-0.1,0.101-0.1,0.2-0.2,0.301v0.199l-0.1,0.2c-0.2,0.4-0.4,0.9-0.4,1.4c-0.3,1.7-0.2,3.399,0.4,4.899c0.1,0.301,0.4,0.7,0.6,1
		c0,0,0.1,0.2,0.2,0.301c0.5,0.699,1.1,1.199,1.8,1.8c0,0.1,0,0.1,0,0.2c0.5,0.199,0.8,0.5,1.2,0.699c0.3,0.101,0.6,0.301,1,0.301
		c4.4-0.2,8.6-1.2,12.8-2.7c0.5-0.101,1-0.3,1.5-0.5c3.8-1.101,7.5-2.601,10.8-4.8c0.7-0.5,1.4-0.801,2.1-1h0.1l0,0
		c0.1-0.101,0.3-0.101,0.4-0.101c3.9,1.5,7.9,2.9,11.9,4.101c2.2,0.8,4.4,0.8,6.5,0.3c0.2-0.101,0.7-0.101,1.1-0.101c0,0,0,0,0.1,0
		c0,0,0.1,0,0.2-0.199l0,0c0.1,0,0.2,0,0.3,0.199l0,0c0.1,0,0.2,0,0.2-0.199c0,0.199-0.1,0.199-0.2,0.3c0.1,0.2,0.2,0.5,0.1,0.7h0.1
		c0,0.899-0.1,1.8-0.2,2.899c-0.1,1.101-0.2,1.8-0.2,2.5c0,0.5,0,0.9,0,1c0,0,0,0.101,0,0.5c0,0.3-0.1,0.601-0.2,1.101
		c0,0.399-0.1,0.8-0.3,1.399c-0.1,0.4-0.3,1.101-0.7,2c-1.3,0.5-2.8,1.101-4.3,1.5c-1.8,0.5-3.6,1.2-5.4,1.7
		c-0.6,0.3-1.3,0.5-1.9,0.8c-1.7,0.7-3.5,1.2-5.5,1.4c-0.7,0-1.4-0.101-2-0.4c-1.3-0.6-1.9-1.6-1.5-2.899c0-0.2,0-0.601-0.1-0.801
		c0-0.199,0-0.3,0.1-0.399c0-0.2,0.1-0.3,0.2-0.5l1.2,0.7c0.2,0,0.4,0,0.6,0.199h1.2c0.5-0.6,1-1.199,1.3-1.899
		c0.3-0.3,0.4-0.5,0.5-1c0-0.4,0-0.9-0.1-1.2c-0.1-0.6-0.2-1.2-0.4-1.7c-0.7-0.399-1.3-0.7-2-1.1c-0.3-0.101-0.7-0.101-1,0
		c-1,0.1-2,0.399-3,0.6c-0.4,0.3-0.8,0.5-1.2,0.8c-0.5,0.2-0.9,0.5-1.3,0.801l-1.4,2.399v5c0.7,1,1.4,2.101,2.2,3.101
		c0.7,0.699,1.6,1.5,2.5,2c0.7,0.399,1.5,0.899,2.2,1.1c2.5-0.7,5-1.6,7.3-2.6c0.5-0.301,1-0.4,1.5-0.601c3.7-1.1,7.3-2.3,11-3.6
		c1.1-0.4,2.2-0.8,3.3-1.2c3.6-1.3,7-2.7,10.399-4.2c3.601-1.5,7.301-3.1,10.801-4.8c3-1.5,6-3.1,8.8-4.9
		c0.2-0.199,0.6-0.399,0.899-0.5c2-0.6,3.801-1.5,5.601-2.6c0.5-0.2,1.1-0.5,1.5-0.6h0.1c0-0.2-0.1-0.5-0.2-0.601
		c0-0.3-0.1-0.6-0.199-0.8c-0.2-0.1-0.301-0.2-0.5-0.3c-1.101-0.3-2.301-0.601-3.4-0.8l-4.2,2.3c-0.399,0.2-0.7,0.6-1,0.8
		c-0.399-0.8-0.7-1.5-1-2.3c-0.399-0.8-0.7-1.601-0.899-2.5c-0.101-1-0.101-1.8,0.1-2.7c0.1,0,0.2-0.3,0.5-0.9
		c0.1-0.1,0.1-0.1,0.2-0.199c0,0,0-0.2,0.1-0.301c1-0.6,2.101-1.3,3.3-2c0.7-0.699,1.5-1.5,2.301-2.1c1.5-1.6,2.6-3.4,3.5-5.3
		c0.199-0.7,0.399-1.3,0.5-2c0-0.101,0-0.101,0.1-0.2c0.8-3.5,1.6-7,2.6-10.5s2.601-6.5,4.801-9.2c0.5-0.6,1-1.1,1.6-1.6
		c0.6-0.6,1.1-1.1,1.8-1.6c1.8-1.4,2.8-3.1,3.3-5.1c0.4-1.5,0.301-2.8,0-4.3c-0.5-1.7-1.199-3.1-2.199-4.5
		c-2.601-3.2-5.7-5.5-9.5-6.7c-1.2-0.4-2.301-1-3.301-1.6c0-0.1-0.1-0.1-0.199-0.1c-0.5-0.1-1-0.1-1.5-0.3
		c-3.101-0.8-6.101-1.3-9.101-1.5C78.664,0,76.064,0,73.464,0z M54.764,9.1c0.899-0.6,1.7-1.1,2.6-1.5c0.9-0.3,1.8-0.8,2.601-1.3
		c0.399-0.2,0.699-0.5,1.1-0.7c-0.1,0.1-0.1,0.1,0,0.2c0.1-0.2,0.4-0.2,0.6-0.3c0.101-0.2,0.301-0.3,0.5-0.4
		c0.2-0.1,0.5-0.1,0.7-0.2c0.101-0.1,0.101-0.1,0.101-0.1c2.699-1.1,5.5-2,8.399-2.5c1.3-0.2,2.8-0.3,4.101-0.5
		c3.199,0,6.5,0.3,9.699,0.9c3.101,0.6,6.2,1.6,9.301,2.7c2.399,0.9,4.699,2.1,6.699,3.7c1.5,1,2.4,2.4,2.9,3.9c0,0,0,0.1,0.1,0.1
		c0.2,0.2,0.4,0.3,0.5,0.5h0.101c0,0,0,0,0,0.1c0.2,0.1,0.3,0.3,0.399,0.5c0,0.1,0,0.1,0,0.1s0,0.2,0,0.3l0,0
		c0.101,0.7,0.301,1.3,0.4,2c0.1,0.2,0.1,0.6,0,0.9c-0.1,0.3-0.1,0.7-0.1,1.1c-0.601,0.7-1.2,1.5-1.801,2.3c-0.5,0.6-1,1.2-1.5,1.9
		l-3.6,1.5c1.4-0.8,2.1-2.2,2.3-3.9c0.101-1.4-0.1-2.9-0.899-4.2c-0.2-0.4-0.5-0.8-0.801-1.2c-0.199-0.4-0.5-0.8-1-1.2
		c-1.199-1.3-2.6-2.5-4.199-3.5c-1.601-1-3.2-1.7-4.9-2.3c-3-1-6.1-1.4-9.4-1.2c-3,0-5.899,0-8.899,0.2c-0.4,0-0.9,0-1.3,0.1
		c-1.5,0.4-3,0.8-4.5,1.2c-3.801,1-7.301,2.7-10.4,5.2c-3.1,2.5-5.9,5.3-8.3,8.5c-1.3,1.7-2.4,3.4-3.3,5.2c-0.4,0.7-0.8,1.4-1.2,2.1
		v0.1c-0.3,0.5-0.5,1-0.8,1.4c0,0.1-0.1,0.2-0.1,0.4c0.1,0,0.1,0.2,0,0.5c0,0.1,0,0.1-0.1,0.1c0.2,0.2,0.2,0.5,0,0.6h-0.1
		c-0.7,0-1.5-0.1-2-0.6c-0.1,0-0.1-0.1-0.1-0.1c0.1-0.3,0.1-0.5,0.1-0.7l0,0c0.3-0.5,0.5-1.1,0.7-1.6c1-3,2.4-5.8,4.2-8.5
		c0.5-0.7,0.9-1.4,1.4-2.1c0.8-1.4,1.8-2.6,3-3.8C50.164,13,52.464,10.9,54.764,9.1z M64.664,10c0.5-0.2,1-0.4,1.5-0.5
		c1.5-0.5,3-0.9,4.601-0.9c3-0.1,5.899-0.3,8.899-0.4c3.301-0.1,6.301,0.4,9.301,1.3c1.6,0.6,3.1,1.4,4.5,2.3
		c0.199,0.2,0.5,0.3,0.8,0.5c1.3,0.7,2.3,1.6,3.2,2.7c0.5,0.6,0.899,1.3,1.399,2c0,0.1,0,0.1,0.101,0.2c0.199,0.6,0.399,1.1,0.5,1.7
		c0.3,1.6-0.101,3-1.2,4.2c-0.5,0.5-0.8,1.2-1.2,1.7c0.1,0,0.1,0,0.1,0.1l-2,0.9c-0.399,0.3-0.699,0.7-1.199,0.8
		c-1,0.5-2.101,1-3.2,1.4c-0.101,0.2-0.101,0.3-0.2,0.4s-0.3,0.1-0.4,0.1c-0.6,0.4-1.199,0.8-1.699,1.3c-2.101-0.8-4.4-1.5-6.801-2
		c-0.899-0.2-1.899-0.5-2.8-0.8c-3.2-1-6.3-1.5-9.6-1.7c-0.9,0-1.8,0-2.8,0.2h-0.101c-0.899-0.2-1.7-0.2-2.399-0.2
		c-2.601,0.7-5.2,1.9-7.5,3.5c-1.5,0.8-2.7,2-3.601,3.4c-0.9,1.3-1.4,2.7-1.6,4.3c-0.1-0.1-0.2-0.1-0.3-0.1c-0.5-0.1-1-0.4-1.3-0.6
		c-0.1,0-0.1,0-0.2,0c-0.4-0.2-0.8-0.5-1.3-0.8c-0.2,0-0.5,0-0.7-0.2c-0.5-0.2-1-0.5-1.5-0.6c-1-0.2-1.8-0.4-2.5-0.9
		c-0.4-0.1-0.8-0.3-1.3-0.5l0,0c-0.1-0.1-0.1-0.2,0-0.4v-0.1l0,0l0,0c0.2-0.3,0.3-0.5,0.3-0.7c0.5-1,1-2.1,1.7-3.1
		c0.1-0.4,0.2-0.7,0.3-1c1.2-1.9,2.5-3.7,3.8-5.5c1.4-1.7,2.9-3.4,4.6-5c0.7-0.7,1.5-1.4,2.2-2c0.3-0.2,0.6-0.4,0.9-0.7
		c0.5-0.4,1.1-0.8,1.699-1.2c0.101-0.1,0.301-0.1,0.4-0.3c0.1,0,0.2-0.2,0.3-0.2c0.2,0,0.3-0.1,0.4-0.2
		C60.664,11.3,62.664,10.5,64.664,10z M34.964,32.3c0.9,0.2,1.8,0.5,2.7,0.9c3,0.7,6,1.6,8.8,2.6c0.7,0.1,1.3,0.5,1.7,1
		c0.1,0.1,0.1,0.2,0,0.4c0.1-0.1,0.1-0.1,0.2-0.1h0.1c0,0.1,0,0.1,0.2,0.1c0,0,0,0,0,0.1l0,0c-0.2,0.4-0.6,0.7-1,1
		c-0.1,0-0.2,0.1-0.2,0.2c-0.1,0.1-0.3,0.1-0.3,0.1c-0.2,0.2-0.2,0.4-0.5,0.6c0,0,0,0,0,0.1c-0.2,0.6-0.4,1.3-0.7,1.9
		c0,0.4,0,0.7,0,1.1c0,0.3,0.1,0.5,0.3,0.9c0.1,0.1,0.2,0.4,0.2,0.6c0.2,0.5,0,0.7-0.5,0.5c-0.3,0-0.6-0.2-1-0.3
		c-1.2-0.4-2.5-0.7-3.7-0.8c-0.6,0-1.1-0.2-1.5-0.4c-4.5-1.4-9.1-2.5-13.7-3.6c-0.6-0.3-1.3-0.4-1.9-0.4c-2.2-0.2-4.2-1.1-5.7-2.6
		c0-0.3,0-0.5,0-0.9c-0.3-0.7-0.2-1.5,0.3-2c0.2-0.3,0.4-0.5,0.6-0.6c0.8-0.5,1.8-0.9,2.7-1c1.1-0.4,2.3-0.4,3.3-0.5
		C28.564,31.2,31.764,31.5,34.964,32.3z M29.764,42.6c-0.1-0.2-0.1-0.3-0.1-0.3c-0.1,0-0.1,0,0-0.1c0-0.1,0-0.2,0.1-0.2h0.2
		c1.5,0.4,3.1,0.8,4.7,1.2c0.9,0.1,1.8,0.4,2.7,0.7c0.2,0,0.3,0,0.4,0.1c1.7,0.4,3.2,0.8,4.7,1c1.6,0.3,3.1,0.8,4.6,1.3
		c0.1,0.1,0.2,0.1,0.4,0.2c0.3,0.2,0.7,0.3,1,0.399c0.2,0,0.5,0,0.7,0c0.3,0,0.5,0,0.8,0c0.2,0,0.5-0.1,0.7-0.1h0.1
		c1.6-0.4,2.4-1.2,2.7-2.6c0.3-1.4-0.1-2.4-1.5-2.7c-0.5-0.2-0.9-0.1-1.2,0.4c-0.4,0.9-0.3,1.5,0.4,2c-0.5,0.7-1,1-1.8,0.8
		c0-0.1-0.2-0.2-0.2-0.3c-0.5,0.2-1-0.3-1.4-1.2c-0.2-0.6-0.3-1.4-0.3-2.1c0.3-0.8,1-1.4,1.8-1.8c0.5-0.3,1.1-0.5,1.5-0.6
		c2.2-0.1,3.899,0.6,5.2,2.4c0,0.1,0,0.1,0.199,0.1c0,0.5,0,0.9,0,1.2c0,0.2,0,0.2,0,0.2l0.301,0.4c-0.101,0.5-0.2,1-0.301,1.5
		c0,0.4,0,0.8,0,1.3c-0.3,1.6-0.5,3.2-0.6,4.9c-0.1,1.5-0.2,3.1-0.2,4.6c-0.1,1,0.2,2.1,0.8,3c0.301,0.6,0.801,1.1,1.5,1.4
		c5-0.4,10-1.4,14.801-3.4c1.199-0.4,2.5-1,3.6-1.8c0.4-0.2,0.9-0.601,1.3-0.9c-0.1,0-0.1-0.2-0.1-0.2c1.2-2,2.2-4.1,2.899-6.199
		c0.601-1.7,1.2-3.4,1.601-5.2c0.399-0.9,0.7-1.7,0.899-2.7c0.2-0.3,0.301-0.6,0.301-0.9c1.899-3.2,4.399-5.9,7.699-7.9
		c2.301-1.5,4.9-2.6,7.5-3.4c0.101-0.1,0.101-0.1,0.2-0.1l0,0c0.101-0.1,0.101-0.1,0.2-0.1s0.1,0,0.2-0.1c0.1,0,0.2,0,0.399,0.1
		c0,0.1,0,0.1,0.101,0.1c-0.3,0.3-0.5,0.7-0.8,1c0,0.1-0.101,0.2-0.101,0.3c-0.399,0-0.7,0.2-0.899,0.4
		c-0.101,0.1-0.101,0.1-0.101,0.2c-0.2,0.1-0.2,0.1-0.2,0.1l0,0c-0.1,0.1-0.1,0.1-0.1,0.2c-0.1,0.1-0.1,0.1-0.1,0.2
		c-0.5,0.8-0.9,1.4-1.301,2.2c0,0.1,0,0.2,0,0.2c-0.1,0.1-0.1,0.1-0.199,0.1c-1.101,1.9-2,3.9-2.601,6.1c-0.2,0-0.399,0.2-0.5,0.3
		c-2.399,2.1-4.3,4.6-5.899,7.3c-0.101,0.2-0.301,0.4-0.5,0.6c-0.601,1-1.301,2-1.7,3c-2.3,2.899-5.101,5.1-8.5,6.5
		c-2.4,1.1-4.8,2.1-7.2,3.1c-1.5,0.4-2.9,0.8-4.4,1.4c-3.699,1.399-7.699,2-11.7,1.699c-1.4,0-2.7-0.5-3.8-1.3
		c-0.3-0.3-0.5-0.6-0.8-0.899c-0.9-1.301-1.5-2.5-1.8-4c-0.3-1.4-0.7-2.5-1.4-3.7c-1.7-2.8-4.3-4.601-7.9-5.101c-1-0.1-2-0.2-3-0.5
		c-1.7-0.2-3.1,0-4.5,0.8c0-0.2,0-0.301,0.1-0.4c-0.1,0-0.2,0-0.2,0c0-0.5,0-1.1,0-1.6c0-0.9,0.1-1.6,0.2-2.4c0-0.1,0-0.2,0-0.4
		C29.464,42.4,29.664,42.4,29.764,42.6z M28.764,48.6c0.1-0.1,0.2-0.1,0.2-0.1c0.3-0.101,0.5-0.101,0.7-0.2c2.6-0.3,5.2-0.3,7.8,0.1
		c0.6,0.4,1.3,0.7,2,0.9c1.6,0.5,2.8,1.5,3.6,3c0,0.1,0,0.1,0,0.1c0,0.101,0,0.2,0,0.2c0.1,0.101,0.1,0.101,0.1,0.101
		c0.3,0.3,0.6,0.6,0.6,1.1c0.4,1.5,0.9,2.9,1.5,4.1c0,0.101,0,0.101,0,0.101c0.1,0.1,0.1,0.1,0.1,0.2c0,0.1,0,0.1,0,0.1
		c0.4,0.5,0.8,1.1,1.1,1.8c0.5,1.101,1.2,1.8,2.2,2.3c3.5,1.4,7,1.7,10.7,0.601c2.101-0.5,4.101-1.101,6.3-1.8
		c4.5-1.4,9-3.2,13.2-5.4c1.3-0.7,2.601-1.5,3.7-2.6c1.1-0.9,1.9-1.9,2.6-3c0.801-1.301,1.601-2.601,2.5-3.9
		c1.301-2,2.801-4,4.5-5.6c0-0.1,0.101-0.2,0.2-0.3c-0.5,2.6-1,5.2-1.6,7.6c-0.3,1.3-0.8,2.399-1.601,3.6c-4,3.2-8.3,6.2-12.8,8.7
		c-2.2,1.3-4.7,2.4-7,3.4c-0.7,0.3-1.399,0.5-2,0.699c-0.7,0.301-1.399,0.5-2.2,0.801l0,0c-0.5,0-1,0.199-1.5,0.3
		c-2.399,0.6-4.699,1.2-7.1,1.7c-2.4,0.399-4.2,0.699-5.5,1.199c-1.3,0.301-2.4,0.5-3.2,0.5c-0.8,0-1.4,0-2-0.3
		c-0.6-0.2-1.5-0.6-2.7-1c-1.3-0.399-3-1.1-5.4-2c-1.1-0.399-2.1-0.8-3.2-1.3c-1.9-0.8-3.6-2-4.9-3.5c-0.2-0.2-0.3-0.4-0.3-0.6
		c-0.9-2.9-1.2-6-0.8-9.2c-0.1-0.3-0.1-0.7-0.1-1.3C28.564,49.3,28.664,48.899,28.764,48.6z M10.364,61.5c0.1,0.1,0.1,0.1,0.1,0.2
		l0,0c0,0.1,0,0.199-0.1,0.199c0,0,0,0,0,0.101c-0.2,0-0.2,0-0.2,0.1c-1.3-0.399-2.6-0.6-4-0.7c-0.2,0-0.4,0-0.5,0c0,0,0,0,0.1,0
		c0.1-0.1,0.2-0.1,0.3-0.199c0.1,0,0.1,0,0.1-0.101c0-0.1,0-0.1,0-0.2c0,0,0,0,0.1-0.1c0.4-0.1,0.7-0.3,1.1-0.5
		c0.2-0.1,0.4-0.1,0.6-0.2C8.964,60.2,9.764,60.7,10.364,61.5z M4.864,61.7c0.1,0,0.1,0,0.1,0c0,0.1,0,0.1,0,0.199
		c0,0,0,0.101,0,0.2c-0.3,0.3-0.6,0.2-0.8-0.1c0-0.101,0-0.101,0-0.101c0-0.1,0-0.199,0-0.199c0-0.101,0-0.101,0-0.101
		c0.1-0.1,0.2-0.1,0.3-0.2l0,0C4.664,61.5,4.764,61.6,4.864,61.7z M31.164,78.6c0.3,0,0.5,0.101,0.7,0.4c0.1,0,0.1,0.1,0.1,0.1
		c0,0.3-0.2,0.4-0.4,0.601c-0.1,0-0.2,0.199-0.2,0.199c-1.2,0.301-2,1-2.7,2c0,0.101,0,0.101,0,0.101c-0.1,0-0.1,0-0.2,0
		c-0.1,0.1-0.3,0.1-0.5,0.1c-0.2-1.6,0.6-2.7,2.4-3.2C30.664,78.7,30.964,78.7,31.164,78.6z M27.164,84
		c0.1-0.101,0.1-0.101,0.1-0.101c0.1-0.1,0.1-0.199,0.2-0.199c0,0,0.1,0,0.2-0.101c0,0.101,0.1,0.101,0.1,0.101
		c0.1,0.1,0.1,0.1,0.2,0.199c0.1,0.301,0,0.7-0.3,1c0,0.101,0,0.101-0.1,0.101c-0.2,0-0.4,0-0.6-0.3
		C26.964,84.5,26.964,84.2,27.164,84z M75.464,27.9c2.5,0.9,5.199,1.6,7.699,2.2c1.301,0.3,2.5,0.7,3.801,1.2
		c-1.4,1.1-2.601,2.5-3.801,3.9c-0.699,0.6-1.199,1.4-1.8,2.2c0,0.5-0.2,0.9-0.7,1.5c0,0,0,0.1,0,0.2c-1.5-0.8-3.199-1.3-4.699-1.8
		c-1.301-0.4-2.601-0.5-4-0.7c-3-0.3-6.2-0.8-9.301-1.6c-0.199,0-0.3-0.2-0.5-0.2c-2-1.3-4.199-1.9-6.6-1.9c-0.1,0-0.2,0-0.3,0
		c-0.3,0-0.601,0.1-0.9,0.2c0.4-0.7,1.101-1.3,1.8-1.8c2.5-2,5.301-3.3,8.4-4.2c0.4,0.1,0.6,0.2,1,0.1
		C68.964,27,72.164,27.1,75.464,27.9z M52.964,37.2c0,0-0.1-0.1-0.2-0.2h-0.3c0-0.1,0-0.1,0-0.1s0.2-0.1,0.3-0.1c-0.1,0-0.2,0-0.3,0
		l0,0c0.3-1,0.7-1.8,1.2-2.6c0,0.2,0.3,0.3,0.6,0.2c2.1-0.3,3.899,0,5.7,1c0.5,0.3,1,0.5,1.6,0.8c3.1,1,6.3,1.6,9.5,2
		c1.7,0.1,3.3,0.6,4.9,1.1c1.199,0.3,2.3,0.6,3.399,1.1c0.101,0,0.3,0.1,0.4,0.2c-0.101,0.2-0.101,0.6-0.2,0.9
		c-0.1,0.2-0.1,0.3-0.1,0.5c0,2.4-0.5,4.6-1.5,6.7c-0.5,0.699-0.801,1.5-1.301,2.1c-0.1,0-0.199,0-0.199,0
		c-0.801-0.4-1.5-0.5-2.301-0.7c-1.3-0.3-2.5-0.399-3.699-0.8c-0.801-0.1-1.5-0.2-2.4-0.4c-3.1-0.5-6.3-1.1-9.4-2h-0.199
		c-0.101,0-0.101,0-0.101,0.101c0.3-1.7,0.4-3.2,0.3-5c-0.1-0.2-0.199-0.3-0.199-0.4c0-0.4-0.101-0.8-0.101-1.2
		c-0.2-0.1-0.3-0.2-0.399-0.4c-0.301-0.2-0.601-0.4-0.801-0.7c-0.199-0.3-0.399-0.5-0.5-0.7C55.364,38.3,54.164,37.8,52.964,37.2z
		 M57.764,49.899h0.1c0.101-0.3,0.101-0.6,0.101-1l0,0c0-0.1,0-0.199,0.1-0.3c0.3,0.101,0.6,0.2,1,0.3c0.7,0,1.4,0.101,2.1,0.301
		c2.801,0.5,5.601,1.1,8.301,1.8c1.899,0.399,3.699,0.8,5.5,1c0.3,0.1,0.5,0.1,0.8,0.1c-0.101,0.3-0.3,0.601-0.7,0.7
		c-0.6,0.3-1.1,0.5-1.7,0.8l0,0c-0.899,0.601-1.899,0.8-3,1c-0.7,0.2-1.3,0.4-1.899,0.601c-0.5,0.1-1,0.199-1.5,0.399
		c-0.301,0-0.7,0-1.101,0.101c-0.2,0-0.5,0-0.8,0c-2.1,0.5-4.1,1-6.2,1.199c-0.1,0-0.2,0-0.3,0.101c-0.6,0.2-1-0.101-1.4-0.5
		c-0.1-0.601,0-1.2,0.2-1.7c0.101-0.6,0.101-1.4,0.3-2c-0.199-0.1-0.199-0.4-0.199-0.6C57.564,51.399,57.664,50.7,57.764,49.899z
		 M79.664,61.7h0.101l0,0c0,0,0,0,0,0.1c0.2-0.1,0.2-0.1,0.399-0.2c0-0.1,0.2-0.2,0.301-0.2c-0.101,2.7,0.399,5.2,1.8,7.5
		c-0.5,0.101-0.9,0.301-1.5,0.5c-0.601,0.2-1.101,0.5-1.601,0.801c-3.199,2-6.699,3.699-10.1,5.199c-0.1-2-0.1-4.199-0.1-6.399
		c0-0.3,0.1-0.8,0.199-1.3c0-0.4,0-0.801,0-1.101c0.4-0.2,0.801-0.3,1.301-0.5c1.699-1.2,3.8-2.399,6-3.2c0.899-0.5,1.699-0.8,2.5-1
		c0.1,0,0.199,0,0.399,0C79.464,61.899,79.564,61.7,79.664,61.7z M66.364,67.399c0.101,0,0.3-0.1,0.4-0.199V69
		c-0.101,1.7-0.101,3.6,0,5.399c0,0.301,0,0.5-0.101,0.7c0,0.5,0,0.9,0,1.3c-2.699,1.2-5.5,2.301-8.199,3.301
		c-0.101,0.1-0.2,0.1-0.301,0.1c-0.1,0.1-0.199,0.1-0.5,0.2c-0.5,0.1-1,0.2-1.5,0.399c-0.399,0.2-0.8,0.5-1.199,0.601
		c0.199-3,0.399-6.2,0.5-9.3c0-0.301,0-0.601,0-0.801c0-0.1,0-0.1,0.1-0.1c0-0.1,0-0.1,0-0.1c0-0.101,0-0.2,0.1-0.301
		c0.801-0.699,2-1.199,3.2-1.399c2.3-0.3,4.5-0.8,6.601-1.601c0.199,0,0.199,0,0.399,0v-0.1
		C66.064,67.399,66.164,67.399,66.364,67.399z"/>
	<path fill="#FFF200" d="M57.364,7.6c-0.899,0.4-1.7,0.9-2.6,1.5c-2.3,1.8-4.6,3.9-6.8,5.9c-1.2,1.2-2.2,2.4-3,3.8
		c-0.5,0.7-0.9,1.4-1.4,2.1c-1.8,2.7-3.2,5.5-4.2,8.5c-0.2,0.5-0.4,1.1-0.7,1.6l0,0c0,0.2,0,0.4-0.1,0.7c0,0,0,0.1,0.1,0.1
		c0.5,0.5,1.3,0.6,2,0.6h0.1c0.2-0.1,0.2-0.4,0-0.6c0.1,0,0.1,0,0.1-0.1c0.1-0.3,0.1-0.5,0-0.5c0-0.2,0.1-0.3,0.1-0.4
		c0.3-0.4,0.5-0.9,0.8-1.4v-0.1c0.4-0.7,0.8-1.4,1.2-2.1c0.9-1.8,2-3.5,3.3-5.2c2.4-3.2,5.2-6,8.3-8.5c3.1-2.5,6.6-4.2,10.4-5.2
		c1.5-0.4,3-0.8,4.5-1.2C69.864,7,70.364,7,70.764,7c3-0.2,5.899-0.2,8.899-0.2c3.301-0.2,6.4,0.2,9.4,1.2c1.7,0.6,3.3,1.3,4.9,2.3
		c1.6,1,3,2.2,4.199,3.5c0.5,0.4,0.801,0.8,1,1.2c0.301,0.4,0.601,0.8,0.801,1.2c0.8,1.3,1,2.8,0.899,4.2
		c-0.2,1.7-0.899,3.1-2.3,3.9l3.6-1.5c0.5-0.7,1-1.3,1.5-1.9c0.601-0.8,1.2-1.6,1.801-2.3c0-0.4,0-0.8,0.1-1.1
		c0.1-0.3,0.1-0.7,0-0.9c-0.1-0.7-0.3-1.3-0.4-2l0,0c0-0.1,0-0.3,0-0.3s0,0,0-0.1c-0.1-0.2-0.199-0.4-0.399-0.5c0-0.1,0-0.1,0-0.1
		h-0.101c-0.1-0.2-0.3-0.3-0.5-0.5c-0.1,0-0.1-0.1-0.1-0.1c-0.5-1.5-1.4-2.9-2.9-3.9c-2-1.6-4.3-2.8-6.699-3.7
		c-3.101-1.1-6.2-2.1-9.301-2.7c-3.199-0.6-6.5-0.9-9.699-0.9c-1.301,0.2-2.801,0.3-4.101,0.5c-2.899,0.5-5.7,1.4-8.399,2.5
		c0,0,0,0-0.101,0.1c-0.2,0.1-0.5,0.1-0.7,0.2c-0.199,0.1-0.399,0.2-0.5,0.4c-0.199,0.1-0.5,0.1-0.6,0.3c-0.1-0.1-0.1-0.1,0-0.2
		c-0.4,0.2-0.7,0.5-1.1,0.7C59.164,6.8,58.264,7.3,57.364,7.6z M75.764,3.3c0.7-0.2,1.399-0.3,2.1-0.5c2.601,0.1,5.101,0.5,7.5,1
		h0.101c0.3,0,0.699,0,1,0c0,0,0.199,0,0.199,0.1s0,0.1,0.101,0.1c0,0,0,0,0.1,0.1c0.101,0,0.2,0.2,0.3,0.2c0,0,0,0,0,0.1
		c-3,0.2-6.1,0.2-9.3-0.1c-0.5,0-1.1-0.2-1.6,0c-0.3,0-0.7,0-1,0.2c-0.101,0-0.2,0-0.3-0.1c0-0.1,0-0.1-0.101-0.1V4.1
		c0-0.1,0-0.1,0.101-0.1c0,0,0,0,0-0.1C75.164,3.6,75.464,3.3,75.764,3.3z M46.164,18.4c0.1-0.1,0.3-0.1,0.4-0.2
		c0.4-0.4,0.6-0.7,1-1.1c0.1,0,0.1,0,0.1,0s0,0,0.1,0c0.1,0.5-0.1,0.9-0.6,1.3c0,0.1-0.1,0.1-0.1,0.1c-0.7,1.7-1.6,3.3-2.6,5
		c-1.3,1.8-2.3,3.8-3.3,5.9c0,0,0,0,0,0.1h-0.1c-0.4,0.1-0.6-0.1-0.7-0.5c0.8-3.5,2.4-6.7,4.8-9.7
		C45.464,19,45.764,18.6,46.164,18.4z M102.364,12.3c0.101,0,0.101,0,0.101,0c1.1,0.8,1.899,2,2.199,3.6c0.301,1.4,0,2.5-0.899,3.6
		c-0.101,0.1-0.3,0.1-0.5,0c-0.101-0.1-0.101-0.1-0.101-0.2c0.301-2.1,0-4.2-1.1-6.1c-0.1-0.2-0.1-0.4-0.1-0.6l0.199-0.1
		C102.164,12.4,102.364,12.4,102.364,12.3z"/>
	<path fill="#FFFCD5" d="M77.864,2.8c-0.7,0.2-1.399,0.3-2.1,0.5c-0.3,0-0.601,0.3-0.8,0.6c0,0.1,0,0.1,0,0.1
		c-0.101,0-0.101,0-0.101,0.1v0.2c0.101,0,0.101,0,0.101,0.1c0.1,0.1,0.199,0.1,0.3,0.1c0.3-0.2,0.7-0.2,1-0.2c0.5-0.2,1.1,0,1.6,0
		c3.2,0.3,6.3,0.3,9.3,0.1c0-0.1,0-0.1,0-0.1c-0.1,0-0.199-0.2-0.3-0.2c-0.1-0.1-0.1-0.1-0.1-0.1c-0.101,0-0.101,0-0.101-0.1
		s-0.199-0.1-0.199-0.1c-0.301,0-0.7,0-1,0h-0.101C82.964,3.3,80.464,2.9,77.864,2.8z"/>
	<path fill="#FFFCD5" d="M46.564,18.2c-0.1,0.1-0.3,0.1-0.4,0.2c-0.4,0.2-0.7,0.6-1,0.9c-2.4,3-4,6.2-4.8,9.7
		c0.1,0.4,0.3,0.6,0.7,0.5h0.1c0-0.1,0-0.1,0-0.1c1-2.1,2-4.1,3.3-5.9c1-1.7,1.9-3.3,2.6-5c0,0,0.1,0,0.1-0.1
		c0.5-0.4,0.7-0.8,0.6-1.3c-0.1,0-0.1,0-0.1,0s0,0-0.1,0C47.164,17.5,46.964,17.8,46.564,18.2z"/>
	<path fill="#FFFCD5" d="M102.464,12.3c0,0,0,0-0.101,0c0,0.1-0.2,0.1-0.2,0.2l-0.199,0.1c0,0.2,0,0.4,0.1,0.6
		c1.1,1.9,1.4,4,1.1,6.1c0,0.1,0,0.1,0.101,0.2c0.2,0.1,0.399,0.1,0.5,0c0.899-1.1,1.2-2.2,0.899-3.6
		C104.364,14.3,103.564,13.1,102.464,12.3z"/>
	<path fill="#FAA61A" d="M66.164,9.5c-0.5,0.1-1,0.3-1.5,0.5c-2,0.5-4,1.3-5.899,2.4c-0.101,0.1-0.2,0.2-0.4,0.2
		c-0.1,0-0.2,0.2-0.3,0.2c-0.1,0.2-0.3,0.2-0.4,0.3c-0.6,0.4-1.199,0.8-1.699,1.2c-0.301,0.3-0.601,0.5-0.9,0.7
		c-0.7,0.6-1.5,1.3-2.2,2c-1.7,1.6-3.2,3.3-4.6,5c-1.3,1.8-2.6,3.6-3.8,5.5c-0.1,0.3-0.2,0.6-0.3,1c-0.7,1-1.2,2.1-1.7,3.1
		c0,0.2-0.1,0.4-0.3,0.7l0,0l0,0v0.1c-0.1,0.2-0.1,0.3,0,0.4l0,0c0.5,0.2,0.9,0.4,1.3,0.5c0.7,0.5,1.5,0.7,2.5,0.9
		c0.5,0.1,1,0.4,1.5,0.6c0.2,0.2,0.5,0.2,0.7,0.2c0.5,0.3,0.9,0.6,1.3,0.8c0.1,0,0.1,0,0.2,0c0.3,0.2,0.8,0.5,1.3,0.6
		c0.1,0,0.2,0,0.3,0.1c0.2-1.6,0.7-3,1.6-4.3c0.9-1.4,2.101-2.6,3.601-3.4c2.3-1.6,4.899-2.8,7.5-3.5c0.699,0,1.5,0,2.399,0.2h0.101
		c1-0.2,1.899-0.2,2.8-0.2c3.3,0.2,6.399,0.7,9.6,1.7c0.9,0.3,1.9,0.6,2.8,0.8c2.4,0.5,4.7,1.2,6.801,2c0.5-0.5,1.1-0.9,1.699-1.3
		c0.101,0,0.301,0,0.4-0.1s0.1-0.2,0.2-0.4c1.1-0.4,2.2-0.9,3.2-1.4c0.5-0.1,0.8-0.5,1.199-0.8l2-0.9c0-0.1,0-0.1-0.1-0.1
		c0.4-0.5,0.7-1.2,1.2-1.7c1.1-1.2,1.5-2.6,1.2-4.2c-0.101-0.6-0.301-1.1-0.5-1.7c-0.101-0.1-0.101-0.1-0.101-0.2
		c-0.5-0.7-0.899-1.4-1.399-2c-0.9-1.1-1.9-2-3.2-2.7c-0.3-0.2-0.601-0.3-0.8-0.5c-1.4-0.9-2.9-1.7-4.5-2.3c-3-0.9-6-1.4-9.301-1.3
		c-3,0.1-5.899,0.3-8.899,0.4C69.164,8.6,67.664,9,66.164,9.5z M72.664,9.9c-0.5-0.1-0.899-0.1-1.199-0.1
		c-0.301,0.3-0.5,0.5-0.601,0.8c-0.2,0.5-0.399,1-0.2,1.4h0.101c0.2,0,0.399,0,0.6,0c0.101,0,0.101,0,0.101,0c0.1-0.1,0.1-0.2,0-0.2
		c0-0.2,0-0.2,0-0.3c0,0,0,0,0-0.1s0-0.2,0.1-0.3c0.1-0.1,0.1-0.1,0.1-0.1s0.101,0,0.2,0c0.3,0,0.601,0.1,0.8,0.5v0.1
		c0,0.2,0,0.3-0.1,0.4c-0.1,0.4-0.4,0.6-0.8,0.8c-0.101,0-0.101,0-0.101,0.2c-0.699,0.1-1,0.1-1.5-0.3c-0.1-0.1-0.199-0.2-0.399-0.4
		c-0.101-0.7-0.101-1.3,0.2-1.9c0.199-0.7,0.699-1.2,1.399-1.4c1.601-0.3,2.8,0.2,3.5,1.6c0.101,0,0.101,0.1,0.101,0.2l0,0
		c0,0,0-0.1,0.1-0.2c0.2-0.3,0.3-0.6,0.4-0.9l0.1-0.1c0.1,0,0.2,0,0.4-0.1c0,0,0.1,0,0.199,0c1.101-0.2,1.801,0.4,1.9,1.5
		c0,0.1,0,0.1-0.1,0.2c0,0.1,0,0.1,0,0.1c-0.101,0.1-0.2,0.2-0.301,0.3c-0.199,0-0.199,0-0.199,0.1s0,0.1,0,0.2
		c-0.2,0.1-0.301,0.1-0.4,0.1c-0.3,0-0.6,0-0.8-0.2c0-0.1,0-0.2,0-0.2s0-0.1,0.1-0.2c0-0.1,0.101-0.2,0.101-0.3l0,0
		c0.1-0.1,0.199-0.1,0.199-0.1s0.101,0,0.2,0.1c0.101,0.1,0.101,0.1,0.101,0c0-0.1,0.199-0.1,0.199-0.1s0.101-0.1,0.2-0.2
		c-0.1,0-0.1,0-0.1,0c-0.101-0.2-0.2-0.3-0.3-0.5c0,0,0-0.1-0.101-0.2c-0.2,0-0.399,0-0.7,0c-0.5,0.5-0.699,0.9-0.8,1.4
		c-0.2,0.3-0.2,0.6-0.3,0.9c-0.1,0.3-0.1,0.6-0.1,0.9c1.5,0.3,2.5,1.1,3.199,2.5c0-0.1,0-0.2,0-0.2c0-0.6,0.2-1.3,0.2-2
		c0.101,0,0.101,0,0.101-0.1c0-0.1,0-0.1,0.1-0.2c0,0,0,0,0-0.1c-0.1-0.2,0-0.4,0.1-0.6c0.101-0.2,0.101-0.3,0.101-0.5
		c0.6-0.6,1.2-1.1,1.899-1.3c0.301-0.2,0.5-0.3,0.801-0.4c0,0,0.1,0,0.199-0.1c0.7-0.2,1.301-0.1,1.7,0.3c0.101,0,0.101,0,0.101,0.1
		c1,0.3,1.699,0.9,2,1.7c1.199,0.9,2.3,1,3.699,0.3c0-0.1,0-0.1,0-0.1c0.101-0.1,0.101-0.2,0.2-0.3c0-0.1,0-0.1,0.101-0.2V12
		c-0.101,0-0.101-0.2-0.101-0.3s-0.1-0.1-0.2-0.2c0,0-0.199-0.1-0.199-0.2c-0.101-0.1-0.2-0.3-0.301-0.3c-0.199,0-0.3,0-0.5,0
		c0,0,0,0-0.1,0c-0.1,0.2-0.2,0.3-0.3,0.4c0,0.1,0,0.1,0,0.1c0,0.1,0.1,0.1,0.2,0.2c0.1,0.2,0.199,0.3,0.199,0.5
		c-0.399,0.4-0.8,0.5-1.199,0.1c-0.101,0-0.101,0-0.2-0.1c-0.101-0.1-0.101-0.1-0.101-0.2c0,0,0-0.1,0-0.2s0-0.2,0-0.2
		c0.101,0,0.101,0,0.2-0.1c0.101,0,0.101-0.1,0.101-0.2l0,0c0-0.1,0-0.2,0-0.3c0.199-0.2,0.5-0.5,0.8-0.7c0.2-0.1,0.3-0.2,0.399-0.2
		c1.601,0.2,2.2,1.2,1.7,2.6c-0.399,1.1-1.2,1.5-2.3,1.3c-0.7-0.1-1.4-0.4-2-0.7c0,0.5-0.1,1-0.4,1.6c-0.199,0.5-0.5,0.9-1,1.3
		c-1.3,1.1-2.399,0.9-3.1-0.6c-0.4-0.6-0.5-1.3-0.4-2.2c0.101-0.4,0.5-0.6,1-0.8c0.5-0.1,0.9,0,1.2,0.5c0,0,0,0.1,0,0.2
		c0,0,0,0.2,0,0.3c0,0,0,0,0,0.1c-0.1,0.1-0.1,0.1-0.2,0.1c0,0,0,0-0.1,0.1c-0.1,0-0.1,0-0.1-0.1c-0.2,0-0.301,0-0.5-0.1
		c0,0,0,0-0.101,0.1c-0.1,0-0.2,0-0.2,0c-0.199,0.2-0.199,0.5-0.199,0.7c0.1,0.6,0.399,1.1,0.899,1.4c0.101,0,0.3-0.1,0.601-0.1
		c0,0,0.199-0.1,0.3-0.2c0,0,0,0,0.1-0.1c0.2-0.2,0.4-0.5,0.8-0.7c0-0.1,0.101-0.3,0.2-0.4c0.3-0.4,0.3-0.8,0.3-1.3
		c-0.199-0.3-0.3-0.5-0.6-0.8c-0.4-0.4-0.8-0.7-1.3-0.8c-1-0.1-1.8,0.1-2.601,0.8c-0.199,0.1-0.199,0.2-0.399,0.3
		c-0.3,1-0.601,2-0.8,3.1c0,0.6-0.101,1.3-0.101,1.9c0,0.1,0,0.1-0.1,0.1c0.2,0.9,0.2,1.8,0.1,2.7c0.3-0.4,0.8-0.8,1.3-1.2
		c0.601-0.4,1.301-0.7,2-0.9c2.101-0.2,3.7,0.5,4.801,2c0.1-0.1,0.199-0.2,0.199-0.2c1.801,1.7,3.5,1.6,5-0.5
		c0.301-0.3,0.5-0.6,0.601-1v-0.1c0-0.1,0-0.2,0-0.3s0-0.1,0-0.2c-0.101-0.3-0.3-0.7-0.4-1.2c-0.3-0.7-0.7-1.2-1.399-1.7
		c-1-0.3-2-0.1-2.601,0.7c-0.1,0-0.2,0.1-0.2,0.2l0,0c0,0.3,0,0.5,0,0.6c0,0.2,0,0.3,0,0.4c0,0.1,0,0.1,0.101,0.2
		c0.1,0.1,0.2,0.3,0.2,0.4c0,0,0,0,0.199,0.1l0,0c0.301,0,0.5,0,0.801,0v-0.1c-0.101,0-0.301-0.2-0.301-0.3s0-0.2,0-0.2
		c0-0.1,0.101-0.2,0.2-0.3c0,0,0,0,0.101-0.1c1.1,0.1,1.3,0.6,0.6,1.5c-0.4,0.4-0.9,0.6-1.6,0.4c-0.801-0.4-1.301-1.2-1.301-2.3
		c0-0.2,0-0.5,0-0.7c0.2-0.3,0.5-0.6,0.7-0.8c0.5-0.3,0.9-0.5,1.601-0.7c1.1,0,2,0.2,2.699,0.8c0-0.1,0-0.1,0-0.2
		c0.101-0.6,0.301-1.1,0.601-1.7c0.1,0,0.2,0,0.2,0c0.1,0,0.1,0,0.1,0c1.1-0.2,1.9,0,2.6,0.8c0,0,0,0,0.101,0.1c0,0.1,0,0.1,0,0.1
		c0,0.1,0,0.1,0,0.2s0,0.1,0,0.1s0,0.1,0,0.2c-0.101,0.1-0.2,0.3-0.4,0.5c-0.399,0.1-0.8,0.1-1.3,0c-0.1-0.1-0.1-0.1-0.1-0.2
		c0,0,0,0,0-0.1s0.199-0.2,0.199-0.3s0-0.1,0.101-0.1c0.1,0,0.2,0,0.2,0s0,0,0.1,0v0.1c0.1,0,0.2-0.1,0.4-0.1l0,0c0-0.1,0-0.2,0-0.2
		c0-0.1,0-0.1,0-0.1c-0.101-0.1-0.101-0.1-0.2-0.2c-0.101,0-0.101,0-0.3,0c-0.4,0-0.801-0.1-1.301-0.1c-0.1,0.1-0.1,0.1-0.199,0.1
		c0,0.2,0,0.3-0.101,0.5c0,0.1,0,0.2-0.1,0.3c0,0.1,0,0.2-0.101,0.2c0,0,0,0-0.1,0.1c0,0.1,0,0.1,0,0.1c-0.1,0.1-0.1,0.1-0.1,0.3
		c0.399,0.3,0.699,0.7,0.899,1.2c0.101,0.2,0.2,0.5,0.101,0.9c0.1,0.4,0.199,0.6,0.199,1c1,0,2,0.4,2.801,1.2c0,0.1,0,0.2,0.1,0.2
		c0.3,0.6,0.4,1.3,0.2,2c-0.101,0.5-0.4,1-0.9,1.3c-0.7,0.2-1.2,0-1.899-0.3c0,0-0.2-0.1-0.301-0.2c0-0.1,0-0.2,0-0.3
		c0-0.4,0.2-0.7,0.5-1l0,0c0.301,0,0.5,0,0.601,0c0.2,0,0.3,0.1,0.399,0.3c-0.1,0.1-0.1,0.1-0.199,0.2c-0.2,0-0.301,0.2-0.5,0.3
		c0,0,0,0,0,0.2c0,0,0.1,0.2,0.199,0.3l0,0c0,0.1,0,0.1,0,0.2c0.101,0,0.101,0,0.101,0c0.3,0,0.5,0,0.7,0
		c0.1-0.1,0.199-0.2,0.199-0.2s0,0,0-0.1c0.101-0.2,0.101-0.4,0.2-0.5c0.101-0.2,0.101-0.2,0.101-0.3c0.1-0.6,0-1.1-0.301-1.6
		c-0.3-0.4-0.8-0.6-1.3-0.8c-0.3,0-0.6,0.1-0.899,0.2c-0.2,0.8-1,1.7-2.101,2.3c-1.399,0.8-2.6,0.8-3.7-0.2
		c0.101,0.2,0.101,0.4,0.101,0.7c0,1-0.2,2-0.9,2.7c-0.1,0.3-0.2,0.5-0.2,0.6c0,0.2,0,0.2,0,0.3c0.301,0.9,1,1.4,2,1.4
		c0.101-0.1,0.301-0.3,0.4-0.4c0-0.1,0-0.1,0.1-0.2c0-0.1,0-0.1,0-0.1c-0.1,0-0.199,0-0.199,0c-0.101,0-0.101,0-0.2,0.1
		c-0.3,0.1-0.4-0.1-0.601-0.3c0-0.1,0-0.1,0-0.2s0-0.1,0-0.1c0-0.2,0.2-0.3,0.301-0.4c0.199-0.1,0.199-0.1,0.199-0.1
		c1.301,0,1.7,0.6,1,1.9c-0.199,0.3-0.5,0.6-0.899,0.8c-1.101,0-2-0.3-2.601-1.3c-0.199-0.4-0.399-1-0.399-1.5
		c-1.101,0.1-2.2-0.2-3.3-0.9c-0.7-0.5-1-1.1-0.801-2c0.101-1.5,1-2,2.601-1.7c0.5,0.1,0.899,0.4,1,1c0.1,0.4-0.101,0.7-0.5,1.1
		h-0.101c-0.3,0-0.5-0.1-0.699-0.2c-0.101-0.1-0.101-0.1-0.2-0.2l0,0c0-0.1,0-0.1,0-0.2s0-0.1,0-0.1c0.1,0,0.2-0.2,0.2-0.2
		c0.1-0.1,0.1-0.1,0.1-0.1c0-0.1,0-0.1,0-0.2c-0.1,0-0.1,0-0.1,0c-0.301,0-0.601,0-1,0c0,0,0,0-0.101,0.1c-0.1,0.1-0.2,0.1-0.2,0.2
		c-0.1,0.2-0.1,0.2-0.199,0.2c0,0,0,0.1,0,0.2c0,0.1,0,0.2,0.1,0.3c0.1,0.2,0.1,0.5,0.1,0.7c0,0,0,0.1,0,0.2s0,0.1,0.101,0.1
		c0.1,0,0.2,0.2,0.2,0.2l0,0c0.5,0.2,1,0.3,1.399,0.6c0.601,0.2,1.3,0.2,1.9-0.2c0.2-0.3,0.399-0.7,0.399-1.1
		c0.101-0.9,0-1.8-0.399-2.6c-0.101-0.1-0.2-0.1-0.3-0.1c-0.2-0.3-0.5-0.5-0.601-0.6c-0.2,0-0.399-0.2-0.399-0.3
		c-2.801-0.7-4.9,0.2-6.5,2.6c0,0.2-0.101,0.4-0.301,0.7c-0.199,0.6-0.399,1.1-0.699,1.7c0.399-0.6,0.899-1,1.5-1.2
		c0.1,0,0.199,0,0.199-0.1c0.601,0.1,1,0.3,1.4,0.7c0.1,0,0.1,0,0.1,0.1c0.4,0.1,0.7,0.4,0.801,0.8c0,0.2,0,0.3,0,0.5
		c-0.2,0.8-0.7,1-1.5,0.6l-0.2-0.1c0-0.2,0.2-0.3,0.399-0.4c0.101,0,0.2,0,0.4-0.1c-0.1,0-0.1,0-0.1-0.1s0-0.1,0-0.1
		c0-0.1,0-0.1,0-0.2c-0.101-0.1-0.301-0.2-0.4-0.3c-0.1,0-0.1,0-0.1-0.1s0-0.1-0.2-0.1c0,0,0,0,0-0.1c-0.601-0.3-1.101-0.2-1.5,0.3
		c-0.2,0.2-0.3,0.3-0.3,0.5c0,0-0.2,0-0.2,0.1c-0.101-0.1-0.3-0.1-0.4-0.1l0,0c-0.1,0.1-0.2,0.2-0.2,0.4c-0.3,0-0.5,0-0.6-0.1
		c-0.1,0-0.1,0-0.1-0.1c0.1-1.2,0.3-2.5,0.899-3.7c0.8-2.2,0.601-4.3-0.6-6.2c-1.601-1.3-3.101-1.3-4.601-0.1
		c-0.699,0.5-1.199,1.3-1.3,2.3c0.101,0.3,0.3,0.7,0.5,1c0.4,0.7,1.101,0.8,1.8,0.6c0.101-0.1,0.101-0.1,0.2-0.2
		c0-0.1,0.101-0.2,0.2-0.4c0.1,0,0.2-0.2,0.2-0.2c0-0.1,0-0.3,0-0.4c-0.101-0.4-0.3-0.6-0.601-0.8c0-0.1-0.199-0.1-0.199-0.2
		s0-0.1,0-0.2c0,0,0,0,0-0.1s0-0.1,0-0.1c1-0.5,1.6-0.2,1.899,1.1c0.101,0.9-0.1,1.7-0.899,2.2c0,0.2,0,0.2,0,0.3
		c-0.101,0.1-0.101,0.1-0.101,0.2c-0.1,0-0.1,0-0.1,0.1s0,0.1-0.101,0.1c0,0.1,0,0.2,0,0.3c0,0,0,0.1,0,0.2
		c0.301,0.3,0.5,0.7,0.801,1.2c0.3,0.3,0.8,0.3,1.199,0.1c0-0.1,0-0.3,0-0.5V22c-0.199,0.1-0.3,0.3-0.6,0c-0.1,0-0.1-0.2-0.1-0.3
		s0-0.1,0-0.2c0-0.2,0.199-0.5,0.6-0.5c0.6,0.1,1,0.4,1.1,1c-0.399,1.6-1.3,2-2.699,1c-0.301-0.2-0.5-0.4-0.601-0.6
		c0-0.1-0.2-0.1-0.2-0.3c0-0.1,0-0.2,0-0.3c0,0,0,0,0-0.1c-0.1-0.1-0.199-0.1-0.199-0.1c-0.101-0.3,0-0.6,0-0.9
		c-0.5,0.1-1.2,0.1-1.7-0.4c0,0.9-0.3,1.7-0.9,2.5c-0.6,0.8-1.399,1-2.6,1c-1.101-0.2-2.101-0.6-2.7-1.3c-0.1,0.3-0.3,0.6-0.5,0.9
		c-0.2,0.4-0.6,0.9-1.1,1.3c-1.4,0.7-3,0.8-4.5,0.1c-0.301,0-0.4-0.2-0.601-0.5c-0.399-0.7-0.6-1.4-0.7-2.2
		c-0.199-0.1-0.5-0.3-0.699-0.5v-0.1c-0.5,0-1.101,0-1.601,0c-0.1,0.1-0.1,0.1-0.2,0.1c-0.399,0.3-0.7,0.4-1.2,0.4
		c0,0.1,0,0.1-0.1,0.1c-0.4,0.4-0.9,0.8-1.2,1.2c0,0.2,0,0.3-0.1,0.4c-0.1,0.5-0.1,1.1,0.1,1.6c0,0,0,0,0,0.1s0.1,0.2,0.1,0.3
		c0.1,0.1,0.2,0.3,0.2,0.4c0.1,0,0.1,0,0.2,0.1c0.2,0.3,0.5,0.5,0.8,0.7c0.5,0.1,0.8,0,1.2-0.3c0.301-0.1,0.5-0.4,0.7-0.6
		c0.101,0,0.101-0.1,0.101-0.2c0,0,0-0.1,0-0.2c0-0.1,0-0.1,0.199-0.1c-0.199-0.1-0.199-0.2-0.199-0.2c0-0.2,0-0.4-0.2-0.5
		c0-0.1,0-0.2,0-0.3c-0.101-0.1-0.101-0.1-0.3-0.2c-0.101,0-0.301,0-0.5,0c0,0.1,0,0.1,0,0.2c0,0.1,0,0.2,0,0.3c0,0,0,0,0,0.1
		c-0.101,0-0.101,0-0.2,0.1c-0.3,0.1-0.6,0-0.8-0.2c-0.1,0-0.1-0.1-0.1-0.2c0,0,0-0.2-0.1-0.3c0-0.2,0-0.3,0-0.3
		c0.5-0.5,1.1-0.8,1.899-0.6c0.301,0.1,0.7,0.2,0.9,0.6c0.4,0.8,0.4,1.5,0,2.1c-0.3,0.7-0.8,1.2-1.5,1.6c-0.5,0.1-0.9,0-1.4-0.1
		c0.1,0.2,0.1,0.4,0.1,0.7c0,0,0,0,0,0.1c-0.1,0.5-0.3,1-0.6,1.4c0,0,0,0.1-0.1,0.1c-0.6,1.5-1.8,1.8-3.4,0.9
		c-0.2-0.1-0.2-0.2-0.3-0.4c0-0.1-0.1-0.2-0.2-0.3c-1.3-0.3-2.1,0.2-2.5,1.5c0,0.2-0.2,0.3-0.2,0.6c0,0,0,0,0,0.1s0.1,0.2,0.1,0.4
		c0.1,0.1,0.1,0.1,0.1,0.1c0,0.1,0.1,0.1,0.2,0.2c0.6,0.4,1.2,0.3,1.6-0.2c0,0,0,0,0-0.1c0,0,0-0.1-0.1-0.2c0-0.1-0.1-0.1-0.2-0.1
		s-0.2,0-0.4,0c-0.1-0.1-0.1-0.1-0.1-0.1c0-0.1,0-0.2,0-0.3c-0.1-0.1-0.1-0.1-0.1-0.2c0,0,0,0,0.1,0c0-0.1,0.1-0.2,0.1-0.3
		c0.6-0.2,1,0.1,1.3,0.4c0.4,0.7,0.4,1.2-0.1,1.8c-0.5,0.3-1,0.5-1.5,0.5c-0.3-0.2-0.5-0.3-0.8-0.3c-0.1-0.1-0.2-0.2-0.3-0.3
		c-0.2-0.2-0.4-0.4-0.6-0.7c-0.2-0.4-0.3-0.7-0.2-1.2c0.1-0.1,0.1-0.2,0.2-0.4c0.2-0.5,0.6-1,0.9-1.5c0-0.1,0.2-0.2,0.3-0.2
		c0-0.1,0.2-0.2,0.2-0.2c0-0.1,0-0.1,0.1-0.1c0.1,0,0.2,0,0.2,0c0.5-0.1,1-0.1,1.4,0c-0.1-0.3-0.1-0.4,0-0.5c0-0.2,0-0.3,0-0.3
		c0.1-0.5,0.5-0.9,0.7-1.3c0.1-0.1,0.1-0.1,0.1-0.1c1-0.2,1.8,0.1,2.3,1c0,0.1,0,0.2,0,0.3s0,0.2,0,0.3c-0.3,0.5-0.7,0.5-1.2,0.1
		c-0.1,0-0.1-0.2-0.1-0.3c0.1,0,0.1-0.2,0.1-0.2c0-0.1,0-0.1,0-0.2c0,0,0-0.1-0.1-0.1c-0.2,0-0.5,0-0.7,0c0,0.3-0.2,0.6-0.2,0.8
		c-0.1,0.1-0.1,0.2-0.1,0.2c0.1,0.3,0.2,0.4,0.3,0.6c0.2,0.2,0.4,0.3,0.5,0.5c0.1,0.1,0.1,0.1,0.2,0.1c1.2,0.2,2-0.4,2.2-1.9
		c0.1,0,0.1,0,0.1-0.1s0-0.1,0-0.1c0-0.1,0-0.1,0-0.1c0-0.1,0-0.2-0.1-0.2c0-0.2-0.1-0.5-0.1-0.8c-0.5-0.4-0.8-1.1-1-2
		c-0.1-0.6-0.1-1.2,0-1.9c0.4-0.6,0.8-1.1,1.4-1.5c0.3-0.3,0.8-0.5,1.5-0.5c0-0.1,0-0.1,0-0.2c0.301-0.1,0.5-0.3,0.801-0.3l0,0
		c0.199,0,0.399,0,0.699,0c-0.3-0.3-0.5-0.4-0.699-0.6c-0.101-0.9,0-1.5,0.699-2.1c0.101-0.1,0.2-0.1,0.301-0.2
		c0.199,0,0.3,0,0.5,0.1c0,0,0.1,0,0.199,0c0.2,0.2,0.2,0.3,0.2,0.5s0,0.3-0.2,0.5c0,0,0,0,0,0.1c-0.1,0.1-0.199,0.1-0.199,0.1
		c-0.101,0-0.2,0-0.301-0.1c0-0.1-0.1-0.1-0.199-0.1c0,0,0,0-0.101,0c0,0.2-0.2,0.2-0.2,0.4c0.2,0.6,0.5,1.1,1,1.5
		c0.2,0.1,0.301,0.1,0.4,0.1c-0.1,0-0.1,0-0.1,0c0.199,0.1,0.199,0.2,0.399,0.3c0.101-0.3,0.101-0.7,0.3-1
		c0.4-0.8,1.101-1.3,2.101-1.5c1.2-0.3,2,0.2,2.5,1.2c0.1,0,0.1,0.1,0.1,0.2c0.101,0,0.101,0.1,0.101,0.3c0,0.5,0,1-0.101,1.5
		c0,0.1,0,0.1-0.1,0.2c-0.101,0.3-0.4,0.5-0.601,0.6c0,0,0,0-0.1,0c-0.6,0.2-1.1,0.1-1.7-0.1c-0.2-0.1-0.399-0.2-0.6-0.4V22
		c0-0.1,0-0.2,0-0.4c0-0.1,0-0.2,0-0.3c0,0,0,0,0-0.1c0.2-0.1,0.2-0.2,0.399-0.4c0,0,0,0,0.101,0c0.1,0,0.1,0,0.2,0
		c0.199,0,0.5,0.1,0.6,0.3c-0.1,0.1-0.1,0.2-0.1,0.2s0,0,0,0.1c-0.101,0.1-0.101,0.1-0.101,0.2c0,0,0,0,0.101,0.1
		c0,0.1,0.1,0.1,0.199,0.1l0,0c0.2,0,0.4,0,0.601,0c0,0,0,0,0.2-0.1c0-0.1,0-0.1,0-0.2c0-0.2,0-0.5,0-0.8c0-0.1,0-0.2,0-0.3
		s0-0.1-0.2-0.1c0-0.2-0.101-0.3-0.2-0.6c0-0.1-0.1-0.1-0.1-0.1c-1.301-0.2-2.301,0.2-3,1.2c0,0.1,0,0.2,0,0.3c0,0.2,0,0.4,0,0.7
		c0.199,0.1,0.199,0.2,0.3,0.5l0,0c0,0.1,0,0.2-0.101,0.2c0,0,0,0.1-0.1,0.1c0.3,1.5,1.4,2.2,3.1,2c1.301-0.3,2.301-1.1,2.7-2.5
		c0.101-0.1,0.101-0.1,0.101-0.1c0-0.1,0-0.1,0-0.2l0,0c0-0.3-0.101-0.5-0.301-0.8c-0.199-1.2,0.2-2.2,0.801-3
		c0.1-0.5,0.199-1.1,0.399-1.5c0.101-0.2,0.101-0.4,0.101-0.5c0.5-1.7,0-2.7-1.4-3.4c-0.2,0-0.4-0.1-0.7,0
		c-2.1,0.4-2.899,1.7-2.2,3.7c0.801,0.3,1.5,0,2-0.7c0-0.1,0-0.2,0-0.3c0-0.2-0.199-0.2-0.3,0c-0.2,0-0.399,0-0.6-0.2
		c-0.101-0.1-0.101-0.1-0.101-0.3c-0.1,0-0.1,0-0.1,0c-0.1-0.2-0.1-0.3-0.1-0.3c1-0.9,1.699-0.7,2.199,0.5
		c0.2,0.6,0.101,1-0.199,1.3c-1,1.5-2.301,1.7-3.601,0.8c-0.399-0.3-0.7-0.6-0.7-1.1c-0.199-1.6,0.301-2.9,1.5-3.9
		c0.801-0.5,1.601-0.8,2.601-0.8c1.399,0.1,2.399,1,2.7,2.5c0.199,1.2,0.199,2.2-0.101,3.2c0-0.1,0.101-0.1,0.101-0.2
		c2,0.6,2.699,1.8,2.199,3.9c0,0.1,0,0.1-0.1,0.1c-0.9,0.7-1.9,0.7-2.8,0c0-0.1,0-0.2,0.1-0.2c0-0.2,0-0.3,0-0.4
		c0.101-0.1,0.101-0.1,0.101-0.1c0-0.1,0-0.1,0.1-0.1s0.1,0,0.3-0.1c0,0.1,0.101,0.1,0.2,0.1s0.1,0.1,0.2,0.2
		c0.2,0.1,0.5,0.1,0.7,0.1c0.1-0.1,0.199-0.2,0.199-0.2c0.101-0.1,0.2-0.1,0.301-0.2c0-0.5-0.2-1-0.5-1.4
		c-0.101-0.2-0.301-0.5-0.7-0.7c-1.101,0.5-1.601,1.2-1.601,2.4c0,0.1,0,0.4,0,0.4c0,0.1,0,0.2,0,0.2c0,0.1,0,0.1,0,0.2
		c0.9,1.6,2.301,2.1,4.301,1.3c0.199,0,0.5-0.3,0.699-0.5c0,0,0-0.2,0.2-0.3c0-0.8-0.1-1.6-0.2-2.4c-0.8-1.1-0.699-2.3,0.2-3.5
		c0.7-1.2,1.7-2,3-2.5c0.3,0,0.601,0,0.8,0.1c0.101-0.2,0.101-0.2,0.101-0.4c0-0.5,0-1,0-1.5c0,0,0-0.1,0-0.2c0-0.1,0-0.1-0.101-0.1
		c-0.199-0.2-0.399-0.4-0.5-0.7c-0.1,0-0.1-0.1-0.1-0.2C73.264,10,72.964,9.9,72.664,9.9z M51.864,20.3c-0.2,0.9-0.7,1.7-1.3,2.5
		c-2.2,3-4.2,5.9-5.9,9c-0.2,0-0.4,0-0.5-0.1c-0.2-0.1-0.3-0.4-0.3-0.5c0,0,0-0.1,0-0.2c1.4-3.3,3.3-6.4,5.6-9.2
		c0.7-0.8,1.5-1.3,2.2-1.7c0.3-0.3,0.5-0.5,0.7-0.7c0-0.1,0.1-0.1,0.1-0.1C52.364,19.6,52.164,20,51.864,20.3L51.864,20.3z
		 M96.764,16.3c0.2,0,0.3-0.2,0.399-0.2c1.5,1.4,1.9,3.2,1.2,5.2c0,0,0,0-0.1,0.1c-0.3,0.2-0.601,0.4-0.9,0.4c-0.2-1-0.3-2-0.5-3
		C96.664,17.9,96.664,17.1,96.764,16.3z M54.964,16.5h0.199l0,0c0,0,0.2,0,0.2,0.1c0.101,0,0.101,0,0.101,0
		c0.1,0.2,0.199,0.2,0.199,0.3s0,0.1,0,0.2c-0.199,0.7-0.5,0.8-1.2,0.5c0-0.1,0-0.3,0-0.3c0-0.1,0-0.2,0-0.3
		c0.1-0.2,0.2-0.2,0.3-0.4c0,0,0,0,0.1,0C54.964,16.6,54.964,16.6,54.964,16.5z"/>
	<path fill="#F58220" d="M71.464,9.8c0.3,0,0.699,0,1.199,0.1c0.301,0,0.601,0.1,0.9,0.2c0,0.1,0,0.2,0.1,0.2
		c0.101,0.3,0.301,0.5,0.5,0.7c0.101,0,0.101,0,0.101,0.1c0,0.1,0,0.2,0,0.2c0,0.5,0,1,0,1.5c0,0.2,0,0.2-0.101,0.4
		c-0.199-0.1-0.5-0.1-0.8-0.1c-1.3,0.5-2.3,1.3-3,2.5c-0.899,1.2-1,2.4-0.2,3.5c0.101,0.8,0.2,1.6,0.2,2.4c-0.2,0.1-0.2,0.3-0.2,0.3
		c-0.199,0.2-0.5,0.5-0.699,0.5c-2,0.8-3.4,0.3-4.301-1.3c0-0.1,0-0.1,0-0.2c0,0,0-0.1,0-0.2c0,0,0-0.3,0-0.4
		c0-1.2,0.5-1.9,1.601-2.4c0.399,0.2,0.6,0.5,0.7,0.7c0.3,0.4,0.5,0.9,0.5,1.4c-0.101,0.1-0.2,0.1-0.301,0.2c0,0-0.1,0.1-0.199,0.2
		c-0.2,0-0.5,0-0.7-0.1c-0.101-0.1-0.101-0.2-0.2-0.2s-0.2,0-0.2-0.1c-0.2,0.1-0.2,0.1-0.3,0.1s-0.1,0-0.1,0.1c0,0,0,0-0.101,0.1
		c0,0.1,0,0.2,0,0.4c-0.1,0-0.1,0.1-0.1,0.2c0.899,0.7,1.899,0.7,2.8,0c0.1,0,0.1,0,0.1-0.1c0.5-2.1-0.199-3.3-2.199-3.9
		c0,0.1-0.101,0.1-0.101,0.2c0.3-1,0.3-2,0.101-3.2c-0.301-1.5-1.301-2.4-2.7-2.5c-1,0-1.8,0.3-2.601,0.8
		c-1.199,1-1.699,2.3-1.5,3.9c0,0.5,0.301,0.8,0.7,1.1c1.3,0.9,2.601,0.7,3.601-0.8c0.3-0.3,0.399-0.7,0.199-1.3
		c-0.5-1.2-1.199-1.4-2.199-0.5c0,0,0,0.1,0.1,0.3c0,0,0,0,0.1,0c0,0.2,0,0.2,0.101,0.3c0.2,0.2,0.399,0.2,0.6,0.2
		c0.101-0.2,0.3-0.2,0.3,0c0,0.1,0,0.2,0,0.3c-0.5,0.7-1.199,1-2,0.7c-0.699-2,0.101-3.3,2.2-3.7c0.3-0.1,0.5,0,0.7,0
		c1.4,0.7,1.9,1.7,1.4,3.4c0,0.1,0,0.3-0.101,0.5c-0.2,0.4-0.3,1-0.399,1.5c-0.601,0.8-1,1.8-0.801,3c0.2,0.3,0.301,0.5,0.301,0.8
		l0,0c0,0.1,0,0.1,0,0.2c0,0,0,0-0.101,0.1c-0.399,1.4-1.399,2.2-2.7,2.5c-1.699,0.2-2.8-0.5-3.1-2c0.1,0,0.1-0.1,0.1-0.1
		c0.101,0,0.101-0.1,0.101-0.2l0,0c-0.101-0.3-0.101-0.4-0.3-0.5c0-0.3,0-0.5,0-0.7c0-0.1,0-0.2,0-0.3c0.699-1,1.699-1.4,3-1.2
		c0,0,0.1,0,0.1,0.1c0.1,0.3,0.2,0.4,0.2,0.6c0.2,0,0.2,0,0.2,0.1s0,0.2,0,0.3c0,0.3,0,0.6,0,0.8c0,0.1,0,0.1,0,0.2
		c-0.2,0.1-0.2,0.1-0.2,0.1c-0.2,0-0.4,0-0.601,0l0,0c-0.1,0-0.199,0-0.199-0.1c-0.101-0.1-0.101-0.1-0.101-0.1
		c0-0.1,0-0.1,0.101-0.2c0-0.1,0-0.1,0-0.1s0-0.1,0.1-0.2c-0.1-0.2-0.4-0.3-0.6-0.3c-0.101,0-0.101,0-0.2,0
		c-0.101,0-0.101,0-0.101,0c-0.199,0.2-0.199,0.3-0.399,0.4c0,0.1,0,0.1,0,0.1c0,0.1,0,0.2,0,0.3c0,0.2,0,0.3,0,0.4v0.1
		c0.2,0.2,0.399,0.3,0.6,0.4c0.601,0.2,1.101,0.3,1.7,0.1c0.1,0,0.1,0,0.1,0c0.2-0.1,0.5-0.3,0.601-0.6c0.1-0.1,0.1-0.1,0.1-0.2
		c0.101-0.5,0.101-1,0.101-1.5c0-0.2,0-0.3-0.101-0.3c0-0.1,0-0.2-0.1-0.2c-0.5-1-1.3-1.5-2.5-1.2c-1,0.2-1.7,0.7-2.101,1.5
		c-0.199,0.3-0.199,0.7-0.3,1c-0.2-0.1-0.2-0.2-0.399-0.3c0,0,0,0,0.1,0c-0.1,0-0.2,0-0.4-0.1c-0.5-0.4-0.8-0.9-1-1.5
		c0-0.2,0.2-0.2,0.2-0.4c0.101,0,0.101,0,0.101,0c0.1,0,0.199,0,0.199,0.1c0.101,0.1,0.2,0.1,0.301,0.1c0,0,0.1,0,0.199-0.1
		c0-0.1,0-0.1,0-0.1c0.2-0.2,0.2-0.3,0.2-0.5s0-0.3-0.2-0.5c-0.1,0-0.199,0-0.199,0c-0.2-0.1-0.301-0.1-0.5-0.1
		c-0.101,0.1-0.2,0.1-0.301,0.2c-0.699,0.6-0.8,1.2-0.699,2.1c0.199,0.2,0.399,0.3,0.699,0.6c-0.3,0-0.5,0-0.699,0l0,0
		c-0.301,0-0.5,0.2-0.801,0.3c0,0.1,0,0.1,0,0.2c-0.7,0-1.2,0.2-1.5,0.5c-0.6,0.4-1,0.9-1.4,1.5c-0.1,0.7-0.1,1.3,0,1.9
		c0.2,0.9,0.5,1.6,1,2c0,0.3,0.1,0.6,0.1,0.8c0.1,0,0.1,0.1,0.1,0.2c0,0,0,0,0,0.1c0,0,0,0,0,0.1s0,0.1-0.1,0.1
		c-0.2,1.5-1,2.1-2.2,1.9c-0.1,0-0.1,0-0.2-0.1c-0.1-0.2-0.3-0.3-0.5-0.5c-0.1-0.2-0.2-0.3-0.3-0.6c0,0,0-0.1,0.1-0.2
		c0-0.2,0.2-0.5,0.2-0.8c0.2,0,0.5,0,0.7,0c0.1,0,0.1,0.1,0.1,0.1c0,0.1,0,0.1,0,0.2c0,0,0,0.2-0.1,0.2c0,0.1,0,0.3,0.1,0.3
		c0.5,0.4,0.9,0.4,1.2-0.1c0-0.1,0-0.2,0-0.3s0-0.2,0-0.3c-0.5-0.9-1.3-1.2-2.3-1c0,0,0,0-0.1,0.1c-0.2,0.4-0.6,0.8-0.7,1.3
		c0,0,0,0.1,0,0.3c-0.1,0.1-0.1,0.2,0,0.5c-0.4-0.1-0.9-0.1-1.4,0c0,0-0.1,0-0.2,0c-0.1,0-0.1,0-0.1,0.1c0,0-0.2,0.1-0.2,0.2
		c-0.1,0-0.3,0.1-0.3,0.2c-0.3,0.5-0.7,1-0.9,1.5c-0.1,0.2-0.1,0.3-0.2,0.4c-0.1,0.5,0,0.8,0.2,1.2c0.2,0.3,0.4,0.5,0.6,0.7
		c0.1,0.1,0.2,0.2,0.3,0.3c0.3,0,0.5,0.1,0.8,0.3c0.5,0,1-0.2,1.5-0.5c0.5-0.6,0.5-1.1,0.1-1.8c-0.3-0.3-0.7-0.6-1.3-0.4
		c0,0.1-0.1,0.2-0.1,0.3c-0.1,0-0.1,0-0.1,0c0,0.1,0,0.1,0.1,0.2c0,0.1,0,0.2,0,0.3c0,0,0,0,0.1,0.1c0.2,0,0.3,0,0.4,0
		s0.2,0,0.2,0.1c0.1,0.1,0.1,0.2,0.1,0.2c0,0.1,0,0.1,0,0.1c-0.4,0.5-1,0.6-1.6,0.2c-0.1-0.1-0.2-0.1-0.2-0.2c0,0,0,0-0.1-0.1
		c0-0.2-0.1-0.3-0.1-0.4s0-0.1,0-0.1c0-0.3,0.2-0.4,0.2-0.6c0.4-1.3,1.2-1.8,2.5-1.5c0.1,0.1,0.2,0.2,0.2,0.3
		c0.1,0.2,0.1,0.3,0.3,0.4c1.6,0.9,2.8,0.6,3.4-0.9c0.1,0,0.1-0.1,0.1-0.1c0.3-0.4,0.5-0.9,0.6-1.4c0-0.1,0-0.1,0-0.1
		c0-0.3,0-0.5-0.1-0.7c0.5,0.1,0.9,0.2,1.4,0.1c0.7-0.4,1.2-0.9,1.5-1.6c0.4-0.6,0.4-1.3,0-2.1c-0.2-0.4-0.6-0.5-0.9-0.6
		c-0.8-0.2-1.399,0.1-1.899,0.6c0,0,0,0.1,0,0.3c0.1,0.1,0.1,0.3,0.1,0.3c0,0.1,0,0.2,0.1,0.2c0.2,0.2,0.5,0.3,0.8,0.2
		c0.1-0.1,0.1-0.1,0.2-0.1c0-0.1,0-0.1,0-0.1c0-0.1,0-0.2,0-0.3c0-0.1,0-0.1,0-0.2c0.199,0,0.399,0,0.5,0
		c0.199,0.1,0.199,0.1,0.3,0.2c0,0.1,0,0.2,0,0.3c0.2,0.1,0.2,0.3,0.2,0.5c0,0,0,0.1,0.199,0.2c-0.199,0-0.199,0-0.199,0.1
		c0,0.1,0,0.2,0,0.2c0,0.1,0,0.2-0.101,0.2c-0.2,0.2-0.399,0.5-0.7,0.6c-0.399,0.3-0.7,0.4-1.2,0.3c-0.3-0.2-0.6-0.4-0.8-0.7
		c-0.1-0.1-0.1-0.1-0.2-0.1c0-0.1-0.1-0.3-0.2-0.4c0-0.1-0.1-0.2-0.1-0.3s0-0.1,0-0.1c-0.2-0.5-0.2-1.1-0.1-1.6
		c0.1-0.1,0.1-0.2,0.1-0.4c0.3-0.4,0.8-0.8,1.2-1.2c0.1,0,0.1,0,0.1-0.1c0.5,0,0.8-0.1,1.2-0.4c0.101,0,0.101,0,0.2-0.1
		c0.5,0,1.101,0,1.601,0v0.1c0.199,0.2,0.5,0.4,0.699,0.5c0.101,0.8,0.301,1.5,0.7,2.2c0.2,0.3,0.3,0.5,0.601,0.5
		c1.5,0.7,3.1,0.6,4.5-0.1c0.5-0.4,0.899-0.9,1.1-1.3c0.2-0.3,0.4-0.6,0.5-0.9c0.6,0.7,1.6,1.1,2.7,1.3c1.2,0,2-0.2,2.6-1
		c0.601-0.8,0.9-1.6,0.9-2.5c0.5,0.5,1.2,0.5,1.7,0.4c0,0.3-0.101,0.6,0,0.9c0,0,0.1,0,0.199,0.1c0,0.1,0,0.1,0,0.1
		c0,0.1,0,0.2,0,0.3c0,0.2,0.2,0.2,0.2,0.3c0.101,0.2,0.3,0.4,0.601,0.6c1.399,1,2.3,0.6,2.699-1c-0.1-0.6-0.5-0.9-1.1-1
		c-0.4,0-0.6,0.3-0.6,0.5c0,0.1,0,0.1,0,0.2s0,0.3,0.1,0.3c0.3,0.3,0.4,0.1,0.6,0v0.1c0,0.2,0,0.4,0,0.5
		c-0.399,0.2-0.899,0.2-1.199-0.1c-0.301-0.5-0.5-0.9-0.801-1.2c0-0.1,0-0.2,0-0.2c0-0.1,0-0.2,0-0.3c0.101,0,0.101,0,0.101-0.1
		s0-0.1,0.1-0.1c0-0.1,0-0.1,0.101-0.2c0-0.1,0-0.1,0-0.3c0.8-0.5,1-1.3,0.899-2.2c-0.3-1.3-0.899-1.6-1.899-1.1c0,0,0,0,0,0.1
		s0,0.1,0,0.1c0,0.1,0,0.1,0,0.2s0.199,0.1,0.199,0.2c0.301,0.2,0.5,0.4,0.601,0.8c0,0.1,0,0.3,0,0.4c0,0-0.101,0.2-0.2,0.2
		c-0.1,0.2-0.2,0.3-0.2,0.4c-0.1,0.1-0.1,0.1-0.2,0.2c-0.699,0.2-1.399,0.1-1.8-0.6c-0.2-0.3-0.399-0.7-0.5-1
		c0.101-1,0.601-1.8,1.3-2.3c1.5-1.2,3-1.2,4.601,0.1c1.2,1.9,1.399,4,0.6,6.2c-0.6,1.2-0.8,2.5-0.899,3.7c0,0.1,0,0.1,0.1,0.1
		c0.1,0.1,0.3,0.1,0.6,0.1c0-0.2,0.101-0.3,0.2-0.4l0,0c0.101,0,0.3,0,0.4,0.1c0-0.1,0.2-0.1,0.2-0.1c0-0.2,0.1-0.3,0.3-0.5
		c0.399-0.5,0.899-0.6,1.5-0.3c0,0.1,0,0.1,0,0.1c0.2,0,0.2,0,0.2,0.1s0,0.1,0.1,0.1c0.1,0.1,0.3,0.2,0.4,0.3c0,0.1,0,0.1,0,0.2
		c0,0,0,0,0,0.1s0,0.1,0.1,0.1c-0.2,0.1-0.3,0.1-0.4,0.1c-0.199,0.1-0.399,0.2-0.399,0.4l0.2,0.1c0.8,0.4,1.3,0.2,1.5-0.6
		c0-0.2,0-0.3,0-0.5c-0.101-0.4-0.4-0.7-0.801-0.8c0-0.1,0-0.1-0.1-0.1c-0.4-0.4-0.8-0.6-1.4-0.7c0,0.1-0.1,0.1-0.199,0.1
		c-0.601,0.2-1.101,0.6-1.5,1.2c0.3-0.6,0.5-1.1,0.699-1.7c0.2-0.3,0.301-0.5,0.301-0.7c1.6-2.4,3.699-3.3,6.5-2.6
		c0,0.1,0.199,0.3,0.399,0.3c0.101,0.1,0.4,0.3,0.601,0.6c0.1,0,0.199,0,0.3,0.1c0.399,0.8,0.5,1.7,0.399,2.6
		c0,0.4-0.199,0.8-0.399,1.1c-0.601,0.4-1.3,0.4-1.9,0.2c-0.399-0.3-0.899-0.4-1.399-0.6l0,0c0,0-0.101-0.2-0.2-0.2
		c-0.101,0-0.101,0-0.101-0.1s0-0.2,0-0.2c0-0.2,0-0.5-0.1-0.7c-0.1-0.1-0.1-0.2-0.1-0.3c0-0.1,0-0.2,0-0.2c0.1,0,0.1,0,0.199-0.2
		c0-0.1,0.101-0.1,0.2-0.2c0.101-0.1,0.101-0.1,0.101-0.1c0.399,0,0.699,0,1,0c0,0,0,0,0.1,0c0,0.1,0,0.1,0,0.2c0,0,0,0-0.1,0.1
		c0,0-0.101,0.2-0.2,0.2c0,0,0,0,0,0.1s0,0.1,0,0.2l0,0c0.1,0.1,0.1,0.1,0.2,0.2c0.199,0.1,0.399,0.2,0.699,0.2h0.101
		c0.399-0.4,0.6-0.7,0.5-1.1c-0.101-0.6-0.5-0.9-1-1c-1.601-0.3-2.5,0.2-2.601,1.7c-0.199,0.9,0.101,1.5,0.801,2
		c1.1,0.7,2.199,1,3.3,0.9c0,0.5,0.2,1.1,0.399,1.5c0.601,1,1.5,1.3,2.601,1.3c0.399-0.2,0.7-0.5,0.899-0.8c0.7-1.3,0.301-1.9-1-1.9
		c0,0,0,0-0.199,0.1c-0.101,0.1-0.301,0.2-0.301,0.4c0,0,0,0,0,0.1s0,0.1,0,0.2c0.2,0.2,0.301,0.4,0.601,0.3
		c0.1-0.1,0.1-0.1,0.2-0.1c0,0,0.1,0,0.199,0c0,0,0,0,0,0.1c-0.1,0.1-0.1,0.1-0.1,0.2c-0.1,0.1-0.3,0.3-0.4,0.4
		c-1,0-1.699-0.5-2-1.4c0-0.1,0-0.1,0-0.3c0-0.1,0.101-0.3,0.2-0.6c0.7-0.7,0.9-1.7,0.9-2.7c0-0.3,0-0.5-0.101-0.7
		c1.101,1,2.301,1,3.7,0.2c1.101-0.6,1.9-1.5,2.101-2.3c0.3-0.1,0.6-0.2,0.899-0.2c0.5,0.2,1,0.4,1.3,0.8c0.301,0.5,0.4,1,0.301,1.6
		c0,0.1,0,0.1-0.101,0.3c-0.1,0.1-0.1,0.3-0.2,0.5c0,0.1,0,0.1,0,0.1s-0.1,0.1-0.199,0.2c-0.2,0-0.4,0-0.7,0c0,0,0,0-0.101,0
		c0-0.1,0-0.1,0-0.2l0,0c-0.1-0.1-0.199-0.3-0.199-0.3c0-0.2,0-0.2,0-0.2c0.199-0.1,0.3-0.3,0.5-0.3c0.1-0.1,0.1-0.1,0.199-0.2
		c-0.1-0.2-0.199-0.3-0.399-0.3c-0.101,0-0.3,0-0.601,0l0,0c-0.3,0.3-0.5,0.6-0.5,1c0,0.1,0,0.2,0,0.3
		c0.101,0.1,0.301,0.2,0.301,0.2c0.699,0.3,1.199,0.5,1.899,0.3c0.5-0.3,0.8-0.8,0.9-1.3c0.2-0.7,0.1-1.4-0.2-2
		c-0.1,0-0.1-0.1-0.1-0.2c-0.801-0.8-1.801-1.2-2.801-1.2c0-0.4-0.1-0.6-0.199-1c0.1-0.4,0-0.7-0.101-0.9
		c-0.2-0.5-0.5-0.9-0.899-1.2c0-0.2,0-0.2,0.1-0.3c0,0,0,0,0-0.1c0.1-0.1,0.1-0.1,0.1-0.1c0.101,0,0.101-0.1,0.101-0.2
		c0.1-0.1,0.1-0.2,0.1-0.3c0.101-0.2,0.101-0.3,0.101-0.5c0.1,0,0.1,0,0.199-0.1c0.5,0,0.9,0.1,1.301,0.1c0.199,0,0.199,0,0.3,0
		c0.1,0.1,0.1,0.1,0.2,0.2c0,0,0,0,0,0.1c0,0,0,0.1,0,0.2l0,0c-0.2,0-0.301,0.1-0.4,0.1v-0.1c-0.1,0-0.1,0-0.1,0s-0.101,0-0.2,0
		c-0.101,0-0.101,0-0.101,0.1s-0.199,0.2-0.199,0.3s0,0.1,0,0.1c0,0.1,0,0.1,0.1,0.2c0.5,0.1,0.9,0.1,1.3,0c0.2-0.2,0.3-0.4,0.4-0.5
		c0-0.1,0-0.2,0-0.2s0,0,0-0.1s0-0.1,0-0.2c0,0,0,0,0-0.1c-0.101-0.1-0.101-0.1-0.101-0.1c-0.699-0.8-1.5-1-2.6-0.8c0,0,0,0-0.1,0
		c0,0-0.101,0-0.2,0c-0.3,0.6-0.5,1.1-0.601,1.7c0,0.1,0,0.1,0,0.2c-0.699-0.6-1.6-0.8-2.699-0.8c-0.7,0.2-1.101,0.4-1.601,0.7
		c-0.2,0.2-0.5,0.5-0.7,0.8c0,0.2,0,0.5,0,0.7c0,1.1,0.5,1.9,1.301,2.3c0.699,0.2,1.199,0,1.6-0.4c0.7-0.9,0.5-1.4-0.6-1.5
		c-0.101,0.1-0.101,0.1-0.101,0.1c-0.1,0.1-0.2,0.2-0.2,0.3c0,0,0,0.1,0,0.2s0.2,0.3,0.301,0.3v0.1c-0.301,0-0.5,0-0.801,0l0,0
		c-0.199-0.1-0.199-0.1-0.199-0.1c0-0.1-0.101-0.3-0.2-0.4c-0.101-0.1-0.101-0.1-0.101-0.2c0-0.1,0-0.2,0-0.4c0-0.1,0-0.3,0-0.6l0,0
		c0-0.1,0.101-0.2,0.2-0.2c0.601-0.8,1.601-1,2.601-0.7c0.699,0.5,1.1,1,1.399,1.7c0.101,0.5,0.3,0.9,0.4,1.2c0,0.1,0,0.1,0,0.2
		s0,0.2,0,0.3v0.1c-0.101,0.4-0.3,0.7-0.601,1c-1.5,2.1-3.199,2.2-5,0.5c0,0-0.1,0.1-0.199,0.2c-1.101-1.5-2.7-2.2-4.801-2
		c-0.699,0.2-1.399,0.5-2,0.9c-0.5,0.4-1,0.8-1.3,1.2c0.101-0.9,0.101-1.8-0.1-2.7c0.1,0,0.1,0,0.1-0.1c0-0.6,0.101-1.3,0.101-1.9
		c0.199-1.1,0.5-2.1,0.8-3.1c0.2-0.1,0.2-0.2,0.399-0.3c0.801-0.7,1.601-0.9,2.601-0.8c0.5,0.1,0.899,0.4,1.3,0.8
		c0.3,0.3,0.4,0.5,0.6,0.8c0,0.5,0,0.9-0.3,1.3c-0.1,0.1-0.2,0.3-0.2,0.4c-0.399,0.2-0.6,0.5-0.8,0.7c-0.1,0.1-0.1,0.1-0.1,0.1
		c-0.101,0.1-0.3,0.2-0.3,0.2c-0.301,0-0.5,0.1-0.601,0.1c-0.5-0.3-0.8-0.8-0.899-1.4c0-0.2,0-0.5,0.199-0.7c0,0,0.101,0,0.2,0
		c0.101-0.1,0.101-0.1,0.101-0.1c0.199,0.1,0.3,0.1,0.5,0.1c0,0.1,0,0.1,0.1,0.1c0.1-0.1,0.1-0.1,0.1-0.1c0.101,0,0.101,0,0.2-0.1
		c0-0.1,0-0.1,0-0.1c0-0.1,0-0.3,0-0.3c0-0.1,0-0.2,0-0.2c-0.3-0.5-0.7-0.6-1.2-0.5c-0.5,0.2-0.899,0.4-1,0.8
		c-0.1,0.9,0,1.6,0.4,2.2c0.7,1.5,1.8,1.7,3.1,0.6c0.5-0.4,0.801-0.8,1-1.3c0.301-0.6,0.4-1.1,0.4-1.6c0.6,0.3,1.3,0.6,2,0.7
		c1.1,0.2,1.9-0.2,2.3-1.3c0.5-1.4-0.1-2.4-1.7-2.6c-0.1,0-0.199,0.1-0.399,0.2c-0.3,0.2-0.601,0.5-0.8,0.7c0,0.1,0,0.2,0,0.3l0,0
		c0,0.1,0,0.2-0.101,0.2c-0.1,0.1-0.1,0.1-0.2,0.1c0,0,0,0.1,0,0.2s0,0.2,0,0.2c0,0.1,0,0.1,0.101,0.2c0.1,0.1,0.1,0.1,0.2,0.1
		c0.399,0.4,0.8,0.3,1.199-0.1c0-0.2-0.1-0.3-0.199-0.5c-0.101-0.1-0.2-0.1-0.2-0.2c0,0,0,0,0-0.1c0.1-0.1,0.2-0.2,0.3-0.4
		c0.1,0,0.1,0,0.1,0c0.2,0,0.301,0,0.5,0c0.101,0,0.2,0.2,0.301,0.3c0,0.1,0.199,0.2,0.199,0.2c0.101,0.1,0.2,0.1,0.2,0.2
		s0,0.3,0.101,0.3v0.1c-0.101,0.1-0.101,0.1-0.101,0.2c-0.1,0.1-0.1,0.2-0.2,0.3c0,0,0,0,0,0.1c-1.399,0.7-2.5,0.6-3.699-0.3
		c-0.301-0.8-1-1.4-2-1.7c0-0.1,0-0.1-0.101-0.1c-0.399-0.4-1-0.5-1.7-0.3c-0.1,0.1-0.199,0.1-0.199,0.1
		c-0.301,0.1-0.5,0.2-0.801,0.4c-0.699,0.2-1.3,0.7-1.899,1.3c0,0.2,0,0.3-0.101,0.5c-0.1,0.2-0.199,0.4-0.1,0.6c0,0.1,0,0.1,0,0.1
		c-0.1,0.1-0.1,0.1-0.1,0.2c0,0.1,0,0.1-0.101,0.1c0,0.7-0.2,1.4-0.2,2c0,0,0,0.1,0,0.2c-0.699-1.4-1.699-2.2-3.199-2.5
		c0-0.3,0-0.6,0.1-0.9c0.1-0.3,0.1-0.6,0.3-0.9c0.101-0.5,0.3-0.9,0.8-1.4c0.301,0,0.5,0,0.7,0c0.101,0.1,0.101,0.2,0.101,0.2
		c0.1,0.2,0.199,0.3,0.3,0.5c0,0,0,0,0.1,0c-0.1,0.1-0.2,0.2-0.2,0.2s-0.199,0-0.199,0.1c0,0.1,0,0.1-0.101,0
		c-0.1-0.1-0.2-0.1-0.2-0.1s-0.1,0-0.199,0.1l0,0c0,0.1-0.101,0.2-0.101,0.3c-0.1,0.1-0.1,0.2-0.1,0.2s0,0.1,0,0.2
		c0.2,0.2,0.5,0.2,0.8,0.2c0.1,0,0.2,0,0.4-0.1c0-0.1,0-0.1,0-0.2s0-0.1,0.199-0.1c0.101-0.1,0.2-0.2,0.301-0.3c0,0,0,0,0-0.1
		c0.1-0.1,0.1-0.1,0.1-0.2c-0.1-1.1-0.8-1.7-1.9-1.5c-0.1,0-0.199,0-0.199,0c-0.2,0.1-0.301,0.1-0.4,0.1l-0.1,0.1
		c-0.101,0.3-0.2,0.6-0.4,0.9c-0.1,0.1-0.1,0.2-0.1,0.2l0,0c0-0.1,0-0.2-0.101-0.2c-0.7-1.4-1.899-1.9-3.5-1.6
		c-0.7,0.2-1.2,0.7-1.399,1.4c-0.301,0.6-0.301,1.2-0.2,1.9c0.2,0.2,0.3,0.3,0.399,0.4c0.5,0.4,0.801,0.4,1.5,0.3
		c0-0.2,0-0.2,0.101-0.2c0.399-0.2,0.7-0.4,0.8-0.8c0.1-0.1,0.1-0.2,0.1-0.4v-0.1c-0.199-0.4-0.5-0.5-0.8-0.5c-0.1,0-0.2,0-0.2,0
		s0,0-0.1,0.1c-0.1,0.1-0.1,0.2-0.1,0.3s0,0.1,0,0.1c0,0.1,0,0.1,0,0.3c0.1,0,0.1,0.1,0,0.2c0,0,0,0-0.101,0c-0.2,0-0.399,0-0.6,0
		h-0.101c-0.199-0.4,0-0.9,0.2-1.4C70.964,10.3,71.164,10.1,71.464,9.8z"/>
	<path fill="#FFCB05" d="M50.564,22.8c0.6-0.8,1.1-1.6,1.3-2.5l0,0c0.3-0.3,0.5-0.7,0.6-1c0,0-0.1,0-0.1,0.1
		c-0.2,0.2-0.4,0.4-0.7,0.7c-0.7,0.4-1.5,0.9-2.2,1.7c-2.3,2.8-4.2,5.9-5.6,9.2c0,0.1,0,0.2,0,0.2c0,0.1,0.1,0.4,0.3,0.5
		c0.1,0.1,0.3,0.1,0.5,0.1C46.364,28.7,48.364,25.8,50.564,22.8z"/>
	<path fill="#FFCB05" d="M97.164,16.1c-0.1,0-0.199,0.2-0.399,0.2c-0.101,0.8-0.101,1.6,0.1,2.5c0.2,1,0.3,2,0.5,3
		c0.3,0,0.601-0.2,0.9-0.4c0.1-0.1,0.1-0.1,0.1-0.1C99.064,19.3,98.664,17.5,97.164,16.1z"/>
	<path fill="#FFCB05" d="M55.164,16.5h-0.199c0,0.1,0,0.1-0.101,0.1c-0.1,0-0.1,0-0.1,0c-0.101,0.2-0.2,0.2-0.3,0.4
		c0,0.1,0,0.2,0,0.3c0,0,0,0.2,0,0.3c0.7,0.3,1,0.2,1.2-0.5c0-0.1,0-0.1,0-0.2s-0.1-0.1-0.199-0.3c0,0,0,0-0.101,0
		C55.364,16.5,55.164,16.5,55.164,16.5L55.164,16.5z"/>
	<path fill="#0066B3" d="M37.664,33.2c-0.9-0.4-1.8-0.7-2.7-0.9c-3.2-0.8-6.4-1.1-9.6-1.1c-1,0.1-2.2,0.1-3.3,0.5
		c-0.9,0.1-1.9,0.5-2.7,1c-0.2,0.1-0.4,0.3-0.6,0.6c-0.5,0.5-0.6,1.3-0.3,2c0,0.4,0,0.6,0,0.9c1.5,1.5,3.5,2.4,5.7,2.6
		c0.6,0,1.3,0.1,1.9,0.4c4.6,1.1,9.2,2.2,13.7,3.6c0.4,0.2,0.9,0.4,1.5,0.4c1.2,0.1,2.5,0.4,3.7,0.8c0.4,0.1,0.7,0.3,1,0.3
		c0.5,0.2,0.7,0,0.5-0.5c0-0.2-0.1-0.5-0.2-0.6c-0.2-0.4-0.3-0.6-0.3-0.9c0-0.4,0-0.7,0-1.1c0.3-0.6,0.5-1.3,0.7-1.9
		c0-0.1,0-0.1,0-0.1c0.3-0.2,0.3-0.4,0.5-0.6c0,0,0.2,0,0.3-0.1c0-0.1,0.1-0.2,0.2-0.2c0.4-0.3,0.8-0.6,1-1l0,0c0-0.1,0-0.1,0-0.1
		c-0.2,0-0.2,0-0.2-0.1h-0.1c-0.1,0-0.1,0-0.2,0.1c0.1-0.2,0.1-0.3,0-0.4c-0.4-0.5-1-0.9-1.7-1C43.664,34.8,40.664,33.9,37.664,33.2
		z M18.964,34.4c0,0,0-0.1,0-0.2c0.5-0.9,1.1-1.4,2-1.9c0.7-0.5,1.4-0.7,2.2-0.8c0.9-0.2,1.8-0.2,2.6,0.2c0.2,0,0.3,0,0.4,0.1
		c0,0,0,0,0.1,0.1c0.1,0,0.1,0.2,0.1,0.3c0.1,0.1,0.1,0.1,0.1,0.1s0,0-0.1,0.1c0,0,0,0.1,0,0.2c0,0.1,0,0.1-0.1,0.1
		c-1.1,0.5-2.4,0.7-3.8,0.8c-0.5,0-1,0.2-1.4,0.6c-0.3,0.3-0.4,0.5-0.6,0.7c0,0.1,0,0.2,0,0.2c0.2,0.4,0.2,0.9,0.2,1.3
		c0,0.3,0,0.5-0.2,0.6c0,0,0,0,0,0.1c-0.5,0.3-0.8,0.2-1.1-0.2c0,0-0.1-0.2-0.2-0.4c-0.1-0.5-0.2-1-0.2-1.6
		C18.964,34.7,18.964,34.6,18.964,34.4z M27.964,32.8c0,0-0.1,0.1-0.2,0.1c-0.3,0-0.4-0.1-0.6-0.3c0-0.1,0-0.1,0-0.2
		c0.1-0.1,0.1-0.1,0.2-0.2c0.1,0,0.3-0.2,0.4-0.3l0,0c0.1,0,0.2,0.1,0.2,0.2c0.1,0,0.2,0.1,0.2,0.1c0,0.1,0,0.1,0,0.2s0,0.3,0,0.3
		C28.164,32.8,28.064,32.8,27.964,32.8z"/>
	<path fill="#0095DA" d="M18.964,34.2c0,0.1,0,0.2,0,0.2c0,0.2,0,0.3,0,0.4c0,0.6,0.1,1.1,0.2,1.6c0.1,0.2,0.2,0.4,0.2,0.4
		c0.3,0.4,0.6,0.5,1.1,0.2c0-0.1,0-0.1,0-0.1c0.2-0.1,0.2-0.3,0.2-0.6c0-0.4,0-0.9-0.2-1.3c0,0,0-0.1,0-0.2c0.2-0.2,0.3-0.4,0.6-0.7
		c0.4-0.4,0.9-0.6,1.4-0.6c1.4-0.1,2.7-0.3,3.8-0.8c0.1,0,0.1,0,0.1-0.1c0-0.1,0-0.2,0-0.2c0.1-0.1,0.1-0.1,0.1-0.1s0,0-0.1-0.1
		c0-0.1,0-0.3-0.1-0.3c-0.1-0.1-0.1-0.1-0.1-0.1c-0.1-0.1-0.2-0.1-0.4-0.1c-0.8-0.4-1.7-0.4-2.6-0.2c-0.8,0.1-1.5,0.3-2.2,0.8
		C20.064,32.8,19.464,33.3,18.964,34.2z"/>
	<path fill="#0095DA" d="M27.764,32.9c0.1,0,0.2-0.1,0.2-0.1c0.1,0,0.2,0,0.2-0.1c0,0,0-0.2,0-0.3s0-0.1,0-0.2c0,0-0.1-0.1-0.2-0.1
		c0-0.1-0.1-0.2-0.2-0.2l0,0c-0.1,0.1-0.3,0.3-0.4,0.3c-0.1,0.1-0.1,0.1-0.2,0.2c0,0.1,0,0.1,0,0.2
		C27.364,32.8,27.464,32.9,27.764,32.9z"/>
	<path fill="#0095DA" d="M29.664,42.3c0,0,0,0.1,0.1,0.3c-0.1-0.2-0.3-0.2-0.4-0.2c0,0.2,0,0.3,0,0.4c-0.1,0.8-0.2,1.5-0.2,2.4
		c0,0.5,0,1.1,0,1.6c0,0,0.1,0,0.2,0c-0.1,0.1-0.1,0.2-0.1,0.4c1.4-0.8,2.8-1,4.5-0.8c1,0.3,2,0.4,3,0.5
		c3.6,0.5,6.2,2.301,7.9,5.101c0.7,1.2,1.1,2.3,1.4,3.7c0.3,1.5,0.9,2.699,1.8,4c0.3,0.3,0.5,0.6,0.8,0.899c1.1,0.8,2.4,1.3,3.8,1.3
		c4,0.301,8-0.3,11.7-1.699c1.5-0.601,2.9-1,4.4-1.4c2.4-1,4.8-2,7.2-3.1c3.399-1.4,6.2-3.601,8.5-6.5c0.399-1,1.1-2,1.7-3
		c0.199-0.2,0.399-0.4,0.5-0.6c1.6-2.7,3.5-5.2,5.899-7.3c0.101-0.1,0.3-0.3,0.5-0.3c0.601-2.2,1.5-4.2,2.601-6.1
		c0.1,0,0.1,0,0.199-0.1c0,0,0-0.1,0-0.2c0.4-0.8,0.801-1.4,1.301-2.2c0-0.1,0-0.1,0.1-0.2c0-0.1,0-0.1,0.1-0.2l0,0c0,0,0,0,0.2-0.1
		c0-0.1,0-0.1,0.101-0.2c0.199-0.2,0.5-0.4,0.899-0.4c0-0.1,0.101-0.2,0.101-0.3c0.3-0.3,0.5-0.7,0.8-1c-0.101,0-0.101,0-0.101-0.1
		c-0.199-0.1-0.3-0.1-0.399-0.1c-0.101,0.1-0.101,0.1-0.2,0.1s-0.1,0-0.2,0.1l0,0c-0.1,0-0.1,0-0.2,0.1c-2.6,0.8-5.199,1.9-7.5,3.4
		c-3.3,2-5.8,4.7-7.699,7.9c0,0.3-0.101,0.6-0.301,0.9c-0.199,1-0.5,1.8-0.899,2.7c-0.4,1.8-1,3.5-1.601,5.2
		c-0.699,2.1-1.699,4.199-2.899,6.199c0,0,0,0.2,0.1,0.2c-0.399,0.3-0.899,0.7-1.3,0.9c-1.1,0.8-2.4,1.399-3.6,1.8
		c-4.801,2-9.801,3-14.801,3.4c-0.699-0.301-1.199-0.801-1.5-1.4c-0.6-0.9-0.899-2-0.8-3c0-1.5,0.101-3.1,0.2-4.6
		c0.1-1.7,0.3-3.301,0.6-4.9c0-0.5,0-0.9,0-1.3c0.101-0.5,0.2-1,0.301-1.5l-0.301-0.4c0,0,0,0,0-0.2c0-0.3,0-0.7,0-1.2
		c-0.199,0-0.199,0-0.199-0.1c-1.301-1.8-3-2.5-5.2-2.4c-0.4,0.1-1,0.3-1.5,0.6c-0.8,0.4-1.5,1-1.8,1.8c0,0.7,0.1,1.5,0.3,2.1
		c0.4,0.9,0.9,1.4,1.4,1.2c0,0.1,0.2,0.2,0.2,0.3c0.8,0.2,1.3-0.1,1.8-0.8c-0.7-0.5-0.8-1.1-0.4-2c0.3-0.5,0.7-0.6,1.2-0.4
		c1.4,0.3,1.8,1.3,1.5,2.7c-0.3,1.4-1.1,2.2-2.7,2.6h-0.1c-0.2,0-0.5,0.1-0.7,0.1c-0.3,0-0.5,0-0.8,0c-0.2,0-0.5,0-0.7,0
		c-0.3-0.1-0.7-0.2-1-0.399c-0.2-0.1-0.3-0.1-0.4-0.2c-1.5-0.5-3-1-4.6-1.3c-1.5-0.2-3-0.6-4.7-1c-0.1-0.1-0.2-0.1-0.4-0.1
		c-0.9-0.3-1.8-0.6-2.7-0.7c-1.6-0.4-3.2-0.8-4.7-1.2h-0.2c-0.1,0-0.1,0.1-0.1,0.2C29.564,42.3,29.564,42.3,29.664,42.3z
		 M30.164,45.3c-0.5-0.7-0.5-1.3,0-1.9c0-0.1,0-0.1,0.1-0.1c0.1,0,0.2,0,0.2,0c0.2,0,0.2,0,0.3,0.1c0.7,0.9,0.6,1.6-0.4,2
		C30.264,45.5,30.164,45.4,30.164,45.3z M46.564,53.6c0.1,0,0.1,0.101,0.1,0.2c0.1,0,0.2,0,0.3,0.1c0.2,2.5,1.5,4.4,3.8,5.5
		c0,0,0.2,0,0.2,0.101c0.1,0.1,0.2,0.2,0.2,0.3c0.2,0,0.3,0.1,0.5,0.2c-0.1,0-0.2,0.1-0.3,0.2h-0.2c-1.5,0.199-2.7-0.4-3.7-1.801
		c-0.8-1.199-1.1-2.6-1-4.1c0-0.1-0.1-0.3-0.1-0.3c0-0.2,0-0.2,0.1-0.4C46.464,53.6,46.464,53.399,46.564,53.6z M94.964,30.3
		c0,0.1,0.199,0.1,0.199,0.1c0,0.1,0,0.1,0.101,0.2c-0.601,1-1.4,1.8-2.601,2.5c-0.3,0.2-0.699,0.5-1.1,0.8
		c-1.9,1.8-3.5,3.6-4.9,5.7c-0.1,0.1-0.199,0.1-0.3,0.1c-0.2,0.1-0.3,0.3-0.399,0.6l0,0c-0.2,0.3-0.5,0.3-0.601,0.1
		c0.101-0.3,0.101-0.6,0.3-0.8c0.101-0.1,0.101-0.1,0.101-0.2c-0.101-0.5,0-1,0.399-1.4c0.2-0.2,0.2-0.3,0.2-0.6
		C88.464,34.1,91.364,31.8,94.964,30.3z"/>
	<path fill="#8ED8F8" d="M30.164,43.4c-0.5,0.6-0.5,1.2,0,1.9c0,0.1,0.1,0.2,0.2,0.1c1-0.4,1.1-1.1,0.4-2c-0.1-0.1-0.1-0.1-0.3-0.1
		c0,0-0.1,0-0.2,0C30.164,43.3,30.164,43.3,30.164,43.4z"/>
	<path fill="#8ED8F8" d="M46.664,53.8c0-0.1,0-0.2-0.1-0.2c-0.1-0.2-0.1,0-0.1,0c-0.1,0.2-0.1,0.2-0.1,0.4c0,0,0.1,0.2,0.1,0.3
		c-0.1,1.5,0.2,2.9,1,4.1c1,1.4,2.2,2,3.7,1.801h0.2c0.1-0.101,0.2-0.2,0.3-0.2c-0.2-0.101-0.3-0.2-0.5-0.2c0-0.1-0.1-0.2-0.2-0.3
		c0-0.101-0.2-0.101-0.2-0.101c-2.3-1.1-3.6-3-3.8-5.5C46.864,53.8,46.764,53.8,46.664,53.8z"/>
	<path fill="#8ED8F8" d="M95.164,30.4c0,0-0.199,0-0.199-0.1c-3.601,1.5-6.5,3.8-8.601,7.1c0,0.3,0,0.4-0.2,0.6
		c-0.399,0.4-0.5,0.9-0.399,1.4c0,0.1,0,0.1-0.101,0.2c-0.199,0.2-0.199,0.5-0.3,0.8c0.101,0.2,0.4,0.2,0.601-0.1l0,0
		c0.1-0.3,0.199-0.5,0.399-0.6c0.101,0,0.2,0,0.3-0.1c1.4-2.1,3-3.9,4.9-5.7c0.4-0.3,0.8-0.6,1.1-0.8c1.2-0.7,2-1.5,2.601-2.5
		C95.164,30.5,95.164,30.5,95.164,30.4z"/>
	<path fill="#625D97" d="M28.964,48.5c0,0-0.1,0-0.2,0.1c-0.1,0.3-0.2,0.7-0.3,1.101c0,0.6,0,1,0.1,1.3c-0.4,3.2-0.1,6.3,0.8,9.2
		c0,0.199,0.1,0.399,0.3,0.6c1.3,1.5,3,2.7,4.9,3.5c1.1,0.5,2.1,0.9,3.2,1.3c2.4,0.9,4.1,1.601,5.4,2c1.2,0.4,2.1,0.8,2.7,1
		c0.6,0.3,1.2,0.3,2,0.3c0.8,0,1.9-0.199,3.2-0.5c1.3-0.5,3.1-0.8,5.5-1.199c2.4-0.5,4.7-1.101,7.1-1.7c0.5-0.101,1-0.3,1.5-0.3l0,0
		c0.801-0.301,1.5-0.5,2.2-0.801c0.601-0.199,1.3-0.399,2-0.699c2.3-1,4.8-2.101,7-3.4c4.5-2.5,8.8-5.5,12.8-8.7
		c0.801-1.2,1.301-2.3,1.601-3.6c0.6-2.4,1.1-5,1.6-7.6c-0.1,0.1-0.2,0.2-0.2,0.3c-1.699,1.6-3.199,3.6-4.5,5.6
		c-0.899,1.3-1.699,2.6-2.5,3.9c-0.699,1.1-1.5,2.1-2.6,3c-1.1,1.1-2.4,1.899-3.7,2.6c-4.2,2.2-8.7,4-13.2,5.4
		c-2.199,0.699-4.199,1.3-6.3,1.8c-3.7,1.1-7.2,0.8-10.7-0.601c-1-0.5-1.7-1.199-2.2-2.3c-0.3-0.7-0.7-1.3-1.1-1.8c0,0,0,0,0-0.1
		c0-0.101,0-0.101-0.1-0.2c0,0,0,0,0-0.101c-0.6-1.199-1.1-2.6-1.5-4.1c0-0.5-0.3-0.8-0.6-1.1c0,0,0,0-0.1-0.101c0,0,0-0.1,0-0.2
		c0,0,0,0,0-0.1c-0.8-1.5-2-2.5-3.6-3c-0.7-0.2-1.4-0.5-2-0.9c-2.6-0.399-5.2-0.399-7.8-0.1
		C29.464,48.399,29.264,48.399,28.964,48.5z M30.064,49.1c0-0.1,0-0.1,0.1-0.1c0,0,0.1,0,0.2,0l0,0c0,0,0.1,0,0.3,0.1
		c0,0.101,0,0.2,0.1,0.2c0,0.1,0,0.3,0.1,0.4c-0.4,3.699,0.2,7.399,1.8,10.899c0.1,0.3,0.3,0.601,0.5,1c0,0.101,0,0.101,0,0.3
		c0,0,0,0.101-0.1,0.2c-0.9,0.101-1.6-0.399-2.1-1.399c-1.5-3.4-2-7-1.6-10.9c0.2-0.2,0.3-0.5,0.5-0.6
		C29.964,49.2,29.964,49.2,30.064,49.1z M38.764,54.2c0.1,0,0.2,0,0.2,0.1c0,0,0,0,0.1,0c0,0,0,0.1,0,0.2c-0.1,0.1-0.1,0.1-0.1,0.1
		c-0.3,0.2-0.6,0.3-0.9,0.4c-0.1,0-0.1,0.1-0.2,0.2c0.1,0.1,0.3,0.399,0.3,0.6c0,0.1,0,0.1,0,0.1V56c-0.1,0-0.2,0-0.2,0.1
		c-0.3-0.2-0.5-0.3-0.7-0.399c-0.1,0.199-0.1,0.399-0.1,0.6c0,0,0,0-0.1,0.1c0,0.101,0,0.101-0.1,0.101c0,0.1,0,0.1-0.1,0.1
		c-0.1,0-0.1,0-0.2-0.1c0-0.2,0-0.5,0-0.601c-0.4,0.101-0.8,0-1.3-0.1c0-0.1,0-0.1,0-0.1c0.2-0.4,0.6-0.7,1.2-0.7
		c-0.6-0.601-0.9-1.3-1-2.2c0.1,0,0.1,0,0.1,0c0-0.1,0.1-0.1,0.2-0.1c0.3,0.1,0.4,0.199,0.6,0.5c0,0,0,0,0,0.1
		c0.2,0.3,0.3,0.5,0.5,0.9c0-0.301,0.1-0.4,0.2-0.601c0.1-0.399,0.2-0.8,0.4-1.1c0.1-0.101,0.1-0.101,0.2-0.101c0-0.1,0-0.1,0.1-0.1
		c0.1,0.3,0.2,0.5,0.2,0.7c0,0.1,0,0.1,0,0.2c-0.1,0.5-0.3,0.8-0.4,1.399C37.964,54.3,38.364,54.3,38.764,54.2z M40.864,57.3
		c0.1,0,0.1,0,0.2,0c0.1,0.4,0.1,0.7,0.3,1c0,0.1,0,0.1,0,0.1c0.1,0.101,0.1,0.2,0.1,0.2c0.3-0.6,0.6-1.2,1-1.7l0,0
		c0.1,0,0.1,0,0.2,0l0,0c0,0,0,0,0.1,0.101c-0.2,0.7-0.4,1.3-0.6,1.899l0,0c0.2,0,0.3,0,0.5-0.1c0.1,0,0.3,0,0.5,0.1
		c0.1,0,0.3,0,0.3,0c0,0.101,0,0.101,0.1,0.2c0.1,0,0.1,0,0.1,0.101c-0.4,0.1-0.7,0.3-1,0.399c0,0,0.1,0.101,0.2,0.2
		c-0.1,0-0.2,0.1-0.2,0.2c-0.3-0.101-0.6-0.2-0.8-0.3c-0.1,0.3-0.2,0.5-0.2,0.8c0,0.1,0,0.1,0,0.1c-0.2,0.101-0.2,0.2-0.3,0.2
		c0,0-0.1,0-0.2,0c0,0,0-0.1-0.1-0.2c0.1-0.3,0.1-0.6,0.1-0.899c-0.3,0-0.6,0-0.9-0.101c-0.1,0-0.1-0.1-0.1-0.2
		c0.1-0.199,0.4-0.399,0.8-0.5c-0.3-0.3-0.4-0.899-0.3-1.5c0,0,0,0,0-0.1l0,0C40.764,57.3,40.764,57.3,40.864,57.3z M35.564,61.399
		L35.564,61.399c0-0.1,0-0.199,0-0.199c0.1-0.101,0.1-0.101,0.1-0.2c0,0,0.1,0,0.2-0.101c0.1,0.101,0.1,0.101,0.1,0.101
		c0.1,0.1,0.1,0.1,0.1,0.2c0.1-0.101,0.1-0.101,0.1-0.101c0-0.1,0-0.2,0-0.2c0-0.1,0-0.1,0-0.1c0.1-0.2,0.3-0.5,0.3-0.6
		c0,0,0.1,0,0.2,0l0,0c0,0,0,0,0.1,0.1c0,0.4-0.1,0.8-0.1,1.1c0,0,0.1,0,0.2,0c0.1,0,0.1,0,0.2,0s0.1,0,0.2,0c0.1,0,0.1,0,0.2,0.101
		c-0.2,0.2-0.4,0.399-0.6,0.6c0.2,0.2,0.3,0.3,0.6,0.5c0,0.101,0,0.101,0.1,0.101c0,0,0,0,0.1,0.199l0,0V63c-0.1,0-0.1,0-0.2,0.1
		c-0.4-0.1-0.8-0.2-1-0.5c-0.1,0-0.1,0.101-0.1,0.101s0,0,0,0.199c-0.2,0-0.2,0-0.4,0c0,0-0.1-0.199-0.2-0.199
		c0-0.101,0-0.2,0-0.301c-0.1,0-0.3,0-0.5,0c-0.1,0-0.2,0-0.3-0.1c0-0.1,0-0.2,0-0.3c0-0.101,0-0.101,0-0.2c0.3,0,0.5,0,0.7-0.1
		C35.664,61.7,35.664,61.5,35.564,61.399z M46.364,62.399v-0.1c0.1,0.1,0.1,0.1,0.1,0.1c0.1,0,0.1,0.2,0.1,0.2
		c0.1,0.101,0.1,0.101,0.1,0.101c-0.2,0.5-0.3,0.899-0.4,1.399c0.2-0.1,0.5-0.1,0.8-0.2l0,0c0.3,0,0.5,0.101,0.7,0.301h0.1
		c-0.5,0.199-1.1,0.399-1.5,0.6c0.1,0.1,0.2,0.2,0.3,0.4c0.3,0,0.5,0,0.5,0.199c-0.1,0.2-0.2,0.2-0.5,0.2l0,0
		c-0.2,0-0.5-0.2-0.7-0.2c0,0.2,0,0.301,0,0.5V66c-0.1,0-0.2,0-0.2,0.1c-0.1-0.1-0.1-0.1-0.2-0.1c-0.1-0.2-0.1-0.601-0.1-0.8
		c-0.1,0-0.3,0.199-0.5,0.199c0,0-0.2,0-0.3-0.1c0-0.1,0-0.1,0-0.1s0-0.2,0-0.301l0,0c0-0.1,0.1-0.199,0.3-0.199
		c-0.3-0.4-0.5-0.801-0.6-1.101c-0.1-0.1-0.1-0.1,0-0.2l0,0c0.1,0,0.1,0,0.2-0.1h0.1c0.2,0.3,0.5,0.6,0.8,0.9
		c0.1-0.5,0.3-1.101,0.6-1.601v-0.1C46.164,62.399,46.364,62.399,46.364,62.399z M90.664,43c0.101,0.2,0.301,0.3,0.301,0.3
		c0,0.1,0,0.2,0.1,0.3c-0.9,2.2-2.1,4.2-3.5,6.2c-0.1,0-0.1,0-0.1,0.1c-0.2,0-0.301,0.2-0.5,0.301l0,0
		c-0.5-0.9-0.301-1.801,0.399-2.7c0.4-0.8,1-1.7,1.3-2.5c0.5-1,1-1.6,1.801-2.1C90.464,43,90.664,43,90.664,43z"/>
	<path fill="#0066B3" d="M30.164,49c-0.1,0-0.1,0-0.1,0.1c-0.1,0.101-0.1,0.101-0.2,0.101c-0.2,0.1-0.3,0.399-0.5,0.6
		c-0.4,3.9,0.1,7.5,1.6,10.9c0.5,1,1.2,1.5,2.1,1.399c0.1-0.1,0.1-0.2,0.1-0.2c0-0.199,0-0.199,0-0.3c-0.2-0.399-0.4-0.7-0.5-1
		c-1.6-3.5-2.2-7.2-1.8-10.899c-0.1-0.101-0.1-0.301-0.1-0.4c-0.1,0-0.1-0.1-0.1-0.2c-0.2-0.1-0.3-0.1-0.3-0.1l0,0
		C30.264,49,30.164,49,30.164,49z"/>
	<path fill="#0066B3" d="M38.964,54.3c0-0.1-0.1-0.1-0.2-0.1c-0.4,0.1-0.8,0.1-1.1,0.399c0.1-0.6,0.3-0.899,0.4-1.399
		c0-0.101,0-0.101,0-0.2c0-0.2-0.1-0.4-0.2-0.7c-0.1,0-0.1,0-0.1,0.1c-0.1,0-0.1,0-0.2,0.101c-0.2,0.3-0.3,0.7-0.4,1.1
		c-0.1,0.2-0.2,0.3-0.2,0.601c-0.2-0.4-0.3-0.601-0.5-0.9c0-0.1,0-0.1,0-0.1c-0.2-0.301-0.3-0.4-0.6-0.5c-0.1,0-0.2,0-0.2,0.1
		c0,0,0,0-0.1,0c0.1,0.9,0.4,1.6,1,2.2c-0.6,0-1,0.3-1.2,0.7c0,0,0,0,0,0.1c0.5,0.1,0.9,0.2,1.3,0.1c0,0.101,0,0.4,0,0.601
		c0.1,0.1,0.1,0.1,0.2,0.1c0.1,0,0.1,0,0.1-0.1c0.1,0,0.1,0,0.1-0.101c0.1-0.1,0.1-0.1,0.1-0.1c0-0.2,0-0.4,0.1-0.6
		c0.2,0.1,0.4,0.199,0.7,0.399c0-0.1,0.1-0.1,0.2-0.1v-0.101c0,0,0,0,0-0.1c0-0.2-0.2-0.5-0.3-0.6c0.1-0.101,0.1-0.2,0.2-0.2
		c0.3-0.101,0.6-0.2,0.9-0.4c0,0,0,0,0.1-0.1c0-0.101,0-0.2,0-0.2C38.964,54.3,38.964,54.3,38.964,54.3z M37.664,54.899
		c0,0,0,0,0.1,0C37.664,54.899,37.664,54.899,37.664,54.899z"/>
	<path fill="#625D97" d="M37.764,54.899c-0.1,0-0.1,0-0.1,0S37.664,54.899,37.764,54.899z"/>
	<path fill="#0066B3" d="M41.064,57.3c-0.1,0-0.1,0-0.2,0c-0.1,0-0.1,0-0.2,0l0,0c0,0.1,0,0.1,0,0.1c-0.1,0.601,0,1.2,0.3,1.5
		c-0.4,0.101-0.7,0.301-0.8,0.5c0,0.101,0,0.2,0.1,0.2c0.3,0.101,0.6,0.101,0.9,0.101c0,0.3,0,0.6-0.1,0.899
		c0.1,0.101,0.1,0.2,0.1,0.2c0.1,0,0.2,0,0.2,0c0.1,0,0.1-0.1,0.3-0.2c0,0,0,0,0-0.1c0-0.3,0.1-0.5,0.2-0.8
		c0.2,0.1,0.5,0.199,0.8,0.3c0-0.101,0.1-0.2,0.2-0.2c-0.1-0.1-0.2-0.2-0.2-0.2c0.3-0.1,0.6-0.3,1-0.399c0-0.101,0-0.101-0.1-0.101
		c-0.1-0.1-0.1-0.1-0.1-0.2c0,0-0.2,0-0.3,0c-0.2-0.1-0.4-0.1-0.5-0.1c-0.2,0.1-0.3,0.1-0.5,0.1l0,0c0.2-0.6,0.4-1.199,0.6-1.899
		c-0.1-0.101-0.1-0.101-0.1-0.101l0,0c-0.1,0-0.1,0-0.2,0l0,0c-0.4,0.5-0.7,1.101-1,1.7c0,0,0-0.1-0.1-0.2c0,0,0,0,0-0.1
		C41.164,58,41.164,57.7,41.064,57.3z"/>
	<path fill="#0066B3" d="M35.564,61.399L35.564,61.399c0.1,0.101,0.1,0.301,0.1,0.301c-0.2,0.1-0.4,0.1-0.7,0.1c0,0.1,0,0.1,0,0.2
		c0,0.1,0,0.2,0,0.3c0.1,0.1,0.2,0.1,0.3,0.1c0.2,0,0.4,0,0.5,0c0,0.101,0,0.2,0,0.301c0.1,0,0.2,0.199,0.2,0.199c0.2,0,0.2,0,0.4,0
		c0-0.199,0-0.199,0-0.199s0-0.101,0.1-0.101c0.2,0.3,0.6,0.4,1,0.5c0.1-0.1,0.1-0.1,0.2-0.1v-0.101l0,0
		c-0.1-0.199-0.1-0.199-0.1-0.199c-0.1,0-0.1,0-0.1-0.101c-0.3-0.2-0.4-0.3-0.6-0.5c0.2-0.2,0.4-0.399,0.6-0.6
		c-0.1-0.101-0.1-0.101-0.2-0.101c-0.1,0-0.1,0-0.2,0s-0.1,0-0.2,0c-0.1,0-0.2,0-0.2,0c0-0.3,0.1-0.699,0.1-1.1
		c-0.1-0.1-0.1-0.1-0.1-0.1l0,0c-0.1,0-0.2,0-0.2,0c0,0.1-0.2,0.399-0.3,0.6c0,0,0,0,0,0.1c0,0,0,0.101,0,0.2c0,0,0,0-0.1,0.101
		c0-0.101,0-0.101-0.1-0.2c0,0,0,0-0.1-0.101C35.764,61,35.664,61,35.664,61c0,0.1,0,0.1-0.1,0.2
		C35.564,61.2,35.564,61.3,35.564,61.399z"/>
	<path fill="#0066B3" d="M46.364,62.3v0.1c0,0-0.2,0-0.3,0.101v0.1c-0.3,0.5-0.5,1.101-0.6,1.601c-0.3-0.301-0.6-0.601-0.8-0.9h-0.1
		c-0.1,0.1-0.1,0.1-0.2,0.1l0,0c-0.1,0.101-0.1,0.101,0,0.2c0.1,0.3,0.3,0.7,0.6,1.101c-0.2,0-0.3,0.1-0.3,0.199l0,0
		c0,0.101,0,0.301,0,0.301s0,0,0,0.1c0.1,0.1,0.3,0.1,0.3,0.1c0.2,0,0.4-0.199,0.5-0.199c0,0.199,0,0.6,0.1,0.8c0.1,0,0.1,0,0.2,0.1
		c0-0.1,0.1-0.1,0.2-0.1v-0.101c0-0.199,0-0.3,0-0.5c0.2,0,0.5,0.2,0.7,0.2l0,0c0.3,0,0.4,0,0.5-0.2c0-0.199-0.2-0.199-0.5-0.199
		c-0.1-0.2-0.2-0.301-0.3-0.4c0.4-0.2,1-0.4,1.5-0.6h-0.1c-0.2-0.2-0.4-0.301-0.7-0.301l0,0c-0.3,0.101-0.6,0.101-0.8,0.2
		c0.1-0.5,0.2-0.899,0.4-1.399c0,0,0,0-0.1-0.101c0,0,0-0.2-0.1-0.2C46.464,62.399,46.464,62.399,46.364,62.3z"/>
	<path fill="#0066B3" d="M90.964,43.3c0,0-0.2-0.1-0.301-0.3c0,0-0.199,0-0.199-0.1c-0.801,0.5-1.301,1.1-1.801,2.1
		c-0.3,0.8-0.899,1.7-1.3,2.5c-0.7,0.899-0.899,1.8-0.399,2.7l0,0c0.199-0.101,0.3-0.301,0.5-0.301c0-0.1,0-0.1,0.1-0.1
		c1.4-2,2.6-4,3.5-6.2C90.964,43.5,90.964,43.4,90.964,43.3z"/>
	<path fill="#666666" d="M10.464,61.7c0-0.101,0-0.101-0.1-0.2c-0.6-0.8-1.4-1.3-2.4-1.4c-0.2,0.101-0.4,0.101-0.6,0.2
		c-0.4,0.2-0.7,0.4-1.1,0.5c-0.1,0.1-0.1,0.1-0.1,0.1c0,0.101,0,0.101,0,0.2c0,0.101,0,0.101-0.1,0.101c-0.1,0.1-0.2,0.1-0.3,0.199
		c-0.1,0-0.1,0-0.1,0c0.1,0,0.3,0,0.5,0c1.4,0.101,2.7,0.301,4,0.7c0-0.1,0-0.1,0.2-0.1c0-0.101,0-0.101,0-0.101
		C10.464,61.899,10.464,61.8,10.464,61.7L10.464,61.7z"/>
	<path fill="#666666" d="M4.964,61.7c0,0,0,0-0.1,0c-0.1-0.101-0.2-0.2-0.4-0.301l0,0c-0.1,0.101-0.2,0.101-0.3,0.2c0,0,0,0,0,0.101
		c0,0,0,0.1,0,0.199c0,0,0,0,0,0.101c0.2,0.3,0.5,0.399,0.8,0.1c0-0.1,0-0.2,0-0.2C4.964,61.8,4.964,61.8,4.964,61.7z"/>
	<path fill="#666666" d="M31.864,79c-0.2-0.3-0.4-0.4-0.7-0.4c-0.2,0.101-0.5,0.101-0.8,0.3c-1.8,0.5-2.6,1.601-2.4,3.2
		c0.2,0,0.4,0,0.5-0.1c0.1,0,0.1,0,0.2,0c0,0,0,0,0-0.101c0.7-1,1.5-1.699,2.7-2c0,0,0.1-0.199,0.2-0.199
		c0.2-0.2,0.4-0.301,0.4-0.601C31.964,79.1,31.964,79,31.864,79z"/>
	<path fill="#666666" d="M27.264,83.899c0,0,0,0-0.1,0.101c-0.2,0.2-0.2,0.5-0.2,0.7c0.2,0.3,0.4,0.3,0.6,0.3c0.1,0,0.1,0,0.1-0.101
		c0.3-0.3,0.4-0.699,0.3-1c-0.1-0.1-0.1-0.1-0.2-0.199c0,0-0.1,0-0.1-0.101c-0.1,0.101-0.2,0.101-0.2,0.101
		C27.364,83.7,27.364,83.8,27.264,83.899z"/>
	<path fill="#ED1C24" d="M83.164,30.1c-2.5-0.6-5.199-1.3-7.699-2.2c-3.301-0.8-6.5-0.9-9.9-0.7c-0.4,0.1-0.6,0-1-0.1
		c-3.1,0.9-5.9,2.2-8.4,4.2c-0.699,0.5-1.399,1.1-1.8,1.8c0.3-0.1,0.601-0.2,0.9-0.2c0.1,0,0.2,0,0.3,0c2.4,0,4.6,0.6,6.6,1.9
		c0.2,0,0.301,0.2,0.5,0.2c3.101,0.8,6.301,1.3,9.301,1.6c1.399,0.2,2.699,0.3,4,0.7c1.5,0.5,3.199,1,4.699,1.8c0-0.1,0-0.2,0-0.2
		c0.5-0.6,0.7-1,0.7-1.5c0.601-0.8,1.101-1.6,1.8-2.2c1.2-1.4,2.4-2.8,3.801-3.9C85.664,30.8,84.464,30.4,83.164,30.1z M57.964,31.9
		c0-0.1,0-0.2,0-0.2c1.5-1.7,3.6-2.7,6-2.9c0.5,0,1-0.1,1.5-0.3c0.1,0.1,0.199,0.2,0.3,0.3l0,0c0.7,0,1.3,0,1.8,0.3
		c-0.6,0.2-1.2,0.3-1.8,0.3c-1.601,0.6-3.2,1.1-4.9,1.6c-0.7,0.2-1.2,0.6-1.7,1c-0.399,0.2-0.5,0.2-0.8,0.3
		c-0.2-0.1-0.2-0.2-0.399-0.3C57.964,31.9,57.964,31.9,57.964,31.9z M69.464,28.3c0.3,0,0.699,0.3,0.899,0.6c0,0,0,0,0.101,0.1
		c-0.301,0.9-0.801,1-1.5,0.4c-0.2-0.1-0.2-0.2-0.2-0.4c0-0.1,0-0.2,0-0.3c0.2-0.2,0.3-0.4,0.399-0.4
		C69.264,28.3,69.364,28.3,69.464,28.3z"/>
	<path fill="#F9A870" d="M57.964,31.7c0,0,0,0.1,0,0.2c0,0,0,0,0,0.1c0.199,0.1,0.199,0.2,0.399,0.3c0.3-0.1,0.4-0.1,0.8-0.3
		c0.5-0.4,1-0.8,1.7-1c1.7-0.5,3.3-1,4.9-1.6c0.6,0,1.2-0.1,1.8-0.3c-0.5-0.3-1.1-0.3-1.8-0.3l0,0c-0.101-0.1-0.2-0.2-0.3-0.3
		c-0.5,0.2-1,0.3-1.5,0.3C61.564,29,59.464,30,57.964,31.7z"/>
	<path fill="#F9A870" d="M70.364,28.9c-0.2-0.3-0.6-0.6-0.899-0.6c-0.101,0-0.2,0-0.301,0c-0.1,0-0.199,0.2-0.399,0.4
		c0,0.1,0,0.2,0,0.3c0,0.2,0,0.3,0.2,0.4c0.699,0.6,1.199,0.5,1.5-0.4C70.364,28.9,70.364,28.9,70.364,28.9z"/>
	<path fill="#ED1651" d="M52.764,37c0.1,0.1,0.2,0.2,0.2,0.2c1.2,0.6,2.4,1.1,3.7,1.4c0.101,0.2,0.301,0.4,0.5,0.7
		c0.2,0.3,0.5,0.5,0.801,0.7c0.1,0.2,0.199,0.3,0.399,0.4c0,0.4,0.101,0.8,0.101,1.2c0,0.1,0.1,0.2,0.199,0.4c0.101,1.8,0,3.3-0.3,5
		c0-0.101,0-0.101,0.101-0.101h0.199c3.101,0.9,6.301,1.5,9.4,2c0.9,0.2,1.6,0.301,2.4,0.4c1.199,0.4,2.399,0.5,3.699,0.8
		c0.801,0.2,1.5,0.3,2.301,0.7c0,0,0.1,0,0.199,0c0.5-0.6,0.801-1.4,1.301-2.1c1-2.101,1.5-4.3,1.5-6.7c0-0.2,0-0.3,0.1-0.5
		c0.1-0.3,0.1-0.7,0.2-0.9c-0.101-0.1-0.3-0.2-0.4-0.2c-1.1-0.5-2.2-0.8-3.399-1.1c-1.601-0.5-3.2-1-4.9-1.1c-3.2-0.4-6.4-1-9.5-2
		c-0.6-0.3-1.1-0.5-1.6-0.8c-1.801-1-3.601-1.3-5.7-1c-0.3,0.1-0.6,0-0.6-0.2c-0.5,0.8-0.9,1.6-1.2,2.6l0,0c0.1,0,0.2,0,0.3,0
		c-0.1,0-0.3,0.1-0.3,0.1s0,0,0,0.1H52.764z M53.464,36.3c-0.1-0.1-0.1-0.3,0-0.5c0.4-0.5,0.9-0.9,1.5-1c1.6,0,3.199,0.2,4.699,0.8
		c0,0.1,0.101,0.1,0.2,0.1c0.101,0,0.101,0.1,0.101,0.1s0.1,0.1,0.199,0.2c0,0.2,0,0.2,0,0.2c-0.699,0.4-1.6,0.5-2.699,0.2
		c-1.101-0.2-2.301-0.2-3.5,0C53.664,36.4,53.664,36.4,53.464,36.3z M72.064,38.5c0.1,0,0.2,0,0.4,0.1l0,0
		c-0.101,0.1-0.301,0.1-0.5,0.2c0,0-0.2,0.1-0.301,0.4c0,0,0,0.1-0.1,0.1c0.1,0.4,0.1,0.6,0.1,1c0,0.2,0.2,0.4,0.301,0.5l0.1,0.1
		c0.1,0,0.2,0,0.4,0c0.1-0.2,0.199-0.3,0.3-0.5c0.1,0,0.1-0.1,0.2-0.1c0,0,0,0,0-0.1c-0.101-0.1-0.101-0.2-0.2-0.2h-0.101
		c0,0-0.199,0-0.199-0.1v-0.1c0,0,0.1-0.1,0.199-0.3c0,0,0.101,0,0.2,0c0.101,0.2,0.2,0.3,0.3,0.3c0,0,0,0.1,0.101,0.1
		c0.1,0.1,0.1,0.2,0.1,0.4c0,0,0,0.1-0.1,0.2c-0.101,0.2-0.3,0.4-0.5,0.5c-0.101,0.1-0.101,0.2-0.2,0.3c-0.2,0-0.4,0-0.6,0
		c-0.601-0.4-0.801-1-0.601-1.6c0-0.3,0-0.4,0-0.5c0.101-0.3,0.2-0.4,0.4-0.5S71.964,38.6,72.064,38.5z M70.164,43.3
		c0.101-0.2,0.2-0.5,0.301-0.9c0-1.5-0.7-2.3-2-2.5c-0.301,0-0.601,0.1-0.9,0.3c-0.4,0.3-0.8,0.7-0.9,1.2c0,0.1,0,0.1,0,0.2
		c0.101,0,0.101,0.1,0,0.1c0,0,0,0,0,0.1c-0.1-0.1-0.199-0.1-0.199-0.2c0.1-1,0.699-1.8,1.699-2.2c0.2-0.1,0.301-0.1,0.301-0.1
		c2,0.5,2.699,1.8,2.5,3.8c-0.301,1.5-1.2,2.2-2.801,2.2c-1.199-1-1.5-2.2-0.699-3.7c0-0.3,0.199-0.4,0.5-0.5
		c1,0.2,1.5,0.7,1.699,1.6c0,0.1,0,0.2,0,0.4c0,0.1-0.199,0.2-0.199,0.2c-0.2,0.2-0.301,0.3-0.5,0.5l0,0c-0.2,0-0.301,0-0.301-0.1
		c-0.1,0-0.1-0.1-0.199-0.1c0-0.1,0-0.1,0-0.2l0,0c0-0.1,0.199-0.1,0.199-0.1c0.101,0,0.101,0,0.101,0c0.2-0.1,0.3-0.2,0.399-0.4
		c0,0,0,0,0-0.1c0-0.2-0.1-0.5-0.199-0.6c-0.2-0.3-0.5-0.5-0.801-0.6c-0.1,0.1-0.199,0.1-0.3,0.1c-0.1,0-0.2,0.1-0.2,0.1
		c-0.199,0.8-0.199,1.5,0,2.2c0.101,0.4,0.301,0.7,0.801,0.9c0.3,0.2,0.699,0.1,1-0.1c0.1-0.1,0.199-0.1,0.199-0.1
		C69.964,44.3,70.164,43.8,70.164,43.3z M72.364,41.8c0,0,0,0,0.101,0c0.1,0,0.199,0,0.399,0c-0.2,0.2-0.399,0.5-0.8,0.9
		c-0.4,0.2-0.5,0.6-0.5,1.1c-0.1,1.4,0.4,2.4,1.6,3c0.4,0.2,0.801,0.4,1.301,0.4c1.699-1.4,2-2.9,1.199-4.601
		c-0.199-0.6-0.8-0.9-1.5-0.8c-0.5,0.5-0.699,1-0.8,1.6c-0.2,0.4-0.2,0.9-0.1,1.3c0.399,0.6,0.899,0.8,1.399,0.4
		c0.2-0.2,0.301-0.4,0.4-0.7c0,0,0,0-0.1-0.1c0,0,0,0,0-0.1c-0.101,0-0.101,0-0.101-0.1V44c-0.3,0-0.5-0.1-0.7-0.2l0,0
		c0-0.1,0-0.1,0-0.2c0,0,0,0,0.101-0.1c0.1-0.1,0.1-0.1,0.2-0.1c0.199,0,0.399,0,0.6,0.1c0.9,1.1,0.6,1.8-0.7,2.3
		c-0.2,0.1-0.2,0.1-0.399,0.1c-0.301-0.1-0.5-0.1-0.7-0.1c0,0,0-0.1-0.101-0.1c0-0.2-0.1-0.4-0.3-0.5c-0.1,0-0.2-0.2-0.2-0.2
		c-0.199-1,0-1.9,0.5-2.7c0.2-0.5,0.5-0.9,1-1.1c1.9,0.3,2.7,1.4,2.5,3.2c-0.3,2.2-1.5,3.2-3.5,3c-0.3,0-0.5-0.1-0.699-0.399
		C70.864,45.3,70.864,43.5,72.364,41.8z M64.964,40.4c0,0,0.1,0.1,0.199,0.2c0,0.1,0.101,0.2,0.2,0.3c0.101,0.3,0.2,0.5,0.3,0.8
		c0.101,1.5-0.199,2.7-1.3,3.6c-0.399,0.4-0.899,0.5-1.5,0.2c-1.899-0.8-2.6-2.2-2.3-4.1c0.2-0.6,0.5-1.1,1.1-1.4
		c0,0,0.101,0,0.301,0l0,0c0,0.1-0.2,0.2-0.301,0.3c-0.199,0-0.199,0.1-0.5,0.2c-0.8,1.9-0.199,3.4,1.801,4.3
		c0.399,0.2,0.8,0.2,1.3,0.1c0.1,0,0.2,0,0.2-0.1c0.199-0.5,0.5-1.2,0.5-1.8c0.1-0.3,0.199-0.7,0.1-1.1c-0.1-0.1-0.1-0.1-0.2-0.2
		c-0.1-0.2-0.2-0.3-0.2-0.5c0,0,0,0-0.1-0.1c-0.2-0.2-0.6-0.3-0.8-0.4c-0.2,0-0.4,0-0.601,0c0,0.1,0,0.2-0.199,0.3
		c0,0.1-0.2,0.2-0.301,0.3c0,0.2,0,0.4,0,0.7c0,0.3,0,0.8,0.101,1.1c0.2,0.1,0.399,0.1,0.6,0l0.101-0.2
		c-0.101,0-0.101-0.1-0.101-0.2c-0.1,0-0.1-0.1-0.2-0.3c0-0.1,0-0.1,0-0.1c0.101,0,0.101,0,0.2-0.1l0.101-0.1
		c0.199,0,0.3,0.1,0.5,0.1c0.1,0.1,0.199,0.2,0.399,0.4c0,0.2,0,0.3-0.1,0.6c-0.2,0.2-0.3,0.5-0.5,0.7c-1.5,0-2.101-0.7-1.8-2.3
		c0.199-0.9,0.6-1.5,1.399-1.8C63.964,39.9,64.464,40.1,64.964,40.4z M66.764,45.2c-0.101,0.1-0.2,0.1-0.3,0.1
		c-0.101,0-0.2,0-0.301,0c0,0,0,0,0,0.1c-0.1,0.2-0.1,0.3-0.1,0.3c-0.1,0.1-0.1,0.3-0.3,0.5c0.2,0.1,0.3,0.3,0.399,0.5
		c0,0.1,0,0.2,0.101,0.5c0.6,0.5,1.1,0.399,1.5-0.301c-0.101-0.2-0.2-0.2-0.3,0c0,0,0,0.101,0,0.301c0,0,0,0.1-0.101,0
		c-0.1,0-0.2-0.2-0.399-0.2c0-0.101,0-0.101,0-0.2l0,0c0.1-0.1,0.1-0.3,0.199-0.4c0-0.1,0-0.1,0.101-0.2c0.1,0,0.1,0,0.2-0.1
		c0.199,0.1,0.5,0.2,0.699,0.4c0,0.2,0,0.3,0,0.3c0,0.1,0,0.4,0,0.5c-0.899,1.1-1.8,1-2.5-0.4c-0.199-0.2-0.3-0.5-0.399-0.6
		c0-0.3,0.1-0.5,0.2-0.6c0-0.2,0-0.4,0.1-0.4c0.1-0.2,0.2-0.4,0.4-0.4c0.1,0,0.199,0,0.199-0.1c0.101,0.1,0.2,0.2,0.4,0.2
		C66.664,45.1,66.664,45.2,66.764,45.2z M69.764,46.4c0.1,0,0.1,0,0.2,0c-0.101,0.1-0.101,0.3-0.101,0.4c-0.1,0-0.1,0-0.1,0
		c0,0.2,0,0.4,0,0.5c0,0,0,0,0,0.1c0,0,0,0.101,0.1,0.2c0.101,0,0.101,0.101,0.101,0.2c0.199,0,0.399,0,0.5,0
		c0-0.2,0.199-0.3,0.199-0.5c0.101,0,0.101,0,0.101,0c0.1,0.1,0.1,0.2,0.2,0.3c0,0.101,0,0.101,0,0.2c0,0.2-0.2,0.4-0.301,0.5
		c-0.3-0.1-0.5-0.1-0.899-0.1c-0.2-0.4-0.3-0.801-0.3-1.2v-0.101c0.1-0.1,0.199-0.1,0.199-0.2s0-0.1,0-0.2
		C69.764,46.5,69.764,46.5,69.764,46.4z M61.664,37.6c0,0.1,0,0.1,0.101,0.1c0,0.1,0.2,0.1,0.2,0.1c0.1,0.3,0.199,0.5,0.199,0.9
		c-0.1,0.1-0.1,0.1-0.1,0.2c-0.1,0-0.3,0.1-0.4,0.2c-0.3-0.2-0.5-0.3-0.699-0.4c0-0.1,0-0.1,0-0.1c0-0.2,0-0.3,0-0.3
		c0.199,0,0.199,0,0.5,0.1l-0.101,0.1c-0.1,0.1-0.2,0.1-0.2,0.1c0.101,0,0.301,0,0.5,0.1c0-0.1,0-0.1,0-0.1c0-0.2,0-0.3,0-0.3
		c0-0.1-0.1-0.3-0.199-0.3c0-0.1,0-0.1,0-0.2c0,0,0,0,0-0.1l0,0C61.564,37.6,61.564,37.6,61.664,37.6z M58.964,37.9
		c0,0.1,0.199,0.1,0.199,0.1c0,0.2,0,0.4,0,0.6c0,0.1,0,0.2,0,0.2c-0.399,0.3-0.6,0.2-0.899-0.1c-0.101-0.4-0.101-0.5,0.1-0.7
		c0.101-0.1,0.2-0.1,0.3-0.1c0,0.1,0,0.1,0,0.1C58.764,37.9,58.864,37.9,58.964,37.9z M59.964,43.7L59.964,43.7v-0.1
		c0.199,0.1,0.399,0.1,0.5,0.1c0.199,0.1,0.3,0.2,0.5,0.4c0,0.1,0.199,0.2,0.199,0.3c0,0.5,0,0.9-0.3,1.4
		c-0.1,0.1-0.2,0.3-0.399,0.4c-0.101,0-0.4,0-0.5,0c-0.101-0.3-0.101-0.5-0.2-0.7c0-0.2-0.101-0.4-0.3-0.6c0-0.1,0-0.2,0-0.2
		c0-0.2,0-0.3-0.101-0.4c0.101-0.1,0.101-0.1,0.101-0.2c0.199-0.1,0.3-0.2,0.399-0.3L59.964,43.7z M77.364,40.6
		c0.3,0,0.4,0.1,0.601,0.1c0,0.1,0,0.1,0,0.1c0,0.1,0,0.1-0.101,0.1c-0.1,0.1-0.2,0.1-0.399,0.1c-0.301,0.6-0.301,1.1-0.301,1.7
		c0,0.2,0,0.5,0,0.7c0.301,0,0.5,0,0.801,0c0-0.1,0-0.1,0.1-0.2s0.2-0.3,0.3-0.4c0-0.1,0-0.1-0.1-0.1c-0.101,0-0.2,0-0.3-0.1
		c0-0.4,0.1-0.4,0.6-0.3c0.1,0,0.1,0.1,0.1,0.3c0,0.2,0,0.2,0,0.3c-0.199,0.9-0.8,1.1-1.5,0.9c-0.1,0-0.199,0-0.3,0
		c-0.2-1-0.1-1.9,0.101-2.7C77.064,40.8,77.164,40.7,77.364,40.6z M75.464,47.399c0.1,0,0.1,0,0.199-0.1c0.301,0,0.601,0,0.801-0.1
		c0.1,0.1,0.199,0.1,0.3,0.1c0,0,0,0,0.1,0.1c-0.1,0.2-0.1,0.4-0.1,0.601s0,0.3,0,0.3c-0.3,0.5-0.7,0.7-1.3,0.7
		c-0.101-0.3-0.101-0.601-0.2-1c0-0.101,0-0.2,0-0.2C75.364,47.7,75.464,47.6,75.464,47.399z"/>
	<path fill="#F9AA8F" d="M53.464,35.8c-0.1,0.2-0.1,0.4,0,0.5c0.2,0.1,0.2,0.1,0.5,0.1c1.2-0.2,2.4-0.2,3.5,0
		c1.1,0.3,2,0.2,2.699-0.2c0,0,0,0,0-0.2c-0.1-0.1-0.199-0.2-0.199-0.2s0-0.1-0.101-0.1c-0.1,0-0.2,0-0.2-0.1
		c-1.5-0.6-3.1-0.8-4.699-0.8C54.364,34.9,53.864,35.3,53.464,35.8z"/>
	<path fill="#C74A5F" d="M72.464,38.6c-0.2-0.1-0.301-0.1-0.4-0.1c-0.1,0.1-0.1,0.1-0.3,0.2s-0.3,0.2-0.4,0.5c0,0.1,0,0.2,0,0.5
		c-0.2,0.6,0,1.2,0.601,1.6c0.199,0,0.399,0,0.6,0c0.1-0.1,0.1-0.2,0.2-0.3c0.2-0.1,0.399-0.3,0.5-0.5c0.1-0.1,0.1-0.2,0.1-0.2
		c0-0.2,0-0.3-0.1-0.4c-0.101,0-0.101-0.1-0.101-0.1c-0.1,0-0.199-0.1-0.3-0.3c-0.1,0-0.2,0-0.2,0c-0.1,0.2-0.199,0.3-0.199,0.3v0.1
		c0,0.1,0.199,0.1,0.199,0.1h0.101c0.1,0,0.1,0.1,0.2,0.2c0,0.1,0,0.1,0,0.1c-0.101,0-0.101,0.1-0.2,0.1c-0.101,0.2-0.2,0.3-0.3,0.5
		c-0.2,0-0.301,0-0.4,0l-0.1-0.1c-0.101-0.1-0.301-0.3-0.301-0.5c0-0.4,0-0.6-0.1-1c0.1,0,0.1-0.1,0.1-0.1
		c0.101-0.3,0.301-0.4,0.301-0.4C72.164,38.7,72.364,38.7,72.464,38.6L72.464,38.6z"/>
	<path fill="#C74A5F" d="M70.464,42.4c-0.101,0.4-0.2,0.7-0.301,0.9c0,0.5-0.199,1-0.5,1.4c0,0-0.1,0-0.199,0.1
		c-0.301,0.2-0.7,0.3-1,0.1c-0.5-0.2-0.7-0.5-0.801-0.9c-0.199-0.7-0.199-1.4,0-2.2c0,0,0.101-0.1,0.2-0.1c0.101,0,0.2,0,0.3-0.1
		c0.301,0.1,0.601,0.3,0.801,0.6c0.1,0.1,0.199,0.4,0.199,0.6c0,0.1,0,0.1,0,0.1c-0.1,0.2-0.199,0.3-0.399,0.4c0,0,0,0-0.101,0
		c0,0-0.199,0-0.199,0.1l0,0c0,0.1,0,0.1,0,0.2c0.1,0,0.1,0.1,0.199,0.1c0,0.1,0.101,0.1,0.301,0.1l0,0c0.199-0.2,0.3-0.3,0.5-0.5
		c0,0,0.199-0.1,0.199-0.2c0-0.2,0-0.3,0-0.4c-0.199-0.9-0.699-1.4-1.699-1.6c-0.301,0.1-0.5,0.2-0.5,0.5
		c-0.801,1.5-0.5,2.7,0.699,3.7c1.601,0,2.5-0.7,2.801-2.2c0.199-2-0.5-3.3-2.5-3.8c0,0-0.101,0-0.301,0.1c-1,0.4-1.6,1.2-1.699,2.2
		c0,0.1,0.1,0.1,0.199,0.2c0-0.1,0-0.1,0-0.1c0.101,0,0.101-0.1,0-0.1c0-0.1,0-0.1,0-0.2c0.101-0.5,0.5-0.9,0.9-1.2
		c0.3-0.2,0.6-0.3,0.9-0.3C69.764,40.1,70.464,40.9,70.464,42.4z"/>
	<path fill="#C74A5F" d="M72.464,41.8c-0.101,0-0.101,0-0.101,0c-1.5,1.7-1.5,3.5,0.101,5.2c0.199,0.3,0.399,0.399,0.699,0.399
		c2,0.2,3.2-0.8,3.5-3c0.2-1.8-0.6-2.9-2.5-3.2c-0.5,0.2-0.8,0.6-1,1.1c-0.5,0.8-0.699,1.7-0.5,2.7c0,0,0.101,0.2,0.2,0.2
		c0.2,0.1,0.3,0.3,0.3,0.5c0.101,0,0.101,0.1,0.101,0.1c0.2,0,0.399,0,0.7,0.1c0.199,0,0.199,0,0.399-0.1c1.3-0.5,1.601-1.2,0.7-2.3
		c-0.2-0.1-0.4-0.1-0.6-0.1c-0.101,0-0.101,0-0.2,0.1c-0.101,0.1-0.101,0.1-0.101,0.1c0,0.1,0,0.1,0,0.2l0,0
		c0.2,0.1,0.4,0.2,0.7,0.2v0.1c0,0.1,0,0.1,0.101,0.1c0,0.1,0,0.1,0,0.1c0.1,0.1,0.1,0.1,0.1,0.1c-0.1,0.3-0.2,0.5-0.4,0.7
		c-0.5,0.4-1,0.2-1.399-0.4c-0.101-0.4-0.101-0.9,0.1-1.3c0.101-0.6,0.3-1.1,0.8-1.6c0.7-0.1,1.301,0.2,1.5,0.8
		c0.801,1.7,0.5,3.2-1.199,4.601c-0.5,0-0.9-0.2-1.301-0.4c-1.199-0.6-1.699-1.6-1.6-3c0-0.5,0.1-0.9,0.5-1.1
		c0.4-0.4,0.6-0.7,0.8-0.9C72.664,41.8,72.564,41.8,72.464,41.8z"/>
	<path fill="#C74A5F" d="M65.164,40.6c-0.1-0.1-0.199-0.2-0.199-0.2c-0.5-0.3-1-0.5-1.601-0.6c-0.8,0.3-1.2,0.9-1.399,1.8
		c-0.301,1.6,0.3,2.3,1.8,2.3c0.2-0.2,0.3-0.5,0.5-0.7c0.1-0.3,0.1-0.4,0.1-0.6c-0.2-0.2-0.3-0.3-0.399-0.4
		c-0.2,0-0.301-0.1-0.5-0.1l-0.101,0.1c-0.1,0.1-0.1,0.1-0.2,0.1c0,0,0,0,0,0.1c0.101,0.2,0.101,0.3,0.2,0.3c0,0.1,0,0.2,0.101,0.2
		l-0.101,0.2c-0.2,0.1-0.399,0.1-0.6,0c-0.101-0.3-0.101-0.8-0.101-1.1c0-0.3,0-0.5,0-0.7c0.101-0.1,0.301-0.2,0.301-0.3
		c0.199-0.1,0.199-0.2,0.199-0.3c0.2,0,0.4,0,0.601,0c0.2,0.1,0.6,0.2,0.8,0.4c0.1,0.1,0.1,0.1,0.1,0.1c0,0.2,0.101,0.3,0.2,0.5
		c0.101,0.1,0.101,0.1,0.2,0.2c0.1,0.4,0,0.8-0.1,1.1c0,0.6-0.301,1.3-0.5,1.8c0,0.1-0.101,0.1-0.2,0.1c-0.5,0.1-0.9,0.1-1.3-0.1
		c-2-0.9-2.601-2.4-1.801-4.3c0.301-0.1,0.301-0.2,0.5-0.2c0.101-0.1,0.301-0.2,0.301-0.3l0,0c-0.2,0-0.301,0-0.301,0
		c-0.6,0.3-0.899,0.8-1.1,1.4c-0.3,1.9,0.4,3.3,2.3,4.1c0.601,0.3,1.101,0.2,1.5-0.2c1.101-0.9,1.4-2.1,1.3-3.6
		c-0.1-0.3-0.199-0.5-0.3-0.8C65.264,40.8,65.164,40.7,65.164,40.6z"/>
	<path fill="#C74A5F" d="M66.464,45.3c0.1,0,0.199,0,0.3-0.1c-0.101,0-0.101-0.1-0.2-0.2c-0.2,0-0.3-0.1-0.4-0.2
		c0,0.1-0.1,0.1-0.199,0.1c-0.2,0-0.301,0.2-0.4,0.4c-0.1,0-0.1,0.2-0.1,0.4c-0.101,0.1-0.2,0.3-0.2,0.6c0.1,0.1,0.2,0.4,0.399,0.6
		c0.7,1.4,1.601,1.5,2.5,0.4c0-0.1,0-0.4,0-0.5c0,0,0-0.1,0-0.3c-0.199-0.2-0.5-0.3-0.699-0.4c-0.101,0.1-0.101,0.1-0.2,0.1
		c-0.101,0.1-0.101,0.1-0.101,0.2c-0.1,0.1-0.1,0.3-0.199,0.4l0,0c0,0.1,0,0.1,0,0.2c0.199,0,0.3,0.2,0.399,0.2
		c0.101,0.1,0.101,0,0.101,0c0-0.2,0-0.301,0-0.301c0.1-0.2,0.199-0.2,0.3,0c-0.4,0.7-0.9,0.801-1.5,0.301
		c-0.101-0.301-0.101-0.4-0.101-0.5c-0.1-0.2-0.199-0.4-0.399-0.5c0.2-0.2,0.2-0.4,0.3-0.5c0,0,0-0.1,0.1-0.3c0-0.1,0-0.1,0-0.1
		C66.264,45.3,66.364,45.3,66.464,45.3z"/>
	<path fill="#C74A5F" d="M69.964,46.4c-0.101,0-0.101,0-0.2,0c0,0.1,0,0.1-0.101,0.1c0,0.1,0,0.1,0,0.2s-0.1,0.1-0.199,0.2V47
		c0,0.399,0.1,0.8,0.3,1.2c0.399,0,0.6,0,0.899,0.1c0.101-0.1,0.301-0.3,0.301-0.5c0-0.1,0-0.1,0-0.2c-0.101-0.1-0.101-0.2-0.2-0.3
		c0,0,0,0-0.101,0c0,0.2-0.199,0.3-0.199,0.5c-0.101,0-0.301,0-0.5,0c0-0.1,0-0.2-0.101-0.2c-0.1-0.1-0.1-0.2-0.1-0.2
		c0-0.1,0-0.1,0-0.1c0-0.1,0-0.3,0-0.5c0,0,0,0,0.1,0C69.864,46.7,69.864,46.5,69.964,46.4z"/>
	<path fill="#C74A5F" d="M61.764,37.7c-0.101,0-0.101,0-0.101-0.1c-0.1,0-0.1,0-0.199,0.1l0,0c0,0.1,0,0.1,0,0.1c0,0.1,0,0.1,0,0.2
		c0.1,0,0.199,0.2,0.199,0.3c0,0,0,0.1,0,0.3c0,0,0,0,0,0.1c-0.199-0.1-0.399-0.1-0.5-0.1c0,0,0.101,0,0.2-0.1l0.101-0.1
		c-0.301-0.1-0.301-0.1-0.5-0.1c0,0,0,0.1,0,0.3c0,0,0,0,0,0.1c0.199,0.1,0.399,0.2,0.699,0.4c0.101-0.1,0.301-0.2,0.4-0.2
		c0-0.1,0-0.1,0.1-0.2c0-0.4-0.1-0.6-0.199-0.9C61.964,37.8,61.764,37.8,61.764,37.7z"/>
	<path fill="#C74A5F" d="M59.164,38c0,0-0.199,0-0.199-0.1c-0.101,0-0.2,0-0.301,0.1c0,0,0,0,0-0.1c-0.1,0-0.199,0-0.3,0.1
		c-0.2,0.2-0.2,0.3-0.1,0.7c0.3,0.3,0.5,0.4,0.899,0.1c0,0,0-0.1,0-0.2C59.164,38.4,59.164,38.2,59.164,38z"/>
	<path fill="#C74A5F" d="M59.964,43.7L59.964,43.7l-0.101,0.1c-0.1,0.1-0.2,0.2-0.399,0.3c0,0.1,0,0.1-0.101,0.2
		c0.101,0.1,0.101,0.2,0.101,0.4c0,0,0,0.1,0,0.2c0.199,0.2,0.3,0.4,0.3,0.6c0.1,0.2,0.1,0.4,0.2,0.7c0.1,0,0.399,0,0.5,0
		c0.199-0.1,0.3-0.3,0.399-0.4c0.3-0.5,0.3-0.9,0.3-1.4c0-0.1-0.199-0.2-0.199-0.3c-0.2-0.2-0.301-0.3-0.5-0.4
		c-0.101,0-0.301,0-0.5-0.1V43.7z M60.464,44.3c0,0.1,0.1,0.2,0.199,0.3c0,0.1,0,0.2,0.101,0.2c0.2,0.5,0.1,0.9-0.3,1.1
		c-0.101,0-0.2,0-0.301,0c0-0.1,0-0.1,0-0.1c0-0.1,0-0.2,0-0.3c0.2-0.2,0.301-0.2,0.301-0.3c-0.101-0.1-0.301-0.2-0.5-0.2
		c-0.101-0.1-0.2-0.1-0.2-0.2c0,0,0,0,0-0.1v-0.1c0-0.1,0-0.1,0-0.2c0.1,0,0.2-0.1,0.2-0.1C60.164,44.3,60.264,44.3,60.464,44.3z"/>
	<path fill="#ED1651" d="M60.664,44.6c-0.1-0.1-0.199-0.2-0.199-0.3c-0.2,0-0.301,0-0.5,0c0,0-0.101,0.1-0.2,0.1c0,0.1,0,0.1,0,0.2
		v0.1c0,0.1,0,0.1,0,0.1c0,0.1,0.1,0.1,0.2,0.2c0.199,0,0.399,0.1,0.5,0.2c0,0.1-0.101,0.1-0.301,0.3c0,0.1,0,0.2,0,0.3
		c0,0,0,0,0,0.1c0.101,0,0.2,0,0.301,0c0.399-0.2,0.5-0.6,0.3-1.1C60.664,44.8,60.664,44.7,60.664,44.6z"/>
	<path fill="#C74A5F" d="M77.964,40.7c-0.2,0-0.301-0.1-0.601-0.1c-0.2,0.1-0.3,0.2-0.399,0.5c-0.2,0.8-0.301,1.7-0.101,2.7
		c0.101,0,0.2,0,0.3,0c0.7,0.2,1.301,0,1.5-0.9c0-0.1,0-0.1,0-0.3c0-0.2,0-0.3-0.1-0.3c-0.5-0.1-0.6-0.1-0.6,0.3
		c0.1,0.1,0.199,0.1,0.3,0.1c0.1,0,0.1,0,0.1,0.1c-0.1,0.1-0.2,0.3-0.3,0.4s-0.1,0.1-0.1,0.2c-0.301,0-0.5,0-0.801,0
		c0-0.2,0-0.5,0-0.7c0-0.6,0-1.1,0.301-1.7c0.199,0,0.3,0,0.399-0.1c0.101,0,0.101,0,0.101-0.1C77.964,40.8,77.964,40.8,77.964,40.7
		z"/>
	<path fill="#C74A5F" d="M75.664,47.3c-0.1,0.1-0.1,0.1-0.199,0.1c0,0.2-0.101,0.301-0.2,0.4c0,0,0,0.1,0,0.2
		c0.1,0.399,0.1,0.7,0.2,1c0.6,0,1-0.2,1.3-0.7c0,0,0-0.1,0-0.3s0-0.4,0.1-0.601c-0.1-0.1-0.1-0.1-0.1-0.1c-0.101,0-0.2,0-0.3-0.1
		C76.264,47.3,75.964,47.3,75.664,47.3z M76.064,47.6c0,0.101,0,0.101,0.1,0.2c0,0,0,0,0,0.1c0.101-0.1,0.2-0.1,0.301,0
		c0,0,0,0,0,0.101c0,0,0,0,0,0.1c0,0.101,0,0.101,0,0.2c-0.301,0.4-0.5,0.5-0.801,0.3c0,0,0-0.1,0-0.2c-0.1,0-0.1-0.1-0.199-0.1
		c0-0.1,0-0.1,0-0.1c0-0.2,0-0.301,0-0.301c0.1-0.1,0.1-0.1,0.199-0.1c0-0.1,0-0.1,0-0.2c0,0,0,0,0.101,0
		C75.864,47.6,75.964,47.6,76.064,47.6z"/>
	<path fill="#ED1651" d="M76.164,47.8c-0.1-0.1-0.1-0.1-0.1-0.2c-0.1,0-0.2,0-0.3,0c-0.101,0-0.101,0-0.101,0c0,0.101,0,0.101,0,0.2
		c-0.1,0-0.1,0-0.199,0.1c0,0,0,0.101,0,0.301c0,0,0,0,0,0.1c0.1,0,0.1,0.1,0.199,0.1c0,0.101,0,0.2,0,0.2
		c0.301,0.2,0.5,0.101,0.801-0.3c0-0.1,0-0.1,0-0.2c0-0.1,0-0.1,0-0.1c0-0.101,0-0.101,0-0.101c-0.101-0.1-0.2-0.1-0.301,0
		C76.164,47.8,76.164,47.8,76.164,47.8z"/>
	<path fill="#C74A34" d="M57.864,49.899h-0.1c-0.101,0.801-0.2,1.5-0.3,2.301c0,0.199,0,0.5,0.199,0.6c-0.199,0.6-0.199,1.4-0.3,2
		c-0.2,0.5-0.3,1.1-0.2,1.7c0.4,0.399,0.801,0.7,1.4,0.5c0.1-0.101,0.2-0.101,0.3-0.101c2.101-0.199,4.101-0.699,6.2-1.199
		c0.3,0,0.6,0,0.8,0c0.4-0.101,0.8-0.101,1.101-0.101c0.5-0.2,1-0.3,1.5-0.399c0.6-0.2,1.199-0.4,1.899-0.601
		c1.101-0.2,2.101-0.399,3-1l0,0c0.601-0.3,1.101-0.5,1.7-0.8c0.4-0.1,0.6-0.4,0.7-0.7c-0.3,0-0.5,0-0.8-0.1
		c-1.801-0.2-3.601-0.601-5.5-1c-2.7-0.7-5.5-1.3-8.301-1.8c-0.699-0.2-1.399-0.301-2.1-0.301c-0.4-0.1-0.7-0.199-1-0.3
		c-0.1,0.101-0.1,0.2-0.1,0.3l0,0C57.964,49.3,57.964,49.6,57.864,49.899z"/>
</g>
</svg>
