<?xml version="1.0" encoding="utf-8"?>
<!-- Generator: Adobe Illustrator 13.0.0, SVG Export Plug-In . SVG Version: 6.00 Build 14948)  -->
<svg version="1.2" baseProfile="tiny" xmlns="http://www.w3.org/2000/svg" xmlns:xlink="http://www.w3.org/1999/xlink" x="0px"
	 y="0px" width="173.155px" height="137.778px" viewBox="0 0 173.155 137.778" xml:space="preserve">
<g id="Layer_4">
	<path fill-rule="evenodd" fill="#663F24" d="M19.27,63.016c7.39,9.864,16.67,12.545,26.621,16.748
		c-2.357,0.729-6.179-0.216-6.179-0.216S22.603,73.202,15.212,63.34L19.27,63.016z"/>
	<path fill-rule="evenodd" fill="#47250B" d="M14.439,95.135c22.103-24.86,27.422-64.823,23.213-89.471
		c2.362,0.916,4.104,0.181,6.362,1.096c-0.377,27.169-2.992,63.877-26.191,87.478L14.439,95.135z"/>
	<path fill-rule="evenodd" fill="#47250B" d="M22.598,61.961c7.969,9.895,16.307,12.56,26.258,16.763
		c-2.357,0.729-0.604,0.404-2.965,1.041c-9.852-4.378-18.429-5.985-27.194-15.976L22.598,61.961z"/>
	<path fill-rule="evenodd" fill="#663F24" d="M10.895,94.621c23.298-24.736,28.327-63.97,24.118-88.618
		c2.363,0.916,4.105,0.182,6.362,1.096c-0.411,29.669-1.499,60.243-26.936,88.036L10.895,94.621z"/>
</g>
<g id="Layer_3">
	<path fill-rule="evenodd" fill="#663F24" d="M132.304,89.466c8.85,14.837,19.963,18.87,31.881,25.192
		c-2.824,1.098-7.401-0.325-7.401-0.325s-20.488-9.546-29.338-24.38L132.304,89.466z"/>
</g>
<g id="Layer_2">
	<path fill-rule="evenodd" fill="#47250B" d="M126.52,137.778c26.469-37.394,32.838-97.506,27.798-134.58
		c2.828,1.377,4.915,0.272,7.618,1.648c-0.451,40.868-3.583,96.083-31.365,131.582L126.52,137.778z"/>
</g>
<g id="Layer_1">
	<path fill-rule="evenodd" fill="#47250B" d="M136.289,87.879c9.544,14.883,19.527,18.891,31.445,25.213
		c-2.824,1.098-0.723,0.607-3.55,1.565c-11.799-6.586-22.07-9.003-32.566-24.03L136.289,87.879z"/>
	<path fill-rule="evenodd" fill="#663F24" d="M122.274,137.006c27.9-37.208,33.923-96.223,28.883-133.297
		c2.828,1.377,4.915,0.272,7.618,1.648c-0.492,44.627-1.795,90.616-32.256,132.421L122.274,137.006z"/>
	<path fill-rule="evenodd" fill="#72635B" d="M22.613,46.691c23.469,3.293,47.066,6.45,70.663,9.748
		c23.469,3.295,47.066,6.591,70.666,9.75c-2.461,1.513-5.042,2.884-7.501,4.397c-23.227-3.576-46.453-7.14-69.679-10.851
		c-23.223-3.574-46.574-7.14-69.805-10.713C18.808,48.197,20.77,47.376,22.613,46.691L22.613,46.691z"/>
	<path fill-rule="evenodd" fill="#72635B" d="M13.765,50.261c22.977,3.846,46.082,7.69,69.066,11.391
		c23.105,3.851,46.207,7.697,69.189,11.541c-2.459,1.371-4.919,2.88-7.501,4.251c-22.732-4.117-45.467-8.237-68.201-12.354
		c-22.61-4.121-45.353-8.376-68.085-12.497C10.078,51.909,11.924,51.082,13.765,50.261L13.765,50.261z"/>
	<path fill-rule="evenodd" fill="#72635B" d="M5.534,53.695c22.607,4.391,45.1,8.648,67.707,12.904
		c22.613,4.391,45.104,8.648,67.717,12.908c-2.457,1.507-5.042,2.884-7.497,4.391c-22.246-4.667-44.49-9.334-66.73-14.005
		C44.488,65.363,22.24,60.696,0,56.029C1.846,55.202,3.685,54.516,5.534,53.695L5.534,53.695z"/>
	<polygon fill-rule="evenodd" fill="#DC9F39" points="0.492,55.749 133.34,83.763 133.079,91.861 1.117,59.643 	"/>
	<polygon fill-rule="evenodd" fill="#BC8535" points="23.719,46.418 163.692,66.188 133.34,84.175 0.242,55.89 	"/>
	<polygon fill-rule="evenodd" fill="#DC9F39" points="31.584,2.337 168.607,0.416 166.025,33.367 31.09,23.759 	"/>
	<polygon fill-rule="evenodd" fill="#C67E28" points="173.155,2.608 171.063,29.112 165.783,33.367 168.24,0 	"/>
	<polygon fill-rule="evenodd" fill="#AF681B" points="163.562,71.797 133.079,91.861 133.092,83.763 163.817,65.914 	"/>
</g>
</svg>
