<?xml version="1.0" encoding="utf-8"?>
<!-- Generator: Adobe Illustrator 13.0.0, SVG Export Plug-In . SVG Version: 6.00 Build 14948)  -->
<svg version="1.2" baseProfile="tiny" id="Layer_1" xmlns="http://www.w3.org/2000/svg" xmlns:xlink="http://www.w3.org/1999/xlink"
	 x="0px" y="0px" width="176.95px" height="171.4px" viewBox="0 0 176.95 171.4" xml:space="preserve">
<polygon fill-rule="evenodd" fill="#F04A4A" points="123.649,117.5 122.8,116.85 121.95,116.3 121,115.8 120.101,115.449 
	119.101,115.1 118.101,114.949 117,114.8 115.95,114.85 113.7,115 112.649,115.15 111.7,115.5 109.851,116.35 109,116.9 
	108.25,117.6 107.399,118.35 106.7,119.199 106.05,120.1 105.601,121.15 105.2,122.15 104.95,123.3 104.8,124.5 104.75,125.8 
	104.75,126.85 104.851,127.85 105,128.85 105.25,129.85 105.55,130.8 106,131.75 106.3,132.35 106.7,133 107.101,133.55 
	107.601,134.1 108.05,134.55 108.601,135 109.149,135.4 109.8,135.8 110.399,136.1 111.101,136.4 112.55,136.85 113.3,136.949 
	114.149,137.1 115,137.15 115.95,137.199 116.25,137.15 116.601,137.15 117.3,137.1 117.899,137 118.55,136.9 119.75,136.55 
	119.851,136.449 119.899,136.4 120,136.4 120.3,136.3 120.899,136.1 121.399,135.75 121.95,135.449 122.95,134.699 123.851,133.8 
	124.25,133.3 124.45,133.05 124.7,132.85 125.25,131.949 125.75,131.1 126.149,130.199 126.5,129.3 126.601,128.8 126.601,128.65 
	126.649,128.55 126.75,128.35 126.95,127.449 127,126.949 127.101,126.5 127.149,125.6 127.05,124.3 126.899,123.15 126.601,122 
	126.25,121 125.7,120 125.149,119.1 124.399,118.25 123.649,117.5 "/>
<path fill-rule="evenodd" fill="#F8981D" d="M89.649,3.35L89.75,3V2.85L89.8,2.8l-0.15-0.05H89.5l-0.101,0.1l-0.25,0.05L88.95,3.05
	L88.7,3.2l-0.25,0.25l-0.35,0.2l-0.35,0.3l-0.4,0.3l-0.4,0.4l-0.8,0.6L85.4,6l-0.8,0.85l-0.7,1L83.1,8.9l-0.7,1.25l-0.8,1.35
	l-0.7,1.45l-1.65-0.7l-1.55-0.6l-1.45-0.7l-1.35-0.6L72.8,9.4l-2.1-0.65L68.6,8.3l-2.1-0.15l0.3,0.5l0.45,0.7l0.45,0.85l0.6,1.1
	l0.6,1.2l0.7,1.4l0.75,1.55l0.85,1.75l-1-0.15l-1.05-0.1l-1.2-0.1H66.7h-1.45l-1.5,0.05L62.1,17l-1.7,0.15l-1.75,0.1l-1.5,0.1
	l-1.3,0.1l-1,0.1H54l-0.6,0.1H53l-0.1,0.1l-0.6,0.15l-2.95,0.75l-2.75,0.9l-2.65,0.9l-2.5,1.05l-2.4,1.05l-2.25,1.2L34.7,25
	l-1.95,1.35l-1.55,1l-1.4,1.05l-1.4,1l-1.25,1l-1.25,0.9l-1.15,0.95l-1.1,0.9l-0.95,0.9l-1,0.8l-0.85,0.8l-0.8,0.75l-0.7,0.8
	l-0.7,0.65l-0.55,0.7l-0.5,0.65l-0.4,0.65l-1.35,1.9L14.6,43.7l-2.3,3.8l-2.2,3.7l-1.9,3.7l-0.95,1.75l-0.85,1.8L5.6,60.2L4.9,62
	l-0.75,1.7l-0.6,1.75l-1.1,3.4L3.5,67.7l1.05-1l0.95-0.95l0.9-0.85l0.8-0.85l0.75-0.75l0.65-0.7l0.65-0.55L9.7,61.5l0.3-0.3l0.4-0.3
	l0.35-0.4l0.45-0.35l0.45-0.45l0.55-0.4l0.5-0.5l0.6-0.5l0.6-0.55l0.7-0.5l0.65-0.65L16,56l1.65-1.25l0.8-0.75l0.9-0.75l1.95-1.55
	l2.05-1.75l1.1-0.9l1.2-0.85L28,46.25l1.25-1l1.35-1l1.3-1.1l1.4-1.05l1.4-1.15l1.5-1.1l-1.85,1.6l-2.45,2.3l-2.3,2.4l-2.15,2.4
	L25.5,51.1l-0.35,0.45L24.8,52.1l-0.45,0.65l-0.45,0.8l-0.55,0.8l-0.6,0.95l-0.65,1l-0.65,1.15l-0.8,1.15l-0.8,1.3l-0.9,1.35
	l-0.9,1.5l-1,1.5L16,65.9l-1.1,1.7l-1.1,1.85l-2.25,3.7L10.5,75l-0.85,1.9L8,80.7l-1.25,3.9L5.7,88.5l-0.65,3.949l-0.25,2l-0.15,2
	L4.6,100.55l0.05,3.95l0.25,3.8l0.25,3.649L5.6,115.5l0.45,3.35l0.55,3.2l0.65,3.05l0.8,2.95l0.7,2.7l0.35,1.3l0.4,1.3l0.7,2.4
	l0.7,2.3l0.6,2.101l0.6,2l0.25,0.899l0.3,0.899l0.6,1.75l0.05-0.5l0.2-0.699l0.2-0.9l0.35-1.1l0.15-0.65l0.2-0.699l0.55-1.5
	l0.55-1.801l0.7-1.9l0.95,1.351l1,1.45l1,1.5l1.1,1.65l1.05,1.649l1.15,1.8l2.35,3.85v0.051l0.1,0.15l0.15,0.25l0.25,0.449
	l0.25,0.45l0.35,0.55l0.35,0.65l0.5,0.85l0.45,0.85l0.6,0.951l0.6,1.049l0.7,1.25l0.7,1.25l0.85,1.351l0.85,1.45l0.95,1.65v-0.9
	v-0.95l-0.1-1.149L32.3,158.8v-0.601l-0.1-0.699l-0.05-0.7l-0.1-0.75l-0.05-0.7l-0.1-0.449l-0.05-0.4l-0.1-0.801L31.55,152
	l-0.2-0.95l-0.15-1L31,149l-0.1-0.551l-0.05-0.5l-0.15-0.6l-0.1-0.55l-0.2-1.149l-0.1-0.351l-0.05-0.3l-0.1-0.6l-0.2-1.25
	l-0.3-1.351L29.4,140.4l-0.3-1.451L29,138.55l-0.05-0.2v-0.15l-0.1-0.699l-0.6-3.1l-0.6-3.301L27.2,129.4l-0.25-1.601l-0.25-1.55
	l-0.1-1.45l-0.1-1.45l0.05-1.35l0.05-1.301l0.25-1.199l0.15-1.1l0.15-1.101v-0.601V116.4v-0.15l0.05-0.1l0.1-1.15v-1.051V112.9
	l-0.25-1.75L27,109.449V109l-0.1-0.65l-0.05-0.6L26.6,106l-0.05-1.551L26.5,102.9l0.15-1.4l0.15-1.4l0.3-1.25l0.35-1.199l0.5-1.051
	l0.45-0.9l0.25,1l-0.15,0.4l-0.05,0.45l-0.05,2.149l-0.15,3.051v1l0.25,7.35l0.15,2.551l0.25,2.699l0.25,2.75l0.35,2.95l0.2,2.2
	l0.3,2.15l-0.15,0.549l-0.05,0.601l-0.05,0.601l0.45,3.799l0.05,0.75l-0.1,1.701l0.05,1.5v0.649l0.05,0.601l0.2,1.1l0.1,0.35
	l0.2,0.6l0.35,0.451v0.299v0.15l0.05,0.2l0.1,0.7l0.2,1.199l0.2,1l0.2,0.9l0.05,0.301l0.1,0.299l0.2,0.5l0.2,0.301l0.2,0.1l0.3-0.05
	l0.25-0.101l0.2-0.199l0.15-0.2V145v-0.2l0.05-0.2v-0.25l0.05-0.3l-0.05-0.101V143.9V143.8v-0.25l-0.05-0.3v-0.301l-0.1-0.799
	l-0.05-0.5v-0.5v-0.101V140.9V140.8v-0.149l-0.1-0.351v-0.351l-0.05-0.1v-0.05v-0.101V139.5v-0.551l-0.1-0.649l-0.05-0.7l-0.1-0.8
	v-0.851l-0.1-1l-0.1-1.049l-0.1-1.15l-0.1-1.15l-0.1-0.699l-0.05-0.201v-0.149v-0.3l-0.1-1.35l-0.1-1.451l-0.1-1.5l-0.3-3.299
	l-0.25-3.15l-0.25-3l-0.15-2.801l-0.3-9.649l0.1,0.3v0.051l0.05,0.1l0.1,0.199l0.3,0.65l0.25,0.5l0.3,0.45l0.2,0.351l0.1,0.1
	l0.05,0.05l0.1,0.101l0.2,0.149h0.1h0.05l0.1,0.05l0.6-1.449l0.75-1.451l0.3-0.799l0.35-0.65l0.7-1.1l0.3-0.5l0.35-0.4l0.3-0.35
	l0.35-0.201l-0.05,0.25l0.1,0.351l0.1,0.45l0.25,0.6l0.25,0.65l0.35,0.85l0.4,0.9l0.55,1.05l0.1-0.3l0.25-0.35l0.3-0.551l0.4-0.6
	l0.4-0.801l0.55-0.85l0.55-1.05l0.7-1.101l0.4-0.799l0.15-0.351l0.2-0.25l0.5,0.7l0.6,1l0.6,1.15l0.75,1.399l0.3,0.649l0.45-0.85
	l0.25-0.449l0.35-0.4l0.3-0.551l0.4-0.5l0.85-1.049l0.95-1.25l1.05-1.301L51.3,95.4l1.35-1.551l0.8,1.7l0.4,0.8l0.2,0.4l0.1,0.199
	l0.05,0.101l0.1,0.149v0.051l0.05,0.1l0.1,0.2l0.2,0.399l0.4,0.801l0.8,1.5l0.4-0.551l0.5-0.549l0.55-0.65l0.7-0.65l0.7-0.8l0.8-0.8
	l0.85-0.9l1-0.9l0.05,0.201l0.05,0.199l0.15,0.301l0.1,0.299l0.2,0.451l0.2,0.449l0.3,0.551l0.15,0.35l0.2,0.55l0.45,1.25L64,98.1
	l0.85-0.85l1.55-1.551l1.4-1.449L69.05,93l1.05-1.15l0.45-0.5l0.5-0.4L71.4,90.5l0.4-0.35l0.3-0.351l0.35-0.25l0.3,0.649l0.4,0.851
	L73.6,91.9l0.55,1.049L74.65,94l0.65,1.15l0.65,1.199l0.75,1.35l0.25-0.25l0.35-0.299l0.45-0.451l0.55-0.549l0.6-0.75l0.75-0.75
	l0.75-0.951l0.95-1l0.7-0.949l0.65-0.801l0.6-0.75l0.55-0.6l3.6,7.75l1.25-1.65l1.449-1.6l1.5-1.55l1.65-1.5l0.65,0.899l0.699,0.951
	L95.3,93.8l0.301,0.45l0.35,0.5l1.15,1.699l0.549,0.801l0.25,0.4L98.2,98.1l0.55-0.75l0.649-0.699l0.701-0.801l0.85-0.75l0.8-0.9
	l0.95-0.85l0.949-0.949l1.101-0.9l5.2,8.949l1.15-0.85l1.1-0.75l0.949-0.699l0.9-0.601l0.65-0.601l0.65-0.5L115.8,96l0.4-0.35
	l2.25,6.149l0.449-0.399l0.551-0.351l0.55-0.45l0.649-0.4L122,99.25l0.75-0.5l0.851-0.45l0.25,0.95l0.299,1.15l0.301,1.149l0.15,0.5
	l0.199,0.5l0.301,0.851v0.049l0.049,0.101l0.101,0.2l0.2,0.4l0.3,0.549l0.3,0.4l0.1,0.1l0.051,0.051l0.1,0.1l0.301,0.1l1.149-1.049
	l1.149-0.9l1-0.85l0.951-0.75l0.25-0.201v0.101v1v0.149v0.351v0.45l0.1,0.65v0.75l0.1,0.899l0.1,1.05l0.15,1.2l0.6-0.351l0.75-0.299
	l0.801-0.4l0.9-0.35l0.899-0.451l1.05-0.399l1.051-0.45l1.199-0.4l-0.5,0.9l-0.4,0.85l-0.399,0.75l-0.25,0.75L137,109.05
	l-0.149,0.55l-0.15,0.45v0.399l1.199-0.649l1.15-0.55l2.1-1.051l1.801-0.949l0.8-0.4l0.75-0.35l-0.25,3.05l-0.351,3.2L143.45,116
	l-0.45,3.35l-0.649,3.4l-0.65,3.55l-0.85,3.55l-0.851,3.7l-0.5,1.649l-0.399,1.551l-0.351,1.35l-0.3,1.25l0.55-0.199l0.3-0.051
	l0.7-0.25l0.649-0.1l0.801-0.25l-0.6,1.15l-0.451,1.1l-0.35,0.699l-0.25,0.701l-0.25,0.649l-0.15,0.649l-0.199,0.601l-0.1,0.55
	L139,145.1v0.45v0.351l0.101,0.35l0.149,0.25l0.25,0.199l0.25,0.101l0.351,0.05l0.1-0.1l0.199-0.301l0.25-0.449l0.351-0.6
	l0.351-0.801l0.449-0.949l0.45-1.15l0.601-1.301l0.25-0.85l0.299-0.75l0.25-0.699l0.301-0.601l0.4-1.101l0.149-0.5l0.2-0.35l0.4-0.4
	l0.35-0.35l0.3-0.35l0.3-0.25l0.15-0.301l0.15-0.199l0.1-0.2l0.05-0.149l-0.05-0.301l-0.051-0.15l0.301-0.35l0.1-0.1l0.051-0.1
	l-0.101-0.451l-0.101-0.199l-0.1-0.1l-0.4-0.15l-0.449-0.051l-0.75,0.25l-0.6,0.201l-0.451,0.149l-0.35,0.149l0.2-0.75L144,131.4
	l0.25-0.851l0.3-0.95l0.25-1.05l0.301-1.149l0.299-1.25l0.301-1.25l0.199-1.351l0.25-1.2l0.201-1.15l0.199-1.049l0.15-1l0.199-0.851
	l0.101-0.851l0.2-0.649l0.1-0.649l0.1-0.551l0.201-0.85l0.1-0.551v-0.149h0.05l-0.05-1.55v-1.4l-0.1-1.35l-0.051-1.15l-0.1-1.15
	l-0.1-0.949l-0.101-0.5l-0.05-0.4l-0.1-0.75l0.199-0.199l0.15-0.15l0.1-0.15l0.051-0.1l-0.101-0.301l-0.101-0.149l-0.049-0.101
	l-0.201-0.199L147,103.4l-0.149-0.351l-0.15-0.2l-0.25-0.15l-0.35-0.049l-0.5-0.301l-0.5,0.051l-0.051,0.25l-1.3,0.199l-1.25,0.5
	l-0.95,0.35l-0.85,0.351l-0.801,0.25l-0.699,0.149v-0.75l0.05-0.6v-0.6l0.05-0.5l0.15-0.35l0.199-0.25l0.351-0.451l0.149-0.35
	l0.051-0.15l0.05-0.049l-0.05-0.101v-0.05l-0.1-0.15l0.25-0.35l0.049-0.1h0.051l-0.1-0.65l-0.101-0.25l-0.101-0.15L139.95,98.4
	L139.8,98.3l-0.449-0.05h-0.201l-0.199,0.1l-0.301,0.1l-0.25,0.201l-0.35,0.199l-0.35,0.301l-0.45,0.35l-0.399,0.449l-0.65,0.5
	l-0.5,0.451l-0.5,0.399l-0.35,0.351l-0.351,0.25l-0.149,0.199l-0.15,0.1v0.101v-0.25l0.199-0.399l0.201-0.451l0.149-0.549l0.149-0.4
	l0.051-0.4L135,99.6v-0.25l0.05-0.25l0.051-0.15l-0.051-0.299l-0.1-0.25l-0.2-0.201l-0.25-0.1l-0.2-0.35l-0.25-0.25l-0.35-0.15
	h-0.35l-0.851,0.35l-0.149-0.299l1.449-0.701l1.35-0.6l1.201-0.6l1.1-0.6l-1.75,5.399l0.55-0.7l0.601-0.6l1.1-1.051l0.449-0.5
	l0.5-0.399l0.4-0.399l0.45-0.301l0.351-0.35l0.35-0.25l0.3-0.2l0.351-0.101l0.25-0.149l0.25-0.05l0.449,0.05l0.25,0.149l0.1,0.15
	l0.101,0.25l0.05,0.551v0.35v0.449l-0.1,0.4l-0.1,0.5l-0.25,1.15l-0.201,0.6l-0.199,0.7l-0.25,0.7l-0.2,0.8l2-0.399l1.8-0.301
	l1.6-0.3l1.451-0.25l0.199,1.3l0.301,1.5l0.199,1.6l0.301,1.801l0.049,0.949v0.5l0.051,0.601l-0.051,0.55v0.65l-0.049,1.35
	l-0.15,1.45l-0.1,0.75l-0.051,0.851l-0.199,1.699l-0.201,1.85L148.05,120l-0.199,0.9l-0.101,0.449l-0.05,0.5l-0.45,1.801l-0.5,1.799
	l-0.601,1.701l-0.6,1.75l-0.699,1.699l-0.701,1.7l1.75-1.649l1.701-1.551l1.649-1.449l1.649-1.25l-0.25,0.5l-0.199,0.6l-0.45,1.25
	l-0.5,1.35l-0.55,1.551l-0.65,1.549l-0.699,1.75l-0.75,1.851l-0.75,1.95l-0.9,2.05l-0.9,2.149l-0.5,1.101l-0.449,1.2l-0.951,2.449
	l-1.1,2.5l-1.1,2.65l-1.15,2.75l-1.199,2.9l0.25-0.9l-0.201,0.551l-0.149,0.5l-0.149,0.399l-0.051,0.351l1.65-2.15l1.6-2l1.5-1.9
	l1.45-1.75l1.3-1.65l1.25-1.549l1.15-1.451l1.1-1.25l0.95-1.25l0.899-1.1l0.801-0.949l0.75-0.851l0.65-0.75l0.549-0.649l0.451-0.551
	l0.399-0.35l0.2,0.3l-1.051,13l0.201-0.2l0.25-0.25l0.299-0.4l0.351-0.449l0.351-0.65L155,149.9l0.45-0.851l0.5-0.851l0.5-1.1
	l0.55-1.15l0.601-1.25l0.649-1.35l0.649-1.55l0.701-1.55l0.75-1.75l0.799-1.75l0.701-1.9l0.699-1.8l1.301-3.45l0.5-1.699l0.5-1.601
	l0.449-1.601l0.45-1.5l0.3-1.549l0.301-1.451l0.25-1.399l0.199-1.3l0.1-1.35L167,114.9l0.101-2.351l-0.15-2.399l-0.25-2.4l-0.2-1.25
	l-0.149-1.2l-0.201-1.25l-0.149-1.2l-0.55-2.6l-0.551-2.6l-0.199-0.701l-0.1-0.35l-0.051-0.3l-0.3-1.3l-0.75-2.7l0.351,0.101
	l0.399,0.149l0.75,0.3l0.7,0.25l0.65,0.301l0.549,0.199l0.25,0.1l0.301,0.15l1,0.4l0.35,0.1h0.051l0.1,0.051l0.199,0.1l0.301,0.1
	l0.25,0.1h0.05l0.101,0.051l0.149,0.1l0.2,0.1l0.699,0.15l0.65,0.2l1.2,0.399l0.5,0.101l0.45,0.2l0.4,0.199l0.35,0.201l-0.5-2.701
	l-0.4-2.449l-0.4-2.35L172.8,86.8l-0.4-2.05l-0.299-1.8l-0.301-1.7l-0.25-1.5L171,77.2l-0.55-2.45l-0.6-2.35l-0.551-2.2l-0.65-2.2
	l-0.6-2.05L167.351,64l-0.65-1.85l-0.95-2.3l-0.95-2.2l-1.05-2.15l-1-2l-1.149-2l-1.101-1.85l-1.2-1.85l-1.15-1.7l-1.299-1.75
	l-1.301-1.6l-1.4-1.55l-1.35-1.4l-1.449-1.4l-1.451-1.3l-1.549-1.25l-1.5-1.1l-1-0.7l-1.051-0.7l-1.25-0.8l-1.25-0.8l-1.449-0.9
	l-1.5-0.9l-1.65-1l-1.75-1l-0.75-0.45l0.65-0.1l0.85-0.05l0.85-0.05l1,0.05l2.15,0.15l1.15,0.1l1.35,0.2l1.3,0.15l1.45,0.25
	l1.449,0.25l1.65,0.3l1.65,0.3l1.75,0.35l1.8,0.35l1.95,0.45l-2-2.25l-1.051-1.05l-1.1-1l-1.199-1l-1.201-0.9l-2.6-1.75l-2.9-1.65
	l-1.5-0.75l-1.549-0.7l-1.65-0.7l-1.65-0.6l-1.699-0.6l-1.75-0.55l-3.65-1.05l-3.6-0.95l-3.601-0.8l-3.55-0.65l-3.6-0.55l-3.5-0.4
	l-3.5-0.3l-3.451-0.15l-2.799-0.1l-2.601-0.1l-2.351-0.1l-1.1-0.05h-1l-1.9-0.1l-1.699-0.1l-1.5-0.1l-1.2-0.1l-0.3-0.4l-0.2-0.4
	l-0.2-0.45l-0.1-0.4L88.8,8.9l-0.05-0.5L88.7,7.85l0.05-0.55l0.05-1.15l0.15-1.05l0.25-0.95L89.649,3.35L89.649,3.35z M65.15,83.9
	l0.1,0.75L65.1,84.5L65,84.45l-0.35-0.05L65.15,83.9L65.15,83.9z M39.5,95.5l0.1-0.301l0.2-0.25L40,94.6l0.35-0.35l0.3-0.45
	l0.4-0.45l0.45-0.5l0.55-0.5l0.65-0.8l0.85-0.851l0.85-0.949l1-1l0.3,1.199L46,91l0.2,0.9l0.1,0.399l0.15,0.399l1.15-1.449L48.65,90
	l0.95-1.15l0.45-0.55l0.5-0.45L51.3,86.9l0.35-0.451l0.4-0.35l0.6-0.65l0.25-0.3l0.3-0.2l0.35,0.8l0.55,1.1l0.55,1.35l0.7,1.65
	l0.05-0.199l0.1-0.101V89.5l0.05,0.05H55.5v0.101L55.4,90l0.75,1.949l0.05,0.15l0.5,1.4l0.9-1.15l0.9-1l0.85-1l0.85-0.9l-0.6,1
	L59.05,91.4l-0.55,0.85l-0.5,0.8l-0.5,0.7l-0.45,0.65l-0.4,0.549L56.3,95.5l-0.1,0.15l-0.75-1.951L55.1,92.8l-0.25-0.55l-0.3-0.7
	V91.5h-0.2l-0.2-0.1L54,91.199l-0.1-0.149l-0.3-0.5l0.1,0.149l0.15,0.201l0.1,0.1L54,91.05l0.1,0.101l0.05,0.049l0.1,0.051v-0.051
	h0.05h0.1l-0.3-0.649l-0.25-0.45L53.6,89.65l-0.2-0.25l0.15-0.4l0.15-0.301l0.1-0.25l0.05-0.1L53.8,87.9V87.55l-0.1-0.351
	l-0.05-0.25l-0.2-0.399l-0.15-0.101h-0.1h-0.4l-0.45,0.25l-0.5,0.4l-0.3,0.301L51.3,87.8l-0.65,0.649l-0.6,0.801l-0.35,0.4l-0.3,0.5
	l-0.6,1.049l-0.4,0.5L48.05,92.3l-0.7,1.25L46.6,94.9L46.2,95.6L45.85,96.4l-0.2-0.551L45.5,95.4L45.2,94.6l-0.2-0.4l-0.15-0.25
	l-0.1-0.399l-0.05-0.3L44.6,93l-0.1-0.15l-0.15-0.3l-0.1-0.149l-0.2-0.101l-0.15,0.05L43.65,92.4l-0.2,0.199l-0.3,0.25l-0.25,0.4
	l-0.25,0.05l-0.15,0.149L42.4,93.9l-0.05,0.049l-0.5,0.451l-0.5,0.549L40.6,95.8L39.8,96.9l-0.35,0.5l-0.6,0.85L38.6,97.5l-0.2-0.6
	l-0.2-0.451l0.05-0.1v-0.15l-0.1-0.649l-0.1-0.25l-0.1-0.149l-0.2-0.201l-0.2-0.1L37.1,94.8l-0.3,0.149L36.1,94.8h-0.35l-0.25,0.149
	l-0.15,0.101l-0.15,0.399v0.301l0.1,0.3v0.05l0.05,0.1l0.1,0.201l-0.6,0.85l-0.5,0.65l-0.45,0.75l-0.55,0.799l-0.5,0.9L32.4,99.4
	L32.05,98.6l-0.35-0.75l-0.3-0.65v-0.5v-0.25l0.05-0.199l0.05-1V95l0.15-0.301L31.8,94.5l0.25,0.8l0.35,0.95l0.35,1.05l0.45,1.2
	l0.85-2l1-1.65l1-1.449L37.2,92.3l0.5,0.601l0.55,0.699l1,1.45L39.5,95.5L39.5,95.5z M30.1,92.449h-0.15l0.1-0.299l0.15-0.201
	l0.2-0.299l0.1,0.199l0.05,0.1l0.1,0.15l0.3,0.5l-0.4-0.15H30.1L30.1,92.449z M69.7,87.699L69.45,87.9l-2.1,2.199l-1.8,2.301
	l-0.3,0.399l-0.65,0.95l-0.1-0.15v-0.25l-0.1-0.4V92.5l-0.2-1.85l-0.2-1.5l-0.05-0.5l0.15-0.25h0.05l0.2-0.551L64.6,87.4l0.4-0.75
	L65.25,86l0.1-0.25l0.1-0.15l0.75,4.6l0.85-1l1.05-1l1.15-1.1l1.25-1.15l0.85-0.85l0.8-0.7l0.75-0.65l0.7-0.5l0.6-0.5l0.55-0.35
	l0.5-0.3l0.45-0.15v0.45l0.1,0.6l0.1,0.75l0.2,0.95l0.2,1.05l0.3,1.199l0.35,1.351l0.45,1.5l0.45-0.601l0.25-0.35l0.35-0.3
	l0.75-0.851l0.4-0.5l0.5-0.449l0.95-1.15l1.15-1.2l1.25-1.4l0.65-0.75l0.75-0.7l3.8,8.3l0.701-0.9l0.699-0.799l1.35-1.551
	l1.201-1.45l0.549-0.7l0.551-0.6l0.35,0.65l1.1,1.75l0.551,0.8l0.6,0.851l0.5,0.75l0.551,0.799l1.1,1.451L99,90.4l0.3-0.301
	l0.4-0.25l0.85-0.699l0.95-0.801l1.05-1l0.551-0.55l0.649-0.5l1.351-1.2l1.449-1.25l0.301,1.05L107,85.4l0.2,0.549l-1.5,0.75
	l-1.4,1.15l-0.35-0.199l-0.2,0.1l-0.149,0.3v0.5l-0.4,0.3l-0.35,0.4L102,90.199L99.95,92.4l-1.85,2.299L97.25,93.05l-0.649-1.399
	L96.05,90.5l-0.449-0.85L95.05,88.85l-0.35-0.8l0.1-0.3l0.1-0.2L94.95,87.4L95,87.35l-0.05-0.4l-0.1-0.25L94.7,86.4l-0.2-0.15
	l-0.3-0.15h-0.35l-0.301,0.15l-0.4-0.301l-0.299-0.1L92.5,85.9l-0.2,0.149l-0.1,0.149l-0.1,0.15l0.049,0.25L92,86.75L91.899,87
	l-0.049,0.75l0.1,0.199l-0.35,0.351L91.3,88.75l-0.35,0.5l-0.301,0.6L90,90.75l-0.649,1.05L88.65,92.9l-0.7,1.199l-0.65-1.4
	l-0.5-1.25L86.3,90.3l-0.35-0.95l-0.25-1l-0.2-0.85l0.4-0.551l0.15-0.25l0.2-0.149l0.15-0.25l0.05-0.101h0.05L86.45,85.9v-0.201
	l-0.1-0.35L86.2,85.1L86,84.95l-0.3-0.05h-0.2L85.35,85l-0.4,0.15L84.5,85.5l-0.1-0.1l-0.35-0.45l-0.3-0.25l-0.25-0.1l-0.15,0.05
	l-0.2,0.15l-0.1,0.35L83,85.6v0.65l0.1,0.35l-0.45,0.35l-0.6,0.451L81.4,88.05l-0.7,0.649L79.95,89.5l-0.85,0.8l-0.85,0.95
	l-0.95,0.949L76.35,93.3l-0.1-0.101l-0.05-0.1l-0.1-0.25L76,92.65l-0.05-0.201L75.85,92l-0.1-0.2l-0.05-0.101V91.65l-0.1-0.301
	l-0.2-0.699l-0.1-0.25l-0.05-0.201l-0.1-0.399l-0.1-0.25L75,89.35L74.9,88.9l-0.25-0.65l-0.2-0.551l-0.4-0.85l0.5-0.65l0.4-0.449
	l0.2-0.35l0.05-0.1h0.05l-0.05-0.55l-0.15-0.35l-0.15-0.15l-0.1-0.05l-0.3-0.05l-0.45,0.05l-0.25,0.05l-0.2,0.15L73,84.75
	l-0.65,0.55L72,85.6l-1,0.85l-0.7,0.701L69.7,87.699L69.7,87.699z M107.55,86.9l0.301,0.949l0.399,0.85l2.45,5.4l0.55-0.449
	l0.649-0.551l0.701-0.65l0.85-0.699l0.85-0.85l1-0.951l1.051-1.049L117.5,87.8l0.75,1.8l-0.55,0.45l-0.301,0.3l-0.25,0.4l-0.299-0.1
	h-0.25h-0.15l-0.1,0.1l-0.201,0.1L116,91.05L115.851,91l-0.301,0.05l-0.25,0.149l-0.199-0.1l-0.15,0.051l-0.1,0.149v0.3l-0.451,0.45
	L114,92.699l-0.5,0.75l-0.25,0.4l-0.2,0.5l-0.449,0.45l-0.351,0.45l-0.55,0.699l-0.45,0.5l-0.149,0.201L111,96.8l-0.851-1.3
	l-0.75-1.15L108.7,93.3l-0.65-0.95l-0.65-0.85l-0.549-0.75l-0.5-0.65l-0.4-0.55l0.75-1.3L107.55,86.9L107.55,86.9z M28.65,95.1
	l0.05,0.051l-0.1,0.1L28.65,95.1L28.65,95.1z M143.7,50.4l-0.4-0.3l0.4,0.25V50.4L143.7,50.4z M148.75,83.4l-0.2,0.35l-0.1,0.35
	l0.05-0.4l0.101-0.35L148.75,83.4L148.75,83.4z M127,90.65l0.2,0.6l0.199,0.8l0.301,1.899l0.05,0.9l0.101,0.95v0.851v0.899
	l-0.101,0.8l-0.05,0.4v0.449l1.9-0.75l1.85-0.649l-0.1,0.351l-4.25,1.699l-0.301-1.1l-0.25-0.95l0.1-0.101l0.15-0.1l0.1-0.199
	l0.051-0.101l0.1-0.05l0.051-0.301l0.1-0.25v-0.35l0.05-0.3l-0.101-0.7l-0.1-0.35l-0.1-0.301l-0.2-0.399l-0.101-0.2l-0.049-0.1
	v-0.051l-0.451-0.699l-0.449-0.551l-0.35-0.199l-0.25,0.05L125.05,92.9h-0.199l-0.351,0.049L124.3,93l-0.199,0.15l-0.551,0.35
	l-0.6,0.55l-0.1-0.05v0.15l-0.301,0.25l-0.949,0.799l-0.4,0.351l-0.301,0.351l-0.35,0.25l-0.25,0.25l-0.35,0.35l-0.301-0.35
	l-0.149-0.201l-0.101-0.149l-0.5-0.75l-0.6-0.851l-0.5-0.949l0.35-0.6l0.4-0.5l0.301-0.451l0.299-0.35l1.051,2.5l2-1.05l0.9-0.5
	L124,92.15l1.601-0.851L127,90.65L127,90.65z"/>
<polygon fill-rule="evenodd" fill="#FFCD05" points="39.45,97.4 38.95,97.3 38.6,97.05 38.4,96.9 38.6,97.5 38.85,98.25 39.45,97.4 
	"/>
<polygon fill-rule="evenodd" fill="#FFCD05" points="55.4,90 55.5,89.65 55.5,89.55 55.55,89.55 55.5,89.5 55.5,89.55 55.4,89.65 
	55.35,89.85 55.15,90.05 54.95,90.35 54.65,90.699 54.4,91.199 54.3,91.199 54.25,91.199 54.25,91.25 54.15,91.199 54.1,91.15 
	54,91.05 53.95,91 53.85,90.9 53.7,90.699 53.6,90.55 53.9,91.05 54,91.199 54.15,91.4 54.35,91.5 54.55,91.5 54.75,90.949 
	55,90.55 55.2,90.199 55.4,90 "/>
<polygon fill-rule="evenodd" fill="#FFCD05" points="64,89.15 64.2,90.65 64.4,92.5 64.4,92.949 64.5,93.35 64.5,93.6 64.6,93.75 
	65.25,92.8 64.6,90.55 64.15,88.4 64.1,88.4 63.95,88.65 64,89.15 "/>
<path fill-rule="evenodd" fill="#FFCD05" d="M38.8,105.3l-0.55-1.05l-0.4-0.9l-0.35-0.85l-0.25-0.65l-0.25-0.6l-0.1-0.45l-0.1-0.351
	l0.05-0.25L36.5,100.4l-0.3,0.35l-0.35,0.4l-0.3,0.5l-0.7,1.1l-0.35,0.65l-0.3,0.799l-0.75,1.451l-0.6,1.449l-0.1-0.05H32.7h-0.1
	l-0.2-0.149l-0.1-0.101l-0.05-0.05l-0.1-0.1l-0.2-0.351l-0.3-0.45l-0.25-0.5l-0.3-0.65L31,104.5l-0.05-0.1v-0.051l-0.1-0.3
	l0.3,9.649l0.15,2.801l0.25,3l0.25,3.15l0.3,3.299l0.1,1.5l0.1,1.451l0.1,1.35v0.3v0.149l0.05,0.201l0.1,0.699l0.1,1.15l0.1,1.15
	l0.1,1.049l0.1,1v0.851l0.1,0.8l0.05,0.7l0.1,0.649v0.551v0.199v0.101v0.05l0.05,0.1v0.351l0.1,0.351v0.149v0.101v0.149v0.101v0.5
	l0.05,0.5l0.1,0.799v0.301l0.05,0.3v0.25v0.101v0.049l0.05,0.101l-0.05,0.3v0.25l-0.05,0.2v0.2v0.05l3.1,2.351l3.2,2.199l3.2,2.051
	l3.25,1.949l3.25,1.75l3.3,1.6l3.3,1.451l3.35,1.35l3.35,1.1l3.4,1l3.4,0.85l3.5,0.75l3.45,0.5l3.5,0.4l3.55,0.25l3.6,0.1l0.9-0.049
	h0.95l1.9-0.051l3.699-0.25l3.601-0.449l3.601-0.551l3.5-0.8l1.699-0.45l0.4-0.15l0.449-0.1l0.9-0.199l0.801-0.301l0.399-0.15
	l0.45-0.1l1.699-0.55l1.65-0.601l1.7-0.6l3.2-1.449l1.55-0.801l1.601-0.75l1.5-0.9l0.35-0.25l0.4-0.199l0.799-0.4l1.5-0.949
	l0.75-0.5l0.801-0.451l0.699-0.549l0.75-0.5l1.5-1.051l2.9-2.199l2.801-2.4l2.799-2.551l0.15-0.649l0.25-0.649l0.25-0.701
	l0.35-0.699l0.451-1.1l0.6-1.15l-0.801,0.25l-0.649,0.1l-0.7,0.25l-0.3,0.051l-0.55,0.199l0.3-1.25l0.351-1.35l0.399-1.551
	l0.5-1.649l0.851-3.7l0.85-3.55l0.65-3.55l0.649-3.4l0.45-3.35l0.449-3.25l0.351-3.2l0.25-3.05l-0.75,0.35l-0.8,0.4l-1.801,0.949
	l-2.1,1.051l-1.15,0.55l-1.199,0.649v-0.399l0.15-0.45l0.149-0.55l0.25-0.601l0.25-0.75l0.399-0.75l0.4-0.85l0.5-0.9l-1.199,0.4
	l-1.051,0.45l-1.05,0.399l-0.899,0.451l-0.9,0.35l-0.801,0.4l-0.75,0.299l-0.6,0.351l-0.15-1.2l-0.1-1.05l-0.1-0.899v-0.75
	l-0.1-0.65v-0.45v-0.351V102.8v-1l-0.25,0.101l-0.951,0.75l-1,0.85l-1.149,0.9l-1.149,1.049l-0.301-0.1l-0.1-0.1l-0.051-0.051
	l-0.1-0.1l-0.3-0.4l-0.3-0.549l-0.2-0.4l-0.101-0.2l-0.049-0.101V103.4l-0.301-0.851l-0.199-0.5l-0.15-0.5l-0.301-1.149l-0.299-1.15
	l-0.25-0.95l-0.851,0.45l-0.75,0.5l-1.351,0.949L120,100.6l-0.55,0.45l-0.551,0.351l-0.449,0.399l-2.25-6.149L115.8,96l-0.449,0.449
	l-0.65,0.5l-0.65,0.601l-0.9,0.601L112.2,98.85l-1.1,0.75l-1.15,0.85l-5.2-8.949l-1.101,0.9L102.7,93.35l-0.95,0.85l-0.8,0.9
	l-0.85,0.75l-0.701,0.801L98.75,97.35L98.2,98.1l-0.301-0.449l-0.25-0.4l-0.549-0.801l-1.15-1.699l-0.35-0.5L95.3,93.8l-0.65-0.899
	l-0.699-0.951L93.3,91.05l-1.65,1.5l-1.5,1.55l-1.449,1.6l-1.25,1.65l-3.6-7.75l-0.55,0.6l-0.6,0.75l-0.65,0.801l-0.7,0.949l-0.95,1
	l-0.75,0.951L78.9,95.4l-0.6,0.75l-0.55,0.549L77.3,97.15l-0.35,0.299l-0.25,0.25l-0.75-1.35L75.3,95.15L74.65,94l-0.5-1.051
	L73.6,91.9l-0.45-0.851l-0.4-0.851l-0.3-0.649L72.1,89.8l-0.3,0.351l-0.4,0.35l-0.35,0.449l-0.5,0.4l-0.45,0.5L69.05,93l-1.25,1.25
	l-1.4,1.449l-1.55,1.551L64,98.1l-0.8,0.95l-0.45-1.25l-0.2-0.55L62.4,96.9l-0.3-0.551L61.9,95.9l-0.2-0.451l-0.1-0.299l-0.15-0.301
	L61.4,94.65l-0.05-0.201l-1,0.9l-0.85,0.9l-0.8,0.8l-0.7,0.8l-0.7,0.65l-0.55,0.65l-0.5,0.549l-0.4,0.551l-0.8-1.5l-0.4-0.801
	l-0.2-0.399l-0.1-0.2l-0.05-0.1v-0.051l-0.1-0.149l-0.05-0.101l-0.1-0.199l-0.2-0.4l-0.4-0.8l-0.8-1.7L51.3,95.4l-1.15,1.449
	L49.1,98.15l-0.95,1.25l-0.85,1.049l-0.4,0.5l-0.3,0.551l-0.35,0.4L46,102.35l-0.45,0.85l-0.3-0.649l-0.75-1.399L43.9,100l-0.6-1
	l-0.5-0.7l-0.2,0.25L42.45,98.9l-0.4,0.799l-0.7,1.101l-0.55,1.05l-0.55,0.85l-0.4,0.801l-0.4,0.6l-0.3,0.551L38.9,105L38.8,105.3
	L38.8,105.3z M57,101.949h0.1l1.35-0.299l1.55-0.201l1.55-0.149l1.75-0.05l1.35-0.1h1.4h1.3l1.3,0.1l2.4,0.25l2.2,0.449l1,0.25
	l0.95,0.301l0.75,0.3l0.65,0.399l0.45,0.351l0.4,0.399l0.2,0.451l0.1,0.5H77.7v0.049v0.101v0.2l-0.1,0.35l-0.1,0.1h-0.05v0.051v0.1
	l-0.2,0.25l-0.3,0.15l-0.3,0.15l-0.4,0.049l-0.4,0.051l-0.1-0.051h-0.1l-0.2-0.049H75.3l-0.25-0.101l-0.1-0.05H74.9h-0.1l-0.65-0.1
	l-0.85-0.201l-1-0.199l-0.6-0.15l-0.55-0.1l-0.35-0.1l-0.3-0.051l-0.65-0.1l-1.35-0.35l-1.2-0.25l-1.1-0.201l-0.95-0.149
	l-0.85-0.149l-0.7-0.101L63.1,104h-0.45l-1.85,0.05l-2,0.25l-1.05,0.101L56.7,104.6l-1.15,0.2l-1.1,0.3l-1.2,0.25l-1.2,0.35
	l-1.25,0.351l-1.25,0.45l0.45-1.15l0.35-0.5l0.45-0.449l0.45-0.451l0.65-0.399l0.65-0.351l0.8-0.25l1.7-0.549l1.9-0.451H57
	L57,101.949z M55.85,101.6h-0.1l0.7-0.35v0.05l-0.35,0.2L55.85,101.6L55.85,101.6z M53.6,97.85h-0.05V97.8L53.6,97.85L53.6,97.85z
	 M93.851,116.25v-0.95l0.049-0.8L94,113.8l0.2-0.55l0.35-0.801l0.551-0.549l0.649-0.4l0.851-0.15l0.049,0.25L97,111.3l0.45-0.25
	l0.949-0.55l1.101-0.6l1.25-0.551l1.55-0.75l1.5-0.6l0.7-0.301l0.75-0.199l1.351-0.35l1.25-0.25l1.199-0.101l0.551-0.05l0.6,0.05
	l1.05,0.149l0.75-0.1h0.649l0.551,0.051l0.5,0.149l0.35,0.149l0.25,0.25l0.15,0.25l0.15,0.351l-0.75-0.05l-0.801,0.05l-0.85,0.101
	l-0.9,0.199l-1,0.2l-1,0.3l-1.1,0.301l-1.15,0.399l-2.4,0.8l-2.199,0.85l-2,0.9l-1.801,0.95L97.7,113.5l-0.75,0.449L96.3,114.3
	l-0.449,0.3l-0.15,0.35v0.301l0.05,2.699l0.3,2.851l0.4,2.95l0.3,1.5l0.399,1.6l0.301,1.45l0.3,1.45l0.2,1.25l0.1,0.6l0.15,0.6
	l0.05,0.5l0.101,0.5v0.201v0.1v0.05l0.049,0.101l0.101,0.5v0.399l0.05,0.399v0.351l0.051,0.399V136l0.049,0.199l0.101,0.25v0.051
	l0.05,0.1v0.051l0.051,0.1l-0.051,0.1V137v0.25l-0.1,0.199l-0.051,0.101v0.149L98.5,137.8l-0.101,0.149l-0.299,0.15l-0.201-0.15
	l-0.1-0.199l-0.199-0.301L97.5,137.1l-0.2-0.1l-0.199-0.15l-0.201-0.25l-0.199-0.3l-0.2-0.399l-0.2-0.451l-0.199-0.549L96,134.3
	l-0.2-0.7l-0.15-0.75L95.45,132l-0.1-0.9l-0.201-1l-0.1-1.05l-0.199-1.149l-0.101-1.201l-0.25-2.449l-0.2-2.15l-0.1-0.949
	l-0.051-0.851l-0.1-1.45l-0.1-1.15l-0.051-0.449v-0.35l-0.049-0.351V116.4V116.25L93.851,116.25z M100.601,125.1l0.049-0.699
	l0.25-0.701l-0.149-0.1l-0.101-0.05l-0.049-0.101V123.3v-0.25l0.1-0.45l0.4-0.35l0.649-0.301l1-0.25l1.2-0.25l1.5-0.199l1.75-0.15
	l2.1-0.05l0.551-0.05h0.35h0.55H112h0.75h0.851h1.85h1.05h1.149h2.551h1.35h1.551h1.1l0.9,0.15l0.35,0.049l0.3,0.101l0.25,0.149
	l0.2,0.201l0.199,0.299v0.201l-0.049,0.199v0.25l0.149,0.15l0.2,0.25l0.15,0.25l0.199,0.35l0.301,0.7l0.1,0.399l0.15,0.5
	l0.199,1.551l0.051,0.8v0.8l-0.051,0.4v0.449l-0.1,0.9l-0.2,0.85l-0.2,0.9l-0.35,0.801l-0.2,0.399l-0.101,0.2l-0.049,0.1v0.15
	l-0.451,0.8l-0.5,0.899l-0.549,0.601l-0.5,0.649L124,137l-0.3,0.25l-0.25,0.3l-0.7,0.45l-0.351,0.199l-0.299,0.25l-0.75,0.4
	l-0.701,0.4l-0.449,0.1l-0.4,0.15l-0.8,0.3l-0.899,0.2l-0.451,0.1l-0.399,0.15l-0.95,0.1l-0.5,0.051l-0.449,0.1l-1,0.05l-1,0.05
	l-1.101-0.05l-1-0.101l-0.95-0.149l-0.9-0.2l-1.75-0.6l-0.799-0.4l-0.701-0.4l-0.75-0.549l-0.649-0.551l-0.601-0.6l-0.549-0.65
	l-0.551-0.75l-0.449-0.8l-0.75-1.7l-0.451-1.25l-0.35-1.3l-0.25-1.351l-0.15-1.399l-0.049-1.149V125.8v-0.55V125.1L100.601,125.1z
	 M80.8,120.5l0.15,0.15l0.1,0.899l0.2,1.101l0.2,1.199l0.3,1.4l0.15,1.1v0.25l0.05,0.301l0.1,0.6l0.1,1.05l0.1,1.101v1v0.5v0.25
	l0.05,0.299l-0.05,2l-0.15,0.9l-0.1,0.45l-0.05,0.5l-0.4,1.8l-0.3,0.801l-0.15,0.399L81,139l-0.35,0.8l-0.2,0.399l-0.1,0.201
	l-0.05,0.1v0.15l-0.45,0.699l-0.5,0.7l-0.6,0.649l-0.6,0.65l-0.4,0.25L77.4,143.9l-0.4,0.25l-0.35,0.299l-0.85,0.5l-0.85,0.5l-1,0.4
	l-1.05,0.4l-1.1,0.3l-0.6,0.149l-0.55,0.201L70,147l-0.6,0.15l-1.3,0.25l-0.7,0.049l-0.65,0.101l-1.4,0.2l-1.5,0.05H62.5
	l-1.35-0.101l-1.2-0.149l-1.2-0.25l-1.1-0.3l-1.05-0.35l-0.9-0.451l-0.95-0.549l-0.8-0.601l-0.8-0.7l-0.65-0.75l-0.65-0.85
	l-0.55-0.9l-0.5-0.949l-0.35-1.051l-0.75-2.199l-0.3-1.051l-0.2-0.949l-0.3-1.851l-0.1-0.899V132.1l-0.05-0.85l0.05-0.75l0.3-1.45
	l0.15-0.7l0.25-0.6l0.7-1.15l-0.25-0.05h-0.1l-0.05-0.101l0.1-0.049l0.1-0.15l0.25-0.1l0.35-0.201l0.45-0.149l0.45-0.25l0.65-0.25
	l0.65-0.3l0.85-0.25l0.85-0.4l0.95-0.35l1.05-0.4l1.2-0.35l2.35-0.9l2.45-0.75l2.5-0.65l2.55-0.549l2.55-0.551l2.65-0.35l2.7-0.301
	l2.8-0.149l1.45-0.101l0.35,0.65l0.3,0.4L80.8,120.5L80.8,120.5z M103.101,144L103,144.4l-0.3,0.399l-0.5,0.3l-0.301,0.15
	l-0.299,0.199l-0.5,0.101l-0.5,0.149L99.5,145.9l-0.7,0.049l-0.699,0.101h-0.75h-0.4h-0.2h-0.101h-0.049v0.05l-0.65-0.05
	l-0.301-0.101L95.45,145.9l-0.25-0.15l-0.15-0.1l-0.199-0.301l-0.101-0.55v-0.149V144.6l0.05-0.5l0.2-0.4l0.3-0.35l0.5-0.25
	l0.551-0.25l0.75-0.1l0.85-0.051l1,0.051h0.9l0.85,0.1l0.699,0.1l0.65,0.15l0.4,0.15l0.35,0.199l0.2,0.25L103.101,144L103.101,144z
	 M137.45,139.9l-0.15,0.799l-0.4,1.051l-0.1,0.15v0.049v-0.1l0.051-0.15l0.049-0.35l0.15-0.35l0.15-0.551L137.45,139.9L137.45,139.9
	z M137.45,139.699v0.051l-2.4,0.8l1.301-0.5L137.45,139.699L137.45,139.699z"/>
<polygon fill-rule="evenodd" fill="#F8981D" points="57.05,102 57,101.949 56.95,101.949 55.05,102.4 53.35,102.949 52.55,103.199 
	51.9,103.55 51.25,103.949 50.8,104.4 50.35,104.85 50,105.35 49.55,106.5 50.8,106.05 52.05,105.699 53.25,105.35 54.45,105.1 
	55.55,104.8 56.7,104.6 57.75,104.4 58.8,104.3 60.8,104.05 62.65,104 63.1,104 63.7,104.05 64.4,104.15 65.25,104.3 66.2,104.449 
	67.3,104.65 68.5,104.9 69.85,105.25 70.5,105.35 70.8,105.4 71.15,105.5 71.7,105.6 72.3,105.75 73.3,105.949 74.15,106.15 
	74.8,106.25 74.9,106.25 74.95,106.25 75.05,106.3 75.3,106.4 75.45,106.4 75.65,106.449 75.75,106.449 75.85,106.5 76.25,106.449 
	76.65,106.4 76.95,106.25 77.25,106.1 77.45,105.85 77.45,105.75 77.45,105.699 77.5,105.699 77.6,105.6 77.7,105.25 77.7,105.05 
	77.7,104.949 77.7,104.9 77.75,104.9 77.65,104.4 77.45,103.949 77.05,103.55 76.6,103.199 75.95,102.8 75.2,102.5 74.25,102.199 
	73.25,101.949 71.05,101.5 68.65,101.25 67.35,101.15 66.05,101.15 64.65,101.15 63.3,101.25 61.55,101.3 60,101.449 58.45,101.65 
	57.1,101.949 57.05,102 "/>
<polygon fill-rule="evenodd" fill="#F8981D" points="55.75,101.6 55.85,101.6 56.1,101.5 56.45,101.3 56.45,101.25 55.75,101.6 "/>
<polygon fill-rule="evenodd" fill="#F8981D" points="94.2,113.25 94,113.8 93.899,114.5 93.851,115.3 93.851,116.25 93.851,116.4 
	93.851,116.55 93.899,116.9 93.899,117.25 93.95,117.699 94.05,118.85 94.149,120.3 94.2,121.15 94.3,122.1 94.5,124.25 
	94.75,126.699 94.851,127.9 95.05,129.05 95.149,130.1 95.351,131.1 95.45,132 95.649,132.85 95.8,133.6 96,134.3 96.101,134.9 
	96.3,135.449 96.5,135.9 96.7,136.3 96.899,136.6 97.101,136.85 97.3,137 97.5,137.1 97.601,137.449 97.8,137.75 97.899,137.949 
	98.101,138.1 98.399,137.949 98.5,137.8 98.649,137.699 98.649,137.55 98.7,137.449 98.8,137.25 98.8,137 98.8,136.85 
	98.851,136.75 98.8,136.65 98.8,136.6 98.75,136.5 98.75,136.449 98.649,136.199 98.601,136 98.601,135.699 98.55,135.3 
	98.55,134.949 98.5,134.55 98.5,134.15 98.399,133.65 98.351,133.55 98.351,133.5 98.351,133.4 98.351,133.199 98.25,132.699 
	98.2,132.199 98.05,131.6 97.95,131 97.75,129.75 97.45,128.3 97.149,126.85 96.75,125.25 96.45,123.75 96.05,120.8 95.75,117.949 
	95.7,115.25 95.7,114.949 95.851,114.6 96.3,114.3 96.95,113.949 97.7,113.5 98.649,113.05 100.45,112.1 102.45,111.199 
	104.649,110.35 107.05,109.55 108.2,109.15 109.3,108.85 110.3,108.55 111.3,108.35 112.2,108.15 113.05,108.05 113.851,108 
	114.601,108.05 114.45,107.699 114.3,107.449 114.05,107.199 113.7,107.05 113.2,106.9 112.649,106.85 112,106.85 111.25,106.949 
	110.2,106.8 109.601,106.75 109.05,106.8 107.851,106.9 106.601,107.15 105.25,107.5 104.5,107.699 103.8,108 102.3,108.6 
	100.75,109.35 99.5,109.9 98.399,110.5 97.45,111.05 97,111.3 96.649,111.6 96.601,111.35 95.75,111.5 95.101,111.9 94.55,112.449 
	94.2,113.25 "/>
<path fill-rule="evenodd" fill="#F8981D" d="M100.899,123.699l-0.25,0.701l-0.049,0.699v0.15v0.55v0.851l0.049,1.149l0.15,1.399
	l0.25,1.351l0.35,1.3l0.451,1.25l0.75,1.7l0.449,0.8l0.551,0.75l0.549,0.65l0.601,0.6l0.649,0.551l0.75,0.549l0.701,0.4l0.799,0.4
	l1.75,0.6l0.9,0.2l0.95,0.149l1,0.101l1.101,0.05l1-0.05l1-0.05l0.449-0.1l0.5-0.051l0.95-0.1l0.399-0.15l0.451-0.1l0.899-0.2
	l0.8-0.3l0.4-0.15l0.449-0.1l0.701-0.4l0.75-0.4l0.299-0.25L122.75,138l0.7-0.45l0.25-0.3L124,137l0.601-0.551l0.5-0.649
	l0.549-0.601l0.5-0.899l0.451-0.8v-0.15l0.049-0.1l0.101-0.2l0.2-0.399l0.35-0.801l0.2-0.9l0.2-0.85l0.1-0.9v-0.449l0.051-0.4v-0.8
	l-0.051-0.8l-0.199-1.551l-0.15-0.5l-0.1-0.399l-0.301-0.7l-0.199-0.35L126.7,123l-0.2-0.25l-0.149-0.15v-0.25l0.049-0.199v-0.201
	l-0.199-0.299l-0.2-0.201l-0.25-0.149l-0.3-0.101l-0.35-0.049l-0.9-0.15h-1.1h-1.551h-1.35h-2.551H116.5h-1.05h-1.85h-0.851H112
	h-1.25h-0.55h-0.35l-0.551,0.05l-2.1,0.05l-1.75,0.15l-1.5,0.199l-1.2,0.25l-1,0.25l-0.649,0.301l-0.4,0.35l-0.1,0.45v0.25v0.149
	l0.049,0.101l0.101,0.05L100.899,123.699L100.899,123.699z M103.7,130.25l-0.1-0.75V129v-0.4v-0.15l-0.201-1.049l-0.1-1.101
	l-0.1-1.2l-0.051-1.25l0.75-0.1l0.9-0.051l2-0.199l2.9-0.301l2.9-0.1h0.149h0.351h0.35l0.55,0.051h0.55l0.75,0.049l0.85,0.051
	l0.951,0.1l0.75,0.051l0.5,0.049L119,123.6h0.25h0.101h0.049l0.101,0.051l0.45,0.1h0.1h0.051l0.1,0.05h0.1h0.051l0.1,0.05l0.9-0.05
	h0.85h0.75h0.699l0.15,0.55l0.1,0.4l0.201,0.55l0.199,0.7v0.15l0.051,0.199l0.1,0.4l0.1,0.699l0.051,0.801l-0.051,0.6l-0.1,0.65
	l-0.301,1.3l-0.5,1.2l-0.35,0.6l-0.199,0.301L123,133.05l-0.05,0.2l-0.25,0.199l-0.2,0.25l-0.399,0.5l-0.451,0.4l-0.399,0.45
	l-0.3,0.149l-0.25,0.201l-0.5,0.35l-0.551,0.3l-0.299,0.149l-0.25,0.201l-0.65,0.199l-0.65,0.2l-0.699,0.149l-0.65,0.201l-0.801,0.1
	l-0.75,0.1l-0.799,0.051h-0.4h-0.2h-0.101l-0.049,0.049l-1.65-0.1l-1.45-0.199l-0.7-0.201l-0.6-0.149l-1.15-0.399l-1.05-0.65
	l-0.5-0.35l-0.399-0.351l-0.75-0.851l-0.551-0.899l-0.35-0.75l-0.2-0.7l-0.2-0.8L103.7,130.25L103.7,130.25z"/>
<path fill-rule="evenodd" fill="#FFCD05" d="M103.601,128.449v0.15v0.4v0.5l0.1,0.75l0.1,0.8l0.2,0.8l0.2,0.7l0.35,0.75l0.551,0.899
	l0.75,0.851l0.399,0.351l0.5,0.35l1.05,0.65l1.15,0.399l0.6,0.149l0.7,0.201l1.45,0.199l1.65,0.1l0.049-0.049h0.101h0.2h0.4
	l0.799-0.051l0.75-0.1l0.801-0.1l0.65-0.201l0.699-0.149l0.65-0.2l0.65-0.199l0.25-0.201l0.299-0.149l0.551-0.3l0.5-0.35l0.25-0.201
	l0.3-0.149l0.399-0.45l0.451-0.4l0.399-0.5l0.2-0.25l0.25-0.199l0.05-0.2l0.101-0.149l0.199-0.301l0.35-0.6l0.5-1.2l0.301-1.3
	l0.1-0.65l0.051-0.6l-0.051-0.801l-0.1-0.699l-0.1-0.4l-0.051-0.199V126l-0.199-0.7l-0.201-0.55l-0.1-0.4l-0.15-0.55h-0.699h-0.75
	h-0.85l-0.9,0.05l-0.1-0.05H120.3h-0.1l-0.1-0.05h-0.051h-0.1l-0.45-0.1l-0.101-0.051h-0.049h-0.101H119l-0.649-0.15l-0.5-0.049
	l-0.75-0.051l-0.951-0.1l-0.85-0.051l-0.75-0.049H114l-0.55-0.051h-0.35h-0.351h-0.149l-2.9,0.1l-2.9,0.301l-2,0.199l-0.9,0.051
	l-0.75,0.1l0.051,1.25l0.1,1.2l0.1,1.101L103.601,128.449L103.601,128.449z M109.851,125.4L109.8,125.6h-0.05L109.851,125.4
	L109.851,125.4z"/>
<path fill-rule="evenodd" fill="#F8981D" d="M80.95,120.65l-0.15-0.15l-0.45-0.5l-0.3-0.4l-0.35-0.65l-1.45,0.101l-2.8,0.149
	l-2.7,0.301l-2.65,0.35l-2.55,0.551L65,120.949l-2.5,0.65l-2.45,0.75l-2.35,0.9l-1.2,0.35l-1.05,0.4l-0.95,0.35l-0.85,0.4L52.8,125
	l-0.65,0.3l-0.65,0.25l-0.45,0.25l-0.45,0.149l-0.35,0.201l-0.25,0.1l-0.1,0.15l-0.1,0.049l0.05,0.101h0.1l0.25,0.05l-0.7,1.15
	l-0.25,0.6l-0.15,0.7l-0.3,1.45l-0.05,0.75l0.05,0.85v0.801l0.1,0.899l0.3,1.851l0.2,0.949l0.3,1.051l0.75,2.199l0.35,1.051
	l0.5,0.949l0.55,0.9l0.65,0.85l0.65,0.75l0.8,0.7l0.8,0.601l0.95,0.549l0.9,0.451l1.05,0.35l1.1,0.3l1.2,0.25l1.2,0.149l1.35,0.101
	h1.35l1.5-0.05l1.4-0.2l0.65-0.101l0.7-0.049l1.3-0.25L70,147l0.65-0.1l0.55-0.201l0.6-0.149l1.1-0.3l1.05-0.4l1-0.4l0.85-0.5
	l0.85-0.5L77,144.15l0.4-0.25l0.35-0.301l0.4-0.25l0.6-0.65l0.6-0.649l0.5-0.7l0.45-0.699v-0.15l0.05-0.1l0.1-0.201l0.2-0.399
	L81,139l0.1-0.45l0.15-0.399l0.3-0.801l0.4-1.8l0.05-0.5l0.1-0.45l0.15-0.9l0.05-2l-0.05-0.299v-0.25v-0.5v-1l-0.1-1.101l-0.1-1.05
	l-0.1-0.6L81.9,126.6v-0.25l-0.15-1.1l-0.3-1.4l-0.2-1.199l-0.2-1.101L80.95,120.65L80.95,120.65z M75.7,120.6v0.1v0.701l0.1,0.949
	l0.15,1.1l0.25,1.4l0.2,1.301v0.25l0.05,0.299l0.1,0.601l0.1,0.95v0.4v0.199v0.1V129l0.05,0.1l-0.05,0.2v0.25v0.5l-0.1,1l-0.2,0.899
	l-0.1,0.201l-0.05,0.1v0.15l-0.1,0.5l-0.2,0.399l-0.1,0.2l-0.05,0.1v0.15l-0.35,0.9l-0.45,0.799l-0.5,0.9l-0.5,0.551l-0.5,0.6
	L72.9,138l-0.5,0.55l-0.35,0.2l-0.3,0.25l-0.6,0.449l-0.2,0.051l-0.15,0.1l-0.3,0.2l-0.65,0.399l-0.4,0.101l-0.2,0.05l-0.15,0.1
	l-0.75,0.301l-0.8,0.199l-0.8,0.201l-0.9,0.1H65.6l-0.2,0.05L65,141.4l-0.9,0.049l-0.9,0.051l-0.1-0.051h-0.05h-0.1l-0.2-0.049H62.6
	l-0.25-0.101l-0.1-0.05H62.2h-0.1l-0.3-0.1l-0.3-0.051l-0.65-0.199l-0.4-0.101l-0.3-0.101H60.1l-1.3-0.1l-1.15-0.25l-1.1-0.449
	l-1-0.551l-1-0.8l-0.9-0.899l-0.85-1.101l-0.7-1.2l-0.9-1.85l-0.6-1.65l-0.4-1.55l-0.1-1.45v-0.25l0.15-0.199l0.2-0.25l0.35-0.201
	l0.35-0.299l0.5-0.25l0.55-0.301l0.75-0.25l0.7-0.35l0.85-0.301l0.95-0.35l1.05-0.3l1.05-0.399l1.25-0.301l1.25-0.4l1.45-0.299
	l1.45-0.451l1.6-0.399l1.65-0.45l1.8-0.4l1.75-0.5l1.9-0.449L75.7,120.6L75.7,120.6z M79.95,128.949l-0.1-1.799l-0.15-1.801l0.4,0.6
	l0.05,0.101l0.1,0.149l0.2,0.301l0.05,0.199l0.1,0.25V127l0.05,0.1l0.05,0.2v0.399l0.1,0.701l0.1,0.949l0.2,1.301l-0.05,0.549
	L81,131.5v0.4l-0.1,0.85l-0.1,1.05l-0.1,0.3h-0.05v0.051v0.1v0.199l-0.1,0.65l-0.2,1.1L80.05,137l-0.2,0.6l-0.1-0.5l-0.25-0.5
	l-0.4-0.449l-0.5-0.4l0.2-0.85l0.25-0.65l0.2-0.65l0.2-0.449l0.1-0.451l0.15-0.35l0.1-0.3l0.1-0.149v-0.15v-0.2v-0.25V131v-0.9
	v-0.55L79.95,128.949L79.95,128.949z"/>
<polygon fill-rule="evenodd" fill="#FFCD05" points="75.7,120.699 75.7,120.6 71.65,121.5 69.75,121.949 68,122.449 66.2,122.85 
	64.55,123.3 62.95,123.699 61.5,124.15 60.05,124.449 58.8,124.85 57.55,125.15 56.5,125.55 55.45,125.85 54.5,126.199 53.65,126.5 
	52.95,126.85 52.2,127.1 51.65,127.4 51.15,127.65 50.8,127.949 50.45,128.15 50.25,128.4 50.1,128.6 50.1,128.85 50.2,130.3 
	50.6,131.85 51.2,133.5 52.1,135.35 52.8,136.55 53.65,137.65 54.55,138.55 55.55,139.35 56.55,139.9 57.65,140.35 58.8,140.6 
	60.1,140.699 60.15,140.699 60.45,140.8 60.85,140.9 61.5,141.1 61.8,141.15 62.1,141.25 62.2,141.25 62.25,141.25 62.35,141.3 
	62.6,141.4 62.75,141.4 62.95,141.449 63.05,141.449 63.1,141.449 63.2,141.5 64.1,141.449 65,141.4 65.4,141.3 65.6,141.25 
	65.85,141.25 66.75,141.15 67.55,140.949 68.35,140.75 69.1,140.449 69.25,140.35 69.45,140.3 69.85,140.199 70.5,139.8 70.8,139.6 
	70.95,139.5 71.15,139.449 71.75,139 72.05,138.75 72.4,138.55 72.9,138 73.45,137.5 73.95,136.9 74.45,136.35 74.95,135.449 
	75.4,134.65 75.75,133.75 75.75,133.6 75.8,133.5 75.9,133.3 76.1,132.9 76.2,132.4 76.2,132.25 76.25,132.15 76.35,131.949 
	76.55,131.05 76.65,130.05 76.65,129.55 76.65,129.3 76.7,129.1 76.65,129 76.65,128.949 76.65,128.85 76.65,128.65 76.65,128.25 
	76.55,127.3 76.45,126.699 76.4,126.4 76.4,126.15 76.2,124.85 75.95,123.449 75.8,122.35 75.7,121.4 75.7,120.699 "/>
<polygon fill-rule="evenodd" fill="#FFCD05" points="79.7,125.35 79.85,127.15 79.95,128.949 79.9,129.55 79.9,130.1 79.9,131 
	79.9,131.3 79.9,131.55 79.9,131.75 79.9,131.9 79.8,132.05 79.7,132.35 79.55,132.699 79.45,133.15 79.25,133.6 79.05,134.25 
	78.8,134.9 78.6,135.75 79.1,136.15 79.5,136.6 79.75,137.1 79.85,137.6 80.05,137 80.35,136.199 80.55,135.1 80.65,134.449 
	80.65,134.25 80.65,134.15 80.65,134.1 80.7,134.1 80.8,133.8 80.9,132.75 81,131.9 81,131.5 81.05,131.199 81.1,130.65 
	80.9,129.35 80.8,128.4 80.7,127.699 80.7,127.3 80.65,127.1 80.6,127 80.6,126.949 80.5,126.699 80.45,126.5 80.25,126.199 
	80.15,126.05 80.1,125.949 79.7,125.35 "/>
<polygon fill-rule="evenodd" fill="#F8981D" points="101.601,145.449 101.899,145.25 102.2,145.1 102.7,144.8 103,144.4 
	103.101,144 103,143.699 102.8,143.449 102.45,143.25 102.05,143.1 101.399,142.949 100.7,142.85 99.851,142.75 98.95,142.75 
	97.95,142.699 97.101,142.75 96.351,142.85 95.8,143.1 95.3,143.35 95,143.699 94.8,144.1 94.75,144.6 94.75,144.65 94.75,144.8 
	94.851,145.35 95.05,145.65 95.2,145.75 95.45,145.9 95.649,145.949 95.95,146.05 96.601,146.1 96.601,146.05 96.649,146.05 
	96.75,146.05 96.95,146.05 97.351,146.05 98.101,146.05 98.8,145.949 99.5,145.9 100.601,145.699 101.101,145.55 101.601,145.449 
	"/>
<polygon fill-rule="evenodd" fill="#F8981D" points="137.3,140.699 137.45,139.9 137.2,140.449 137.05,141 136.899,141.35 
	136.851,141.699 136.8,141.85 136.8,141.949 136.8,141.9 136.899,141.75 137.3,140.699 "/>
<polygon fill-rule="evenodd" fill="#F8981D" points="137.45,139.75 137.45,139.699 136.351,140.05 135.05,140.55 137.45,139.75 "/>
<polygon fill-rule="evenodd" fill="#FFCD05" points="28.4,99.699 27.8,102.1 27.55,103.3 27.4,104.55 27.1,106.949 27,109.449 
	27.05,111.15 27.3,112.9 27.3,113.949 27.3,115 27.45,116 27.45,117.55 27.6,119.25 27.75,121.05 28.1,123 28.45,125.05 
	28.95,127.199 29.5,129.5 30.2,131.949 29.75,128.15 29.8,127.55 29.5,124.75 29.1,121.05 28.85,117.6 28.6,114.25 28.5,111.1 
	28.25,103.75 28.25,102.75 28.4,99.699 "/>
<polygon fill-rule="evenodd" fill="#FFCD05" points="30.55,142.699 30.45,142.35 30.45,142.6 30.55,142.699 "/>
<path fill-rule="evenodd" fill="#CB6928" d="M91.75,4.35l0.2-1L92.2,2.5l0.15-0.75L92.55,1.2l0.1-0.5l0.101-0.35L92.8,0.1l0.1-0.1
	l-2.049,0.45l-1.951,0.7l-1.849,0.9l-1.65,1.1l-1.65,1.3L82.3,6l-0.75,0.8L80.9,7.75l-1.25,2H79.6h-0.05l-0.1-0.05H79.4h-0.15
	l-0.3-0.1l-0.3-0.1l-0.4-0.15L78,9.25L77.8,9.2l-0.3-0.15l-0.25-0.1l-0.6-0.25l-0.7-0.3l-0.7-0.25l-0.45-0.2L74.4,7.8l-0.45-0.2
	l-0.4-0.15l-0.95-0.4l-0.5-0.2l-0.25-0.1l-0.2-0.05L69.6,5.85L67.75,5.1L66,4.45L64.45,3.9L63,3.4l-1.25-0.35L60.6,2.8l-0.95-0.15
	l0.7,1.2l0.8,1.35l0.8,1.35l0.9,1.55l0.9,1.55l1,1.65l1,1.7l1.1,1.85l-3.7-0.2l-3.6,0.1L56,15l-3.4,0.5l-3.45,0.7l-3.3,0.9
	l-3.25,1.1l-3.15,1.3L36.3,21l-3.05,1.7l-3,1.9l-2.85,2.15l-2.9,2.3l-2.75,2.6l-2.7,2.7l-2.6,3L14.5,39.7l-1.85,2.5l-1.7,2.55
	L9.4,47.5l-1.45,2.75L6.6,53.2l-1.2,3.05L4.35,59.4l-0.5,1.45l-0.45,1.4l-0.45,1.3l-0.35,1.3L2.2,66l-0.35,1.1l-0.3,1.05l-0.25,1
	L1,70l-0.25,0.8l-0.2,0.75l-0.15,0.7l-0.25,1.1l-0.1,0.45L0,74.2l0.55-0.6l0.75-0.65l0.75-0.7L3,71.55l1.1-1l1.05-0.95l1-0.9
	l0.95-0.8l0.85-0.8l0.85-0.7l0.75-0.7l0.75-0.6l1.2-1.15l0.55-0.5l0.5-0.4l0.4-0.4l0.35-0.3l0.3-0.3l0.3-0.2l-0.85,0.95l-0.75,1.05
	l-1.45,2.3L9.9,67.7l-0.85,1.75L8.2,71.2l-0.75,1.95L6.7,75.1l-0.65,2.05l-0.6,2.15l-0.5,2.3L4.2,84.7l-0.6,3.15L3.05,90.9L2.7,94
	l-0.35,3l-0.25,3.05L1.95,103v3L2,108.9l0.2,3l0.3,3.049L3,118.05l0.55,3.101l0.75,3.199l0.85,3.25L6.2,130.9l1.3,3.799l1.55,3.801
	l0.8,1.85l0.9,1.9l1.95,3.8l1.75,3.25l0.05-0.899l0.1-0.75l0.2-1.4l0.1-1.15l0.05-0.5l0.1-0.4l0.3-1.85l0.45-1.55l0.15,0.351
	l0.25,0.5l0.25,0.5l0.35,0.649l0.75,1.351L18,144.9l0.55,0.899l0.5,0.851l0.6,1L21,149.8l1.45,2.351l0.8,1.25l0.9,1.399l0.2,0.3
	l0.1,0.15l0.15,0.199l0.5,0.701l0.2,0.299l0.1,0.15l0.15,0.2l0.5,0.7l0.9,1.25l0.9,1.3l0.8,1.149l0.85,1.201l0.75,1.1l0.75,1.1
	l0.3,0.45l0.35,0.5l0.65,1l0.6,0.899l0.6,0.9l0.5,0.801l0.55,0.799L35,170.65l0.2,0.35l0.25,0.4l-0.3-2.4l-0.25-2.1l-0.2-2
	l-0.2-1.75l-0.2-1.601l-0.15-1.399l-0.1-1.25l-0.1-1l-0.3-2.051l-0.15-1.1l-0.1-1.051l-0.3-2.35l-0.1-0.65l-0.05-0.6l-0.1-1.199
	l-0.1-0.951l-0.1-0.85l-0.25-1.9l-0.25-1.35L32,142.8l-0.2-0.95l0.2,0.2l-0.35-3.649l-0.1-0.101L31.4,136.9l-0.3-1.75l-0.25-1.801
	l-0.4-3.8L30.1,126.4l-0.25-3l-0.25-2.851l-0.15-2.7l-0.2-2.65l-0.1-2.5l-0.1-2.35v-2.25l-0.05-2.15l0.05-2.049l0.05-1.9l0.1-1.75
	l0.1-1.7L29.5,97l0.2-1.45L30,94.3l0.2,0.649l0.1,0.25l0.15,0.301l0.3,0.85l0.35,0.9l0.7,1.8l0.6,1.75l0.65,1.8l0.6-1.15l0.6-1
	l0.55-1l0.5-0.85l0.4-0.85l0.4-0.7l0.35-0.649l0.3-0.5l0.4,0.649l0.4,0.601l0.05,0.1l0.1,0.15l0.2,0.299l0.4,0.551l0.3,0.449
	l0.3,0.4l0.1,0.15l0.15,0.199l0.3,0.301l0.75-1.25l0.75-1.051L41.6,96.4l0.7-0.851l0.55-0.851L43.45,94l0.5-0.65l0.55-0.5l0.3,1.1
	l0.3,1.101l0.25,1l0.2,1l1.8-2.149l1.85-2l1.85-1.9L53,89.25l0.15,0.449l0.3,0.551l0.3,0.65l0.45,0.799l0.25,0.5l0.3,0.5l0.2,0.451
	l0.25,0.5l0.4,0.75v0.049l0.05,0.101l0.1,0.2l0.2,0.35l0.2,0.5l0.05,0.2l0.1,0.2l0.1,0.25v0.1l0.05,0.1L56.4,96.4l0.1-0.101l0.1-0.2
	l0.25-0.25l0.2-0.35l0.35-0.45l0.35-0.55l0.45-0.551l0.45-0.75l0.55-0.75l0.55-0.85l0.7-0.949l0.7-1.051l0.8-1.1l0.8-1.2l0.95-1.25
	l0.2,2.101l0.2,2.25l0.1,2.35l0.1,2.5l9.4-9.051l2.7,8.351v-0.101l0.15-0.149l0.15-0.2L77,93.9l0.3-0.351l0.4-0.351l0.45-0.399
	L78.7,92.4l0.55-0.551l0.65-0.6l0.65-0.7l0.75-0.75l0.75-0.851l0.85-0.899l0.85-0.95l0.95-1.05l0.35,1.3l0.4,1.301l0.8,2.399
	l0.35,1.101l0.4,1.049l0.8,2l0.5-0.75l0.55-0.649l0.949-1.25l0.85-1.149l0.801-1l0.65-0.951L92.399,89l0.351-0.35l0.5-0.65
	l0.45-0.551l0.35,0.851l0.45,1l0.601,1.05l0.75,1.25l0.449,0.7l0.25,0.45l0.35,0.55l0.301,0.5l0.4,0.601l0.85,1.35l0.8-1l0.95-0.95
	l1-1l1.15-1l0.5-0.55l0.5-0.4l0.399-0.4l0.45-0.299l0.3-0.301l0.351-0.199l0.25-0.15l0.25-0.051l0.449,0.701l0.5,0.75l0.9,1.449
	l0.8,1.25l0.351,0.6l0.399,0.601l0.601,1l0.1,0.2l0.05,0.1l0.101,0.15l0.299,0.5l0.201,0.4l0.25,0.399l0.199,0.351l0.25,0.399
	l2.9-3.55l1.35-1.75l1.4-1.65l0.3,0.9l0.351,0.9l0.299,0.799l0.15,0.4l0.2,0.45l0.5,1.45l0.2,0.65l0.1,0.299v0.051l0.051,0.1
	l0.1,0.2l0.15-0.149l0.25-0.101l0.549-0.25l0.301-0.2l0.4-0.15l0.85-0.399l0.949-0.55l1.101-0.6l0.55-0.351l0.65-0.3l1.35-0.7
	l0.1,1.05l0.051,0.5l0.1,0.551l0.1,1l0.15,1l0.2,1.699l0.2,1.6l0.55-0.299l0.75-0.25l0.351-0.201l0.449-0.149l0.95-0.3l1-0.4
	l1.149-0.35l1.25-0.4l0.65-0.199l0.75-0.15l-0.1,0.35l-0.051,0.4l-0.1,0.75l-0.199,1.4l-0.301,1.25l-0.1,0.25l-0.051,0.299
	l-0.1,0.601l1.301-0.851l0.549-0.399l0.601-0.3l0.45-0.35l0.5-0.25l0.8-0.451l0.3-0.25l0.301-0.149l0.449-0.25l0.25-0.149
	l0.15-0.051v0.2l-0.1,0.5l-0.051,0.649l-0.15,0.75l-0.1,0.9l-0.05,0.95l0.05,0.899l1.4-0.399l1.699-0.399l0.9-0.25l1-0.201
	l2.2-0.399v0.25l0.101,0.351l0.1,0.449l0.1,0.551l0.051,0.649l0.1,0.75l0.1,0.851l0.1,0.949l0.101,1.85v0.851l0.05,0.899
	l-0.05,0.801v0.8h-0.05v0.05v0.1v0.201v0.399v0.8l-0.15,0.75l-0.15,0.95l-0.199,1.05l-0.2,1.25l-0.3,1.35L145.399,122L145,123.699
	l-0.399,1.9l-0.4,1.45l-0.4,1.399l-0.4,1.301l-0.35,1.3l-0.4,1.2l-0.399,1.15l-0.8,2.1l4.25-2.301l-4.051,7.951l-1.549,3
	l0.149,0.049l-1.149,3.25l-1.051,3.25l-0.85,2.551l-0.75,2.5l-0.75,2.4l-0.6,2.399l-0.601,2.25L134,165l-0.5,2.15l-0.399,2.1
	l2.149-3.051l1.05-1.449l1.051-1.35l1.899-2.65l0.899-1.25l0.951-1.15l1.649-2.35l0.8-1.1l0.801-1l1.399-1.951l1.351-1.75
	l1.149-1.649l0.55-0.75l0.551-0.649l0.449-0.701l0.45-0.6l0.851-1.05l0.649-0.95l0.601-0.75l0.199-0.35l0.25-0.25l0.4-0.35l-0.7,3
	l-0.3,1.449l-0.25,1.4l-0.551,2.6l-0.449,2.4l-0.45,2.1l-0.3,2l-0.301,1.7L149.7,160.4l1.85-2.5l1.85-2.4l1.65-2.4l1.65-2.4
	l1.449-2.399l1.451-2.399l1.35-2.4l1.25-2.35l1.1-2.4l1.051-2.35l0.949-2.4l0.85-2.301l0.75-2.35l0.65-2.3l0.551-2.3l0.5-2.301
	l0.1-0.449v-0.15l0.05-0.1l0.101-0.2l0.1-0.5l0.15-0.5l0.199-1.149l0.1-0.65l0.15-0.6v-0.4v-0.2v-0.101l0.051-0.049l0.1-0.701V116.3
	v-0.2V116l0.05-0.051l0.101-0.75l0.1-1.699l0.05-0.9l0.101-0.9v-1.949l-0.051-1.9l-0.15-1.9l-0.149-1.85l-0.3-1.9l-0.35-1.85
	l-0.451-1.85l-0.449-1.801l2.35,0.801l2.301,0.8l2.1,0.7l2,0.699V97.4l-0.051-2.301l-0.1-1.199l-0.05-0.601v-0.55l-0.2-2.301
	l-0.3-2.399l-0.351-2.399l-0.1-0.351l-0.05-0.3l-0.101-0.6l-0.199-1.2L175,80.8l-0.601-2.55l-0.649-2.5l-0.399-1.3l-0.201-0.65
	L173,73.2l-0.8-2.55L171.3,68l-0.5-1.35l-0.449-1.3l-1.051-2.7L168.2,60l-1.25-2.75l-1.301-2.55l-1.35-2.55l-1.449-2.35l-1.551-2.35
	l-1.6-2.2l-1.65-2.15l-1.75-1.95l-1.9-1.95l-1.949-1.85l-2.051-1.75l-2.049-1.6l-2.201-1.6l-2.25-1.45l-2.35-1.35l-2.35-1.25
	l21.75,5.3l-1.2-2.05l-1.3-1.85l-1.5-1.85l-1.65-1.7l-1.85-1.7l-2-1.55l-2.2-1.55l-2.351-1.35l-2.85-1.55l-2.9-1.4l-2.949-1.25
	l-3-1.1l-3.1-1L129,12.9l-3.149-0.75l-3.201-0.55l-1.699-0.3l-1.65-0.2l-3.35-0.35l-3.4-0.25l-3.449-0.05l-3.551,0.05l-1.8,0.05
	L102,10.7l-1.851,0.1L98.351,11l-3.65,0.45L94.149,11L93.7,10.6l-0.75-0.8L92.3,8.95L92.05,8.5l-0.15-0.4l-0.35-0.95l-0.1-0.9
	L91.5,5.3L91.75,4.35L91.75,4.35z M86.95,4.65l0.4-0.4l0.4-0.3l0.35-0.3l0.35-0.2L88.7,3.2l0.25-0.15l0.199-0.15l0.25-0.05
	l0.101-0.1h0.149L89.8,2.8l-0.05,0.05V3l-0.101,0.35L89.2,4.25l-0.25,1.1l-0.15,1.3L88.75,8.2V9l0.2,0.85l0.35,0.9l0.5,1l0.6,1
	l0.801,1.1l0.949,1.1l1.101,1.2l0.899-0.65l1.25-0.55l1.5-0.5L98.7,14.1l2-0.35l2.35-0.25l2.6-0.2l2.951-0.05l2.949-0.05l3,0.1
	l1.45,0.05l1.5,0.15l3,0.4l2.899,0.45l1.451,0.25l1.5,0.35l2.899,0.75l3,0.9l2.899,1l2.951,1.2l2.949,1.4l3,1.65l3,1.75l3,2
	l3.051,2.2l3.1,2.4l-1.95-0.45l-1.8-0.35l-1.75-0.35l-1.65-0.3l-1.65-0.3l-1.449-0.25l-1.45-0.25l-1.3-0.15l-1.35-0.2l-1.15-0.1
	l-2.15-0.15l-1-0.05l-0.85,0.05l-0.85,0.05l-0.65,0.1l0.75,0.45l1.75,1l1.65,1l1.5,0.9l1.449,0.9l1.25,0.8l1.25,0.8l1.051,0.7l1,0.7
	l1.5,1.1l1.549,1.25l1.451,1.3l1.449,1.4l1.35,1.4l1.4,1.55l1.301,1.6l1.299,1.75l1.15,1.7l1.2,1.85l1.101,1.85l1.149,2l1,2
	l1.05,2.15l0.95,2.2l0.95,2.3l0.65,1.85l0.699,1.95l0.6,2.05l0.65,2.2l0.551,2.2l0.6,2.35L171,77.2l0.55,2.55l0.25,1.5l0.301,1.7
	l0.299,1.8l0.4,2.05l0.35,2.101l0.4,2.35l0.4,2.449l0.5,2.701l-0.35-0.201L173.7,96l-0.45-0.2l-0.5-0.101l-1.2-0.399l-0.65-0.2
	l-0.699-0.15l-0.2-0.1l-0.149-0.1l-0.101-0.051h-0.05l-0.25-0.1l-0.301-0.1l-0.199-0.1l-0.1-0.051H168.8l-0.35-0.1l-1-0.4
	l-0.301-0.15l-0.25-0.1l-0.549-0.199L165.7,93.1l-0.7-0.25l-0.75-0.3l-0.399-0.149L163.5,92.3l0.75,2.7l0.3,1.3l0.051,0.3l0.1,0.35
	l0.199,0.701l0.551,2.6l0.55,2.6l0.149,1.2l0.201,1.25l0.149,1.2l0.2,1.25l0.25,2.4l0.15,2.399L167,114.9l-0.101,1.25l-0.1,1.35
	l-0.199,1.3l-0.25,1.399l-0.301,1.451l-0.3,1.549l-0.45,1.5l-0.449,1.601l-0.5,1.601l-0.5,1.699l-1.301,3.45l-0.699,1.8l-0.701,1.9
	l-0.799,1.75l-0.75,1.75l-0.701,1.55l-0.649,1.55l-0.649,1.35l-0.601,1.25l-0.55,1.15l-0.5,1.1l-0.5,0.851L155,149.9l-0.399,0.699
	l-0.351,0.65l-0.351,0.449l-0.299,0.4l-0.25,0.25l-0.201,0.2l1.051-13l-0.25-0.25l-0.4,0.351l-0.449,0.549l-0.551,0.65l-0.6,0.75
	l-0.75,0.85l-0.801,1L149.5,144.5l-0.95,1.25l-1.1,1.25l-1.15,1.449L145.05,150l-1.3,1.65l-1.45,1.75l-1.5,1.899l-1.6,1.95
	l-1.65,2.15l0.051-0.351l0.149-0.399l0.149-0.5l0.201-0.551l-0.25,0.9l1.199-2.9l1.15-2.75l1.1-2.65l1.1-2.5l0.951-2.449l0.449-1.2
	l0.5-1.101l0.9-2.149l0.9-2.05l0.75-1.95l0.75-1.851l0.699-1.75l0.65-1.549l0.55-1.551l0.5-1.35l0.45-1.25l0.199-0.6l0.25-0.5
	l-1.649,1.25l-1.649,1.449l-1.701,1.551l-1.75,1.649l0.701-1.7l0.699-1.699l0.6-1.75l0.601-1.701l0.5-1.799l0.45-1.801l0.05-0.5
	l0.101-0.449l0.199-0.9l0.35-1.801l0.201-1.85l0.199-1.699l0.051-0.851l0.1-0.75l0.15-1.45l0.049-1.35v-0.65l0.051-0.55
	l-0.051-0.601v-0.5L149.101,107l-0.301-1.801l-0.199-1.6l-0.301-1.5l-0.199-1.3l-1.451,0.25l-1.6,0.3l-1.8,0.301l-2,0.399
	l0.45-1.649l0.199-0.75l0.25-0.65l0.101-0.65l0.149-0.55l0.101-0.55l0.149-0.45v-0.45L142.7,96l-0.051-0.35V95.4l-0.1-0.25
	l-0.1-0.15l-0.15-0.15l-0.1-0.05l-0.25-0.101h-0.2l-0.25,0.051l-0.25,0.15l-0.351,0.149l-0.299,0.25l-0.4,0.25l-0.35,0.351
	l-0.451,0.35l-0.449,0.449l-0.5,0.451L138,97.699l-0.601,0.551l-0.549,0.65l-0.601,0.649l-0.55,0.75l1.75-5.399l-0.95,0.449
	l-0.95,0.5l-1.05,0.5l-1.149,0.551l-1.301,0.5L130.7,98l-1.45,0.6l-1.55,0.6V98.75l0.05-0.4l0.101-0.8V96.65V95.8l-0.101-0.95
	l-0.05-0.9l-0.301-1.899l-0.199-0.8l-0.2-0.6l-1.399,0.649L124,92.15l-0.899,0.399l-0.9,0.5l-2,1.05l-0.801-1.75l-0.699-1.65
	l-0.65-1.549L117.5,87.8l-1.149,1.101l-1.051,1.049l-1,0.951l-0.85,0.85l-0.85,0.699l-0.701,0.65l-0.649,0.551L110.7,94.1l-2.45-5.4
	l-0.25-0.5l-0.2-0.5l-0.4-1.1l-0.1-0.199l-0.05-0.101v-0.05l-0.101-0.301L106.95,85.3l-0.4-1.45l-1.449,1.25l-1.351,1.2l-0.649,0.5
	l-0.551,0.55l-1.05,1l-0.95,0.801L99.7,89.85l-0.4,0.25L99,90.4l-0.55,0.5l-1.1-1.451L96.8,88.65l-0.5-0.75l-0.6-0.851l-0.551-0.8
	l-1.1-1.75l-0.35-0.65l-0.551,0.6l-0.549,0.7l-1.201,1.45l-1.35,1.551l-0.699,0.799l-0.701,0.9l-3.8-8.3l-0.75,0.7L83.45,83
	l-1.25,1.4l-1.15,1.2l-0.95,1.15l-0.5,0.449l-0.4,0.5l-0.75,0.851l-0.35,0.3l-0.25,0.35L77.4,89.8l-0.45-1.5l-0.35-1.351l-0.3-1.199
	l-0.2-1.05l-0.2-0.95L75.8,83l-0.1-0.6v-0.45l-0.45,0.15l-0.5,0.3l-0.55,0.35l-0.6,0.5l-0.7,0.5l-0.75,0.65l-0.8,0.7l-0.85,0.85
	l-1.25,1.15l-1.15,1.1l-1.05,1l-0.85,1l-0.1-1.549L66.05,87.3l-0.1-1.25V85l-0.1-0.95l-0.1-0.75l-0.1-0.65V82.2l-0.95,0.95l-1,1.05
	l-1.05,1.1l-1.05,1.2l-1.15,1.199L59.25,89L58,90.35l-1.3,1.45l-0.6-1.25l-0.55-1.05l-0.95-1.85L54.15,86.8l-0.35-0.7l-0.35-0.65
	l-0.25-0.5l-0.3,0.2l-0.25,0.3l-0.6,0.65l-0.4,0.35L51.3,86.9l-0.75,0.949l-0.5,0.45l-0.45,0.55L48.65,90l-1.05,1.25l-1.15,1.449
	L46.3,92.3L46.2,91.9L46,91l-0.3-1.051l-0.3-1.199l-1,1l-0.85,0.949L42.7,91.55l-0.65,0.8l-0.55,0.5l-0.45,0.5l-0.4,0.45l-0.3,0.45
	L40,94.6l-0.2,0.35l-0.2,0.25L39.5,95.5l-0.25-0.45l-0.2-0.351l-0.2-0.35l-0.15-0.3l-0.1-0.25l-0.15-0.3l-0.1-0.25l-0.2-0.4
	l-0.1-0.199L38,92.55V92.5l-0.2-0.45l-0.15-0.399l-0.4-0.951l-0.4-1.049L33.2,98.5l-0.5-1.45l-0.45-1.2l-0.4-1.1l-0.3-0.85
	l-0.1-0.201l-0.05-0.1v-0.05l-0.2-0.351l-0.1-0.149l-0.05-0.101l-0.1-0.199l-0.15-0.301l-0.1-0.25l-0.4-0.649l-0.4-0.75l-0.1-0.149
	l-0.05-0.101l-0.1-0.2l-0.2-0.4l-0.5-0.85l-0.8,2L27.5,93.15l-0.55,2l-0.45,2.049l-0.35,1.9l-0.25,1.95l-0.15,1.899L25.7,104.9
	l-0.05,3.6v3.4v3.25l0.1,3.1v0.8l0.05,1l0.1,1.149l0.2,1.4l0.15,1.5l0.25,1.801l0.25,1.899l0.35,2.149l0.3,2.25l0.4,2.5l0.4,2.601
	l0.5,2.851l0.45,3l0.55,3.199l0.6,3.35l0.65,3.601l0.2,1.05l0.2,1.301l0.1,0.6l0.05,0.3l0.1,0.351l0.2,1.149l0.2,1.05l0.1,0.95
	l0.05,0.399l0.1,0.451l0.1,0.75l0.1,0.75l-0.95-1.65l-0.85-1.45l-0.85-1.351l-0.7-1.25l-0.7-1.25l-0.6-1.049l-0.6-0.951l-0.45-0.85
	l-0.5-0.85l-0.35-0.65l-0.35-0.55l-0.25-0.45l-0.25-0.449l-0.15-0.25l-0.1-0.15v-0.051l-2.35-3.85l-1.15-1.8l-1.05-1.649l-1.1-1.65
	l-1-1.5l-1-1.45l-0.95-1.351l-0.55,1.25l-0.4,1.25l-0.4,1.051l-0.3,1.05l-0.3,0.851l-0.2,0.85l-0.2,0.75l-0.1,0.65l-1.55-3.301
	l-1.35-3.5l-0.7-1.85l-0.6-1.9l-1.15-3.9L7.55,126l-0.4-1.65l-0.3-1.6L6.3,119.3l-0.45-3.5l-0.35-3.7l-0.25-3.75l-0.1-1.949v-1.951
	L5.2,100.5l0.15-4.1l0.5-4l0.7-3.951L7.6,84.6l1.25-3.9l1.6-3.8l1.8-3.75l2.15-3.65l1.05-1.85l1.05-1.7l1-1.7l1-1.55l0.9-1.55
	l0.9-1.4l0.8-1.35l0.85-1.2l0.7-1.25l0.75-1.05l0.65-1.05l0.7-0.9l0.55-0.9l0.6-0.75l0.5-0.75L26.9,50l1.75-2.35l1.85-2.2l1.85-2.05
	l1.95-1.9l2.3-2.05V39.3l-0.05-0.05L36.4,39.2l-0.15,0.05l-0.3,0.05l-0.3,0.2l-0.4,0.2l-0.4,0.3l-0.55,0.3l-0.6,0.4l-0.65,0.4
	l-0.7,0.5l-0.8,0.5l-0.85,0.6l-0.95,0.65L28.8,44.1l-4.05,2.95L22.8,48.6l-1.85,1.65l-1.9,1.6l-1.8,1.7l-3.45,3.6l-1.75,1.75
	l-1.6,1.65L8.9,62.1l-1.4,1.55l-1.4,1.4L4.8,66.4l-1.25,1.25l-1.1,1.2l0.2-0.55l0.3-0.65l0.35-0.7l0.45-0.75l0.45-0.9l0.5-0.95
	l0.55-1.05l0.65-1.1l0.6-1.25l0.7-1.3l0.75-1.4l0.8-1.45l0.8-1.6l0.9-1.65l0.95-1.75l1.05-1.75l2.05-3.7l2.2-3.45l1.1-1.7l1.2-1.6
	l1.2-1.55l1.3-1.45l1.25-1.5l1.35-1.4l2.75-2.65l2.85-2.5l3.05-2.2L34.7,25l2.1-1.25l2.25-1.2l2.4-1.05l2.5-1.05l2.65-0.9l2.75-0.9
	l2.95-0.75l0.6-0.15l0.1-0.1h0.4l0.6-0.1h0.85l1-0.1l1.3-0.1l1.5-0.1l1.75-0.1L62.1,17l1.65-0.1l1.5-0.05h1.45h1.25l1.2,0.1
	l1.05,0.1l1,0.15l-0.85-1.75L69.6,13.9l-0.7-1.4l-0.6-1.2l-0.6-1.1l-0.45-0.85l-0.45-0.7l-0.3-0.5l2.1,0.15l2.1,0.45l2.1,0.65
	l2.1,0.95l1.35,0.6l1.45,0.7l1.55,0.6l1.65,0.7l0.7-1.45l0.8-1.35l0.7-1.25l0.8-1.05l0.7-1L85.4,6l0.75-0.75L86.95,4.65L86.95,4.65z
	"/>
<polygon fill-rule="evenodd" fill="#CB6928" points="90.75,25.5 90.851,25.1 91,24.7 91.2,23.75 91.3,22.65 91.3,22 91.3,21.65 
	91.351,21.35 91.3,20.65 91.2,20.1 91,19.55 90.8,19.15 90.351,18.5 90.101,18.05 89.899,17.7 89.851,17.55 88.35,17.55 88.35,17.7 
	88.35,18.05 88.45,19 88.5,19.55 88.6,20.3 88.7,21.15 88.851,22.1 88.851,22.7 88.899,23.3 88.899,23.85 88.95,24.45 88.851,24.9 
	88.8,25.4 88.7,25.85 88.6,26.3 88.1,26.3 86.55,24.15 85.85,23.2 85.2,22.45 84.55,21.7 84,21.1 83.05,20.15 83.25,19.75 
	83.35,19.5 83.3,19.1 83.3,18.8 83.25,18.55 83.25,18.4 83.15,18.1 83.1,18.05 83.1,18.1 82.85,18.5 79,20.25 75.25,22.3 73.6,23.3 
	72.25,24.3 71.15,25.2 70.7,25.65 70.35,26.15 70.45,25.8 70.65,25.45 71.1,24.65 71.65,23.7 72.4,22.65 72.75,21.95 73.1,21.35 
	73.4,20.8 73.65,20.35 73.8,19.85 73.95,19.45 74.05,19.1 74.1,18.8 74.05,18.15 74,17.9 74,17.75 73.9,17.45 73.85,17.4 
	73.85,17.45 73.6,17.8 72.6,18.05 72.25,18.5 71.95,19.05 71.25,20.4 70.45,21.95 69.65,23.85 69.1,24.9 68.7,25.95 68.35,26.85 
	68.1,27.7 67.85,28.4 67.7,29.05 67.6,29.6 67.6,30.05 67.6,30.75 67.6,31.3 67.6,31.7 67.65,31.9 67.85,32.5 67.9,32.35 68.1,32.2 
	68.3,31.95 68.65,31.6 69,31.15 69.45,30.65 69.95,30.1 70.55,29.45 71.05,29.1 71.7,28.7 72.4,28.25 73.25,27.75 74.1,27.1 
	75.1,26.4 76.15,25.65 77.35,24.85 78.4,24 79.4,23.25 80.25,22.55 81.1,21.95 81.35,21.95 81.85,22 82.35,22.15 82.85,22.4 
	83.45,22.8 83.95,23.25 84.5,23.85 85,24.55 85.6,25.4 86.15,26.3 86.85,27.35 87.55,28.5 88.35,29.75 89.55,27.55 90.75,25.5 "/>
<polygon fill-rule="evenodd" fill="#F26822" points="45.95,55.5 46.3,53.55 46.8,51.55 47.4,49.45 48.15,47.3 48.45,46.2 
	48.8,45.25 49.1,44.3 49.4,43.55 49.6,42.8 49.85,42.15 50.05,41.6 50.25,41.15 50.3,40.7 50.4,40.35 50.45,40.05 50.5,39.9 
	50.45,39.75 50.45,39.7 50.4,39.7 50.35,39.85 50.4,39.75 49.55,40.75 48.75,42 47.95,43.5 47.15,45.2 46.35,47.1 45.6,49.2 
	44.85,51.5 44.15,54.1 43.5,56.4 42.95,58.5 42.45,60.4 42.25,61.3 42.1,62.15 41.75,63.65 41.6,64.95 41.45,66.05 41.45,66.55 
	41.45,67 41.35,68.1 41.2,69.2 41.55,68.6 41.6,68.6 41.6,68.5 41.7,68.35 42.05,67.7 42.5,67.05 43,66.35 43.6,65.6 45.2,63.25 
	46.8,61.05 48.3,59 49.8,57.1 51.2,55.3 52.6,53.7 53.9,52.2 55.2,50.9 55.2,52.55 55.2,54.1 55.2,55.55 55.2,56.9 55.2,58.1 
	55.25,59.25 55.25,60.3 55.35,61.25 55.45,64 55.7,66.7 56,69.2 56.45,71.6 65.45,55.75 64.65,56.1 63.9,56.65 63.1,57.25 62.4,58 
	61.6,58.85 60.9,59.8 60.1,60.85 59.4,62 58.85,62.75 58.45,63.5 58.1,64.1 57.85,64.65 57.65,62.7 57.5,60.75 57.4,58.7 
	57.35,56.55 57.3,54.3 57.3,52 57.35,49.65 57.45,47.2 57,47.35 56.6,47.6 56.1,47.85 55.65,48.2 55.1,48.55 54.6,49 54.05,49.45 
	53.55,50.05 52.9,50.6 52.3,51.25 51.65,51.9 51.05,52.7 49.65,54.3 48.9,55.2 48.2,56.2 46.95,57.7 46.4,58.35 45.95,59 
	45.45,59.55 45.05,60.1 44.7,60.6 44.45,61.1 45.95,55.5 "/>
<polygon fill-rule="evenodd" fill="#010101" points="143.101,49.95 144.25,50.9 145.45,52.1 145.601,52 145.101,51.55 
	144.649,51.15 143.7,50.35 143.101,49.95 "/>
<polygon fill-rule="evenodd" fill="#F26822" points="145.601,52 145.45,52.1 146.25,53.05 147.101,54.1 147.899,55.25 148.8,56.5 
	149.601,57.75 150.399,59.2 151.2,60.7 152.05,62.35 152.5,63.35 152.7,63.85 152.8,64.1 152.95,64.4 153.351,65.35 153.8,66.35 
	154.149,67.25 154.5,68.15 154.8,69 154.95,69.4 155.149,69.85 155.351,70.6 155.55,71.35 155.7,72.05 155.899,72.75 156,73.35 
	156.101,73.95 156.101,74.2 156.149,74.5 156.149,74.75 156.2,75.05 156.2,75.95 156.2,76.8 156.2,77.55 156.25,78.2 156.25,78.75 
	156.3,79.2 156.351,79.55 156.45,79.85 155.601,77.9 154.851,76.3 154.101,74.9 153.45,73.8 152.851,72.9 152.25,72.15 
	151.601,71.4 151,70.75 150.25,70.1 149.55,69.55 148.8,69 148.05,68.6 148.149,69.15 148.3,69.8 148.3,70.05 148.351,70.35 
	148.45,70.95 148.649,72.1 148.7,72.6 148.8,73.15 148.95,74.25 149,75.25 149.05,76.25 149.05,77.15 149.101,78.05 149,79.7 
	148.899,80.45 148.851,81.25 148.649,82.7 148.45,84.1 148.601,83.6 148.7,83.3 148.899,82.95 149.2,82.05 149.399,81.55 
	149.649,81 150,79.85 150.101,79.3 150.25,78.85 150.399,77.9 150.45,77.15 150.399,77.05 150.399,77 150.399,76.9 150.399,76.7 
	150.399,76.25 150.351,75.75 150.351,75.2 150.25,73.9 150.2,73.2 150.2,72.5 150.75,72.95 151.351,73.6 152.2,74.65 152.601,75.25 
	153.05,75.95 153.8,77.4 154.55,79.05 154.55,79.15 154.649,79.45 154.8,79.95 155.101,80.75 155.351,81.65 155.75,82.75 
	156.149,84.05 156.7,85.6 157.05,82.95 157.149,81.65 157.3,80.45 157.351,79.2 157.399,78.05 157.45,75.8 157.3,73.65 
	157.101,71.6 156.899,70.6 156.75,69.7 156.3,67.95 155.5,65.75 154.55,63.65 153.45,61.55 152.2,59.55 150.75,57.55 149.2,55.65 
	147.45,53.8 145.601,52 "/>
<polygon fill-rule="evenodd" fill="#010101" points="153.95,139.3 154.2,139.55 154,139.25 153.95,139.3 "/>
<polygon fill-rule="evenodd" fill="#F8981D" points="32,142.8 32.15,143.85 32.4,145.199 32.65,147.1 35.5,149.699 38.45,152.15 
	41.45,154.449 44.6,156.6 47.7,158.55 50.95,160.35 54.25,161.949 57.7,163.449 61.1,164.699 64.65,165.8 68.25,166.75 
	71.95,167.55 75.65,168.15 79.5,168.6 83.35,168.85 87.35,168.949 87.75,168.9 88.2,168.9 89.101,168.9 90.899,168.85 
	92.649,168.75 94.45,168.65 97.95,168.25 99.649,168 101.399,167.8 102.2,167.6 102.601,167.5 103.05,167.449 104.75,167.1 
	108.05,166.35 109.649,165.85 110.45,165.6 111.3,165.4 112.899,164.85 114.55,164.35 117.649,163.1 120.75,161.75 123.75,160.25 
	126.75,158.65 129.649,156.85 131.05,155.9 131.75,155.4 132.101,155.15 132.5,154.949 135.3,152.85 136.649,151.75 138.05,150.699 
	139.101,147.449 140.25,144.199 140.101,144.15 141.649,141.15 141.149,141.55 140.75,142 140.351,142.35 140.05,142.75 
	137.25,145.35 136.5,145.949 135.8,146.6 134.399,147.85 132.899,149 132.5,149.25 132.149,149.55 131.45,150.15 129.95,151.199 
	128.5,152.3 125.399,154.25 122.3,156.05 119.101,157.65 118.649,157.8 118.25,158 117.45,158.4 115.851,159.15 114.149,159.75 
	113.3,160.05 112.5,160.4 109.101,161.5 105.601,162.449 103.8,162.85 102.05,163.25 100.2,163.55 98.399,163.85 96.55,164.05 
	94.75,164.3 92.851,164.4 92.351,164.4 91.899,164.449 91,164.55 87.2,164.65 83.4,164.55 79.7,164.3 76.05,163.85 72.45,163.25 
	68.85,162.449 65.3,161.5 61.8,160.4 58.35,159.15 54.9,157.65 51.5,156.05 48.15,154.25 44.85,152.3 41.55,150.15 38.3,147.85 
	35.1,145.4 32,142.8 "/>
<polygon fill-rule="evenodd" fill="#CB6928" points="46.2,108.199 48.05,106.949 49.95,105.9 51.85,104.949 53.8,104.15 
	55.7,103.449 57.65,102.949 59.65,102.55 61.65,102.3 63.5,102.1 65.35,102.05 67,102 68.65,102.1 70.1,102.199 71.5,102.449 
	72.75,102.75 73.9,103.199 74.95,103.6 75.9,104 76.75,104.4 77.6,104.85 77.7,104.8 77.85,104.8 77.95,104.75 78.1,104.75 
	78.3,104.65 78.5,104.6 78.6,104.449 78.7,104.3 78.75,104.1 78.75,104 78.75,103.949 78.8,103.949 78.7,103.35 78.5,102.8 
	78.1,102.3 77.6,101.85 76.9,101.4 76.1,101 75.15,100.65 74.1,100.35 72.9,100.05 71.75,99.85 70.5,99.699 69.25,99.65 67.9,99.6 
	66.55,99.65 65.1,99.699 63.7,99.85 62.1,99.949 60.65,100.15 59.2,100.4 57.9,100.75 56.6,101.1 55.4,101.55 54.25,102 
	53.25,102.55 52.35,102.949 51.5,103.5 50.6,104.1 49.75,104.8 47.95,106.35 47.05,107.199 46.2,108.199 "/>
<polygon fill-rule="evenodd" fill="#CB6928" points="104.149,119.55 103.3,119.75 102.601,120.1 102.05,120.55 101.7,121.1 
	102.05,121 102.25,120.949 102.55,120.949 103.149,120.85 103.899,120.85 104.75,120.75 105.7,120.65 106.75,120.55 107.3,120.5 
	107.95,120.5 109.2,120.35 110.601,120.25 112.101,120.15 113.75,120.05 115.5,119.9 117.351,119.8 119.3,119.699 121.45,119.6 
	118.2,119.4 115.3,119.3 112.649,119.199 110.399,119.199 108.351,119.199 106.649,119.25 105.2,119.35 104.149,119.55 "/>
<polygon fill-rule="evenodd" fill="#CB6928" points="94.851,120.3 94.7,118.8 94.601,117.6 94.5,116.65 94.45,115.949 94.351,115.3 
	94.351,114.699 94.5,113.5 94.55,113.1 94.8,112.75 95.2,112.35 95.75,112 96.399,111.55 97.25,111.1 98.2,110.6 99.351,110.15 
	100.5,109.6 101.75,109.15 103,108.75 104.399,108.5 105.75,108.25 107.25,108.1 108.75,108 110.351,108 111.8,108 113.149,108 
	114.351,108 115.45,108 116.3,108 117.05,108 117.649,108 118.101,108.05 117.5,107.75 116.8,107.5 115.95,107.3 115,107.1 
	113.8,106.9 112.55,106.699 111.101,106.55 109.55,106.449 108.649,106.35 107.8,106.35 106.851,106.35 105.95,106.449 104,106.699 
	103,106.9 102.05,107.199 100.95,107.449 99.899,107.8 98.8,108.15 97.75,108.6 95.45,109.55 93.101,110.699 92.899,110.8 
	92.95,111.949 93.05,113.35 93.149,114.85 93.351,116.6 93.5,118.4 93.75,120.449 94,122.65 94.3,125.05 94.649,128.05 
	95.101,131.35 95.601,134.85 96.2,138.65 97.05,138.6 98.149,138.449 99.05,138.4 99.649,138.35 99.899,138.35 100.101,138.35 
	100.601,138.4 101.101,138.6 101.601,138.9 102.101,139.35 102.5,139.85 102.851,140.4 103,140.9 103.101,141.5 103,142.1 
	102.899,142.35 102.851,142.65 102.649,142.85 102.55,142.949 102.5,142.949 102.5,143 102.5,143.1 102.3,143.3 102.2,143.4 
	102.149,143.4 102.149,143.449 102.149,143.55 101.851,143.65 101.75,143.65 101.7,143.65 101.7,143.699 101.601,143.8 101.3,143.9 
	101,144.05 100.601,144.1 100.25,144.199 99.851,144.199 99.45,144.25 98.7,144.199 98.05,144.199 97.5,144.199 97.05,144.199 
	97,144.25 97,144.55 97,144.8 97,145 97.101,145.15 97.2,145.25 97.399,145.4 97.95,145.65 98.25,145.699 98.649,145.8 
	99.601,145.85 100.2,145.8 100.8,145.75 101.3,145.6 101.851,145.5 102.05,145.35 102.3,145.25 102.75,145.05 103.101,144.75 
	103.5,144.449 103.899,143.85 103.95,143.65 104.05,143.5 104.25,143.199 104.3,142.8 104.399,142.449 104.45,142.05 104.45,141.85 
	104.45,141.75 104.45,141.699 104.5,141.699 104.399,140.85 104.25,140.1 103.899,139.4 103.5,138.85 102.899,138.3 102.25,137.9 
	101.399,137.55 100.5,137.35 99.75,137.199 99.05,137.15 98.399,137.199 97.851,137.35 97.75,137.15 97.7,137.05 97.7,137 
	97.601,136.65 97.399,135.9 97.2,135.05 97,134.1 96.851,133.5 96.75,132.949 96.55,131.8 96.45,131.449 96.399,131.15 96.3,130.55 
	96.101,129.199 95.7,126.85 95.399,124.8 95.2,123.449 95.05,122.3 94.899,121.25 94.851,120.3 "/>
<path fill-rule="evenodd" fill="#010101" d="M101.601,123.3l-0.051,2l0.1,1.8l0.25,1.801l0.15,0.85l0.25,0.9l0.551,1.799l0.399,1.15
	l0.5,1.051l0.5,0.949l0.649,0.95l0.65,0.75l0.75,0.649l0.75,0.551l0.85,0.55l0.851,0.351l0.95,0.25l0.949,0.149l1.101,0.149
	l1.101-0.049l1.199-0.101l1.2-0.25l1.3-0.25l1.2-0.45l1.149-0.4l1.051-0.5l1-0.5l0.85-0.6l0.85-0.6l0.75-0.7l0.701-0.7l0.549-0.8
	l0.5-0.8l0.451-0.9v-0.15l0.049-0.1l0.101-0.199l0.2-0.4l0.25-1l0.199-1l0.101-1.051V127.9l0.05-0.5l-0.1-1.301l-0.15-1.3l-0.15-0.7
	l-0.1-0.65l-0.3-1.35l-3.101-0.35l-3.049-0.15l-3.051-0.05l-3,0.101l-3.05,0.199l-3,0.35l-3,0.451L101.601,123.3L101.601,123.3z
	 M102.8,127.25v-0.551l0.051-0.399l0.1-0.7v-0.449l0.1-0.201l5.25-0.75l5.35-0.5l5.451-0.299l5.6-0.051l0.15,0.9l0.1,1l0.1,2.05
	l-0.05,1.05l-0.101,0.2l-0.049,0.101v0.149l-0.101,0.5l-0.2,0.95l-0.3,0.85l-0.3,0.85l-0.4,0.75l-0.199,0.351l-0.15,0.399
	l-0.45,0.701l-0.45,0.699l-0.3,0.25l-0.25,0.301l-0.3,0.25l-0.25,0.299l-0.65,0.5l-0.6,0.5l-0.4,0.15l-0.35,0.2l-0.7,0.399
	L117.7,138l-0.801,0.3l-1.75,0.3l-0.799,0.1l-0.75,0.051l-1.5-0.1l-1.351-0.201l-1.351-0.5l-0.6-0.299l-0.55-0.351l-1.149-0.899
	l-0.951-1l-0.899-1.15l-0.75-1.1l-0.649-1.051l-0.451-0.949L103,130.199l-0.2-0.899l-0.1-0.851l0.05-0.799L102.8,127.25
	L102.8,127.25z"/>
<polygon fill-rule="evenodd" fill="#FFFFFF" points="107.149,127.6 107.149,127 107.3,126.55 107.45,126.15 107.8,125.85 
	106.7,125.9 105.75,126 104.899,126.1 104.25,126.3 103.649,126.449 103.25,126.699 102.95,126.949 102.8,127.25 102.75,127.65 
	102.7,128.449 102.8,129.3 103,130.199 103.399,131.15 103.851,132.1 104.5,133.15 105.25,134.25 106.149,135.4 107.101,136.4 
	108.25,137.3 108.8,137.65 109.399,137.949 110.75,138.449 112.101,138.65 113.601,138.75 114.351,138.699 115.149,138.6 
	116.899,138.3 117.7,138 118.5,137.699 119.2,137.3 119.55,137.1 119.95,136.949 120.55,136.449 121.2,135.949 121.45,135.65 
	121.75,135.4 122,135.1 122.3,134.85 122.75,134.15 123.2,133.449 123.351,133.05 123.55,132.699 123.95,131.949 124.25,131.1 
	124.55,130.25 124.75,129.3 124.851,128.8 124.851,128.65 124.899,128.55 125,128.35 125.05,127.3 124.351,126.9 123.7,126.6 
	123,126.3 122.3,126.1 120.75,125.75 119.899,125.6 119.101,125.55 118.2,125.449 117.3,125.449 116.351,125.449 115.45,125.55 
	114.45,125.6 113.45,125.75 112.399,125.9 111.399,126.15 111.8,126.5 111.8,126.6 111.851,126.85 111.851,127.199 111.899,127.65 
	111.851,127.65 111.851,127.699 111.851,127.8 111.851,128 111.75,128.4 111.55,128.75 111.351,129.15 110.95,129.449 
	110.75,129.55 110.649,129.6 110.601,129.699 110.45,129.699 110.351,129.75 110.149,129.85 109.899,129.85 109.7,129.9 
	109.149,129.85 108.7,129.8 108.25,129.699 107.95,129.65 107.649,129.449 107.45,129.3 107.25,129.1 107.149,128.9 107.149,128.35 
	107.149,128 107.149,127.75 107.149,127.6 "/>
<polygon fill-rule="evenodd" fill="#010101" points="107.8,125.85 107.45,126.15 107.3,126.55 107.149,127 107.149,127.6 
	107.149,127.75 107.149,128 107.149,128.35 107.149,128.9 107.25,129.1 107.45,129.3 107.649,129.449 107.95,129.65 108.25,129.699 
	108.7,129.8 109.149,129.85 109.7,129.9 109.899,129.85 110.149,129.85 110.351,129.75 110.45,129.699 110.601,129.699 
	110.649,129.6 110.75,129.55 110.95,129.449 111.351,129.15 111.55,128.75 111.75,128.4 111.851,128 111.851,127.8 111.851,127.699 
	111.851,127.65 111.899,127.65 111.851,127.199 111.851,126.85 111.8,126.6 111.8,126.5 111.399,126.15 111.101,126 110.75,125.9 
	110.351,125.85 109.899,125.85 109.8,126 109.649,126.15 109.649,126.449 109.8,126.85 109.8,127.05 109.8,127.35 109.7,127.699 
	109.601,128.15 109.05,128.05 108.7,127.8 108.45,127.4 108.399,126.85 108.5,126.4 108.7,125.9 108.601,125.35 108.149,125.5 
	107.8,125.85 "/>
<polygon fill-rule="evenodd" fill="#CDCCCC" points="108.601,125.35 108.7,125.9 109.8,126 109.899,125.85 110.351,125.85 
	110.75,125.9 111.101,126 111.399,126.15 112.399,125.9 113.45,125.75 114.45,125.6 115.45,125.55 116.351,125.449 117.3,125.449 
	118.2,125.449 119.101,125.55 119.899,125.6 120.75,125.75 122.3,126.1 123,126.3 123.7,126.6 124.351,126.9 125.05,127.3 
	124.95,125.25 124.851,124.25 124.7,123.35 119.101,123.4 113.649,123.699 108.3,124.199 103.05,124.949 102.95,125.15 
	102.95,125.6 102.851,126.3 102.8,126.699 102.8,127.25 102.95,126.949 103.25,126.699 103.649,126.449 104.25,126.3 104.899,126.1 
	105.75,126 106.7,125.9 107.8,125.85 108.149,125.5 108.601,125.35 "/>
<polygon fill-rule="evenodd" fill="#FFFFFF" points="109.8,126.85 109.649,126.449 109.649,126.15 109.8,126 108.7,125.9 
	108.5,126.4 108.399,126.85 108.45,127.4 108.7,127.8 109.05,128.05 109.601,128.15 109.7,127.699 109.8,127.35 109.8,127.05 
	109.8,126.85 "/>
<path fill-rule="evenodd" fill="#010101" d="M80.8,121.449l-0.45-0.85l-0.15-0.35L80.15,120H78.4l-1.8,0.15l-2,0.149l-2.05,0.351
	l-2.3,0.35l-2.35,0.5l-2.5,0.55l-2.6,0.7l-2.65,0.6l-2.25,0.6l-1.1,0.25l-0.95,0.301l-0.9,0.25l-0.75,0.3l-1.45,0.399l-0.65,0.201
	l-0.5,0.25l-0.5,0.149l-0.35,0.2l-0.35,0.15l-0.2,0.199l-0.1,2.301v2.25l0.15,2l0.15,1.049l0.35,1.101l0.5,1.649l0.8,1.75l0.85,1.5
	l0.45,0.701l0.5,0.649l1.05,1.101l0.55,0.5l0.65,0.5l1.25,0.699L58,144.65l0.75,0.25l1.45,0.299L61,145.3l0.85,0.05L62,145.3h0.2
	h0.4h0.8l1.55-0.101l0.7-0.1l0.15-0.05H66h0.4l0.7-0.101l0.15-0.049h0.2h0.4l1.3-0.25l1.3-0.25l1.2-0.351l1.2-0.351l1.05-0.5
	l1.05-0.5l0.45-0.299l0.5-0.25l0.45-0.301l0.5-0.25l0.4-0.35l0.45-0.301l0.8-0.649l0.35-0.399l0.4-0.351l0.7-0.75l0.3-0.55l0.35-0.5
	l0.55-1l0.45-1.1l0.2-0.551l0.25-0.5l0.1-0.6l0.05-0.301l0.1-0.25l0.1-0.6l0.05-0.3l0.1-0.25l0.05-1.2l0.05-1.199l-0.1-1.101
	l-0.05-1l-0.2-0.95L82.15,126l-0.35-1.65l-0.45-1.55L80.8,121.449L80.8,121.449z M79.25,121.199v0.25v0.051l0.05,0.15l0.05,0.25
	l0.1,0.399l0.1,0.45l0.15,0.6l0.2,0.65l0.25,0.85l0.2,0.95l0.1,0.45l0.15,0.5v0.15l0.05,0.199l0.1,0.4v0.15l0.05,0.199l0.1,0.35
	v0.25l0.05,0.301V129v0.1v0.051l0.05,0.1l-0.05,1.1l-0.15,1.1l-0.2,1l-0.15,0.5l-0.1,0.551l-0.2,0.449l-0.15,0.5l-0.15,0.201
	l-0.1,0.25l-0.2,0.5l-0.5,0.85l-0.55,0.9l-0.65,0.699l-0.7,0.7l-0.75,0.601l-0.4,0.299l-0.2,0.15l-0.15,0.2l-0.85,0.5l-0.9,0.55
	l-0.5,0.2l-0.25,0.101l-0.2,0.149l-1,0.45l-1.1,0.3l-0.6,0.149L69.7,142.4l-1.2,0.25l-1.2,0.25L66,143.05l-0.7,0.05l-0.65,0.1
	l-1.4,0.051H62.5l-0.7,0.05l-0.95-0.05l-0.9-0.1L59.1,143l-0.75-0.2l-0.8-0.3l-0.7-0.35l-1.25-0.801l-1.15-1.1l-0.95-1.301
	l-0.45-0.799l-0.35-0.801l-0.35-0.85l-0.25-0.9l-0.15-0.6l-0.3-1.2l-0.15-1.25l-0.15-1.3l-0.05-1.35l-0.05-0.701v-0.549v-0.9
	L56.3,126l5.25-1.5l2.6-0.7l2.7-0.55l5.45-0.95l1.95-0.351l1.8-0.299l1.65-0.25L79.25,121.199L79.25,121.199z"/>
<polygon fill-rule="evenodd" fill="#CDCCCC" points="79.25,121.449 79.25,121.199 77.7,121.4 76.05,121.65 74.25,121.949 
	72.3,122.3 66.85,123.25 64.15,123.8 61.55,124.5 56.3,126 51.25,127.75 51.25,128.65 51.25,129.199 51.3,129.9 51.35,131.25 
	51.5,132.55 51.65,133.8 51.95,135 52.7,133.85 53.65,132.9 54.65,132.05 55.8,131.35 56.95,130.699 58.3,130.199 59.7,129.85 
	61.25,129.6 61.2,129.5 61.2,129.35 61.2,129.1 61.25,128.8 61.3,128.4 61.45,128.1 61.65,127.75 62,127.449 62.3,127.1 
	62.6,126.85 63.2,126.6 63.05,127.199 63.05,127.75 63.1,128.199 63.3,128.6 63.5,128.9 63.8,129.15 64.15,129.3 64.65,129.449 
	65,129.199 65.25,129 65.45,128.8 65.6,128.65 65.6,128.449 65.55,128.3 65.4,128.15 65.25,128.05 65.05,127.8 64.95,127.65 
	64.8,127.6 65,127.199 65.8,127.3 66.45,127.5 66.9,127.75 67.25,128.1 67.9,127.8 68.85,127.65 70.1,127.55 71.65,127.55 
	73.5,127.55 75.65,127.699 78.1,127.9 80.9,128.199 80.8,127.85 80.75,127.65 80.75,127.5 80.65,127.1 80.6,126.9 80.6,126.75 
	80.45,126.25 80.35,125.8 80.15,124.85 79.9,124 79.7,123.35 79.55,122.75 79.45,122.3 79.35,121.9 79.3,121.65 79.25,121.5 
	79.25,121.449 "/>
<polygon fill-rule="evenodd" fill="#FFFFFF" points="81,129.25 80.95,129.15 80.95,129.1 80.95,129 80.95,128.75 80.9,128.449 
	80.9,128.199 78.1,127.9 75.65,127.699 73.5,127.55 71.65,127.55 70.1,127.55 68.85,127.65 67.9,127.8 67.25,128.1 67.25,128.15 
	67.35,128.3 67.5,128.55 67.6,128.9 67.7,129.449 67.7,130 67.65,130.199 67.65,130.449 67.55,130.6 67.5,130.8 67.3,131.1 
	67.05,131.25 66.9,131.4 66.75,131.6 66.6,131.6 66.5,131.65 66.2,131.75 65.8,131.8 65.55,131.8 65.35,131.85 65.25,131.85 
	64.3,131.75 63.45,131.55 62.7,131.199 62.1,130.75 61.75,130.4 61.5,130.1 61.3,129.8 61.25,129.6 59.7,129.85 58.3,130.199 
	56.95,130.699 55.8,131.35 54.65,132.05 53.65,132.9 52.7,133.85 51.95,135 52.1,135.6 52.35,136.5 52.7,137.35 53.05,138.15 
	53.5,138.949 54.45,140.25 55.6,141.35 56.85,142.15 57.55,142.5 58.35,142.8 59.1,143 59.95,143.15 60.85,143.25 61.8,143.3 
	62.5,143.25 63.25,143.25 64.65,143.199 65.3,143.1 66,143.05 67.3,142.9 68.5,142.65 69.7,142.4 70.25,142.199 70.85,142.05 
	71.95,141.75 72.95,141.3 73.15,141.15 73.4,141.05 73.9,140.85 74.8,140.3 75.65,139.8 75.8,139.6 76,139.449 76.4,139.15 
	77.15,138.55 77.85,137.85 78.5,137.15 79.05,136.25 79.55,135.4 79.75,134.9 79.85,134.65 80,134.449 80.15,133.949 80.35,133.5 
	80.45,132.949 80.6,132.449 80.8,131.449 80.95,130.35 81,129.25 "/>
<polygon fill-rule="evenodd" fill="#010101" points="64.8,127.6 64.95,127.65 65.05,127.8 65.25,128.05 65.4,128.15 65.55,128.3 
	65.6,128.449 65.6,128.65 65.45,128.8 65.25,129 65,129.199 64.65,129.449 64.15,129.3 63.8,129.15 63.5,128.9 63.3,128.6 
	63.1,128.199 63.05,127.75 63.05,127.199 63.2,126.6 62.6,126.85 62.3,127.1 62,127.449 61.65,127.75 61.45,128.1 61.3,128.4 
	61.25,128.8 61.2,129.1 61.2,129.35 61.2,129.5 61.25,129.6 61.3,129.8 61.5,130.1 61.75,130.4 62.1,130.75 62.7,131.199 
	63.45,131.55 64.3,131.75 65.25,131.85 65.35,131.85 65.55,131.8 65.8,131.8 66.2,131.75 66.5,131.65 66.6,131.6 66.75,131.6 
	66.9,131.4 67.05,131.25 67.3,131.1 67.5,130.8 67.55,130.6 67.65,130.449 67.65,130.199 67.7,130 67.7,129.449 67.6,128.9 
	67.5,128.55 67.35,128.3 67.25,128.15 67.25,128.1 66.9,127.75 66.45,127.5 65.8,127.3 65,127.199 64.8,127.6 "/>
<polygon fill-rule="evenodd" fill="#CB6928" points="78.3,118.35 78.2,118.25 78.05,118.25 77.8,118.15 77.45,118.15 76.7,118.05 
	76.15,118.05 75.2,118.05 74.15,118.1 73,118.199 71.8,118.4 70.45,118.6 69.1,118.85 67.6,119.15 66.05,119.55 64.2,119.949 
	62.55,120.4 61,120.85 59.6,121.35 58.25,121.8 57.1,122.3 56.05,122.8 55.1,123.35 55.9,123.449 56.25,123.25 56.7,123.1 
	57.65,122.8 58.75,122.5 60,122.199 61.3,121.8 62.8,121.5 63.55,121.3 64.4,121.15 66.15,120.85 67.3,120.55 68.4,120.35 
	70.5,119.949 71.45,119.75 72.35,119.55 74.05,119.25 74.75,119.05 75.4,118.949 76.6,118.699 77.1,118.6 77.55,118.5 77.95,118.4 
	78.3,118.35 "/>
<polygon fill-rule="evenodd" fill="#010101" points="77.45,152.15 76.75,151.35 76.15,150.6 76.75,151.6 77.45,152.55 78.1,153.449 
	78.8,154.3 79.4,155.05 80.1,155.75 81.5,157.05 82.8,158.05 83.45,158.449 84.15,158.85 85.45,159.35 86.15,159.55 86.85,159.699 
	88.15,159.699 89.45,159.5 90.75,159 91.399,158.699 92.101,158.35 92.7,157.9 93.399,157.4 94,156.85 94.7,156.25 95.3,155.55 
	96,154.8 96.601,154 97.3,153.15 97.5,152.699 97.75,152.3 97.95,151.85 98.2,151.449 96.8,152.8 95.5,154 94.149,155 
	92.851,155.85 91.5,156.5 90.2,157 88.899,157.3 87.6,157.449 86.3,157.35 85,157.15 83.7,156.75 82.45,156.199 81.15,155.4 
	79.95,154.5 78.65,153.4 77.45,152.15 "/>
<polygon fill-rule="evenodd" fill="#F8981D" points="88.3,162.75 88.95,162.65 89.55,162.6 89.75,162.5 89.851,162.449 90,162.449 
	90.45,162.35 90.75,162.1 91,161.9 91.149,161.6 91.149,161.449 91.2,161.35 91.149,161 91.05,160.8 90.851,160.699 90.601,160.6 
	90.05,160.75 89.649,160.949 89.149,161.05 88.55,161.15 88.15,161.15 87.75,161.199 87.3,161.199 86.9,161.25 86.8,161.199 
	86.75,161.199 86.65,161.199 86.35,161.15 86.15,161.05 86.05,161 86,161 85.6,160.85 85.1,160.6 84.55,160.4 83.95,160.1 
	83.35,159.8 82.8,159.5 82.4,159.35 82,159.25 81.75,159.25 81.5,159.25 81.35,159.35 81.25,159.5 81.25,159.8 81.4,160.15 
	81.55,160.4 81.9,160.699 82.75,161.25 84,161.949 84.65,162.25 84.95,162.35 85,162.35 85.1,162.4 85.3,162.5 85.85,162.699 
	86.45,162.85 86.95,162.9 87.45,162.9 87.85,162.85 88.3,162.75 "/>
</svg>
