<?xml version="1.0" encoding="utf-8"?>
<!-- Generator: Adobe Illustrator 13.0.0, SVG Export Plug-In . SVG Version: 6.00 Build 14948)  -->
<svg version="1.2" baseProfile="tiny" id="Layer_1" xmlns="http://www.w3.org/2000/svg" xmlns:xlink="http://www.w3.org/1999/xlink"
	 x="0px" y="0px" width="140.092px" height="128.787px" viewBox="0 0 140.092 128.787" xml:space="preserve">
<g>
	<g>
		<path fill="#F9CC6F" d="M52.871,20.878c0,0-19.315-0.807-36.823,25.958C1.142,69.629-1.253,103.581,3.268,112.792
			c2.509,5.109,4.527-0.714,11.32-4.724c6.791-4.01,16.751-5.154,25.806-10.596c9.055-5.441,13.58-9.451,13.58-9.451L52.871,20.878z
			"/>
		<path fill="#F28121" d="M2.179,113.323C0.687,110.287,0.009,105.395,0,99.27l0,0c0.009-14.82,4.302-36.665,15.039-53.1l0,0
			C31.74,20.567,50.393,19.634,52.677,19.667l0,0c0.157,0,0.25,0,0.282,0.008l0,0l-0.098,1.206l-1.201,0.021l1.201-0.021
			l0.098-1.206l1.088,0.073l1.142,68.806l-0.417,0.369c-0.05,0.039-4.63,4.104-13.759,9.58l0,0
			c-9.335,5.584-19.391,6.768-25.817,10.609l0,0c-4.837,2.691-6.566,6.484-9.833,6.88l0,0C3.87,115.972,2.91,114.831,2.179,113.323
			L2.179,113.323z M17.059,47.492C6.677,63.326,2.396,84.913,2.405,99.27l0,0c-0.009,5.905,0.755,10.629,1.938,12.984l0,0
			c0.669,1.34,1.006,1.331,1.02,1.331l0,0c0.535,0.397,3.631-3.488,8.606-6.556l0,0c7.153-4.178,17.021-5.29,25.792-10.588l0,0
			c7.424-4.464,11.719-7.903,12.998-8.975l0,0L51.68,22.123C47.396,22.455,31.705,25.122,17.059,47.492L17.059,47.492z"/>
	</g>
	<g>
		<path fill="#F7911E" d="M47.439,22.689c0,0-19.115,4.023-31.591,26.358C5.875,66.893,2.566,86.676,2.366,93.518
			c-0.119,4.131-0.003,17.701,1.611,19.417c1.613,1.721,3.424-0.573,4.026-0.954c0.604-0.379-0.297-10.566,4.02-22.086
			C16.854,77.017,26.917,69.6,26.917,69.6s8.049-29.207,10.463-32.834C39.793,33.14,47.439,22.689,47.439,22.689z"/>
	</g>
	<g>
		<path fill="#F7911E" d="M29.986,75.389c0,0-5.683,8.338-7.895,11.395c-2.214,3.056-4.024,7.064-4.024,7.064
			c2.416-2.481,5.838-6.299,8.052-8.018c2.211-1.717,7.644-5.154,7.644-5.154L29.986,75.389l-4.275-4.642
			c0,0-3.219,7.063-4.83,9.737c-1.606,2.672-5.631,9.354-4.02,7.638c1.609-1.719,5.428-7.638,7.644-9.546
			c2.216-1.909,4.227-4.199,4.227-4.199"/>
	</g>
	<g>
		<path fill="#F9CC6F" d="M87.24,22.086c0,0,19.314-0.804,36.821,25.958c14.908,22.792,17.303,56.745,12.781,65.957
			c-2.51,5.11-4.529-0.715-11.32-4.722c-6.791-4.01-16.752-5.156-25.807-10.598c-9.052-5.439-13.58-9.449-13.58-9.449L87.24,22.086z
			"/>
		<path fill="#F28121" d="M124.905,110.319c-6.434-3.842-16.484-5.027-25.811-10.609l0,0c-9.132-5.477-13.719-9.527-13.762-9.57l0,0
			l-0.418-0.377l1.112-67.697l0.011-1.103l1.102-0.083c0.034,0,0.127-0.013,0.275,0l0,0c2.275-0.029,20.922,0.891,37.652,26.507l0,0
			c10.723,16.423,15.016,38.283,15.024,53.091l0,0c-0.009,6.129-0.712,11.017-2.17,14.062l0,0c-0.735,1.511-1.7,2.645-3.192,2.664
			l0,0C131.456,116.803,129.716,113.016,124.905,110.319L124.905,110.319z M100.331,97.641c8.783,5.311,18.648,6.425,25.806,10.6
			l0,0c4.94,3.074,8.049,6.947,8.593,6.549l0,0c0.01,0,0.348,0.01,1.02-1.323l0,0c1.174-2.36,1.943-7.082,1.932-12.99l0,0
			c0.012-14.356-4.264-35.944-14.643-51.768l0,0c-14.639-22.35-30.314-25.039-34.615-25.372l0,0l-1.076,65.337
			C88.636,89.75,92.927,93.197,100.331,97.641L100.331,97.641z"/>
	</g>
	<g>
		<path fill="#F7911E" d="M92.671,23.898c0,0,19.115,4.024,31.596,26.358c9.969,17.846,13.277,37.626,13.478,44.47
			c0.118,4.131,0.002,17.702-1.611,19.419c-1.612,1.718-3.421-0.576-4.026-0.956c-0.604-0.378,0.297-10.564-4.022-22.086
			c-4.827-12.876-14.888-20.293-14.888-20.293s-8.051-29.208-10.465-32.834C100.314,34.35,92.671,23.898,92.671,23.898z"/>
	</g>
	<g>
		<path fill="#F7911E" d="M110.125,76.599c0,0,5.683,8.339,7.894,11.394c2.214,3.057,4.025,7.066,4.025,7.066
			c-2.414-2.481-5.838-6.3-8.052-8.02c-2.212-1.717-7.645-5.154-7.645-5.154L110.125,76.599l4.274-4.642c0,0,3.219,7.062,4.83,9.738
			c1.606,2.67,5.631,9.354,4.02,7.637c-1.605-1.72-5.428-7.637-7.645-9.546c-2.215-1.911-4.227-4.198-4.227-4.198"/>
	</g>
	<ellipse fill="#CCE5D1" cx="77.728" cy="122.963" rx="28.248" ry="5.823"/>
	<g>
		<path fill="#F16922" d="M96.882,104.504c-5.29-2.372-6.932,2.239-6.932,2.239s2.133-2.774,5.437-0.853
			c3.31,1.919,2.348,8.213-0.318,10.135c-1.411,1.017-2.965,1.221-4.069,1.212c0.326-4.843-5.262-12.777-10.159-16.88
			c-5.587-4.679-3.624-4.679-3.624-4.679l-15.543,0.454c0,0,0.753,3.018,0.152,8.903c-0.605,5.886-4.227,13.733-3.324,15.997
			c0.908,2.266,3.474,0.603,5.135-3.17c1.659-3.771,2.716-2.564,2.867-0.755c0.15,1.812-2.263,6.642,1.356,6.34
			c3.625-0.302,4.98-3.471,5.738-3.772c0.753-0.304,0.15,2.565,2.563,3.471c2.417,0.904,11.924,0.302,14.337-4.074
			c0.025-0.044,0.02-0.101,0.037-0.139c1.59,0.45,4.136,0.818,6.348-0.453C101.436,115.858,103.071,107.276,96.882,104.504z"/>
	</g>
	<g>
		<path fill="#F7911E" d="M113.437,67.358c0,16.227-19.461,29.378-43.465,29.378S26.509,83.584,26.509,67.358
			c0-19.683,16.701-51.512,42.662-51.512C95.351,15.846,113.437,43.463,113.437,67.358z"/>
		<path fill="#F28121" d="M25.292,67.352c0.075-20.198,16.824-52.521,43.879-52.72l0,0c27.115,0.106,45.445,28.306,45.468,52.72l0,0
			c-0.128,17.294-20.308,30.573-44.669,30.585l0,0C45.608,97.925,25.422,84.646,25.292,67.352L25.292,67.352z M39.083,34.916
			C31.806,45.119,27.706,57.84,27.715,67.352l0,0c0.029,15.156,18.605,28.15,42.255,28.172l0,0
			c23.639-0.021,42.211-13.016,42.252-28.172l0,0c-0.041-23.375-17.813-50.257-43.051-50.296l0,0c-0.005,0-0.014,0-0.025,0l0,0
			C56.701,17.056,46.368,24.698,39.083,34.916L39.083,34.916z"/>
	</g>
	<g>
		<polygon fill="#FFFFFF" points="36.338,78.665 37.545,78.161 36.398,77.725 37.37,76.528 35.448,76.717 35.598,75.235 
			34.622,75.903 34.094,74.823 33.375,76.292 31.814,75.299 31.999,76.645 30.813,76.528 31.667,77.578 29.979,78.285 
			31.648,78.915 30.813,79.938 32.067,79.814 31.926,81.205 33.391,80.205 34.094,81.643 34.663,80.475 35.709,81.143 
			35.522,79.753 37.37,79.938 		"/>
	</g>
	<g>
		<polygon fill="#FFFFFF" points="108.928,78.815 110.134,78.31 108.989,77.875 109.958,76.678 108.036,76.868 108.187,75.387 
			107.21,76.051 106.683,74.975 105.966,76.444 104.407,75.451 104.587,76.797 103.406,76.678 104.26,77.727 102.571,78.435 
			104.241,79.065 103.406,80.088 104.66,79.966 104.519,81.354 105.979,80.355 106.683,81.793 107.251,80.625 108.3,81.295 
			108.111,79.905 109.958,80.088 		"/>
	</g>
	<g>
		<path fill="#F28121" d="M106.915,72.34c-3.377-0.043-4.99-2.58-5.076-2.688l0,0l2.024-1.319c0.021-0.021,0.296,0.387,0.797,0.798
			l0,0c0.512,0.406,1.269,0.817,2.255,0.797l0,0c0.684,0,1.512-0.168,2.541-0.736l0,0c2.42-1.343,2.691-3.69,2.717-4.832l0,0
			c0-0.317-0.019-0.495-0.025-0.537l0,0l2.393-0.314c0.01,0.043,0.043,0.356,0.043,0.852l0,0c0.019,1.488-0.441,4.968-3.951,6.94
			l0,0c-1.312,0.725-2.555,1.04-3.66,1.04l0,0C106.95,72.34,106.933,72.34,106.915,72.34L106.915,72.34z M112.147,63.813
			c0,0,0,0.003,0,0.01l0,0l0,0V63.813L112.147,63.813z"/>
	</g>
	<g>
		<path fill="#F28121" d="M29.075,72.203c-3.528-1.956-3.977-5.454-3.958-6.942l0,0c0-0.512,0.057-0.836,0.057-0.879l0,0h0.009
			l2.38,0.377c0.009,0.013-0.035,0.146-0.035,0.502l0,0c0.019,1.154,0.292,3.488,2.721,4.836l0,0
			c1.029,0.567,1.853,0.734,2.532,0.747l0,0c1.947,0.038,3.069-1.604,3.079-1.612l0,0l2.011,1.328
			c-0.084,0.104-1.718,2.649-5.09,2.691l0,0C31.665,73.25,30.42,72.946,29.075,72.203L29.075,72.203z"/>
	</g>
	<g>
		<circle fill="#F16922" cx="48.542" cy="66.553" r="12.526"/>
	</g>
	<g>
		<path fill="#F16922" d="M104.382,66.252c0,6.918-5.607,12.525-12.528,12.525c-6.919,0-12.524-5.607-12.524-12.525
			c0-6.919,5.605-12.527,12.524-12.527C98.774,53.726,104.382,59.333,104.382,66.252z"/>
	</g>
	<g>
		<path fill="#2D1B0F" d="M99.095,69.653c0-0.01-0.646-7.673-6.688-7.477l0,0c-0.043,0-0.111,0-0.22,0l0,0
			c-5.156-0.062-7.307,7.277-7.318,7.299l0,0v0.01c-0.168,0.637-0.827,1.028-1.478,0.861l0,0c-0.638-0.18-1.028-0.84-0.86-1.479l0,0
			c0.072-0.033,2.077-8.704,9.583-9.103l0,0c0.063,0,0.156,0,0.293-0.009l0,0c8.565,0.198,9.089,9.719,9.103,9.729l0,0
			c0.043,0.672-0.461,1.247-1.121,1.289l0,0c-0.032,0.004-0.066,0.006-0.096,0.006l0,0C99.661,70.78,99.136,70.282,99.095,69.653
			L99.095,69.653z"/>
	</g>
	<g>
		<path fill="#2D1B0F" d="M55.482,69.794c0-0.011-0.648-7.666-6.693-7.479l0,0c-0.042,0-0.105,0.01-0.216,0.01l0,0
			c-5.167-0.062-7.31,7.271-7.326,7.3l0,0h0.016c-0.183,0.639-0.842,1.026-1.483,0.858l0,0c-0.646-0.167-1.031-0.837-0.858-1.477
			l0,0c0.077-0.029,2.066-8.691,9.585-9.101l0,0c0.054,0,0.143,0,0.282,0l0,0c8.568,0.188,9.091,9.709,9.109,9.73l0,0
			c0.043,0.658-0.467,1.235-1.126,1.288l0,0c-0.027,0.002-0.053,0.002-0.079,0.002l0,0C56.053,70.927,55.523,70.438,55.482,69.794
			L55.482,69.794z"/>
	</g>
	<g>
		<path fill="#F28121" d="M65.445,15.393c0,0-0.303-1.658-2.867-3.622c-2.566-1.962-6.036-2.414-6.036-2.414s3.319,0,6.489,0.904
			c3.169,0.905,4.374,1.962,4.374,1.962s0.153-3.622-2.714-6.338c-2.866-2.717-7.396-4.226-7.396-4.226s7.396,0.152,11.169,3.169
			c3.771,3.018,4.979,5.735,4.979,5.735s2.265-4.074,1.964-6.338C75.103,1.962,74.802,0,74.802,0s4.225,6.037,4.074,10.716
			c-0.149,4.677-0.752,6.186-0.752,6.186L65.445,15.393z"/>
	</g>
	<path fill="#2D1B0F" d="M75.632,74.249c0-1.121-2.229-2.035-4.981-2.035c-2.749,0-4.98,0.914-4.98,2.035
		c0,1.041,1.916,1.891,4.375,2.014v3.561c-1.772-0.031-2.295-0.137-2.295-0.117c-0.653-0.115-1.286,0.336-1.388,0.996
		c-0.107,0.66,0.343,1.277,1.003,1.383h-0.009c0.093,0.021,0.977,0.156,3.499,0.156c0.084,0,0.127,0,0.127,0
		c2.942-0.062,2.977-0.008,3.687-0.324c0.566-0.346,0.749-1.089,0.407-1.656c-0.287-0.471-0.85-0.672-1.358-0.527v-0.004
		c-0.015,0.008-0.616,0.093-2.456,0.093v-3.56C73.722,76.137,75.632,75.288,75.632,74.249z"/>
	<g>
		<path fill="#FFFFFF" d="M70.816,73.155c0.025,0.277-0.711,0.57-1.645,0.651c-0.933,0.085-1.712-0.072-1.74-0.348
			c-0.025-0.278,0.717-0.572,1.652-0.653C70.015,72.721,70.789,72.88,70.816,73.155z"/>
	</g>
</g>
</svg>
