<?xml version="1.0" encoding="utf-8"?>
<!-- Generator: Adobe Illustrator 13.0.0, SVG Export Plug-In . SVG Version: 6.00 Build 14948)  -->
<svg version="1.2" baseProfile="tiny" id="Layer_1" xmlns="http://www.w3.org/2000/svg" xmlns:xlink="http://www.w3.org/1999/xlink"
	 x="0px" y="0px" width="110.986px" height="109.765px" viewBox="0 0 110.986 109.765" xml:space="preserve">
<g>
	<g>
		<path fill="#EFF4D4" d="M3.131,40.482c0.441,7.261-4.585,19.05-0.353,29.986c5.279,13.633,16.446,13.174,18.696,19.756
			c4.588,13.405,31.269,26.829,46.567,11.995c11.643-11.289,22.578-7.055,31.046-11.289c10.271-5.137,11.528-17.984,10.582-25.4
			c-2.116-16.581-10.098-14.484-9.17-36.688c0.703-16.934-18.699-32.458-37.396-26.46c-17.198,5.517-20.108,7.407-36.69,6.351
			C17.253,8.146,1.719,17.199,3.131,40.482z"/>
		<path fill="#CDD1AA" d="M51.476,109.765c-13.67-0.062-27.552-9.358-31.003-19.202l0,0c-1.477-5.579-13.119-5.636-18.684-19.712
			l0,0C0.445,67.412,0,63.913,0,60.532l0,0c0.012-7.395,2.114-14.349,2.095-19.092l0,0c0-0.306-0.006-0.599-0.022-0.885l0,0H2.069
			c-0.067-1.034-0.103-2.027-0.096-2.999l0,0C1.992,16.578,16.127,7.676,25.562,7.646l0,0c0.311,0,0.618,0.007,0.912,0.029l0,0
			c2.893,0.179,5.372,0.277,7.562,0.277l0,0c10.239-0.009,14.489-2.009,28.739-6.577l0,0C65.677,0.437,68.606,0,71.478,0l0,0
			c15.928,0.04,30.043,13.19,30.095,27.941l0,0c0,0.312-0.01,0.624-0.02,0.946l0,0c-0.057,1.189-0.076,2.309-0.076,3.369l0,0
			c0.015,9.184,1.736,13.278,3.757,17.256l0,0c2.031,3.967,4.478,7.88,5.488,15.892l0,0c0.153,1.294,0.256,2.753,0.265,4.31l0,0
			c0,7.547-2.36,17.59-11.43,22.162l0,0c-9.178,4.42-19.538,0.154-30.777,11.102l0,0c-4.97,4.815-11.118,6.788-17.275,6.787l0,0
			C51.495,109.765,51.484,109.765,51.476,109.765L51.476,109.765z M4.209,41.44c-0.021,5.281-2.102,12.07-2.091,19.092l0,0
			c0,3.199,0.422,6.416,1.643,9.553l0,0c4.996,13.181,15.686,12.213,18.714,19.798l0,0c2.865,8.637,16.29,17.832,29,17.77l0,0
			c5.732-0.006,11.274-1.794,15.826-6.195l0,0c12.045-11.626,23.554-7.427,31.315-11.475l0,0
			c7.972-3.955,10.244-13.07,10.248-20.269l0,0c0-1.465-0.099-2.839-0.243-4.05l0,0c-0.996-7.679-3.182-11.092-5.269-15.188l0,0
			c-2.107-4.09-4.008-8.791-3.993-18.219l0,0c0-1.087,0.018-2.24,0.081-3.455l0,0c0.01-0.288,0.017-0.574,0.01-0.86l0,0
			C99.426,14.59,86.254,2.145,71.478,2.121l0,0c-2.658,0-5.366,0.397-8.055,1.271l0,0c-14.096,4.518-18.785,6.68-29.386,6.674l0,0
			c-2.257,0-4.768-0.093-7.69-0.276l0,0c-0.257-0.019-0.52-0.03-0.784-0.03l0,0C17.341,9.783,4.098,17.616,4.085,37.557l0,0
			c0.008,0.927,0.029,1.875,0.098,2.853l0,0L3.127,40.48l1.057-0.055C4.201,40.755,4.209,41.091,4.209,41.44L4.209,41.44z"/>
	</g>
	<g>
		<radialGradient id="SVGID_1_" cx="55.335" cy="53.5229" r="65.7568" gradientUnits="userSpaceOnUse">
			<stop  offset="0" style="stop-color:#EFCE16"/>
			<stop  offset="1" style="stop-color:#EC9922"/>
		</radialGradient>
		<path fill="url(#SVGID_1_)" d="M55.872,78.584c-13.326,0-24.165-10.844-24.165-24.164c0-13.326,10.839-24.168,24.165-24.168
			c13.323,0,24.165,10.842,24.165,24.168C80.037,67.74,69.195,78.584,55.872,78.584L55.872,78.584z"/>
		<path fill="#F7B52F" d="M55.872,30.605c13.151,0,23.812,10.661,23.812,23.812c0,13.152-10.661,23.813-23.812,23.813
			c-13.152,0-23.814-10.661-23.814-23.813C32.058,41.267,42.72,30.605,55.872,30.605 M55.872,29.898
			c-13.519,0-24.519,10.998-24.519,24.52c0,13.518,11,24.52,24.519,24.52s24.519-11.002,24.519-24.52
			C80.391,40.896,69.391,29.898,55.872,29.898L55.872,29.898z"/>
	</g>
	<path fill="#FCF7CB" d="M37.525,43.128c0.653-1.301,4.06-5.292,7.764-7.231c3.703-1.939,4.585,0.529,3.703,1.409
		c-0.881,0.884-5.597,3.918-7.055,5.822C39.645,46.127,36.116,45.949,37.525,43.128z"/>
	<path fill="#FCF7CB" d="M51.638,33.78c-0.572,1.147,1.59,1.94,3.175,1.587c1.589-0.354,1.94-2.47,0.353-2.646
		C53.58,32.544,51.991,33.074,51.638,33.78z"/>
	<radialGradient id="SVGID_2_" cx="62.5732" cy="55.8301" r="0" gradientUnits="userSpaceOnUse">
		<stop  offset="0" style="stop-color:#EFCE16"/>
		<stop  offset="1" style="stop-color:#EC9922"/>
	</radialGradient>
	<path fill="url(#SVGID_2_)" stroke="#F7B52F" stroke-width="0.25" d="M62.573,55.83"/>
	<radialGradient id="SVGID_3_" cx="72.6299" cy="49.126" r="0" gradientUnits="userSpaceOnUse">
		<stop  offset="0" style="stop-color:#EFCE16"/>
		<stop  offset="1" style="stop-color:#EC9922"/>
	</radialGradient>
	<path fill="url(#SVGID_3_)" stroke="#F7B52F" stroke-width="0.25" d="M72.63,49.126"/>
	<g>
		<path fill="#392A13" d="M63.335,63.265c-0.315-0.715,0.006-1.543,0.72-1.86l0,0l11.357-5.029c0.715-0.319,1.548,0.005,1.866,0.719
			l0,0c0.311,0.715-0.013,1.544-0.719,1.858l0,0L65.2,63.983c-0.189,0.082-0.382,0.121-0.575,0.121l0,0
			C64.083,64.104,63.57,63.79,63.335,63.265L63.335,63.265z"/>
	</g>
	<g>
		<path fill="#392A13" d="M47.719,64.854l-12.063-2.962c-0.761-0.188-1.223-0.949-1.036-1.703l0,0
			c0.189-0.762,0.95-1.224,1.706-1.035l0,0l12.062,2.957c0.761,0.184,1.224,0.953,1.036,1.706l0,0
			c-0.157,0.646-0.738,1.074-1.371,1.074l0,0C47.944,64.891,47.829,64.878,47.719,64.854L47.719,64.854z"/>
	</g>
	<g>
		<path fill="#392A13" d="M55.919,71.712c-2.461,0-5.398-0.269-5.398-1.532c0-1.531,2.016-3.111,5.873-3.177
			c4.215,0,6.002,1.785,6.002,3.054c0,1.084-1.756,1.576-5.874,1.649L55.919,71.712L55.919,71.712z"/>
		<path fill="#E5A32A" d="M56.634,67.354c3.912,0,5.409,1.731,5.409,2.704c0,0.764-1.646,1.229-5.525,1.295
			c-0.199,0.002-0.397,0.003-0.589,0.003c-3.172,0-5.057-0.459-5.057-1.177c0-1.285,1.844-2.763,5.525-2.825
			C56.479,67.354,56.556,67.354,56.634,67.354 M56.634,66.647h-0.249c-4.083,0.072-6.218,1.828-6.218,3.532
			c0,0.464,0,1.882,5.762,1.882l0.599-0.004c4.477-0.075,6.222-0.636,6.222-1.999C62.749,68.74,61.09,66.647,56.634,66.647
			L56.634,66.647z"/>
	</g>
	<g>
		<path fill="#CD8A2A" d="M58.572,72.651c0,0.104-0.554,0.165-1.861,0.172c-1.186,0.009-1.9-0.055-1.9-0.156
			c0-0.171,0.62-0.368,1.862-0.374C58.049,72.281,58.572,72.52,58.572,72.651z"/>
	</g>
	<path fill="#EFF4D4" d="M52.917,67.954c0,0,0.055,1.526,1.189,1.808c1.14,0.282,1.501-0.306,1.854-0.88
		c0.222-0.359,0.177-0.75,0.177-0.75s0.137,1.021,1.24,1.421c0.832,0.298,1.434,0.05,1.804-0.715
		c0.197-0.415,0.351-1.148,0.351-1.148s-1.057-0.395-3.134-0.335C54.106,67.421,52.917,67.954,52.917,67.954z"/>
</g>
</svg>
