<?xml version="1.0" encoding="utf-8"?>
<!-- Generator: Adobe Illustrator 13.0.0, SVG Export Plug-In . SVG Version: 6.00 Build 14948)  -->
<svg version="1.2" baseProfile="tiny" id="Layer_1" xmlns="http://www.w3.org/2000/svg" xmlns:xlink="http://www.w3.org/1999/xlink"
	 x="0px" y="0px" width="101.5px" height="164.823px" viewBox="0 0 101.5 164.823" xml:space="preserve">
<path fill="#5D1B10" d="M62.012,74.5c1.177-1.537,2.023-3.797,1.7-5.711c-3.801-0.197-6.032,4.905-7.53,7.711
	c-0.468,0.876-0.835,1.388-1.254,1.813C54.745,69.649,54.5,61.004,54.5,52.833l-7,5.667c0.003,7.065-0.079,14.172-0.192,21.295
	c-3.107-3.595-6.205-11.065-8.307-12.819c-1.878,1.842,1.781,7.943,2.743,9.774c1.681,3.2,3.457,6.465,5.454,9.492
	c-0.117,6.301-0.248,12.609-0.372,18.915c-2.411-2.439-5.178-4.551-6.911-7.57c-0.64-0.055-1.211-0.035-1.851-0.012
	c0.867,4.811,5.283,10.318,8.63,14.693c-0.078,4.416-0.148,8.83-0.194,13.231c-0.084,8.021-1.375,16.198-2.002,24.147
	c-0.45,5.719-3.684,6.982-5.948,11.75c2.615-0.267,6.862-0.797,9.284-1.897c1.037,2.48,1.84,3.403,3.703,5.323
	c-0.034-1.926,2.166-4.092,2.297-5.99c2.474,1.661,5.421,2.835,7.666,4.667c-5.666-9-7.439-39.276-6.666-56
	c0.339-7.334,0.326-15.081,0.206-22.897c0.601-1.01,1.19-1.984,1.71-2.902C58.35,78.869,60.136,76.951,62.012,74.5z"/>
<path fill="#42140F" d="M54.034,158.961c2.433,1.593,5.28,2.755,7.466,4.539c-5.666-9-7.439-39.276-6.666-56
	c0.339-7.334,0.326-15.081,0.206-22.897c0.601-1.01,1.19-1.984,1.71-2.902c1.6-2.832,3.386-4.749,5.262-7.2
	c1.177-1.537,2.023-3.797,1.7-5.711c-3.801-0.197-6.032,4.905-7.53,7.711c-0.468,0.876-0.835,1.388-1.254,1.813
	c-0.13-6.155-0.287-12.293-0.37-18.266L51.167,61.5c0.079,27.802-1.656,55.878,0.648,83.649
	C52.196,149.737,52.446,154.591,54.034,158.961z"/>
<path fill="#75C044" d="M90.752,32.749C91.233,31.251,91.5,29.658,91.5,28c0-8.561-6.939-15.5-15.5-15.5
	c-3.15,0-6.076,0.945-8.522,2.56C67.242,6.705,60.412,0,52,0c-8.127,0-14.78,6.257-15.436,14.215
	c-2.12-1.089-4.517-1.715-7.064-1.715C20.939,12.5,14,19.439,14,28c0,1.403,0.203,2.755,0.553,4.048C6.436,32.54,0,39.259,0,47.5
	C0,56.061,6.939,63,15.5,63c2.299,0,4.473-0.514,6.435-1.411C23.556,68.416,29.677,73.5,37,73.5c6.189,0,11.516-3.636,14-8.881
	c2.484,5.245,7.811,8.881,14,8.881c7.247,0,13.315-4.981,15.012-11.702C81.854,62.571,83.877,63,86,63c8.561,0,15.5-6.939,15.5-15.5
	C101.5,40.598,96.986,34.756,90.752,32.749z"/>
<path fill="#75C044" d="M36.5,97.167c-1.104,2.299-3.796,3.771-5.631,0.724c-1.722-2.858,1.562-5.295,4.154-3.787
	c-4.375-3.696,5.066-8.103,4.595-0.984c0.283-4.276,6.526-0.89,6.056,2.122c-0.353,2.253-2.403,1.259-3.678,2.16
	c-1.065,0.754-0.42,2.152-2.356,2.23C38.25,99.688,36.991,98.33,36.5,97.167z"/>
<circle fill="#FBF067" cx="15.667" cy="46.667" r="3.167"/>
<circle fill="#FBF067" cx="33.833" cy="59.167" r="3.167"/>
<circle fill="#FBF067" cx="39.167" cy="35.167" r="3.167"/>
<circle fill="#FBF067" cx="24.5" cy="23.833" r="3.167"/>
<circle fill="#FBF067" cx="50.833" cy="11.833" r="3.167"/>
<circle fill="#FBF067" cx="79.5" cy="27.833" r="3.167"/>
<circle fill="#FBF067" cx="60.5" cy="39.5" r="3.167"/>
<circle fill="#FBF067" cx="67.167" cy="61.833" r="3.167"/>
<circle fill="#FBF067" cx="90.167" cy="49.167" r="3.167"/>
</svg>
