<?xml version="1.0" encoding="utf-8"?>
<!-- Generator: Adobe Illustrator 13.0.0, SVG Export Plug-In . SVG Version: 6.00 Build 14948)  -->
<svg version="1.2" baseProfile="tiny" id="Layer_1" xmlns="http://www.w3.org/2000/svg" xmlns:xlink="http://www.w3.org/1999/xlink"
	 x="0px" y="0px" width="140.612px" height="46.576px" viewBox="0 0 140.612 46.576" xml:space="preserve">
<path fill="#89C541" d="M3.073,46.576h136.201c0.728-1.169,1.195-2.44,1.308-3.817c0.735-9.033-12.121-11.269-17.812-6.4
	c9.776-10.213-4.902-19.397-12.897-10.684c0.031-4.743,1.297-9.394-4.119-11.292c-4.438-1.556-12.497,2.877-13.915,7.325
	C96.937,7.494,76.312,6.79,76.423,16.522c-1.22-4.483,0.014-9.966-5.172-12.444c-4.8-2.293-12.533,0.418-12.678,6.295
	c0.706-5.82-4.396-9.498-9.818-9.833c-7.518-0.464-8.837,4.328-10.037,9.981C37.318,5.08,35.862-2.097,28.574,0.578
	c-7.096,2.604-4.229,9.998-2.286,15.262C14.009,5.028,4.962,18.89,11.852,31.172c-2.399-4.277-9.906,0.107-11.219,2.877
	c-1.724,3.635,0.406,9.402,2.407,12.479C3.051,46.545,3.062,46.559,3.073,46.576z"/>
</svg>
