<?xml version="1.0" encoding="utf-8"?>
<!-- Generator: Adobe Illustrator 13.0.0, SVG Export Plug-In . SVG Version: 6.00 Build 14948)  -->
<svg version="1.2" baseProfile="tiny" id="Layer_1" xmlns="http://www.w3.org/2000/svg" xmlns:xlink="http://www.w3.org/1999/xlink"
	 x="0px" y="0px" width="163.861px" height="64.429px" viewBox="0 0 163.861 64.429" xml:space="preserve">
<path fill="#89C541" d="M163.856,64.429c0.159-13.218-3.443-30.758-6.624-42.564c-7.46-0.403-10.037,10.099-15.116,12.474
	c-1.21-8.286-5.58-16.437-6.585-24.374c-7.044,8.182-10.819,18.82-15.694,28.259c-5.608-9.667-7.536-22.078-12.52-32.257
	c-3.742,11.398-8.479,22.817-12.128,34.404c-3.95-4.672-7.982-21.093-7.957-27.755c-6.634,7.564-12.884,15.265-15.73,24.941
	C67.996,26.991,62.176,16.95,57.984,6.634c-6.026,9.288-6.943,23.516-7.451,34.239c-4.977-5.366-7.615-13.778-13.615-23.111
	c-2.666,8-9.239,18.118-8.884,26.478c-4.357-13.007-8.51-55.163-10.666-41.575c0.884-5.57-9.276,17.097-10.032,20.43
	C6.102,28.538-0.14,52.88,0.002,58.429c0.049,1.906,0.611,3.973,1.522,6H163.856z"/>
</svg>
