<?xml version="1.0" encoding="utf-8"?>
<!-- Generator: Adobe Illustrator 13.0.0, SVG Export Plug-In . SVG Version: 6.00 Build 14948)  -->
<svg version="1.2" baseProfile="tiny" id="Layer_1" xmlns="http://www.w3.org/2000/svg" xmlns:xlink="http://www.w3.org/1999/xlink"
	 x="0px" y="0px" width="155.943px" height="239.052px" viewBox="0 0 155.943 239.052" xml:space="preserve">
<g>
	<path fill="#FED93B" d="M71.328,191.597c-6.059,6.637-0.821,23.698-0.375,32.156c-6.063,0.408-10.075,9.717-4.189,13.692
		c4.532,3.062,14.42,1.636,17.917-3.341c2.851-4.058,1.258-13.212,1.229-18.358c-0.049-8.758,0.047-17.32-0.824-26.172"/>
	<path fill="#FED93B" d="M131.356,180.391c8.277,3.362,10.845,21.092,14.051,28.943c5.624-2.28,13.2,4.393,9.604,10.561
		c-2.768,4.751-12.266,7.777-17.533,4.801c-4.293-2.429-6.766-11.41-8.934-16.079c-3.69-7.947-7.429-15.655-10.42-24.049"/>
	<path fill="#EE7FB3" d="M41.655,196.843c0.035,2.531,2.914,6.64,4.556,2.729c0.905,2.156,3.06,3.939,3.862,0.666
		c1.154,2.587,2.388,3.921,4.02,0.886c0.44,2.788,4.256,3.17,4.16-0.088c0.659,2.156,4.19,2.334,3.249-0.477
		c1.31,1.573,3.859,1.008,3.496-1.334c0.894,3.292,4.025,1.364,3.592-1.411c0.759,1.753,3.615,2.396,3.91-0.043
		c0.248,1.666,3.089,4.733,3.219,1.437c0.475,1.658,2.578,4.25,3.348,1.199c0.491,2.54,5.141,3.872,4.355,0.556
		c1.699,1.672,4.252,1.169,3.678-1.824c0.518,2.99,3.328,0.622,2.748-1.997c1.422,2.509,5.013,1.318,4.475-1.516
		c0.632,3.064,3.621,1.531,3.836-0.954c0.044,2.468,2.817,4.362,2.923,1.007c0.064,1.199,0.329,3.84,1.96,3.904
		c1.447,0.058,2.179-2.241,1.924-3.049c0.199,0.759,1.555,2.429,2.619,2.214c1.2-0.244,1.07-1.821,0.998-2.885
		c1.934,2.408,3.08,1.859,2.669-1.091c0.804,1.271,4.277,2.712,3.401-0.154c1.75,2.613,3.582-0.573,3.18-2.513
		c0.211,4.59,4.059,2.69,3.281-1.305c-1.674,3.416,3.337,4.504,2.667,0.519c0.784,3.448,2.985,3.19,3.985,0.185
		c0.23,1.184,1.049,2.387,2.383,2.251c1.449-0.148,1.392-1.423,1.547-2.814c1.674,3.155,2.875,2.66,3.844-0.45
		c1.757,3.52,3.747,0.129,3.156-2.494c1.828,3.267,4.34,2.415,3.612-0.812c1.349,1.99,4.596,2.911,5.298-0.187
		c0.397-1.755-1.236-3.531-2.349-4.581c-3.431-3.241-6.525-2.312-11.048-2.215c-4.467,0.096-7.755,0.06-11.897,1.993
		c-4.214,1.967-8.308,4.95-12.99,5.628c-5.197,0.752-10.471,0.388-15.606,1.757c-4.985,1.329-9.715,3.394-14.816,4.29
		c-6.815,1.198-13.381,0.986-20.037-0.617c-3.164-0.763-4.539-0.556-7.317,0.906c-2.863,1.507-4.843,0.871-8.1,0.357"/>
	<path fill="#F1A0C5" d="M141.919,168.132c-3.34-10.012-6.393-20.15-10.311-29.957c-4.391-10.988-8.799-22.496-14.454-32.89
		c-2.244-4.125-6.04-11.578-8.675-15.352l2.962,5.021c-1.353-2.29-1.661-3.667-4.054-4.584c-2.971-1.14-5.089,0.901-7.816,2.115
		c-3.436,1.529-7.179,2.411-10.525,4.351c-2.38,1.38-4.447,2.723-6.186,4.22c-2.063-1.002-4.406-1.771-7.061-2.494
		c-3.731-1.019-7.576-0.912-11.289-1.51c-2.947-0.475-5.517-1.905-8.098-0.042c-2.076,1.5,0.792-1.467,0.072,1.092l-1.959-2.538
		c-0.962,2.631-1.673,9.924-3.731,18.364c-2.805,11.497-4.117,23.75-5.546,35.496c-1.275,10.482-1.627,21.065-2.291,31.599
		c-0.354,5.632-2.43,12.805-0.812,18.284c6.023-5.27,10.085,1.443,16.063,0.926c6.189-0.536,9.562-6.322,16.812-4.705
		c2.598,0.58,4.927,2.603,7.535,3.023c3.17,0.512,4.148-1.154,5.953-2.899c1.057-0.687,2.068-1.531,3.027-1.996
		c1.084-0.523,2.161-0.888,3.248-1.069c1.097-0.103,2.23-0.026,3.412,0.202c1.047,0.202,2.241,0.761,3.439,1.153
		c2.191,1.225,3.563,2.584,6.496,1.278c2.413-1.075,4.146-3.627,6.51-4.853c6.594-3.421,11.336,1.308,17.456,0.239
		c5.911-1.031,8.118-8.561,15.29-5.011C147.548,179.887,143.704,173.486,141.919,168.132z"/>
	
		<ellipse transform="matrix(0.9916 -0.1292 0.1292 0.9916 -11.7761 11.4505)" fill="#EFC821" cx="82.382" cy="96.506" rx="20.871" ry="23.272"/>
	<path fill="#EE7FB3" d="M103.94,124.226c1.281-2.406,5.666,2.242,6.482,3.336c-0.154-1.756,0.932-9.594,3.234-5.93
		c1.408,2.239-0.279,5.222-2,6.718c0.729,1.165,3.438,8.708,1.689,9.666c-1.773,0.971-3.039-6.436-3.471-7.25
		C108.995,129.101,102.714,126.533,103.94,124.226z"/>
	<path fill="#EE7FB3" d="M71.279,90.63c5.852-1.316,12.222-2.934,18.208-3.173c3.638-0.146,8.781-0.79,12.303,1.003
		c-3.508-9.842-12.66-16.302-22.414-15.031c-9.948,1.295-17.233,10.203-17.863,20.893l1.042-1.432
		C65.163,91.792,68.458,91.265,71.279,90.63z M104.761,91.36c-0.7-1.352-1.737-2.272-2.971-2.9c0.604,1.691,1.045,3.48,1.288,5.349
		c1.659,12.745-6.26,24.284-17.69,25.773c-11.43,1.489-22.042-7.636-23.702-20.381c-0.216-1.653-0.267-3.286-0.173-4.879
		l-2.511,3.453c0.287,5.596,3.67,10.868,6.606,15.43c2.924,4.543,4.654,6.586,9.798,8.678c9.467,3.851,19.039-0.576,25.205-8.339
		c2.271-2.862,4.039-6.6,4.73-10.169C106.003,99.962,106.396,94.522,104.761,91.36z"/>
	<path fill="#FED93B" d="M64.264,13.187c0.114-2.062-2.361-4.988-3.139-7.302c1.902,1.321,3.968,2.847,5.649,4.328
		C67.129,6.82,67.768,3.136,68.425,0c0.745,2.96,1.842,6.562,3.497,9.058c0.667-2.399,2.986-3.876,4.938-5.195
		c0.025,3.652,3.076,6.979,3.19,10.256c0.343,9.85-12.534,7.651-18.175,6.457"/>
	<path fill="#FED93B" d="M28.884,20.527c-6.979,0.909-11.9,7.304-10.991,14.284c0.909,6.979,7.304,11.9,14.284,10.991
		c6.98-0.909,11.9-7.305,10.991-14.284C42.258,24.539,35.863,19.618,28.884,20.527z M115.331,9.266
		c-6.979,0.909-11.9,7.304-10.991,14.283c0.909,6.98,7.305,11.901,14.284,10.992c6.979-0.909,11.9-7.305,10.99-14.284
		C128.706,13.277,122.311,8.356,115.331,9.266z"/>
	<path fill="#F89E25" d="M31.319,26.356c-4.45,0.58-7.588,4.658-7.009,9.108c0.58,4.451,4.658,7.588,9.108,7.009
		c4.451-0.58,7.589-4.658,7.009-9.108C39.848,28.915,35.77,25.777,31.319,26.356z M114.47,15.525
		c-4.449,0.579-7.588,4.657-7.008,9.108c0.579,4.451,4.657,7.589,9.107,7.009c4.451-0.58,7.59-4.658,7.01-9.108
		C122.999,18.083,118.921,14.945,114.47,15.525z"/>
	
		<ellipse transform="matrix(0.9916 -0.1292 0.1292 0.9916 -6.6453 10.4873)" fill="#FED93B" cx="77.523" cy="56.472" rx="50.977" ry="46.544"/>
	<path fill="#F9E382" d="M32.786,66.087c-3.128-24.012,15.656-46.256,41.955-49.682c11.615-1.513,22.748,0.902,31.834,6.133
		c-9.717-7.022-22.487-10.517-35.903-8.77c-26.299,3.426-45.083,25.669-41.956,49.682c1.747,13.409,9.96,24.528,21.449,31.142
		C40.833,87.849,34.318,77.851,32.786,66.087z"/>
	<path fill="#281710" d="M44.63,69.2c-3.337,0.435-5.894,1.936-5.71,3.352c0.185,1.417,3.041,2.212,6.378,1.777
		c3.338-0.435,5.895-1.935,5.71-3.352C50.824,69.561,47.968,68.766,44.63,69.2z M112.579,60.349
		c-3.338,0.435-5.895,1.935-5.709,3.351c0.184,1.417,3.039,2.212,6.377,1.777c3.339-0.435,5.895-1.935,5.711-3.352
		C118.773,60.709,115.918,59.914,112.579,60.349z"/>
	<path fill="#EE7FB3" d="M62.011,129.25c-1.414,1.215-2.842,13.982,0.578,12.877c1.674-0.54,0.984-3.895,3.483-4.035
		c2.613-0.148,1.582,2.37,2.297,3.936c2.512,5.503,5.51-6.486,5.628-8.484c0.064-1.084,0.138-6.151-2.111-5.592
		c-1.91,0.484-1.485,9.188-5.673,5.643C65.217,132.75,63.99,127.55,62.011,129.25z"/>
	<path fill="#EE7FB3" d="M76.105,138.082c1.855,2.566,5.792,3.096,7.436,0.186c1.45-2.564,0.44-7.783-2.081-9.445
		C76.824,125.763,73.798,134.889,76.105,138.082z"/>
	<path fill="#EE7FB3" d="M88.333,141.231c2.922-0.401-1.127-7.295-0.854-8.573c4.327-1.495,3.53,10.23,7.571,8.406
		c2.896-1.307,1.084-9.308,0.66-11.681c-0.273-1.522-1.75-5.999-3.457-2.904c-1.006,1.826,2.518,6.86,0.855,8.153
		c-0.956,0.744-3.896-7.643-5.763-8.295c-4.271-1.491-2.106,5.672-1.831,7.484C85.706,135.074,86.142,141.531,88.333,141.231z"/>
	<path fill="#EE7FB3" d="M101.831,137.003c1.012-0.124,3.866-1.857,3.586-2.932c-0.627-2.4-3.348,1.247-3.429-1.291
		c1.253-0.918,3.852-0.688,2.87-3.051c-1.029-0.357-4.175,2.596-3.771-0.399c0.217-1.614,4.444-1.98,1.45-4.188
		c-1.422-1.048-4.238-0.71-5.15,0.834C96.05,128.246,98.503,137.412,101.831,137.003z"/>
	<path fill="#F9E382" d="M141.382,212.454c-0.969,0.616-4.984,4.837-1.436,4.706c1.1-0.041,1.924-2.128,2.646-2.758
		c0.912-0.789,2.342-1.469,3.445-1.791c1.328-0.389,5.676,0.364,5.154-1.901C150.713,208.63,142.213,211.923,141.382,212.454z"/>
	<path fill="#F9E382" d="M77.446,224.579c1.134,0.189,6.479,2.506,3.162,3.772c-1.029,0.393-2.604-1.209-3.515-1.504
		c-1.148-0.372-2.729-0.44-3.871-0.304c-1.375,0.16-5.083,2.552-5.487,0.262C67.364,224.706,76.475,224.415,77.446,224.579z"/>
	
		<ellipse transform="matrix(0.998 0.0636 -0.0636 0.998 13.5858 -4.3759)" fill="#FFC31F" cx="75.514" cy="211.169" rx="3.807" ry="2.424"/>
	
		<ellipse transform="matrix(0.8939 -0.4483 0.4483 0.8939 -75.4714 82.1224)" fill="#FFC31F" cx="135.713" cy="200.462" rx="3.807" ry="2.423"/>
	<path fill="#FFFFFF" d="M65.048,121.88c-0.182-1.391-1.456-2.371-2.846-2.19c-1.39,0.181-2.37,1.456-2.189,2.846
		c0.181,1.389,1.455,2.369,2.845,2.188C64.248,124.544,65.229,123.27,65.048,121.88z M73.414,184.321
		c-1.39,0.182-2.37,1.455-2.189,2.845c0.181,1.391,1.455,2.37,2.845,2.189c1.39-0.181,2.371-1.455,2.189-2.846
		C76.078,185.12,74.804,184.14,73.414,184.321z M76.005,159.548c-1.39,0.182-2.37,1.455-2.189,2.845
		c0.181,1.391,1.455,2.371,2.845,2.189s2.37-1.455,2.19-2.845C78.669,160.347,77.395,159.367,76.005,159.548z M98.476,181.987
		c-1.39,0.181-2.37,1.455-2.189,2.845c0.182,1.391,1.455,2.37,2.846,2.189c1.39-0.181,2.37-1.455,2.189-2.846
		C101.14,182.786,99.866,181.806,98.476,181.987z M58.378,143.925c-1.39,0.182-2.37,1.455-2.189,2.846
		c0.181,1.39,1.455,2.369,2.845,2.189c1.39-0.182,2.371-1.455,2.189-2.846S59.768,143.745,58.378,143.925z M54.114,177.293
		c-1.39,0.182-2.37,1.455-2.189,2.845s1.455,2.371,2.845,2.189c1.39-0.181,2.371-1.455,2.189-2.845S55.504,177.112,54.114,177.293z
		 M99.063,156.603c-1.39,0.181-2.369,1.455-2.189,2.845c0.182,1.39,1.455,2.37,2.846,2.189s2.37-1.456,2.189-2.845
		C101.728,157.402,100.454,156.421,99.063,156.603z M109.112,118.933c1.389-0.181,2.369-1.456,2.188-2.845
		c-0.181-1.39-1.455-2.371-2.845-2.189c-1.391,0.181-2.371,1.456-2.189,2.846C106.447,118.133,107.722,119.113,109.112,118.933z
		 M116.634,173.105c-1.39,0.182-2.37,1.455-2.189,2.846c0.182,1.39,1.455,2.37,2.846,2.189c1.39-0.182,2.37-1.455,2.189-2.845
		C119.298,173.905,118.024,172.924,116.634,173.105z M122.188,151.437c-1.39,0.182-2.369,1.455-2.188,2.846
		c0.181,1.39,1.454,2.37,2.845,2.189c1.391-0.182,2.37-1.455,2.189-2.846C124.853,152.237,123.579,151.256,122.188,151.437z
		 M105.376,143.853c-1.389,0.182-2.369,1.456-2.188,2.846c0.181,1.391,1.455,2.371,2.845,2.189c1.391-0.182,2.371-1.455,2.189-2.846
		C108.04,144.654,106.767,143.673,105.376,143.853z M135.745,176.899c-1.011,0.132-1.724,1.058-1.592,2.069
		c0.131,1.011,1.059,1.724,2.068,1.592c1.012-0.132,1.725-1.059,1.593-2.068C137.683,177.48,136.757,176.767,135.745,176.899z"/>
	<polygon fill="#221F1F" points="81.454,84.825 79.193,81.869 76.932,78.915 80.622,78.434 84.312,77.954 82.882,81.388 	"/>
	<path fill="none" stroke="#221F1F" stroke-linecap="round" stroke-linejoin="round" d="M93.399,82.868
		c-3.028,2.771-6.982,4.693-11.46,5.276c-4.555,0.594-8.939-0.292-12.616-2.262"/>
	
		<rect x="81.084" y="82.991" transform="matrix(0.9916 -0.1296 0.1296 0.9916 -10.3994 11.2928)" fill="#221F1F" width="0.923" height="5.077"/>
	<circle fill="#EE7FB3" cx="38.759" cy="79.933" r="3"/>
	<circle fill="#EE7FB3" cx="120.68" cy="69.262" r="3"/>
	<path fill="#EFCB35" d="M109.611,101.468c2.497,4.026-0.403,10.503-3.247,15.132c-4.711,7.667-11.035,11.547-18.592,16.089
		c-6.387,3.838-17.293,13.051-5.033,17.896c12.992,5.135,32.025-12.297,37.793-23.333c4.427-8.471,5.574-25.29-5.604-30.254
		C111.478,94.8,108.22,98.168,109.611,101.468"/>
	<path fill="#FED93B" d="M50.542,110.351c-3.967-2.59-10.51,0.16-15.204,2.894c-7.774,4.531-11.8,10.761-16.518,18.212
		c-3.987,6.296-13.451,16.982-18.01,4.614c-4.83-13.109,13.042-31.73,24.209-37.238c8.572-4.229,25.414-4.984,30.115,6.306
		C57.252,108.641,53.81,111.819,50.542,110.351"/>
	<path fill="#281710" d="M41.807,61.563c2.067,2.294-2.125,2.827-3.093,3.553c-1.696,1.272-1.99,3.564-2.931,5.147
		C33.999,67.158,38.341,57.717,41.807,61.563z"/>
	<path fill="#281710" d="M113.751,53.894c-1.365,2.771,2.812,2.142,3.942,2.577c1.979,0.763,2.886,2.888,4.222,4.155
		C122.786,57.152,116.037,49.25,113.751,53.894z"/>
	<circle fill="#FFFFFF" cx="42.791" cy="71.269" r="0.808"/>
	<circle fill="#FFFFFF" cx="40.945" cy="72.422" r="0.505"/>
	<circle fill="#FFFFFF" cx="110.059" cy="62.384" r="0.808"/>
	<circle fill="#FFFFFF" cx="108.213" cy="63.538" r="0.505"/>
</g>
</svg>
