<?xml version="1.0" encoding="utf-8"?>
<!-- Generator: Adobe Illustrator 13.0.0, SVG Export Plug-In . SVG Version: 6.00 Build 14948)  -->
<svg version="1.2" baseProfile="tiny" id="Layer_1" xmlns="http://www.w3.org/2000/svg" xmlns:xlink="http://www.w3.org/1999/xlink"
	 x="0px" y="0px" width="128.564px" height="219.256px" viewBox="0 0 128.564 219.256" xml:space="preserve">
<g>
	<path fill="#F05252" d="M13.49,0.984C0.871,7.572,6.471,30.471,2.703,40.843l27.324-22.201C28.435,12.803,22.227-3.577,13.49,0.984
		z M95.807,0.984C87.07-3.577,80.861,12.803,79.269,18.642l27.324,22.201C102.825,30.471,108.425,7.572,95.807,0.984z"/>
	<path fill="#F05252" d="M13.49,0.984C0.871,7.572,6.471,30.471,2.703,40.843l27.324-22.201C28.435,12.803,22.227-3.577,13.49,0.984
		z M95.807,0.984C87.07-3.577,80.861,12.803,79.269,18.642l27.324,22.201C102.825,30.471,108.425,7.572,95.807,0.984z"/>
	<path fill="#EC4646" d="M102.928,179.529c11.963,1.715,9.232-16.812,7.582-24.129c-3.416-15.149-11.85-32.53-4.914-47.985
		c1.338-2.982,4.035-6.054,7.209-7.202c7.75-2.803,14.578,3.68,15.551,11.067c1.04,7.908-2.02,16.895-4.338,24.383
		c-2.106,6.811-3.512,13.347-2.424,20.437c1.148,7.496,1.947,15.51-0.406,22.9c-1.629,5.111-5.266,9.67-10.55,11.258
		c-2.544,0.766-5.399,1.461-8.03,0.812c-1.962-0.486-3.57-2.334-5.424-2.443"/>
	<path fill="#C93A39" d="M112.805,100.212c-3.174,1.148-5.871,4.22-7.209,7.202c-1.525,3.4-2.307,6.893-2.562,10.436
		c1.72-1.256,3.195-3.061,4.924-4.145c0.785,2.188,0.195,5.229,0.328,7.631c2.295-1.004,3.53-5.264,6.164-5.91
		c0.387,2.141,0.59,4.4,1.25,6.488c0.906-1.682,1.858-3.812,2.854-5.648c0.981,1.404,1.764,3.576,2.998,4.803
		c0.543-1.604,0.922-3.785,1.693-5.078c1.298,1.66,1.979,4.008,3.436,5.354c0.28-1.309,0.505-2.68,1.182-3.717
		c0.182,0.104,0.353,0.221,0.518,0.342c0.23-2.275,0.262-4.523-0.023-6.689C127.383,103.893,120.555,97.41,112.805,100.212z"/>
	<path fill="#C93A39" d="M122.753,135.129c-0.939,1.979-1.562,4.549-2.05,6.709c-1.418-1.605-1.682-4.201-2.506-6.139
		c-0.807,1.895-1.117,4.15-1.708,6.061c-0.699-1.631-1.258-3.74-2.276-5.057c-1.347,1.332-1.787,3.676-2.782,5.355
		c-1.378-2.143-1.966-4.957-3.202-7.213c-0.459,1.432-0.787,2.984-1.431,4.367c-0.173-1.379-0.956-2.76-1.804-4.055
		c1.469,5.996,3.432,11.931,4.877,17.595c0.038-0.309,0.077-0.613,0.121-0.908c2.175,0.826,1.484,5.709,1.426,8.443
		c0.03,0.209,0.061,0.422,0.09,0.637c0.789-2.676,1.124-5.918,1.631-8.795c1.717,2.951,0.994,7.477,2.727,10.199
		c0.645-3.084,0.818-6.707,1.757-9.566c1.493,2.111,1.331,5.205,2.513,7.525c0.564-3.014,0.26-7.189,1.104-10.264
		c0.135-4.326,1.055-8.528,2.314-12.813C123.332,136.465,123.072,135.76,122.753,135.129z"/>
	<path fill="#F05252" d="M82.05,85.219c1.423,7.97,4.044,13.682,6.263,17.932c3.492,6.695,6.131,12.668,9.106,19.576
		c7.752,17.998,10.651,36.194,8.269,55.843c-2.232,18.412-21.943,25.82-38.218,27.699c-16.166,1.867-37.854-1.453-51.098-11.463
		C6.916,187.66,5.76,176.386,5.77,165.193c0.013-12.768,3.493-24.776,6.54-37.065c2.915-11.752,8.017-28.458,10.538-40.062"/>
	<path fill="#C93A39" d="M33.663,89.956c-2.868,2.567-8.003,9.815-9.962,13.195c0.917,0.047,4.839-2.277,7.547-4.324
		c-2.467,4.38-5.127,8.751-6.656,13.734c2.021-1.48,3.492-3.283,6.1-3.736c-1.109,4.361-3.066,9.562-2.313,14.213
		c0.979-1.521,4.487-4.674,6.14-5.371c0.284,3.701,0.395,11.621,0.943,15.529c1.017-2.266,2.137-4.545,3.824-6.391
		c1.488,2.588,2.824,5.279,3.512,8.219c1.213-2.293,2.908-4.557,4.074-6.984c2.08,1.6,2.696,3.723,4.168,5.777
		c0.416-2.24,1.955-5.086,3.434-6.803c1.749,1.328,3.815,3.879,4.789,5.908c1.033-2.217,2.344-4.33,3.463-6.504
		c3.069,1.211,3.461,4.611,5.374,6.84c0.904-3.844,0.763-8.178,1.835-11.912c1.489,1.043,2.707,2.445,3.896,3.738
		c-0.051-3.553-0.544-7.516-0.344-10.988c1.205,1.23,2.408,2.598,3.58,3.945c-0.967-4.975-1.084-9.869-2.83-14.78
		c1.99,1.023,4.856,0.705,6.391,2.451c-0.958-3.409-3.264-5.98-5.675-8.943c-2.801-3.442-9.037-3.627-13.101-4.319
		c-5.977-1.019-11.953-2.038-17.93-3.056c-2.834-0.483-5.92-1.445-8.617-0.603"/>
	<path fill="#4EC8F0" d="M18.407,8.396C7.89,2.116,6.906,25.381,10.864,30.738l0.569,1.139
		C15.631,28.062,28.117,14.195,18.407,8.396z M90.889,8.396c-9.709,5.798,2.776,19.666,6.975,23.48l0.568-1.139
		C102.389,25.381,101.406,2.116,90.889,8.396z"/>
	<path fill="#F05252" d="M106.973,63.827c1.506-4.529,2.324-9.328,2.324-14.302C109.297,22.173,84.83,0,54.648,0S0,22.173,0,49.525
		c0,4.41,0.645,8.683,1.838,12.752c0.129,3.159,0.441,6.275,0.562,9.426c0.192-0.38,0.648-0.838,0.86-1.377
		c1.483,1.526,1.196,7.704,1.637,10.138c0.445-1.372,1.241-2.402,2.511-3.016c-0.064,1.413,0.094,2.971,0.906,4.126
		c2.283-2.768,3.244,0.328,3.914,5.208c0.729-0.887,1.589-1.647,2.392-2.379c0.386,1.034,0.727,2.603,0.864,3.51
		c0.341-0.3,1.262-0.626,1.667-1.137c0.872,1.261,1.685,3.152,2.776,4.269c0.424-0.769,0.857-1.589,1.193-2.425
		c9.258,6.53,20.887,10.429,33.527,10.429c13.426,0,25.713-4.395,35.227-11.674c0.274,0.858,0.495,1.777,0.768,2.48
		c0.809-1.114,1.561-2.386,2.504-3.371c0.251,0.511,1.117,1.23,1.352,1.727c0.453-1.427,0.882-2.839,1.26-4.22
		c1.211,0.671,2.307,2.067,3.588,2.498c0.72-2.293,1.93-12.055,4.846-9.393c0.4-1.372,0.168-2.828,0.668-4.189
		c0.385,0.151,1.287,0.019,1.678,0.204c0.707-2.003,0.665-4.84,0.549-7.008C107.064,65.697,107.036,64.309,106.973,63.827z"/>
	<path fill="#FCE89D" d="M93.357,65.463c0,11.632-17.33,21.062-38.709,21.062s-38.709-9.43-38.709-21.062
		s17.33-15.939,38.709-15.939C76.026,49.524,93.357,53.831,93.357,65.463z"/>
	<ellipse fill="#250E0E" cx="24.295" cy="71.441" rx="1.63" ry="2.988"/>
	<ellipse fill="#250E0E" cx="85.419" cy="71.441" rx="1.63" ry="2.988"/>
	<path fill="#250E0E" d="M58.93,79.304c0,0.986-1.668,2.873-3.727,2.873c-2.057,0-3.727-1.886-3.727-2.873s1.514-0.854,3.572-0.854
		S58.93,78.318,58.93,79.304z"/>
	<path fill="#250E0E" d="M61.014,81.328c-0.169-0.029-0.329,0.083-0.357,0.253c0,0.001-0.103,0.597-0.451,1.189
		c-0.354,0.596-0.893,1.135-1.829,1.139c-0.966-0.001-1.667-0.475-2.148-0.969c-0.479-0.492-0.696-0.98-0.702-0.978
		c-0.059-0.126-0.191-0.19-0.322-0.173c-0.131-0.015-0.262,0.048-0.32,0.173c0,0.001-0.225,0.485-0.702,0.978
		c-0.481,0.494-1.184,0.967-2.149,0.969c-0.936-0.004-1.475-0.543-1.83-1.139c-0.348-0.592-0.443-1.189-0.45-1.189
		c-0.028-0.169-0.188-0.282-0.357-0.253c-0.169,0.028-0.282,0.188-0.254,0.357c0.003,0.021,0.117,0.696,0.525,1.397
		c0.399,0.696,1.151,1.447,2.36,1.447h0.006c1.738-0.018,2.746-1.225,3.172-1.885c0.427,0.66,1.436,1.867,3.173,1.885h0.007
		c1.207,0,1.96-0.751,2.359-1.447c0.409-0.701,0.521-1.377,0.526-1.397C61.297,81.516,61.184,81.355,61.014,81.328z"/>
	<path fill="#4EC8F0" d="M88.389,73.933c-1.375,0.032-2.465,1.108-2.435,2.405c0.011,0.446,0.159,0.855,0.396,1.205
		c1.314-1.019,2.466-2.104,3.436-3.244C89.383,74.057,88.902,73.921,88.389,73.933z M21.074,73.933
		c-0.551,0.012-1.051,0.198-1.457,0.494c0.989,1.143,2.164,2.227,3.5,3.246c0.32-0.406,0.514-0.906,0.502-1.45
		C23.588,74.926,22.449,73.901,21.074,73.933z"/>
	<path fill="#250E0E" d="M54.648,49.524c-5.871,0-11.434,0.327-16.418,1.04l5.668,7.5l3.995-4.996l3.121,5.565l3.416-5.124
		l4.269,5.124l3.421-5.182l4.834,4.897l2.454-8.005C64.859,49.784,59.876,49.524,54.648,49.524z"/>
	<path fill="#250E0E" d="M25.418,66.623c-0.889,0.288-1.645,0.088-2.418,0.765c-0.323,0.284-0.959,1.935-1.541,1.666
		c-0.658-0.303,0.32-1.864,0.578-2.165C22.66,66.161,25.461,64.6,25.418,66.623z"/>
	<path fill="#250E0E" d="M84.209,66.623c0.889,0.288,1.646,0.088,2.418,0.765c0.324,0.284,0.959,1.935,1.542,1.666
		c0.657-0.303-0.321-1.864-0.579-2.165C86.968,66.161,84.166,64.6,84.209,66.623z"/>
	<path fill="#F05252" d="M14.867,59.202c1.6-0.098,3.356,2.054,5.088,2.51c-0.422-1.273-0.396-3.13,0.021-4.41
		c0.333,0.681,1.063,1.117,1.39,1.593c0.236-2.648,1.828-3.347,3.754-1.501c0.255-1.038,1.557-3.641,2.611-4.111
		c1.016-0.452,1.271,1.067,1.932,0.815c1.31-0.5,1.151-1.043,2.077-2.012c3.77-3.941,7.835-4.627,13.3-5.116
		c7.619-0.681,15.244-2.164,22.834-0.868c5.843,0.998,5.52,3.002,7.107,7.875c1.863-2.088,2.967-0.831,4.49,0.833
		c0.369-0.337,1.047-0.379,1.43-0.76c0.42,0.577,1.33,1.005,1.764,1.636c0.581-0.875,1.24-1.138,2.178-1.287
		c0.016,2.084,1.107,3.797,1.809,5.612c0.369-0.306,1.198-0.429,1.586-0.781c0.486,2.518,1.475,2.248,3.48,2.255
		c2.57,0.01,3.408-0.336,3.699-2.854c0.607-5.259-3.99-9.527-7.679-12.528c-6.689-5.443-16.12-7.806-24.525-9.117
		c-12.927-2.017-26.464,0.253-38.597,5.201c-6.969,2.841-10.776,5.673-12.025,13.03"/>
	<path fill="#F05252" d="M32.799,50.664c1.434,0.424,2.046,2.06,3.359,2.525c0.5-2.654,2.595-0.474,3.763,0.356
		c0.927-1.771,2.61-3.798,3.985-1.003c1.138-2.157,1.852-0.753,3.424-0.996c1.803-0.278,2.375-1.048,4.752,0.214
		c1.099-1.105,4.634-4.428,6.112-4.447c1.44-0.019,3.849,2.772,4.774,3.948c1.356-1.328,2.594-0.021,3.717,1.012
		c1.325-1.75,2.854-1.252,4.184,0.055c1.027-1.488,2.408-3.15,2.888-4.786c-4.42-4.09-13.006-4.062-18.786-4.292
		c-4.314-0.172-8.84,1.067-13.071,1.787c-2.979,0.506-6.733,1.514-8.815,3.921"/>
	<path fill="#F05252" d="M53.861,48.956c0.365,1.049,0.591,2.141,1.423,2.874c2.131-1.627,3.583-0.452,5.054,1.089
		c0.492-1.074,2.684-3.127,2.303-4.254c-0.766-2.266-8.057-2.203-9.634-1.701"/>
	<path fill="#FCE89D" d="M68.849,169.46c0.214-0.307-0.216-0.523,0.327-0.631c2.719,3.545,1.299,10.336,1.084,14.584
		c-0.215,4.266-0.966,8.254-1.76,12.361c-1.064,5.492-2.838,11.252-3.564,16.617c1.744,0.482,3.365,1.707,1.887,2.902
		c-1.438,1.162-3.084-0.365-4.16-1.371c0.604,1.395,1.684,2.861,1.271,4.439c-2.024,0.715-3.978-1.516-5.252-3.123
		c1.307,4.496-2.238,5.65-3.679,1.225c-1.436-4.408-0.045-10.785,0.188-15.404c0.342-6.818,0.685-13.639,1.027-20.457
		c0.186-3.699,0.867-10.109-0.87-12.727"/>
	<path fill="#F05252" d="M53.306,169.333c-0.06,2.201,0.269,4.197,0.661,6.299c0.942-0.795,1.519-2.115,2.352-3.02
		c1.361,1.143,2.776,3.336,3.324,5.068c0.254-1.516,0.828-3.275,1.734-4.398c0.963,2.926,2.199,5.775,3.163,8.693
		c0.595-2.408,1.98-5.217,3.165-7.494c0.071,1.559,0.637,3.244,1.207,4.475c0.038-1.42,0.842-2.688,1.626-3.859
		c1.646,0.814,2.182,4.027,3.272,5.584c0.846-1.699,1.744-3.26,2.471-4.98c1.976,1.635,1.316,5.4,3.505,6.871
		c0.794-7.049,1.57-14.311-5.013-18.672c-4.38-2.9-17.232-5.09-19.66,1.514"/>
	<path fill="#EC4646" d="M106.528,170.039c-0.706-3.26-7.625-2.812-10.152-2.859c0.872,0.451,1.692,1.029,2.366,1.744
		c-2.403,0.252-4.731,0.973-6.907,1.977c0.785,0.09,1.782,0.602,2.431,0.77c-2.08,1.148-4.076,2.338-6.152,3.5
		c0.777,0.023,1.606,0.389,2.453,0.318c-1.191,1.588-3.824,2.928-4.779,4.463c0.948,0.039,1.897-0.023,2.787-0.176
		c-1.769,1.908-4.229,3.463-6.141,5.363c0.775-0.186,1.539,0.24,2.148,0.248c-0.899,1.654-2.689,3.895-2.479,6.031
		c-0.55,1.865-1.252,4.018-0.907,5.945c1.09,6.084,6.281-3.373,7.465-5.344c2.618-4.355,2.476-9.326,5.344-13.436
		c2.983-4.273,7.227-6.918,12.225-5.852c0.052-0.74,0.1-1.479,0.135-2.213c-0.012-0.006-0.024-0.012-0.036-0.018
		C106.408,170.359,106.48,170.208,106.528,170.039z"/>
	<path fill="#EC4646" d="M18.271,181.894c1.284,1.117,1.821,3.645,2.435,5.305c0.297-4.33-0.191-9.857-3.537-13.047
		c1.078,0.783,2.351,1.252,3.564,1.713c-0.369-2.543-4.065-4.355-6.139-5.541c1.02,0.346,2.023,0.742,3,1.201
		c0.03-2.633-4.359-4.785-6.416-5.82c1.146-0.08,2.343-0.059,3.513-0.043c-2.251-1.297-5.279-1.572-7.782-2.301
		c0.73-0.195,1.369-0.633,2.104-0.857c-0.704,0.059-2.302-0.061-3.192,0.135c-0.031,0.85-0.05,1.699-0.051,2.555
		c0,0.666,0.004,1.332,0.013,1.998c1.653,0.986,3.055,2.555,3.096,4.412c0.046-0.402,0.612-1.4,0.768-1.949
		c-0.104,0.373,1.974,3.078,2.244,3.752c0.859,2.137,1.286,4.361,1.181,6.67c0.529-1.191,1.143-2.352,2.232-3.014
		c0.369,2.486,0.904,5.492,1.987,7.639C17.372,183.703,17.707,182.75,18.271,181.894z"/>
	<path fill="#FCE89D" d="M24.502,197.361c-0.812,5.842-5.57,3.369-8.018,0.367c-2.393-2.934-3.368-6.598-4.32-10.119
		c-0.233-0.865-1.375-4.234-0.032-4.695c1.205-0.412,2.362,2.92,2.543,3.191c-0.291-1.297-1.169-5.926,1.068-5.748
		c1.35,0.107,2.45,4.098,2.982,4.998c0.056-0.965-0.501-3.963,0.57-4.582C22.43,178.958,24.787,195.304,24.502,197.361z"/>
	<path fill="#FCE89D" d="M76.942,202.05c1.171,6.418,6.313,3.463,8.878,0.031c2.508-3.355,3.413-7.449,4.301-11.389
		c0.217-0.963,1.321-4.74-0.185-5.188c-1.351-0.4-2.475,3.338-2.661,3.646c0.261-1.445,1.014-6.604-1.449-6.301
		c-1.486,0.182-2.516,4.641-3.062,5.662c-0.106-1.064,0.369-4.402-0.845-5.039C78.371,181.615,76.53,199.792,76.942,202.05z"/>
	<path fill="#4EC8F0" d="M86.215,191.685c1.593,0.943,2.312,4.246,0.225,4.992c-1.233,0.441-1.4-0.43-2.329-0.982
		c-0.987-0.588-1.554-0.148-2.597,0.125c-0.889,0.23-1.702,0.436-2.074-0.539C78.055,191.66,83.996,190.369,86.215,191.685z"/>
	<path fill="#4EC8F0" d="M16.636,187.878c-1.546,0.627-2.629,3.473-0.868,4.418c1.039,0.559,1.305-0.195,2.205-0.564
		c0.959-0.391,1.405,0.076,2.297,0.459c0.76,0.326,1.459,0.617,1.921-0.203C23.908,188.949,18.789,187.003,16.636,187.878z"/>
	<path fill="#4EC8F0" d="M80.194,190.501c1.115,0.258,1.437-1.623,0.243-1.777C79.324,188.58,79.168,190.263,80.194,190.501z"/>
	<path fill="#4EC8F0" d="M84.32,190.359c1.115,0.258,1.438-1.623,0.244-1.777C83.451,188.437,83.295,190.121,84.32,190.359z"/>
	<path fill="#4EC8F0" d="M88.377,191.71c1.115,0.258,1.437-1.623,0.243-1.777C87.507,189.791,87.351,191.472,88.377,191.71z"/>
	<path fill="#4EC8F0" d="M20.996,186.875c-0.971,0.303-1.378-1.342-0.332-1.555C21.642,185.119,21.889,186.599,20.996,186.875z"/>
	<path fill="#4EC8F0" d="M17.333,187.017c-0.97,0.303-1.377-1.342-0.331-1.557C17.979,185.261,18.227,186.742,17.333,187.017z"/>
	<path fill="#4EC8F0" d="M13.83,188.478c-0.97,0.301-1.377-1.342-0.33-1.557C14.477,186.72,14.724,188.201,13.83,188.478z"/>
	<path fill="#FCE89D" d="M30.145,165.882c-0.199-0.318,0.242-0.512-0.294-0.645c-2.896,3.402-1.816,10.256-1.815,14.51
		c0,4.271,0.551,8.291,1.139,12.434c0.787,5.539,2.27,11.381,2.726,16.775c-1.937,0.076-3.644,1.926-2.505,3.207
		c1.229,1.383,3.572-0.613,4.697-1.564c-0.673,1.361-1.824,2.771-1.49,4.371c1.986,0.816,4.049-1.314,5.401-2.855
		c-1.53,4.426,1.952,5.756,3.612,1.408c1.656-4.332,0.587-10.771,0.587-15.396c0-6.826,0-13.654,0-20.48
		c0-3.705-0.359-10.141,1.507-12.668"/>
	<path fill="#F05252" d="M27.029,161.128c-0.047,3.512-0.666,7.707,0.62,11.346c0.489-2.234,2.239-4.955,4.159-6.197
		c0.111,1.082,0.423,2.08,1.032,2.883c0.481-1.104,1.313-2.154,2.251-2.877c0.206,0.887,0.705,1.707,0.74,2.658
		c0.797-0.924,1.703-2.064,2.908-2.348c-0.078,1.879,0.894,3.527,1.018,5.363c0.547-0.973,1.168-2.203,2.041-3.172
		c0.816,2.914,1.965,5.668,3.686,8.295c2.566-2.002,4.867-11.248,4.753-14.662c-0.114-3.416-2.927-9.037-5.122-11.537"/>
	
		<line fill="none" stroke="#250E0E" stroke-linecap="round" stroke-linejoin="round" x1="29.797" y1="77.791" x2="13.32" y2="79.777"/>
	
		<line fill="none" stroke="#250E0E" stroke-linecap="round" stroke-linejoin="round" x1="30.555" y1="79.18" x2="17.867" y2="84.629"/>
	
		<line fill="none" stroke="#250E0E" stroke-linecap="round" stroke-linejoin="round" x1="32.019" y1="80.124" x2="24.385" y2="86.692"/>
	
		<line fill="none" stroke="#250E0E" stroke-linecap="round" stroke-linejoin="round" x1="78.588" y1="77.648" x2="95.063" y2="79.635"/>
	
		<line fill="none" stroke="#250E0E" stroke-linecap="round" stroke-linejoin="round" x1="77.83" y1="79.038" x2="90.518" y2="84.487"/>
	<line fill="none" stroke="#250E0E" stroke-linecap="round" stroke-linejoin="round" x1="76.366" y1="79.982" x2="84" y2="86.55"/>
	<circle fill="#FFFFFF" cx="84.896" cy="69.778" r="0.48"/>
	<circle fill="#FFFFFF" cx="84.389" cy="70.926" r="0.24"/>
	<circle fill="#FFFFFF" cx="23.791" cy="69.778" r="0.48"/>
	<circle fill="#FFFFFF" cx="23.283" cy="70.926" r="0.24"/>
</g>
</svg>
