<?xml version="1.0" encoding="utf-8"?>
<!-- Generator: Adobe Illustrator 13.0.0, SVG Export Plug-In . SVG Version: 6.00 Build 14948)  -->
<svg version="1.2" baseProfile="tiny" id="Layer_1" xmlns="http://www.w3.org/2000/svg" xmlns:xlink="http://www.w3.org/1999/xlink"
	 x="0px" y="0px" width="127.746px" height="176.282px" viewBox="0 0 127.746 176.282" xml:space="preserve">
<g>
	<path fill="#E4E5E6" d="M12.215,61.386c-0.659,4.09-6.77,9.419-9.964,4.733c-3.865-5.669,4.263-7.637,7.924-8.628
		c-3.448-0.178-13.138-3.249-9.285-9.064c3.398-5.129,10.233-0.077,12.146,2.748c2.054,3.032,1.019,2.811,4.933,3.935
		c2.43,0.698,4.975,1.061,7.661,1.385c5.512,0.667,10.84,1.094,16.32,1.433c1.294-2.794,8.193-7.689,11.229-5.374
		c5.198,3.966-2.558,9.156-5.596,10.301c5.387-1.322,9.764,6.567,4.252,9.363c-6.023,3.056-10.983-8.358-10.983-8.358
		C33.506,61.041,20.058,62.688,12.215,61.386z"/>
	<path fill="#F8F186" d="M109.287,160.363c5.943,1.346,12.39-0.533,16.353-6.5c3.332-5.018,1.933-12.793,1.039-18.5
		c-1.667,6.443-3.903,22.514-14.192,18.145"/>
	<path fill="#F4D44E" d="M66.666,125.604c-5.573,0.92-9.171,4.627-11.222,9.645c-1.593,3.896-1.971,9.4-5.476,12.451
		c-2.766,2.406-7.438,2.379-11.081,3.041c-3.006,0.545-8.953,2.123-9.141,5.955c-0.25,5.105,6.461,4.258,9.964,4.227
		c8.387-0.074,17.618-3.514,25.708-5.941c4.567-1.371,8.949-1.906,11.518-6.389c2.228-3.887,1.771-11.322,0.999-15.658
		C76.908,127.162,72.475,124.646,66.666,125.604z"/>
	<path fill="#2E1D10" d="M39.812,10.903c-0.31,5.643-1.762,11.119-1.828,16.901c-0.069,6.103,0.085,12.148-0.559,18.168
		c-0.864,8.085-6.678,16.954-5.84,24.807c0.574,5.381,2.41,4.759,6.855,5.028c3.716,0.224,7.13,1.753,10.97,1.395
		c11.432-1.068,8.043-14.706,6.845-22.845c-1.359-9.229-3.231-18.202-5.005-27.331c-0.929-4.78-2.312-17.006-8.238-17.95"/>
	<path fill="#F8F186" d="M41.945,54.781c4.268,3.047,4.006,5.417,4.724,8.684c1.412,6.42,1.652,10.013,2.285,14.169
		c1.51,9.925-3.729,19.91-5.484,29.709c-2.473,13.797-8.024,30.006-5.714,44.014c1.018,6.172,3.688,8.867,8.456,13.119
		c7.727,6.891,18.958,8.502,28.507,7.693c9.887-0.838,17.337-0.949,26.341-4.951c8.228-3.656,10.927-6.262,13.712-10.055
		c2.847-3.879,2.307-10.609,3.893-15.242c1.728-5.045,0.621-20.434,0.678-15.146c0.015,1.332,1.549-0.041-1.828-12.575
		c-2.666-9.908-7.312-22.396-17.825-31.081c-6.44-5.32-9.178-12.894-10.97-21.482c-1.245-5.967-6.543-6.901-6.552-12.951"/>
	<path fill="#F8F186" d="M72.253,7.706C60.827-4.178,49.684-1.392,38.212,9.76c-8.227,7.999-2.41,19.999-8.466,25.827
		c-4.53,4.36-16.455,8.685-15.997,10.513c2.165,8.663,11.437,14.852,17.836,15.995c8.165,1.458,19.53-2.959,26.956-7.311
		c5.937-3.479,12.231-5.949,17.368-10.512c4.897-4.35,9.18-11.532,7.771-18.74c-1.54-7.874-5.234-10.763-10.056-16.912"/>
	<path fill="#2E1D10" d="M56.252,19.383c1.166,4.931,3.795,10.143,4.595,15.112c0.868,5.376-0.145,11.387-0.659,16.853
		c-0.749,7.974,0.545,20.728,10.871,21.039c5.549,0.167,16.291-7.831,20.362-11.524c10.195-9.243,0.068-29.249-4.297-39.547
		c-3.756-8.857-15.391-23.862-26.717-20.53C54.688,2.468,55.09,14.468,56.252,19.383z"/>
	<path fill="#2E1D10" d="M9.629,44.857c-0.228-2.419,7.241-2.1,6.348,1.294C15.183,49.167,9.875,47.467,9.629,44.857z"/>
	<circle fill="#2E1D10" cx="46.821" cy="24.464" r="2.59"/>
	<path fill="#F4D44E" d="M102.617,144.316c-4.791,0.789-7.883,3.977-9.646,8.289c-1.368,3.35-1.693,8.08-4.707,10.703
		c-2.377,2.068-6.394,2.045-9.524,2.613c-2.584,0.469-7.697,1.826-7.857,5.121c-0.215,4.389,5.555,3.658,8.565,3.633
		c7.209-0.064,15.144-3.02,22.098-5.107c3.927-1.18,7.692-1.639,9.901-5.492c1.915-3.342,1.522-9.732,0.858-13.461
		C111.42,145.654,107.611,143.492,102.617,144.316z"/>
	<path fill="#5F3613" d="M94.087,116.12c-2.839-4.9-7.057-2.09-10.535-0.27c-5.813,3.043-6.799,3.492-8.089,10.233
		c-1.067,5.58-3.958,3.197-8.228,5.486c-4.275,2.291-4.366,6.738,0.457,7.766c3.745,0.799,7.525-3.6,10.409-0.809
		c2.593,2.508-1.555,7.672,2.733,8.691c4.829,1.148,2.403-5.762,2.855-7.881c1.344-6.297,5.042-1.18,8.707-3.99
		c5.581-4.277-3.518-5.139-4.478-6.639C84.659,123.611,97.899,122.697,94.087,116.12z M118.997,120.431
		c-3.231,0.466-4.271,0.991-4.124,6.923c0.147,5.912-5.115,7.719-5.586,13.355c-0.451,5.385,3.577,9.67,7.929,8.943
		c0.404-2.691,0.671-5.463,1.448-7.73c1.161-3.393,1.041-11.453,0.855-14.768C119.731,126.926,119.944,125.193,118.997,120.431z
		 M110.201,101.845c0.73-0.784,1.393-1.551,2-2.309c-2.869-5.91-6.828-11.721-12.513-16.417c-3.81-3.147-6.317-7.086-8.106-11.554
		c-1.042,0.126-2.132,0.541-2.897,1.476c-1.948,2.378-0.123,5.31-0.448,7.816c-0.921,7.098-6.789,1.678-11.044,5.337
		c-1.78,1.532-2.682,5.022-0.711,6.979c2.128,2.111,4.603,0.351,6.854-0.328c8.083-2.44,5.614,1.779,5.909,8.488
		c5.054,0.04,5.104-3.808,9.619,0.514C103.528,106.31,105.442,106.964,110.201,101.845z"/>
	<path fill="#5F3613" d="M42.167,138.812c-0.193-1.545,1.105-4.637,0.399-5.885c-1.318-2.324-2.037-0.18-3.645-0.879
		c-0.191-0.084-0.369-0.17-0.547-0.256c-0.875,5.238-1.37,10.451-1.058,15.457c0.522-0.148,1.054-0.338,1.604-0.602
		c1.373-0.652,2.15-2.256,3.531-2.873c0.952-0.428,2.436,0.135,3.312-0.312c1.371-0.701,5.442-2.172,3.322-4.715
		C48.053,137.504,43.529,138.74,42.167,138.812z M54.085,84.889c-1.194-1.013-2.258-10.291-5.37-8.916
		c0.075,0.549,0.152,1.1,0.238,1.661c1.136,7.466-1.546,14.965-3.693,22.394c0.869,0.852,1.843,1.679,3.236,1.842
		c4.834,0.562,5.36-4.257,6.422-7.781c0.873-2.895,0.283-2.801,2.72-4.594c1.041-0.768,3.184,0.413,4.022-1.439
		C63.993,82.909,56.587,82.985,54.085,84.889z"/>
	<circle fill="#FCBA7F" cx="52.611" cy="31.319" r="2.438"/>
	<path fill="#F8F186" d="M30.329,62.094c-0.824-0.334-0.903,1.997,0.914,1.828c0.924-0.086,2.283-0.978,2.998-1.575
		c1.039-0.866,1.175-2.227-0.484-2.107c-1.427,0.102-2.367,1.25-3.656,1.739"/>
	<path fill="#E4E5E6" d="M53.178,52.554c-3.035-2.315-9.935,2.579-11.229,5.374c-2.505-0.156-4.978-0.333-7.451-0.539
		c-2.422,1.017-4.881,2.003-6.871,3.631c-0.387,0.317-0.702,0.668-0.986,1.033c5.288,0.102,10.52,0.39,14.21,1.807
		c0,0,4.96,11.414,10.983,8.358c5.512-2.796,1.135-10.686-4.252-9.363C50.621,61.709,58.376,56.52,53.178,52.554z"/>
	<path fill="#F4D44E" d="M46.867,135.771c-0.385,0.924-0.127,2.111-0.149,3.115c-0.051,2.312-0.284,4.617-0.609,6.904
		c-0.652,4.6-1.705,9.129-2.616,13.682c-0.813,4.072-4.328,12.469,3.278,10.602c7.717-1.895,8.908-22.279,8.126-28.908
		c-0.216-2.949-3.768-9.246-7.469-6.158C47.162,135.229,46.985,135.488,46.867,135.771z"/>
	<path fill="#F4D44E" d="M61.026,141.695c-0.311,0.832-0.122,1.818-0.132,2.791c-0.024,2.338-0.26,4.674-0.581,6.988
		c-0.648,4.688-1.725,9.303-2.651,13.939c-0.814,4.072-4.329,12.469,3.277,10.602c7.717-1.895,8.908-22.277,8.126-28.908
		c-0.391-3.307-2.339-10.125-7.29-6.395C61.392,141.002,61.162,141.334,61.026,141.695z"/>
</g>
</svg>
