<?xml version="1.0" encoding="utf-8"?>
<!-- Generator: Adobe Illustrator 13.0.0, SVG Export Plug-In . SVG Version: 6.00 Build 14948)  -->
<svg version="1.2" baseProfile="tiny" id="Layer_1" xmlns="http://www.w3.org/2000/svg" xmlns:xlink="http://www.w3.org/1999/xlink"
	 x="0px" y="0px" width="130.576px" height="155.169px" viewBox="0 0 130.576 155.169" xml:space="preserve">
<g>
	<g>
		<path fill="#010101" d="M65.418,0c-0.041,0-0.082,0.003-0.123,0.005C65.254,0.003,65.213,0,65.172,0
			c-25.682,0-50,24.758-47,108.153c1.493,41.514,21.318,42.349,47,42.349c0.041,0,0.082-0.003,0.123-0.005
			c0.041,0.002,0.082,0.005,0.123,0.005c25.682,0,45.507-0.835,47-42.349C115.418,24.758,91.1,0,65.418,0z"/>
		<ellipse fill="#FFFFFF" cx="65.289" cy="108.333" rx="34.667" ry="39"/>
		<path fill="#010101" d="M0,89.787c0.252-0.188,4.987,4.798,10.487,6.798c10.285,3.74,19.857-4.146,21.59-15.188L20.709,60.013
			C18.789,74.069,10.821,81.636,0,89.787z M109.867,60.013L98.499,81.397c1.732,11.042,11.305,18.928,21.59,15.188
			c5.5-2,10.235-6.986,10.487-6.798C119.755,81.636,111.787,74.069,109.867,60.013z"/>
		<path fill="#FFFFFF" d="M54.525,27.085c-2.387,0-4.322,4.384-4.322,9.791c0,5.408,1.936,9.792,4.322,9.792
			c2.388,0,4.322-4.384,4.322-9.792C58.848,31.469,56.913,27.085,54.525,27.085z M76.064,27.085c-2.388,0-4.322,4.384-4.322,9.791
			c0,5.408,1.935,9.792,4.322,9.792c2.387,0,4.322-4.384,4.322-9.792C80.387,31.469,78.451,27.085,76.064,27.085z"/>
		<path fill="#FDBE5F" d="M48.304,49.931c-1.008,1.12,6.831,6.943,17.022,7.279v-8.175C65.326,49.035,49.312,48.811,48.304,49.931z
			 M82.374,49.931c-1.008-1.12-17.138-0.896-17.138-0.896v8.175C75.428,56.874,83.382,51.051,82.374,49.931z"/>
		<path fill="#010101" d="M54.545,32.669c-1.933,0-3.5,2.264-3.5,5.056s1.567,5.056,3.5,5.056s3.5-2.264,3.5-5.056
			S56.478,32.669,54.545,32.669z M76.045,32.669c-1.933,0-3.5,2.264-3.5,5.056s1.567,5.056,3.5,5.056s3.5-2.264,3.5-5.056
			S77.978,32.669,76.045,32.669z"/>
		<path fill="#9EDBEF" d="M43.712,42.169c-1.749,0-3.167,1.418-3.167,3.166c0,1.75,1.418,3.168,3.167,3.168s3.167-1.418,3.167-3.168
			C46.879,43.587,45.461,42.169,43.712,42.169z M86.879,42.169c-1.749,0-3.167,1.418-3.167,3.166c0,1.75,1.418,3.168,3.167,3.168
			s3.167-1.418,3.167-3.168C90.046,43.587,88.628,42.169,86.879,42.169z"/>
		<path fill="#F47E51" d="M61.369,49.585c-0.38,0-0.688,0.308-0.688,0.688s0.308,0.688,0.688,0.688s0.688-0.308,0.688-0.688
			S61.749,49.585,61.369,49.585z M69.307,49.585c-0.38,0-0.688,0.308-0.688,0.688s0.308,0.688,0.688,0.688s0.688-0.308,0.688-0.688
			S69.687,49.585,69.307,49.585z"/>
		<path fill="#F6CB5B" d="M44.683,146.336c-10.167-1.5-11.333,5.667-11.333,5.667l7.333-1.834l2,5l5.5-3.833l4.167,3.833
			C52.35,155.169,54.85,147.836,44.683,146.336z M85.956,146.336c-10.167,1.5-7.667,8.833-7.667,8.833l4.167-3.833l5.5,3.833l2-5
			l7.333,1.834C97.289,152.003,96.123,144.836,85.956,146.336z"/>
	</g>
	<circle fill="#FFFFFF" cx="53.183" cy="34.501" r="0.583"/>
	<circle fill="#FFFFFF" cx="52.225" cy="35.46" r="0.364"/>
	<circle fill="#FFFFFF" cx="74.6" cy="34.501" r="0.583"/>
	<circle fill="#FFFFFF" cx="73.642" cy="35.46" r="0.364"/>
</g>
</svg>
