<?xml version="1.0" encoding="utf-8"?>
<!-- Generator: Adobe Illustrator 13.0.0, SVG Export Plug-In . SVG Version: 6.00 Build 14948)  -->
<svg version="1.2" baseProfile="tiny" id="Layer_1" xmlns="http://www.w3.org/2000/svg" xmlns:xlink="http://www.w3.org/1999/xlink"
	 x="0px" y="0px" width="93.28px" height="140.301px" viewBox="0 0 93.28 140.301" xml:space="preserve">
<g>
	<path fill="#F6CB5B" d="M81.258,55.703c0.107-1.138,0.167-2.292,0.167-3.459c0-19.478-15.357-35.267-34.302-35.267
		c-18.943,0-34.301,15.789-34.301,35.267c0,0.707,0.026,1.408,0.066,2.105c-4.312,6.446-6.83,14.195-6.83,22.533
		c0,22.412,18.169,40.581,40.582,40.581c22.412,0,40.58-18.169,40.58-40.581C87.221,69.121,85.04,61.868,81.258,55.703z"/>
	<path fill="#F37543" d="M0.022,77.073c0.646,11.352,4.412,15.374,4.412,15.374s20.678-15.454,8.874-37.064
		C13.308,55.383-0.625,65.723,0.022,77.073z M79.972,55.383c-11.804,21.61,8.874,37.064,8.874,37.064s3.766-4.022,4.412-15.374
		C93.906,65.723,79.972,55.383,79.972,55.383z"/>
	<path fill="#281710" d="M34.777,39.684c-1.334,0-2.416,1.082-2.416,2.416c0,1.335,1.082,2.416,2.416,2.416
		c1.335,0,2.416-1.081,2.416-2.416C37.193,40.766,36.112,39.684,34.777,39.684z M58.503,39.684c-1.335,0-2.416,1.082-2.416,2.416
		c0,1.335,1.081,2.416,2.416,2.416c1.334,0,2.416-1.081,2.416-2.416C60.919,40.766,59.837,39.684,58.503,39.684z"/>
	<polygon fill="#C32026" points="38.219,48.744 54.404,48.744 46.432,55.386 	"/>
	<path fill="#F37543" d="M47.157,16.979c-4.658-1.62-8.974-0.946-13.729,0.771c-3.146,1.135-5.866,2.999-8.958,4.303
		c-1.571,0.662-3.147,1.334-4.802,1.771c-1.16,0.306-2.043,0.493-3.645,0.629c2.689,1.494,7.316,1.796,9.574,1.78
		c2.377-0.019,5.01-0.393,7.291-0.926c1.785-0.417,3.265-1.459,5.009-1.909c-2.886,4.578-8.21,7.093-12.935,9.614
		c6.975,0.362,14.9,0.655,19.945-5.153c-1.46,3.763-3.821,5.878-7.173,9.049c5.435,0.905,11.874-0.409,15.399-2.898
		c-0.709,0.98-2.446,3.623-3.262,4.71c2.898,0.091,7.669-1.259,9.874-2.265c5.163-2.355,6.003-3.773,7.608-6.612
		c2.276-4.021-4.581-6.375-7.559-7.061c-2.449-0.562-5.289-1.072-7.572-2.136c-1.281-0.596-1.953-1.645-3.076-2.398"/>
	<path fill="#281710" d="M80.043,34.869c-1.311,2.468-10.157,0.328-19.758-4.774c-9.602-5.103-16.322-11.239-15.012-13.703
		c1.312-2.469,10.156-0.329,19.758,4.773S81.354,32.404,80.043,34.869z"/>
	
		<rect x="56.094" y="4.419" transform="matrix(0.8933 0.4494 -0.4494 0.8933 14.349 -28.7858)" fill="#281710" width="23.431" height="22.827"/>
	
		<ellipse transform="matrix(0.4503 -0.8929 0.8929 0.4503 34.8767 68.2659)" fill="#45312A" cx="72.882" cy="5.807" rx="2.701" ry="11.724"/>
	<path fill="#281710" d="M37.252,118.169c0.836,2.017,0.235,5.936,0.359,8.264c0.135,2.521,0.105,5.187-0.026,7.698
		c-1.837-0.086-4.043,1.451-3.396,2.73c0.68,1.352,2.65-0.507,3.242-0.863c-0.752,0.97-1.954,2.965-1.051,3.704
		c1.57,0.327,2.098-2.147,3-3.005c-0.273,0.595-0.783,2.836-0.115,3.402c1.074,0.914,1.888-1.537,2.074-2.35
		c0.504-2.208-1.348-3.437-1.348-3.437c-0.203-4.716-0.225-12.396-0.225-17.224"/>
	<path fill="#281710" d="M56.03,118.169c-0.836,2.017-0.234,5.936-0.358,8.264c-0.136,2.521-0.104,5.187,0.026,7.698
		c1.838-0.086,4.043,1.451,3.396,2.73c-0.682,1.352-2.652-0.507-3.243-0.863c0.751,0.97,1.954,2.965,1.051,3.704
		c-1.571,0.327-2.099-2.147-3.001-3.005c0.274,0.595,0.783,2.836,0.115,3.402c-1.074,0.914-1.887-1.537-2.073-2.35
		c-0.505-2.208,1.348-3.437,1.348-3.437c0.202-4.716,0.224-12.396,0.224-17.224"/>
	<path fill="#F6CB5B" d="M30.824,109.253c0.381,0.101,0.822,1.99,1.105,2.62c0.846,1.886,1.839,3.776,3.008,5.484
		c1.13,1.652,3.62,4.51,5.672,2.262c1.235-1.352,0.998-4.354,0.692-6.018c-0.353-1.921-1.183-3.665-1.902-5.436"/>
	<path fill="#F6CB5B" d="M63.073,109.253c-0.381,0.101-0.822,1.99-1.105,2.62c-0.846,1.886-1.84,3.776-3.008,5.484
		c-1.131,1.652-3.621,4.51-5.672,2.262c-1.235-1.352-0.998-4.354-0.693-6.018c0.354-1.921,1.184-3.665,1.902-5.436"/>
	<ellipse fill="#F37543" cx="46.64" cy="98.866" rx="17.15" ry="15.608"/>
	<circle fill="#C02334" cx="29.557" cy="44.871" r="1.167"/>
	<circle fill="#C02334" cx="64.057" cy="44.871" r="1.167"/>
	<circle fill="#FFFFFF" cx="34.12" cy="40.767" r="0.542"/>
	<circle fill="#FFFFFF" cx="33.307" cy="41.579" r="0.292"/>
	<circle fill="#FFFFFF" cx="57.745" cy="40.767" r="0.542"/>
	<circle fill="#FFFFFF" cx="56.932" cy="41.579" r="0.292"/>
</g>
</svg>
