<?xml version="1.0" encoding="utf-8"?>
<!-- Generator: Adobe Illustrator 13.0.0, SVG Export Plug-In . SVG Version: 6.00 Build 14948)  -->
<svg version="1.2" baseProfile="tiny" id="Layer_1" xmlns="http://www.w3.org/2000/svg" xmlns:xlink="http://www.w3.org/1999/xlink"
	 x="0px" y="0px" width="115.021px" height="158.885px" viewBox="0 0 115.021 158.885" xml:space="preserve">
<g>
	<path fill="#8FA7A2" d="M26.997,72.19c0.374,0.272-0.029,0.275-0.454,0.711c-0.601,0.615-1.552,1.168-2.258,1.686
		c-1.205,0.887-2.725,1.443-3.853,2.448c-1.323,1.177-2.257,3.778,0.111,4.399c1.818,0.477,4.669-2.113,5.882-3.251
		c1.202-1.128,3.172-3.94,1.854-5.565"/>
	<path fill="#8FA7A2" d="M21.479,118.662c-1.433,2.575-11.417,11.796-6.089,14.271c3.641,1.691,4.208-2.525,5.708-4.566
		c1.672-2.275,3.141-3.498,5.708-3.996"/>
	<path fill="#A7C2BB" d="M32.134,53.211c-0.637,10.436-6.726,21.129-9.512,31.128c-2.433,8.729-4.848,16.548-4.948,25.638
		c-0.204,18.693,19.893,25.975,36.54,23.619c45.702-6.467,23.441-52.844,2.95-79.982c-3.212-4.254-8.3-6.57-12.853-9.154"/>
	<path fill="#A7C2BB" d="M65.24,124.37c2.417,1.344,5.864,0.496,8.751,0.372c5.671-0.239,11.338-0.995,17.035-0.761
		c5.846,0.239,15.622,0.319,19.123,6.078c3.172,5.217-1.746,7.883-5.992,9.934c-13.65,6.59-30.896,4.524-45.597,6.922
		c-7.398,1.208-10.517,4.746-11.594,11.971c0.925-12.779,28.071-9.68,36.16-10.542c9.364-1,40.925-6.153,29.394-21.709
		c-4.309-5.812-12.609-6.069-19.121-6.069c-5.192,0-10.393,0.106-15.517-0.379c-2.935-0.277-10.004-1.938-12.262,0"/>
	<path fill="#8FA7A2" d="M43.551,126.653c-2.759-1.331-6.668,2.299-8.732,3.341c-2.417,1.222-5.367,1.212-7.927,2.071
		c-4.979,1.674-5.944,4.818-0.086,5.623C34.47,138.739,49.734,132.266,43.551,126.653"/>
	<path fill="#FCE89D" d="M27.77,127.148c5.792-3.519,5.639-13.745,4.27-19.415c-1.504-6.227-5.152-13.868-11.261-16.761
		c-1.681,6.229-3.028,12.269-3.104,19.005c-0.087,7.933,3.489,13.803,8.898,17.76C26.965,127.577,27.36,127.397,27.77,127.148z"/>
	<path fill="#B21F24" d="M16.913,73.352c0.877-0.332,1.814-0.471,2.662-0.373c3.647,0.412,4.98,4.32,6.089,7.273
		c-0.491-1.312,1.471-4.768,2.337-5.697c1.288-1.38,3.177-2.044,5.048-1.763c3.37,0.505,4.308,3.616,3.854,6.558
		c-0.581,3.768-3.37,6.409-6.312,8.566C29,89.084,25.847,91.02,25.845,91.02c-4.496-1.958-12.06-7.969-12.385-13.152
		C13.326,75.729,14.983,74.077,16.913,73.352z"/>
	<path fill="#8FA7A2" d="M43.656,81.151c-2.438,0.637-5.438,0.457-7.958,0.457c-1.496,0-4.1-0.412-4.959,1.142
		c-0.725,1.309,0.104,2.932,1.108,3.742c2.661,2.142,7.076,0.776,10.021-0.068c3.631-1.039,6.929-1.95,9.528-4.808
		c1.182-1.299,1.859-4.059,0.465-5.43c-2.167-2.131-2.396,0.473-3.128,1.904C47.865,79.79,45.409,80.692,43.656,81.151z"/>
	<path fill="#8FA7A2" d="M19.148,81.854c1.705,0.744,1.611,2.654-0.143,3.324c-1.34,0.514-3.306-0.124-4.25-1.145
		c-0.683-0.737-1.558-2.752-0.35-3.252C15.089,80.5,18.467,81.558,19.148,81.854z"/>
	<path fill="#8FA7A2" d="M31.374,57.588c-0.778,2.791-2.423,5.448-2.639,8.341c1.251-1.694,2.651-3.738,4.516-4.71
		c0.117,2.465,0.123,4.633,0.828,7.021c1.085-1.407,1.384-6.121,3.535-6.261c0.97,3.258,1.906,7.108,3.804,9.884
		c0.193-2.86-0.412-5.949,0.269-8.755c1.284,1.319,2.083,3.74,3.157,5.321c0.129-2.041-0.462-4.095-0.312-6.088
		c1.256,0.847,2.659,2.802,3.698,3.999c-0.568-1.885-0.667-4.122-0.74-6.069c1.161,1.256,2.58,3.262,3.847,4.537
		c-1.108-2.199-1.467-4.941-1.286-7.404c2.233,1.376,3.61,4.018,5.661,5.643c-0.961-1.696-1.528-3.754-2.057-5.625
		c2.579,0.756,5.531,2.53,7.723,4.145c-1.632-1.76-2.059-4.532-2.533-6.811c1.393,0.616,2.911,1.282,4.492,1.674
		c-1.703-2.881-4.03-6.001-6.99-7.794c-2.168-1.313-4.332-0.569-6.696-0.044c-4.021,0.894-8.003,1.59-11.85,3.098
		c-1.936,0.759-8.298,3.314-7.759,6.088"/>
	<path fill="#A7C2BB" d="M55.255,44.088c5.122,6.139,16.588,1.92,15.277-6.276c-1.165-7.276-10.08-9.479-15.727-5.531"/>
	<path fill="#F0ABCC" d="M56.08,36.076c-5.001,4.61,4.974,8.896,8.884,6.079c2.618-1.888,3.377-6.002-0.047-7.429
		C62.294,33.631,58.188,34.132,56.08,36.076z"/>
	<path fill="#A7C2BB" d="M21.004,15.813c-6.586-4.527-3.455-16.337,4.828-15.795c7.354,0.481,10.377,9.152,6.97,15.145"/>
	<path fill="#F0ABCC" d="M28.642,13.786c4.473-3.564-0.271-13.992-5.592-8.047C19.882,9.277,23.96,17.516,28.642,13.786z"/>
	<path fill="#A7C2BB" d="M22.901,13.638c-4.417,4.897-8.998,11.517-11.316,16.456c-3.039,6.475-9.988,25.114-7.706,29.109
		c0,0,6.851,2.568,15.983,1.713c17.075-1.6,25.34-5.759,35.847-14.916C72.935,30.988,48.592,5.606,30.85,8.776
		C27.742,9.331,25.13,11.165,22.901,13.638z"/>
	<circle fill="#371618" cx="13.49" cy="37.608" r="1.712"/>
	<circle fill="#371618" cx="27.188" cy="50.927" r="1.712"/>
	<path fill="#A7C2BB" d="M44.549,12.97c1.79-1.104,2.277-3.645,3.832-4.852c0.059,1.226-0.393,2.524-0.235,3.694
		c0.953-0.666,2.064-2.312,3.392-2.104c-0.505,0.967-1.22,2.334-1.403,3.387c1.59-0.492,3.26-1.066,4.971-1.396
		c-1.443,2.45-4.953,3.289-6.274,5.836"/>
	<path fill="#371618" d="M3.404,51.879c2.187-0.189,10.249,7.504,5.478,10.854C3.047,66.83-4.492,52.831,3.404,51.879"/>
	<path fill="#F0ABCC" d="M90.178,120.573c-0.695,1.05-1.235,2.237-1.697,3.369c0.848-0.004,1.697,0.004,2.546,0.039
		c1.155,0.047,2.466,0.09,3.849,0.17c0.484-0.996,1.525-2.317,2.223-3.527c-1.27-0.049-2.513-0.059-3.698-0.059
		C92.325,120.565,91.251,120.569,90.178,120.573z M58.561,146.915c-1.626,0.266-3.036,0.652-4.271,1.157
		c0.438,0.72,0.793,1.573,1.097,2.455c2.021-0.624,4.279-1.046,6.62-1.335c-0.49-0.873-1.005-1.734-1.378-2.574
		C59.936,146.711,59.243,146.804,58.561,146.915z M109.847,124.345c0.086-0.044,0.156-0.095,0.238-0.142
		c-2.023-1.525-4.454-2.416-7.017-2.93c-1.039,1.047-1.95,2.266-2.853,3.439c1.911,0.326,3.773,0.821,5.424,1.578
		C107.447,125.344,109.323,124.612,109.847,124.345z M113.369,127.903c-1.124,0.328-2.343,0.982-3.571,1.666
		c0.117,0.164,0.245,0.316,0.352,0.49c1.042,1.715,1.199,3.152,0.805,4.383c1.245,0.37,2.501,0.756,3.642,0.933
		C115.381,133.225,115.114,130.747,113.369,127.903z M92.598,143.651c-2.694,0.52-5.445,0.883-8.228,1.146
		c0.434,1.033,0.694,2.15,0.91,3.287c2.73-0.358,6.376-0.955,10.183-1.858C94.685,145.366,93.567,144.504,92.598,143.651z
		 M104.157,139.993c-1.534,0.739-3.119,1.357-4.735,1.897c0.713,0.961,1.336,1.938,1.882,2.708c2.941-0.966,5.734-2.145,8.028-3.566
		c-1.114-0.857-2.351-1.55-3.317-1.977C105.397,139.383,104.771,139.695,104.157,139.993z M86.423,120.561
		c-1.495-0.014-2.987-0.04-4.476-0.105c-0.711,1.328-1.227,2.877-1.595,3.881c1.39-0.103,2.78-0.201,4.172-0.275
		C85.27,122.817,86.045,121.591,86.423,120.561z M68.828,145.828c0.473,0.675,0.823,1.306,0.992,1.788
		c0.089,0.258,0.176,0.607,0.265,1.013c2.649-0.076,5.188-0.076,7.417-0.091c-0.353-1.103-0.816-2.18-1.235-3.153
		C73.772,145.528,71.287,145.661,68.828,145.828z"/>
	<circle fill="#F0ABCC" cx="9.107" cy="37.472" r="1.278"/>
	<circle fill="#F0ABCC" cx="29.02" cy="56.533" r="1.598"/>
	<circle fill="#FFFFFF" cx="27.422" cy="49.984" r="0.373"/>
	<circle fill="#FFFFFF" cx="26.517" cy="50.303" r="0.14"/>
	<circle fill="#FFFFFF" cx="13.473" cy="36.62" r="0.373"/>
	<circle fill="#FFFFFF" cx="12.567" cy="36.94" r="0.14"/>
</g>
</svg>
