<?xml version="1.0" encoding="utf-8"?>
<!-- Generator: Adobe Illustrator 13.0.0, SVG Export Plug-In . SVG Version: 6.00 Build 14948)  -->
<svg version="1.2" baseProfile="tiny" id="Layer_1" xmlns="http://www.w3.org/2000/svg" xmlns:xlink="http://www.w3.org/1999/xlink"
	 x="0px" y="0px" width="74.609px" height="177.504px" viewBox="0 0 74.609 177.504" xml:space="preserve">
<g>
	<path fill="#6ECAF3" d="M14.427,174.35c0.367,0.527,1.246,3.453,2.378,3.13c0.941-0.269,0.104-2.251,0.016-2.839
		c0.771,0.915,2.154,3.043,3.585,2.312c0.303-0.867-0.026-2.137-0.487-2.938c0.357,0.842,2.19,3.496,3.012,1.956
		c0.484-0.908-1.12-3.048-1.378-3.997"/>
	<path fill="#6ECAF3" d="M59.771,174.35c-0.367,0.527-1.246,3.453-2.378,3.13c-0.941-0.269-0.104-2.251-0.016-2.839
		c-0.771,0.915-2.154,3.043-3.585,2.312c-0.303-0.867,0.026-2.137,0.487-2.938c-0.357,0.842-2.19,3.496-3.012,1.956
		c-0.484-0.908,1.12-3.048,1.378-3.997"/>
	<path fill="#C7E9F2" d="M22.978,0.611C7.675-4.402,6.976,22.826,7.878,30.982c1.334,12.053,4.893,23.602,5.518,35.658l16.666,1.334
		c-3.826-8.525-2.668-19.588-1.908-28.668C28.901,30.354,34.901,4.518,22.978,0.611z M51.632,0.611
		c-11.924,3.906-5.924,29.742-5.176,38.695c0.76,9.08,1.918,20.143-1.908,28.668l16.666-1.334
		c0.625-12.057,4.184-23.605,5.518-35.658C67.634,22.826,66.935-4.402,51.632,0.611z"/>
	<path fill="#C7E9F2" d="M73.524,101.234c-1.188-10.018-1.883-22.018-7.166-30.865c-0.592-0.992-1.341-1.857-2.199-2.623
		c-5-5.73-12.622-8.906-20.775-9.051c-10.945-0.191-23.43-0.236-31.06,7.672c-1.673,1.04-3.086,2.35-4.073,4.002
		c-5.283,8.848-5.979,20.848-7.166,30.865c-1.162,9.815-1.084,19.527-1.084,29.407c0,12.764,0.398,26.795,7.342,37.934
		c3.15,5.052,12.26,11.211,16.25,3.659c2.516-4.762,1.656-9.021,8-11.684c1.793-0.752,3.727-0.967,5.711-0.991
		c1.986,0.024,3.92,0.239,5.713,0.991c6.344,2.663,5.484,6.922,8,11.684c3.99,7.552,13.1,1.393,16.25-3.659
		c6.943-11.139,7.342-25.17,7.342-37.934C74.608,120.762,74.687,111.05,73.524,101.234z"/>
	<ellipse fill="#FFFFFF" cx="37.083" cy="92.309" rx="23.833" ry="16.166"/>
	<path fill="#6ECAF3" d="M24.586,32.047c1.013-6.627,3.027-16,0.359-22.487c-2.916-7.09-8.984-5.772-12.352,0.489
		c-3.307,6.148-2.467,15.737-1.416,22.342c1.26,7.915,2.8,15.779,4.351,23.584c0.468,2.357,1.272,7.921,3.724,9.284
		c4.728,2.63,3.922-7.853,3.933-9.982C23.228,47.518,23.412,39.73,24.586,32.047z"/>
	<path fill="#6ECAF3" d="M50.263,32.047c-1.013-6.627-3.027-16-0.359-22.487c2.916-7.09,8.984-5.772,12.352,0.489
		c3.307,6.148,2.467,15.737,1.416,22.342c-1.26,7.915-2.8,15.779-4.351,23.584c-0.468,2.357-1.272,7.921-3.724,9.284
		c-4.728,2.63-3.922-7.853-3.933-9.982C51.621,47.518,51.437,39.73,50.263,32.047z"/>
	<path fill="#250E0E" d="M20.333,92.225c-0.76,0-1.375,1.176-1.375,2.625s0.615,2.625,1.375,2.625s1.375-1.176,1.375-2.625
		S21.093,92.225,20.333,92.225z M53.833,92.225c-0.76,0-1.375,1.176-1.375,2.625s0.615,2.625,1.375,2.625s1.375-1.176,1.375-2.625
		S54.593,92.225,53.833,92.225z"/>
	<path fill="#250E0E" d="M37.083,101.726c0,0-4.832-3.833,0-3.833C41.917,97.893,37.083,101.726,37.083,101.726z"/>
	<path fill="#E9A5BC" d="M15.625,95.476c-1.703,0-3.083,1.38-3.083,3.083s1.38,3.083,3.083,3.083s3.083-1.38,3.083-3.083
		S17.328,95.476,15.625,95.476z M58.542,95.476c-1.703,0-3.083,1.38-3.083,3.083s1.38,3.083,3.083,3.083s3.083-1.38,3.083-3.083
		S60.245,95.476,58.542,95.476z"/>
	<path fill="#066937" d="M52.677,119.225l-0.5-8.25l4,4l0.75-5.25l2.25,1.5l-1.5-6l5,3.75l4.5-5l-2,6.75c0,0,5,0.75,4.75,1.5
		s-8.75,2.5-8.75,2.5s3,5.25,3.25,6s-6.5-1.5-6.5-1.5l2.5,2.75l-9,1L52.677,119.225z"/>
	<path fill="#FDB71E" d="M26.51,148.225c2.372-5.93,4.749-12.004,7.641-17.699c2.521-4.963,6.846-19.207,13.91-17.512
		c3.916,0.939,15.466,10.426,11.783,15.211C56.51,132.559,33.176,146.225,26.51,148.225z"/>
	<path fill="#6ECAF3" d="M54.739,132.19c-3.102,0.989-6.352,0.656-9.42,1.388c-1.908,0.455-5.272,2.247-3.912,4.804
		c1.092,2.054,5.865,2.071,7.752,1.984c5.337-0.249,11.079-3.225,15.323-6.413c2.431-1.825,9.474-9.872,4.424-12.176
		c-3.742-1.705-5.674,2.059-7.153,4.692C60.143,129.338,58.084,131.125,54.739,132.19z"/>
	<path fill="#6ECAF3" d="M25.322,122.792c3.384,0.698,6.777-0.015,10.098,0.415c2.065,0.268,5.817,1.785,4.666,4.636
		c-0.924,2.289-5.962,2.84-7.962,2.959c-5.661,0.331-12.057-2.169-16.891-5.062c-2.771-1.657-11.103-9.367-6.028-12.36
		c3.761-2.219,6.219,1.54,8.075,4.155C19.3,120.383,21.673,122.041,25.322,122.792z"/>
	<path fill="#250E0E" d="M34.77,103.921c-0.161,0-0.326-0.013-0.497-0.034l0,0c-1.642-0.18-2.208-1.391-2.153-2.185l0,0
		c0.002-0.554,0.163-0.957,0.176-0.991l0,0c0.099-0.258,0.387-0.385,0.645-0.285l0,0c0.258,0.1,0.387,0.389,0.285,0.646l0,0
		c0.01,0.004-0.108,0.281-0.106,0.63l0,0c0.056,0.509,0.072,0.977,1.289,1.194l0,0c0.129,0.017,0.252,0.025,0.362,0.025l0,0
		c0.817-0.011,1.202-0.4,1.485-0.854l0,0c0.271-0.451,0.334-0.907,0.332-0.907l0,0c0.035-0.274,0.285-0.467,0.56-0.431l0,0
		c0.272,0.035,0.467,0.285,0.431,0.56l0,0c-0.006,0.036-0.08,0.64-0.46,1.287l0,0c-0.363,0.642-1.126,1.345-2.321,1.345l0,0
		C34.787,103.922,34.778,103.922,34.77,103.921L34.77,103.921z"/>
	<path fill="#250E0E" d="M37.003,102.576c-0.381-0.646-0.455-1.25-0.461-1.287l0,0v0.002c-0.036-0.275,0.156-0.527,0.432-0.561l0,0
		c0.272-0.036,0.524,0.156,0.56,0.432l0,0c0.013-0.002,0.062,0.457,0.33,0.906l0,0c0.283,0.453,0.668,0.842,1.484,0.853l0,0
		c0.11,0,0.23-0.009,0.361-0.025l0,0c1.218-0.218,1.233-0.683,1.288-1.194l0,0c0.002-0.35-0.102-0.633-0.104-0.633l0,0
		c-0.098-0.258,0.031-0.545,0.289-0.645l0,0c0.258-0.098,0.546,0.031,0.646,0.289l0,0c0.011,0.035,0.167,0.438,0.169,0.988l0,0
		c0.055,0.793-0.51,2.006-2.154,2.186l0,0c-0.17,0.021-0.337,0.034-0.495,0.034l0,0c-0.009,0.001-0.018,0.001-0.026,0.001l0,0
		C38.127,103.922,37.366,103.219,37.003,102.576L37.003,102.576z"/>
	<ellipse fill="#6ECAF3" cx="15.511" cy="164.309" rx="3.333" ry="1.333"/>
	<ellipse fill="#6ECAF3" cx="57.678" cy="164.309" rx="3.333" ry="1.333"/>
	<circle fill="#FFFFFF" cx="20.26" cy="93.309" r="0.5"/>
	<circle fill="#FFFFFF" cx="19.572" cy="93.995" r="0.333"/>
	<circle fill="#FFFFFF" cx="53.719" cy="93.309" r="0.5"/>
	<circle fill="#FFFFFF" cx="53.031" cy="93.995" r="0.333"/>
</g>
</svg>
