<?xml version="1.0" encoding="utf-8"?>
<!-- Generator: Adobe Illustrator 13.0.0, SVG Export Plug-In . SVG Version: 6.00 Build 14948)  -->
<svg version="1.2" baseProfile="tiny" id="Layer_1" xmlns="http://www.w3.org/2000/svg" xmlns:xlink="http://www.w3.org/1999/xlink"
	 x="0px" y="0px" width="98.69px" height="178.161px" viewBox="0 0 98.69 178.161" xml:space="preserve">
<g>
	<ellipse fill="#231F20" cx="69.81" cy="34.196" rx="2.284" ry="8.418"/>
	<path fill="#74D0F1" d="M29.567,178.161c0,0,8.421-0.901,9.925-5.312C40.996,168.436,29.768,176.357,29.567,178.161z"/>
	<path fill="#74D0F1" d="M80.433,173.777c0,0-8.436,0.769-10.775-3.262C67.317,166.484,79.881,172.047,80.433,173.777z"/>
	<path fill="#F8D7AA" d="M36.184,161.519l0.285,10.325l0.017,0.603c0,0-2.506,1.304-1.703,2.206c0.801,0.902,4.71-1.804,4.71-1.804
		l0.102-14.038L36.184,161.519z"/>
	<path fill="#F8D7AA" d="M68.568,149.688l3.859,19.25l0.102,0.594c0,0,2.712,0.786,2.104,1.828
		c-0.609,1.043-4.975-0.844-4.975-0.844l-5.602-22.933L68.568,149.688z"/>
	<ellipse fill="#29A8E0" cx="46.912" cy="91.036" rx="14.938" ry="5.213"/>
	<path fill="#F8D7AA" d="M48.315,66.874c0,0,10.627,2.205,15.04-0.802c4.41-3.008,15.039-11.129,7.619-27.371
		c-1.403-2.607,0.602-8.422-2.807-12.332c0,0-29.878-5.114-30.379,10.527C37.288,52.536,42.601,62.362,48.315,66.874z"/>
	<path fill="none" stroke="#231F20" d="M56.437,35.894c-1.004,1.704-9.124,1.303-12.231,2.807"/>
	<path fill="none" stroke="#231F20" d="M63.856,32.785c0,0,2.907-2.807,6.115-1.905"/>
	<path fill="#231F20" d="M55.333,44.816c0,0-1.504,1.805-2.006,2.808C52.828,48.626,55.234,46.421,55.333,44.816z"/>
	<path fill="#231F20" d="M67.519,42.062c0,0-1.475-0.78-2.244-0.981C64.504,40.881,66.388,42.229,67.519,42.062z"/>
	<circle fill="#FFFFFF" cx="50.02" cy="44.215" r="3.91"/>
	<path fill="#EAB473" d="M53.942,42.938c-3.104-0.882-6.934,1.318-7.633,2.496c-0.671-2.052,0.494-4.275,2.602-4.965
		C51.017,39.778,53.414,41.317,53.942,42.938z"/>
	<path fill="#231F20" d="M54.545,43.293c-2.937-0.547-6.559,0.955-8.334,2.726C46.138,43.994,51.928,41.353,54.545,43.293z"/>
	<circle fill="#231F20" cx="52.327" cy="44.215" r="1.304"/>
	<circle fill="#FFFFFF" cx="52.728" cy="43.914" r="0.501"/>
	<path fill="#231F20" d="M64.959,36.093c0,0-3.109,5.415,2.507,13.334c0.4,1.304-1.004,2.105-1.004,2.105s1.303-0.902,0.201-2.306
		C65.56,47.823,61.25,41.106,64.959,36.093z"/>
	<path fill="#EAB473" d="M49.819,66.973c0,0-1.102,4.512,0.302,4.913c1.403,0.401-4.712,2.206-6.116-0.1
		c-0.2-2.407,0.201-6.517,0.201-6.517S47.113,64.768,49.819,66.973z"/>
	<path fill="#231F20" d="M69.47,28.173c0,0-18.949,9.524-29.375,6.016c-2.206,13.134,3.107,30.178,12.532,28.173
		c0,0-11.931,14.738-30.58,9.524c0,0-5.915-0.902-10.827-9.625c2.205-0.602,4.411-0.902,4.411-9.324c0,0-3.208-22.258,7.62-28.774
		c10.829-6.517,30.179-19.952,47.823-3.108c5.516,9.124,5.314,19.751,5.314,19.751s1.203,10.728,6.717,11.029
		c-1.804,9.825-18.347,25.065-31.381,20.453c0,0-3.91,0.201-1.905-5.314c4.212,1.103,12.834,2.507,19.551-6.216
		c0,0,8.522-8.222,1.003-22.458C71.175,33.387,69.971,28.173,69.47,28.173z"/>
	<path fill="none" stroke="#231F20" stroke-linecap="round" stroke-linejoin="round" d="M67.966,57.75c0,0-2.572,0.869-3.007,3.308"
		/>
	<path fill="#29A8E0" d="M4.803,129.536c0,0-11.63,16.742,1.304,23.86c8.22,4.613,15.038-1.402,15.038-1.402
		s1.704,10.627,10.728,10.025c9.023-0.601,11.23-5.113,11.23-5.113s1.804,7.219,10.627,7.019c8.822-0.2,12.031-10.227,11.73-13.937
		c2.305,2.105,5.715,9.626,17.043,4.411c0,0,6.818-2.405,4.412-13.233c2.307,0.902,6.217,2.507,9.625-2.407
		c0,0,9.123-8.722-10.227-16.742C86.314,122.017,5.104,116.602,4.803,129.536z"/>
	<path fill="#42C5F3" d="M14.528,109.886c0,0-20.453,16.342-4.01,24.562c8.22,2.808,12.031-4.211,12.031-4.211
		s-0.701,10.025,9.524,8.222c10.227-1.806,11.33-5.515,11.33-5.515s2.306,6.518,10.728,4.611c8.422-1.904,7.72-6.918,7.42-8.221
		c-0.301-1.303,2.506,5.715,9.926,2.808c4.111-1.604,5.914-5.313,4.812-7.72c0,0,5.013,3.309,8.521,0.502
		c3.51-2.809-0.4-12.233-11.83-16.444C61.55,104.271,14.528,109.886,14.528,109.886z"/>
	<path fill="#74D0F1" d="M28.264,98.154c0,0-23.261,10.226-10.628,18.447c6.917,2.307,12.031-4.611,12.031-4.611
		s-3.208,8.221,7.218,7.419c7.219-0.501,9.225-4.111,9.225-4.111s2.607,4.312,6.718,2.206c3.709-1.202,3.408-2.907,3.408-2.907
		s1.104,2.406,6.417,0.5c5.313-1.904,2.105-5.513,2.105-5.513s3.409,3.509,6.718,1.203c3.309-2.307,1.403-8.222-8.725-11.028
		C52.626,96.951,38.39,89.432,28.264,98.154z"/>
	<path fill="#42C5F3" d="M34.782,87.728c0,0,2.806,4.311,7.919-0.3c0.401,1.002,1.003,2.606,3.51,2.004
		c3.107,0.101,4.209-2.908,4.209-2.908s1.003,3.911,6.217,2.807c5.213-1.103,0.702-5.414,0.302-5.814
		c-0.402-0.4-4.713-5.014-4.713-5.014s-5.815-0.199-11.23-0.802C35.583,77.1,34.782,87.728,34.782,87.728z"/>
	<path fill="#FAAF42" d="M16.233,17.846c0,0,5.513,1.404,6.816,8.422c13.436,1.104,24.264-5.714,27.271-10.928
		c-0.702-1.403-5.213-2.306-1.504-10.828c0,0-7.72,9.625-8.923,4.411c-1.203,1.104-6.116,4.412-10.427-1.804
		c0,0,4.411,7.119,0,9.926c-2.105-0.903-4.111-2.606-4.611-3.008c-0.501-0.402,0.5,0.401,0.5,0.401s3.309,5.112,0.1,4.411
		C22.248,18.147,16.233,17.846,16.233,17.846z"/>
	<circle fill="#FAAF42" cx="14.177" cy="16.894" r="2.456"/>
	<circle fill="#FAAF42" cx="49.369" cy="2.456" r="2.456"/>
	<circle fill="#FAAF42" cx="28.614" cy="5.264" r="2.457"/>
	<circle fill="#FAAF42" cx="23.652" cy="12.632" r="1.505"/>
	<circle fill="#FAAF42" cx="39.693" cy="7.019" r="1.504"/>
	<path fill="#29A8E0" d="M33.277,13.735c0,0-1.605,5.615,3.408,6.718C38.792,17.445,35.482,13.836,33.277,13.735z"/>
	<path fill="#29A8E0" d="M26.96,19.55c0,0-0.299,2.808,2.406,3.609C29.867,21.556,29.267,19.952,26.96,19.55z"/>
	<path fill="#29A8E0" d="M40.119,13.144c0,0-0.774,2.715,1.759,3.964C42.644,15.612,42.323,13.93,40.119,13.144z"/>
	<g>
		<circle fill="#FFFFFF" cx="67.663" cy="38.064" r="2.907"/>
		<path fill="#EAB473" d="M70.43,37.164c-2.259-0.672-5.025,0.938-5.526,1.808c-0.498-1.525,0.334-3.168,1.859-3.667
			C68.291,34.806,70.037,35.959,70.43,37.164z"/>
		<path fill="#231F20" d="M70.757,37.468c-2.104-0.433-4.676,0.645-5.927,1.939C64.759,37.906,68.869,36.006,70.757,37.468z"/>
		<circle fill="#231F20" cx="69.378" cy="38.064" r="0.969"/>
		<circle fill="#FFFFFF" cx="69.676" cy="37.842" r="0.373"/>
	</g>
	<path fill="#FCD09D" d="M59.644,78.203c0,0,8.623,10.627,5.315,21.456c-7.922,2.206-25.869-5.013-25.869-5.013
		s17.947-4.311,20.053-2.205c2.105,2.105-3.107-9.927-4.211-11.029C53.83,80.309,55.033,75.496,59.644,78.203z"/>
	<path fill="#F8D7AA" d="M26.859,98.354c0,0,3.911,2.908,17.747-4.211c10.327-2.305,15.74-1.103,15.74-1.103
		s-2.206-5.715-26.769-0.601c1.205-3.009,4.513-9.424,4.513-10.528c0,0,3.309-7.72-0.402-7.118
		C33.979,75.396,23.352,93.743,26.859,98.354z"/>
	<path fill="#29A8E0" d="M44.104,71.285c0,0-14.237,5.213-8.923,10.126c3.811,1.103,6.217-1.705,6.217-1.705
		s-2.708,4.11,1.603,4.311c4.312,0.201,5.615-2.908,5.414-3.81c-0.2-0.902,0.903,3.91,4.512,2.808
		c3.609-1.104,1.604-4.312,2.307-4.513c0.701-0.199,0.901,3.509,4.812,1.404c3.91-2.104-8.422-7.92-9.926-8.021
		C48.617,71.786,44.104,71.285,44.104,71.285z"/>
</g>
</svg>
