<?xml version="1.0" encoding="utf-8"?>
<!-- Generator: Adobe Illustrator 13.0.0, SVG Export Plug-In . SVG Version: 6.00 Build 14948)  -->
<svg version="1.2" baseProfile="tiny" id="Layer_1" xmlns="http://www.w3.org/2000/svg" xmlns:xlink="http://www.w3.org/1999/xlink"
	 x="0px" y="0px" width="92.121px" height="183.973px" viewBox="0 0 92.121 183.973" xml:space="preserve">
<g>
	<path fill="#EF4137" d="M49.544,177.563c1.307,2.931,1.614,5.667,0.689,6.109c-0.924,0.442-2.733-1.573-4.04-4.505
		c-1.306-2.931-1.614-5.667-0.689-6.11C46.429,172.615,48.238,174.632,49.544,177.563z"/>
	<path fill="#EF4137" d="M58.65,178.94c-0.936,3.079-2.482,5.319-3.454,5.002c-0.971-0.317-1.001-3.071-0.065-6.151
		c0.935-3.079,2.481-5.319,3.453-5.003C59.556,173.105,59.586,175.86,58.65,178.94z"/>
	<path fill="#D2EDF5" d="M13.63,170.638c0,0,40.595,21.63,77.09-6.443c8.61-49.474-24.809-79.616-36.29-77.547
		C54.43,86.647,3.994,76.754,13.63,170.638z"/>
	<path fill="#AADDDF" d="M59.691,78.568c0,7.581-5.078,13.728-11.345,13.728c-6.265,0-11.343-6.146-11.343-13.728
		C37.003,70.986,59.691,70.986,59.691,78.568z"/>
	<path fill="#EAB473" d="M66.595,84.074c0.205,3.687,3.213,6.379,8.574,7.441c5.898-0.07-3.77-10.7-3.77-10.7
		S66.185,78.617,66.595,84.074z"/>
	<path fill="#FCEE21" d="M91.473,53.884c0.264-6.024-5.2-5.103-5.2-5.103s4.675-3.543,3.357-6.944
		c-1.316-3.401-3.753-2.835-3.753-2.835s5.596-3.473,3.226-8.22c-2.37-4.749-8.625-0.851-8.888-1.276
		c-0.265-0.425-4.544,0.426,0.789-9.852c4.907-9.457-3.504-11.17-3.594-10.995c-1.454-0.341-6.402-0.894-12.669,3.058
		c-6.057,0.993-4.477-6.591-3.885-8.22c0,0-2.237-11.906-17.117,8.22c0,0,0.074-0.659,0.022-1.673
		c-1.384,0.872-3.134,0.845-4.466-0.919c-0.164-0.215-0.342-0.427-0.53-0.634c-0.182,1.09-0.771,2.093-1.883,2.717
		c-0.686,0.384-1.349,0.648-2,0.829c-3.658,1.428-7.652,2.801-11.401,2.57c0.137,0.356,0.245,0.729,0.319,1.117
		c0.597,3.172-0.661,6.15-2.764,8.425c-1.259,1.363-3.274,1.557-4.823,0.718c1.691,2.375,3.303,4.923,3.691,7.901
		c0.3,2.295-0.495,4.556-2.864,5.23c-1.935,0.553-4.744-0.668-5.044-2.969c-0.243-1.854-1.121-3.389-2.178-4.914
		c-1.012,2.343-1.395,4.908-0.514,7.539c0.79,3.26,2.962,6.59,2.962,6.59s-14.353,13.111-2.173,22.468
		c3.753,2.764,8.493,0.141,8.493,0.141s-1.901,2.495-3.437,5.757c2.17-0.177,4.436,1.186,4.353,4.095
		c-0.005,0.173,0.066,0.773,0.02,0.616c0.026,0.126,0.048,0.254,0.079,0.38c0.148,0.559,0.31,1.111,0.525,1.646
		c-0.148-0.366,0.481,0.94,0.58,1.115c0.044,0.078,0.092,0.155,0.137,0.233c0.524-0.928,1.095-1.83,1.679-2.736
		c1.241-1.922,3.593-2.75,5.61-1.524c1.84,1.117,2.716,3.889,1.471,5.817c-0.337,0.521-0.676,1.043-1.007,1.571
		c0.03,0.028,0.063,0.049,0.093,0.079c0.923,0.956,1.374,2.532,1.137,3.93c9.664-0.277,0.415-4.396,0.415-4.396l7.966-6.378
		l5.596-2.479l2.041-1.418l-0.46-5.245c0,0-15.143-0.851-18.896-19.771c1.778-4.11,2.371-8.08-0.396-11.623
		c0,0-8.756-9.001,4.148-12.686c0,0,6.716,5.315,9.349-4.322c0,0-2.304,8.007,4.608,8.857c6.69,0.823,8.935-3.918,9.252-5.381
		c-0.193,1.316-0.764,6.916,2.203,6.799c3.622-0.142,7.968-4.039,8.363-6.235c2.172-2.552,4.41,0.708,4.016,7.653
		c0,0-2.306,5.102,0.723,7.37c3.031,2.268,0.199,11.197,0.199,11.197L50.259,68.271l-0.266,4.677l6.914,1.771
		c0,0,16.79,10.631,22.189,2.126c5.002-5.812,1.053-9.852,1.053-9.852S92.329,65.152,91.473,53.884z"/>
	<path fill="#EAB473" d="M39.601,74.861c0,0,2.256,6.307,8.953,4.748c6.697-1.559,8.883-4.89,8.883-4.89l-7.176-1.771l-0.203-5.103
		l-4.374-0.638l-0.137,6.023L39.601,74.861z"/>
	<path fill="#F8D7AA" d="M25.727,42.758c0,0-2.528,22.395,22.758,25.726c23.646-2.409,21.39-22.04,21.459-22.536
		c0,0,0-21.118-0.615-22.394c-0.615-1.276-26.585-7.726-26.585-7.726l-6.22-0.142C36.524,15.687,23.267,21.215,25.727,42.758z"/>
	<path fill="none" stroke="#231F20" d="M39.464,32.411c0,0-6.356-2.692-12.166,3.898"/>
	<path fill="none" stroke="#231F20" d="M54.772,31.845c0,0,5.672-2.269,11.686,2.479"/>
	<path fill="#231F20" d="M45.348,53.886c0,0,1.194,3.483,3.742,0.583C47.238,54.997,46.605,54.949,45.348,53.886z"/>
	<path fill="#231F20" d="M48.758,62.53c0,0,7.175-2.126,7.859-4.606C58.804,57.712,57.437,61.751,48.758,62.53z"/>
	<ellipse fill="#EF4137" cx="42.813" cy="93.926" rx="2.46" ry="2.622"/>
	<ellipse fill="#F69321" cx="47.494" cy="92.614" rx="2.836" ry="2.728"/>
	<ellipse fill="#EF4137" cx="52.005" cy="92.792" rx="2.699" ry="2.693"/>
	<ellipse fill="#EF4137" cx="48.759" cy="97.043" rx="2.802" ry="2.764"/>
	<ellipse fill="#F69321" cx="43.736" cy="97.823" rx="2.563" ry="2.409"/>
	<ellipse fill="#F69321" cx="55.182" cy="95.378" rx="2.734" ry="2.871"/>
	<path fill="#F8D7AA" d="M30.717,87.22c0,0-2.467,24.977,21.53,20.148c-16.906-2.571-17.228-16.292-16.292-19.59
		C35.955,87.778,33.288,85.094,30.717,87.22z"/>
	<ellipse fill="#AADDDF" cx="65.192" cy="80.887" rx="7.757" ry="8.291"/>
	<g>
		<ellipse fill="#FFFFFF" cx="35.393" cy="44.344" rx="4.006" ry="3.751"/>
		<ellipse fill="#010101" cx="37.201" cy="45.26" rx="1.687" ry="1.75"/>
		<path fill="#FFFFFF" d="M37.306,44.602c0,0.29-0.227,0.525-0.508,0.525c-0.282,0-0.509-0.235-0.509-0.525
			c0-0.293,0.228-0.529,0.509-0.529C37.079,44.072,37.306,44.309,37.306,44.602z"/>
		<path fill="#EAB473" d="M39.448,44.272c-2.168-0.86-3.976-1.804-8.18,0c0-2.069,1.833-3.749,4.089-3.749
			C37.615,40.523,39.448,42.203,39.448,44.272z"/>
		<path fill="#010101" d="M39.727,44.532c-2.385-0.86-4.375-1.806-9,0c1.821-1.267,3.107-1.343,4.571-1.417
			C36.762,43.043,38.903,43.893,39.727,44.532z"/>
		<path fill="#231F20" d="M29.645,44.027c0,0,1.095,0.991,2.212,0.251C32.973,43.538,29.645,44.027,29.645,44.027z"/>
	</g>
	<ellipse fill="#FFFFFF" cx="59.585" cy="43.812" rx="4.005" ry="3.75"/>
	<ellipse fill="#010101" cx="61.395" cy="44.729" rx="1.687" ry="1.749"/>
	<ellipse fill="#FFFFFF" cx="60.99" cy="44.069" rx="0.509" ry="0.527"/>
	<path fill="#EAB473" d="M63.641,43.742c-2.168-0.861-3.976-1.805-8.181,0c0-2.07,1.834-3.749,4.09-3.749
		C61.808,39.993,63.641,41.672,63.641,43.742z"/>
	<path fill="#010101" d="M63.919,44c-2.385-0.859-4.374-1.805-9,0c1.821-1.267,3.107-1.341,4.572-1.416
		C60.954,42.511,63.097,43.361,63.919,44z"/>
	<path fill="#231F20" d="M65.556,43.55c0,0-1.096,0.989-2.212,0.25C62.228,43.06,65.556,43.55,65.556,43.55z"/>
	<g>
		<ellipse fill="#EF4137" cx="49.202" cy="88.397" rx="2.562" ry="2.552"/>
		<path fill="none" stroke="#8A5E3C" d="M51.509,82.48c0,0-3.127,0.212-2.512,4.358"/>
	</g>
	<g>
		<path fill="#EF4137" d="M58.458,123.405c0.882,1.073,0.724,2.714-0.354,3.665c-1.076,0.953-2.664,0.856-3.546-0.215
			c-0.882-1.072-0.724-2.714,0.354-3.667C55.988,122.236,57.577,122.333,58.458,123.405z"/>
		<path fill="none" stroke="#8A5E3C" d="M54.559,119.075c0,0-2.245,2.267,0.817,5.007"/>
	</g>
	<g>
		<path fill="#EF4137" d="M67.373,145.392c-0.96,0.998-2.551,0.967-3.553-0.068s-1.038-2.686-0.079-3.684
			c0.959-0.997,2.55-0.967,3.553,0.069C68.296,142.744,68.331,144.395,67.373,145.392z"/>
		<path fill="none" stroke="#8A5E3C" d="M71.219,141.012c0,0-2.36-2.138-4.746,1.249"/>
	</g>
	<path fill="none" stroke="#8A5E3C" d="M39.463,89.337c0,0,2.768-0.373,2.563,3.614"/>
	<path fill="none" d="M57.249,89.177"/>
	<path fill="none" stroke="#8A5E3C" d="M55.95,90.383c0,0,2.05-3.296,3.998-0.957"/>
	<path fill="none" stroke="#8A5E3C" d="M69.892,126.95c0,0,2.051-3.295,3.998-0.957"/>
	<path fill="none" stroke="#8A5E3C" d="M60.05,105.902c0,0,2.051-3.295,3.998-0.957"/>
	<path fill="none" stroke="#8A5E3C" d="M48.074,91.409c0,0,3.331-1.275,3.536,1.436"/>
	<path fill="#FCEE21" d="M18.551,34.324c3.258,3.717,8.701,1.547,10.871-1.92c1.84-2.939,5.727-12.84,10.255-6.796
		c1.556,2.076,0.812,4.466,3.939,5.112c4.563,0.945,5.714-2.348,8.138-5.538c1.661-2.185,6.077-5.065,7.617-1.063
		c0.928,2.41-0.301,6.355,2.81,7.851c2.229,1.07,4.762-1.384,6.953-0.626c2.513,0.869,1.683,5.217,0.713,7.186
		c-1.344,2.729-4.049,4.586-4.555,7.691c-0.726,4.456,2.475,8.599,6.99,6.286c4.889-2.504,2.671-11.563,1.512-15.731
		c-1.244-4.471-1.736-9.336-4.393-13.171c-2.805-4.049-5.99-7.76-10.41-9.919c-2.279-1.113-7.004-2.789-9.48-1.642
		c-1.225,0.567-2.067,1.931-3.292,2.478c-1.465,0.65-3.48,0.459-5.034,0.456c-4.31-0.011-8.831-0.407-13.034,0.622
		c-5.938,1.454-10.375,4.9-11.198,11.497c-0.12,0.962-0.438,3.545-0.001,4.527c0.583,1.309,1.886,1.237,2.83,2.275"/>
	<ellipse fill="#EF4137" cx="55.318" cy="91.586" rx="2.528" ry="2.586"/>
	<path fill="#FCEE21" d="M35.568,93.075c0,0,4.716,1.417,5.878,12.047c8.474,4.536,17.154-0.708,17.154-0.708
		s-1.778-7.087,3.621-12.969c-3.69,1.205-7.107,4.04-7.654,7.583c0,0-1.503-4.183-0.889-7.938c-2.254,3.401-4.715,8.787-4.715,8.787
		s-2.323-5.173-3.075-8.574c-0.957,4.323-1.093,8.504-2.666,9C43.223,100.304,41.514,93.288,35.568,93.075z"/>
	<ellipse fill="#EF4137" cx="61.231" cy="69.334" rx="2.7" ry="2.764"/>
	<path fill="#F8D7AA" d="M63.521,64.586c0,0,3.896-3.118,4.646-1.701c0.752,1.417,2.938,26.789,7.449,28.561
		s3.008-23.245-5.398-31.324C65.365,56.152,63.521,64.586,63.521,64.586z"/>
	<path fill="none" stroke="#754D29" d="M64.972,63.824c0,0,1.229,4.465-2.615,4.677"/>
	<ellipse fill="#EF4137" cx="62.835" cy="103.635" rx="2.016" ry="1.938"/>
	<ellipse fill="#F69321" cx="69.807" cy="127.207" rx="2.016" ry="1.94"/>
	<path fill="#FCEE21" d="M53.011,23.463c-0.009-0.097-0.021-0.189-0.029-0.286c-0.166-1.929-0.143-4.13-1.324-5.749
		c-1.209-1.658-2.895-3.019-3.902-4.842c0.01,0.166,0.021,0.266,0.021,0.266C32.896-7.275,30.659,4.631,30.659,4.631
		c0.592,1.63,2.172,9.213-3.885,8.221C20.508,8.899,15.56,9.453,14.106,9.793c-0.089-0.174-8.502,1.539-3.594,10.996
		c5.332,10.275,1.053,9.425,0.789,9.851c-0.263,0.425-6.518-3.472-8.888,1.275c-2.371,4.749,3.225,8.221,3.225,8.221
		s-2.436-0.566-3.753,2.835c-1.317,3.402,3.358,6.945,3.358,6.945s-5.464-0.921-5.201,5.103
		c-0.856,11.269,11.324,13.11,11.324,13.11s-3.95,4.04,1.053,9.852c5.398,8.505,22.189-2.127,22.189-2.127l6.913-1.771l-0.264-4.679
		L22.561,50.908c0,0-2.833-8.93,0.198-11.197c3.029-2.269,0.723-7.37,0.723-7.37c-0.395-6.945,1.844-10.205,4.017-7.654
		c0.395,2.196,4.74,6.096,8.362,6.236c2.968,0.116,2.397-5.481,2.203-6.8c0.318,1.465,2.562,6.205,9.252,5.383
		c6.912-0.851,4.608-8.859,4.608-8.859C52.235,21.785,52.604,22.708,53.011,23.463z"/>
	<path fill="#AADDDF" d="M41.172,81.064c0,4.637-3.779,8.396-8.439,8.396c-4.663,0-8.441-3.76-8.441-8.396
		c0-4.641,3.779-8.399,8.441-8.399C37.394,72.665,41.172,76.424,41.172,81.064z"/>
</g>
</svg>
