<?xml version="1.0" encoding="utf-8"?>
<!-- Generator: Adobe Illustrator 13.0.0, SVG Export Plug-In . SVG Version: 6.00 Build 14948)  -->
<svg version="1.2" baseProfile="tiny" id="Layer_1" xmlns="http://www.w3.org/2000/svg" xmlns:xlink="http://www.w3.org/1999/xlink"
	 x="0px" y="0px" width="103.536px" height="174.767px" viewBox="0 0 103.536 174.767" xml:space="preserve">
<g>
	<path fill="#F05151" d="M40.282,150.035c0,0,1.138,18.194,6.824,24.307c-0.996-9.098-2.702-24.307-2.702-24.307H40.282z"/>
	<path fill="#F05151" d="M57.625,150.46c0,0-1.139,18.194-6.823,24.307c0.995-9.098,2.701-24.307,2.701-24.307H57.625z"/>
	<path fill="#BE202E" d="M26.068,86.213c0,0-25.585,10.376-7.391,20.61c18.193,10.234,21.177-4.264,20.183-9.098
		c-0.995-4.833,9.381-10.945,9.24-11.656c-0.143-0.71,3.27-9.239,3.27-9.239l-1.139-9.239L30.616,54.089
		c0,0-27.576-9.239-30.418,13.93C-2.645,91.188,26.068,86.213,26.068,86.213z"/>
	<path fill="#BE202E" d="M77.468,85.929c0,0,25.583,10.375,7.391,20.61c-18.194,10.234-21.179-4.264-20.185-9.097
		c0.995-4.833-9.381-10.945-9.238-11.655c0.143-0.711-3.27-9.24-3.27-9.24l1.137-9.239l19.615-13.503c0,0,27.576-9.239,30.419,13.93
		S77.468,85.929,77.468,85.929z"/>
	<path fill="#F05151" d="M23.083,106.681c0,0-13.646,18.621-21.18,17.483c0.284,16.772,68.229,59.132,97.083-3.127
		c0,0-8.244,5.401-19.189-13.788C68.853,88.061,23.083,106.681,23.083,106.681z"/>
	<path fill="#F05151" d="M40.993,89.766c0,0-34.967,14.356-21.109,20.54C33.743,116.488,40.993,89.766,40.993,89.766z"/>
	<path fill="#F48179" d="M43.196,99.715c0,0-21.037,20.54-7.604,25.373c13.433,4.833,10.234-21.464,10.234-24.093
		C45.826,98.366,43.196,99.715,43.196,99.715z"/>
	<path fill="#F48179" d="M56.167,86.532c0,0,42.643,21.535,17.341,26.368C48.207,117.732,56.167,86.532,56.167,86.532z"/>
	<path fill="#F48179" d="M49.002,89.501c0,0-17.674,38.227,2.511,39.318c20.184,1.092,3.909-38.992,2.255-39.38
		C52.114,89.049,51.467,87.375,49.002,89.501z"/>
	<path fill="#F48179" d="M45.434,86.781c0,0-35.89,21.889-24.731,32.763s28.782-26.936,28.356-29.778
		C48.633,86.923,45.434,86.781,45.434,86.781z"/>
	<path fill="#F48179" d="M56.273,87.563c0,0,31.911,26.651,14.784,34.896c-17.131,8.244-18.408-30.275-17.343-33.261
		C54.78,86.213,56.273,87.563,56.273,87.563z"/>
	<path fill="#EAB473" d="M48.669,70.719l0.283,4.548c0,0,2.559,2.346,4.05-0.426c0-1.918-0.069-4.193-0.069-4.193
		S50.587,67.948,48.669,70.719z"/>
	<path fill="#F8D7AA" d="M29.692,58.993c0,0,3.34,10.376,21.251,12.082c16.487-2.417,21.747-17.412,21.96-18.692l1.562-5.615
		l-7.105-14.569l-25.515-7.676l-4.548-1.776c0,0-8.67,14.143-9.096,14.783c-0.427,0.639-3.128,11.016-3.128,11.016l1.989,5.97
		L29.692,58.993z"/>
	<g>
		
			<ellipse transform="matrix(-0.8976 0.4407 -0.4407 -0.8976 90.5704 72.496)" fill="#FFFFFF" cx="36.867" cy="46.765" rx="4.371" ry="3.461"/>
		<path fill="#010101" d="M32.767,48.372c-0.089-4.837,5.063-6.188,7.846-3.853c-0.841-1.716-3.281-2.244-5.448-1.18
			C32.998,44.403,31.925,46.656,32.767,48.372z"/>
		<circle fill="#010101" cx="36.799" cy="45.027" r="1.706"/>
		<circle fill="#FFFFFF" cx="36.322" cy="44.512" r="0.551"/>
	</g>
	<g>
		
			<ellipse transform="matrix(0.8977 0.4407 -0.4407 0.8977 26.7791 -22.6389)" fill="#FFFFFF" cx="62.134" cy="46.339" rx="4.372" ry="3.462"/>
		<path fill="#010101" d="M66.235,47.946c0.088-4.837-5.064-6.188-7.848-3.853c0.842-1.716,3.282-2.244,5.449-1.181
			C66.004,43.977,67.077,46.23,66.235,47.946z"/>
		<circle fill="#010101" cx="62.202" cy="44.601" r="1.706"/>
		<circle fill="#FFFFFF" cx="62.681" cy="44.086" r="0.55"/>
	</g>
	<path fill="#010101" d="M47.64,55.155c0,0,1.526-1.848,3.587,0.07C50.766,54.053,48.705,53.093,47.64,55.155z"/>
	<path fill="#F48179" d="M56.088,61.642c-0.928,0.534-1.947,1.118-1.947,1.118s0.925,2.474,3.513,2.08
		c2.588-0.394,0.159-4.207-0.095-4.05C57.448,60.858,56.793,61.235,56.088,61.642z"/>
	<line fill="none" stroke="#F26964" x1="58.014" y1="64.287" x2="56.095" y2="61.871"/>
	<path fill="none" stroke="#010101" stroke-linecap="round" stroke-linejoin="round" d="M40.211,36.818c0,0-5.971-0.355-9.027,5.33"
		/>
	<path fill="#F5822B" d="M39.429,25.163C39.5,25.57,41.846,39.803,54.212,40.94c-3.199-2.558-6.468-5.045-4.975-8.884
		c1.208,2.914,18.479,11.798,18.479,11.798s-2.418-3.411-3.341-6.467c-0.924-3.056,7.462,5.401,8.528,9.95
		c0.71,2.417,0.356,5.188-1.35,7.534c2.984-0.64,6.75-4.833,5.401-19.047c0,0-3.909-19.615-24.521-20.895
		c-9.594-0.142-12.581,5.686-12.722,5.757C39.713,20.685,39.146,23.528,39.429,25.163z"/>
	<path fill="#F5822B" d="M28.697,51.885c1.138,1.777,2.347,0.853,2.701-0.568c-1.563,0.498-7.108-4.052-0.782-11.443
		c6.326-7.391,8.672-10.731,8.813-14.711c0.141-3.979-0.001-11.016-9.239-3.27c-9.239,7.747-11.585,20.469-6.895,28.571
		c4.691,8.102,4.336,6.894,6.468,9.239C27.894,56.529,27.56,50.108,28.697,51.885z"/>
	<path fill="#F48179" d="M44.689,17.132c0,0,0.851-7.604-3.697-11.869c1.565,0,4.336,0.924,4.762,3.411c0,0,2.204-8.884,2.133-8.67
		c-0.071,0.213,2.061,7.817,2.061,7.817s1.563-4.478,5.118-5.26c-2.631,2.488-4.265,9.595-2.915,12.864
		C52.151,15.426,49.452,18.34,44.689,17.132z"/>
	<path fill="#F05151" d="M29.934,21.802c0,0-5.116-6.013-1.548-7.309c3.569-1.296,1.747,7.565,1.747,7.565s0.077-0.022,0.212-0.069
		c0.933-0.327,4.577-1.821,3.392-4.903c0,0-2.521-3.265-3.155,4.18"/>
	
		<ellipse transform="matrix(-0.7133 -0.7008 0.7008 -0.7133 18.675 62.5582)" fill="#F5822B" cx="22.133" cy="27.459" rx="7.307" ry="9.908"/>
	
		<ellipse transform="matrix(-0.7133 -0.7008 0.7008 -0.7133 18.0731 61.6861)" fill="#F9A266" cx="21.653" cy="27.147" rx="5.073" ry="6.878"/>
	
		<ellipse transform="matrix(-0.7134 -0.7008 0.7008 -0.7134 17.509 61.0367)" fill="#FDD6BC" cx="21.237" cy="26.938" rx="3.487" ry="4.729"/>
	<g>
		<path fill="#F05151" d="M67.898,20.63c0,0,5.689-5.473,2.269-7.119c-3.422-1.646-2.493,7.353-2.493,7.353s-0.075-0.03-0.203-0.09
			c-0.896-0.418-4.373-2.269-2.887-5.218c0,0,2.834-2.996,2.723,4.475"/>
		<path fill="#F5822B" d="M80.792,22.462c3.426,4.267,3.654,9.773,0.507,12.3c-3.148,2.527-8.476,1.116-11.902-3.15
			c-3.424-4.266-3.651-9.773-0.505-12.3C72.039,16.785,77.367,18.196,80.792,22.462z"/>
		
			<ellipse transform="matrix(0.7798 -0.6261 0.6261 0.7798 -0.1114 53.2317)" fill="#F9A266" cx="75.604" cy="26.774" rx="5.073" ry="6.877"/>
		
			<ellipse transform="matrix(0.7797 -0.6262 0.6262 0.7797 0.0911 53.4742)" fill="#FDD6BC" cx="76.04" cy="26.608" rx="3.487" ry="4.728"/>
	</g>
	<path fill="#F05151" d="M57.625,74.984c3.409,11.868-4.053,14.568-4.053,14.568s-2.628,0.853-5.046-0.213
		c-7.107-2.345-4.975-13.646-4.975-13.646S46.749,74.628,57.625,74.984z"/>
	<path fill="#F48179" d="M51.156,85.36c0,0-3.838-2.274-4.903-4.051c-1.066-1.777,2.417-5.046,4.478-0.853
		c0.781-1.99,4.548-3.909,4.548,0.853C53.714,85.075,51.156,85.36,51.156,85.36z"/>
	<g>
		<circle fill="#F48179" cx="13.631" cy="70.15" r="9.275"/>
		<circle fill="#BE202E" cx="13.461" cy="69.98" r="6.723"/>
		<circle fill="#F48179" cx="13.489" cy="70.123" r="4.85"/>
	</g>
	<circle fill="#F48179" cx="87.547" cy="69.326" r="9.488"/>
	<circle fill="#BE202E" cx="87.373" cy="69.152" r="6.877"/>
	<circle fill="#F48179" cx="87.401" cy="69.297" r="4.961"/>
	<path fill="none" stroke="#010101" stroke-linecap="round" stroke-linejoin="round" d="M41.42,59.846c0,0,9.701,8.706,18.868-1.884
		"/>
	<path fill="#F05151" d="M48.008,88.744c0,0-25.99,20.402-9.761,28.896C54.478,126.134,48.008,88.744,48.008,88.744z"/>
	<path fill="#F05151" d="M53.542,88.699c0,0-4.28,32.764,13.256,27.469C84.335,110.872,53.542,88.699,53.542,88.699z"/>
	<g>
		<path fill="#F8D7AA" d="M43.872,76.09c0,0-22.862-14.589-31.77-39.168c-0.278,4.011-0.058,22.807,31.158,44.486
			C43.26,81.408,45.046,78.831,43.872,76.09z"/>
		<path fill="#F8D7AA" d="M12.975,41.083c0,0,0.96-1.279,0.747-2.559c-0.212-1.279,1.067,1.563-0.32,3.411
			C12.015,43.783,12.975,41.083,12.975,41.083z"/>
	</g>
	<g>
		<path fill="#F8D7AA" d="M57.625,74.984c0,0,21.747-16.205,28.854-41.363c0.568,3.98,1.706,22.743-27.859,46.622
			C58.619,79.817,56.628,77.969,57.625,74.984z"/>
		<path fill="#F8D7AA" d="M86.21,38.169c0,0-1.278-1.279-0.995-2.559c0.284-1.28-1.422,1.563,0.427,3.412
			C87.489,40.871,86.21,38.169,86.21,38.169z"/>
	</g>
</g>
</svg>
