<?xml version="1.0" encoding="utf-8"?>
<!-- Generator: Adobe Illustrator 13.0.0, SVG Export Plug-In . SVG Version: 6.00 Build 14948)  -->
<svg version="1.2" baseProfile="tiny" id="Layer_1" xmlns="http://www.w3.org/2000/svg" xmlns:xlink="http://www.w3.org/1999/xlink"
	 x="0px" y="0px" width="129.37px" height="200.998px" viewBox="0 0 129.37 200.998" xml:space="preserve">
<g>
	<path fill="#F6C6DD" d="M55.902,9.841l8.338,9.978l13.668-4.305c0,0-0.137-8.542,0.137-11.413s-2.733,3.144-2.733,3.144
		l0.273-7.107l-3.964,5.741L69.981,0l-1.641,6.288l-4.237-4.511l0.41,6.697l-5.331-4.101l1.777,6.561L55.902,9.841z"/>
	
		<ellipse transform="matrix(0.97 -0.2433 0.2433 0.97 -45.5429 24.3916)" fill="#F5822B" cx="75.992" cy="196.603" rx="2.537" ry="4.442"/>
	
		<ellipse transform="matrix(0.9021 0.4316 -0.4316 0.9021 93.3617 -17.7731)" fill="#F5822B" cx="85.844" cy="196.838" rx="2.575" ry="4.442"/>
	<path fill="#EDABCD" d="M93.491,85.495c0,0,30.343,13.327,28.293,54.126s1.845,40.185,7.586,43.056
		c-4.306,5.535-49.206,25.013-78.935,3.485c0,0-31.983-7.996-50.436-47.976c5.125-1.23,9.636-7.381,9.636-7.381
		S40.39,83.445,67.248,88.161C90.21,87.34,93.491,85.495,93.491,85.495z"/>
	<ellipse fill="#F5822B" cx="52.35" cy="62.054" rx="3.963" ry="4.101"/>
	<ellipse fill="#F5822B" cx="49.958" cy="65.676" rx="3.349" ry="3.075"/>
	<ellipse fill="#F5822B" cx="47.087" cy="68.547" rx="2.666" ry="2.938"/>
	<path fill="#F6C6DD" d="M93.491,86.018l1.64-11.027L90.107,64.07l-14.659,2.625l-2.768,6.511l-0.513,9.346l2.666,4.726
		C74.834,87.278,81.805,88.958,93.491,86.018z"/>
	<path fill="#FAAF42" d="M71.673,70.146c0,0,14.841,1.637,12.71,12.848c-2.131,11.212-1.895,10.86-3.057,11.037
		c-1.162,0.177-1.561-5.886-1.561-5.886l-7.536,1.563c0,0-1.753,1.681-0.128,5.908c0.016,1.155-4.905,0.433-3.407-7.646
		C70.191,79.891,71.673,70.146,71.673,70.146z"/>
	<ellipse fill="#F5822B" cx="97.797" cy="51.393" rx="7.723" ry="7.928"/>
	<ellipse fill="#F5822B" cx="93.149" cy="57.749" rx="8.543" ry="8.132"/>
	<path fill="#F8D7AA" d="M100.462,38.442c0,0,3.793,18.964-8.714,26.55c-7.073,5.331-18.555,2.255-18.555,2.255
		S62.43,64.685,57.919,49.309c-4.511-15.377,6.048-16.095,6.048-16.095s12.609-12.199,16.812-7.381
		c4.203,4.818,10.661-7.893,16.914,4.101C103.947,41.928,100.462,38.442,100.462,38.442z"/>
	<circle fill="#EDABCD" cx="96.976" cy="70.665" r="8.201"/>
	<path fill="none" stroke="#231F20" stroke-linecap="round" stroke-linejoin="round" d="M82.829,63.455c0,0,5.331,3.485,9.124-2.563
		"/>
	<path fill="#231F20" d="M84.726,58.518c0,0,2.769,1.641,3.537-1.162C86.93,58.244,86.776,58.723,84.726,58.518z"/>
	<g>
		<path fill="#FFFFFF" d="M68.375,52.948c-0.444,1.315,1.128,1.23,1.128,1.23s2.221-2.204,3.485-2.46
			c1.675-0.563,4.151-0.153,4.151-0.153s1.025-1.384,0.052-1.743C76.218,49.462,70.493,49.24,68.375,52.948z"/>
		<path fill="#231F20" d="M77.704,49.975c0,0-5.792-1.538-9.637,3.537C68.17,52.179,72.425,46.746,77.704,49.975z"/>
		<path fill="#231F20" d="M69.35,54.383c0,0,2.973-3.485,8.047-2.768C73.757,50.795,71.604,51.667,69.35,54.383z"/>
		
			<ellipse transform="matrix(0.8461 -0.533 0.533 0.8461 -16.7104 45.6489)" fill="#231F20" cx="70.7" cy="51.764" rx="1.503" ry="1.115"/>
		<ellipse fill="#FFFFFF" cx="71.092" cy="51.205" rx="0.41" ry="0.307"/>
	</g>
	<g>
		<path fill="#FFFFFF" d="M88.365,47.515c-0.444,1.315,1.128,1.23,1.128,1.23s2.221-2.204,3.485-2.46
			c1.675-0.563,4.151-0.154,4.151-0.154s1.025-1.384,0.052-1.743C96.207,44.029,90.483,43.807,88.365,47.515z"/>
		<path fill="#231F20" d="M97.693,44.542c0,0-5.791-1.538-9.636,3.537C88.16,46.746,92.414,41.312,97.693,44.542z"/>
		<path fill="#231F20" d="M89.339,48.95c0,0,2.973-3.485,8.048-2.768C93.747,45.362,91.595,46.233,89.339,48.95z"/>
		
			<ellipse transform="matrix(0.8462 -0.5329 0.5329 0.8462 -10.7397 55.4537)" fill="#231F20" cx="90.69" cy="46.331" rx="1.503" ry="1.115"/>
		<ellipse fill="#FFFFFF" cx="91.082" cy="45.772" rx="0.41" ry="0.308"/>
	</g>
	<path fill="none" stroke="#231F20" d="M74.577,40.8c0,0-6.766-2.357-11.122,7.483"/>
	<path fill="none" stroke="#231F20" d="M84.253,36.599c0,0,3.772-6.091,13.353-1.186"/>
	<ellipse fill="#F5822B" cx="83.675" cy="39.108" rx="1.768" ry="1.691"/>
	<ellipse fill="#F5822B" cx="82.394" cy="36.315" rx="2.127" ry="1.974"/>
	<circle fill="#F5822B" cx="80.728" cy="34.239" r="2.358"/>
	<circle fill="#F5822B" cx="79.19" cy="31.164" r="2.87"/>
	<circle fill="#F5822B" cx="78.806" cy="25.09" r="5.664"/>
	<ellipse fill="#F5822B" cx="66.223" cy="29.319" rx="8.132" ry="6.766"/>
	<ellipse fill="#F5822B" cx="57.817" cy="38.818" rx="7.107" ry="8.201"/>
	<ellipse fill="#F5822B" cx="53.102" cy="47.771" rx="7.039" ry="7.723"/>
	<ellipse fill="#F5822B" cx="49.616" cy="40.8" rx="7.107" ry="7.996"/>
	<ellipse fill="#F5822B" cx="48.454" cy="52.281" rx="6.629" ry="7.859"/>
	<ellipse fill="#F5822B" cx="54.742" cy="54.81" rx="5.946" ry="5.604"/>
	<ellipse fill="#F5822B" cx="54.127" cy="31.642" rx="6.15" ry="6.629"/>
	<ellipse fill="#F5822B" cx="60.346" cy="23.852" rx="6.493" ry="6.082"/>
	<ellipse fill="#F5822B" cx="72.237" cy="19.272" rx="8.133" ry="6.971"/>
	<ellipse fill="#F5822B" cx="84.676" cy="22.075" rx="6.766" ry="7.176"/>
	<ellipse fill="#F5822B" cx="94.721" cy="21.049" rx="7.517" ry="7.381"/>
	<ellipse fill="#F5822B" cx="99.232" cy="29.523" rx="7.517" ry="7.108"/>
	<ellipse fill="#F5822B" cx="101.009" cy="21.596" rx="4.511" ry="4.784"/>
	<ellipse fill="#F5822B" cx="85.017" cy="14.42" rx="6.561" ry="5.809"/>
	<ellipse fill="#F5822B" cx="104.358" cy="38.887" rx="6.356" ry="6.492"/>
	<ellipse fill="#F5822B" cx="108.117" cy="31.096" rx="5.331" ry="5.946"/>
	<circle fill="#F5822B" cx="104.495" cy="44.627" r="5.399"/>
	<ellipse fill="#F5822B" cx="106.203" cy="48.318" rx="3.69" ry="3.212"/>
	<ellipse fill="#F5822B" cx="108.8" cy="51.53" rx="2.734" ry="2.597"/>
	<ellipse fill="#F5822B" cx="110.713" cy="53.785" rx="1.777" ry="1.708"/>
	<ellipse fill="#F5822B" cx="112.695" cy="55.835" rx="1.435" ry="1.162"/>
	
		<ellipse transform="matrix(0.9522 -0.3055 0.3055 0.9522 -14.2189 25.4534)" fill="#F48179" cx="74.219" cy="58.159" rx="3.417" ry="2.939"/>
	
		<ellipse transform="matrix(0.9522 -0.3054 0.3054 0.9522 -14.1895 25.3463)" fill="#F8B2B0" cx="73.911" cy="58.022" rx="2.783" ry="2.393"/>
	
		<ellipse transform="matrix(0.9522 -0.3055 0.3055 0.9522 -11.1347 31.2315)" fill="#F48179" cx="94.208" cy="51.188" rx="3.417" ry="2.939"/>
	<path fill="#F6C6DD" d="M64.788,117.274c0,0,4.51-7.243-3.964-7.653c-8.475-0.41-4.647,11.48-5.057,9.703
		c-0.41-1.775,1.914,7.793,1.229,9.705c-0.684,1.914,0.956,0.683,13.258-1.094c9.979-4.236,4.237-10.114,4.237-10.114
		S71.213,114.95,64.788,117.274z"/>
	<path fill="#F6C6DD" d="M69.411,151.396c0,0,1.016-3.473-2.492-2.675s-0.59,5.22-0.959,4.541c-0.37-0.679,1.67,2.964,1.608,3.823
		c-0.062,0.859,0.468,0.169,5.29-1.957c3.592-2.868,0.578-4.615,0.578-4.615S71.77,149.714,69.411,151.396z"/>
	<path fill="#F6C6DD" d="M47.271,173.248c0,0,1.278-4.371-3.136-3.367c-4.414,1.005-0.742,6.568-1.207,5.715
		c-0.466-0.854,2.102,3.729,2.025,4.812c-0.079,1.081,0.588,0.213,6.656-2.463c4.521-3.609,0.729-5.808,0.729-5.808
		S50.238,171.13,47.271,173.248z"/>
	<path fill="#F6C6DD" d="M63.232,138.212c0,0,0.756-2.582-1.852-1.988c-2.607,0.593-0.438,3.879-0.713,3.375
		c-0.275-0.504,1.241,2.203,1.196,2.842c-0.047,0.639,0.348,0.125,3.932-1.455c2.67-2.131,0.43-3.43,0.43-3.43
		S64.986,136.962,63.232,138.212z"/>
	<path fill="#F6C6DD" d="M44.097,126.955c0,0,0.985-3.286-2.375-2.52c-3.361,0.767-0.584,4.936-0.936,4.297
		c-0.352-0.641,1.588,2.795,1.527,3.609c-0.062,0.812,0.446,0.157,5.071-1.869c3.449-2.727,0.569-4.366,0.569-4.366
		S46.36,125.355,44.097,126.955z"/>
	<path fill="#F6C6DD" d="M58.77,98.145c0,0,1.615-3.027-1.83-2.94c-3.447,0.088-1.548,4.724-1.766,4.027s1.004,3.055,0.784,3.84
		c-0.222,0.784,0.406,0.244,5.34-0.831c3.921-1.989,1.422-4.167,1.422-4.167S61.305,97.025,58.77,98.145z"/>
	<path fill="#F6C6DD" d="M78.777,99.918c0,0,0.327-2.706-2.2-1.652c-2.527,1.054,0.21,3.943-0.151,3.49
		c-0.362-0.454,1.62,1.974,1.683,2.618c0.06,0.646,0.371,0.064,3.718-2.147c2.333-2.599-0.143-3.494-0.143-3.494
		S80.333,98.36,78.777,99.918z"/>
	<path fill="#F6C6DD" d="M95.377,92.179c0,0-0.626-2.051-2.109-0.488s1.407,2.77,1.003,2.56c-0.405-0.211,1.795,0.905,2.045,1.349
		c0.249,0.444,0.287-0.072,1.991-2.731c0.851-2.612-1.217-2.468-1.217-2.468S96,90.562,95.377,92.179z"/>
	<path fill="#F6C6DD" d="M36.392,112.478c0,0,3.905-3.453-1.046-5.157c-4.954-1.704-4.711,5.903-4.651,4.796S30.504,117,29.773,118
		c-0.732,0.998,0.449,0.562,8.044,1.651c6.636-0.753,4.234-5.179,4.234-5.179S40.595,112.227,36.392,112.478z"/>
	<path fill="#F6C6DD" d="M43.914,148.46c0,0,5.66-6.738-3.647-8.035c-9.309-1.297-6.213,10.941-6.497,9.131
		c-0.284-1.812,1.373,7.957,0.438,9.789c-0.936,1.834,0.991,0.78,14.728,0.303c11.407-3.171,5.632-9.625,5.632-9.625
		S51.221,146.822,43.914,148.46z"/>
	<path fill="#F6C6DD" d="M18.209,137.753c0,0,3.613-4.301-2.328-5.129c-5.94-0.827-3.965,6.984-4.146,5.828
		c-0.183-1.156,0.876,5.079,0.279,6.248c-0.598,1.17,0.632,0.498,9.399,0.193c7.28-2.023,3.595-6.143,3.595-6.143
		S22.873,136.708,18.209,137.753z"/>
	<path fill="#F6C6DD" d="M74.03,173.961c0,0,0.479-7.705-6.712-3.878c-7.191,3.825,1.308,10.989,0.171,9.84
		c-1.136-1.149,5.077,4.985,5.369,6.773c0.292,1.787,1.099,0.049,10.474-7.305c6.353-8.09-1.032-9.754-1.032-9.754
		S78.302,169.059,74.03,173.961z"/>
	<path fill="#F6C6DD" d="M96.372,142.114c0,0-0.479-7.705,6.712-3.878c7.191,3.825-1.308,10.989-0.171,9.84
		s-5.077,4.985-5.369,6.773c-0.291,1.787-1.098,0.049-10.474-7.305c-6.352-8.09,1.032-9.754,1.032-9.754
		S92.102,137.212,96.372,142.114z"/>
	<path fill="#F6C6DD" d="M98.137,107.937c0,0-1.213-7.213,5.846-4.127c7.057,3.084-0.12,10.43,0.82,9.268s-4.217,5.053-4.31,6.756
		c-0.093,1.702-1.015,0.125-10.451-6.123c-6.701-7.155-0.013-9.248-0.013-9.248S93.684,103.632,98.137,107.937z"/>
	<path fill="#F6C6DD" d="M89.097,124.49c0,0-0.554-3.295,2.67-1.887c3.224,1.41-0.055,4.766,0.375,4.234
		c0.429-0.531-1.927,2.309-1.969,3.085c-0.043,0.777-0.463,0.058-4.773-2.796c-3.062-3.269-0.006-4.225-0.006-4.225
		S87.062,122.523,89.097,124.49z"/>
	<path fill="#F6C6DD" d="M116.144,124.791c0,0-0.384-3.418,3.046-2.158c3.43,1.262-0.38,5,0.126,4.415
		c0.504-0.586-2.262,2.549-2.36,3.366c-0.099,0.818-0.51,0.092-5.03-2.609c-3.128-3.221,0.276-4.43,0.276-4.43
		S114.053,122.865,116.144,124.791z"/>
	<path fill="#F6C6DD" d="M94.017,165.63c0,0-0.553-3.295,2.671-1.886c3.223,1.409-0.055,4.766,0.374,4.234
		c0.43-0.53-1.926,2.309-1.968,3.085c-0.043,0.777-0.463,0.058-4.773-2.796c-3.062-3.269-0.007-4.225-0.007-4.225
		S91.983,163.665,94.017,165.63z"/>
	<path fill="#F6C6DD" d="M111.785,171.918c0,0-0.554-3.295,2.67-1.886s-0.055,4.765,0.375,4.234c0.43-0.531-1.926,2.308-1.969,3.085
		c-0.042,0.777-0.463,0.058-4.773-2.796c-3.062-3.269-0.006-4.225-0.006-4.225S109.752,169.953,111.785,171.918z"/>
	<path fill="#F6C6DD" d="M97.569,184.083c0,0-0.553-3.294,2.671-1.886c3.223,1.409-0.055,4.766,0.374,4.234
		c0.43-0.531-1.926,2.308-1.968,3.085c-0.043,0.777-0.463,0.058-4.773-2.796c-3.062-3.269-0.007-4.225-0.007-4.225
		S95.536,182.118,97.569,184.083z"/>
	<path fill="#F6C6DD" d="M113.82,152.238c0,0-0.434-2.58,2.09-1.478c2.523,1.104-0.042,3.73,0.294,3.315
		c0.336-0.416-1.508,1.807-1.541,2.414c-0.033,0.608-0.362,0.045-3.736-2.189c-2.397-2.557-0.005-3.307-0.005-3.307
		S112.229,150.698,113.82,152.238z"/>
	<ellipse fill="#F5822B" cx="61.576" cy="61.576" rx="7.654" ry="7.518"/>
	<circle fill="#EDABCD" cx="58.363" cy="69.571" r="8.201"/>
	<path fill="#F8D7AA" d="M80.369,69.572c0,0,2.598,20.367-17.495,17.906c-12.028-4.647-9.841-14.899-5.878-16.812
		c3.964-1.914,14.899,4.784,14.899,4.784S75.586,82.967,80.369,69.572z"/>
	<ellipse fill="#FAAF42" cx="66.223" cy="72.968" rx="10.046" ry="9.452"/>
	<path fill="#FAAF42" d="M77.498,63.009c0,0-5.868-0.434-6.516,2.655c-0.648,3.089,3.71,3.477,3.71,3.477
		S78.607,68.65,77.498,63.009z"/>
	<circle fill="#231F20" cx="60.124" cy="72.459" r="0.888"/>
	<ellipse fill="#FFFFFF" cx="59.79" cy="72.195" rx="0.351" ry="0.316"/>
	<circle fill="#231F20" cx="72.579" cy="72.22" r="0.888"/>
	<circle fill="#231F20" cx="66.291" cy="75.313" r="0.611"/>
	<path fill="none" stroke="#231F20" stroke-linecap="round" stroke-linejoin="round" d="M62.874,77.294c0,0,3.143,1.504,3.417-1.981
		c0,0-0.137,3.006,2.938,2.255"/>
	<path fill="#FAAF42" d="M55.083,63.421c0,0,0.272,5.877,3.417,6.151c3.144,0.273,3.007-4.101,3.007-4.101
		S60.551,61.645,55.083,63.421z"/>
	<path fill="#FFD297" d="M56.353,64.132c0,0,0.081,3.111,1.707,3.287c1.627,0.176,1.601-2.138,1.601-2.138
		S59.204,63.248,56.353,64.132z"/>
	<path fill="#FFD297" d="M76.207,64.21c0,0-3.111-0.064-3.363,1.552c-0.252,1.616,2.062,1.698,2.062,1.698S76.957,67.1,76.207,64.21
		z"/>
	
		<line fill="none" stroke="#231F20" stroke-width="0.5" stroke-linecap="round" stroke-linejoin="round" x1="59.867" y1="76.679" x2="49.206" y2="80.848"/>
	
		<line fill="none" stroke="#231F20" stroke-width="0.5" stroke-linecap="round" stroke-linejoin="round" x1="73.194" y1="75.005" x2="81.463" y2="75.21"/>
	
		<line fill="none" stroke="#231F20" stroke-width="0.5" stroke-linecap="round" stroke-linejoin="round" x1="72.784" y1="76.269" x2="81.806" y2="78.935"/>
	
		<line fill="none" stroke="#231F20" stroke-width="0.5" stroke-linecap="round" stroke-linejoin="round" x1="59.389" y1="75.518" x2="49.069" y2="77.089"/>
	<path fill="#FAAF42" d="M62.204,81.446c0,0-3.475,1.184-1.669,5.242c1.808,4.058-7.367-3.269-0.765-6.933
		C66.374,76.093,62.204,81.446,62.204,81.446z"/>
	
		<ellipse transform="matrix(0.9522 -0.3055 0.3055 0.9522 -11.0856 31.1208)" fill="#F8B2B0" cx="93.901" cy="50.983" rx="2.783" ry="2.393"/>
	<ellipse fill="#FFFFFF" cx="72.297" cy="71.887" rx="0.351" ry="0.316"/>
	<path fill="#FAAF42" d="M84.009,81.241c0,0,2.818,10.764,8.2,8.149c0,0,1.486-0.922-1.435-1.076
		C87.853,88.161,84.265,81.753,84.009,81.241z"/>
	<path fill="#F8D7AA" stroke="#F8D7AA" d="M92.632,75c0,0-14.818,15.751-27.048,10.599c-12.229-5.151,8.488,18.695,30.068-8.537
		C99.536,69.701,92.632,75,92.632,75z"/>
	<path fill="#FAAF42" d="M71.892,80.575c0,0-3.475,1.184-1.669,5.242c1.807,4.058-7.367-3.27-0.765-6.933
		C76.062,75.221,71.892,80.575,71.892,80.575z"/>
</g>
</svg>
