<?xml version="1.0" encoding="utf-8"?>
<!-- Generator: Adobe Illustrator 13.0.0, SVG Export Plug-In . SVG Version: 6.00 Build 14948)  -->
<svg version="1.2" baseProfile="tiny" id="Layer_1" xmlns="http://www.w3.org/2000/svg" xmlns:xlink="http://www.w3.org/1999/xlink"
	 x="0px" y="0px" width="61.963px" height="197.751px" viewBox="0 0 61.963 197.751" xml:space="preserve">
<g>
	<path fill="#FDEE1C" d="M15.774,196.111c0,0,11.735-0.379,11.231-6.185C26.502,184.122,15.774,196.111,15.774,196.111z"/>
	<path fill="#FDEE1C" d="M52.877,191.314c0,0,1.767,5.68,8.834,6.437C56.536,185.763,52.877,191.314,52.877,191.314z"/>
	<polygon fill="#010101" points="19.309,124.305 20.444,190.685 28.646,191.189 27.763,129.226 45.053,130.614 51.867,192.325 
		59.817,192.198 51.614,125.44 	"/>
	<polygon fill="#D6DD26" points="28.773,125.314 40.888,126.45 37.985,110.297 34.073,110.423 	"/>
	<path fill="#BD202F" d="M17.226,66.885c0,0,2.271-2.209,11.547-3.028c9.275-0.82,17.605,3.723,18.236,4.354
		s5.237,34.263,5.237,34.263s3.786,25.112,4.543,25.239c0.757,0.126-17.668-0.631-17.668-0.631l-2.524-15.774l-6.688,15.017
		l-16.785-1.388l1.894-23.599l-1.01-16.532L17.162,67.2L17.226,66.885z"/>
	<polygon fill="#D6DD26" points="28.142,63.92 34.578,81.587 36.786,64.487 	"/>
	<polygon fill="#010101" points="28.898,6.058 22.968,1.515 27.133,6.311 23.725,5.049 7.698,12.746 0.126,24.104 0,37.985 
		3.029,51.741 2.776,45.306 9.844,60.196 8.834,52.246 15.648,61.206 13.63,54.896 21.327,62.847 19.182,57.168 24.355,62.216 
		23.347,58.683 27.511,62.469 27.259,59.943 30.413,62.594 32.56,61.08 34.073,62.216 36.597,60.07 35.967,62.469 39.247,58.808 
		37.733,63.226 43.664,57.672 41.646,62.09 51.488,52.12 47.828,58.935 53.886,52.372 53.003,55.653 59.439,38.112 61.584,42.403 
		60.196,25.997 61.963,28.016 57.546,16.911 47.703,9.465 55.021,10.601 44.043,6.814 47.197,5.932 33.695,5.428 36.976,0 	"/>
	<path fill="#E9B473" d="M28.772,63.856c0,0,3.85,5.048,7.509,0.505c-0.505-0.379-1.262-0.315-1.262-0.315l0.694-7.131h-5.49
		l0.316,6.941C30.54,63.856,29.845,63.478,28.772,63.856z"/>
	<path fill="#F8D6A9" d="M53.002,25.177c0,0,8.456,25.935-16.91,32.875c-15.08,1.198-23.851-9.78-23.851-9.78
		s-9.718-10.917-3.85-22.843C14.26,13.504,26.312,9.844,32.307,11.61c5.993,1.768-4.038-1.198,17.036,4.039
		C53.443,19.876,53.002,25.177,53.002,25.177z"/>
	<circle fill="#FFFFFF" cx="23.899" cy="35.872" r="3.61"/>
	<path fill="#E9B473" d="M27.52,34.692c-2.866-0.814-6.401,1.217-7.047,2.306c-0.619-1.896,0.457-3.948,2.402-4.585
		C24.82,31.775,27.032,33.197,27.52,34.692z"/>
	<path fill="#231F20" d="M28.077,35.021c-2.711-0.505-6.056,0.882-7.695,2.517C20.314,35.668,25.661,33.229,28.077,35.021z"/>
	<circle fill="#231F20" cx="22.495" cy="37.008" r="1.203"/>
	<circle fill="#FFFFFF" cx="22.865" cy="36.73" r="0.463"/>
	<path fill="#231F20" d="M40.06,29.247c0,0-3.445,4.621,0.831,12.499c0.223,1.239-1.151,1.82-1.151,1.82s1.293-0.685,0.438-2.092
		C39.319,40.066,36.106,33.434,40.06,29.247z"/>
	<circle fill="#FFFFFF" cx="47.244" cy="33.147" r="3.051"/>
	<path fill="#E9B473" d="M50.148,32.202c-2.37-0.705-5.274,0.985-5.8,1.897c-0.523-1.602,0.35-3.325,1.952-3.849
		C47.902,29.728,49.735,30.938,50.148,32.202z"/>
	<path fill="#231F20" d="M50.491,32.521c-2.208-0.454-4.907,0.677-6.22,2.034C44.197,32.981,48.51,30.986,50.491,32.521z"/>
	<circle fill="#231F20" cx="45.952" cy="34.283" r="1.017"/>
	<circle fill="#FFFFFF" cx="46.265" cy="34.05" r="0.391"/>
	<path fill="none" stroke="#010101" stroke-linecap="round" stroke-linejoin="round" d="M34.894,51.048c0,0,1.641-1.072,3.976-0.568
		"/>
	<path fill="none" stroke="#010101" d="M18.172,31.739c0,0,3.786-1.704,13.062-1.199"/>
	<path fill="none" stroke="#010101" d="M40.824,28.837c0,0,2.209-5.363,10.223-2.335"/>
	<polygon fill="#EE4137" points="20.356,65.2 31.119,73.667 26.877,77.661 35.127,82.284 28.714,63.354 	"/>
	<polygon fill="#F05B29" points="34.849,82.251 36.47,63.896 43.635,67.088 36.471,72.374 41.39,75.146 	"/>
	<polygon fill="#FDEE1C" points="19.876,77.927 20.759,84.427 25.87,83.795 25.429,77.99 24.167,80.83 23.094,77.927 22.021,80.956 
			"/>
	<line fill="none" stroke="#010101" x1="34.436" y1="82.371" x2="36.424" y2="111.216"/>
	<path fill="none" stroke="#010101" d="M33.947,175.667"/>
	<ellipse fill="#F8D6A9" cx="7.951" cy="42.087" rx="3.155" ry="2.966"/>
	<polygon fill="#010101" points="17.415,16.532 21.706,24.861 21.58,16.279 25.997,27.637 25.618,16.153 30.666,25.24 
		29.782,13.629 34.704,27.512 33.947,13.504 38.238,27.637 39.626,14.765 44.674,21.833 44.169,16.028 50.479,24.104 48.081,17.036 
		55.148,27.259 51.362,13.757 34.831,9.844 23.725,9.339 12.746,15.649 4.417,25.365 6.058,38.49 11.736,51.489 9.087,34.957 
		13.503,45.053 11.358,29.909 15.396,36.598 12.494,23.6 16.784,30.414 14.513,19.687 19.939,29.783 	"/>
	<path fill="#EE4137" d="M47.009,68.21l0.883,27.637l-21.138,6.941l29.151,2.146C55.905,104.934,55.716,72.438,47.009,68.21z"/>
	<path fill="#EE4137" d="M15.585,94.396l5.805,3.093l-2.396,2.775l-4.797-0.189C14.196,100.074,14.639,94.458,15.585,94.396z"/>
	<path fill="#F05B29" d="M17.162,67.2l-2.019,31.613l32.433-5.616l0.568,2.523c0,0-36.787,12.619-37.923,11.168
		C9.086,105.438,4.543,73.89,17.162,67.2z"/>
	<line fill="none" stroke="#010101" x1="21.517" y1="191.82" x2="24.167" y2="192.388"/>
	<line fill="none" stroke="#010101" x1="55.779" y1="193.713" x2="58.239" y2="192.956"/>
</g>
</svg>
