<?xml version="1.0" encoding="utf-8"?>
<!-- Generator: Adobe Illustrator 13.0.0, SVG Export Plug-In . SVG Version: 6.00 Build 14948)  -->
<svg version="1.2" baseProfile="tiny" id="Layer_1" xmlns="http://www.w3.org/2000/svg" xmlns:xlink="http://www.w3.org/1999/xlink"
	 x="0px" y="0px" width="77.752px" height="183.428px" viewBox="0 0 77.752 183.428" xml:space="preserve">
<g>
	<path fill="#F05B29" d="M4.997,182.954c0,0,11.074-2.649,11.926-8.802S4.997,182.954,4.997,182.954z"/>
	<path fill="#F05B29" d="M73.429,183.428c0,0-11.074-2.65-11.926-8.802C60.651,168.474,73.429,183.428,73.429,183.428z"/>
	<polygon fill="#F8D6A9" points="18.438,141.12 14.557,173.679 16.923,174.152 26.767,143.202 	"/>
	<polygon fill="#F8D6A9" points="59.988,141.594 63.869,174.152 61.503,174.626 51.659,143.676 	"/>
	<path fill="#057A8E" d="M24.116,101.652c0,0-8.613,38.143-9.37,38.995c-0.757,0.852,16.374,4.921,16.374,4.921l6.814-27.353
		l2.65-0.663l5.585,27.259c0,0,11.831,1.42,17.604-5.111c-4.732-16.657-10.08-38.663-10.08-38.663L24.116,101.652z"/>
	<g>
		<path fill="#59B5DC" d="M24.778,74.109c0,0,0.033,3.644,0.028,8.282c-0.009,7.849-0.124,18.547-0.69,19.261
			c-0.898,1.136,22.858,5.537,29.578-0.615l-1.94-26.88l-11.216-5.253l-4.922,0.331L24.778,74.109z"/>
		<line fill="none" stroke="#05AFD7" stroke-width="2" x1="24.826" y1="81.918" x2="52.133" y2="81.634"/>
		<line fill="none" stroke="#05AFD7" stroke-width="2" x1="24.826" y1="86.84" x2="52.7" y2="87.455"/>
		<line fill="none" stroke="#05AFD7" stroke-width="2" x1="24.685" y1="93.229" x2="53.032" y2="92.613"/>
		<line fill="none" stroke="#05AFD7" stroke-width="2" x1="24.447" y1="99.097" x2="53.315" y2="98.245"/>
		<line fill="none" stroke="#05AFD7" stroke-width="2" x1="25.442" y1="76.098" x2="51.659" y2="76.334"/>
		<line fill="none" stroke="#05AFD7" stroke-width="2" x1="34.243" y1="71.696" x2="43.329" y2="71.696"/>
	</g>
	<path fill="#F8D6A9" d="M55.923,101.842c0,0-3.975-1.136-4.354-4.544c-0.379-3.407,16.374-9.748,16.374-9.748l-4.922-3.597
		l6.058-5.489c0,0,7.761,6.625,8.045,10.411c0.284,3.785-22.999,8.423-22.999,8.423L55.923,101.842z"/>
	<path fill="#59B5DC" d="M54.551,68.525c3.614,0.568,16.705,8.613,16.705,8.613s-1.563,4.638-8.89,8.423
		c-3.321-3.312-11.332-6.814-11.332-6.814S50.448,71.271,54.551,68.525z"/>
	<path fill="#F8D6A9" d="M21.372,101.937c0,0,3.975-1.137,4.354-4.544S9.351,87.645,9.351,87.645l4.922-3.597l-6.057-5.49
		c0,0-7.762,6.626-8.045,10.412c-0.285,3.785,22.999,8.423,22.999,8.423L21.372,101.937z"/>
	<path fill="#59B5DC" d="M22.224,68.62c-3.502,0.567-16.186,8.613-16.186,8.613s1.515,4.638,8.613,8.423
		c3.219-3.312,10.979-6.814,10.979-6.814S26.198,71.365,22.224,68.62z"/>
	<line fill="none" stroke="#05AFD7" x1="8.783" y1="75.813" x2="15.977" y2="84.048"/>
	<path fill="#AEDEE3" d="M33.202,79.079c0,0-10.411-3.36-11.973-11.453c6.058,0.048,11.547-3.454,12.872-1.088l4.212,2.792
		C38.313,69.33,33.25,76.996,33.202,79.079z"/>
	<path fill="#AEDEE3" d="M43.897,79.031c0,0,10.412-3.36,11.974-11.452c-6.058,0.047-11.548-3.455-12.872-1.089l-4.213,2.792
		C38.786,69.282,43.851,76.949,43.897,79.031z"/>
	<path fill="#F05B29" d="M42.099,63.604c0.694,1.074,1.645,2.084,3.24,1.701c1.653-0.396,2.438-1.574,2.721-3.093
		c0.584,3.893,6.625,2.926,6.34-0.562c1.205,1.691,3.543,2.933,5.329,1.271c1.317-1.227,3.224-3.961,2.12-5.739
		c0.414,0.664,2.524,1.147,3.325,1.124c1.528-0.045,2.914-1.477,3.827-2.577c1.65-1.991,1.521-4.34,0.156-6.478
		c2.127,1.456,5.413-0.979,6.362-2.87c1.336-2.655-2.182-4.665-3.769-6.043c1.75-0.283,3.913-1.324,5.181-2.596
		c1.36-1.363,0.791-3.275,0.003-4.829c-1.075-2.119-3.901-3.051-5.978-1.902c0.322-0.829,0.937-1.812,0.957-2.71
		c0.025-1.172-0.808-2.321-1.609-3.123c-1.436-1.435-5.855-3.446-7.464-1.338c0.457-1.175,1.808-1.758,2.164-3.04
		c0.377-1.361-0.248-2.749-1.136-3.762c-2.463-2.809-5.665-2.548-8.333-0.128c0.059-0.891,0.36-1.821,0.079-2.716
		c-0.437-1.385-1.952-2.539-3.222-3.097c-2.785-1.227-6.098-0.623-8.197,1.654c0.083-2.418,2.137-5.8-1.319-6.978
		c-2.063-0.702-4.184,0.351-4.391,2.622c-0.983-1.159-1.315-2.229-2.82-2.981c-1.522-0.764-3.435-0.553-4.995-0.019
		c-3.134,1.072-2.883,4.708-3.072,7.47c-2.389-2.24-6.709-4.107-9.847-2.075c-2.511,1.626-2.661,5.526-1.052,7.828
		c-0.831-0.851-2.884-1.128-4.015-1.014c-1.812,0.184-3.3,1.517-4.493,2.84c-1.529,1.699-2.561,3.239-2.271,5.584
		c0.199,1.617,0.379,3.989,1.691,5.123c-1.182-1.051-3.297-1.356-4.721-0.675c-1.863,0.893-2.574,2.685-2.812,4.636
		c-0.261,2.134,0.104,4.887,1.417,6.648c1.518,2.035,3.688,1.572,5.839,2.161c-1.227-0.153-2.662,0.716-3.57,1.438
		c-1.62,1.287-2.069,2.794-1.416,4.732c0.732,2.173,2.095,4.301,4.561,4.595c1.797,0.215,5.272-0.091,6.126-2.048
		c-1.023-0.2-1.599,1.329-1.888,2.067c-0.586,1.498-0.688,2.955,0.545,4.143c1.391,1.342,3.223,1.416,5.041,1.089
		c0.934-0.167,3.686-0.296,3.387-1.817c-0.384,1.867-0.812,4.578,1.135,5.862c2.002,1.321,5.218-0.128,5.586-2.266
		c-0.024,1.493,0.485,2.951,2.104,3.284c1.762,0.363,2.932-1.116,3.142-2.621c1.085,1.134,1.294,2.458,3.317,2.269
		c1.275-0.12,5.551-1.529,5.276-3.142c0.242,0.667,0.312,2.026,1.325,2.38"/>
	<path fill="#E9B473" d="M35.758,62.042c0,0,0.474,3.976-1.278,4.401c-1.75,0.426,4.449,5.773,8.566,0
		c-1.041-0.189-1.041-0.71-1.041-0.71l-0.047-4.212C41.958,61.521,35.806,61.711,35.758,62.042z"/>
	<path fill="#F8D6A9" d="M14.746,40.982c0,0-0.567,20.255,24.136,21.485C61.598,60.67,63.49,42.592,63.49,42.592
		s1.609-12.967-6.53-18.456c-8.141-5.489-22.527-11.642-34.926-0.474C13.989,31.045,14.746,40.982,14.746,40.982z"/>
	<g>
		<ellipse fill="#FFFFFF" cx="24.615" cy="41.616" rx="4.214" ry="3.361"/>
		<path fill="#E9B473" d="M28.802,41.535c-2.547-1.599-4.959-2.194-8.429,0c0-1.855,1.888-3.36,4.215-3.36
			S28.802,39.68,28.802,41.535z"/>
		<path fill="#010101" d="M28.884,41.589c-2.58-1.599-5.023-2.194-8.537,0C22.79,37.741,28.884,39.734,28.884,41.589z"/>
		<circle fill="#010101" cx="24.628" cy="41.21" r="1.518"/>
		<circle fill="#FFFFFF" cx="24.289" cy="41.144" r="0.556"/>
	</g>
	<g>
		<ellipse fill="#FFFFFF" cx="52.875" cy="41.574" rx="4.214" ry="3.361"/>
		<path fill="#E9B473" d="M57.063,41.494c-2.549-1.6-4.961-2.195-8.43,0c0-1.856,1.887-3.36,4.217-3.36
			C55.177,38.134,57.063,39.638,57.063,41.494z"/>
		<path fill="#010101" d="M57.145,41.548c-2.581-1.6-5.023-2.195-8.538,0C51.05,37.7,57.145,39.691,57.145,41.548z"/>
		<circle fill="#010101" cx="52.89" cy="41.169" r="1.518"/>
		<circle fill="#FFFFFF" cx="52.551" cy="41.101" r="0.556"/>
	</g>
	<ellipse fill="#F8D6A9" cx="13.942" cy="44.248" rx="3.265" ry="3.36"/>
	<ellipse fill="#F8D6A9" cx="64.39" cy="42.733" rx="3.266" ry="3.36"/>
	<path fill="#010101" d="M36.562,52.151c0,0,2.887,3.407,6.151,0.284C41.247,53.051,38.976,53.666,36.562,52.151z"/>
	<path fill="none" stroke="#010101" stroke-linecap="round" stroke-linejoin="round" d="M32.384,56.193c0,0,6.934,6.338,14.07-0.161
		"/>
	<path fill="#F05B29" d="M24.116,24.798c0.396,3.254,1.307,6.569,5.111,7.191c1.582,0.258,3.033-0.658,4.049-1.817
		c1.068-1.218,1.373-2.716,1.818-3.968c0.145,1.354,0.045,2.54,0.377,3.895c0.3,1.228,0.783,2.471,1.801,3.317
		c2.688,2.237,7.354,0.988,8.496-2.175c0.135,3.217,1.842,6.604,5.585,6.623c1.606,0.008,3.921-0.735,5.133-1.806
		c0.981-0.868,1.716-2.383,2.468-3.466c-0.639,1.685-1.064,3.42,0.206,4.962c0.974,1.183,3.588,1.5,4.898,0.568
		c4.417-3.145-1.268-10.582-4.048-12.755c-2.238-1.749-4.833-3.323-7.239-4.829c-1.271-0.796-2.134-1.615-3.597-2.106
		c-1.242-0.417-2.543-0.849-3.836-1.088c-3.471-0.643-6.683-0.765-10.22-0.876c-3.605-0.112-7.521-0.528-10.903,0.947
		c-3.96,1.727-9.902,5.45-9.848,10.411c0.03,2.753,4.062,5.357,6.604,4.995c4.562-0.651,3.829-6,3.05-9.255"/>
	<path fill="#F05B29" d="M11.812,38.995c-0.185,0.712,1.135,2.049,2.01,2.44c1.545,0.689,2.815-0.609,3.459-1.97
		c1.033-2.181-0.182-5.177-2.238-6.419c1.182,1.256,2.907,1.748,3.091-0.487c0.191-2.335-1.759-4.06-3.957-4.165
		c-2.874-0.137-4.743,2.74-5.103,5.279c-0.285,2.011,0.732,3.479,2.171,4.759c0.247,0.219,0.511,0.426,0.757,0.657"/>
	<polygon fill="#59B5DC" points="45.98,4.922 56.298,0 59.042,9.465 	"/>
	<polygon fill="#05AFD7" points="53.458,1.704 52.984,7.478 56.96,2.935 	"/>
	<path fill="#075F68" d="M33.013,118.404c0,0,11.169-2.366,11.074-1.608C43.992,117.553,33.013,118.404,33.013,118.404z"/>
	<line fill="none" stroke="#05AFD7" x1="12.79" y1="73.479" x2="19.668" y2="81.902"/>
	<line fill="none" stroke="#05AFD7" x1="22.317" y1="80.546" x2="17.87" y2="70.418"/>
	<line fill="none" stroke="#05AFD7" x1="64.116" y1="72.958" x2="58.047" y2="82.359"/>
	<line fill="none" stroke="#05AFD7" x1="54.977" y1="80.451" x2="59.483" y2="70.829"/>
	<line fill="none" stroke="#05AFD7" x1="68.511" y1="75.719" x2="61.318" y2="83.953"/>
	<path fill="#AEDEE3" d="M35.474,0.853c0,0,3.691,9.653,4.07,12.588c0.379,2.934,18.646,7.004,18.646,7.004s5.205-5.679,9.56-7.383
		C72.104,11.358,35.474,0.853,35.474,0.853z"/>
	<circle fill="#05AFD7" cx="41.343" cy="7.004" r="1.23"/>
	<circle fill="#05AFD7" cx="50.713" cy="9.938" r="1.23"/>
	<circle fill="#05AFD7" cx="60.367" cy="13.725" r="1.23"/>
	<line fill="none" stroke="#F05B29" x1="33.108" y1="36.818" x2="19.101" y2="35.114"/>
	<circle fill="#F05B29" cx="34.243" cy="45.715" r="0.379"/>
	<circle fill="#F05B29" cx="36.768" cy="46.409" r="0.378"/>
	<circle fill="#F05B29" cx="39.418" cy="45.4" r="0.378"/>
	<circle fill="#F05B29" cx="39.733" cy="47.734" r="0.379"/>
	<circle fill="#F05B29" cx="36.894" cy="48.492" r="0.379"/>
	<circle fill="#F05B29" cx="41.626" cy="46.662" r="0.379"/>
	<circle fill="#F05B29" cx="43.772" cy="45.526" r="0.378"/>
	<circle fill="#F05B29" cx="43.897" cy="47.924" r="0.379"/>
	<circle fill="#F05B29" cx="46.359" cy="47.04" r="0.378"/>
	<circle fill="#F05B29" cx="47.368" cy="48.87" r="0.379"/>
	<circle fill="#F05B29" cx="50.271" cy="48.429" r="0.379"/>
	<circle fill="#F05B29" cx="33.929" cy="48.303" r="0.379"/>
	<circle fill="#F05B29" cx="31.72" cy="47.104" r="0.378"/>
	<circle fill="#F05B29" cx="28.06" cy="47.482" r="0.378"/>
	<circle fill="#F05B29" cx="29.954" cy="48.997" r="0.378"/>
</g>
</svg>
