<?xml version="1.0" encoding="utf-8"?>
<!-- Generator: Adobe Illustrator 13.0.0, SVG Export Plug-In . SVG Version: 6.00 Build 14948)  -->
<svg version="1.2" baseProfile="tiny" id="Layer_1" xmlns="http://www.w3.org/2000/svg" xmlns:xlink="http://www.w3.org/1999/xlink"
	 x="0px" y="0px" width="175.65px" height="175.55px" viewBox="0 0 175.65 175.55" xml:space="preserve">
<path fill-rule="evenodd" fill="#F8981D" d="M64.25,13.9l-0.6,0.05l-3.05,0.3l-2.85,0.45L55,15.25l-2.6,0.65l-2.55,0.7l-2.4,0.85
	l-2.25,0.9l-2.15,1.05l-1.7,0.8l-1.55,0.85l-1.55,0.75l-1.4,0.8l-2.65,1.5L33,24.8l-1.05,0.75l-2.05,1.3l-0.95,0.6l-0.8,0.65
	l-1.45,1.2l-0.6,0.55l-0.45,0.6l-3.1,3.4l-2.9,3.4l-1.4,1.65l-1.3,1.7l-1.25,1.65l-1.15,1.7l-1.2,1.6l-1.1,1.65l-2,3.3L8.4,53.7
	l-1.6,3.2L8,55.95l1.15-0.85l1.05-0.8l1.05-0.7l0.9-0.7L13,52.3l0.75-0.6l0.75-0.5l0.2-0.25l0.3-0.2l0.75-0.5l0.4-0.35l0.5-0.3
	l0.5-0.35l0.6-0.3l0.55-0.45l0.65-0.4l1.45-0.85l0.75-0.5L22,46.3l0.85-0.55l0.95-0.5l0.9-0.6l1-0.55l1-0.65l1.1-0.6l2.25-1.35
	l2.5-1.4l2.55-1.55l2.8-1.6l2.95-1.7l1.55-0.9l1.65-0.85l-1.65,1.1l-2.8,1.9L37,38.55l-2.5,2.05l-2.3,2.2l-0.4,0.4l-0.45,0.55
	L30.8,44.3L30.25,45l-0.65,0.7l-0.7,0.85l-0.8,0.9l-0.85,1.05l-0.95,1l-1,1.15l-1.1,1.2l-1.1,1.35l-1.2,1.35l-1.25,1.5l-1.35,1.5
	l-1.4,1.65l-2.8,3.3l-2.45,3.45l-2.15,3.5L8.65,73.1l-1.6,3.65L5.8,80.6l-0.95,3.9L4.2,88.55L3.9,90.5l-0.2,1.95L3.35,96.3
	L3.1,99.95l-0.15,3.55l-0.05,3.351v1.649l0.1,1.65l0.15,3.1l0.35,3L3.8,119l0.4,2.65l0.3,2.5l0.15,1.2l0.2,1.199l0.3,2.2l0.3,2.05
	l0.3,1.9l0.3,1.8L6.2,134l0.25-0.6l0.35-0.9L7,132l0.3-0.5l0.55-1.3l0.75-1.4l0.85-1.699l0.95-1.801l1.5,3.051L12.7,130l0.8,1.75
	l1.65,3.75l1.75,4.15v0.05l0.05,0.2l0.1,0.25l0.2,0.45l0.2,0.5l0.25,0.649l0.3,0.75l0.35,0.851l0.35,0.899l0.4,1.05l0.45,1.15
	l0.55,1.25l0.5,1.35l0.6,1.5l0.65,1.551l0.7,1.75l0.1-0.9l0.05-0.5l0.1-0.45l0.1-1.149l0.05-0.601l0.1-0.6v-0.7l0.05-0.7v-0.75
	v-0.399v-0.2V146.8l0.05-0.05v-1.649v-0.851v-0.45l0.05-0.399l-0.1-2l-0.05-0.3v-0.25v-0.5V139.3l-0.1-1.149v-1.2l-0.05-0.2v-0.149
	V136.3v-0.6v-1.25l-0.1-2.8l-0.1-1.45v-1.5l-0.1-1.6l-0.05-1.601l-0.1-3.3l-0.2-1.75l-0.05-1.6V117.3l0.1-1.449l0.1-1.45l0.25-1.351
	l0.3-1.3l0.45-1.149l0.3-1.051l0.3-1.05l0.25-1.1l0.1-0.601l0.05-0.3l0.1-0.25v-0.3v-0.15l0.05-0.1l0.1-0.5v-0.3v-0.15l0.05-0.1
	l0.1-0.5l0.05-1.75l0.15-1.7l0.1-0.45v-0.149V99.5v-0.55l0.05-1.75l0.15-1.55l0.2-1.5l0.35-1.351l0.35-1.35l0.5-1.2l0.55-1.149
	l0.65-0.95l0.55-0.85l0.1,1.05L28.3,88.75l-0.05,0.4l-0.4,2.1l-0.6,3.05l-0.15,0.95l-0.8,7.3l-0.25,2.551l-0.2,2.699l-0.15,2.75
	l-0.1,2.95l-0.1,2.25l-0.05,2.15L25.1,119l-0.15,0.601l-0.1,3.8l-0.1,0.75l-0.2,0.85l-0.15,0.8l-0.15,0.75l-0.05,0.75l-0.1,0.65v0.6
	l0.05,1.101L24.2,130l0.15,0.65l0.25,0.5l-0.05,1.399v1.2l0.05,1l0.1,0.9l0.05,0.649l0.1,0.5l0.15,0.301l0.2,0.149h0.25l0.3-0.05
	l0.2-0.15l0.2-0.199V136.8l0.1-0.399v-0.15l0.05-0.1l0.1-0.3v-0.5v-0.301l0.05-0.3v-0.8l0.1-0.95v-0.1l0.05-0.15v-0.1l0.05-0.15
	v-0.35V131.8v-0.449l0.05-0.551v-0.649l0.1-0.7l0.05-0.8l0.1-0.851v-1l0.1-1.05l0.05-1.149l0.1-1.2l0.1-1.351l0.1-1.35l0.1-1.45
	l0.1-1.5l0.2-3.3l0.2-3.15l0.2-3l0.3-2.8l1.1-9.6l0.15,0.75l0.2,0.649l0.2,0.551l0.2,0.5l0.2,0.35l0.2,0.25l0.2,0.15l0.2,0.149
	l0.35-0.7l0.45-0.649l0.95-1.351l0.9-1.3l0.4-0.55l0.45-0.45L35,93.8l0.4-0.3l0.35-0.3l0.4-0.2l-0.05,0.25v0.351l0.05,0.449
	l0.15,0.65l0.15,0.7l0.25,0.85l0.25,0.95l0.35,1.15l0.15-0.301l0.3-0.35l0.35-0.45l0.5-0.55l0.5-0.75l0.65-0.75l0.7-0.95l0.85-0.95
	l0.25-0.399l0.3-0.3l0.45-0.551l0.4,0.801l0.45,1.05l0.45,1.2l0.5,1.5l0.2,0.699l0.55-0.75l0.75-0.75l0.85-0.899l0.45-0.5l0.55-0.45
	l1.1-1.1l1.25-1.15l1.35-1.25l1.55-1.35l0.5,1.8l0.6,1.75l0.5,1.649l0.6,1.601l0.45-0.5l0.6-0.5l0.65-0.55l0.8-0.551l0.8-0.649
	l0.95-0.65l0.95-0.75L61.2,91l-0.05,0.2l0.15,0.5l0.25,0.75l0.35,1.1l0.15,0.95l0.3,1.25l0.95-0.8l0.95-0.7l0.85-0.7l0.9-0.6
	l0.8-0.65l0.8-0.55L69,90.7l1.2-0.95l0.5-0.45l0.55-0.35l0.9-0.65L72.5,88l0.4-0.2l0.2,0.75l0.25,0.851l0.3,0.95l0.4,1.05l0.35,1.1
	l0.45,1.25l0.45,1.3l0.55,1.45l0.25-0.25L76.55,96l0.2-0.2l0.3-0.199l0.65-0.45l0.65-0.65l0.85-0.649l0.95-0.801l1.05-0.85l0.85-0.8
	l0.8-0.7l0.65-0.65l0.65-0.5l2.4,8.15l1.5-1.45l1.65-1.35l1.75-1.3l1.851-1.25l0.5,1l0.25,0.5l0.3,0.55l0.5,1l0.55,1l0.4,0.899
	L96,97.75l0.25,0.5l0.4,0.9l0.4,0.899L97.7,99.4l0.75-0.601l0.8-0.649l0.95-0.65l0.95-0.75l1.05-0.7l1.101-0.8l1.25-0.75l3.8,9.601
	l1.25-0.65l1.2-0.6l1.05-0.551l0.95-0.449l0.75-0.5l0.699-0.4l0.5-0.35l0.45-0.301l1.351,6.45l0.5-0.35l0.6-0.3l0.6-0.351l0.7-0.3
	l1.5-0.7l1.75-0.7l0.05,0.95l0.101,1.2l0.149,1.2l0.2,1.05l0.2,0.9l0.2,0.75l0.2,0.55l0.25,0.45l0.199,0.3l0.301,0.149l1.35-0.899
	l1.25-0.75l1.1-0.7l1.051-0.55l0.25-0.15v0.101l-0.101,0.449l-0.05,0.551l-0.1,0.149v0.351l-0.051,0.449v0.65l-0.1,0.75v0.9
	l-0.1,1.05v1.2l0.649-0.25l0.8-0.2l0.801-0.25l0.949-0.2l0.95-0.3l1.101-0.25l1.1-0.3l1.25-0.25l-0.65,0.8l-0.55,0.8l-0.5,0.7
	l-0.35,0.649l-0.351,0.551l-0.25,0.55l-0.199,0.45L133.25,118l1.25-0.45l1.25-0.399l1.15-0.4l1.1-0.3l1-0.35l0.95-0.301l0.851-0.3
	l0.8-0.25l-0.75,3l-0.75,3.101l-0.9,3.149l-0.95,3.25L137.1,131l-1.2,3.351l-1.35,3.399l-1.4,3.55l-0.75,1.601l-0.6,1.45l-0.601,1.3
	l-0.45,1.149l0.551-0.1l0.1-0.05l0.2,0.05l0.75-0.15H133l0.801-0.149l-0.75,1.05l-0.601,1.05l-0.45,0.65l-0.35,0.649l-0.35,0.601
	l-0.25,0.6l-0.301,0.55l-0.199,0.551l-0.15,0.5l-0.05,0.449l-0.05,0.351l0.05,0.35l0.1,0.25l0.2,0.2l0.25,0.15l0.35,0.1l0.101-0.1
	l0.25-0.25l0.3-0.4l0.45-0.55l0.45-0.75l0.6-0.851l0.65-1.05l0.75-1.2l0.399-0.8l0.4-0.7l0.35-0.699l0.351-0.551l0.25-0.55l0.3-0.45
	l0.25-0.449l0.25-0.301l0.45-0.35l0.399-0.3l0.351-0.3l0.3-0.2l0.399-0.45l0.2-0.35v-0.301l-0.05-0.149l0.2-0.15l0.149-0.1l0.2-0.2
	l-0.05-0.45l-0.15-0.35l-0.35-0.25l-0.45-0.05l-0.75,0.1l-0.35,0.05l-0.25,0.101h-0.3l-0.2,0.05l-0.351,0.1l0.301-0.7l0.35-0.75
	l0.4-0.85l0.399-0.9l0.4-1.05l0.45-1.05l0.5-1.15l0.5-1.199l0.399-1.301l0.4-1.149l0.35-1.15l0.4-0.95l0.3-0.949l0.3-0.801l0.25-0.8
	l0.3-0.649l0.15-0.65l0.2-0.5l0.149-0.5l0.15-0.35l0.05-0.351l0.101-0.149l0.05-0.15h0.1l0.15-1.55l0.2-1.4l0.1-1.35l0.15-1.15
	l0.05-1.149l0.05-0.95v-0.9V114l0.4-0.35l0.199-0.2l-0.05-0.3l-0.1-0.3L144.5,112.5l-0.05-0.3L144.3,112l-0.25-0.2l-0.301-0.1
	l-0.25-0.25l-0.199-0.1l-0.5-0.051l-0.051,0.25h-1.35l-1.3,0.25l-1,0.25l-0.9,0.2l-0.85,0.101l-0.7,0.05l0.1-0.7l0.15-0.6
	l0.25-1.051l0.45-0.55l0.35-0.45l0.2-0.35l0.15-0.15l-0.051-0.1v-0.05l-0.05-0.101v-0.05l0.15-0.2l0.149-0.1l0.051-0.1h0.1v-0.65
	l-0.15-0.45l-0.149-0.2l-0.15-0.1l-0.25-0.1h-0.2l-0.199-0.051l-0.2,0.051l-0.601,0.25l-0.399,0.149l-0.4,0.25l-0.5,0.25
	l-0.45,0.351L134.25,108l-0.55,0.4l-0.55,0.35l-0.35,0.3l-0.351,0.2l-0.25,0.15l-0.149,0.1v0.05v-0.25l0.25-0.35l0.3-0.4l0.2-0.5
	L133,107.65l0.15-0.4l0.1-0.25v-0.25l0.101-0.25l0.1-0.149l-0.05-0.301l-0.1-0.25l-0.15-0.199l-0.2-0.15l-0.149-0.4l-0.25-0.25
	l-0.301-0.199l-0.35-0.051l-0.9,0.2l-0.1-0.3l1.55-0.5l1.45-0.4l0.3-0.149l0.351-0.101l0.649-0.199l1.15-0.4l-2.5,5.1l0.649-0.6
	l0.65-0.5l0.6-0.5l0.65-0.4l1.05-0.75l1-0.55l0.75-0.45l0.7-0.25l0.25-0.1h0.25l0.45,0.15l0.1,0.05l0.101,0.149l0.05,0.15l0.1,0.25
	l-0.05,0.55l-0.15,0.75l-0.35,0.851l-0.2,0.5l-0.2,0.6l-0.3,0.55l-0.3,0.65l-0.65,1.45l2-0.101h1.9l1.6-0.1h1.5v1.3v0.7l0.051,0.8
	v1.65l0.05,1.85L146,117.4l-0.149,1.05l-0.2,1.15l-0.25,1.35l-0.2,0.65l-0.149,0.75l-0.4,1.55l-0.45,1.649l-0.5,1.851l-0.6,1.75
	l-0.2,0.399l-0.1,0.2l-0.051,0.101V130l-0.3,0.9l-0.7,1.7L141,134.3l-0.85,1.601l-0.45,0.8l-0.399,0.85l-0.9,1.551l-0.95,1.6
	l1.95-1.4l1.9-1.25l1.85-1.149l1.8-1.05l-0.6,1.05l-0.65,1.149l-0.75,1.25l-0.399,0.65l-0.351,0.75l-0.85,1.45l-0.9,1.649l-1,1.7
	l-1.05,1.851l-1.15,1.85l-1.199,2.05l-1.301,2.101l-1.35,2.25l-1.45,2.35l-1.5,2.45l-1.55,2.55l-1.6,2.7l0.35-0.851l-0.3,0.551
	l-0.2,0.449l-0.2,0.351l-0.1,0.3l1.95-1.85l1.85-1.75l1.75-1.65l1.7-1.5l1.55-1.45l1.45-1.35l1.35-1.25l1.3-1.101l1.15-1.05
	l1.05-0.95l0.95-0.85l0.85-0.75l0.7-0.65l0.65-0.55l0.55-0.45l0.45-0.3l0.149,0.351L143.3,162.05l0.199-0.149l0.301-0.25l0.3-0.351
	l0.45-0.399l0.399-0.55l0.55-0.65l0.551-0.75l0.649-0.8l0.65-1l0.75-1.05l0.75-1.15l0.85-1.25l0.851-1.4l0.949-1.449l0.95-1.551
	l1.101-1.649l1-1.75l0.949-1.7l0.9-1.65l0.85-1.6l1.5-3.15l0.7-1.5l0.65-1.449l0.55-1.45l0.5-1.4l0.45-1.35l0.399-1.3l0.301-1.301
	l0.3-1.199l0.2-1.2L163,124.55l0.051-1.199l0.1-1.15l0.15-2.4l0.05-2.5v-2.5l-0.101-1.35l-0.05-1.3l-0.1-1.351l-0.05-1.3
	l-0.15-1.399l-0.1-1.351l-0.2-1.399l-0.101-0.7l-0.05-0.2v-0.15V104l0.7,0.351l0.7,0.399l0.3,0.15l0.35,0.2l0.65,0.399l0.5,0.3
	l0.55,0.301l0.2,0.1l0.1,0.05l0.15,0.101l0.45,0.3h0.05l0.1,0.05l0.2,0.1l0.351,0.2l0.1,0.05l0.15,0.101l0.1,0.05l0.15,0.1h0.05
	l0.1,0.051l0.15,0.1l0.05,0.05l0.1,0.101l0.301,0.1h0.05l0.1,0.05l0.2,0.101l0.65,0.3l0.25,0.1l0.3,0.15l0.55,0.3l0.45,0.2
	l0.399,0.3l0.7,0.5l-0.1-2.7v-2.5l-0.101-2.399v-2.15l-0.1-2.05V96.05l-0.1-1.75v-1.5l-0.2-2.649l-0.15-2.45l-0.25-2.45L171.5,83
	l-0.3-2.25l-0.3-2.1l-0.4-2.05l-0.35-1.9l-0.6-2.45l-0.65-2.3l-0.7-2.25l-0.7-2.15l-0.8-2.15l-0.85-2l-0.9-2l-0.899-1.85L163,55.65
	l-1.05-1.75l-1.1-1.75l-1.15-1.6l-1.25-1.6l-1.25-1.5L155.9,46l-1.35-1.35l-0.101-0.1l-0.05-0.05l-0.1-0.1l-0.2-0.2l-0.45-0.4
	l-0.5-0.45l-0.45-0.4l-0.55-0.5l-0.5-0.45l-1.15-1l-1.3-1.1l-1.35-1.1l-1.45-1.2l-0.8-0.65l-0.75-0.6l-0.7-0.6l1.45,0.05l0.85,0.1
	l1,0.2l2.101,0.45l1.149,0.3l1.3,0.4l2.65,0.75l1.45,0.45l1.55,0.55l3.25,1.15l1.75,0.65l1.85,0.75l-0.8-1.3l-0.85-1.2l-1.8-2.35
	l-2.101-2.25l-1.149-1.1l-1.15-1l-2.6-2.05l-2.801-1.85l-1.55-0.95l-1.55-0.85l-1.6-0.85L144.9,25l-3.5-1.6l-3.4-1.45l-3.449-1.35
	l-3.4-1.15l-3.4-1.1l-3.399-0.95l-3.4-0.8l-3.399-0.65l-2.801-0.5L112.2,15l-2.3-0.45l-2.1-0.4l-1.9-0.4l-1.65-0.35l-1.399-0.35
	l-1.2-0.25l-0.35-0.85L101.15,11l-0.05-1.05l0.149-1.05l0.2-1.15l0.351-1l0.35-0.85l0.55-0.75l0.2-0.35V4.65l0.05-0.05L102.8,4.55
	l-0.25,0.05l-0.45,0.15l-0.3,0.1l-0.301,0.2L101.1,5.2l-0.351,0.25L99.85,6l-0.9,0.5L98.1,7.15L97.2,7.9l-0.85,0.85L95.4,9.7
	l-0.9,1.1l-1,1.15L92.6,13.3l-1.55-0.9l-1.45-0.85l-1.351-0.9L87.1,9.85l-2-1.2l-1-0.55l-0.95-0.4l-2-0.75l-2-0.5L79.35,7l0.3,0.8
	L80,8.7l0.4,1.15l0.4,1.25l0.5,1.5l0.55,1.6l0.6,1.85l-0.95-0.3l-1.05-0.25l-1.2-0.2L78,15.1l-1.45-0.2l-1.45-0.2l-1.65-0.2
	l-1.7-0.1L70,14.25l-1.5-0.1l-1.3-0.1l-1-0.05l-0.85-0.1h-0.6h-0.4H64.25L64.25,13.9z M148.8,59.3l0.35,0.35v0.05L148.8,59.3
	L148.8,59.3z M94.75,85.3L95,86l0.801,1.85L96.7,89.7l0.8,1.65l0.9,1.6l0.25-0.2L99,92.601l0.351-0.25l0.45-0.2l0.399-0.3l0.5-0.25
	l0.5-0.351l0.601-0.3l0.55-0.45L103,90.101l1.351-0.851l1.45-1l1.649-1.05l0.3,2.2l-1.6,0.55l-0.8,0.35l-0.7,0.551l-0.3-0.2
	l-0.2,0.05l-0.2,0.2l-0.1,0.5l-0.45,0.25L103,92l-0.949,0.851l-2.4,1.85l-2.2,1.95L96.9,94.9l-0.45-1.45l-0.399-1.2l-0.301-0.899
	l-0.399-0.9l-0.25-0.85L95.25,89.3l0.15-0.149L95.45,89l0.05-0.05v-0.4l-0.05-0.3l-0.149-0.3l-0.15-0.2l-0.25-0.2l-0.35-0.05h-0.2
	l-0.15,0.15l-0.3-0.35l-0.15-0.1h-0.1l-0.35-0.05l-0.25,0.1L92.9,87.4l-0.1,0.1v0.25l-0.2,0.15L92.5,88.15L92.35,88.9l0.05,0.2
	L92,89.4L91.65,89.8l-0.8,1l-0.8,0.801L89.25,92.55L88.4,93.5l-0.85,1.101l-0.4-1.5L86.8,91.8l-0.3-1.199l-0.25-1l-0.1-1.051
	L86.1,87.7l0.45-0.45l0.4-0.35l0.2-0.25l0.05-0.1h0.1v-0.5l-0.05-0.35l-0.15-0.25l-0.15-0.15l-0.3-0.15L86.3,85.2l-0.4,0.15
	l-0.45,0.25l-0.1-0.15l-0.3-0.5l-0.25-0.3l-0.25-0.15l-0.2,0.05l-0.2,0.1L84,84.95l-0.1,0.45l-0.1,0.65l0.05,0.4l-0.5,0.25
	l-0.65,0.4L82,87.6l-0.8,0.55l-0.85,0.7L79.4,89.5l-1,0.8l-1.1,0.801l-1.15,0.949l-0.1-0.199v-0.25l-0.1-0.45L75.9,91.05V91v-0.1
	v-0.2l-0.1-0.65l-0.1-0.75l-0.1-0.449l-0.05-0.4l-0.1-0.95l-0.3-1.25L75,85.75l-0.1-0.4l0.6-0.55l0.2-0.25l0.25-0.15l0.1-0.2
	l0.15-0.1l0.05-0.1h0.05l-0.05-0.55L76.2,83.1l-0.25-0.25l-0.15-0.1h-0.1l-0.25-0.05l-0.2,0.05l-0.5,0.15l-0.65,0.25l-0.7,0.45
	L73,83.85l-0.55,0.25l-0.5,0.4l-0.8,0.55l-0.4,0.2l-0.3,0.3l-0.3,0.15l-2.4,1.85l-2.1,2l-0.2,0.15l-0.15,0.2L64.5,90.8v-0.199v-0.25
	v-0.4V89.5l0.05-1.9v-0.7l0.05-0.75v-0.5l0.2-0.25h0.05l0.6-0.95l0.25-0.4l0.25-0.3l0.35-0.55l0.25-0.35l0.1,4.65l0.45-0.45
	l0.55-0.4l1.15-0.85l1.25-0.95l1.45-0.9l0.95-0.7l0.9-0.55l0.8-0.55l0.8-0.4l0.65-0.4l0.6-0.25l0.55-0.25l0.5-0.1l-0.1,0.45v0.65
	v0.75l0.05,0.95l0.05,1.05l0.15,1.25l0.15,1.4l0.2,1.55l0.55-0.55l0.3-0.3L79,87.7l0.85-0.75l0.45-0.4l0.55-0.35l0.5-0.5l0.6-0.45
	l0.6-0.55l0.7-0.5L84.7,83l0.75-0.65l0.85-0.6l2.6,8.75l0.8-0.8L90.55,89l1.55-1.35l1.35-1.25l0.65-0.6L94.75,85.3L94.75,85.3z
	 M107.95,90.351l0.2,1l0.25,0.899L110,98l0.551-0.35l0.75-0.45l0.8-0.55l0.95-0.601L114,95.3l1.15-0.75l1.2-0.85l1.35-0.95l0.45,1.9
	l-0.6,0.399l-0.65,0.551l-0.3-0.15l-0.25-0.05l-0.15-0.05l-0.149,0.05l-0.2,0.1l-0.15,0.2l-0.149-0.05l-0.301-0.05L115,95.75
	l-0.199-0.149l-0.101,0.05l-0.1,0.149l-0.101,0.301L114,96.5l-0.5,0.55l-0.6,0.7l-0.6,0.851l-0.5,0.35l-0.4,0.4l-0.4,0.3l-0.3,0.3
	l-0.3,0.2l-0.2,0.2L110,100.5l-0.1,0.15l-0.65-1.4L108.7,98l-0.55-1.149L107.7,95.8l-0.5-0.949L106.8,94.05l-0.4-0.75l-0.35-0.55
	l0.85-1.149L107.95,90.351L107.95,90.351z M126.65,96.95l0.1,0.6l0.101,0.851v0.95v0.949l-0.05,0.9l-0.051,0.2v0.25v0.5l-0.1,0.399
	l-0.05,0.2V103l-0.101,0.4l-0.05,0.2v0.25l-0.2,0.8l-0.1,0.399l-0.05,0.2v0.25l1.95-0.399l1.949-0.4l-0.149,0.35l-4.45,1l-0.15-1.1
	l-0.1-0.95l0.3-0.2l0.3-0.3l0.2-0.5v-0.2v-0.1v-0.05H126l0.101-0.3v-0.7l-0.101-0.7l-0.25-0.8l-0.149-0.4l-0.101-0.2l-0.05-0.1V99.4
	L125.05,98.8l-0.301-0.25h-0.25l-0.1,0.351h-0.2l-0.2-0.05l-0.149,0.05l-0.45,0.149l-0.6,0.25l-0.65,0.45l-0.1-0.05v0.15l-0.2,0.05
	l-0.15,0.149l-1.05,0.65l-0.45,0.25l-0.35,0.3l-0.4,0.2l-0.3,0.2l-0.25,0.149l-0.15,0.15l-0.399-0.75l-0.4-0.85l-0.399-0.95
	l-0.4-0.95l0.45-0.55l0.45-0.45l0.35-0.4l0.35-0.3l0.65,2.65l2.1-0.75l1-0.351l0.95-0.3l1.7-0.6L126.65,96.95L126.65,96.95z
	 M148.85,93.7l0.1-0.4l0.05-0.199l0.101-0.15l0.149,0.1L149,93.4L148.85,93.7L148.85,93.7z M30.6,84.35h-0.15l0.15-0.3l0.15-0.2
	l0.1-0.2L31,83.6l0.2,0.5l0.1,0.25l0.15,0.3l-0.4-0.25L30.6,84.35L30.6,84.35z M32.15,92.55L31.6,90.7l-0.4-1.45l0.2-0.95l0.2-1
	v-0.25l0.2-0.25l0.2-0.15l0.1,0.85l0.2,0.95l0.2,1.1l0.25,1.25l1.15-1.85l1.2-1.5l1.25-1.25l1.3-0.95l0.85,1.45l0.75,1.55l0.2,0.5
	l0.1-0.25l0.25-0.25l0.25-0.3l0.4-0.3l0.35-0.4l0.5-0.35l0.5-0.45l0.6-0.4l0.8-0.7l0.95-0.75l1-0.8l1.15-0.85l0.1,1.25l0.1,1.1
	l0.1,0.95l0.1,0.8l1.35-1.25l0.6-0.6l0.65-0.5l0.55-0.55l0.6-0.45l1.05-0.85l0.4-0.45l0.45-0.35l0.85-0.65l0.7-0.55l0.65-0.45
	l0.25,0.85l0.35,1.15l0.35,1.4l0.45,1.75l0.15-0.25l0.1-0.05h-0.05l-0.05,0.1l-0.15,0.35l0.2,0.95l0.25,1.05l0.05,0.2l0.3,1.45
	l1.05-1l1.05-0.9l1-0.85l0.95-0.75l-0.75,0.9l-0.7,0.85l-1.25,1.5l-0.6,0.6L57,90.3l-0.5,0.5l-0.45,0.45l-0.1,0.05L55.9,91.4
	L55.75,90.8l-0.1-0.5l-0.2-0.949l-0.2-0.95l-0.15-0.55l-0.15-0.75v-0.05h-0.2l-0.1-0.1l-0.05-0.1l-0.15-0.2l-0.1-0.2l-0.2-0.5
	l0.05,0.2l0.1,0.2l0.2,0.3l0.05,0.05l0.1,0.05l0.2-0.05l-0.4-1.15L54.1,84.8l0.2-0.35l0.2-0.25l0.1-0.25l0.1-0.1V83.4l0.05-0.35
	L54.7,82.5l-0.1-0.25l-0.05-0.15l-0.15-0.15l-0.1-0.05l-0.2-0.1h-0.2l-0.25,0.05L53.45,82l-0.3,0.1l-0.25,0.2l-0.35,0.25l-0.3,0.35
	l-0.7,0.55l-0.7,0.7l-0.8,0.75l-0.8,0.95l-0.9,1L47.5,88l-0.95,1.25l-0.95,1.351l-0.2-1.051l-0.15-0.85l-0.15-0.4l-0.15-0.25V87.65
	v-0.3l-0.1-0.3L44.8,86.9l-0.1-0.35l-0.1-0.15l-0.2-0.15l-0.15,0.05L44,86.35l-0.25,0.15l-0.3,0.2l-0.3,0.35L42.9,87.1l-0.15,0.15
	L42.6,87.4l-0.05,0.25h-0.1L41.9,88l-0.5,0.45l-0.9,0.75L40,89.65l-0.45,0.55l-0.45,0.45l-0.7,0.75l-0.15-0.75L38.15,90L38,89.5
	l0.05-0.1l0.05-0.15v-0.649l-0.15-0.45l-0.3-0.35l-0.25-0.1h-0.2L37,87.65l-0.1,0.15l-0.7-0.25l-0.35-0.05l-0.25,0.1l-0.15,0.05
	L35.4,87.7l-0.2,0.4l-0.05,0.25V88.5l0.05,0.2l0.1,0.35l-0.7,0.75l-1.15,1.25l-0.65,0.7L32.15,92.55L32.15,92.55z M28.75,86.9
	l0.05-0.15l0.05,0.05L28.75,86.9L28.75,86.9z M66.5,81.85l-0.25-0.25l-0.3-0.05l0.55-0.45V81.85L66.5,81.85z"/>
<polygon fill-rule="evenodd" fill="#FFCD05" points="64.6,85.65 64.6,86.15 64.55,86.9 64.55,87.6 64.5,89.5 64.5,89.95 
	64.5,90.351 64.5,90.601 64.5,90.8 65.3,89.9 65,87.55 64.85,85.4 64.8,85.4 64.6,85.65 "/>
<polygon fill-rule="evenodd" fill="#FFCD05" points="38.4,91.4 39.1,90.65 38.65,90.45 38.3,90.15 38.15,90 38.25,90.65 38.4,91.4 
	"/>
<polygon fill-rule="evenodd" fill="#FFCD05" points="55.95,85.7 56.1,85.35 56.15,85.25 56.2,85.25 56.1,85.3 55.95,85.55 
	55.7,85.7 55.45,86 55.15,86.3 54.85,86.7 54.65,86.75 54.55,86.7 54.5,86.65 54.3,86.35 54.2,86.15 54.15,85.95 54.35,86.45 
	54.45,86.65 54.6,86.85 54.65,86.95 54.75,87.05 54.95,87.05 55.2,86.55 55.5,86.2 55.7,85.85 55.95,85.7 "/>
<path fill-rule="evenodd" fill="#FFCD05" d="M108.35,104.101l-3.8-9.601l-1.25,0.75l-1.101,0.8l-1.05,0.7l-0.95,0.75l-0.95,0.65
	l-0.8,0.649L97.7,99.4l-0.649,0.649l-0.4-0.899l-0.4-0.9L96,97.75L95.8,97.3L95.4,96.4l-0.55-1l-0.5-1l-0.3-0.55l-0.25-0.5l-0.5-1
	l-1.851,1.25l-1.75,1.3l-1.65,1.35l-1.5,1.45l-2.4-8.15l-0.65,0.5l-0.65,0.65l-0.8,0.7l-0.85,0.8l-1.05,0.85l-0.95,0.801L78.35,94.5
	l-0.65,0.65l-0.65,0.45l-0.3,0.199l-0.2,0.2l-0.45,0.25l-0.25,0.25l-0.55-1.45l-0.45-1.3L74.4,92.5l-0.35-1.1l-0.4-1.05l-0.3-0.95
	L73.1,88.55l-0.2-0.75L72.5,88l-0.35,0.3l-0.9,0.65L70.7,89.3l-0.5,0.45L69,90.7l-1.4,1.05l-0.8,0.55L66,92.95l-0.9,0.6l-0.85,0.7
	l-0.95,0.7l-0.95,0.8l-0.3-1.25l-0.15-0.95l-0.35-1.1L61.3,91.7l-0.15-0.5L61.2,91l-1.1,0.75l-0.95,0.75l-0.95,0.65L57.4,93.8
	l-0.8,0.551l-0.65,0.55l-0.6,0.5l-0.45,0.5L54.3,94.3l-0.5-1.649l-0.6-1.75l-0.5-1.8l-1.55,1.35L49.8,91.7l-1.25,1.15l-1.1,1.1
	L46.9,94.4l-0.45,0.5L45.6,95.8l-0.75,0.75L44.3,97.3l-0.2-0.699l-0.5-1.5l-0.45-1.2l-0.45-1.05l-0.4-0.801l-0.45,0.551l-0.3,0.3
	L41.3,93.3l-0.85,0.95l-0.7,0.95l-0.65,0.75l-0.5,0.75l-0.5,0.55l-0.35,0.45l-0.3,0.35l-0.15,0.301l-0.35-1.15l-0.25-0.95
	l-0.25-0.85l-0.15-0.7l-0.15-0.65l-0.05-0.449V93.25L36.15,93l-0.4,0.2l-0.35,0.3L35,93.8l-0.35,0.45L34.2,94.7l-0.4,0.55l-0.9,1.3
	L31.95,97.9L31.5,98.55l-0.35,0.7l-0.2-0.149l-0.2-0.15l-0.2-0.25l-0.2-0.35l-0.2-0.5l-0.2-0.551l-0.2-0.649L29.6,95.9l-1.1,9.6
	l-0.3,2.8l-0.2,3l-0.2,3.15l-0.2,3.3l-0.1,1.5l-0.1,1.45l-0.1,1.35l-0.1,1.351l-0.1,1.2l-0.05,1.149l-0.1,1.05v1l-0.1,0.851
	l-0.05,0.8l-0.1,0.7v0.649l-0.05,0.551v0.449v0.351v0.35l-0.05,0.15v0.1l-0.05,0.15v0.1l-0.1,0.95v0.8l-0.05,0.3v0.301v0.5l-0.1,0.3
	l-0.05,0.1v0.15l-0.1,0.399v0.051l2.7,2.75l2.8,2.699l2.85,2.5l2.95,2.4l2.95,2.2l3,2.1l3.05,1.9l3.15,1.85l3.1,1.601l3.2,1.5
	l3.25,1.3l3.35,1.25l3.35,1l3.45,0.95l3.45,0.75l3.55,0.649l3.7,0.45l3.7,0.3l1.8,0.05h0.9h0.45l0.5,0.051l1.8-0.051H91l0.851-0.1
	l0.899-0.05l1.801-0.101l1.75-0.199l1.8-0.2l1.7-0.3L100.2,164l0.45-0.05l0.9-0.1l3.5-0.7l1.649-0.5l1.7-0.45l3.4-1.1l3.3-1.25
	l3.3-1.4l3.2-1.65l3.2-1.75l3.1-1.949l0.35-0.301l0.4-0.25l0.8-0.5l1.601-1.05l0.25-0.6l0.35-0.601l0.35-0.649l0.45-0.65l0.601-1.05
	l0.75-1.05L133,146.55h-0.649l-0.75,0.15l-0.2-0.05l-0.1,0.05l-0.551,0.1l0.45-1.149l0.601-1.3l0.6-1.45l0.75-1.601l1.4-3.55
	l1.35-3.399l1.2-3.351l1.149-3.25l0.95-3.25l0.9-3.149l0.75-3.101l0.75-3l-0.8,0.25l-0.851,0.3l-0.95,0.301l-1,0.35l-1.1,0.3
	l-1.15,0.4l-1.25,0.399l-1.25,0.45l0.051-0.399l0.199-0.45l0.25-0.55l0.351-0.551l0.35-0.649l0.5-0.7l0.55-0.8l0.65-0.8l-1.25,0.25
	l-1.1,0.3l-1.101,0.25l-0.95,0.3l-0.949,0.2L130,114.65l-0.8,0.2l-0.649,0.25v-1.2l0.1-1.05v-0.9l0.1-0.75v-0.65l0.051-0.449v-0.351
	l0.1-0.149l0.05-0.551l0.101-0.449h-0.15l-0.1,0.05l-1.051,0.55l-1.1,0.7l-1.25,0.75l-1.35,0.899l-0.301-0.149l-0.199-0.3
	l-0.25-0.45l-0.2-0.55l-0.2-0.75l-0.2-0.9l-0.2-1.05l-0.149-1.2l-0.101-1.2l-0.05-0.95l-1.75,0.7l-1.5,0.7l-0.7,0.3l-0.6,0.351
	l-0.6,0.3l-0.5,0.35l-1.351-6.45l-0.45,0.301l-0.5,0.35l-0.699,0.4l-0.75,0.5l-0.95,0.449l-1.05,0.551l-1.2,0.6L108.35,104.101
	L108.35,104.101z M93.55,113.2l0.85-0.45l1.05-0.399l1.15-0.4l1.35-0.4L99.6,111l1.55-0.35l1.45-0.25l1.399-0.15l1.25-0.05
	l1.25,0.05l1.101,0.15l1.05,0.35l0.75,0.05l0.65,0.101l0.55,0.149l0.5,0.2l0.3,0.2l0.25,0.25l0.15,0.25l0.05,0.35l-0.75-0.149
	l-0.8-0.05l-1.801,0.05l-1,0.05l-1.05,0.1l-1.149,0.15l-1.2,0.25l-2.5,0.4l-2.3,0.55L97.2,114.2l-1.899,0.7l-0.551,0.149l-0.449,0.2
	l-0.801,0.3L93.1,115.65l-0.3,0.149l-0.5,0.2l-0.2,0.351l-0.05,0.3L91.7,119.3l-0.149,2.851v2.95l0.25,3.199v0.75v0.351l0.05,0.399
	l0.1,1.45v1.3v0.601v0.3v0.15L92,133.8l-0.05,0.5v0.5v0.95l-0.05,0.4v0.399h-0.05v0.051v0.1v0.2v0.399v0.301v0.199v0.101v0.05
	l0.05,0.1v0.15v0.05l0.05,0.101l-0.1,0.25l-0.05,0.1v0.15l-0.2,0.399l-0.15,0.101l-0.1,0.1l-0.2,0.05h-0.1H91v0.05L90.8,139.15
	l-0.101-0.3l-0.1-0.351l-0.2-0.149l-0.2-0.2l-0.149-0.25l-0.101-0.3l-0.149-0.45l-0.101-0.5l-0.1-0.55l-0.05-0.601l-0.101-0.75
	l-0.05-0.8l-0.05-0.85v-0.9l-0.05-1v-1.05V129l0.1-1.2v-1.35l0.1-1.15l0.051-1.149l0.1-1v-0.95l0.1-0.85l0.101-1.45v-0.65l0.05-0.5
	v-0.45l0.1-0.35v-0.35v-0.15v-0.15h0.051l0.149-0.949l0.2-0.75l0.2-0.65l0.25-0.5l0.45-0.7l0.25-0.3l0.35-0.2l0.75-0.3l0.4-0.05
	l0.5,0.05V113.2L93.55,113.2z M68,102.9l-1.3-0.55l-1.15-0.4l-1.05-0.4l-0.9-0.3l-0.85-0.3l-0.65-0.15l-0.55-0.149l-0.45-0.05
	l-1.85-0.25l-2-0.051l-1.1-0.05l-1.05,0.05l-2.3,0.15l-2.45,0.25l-2.6,0.45l0.2-0.601l0.35-0.5l0.4-0.449l0.55-0.351l0.55-0.399
	l0.7-0.25l0.7-0.25l0.85-0.15l1.75-0.3l1.95-0.15h0.05h0.1l1.35-0.1l1.55,0.05l1.55,0.1L62.1,98l2.7,0.351l2.6,0.449l1.15,0.25
	L69.7,99.4l1.1,0.35l1.05,0.4l0.95,0.399l0.9,0.45l0.7,0.4l0.6,0.5l0.4,0.399l0.3,0.5l0.1,0.45l0.05,0.5l-0.1,0.15l-0.05,0.2
	l-0.15,0.3l-0.2,0.25l-0.2,0.2l-0.3,0.1l-0.3,0.1h-0.4h-0.4l-0.2-0.1l-0.35-0.1l-0.5-0.2l-0.6-0.2l-0.85-0.3l-0.5-0.2l-0.25-0.1
	l-0.2-0.051L70,103.65l-0.25-0.101l-0.55-0.199l-0.6-0.25L68,102.9L68,102.9z M55.35,96.95V97l-0.25,0.05l-0.15,0.101l-0.25,0.1
	l-0.1-0.05L55.35,96.95L55.35,96.95z M53,93.15l0.05,0.05H53V93.15L53,93.15z M74.5,134.101l-0.55-0.9l-0.35-0.7l-0.35-0.55
	l-0.2-0.3l-0.4-0.5l-0.4-0.4L71.4,130l-1-0.649l-1.05-0.45l-1.25-0.45l-1.3-0.25l-1.45-0.15L63.9,128h-0.6l-0.6,0.101l-0.65,0.149
	l-0.6,0.3l-0.7,0.25l-0.7,0.4l-0.75,0.45l-0.75,0.55l-0.85,0.5l-0.7,0.45l-0.7,0.35l-0.6,0.351l-0.6,0.199l-0.5,0.2l-0.5,0.101
	l-0.4,0.05l-0.45-0.05L52.9,132.3l-0.35-0.1l-0.25-0.05L52,132l-0.2-0.149l-0.25-0.351l-0.1-0.45v-0.25v-0.199v-0.051l0.05-0.399
	l0.1-0.25l0.2-0.25l0.15-0.351l0.25-0.35l0.3-0.45l0.4-0.45l0.85-1.25l0.95-1.1l0.95-1.05l1.05-0.9l1.5-1.35l1.6-1l1.5-0.8
	l0.75-0.301l0.8-0.149l1.5-0.25l1.5,0.05l0.7,0.1l0.75,0.2l1.5,0.601l1.1,0.399l1.05,0.55l0.95,0.551l0.9,0.699l0.8,0.65l0.75,0.8
	l0.65,0.8l0.65,0.9l0.7,1.35l0.3,0.7L76.9,129l0.3,1.5l0.1,0.8l0.05,0.851l-0.05,0.35l-0.05,0.45l-0.15,0.45l-0.15,0.55l-0.3,0.55
	l-0.3,0.4l-0.2,0.1l-0.1,0.05L76,135.15l-0.3,0.1l-0.3-0.1l-0.3-0.2l-0.3-0.4L74.5,134.101L74.5,134.101z M86.75,146.25v-0.55v-0.15
	v-0.05l0.1-0.5l0.25-0.35l0.35-0.3L88,144.2l0.55-0.15h0.75l0.85,0.051l1,0.199l0.9,0.15l0.85,0.2l0.65,0.2l0.6,0.25l0.4,0.199
	l0.3,0.301l0.149,0.25l0.101,0.3l-0.2,0.399l-0.2,0.15l-0.149,0.2L94.3,147H94.2h-0.05v0.05l-0.1,0.101l-0.351,0.1l-0.3,0.15h-0.5
	l-0.5,0.05h-0.6L91.2,147.5l-0.7-0.05H89.85l-0.75-0.1l-0.4-0.051h-0.35l-0.65-0.199l-0.45-0.2l-0.35-0.3L86.75,146.25L86.75,146.25
	z M121.3,128.2l-0.051,0.1v0.15l0.301,0.45l0.25,0.649L122,130.3l0.051,0.4l0.1,0.5l-0.05,1.6l-0.2,1.601l-0.4,1.7l-0.3,0.8
	L121,137.3l-0.1,0.2l-0.05,0.101v0.149l-0.101,0.05l-0.05,0.101l-0.1,0.2l-0.2,0.399l-0.5,0.8l-1.2,1.5l-0.2,0.101l-0.1,0.05
	l-0.05,0.1l-0.3,0.301l-0.601,0.55l-0.35,0.2l-0.3,0.25l-0.351,0.199l-0.3,0.25l-0.4,0.15l-0.35,0.2l-0.7,0.35l-0.399,0.101
	l-0.2,0.05l-0.15,0.1l-0.75,0.3l-0.899,0.15h-0.25l-0.2,0.05l-0.4,0.101l-0.899,0.1l-0.851,0.1l-1-0.05h-0.95l-1-0.1l-1-0.101
	l-1.1-0.25l-0.95-0.25l-0.95-0.3l-0.85-0.3l-0.85-0.4l-0.75-0.449l-0.75-0.5l-0.601-0.5L98.3,140.7l-0.551-0.65l-0.55-0.699
	l-0.399-0.7l-0.45-0.8L96,137l-0.3-0.899l-0.2-0.9l-0.25-1.35L95.1,132.55l-0.05-1.399l0.05-1.351l0.1-1.149L95.3,127.8v-0.35
	l0.05-0.2l0.1-0.149l0.15-0.7l0.35-0.65l-0.149-0.1l-0.101-0.05V125.5v-0.149l0.05-0.25l0.15-0.45l0.45-0.25l0.7-0.25l1-0.101
	l1.199-0.1L100.8,124l1.75,0.101l2.1,0.25l0.55,0.05l0.351,0.05l0.55,0.1l0.55,0.051l0.65,0.1l1.55,0.25l1.85,0.25l1.05,0.15
	l1.15,0.199l2.55,0.351l2.851,0.45l0.55,0.1l0.5,0.1l0.899,0.25l0.601,0.301l0.399,0.399l0.101,0.101l0.05,0.199L121.3,128.2
	L121.3,128.2z M129.65,147.05l-2.45,0.45l1.3-0.3l1.2-0.2L129.65,147.05L129.65,147.05z M129.65,147.2l-0.25,0.8l-0.6,0.95
	L129.65,147.2L129.65,147.2z"/>
<polygon fill-rule="evenodd" fill="#F8981D" points="97.95,111.55 96.6,111.95 95.45,112.351 94.4,112.75 93.55,113.2 93.55,112.95 
	93.05,112.9 92.65,112.95 91.9,113.25 91.55,113.45 91.3,113.75 90.85,114.45 90.6,114.95 90.4,115.601 90.2,116.351 90.05,117.3 
	90,117.3 90,117.45 90,117.601 90,117.95 89.9,118.3 89.9,118.75 89.85,119.25 89.85,119.9 89.75,121.351 89.65,122.2 89.65,123.15 
	89.55,124.15 89.5,125.3 89.4,126.45 89.4,127.8 89.3,129 89.3,130.15 89.3,131.2 89.35,132.2 89.35,133.101 89.4,133.95 
	89.45,134.75 89.55,135.5 89.6,136.101 89.7,136.65 89.8,137.15 89.95,137.601 90.05,137.9 90.2,138.15 90.4,138.351 90.6,138.5 
	90.7,138.851 90.8,139.15 91,139.55 91,139.5 91.05,139.5 91.15,139.5 91.35,139.45 91.45,139.351 91.6,139.25 91.8,138.851 
	91.8,138.7 91.85,138.601 91.95,138.351 91.9,138.25 91.9,138.2 91.9,138.05 91.85,137.95 91.85,137.9 91.85,137.8 91.85,137.601 
	91.85,137.3 91.85,136.9 91.85,136.7 91.85,136.601 91.85,136.55 91.9,136.55 91.9,136.15 91.95,135.75 91.95,134.8 91.95,134.3 
	92,133.8 91.95,133.601 91.95,133.45 91.95,133.15 91.95,132.55 91.95,131.25 91.85,129.8 91.8,129.4 91.8,129.05 91.8,128.3 
	91.55,125.101 91.55,122.15 91.7,119.3 92.05,116.65 92.1,116.351 92.3,116 92.8,115.8 93.1,115.65 93.5,115.55 94.3,115.25 
	94.75,115.05 95.3,114.9 97.2,114.2 99.3,113.65 101.6,113.101 104.1,112.7 105.3,112.45 106.45,112.3 107.5,112.2 108.5,112.15 
	110.3,112.101 111.1,112.15 111.85,112.3 111.8,111.95 111.65,111.7 111.4,111.45 111.1,111.25 110.6,111.05 110.05,110.9 
	109.4,110.8 108.65,110.75 107.6,110.4 106.5,110.25 105.25,110.2 104,110.25 102.6,110.4 101.15,110.65 99.6,111 97.95,111.55 "/>
<polygon fill-rule="evenodd" fill="#F8981D" points="61.1,100.601 61.55,100.65 62.1,100.8 62.75,100.95 63.6,101.25 64.5,101.55 
	65.55,101.95 66.7,102.351 68,102.9 68.6,103.101 69.2,103.351 69.75,103.55 70,103.65 70.3,103.8 70.5,103.851 70.75,103.95 
	71.25,104.15 72.1,104.45 72.7,104.65 73.2,104.851 73.55,104.95 73.75,105.05 74.15,105.05 74.55,105.05 74.85,104.95 
	75.15,104.851 75.35,104.65 75.55,104.4 75.7,104.101 75.75,103.9 75.85,103.75 75.8,103.25 75.7,102.8 75.4,102.3 75,101.9 
	74.4,101.4 73.7,101 72.8,100.55 71.85,100.15 70.8,99.75 69.7,99.4 68.55,99.05 67.4,98.8 64.8,98.351 62.1,98 60.35,97.8 
	58.8,97.7 57.25,97.65 55.9,97.75 55.85,97.8 55.8,97.75 55.75,97.75 53.8,97.9 52.05,98.2 51.2,98.351 50.5,98.601 49.8,98.851 
	49.25,99.25 48.7,99.601 48.3,100.05 47.95,100.55 47.75,101.15 50.35,100.7 52.8,100.45 55.1,100.3 56.15,100.25 57.25,100.3 
	59.25,100.351 61.1,100.601 "/>
<polygon fill-rule="evenodd" fill="#F8981D" points="55.35,97 55.35,96.95 54.6,97.2 54.7,97.25 54.95,97.15 55.1,97.05 55.35,97 
	"/>
<polygon fill-rule="evenodd" fill="#F8981D" points="73.05,131.65 73.25,131.95 73.6,132.5 73.95,133.2 74.5,134.101 74.8,134.55 
	75.1,134.95 75.4,135.15 75.7,135.25 76,135.15 76.05,135.05 76.15,135 76.35,134.9 76.65,134.5 76.95,133.95 77.1,133.4 
	77.25,132.95 77.3,132.5 77.35,132.15 77.3,131.3 77.2,130.5 76.9,129 76.65,128.25 76.35,127.55 75.65,126.2 75,125.3 74.35,124.5 
	73.6,123.7 72.8,123.05 71.9,122.351 70.95,121.8 69.9,121.25 68.8,120.851 67.3,120.25 66.55,120.05 65.85,119.95 64.35,119.9 
	62.85,120.15 62.05,120.3 61.3,120.601 59.8,121.4 58.2,122.4 56.7,123.75 55.65,124.65 54.7,125.7 53.75,126.8 52.9,128.05 
	52.5,128.5 52.2,128.95 51.95,129.3 51.8,129.65 51.6,129.9 51.5,130.15 51.45,130.55 51.45,130.601 51.45,130.8 51.45,131.05 
	51.55,131.5 51.8,131.851 52,132 52.3,132.15 52.55,132.2 52.9,132.3 53.25,132.351 53.7,132.4 54.1,132.351 54.6,132.25 
	55.1,132.05 55.7,131.851 56.3,131.5 57,131.15 57.7,130.7 58.55,130.2 59.3,129.65 60.05,129.2 60.75,128.8 61.45,128.55 
	62.05,128.25 62.7,128.101 63.3,128 63.9,128 65.35,128.05 66.8,128.2 68.1,128.45 69.35,128.9 70.4,129.351 71.4,130 72.25,130.75 
	72.65,131.15 73.05,131.65 "/>
<polygon fill-rule="evenodd" fill="#F8981D" points="86.75,145.5 86.75,145.55 86.75,145.7 86.75,146.25 86.9,146.601 87.25,146.9 
	87.7,147.101 88.35,147.3 88.7,147.3 89.1,147.351 89.85,147.45 90.5,147.45 91.2,147.5 91.8,147.45 92.4,147.45 92.9,147.4 
	93.4,147.4 93.7,147.25 94.05,147.15 94.15,147.05 94.15,147 94.2,147 94.3,147 94.55,146.9 94.7,146.7 94.9,146.55 95.1,146.15 
	95,145.851 94.85,145.601 94.55,145.3 94.15,145.101 93.55,144.851 92.9,144.65 92.05,144.45 91.15,144.3 90.15,144.101 
	89.3,144.05 88.55,144.05 88,144.2 87.45,144.351 87.1,144.65 86.85,145 86.75,145.5 "/>
<path fill-rule="evenodd" fill="#F8981D" d="M121.25,128.45v-0.15l0.051-0.1l0.1-0.4l-0.05-0.199l-0.101-0.101l-0.399-0.399
	l-0.601-0.301l-0.899-0.25l-0.5-0.1l-0.55-0.1l-2.851-0.45l-2.55-0.351l-1.15-0.199l-1.05-0.15l-1.85-0.25l-1.55-0.25l-0.65-0.1
	l-0.55-0.051l-0.55-0.1l-0.351-0.05l-0.55-0.05l-2.1-0.25L100.8,124l-1.551-0.05l-1.199,0.1l-1,0.101l-0.7,0.25l-0.45,0.25
	l-0.15,0.45l-0.05,0.25v0.149v0.101l0.101,0.05l0.149,0.1l-0.35,0.65l-0.15,0.7l-0.1,0.149l-0.05,0.2v0.35L95.2,128.65l-0.1,1.149
	l-0.05,1.351l0.05,1.399l0.149,1.301l0.25,1.35l0.2,0.9L96,137l0.351,0.851l0.45,0.8l0.399,0.7l0.55,0.699l0.551,0.65l0.649,0.65
	l0.601,0.5l0.75,0.5l0.75,0.449l0.85,0.4l0.85,0.3l0.95,0.3l0.95,0.25l1.1,0.25l1,0.101l1,0.1h0.95l1,0.05l0.851-0.1l0.899-0.1
	l0.4-0.101l0.2-0.05h0.25l0.899-0.15l0.75-0.3l0.15-0.1l0.2-0.05l0.399-0.101l0.7-0.35l0.35-0.2l0.4-0.15l0.3-0.25l0.351-0.199
	l0.3-0.25l0.35-0.2l0.601-0.55l0.3-0.301l0.05-0.1l0.1-0.05l0.2-0.101l1.2-1.5l0.5-0.8l0.2-0.399l0.1-0.2l0.05-0.101l0.101-0.05
	v-0.149l0.05-0.101l0.1-0.2l0.2-0.399l0.3-0.8l0.4-1.7l0.2-1.601l0.05-1.6l-0.1-0.5L122,130.3l-0.199-0.75l-0.25-0.649
	L121.25,128.45L121.25,128.45z M115.25,128.851l0.9,0.1l0.85,0.1l0.75,0.101l0.65,0.1l0.05,0.55l0.15,0.95l0.1,0.75l0.05,0.8v0.7
	l-0.05,0.8l-0.149,0.601l-0.101,0.3h-0.05v0.05v0.101v0.199l-0.5,1.2l-0.2,0.25l-0.149,0.3L117.2,137.4l-0.85,1.1l-0.5,0.4
	l-0.45,0.399l-0.3,0.15l-0.25,0.2l-0.5,0.35l-0.601,0.25l-0.55,0.3l-0.6,0.2l-0.3,0.101H112.2l-0.05,0.05l-0.1,0.1l-0.7,0.101h-0.2
	h-0.1L111,141.15l-0.3,0.1l-1.399,0.15l-0.801-0.05h-0.75l-0.8-0.101l-0.399-0.05H106.2l-0.85-0.2l-0.75-0.149l-0.75-0.2l-0.65-0.2
	l-0.7-0.3l-0.6-0.25l-1.05-0.55l-0.95-0.75l-0.75-0.851l-0.35-0.5l-0.25-0.45l-0.25-0.5l-0.15-0.5L97.9,135l-0.1-0.75l-0.101-0.8
	l0.05-0.8v-0.7l0.101-0.5v-0.4V130.9l0.05-0.05V129.8l0.05-1.1l0.05-1.2l0.15-1.25l1.65,0.101l2,0.1l2.899,0.1l2.9,0.351h0.149
	l0.351,0.05l0.35,0.1l0.55,0.101l0.551,0.1l0.75,0.15l0.75,0.2l0.949,0.25l0.75,0.149l1.101,0.351l0.2,0.05l0.25,0.1l0.199,0.05
	l0.25,0.101l0.25,0.1L115.25,128.851L115.25,128.851z"/>
<path fill-rule="evenodd" fill="#FFCD05" d="M118.4,129.25l-0.65-0.1L117,129.05l-0.85-0.1l-0.9-0.1L115,128.75l-0.25-0.1
	l-0.25-0.101l-0.199-0.05l-0.25-0.1l-0.2-0.05L112.75,128l-0.75-0.149l-0.949-0.25l-0.75-0.2l-0.75-0.15l-0.551-0.1l-0.55-0.101
	l-0.35-0.1l-0.351-0.05H107.6l-2.9-0.351l-2.899-0.1l-2-0.1l-1.65-0.101L98,127.5l-0.05,1.2l-0.05,1.1v1.051l-0.05,0.05v0.149v0.4
	l-0.101,0.5v0.7l-0.05,0.8l0.101,0.8l0.1,0.75l0.25,0.8l0.15,0.5l0.25,0.5l0.25,0.45l0.35,0.5l0.75,0.851l0.95,0.75l1.05,0.55
	l0.6,0.25l0.7,0.3l0.65,0.2l0.75,0.2l0.75,0.149l0.85,0.2h0.351l0.399,0.05l0.8,0.101h0.75l0.801,0.05l1.399-0.15l0.3-0.1
	l0.051-0.05h0.1h0.2l0.7-0.101l0.1-0.1l0.05-0.05h0.101l0.3-0.101l0.6-0.2l0.55-0.3l0.601-0.25l0.5-0.35l0.25-0.2l0.3-0.15
	l0.45-0.399l0.5-0.4l0.85-1.1l0.351-0.601l0.149-0.3l0.2-0.25l0.5-1.2v-0.199v-0.101v-0.05h0.05l0.101-0.3l0.149-0.601l0.05-0.8
	v-0.7l-0.05-0.8l-0.1-0.75l-0.15-0.95L118.4,129.25L118.4,129.25z M104.4,128.95l0.15-0.2l-0.101,0.2H104.4L104.4,128.95z"/>
<polygon fill-rule="evenodd" fill="#F8981D" points="127.2,147.5 129.65,147.05 129.7,147 128.5,147.2 127.2,147.5 "/>
<polygon fill-rule="evenodd" fill="#F8981D" points="129.4,148 129.65,147.2 128.8,148.95 129.4,148 "/>
<polygon fill-rule="evenodd" fill="#FFCD05" points="25.1,100.101 25.1,100.25 25,100.7 24.85,102.4 24.8,104.15 24.7,104.65 
	24.65,104.75 24.65,104.9 24.65,105.2 24.55,105.7 24.5,105.8 24.5,105.95 24.5,106.25 24.5,107.25 24.25,108.75 24.15,110.45 
	24.05,112.25 24.1,114.25 24.15,116.3 24.3,118.55 24.5,120.9 24.85,123.4 24.95,119.601 25.1,119 25.2,116.2 25.35,112.5 25.6,109 
	25.9,105.65 26.3,102.55 27.1,95.25 27.25,94.3 27.85,91.25 26.95,93.4 26.2,95.601 25.55,97.8 25.1,100.101 "/>
<polygon fill-rule="evenodd" fill="#FFCD05" points="23.6,134.05 23.55,133.7 23.5,133.95 23.6,134.05 "/>
<path fill-rule="evenodd" fill="#CB6928" d="M84.45,5.75l-1.9-1.15l-1.75-1l-1.65-0.9L77.7,1.95l-1.35-0.7l-1.2-0.55l-1.1-0.45
	L73.15,0l0.5,1.25l0.6,1.45l0.6,1.45l0.7,1.65l0.65,1.65l0.75,1.8l1.55,3.85l-3.65-0.7l-3.55-0.5l-3.55-0.25H64.3l-3.5,0.15
	l-3.4,0.4L54,12.8l-3.3,0.85l-3.35,1L44.1,15.9l-3.25,1.45l-3.15,1.7l-3.2,1.85L31.4,23l-3.1,2.3l-3,2.55l-2.35,2.05l-2.15,2.2
	l-2.05,2.3l-1.95,2.45l-1.85,2.55l-1.75,2.7l-1.65,2.8l-1.5,2.95L9.3,49.2l-0.65,1.35L8,51.8L7.45,53L6.9,54.1l-0.5,1.05l-0.85,1.9
	l-0.75,1.6l-0.3,0.7L4.25,60L4,60.55l-0.2,0.5l-0.25,0.8L4.2,61.3L5,60.8l0.85-0.6l1.05-0.55l1.2-0.85l1.2-0.75l2.2-1.35l1.9-1.25
	l1.7-1.05l1.4-0.95l0.6-0.4l0.55-0.35l0.45-0.35l0.4-0.25l0.35-0.25l0.3-0.15l-1,0.85l-0.9,0.95l-1.75,2l-1.2,1.45l-1.1,1.55
	l-1.1,1.65l-1,1.8L9.15,65.7L8.2,67.75L7.35,69.9l-1.2,2.95l-1.05,3L4.15,78.8l-0.85,3l-0.85,2.9L1.8,87.65L1.25,90.55l-0.45,3
	l-0.4,2.9l-0.25,3L0,102.5v3.15l0.1,3.149l0.25,3.25l0.4,3.301L1.3,118.8l0.7,3.95l0.95,4l1.1,4l1.4,4l1.25,3.45l0.4-1.6l0.15-0.7
	l0.2-0.601l0.3-1.149l0.3-0.9l0.3-0.95l0.3-0.85l0.3-0.75l0.35-0.65l0.25,0.9l0.45,1.2l0.55,1.45l0.75,1.8l0.35,0.899l0.45,1.051
	l0.45,1.1l0.55,1.2l0.5,1.2l0.6,1.35l0.6,1.4l0.7,1.5l0.7,1.5l0.35,0.699l0.4,0.75l0.7,1.4l0.7,1.4l0.6,1.3l0.3,0.6l0.15,0.3
	l0.2,0.351l0.6,1.2l0.6,1.199l0.5,1.051l0.5,1.05l0.45,1l0.45,1l0.15,0.399l0.2,0.45l0.4,0.851l0.35,0.8l0.35,0.8v-2.4l0.1-2.1
	v-1.05l0.05-0.95l0.1-1.75v-1.65l0.1-1.399v-0.7l0.05-0.6l0.1-1v-2.051l0.1-2.199l0.1-2.351l0.1-2.45v-0.949l0.1-0.851v-1.899
	l-0.05-1.4v-1.05l-0.05-0.55v-0.4l0.2,0.2L25.3,130l-0.05-0.149l0.05-1.351l-0.05-1.8l0.05-1.85l0.15-3.801l0.1-3.149l0.2-3
	l0.2-2.851l0.25-2.699l0.2-2.65l0.25-2.5l0.3-2.35l0.3-2.2l0.3-2.15l0.3-2l0.3-1.85l0.4-1.75l0.35-1.65l0.4-1.5l0.4-1.35l0.5-1.2
	l0.3,1.2l0.8,3.7L31.45,92l0.2,0.95l0.4,1.9L32.8,93.8l0.75-0.949l0.65-0.9l0.65-0.75l0.5-0.75l0.5-0.65l0.45-0.6l0.4-0.45l0.6,1.4
	l0.25,0.6l0.3,0.601l0.2,0.449l0.1,0.2l0.05,0.101l0.1,0.149l0.2,0.351l0.1,0.149l0.15,0.2l0.9-1.1l0.9-0.95l0.85-0.95l0.8-0.75
	l0.7-0.75l0.7-0.6l0.6-0.55l0.6-0.4v0.25l0.05,0.3l0.1,0.6l0.15,1.101v0.5v0.25l0.05,0.3l0.05,1l2.1-1.85l2.1-1.7l2.1-1.6l2.2-1.45
	l0.1,0.45l0.2,0.6l0.25,0.7l0.3,0.85v0.1v0.05l0.05,0.1l0.1,0.3l0.2,0.55l0.15,0.5l0.2,0.5l0.1,0.4l0.15,0.4l0.1,0.35l0.15,0.4v0.1
	V91l0.05,0.101l0.1,0.25L56,91.8V91.9v0.05l0.05,0.1v0.15L56,92.15l0.1-0.101l0.15-0.149l0.25-0.2l0.25-0.35l0.4-0.4l0.4-0.45
	L58.1,90l0.55-0.649l0.65-0.7L60,87.9l0.85-0.8l0.8-0.95l0.95-1l1-1.05l1.15-1.1l-0.1,2.15L64.5,87.4l-0.25,2.35L64,92.2l10.65-7.55
	l1.4,8.7V93.25l0.15-0.1l0.2-0.2l0.35-0.2l0.3-0.3l0.45-0.25l0.5-0.35l0.65-0.351l0.6-0.45l0.7-0.5l0.75-0.6l0.85-0.6l0.85-0.75
	l1-0.75l1-0.85l1.15-0.9l0.4,2.7l0.4,2.5l0.2,1.15l0.2,1.1l0.2,1.051l0.3,1l1.2-1.25L89.6,93.3l1.05-1l0.95-0.85l0.75-0.85
	l0.75-0.65l0.55-0.65l0.55-0.449l0.15,0.899l0.35,1.05l0.45,1.15l0.55,1.3l0.351,0.8l0.449,1.051L97,96.3l0.65,1.45l0.95-0.85
	l1.1-0.8l1.15-0.851l1.25-0.8l0.55-0.45l0.55-0.35l0.5-0.351l0.45-0.199l0.35-0.25l0.351-0.15l0.3-0.1h0.3l0.7,1.6l0.7,1.5l0.6,1.35
	l0.101,0.301v0.05l0.05,0.1l0.1,0.2l0.3,0.65l0.2,0.55l0.101,0.25l0.149,0.3l0.4,1.05l0.149,0.4l0.2,0.45l0.3,0.8l1.7-1.601l1.7-1.5
	l3.2-2.949L116.5,98l0.4,1.7l0.3,1.5l0.101,0.65l0.149,0.699l0.45-0.149l0.6-0.2l0.301-0.15l0.399-0.1l0.4-0.15l0.5-0.1l1-0.4
	l1.149-0.399l1.301-0.5L125,99.9l-0.1,1.1v1.05v2l-0.1,1.7v1.601l0.6-0.2l0.75-0.15l0.85-0.2l0.95-0.149l1.05-0.2l1.2-0.2l1.3-0.2
	l1.45-0.199l-0.5,1.449l-0.399,1.351l-0.5,1.2l-0.4,1.05l1.4-0.65l1.199-0.5l1-0.45l0.9-0.35l0.65-0.3l0.5-0.15l0.3-0.149h0.149
	v0.199L137.05,109l-0.15,0.65l-0.25,0.75l-0.2,0.85l-0.25,0.95l-0.05,0.9l1.45-0.2l1.7-0.101l1.949-0.199l2.25-0.101v0.25
	l0.051,0.351v0.449v0.551l-0.051,0.649v0.75l-0.05,0.851v1l-0.2,1.85l-0.199,1.75l-0.301,1.6l-0.1,0.351l-0.05,0.399l-0.101,0.801
	l-0.149,0.3l-0.101,0.399l-0.3,0.9l-0.35,1.05l-0.4,1.2l-0.5,1.3l-0.55,1.45l-0.35,0.75l-0.301,0.85l-0.35,0.851l-0.3,0.95
	l-0.601,1.399l-0.6,1.351l-0.6,1.25L136.5,139.3l-1.149,2.2l-0.601,1l-0.5,0.95l4.551-1.6l-5.2,7.25l-1.95,2.699l0.15,0.051
	l-1.65,3.05l-0.8,1.5l-0.7,1.55l-1.25,2.4l-1.1,2.35l-1.051,2.3l-0.949,2.25l-0.95,2.15l-0.851,2.1l-0.8,2.05l-0.7,2l2.551-2.649
	l2.449-2.45l2.301-2.35l2.199-2.15l2-2.05l1.9-1.851l0.85-0.899l0.851-0.8l0.8-0.801l0.8-0.699l1.4-1.45l1.3-1.25l1.1-1.15l1-0.95
	l0.801-0.85l0.699-0.65l0.25-0.3l0.25-0.2l0.2-0.199l0.2-0.101l-1.15,2.9l-0.949,2.7l-0.95,2.5l-0.75,2.3l-0.4,1.05l-0.35,1
	l-0.65,1.9l-0.3,0.85l-0.25,0.8l-0.45,1.5l2.2-2.2l2.15-2.1l1-1.1l0.5-0.551l0.55-0.5l1.95-2.1l1.85-2.2l1.75-2.1l1.65-2.2
	l1.649-2.1l1.45-2.2l1.35-2.2l1.25-2.2l0.601-1.1l0.3-0.55l0.35-0.5l1.051-2.2l1.05-2.2l0.85-2.2l0.4-1.1l0.2-0.55l0.25-0.5v-0.15
	l0.05-0.1l0.1-0.2l0.2-0.4l0.4-0.95l0.399-1.1l0.4-1.2l0.149-0.7l0.2-0.699l0.4-1.5l0.399-1.65l0.4-1.75l0.25-1.9l0.25-1.899
	l0.15-1.9l0.1-1.899l-0.05-1.9l-0.05-1.9l-0.15-1.899l-0.2-1.851l1.101,0.551l1.1,0.6l2.15,1.1l0.949,0.5l1,0.551l0.45,0.199
	l0.5,0.25l0.95,0.5l0.3-2.25l0.3-2.25l0.2-2.35l0.15-2.3v-1.25l0.05-1.2v-2.4l-0.05-2.5l-0.101-2.449l-0.25-2.601l-0.149-1.3
	L175,89.2l-0.199-1.35l-0.15-1.3l-0.4-2.65l-0.5-2.75l-0.3-1.4l-0.149-0.7L173.2,78.4l-0.649-2.8l-0.65-2.8l-0.85-2.85L170.2,67.2
	l-1-2.7l-1.05-2.55l-1.2-2.55L165.7,57l-1.35-2.35l-1.45-2.25l-1.55-2.25l-1.65-2.05l-1.75-2.05l-1.8-1.9l-1.95-1.9l-1.95-1.75
	l-2.149-1.75l-2.15-1.55l20.75,8.5l-0.899-2.2l-1-2.05l-1.2-2.05l-1.4-1.95l-1.6-1.95l-1.75-1.85l-1.95-1.8l-2.1-1.7L154.2,28.2
	l-1.35-0.95l-1.3-0.85l-2.75-1.65l-2.75-1.55l-2.9-1.45l-1.5-0.7l-1.45-0.6l-1.55-0.65l-1.5-0.55l-3.05-1.05l-3.2-1l-3.25-0.85
	l-3.35-0.75l-3.4-0.55l-3.5-0.5l-3.55-0.35l-3.65-0.25l-3.7-0.05l-0.85-1L105,12l-0.3-0.5l-0.2-0.45l-0.3-0.9l-0.2-1l0.051-0.9
	l0.05-0.5l0.149-0.45l0.4-0.9L105,5.45L105.15,5l0.2-0.35l0.1-0.4l0.15-0.3l0.3-0.55l0.15-0.45l0.199-0.35l0.101-0.25l0.1-0.05
	L104.3,2.45l-2,0.4l-1.95,0.6l-1.8,0.85L96.7,5.35l-1.649,1.3l-1.65,1.5l-1.5,1.8h-0.05H91.8L91.7,9.9h-0.05l-0.1-0.05H91.5
	L91.2,9.7l-0.3-0.15l-0.4-0.2L90.1,9.15l-0.3-0.2l-0.15-0.1l-0.1-0.05L89,8.5l-0.6-0.4l-0.35-0.2l-0.3-0.15L87,7.25L86.2,6.8
	l-0.45-0.3l-0.4-0.25L84.45,5.75L84.45,5.75z M63.65,13.95l0.6-0.05h0.1h0.4h0.6L66.2,14l1,0.05l1.3,0.1l1.5,0.1l1.75,0.15l1.7,0.1
	l1.65,0.2l1.45,0.2L78,15.1l1.25,0.2l1.2,0.2l1.05,0.25l0.95,0.3l-0.6-1.85l-0.55-1.6l-0.5-1.5l-0.4-1.25L80,8.7l-0.35-0.9L79.35,7
	l-0.2-0.55l2,0.5l2,0.75l0.95,0.4l1,0.55l2,1.2l1.149,0.8l1.351,0.9l1.45,0.85l1.55,0.9l0.899-1.35l1-1.15l0.9-1.1l0.95-0.95
	L97.2,7.9l0.9-0.75l0.85-0.65l0.9-0.5l0.899-0.55L101.1,5.2l0.399-0.15l0.301-0.2l0.3-0.1l0.45-0.15l0.25-0.05l0.149,0.05
	l-0.05,0.05V4.8l-0.2,0.35l-0.55,0.8L101.75,7l-0.399,1.25L101.1,9.8L101,10.55l0.101,0.9l0.2,0.95l0.35,1.1l0.45,1.05l0.649,1.2
	L103.5,17l0.9,1.35l0.45-0.3l0.55-0.2l1.3-0.35l1.5-0.25l1.851-0.15l2.05-0.05h1.1l1.25,0.1l1.25,0.05l1.351,0.15l2.899,0.35
	l2.9,0.4l2.95,0.55l2.899,0.65l2.9,0.8l2.8,0.9l2.85,1.05l1.351,0.55L140,23.25l2.801,1.35L145.5,26l2.75,1.65l2.7,1.8l2.75,2.05
	l2.7,2.2l2.7,2.4l2.7,2.6l2.699,2.85l-1.85-0.75l-1.75-0.65L157.65,39l-1.55-0.55L154.65,38L152,37.25l-1.3-0.4l-1.149-0.3
	l-2.101-0.45l-1-0.2l-0.85-0.1l-1.45-0.05l0.7,0.6l0.75,0.6l0.8,0.65l1.45,1.2l1.35,1.1l1.3,1.1l1.15,1l0.5,0.45l0.55,0.5l0.45,0.4
	l0.5,0.45l0.45,0.4l0.2,0.2l0.1,0.1l0.05,0.05l0.101,0.1L155.9,46l1.3,1.45l1.25,1.5l1.25,1.6l1.15,1.6l1.1,1.75l1.05,1.75
	l1.051,1.9l0.899,1.85l0.9,2l0.85,2l0.8,2.15l0.7,2.15l0.7,2.25l0.65,2.3l0.6,2.45l0.35,1.9l0.4,2.05l0.3,2.1l0.3,2.25l0.2,2.25
	l0.25,2.45l0.15,2.45l0.2,2.649v1.5l0.1,1.75V97.9l0.1,2.05v2.15l0.101,2.399v2.5l0.1,2.7l-0.7-0.5l-0.399-0.3l-0.45-0.2l-0.55-0.3
	l-0.3-0.15l-0.25-0.1l-0.65-0.3l-0.2-0.101l-0.1-0.05h-0.05l-0.301-0.1l-0.1-0.101l-0.05-0.05l-0.15-0.1l-0.1-0.051h-0.05l-0.15-0.1
	l-0.1-0.05l-0.15-0.101l-0.1-0.05l-0.351-0.2l-0.2-0.1l-0.1-0.05h-0.05l-0.45-0.3l-0.15-0.101l-0.1-0.05l-0.2-0.1l-0.55-0.301
	l-0.5-0.3l-0.65-0.399l-0.35-0.2l-0.3-0.15l-0.7-0.399l-0.7-0.351v0.3v0.15l0.05,0.2l0.101,0.7l0.2,1.399l0.1,1.351l0.15,1.399
	l0.05,1.3l0.1,1.351l0.05,1.3l0.101,1.35v2.5l-0.05,2.5l-0.15,2.4l-0.1,1.15L163,124.55l-0.199,1.101l-0.2,1.2l-0.3,1.199
	L162,129.351l-0.399,1.3l-0.45,1.35l-0.5,1.4l-0.55,1.45l-0.65,1.449l-0.7,1.5l-1.5,3.15l-0.85,1.6l-0.9,1.65l-0.949,1.7l-1,1.75
	l-1.101,1.649l-0.95,1.551l-0.949,1.449l-0.851,1.4l-0.85,1.25l-0.75,1.15l-0.75,1.05l-0.65,1l-0.649,0.8l-0.551,0.75l-0.55,0.65
	l-0.399,0.55l-0.45,0.399l-0.3,0.351l-0.301,0.25l-0.199,0.149l2.949-12.699V149.3l-0.199-0.25l-0.45,0.351l-0.55,0.45l-0.65,0.55
	l-0.7,0.649l-0.85,0.75l-0.95,0.851l-1.05,0.95l-1.101,1.05l-1.3,1.05l-1.35,1.25l-1.45,1.35l-1.55,1.45l-1.7,1.45l-1.75,1.65
	l-1.85,1.75l-1.95,1.85l0.1-0.3l0.2-0.351l0.2-0.449l0.3-0.551l-0.35,0.851l1.6-2.7l1.55-2.55l1.5-2.45l1.45-2.35l1.35-2.25
	l1.301-2.101l1.199-2.05l1.15-1.85l1.05-1.851l1-1.7l0.9-1.649l0.85-1.45l0.351-0.75l0.399-0.65l0.75-1.25l0.65-1.149l0.6-1.05
	l-1.8,1.05l-1.85,1.149l-1.9,1.25l-1.95,1.4l0.95-1.6l0.9-1.551l0.399-0.85l0.45-0.8L141,134.3l0.75-1.699l0.7-1.7l0.3-0.9v-0.149
	l0.051-0.101l0.1-0.2l0.2-0.399l0.6-1.75l0.5-1.851l0.45-1.649l0.4-1.55l0.149-0.75l0.2-0.65l0.25-1.35l0.2-1.15L146,117.4
	l0.101-0.95l-0.05-1.85v-1.65l-0.051-0.8v-0.7v-1.3h-1.5l-1.6,0.1H141l-2,0.101l0.7-1.551l0.3-0.699l0.351-0.601l0.2-0.649
	l0.25-0.551l0.35-0.949l0.05-0.45l0.101-0.351v-0.35l0.05-0.25l-0.101-0.45l-0.1-0.149l-0.1-0.051l-0.25-0.1h-0.2l-0.5,0.15
	l-0.7,0.25L139,103.8l-0.399,0.301l-0.5,0.25l-0.5,0.35l-1.101,0.85L135.85,106l-0.65,0.55l-1.35,1.25l2.5-5.1l-0.95,0.3l-1.05,0.4
	l-1.15,0.3l-1.2,0.4l-1.35,0.3l-1.45,0.399l-1.55,0.301l-1.55,0.399v-0.25l0.05-0.2l0.1-0.399l0.2-0.8v-0.25l0.05-0.2l0.101-0.4
	v-0.25l0.05-0.2l0.1-0.399v-0.5v-0.25l0.051-0.2l0.05-0.9v-0.949V98.4l-0.101-0.851l-0.1-0.6l-1.5,0.45l-1.7,0.6l-0.95,0.3l-1,0.351
	l-2.1,0.75l-0.5-1.9l-0.45-1.7l-0.399-1.6l-0.351-1.45l-1.35,0.95l-1.2,0.85L114,95.3l-0.949,0.75l-0.95,0.601l-0.8,0.55l-0.75,0.45
	L110,98l-1.6-5.75l-0.3-1.05l-0.25-1.15l-0.2-1.35l-0.2-1.5l-1.649,1.05l-1.45,1L103,90.101L102.35,90.5l-0.55,0.45l-0.601,0.3
	l-0.5,0.351l-0.5,0.25l-0.399,0.3l-0.45,0.2L99,92.601l-0.35,0.149l-0.25,0.2l-0.9-1.6l-0.8-1.65L95.8,87.85L95,86l-0.25-0.7
	L94.1,85.8l-0.65,0.6l-1.35,1.25L90.55,89L89.7,89.7l-0.8,0.8l-2.6-8.75l-0.85,0.6L84.7,83l-1.45,1.2l-0.7,0.5l-0.6,0.55l-0.6,0.45
	l-0.5,0.5l-0.55,0.35l-0.45,0.4L79,87.7l-0.4,0.25l-0.3,0.3l-0.55,0.55l-0.2-1.55l-0.15-1.4l-0.15-1.25l-0.05-1.05l-0.05-0.95v-0.75
	V81.2l0.1-0.45l-0.5,0.1L76.2,81.1l-0.6,0.25l-0.65,0.4l-0.8,0.4l-0.8,0.55l-0.9,0.55l-0.95,0.7l-1.45,0.9L68.8,85.8l-1.15,0.85
	l-0.55,0.4l-0.45,0.45l0.1-1.55l0.15-1.35l0.1-1.2l0.15-1.05V81.4v-0.45l0.05-0.35v-0.65l0.05-0.45l-1.1,0.8l-1.1,0.9l-1.2,0.9
	l-1.2,1.05l-1.35,1l-1.35,1.1L58.5,86.4L57,87.65l-0.45-1.25l-0.35-1.15l-0.35-1.05l-0.3-0.95L55,81.6l-0.25-0.65l-0.2-0.55
	l-0.65,0.45l-0.7,0.55l-0.85,0.65L51.9,82.4l-0.4,0.45l-1.05,0.85l-0.6,0.45L49.3,84.7l-0.65,0.5l-0.6,0.6l-1.35,1.25l-0.1-0.8
	l-0.1-0.95l-0.1-1.1l-0.1-1.25l-1.15,0.85l-1,0.8l-0.95,0.75l-0.8,0.7l-0.6,0.4l-0.5,0.45l-0.5,0.35l-0.35,0.4l-0.4,0.3l-0.25,0.3
	l-0.25,0.25l-0.1,0.25l-0.2-0.5l-0.1-0.2l-0.05-0.1V87.9L39,87.5l-0.2-0.55l-0.1-0.3l-0.05-0.3l-0.15-0.4l-0.1-0.4l-0.2-0.85
	l-0.3-1.05l-0.2-1.05l-4.95,8.2l-0.3-1.5l-0.2-1.25l-0.2-1.149l-0.2-0.9l-0.1-0.35l-0.1-0.4l-0.2-0.55l-0.2-0.55l-0.3-0.7l-0.3-0.75
	l-0.2-0.45l-0.15-0.4l-0.2-0.5L30,81.1l-0.05-0.2l-1.05,1.9l-0.95,1.9l-0.85,1.9l-0.75,1.9l-0.65,1.851l-0.55,1.899l-0.45,1.851
	L24.4,96l-0.6,3.55l-0.5,3.4l-0.5,3.2l-0.35,3.05l-0.1,0.8l-0.1,1l-0.1,1.2v1.4l-0.1,1.5v1.8v1.899v2.2v2.3v2.5v2.65l0.05,2.9v3
	l0.1,3.25L22.3,141l0.1,3.65l0.05,1.05v1.3l0.1,1.25v1.15l0.05,1.1v0.95v0.9h-0.05v0.05v0.1v0.2v0.4v0.75l-0.7-1.75l-0.65-1.551
	l-0.6-1.5l-0.5-1.35l-0.55-1.25l-0.45-1.15l-0.4-1.05l-0.35-0.899L18,142.5l-0.3-0.75l-0.25-0.649l-0.2-0.5l-0.2-0.45l-0.1-0.25
	l-0.05-0.2v-0.05l-1.75-4.15l-1.65-3.75L12.7,130l-0.8-1.649l-1.5-3.051l-0.7,1.15l-0.6,1.15l-0.55,1.05l-0.45,0.95l-0.45,0.85
	L7.3,131.2l-0.3,0.65L6.85,132.5l-0.55-1.75L5.85,129l-0.45-1.8l-0.4-1.85l-0.75-3.9l-0.55-4l-0.35-3.3l-0.15-1.7l-0.05-1.65
	l-0.1-1.75v-1.699v-1.801l0.1-1.75l0.05-1.85l0.15-1.8L3.7,96.4l0.45-3.851l0.65-3.949l0.75-4l1.05-3.85l1.3-3.85l1.6-3.65l1.8-3.65
	l2.15-3.5l2.35-3.45l2.7-3.35l1.3-1.7l1.3-1.55l1.25-1.5l1.2-1.35l1.1-1.4l1.1-1.25l1.05-1.2l1-1.05l0.9-1.1l0.9-0.95l0.8-0.95
	l0.8-0.8l0.7-0.8l0.65-0.65l0.6-0.65l0.6-0.5l2.05-2.05l2.15-1.9l2.15-1.75l2.2-1.6l2.6-1.7v-0.15l-0.05-0.05l-0.1-0.05L44.6,32.7
	l-0.3,0.05l-0.35,0.1L43.55,33l-0.45,0.25l-0.6,0.2l-0.65,0.25l-0.7,0.3l-0.75,0.4l-0.9,0.4l-0.95,0.45l-1,0.5l-1.05,0.6l-4.45,2.3
	l-4.25,2.6l-4.15,2.8l-2,1.45l-1.9,1.55L17.8,48.5l-1.85,1.4l-1.75,1.35l-1.65,1.3l-1.6,1.15L9.5,54.85L8.05,55.9l-1.25,1l0.3-0.55
	l0.4-0.55l0.4-0.65l0.55-0.7L9,53.65l0.65-0.85l0.7-0.95l0.8-1l0.8-1.15l0.9-1.2l0.9-1.25l1.05-1.3l1.05-1.45L17,43l1.15-1.55
	l1.3-1.6L22,36.5l1.3-1.6l1.4-1.5l2.75-2.9l2.95-2.6l2.95-2.5l3.15-2.2l1.55-1.05l1.65-0.95l3.35-1.8l2.15-1.05l2.25-0.9l2.4-0.85
	l2.55-0.7l2.6-0.65l2.75-0.55l2.85-0.45L63.65,13.95L63.65,13.95z"/>
<polygon fill-rule="evenodd" fill="#CB6928" points="84.7,17 83.65,17.1 83.25,17.5 82.85,18 82.4,18.55 82,19.25 81.45,19.9 
	80.95,20.7 80.4,21.5 79.9,22.45 79.2,23.4 78.65,24.35 78.1,25.2 77.75,25.95 77.4,26.6 77.15,27.2 76.95,27.75 76.9,28.2 
	76.8,28.9 76.75,29.45 76.7,29.85 76.7,30.1 76.8,30.7 76.9,30.6 77.1,30.45 77.35,30.2 77.75,29.95 78.15,29.55 78.7,29.15 
	79.25,28.65 79.95,28.1 80.5,27.85 81.15,27.55 81.9,27.2 82.85,26.8 83.8,26.3 84.85,25.8 86,25.2 87.35,24.55 88.5,23.85 
	89.6,23.25 90.55,22.7 91.45,22.25 91.7,22.25 92.2,22.35 92.7,22.6 93.15,22.95 93.65,23.4 94.05,23.95 94.55,24.65 94.95,25.4 
	95.4,26.35 95.85,27.3 96.35,28.45 96.9,29.7 97.5,31.05 99,29.05 100.5,27.2 100.65,26.8 100.85,26.45 100.85,26.3 100.9,26.2 
	101,26 101.2,25.55 101.3,25 101.35,24.7 101.45,24.45 101.55,23.8 101.55,23.6 101.55,23.5 101.55,23.45 101.6,23.45 101.7,23.15 
	101.75,22.45 101.75,21.9 101.65,21.35 101.5,20.9 101.15,20.2 100.95,19.7 100.8,19.35 100.8,19.2 99.35,18.95 99.25,19.1 
	99.25,19.45 99.2,19.9 99.2,20.45 99.15,21 99.15,21.75 99.15,22.6 99.15,23.55 99.05,24.15 99,24.75 98.9,25.3 98.85,25.4 
	98.85,25.55 98.85,25.85 98.75,26.05 98.7,26.15 98.7,26.3 98.6,26.8 98.3,27.65 97.8,27.55 97.15,26.3 96.55,25.25 95.95,24.2 
	95.45,23.35 94.95,22.5 94.5,21.85 94.05,21.2 93.7,20.75 93.95,20.4 94.1,20.15 94.1,19.75 94.15,19.45 94.15,19.05 94.1,18.85 
	94.1,18.75 94.05,18.7 94.05,18.75 93.75,19.1 89.65,20.25 85.65,21.7 84.7,22.05 83.85,22.45 82.4,23.25 81.7,23.6 81.15,24 
	80.25,24.8 80.6,24.15 81.15,23.45 81.45,23 81.85,22.6 82.25,22.1 82.75,21.65 83.65,20.5 84.35,19.55 84.6,19.1 84.8,18.75 
	84.95,18.4 85.05,18.1 85.1,17.45 85.1,17.05 85.05,16.85 85.05,16.75 85,16.7 84.7,17 "/>
<polygon fill-rule="evenodd" fill="#010101" points="148.6,59.15 149.1,59.65 149.65,60.25 150.6,61.6 150.75,61.5 150,60.6 
	149.55,60.1 149.15,59.65 148.6,59.15 "/>
<polygon fill-rule="evenodd" fill="#F26822" points="150.75,61.5 150.6,61.6 151.25,62.65 151.95,63.8 152.6,65.05 153.3,66.4 
	153.85,67.8 154.45,69.35 155,70.95 155.6,72.7 155.9,73.8 156.2,74.9 156.3,75.4 156.3,75.5 156.35,75.65 156.45,75.95 156.75,77 
	156.95,77.95 157.05,78.4 157.2,78.9 157.25,79.3 157.35,79.75 157.55,80.65 157.55,81 157.6,81.4 157.7,82.2 157.75,82.9 
	157.85,83.6 157.85,84.2 157.9,84.8 157.85,84.9 157.85,85.05 157.85,85.35 157.85,85.9 157.65,86.75 157.55,87.6 157.45,88.351 
	157.4,89 157.3,89.55 157.3,90 157.3,90.351 157.35,90.7 156.75,88.65 156.25,86.9 155.75,85.4 155.3,84.25 154.8,83.3 
	154.35,82.45 153.8,81.6 153.3,80.85 152.7,80.1 152.1,79.45 151.4,78.85 150.75,78.35 150.75,78.85 150.8,79.5 150.8,80.65 
	150.8,81.2 150.85,81.8 150.8,82.9 150.8,84 150.7,85 150.65,86 150.5,86.9 150.4,87.8 150,89.4 149.8,90.15 149.65,90.95 
	149.25,92.351 148.85,93.7 148.95,93.5 149.1,93.25 149.45,92.65 149.65,92.25 149.9,91.8 150.45,90.8 150.95,89.7 151.35,88.75 
	151.6,87.9 151.8,87.15 151.9,86.25 151.9,85.75 152,85.2 152.1,83.9 152.15,83.2 152.25,82.5 152.75,83.05 153.25,83.7 
	153.55,84.25 153.9,84.9 154.2,85.55 154.55,86.3 155.1,87.85 155.6,89.601 155.6,89.7 155.65,90.05 155.7,90.55 155.85,91.351 
	156,92.25 156.2,93.45 156.45,94.8 156.75,96.4 157.45,93.851 158.1,91.4 158.55,89.05 158.95,86.8 159.1,84.65 159.2,82.6 
	159.15,80.65 159,78.9 158.55,76.6 157.95,74.35 157.15,72.15 156.2,70 155.05,67.8 153.8,65.65 152.35,63.55 150.75,61.5 "/>
<polygon fill-rule="evenodd" fill="#F26822" points="55.15,42.4 55.65,41.35 56.15,40.45 56.55,39.6 57,38.85 57.3,38.15 
	57.65,37.6 57.9,37.05 58.15,36.65 58.3,36.2 58.45,35.9 58.5,35.6 58.6,35.45 58.55,35.3 58.55,35.25 58.45,35.25 58.4,35.35 
	58.5,35.25 57.5,36.15 56.5,37.25 55.95,37.85 55.45,38.55 54.45,40.15 53.35,41.9 52.35,43.9 51.25,46.1 50.7,47.25 50.2,48.55 
	49.65,49.65 49.2,50.75 48.35,52.75 47.6,54.55 47.25,55.35 47,56.2 46.45,57.6 46.2,58.25 46.05,58.9 45.8,60 45.65,60.9 
	45.5,61.4 45.4,61.95 45.2,62.45 45.1,62.7 45.05,63 45.5,62.5 45.5,62.45 45.65,62.25 46.1,61.7 46.65,61.1 47.25,60.45 
	47.95,59.8 48.9,58.7 49.9,57.7 51.8,55.8 53.6,54 55.35,52.35 57,50.8 58.6,49.4 60.1,48.15 60.8,47.55 61.55,47.05 61.25,48.65 
	61.05,50.2 60.85,51.65 60.7,53 60.5,54.15 60.35,55.3 60.25,56.3 60.2,57.25 59.9,60 59.75,62.7 59.7,65.2 59.75,67.65 71,53.35 
	70.15,53.6 69.35,54 68.45,54.45 67.65,55.1 66.75,55.75 65.85,56.6 64.95,57.55 64.05,58.6 63.4,59.3 62.9,59.95 62.45,60.5 
	62.2,60.95 62.25,59 62.4,57.05 62.6,55 62.85,52.9 63.1,50.65 63.45,48.4 63.85,46.05 64.35,43.65 63.9,43.7 63.45,43.85 
	62.95,44.05 62.45,44.35 61.3,45 60.7,45.4 60.1,45.9 59.4,46.35 58.7,46.9 57.25,48.15 56.4,48.8 55.6,49.55 53.9,51.2 53.1,51.85 
	52.45,52.5 51.8,53.05 51.25,53.65 50.7,54.15 50.25,54.65 49.8,55.05 49.45,55.5 51.8,50.2 52.4,48.3 53.15,46.4 54.05,44.4 
	55.15,42.4 "/>
<polygon fill-rule="evenodd" fill="#010101" points="146.25,149.3 146.1,149 146.05,149.05 146.25,149.3 "/>
<polygon fill-rule="evenodd" fill="#F8981D" points="25,134.4 25,135.45 25.05,136.851 25.05,138.75 27.45,141.75 30,144.601 
	32.65,147.3 35.4,149.9 38.2,152.3 41.15,154.55 44.2,156.65 47.35,158.601 50.5,160.351 53.85,161.95 57.25,163.4 60.8,164.75 
	64.35,165.9 68.1,166.9 71.9,167.75 75.85,168.45 77.6,168.65 79.4,168.851 79.8,168.851 80.25,168.9 81.15,169 82.95,169.15 
	86.45,169.3 89.95,169.351 93.35,169.2 96.75,168.95 97.55,168.8 98.4,168.7 100.1,168.5 101.75,168.2 103.45,167.95 105.05,167.55 
	105.85,167.351 106.25,167.25 106.7,167.2 108.3,166.75 109.95,166.351 113.15,165.3 116.35,164.15 119.45,162.8 122.55,161.351 
	124.05,160.5 125.6,159.7 127.1,158.8 127.45,158.55 127.85,158.351 128.65,157.95 129.35,156.4 130.15,154.9 131.8,151.851 
	131.65,151.8 133.6,149.101 133.05,149.4 132.6,149.75 132.15,150.05 131.8,150.4 128.6,152.601 127,153.601 125.45,154.601 
	123.8,155.5 122.2,156.45 121.35,156.851 120.55,157.3 118.95,158.15 117.25,158.851 116.8,159 116.4,159.2 115.6,159.601 
	113.9,160.25 113.05,160.55 112.25,160.9 108.85,162.05 105.45,163.05 103.65,163.4 101.9,163.8 98.4,164.4 94.8,164.8 91.2,165.05 
	87.5,165.05 83.8,164.95 81.9,164.8 80.95,164.7 80.05,164.65 78.15,164.4 76.3,164.2 72.55,163.5 68.95,162.7 65.35,161.7 
	61.9,160.601 58.45,159.3 55.1,157.851 51.8,156.25 48.6,154.5 45.4,152.5 42.3,150.4 39.25,148.101 36.3,145.7 33.35,143.101 
	30.5,140.351 27.7,137.45 25,134.4 "/>
<polygon fill-rule="evenodd" fill="#CB6928" points="96.4,112.15 97.6,111.75 98.9,111.5 101.65,111.25 103.05,111.2 104.55,111.3 
	106.05,111.4 107.65,111.65 109.1,111.851 110.45,112.05 110.7,112.05 111,112.101 111.6,112.2 112.65,112.4 113.5,112.5 
	113.65,112.5 113.85,112.55 114.25,112.65 114.85,112.75 115.3,112.851 114.75,112.45 114.1,112.15 113.25,111.75 112.35,111.45 
	111.2,111.05 110.55,110.851 109.95,110.7 108.55,110.3 107.05,110 105.3,109.65 103.5,109.5 101.55,109.45 100.55,109.5 
	99.55,109.65 97.35,109.9 95.1,110.351 93.85,110.601 92.65,110.95 91.4,111.3 90.2,111.75 90.05,111.75 89.95,111.851 89.8,113 
	89.7,114.351 89.6,115.851 89.5,117.601 89.4,119.45 89.3,121.5 89.2,123.7 89.2,126.101 89.1,129.15 89.1,132.45 89.1,136 
	89.1,139.8 89.95,139.9 91.05,139.9 91.95,140 92.55,140 92.8,140 93,140.101 93.2,140.101 93.45,140.2 93.95,140.45 94.35,140.851 
	94.8,141.4 94.85,141.5 94.95,141.65 95.1,141.95 95.35,142.55 95.35,142.8 95.4,143.101 95.45,143.7 95.35,143.95 95.3,144.25 
	95.2,144.351 95.15,144.351 95.15,144.4 95.15,144.5 95.05,144.8 94.85,145 94.7,145.2 94.6,145.2 94.55,145.2 94.55,145.25 
	94.45,145.351 94.25,145.55 93.95,145.601 93.7,145.7 93.5,145.7 93.4,145.7 93.35,145.7 93.35,145.75 93.05,145.851 92.65,145.851 
	92.45,145.851 92.35,145.851 92.3,145.851 92.3,145.9 92.2,145.851 92.15,145.851 92.05,145.851 91.85,145.851 91.45,145.851 
	90.7,145.7 90.05,145.601 89.5,145.5 89.1,145.45 89.05,145.5 88.95,145.8 88.95,146.05 88.95,146.25 89,146.4 89.25,146.75 
	89.75,147.05 90.05,147.15 90.45,147.3 91.35,147.5 91.95,147.5 92.55,147.55 92.65,147.5 92.8,147.5 93.1,147.5 93.2,147.45 
	93.35,147.45 93.65,147.45 93.85,147.351 93.95,147.3 94.1,147.3 94.3,147.2 94.4,147.15 94.55,147.15 94.95,146.9 95.15,146.75 
	95.4,146.65 95.65,146.351 95.75,146.2 95.9,146.101 96.1,145.8 96.2,145.65 96.35,145.55 96.6,144.851 96.7,144.45 96.75,144.25 
	96.85,144.101 96.85,143.2 96.8,142.45 96.55,141.7 96.25,141.101 95.75,140.5 95.15,140 94.4,139.55 93.55,139.2 92.8,138.95 
	92.15,138.8 91.5,138.75 90.9,138.8 90.8,138.05 90.7,137.3 90.6,136.4 90.55,135.45 90.45,134.3 90.45,133.15 90.4,131.8 
	90.4,130.45 90.35,128.101 90.35,126 90.35,124.65 90.35,123.5 90.35,122.45 90.45,121.5 90.45,120.7 90.5,120 90.6,118.8 
	90.6,118.25 90.65,117.851 90.65,117.45 90.7,117.15 90.7,116.5 90.8,115.9 91.1,114.7 91.1,114.5 91.2,114.351 91.5,114.05 
	91.95,113.75 92.55,113.45 93.25,113.05 94.15,112.75 95.2,112.45 96.4,112.15 "/>
<polygon fill-rule="evenodd" fill="#CB6928" points="62.7,96.65 61.1,96.55 59.6,96.55 58.15,96.55 56.8,96.7 55.45,96.851 
	54.25,97.101 53.05,97.4 52,97.8 51.05,98.101 50.15,98.5 49.15,98.95 48.2,99.5 46.2,100.75 45.15,101.45 44.15,102.3 
	46.15,101.351 48.2,100.601 50.2,99.95 52.3,99.45 54.3,99.05 56.3,98.851 58.3,98.75 60.35,98.8 62.2,98.851 64.05,99.05 
	65.7,99.25 67.3,99.601 68.7,99.95 70.05,100.4 71.2,100.9 72.3,101.5 73.25,102 73.45,102.101 73.55,102.15 73.7,102.25 
	74.2,102.55 74.95,103.05 75.7,103.65 75.95,103.65 76.2,103.65 76.4,103.601 76.6,103.55 76.7,103.4 76.85,103.3 76.95,103.101 
	77.05,102.95 77,102.351 76.85,101.75 76.55,101.2 76.15,100.7 75.55,100.15 74.8,99.65 73.9,99.15 72.9,98.7 71.75,98.25 
	70.6,97.9 69.4,97.55 68.2,97.3 65.5,96.851 64.1,96.7 62.7,96.65 "/>
<polygon fill-rule="evenodd" fill="#010101" points="75.95,133.45 76.75,133.4 76.75,131.9 76.6,130.5 76.3,129.15 75.85,127.9 
	75.2,126.65 74.45,125.5 73.5,124.4 72.45,123.45 71.5,122.7 71,122.351 70.55,122.101 69.5,121.65 68.5,121.3 67.35,121.05 
	66.25,120.95 65.05,121 64.45,121.05 63.9,121.2 62.75,121.4 61.7,121.7 60.65,122 59.7,122.45 58.75,122.851 57.9,123.4 
	56.35,124.65 54.9,126.101 54.25,126.9 53.7,127.8 53.15,128.7 52.7,129.7 52.25,130.7 51.9,131.851 52.7,132.351 53.85,130.5 
	55.2,128.95 56.65,127.601 58.3,126.55 60.05,125.7 60.95,125.4 61.95,125.2 64,124.9 66.25,124.9 67.4,125.05 68.5,125.4 
	69.55,125.851 70.55,126.4 71.45,127.05 71.85,127.4 72.3,127.851 73.05,128.8 73.8,129.851 74.85,131.601 75.95,133.45 "/>
<polygon fill-rule="evenodd" fill="#CB6928" points="65.2,126.75 65.2,126.601 64.35,126.351 63.85,126.3 63.4,126.351 
	62.8,126.351 62.25,126.45 61.65,126.601 61.05,126.851 59.9,127.25 59.45,127.45 59.1,127.65 58.75,127.851 58.6,128.05 
	58.45,128.25 58.45,128.5 58.45,128.7 58.45,128.851 58.45,128.9 58.55,128.851 65.2,126.75 "/>
<polygon fill-rule="evenodd" fill="#CB6928" points="50.7,130.5 50.7,130.15 47.6,129.9 46.1,129.851 44.9,129.9 43.95,130 
	43.3,130.25 43.95,130.351 44.4,130.25 44.95,130.25 46.3,130.3 47.05,130.3 48,130.4 50.05,130.65 50.15,130.601 50.3,130.601 
	50.5,130.601 50.65,130.5 50.7,130.5 "/>
<polygon fill-rule="evenodd" fill="#F8981D" points="66.2,142 65.4,141.5 64.95,141.351 64.55,141.3 64.5,141.3 64,141.2 
	63.55,141.2 63,141.25 62.5,141.45 61.55,141.75 60.95,142.2 60.55,142.65 60.45,143.2 60.45,143.5 60.45,143.7 60.5,143.851 
	60.7,144 60.9,144.05 61.2,144.101 62.25,143.8 62.75,143.65 63.25,143.55 64.1,143.25 64.25,143.15 64.45,143.101 64.85,143 
	65.05,142.9 65.75,142.4 66,142.2 66.2,142 "/>
<polygon fill-rule="evenodd" fill="#010101" points="64.5,141.2 64.5,141.3 64.55,141.3 64.5,141.2 "/>
<polygon fill-rule="evenodd" fill="#010101" points="65.05,142.9 64.85,143 65.05,144.05 65.3,145.05 65.9,146.95 66.55,148.65 
	67.3,150.15 68.1,151.351 69.05,152.45 69.5,152.9 70,153.3 71.15,154 72.3,154.4 73.55,154.7 74.85,154.7 76.3,154.601 
	77.75,154.2 78.55,153.95 79.4,153.65 81.05,152.851 82.9,151.95 83.6,151.4 84.4,150.75 82.55,151.45 80.85,152 79.2,152.4 
	77.7,152.65 76.15,152.7 74.8,152.65 73.45,152.4 72.25,152.05 71.05,151.45 70,150.75 68.95,149.851 68.05,148.851 67.15,147.601 
	66.4,146.25 65.65,144.75 65.1,143.101 65.05,142.9 "/>
<polygon fill-rule="evenodd" fill="#CB6928" points="53.1,125.05 54.15,123.4 55.4,122.05 56.75,120.9 58.3,120.05 59.95,119.4 
	61.8,119 62.75,118.851 63.8,118.851 65.95,118.95 67.6,119.05 67.95,119.05 68.35,119.101 69.15,119.2 69.85,119.2 70.55,119.25 
	71.85,119.351 71.45,118.9 70.95,118.5 70.25,118.15 69.4,117.851 68.35,117.55 67.2,117.3 65.85,117.05 64.35,116.851 63.55,116.7 
	62.75,116.75 61.25,117 59.75,117.55 59.05,117.9 58.35,118.45 56.95,119.601 56.25,120.25 55.6,121.101 54.9,121.95 54.3,122.9 
	53.1,125.05 "/>
<polygon fill-rule="evenodd" fill="#F8981D" points="68.25,153.8 67.75,153.45 67.35,153.25 66.95,153.101 66.7,153.05 66.45,153 
	66.3,153.101 66.15,153.25 66.15,153.5 66.1,153.65 66.25,153.9 66.4,154.15 66.7,154.5 67,154.8 67.45,155.2 67.9,155.601 
	68.55,156.05 69.1,156.45 69.7,156.8 70.25,157.101 70.85,157.351 71.3,157.45 71.8,157.55 72.25,157.55 72.45,157.5 72.7,157.5 
	73.35,157.5 73.9,157.5 74.4,157.45 74.6,157.4 74.85,157.4 75,157.3 75.2,157.25 75.45,157.05 75.45,156.95 75.45,156.9 
	75.5,156.9 75.6,156.8 75.6,156.7 75.6,156.65 75.65,156.65 75.75,156.55 75.75,156.2 75.7,155.95 75.6,155.851 75.5,155.8 
	75.25,155.7 74.25,155.9 74,155.9 73.85,155.9 73.75,155.95 73.15,155.95 72.75,155.9 72.35,155.9 71.5,155.8 71.25,155.7 
	70.95,155.601 70.6,155.4 70.25,155.2 69.8,154.9 69.35,154.601 68.8,154.2 68.25,153.8 "/>
<polygon fill-rule="evenodd" fill="#CB6928" points="48.6,132.15 48.05,132.45 47.65,132.7 47.3,132.851 47.05,133 47.15,132.95 
	47.3,132.95 47.6,132.95 47.7,132.9 47.85,132.9 48.15,132.9 48.6,132.8 49.1,132.75 49.25,132.65 49.45,132.601 49.85,132.5 
	50.15,132.3 50.45,132.15 49.95,131.95 49.55,131.9 49.05,131.95 48.8,132 48.6,132.15 "/>
<path fill-rule="evenodd" fill="#010101" d="M120.75,133.25l0.101-1.3l0.05-1.3l-0.05-1.4l-0.101-1.399l-3-0.801l-3-0.6l-3-0.5
	l-3-0.35l-3.05-0.25l-3-0.101l-3,0.05l-3,0.2l-0.35,1.9l-0.2,1.8l-0.05,0.9l0.05,0.949l0.1,1.801l0.101,0.899l0.2,0.95l0.199,1.2
	l0.351,1.149l0.399,1.051l0.5,0.949l0.5,0.851l0.65,0.8l0.65,0.65l0.8,0.649l0.75,0.45l0.899,0.45l0.95,0.3l1.05,0.25l1.051,0.15
	l1.199,0.05l1.25-0.05l1.351-0.101l0.6-0.149l0.65-0.101l1.2-0.25l1.1-0.35l0.5-0.2l0.25-0.1l0.3-0.051l0.2-0.149l0.25-0.101
	l0.5-0.199l0.9-0.5l0.399-0.301l0.2-0.149l0.25-0.101l0.8-0.55l0.65-0.7l0.6-0.75L119,138l0.5-0.8l0.4-0.95l0.15-0.5l0.199-0.45
	l0.25-1l0.101-0.55L120.75,133.25L120.75,133.25z M119.25,132.9l-0.199,1.05l-0.4,0.9l-0.35,0.899l-0.4,0.8l-0.4,0.801l-0.5,0.699
	l-0.5,0.7l-0.55,0.601l-0.5,0.6l-0.35,0.2l-0.3,0.25l-0.351,0.2l-0.3,0.25l-0.7,0.399l-0.649,0.4L112,141.9L111.6,142l-0.2,0.05
	l-0.15,0.101l-0.85,0.2l-0.8,0.199l-1.75,0.101l-0.851-0.05l-0.75-0.051l-1.449-0.3l-0.7-0.25l-0.601-0.2l-1.25-0.699l-0.6-0.4
	l-0.5-0.4l-0.95-1l-0.45-0.6l-0.35-0.6l-0.75-1.301l-0.6-1.149l-0.45-1.15l-0.3-1l-0.25-1l-0.101-0.899l0.05-0.9l0.15-0.75l0.15-0.4
	l0.199-0.949l0.051-0.4l0.1-0.25l0.1-0.45l0.101-0.2l5.3,0.051l5.4,0.3l5.399,0.5l5.55,0.8v0.9v1l-0.1,1L119.25,132.9L119.25,132.9z
	"/>
<polygon fill-rule="evenodd" fill="#FFFFFF" points="119.05,133.95 119.25,132.9 118,132.05 117.35,131.65 116.7,131.351 
	115.95,131 115.2,130.75 113.65,130.3 111.9,129.95 110.95,129.8 110.05,129.75 109.05,129.65 108.05,129.65 107,129.65 
	105.95,129.75 106.1,129.9 106.3,130.15 106.25,130.25 106.25,130.5 106.2,130.851 106.2,131.3 106.1,131.65 105.95,132.05 
	105.7,132.351 105.45,132.65 105.2,132.75 105,132.9 104.6,133.101 104.35,133.101 104.15,133.15 103.75,133.2 103.2,133.05 
	102.75,132.95 102.05,132.65 101.75,132.45 101.55,132.3 101.4,132.05 101.35,131.851 101.35,131.3 101.45,130.95 101.45,130.7 
	101.5,130.55 101.6,130 101.8,129.55 102.05,129.15 102.45,128.9 101.35,128.75 100.4,128.7 99.55,128.7 98.85,128.8 98.25,128.9 
	97.8,129.05 97.45,129.25 97.3,129.55 97.15,129.95 97,130.7 96.95,131.601 97.05,132.5 97.3,133.5 97.6,134.5 98.05,135.65 
	98.65,136.8 99.4,138.101 99.75,138.7 100.2,139.3 101.15,140.3 101.65,140.7 102.25,141.101 103.5,141.8 104.1,142 104.8,142.25 
	106.25,142.55 107,142.601 107.85,142.65 109.6,142.55 110.4,142.351 111.25,142.15 111.4,142.05 111.6,142 112,141.9 112.8,141.65 
	113.45,141.25 114.15,140.851 114.45,140.601 114.8,140.4 115.1,140.15 115.45,139.95 115.95,139.351 116.5,138.75 117,138.05 
	117.5,137.351 117.9,136.55 118.3,135.75 118.65,134.851 119.05,133.95 "/>
<polygon fill-rule="evenodd" fill="#CDCCCC" points="119.25,132.9 119.4,131.851 119.5,130.851 119.5,129.851 119.5,128.95 
	113.95,128.15 108.55,127.65 103.15,127.351 97.85,127.3 97.75,127.5 97.65,127.95 97.55,128.2 97.5,128.601 97.3,129.55 
	97.45,129.25 97.8,129.05 98.25,128.9 98.85,128.8 99.55,128.7 100.4,128.7 101.35,128.75 102.45,128.9 102.8,128.65 103.3,128.5 
	103.35,129.101 104.4,129.351 104.55,129.2 104.95,129.25 105.35,129.4 105.95,129.75 107,129.65 108.05,129.65 109.05,129.65 
	110.05,129.75 110.95,129.8 111.9,129.95 113.65,130.3 115.2,130.75 115.95,131 116.7,131.351 117.35,131.65 118,132.05 
	119.25,132.9 "/>
<polygon fill-rule="evenodd" fill="#FFFFFF" points="104.25,129.45 104.4,129.351 103.35,129.101 103.05,129.55 102.9,130 
	102.85,130.55 102.9,130.75 103.05,131 103.15,131.15 103.35,131.3 103.9,131.45 104.2,130.7 104.25,130.4 104.3,130.2 
	104.2,129.75 104.25,129.45 "/>
<polygon fill-rule="evenodd" fill="#010101" points="104.4,129.351 104.25,129.45 104.2,129.75 104.3,130.2 104.25,130.4 
	104.2,130.7 103.9,131.45 103.35,131.3 103.15,131.15 103.05,131 102.9,130.75 102.85,130.55 102.9,130 103.05,129.55 
	103.35,129.101 103.3,128.5 102.8,128.65 102.45,128.9 102.05,129.15 101.8,129.55 101.6,130 101.5,130.55 101.45,130.7 
	101.45,130.95 101.35,131.3 101.35,131.851 101.4,132.05 101.55,132.3 101.75,132.45 102.05,132.65 102.75,132.95 103.2,133.05 
	103.75,133.2 104.15,133.15 104.35,133.101 104.6,133.101 105,132.9 105.2,132.75 105.45,132.65 105.7,132.351 105.95,132.05 
	106.1,131.65 106.2,131.3 106.2,130.851 106.25,130.5 106.25,130.25 106.3,130.15 106.1,129.9 105.95,129.75 105.35,129.4 
	104.95,129.25 104.55,129.2 104.4,129.351 "/>
<polygon fill-rule="evenodd" fill="#CB6928" points="99.75,122.15 98.85,122.2 98.15,122.45 97.55,122.8 97.3,123 97.15,123.3 
	97.5,123.3 98,123.3 98.6,123.3 99.35,123.351 100.2,123.351 101.15,123.45 102.2,123.55 103.4,123.65 104.65,123.75 
	106.05,123.851 107.55,123.95 109.2,124.101 110.95,124.2 112.8,124.4 114.75,124.601 116.85,124.8 113.65,124.15 110.8,123.601 
	108.2,123.101 105.95,122.75 103.9,122.4 102.25,122.25 100.8,122.101 99.75,122.15 "/>
</svg>
