<?xml version="1.0" encoding="utf-8"?>
<!-- Generator: Adobe Illustrator 13.0.0, SVG Export Plug-In . SVG Version: 6.00 Build 14948)  -->
<svg version="1.2" baseProfile="tiny" id="Layer_1" xmlns="http://www.w3.org/2000/svg" xmlns:xlink="http://www.w3.org/1999/xlink"
	 x="0px" y="0px" width="176.949px" height="171.4px" viewBox="0 0 176.949 171.4" xml:space="preserve">
<path fill-rule="evenodd" fill="#F8981D" d="M60.399,17.15l-1.75,0.1l-1.5,0.1l-1.3,0.1l-1,0.1H54l-0.601,0.1H53l-0.101,0.1
	l-0.6,0.15l-2.95,0.75l-2.75,0.9l-2.65,0.9l-2.5,1.05l-2.399,1.05l-2.25,1.2L34.699,25l-1.949,1.35l-1.551,1L29.8,28.4l-1.4,1
	l-1.25,1l-1.25,0.9l-1.149,0.95l-1.101,0.9l-0.95,0.9l-1,0.8l-0.85,0.8l-0.8,0.75l-0.7,0.8l-0.7,0.65l-0.55,0.7l-0.5,0.65l-0.4,0.65
	l-1.35,1.9L14.6,43.7l-2.3,3.8l-2.2,3.7l-1.9,3.7L7.25,56.65l-0.851,1.8L5.6,60.2l-0.7,1.8l-0.75,1.7l-0.6,1.75l-1.101,3.4L3.5,67.7
	l1.05-1l0.95-0.95l0.899-0.85l0.8-0.85l0.75-0.75l0.65-0.7l0.65-0.55l0.449-0.55l0.65-0.6l0.75-0.75l0.45-0.4l0.55-0.4l0.5-0.5
	l0.6-0.5L13.8,57.8l0.7-0.5l0.649-0.6l0.75-0.6l0.75-0.65l0.851-0.6l0.8-0.75l0.899-0.7l0.9-0.8l1-0.75L22.05,51l1.05-0.8l2.25-1.75
	l2.35-1.95l2.551-1.95l2.649-2.15l2.851-2.15l-1.4,1.2l-2.45,2.3l-2.3,2.4l-2.15,2.4L25.5,51.1l-0.351,0.45L24.8,52.1l-0.45,0.65
	l-0.45,0.8l-0.55,0.8l-0.6,0.95l-0.65,1l-0.65,1.15l-0.8,1.15l-0.8,1.3l-0.9,1.35l-0.899,1.5l-1,1.5L16,65.9l-1.101,1.7l-1.1,1.85
	l-2.25,3.7L10.5,75l-0.851,1.9L8,80.7l-1.25,3.9L5.699,88.5L5.05,92.45l-0.25,2l-0.15,2l-0.05,4.1l0.05,3.951l0.25,3.799l0.25,3.65
	L5.6,115.5l0.45,3.35l0.55,3.199l0.65,3.051l0.8,2.949l0.7,2.701l0.35,1.299l0.4,1.301l0.699,2.4l0.7,2.299l0.601,2.101l0.6,2
	l0.25,0.899l0.3,0.9l0.601,1.75l0.05-0.5l0.2-0.699l0.199-0.9l0.351-1.1l0.149-0.65l0.2-0.7l0.55-1.5l0.551-1.8l0.699-1.9l0.95,1.35
	l1,1.451l1,1.5l1.101,1.649l1.05,1.649l1.149,1.801l2.351,3.85v0.051l0.1,0.149l0.15,0.25l0.25,0.45l0.25,0.449l0.35,0.551
	l0.351,0.65l0.5,0.85l0.449,0.85l0.601,0.95l0.6,1.05l0.7,1.25l0.7,1.25l0.85,1.35l0.851,1.451l0.949,1.649V161.5v-0.951l-0.1-1.149
	l-0.05-0.601v-0.6l-0.101-0.699l-0.05-0.701l-0.1-0.75L32,155.35l-0.101-0.45l-0.05-0.399l-0.1-0.801L31.55,152l-0.2-0.951l-0.15-1
	L31,149l-0.101-0.551l-0.05-0.5l-0.15-0.6l-0.1-0.551l-0.2-1.149l-0.1-0.351L30.25,145l-0.101-0.601l-0.2-1.25l-0.3-1.351
	l-0.25-1.399l-0.3-1.45l-0.1-0.4l-0.051-0.199v-0.15l-0.1-0.699l-0.6-3.101l-0.601-3.3l-0.45-1.7l-0.25-1.601l-0.25-1.549
	l-0.1-1.451l-0.1-1.449l0.05-1.35l0.05-1.301l0.25-1.199L27,118.4l0.149-1.101v-0.6v-0.3v-0.149l0.05-0.101L27.3,115v-1.051v-1.05
	l-0.25-1.75l-0.05-1.7V109l-0.101-0.65l-0.05-0.6L26.6,106l-0.05-1.551l-0.05-1.55l0.149-1.399l0.15-1.4l0.3-1.25l0.35-1.2l0.5-1.05
	l0.45-0.9l0.25,1L28.5,97.1l-0.051,0.449l-0.05,2.15l-0.149,3.051v1l0.25,7.35l0.149,2.55l0.25,2.7l0.25,2.75l0.351,2.949
	l0.199,2.201L30,126.4l-0.15,0.55l-0.05,0.6l-0.05,0.601l0.449,3.8l0.051,0.75l-0.101,1.7l0.05,1.5v0.649l0.051,0.601l0.199,1.101
	l0.101,0.35l0.2,0.6l0.35,0.45v0.3v0.15l0.05,0.199L31.25,141l0.199,1.199l0.2,1l0.2,0.9l0.05,0.3L32,144.7l0.199,0.5l0.2,0.301
	l0.2,0.1l0.3-0.051l0.25-0.1l0.2-0.199l0.15-0.201V145v-0.201l0.05-0.199v-0.25l0.05-0.301l-0.05-0.1v-0.05v-0.101v-0.25
	l-0.05-0.299v-0.301l-0.101-0.8l-0.05-0.5v-0.5v-0.101V140.9v-0.101v-0.149l-0.1-0.351v-0.35l-0.051-0.1v-0.051v-0.1V139.5v-0.551
	l-0.1-0.65l-0.05-0.699l-0.101-0.801v-0.85l-0.1-1l-0.1-1.05l-0.101-1.149l-0.1-1.15l-0.101-0.7l-0.05-0.2v-0.15v-0.299l-0.1-1.351
	l-0.101-1.45l-0.1-1.5l-0.3-3.3l-0.25-3.149l-0.25-3l-0.15-2.801l-0.3-9.65l0.1,0.301v0.05L31,104.5l0.1,0.199l0.3,0.65l0.25,0.5
	l0.3,0.449l0.2,0.351l0.101,0.101l0.05,0.049l0.1,0.101l0.2,0.149h0.1h0.051l0.1,0.051l0.6-1.45l0.75-1.45l0.301-0.8l0.35-0.649
	l0.7-1.101l0.3-0.5l0.35-0.399L36.5,100.4l0.35-0.2l-0.05,0.25l0.1,0.35L37,101.25l0.25,0.6l0.25,0.65l0.35,0.85l0.4,0.9l0.55,1.049
	l0.1-0.299l0.25-0.351l0.3-0.55l0.4-0.6l0.4-0.801l0.55-0.85l0.55-1.051l0.7-1.1l0.399-0.8l0.15-0.351l0.2-0.25L43.3,99l0.6,1
	l0.601,1.149l0.75,1.399l0.3,0.65l0.45-0.85l0.25-0.45l0.35-0.399l0.3-0.551l0.4-0.5l0.85-1.05l0.95-1.25l1.05-1.3l1.15-1.45
	l1.35-1.55l0.8,1.699l0.4,0.801l0.2,0.4l0.1,0.199l0.05,0.1L54.3,97.2v0.051l0.05,0.1l0.1,0.199l0.2,0.4l0.4,0.801l0.8,1.5
	l0.4-0.551l0.5-0.55L57.3,98.5l0.7-0.65l0.699-0.801L59.5,96.25l0.85-0.9l1-0.9l0.05,0.2l0.05,0.2l0.15,0.3l0.1,0.3l0.2,0.45
	l0.2,0.45l0.3,0.55l0.15,0.351l0.2,0.549l0.449,1.25L64,98.1l0.85-0.85l1.55-1.551l1.4-1.449L69.05,93l1.05-1.15l0.45-0.5l0.5-0.4
	l0.35-0.449l0.4-0.351l0.3-0.351l0.35-0.25l0.301,0.65l0.399,0.85L73.6,91.9l0.55,1.05l0.5,1.051l0.65,1.149l0.649,1.2l0.75,1.35
	l0.25-0.25l0.351-0.3l0.45-0.45l0.55-0.55l0.6-0.75l0.75-0.75l0.75-0.95l0.95-1l0.7-0.949l0.649-0.801L83.3,90.2l0.55-0.6l3.6,7.75
	l1.25-1.65l1.45-1.6l1.5-1.551l1.65-1.5l0.649,0.9l0.7,0.95l0.65,0.899l0.3,0.451l0.35,0.5l1.15,1.699l0.55,0.801l0.25,0.399
	l0.3,0.45l0.551-0.75l0.649-0.7l0.7-0.8l0.85-0.75l0.801-0.9l0.949-0.85l0.95-0.95l1.101-0.899l4.55,7.799h-0.95l-0.95,0.15
	l-1.05,0.2l-1,0.3l-1.1,0.301l-1.101,0.449l-1.2,0.5l-1.199,0.65l-0.65,0.25l-0.55,0.3L98.5,103l-0.95,0.5l-0.45,0.25l-0.35,0.299
	l-0.101,0.051l-0.05-0.25L95.75,104L95.1,104.4l-0.55,0.55l-0.351,0.801L94,106.299L93.899,107l-0.05,0.799v0.951v0.049V109v0.35
	l0.1,0.5v0.6l0.101,0.801l0.1,0.899l0.101,1.05v0.051l0.1,1.199l0.1,1.45l0.101,1.55l0.2,1.75l0.199,1.45l0.2,1.399l0.3-1.5
	l0.301-1.25l0.199,1l0.101,0.4l0.2,0.35l0.1,0.25l0.2,0.201l0.1,0.1l0.2,0.05l0.2-0.05l0.2-0.15l0.1-0.199v-0.15l0.05-0.1
	l-0.3-1.301l-0.2-1.15l-0.2-1.049l-0.149-0.851l-0.15-0.75l-0.1-0.601l-0.101-0.5l-0.05-0.299v-0.25L96,112.75l-0.101-1.25
	l-0.149-1.951l-0.051-1.799v-0.301l0.15-0.35l0.45-0.301l0.649-0.35l0.75-0.449l0.95-0.451l1.8-0.949l2-0.9l2.2-0.85l2.4-0.801
	l1.149-0.399l1.101-0.3l1-0.301l1-0.199l0.899-0.2l0.851-0.101l0.8-0.049l0.75,0.049l-0.1-0.35l-0.15-0.25l-0.25-0.199l-0.35-0.15
	l-0.45-0.15l-0.5-0.05h-0.65l-0.649,0.05l0.85-0.65l0.8-0.6l0.7-0.55l0.65-0.45l0.55-0.5l0.45-0.4l0.35-0.35l0.35-0.3l2.25,6.149
	l0.45-0.399l0.55-0.351L120,100.6l0.649-0.4L122,99.25l0.75-0.5l0.85-0.451l0.25,0.951l0.3,1.149l0.3,1.149l0.15,0.5l0.2,0.5
	l0.3,0.851v0.05l0.05,0.1l0.101,0.201l0.199,0.399l0.301,0.55l0.3,0.4l0.1,0.1l0.05,0.051l0.101,0.1l0.3,0.1l1.15-1.05l1.149-0.899
	l1-0.851l0.95-0.75l0.25-0.2v0.1v1v0.15v0.35v0.451l0.1,0.649v0.75l0.101,0.899l0.1,1.051l0.15,1.199l0.6-0.35l0.75-0.3l0.8-0.399
	l0.9-0.351l0.9-0.45l1.05-0.4l1.05-0.449l1.2-0.4l-0.5,0.9l-0.4,0.85l-0.399,0.75l-0.25,0.75l-0.25,0.6l-0.15,0.551l-0.15,0.449v0.4
	l1.2-0.65l1.15-0.549l2.1-1.051l1.8-0.949l0.801-0.4l0.75-0.35l-0.25,3.049l-0.351,3.201l-0.45,3.25L143,119.35l-0.65,3.4
	l-0.65,3.549l-0.85,3.551l-0.85,3.699l-0.5,1.65l-0.4,1.551l-0.35,1.35l-0.301,1.25l0.551-0.2l0.3-0.05l0.7-0.25l0.649-0.1l0.8-0.25
	l-0.6,1.149l-0.45,1.101l-0.35,0.699l-0.25,0.7l-0.25,0.649l-0.15,0.65l-0.2,0.6l-0.1,0.551l-0.1,0.5v0.449v0.351l0.1,0.351
	l0.15,0.25l0.25,0.199l0.25,0.1l0.35,0.051l0.1-0.1l0.2-0.301l0.25-0.449L141,145.4l0.35-0.8l0.45-0.95l0.45-1.149l0.6-1.301
	l0.25-0.85l0.3-0.75l0.25-0.7l0.3-0.601l0.4-1.1l0.15-0.5l0.199-0.35l0.4-0.4l0.35-0.35l0.301-0.35l0.3-0.25l0.149-0.301l0.15-0.199
	l0.1-0.201l0.051-0.149l-0.051-0.3l-0.05-0.15l0.3-0.35l0.101-0.1l0.05-0.101l-0.1-0.45l-0.101-0.199l-0.1-0.101l-0.4-0.149
	l-0.45-0.051l-0.75,0.25l-0.6,0.2l-0.45,0.149l-0.35,0.15l0.2-0.75l0.25-0.8l0.25-0.851l0.3-0.949l0.25-1.051l0.3-1.149l0.3-1.25
	l0.3-1.25l0.2-1.351l0.25-1.199l0.2-1.15l0.2-1.05l0.149-1l0.2-0.851l0.101-0.85l0.199-0.65l0.101-0.649l0.1-0.55l0.2-0.85
	l0.1-0.551v-0.15h0.051l-0.051-1.549v-1.4l-0.1-1.35l-0.05-1.15l-0.101-1.15l-0.1-0.949l-0.1-0.5l-0.051-0.4l-0.1-0.75l0.2-0.2
	l0.149-0.149l0.101-0.15l0.05-0.1l-0.1-0.301l-0.101-0.15l-0.05-0.1l-0.2-0.199L147,103.4l-0.15-0.351l-0.15-0.199l-0.25-0.15
	l-0.35-0.05l-0.5-0.3l-0.5,0.05l-0.05,0.25l-1.3,0.2l-1.25,0.5l-0.95,0.35l-0.851,0.35l-0.8,0.25l-0.7,0.15v-0.75l0.051-0.6v-0.6
	l0.05-0.5l0.149-0.351l0.2-0.25l0.351-0.45l0.149-0.35l0.05-0.15l0.051-0.05l-0.051-0.101v-0.049l-0.1-0.15l0.25-0.35l0.05-0.101
	h0.05L140.35,99l-0.1-0.25l-0.101-0.15l-0.2-0.2l-0.149-0.101l-0.45-0.049h-0.2l-0.2,0.1l-0.3,0.1l-0.25,0.2l-0.35,0.2l-0.351,0.3
	L137.25,99.5l-0.4,0.449l-0.65,0.5l-0.5,0.45l-0.5,0.399l-0.35,0.351l-0.35,0.25l-0.15,0.2l-0.15,0.1v0.1v-0.25l0.2-0.399l0.2-0.45
	l0.15-0.55l0.149-0.399l0.05-0.4L135,99.6v-0.25l0.05-0.25l0.05-0.15l-0.05-0.3l-0.101-0.25l-0.199-0.2l-0.25-0.1l-0.2-0.35
	l-0.25-0.25l-0.351-0.15h-0.35l-0.85,0.35l-0.15-0.3l1.45-0.7l1.35-0.6l1.2-0.6l1.1-0.601l-1.75,5.399l0.551-0.699l0.6-0.6
	l1.1-1.051l0.45-0.5l0.5-0.4l0.4-0.399l0.45-0.3L140.1,96l0.35-0.25l0.301-0.201l0.35-0.1l0.25-0.15l0.25-0.049l0.45,0.049
	l0.25,0.15l0.1,0.15l0.101,0.25l0.05,0.55v0.351V97.2l-0.101,0.4l-0.1,0.5l-0.25,1.15l-0.2,0.6l-0.2,0.699l-0.25,0.701l-0.199,0.799
	l2-0.399l1.8-0.3l1.6-0.301l1.45-0.25l0.2,1.301l0.3,1.5l0.2,1.6l0.3,1.801l0.05,0.949v0.5l0.05,0.6l-0.05,0.551v0.65l-0.05,1.35
	l-0.15,1.449l-0.1,0.75l-0.05,0.851l-0.2,1.7l-0.2,1.85L148.05,120l-0.2,0.899l-0.1,0.45l-0.051,0.5l-0.449,1.8l-0.5,1.8l-0.601,1.7
	l-0.6,1.75l-0.7,1.7l-0.7,1.699l1.75-1.649l1.7-1.55l1.65-1.45l1.649-1.25l-0.25,0.5l-0.2,0.601L150,128.75l-0.5,1.35l-0.551,1.55
	l-0.649,1.55l-0.7,1.75l-0.75,1.85l-0.75,1.951l-0.9,2.049l-0.899,2.15l-0.5,1.1l-0.45,1.201l-0.95,2.449l-1.1,2.5l-1.101,2.65
	l-1.149,2.75l-1.2,2.9l0.25-0.9l-0.2,0.55l-0.149,0.5l-0.15,0.399l-0.05,0.351l1.649-2.149l1.601-2l1.5-1.9l1.45-1.75l1.3-1.65
	l1.25-1.55l1.149-1.45l1.101-1.25l0.95-1.25l0.899-1.1l0.8-0.95l0.75-0.851l0.65-0.75l0.55-0.649l0.45-0.55l0.4-0.35l0.199,0.299
	l-1.05,13l0.2-0.199l0.25-0.25l0.3-0.4l0.351-0.449l0.35-0.65l0.4-0.7l0.449-0.851l0.5-0.85l0.5-1.1l0.551-1.15l0.6-1.25l0.65-1.35
	l0.649-1.551l0.7-1.549l0.75-1.75l0.8-1.75l0.7-1.9l0.7-1.801l1.3-3.449l0.5-1.7l0.5-1.601l0.45-1.6l0.45-1.5l0.3-1.55l0.3-1.45
	l0.25-1.4l0.2-1.299l0.1-1.351L167,114.9l0.1-2.351l-0.15-2.399l-0.25-2.399l-0.199-1.25l-0.15-1.201l-0.2-1.25L166,102.85
	l-0.551-2.6l-0.55-2.601l-0.2-0.7l-0.1-0.35l-0.05-0.301L164.25,95l-0.75-2.701l0.35,0.101l0.4,0.149L165,92.85l0.699,0.25l0.65,0.3
	l0.55,0.2l0.25,0.1l0.3,0.15l1,0.4l0.351,0.1h0.05l0.1,0.05l0.2,0.101l0.3,0.1l0.25,0.1h0.051l0.1,0.051l0.15,0.1l0.199,0.1
	l0.7,0.15l0.65,0.199l1.2,0.4l0.5,0.1L173.699,96l0.4,0.199l0.35,0.2l-0.5-2.7l-0.399-2.449l-0.4-2.351l-0.35-2.101l-0.4-2.049
	l-0.3-1.8l-0.3-1.7l-0.25-1.5L171,77.2l-0.551-2.45l-0.6-2.35l-0.55-2.2l-0.65-2.2l-0.6-2.05l-0.7-1.95l-0.65-1.85l-0.949-2.3
	l-0.95-2.2l-1.05-2.15l-1-2l-1.15-2l-1.1-1.85l-1.2-1.85l-1.15-1.7l-1.3-1.75l-1.3-1.6l-1.4-1.55l-1.35-1.4l-1.45-1.4l-1.45-1.3
	l-1.55-1.25l-1.5-1.1l-1-0.7l-1.05-0.7l-1.25-0.8l-1.25-0.8l-1.45-0.9l-1.5-0.9l-1.65-1l-1.75-1l-0.75-0.45l0.65-0.1l0.85-0.05
	l0.851-0.05l1,0.05l2.149,0.15l1.15,0.1l1.35,0.2l1.301,0.15l1.449,0.25l1.45,0.25l1.65,0.3l1.649,0.3l1.75,0.35l1.801,0.35
	l1.949,0.45l-2-2.25l-1.05-1.05l-1.1-1l-1.2-1l-1.2-0.9l-2.6-1.75l-2.9-1.65l-1.5-0.75l-1.55-0.7l-1.65-0.7l-1.649-0.6l-1.7-0.6
	l-1.75-0.55l-3.65-1.05l-3.6-0.95l-3.6-0.8l-3.551-0.65l-3.6-0.55l-3.5-0.4l-3.5-0.3l-3.45-0.15l-2.8-0.1l-2.6-0.1l-2.351-0.1
	l-1.1-0.05h-1l-1.9-0.1l-1.7-0.1l-1.5-0.1l-1.199-0.1l-0.301-0.4l-0.199-0.4l-0.2-0.45l-0.101-0.4L88.8,8.9l-0.05-0.5l-0.051-0.55
	L88.75,7.3l0.05-1.15l0.149-1.05l0.25-0.95l0.45-0.8L89.75,3V2.85L89.8,2.8l-0.15-0.05H89.5l-0.101,0.1l-0.25,0.05l-0.2,0.15
	l-0.25,0.15l-0.25,0.25l-0.35,0.2l-0.35,0.3l-0.4,0.3l-0.4,0.4l-0.8,0.6L85.399,6l-0.8,0.85l-0.7,1L83.1,8.9l-0.7,1.25l-0.8,1.35
	l-0.7,1.45l-1.649-0.7l-1.551-0.6l-1.449-0.7l-1.351-0.6L72.8,9.4l-2.101-0.65L68.6,8.3l-2.1-0.15l0.3,0.5l0.45,0.7l0.449,0.85
	l0.601,1.1l0.6,1.2l0.7,1.4l0.75,1.55l0.85,1.75l-1-0.15l-1.05-0.1l-1.2-0.1h-1.25H65.25l-1.5,0.05L62.1,17L60.399,17.15
	L60.399,17.15z M143.3,50.1l0.399,0.25v0.05L143.3,50.1L143.3,50.1z M127,90.65l0.199,0.601l0.2,0.799l0.3,1.9l0.051,0.9l0.1,0.949
	v0.851v0.899l-0.1,0.801l-0.051,0.4V99.2l1.9-0.75l1.85-0.65l-0.1,0.351l-4.25,1.7l-0.3-1.1l-0.25-0.951l0.1-0.1l0.15-0.1l0.1-0.2
	l0.05-0.101l0.101-0.049l0.05-0.301l0.1-0.25v-0.35l0.051-0.301l-0.101-0.699l-0.1-0.35l-0.101-0.301l-0.199-0.4l-0.101-0.199
	L126.6,94V93.95l-0.45-0.699l-0.45-0.551l-0.35-0.199l-0.25,0.049l-0.05,0.351h-0.2l-0.35,0.05L124.3,93l-0.2,0.149l-0.55,0.351
	l-0.601,0.549L122.85,94v0.149l-0.3,0.25l-0.95,0.8l-0.4,0.35l-0.3,0.351l-0.35,0.25l-0.25,0.25l-0.351,0.351l-0.3-0.351l-0.149-0.2
	l-0.101-0.15l-0.5-0.75l-0.6-0.85l-0.5-0.949l0.35-0.601l0.4-0.5l0.3-0.45l0.3-0.35l1.05,2.5l2-1.051l0.9-0.5l0.9-0.399l1.6-0.851
	L127,90.65L127,90.65z M116,91.049L115.85,91l-0.3,0.049l-0.25,0.15l-0.2-0.1l-0.15,0.05l-0.1,0.149V91.6l-0.45,0.449L114,92.7
	l-0.5,0.75l-0.25,0.4l-0.2,0.5l-0.45,0.449l-0.35,0.451l-0.551,0.699l-0.449,0.5l-0.15,0.2l-0.1,0.149l-0.851-1.299l-0.75-1.15
	l-0.7-1.051l-0.649-0.949l-0.65-0.85l-0.55-0.75l-0.5-0.65l-0.4-0.551l0.75-1.299l0.851-1.351l0.3,0.95l0.4,0.85l2.449,5.4
	l0.551-0.45l0.649-0.55l0.7-0.65l0.85-0.699L114.3,90.9l1-0.95l1.05-1.05l1.15-1.101l0.75,1.801l-0.551,0.449l-0.3,0.301l-0.25,0.4
	l-0.3-0.101h-0.25h-0.15l-0.1,0.101l-0.2,0.1L116,91.049L116,91.049z M93.699,83.85l0.351,0.65l1.1,1.75l0.55,0.799L96.3,87.9
	l0.5,0.75l0.55,0.8l1.1,1.45L99,90.4l0.3-0.3l0.399-0.25l0.851-0.7l0.95-0.8l1.05-1l0.55-0.551l0.65-0.5l1.35-1.2l1.45-1.25
	l0.3,1.05l0.15,0.5l0.199,0.55l-1.5,0.75l-1.399,1.15l-0.351-0.2l-0.199,0.101l-0.15,0.299v0.5l-0.4,0.301l-0.35,0.4L102,90.2
	l-2.051,2.2l-1.85,2.3l-0.85-1.65L96.6,91.65L96.05,90.5L95.6,89.65l-0.55-0.8l-0.351-0.801L94.8,87.75l0.1-0.201l0.05-0.149
	L95,87.35l-0.051-0.4l-0.1-0.25l-0.15-0.3L94.5,86.25L94.199,86.1h-0.35l-0.3,0.151l-0.4-0.301l-0.3-0.1L92.5,85.9l-0.2,0.15
	l-0.101,0.15l-0.1,0.15l0.05,0.25L92,86.75L91.899,87l-0.05,0.75l0.1,0.199l-0.35,0.35l-0.3,0.451l-0.351,0.5l-0.3,0.6L90,90.75
	l-0.65,1.049l-0.7,1.101l-0.7,1.2L87.3,92.7l-0.5-1.25l-0.5-1.15l-0.351-0.949l-0.25-1L85.5,87.5l0.399-0.551l0.15-0.25l0.2-0.15
	l0.149-0.25l0.05-0.1H86.5l-0.051-0.3v-0.2l-0.1-0.35l-0.15-0.25L86,84.95l-0.301-0.05H85.5L85.35,85l-0.4,0.15L84.5,85.5
	l-0.101-0.1l-0.35-0.45l-0.3-0.25l-0.25-0.1l-0.15,0.05l-0.2,0.15l-0.1,0.35L83,85.6v0.651l0.1,0.35l-0.45,0.35l-0.6,0.45
	l-0.65,0.649l-0.7,0.65l-0.75,0.801l-0.85,0.799l-0.85,0.951L77.3,92.2l-0.95,1.1l-0.1-0.1l-0.051-0.1l-0.1-0.25l-0.1-0.2
	l-0.051-0.2L75.85,92l-0.1-0.201l-0.051-0.1v-0.05l-0.1-0.3l-0.2-0.7l-0.1-0.25l-0.05-0.2l-0.101-0.4l-0.1-0.25L75,89.35
	l-0.101-0.45l-0.25-0.649l-0.2-0.551l-0.399-0.85l0.5-0.65l0.399-0.45l0.2-0.35l0.05-0.1h0.051l-0.051-0.55L75.05,84.4l-0.15-0.15
	l-0.1-0.05l-0.3-0.05l-0.45,0.05l-0.25,0.05l-0.2,0.15L73,84.75l-0.65,0.55L72,85.6l-1,0.85l-0.7,0.7l-0.601,0.55l-0.25,0.2
	l-2.1,2.2l-1.8,2.3l-0.3,0.399L64.6,93.75l-0.1-0.15v-0.25l-0.101-0.4V92.5l-0.2-1.851L64,89.15l-0.051-0.5l0.15-0.25h0.05l0.2-0.55
	l0.25-0.45l0.4-0.75L65.25,86l0.1-0.25l0.1-0.15l0.75,4.6l0.851-1l1.05-1l1.15-1.1l1.25-1.15l0.85-0.85l0.8-0.7l0.75-0.65l0.7-0.5
	l0.6-0.5l0.551-0.35l0.5-0.3l0.449-0.15v0.45L75.8,83l0.1,0.75l0.2,0.95l0.2,1.05l0.3,1.2l0.35,1.35l0.45,1.5l0.45-0.6l0.25-0.35
	l0.35-0.301l0.75-0.85l0.4-0.5l0.5-0.449l0.95-1.151l1.149-1.2l1.25-1.4l0.65-0.75l0.75-0.7l3.8,8.3l0.7-0.9l0.7-0.8l1.35-1.55
	l1.2-1.45l0.55-0.7L93.699,83.85L93.699,83.85z M148.75,83.4l-0.2,0.35l-0.101,0.35l0.051-0.4l0.1-0.35L148.75,83.4L148.75,83.4z
	 M45.85,96.4l-0.2-0.55L45.5,95.4l-0.301-0.8L45,94.2l-0.15-0.25l-0.1-0.4l-0.051-0.299L44.6,93l-0.1-0.15l-0.15-0.301l-0.1-0.149
	l-0.2-0.101l-0.15,0.051l-0.25,0.05l-0.2,0.2l-0.3,0.25l-0.25,0.4l-0.25,0.049L42.5,93.45l-0.101,0.45l-0.05,0.05l-0.5,0.45
	l-0.5,0.55l-0.75,0.85L39.8,96.9l-0.351,0.5l-0.6,0.851L38.6,97.5l-0.2-0.601l-0.2-0.45l0.051-0.1V96.2l-0.101-0.65l-0.1-0.25
	l-0.101-0.149l-0.199-0.2l-0.2-0.1l-0.45-0.051l-0.3,0.15l-0.7-0.15h-0.35l-0.25,0.15l-0.15,0.1l-0.15,0.4v0.301l0.101,0.299V96.1
	l0.05,0.1l0.1,0.2l-0.6,0.851l-0.5,0.649l-0.45,0.75l-0.55,0.8l-0.5,0.9l-0.45-0.95l-0.35-0.8l-0.351-0.75l-0.3-0.65v-0.5v-0.25
	l0.05-0.199l0.051-1V95l0.149-0.301L31.8,94.5l0.25,0.799l0.35,0.951l0.351,1.049l0.449,1.201l0.851-2l1-1.65l1-1.45l1.149-1.101
	l0.5,0.601l0.551,0.7l1,1.449L39.5,95.5l0.1-0.301l0.2-0.25L40,94.6l0.35-0.35l0.3-0.451l0.4-0.449l0.45-0.5l0.55-0.5l0.649-0.801
	l0.851-0.85l0.85-0.949l1-1l0.3,1.199L46,91l0.199,0.899l0.101,0.399l0.149,0.4l1.15-1.449l1.05-1.25l0.95-1.15l0.45-0.551
	l0.5-0.449l0.75-0.95l0.35-0.45l0.4-0.35l0.6-0.65l0.25-0.3l0.3-0.2l0.351,0.8l0.55,1.1l0.55,1.35l0.7,1.65l0.05-0.2l0.101-0.101
	V89.5l0.05,0.049H55.5v0.101L55.399,90l0.75,1.949l0.05,0.15l0.5,1.4l0.9-1.15l0.9-1l0.85-1l0.85-0.9l-0.6,1l-0.55,0.95L58.5,92.25
	L58,93.049l-0.5,0.701L57.05,94.4l-0.4,0.55L56.3,95.5l-0.101,0.149l-0.75-1.95l-0.35-0.9l-0.25-0.549l-0.3-0.701V91.5h-0.2
	l-0.2-0.101L54,91.2l-0.101-0.15l-0.3-0.5l0.1,0.15l0.15,0.2l0.1,0.101L54,91.049l0.1,0.101l0.05,0.05l0.101,0.051V91.2h0.05h0.1
	l-0.3-0.65L53.85,90.1l-0.25-0.45l-0.2-0.25L53.55,89l0.149-0.301l0.101-0.25l0.05-0.1L53.8,87.9v-0.351l-0.101-0.35l-0.05-0.25
	l-0.2-0.4l-0.149-0.1h-0.101H52.8l-0.45,0.25l-0.5,0.4l-0.3,0.3l-0.25,0.399l-0.65,0.65l-0.6,0.801l-0.351,0.399l-0.3,0.5l-0.6,1.05
	l-0.4,0.5l-0.35,0.6l-0.7,1.25L46.6,94.9l-0.4,0.7L45.85,96.4L45.85,96.4z M28.649,95.1l0.05,0.05l-0.1,0.101L28.649,95.1
	L28.649,95.1z M30.949,92.6l-0.399-0.15H30.1h-0.15l0.101-0.3l0.149-0.2l0.2-0.3l0.101,0.2l0.05,0.1l0.1,0.15L30.949,92.6
	L30.949,92.6z M65.149,83.9l0.101,0.75L65.1,84.5L65,84.45l-0.351-0.05L65.149,83.9L65.149,83.9z"/>
<polygon fill-rule="evenodd" fill="#FFCD05" points="63.949,88.65 64,89.15 64.199,90.65 64.399,92.5 64.399,92.95 64.5,93.35 
	64.5,93.6 64.6,93.75 65.25,92.799 64.6,90.549 64.149,88.4 64.1,88.4 63.949,88.65 "/>
<polygon fill-rule="evenodd" fill="#FFCD05" points="38.85,98.25 39.449,97.4 38.949,97.299 38.6,97.049 38.399,96.9 38.6,97.5 
	38.85,98.25 "/>
<polygon fill-rule="evenodd" fill="#FFCD05" points="54.55,91.5 54.75,90.95 55,90.549 55.199,90.2 55.399,90 55.5,89.65 
	55.5,89.549 55.55,89.549 55.5,89.5 55.5,89.549 55.399,89.65 55.35,89.85 55.149,90.049 54.949,90.35 54.649,90.7 54.399,91.2 
	54.3,91.2 54.25,91.2 54.25,91.25 54.149,91.2 54.1,91.15 54,91.049 53.949,91 53.85,90.9 53.699,90.7 53.6,90.549 53.899,91.049 
	54,91.2 54.149,91.4 54.35,91.5 54.55,91.5 "/>
<path fill-rule="evenodd" fill="#FFCD05" d="M100.75,101.85l1.199-0.65l1.2-0.5l1.101-0.449l1.1-0.301l1-0.3l1.05-0.2l0.95-0.15
	h0.95l-4.55-7.799l-1.101,0.899l-0.95,0.95l-0.949,0.85l-0.801,0.9l-0.85,0.75l-0.7,0.8l-0.649,0.7l-0.551,0.75l-0.3-0.45
	l-0.25-0.399L97.1,96.45l-1.15-1.699l-0.35-0.5l-0.3-0.451l-0.65-0.899l-0.7-0.95l-0.649-0.9l-1.65,1.5l-1.5,1.551l-1.45,1.6
	l-1.25,1.65l-3.6-7.75l-0.55,0.6l-0.601,0.75L82.05,91.75l-0.7,0.949l-0.95,1l-0.75,0.95l-0.75,0.75l-0.6,0.75l-0.55,0.55
	l-0.45,0.45l-0.351,0.3l-0.25,0.25l-0.75-1.35l-0.649-1.2L74.649,94l-0.5-1.051L73.6,91.9l-0.45-0.851L72.75,90.2l-0.301-0.65
	l-0.35,0.25l-0.3,0.351l-0.4,0.351l-0.35,0.449l-0.5,0.4l-0.45,0.5L69.05,93l-1.25,1.25l-1.4,1.449l-1.55,1.551L64,98.1
	l-0.801,0.949l-0.449-1.25l-0.2-0.549l-0.15-0.351l-0.3-0.55l-0.2-0.45l-0.2-0.45l-0.1-0.3l-0.15-0.3l-0.05-0.2l-0.05-0.2l-1,0.9
	l-0.85,0.9l-0.801,0.799L58,97.85l-0.7,0.65l-0.55,0.649l-0.5,0.55l-0.4,0.551l-0.8-1.5l-0.4-0.801l-0.2-0.4l-0.1-0.199l-0.05-0.1
	V97.2l-0.101-0.15l-0.05-0.1l-0.1-0.199l-0.2-0.4l-0.4-0.801l-0.8-1.699L51.3,95.4l-1.15,1.45l-1.05,1.3l-0.95,1.25l-0.85,1.05
	l-0.4,0.5l-0.3,0.551l-0.35,0.399L46,102.35l-0.45,0.85l-0.3-0.65l-0.75-1.399L43.899,100l-0.6-1l-0.5-0.701l-0.2,0.25l-0.15,0.351
	l-0.399,0.8l-0.7,1.1l-0.55,1.051l-0.55,0.85l-0.4,0.801l-0.4,0.6l-0.3,0.55L38.899,105l-0.1,0.299l-0.55-1.049l-0.4-0.9l-0.35-0.85
	l-0.25-0.65l-0.25-0.6l-0.101-0.451l-0.1-0.35l0.05-0.25l-0.35,0.2l-0.301,0.351l-0.35,0.399l-0.3,0.5l-0.7,1.101L34.5,103.4
	l-0.301,0.8l-0.75,1.45l-0.6,1.45l-0.1-0.051h-0.051h-0.1l-0.2-0.149l-0.1-0.101l-0.05-0.049l-0.101-0.101l-0.2-0.351l-0.3-0.449
	l-0.25-0.5l-0.3-0.65L31,104.5l-0.051-0.101v-0.05l-0.1-0.301l0.3,9.65l0.15,2.801l0.25,3l0.25,3.149l0.3,3.3l0.1,1.5l0.101,1.45
	l0.1,1.351v0.299v0.15l0.05,0.2l0.101,0.7l0.1,1.15l0.101,1.149l0.1,1.05l0.1,1v0.85l0.101,0.801l0.05,0.699l0.1,0.65v0.551v0.199
	v0.1v0.051l0.051,0.1v0.35l0.1,0.351v0.149v0.101v0.149v0.101v0.5l0.05,0.5l0.101,0.8v0.301l0.05,0.299v0.25v0.101v0.05l0.05,0.1
	l-0.05,0.301v0.25l-0.05,0.199V145v0.049l3.899,2.9l3.95,2.7l2,1.25l2,1.2l2,1.15l2.05,1.1l2,1l2.05,0.949l2.051,0.9l2.1,0.85
	l4.2,1.5l2.1,0.701l2.15,0.649l-1.05-1L64.149,160l-0.75-0.9l-0.649-0.801l-1.551-2.049l-0.649-0.951l-0.45-0.85l-0.45-0.9
	l-0.35-0.799l-0.351-1.451l0.45,0.451l0.55,0.699l0.65,0.801l0.35,0.5l0.45,0.6l0.8,1.05l0.351,0.5l0.399,0.5l0.7,0.8l0.3,0.35
	L64,157.6l0.1,0.1l0.2,0.2l0.1,0.149l0.25,0.301l0.351,0.3l0.449,0.45l0.45,0.449l0.65,0.601l0.7,0.649l0.85,0.75l0.65,0.601
	l0.6,0.55l2.15,0.45l2.199,0.399l2.2,0.351l2.25,0.3l2.2,0.2l2.3,0.149l2.25,0.101l2.3,0.05l0.9-0.05h0.95l1.899-0.05l3.7-0.25
	l3.601-0.45l3.6-0.55l3.5-0.801l1.7-0.449l0.399-0.15l0.45-0.1l0.9-0.2l0.8-0.3l0.4-0.15l0.449-0.1l1.7-0.551l1.65-0.6l1.7-0.6
	l3.199-1.45l1.551-0.8l1.6-0.75l1.5-0.9l0.35-0.25l0.4-0.199l0.8-0.4l1.5-0.95l0.75-0.5l0.8-0.45l0.7-0.55l0.75-0.5l1.5-1.05
	l2.9-2.2l2.8-2.399l2.8-2.551l0.15-0.65l0.25-0.649l0.25-0.7l0.35-0.699l0.45-1.101l0.6-1.149l-0.8,0.25l-0.649,0.1l-0.7,0.25
	l-0.3,0.05l-0.551,0.2l0.301-1.25l0.35-1.35l0.4-1.551l0.5-1.65l0.85-3.699l0.85-3.551l0.65-3.549l0.65-3.4l0.449-3.35l0.45-3.25
	l0.351-3.201l0.25-3.049l-0.75,0.35l-0.801,0.4l-1.8,0.949l-2.1,1.051l-1.15,0.549l-1.2,0.65v-0.4l0.15-0.449l0.15-0.551l0.25-0.6
	l0.25-0.75l0.399-0.75l0.4-0.85l0.5-0.9l-1.2,0.4l-1.05,0.449l-1.05,0.4l-0.9,0.45l-0.9,0.351l-0.8,0.399l-0.75,0.3l-0.6,0.35
	l-0.15-1.199l-0.1-1.051l-0.101-0.899v-0.75l-0.1-0.649v-0.451v-0.35v-0.15v-1l-0.25,0.101l-0.95,0.75l-1,0.851l-1.149,0.899
	l-1.15,1.05l-0.3-0.1l-0.101-0.1l-0.05-0.051l-0.1-0.1l-0.3-0.4l-0.301-0.55l-0.199-0.399l-0.101-0.201l-0.05-0.1v-0.05l-0.3-0.851
	l-0.2-0.5l-0.15-0.5l-0.3-1.149l-0.3-1.149l-0.25-0.951l-0.85,0.451l-0.75,0.5l-1.351,0.949L120,100.6l-0.551,0.449l-0.55,0.351
	l-0.45,0.399l-2.25-6.149l-0.35,0.3l-0.35,0.35l-0.45,0.4l-0.55,0.5l-0.65,0.45l-0.7,0.55l-0.8,0.6l-0.85,0.65l0.649-0.05h0.65
	l0.5,0.05l0.45,0.15l0.35,0.15l0.25,0.199l0.15,0.25l0.1,0.35l-0.75-0.049l-0.8,0.049l-0.851,0.101l-0.899,0.2l-1,0.199l-1,0.301
	l-1.101,0.3l-1.149,0.399l-2.4,0.801l-2.2,0.85l-2,0.9l-1.8,0.949L97.699,106l-0.75,0.449l-0.649,0.35l-0.45,0.301l-0.15,0.35v0.301
	l0.051,1.799l0.149,1.951L96,112.75l0.149,1.5v0.25l0.05,0.299l0.101,0.5l0.1,0.601l0.15,0.75l0.149,0.851l0.2,1.049l0.2,1.15
	l0.3,1.301l-0.05,0.1v0.15l-0.1,0.199l-0.2,0.15l-0.2,0.05l-0.2-0.05l-0.1-0.1l-0.2-0.201l-0.1-0.25l-0.2-0.35l-0.101-0.4l-0.199-1
	l-0.301,1.25l-0.3,1.5l-0.2-1.399l-0.199-1.45l-0.2-1.75l-0.101-1.55l-0.1-1.45l-0.1-1.199h-0.051l0.051-0.051l-0.101-1.05
	l-0.1-0.899l-0.101-0.801v-0.6l-0.1-0.5V109v-0.201v-0.049v-0.951l0.05-0.799L94,106.299l0.199-0.549l0.351-0.801l0.55-0.55
	L95.75,104l0.85-0.15l0.05,0.25l0.101-0.051l0.35-0.299l0.45-0.25l0.95-0.5l1.05-0.601l0.55-0.3L100.75,101.85L100.75,101.85z
	 M104.6,108.299l-0.1-0.25l0.05-0.199l0.25-0.2l0.399-0.2l0.601-0.15l0.95-0.25l1.199-0.149l1.4-0.101h1.6h0.851l1.1,0.101
	l1.2,0.101l1.5,0.199l0.9,0.1l0.85,0.15l0.65,0.1l0.6,0.201l0.4,0.1l0.35,0.199l0.2,0.201l0.1,0.199l-0.05,0.2l-0.15,0.2l-0.199,0.1
	h-0.15L119,109l-1.2-0.301l-1.101-0.199l-2.1-0.351L113.55,108l-0.95-0.051l-1.85-0.05l-1.351-0.05h-0.55h-0.35l-1.25,0.1
	l-1.101,0.301l-1,0.299l-0.35-0.1L104.6,108.299L104.6,108.299z M107.899,115.65l-1.35,0.399l-0.65,0.201l-0.55,0.25l-0.45,0.1
	l-0.399,0.25l-0.5,0.35l-0.4,0.45l-0.45,0.351l-0.3,0.25l-0.25,0.149l-0.15,0.101L102,118.45l-0.25-0.15l-0.25-0.199l-0.051-0.25
	v-0.551v-0.149v-0.05v-0.5l0.101-0.45l0.45-1l0.75-1.101l0.449-0.6l0.601-0.55l0.7-0.75l0.8-0.601l0.85-0.549l0.9-0.351l0.899-0.351
	l0.95-0.25l1-0.149H111h0.949l1,0.101l0.95,0.149l0.95,0.3l0.85,0.301l0.9,0.399l0.85,0.45l0.851,0.6l0.649,0.5l0.65,0.6l0.5,0.601
	l0.45,0.601l0.3,0.6l0.25,0.65l0.15,0.699l0.05,0.7h-0.05v0.05v0.1l-0.051,0.201l-0.1,0.1l-0.1,0.15l-0.2,0.049l-0.15,0.101
	l-0.2,0.05L120.25,118l-0.101-0.051h-0.05l-0.1-0.05h-0.051l-0.149-0.101l-0.101-0.049l-0.199-0.101l-0.101-0.05h-0.05l-0.15-0.1
	l-0.1-0.051l-0.2-0.1l-0.3-0.15l-0.25-0.1l-0.65-0.301L117,116.5l-1.551-0.701l-1.35-0.5L112.75,115l-1.15-0.051h-0.75L110,115.1
	l-1,0.199L107.899,115.65L107.899,115.65z M53.55,97.799l0.05,0.051h-0.05V97.799L53.55,97.799z M56.449,101.25v0.049L56.1,101.5
	l-0.25,0.1h-0.1L56.449,101.25L56.449,101.25z M57,101.95h0.1l1.35-0.3l1.551-0.2l1.55-0.15l1.75-0.049l1.35-0.101h1.4h1.3
	l1.3,0.101l2.4,0.25l2.2,0.449l1,0.25l0.949,0.301l0.75,0.299l0.65,0.4l0.45,0.35l0.399,0.4l0.2,0.45l0.101,0.5h-0.051v0.05v0.1
	v0.201l-0.1,0.35l-0.1,0.1h-0.051v0.051v0.1l-0.199,0.25l-0.301,0.15l-0.3,0.149l-0.399,0.05l-0.4,0.051l-0.1-0.051h-0.101
	l-0.2-0.05H75.3l-0.25-0.101l-0.101-0.049h-0.05h-0.1l-0.65-0.101l-0.85-0.2l-1-0.199l-0.601-0.15l-0.55-0.1L70.8,105.4l-0.3-0.05
	l-0.65-0.1L68.5,104.9l-1.2-0.25l-1.101-0.2l-0.949-0.15l-0.851-0.149l-0.7-0.101L63.1,104h-0.45l-1.85,0.049l-2,0.25l-1.05,0.101
	l-1.051,0.2l-1.149,0.199l-1.101,0.301l-1.199,0.25l-1.2,0.35l-1.25,0.35l-1.25,0.451l0.45-1.15l0.35-0.5l0.45-0.45l0.45-0.45
	l0.649-0.4l0.65-0.35l0.8-0.25l1.7-0.55l1.899-0.45H57L57,101.95z M54.949,113.6L55,113.2l0.199-0.4L55.5,112.4L55.949,112
	l0.551-0.4l0.699-0.4l0.801-0.4l0.949-0.399l1.15-0.5l1.25-0.351l1.25-0.35l1.4-0.25l1.399-0.25l1.5-0.1l1.5-0.1L70,108.549
	l0.25,0.101l0.199,0.2l0.15,0.199l0.05,0.301l-0.05,0.1l-0.15,0.2l-0.25,0.101l-0.3,0.149L69.449,110l-0.5,0.1l-0.649,0.1l-0.65,0.1
	l-2.25,0.15l-2,0.25l-1.8,0.25l-1.5,0.4l-0.55,0.15l-0.351,0.1l-0.3,0.199l-0.75,0.451l-0.45,0.25l-0.399,0.35l-0.45,0.199
	l-0.35,0.25l-0.301,0.201L56,113.7l-0.25,0.1L55.6,113.9l-0.1,0.05V114l-0.301-0.051l-0.149-0.15L54.949,113.6L54.949,113.6z
	 M57.899,115L59,114.1l1.199-0.75l1.25-0.65l1.301-0.5l1.3-0.4l1.35-0.25l1.4-0.149l1.45,0.05l1-0.05l1,0.101l0.949,0.25l1,0.399
	l0.9,0.45l1,0.6l0.9,0.75l0.949,0.85l0.65,0.701l0.6,0.699l0.5,0.65l0.2,0.3L78,117.299l0.149,0.201l0.3,0.549l0.101,0.25
	l0.149,0.301l0.15,0.5v0.25l0.05,0.3l-0.05,0.2v0.25v0.3l-0.2,0.25l-0.2,0.2l-0.3,0.1L77.85,121l-0.45,0.1l-0.35-0.25l-0.601-0.2
	l-0.199-0.101l-0.101-0.049H76.1l-0.3-0.101l-0.8-0.3l-0.9-0.301l-0.85-0.35l-0.801-0.25l-1.6-0.35l-1.7-0.25l-1.6-0.051h-0.9
	l-0.899,0.101l-0.95,0.101l-0.95,0.199l-1.05,0.2l-1,0.3l-1.101,0.301l-1.05,0.399l-0.7,0.2l-0.6,0.25l-0.55,0.199l-0.45,0.25
	L57.3,121.1l-0.4,0.199l-0.3,0.101l-0.35,0.2l-0.75,0.199l-0.25,0.051l-0.15,0.1l-0.15-0.1l-0.05-0.051l-0.05-0.1l-0.25-0.1
	l-0.15-0.15L54.3,121.25L54.25,121l-0.101-0.551v-0.15v-0.049l0.05-0.601l0.15-0.55l0.25-0.65l0.45-0.6l0.5-0.7l0.649-0.7l0.75-0.75
	L57.899,115L57.899,115z M61.5,126.1l3.25,1.4l3.35,1.549l1.05,0.4l1.25,0.4l1.351,0.4l1.6,0.399l1.7,0.399l1.899,0.4l2,0.4
	l2.25,0.4l2,0.299l1.9,0.301l0.85,0.1l0.4,0.051l0.45,0.1l0.8,0.1l0.8,0.15l0.7,0.05l0.7,0.101h0.3h0.15l0.199,0.049l0.65,0.101
	h0.55l0.601,0.05h0.5l0.5,0.051l1.6-0.051l1.7-0.15l1.7-0.199l1.699-0.25l1.7-0.4l1.7-0.449l1.75-0.551l1.8-0.55l0.351-0.2
	l0.5-0.199l0.649-0.301l0.851-0.35l0.399-0.25l0.5-0.2l1.101-0.5l1.25-0.55l1.399-0.6l0.55-0.351l0.75-0.351l0.351-0.25l0.45-0.199
	l0.949-0.45l1.051-0.601l1.149-0.6l1.25-0.65l1.4-0.699l1-0.45l0.45-0.149l0.5-0.051l0.35-0.1h0.4l0.699,0.15l0.2,0.049l0.25,0.15
	l0.4,0.45l0.2,0.55l0.05,0.35l0.05,0.451l-0.05,0.299l-0.05,0.301l-0.101,0.1h-0.05V126v0.1l-0.1,0.25l-0.2,0.15l-0.2,0.149
	l-0.3,0.05h-0.15l-0.1,0.051l-0.45-0.051h-0.35l-0.351-0.1l-0.2-0.051L123.5,126.4l-0.101-0.101l-0.1-0.199v-0.15l0.05-0.35
	l0.25-0.2l0.4-0.2l0.649-0.05l-0.35-0.2l-0.25-0.1l-0.2-0.1h-0.1l-2.551,1.299l-2.55,1.301l-2.75,1.3l-2.75,1.399l-2.85,1.201
	l-2.75,1.049l-2.65,0.9l-2.5,0.75l-2.45,0.551l-2.35,0.449l-2.25,0.25l-2.15,0.1l-1.6-0.049l-0.8-0.051h-0.75l-1.601-0.15l-1.55-0.1
	l-0.45-0.1l-0.399-0.051l-0.8-0.1l-1.601-0.199L82,134.2l-1.601-0.25l-1.7-0.4l-0.85-0.199l-0.8-0.15l-3.4-0.9L72.75,132L72.5,131.9
	l-0.2-0.05l-0.4-0.1l-1.7-0.5l-1.75-0.601l-1.699-0.601l-1.5-0.699l-1.351-0.6l-1.35-0.551l-1.15-0.5l-1.149-0.5l-1.051-0.4
	L58.25,126.4l-0.851-0.3l-0.85-0.35l-0.7-0.25l-0.65-0.25l-0.55-0.15l-0.85-0.25l-0.351-0.051H53.3l-0.75,0.101H52.5h-0.051v0.05
	h-0.1H52.3V125h0.25l0.2,0.1l0.1,0.1l0.05,0.25l-1.05,0.7l-0.5,0.3l-0.4,0.35l-0.75,0.551l-0.35,0.199l-0.25,0.25l-0.3,0.15
	l-0.2,0.2l-0.35,0.25l-0.25,0.149h-0.101v0.051l-0.55-0.1l-0.35-0.15L47.25,128l-0.051-0.4l0.051-0.6l0.3-0.601l0.149-0.351
	l0.25-0.299l0.65-0.601l0.95-0.8l0.5-0.35l0.6-0.201l0.55-0.199l0.65-0.1l1.35-0.101h0.551l0.699,0.149l0.801,0.15l1,0.35l1.1,0.351
	l1.25,0.5l1.35,0.55L61.5,126.1L61.5,126.1z M53.5,118.95h-0.101l-0.149,0.1l-0.301,0.101l-0.35,0.101l-0.9,0.149l-0.949,0.25
	l-1,0.351l-1.051,0.5l-1,0.399l-0.8,0.5l-0.649,0.55l-0.4,0.6l-0.35,0.4l-0.25,0.551L44.8,124.7l-0.7,2.051l-0.3-0.25l-0.15-0.301
	l-0.1-0.449v-0.5l0.05-0.951l0.25-0.85l0.35-0.8l0.601-0.75l0.649-0.75l0.9-0.649l1-0.601l1.2-0.5l0.85-0.399l0.9-0.25l0.8-0.25
	l0.85-0.051l0.65-0.05l0.5,0.101l0.3,0.149L53.5,118.95L53.5,118.95z M135.05,140.549l1.3-0.5l1.1-0.35v0.051l-0.05,0.049
	L135.05,140.549L135.05,140.549z M137.449,139.9l-0.149,0.8l-0.4,1.051L137.449,139.9L137.449,139.9z M127.85,122.299l-0.45-0.85
	l-0.55-0.65l-0.4-0.299l-0.35-0.201l-0.45-0.199l-0.45-0.1v-0.201l0.351-0.1l0.399,0.051l0.351,0.049l0.399,0.15L127,120.1l0.35,0.3
	l0.7,0.7l0.399,0.6l0.351,0.6v0.101v0.05l0.05,0.1l0.1,0.301l0.101,0.6l-0.101,0.801l-0.1,0.149l-0.05,0.2l-0.15,0.4l-0.45-1.551
	L127.85,122.299L127.85,122.299z M109.75,125.6l0.1-0.2l-0.05,0.2H109.75L109.75,125.6z M92.35,128.95l-0.1-0.55v-0.149V128.2
	l0.05-0.3l0.149-0.25l0.301-0.25l0.449-0.2l0.5-0.25l0.65-0.199l0.8-0.201l0.95-0.199h0.35h0.9l0.85,0.1l0.7,0.1l0.65,0.15
	l0.399,0.15l0.351,0.199l0.2,0.25l0.1,0.301l-0.1,0.4l-0.301,0.399l-0.5,0.3l-0.3,0.15l-0.3,0.199l-0.25,0.101v0.101v0.299H97.3
	L96,129.65h-1.101h-0.45l-0.35,0.05l-0.65-0.05l-0.3-0.101l-0.2-0.049l-0.25-0.15l-0.149-0.1L92.35,128.95L92.35,128.95z"/>
<polygon fill-rule="evenodd" fill="#F8981D" points="104.5,108.049 104.6,108.299 104.8,108.45 105.149,108.549 106.149,108.25 
	107.25,107.95 108.5,107.85 108.85,107.85 109.399,107.85 110.75,107.9 112.6,107.95 113.55,108 114.6,108.15 116.699,108.5 
	117.8,108.7 119,109 119.1,108.95 119.25,108.95 119.449,108.85 119.6,108.65 119.649,108.45 119.55,108.25 119.35,108.049 
	119,107.85 118.6,107.75 118,107.549 117.35,107.45 116.5,107.299 115.6,107.2 114.1,107 112.899,106.9 111.8,106.799 
	110.949,106.799 109.35,106.799 107.949,106.9 106.75,107.049 105.8,107.299 105.199,107.45 104.8,107.65 104.55,107.85 
	104.5,108.049 "/>
<path fill-rule="evenodd" fill="#F8981D" d="M105.35,116.5l0.55-0.25l0.65-0.201l1.35-0.399l1.101-0.351l1-0.199l0.85-0.15h0.75
	l1.15,0.051l1.35,0.299l1.35,0.5L117,116.5l0.699,0.299l0.65,0.301l0.25,0.1l0.3,0.15l0.2,0.1l0.1,0.051l0.15,0.1h0.05l0.101,0.05
	l0.199,0.101l0.101,0.049l0.149,0.101H120l0.1,0.05h0.05L120.25,118l0.199-0.051l0.2-0.05l0.15-0.101l0.2-0.049l0.1-0.15l0.1-0.1
	l0.051-0.201v-0.1v-0.05h0.05l-0.05-0.7l-0.15-0.699l-0.25-0.65l-0.3-0.6l-0.45-0.601l-0.5-0.601l-0.65-0.6l-0.649-0.5l-0.851-0.6
	l-0.85-0.45l-0.9-0.399l-0.85-0.301l-0.95-0.3l-0.95-0.149l-1-0.101H111h-1.101l-1,0.149l-0.95,0.25l-0.899,0.351l-0.9,0.351
	l-0.85,0.549l-0.8,0.601l-0.7,0.75l-0.601,0.55l-0.449,0.6L102,115.15l-0.45,1l-0.101,0.45v0.5v0.05v0.149v0.551l0.051,0.25
	l0.25,0.199l0.25,0.15l0.449,0.051l0.15-0.101l0.25-0.149l0.3-0.25l0.45-0.351l0.4-0.45l0.5-0.35l0.399-0.25L105.35,116.5
	L105.35,116.5z M109.6,112.75l-3.15,0.149l0.051-0.101l0.25-0.199l0.35-0.15l0.8-0.3l1.05-0.3l1.301-0.301l1.55,0.15l1.45,0.25
	l1.25,0.301l1.199,0.449l1,0.45l0.9,0.601l0.7,0.6l0.649,0.75l-0.05-0.051l-0.35-0.35l-0.4-0.3l-0.55-0.3l-0.65-0.25l-0.75-0.301
	l-0.75-0.199L113.75,113l-1-0.15l-1-0.051l-1.051-0.049H109.6L109.6,112.75z"/>
<polygon fill-rule="evenodd" fill="#FFCD05" points="106.449,112.9 109.6,112.75 110.699,112.75 111.75,112.799 112.75,112.85 
	113.75,113 115.449,113.35 116.199,113.549 116.949,113.85 117.6,114.1 118.149,114.4 118.55,114.7 118.899,115.049 118.949,115.1 
	118.3,114.35 117.6,113.75 116.699,113.15 115.699,112.7 114.5,112.25 113.25,111.95 111.8,111.7 110.25,111.549 108.949,111.85 
	107.899,112.15 107.1,112.45 106.75,112.6 106.5,112.799 106.449,112.9 "/>
<polygon fill-rule="evenodd" fill="#F8981D" points="56.449,101.299 56.449,101.25 55.75,101.6 55.85,101.6 56.1,101.5 
	56.449,101.299 "/>
<polygon fill-rule="evenodd" fill="#F8981D" points="57.1,101.95 57.05,102 57,101.95 56.949,101.95 55.05,102.4 53.35,102.95 
	52.55,103.2 51.899,103.549 51.25,103.95 50.8,104.4 50.35,104.85 50,105.35 49.55,106.5 50.8,106.049 52.05,105.7 53.25,105.35 
	54.449,105.1 55.55,104.799 56.699,104.6 57.75,104.4 58.8,104.299 60.8,104.049 62.649,104 63.1,104 63.699,104.049 64.399,104.15 
	65.25,104.299 66.199,104.45 67.3,104.65 68.5,104.9 69.85,105.25 70.5,105.35 70.8,105.4 71.149,105.5 71.699,105.6 72.3,105.75 
	73.3,105.95 74.149,106.15 74.8,106.25 74.899,106.25 74.949,106.25 75.05,106.299 75.3,106.4 75.449,106.4 75.649,106.45 
	75.75,106.45 75.85,106.5 76.25,106.45 76.649,106.4 76.949,106.25 77.25,106.1 77.449,105.85 77.449,105.75 77.449,105.7 
	77.5,105.7 77.6,105.6 77.699,105.25 77.699,105.049 77.699,104.95 77.699,104.9 77.75,104.9 77.649,104.4 77.449,103.95 
	77.05,103.549 76.6,103.2 75.949,102.799 75.199,102.5 74.25,102.2 73.25,101.95 71.05,101.5 68.649,101.25 67.35,101.15 
	66.05,101.15 64.649,101.15 63.3,101.25 61.55,101.299 60,101.45 58.449,101.65 57.1,101.95 "/>
<polygon fill-rule="evenodd" fill="#F8981D" points="58.949,110.4 58,110.799 57.199,111.2 56.5,111.6 55.949,112 55.5,112.4 
	55.199,112.799 55,113.2 54.949,113.6 55.05,113.799 55.199,113.95 55.5,114 55.5,113.95 55.6,113.9 55.75,113.799 56,113.7 
	56.199,113.5 56.5,113.299 56.85,113.049 57.3,112.85 57.699,112.5 58.149,112.25 58.899,111.799 59.199,111.6 59.55,111.5 
	60.1,111.35 61.6,110.95 63.399,110.7 65.399,110.45 67.649,110.299 68.3,110.2 68.949,110.1 69.449,110 69.899,109.9 
	70.199,109.75 70.449,109.65 70.6,109.45 70.649,109.35 70.6,109.049 70.449,108.85 70.25,108.65 70,108.549 68.399,108.5 
	66.899,108.6 65.399,108.7 64,108.95 62.6,109.2 61.35,109.549 60.1,109.9 58.949,110.4 "/>
<path fill-rule="evenodd" fill="#F8981D" d="M68.25,111.45l-1.45-0.05l-1.4,0.149l-1.35,0.25l-1.3,0.4l-1.301,0.5l-1.25,0.65
	L59,114.1l-1.101,0.9l-0.95,0.699l-0.75,0.75l-0.649,0.7l-0.5,0.7l-0.45,0.6l-0.25,0.65l-0.15,0.55l-0.05,0.601v0.049v0.15
	L54.25,121l0.05,0.25l0.149,0.199l0.15,0.15l0.25,0.1l0.05,0.1l0.05,0.051l0.15,0.1l0.15-0.1l0.25-0.051l0.75-0.199l0.35-0.2
	l0.3-0.101l0.4-0.199l0.05-0.051l0.45-0.25l0.55-0.199l0.6-0.25l0.7-0.2l1.05-0.399l1.101-0.301l1-0.3l1.05-0.2l0.95-0.199
	l0.95-0.101l0.899-0.101h0.9l1.6,0.051l1.7,0.25l1.6,0.35l0.801,0.25l0.85,0.35L75,120.1l0.8,0.3l0.3,0.101h0.05l0.101,0.049
	l0.199,0.101l0.601,0.2l0.35,0.25l0.45-0.1l0.3-0.051l0.3-0.1l0.2-0.2l0.2-0.25v-0.3v-0.25l0.05-0.2l-0.05-0.3v-0.25l-0.15-0.5
	l-0.149-0.301l-0.101-0.25l-0.3-0.549L78,117.299l-0.101-0.149l-0.2-0.3l-0.5-0.65l-0.6-0.699l-0.65-0.701L75,113.95l-0.9-0.75
	l-1-0.6l-0.9-0.45l-1-0.399l-0.949-0.25l-1-0.101L68.25,111.45L68.25,111.45z M61.25,114.799l-0.351-0.049l0.65-0.4l0.7-0.301
	l0.649-0.299l0.7-0.201l0.6-0.25l0.65-0.149l1.2-0.2l0.899-0.15l0.9,0.051l1.8,0.25l0.9,0.25l0.899,0.35l1.801,0.95l0.6,0.399
	l0.65,0.5l0.55,0.551l0.55,0.65l0.45,0.699l0.649,0.95L76.1,118l-0.35-0.201l-0.301-0.149l-0.75-0.399l-0.8-0.301l-1.35-0.55
	L71.25,116l-1.301-0.351l-1.3-0.149l-1.399-0.15l-1.301,0.05l-1.35,0.149l-1.3,0.25l-0.601,0.101l-0.55,0.2l-0.6,0.199l-0.601,0.301
	l-0.699,0.3l-0.7,0.45l-0.75,0.449l-0.7,0.551l-1.25,0.9l0.4-0.701l0.6-0.699l0.75-0.7l0.95-0.7l0.399-0.35l0.351-0.25l0.3-0.25
	l0.3-0.15l0.15-0.199l0.149-0.101l0.101-0.05h0.05l-0.1-0.25V114.799L61.25,114.799z"/>
<polygon fill-rule="evenodd" fill="#FFCD05" points="60.899,114.75 61.25,114.799 61.25,114.85 61.35,115.1 61.3,115.1 
	61.199,115.15 61.05,115.25 60.899,115.45 60.6,115.6 60.3,115.85 59.949,116.1 59.55,116.45 58.6,117.15 57.85,117.85 
	57.25,118.549 56.85,119.25 58.1,118.35 58.8,117.799 59.55,117.35 60.25,116.9 60.949,116.6 61.55,116.299 62.149,116.1 
	62.699,115.9 63.3,115.799 64.6,115.549 65.949,115.4 67.25,115.35 68.649,115.5 69.949,115.65 71.25,116 72.55,116.4 
	73.899,116.95 74.699,117.25 75.449,117.65 75.75,117.799 76.1,118 76.699,118.4 76.05,117.45 75.6,116.75 75.05,116.1 
	74.5,115.549 73.85,115.049 73.25,114.65 71.449,113.7 70.55,113.35 69.649,113.1 67.85,112.85 66.949,112.799 66.05,112.95 
	64.85,113.15 64.199,113.299 63.6,113.549 62.899,113.75 62.25,114.049 61.55,114.35 60.899,114.75 "/>
<polygon fill-rule="evenodd" fill="#F8981D" points="68.1,129.049 64.75,127.5 61.5,126.1 59.949,125.45 58.6,124.9 57.35,124.4 
	56.25,124.049 55.25,123.7 54.449,123.549 53.75,123.4 53.199,123.4 51.85,123.5 51.199,123.6 50.649,123.799 50.05,124 
	49.55,124.35 48.6,125.15 47.949,125.75 47.699,126.049 47.55,126.4 47.25,127 47.199,127.6 47.25,128 47.5,128.35 47.85,128.5 
	48.399,128.6 48.399,128.549 48.5,128.549 48.75,128.4 49.1,128.15 49.3,127.95 49.6,127.799 49.85,127.549 50.199,127.35 
	50.949,126.799 51.35,126.45 51.85,126.15 52.899,125.45 52.85,125.2 52.75,125.1 52.55,125 52.3,125 52.3,124.95 52.35,124.95 
	52.449,124.95 52.449,124.9 52.5,124.9 52.55,124.9 53.3,124.799 53.449,124.799 53.8,124.85 54.649,125.1 55.199,125.25 
	55.85,125.5 56.55,125.75 57.399,126.1 58.25,126.4 59.199,126.799 60.25,127.2 61.399,127.7 62.55,128.2 63.899,128.75 
	65.25,129.35 66.75,130.049 68.449,130.65 70.199,131.25 71.899,131.75 72.3,131.85 72.5,131.9 72.75,132 73.649,132.299 
	77.05,133.2 77.85,133.35 78.699,133.549 80.399,133.95 82,134.2 83.649,134.5 85.25,134.7 86.05,134.799 86.449,134.85 
	86.899,134.95 88.449,135.049 90.05,135.2 90.8,135.2 91.6,135.25 93.199,135.299 95.35,135.2 97.6,134.95 99.949,134.5 
	102.399,133.95 104.899,133.2 107.55,132.299 110.3,131.25 113.149,130.049 115.899,128.65 118.649,127.35 121.199,126.049 
	123.75,124.75 123.85,124.75 124.05,124.85 124.3,124.95 124.649,125.15 124,125.2 123.6,125.4 123.35,125.6 123.3,125.95 
	123.3,126.1 123.399,126.299 123.5,126.4 123.699,126.549 123.899,126.6 124.25,126.7 124.6,126.7 125.05,126.75 125.149,126.7 
	125.3,126.7 125.6,126.65 125.8,126.5 126,126.35 126.1,126.1 126.1,126 126.1,125.95 126.149,125.95 126.25,125.85 126.3,125.549 
	126.35,125.25 126.3,124.799 126.25,124.45 126.05,123.9 125.649,123.45 125.399,123.299 125.199,123.25 124.5,123.1 124.1,123.1 
	123.75,123.2 123.25,123.25 122.8,123.4 121.8,123.85 120.399,124.549 119.149,125.2 118,125.799 116.949,126.4 116,126.85 
	115.55,127.049 115.199,127.299 114.449,127.65 113.899,128 112.5,128.6 111.25,129.15 110.149,129.65 109.649,129.85 109.25,130.1 
	108.399,130.45 107.75,130.75 107.25,130.95 106.899,131.15 105.1,131.7 103.35,132.25 101.649,132.7 99.949,133.1 98.25,133.35 
	96.55,133.549 94.85,133.7 93.25,133.75 92.75,133.7 92.25,133.7 91.649,133.65 91.1,133.65 90.449,133.549 90.25,133.5 90.1,133.5 
	89.8,133.5 89.1,133.4 88.399,133.35 87.6,133.2 86.8,133.1 86.35,133 85.949,132.95 85.1,132.85 83.199,132.549 81.199,132.25 
	78.949,131.85 76.949,131.45 75.05,131.049 73.35,130.65 71.75,130.25 70.399,129.85 69.149,129.45 68.1,129.049 "/>
<polygon fill-rule="evenodd" fill="#F8981D" points="52.6,119.25 52.949,119.15 53.25,119.049 53.399,118.95 53.5,118.95 
	53.399,118.65 53.1,118.5 52.6,118.4 51.949,118.45 51.1,118.5 50.3,118.75 49.399,119 48.55,119.4 47.35,119.9 46.35,120.5 
	45.449,121.15 44.8,121.9 44.199,122.65 43.85,123.45 43.6,124.299 43.55,125.25 43.55,125.75 43.649,126.2 43.8,126.5 44.1,126.75 
	44.8,124.7 45.25,123.5 45.5,122.95 45.85,122.549 46.25,121.95 46.899,121.4 47.699,120.9 48.699,120.5 49.75,120 50.75,119.65 
	51.699,119.4 52.6,119.25 "/>
<polygon fill-rule="evenodd" fill="#F8981D" points="137.449,139.7 136.35,140.049 135.05,140.549 137.399,139.799 137.449,139.75 
	137.449,139.7 "/>
<polygon fill-rule="evenodd" fill="#F8981D" points="137.3,140.7 137.449,139.9 136.899,141.75 137.3,140.7 "/>
<polygon fill-rule="evenodd" fill="#F8981D" points="125.199,120 125.649,120.1 126.1,120.299 126.449,120.5 126.85,120.799 
	127.399,121.45 127.85,122.299 128.199,123.45 128.649,125 128.8,124.6 128.85,124.4 128.949,124.25 129.05,123.45 128.949,122.85 
	128.85,122.549 128.8,122.45 128.8,122.4 128.8,122.299 128.449,121.7 128.05,121.1 127.35,120.4 127,120.1 126.699,119.95 
	126.3,119.799 125.949,119.75 125.55,119.7 125.199,119.799 125.199,120 "/>
<polygon fill-rule="evenodd" fill="#F8981D" points="92.25,128.2 92.25,128.25 92.25,128.4 92.35,128.95 92.55,129.25 
	92.699,129.35 92.949,129.5 93.149,129.549 93.449,129.65 94.1,129.7 94.449,129.65 94.899,129.65 96,129.65 97.3,129.549 
	98.85,129.549 98.85,129.25 98.85,129.15 99.1,129.049 99.399,128.85 99.699,128.7 100.199,128.4 100.5,128 100.6,127.6 
	100.5,127.299 100.3,127.049 99.949,126.85 99.55,126.7 98.899,126.549 98.199,126.45 97.35,126.35 96.449,126.35 96.1,126.35 
	95.149,126.549 94.35,126.75 93.699,126.95 93.199,127.2 92.75,127.4 92.449,127.65 92.3,127.9 92.25,128.2 "/>
<polygon fill-rule="evenodd" fill="#FFCD05" points="28.25,102.75 28.399,99.7 27.8,102.1 27.55,103.299 27.399,104.549 
	27.1,106.95 27,109.45 27.05,111.15 27.3,112.9 27.3,113.95 27.3,115 27.449,116 27.449,117.549 27.6,119.25 27.75,121.049 
	28.1,123 28.449,125.049 28.949,127.2 29.5,129.5 30.199,131.95 29.75,128.15 29.8,127.549 29.5,124.75 29.1,121.049 28.85,117.6 
	28.6,114.25 28.5,111.1 28.25,103.75 28.25,102.75 "/>
<polygon fill-rule="evenodd" fill="#F8981D" points="68.1,161.549 67.25,160.799 66.55,160.15 65.899,159.549 65.449,159.1 
	65,158.65 64.649,158.35 64.399,158.049 64.3,157.9 64.1,157.7 64,157.6 63.949,157.549 63.649,157.2 62.949,156.4 62.55,155.9 
	62.199,155.4 61.399,154.35 60.949,153.75 60.6,153.25 59.949,152.45 59.399,151.75 58.949,151.299 59.3,152.75 59.649,153.549 
	60.1,154.45 60.55,155.299 61.199,156.25 62.75,158.299 63.399,159.1 64.149,160 65,160.9 66.05,161.9 66.8,162.6 67.449,163.2 
	67.75,163.45 68.1,163.75 68.35,163.95 68.649,164.2 69.199,164.6 69.399,164.7 69.5,164.75 69.649,164.85 70.05,165.1 70.1,165.1 
	70.199,165.15 70.399,165.25 70.699,165.299 70.8,165.25 70.949,165.15 71.05,164.95 71.1,164.799 71.05,164.7 71.05,164.65 
	70.949,164.5 70.85,164.35 70.8,164.25 70.649,164.049 70.35,163.75 70.05,163.45 69.699,163.049 69.5,162.85 69.399,162.75 
	69.35,162.7 68.75,162.15 68.1,161.549 "/>
<polygon fill-rule="evenodd" fill="#FFCD05" points="30.55,142.7 30.449,142.35 30.449,142.6 30.55,142.7 "/>
<path fill-rule="evenodd" fill="#CB6928" d="M59.649,2.65l0.7,1.2l0.8,1.35l0.8,1.35l0.9,1.55l0.9,1.55l1,1.65l1,1.7l1.1,1.85
	l-3.7-0.2l-3.6,0.1L56,15l-3.4,0.5l-3.45,0.7l-3.3,0.9l-3.25,1.1l-3.15,1.3L36.3,21l-3.05,1.7l-3,1.9l-2.851,2.15l-2.899,2.3
	l-2.75,2.6l-2.7,2.7l-2.601,3L14.5,39.7l-1.851,2.5l-1.7,2.55l-1.55,2.75l-1.45,2.75L6.6,53.2l-1.2,3.05L4.35,59.4l-0.5,1.45
	l-0.45,1.4l-0.45,1.3l-0.35,1.3L2.199,66l-0.35,1.1l-0.3,1.05l-0.25,1L1,70l-0.25,0.8l-0.2,0.75l-0.15,0.7l-0.25,1.1l-0.1,0.45
	L0,74.2l0.55-0.6l0.75-0.65l0.75-0.7L3,71.55l1.1-1l1.05-0.95l1-0.9l0.95-0.8l0.85-0.8L8.8,66.4l0.75-0.7l0.75-0.6l1.2-1.15
	l0.55-0.5l0.5-0.4l0.399-0.4l0.351-0.3l0.3-0.3l0.3-0.2l-0.85,0.95l-0.75,1.05l-1.45,2.3l-0.95,1.55l-0.85,1.75L8.199,71.2
	l-0.75,1.95l-0.75,1.95L6.05,77.15L5.449,79.3l-0.5,2.3l-0.75,3.1l-0.6,3.15L3.05,90.9L2.699,94l-0.35,3l-0.25,3.049L1.949,103v3
	L2,108.9l0.199,3l0.301,3.05l0.5,3.1l0.55,3.101l0.75,3.2l0.85,3.25l1.05,3.3l1.301,3.8l1.55,3.801l0.8,1.85l0.9,1.9l1.949,3.799
	l1.75,3.25L14.5,148.4l0.1-0.75l0.2-1.399l0.1-1.15l0.05-0.5l0.101-0.4l0.3-1.85l0.45-1.551l0.149,0.351l0.25,0.5l0.25,0.5
	l0.351,0.649l0.75,1.351L18,144.9l0.55,0.899l0.5,0.851l0.6,1L21,149.799l1.449,2.351l0.801,1.25l0.899,1.399l0.2,0.301l0.1,0.15
	l0.15,0.199l0.5,0.7l0.2,0.3l0.1,0.15l0.15,0.199l0.5,0.701l0.899,1.25l0.9,1.299l0.8,1.15l0.851,1.2l0.75,1.101l0.75,1.1l0.3,0.449
	l0.35,0.5l0.65,1l0.6,0.9l0.601,0.9l0.5,0.8l0.55,0.8l0.45,0.7L35.199,171l0.25,0.399l-0.3-2.399l-0.25-2.101l-0.2-2l-0.199-1.75
	l-0.2-1.601l-0.15-1.399l-0.1-1.25l-0.101-1l-0.3-2.05l-0.149-1.1l-0.101-1.051l-0.3-2.35L33,150.7l-0.051-0.6l-0.1-1.2l-0.1-0.95
	l-0.101-0.85l-0.25-1.9l-0.25-1.35L32,142.799l-0.2-0.949l0.2,0.199l-0.351-3.649l-0.1-0.101l-0.15-1.399l-0.3-1.75l-0.25-1.8
	l-0.4-3.801L30.1,126.4l-0.25-3l-0.25-2.851l-0.15-2.699l-0.199-2.65l-0.101-2.5l-0.1-2.35v-2.25L29,105.95l0.05-2.05L29.1,102
	l0.1-1.75l0.101-1.701L29.5,97l0.199-1.451L30,94.299l0.199,0.65L30.3,95.2l0.149,0.301l0.301,0.85l0.35,0.9l0.7,1.799l0.6,1.75
	l0.65,1.801l0.6-1.15l0.601-1l0.55-1l0.5-0.85l0.399-0.85l0.4-0.701l0.35-0.649l0.301-0.5l0.399,0.649l0.4,0.601l0.05,0.101
	l0.1,0.149l0.2,0.3l0.4,0.551l0.3,0.449l0.3,0.4L39,99.25l0.149,0.199l0.3,0.301l0.75-1.25l0.75-1.051l0.65-1.05l0.7-0.851
	l0.55-0.85l0.6-0.699l0.5-0.65l0.551-0.5l0.3,1.1l0.3,1.1l0.25,1l0.2,1l1.8-2.149l1.85-2L51.05,91L53,89.25l0.149,0.449l0.3,0.551
	L53.75,90.9l0.449,0.8l0.25,0.5l0.301,0.5l0.199,0.45l0.25,0.5l0.4,0.75v0.05l0.05,0.1l0.101,0.201l0.199,0.35l0.2,0.5l0.05,0.199
	L56.3,96l0.1,0.25v0.1l0.05,0.1l-0.05-0.05l0.101-0.101l0.1-0.199l0.25-0.25l0.2-0.35l0.35-0.451L57.75,94.5l0.449-0.551l0.45-0.75
	l0.55-0.75l0.551-0.85l0.699-0.95l0.7-1.05l0.8-1.1l0.801-1.201l0.949-1.25l0.2,2.1l0.2,2.25l0.1,2.351l0.101,2.5l9.399-9.051
	l2.7,8.35v-0.1l0.15-0.15l0.149-0.199L77,93.9l0.3-0.351l0.399-0.35l0.45-0.4l0.55-0.399l0.551-0.55l0.649-0.6l0.65-0.701l0.75-0.75
	l0.75-0.85l0.85-0.9L83.75,87.1l0.949-1.05l0.351,1.3l0.399,1.3l0.801,2.399l0.35,1.101L87,93.2l0.8,2l0.5-0.75l0.55-0.65l0.95-1.25
	l0.85-1.149l0.8-1l0.65-0.95l0.3-0.449l0.351-0.351L93.25,88l0.449-0.551l0.351,0.85l0.45,1l0.6,1.051l0.75,1.25l0.45,0.699
	l0.25,0.451l0.35,0.549l0.3,0.5l0.4,0.601l0.85,1.351l0.801-1l0.949-0.951l1-1l1.15-1l0.5-0.549l0.5-0.4l0.4-0.4l0.449-0.3
	l0.301-0.3l0.35-0.2l0.25-0.149l0.25-0.051l0.45,0.7l0.5,0.75l0.899,1.45L108,93.6l0.35,0.6l0.4,0.6l0.6,1l0.1,0.201l0.051,0.1
	l0.1,0.15l0.3,0.5l0.2,0.399l0.25,0.399l0.2,0.351l0.25,0.399l2.899-3.549L115.05,93l1.399-1.65l0.301,0.9l0.35,0.899l0.3,0.8
	l0.15,0.4l0.2,0.449l0.5,1.451l0.199,0.649l0.101,0.3v0.051l0.05,0.1l0.1,0.199l0.15-0.149l0.25-0.101l0.55-0.25l0.3-0.199l0.4-0.15
	l0.85-0.4l0.95-0.549l1.101-0.601l0.55-0.351l0.649-0.299l1.351-0.701l0.1,1.051l0.05,0.5l0.101,0.55l0.1,1l0.15,1l0.2,1.7
	l0.199,1.6l0.551-0.3l0.75-0.25l0.35-0.2l0.45-0.15l0.95-0.299l1-0.4l1.149-0.35l1.25-0.4l0.65-0.2l0.75-0.149l-0.101,0.35
	l-0.05,0.4l-0.1,0.75l-0.2,1.399l-0.3,1.25l-0.101,0.25l-0.05,0.3l-0.1,0.6l1.3-0.85l0.55-0.4L136,102.25l0.449-0.351l0.5-0.25
	l0.801-0.45l0.3-0.25l0.3-0.15l0.45-0.25l0.25-0.149l0.149-0.05v0.199l-0.1,0.5l-0.05,0.65l-0.15,0.75l-0.1,0.9l-0.05,0.949
	l0.05,0.9l1.399-0.4l1.7-0.399l0.9-0.25l1-0.2l2.2-0.4v0.25l0.1,0.351l0.1,0.45l0.101,0.55l0.05,0.649l0.1,0.75l0.101,0.851
	l0.1,0.95l0.101,1.85v0.85l0.05,0.9l-0.05,0.801v0.799h-0.051v0.051v0.1v0.2v0.399v0.801l-0.149,0.75l-0.15,0.949l-0.2,1.051
	L146,119.1l-0.301,1.35l-0.3,1.551L145,123.7l-0.4,1.9l-0.4,1.449l-0.399,1.4l-0.4,1.301l-0.35,1.299l-0.4,1.201l-0.399,1.149
	l-0.801,2.101l4.25-2.301l-4.05,7.95l-1.55,3l0.15,0.05l-1.15,3.25l-1.05,3.25l-0.851,2.551l-0.75,2.5l-0.75,2.399l-0.6,2.399
	l-0.6,2.25L134,165l-0.5,2.149l-0.4,2.101l2.15-3.051l1.05-1.449l1.05-1.351l1.9-2.649l0.899-1.25l0.95-1.15l1.65-2.35l0.8-1.101
	l0.8-1l1.4-1.95l1.35-1.75l1.15-1.65l0.55-0.75l0.55-0.649l0.45-0.7l0.45-0.6l0.85-1.051l0.65-0.949l0.6-0.75l0.2-0.35l0.25-0.25
	l0.399-0.351l-0.699,3l-0.301,1.45l-0.25,1.4l-0.55,2.6l-0.45,2.4l-0.449,2.1l-0.301,2l-0.3,1.699l-0.2,1.601l1.851-2.5l1.85-2.399
	l1.65-2.4l1.649-2.4l1.45-2.4l1.45-2.399l1.35-2.399l1.25-2.351l1.101-2.399l1.05-2.351L165.3,134l0.85-2.301l0.75-2.35l0.65-2.301
	l0.55-2.299l0.5-2.301l0.1-0.449v-0.15l0.051-0.1l0.1-0.201l0.1-0.5l0.15-0.5l0.2-1.149l0.1-0.649l0.15-0.601v-0.399v-0.201v-0.1
	l0.05-0.05l0.1-0.7v-0.4V116.1V116l0.051-0.051l0.1-0.75l0.1-1.699l0.051-0.9l0.1-0.9v-1.949l-0.05-1.9l-0.15-1.9l-0.149-1.85
	l-0.301-1.9l-0.35-1.85l-0.45-1.85l-0.45-1.801l2.351,0.801l2.3,0.799l2.1,0.701l2,0.699v-2.3l-0.05-2.3l-0.1-1.2l-0.05-0.601V92.75
	l-0.2-2.301l-0.3-2.4l-0.351-2.399l-0.1-0.35l-0.05-0.3l-0.101-0.6l-0.2-1.2L175,80.8l-0.601-2.55l-0.649-2.5l-0.4-1.3l-0.2-0.65
	L173,73.2l-0.801-2.55L171.3,68l-0.5-1.35l-0.45-1.3l-1.05-2.7L168.199,60l-1.25-2.75l-1.3-2.55l-1.35-2.55l-1.45-2.35l-1.55-2.35
	l-1.601-2.2l-1.649-2.15l-1.75-1.95l-1.9-1.95l-1.95-1.85l-2.05-1.75l-2.05-1.6l-2.2-1.6l-2.25-1.45l-2.35-1.35l-2.351-1.25
	l21.75,5.3l-1.199-2.05l-1.301-1.85l-1.5-1.85l-1.649-1.7l-1.851-1.7l-2-1.55l-2.199-1.55l-2.351-1.35l-2.85-1.55l-2.9-1.4
	l-2.95-1.25l-3-1.1l-3.1-1L129,12.9l-3.15-0.75l-3.2-0.55l-1.7-0.3l-1.649-0.2l-3.351-0.35l-3.399-0.25l-3.45-0.05l-3.55,0.05
	l-1.8,0.05L102,10.7l-1.851,0.1l-1.8,0.2l-3.65,0.45L94.149,11l-0.45-0.4l-0.75-0.8L92.3,8.95L92.05,8.5l-0.15-0.4l-0.35-0.95
	l-0.101-0.9L91.5,5.3l0.25-0.95l0.199-1l0.25-0.85l0.15-0.75l0.2-0.55l0.1-0.5l0.101-0.35L92.8,0.1l0.1-0.1l-2.05,0.45l-1.95,0.7
	l-1.85,0.9l-1.65,1.1l-1.649,1.3L82.3,6l-0.75,0.8l-0.65,0.95l-1.25,2H79.6h-0.05L79.449,9.7h-0.05H79.25l-0.301-0.1l-0.3-0.1
	L78.25,9.35L78,9.25L77.8,9.2l-0.3-0.15l-0.25-0.1L76.649,8.7l-0.7-0.3L75.25,8.15l-0.45-0.2l-0.4-0.15l-0.45-0.2L73.55,7.45
	l-0.95-0.4l-0.5-0.2l-0.25-0.1l-0.2-0.05L69.6,5.85L67.75,5.1L66,4.45L64.449,3.9L63,3.4l-1.25-0.35L60.6,2.8L59.649,2.65
	L59.649,2.65z M52.899,17.75L53,17.65h0.399L54,17.55h0.85l1-0.1l1.3-0.1l1.5-0.1l1.75-0.1L62.1,17l1.65-0.1l1.5-0.05h1.449h1.25
	l1.2,0.1l1.05,0.1l1,0.15l-0.85-1.75L69.6,13.9l-0.7-1.4l-0.6-1.2l-0.601-1.1L67.25,9.35l-0.45-0.7l-0.3-0.5l2.1,0.15l2.1,0.45
	L72.8,9.4l2.1,0.95l1.351,0.6l1.449,0.7l1.551,0.6l1.649,0.7l0.7-1.45l0.8-1.35l0.7-1.25l0.8-1.05l0.7-1l0.8-0.85l0.75-0.75l0.8-0.6
	l0.4-0.4l0.4-0.3l0.35-0.3l0.35-0.2l0.25-0.25l0.25-0.15l0.2-0.15l0.25-0.05l0.101-0.1h0.149L89.8,2.8l-0.05,0.05V3l-0.101,0.35
	l-0.45,0.9l-0.25,1.1L88.8,6.65L88.75,8.2V9l0.199,0.85l0.351,0.9l0.5,1l0.6,1l0.8,1.1l0.95,1.1l1.101,1.2l0.899-0.65l1.25-0.55
	l1.5-0.5l1.8-0.35l2-0.35l2.351-0.25l2.6-0.2l2.95-0.05l2.95-0.05l3,0.1l1.45,0.05l1.5,0.15l3,0.4l2.899,0.45l1.45,0.25l1.5,0.35
	l2.9,0.75l3,0.9l2.899,1l2.95,1.2l2.95,1.4l3,1.65l3,1.75l3,2l3.05,2.2l3.1,2.4l-1.949-0.45l-1.801-0.35l-1.75-0.35l-1.649-0.3
	l-1.65-0.3l-1.45-0.25l-1.449-0.25l-1.301-0.15l-1.35-0.2l-1.15-0.1l-2.149-0.15l-1-0.05l-0.851,0.05l-0.85,0.05l-0.65,0.1
	l0.75,0.45l1.75,1l1.65,1l1.5,0.9l1.45,0.9l1.25,0.8l1.25,0.8l1.05,0.7l1,0.7l1.5,1.1l1.55,1.25l1.45,1.3l1.45,1.4l1.35,1.4
	l1.4,1.55l1.3,1.6l1.3,1.75l1.15,1.7l1.2,1.85l1.1,1.85l1.15,2l1,2l1.05,2.15l0.95,2.2l0.949,2.3l0.65,1.85l0.7,1.95l0.6,2.05
	l0.65,2.2l0.55,2.2l0.6,2.35L171,77.2l0.55,2.55l0.25,1.5l0.3,1.7l0.3,1.8l0.4,2.049l0.35,2.101l0.4,2.351l0.399,2.449l0.5,2.7
	l-0.35-0.2l-0.4-0.199l-0.449-0.201l-0.5-0.1l-1.2-0.4l-0.65-0.199l-0.7-0.15L170,94.85l-0.15-0.1l-0.1-0.051h-0.051l-0.25-0.1
	l-0.3-0.1l-0.2-0.101l-0.1-0.05h-0.05l-0.351-0.1l-1-0.4l-0.3-0.15l-0.25-0.1l-0.55-0.2l-0.65-0.3L165,92.85l-0.75-0.301l-0.4-0.149
	l-0.35-0.101L164.25,95l0.3,1.299l0.05,0.301l0.1,0.35l0.2,0.7l0.55,2.601l0.551,2.6l0.149,1.199l0.2,1.25l0.15,1.201l0.199,1.25
	l0.25,2.399l0.15,2.399L167,114.9l-0.101,1.25l-0.1,1.351l-0.2,1.299l-0.25,1.4l-0.3,1.45l-0.3,1.55l-0.45,1.5l-0.45,1.6l-0.5,1.601
	l-0.5,1.7l-1.3,3.449l-0.7,1.801l-0.7,1.9l-0.8,1.75l-0.75,1.75l-0.7,1.549l-0.649,1.551l-0.65,1.35l-0.6,1.25l-0.551,1.15l-0.5,1.1
	l-0.5,0.85L155,149.9l-0.4,0.7l-0.35,0.65l-0.351,0.449l-0.3,0.4l-0.25,0.25l-0.2,0.199l1.05-13l-0.25-0.25l-0.399,0.351l-0.45,0.55
	l-0.55,0.65l-0.601,0.75l-0.75,0.85l-0.8,1L149.5,144.5l-0.95,1.25l-1.101,1.25l-1.149,1.449L145.05,150l-1.3,1.649l-1.45,1.75
	l-1.5,1.899l-1.601,1.951l-1.649,2.149l0.05-0.351l0.15-0.399l0.149-0.5l0.2-0.55l-0.25,0.9l1.2-2.9l1.149-2.75l1.101-2.65l1.1-2.5
	l0.95-2.449l0.45-1.201l0.5-1.1l0.899-2.15l0.9-2.049l0.75-1.951l0.75-1.85l0.7-1.75l0.649-1.55l0.551-1.55l0.5-1.35l0.449-1.25
	l0.2-0.601l0.25-0.5l-1.649,1.25l-1.65,1.45l-1.7,1.55l-1.75,1.649l0.7-1.699l0.7-1.7l0.6-1.75l0.601-1.7l0.5-1.8l0.449-1.8
	l0.051-0.5l0.1-0.45l0.2-0.899l0.35-1.801l0.2-1.85l0.2-1.7l0.05-0.851l0.1-0.75l0.15-1.449l0.05-1.35v-0.65l0.05-0.551l-0.05-0.6
	v-0.5L149.1,107l-0.3-1.801l-0.2-1.6l-0.3-1.5l-0.2-1.301l-1.45,0.25l-1.6,0.301l-1.8,0.3l-2,0.399l0.449-1.649l0.2-0.75l0.25-0.649
	l0.101-0.65l0.149-0.551l0.101-0.549l0.149-0.451V96.35l0.05-0.35l-0.05-0.351V95.4l-0.1-0.25L142.449,95l-0.149-0.15l-0.101-0.051
	l-0.25-0.1h-0.199l-0.25,0.051l-0.25,0.149l-0.351,0.149l-0.3,0.25l-0.4,0.25l-0.35,0.351l-0.45,0.351l-0.45,0.449l-0.5,0.45
	L138,97.7l-0.601,0.551l-0.55,0.649l-0.6,0.649l-0.551,0.75l1.75-5.399l-0.949,0.45l-0.95,0.5l-1.05,0.5l-1.15,0.55l-1.3,0.5
	L130.699,98l-1.449,0.6l-1.551,0.6V98.75l0.051-0.4l0.1-0.801V96.65v-0.851l-0.1-0.949l-0.051-0.9l-0.3-1.9l-0.2-0.799L127,90.65
	l-1.4,0.649L124,92.15l-0.9,0.399l-0.9,0.5l-2,1.051l-0.8-1.75l-0.7-1.65l-0.649-1.55l-0.55-1.351l-1.15,1.101l-1.05,1.05l-1,0.95
	l-0.851,0.851l-0.85,0.699l-0.7,0.65l-0.649,0.55l-0.551,0.45l-2.449-5.4L108,88.2l-0.2-0.5l-0.4-1.1l-0.1-0.2l-0.05-0.101V86.25
	l-0.101-0.301l-0.2-0.65l-0.399-1.45l-1.45,1.25l-1.35,1.2l-0.65,0.5l-0.55,0.551l-1.05,1l-0.95,0.8l-0.851,0.7L99.3,90.1L99,90.4
	l-0.551,0.5l-1.1-1.45l-0.55-0.8l-0.5-0.75l-0.601-0.851l-0.55-0.799l-1.1-1.75l-0.351-0.65l-0.55,0.6l-0.55,0.7l-1.2,1.45
	l-1.35,1.55l-0.7,0.8l-0.7,0.9l-3.8-8.3l-0.75,0.7L83.449,83l-1.25,1.4l-1.149,1.2L80.1,86.75L79.6,87.2l-0.4,0.5l-0.75,0.85
	L78.1,88.85l-0.25,0.35l-0.45,0.6l-0.45-1.5l-0.35-1.35l-0.3-1.2l-0.2-1.05l-0.2-0.95L75.8,83l-0.101-0.6v-0.45L75.25,82.1l-0.5,0.3
	l-0.551,0.35l-0.6,0.5l-0.7,0.5l-0.75,0.65l-0.8,0.7l-0.85,0.85l-1.25,1.15l-1.15,1.1l-1.05,1l-0.851,1l-0.1-1.55l-0.05-1.351
	l-0.101-1.25V85l-0.1-0.95l-0.1-0.75l-0.101-0.65V82.2l-0.95,0.95l-1,1.05l-1.05,1.1L61.6,86.5l-1.15,1.199L59.25,89L58,90.35
	l-1.301,1.449l-0.6-1.25L55.55,89.5L54.6,87.65l-0.45-0.851l-0.35-0.7l-0.351-0.65l-0.25-0.5l-0.3,0.2l-0.25,0.3l-0.6,0.65
	l-0.4,0.35L51.3,86.9l-0.75,0.95l-0.5,0.449L49.6,88.85L48.649,90l-1.05,1.25l-1.15,1.449l-0.149-0.4L46.199,91.9L46,91
	l-0.301-1.051l-0.3-1.199l-1,1L43.55,90.7l-0.851,0.85L42.05,92.35l-0.55,0.5l-0.45,0.5l-0.4,0.449l-0.3,0.451L40,94.6l-0.2,0.35
	l-0.2,0.25L39.5,95.5l-0.25-0.451l-0.2-0.35l-0.2-0.35l-0.15-0.301l-0.1-0.25l-0.15-0.299l-0.1-0.25l-0.2-0.4l-0.1-0.2L38,92.549
	V92.5l-0.2-0.451l-0.15-0.399L37.25,90.7l-0.4-1.05l-3.65,8.851l-0.5-1.451L32.25,95.85l-0.4-1.1l-0.3-0.851l-0.101-0.2l-0.05-0.1
	v-0.051l-0.2-0.35l-0.1-0.15l-0.05-0.1l-0.101-0.199L30.8,92.45l-0.101-0.25l-0.399-0.65l-0.4-0.75l-0.1-0.149l-0.05-0.101
	l-0.101-0.199l-0.2-0.4l-0.5-0.85l-0.8,2L27.5,93.15l-0.551,2L26.5,97.2l-0.351,1.9l-0.25,1.949l-0.149,1.9l-0.051,1.95l-0.05,3.601
	v3.399v3.25l0.101,3.101v0.799l0.05,1l0.1,1.15l0.2,1.4l0.15,1.5l0.25,1.8l0.25,1.899l0.35,2.15l0.3,2.25l0.4,2.5l0.399,2.6
	l0.5,2.851l0.45,3l0.55,3.2l0.601,3.35l0.649,3.6l0.2,1.051l0.2,1.3l0.1,0.601l0.051,0.299l0.1,0.351l0.2,1.149L32,159.1l0.1,0.949
	l0.05,0.4l0.101,0.45l0.1,0.75l0.1,0.75L31.5,160.75l-0.851-1.451l-0.85-1.35l-0.7-1.25l-0.7-1.25l-0.6-1.05l-0.601-0.95
	l-0.449-0.85l-0.5-0.85l-0.351-0.65l-0.35-0.551L25.3,150.1l-0.25-0.45l-0.15-0.25l-0.1-0.149V149.2l-2.351-3.85l-1.149-1.801
	l-1.05-1.649l-1.101-1.649l-1-1.5l-1-1.451l-0.95-1.35l-0.55,1.25l-0.399,1.25l-0.4,1.051l-0.3,1.049l-0.3,0.851l-0.2,0.851
	l-0.2,0.75l-0.1,0.649l-1.551-3.3l-1.35-3.5l-0.7-1.85l-0.6-1.9l-1.15-3.9L7.55,126l-0.4-1.65l-0.3-1.6l-0.55-3.451l-0.45-3.5
	L5.5,112.1l-0.25-3.75l-0.101-1.95v-1.95l0.05-3.949L5.35,96.4l0.5-4l0.7-3.95L7.6,84.6l1.25-3.9l1.6-3.8l1.801-3.75l2.149-3.65
	l1.05-1.85l1.051-1.7l1-1.7l1-1.55l0.899-1.55l0.9-1.4l0.8-1.35l0.85-1.2l0.7-1.25l0.75-1.05l0.65-1.05l0.7-0.9l0.55-0.9l0.6-0.75
	l0.5-0.75l0.5-0.55l1.75-2.35l1.851-2.2l1.85-2.05l1.95-1.9l2.3-2.05V39.3l-0.05-0.05l-0.15-0.05l-0.149,0.05l-0.301,0.05l-0.3,0.2
	l-0.399,0.2l-0.4,0.3l-0.55,0.3l-0.601,0.4l-0.649,0.4l-0.7,0.5l-0.8,0.5l-0.851,0.6l-0.949,0.65L28.8,44.1l-4.05,2.95L22.8,48.6
	l-1.851,1.65l-1.899,1.6l-1.8,1.7l-3.45,3.6l-1.75,1.75l-1.601,1.65l-1.55,1.55L7.5,63.65l-1.4,1.4L4.8,66.4l-1.25,1.25l-1.101,1.2
	l0.2-0.55l0.3-0.65l0.351-0.7l0.45-0.75l0.449-0.9l0.5-0.95L5.25,63.3l0.649-1.1L6.5,60.95l0.699-1.3l0.75-1.4L8.75,56.8l0.8-1.6
	l0.899-1.65l0.95-1.75l1.05-1.75l2.051-3.7l2.199-3.45l1.101-1.7l1.2-1.6l1.199-1.55L21.5,36.6l1.25-1.5l1.35-1.4l2.75-2.65
	l2.85-2.5l3.051-2.2L34.699,25l2.101-1.25l2.25-1.2l2.399-1.05l2.5-1.05l2.65-0.9l2.75-0.9l2.95-0.75L52.899,17.75L52.899,17.75z"/>
<polygon fill-rule="evenodd" fill="#CB6928" points="73.85,17.45 73.6,17.8 72.6,18.05 72.25,18.5 71.949,19.05 71.25,20.4 
	70.449,21.95 69.649,23.85 69.1,24.9 68.699,25.95 68.35,26.85 68.1,27.7 67.85,28.4 67.699,29.05 67.6,29.6 67.6,30.05 67.6,30.75 
	67.6,31.3 67.6,31.7 67.649,31.9 67.85,32.5 67.899,32.35 68.1,32.2 68.3,31.95 68.649,31.6 69,31.15 69.449,30.65 69.949,30.1 
	70.55,29.45 71.05,29.1 71.699,28.7 72.399,28.25 73.25,27.75 74.1,27.1 75.1,26.4 76.149,25.65 77.35,24.85 78.399,24 
	79.399,23.25 80.25,22.55 81.1,21.95 81.35,21.95 81.85,22 82.35,22.15 82.85,22.4 83.449,22.8 83.949,23.25 84.5,23.85 85,24.55 
	85.6,25.4 86.149,26.3 86.85,27.35 87.55,28.5 88.35,29.75 89.55,27.55 90.75,25.5 90.85,25.1 91,24.7 91.199,23.75 91.3,22.65 
	91.3,22 91.3,21.65 91.35,21.35 91.3,20.65 91.199,20.1 91,19.55 90.8,19.15 90.35,18.5 90.1,18.05 89.899,17.7 89.85,17.55 
	88.35,17.55 88.35,17.7 88.35,18.05 88.449,19 88.5,19.55 88.6,20.3 88.699,21.15 88.85,22.1 88.85,22.7 88.899,23.3 88.899,23.85 
	88.949,24.45 88.85,24.9 88.8,25.4 88.699,25.85 88.6,26.3 88.1,26.3 86.55,24.15 85.85,23.2 85.199,22.45 84.55,21.7 84,21.1 
	83.05,20.15 83.25,19.75 83.35,19.5 83.3,19.1 83.3,18.8 83.25,18.55 83.25,18.4 83.149,18.1 83.1,18.05 83.1,18.1 82.85,18.5 
	79,20.25 75.25,22.3 73.6,23.3 72.25,24.3 71.149,25.2 70.699,25.65 70.35,26.15 70.449,25.8 70.649,25.45 71.1,24.65 71.649,23.7 
	72.399,22.65 72.75,21.95 73.1,21.35 73.399,20.8 73.649,20.35 73.8,19.85 73.949,19.45 74.05,19.1 74.1,18.8 74.05,18.15 74,17.9 
	74,17.75 73.899,17.45 73.85,17.4 73.85,17.45 "/>
<polygon fill-rule="evenodd" fill="#010101" points="143.1,49.95 144.25,50.9 145.449,52.1 145.6,52 145.1,51.55 144.649,51.15 
	143.699,50.35 143.1,49.95 "/>
<polygon fill-rule="evenodd" fill="#F26822" points="145.6,52 145.449,52.1 146.25,53.05 147.1,54.1 147.899,55.25 148.8,56.5 
	149.6,57.75 150.399,59.2 151.199,60.7 152.05,62.35 152.5,63.35 152.699,63.85 152.8,64.1 152.949,64.4 153.35,65.35 153.8,66.35 
	154.149,67.25 154.5,68.15 154.8,69 154.949,69.4 155.149,69.85 155.35,70.6 155.55,71.35 155.699,72.05 155.899,72.75 156,73.35 
	156.1,73.95 156.1,74.2 156.149,74.5 156.149,74.75 156.199,75.05 156.199,75.95 156.199,76.8 156.199,77.55 156.25,78.2 
	156.25,78.75 156.3,79.2 156.35,79.55 156.449,79.85 155.6,77.9 154.85,76.3 154.1,74.9 153.449,73.8 152.85,72.9 152.25,72.15 
	151.6,71.4 151,70.75 150.25,70.1 149.55,69.55 148.8,69 148.05,68.6 148.149,69.15 148.3,69.8 148.3,70.05 148.35,70.35 
	148.449,70.95 148.649,72.1 148.699,72.6 148.8,73.15 148.949,74.25 149,75.25 149.05,76.25 149.05,77.15 149.1,78.05 149,79.7 
	148.899,80.45 148.85,81.25 148.649,82.7 148.449,84.1 148.6,83.6 148.699,83.3 148.899,82.95 149.199,82.05 149.399,81.55 
	149.649,81 150,79.85 150.1,79.3 150.25,78.85 150.399,77.9 150.449,77.15 150.399,77.05 150.399,77 150.399,76.9 150.399,76.7 
	150.399,76.25 150.35,75.75 150.35,75.2 150.25,73.9 150.199,73.2 150.199,72.5 150.75,72.95 151.35,73.6 152.199,74.65 
	152.6,75.25 153.05,75.95 153.8,77.4 154.55,79.05 154.55,79.15 154.649,79.45 154.8,79.95 155.1,80.75 155.35,81.65 155.75,82.75 
	156.149,84.05 156.699,85.6 157.05,82.95 157.149,81.65 157.3,80.45 157.35,79.2 157.399,78.05 157.449,75.8 157.3,73.65 
	157.1,71.6 156.899,70.6 156.75,69.7 156.3,67.95 155.5,65.75 154.55,63.65 153.449,61.55 152.199,59.55 150.75,57.55 
	149.199,55.65 147.449,53.8 145.6,52 "/>
<polygon fill-rule="evenodd" fill="#F26822" points="50.25,41.15 50.3,40.7 50.399,40.35 50.449,40.05 50.5,39.9 50.449,39.75 
	50.449,39.7 50.399,39.7 50.35,39.85 50.399,39.75 49.55,40.75 48.75,42 47.949,43.5 47.149,45.2 46.35,47.1 45.6,49.2 44.85,51.5 
	44.149,54.1 43.5,56.4 42.949,58.5 42.449,60.4 42.25,61.3 42.1,62.15 41.75,63.65 41.6,64.95 41.449,66.05 41.449,66.55 41.449,67 
	41.35,68.1 41.199,69.2 41.55,68.6 41.6,68.6 41.6,68.5 41.699,68.35 42.05,67.7 42.5,67.05 43,66.35 43.6,65.6 45.199,63.25 
	46.8,61.05 48.3,59 49.8,57.1 51.199,55.3 52.6,53.7 53.899,52.2 55.199,50.9 55.199,52.55 55.199,54.1 55.199,55.55 55.199,56.9 
	55.199,58.1 55.25,59.25 55.25,60.3 55.35,61.25 55.449,64 55.699,66.7 56,69.2 56.449,71.6 65.449,55.75 64.649,56.1 63.899,56.65 
	63.1,57.25 62.399,58 61.6,58.85 60.899,59.8 60.1,60.85 59.399,62 58.85,62.75 58.449,63.5 58.1,64.1 57.85,64.65 57.649,62.7 
	57.5,60.75 57.399,58.7 57.35,56.55 57.3,54.3 57.3,52 57.35,49.65 57.449,47.2 57,47.35 56.6,47.6 56.1,47.85 55.649,48.2 
	55.1,48.55 54.6,49 54.05,49.45 53.55,50.05 52.899,50.6 52.3,51.25 51.649,51.9 51.05,52.7 49.649,54.3 48.899,55.2 48.199,56.2 
	46.949,57.7 46.399,58.35 45.949,59 45.449,59.55 45.05,60.1 44.699,60.6 44.449,61.1 45.949,55.5 46.3,53.55 46.8,51.55 
	47.399,49.45 48.149,47.3 48.449,46.2 48.8,45.25 49.1,44.3 49.399,43.55 49.6,42.8 49.85,42.15 50.05,41.6 50.25,41.15 "/>
<polygon fill-rule="evenodd" fill="#010101" points="153.949,139.299 154.199,139.549 154,139.25 153.949,139.299 "/>
<polygon fill-rule="evenodd" fill="#F8981D" points="32,142.799 32.149,143.85 32.399,145.2 32.649,147.1 35.5,149.7 38.449,152.15 
	41.449,154.45 44.6,156.6 47.699,158.549 50.949,160.35 54.25,161.95 57.699,163.45 61.1,164.7 64.649,165.799 68.25,166.75 
	71.949,167.549 75.649,168.15 79.5,168.6 83.35,168.85 87.35,168.95 87.75,168.9 88.199,168.9 89.1,168.9 90.899,168.85 
	92.649,168.75 94.449,168.65 97.949,168.25 99.649,168 101.399,167.799 102.199,167.6 102.6,167.5 103.05,167.45 104.75,167.1 
	108.05,166.35 109.649,165.85 110.449,165.6 111.3,165.4 112.899,164.85 114.55,164.35 117.649,163.1 120.75,161.75 123.75,160.25 
	126.75,158.65 129.649,156.85 131.05,155.9 131.75,155.4 132.1,155.15 132.5,154.95 135.3,152.85 136.649,151.75 138.05,150.7 
	139.1,147.45 140.25,144.2 140.1,144.15 141.649,141.15 141.149,141.549 140.75,142 140.35,142.35 140.05,142.75 137.25,145.35 
	136.5,145.95 135.8,146.6 134.399,147.85 132.899,149 132.5,149.25 132.149,149.549 131.449,150.15 129.949,151.2 128.5,152.299 
	125.399,154.25 122.3,156.049 119.1,157.65 118.649,157.799 118.25,158 117.449,158.4 115.85,159.15 114.149,159.75 113.3,160.049 
	112.5,160.4 109.1,161.5 105.6,162.45 103.8,162.85 102.05,163.25 100.199,163.549 98.399,163.85 96.55,164.049 94.75,164.299 
	92.85,164.4 92.35,164.4 91.899,164.45 91,164.549 87.199,164.65 83.399,164.549 79.699,164.299 76.05,163.85 72.449,163.25 
	68.85,162.45 65.3,161.5 61.8,160.4 58.35,159.15 54.899,157.65 51.5,156.049 48.149,154.25 44.85,152.299 41.55,150.15 
	38.3,147.85 35.1,145.4 32,142.799 "/>
<polygon fill-rule="evenodd" fill="#CB6928" points="93.1,103.2 92.899,103.299 93.1,105.549 93.3,107.7 95.1,121.75 95.199,122.65 
	96.05,122.6 97.149,122.45 98.05,122.4 98.649,122.35 98.899,122.35 99.1,122.35 99.6,122.4 100.1,122.6 100.6,122.9 101.1,123.35 
	101.5,123.85 101.85,124.4 102,124.9 102.1,125.5 102,126.1 101.899,126.35 101.85,126.65 101.649,126.85 101.55,126.95 
	101.5,126.95 101.5,127 101.5,127.1 101.3,127.299 101.199,127.4 101.149,127.4 101.149,127.45 101.149,127.549 100.85,127.65 
	100.75,127.65 100.699,127.65 100.699,127.7 100.6,127.799 100.3,127.9 100,128.049 99.6,128.1 99.25,128.2 98.85,128.2 
	98.449,128.25 97.699,128.2 97.05,128.2 96.5,128.2 96.05,128.2 96,128.25 95.949,128.549 95.949,128.799 95.85,129 95.8,129 
	95.8,129.049 95.8,129.15 95.75,129.15 95.8,129.2 96.25,129.299 96.6,129.299 97.05,129.4 98.3,129.5 98.899,129.5 99.5,129.5 
	99.6,129.45 99.75,129.45 100.05,129.45 100.55,129.4 100.949,129.25 101.35,129.15 101.699,128.95 101.85,128.85 102.05,128.799 
	102.5,128.299 102.85,127.85 103.1,127.45 103.3,127.1 103.449,126.4 103.5,125.7 103.449,125 103.35,124.4 102.85,123.6 
	102.5,122.9 101.899,122.35 101.25,121.95 100.399,121.6 99.5,121.35 98.75,121.2 98.05,121.15 97.399,121.2 96.85,121.35 
	96.75,121.15 96.699,121.049 96.699,121 96.6,120.65 96.399,119.9 96.199,119.049 96,118.1 95.899,117.799 95.85,117.7 
	95.85,117.65 95.85,117.549 95.75,117 95.55,115.85 95.449,115.5 95.399,115.2 95.3,114.6 95.1,113.25 94.55,109.4 94.449,108.45 
	94.35,107.799 94.35,107.2 94.5,106 94.55,105.6 94.8,105.25 95.199,104.85 95.75,104.5 96.399,104.049 97.25,103.6 98.199,103.1 
	99.35,102.65 100.5,102.1 101.75,101.65 103,101.25 104.399,101 105.75,100.75 107.25,100.6 108.75,100.5 110.35,100.5 111.8,100.5 
	113.149,100.5 114.35,100.5 115.449,100.5 116.3,100.5 117.05,100.5 117.649,100.5 118.1,100.549 117.5,100.25 116.8,100 
	115.949,99.799 115,99.6 113.8,99.4 112.55,99.2 111.1,99.049 109.55,98.95 108.649,98.85 107.8,98.85 106.85,98.85 105.949,98.95 
	104,99.2 103,99.4 102.05,99.7 100.949,99.95 99.899,100.299 98.8,100.65 97.75,101.1 95.449,102.049 93.1,103.2 "/>
<polygon fill-rule="evenodd" fill="#010101" points="103.449,115.25 102.75,116.75 103.899,115.9 105.1,115.15 106.3,114.5 
	107.55,114.049 109.449,113.5 110.35,113.35 111.35,113.4 112.25,113.45 113.25,113.6 115.25,114.25 116.6,114.85 117.899,115.6 
	119.149,116.45 120.3,117.4 119.199,115.5 118.5,114.45 118.1,113.95 117.75,113.549 117.3,113.1 116.899,112.75 116.05,112.1 
	115.05,111.549 114.5,111.299 114,111.15 113.399,110.95 112.85,110.85 111.649,110.7 110.25,110.65 109,110.85 107.85,111.15 
	106.8,111.65 105.75,112.25 104.899,113.1 104.1,114.049 103.449,115.25 "/>
<polygon fill-rule="evenodd" fill="#CB6928" points="108.449,107.299 107.399,107.5 106.55,107.799 105.699,108 105.05,108.25 
	104.399,108.4 103.899,108.6 103.449,108.75 103.199,108.95 103.949,108.65 104.8,108.45 105.649,108.25 106.6,108.15 
	108.55,107.95 110.699,107.95 112.949,108.049 115.449,108.299 116.699,108.45 118.05,108.7 120.899,109.25 118.85,108.5 
	116.949,107.95 115.199,107.5 114.35,107.299 113.6,107.2 112.8,107.049 112.1,107 110.75,106.95 109.5,107.049 108.449,107.299 "/>
<polygon fill-rule="evenodd" fill="#CB6928" points="54.55,114.75 55.399,114.1 56.5,113.549 57.699,113 59.149,112.5 60.699,112 
	62.449,111.549 64.3,111.15 66.399,110.799 68.1,110.45 69.649,110.2 71.05,109.95 72.35,109.799 71.6,109.45 70.75,109.299 
	69.8,109.15 68.75,109.15 67.6,109.2 66.35,109.35 65,109.549 63.6,109.9 61.899,110.299 60.399,110.799 59.05,111.299 57.85,111.9 
	56.75,112.5 55.85,113.2 55.1,113.9 54.55,114.75 "/>
<polygon fill-rule="evenodd" fill="#CB6928" points="63.699,99.85 62.1,99.95 60.649,100.15 59.199,100.4 57.899,100.75 56.6,101.1 
	55.399,101.549 54.25,102 53.25,102.549 52.35,102.95 51.5,103.5 50.6,104.1 49.75,104.799 47.949,106.35 47.05,107.2 46.199,108.2 
	48.05,106.95 49.949,105.9 51.85,104.95 53.8,104.15 55.699,103.45 57.649,102.95 59.649,102.549 61.649,102.299 63.5,102.1 
	65.35,102.049 67,102 68.649,102.1 70.1,102.2 71.5,102.45 72.75,102.75 73.899,103.2 74.949,103.6 75.899,104 76.75,104.4 
	77.6,104.85 77.699,104.799 77.85,104.799 77.949,104.75 78.1,104.75 78.3,104.65 78.5,104.6 78.6,104.45 78.699,104.299 
	78.75,104.1 78.75,104 78.75,103.95 78.8,103.95 78.699,103.35 78.5,102.799 78.1,102.299 77.6,101.85 76.899,101.4 76.1,101 
	75.149,100.65 74.1,100.35 72.899,100.049 71.75,99.85 70.5,99.7 69.25,99.65 67.899,99.6 66.55,99.65 65.1,99.7 63.699,99.85 "/>
<polygon fill-rule="evenodd" fill="#010101" points="72.6,113.75 71.3,113.1 70.05,112.65 68.75,112.299 67.55,112.2 66.25,112.2 
	64.949,112.4 63.649,112.7 62.399,113.25 61.149,113.85 60,114.6 58.949,115.45 58,116.4 57.149,117.35 56.399,118.5 55.75,119.7 
	55.3,121.049 55.949,120.549 56.649,120.1 58.6,118.65 60.75,117.5 61.85,117 63.05,116.65 65.5,116.2 67.149,116.25 
	67.949,116.299 68.8,116.45 70.399,116.75 72,117.2 73.5,117.75 75,118.45 76.449,119.299 77.949,120.299 77.5,119.2 77,118.25 
	76.449,117.299 75.85,116.5 75.1,115.7 74.35,115 73.5,114.299 72.6,113.75 "/>
<path fill-rule="evenodd" fill="#010101" d="M62.8,127.7l-2.55-1.15l-1.75-0.799l-1.65-0.601l-1.65-0.45l-1.55-0.25l-1.55-0.05
	l-0.7,0.149l-0.6,0.25l-1.15,0.75l-0.5,0.551l-0.45,0.65L49,127.1l2-1.551l0.5-0.25H52l0.5,0.101l0.55,0.351l0.5,0.449l0.6,0.7
	l0.55,0.851l0.601,1.1l1.1,2.35l1.101,2.75l0.5,1.45l0.5,1.55l0.5,1.6l0.55,1.75l0.45,1.65l0.55,1.7L61.8,147l0.649,1.6l0.75,1.6
	l0.75,1.551l0.851,1.6l0.8,1.449l0.9,1.351l0.899,1.25l0.95,1.25l0.95,1.05l1,0.95l1.05,0.851l1.1,0.85L73.5,163l1.25,0.6l1.35,0.55
	l1.45,0.55l1.55,0.4l1.7,0.4l1.8,0.299l1.95,0.301l1.899,0.15l1.9,0.149h0.9h0.449l0.5,0.05h1.851l1.75-0.1l1.75-0.1l1.7-0.201
	L99,165.85l0.75-0.2l0.8-0.149l0.75-0.201l0.8-0.149l0.7-0.25l0.75-0.2l0.3-0.15l0.35-0.1l0.7-0.199l0.601-0.301l0.3-0.15l0.35-0.1
	l0.55-0.3l0.601-0.25l1.05-0.601l1.05-0.6l0.851-0.699l0.8-0.701l0.75-0.699l0.7-0.6l1.1-1.301l0.45-0.6l0.399-0.551l0.301-0.699
	l0.3-0.801l0.3-0.949l0.05-0.301l0.101-0.25l0.199-0.5l0.301-1.25l0.3-1.299l0.3-1.5l0.15-0.801l0.199-0.75l0.5-3.449l0.601-3.601
	l0.25-1.899l0.3-1.851l0.6-3.899l0.25-1.951l0.45-1.6l0.45-1.4L121,127l0.649-0.851l0.75-0.55l0.851-0.301h0.949h0.5l0.45,0.101
	l0.4,0.101l0.35,0.149l-0.45-0.75L125,124.35l-0.5-0.4l-0.5-0.199l-0.601-0.101h-0.3l-0.25,0.101l-0.65,0.25l-0.6,0.449L120.75,125
	l-0.9,0.6l-0.95,0.6l-1,0.7l-2.2,1.45l-1.199,0.75l-1.2,0.85l-0.7,0.35l-0.75,0.4L111,131l-0.9,0.399l-1,0.3l-0.3,0.051l-0.25,0.1
	l-0.5,0.199l-1.101,0.301l-1.149,0.3l-1.3,0.2l-1.351,0.3l-1.45,0.2l-1.5,0.3l-1.6,0.2l-1.65,0.199l-1.699,0.201l-1.75,0.199h-0.45
	l-0.4,0.051l-0.8,0.1l-1.6,0.05l-1.7-0.05l-1.7-0.15l-1.8-0.25l-1.8-0.3l-1.9-0.45l-0.5-0.15l-0.45-0.1L79.5,133l-1.95-0.551
	l-1.75-0.5l-1.65-0.5l-1.5-0.449l-1.45-0.451l-1.3-0.399l-1.149-0.351l-1.051-0.299l-2.55-0.9L62.8,127.7L62.8,127.7z M60.5,132.65
	l-1.75-5.101l1.85,0.601l1.7,0.601l0.35,0.1l0.4,0.15l0.75,0.299l1.35,0.5l1.101,0.4l0.5,0.15l0.5,0.199L68,130.85l0.3,0.1l0.3,0.15
	l2.4,0.949l2.399,0.851l2.3,0.75l1.15,0.3l1.2,0.35l1.1,0.25l0.55,0.101l0.601,0.149l1.1,0.201l0.55,0.1l0.601,0.15l0.5,0.049
	l0.55,0.101l1.1,0.149l1.051,0.101l1.1,0.149h0.95l1,0.051l1.899,0.1h0.851h0.399h0.2h0.101L92.399,136h0.8L94,136.049L94.699,136
	h0.7h1.3l0.101-0.051h0.149h0.301h0.55h1.05l0.4-0.1l0.199-0.051h0.25l0.9-0.1l0.8-0.15l0.851-0.1l1.6-0.3l0.75-0.2l0.8-0.15
	l-0.899,0.451l-0.45,0.199l-0.4,0.25l-0.899,0.4l-0.45,0.199l-0.4,0.25l-0.5,0.15l-0.45,0.2l-0.899,0.351l-1,0.299l-0.5,0.15
	l-0.45,0.2l-1.05,0.2l-1,0.25l-2.101,0.4l-2.199,0.199h-0.601h-0.3h-0.15L90.6,139l-1.1,0.1l-0.2-0.051h-0.15h-0.3h-0.6L86.949,139
	L86.25,138.9l-0.2-0.05h-0.15h-0.3l-0.75-0.1l-0.7-0.051l-0.8-0.15l-0.75-0.1L81,138.2l-1.7-0.3l-0.9-0.2l-0.45-0.1l-0.399-0.051
	l-1.9-0.449l-1.95-0.5l-2-0.551l-1.05-0.299l-1-0.25l-2.2-0.65l-2.25-0.7L64,133.75l-0.601-0.201l-0.3-0.1l-0.25-0.05l-1.2-0.399
	l-0.6-0.201l-0.3-0.1L60.5,132.65L60.5,132.65z"/>
<polygon fill-rule="evenodd" fill="#FFFFFF" points="58.75,127.549 60.5,132.65 60.75,132.7 61.05,132.799 61.649,133 62.85,133.4 
	63.1,133.45 63.399,133.549 64,133.75 65.199,134.15 67.449,134.85 69.649,135.5 70.649,135.75 71.699,136.049 73.699,136.6 
	75.649,137.1 77.55,137.549 77.949,137.6 78.399,137.7 79.3,137.9 81,138.2 82.6,138.45 83.35,138.549 84.149,138.7 84.85,138.75 
	85.6,138.85 85.899,138.85 86.05,138.85 86.25,138.9 86.949,139 88.25,139.049 88.85,139.049 89.149,139.049 89.3,139.049 
	89.5,139.1 90.6,139 90.699,138.95 90.85,138.95 91.149,138.95 91.75,138.95 93.949,138.75 96.05,138.35 97.05,138.1 98.1,137.9 
	98.55,137.7 99.05,137.549 100.05,137.25 100.949,136.9 101.399,136.7 101.899,136.549 102.3,136.299 102.75,136.1 103.649,135.7 
	104.05,135.45 104.5,135.25 105.399,134.799 104.6,134.95 103.85,135.15 102.25,135.45 101.399,135.549 100.6,135.7 99.699,135.799 
	99.449,135.799 99.25,135.85 98.85,135.95 97.8,135.95 97.25,135.95 96.949,135.95 96.8,135.95 96.699,136 95.399,136 94.699,136 
	94,136.049 93.199,136 92.399,136 92.25,135.95 92.149,135.95 91.949,135.95 91.55,135.95 90.699,135.95 88.8,135.85 87.8,135.799 
	86.85,135.799 85.75,135.65 84.699,135.549 83.6,135.4 83.05,135.299 82.55,135.25 81.949,135.1 81.399,135 80.3,134.799 
	79.699,134.65 79.149,134.549 78.05,134.299 76.85,133.95 75.699,133.65 73.399,132.9 71,132.049 68.6,131.1 68.3,130.95 68,130.85 
	67.25,130.549 66.75,130.35 66.25,130.2 65.149,129.799 63.8,129.299 63.05,129 62.649,128.85 62.3,128.75 60.6,128.15 
	58.75,127.549 "/>
</svg>
