<?xml version="1.0" encoding="utf-8"?>
<!-- Generator: Adobe Illustrator 13.0.0, SVG Export Plug-In . SVG Version: 6.00 Build 14948)  -->
<svg version="1.2" baseProfile="tiny" id="Layer_1" xmlns="http://www.w3.org/2000/svg" xmlns:xlink="http://www.w3.org/1999/xlink"
	 x="0px" y="0px" width="176.95px" height="171.399px" viewBox="0 0 176.95 171.399" xml:space="preserve">
<path fill-rule="evenodd" fill="#F8981D" d="M60.4,17.15l-1.75,0.1l-1.5,0.1l-1.3,0.1l-1,0.1H54l-0.6,0.1H53l-0.1,0.1l-0.6,0.15
	l-2.95,0.75l-2.75,0.9l-2.65,0.9l-2.5,1.05l-2.4,1.05l-2.25,1.2L34.7,25l-1.95,1.35l-1.55,1l-1.4,1.05l-1.4,1l-1.25,1l-1.25,0.9
	l-1.15,0.95l-1.1,0.9l-0.95,0.9l-1,0.8l-0.85,0.8l-0.8,0.75l-0.7,0.8l-0.7,0.65l-0.55,0.7l-0.5,0.65l-0.4,0.65l-1.35,1.9L14.6,43.7
	l-2.3,3.8l-2.2,3.7l-1.9,3.7l-0.95,1.75l-0.85,1.8L5.6,60.2L4.9,62l-0.75,1.7l-0.6,1.75l-1.1,3.399L3.5,67.7l1.05-1l0.95-0.95
	l0.9-0.851l0.8-0.85l0.75-0.75l0.65-0.7l0.65-0.55L9.7,61.5l0.65-0.6l0.75-0.75l0.45-0.4l0.55-0.4l0.5-0.5l0.6-0.5l0.6-0.55l0.7-0.5
	l0.65-0.6l0.75-0.6l0.75-0.65l0.85-0.6l0.8-0.75l0.9-0.7l0.9-0.8l1-0.75L22.05,51l1.05-0.8l2.25-1.75l2.35-1.95l2.55-1.95l2.65-2.15
	l2.85-2.15l-1.4,1.2l-2.45,2.3l-2.3,2.4l-2.15,2.4L25.5,51.1l-0.35,0.45L24.8,52.1l-0.45,0.65l-0.45,0.8l-0.55,0.8l-0.6,0.95
	l-0.65,1l-0.65,1.15l-0.8,1.15l-0.8,1.3l-0.9,1.35l-0.9,1.5l-1,1.5L16,65.899l-1.1,1.7l-1.1,1.851l-2.25,3.699L10.5,75l-0.85,1.899
	L8,80.7L6.75,84.6L5.7,88.5l-0.65,3.95l-0.25,2l-0.15,2l-0.05,4.1l0.05,3.95l0.25,3.8l0.25,3.65l0.45,3.55l0.45,3.35l0.55,3.2
	l0.65,3.05l0.8,2.95l0.7,2.7l0.35,1.3l0.4,1.3l0.7,2.4l0.7,2.3l0.6,2.1l0.6,2l0.25,0.9l0.3,0.9l0.6,1.75l0.05-0.5l0.2-0.7l0.2-0.9
	l0.35-1.1l0.15-0.65l0.2-0.7l0.55-1.5l0.55-1.8l0.7-1.899l0.95,1.35l1,1.45l1,1.5l1.1,1.649l1.05,1.65l1.15,1.8l2.35,3.851v0.05
	l0.1,0.149l0.15,0.25l0.25,0.45l0.25,0.45l0.35,0.55l0.35,0.65l0.5,0.85l0.45,0.851l0.6,0.949l0.6,1.051l0.7,1.25l0.7,1.25
	l0.85,1.35l0.85,1.45l0.95,1.649V161.5v-0.95l-0.1-1.15l-0.05-0.6v-0.6l-0.1-0.7l-0.05-0.7l-0.1-0.75l-0.05-0.7l-0.1-0.45
	l-0.05-0.399l-0.1-0.8l-0.2-1.7l-0.2-0.95l-0.15-1L31,149l-0.1-0.55l-0.05-0.5l-0.15-0.601l-0.1-0.55l-0.2-1.15l-0.1-0.35l-0.05-0.3
	l-0.1-0.601l-0.2-1.25l-0.3-1.35l-0.25-1.4l-0.3-1.449l-0.1-0.4l-0.05-0.2V138.2l-0.1-0.7l-0.6-3.101l-0.6-3.3l-0.45-1.7l-0.25-1.6
	l-0.25-1.55l-0.1-1.45l-0.1-1.45l0.05-1.35l0.05-1.3l0.25-1.2l0.15-1.101l0.15-1.1v-0.6v-0.301v-0.149l0.05-0.101L27.3,115v-1.05
	v-1.051l-0.25-1.75L27,109.45V109l-0.1-0.65l-0.05-0.6L26.6,106l-0.05-1.55l-0.05-1.551l0.15-1.399l0.15-1.4l0.3-1.25l0.35-1.2
	l0.5-1.05L28.4,95.7l0.25,1L28.5,97.1l-0.05,0.45L28.4,99.7l-0.15,3.05v1l0.25,7.35l0.15,2.55l0.25,2.7l0.25,2.75l0.35,2.95l0.2,2.2
	l0.3,2.149l-0.15,0.551l-0.05,0.6l-0.05,0.6l0.45,3.801l0.05,0.75l-0.1,1.699l0.05,1.5v0.65l0.05,0.6l0.2,1.101l0.1,0.35l0.2,0.601
	l0.35,0.449v0.301v0.149l0.05,0.2l0.1,0.7l0.2,1.2l0.2,1l0.2,0.899l0.05,0.3L32,144.7l0.2,0.5l0.2,0.3l0.2,0.1l0.3-0.05l0.25-0.1
	l0.2-0.2l0.15-0.2V145v-0.2l0.05-0.2v-0.25l0.05-0.3l-0.05-0.1v-0.051v-0.1v-0.25l-0.05-0.3v-0.3l-0.1-0.801l-0.05-0.5v-0.5v-0.1
	v-0.15v-0.1v-0.15l-0.1-0.35v-0.35l-0.05-0.101v-0.05v-0.1v-0.2v-0.55l-0.1-0.65l-0.05-0.7l-0.1-0.8v-0.85l-0.1-1l-0.1-1.051
	l-0.1-1.149l-0.1-1.15l-0.1-0.7L32.4,130.7v-0.15v-0.3l-0.1-1.351l-0.1-1.449l-0.1-1.5l-0.3-3.301l-0.25-3.149l-0.25-3l-0.15-2.8
	l-0.3-9.65l0.1,0.3v0.05L31,104.5l0.1,0.2l0.3,0.649l0.25,0.5l0.3,0.45l0.2,0.35l0.1,0.101l0.05,0.05l0.1,0.1l0.2,0.15h0.1h0.05
	l0.1,0.05l0.6-1.45l0.75-1.449l0.3-0.801l0.35-0.649l0.7-1.101l0.3-0.5l0.35-0.399l0.3-0.351l0.35-0.199l-0.05,0.25l0.1,0.35
	l0.1,0.45l0.25,0.6l0.25,0.65l0.35,0.85l0.4,0.9l0.55,1.05l0.1-0.3l0.25-0.351l0.3-0.55l0.4-0.6l0.4-0.8l0.55-0.851l0.55-1.05
	l0.7-1.1l0.4-0.801l0.15-0.35l0.2-0.25l0.5,0.7l0.6,1l0.6,1.149l0.75,1.4l0.3,0.65L46,102.35l0.25-0.45l0.35-0.399l0.3-0.55l0.4-0.5
	l0.85-1.051l0.95-1.25l1.05-1.3l1.15-1.45l1.35-1.55l0.8,1.7l0.4,0.8l0.2,0.4l0.1,0.2l0.05,0.1l0.1,0.15v0.05l0.05,0.1l0.1,0.2
	l0.2,0.4l0.4,0.8l0.8,1.5l0.4-0.55l0.5-0.551L57.3,98.5l0.7-0.65l0.7-0.8l0.8-0.8l0.85-0.9l1-0.899l0.05,0.199l0.05,0.2l0.15,0.3
	l0.1,0.301l0.2,0.449l0.2,0.45l0.3,0.55l0.15,0.351l0.2,0.55l0.45,1.25L64,98.1l0.85-0.85l1.55-1.55l1.4-1.45L69.05,93l1.05-1.15
	l0.45-0.5l0.5-0.399l0.35-0.45l0.4-0.351l0.3-0.35l0.35-0.25l0.3,0.65l0.4,0.85l0.45,0.85l0.55,1.051l0.5,1.05l0.65,1.149l0.65,1.2
	L76.7,97.7l0.25-0.25l0.35-0.301l0.45-0.449l0.55-0.551l0.6-0.75l0.75-0.75L80.4,93.7l0.95-1l0.7-0.95l0.65-0.8l0.6-0.75l0.55-0.601
	l3.6,7.75L88.7,95.7l1.45-1.601l1.5-1.55l1.65-1.5l0.65,0.9l0.699,0.949l0.65,0.9l0.3,0.45l0.351,0.5l1.149,1.7l0.55,0.8l0.25,0.399
	L98.2,98.1l0.55-0.75l0.649-0.7l0.7-0.8l0.851-0.75l0.8-0.899l0.95-0.851l0.949-0.95l1.101-0.899l5.2,8.95L111.1,99.6l1.101-0.75
	l0.949-0.7l0.9-0.6l0.65-0.6l0.649-0.5L115.8,96l0.4-0.351l2.25,6.15l0.449-0.4l0.551-0.35l0.55-0.45l0.649-0.399L122,99.25
	l0.75-0.5l0.85-0.45l0.25,0.95l0.3,1.149l0.301,1.15l0.149,0.5l0.2,0.5l0.3,0.85v0.051l0.05,0.1l0.101,0.2l0.2,0.399l0.3,0.551
	l0.3,0.399l0.1,0.101l0.051,0.05l0.1,0.1l0.3,0.101l1.15-1.051l1.149-0.899l1-0.851l0.95-0.75l0.25-0.199v0.1v1v0.15v0.35v0.45
	l0.101,0.649v0.75l0.1,0.9l0.1,1.05l0.15,1.2l0.6-0.35l0.75-0.301l0.801-0.399l0.899-0.351l0.9-0.449l1.05-0.4l1.05-0.45l1.2-0.399
	l-0.5,0.899l-0.4,0.851l-0.399,0.75l-0.25,0.75l-0.25,0.6l-0.15,0.55l-0.149,0.45v0.4l1.199-0.65l1.15-0.55l2.1-1.05l1.801-0.95
	l0.8-0.4l0.75-0.35l-0.25,3.05l-0.351,3.2L143.45,116l-0.45,3.35l-0.65,3.4l-0.649,3.55l-0.851,3.55l-0.85,3.7l-0.5,1.65l-0.4,1.55
	l-0.35,1.35l-0.3,1.25l0.55-0.2l0.3-0.05l0.7-0.25l0.649-0.1l0.801-0.25l-0.601,1.149l-0.45,1.101l-0.35,0.7l-0.25,0.699l-0.25,0.65
	l-0.15,0.65l-0.199,0.6l-0.101,0.55l-0.1,0.5v0.45v0.35l0.1,0.351l0.15,0.25l0.25,0.2l0.25,0.1l0.35,0.05l0.101-0.1l0.199-0.3
	l0.25-0.45l0.351-0.601l0.35-0.8l0.45-0.95l0.45-1.149l0.6-1.3l0.25-0.851l0.3-0.75l0.25-0.7l0.301-0.6l0.399-1.1l0.15-0.5
	l0.2-0.351l0.399-0.399l0.351-0.351l0.3-0.35l0.3-0.25l0.15-0.3l0.149-0.2l0.101-0.2l0.05-0.15l-0.05-0.3l-0.051-0.149l0.301-0.351
	l0.1-0.1l0.05-0.101l-0.1-0.449l-0.101-0.2l-0.1-0.101l-0.4-0.149l-0.449-0.05l-0.75,0.25l-0.601,0.199l-0.45,0.15l-0.35,0.15
	l0.2-0.75l0.25-0.801l0.25-0.85l0.3-0.95l0.25-1.05l0.3-1.15l0.3-1.25l0.301-1.25l0.199-1.35l0.25-1.2l0.2-1.149l0.2-1.051l0.15-1
	l0.199-0.85l0.101-0.85l0.2-0.65l0.1-0.65l0.1-0.55l0.2-0.85l0.101-0.55v-0.15h0.05l-0.05-1.55v-1.4l-0.101-1.35l-0.05-1.15
	l-0.1-1.149l-0.101-0.95l-0.1-0.5l-0.05-0.4l-0.101-0.75l0.2-0.2l0.15-0.149l0.1-0.15l0.05-0.1l-0.1-0.3l-0.101-0.15l-0.05-0.1
	l-0.2-0.2L147,103.399l-0.15-0.35l-0.149-0.2l-0.25-0.149l-0.351-0.051l-0.5-0.3l-0.5,0.05l-0.05,0.25l-1.3,0.2l-1.25,0.5
	l-0.95,0.351l-0.85,0.35l-0.801,0.25l-0.699,0.15v-0.75l0.05-0.601v-0.6l0.05-0.5l0.15-0.351l0.199-0.25L140,100.95l0.149-0.351
	l0.051-0.149l0.05-0.051l-0.05-0.1v-0.05l-0.101-0.15l0.25-0.35l0.05-0.101h0.051L140.35,99l-0.1-0.25l-0.101-0.15l-0.199-0.2
	l-0.15-0.1l-0.45-0.05h-0.2l-0.199,0.1l-0.301,0.101l-0.25,0.199l-0.35,0.2l-0.35,0.3l-0.45,0.351l-0.4,0.45l-0.649,0.5l-0.5,0.449
	l-0.5,0.4l-0.351,0.35l-0.35,0.25l-0.15,0.2L134.2,102.2v0.1v-0.25l0.199-0.4l0.2-0.449l0.15-0.551l0.149-0.399l0.051-0.4L135,99.6
	v-0.25l0.05-0.25l0.05-0.149l-0.05-0.301l-0.1-0.25l-0.2-0.199L134.5,98.1l-0.2-0.35l-0.25-0.25l-0.35-0.15h-0.351L132.5,97.7
	l-0.15-0.301l1.45-0.699l1.35-0.601l1.2-0.6l1.101-0.601l-1.75,5.4l0.55-0.7l0.6-0.6l1.101-1.05l0.449-0.5l0.5-0.4l0.4-0.4l0.45-0.3
	L140.1,96l0.351-0.25l0.3-0.2l0.35-0.1l0.25-0.15l0.25-0.05l0.45,0.05l0.25,0.15l0.1,0.149l0.101,0.25l0.05,0.55v0.351v0.45
	l-0.1,0.399l-0.101,0.5l-0.25,1.15l-0.2,0.6l-0.199,0.7l-0.25,0.7l-0.2,0.8l2-0.4l1.8-0.3l1.6-0.3l1.45-0.25l0.2,1.3l0.3,1.5
	l0.2,1.601l0.3,1.8l0.05,0.95v0.5l0.051,0.6l-0.051,0.55v0.65l-0.05,1.35l-0.149,1.45l-0.101,0.75l-0.05,0.85l-0.2,1.7l-0.2,1.851
	l-0.35,1.8l-0.2,0.899l-0.1,0.45l-0.05,0.5l-0.45,1.8l-0.5,1.801l-0.601,1.699l-0.6,1.75l-0.7,1.7l-0.7,1.7l1.75-1.65l1.7-1.55
	l1.65-1.45l1.649-1.25l-0.25,0.5l-0.199,0.601l-0.45,1.25l-0.5,1.35l-0.55,1.55l-0.65,1.551l-0.7,1.75l-0.75,1.85l-0.75,1.95
	l-0.899,2.05l-0.9,2.15l-0.5,1.1l-0.45,1.2l-0.95,2.45l-1.1,2.5l-1.1,2.649l-1.15,2.75l-1.2,2.9l0.25-0.9l-0.2,0.55l-0.149,0.5
	l-0.15,0.4l-0.05,0.35l1.65-2.149l1.6-2l1.5-1.9l1.45-1.75l1.3-1.649l1.25-1.551l1.15-1.449l1.1-1.25l0.95-1.25l0.899-1.101
	l0.801-0.95l0.75-0.85l0.649-0.75l0.55-0.65l0.45-0.55l0.4-0.35l0.2,0.3l-1.051,13l0.2-0.2l0.25-0.25l0.3-0.399l0.351-0.45
	l0.35-0.65l0.4-0.7l0.45-0.85l0.5-0.85l0.5-1.101l0.55-1.149l0.6-1.25l0.65-1.351l0.649-1.55l0.7-1.55l0.75-1.75l0.8-1.75l0.7-1.9
	l0.7-1.8l1.3-3.45l0.5-1.7l0.5-1.6l0.45-1.6l0.45-1.5l0.3-1.551l0.3-1.449l0.25-1.4l0.2-1.3l0.1-1.351l0.101-1.25l0.1-2.35
	l-0.149-2.4l-0.25-2.399l-0.2-1.25l-0.15-1.2l-0.2-1.25l-0.149-1.2l-0.55-2.6l-0.551-2.601L164.7,96.95L164.6,96.6l-0.05-0.3
	l-0.3-1.3l-0.75-2.7l0.35,0.1l0.4,0.15l0.75,0.3l0.7,0.25l0.649,0.3l0.55,0.2l0.25,0.101l0.301,0.149l1,0.4l0.35,0.1h0.05
	l0.101,0.05l0.199,0.101l0.301,0.1l0.25,0.101h0.05l0.1,0.05l0.15,0.1l0.2,0.101l0.699,0.149l0.65,0.2l1.2,0.4l0.5,0.1l0.45,0.2
	l0.399,0.2l0.351,0.199l-0.5-2.699l-0.4-2.45l-0.4-2.351l-0.35-2.1l-0.4-2.05l-0.3-1.8l-0.3-1.7l-0.25-1.5L171,77.2l-0.55-2.45
	l-0.601-2.351L169.3,70.2l-0.65-2.2l-0.6-2.05l-0.7-1.95l-0.649-1.851l-0.95-2.299l-0.95-2.2l-1.05-2.15l-1-2l-1.15-2l-1.1-1.85
	l-1.2-1.85l-1.15-1.7l-1.3-1.75l-1.3-1.6l-1.4-1.55l-1.35-1.4l-1.45-1.4l-1.45-1.3l-1.55-1.25l-1.5-1.1l-1-0.7l-1.05-0.7l-1.25-0.8
	l-1.25-0.8l-1.45-0.9l-1.5-0.9l-1.649-1l-1.75-1l-0.75-0.45l0.649-0.1l0.851-0.05l0.85-0.05l1,0.05l2.15,0.15l1.149,0.1l1.351,0.2
	l1.3,0.15l1.45,0.25l1.449,0.25l1.65,0.3l1.65,0.3l1.75,0.35l1.8,0.35l1.95,0.45l-2-2.25l-1.051-1.05l-1.1-1l-1.2-1l-1.2-0.9
	l-2.6-1.75l-2.9-1.65l-1.5-0.75l-1.55-0.7l-1.649-0.7l-1.65-0.6l-1.7-0.6l-1.75-0.55l-3.649-1.05L127.1,14.7l-3.6-0.8l-3.55-0.65
	l-3.601-0.55l-3.5-0.4l-3.5-0.3l-3.45-0.15l-2.8-0.1l-2.6-0.1l-2.351-0.1l-1.1-0.05h-1l-1.9-0.1l-1.699-0.1l-1.5-0.1l-1.2-0.1
	l-0.3-0.4l-0.2-0.4l-0.2-0.45l-0.1-0.4L88.8,8.9l-0.05-0.5L88.7,7.85l0.05-0.55l0.05-1.15l0.15-1.05l0.25-0.95l0.45-0.8L89.75,3
	V2.85L89.8,2.8l-0.15-0.05H89.5l-0.1,0.1L89.15,2.9l-0.2,0.15L88.7,3.2l-0.25,0.25l-0.35,0.2l-0.35,0.3l-0.4,0.3l-0.4,0.4l-0.8,0.6
	L85.4,6l-0.8,0.85l-0.7,1L83.1,8.9l-0.7,1.25l-0.8,1.35l-0.7,1.45l-1.65-0.7l-1.55-0.6l-1.45-0.7l-1.35-0.6L72.8,9.4l-2.1-0.65
	L68.6,8.3l-2.1-0.15l0.3,0.5l0.45,0.7l0.45,0.85l0.6,1.1l0.6,1.2l0.7,1.4l0.75,1.55l0.85,1.75l-1-0.15l-1.05-0.1l-1.2-0.1H66.7
	h-1.45l-1.5,0.05L62.1,17L60.4,17.15L60.4,17.15z M143.3,50.1l0.4,0.25v0.05L143.3,50.1L143.3,50.1z M127,90.649l0.2,0.601
	l0.199,0.8l0.301,1.9l0.05,0.899l0.1,0.95v0.85v0.9l-0.1,0.8l-0.05,0.4v0.45l1.899-0.75l1.851-0.65l-0.101,0.35l-4.25,1.7l-0.3-1.1
	l-0.25-0.95l0.1-0.1l0.15-0.101l0.1-0.2l0.051-0.1l0.1-0.05l0.05-0.3l0.101-0.25V96.35l0.05-0.3l-0.101-0.7l-0.1-0.35l-0.1-0.3
	l-0.2-0.4l-0.101-0.2L126.6,94v-0.05l-0.45-0.7L125.7,92.7l-0.351-0.2l-0.25,0.05l-0.05,0.35h-0.2l-0.35,0.051L124.3,93l-0.2,0.149
	l-0.55,0.351l-0.6,0.55L122.85,94v0.149l-0.3,0.25L121.6,95.2l-0.399,0.35l-0.301,0.35l-0.35,0.25l-0.25,0.25l-0.35,0.351
	l-0.301-0.351L119.5,96.2l-0.101-0.15l-0.5-0.75l-0.6-0.85l-0.5-0.95l0.35-0.601l0.4-0.5l0.3-0.449l0.3-0.351l1.051,2.5l2-1.05
	l0.899-0.5l0.9-0.4l1.6-0.85L127,90.649L127,90.649z M116,91.05L115.85,91l-0.3,0.05l-0.25,0.15l-0.2-0.101l-0.149,0.05l-0.101,0.15
	v0.3l-0.45,0.45L114,92.7l-0.5,0.75l-0.25,0.399l-0.2,0.5l-0.45,0.45l-0.35,0.45l-0.55,0.7l-0.45,0.5l-0.15,0.199L111,96.8
	l-0.851-1.3l-0.75-1.15L108.7,93.3l-0.65-0.95l-0.65-0.85l-0.55-0.75l-0.5-0.65l-0.399-0.55l0.75-1.3l0.85-1.351l0.3,0.95l0.4,0.851
	l2.45,5.399l0.55-0.45l0.649-0.55l0.7-0.649l0.851-0.7l0.85-0.851l1-0.949l1.05-1.051l1.15-1.1l0.75,1.8l-0.55,0.45l-0.301,0.3
	l-0.25,0.4l-0.3-0.101h-0.25h-0.149l-0.101,0.101l-0.2,0.1L116,91.05L116,91.05z M93.7,83.85l0.35,0.65l1.1,1.75l0.551,0.8l0.6,0.85
	l0.5,0.75l0.55,0.801l1.101,1.449l0.55-0.5l0.3-0.3l0.4-0.25l0.85-0.7l0.95-0.8l1.05-1l0.55-0.55l0.65-0.5l1.35-1.2l1.45-1.25
	l0.3,1.05l0.15,0.5l0.2,0.551l-1.5,0.75l-1.4,1.149l-0.35-0.2l-0.2,0.101l-0.15,0.3v0.5l-0.399,0.3l-0.351,0.4L102,90.2l-2.05,2.199
	L98.1,94.7l-0.85-1.65l-0.65-1.4L96.05,90.5l-0.45-0.851l-0.55-0.8l-0.35-0.8l0.1-0.3l0.1-0.2l0.051-0.15L95,87.35l-0.05-0.399
	L94.85,86.7L94.7,86.399l-0.2-0.149l-0.3-0.15H93.85l-0.3,0.15l-0.4-0.3l-0.3-0.101l-0.35,0.05l-0.2,0.15l-0.1,0.15L92.1,86.35
	l0.05,0.25L92,86.75L91.899,87l-0.05,0.75l0.101,0.2L91.6,88.3l-0.3,0.45l-0.35,0.5l-0.301,0.6L90,90.75l-0.65,1.05l-0.7,1.1
	l-0.7,1.2L87.3,92.7l-0.5-1.25l-0.5-1.15l-0.35-0.95l-0.25-1l-0.2-0.85l0.4-0.55l0.15-0.25l0.2-0.15l0.15-0.25l0.05-0.1h0.05
	l-0.05-0.301V85.7l-0.1-0.351L86.2,85.1L86,84.95l-0.3-0.051h-0.2L85.35,85l-0.4,0.149L84.5,85.5l-0.1-0.101l-0.35-0.449l-0.3-0.25
	L83.5,84.6l-0.15,0.05l-0.2,0.15l-0.1,0.35L83,85.6v0.65l0.1,0.35l-0.45,0.351l-0.6,0.449l-0.65,0.65l-0.7,0.65l-0.75,0.8l-0.85,0.8
	l-0.85,0.95L77.3,92.2l-0.95,1.1l-0.1-0.1L76.2,93.1l-0.1-0.25l-0.1-0.2l-0.05-0.199L75.85,92l-0.1-0.2l-0.05-0.1v-0.051l-0.1-0.3
	l-0.2-0.7l-0.1-0.25L75.25,90.2l-0.1-0.4l-0.1-0.25L75,89.35l-0.1-0.45l-0.25-0.649l-0.2-0.55l-0.4-0.851l0.5-0.649l0.4-0.45
	l0.2-0.351l0.05-0.1h0.05l-0.05-0.55l-0.15-0.351L74.9,84.25l-0.1-0.05l-0.3-0.051L74.05,84.2l-0.25,0.05l-0.2,0.149L73,84.75
	l-0.65,0.55L72,85.6l-1,0.851l-0.7,0.699L69.7,87.7l-0.25,0.199l-2.1,2.2l-1.8,2.3l-0.3,0.4l-0.65,0.95l-0.1-0.15v-0.25l-0.1-0.399
	V92.5l-0.2-1.851l-0.2-1.5l-0.05-0.5l0.15-0.25h0.05l0.2-0.55l0.25-0.45l0.4-0.75L65.25,86l0.1-0.25l0.1-0.15L66.2,90.2l0.85-1
	l1.05-1l1.15-1.101l1.25-1.149l0.85-0.851l0.8-0.7l0.75-0.649l0.7-0.5l0.6-0.5l0.55-0.351l0.5-0.3l0.45-0.149v0.449L75.8,83
	l0.1,0.75l0.2,0.95l0.2,1.05l0.3,1.2l0.35,1.35l0.45,1.5l0.45-0.6l0.25-0.351l0.35-0.3l0.75-0.85l0.4-0.5l0.5-0.45l0.95-1.15
	l1.15-1.2L83.45,83l0.65-0.75l0.75-0.7l3.8,8.3l0.7-0.899l0.7-0.801l1.35-1.55l1.2-1.45l0.55-0.699L93.7,83.85L93.7,83.85z
	 M148.75,83.399l-0.2,0.351l-0.1,0.35l0.05-0.399l0.1-0.351L148.75,83.399L148.75,83.399z M45.85,96.399l-0.2-0.55l-0.15-0.45
	l-0.3-0.8L45,94.2l-0.15-0.25l-0.1-0.4l-0.05-0.3L44.6,93l-0.1-0.15l-0.15-0.3l-0.1-0.15l-0.2-0.1l-0.15,0.05l-0.25,0.05l-0.2,0.2
	l-0.3,0.25l-0.25,0.4l-0.25,0.05l-0.15,0.15l-0.1,0.449l-0.05,0.051l-0.5,0.449l-0.5,0.551L40.6,95.8l-0.8,1.1l-0.35,0.5l-0.6,0.851
	L38.6,97.5l-0.2-0.601l-0.2-0.449l0.05-0.101V96.2l-0.1-0.65l-0.1-0.25l-0.1-0.15l-0.2-0.199l-0.2-0.101L37.1,94.8l-0.3,0.15
	l-0.7-0.15h-0.35l-0.25,0.15l-0.15,0.1l-0.15,0.4v0.3l0.1,0.3v0.05l0.05,0.101l0.1,0.199l-0.6,0.851l-0.5,0.649l-0.45,0.75
	l-0.55,0.801l-0.5,0.899l-0.45-0.95l-0.35-0.8l-0.35-0.75L31.4,97.2v-0.5v-0.25l0.05-0.2l0.05-1V95l0.15-0.3l0.15-0.2l0.25,0.8
	l0.35,0.95l0.35,1.05l0.45,1.2l0.85-2l1-1.65l1-1.45l1.15-1.1l0.5,0.6l0.55,0.7l1,1.45l0.25,0.45l0.1-0.3l0.2-0.25L40,94.6
	l0.35-0.35l0.3-0.45l0.4-0.45l0.45-0.5l0.55-0.5l0.65-0.8l0.85-0.85l0.85-0.95l1-1l0.3,1.2L46,91l0.2,0.899l0.1,0.4l0.15,0.4
	l1.15-1.45L48.65,90l0.95-1.15l0.45-0.55l0.5-0.45l0.75-0.95l0.35-0.449l0.4-0.351l0.6-0.649l0.25-0.301l0.3-0.199l0.35,0.8
	l0.55,1.1l0.55,1.351l0.7,1.649l0.05-0.2l0.1-0.1V89.5l0.05,0.05H55.5v0.1L55.4,90l0.75,1.95L56.2,92.1l0.5,1.4l0.9-1.15l0.9-1
	l0.85-1l0.85-0.899l-0.6,1l-0.55,0.949L58.5,92.25l-0.5,0.8l-0.5,0.7l-0.45,0.649l-0.4,0.551L56.3,95.5l-0.1,0.149L55.45,93.7
	l-0.35-0.9l-0.25-0.55l-0.3-0.7V91.5h-0.2l-0.2-0.101L54,91.2l-0.1-0.15l-0.3-0.5l0.1,0.15l0.15,0.199L53.95,91L54,91.05l0.1,0.1
	l0.05,0.051l0.1,0.05V91.2h0.05h0.1l-0.3-0.65l-0.25-0.45l-0.25-0.45l-0.2-0.25L53.55,89l0.15-0.3l0.1-0.25l0.05-0.101l-0.05-0.45
	v-0.35l-0.1-0.35l-0.05-0.25l-0.2-0.4l-0.15-0.1h-0.1h-0.4l-0.45,0.25l-0.5,0.399l-0.3,0.3l-0.25,0.4l-0.65,0.65l-0.6,0.8
	l-0.35,0.399l-0.3,0.5L48.8,91.2l-0.4,0.5l-0.35,0.6l-0.7,1.25l-0.75,1.35l-0.4,0.7L45.85,96.399L45.85,96.399z M28.65,95.1
	l0.05,0.05l-0.1,0.101L28.65,95.1L28.65,95.1z M30.95,92.6l-0.4-0.149H30.1h-0.15l0.1-0.301l0.15-0.199l0.2-0.301l0.1,0.2
	l0.05,0.101l0.1,0.149L30.95,92.6L30.95,92.6z M65.15,83.899l0.1,0.75L65.1,84.5L65,84.45l-0.35-0.051L65.15,83.899L65.15,83.899z"
	/>
<polygon fill-rule="evenodd" fill="#FFCD05" points="63.95,88.649 64,89.149 64.2,90.649 64.4,92.5 64.4,92.95 64.5,93.35 
	64.5,93.6 64.6,93.75 65.25,92.8 64.6,90.55 64.15,88.399 64.1,88.399 63.95,88.649 "/>
<polygon fill-rule="evenodd" fill="#FFCD05" points="38.85,98.25 39.45,97.399 38.95,97.3 38.6,97.05 38.4,96.899 38.6,97.5 
	38.85,98.25 "/>
<polygon fill-rule="evenodd" fill="#FFCD05" points="54.55,91.5 54.75,90.95 55,90.55 55.2,90.2 55.4,90 55.5,89.649 55.5,89.55 
	55.55,89.55 55.5,89.5 55.5,89.55 55.4,89.649 55.35,89.85 55.15,90.05 54.95,90.35 54.65,90.7 54.4,91.2 54.3,91.2 54.25,91.2 
	54.25,91.25 54.15,91.2 54.1,91.149 54,91.05 53.95,91 53.85,90.899 53.7,90.7 53.6,90.55 53.9,91.05 54,91.2 54.15,91.399 
	54.35,91.5 54.55,91.5 "/>
<path fill-rule="evenodd" fill="#FFCD05" d="M124.149,100.399l-0.3-1.149l-0.25-0.95l-0.85,0.45l-0.75,0.5l-1.351,0.95L120,100.6
	l-0.55,0.45l-0.551,0.35l-0.449,0.4l-2.25-6.15L115.8,96l-0.45,0.45l-0.649,0.5l-0.65,0.6l-0.9,0.6l-0.949,0.7L111.1,99.6
	l-1.149,0.851l-5.2-8.95l-1.101,0.899l-0.949,0.95l-0.95,0.851l-0.8,0.899l-0.851,0.75l-0.7,0.8l-0.649,0.7L98.2,98.1l-0.301-0.45
	l-0.25-0.399l-0.55-0.8l-1.149-1.7l-0.351-0.5l-0.3-0.45l-0.65-0.9L93.95,91.95l-0.65-0.9l-1.65,1.5l-1.5,1.55L88.7,95.7
	l-1.25,1.649l-3.6-7.75L83.3,90.2l-0.6,0.75l-0.65,0.8l-0.7,0.95l-0.95,1l-0.75,0.949l-0.75,0.75l-0.6,0.75L77.75,96.7l-0.45,0.449
	l-0.35,0.301L76.7,97.7l-0.75-1.351l-0.65-1.2L74.65,94l-0.5-1.05l-0.55-1.051l-0.45-0.85l-0.4-0.85l-0.3-0.65L72.1,89.8l-0.3,0.35
	L71.4,90.5l-0.35,0.45l-0.5,0.399l-0.45,0.5L69.05,93l-1.25,1.25l-1.4,1.45l-1.55,1.55L64,98.1l-0.8,0.95l-0.45-1.25l-0.2-0.55
	l-0.15-0.351l-0.3-0.55l-0.2-0.45l-0.2-0.449l-0.1-0.301l-0.15-0.3l-0.05-0.2l-0.05-0.199l-1,0.899l-0.85,0.9l-0.8,0.8l-0.7,0.8
	l-0.7,0.65l-0.55,0.649l-0.5,0.551l-0.4,0.55l-0.8-1.5l-0.4-0.8l-0.2-0.4l-0.1-0.2l-0.05-0.1V97.2l-0.1-0.15l-0.05-0.1l-0.1-0.2
	l-0.2-0.4l-0.4-0.8l-0.8-1.7l-1.35,1.55l-1.15,1.45l-1.05,1.3l-0.95,1.25l-0.85,1.051l-0.4,0.5l-0.3,0.55l-0.35,0.399L46,102.35
	l-0.45,0.851l-0.3-0.65l-0.75-1.4L43.9,100l-0.6-1l-0.5-0.7l-0.2,0.25l-0.15,0.35l-0.4,0.801l-0.7,1.1l-0.55,1.05l-0.55,0.851
	l-0.4,0.8l-0.4,0.6l-0.3,0.55L38.9,105l-0.1,0.3l-0.55-1.05l-0.4-0.9l-0.35-0.85l-0.25-0.65l-0.25-0.6l-0.1-0.45l-0.1-0.35
	l0.05-0.25l-0.35,0.199l-0.3,0.351l-0.35,0.399l-0.3,0.5l-0.7,1.101l-0.35,0.649l-0.3,0.801l-0.75,1.449l-0.6,1.45l-0.1-0.05H32.7
	h-0.1l-0.2-0.15l-0.1-0.1l-0.05-0.05l-0.1-0.101l-0.2-0.35l-0.3-0.45l-0.25-0.5l-0.3-0.649l-0.1-0.2l-0.05-0.101v-0.05l-0.1-0.3
	l0.3,9.65l0.15,2.8l0.25,3l0.25,3.149l0.3,3.301l0.1,1.5l0.1,1.449l0.1,1.351v0.3v0.15l0.05,0.199l0.1,0.7l0.1,1.15l0.1,1.149
	l0.1,1.051l0.1,1v0.85l0.1,0.8l0.05,0.7l0.1,0.65v0.55v0.2v0.1v0.05l0.05,0.101v0.35l0.1,0.35v0.15v0.1v0.15v0.1v0.5l0.05,0.5
	l0.1,0.801v0.3l0.05,0.3v0.25v0.1v0.051l0.05,0.1l-0.05,0.3v0.25l-0.05,0.2v0.2v0.05l3.1,2.35l3.2,2.2l3.2,2.05l3.25,1.95l3.25,1.75
	l3.3,1.601l3.3,1.449l3.35,1.351l3.35,1.1l3.4,1l3.4,0.851l3.5,0.75l3.45,0.5l3.5,0.399l3.55,0.25l3.6,0.101l0.9-0.051h0.95
	l1.9-0.05l3.699-0.25l3.601-0.45l3.6-0.55l3.5-0.8l1.7-0.45l0.4-0.149l0.449-0.101l0.9-0.2l0.8-0.3l0.4-0.149l0.45-0.101l1.699-0.55
	l1.65-0.6l1.7-0.601l3.2-1.45l1.55-0.8l1.6-0.75l1.5-0.899l0.351-0.25l0.399-0.2l0.8-0.4l1.5-0.95l0.75-0.5l0.801-0.449l0.699-0.551
	l0.75-0.5l1.5-1.05l2.9-2.2l2.8-2.399l2.8-2.55l0.15-0.65l0.25-0.65l0.25-0.699l0.35-0.7l0.45-1.101l0.601-1.149l-0.801,0.25
	l-0.649,0.1l-0.7,0.25l-0.3,0.05l-0.55,0.2l0.3-1.25l0.35-1.35l0.4-1.55l0.5-1.65l0.85-3.7l0.851-3.55l0.649-3.55l0.65-3.4
	l0.45-3.35l0.449-3.25l0.351-3.2l0.25-3.05l-0.75,0.35l-0.8,0.4l-1.801,0.95l-2.1,1.05l-1.15,0.55l-1.199,0.65v-0.4l0.149-0.45
	l0.15-0.55l0.25-0.6l0.25-0.75l0.399-0.75l0.4-0.851l0.5-0.899l-1.2,0.399l-1.05,0.45l-1.05,0.4l-0.9,0.449l-0.899,0.351
	l-0.801,0.399l-0.75,0.301l-0.6,0.35l-0.15-1.2l-0.1-1.05l-0.1-0.9v-0.75l-0.101-0.649v-0.45v-0.35v-0.15v-1l-0.25,0.1l-0.95,0.75
	l-1,0.851l-1.149,0.899l-1.15,1.051l-0.3-0.101l-0.1-0.1l-0.051-0.05l-0.1-0.101l-0.3-0.399l-0.3-0.551l-0.2-0.399l-0.101-0.2
	l-0.05-0.1v-0.051l-0.3-0.85l-0.2-0.5l-0.149-0.5L124.149,100.399L124.149,100.399z M90.1,104.85v0.101v0.1l0.05,0.2l-0.05,0.1v0.25
	l-0.1,0.65l-0.101,0.399l-0.05,0.551l-0.1,0.6l-0.05,0.75l-0.15,0.65l-0.1,0.6l-0.101,0.5v0.45l-0.1,0.35v0.3v0.25v0.2l-0.3-0.649
	l-0.15-0.7l-0.15-0.75V109v-0.351l0.1-0.449l0.1-0.601l0.2-0.649l0.2-0.851l0.1-0.35l0.15-0.25l0.2-0.45l0.3-0.2H90.1L90.1,104.85z
	 M93.149,116.05l0.25-1.4l0.301-1.3l0.25,0.45l0.1,0.05l0.15-0.6l0.3-0.601l0.7,1.45l1.1,0.25l0.75,0.2l0.7,0.2l1.35,0.2l1.55,0.3
	l2.101,0.3l1.6,0.1l1.75,0.15h1l1,0.05l0.2-0.05h0.25h0.5h0.9l0.8-0.1l0.8-0.051l0.75-0.1l0.7-0.1l0.75-0.2l-0.05,0.3l-0.051,0.3
	l-0.149,0.101l-0.101,0.149l-0.25,0.3l-0.449,0.2l-0.25,0.101h-0.101h-0.05v0.05l-0.1,0.1H112h-0.101h-0.05v0.05l-0.3,0.101
	l-0.7,0.2l-0.3,0.05l-0.25,0.1l-0.5,0.2l-1.05,0.3l-0.601,0.05l-0.6,0.101h-0.35l-0.301,0.05l-0.6,0.1l-0.4-0.05h-0.35h-0.7
	l-0.399-0.05H104.1h-0.75l-0.45-0.1l-0.399-0.051l-0.8-0.1l-0.45-0.1l-0.4-0.051l-0.8-0.1l-0.85-0.15l-0.4-0.1l-0.3-0.05l-1.55-0.4
	l-1.2-0.3l0.1,2.35l0.3,2.551l0.4,2.649l0.6,2.75l0.301,1.45l0.3,1.45l0.2,1.25l0.1,0.6l0.15,0.601l0.05,0.5l0.1,0.5v0.199v0.101
	v0.05l0.05,0.1l0.101,0.5v0.4l0.05,0.4v0.35l0.05,0.4v0.3l0.05,0.2l0.101,0.25v0.05l0.05,0.1v0.05l0.05,0.101l-0.05,0.1V137v0.25
	l-0.1,0.2l-0.051,0.1v0.15l-0.149,0.1l-0.101,0.15l-0.3,0.149l-0.2-0.149l-0.1-0.2l-0.2-0.3l-0.1-0.351l-0.2-0.1l-0.2-0.15
	l-0.2-0.25l-0.199-0.3l-0.2-0.4l-0.2-0.449l-0.2-0.551l-0.1-0.6l-0.2-0.7l-0.15-0.75L95.45,132l-0.101-0.9l-0.2-1l-0.1-1.05
	l-0.2-1.15l-0.1-1.199l-0.2-2.101l-0.15-1.85l-0.149-1.601l-0.101-1.35l-0.1-1.2l-0.1-0.899l-0.051-0.7v-0.45L93.149,116.05
	L93.149,116.05z M53.6,97.85h-0.05V97.8L53.6,97.85L53.6,97.85z M56.45,101.25v0.05l-0.35,0.2l-0.25,0.1h-0.1L56.45,101.25
	L56.45,101.25z M62.15,116.649l0.9-0.449l0.9-0.4l1.7-0.8l0.2-0.2l0.3-0.2l0.65-0.45l0.75-0.649l0.95-0.75l0.55-0.55l0.65-0.601
	l0.7-0.649l0.8-0.65l0.85-0.85l0.85-0.75l0.7-0.65l0.65-0.5l0.4-0.4l0.35-0.25l0.25-0.3l0.3-0.149l0.15-0.15l0.1-0.05l0.4-0.25
	l0.45-0.15l0.4-0.05l0.4,0.15l0.4,0.199l0.4,0.5L78.4,107l0.05,0.45l-0.05,0.449l-0.15,0.5l-0.4,0.65l-0.5,0.75l-0.7,0.75l-0.85,0.9
	l-0.85,0.699l-0.9,0.7l-0.95,0.7l-0.5,0.35l-0.45,0.4l-1.1,0.65l-1.1,0.699l-1.2,0.65l-1.2,0.7L66,117.75l-1.45,0.649l-1.4,0.551
	l-1.3,0.55H61.8l-0.1,0.1l-1.85,0.5l-1.75,0.45l-0.85,0.1L56.5,120.7l-0.75-0.051l-0.6-0.1l-0.65-0.2l-0.55-0.25l-0.5-0.35
	l-0.4-0.351l2.5-0.699l1.2-0.351l1.2-0.3l2.2-0.7L62.15,116.649L62.15,116.649z M85,103.399l-0.3-0.55l-0.15-0.399l-0.15-0.25
	v-0.051v-0.25l0.1-0.3l0.3-0.149h0.35l0.3,0.05l0.35,0.149l0.25,0.15l0.3,0.35l0.2,0.351l0.25,0.55l0.3,1.35l0.1,0.7l0.05,0.75
	l-0.1,0.55l-0.15,0.75L86.65,108l-0.4,1.05l-0.4,0.65l-0.3,0.649l-0.35,0.45l-0.3,0.4l0.1-0.45l0.15-0.4l0.2-0.85l0.05-0.5l0.1-0.45
	l0.05-1l-0.05-0.75v-0.65L85.4,105l-0.2-0.9L85,103.399L85,103.399z M79.7,118.95l0.35,0.649l0.3,0.4l0.45,0.5l0.15,0.149L81,121.1
	l0.1,0.65l0.15,0.75l0.2,0.95l0.2,1l0.3,1.199l0.3,1.301l0.35,1.5l0.25,1.5l0.2,1.5l0.05,1.5v1.55l-0.2,1.5l-0.25,1.55l-0.4,1.5
	l-0.45,1.6l-0.35,0.7l-0.4,0.7l-0.5,0.65l-0.3,0.3l-0.1,0.05l-0.05,0.1l-0.1,0.2l-0.2,0.101l-0.1,0.05l-0.05,0.1l-0.3,0.3l-0.4,0.25
	l-0.35,0.301l-0.85,0.5l-0.85,0.5l-1.05,0.399l-1.05,0.4l-1.15,0.3h-0.2l-0.15,0.05L73,146.7l-0.6,0.199L71.7,147h-0.2l-0.15,0.05
	l-0.3,0.1l-1.4,0.25l-1.5,0.15l-1.55,0.2l-1.65,0.05h-1.5L62,147.7l-1.35-0.15l-1.35-0.25l-1.15-0.3L57,146.649l-1-0.449l-1-0.551
	l-0.85-0.6l-0.85-0.7l-0.7-0.75l-0.7-0.85l-0.55-0.9l-0.55-0.95l-0.35-1.05l-0.7-2.05l-0.45-1.9l-0.35-1.8l-0.1-1.649l0.4-0.2
	l3-1.65l2.95-1.55l2.8-1.45l2.75-1.25l2.55-1.25l2.5-1.05l2.35-0.95l2.25-0.85l2-0.851l1.8-0.649l1.5-0.55l1.3-0.45l1-0.351
	l0.8-0.25l0.3-0.1l0.25-0.05l0.2-0.05H79.7L79.7,118.95z M137.45,139.75l-2.4,0.8l1.3-0.5l1.101-0.35V139.75L137.45,139.75z
	 M137.45,139.899l-0.15,0.801l-0.4,1.05L137.45,139.899L137.45,139.899z M127.85,127.05v1.3l-0.1,0.9l-0.15,1l-0.35,1.05l-0.4,1.2
	l-0.6,1.2l-0.65,1.3l-0.85,1.35l-0.851,1.5l-0.3,0.3l-0.1,0.051l-0.05,0.1l-0.101,0.2l-0.3,0.3l-0.1,0.05l-0.051,0.101l-0.1,0.199
	l-0.6,0.601l-0.301,0.25l-0.25,0.3l-0.699,0.45l-0.351,0.2l-0.3,0.25l-0.7,0.399l-0.2,0.05l-0.149,0.101l-0.3,0.2l-0.801,0.25
	l-0.75,0.199h-0.25l-0.199,0.051l-0.4,0.1l-0.8,0.15h-0.9h-0.899l-0.5-0.051H113l-0.9-0.05l-1-0.2L110.2,142.2l-0.9-0.25l-0.8-0.25
	l-0.8-0.351l-0.7-0.3l-1.25-0.7l-0.601-0.45l-0.5-0.449l-0.5-0.5l-0.399-0.5l-0.4-0.601l-0.3-0.55l-0.45-1.2l-0.45-1.35l-0.35-1.2
	l-0.55-2.25l-0.25-1.05l-0.15-0.9l-0.149-0.85l-0.051-0.7l-0.05-1.15v-0.85v-0.55v-0.15l0.05-0.7l0.25-0.699l-0.149-0.101
	l-0.101-0.05l-0.05-0.1v-0.15v-0.25l0.05-0.25l0.15-0.15l0.25-0.1l0.35-0.05l0.45-0.05h0.55l0.65,0.05l0.85,0.1l0.851,0.101l1,0.149
	l1.05,0.2l1.25,0.25l1.25,0.25l1.45,0.3l1.55,0.351l1.65,0.399l1,0.2l0.5,0.1h0.1l0.15,0.051l0.3,0.1l0.95,0.2l1,0.25l0.899,0.149
	l0.95,0.2l0.9,0.15l0.949,0.2l0.801,0.1l0.399,0.05l0.45,0.101l0.8,0.1l0.4,0.05l0.45,0.101l0.699,0.05l0.75,0.1L127.85,127.05
	L127.85,127.05z M98.95,142.75h0.899l0.851,0.1l0.699,0.101l0.65,0.149l0.4,0.15l0.35,0.2l0.2,0.25l0.1,0.3l-0.1,0.399l-0.3,0.4
	l-0.5,0.3l-0.301,0.15l-0.3,0.2l-0.5,0.1l-0.5,0.15l-1.1,0.199l-0.7,0.051l-0.7,0.1h-0.75H96.95h-0.2h-0.101H96.6v0.05l-0.649-0.05
	l-0.301-0.1l-0.199-0.051l-0.25-0.149l-0.15-0.101l-0.2-0.3l-0.1-0.55v-0.15v-0.05l0.05-0.5L95,143.7l0.3-0.351l0.5-0.25l0.55-0.25
	l0.75-0.1l0.851-0.05L98.95,142.75L98.95,142.75z"/>
<polygon fill-rule="evenodd" fill="#F8981D" points="90.149,105.25 90.1,105.05 90.1,104.95 90.1,104.85 90,104.85 89.7,105.05 
	89.5,105.5 89.35,105.75 89.25,106.1 89.05,106.95 88.85,107.6 88.75,108.2 88.65,108.649 88.65,109 88.65,109.75 88.8,110.5 
	88.95,111.2 89.25,111.85 89.25,111.649 89.25,111.399 89.25,111.1 89.35,110.75 89.35,110.3 89.45,109.8 89.55,109.2 89.7,108.55 
	89.75,107.8 89.85,107.2 89.899,106.649 90,106.25 90.1,105.6 90.1,105.35 90.149,105.25 "/>
<polygon fill-rule="evenodd" fill="#F8981D" points="93.7,113.35 93.399,114.649 93.149,116.05 93.899,116.55 93.899,117 
	93.95,117.7 94.05,118.6 94.149,119.8 94.25,121.149 94.399,122.75 94.55,124.6 94.75,126.7 94.85,127.899 95.05,129.05 
	95.149,130.1 95.35,131.1 95.45,132 95.649,132.85 95.8,133.6 96,134.3 96.1,134.899 96.3,135.45 96.5,135.899 96.7,136.3 
	96.899,136.6 97.1,136.85 97.3,137 97.5,137.1 97.6,137.45 97.8,137.75 97.899,137.95 98.1,138.1 98.399,137.95 98.5,137.8 
	98.649,137.7 98.649,137.55 98.7,137.45 98.8,137.25 98.8,137 98.8,136.85 98.85,136.75 98.8,136.649 98.8,136.6 98.75,136.5 
	98.75,136.45 98.649,136.2 98.6,136 98.6,135.7 98.55,135.3 98.55,134.95 98.5,134.55 98.5,134.149 98.399,133.649 98.35,133.55 
	98.35,133.5 98.35,133.399 98.35,133.2 98.25,132.7 98.2,132.2 98.05,131.6 97.95,131 97.75,129.75 97.45,128.3 97.149,126.85 
	96.55,124.1 96.149,121.45 95.85,118.899 95.75,116.55 96.95,116.85 98.5,117.25 98.8,117.3 99.2,117.399 100.05,117.55 
	100.85,117.649 101.25,117.7 101.7,117.8 102.5,117.899 102.899,117.95 103.35,118.05 104.1,118.05 104.45,118.05 104.85,118.1 
	105.55,118.1 105.899,118.1 106.3,118.149 106.899,118.05 107.2,118 107.55,118 108.149,117.899 108.75,117.85 109.8,117.55 
	110.3,117.35 110.55,117.25 110.85,117.2 111.55,117 111.85,116.899 111.85,116.85 111.899,116.85 112,116.85 112.2,116.85 
	112.3,116.75 112.3,116.7 112.35,116.7 112.45,116.7 112.7,116.6 113.149,116.399 113.399,116.1 113.5,115.95 113.649,115.85 
	113.7,115.55 113.75,115.25 113,115.45 112.3,115.55 111.55,115.649 110.75,115.7 109.95,115.8 109.05,115.8 108.55,115.8 
	108.3,115.8 108.1,115.85 107.1,115.8 106.1,115.8 104.35,115.649 102.75,115.55 100.649,115.25 99.1,114.95 97.75,114.75 
	97.05,114.55 96.3,114.35 95.2,114.1 94.5,112.649 94.2,113.25 94.05,113.85 93.95,113.8 93.7,113.35 "/>
<polygon fill-rule="evenodd" fill="#F8981D" points="56.45,101.3 56.45,101.25 55.75,101.6 55.85,101.6 56.1,101.5 56.45,101.3 "/>
<polygon fill-rule="evenodd" fill="#F8981D" points="65.65,115 63.95,115.8 63.05,116.2 62.15,116.649 60.15,117.35 57.95,118.05 
	56.75,118.35 55.55,118.7 53.05,119.399 53.45,119.75 53.95,120.1 54.5,120.35 55.15,120.55 55.75,120.649 56.5,120.7 
	57.25,120.649 58.1,120.55 59.85,120.1 61.7,119.6 61.8,119.5 61.85,119.5 63.15,118.95 64.55,118.399 66,117.75 67.55,117 
	68.75,116.3 69.95,115.649 71.05,114.95 72.15,114.3 72.6,113.899 73.1,113.55 74.05,112.85 74.95,112.149 75.8,111.45 
	76.65,110.55 77.35,109.8 77.85,109.05 78.25,108.399 78.4,107.899 78.45,107.45 78.4,107 78.25,106.649 77.85,106.149 
	77.45,105.95 77.05,105.8 76.65,105.85 76.2,106 75.8,106.25 75.7,106.3 75.55,106.45 75.25,106.6 75,106.899 74.65,107.149 
	74.25,107.55 73.6,108.05 72.9,108.7 72.05,109.45 71.2,110.3 70.4,110.95 69.7,111.6 69.05,112.2 68.5,112.75 67.55,113.5 
	66.8,114.149 66.15,114.6 65.85,114.8 65.65,115 "/>
<polygon fill-rule="evenodd" fill="#F8981D" points="84.4,102.149 84.4,102.2 84.55,102.45 84.7,102.85 85,103.399 85.2,104.1 
	85.4,105 85.5,106.149 85.5,106.8 85.55,107.55 85.5,108.55 85.4,109 85.35,109.5 85.15,110.35 85,110.75 84.9,111.2 85.2,110.8 
	85.55,110.35 85.85,109.7 86.25,109.05 86.65,108 87,107.149 87.15,106.399 87.25,105.85 87.2,105.1 87.1,104.399 86.8,103.05 
	86.55,102.5 86.35,102.149 86.05,101.8 85.8,101.649 85.45,101.5 85.15,101.45 84.8,101.45 84.5,101.6 84.4,101.899 84.4,102.149 
	"/>
<path fill-rule="evenodd" fill="#F8981D" d="M80.8,120.5l-0.45-0.5l-0.3-0.4l-0.35-0.649h-0.15l-0.2,0.05l-0.25,0.05l-0.3,0.1
	l-0.8,0.25l-1,0.351l-1.3,0.45l-1.5,0.55l-1.8,0.649l-2,0.851l-2.25,0.85l-2.35,0.95l-2.5,1.05l-2.55,1.25L58,127.6l-2.8,1.45
	l-2.95,1.55l-3,1.65l-0.4,0.2l0.1,1.649l0.35,1.8l0.45,1.9l0.7,2.05l0.35,1.05l0.55,0.95l0.55,0.9l0.7,0.85l0.7,0.75l0.85,0.7
	l0.85,0.6l1,0.551l1,0.449L58.15,147l1.15,0.3l1.35,0.25L62,147.7l1.45,0.1h1.5l1.65-0.05l1.55-0.2l1.5-0.15l1.4-0.25l0.3-0.1
	L71.5,147h0.2l0.7-0.101L73,146.7l0.3-0.101l0.15-0.05h0.2l1.15-0.3l1.05-0.4l1.05-0.399l0.85-0.5l0.85-0.5l0.35-0.301l0.4-0.25
	l0.3-0.3l0.05-0.1l0.1-0.05l0.2-0.101l0.1-0.2l0.05-0.1l0.1-0.05l0.3-0.3l0.5-0.65l0.4-0.7l0.35-0.7l0.45-1.6l0.4-1.5L82.9,136
	l0.2-1.5v-1.55l-0.05-1.5l-0.2-1.5l-0.25-1.5l-0.35-1.5l-0.3-1.301l-0.3-1.199l-0.2-1l-0.2-0.95l-0.15-0.75L81,121.1l-0.05-0.45
	L80.8,120.5L80.8,120.5z M79.95,128.95l-0.1-1.801l-0.15-1.8l0.4,0.601l0.05,0.1l0.1,0.15l0.2,0.3l0.05,0.2l0.1,0.25V127l0.05,0.1
	l0.05,0.2v0.4l0.1,0.699l0.1,0.95l0.2,1.3l-0.05,0.551L81,131.5v0.399l-0.1,0.851l-0.1,1.05l-0.1,0.3h-0.05v0.05v0.101v0.2
	l-0.1,0.649l-0.2,1.101l-0.3,0.8l-0.2,0.6l-0.1-0.5l-0.25-0.5l-0.4-0.45l-0.5-0.399l0.2-0.851l0.25-0.649l0.2-0.65l0.2-0.45
	l0.1-0.449l0.15-0.351l0.1-0.3l0.1-0.15v-0.149v-0.2v-0.25V131v-0.9v-0.55L79.95,128.95L79.95,128.95z M76.3,125.3v0.25l0.05,0.3
	l0.1,0.55l0.05,0.5l0.1,0.551v0.399v0.2v0.1v0.051l0.05,0.1v0.4l0.05,0.399l-0.05,0.2v0.25v0.5l-0.1,1l-0.2,0.9l-0.1,0.199
	l-0.05,0.101v0.149l-0.1,0.5l-0.2,0.4l-0.1,0.2l-0.05,0.1v0.15l-0.35,0.899l-0.45,0.801l-0.5,0.899l-0.5,0.55l-0.5,0.601L72.9,138
	l-0.5,0.55l-0.35,0.2l-0.3,0.25l-0.6,0.45l-0.2,0.05l-0.15,0.1l-0.3,0.2l-0.65,0.4l-0.4,0.1l-0.2,0.05l-0.15,0.101l-0.75,0.3
	l-0.8,0.2l-0.8,0.199l-0.9,0.101H65.6l-0.2,0.05l-0.4,0.1l-0.9,0.051l-0.9,0.05l-0.1-0.05h-0.05h-0.1l-0.2-0.051H62.6l-0.25-0.1
	l-0.1-0.05H62.2h-0.1l-0.3-0.101l-0.3-0.05l-0.65-0.2l-0.4-0.1l-0.3-0.1H60.1l-0.9-0.051l-0.8-0.1l-0.8-0.15l-0.7-0.199l0.2-0.301
	l0.3-0.25l0.35-0.35l0.5-0.3l0.5-0.4l0.6-0.399l0.65-0.45l0.75-0.45l0.75-0.55l0.85-0.55l0.9-0.601l1.05-0.6l1.05-0.7l1.15-0.65
	l1.2-0.75L69,132.2l1.35-0.9l1.3-0.9l1.1-0.899l1-0.851l0.8-0.899l0.75-0.8l0.55-0.851L76.3,125.3L76.3,125.3z"/>
<polygon fill-rule="evenodd" fill="#FFCD05" points="79.7,125.35 79.85,127.149 79.95,128.95 79.9,129.55 79.9,130.1 79.9,131 
	79.9,131.3 79.9,131.55 79.9,131.75 79.9,131.899 79.8,132.05 79.7,132.35 79.55,132.7 79.45,133.149 79.25,133.6 79.05,134.25 
	78.8,134.899 78.6,135.75 79.1,136.149 79.5,136.6 79.75,137.1 79.85,137.6 80.05,137 80.35,136.2 80.55,135.1 80.65,134.45 
	80.65,134.25 80.65,134.149 80.65,134.1 80.7,134.1 80.8,133.8 80.9,132.75 81,131.899 81,131.5 81.05,131.2 81.1,130.649 
	80.9,129.35 80.8,128.399 80.7,127.7 80.7,127.3 80.65,127.1 80.6,127 80.6,126.95 80.5,126.7 80.45,126.5 80.25,126.2 
	80.15,126.05 80.1,125.95 79.7,125.35 "/>
<polygon fill-rule="evenodd" fill="#FFCD05" points="76.7,129.1 76.65,128.7 76.65,128.3 76.6,128.2 76.6,128.149 76.6,128.05 
	76.6,127.85 76.6,127.45 76.5,126.899 76.45,126.399 76.35,125.85 76.3,125.55 76.3,125.3 75.85,126.1 75.3,126.95 74.55,127.75 
	73.75,128.649 72.75,129.5 71.65,130.399 70.35,131.3 69,132.2 67.7,132.899 66.5,133.649 65.35,134.3 64.3,135 63.25,135.6 
	62.35,136.2 61.5,136.75 60.75,137.3 60,137.75 59.35,138.2 58.75,138.6 58.25,139 57.75,139.3 57.4,139.649 57.1,139.899 
	56.9,140.2 57.6,140.399 58.4,140.55 59.2,140.649 60.1,140.7 60.15,140.7 60.45,140.8 60.85,140.899 61.5,141.1 61.8,141.149 
	62.1,141.25 62.2,141.25 62.25,141.25 62.35,141.3 62.6,141.399 62.75,141.399 62.95,141.45 63.05,141.45 63.1,141.45 63.2,141.5 
	64.1,141.45 65,141.399 65.4,141.3 65.6,141.25 65.85,141.25 66.75,141.149 67.55,140.95 68.35,140.75 69.1,140.45 69.25,140.35 
	69.45,140.3 69.85,140.2 70.5,139.8 70.8,139.6 70.95,139.5 71.15,139.45 71.75,139 72.05,138.75 72.4,138.55 72.9,138 73.45,137.5 
	73.95,136.899 74.45,136.35 74.95,135.45 75.4,134.649 75.75,133.75 75.75,133.6 75.8,133.5 75.9,133.3 76.1,132.899 76.2,132.399 
	76.2,132.25 76.25,132.149 76.35,131.95 76.55,131.05 76.65,130.05 76.65,129.55 76.65,129.3 76.7,129.1 "/>
<polygon fill-rule="evenodd" fill="#F8981D" points="135.05,140.55 137.45,139.75 137.45,139.7 136.35,140.05 135.05,140.55 "/>
<polygon fill-rule="evenodd" fill="#F8981D" points="137.3,140.7 137.45,139.899 136.899,141.75 137.3,140.7 "/>
<path fill-rule="evenodd" fill="#F8981D" d="M127.85,128.35v-1.3l-1.45-0.2l-0.75-0.1l-0.699-0.05l-0.45-0.101l-0.4-0.05l-0.8-0.1
	l-0.45-0.101l-0.399-0.05l-0.801-0.1L120.7,126l-0.9-0.15l-0.95-0.2l-0.899-0.149l-1-0.25l-0.95-0.2l-0.3-0.1l-0.15-0.051h-0.1
	l-0.5-0.1l-1-0.2l-1.65-0.399l-1.55-0.351l-1.45-0.3l-1.25-0.25l-1.25-0.25l-1.05-0.2l-1-0.149l-0.851-0.101l-0.85-0.1l-0.65-0.05
	h-0.55l-0.45,0.05l-0.35,0.05l-0.25,0.1l-0.15,0.15l-0.05,0.25v0.25v0.15l0.05,0.1l0.101,0.05l0.149,0.101l-0.25,0.699l-0.05,0.7
	v0.15v0.55v0.85l0.05,1.15l0.051,0.7l0.149,0.85l0.15,0.9l0.25,1.05l0.55,2.25l0.35,1.2l0.45,1.35l0.45,1.2l0.3,0.55l0.4,0.601
	l0.399,0.5l0.5,0.5l0.5,0.449l0.601,0.45l1.25,0.7l0.7,0.3l0.8,0.351l0.8,0.25l0.9,0.25l0.899,0.199l1,0.2l0.9,0.05h0.45l0.5,0.051
	h0.899h0.9l0.8-0.15l0.4-0.1l0.199-0.051h0.25l0.75-0.199l0.801-0.25l0.3-0.2l0.149-0.101l0.2-0.05l0.7-0.399l0.3-0.25l0.351-0.2
	l0.699-0.45l0.25-0.3l0.301-0.25l0.6-0.601l0.1-0.199l0.051-0.101l0.1-0.05l0.3-0.3l0.101-0.2l0.05-0.1l0.1-0.051l0.3-0.3l0.851-1.5
	l0.85-1.35l0.65-1.3l0.6-1.2l0.4-1.2l0.35-1.05l0.15-1L127.85,128.35L127.85,128.35z M123.649,128.649l-0.149-0.5v-0.35v-0.35
	l0.1-0.2l0.101-0.2l0.25-0.05l0.25-0.05l0.35,0.149l0.05,1.15l-0.05,0.6l-0.1,0.65l-0.301,1.3l-0.5,1.2l-0.35,0.6l-0.2,0.3
	l-0.1,0.15l-0.05,0.2l-0.25,0.2l-0.2,0.25l-0.4,0.5l-0.45,0.399l-0.399,0.45l-0.3,0.15l-0.25,0.199l-0.5,0.351l-0.551,0.3l-0.3,0.15
	l-0.25,0.199l-0.649,0.2l-0.65,0.2l-0.7,0.15l-0.649,0.199l-0.801,0.101l-0.75,0.1l-0.8,0.05H113.7h-0.2h-0.101l-0.05,0.051
	l-1.649-0.101l-1.45-0.2l-0.7-0.199l-0.6-0.15l-1.15-0.4l-1.05-0.649l-0.5-0.351l-0.4-0.35l-0.75-0.85l-0.55-0.9l-0.35-0.75
	l-0.2-0.7l-0.2-0.8l-0.1-0.8l-0.101-0.75V129v-0.4v-0.149l-0.2-1.051l-0.1-1.1l-0.1-1.2l-0.051-1.25L104,123.8l1.149,0.05l1.4,0.101
	l1.7,0.199l0.85,0.101l1.05,0.25l1.051,0.25l1.199,0.45l1.25,0.449L115,126.2l1.399,0.649l1.551,0.75l0.699,0.3l0.7,0.351
	l0.601,0.25l0.6,0.25l0.5,0.149l0.5,0.2L122,129.2l0.399,0.149h0.301l0.3,0.05l0.2-0.05l0.199-0.05l0.101-0.15l0.1-0.1l0.05-0.2
	V128.649L123.649,128.649z"/>
<path fill-rule="evenodd" fill="#FFCD05" d="M124.55,127.1l-0.35-0.149l-0.25,0.05l-0.25,0.05l-0.101,0.2l-0.1,0.2v0.35v0.35
	l0.149,0.5v0.2l-0.05,0.2l-0.1,0.1l-0.101,0.15l-0.199,0.05l-0.2,0.05l-0.3-0.05h-0.301L122,129.2l-0.45-0.101l-0.5-0.2l-0.5-0.149
	l-0.6-0.25l-0.601-0.25l-0.7-0.351l-0.699-0.3l-1.551-0.75L115,126.2l-1.351-0.551l-1.25-0.449l-1.199-0.45l-1.051-0.25l-1.05-0.25
	l-0.85-0.101l-1.7-0.199l-1.4-0.101L104,123.8l-0.851,0.05l0.051,1.25l0.1,1.2l0.1,1.1l0.2,1.051v0.149v0.4v0.5l0.101,0.75l0.1,0.8
	l0.2,0.8l0.2,0.7l0.35,0.75l0.55,0.9l0.75,0.85l0.4,0.35l0.5,0.351l1.05,0.649l1.15,0.4l0.6,0.15l0.7,0.199l1.45,0.2l1.649,0.101
	l0.05-0.051h0.101h0.2h0.399l0.8-0.05l0.75-0.1l0.801-0.101l0.649-0.199l0.7-0.15l0.65-0.2l0.649-0.2l0.25-0.199l0.3-0.15l0.551-0.3
	l0.5-0.351l0.25-0.199l0.3-0.15l0.399-0.45l0.45-0.399l0.4-0.5l0.2-0.25l0.25-0.2l0.05-0.2l0.1-0.15l0.2-0.3l0.35-0.6l0.5-1.2
	l0.301-1.3l0.1-0.65l0.05-0.6L124.55,127.1L124.55,127.1z M109.85,125.399l-0.05,0.2h-0.05L109.85,125.399L109.85,125.399z"/>
<polygon fill-rule="evenodd" fill="#F8981D" points="103.1,144 103,143.7 102.8,143.45 102.45,143.25 102.05,143.1 101.399,142.95 
	100.7,142.85 99.85,142.75 98.95,142.75 97.95,142.7 97.1,142.75 96.35,142.85 95.8,143.1 95.3,143.35 95,143.7 94.8,144.1 
	94.75,144.6 94.75,144.649 94.75,144.8 94.85,145.35 95.05,145.649 95.2,145.75 95.45,145.899 95.649,145.95 95.95,146.05 
	96.6,146.1 96.6,146.05 96.649,146.05 96.75,146.05 96.95,146.05 97.35,146.05 98.1,146.05 98.8,145.95 99.5,145.899 100.6,145.7 
	101.1,145.55 101.6,145.45 101.899,145.25 102.2,145.1 102.7,144.8 103,144.399 103.1,144 "/>
<polygon fill-rule="evenodd" fill="#FFCD05" points="28.25,102.75 28.4,99.7 27.8,102.1 27.55,103.3 27.4,104.55 27.1,106.95 
	27,109.45 27.05,111.149 27.3,112.899 27.3,113.95 27.3,115 27.45,116 27.45,117.55 27.6,119.25 27.75,121.05 28.1,123 
	28.45,125.05 28.95,127.2 29.5,129.5 30.2,131.95 29.75,128.149 29.8,127.55 29.5,124.75 29.1,121.05 28.85,117.6 28.6,114.25 
	28.5,111.1 28.25,103.75 28.25,102.75 "/>
<polygon fill-rule="evenodd" fill="#FFCD05" points="30.45,142.35 30.45,142.6 30.55,142.7 30.45,142.35 "/>
<path fill-rule="evenodd" fill="#CB6928" d="M59.65,2.65l0.7,1.2l0.8,1.35l0.8,1.35l0.9,1.55l0.9,1.55l1,1.65l1,1.7l1.1,1.85
	l-3.7-0.2l-3.6,0.1L56,15l-3.4,0.5l-3.45,0.7l-3.3,0.9l-3.25,1.1l-3.15,1.3L36.3,21l-3.05,1.7l-3,1.9l-2.85,2.15l-2.9,2.3l-2.75,2.6
	l-2.7,2.7l-2.6,3L14.5,39.7l-1.85,2.5l-1.7,2.55L9.4,47.5l-1.45,2.75L6.6,53.2l-1.2,3.05L4.35,59.4l-0.5,1.45l-0.45,1.4l-0.45,1.3
	l-0.35,1.3L2.2,66l-0.35,1.1l-0.3,1.05l-0.25,1L1,70l-0.25,0.8l-0.2,0.75l-0.15,0.7l-0.25,1.1l-0.1,0.45L0,74.2L0.55,73.6L1.3,72.95
	l0.75-0.7L3,71.55l1.1-1l1.05-0.95l1-0.899l0.95-0.801l0.85-0.8l0.85-0.7L9.55,65.7L10.3,65.1l1.2-1.149l0.55-0.5l0.5-0.4l0.4-0.4
	l0.35-0.3l0.3-0.3l0.3-0.2l-0.85,0.95l-0.75,1.05l-1.45,2.3L9.9,67.7l-0.85,1.75L8.2,71.2l-0.75,1.949L6.7,75.1l-0.65,2.05
	l-0.6,2.15l-0.5,2.3L4.2,84.7L3.6,87.85l-0.55,3.05L2.7,94l-0.35,3l-0.25,3.05L1.95,103v3L2,108.899l0.2,3l0.3,3.051l0.5,3.1
	l0.55,3.1l0.75,3.2l0.85,3.25l1.05,3.3l1.3,3.801l1.55,3.8l0.8,1.85l0.9,1.9l1.95,3.8l1.75,3.25l0.05-0.9l0.1-0.75l0.2-1.399
	l0.1-1.15l0.05-0.5l0.1-0.399l0.3-1.851l0.45-1.55l0.15,0.35l0.25,0.5l0.25,0.5l0.35,0.65l0.75,1.35l0.45,0.75l0.55,0.9l0.5,0.85
	l0.6,1L21,149.8l1.45,2.35l0.8,1.25l0.9,1.4l0.2,0.3l0.1,0.15l0.15,0.2l0.5,0.699l0.2,0.301l0.1,0.149l0.15,0.2l0.5,0.7l0.9,1.25
	l0.9,1.3l0.8,1.15l0.85,1.199l0.75,1.101l0.75,1.1l0.3,0.45l0.35,0.5l0.65,1l0.6,0.9l0.6,0.899l0.5,0.8l0.55,0.801l0.45,0.699
	L35.2,171l0.25,0.399L35.15,169l-0.25-2.101l-0.2-2l-0.2-1.75l-0.2-1.6l-0.15-1.4l-0.1-1.25l-0.1-1l-0.3-2.05l-0.15-1.1l-0.1-1.05
	l-0.3-2.351L33,150.7l-0.05-0.601l-0.1-1.2l-0.1-0.949l-0.1-0.851L32.4,145.2l-0.25-1.351L32,142.8l-0.2-0.95l0.2,0.2l-0.35-3.65
	l-0.1-0.1l-0.15-1.4l-0.3-1.75l-0.25-1.8l-0.4-3.8l-0.35-3.15l-0.25-3l-0.25-2.85l-0.15-2.7l-0.2-2.649l-0.1-2.5l-0.1-2.351v-2.25
	L29,105.95l0.05-2.051L29.1,102l0.1-1.75l0.1-1.7L29.5,97l0.2-1.45L30,94.3l0.2,0.65l0.1,0.25l0.15,0.3l0.3,0.85l0.35,0.9l0.7,1.8
	l0.6,1.75l0.65,1.8l0.6-1.149l0.6-1l0.55-1l0.5-0.851l0.4-0.85l0.4-0.7l0.35-0.65l0.3-0.5l0.4,0.65l0.4,0.6l0.05,0.101l0.1,0.149
	l0.2,0.301l0.4,0.55l0.3,0.45l0.3,0.399l0.1,0.15l0.15,0.2l0.3,0.3l0.75-1.25l0.75-1.05l0.65-1.051l0.7-0.85l0.55-0.85l0.6-0.7
	l0.5-0.65l0.55-0.5l0.3,1.101l0.3,1.1l0.25,1l0.2,1l1.8-2.15l1.85-2L51.05,91L53,89.25l0.15,0.45l0.3,0.55l0.3,0.649L54.2,91.7
	l0.25,0.5l0.3,0.5l0.2,0.449l0.25,0.5l0.4,0.75v0.051l0.05,0.1l0.1,0.2l0.2,0.35l0.2,0.5l0.05,0.2l0.1,0.2l0.1,0.25v0.1l0.05,0.101
	l-0.05-0.051l0.1-0.1l0.1-0.2l0.25-0.25l0.2-0.35l0.35-0.45l0.35-0.55l0.45-0.55l0.45-0.75l0.55-0.75l0.55-0.851l0.7-0.95l0.7-1.05
	l0.8-1.1l0.8-1.2l0.95-1.25l0.2,2.1l0.2,2.25l0.1,2.351l0.1,2.5l9.4-9.05l2.7,8.35v-0.1l0.15-0.15l0.15-0.2l0.3-0.2l0.3-0.35
	l0.4-0.35l0.45-0.4l0.55-0.4l0.55-0.55l0.65-0.6l0.65-0.7l0.75-0.75l0.75-0.85l0.85-0.9l0.85-0.95l0.95-1.05l0.35,1.3l0.4,1.3
	l0.8,2.4l0.35,1.1L87,93.2l0.8,2l0.5-0.75l0.55-0.65l0.95-1.25l0.85-1.15l0.801-1L92.1,89.45l0.3-0.45l0.351-0.351L93.25,88
	l0.45-0.55l0.35,0.85l0.45,1l0.6,1.05l0.75,1.25l0.45,0.7l0.25,0.45l0.35,0.55l0.301,0.5l0.399,0.6l0.851,1.351l0.8-1l0.95-0.95l1-1
	l1.149-1l0.5-0.55l0.5-0.4l0.4-0.399l0.45-0.301l0.3-0.3l0.35-0.2l0.25-0.149l0.25-0.05l0.45,0.699l0.5,0.75l0.9,1.45l0.8,1.25
	l0.35,0.601l0.4,0.6l0.6,1l0.101,0.2l0.05,0.1l0.1,0.15l0.3,0.5l0.2,0.399l0.25,0.4l0.2,0.35l0.25,0.4l2.9-3.55l1.35-1.75l1.4-1.65
	l0.3,0.9l0.35,0.899l0.3,0.801l0.15,0.399l0.2,0.45l0.5,1.45l0.2,0.649l0.1,0.301v0.05l0.05,0.1l0.101,0.2l0.149-0.15l0.25-0.1
	l0.55-0.25l0.301-0.2l0.399-0.149l0.851-0.4l0.949-0.55l1.101-0.601l0.55-0.35l0.65-0.3l1.35-0.7l0.1,1.05l0.051,0.5l0.1,0.55l0.1,1
	l0.15,1l0.2,1.7l0.2,1.601l0.55-0.301l0.75-0.25l0.35-0.199l0.45-0.15l0.95-0.3l1-0.4l1.149-0.35l1.25-0.4l0.65-0.2l0.75-0.149
	l-0.1,0.35l-0.051,0.4l-0.1,0.75l-0.2,1.399l-0.3,1.25l-0.1,0.25l-0.051,0.301l-0.1,0.6l1.3-0.85l0.55-0.4l0.601-0.3l0.45-0.351
	l0.5-0.25l0.8-0.449l0.3-0.25l0.3-0.15l0.45-0.25l0.25-0.15l0.15-0.05v0.2l-0.101,0.5l-0.05,0.65l-0.15,0.75l-0.1,0.899l-0.05,0.95
	l0.05,0.9l1.4-0.4l1.699-0.4l0.9-0.25l1-0.199l2.2-0.4v0.25l0.1,0.35l0.101,0.45l0.1,0.55l0.05,0.65l0.101,0.75l0.1,0.85l0.1,0.95
	l0.101,1.851v0.85l0.05,0.9l-0.05,0.8v0.8h-0.05v0.05v0.101v0.199v0.4v0.8l-0.15,0.75l-0.15,0.95l-0.199,1.05l-0.2,1.25l-0.3,1.351
	l-0.301,1.55L145,123.7l-0.4,1.899l-0.399,1.45l-0.4,1.4l-0.4,1.3l-0.35,1.3l-0.4,1.2l-0.399,1.149l-0.8,2.101l4.25-2.3
	l-4.051,7.949l-1.55,3l0.15,0.051l-1.15,3.25l-1.05,3.25l-0.85,2.55l-0.75,2.5l-0.75,2.399l-0.601,2.4l-0.6,2.25L134,165l-0.5,2.149
	l-0.4,2.101l2.15-3.05l1.05-1.45l1.05-1.351l1.9-2.649l0.899-1.25l0.95-1.15l1.65-2.35l0.8-1.101l0.8-1l1.4-1.949l1.35-1.75
	l1.15-1.65l0.55-0.75l0.55-0.65l0.45-0.699l0.45-0.601l0.85-1.05l0.65-0.95l0.6-0.75l0.2-0.35l0.25-0.25l0.4-0.351l-0.7,3l-0.3,1.45
	l-0.25,1.4l-0.551,2.6l-0.449,2.4l-0.45,2.1l-0.3,2l-0.301,1.7l-0.199,1.6l1.85-2.5l1.85-2.399l1.65-2.4l1.65-2.399l1.449-2.4
	l1.45-2.4l1.351-2.399l1.25-2.351l1.1-2.399l1.05-2.351L165.3,134l0.85-2.3l0.75-2.351l0.65-2.3l0.55-2.3l0.5-2.3L168.7,122v-0.15
	l0.05-0.1l0.1-0.2l0.101-0.5l0.149-0.5l0.2-1.15l0.1-0.649l0.15-0.601v-0.399v-0.2v-0.1l0.05-0.051l0.101-0.699v-0.4v-0.2V116
	l0.05-0.05l0.1-0.75l0.101-1.7l0.05-0.9l0.1-0.899v-1.95l-0.05-1.9l-0.15-1.899l-0.149-1.851l-0.3-1.899l-0.351-1.851l-0.45-1.85
	l-0.449-1.8l2.35,0.8l2.3,0.8l2.101,0.7l2,0.7v-2.301l-0.051-2.3l-0.1-1.2l-0.05-0.6v-0.55l-0.2-2.3l-0.3-2.4l-0.351-2.4l-0.1-0.35
	l-0.05-0.3l-0.101-0.601L175.45,83.2L175,80.8l-0.601-2.55l-0.649-2.5l-0.4-1.3l-0.2-0.65L173,73.2l-0.8-2.551L171.3,68l-0.5-1.351
	l-0.45-1.3l-1.05-2.7L168.2,60l-1.25-2.75l-1.301-2.55l-1.35-2.55l-1.45-2.35l-1.55-2.35l-1.6-2.2l-1.65-2.15l-1.75-1.95l-1.9-1.95
	l-1.949-1.85l-2.051-1.75l-2.05-1.6l-2.2-1.6l-2.25-1.45l-2.35-1.35l-2.35-1.25l21.75,5.3l-1.2-2.05l-1.3-1.85l-1.5-1.85l-1.65-1.7
	l-1.85-1.7l-2-1.55l-2.2-1.55l-2.351-1.35l-2.85-1.55l-2.9-1.4l-2.949-1.25l-3-1.1l-3.101-1L129,12.9l-3.15-0.75l-3.2-0.55
	l-1.699-0.3l-1.65-0.2l-3.35-0.35l-3.4-0.25l-3.45-0.05l-3.55,0.05l-1.8,0.05L102,10.7l-1.851,0.1l-1.8,0.2L94.7,11.45L94.149,11
	L93.7,10.6l-0.75-0.8L92.3,8.95L92.05,8.5l-0.15-0.4l-0.35-0.95l-0.1-0.9L91.5,5.3l0.25-0.95l0.2-1L92.2,2.5l0.149-0.75l0.2-0.55
	l0.1-0.5l0.101-0.35L92.8,0.1l0.1-0.1l-2.05,0.45l-1.95,0.7l-1.85,0.9l-1.65,1.1l-1.65,1.3L82.3,6l-0.75,0.8L80.9,7.75l-1.25,2H79.6
	h-0.05l-0.1-0.05H79.4h-0.15l-0.3-0.1l-0.3-0.1l-0.4-0.15L78,9.25L77.8,9.2l-0.3-0.15l-0.25-0.1l-0.6-0.25l-0.7-0.3l-0.7-0.25
	l-0.45-0.2L74.4,7.8l-0.45-0.2l-0.4-0.15l-0.95-0.4l-0.5-0.2l-0.25-0.1l-0.2-0.05L69.6,5.85L67.75,5.1L66,4.45L64.45,3.9L63,3.4
	l-1.25-0.35L60.6,2.8L59.65,2.65L59.65,2.65z M52.9,17.75l0.1-0.1h0.4l0.6-0.1h0.85l1-0.1l1.3-0.1l1.5-0.1l1.75-0.1L62.1,17
	l1.65-0.1l1.5-0.05h1.45h1.25l1.2,0.1l1.05,0.1l1,0.15l-0.85-1.75L69.6,13.9l-0.7-1.4l-0.6-1.2l-0.6-1.1l-0.45-0.85l-0.45-0.7
	l-0.3-0.5l2.1,0.15l2.1,0.45l2.1,0.65l2.1,0.95l1.35,0.6l1.45,0.7l1.55,0.6l1.65,0.7l0.7-1.45l0.8-1.35l0.7-1.25l0.8-1.05l0.7-1
	L85.4,6l0.75-0.75l0.8-0.6l0.4-0.4l0.4-0.3l0.35-0.3l0.35-0.2L88.7,3.2l0.25-0.15l0.2-0.15l0.25-0.05l0.1-0.1h0.149L89.8,2.8
	l-0.05,0.05V3l-0.101,0.35l-0.45,0.9l-0.25,1.1l-0.15,1.3L88.75,8.2V9l0.2,0.85l0.35,0.9l0.5,1l0.6,1l0.801,1.1l0.949,1.1l1.101,1.2
	l0.899-0.65l1.25-0.55l1.5-0.5L98.7,14.1l2-0.35l2.35-0.25l2.6-0.2l2.95-0.05l2.95-0.05l3,0.1l1.45,0.05l1.5,0.15l3,0.4l2.899,0.45
	l1.45,0.25l1.5,0.35l2.9,0.75l3,0.9l2.899,1l2.95,1.2l2.95,1.4l3,1.65l3,1.75l3,2l3.05,2.2l3.101,2.4l-1.95-0.45l-1.8-0.35
	l-1.75-0.35l-1.65-0.3l-1.65-0.3l-1.449-0.25l-1.45-0.25l-1.3-0.15l-1.351-0.2l-1.149-0.1l-2.15-0.15l-1-0.05l-0.85,0.05
	l-0.851,0.05l-0.649,0.1l0.75,0.45l1.75,1l1.649,1l1.5,0.9l1.45,0.9l1.25,0.8l1.25,0.8l1.05,0.7l1,0.7l1.5,1.1l1.55,1.25l1.45,1.3
	l1.45,1.4l1.35,1.4l1.4,1.55l1.3,1.6l1.3,1.75l1.15,1.7l1.2,1.85l1.1,1.85l1.15,2l1,2l1.05,2.15l0.95,2.2l0.95,2.299L167.35,64
	l0.7,1.95l0.6,2.05l0.65,2.2l0.55,2.199l0.601,2.351L171,77.2l0.55,2.55l0.25,1.5l0.3,1.7l0.3,1.8l0.4,2.05l0.35,2.1l0.4,2.351
	l0.4,2.45l0.5,2.699L174.1,96.2L173.7,96l-0.45-0.2l-0.5-0.1l-1.2-0.4l-0.65-0.2L170.2,94.95L170,94.85l-0.15-0.1l-0.1-0.05h-0.05
	l-0.25-0.101l-0.301-0.1l-0.199-0.101l-0.101-0.05h-0.05l-0.35-0.1l-1-0.4l-0.301-0.149l-0.25-0.101l-0.55-0.2l-0.649-0.3l-0.7-0.25
	l-0.75-0.3l-0.4-0.15l-0.35-0.1l0.75,2.7l0.3,1.3l0.05,0.3l0.101,0.351l0.199,0.699l0.551,2.601l0.55,2.6l0.149,1.2l0.2,1.25
	l0.15,1.2l0.2,1.25l0.25,2.399l0.149,2.4l-0.1,2.35l-0.101,1.25l-0.1,1.351l-0.2,1.3l-0.25,1.4l-0.3,1.449l-0.3,1.551l-0.45,1.5
	l-0.45,1.6l-0.5,1.6l-0.5,1.7l-1.3,3.45l-0.7,1.8l-0.7,1.9l-0.8,1.75l-0.75,1.75l-0.7,1.55l-0.649,1.55l-0.65,1.351l-0.6,1.25
	l-0.55,1.149l-0.5,1.101l-0.5,0.85l-0.45,0.85l-0.4,0.7l-0.35,0.65l-0.351,0.45l-0.3,0.399l-0.25,0.25l-0.2,0.2l1.051-13l-0.25-0.25
	l-0.4,0.35l-0.45,0.551l-0.55,0.649l-0.6,0.75l-0.75,0.851l-0.801,1l-0.899,1.05l-0.95,1.25l-1.1,1.25l-1.15,1.45l-1.25,1.55
	l-1.3,1.649l-1.45,1.75l-1.5,1.9l-1.6,1.95l-1.65,2.149l0.05-0.35l0.15-0.4l0.149-0.5l0.2-0.55l-0.25,0.9l1.2-2.9l1.15-2.75
	l1.1-2.649l1.1-2.5l0.95-2.45l0.45-1.2l0.5-1.1l0.9-2.15l0.899-2.05l0.75-1.95l0.75-1.85l0.7-1.75l0.65-1.551l0.55-1.55l0.5-1.35
	l0.45-1.25l0.199-0.601l0.25-0.5l-1.649,1.25l-1.65,1.45l-1.7,1.55l-1.75,1.65l0.7-1.7l0.7-1.7l0.6-1.75l0.601-1.699l0.5-1.801
	l0.45-1.8l0.05-0.5l0.1-0.45l0.2-0.899l0.35-1.8l0.2-1.851l0.2-1.7l0.05-0.85l0.101-0.75l0.149-1.45l0.05-1.35v-0.65l0.051-0.55
	l-0.051-0.6v-0.5L149.1,107l-0.3-1.8l-0.2-1.601l-0.3-1.5l-0.2-1.3l-1.45,0.25l-1.6,0.3l-1.8,0.3l-2,0.4l0.45-1.65l0.199-0.75
	l0.25-0.649l0.101-0.65l0.149-0.55l0.101-0.55l0.149-0.45v-0.45L142.7,96l-0.051-0.351v-0.25l-0.1-0.25L142.45,95l-0.15-0.15
	l-0.1-0.05l-0.25-0.1h-0.2l-0.25,0.05l-0.25,0.149l-0.351,0.15l-0.3,0.25l-0.399,0.25l-0.351,0.35l-0.45,0.351l-0.449,0.45
	l-0.5,0.449L138,97.7l-0.601,0.55l-0.55,0.649l-0.6,0.65l-0.55,0.75l1.75-5.4l-0.95,0.45l-0.95,0.5l-1.05,0.5l-1.15,0.55l-1.3,0.5
	L130.7,98l-1.45,0.6L127.7,99.2v-0.45l0.05-0.4l0.1-0.8v-0.9V95.8l-0.1-0.95l-0.05-0.899l-0.301-1.9l-0.199-0.8l-0.2-0.601
	l-1.4,0.65l-1.6,0.85l-0.9,0.4l-0.899,0.5l-2,1.05l-0.801-1.75L118.7,90.7l-0.65-1.551l-0.55-1.35l-1.15,1.1l-1.05,1.051l-1,0.949
	l-0.85,0.851l-0.851,0.7l-0.7,0.649l-0.649,0.55l-0.55,0.45l-2.45-5.399L108,88.2l-0.2-0.5l-0.4-1.101l-0.1-0.2l-0.05-0.1v-0.05
	l-0.101-0.3l-0.199-0.65l-0.4-1.45l-1.45,1.25l-1.35,1.2l-0.65,0.5l-0.55,0.55l-1.05,1l-0.95,0.8l-0.85,0.7l-0.4,0.25l-0.3,0.3
	l-0.55,0.5L97.35,89.45l-0.55-0.801l-0.5-0.75l-0.6-0.85l-0.551-0.8l-1.1-1.75l-0.35-0.65l-0.551,0.601l-0.55,0.699l-1.2,1.45
	l-1.35,1.55l-0.7,0.801l-0.7,0.899l-3.8-8.3l-0.75,0.7L83.45,83l-1.25,1.399l-1.15,1.2l-0.95,1.15l-0.5,0.45l-0.4,0.5l-0.75,0.85
	l-0.35,0.3L77.85,89.2l-0.45,0.6l-0.45-1.5l-0.35-1.35l-0.3-1.2l-0.2-1.05l-0.2-0.95L75.8,83l-0.1-0.601V81.95L75.25,82.1l-0.5,0.3
	L74.2,82.75l-0.6,0.5l-0.7,0.5l-0.75,0.649l-0.8,0.7L70.5,85.95L69.25,87.1L68.1,88.2l-1.05,1l-0.85,1l-0.1-1.551l-0.05-1.35
	l-0.1-1.25V85l-0.1-0.95l-0.1-0.75l-0.1-0.65V82.2l-0.95,0.949l-1,1.051l-1.05,1.1l-1.05,1.2l-1.15,1.2l-1.2,1.3L58,90.35l-1.3,1.45
	l-0.6-1.25l-0.55-1.05l-0.95-1.851l-0.45-0.85l-0.35-0.7l-0.35-0.649l-0.25-0.5l-0.3,0.199l-0.25,0.301l-0.6,0.649l-0.4,0.351
	l-0.35,0.449l-0.75,0.95l-0.5,0.45l-0.45,0.55L48.65,90l-1.05,1.25l-1.15,1.45l-0.15-0.4l-0.1-0.4L46,91l-0.3-1.05l-0.3-1.2l-1,1
	l-0.85,0.95l-0.85,0.85l-0.65,0.8l-0.55,0.5l-0.45,0.5l-0.4,0.45l-0.3,0.45L40,94.6l-0.2,0.351l-0.2,0.25l-0.1,0.3l-0.25-0.45
	l-0.2-0.35l-0.2-0.351l-0.15-0.3l-0.1-0.25l-0.15-0.3l-0.1-0.25l-0.2-0.4l-0.1-0.2L38,92.55V92.5l-0.2-0.45l-0.15-0.4l-0.4-0.949
	l-0.4-1.051L33.2,98.5l-0.5-1.45l-0.45-1.2l-0.4-1.1l-0.3-0.851l-0.1-0.199L31.4,93.6v-0.05l-0.2-0.35l-0.1-0.15l-0.05-0.1l-0.1-0.2
	l-0.15-0.3l-0.1-0.25l-0.4-0.65l-0.4-0.75l-0.1-0.15l-0.05-0.1l-0.1-0.2l-0.2-0.399l-0.5-0.851l-0.8,2l-0.65,2.05l-0.55,2L26.5,97.2
	L26.15,99.1l-0.25,1.95l-0.15,1.9l-0.05,1.949l-0.05,3.601v3.399v3.25l0.1,3.101v0.8l0.05,1l0.1,1.15l0.2,1.399l0.15,1.5l0.25,1.8
	l0.25,1.9l0.35,2.15l0.3,2.25l0.4,2.5l0.4,2.6l0.5,2.85l0.45,3l0.55,3.2l0.6,3.351l0.65,3.6l0.2,1.05l0.2,1.3l0.1,0.601l0.05,0.3
	l0.1,0.35l0.2,1.15l0.2,1.05l0.1,0.95l0.05,0.4l0.1,0.449l0.1,0.75l0.1,0.75l-0.95-1.649l-0.85-1.45l-0.85-1.35l-0.7-1.25l-0.7-1.25
	l-0.6-1.051l-0.6-0.949l-0.45-0.851l-0.5-0.85l-0.35-0.65l-0.35-0.55l-0.25-0.45l-0.25-0.45l-0.15-0.25l-0.1-0.149v-0.05
	l-2.35-3.851l-1.15-1.8l-1.05-1.65l-1.1-1.649l-1-1.5l-1-1.45l-0.95-1.35l-0.55,1.25l-0.4,1.25l-0.4,1.05l-0.3,1.05l-0.3,0.85
	l-0.2,0.851l-0.2,0.75l-0.1,0.649l-1.55-3.3l-1.35-3.5l-0.7-1.85l-0.6-1.9L8.4,129.2L7.55,126l-0.4-1.65l-0.3-1.6L6.3,119.3
	l-0.45-3.5l-0.35-3.7l-0.25-3.75l-0.1-1.95v-1.949l0.05-3.95l0.15-4.101l0.5-4l0.7-3.949L7.6,84.6L8.85,80.7l1.6-3.801l1.8-3.75
	L14.4,69.5l1.05-1.851l1.05-1.699l1-1.7l1-1.55l0.9-1.55l0.9-1.4l0.8-1.35l0.85-1.2l0.7-1.25l0.75-1.05l0.65-1.05l0.7-0.9l0.55-0.9
	l0.6-0.75l0.5-0.75L26.9,50l1.75-2.35l1.85-2.2l1.85-2.05l1.95-1.9l2.3-2.05V39.3l-0.05-0.05L36.4,39.2l-0.15,0.05l-0.3,0.05
	l-0.3,0.2l-0.4,0.2l-0.4,0.3l-0.55,0.3l-0.6,0.4l-0.65,0.4l-0.7,0.5l-0.8,0.5l-0.85,0.6l-0.95,0.65L28.8,44.1l-4.05,2.95L22.8,48.6
	l-1.85,1.65l-1.9,1.6l-1.8,1.7l-3.45,3.6l-1.75,1.75l-1.6,1.65L8.9,62.1l-1.4,1.55l-1.4,1.4l-1.3,1.35l-1.25,1.25l-1.1,1.2l0.2-0.55
	l0.3-0.65L3.3,66.95l0.45-0.75l0.45-0.9l0.5-0.95l0.55-1.05l0.65-1.1l0.6-1.25l0.7-1.3l0.75-1.4l0.8-1.45l0.8-1.6l0.9-1.65
	l0.95-1.75l1.05-1.75l2.05-3.7l2.2-3.45l1.1-1.7l1.2-1.6l1.2-1.55l1.3-1.45l1.25-1.5l1.35-1.4l2.75-2.65l2.85-2.5l3.05-2.2L34.7,25
	l2.1-1.25l2.25-1.2l2.4-1.05l2.5-1.05l2.65-0.9l2.75-0.9l2.95-0.75L52.9,17.75L52.9,17.75z"/>
<polygon fill-rule="evenodd" fill="#CB6928" points="73.85,17.45 73.6,17.8 72.6,18.05 72.25,18.5 71.95,19.05 71.25,20.4 
	70.45,21.95 69.65,23.85 69.1,24.9 68.7,25.95 68.35,26.85 68.1,27.7 67.85,28.4 67.7,29.05 67.6,29.6 67.6,30.05 67.6,30.75 
	67.6,31.3 67.6,31.7 67.65,31.9 67.85,32.5 67.9,32.35 68.1,32.2 68.3,31.95 68.65,31.6 69,31.15 69.45,30.65 69.95,30.1 
	70.55,29.45 71.05,29.1 71.7,28.7 72.4,28.25 73.25,27.75 74.1,27.1 75.1,26.4 76.15,25.65 77.35,24.85 78.4,24 79.4,23.25 
	80.25,22.55 81.1,21.95 81.35,21.95 81.85,22 82.35,22.15 82.85,22.4 83.45,22.8 83.95,23.25 84.5,23.85 85,24.55 85.6,25.4 
	86.15,26.3 86.85,27.35 87.55,28.5 88.35,29.75 89.55,27.55 90.75,25.5 90.85,25.1 91,24.7 91.2,23.75 91.3,22.65 91.3,22 
	91.3,21.65 91.35,21.35 91.3,20.65 91.2,20.1 91,19.55 90.8,19.15 90.35,18.5 90.1,18.05 89.899,17.7 89.85,17.55 88.35,17.55 
	88.35,17.7 88.35,18.05 88.45,19 88.5,19.55 88.6,20.3 88.7,21.15 88.85,22.1 88.85,22.7 88.9,23.3 88.9,23.85 88.95,24.45 
	88.85,24.9 88.8,25.4 88.7,25.85 88.6,26.3 88.1,26.3 86.55,24.15 85.85,23.2 85.2,22.45 84.55,21.7 84,21.1 83.05,20.15 
	83.25,19.75 83.35,19.5 83.3,19.1 83.3,18.8 83.25,18.55 83.25,18.4 83.15,18.1 83.1,18.05 83.1,18.1 82.85,18.5 79,20.25 
	75.25,22.3 73.6,23.3 72.25,24.3 71.15,25.2 70.7,25.65 70.35,26.15 70.45,25.8 70.65,25.45 71.1,24.65 71.65,23.7 72.4,22.65 
	72.75,21.95 73.1,21.35 73.4,20.8 73.65,20.35 73.8,19.85 73.95,19.45 74.05,19.1 74.1,18.8 74.05,18.15 74,17.9 74,17.75 
	73.9,17.45 73.85,17.4 73.85,17.45 "/>
<polygon fill-rule="evenodd" fill="#010101" points="143.1,49.95 144.25,50.9 145.45,52.1 145.6,52 145.1,51.55 144.649,51.15 
	143.7,50.35 143.1,49.95 "/>
<polygon fill-rule="evenodd" fill="#F26822" points="145.6,52 145.45,52.1 146.25,53.05 147.1,54.1 147.899,55.25 148.8,56.5 
	149.6,57.75 150.399,59.2 151.2,60.7 152.05,62.35 152.5,63.35 152.7,63.85 152.8,64.1 152.95,64.399 153.35,65.35 153.8,66.35 
	154.149,67.25 154.5,68.149 154.8,69 154.95,69.399 155.149,69.85 155.35,70.6 155.55,71.35 155.7,72.05 155.899,72.75 156,73.35 
	156.1,73.95 156.1,74.2 156.149,74.5 156.149,74.75 156.2,75.05 156.2,75.95 156.2,76.8 156.2,77.55 156.25,78.2 156.25,78.75 
	156.3,79.2 156.35,79.55 156.45,79.85 155.6,77.899 154.85,76.3 154.1,74.899 153.45,73.8 152.85,72.899 152.25,72.149 
	151.6,71.399 151,70.75 150.25,70.1 149.55,69.55 148.8,69 148.05,68.6 148.149,69.149 148.3,69.8 148.3,70.05 148.35,70.35 
	148.45,70.95 148.649,72.1 148.7,72.6 148.8,73.149 148.95,74.25 149,75.25 149.05,76.25 149.05,77.149 149.1,78.05 149,79.7 
	148.899,80.45 148.85,81.25 148.649,82.7 148.45,84.1 148.6,83.6 148.7,83.3 148.899,82.95 149.2,82.05 149.399,81.55 149.649,81 
	150,79.85 150.1,79.3 150.25,78.85 150.399,77.899 150.45,77.149 150.399,77.05 150.399,77 150.399,76.899 150.399,76.7 
	150.399,76.25 150.35,75.75 150.35,75.2 150.25,73.899 150.2,73.2 150.2,72.5 150.75,72.95 151.35,73.6 152.2,74.649 152.6,75.25 
	153.05,75.95 153.8,77.399 154.55,79.05 154.55,79.149 154.649,79.45 154.8,79.95 155.1,80.75 155.35,81.649 155.75,82.75 
	156.149,84.05 156.7,85.6 157.05,82.95 157.149,81.649 157.3,80.45 157.35,79.2 157.399,78.05 157.45,75.8 157.3,73.649 157.1,71.6 
	156.899,70.6 156.75,69.7 156.3,67.95 155.5,65.75 154.55,63.649 153.45,61.55 152.2,59.55 150.75,57.55 149.2,55.65 147.45,53.8 
	145.6,52 "/>
<polygon fill-rule="evenodd" fill="#F26822" points="50.25,41.15 50.3,40.7 50.4,40.35 50.45,40.05 50.5,39.9 50.45,39.75 
	50.45,39.7 50.4,39.7 50.35,39.85 50.4,39.75 49.55,40.75 48.75,42 47.95,43.5 47.15,45.2 46.35,47.1 45.6,49.2 44.85,51.5 
	44.15,54.1 43.5,56.4 42.95,58.5 42.45,60.4 42.25,61.3 42.1,62.149 41.75,63.649 41.6,64.95 41.45,66.05 41.45,66.55 41.45,67 
	41.35,68.1 41.2,69.2 41.55,68.6 41.6,68.6 41.6,68.5 41.7,68.35 42.05,67.7 42.5,67.05 43,66.35 43.6,65.6 45.2,63.25 46.8,61.05 
	48.3,59 49.8,57.1 51.2,55.3 52.6,53.7 53.9,52.2 55.2,50.9 55.2,52.55 55.2,54.1 55.2,55.55 55.2,56.9 55.2,58.1 55.25,59.25 
	55.25,60.3 55.35,61.25 55.45,64 55.7,66.7 56,69.2 56.45,71.6 65.45,55.75 64.65,56.1 63.9,56.65 63.1,57.25 62.4,58 61.6,58.85 
	60.9,59.8 60.1,60.85 59.4,62 58.85,62.75 58.45,63.5 58.1,64.1 57.85,64.649 57.65,62.7 57.5,60.75 57.4,58.7 57.35,56.55 
	57.3,54.3 57.3,52 57.35,49.65 57.45,47.2 57,47.35 56.6,47.6 56.1,47.85 55.65,48.2 55.1,48.55 54.6,49 54.05,49.45 53.55,50.05 
	52.9,50.6 52.3,51.25 51.65,51.9 51.05,52.7 49.65,54.3 48.9,55.2 48.2,56.2 46.95,57.7 46.4,58.35 45.95,59 45.45,59.55 
	45.05,60.1 44.7,60.6 44.45,61.1 45.95,55.5 46.3,53.55 46.8,51.55 47.4,49.45 48.15,47.3 48.45,46.2 48.8,45.25 49.1,44.3 
	49.4,43.55 49.6,42.8 49.85,42.15 50.05,41.6 50.25,41.15 "/>
<polygon fill-rule="evenodd" fill="#010101" points="153.95,139.3 154.2,139.55 154,139.25 153.95,139.3 "/>
<polygon fill-rule="evenodd" fill="#F8981D" points="32,142.8 32.15,143.85 32.4,145.2 32.65,147.1 35.5,149.7 38.45,152.149 
	41.45,154.45 44.6,156.6 47.7,158.55 50.95,160.35 54.25,161.95 57.7,163.45 61.1,164.7 64.65,165.8 68.25,166.75 71.95,167.55 
	75.65,168.149 79.5,168.6 83.35,168.85 87.35,168.95 87.75,168.899 88.2,168.899 89.1,168.899 90.899,168.85 92.649,168.75 
	94.45,168.649 97.95,168.25 99.649,168 101.399,167.8 102.2,167.6 102.6,167.5 103.05,167.45 104.75,167.1 108.05,166.35 
	109.649,165.85 110.45,165.6 111.3,165.399 112.899,164.85 114.55,164.35 117.649,163.1 120.75,161.75 123.75,160.25 
	126.75,158.649 129.649,156.85 131.05,155.899 131.75,155.399 132.1,155.149 132.5,154.95 135.3,152.85 136.649,151.75 
	138.05,150.7 139.1,147.45 140.25,144.2 140.1,144.149 141.649,141.149 141.149,141.55 140.75,142 140.35,142.35 140.05,142.75 
	137.25,145.35 136.5,145.95 135.8,146.6 134.399,147.85 132.899,149 132.5,149.25 132.149,149.55 131.45,150.149 129.95,151.2 
	128.5,152.3 125.399,154.25 122.3,156.05 119.1,157.649 118.649,157.8 118.25,158 117.45,158.399 115.85,159.149 114.149,159.75 
	113.3,160.05 112.5,160.399 109.1,161.5 105.6,162.45 103.8,162.85 102.05,163.25 100.2,163.55 98.399,163.85 96.55,164.05 
	94.75,164.3 92.85,164.399 92.35,164.399 91.899,164.45 91,164.55 87.2,164.649 83.4,164.55 79.7,164.3 76.05,163.85 72.45,163.25 
	68.85,162.45 65.3,161.5 61.8,160.399 58.35,159.149 54.9,157.649 51.5,156.05 48.15,154.25 44.85,152.3 41.55,150.149 38.3,147.85 
	35.1,145.399 32,142.8 "/>
<polygon fill-rule="evenodd" fill="#CB6928" points="93.45,110.45 93.399,110.55 93.1,110.7 93.05,110.7 93.149,112.85 93.35,115 
	93.45,116.95 93.649,118.85 93.75,120.55 93.95,122.2 94.1,123.649 94.3,125.05 94.649,128.05 95.1,131.35 95.6,134.85 
	96.2,138.649 97.05,138.6 98.149,138.45 99.05,138.399 99.649,138.35 99.899,138.35 100.1,138.35 100.6,138.399 101.1,138.6 
	101.6,138.899 102.1,139.35 102.5,139.85 102.85,140.399 103,140.899 103.1,141.5 103,142.1 102.899,142.35 102.85,142.649 
	102.649,142.85 102.55,142.95 102.5,142.95 102.5,143 102.5,143.1 102.3,143.3 102.2,143.399 102.149,143.399 102.149,143.45 
	102.149,143.55 101.85,143.649 101.75,143.649 101.7,143.649 101.7,143.7 101.6,143.8 101.3,143.899 101,144.05 100.6,144.1 
	100.25,144.2 99.85,144.2 99.45,144.25 98.7,144.2 98.05,144.2 97.5,144.2 97.05,144.2 97,144.25 97,144.55 97,144.8 97,145 
	97.1,145.149 97.2,145.25 97.399,145.399 97.95,145.649 98.25,145.7 98.649,145.8 99.6,145.85 100.2,145.8 100.8,145.75 
	101.3,145.6 101.85,145.5 102.05,145.35 102.3,145.25 102.75,145.05 103.1,144.75 103.5,144.45 103.899,143.85 103.95,143.649 
	104.05,143.5 104.25,143.2 104.3,142.8 104.399,142.45 104.45,142.05 104.45,141.85 104.45,141.75 104.45,141.7 104.5,141.7 
	104.399,140.85 104.25,140.1 103.899,139.399 103.5,138.85 102.899,138.3 102.25,137.899 101.399,137.55 100.5,137.35 99.75,137.2 
	99.05,137.149 98.399,137.2 97.85,137.35 97.75,137.149 97.7,137.05 97.7,137 97.6,136.649 97.399,135.899 97.2,135.05 97,134.1 
	96.85,133.5 96.75,132.95 96.55,131.8 96.45,131.45 96.399,131.149 96.3,130.55 96.1,129.2 95.7,126.85 95.399,124.8 95.2,123.45 
	95.05,122.3 94.899,121.25 94.85,120.3 94.7,118.8 94.6,117.6 94.5,116.649 94.45,115.95 94.399,114.95 94.45,114 94.649,114.05 
	94.899,114.149 95.399,114.35 96.399,114.75 98.3,115.45 100.1,116 101.899,116.5 103.6,116.8 104.399,116.899 105.25,117 106,117 
	106.8,117.05 108.3,117.05 109.85,116.85 110.55,116.75 110.6,116.7 110.7,116.7 110.899,116.7 111.3,116.7 112.55,116.5 
	113.149,116.399 113.75,116.35 113.95,116.25 114.05,116.2 114.2,116.2 114.7,116.1 115.55,115.899 115.7,115.8 115.899,115.75 
	116.25,115.649 116.85,115.45 116.399,115.45 115.8,115.45 115.05,115.45 114.2,115.45 113.1,115.45 111.899,115.45 110.55,115.45 
	109.8,115.45 109.1,115.5 107.5,115.45 106,115.35 104.5,115.149 103.149,114.95 101.75,114.6 100.5,114.25 99.25,113.8 
	98.1,113.35 97.149,112.85 96.3,112.45 94.95,111.7 94.399,111.3 93.95,111 93.6,110.7 93.45,110.45 "/>
<polygon fill-rule="evenodd" fill="#CB6928" points="65.6,116.05 66.9,115.35 67.5,115 68.15,114.7 69.3,114 69.55,113.8 
	69.85,113.649 70.45,113.35 70.95,112.95 71.2,112.75 71.5,112.6 72.5,111.899 73.45,111.1 74.35,110.399 75.1,109.55 75.75,108.75 
	76.2,108 76.6,107.3 76.8,106.6 76.9,106 76.8,105.45 76.6,104.95 76.3,104.6 76,104.5 75.6,104.5 75.15,104.75 74.65,105.5 
	74.1,106.3 73.45,107.149 72.75,108.05 72.3,108.45 71.9,108.899 71,109.8 70.45,110.2 70.15,110.399 70,110.5 69.9,110.649 
	68.75,111.55 67.4,112.35 65.95,113.25 64.3,114.05 62.6,114.95 60.7,115.649 58.8,116.3 57.8,116.5 57.3,116.6 57.15,116.6 
	57.05,116.649 56.85,116.75 54.85,117.2 52.75,117.45 50.65,117.6 49.55,117.6 48.5,117.6 46.3,117.55 47.5,117.899 48.75,118.2 
	49.3,118.3 49.9,118.45 50.45,118.55 51.05,118.7 52.1,118.8 53.2,118.899 54.2,118.95 55.2,118.95 56.35,118.8 57.55,118.649 
	58.8,118.399 60.1,118.1 61.4,117.649 62.75,117.2 64.15,116.649 65.6,116.05 "/>
<path fill-rule="evenodd" fill="#010101" d="M82.5,127.8l-0.1-0.8l-0.35-1.55L81.7,124l-0.45-1.351L81,122l-0.2-0.55l-0.45-0.851
	l-0.15-0.35L80.15,120L78,120.95l-2.05,1l-4.05,1.899l-2,0.851l-1.9,0.85l-1.9,0.8l-1.8,0.851l-3.65,1.399l-3.45,1.351l-1.7,0.6
	l-1.6,0.6l-1.6,0.551l-1.5,0.55l-0.35,0.05l-0.25,0.15l0.15,1.35l0.4,1.5v0.05L51,136.3l0.45,1.05l0.6,1.351l0.85,1.5l0.45,0.699
	l0.5,0.65l1.05,1.1l0.55,0.5l0.65,0.5l1.25,0.7l0.65,0.3l0.75,0.25l1.45,0.301l0.8,0.1l0.85,0.05L62,145.3h0.2h0.4h0.8l1.55-0.1
	l0.7-0.101l0.15-0.05H66h0.4l0.7-0.1l0.15-0.051h0.2h0.4l1.3-0.25l1.3-0.25l1.2-0.35l1.2-0.35l1.05-0.5l1.05-0.5l0.45-0.301
	l0.5-0.25l0.45-0.3l0.5-0.25l0.4-0.35l0.45-0.3l0.8-0.65l0.35-0.4l0.4-0.35l0.7-0.75l0.3-0.55l0.35-0.5l0.55-1l0.45-1.101l0.2-0.55
	l0.25-0.5l0.1-0.6l0.05-0.3l0.1-0.25l0.1-0.601l0.05-0.3l0.1-0.25l0.05-1.2l0.05-1.2l-0.1-1.1L82.5,127.8L82.5,127.8z M80.8,127.5
	l0.1,0.7v0.25l0.05,0.3V129v0.1v0.05L81,129.25l-0.05,1.1l-0.15,1.101l-0.2,1l-0.15,0.5l-0.1,0.55l-0.2,0.45l-0.15,0.5l-0.15,0.199
	l-0.1,0.25l-0.2,0.5l-0.5,0.851l-0.55,0.899l-0.65,0.7l-0.7,0.7l-0.75,0.6L76,139.45l-0.2,0.149l-0.15,0.2l-0.85,0.5l-0.9,0.55
	l-0.5,0.2l-0.25,0.1l-0.2,0.15l-1,0.45l-1.1,0.3l-0.6,0.15l-0.55,0.199l-1.2,0.25l-1.2,0.25l-1.3,0.15l-0.7,0.05l-0.65,0.101
	l-1.4,0.05H62.5l-0.7,0.05l-0.75-0.05l-0.7-0.101l-1.3-0.3l-1.25-0.5l-1.1-0.7l-1.1-0.899l-0.95-1.101l-0.95-1.3l-0.75-1.5
	l-0.75-1.7l-0.6-1.8l0.7-0.3l0.4-0.2l0.55-0.149l0.5-0.25l0.65-0.2l0.65-0.25l0.8-0.2l1.45-0.6l1.4-0.5l1.35-0.45l1.35-0.351
	l0.2,0.351l0.5,0.5l0.6,0.45l0.75,0.35l0.85,0.2l0.95,0.1h0.1l0.2-0.05h0.25l0.4-0.05l0.3-0.101l0.1-0.05h0.15l0.15-0.2l0.15-0.149
	l0.25-0.15l0.2-0.3l0.05-0.2l0.1-0.149v-0.25l0.05-0.2v-0.55l-0.1-0.551l-0.1-0.35l-0.15-0.25l-0.1-0.15v-0.05l-0.2-0.25l-0.25-0.2
	l-0.35-0.149l-0.4-0.101l1.35-0.55l1.3-0.5l1.2-0.5l1.15-0.45l1.05-0.449l1-0.4l0.95-0.4l0.9-0.3l1.5-0.7l0.65-0.3l0.6-0.25
	l0.5-0.25l0.45-0.2l0.7-0.35l0.05,0.4l0.2,0.699l0.2,0.851l0.35,1.1V125l0.05,0.2l0.1,0.399l0.2,0.7L80.8,127.5L80.8,127.5z
	 M65.15,127.899l0.1,0.15l0.15,0.1l0.15,0.15l0.05,0.15v0.199l-0.15,0.15l-0.2,0.2L65,129.2l-0.35,0.25l-0.45-0.101l-0.3-0.149
	l-0.3-0.2l-0.15-0.2L65.15,127.899L65.15,127.899z"/>
<polygon fill-rule="evenodd" fill="#CDCCCC" points="80.9,128.2 80.8,127.5 80.5,126.3 80.3,125.6 80.2,125.2 80.15,125 
	80.15,124.85 79.8,123.75 79.6,122.899 79.4,122.2 79.35,121.8 78.65,122.149 78.2,122.35 77.7,122.6 77.1,122.85 76.45,123.149 
	74.95,123.85 74.05,124.149 73.1,124.55 72.1,124.95 71.05,125.399 69.9,125.85 68.7,126.35 67.4,126.85 66.05,127.399 66.45,127.5 
	66.8,127.649 67.05,127.85 67.25,128.1 67.25,128.149 67.35,128.3 67.5,128.55 67.6,128.899 67.7,129.45 67.7,130 67.65,130.2 
	67.65,130.45 67.55,130.6 67.5,130.8 67.3,131.1 67.05,131.25 66.9,131.399 66.75,131.6 66.6,131.6 66.5,131.649 66.2,131.75 
	65.8,131.8 65.55,131.8 65.35,131.85 65.25,131.85 64.3,131.75 63.45,131.55 62.7,131.2 62.1,130.75 61.6,130.25 61.4,129.899 
	60.05,130.25 58.7,130.7 57.3,131.2 55.85,131.8 55.05,132 54.4,132.25 53.75,132.45 53.25,132.7 52.7,132.85 52.3,133.05 
	51.6,133.35 52.2,135.149 52.95,136.85 56.35,136.1 59.85,135.35 63.35,134.399 66.85,133.45 70.35,132.3 73.85,131.05 
	77.35,129.649 80.9,128.2 "/>
<polygon fill-rule="evenodd" fill="#FFFFFF" points="81,129.25 80.95,129.149 80.95,129.1 80.95,129 80.95,128.75 80.9,128.45 
	80.9,128.2 77.35,129.649 73.85,131.05 70.35,132.3 66.85,133.45 63.35,134.399 59.85,135.35 56.35,136.1 52.95,136.85 53.7,138.35 
	54.65,139.649 55.6,140.75 56.7,141.649 57.8,142.35 59.05,142.85 60.35,143.149 61.05,143.25 61.8,143.3 62.5,143.25 63.25,143.25 
	64.65,143.2 65.3,143.1 66,143.05 67.3,142.899 68.5,142.649 69.7,142.399 70.25,142.2 70.85,142.05 71.95,141.75 72.95,141.3 
	73.15,141.149 73.4,141.05 73.9,140.85 74.8,140.3 75.65,139.8 75.8,139.6 76,139.45 76.4,139.149 77.15,138.55 77.85,137.85 
	78.5,137.149 79.05,136.25 79.55,135.399 79.75,134.899 79.85,134.649 80,134.45 80.15,133.95 80.35,133.5 80.45,132.95 
	80.6,132.45 80.8,131.45 80.95,130.35 81,129.25 "/>
<polygon fill-rule="evenodd" fill="#CDCCCC" points="65.25,128.05 65.15,127.899 63.45,128.8 63.6,129 63.9,129.2 64.2,129.35 
	64.65,129.45 65,129.2 65.25,129 65.45,128.8 65.6,128.649 65.6,128.45 65.55,128.3 65.4,128.149 65.25,128.05 "/>
<polygon fill-rule="evenodd" fill="#CB6928" points="77.45,118.149 76.7,118.05 76.15,118.05 75.2,118.05 74.15,118.1 73,118.2 
	71.8,118.399 70.45,118.6 69.1,118.85 67.6,119.149 66.05,119.55 64.2,119.95 62.55,120.399 61,120.85 59.6,121.35 58.25,121.8 
	57.1,122.3 56.05,122.8 55.1,123.35 55.9,123.45 56.25,123.25 56.7,123.1 57.65,122.8 58.75,122.5 60,122.2 61.3,121.8 62.8,121.5 
	63.55,121.3 64.4,121.149 66.15,120.85 67.3,120.55 68.4,120.35 70.5,119.95 71.45,119.75 72.35,119.55 74.05,119.25 74.75,119.05 
	75.4,118.95 76.6,118.7 77.1,118.6 77.55,118.5 77.95,118.399 78.3,118.35 78.2,118.25 78.05,118.25 77.8,118.149 77.45,118.149 "/>
<polygon fill-rule="evenodd" fill="#010101" points="82.85,154.25 81.9,155.1 81.15,156.05 80.55,157.05 80.15,158.1 81.15,156.95 
	82.2,155.95 83.25,155.05 84.35,154.3 85.45,153.6 86.6,153.05 87.75,152.6 88.95,152.3 90.149,152.05 91.399,151.95 92.649,151.95 
	93.95,152.1 95.25,152.3 96.6,152.649 97.95,153.1 99.399,153.7 100.899,154.399 100.399,153.75 99.95,153.2 99.45,152.649 
	99,152.2 98,151.3 97.05,150.649 96.5,150.3 96,150.05 94.95,149.7 93.85,149.45 92.8,149.399 91.6,149.399 90.45,149.649 
	89.25,150 88.05,150.55 86.75,151.2 85.5,152.05 84.8,152.5 84.15,153.05 82.85,154.25 "/>
<path fill-rule="evenodd" fill="#010101" d="M126.55,128.3v-0.75l-24.95-4.25l-0.05,2l0.1,1.65l0.15,1.35l0.25,1.4l0.35,1.35
	l0.45,1.4l0.4,1.149l0.5,1.05l0.5,0.95l0.649,0.95l0.65,0.75l0.75,0.65l0.75,0.55l0.85,0.55l0.851,0.35l0.95,0.25l0.949,0.15
	l1.101,0.15l1.1-0.051l1.2-0.1l1.2-0.25l1.3-0.25l0.75-0.3l0.8-0.25l1.45-0.601l0.3-0.199l0.15-0.101l0.2-0.05l0.649-0.3l0.601-0.4
	l0.6-0.35l0.5-0.45l0.5-0.4l0.45-0.5l0.2-0.25l0.25-0.199l0.75-1l0.149-0.301l0.2-0.25l0.35-0.5l0.4-1.1l0.35-1.1l0.25-1.2
	L126.55,128.3L126.55,128.3z M124.899,128.899V129l-0.25,0.899l-0.25,0.9l-0.3,0.85l-0.3,0.851l-0.6,1.05l-0.2,0.2l-0.101,0.1
	l-0.05,0.05V134l-0.3,0.5l-0.4,0.399l-0.199,0.2l-0.101,0.101l-0.05,0.05v0.1l-0.8,0.8l-0.5,0.301h-0.101l-0.05,0.05l-0.1,0.1
	l-0.2,0.2l-0.95,0.6l-0.55,0.2l-0.5,0.25l-0.6,0.2l-0.301,0.1h-0.1L117,138.2l-0.101,0.1l-1.75,0.3l-0.8,0.101l-0.75,0.05
	l-1.5-0.101l-1.35-0.199l-1.351-0.5l-0.6-0.301l-0.55-0.35l-1.15-0.9l-0.95-1l-0.899-1.149l-0.75-1.101l-0.65-1.05l-0.45-0.95
	L103,130.2l-0.2-0.9l-0.1-0.85l0.05-0.801l0.05-0.399v-0.55l0.05-0.4l0.101-0.7v-0.45l0.1-0.199l1.75,0.5l1.75,0.5l1.25-0.101
	l-0.3,0.351l-0.2,0.25l-0.1,0.35l-0.051,0.8v0.25v0.5v0.55l0.101,0.2l0.2,0.2l0.199,0.15l0.301,0.199l0.3,0.051l0.45,0.1l0.449,0.05
	l0.551,0.05l0.399-0.05l0.4-0.1l0.35-0.2l0.351-0.2l0.149-0.2l0.2-0.399l0.2-0.351l0.1-0.399v-0.2v-0.1v-0.051h0.05v-0.3l-0.05-0.3
	v-0.2v-0.25l2.4,0.5l1.149,0.2l1.101,0.25l1,0.15l0.95,0.199l0.899,0.15l0.9,0.2l0.75,0.1h0.149l0.2,0.05l0.4,0.101l1.3,0.2l1,0.1
	h0.45L124.899,128.899L124.899,128.899z M109.8,126l-0.05,0.05l-0.5-0.1l-0.3-0.051h-0.25l1,0.25h-0.051l0.15,0.65v0.05v0.2v0.3
	l-0.1,0.351l-0.101,0.449l-0.55-0.1l-0.35-0.25l-0.25-0.4l-0.051-0.55l0.15-0.35l0.15-0.601L109.8,126L109.8,126z"/>
<polygon fill-rule="evenodd" fill="#CDCCCC" points="124.899,129 124.899,128.899 124.5,128.8 124.05,128.8 123.05,128.7 
	121.75,128.5 121.35,128.399 121.149,128.35 121,128.35 120.25,128.25 119.35,128.05 118.45,127.899 117.5,127.7 116.5,127.55 
	115.399,127.3 114.25,127.1 111.85,126.6 111.85,126.85 111.85,127.05 111.899,127.35 111.899,127.649 111.85,127.649 111.85,127.7 
	111.85,127.8 111.85,128 111.75,128.399 111.55,128.75 111.35,129.149 111.3,129.35 123.8,132.5 124.1,131.649 124.399,130.8 
	124.649,129.899 124.899,129 "/>
<polygon fill-rule="evenodd" fill="#FFFFFF" points="111.2,129.35 110.85,129.55 110.5,129.75 110.1,129.85 109.7,129.899 
	109.149,129.85 108.7,129.8 108.25,129.7 107.95,129.649 107.649,129.45 107.45,129.3 107.25,129.1 107.149,128.899 107.149,128.35 
	102.8,127.25 102.75,127.649 102.7,128.45 102.8,129.3 103,130.2 103.399,131.149 103.85,132.1 104.5,133.149 105.25,134.25 
	106.149,135.399 107.1,136.399 108.25,137.3 108.8,137.649 109.399,137.95 110.75,138.45 112.1,138.649 113.6,138.75 114.35,138.7 
	115.149,138.6 116.899,138.3 117,138.2 117.05,138.149 117.149,138.149 117.45,138.05 118.05,137.85 118.55,137.6 119.1,137.399 
	120.05,136.8 120.25,136.6 120.35,136.5 120.399,136.45 120.5,136.45 121,136.149 121.8,135.35 121.8,135.25 121.85,135.2 
	121.95,135.1 122.149,134.899 122.55,134.5 122.85,134 122.85,133.899 122.899,133.85 123,133.75 123.2,133.55 123.8,132.5 
	111.3,129.35 111.35,129.149 111.2,129.35 "/>
<polygon fill-rule="evenodd" fill="#CDCCCC" points="103.05,124.95 102.95,125.149 102.95,125.6 102.85,126.3 102.8,126.7 
	102.8,127.25 107.149,128.35 107.149,127.85 107.149,127.6 107.2,126.8 107.3,126.45 107.5,126.2 107.8,125.85 106.55,125.95 
	104.8,125.45 103.05,124.95 "/>
<polygon fill-rule="evenodd" fill="#FFFFFF" points="109.75,126.05 109.8,126 108.7,125.899 108.95,125.899 109.25,125.95 
	109.75,126.05 "/>
<polygon fill-rule="evenodd" fill="#FFFFFF" points="109.8,126.8 109.649,126.149 109.7,126.149 108.7,125.899 108.55,126.5 
	108.399,126.85 108.45,127.399 108.7,127.8 109.05,128.05 109.6,128.149 109.7,127.7 109.8,127.35 109.8,127.05 109.8,126.85 
	109.8,126.8 "/>
<polygon fill-rule="evenodd" fill="#CB6928" points="104.149,119.55 103.3,119.75 102.6,120.1 102.05,120.55 101.7,121.1 
	102.05,121 102.25,120.95 102.55,120.95 103.149,120.85 103.899,120.85 104.75,120.75 105.7,120.649 106.75,120.55 107.3,120.5 
	107.95,120.5 109.2,120.35 110.6,120.25 112.1,120.149 113.75,120.05 115.5,119.899 117.35,119.8 119.3,119.7 121.45,119.6 
	118.2,119.399 115.3,119.3 112.649,119.2 110.399,119.2 108.35,119.2 106.649,119.25 105.2,119.35 104.149,119.55 "/>
<polygon fill-rule="evenodd" fill="#F8981D" points="97.75,156.25 97.35,155.8 96.899,155.5 96.25,155.2 95.55,155.05 94.7,154.899 
	93.75,154.85 92.649,154.85 91.5,154.95 90.25,155.1 89.25,155.35 88.35,155.7 87.7,156.149 87.1,156.7 86.75,157.399 86.5,158.149 
	86.5,159.1 86.9,158.899 87.45,158.8 88.15,158.7 89,158.6 89.899,158.5 90.95,158.399 92.149,158.3 93.5,158.25 94.1,158.149 
	94.7,158.1 95.25,158 95.75,157.95 96.55,157.75 97.25,157.55 97.649,157.25 97.8,157.05 97.899,156.95 97.899,156.75 97.899,156.6 
	97.85,156.399 97.75,156.25 "/>
</svg>
