<?xml version="1.0" encoding="utf-8"?>
<!-- Generator: Adobe Illustrator 13.0.0, SVG Export Plug-In . SVG Version: 6.00 Build 14948)  -->
<svg version="1.2" baseProfile="tiny" id="Layer_1" xmlns="http://www.w3.org/2000/svg" xmlns:xlink="http://www.w3.org/1999/xlink"
	 x="0px" y="0px" width="176.949px" height="171.399px" viewBox="0 0 176.949 171.399" xml:space="preserve">
<path fill-rule="evenodd" fill="#F8981D" d="M60.4,17.15l-1.75,0.1l-1.5,0.1l-1.3,0.1l-1,0.1H54l-0.6,0.1H53l-0.1,0.1l-0.6,0.15
	l-2.95,0.75l-2.75,0.9l-2.65,0.9l-2.5,1.05l-2.4,1.05l-2.25,1.2L34.7,25l-1.95,1.35l-1.55,1l-1.4,1.05l-1.4,1l-1.25,1l-1.25,0.9
	l-1.15,0.95l-1.1,0.9l-0.95,0.9l-1,0.8l-0.85,0.8l-0.8,0.75l-0.7,0.8l-0.7,0.65l-0.55,0.7l-0.5,0.65l-0.4,0.65l-1.35,1.9L14.6,43.7
	l-2.3,3.8l-2.2,3.7l-1.9,3.7l-0.95,1.75l-0.85,1.8L5.6,60.2L4.9,62l-0.75,1.7l-0.6,1.75l-1.1,3.4L3.5,67.7l1.05-1l0.95-0.95
	l0.9-0.85l0.8-0.85l0.75-0.75l0.65-0.7l0.65-0.55L9.7,61.5l0.65-0.6l0.75-0.75l0.45-0.4l0.55-0.4l0.5-0.5l0.6-0.5l0.6-0.55l0.7-0.5
	l0.65-0.6l0.75-0.6l0.75-0.65l0.85-0.6l0.8-0.75l0.9-0.7l0.9-0.8l1-0.75L22.05,51l1.05-0.8l2.25-1.75l2.35-1.95l2.55-1.95l2.65-2.15
	l2.85-2.15l-1.4,1.2l-2.45,2.3l-2.3,2.4l-2.15,2.4L25.5,51.1l-0.35,0.45L24.8,52.1l-0.45,0.65l-0.45,0.8l-0.55,0.8l-0.6,0.95
	l-0.65,1l-0.65,1.15l-0.8,1.15l-0.8,1.3l-0.9,1.35l-0.9,1.5l-1,1.5L16,65.9l-1.1,1.7l-1.1,1.85l-2.25,3.7L10.5,75l-0.85,1.9L8,80.7
	l-1.25,3.9L5.7,88.5l-0.65,3.95l-0.25,2l-0.15,2l-0.05,4.1l0.05,3.95l0.25,3.8l0.25,3.65l0.45,3.55l0.45,3.35l0.55,3.2l0.65,3.05
	l0.8,2.95l0.7,2.7l0.35,1.3l0.4,1.3l0.7,2.4l0.7,2.3l0.6,2.1l0.6,2l0.25,0.9l0.3,0.9l0.6,1.75l0.05-0.5l0.2-0.7l0.2-0.9l0.35-1.1
	l0.15-0.65l0.2-0.7l0.55-1.5l0.55-1.8l0.7-1.899l0.95,1.35l1,1.45l1,1.5l1.1,1.649l1.05,1.65l1.15,1.8l2.35,3.851v0.05l0.1,0.149
	l0.15,0.25l0.25,0.45l0.25,0.45l0.35,0.55l0.35,0.65l0.5,0.85l0.45,0.851l0.6,0.949l0.6,1.051l0.7,1.25l0.7,1.25l0.85,1.35
	l0.85,1.45l0.95,1.649V161.5v-0.95l-0.1-1.15l-0.05-0.6v-0.6l-0.1-0.7l-0.05-0.7l-0.1-0.75l-0.05-0.7l-0.1-0.45l-0.05-0.399
	l-0.1-0.8l-0.2-1.7l-0.2-0.95l-0.15-1L31,149l-0.1-0.55l-0.05-0.5l-0.15-0.601l-0.1-0.55l-0.2-1.15l-0.1-0.35l-0.05-0.3l-0.1-0.601
	l-0.2-1.25l-0.3-1.35l-0.25-1.4l-0.3-1.449l-0.1-0.4l-0.05-0.2V138.2l-0.1-0.7l-0.6-3.101l-0.6-3.3l-0.45-1.7l-0.25-1.6l-0.25-1.55
	l-0.1-1.45l-0.1-1.45l0.05-1.35l0.05-1.3l0.25-1.2l0.15-1.101l0.15-1.1v-0.6v-0.301v-0.149l0.05-0.101L27.3,115v-1.05v-1.051
	l-0.25-1.75L27,109.45V109l-0.1-0.65l-0.05-0.6L26.6,106l-0.05-1.55l-0.05-1.551l0.15-1.399l0.15-1.4l0.3-1.25l0.35-1.2l0.5-1.05
	L28.4,95.7l0.25,1L28.5,97.1l-0.05,0.45L28.4,99.7l-0.15,3.05v1l0.25,7.35l0.15,2.55l0.25,2.7l0.25,2.75l0.35,2.95l0.2,2.2
	l0.3,2.149l-0.15,0.551l-0.05,0.6l-0.05,0.6l0.45,3.801l0.05,0.75l-0.1,1.699l0.05,1.5v0.65l0.05,0.6l0.2,1.101l0.1,0.35l0.2,0.601
	l0.35,0.449v0.301v0.149l0.05,0.2l0.1,0.7l0.2,1.2l0.2,1l0.2,0.899l0.05,0.3L32,144.7l0.2,0.5l0.2,0.3l0.2,0.1l0.3-0.05l0.25-0.1
	l0.2-0.2l0.15-0.2V145v-0.2l0.05-0.2v-0.25l0.05-0.3l-0.05-0.1v-0.051v-0.1v-0.25l-0.05-0.3v-0.3l-0.1-0.801l-0.05-0.5v-0.5v-0.1
	v-0.15v-0.1v-0.15l-0.1-0.35v-0.35l-0.05-0.101v-0.05v-0.1v-0.2v-0.55l-0.1-0.65l-0.05-0.7l-0.1-0.8v-0.85l-0.1-1l-0.1-1.051
	l-0.1-1.149l-0.1-1.15l-0.1-0.7L32.4,130.7v-0.15v-0.3l-0.1-1.351l-0.1-1.449l-0.1-1.5l-0.3-3.301l-0.25-3.149l-0.25-3l-0.15-2.8
	l-0.3-9.65l0.1,0.3v0.05L31,104.5l0.1,0.2l0.3,0.649l0.25,0.5l0.3,0.45l0.2,0.35l0.1,0.101l0.05,0.05l0.1,0.1l0.2,0.15h0.1h0.05
	l0.1,0.05l0.6-1.45l0.75-1.449l0.3-0.801l0.35-0.649l0.7-1.101l0.3-0.5l0.35-0.399l0.3-0.351l0.35-0.199l-0.05,0.25l0.1,0.35
	l0.1,0.45l0.25,0.6l0.25,0.65l0.35,0.85l0.4,0.9l0.55,1.05l0.1-0.3l0.25-0.351l0.3-0.55l0.4-0.6l0.4-0.8l0.55-0.851l0.55-1.05
	l0.7-1.1l0.4-0.801l0.15-0.35l0.2-0.25l0.5,0.7l0.6,1l0.6,1.149l0.75,1.4l0.3,0.65L46,102.35l0.25-0.45l0.35-0.399l0.3-0.55l0.4-0.5
	l0.85-1.051l0.95-1.25l1.05-1.3l1.15-1.45l1.35-1.55l0.8,1.7l0.4,0.8l0.2,0.4l0.1,0.2l0.05,0.1l0.1,0.15v0.05l0.05,0.1l0.1,0.2
	l0.2,0.4l0.4,0.8l0.8,1.5l0.4-0.55l0.5-0.551L57.3,98.5l0.7-0.65l0.7-0.8l0.8-0.8l0.85-0.9l1-0.899l0.05,0.199l0.05,0.2l0.15,0.3
	l0.1,0.301l0.2,0.449l0.2,0.45l0.3,0.55l0.15,0.351l0.2,0.55l0.45,1.25L64,98.1l0.85-0.85l1.55-1.55l1.4-1.45L69.05,93l1.05-1.15
	l0.45-0.5l0.5-0.399l0.35-0.45l0.4-0.351l0.3-0.35l0.35-0.25l0.3,0.65l0.4,0.85l0.45,0.85l0.55,1.051l0.5,1.05l0.65,1.149l0.65,1.2
	L76.7,97.7l0.25-0.25l0.35-0.301l0.45-0.449l0.55-0.551l0.6-0.75l0.75-0.75L80.4,93.7l0.95-1l0.7-0.95l0.65-0.8l0.6-0.75l0.55-0.601
	l3.6,7.75L88.7,95.7l1.45-1.601l1.5-1.55l1.65-1.5l0.648,0.9l0.701,0.949l0.65,0.9l0.299,0.45l0.35,0.5l1.15,1.7l0.551,0.8
	l0.25,0.399l0.299,0.45l0.551-0.75l0.65-0.7l0.699-0.8l0.85-0.75l0.801-0.899l0.949-0.851l0.951-0.95l1.1-0.899l5.199,8.95
	l1.15-0.851l1.1-0.75l0.951-0.7l0.9-0.6l0.648-0.6l0.65-0.5l0.451-0.45l0.398-0.351l2.25,6.15l0.451-0.4l0.549-0.35L120,100.6
	l0.65-0.399l1.35-0.95l0.75-0.5l0.85-0.45l0.25,0.95l0.301,1.149l0.299,1.15l0.15,0.5l0.201,0.5l0.299,0.85v0.051l0.051,0.1l0.1,0.2
	l0.199,0.399l0.301,0.551l0.301,0.399l0.1,0.101l0.049,0.05l0.102,0.1l0.299,0.101l1.15-1.051l1.15-0.899l1-0.851l0.949-0.75
	l0.25-0.199v0.1v1v0.15v0.35v0.45l0.1,0.649v0.75l0.102,0.9l0.1,1.05l0.15,1.2l0.6-0.35l0.75-0.301l0.799-0.399l0.9-0.351l0.9-0.449
	l1.051-0.4l1.049-0.45l1.201-0.399l-0.5,0.899l-0.4,0.851l-0.4,0.75l-0.25,0.75l-0.25,0.6l-0.15,0.55l-0.15,0.45v0.4l1.201-0.65
	l1.15-0.55l2.1-1.05l1.799-0.95l0.801-0.4l0.75-0.35l-0.25,3.05l-0.35,3.2l-0.451,3.25L143,119.35l-0.65,3.4l-0.65,3.55l-0.85,3.55
	l-0.85,3.7l-0.5,1.65l-0.4,1.55l-0.35,1.35l-0.301,1.25l0.551-0.2l0.301-0.05l0.699-0.25l0.65-0.1l0.799-0.25l-0.6,1.149
	l-0.449,1.101l-0.35,0.7l-0.25,0.699l-0.25,0.65l-0.15,0.65l-0.201,0.6l-0.1,0.55l-0.1,0.5v0.45v0.35l0.1,0.351l0.15,0.25l0.25,0.2
	l0.25,0.1l0.35,0.05l0.1-0.1l0.201-0.3l0.25-0.45l0.35-0.601l0.35-0.8l0.451-0.95l0.449-1.149l0.6-1.3l0.25-0.851l0.301-0.75
	l0.25-0.7l0.299-0.6l0.4-1.1l0.15-0.5l0.199-0.351l0.4-0.399l0.35-0.351l0.301-0.35l0.301-0.25l0.148-0.3l0.15-0.2l0.1-0.2
	l0.051-0.15l-0.051-0.3L146.4,133.7l0.299-0.351l0.102-0.1l0.049-0.101l-0.1-0.449l-0.1-0.2l-0.1-0.101l-0.4-0.149l-0.451-0.05
	l-0.75,0.25l-0.6,0.199l-0.449,0.15l-0.35,0.15l0.199-0.75l0.25-0.801l0.25-0.85l0.301-0.95l0.25-1.05l0.299-1.15l0.301-1.25
	l0.299-1.25l0.201-1.35l0.25-1.2l0.199-1.149l0.201-1.051l0.148-1l0.201-0.85l0.1-0.85l0.199-0.65l0.102-0.65l0.1-0.55l0.199-0.85
	l0.1-0.55v-0.15h0.051l-0.051-1.55v-1.4l-0.1-1.35l-0.049-1.15l-0.102-1.149l-0.1-0.95l-0.1-0.5l-0.051-0.4l-0.1-0.75l0.201-0.2
	l0.148-0.149l0.102-0.15l0.049-0.1l-0.1-0.3l-0.1-0.15l-0.051-0.1l-0.199-0.2l-0.15-0.101l-0.15-0.35l-0.15-0.2l-0.25-0.149
	l-0.35-0.051l-0.5-0.3l-0.5,0.05l-0.049,0.25l-1.301,0.2l-1.25,0.5l-0.949,0.351l-0.852,0.35l-0.799,0.25l-0.701,0.15v-0.75
	l0.051-0.601v-0.6l0.051-0.5l0.148-0.351l0.201-0.25l0.35-0.449l0.15-0.351l0.049-0.149l0.051-0.051l-0.051-0.1v-0.05l-0.1-0.15
	l0.25-0.35l0.051-0.101h0.049L140.35,99l-0.1-0.25l-0.1-0.15l-0.201-0.2l-0.148-0.1l-0.451-0.05h-0.199l-0.201,0.1l-0.299,0.101
	l-0.25,0.199l-0.35,0.2l-0.352,0.3L137.25,99.5l-0.4,0.45l-0.65,0.5l-0.5,0.449l-0.5,0.4l-0.35,0.35l-0.35,0.25l-0.15,0.2
	l-0.15,0.101v0.1v-0.25l0.201-0.4l0.199-0.449l0.15-0.551l0.15-0.399l0.049-0.4L135,99.6v-0.25l0.051-0.25l0.049-0.149l-0.049-0.301
	l-0.102-0.25L134.75,98.2L134.5,98.1l-0.199-0.35l-0.25-0.25l-0.352-0.15h-0.35L132.5,97.7l-0.15-0.301l1.451-0.699l1.35-0.601
	l1.199-0.6l1.1-0.601l-1.75,5.4l0.551-0.7l0.6-0.6l1.1-1.05l0.451-0.5l0.5-0.4l0.4-0.4l0.449-0.3L140.1,96l0.35-0.25l0.301-0.2
	l0.35-0.1l0.25-0.15l0.25-0.05l0.451,0.05l0.25,0.15l0.1,0.149l0.1,0.25l0.051,0.55v0.351v0.45l-0.102,0.399l-0.1,0.5l-0.25,1.15
	l-0.199,0.6l-0.201,0.7l-0.25,0.7l-0.199,0.8l2-0.4l1.801-0.3l1.6-0.3l1.449-0.25l0.201,1.3l0.299,1.5l0.201,1.601l0.299,1.8
	l0.051,0.95v0.5l0.049,0.6l-0.049,0.55v0.65l-0.051,1.35l-0.15,1.45l-0.1,0.75l-0.049,0.85l-0.201,1.7L148.4,118.2l-0.35,1.8
	l-0.201,0.899l-0.1,0.45l-0.051,0.5l-0.449,1.8l-0.5,1.801l-0.6,1.699l-0.6,1.75l-0.701,1.7l-0.699,1.7l1.75-1.65l1.699-1.55
	l1.65-1.45l1.65-1.25l-0.25,0.5l-0.201,0.601L150,128.75l-0.5,1.35l-0.551,1.55l-0.648,1.551l-0.701,1.75l-0.75,1.85l-0.75,1.95
	l-0.9,2.05l-0.898,2.15l-0.5,1.1l-0.451,1.2l-0.949,2.45l-1.1,2.5l-1.102,2.649l-1.148,2.75l-1.201,2.9l0.25-0.9l-0.199,0.55
	l-0.15,0.5l-0.15,0.4l-0.049,0.35l1.648-2.149l1.602-2l1.5-1.9l1.449-1.75l1.301-1.649l1.25-1.551l1.148-1.449l1.102-1.25
	l0.949-1.25l0.9-1.101l0.799-0.95l0.75-0.85l0.65-0.75l0.551-0.65l0.449-0.55l0.4-0.35l0.199,0.3l-1.049,13l0.199-0.2l0.25-0.25
	l0.301-0.399l0.35-0.45l0.35-0.65l0.4-0.7l0.449-0.85l0.5-0.85l0.5-1.101L157,145.95l0.6-1.25l0.65-1.351l0.65-1.55l0.699-1.55
	l0.75-1.75l0.801-1.75l0.699-1.9l0.701-1.8l1.299-3.45l0.5-1.7l0.5-1.6l0.451-1.6l0.449-1.5l0.301-1.551l0.299-1.449l0.25-1.4
	l0.201-1.3l0.1-1.351l0.1-1.25l0.1-2.35l-0.15-2.4l-0.25-2.399l-0.199-1.25l-0.15-1.2l-0.199-1.25l-0.15-1.2l-0.551-2.6
	l-0.549-2.601l-0.201-0.699l-0.1-0.351l-0.049-0.3L164.25,95l-0.75-2.7l0.35,0.1l0.4,0.15l0.75,0.3l0.699,0.25l0.65,0.3l0.551,0.2
	l0.25,0.101l0.299,0.149l1,0.4l0.352,0.1h0.049l0.1,0.05l0.201,0.101l0.299,0.1l0.25,0.101h0.051l0.1,0.05l0.15,0.1l0.199,0.101
	L170.9,95.1l0.65,0.2l1.199,0.4l0.5,0.1l0.449,0.2l0.4,0.2l0.35,0.199l-0.5-2.699l-0.398-2.45l-0.4-2.351l-0.35-2.1l-0.4-2.05
	l-0.301-1.8l-0.299-1.7l-0.25-1.5L171,77.2l-0.551-2.45l-0.6-2.35l-0.549-2.2l-0.65-2.2l-0.6-2.05L167.35,64l-0.65-1.85l-0.949-2.3
	l-0.949-2.2l-1.051-2.15l-1-2l-1.15-2l-1.1-1.85l-1.199-1.85l-1.15-1.7l-1.301-1.75l-1.299-1.6l-1.4-1.55l-1.35-1.4l-1.451-1.4
	l-1.449-1.3l-1.551-1.25l-1.5-1.1l-1-0.7l-1.049-0.7l-1.25-0.8l-1.25-0.8l-1.451-0.9l-1.5-0.9l-1.65-1l-1.75-1l-0.75-0.45l0.65-0.1
	l0.85-0.05l0.852-0.05l1,0.05l2.148,0.15l1.15,0.1l1.35,0.2l1.301,0.15l1.449,0.25l1.451,0.25l1.65,0.3l1.648,0.3l1.75,0.35
	l1.801,0.35l1.949,0.45l-2-2.25l-1.049-1.05l-1.1-1l-1.201-1L149.65,24l-2.6-1.75l-2.9-1.65l-1.5-0.75l-1.551-0.7l-1.65-0.7
	l-1.648-0.6l-1.701-0.6l-1.75-0.55l-3.65-1.05l-3.6-0.95l-3.6-0.8l-3.551-0.65l-3.6-0.55l-3.5-0.4l-3.5-0.3l-3.449-0.15l-2.801-0.1
	l-2.6-0.1l-2.35-0.1l-1.1-0.05h-1l-1.9-0.1l-1.701-0.1l-1.499-0.1l-1.2-0.1l-0.3-0.4l-0.2-0.4l-0.199-0.45l-0.101-0.4L88.8,8.9
	l-0.05-0.5L88.7,7.85l0.05-0.55l0.05-1.15l0.15-1.05l0.25-0.95l0.45-0.8L89.75,3V2.85l0.051-0.05l-0.15-0.05H89.5l-0.1,0.1
	L89.15,2.9l-0.2,0.15L88.7,3.2l-0.25,0.25l-0.35,0.2l-0.35,0.3l-0.4,0.3l-0.4,0.4l-0.8,0.6L85.4,6l-0.8,0.85l-0.7,1L83.1,8.9
	l-0.7,1.25l-0.8,1.35l-0.7,1.45l-1.65-0.7l-1.55-0.6l-1.45-0.7l-1.35-0.6L72.8,9.4l-2.1-0.65L68.6,8.3l-2.1-0.15l0.3,0.5l0.45,0.7
	l0.45,0.85l0.6,1.1l0.6,1.2l0.7,1.4l0.75,1.55l0.85,1.75l-1-0.15l-1.05-0.1l-1.2-0.1H66.7h-1.45l-1.5,0.05L62.1,17L60.4,17.15
	L60.4,17.15z M143.301,50.1l0.398,0.25v0.05L143.301,50.1L143.301,50.1z M127,90.649l0.199,0.601l0.201,0.8l0.299,1.9l0.051,0.899
	l0.1,0.95v0.85v0.9l-0.1,0.8l-0.051,0.4v0.45l1.9-0.75l1.85-0.65l-0.1,0.35l-4.25,1.7l-0.299-1.1l-0.25-0.95l0.1-0.1l0.15-0.101
	l0.1-0.2l0.049-0.1l0.102-0.05l0.049-0.3l0.1-0.25V96.35l0.051-0.3l-0.1-0.7l-0.1-0.35l-0.102-0.3l-0.199-0.4l-0.1-0.2L126.6,94
	v-0.05l-0.449-0.7l-0.451-0.55l-0.35-0.2l-0.25,0.05l-0.049,0.35h-0.201l-0.35,0.051L124.301,93l-0.201,0.149l-0.549,0.351
	l-0.602,0.55l-0.1-0.05v0.149l-0.299,0.25L121.6,95.2l-0.4,0.35l-0.299,0.35l-0.35,0.25l-0.25,0.25l-0.352,0.351l-0.299-0.351
	L119.5,96.2l-0.1-0.15l-0.5-0.75l-0.6-0.85l-0.5-0.95l0.35-0.601l0.4-0.5l0.299-0.449l0.301-0.351l1.049,2.5l2-1.05l0.9-0.5l0.9-0.4
	l1.6-0.85L127,90.649L127,90.649z M116,91.05L115.85,91l-0.299,0.05l-0.25,0.15L115.1,91.1l-0.15,0.05l-0.1,0.15v0.3l-0.449,0.45
	L114,92.7l-0.5,0.75l-0.25,0.399l-0.199,0.5L112.6,94.8l-0.35,0.45l-0.551,0.7l-0.449,0.5l-0.15,0.199L111,96.8l-0.85-1.3
	l-0.75-1.15l-0.701-1.05l-0.648-0.95l-0.65-0.85l-0.551-0.75l-0.5-0.65l-0.4-0.55l0.75-1.3l0.852-1.351l0.299,0.95l0.4,0.851
	l2.449,5.399l0.551-0.45l0.65-0.55l0.699-0.649l0.85-0.7l0.852-0.851l1-0.949l1.049-1.051l1.15-1.1l0.75,1.8l-0.551,0.45l-0.299,0.3
	l-0.25,0.4l-0.301-0.101h-0.25h-0.15l-0.1,0.101l-0.199,0.1L116,91.05L116,91.05z M93.699,83.85l0.352,0.65l1.1,1.75l0.549,0.8
	l0.602,0.85l0.5,0.75l0.549,0.801l1.1,1.449l0.551-0.5l0.301-0.3l0.398-0.25l0.852-0.7l0.949-0.8l1.051-1l0.549-0.55l0.65-0.5
	l1.35-1.2l1.451-1.25l0.299,1.05l0.15,0.5l0.199,0.55l-1.5,0.75l-1.398,1.149l-0.352-0.2l-0.199,0.101l-0.15,0.3v0.5l-0.4,0.3
	l-0.35,0.4L102,90.2l-2.051,2.199L98.1,94.7l-0.85-1.65l-0.65-1.4L96.051,90.5L95.6,89.649l-0.549-0.8l-0.352-0.8l0.102-0.3l0.1-0.2
	l0.049-0.15L95,87.35l-0.051-0.399l-0.1-0.25l-0.15-0.301L94.5,86.25l-0.301-0.15h-0.35l-0.299,0.15l-0.4-0.3l-0.301-0.1L92.5,85.9
	l-0.199,0.15l-0.102,0.15l-0.1,0.149l0.051,0.25L92,86.75L91.9,87l-0.051,0.75l0.1,0.2L91.6,88.3l-0.299,0.45l-0.351,0.5l-0.3,0.6
	L90,90.75l-0.65,1.05l-0.7,1.1l-0.7,1.2L87.3,92.7l-0.5-1.25l-0.5-1.15l-0.35-0.95l-0.25-1l-0.2-0.85l0.4-0.55l0.15-0.25l0.2-0.15
	l0.15-0.25l0.05-0.1h0.05l-0.05-0.3v-0.2l-0.1-0.35L86.2,85.1L86,84.95l-0.3-0.05h-0.2L85.35,85l-0.4,0.15L84.5,85.5l-0.1-0.1
	l-0.35-0.45l-0.3-0.25l-0.25-0.1l-0.15,0.05l-0.2,0.15l-0.1,0.35L83,85.6v0.65l0.1,0.35l-0.45,0.351l-0.6,0.449l-0.65,0.65
	l-0.7,0.65l-0.75,0.8l-0.85,0.8l-0.85,0.95L77.3,92.2l-0.95,1.1l-0.1-0.1L76.2,93.1l-0.1-0.25l-0.1-0.2l-0.05-0.199L75.85,92
	l-0.1-0.2l-0.05-0.1v-0.051l-0.1-0.3l-0.2-0.7l-0.1-0.25L75.25,90.2l-0.1-0.4l-0.1-0.25L75,89.35l-0.1-0.45l-0.25-0.649l-0.2-0.55
	l-0.4-0.851l0.5-0.649l0.4-0.45l0.2-0.35l0.05-0.1h0.05l-0.05-0.55l-0.15-0.35l-0.15-0.15l-0.1-0.05l-0.3-0.05l-0.45,0.05
	l-0.25,0.05l-0.2,0.15L73,84.75l-0.65,0.55L72,85.6l-1,0.851l-0.7,0.699L69.7,87.7l-0.25,0.199l-2.1,2.2l-1.8,2.3l-0.3,0.4
	l-0.65,0.95l-0.1-0.15v-0.25l-0.1-0.399V92.5l-0.2-1.851l-0.2-1.5l-0.05-0.5l0.15-0.25h0.05l0.2-0.55l0.25-0.45l0.4-0.75L65.25,86
	l0.1-0.25l0.1-0.15L66.2,90.2l0.85-1l1.05-1l1.15-1.101l1.25-1.15l0.85-0.85l0.8-0.7l0.75-0.65l0.7-0.5l0.6-0.5l0.55-0.35l0.5-0.3
	l0.45-0.15v0.45l0.1,0.6l0.1,0.75l0.2,0.95l0.2,1.05l0.3,1.2l0.35,1.35l0.45,1.5l0.45-0.6l0.25-0.351l0.35-0.3l0.75-0.85l0.4-0.5
	l0.5-0.45l0.95-1.15l1.15-1.2l1.25-1.4l0.65-0.75l0.75-0.7l3.8,8.3l0.7-0.899l0.701-0.801l1.35-1.55l1.199-1.45l0.551-0.7
	L93.699,83.85L93.699,83.85z M148.75,83.4l-0.199,0.35l-0.102,0.35l0.051-0.4l0.1-0.35L148.75,83.4L148.75,83.4z M45.85,96.399
	l-0.2-0.55l-0.15-0.45l-0.3-0.8L45,94.2l-0.15-0.25l-0.1-0.4l-0.05-0.3L44.6,93l-0.1-0.15l-0.15-0.3l-0.1-0.15l-0.2-0.1l-0.15,0.05
	l-0.25,0.05l-0.2,0.2l-0.3,0.25l-0.25,0.4l-0.25,0.05l-0.15,0.15l-0.1,0.449l-0.05,0.051l-0.5,0.449l-0.5,0.551L40.6,95.8l-0.8,1.1
	l-0.35,0.5l-0.6,0.851L38.6,97.5l-0.2-0.601l-0.2-0.449l0.05-0.101V96.2l-0.1-0.65l-0.1-0.25l-0.1-0.15l-0.2-0.199l-0.2-0.101
	L37.1,94.8l-0.3,0.15l-0.7-0.15h-0.35l-0.25,0.15l-0.15,0.1l-0.15,0.4v0.3l0.1,0.3v0.05l0.05,0.101l0.1,0.199l-0.6,0.851l-0.5,0.649
	l-0.45,0.75l-0.55,0.801l-0.5,0.899l-0.45-0.95l-0.35-0.8l-0.35-0.75L31.4,97.2v-0.5v-0.25l0.05-0.2l0.05-1V95l0.15-0.3l0.15-0.2
	l0.25,0.8l0.35,0.95l0.35,1.05l0.45,1.2l0.85-2l1-1.65l1-1.45l1.15-1.1l0.5,0.6l0.55,0.7l1,1.45l0.25,0.45l0.1-0.3l0.2-0.25L40,94.6
	l0.35-0.35l0.3-0.45l0.4-0.45l0.45-0.5l0.55-0.5l0.65-0.8l0.85-0.85l0.85-0.95l1-1l0.3,1.2L46,91l0.2,0.899l0.1,0.4l0.15,0.4
	l1.15-1.45L48.65,90l0.95-1.15l0.45-0.55l0.5-0.45l0.75-0.95l0.35-0.449l0.4-0.351l0.6-0.65l0.25-0.3l0.3-0.2l0.35,0.8l0.55,1.1
	l0.55,1.351l0.7,1.649l0.05-0.2l0.1-0.1V89.5l0.05,0.05H55.5v0.1L55.4,90l0.75,1.95L56.2,92.1l0.5,1.4l0.9-1.15l0.9-1l0.85-1
	l0.85-0.899l-0.6,1l-0.55,0.949L58.5,92.25l-0.5,0.8l-0.5,0.7l-0.45,0.649l-0.4,0.551L56.3,95.5l-0.1,0.149L55.45,93.7l-0.35-0.9
	l-0.25-0.55l-0.3-0.7V91.5h-0.2l-0.2-0.101L54,91.2l-0.1-0.15l-0.3-0.5l0.1,0.15l0.15,0.199L53.95,91L54,91.05l0.1,0.1l0.05,0.051
	l0.1,0.05V91.2h0.05h0.1l-0.3-0.65l-0.25-0.45l-0.25-0.45l-0.2-0.25L53.55,89l0.15-0.3l0.1-0.25l0.05-0.101l-0.05-0.45v-0.35
	l-0.1-0.35l-0.05-0.25l-0.2-0.4l-0.15-0.1h-0.1h-0.4l-0.45,0.25l-0.5,0.399l-0.3,0.3l-0.25,0.4l-0.65,0.65l-0.6,0.8l-0.35,0.399
	l-0.3,0.5L48.8,91.2l-0.4,0.5l-0.35,0.6l-0.7,1.25l-0.75,1.35l-0.4,0.7L45.85,96.399L45.85,96.399z M28.65,95.1l0.05,0.05
	l-0.1,0.101L28.65,95.1L28.65,95.1z M30.95,92.6l-0.4-0.149H30.1h-0.15l0.1-0.301l0.15-0.199l0.2-0.301l0.1,0.2l0.05,0.101
	l0.1,0.149L30.95,92.6L30.95,92.6z M65.15,83.9l0.1,0.75L65.1,84.5L65,84.45l-0.35-0.05L65.15,83.9L65.15,83.9z"/>
<polygon fill-rule="evenodd" fill="#FFCD05" points="63.95,88.649 64,89.149 64.2,90.649 64.4,92.5 64.4,92.95 64.5,93.35 
	64.5,93.6 64.6,93.75 65.25,92.8 64.6,90.55 64.15,88.399 64.1,88.399 63.95,88.649 "/>
<polygon fill-rule="evenodd" fill="#FFCD05" points="38.85,98.25 39.45,97.399 38.95,97.3 38.6,97.05 38.4,96.899 38.6,97.5 
	38.85,98.25 "/>
<polygon fill-rule="evenodd" fill="#FFCD05" points="54.55,91.5 54.75,90.95 55,90.55 55.2,90.2 55.4,90 55.5,89.649 55.5,89.55 
	55.55,89.55 55.5,89.5 55.5,89.55 55.4,89.649 55.35,89.85 55.15,90.05 54.95,90.35 54.65,90.7 54.4,91.2 54.3,91.2 54.25,91.2 
	54.25,91.25 54.15,91.2 54.1,91.149 54,91.05 53.95,91 53.85,90.899 53.7,90.7 53.6,90.55 53.9,91.05 54,91.2 54.15,91.399 
	54.35,91.5 54.55,91.5 "/>
<path fill-rule="evenodd" fill="#FFCD05" d="M124.15,100.399l-0.301-1.149l-0.25-0.95l-0.85,0.45l-0.75,0.5l-1.35,0.95L120,100.6
	l-0.551,0.45l-0.549,0.35l-0.451,0.4l-2.25-6.15L115.801,96l-0.451,0.45l-0.65,0.5l-0.648,0.6l-0.9,0.6l-0.951,0.7l-1.1,0.75
	l-1.15,0.851l-5.199-8.95l-1.1,0.899l-0.951,0.95L101.75,94.2l-0.801,0.899l-0.85,0.75l-0.699,0.8l-0.65,0.7l-0.551,0.75
	l-0.299-0.45l-0.25-0.399l-0.551-0.8l-1.15-1.7l-0.35-0.5l-0.299-0.45l-0.65-0.9l-0.701-0.949l-0.648-0.9l-1.65,1.5l-1.5,1.55
	L88.7,95.7l-1.25,1.649l-3.6-7.75L83.3,90.2l-0.6,0.75l-0.65,0.8l-0.7,0.95l-0.95,1l-0.75,0.949l-0.75,0.75l-0.6,0.75L77.75,96.7
	l-0.45,0.449l-0.35,0.301L76.7,97.7l-0.75-1.351l-0.65-1.2L74.65,94l-0.5-1.05l-0.55-1.051l-0.45-0.85l-0.4-0.85l-0.3-0.65
	L72.1,89.8l-0.3,0.35L71.4,90.5l-0.35,0.45l-0.5,0.399l-0.45,0.5L69.05,93l-1.25,1.25l-1.4,1.45l-1.55,1.55L64,98.1l-0.8,0.95
	l-0.45-1.25l-0.2-0.55l-0.15-0.351l-0.3-0.55l-0.2-0.45l-0.2-0.449l-0.1-0.301l-0.15-0.3l-0.05-0.2l-0.05-0.199l-1,0.899l-0.85,0.9
	l-0.8,0.8l-0.7,0.8l-0.7,0.65l-0.55,0.649l-0.5,0.551l-0.4,0.55l-0.8-1.5l-0.4-0.8l-0.2-0.4l-0.1-0.2l-0.05-0.1V97.2l-0.1-0.15
	l-0.05-0.1l-0.1-0.2l-0.2-0.4l-0.4-0.8l-0.8-1.7l-1.35,1.55l-1.15,1.45l-1.05,1.3l-0.95,1.25l-0.85,1.051l-0.4,0.5l-0.3,0.55
	l-0.35,0.399L46,102.35l-0.45,0.851l-0.3-0.65l-0.75-1.4L43.9,100l-0.6-1l-0.5-0.7l-0.2,0.25l-0.15,0.35l-0.4,0.801l-0.7,1.1
	l-0.55,1.05l-0.55,0.851l-0.4,0.8l-0.4,0.6l-0.3,0.55L38.9,105l-0.1,0.3l-0.55-1.05l-0.4-0.9l-0.35-0.85l-0.25-0.65l-0.25-0.6
	l-0.1-0.45l-0.1-0.35l0.05-0.25l-0.35,0.199l-0.3,0.351l-0.35,0.399l-0.3,0.5l-0.7,1.101l-0.35,0.649l-0.3,0.801l-0.75,1.449
	l-0.6,1.45l-0.1-0.05H32.7h-0.1l-0.2-0.15l-0.1-0.1l-0.05-0.05l-0.1-0.101l-0.2-0.35l-0.3-0.45l-0.25-0.5l-0.3-0.649l-0.1-0.2
	l-0.05-0.101v-0.05l-0.1-0.3l0.3,9.65l0.15,2.8l0.25,3l0.25,3.149l0.3,3.301l0.1,1.5l0.1,1.449l0.1,1.351v0.3v0.15l0.05,0.199
	l0.1,0.7l0.1,1.15l0.1,1.149l0.1,1.051l0.1,1v0.85l0.1,0.8l0.05,0.7l0.1,0.65v0.55v0.2v0.1v0.05l0.05,0.101v0.35l0.1,0.35v0.15v0.1
	v0.15v0.1v0.5l0.05,0.5l0.1,0.801v0.3l0.05,0.3v0.25v0.1v0.051l0.05,0.1l-0.05,0.3v0.25l-0.05,0.2v0.2v0.05l3.1,2.35l3.2,2.2
	l3.2,2.05l3.25,1.95l3.25,1.75l3.3,1.601l3.3,1.449l3.35,1.351l3.35,1.1l3.4,1l3.4,0.851l3.5,0.75l3.45,0.5l3.5,0.399l3.55,0.25
	l3.6,0.101l0.9-0.051h0.951l1.899-0.05l3.7-0.25l3.6-0.45l3.6-0.55l3.5-0.8l1.701-0.45l0.398-0.149l0.451-0.101l0.9-0.2l0.799-0.3
	l0.4-0.149l0.449-0.101l1.701-0.55l1.65-0.6l1.699-0.601l3.199-1.45l1.551-0.8l1.6-0.75l1.5-0.899l0.35-0.25l0.4-0.2l0.801-0.4
	l1.5-0.95l0.75-0.5l0.799-0.449l0.701-0.551l0.75-0.5l1.5-1.05l2.9-2.2L136.6,146l2.801-2.55l0.15-0.65l0.25-0.65l0.25-0.699
	l0.35-0.7l0.449-1.101l0.6-1.149l-0.799,0.25l-0.65,0.1l-0.699,0.25l-0.301,0.05l-0.551,0.2l0.301-1.25l0.35-1.35l0.4-1.55l0.5-1.65
	l0.85-3.7l0.85-3.55l0.65-3.55l0.65-3.4l0.449-3.35l0.451-3.25l0.35-3.2l0.25-3.05l-0.75,0.35l-0.801,0.4l-1.799,0.95l-2.1,1.05
	l-1.15,0.55l-1.201,0.65v-0.4l0.15-0.45l0.15-0.55l0.25-0.6l0.25-0.75l0.4-0.75l0.4-0.851l0.5-0.899L137.6,105.6l-1.049,0.45
	l-1.051,0.4l-0.9,0.449l-0.9,0.351l-0.799,0.399l-0.75,0.301l-0.6,0.35l-0.15-1.2l-0.1-1.05l-0.102-0.9v-0.75l-0.1-0.649v-0.45
	v-0.35v-0.15v-1l-0.25,0.1l-0.949,0.75l-1,0.851l-1.15,0.899l-1.15,1.051l-0.299-0.101l-0.102-0.1l-0.049-0.05l-0.1-0.101
	l-0.301-0.399l-0.301-0.551l-0.199-0.399l-0.1-0.2l-0.051-0.1v-0.051l-0.299-0.85l-0.201-0.5l-0.15-0.5L124.15,100.399
	L124.15,100.399z M96.6,111.35l0.051,0.2v0.05l0.1-0.05l0.35-0.3l0.451-0.25l0.949-0.5l1.051-0.601l0.549-0.3l0.65-0.25l1.551-0.75
	l1.5-0.6l0.699-0.3l0.75-0.2l1.35-0.351l1.25-0.25l1.201-0.1l0.549-0.05l0.6,0.05l1.051,0.15l0.75-0.101h0.65l0.549,0.05l0.5,0.15
	l0.352,0.15l0.25,0.25l0.148,0.25l0.15,0.35l-0.75-0.05l-0.799,0.05l-0.852,0.1l-0.898,0.2l-1,0.2l-1,0.3l-1.102,0.3l-1.148,0.4
	l-2.4,0.8l-2.201,0.851l-2,0.899l-1.799,0.95l-0.951,0.45l-0.75,0.45l-0.648,0.35l-0.451,0.3l-0.15,0.351v0.3l0.051,2.7l0.301,2.85
	l0.398,2.95l0.301,1.5l0.4,1.6l0.299,1.45l0.301,1.45l0.199,1.25l0.102,0.6l0.148,0.601l0.051,0.5l0.1,0.5v0.199v0.101v0.05
	l0.051,0.1l0.1,0.5v0.4l0.051,0.4v0.35l0.049,0.4v0.3l0.051,0.2l0.1,0.25v0.05l0.051,0.1v0.05l0.049,0.101l-0.049,0.1V137v0.25
	l-0.102,0.2l-0.049,0.1v0.15l-0.15,0.1l-0.1,0.15L98.1,138.1L97.9,137.95l-0.1-0.2l-0.201-0.3l-0.1-0.351l-0.199-0.1l-0.201-0.15
	L96.9,136.6l-0.201-0.3l-0.199-0.4l-0.199-0.449l-0.201-0.551l-0.1-0.6l-0.199-0.7l-0.15-0.75L95.449,132l-0.1-0.9l-0.199-1
	l-0.1-1.05l-0.201-1.15l-0.1-1.199l-0.25-2.45l-0.199-2.15l-0.102-0.95l-0.049-0.85l-0.1-1.45l-0.102-1.149l-0.049-0.45v-0.351
	l-0.051-0.35v-0.15v-0.149v-0.95l0.051-0.8l0.1-0.7l0.199-0.55l0.352-0.8l0.549-0.551l0.65-0.399L96.6,111.35L96.6,111.35z
	 M53.55,97.8l0.05,0.05h-0.05V97.8L53.55,97.8z M57.05,100.5l0.05-0.05l1.35-0.301L60,99.95l1.55-0.15l1.75-0.05l1.35-0.101h1.4h1.3
	l1.3,0.101l2.4,0.25l2.2,0.45l1,0.25l0.95,0.3l0.75,0.3l0.65,0.4l0.45,0.35l0.4,0.4l0.2,0.449l0.1,0.5l-0.05,0.4l-0.1,0.4l-0.1,0.05
	l-0.05,0.1l-0.15,0.2l-0.2,0.1L77,104.7l-0.05,0.1l-0.3,0.05l-0.25,0.101h-0.3h-0.15l-0.1,0.05l-0.1-0.05h-0.1l-0.2-0.051H75.3
	l-0.25-0.1l-0.1-0.05H74.9h-0.1l-0.65-0.101l-0.85-0.199l-1-0.2l-0.6-0.15l-0.55-0.1l-0.35-0.101l-0.3-0.05l-0.65-0.1l-1.35-0.351
	l-1.2-0.25l-1.1-0.199l-0.95-0.15l-0.85-0.15l-0.7-0.1l-0.6-0.05h-0.45l-1.85,0.05l-2,0.25l-1.95,0.25l-1.95,0.45l-2.15,0.55
	l-2.2,0.65l-1,0.3l0.45-1.15l0.35-0.5l0.45-0.45l0.45-0.449l0.65-0.4l0.65-0.35l0.8-0.25l1.7-0.551l1.9-0.449H57L57.05,100.5
	L57.05,100.5z M75.25,113.05l1.45-0.1l0.35,0.649l0.3,0.4l0.45,0.5l0.15,0.149l0.1,0.851l0.2,1.05l0.2,1.15l0.25,1.35l0.05,0.2
	l0.15,1.1l0.2,1.05l0.1,0.95l0.1,0.851v0.75v0.649l-0.05,0.101v0.149v0.3l-0.05,0.101v0.149v0.301l0.65,0.199l0.65,0.301l0.5,0.3
	l0.45,0.3l0.35,0.25l0.25,0.3l0.15,0.3l0.05,0.301l-0.05,0.199v0.2l-0.1,0.15l-0.1,0.2l-0.2,0.1l-0.15,0.1H81.5l-0.1,0.051L81.2,129
	l-0.1-0.05h-0.05l-0.25-0.101l-0.3-0.149l-0.2-0.101l-0.1-0.05h-0.05l-0.15-0.1l-0.1-0.051l-0.2-0.1l-0.3-0.15l-0.25-0.1l-0.35-0.2
	l-0.3-0.149l-0.35-0.2l-0.3-0.15l-1.5-0.75l-1.4-0.5l-1.4-0.3l-1.25-0.1l-2.6,0.05L67.35,126l-1.45,0.3l-1.5,0.4l-1.65,0.449
	L61.1,127.7l-1.35,0.449l-1.15,0.601l-1.25,0.8l-1.1,0.9l-1.1,0.899l-0.95,1l-0.35-0.1l-0.15-0.15v-0.25l0.1-0.6l0.4-0.601
	l0.6-0.699l0.4-0.4l0.55-0.35l-1.15,0.199l-1.05,0.2l-1,0.101l-0.85,0.1h-0.9l-0.75,0.05l-0.7-0.05l-0.6-0.05l-0.45-0.15l-0.35-0.1
	l-0.65-0.3l-0.55-0.4l-0.35-0.45l-0.5-0.899l-0.25-0.9l-0.15-0.95l0.05-0.899l0.15-1l0.35-1l0.45-1.051l0.3-0.55l0.4-0.5l-0.25-0.05
	h-0.1l-0.05-0.1l0.1-0.051l0.1-0.149l0.25-0.101l0.35-0.199l0.45-0.15l0.45-0.25l0.65-0.25l0.65-0.3l0.85-0.25l0.85-0.4l0.95-0.35
	l1.05-0.4l1.2-0.35l2.35-0.9l2.45-0.75l2.5-0.649l2.55-0.551l2.55-0.55l2.65-0.35l2.7-0.3L75.25,113.05L75.25,113.05z M71.95,138.3
	H71.9v0.05v0.101l-0.05,0.199l-0.2,0.15h-0.1H71.5v0.05h-0.2l-0.1-0.05h-0.05l-0.35-0.25l-0.15-0.3l-0.15-0.4v-0.45l-0.05-0.3v-0.2
	v-0.35l-0.1-0.25l-0.05-0.05L70,136.1l-0.2,0.05l-0.5,0.25l-0.5,0.2h-0.2l-0.15-0.05l-0.2-0.15l-0.1-0.1l-0.1-0.2l0.05-0.149v-0.25
	l0.55-0.75l0.3-0.25l0.4-0.101l0.35-0.05l0.45,0.05l0.95,0.351l0.4,0.25l0.35,0.3l0.25,0.3l0.15,0.4l0.05,0.35l-0.05,0.4
	l-0.15,0.449l-0.15,0.5l-0.05,0.15L71.95,138.3L71.95,138.3z M60.75,150.85l0.05-0.25v-0.1l0.1-0.05l0.15-0.15l0.25-0.1l0.25-0.2
	l0.35-0.15l0.35-0.2l0.45-0.199l0.95-0.601l0.9-0.6l0.8-0.7l0.8-0.75l0.55-0.6l0.7-0.5l0.85-0.5l0.95-0.45l0.4-0.25l0.45-0.15
	l0.8-0.149l0.4-0.351l0.6-0.45l0.25-0.199l0.3-0.101l0.35-0.149l0.3-0.051l0.1,0.051V143l0.05,0.149l-0.1,0.351l-0.1,0.2l-0.1,0.3
	l-0.05,0.1l0.7,0.3l0.05,0.101l0.25,0.3l0.25,0.45l0.45,0.649l0.6,0.7l0.7,0.65l0.75,0.6l0.8,0.55l4.45,2.15l0.1-0.05v0.1l0.3,0.2
	l-0.05,0.3l-0.1,0.05L82,151.25l-0.35,0.1l-0.05,0.101l0.05-0.101l-0.3-0.05h-0.3l-0.4-0.1l-0.4-0.051l-0.3-0.05l-1-0.35l-1-0.351
	l-1.05-0.5l-1-0.55l-0.6-0.45l-0.6-0.5l-0.6-0.649L73.6,147l-0.45-0.75l-0.35-0.5l-0.25-0.351l-0.05-0.1l-0.4-0.15l-0.4-0.05
	l-0.4,0.25l-0.4,0.351l-0.55,0.399l-0.45,0.45l-0.45,0.4l-0.35,0.449l-0.7,0.801l-0.3,0.35l-0.2,0.4l-0.15,0.1l-0.1,0.15l-0.2,0.3
	l-0.4,0.55l-0.5,0.5l-0.25,0.2L66.1,151l-0.3,0.149l-0.25,0.2l-0.5,0.351l-0.6,0.3l-0.55,0.3l-1.1,0.3l-0.95,0.101l-0.5-0.051
	l-0.4-0.1l-0.75-0.3l-0.95-0.65l-0.45-0.35l-0.35-0.3l-0.65-0.7l-0.5-0.7l-0.4-0.8l-0.25-0.8l-0.15-0.9l0.05-0.9l0.2-0.85l0.2-0.7
	l0.15-0.649l0.2-0.45l0.1-0.45l0.1-0.25l0.05-0.15l0.1-0.05l0.45-0.75l0.5-0.5l0.5-0.399l0.6-0.15l-0.05,0.1v0.15v0.25l-0.05,0.2
	v0.149l-0.15,0.15l-0.25,0.3l-0.35,0.3l-0.35,0.45l-0.35,0.7l-0.25,0.8l-0.15,0.8v0.9v0.65l0.15,0.699l0.2,0.65l0.35,0.65l0.35,0.55
	l0.55,0.55l0.55,0.5l0.75,0.5L60.75,150.85L60.75,150.85z M137.449,139.7v0.05l-0.049,0.05l-2.35,0.75l1.299-0.5L137.449,139.7
	L137.449,139.7z M137.449,139.899l-0.148,0.801l-0.4,1.05L137.449,139.899L137.449,139.899z M127.301,125.7l-0.051,0.25l0.199,0.399
	l0.201,0.55l0.1,0.65l0.051,0.75l-0.051,0.45l-0.1,1.399l-0.201,0.801l-0.25,0.899l-0.35,0.8L126.65,133l-0.15,0.399l-0.449,0.7
	l-0.551,0.7l-0.199,0.1l-0.102,0.051l-0.049,0.1l-0.301,0.3l-0.4,0.25l-0.35,0.3l-0.449,0.2l-0.4,0.25l-0.449,0.2l-0.4,0.25
	l-0.5,0.1L121.449,137h-0.299H121l-0.1,0.05l-0.5,0.1h-0.6h-0.551l-0.6-0.05h-0.6l-0.701-0.149l-0.65-0.101l-0.398-0.1l-0.201-0.05
	h-0.15l-0.699-0.15l-0.801-0.25l-0.75-0.2l-0.799-0.3l-0.801-0.25l-0.449-0.2l-0.4-0.149l-0.801-0.301l-1.898-0.85l-1.701-0.8
	l-1.449-0.75l-1.201-0.7l-1.049-0.7l-0.801-0.6l-0.549-0.601l-0.301-0.5l-0.4-1.199l-0.15-0.65l-0.049-0.6l-0.051-1.301l0.051-0.699
	l0.15-0.65l0.148-0.75l0.051-0.35l0.1-0.25l0.1-0.5l0.15-0.351l0.051-0.35v-0.101h0.049l0.201-0.699l0.449-0.551l-0.1-0.149
	l-0.1-0.05L102.1,120.1v-0.2l0.1-0.25l0.201-0.35l0.5-0.25l0.699-0.15l0.451-0.05l0.6,0.05l1.199,0.051l1.5,0.25l1.75,0.35
	l2.051,0.45l0.5,0.1l0.85,0.25l1.1,0.25l1.451,0.4l0.85,0.2l0.949,0.25l1.051,0.3l1.15,0.3l2.549,0.65l1.35,0.399l1.551,0.45
	l0.551,0.1l0.5,0.2L126,124l0.4,0.2l0.299,0.149l0.25,0.2l0.4,0.4V125l0.051,0.1v0.2L127.301,125.7L127.301,125.7z M103.1,144
	l-0.1,0.399l-0.301,0.4l-0.5,0.3l-0.299,0.15l-0.301,0.2l-0.5,0.1l-0.5,0.15l-1.1,0.199l-0.699,0.051l-0.701,0.1h-0.75h-0.4H96.75
	h-0.1H96.6v0.05l-0.65-0.05l-0.299-0.1l-0.201-0.051l-0.25-0.149l-0.148-0.101l-0.201-0.3l-0.1-0.55v-0.15v-0.05l0.051-0.5L95,143.7
	l0.301-0.351l0.5-0.25l0.549-0.25l0.75-0.1l0.85-0.05l1,0.05h0.9l0.85,0.1l0.701,0.101l0.65,0.149l0.398,0.15l0.352,0.2L103,143.7
	L103.1,144L103.1,144z"/>
<polygon fill-rule="evenodd" fill="#F8981D" points="96.65,111.55 96.6,111.35 95.75,111.5 95.1,111.899 94.551,112.45 
	94.199,113.25 94,113.8 93.9,114.5 93.85,115.3 93.85,116.25 93.85,116.399 93.85,116.55 93.9,116.899 93.9,117.25 93.949,117.7 
	94.051,118.85 94.15,120.3 94.199,121.149 94.301,122.1 94.5,124.25 94.75,126.7 94.85,127.899 95.051,129.05 95.15,130.1 
	95.35,131.1 95.449,132 95.65,132.85 95.801,133.6 96,134.3 96.1,134.899 96.301,135.45 96.5,135.899 96.699,136.3 96.9,136.6 
	97.1,136.85 97.301,137 97.5,137.1 97.6,137.45 97.801,137.75 97.9,137.95 98.1,138.1 98.4,137.95 98.5,137.8 98.65,137.7 
	98.65,137.55 98.699,137.45 98.801,137.25 98.801,137 98.801,136.85 98.85,136.75 98.801,136.649 98.801,136.6 98.75,136.5 
	98.75,136.45 98.65,136.2 98.6,136 98.6,135.7 98.551,135.3 98.551,134.95 98.5,134.55 98.5,134.149 98.4,133.649 98.35,133.55 
	98.35,133.5 98.35,133.399 98.35,133.2 98.25,132.7 98.199,132.2 98.051,131.6 97.949,131 97.75,129.75 97.449,128.3 97.15,126.85 
	96.75,125.25 96.449,123.75 96.051,120.8 95.75,117.95 95.699,115.25 95.699,114.95 95.85,114.6 96.301,114.3 96.949,113.95 
	97.699,113.5 98.65,113.05 100.449,112.1 102.449,111.2 104.65,110.35 107.051,109.55 108.199,109.149 109.301,108.85 
	110.301,108.55 111.301,108.35 112.199,108.149 113.051,108.05 113.85,108 114.6,108.05 114.449,107.7 114.301,107.45 
	114.051,107.2 113.699,107.05 113.199,106.899 112.65,106.85 112,106.85 111.25,106.95 110.199,106.8 109.6,106.75 109.051,106.8 
	107.85,106.899 106.6,107.149 105.25,107.5 104.5,107.7 103.801,108 102.301,108.6 100.75,109.35 100.1,109.6 99.551,109.899 
	98.5,110.5 97.551,111 97.1,111.25 96.75,111.55 96.65,111.6 96.65,111.55 "/>
<polygon fill-rule="evenodd" fill="#F8981D" points="57.1,100.45 57.05,100.5 57,100.45 56.95,100.45 55.05,100.899 53.35,101.45 
	52.55,101.7 51.9,102.05 51.25,102.45 50.8,102.899 50.35,103.35 50,103.85 49.55,105 50.55,104.7 52.75,104.05 54.9,103.5 
	56.85,103.05 58.8,102.8 60.8,102.55 62.65,102.5 63.1,102.5 63.7,102.55 64.4,102.649 65.25,102.8 66.2,102.95 67.3,103.149 
	68.5,103.399 69.85,103.75 70.5,103.85 70.8,103.899 71.15,104 71.7,104.1 72.3,104.25 73.3,104.45 74.15,104.649 74.8,104.75 
	74.9,104.75 74.95,104.75 75.05,104.8 75.3,104.899 75.45,104.899 75.65,104.95 75.75,104.95 75.85,105 75.95,104.95 76.1,104.95 
	76.4,104.95 76.65,104.85 76.95,104.8 77,104.7 77.1,104.649 77.3,104.55 77.45,104.35 77.5,104.25 77.6,104.2 77.7,103.8 
	77.75,103.399 77.65,102.899 77.45,102.45 77.05,102.05 76.6,101.7 75.95,101.3 75.2,101 74.25,100.7 73.25,100.45 71.05,100 
	68.65,99.75 67.35,99.649 66.05,99.649 64.65,99.649 63.3,99.75 61.55,99.8 60,99.95 58.45,100.149 57.1,100.45 "/>
<polygon fill-rule="evenodd" fill="#F8981D" points="76.7,112.95 75.25,113.05 72.45,113.2 69.75,113.5 67.1,113.85 64.55,114.399 
	62,114.95 59.5,115.6 57.05,116.35 54.7,117.25 53.5,117.6 52.45,118 51.5,118.35 50.65,118.75 49.8,119 49.15,119.3 48.5,119.55 
	48.05,119.8 47.6,119.95 47.25,120.149 47,120.25 46.9,120.399 46.8,120.45 46.85,120.55 46.95,120.55 47.2,120.6 46.8,121.1 
	46.5,121.649 46.05,122.7 45.7,123.7 45.55,124.7 45.5,125.6 45.65,126.55 45.9,127.45 46.4,128.35 46.75,128.8 47.3,129.2 
	47.95,129.5 48.3,129.6 48.75,129.75 49.35,129.8 50.05,129.85 50.8,129.8 51.7,129.8 52.55,129.7 53.55,129.6 54.6,129.399 
	55.75,129.2 55.2,129.55 54.8,129.95 54.2,130.649 53.8,131.25 53.7,131.85 53.7,132.1 53.85,132.25 54.2,132.35 55.15,131.35 
	56.25,130.45 57.35,129.55 58.6,128.75 59.75,128.149 61.1,127.7 62.75,127.149 64.4,126.7 65.9,126.3 67.35,126 69.7,125.75 
	72.3,125.7 73.55,125.8 74.95,126.1 76.35,126.6 77.85,127.35 78.15,127.5 78.5,127.7 78.8,127.85 79.15,128.05 79.4,128.149 
	79.7,128.3 79.9,128.399 80,128.45 80.15,128.55 80.2,128.55 80.3,128.6 80.5,128.7 80.8,128.85 81.05,128.95 81.1,128.95 81.2,129 
	81.4,128.95 81.5,128.899 81.65,128.899 81.8,128.8 82,128.7 82.1,128.5 82.2,128.35 82.2,128.149 82.25,127.95 82.2,127.649 
	82.05,127.35 81.8,127.05 81.45,126.8 81,126.5 80.5,126.2 79.85,125.899 79.2,125.7 79.2,125.399 79.2,125.25 79.25,125.149 
	79.25,124.85 79.25,124.7 79.3,124.6 79.3,123.95 79.3,123.2 79.2,122.35 79.1,121.399 78.9,120.35 78.75,119.25 78.7,119.05 
	78.45,117.7 78.25,116.55 78.05,115.5 77.95,114.649 77.8,114.5 77.35,114 77.05,113.6 76.7,112.95 "/>
<polygon fill-rule="evenodd" fill="#F8981D" points="71.85,138.649 71.9,138.45 71.9,138.35 71.9,138.3 71.95,138.3 71.9,138.05 
	71.95,137.899 72.1,137.399 72.25,136.95 72.3,136.55 72.25,136.2 72.1,135.8 71.85,135.5 71.5,135.2 71.1,134.95 70.15,134.6 
	69.7,134.55 69.35,134.6 68.95,134.7 68.65,134.95 68.1,135.7 68.1,135.95 68.05,136.1 68.15,136.3 68.25,136.399 68.45,136.55 
	68.6,136.6 68.8,136.6 69.3,136.399 69.8,136.149 70,136.1 70.3,136.25 70.35,136.3 70.45,136.55 70.45,136.899 70.45,137.1 
	70.5,137.399 70.5,137.85 70.65,138.25 70.8,138.55 71.15,138.8 71.2,138.8 71.3,138.85 71.5,138.85 71.5,138.8 71.55,138.8 
	71.65,138.8 71.85,138.649 "/>
<path fill-rule="evenodd" fill="#F8981D" d="M60.75,150.85l-0.1-0.05l-0.75-0.5l-0.55-0.5l-0.55-0.55l-0.35-0.55l-0.35-0.65
	l-0.2-0.65l-0.15-0.699v-0.65v-0.9l0.15-0.8l0.25-0.8l0.35-0.7l0.35-0.45l0.35-0.3l0.25-0.3l0.15-0.15V141.5l0.05-0.2v-0.25v-0.15
	l0.05-0.1l-0.6,0.15l-0.5,0.399l-0.5,0.5l-0.45,0.75l-0.1,0.05l-0.05,0.15l-0.1,0.25l-0.1,0.45l-0.2,0.45l-0.15,0.649l-0.2,0.7
	l-0.2,0.85l-0.05,0.9l0.15,0.9l0.25,0.8l0.4,0.8l0.5,0.7l0.65,0.7l0.35,0.3l0.45,0.35l0.95,0.65l0.75,0.3l0.4,0.1l0.5,0.051
	l0.95-0.101l1.1-0.3l0.55-0.3l0.6-0.3l0.5-0.351l0.25-0.2L66.1,151l0.2-0.25l0.25-0.2l0.5-0.5l0.4-0.55l0.2-0.3l0.1-0.15l0.15-0.1
	l0.2-0.4l0.3-0.35l0.7-0.801l0.35-0.449l0.45-0.4l0.45-0.45l0.55-0.399l0.4-0.351l0.4-0.25l0.4,0.05l0.4,0.15l0.05,0.1l0.25,0.351
	l0.35,0.5L73.6,147l0.5,0.75l0.6,0.649l0.6,0.5l0.6,0.45l1,0.55l1.05,0.5l1,0.351l1,0.35l0.3,0.05l0.4,0.051l0.4,0.1h0.3l0.3,0.05
	l0.35-0.1l0.1-0.101l0.1-0.05l0.05-0.3l-0.3-0.2l-0.1-0.05l-4.45-2.15l-0.8-0.55l-0.75-0.6l-0.7-0.65l-0.6-0.7l-0.45-0.649
	l-0.25-0.45l-0.25-0.3l-0.05-0.101l-0.7-0.3l0.05-0.1l0.1-0.3l0.1-0.2l0.1-0.351L73.15,143v-0.05l-0.1-0.051l-0.3,0.051L72.4,143.1
	l-0.3,0.101l-0.25,0.199l-0.6,0.45l-0.4,0.351l-0.8,0.149l-0.45,0.15l-0.4,0.25l-0.95,0.45l-0.85,0.5l-0.7,0.5l-0.55,0.6l-0.8,0.75
	l-0.8,0.7l-0.9,0.6l-0.95,0.601l-0.45,0.199l-0.35,0.2L61.55,150l-0.25,0.2l-0.25,0.1l-0.15,0.15l-0.1,0.05v0.1L60.75,150.85
	L60.75,150.85z M66.45,148.149l0.8-0.699l-0.35,0.449l-0.25,0.25l-0.2,0.351l-0.3,0.3l-0.25,0.4l-0.55,0.85l-0.9,0.6l-0.4,0.25
	l-0.4,0.2l-0.8,0.2l-0.4,0.05h-0.4l0.35-0.2l0.45-0.199l0.5-0.301l0.55-0.35l0.55-0.45l0.6-0.5l0.65-0.6L66.45,148.149
	L66.45,148.149z"/>
<polygon fill-rule="evenodd" fill="#FFCD05" points="67.25,147.45 66.45,148.149 65.7,148.75 65.05,149.35 64.45,149.85 63.9,150.3 
	63.35,150.649 62.85,150.95 62.4,151.149 62.05,151.35 62.45,151.35 62.85,151.3 63.65,151.1 64.05,150.899 64.45,150.649 
	65.35,150.05 65.9,149.2 66.15,148.8 66.45,148.5 66.65,148.149 66.9,147.899 67.25,147.45 "/>
<polygon fill-rule="evenodd" fill="#F8981D" points="137.449,139.75 137.449,139.7 136.35,140.05 135.051,140.55 137.4,139.8 
	137.449,139.75 "/>
<polygon fill-rule="evenodd" fill="#F8981D" points="137.301,140.7 137.449,139.899 136.9,141.75 137.301,140.7 "/>
<path fill-rule="evenodd" fill="#F8981D" d="M127.25,125.95l0.051-0.25l0.1-0.4v-0.2l-0.051-0.1v-0.05l-0.4-0.4l-0.25-0.2
	L126.4,124.2L126,124l-0.449-0.15l-0.5-0.2l-0.551-0.1l-1.551-0.45l-1.35-0.399l-2.549-0.65l-1.15-0.3l-1.051-0.3l-0.949-0.25
	l-0.85-0.2l-1.451-0.4l-1.1-0.25l-0.85-0.25l-0.5-0.1l-2.051-0.45l-1.75-0.35l-1.5-0.25l-1.199-0.051l-0.6-0.05l-0.451,0.05
	l-0.699,0.15l-0.5,0.25l-0.201,0.35l-0.1,0.25v0.2l0.051,0.101l0.1,0.05l0.1,0.149l-0.449,0.551l-0.201,0.699h-0.049v0.101
	l-0.051,0.35l-0.15,0.351l-0.1,0.5l-0.1,0.25l-0.051,0.35l-0.148,0.75l-0.15,0.65l-0.051,0.699l0.051,1.301l0.049,0.6l0.15,0.65
	l0.4,1.199l0.301,0.5l0.549,0.601l0.801,0.6l1.049,0.7l1.201,0.7l1.449,0.75l1.701,0.8l1.898,0.85l0.801,0.301l0.4,0.149l0.449,0.2
	l0.801,0.25l0.799,0.3l0.75,0.2l0.801,0.25l0.699,0.15h0.15l0.201,0.05l0.398,0.1l0.65,0.101l0.701,0.149h0.6l0.6,0.05h0.551h0.6
	l0.5-0.1L121,137h0.15h0.299l0.451-0.101l0.5-0.1l0.4-0.25l0.449-0.2l0.4-0.25l0.449-0.2l0.35-0.3l0.4-0.25l0.301-0.3l0.049-0.1
	l0.102-0.051l0.199-0.1l0.551-0.7l0.449-0.7l0.15-0.399l0.199-0.351l0.35-0.8l0.25-0.899l0.201-0.801l0.1-1.399l0.051-0.45
	l-0.051-0.75l-0.1-0.65l-0.201-0.55L127.25,125.95L127.25,125.95z M119.9,125l0.449,0.2l0.35,0.199l0.25,0.101l0.25,0.1l0.852,0.2
	l0.799,0.25H123l0.199,0.05l0.4,0.101l0.701,0.199l-0.051,0.551v0.449l0.1,0.551v0.899l-0.049,0.9l-0.102,0.55l-0.1,0.6L124,131
	h-0.051v0.05v0.1l-0.1,0.301l-0.25,0.5l-0.199,0.199l-0.1,0.101h-0.051v0.05v0.1l-0.4,0.351l-0.5,0.25l-0.5,0.149l-0.6,0.051h-0.35
	l-0.301,0.05l-0.35-0.101l-0.301-0.05l-0.699-0.149l-0.801-0.2l-0.85-0.2l-0.5-0.2l-0.25-0.1l-0.199-0.05L116.1,132l-0.5-0.15
	l-1.1-0.399l-1.15-0.4l-1-0.4l-1-0.399l-1.549-0.65l-1.352-0.5l-1.199-0.45l-0.949-0.25l-0.852-0.199l-0.648-0.051l-0.5,0.051
	l-0.25,0.149l-0.25,0.15l-0.15,0.1l-0.25-0.1l-0.1-0.2l-0.051-0.4l0.1-0.5l0.1-0.3l0.051-0.55l0.1-0.4v-0.199l0.051-0.101
	l0.049-0.149l0.102-0.95L104,123.8l0.15-1.15l0.25-1.199l0.049-0.351l1.15,0.2l1.15,0.2l1.35,0.2l1.4,0.149l1.449,0.25l1.4,0.3
	l1.451,0.4h0.148l0.301,0.1l0.35,0.15l0.551,0.2l0.549,0.149l0.701,0.25l0.75,0.25l0.949,0.351l0.301,0.05l0.449,0.2l0.451,0.2
	L119.9,125L119.9,125z"/>
<path fill-rule="evenodd" fill="#FFCD05" d="M121.199,125.6l-0.25-0.1l-0.25-0.101l-0.35-0.199L119.9,125l-0.6-0.3l-0.451-0.2
	l-0.449-0.2l-0.301-0.05l-0.949-0.351l-0.75-0.25l-0.701-0.25l-0.549-0.149l-1-0.101l-0.701-0.05H112.9H112.6l-2.9,0.101l-2.898,0.3
	L106,123.55l-0.699,0.1L104.6,123.7l-0.6,0.1l-0.199,0.95l-0.102,0.95l-0.049,0.149l-0.051,0.101v0.199l-0.1,0.4l-0.051,0.55
	l0.15,1.351l0.051,0.149l0.15-0.1l0.25-0.15l0.25-0.149l0.5-0.051l0.648,0.051l0.852,0.199l0.949,0.25l1.199,0.45l1.352,0.5
	l1.549,0.65l1,0.399l1,0.4l1.35,0.1H115h0.15l0.199,0.051l0.701,0.1l1.199,0.1l1.15,0.101h0.949h0.951l0.398-0.05h0.4v-0.051h0.051
	h0.1h0.199h0.4l0.4-0.149l0.4-0.101l0.35-0.199l0.15-0.101l0.199-0.05l0.1-0.15l0.15-0.1l0.301-0.25l0.199-0.3l0.201-0.25l0.049-0.9
	v-0.899l-0.1-0.551v-0.449l0.051-0.551L123.6,126.2l-0.4-0.101L123,126.05h-0.15l-0.799-0.25L121.199,125.6L121.199,125.6z
	 M109.801,125.6h-0.051l0.1-0.2L109.801,125.6L109.801,125.6z"/>
<polygon fill-rule="evenodd" fill="#FFCD05" points="104.449,121.1 104.4,121.45 105.6,121.3 104.449,121.1 "/>
<polygon fill-rule="evenodd" fill="#F8981D" points="101.6,145.45 101.9,145.25 102.199,145.1 102.699,144.8 103,144.399 103.1,144 
	103,143.7 102.801,143.45 102.449,143.25 102.051,143.1 101.4,142.95 100.699,142.85 99.85,142.75 98.949,142.75 97.949,142.7 
	97.1,142.75 96.35,142.85 95.801,143.1 95.301,143.35 95,143.7 94.801,144.1 94.75,144.6 94.75,144.649 94.75,144.8 94.85,145.35 
	95.051,145.649 95.199,145.75 95.449,145.899 95.65,145.95 95.949,146.05 96.6,146.1 96.6,146.05 96.65,146.05 96.75,146.05 
	96.949,146.05 97.35,146.05 98.1,146.05 98.801,145.95 99.5,145.899 100.6,145.7 101.1,145.55 101.6,145.45 "/>
<polygon fill-rule="evenodd" fill="#FFCD05" points="28.25,102.75 28.4,99.7 27.8,102.1 27.55,103.3 27.4,104.55 27.1,106.95 
	27,109.45 27.05,111.149 27.3,112.899 27.3,113.95 27.3,115 27.45,116 27.45,117.55 27.6,119.25 27.75,121.05 28.1,123 
	28.45,125.05 28.95,127.2 29.5,129.5 30.2,131.95 29.75,128.149 29.8,127.55 29.5,124.75 29.1,121.05 28.85,117.6 28.6,114.25 
	28.5,111.1 28.25,103.75 28.25,102.75 "/>
<polygon fill-rule="evenodd" fill="#FFCD05" points="30.55,142.7 30.45,142.35 30.45,142.6 30.55,142.7 "/>
<path fill-rule="evenodd" fill="#CB6928" d="M59.65,2.65l0.7,1.2l0.8,1.35l0.8,1.35l0.9,1.55l0.9,1.55l1,1.65l1,1.7l1.1,1.85
	l-3.7-0.2l-3.6,0.1L56,15l-3.4,0.5l-3.45,0.7l-3.3,0.9l-3.25,1.1l-3.15,1.3L36.3,21l-3.05,1.7l-3,1.9l-2.85,2.15l-2.9,2.3l-2.75,2.6
	l-2.7,2.7l-2.6,3L14.5,39.7l-1.85,2.5l-1.7,2.55L9.4,47.5l-1.45,2.75L6.6,53.2l-1.2,3.05L4.35,59.4l-0.5,1.45l-0.45,1.4l-0.45,1.3
	l-0.35,1.3L2.2,66l-0.35,1.1l-0.3,1.05l-0.25,1L1,70l-0.25,0.8l-0.2,0.75l-0.15,0.7l-0.25,1.1l-0.1,0.45L0,74.2l0.55-0.6l0.75-0.65
	l0.75-0.7L3,71.55l1.1-1l1.05-0.95l1-0.9l0.95-0.8l0.85-0.8l0.85-0.7l0.75-0.7l0.75-0.6l1.2-1.15l0.55-0.5l0.5-0.4l0.4-0.4l0.35-0.3
	l0.3-0.3l0.3-0.2l-0.85,0.95l-0.75,1.05l-1.45,2.3L9.9,67.7l-0.85,1.75L8.2,71.2l-0.75,1.95L6.7,75.1l-0.65,2.05l-0.6,2.15l-0.5,2.3
	L4.2,84.7l-0.6,3.15l-0.55,3.05L2.7,94l-0.35,3l-0.25,3.05L1.95,103v3L2,108.899l0.2,3l0.3,3.051l0.5,3.1l0.55,3.1l0.75,3.2
	l0.85,3.25l1.05,3.3l1.3,3.801l1.55,3.8l0.8,1.85l0.9,1.9l1.95,3.8l1.75,3.25l0.05-0.9l0.1-0.75l0.2-1.399l0.1-1.15l0.05-0.5
	l0.1-0.399l0.3-1.851l0.45-1.55l0.15,0.35l0.25,0.5l0.25,0.5l0.35,0.65l0.75,1.35l0.45,0.75l0.55,0.9l0.5,0.85l0.6,1L21,149.8
	l1.45,2.35l0.8,1.25l0.9,1.4l0.2,0.3l0.1,0.15l0.15,0.2l0.5,0.699l0.2,0.301l0.1,0.149l0.15,0.2l0.5,0.7l0.9,1.25l0.9,1.3l0.8,1.15
	l0.85,1.199l0.75,1.101l0.75,1.1l0.3,0.45l0.35,0.5l0.65,1l0.6,0.9l0.6,0.899l0.5,0.8l0.55,0.801l0.45,0.699L35.2,171l0.25,0.399
	L35.15,169l-0.25-2.101l-0.2-2l-0.2-1.75l-0.2-1.6l-0.15-1.4l-0.1-1.25l-0.1-1l-0.3-2.05l-0.15-1.1l-0.1-1.05l-0.3-2.351L33,150.7
	l-0.05-0.601l-0.1-1.2l-0.1-0.949l-0.1-0.851L32.4,145.2l-0.25-1.351L32,142.8l-0.2-0.95l0.2,0.2l-0.35-3.65l-0.1-0.1l-0.15-1.4
	l-0.3-1.75l-0.25-1.8l-0.4-3.8l-0.35-3.15l-0.25-3l-0.25-2.85l-0.15-2.7l-0.2-2.649l-0.1-2.5l-0.1-2.351v-2.25L29,105.95l0.05-2.051
	L29.1,102l0.1-1.75l0.1-1.7L29.5,97l0.2-1.45L30,94.3l0.2,0.65l0.1,0.25l0.15,0.3l0.3,0.85l0.35,0.9l0.7,1.8l0.6,1.75l0.65,1.8
	l0.6-1.149l0.6-1l0.55-1l0.5-0.851l0.4-0.85l0.4-0.7l0.35-0.65l0.3-0.5l0.4,0.65l0.4,0.6l0.05,0.101l0.1,0.149l0.2,0.301l0.4,0.55
	l0.3,0.45l0.3,0.399l0.1,0.15l0.15,0.2l0.3,0.3l0.75-1.25l0.75-1.05l0.65-1.051l0.7-0.85l0.55-0.85l0.6-0.7l0.5-0.65l0.55-0.5
	l0.3,1.101l0.3,1.1l0.25,1l0.2,1l1.8-2.15l1.85-2L51.05,91L53,89.25l0.15,0.45l0.3,0.55l0.3,0.649L54.2,91.7l0.25,0.5l0.3,0.5
	l0.2,0.449l0.25,0.5l0.4,0.75v0.051l0.05,0.1l0.1,0.2l0.2,0.35l0.2,0.5l0.05,0.2l0.1,0.2l0.1,0.25v0.1l0.05,0.101l-0.05-0.051
	l0.1-0.1l0.1-0.2l0.25-0.25l0.2-0.35l0.35-0.45l0.35-0.55l0.45-0.55l0.45-0.75l0.55-0.75l0.55-0.851l0.7-0.95l0.7-1.05l0.8-1.1
	l0.8-1.2l0.95-1.25l0.2,2.1l0.2,2.25l0.1,2.351l0.1,2.5l9.4-9.05l2.7,8.35v-0.1l0.15-0.15l0.15-0.2l0.3-0.2l0.3-0.35l0.4-0.35
	l0.45-0.4l0.55-0.4l0.55-0.55l0.65-0.6l0.65-0.7l0.75-0.75l0.75-0.85l0.85-0.9l0.85-0.95l0.95-1.05l0.35,1.3l0.4,1.3l0.8,2.4
	l0.35,1.1L87,93.2l0.8,2l0.5-0.75l0.549-0.65l0.951-1.25l0.85-1.15l0.8-1L92.1,89.45L92.4,89l0.35-0.351L93.25,88l0.449-0.55
	l0.352,0.85l0.449,1l0.6,1.05l0.75,1.25l0.451,0.7l0.25,0.45l0.35,0.55l0.299,0.5l0.4,0.6l0.85,1.351l0.801-1l0.949-0.95l1-1l1.15-1
	l0.5-0.55l0.5-0.4l0.4-0.399l0.449-0.301l0.301-0.3l0.35-0.2l0.25-0.149l0.25-0.05l0.451,0.699l0.5,0.75l0.898,1.45L108,93.6
	l0.35,0.601l0.4,0.6l0.6,1l0.1,0.2l0.051,0.1l0.1,0.15l0.301,0.5l0.199,0.399l0.25,0.4l0.201,0.35l0.25,0.4l2.898-3.55l1.352-1.75
	l1.398-1.65l0.301,0.9l0.35,0.899l0.301,0.801l0.15,0.399l0.199,0.45l0.5,1.45l0.199,0.649l0.102,0.301v0.05l0.049,0.1l0.1,0.2
	l0.15-0.15l0.25-0.1l0.551-0.25l0.299-0.2l0.4-0.149l0.85-0.4l0.951-0.55l1.1-0.601l0.551-0.35l0.648-0.3l1.352-0.7l0.1,1.05
	l0.049,0.5l0.102,0.55l0.1,1l0.15,1l0.199,1.7l0.199,1.601l0.551-0.301l0.75-0.25l0.35-0.199l0.451-0.15l0.949-0.3l1-0.4l1.15-0.35
	l1.25-0.4l0.65-0.2l0.75-0.149l-0.102,0.35l-0.049,0.4l-0.1,0.75l-0.201,1.399l-0.299,1.25l-0.102,0.25l-0.049,0.301l-0.1,0.6
	l1.299-0.85l0.551-0.4l0.6-0.3l0.449-0.351l0.5-0.25l0.801-0.449l0.301-0.25l0.299-0.15l0.451-0.25l0.25-0.15l0.148-0.05v0.2
	l-0.1,0.5l-0.049,0.65l-0.15,0.75l-0.1,0.899l-0.051,0.95l0.051,0.9l1.398-0.4l1.701-0.4l0.9-0.25l1-0.199l2.199-0.4v0.25l0.1,0.35
	l0.1,0.45l0.102,0.55l0.049,0.65l0.1,0.75l0.102,0.85l0.1,0.95l0.1,1.851v0.85l0.051,0.9l-0.051,0.8v0.8h-0.051v0.05v0.101v0.199
	v0.4v0.8l-0.148,0.75l-0.15,0.95l-0.201,1.05L146,119.1l-0.301,1.351L145.4,122l-0.4,1.7l-0.4,1.899l-0.4,1.45l-0.398,1.4l-0.4,1.3
	l-0.35,1.3l-0.4,1.2l-0.4,1.149l-0.801,2.101l4.25-2.3l-4.049,7.949l-1.551,3l0.15,0.051l-1.15,3.25l-1.049,3.25l-0.852,2.55
	l-0.75,2.5l-0.75,2.399l-0.6,2.4l-0.6,2.25L134,165l-0.5,2.149l-0.4,2.101l2.15-3.05l1.051-1.45l1.049-1.351l1.9-2.649l0.9-1.25
	l0.949-1.15l1.65-2.35l0.801-1.101l0.799-1l1.4-1.949l1.35-1.75l1.15-1.65l0.551-0.75l0.549-0.65l0.451-0.699l0.449-0.601l0.85-1.05
	l0.65-0.95l0.6-0.75l0.201-0.35l0.25-0.25l0.398-0.351l-0.699,3l-0.301,1.45l-0.25,1.4l-0.549,2.6l-0.451,2.4l-0.449,2.1l-0.301,2
	l-0.299,1.7l-0.201,1.6l1.852-2.5l1.85-2.399l1.65-2.4l1.648-2.399l1.451-2.4l1.449-2.4l1.35-2.399l1.25-2.351l1.102-2.399
	l1.049-2.351l0.951-2.399l0.85-2.3l0.75-2.351l0.65-2.3l0.549-2.3l0.5-2.3l0.1-0.45v-0.15l0.051-0.1l0.1-0.2l0.1-0.5l0.15-0.5
	l0.201-1.15l0.1-0.649l0.15-0.601v-0.399v-0.2v-0.1l0.049-0.051l0.1-0.699v-0.4v-0.2V116l0.051-0.05l0.1-0.75l0.1-1.7l0.051-0.9
	l0.1-0.899v-1.95l-0.049-1.9l-0.15-1.899l-0.15-1.851l-0.301-1.899l-0.35-1.851l-0.449-1.85l-0.451-1.8l2.352,0.8l2.299,0.8l2.1,0.7
	l2,0.7v-2.301l-0.049-2.3l-0.1-1.2l-0.051-0.6v-0.55l-0.199-2.3l-0.301-2.4l-0.35-2.4l-0.1-0.35L175.75,85l-0.1-0.6l-0.201-1.2
	L175,80.8l-0.6-2.55l-0.65-2.5l-0.4-1.3l-0.199-0.65L173,73.2l-0.801-2.55L171.301,68l-0.5-1.35l-0.451-1.3l-1.049-2.7L168.199,60
	l-1.25-2.75l-1.299-2.55l-1.35-2.55l-1.451-2.35l-1.549-2.35l-1.602-2.2l-1.648-2.15l-1.75-1.95l-1.9-1.95l-1.951-1.85L150.4,35.6
	L148.35,34l-2.199-1.6l-2.25-1.45l-2.35-1.35l-2.352-1.25l21.75,5.3l-1.199-2.05l-1.301-1.85l-1.5-1.85l-1.648-1.7l-1.852-1.7
	l-2-1.55l-2.199-1.55l-2.35-1.35l-2.85-1.55l-2.9-1.4l-2.951-1.25l-3-1.1l-3.1-1L129,12.9l-3.15-0.75l-3.199-0.55l-1.701-0.3
	l-1.648-0.2l-3.352-0.35l-3.398-0.25l-3.451-0.05l-3.549,0.05l-1.801,0.05L102,10.7l-1.85,0.1L98.35,11l-3.65,0.45L94.15,11
	l-0.451-0.4l-0.75-0.8l-0.648-0.85l-0.25-0.45L91.9,8.1l-0.35-0.95l-0.101-0.9L91.5,5.3l0.25-0.95l0.199-1l0.25-0.85l0.15-0.75
	l0.201-0.55l0.1-0.5l0.1-0.35l0.051-0.25L92.9,0L90.85,0.45L88.9,1.15l-1.85,0.9l-1.65,1.1l-1.65,1.3L82.3,6l-0.75,0.8L80.9,7.75
	l-1.25,2H79.6h-0.05l-0.1-0.05H79.4h-0.15l-0.3-0.1l-0.3-0.1l-0.4-0.15L78,9.25L77.8,9.2l-0.3-0.15l-0.25-0.1l-0.6-0.25l-0.7-0.3
	l-0.7-0.25l-0.45-0.2L74.4,7.8l-0.45-0.2l-0.4-0.15l-0.95-0.4l-0.5-0.2l-0.25-0.1l-0.2-0.05L69.6,5.85L67.75,5.1L66,4.45L64.45,3.9
	L63,3.4l-1.25-0.35L60.6,2.8L59.65,2.65L59.65,2.65z M52.9,17.75l0.1-0.1h0.4l0.6-0.1h0.85l1-0.1l1.3-0.1l1.5-0.1l1.75-0.1L62.1,17
	l1.65-0.1l1.5-0.05h1.45h1.25l1.2,0.1l1.05,0.1l1,0.15l-0.85-1.75L69.6,13.9l-0.7-1.4l-0.6-1.2l-0.6-1.1l-0.45-0.85l-0.45-0.7
	l-0.3-0.5l2.1,0.15l2.1,0.45l2.1,0.65l2.1,0.95l1.35,0.6l1.45,0.7l1.55,0.6l1.65,0.7l0.7-1.45l0.8-1.35l0.7-1.25l0.8-1.05l0.7-1
	L85.4,6l0.75-0.75l0.8-0.6l0.4-0.4l0.4-0.3l0.35-0.3l0.35-0.2L88.7,3.2l0.25-0.15l0.2-0.15l0.25-0.05l0.1-0.1h0.15l0.15,0.05
	L89.75,2.85V3l-0.1,0.35l-0.45,0.9l-0.25,1.1l-0.15,1.3L88.75,8.2V9l0.2,0.85l0.351,0.9l0.5,1l0.6,1l0.8,1.1l0.95,1.1l1.1,1.2
	l0.9-0.65l1.25-0.55l1.5-0.5l1.799-0.35l2-0.35l2.352-0.25l2.6-0.2l2.949-0.05l2.951-0.05l3,0.1L116,13.35l1.5,0.15l3,0.4l2.9,0.45
	l1.449,0.25l1.5,0.35l2.9,0.75l3,0.9l2.9,1l2.949,1.2l2.951,1.4l3,1.65l3,1.75l3,2l3.049,2.2l3.1,2.4l-1.949-0.45l-1.801-0.35
	l-1.75-0.35l-1.648-0.3l-1.65-0.3l-1.451-0.25l-1.449-0.25l-1.301-0.15l-1.35-0.2l-1.15-0.1l-2.148-0.15l-1-0.05l-0.852,0.05
	l-0.85,0.05l-0.65,0.1l0.75,0.45l1.75,1l1.65,1l1.5,0.9l1.451,0.9l1.25,0.8l1.25,0.8l1.049,0.7l1,0.7l1.5,1.1l1.551,1.25l1.449,1.3
	l1.451,1.4l1.35,1.4l1.4,1.55l1.299,1.6l1.301,1.75l1.15,1.7l1.199,1.85l1.1,1.85l1.15,2l1,2l1.051,2.15l0.949,2.2l0.949,2.3
	l0.65,1.85l0.701,1.95l0.6,2.05l0.65,2.2l0.549,2.2l0.6,2.35L171,77.2l0.551,2.55l0.25,1.5l0.299,1.7l0.301,1.8l0.4,2.05l0.35,2.1
	l0.4,2.351l0.398,2.45l0.5,2.699L174.1,96.2l-0.4-0.2l-0.449-0.2l-0.5-0.1l-1.199-0.4l-0.65-0.2l-0.701-0.149L170,94.85l-0.15-0.1
	l-0.1-0.05h-0.051l-0.25-0.101l-0.299-0.1l-0.201-0.101l-0.1-0.05h-0.049l-0.352-0.1l-1-0.4L167.15,93.7L166.9,93.6l-0.551-0.2
	l-0.65-0.3L165,92.85l-0.75-0.3l-0.4-0.15l-0.35-0.1l0.75,2.7l0.301,1.3l0.049,0.3l0.1,0.351l0.201,0.699l0.549,2.601l0.551,2.6
	l0.15,1.2l0.199,1.25l0.15,1.2l0.199,1.25l0.25,2.399l0.15,2.4l-0.1,2.35l-0.1,1.25l-0.1,1.351l-0.201,1.3l-0.25,1.4l-0.299,1.449
	l-0.301,1.551l-0.449,1.5l-0.451,1.6l-0.5,1.6l-0.5,1.7l-1.299,3.45l-0.701,1.8l-0.699,1.9l-0.801,1.75l-0.75,1.75l-0.699,1.55
	l-0.65,1.55l-0.65,1.351l-0.6,1.25l-0.551,1.149l-0.5,1.101l-0.5,0.85l-0.449,0.85l-0.4,0.7l-0.35,0.65l-0.35,0.45L153.6,152.1
	l-0.25,0.25l-0.199,0.2l1.049-13l-0.25-0.25l-0.398,0.35L153.1,140.2l-0.549,0.649l-0.602,0.75l-0.75,0.851l-0.799,1l-0.9,1.05
	l-0.949,1.25l-1.102,1.25l-1.148,1.45l-1.25,1.55l-1.301,1.649l-1.449,1.75l-1.5,1.9l-1.602,1.95l-1.648,2.149l0.049-0.35l0.15-0.4
	l0.15-0.5l0.199-0.55l-0.25,0.9l1.201-2.9l1.148-2.75l1.102-2.649l1.1-2.5l0.949-2.45l0.451-1.2l0.5-1.1l0.898-2.15l0.9-2.05
	l0.75-1.95l0.75-1.85l0.701-1.75l0.648-1.551l0.551-1.55l0.5-1.35l0.449-1.25l0.201-0.601l0.25-0.5l-1.65,1.25l-1.65,1.45
	l-1.699,1.55l-1.75,1.65l0.699-1.7l0.701-1.7l0.6-1.75l0.6-1.699l0.5-1.801l0.449-1.8l0.051-0.5l0.1-0.45l0.201-0.899l0.35-1.8
	l0.199-1.851l0.201-1.7l0.049-0.85l0.1-0.75l0.15-1.45l0.051-1.35v-0.65l0.049-0.55l-0.049-0.6v-0.5L149.1,107l-0.299-1.8
	L148.6,103.6l-0.299-1.5l-0.201-1.3l-1.449,0.25l-1.6,0.3l-1.801,0.3l-2,0.4l0.449-1.65l0.201-0.75L142.15,99l0.1-0.65l0.15-0.55
	l0.1-0.55l0.15-0.45v-0.45l0.049-0.35l-0.049-0.351v-0.25l-0.1-0.25L142.449,95l-0.148-0.15l-0.102-0.05l-0.25-0.1h-0.199
	l-0.25,0.05l-0.25,0.149l-0.35,0.15L140.6,95.3l-0.4,0.25l-0.35,0.35L139.4,96.25l-0.451,0.45l-0.5,0.449L138,97.7l-0.6,0.55
	l-0.551,0.649l-0.6,0.65l-0.551,0.75l1.75-5.4l-0.949,0.45l-0.949,0.5l-1.051,0.5l-1.15,0.55l-1.299,0.5L130.699,98l-1.449,0.6
	l-1.551,0.601v-0.45l0.051-0.4l0.1-0.8v-0.9V95.8l-0.1-0.95l-0.051-0.899l-0.299-1.9l-0.201-0.8L127,90.649l-1.4,0.65l-1.6,0.85
	l-0.9,0.4l-0.9,0.5l-2,1.05l-0.799-1.75l-0.701-1.649l-0.648-1.551L117.5,87.8l-1.15,1.1l-1.049,1.051l-1,0.949l-0.852,0.851
	l-0.85,0.7L111.9,93.1l-0.65,0.55l-0.551,0.45L108.25,88.7L108,88.2l-0.199-0.5l-0.4-1.101l-0.1-0.2l-0.051-0.1v-0.05l-0.1-0.3
	l-0.201-0.65l-0.398-1.45L105.1,85.1l-1.35,1.2l-0.65,0.5l-0.549,0.55l-1.051,1l-0.949,0.8l-0.852,0.7l-0.398,0.25L99,90.399
	l-0.551,0.5l-1.1-1.449l-0.549-0.801l-0.5-0.75l-0.602-0.85l-0.549-0.8l-1.1-1.75l-0.352-0.65l-0.549,0.6l-0.551,0.7L91.4,86.6
	l-1.35,1.55L89.35,88.95l-0.7,0.899l-3.8-8.3l-0.75,0.7L83.45,83l-1.25,1.4l-1.15,1.2l-0.95,1.15l-0.5,0.45l-0.4,0.5l-0.75,0.85
	l-0.35,0.3L77.85,89.2l-0.45,0.6l-0.45-1.5l-0.35-1.35l-0.3-1.2l-0.2-1.05l-0.2-0.95L75.8,83l-0.1-0.6v-0.45l-0.45,0.15l-0.5,0.3
	l-0.55,0.35l-0.6,0.5l-0.7,0.5l-0.75,0.65l-0.8,0.7l-0.85,0.85l-1.25,1.15L68.1,88.2l-1.05,1l-0.85,1l-0.1-1.551l-0.05-1.35
	l-0.1-1.25V85l-0.1-0.95l-0.1-0.75l-0.1-0.65V82.2l-0.95,0.95l-1,1.05l-1.05,1.1l-1.05,1.2l-1.15,1.2l-1.2,1.3L58,90.35l-1.3,1.45
	l-0.6-1.25l-0.55-1.05l-0.95-1.851l-0.45-0.85l-0.35-0.7l-0.35-0.65l-0.25-0.5l-0.3,0.2l-0.25,0.3l-0.6,0.65l-0.4,0.351l-0.35,0.449
	l-0.75,0.95l-0.5,0.45l-0.45,0.55L48.65,90l-1.05,1.25l-1.15,1.45l-0.15-0.4l-0.1-0.4L46,91l-0.3-1.05l-0.3-1.2l-1,1l-0.85,0.95
	l-0.85,0.85l-0.65,0.8l-0.55,0.5l-0.45,0.5l-0.4,0.45l-0.3,0.45L40,94.6l-0.2,0.351l-0.2,0.25l-0.1,0.3l-0.25-0.45l-0.2-0.35
	l-0.2-0.351l-0.15-0.3l-0.1-0.25l-0.15-0.3l-0.1-0.25l-0.2-0.4l-0.1-0.2L38,92.55V92.5l-0.2-0.45l-0.15-0.4l-0.4-0.949l-0.4-1.051
	L33.2,98.5l-0.5-1.45l-0.45-1.2l-0.4-1.1l-0.3-0.851l-0.1-0.199L31.4,93.6v-0.05l-0.2-0.35l-0.1-0.15l-0.05-0.1l-0.1-0.2l-0.15-0.3
	l-0.1-0.25l-0.4-0.65l-0.4-0.75l-0.1-0.15l-0.05-0.1l-0.1-0.2l-0.2-0.399l-0.5-0.851l-0.8,2l-0.65,2.05l-0.55,2L26.5,97.2
	L26.15,99.1l-0.25,1.95l-0.15,1.9l-0.05,1.949l-0.05,3.601v3.399v3.25l0.1,3.101v0.8l0.05,1l0.1,1.15l0.2,1.399l0.15,1.5l0.25,1.8
	l0.25,1.9l0.35,2.15l0.3,2.25l0.4,2.5l0.4,2.6l0.5,2.85l0.45,3l0.55,3.2l0.6,3.351l0.65,3.6l0.2,1.05l0.2,1.3l0.1,0.601l0.05,0.3
	l0.1,0.35l0.2,1.15l0.2,1.05l0.1,0.95l0.05,0.4l0.1,0.449l0.1,0.75l0.1,0.75l-0.95-1.649l-0.85-1.45l-0.85-1.35l-0.7-1.25l-0.7-1.25
	l-0.6-1.051l-0.6-0.949l-0.45-0.851l-0.5-0.85l-0.35-0.65l-0.35-0.55l-0.25-0.45l-0.25-0.45l-0.15-0.25l-0.1-0.149v-0.05
	l-2.35-3.851l-1.15-1.8l-1.05-1.65l-1.1-1.649l-1-1.5l-1-1.45l-0.95-1.35l-0.55,1.25l-0.4,1.25l-0.4,1.05l-0.3,1.05l-0.3,0.85
	l-0.2,0.851l-0.2,0.75l-0.1,0.649l-1.55-3.3l-1.35-3.5l-0.7-1.85l-0.6-1.9L8.4,129.2L7.55,126l-0.4-1.65l-0.3-1.6L6.3,119.3
	l-0.45-3.5l-0.35-3.7l-0.25-3.75l-0.1-1.95v-1.949l0.05-3.95l0.15-4.101l0.5-4l0.7-3.949L7.6,84.6l1.25-3.9l1.6-3.8l1.8-3.75
	l2.15-3.65l1.05-1.85l1.05-1.7l1-1.7l1-1.55l0.9-1.55l0.9-1.4l0.8-1.35l0.85-1.2l0.7-1.25l0.75-1.05l0.65-1.05l0.7-0.9l0.55-0.9
	l0.6-0.75l0.5-0.75L26.9,50l1.75-2.35l1.85-2.2l1.85-2.05l1.95-1.9l2.3-2.05V39.3l-0.05-0.05L36.4,39.2l-0.15,0.05l-0.3,0.05
	l-0.3,0.2l-0.4,0.2l-0.4,0.3l-0.55,0.3l-0.6,0.4l-0.65,0.4l-0.7,0.5l-0.8,0.5l-0.85,0.6l-0.95,0.65L28.8,44.1l-4.05,2.95L22.8,48.6
	l-1.85,1.65l-1.9,1.6l-1.8,1.7l-3.45,3.6l-1.75,1.75l-1.6,1.65L8.9,62.1l-1.4,1.55l-1.4,1.4L4.8,66.4l-1.25,1.25l-1.1,1.2l0.2-0.55
	l0.3-0.65l0.35-0.7l0.45-0.75l0.45-0.9l0.5-0.95l0.55-1.05l0.65-1.1l0.6-1.25l0.7-1.3l0.75-1.4l0.8-1.45l0.8-1.6l0.9-1.65l0.95-1.75
	l1.05-1.75l2.05-3.7l2.2-3.45l1.1-1.7l1.2-1.6l1.2-1.55l1.3-1.45l1.25-1.5l1.35-1.4l2.75-2.65l2.85-2.5l3.05-2.2L34.7,25l2.1-1.25
	l2.25-1.2l2.4-1.05l2.5-1.05l2.65-0.9l2.75-0.9l2.95-0.75L52.9,17.75L52.9,17.75z"/>
<polygon fill-rule="evenodd" fill="#CB6928" points="73.85,17.45 73.6,17.8 72.6,18.05 72.25,18.5 71.95,19.05 71.25,20.4 
	70.45,21.95 69.65,23.85 69.1,24.9 68.7,25.95 68.35,26.85 68.1,27.7 67.85,28.4 67.7,29.05 67.6,29.6 67.6,30.05 67.6,30.75 
	67.6,31.3 67.6,31.7 67.65,31.9 67.85,32.5 67.9,32.35 68.1,32.2 68.3,31.95 68.65,31.6 69,31.15 69.45,30.65 69.95,30.1 
	70.55,29.45 71.05,29.1 71.7,28.7 72.4,28.25 73.25,27.75 74.1,27.1 75.1,26.4 76.15,25.65 77.35,24.85 78.4,24 79.4,23.25 
	80.25,22.55 81.1,21.95 81.35,21.95 81.85,22 82.35,22.15 82.85,22.4 83.45,22.8 83.95,23.25 84.5,23.85 85,24.55 85.6,25.4 
	86.15,26.3 86.85,27.35 87.55,28.5 88.35,29.75 89.551,27.55 90.75,25.5 90.85,25.1 91,24.7 91.2,23.75 91.301,22.65 91.301,22 
	91.301,21.65 91.35,21.35 91.301,20.65 91.2,20.1 91,19.55 90.801,19.15 90.35,18.5 90.1,18.05 89.9,17.7 89.85,17.55 88.35,17.55 
	88.35,17.7 88.35,18.05 88.45,19 88.5,19.55 88.6,20.3 88.7,21.15 88.85,22.1 88.85,22.7 88.9,23.3 88.9,23.85 88.95,24.45 
	88.85,24.9 88.8,25.4 88.7,25.85 88.6,26.3 88.1,26.3 86.55,24.15 85.85,23.2 85.2,22.45 84.55,21.7 84,21.1 83.05,20.15 
	83.25,19.75 83.35,19.5 83.3,19.1 83.3,18.8 83.25,18.55 83.25,18.4 83.15,18.1 83.1,18.05 83.1,18.1 82.85,18.5 79,20.25 
	75.25,22.3 73.6,23.3 72.25,24.3 71.15,25.2 70.7,25.65 70.35,26.15 70.45,25.8 70.65,25.45 71.1,24.65 71.65,23.7 72.4,22.65 
	72.75,21.95 73.1,21.35 73.4,20.8 73.65,20.35 73.8,19.85 73.95,19.45 74.05,19.1 74.1,18.8 74.05,18.15 74,17.9 74,17.75 
	73.9,17.45 73.85,17.4 73.85,17.45 "/>
<polygon fill-rule="evenodd" fill="#010101" points="143.1,49.95 144.25,50.9 145.449,52.1 145.6,52 145.1,51.55 144.65,51.15 
	143.699,50.35 143.1,49.95 "/>
<polygon fill-rule="evenodd" fill="#F26822" points="145.6,52 145.449,52.1 146.25,53.05 147.1,54.1 147.9,55.25 148.801,56.5 
	149.6,57.75 150.4,59.2 151.199,60.7 152.051,62.35 152.5,63.35 152.699,63.85 152.801,64.1 152.949,64.4 153.35,65.35 
	153.801,66.35 154.15,67.25 154.5,68.15 154.801,69 154.949,69.4 155.15,69.85 155.35,70.6 155.551,71.35 155.699,72.05 
	155.9,72.75 156,73.35 156.1,73.95 156.1,74.2 156.15,74.5 156.15,74.75 156.199,75.05 156.199,75.95 156.199,76.8 156.199,77.55 
	156.25,78.2 156.25,78.75 156.301,79.2 156.35,79.55 156.449,79.85 155.6,77.9 154.85,76.3 154.1,74.9 153.449,73.8 152.85,72.9 
	152.25,72.15 151.6,71.4 151,70.75 150.25,70.1 149.551,69.55 148.801,69 148.051,68.6 148.15,69.15 148.301,69.8 148.301,70.05 
	148.35,70.35 148.449,70.95 148.65,72.1 148.699,72.6 148.801,73.15 148.949,74.25 149,75.25 149.051,76.25 149.051,77.15 
	149.1,78.05 149,79.7 148.9,80.45 148.85,81.25 148.65,82.7 148.449,84.1 148.6,83.6 148.699,83.3 148.9,82.95 149.199,82.05 
	149.4,81.55 149.65,81 150,79.85 150.1,79.3 150.25,78.85 150.4,77.9 150.449,77.15 150.4,77.05 150.4,77 150.4,76.9 150.4,76.7 
	150.4,76.25 150.35,75.75 150.35,75.2 150.25,73.9 150.199,73.2 150.199,72.5 150.75,72.95 151.35,73.6 152.199,74.65 152.6,75.25 
	153.051,75.95 153.801,77.4 154.551,79.05 154.551,79.15 154.65,79.45 154.801,79.95 155.1,80.75 155.35,81.65 155.75,82.75 
	156.15,84.05 156.699,85.6 157.051,82.95 157.15,81.65 157.301,80.45 157.35,79.2 157.4,78.05 157.449,75.8 157.301,73.65 
	157.1,71.6 156.9,70.6 156.75,69.7 156.301,67.95 155.5,65.75 154.551,63.65 153.449,61.55 152.199,59.55 150.75,57.55 
	149.199,55.65 147.449,53.8 145.6,52 "/>
<polygon fill-rule="evenodd" fill="#F26822" points="50.25,41.15 50.3,40.7 50.4,40.35 50.45,40.05 50.5,39.9 50.45,39.75 
	50.45,39.7 50.4,39.7 50.35,39.85 50.4,39.75 49.55,40.75 48.75,42 47.95,43.5 47.15,45.2 46.35,47.1 45.6,49.2 44.85,51.5 
	44.15,54.1 43.5,56.4 42.95,58.5 42.45,60.4 42.25,61.3 42.1,62.15 41.75,63.65 41.6,64.95 41.45,66.05 41.45,66.55 41.45,67 
	41.35,68.1 41.2,69.2 41.55,68.6 41.6,68.6 41.6,68.5 41.7,68.35 42.05,67.7 42.5,67.05 43,66.35 43.6,65.6 45.2,63.25 46.8,61.05 
	48.3,59 49.8,57.1 51.2,55.3 52.6,53.7 53.9,52.2 55.2,50.9 55.2,52.55 55.2,54.1 55.2,55.55 55.2,56.9 55.2,58.1 55.25,59.25 
	55.25,60.3 55.35,61.25 55.45,64 55.7,66.7 56,69.2 56.45,71.6 65.45,55.75 64.65,56.1 63.9,56.65 63.1,57.25 62.4,58 61.6,58.85 
	60.9,59.8 60.1,60.85 59.4,62 58.85,62.75 58.45,63.5 58.1,64.1 57.85,64.65 57.65,62.7 57.5,60.75 57.4,58.7 57.35,56.55 
	57.3,54.3 57.3,52 57.35,49.65 57.45,47.2 57,47.35 56.6,47.6 56.1,47.85 55.65,48.2 55.1,48.55 54.6,49 54.05,49.45 53.55,50.05 
	52.9,50.6 52.3,51.25 51.65,51.9 51.05,52.7 49.65,54.3 48.9,55.2 48.2,56.2 46.95,57.7 46.4,58.35 45.95,59 45.45,59.55 
	45.05,60.1 44.7,60.6 44.45,61.1 45.95,55.5 46.3,53.55 46.8,51.55 47.4,49.45 48.15,47.3 48.45,46.2 48.8,45.25 49.1,44.3 
	49.4,43.55 49.6,42.8 49.85,42.15 50.05,41.6 50.25,41.15 "/>
<polygon fill-rule="evenodd" fill="#010101" points="153.949,139.3 154.199,139.55 154,139.25 153.949,139.3 "/>
<polygon fill-rule="evenodd" fill="#F8981D" points="32,142.8 32.15,143.85 32.4,145.2 32.65,147.1 35.5,149.7 38.45,152.149 
	41.45,154.45 44.6,156.6 47.7,158.55 50.95,160.35 54.25,161.95 57.7,163.45 61.1,164.7 64.65,165.8 68.25,166.75 71.95,167.55 
	75.65,168.149 79.5,168.6 83.35,168.85 87.35,168.95 87.75,168.899 88.2,168.899 89.1,168.899 90.9,168.85 92.65,168.75 
	94.449,168.649 97.949,168.25 99.65,168 101.4,167.8 102.199,167.6 102.6,167.5 103.051,167.45 104.75,167.1 108.051,166.35 
	109.65,165.85 110.449,165.6 111.301,165.399 112.9,164.85 114.551,164.35 117.65,163.1 120.75,161.75 123.75,160.25 
	126.75,158.649 129.65,156.85 131.051,155.899 131.75,155.399 132.1,155.149 132.5,154.95 135.301,152.85 136.65,151.75 
	138.051,150.7 139.1,147.45 140.25,144.2 140.1,144.149 141.65,141.149 141.15,141.55 140.75,142 140.35,142.35 140.051,142.75 
	137.25,145.35 136.5,145.95 135.801,146.6 134.4,147.85 132.9,149 132.5,149.25 132.15,149.55 131.449,150.149 129.949,151.2 
	128.5,152.3 125.4,154.25 122.301,156.05 119.1,157.649 118.65,157.8 118.25,158 117.449,158.399 115.85,159.149 114.15,159.75 
	113.301,160.05 112.5,160.399 109.1,161.5 105.6,162.45 103.801,162.85 102.051,163.25 100.199,163.55 98.4,163.85 96.551,164.05 
	94.75,164.3 92.85,164.399 92.35,164.399 91.9,164.45 91,164.55 87.2,164.649 83.4,164.55 79.7,164.3 76.05,163.85 72.45,163.25 
	68.85,162.45 65.3,161.5 61.8,160.399 58.35,159.149 54.9,157.649 51.5,156.05 48.15,154.25 44.85,152.3 41.55,150.149 38.3,147.85 
	35.1,145.399 32,142.8 "/>
<path fill-rule="evenodd" fill="#EF3D3A" d="M72.3,139.649v-0.199v-0.15l-0.75-0.35l-0.7-0.25l-1.45-0.45l-0.75-0.2l-0.7-0.1
	l-1.4-0.101l-1.45,0.05l-1.4,0.2l-1.65,0.4l-0.75,0.3l-0.65,0.45L60,139.649l-0.55,0.551l-0.55,0.6l-0.45,0.75l-0.4,0.8l-0.5,1.25
	l-0.15,1.3l0.05,1.301l0.35,1.35l0.1,0.35l0.2,0.4l0.45,0.7l0.55,0.649l0.75,0.601l0.6,0.35l0.65,0.351l0.7,0.25l0.75,0.149h0.55
	l0.6-0.05l0.8-0.35l0.05-0.101l0.1-0.05l0.2-0.1l0.4-0.2l0.7-0.65l0.3-0.399l0.15-0.2l0.2-0.15l0.85-1.05l0.95-0.9l1.05-0.75
	l1.25-0.6l0.15-0.1l1.2-0.5l1.35-0.301l0.2-0.1l0.2-0.1l0.1-0.15l0.1-0.15v-0.1l-0.05-0.05l0.2-0.101l-0.2-0.399l-0.1-0.3
	l-0.1-0.351l-0.1-0.25l-0.05-0.2l-0.1-0.449l-0.1-0.301l-0.05-0.1v-0.05v-0.101l-0.1-0.6l-0.2-0.55l-0.2-0.4l-0.3-0.3L72.3,139.649
	L72.3,139.649z M69.7,139.7h0.5l0.45,0.1l0.5,0.05l0.6,0.05v0.2l0.15,0.351l-1.05-0.2l-1,0.05l-0.9,0.05l-0.8,0.25l-1,0.3l-0.8,0.45
	l-0.65,0.45l-0.45,0.55l0.2,0.101l0.4-0.45l0.7-0.3l0.9-0.25l1.1-0.101l1.45,0.05l1.05-0.1h1l0.05,0.2l0.1,0.3l0.2,0.8l0.1,0.351
	V143l0.05,0.1l0.1,0.2H72.3l-0.95,0.25l-0.85,0.4l-0.75,0.35l-0.65,0.5l-0.8,0.65l-0.7,0.75l-0.7,0.8l-0.6,0.899l-0.7,0.801
	l-0.35,0.3l-0.3,0.3l-0.4,0.2l-0.3,0.149l-0.7,0.2l-0.75-0.05l-0.6-0.05l-0.55-0.101l-0.4-0.149l-0.55-0.351l-0.4-0.3l-0.4-0.399
	l-0.3-0.4l-0.55-0.7l-0.2-0.399l-0.1-0.351l-0.2-0.8l0.05-0.8v-0.05l0.05-0.9l0.3-0.9l0.4-0.85l0.6-0.8l0.6-0.75l0.75-0.5l0.8-0.4
	l0.95-0.149l1.9-0.15l0.5-0.1l0.65-0.101h0.7l0.65,0.05l0.65,0.15L69.7,139.7L69.7,139.7z"/>
<polygon fill-rule="evenodd" fill="#F0535C" points="70.65,139.8 70.2,139.7 69.7,139.7 69.85,140.3 70.85,140.25 71.9,140.45 
	71.75,140.1 71.75,139.899 71.15,139.85 70.65,139.8 "/>
<path fill-rule="evenodd" fill="#F26768" d="M69.85,140.3l-0.15-0.6l-1.6-0.15l0.3,0.05l0.35,0.15l0.15,0.2h-1.15l-1,0.1H65.8
	l-0.75,0.1H64.3l-0.55,0.101l-0.5,0.1l-0.35,0.101l0.35-0.351l0.5-0.25l0.55-0.2l0.65-0.1l-1.9,0.15l-0.95,0.149l-0.8,0.4l-0.75,0.5
	l-0.6,0.75l-0.6,0.8l-0.4,0.85l-0.3,0.9l-0.05,0.9l0.15-0.601l0.2-0.5l0.15-0.45l0.2-0.35l0.2-0.55l0.05-0.2l0.1-0.1l0.1,0.399
	l0.05,0.65L59.75,144l-0.05,0.95v0.5l0.15,0.55l0.15,0.5l0.35,0.6l0.3,0.5l0.45,0.55l1.15,1.101l-0.05,0.05l-0.15,0.15H61.8
	l-0.1-0.051h-0.05h-0.1l-0.3-0.149l-0.3-0.15l-0.45-0.3l-0.35-0.25l-0.55-0.5l0.3,0.4l0.4,0.399l0.4,0.3l0.55,0.351l0.4,0.149
	l0.55,0.101l0.6,0.05l0.75,0.05l0.7-0.2l0.3-0.149l0.4-0.2l0.3-0.3l0.35-0.3l0.7-0.801L66.9,147l0.7-0.8l0.7-0.75l0.8-0.65l0.65-0.5
	l0.75-0.35l-0.5-2.551l-1.45-0.05l-1.1,0.101l-0.9,0.25l-0.7,0.3l-0.4,0.45l-0.2-0.101l0.45-0.55l0.65-0.45l0.8-0.45l1-0.3l0.8-0.25
	L69.85,140.3L69.85,140.3z M62.75,140.95l-0.2,0.05l-0.35,0.149l0.5-0.3L62.75,140.95L62.75,140.95z M65.1,145.5l0.45-0.15L66,145.3
	h0.35l0.25,0.1l0.1,0.101l0.05,0.25l-0.05,0.3l-0.15,0.4l-0.3,0.35L66,147.2l-0.5,0.6l-0.6,0.45l-0.5,0.35h-0.2h-0.1h-0.05v0.05
	l-0.3,0.051h-0.6L62.8,148.6l-0.3-0.05l-0.6-0.25l-0.65-0.5l-0.45-0.55l-0.35-0.75l-0.15-0.75l-0.1-1l0.15-0.851l0.25-0.05
	l0.3,0.601l0.3,0.75l0.15,0.25l0.3,0.3l0.75,0.6l0.7-0.3l0.7-0.2L65.1,145.5L65.1,145.5z"/>
<polygon fill-rule="evenodd" fill="#F58F7F" points="62.2,141.149 62.55,141 62.75,140.95 62.7,140.85 62.2,141.149 "/>
<polygon fill-rule="evenodd" fill="#F58F7F" points="66.55,146.45 66.7,146.05 66.75,145.75 66.7,145.5 66.6,145.399 66.35,145.3 
	66,145.3 65.55,145.35 65.1,145.5 63.8,145.85 63.1,146.05 62.4,146.35 61.65,145.75 61.35,145.45 61.2,145.2 60.9,144.45 
	60.6,143.85 60.35,143.899 60.2,144.75 60.3,145.75 60.45,146.5 60.8,147.25 61.25,147.8 61.9,148.3 62.5,148.55 62.8,148.6 
	63.15,148.7 63.75,148.7 64.05,148.649 64.05,148.6 64.1,148.6 64.2,148.6 64.4,148.6 64.9,148.25 65.5,147.8 66,147.2 66.25,146.8 
	66.55,146.45 "/>
<polygon fill-rule="evenodd" fill="#F0535C" points="72.05,141.3 71.05,141.3 70,141.399 70.5,143.95 71.35,143.55 72.3,143.3 
	72.65,143.3 72.55,143.1 72.5,143 72.5,142.95 72.4,142.6 72.2,141.8 72.1,141.5 72.05,141.3 "/>
<polygon fill-rule="evenodd" fill="#F58F7F" points="68.75,139.75 68.4,139.6 68.1,139.55 67.45,139.399 66.8,139.35 66.1,139.35 
	65.45,139.45 64.95,139.55 64.3,139.649 63.75,139.85 63.25,140.1 62.9,140.45 63.25,140.35 63.75,140.25 64.3,140.149 
	65.05,140.149 65.8,140.05 66.75,140.05 67.75,139.95 68.9,139.95 68.75,139.75 "/>
<polygon fill-rule="evenodd" fill="#F0535C" points="59.7,144.95 59.75,144 59.8,143.25 59.75,142.6 59.65,142.2 59.55,142.3 
	59.5,142.5 59.3,143.05 59.1,143.399 58.95,143.85 58.75,144.35 58.6,144.95 58.6,145 58.55,145.8 58.75,146.6 58.85,146.95 
	59.05,147.35 59.6,148.05 60.15,148.55 60.5,148.8 60.95,149.1 61.25,149.25 61.55,149.399 61.65,149.399 61.7,149.399 61.8,149.45 
	62.05,149.45 62.2,149.3 62.25,149.25 61.1,148.149 60.65,147.6 60.35,147.1 60,146.5 59.85,146 59.7,145.45 59.7,144.95 "/>
<polygon fill-rule="evenodd" fill="#CB6928" points="118.1,108.05 117.5,107.75 116.801,107.5 115.949,107.3 115,107.1 
	113.801,106.899 112.551,106.7 111.1,106.55 109.551,106.45 108.65,106.35 107.801,106.35 106.85,106.35 105.949,106.45 104,106.7 
	103,106.899 102.051,107.2 100.949,107.45 99.9,107.8 98.801,108.149 97.75,108.6 95.449,109.55 93.1,110.7 92.9,110.8 
	92.949,111.95 93.051,113.35 93.15,114.85 93.35,116.6 93.5,118.399 93.75,120.45 94,122.649 94.301,125.05 94.65,128.05 
	95.1,131.35 95.6,134.85 96.199,138.649 97.051,138.6 98.15,138.45 99.051,138.399 99.65,138.35 99.9,138.35 100.1,138.35 
	100.6,138.399 101.1,138.6 101.6,138.899 102.1,139.35 102.5,139.85 102.85,140.399 103,140.899 103.1,141.5 103,142.1 
	102.9,142.35 102.85,142.649 102.65,142.85 102.551,142.95 102.5,142.95 102.5,143 102.5,143.1 102.301,143.3 102.199,143.399 
	102.15,143.399 102.15,143.45 102.15,143.55 101.85,143.649 101.75,143.649 101.699,143.649 101.699,143.7 101.6,143.8 
	101.301,143.899 101,144.05 100.6,144.1 100.25,144.2 99.85,144.2 99.449,144.25 98.699,144.2 98.051,144.2 97.5,144.2 
	97.051,144.2 97,144.25 97,144.55 97,144.8 97,145 97.1,145.149 97.199,145.25 97.4,145.399 97.949,145.649 98.25,145.7 
	98.65,145.8 99.6,145.85 100.199,145.8 100.801,145.75 101.301,145.6 101.85,145.5 102.051,145.35 102.301,145.25 102.75,145.05 
	103.1,144.75 103.5,144.45 103.9,143.85 103.949,143.649 104.051,143.5 104.25,143.2 104.301,142.8 104.4,142.45 104.449,142.05 
	104.449,141.85 104.449,141.75 104.449,141.7 104.5,141.7 104.4,140.85 104.25,140.1 103.9,139.399 103.5,138.85 102.9,138.3 
	102.25,137.899 101.4,137.55 100.5,137.35 99.75,137.2 99.051,137.149 98.4,137.2 97.85,137.35 97.75,137.149 97.699,137.05 
	97.699,137 97.6,136.649 97.4,135.899 97.199,135.05 97,134.1 96.85,133.5 96.75,132.95 96.551,131.8 96.449,131.45 96.4,131.149 
	96.301,130.55 96.1,129.2 95.699,126.85 95.4,124.8 95.199,123.45 95.051,122.3 94.9,121.25 94.85,120.3 94.699,118.8 94.6,117.6 
	94.5,116.649 94.449,115.95 94.35,115.3 94.35,114.7 94.5,113.5 94.551,113.1 94.801,112.75 95.199,112.35 95.75,112 96.4,111.55 
	97.25,111.1 98.199,110.6 99.35,110.149 100.5,109.6 101.75,109.149 103,108.75 104.4,108.5 105.75,108.25 107.25,108.1 108.75,108 
	110.35,108 111.801,108 113.15,108 114.35,108 115.449,108 116.301,108 117.051,108 117.65,108 118.1,108.05 "/>
<polygon fill-rule="evenodd" fill="#CB6928" points="63.7,98.35 62.1,98.45 60.65,98.649 59.2,98.899 57.9,99.25 56.6,99.6 
	55.4,100.05 54.25,100.5 53.25,101.05 52.35,101.45 51.5,102 50.6,102.6 49.75,103.3 47.95,104.85 47.05,105.7 46.2,106.7 
	48.05,105.45 49.95,104.399 51.85,103.45 53.8,102.649 55.7,101.95 57.65,101.45 59.65,101.05 61.65,100.8 63.5,100.6 65.35,100.55 
	67,100.5 68.65,100.6 70.1,100.7 71.5,100.95 72.75,101.25 73.9,101.7 74.95,102.1 75.9,102.5 76.75,102.899 77.6,103.35 
	77.7,103.3 77.85,103.3 77.95,103.25 78.1,103.25 78.3,103.149 78.5,103.1 78.6,102.95 78.7,102.8 78.75,102.6 78.75,102.5 
	78.75,102.45 78.8,102.45 78.7,101.85 78.5,101.3 78.1,100.8 77.6,100.35 76.9,99.899 76.1,99.5 75.15,99.149 74.1,98.85 
	72.9,98.55 71.75,98.35 70.5,98.2 69.25,98.149 67.9,98.1 66.55,98.149 65.1,98.2 63.7,98.35 "/>
<path fill-rule="evenodd" fill="#010101" d="M77.8,115.45l-0.45-0.851l-0.15-0.35L77.15,114H75.4l-1.8,0.149l-2,0.15l-2.05,0.35
	L67.25,115l-2.35,0.5l-2.5,0.55l-2.6,0.7l-2.65,0.6l-2.25,0.601l-1.1,0.25l-0.95,0.3l-0.9,0.25l-0.75,0.3l-1.45,0.4l-0.65,0.199
	l-0.5,0.25l-0.5,0.15l-0.35,0.2l-0.35,0.149l-0.2,0.2l-0.1,1.851v1.8v0.899v0.95l0.15,0.95l0.25,0.85l0.35,0.9l0.05,0.1l0.15,0.15
	l0.15,0.1l0.25,0.101L49,129.3h0.75l0.85-0.25l0.45-0.15l0.55-0.149l1.15-0.45l1.35-0.55l1.4-0.65l1.6-0.55l1.7-0.5l1.85-0.35
	l1.95-0.351l2.1-0.2L66.95,125h2.4l8.95-0.101l-0.25-0.1L78,124.7l0.05-0.101v-0.2l0.1-0.149L78.3,124l0.25-0.2l0.05-0.2l0.1-0.149
	l0.15-0.301l0.1-0.399l0.05-0.2l0.1-0.15l0.05-0.5v-0.25l0.05-0.199v-0.551v-0.5l-0.25-1.5l-0.2-0.8l-0.2-0.75l-0.35-1L77.8,115.45
	L77.8,115.45z M69.3,116.3l1.95-0.35l1.8-0.301l1.65-0.25l1.55-0.199v0.25v0.1L76.4,116l0.15,0.7l0.3,1.05l0.3,1.1l0.2,0.95
	l0.1,0.45l0.15,0.5v0.149l0.05,0.2l0.1,0.4v0.149l0.05,0.2l0.1,0.351v0.6l-0.05,0.1v0.15l-0.05,0.3h-0.1h-0.05v0.05L77.5,123.5
	h-0.15l-0.1,0.05h-0.2h-0.1H76.9v0.05l-0.1-0.05h-0.05h-0.1h-0.2H75.9l-0.6-0.1l-0.2-0.051h-0.15h-0.3l-0.7-0.1H73.1h-1l-1.15,0.1
	L69.6,123.5l-1.5,0.2l-1.65,0.199L64.7,124.2v-0.4v-0.35l-0.1-0.551l-0.1-0.35l-0.15-0.25l-0.1-0.15v-0.05l-0.35-0.35l-0.45-0.25
	l-0.65-0.2l-0.8-0.1l-0.2,0.399l0.25,0.2l0.1,0.1l0.05,0.051l0.1,0.1l0.1,0.2v0.1v0.05l0.05,0.101l-0.05,0.2l-0.15,0.199L62,123.1
	l-0.35,0.2l-0.4-0.1l-0.3-0.101l-0.3-0.149l-0.2-0.2l-0.2-0.3l-0.1-0.301l-0.05-0.35l0.05-0.4l0.05-0.8l-0.6,0.25l-0.3,0.25
	L59,121.45l-0.2,0.25l-0.4,0.5l-0.15,0.6l-0.05,0.3v0.25v0.15l0.05,0.1l0.05,0.2l0.2,0.3l0.25,0.3l0.35,0.351l0.4,0.35l-1.95,0.3
	l-0.9,0.15l-0.8,0.2l-1.5,0.3l-1.3,0.4l-1.1,0.3l-0.85,0.3l-0.7,0.3l-0.4,0.3l-0.65-0.5l-0.3-0.35l-0.2-0.3l-0.35-0.851l-0.15-1
	L48.3,124h0.05l-0.1-0.75v-0.65v-0.5v-0.35L53.3,120l5.25-1.5l2.6-0.7l2.7-0.55L69.3,116.3L69.3,116.3z"/>
<polygon fill-rule="evenodd" fill="#CDCCCC" points="76.25,115.2 74.7,115.399 73.05,115.649 71.25,115.95 69.3,116.3 63.85,117.25 
	61.15,117.8 58.55,118.5 53.3,120 48.25,121.75 48.25,122.1 48.25,122.6 48.25,123.25 48.35,124 48.35,124.649 58.8,121.7 
	59,121.45 59.3,121.1 59.6,120.85 60.2,120.6 60.15,121.399 61.5,120.899 62.85,120.5 65.45,119.75 67.8,119.1 68.9,118.8 70,118.6 
	72,118.149 73.8,117.899 75.4,117.75 76.1,117.7 76.85,117.75 76.55,116.7 76.4,116 76.25,115.55 76.25,115.45 76.25,115.2 "/>
<polygon fill-rule="evenodd" fill="#FFFFFF" points="74.65,123.399 74.95,123.399 75.1,123.399 75.3,123.45 75.9,123.55 
	76.45,123.55 76.65,123.55 76.75,123.55 76.8,123.55 76.9,123.6 76.9,123.55 76.95,123.55 77.05,123.55 77.25,123.55 77.35,123.5 
	77.5,123.5 77.65,123.399 77.65,123.35 77.7,123.35 77.8,123.35 77.85,123.05 77.85,122.899 77.9,122.8 77.9,122.2 77.8,121.85 
	77.75,121.649 77.75,121.5 77.65,121.1 77.6,120.899 77.6,120.75 77.45,120.25 77.35,119.8 77.15,118.85 76.85,117.75 76.1,117.7 
	75.4,117.75 73.8,117.899 72,118.149 70,118.6 68.9,118.8 67.8,119.1 65.45,119.75 62.85,120.5 61.5,120.899 60.15,121.399 
	60.1,121.8 60.15,122.149 60.25,122.45 60.45,122.75 60.65,122.95 60.95,123.1 61.25,123.2 61.65,123.3 62,123.1 62.25,122.899 
	62.4,122.7 62.45,122.5 62.4,122.399 62.4,122.35 62.4,122.25 62.3,122.05 62.2,121.95 62.15,121.899 62.05,121.8 61.8,121.6 
	62,121.2 62.8,121.3 63.45,121.5 63.9,121.75 64.25,122.1 64.25,122.149 64.35,122.3 64.5,122.55 64.6,122.899 64.7,123.45 
	64.7,123.8 64.7,124.2 66.45,123.899 68.1,123.7 69.6,123.5 70.95,123.399 72.1,123.3 73.1,123.3 73.95,123.3 74.65,123.399 "/>
<polygon fill-rule="evenodd" fill="#FFFFFF" points="59.5,125.1 59.1,124.75 58.75,124.399 58.5,124.1 58.3,123.8 58.25,123.6 
	58.2,123.5 58.2,123.35 58.2,123.1 58.25,122.8 58.4,122.2 58.8,121.7 48.35,124.649 48.5,125.649 48.85,126.5 49.05,126.8 
	49.35,127.149 50,127.649 50.4,127.35 51.1,127.05 51.95,126.75 53.05,126.45 54.35,126.05 55.85,125.75 56.65,125.55 
	57.55,125.399 59.5,125.1 "/>
<polygon fill-rule="evenodd" fill="#FFFFFF" points="48.35,124.649 48.35,124 48.3,124 48.35,124.649 "/>
<polygon fill-rule="evenodd" fill="#CB6928" points="74.45,112.149 73.7,112.05 73.15,112.05 72.2,112.05 71.15,112.1 70,112.2 
	68.8,112.399 67.45,112.6 66.1,112.85 64.6,113.149 63.05,113.55 61.2,113.95 59.55,114.399 58,114.85 56.6,115.35 55.25,115.8 
	54.1,116.3 53.05,116.8 52.1,117.35 52.9,117.45 53.25,117.25 53.7,117.1 54.65,116.8 55.75,116.5 57,116.2 58.3,115.8 59.8,115.5 
	60.55,115.3 61.4,115.149 63.15,114.85 64.3,114.55 65.4,114.35 67.5,113.95 68.45,113.75 69.35,113.55 71.05,113.25 71.75,113.05 
	72.4,112.95 73.6,112.7 74.1,112.6 74.55,112.5 74.95,112.399 75.3,112.35 75.2,112.25 75.05,112.25 74.8,112.149 74.45,112.149 "/>
<polygon fill-rule="evenodd" fill="#010101" points="71.45,136.7 71.5,136.7 71.7,136.95 71.9,137.1 71.95,137.1 72.05,137.149 
	72.15,137.149 72.15,137 72.1,136.899 72.1,136.85 72,136.6 71.9,136.25 71.6,135.75 71.4,135.399 71.15,135.149 70.95,135.05 
	70.65,135.05 70.5,135.1 70.4,135.25 70.1,135.55 69.9,136 69.75,136.149 69.7,136.3 69.7,136.35 69.85,136.3 69.9,136.3 
	70.1,136.35 70.3,136.35 70.6,136.399 71.05,136.5 71.45,136.7 "/>
<polygon fill-rule="evenodd" fill="#010101" points="86.4,152.3 83.9,151.3 81.7,150.3 79.75,149.2 78.85,148.6 78.1,148.05 
	77.3,147.399 76.65,146.8 75.5,145.5 74.95,144.8 74.55,144.149 73.9,142.75 73.65,142.149 73.45,141.55 73.15,140.899 72.9,140.2 
	72.55,139.399 72.25,138.55 71.85,137.649 71.65,137.149 71.55,136.899 71.5,136.7 71.65,138 71.85,139.25 72.1,140.45 72.4,141.6 
	72.7,142.649 73.1,143.649 73.5,144.6 74,145.5 74.45,146.3 75,147.05 75.55,147.7 76.2,148.35 76.8,148.85 77.5,149.35 
	79.05,150.149 79.4,150.25 79.8,150.399 80.55,150.7 81.9,151.2 83.1,151.6 83.6,151.75 84.1,151.95 84.9,152.149 85.2,152.2 
	85.55,152.3 85.8,152.3 85.9,152.3 85.95,152.3 86.05,152.35 86.05,152.3 86.1,152.3 86.2,152.3 86.4,152.3 "/>
<polygon fill-rule="evenodd" fill="#F8981D" points="72,147.35 71.35,146.5 71.1,146.25 70.9,146.1 70.65,145.95 70.45,146 
	70.3,146.05 70.2,146.3 70.1,146.45 70.1,146.7 70.15,147 70.3,147.399 70.45,147.8 70.7,148.3 71,148.85 71.45,149.5 71.85,150.1 
	72.25,150.649 72.65,151.1 73.15,151.5 73.55,151.8 73.95,152.05 74.35,152.2 74.55,152.25 74.8,152.35 75.05,152.45 75.35,152.6 
	75.9,152.8 76.4,152.95 76.85,153.05 76.85,153 76.9,153 77,153 77.2,153 77.5,152.95 77.6,152.85 77.6,152.8 77.65,152.8 
	77.75,152.8 78,152.6 78.15,152.25 78.2,152.05 78.05,151.85 77.9,151.649 76.85,151.5 76.55,151.399 76.45,151.35 76.4,151.35 
	76.3,151.35 76,151.2 75.75,151.1 75.4,150.899 75.1,150.75 74.7,150.55 74.35,150.35 74.2,150.25 74.1,150.2 73.9,150 73.65,149.7 
	73.4,149.399 73.2,149.149 73.05,148.95 72.75,148.5 72.35,147.95 72,147.35 "/>
<path fill-rule="evenodd" fill="#010101" d="M112.301,133.55l1.25,0.4l1.199,0.35l1.15,0.3l1.1,0.25l1,0.15h0.199h0.102l0.148,0.05
	l0.5,0.1h0.4h0.201h0.1l0.15,0.051h0.85l0.699-0.101l0.701-0.149l0.6-0.2l0.6-0.25l0.199-0.2l0.102-0.1l0.049-0.051h0.1l0.451-0.399
	v-0.101l0.049-0.05l0.102-0.1l0.199-0.2l0.301-0.5l0.449-1.15l0.4-1.05l0.299-1.05l0.301-0.95l0.199-0.95l0.15-0.85l0.1-0.85
	l0.051-0.7l-1.5-0.601l-1.449-0.5l-2.9-0.949l-2.951-0.851l-2.898-0.7l-3-0.6l-2.951-0.45l-3-0.3l-3-0.15l-0.199,0.5l-0.201,0.75
	l-0.148,0.4l-0.102,0.5l-0.148,0.5l-0.102,0.6l-0.35,1.051l-0.15,1.1l-0.148,1.1l0.049,1.101l0.15,0.5l0.15,0.3l0.35,0.3l0.85,0.65
	l0.551,0.35l0.65,0.4l0.648,0.3l0.852,0.4l1.85,0.8l2.15,0.85l1.148,0.45L112.301,133.55L112.301,133.55z M124.75,130.1l-0.1,0.101
	l-0.051,0.25l-0.15,0.25l-0.1,0.35l-0.25,0.35l-0.199,0.5l-0.25,0.5L123.4,133l-0.25,0.2l-0.15,0.1l-0.1,0.15L122.6,133.6
	l-0.299,0.2l-0.451,0.1L121.4,134l-0.5,0.05l-0.5,0.05l-0.65-0.1l-0.199-0.05h-0.15H119.1l-0.699-0.15l-0.75-0.1l-0.85-0.2
	l-0.852-0.2l-0.898-0.25l-0.5-0.15l-0.451-0.1l-2-0.7l-1.699-0.6l-1.551-0.55l-1.299-0.5l-1.201-0.5l-0.949-0.45l-0.801-0.4
	l-0.5-0.3l-0.85-0.8l-0.449-0.7l-0.25-0.7l0.148-0.7l0.201-0.699l0.199-0.45l0.1-0.351l0.102-0.1l0.299-0.9l0.1-0.399l0.15-0.25
	l0.051-0.25l0.1-0.15l0.051-0.149l0.1-0.051l5.199,0.601l5.301,0.899l5.35,1.15l5.449,1.4l-0.299,1.899L124.75,130.1L124.75,130.1z"
	/>
<polygon fill-rule="evenodd" fill="#CDCCCC" points="110.5,124.75 111.301,125.05 111.6,125.25 111.85,125.45 113.949,125.6 
	114.949,125.7 115.949,125.899 116.85,126.05 117.75,126.3 119.449,126.85 120.949,127.5 122.35,128.25 123.6,129.1 124.15,129.55 
	124.75,130.1 125.15,128.1 125.449,126.2 120,124.8 114.65,123.649 109.35,122.75 104.15,122.149 104.051,122.2 104,122.35 
	103.9,122.5 103.85,122.75 103.699,123 103.6,123.399 103.301,124.3 103.5,124.05 103.85,123.899 104.301,123.75 104.9,123.75 
	105.551,123.75 106.4,123.85 107.35,124 108.449,124.25 108.85,124.05 109.4,124 109.35,124.5 110.35,124.899 110.5,124.75 "/>
<polygon fill-rule="evenodd" fill="#010101" points="111.85,125.45 111.6,125.25 111.301,125.05 110.5,124.75 110.35,124.899 
	110.15,125 110.1,125.3 110.15,125.75 109.949,126.149 109.65,126.7 109.1,126.6 108.9,126.45 108.801,126.35 108.699,126.149 
	108.699,125.95 108.699,125.649 108.801,125.399 109,124.95 109.35,124.5 109.4,124 108.85,124.05 108.449,124.25 108.051,124.45 
	107.801,124.8 107.551,125.2 107.4,125.75 107.301,125.899 107.25,126.149 107.15,126.5 107.051,127 107.199,127.5 107.35,127.7 
	107.65,127.95 107.9,128.1 108.301,128.3 108.699,128.45 109.25,128.649 109.65,128.7 110.15,128.7 110.551,128.55 111.051,128.35 
	111.301,128.05 111.551,127.75 111.75,127.399 111.949,127.05 112,126.6 112.1,126.3 112.15,126.05 112.199,125.899 
	112.051,125.649 111.85,125.45 "/>
<polygon fill-rule="evenodd" fill="#FFFFFF" points="111.85,125.45 112.051,125.649 112.199,125.899 112.15,126.05 112.1,126.3 
	112,126.6 111.949,127.05 111.75,127.399 111.551,127.75 111.301,128.05 111.051,128.35 110.551,128.55 110.15,128.7 109.65,128.7 
	109.25,128.649 108.699,128.45 108.301,128.3 107.9,128.1 107.65,127.95 107.35,127.7 107.199,127.5 107.051,127 107.15,126.5 
	107.25,126.149 107.301,125.899 107.4,125.75 107.551,125.2 107.801,124.8 108.051,124.45 108.449,124.25 107.35,124 106.4,123.85 
	105.551,123.75 104.9,123.75 104.301,123.75 103.85,123.899 103.5,124.05 103.301,124.3 103.199,124.399 103.1,124.75 102.9,125.2 
	102.699,125.899 102.551,126.6 102.801,127.3 103.25,128 104.1,128.8 104.6,129.1 105.4,129.5 106.35,129.95 107.551,130.45 
	108.85,130.95 110.4,131.5 112.1,132.1 114.1,132.8 114.551,132.899 115.051,133.05 115.949,133.3 116.801,133.5 117.65,133.7 
	118.4,133.8 119.1,133.95 119.4,133.95 119.551,133.95 119.75,134 120.4,134.1 120.9,134.05 121.4,134 121.85,133.899 
	122.301,133.8 122.6,133.6 122.9,133.45 123,133.3 123.15,133.2 123.4,133 123.65,132.399 123.9,131.899 124.1,131.399 
	124.35,131.05 124.449,130.7 124.6,130.45 124.65,130.2 124.75,130.1 124.15,129.55 123.6,129.1 122.35,128.25 120.949,127.5 
	119.449,126.85 117.75,126.3 116.85,126.05 115.949,125.899 114.949,125.7 113.949,125.6 111.85,125.45 "/>
<polygon fill-rule="evenodd" fill="#FFFFFF" points="109.65,126.7 109.949,126.149 110.15,125.75 110.1,125.3 110.15,125 
	110.35,124.899 109.35,124.5 109,124.95 108.801,125.399 108.699,125.649 108.699,125.95 108.699,126.149 108.801,126.35 
	108.9,126.45 109.1,126.6 109.65,126.7 "/>
<polygon fill-rule="evenodd" fill="#CB6928" points="106.6,117.25 105.699,117.2 104.949,117.35 104.301,117.6 104,117.8 
	103.801,118.1 104.15,118.1 104.65,118.149 105.25,118.25 106,118.399 106.801,118.5 107.75,118.7 108.801,118.899 110,119.149 
	111.25,119.35 112.6,119.6 114.051,119.899 115.699,120.25 117.4,120.55 119.25,120.899 121.199,121.3 123.25,121.75 120.15,120.7 
	117.4,119.85 114.85,119.1 113.699,118.75 112.699,118.5 110.699,117.95 109.051,117.6 107.65,117.35 107.051,117.25 106.6,117.25 
	"/>
</svg>
