<?xml version="1.0" encoding="utf-8"?>
<!-- Generator: Adobe Illustrator 13.0.0, SVG Export Plug-In . SVG Version: 6.00 Build 14948)  -->
<svg version="1.2" baseProfile="tiny" id="Layer_1" xmlns="http://www.w3.org/2000/svg" xmlns:xlink="http://www.w3.org/1999/xlink"
	 x="0px" y="0px" width="176.949px" height="171.399px" viewBox="0 0 176.949 171.399" xml:space="preserve">
<path fill-rule="evenodd" fill="#F8981D" d="M60.399,17.15l-1.75,0.1l-1.5,0.1l-1.3,0.1l-1,0.1H54l-0.601,0.1H53l-0.101,0.1
	l-0.6,0.15l-2.95,0.75l-2.75,0.9l-2.65,0.9l-2.5,1.05l-2.399,1.05l-2.25,1.2L34.699,25l-1.949,1.35l-1.551,1L29.8,28.4l-1.4,1
	l-1.25,1l-1.25,0.9l-1.149,0.95l-1.101,0.9l-0.95,0.9l-1,0.8l-0.85,0.8l-0.8,0.75l-0.7,0.8l-0.7,0.65l-0.55,0.7l-0.5,0.65l-0.4,0.65
	l-1.35,1.9L14.6,43.7l-2.3,3.8l-2.2,3.7l-1.9,3.7L7.25,56.65l-0.851,1.8L5.6,60.2l-0.7,1.8l-0.75,1.7l-0.6,1.75l-1.101,3.4L3.5,67.7
	l1.05-1l0.95-0.95l0.899-0.85l0.8-0.85l0.75-0.75l0.65-0.7l0.65-0.55l0.449-0.55l0.65-0.6l0.75-0.75l0.45-0.4l0.55-0.4l0.5-0.5
	l0.6-0.5L13.8,57.8l0.7-0.5l0.649-0.6l0.75-0.6l0.75-0.65l0.851-0.6l0.8-0.75l0.899-0.7l0.9-0.8l1-0.75L22.05,51l1.05-0.8l2.25-1.75
	l2.35-1.95l2.551-1.95l2.649-2.15l2.851-2.15l-1.4,1.2l-2.45,2.3l-2.3,2.4l-2.15,2.4L25.5,51.1l-0.351,0.45L24.8,52.1l-0.45,0.65
	l-0.45,0.8l-0.55,0.8l-0.6,0.95l-0.65,1l-0.65,1.15l-0.8,1.15l-0.8,1.3l-0.9,1.35l-0.899,1.5l-1,1.5L16,65.9l-1.101,1.7l-1.1,1.85
	l-2.25,3.7L10.5,75l-0.851,1.9L8,80.7l-1.25,3.9l-1.051,3.9L5.05,92.45l-0.25,2l-0.15,2l-0.05,4.1l0.05,3.95l0.25,3.8l0.25,3.65
	l0.45,3.55l0.45,3.351l0.55,3.199l0.65,3.051l0.8,2.949l0.7,2.7l0.35,1.3l0.4,1.301l0.699,2.399l0.7,2.3l0.601,2.101l0.6,2
	l0.25,0.899l0.3,0.9l0.601,1.75l0.05-0.5l0.2-0.7l0.199-0.899l0.351-1.101l0.149-0.649l0.2-0.7l0.55-1.5l0.551-1.8l0.699-1.9
	l0.95,1.35l1,1.45l1,1.5l1.101,1.65l1.05,1.649l1.149,1.801l2.351,3.85v0.05l0.1,0.15l0.15,0.25l0.25,0.45l0.25,0.449l0.35,0.551
	l0.351,0.649l0.5,0.851l0.449,0.85l0.601,0.95l0.6,1.05l0.7,1.25l0.7,1.25l0.85,1.35l0.851,1.45l0.949,1.65v-0.9v-0.95l-0.1-1.149
	l-0.05-0.601v-0.6l-0.101-0.7l-0.05-0.7l-0.1-0.75L32,155.35l-0.101-0.45l-0.05-0.4l-0.1-0.8l-0.2-1.7l-0.2-0.95l-0.15-1L31,149
	l-0.101-0.55l-0.05-0.5l-0.15-0.6l-0.1-0.551l-0.2-1.149l-0.1-0.351l-0.05-0.3l-0.101-0.6l-0.2-1.25l-0.3-1.351l-0.25-1.399
	l-0.3-1.45l-0.1-0.4l-0.051-0.199v-0.15l-0.1-0.7l-0.6-3.1l-0.601-3.3l-0.45-1.7l-0.25-1.601l-0.25-1.55l-0.1-1.45l-0.1-1.449
	L26.55,122l0.05-1.3l0.25-1.2l0.15-1.1l0.149-1.101v-0.6v-0.3v-0.15l0.05-0.1L27.3,115v-1.05v-1.05l-0.25-1.75l-0.05-1.7V109
	l-0.101-0.649l-0.05-0.601L26.6,106l-0.05-1.55l-0.05-1.55l0.149-1.4l0.15-1.399l0.3-1.25l0.35-1.2l0.5-1.05l0.45-0.9l0.25,1
	L28.5,97.1l-0.051,0.449l-0.05,2.15l-0.149,3.05v1l0.25,7.351l0.149,2.55l0.25,2.7l0.25,2.75l0.351,2.949l0.199,2.2L30,126.4
	l-0.15,0.55l-0.05,0.6l-0.05,0.601l0.449,3.8l0.051,0.75l-0.101,1.7l0.05,1.5v0.649l0.051,0.601l0.199,1.1l0.101,0.351l0.2,0.6
	l0.35,0.45v0.3v0.15l0.05,0.199l0.101,0.7l0.199,1.2l0.2,1l0.2,0.9l0.05,0.3L32,144.7l0.199,0.5l0.2,0.3l0.2,0.101l0.3-0.051
	l0.25-0.1l0.2-0.2l0.15-0.2V145v-0.2l0.05-0.199v-0.25l0.05-0.301l-0.05-0.1v-0.05v-0.101v-0.25l-0.05-0.3v-0.3l-0.101-0.8
	l-0.05-0.5v-0.5v-0.101V140.9v-0.101v-0.149l-0.1-0.351v-0.35l-0.051-0.1v-0.051v-0.1v-0.2v-0.55l-0.1-0.65l-0.05-0.699
	l-0.101-0.801v-0.85l-0.1-1l-0.1-1.05l-0.101-1.15l-0.1-1.149l-0.101-0.7l-0.05-0.2v-0.15v-0.3l-0.1-1.35l-0.101-1.45l-0.1-1.5
	l-0.3-3.3l-0.25-3.15l-0.25-3l-0.15-2.8l-0.3-9.65l0.1,0.301v0.05L31,104.5l0.1,0.2l0.3,0.65l0.25,0.5l0.3,0.449l0.2,0.351
	l0.101,0.1l0.05,0.05l0.1,0.101l0.2,0.149h0.1h0.051l0.1,0.051l0.6-1.45l0.75-1.45l0.301-0.8l0.35-0.65l0.7-1.1l0.3-0.5l0.35-0.4
	l0.301-0.35l0.35-0.2l-0.05,0.25l0.1,0.35L37,101.25l0.25,0.601l0.25,0.649l0.35,0.851l0.4,0.899l0.55,1.05l0.1-0.3l0.25-0.35
	l0.3-0.55l0.4-0.601l0.4-0.8l0.55-0.85l0.55-1.051l0.7-1.1l0.399-0.8l0.15-0.351l0.2-0.25l0.5,0.7l0.6,1l0.601,1.15l0.75,1.399
	l0.3,0.65l0.45-0.85l0.25-0.45l0.35-0.4l0.3-0.55l0.4-0.5l0.85-1.05l0.95-1.25l1.05-1.3l1.15-1.45l1.35-1.55l0.8,1.6h-0.1l-0.8,0.25
	l-0.65,0.35l-0.649,0.4L50.8,96.9l-0.45,0.45L50,97.85L49.55,99l2.05-0.649l1.95-0.5h0.05l0.95-0.2l1.3,2.6l0.25-0.399l0.35-0.351
	l0.75-0.8l0.851-0.95l1.05-1l1.55-0.2l1.55-0.05l0.2,0.4l0.15,0.35l0.2,0.55l0.449,1.25L64.3,97.9l1.1-1.05L66.3,97l1.05,0.2
	l1.15,0.25l1.35,0.3l0.65,0.101l0.3,0.05l0.35,0.1l0.55,0.101L72.3,98.25l1,0.2l0.85,0.2l0.65,0.1h0.1h0.05l0.101,0.05L75.3,98.9
	h0.149l0.2,0.05h0.101l0.1,0.05l0.4-0.05l0.399-0.05l0.3-0.15L77.25,98.6l0.199-0.25V98.25V98.2H77.5l0.1-0.1l0.1-0.351v-0.2v-0.1
	V97.4h0.051l-0.051-0.3l-0.05-0.2l0.65-0.8l0.85-0.9l0.45-0.6L80.149,94l0.55-0.649l0.65-0.65l0.7-0.95l0.649-0.8L83.3,90.2
	l0.55-0.6l3.6,7.75l1.25-1.65l1.45-1.6l1.5-1.551l1.65-1.5l0.649,0.9l0.7,0.95l0.65,0.899l0.3,0.45l0.35,0.5l1.15,1.7l0.55,0.8
	l0.25,0.4l0.3,0.45l0.551-0.75l0.649-0.7l0.7-0.8l0.85-0.75l0.801-0.9l0.949-0.85l0.95-0.95l1.101-0.9l5.199,8.95l1.15-0.85
	l1.1-0.75l0.95-0.7l0.9-0.601l0.649-0.6l0.65-0.5L115.8,96l0.399-0.35l2.25,6.149l0.45-0.399l0.55-0.351L120,100.6l0.649-0.4
	L122,99.25l0.75-0.5l0.85-0.45l0.25,0.95l0.3,1.15l0.3,1.149l0.15,0.5l0.2,0.5l0.3,0.851v0.05l0.05,0.1l0.101,0.2l0.199,0.4
	l0.301,0.55l0.3,0.4l0.1,0.1l0.05,0.05l0.101,0.101l0.3,0.1l1.15-1.05l1.149-0.9l1-0.85l0.95-0.75l0.25-0.2v0.1v1v0.15v0.35v0.45
	l0.1,0.65v0.75l0.101,0.899l0.1,1.051l0.15,1.199l0.6-0.35l0.75-0.3l0.8-0.4l0.9-0.35l0.9-0.45l1.05-0.4l1.05-0.449l1.2-0.4
	l-0.5,0.9l-0.4,0.85l-0.399,0.75l-0.25,0.75l-0.25,0.6l-0.15,0.551l-0.15,0.449v0.4l1.2-0.65l1.15-0.55l2.1-1.05l1.8-0.95
	l0.801-0.399l0.75-0.351l-0.25,3.05l-0.351,3.2l-0.45,3.25L143,119.35l-0.65,3.399l-0.65,3.55l-0.85,3.551l-0.85,3.699l-0.5,1.65
	l-0.4,1.55l-0.35,1.351l-0.301,1.25l0.551-0.2l0.3-0.05l0.7-0.25l0.649-0.101l0.8-0.25l-0.6,1.15l-0.45,1.1l-0.35,0.7l-0.25,0.7
	l-0.25,0.649l-0.15,0.65l-0.2,0.6l-0.1,0.551l-0.1,0.5v0.449v0.351l0.1,0.35l0.15,0.25l0.25,0.2l0.25,0.1l0.35,0.051l0.1-0.101
	l0.2-0.3l0.25-0.45l0.351-0.6l0.35-0.8l0.45-0.95l0.45-1.15l0.6-1.3l0.25-0.85l0.3-0.75l0.25-0.7l0.3-0.601l0.4-1.1l0.15-0.5
	l0.199-0.35l0.4-0.4l0.35-0.35l0.301-0.351l0.3-0.25l0.149-0.3l0.15-0.2l0.1-0.2l0.051-0.149l-0.051-0.3l-0.05-0.15l0.3-0.35
	l0.101-0.101l0.05-0.1l-0.1-0.45l-0.101-0.2l-0.1-0.1l-0.4-0.15l-0.45-0.05l-0.75,0.25l-0.6,0.2l-0.45,0.149l-0.35,0.15l0.2-0.75
	l0.25-0.8l0.25-0.851l0.3-0.949l0.25-1.051l0.3-1.149l0.3-1.25l0.3-1.25l0.2-1.351l0.25-1.199l0.2-1.15l0.2-1.05l0.149-1l0.2-0.851
	l0.101-0.85l0.199-0.65l0.101-0.649l0.1-0.55l0.2-0.851l0.1-0.55v-0.15h0.051l-0.051-1.55V111.1l-0.1-1.351l-0.05-1.149l-0.101-1.15
	l-0.1-0.95l-0.1-0.5l-0.051-0.399l-0.1-0.75l0.2-0.2l0.149-0.15l0.101-0.149l0.05-0.101l-0.1-0.3l-0.101-0.15l-0.05-0.1l-0.2-0.2
	L147,103.4l-0.15-0.351l-0.15-0.199l-0.25-0.15l-0.35-0.05l-0.5-0.3l-0.5,0.05l-0.05,0.25l-1.3,0.2l-1.25,0.5l-0.95,0.35
	l-0.851,0.35l-0.8,0.25l-0.7,0.15v-0.75l0.051-0.6V102.5l0.05-0.5l0.149-0.35l0.2-0.25l0.351-0.45l0.149-0.35l0.05-0.15l0.051-0.05
	l-0.051-0.101v-0.05l-0.1-0.149l0.25-0.351l0.05-0.1h0.05l-0.1-0.65l-0.1-0.25l-0.101-0.149l-0.2-0.2l-0.149-0.101l-0.45-0.05h-0.2
	l-0.2,0.101l-0.3,0.1l-0.25,0.2l-0.35,0.2l-0.351,0.3l-0.449,0.35l-0.4,0.45l-0.65,0.5l-0.5,0.45l-0.5,0.399l-0.35,0.351l-0.35,0.25
	l-0.15,0.2l-0.15,0.1v0.1v-0.25l0.2-0.399l0.2-0.45l0.15-0.55l0.149-0.4l0.05-0.399L135,99.6v-0.25l0.05-0.25l0.05-0.15l-0.05-0.3
	l-0.101-0.25l-0.199-0.2l-0.25-0.1l-0.2-0.351l-0.25-0.25l-0.351-0.149h-0.35l-0.85,0.35l-0.15-0.3l1.45-0.7l1.35-0.6l1.2-0.601
	l1.1-0.6l-1.75,5.399l0.551-0.699l0.6-0.601l1.1-1.05l0.45-0.5l0.5-0.4l0.4-0.399l0.45-0.3L140.1,96l0.35-0.25l0.301-0.2l0.35-0.1
	l0.25-0.15l0.25-0.05l0.45,0.05l0.25,0.15l0.1,0.15l0.101,0.25l0.05,0.55v0.35v0.45l-0.101,0.4l-0.1,0.5l-0.25,1.149l-0.2,0.601
	l-0.2,0.699l-0.25,0.7l-0.199,0.8l2-0.399l1.8-0.3l1.6-0.301l1.45-0.25l0.2,1.301l0.3,1.5l0.2,1.6l0.3,1.8l0.05,0.95v0.5l0.05,0.6
	l-0.05,0.551v0.649l-0.05,1.351l-0.15,1.449l-0.1,0.75l-0.05,0.851l-0.2,1.7l-0.2,1.85l-0.35,1.8l-0.2,0.9l-0.1,0.45l-0.051,0.5
	l-0.449,1.8l-0.5,1.8l-0.601,1.7l-0.6,1.75l-0.7,1.7l-0.7,1.699l1.75-1.649l1.7-1.55l1.65-1.45l1.649-1.25l-0.25,0.5l-0.2,0.6
	L150,128.75l-0.5,1.351l-0.551,1.55l-0.649,1.55l-0.7,1.75l-0.75,1.85l-0.75,1.95l-0.9,2.05l-0.899,2.15l-0.5,1.1l-0.45,1.2
	l-0.95,2.45l-1.1,2.5l-1.101,2.65l-1.149,2.75l-1.2,2.899l0.25-0.899l-0.2,0.55l-0.149,0.5l-0.15,0.399l-0.05,0.351l1.649-2.15
	l1.601-2l1.5-1.899l1.45-1.75l1.3-1.65l1.25-1.55l1.149-1.45l1.101-1.25l0.95-1.25l0.899-1.1l0.8-0.95l0.75-0.851l0.65-0.75
	l0.55-0.649l0.45-0.55l0.4-0.351l0.199,0.3l-1.05,13l0.2-0.199l0.25-0.25l0.3-0.4l0.351-0.45l0.35-0.649l0.4-0.7l0.449-0.851
	l0.5-0.85l0.5-1.1l0.551-1.15l0.6-1.25l0.65-1.35l0.649-1.551l0.7-1.55l0.75-1.75l0.8-1.75l0.7-1.899l0.7-1.801l1.3-3.449l0.5-1.7
	l0.5-1.601l0.45-1.6l0.45-1.5l0.3-1.55l0.3-1.45l0.25-1.4l0.2-1.3l0.1-1.35L167,114.9l0.1-2.351l-0.15-2.399l-0.25-2.4l-0.199-1.25
	l-0.15-1.2l-0.2-1.25L166,102.85l-0.551-2.601l-0.55-2.6l-0.2-0.7l-0.1-0.35l-0.05-0.301l-0.3-1.3l-0.75-2.7l0.35,0.101l0.4,0.149
	L165,92.85l0.699,0.25l0.65,0.3l0.55,0.2l0.25,0.1l0.3,0.15l1,0.399l0.351,0.101h0.05l0.1,0.05l0.2,0.1l0.3,0.101l0.25,0.1h0.051
	l0.1,0.05L170,94.85l0.199,0.1l0.7,0.15l0.65,0.199l1.2,0.4l0.5,0.1l0.449,0.2l0.4,0.2l0.35,0.2l-0.5-2.7l-0.399-2.45l-0.4-2.35
	l-0.35-2.101l-0.4-2.05l-0.3-1.8l-0.3-1.7l-0.25-1.5L171,77.2l-0.551-2.45l-0.6-2.35l-0.55-2.2l-0.65-2.2l-0.6-2.05l-0.7-1.95
	l-0.65-1.85l-0.949-2.3l-0.95-2.2l-1.05-2.15l-1-2l-1.15-2l-1.1-1.85l-1.2-1.85l-1.15-1.7l-1.3-1.75l-1.3-1.6l-1.4-1.55l-1.35-1.4
	l-1.45-1.4l-1.45-1.3l-1.55-1.25l-1.5-1.1l-1-0.7l-1.05-0.7l-1.25-0.8l-1.25-0.8l-1.45-0.9l-1.5-0.9l-1.65-1l-1.75-1l-0.75-0.45
	l0.65-0.1l0.85-0.05l0.851-0.05l1,0.05l2.149,0.15l1.15,0.1l1.35,0.2l1.301,0.15l1.449,0.25l1.45,0.25l1.65,0.3l1.649,0.3l1.75,0.35
	l1.801,0.35l1.949,0.45l-2-2.25l-1.05-1.05l-1.1-1l-1.2-1l-1.2-0.9l-2.6-1.75l-2.9-1.65l-1.5-0.75l-1.55-0.7l-1.65-0.7l-1.649-0.6
	l-1.7-0.6l-1.75-0.55l-3.65-1.05l-3.6-0.95l-3.6-0.8l-3.551-0.65l-3.6-0.55l-3.5-0.4l-3.5-0.3l-3.45-0.15l-2.8-0.1l-2.6-0.1
	l-2.351-0.1l-1.1-0.05h-1l-1.9-0.1l-1.7-0.1l-1.5-0.1l-1.199-0.1l-0.301-0.4l-0.199-0.4l-0.2-0.45l-0.101-0.4L88.8,8.9l-0.05-0.5
	l-0.051-0.55L88.75,7.3l0.05-1.15l0.149-1.05l0.25-0.95l0.45-0.8L89.75,3V2.85L89.8,2.8l-0.15-0.05H89.5l-0.101,0.1l-0.25,0.05
	l-0.2,0.15l-0.25,0.15l-0.25,0.25l-0.35,0.2l-0.35,0.3l-0.4,0.3l-0.4,0.4l-0.8,0.6L85.399,6l-0.8,0.85l-0.7,1L83.1,8.9l-0.7,1.25
	l-0.8,1.35l-0.7,1.45l-1.649-0.7l-1.551-0.6l-1.449-0.7l-1.351-0.6L72.8,9.4l-2.101-0.65L68.6,8.3l-2.1-0.15l0.3,0.5l0.45,0.7
	l0.449,0.85l0.601,1.1l0.6,1.2l0.7,1.4l0.75,1.55l0.85,1.75l-1-0.15l-1.05-0.1l-1.2-0.1h-1.25H65.25l-1.5,0.05L62.1,17L60.399,17.15
	L60.399,17.15z M143.699,50.4l-0.399-0.3l0.399,0.25V50.4L143.699,50.4z M116.6,90.65h-0.15l-0.1,0.1l-0.2,0.101L116,91.049
	L115.85,91l-0.3,0.05l-0.25,0.15l-0.2-0.1l-0.15,0.05l-0.1,0.149V91.6l-0.45,0.449L114,92.7l-0.5,0.75l-0.25,0.4l-0.2,0.5
	l-0.45,0.449l-0.35,0.45l-0.551,0.7l-0.449,0.5l-0.15,0.2l-0.1,0.149l-0.851-1.3l-0.75-1.149l-0.7-1.051l-0.649-0.949l-0.65-0.851
	l-0.55-0.75l-0.5-0.649l-0.4-0.551l0.75-1.3l0.851-1.35l0.3,0.95l0.4,0.85l2.449,5.4l0.551-0.45l0.649-0.55l0.7-0.65l0.85-0.7
	l0.851-0.85l1-0.95l1.05-1.05l1.15-1.101l0.75,1.801l-0.551,0.449l-0.3,0.301l-0.25,0.399l-0.3-0.1H116.6L116.6,90.65z M127,90.65
	l0.199,0.6l0.2,0.8l0.3,1.9l0.051,0.9l0.1,0.949v0.851v0.899l-0.1,0.801l-0.051,0.399v0.45l1.9-0.75l1.85-0.65l-0.1,0.351l-4.25,1.7
	l-0.3-1.101l-0.25-0.95l0.1-0.1l0.15-0.1l0.1-0.2l0.05-0.101l0.101-0.05l0.05-0.3l0.1-0.25v-0.35l0.051-0.301l-0.101-0.699
	L127.05,95l-0.101-0.3l-0.199-0.4l-0.101-0.199L126.6,94v-0.05l-0.45-0.7l-0.45-0.55l-0.35-0.2l-0.25,0.05l-0.05,0.351h-0.2
	l-0.35,0.05L124.3,93l-0.2,0.15l-0.55,0.35l-0.601,0.55l-0.1-0.05v0.15l-0.3,0.25l-0.95,0.8l-0.4,0.35l-0.3,0.351l-0.35,0.25
	l-0.25,0.25l-0.351,0.35l-0.3-0.35l-0.149-0.2l-0.101-0.15l-0.5-0.75l-0.6-0.85l-0.5-0.95l0.35-0.6l0.4-0.5l0.3-0.45l0.3-0.35
	l1.05,2.5l2-1.051l0.9-0.5l0.9-0.399l1.6-0.851L127,90.65L127,90.65z M93.699,83.85l0.351,0.65l1.1,1.75l0.55,0.8L96.3,87.9
	l0.5,0.75l0.55,0.8l1.1,1.45L99,90.4l0.3-0.3l0.399-0.25l0.851-0.7l0.95-0.8l1.05-1l0.55-0.551l0.65-0.5l1.35-1.2l1.45-1.25
	l0.3,1.05l0.15,0.5l0.199,0.55l-1.5,0.75l-1.399,1.15l-0.351-0.2l-0.199,0.1l-0.15,0.3v0.5l-0.4,0.301l-0.35,0.399L102,90.2
	l-2.051,2.2l-1.85,2.3l-0.85-1.65L96.6,91.65l-0.55-1.15l-0.45-0.85l-0.55-0.8l-0.351-0.801l0.101-0.3l0.1-0.2l0.05-0.149L95,87.35
	l-0.051-0.4l-0.1-0.25l-0.15-0.3L94.5,86.25L94.199,86.1h-0.35l-0.3,0.149l-0.4-0.3l-0.3-0.1L92.5,85.9l-0.2,0.149l-0.101,0.15
	l-0.1,0.15l0.05,0.25L92,86.75L91.899,87l-0.05,0.75l0.1,0.2l-0.35,0.35l-0.3,0.45l-0.351,0.5l-0.3,0.601L90,90.75l-0.65,1.05
	l-0.7,1.101l-0.7,1.2L87.3,92.7l-0.5-1.25l-0.5-1.15l-0.351-0.949l-0.25-1L85.5,87.5l0.399-0.55l0.15-0.25l0.2-0.15l0.149-0.25
	l0.05-0.1H86.5l-0.051-0.3v-0.2l-0.1-0.35l-0.15-0.25L86,84.95l-0.301-0.05H85.5L85.35,85l-0.4,0.15L84.5,85.5l-0.101-0.1
	l-0.35-0.45l-0.3-0.25l-0.25-0.1l-0.15,0.05l-0.2,0.15l-0.1,0.35L83,85.6v0.65l0.1,0.351l-0.45,0.35l-0.6,0.45l-0.65,0.649
	l-0.7,0.65l-0.75,0.8l-0.85,0.8l-0.85,0.95L77.3,92.2l-0.95,1.1l-0.1-0.1l-0.051-0.1l-0.1-0.25l-0.1-0.2l-0.051-0.2L75.85,92
	l-0.1-0.2l-0.051-0.1v-0.05l-0.1-0.3l-0.2-0.7l-0.1-0.25l-0.05-0.2l-0.101-0.4l-0.1-0.25L75,89.35l-0.101-0.45l-0.25-0.65l-0.2-0.55
	l-0.399-0.85l0.5-0.65l0.399-0.45l0.2-0.35l0.05-0.1h0.051l-0.051-0.55L75.05,84.4l-0.15-0.15l-0.1-0.05l-0.3-0.05l-0.45,0.05
	l-0.25,0.05l-0.2,0.15L73,84.75l-0.65,0.55L72,85.6l-1,0.85l-0.7,0.7l-0.601,0.55l-0.25,0.2l-2.1,2.2l-1.8,2.3l-0.3,0.399
	l-0.601,0.9H64.6l-0.1-0.2v-0.25l-0.101-0.35v-0.4l-0.2-1.85L64,89.15l-0.051-0.5l0.15-0.25h0.05l0.2-0.55l0.25-0.45l0.4-0.75
	L65.25,86l0.1-0.25l0.1-0.15l0.75,4.6l0.851-1l1.05-1l1.15-1.1l1.25-1.15l0.85-0.85l0.8-0.7l0.75-0.65l0.7-0.5l0.6-0.5l0.551-0.35
	l0.5-0.3l0.449-0.15v0.45L75.8,83l0.1,0.75l0.2,0.95l0.2,1.05l0.3,1.2l0.35,1.35l0.45,1.5l0.45-0.6l0.25-0.35l0.35-0.301l0.75-0.85
	l0.4-0.5l0.5-0.45l0.95-1.15l1.149-1.2l1.25-1.4l0.65-0.75l0.75-0.7l3.8,8.3l0.7-0.9l0.7-0.8l1.35-1.55l1.2-1.45l0.55-0.7
	L93.699,83.85L93.699,83.85z M148.6,83.35l0.15,0.05l-0.2,0.35l-0.101,0.35l0.051-0.4L148.6,83.35L148.6,83.35z M45.85,96.4
	l-0.2-0.55L45.5,95.4l-0.301-0.8L45,94.2l-0.15-0.25l-0.1-0.4l-0.051-0.3L44.6,93l-0.1-0.149l-0.15-0.301l-0.1-0.149l-0.2-0.101
	l-0.15,0.051l-0.25,0.05l-0.2,0.2l-0.3,0.25l-0.25,0.399l-0.25,0.05L42.5,93.45l-0.101,0.45l-0.05,0.05l-0.5,0.45l-0.5,0.55
	l-0.75,0.85L39.8,96.9l-0.351,0.5l-0.6,0.85L38.6,97.5l-0.2-0.6l-0.2-0.45l0.051-0.1V96.2l-0.101-0.65l-0.1-0.25l-0.101-0.149
	l-0.199-0.2l-0.2-0.1l-0.45-0.051l-0.3,0.15l-0.7-0.15h-0.35l-0.25,0.15l-0.15,0.1l-0.15,0.4v0.3l0.101,0.3V96.1l0.05,0.1l0.1,0.2
	l-0.6,0.85l-0.5,0.65l-0.45,0.75l-0.55,0.8l-0.5,0.9l-0.45-0.95l-0.35-0.8l-0.351-0.75l-0.3-0.65v-0.5v-0.25l0.05-0.2l0.051-1V95
	l0.149-0.3l0.15-0.2l0.25,0.8l0.35,0.95l0.351,1.05l0.449,1.2l0.851-2l1-1.649l1-1.45l1.149-1.101l0.5,0.601l0.551,0.7l1,1.449
	l0.25,0.45l0.1-0.3l0.2-0.25L40,94.6l0.35-0.351l0.3-0.45l0.4-0.449l0.45-0.5l0.55-0.5l0.649-0.801l0.851-0.85l0.85-0.95l1-1
	l0.3,1.2L46,91l0.199,0.9l0.101,0.399l0.149,0.4l1.15-1.45l1.05-1.25l0.95-1.149l0.45-0.551l0.5-0.449l0.75-0.95l0.35-0.45l0.4-0.35
	l0.6-0.65l0.25-0.3l0.3-0.2l0.351,0.8l0.55,1.101l0.55,1.35l0.7,1.65l0.05-0.2l0.101-0.101V89.5l0.05,0.05H55.5v0.101L55.399,90
	l0.75,1.95l0.05,0.15l0.5,1.399l0.9-1.149l0.9-1l0.85-1l0.85-0.9l-0.899,1.5l-0.75,1.35l-0.75,1.15l-0.65,1H57.1l-0.05,0.05
	L57,94.45h-0.051l-1.1,0.25l-0.4-1l-0.35-0.9l-0.25-0.55l-0.3-0.7V91.5h-0.2l-0.2-0.1L54,91.2l-0.101-0.15l-0.3-0.5l0.1,0.15
	l0.15,0.2l0.1,0.1L54,91.049l0.1,0.101l0.05,0.05l0.101,0.05V91.2h0.05h0.1l-0.3-0.65L53.85,90.1l-0.25-0.45l-0.2-0.25l0.15-0.4
	l0.149-0.3l0.101-0.25l0.05-0.1L53.8,87.9v-0.351l-0.101-0.35l-0.05-0.25l-0.2-0.4l-0.149-0.1h-0.101H52.8l-0.45,0.25l-0.5,0.4
	l-0.3,0.3l-0.25,0.399l-0.65,0.65l-0.6,0.8l-0.351,0.4l-0.3,0.5l-0.6,1.05l-0.4,0.5l-0.35,0.6l-0.7,1.25L46.6,94.9l-0.4,0.7
	L45.85,96.4L45.85,96.4z M28.649,95.1l0.05,0.05l-0.1,0.1L28.649,95.1L28.649,95.1z M30.1,92.45h-0.15l0.101-0.3l0.149-0.2l0.2-0.3
	l0.101,0.2l0.05,0.1l0.1,0.15l0.3,0.5l-0.399-0.15H30.1L30.1,92.45z M64.649,84.4l0.5-0.5l0.101,0.75L65.1,84.5L65,84.45
	L64.649,84.4L64.649,84.4z M75.3,95.049l-1-0.35l-1.05-0.25L70.85,94L69.6,93.85l-1.25-0.051l0.65-0.75l0.649-0.649l0.55-0.65
	l0.551-0.5l0.449-0.55l0.45-0.45l0.4-0.399l0.399-0.301l0.5,1.051l0.65,1.3l0.75,1.45L75.3,95.049L75.3,95.049z"/>
<polygon fill-rule="evenodd" fill="#FFCD05" points="63.949,88.65 64,89.15 64.199,90.65 64.399,92.5 64.399,92.9 64.5,93.25 
	64.5,93.5 64.6,93.7 64.649,93.7 65.25,92.799 64.6,90.549 64.149,88.4 64.1,88.4 63.949,88.65 "/>
<polygon fill-rule="evenodd" fill="#FFCD05" points="38.85,98.25 39.449,97.4 38.949,97.299 38.6,97.049 38.399,96.9 38.6,97.5 
	38.85,98.25 "/>
<polygon fill-rule="evenodd" fill="#FFCD05" points="54.55,91.5 54.75,90.95 55,90.549 55.199,90.2 55.399,90 55.5,89.65 
	55.5,89.549 55.55,89.549 55.5,89.5 55.5,89.549 55.399,89.65 55.35,89.85 55.149,90.049 54.949,90.35 54.649,90.7 54.399,91.2 
	54.3,91.2 54.25,91.2 54.25,91.25 54.149,91.2 54.1,91.15 54,91.049 53.949,91 53.85,90.9 53.699,90.7 53.6,90.549 53.899,91.049 
	54,91.2 54.149,91.4 54.35,91.5 54.55,91.5 "/>
<polygon fill-rule="evenodd" fill="#FFCD05" points="73.25,94.45 74.3,94.7 75.3,95.049 74.35,93.35 73.6,91.9 72.949,90.6 
	72.449,89.549 72.05,89.85 71.649,90.25 71.199,90.7 70.75,91.25 70.199,91.75 69.649,92.4 69,93.049 68.35,93.799 69.6,93.85 
	70.85,94 73.25,94.45 "/>
<path fill-rule="evenodd" fill="#FFCD05" d="M124.149,100.4l-0.3-1.15l-0.25-0.95l-0.85,0.45l-0.75,0.5l-1.351,0.95L120,100.6
	l-0.551,0.449l-0.55,0.351l-0.45,0.399l-2.25-6.149L115.8,96l-0.45,0.45l-0.65,0.5l-0.649,0.6l-0.9,0.601l-0.95,0.7l-1.1,0.75
	l-1.15,0.85l-5.199-8.95l-1.101,0.9l-0.95,0.95l-0.949,0.85l-0.801,0.9l-0.85,0.75l-0.7,0.8l-0.649,0.7l-0.551,0.75l-0.3-0.45
	l-0.25-0.4l-0.55-0.8l-1.15-1.7l-0.35-0.5l-0.3-0.45l-0.65-0.899l-0.7-0.95l-0.649-0.9l-1.65,1.5l-1.5,1.551l-1.45,1.6l-1.25,1.65
	l-3.6-7.75l-0.55,0.6l-0.601,0.75l-0.649,0.8l-0.7,0.95l-0.65,0.65L80.149,94L79.6,94.6l-0.45,0.6l-0.85,0.9l-0.65,0.8l0.05,0.2
	l0.051,0.3h-0.051v0.05v0.1v0.2L77.6,98.1l-0.1,0.1h-0.051v0.05v0.101L77.25,98.6l-0.301,0.149l-0.3,0.15l-0.399,0.05L75.85,99
	l-0.1-0.05h-0.101l-0.2-0.05H75.3l-0.25-0.101l-0.101-0.05h-0.05h-0.1l-0.65-0.1l-0.85-0.2l-1-0.2L71.699,98.1L71.149,98l-0.35-0.1
	l-0.3-0.05l-0.65-0.101l-1.35-0.3l-1.15-0.25L66.3,97l-0.9-0.149l-1.1,1.05l-1.101,1.149l-0.449-1.25l-0.2-0.55l-0.15-0.35l-0.2-0.4
	l-1.55,0.05l-1.55,0.2l-1.05,1l-0.851,0.95l-0.75,0.8L56.1,99.85l-0.25,0.399l-1.3-2.6l-0.95,0.2h-0.05l-1.95,0.5L49.55,99L50,97.85
	l0.35-0.5l0.45-0.45l0.45-0.45l0.649-0.4l0.65-0.35l0.8-0.25h0.1l-0.8-1.6L51.3,95.4l-1.15,1.45l-1.05,1.3l-0.95,1.25l-0.85,1.05
	l-0.4,0.5l-0.3,0.55l-0.35,0.4L46,102.35l-0.45,0.85l-0.3-0.65l-0.75-1.399L43.899,100l-0.6-1l-0.5-0.7l-0.2,0.25l-0.15,0.351
	l-0.399,0.8l-0.7,1.1l-0.55,1.051l-0.55,0.85l-0.4,0.8l-0.4,0.601l-0.3,0.55l-0.25,0.35l-0.1,0.3l-0.55-1.05l-0.4-0.899L37.5,102.5
	l-0.25-0.649L37,101.25l-0.101-0.45l-0.1-0.35l0.05-0.25l-0.35,0.2l-0.301,0.35l-0.35,0.4l-0.3,0.5l-0.7,1.1l-0.35,0.65l-0.301,0.8
	l-0.75,1.45l-0.6,1.45l-0.1-0.051h-0.051h-0.1l-0.2-0.149l-0.1-0.101l-0.05-0.05l-0.101-0.1l-0.2-0.351l-0.3-0.449l-0.25-0.5
	l-0.3-0.65l-0.1-0.2l-0.051-0.1v-0.05l-0.1-0.301l0.3,9.65l0.15,2.8l0.25,3l0.25,3.15l0.3,3.3l0.1,1.5l0.101,1.45l0.1,1.35v0.3v0.15
	l0.05,0.2l0.101,0.7l0.1,1.149l0.101,1.15l0.1,1.05l0.1,1v0.85l0.101,0.801l0.05,0.699l0.1,0.65v0.55v0.2v0.1v0.051l0.051,0.1v0.35
	l0.1,0.351v0.149v0.101v0.149v0.101v0.5l0.05,0.5l0.101,0.8v0.3l0.05,0.3v0.25v0.101v0.05l0.05,0.1l-0.05,0.301v0.25l-0.05,0.199
	v0.2v0.05l3.1,2.351l3.2,2.2l3.2,2.05l3.25,1.95l3.25,1.75l3.3,1.6l3.3,1.45l3.35,1.35l3.351,1.101l3.399,1l3.4,0.85l3.5,0.75
	l3.45,0.5l3.5,0.4l3.55,0.25l3.6,0.1l0.9-0.05h0.95l1.899-0.05l3.7-0.25l3.601-0.45l3.6-0.55l3.5-0.801l1.7-0.449l0.399-0.15
	l0.45-0.1l0.9-0.2l0.8-0.3l0.4-0.15l0.449-0.1l1.7-0.551l1.65-0.6l1.7-0.6l3.199-1.45l1.551-0.8l1.6-0.75l1.5-0.9l0.35-0.25l0.4-0.2
	l0.8-0.399l1.5-0.95l0.75-0.5l0.8-0.45l0.7-0.55l0.75-0.5l1.5-1.05l2.9-2.2l2.8-2.4l2.8-2.55l0.15-0.65l0.25-0.649l0.25-0.7
	l0.35-0.7l0.45-1.1l0.6-1.15l-0.8,0.25L140,138.85l-0.7,0.25l-0.3,0.05l-0.551,0.2l0.301-1.25l0.35-1.351l0.4-1.55l0.5-1.65
	l0.85-3.699l0.85-3.551l0.65-3.55l0.65-3.399l0.449-3.351l0.45-3.25l0.351-3.2l0.25-3.05l-0.75,0.351l-0.801,0.399l-1.8,0.95
	l-2.1,1.05l-1.15,0.55l-1.2,0.65v-0.4l0.15-0.449l0.15-0.551l0.25-0.6l0.25-0.75l0.399-0.75l0.4-0.85l0.5-0.9l-1.2,0.4l-1.05,0.449
	l-1.05,0.4l-0.9,0.45l-0.9,0.35l-0.8,0.4l-0.75,0.3l-0.6,0.35l-0.15-1.199l-0.1-1.051l-0.101-0.899v-0.75l-0.1-0.65v-0.45v-0.35
	v-0.15v-1l-0.25,0.101l-0.95,0.75l-1,0.85l-1.149,0.9l-1.15,1.05l-0.3-0.1l-0.101-0.101l-0.05-0.05l-0.1-0.1l-0.3-0.4l-0.301-0.55
	l-0.199-0.4l-0.101-0.2l-0.05-0.1v-0.05l-0.3-0.851l-0.2-0.5l-0.15-0.5L124.149,100.4L124.149,100.4z M92.8,98.75L98,99.7l0.449,0.2
	l0.301,0.05l0.399,0.1h0.4l0.5,0.051h0.55l0.65,0.05h1.199l1.25,0.25l1.301,0.399l1.35,0.65l1.3,0.7l1.351,1l1.399,1.1l1.45,1.351
	l0.6,0.25l0.551,0.3l0.449,0.3l0.4,0.3l0.25,0.3l0.25,0.301l0.15,0.3l0.1,0.399l-0.4-0.199l-0.5-0.2l-0.199-0.101l-0.101-0.05h-0.05
	l-0.3-0.1l-0.7-0.2l-0.95-0.3l-1-0.3l-0.6-0.2l-0.3-0.101l-0.101-0.05h-0.05h-0.1l-1.25-0.3l-1.4-0.4l-1.3-0.3l-1.3-0.3l-1.2-0.15
	l-1.25-0.199l-1.15-0.051l-1.149-0.05l-1.051,0.05l-1.6-0.149l-0.15,1.25l-0.1,1.2L96.25,108l-0.101,1.05l-0.1,0.95L96,110.85
	l-0.101,0.8v0.75l-0.1,0.6v0.55L95.75,114v0.45l-0.051,0.3V115v0.15v0.1l0.051,2.7l0.3,2.85l0.399,2.95l0.301,1.5l0.399,1.601
	l0.3,1.449l0.301,1.45l0.199,1.25l0.101,0.601l0.149,0.6l0.051,0.5l0.1,0.5v0.2v0.1v0.05l0.05,0.101l0.101,0.5v0.399l0.05,0.4v0.35
	l0.05,0.4v0.3l0.05,0.2l0.101,0.25v0.05l0.05,0.101v0.05l0.05,0.1l-0.05,0.101V137v0.25l-0.101,0.2l-0.05,0.1v0.15l-0.149,0.1
	l-0.101,0.15l-0.3,0.15l-0.2-0.15l-0.1-0.2l-0.2-0.3l-0.1-0.35L97.3,137l-0.2-0.149l-0.2-0.25l-0.2-0.301L96.5,135.9l-0.2-0.45
	l-0.2-0.55l-0.1-0.601l-0.2-0.699l-0.15-0.75l-0.2-0.851l-0.1-0.899l-0.2-1l-0.1-1.051l-0.2-1.149l-0.1-1.2l-0.25-2.45l-0.2-2.149
	l-0.101-0.95l-0.05-0.851l-0.1-1.449l-0.101-1.15l-0.05-0.45v-0.35l-0.05-0.351V116.4v-0.15v-0.95l0.05-0.8l0.101-0.7l0.199-0.55
	v-0.3v-0.2v-0.1v-0.05h0.051v-0.45l0.05-0.5l-0.05-0.2v-0.15V111v-0.649l-0.101-0.75v-0.851l-0.1-0.5L94,108.1V108v-0.2l-0.101-1.05
	l-0.2-1.149l-0.1-1.15l-0.2-1.35l-0.1-0.7l-0.05-0.2v-0.15v-0.3l-0.101-0.399l-0.05-0.2V101l-0.1-0.7L92.8,98.75L92.8,98.75z
	 M56.449,101.25v0.05l-0.35,0.2l-0.25,0.101h-0.1L56.449,101.25L56.449,101.25z M79.699,125.9l0.801,1.7l0.6,1.85l0.2,0.95l0.149,1
	l0.101,1l0.05,1.05l-0.05,0.05v0.101v0.199v0.4L81.5,135l-0.101,0.75l-0.1,0.8l-0.2,0.7l-0.2,0.75l-0.25,0.7l-0.2,0.75l-0.199,0.3
	l-0.101,0.15l-0.05,0.2l-0.35,0.699L79,142.1l-0.5,0.6l-0.25,0.3l-0.2,0.351L77,144.549l-1.2,1.051l-0.351,0.199l-0.3,0.25l-0.6,0.5
	l-1.3,0.75l-0.7,0.351l-0.2,0.05l-0.15,0.1l-0.3,0.2l-0.75,0.2l-0.7,0.25l-0.75,0.2L69,148.85l-0.801,0.1l-0.75,0.1l-0.8,0.051
	H66.25h-0.2h-0.101l-0.05,0.05l-1.649-0.101l-1.5-0.199l-1.5-0.4l-1.4-0.45l-1.4-0.7l-1.25-0.75l-1.25-0.949l-1.149-1.051
	l-1.101-1.199l-0.949-1.25l-0.801-1.301L51.6,140.1l-0.25-0.65L50.8,138l-0.351-1.45l-0.149-0.8L50.25,135l-0.051-1.55l0.051-1.65
	l0.199-1.5l0.351-1.5l0.55-1.399l0.6-1.4l0.801-1.25l0.949-1.25l1.101-1.149l1.149-1.101l1.25-0.95l1.25-0.8l1.4-0.6l1.4-0.55
	l1.5-0.351l1.5-0.2l1.649-0.05l1.55,0.05l0.75,0.051L69,118l1.449,0.351l1.45,0.55l0.65,0.25l0.7,0.35l1.3,0.8l1.25,0.95l1.2,1.101
	l0.75,0.8l0.699,0.85l1.2,1.851l-1.05,9.899l1.25,1.851L79.699,125.9L79.699,125.9z M137.449,139.9l-0.149,0.8l-0.4,1.05
	L137.449,139.9L137.449,139.9z M137.449,139.7v0.05l-2.399,0.8l1.3-0.5L137.449,139.7L137.449,139.7z M121.05,120.25l0.75,0.851
	l0.75,0.949l0.55,1l0.55,1.051l0.351,1.05l0.3,1.149l0.149,1.15l0.101,1.25l-0.05,0.1v0.15v0.3l-0.051,0.601l-0.149,1.199
	l-0.3,1.101l-0.351,1.1l-0.55,1l-0.55,1l-0.4,0.45l-0.35,0.5l-0.4,0.45l-0.35,0.5l-0.5,0.35l-0.45,0.4l-0.5,0.35l-0.45,0.4l-1,0.55
	l-1,0.55l-1.1,0.351l-1.101,0.3l-1.199,0.149l-0.601,0.051h-0.3h-0.15l-0.1,0.05l-1.25-0.101l-1.15-0.149l-1.149-0.3L108,139.75
	l-1.051-0.55l-1-0.55L105,137.9l-0.851-0.75l-0.85-0.95l-0.4-0.5l-0.3-0.45l-0.65-1l-0.449-1l-0.4-1.1l-0.25-1.101l-0.15-1.199
	l-0.05-1.15l0.05-1.25l0.15-1.15l0.25-1.149l0.4-1.05l0.449-1.051l0.65-1l0.7-0.949l0.85-0.851L105,119.4l0.949-0.7l1-0.65
	L108,117.6l1.05-0.4l1.149-0.25l1.15-0.15l1.25-0.05l1.15,0.05l1.199,0.15l1.101,0.25l1.1,0.4l1,0.449l1,0.65l0.45,0.3l0.5,0.4
	L121.05,120.25L121.05,120.25z M103.1,144l-0.1,0.4l-0.301,0.399l-0.5,0.301l-0.3,0.149l-0.3,0.2l-0.5,0.1l-0.5,0.15l-1.1,0.2
	l-0.7,0.05l-0.7,0.1h-0.75h-0.4H96.75h-0.101H96.6v0.051l-0.65-0.051l-0.3-0.1l-0.2-0.05l-0.25-0.15l-0.149-0.1l-0.2-0.3l-0.1-0.551
	v-0.149v-0.05l0.05-0.5l0.2-0.4l0.3-0.35l0.5-0.25l0.55-0.25l0.75-0.101l0.85-0.05l1,0.05h0.9l0.85,0.101l0.7,0.1l0.65,0.15
	l0.399,0.149l0.351,0.2l0.2,0.25L103.1,144L103.1,144z"/>
<polygon fill-rule="evenodd" fill="#F8981D" points="98,99.7 92.8,98.75 93,100.299 93.1,101 93.1,101.15 93.149,101.35 
	93.25,101.75 93.25,102.049 93.25,102.2 93.3,102.4 93.399,103.1 93.6,104.45 93.699,105.6 93.899,106.75 94,107.799 94,108 
	94,108.1 94.05,108.25 94.149,108.75 94.149,109.6 94.25,110.35 94.25,111 94.25,111.299 94.25,111.45 94.3,111.65 94.25,112.15 
	94.25,112.6 94.199,112.6 94.199,112.65 94.199,112.75 94.199,112.95 94.199,113.25 94,113.799 93.899,114.5 93.85,115.299 
	93.85,116.25 93.85,116.4 93.85,116.549 93.899,116.9 93.899,117.25 93.949,117.7 94.05,118.85 94.149,120.299 94.199,121.15 
	94.3,122.1 94.5,124.25 94.75,126.7 94.85,127.9 95.05,129.049 95.149,130.1 95.35,131.1 95.449,132 95.649,132.85 95.8,133.6 
	96,134.299 96.1,134.9 96.3,135.45 96.5,135.9 96.699,136.299 96.899,136.6 97.1,136.85 97.3,137 97.5,137.1 97.6,137.45 
	97.8,137.75 97.899,137.95 98.1,138.1 98.399,137.95 98.5,137.799 98.649,137.7 98.649,137.549 98.699,137.45 98.8,137.25 98.8,137 
	98.8,136.85 98.85,136.75 98.8,136.65 98.8,136.6 98.75,136.5 98.75,136.45 98.649,136.2 98.6,136 98.6,135.7 98.55,135.299 
	98.55,134.95 98.5,134.549 98.5,134.15 98.399,133.65 98.35,133.549 98.35,133.5 98.35,133.4 98.35,133.2 98.25,132.7 98.199,132.2 
	98.05,131.6 97.949,131 97.75,129.75 97.449,128.299 97.149,126.85 96.75,125.25 96.449,123.75 96.05,120.799 95.75,117.95 
	95.699,115.25 95.699,115.15 95.699,115 95.699,114.75 95.75,114.45 95.75,114 95.8,113.549 95.8,113 95.899,112.4 95.899,111.65 
	96,110.85 96.05,110 96.149,109.049 96.25,108 96.35,106.85 96.449,105.65 96.6,104.4 98.199,104.549 99.25,104.5 100.399,104.549 
	101.55,104.6 102.8,104.799 104,104.95 105.3,105.25 106.6,105.549 108,105.95 109.25,106.25 109.35,106.25 109.399,106.25 
	109.5,106.299 109.8,106.4 110.399,106.6 111.399,106.9 112.35,107.2 113.05,107.4 113.35,107.5 113.399,107.5 113.5,107.549 
	113.699,107.65 114.199,107.85 114.6,108.049 114.5,107.65 114.35,107.35 114.1,107.049 113.85,106.75 113.449,106.45 113,106.15 
	112.449,105.85 111.85,105.6 110.399,104.25 109,103.15 107.649,102.15 106.35,101.45 105,100.799 103.699,100.4 102.449,100.15 
	101.25,100.15 100.6,100.1 100.05,100.1 99.55,100.049 99.149,100.049 98.75,99.95 98.449,99.9 98,99.7 "/>
<polygon fill-rule="evenodd" fill="#F8981D" points="56.449,101.299 56.449,101.25 55.75,101.6 55.85,101.6 56.1,101.5 
	56.449,101.299 "/>
<path fill-rule="evenodd" fill="#F8981D" d="M81.6,133.45l-0.05-1.05l-0.101-1l-0.149-1l-0.2-0.95l-0.6-1.85l-0.801-1.7l0.15,11.7
	l-1.25-1.851l1.05-9.899l-1.2-1.851l-0.699-0.85l-0.75-0.8l-1.2-1.101l-1.25-0.95l-1.3-0.8l-0.7-0.35l-0.65-0.25l-1.45-0.55L69,118
	l-0.801-0.149l-0.75-0.051l-1.55-0.05l-1.649,0.05l-1.5,0.2l-1.5,0.351l-1.4,0.55l-1.4,0.6l-1.25,0.8l-1.25,0.95L54.8,122.35
	l-1.101,1.149l-0.949,1.25L51.949,126l-0.6,1.4l-0.55,1.399l-0.351,1.5l-0.199,1.5l-0.051,1.65L50.25,135l0.05,0.75l0.149,0.8
	L50.8,138l0.55,1.45l0.25,0.65l0.35,0.699l0.801,1.301l0.949,1.25l1.101,1.199l1.149,1.051l1.25,0.949l1.25,0.75l1.4,0.7l1.4,0.45
	l1.5,0.4l1.5,0.199l1.649,0.101l0.05-0.05h0.101h0.2h0.399l0.8-0.051l0.75-0.1l0.801-0.1l0.699-0.2l0.75-0.2l0.7-0.25l0.75-0.2
	l0.3-0.2l0.15-0.1l0.2-0.05l0.7-0.351l1.3-0.75l0.6-0.5l0.3-0.25L75.8,145.6l1.2-1.051l1.05-1.199l0.2-0.351l0.25-0.3l0.5-0.6
	l0.75-1.301l0.35-0.699l0.05-0.2l0.101-0.15l0.199-0.3l0.2-0.75l0.25-0.7l0.2-0.75l0.2-0.7l0.1-0.8L81.5,135l0.05-0.8v-0.4V133.6
	V133.5L81.6,133.45L81.6,133.45z M71.199,122.9l0.75,0.85l0.7,0.9l0.55,0.95l0.551,1.05l0.35,1l0.25,1.1l0.15,1.15l0.1,1.25
	l-0.05,0.1v0.15v0.3l-0.05,0.6l-0.101,0.551l-0.05,0.6l-0.15,0.5l-0.1,0.55l-0.35,1.101l-0.551,1l-0.55,1l-0.7,0.899l-0.75,0.9
	l-0.899,0.75l-0.9,0.7l-1,0.55l-1,0.55l-1.1,0.35l-0.55,0.101l-0.5,0.149l-0.601,0.051l-0.55,0.1l-0.6,0.05h-0.301H63.05
	l-0.101,0.05l-1.25-0.1l-1.149-0.15l-1.101-0.25l-1-0.35l-1.05-0.55l-0.95-0.55l-0.899-0.7l-0.851-0.75l-0.85-0.9l-0.65-0.899
	l-0.6-1l-0.45-1L51.75,134.5l-0.25-1.05l-0.15-1.15l-0.05-1.149l0.05-1.25l0.15-1.15l0.25-1.1l0.399-1l0.45-1.05l0.6-0.95l0.65-0.9
	l0.85-0.85l0.851-0.851l0.899-0.649l0.95-0.601l1.05-0.449l1-0.4l1.101-0.25l1.149-0.15l1.25-0.05l1.15,0.05l1.15,0.15l1.05,0.25
	l1.1,0.4l1,0.449l1,0.601l0.9,0.649L71.199,122.9L71.199,122.9z"/>
<polygon fill-rule="evenodd" fill="#FFCD05" points="74.6,131.15 74.5,129.9 74.35,128.75 74.1,127.65 73.75,126.65 73.199,125.6 
	72.649,124.65 71.949,123.75 71.199,122.9 70.3,122.049 69.399,121.4 68.399,120.799 67.399,120.35 66.3,119.95 65.25,119.7 
	64.1,119.549 62.949,119.5 61.699,119.549 60.55,119.7 59.449,119.95 58.449,120.35 57.399,120.799 56.449,121.4 55.55,122.049 
	54.699,122.9 53.85,123.75 53.199,124.65 52.6,125.6 52.149,126.65 51.75,127.65 51.5,128.75 51.35,129.9 51.3,131.15 
	51.35,132.299 51.5,133.45 51.75,134.5 52.149,135.6 52.6,136.6 53.199,137.6 53.85,138.5 54.699,139.4 55.55,140.15 56.449,140.85 
	57.399,141.4 58.449,141.95 59.449,142.299 60.55,142.549 61.699,142.7 62.949,142.799 63.05,142.75 63.199,142.75 63.5,142.75 
	64.1,142.7 64.649,142.6 65.25,142.549 65.75,142.4 66.3,142.299 67.399,141.95 68.399,141.4 69.399,140.85 70.3,140.15 
	71.199,139.4 71.949,138.5 72.649,137.6 73.199,136.6 73.75,135.6 74.1,134.5 74.199,133.95 74.35,133.45 74.399,132.85 
	74.5,132.299 74.55,131.7 74.55,131.4 74.55,131.25 74.6,131.15 "/>
<polygon fill-rule="evenodd" fill="#F8981D" points="137.3,140.7 137.449,139.9 136.899,141.75 137.3,140.7 "/>
<polygon fill-rule="evenodd" fill="#F8981D" points="137.449,139.75 137.449,139.7 136.35,140.049 135.05,140.549 137.449,139.75 
	"/>
<path fill-rule="evenodd" fill="#F8981D" d="M124.55,128.7l-0.101-1.25l-0.149-1.15l-0.3-1.149l-0.351-1.05l-0.55-1.051l-0.55-1
	l-0.75-0.949l-0.75-0.851l-0.95-0.85l-0.5-0.4l-0.45-0.3l-1-0.65l-1-0.449l-1.1-0.4l-1.101-0.25l-1.199-0.15l-1.15-0.05l-1.25,0.05
	l-1.15,0.15l-1.149,0.25l-1.05,0.4l-1.051,0.449l-1,0.65L105,119.4l-0.851,0.85l-0.85,0.851l-0.7,0.949l-0.65,1L101.5,124.1
	l-0.4,1.05l-0.25,1.149l-0.15,1.15l-0.05,1.25l0.05,1.15l0.15,1.199l0.25,1.101l0.4,1.1l0.449,1l0.65,1l0.3,0.45l0.4,0.5l0.85,0.95
	L105,137.9l0.949,0.75l1,0.55l1.051,0.55l1.05,0.351l1.149,0.3l1.15,0.149l1.25,0.101l0.1-0.05h0.15h0.3l0.601-0.051l1.199-0.149
	l1.101-0.3l1.1-0.351l1-0.55l1-0.55l0.45-0.4l0.5-0.35l0.45-0.4l0.5-0.35l0.35-0.5l0.4-0.45l0.35-0.5l0.4-0.45l0.55-1l0.55-1
	l0.351-1.1l0.3-1.101l0.149-1.199l0.051-0.601v-0.3v-0.15L124.55,128.7L124.55,128.7z M109.85,125.4l-0.05,0.2h-0.05L109.85,125.4
	L109.85,125.4z"/>
<polygon fill-rule="evenodd" fill="#F8981D" points="101.6,145.45 101.899,145.25 102.199,145.1 102.699,144.799 103,144.4 
	103.1,144 103,143.7 102.8,143.45 102.449,143.25 102.05,143.1 101.399,142.95 100.699,142.85 99.85,142.75 98.949,142.75 
	97.949,142.7 97.1,142.75 96.35,142.85 95.8,143.1 95.3,143.35 95,143.7 94.8,144.1 94.75,144.6 94.75,144.65 94.75,144.799 
	94.85,145.35 95.05,145.65 95.199,145.75 95.449,145.9 95.649,145.95 95.949,146.049 96.6,146.1 96.6,146.049 96.649,146.049 
	96.75,146.049 96.949,146.049 97.35,146.049 98.1,146.049 98.8,145.95 99.5,145.9 100.6,145.7 101.1,145.549 101.6,145.45 "/>
<polygon fill-rule="evenodd" fill="#FFCD05" points="28.25,102.75 28.399,99.7 27.8,102.1 27.55,103.299 27.399,104.549 
	27.1,106.95 27,109.45 27.05,111.15 27.3,112.9 27.3,113.95 27.3,115 27.449,116 27.449,117.549 27.6,119.25 27.75,121.049 
	28.1,123 28.449,125.049 28.949,127.2 29.5,129.5 30.199,131.95 29.75,128.15 29.8,127.549 29.5,124.75 29.1,121.049 28.85,117.6 
	28.6,114.25 28.5,111.1 28.25,103.75 28.25,102.75 "/>
<polygon fill-rule="evenodd" fill="#FFCD05" points="30.55,142.7 30.449,142.35 30.449,142.6 30.55,142.7 "/>
<path fill-rule="evenodd" fill="#CB6928" d="M59.649,2.65l0.7,1.2l0.8,1.35l0.8,1.35l0.9,1.55l0.9,1.55l1,1.65l1,1.7l1.1,1.85
	l-3.7-0.2l-3.6,0.1L56,15l-3.4,0.5l-3.45,0.7l-3.3,0.9l-3.25,1.1l-3.15,1.3L36.3,21l-3.05,1.7l-3,1.9l-2.851,2.15l-2.899,2.3
	l-2.75,2.6l-2.7,2.7l-2.601,3L14.5,39.7l-1.851,2.5l-1.7,2.55l-1.55,2.75l-1.45,2.75L6.6,53.2l-1.2,3.05L4.35,59.4L3.6,61.5L3,63.45
	l-0.601,1.8l-0.45,1.7l-0.5,1.45L1.1,69.75l-0.35,1.2l-0.25,1.1v1.7L1,73.2l0.6-0.5l0.65-0.6L3,71.55l1.1-1l1.05-0.95l1-0.9
	l0.95-0.8l0.85-0.8L8.8,66.4l0.75-0.7l0.75-0.6l1.2-1.15l0.55-0.5l0.5-0.4l0.399-0.4l0.351-0.3l0.3-0.3l0.3-0.2l-0.85,0.95
	l-0.75,1.05l-1.45,2.3l-0.95,1.55l-0.85,1.75L8.199,71.2l-0.75,1.95l-0.75,1.95L6.05,77.15L5.449,79.3l-0.5,2.3l-0.75,3.1l-0.6,3.15
	L3.05,90.9L2.699,94l-0.35,3l-0.25,3.05L1.949,103v3L2,108.9l0.199,3l0.301,3.05l0.5,3.1l0.55,3.101l0.75,3.2l0.85,3.25l1.05,3.3
	l1.301,3.8l1.55,3.8l0.8,1.851l0.9,1.899l1.949,3.8l1.75,3.25L14.5,148.4l0.1-0.75l0.2-1.4l0.1-1.149l0.05-0.5l0.101-0.4l0.3-1.85
	l0.45-1.551l0.149,0.351l0.25,0.5l0.25,0.5l0.351,0.649l0.75,1.351L18,144.9l0.55,0.899l0.5,0.851l0.6,1L21,149.799l1.449,2.351
	l0.801,1.25l0.899,1.399l0.2,0.301l0.1,0.149l0.15,0.2l0.5,0.7l0.2,0.3l0.1,0.15l0.15,0.199l0.5,0.7l0.899,1.25l0.9,1.3l0.8,1.15
	l0.851,1.2l0.75,1.1L31,164.6l0.3,0.449l0.35,0.5l0.65,1l0.6,0.9l0.601,0.9l0.5,0.799l0.55,0.801l0.45,0.699L35.199,171l0.25,0.398
	l-0.3-2.398l-0.25-2.102l-0.2-1.999l-0.199-1.75l-0.2-1.601l-0.15-1.399l-0.1-1.25l-0.101-1l-0.3-2.05L33.5,154.75l-0.101-1.05
	l-0.3-2.35L33,150.7l-0.051-0.6l-0.1-1.2l-0.1-0.95l-0.101-0.85l-0.25-1.9l-0.25-1.35L32,142.799l-0.2-0.949l0.2,0.199l-0.351-3.649
	l-0.1-0.101l-0.15-1.399l-0.3-1.75l-0.25-1.8l-0.4-3.801L30.1,126.4l-0.25-3l-0.25-2.851l-0.15-2.699l-0.199-2.65l-0.101-2.5
	l-0.1-2.35v-2.25L29,105.95l0.05-2.05l0.05-1.9l0.1-1.75l0.101-1.7L29.5,97l0.199-1.45L30,94.299l0.199,0.65L30.3,95.2l0.149,0.3
	l0.301,0.851l0.35,0.899l0.7,1.8l0.6,1.75l0.65,1.801l0.6-1.15l0.601-1l0.55-1l0.5-0.85l0.399-0.851l0.4-0.7l0.35-0.649l0.301-0.5
	l0.399,0.649l0.4,0.601l0.05,0.1l0.1,0.15l0.2,0.3l0.4,0.55l0.3,0.45l0.3,0.4L39,99.25l0.149,0.2l0.3,0.3l0.75-1.25l0.75-1.05
	l0.65-1.05l0.7-0.851l0.55-0.85l0.6-0.7l0.5-0.649l0.551-0.5l0.3,1.1l0.3,1.1l0.25,1l0.2,1l1.8-2.149l1.85-2L51.05,91L53,89.25
	l0.149,0.45l0.3,0.55l0.301,0.65l0.449,0.8l0.25,0.5l0.301,0.5l0.199,0.45l0.25,0.5l0.4,0.75v0.05l0.05,0.1l0.101,0.2l0.199,0.351
	l0.2,0.5l0.05,0.199L56.3,96l0.1,0.25v0.101l0.05,0.1l-0.05-0.05l0.101-0.101l0.1-0.199l0.25-0.25l0.2-0.351l0.35-0.45l0.351-0.55
	l0.449-0.55l0.45-0.75l0.55-0.75l0.551-0.85l0.699-0.95l0.7-1.05l0.8-1.101l0.801-1.2l0.949-1.25l0.2,2.101l0.2,2.25l0.1,2.35
	l0.101,2.5l9.399-9.05l2.7,8.35v-0.1l0.15-0.15l0.149-0.199L77,93.9l0.3-0.351l0.399-0.35l0.45-0.4l0.55-0.399l0.551-0.55
	l0.649-0.601l0.65-0.7l0.75-0.75l0.75-0.85l0.85-0.9L83.75,87.1l0.949-1.051l0.351,1.301l0.399,1.3l0.801,2.399l0.35,1.101L87,93.2
	l0.8,2l0.5-0.75l0.55-0.65l0.95-1.25l0.85-1.149l0.8-1l0.65-0.95l0.3-0.45l0.351-0.35l0.5-0.65l0.449-0.55l0.351,0.85l0.45,1
	l0.6,1.051l0.75,1.25l0.45,0.699l0.25,0.45l0.35,0.55l0.3,0.5l0.4,0.601l0.85,1.35l0.801-1l0.949-0.95l1-1l1.15-1l0.5-0.55
	l0.5-0.399l0.4-0.4l0.449-0.3l0.301-0.3l0.35-0.2l0.25-0.15l0.25-0.05l0.45,0.7l0.5,0.75l0.899,1.45L108,93.6l0.35,0.6l0.4,0.6
	l0.6,1l0.1,0.2L109.5,96.1l0.1,0.149l0.3,0.5l0.2,0.4l0.25,0.399l0.2,0.351l0.25,0.399l2.899-3.55L115.05,93l1.399-1.649
	l0.301,0.899l0.35,0.9l0.3,0.8l0.15,0.4l0.2,0.449l0.5,1.45l0.199,0.65l0.101,0.3v0.05l0.05,0.101l0.1,0.199l0.15-0.149l0.25-0.101
	l0.55-0.25l0.3-0.199l0.4-0.15l0.85-0.4l0.95-0.55l1.101-0.6l0.55-0.351l0.649-0.3l1.351-0.7l0.1,1.051l0.05,0.5l0.101,0.55l0.1,1
	l0.15,1l0.2,1.7l0.199,1.6l0.551-0.3l0.75-0.25l0.35-0.2l0.45-0.15l0.95-0.3l1-0.399l1.149-0.351l1.25-0.399l0.65-0.2l0.75-0.15
	l-0.101,0.351l-0.05,0.399l-0.1,0.75l-0.2,1.4l-0.3,1.25l-0.101,0.25l-0.05,0.3l-0.1,0.6l1.3-0.85l0.55-0.4l0.601-0.3l0.449-0.35
	l0.5-0.25l0.801-0.45l0.3-0.25l0.3-0.15l0.45-0.25l0.25-0.149l0.149-0.05v0.199l-0.1,0.5l-0.05,0.65l-0.15,0.75l-0.1,0.9
	l-0.05,0.949l0.05,0.9l1.399-0.4l1.7-0.399l0.9-0.25l1-0.2l2.2-0.4v0.25l0.1,0.351l0.1,0.45l0.101,0.55l0.05,0.649l0.1,0.75
	l0.101,0.851l0.1,0.95l0.101,1.85v0.85l0.05,0.9l-0.05,0.8v0.8h-0.051v0.051v0.1v0.2v0.399v0.801l-0.149,0.75l-0.15,0.949
	l-0.2,1.051L146,119.1l-0.301,1.35l-0.3,1.55L145,123.7l-0.4,1.9l-0.4,1.449l-0.399,1.4l-0.4,1.3l-0.35,1.3l-0.4,1.2l-0.399,1.15
	l-0.801,2.1l4.25-2.3l-4.05,7.95l-1.55,3l0.15,0.05l-1.15,3.25l-1.05,3.25l-0.851,2.55l-0.75,2.5l-0.75,2.4l-0.6,2.399l-0.6,2.25
	L134,165l-0.5,2.149l-0.4,2.102l2.15-3.051l1.05-1.45l1.05-1.35l1.9-2.65l0.899-1.25l0.95-1.149l1.65-2.351l0.8-1.1l0.8-1l1.4-1.95
	l1.35-1.75l1.15-1.65l0.55-0.75l0.55-0.649l0.45-0.7l0.45-0.6l0.85-1.051l0.65-0.949l0.6-0.75l0.2-0.351l0.25-0.25l0.399-0.35
	l-0.699,3l-0.301,1.45l-0.25,1.399l-0.55,2.601l-0.45,2.399L150.5,155.1l-0.301,2l-0.3,1.699l-0.2,1.601l1.851-2.5l1.85-2.4
	l1.65-2.399l1.649-2.4l1.45-2.4l1.45-2.399l1.35-2.4l1.25-2.35l1.101-2.4l1.05-2.35l0.95-2.4l0.85-2.3l0.75-2.35l0.65-2.301
	l0.55-2.3l0.5-2.3l0.1-0.45v-0.149l0.051-0.101l0.1-0.2l0.1-0.5l0.15-0.5l0.2-1.149l0.1-0.65l0.15-0.6v-0.4v-0.2v-0.1l0.05-0.05
	l0.1-0.7v-0.4V116.1V116l0.051-0.05l0.1-0.75l0.1-1.7L170,112.6l0.1-0.9v-1.95l-0.05-1.899l-0.15-1.9l-0.149-1.85l-0.301-1.9
	l-0.35-1.85l-0.45-1.851l-0.45-1.8l2.351,0.8l2.3,0.8l2.1,0.7l2,0.7v-2.3l-0.05-2.3l-0.1-1.2l-0.05-0.601v-0.55l-0.2-2.3l-0.3-2.4
	l-0.351-2.399l-0.1-0.35l-0.05-0.3l-0.101-0.6l-0.2-1.2L175,80.8l-0.601-2.55l-0.649-2.5l-0.4-1.3l-0.2-0.65L173,73.2l-0.801-2.55
	L171.3,68l-0.5-1.35l-0.45-1.3l-1.05-2.7L168.199,60l-1.25-2.75l-1.3-2.55l-1.35-2.55l-1.45-2.35l-1.55-2.35l-1.601-2.2l-1.649-2.15
	l-1.75-1.95l-1.9-1.95l-1.95-1.85l-2.05-1.75l-2.05-1.6l-2.2-1.6l-2.25-1.45l-2.35-1.35l-2.351-1.25l21.75,5.3l-1.199-2.05
	l-1.301-1.85l-1.5-1.85l-1.649-1.7l-1.851-1.7l-2-1.55l-2.199-1.55l-2.351-1.35l-2.85-1.55l-2.9-1.4l-2.95-1.25l-3-1.1l-3.1-1
	L129,12.9l-3.15-0.75l-3.2-0.55l-1.7-0.3l-1.649-0.2l-3.351-0.35l-3.399-0.25l-3.45-0.05l-3.55,0.05l-1.8,0.05L102,10.7l-1.851,0.1
	l-1.8,0.2l-3.65,0.45L94.149,11l-0.45-0.4l-0.75-0.8L92.3,8.95L92.05,8.5l-0.15-0.4l-0.35-0.95l-0.101-0.9L91.5,5.3l0.25-0.95
	l0.199-1l0.25-0.85l0.15-0.75l0.2-0.55l0.1-0.5l0.101-0.35L92.8,0.1l0.1-0.1l-2.05,0.45l-1.95,0.7l-1.85,0.9l-1.65,1.1l-1.649,1.3
	L82.3,6l-0.75,0.8l-0.65,0.95l-1.25,2H79.6h-0.05L79.449,9.7h-0.05H79.25l-0.301-0.1l-0.3-0.1L78.25,9.35L78,9.25L77.8,9.2
	l-0.3-0.15l-0.25-0.1L76.649,8.7l-0.7-0.3L75.25,8.15l-0.45-0.2l-0.4-0.15l-0.45-0.2L73.55,7.45l-0.95-0.4l-0.5-0.2l-0.25-0.1
	l-0.2-0.05L69.6,5.85L67.75,5.1L66,4.45L64.449,3.9L63,3.4l-1.25-0.35L60.6,2.8L59.649,2.65L59.649,2.65z M52.899,17.75L53,17.65
	h0.399L54,17.55h0.85l1-0.1l1.3-0.1l1.5-0.1l1.75-0.1L62.1,17l1.65-0.1l1.5-0.05h1.449h1.25l1.2,0.1l1.05,0.1l1,0.15l-0.85-1.75
	L69.6,13.9l-0.7-1.4l-0.6-1.2l-0.601-1.1L67.25,9.35l-0.45-0.7l-0.3-0.5l2.1,0.15l2.1,0.45L72.8,9.4l2.1,0.95l1.351,0.6l1.449,0.7
	l1.551,0.6l1.649,0.7l0.7-1.45l0.8-1.35l0.7-1.25l0.8-1.05l0.7-1l0.8-0.85l0.75-0.75l0.8-0.6l0.4-0.4l0.4-0.3l0.35-0.3l0.35-0.2
	l0.25-0.25l0.25-0.15l0.2-0.15l0.25-0.05l0.101-0.1h0.149L89.8,2.8l-0.05,0.05V3l-0.101,0.35l-0.45,0.9l-0.25,1.1L88.8,6.65
	L88.75,8.2V9l0.199,0.85l0.351,0.9l0.5,1l0.6,1l0.8,1.1l0.95,1.1l1.101,1.2l0.899-0.65l1.25-0.55l1.5-0.5l1.8-0.35l2-0.35
	l2.351-0.25l2.6-0.2l2.95-0.05l2.95-0.05l3,0.1l1.45,0.05l1.5,0.15l3,0.4l2.899,0.45l1.45,0.25l1.5,0.35l2.9,0.75l3,0.9l2.899,1
	l2.95,1.2l2.95,1.4l3,1.65l3,1.75l3,2l3.05,2.2l3.1,2.4l-1.949-0.45l-1.801-0.35l-1.75-0.35l-1.649-0.3l-1.65-0.3l-1.45-0.25
	l-1.449-0.25l-1.301-0.15l-1.35-0.2l-1.15-0.1l-2.149-0.15l-1-0.05l-0.851,0.05l-0.85,0.05l-0.65,0.1l0.75,0.45l1.75,1l1.65,1
	l1.5,0.9l1.45,0.9l1.25,0.8l1.25,0.8l1.05,0.7l1,0.7l1.5,1.1l1.55,1.25l1.45,1.3l1.45,1.4l1.35,1.4l1.4,1.55l1.3,1.6l1.3,1.75
	l1.15,1.7l1.2,1.85l1.1,1.85l1.15,2l1,2l1.05,2.15l0.95,2.2l0.949,2.3l0.65,1.85l0.7,1.95l0.6,2.05l0.65,2.2l0.55,2.2l0.6,2.35
	L171,77.2l0.55,2.55l0.25,1.5l0.3,1.7l0.3,1.8l0.4,2.05l0.35,2.101l0.4,2.35l0.399,2.45l0.5,2.7l-0.35-0.2l-0.4-0.2l-0.449-0.2
	l-0.5-0.1l-1.2-0.4l-0.65-0.199l-0.7-0.15L170,94.85l-0.15-0.101l-0.1-0.05h-0.051l-0.25-0.1l-0.3-0.101l-0.2-0.1l-0.1-0.05h-0.05
	l-0.351-0.101l-1-0.399l-0.3-0.15l-0.25-0.1l-0.55-0.2l-0.65-0.3L165,92.85l-0.75-0.301l-0.4-0.149l-0.35-0.101l0.75,2.7l0.3,1.3
	l0.05,0.301l0.1,0.35l0.2,0.7l0.55,2.6L166,102.85l0.149,1.199l0.2,1.25l0.15,1.2l0.199,1.25l0.25,2.4l0.15,2.399L167,114.9
	l-0.101,1.25l-0.1,1.35l-0.2,1.3l-0.25,1.4l-0.3,1.45l-0.3,1.55l-0.45,1.5l-0.45,1.6l-0.5,1.601l-0.5,1.7l-1.3,3.449l-0.7,1.801
	l-0.7,1.899l-0.8,1.75l-0.75,1.75l-0.7,1.55l-0.649,1.551l-0.65,1.35l-0.6,1.25l-0.551,1.15l-0.5,1.1l-0.5,0.85L155,149.9l-0.4,0.7
	l-0.35,0.649l-0.351,0.45l-0.3,0.4l-0.25,0.25l-0.2,0.199l1.05-13l-0.25-0.25l-0.399,0.351l-0.45,0.55l-0.55,0.65l-0.601,0.75
	l-0.75,0.85l-0.8,1l-0.899,1.05l-0.95,1.25l-1.101,1.25l-1.149,1.45l-1.25,1.55l-1.3,1.65l-1.45,1.75l-1.5,1.899l-1.601,1.95
	l-1.649,2.15l0.05-0.351l0.15-0.399l0.149-0.5l0.2-0.55l-0.25,0.899l1.2-2.899l1.149-2.75l1.101-2.65l1.1-2.5l0.95-2.45l0.45-1.2
	l0.5-1.1l0.899-2.15l0.9-2.05l0.75-1.95l0.75-1.85l0.7-1.75l0.649-1.55l0.551-1.55l0.5-1.351l0.449-1.25l0.2-0.6l0.25-0.5
	l-1.649,1.25l-1.65,1.45l-1.7,1.55l-1.75,1.649l0.7-1.699l0.7-1.7l0.6-1.75l0.601-1.7l0.5-1.8l0.449-1.8l0.051-0.5l0.1-0.45l0.2-0.9
	l0.35-1.8l0.2-1.85l0.2-1.7l0.05-0.851l0.1-0.75l0.15-1.449l0.05-1.351V109.6l0.05-0.551l-0.05-0.6v-0.5L149.1,107l-0.3-1.8
	l-0.2-1.6l-0.3-1.5l-0.2-1.301l-1.45,0.25l-1.6,0.301l-1.8,0.3l-2,0.399l0.449-1.649l0.2-0.75l0.25-0.65l0.101-0.649l0.149-0.551
	l0.101-0.55l0.149-0.45V96.35l0.05-0.351l-0.05-0.35V95.4l-0.1-0.25L142.449,95L142.3,94.85l-0.101-0.051l-0.25-0.1h-0.199
	l-0.25,0.05l-0.25,0.15l-0.351,0.149l-0.3,0.25l-0.4,0.25l-0.35,0.351l-0.45,0.35l-0.45,0.45l-0.5,0.45L138,97.7l-0.601,0.55
	l-0.55,0.65l-0.6,0.649l-0.551,0.75l1.75-5.399l-0.949,0.45l-0.95,0.5l-1.05,0.5l-1.15,0.55l-1.3,0.5l-1.351,0.6L129.25,98.6
	l-1.551,0.6v-0.45l0.051-0.399l0.1-0.801V96.65v-0.851l-0.1-0.949l-0.051-0.9l-0.3-1.9l-0.2-0.8L127,90.65l-1.4,0.649L124,92.15
	l-0.9,0.399l-0.9,0.5l-2,1.051l-0.8-1.75l-0.7-1.65l-0.649-1.55l-0.55-1.351l-1.15,1.101l-1.05,1.05l-1,0.95l-0.851,0.85l-0.85,0.7
	l-0.7,0.65l-0.649,0.55l-0.551,0.45l-2.449-5.4L108,88.2l-0.2-0.5l-0.4-1.1l-0.1-0.2l-0.05-0.101v-0.05l-0.101-0.3l-0.2-0.65
	l-0.399-1.45l-1.45,1.25l-1.35,1.2l-0.65,0.5l-0.55,0.551l-1.05,1l-0.95,0.8l-0.851,0.7L99.3,90.1L99,90.4l-0.551,0.5l-1.1-1.45
	l-0.55-0.8l-0.5-0.75l-0.601-0.851l-0.55-0.8l-1.1-1.75l-0.351-0.65l-0.55,0.6l-0.55,0.7l-1.2,1.45l-1.35,1.55l-0.7,0.8l-0.7,0.9
	l-3.8-8.3l-0.75,0.7L83.449,83l-1.25,1.4l-1.149,1.2l-0.95,1.15l-0.5,0.45l-0.4,0.5l-0.75,0.85L78.1,88.85l-0.25,0.35l-0.45,0.6
	l-0.45-1.5l-0.35-1.35l-0.3-1.2l-0.2-1.05l-0.2-0.95L75.8,83l-0.101-0.6v-0.45L75.25,82.1l-0.5,0.3l-0.551,0.35l-0.6,0.5l-0.7,0.5
	l-0.75,0.65l-0.8,0.7l-0.85,0.85l-1.25,1.15l-1.15,1.1l-1.05,1l-0.851,1l-0.1-1.55l-0.05-1.351l-0.101-1.25V85l-0.1-0.95l-0.1-0.75
	l-0.101-0.65V82.2l-0.95,0.95l-1,1.05l-1.05,1.1l-1.05,1.2l-1.15,1.2L59.25,89L58,90.35l-1.301,1.449l-0.6-1.25l-0.55-1.05
	l-0.95-1.85l-0.45-0.851L53.8,86.1l-0.351-0.65l-0.25-0.5l-0.3,0.2l-0.25,0.3l-0.6,0.65l-0.4,0.35L51.3,86.9l-0.75,0.95l-0.5,0.449
	L49.6,88.85L48.649,90l-1.05,1.25l-1.15,1.45l-0.149-0.4L46.199,91.9L46,91l-0.301-1.05l-0.3-1.2l-1,1l-0.85,0.95l-0.851,0.85
	L42.05,92.35l-0.55,0.5l-0.45,0.5l-0.4,0.449l-0.3,0.45L40,94.6l-0.2,0.35l-0.2,0.25l-0.1,0.3l-0.25-0.45l-0.2-0.35l-0.2-0.35
	l-0.15-0.301l-0.1-0.25l-0.15-0.3l-0.1-0.25l-0.2-0.399l-0.1-0.2L38,92.549V92.5l-0.2-0.45l-0.15-0.399L37.25,90.7l-0.4-1.05
	l-3.65,8.85l-0.5-1.45L32.25,95.85l-0.4-1.101l-0.3-0.85l-0.101-0.2l-0.05-0.1v-0.051l-0.2-0.35l-0.1-0.15l-0.05-0.1l-0.101-0.2
	l-0.149-0.3l-0.101-0.25l-0.399-0.65l-0.4-0.75l-0.1-0.149l-0.05-0.101l-0.101-0.199l-0.2-0.4l-0.5-0.85l-0.8,2L27.5,93.15l-0.551,2
	L26.5,97.2l-0.351,1.9l-0.25,1.949l-0.149,1.9l-0.051,1.95l-0.05,3.6v3.4v3.25l0.101,3.1v0.8l0.05,1l0.1,1.15l0.2,1.4l0.15,1.5
	l0.25,1.8l0.25,1.899l0.35,2.15l0.3,2.25l0.4,2.5l0.399,2.6l0.5,2.851l0.45,3l0.55,3.2l0.601,3.35l0.649,3.6l0.2,1.051l0.2,1.3
	l0.1,0.6l0.051,0.3l0.1,0.351l0.2,1.149L32,159.1l0.1,0.949l0.05,0.4l0.101,0.45l0.1,0.75l0.1,0.75l-0.949-1.65l-0.851-1.45
	l-0.85-1.35l-0.7-1.25l-0.7-1.25l-0.6-1.05l-0.601-0.95l-0.449-0.85l-0.5-0.851l-0.351-0.649l-0.35-0.551L25.3,150.1l-0.25-0.45
	l-0.15-0.25l-0.1-0.15v-0.05l-2.351-3.85l-1.149-1.801l-1.05-1.649l-1.101-1.65l-1-1.5l-1-1.45l-0.95-1.35l-0.55,1.25l-0.399,1.25
	l-0.4,1.05l-0.3,1.05l-0.3,0.851l-0.2,0.85l-0.2,0.75l-0.1,0.65l-1.551-3.3l-1.35-3.5l-0.7-1.851l-0.6-1.899l-1.15-3.9L7.55,126
	l-0.4-1.649l-0.3-1.601l-0.55-3.45l-0.45-3.5L5.5,112.1l-0.25-3.75l-0.101-1.95v-1.95l0.05-3.95l0.15-4.1l0.5-4l0.7-3.95L7.6,84.6
	l1.25-3.9l1.6-3.8l1.801-3.75l2.149-3.65l1.05-1.85l1.051-1.7l1-1.7l1-1.55l0.899-1.55l0.9-1.4l0.8-1.35l0.85-1.2l0.7-1.25
	l0.75-1.05l0.65-1.05l0.7-0.9l0.55-0.9l0.6-0.75l0.5-0.75l0.5-0.55l1.75-2.35l1.851-2.2l1.85-2.05l1.95-1.9l2.3-2.05V39.3
	l-0.05-0.05l-0.15-0.05l-0.149,0.05l-0.301,0.05l-0.3,0.2l-0.399,0.2l-0.4,0.3l-0.55,0.3l-0.601,0.4l-0.649,0.4l-0.7,0.5l-0.8,0.5
	l-0.851,0.6l-0.949,0.65L28.8,44.1l-4.05,2.95L22.8,48.6l-1.851,1.65l-1.899,1.6l-1.8,1.7l-3.45,3.6l-1.75,1.75l-1.601,1.65
	l-1.55,1.55L7.5,63.65l-1.4,1.4L4.8,66.4l-1.25,1.25l-1.101,1.2l0.2-0.55l0.3-0.65l0.351-0.7l0.45-0.75l0.449-0.9l0.5-0.95
	L5.25,63.3l0.649-1.1L6.5,60.95l0.699-1.3l0.75-1.4L8.75,56.8l0.8-1.6l0.899-1.65l0.95-1.75l1.05-1.75l2.051-3.7l2.199-3.45
	l1.101-1.7l1.2-1.6l1.199-1.55L21.5,36.6l1.25-1.5l1.35-1.4l2.75-2.65l2.85-2.5l3.051-2.2L34.699,25l2.101-1.25l2.25-1.2l2.399-1.05
	l2.5-1.05l2.65-0.9l2.75-0.9l2.95-0.75L52.899,17.75L52.899,17.75z"/>
<polygon fill-rule="evenodd" fill="#CB6928" points="73.85,17.45 73.6,17.8 72.6,18.05 72.25,18.5 71.949,19.05 71.25,20.4 
	70.449,21.95 69.649,23.85 69.1,24.9 68.699,25.95 68.35,26.85 68.1,27.7 67.85,28.4 67.699,29.05 67.6,29.6 67.6,30.05 67.6,30.75 
	67.6,31.3 67.6,31.7 67.649,31.9 67.85,32.5 67.899,32.35 68.1,32.2 68.3,31.95 68.649,31.6 69,31.15 69.449,30.65 69.949,30.1 
	70.55,29.45 71.05,29.1 71.699,28.7 72.399,28.25 73.25,27.75 74.1,27.1 75.1,26.4 76.149,25.65 77.35,24.85 78.399,24 
	79.399,23.25 80.25,22.55 81.1,21.95 81.35,21.95 81.85,22 82.35,22.15 82.85,22.4 83.449,22.8 83.949,23.25 84.5,23.85 85,24.55 
	85.6,25.4 86.149,26.3 86.85,27.35 87.55,28.5 88.35,29.75 89.55,27.55 90.75,25.5 90.85,25.1 91,24.7 91.199,23.75 91.3,22.65 
	91.3,22 91.3,21.65 91.35,21.35 91.3,20.65 91.199,20.1 91,19.55 90.8,19.15 90.35,18.5 90.1,18.05 89.899,17.7 89.85,17.55 
	88.35,17.55 88.35,17.7 88.35,18.05 88.449,19 88.5,19.55 88.6,20.3 88.699,21.15 88.85,22.1 88.85,22.7 88.899,23.3 88.899,23.85 
	88.949,24.45 88.85,24.9 88.8,25.4 88.699,25.85 88.6,26.3 88.1,26.3 86.55,24.15 85.85,23.2 85.199,22.45 84.55,21.7 84,21.1 
	83.05,20.15 83.25,19.75 83.35,19.5 83.3,19.1 83.3,18.8 83.25,18.55 83.25,18.4 83.149,18.1 83.1,18.05 83.1,18.1 82.85,18.5 
	79,20.25 75.25,22.3 73.6,23.3 72.25,24.3 71.149,25.2 70.699,25.65 70.35,26.15 70.449,25.8 70.649,25.45 71.1,24.65 71.649,23.7 
	72.399,22.65 72.75,21.95 73.1,21.35 73.399,20.8 73.649,20.35 73.8,19.85 73.949,19.45 74.05,19.1 74.1,18.8 74.05,18.15 74,17.9 
	74,17.75 73.899,17.45 73.85,17.4 73.85,17.45 "/>
<polygon fill-rule="evenodd" fill="#010101" points="143.1,49.95 144.25,50.9 145.449,52.1 145.6,52 145.1,51.55 144.649,51.15 
	143.699,50.35 143.1,49.95 "/>
<polygon fill-rule="evenodd" fill="#F26822" points="145.6,52 145.449,52.1 146.25,53.05 147.1,54.1 147.899,55.25 148.8,56.5 
	149.6,57.75 150.399,59.2 151.199,60.7 152.05,62.35 152.5,63.35 152.699,63.85 152.8,64.1 152.949,64.4 153.35,65.35 153.8,66.35 
	154.149,67.25 154.5,68.15 154.8,69 154.949,69.4 155.149,69.85 155.35,70.6 155.55,71.35 155.699,72.05 155.899,72.75 156,73.35 
	156.1,73.95 156.1,74.2 156.149,74.5 156.149,74.75 156.199,75.05 156.199,75.95 156.199,76.8 156.199,77.55 156.25,78.2 
	156.25,78.75 156.3,79.2 156.35,79.55 156.449,79.85 155.6,77.9 154.85,76.3 154.1,74.9 153.449,73.8 152.85,72.9 152.25,72.15 
	151.6,71.4 151,70.75 150.25,70.1 149.55,69.55 148.8,69 148.05,68.6 148.149,69.15 148.3,69.8 148.3,70.05 148.35,70.35 
	148.449,70.95 148.649,72.1 148.699,72.6 148.8,73.15 148.949,74.25 149,75.25 149.05,76.25 149.05,77.15 149.1,78.05 149,79.7 
	148.899,80.45 148.85,81.25 148.649,82.7 148.449,84.1 148.6,83.6 148.699,83.3 148.899,82.95 149.199,82.05 149.399,81.55 
	149.649,81 150,79.85 150.1,79.3 150.25,78.85 150.399,77.9 150.449,77.15 150.399,77.05 150.399,77 150.399,76.9 150.399,76.7 
	150.399,76.25 150.35,75.75 150.35,75.2 150.25,73.9 150.199,73.2 150.199,72.5 150.75,72.95 151.35,73.6 152.199,74.65 
	152.6,75.25 153.05,75.95 153.8,77.4 154.55,79.05 154.55,79.15 154.649,79.45 154.8,79.95 155.1,80.75 155.35,81.65 155.75,82.75 
	156.149,84.05 156.699,85.6 157.05,82.95 157.149,81.65 157.3,80.45 157.35,79.2 157.399,78.05 157.449,75.8 157.3,73.65 
	157.1,71.6 156.899,70.6 156.75,69.7 156.3,67.95 155.5,65.75 154.55,63.65 153.449,61.55 152.199,59.55 150.75,57.55 
	149.199,55.65 147.449,53.8 145.6,52 "/>
<polygon fill-rule="evenodd" fill="#F26822" points="50.35,39.85 50.399,39.75 49.55,40.75 48.75,42 47.949,43.5 47.149,45.2 
	46.35,47.1 45.6,49.2 44.85,51.5 44.149,54.1 43.5,56.4 42.949,58.5 42.449,60.4 42.25,61.3 42.1,62.15 41.75,63.65 41.6,64.95 
	41.449,66.05 41.449,66.55 41.449,67 41.35,68.1 41.199,69.2 41.55,68.6 41.6,68.6 41.6,68.5 41.699,68.35 42.05,67.7 42.5,67.05 
	43,66.35 43.6,65.6 45.199,63.25 46.8,61.05 48.3,59 49.8,57.1 51.199,55.3 52.6,53.7 53.899,52.2 55.199,50.9 55.199,52.55 
	55.199,54.1 55.199,55.55 55.199,56.9 55.199,58.1 55.25,59.25 55.25,60.3 55.35,61.25 55.449,64 55.699,66.7 56,69.2 56.449,71.6 
	65.449,55.75 64.649,56.1 63.899,56.65 63.1,57.25 62.399,58 61.6,58.85 60.899,59.8 60.1,60.85 59.399,62 58.85,62.75 58.449,63.5 
	58.1,64.1 57.85,64.65 57.649,62.7 57.5,60.75 57.399,58.7 57.35,56.55 57.3,54.3 57.3,52 57.35,49.65 57.449,47.2 57,47.35 
	56.6,47.6 56.1,47.85 55.649,48.2 55.1,48.55 54.6,49 54.05,49.45 53.55,50.05 52.899,50.6 52.3,51.25 51.649,51.9 51.05,52.7 
	49.649,54.3 48.899,55.2 48.199,56.2 46.949,57.7 46.399,58.35 45.949,59 45.449,59.55 45.05,60.1 44.699,60.6 44.449,61.1 
	45.949,55.5 46.3,53.55 46.8,51.55 47.399,49.45 48.149,47.3 48.449,46.2 48.8,45.25 49.1,44.3 49.399,43.55 49.6,42.8 49.85,42.15 
	50.05,41.6 50.25,41.15 50.3,40.7 50.399,40.35 50.449,40.05 50.5,39.9 50.449,39.75 50.449,39.7 50.399,39.7 50.35,39.85 "/>
<polygon fill-rule="evenodd" fill="#010101" points="153.949,139.299 154.199,139.549 154,139.25 153.949,139.299 "/>
<polygon fill-rule="evenodd" fill="#F8981D" points="32,142.799 32.149,143.85 32.399,145.2 32.649,147.1 35.5,149.7 38.449,152.15 
	41.449,154.45 44.6,156.6 47.699,158.549 50.949,160.35 54.25,161.95 57.699,163.45 61.1,164.7 64.649,165.799 68.25,166.75 
	71.949,167.549 75.649,168.149 79.5,168.6 83.35,168.85 87.35,168.95 87.75,168.899 88.199,168.899 89.1,168.899 90.899,168.85 
	92.649,168.75 94.449,168.649 97.949,168.25 99.649,168 101.399,167.799 102.199,167.6 102.6,167.5 103.05,167.45 104.75,167.1 
	108.05,166.35 109.649,165.85 110.449,165.6 111.3,165.4 112.899,164.85 114.55,164.35 117.649,163.1 120.75,161.75 123.75,160.25 
	126.75,158.65 129.649,156.85 131.05,155.9 131.75,155.4 132.1,155.15 132.5,154.95 135.3,152.85 136.649,151.75 138.05,150.7 
	139.1,147.45 140.25,144.2 140.1,144.15 141.649,141.15 141.149,141.549 140.75,142 140.35,142.35 140.05,142.75 137.25,145.35 
	136.5,145.95 135.8,146.6 134.399,147.85 132.899,149 132.5,149.25 132.149,149.549 131.449,150.15 129.949,151.2 128.5,152.299 
	125.399,154.25 122.3,156.049 119.1,157.65 118.649,157.799 118.25,158 117.449,158.4 115.85,159.15 114.149,159.75 113.3,160.049 
	112.5,160.4 109.1,161.5 105.6,162.45 103.8,162.85 102.05,163.25 100.199,163.549 98.399,163.85 96.55,164.049 94.75,164.299 
	92.85,164.4 92.35,164.4 91.899,164.45 91,164.549 87.199,164.65 83.399,164.549 79.699,164.299 76.05,163.85 72.449,163.25 
	68.85,162.45 65.3,161.5 61.8,160.4 58.35,159.15 54.899,157.65 51.5,156.049 48.149,154.25 44.85,152.299 41.55,150.15 
	38.3,147.85 35.1,145.4 32,142.799 "/>
<polygon fill-rule="evenodd" fill="#CB6928" points="0.5,73.75 0.5,72.05 0.3,72.7 0.149,73.25 0.05,73.75 0,74.2 0.5,73.75 "/>
<polygon fill-rule="evenodd" fill="#CB6928" points="108.35,101.6 106.35,100.35 104.449,99.35 102.55,98.6 100.699,98.1 
	98.85,97.799 97.05,97.799 95.25,98 93.55,98.5 92.8,98.75 92.899,102.95 92.899,104.95 93,106.9 93.149,110.6 93.25,112.35 
	93.35,114.049 93.449,115.65 93.55,117.2 93.75,120.1 94,122.7 94.1,123.9 94.3,125.049 94.649,128.049 95.1,131.35 95.6,134.85 
	96.199,138.65 97.05,138.6 98.149,138.45 99.05,138.4 99.649,138.35 99.899,138.35 100.1,138.35 100.6,138.4 101.1,138.6 
	101.6,138.9 102.1,139.35 102.5,139.85 102.85,140.4 103,140.9 103.1,141.5 103,142.1 102.899,142.35 102.85,142.65 102.649,142.85 
	102.55,142.95 102.5,142.95 102.5,143 102.5,143.1 102.3,143.299 102.199,143.4 102.149,143.4 102.149,143.45 102.149,143.549 
	101.85,143.65 101.75,143.65 101.699,143.65 101.699,143.7 101.6,143.799 101.3,143.9 101,144.049 100.6,144.1 100.25,144.2 
	99.85,144.2 99.449,144.25 98.699,144.2 98.05,144.2 97.5,144.2 97.05,144.2 97,144.25 97,144.549 97,144.799 97,145 97.1,145.15 
	97.199,145.25 97.399,145.4 97.949,145.65 98.25,145.7 98.649,145.799 99.6,145.85 100.199,145.799 100.8,145.75 101.3,145.6 
	101.85,145.5 102.05,145.35 102.3,145.25 102.75,145.049 103.1,144.75 103.5,144.45 103.899,143.85 103.949,143.65 104.05,143.5 
	104.25,143.2 104.3,142.799 104.399,142.45 104.449,142.049 104.449,141.85 104.449,141.75 104.449,141.7 104.5,141.7 
	104.399,140.85 104.25,140.1 103.899,139.4 103.5,138.85 102.899,138.299 102.25,137.9 101.399,137.549 100.5,137.35 99.75,137.2 
	99.05,137.15 98.399,137.2 97.85,137.35 97.75,137.15 97.699,137.049 97.699,137 97.6,136.65 97.399,135.9 97.199,135.049 97,134.1 
	96.85,133.5 96.75,132.95 96.55,131.799 96.449,131.45 96.399,131.15 96.3,130.549 96.1,129.2 95.699,126.85 95.399,124.799 
	95.199,123.45 95.05,122.299 94.899,121.25 94.85,120.299 94.649,118.6 94.55,116.799 94.449,115.799 94.399,114.799 94.3,112.65 
	94,108.2 94,103.95 94,103.4 94.1,102.95 94.399,102.2 94.6,101.85 94.949,101.6 95.75,101.25 96.149,101.1 96.699,101.049 
	97.25,101 97.899,101.049 98.55,101.1 99.3,101.25 101,101.7 102.649,102.15 104.25,102.65 105.8,103.15 107.3,103.65 
	108.649,104.15 109.949,104.7 111.199,105.2 112.35,105.799 113.35,106.299 113.8,106.5 114.3,106.75 114.699,106.9 115.149,107.1 
	115.949,107.45 116.6,107.65 117.199,107.85 117.649,107.95 118.1,108.049 117.8,107.85 117.5,107.65 117.1,107.4 116.75,107.2 
	116.25,106.9 115.8,106.6 115.5,106.4 115.35,106.299 115.25,106.25 114.949,106.049 114.8,105.95 114.699,105.9 114,105.45 
	113.8,105.299 113.649,105.2 113.35,105 112.6,104.5 111.85,104 111,103.4 110.55,103.1 110.149,102.85 109.25,102.2 108.35,101.6 
	"/>
<polygon fill-rule="evenodd" fill="#CB6928" points="108.949,114.25 108.649,114.1 108.399,114.049 107.8,114 107.149,114.049 
	106.399,114.2 105.55,114.45 104.649,114.799 103.699,115.25 103.149,115.5 102.649,115.85 103.75,115.5 104.899,115.25 107.25,115 
	109.6,115.049 110.8,115.2 112,115.45 111.35,115.25 110.649,115 110.199,114.799 109.8,114.65 108.949,114.25 "/>
<polygon fill-rule="evenodd" fill="#010101" points="47.899,116.2 47.75,116.25 47.25,116.6 46.85,117.15 46.5,117.85 
	46.25,118.799 46,119.85 45.899,121.1 45.8,122.5 45.8,124.1 45.8,125.5 45.8,126.15 45.85,126.75 45.949,127.75 46.1,128.549 
	46.399,129.65 46.899,130.75 47.55,131.799 48.399,132.85 48.5,132.75 47.699,131.4 47.149,130.15 46.75,129 46.55,128.049 
	46.449,127.799 46.449,127.45 46.399,127.049 46.399,126.6 46.399,126 46.399,125.35 46.399,124.6 46.399,123.85 48,116.6 
	47.949,116.4 47.949,116.299 47.899,116.2 "/>
<path fill-rule="evenodd" fill="#010101" d="M66.399,107.049l-1.95,0.051l-1.8,0.25l-1.75,0.399l-1.649,0.65l-1.65,0.7l-1.5,0.949
	l-1.45,1.101l-1.35,1.35l-1.351,1.351l-1.1,1.449l-0.95,1.5l-0.7,1.65l-0.649,1.6l-0.4,1.75l-0.25,1.801l-0.05,1.949l0.05,1.851
	l0.25,1.8l0.4,1.7l0.649,1.7l0.7,1.6l0.95,1.55l0.5,0.7l0.6,0.75l1.351,1.45l1.35,1.25l1.45,1.1l1.5,0.9l1.65,0.8l1.649,0.55
	l1.75,0.45l1.8,0.25l1.95,0.1l0.9-0.05l0.2-0.05h0.25h0.5l1.8-0.25l0.399-0.15l0.45-0.1l0.9-0.2l1.7-0.55l1.6-0.8l0.05-0.101
	l0.101-0.05l0.199-0.1l0.4-0.2l0.8-0.45l0.7-0.55l0.35-0.3l0.4-0.25l0.7-0.65l0.75-0.6l0.899-1l0.851-1l-0.101,0.05l-0.05,0.05v0.15
	l-0.1,0.25L81,137.6l-0.15,0.199l-0.15,0.351l-0.25,0.399l-0.3,0.551l-0.399,0.55l-0.45,0.7l-0.5,0.699l-0.55,0.851l-0.7,0.75
	l-0.601,0.75l-0.35,0.3l-0.3,0.35l-0.601,0.601L75,145.1l-0.601,0.449l-0.6,0.351l-0.601,0.3l-0.55,0.1l-0.45,0.15l-0.399,0.1
	l-0.3,0.15h-0.301L71,146.75h-0.2l-0.05,0.05l0.35,0.301l0.55,0.1l0.8-0.05l0.851-0.101l0.75-0.199l0.8-0.25l0.7-0.351l0.35-0.2
	l0.4-0.149l0.7-0.45l0.75-0.5l0.6-0.6l0.3-0.351L79,143.7l0.6-0.75l0.3-0.4l0.15-0.199l0.2-0.15l1.1-1.8l0.5-1l0.1-0.3L82,138.95
	l0.1-0.1l0.3-0.5L83,136.799l0.55-1.449L84,133.9l0.449-1.351l0.25-1.35l0.25-1.25l0.15-1.25l0.05-1.15L85.1,127.1l-0.15-0.351v-1.2
	l-0.1-1.949l-0.25-1.801l-0.45-1.75l-0.55-1.6l-0.8-1.65l-0.9-1.5l-1.1-1.449l-1.25-1.351l-1.45-1.35l-0.75-0.601l-0.7-0.5
	L75.1,109.1l-1.6-0.7l-1.7-0.65l-0.9-0.25l-0.85-0.149l-1.8-0.25L66.399,107.049L66.399,107.049z M54.6,113.2l1.25-1.2l1.35-1
	l1.4-0.899l1.5-0.65l1.5-0.6l1.6-0.351l1.65-0.25l1.8-0.05l1.7,0.05L70,108.5l1.6,0.351l0.75,0.25l0.8,0.35l1.45,0.65l0.7,0.399
	l0.75,0.5l0.649,0.45l0.7,0.55l1.3,1.2l1,1.1l0.95,1.2l0.75,1.2l0.75,1.3l0.5,1.3l0.45,1.4l0.3,1.4l0.25,1.55l-0.2,1.25l-0.1,1.2
	l-0.15,1.05l-0.1,0.95l-0.15,0.75l-0.1,0.75l-0.1,0.55l-0.101,0.5l-0.2,0.649l-0.1,0.75l-0.4,0.65l-0.35,0.7l-0.25,0.3l-0.2,0.35
	l-0.399,0.7l-0.5,0.601L79.75,136l-0.551,0.601l-0.5,0.649l-1.3,1.101l-0.7,0.5l-0.649,0.5l-0.75,0.399l-0.7,0.45l-0.4,0.15
	l-0.35,0.199l-0.7,0.4l-0.8,0.25l-0.4,0.1l-0.199,0.051l-0.15,0.1l-1.6,0.4l-0.851,0.1l-0.8,0.15l-1.7,0.1l-1.8-0.1l-1.65-0.25
	l-1.6-0.4l-1.5-0.5l-1.5-0.75l-1.4-0.85l-1.35-1l-1.25-1.101l-1.2-1.3l-0.55-0.7l-0.45-0.649l-0.5-0.75l-0.399-0.7l-0.65-1.45
	l-0.35-0.8l-0.25-0.75l-0.351-1.601l-0.25-1.649l-0.05-1.7l0.05-1.8l0.25-1.65l0.351-1.6l0.6-1.5l0.65-1.5l0.899-1.4l1-1.35
	L54.6,113.2L54.6,113.2z"/>
<path fill-rule="evenodd" fill="#FFFFFF" d="M66.649,108.2l-1.8,0.05l-1.65,0.25l-1.6,0.351l-1.5,0.6l-1.5,0.65l-1.4,0.899l-1.35,1
	l-1.25,1.2l-1.2,1.2l-1,1.35l-0.899,1.4l-0.65,1.5l-0.6,1.5l-0.351,1.6l-0.25,1.65l-0.05,1.8l0.05,1.7l0.25,1.649l0.351,1.601
	l0.25,0.75l0.35,0.8l0.65,1.45l0.399,0.7l0.5,0.75l0.45,0.649l0.55,0.7l1.2,1.3l1.25,1.101l1.35,1l1.4,0.85l1.5,0.75l1.5,0.5
	l1.6,0.4l1.65,0.25l1.8,0.1l1.7-0.1l0.8-0.15l0.851-0.1l1.6-0.4l0.15-0.1l0.199-0.051l0.4-0.1l0.8-0.25l0.7-0.4l0.35-0.199l0.4-0.15
	l0.7-0.45l0.75-0.399l0.649-0.5l0.7-0.5l1.3-1.101l0.5-0.649L79.75,136l0.5-0.649l0.5-0.601l0.399-0.7l0.2-0.35l0.25-0.3l0.35-0.7
	l0.4-0.65l0.1-0.75l0.2-0.649l0.101-0.5l0.1-0.55l0.1-0.75l0.15-0.75l0.1-0.95l0.15-1.05l0.1-1.2l0.2-1.25l-0.25-1.55l-0.3-1.4
	l-0.45-1.4l-0.5-1.3l-0.75-1.3l-0.75-1.2l-0.95-1.2l-1-1.1l-1.3-1.2l-0.7-0.55L76.05,111l-0.75-0.5l-0.7-0.399l-1.45-0.65l-0.8-0.35
	l-0.75-0.25L70,108.5l-1.65-0.25L66.649,108.2L66.649,108.2z M67.5,123.35l0.35,0.05l0.15,0.05l0.149,0.15l0.15,0.25l0.1,0.449
	l-0.05,0.45l-0.15,0.5l-0.25,0.5l-0.35,0.5l-0.3,0.25l-0.15,0.101l-0.1,0.149l-0.5,0.4l-0.3,0.1L66,127.35l-0.5,0.1l-0.851-0.1
	l-0.399-0.15l-0.301-0.15l-0.35-0.25l-0.25-0.199L62.899,126l-0.2-0.8l0.101-0.7l0.25-0.8l0.2-0.4l0.3-0.35l0.2-0.4l0.25-0.25
	l0.199-0.199l0.25-0.051l0.4,0.051l0.2,0.149l0.2,0.25L65,122.65l-0.15,0.25l-0.1,0.3v0.4l0.199,0.699l0.15,0.25l0.25,0.2l0.25,0.15
	l0.4,0.05l0.1-0.05h0.15l0.3-0.05l0.2-0.15l0.1-0.1v-0.051h0.05H67v-0.1v-0.05h0.05l0.1-0.101v-0.1v-0.05h0.05l0.101-0.101l0.1-0.35
	L67.5,123.35L67.5,123.35z"/>
<path fill-rule="evenodd" fill="#010101" d="M68.399,124.299l-0.1-0.449l-0.15-0.25L68,123.45l-0.15-0.05l-0.35-0.05l-0.101,0.35
	l-0.1,0.35l-0.101,0.101h-0.05v0.05v0.1l-0.1,0.101H67v0.05v0.1h-0.101h-0.05v0.051l-0.1,0.1l-0.2,0.15l-0.3,0.05H66.1l-0.1,0.05
	l-0.4-0.05l-0.25-0.15l-0.25-0.2l-0.15-0.25L64.75,123.6v-0.4l0.1-0.3l0.15-0.25l0.25-0.15l-0.2-0.25l-0.2-0.149l-0.4-0.051
	l-0.25,0.051L64,122.299l-0.25,0.25l-0.2,0.4l-0.3,0.35l-0.2,0.4l-0.25,0.8l-0.101,0.7l0.2,0.8l0.45,0.601l0.25,0.199l0.35,0.25
	l0.301,0.15l0.399,0.15l0.851,0.1l0.5-0.1l0.25-0.101l0.3-0.1l0.5-0.4l0.1-0.149l0.15-0.101l0.3-0.25l0.35-0.5l0.25-0.5l0.15-0.5
	L68.399,124.299L68.399,124.299z M65,125h-0.101l-0.1-0.149L65,125L65,125z"/>
<polygon fill-rule="evenodd" fill="#FFFFFF" points="64.899,125 65,125 64.8,124.85 64.899,125 "/>
<polygon fill-rule="evenodd" fill="#CB6928" points="66,104.85 64.899,104.7 63.899,104.65 61.949,104.7 61,104.75 60.149,104.95 
	58.5,105.5 56.949,106.2 55.6,107.2 54.35,108.4 53.75,109.049 53.25,109.85 53.949,109.25 55,108.35 56.149,107.65 57.35,107.1 
	58.649,106.75 66,104.85 "/>
<polygon fill-rule="evenodd" fill="#CB6928" points="63.699,92.35 62.1,92.45 60.649,92.65 59.199,92.9 57.899,93.25 56.6,93.6 
	55.399,94.049 54.25,94.5 53.25,95.049 52.35,95.45 51.5,96 50.6,96.6 49.75,97.299 47.949,98.85 47.05,99.7 46.199,100.7 
	48.05,99.45 49.949,98.4 51.85,97.45 53.8,96.65 55.699,95.95 57.649,95.45 59.649,95.049 61.649,94.799 63.5,94.6 65.35,94.549 
	67,94.5 68.649,94.6 70.1,94.7 71.5,94.95 72.75,95.25 73.899,95.7 74.949,96.1 75.899,96.5 76.75,96.9 77.6,97.35 77.699,97.299 
	77.85,97.299 77.949,97.25 78.1,97.25 78.3,97.15 78.5,97.1 78.6,96.95 78.699,96.799 78.75,96.6 78.75,96.5 78.75,96.45 
	78.8,96.45 78.699,95.85 78.5,95.299 78.1,94.799 77.6,94.35 76.899,93.9 76.1,93.5 75.149,93.15 74.1,92.85 72.899,92.549 
	71.75,92.35 70.5,92.2 69.25,92.15 67.899,92.1 66.55,92.15 65.1,92.2 63.699,92.35 "/>
<path fill-rule="evenodd" fill="#010101" d="M118.399,125.549l-0.1-0.949l-0.15-0.851l-0.25-0.85l-0.3-0.75l-0.45-0.75l-0.45-0.65
	l-0.55-0.649l-0.649-0.551l-0.801-0.6l-0.75-0.45l-0.8-0.45l-0.75-0.35l-0.85-0.35l-0.8-0.25l-1.7-0.301l-0.9-0.149l-0.85,0.05
	l-0.851,0.15l-0.8,0.25l-0.8,0.3l-0.7,0.45l-0.7,0.55l-0.649,0.649l-0.65,0.65l-0.55,0.7l-0.85,1.55l-0.351,0.8l-0.149,0.9
	l-0.15,1.85l0.05,1.101l0.2,1.1l0.1,0.5l0.2,0.55l0.2,0.5l0.3,0.55l0.15,0.95l0.35,1l0.351,0.9l0.55,0.95l0.75,0.949l0.399,0.45
	l0.5,0.45l0.45,0.35l0.55,0.4l1.15,0.65l1.25,0.449l0.65,0.15l0.75,0.2l0.699,0.1l0.801,0.101l1.649,0.1l0.351-0.1l0.399-0.15
	l0.4-0.25l0.45-0.35l-0.351-0.25l-0.1-0.101l-1.45-0.3l-1.35-0.3l-1.25-0.4l-1.101-0.35l-1.05-0.5l-0.95-0.45l-0.85-0.55l-0.75-0.5
	l1.05,0.5l1.15,0.399l1.199,0.25l1.301,0.101l0.899-0.05l0.9-0.15l0.399-0.15l0.45-0.1l0.4-0.15l0.45-0.1l0.75-0.4l0.8-0.449
	l0.7-0.551l0.35-0.3l0.4-0.25L116,131.6l0.3-0.351l0.55-0.7l0.45-0.8l0.399-0.75l0.101-0.45l0.149-0.399l0.101-0.45l0.149-0.4
	l0.15-0.899v-0.45L118.399,125.549L118.399,125.549z M114.399,120.299l0.5,0.551l0.45,0.6l0.7,1.25l0.2,0.65l0.199,0.75l0.101,0.75
	l0.05,0.8l-0.05,0.7l-0.101,0.75l-0.199,0.699l-0.2,0.75l-0.351,0.601l-0.199,0.3l-0.101,0.15l-0.05,0.199l-0.45,0.601l-0.5,0.6
	l-0.6,0.5l-0.601,0.45L113,132l-0.15,0.101l-0.3,0.199l-0.601,0.351l-0.75,0.2l-0.699,0.199l-0.75,0.101l-0.7,0.05l-0.8-0.05
	l-0.75-0.101l-0.75-0.199l-0.65-0.2l-1.25-0.7l-0.6-0.45l-0.551-0.5l-0.55-0.6l-0.45-0.601l-0.399-0.649l-0.25-0.601l-0.3-0.75
	l-0.15-0.699l-0.1-0.75v-0.7l0.1-1.55l0.15-0.75l0.3-0.65l0.649-1.25l1-1.15l1.15-1l1.25-0.649l0.65-0.3l0.75-0.15l1.55-0.1h0.7
	l0.75,0.1l0.699,0.15l0.75,0.3l0.601,0.25l0.649,0.399l0.601,0.45L114.399,120.299L114.399,120.299z"/>
<path fill-rule="evenodd" fill="#FFFFFF" d="M116.6,125.65l-0.05-0.8l-0.101-0.75l-0.199-0.75l-0.2-0.65l-0.7-1.25l-0.45-0.6
	l-0.5-0.551l-0.6-0.55l-0.601-0.45l-0.649-0.399l-0.601-0.25l-0.75-0.3l-0.699-0.15l-0.75-0.1h-0.7l-1.55,0.1l-0.75,0.15l-0.65,0.3
	l-1.25,0.649l-1.15,1l-1,1.15l-0.649,1.25l-0.3,0.65l-0.15,0.75l-0.1,1.55v0.7l0.1,0.75l0.15,0.699l0.3,0.75l0.25,0.601l0.399,0.649
	l0.45,0.601l0.55,0.6l0.551,0.5l0.6,0.45l1.25,0.7l0.65,0.2l0.75,0.199l0.75,0.101l0.8,0.05l0.7-0.05l0.75-0.101l0.699-0.199
	l0.75-0.2l0.601-0.351l0.3-0.199L113,132l0.199-0.05l0.601-0.45l0.6-0.5l0.5-0.6l0.45-0.601l0.05-0.199l0.101-0.15l0.199-0.3
	l0.351-0.601l0.2-0.75l0.199-0.699l0.101-0.75L116.6,125.65L116.6,125.65z M106.399,121.35l0.351,0.05l0.449,0.2l0.95,0.649
	l0.351,0.3l0.1,0.101l0.05,0.05l0.101,0.1l0.149,0.2l0.05,0.05L109,123.15l-0.051,0.2v0.25v0.5l-0.1,0.399l-0.05,0.2v0.25l-0.2,0.7
	l-0.15,0.3l-0.1,0.35l-0.2,0.2L108,126.7h-0.101h-0.05v0.05l-0.1,0.101l-0.2,0.199l-0.5,0.2l-0.3,0.05h-0.15l-0.1,0.051l-0.45-0.051
	h-0.351l-0.6-0.1l-0.45-0.15l-0.25-0.199l-0.2-0.601L104,125.85l0.199,0.199l0.301,0.4l0.199,0.3L105,126.85l0.399-0.051l0.2-0.05
	h0.25l0.4-0.149l0.399-0.101l0.3-0.25l0.301-0.2l0.25-0.3l0.3-0.3l0.2-0.65l0.05-0.25l0.1-0.149l0.101-0.3l0.05-0.051l-0.05-0.199
	l-0.101-0.15l-0.05-0.1l-0.15-0.2l-0.1-0.15l-0.25-0.399l-0.35-0.45l-0.301-0.351l-0.55-0.449V121.35L106.399,121.35z
	 M105.149,121.35l0.351,0.25l-0.601,0.25l-0.399,0.35l-0.301,0.4l-0.149,0.5l-0.101,0.699L104,124.85h-0.25l-0.051-1.15v-0.45
	l0.101-0.35l0.149-0.55l0.25-0.45l0.4-0.351L105.149,121.35L105.149,121.35z M106.55,123.95v0.15l0.1,0.3h-0.05v0.05v0.1l-0.05,0.2
	l-0.101,0.15l-0.05,0.2h-0.1h-0.05v0.05l-0.15,0.1l-0.2,0.05h-0.1h-0.05v0.051l-0.601-0.15l-0.05-0.6l0.25-0.5l0.2-0.25l0.3-0.101
	l0.3,0.05L106.55,123.95L106.55,123.95z"/>
<polygon fill-rule="evenodd" fill="#010101" points="108.149,122.25 107.199,121.6 106.75,121.4 106.399,121.35 106.399,121.6 
	106.949,122.049 107.25,122.4 107.6,122.85 107.85,123.25 107.949,123.4 108.1,123.6 108.149,123.7 108.25,123.85 108.3,124.049 
	108.25,124.1 108.149,124.4 108.05,124.549 108,124.799 107.8,125.45 107.5,125.75 107.25,126.049 106.949,126.25 106.649,126.5 
	106.25,126.6 105.85,126.75 105.6,126.75 105.399,126.799 105,126.85 104.699,126.75 104.5,126.45 104.199,126.049 104,125.85 
	104.199,126.25 104.399,126.85 104.649,127.049 105.1,127.2 105.699,127.299 106.05,127.299 106.5,127.35 106.6,127.299 
	106.75,127.299 107.05,127.25 107.55,127.049 107.75,126.85 107.85,126.75 107.85,126.7 107.899,126.7 108,126.7 108.149,126.5 
	108.35,126.299 108.449,125.95 108.6,125.65 108.8,124.95 108.8,124.7 108.85,124.5 108.949,124.1 108.949,123.6 108.949,123.35 
	109,123.15 108.949,123.049 108.899,123 108.75,122.799 108.649,122.7 108.6,122.65 108.5,122.549 108.149,122.25 "/>
<polygon fill-rule="evenodd" fill="#010101" points="105.5,121.6 105.149,121.35 104.6,121.549 104.199,121.9 103.949,122.35 
	103.8,122.9 103.699,123.25 103.699,123.7 103.75,124.85 104,124.85 103.949,123.799 104.05,123.1 104.199,122.6 104.5,122.2 
	104.899,121.85 105.5,121.6 "/>
<polygon fill-rule="evenodd" fill="#010101" points="106.649,124.4 106.55,124.1 106.55,123.95 106.149,123.799 105.85,123.75 
	105.55,123.85 105.35,124.1 105.1,124.6 105.149,125.2 105.75,125.35 105.75,125.299 105.8,125.299 105.899,125.299 106.1,125.25 
	106.25,125.15 106.25,125.1 106.3,125.1 106.399,125.1 106.449,124.9 106.55,124.75 106.6,124.549 106.6,124.45 106.6,124.4 
	106.649,124.4 "/>
<polygon fill-rule="evenodd" fill="#010101" points="123,130.1 123.1,129.799 123.1,129.6 123.1,129.45 123.149,129.35 
	123.05,127.95 122.85,126.549 122.5,125.15 122.05,123.85 121.649,123 121.3,122.299 120.85,121.65 120.449,121.1 119.949,120.549 
	119.449,120.15 118.899,119.799 118.399,119.6 119,120.049 119.6,120.6 120.1,121.2 120.6,121.9 121,122.549 121.35,123.299 
	121.6,124.1 121.85,125 122.05,126 122.3,127.25 122.55,128.65 122.899,130.35 122.899,130.25 122.899,130.2 122.949,130.2 
	123,130.1 "/>
<polygon fill-rule="evenodd" fill="#010101" points="107.5,147.35 107.649,147.25 107.85,147.25 108.149,147.299 109,147.2 
	109.75,147.2 110.399,147.2 111,147.299 111.449,147.35 111.85,147.5 112.1,147.65 112.35,147.9 112.449,148.049 112.6,148.25 
	112.699,148.4 112.85,148.6 113.05,148.75 113.25,148.85 113.35,148.799 113.5,148.799 113.649,148.799 113.649,148.75 
	113.699,148.75 113.649,148.75 113.8,148.35 113.85,148.15 113.85,148.049 113.85,148 113.899,148 113.8,147.4 113.649,146.9 
	113.399,146.45 113.05,146.15 112.6,145.85 112.05,145.65 111.399,145.5 110.649,145.45 109.85,145.4 109.199,145.45 
	108.649,145.549 108.199,145.75 107.85,145.95 107.6,146.299 107.449,146.65 107.399,147.1 107.399,147.299 107.399,147.45 
	107.5,147.35 "/>
<polygon fill-rule="evenodd" fill="#F8981D" points="107.399,149.75 107.449,149.95 107.649,150.25 107.949,150.549 108.399,150.85 
	108.949,151.1 109.6,151.299 110.25,151.4 111,151.45 111,151.4 111.05,151.4 111.149,151.4 111.35,151.4 111.35,151.35 
	111.399,151.35 111.5,151.35 111.699,151.35 111.949,151.25 112.199,151.15 112.35,150.95 112.399,150.85 112.5,150.799 
	112.6,150.549 112.649,150.35 112.6,150 112.449,149.7 112.25,149.4 112,149.15 111.6,148.9 111.149,148.7 110.6,148.5 
	110.05,148.35 109.399,148.2 108.85,148.2 108.399,148.25 108.05,148.4 107.699,148.549 107.55,148.9 107.399,149.25 
	107.399,149.75 "/>
</svg>
