<?xml version="1.0" encoding="utf-8"?>
<!-- Generator: Adobe Illustrator 13.0.0, SVG Export Plug-In . SVG Version: 6.00 Build 14948)  -->
<svg version="1.2" baseProfile="tiny" id="Layer_1" xmlns="http://www.w3.org/2000/svg" xmlns:xlink="http://www.w3.org/1999/xlink"
	 x="0px" y="0px" width="176.95px" height="179.15px" viewBox="0 0 176.95 179.15" xml:space="preserve">
<path fill-rule="evenodd" fill="#F8981D" d="M60.4,17.15l-1.75,0.1l-1.5,0.101l-1.3,0.1l-1,0.101H54l-0.6,0.1H53l-0.1,0.1l-0.6,0.15
	l-2.95,0.75l-2.75,0.9l-2.65,0.899l-2.5,1.05l-2.399,1.051l-2.25,1.199L34.7,25l-1.95,1.351l-1.55,1l-1.399,1.05l-1.4,1l-1.25,1
	l-1.25,0.9l-1.15,0.949l-1.1,0.9l-0.95,0.9l-1,0.8l-0.85,0.8l-0.8,0.75l-0.7,0.8l-0.7,0.65l-0.55,0.7l-0.5,0.649l-0.4,0.65
	l-1.35,1.899l-1.25,1.95l-2.3,3.8l-2.2,3.7l-1.9,3.7l-0.95,1.75l-0.85,1.8l-0.8,1.75L4.9,62l-0.75,1.7l-0.6,1.75l-1.101,3.4
	L3.5,67.7l1.051-1L5.5,65.75l0.9-0.85l0.8-0.85l0.75-0.75l0.65-0.7l0.649-0.55L9.7,61.5l0.65-0.6l0.75-0.75l0.45-0.4l0.55-0.399
	l0.5-0.5l0.6-0.5l0.601-0.55l0.699-0.5l0.65-0.601l0.75-0.6l0.75-0.65l0.85-0.6l0.801-0.75l0.899-0.7l0.9-0.8l1-0.75L22.051,51
	l1.05-0.8l2.25-1.75l2.35-1.95l2.55-1.949l2.65-2.15l2.85-2.15l-1.399,1.2l-2.45,2.3l-2.3,2.4l-2.15,2.4l-1.95,2.55l-0.35,0.45
	l-0.35,0.55l-0.45,0.649l-0.45,0.801l-0.55,0.8l-0.601,0.95l-0.649,1l-0.65,1.149l-0.8,1.15l-0.8,1.3l-0.9,1.35l-0.899,1.5l-1,1.5
	L16,65.9l-1.1,1.7l-1.1,1.85l-2.25,3.7L10.5,75l-0.85,1.9L8,80.7l-1.25,3.9L5.7,88.5l-0.649,3.95l-0.25,2l-0.15,2l-0.05,4.101
	l0.05,3.949l0.25,3.801l0.25,3.649l0.45,3.55l0.45,3.351l0.55,3.2l0.649,3.05l0.801,2.95l0.699,2.699l0.351,1.301l0.399,1.3
	l0.7,2.399l0.7,2.301l0.6,2.1l0.601,2l0.25,0.9l0.3,0.899l0.6,1.75l0.051-0.5l0.199-0.7l0.2-0.899l0.351-1.101l0.149-0.649l0.2-0.7
	l0.55-1.5l0.55-1.8l0.7-1.9l0.95,1.351l1,1.449l1,1.5l1.1,1.65l1.051,1.65l1.149,1.8l2.351,3.85v0.05l0.1,0.15l0.15,0.25l0.25,0.45
	l0.25,0.45l0.35,0.55l0.35,0.649l0.5,0.851l0.45,0.85l0.601,0.95l0.6,1.05l0.7,1.25l0.7,1.25l0.85,1.351l0.85,1.449l0.95,1.65v-0.9
	v-0.949l-0.1-1.15l-0.05-0.6V158.2l-0.101-0.7l-0.05-0.699l-0.1-0.75l-0.051-0.7l-0.1-0.45l-0.05-0.4l-0.101-0.8l-0.199-1.7
	l-0.2-0.949l-0.15-1L31,149l-0.1-0.55l-0.05-0.5l-0.15-0.6l-0.1-0.55l-0.2-1.15l-0.1-0.35L30.25,145l-0.1-0.6l-0.2-1.25l-0.3-1.35
	l-0.25-1.4l-0.3-1.45L29,138.551l-0.05-0.2v-0.15l-0.1-0.7l-0.601-3.1l-0.6-3.3l-0.45-1.7l-0.25-1.6l-0.25-1.551l-0.1-1.449
	l-0.101-1.45L26.551,122l0.05-1.3l0.25-1.2L27,118.4l0.15-1.1V116.7v-0.3v-0.15l0.05-0.1l0.101-1.15v-1.05v-1.05l-0.25-1.75
	L27,109.45V109l-0.1-0.649l-0.05-0.601l-0.25-1.75l-0.05-1.55L26.5,102.9l0.15-1.4l0.15-1.399l0.3-1.25l0.35-1.2l0.5-1.05l0.45-0.9
	l0.25,1l-0.15,0.4l-0.05,0.45L28.4,99.7l-0.15,3.05v1l0.25,7.351l0.15,2.55l0.25,2.7l0.25,2.75l0.35,2.95l0.2,2.199l0.3,2.15
	l-0.149,0.55l-0.05,0.601l-0.051,0.6l0.45,3.8l0.05,0.75l-0.1,1.7l0.05,1.5v0.65l0.05,0.6l0.2,1.1l0.101,0.351l0.199,0.6l0.351,0.45
	v0.3v0.15l0.05,0.2l0.1,0.699l0.2,1.2l0.2,1l0.2,0.9l0.05,0.3l0.1,0.3l0.2,0.5l0.2,0.3l0.2,0.101l0.3-0.05l0.25-0.101l0.2-0.2
	l0.149-0.199V145v-0.199l0.051-0.2v-0.25l0.05-0.3l-0.05-0.101v-0.05v-0.1v-0.25L33.5,143.25v-0.3l-0.1-0.8l-0.05-0.5v-0.5v-0.1
	v-0.15v-0.1v-0.15l-0.101-0.35v-0.351l-0.05-0.1v-0.05V139.7v-0.2v-0.55l-0.1-0.649l-0.05-0.7l-0.101-0.8v-0.851l-0.1-1l-0.101-1.05
	l-0.1-1.15l-0.1-1.149l-0.101-0.7l-0.05-0.2v-0.149v-0.301l-0.1-1.35l-0.101-1.45l-0.1-1.5l-0.3-3.3l-0.25-3.15l-0.25-3l-0.15-2.8
	l-0.3-9.649l0.1,0.3v0.05l0.05,0.1l0.101,0.2l0.3,0.65l0.25,0.5l0.3,0.45l0.2,0.35l0.1,0.1l0.051,0.051l0.1,0.1l0.2,0.15h0.1h0.05
	l0.101,0.05l0.6-1.45l0.75-1.45l0.3-0.8l0.351-0.65l0.7-1.1l0.3-0.5l0.35-0.4l0.3-0.35l0.351-0.2l-0.05,0.25l0.1,0.351l0.1,0.449
	l0.25,0.601l0.25,0.649l0.351,0.851l0.399,0.899l0.551,1.051L38.9,105l0.25-0.35l0.3-0.55l0.4-0.601l0.399-0.8l0.551-0.85l0.55-1.05
	l0.7-1.101l0.399-0.8l0.15-0.35l0.2-0.25l0.5,0.699l0.6,1l0.6,1.15l0.75,1.4l0.301,0.649l0.449-0.85l0.25-0.45l0.351-0.4l0.3-0.55
	l0.4-0.5l0.85-1.05l0.95-1.25l1.05-1.3l1.15-1.45l1.35-1.55l0.8,1.7l0.4,0.8l0.2,0.399l0.1,0.2l0.05,0.101l0.101,0.149v0.05
	l0.05,0.101l0.1,0.2l0.2,0.399l0.4,0.8l0.8,1.5l0.399-0.55l0.5-0.55l0.551-0.65L58,97.851l0.7-0.8l0.8-0.801l0.851-0.899l1-0.9
	l0.05,0.2l0.05,0.2l0.15,0.3l0.1,0.3l0.2,0.45l0.2,0.45l0.3,0.55l0.15,0.35l0.199,0.551l0.45,1.25l0.8-0.9l0.95-0.95l0.95-1l1.05-1
	L68,94.051l1.15-1.15l1.2-1.25l1.3-1.25l0.6,0.9l0.601,0.899l0.5,0.8l0.5,0.851l0.399,0.7l0.4,0.699l0.15,0.301L75,95.9l0.301,0.65
	l-0.9,0.6l-1.1,0.7L72,98.551l-1.5,0.699l-0.85,0.301l-0.9,0.399l-1.899,0.75l-2.101,0.75l-2.3,0.8l-2.649,0.801l-1.25,0.399
	l-1.101,0.45l-1.1,0.35l-1,0.4l-1.75,0.8l-1.55,0.7l-0.65,0.35l-0.55,0.4l-0.55,0.3l-0.45,0.351l-0.65,0.699l1.8-0.5l2.051-0.449
	l2.149-0.5l2.351-0.45l2.449-0.55l2.65-0.5l2.75-0.601l3-0.5l1-0.35l0.95-0.3l0.399-0.2l0.2-0.101l0.101-0.05H71.2l0.851-0.3
	l0.75-0.4l0.699-0.35l0.601-0.4l0.6-0.35l0.9-0.9l0.7-0.899l0.399-1l0.2-1l0.4-0.45l0.5-0.5l1.05-1.1l0.55-0.65l0.6-0.7l1.351-1.5
	l0.7-0.95l0.649-0.8l0.601-0.75l0.55-0.6l3.6,7.75l1.25-1.65l1.45-1.6l1.5-1.55l1.65-1.5l0.649,0.899l0.7,0.95l0.65,0.9l0.3,0.449
	l0.35,0.5l1.15,1.7l0.55,0.8l0.25,0.4l0.3,0.45l0.55-0.75l0.65-0.7l0.7-0.8l0.85-0.75l0.8-0.9l0.95-0.85l0.95-0.95l1.1-0.9
	l4.7,8.101l-1.649-0.45l-1.601-0.3l-1.5-0.25l-1.35-0.101l-1.25-0.05l-1.15,0.15l-1.1,0.149L98.9,99L98,99.351l-0.75,0.55l-0.75,0.5
	l-0.6,0.65l-0.55,0.75L95,102.65l-0.35,0.9l-0.2,1.05l-0.149,1.149V107l0.05,2.7l0.2,2.851L94.2,113.25l-0.2,0.551l-0.1,0.699
	l-0.05,0.801v0.949v0.15v0.15l0.05,0.35v0.35l0.05,0.45l0.101,1.15l0.1,1.45l0.05,0.85l0.101,0.95l0.199,2.149l0.25,2.45l0.101,1.2
	l0.2,1.15l0.1,1.05l0.2,1l0.1,0.899l0.2,0.851l0.15,0.75l0.199,0.7l0.101,0.6l0.2,0.55l0.199,0.45l0.2,0.4l0.2,0.3l0.2,0.25
	l0.2,0.149l0.199,0.101l0.101,0.35l0.2,0.3l0.1,0.2l0.2,0.15l0.3-0.15l0.1-0.149l0.15-0.101v-0.149l0.05-0.101l0.101-0.2V137v-0.149
	l0.05-0.101l-0.05-0.1v-0.05L98.75,136.5v-0.05l-0.1-0.25l-0.05-0.2v-0.3l-0.05-0.399v-0.351l-0.051-0.399v-0.4l-0.1-0.5l-0.05-0.1
	V133.5v-0.1v-0.2l-0.101-0.5l-0.05-0.5l-0.149-0.6L97.95,131l-0.2-1.25l-0.3-1.449l-0.3-1.45l-0.4-1.601l-0.3-1.5l-0.399-2.949
	l-0.301-2.851l-0.05-2.7v-0.149v-0.15v-0.35l0.05-0.351v-0.55l0.051-0.649l0.05-0.75l0.1-0.801l-0.35,0.15l-0.101-0.85l-0.05-0.5
	v-0.45l-0.149-1.4l-0.051-1.1v-0.9l0.101-0.7l0.149-1.199L95.65,104l0.25-0.449l0.55-0.9l0.8-0.65l0.4-0.35l0.5-0.25l1.15-0.35
	l1.3-0.25l1.5-0.051h0.75l0.899,0.101L104.7,101l1.101,0.25l1.149,0.25l1.25,0.4l1.351,0.4l1.449,0.55l5.801,2.1L117,104.9l0.25-0.1
	l0.2-0.15l0.25-0.2l0.3-0.5l0.051-0.3v-0.15l0.05-0.1L118,103.2l-0.1-0.1l-0.05-0.05l-0.2-0.15l-0.15-0.1l-0.35-0.2l-0.55-0.3
	L116,102l-0.399-0.199l-0.2-0.101l-0.1-0.05h-0.051l-0.449-0.2l-0.4-0.149l-1.85-0.75l-1.801-0.601l1-0.75l0.95-0.649l0.851-0.65
	l0.75-0.55l0.55-0.55l0.55-0.45l0.45-0.4l0.35-0.3l2.25,6.15l0.45-0.4l0.55-0.35l0.55-0.45l0.65-0.4l1.35-0.95l0.75-0.5l0.851-0.449
	l0.25,0.949l0.3,1.15l0.3,1.15l0.15,0.5l0.2,0.5l0.3,0.85v0.05l0.05,0.101l0.1,0.199l0.2,0.4l0.3,0.55l0.301,0.4l0.1,0.1l0.05,0.05
	l0.101,0.101l0.3,0.1l1.149-1.05l1.15-0.9l1-0.85l0.95-0.75l0.25-0.2v0.101v1v0.149v0.351v0.449l0.1,0.65v0.75l0.101,0.9l0.1,1.05
	l0.15,1.2l0.6-0.351l0.75-0.3l0.8-0.4l0.9-0.35l0.899-0.45l1.051-0.399l1.05-0.45l1.2-0.4l-0.5,0.9l-0.4,0.85l-0.4,0.75l-0.25,0.75
	l-0.25,0.601l-0.149,0.55l-0.15,0.45v0.399l1.2-0.649l1.15-0.551l2.1-1.05l1.8-0.95l0.8-0.399l0.75-0.351l-0.25,3.051l-0.35,3.199
	l-0.45,3.25l-0.45,3.351l-0.649,3.399l-0.65,3.551l-0.85,3.55l-0.851,3.7l-0.5,1.649l-0.399,1.55l-0.351,1.351l-0.3,1.25l0.55-0.2
	l0.301-0.05l0.699-0.25l0.65-0.101l0.8-0.25l-0.6,1.15l-0.45,1.1l-0.35,0.7l-0.25,0.7l-0.25,0.65l-0.15,0.649l-0.2,0.601l-0.1,0.55
	l-0.101,0.5v0.45v0.35l0.101,0.35l0.149,0.25l0.25,0.2l0.25,0.101l0.351,0.05l0.1-0.101l0.2-0.3l0.25-0.45l0.35-0.6l0.351-0.8
	l0.45-0.95l0.449-1.15l0.601-1.3l0.25-0.85l0.3-0.75l0.25-0.7l0.3-0.6l0.4-1.101l0.149-0.5l0.2-0.35l0.4-0.4l0.35-0.35l0.3-0.351
	l0.301-0.25l0.149-0.3l0.15-0.2l0.1-0.199l0.05-0.15l-0.05-0.3l-0.05-0.15l0.3-0.35l0.101-0.101l0.05-0.1l-0.101-0.45l-0.1-0.2
	l-0.1-0.1l-0.4-0.15l-0.45-0.05l-0.75,0.25l-0.6,0.2l-0.45,0.15l-0.35,0.149l0.199-0.75l0.25-0.8l0.25-0.85l0.301-0.95l0.25-1.05
	l0.3-1.15l0.3-1.25l0.3-1.25l0.2-1.35l0.25-1.2l0.2-1.15l0.2-1.05l0.149-1l0.2-0.85l0.1-0.851l0.2-0.649l0.101-0.65l0.1-0.55
	l0.2-0.851l0.1-0.55v-0.149h0.05l-0.05-1.551v-1.399l-0.1-1.351l-0.05-1.149l-0.101-1.15l-0.1-0.95l-0.101-0.5l-0.05-0.399
	l-0.1-0.75l0.2-0.2l0.149-0.15l0.101-0.149l0.05-0.101l-0.101-0.3l-0.1-0.149l-0.05-0.101l-0.2-0.2l-0.15-0.1l-0.149-0.35l-0.15-0.2
	l-0.25-0.15l-0.35-0.05l-0.5-0.3l-0.5,0.05l-0.05,0.25l-1.301,0.2l-1.25,0.5l-0.949,0.35l-0.851,0.351l-0.8,0.25l-0.7,0.149v-0.75
	l0.05-0.6V102.5l0.051-0.5l0.149-0.35l0.2-0.25l0.35-0.45l0.15-0.35l0.05-0.15l0.05-0.05l-0.05-0.1v-0.051l-0.1-0.149l0.25-0.351
	l0.05-0.1h0.05l-0.1-0.65l-0.101-0.25l-0.1-0.149l-0.2-0.2l-0.149-0.1l-0.45-0.051h-0.2l-0.2,0.101l-0.3,0.1l-0.25,0.2l-0.35,0.2
	l-0.351,0.3l-0.45,0.35l-0.399,0.45l-0.65,0.5l-0.5,0.45l-0.5,0.4l-0.35,0.35l-0.351,0.25l-0.149,0.2l-0.15,0.1v0.101v-0.25l0.2-0.4
	l0.2-0.45l0.149-0.55l0.15-0.4l0.05-0.399l0.05-0.25v-0.25l0.051-0.25l0.05-0.15l-0.05-0.3l-0.101-0.25l-0.2-0.2l-0.25-0.1
	l-0.199-0.351l-0.25-0.25l-0.351-0.149h-0.35L132.5,97.7l-0.149-0.3l1.45-0.7l1.35-0.6l1.2-0.601l1.1-0.6l-1.75,5.4l0.55-0.7
	L136.851,99l1.1-1.05l0.45-0.5l0.5-0.399l0.4-0.4l0.449-0.3L140.101,96l0.35-0.25l0.3-0.199l0.351-0.101l0.25-0.149l0.25-0.051
	l0.45,0.051l0.25,0.149l0.1,0.15l0.1,0.25l0.051,0.55v0.35v0.45l-0.101,0.4l-0.1,0.5l-0.25,1.149l-0.2,0.601l-0.2,0.7l-0.25,0.699
	l-0.2,0.801l2-0.4l1.801-0.3l1.6-0.3l1.45-0.25l0.2,1.3l0.3,1.5l0.2,1.6l0.3,1.8l0.05,0.95v0.5l0.05,0.601l-0.05,0.55v0.649
	l-0.05,1.351l-0.15,1.45l-0.1,0.75l-0.05,0.85l-0.2,1.7l-0.2,1.85l-0.35,1.8l-0.2,0.9l-0.101,0.45l-0.05,0.5l-0.45,1.8l-0.5,1.8
	l-0.6,1.7l-0.6,1.75l-0.7,1.7l-0.7,1.7l1.75-1.65l1.7-1.55l1.649-1.45l1.65-1.25l-0.25,0.5l-0.2,0.6l-0.45,1.25l-0.5,1.351
	l-0.55,1.55l-0.649,1.55l-0.7,1.75l-0.75,1.851l-0.75,1.949l-0.9,2.051l-0.899,2.149l-0.5,1.101l-0.45,1.199l-0.95,2.45l-1.1,2.5
	l-1.101,2.65l-1.149,2.75l-1.2,2.899l0.25-0.899l-0.2,0.55l-0.15,0.5l-0.149,0.4l-0.05,0.35l1.649-2.15l1.601-2l1.5-1.899
	l1.449-1.75l1.301-1.65l1.25-1.55l1.149-1.45l1.101-1.25l0.949-1.25l0.9-1.1l0.8-0.95l0.75-0.85l0.65-0.75l0.55-0.65l0.45-0.55
	L154,139.25l0.2,0.301l-1.05,13l0.2-0.2l0.25-0.25l0.3-0.4l0.35-0.45l0.351-0.649l0.399-0.7l0.45-0.85l0.5-0.851l0.5-1.1l0.55-1.15
	l0.601-1.25l0.649-1.35l0.65-1.55l0.7-1.551l0.75-1.75l0.8-1.75l0.7-1.899l0.7-1.8l1.3-3.45l0.5-1.7l0.5-1.6l0.45-1.601l0.449-1.5
	l0.301-1.55l0.3-1.45l0.25-1.399l0.2-1.301l0.1-1.35l0.1-1.25l0.101-2.35l-0.15-2.4l-0.25-2.4l-0.2-1.25l-0.149-1.199l-0.2-1.25
	l-0.15-1.2l-0.55-2.601l-0.55-2.6l-0.2-0.7l-0.1-0.35l-0.05-0.3L164.25,95l-0.75-2.699l0.351,0.1l0.399,0.15l0.75,0.3l0.7,0.25
	l0.65,0.3l0.55,0.2l0.25,0.1l0.3,0.15l1,0.399l0.351,0.101h0.05l0.1,0.05l0.2,0.1l0.3,0.101l0.25,0.1h0.05l0.101,0.05L170,94.851
	l0.2,0.1l0.7,0.15l0.65,0.2l1.199,0.399l0.5,0.101L173.7,96l0.4,0.2l0.35,0.2l-0.5-2.7l-0.399-2.45l-0.4-2.35l-0.35-2.1l-0.4-2.051
	l-0.3-1.8l-0.3-1.7l-0.25-1.5L171,77.2l-0.55-2.45l-0.6-2.35l-0.55-2.2l-0.65-2.2l-0.6-2.05l-0.7-1.95l-0.65-1.85l-0.95-2.3
	l-0.949-2.2l-1.051-2.15l-1-2l-1.149-2l-1.101-1.85l-1.199-1.85l-1.15-1.7l-1.3-1.75l-1.3-1.601l-1.4-1.55l-1.35-1.399l-1.45-1.4
	l-1.45-1.3l-1.55-1.25l-1.5-1.101l-1-0.699l-1.05-0.7l-1.25-0.8l-1.25-0.801l-1.45-0.899l-1.5-0.9l-1.65-1l-1.75-1l-0.75-0.45
	l0.65-0.1l0.85-0.05l0.851-0.05l1,0.05L140.7,27.5l1.15,0.101l1.35,0.2l1.3,0.149l1.45,0.25l1.45,0.25l1.65,0.3l1.649,0.301
	l1.75,0.35l1.8,0.35l1.95,0.45l-2-2.25l-1.05-1.05l-1.1-1l-1.2-1l-1.2-0.9l-2.6-1.75l-2.9-1.649l-1.5-0.75l-1.55-0.7l-1.65-0.7
	l-1.649-0.6l-1.7-0.601l-1.75-0.55l-3.65-1.05l-3.6-0.95l-3.601-0.8l-3.55-0.65l-3.6-0.55l-3.5-0.399l-3.5-0.301l-3.45-0.149
	l-2.8-0.101l-2.601-0.1l-2.35-0.1l-1.1-0.051h-1l-1.9-0.1l-1.7-0.1l-1.5-0.101l-1.2-0.1l-0.3-0.4l-0.2-0.399l-0.199-0.45l-0.101-0.4
	L88.801,8.9L88.75,8.4l-0.05-0.55l0.05-0.55l0.051-1.15l0.149-1.05l0.25-0.95l0.45-0.8L89.75,3V2.851l0.051-0.05L89.65,2.75H89.5
	l-0.1,0.101L89.15,2.9l-0.2,0.15L88.7,3.2l-0.25,0.25l-0.35,0.2l-0.351,0.3l-0.399,0.3l-0.4,0.4l-0.8,0.6L85.4,6l-0.8,0.851l-0.7,1
	l-0.8,1.05l-0.7,1.25l-0.8,1.35l-0.7,1.45l-1.65-0.7l-1.55-0.6l-1.45-0.7l-1.35-0.6l-2.1-0.95L70.7,8.75l-2.1-0.449L66.5,8.15
	l0.301,0.5l0.449,0.7l0.45,0.85l0.601,1.101l0.6,1.199l0.7,1.4l0.75,1.55l0.85,1.75l-1-0.149l-1.05-0.101l-1.2-0.1H66.7h-1.45
	l-1.5,0.05L62.101,17L60.4,17.15L60.4,17.15z M143.301,50.101l0.399,0.25v0.05L143.301,50.101L143.301,50.101z M116,91.051
	L115.851,91l-0.3,0.051l-0.25,0.149l-0.2-0.1l-0.15,0.05l-0.1,0.15v0.3l-0.45,0.45L114,92.7l-0.5,0.75l-0.25,0.4l-0.199,0.5
	l-0.45,0.45l-0.351,0.449l-0.55,0.7l-0.45,0.5l-0.149,0.2L111,96.801l-0.85-1.301l-0.75-1.149l-0.7-1.05l-0.649-0.95L107.4,91.5
	l-0.55-0.75l-0.5-0.649l-0.4-0.55l0.75-1.301l0.851-1.35l0.3,0.95l0.399,0.85l2.45,5.4l0.55-0.45l0.65-0.55l0.7-0.65l0.85-0.7
	l0.851-0.85l1-0.95l1.05-1.05l1.149-1.1l0.75,1.8l-0.55,0.45l-0.3,0.3l-0.25,0.399l-0.3-0.1h-0.25h-0.15l-0.1,0.1l-0.2,0.101
	L116,91.051L116,91.051z M127,90.65l0.2,0.6l0.2,0.801l0.3,1.899l0.05,0.9l0.101,0.95v0.85v0.9l-0.101,0.8l-0.05,0.399v0.45
	l1.9-0.75l1.85-0.649l-0.1,0.35l-4.25,1.7l-0.3-1.101l-0.25-0.949l0.1-0.101l0.15-0.1l0.1-0.2l0.05-0.1l0.101-0.051l0.05-0.3
	l0.1-0.25v-0.35l0.05-0.3l-0.1-0.7l-0.1-0.351l-0.101-0.3l-0.2-0.399l-0.1-0.2L126.601,94v-0.05l-0.45-0.7l-0.45-0.55l-0.35-0.2
	l-0.25,0.051l-0.05,0.35h-0.2l-0.351,0.05L124.301,93l-0.2,0.15l-0.55,0.35l-0.601,0.551l-0.1-0.051v0.15l-0.3,0.25l-0.95,0.8
	l-0.4,0.351l-0.3,0.35l-0.35,0.25l-0.25,0.25l-0.351,0.35l-0.3-0.35l-0.15-0.2l-0.1-0.149l-0.5-0.75l-0.6-0.851l-0.5-0.95l0.35-0.6
	l0.4-0.5l0.3-0.45l0.3-0.35l1.05,2.5l2-1.05l0.9-0.5l0.899-0.4l1.601-0.85L127,90.65L127,90.65z M93.7,83.851l0.351,0.649l1.1,1.75
	l0.55,0.801l0.601,0.85l0.5,0.75l0.55,0.8l1.1,1.45L99,90.4l0.301-0.3l0.399-0.25l0.851-0.7l0.949-0.8l1.051-1l0.55-0.55l0.649-0.5
	l1.351-1.2l1.45-1.25l0.3,1.05L107,85.4l0.2,0.55l-1.5,0.75l-1.399,1.15l-0.351-0.2l-0.2,0.1l-0.149,0.301v0.5l-0.4,0.3l-0.35,0.399
	L102,90.2l-2.05,2.2l-1.85,2.3l-0.851-1.649l-0.649-1.4l-0.55-1.15l-0.45-0.85l-0.55-0.8l-0.351-0.8l0.101-0.301l0.1-0.199
	l0.05-0.15l0.05-0.05l-0.05-0.4l-0.1-0.25l-0.15-0.3l-0.2-0.15l-0.3-0.149h-0.35l-0.3,0.149l-0.4-0.3l-0.3-0.1L92.5,85.9
	l-0.199,0.15L92.2,86.2l-0.1,0.15l0.05,0.25L92,86.75L91.9,87l-0.05,0.75l0.1,0.2l-0.35,0.351l-0.3,0.449l-0.351,0.5l-0.3,0.601
	L90,90.75l-0.649,1.051l-0.7,1.1l-0.7,1.2l-0.649-1.4l-0.5-1.25l-0.5-1.149l-0.351-0.95l-0.25-1L85.5,87.5l0.4-0.55l0.15-0.25
	l0.199-0.149l0.15-0.25l0.05-0.101h0.05l-0.05-0.3v-0.2l-0.1-0.35l-0.15-0.25L86,84.95l-0.3-0.05h-0.2L85.351,85l-0.4,0.15
	L84.5,85.5l-0.1-0.1l-0.35-0.45L83.75,84.7l-0.25-0.1l-0.149,0.05l-0.2,0.15l-0.1,0.35L83,85.601v0.649l0.101,0.351l-0.45,0.35
	l-0.55,0.4l-0.5,0.5L81,88.4l-0.6,0.65L79.7,89.7l-0.649,0.75l-0.75,0.75l-0.75,0.9l-0.4-0.45l-0.45-0.4l-0.6-0.35l-0.65-0.3
	l-0.3-0.851l-0.1-0.25L75,89.301l-0.1-0.4l-0.25-0.65l-0.2-0.55l-0.399-0.85l0.5-0.65l0.399-0.45l0.2-0.35l0.05-0.1h0.05L75.2,84.75
	l-0.149-0.35l-0.15-0.15l-0.1-0.05L74.5,84.15l-0.449,0.05l-0.25,0.05l-0.2,0.15L73,84.75l-0.649,0.551L72,85.601l-1,0.85
	l-0.699,0.7L69.7,87.7l-0.25,0.2l-1.3,1.4l-1-0.051l0.7-0.8l0.8-0.8l0.85-0.85l1-0.851l0.851-0.85l0.8-0.7l0.75-0.65l0.7-0.5
	l0.6-0.5l0.55-0.35l0.5-0.3l0.45-0.15v0.45l0.101,0.6l0.1,0.75l0.2,0.95l0.2,1.05l0.3,1.2l0.35,1.351l0.45,1.5l0.45-0.601l0.25-0.35
	l0.35-0.3L79.2,87.7l0.4-0.5l0.5-0.45l0.95-1.149l1.149-1.2l1.25-1.4l0.65-0.75l0.75-0.699l3.8,8.3l0.7-0.9l0.7-0.8l1.35-1.55
	l1.2-1.45l0.55-0.7L93.7,83.851L93.7,83.851z M148.75,83.4l-0.199,0.35l-0.101,0.351l0.05-0.4l0.101-0.35L148.75,83.4L148.75,83.4z
	 M45.851,96.4l-0.2-0.55L45.5,95.4l-0.3-0.8L45,94.2l-0.149-0.25l-0.101-0.399L44.7,93.25l-0.1-0.25L44.5,92.851l-0.149-0.3
	L44.25,92.4l-0.199-0.1l-0.15,0.05l-0.25,0.05l-0.2,0.2l-0.3,0.25L42.9,93.25l-0.25,0.051L42.5,93.45l-0.1,0.45l-0.05,0.05
	l-0.5,0.45l-0.5,0.55l-0.75,0.851l-0.8,1.1l-0.351,0.5l-0.6,0.85l-0.25-0.75l-0.2-0.6l-0.2-0.45l0.05-0.1V96.2l-0.1-0.649l-0.1-0.25
	l-0.101-0.15l-0.2-0.2l-0.199-0.1l-0.45-0.05l-0.3,0.149l-0.7-0.149H35.75L35.5,94.95l-0.149,0.101L35.2,95.45v0.3l0.101,0.301v0.05
	l0.05,0.1l0.1,0.2l-0.6,0.85l-0.5,0.65l-0.45,0.75l-0.55,0.8l-0.5,0.9L32.4,99.4l-0.35-0.8l-0.351-0.75l-0.3-0.65v-0.5v-0.25
	l0.05-0.2l0.05-1V95l0.15-0.3l0.15-0.2l0.25,0.801l0.35,0.949l0.35,1.051L33.2,98.5l0.851-2l1-1.649l1-1.45l1.149-1.1l0.5,0.6
	l0.55,0.7l1,1.45L39.5,95.5l0.101-0.3l0.2-0.25L40,94.601l0.351-0.351l0.3-0.449l0.4-0.45l0.449-0.5l0.551-0.5l0.649-0.8
	l0.851-0.851l0.85-0.95l1-1l0.3,1.2L46,91l0.2,0.9l0.101,0.4L46.45,92.7l1.15-1.45L48.65,90l0.95-1.149l0.45-0.55l0.5-0.45
	l0.75-0.95l0.35-0.45l0.4-0.35l0.6-0.65l0.25-0.3l0.3-0.2l0.351,0.8l0.55,1.101l0.55,1.35l0.7,1.65l0.05-0.2l0.1-0.1V89.5
	l0.051,0.051H55.5v0.1L55.4,90l0.1,0.301l-0.3,0.1l-0.25,0.05l-0.8,0.25l-0.4-0.8l-0.35-0.5l0.15-0.4l0.149-0.3l0.101-0.25l0.05-0.1
	l-0.05-0.45v-0.35L53.7,87.2l-0.05-0.25l-0.2-0.399l-0.149-0.101H53.2h-0.399l-0.45,0.25l-0.5,0.4l-0.3,0.3l-0.25,0.4l-0.65,0.649
	l-0.6,0.8l-0.351,0.4l-0.3,0.5l-0.6,1.05l-0.4,0.5l-0.35,0.601l-0.7,1.25l-0.75,1.35l-0.4,0.7L45.851,96.4L45.851,96.4z
	 M30.95,92.601l-0.399-0.15h-0.45h-0.15l0.101-0.3l0.149-0.2l0.2-0.3l0.1,0.2l0.051,0.1l0.1,0.15L30.95,92.601L30.95,92.601z
	 M28.65,95.101l0.05,0.05l-0.1,0.1L28.65,95.101L28.65,95.101z M65.25,84.65l-0.149-0.15L65,84.45l-0.35-0.05l0.5-0.5L65.25,84.65
	L65.25,84.65z M64,89.15l-0.05-0.5l0.15-0.25h0.05l0.2-0.55l0.25-0.45L65,86.65L65.25,86l0.101-0.25l0.1-0.149l0.601,3.6l-1.7,0.05
	H64V89.15L64,89.15z M65.601,92.351l-0.05,0.05l-0.301,0.4l-0.149-0.5L65.601,92.351L65.601,92.351z M56.7,93.5l0.851-1l1-0.149
	l-0.65,0.95l-0.6,0.85l-0.551,0.7L56.301,95.5L56.2,95.65l-0.75-1.95L55.2,93l1.25-0.3L56.7,93.5L56.7,93.5z"/>
<polygon fill-rule="evenodd" fill="#FFCD05" points="38.851,98.25 39.45,97.4 38.95,97.301 38.601,97.051 38.4,96.9 38.601,97.5 
	38.851,98.25 "/>
<polygon fill-rule="evenodd" fill="#FFCD05" points="55.2,90.4 55.4,90 55.5,89.65 55.5,89.551 55.551,89.551 55.5,89.5 
	55.5,89.551 55.4,89.65 55.351,89.851 55.15,90.101 54.95,90.45 55.2,90.4 "/>
<polygon fill-rule="evenodd" fill="#FFCD05" points="63.95,88.65 64,89.15 64,89.25 64.351,89.25 64.15,88.4 64.101,88.4 
	63.95,88.65 "/>
<path fill-rule="evenodd" fill="#FFCD05" d="M106.2,98.851l1.601,0.3l1.649,0.45l-4.7-8.101l-1.1,0.9l-0.95,0.95l-0.95,0.85
	l-0.8,0.9l-0.85,0.75l-0.7,0.8l-0.65,0.7l-0.55,0.75l-0.3-0.45l-0.25-0.4l-0.55-0.8l-1.15-1.7l-0.35-0.5l-0.3-0.449l-0.65-0.9
	l-0.7-0.95l-0.649-0.899l-1.65,1.5l-1.5,1.55l-1.45,1.6l-1.25,1.65l-3.6-7.75l-0.55,0.6L82.7,90.95l-0.649,0.8l-0.7,0.95L80,94.2
	l-0.6,0.7l-0.55,0.65l-1.05,1.1l-0.5,0.5l-0.4,0.45l-0.2,1l-0.399,1l-0.7,0.899l-0.9,0.9l-0.6,0.35l-0.601,0.4l-0.699,0.35
	l-0.75,0.4l-0.851,0.3h-0.149l-0.101,0.05l-0.2,0.101l-0.399,0.2l-0.95,0.3l-1,0.35l-3,0.5l-2.75,0.601l-2.65,0.5l-2.449,0.55
	l-2.351,0.45l-2.149,0.5L51,107.75l-1.8,0.5l0.65-0.699l0.45-0.351l0.55-0.3l0.55-0.4l0.65-0.35l1.55-0.7l1.75-0.8l1-0.4l1.1-0.35
	l1.101-0.45l1.25-0.399l2.649-0.801l2.3-0.8l2.101-0.75l1.899-0.75l0.9-0.399l0.85-0.301l1.5-0.699l1.301-0.7l1.1-0.7l0.9-0.6
	L75,95.9l-0.199-0.35l-0.15-0.301l-0.4-0.699l-0.399-0.7L73.351,93l-0.5-0.8l-0.601-0.899l-0.6-0.9l-1.3,1.25l-1.2,1.25L68,94.051
	L66.95,95.2l-1.05,1l-0.95,1L64,98.15l-0.8,0.9l-0.45-1.25l-0.199-0.551L62.4,96.9l-0.3-0.55l-0.2-0.45l-0.2-0.45l-0.1-0.3
	l-0.15-0.3l-0.05-0.2l-0.05-0.2l-1,0.9L59.5,96.25l-0.8,0.801l-0.7,0.8L57.301,98.5l-0.551,0.65l-0.5,0.55l-0.399,0.55l-0.8-1.5
	l-0.4-0.8l-0.2-0.399l-0.1-0.2l-0.05-0.101V97.2L54.2,97.051l-0.05-0.101l-0.1-0.2l-0.2-0.399l-0.4-0.8l-0.8-1.7l-1.35,1.55
	l-1.15,1.45l-1.05,1.3l-0.95,1.25l-0.85,1.05l-0.4,0.5l-0.3,0.55l-0.351,0.4l-0.25,0.45l-0.449,0.85l-0.301-0.649l-0.75-1.4
	L43.9,100l-0.6-1l-0.5-0.699l-0.2,0.25l-0.15,0.35l-0.399,0.8l-0.7,1.101l-0.55,1.05l-0.551,0.85l-0.399,0.8l-0.4,0.601l-0.3,0.55
	L38.9,105l-0.1,0.301l-0.551-1.051l-0.399-0.899L37.5,102.5l-0.25-0.649L37,101.25l-0.1-0.449l-0.1-0.351l0.05-0.25l-0.351,0.2
	l-0.3,0.35l-0.35,0.4l-0.3,0.5l-0.7,1.1L34.5,103.4l-0.3,0.8l-0.75,1.45l-0.6,1.45l-0.101-0.05H32.7h-0.1l-0.2-0.15l-0.1-0.1
	l-0.051-0.051l-0.1-0.1l-0.2-0.35l-0.3-0.45l-0.25-0.5l-0.3-0.65L31,104.5l-0.05-0.1v-0.05l-0.1-0.3l0.3,9.649l0.15,2.8l0.25,3
	l0.25,3.15l0.3,3.3l0.1,1.5l0.101,1.45l0.1,1.35v0.301v0.149l0.05,0.2l0.101,0.7l0.1,1.149l0.1,1.15l0.101,1.05l0.1,1v0.851
	l0.101,0.8l0.05,0.7l0.1,0.649v0.55v0.2v0.101v0.05l0.05,0.1v0.351l0.101,0.35v0.15v0.1v0.15v0.1v0.5l0.05,0.5l0.1,0.8v0.3
	l0.051,0.301v0.25v0.1v0.05l0.05,0.101l-0.05,0.3v0.25l-0.051,0.2V145v0.051l3.101,2.35l3.2,2.2L43,151.65l3.25,1.95l3.25,1.75
	l3.301,1.6l3.3,1.45l3.35,1.35l3.351,1.101l3.399,1l3.4,0.85l3.5,0.75l3.45,0.5l3.5,0.4l3.55,0.25l3.6,0.1l0.9-0.05h0.95l1.899-0.05
	l3.7-0.25l3.6-0.45l3.601-0.55l3.5-0.8l1.7-0.45l0.399-0.15l0.45-0.1l0.9-0.2l0.8-0.3L110,161.2l0.45-0.1l1.7-0.55l1.65-0.601
	l1.699-0.6l3.2-1.45l1.55-0.8l1.601-0.75l1.5-0.9l0.35-0.25l0.4-0.2l0.8-0.399l1.5-0.95l0.75-0.5l0.8-0.45l0.7-0.55l0.75-0.5
	l1.5-1.05l2.9-2.2l2.8-2.4l2.8-2.55l0.15-0.649l0.25-0.65l0.25-0.7l0.35-0.7l0.45-1.1l0.6-1.15l-0.8,0.25l-0.65,0.101l-0.699,0.25
	L139,139.15l-0.55,0.2l0.3-1.25l0.351-1.351l0.399-1.55l0.5-1.649l0.851-3.7l0.85-3.55l0.65-3.551l0.649-3.399l0.45-3.351l0.45-3.25
	l0.35-3.199l0.25-3.051l-0.75,0.351l-0.8,0.399l-1.8,0.95l-2.1,1.05l-1.15,0.551l-1.2,0.649v-0.399l0.15-0.45l0.149-0.55l0.25-0.601
	l0.25-0.75l0.4-0.75l0.4-0.85l0.5-0.9l-1.2,0.4l-1.05,0.45l-1.051,0.399l-0.899,0.45l-0.9,0.35l-0.8,0.4l-0.75,0.3l-0.6,0.351
	l-0.15-1.2l-0.1-1.05l-0.101-0.9v-0.75l-0.1-0.65v-0.449v-0.351v-0.149v-1l-0.25,0.1l-0.95,0.75l-1,0.85l-1.15,0.9l-1.149,1.05
	l-0.3-0.1l-0.101-0.101l-0.05-0.05l-0.1-0.1l-0.301-0.4l-0.3-0.55l-0.2-0.4l-0.1-0.199l-0.05-0.101v-0.05l-0.3-0.85l-0.2-0.5
	l-0.15-0.5l-0.3-1.15l-0.3-1.15l-0.25-0.949l-0.851,0.449l-0.75,0.5l-1.35,0.95l-0.65,0.4l-0.55,0.45l-0.55,0.35l-0.45,0.4
	l-2.25-6.15l-0.35,0.3l-0.45,0.4l-0.55,0.45l-0.55,0.55l-0.75,0.55l-0.851,0.65l-0.95,0.649l-1,0.75l1.801,0.601l1.85,0.75
	l0.4,0.149l0.449,0.2h0.051l0.1,0.05l0.2,0.101L116,102l0.601,0.301l0.55,0.3l0.35,0.2l0.15,0.1l0.2,0.15l0.05,0.05l0.1,0.1
	l0.101,0.2l-0.05,0.1v0.15l-0.051,0.3l-0.3,0.5l-0.25,0.2l-0.2,0.15l-0.25,0.1l-0.199,0.05l-5.801-2.1l-1.449-0.55l-1.351-0.4
	l-1.25-0.4l-1.149-0.25L104.7,101l-0.95-0.149l-0.899-0.101h-0.75l-1.5,0.051l-1.3,0.25l-1.15,0.35l-0.5,0.25l-0.4,0.35l-0.8,0.65
	l-0.55,0.9L95.65,104l-0.15,0.551l-0.149,1.199l-0.101,0.7v0.9l0.051,1.1l0.149,1.4v0.45l0.05,0.5l0.101,0.85l0.35-0.15l-0.1,0.801
	l-0.05,0.75L95.75,113.7v0.55l-0.05,0.351v0.35v0.15v0.149l0.05,2.7l0.301,2.851l0.399,2.949l0.3,1.5l0.4,1.601l0.3,1.45l0.3,1.449
	l0.2,1.25l0.101,0.601l0.149,0.6l0.05,0.5l0.101,0.5v0.2v0.1v0.051l0.05,0.1l0.1,0.5v0.4l0.051,0.399v0.351l0.05,0.399v0.3l0.05,0.2
	l0.1,0.25v0.05l0.051,0.101v0.05l0.05,0.1l-0.05,0.101V137v0.25l-0.101,0.2l-0.05,0.101v0.149l-0.15,0.101l-0.1,0.149l-0.3,0.15
	l-0.2-0.15l-0.1-0.2l-0.2-0.3l-0.101-0.35L97.301,137l-0.2-0.149l-0.2-0.25l-0.2-0.3l-0.2-0.4l-0.199-0.45l-0.2-0.55l-0.101-0.6
	l-0.199-0.7l-0.15-0.75L95.45,132l-0.1-0.899l-0.2-1l-0.1-1.05l-0.2-1.15l-0.101-1.2l-0.25-2.45l-0.199-2.149l-0.101-0.95
	l-0.05-0.85l-0.1-1.45l-0.101-1.15l-0.05-0.45v-0.35l-0.05-0.35v-0.15v-0.15v-0.949l0.05-0.801l0.1-0.699l0.2-0.551l0.351-0.699
	l-0.2-2.851l-0.05-2.7v-1.25l0.149-1.149l0.2-1.05l0.35-0.9l0.351-0.85l0.55-0.75l0.6-0.65l0.75-0.5l0.75-0.55L98.9,99l0.95-0.25
	l1.1-0.149l1.15-0.15l1.25,0.05l1.35,0.101L106.2,98.851L106.2,98.851z M53.601,97.851h-0.05v-0.05L53.601,97.851L53.601,97.851z
	 M56.45,101.301l-0.35,0.199l-0.25,0.101H55.75l0.7-0.351V101.301L56.45,101.301z M80.801,120.5l0.149,0.15l0.101,0.9l0.199,1.1
	l0.2,1.2l0.3,1.399l0.15,1.101v0.25l0.05,0.3l0.101,0.6l0.1,1.051l0.1,1.1v1v0.5v0.25l0.051,0.3l-0.051,2l-0.149,0.9L82,135.051
	l-0.05,0.5l-0.399,1.8l-0.301,0.8l-0.149,0.4L81,139l-0.35,0.801l-0.2,0.399l-0.1,0.2l-0.05,0.1v0.15l-0.45,0.7l-0.5,0.7
	L78.75,142.7l-0.6,0.65l-0.4,0.25l-0.35,0.3l-0.4,0.25l-0.35,0.3l-0.85,0.5l-0.851,0.5l-1,0.4l-1.05,0.399l-1.1,0.301L71.2,146.7
	l-0.55,0.2L70,147l-0.6,0.15l-1.3,0.25l-0.7,0.05l-0.65,0.101l-1.399,0.199l-1.5,0.051H62.5l-1.35-0.101l-1.2-0.149l-1.2-0.25
	L57.65,147l-1.05-0.35l-0.9-0.45l-0.95-0.55l-0.8-0.6l-0.8-0.7l-0.65-0.75l-0.649-0.851l-0.55-0.899l-0.5-0.95l-0.351-1.05
	l-0.75-2.2l-0.3-1.05l-0.2-0.95l-0.3-1.85l-0.1-0.9v-0.8l-0.051-0.851l0.051-0.75l0.3-1.449l0.149-0.7l0.25-0.601l0.7-1.149
	l-0.25-0.05h-0.1l-0.05-0.101l0.1-0.05l0.1-0.15l0.25-0.1l0.351-0.2l0.45-0.149l0.449-0.25l0.65-0.25l0.65-0.301l0.85-0.25
	l0.85-0.399L55.45,124l1.05-0.399l1.2-0.351l2.351-0.899l2.449-0.75l2.5-0.65l2.551-0.55l2.55-0.55l2.649-0.351l2.7-0.3l2.8-0.149
	l1.45-0.101l0.351,0.65l0.3,0.399L80.801,120.5L80.801,120.5z M137.45,139.7v0.05l-2.399,0.801l1.3-0.5L137.45,139.7L137.45,139.7z
	 M137.45,139.9l-0.149,0.8l-0.4,1.05L137.45,139.9L137.45,139.9z M127.601,125.2l0.2,1.55l0.05,0.801v0.8l-0.05,0.399v0.45
	l-0.101,0.9l-0.2,0.85l-0.199,0.9l-0.351,0.8l-0.2,0.4l-0.1,0.199l-0.05,0.101v0.149l-0.45,0.801l-0.5,0.899l-0.55,0.601l-0.5,0.649
	L124,137l-0.3,0.25l-0.25,0.301l-0.7,0.449l-0.35,0.2l-0.3,0.25l-0.75,0.4l-0.7,0.399l-0.45,0.101l-0.399,0.149L119,139.801
	L118.101,140l-0.45,0.101l-0.4,0.149l-0.949,0.101l-0.5,0.05l-0.45,0.1l-1,0.051l-1,0.05l-1.101-0.05l-1-0.101l-0.949-0.149
	l-0.9-0.2l-1.75-0.601l-0.8-0.399l-0.7-0.4l-0.75-0.55l-0.65-0.55l-0.6-0.601l-0.55-0.649l-0.55-0.75l-0.45-0.8l-0.75-1.7
	l-0.45-1.25l-0.35-1.3l-0.25-1.351l-0.15-1.399l-0.05-1.15v-0.85v-0.551v-0.149l0.05-0.7l0.25-0.7l-0.15-0.1l-0.1-0.05l-0.05-0.101
	v-0.149v-0.25l0.1-0.45l0.4-0.351l0.649-0.3l1-0.25l1.2-0.25l1.5-0.2l1.75-0.149l2.101-0.05l0.55-0.051h0.35h0.55H112h0.75h0.851
	h1.85h1.05h1.15h2.55h1.351h1.55h1.1l0.9,0.15l0.35,0.05l0.3,0.101l0.25,0.149l0.2,0.2l0.2,0.3v0.2l-0.05,0.2v0.25l0.149,0.149
	l0.2,0.25l0.15,0.25l0.2,0.351l0.3,0.7l0.1,0.399L127.601,125.2L127.601,125.2z M94.75,144.601l0.051-0.5L95,143.7l0.301-0.35
	l0.5-0.25l0.55-0.25l0.75-0.101l0.85-0.05l1,0.05h0.9l0.85,0.101l0.7,0.1l0.65,0.15l0.399,0.149l0.351,0.2L103,143.7l0.101,0.3
	L103,144.4l-0.3,0.4l-0.5,0.3l-0.3,0.149l-0.3,0.2l-0.5,0.101l-0.5,0.149l-1.101,0.2l-0.699,0.05l-0.7,0.101h-0.75h-0.4h-0.2h-0.1
	h-0.05v0.05l-0.65-0.05l-0.3-0.101l-0.2-0.05l-0.25-0.15l-0.149-0.1l-0.2-0.3l-0.101-0.55v-0.15V144.601L94.75,144.601z"/>
<polygon fill-rule="evenodd" fill="#F8981D" points="55.851,101.601 56.101,101.5 56.45,101.301 56.45,101.25 55.75,101.601 
	55.851,101.601 "/>
<path fill-rule="evenodd" fill="#F8981D" d="M80.95,120.65l-0.149-0.15l-0.45-0.5l-0.3-0.399l-0.351-0.65l-1.45,0.101l-2.8,0.149
	l-2.7,0.3l-2.649,0.351l-2.55,0.55L65,120.95l-2.5,0.65l-2.449,0.75L57.7,123.25l-1.2,0.351L55.45,124l-0.95,0.351l-0.85,0.399
	l-0.85,0.25l-0.65,0.301l-0.65,0.25l-0.449,0.25l-0.45,0.149l-0.351,0.2l-0.25,0.1l-0.1,0.15l-0.1,0.05l0.05,0.101h0.1l0.25,0.05
	l-0.7,1.149l-0.25,0.601l-0.149,0.7l-0.3,1.449l-0.051,0.75l0.051,0.851v0.8l0.1,0.9l0.3,1.85l0.2,0.95l0.3,1.05l0.75,2.2
	l0.351,1.05l0.5,0.95l0.55,0.899l0.649,0.851l0.65,0.75l0.8,0.7l0.8,0.6l0.95,0.55l0.9,0.45l1.05,0.35l1.1,0.301l1.2,0.25l1.2,0.149
	l1.35,0.101h1.351l1.5-0.051l1.399-0.199l0.65-0.101l0.7-0.05l1.3-0.25L70,147l0.65-0.1l0.55-0.2l0.601-0.149l1.1-0.301l1.05-0.399
	l1-0.4l0.851-0.5l0.85-0.5l0.35-0.3l0.4-0.25l0.35-0.3l0.4-0.25l0.6-0.65l0.601-0.649l0.5-0.7l0.45-0.7v-0.15l0.05-0.1l0.1-0.2
	l0.2-0.399L81,139l0.101-0.449l0.149-0.4l0.301-0.8l0.399-1.8l0.05-0.5l0.101-0.45l0.149-0.9l0.051-2l-0.051-0.3v-0.25v-0.5v-1
	l-0.1-1.1l-0.1-1.051l-0.101-0.6l-0.05-0.3v-0.25l-0.15-1.101l-0.3-1.399l-0.2-1.2l-0.199-1.1L80.95,120.65L80.95,120.65z
	 M79.7,125.351l0.4,0.6l0.05,0.101l0.1,0.149l0.2,0.3l0.05,0.2l0.101,0.25V127l0.05,0.101l0.05,0.2v0.399l0.101,0.7l0.1,0.95
	l0.2,1.3l-0.05,0.55L81,131.5v0.4l-0.1,0.85l-0.1,1.051l-0.101,0.3h-0.05v0.05v0.1v0.2l-0.1,0.65l-0.2,1.1l-0.3,0.8l-0.2,0.601
	l-0.101-0.5l-0.25-0.5l-0.399-0.45l-0.5-0.4l0.2-0.85l0.25-0.65l0.199-0.649l0.2-0.45l0.101-0.45l0.149-0.35l0.101-0.3l0.1-0.15
	v-0.15v-0.199v-0.25V131v-0.899v-0.55l0.05-0.601l-0.1-1.8L79.7,125.351L79.7,125.351z M75.7,120.7v0.7l0.101,0.95l0.149,1.1
	l0.25,1.4l0.2,1.3v0.25l0.05,0.3l0.101,0.601l0.1,0.949v0.4v0.2v0.1V129l0.05,0.101l-0.05,0.2v0.25v0.5l-0.1,1l-0.2,0.899
	l-0.101,0.2l-0.05,0.1v0.15l-0.1,0.5l-0.2,0.4l-0.1,0.199l-0.051,0.101v0.149l-0.35,0.9l-0.45,0.8l-0.5,0.9l-0.5,0.55l-0.5,0.6
	L72.9,138l-0.5,0.551l-0.35,0.199L71.75,139l-0.6,0.45l-0.2,0.05l-0.149,0.101l-0.301,0.2l-0.649,0.399l-0.4,0.101l-0.2,0.05
	l-0.149,0.1l-0.75,0.3l-0.8,0.2l-0.801,0.2l-0.899,0.1h-0.25l-0.2,0.051l-0.4,0.1l-0.899,0.05l-0.9,0.05l-0.1-0.05h-0.05H62.95
	l-0.2-0.05h-0.149l-0.25-0.1l-0.101-0.051H62.2h-0.1l-0.3-0.1l-0.301-0.05l-0.649-0.2l-0.4-0.1l-0.3-0.101h-0.05l-1.3-0.1
	l-1.15-0.25l-1.1-0.45l-1-0.55l-1-0.8l-0.9-0.9l-0.85-1.1l-0.7-1.2l-0.9-1.851l-0.6-1.649l-0.4-1.55l-0.1-1.45v-0.25l0.149-0.2
	l0.2-0.25l0.351-0.2l0.35-0.3l0.5-0.25l0.55-0.3l0.75-0.25l0.7-0.351l0.85-0.3l0.95-0.35l1.05-0.3l1.051-0.4l1.25-0.3l1.25-0.4
	l1.449-0.3l1.45-0.45l1.601-0.399l1.649-0.45l1.8-0.4l1.75-0.5l1.9-0.45l4.05-0.899V120.7L75.7,120.7z"/>
<polygon fill-rule="evenodd" fill="#FFCD05" points="80.7,127.301 80.65,127.101 80.601,127 80.601,126.95 80.5,126.7 80.45,126.5 
	80.25,126.2 80.15,126.051 80.101,125.95 79.7,125.351 79.851,127.15 79.95,128.95 79.9,129.551 79.9,130.101 79.9,131 
	79.9,131.301 79.9,131.551 79.9,131.75 79.9,131.9 79.801,132.051 79.7,132.351 79.551,132.7 79.45,133.15 79.25,133.601 
	79.051,134.25 78.801,134.9 78.601,135.75 79.101,136.15 79.5,136.601 79.75,137.101 79.851,137.601 80.051,137 80.351,136.2 
	80.551,135.101 80.65,134.45 80.65,134.25 80.65,134.15 80.65,134.101 80.7,134.101 80.801,133.801 80.9,132.75 81,131.9 81,131.5 
	81.051,131.2 81.101,130.65 80.9,129.351 80.801,128.4 80.7,127.7 80.7,127.301 "/>
<polygon fill-rule="evenodd" fill="#FFCD05" points="76.2,124.851 75.95,123.45 75.801,122.351 75.7,121.4 75.7,120.7 75.7,120.601 
	71.65,121.5 69.75,121.95 68,122.45 66.2,122.851 64.551,123.301 62.95,123.7 61.5,124.15 60.051,124.45 58.801,124.851 
	57.551,125.15 56.5,125.551 55.45,125.851 54.5,126.2 53.65,126.5 52.95,126.851 52.2,127.101 51.65,127.4 51.15,127.65 
	50.801,127.95 50.45,128.15 50.25,128.4 50.101,128.601 50.101,128.851 50.2,130.301 50.601,131.851 51.2,133.5 52.101,135.351 
	52.801,136.551 53.65,137.65 54.551,138.551 55.551,139.351 56.551,139.9 57.65,140.351 58.801,140.601 60.101,140.7 60.15,140.7 
	60.45,140.801 60.851,140.9 61.5,141.101 61.801,141.15 62.101,141.25 62.2,141.25 62.25,141.25 62.351,141.301 62.601,141.4 
	62.75,141.4 62.95,141.45 63.051,141.45 63.101,141.45 63.2,141.5 64.101,141.45 65,141.4 65.4,141.301 65.601,141.25 
	65.851,141.25 66.75,141.15 67.551,140.95 68.351,140.75 69.101,140.45 69.25,140.351 69.45,140.301 69.851,140.2 70.5,139.801 
	70.801,139.601 70.95,139.5 71.15,139.45 71.75,139 72.051,138.75 72.4,138.551 72.9,138 73.45,137.5 73.95,136.9 74.45,136.351 
	74.95,135.45 75.4,134.65 75.75,133.75 75.75,133.601 75.801,133.5 75.9,133.301 76.101,132.9 76.2,132.4 76.2,132.25 76.25,132.15 
	76.351,131.95 76.551,131.051 76.65,130.051 76.65,129.551 76.65,129.301 76.7,129.101 76.65,129 76.65,128.95 76.65,128.851 
	76.65,128.65 76.65,128.25 76.551,127.301 76.45,126.7 76.4,126.4 76.4,126.15 76.2,124.851 "/>
<polygon fill-rule="evenodd" fill="#F8981D" points="137.45,139.75 137.45,139.7 136.351,140.051 135.051,140.551 137.45,139.75 "/>
<polygon fill-rule="evenodd" fill="#F8981D" points="137.301,140.7 137.45,139.9 136.9,141.75 137.301,140.7 "/>
<path fill-rule="evenodd" fill="#F8981D" d="M127.851,128.351v-0.8l-0.05-0.801l-0.2-1.55l-0.15-0.5l-0.1-0.399l-0.3-0.7l-0.2-0.351
	L126.7,123l-0.2-0.25l-0.149-0.149v-0.25l0.05-0.2v-0.2l-0.2-0.3l-0.2-0.2l-0.25-0.149l-0.3-0.101l-0.35-0.05l-0.9-0.15h-1.1h-1.55
	H120.2h-2.55h-1.15h-1.05h-1.85h-0.851H112h-1.25h-0.55h-0.35l-0.55,0.051l-2.101,0.05l-1.75,0.149l-1.5,0.2l-1.2,0.25l-1,0.25
	l-0.649,0.3l-0.4,0.351l-0.1,0.45v0.25v0.149l0.05,0.101l0.1,0.05l0.15,0.1l-0.25,0.7l-0.05,0.7v0.149v0.551v0.85l0.05,1.15
	l0.15,1.399l0.25,1.351l0.35,1.3l0.45,1.25l0.75,1.7l0.45,0.8l0.55,0.75l0.55,0.649l0.6,0.601l0.65,0.55l0.75,0.55l0.7,0.4
	l0.8,0.399l1.75,0.601l0.9,0.2l0.949,0.149l1,0.101l1.101,0.05l1-0.05l1-0.051l0.45-0.1l0.5-0.05l0.949-0.101l0.4-0.149l0.45-0.101
	l0.899-0.199l0.801-0.301l0.399-0.149l0.45-0.101l0.7-0.399l0.75-0.4l0.3-0.25l0.35-0.2l0.7-0.449l0.25-0.301L124,137l0.601-0.55
	l0.5-0.649l0.55-0.601l0.5-0.899l0.45-0.801v-0.149l0.05-0.101l0.1-0.199l0.2-0.4l0.351-0.8l0.199-0.9l0.2-0.85l0.101-0.9v-0.45
	L127.851,128.351L127.851,128.351z M120.45,123.851l0.9-0.05h0.85h0.75h0.7l0.15,0.55l0.1,0.399l0.2,0.551l0.2,0.699v0.15l0.05,0.2
	l0.1,0.399l0.101,0.7l0.05,0.8l-0.05,0.601l-0.101,0.649l-0.3,1.301l-0.5,1.199l-0.35,0.601l-0.2,0.3l-0.101,0.15l-0.05,0.199
	l-0.25,0.2l-0.2,0.25l-0.399,0.5l-0.45,0.4l-0.4,0.45l-0.3,0.149l-0.25,0.2l-0.5,0.35l-0.55,0.301l-0.3,0.149l-0.25,0.2l-0.65,0.2
	l-0.649,0.2l-0.7,0.149l-0.65,0.2l-0.8,0.1l-0.75,0.101l-0.8,0.05h-0.4h-0.2h-0.1l-0.05,0.05l-1.65-0.1l-1.45-0.2l-0.699-0.2
	l-0.601-0.149l-1.149-0.4l-1.051-0.65l-0.5-0.35l-0.399-0.35l-0.75-0.851l-0.55-0.899l-0.351-0.75l-0.2-0.7l-0.199-0.8l-0.101-0.801
	l-0.1-0.75V129v-0.399v-0.15l-0.2-1.05l-0.1-1.1l-0.101-1.2l-0.05-1.25l0.75-0.101l0.9-0.05l2-0.2l2.899-0.3l2.9-0.1h0.149h0.351
	h0.35l0.55,0.05h0.551l0.75,0.05l0.85,0.05l0.95,0.101l0.75,0.05l0.5,0.05l0.649,0.15h0.25h0.101h0.05l0.1,0.05l0.45,0.1h0.101h0.05
	l0.1,0.051h0.101h0.05L120.45,123.851L120.45,123.851z"/>
<path fill-rule="evenodd" fill="#FFCD05" d="M123.65,123.801h-0.7h-0.75h-0.85l-0.9,0.05l-0.1-0.05h-0.05H120.2l-0.1-0.051h-0.05
	h-0.101l-0.45-0.1l-0.1-0.05h-0.05h-0.101H119l-0.649-0.15l-0.5-0.05l-0.75-0.05l-0.95-0.101l-0.85-0.05l-0.75-0.05H114l-0.55-0.05
	h-0.35h-0.351h-0.149l-2.9,0.1l-2.899,0.3l-2,0.2l-0.9,0.05l-0.75,0.101l0.05,1.25l0.101,1.2l0.1,1.1l0.2,1.05v0.15V129v0.5
	l0.1,0.75l0.101,0.801l0.199,0.8l0.2,0.7l0.351,0.75l0.55,0.899l0.75,0.851l0.399,0.35l0.5,0.35l1.051,0.65l1.149,0.4l0.601,0.149
	l0.699,0.2l1.45,0.2l1.65,0.1l0.05-0.05h0.1h0.2h0.4l0.8-0.05l0.75-0.101l0.8-0.1l0.65-0.2l0.7-0.149l0.649-0.2l0.65-0.2l0.25-0.2
	l0.3-0.149l0.55-0.301l0.5-0.35l0.25-0.2l0.3-0.149l0.4-0.45l0.45-0.4l0.399-0.5l0.2-0.25l0.25-0.2l0.05-0.199l0.101-0.15l0.2-0.3
	l0.35-0.601l0.5-1.199l0.3-1.301l0.101-0.649l0.05-0.601l-0.05-0.8l-0.101-0.7l-0.1-0.399l-0.05-0.2V126l-0.2-0.699l-0.2-0.551
	l-0.1-0.399L123.65,123.801L123.65,123.801z M109.801,125.601h-0.051l0.101-0.2L109.801,125.601L109.801,125.601z"/>
<polygon fill-rule="evenodd" fill="#F8981D" points="98.95,142.75 97.95,142.7 97.101,142.75 96.351,142.851 95.801,143.101 
	95.301,143.351 95,143.7 94.801,144.101 94.75,144.601 94.75,144.65 94.75,144.801 94.851,145.351 95.051,145.65 95.2,145.75 
	95.45,145.9 95.65,145.95 95.95,146.051 96.601,146.101 96.601,146.051 96.65,146.051 96.75,146.051 96.95,146.051 97.351,146.051 
	98.101,146.051 98.801,145.95 99.5,145.9 100.601,145.7 101.101,145.551 101.601,145.45 101.9,145.25 102.2,145.101 102.7,144.801 
	103,144.4 103.101,144 103,143.7 102.801,143.45 102.45,143.25 102.051,143.101 101.4,142.95 100.7,142.851 99.851,142.75 
	98.95,142.75 "/>
<polygon fill-rule="evenodd" fill="#FFCD05" points="28.25,102.75 28.4,99.7 27.801,102.101 27.551,103.301 27.4,104.551 
	27.101,106.95 27,109.45 27.051,111.15 27.301,112.9 27.301,113.95 27.301,115 27.45,116 27.45,117.551 27.601,119.25 
	27.75,121.051 28.101,123 28.45,125.051 28.95,127.2 29.5,129.5 30.2,131.95 29.75,128.15 29.801,127.551 29.5,124.75 
	29.101,121.051 28.851,117.601 28.601,114.25 28.5,111.101 28.25,103.75 28.25,102.75 "/>
<polygon fill-rule="evenodd" fill="#FFCD05" points="30.45,142.601 30.551,142.7 30.45,142.351 30.45,142.601 "/>
<path fill-rule="evenodd" fill="#CB6928" d="M59.65,2.65l0.7,1.2l0.8,1.35l0.8,1.351l0.9,1.55l0.899,1.55l1,1.65l1,1.699
	l1.101,1.851l-3.7-0.2l-3.6,0.1L56,15l-3.399,0.5l-3.45,0.7l-3.3,0.9l-3.25,1.1l-3.15,1.3L36.301,21l-3.051,1.7l-3,1.9L27.4,26.75
	l-2.9,2.301l-2.75,2.6l-2.699,2.7l-2.601,3L14.5,39.7l-1.85,2.5l-1.7,2.55L9.4,47.5l-1.45,2.75l-1.35,2.95l-1.2,3.05l-1.05,3.15
	l-0.5,1.45L3.4,62.25l-0.45,1.301l-0.35,1.3L2.2,66l-0.35,1.101l-0.3,1.05l-0.25,1L1,70l-0.25,0.801l-0.199,0.75L0.4,72.25
	l-0.25,1.101l-0.1,0.45L0,74.2l0.551-0.6l0.75-0.65l0.75-0.7L3,71.551l1.101-1l1.05-0.95l1-0.9l0.95-0.8l0.85-0.8l0.851-0.7
	l0.75-0.7l0.75-0.6l1.199-1.15l0.551-0.5l0.5-0.399l0.399-0.4l0.351-0.3l0.3-0.3l0.3-0.2l-0.85,0.95l-0.75,1.05l-1.45,2.3L9.9,67.7
	l-0.85,1.75L8.2,71.2l-0.75,1.95l-0.75,1.95l-0.649,2.05l-0.601,2.15l-0.5,2.3L4.2,84.7l-0.6,3.15l-0.55,3.05L2.7,94l-0.35,3
	l-0.25,3.051L1.95,103v3L2,108.9l0.2,3l0.3,3.05l0.5,3.101l0.551,3.1l0.75,3.2l0.85,3.25l1.05,3.3l1.3,3.8l1.551,3.8l0.8,1.851
	l0.899,1.899l1.95,3.801l1.75,3.25l0.05-0.9l0.101-0.75l0.2-1.4l0.1-1.149l0.05-0.5l0.101-0.4l0.3-1.85l0.45-1.55l0.149,0.35
	l0.25,0.5l0.25,0.5l0.351,0.65l0.75,1.35L18,144.9l0.551,0.9l0.5,0.85l0.6,1l1.35,2.15l1.45,2.35l0.8,1.25l0.9,1.4l0.2,0.3
	l0.1,0.149l0.15,0.2l0.5,0.7l0.2,0.3l0.1,0.15l0.15,0.2l0.5,0.699l0.899,1.25l0.9,1.301l0.8,1.149l0.85,1.2l0.75,1.1l0.75,1.101
	l0.301,0.45l0.35,0.5l0.65,1l0.6,0.899l0.6,0.9l0.5,0.8l0.551,0.8l0.449,0.7l0.2,0.35l0.25,0.4l-0.3-2.4l-0.25-2.1l-0.2-2l-0.2-1.75
	l-0.199-1.6l-0.15-1.4l-0.1-1.25l-0.101-1l-0.3-2.05l-0.15-1.101l-0.1-1.05l-0.3-2.35L33,150.7l-0.05-0.6l-0.1-1.2l-0.101-0.95
	l-0.1-0.85l-0.25-1.9l-0.25-1.35l-0.15-1.05l-0.199-0.95l0.199,0.2l-0.35-3.65l-0.1-0.1l-0.15-1.4l-0.3-1.75l-0.25-1.8l-0.4-3.8
	l-0.35-3.15l-0.25-3l-0.25-2.85l-0.15-2.7l-0.2-2.65l-0.1-2.5l-0.1-2.35v-2.25L29,105.95l0.051-2.05l0.05-1.9l0.1-1.75l0.101-1.699
	L29.5,97l0.2-1.449l0.3-1.25l0.2,0.649l0.101,0.25l0.149,0.3l0.3,0.851l0.351,0.899l0.7,1.801l0.6,1.75l0.65,1.8l0.6-1.15l0.6-1
	l0.551-1l0.5-0.85L35.7,97.75l0.4-0.699l0.35-0.65l0.3-0.5l0.4,0.65l0.4,0.6l0.05,0.1l0.1,0.15l0.2,0.3l0.4,0.55l0.3,0.45l0.3,0.4
	L39,99.25l0.15,0.2l0.3,0.3l0.75-1.25l0.75-1.05l0.65-1.05l0.7-0.85l0.55-0.851l0.6-0.7l0.5-0.649l0.55-0.5l0.301,1.1l0.3,1.101
	l0.25,1l0.2,1l1.8-2.15l1.85-2l1.851-1.9L53,89.25l0.15,0.45l0.3,0.55l0.3,0.65l0.45,0.8l0.25,0.5l0.3,0.5l0.2,0.45l0.25,0.5
	l0.4,0.75v0.05l0.05,0.101l0.1,0.199l0.2,0.351l0.2,0.5l0.05,0.2L56.301,96l0.1,0.25v0.101l0.05,0.1L56.4,96.4l0.1-0.1l0.101-0.2
	l0.25-0.25l0.2-0.351l0.35-0.449l0.35-0.551l0.45-0.55l0.45-0.75l0.55-0.75l0.55-0.85l0.7-0.95l0.7-1.05l0.8-1.101l0.8-1.199
	l0.95-1.25l0.2,2.1l0.2,2.25l0.1,2.35l0.101,2.5L73.7,86.2l2.7,8.351V94.45l0.15-0.149l0.149-0.2l0.3-0.2l0.301-0.35L77.7,93.2
	l0.45-0.399l0.55-0.4l0.55-0.55l0.65-0.601l0.65-0.699l0.75-0.75l0.75-0.851l0.85-0.899l0.85-0.95l0.95-1.05l0.351,1.3l0.399,1.3
	l0.8,2.4l0.351,1.1L87,93.2l0.801,2l0.5-0.75l0.55-0.649l0.95-1.25l0.85-1.15l0.8-1l0.65-0.95L92.4,89l0.35-0.35l0.5-0.65l0.45-0.55
	l0.351,0.851l0.449,1l0.601,1.05l0.75,1.25l0.45,0.7l0.25,0.449l0.35,0.551l0.3,0.5l0.4,0.6l0.85,1.35l0.8-1l0.95-0.949l1-1l1.15-1
	l0.5-0.551l0.5-0.399l0.399-0.4l0.45-0.3l0.3-0.3l0.351-0.2l0.25-0.15l0.25-0.05l0.45,0.7l0.5,0.75l0.899,1.45l0.8,1.25l0.351,0.6
	l0.399,0.601l0.601,1l0.1,0.199l0.05,0.101l0.101,0.149l0.3,0.5l0.2,0.4l0.25,0.4l0.2,0.35l0.25,0.4l2.899-3.551l1.351-1.75
	l1.399-1.649l0.3,0.899l0.351,0.9l0.3,0.8l0.15,0.4l0.199,0.45l0.5,1.449l0.2,0.65l0.101,0.3v0.05l0.05,0.101l0.1,0.2l0.15-0.15
	l0.25-0.1l0.55-0.25l0.3-0.2l0.4-0.15l0.85-0.399l0.95-0.551l1.1-0.6l0.551-0.35l0.649-0.301l1.351-0.699l0.1,1.05l0.05,0.5
	l0.101,0.55l0.1,1l0.15,1l0.199,1.7l0.2,1.6l0.55-0.3l0.75-0.25l0.351-0.2l0.45-0.149L129.75,100l1-0.399l1.15-0.351l1.25-0.399
	l0.65-0.2l0.75-0.15l-0.101,0.351l-0.05,0.399l-0.1,0.75l-0.2,1.4l-0.3,1.25l-0.101,0.25l-0.05,0.3l-0.1,0.601l1.3-0.851l0.55-0.399
	l0.6-0.301l0.45-0.35l0.5-0.25l0.8-0.45l0.301-0.25l0.3-0.149l0.45-0.25l0.25-0.15l0.149-0.05v0.2l-0.1,0.5l-0.05,0.649l-0.15,0.75
	l-0.1,0.9l-0.051,0.95l0.051,0.899l1.399-0.399l1.7-0.4l0.9-0.25l1-0.2l2.199-0.399v0.25l0.101,0.35l0.1,0.45l0.101,0.55l0.05,0.65
	l0.1,0.75l0.101,0.85l0.1,0.95l0.1,1.85v0.851l0.051,0.899l-0.051,0.8v0.801h-0.05v0.05v0.1v0.2v0.4v0.8l-0.149,0.75l-0.15,0.95
	l-0.2,1.05l-0.2,1.25l-0.3,1.35l-0.3,1.55l-0.4,1.7l-0.399,1.9l-0.4,1.45l-0.399,1.399l-0.4,1.3l-0.35,1.301l-0.4,1.199l-0.4,1.15
	l-0.8,2.1l4.25-2.3l-4.05,7.95l-1.55,3l0.149,0.05l-1.149,3.25l-1.05,3.25l-0.851,2.55l-0.75,2.5l-0.75,2.4l-0.6,2.4l-0.601,2.25
	L134,165l-0.5,2.15l-0.399,2.1l2.149-3.05l1.051-1.45l1.05-1.35l1.899-2.65l0.9-1.25l0.95-1.149L142.75,156l0.801-1.1l0.8-1
	l1.399-1.95l1.351-1.75l1.149-1.649l0.551-0.75l0.55-0.65l0.45-0.7l0.449-0.6l0.851-1.05l0.649-0.95l0.601-0.75l0.2-0.351l0.25-0.25
	l0.399-0.35l-0.7,3l-0.3,1.45L151.95,148l-0.55,2.601L150.95,153l-0.45,2.101l-0.3,2l-0.3,1.7l-0.2,1.6l1.851-2.5l1.85-2.4
	l1.65-2.399l1.649-2.4l1.45-2.399l1.45-2.4l1.35-2.4l1.25-2.35l1.101-2.4l1.05-2.35l0.95-2.4l0.85-2.3l0.75-2.35l0.65-2.3
	l0.55-2.301l0.5-2.3l0.1-0.45v-0.149l0.05-0.101l0.101-0.199l0.1-0.5l0.15-0.5l0.2-1.15l0.1-0.65l0.15-0.6v-0.4v-0.199v-0.101
	l0.05-0.05l0.1-0.7v-0.399v-0.2V116l0.05-0.05l0.101-0.75l0.1-1.7l0.05-0.899l0.101-0.9v-1.95l-0.05-1.899l-0.15-1.9l-0.15-1.85
	l-0.3-1.9l-0.35-1.85l-0.45-1.851l-0.45-1.8l2.351,0.8l2.3,0.801l2.1,0.699l2,0.7v-2.3l-0.05-2.3l-0.1-1.2l-0.051-0.6V92.75
	l-0.199-2.3l-0.301-2.399l-0.35-2.4l-0.1-0.35L175.75,85l-0.1-0.6l-0.2-1.2L175,80.801l-0.6-2.551l-0.65-2.5l-0.399-1.3l-0.2-0.649
	L173,73.2l-0.8-2.55L171.301,68l-0.5-1.35l-0.45-1.3l-1.05-2.7L168.2,60l-1.25-2.75l-1.3-2.55l-1.35-2.55l-1.45-2.35l-1.55-2.351
	l-1.601-2.2l-1.649-2.149l-1.75-1.95l-1.9-1.95l-1.95-1.85l-2.05-1.75L148.351,34l-2.2-1.6l-2.25-1.45l-2.35-1.35l-2.351-1.25
	l21.75,5.3l-1.2-2.05l-1.3-1.851l-1.5-1.85l-1.649-1.7l-1.851-1.7l-2-1.55l-2.2-1.55l-2.35-1.35l-2.85-1.551l-2.9-1.399l-2.95-1.25
	l-3-1.101l-3.1-1L129,12.9l-3.149-0.75l-3.2-0.55l-1.7-0.3l-1.649-0.2l-3.351-0.351l-3.399-0.25l-3.45-0.05l-3.55,0.05l-1.801,0.051
	L102,10.7l-1.85,0.101L98.351,11l-3.65,0.45L94.15,11l-0.45-0.399l-0.75-0.8L92.301,8.95l-0.25-0.45L91.9,8.101l-0.35-0.95
	l-0.101-0.9l0.05-0.949l0.25-0.95l0.2-1L92.2,2.5l0.15-0.75l0.2-0.55l0.1-0.5l0.1-0.35l0.051-0.25L92.9,0l-2.05,0.45l-1.95,0.7
	l-1.85,0.9l-1.65,1.1l-1.65,1.3L82.301,6l-0.75,0.801L80.9,7.75l-1.25,2h-0.05h-0.05L79.45,9.7H79.4h-0.15l-0.3-0.1L78.65,9.5
	l-0.4-0.149L78,9.25L77.801,9.2L77.5,9.051L77.25,8.95l-0.6-0.25l-0.7-0.3l-0.7-0.25l-0.449-0.2l-0.4-0.149l-0.45-0.2l-0.399-0.15
	l-0.95-0.399l-0.5-0.2l-0.25-0.101l-0.2-0.05l-2.05-0.85l-1.851-0.75L66,4.45L64.45,3.9L63,3.4l-1.25-0.35l-1.149-0.25L59.65,2.65
	L59.65,2.65z M52.9,17.75l0.1-0.1h0.4l0.6-0.1h0.851l1-0.101l1.3-0.1l1.5-0.101l1.75-0.1l1.7-0.15l1.649-0.1l1.5-0.05h1.45h1.25
	l1.2,0.1l1.05,0.101l1,0.149l-0.85-1.75l-0.75-1.55l-0.7-1.4l-0.6-1.199L67.7,10.2l-0.45-0.85l-0.449-0.7L66.5,8.15l2.101,0.15
	l2.1,0.449l2.101,0.65l2.1,0.95l1.35,0.6l1.45,0.7l1.55,0.6l1.65,0.7l0.7-1.45l0.8-1.35l0.7-1.25l0.8-1.05l0.7-1L85.4,6l0.75-0.75
	l0.8-0.6l0.4-0.4l0.399-0.3l0.351-0.3l0.35-0.2L88.7,3.2l0.25-0.149l0.2-0.15l0.25-0.05l0.1-0.101h0.15l0.15,0.051l-0.051,0.05V3
	l-0.1,0.351L89.2,4.25l-0.25,1.101l-0.149,1.3L88.75,8.2V9l0.2,0.851l0.351,0.899l0.5,1l0.6,1l0.8,1.101l0.95,1.1l1.1,1.2l0.9-0.65
	l1.25-0.55l1.5-0.5l1.8-0.35l2-0.351l2.351-0.25l2.6-0.199l2.95-0.051l2.95-0.05l3,0.101l1.449,0.05l1.5,0.149l3,0.4l2.9,0.45
	l1.45,0.25l1.5,0.35l2.899,0.75l3,0.9l2.9,1l2.95,1.2l2.95,1.399l3,1.65l3,1.75l3,2l3.05,2.2l3.1,2.399l-1.95-0.45l-1.8-0.35
	l-1.75-0.35l-1.649-0.301l-1.65-0.3l-1.45-0.25l-1.45-0.25l-1.3-0.149l-1.35-0.2L140.7,27.5l-2.149-0.149l-1-0.05l-0.851,0.05
	l-0.85,0.05l-0.65,0.1l0.75,0.45l1.75,1l1.65,1l1.5,0.9l1.45,0.899l1.25,0.801l1.25,0.8l1.05,0.7l1,0.699l1.5,1.101l1.55,1.25
	l1.45,1.3l1.45,1.4l1.35,1.399l1.4,1.55l1.3,1.601l1.3,1.75l1.15,1.7l1.199,1.85l1.101,1.85l1.149,2l1,2l1.051,2.15l0.949,2.2
	l0.95,2.3l0.65,1.85l0.7,1.95l0.6,2.05l0.65,2.2l0.55,2.2l0.6,2.35L171,77.2l0.551,2.55l0.25,1.5l0.3,1.7l0.3,1.8l0.4,2.051
	l0.35,2.1l0.4,2.35l0.399,2.45l0.5,2.7l-0.35-0.2l-0.4-0.2l-0.45-0.199l-0.5-0.101l-1.199-0.399l-0.65-0.2l-0.7-0.15l-0.2-0.1
	l-0.149-0.101l-0.101-0.05h-0.05l-0.25-0.1l-0.3-0.101l-0.2-0.1l-0.1-0.05h-0.05l-0.351-0.101l-1-0.399l-0.3-0.15l-0.25-0.1
	l-0.55-0.2l-0.65-0.3l-0.7-0.25l-0.75-0.3l-0.399-0.15l-0.351-0.1L164.25,95l0.301,1.301l0.05,0.3l0.1,0.35l0.2,0.7l0.55,2.6
	l0.55,2.601l0.15,1.2l0.2,1.25l0.149,1.199l0.2,1.25l0.25,2.4l0.15,2.4L167,114.9l-0.1,1.25l-0.1,1.35l-0.2,1.301l-0.25,1.399
	l-0.3,1.45l-0.301,1.55l-0.449,1.5l-0.45,1.601l-0.5,1.6l-0.5,1.7l-1.3,3.45l-0.7,1.8l-0.7,1.899l-0.8,1.75l-0.75,1.75l-0.7,1.551
	l-0.65,1.55l-0.649,1.35L157,145.95l-0.55,1.15l-0.5,1.1l-0.5,0.851L155,149.9l-0.399,0.7l-0.351,0.649l-0.35,0.45l-0.3,0.4
	l-0.25,0.25l-0.2,0.2l1.05-13l-0.25-0.25l-0.399,0.35l-0.45,0.55l-0.55,0.65l-0.601,0.75l-0.75,0.85l-0.8,1l-0.9,1.05l-0.949,1.25
	L147.45,147l-1.149,1.45l-1.25,1.55l-1.301,1.65l-1.449,1.75l-1.5,1.9l-1.601,1.949l-1.649,2.15l0.05-0.35l0.149-0.4l0.15-0.5
	l0.2-0.55l-0.25,0.899l1.2-2.899l1.149-2.75l1.101-2.65l1.1-2.5l0.95-2.45l0.45-1.199l0.5-1.101l0.899-2.149l0.9-2.051l0.75-1.949
	l0.75-1.851l0.7-1.75l0.649-1.55l0.55-1.55l0.5-1.351l0.45-1.25l0.2-0.6l0.25-0.5l-1.65,1.25l-1.649,1.45l-1.7,1.55l-1.75,1.65
	l0.7-1.7l0.7-1.7l0.6-1.75l0.6-1.7l0.5-1.8l0.45-1.8l0.05-0.5l0.101-0.45l0.2-0.9l0.35-1.8l0.2-1.85l0.2-1.7l0.05-0.85l0.1-0.75
	l0.15-1.45l0.05-1.351v-0.649l0.05-0.55l-0.05-0.601v-0.5l-0.05-0.95l-0.3-1.8l-0.2-1.6l-0.3-1.5l-0.2-1.3l-1.45,0.25l-1.6,0.3
	l-1.801,0.3l-2,0.4l0.45-1.65l0.2-0.75l0.25-0.65l0.1-0.649l0.15-0.55l0.1-0.551l0.15-0.449v-0.45L142.7,96l-0.05-0.35V95.4
	l-0.1-0.25L142.45,95l-0.149-0.149l-0.101-0.05l-0.25-0.101h-0.2l-0.25,0.05l-0.25,0.15l-0.35,0.15l-0.3,0.25l-0.4,0.25l-0.35,0.35
	l-0.45,0.35l-0.45,0.45l-0.5,0.45L138,97.7l-0.6,0.55l-0.55,0.65l-0.601,0.65l-0.55,0.75l1.75-5.4l-0.95,0.45l-0.949,0.5l-1.051,0.5
	l-1.149,0.55l-1.3,0.5L130.7,98l-1.45,0.601l-1.55,0.6v-0.45l0.05-0.399l0.101-0.8v-0.9v-0.85l-0.101-0.95l-0.05-0.9l-0.3-1.899
	l-0.2-0.801l-0.2-0.6l-1.399,0.65L124,92.15l-0.899,0.4l-0.9,0.5l-2,1.05l-0.8-1.75l-0.7-1.65l-0.649-1.55l-0.551-1.35l-1.149,1.1
	l-1.05,1.05l-1,0.95l-0.851,0.85l-0.85,0.7l-0.7,0.65l-0.65,0.55l-0.55,0.45l-2.45-5.4L108,88.2l-0.199-0.5l-0.4-1.1l-0.1-0.2
	l-0.051-0.1V86.25l-0.1-0.3l-0.2-0.649l-0.399-1.45l-1.45,1.25l-1.351,1.2l-0.649,0.5l-0.55,0.55l-1.051,1l-0.949,0.8l-0.851,0.7
	l-0.399,0.25L99,90.4l-0.55,0.5l-1.1-1.45l-0.55-0.8l-0.5-0.75l-0.601-0.85l-0.55-0.801l-1.1-1.75L93.7,83.851l-0.55,0.6l-0.55,0.7
	l-1.2,1.45l-1.35,1.55l-0.7,0.8l-0.7,0.9l-3.8-8.3l-0.75,0.699L83.45,83l-1.25,1.4l-1.149,1.2l-0.95,1.149l-0.5,0.45l-0.4,0.5
	l-0.75,0.851l-0.35,0.3l-0.25,0.35l-0.45,0.601l-0.45-1.5l-0.35-1.351l-0.3-1.2l-0.2-1.05l-0.2-0.95l-0.1-0.75L75.7,82.4v-0.45
	l-0.45,0.15l-0.5,0.3l-0.55,0.35l-0.6,0.5l-0.7,0.5l-0.75,0.65l-0.8,0.7L70.5,85.95l-1.25,1.15l-1.149,1.1l-1.05,1l-0.851,1
	l-0.1-1.55l-0.05-1.35l-0.101-1.25V85l-0.1-0.949l-0.101-0.75l-0.1-0.65V82.2l-0.95,0.95l-1,1.05l-1.05,1.101l-1.05,1.199l-1.15,1.2
	l-1.2,1.3L58,90.351l-1.3,1.45l-0.6-1.25l-0.55-1.051l-0.95-1.85l-0.45-0.85l-0.35-0.7l-0.351-0.65l-0.25-0.5l-0.3,0.2l-0.25,0.3
	l-0.6,0.65l-0.4,0.35l-0.35,0.45l-0.75,0.95l-0.5,0.45l-0.45,0.55L48.65,90l-1.05,1.25l-1.15,1.45l-0.149-0.399L46.2,91.9L46,91
	l-0.3-1.05l-0.3-1.2l-1,1l-0.85,0.95L42.7,91.551l-0.649,0.8l-0.551,0.5l-0.449,0.5l-0.4,0.45l-0.3,0.449L40,94.601l-0.199,0.35
	l-0.2,0.25L39.5,95.5l-0.25-0.449L39.051,94.7l-0.2-0.35l-0.15-0.3l-0.1-0.25L38.45,93.5l-0.1-0.25l-0.2-0.399l-0.1-0.2L38,92.551
	V92.5l-0.199-0.449l-0.15-0.4l-0.4-0.95l-0.399-1.05L33.2,98.5l-0.5-1.449l-0.45-1.2l-0.399-1.101l-0.3-0.85l-0.101-0.2l-0.05-0.1
	v-0.05L31.2,93.2l-0.1-0.149l-0.05-0.101l-0.101-0.2l-0.149-0.3L30.7,92.2l-0.399-0.649l-0.4-0.75l-0.1-0.15l-0.051-0.1l-0.1-0.2
	l-0.2-0.4l-0.5-0.85l-0.8,2l-0.65,2.05l-0.55,2L26.5,97.2l-0.35,1.9l-0.25,1.95l-0.15,1.899l-0.05,1.95l-0.05,3.6v3.4v3.25l0.1,3.1
	v0.801l0.051,1l0.1,1.149l0.2,1.4l0.149,1.5l0.25,1.8l0.25,1.9l0.351,2.149l0.3,2.25l0.4,2.5l0.399,2.601l0.5,2.85l0.45,3l0.55,3.2
	l0.601,3.35l0.649,3.601l0.2,1.05l0.2,1.3l0.1,0.6l0.05,0.301l0.101,0.35l0.2,1.15l0.199,1.05l0.101,0.95l0.05,0.399l0.1,0.45
	l0.101,0.75l0.1,0.75l-0.95-1.65l-0.85-1.449l-0.85-1.351l-0.7-1.25l-0.7-1.25l-0.6-1.05l-0.601-0.95l-0.45-0.85l-0.5-0.851
	l-0.35-0.649l-0.35-0.55l-0.25-0.45l-0.25-0.45l-0.15-0.25l-0.1-0.15v-0.05l-2.351-3.85l-1.149-1.8l-1.051-1.65l-1.1-1.65l-1-1.5
	l-1-1.449l-0.95-1.351l-0.55,1.25l-0.4,1.25l-0.399,1.05l-0.3,1.051l-0.301,0.85l-0.199,0.85l-0.2,0.75l-0.101,0.65l-1.55-3.3
	l-1.35-3.5L10.15,135l-0.6-1.899l-1.15-3.9l-0.85-3.2l-0.4-1.649l-0.3-1.601l-0.55-3.449l-0.45-3.5l-0.351-3.7l-0.25-3.75l-0.1-1.95
	v-1.95l0.05-3.95l0.15-4.1l0.5-4l0.7-3.95l1.05-3.85l1.25-3.9l1.6-3.8l1.8-3.75l2.15-3.65l1.05-1.85l1.05-1.7l1-1.7l1-1.55l0.9-1.55
	l0.9-1.4l0.8-1.35l0.85-1.2l0.7-1.25l0.75-1.05l0.65-1.05l0.699-0.9l0.551-0.899l0.6-0.75l0.5-0.75L26.9,50l1.75-2.35l1.85-2.2
	l1.851-2.05l1.95-1.9l2.3-2.05v-0.149l-0.05-0.051L36.4,39.2l-0.15,0.05l-0.3,0.051l-0.3,0.199l-0.4,0.2L34.851,40l-0.55,0.301
	L33.7,40.7l-0.649,0.4l-0.7,0.5l-0.8,0.5L30.7,42.7l-0.95,0.65l-0.949,0.75l-4.051,2.95l-1.949,1.55L20.95,50.25l-1.899,1.601
	l-1.801,1.7l-3.449,3.6l-1.75,1.75l-1.601,1.65l-1.55,1.55l-1.4,1.55l-1.399,1.4l-1.3,1.35l-1.25,1.25l-1.101,1.2l0.2-0.55l0.3-0.65
	l0.351-0.7L3.75,66.2l0.45-0.899l0.5-0.95l0.55-1.05L5.9,62.2l0.6-1.25l0.7-1.3l0.75-1.4l0.8-1.449L9.551,55.2l0.899-1.649
	l0.95-1.75l1.05-1.75l2.05-3.7l2.2-3.45l1.101-1.7l1.199-1.6l1.2-1.55l1.3-1.45l1.25-1.5l1.351-1.4l2.75-2.649l2.85-2.5l3.05-2.2
	L34.7,25l2.101-1.25l2.25-1.199L41.45,21.5l2.5-1.05l2.65-0.899l2.75-0.9l2.95-0.75L52.9,17.75L52.9,17.75z"/>
<polygon fill-rule="evenodd" fill="#CB6928" points="73.851,17.45 73.601,17.801 72.601,18.051 72.25,18.5 71.95,19.051 71.25,20.4 
	70.45,21.95 69.65,23.851 69.101,24.9 68.7,25.95 68.351,26.851 68.101,27.7 67.851,28.4 67.7,29.051 67.601,29.601 67.601,30.051 
	67.601,30.75 67.601,31.301 67.601,31.7 67.65,31.9 67.851,32.5 67.9,32.351 68.101,32.2 68.301,31.95 68.65,31.601 69,31.15 
	69.45,30.65 69.95,30.101 70.551,29.45 71.051,29.101 71.7,28.7 72.4,28.25 73.25,27.75 74.101,27.101 75.101,26.4 76.15,25.65 
	77.351,24.851 78.4,24 79.4,23.25 80.25,22.551 81.101,21.95 81.351,21.95 81.851,22 82.351,22.15 82.851,22.4 83.45,22.801 
	83.95,23.25 84.5,23.851 85,24.551 85.601,25.4 86.15,26.301 86.851,27.351 87.551,28.5 88.351,29.75 89.551,27.551 90.75,25.5 
	90.851,25.101 91,24.7 91.2,23.75 91.301,22.65 91.301,22 91.301,21.65 91.351,21.351 91.301,20.65 91.2,20.101 91,19.551 
	90.801,19.15 90.351,18.5 90.101,18.051 89.9,17.7 89.851,17.551 88.351,17.551 88.351,17.7 88.351,18.051 88.45,19 88.5,19.551 
	88.601,20.301 88.7,21.15 88.851,22.101 88.851,22.7 88.9,23.301 88.9,23.851 88.95,24.45 88.851,24.9 88.801,25.4 88.7,25.851 
	88.601,26.301 88.101,26.301 86.551,24.15 85.851,23.2 85.2,22.45 84.551,21.7 84,21.101 83.051,20.15 83.25,19.75 83.351,19.5 
	83.301,19.101 83.301,18.801 83.25,18.551 83.25,18.4 83.15,18.101 83.101,18.051 83.101,18.101 82.851,18.5 79,20.25 75.25,22.301 
	73.601,23.301 72.25,24.301 71.15,25.2 70.7,25.65 70.351,26.15 70.45,25.801 70.65,25.45 71.101,24.65 71.65,23.7 72.4,22.65 
	72.75,21.95 73.101,21.351 73.4,20.801 73.65,20.351 73.801,19.851 73.95,19.45 74.051,19.101 74.101,18.801 74.051,18.15 74,17.9 
	74,17.75 73.9,17.45 73.851,17.4 73.851,17.45 "/>
<polygon fill-rule="evenodd" fill="#010101" points="145.45,52.101 145.601,52 145.101,51.551 144.65,51.15 143.7,50.351 
	143.101,49.95 144.25,50.9 145.45,52.101 "/>
<polygon fill-rule="evenodd" fill="#F26822" points="145.601,52 145.45,52.101 146.25,53.051 147.101,54.101 147.9,55.25 
	148.801,56.5 149.601,57.75 150.4,59.2 151.2,60.7 152.051,62.351 152.5,63.351 152.7,63.851 152.801,64.101 152.95,64.4 
	153.351,65.351 153.801,66.351 154.15,67.25 154.5,68.15 154.801,69 154.95,69.4 155.15,69.851 155.351,70.601 155.551,71.351 
	155.7,72.051 155.9,72.75 156,73.351 156.101,73.95 156.101,74.2 156.15,74.5 156.15,74.75 156.2,75.051 156.2,75.95 156.2,76.801 
	156.2,77.551 156.25,78.2 156.25,78.75 156.301,79.2 156.351,79.551 156.45,79.851 155.601,77.9 154.851,76.301 154.101,74.9 
	153.45,73.801 152.851,72.9 152.25,72.15 151.601,71.4 151,70.75 150.25,70.101 149.551,69.551 148.801,69 148.051,68.601 
	148.15,69.15 148.301,69.801 148.301,70.051 148.351,70.351 148.45,70.95 148.65,72.101 148.7,72.601 148.801,73.15 148.95,74.25 
	149,75.25 149.051,76.25 149.051,77.15 149.101,78.051 149,79.7 148.9,80.45 148.851,81.25 148.65,82.7 148.45,84.101 
	148.601,83.601 148.7,83.301 148.9,82.95 149.2,82.051 149.4,81.551 149.65,81 150,79.851 150.101,79.301 150.25,78.851 150.4,77.9 
	150.45,77.15 150.4,77.051 150.4,77 150.4,76.9 150.4,76.7 150.4,76.25 150.351,75.75 150.351,75.2 150.25,73.9 150.2,73.2 
	150.2,72.5 150.75,72.95 151.351,73.601 152.2,74.65 152.601,75.25 153.051,75.95 153.801,77.4 154.551,79.051 154.551,79.15 
	154.65,79.45 154.801,79.95 155.101,80.75 155.351,81.65 155.75,82.75 156.15,84.051 156.7,85.601 157.051,82.95 157.15,81.65 
	157.301,80.45 157.351,79.2 157.4,78.051 157.45,75.801 157.301,73.65 157.101,71.601 156.9,70.601 156.75,69.7 156.301,67.95 
	155.5,65.75 154.551,63.65 153.45,61.551 152.2,59.551 150.75,57.551 149.2,55.65 147.45,53.801 145.601,52 "/>
<polygon fill-rule="evenodd" fill="#F26822" points="50.351,39.851 50.4,39.75 49.551,40.75 48.75,42 47.95,43.5 47.15,45.2 
	46.351,47.101 45.601,49.2 44.851,51.5 44.15,54.101 43.5,56.4 42.95,58.5 42.45,60.4 42.25,61.301 42.101,62.15 41.75,63.65 
	41.601,64.95 41.45,66.051 41.45,66.551 41.45,67 41.351,68.101 41.2,69.2 41.551,68.601 41.601,68.601 41.601,68.5 41.7,68.351 
	42.051,67.7 42.5,67.051 43,66.351 43.601,65.601 45.2,63.25 46.801,61.051 48.301,59 49.801,57.101 51.2,55.301 52.601,53.7 
	53.9,52.2 55.2,50.9 55.2,52.551 55.2,54.101 55.2,55.551 55.2,56.9 55.2,58.101 55.25,59.25 55.25,60.301 55.351,61.25 55.45,64 
	55.7,66.7 56,69.2 56.45,71.601 65.45,55.75 64.65,56.101 63.9,56.65 63.101,57.25 62.4,58 61.601,58.851 60.9,59.801 
	60.101,60.851 59.4,62 58.851,62.75 58.45,63.5 58.101,64.101 57.851,64.65 57.65,62.7 57.5,60.75 57.4,58.7 57.351,56.551 
	57.301,54.301 57.301,52 57.351,49.65 57.45,47.2 57,47.351 56.601,47.601 56.101,47.851 55.65,48.2 55.101,48.551 54.601,49 
	54.051,49.45 53.551,50.051 52.9,50.601 52.301,51.25 51.65,51.9 51.051,52.7 49.65,54.301 48.9,55.2 48.2,56.2 46.95,57.7 
	46.4,58.351 45.95,59 45.45,59.551 45.051,60.101 44.7,60.601 44.45,61.101 45.95,55.5 46.301,53.551 46.801,51.551 47.4,49.45 
	48.15,47.301 48.45,46.2 48.801,45.25 49.101,44.301 49.4,43.551 49.601,42.801 49.851,42.15 50.051,41.601 50.25,41.15 
	50.301,40.7 50.4,40.351 50.45,40.051 50.5,39.9 50.45,39.75 50.45,39.7 50.4,39.7 50.351,39.851 "/>
<polygon fill-rule="evenodd" fill="#010101" points="153.95,139.301 154.2,139.551 154,139.25 153.95,139.301 "/>
<polygon fill-rule="evenodd" fill="#F8981D" points="76.801,148.101 76.601,148.15 76.2,148.2 75.9,148.351 75.351,148.851 
	74.9,149.45 74.551,150.351 74.351,150.9 74.2,151.65 74,152.5 73.801,153.551 73.95,153.351 74.25,153.101 74.551,152.7 
	74.95,152.2 75.351,151.5 75.851,150.7 76.351,149.75 77,148.75 76.95,148.45 76.95,148.25 76.851,148.101 76.801,148.101 "/>
<path fill-rule="evenodd" fill="#F8981D" d="M85.7,151.75l-0.899-0.05h-0.75l-0.7-0.1l-0.601-0.05l-0.6-0.15l-0.45-0.1L81,151
	l-0.699-0.35l-0.65-0.25l-0.75-0.15h-0.7l-0.6,0.051l-0.5,0.149l-0.5,0.2v0.6L77,151.5l0.551,0.4l0.6,0.5l0.75,0.7l0.3,0.1l0.4,0.15
	l0.399,0.1l0.5,0.15l1.051,0.2l1.3,0.199l1.399,0.101l0.75,0.05l0.851,0.1l1.75,0.051h0.95l1.05,0.05l0.55-0.05h0.7l1.5-0.101
	l1.7-0.2l0.899-0.149l1-0.101l1-0.199l1.101-0.15l2.3-0.4l1.2-0.25l1.3-0.199l2.75-0.5l1.45-0.351l1.449-0.3l1.301-0.3l1.25-0.2
	l-0.601,0.9l-0.6,1.1l-0.601,1.2l-0.6,1.399l-0.35,0.7L108,157l-0.6,1.65l-0.6,1.8l-0.601,1.95l-2.3,0.5l-2.3,0.45l-1.2,0.149
	l-1.15,0.2l-2.3,0.351l-1.25,0.1l-1.2,0.15l-2.399,0.199l-2.45,0.101H88.4l-1.2,0.05l-3.899-0.1l-3.75-0.25L79,164.15l0.051,0.1
	l-3.2-0.449l-3.15-0.5l-3.1-0.65l-3.05-0.75l-3.051-0.95l-3-1l-3-1.149l-2.899-1.25l-2.95-1.45l-2.9-1.5l-2.899-1.7l-2.8-1.75
	L40.2,149.2l-2.75-2l-2.75-2.149l-2.7-2.25l0.15,1.05l0.25,1.35l0.25,1.9l2.4,2.2l2.5,2.149l2.55,2l2.649,1.95l2.601,1.7l2.75,1.649
	l2.75,1.5l2.85,1.45l2.851,1.25l2.949,1.15l2.95,1l3.05,0.95l3.051,0.75L71.7,167.5l3.15,0.5l3.3,0.45l0.45,0.65l0.55,0.85l0.6,0.95
	l0.75,1.05l0.551,0.8l0.6,0.75l0.5,0.7l0.6,0.65l0.5,0.55l0.5,0.5l0.45,0.4l0.5,0.399l0.45,0.55l0.6,0.5l0.601,0.4l0.75,0.35
	l0.75,0.25l0.85,0.2l0.9,0.15l1,0.05l1.1-0.1l1.15-0.301l1.2-0.5l1.3-0.699l1.25-0.9l1.35-1.1l1.4-1.301l1.45-1.5l1.5-1.75
	l0.649-0.8l0.601-0.7l0.5-0.699l0.449-0.601l0.4-0.6l0.35-0.5l2.2-0.55l2.25-0.601l2.15-0.7l2.2-0.699l2.1-0.801l0.5-0.25
	l0.55-0.199l1.101-0.4l2.1-0.95l2.1-0.95l2-1.1l2-1.1l1.95-1.2l2-1.25l1.9-1.351l0.95-0.699l1-0.65l0.899-0.75l0.95-0.7l1.9-1.5
	l1.05-3.25l1.149-3.25l-0.149-0.05l1.55-3l-0.5,0.4l-0.4,0.449l-0.399,0.351l-0.3,0.399l-1.851,1.7l-1.8,1.65l-1.9,1.6l-0.5,0.351
	l-0.449,0.399l-0.9,0.8l-1,0.7l-0.5,0.351l-0.45,0.399l-1.95,1.4l-2,1.3l-1,0.6l-0.5,0.301L125,154.45l-0.199,0.2l-2.101,1.15
	l-2.05,1.1l-2.1,1l-2.101,1l-2.2,0.85l-2.149,0.801L111.5,160.7l-0.55,0.2l-1.1,0.4l-2.2,0.699l0.25-0.6l0.3-0.65l0.7-1.399
	l0.75-1.7l0.4-0.9l0.5-0.949l0.399-1l0.4-0.851l0.3-0.85l0.35-0.65l0.25-0.649l0.25-0.5l0.15-0.45l0.2-0.351l0.85-0.3l0.8-0.2
	l0.65-0.199l0.55-0.2l0.4-0.2l0.35-0.15l0.15-0.1l0.1-0.1l-0.05-0.301v-0.199l-0.1-0.15l-0.15,0.05l-0.3-0.1l-0.351-0.05h-0.449
	h-0.5h-1.2l-0.7,0.05l-0.75,0.1l-0.85,0.05l-0.9,0.101l-2,0.3l-2.3,0.3l-1.25,0.2l-1.3,0.25l-1.601,0.2l-1.45,0.25l-1.449,0.2
	l-1.351,0.25l-1.35,0.149l-1.25,0.2l-2.3,0.3l-2.15,0.2l-1.9,0.2l-1.649,0.1h-0.75L85.7,151.75L85.7,151.75z M85.15,169.4l-0.35-0.5
	l2.55,0.05l3.399-0.05l-0.1,0.2l-0.75,1.2l-0.55,1.1l-0.5,0.9L88.5,173l-0.25-0.199l-0.199-0.15l-0.4-0.3l-0.8-0.8l-0.9-1
	L85.15,169.4L85.15,169.4z M92.9,173.25l0.45-0.75l0.45-0.649l0.399-0.65l0.4-0.55l0.25-0.6l0.25-0.5l0.2-0.5l0.149-0.45l4.4-0.55
	l-1.15,0.899l-1,0.851l-1,0.75l-0.85,0.75L95,171.851l-0.75,0.55l-0.75,0.45L92.9,173.25L92.9,173.25z"/>
<polygon fill-rule="evenodd" fill="#CB6928" points="95.95,97.5 94.801,98.301 94.301,98.7 93.9,99.15 93.2,99.95 92.7,100.851 
	92.301,101.65 92.2,102.551 92.2,103.351 92.5,104.25 92.7,107.301 92.9,110.25 93.101,113.051 93.351,115.75 93.551,118.25 
	93.801,120.65 94,122.9 94.301,125.051 94.65,128.051 95.101,131.351 95.601,134.851 96.2,138.65 97.051,138.601 98.15,138.45 
	99.051,138.4 99.65,138.351 99.9,138.351 100.101,138.351 100.601,138.4 101.101,138.601 101.601,138.9 102.101,139.351 
	102.5,139.851 102.851,140.4 103,140.9 103.101,141.5 103,142.101 102.9,142.351 102.851,142.65 102.65,142.851 102.551,142.95 
	102.5,142.95 102.5,143 102.5,143.101 102.301,143.301 102.2,143.4 102.15,143.4 102.15,143.45 102.15,143.551 101.851,143.65 
	101.75,143.65 101.7,143.65 101.7,143.7 101.601,143.801 101.301,143.9 101,144.051 100.601,144.101 100.25,144.2 99.851,144.2 
	99.45,144.25 98.7,144.2 98.051,144.2 97.5,144.2 97.051,144.2 97,144.25 97,144.551 97,144.801 97,145 97.101,145.15 97.2,145.25 
	97.4,145.4 97.95,145.65 98.25,145.7 98.65,145.801 99.601,145.851 100.2,145.801 100.801,145.75 101.301,145.601 101.851,145.5 
	102.051,145.351 102.301,145.25 102.75,145.051 103.101,144.75 103.5,144.45 103.9,143.851 103.95,143.65 104.051,143.5 
	104.25,143.2 104.301,142.801 104.4,142.45 104.45,142.051 104.45,141.851 104.45,141.75 104.45,141.7 104.5,141.7 104.4,140.851 
	104.25,140.101 103.9,139.4 103.5,138.851 102.9,138.301 102.25,137.9 101.4,137.551 100.5,137.351 99.75,137.2 99.051,137.15 
	98.4,137.2 97.851,137.351 97.75,137.15 97.7,137.051 97.7,137 97.601,136.65 97.4,135.9 97.2,135.051 97,134.101 96.851,133.5 
	96.75,132.95 96.551,131.801 96.45,131.45 96.4,131.15 96.301,130.551 96.101,129.2 95.7,126.851 95.4,124.801 95.2,123.45 
	95.051,122.301 94.9,121.25 94.851,120.301 94.7,118.75 94.601,117.351 94.5,116 94.45,114.851 94.351,114.15 94.351,113.25 
	94.351,112.15 94.4,110.95 94.45,109.45 94.551,107.851 94.65,106.051 94.801,104.051 94.9,103 95.25,102.15 95.75,101.4 
	96.45,100.75 97.25,100.2 98.301,99.75 99.5,99.4 100.95,99.25 102.45,99.101 104.2,99.15 106.101,99.301 108.25,99.601 
	110.5,99.95 111.7,100.15 113,100.45 114.25,100.7 115.601,101.051 118.45,101.801 116.2,100.851 114.15,100.051 112.101,99.301 
	110.25,98.65 108.45,98.051 106.801,97.601 105.25,97.15 103.801,96.9 102.45,96.65 101.2,96.5 100.051,96.45 99,96.5 
	98.051,96.551 97.25,96.801 96.5,97.051 95.95,97.5 "/>
<path fill-rule="evenodd" fill="#ED2224" d="M104.301,113.5l-0.7,0.551l-0.65,0.55l-0.45,0.649l-0.35,0.7l-0.25,0.851l-0.15,0.85
	l-0.05,1l0.101,1.05l0.25,1.15l0.3,1.05l0.5,1.2l0.6,1.2l0.851,1.35l1,1.45l1.25,1.55l1.3,1.55l1.6,1.75l1.7,1.75l1.95,1.95
	l1.45-1.6l1.399-1.551l1.351-1.55l1.3-1.5l1.149-1.5l1.15-1.399l1.05-1.4l1-1.35l0.7-1.351l0.3-0.649l0.25-0.601l0.3-1.2l0.101-0.6
	l0.05-0.55l-0.05-0.601l-0.101-0.55l-0.3-1.05l-0.6-1.05l-0.351-0.5l-0.399-0.45l-0.2-0.2l-0.9-0.75l-0.449-0.3l-0.4-0.2l-0.5-0.2
	l-0.45-0.05h-0.899H118.5l-0.5,0.15l-1,0.399l-1.1,0.65l-0.55,0.4l-0.5,0.5l-1,0.85l-0.95,1.05l-0.7-0.85l-0.649-0.65l-0.95-0.899
	l-0.9-0.65l-0.899-0.55l-0.851-0.3l-1-0.2h-0.899l-0.9,0.2L104.301,113.5L104.301,113.5z M105.301,115.45v-0.149v-0.551l0.149-0.35
	l0.15-0.35l0.35-0.15l0.351-0.15l0.5,0.051l0.55,0.149L108,114.2l0.7,0.25l0.65,0.351l0.55,0.35l0.5,0.45l0.25,0.25l0.6,0.35
	l0.45,0.5l0.3,0.55l0.15,0.7l0.25,0.2v-0.05h0.05h0.101h0.199l0.4-0.05l0.35-0.101v-0.05h0.051h0.1h0.2l0.25-0.55l0.35-0.45
	l0.4-0.45l0.55-0.3l0.55-0.3l0.7-0.2l0.7-0.2l0.85-0.05h0.101l0.699-0.05h0.65l0.65,0.1l0.6,0.101l0.65,0.25l0.649,0.3l0.5,0.399
	l0.3,0.45l0.101,0.5l-0.4,1.101v0.55l-0.1,0.6l-0.15,0.75l-0.3,0.8l-0.35,0.95l-0.551,0.95l-0.6,1.05l-0.75,1.101l-0.75,1.25
	l-0.65,0.85l-0.6,0.85l-0.7,0.851l-1,1.1l-0.95,1l-0.899,0.851l-0.851,0.75l-0.25-0.2l-0.05,0.1h-0.3l-0.2-0.2l-0.1-0.149v-0.25
	l-0.25-0.25l-0.05-0.101v-0.199l0.05-0.25L112.4,131l0.1-0.35l0.101-0.45l0.2-0.45l0.449-1.1l-0.05-0.4l0.05-0.5l0.051-0.3
	l0.149-0.3l0.351-0.75l0.199-0.45l0.301-0.399l0.149-0.95l0.25-0.851l0.25-0.8l0.351-0.649l-0.2-0.2l-0.2-0.15l-0.1-0.1l-0.051-0.05
	l-0.1-0.101l-0.25-0.2l-0.5-0.449l-0.35-0.301l-0.2-0.25l-0.05-0.149v-0.05l-1-0.101l-0.851-0.149l-0.3,0.25l-0.25,0.199l-0.3,0.15
	h-0.15l-0.1,0.05l-0.4-0.1l-0.399-0.3L109.2,120.5h-0.149l-0.101,0.051l-0.2,0.1l-0.399,0.2l-0.45,0.1l-0.4,0.101l-0.5,0.199
	l-0.3,0.051h-0.149l-0.101,0.05l-0.3-0.05l-0.3-0.101l-0.25-0.149l-0.2-0.2l-0.25-0.3l-0.2-0.351l-0.35-0.8l-0.4-1.75v-0.55
	l0.15-0.45l0.1-0.4l0.25-0.3l0.25-0.3L105.301,115.45L105.301,115.45z"/>
<polygon fill-rule="evenodd" fill="#EE302E" points="105.4,116 105.301,115.801 105.301,115.45 104.95,115.65 104.7,115.95 
	104.45,116.25 104.351,116.65 104.2,117.101 104.2,117.65 104.601,119.4 104.95,120.2 105.15,120.551 105.4,120.851 
	105.601,121.051 105.851,121.2 106.15,121.301 106.45,121.351 106.551,121.301 106.7,121.301 107,121.25 107.5,121.051 
	107.9,120.95 108.351,120.851 108.75,120.65 108.95,120.551 109.051,120.5 109.2,120.5 109.551,120.301 109.95,120.601 
	110.351,120.7 110.45,120.65 110.601,120.65 110.9,120.5 111.15,120.301 111.45,120.051 112.301,120.2 113.301,120.301 
	113.301,120.351 113.351,120.5 113.551,120.75 113.9,121.051 114.4,121.5 114.65,121.7 114.75,121.801 114.801,121.851 
	114.9,121.95 115.101,122.101 115.301,122.301 114.95,122.95 114.7,123.75 114.45,124.601 114.301,125.551 114,125.95 
	113.801,126.4 113.45,127.15 113.301,127.45 113.25,127.75 113.2,128.25 113.25,128.65 112.801,129.75 112.601,130.2 112.5,130.65 
	112.4,131 112.351,131.301 112.301,131.551 112.301,131.75 112.351,131.851 112.601,132.101 112.601,132.351 112.7,132.5 
	112.9,132.7 113.2,132.7 113.25,132.601 113.5,132.801 114.351,132.051 115.25,131.2 116.2,130.2 117.2,129.101 117.9,128.25 
	118.5,127.4 119.15,126.551 119.9,125.301 120.65,124.2 121.25,123.15 121.801,122.2 122.15,121.25 122.45,120.45 122.601,119.7 
	122.7,119.101 122.7,118.551 123.101,117.45 123,116.95 122.7,116.5 122.2,116.101 121.551,115.801 120.9,115.551 120.301,115.45 
	119.65,115.351 119,115.351 119.4,115.4 119.95,115.65 120.5,115.851 121,116.2 121.4,116.551 121.75,117 122,117.45 122.2,118 
	122.351,118.601 122.4,119.301 122.351,119.801 122.25,120.301 122.051,120.801 121.95,120.9 121.9,120.9 121.9,120.95 
	121.9,121.051 121.801,121.351 121.4,121.9 121.2,122.101 121.051,122.301 120.801,122.4 120.601,122.551 120.45,122.551 
	120.351,122.601 120.15,122.65 119.7,122.601 119.4,122.5 119.101,122.351 118.95,122.2 118.801,121.9 118.75,121.601 118.7,121.25 
	118.801,120.851 119,120 119.2,119.4 119.301,119 119.301,118.9 119.351,118.9 118.45,118.2 118,117.801 117.7,117.5 117.551,117.2 
	117.5,116.95 117.551,116.351 117.7,115.9 117.95,115.551 118.301,115.4 118.2,115.4 117.351,115.45 116.65,115.65 115.95,115.851 
	115.4,116.15 114.851,116.45 114.45,116.9 114.101,117.351 113.851,117.9 113.65,117.9 113.551,117.9 113.5,117.9 113.5,117.95 
	113.15,118.051 112.75,118.101 112.551,118.101 112.45,118.101 112.4,118.101 112.4,118.15 112.15,117.95 112,117.25 111.7,116.7 
	111.25,116.2 110.65,115.851 111,116.351 111.351,116.95 111.25,117.15 111.2,117.5 111.051,117.601 110.851,117.75 110.7,117.75 
	110.601,117.801 110.45,117.801 110.351,117.851 110.25,117.801 110.2,117.801 110.101,117.75 109.9,117.65 109.801,117.601 
	109.75,117.601 109.601,117.5 109.5,117.45 109.351,117.351 109.25,117.301 108.95,117.101 108.65,116.95 108.101,116.65 
	107.601,116.45 106.601,116.2 105.551,116.101 105.4,116 "/>
<polygon fill-rule="evenodd" fill="#F05252" points="105.301,115.45 105.301,115.801 105.4,116 105.551,116.101 106.601,116.2 
	107.601,116.45 108.101,116.65 108.65,116.95 108.95,117.101 109.25,117.301 109.351,117.351 109.5,117.45 109.601,117.5 
	109.75,117.601 109.801,117.601 109.9,117.65 110.101,117.75 110.2,117.801 110.25,117.801 110.351,117.851 110.45,117.801 
	110.601,117.801 110.7,117.75 110.851,117.75 111.051,117.601 111.2,117.5 111.25,117.15 111.351,116.95 111,116.351 
	110.65,115.851 110.4,115.601 109.9,115.15 109.351,114.801 108.7,114.45 108,114.2 107.351,113.95 106.801,113.801 106.301,113.75 
	105.95,113.9 105.601,114.051 105.45,114.4 105.301,114.75 105.301,115.301 105.301,115.45 "/>
<polygon fill-rule="evenodd" fill="#F05252" points="119,115.351 118.301,115.4 117.95,115.551 117.7,115.9 117.551,116.351 
	117.5,116.95 117.551,117.2 117.7,117.5 118,117.801 118.45,118.2 119.351,118.9 119.301,118.9 119.301,119 119.2,119.4 119,120 
	118.801,120.851 118.7,121.25 118.75,121.601 118.801,121.9 118.95,122.2 119.101,122.351 119.4,122.5 119.7,122.601 120.15,122.65 
	120.351,122.601 120.45,122.551 120.601,122.551 120.801,122.4 121.051,122.301 121.2,122.101 121.4,121.9 121.801,121.351 
	121.9,121.051 121.9,120.95 121.9,120.9 121.95,120.9 122.051,120.801 122.25,120.301 122.351,119.801 122.4,119.301 
	122.351,118.601 122.2,118 122,117.45 121.75,117 121.4,116.551 121,116.2 120.5,115.851 119.95,115.65 119.4,115.4 119,115.351 "/>
<polygon fill-rule="evenodd" fill="#010101" points="103.601,114.051 101.601,114.601 101.551,117.4 101.65,119.9 101.9,122.4 
	102.051,123.601 102.301,124.851 102.851,127.351 103.25,128.95 103.75,130.45 104.25,131.801 104.9,133.051 105.551,134.101 
	106.301,135.101 107.051,135.9 107.9,136.601 108.75,137.101 109.7,137.5 110.65,137.7 111.75,137.851 112.851,137.801 
	114.051,137.65 115.25,137.301 116.551,136.9 117.75,136.351 118.9,135.75 119.95,135.051 120.95,134.351 121.351,133.9 
	121.801,133.5 122.2,133.051 122.65,132.65 123,132.15 123.4,131.7 124.101,130.75 124.65,129.65 125.15,128.5 125.601,127.301 
	125.601,127.101 125.65,126.95 125.75,126.65 125.95,126.051 126.051,125.351 126.051,125.15 126.101,125 126.2,124.7 
	126.4,123.301 126.5,121.801 126.551,120.301 126.45,118.551 126.301,116.75 126.051,114.851 125.75,112.95 123.45,112.601 
	121.25,112.351 116.801,112.2 114.551,112.25 112.351,112.4 107.95,113.051 108.801,113.351 109.7,113.9 110.601,114.551 
	111.551,115.45 113.15,115.2 114.851,115.051 115.351,114.551 115.9,114.15 117,113.5 118,113.101 118.5,112.95 119.051,112.95 
	119.95,112.95 120.4,113 120.9,113.2 121.301,113.4 121.75,113.7 122.65,114.45 122.851,114.65 124.7,114.65 124.851,115.95 
	124.95,117.301 125,118.7 125.051,120.2 125,121.65 124.9,121.95 124.851,122.101 124.851,122.301 124.75,123 124.551,124.301 
	124.25,125.5 123.95,126.7 123.551,127.75 123.351,128.25 123.25,128.5 123.2,128.801 123.051,129 122.95,129.25 122.75,129.75 
	122.601,129.95 122.5,130.2 122.301,130.7 121.75,131.5 121.2,132.301 120.551,133 119.95,133.65 119.551,133.9 119.2,134.2 
	118.5,134.7 117.7,135.15 116.9,135.551 116,135.801 115.15,136 113.601,136.2 112.801,136.2 112.101,136.15 111.4,136 
	110.75,135.801 110.051,135.5 109.4,135.15 108.801,134.7 108.25,134.2 107.65,133.601 107.101,132.95 106.601,132.25 106.15,131.5 
	105.45,130.301 104.851,129.2 103.9,127.051 103.2,125 102.95,124 102.851,123.101 102.351,121.9 102.051,120.851 101.801,119.7 
	101.7,118.65 101.75,117.65 101.9,116.801 102.15,115.95 102.5,115.25 102.95,114.601 103.601,114.051 "/>
<polygon fill-rule="evenodd" fill="#FFFFFF" points="114.851,115.051 113.15,115.2 111.551,115.45 112.2,116.101 112.9,116.95 
	113.851,115.9 114.851,115.051 "/>
<polygon fill-rule="evenodd" fill="#FFFFFF" points="124.7,114.65 122.851,114.65 123.25,115.101 123.601,115.601 124.2,116.65 
	124.5,117.7 124.601,118.25 124.65,118.851 124.601,119.4 124.5,120 124.2,121.2 123.95,121.801 123.65,122.45 122.95,123.801 
	121.95,125.15 120.9,126.551 119.75,127.95 118.601,129.45 117.301,130.95 115.95,132.5 114.551,134.051 113.101,135.65 
	111.15,133.7 109.45,131.95 107.851,130.2 106.551,128.65 105.301,127.101 104.301,125.65 103.45,124.301 102.851,123.101 
	102.95,124 103.2,125 103.9,127.051 104.851,129.2 105.45,130.301 106.15,131.5 106.601,132.25 107.101,132.95 107.65,133.601 
	108.25,134.2 108.801,134.7 109.4,135.15 110.051,135.5 110.75,135.801 111.4,136 112.101,136.15 112.801,136.2 113.601,136.2 
	115.15,136 116,135.801 116.9,135.551 117.7,135.15 118.5,134.7 119.2,134.2 119.551,133.9 119.95,133.65 120.551,133 
	121.2,132.301 121.75,131.5 122.301,130.7 122.5,130.2 122.601,129.95 122.75,129.75 122.95,129.25 123.051,129 123.2,128.801 
	123.25,128.5 123.351,128.25 123.551,127.75 123.95,126.7 124.25,125.5 124.551,124.301 124.75,123 124.851,122.301 
	124.851,122.101 124.9,121.95 125,121.65 125.051,120.2 125,118.7 124.95,117.301 124.851,115.95 124.7,114.65 "/>
<polygon fill-rule="evenodd" fill="#CB6928" points="104.15,109.351 103.301,109.65 102.9,109.851 102.601,110.15 102.051,110.75 
	101.7,111.551 102.051,111.45 102.551,111.351 103.15,111.25 103.9,111.2 104.75,111.051 105.7,110.95 106.75,110.851 
	107.95,110.75 109.2,110.551 110.601,110.45 112.101,110.25 113.75,110.15 115.5,109.95 117.351,109.801 119.301,109.601 
	121.45,109.45 118.2,109.2 115.301,109.051 112.65,108.9 110.4,108.9 108.351,108.9 106.65,109 105.2,109.101 104.15,109.351 "/>
<polygon fill-rule="evenodd" fill="#CB6928" points="47,110.851 47.801,110.75 48.65,109.4 49.9,108.101 50.65,107.45 51.5,106.851 
	52.45,106.25 53.5,105.65 54.5,105.351 55.65,105.101 56.9,104.75 58.301,104.45 59.75,104.051 61.4,103.65 63.15,103.2 
	65.051,102.801 66.301,102.4 67.5,102.101 68.051,101.9 68.65,101.75 69.7,101.45 70.65,101.051 71.5,100.75 72.301,100.45 
	73.051,100.15 73.65,99.75 74.2,99.45 74.4,99.25 74.5,99.15 74.551,99.101 74.65,99.101 75.101,98.801 75.4,98.4 75.65,98.101 
	75.801,97.801 75.9,97.5 76.101,97.301 76.25,97.101 76.351,96.9 76.4,96.7 76.351,96.351 76.351,96.101 76.25,95.9 76.2,95.801 
	75.95,95.601 75.75,95.5 75.65,95.45 75.601,95.45 74.7,95.851 74.2,96.051 73.95,96.15 73.75,96.301 72.7,96.7 71.601,97.2 
	70.4,97.601 69.15,98.101 67.801,98.5 66.4,99 64.801,99.4 63.351,99.851 62,100.2 60.801,100.601 59.65,100.9 58.7,101.25 
	58.2,101.351 57.801,101.5 57.051,101.801 54.801,102.601 52.851,103.45 51.45,104.15 50.301,104.9 49.45,105.5 48.75,106.101 
	48.101,106.7 47.65,107.4 47.25,108.051 47,108.75 46.851,109.45 46.801,110.25 46.801,110.65 46.851,110.9 46.9,110.95 47,110.851 
	"/>
<path fill-rule="evenodd" fill="#ED2224" d="M54.75,113.75l-0.899,0.551l-0.7,0.75l-0.6,0.8l-0.45,0.95l-0.351,0.8l-0.149,0.899
	l-0.05,0.95l0.05,1.101l0.1,1.05l0.25,1.25l0.15,0.75l0.3,0.85l0.35,0.851l0.45,0.949l0.5,0.9l0.65,1l1.45,2.15l1.75,2.25
	l2.05,2.449l2.35,2.551l2.75,2.75h-0.6h-0.4h-0.25H63.4h0.05h0.3h0.4h0.25l0.35,0.05l1,1l1.851-2l1.75-1.95L71,135.5l1.601-1.85
	l1.45-1.85L75.5,130l1.25-1.75l1.25-1.649l0.5-0.9l0.45-0.8l0.7-1.6l0.2-0.801L80,121.75l0.101-0.75l0.05-0.699l-0.1-0.75l-0.15-0.7
	l-0.2-0.7l-0.25-0.65l-0.8-1.35l-0.5-0.6l-0.55-0.601l-0.7-0.649l-0.6-0.45l-0.7-0.351l-0.65-0.25l-0.75-0.149l-0.7-0.05l-0.75,0.05
	l-0.699,0.149l-0.801,0.25l-0.75,0.351l-0.8,0.45l-0.8,0.55L68,115.5l-0.8,0.75l-0.899,0.851l-0.801,0.95l-1-1.15l-0.899-0.95
	l-0.9-0.85l-0.899-0.65l-1.25-0.85l-1.2-0.45l-1.2-0.25L57,112.95l-1.149,0.25L54.75,113.75L54.75,113.75z M56,116.15V116
	l0.051-0.649l0.149-0.5l0.25-0.351l0.15-0.149l0.25-0.05l0.45-0.15l0.25-0.05l0.35,0.05l0.65,0.15l0.85,0.3l1.05,0.45l0.65,0.35
	l0.6,0.4l1,0.85l0.7,0.45l0.6,0.649l0.15,0.301l0.15,0.399l0.199,0.851l0.4,0.199l0.2-0.05h0.25l0.2-0.05h0.25l0.399-0.1l0.45-0.101
	l0.3-0.7l0.45-0.55l0.55-0.5l0.65-0.399l0.649-0.4l0.851-0.25L71,116.2l1.051-0.1H72.2l0.9-0.05h0.8l0.8,0.1l0.75,0.15l0.8,0.3
	L77.051,117l0.6,0.5l0.2,0.2L78,118l0.101,0.301l0.05,0.35l-0.5,1.35v0.75l-0.05,0.351v0.45l-0.25,0.75l-0.25,0.899l-0.4,0.9
	l-0.45,1.05l-0.649,1.05l-0.65,1.2l-0.8,1.25l-0.85,1.35l-0.851,1.101l-0.75,1.05l-0.85,1l-1.25,1.4l-1.2,1.25l-1.15,1.05
	l-1.05,0.95l-0.3-0.25l-0.05,0.149H65.5l-0.25-0.25l-0.149-0.25v-0.3l-0.3-0.3l-0.051-0.15v-0.25l0.051-0.3l0.05-0.35l0.149-0.4
	l0.15-0.55l0.2-0.601l0.25-0.649l0.3-0.75l-0.05-0.45l0.05-0.6l0.25-0.75l0.15-0.5l0.25-0.45l0.649-1.05l0.55-2.25l0.301-1
	l0.399-0.851l-0.1-0.1l-0.05-0.05L68.2,124.45l-0.2-0.2L67.7,124l-0.3-0.25l-0.7-0.55l-0.399-0.399L66,122.45l-0.05-0.2v-0.05
	l-1.2-0.1l-1.1-0.2l-0.2,0.15l-0.149,0.199L63,122.5l-0.199,0.051l-0.15,0.1h-0.2h-0.1h-0.05v0.05l-0.101-0.05h-0.05h-0.1l-0.2-0.1
	l-0.3-0.15l-0.25-0.2l-0.25,0.101l-0.2,0.149l-0.5,0.2l-0.5,0.25l-0.601,0.15l-0.3,0.05l-0.25,0.1l-0.3,0.101l-0.3,0.149h-0.2h-0.1
	H57.75v0.05l-0.3,0.051l-0.399-0.051l-0.351-0.149l-0.3-0.2l-0.3-0.25l-0.3-0.35l-0.25-0.4l-0.2-0.5l-0.2-0.55l-0.5-2.2l0.05-0.55
	l0.101-0.75l0.25-0.55l0.399-0.551L56,116.15L56,116.15z"/>
<polygon fill-rule="evenodd" fill="#F05252" points="56,116 56,116.15 56,116.551 56.15,116.851 56.351,116.95 56.851,117 
	58,117.15 59.101,117.45 60.2,118.051 60.551,118.25 60.95,118.5 61.25,118.65 61.551,118.851 61.75,118.95 62,119.051 
	62.051,119.051 62.15,119.101 62.2,119.101 62.301,119.15 62.301,119.101 62.351,119.101 62.45,119.101 62.65,119.101 
	62.95,119.051 63.15,118.9 63.351,118.75 63.4,118.65 63.45,118.301 63.551,118.051 63.15,117.351 62.7,116.65 61.7,115.801 
	61.101,115.4 60.45,115.051 59.4,114.601 58.551,114.301 57.9,114.15 57.551,114.101 57.301,114.15 56.851,114.301 56.601,114.351 
	56.45,114.5 56.2,114.851 56.051,115.351 56,116 "/>
<polygon fill-rule="evenodd" fill="#EE302E" points="73.101,116.051 73.601,116.15 74.25,116.4 74.9,116.7 75.5,117.101 76,117.5 
	76.45,118.051 76.801,118.601 77.051,119.25 77.2,119.95 77.301,120.75 77.301,121 77.25,121.601 77.101,122.25 76.851,122.851 
	76.551,123.551 76.051,124.25 75.9,124.351 75.801,124.5 75.601,124.75 75.301,124.9 75.2,124.9 75.15,124.9 75.15,124.95 
	75.051,125.051 74.75,125.101 74.601,125.101 74.5,125.15 73.95,125.101 73.551,125 73.2,124.801 73,124.551 72.801,124.2 
	72.75,123.801 72.7,123.351 72.801,122.851 73.101,121.801 73.2,121.4 73.351,121.101 73.4,120.801 73.5,120.65 73.5,120.5 
	73.551,120.5 72.351,119.601 71.801,119.101 71.45,118.7 71.25,118.351 71.2,118.051 71.2,117.551 71.301,117.2 71.4,116.75 
	71.601,116.45 71.851,116.2 72.2,116.101 72.051,116.101 71,116.2 70.101,116.4 69.25,116.65 68.601,117.051 67.95,117.45 
	67.4,117.95 66.95,118.5 66.65,119.2 66.2,119.301 65.801,119.4 65.551,119.4 65.351,119.45 65.101,119.45 64.9,119.5 64.5,119.301 
	64.301,118.45 64.15,118.051 64,117.75 63.4,117.101 62.7,116.65 63.15,117.351 63.551,118.051 63.45,118.301 63.4,118.65 
	63.351,118.75 63.15,118.9 62.95,119.051 62.65,119.101 62.45,119.101 62.351,119.101 62.301,119.101 62.301,119.15 62.2,119.101 
	62.15,119.101 62.051,119.051 62,119.051 61.75,118.95 61.551,118.851 61.25,118.65 60.95,118.5 60.551,118.25 60.2,118.051 
	59.101,117.45 58,117.15 56.851,117 56.351,116.95 56.15,116.851 56,116.551 56,116.15 55.45,116.5 55.051,117.051 54.801,117.601 
	54.7,118.351 54.65,118.9 55.15,121.101 55.351,121.65 55.551,122.15 55.801,122.551 56.101,122.9 56.4,123.15 56.7,123.351 
	57.051,123.5 57.45,123.551 57.75,123.5 57.75,123.45 57.801,123.45 57.9,123.45 58.101,123.45 58.4,123.301 58.7,123.2 
	58.95,123.101 59.25,123.051 59.851,122.9 60.351,122.65 60.851,122.45 61.051,122.301 61.301,122.2 61.551,122.4 61.851,122.551 
	62.051,122.65 62.15,122.65 62.2,122.65 62.301,122.7 62.301,122.65 62.351,122.65 62.45,122.65 62.65,122.65 62.801,122.551 
	63,122.5 63.301,122.25 63.45,122.051 63.65,121.9 64.75,122.101 65.95,122.2 65.95,122.25 66,122.45 66.301,122.801 66.7,123.2 
	67.4,123.75 67.7,124 68,124.25 68.2,124.45 68.301,124.551 68.351,124.601 68.45,124.7 68.051,125.551 67.75,126.551 67.2,128.801 
	66.551,129.851 66.301,130.301 66.15,130.801 65.9,131.551 65.851,132.15 65.9,132.601 65.601,133.351 65.351,134 65.15,134.601 
	65,135.15 64.851,135.551 64.801,135.9 64.75,136.2 64.75,136.45 64.801,136.601 65.101,136.9 65.101,137.2 65.25,137.45 
	65.5,137.7 65.851,137.7 65.9,137.551 66.2,137.801 67.25,136.851 68.4,135.801 69.601,134.551 70.851,133.15 71.7,132.15 
	72.45,131.101 73.301,130 74.15,128.65 74.95,127.4 75.601,126.2 76.25,125.15 76.7,124.101 77.101,123.2 77.351,122.301 
	77.601,121.551 77.601,121.101 77.65,120.75 77.65,120 78.15,118.65 78.101,118.301 78,118 77.851,117.7 77.65,117.5 77.051,117 
	76.25,116.601 75.45,116.301 74.7,116.15 73.9,116.051 73.101,116.051 "/>
<polygon fill-rule="evenodd" fill="#F05252" points="74.25,116.4 73.601,116.15 73.101,116.051 72.2,116.101 71.851,116.2 
	71.601,116.45 71.4,116.75 71.301,117.2 71.2,117.551 71.2,118.051 71.25,118.351 71.45,118.7 71.801,119.101 72.351,119.601 
	73.551,120.5 73.5,120.5 73.5,120.65 73.4,120.801 73.351,121.101 73.2,121.4 73.101,121.801 72.801,122.851 72.7,123.351 
	72.75,123.801 72.801,124.2 73,124.551 73.2,124.801 73.551,125 73.95,125.101 74.5,125.15 74.601,125.101 74.75,125.101 
	75.051,125.051 75.15,124.95 75.15,124.9 75.2,124.9 75.301,124.9 75.601,124.75 75.801,124.5 75.9,124.351 76.051,124.25 
	76.551,123.551 76.851,122.851 77.101,122.25 77.25,121.601 77.301,121 77.301,120.75 77.2,119.95 77.051,119.25 76.801,118.601 
	76.45,118.051 76,117.5 75.5,117.101 74.9,116.7 74.25,116.4 "/>
<polygon fill-rule="evenodd" fill="#010101" points="59.351,113.15 60.551,113.601 61.801,114.45 62.851,113.95 63.95,113.551 
	66.15,112.851 68.301,112.301 70.5,112 71.551,111.801 72.601,111.7 73.551,111.601 74.45,111.5 75.25,111.4 76,111.351 
	76.65,111.301 77.25,111.301 77.75,111.25 78.2,111.25 78.551,111.25 78.851,111.351 79.051,111.351 79.2,111.45 79.25,111.551 
	79.25,111.65 79.25,112 79.25,112.051 79.301,112.301 79.351,112.65 79.45,113.2 79.551,113.851 79.7,114.65 79.9,115.601 
	80.15,116.75 80.351,118.15 80.45,118.75 80.5,119.051 80.601,119.4 80.601,119.65 80.65,119.95 80.75,120.5 80.75,120.7 
	80.75,120.801 80.75,120.851 80.801,120.95 80.9,121.45 80.9,121.851 80.95,122.25 80.95,122.551 80.95,122.7 81,122.9 
	80.95,122.95 80.95,123.051 80.95,123.25 80.95,123.65 80.95,124.45 80.801,125.95 80.601,127.4 80.45,128.101 80.351,128.851 
	80,130.15 79.551,131.45 79.051,132.7 78.5,133.9 77.851,134.9 77.15,135.9 76.4,136.801 76,137.2 75.801,137.4 75.7,137.5 
	75.65,137.65 75.5,137.7 75.4,137.801 75.2,138 74.801,138.4 73.9,139.101 73.4,139.4 73.25,139.45 73.15,139.551 72.95,139.75 
	71.95,140.351 70.851,140.801 70.25,141 69.95,141.101 69.801,141.15 69.7,141.25 68.5,141.601 67.301,141.95 66,142.15 
	64.65,142.351 63.25,142.45 62.5,142.45 61.801,142.5 60.851,142.45 59.95,142.301 59.101,142.051 58.351,141.801 57.551,141.4 
	56.851,140.95 56.2,140.4 55.601,139.801 55,139.051 54.45,138.25 53.95,137.351 53.5,136.4 53.051,135.351 52.7,134.2 52.351,133 
	52.101,131.75 51.95,130.9 51.65,129.25 51.5,127.551 51.351,125.7 51.301,123.801 51.25,122.851 51.25,122.101 51.25,121.351 
	51.25,120.801 51.601,120.551 51.551,119.45 51.601,118.5 51.75,117.601 52.101,116.801 51.351,117.4 50.801,118 50.4,118.601 
	50.2,119.2 50.101,122.4 50.101,125.551 50.25,128.4 50.4,129.851 50.75,131.351 51.25,133.65 52.051,136.101 52.45,137.2 
	52.9,138.25 53.351,139.2 53.851,140.101 54.351,140.9 54.9,141.65 55.45,142.351 56.101,143 57.351,144 58,144.4 58.75,144.75 
	59.45,145 60.2,145.2 61,145.301 61.851,145.351 62,145.301 62.2,145.301 62.601,145.301 63.4,145.301 64.95,145.2 66.4,145 
	67.101,144.851 67.851,144.75 69.15,144.4 70.45,144 71.65,143.551 72.851,143.051 73.351,142.7 73.9,142.4 74.4,142.051 
	74.95,141.75 75.4,141.351 75.9,141 76.851,140.2 77.7,139.301 78.5,138.351 78.65,138.051 78.851,137.801 79.25,137.301 
	79.95,136.25 80.601,134.851 80.7,134.45 80.75,134.25 80.851,134.101 81.15,133.4 81.601,131.9 82.051,130.4 82.301,128.801 
	82.551,127.2 82.601,125.5 82.65,123.801 82.551,122.301 82.5,120.9 82.15,118.351 81.95,117.15 81.801,116.051 81.351,113.9 
	81.051,112.9 80.801,112 80.351,110.851 80.2,110.351 80.15,110 78.2,109.65 76.25,109.5 75.15,109.45 74.101,109.5 71.95,109.75 
	70.75,109.851 69.601,110.051 67.2,110.601 65.9,110.9 64.65,111.301 63.301,111.7 62,112.2 61.25,112.4 60.601,112.65 
	59.351,113.15 "/>
<polygon fill-rule="evenodd" fill="#FFFFFF" points="79.25,111.65 79.25,111.551 79.2,111.45 79.051,111.351 78.851,111.351 
	78.551,111.25 78.2,111.25 77.75,111.25 77.25,111.301 76.65,111.301 76,111.351 75.25,111.4 74.45,111.5 73.551,111.601 
	72.601,111.7 71.551,111.801 70.5,112 68.301,112.301 66.15,112.851 63.95,113.551 62.851,113.95 61.801,114.45 62.7,115.101 
	63.601,115.95 64.5,116.9 65.5,118.051 66.301,117.101 67.2,116.25 68,115.5 68.9,114.851 69.7,114.301 70.5,113.851 71.25,113.5 
	72.051,113.25 72.75,113.101 73.5,113.051 74.2,113.101 74.95,113.25 75.601,113.5 76.301,113.851 76.9,114.301 77.601,114.95 
	78.15,115.551 78.65,116.15 79.45,117.5 79.7,118.15 79.9,118.851 80.051,119.551 80.15,120.301 80.101,121 80,121.75 79.851,122.5 
	79.65,123.301 78.95,124.9 78.5,125.7 78,126.601 76.75,128.25 75.5,130 74.051,131.801 72.601,133.65 71,135.5 69.351,137.4 
	67.601,139.351 65.75,141.351 64.75,140.351 64.4,140.301 64.15,140.301 63.75,140.301 63.45,140.301 63.4,140.301 63.45,140.301 
	63.7,140.301 64.101,140.301 64.7,140.301 61.95,137.551 59.601,135 57.551,132.551 55.801,130.301 54.351,128.15 53.7,127.15 
	53.2,126.25 52.75,125.301 52.4,124.45 52.101,123.601 51.95,122.851 51.7,121.601 51.601,120.551 51.25,120.801 51.25,121.351 
	51.25,122.101 51.25,122.851 51.301,123.801 51.351,125.7 51.5,127.551 51.65,129.25 51.95,130.9 52.101,131.75 52.351,133 
	52.7,134.2 53.051,135.351 53.5,136.4 53.95,137.351 54.45,138.25 55,139.051 55.601,139.801 56.2,140.4 56.851,140.95 
	57.551,141.4 58.351,141.801 59.101,142.051 59.95,142.301 60.851,142.45 61.801,142.5 62.5,142.45 63.25,142.45 64.65,142.351 
	66,142.15 67.301,141.95 68.5,141.601 69.7,141.25 69.801,141.15 69.95,141.101 70.25,141 70.851,140.801 71.95,140.351 
	72.95,139.75 73.15,139.551 73.25,139.45 73.4,139.4 73.9,139.101 74.801,138.4 75.2,138 75.4,137.801 75.5,137.7 75.65,137.65 
	75.7,137.5 75.801,137.4 76,137.2 76.4,136.801 77.15,135.9 77.851,134.9 78.5,133.9 79.051,132.7 79.551,131.45 80,130.15 
	80.351,128.851 80.45,128.101 80.601,127.4 80.801,125.95 80.95,124.45 80.95,123.65 80.95,123.25 80.95,123.051 80.95,122.95 
	81,122.9 80.95,122.7 80.95,122.551 80.95,122.25 80.9,121.851 80.9,121.45 80.801,120.95 80.75,120.851 80.75,120.801 80.75,120.7 
	80.75,120.5 80.65,119.95 80.601,119.65 80.601,119.4 80.5,119.051 80.45,118.75 80.351,118.15 80.15,116.75 79.9,115.601 
	79.7,114.65 79.551,113.851 79.45,113.2 79.351,112.65 79.301,112.301 79.25,112.051 79.25,112 79.25,111.65 "/>
<polygon fill-rule="evenodd" fill="#CB6928" points="60.051,108.351 58.101,108.801 56.45,109.301 55,109.851 53.9,110.5 
	52.95,111.15 52.351,111.851 51.95,112.601 51.851,113.45 52.801,112.75 53.95,112.101 55.2,111.5 56.551,111 58,110.5 
	59.601,110.101 61.301,109.7 63.15,109.4 65.351,108.95 67.45,108.551 69.25,108.2 70.101,108 70.9,107.9 71.601,107.7 
	72.25,107.601 73.45,107.351 74.351,107.101 74.75,107 75.101,106.9 75,106.801 74.9,106.75 74.851,106.75 74.601,106.65 
	74.4,106.601 74.25,106.601 73.75,106.5 73.051,106.5 72.15,106.45 71.15,106.45 70.45,106.4 69.551,106.5 68.45,106.601 
	67.15,106.851 65.65,107.101 63.95,107.45 62.051,107.851 60.051,108.351 "/>
<path fill-rule="evenodd" fill="#010101" d="M82.45,152.851l-1.399-0.4l-1.2-0.35l-1.05-0.3L77.95,151.5l-0.75-0.3l-0.5-0.25
	l-0.399-0.2l-0.15-0.149l0.6,2.05l0.7,2l0.601,1.9l0.699,1.85l0.601,1.75l0.7,1.65l0.699,1.55l0.7,1.5l0.601,1.35l0.699,1.3
	l0.65,1.2l0.7,1.15l0.6,1.05l0.7,0.95l0.7,0.85l0.7,0.8l0.6,0.65l0.7,0.6l0.649,0.45l0.7,0.45l0.601,0.3l0.699,0.25l0.7,0.15
	l0.7,0.1l0.6-0.05l0.7-0.15l0.7-0.25l0.7-0.25l0.649-0.399l0.7-0.45l0.7-0.55l0.7-0.601l1.3-1.449l1.25-1.4l1.2-1.5l1.149-1.4
	l2.101-3l1-1.5l0.95-1.5l0.8-1.6l0.8-1.55l0.75-1.601l0.7-1.55l0.6-1.649l0.601-1.601l0.5-1.649l0.5-1.601l-1.5,0.25l-1.4,0.3
	l-2.75,0.551l-2.6,0.5l-2.45,0.5L98.75,151.7l-1.149,0.15l-1.05,0.2l-2.051,0.3l-1.85,0.3l-0.95,0.05l-0.85,0.101L90,152.851
	l-0.75,0.1l-1.5,0.101l-1.3,0.1l-1.25-0.05l-1.05-0.05l-0.95-0.101L82.45,152.851L82.45,152.851z M78,153.9l0.101-0.75h0.149
	l0.25,0.05l0.351,0.05l0.55,0.101l0.55,0.1l0.75,0.15l0.851,0.149l0.949,0.2h0.2h0.101h0.05l0.1,0.05l0.5,0.101l0.9,0.2l0.85,0.1
	l0.8,0.15l0.7,0.05l0.65,0.1h0.6l0.601,0.05l0.199-0.05H89h0.5l1-0.05l0.9-0.1l0.2-0.051h0.25h0.5l1.8-0.35l0.85-0.2l0.9-0.149
	l1.6-0.5l0.7-0.25l0.7-0.2h0.25h0.4h0.05L99.7,153l0.05,0.2l0.051,0.351l-0.051,0.199l-0.149,0.2l-0.2,0.2l-0.25,0.3l-0.4,0.2
	l-0.449,0.3l-0.551,0.2l-0.55,0.3l-0.899,0.25l-0.9,0.3l-1,0.2l-1,0.2l-1.15,0.1l-0.6,0.051l-0.55,0.1h-0.65l-0.6,0.05H89.2
	l-0.6,0.05l-0.851-0.05H87l-1.449-0.05L84.2,156.5l-1.149-0.1l-1.15-0.25l-0.95-0.2l-0.85-0.3l-0.7-0.3l-0.65-0.65l-0.399-0.45
	l-0.2-0.199l-0.1-0.101L78,153.9L78,153.9z"/>
<polygon fill-rule="evenodd" fill="#FFFFFF" points="78.101,153.15 78,153.9 78.051,153.95 78.15,154.051 78.351,154.25 
	78.75,154.7 79.4,155.351 80.101,155.65 80.95,155.95 81.9,156.15 83.051,156.4 84.2,156.5 85.551,156.65 87,156.7 87.75,156.7 
	88.601,156.75 89.2,156.7 89.851,156.7 90.45,156.65 91.101,156.65 91.65,156.551 92.25,156.5 93.4,156.4 94.4,156.2 95.4,156 
	96.301,155.7 97.2,155.45 97.75,155.15 98.301,154.95 98.75,154.65 99.15,154.45 99.4,154.15 99.601,153.95 99.75,153.75 
	99.801,153.551 99.75,153.2 99.7,153 99.601,152.851 99.551,152.851 99.15,152.851 98.9,152.851 98.2,153.051 97.5,153.301 
	95.9,153.801 95,153.95 94.15,154.15 92.351,154.5 91.851,154.5 91.601,154.5 91.4,154.551 90.5,154.65 89.5,154.7 89,154.7 
	88.75,154.7 88.551,154.75 87.95,154.7 87.351,154.7 86.7,154.601 86,154.551 85.2,154.4 84.351,154.301 83.45,154.101 82.95,154 
	82.851,153.95 82.801,153.95 82.7,153.95 82.5,153.95 81.551,153.75 80.7,153.601 79.95,153.45 79.4,153.351 78.851,153.25 
	78.5,153.2 78.25,153.15 78.101,153.15 "/>
</svg>
