<?xml version="1.0" encoding="utf-8"?>
<!-- Generator: Adobe Illustrator 13.0.0, SVG Export Plug-In . SVG Version: 6.00 Build 14948)  -->
<svg version="1.2" baseProfile="tiny" id="Layer_1" xmlns="http://www.w3.org/2000/svg" xmlns:xlink="http://www.w3.org/1999/xlink"
	 x="0px" y="0px" width="176.949px" height="171.4px" viewBox="0 0 176.949 171.4" xml:space="preserve">
<path fill-rule="evenodd" fill="#8EC73F" d="M60.4,17.15l-1.75,0.1l-1.5,0.101l-1.3,0.1l-1,0.1H54l-0.6,0.101H53l-0.1,0.1l-0.6,0.15
	l-2.95,0.75L46.6,19.55l-2.65,0.9l-2.5,1.05l-2.4,1.05l-2.25,1.2L34.7,25l-1.95,1.351l-1.55,1l-1.4,1.05l-1.4,1l-1.25,1L25.9,31.3
	l-1.15,0.95l-1.1,0.9L22.7,34.05l-1,0.801l-0.85,0.8l-0.8,0.75l-0.7,0.8l-0.7,0.65L18.1,38.55l-0.5,0.65l-0.4,0.65l-1.35,1.899
	L14.6,43.7l-2.3,3.8l-2.2,3.7l-1.9,3.7l-0.95,1.75l-0.85,1.8L5.6,60.2L4.9,62l-0.75,1.7l-0.6,1.75l-1.1,3.4L3.5,67.7l1.05-1
	l0.95-0.95l0.9-0.85l0.8-0.851l0.75-0.75l0.65-0.699l0.65-0.551L9.7,61.5l0.65-0.6l0.75-0.75l0.45-0.4l0.55-0.399l0.5-0.5l0.6-0.5
	l0.6-0.551l0.7-0.5l0.65-0.6l0.75-0.6l0.75-0.65l0.85-0.6l0.8-0.75l0.9-0.7l0.9-0.8l1-0.75L22.05,51l1.05-0.8l2.25-1.75l2.35-1.95
	l2.55-1.95L32.9,42.4l2.85-2.15l-1.4,1.2l-2.45,2.3l-2.3,2.4l-2.15,2.399l-1.95,2.551l-0.35,0.449l-0.35,0.551l-0.45,0.649
	l-0.45,0.8l-0.55,0.801l-0.6,0.949l-0.65,1l-0.65,1.15l-0.8,1.15l-0.8,1.3l-0.9,1.35l-0.9,1.5l-1,1.5L16,65.9l-1.1,1.7l-1.1,1.85
	l-2.25,3.7L10.5,75l-0.85,1.9L8,80.7l-1.25,3.9L5.7,88.5l-0.65,3.95l-0.25,2l-0.15,2l-0.05,4.1l0.05,3.95l0.25,3.8l0.25,3.65
	l0.45,3.55l0.45,3.351l0.55,3.199l0.65,3.051l0.8,2.949l0.7,2.7l0.35,1.3l0.4,1.301l0.7,2.399l0.7,2.3l0.6,2.101l0.6,2l0.25,0.899
	l0.3,0.9l0.6,1.75l0.05-0.5l0.2-0.7l0.2-0.899l0.35-1.101l0.15-0.649l0.2-0.7l0.55-1.5l0.55-1.8l0.7-1.9l0.95,1.35l1,1.45l1,1.5
	l1.1,1.65l1.05,1.649l1.15,1.801l2.35,3.85v0.05l0.1,0.15l0.15,0.25l0.25,0.45l0.25,0.449l0.35,0.551l0.35,0.649l0.5,0.851
	l0.45,0.85l0.6,0.95l0.6,1.05l0.7,1.25l0.7,1.25l0.85,1.35l0.85,1.45l0.95,1.65v-0.9v-0.95l-0.1-1.149L32.3,158.8v-0.6l-0.1-0.7
	l-0.05-0.7l-0.1-0.75L32,155.351l-0.1-0.45l-0.05-0.4l-0.1-0.8l-0.2-1.7l-0.2-0.95l-0.15-1L31,149l-0.1-0.55l-0.05-0.5l-0.15-0.6
	l-0.1-0.551l-0.2-1.149l-0.1-0.351l-0.05-0.3l-0.1-0.6l-0.2-1.25l-0.3-1.351L29.4,140.4l-0.3-1.45l-0.1-0.4l-0.05-0.199v-0.15
	l-0.1-0.7l-0.6-3.1l-0.6-3.3l-0.45-1.7l-0.25-1.601l-0.25-1.55l-0.1-1.45l-0.1-1.449L26.55,122l0.05-1.3l0.25-1.2l0.15-1.1
	l0.15-1.101v-0.6v-0.3v-0.15l0.05-0.1l0.1-1.15v-1.05v-1.05l-0.25-1.75l-0.05-1.7V109l-0.1-0.649l-0.05-0.601L26.6,106l-0.05-1.55
	l-0.05-1.55l0.15-1.4l0.15-1.399l0.3-1.25l0.35-1.2l0.5-1.05l0.45-0.9l0.25,1l-0.15,0.4l-0.05,0.449L28.4,99.7l-0.15,3.05v1
	l0.25,7.351l0.15,2.55l0.25,2.7l0.25,2.75l0.35,2.949l0.2,2.2l0.3,2.15l-0.15,0.55l-0.05,0.6l-0.05,0.601l0.45,3.8l0.05,0.75
	l-0.1,1.7l0.05,1.5v0.649l0.05,0.601l0.2,1.1l0.1,0.351l0.2,0.6l0.35,0.45v0.3v0.15l0.05,0.199l0.1,0.7l0.2,1.2l0.2,1l0.2,0.9
	l0.05,0.3l0.1,0.3l0.2,0.5l0.2,0.3l0.2,0.101l0.3-0.051l0.25-0.1l0.2-0.2l0.15-0.2V145v-0.2l0.05-0.199v-0.25l0.05-0.301l-0.05-0.1
	v-0.05V143.8v-0.25l-0.05-0.3v-0.3l-0.1-0.8l-0.05-0.5v-0.5v-0.101V140.9V140.8v-0.149l-0.1-0.351v-0.35l-0.05-0.1V139.8v-0.1v-0.2
	v-0.55l-0.1-0.65l-0.05-0.699l-0.1-0.801v-0.85l-0.1-1l-0.1-1.05l-0.1-1.15l-0.1-1.149l-0.1-0.7l-0.05-0.2v-0.15v-0.3l-0.1-1.35
	l-0.1-1.45l-0.1-1.5l-0.3-3.3l-0.25-3.15l-0.25-3l-0.15-2.8l-0.3-9.65l0.1,0.301v0.05l0.05,0.1l0.1,0.2l0.3,0.65l0.25,0.5l0.3,0.449
	l0.2,0.351l0.1,0.1l0.05,0.05l0.1,0.101l0.2,0.149h0.1h0.05l0.1,0.051l0.6-1.45l0.75-1.45l0.3-0.8l0.35-0.65l0.7-1.1l0.3-0.5
	l0.35-0.4l0.3-0.35l0.35-0.2l-0.05,0.25l0.1,0.35l0.1,0.45l0.25,0.601l0.25,0.649l0.35,0.851l0.4,0.899l0.55,1.05l0.1-0.3l0.25-0.35
	l0.3-0.55l0.4-0.601l0.4-0.8l0.55-0.85l0.55-1.051l0.7-1.1l0.4-0.8l0.15-0.351l0.2-0.25l0.5,0.7l0.6,1l0.6,1.15l0.75,1.399l0.3,0.65
	l0.45-0.85l0.25-0.45l0.35-0.4l0.3-0.55l0.4-0.5l0.85-1.05l0.95-1.25l1.05-1.3l1.15-1.45l1.35-1.55l0.8,1.699l0.4,0.801l0.2,0.399
	l0.1,0.2l0.05,0.1l0.1,0.15v0.05l0.05,0.101l0.1,0.199l0.2,0.4l0.4,0.8l0.8,1.5l0.4-0.55l0.5-0.55l0.55-0.65l0.7-0.649l0.7-0.801
	l0.8-0.8l0.85-0.899l1-0.9l0.05,0.2l0.05,0.2l0.15,0.3l0.1,0.3l0.2,0.45l0.2,0.45l0.3,0.55l0.15,0.35l0.2,0.55l0.45,1.25l0.8-0.949
	l0.85-0.851l1.55-1.55l1.4-1.45L69.05,93l1.05-1.149l0.45-0.5l0.5-0.4l0.35-0.45l0.4-0.35l0.3-0.351l0.35-0.25l0.3,0.65l0.4,0.85
	L73.6,91.9l0.55,1.05l0.5,1.05l0.65,1.15l0.65,1.2l0.75,1.35l0.25-0.25l0.35-0.3l0.45-0.45l0.55-0.55l0.6-0.75l0.75-0.75l0.75-0.95
	l0.95-1l0.7-0.95l0.65-0.8l0.6-0.75l0.55-0.6l3.6,7.75l1.25-1.65l1.451-1.6l1.5-1.551l1.649-1.5l0.649,0.9l0.701,0.95L95.3,93.8
	l0.3,0.45l0.35,0.5l1.15,1.7l0.551,0.8l0.25,0.4l0.299,0.45l0.551-0.75l0.65-0.7l0.699-0.8l0.85-0.75l0.801-0.9l0.949-0.85
	l0.951-0.95l1.1-0.9l5.199,8.95l1.15-0.85l1.1-0.75l0.951-0.7l0.899-0.601l0.649-0.6l0.65-0.5L115.8,96l0.399-0.35l2.25,6.149
	l0.451-0.399l0.549-0.351l0.551-0.449l0.65-0.4l1.35-0.95l0.75-0.5l0.85-0.45l0.25,0.95l0.301,1.15l0.299,1.149l0.15,0.5l0.2,0.5
	l0.3,0.851v0.05l0.051,0.1l0.1,0.2l0.199,0.4l0.301,0.55l0.3,0.4l0.101,0.1l0.049,0.05l0.101,0.101l0.3,0.1l1.15-1.05l1.15-0.9
	l1-0.85l0.949-0.75l0.25-0.2v0.1v0.101v0.899v0.15v0.35v0.45l0.1,0.65v0.75l0.101,0.899l0.101,1.051l0.149,1.199l0.601-0.35
	l0.75-0.3l0.799-0.4l0.9-0.35l0.9-0.45l1.05-0.4l1.05-0.449l1.2-0.4l-0.5,0.9l-0.399,0.85l-0.4,0.75l-0.25,0.75l-0.25,0.6
	l-0.15,0.551l-0.15,0.449v0.4l1.201-0.65l1.149-0.55l2.101-1.05l1.799-0.95l0.801-0.399l0.75-0.351l-0.25,3.05l-0.35,3.2
	l-0.451,3.25L143,119.351l-0.65,3.399l-0.65,3.55l-0.85,3.551L140,133.55l-0.5,1.65l-0.4,1.55l-0.35,1.351l-0.301,1.25l0.551-0.2
	l0.3-0.05l0.7-0.25l0.65-0.101l0.799-0.25l-0.6,1.15l-0.449,1.1l-0.351,0.7l-0.25,0.7l-0.25,0.649l-0.149,0.65l-0.201,0.6
	l-0.1,0.551l-0.1,0.5v0.449v0.351l0.1,0.35l0.15,0.25l0.25,0.2l0.25,0.1l0.35,0.051l0.1-0.101l0.201-0.3l0.25-0.45l0.35-0.6
	l0.35-0.8l0.45-0.95l0.45-1.15l0.6-1.3l0.25-0.85l0.301-0.75l0.25-0.7l0.299-0.601l0.4-1.1l0.15-0.5l0.199-0.35l0.4-0.4l0.35-0.35
	l0.301-0.351l0.3-0.25l0.149-0.3l0.15-0.2l0.1-0.2l0.051-0.149l-0.051-0.3l-0.049-0.15l0.299-0.35l0.101-0.101l0.05-0.1l-0.1-0.45
	l-0.1-0.2l-0.101-0.1l-0.399-0.15l-0.451-0.05l-0.75,0.25l-0.6,0.2L143.9,132.8l-0.351,0.15l0.2-0.75l0.25-0.8l0.25-0.851l0.3-0.949
	l0.25-1.051l0.3-1.149l0.301-1.25l0.299-1.25l0.201-1.351l0.25-1.199l0.199-1.15l0.2-1.05l0.149-1l0.201-0.851l0.1-0.85l0.199-0.65
	l0.101-0.649l0.101-0.55l0.199-0.851l0.1-0.55v-0.15h0.051l-0.051-1.55v-1.399l-0.1-1.351l-0.05-1.149l-0.101-1.15l-0.1-0.95
	l-0.1-0.5l-0.051-0.399l-0.1-0.75l0.2-0.2l0.149-0.15l0.101-0.149l0.05-0.101l-0.1-0.3l-0.1-0.15l-0.051-0.1l-0.199-0.2l-0.15-0.1
	l-0.15-0.351l-0.15-0.199l-0.25-0.15l-0.35-0.05l-0.5-0.3l-0.25-0.051l-0.199,0.101l-0.101,0.25l-1.3,0.2l-1.25,0.5l-0.95,0.35
	l-0.851,0.35l-0.799,0.25l-0.701,0.15v-0.75l0.051-0.6V102.5l0.05-0.5l0.149-0.35l0.201-0.25l0.35-0.45l0.15-0.35l0.049-0.15
	l0.051-0.05l-0.051-0.101v-0.05l-0.1-0.149l0.25-0.351l0.051-0.1h0.049l-0.1-0.65l-0.1-0.25l-0.1-0.149l-0.201-0.2L139.8,98.3
	l-0.45-0.05h-0.199l-0.201,0.101l-0.299,0.1l-0.25,0.2l-0.351,0.2l-0.351,0.3l-0.449,0.35l-0.4,0.45l-0.65,0.5l-0.5,0.45l-0.5,0.399
	l-0.35,0.351l-0.35,0.25l-0.15,0.2l-0.15,0.1v0.1v-0.25l0.201-0.399l0.199-0.45l0.15-0.55l0.15-0.4l0.049-0.399l0.051-0.25v-0.25
	l0.05-0.25l0.05-0.15l-0.05-0.3l-0.101-0.25l-0.199-0.2l-0.25-0.1l-0.2-0.351l-0.25-0.25l-0.351-0.149h-0.35l-0.85,0.35l-0.15-0.3
	l1.45-0.7l1.351-0.6l1.199-0.601l1.1-0.6l-1.75,5.399l0.551-0.699l0.6-0.601l1.1-1.05l0.451-0.5l0.5-0.4l0.399-0.399l0.45-0.3
	L140.1,96l0.35-0.25l0.301-0.2l0.35-0.1l0.25-0.15l0.25-0.05l0.45,0.05l0.25,0.15l0.101,0.15l0.1,0.25l0.05,0.55v0.35v0.45
	l-0.101,0.4l-0.1,0.5l-0.25,1.149l-0.199,0.601l-0.201,0.699l-0.25,0.7l-0.199,0.8l2-0.399l1.8-0.3l1.601-0.301l1.449-0.25
	l0.2,1.301l0.3,1.5l0.2,1.6l0.3,1.8l0.051,0.95v0.5l0.049,0.6l-0.049,0.551v0.649l-0.051,1.351l-0.15,1.449l-0.1,0.75l-0.05,0.851
	l-0.2,1.7l-0.199,1.85l-0.351,1.8l-0.2,0.9l-0.1,0.45l-0.051,0.5l-0.449,1.8l-0.5,1.8l-0.6,1.7l-0.601,1.75l-0.7,1.7l-0.699,1.699
	l1.75-1.649l1.699-1.55l1.65-1.45l1.65-1.25l-0.25,0.5l-0.201,0.6L150,128.75l-0.5,1.351l-0.551,1.55l-0.649,1.55l-0.7,1.75
	l-0.75,1.85l-0.75,1.95l-0.9,2.05l-0.899,2.15l-0.5,1.1l-0.45,1.2l-0.949,2.45l-1.101,2.5l-1.101,2.65l-1.149,2.75l-1.2,2.899
	l-0.05,0.05L137.65,159l-0.101,0.4l1.649-2.15l1.601-2l1.5-1.899l1.45-1.75l1.3-1.65l1.25-1.55l1.149-1.45l1.101-1.25l0.95-1.25
	l0.9-1.1l0.799-0.95l0.75-0.851l0.65-0.75l0.551-0.649l0.449-0.55l0.4-0.351l0.199,0.3l-1.049,13l0.199-0.199l0.25-0.25l0.301-0.4
	l0.35-0.45l0.35-0.649l0.4-0.7l0.449-0.851l0.5-0.85l0.5-1.1l0.551-1.15l0.6-1.25l0.65-1.35l0.65-1.551l0.699-1.55l0.75-1.75
	l0.801-1.75l0.699-1.899l0.7-1.801l1.3-3.449l0.5-1.7l0.5-1.601l0.45-1.6l0.45-1.5l0.3-1.55l0.3-1.45l0.25-1.4l0.2-1.3l0.101-1.35
	l0.1-1.25l0.1-2.351l-0.15-2.399l-0.25-2.4l-0.199-1.25l-0.15-1.2l-0.199-1.25l-0.15-1.199l-0.551-2.601l-0.549-2.6l-0.201-0.7
	l-0.1-0.35l-0.05-0.301l-0.3-1.3l-0.75-2.7l0.35,0.101l0.4,0.149l0.75,0.301l0.699,0.25l0.65,0.3l0.551,0.2l0.25,0.1l0.299,0.15
	l1,0.399l0.351,0.101h0.05l0.1,0.05l0.201,0.1l0.299,0.101l0.25,0.1h0.051l0.1,0.05l0.15,0.101l0.199,0.1l0.701,0.15l0.649,0.199
	l1.2,0.4l0.5,0.1l0.449,0.2l0.4,0.2l0.35,0.2l-0.5-2.7l-0.399-2.45l-0.399-2.35L172.8,86.8l-0.399-2.05l-0.301-1.8l-0.3-1.7
	l-0.25-1.5L171,77.2l-0.551-2.45l-0.6-2.35l-0.55-2.2L168.65,68l-0.601-2.05l-0.7-1.95l-0.65-1.85l-0.949-2.3l-0.95-2.2l-1.05-2.15
	l-1-2l-1.15-2l-1.1-1.85l-1.2-1.851l-1.149-1.699l-1.301-1.75l-1.3-1.601l-1.399-1.55l-1.351-1.4l-1.45-1.399l-1.449-1.3
	l-1.551-1.25l-1.5-1.101l-1-0.7l-1.05-0.699l-1.25-0.801l-1.25-0.8l-1.45-0.899l-1.5-0.9l-1.65-1l-1.75-1l-0.75-0.45l0.65-0.1
	l0.85-0.05l0.851-0.051l1,0.051l2.149,0.149l1.15,0.101l1.35,0.199l1.301,0.15l1.449,0.25l1.451,0.25l1.649,0.3l1.649,0.3
	l1.75,0.351l1.801,0.35l1.949,0.45l-2-2.25l-1.049-1.05l-1.101-1l-1.2-1L149.65,24l-2.601-1.75l-2.899-1.649l-1.5-0.75l-1.551-0.7
	l-1.65-0.7l-1.649-0.6l-1.7-0.601l-1.75-0.55l-3.65-1.05l-3.6-0.95l-3.6-0.8l-3.551-0.65l-3.6-0.55l-3.5-0.4l-3.5-0.3l-3.449-0.149
	L103.1,11.75l-2.6-0.1l-2.35-0.101L97.05,11.5h-1l-1.899-0.1L92.449,11.3l-1.5-0.1l-1.199-0.1l-0.301-0.4l-0.199-0.4l-0.2-0.449
	l-0.1-0.4L88.8,8.9l-0.05-0.5l-0.05-0.55L88.75,7.3L88.8,6.15l0.15-1.05l0.25-0.95l0.451-0.8L89.75,3V2.851L89.8,2.8L89.65,2.75
	H89.5l-0.1,0.101L89.15,2.9L88.95,3.05L88.7,3.2l-0.25,0.25l-0.35,0.2l-0.35,0.3l-0.4,0.3l-0.4,0.4l-0.8,0.6L85.4,6l-0.8,0.851
	l-0.7,1L83.1,8.9l-0.7,1.25l-0.8,1.35l-0.7,1.45l-1.65-0.7l-1.55-0.6l-1.45-0.7l-1.35-0.6L72.8,9.4l-2.1-0.65L68.6,8.3L66.5,8.15
	l0.3,0.5l0.45,0.7l0.45,0.85l0.6,1.1l0.6,1.2l0.7,1.4l0.75,1.55l0.85,1.75l-1-0.15l-1.05-0.1l-1.2-0.1H66.7h-1.45l-1.5,0.05L62.1,17
	L60.4,17.15L60.4,17.15z M143.3,50.101l0.399,0.25v0.05L143.3,50.101L143.3,50.101z M116,91.05L115.85,91l-0.3,0.05l-0.25,0.15
	l-0.2-0.1l-0.15,0.05l-0.1,0.149v0.301L114.4,92.05L114,92.7l-0.5,0.75l-0.25,0.4l-0.2,0.5L112.6,94.8l-0.35,0.45l-0.551,0.7
	l-0.449,0.5l-0.15,0.2L111,96.8l-0.85-1.3l-0.75-1.149l-0.701-1.051l-0.649-0.949L107.4,91.5l-0.551-0.75l-0.5-0.649l-0.4-0.551
	l0.75-1.3l0.851-1.35l0.3,0.95l0.4,0.85l2.449,5.4l0.551-0.45l0.65-0.55l0.699-0.65l0.85-0.7l0.851-0.85l1-0.95l1.05-1.05
	l1.15-1.101l0.75,1.801l-0.551,0.449l-0.299,0.301l-0.25,0.399l-0.301-0.1h-0.25h-0.15l-0.1,0.1l-0.199,0.101L116,91.05L116,91.05z
	 M127,90.65l0.199,0.6l0.201,0.8l0.299,1.9l0.051,0.9l0.1,0.949v0.851v0.899l-0.1,0.801l-0.051,0.399v0.45l1.9-0.75l1.85-0.65
	l-0.1,0.351l-4.25,1.7l-0.3-1.101l-0.25-0.95l0.101-0.1l0.149-0.1l0.101-0.2l0.049-0.101l0.101-0.05l0.05-0.3l0.1-0.25v-0.35
	l0.051-0.301l-0.1-0.699L127.05,95l-0.101-0.3l-0.199-0.4l-0.1-0.199L126.6,94v-0.05l-0.449-0.7l-0.451-0.55l-0.35-0.2l-0.25,0.05
	l-0.05,0.351h-0.2l-0.35,0.05L124.3,93l-0.2,0.15l-0.55,0.35l-0.601,0.55l-0.1-0.05v0.15l-0.3,0.25l-0.95,0.8l-0.4,0.35L120.9,95.9
	l-0.351,0.25l-0.25,0.25l-0.351,0.35l-0.299-0.35l-0.15-0.2l-0.1-0.15l-0.5-0.75l-0.601-0.85l-0.5-0.95l0.351-0.6l0.399-0.5
	l0.3-0.45l0.301-0.35l1.049,2.5l2-1.051l0.9-0.5l0.9-0.399l1.6-0.851L127,90.65L127,90.65z M93.699,83.851L94.05,84.5l1.101,1.75
	l0.549,0.8L96.3,87.9l0.5,0.75l0.55,0.8l1.1,1.45L99,90.4l0.3-0.3l0.399-0.25l0.851-0.7l0.95-0.8l1.05-1l0.55-0.551l0.65-0.5
	l1.35-1.199l1.45-1.25l0.3,1.05l0.15,0.5l0.199,0.55l-1.5,0.75l-1.399,1.15l-0.351-0.2l-0.199,0.1l-0.15,0.3v0.5l-0.4,0.301
	l-0.35,0.399L102,90.2l-2.051,2.2l-1.85,2.3l-0.85-1.65L96.6,91.65l-0.55-1.15l-0.45-0.85l-0.55-0.8l-0.351-0.801l0.101-0.3
	l0.101-0.2l0.049-0.149L95,87.351l-0.051-0.4l-0.1-0.25l-0.15-0.3L94.5,86.25l-0.301-0.149h-0.35l-0.3,0.149l-0.399-0.3l-0.301-0.1
	L92.5,85.9l-0.2,0.149l-0.101,0.15l-0.1,0.15l0.051,0.25L92,86.75L91.9,87l-0.051,0.75l0.1,0.2L91.6,88.3l-0.3,0.45l-0.351,0.5
	l-0.299,0.601L90,90.75l-0.65,1.05l-0.7,1.101l-0.7,1.2l-0.65-1.4l-0.5-1.25l-0.5-1.15l-0.35-0.949l-0.25-1L85.5,87.5l0.4-0.55
	l0.15-0.25l0.2-0.15l0.15-0.25l0.05-0.1h0.05l-0.05-0.3v-0.2l-0.1-0.35l-0.15-0.25L86,84.95l-0.3-0.05h-0.2L85.35,85l-0.4,0.15
	L84.5,85.5l-0.1-0.1l-0.35-0.45l-0.3-0.25l-0.25-0.1l-0.15,0.05l-0.2,0.149l-0.1,0.351L83,85.601v0.649l0.1,0.351l-0.45,0.35
	l-0.6,0.45L81.4,88.05l-0.7,0.65l-0.75,0.8l-0.85,0.8l-0.85,0.95L77.3,92.2l-0.95,1.1l-0.1-0.1l-0.05-0.1l-0.1-0.25l-0.1-0.2
	l-0.05-0.2L75.85,92l-0.1-0.2l-0.05-0.1v-0.05l-0.1-0.3l-0.2-0.7l-0.1-0.25l-0.05-0.2l-0.1-0.4l-0.1-0.25L75,89.351l-0.1-0.45
	l-0.25-0.65l-0.2-0.55l-0.4-0.85l0.5-0.65l0.4-0.45l0.2-0.35L75.2,85.3h0.05l-0.05-0.55l-0.15-0.35l-0.15-0.15l-0.1-0.05l-0.3-0.05
	l-0.45,0.05l-0.25,0.05l-0.2,0.15L73,84.75l-0.65,0.55L72,85.601l-1,0.85l-0.7,0.7l-0.6,0.55l-0.25,0.2l-2.1,2.2l-1.8,2.3
	l-0.3,0.399l-0.65,0.95l-0.1-0.149v-0.25l-0.1-0.4V92.5l-0.2-1.85l-0.2-1.5l-0.05-0.5l0.15-0.25h0.05l0.2-0.55l0.25-0.45l0.4-0.75
	L65.25,86l0.1-0.25l0.1-0.149l0.75,4.6l0.85-1l1.05-1l1.15-1.1l1.25-1.15l0.85-0.85l0.8-0.7l0.75-0.65l0.7-0.5l0.6-0.5l0.55-0.35
	l0.5-0.3l0.45-0.15v0.45l0.1,0.6l0.1,0.75l0.2,0.95l0.2,1.05l0.3,1.2l0.35,1.35l0.45,1.5l0.45-0.6l0.25-0.35l0.35-0.301l0.75-0.85
	l0.4-0.5l0.5-0.45l0.95-1.149l1.15-1.2l1.25-1.4l0.65-0.75l0.75-0.7l3.8,8.301l0.7-0.9l0.7-0.8l1.351-1.55l1.199-1.45l0.551-0.7
	L93.699,83.851L93.699,83.851z M148.75,83.4l-0.2,0.35l-0.101,0.351l0.051-0.4l0.1-0.35L148.75,83.4L148.75,83.4z M45.85,96.4
	l-0.2-0.55L45.5,95.4l-0.3-0.8L45,94.2l-0.15-0.25l-0.1-0.4l-0.05-0.3L44.6,93l-0.1-0.149l-0.15-0.301l-0.1-0.149l-0.2-0.101
	l-0.15,0.051l-0.25,0.05l-0.2,0.2l-0.3,0.25L42.9,93.25l-0.25,0.05l-0.15,0.15l-0.1,0.45l-0.05,0.05l-0.5,0.45l-0.5,0.55L40.6,95.8
	L39.8,96.9l-0.35,0.5l-0.6,0.85L38.6,97.5l-0.2-0.6l-0.2-0.45l0.05-0.1V96.2l-0.1-0.65l-0.1-0.25l-0.1-0.149l-0.2-0.2l-0.2-0.1
	L37.1,94.8l-0.3,0.15l-0.7-0.15h-0.35l-0.25,0.15l-0.15,0.1l-0.15,0.4v0.3l0.1,0.3v0.051l0.05,0.1l0.1,0.2l-0.6,0.85l-0.5,0.65
	l-0.45,0.75l-0.55,0.8l-0.5,0.9L32.4,99.4l-0.35-0.8l-0.35-0.75l-0.3-0.65v-0.5v-0.25l0.05-0.2l0.05-1V95l0.15-0.3l0.15-0.2
	l0.25,0.8l0.35,0.95l0.35,1.05l0.45,1.2l0.85-2l1-1.649l1-1.45L37.2,92.3l0.5,0.601l0.55,0.7l1,1.449l0.25,0.45l0.1-0.3l0.2-0.25
	l0.2-0.35l0.35-0.351l0.3-0.45l0.4-0.449l0.45-0.5l0.55-0.5l0.65-0.801l0.85-0.85l0.85-0.95l1-1l0.3,1.2L46,91l0.2,0.9l0.1,0.399
	l0.15,0.4l1.15-1.45L48.65,90l0.95-1.149l0.45-0.551l0.5-0.449l0.75-0.95l0.35-0.45l0.4-0.35l0.6-0.65l0.25-0.3l0.3-0.2l0.35,0.8
	l0.55,1.101l0.55,1.35l0.7,1.65l0.05-0.2l0.1-0.101V89.5l0.05,0.05H55.5v0.101L55.4,90l0.75,1.95l0.05,0.15l0.5,1.399l0.9-1.149
	l0.9-1l0.85-1l0.85-0.9l-0.6,1l-0.55,0.95l-0.55,0.85l-0.5,0.8l-0.5,0.7l-0.45,0.65l-0.4,0.55L56.3,95.5l-0.1,0.15l-0.75-1.95
	l-0.35-0.9l-0.25-0.55l-0.3-0.7V91.5h-0.2l-0.2-0.1L54,91.2l-0.1-0.15l-0.3-0.5l0.1,0.15l0.15,0.2l0.1,0.1L54,91.05l0.1,0.101
	l0.05,0.05l0.1,0.05V91.2h0.05h0.1l-0.3-0.65l-0.25-0.449l-0.25-0.45l-0.2-0.25l0.15-0.4l0.15-0.3l0.1-0.25l0.05-0.1L53.8,87.9
	V87.55l-0.1-0.35l-0.05-0.25l-0.2-0.4l-0.15-0.1h-0.1h-0.4l-0.45,0.25l-0.5,0.4l-0.3,0.3L51.3,87.8l-0.65,0.65l-0.6,0.8l-0.35,0.4
	l-0.3,0.5l-0.6,1.05l-0.4,0.5l-0.35,0.6l-0.7,1.25L46.6,94.9l-0.4,0.7L45.85,96.4L45.85,96.4z M30.95,92.601l-0.4-0.15H30.1h-0.15
	l0.1-0.3l0.15-0.2l0.2-0.3l0.1,0.2l0.05,0.1l0.1,0.15L30.95,92.601L30.95,92.601z M28.65,95.101l0.05,0.05l-0.1,0.1L28.65,95.101
	L28.65,95.101z M65.25,84.65L65.1,84.5L65,84.45l-0.35-0.05l0.5-0.5L65.25,84.65L65.25,84.65z"/>
<polygon fill-rule="evenodd" fill="#FFCD05" points="63.95,88.65 64,89.15 64.2,90.65 64.4,92.5 64.4,92.95 64.5,93.351 
	64.5,93.601 64.6,93.75 65.25,92.8 64.6,90.55 64.15,88.4 64.1,88.4 63.95,88.65 "/>
<polygon fill-rule="evenodd" fill="#FFCD05" points="38.85,98.25 39.45,97.4 38.95,97.3 38.6,97.05 38.4,96.9 38.6,97.5 
	38.85,98.25 "/>
<polygon fill-rule="evenodd" fill="#FFCD05" points="55.4,90 55.5,89.65 55.5,89.55 55.55,89.55 55.5,89.5 55.5,89.55 55.4,89.65 
	55.35,89.851 55.15,90.05 54.95,90.351 54.65,90.7 54.4,91.2 54.3,91.2 54.25,91.2 54.25,91.25 54.15,91.2 54.1,91.15 54,91.05 
	53.95,91 53.85,90.9 53.7,90.7 53.6,90.55 53.9,91.05 54,91.2 54.15,91.4 54.35,91.5 54.55,91.5 54.75,90.95 55,90.55 55.2,90.2 
	55.4,90 "/>
<path fill-rule="evenodd" fill="#B3D335" d="M124.15,100.4l-0.301-1.15l-0.25-0.95l-0.85,0.45l-0.75,0.5l-1.35,0.95l-0.65,0.4
	l-0.551,0.449L118.9,101.4l-0.451,0.399l-2.25-6.149L115.8,96l-0.45,0.45l-0.65,0.5l-0.649,0.6l-0.899,0.601l-0.951,0.7l-1.1,0.75
	l-1.15,0.85l-5.199-8.95l-1.1,0.9l-0.951,0.95l-0.949,0.85l-0.801,0.9l-0.85,0.75l-0.699,0.8l-0.65,0.7l-0.551,0.75L97.9,97.65
	l-0.25-0.4l-0.551-0.8l-1.15-1.7l-0.35-0.5l-0.3-0.45L94.65,92.9l-0.701-0.95l-0.649-0.9l-1.649,1.5l-1.5,1.551L88.7,95.7
	l-1.25,1.65l-3.6-7.75l-0.55,0.6l-0.6,0.75l-0.65,0.8l-0.7,0.95l-0.95,1l-0.75,0.95L78.9,95.4l-0.6,0.75l-0.55,0.55l-0.45,0.45
	l-0.35,0.3L76.7,97.7l-0.75-1.35l-0.65-1.2L74.65,94l-0.5-1.05L73.6,91.9l-0.45-0.851l-0.4-0.85l-0.3-0.65L72.1,89.8l-0.3,0.351
	l-0.4,0.35l-0.35,0.45l-0.5,0.4l-0.45,0.5L69.05,93l-1.25,1.25l-1.4,1.45l-1.55,1.55L64,98.101l-0.8,0.949l-0.45-1.25l-0.2-0.55
	L62.4,96.9l-0.3-0.55l-0.2-0.45l-0.2-0.45l-0.1-0.3l-0.15-0.3l-0.05-0.2l-0.05-0.2l-1,0.9L59.5,96.25l-0.8,0.8L58,97.851L57.3,98.5
	l-0.55,0.65l-0.5,0.55l-0.4,0.55l-0.8-1.5l-0.4-0.8l-0.2-0.4l-0.1-0.199L54.3,97.25V97.2l-0.1-0.15l-0.05-0.1l-0.1-0.2l-0.2-0.399
	l-0.4-0.801l-0.8-1.699L51.3,95.4l-1.15,1.45l-1.05,1.3l-0.95,1.25l-0.85,1.05l-0.4,0.5l-0.3,0.55l-0.35,0.4l-0.25,0.45l-0.45,0.85
	l-0.3-0.65l-0.75-1.399L43.9,100l-0.6-1l-0.5-0.7l-0.2,0.25L42.45,98.9l-0.4,0.8l-0.7,1.1l-0.55,1.051l-0.55,0.85l-0.4,0.8
	l-0.4,0.601l-0.3,0.55L38.9,105l-0.1,0.3l-0.55-1.05l-0.4-0.899L37.5,102.5l-0.25-0.649L37,101.25l-0.1-0.45l-0.1-0.35l0.05-0.25
	l-0.35,0.2l-0.3,0.35l-0.35,0.4l-0.3,0.5l-0.7,1.1l-0.35,0.65l-0.3,0.8l-0.75,1.45l-0.6,1.45l-0.1-0.051H32.7h-0.1l-0.2-0.149
	l-0.1-0.101l-0.05-0.05l-0.1-0.1l-0.2-0.351l-0.3-0.449l-0.25-0.5l-0.3-0.65l-0.1-0.2l-0.05-0.1v-0.05l-0.1-0.301l0.3,9.65l0.15,2.8
	l0.25,3l0.25,3.15l0.3,3.3l0.1,1.5l0.1,1.45l0.1,1.35v0.3v0.15l0.05,0.2l0.1,0.7l0.1,1.149l0.1,1.15l0.1,1.05l0.1,1v0.85l0.1,0.801
	l0.05,0.699l0.1,0.65v0.55v0.2v0.1v0.051l0.05,0.1v0.35l0.1,0.351v0.149v0.101v0.149v0.101v0.5l0.05,0.5l0.1,0.8v0.3l0.05,0.3v0.25
	v0.101v0.05l0.05,0.1l-0.05,0.301v0.25L33.5,144.8v0.2v0.05l3.1,2.351l3.2,2.2l3.2,2.05l3.25,1.95l3.25,1.75l3.3,1.6l3.3,1.45
	l3.35,1.35l3.35,1.101l3.4,1l3.4,0.85l3.5,0.75l3.45,0.5l3.5,0.4l3.55,0.25l3.6,0.1l0.9-0.05h0.95l1.899-0.05l3.701-0.25l3.6-0.45
	l3.6-0.55l3.5-0.801l1.7-0.449l0.399-0.15l0.451-0.1l0.899-0.2l0.8-0.3l0.4-0.15l0.449-0.1l1.701-0.551l1.649-0.6l1.7-0.6
	l3.199-1.45l1.551-0.8l1.6-0.75l1.5-0.9l0.35-0.25l0.4-0.2l0.801-0.399l1.5-0.95l0.75-0.5l0.799-0.45l0.701-0.55l0.75-0.5l1.5-1.05
	l2.899-2.2l2.8-2.4l2.801-2.55l0.149-0.65l0.25-0.649l0.25-0.7l0.351-0.7l0.449-1.1l0.6-1.15l-0.799,0.25l-0.65,0.101l-0.7,0.25
	l-0.3,0.05l-0.551,0.2l0.301-1.25l0.35-1.351l0.4-1.55l0.5-1.65l0.85-3.699l0.85-3.551l0.65-3.55l0.65-3.399l0.449-3.351l0.451-3.25
	l0.35-3.2l0.25-3.05l-0.75,0.351l-0.801,0.399l-1.799,0.95l-2.101,1.05l-1.149,0.55l-1.201,0.65v-0.4l0.15-0.449l0.15-0.551
	l0.25-0.6l0.25-0.75l0.4-0.75l0.399-0.85l0.5-0.9l-1.2,0.4l-1.05,0.449l-1.05,0.4l-0.9,0.45l-0.9,0.35l-0.799,0.4l-0.75,0.3
	l-0.601,0.35l-0.149-1.199l-0.101-1.051l-0.101-0.899v-0.75l-0.1-0.65v-0.45v-0.35v-0.15V101.9h-0.25l-0.949,0.75l-1,0.85l-1.15,0.9
	l-1.15,1.05l-0.3-0.1l-0.101-0.101l-0.049-0.05l-0.101-0.1l-0.3-0.4l-0.301-0.55l-0.199-0.4l-0.1-0.2l-0.051-0.1v-0.05l-0.3-0.851
	l-0.2-0.5l-0.15-0.5L124.15,100.4L124.15,100.4z M96.4,109.8l-0.15-1l-0.65-0.3l-0.55-0.2l-0.45-0.199l-0.35-0.15l-0.35-0.2
	l-0.15-0.149l-0.15-0.25l0.15-0.25L93.9,107l0.35-0.05l0.35-0.1h0.45h1.149L97.4,106.8l1.299,0.15l1.25,0.25l1.301,0.35l1.199,0.351
	l1.25,0.55l1.201,0.65l1.25,0.75l-0.701,0.25l-6.699,0.949l-1.2,0.15l-0.2,1.45l-0.15,1.649l-0.1,1.801l-0.05,2L97,120.15l0.05,2.25
	l0.05,2.399l0.1,2.601v1.25l0.051,1.149v1.051l0.1,1.05v0.899l0.1,0.851l0.051,0.75l0.1,0.7v0.55l0.1,0.45l0.051,0.399l0.1,0.351
	l0.051,0.199l0.1,0.15l0.1,0.05h0.1l0.25-0.35l0.201-0.15l0.149-0.05l0.05,0.05l-0.05,0.101V137v0.25l-0.101,0.2l-0.049,0.1v0.15
	l-0.15,0.1l-0.1,0.15l-0.301,0.15l-0.199-0.15l-0.101-0.2l-0.2-0.3l-0.1-0.35L97.3,137l-0.2-0.149l-0.199-0.25l-0.201-0.301
	L96.5,135.9l-0.2-0.45l-0.2-0.55L96,134.3l-0.2-0.699l-0.149-0.75L95.449,132l-0.1-0.899l-0.199-1l-0.101-1.051l-0.2-1.149l-0.1-1.2
	l-0.25-2.45l-0.2-2.149l-0.101-0.95L94.15,120.3l-0.101-1.449l-0.101-1.15l-0.049-0.45v-0.35l-0.051-0.351V116.4v-0.15v-0.95
	l0.051-0.8l0.1-0.7l0.199-0.55l0.201-0.55l0.35-0.45l0.35-0.35l0.5-0.25l0.051-0.7l0.149-0.5l0.25-0.4L96.4,109.8L96.4,109.8z
	 M102.1,111.4l0.15-0.101l4.1,0.051H105h-1.6L102.1,111.4L102.1,111.4z M53.55,97.851V97.8l0.05,0.051H53.55L53.55,97.851z
	 M57,101.95h0.1L57.05,102L57,101.95L57,101.95z M56.45,101.25v0.05l-0.35,0.2l-0.25,0.101h-0.1L56.45,101.25L56.45,101.25z
	 M58.25,112.7l1.2-0.5l1-0.35l0.4-0.2l0.35-0.101l0.3-0.1l0.25-0.1l0.15-0.101l0.1-0.1l0.05-0.101l-0.2-0.05l-0.4,0.05H60.4
	l-0.75,0.101H59.1l-0.25,0.1l1.35-0.55l1.55-0.65l1.7-0.699l1.85-0.75l1.45-0.7l1.45-0.601l1.25-0.6l1.25-0.45l1.05-0.5l1.05-0.35
	l0.95-0.351l0.85-0.199l0.7-0.25l0.65-0.101l0.55-0.1h0.45h0.35l0.25,0.1l0.15,0.15l0.05,0.25L77.7,105.3l-0.1,0.4l-0.4,0.95
	l-0.3,0.5l-0.35,0.55l-0.4,0.55l-0.45,0.601l-0.7,0.5l-0.9,0.6l-1.2,0.5l-0.7,0.25l-0.7,0.3l-0.85,0.2l-0.45,0.1l-0.4,0.15
	l-0.95,0.2l-1,0.3l-2.2,0.4l-2.4,0.5L62,113l-1.15,0.15l-1,0.1L59,113.4l-0.75,0.05l-0.6,0.1h-0.5l-0.35,0.051l-0.2-0.051h-0.1
	l-0.15-0.05v-0.1l0.15-0.05l0.25-0.15l0.35-0.15l0.5-0.199L58.25,112.7L58.25,112.7z M69.8,126.851l0.35-0.9l0.5-0.8l0.6-0.8
	l0.8-0.7l0.85-0.7l1-0.65l1.15-0.649l1.3-0.55l1.25-0.551l0.55-0.199l0.55-0.101l0.9-0.149H80l0.4,0.1l0.25,0.05l0.3,0.15l0.45,0.45
	l0.1,0.25l0.15,0.35l0.05,0.4l0.05,0.5l-0.8,1.449l-0.75,1.351l-0.7,1.2l-0.65,1.149l-0.7,0.95l-0.65,0.95l-0.6,0.75l-0.6,0.75
	l1.05,1.05l0.6,0.65l0.6,0.649l0.5,0.601l0.25,0.3l0.3,0.35l0.2,0.25l0.25,0.3l0.2,0.25l0.25,0.301l0.35,0.5l0.4,0.55l0.25,0.399
	l0.3,0.45l0.2,0.4l0.2,0.399l0.1,0.301l0.15,0.3v0.1v0.05l0.05,0.101l0.05,0.3l-0.05,0.3l-0.15,0.4l-0.2,0.3l-0.1,0.05L82,140.601
	l-0.1,0.199l-0.3,0.15l-0.25,0.2l-0.35,0.1l-0.3,0.15l-0.4,0.05l-0.35,0.1H79.7l-0.2,0.051l-0.4,0.05l-1.05-0.101l-1-0.149l-1-0.3
	l-0.95-0.351l-0.95-0.55l-0.9-0.55l-0.85-0.75l-0.8-0.75l-0.75-0.8L69.9,138.3l-0.9,0.801l-0.85,0.75l-0.8,0.6L66.6,141l-0.75,0.351
	l-0.7,0.35l-0.65,0.15l-0.6,0.1l-0.95-0.1l-0.4-0.15l-0.3-0.1l-0.55-0.45l-0.2-0.3l-0.1-0.301l-0.1-0.649v-0.4v-0.3v-0.05l0.05-0.9
	l0.15-0.899l0.3-0.9l0.45-0.8l0.55-0.9l0.7-0.899l0.8-0.9l0.95-0.8l-1-0.851l-0.75-0.55l-0.6-0.45l-0.6-0.449l-0.45-0.351
	L61,128.851l-0.55-0.45l-0.8-0.8l-0.3-0.4l-0.2-0.35l-0.3-0.801l-0.1-0.8v-0.6l0.15-0.45l0.15-0.4l0.35-0.3l0.35-0.3l0.5-0.15
	l0.55-0.1h0.7h0.85l0.85,0.1l0.8,0.101l0.85,0.25l0.7,0.2l0.75,0.35l0.7,0.35l0.7,0.5l0.6,0.45l0.55,0.5l0.5,0.5L69.8,126.851
	L69.8,126.851z M58.8,144.601l1.15-0.75l1.3-0.65l1.3-0.6l1.45-0.45l0.9-0.3l0.85-0.2l0.8-0.2l0.75-0.1l0.65-0.101l0.65,0.05
	l0.55,0.051l0.55,0.149l0.4,0.101l0.4,0.25l0.3,0.25l0.3,0.35l0.2,0.35l0.15,0.45l0.1,0.5l0.05,0.601l-0.1,0.399l-0.15,0.4
	l-0.35,0.45l-0.4,0.5l-0.6,0.5l-0.65,0.5l-0.85,0.55l-0.85,0.6l-1.1,0.55l-1.05,0.5l-1,0.4l-1,0.35l-1,0.25l-1,0.2l-1,0.101
	l-0.9,0.05l-0.65-0.05l-0.45-0.051l-0.35-0.1l-0.25-0.05l-0.55-0.45l-0.55-0.3l-0.05-0.101V149.4l-0.1-0.2L56.6,149l-0.1-0.35
	l-0.05-0.4l-0.05-0.45v-0.55l0.15-0.6l0.15-0.351L57,146l0.75-0.7L58.8,144.601L58.8,144.601z M135.05,140.55l1.3-0.5l1.1-0.35v0.05
	l-0.049,0.05L135.05,140.55L135.05,140.55z M137.449,139.9l-0.149,0.8l-0.399,1.05L137.449,139.9L137.449,139.9z M109.75,121.55
	l1.4,0.801l1.399,1.1v-0.05l0.101-0.05l0.1-0.101l0.199-0.05l0.15-0.2l0.25-0.149l0.551-0.351l0.6-0.45l0.6-0.3l0.6-0.149
	l0.701-0.051l0.549,0.051l0.25,0.05l0.25,0.149l0.15,0.101l0.2,0.2l0.149,0.199l0.15,0.301l0.1,0.55l0.051,0.6l-0.1,0.45
	l-0.301,0.55l-0.5,0.65l-0.6,0.85l-1.5,1.7v0.1l0.1,0.4l0.15,0.5l0.3,0.75l0.2,0.85l0.199,0.801l0.101,0.699l0.05,0.7l-0.05,0.2
	l-0.05,0.1v0.15l-0.15,0.2l-0.1,0.25l-0.25,0.1l-0.2,0.15H115.4l-0.101,0.05l-0.2,0.05l-0.5-0.1l-0.15-0.101l-0.1-0.05l-0.199-0.1
	l-0.301-0.25l-0.25-0.2l-0.3-0.3l-0.101-0.101l-0.049-0.05l-0.101-0.1l-0.3-0.4l-0.2-0.3l-0.351-0.45l-0.25-0.35l-0.1-0.101
	l-0.699,0.45l-0.601,0.45L110,132.3l-0.45,0.301l-0.45,0.199l-0.35,0.2l-0.35,0.101l-0.201,0.05l-0.35-0.05l-0.25-0.051
	l-0.449-0.149l-0.351-0.25l-0.149-0.2l-0.051-0.15l-0.1-0.449v-0.25v-0.15v-0.05l0.05-0.55l0.25-0.551l0.149-0.35l0.25-0.3
	l0.25-0.351l0.351-0.3l0.55-0.649l0.4-0.45l0.1-0.2l0.15-0.1l0.05-0.101h0.05l-0.5-0.85l-0.5-0.9l-0.5-0.95l-0.3-0.75l-0.2-0.649
	l-0.05-0.55v-0.65l0.149-0.5l0.15-0.35l0.35-0.2l0.351-0.101l0.5,0.051l0.55,0.149L109.75,121.55L109.75,121.55z M112,140.851
	l-0.051-0.101l-0.049-0.1v-0.05l-0.101-0.2l-0.101-0.2l-0.149-0.35l-0.101-0.4L111.4,139v-0.55l0.049-0.6l0.25-0.5l0.4-0.45l0.6-0.4
	l0.701-0.399l0.949-0.351l1.051-0.3l1.299-0.2l1.351-0.25l1.25-0.05l1.2,0.1l0.55,0.101l0.601,0.2l1.049,0.35l0.951,0.55l0.899,0.7
	l0.399,0.4l0.451,0.5L124.8,138.5l-0.5,0.55l-0.5,0.45l-0.45,0.351l-0.699,0.35l-0.701,0.35l-0.399,0.101l-0.2,0.05l-0.15,0.1
	L120.8,140.9l-0.2,0.05l-0.15,0.1l-0.899,0.15h-0.25l-0.2,0.05l-0.4,0.101h-0.5h-0.25l-0.199,0.05h-0.5H117l-0.2,0.05l-0.5-0.05
	h-0.5l-1.101-0.101l-1.299-0.199l-0.701-0.15L112,140.851L112,140.851z M103.1,144l-0.1,0.4l-0.301,0.399l-0.5,0.301l-0.299,0.149
	l-0.301,0.2l-0.5,0.1l-0.5,0.15l-1.1,0.2l-0.7,0.05l-0.7,0.1h-0.75h-0.4H96.75h-0.1H96.6v0.051l-0.65-0.051l-0.299-0.1l-0.201-0.05
	l-0.25-0.15l-0.149-0.1l-0.2-0.3l-0.1-0.551v-0.149v-0.05l0.05-0.5l0.2-0.4l0.3-0.35l0.5-0.25l0.55-0.25l0.75-0.101l0.85-0.05
	l1,0.05h0.9l0.85,0.101l0.701,0.1l0.649,0.15l0.399,0.149l0.351,0.2l0.2,0.25L103.1,144L103.1,144z"/>
<polygon fill-rule="evenodd" fill="#8CC63F" points="96.25,108.8 96.4,109.8 96.05,110.05 95.8,110.45 95.65,110.95 95.6,111.65 
	95.1,111.9 94.75,112.25 94.4,112.7 94.199,113.25 94,113.8 93.9,114.5 93.85,115.3 93.85,116.25 93.85,116.4 93.85,116.55 
	93.9,116.9 93.9,117.25 93.949,117.7 94.05,118.851 94.15,120.3 94.199,121.15 94.3,122.101 94.5,124.25 94.75,126.7 94.85,127.9 
	95.05,129.05 95.15,130.101 95.35,131.101 95.449,132 95.65,132.851 95.8,133.601 96,134.3 96.1,134.9 96.3,135.45 96.5,135.9 
	96.699,136.3 96.9,136.601 97.1,136.851 97.3,137 97.5,137.101 97.6,137.45 97.8,137.75 97.9,137.95 98.1,138.101 98.4,137.95 
	98.5,137.8 98.65,137.7 98.65,137.55 98.699,137.45 98.8,137.25 98.8,137 98.8,136.851 98.85,136.75 98.8,136.7 98.65,136.75 
	98.449,136.9 98.199,137.25 98.1,137.25 98,137.2 97.9,137.05 97.85,136.851 97.75,136.5 97.699,136.101 97.6,135.65 97.6,135.101 
	97.5,134.4 97.449,133.65 97.35,132.8 97.35,131.9 97.25,130.851 97.25,129.8 97.199,128.65 97.199,127.4 97.1,124.8 97.05,122.4 
	97,120.15 97.05,118.101 97.1,116.101 97.199,114.3 97.35,112.65 97.55,111.2 96.6,111.351 96.55,111 96.65,111.3 98.75,111.05 
	105.449,110.101 106.15,109.851 104.9,109.101 103.699,108.45 102.449,107.9 101.25,107.55 99.949,107.2 98.699,106.95 97.4,106.8 
	96.199,106.851 95.05,106.851 94.6,106.851 94.25,106.95 93.9,107 93.75,107.101 93.6,107.351 93.75,107.601 93.9,107.75 
	94.25,107.95 94.6,108.101 95.05,108.3 95.6,108.5 96.25,108.8 "/>
<polygon fill-rule="evenodd" fill="#90C73E" points="98.75,111.05 96.65,111.3 96.55,111 96.6,111.351 97.55,111.2 98.75,111.05 "/>
<polygon fill-rule="evenodd" fill="#90C73E" points="102.25,111.3 102.1,111.4 103.4,111.351 105,111.351 106.35,111.351 
	102.25,111.3 "/>
<polygon fill-rule="evenodd" fill="#F8981D" points="56.45,101.3 56.45,101.25 55.75,101.601 55.85,101.601 56.1,101.5 56.45,101.3 
	"/>
<polygon fill-rule="evenodd" fill="#8CC63F" points="61.45,111.05 61.85,111 62.05,111.05 62,111.15 61.9,111.25 61.75,111.351 
	61.5,111.45 61.2,111.55 60.85,111.65 60.45,111.851 59.45,112.2 58.25,112.7 57.6,112.851 57.1,113.05 56.75,113.2 56.5,113.351 
	56.35,113.4 56.35,113.5 56.5,113.55 56.6,113.55 56.8,113.601 57.15,113.55 57.65,113.55 58.25,113.45 59,113.4 59.85,113.25 
	60.85,113.15 62,113 63.25,112.851 65.65,112.351 67.85,111.95 68.85,111.65 69.8,111.45 70.2,111.3 70.65,111.2 71.5,111 
	72.2,110.7 72.9,110.45 74.1,109.95 75,109.351 75.7,108.851 76.15,108.25 76.55,107.7 76.9,107.15 77.2,106.65 77.6,105.7 
	77.7,105.3 77.75,104.9 77.7,104.65 77.55,104.5 77.3,104.4 76.95,104.4 76.5,104.4 75.95,104.5 75.3,104.601 74.6,104.851 
	73.75,105.05 72.8,105.4 71.75,105.75 70.7,106.25 69.45,106.7 68.2,107.3 66.75,107.9 65.3,108.601 63.45,109.351 61.75,110.05 
	60.2,110.7 58.85,111.25 59.1,111.15 59.65,111.15 60.4,111.05 61.45,111.05 "/>
<path fill-rule="evenodd" fill="#8CC63F" d="M76.35,121.101l-1.3,0.55L73.9,122.3l-1,0.65l-0.85,0.7l-0.8,0.7l-0.6,0.8l-0.5,0.8
	l-0.35,0.9l-0.45-0.601l-0.5-0.5l-0.55-0.5l-0.6-0.45l-0.7-0.5l-0.7-0.35l-0.75-0.35l-0.7-0.2L64,123.15l-0.8-0.101l-0.85-0.1H61.5
	h-0.7l-0.55,0.1l-0.5,0.15l-0.35,0.3l-0.35,0.3l-0.15,0.4l-0.15,0.45v0.6l0.1,0.8l0.3,0.801l0.2,0.35l0.3,0.4l0.8,0.8l0.55,0.45
	l0.85,0.649l0.45,0.351l0.6,0.449l0.6,0.45l0.75,0.55l1,0.851l-0.95,0.8l-0.8,0.9l-0.7,0.899l-0.55,0.9l-0.45,0.8l-0.3,0.9
	l-0.15,0.899l-0.05,0.9v0.05v0.3v0.4l0.1,0.649l0.1,0.301l0.2,0.3l0.55,0.45l0.3,0.1l0.4,0.15l0.95,0.1l0.6-0.1l0.65-0.15l0.7-0.35
	L66.6,141l0.75-0.55l0.8-0.6l0.85-0.75l0.9-0.801l0.95-0.949l0.75,0.8l0.8,0.75l0.85,0.75l0.9,0.55l0.95,0.55l0.95,0.351l1,0.3
	l1,0.149l1.05,0.101l0.4-0.05l0.2-0.051h0.25l0.35-0.1l0.4-0.05l0.3-0.15l0.35-0.1l0.25-0.2l0.3-0.15l0.1-0.199l0.05-0.101l0.1-0.05
	l0.2-0.3l0.15-0.4l0.05-0.3l-0.05-0.3l-0.05-0.101V139v-0.1l-0.15-0.3l-0.1-0.301L82,137.9l-0.2-0.4l-0.3-0.45l-0.25-0.399
	l-0.4-0.55l-0.35-0.5l-0.25-0.301l-0.2-0.25l-0.25-0.3l-0.2-0.25l-0.3-0.35l-0.25-0.3l-0.5-0.601l-0.6-0.649l-0.6-0.65l-1.05-1.05
	l0.6-0.75l0.6-0.75l0.65-0.95l0.7-0.95l0.65-1.149l0.7-1.2l0.75-1.351l0.8-1.449l-0.05-0.5l-0.05-0.4l-0.15-0.35l-0.1-0.25
	l-0.45-0.45l-0.3-0.15l-0.25-0.05l-0.4-0.1h-0.4l-0.9,0.149l-0.55,0.101l-0.55,0.199L76.35,121.101L76.35,121.101z M71.3,129.2
	l0.4-0.5l0.45-0.55l0.5-0.65l0.6-0.649l0.6-0.851l0.6-0.7l0.5-0.649l0.55-0.45l0.2-0.25l0.25-0.15l0.45-0.25l0.4-0.149l0.4-0.05
	l0.5,0.05l0.15,0.05l0.2,0.15l-0.1,0.55l-0.15,0.6l-0.25,0.601l-0.3,0.699l-0.45,0.601l-0.45,0.7l-0.55,0.699l-0.6,0.75l-0.55,0.551
	l-0.65-0.5l-0.5-0.301l-0.45-0.199H72.7l-0.3,0.05l-0.15,0.25L72.1,129v0.55l0.05,0.15l0.15,0.35l0.25,0.351l0.4,0.55l-0.5,0.45v0.1
	l0.05,0.4l0.1,0.2l0.25,0.149l0.25,0.101l0.4,0.05l0.6-0.05l0.65,0.75l0.85,0.949l0.35,0.4l0.4,0.45l0.35,0.399l0.4,0.45l0.25,0.3
	l0.3,0.351l0.25,0.3l0.3,0.35l0.15,0.2l0.2,0.25l0.15,0.2l0.05,0.1l0.1,0.15V138l0.05,0.101l0.1,0.149l0.05,0.101v0.05l0.05,0.1
	h-0.05v0.05v0.101v0.149l-0.1,0.051V138.8l-0.8,0.051l-0.1-0.051H78h-0.1l-0.15-0.1l-0.1-0.05l-0.3-0.25l-0.2-0.15l-0.15-0.1
	l-0.45-0.4l-0.1-0.1l-0.05-0.05l-0.1-0.101l-0.2-0.2l-0.5-0.55l-0.3-0.3l-0.1-0.1l-0.05-0.051l-0.1-0.1l-1.05-1.1l-0.5-0.45
	l-0.4-0.3v-0.2l-0.05-0.55l-0.2-0.351L72.5,133l-0.5-0.05h-0.1l-0.1,0.1l-0.2,0.15l-0.25,0.3l-1.05,0.05l-0.75,0.15l-0.45,0.25
	L69,134.4l0.05,0.399l0.3,0.551l-0.15,0.1l-0.75,0.6l-0.6,0.601l-0.6,0.5l-0.45,0.45l-0.5,0.35l-0.35,0.3l-0.35,0.2l-0.2,0.2
	l0.05-0.101l0.6-1.3l0.65-1.149l0.7-1.051l0.75-0.949l0.25-0.351l0.25-0.25l0.2-0.25l0.2-0.149l0.1-0.15l0.15-0.2l-0.05-0.2v-0.1
	l-0.05-0.1l-0.05-0.051L69,132.101l-0.2-0.2l-0.2-0.15l-0.45-0.399l-0.35-0.301l-0.3-0.25l-0.35-0.3l-0.2-0.149l-0.15-0.101
	l-0.4-0.35l-1.45-1.25l-0.65-0.55l-0.5-0.45l-0.5-0.5l-0.35-0.4l-0.3-0.35l-0.2-0.25l0.45-0.05l0.3,0.1l0.45,0.25l0.5,0.3l0.6,0.4
	l0.6,0.399l0.75,0.5l0.75,0.551l0.9,0.699l1.7,1.301l0.8,0.6l0.4,0.3l0.2,0.15l0.25,0.2l0.4-0.101l0.4-0.2l0.1-0.199l0.1-0.15
	l0.05-0.2v-0.1v-0.05h0.05l-0.1-0.4l-0.15-0.4l-0.1-0.149L71.8,129.8l-0.15-0.199L71.3,129.2L71.3,129.2z"/>
<polygon fill-rule="evenodd" fill="#B3D335" points="73.25,126.851 72.65,127.5 72.15,128.15 71.7,128.7 71.3,129.2 71.65,129.601 
	71.8,129.8 71.85,129.9 71.95,130.05 72.1,130.45 72.2,130.851 72.15,130.851 72.15,130.9 72.15,131 72.1,131.2 72,131.351 
	71.9,131.55 71.5,131.75 71.1,131.851 70.85,131.65 70.65,131.5 70.25,131.2 69.45,130.601 67.75,129.3 66.85,128.601 66.1,128.05 
	65.35,127.55 64.75,127.15 64.15,126.75 63.65,126.45 63.2,126.2 62.9,126.101 62.45,126.15 62.65,126.4 62.95,126.75 63.3,127.15 
	63.8,127.65 64.3,128.101 64.95,128.65 66.4,129.9 66.8,130.25 66.95,130.351 67.15,130.5 67.5,130.8 67.8,131.05 68.15,131.351 
	68.6,131.75 68.8,131.9 69,132.101 69.15,132.3 69.2,132.351 69.25,132.45 69.25,132.55 69.3,132.75 69.15,132.95 69.05,133.101 
	68.85,133.25 68.65,133.5 68.4,133.75 68.15,134.101 67.4,135.05 66.7,136.101 66.05,137.25 65.45,138.55 65.4,138.65 65.6,138.45 
	65.95,138.25 66.3,137.95 66.8,137.601 67.25,137.15 67.85,136.65 68.45,136.05 69.2,135.45 69.35,135.351 69.05,134.8 69,134.4 
	69.1,133.95 69.55,133.7 70.3,133.55 71.35,133.5 71.6,133.2 71.8,133.05 71.9,132.95 72,132.95 72.5,133 72.85,133.25 
	73.05,133.601 73.1,134.15 73.1,134.351 73.5,134.65 74,135.101 75.05,136.2 75.15,136.3 75.2,136.351 75.3,136.45 75.6,136.75 
	76.1,137.3 76.3,137.5 76.4,137.601 76.45,137.65 76.55,137.75 77,138.15 77.15,138.25 77.35,138.4 77.65,138.65 77.75,138.7 
	77.9,138.8 78,138.8 78.05,138.8 78.15,138.851 78.95,138.8 78.95,138.851 79.05,138.8 79.05,138.65 79.05,138.55 79.05,138.5 
	79.1,138.5 79.05,138.4 79.05,138.351 79,138.25 78.9,138.101 78.85,138 78.85,137.95 78.75,137.8 78.7,137.7 78.55,137.5 
	78.35,137.25 78.2,137.05 77.9,136.7 77.65,136.4 77.35,136.05 77.1,135.75 76.7,135.3 76.35,134.9 75.95,134.45 75.6,134.05 
	74.75,133.101 74.1,132.351 73.5,132.4 73.1,132.351 72.85,132.25 72.6,132.101 72.5,131.9 72.45,131.5 72.45,131.4 72.95,130.95 
	72.55,130.4 72.3,130.05 72.15,129.7 72.1,129.55 72.1,129 72.25,128.65 72.4,128.4 72.7,128.351 73.05,128.351 73.5,128.55 
	74,128.851 74.65,129.351 75.2,128.8 75.8,128.05 76.35,127.351 76.8,126.65 77.25,126.05 77.55,125.351 77.8,124.75 77.95,124.15 
	78.05,123.601 77.85,123.45 77.7,123.4 77.2,123.351 76.8,123.4 76.4,123.55 75.95,123.8 75.7,123.95 75.5,124.2 74.95,124.65 
	74.45,125.3 73.85,126 73.25,126.851 "/>
<polygon fill-rule="evenodd" fill="#8CC63F" points="64,142.15 62.55,142.601 61.25,143.2 59.95,143.851 58.8,144.601 57.75,145.3 
	57,146 56.7,146.3 56.55,146.65 56.4,147.25 56.4,147.8 56.45,148.25 56.5,148.65 56.6,149 56.65,149.2 56.75,149.4 56.75,149.55 
	56.8,149.65 57.35,149.95 57.9,150.4 58.15,150.45 58.5,150.55 58.95,150.601 59.6,150.65 60.5,150.601 61.5,150.5 62.5,150.3 
	63.5,150.05 64.5,149.7 65.5,149.3 66.55,148.8 67.65,148.25 68.5,147.65 69.35,147.101 70,146.601 70.6,146.101 71,145.601 
	71.35,145.15 71.5,144.75 71.6,144.351 71.55,143.75 71.45,143.25 71.3,142.8 71.1,142.45 70.8,142.101 70.5,141.851 70.1,141.601 
	69.7,141.5 69.15,141.351 68.6,141.3 67.95,141.25 67.3,141.351 66.55,141.45 65.75,141.65 64.9,141.851 64,142.15 "/>
<polygon fill-rule="evenodd" fill="#F8981D" points="137.449,139.7 136.35,140.05 135.05,140.55 137.4,139.8 137.449,139.75 
	137.449,139.7 "/>
<polygon fill-rule="evenodd" fill="#F8981D" points="137.3,140.7 137.449,139.9 136.9,141.75 137.3,140.7 "/>
<polygon fill-rule="evenodd" fill="#8CC63F" points="112.55,123.45 111.15,122.351 109.75,121.55 109.1,121.25 108.55,121.101 
	108.05,121.05 107.699,121.15 107.35,121.351 107.199,121.7 107.05,122.2 107.05,122.851 107.1,123.4 107.3,124.05 107.6,124.8 
	108.1,125.75 108.6,126.65 109.1,127.5 109.05,127.5 109,127.601 108.85,127.7 108.75,127.9 108.35,128.351 107.8,129 
	107.449,129.3 107.199,129.65 106.949,129.95 106.8,130.3 106.55,130.851 106.5,131.4 106.5,131.45 106.5,131.601 106.5,131.851 
	106.6,132.3 106.65,132.45 106.8,132.65 107.15,132.9 107.6,133.05 107.85,133.101 108.199,133.15 108.4,133.101 108.75,133 
	109.1,132.8 109.55,132.601 110,132.3 110.55,131.95 111.15,131.5 111.85,131.05 111.949,131.15 112.199,131.5 112.55,131.95 
	112.75,132.25 113.05,132.65 113.15,132.75 113.199,132.8 113.3,132.9 113.6,133.2 113.85,133.4 114.15,133.65 114.35,133.75 
	114.449,133.8 114.6,133.9 115.1,134 115.3,133.95 115.4,133.9 115.55,133.9 115.75,133.75 116,133.65 116.1,133.4 116.25,133.2 
	116.25,133.05 116.3,132.95 116.35,132.75 116.3,132.05 116.199,131.351 116,130.55 115.8,129.7 115.5,128.95 115.35,128.45 
	115.25,128.05 115.25,127.95 116.75,126.25 117.35,125.4 117.85,124.75 118.15,124.2 118.25,123.75 118.199,123.15 118.1,122.601 
	117.949,122.3 117.8,122.101 117.6,121.9 117.449,121.8 117.199,121.65 116.949,121.601 116.4,121.55 115.699,121.601 115.1,121.75 
	114.5,122.05 113.9,122.5 113.35,122.851 113.1,123 112.949,123.2 112.75,123.25 112.65,123.351 112.55,123.4 112.55,123.45 "/>
<polygon fill-rule="evenodd" fill="#8CC63F" points="111.699,140.2 111.8,140.4 111.9,140.601 111.9,140.65 111.949,140.75 
	112,140.851 112.699,140.95 113.4,141.101 114.699,141.3 115.8,141.4 116.3,141.4 116.8,141.45 117,141.4 117.25,141.4 
	117.75,141.4 117.949,141.351 118.199,141.351 118.699,141.351 119.1,141.25 119.3,141.2 119.55,141.2 120.449,141.05 120.6,140.95 
	120.8,140.9 121.199,140.8 121.35,140.7 121.55,140.65 121.949,140.55 122.65,140.2 123.35,139.851 123.8,139.5 124.3,139.05 
	124.8,138.5 125.4,137.851 124.949,137.351 124.55,136.95 123.65,136.25 122.699,135.7 121.65,135.351 121.05,135.15 120.5,135.05 
	119.3,134.95 118.05,135 116.699,135.25 115.4,135.45 114.35,135.75 113.4,136.101 112.699,136.5 112.1,136.9 111.699,137.351 
	111.449,137.851 111.4,138.45 111.4,139 111.449,139.45 111.55,139.851 111.699,140.2 "/>
<polygon fill-rule="evenodd" fill="#8CC63F" points="101.6,145.45 101.9,145.25 102.199,145.101 102.699,144.8 103,144.4 103.1,144 
	103,143.7 102.8,143.45 102.449,143.25 102.05,143.101 101.4,142.95 100.699,142.851 99.85,142.75 98.949,142.75 97.949,142.7 
	97.1,142.75 96.35,142.851 95.8,143.101 95.3,143.351 95,143.7 94.8,144.101 94.75,144.601 94.75,144.65 94.75,144.8 94.85,145.351 
	95.05,145.65 95.199,145.75 95.449,145.9 95.65,145.95 95.949,146.05 96.6,146.101 96.6,146.05 96.65,146.05 96.75,146.05 
	96.949,146.05 97.35,146.05 98.1,146.05 98.8,145.95 99.5,145.9 100.6,145.7 101.1,145.55 101.6,145.45 "/>
<polygon fill-rule="evenodd" fill="#F8981D" points="145.15,102.4 145.1,102.4 145.05,102.65 145.15,102.4 "/>
<polygon fill-rule="evenodd" fill="#90C73E" points="131.1,101.8 130.85,101.9 131.1,101.9 131.1,101.8 "/>
<polygon fill-rule="evenodd" fill="#FFCD05" points="28.25,102.75 28.4,99.7 27.8,102.101 27.55,103.3 27.4,104.55 27.1,106.95 
	27,109.45 27.05,111.15 27.3,112.9 27.3,113.95 27.3,115 27.45,116 27.45,117.55 27.6,119.25 27.75,121.05 28.1,123 28.45,125.05 
	28.95,127.2 29.5,129.5 30.2,131.95 29.75,128.15 29.8,127.55 29.5,124.75 29.1,121.05 28.85,117.601 28.6,114.25 28.5,111.101 
	28.25,103.75 28.25,102.75 "/>
<polygon fill-rule="evenodd" fill="#F8981D" points="138.1,157.601 137.8,158.55 137.85,158.5 138.1,157.601 "/>
<polygon fill-rule="evenodd" fill="#FFCD05" points="30.55,142.7 30.45,142.351 30.45,142.601 30.55,142.7 "/>
<path fill-rule="evenodd" fill="#66A643" d="M59.65,2.65l0.7,1.2l0.8,1.35l0.8,1.35l0.9,1.551l0.9,1.55l1,1.649l1,1.7l1.1,1.851
	l-3.7-0.2l-3.6,0.1L56,15l-3.4,0.5l-3.45,0.7l-3.3,0.9l-3.25,1.1l-3.15,1.3L36.3,21l-3.05,1.7l-3,1.9L27.4,26.75l-2.9,2.3
	l-2.75,2.601l-2.7,2.7l-2.6,3L14.5,39.7l-1.85,2.5l-1.7,2.55L9.4,47.5l-1.45,2.75L6.6,53.2l-1.2,3.05L4.35,59.4l-0.5,1.45L3.4,62.25
	l-0.45,1.3L2.6,64.851L2.2,66l-0.35,1.101l-0.3,1.05l-0.25,1L1,70l-0.25,0.8l-0.2,0.75l-0.15,0.7l-0.25,1.101L0.05,73.8L0,74.2
	l0.55-0.6l0.75-0.65l0.75-0.7L3,71.55l1.1-1l1.05-0.949l1-0.9l0.95-0.8l0.85-0.8l0.85-0.7l0.75-0.7l0.75-0.6l1.2-1.15l0.55-0.5
	l0.5-0.4l0.4-0.399l0.35-0.3l0.3-0.301l0.3-0.199L13.05,62.8l-0.75,1.051l-1.45,2.3L9.9,67.7l-0.85,1.75L8.2,71.2l-0.75,1.95
	l-0.75,1.95l-0.65,2.05L5.45,79.3l-0.5,2.301L4.2,84.7l-0.6,3.15L3.05,90.9L2.7,94l-0.35,3l-0.25,3.05L1.95,103v3L2,108.9l0.2,3
	l0.3,3.05l0.5,3.1l0.55,3.101l0.75,3.2l0.85,3.25l1.05,3.3l1.3,3.8l1.55,3.8l0.8,1.851l0.9,1.899l1.95,3.8l1.75,3.25l0.05-0.899
	l0.1-0.75l0.2-1.4l0.1-1.149l0.05-0.5l0.1-0.4l0.3-1.85l0.45-1.551l0.15,0.351l0.25,0.5l0.25,0.5l0.35,0.649l0.75,1.351L18,144.9
	l0.55,0.899l0.5,0.851l0.6,1L21,149.8l1.45,2.351l0.8,1.25l0.9,1.399l0.2,0.301l0.1,0.149l0.15,0.2l0.5,0.7l0.2,0.3l0.1,0.15
	l0.15,0.199l0.5,0.7l0.9,1.25l0.9,1.3l0.8,1.15l0.85,1.2l0.75,1.1l0.75,1.101l0.3,0.449l0.35,0.5l0.65,1l0.6,0.9l0.6,0.9l0.5,0.8
	l0.55,0.8l0.45,0.7l0.2,0.35l0.25,0.4l-0.3-2.4l-0.25-2.1l-0.2-2l-0.2-1.75l-0.2-1.601l-0.15-1.399l-0.1-1.25l-0.1-1l-0.3-2.05
	l-0.15-1.101l-0.1-1.05l-0.3-2.35L33,150.7l-0.05-0.6l-0.1-1.2l-0.1-0.95l-0.1-0.85l-0.25-1.9l-0.25-1.35L32,142.8l-0.2-0.949
	l0.2,0.199l-0.35-3.649l-0.1-0.101L31.4,136.9l-0.3-1.75l-0.25-1.8l-0.4-3.801L30.1,126.4l-0.25-3l-0.25-2.851l-0.15-2.699
	l-0.2-2.65l-0.1-2.5l-0.1-2.35v-2.25L29,105.95l0.05-2.05l0.05-1.9l0.1-1.75l0.1-1.7L29.5,97l0.2-1.45L30,94.3l0.2,0.65l0.1,0.25
	l0.15,0.3l0.3,0.851l0.35,0.899l0.7,1.8l0.6,1.75l0.65,1.801l0.6-1.15l0.6-1l0.55-1l0.5-0.85l0.4-0.851l0.4-0.7l0.35-0.649l0.3-0.5
	l0.4,0.649l0.4,0.601l0.05,0.1l0.1,0.15l0.2,0.3l0.4,0.55l0.3,0.45l0.3,0.4L39,99.25l0.15,0.2l0.3,0.3l0.75-1.25l0.75-1.05
	l0.65-1.05l0.7-0.851l0.55-0.85l0.6-0.7l0.5-0.649l0.55-0.5l0.3,1.1l0.3,1.1l0.25,1l0.2,1l1.8-2.149l1.85-2l1.85-1.9L53,89.25
	l0.15,0.45l0.3,0.55l0.3,0.65l0.45,0.8l0.25,0.5l0.3,0.5l0.2,0.45l0.25,0.5l0.4,0.75v0.05l0.05,0.1l0.1,0.2l0.2,0.351l0.2,0.5
	L56.2,95.8l0.1,0.2l0.1,0.25v0.101l0.05,0.1L56.4,96.4l0.1-0.101l0.1-0.199l0.25-0.25l0.2-0.351l0.35-0.45l0.35-0.55l0.45-0.55
	l0.45-0.75l0.55-0.75l0.55-0.85l0.7-0.95l0.7-1.05l0.8-1.101l0.8-1.2l0.95-1.25l0.2,2.101l0.2,2.25l0.1,2.35l0.1,2.5l9.4-9.05
	l2.7,8.35v-0.1l0.15-0.15l0.15-0.199l0.3-0.2l0.3-0.351l0.4-0.35l0.45-0.4L78.7,92.4l0.55-0.55l0.65-0.601l0.65-0.7l0.75-0.75
	l0.75-0.85l0.85-0.9l0.85-0.949l0.95-1.051l0.35,1.301l0.4,1.3l0.8,2.399l0.35,1.101L87,93.2l0.8,2l0.5-0.75l0.55-0.65l0.95-1.25
	L90.65,91.4l0.799-1l0.65-0.95L92.4,89l0.35-0.35l0.5-0.65l0.449-0.55l0.351,0.85l0.45,1l0.6,1.051l0.75,1.25L96.3,92.3l0.25,0.45
	L96.9,93.3l0.299,0.5l0.4,0.601l0.85,1.35l0.801-1l0.949-0.95l1-1l1.15-1l0.5-0.55l0.5-0.399l0.4-0.4l0.449-0.3l0.301-0.3l0.35-0.2
	l0.25-0.15l0.25-0.05l0.45,0.7l0.5,0.75l0.899,1.45l0.801,1.25l0.35,0.6l0.4,0.6l0.6,1l0.1,0.2l0.051,0.101l0.1,0.149l0.301,0.5
	l0.199,0.4l0.25,0.399l0.2,0.351l0.25,0.399l2.899-3.55L115.05,93l1.399-1.649l0.301,0.899l0.35,0.9l0.301,0.8l0.149,0.4l0.2,0.449
	l0.5,1.45l0.199,0.65l0.101,0.3v0.05l0.05,0.101l0.1,0.199l0.15-0.149l0.25-0.101l0.551-0.25l0.299-0.199l0.4-0.15l0.85-0.4
	l0.951-0.55l1.1-0.6l0.55-0.351l0.649-0.3l1.351-0.7l0.101,1.051l0.049,0.5l0.101,0.55l0.101,1l0.149,1l0.2,1.7l0.199,1.6l0.551-0.3
	l0.75-0.25l0.35-0.2l0.45-0.15l0.95-0.3l1-0.399l1.15-0.351l1.25-0.399l0.649-0.2l0.75-0.15l-0.101,0.351L134.4,99.25L134.3,100
	l-0.2,1.4l-0.3,1.25l-0.101,0.25l-0.049,0.3l-0.101,0.6l1.3-0.85l0.551-0.4l0.6-0.3l0.449-0.35l0.5-0.25l0.801-0.45l0.3-0.25
	l0.3-0.15l0.45-0.25l0.25-0.149l0.149-0.05v0.199l-0.1,0.5l-0.05,0.65l-0.149,0.75l-0.101,0.9l-0.05,0.949l0.05,0.9l1.399-0.4
	l1.701-0.399l0.899-0.25l1-0.2l2.2-0.4v0.25l0.1,0.351l0.1,0.45l0.101,0.55l0.05,0.649l0.1,0.75l0.101,0.851l0.101,0.95l0.1,1.85
	v0.85l0.05,0.9l-0.05,0.8v0.8h-0.051v0.051v0.1v0.2v0.399v0.801l-0.149,0.75L146.4,116.8l-0.201,1.051l-0.199,1.25l-0.301,1.35
	L145.4,122l-0.4,1.7l-0.4,1.9l-0.4,1.449l-0.399,1.4l-0.399,1.3l-0.351,1.3l-0.399,1.2l-0.4,1.15l-0.801,2.1l4.25-2.3l-4.049,7.95
	l-1.551,3l0.15,0.05l-1.15,3.25l-1.05,3.25l-0.851,2.55l-0.75,2.5l-0.75,2.4l-0.6,2.399l-0.6,2.25L134,165l-0.5,2.15l-0.4,2.1
	l2.15-3.05l1.05-1.45l1.05-1.35l1.9-2.65l0.9-1.25l0.949-1.149l1.65-2.351l0.8-1.1l0.8-1l1.4-1.95l1.35-1.75l1.15-1.65l0.55-0.75
	l0.55-0.649l0.45-0.7l0.45-0.6l0.85-1.051l0.65-0.949l0.6-0.75l0.2-0.351l0.25-0.25l0.399-0.35l-0.699,3l-0.301,1.45l-0.25,1.399
	l-0.549,2.601L150.949,153l-0.449,2.101l-0.301,2L149.9,158.8l-0.201,1.601l1.851-2.5l1.851-2.4l1.649-2.399l1.649-2.4l1.451-2.4
	l1.449-2.399l1.35-2.4l1.25-2.35l1.101-2.4l1.05-2.35l0.95-2.4l0.851-2.3l0.75-2.35l0.649-2.301l0.55-2.3l0.5-2.3l0.1-0.45v-0.149
	l0.051-0.101l0.1-0.2l0.1-0.5l0.15-0.5l0.2-1.149l0.101-0.65l0.149-0.6v-0.4v-0.2v-0.1l0.05-0.05l0.1-0.7v-0.4v-0.199V116
	l0.051-0.05l0.1-0.75l0.1-1.7l0.051-0.899l0.1-0.9v-1.95l-0.05-1.899l-0.149-1.9l-0.15-1.85l-0.301-1.9l-0.35-1.85L168.65,98.5
	l-0.451-1.8l2.351,0.8l2.3,0.8l2.1,0.7l2,0.7v-2.3l-0.049-2.3l-0.101-1.2l-0.05-0.601v-0.55l-0.2-2.3l-0.3-2.4l-0.35-2.399
	L175.8,85.3l-0.05-0.3l-0.1-0.6l-0.201-1.2L175,80.8l-0.6-2.55l-0.65-2.5l-0.4-1.3l-0.199-0.65L173,73.2l-0.801-2.55L171.3,68
	l-0.5-1.35l-0.45-1.3l-1.05-2.7L168.199,60l-1.25-2.75l-1.299-2.55l-1.351-2.55l-1.45-2.351l-1.55-2.35l-1.601-2.2l-1.649-2.149
	l-1.75-1.95L154.4,39.2l-1.951-1.85l-2.049-1.75L148.35,34l-2.199-1.6l-2.25-1.45l-2.351-1.35l-2.351-1.25l21.75,5.3l-1.199-2.05
	l-1.301-1.851l-1.5-1.85l-1.649-1.7l-1.851-1.7l-2-1.55l-2.199-1.55l-2.35-1.351l-2.851-1.55l-2.899-1.399l-2.951-1.25l-3-1.101
	l-3.1-1L129,12.9l-3.15-0.75l-3.199-0.55l-1.701-0.301l-1.649-0.199l-3.351-0.351l-3.399-0.25l-3.45-0.05l-3.55,0.05l-1.8,0.05
	L102,10.7l-1.85,0.1L98.35,11l-3.65,0.45L94.15,11l-0.451-0.399L92.949,9.8L92.3,8.95L92.05,8.5L91.9,8.101L91.55,7.15l-0.101-0.9
	L91.5,5.3l0.25-0.949l0.199-1l0.25-0.851l0.15-0.75l0.2-0.55l0.101-0.5l0.1-0.35l0.05-0.25L92.9,0L90.85,0.45l-1.95,0.7L87.05,2.05
	L85.4,3.15l-1.65,1.3L82.3,6l-0.75,0.8L80.9,7.75l-1.25,2H79.6h-0.05l-0.1-0.05H79.4h-0.15l-0.3-0.1L78.65,9.5l-0.4-0.149L78,9.25
	L77.8,9.2l-0.3-0.15l-0.25-0.1l-0.6-0.25l-0.7-0.3l-0.7-0.25l-0.45-0.2L74.4,7.8l-0.45-0.199l-0.4-0.15l-0.95-0.4l-0.5-0.199
	L71.85,6.75l-0.2-0.05l-2.05-0.85l-1.85-0.75L66,4.45L64.45,3.9L63,3.4L61.75,3.05L60.6,2.8L59.65,2.65L59.65,2.65z M52.9,17.75
	l0.1-0.1h0.4L54,17.55h0.85l1-0.1l1.3-0.1l1.5-0.101l1.75-0.1L62.1,17l1.65-0.1l1.5-0.05h1.45h1.25l1.2,0.1l1.05,0.1l1,0.15
	l-0.85-1.75L69.6,13.9l-0.7-1.4l-0.6-1.2l-0.6-1.1l-0.45-0.85l-0.45-0.7l-0.3-0.5L68.6,8.3l2.1,0.45l2.1,0.65l2.1,0.95l1.35,0.6
	l1.45,0.7l1.55,0.6l1.65,0.7l0.7-1.45l0.8-1.35l0.7-1.25l0.8-1.05l0.7-1L85.4,6l0.75-0.75l0.8-0.6l0.4-0.4l0.4-0.3l0.35-0.3
	l0.35-0.2L88.7,3.2l0.25-0.15L89.15,2.9l0.25-0.05l0.1-0.101h0.15L89.8,2.8l-0.05,0.051V3l-0.1,0.351L89.199,4.25l-0.25,1.101
	l-0.15,1.3L88.75,8.2V9l0.2,0.851l0.35,0.899l0.5,1l0.601,1l0.799,1.101l0.951,1.1l1.1,1.2l0.9-0.65l1.25-0.55l1.5-0.5l1.799-0.35
	l2-0.351l2.351-0.25l2.601-0.2l2.949-0.05l2.95-0.05l3,0.1l1.45,0.051l1.5,0.149l3,0.4l2.9,0.45l1.449,0.25l1.5,0.35l2.9,0.75l3,0.9
	l2.9,1L138.1,18.8l2.95,1.4l3,1.65l3,1.75l3,2l3.05,2.199l3.1,2.4l-1.949-0.45l-1.801-0.35l-1.75-0.351l-1.649-0.3l-1.649-0.3
	l-1.451-0.25l-1.449-0.25l-1.301-0.15l-1.35-0.199l-1.15-0.101l-2.149-0.149l-1-0.051l-0.851,0.051l-0.85,0.05l-0.65,0.1l0.75,0.45
	l1.75,1l1.65,1l1.5,0.9l1.45,0.899l1.25,0.8l1.25,0.801l1.05,0.699l1,0.7l1.5,1.101l1.551,1.25l1.449,1.3l1.45,1.399l1.351,1.4
	l1.399,1.55l1.3,1.601l1.301,1.75L159.3,47.8l1.2,1.851l1.1,1.85l1.15,2l1,2l1.05,2.15l0.95,2.2l0.949,2.3l0.65,1.85l0.7,1.95
	L168.65,68l0.649,2.2l0.55,2.2l0.6,2.35L171,77.2l0.55,2.55l0.25,1.5l0.3,1.7l0.301,1.8l0.399,2.05l0.351,2.101l0.399,2.35
	l0.399,2.45l0.5,2.7l-0.35-0.2l-0.4-0.2l-0.449-0.2l-0.5-0.1l-1.2-0.4l-0.649-0.199l-0.701-0.15l-0.199-0.1l-0.15-0.101l-0.1-0.05
	h-0.051l-0.25-0.1L169.15,94.5l-0.201-0.1l-0.1-0.05h-0.05l-0.351-0.101l-1-0.399l-0.299-0.15l-0.25-0.1l-0.551-0.2l-0.65-0.3
	L165,92.851l-0.75-0.301l-0.4-0.149L163.5,92.3l0.75,2.7l0.3,1.3l0.05,0.301l0.1,0.35l0.201,0.7l0.549,2.6l0.551,2.601l0.15,1.199
	l0.199,1.25l0.15,1.2l0.199,1.25l0.25,2.4l0.15,2.399L167,114.9l-0.1,1.25l-0.101,1.35l-0.2,1.3l-0.25,1.4l-0.3,1.45l-0.3,1.55
	l-0.45,1.5l-0.45,1.6l-0.5,1.601l-0.5,1.7l-1.3,3.449l-0.7,1.801l-0.699,1.899l-0.801,1.75l-0.75,1.75l-0.699,1.55l-0.65,1.551
	l-0.65,1.35l-0.6,1.25l-0.551,1.15l-0.5,1.1l-0.5,0.85L155,149.9l-0.4,0.7l-0.35,0.649l-0.35,0.45l-0.301,0.4l-0.25,0.25
	l-0.199,0.199l1.049-13l-0.25-0.199l-0.25,0.149l-0.199,0.25l-0.45,0.55l-0.55,0.65l-0.6,0.75l-0.75,0.85l-0.801,1l-0.9,1.051
	l-0.949,1.25l-1.1,1.25l-1.15,1.449l-0.65,0.7l-0.6,0.8l-1.301,1.65l-1.449,1.75l-1.5,1.85l-1.551,1.95l-1.649,2.15l0.05-0.351
	l0.15-0.399l0.15-0.5l0.199-0.55l-0.25,0.899l1.2-2.899l1.149-2.75l1.101-2.65l1.101-2.5l0.949-2.45l0.45-1.2l0.5-1.1l0.899-2.15
	l0.9-2.05l0.75-1.95l0.75-1.85l0.7-1.75l0.649-1.55l0.551-1.55l0.5-1.351l0.449-1.25l0.201-0.6l0.25-0.5l-1.65,1.25l-1.65,1.45
	l-1.699,1.55l-1.75,1.649l0.699-1.699l0.7-1.7l0.601-1.75l0.6-1.7l0.5-1.8l0.449-1.8l0.051-0.5l0.1-0.45l0.2-0.9l0.351-1.8
	l0.199-1.85l0.2-1.7l0.05-0.851l0.1-0.75l0.15-1.449l0.051-1.351v-0.649l0.049-0.551l-0.049-0.6v-0.5L149.1,107l-0.3-1.8l-0.2-1.6
	l-0.3-1.5l-0.2-1.301l-1.449,0.25l-1.601,0.301l-1.8,0.3l-2,0.399l0.449-1.649l0.201-0.75l0.25-0.65l0.1-0.649l0.15-0.551l0.1-0.55
	l0.15-0.45v-0.449L142.699,96l-0.049-0.35V95.4l-0.101-0.25L142.449,95l-0.149-0.149l-0.101-0.051l-0.25-0.1h-0.199l-0.25,0.05
	l-0.25,0.15l-0.35,0.149L140.6,95.3l-0.4,0.25l-0.35,0.351l-0.449,0.35l-0.451,0.45l-0.5,0.45L138,97.7l-0.6,0.55l-0.551,0.65
	l-0.6,0.649l-0.551,0.75l1.75-5.399l-0.949,0.45l-0.95,0.5l-1.05,0.5l-1.15,0.55l-1.3,0.5l-1.351,0.6l-1.449,0.601l-1.551,0.6v-0.45
	l0.051-0.399l0.1-0.801V96.65V95.8l-0.1-0.949l-0.051-0.9l-0.299-1.9l-0.201-0.8L127,90.65l-1.4,0.649L124,92.15l-0.9,0.399
	l-0.9,0.5l-2,1.051l-0.799-1.75l-0.701-1.65l-0.649-1.55L117.5,87.8l-1.15,1.101l-1.05,1.05l-1,0.95l-0.851,0.85l-0.85,0.7
	l-0.699,0.65l-0.65,0.55l-0.551,0.45l-2.449-5.4L108,88.2l-0.2-0.5l-0.399-1.1l-0.101-0.2l-0.05-0.101v-0.05l-0.1-0.3l-0.201-0.65
	l-0.399-1.449l-1.45,1.25l-1.35,1.199l-0.65,0.5l-0.55,0.551l-1.05,1l-0.95,0.8l-0.851,0.7l-0.399,0.25L99,90.4l-0.551,0.5
	l-1.1-1.45l-0.55-0.8l-0.5-0.75l-0.601-0.851l-0.549-0.8L94.05,84.5l-0.351-0.649l-0.549,0.6l-0.551,0.7l-1.199,1.45l-1.351,1.55
	l-0.7,0.8l-0.7,0.9l-3.8-8.301l-0.75,0.7L83.45,83l-1.25,1.4l-1.15,1.2L80.1,86.75l-0.5,0.45l-0.4,0.5l-0.75,0.85l-0.35,0.301
	l-0.25,0.35l-0.45,0.6l-0.45-1.5l-0.35-1.35l-0.3-1.2l-0.2-1.05l-0.2-0.95L75.8,83l-0.1-0.6v-0.45l-0.45,0.15l-0.5,0.3l-0.55,0.35
	l-0.6,0.5l-0.7,0.5l-0.75,0.65l-0.8,0.7l-0.85,0.85l-1.25,1.15l-1.15,1.1l-1.05,1l-0.85,1l-0.1-1.55L66.05,87.3l-0.1-1.25V85
	l-0.1-0.95l-0.1-0.75l-0.1-0.649V82.2l-0.95,0.95l-1,1.05l-1.05,1.1l-1.05,1.2l-1.15,1.2l-1.2,1.3L58,90.351L56.7,91.8l-0.6-1.25
	l-0.55-1.05l-0.95-1.85L54.15,86.8l-0.35-0.699l-0.35-0.65l-0.25-0.5l-0.3,0.2l-0.25,0.3l-0.6,0.65l-0.4,0.35L51.3,86.9l-0.75,0.95
	l-0.5,0.449l-0.45,0.551L48.65,90l-1.05,1.25l-1.15,1.45l-0.15-0.4L46.2,91.9L46,91l-0.3-1.05l-0.3-1.2l-1,1l-0.85,0.95l-0.85,0.85
	l-0.65,0.801l-0.55,0.5l-0.45,0.5l-0.4,0.449l-0.3,0.45L40,94.601l-0.2,0.35l-0.2,0.25l-0.1,0.3l-0.25-0.45l-0.2-0.35l-0.2-0.35
	L38.7,94.05l-0.1-0.25l-0.15-0.3l-0.1-0.25l-0.2-0.399l-0.1-0.2L38,92.55V92.5l-0.2-0.45l-0.15-0.399l-0.4-0.95l-0.4-1.05L33.2,98.5
	l-0.5-1.45l-0.45-1.199l-0.4-1.101l-0.3-0.85l-0.1-0.2l-0.05-0.1V93.55l-0.2-0.35l-0.1-0.15l-0.05-0.1l-0.1-0.2l-0.15-0.3l-0.1-0.25
	l-0.4-0.65l-0.4-0.75l-0.1-0.149l-0.05-0.101l-0.1-0.199l-0.2-0.4l-0.5-0.85l-0.8,2l-0.65,2.05l-0.55,2L26.5,97.2l-0.35,1.9
	l-0.25,1.949l-0.15,1.9l-0.05,1.95l-0.05,3.6v3.4v3.25l0.1,3.1v0.8l0.05,1l0.1,1.15l0.2,1.4l0.15,1.5l0.25,1.8l0.25,1.899l0.35,2.15
	l0.3,2.25l0.4,2.5l0.4,2.6l0.5,2.851l0.45,3l0.55,3.2l0.6,3.35l0.65,3.6l0.2,1.051l0.2,1.3l0.1,0.6l0.05,0.3l0.1,0.351l0.2,1.149
	l0.2,1.051l0.1,0.949l0.05,0.4l0.1,0.45l0.1,0.75l0.1,0.75l-0.95-1.65l-0.85-1.45l-0.85-1.35l-0.7-1.25l-0.7-1.25l-0.6-1.05
	l-0.6-0.95l-0.45-0.85l-0.5-0.851l-0.35-0.649l-0.35-0.551l-0.25-0.449l-0.25-0.45l-0.15-0.25l-0.1-0.15v-0.05l-2.35-3.85
	l-1.15-1.801l-1.05-1.649l-1.1-1.65l-1-1.5l-1-1.45l-0.95-1.35l-0.55,1.25l-0.4,1.25l-0.4,1.05l-0.3,1.05l-0.3,0.851l-0.2,0.85
	l-0.2,0.75l-0.1,0.65l-1.55-3.3l-1.35-3.5L10.15,135l-0.6-1.899l-1.15-3.9L7.55,126l-0.4-1.649l-0.3-1.601L6.3,119.3l-0.45-3.5
	l-0.35-3.699l-0.25-3.75l-0.1-1.95v-1.95l0.05-3.95l0.15-4.1l0.5-4l0.7-3.95l1.05-3.85l1.25-3.9l1.6-3.8l1.8-3.75l2.15-3.65
	l1.05-1.85l1.05-1.7l1-1.7l1-1.55l0.9-1.55l0.9-1.4l0.8-1.35l0.85-1.2l0.7-1.25l0.75-1.05l0.65-1.05l0.7-0.9l0.55-0.9l0.6-0.75
	l0.5-0.75L26.9,50l1.75-2.35l1.85-2.2l1.85-2.05l1.95-1.9l2.3-2.05V39.3l-0.05-0.05L36.4,39.2l-0.15,0.05l-0.3,0.05l-0.3,0.2
	l-0.4,0.2l-0.4,0.3l-0.55,0.3l-0.6,0.4l-0.65,0.4l-0.7,0.5l-0.8,0.5l-0.85,0.6l-0.95,0.65l-0.95,0.75l-4.05,2.949l-1.95,1.551
	l-1.85,1.649l-1.9,1.601l-1.8,1.699L13.8,57.15l-1.75,1.75l-1.6,1.649L8.9,62.101l-1.4,1.55L6.1,65.05L4.8,66.4l-1.25,1.25l-1.1,1.2
	l0.2-0.551l0.3-0.649l0.35-0.7l0.45-0.75l0.45-0.9l0.5-0.949L5.25,63.3l0.65-1.1l0.6-1.25l0.7-1.3l0.75-1.4l0.8-1.45l0.8-1.6
	l0.9-1.65l0.95-1.75l1.05-1.75l2.05-3.699l2.2-3.45l1.1-1.7l1.2-1.6l1.2-1.551l1.3-1.449l1.25-1.5l1.35-1.4l2.75-2.65l2.85-2.5
	l3.05-2.199L34.7,25l2.1-1.25l2.25-1.2l2.4-1.05l2.5-1.05l2.65-0.9l2.75-0.899l2.95-0.75L52.9,17.75L52.9,17.75z"/>
<polygon fill-rule="evenodd" fill="#66A643" points="73.85,17.45 73.6,17.8 72.6,18.05 72.25,18.5 71.95,19.05 71.25,20.4 
	70.45,21.95 69.65,23.851 69.1,24.9 68.7,25.95 68.35,26.851 68.1,27.7 67.85,28.4 67.7,29.05 67.6,29.601 67.6,30.05 67.6,30.75 
	67.6,31.3 67.6,31.7 67.65,31.9 67.85,32.5 67.9,32.351 68.1,32.2 68.3,31.95 68.65,31.601 69,31.15 69.45,30.65 69.95,30.101 
	70.55,29.45 71.05,29.101 71.7,28.7 72.4,28.25 73.25,27.75 74.1,27.101 75.1,26.4 76.15,25.65 77.35,24.851 78.4,24 79.4,23.25 
	80.25,22.55 81.1,21.95 81.35,21.95 81.85,22 82.35,22.15 82.85,22.4 83.45,22.8 83.95,23.25 84.5,23.851 85,24.55 85.6,25.4 
	86.15,26.3 86.85,27.351 87.55,28.5 88.35,29.75 89.55,27.55 90.75,25.5 90.85,25.101 91,24.7 91.199,23.75 91.3,22.65 91.3,22 
	91.3,21.65 91.35,21.351 91.3,20.65 91.199,20.101 91,19.55 90.8,19.15 90.35,18.5 90.1,18.05 89.9,17.7 89.85,17.55 88.35,17.55 
	88.35,17.7 88.35,18.05 88.45,19 88.5,19.55 88.6,20.3 88.7,21.15 88.85,22.101 88.85,22.7 88.9,23.3 88.9,23.851 88.95,24.45 
	88.85,24.9 88.8,25.4 88.7,25.851 88.6,26.3 88.1,26.3 86.55,24.15 85.85,23.2 85.2,22.45 84.55,21.7 84,21.101 83.05,20.15 
	83.25,19.75 83.35,19.5 83.3,19.101 83.3,18.8 83.25,18.55 83.25,18.4 83.15,18.101 83.1,18.05 83.1,18.101 82.85,18.5 79,20.25 
	75.25,22.3 73.6,23.3 72.25,24.3 71.15,25.2 70.7,25.65 70.35,26.15 70.45,25.8 70.65,25.45 71.1,24.65 71.65,23.7 72.4,22.65 
	72.75,21.95 73.1,21.351 73.4,20.8 73.65,20.351 73.8,19.851 73.95,19.45 74.05,19.101 74.1,18.8 74.05,18.15 74,17.9 74,17.75 
	73.9,17.45 73.85,17.4 73.85,17.45 "/>
<polygon fill-rule="evenodd" fill="#010101" points="143.1,49.95 144.25,50.9 145.449,52.101 145.6,52 145.1,51.55 144.65,51.15 
	143.699,50.351 143.1,49.95 "/>
<polygon fill-rule="evenodd" fill="#F26822" points="145.449,52.101 145.5,52.15 145.6,52 145.449,52.101 "/>
<polygon fill-rule="evenodd" fill="#B3D335" points="145.6,52 145.5,52.15 146.3,53.05 147.15,54.101 147.949,55.25 148.8,56.5 
	149.6,57.75 150.4,59.2 151.199,60.7 152.05,62.351 152.5,63.351 152.699,63.851 152.8,64.101 152.949,64.4 153.35,65.351 
	153.8,66.351 154.15,67.25 154.5,68.15 154.8,69 154.949,69.4 155.15,69.851 155.35,70.601 155.55,71.351 155.699,72.05 
	155.9,72.75 156,73.351 156.1,73.95 156.1,74.2 156.15,74.5 156.15,74.75 156.199,75.05 156.199,75.95 156.199,76.8 156.199,77.55 
	156.25,78.2 156.25,78.75 156.3,79.2 156.35,79.55 156.449,79.851 155.6,77.9 154.85,76.3 154.1,74.9 153.449,73.8 152.85,72.9 
	152.25,72.15 151.6,71.4 151,70.75 150.25,70.101 149.55,69.55 148.8,69 148.05,68.601 148.15,69.15 148.3,69.8 148.3,70.05 
	148.35,70.351 148.449,70.95 148.65,72.101 148.699,72.601 148.8,73.15 148.949,74.25 149,75.25 149.05,76.25 149.05,77.15 
	149.1,78.05 149,79.7 148.9,80.45 148.85,81.25 148.65,82.7 148.449,84.101 148.6,83.601 148.699,83.3 148.9,82.95 149.199,82.05 
	149.4,81.55 149.65,81 150,79.851 150.1,79.3 150.25,78.851 150.4,77.9 150.449,77.15 150.4,77.05 150.4,77 150.4,76.9 150.4,76.7 
	150.4,76.25 150.35,75.75 150.35,75.2 150.25,73.9 150.199,73.2 150.199,72.5 150.75,72.95 151.35,73.601 152.199,74.65 
	152.6,75.25 153.05,75.95 153.8,77.4 154.55,79.05 154.55,79.15 154.65,79.45 154.8,79.95 155.1,80.75 155.35,81.65 155.75,82.75 
	156.15,84.05 156.699,85.601 157.05,82.95 157.15,81.65 157.3,80.45 157.35,79.2 157.4,78.05 157.449,75.8 157.3,73.65 
	157.1,71.601 156.9,70.601 156.75,69.7 156.3,67.95 155.5,65.75 154.55,63.65 153.449,61.55 152.199,59.55 150.75,57.55 
	149.199,55.65 147.449,53.8 145.6,52 "/>
<polygon fill-rule="evenodd" fill="#F26822" points="50.35,39.851 50.4,39.75 50.35,39.851 "/>
<polygon fill-rule="evenodd" fill="#B3D335" points="50.25,41.15 50.3,40.7 50.4,40.351 50.45,40.05 50.5,39.9 50.45,39.75 
	50.45,39.7 50.4,39.7 50.35,39.851 49.5,40.851 48.7,42.101 47.9,43.55 47.15,45.25 46.35,47.15 45.6,49.25 44.85,51.55 
	44.15,54.101 43.5,56.4 42.95,58.5 42.45,60.4 42.25,61.3 42.1,62.15 41.75,63.65 41.6,64.95 41.45,66.05 41.45,66.55 41.45,67 
	41.35,68.101 41.2,69.2 41.55,68.601 41.6,68.601 41.6,68.5 41.7,68.351 42.05,67.7 42.5,67.05 43,66.351 43.6,65.601 45.2,63.25 
	46.8,61.05 48.3,59 49.8,57.101 51.2,55.3 52.6,53.7 53.9,52.2 55.2,50.9 55.2,52.55 55.2,54.101 55.2,55.55 55.2,56.9 55.2,58.101 
	55.25,59.25 55.25,60.3 55.35,61.25 55.45,64 55.7,66.7 56,69.2 56.45,71.601 65.45,55.75 64.65,56.101 63.9,56.65 63.1,57.25 
	62.4,58 61.6,58.851 60.9,59.8 60.1,60.851 59.4,62 58.85,62.75 58.45,63.5 58.1,64.101 57.85,64.65 57.65,62.7 57.5,60.75 
	57.4,58.7 57.35,56.55 57.3,54.3 57.3,52 57.35,49.65 57.45,47.2 57,47.351 56.6,47.601 56.1,47.851 55.65,48.2 55.1,48.55 54.6,49 
	54.05,49.45 53.55,50.05 52.9,50.601 52.3,51.25 51.65,51.9 51.05,52.7 49.65,54.3 48.9,55.2 48.2,56.2 46.95,57.7 46.4,58.351 
	45.95,59 45.45,59.55 45.05,60.101 44.7,60.601 44.45,61.101 45.95,55.5 46.3,53.55 46.8,51.55 47.4,49.45 48.15,47.3 48.45,46.2 
	48.8,45.25 49.1,44.3 49.4,43.55 49.6,42.8 49.85,42.15 50.05,41.601 50.25,41.15 "/>
<polygon fill-rule="evenodd" fill="#CB6928" points="154.199,139.55 153.949,139.3 153.949,139.351 154.199,139.55 "/>
<polygon fill-rule="evenodd" fill="#010101" points="153.949,139.3 154.199,139.55 154,139.25 153.949,139.3 "/>
<polygon fill-rule="evenodd" fill="#8CC63F" points="32,142.8 32.15,143.851 32.4,145.2 32.65,147.101 35.5,149.7 38.45,152.15 
	41.45,154.45 44.6,156.601 47.7,158.55 50.95,160.351 54.25,161.95 57.7,163.45 61.1,164.7 64.65,165.8 68.25,166.75 71.95,167.55 
	75.65,168.15 79.5,168.601 83.35,168.851 87.35,168.95 87.75,168.9 88.2,168.9 89.1,168.9 90.9,168.851 92.65,168.75 94.449,168.65 
	97.949,168.25 99.65,168 101.4,167.8 102.199,167.601 102.6,167.5 103.05,167.45 104.75,167.101 108.05,166.351 109.65,165.851 
	110.449,165.601 111.3,165.4 112.9,164.851 114.55,164.351 117.65,163.101 120.75,161.75 123.75,160.25 126.75,158.65 
	129.65,156.851 131.05,155.9 131.75,155.4 132.1,155.15 132.5,154.95 135.3,152.851 136.65,151.75 138.05,150.7 139.1,147.45 
	140.25,144.2 140.1,144.15 141.65,141.15 141.15,141.55 140.75,142 140.35,142.351 140.05,142.75 137.25,145.351 136.5,145.95 
	135.8,146.601 134.4,147.851 132.9,149 132.5,149.25 132.15,149.55 131.449,150.15 129.949,151.2 128.5,152.3 125.4,154.25 
	122.3,156.05 119.1,157.65 118.65,157.8 118.25,158 117.449,158.4 115.85,159.15 114.15,159.75 113.3,160.05 112.5,160.4 
	109.1,161.5 105.6,162.45 103.8,162.851 102.05,163.25 100.199,163.55 98.4,163.851 96.55,164.05 94.75,164.3 92.85,164.4 
	92.35,164.4 91.9,164.45 91,164.55 87.2,164.65 83.4,164.55 79.7,164.3 76.05,163.851 72.45,163.25 68.85,162.45 65.3,161.5 
	61.8,160.4 58.35,159.15 54.9,157.65 51.5,156.05 48.15,154.25 44.85,152.3 41.55,150.15 38.3,147.851 35.1,145.4 32,142.8 "/>
<polygon fill-rule="evenodd" fill="#CB6928" points="140.1,144.15 140.25,144.2 140.1,144.15 "/>
<polygon fill-rule="evenodd" fill="#66A643" points="96.25,108.8 96.6,108.3 97.1,107.95 97.75,107.75 98.5,107.7 99.35,107.7 
	100.3,107.9 100.8,108 101.4,108.2 102.65,108.65 104.05,109.101 104.699,109.3 105.4,109.5 106,109.601 106.3,109.65 
	106.65,109.75 107.25,109.8 107.9,109.9 108.4,109.851 108.949,109.851 109.449,109.8 109.55,109.75 109.699,109.75 110,109.75 
	110.199,109.65 110.3,109.601 110.449,109.601 110.949,109.5 111.35,109.351 111.55,109.25 111.65,109.2 111.8,109.2 
	110.449,109.05 108,108.65 105.699,108.2 103.4,107.55 101.199,106.9 99,106.05 96.9,105.15 94.85,104.101 92.9,103 92.9,105 
	93,106.95 93.1,108.8 93.199,110.601 93.3,112.25 93.4,113.9 93.5,115.4 93.6,116.851 93.6,118.15 93.699,119.4 93.8,120.55 
	93.9,121.65 94,122.601 94.1,123.5 94.199,124.3 94.3,125.05 94.65,128.05 95.1,131.351 95.6,134.851 96.199,138.65 97.05,138.601 
	98.15,138.45 99.05,138.4 99.65,138.351 99.9,138.351 100.1,138.351 100.6,138.4 101.1,138.601 101.6,138.9 102.1,139.351 
	102.5,139.851 102.85,140.4 103,140.9 103.1,141.5 103,142.101 102.9,142.351 102.85,142.65 102.65,142.851 102.55,142.95 
	102.5,142.95 102.5,143 102.5,143.101 102.3,143.3 102.199,143.4 102.15,143.4 102.15,143.45 102.15,143.55 101.85,143.65 
	101.75,143.65 101.699,143.65 101.699,143.7 101.6,143.8 101.3,143.9 101,144.05 100.6,144.101 100.25,144.2 99.85,144.2 
	99.449,144.25 98.699,144.2 98.05,144.2 97.5,144.2 97.05,144.2 97,144.25 97,144.55 97,144.8 97,145 97.1,145.15 97.199,145.25 
	97.4,145.4 97.949,145.65 98.25,145.7 98.65,145.8 99.6,145.851 100.199,145.8 100.8,145.75 101.3,145.601 101.85,145.5 
	102.05,145.351 102.3,145.25 102.75,145.05 103.1,144.75 103.5,144.45 103.9,143.851 103.949,143.65 104.05,143.5 104.25,143.2 
	104.3,142.8 104.4,142.45 104.449,142.05 104.449,141.851 104.449,141.75 104.449,141.7 104.5,141.7 104.4,140.851 104.25,140.101 
	103.9,139.4 103.5,138.851 102.9,138.3 102.25,137.9 101.4,137.55 100.5,137.351 99.75,137.2 99.05,137.15 98.4,137.2 
	97.85,137.351 97.75,137.15 97.699,137.05 97.699,137 97.6,136.65 97.4,135.9 97.199,135.05 97,134.101 96.85,133.5 96.75,132.95 
	96.55,131.8 96.449,131.45 96.4,131.15 96.3,130.55 96.1,129.2 95.9,127.9 95.75,126.55 95.6,125.101 95.55,123.65 95.449,121.95 
	95.5,120.05 95.6,117.95 95.8,115.65 95.8,114.4 95.9,113.351 95.949,112.351 96.05,111.5 96.15,109.95 96.25,108.8 "/>
<polygon fill-rule="evenodd" fill="#66A643" points="55.95,111.351 55,111.7 54.25,112.101 53.55,112.4 53,112.75 52.45,113 
	52.1,113.25 51.8,113.45 51.65,113.7 51.5,113.8 51.5,113.95 51.55,114.05 51.8,114.15 52.05,114.15 52.4,114.2 52.85,114.15 
	53.45,114.15 54,114 54.65,113.9 55.35,113.75 56.15,113.601 56.9,113.351 57.75,113.101 59.6,112.55 61.55,111.8 62.6,111.4 
	63.75,111 64.85,110.5 66.05,110 67.3,109.45 68.65,108.95 69.9,108.351 71.05,107.75 72.1,107.15 73.1,106.601 73.95,106 
	74.75,105.45 75.4,104.851 76.05,104.351 76.5,103.75 76.95,103.25 77.2,102.65 77.45,102.15 77.55,101.55 77.6,101.05 
	77.55,100.55 77.4,100.05 77.1,99.45 76.9,99.101 76.6,98.9 76.4,98.9 76.15,99.05 75.95,99.45 75.75,100 75.55,100.8 75.3,101.2 
	75.05,101.601 74.7,102.05 74.25,102.55 73.7,103.05 73.05,103.55 72.3,104.05 71.45,104.65 70.5,105.15 69.45,105.75 68.3,106.351 
	67.05,106.95 65.7,107.55 64.25,108.2 62.7,108.851 61.05,109.55 59.6,110.05 58.3,110.55 57.05,110.95 55.95,111.351 "/>
<polygon fill-rule="evenodd" fill="#66A643" points="77.45,118.15 76.7,118.05 76.15,118.05 75.2,118.05 74.15,118.101 73,118.2 
	71.8,118.4 70.45,118.601 69.1,118.851 67.6,119.15 66.05,119.55 64.2,119.95 62.55,120.4 61,120.851 59.6,121.351 58.25,121.8 
	57.1,122.3 56.05,122.8 55.1,123.351 55.9,123.45 56.25,123.25 56.7,123.101 57.65,122.8 58.75,122.5 60,122.2 61.3,121.8 
	62.8,121.5 63.55,121.3 64.4,121.15 66.15,120.851 67.3,120.55 68.4,120.351 70.5,119.95 71.45,119.75 72.35,119.55 74.05,119.25 
	74.75,119.05 75.4,118.95 76.6,118.7 77.1,118.601 77.55,118.5 77.95,118.4 78.3,118.351 78.2,118.25 78.05,118.25 77.8,118.15 
	77.45,118.15 "/>
<polygon fill-rule="evenodd" fill="#010101" points="70.55,134.55 70.6,134.601 70.7,134.7 70.9,134.9 71.05,135 71.25,135.15 
	71.6,135.45 72,135.8 72.8,136.45 73.5,137 74.25,137.601 74.85,138.05 75.5,138.55 76.05,138.95 76.6,139.351 77.05,139.65 
	77.5,139.95 77.9,140.15 78.3,140.4 78.6,140.5 78.9,140.65 79,140.65 79.05,140.65 79.15,140.7 79.25,140.7 79.3,140.7 
	79.4,140.75 79.5,140.7 79.65,140.7 79.95,140.65 80.2,140.55 80.5,140.45 80.55,140.351 80.65,140.3 80.85,140.2 81.1,139.9 
	81.25,139.5 81.3,139.101 81.25,138.9 81.15,138.7 80.95,138.45 80.75,138.2 80.45,137.851 80.25,137.65 80.15,137.55 80.1,137.5 
	80,137.4 79.95,137.351 79.85,137.25 79.65,137.05 79.2,136.65 78.6,136.101 78,135.601 77.3,135 76.6,134.45 75.8,133.75 
	75.55,133.55 75.35,133.4 74.95,133.101 74.45,132.7 74.2,132.5 74,132.351 73.05,131.65 73.85,130.601 74.65,129.7 75.35,128.8 
	76.05,128.05 76.65,127.25 77.25,126.601 77.75,125.95 78.25,125.4 78.6,124.851 78.95,124.4 79.25,124 79.55,123.7 79.7,123.4 
	79.85,123.2 79.95,123.05 80,123 79.95,122.351 79.85,121.9 79.7,121.55 79.55,121.3 79.25,121.05 78.95,121 78.6,121 78.25,121.15 
	77.75,121.3 77.25,121.65 76.65,122 76.05,122.55 75.35,123.101 74.65,123.851 73.85,124.601 73.05,125.55 71.35,127.351 
	69.85,129.25 68.5,128.2 67.25,127.351 66.1,126.601 65.1,125.95 64.15,125.351 63.3,124.9 62.55,124.55 62,124.3 61.45,124.15 
	61,124.101 60.65,124.15 60.5,124.3 60.35,124.55 60.4,124.9 60.45,125.351 60.7,125.95 61.75,126.851 62.75,127.75 63.7,128.55 
	64.15,128.95 64.65,129.4 65.45,130.101 66.25,130.8 66.6,131.101 67,131.45 67.35,131.75 67.75,132.101 66.35,134.101 
	65.2,136.101 64.15,138.101 63.3,140.15 63.45,140.4 63.75,140.601 64.2,140.7 64.45,140.7 64.8,140.75 64.95,140.65 65.3,140.351 
	65.75,139.851 66.4,139.2 67.15,138.3 67.6,137.75 68.15,137.25 68.65,136.601 69.25,135.95 69.85,135.25 70.55,134.55 "/>
<polygon fill-rule="evenodd" fill="#010101" points="89.3,158.2 89.199,158.601 89.25,159.101 89.55,159.601 89.85,159.95 
	90.3,160.2 90.85,160.351 91.5,160.4 91.699,160.351 91.949,160.351 91.949,160.3 92,160.3 92.1,160.3 92.25,160.3 92.25,160.2 
	92.25,160.15 92.3,160.15 92.4,160.05 92.4,159.95 92.4,159.9 92.449,159.9 92.449,159.8 92.449,159.75 92.5,159.75 92.5,159.45 
	92.449,159.55 91.55,159.55 90.8,159.351 90.4,159.15 90.05,158.9 89.449,158.2 89.3,158.2 "/>
<polygon fill-rule="evenodd" fill="#010101" points="113.8,127.851 114.75,126.95 115.6,126.2 116.3,125.5 116.949,124.95 
	117.35,124.351 117.699,123.9 117.9,123.5 118,123.25 117.949,122.851 117.9,122.55 117.75,122.3 117.65,122.15 117.449,122 
	117.25,122 116.949,122 116.699,122.101 116.3,122.2 115.949,122.4 115.5,122.65 115.1,123 114.55,123.351 114.05,123.8 
	113.449,124.3 112.9,124.9 112.199,125.601 111.449,124.7 110.75,124 110.05,123.4 109.4,123 108.75,122.7 108.15,122.601 
	107.55,122.65 107,122.851 107.199,123.15 107.5,123.601 108.25,124.601 108.65,125.15 109.15,125.851 109.699,126.55 110.35,127.4 
	109.699,127.95 109.199,128.5 108.75,128.95 108.4,129.4 108.1,129.75 107.949,130.05 107.8,130.3 107.8,130.55 107.85,131.05 
	107.949,131.25 108.1,131.4 108.8,131.65 110.35,130.45 111.85,129.4 111.9,129.5 112,129.65 112.199,129.95 112.6,130.5 
	112.75,130.7 112.949,130.95 113.35,131.45 113.6,131.851 113.9,132.25 114,132.4 114.15,132.601 114.25,132.75 114.4,132.95 
	115,132.4 115.199,132.2 115.35,132.101 115.449,131.8 115.449,131.601 115.449,131.5 115.449,131.45 115.5,131.45 115.449,131.25 
	115.449,131.101 115.35,130.8 115.199,130.4 115.05,130 114.8,129.5 114.5,129 114.15,128.4 113.949,128.101 113.85,127.95 
	113.8,127.851 "/>
<polygon fill-rule="evenodd" fill="#66A643" points="104.15,119.55 103.3,119.75 102.6,120.101 102.05,120.55 101.699,121.101 
	102.05,121 102.25,120.95 102.55,120.95 103.15,120.851 103.9,120.851 104.75,120.75 105.699,120.65 106.75,120.55 107.3,120.5 
	107.949,120.5 109.199,120.351 110.6,120.25 112.1,120.15 113.75,120.05 115.5,119.9 117.35,119.8 119.3,119.7 121.449,119.601 
	118.199,119.4 115.3,119.3 112.65,119.2 110.4,119.2 108.35,119.2 106.65,119.25 105.199,119.351 104.15,119.55 "/>
<polygon fill-rule="evenodd" fill="#010101" points="107.699,145.101 106.8,145.15 106.1,145.4 105.55,145.8 105.199,146.4 
	105.1,146.65 105,147.15 104.9,147.75 104.85,148.65 104.75,148.8 104.699,149 104.6,149.15 104.55,149.351 104.35,149.601 
	104.25,149.7 104.199,149.7 104.199,149.75 104.199,149.851 103.9,150 103.8,150 103.75,150 103.75,150.05 103.65,150.15 
	103.35,150.25 103.05,150.3 102.449,150.25 102,150.101 101.6,149.851 101.35,149.601 101,149.25 100.65,149 100.1,148.851 
	99.5,148.851 98.699,148.9 98.05,149.101 97.4,149.45 96.949,150 96.6,150.4 96.35,150.851 96.199,151.25 96.199,151.7 
	96.199,152.05 96.3,152.5 96.449,153 96.699,153.65 96.699,153.75 96.699,153.8 96.75,153.9 96.85,154.15 96.9,154.351 97,154.55 
	97.1,154.8 97.1,154.851 97.15,154.95 97.1,155.101 97,155.3 96.8,155.55 96.55,155.851 96.3,155.95 96.1,156.101 95.699,156.351 
	95.55,156.351 95.449,156.4 95.25,156.5 94.85,156.55 94.75,156.5 94.699,156.5 94.6,156.5 94.4,156.45 94.15,156.351 
	93.949,156.25 93.4,155.95 92.9,155.9 92.15,156 91.449,156.3 91.1,156.5 90.85,156.75 90.699,157.4 90.699,157.95 90.8,158.4 
	90.949,158.7 91.199,158.9 91.4,158.95 91.4,158.851 91.4,158.75 91.449,158.65 91.25,158.15 91.25,157.7 91.35,157.25 91.699,157 
	92.199,156.851 92.9,156.8 93.05,156.851 93.4,157.15 93.75,157.25 94.199,157.4 94.75,157.45 95.5,157.5 95.699,157.45 95.8,157.4 
	95.949,157.4 96.449,157.25 96.65,157.05 96.75,156.95 96.75,156.9 96.8,156.9 96.9,156.9 97.1,156.7 97.35,156.5 97.6,156.05 
	97.85,155.65 98,155.25 98.05,154.9 98,154.8 98,154.75 98,154.65 97.949,154.55 97.949,154.5 97.949,154.4 97.85,154.2 
	97.8,154.101 97.8,154.05 97.699,153.601 97.5,153.05 97.4,152.65 97.35,152.3 97.35,152.15 97.5,151.601 97.8,151.101 
	98.15,150.65 98.6,150.351 99.1,150.15 99.75,150.101 99.85,150.15 100,150.3 100.199,150.55 100.5,150.9 100.6,151.05 
	100.8,151.25 101.05,151.351 101.4,151.5 101.699,151.55 102.1,151.65 102.55,151.65 103.1,151.7 103.199,151.65 103.35,151.65 
	103.65,151.65 104.15,151.5 104.35,151.351 104.6,151.25 105,151 105.3,150.55 105.6,150.101 105.8,149.55 106,148.95 106.25,147.7 
	106.449,147.2 106.75,146.851 107,146.5 107.35,146.3 108.199,146.15 108.5,146.25 108.65,146.351 108.85,146.55 109.15,147.05 
	109.3,147.351 109.5,147.8 109.55,148.101 109.65,148.45 109.699,148.75 109.8,149.101 109.9,149.7 109.9,150 109.9,150.15 
	109.949,150.351 109.949,150.7 110.1,151.05 110.3,151.351 110.65,151.601 111,151.75 111.5,151.9 112.05,152 112.699,152.101 
	113.3,152.101 113.85,152.15 114.3,152.25 114.75,152.4 115,152.55 115.25,152.75 115.4,153 115.449,153.3 115.35,153.55 115.1,154 
	114.9,154.15 114.8,154.351 114.75,154.65 114.75,154.7 114.8,154.851 115.05,155.4 115.25,155.65 115.55,155.9 115.85,156.05 
	116.199,156.101 116.4,156.05 116.6,156.05 116.9,155.95 116.9,155.851 117,155.75 117.1,155.55 117.3,155.351 117.15,155.15 
	116.9,155.05 116.55,154.851 116.199,154.75 116.25,154.7 116.65,154.25 116.85,153.9 116.85,153.8 116.85,153.65 116.85,153.45 
	116.9,153.25 116.85,152.75 116.699,152.4 116.6,152.25 116.55,152.15 116.35,151.9 116.1,151.601 115.8,151.3 115.05,150.7 
	114.35,150.351 113.65,150.2 113,150.351 112.65,150.4 112.4,150.5 112.15,150.5 112,150.55 111.699,150.55 111.55,150.5 
	111.3,150.101 111.1,149.65 110.9,149.15 110.8,148.601 110.55,147.65 110.4,147 110.3,146.601 110.3,146.45 109.8,145.8 
	109.5,145.55 109.25,145.4 108.85,145.2 108.5,145.101 108.1,145.05 107.699,145.101 "/>
<polygon fill-rule="evenodd" fill="#8CC63F" points="102.3,159.9 102.9,159.851 103.55,159.75 104.9,159.45 106.3,158.95 
	107.75,158.25 108.3,157.851 108.85,157.45 109.3,157.101 109.699,156.8 109.949,156.5 110.199,156.2 110.35,155.9 110.4,155.7 
	110.3,155.15 110.15,154.9 110.05,154.75 109.65,154.4 109.1,154.25 108.35,154.101 107.449,154.15 106.4,154.3 105.199,154.55 
	103.949,154.8 102.9,155.15 102,155.5 101.3,155.9 100.699,156.3 100.3,156.8 100.05,157.3 100,157.851 100,157.9 100.05,158.101 
	100.15,158.45 100.35,158.9 100.65,159.3 101.1,159.65 101.65,159.8 102.3,159.9 "/>
</svg>
