<?xml version="1.0" encoding="utf-8"?>
<!-- Generator: Adobe Illustrator 13.0.0, SVG Export Plug-In . SVG Version: 6.00 Build 14948)  -->
<svg version="1.2" baseProfile="tiny" id="Layer_1" xmlns="http://www.w3.org/2000/svg" xmlns:xlink="http://www.w3.org/1999/xlink"
	 x="0px" y="0px" width="176.95px" height="171.4px" viewBox="0 0 176.95 171.4" xml:space="preserve">
<path fill-rule="evenodd" fill="#F8981D" d="M60.4,17.15l-1.75,0.1l-1.5,0.1l-1.3,0.101l-1,0.1H54l-0.6,0.101H53l-0.1,0.1l-0.6,0.15
	l-2.95,0.75L46.6,19.55l-2.65,0.9l-2.5,1.05l-2.4,1.05l-2.25,1.2L34.7,25l-1.95,1.35l-1.55,1L29.8,28.4l-1.4,1l-1.25,1L25.9,31.3
	l-1.15,0.95l-1.1,0.9L22.7,34.05l-1,0.8l-0.85,0.801l-0.8,0.75l-0.7,0.8l-0.7,0.649l-0.55,0.7l-0.5,0.65l-0.4,0.649l-1.35,1.9
	L14.6,43.7l-2.3,3.8l-2.2,3.7l-1.9,3.7l-0.95,1.75l-0.85,1.8L5.6,60.2L4.9,62l-0.75,1.7l-0.6,1.75l-1.1,3.399L3.5,67.7l1.05-1
	l0.95-0.95l0.9-0.85l0.8-0.851l0.75-0.75l0.65-0.7l0.65-0.55L9.7,61.5l0.65-0.6l0.75-0.75l0.45-0.4l0.55-0.4l0.5-0.5l0.6-0.5
	l0.6-0.55l0.7-0.5l0.65-0.6L15.9,56.1l0.75-0.649l0.85-0.601l0.8-0.75l0.9-0.699l0.9-0.801l1-0.75L22.05,51l1.05-0.8l2.25-1.75
	l2.35-1.95l2.55-1.95L32.9,42.4l2.85-2.15l-1.4,1.2l-2.45,2.3l-2.3,2.4l-2.15,2.399L25.5,51.1l-0.35,0.45L24.8,52.1l-0.45,0.65
	l-0.45,0.8l-0.55,0.8l-0.6,0.95l-0.65,1l-0.65,1.15l-0.8,1.149l-0.8,1.301l-0.9,1.35l-0.9,1.5l-1,1.5L16,65.9L14.9,67.6l-1.1,1.851
	l-2.25,3.7L10.5,75l-0.85,1.9L8,80.7L6.75,84.6L5.7,88.5l-0.65,3.95l-0.25,2l-0.15,2l-0.05,4.1l0.05,3.95l0.25,3.8l0.25,3.65
	l0.45,3.55l0.45,3.35l0.55,3.2l0.65,3.05l0.8,2.95l0.7,2.7l0.35,1.3l0.4,1.3l0.7,2.4l0.7,2.3l0.6,2.101l0.6,2l0.25,0.899l0.3,0.9
	l0.6,1.75l0.05-0.5l0.2-0.7l0.2-0.9l0.35-1.1l0.15-0.65l0.2-0.699l0.55-1.5l0.55-1.801l0.7-1.899l0.95,1.35l1,1.45l1,1.5l1.1,1.65
	l1.05,1.649l1.15,1.8l2.35,3.851v0.05l0.1,0.15l0.15,0.25l0.25,0.449l0.25,0.45l0.35,0.55l0.35,0.65l0.5,0.85l0.45,0.851l0.6,0.95
	l0.6,1.05l0.7,1.25l0.7,1.25l0.85,1.35l0.85,1.45l0.95,1.65v-0.9v-0.95l-0.1-1.149L32.3,158.8v-0.6l-0.1-0.7l-0.05-0.7l-0.1-0.75
	l-0.05-0.7l-0.1-0.449l-0.05-0.4l-0.1-0.8l-0.2-1.7l-0.2-0.95l-0.15-1L31,149l-0.1-0.55l-0.05-0.5l-0.15-0.601l-0.1-0.55l-0.2-1.149
	l-0.1-0.351l-0.05-0.3l-0.1-0.6l-0.2-1.25l-0.3-1.351L29.4,140.4l-0.3-1.45l-0.1-0.4l-0.05-0.2V138.2l-0.1-0.7l-0.6-3.1l-0.6-3.301
	L27.2,129.4l-0.25-1.601l-0.25-1.55l-0.1-1.45l-0.1-1.45l0.05-1.35l0.05-1.3l0.25-1.2l0.15-1.1l0.15-1.101v-0.6v-0.3v-0.15l0.05-0.1
	l0.1-1.15v-1.05v-1.05l-0.25-1.75l-0.05-1.7V109l-0.1-0.65l-0.05-0.6L26.6,106l-0.05-1.55l-0.05-1.55l0.15-1.4l0.15-1.4l0.3-1.25
	l0.35-1.199l0.5-1.051L28.4,95.7l0.25,1L28.5,97.1l-0.05,0.45L28.4,99.7l-0.15,3.05v1l0.25,7.35l0.15,2.551l0.25,2.699l0.25,2.75
	l0.35,2.95l0.2,2.2l0.3,2.15l-0.15,0.55l-0.05,0.6l-0.05,0.601l0.45,3.8l0.05,0.75l-0.1,1.7l0.05,1.5v0.649l0.05,0.601l0.2,1.1
	l0.1,0.35l0.2,0.601l0.35,0.45v0.3v0.149l0.05,0.2l0.1,0.7l0.2,1.2l0.2,1l0.2,0.899l0.05,0.301l0.1,0.3l0.2,0.5l0.2,0.3l0.2,0.1
	l0.3-0.05l0.25-0.1l0.2-0.2l0.15-0.2V145v-0.2l0.05-0.2v-0.25l0.05-0.3l-0.05-0.1v-0.05V143.8v-0.25l-0.05-0.3v-0.3l-0.1-0.8
	l-0.05-0.5v-0.5v-0.101V140.9V140.8v-0.149l-0.1-0.351v-0.35l-0.05-0.101v-0.05v-0.1v-0.2v-0.55l-0.1-0.65l-0.05-0.7l-0.1-0.8v-0.85
	l-0.1-1l-0.1-1.05l-0.1-1.15l-0.1-1.15l-0.1-0.699l-0.05-0.2v-0.15v-0.3l-0.1-1.35l-0.1-1.45l-0.1-1.5l-0.3-3.3l-0.25-3.15l-0.25-3
	l-0.15-2.8l-0.3-9.65l0.1,0.3v0.051l0.05,0.1l0.1,0.2l0.3,0.649l0.25,0.5l0.3,0.45l0.2,0.351l0.1,0.1l0.05,0.05l0.1,0.101l0.2,0.149
	h0.1h0.05l0.1,0.05l0.6-1.449l0.75-1.45l0.3-0.8l0.35-0.65l0.7-1.1l0.3-0.5l0.35-0.4l0.3-0.35l0.35-0.2l-0.05,0.25l0.1,0.35
	l0.1,0.45l0.25,0.6l0.25,0.65l0.35,0.85l0.4,0.9l0.55,1.05l0.1-0.3l0.25-0.35l0.3-0.551l0.4-0.6l0.4-0.8l0.55-0.851l0.55-1.05
	l0.7-1.1l0.4-0.8l0.15-0.351l0.2-0.25l0.5,0.7l0.6,1l0.6,1.15l0.75,1.399l0.3,0.65L46,102.35l0.25-0.449l0.35-0.4l0.3-0.55l0.4-0.5
	l0.85-1.05l0.95-1.25l1.05-1.301L51.3,95.4l1.35-1.551l0.8,1.7l0.4,0.8l0.2,0.4l0.1,0.2l0.05,0.1l0.1,0.15v0.05l0.05,0.1l0.1,0.2
	l0.2,0.4l0.4,0.8l0.8,1.5l0.4-0.55l0.5-0.55l0.55-0.65l0.7-0.65l0.7-0.8l0.8-0.8l0.85-0.9l1-0.899l0.05,0.2l0.05,0.199l0.15,0.301
	l0.1,0.3l0.2,0.45l0.2,0.449l0.3,0.551l0.15,0.35l0.2,0.55l0.45,1.25L64,98.1l0.85-0.85l1.55-1.55l1.4-1.45L69.05,93l1.05-1.15
	l0.45-0.5l0.5-0.399l0.35-0.45l0.4-0.35l0.3-0.351l0.35-0.25l0.3,0.65l0.4,0.85L73.6,91.9l0.55,1.05l0.5,1.05l0.65,1.15l0.65,1.199
	L76.7,97.7l0.25-0.25l0.35-0.3l0.45-0.45l0.55-0.55l0.6-0.75l0.75-0.75l0.75-0.95l0.95-1l0.7-0.95l0.65-0.8l0.6-0.75l0.55-0.601
	l3.6,7.75l1.25-1.649L90.15,94.1l1.5-1.55l1.65-1.5l0.649,0.9l0.7,0.95L95.3,93.8l0.3,0.45l0.35,0.5l1.15,1.7l0.55,0.8l0.25,0.4
	l0.3,0.449l0.551-0.75L99.4,96.65l0.7-0.801l0.85-0.75l0.801-0.899l0.949-0.851l0.95-0.949l1.101-0.9l5.199,8.95l1.15-0.851
	l1.1-0.75l0.95-0.699l0.9-0.601l0.649-0.6l0.65-0.5L115.8,96l0.399-0.35l2.25,6.149l0.45-0.399l0.55-0.351L120,100.6l0.649-0.399
	L122,99.25l0.75-0.5l0.85-0.45l0.25,0.95l0.3,1.15l0.3,1.149l0.15,0.5l0.2,0.5l0.3,0.851v0.05l0.05,0.1l0.101,0.2l0.199,0.4
	l0.301,0.55l0.3,0.399l0.1,0.101l0.05,0.05l0.101,0.1l0.3,0.101l1.15-1.05l1.149-0.9l1-0.85l0.95-0.75l0.25-0.2v0.1v1v0.15v0.35
	v0.45l0.1,0.65v0.75l0.101,0.899l0.1,1.05l0.15,1.2l0.6-0.35l0.75-0.3l0.8-0.4l0.9-0.35l0.9-0.45l1.05-0.4l1.05-0.45l1.2-0.399
	l-0.5,0.899l-0.4,0.851l-0.399,0.75l-0.25,0.75l-0.25,0.6l-0.15,0.55l-0.15,0.45v0.4l1.2-0.65l1.15-0.55l2.1-1.05l1.8-0.95
	l0.801-0.4l0.75-0.35l-0.25,3.05l-0.351,3.2l-0.45,3.25L143,119.35l-0.65,3.4l-0.65,3.55l-0.85,3.55l-0.85,3.7l-0.5,1.65l-0.4,1.55
	l-0.35,1.35l-0.301,1.25L139,139.15l0.3-0.051l0.7-0.25l0.649-0.1l0.8-0.25l-0.6,1.15l-0.45,1.1l-0.35,0.7l-0.25,0.7l-0.25,0.649
	l-0.15,0.65l-0.2,0.6l-0.1,0.55l-0.1,0.5v0.45v0.351l0.1,0.35l0.15,0.25l0.25,0.2l0.25,0.1l0.35,0.05l0.1-0.1l0.2-0.3l0.25-0.45
	l0.351-0.6l0.35-0.801l0.45-0.949l0.45-1.15l0.6-1.3l0.25-0.851l0.3-0.75l0.25-0.699l0.3-0.601l0.4-1.1l0.15-0.5l0.199-0.351
	l0.4-0.399l0.35-0.351l0.301-0.35l0.3-0.25l0.149-0.3l0.15-0.2l0.1-0.2l0.051-0.149l-0.051-0.301l-0.05-0.149l0.3-0.351l0.101-0.1
	l0.05-0.1l-0.1-0.45l-0.101-0.2l-0.1-0.1l-0.4-0.15l-0.45-0.05l-0.75,0.25l-0.6,0.2l-0.45,0.149l-0.35,0.15l0.2-0.75l0.25-0.8
	l0.25-0.851l0.3-0.95l0.25-1.05l0.3-1.149l0.3-1.25l0.3-1.25l0.2-1.351l0.25-1.2l0.2-1.149l0.2-1.05l0.149-1l0.2-0.851l0.101-0.85
	l0.199-0.65l0.101-0.649l0.1-0.551l0.2-0.85l0.1-0.55v-0.15h0.051l-0.051-1.55v-1.4l-0.1-1.35l-0.05-1.15l-0.101-1.149l-0.1-0.95
	l-0.1-0.5l-0.051-0.4l-0.1-0.75l0.2-0.199l0.149-0.15l0.101-0.15l0.05-0.1l-0.1-0.3l-0.101-0.15l-0.05-0.1l-0.2-0.2L147,103.4
	l-0.15-0.351l-0.15-0.2l-0.25-0.149l-0.35-0.05l-0.5-0.301l-0.5,0.051l-0.05,0.25l-1.3,0.199l-1.25,0.5l-0.95,0.351l-0.851,0.35
	l-0.8,0.25l-0.7,0.15v-0.75l0.051-0.601v-0.6l0.05-0.5l0.149-0.35l0.2-0.25l0.351-0.45l0.149-0.351l0.05-0.149l0.051-0.05
	L140.2,100.3v-0.05l-0.1-0.15l0.25-0.35l0.05-0.1h0.05l-0.1-0.65l-0.1-0.25l-0.101-0.15l-0.2-0.199L139.8,98.3l-0.45-0.05h-0.2
	l-0.2,0.1l-0.3,0.101l-0.25,0.2l-0.35,0.199L137.7,99.15l-0.449,0.35l-0.4,0.45l-0.65,0.5l-0.5,0.45l-0.5,0.399l-0.35,0.351
	l-0.35,0.25l-0.15,0.199l-0.15,0.101v0.1v-0.25l0.2-0.399l0.2-0.45l0.15-0.55l0.149-0.4l0.05-0.4L135,99.6v-0.25l0.05-0.25
	l0.05-0.149l-0.05-0.3l-0.101-0.25l-0.199-0.2L134.5,98.1l-0.2-0.35l-0.25-0.25l-0.351-0.15h-0.35L132.5,97.7l-0.15-0.3l1.45-0.7
	l1.35-0.601l1.2-0.6l1.1-0.6l-1.75,5.399l0.551-0.7l0.6-0.6l1.1-1.05l0.45-0.5l0.5-0.4l0.4-0.399l0.45-0.301L140.1,96l0.35-0.25
	l0.301-0.2l0.35-0.1l0.25-0.15l0.25-0.05l0.45,0.05l0.25,0.15l0.1,0.149l0.101,0.25l0.05,0.551v0.35v0.45L142.45,97.6l-0.1,0.5
	l-0.25,1.15l-0.2,0.6l-0.2,0.7l-0.25,0.7l-0.199,0.8l2-0.399l1.8-0.301l1.6-0.3l1.45-0.25l0.2,1.3l0.3,1.5l0.2,1.601l0.3,1.8
	l0.05,0.95v0.5l0.05,0.6l-0.05,0.55v0.65l-0.05,1.35l-0.15,1.45l-0.1,0.75l-0.05,0.851l-0.2,1.699l-0.2,1.851l-0.35,1.8l-0.2,0.9
	l-0.1,0.449l-0.051,0.5l-0.449,1.801l-0.5,1.8l-0.601,1.7l-0.6,1.75l-0.7,1.699l-0.7,1.7l1.75-1.649l1.7-1.551l1.65-1.449
	l1.649-1.25l-0.25,0.5l-0.2,0.6L150,128.75l-0.5,1.35l-0.551,1.551l-0.649,1.55l-0.7,1.75l-0.75,1.85l-0.75,1.95l-0.9,2.05
	l-0.899,2.15l-0.5,1.1l-0.45,1.2l-0.95,2.45l-1.1,2.5l-1.101,2.649l-1.149,2.75l-1.2,2.9l0.25-0.9l-0.2,0.551l-0.149,0.5
	l-0.15,0.399l-0.05,0.351l1.649-2.15l1.601-2l1.5-1.9l1.45-1.75l1.3-1.649l1.25-1.55l1.149-1.45l1.101-1.25l0.95-1.25l0.899-1.101
	l0.8-0.949l0.75-0.851l0.65-0.75l0.55-0.649l0.45-0.551l0.4-0.35l0.199,0.3l-1.05,13l0.2-0.2l0.25-0.25l0.3-0.399l0.351-0.45
	l0.35-0.65l0.4-0.699l0.449-0.851l0.5-0.85l0.5-1.101L157,145.95l0.6-1.25l0.65-1.351l0.649-1.55l0.7-1.55l0.75-1.75l0.8-1.75
	l0.7-1.9l0.7-1.8l1.3-3.45l0.5-1.699l0.5-1.601l0.45-1.6l0.45-1.5l0.3-1.55l0.3-1.45l0.25-1.4l0.2-1.3l0.1-1.35L167,114.9l0.1-2.351
	l-0.15-2.399l-0.25-2.4l-0.199-1.25l-0.15-1.2l-0.2-1.25l-0.149-1.2l-0.551-2.6l-0.55-2.6l-0.2-0.7l-0.1-0.351l-0.05-0.3l-0.3-1.3
	l-0.75-2.7l0.35,0.101l0.4,0.149l0.75,0.3l0.699,0.25l0.65,0.301l0.55,0.199l0.25,0.101l0.3,0.149l1,0.4l0.351,0.1h0.05l0.1,0.051
	l0.2,0.1l0.3,0.1l0.25,0.101h0.051l0.1,0.05l0.15,0.1l0.199,0.101l0.7,0.149l0.65,0.2l1.2,0.4l0.5,0.1L173.7,96l0.4,0.2l0.35,0.2
	l-0.5-2.7l-0.399-2.45l-0.4-2.35L172.8,86.8l-0.4-2.05l-0.3-1.8l-0.3-1.7l-0.25-1.5L171,77.2l-0.551-2.45l-0.6-2.35l-0.55-2.2
	l-0.65-2.2l-0.6-2.05l-0.7-1.95l-0.65-1.85l-0.949-2.301l-0.95-2.199l-1.05-2.15l-1-2l-1.15-2l-1.1-1.85l-1.2-1.851l-1.15-1.7
	l-1.3-1.75l-1.3-1.6l-1.4-1.55l-1.35-1.4l-1.45-1.399L149.9,37.1l-1.55-1.25l-1.5-1.1l-1-0.7l-1.05-0.7l-1.25-0.8l-1.25-0.8
	l-1.45-0.9l-1.5-0.899l-1.65-1l-1.75-1l-0.75-0.45l0.65-0.1l0.85-0.051l0.851-0.05l1,0.05l2.149,0.15l1.15,0.1l1.35,0.2l1.301,0.15
	l1.449,0.25l1.45,0.25l1.65,0.3l1.649,0.3l1.75,0.351l1.801,0.35l1.949,0.45l-2-2.25l-1.05-1.05l-1.1-1l-1.2-1l-1.2-0.9l-2.6-1.75
	l-2.9-1.65l-1.5-0.75l-1.55-0.699l-1.65-0.7L137.8,17.85l-1.7-0.6l-1.75-0.55l-3.65-1.05l-3.6-0.95l-3.6-0.8l-3.551-0.65l-3.6-0.55
	l-3.5-0.4l-3.5-0.3l-3.45-0.15l-2.8-0.1l-2.6-0.1L98.15,11.55l-1.1-0.05h-1l-1.9-0.1l-1.7-0.101l-1.5-0.1L89.75,11.1l-0.3-0.399
	l-0.201-0.4L89.05,9.85l-0.1-0.399L88.8,8.9L88.75,8.4L88.701,7.85L88.75,7.3L88.8,6.15l0.15-1.051l0.25-0.949L89.65,3.35L89.75,3
	V2.85L89.8,2.8l-0.15-0.05H89.5L89.4,2.85L89.15,2.9L88.951,3.05l-0.25,0.15l-0.25,0.25l-0.35,0.2l-0.35,0.3l-0.4,0.3l-0.4,0.4
	l-0.8,0.6L85.4,6l-0.8,0.85l-0.7,1L83.1,8.9l-0.7,1.25l-0.8,1.35l-0.7,1.45l-1.65-0.7l-1.55-0.6l-1.45-0.7L74.9,10.35L72.8,9.4
	l-2.1-0.65L68.6,8.3L66.5,8.15l0.3,0.5l0.45,0.699L67.7,10.2l0.6,1.1l0.6,1.2l0.7,1.4l0.75,1.55l0.85,1.75l-1-0.15l-1.05-0.1
	l-1.2-0.101H66.7h-1.45l-1.5,0.051L62.1,17L60.4,17.15L60.4,17.15z M143.3,50.1l0.399,0.25V50.4L143.3,50.1L143.3,50.1z M116,91.05
	L115.85,91l-0.3,0.05l-0.25,0.15l-0.2-0.101l-0.15,0.051l-0.1,0.149v0.3l-0.45,0.45L114,92.7l-0.5,0.75l-0.25,0.399l-0.2,0.5
	l-0.45,0.45l-0.35,0.45l-0.551,0.7l-0.449,0.5l-0.15,0.2L111,96.8l-0.851-1.3l-0.75-1.15l-0.7-1.05l-0.649-0.95l-0.65-0.85
	l-0.55-0.75l-0.5-0.65l-0.4-0.55l0.75-1.3l0.851-1.35l0.3,0.949l0.4,0.851L110.7,94.1l0.551-0.449L111.9,93.1l0.7-0.649l0.85-0.7
	l0.851-0.85l1-0.95l1.05-1.05l1.15-1.101l0.75,1.8l-0.551,0.45l-0.3,0.3l-0.25,0.4l-0.3-0.1h-0.25h-0.15l-0.1,0.1l-0.2,0.1
	L116,91.05L116,91.05z M127,90.65l0.199,0.6l0.2,0.8l0.3,1.9l0.051,0.899l0.1,0.95v0.851v0.899l-0.1,0.8l-0.051,0.4v0.45l1.9-0.75
	l1.85-0.65l-0.1,0.351l-4.25,1.699l-0.3-1.1l-0.25-0.95l0.1-0.1l0.15-0.101l0.1-0.199l0.05-0.101l0.101-0.05l0.05-0.3l0.1-0.25
	V96.35l0.051-0.3l-0.101-0.7l-0.1-0.35l-0.101-0.3l-0.199-0.4l-0.101-0.2L126.6,94v-0.05l-0.45-0.7l-0.45-0.55l-0.35-0.2l-0.25,0.05
	l-0.05,0.351h-0.2l-0.35,0.05L124.3,93l-0.2,0.15l-0.55,0.35l-0.601,0.55l-0.1-0.05v0.15l-0.3,0.25l-0.95,0.8l-0.4,0.35l-0.3,0.351
	l-0.35,0.25l-0.25,0.25l-0.351,0.35l-0.3-0.35l-0.149-0.2l-0.101-0.15l-0.5-0.75l-0.6-0.85l-0.5-0.95l0.35-0.6l0.4-0.5l0.3-0.45
	l0.3-0.351l1.05,2.5l2-1.05l0.9-0.5l0.9-0.399l1.6-0.851L127,90.65L127,90.65z M93.7,83.85l0.351,0.65l1.1,1.75l0.55,0.8L96.3,87.9
	l0.5,0.75l0.55,0.8l1.1,1.45L99,90.4l0.3-0.301l0.399-0.25l0.851-0.699l0.95-0.801l1.05-1l0.55-0.55l0.65-0.5l1.35-1.2l1.45-1.25
	l0.3,1.051l0.15,0.5l0.199,0.55l-1.5,0.75L104.3,87.85l-0.351-0.199l-0.199,0.1l-0.15,0.3v0.5l-0.4,0.3l-0.35,0.4L102,90.2
	l-2.051,2.2l-1.85,2.3l-0.85-1.65L96.6,91.65l-0.55-1.15l-0.45-0.85l-0.55-0.801l-0.351-0.8l0.101-0.3l0.1-0.2l0.05-0.149L95,87.35
	L94.95,86.95l-0.1-0.25l-0.15-0.3L94.5,86.25L94.2,86.1h-0.35l-0.3,0.15l-0.4-0.3l-0.3-0.101L92.5,85.9l-0.2,0.149L92.2,86.2
	l-0.1,0.149l0.05,0.25L92,86.75L91.9,87l-0.05,0.75l0.1,0.2L91.6,88.3l-0.3,0.45l-0.351,0.5l-0.3,0.6L90,90.75l-0.65,1.05
	l-0.7,1.101l-0.7,1.199L87.3,92.7l-0.5-1.25l-0.5-1.15l-0.35-0.95l-0.25-1l-0.2-0.85l0.4-0.55l0.15-0.25l0.2-0.15l0.15-0.25
	l0.05-0.1h0.05l-0.05-0.3v-0.2l-0.1-0.351L86.2,85.1L86,84.95l-0.3-0.05h-0.2L85.35,85l-0.4,0.15L84.5,85.5l-0.1-0.1l-0.35-0.45
	l-0.3-0.25L83.5,84.6l-0.15,0.051l-0.2,0.149l-0.1,0.351L83,85.6v0.65l0.1,0.35l-0.45,0.351l-0.6,0.45L81.4,88.05l-0.7,0.65
	l-0.75,0.8l-0.85,0.8l-0.85,0.95L77.3,92.2l-0.95,1.1l-0.1-0.1L76.2,93.1l-0.1-0.25L76,92.65l-0.05-0.2L75.85,92l-0.1-0.2l-0.05-0.1
	v-0.05l-0.1-0.301l-0.2-0.699l-0.1-0.25l-0.05-0.2l-0.1-0.4l-0.1-0.25L75,89.35L74.9,88.9l-0.25-0.65l-0.2-0.55l-0.4-0.851
	l0.5-0.649l0.4-0.45l0.2-0.35L75.2,85.3h0.05l-0.05-0.55l-0.15-0.35l-0.15-0.15l-0.1-0.05l-0.3-0.05l-0.45,0.05l-0.25,0.05
	l-0.2,0.15L73,84.75l-0.65,0.55L72,85.6l-1,0.851l-0.7,0.7l-0.6,0.55l-0.25,0.2l-2.1,2.199l-1.8,2.301l-0.3,0.399l-0.65,0.95
	l-0.1-0.15v-0.25l-0.1-0.399V92.5l-0.2-1.85l-0.2-1.5l-0.05-0.5l0.15-0.25h0.05l0.2-0.551L64.6,87.4l0.4-0.75L65.25,86l0.1-0.25
	l0.1-0.15L66.2,90.2l0.85-1l1.05-1l1.15-1.101l1.25-1.149l0.85-0.851l0.8-0.699l0.75-0.65l0.7-0.5l0.6-0.5l0.55-0.35l0.5-0.301
	l0.45-0.149v0.45l0.1,0.6l0.1,0.75l0.2,0.95l0.2,1.05l0.3,1.2l0.35,1.35l0.45,1.5l0.45-0.6l0.25-0.351l0.35-0.3l0.75-0.85l0.4-0.5
	l0.5-0.45l0.95-1.15L82.2,84.4l1.25-1.4l0.65-0.75l0.75-0.7l3.8,8.3l0.7-0.899l0.7-0.8L91.4,86.6l1.2-1.449l0.55-0.7L93.7,83.85
	L93.7,83.85z M148.75,83.4l-0.2,0.35l-0.101,0.35L148.5,83.7l0.1-0.351L148.75,83.4L148.75,83.4z M45.85,96.4l-0.2-0.551L45.5,95.4
	L45.2,94.6L45,94.2l-0.15-0.25l-0.1-0.4l-0.05-0.3L44.6,93l-0.1-0.15l-0.15-0.3l-0.1-0.149l-0.2-0.101l-0.15,0.05L43.65,92.4
	l-0.2,0.199l-0.3,0.25l-0.25,0.4l-0.25,0.05l-0.15,0.15l-0.1,0.45l-0.05,0.05l-0.5,0.45l-0.5,0.55L40.6,95.8L39.8,96.9l-0.35,0.5
	l-0.6,0.85L38.6,97.5l-0.2-0.6l-0.2-0.45l0.05-0.101V96.2l-0.1-0.65l-0.1-0.25l-0.1-0.149l-0.2-0.2l-0.2-0.101L37.1,94.8l-0.3,0.15
	l-0.7-0.15h-0.35l-0.25,0.15l-0.15,0.1l-0.15,0.4v0.3l0.1,0.3v0.05l0.05,0.101l0.1,0.2l-0.6,0.85l-0.5,0.65l-0.45,0.75l-0.55,0.8
	l-0.5,0.899L32.4,99.4L32.05,98.6l-0.35-0.75L31.4,97.2v-0.5v-0.25l0.05-0.2l0.05-1V95l0.15-0.3l0.15-0.2l0.25,0.8l0.35,0.95
	l0.35,1.05l0.45,1.2l0.85-2l1-1.65l1-1.449L37.2,92.3l0.5,0.601l0.55,0.699l1,1.45l0.25,0.45l0.1-0.3l0.2-0.25L40,94.6l0.35-0.35
	l0.3-0.45l0.4-0.45l0.45-0.5l0.55-0.5l0.65-0.8l0.85-0.85l0.85-0.95l1-1l0.3,1.2L46,91l0.2,0.9l0.1,0.399l0.15,0.4l1.15-1.45
	L48.65,90l0.95-1.15l0.45-0.55l0.5-0.45L51.3,86.9l0.35-0.45l0.4-0.351l0.6-0.649l0.25-0.3l0.3-0.2l0.35,0.8l0.55,1.1l0.55,1.351
	l0.7,1.649l0.05-0.199l0.1-0.101V89.5l0.05,0.05H55.5v0.101L55.4,90l0.75,1.95L56.2,92.1l0.5,1.4l0.9-1.15l0.9-1l0.85-1l0.85-0.899
	l-0.6,1l-0.55,0.95l-0.55,0.85l-0.5,0.8l-0.5,0.7l-0.45,0.65l-0.4,0.55L56.3,95.5l-0.1,0.15l-0.75-1.95l-0.35-0.9l-0.25-0.55
	l-0.3-0.7V91.5h-0.2l-0.2-0.1L54,91.2l-0.1-0.15l-0.3-0.5l0.1,0.15l0.15,0.2l0.1,0.1L54,91.05l0.1,0.101l0.05,0.05l0.1,0.05V91.2
	h0.05h0.1l-0.3-0.65l-0.25-0.45L53.6,89.65l-0.2-0.25l0.15-0.4l0.15-0.3l0.1-0.25l0.05-0.101L53.8,87.9V87.55l-0.1-0.35l-0.05-0.25
	l-0.2-0.4l-0.15-0.1h-0.1h-0.4l-0.45,0.25l-0.5,0.399l-0.3,0.301L51.3,87.8l-0.65,0.65l-0.6,0.8l-0.35,0.4l-0.3,0.5l-0.6,1.05
	l-0.4,0.5l-0.35,0.6l-0.7,1.25L46.6,94.9L46.2,95.6L45.85,96.4L45.85,96.4z M30.95,92.6l-0.4-0.149H30.1h-0.15l0.1-0.3l0.15-0.2
	l0.2-0.3l0.1,0.199l0.05,0.101l0.1,0.149L30.95,92.6L30.95,92.6z M28.65,95.1l0.05,0.051l-0.1,0.1L28.65,95.1L28.65,95.1z
	 M65.25,84.65L65.1,84.5L65,84.45l-0.35-0.05l0.5-0.5L65.25,84.65L65.25,84.65z"/>
<polygon fill-rule="evenodd" fill="#FFCD05" points="63.95,88.65 64,89.15 64.2,90.65 64.4,92.5 64.4,92.95 64.5,93.35 64.5,93.6 
	64.6,93.75 65.25,92.8 64.6,90.55 64.15,88.4 64.1,88.4 63.95,88.65 "/>
<polygon fill-rule="evenodd" fill="#FFCD05" points="38.85,98.25 39.45,97.4 38.95,97.3 38.6,97.05 38.4,96.9 38.6,97.5 
	38.85,98.25 "/>
<polygon fill-rule="evenodd" fill="#FFCD05" points="55.4,90 55.5,89.65 55.5,89.55 55.55,89.55 55.5,89.5 55.5,89.55 55.4,89.65 
	55.35,89.85 55.15,90.05 54.95,90.35 54.65,90.7 54.4,91.2 54.3,91.2 54.25,91.2 54.25,91.25 54.15,91.2 54.1,91.15 54,91.05 
	53.95,91 53.85,90.9 53.7,90.7 53.6,90.55 53.9,91.05 54,91.2 54.15,91.4 54.35,91.5 54.55,91.5 54.75,90.95 55,90.55 55.2,90.2 
	55.4,90 "/>
<path fill-rule="evenodd" fill="#FFCD05" d="M124.15,100.4l-0.3-1.15l-0.25-0.95l-0.85,0.45l-0.75,0.5l-1.351,0.95L120,100.6
	l-0.551,0.45l-0.55,0.351l-0.45,0.399l-2.25-6.149L115.8,96l-0.45,0.45l-0.65,0.5l-0.649,0.6l-0.9,0.601l-0.95,0.699l-1.1,0.75
	l-1.15,0.851l-5.199-8.95l-1.101,0.9l-0.95,0.949L101.75,94.2L100.95,95.1l-0.85,0.75l-0.7,0.801L98.75,97.35L98.2,98.1l-0.3-0.449
	l-0.25-0.4l-0.55-0.8l-1.15-1.7l-0.35-0.5l-0.3-0.45L94.65,92.9l-0.7-0.95l-0.649-0.9l-1.65,1.5l-1.5,1.55L88.701,95.7l-1.25,1.649
	l-3.6-7.75L83.3,90.2l-0.6,0.75l-0.65,0.8l-0.7,0.95l-0.95,1l-0.75,0.95L78.9,95.4l-0.6,0.75l-0.55,0.55l-0.45,0.45l-0.35,0.3
	L76.7,97.7l-0.75-1.351L75.3,95.15L74.65,94l-0.5-1.05L73.6,91.9l-0.45-0.851l-0.4-0.85l-0.3-0.65L72.1,89.8l-0.3,0.351l-0.4,0.35
	l-0.35,0.45l-0.5,0.399l-0.45,0.5L69.05,93l-1.25,1.25l-1.4,1.45l-1.55,1.55L64,98.1l-0.8,0.95l-0.45-1.25l-0.2-0.55L62.4,96.9
	l-0.3-0.551L61.9,95.9l-0.2-0.45l-0.1-0.3l-0.15-0.301L61.4,94.65l-0.05-0.2l-1,0.899l-0.85,0.9l-0.8,0.8l-0.7,0.8l-0.7,0.65
	l-0.55,0.65l-0.5,0.55l-0.4,0.55l-0.8-1.5l-0.4-0.8l-0.2-0.4l-0.1-0.2l-0.05-0.1V97.2l-0.1-0.15l-0.05-0.1l-0.1-0.2l-0.2-0.4
	l-0.4-0.8l-0.8-1.7L51.3,95.4l-1.15,1.449L49.1,98.15l-0.95,1.25l-0.85,1.05l-0.4,0.5l-0.3,0.55l-0.35,0.4L46,102.35l-0.45,0.851
	l-0.3-0.65l-0.75-1.399L43.9,100l-0.6-1l-0.5-0.7l-0.2,0.25L42.45,98.9l-0.4,0.8l-0.7,1.1l-0.55,1.05l-0.55,0.851l-0.4,0.8l-0.4,0.6
	l-0.3,0.551L38.9,105l-0.1,0.3l-0.55-1.05l-0.4-0.9l-0.35-0.85l-0.25-0.65l-0.25-0.6l-0.1-0.45l-0.1-0.35l0.05-0.25l-0.35,0.2
	l-0.3,0.35l-0.35,0.4l-0.3,0.5l-0.7,1.1l-0.35,0.65l-0.3,0.8l-0.75,1.45l-0.6,1.449l-0.1-0.05H32.7h-0.1l-0.2-0.149l-0.1-0.101
	l-0.05-0.05l-0.1-0.1l-0.2-0.351l-0.3-0.45l-0.25-0.5l-0.3-0.649l-0.1-0.2l-0.05-0.1v-0.051l-0.1-0.3l0.3,9.65l0.15,2.8l0.25,3
	l0.25,3.15l0.3,3.3l0.1,1.5l0.1,1.45l0.1,1.35v0.3v0.15l0.05,0.2l0.1,0.699l0.1,1.15l0.1,1.15l0.1,1.05l0.1,1v0.85l0.1,0.8l0.05,0.7
	l0.1,0.65v0.55v0.2v0.1v0.05l0.05,0.101v0.35l0.1,0.351v0.149v0.101v0.149v0.101v0.5l0.05,0.5l0.1,0.8v0.3l0.05,0.3v0.25v0.101v0.05
	l0.05,0.1l-0.05,0.3v0.25l-0.05,0.2v0.2v0.05l3.1,2.351l3.2,2.199l3.2,2.051l3.25,1.949l3.25,1.75l3.3,1.601l3.3,1.45l3.35,1.35
	l3.35,1.1l3.4,1l3.4,0.851l3.5,0.75l3.45,0.5l3.5,0.399l3.55,0.25l3.6,0.101l0.9-0.05h0.95l1.899-0.051l3.7-0.25l3.601-0.449
	l3.6-0.551l3.5-0.8l1.7-0.45l0.399-0.149l0.45-0.101l0.9-0.199l0.8-0.301l0.4-0.149l0.449-0.101l1.7-0.55l1.65-0.6l1.7-0.601
	l3.199-1.449l1.551-0.801l1.6-0.75l1.5-0.899l0.35-0.25l0.4-0.2l0.8-0.4l1.5-0.949l0.75-0.5l0.8-0.45l0.7-0.55l0.75-0.5l1.5-1.051
	l2.9-2.199l2.8-2.4l2.8-2.55l0.15-0.65l0.25-0.649l0.25-0.7l0.35-0.7l0.45-1.1l0.6-1.15l-0.8,0.25l-0.649,0.1l-0.7,0.25l-0.3,0.051
	l-0.551,0.199l0.301-1.25l0.35-1.35l0.4-1.55l0.5-1.65l0.85-3.7l0.85-3.55l0.65-3.55l0.65-3.4l0.449-3.35l0.45-3.25l0.351-3.2
	l0.25-3.05l-0.75,0.35l-0.801,0.4l-1.8,0.95l-2.1,1.05l-1.15,0.55l-1.2,0.65v-0.4l0.15-0.45l0.15-0.55l0.25-0.6l0.25-0.75
	l0.399-0.75l0.4-0.851l0.5-0.899l-1.2,0.399l-1.05,0.45l-1.05,0.4l-0.9,0.45l-0.9,0.35l-0.8,0.4l-0.75,0.3l-0.6,0.35l-0.15-1.2
	l-0.1-1.05l-0.101-0.899v-0.75l-0.1-0.65v-0.45v-0.35v-0.15v-1l-0.25,0.101l-0.95,0.75l-1,0.85l-1.149,0.9l-1.15,1.05l-0.3-0.101
	l-0.101-0.1l-0.05-0.05l-0.1-0.101l-0.3-0.399l-0.301-0.55l-0.199-0.4l-0.101-0.2l-0.05-0.1v-0.05l-0.3-0.851l-0.2-0.5l-0.15-0.5
	L124.15,100.4L124.15,100.4z M93.6,97.75v-0.9h0.6l0.351,1.7l0.45,2l0.5,2.101l0.649,2.399l0.15,0.9l0.2,0.899l0.1,0.851l0.05,0.399
	l0.101,0.45v0.351l0.05,0.399l0.1,0.8l0.05,0.7v0.351L97,111.55l-0.051,0.55v0.75v0.9v1.1l-0.1,1.2v1.45l-0.05,1.55v1.8l-0.4,0.4
	L96.2,120l-0.1-0.7l-0.05-0.2v-0.149v-0.3l-0.2-1.5l-0.2-1.601L95.5,114.65l-0.101-0.9l-0.2-1.85l-0.3-2.051l-0.2-2.1l-0.3-2.2
	l-0.2-1.899L94,102l-0.15-1.35L93.7,99.5l-0.05-0.85L93.6,98.05V97.75L93.6,97.75z M53.55,97.8l0.05,0.05h-0.05V97.8L53.55,97.8z
	 M57.05,102L57,101.95h0.1L57.05,102L57.05,102z M55.85,101.6h-0.1l0.7-0.35v0.05l-0.35,0.2L55.85,101.6L55.85,101.6z M80.4,126h1.8
	h1.75h0.1h1.7h1.65h1.45l1.45,0.05h1.25l1.2,0.05l1,0.051l0.949,0.1l-0.1-1.6l0.1,0.449l0.2,0.351l0.2,0.25l0.2,0.25l0.2,0.1
	l0.199,0.05l0.2-0.05l0.25-0.05l0.101-0.1l0.199,0.05l0.2,0.149l0.2,0.351l0.25,0.1l0.9-0.25l1.149-0.2l1.3-0.149L102,125.85
	l1.6-0.149l1.9-0.05l2-0.051h2.25l0.1-0.199l-0.05,0.199h0.899l0.25,0.051l0.351,0.199l0.3,0.15l0.3,0.1l1-0.05h1.05H116L116.2,126
	h0.25h0.5h1h2l1.851-0.1l1.899-0.051l1.801-0.1l0.899-0.05h0.95l1.6-0.101l1.5-0.1l1.301-0.1l1.149-0.051L133,125.45v0.1l0.05,0.25
	L133,125.9h-0.051v0.05v0.1l-0.25,0.3l-0.199,0.101l-0.2,0.149l-0.55,0.301L131,127.1l-0.9,0.2h-0.3h-0.15l-0.1,0.05l-0.5,0.101
	l-1.15,0.2l-0.05,0.699v0.101v0.2l-0.1,0.8l-0.101,0.85l-0.399,1.7l-0.7,1.6l-0.9,1.601l-0.55,0.6l-0.5,0.65L124,137l-0.301,0.25
	l-0.25,0.3L122.75,138l-0.351,0.2l-0.3,0.25l-0.75,0.399l-0.7,0.4l-0.45,0.1l-0.399,0.15l-0.8,0.3l-0.9,0.2l-0.45,0.1l-0.399,0.15
	l-0.95,0.1l-0.5,0.051l-0.45,0.1l-1,0.05l-1,0.05l-1.95-0.1l-1.75-0.3l-0.85-0.25l-0.75-0.25l-0.75-0.351l-0.65-0.35l1.351,1.25
	l0.75,0.55l0.85,0.601l1.75,1.05l0.95,0.5l1.05,0.5l-0.5,0.2l-0.35,0.199l-0.351,0.101L112,144l-0.101-0.05h-0.05h-0.1h-0.2
	l-0.25-0.101l-0.2-0.05l-0.5-0.25l-0.3-0.149l-0.25-0.101l-0.2-0.149l-0.15-0.101l-0.3-0.2l-0.7-0.449L108.3,142.1l-0.2-0.149
	l-0.15-0.101l-0.75-0.6L105.75,140l-1.2-1.1l-1-1.101l-0.7-0.95l-0.2-0.3l-0.2-0.35l-0.1-0.15l-0.05-0.1l-0.101-0.2l-0.199-0.5
	l-0.301-0.6l-0.1-0.2l-0.05-0.101v-0.05l-0.101-0.3l-0.3-0.75l-0.149-0.4l-0.101-0.35l-0.45-1.05l-0.3-0.8L99.9,130l-0.1-0.45
	l-0.4-0.05h-0.3l-0.3,0.1l-0.4,0.101L98,129.95l-0.25,0.149l0.1,0.5l0.1,1.2l0.2,1.15v0.2v0.1v0.05l0.05,0.101l0.101,0.5l0.2,0.949
	l0.1,0.75l0.05,0.301l0.101,0.35l0.1,0.5l0.05,0.2L99,137.2l0.149,0.6l0.15,0.601v0.25l0.05,0.3l0.1,0.55H99.4v0.05v0.101l-0.05,0.1
	h-0.1H99.2v0.05l-0.1-0.05h-0.05l-0.15-0.1l-0.1-0.051l-0.25-0.199L98.2,139.1L98,138.9L97.9,138.8l-0.05-0.05l-0.1-0.85L97.5,137.1
	L97.15,136.9l-0.3-0.4l-0.3-0.6l-0.2-0.351l-0.1-0.399l-0.301-1l-0.25-1.2l-0.3-1.4l-0.1-0.75L95.2,130L94,129.6l-0.75-0.199
	L92.5,129.3l-0.95-0.1H90.6l-1.399,0.05l-1.301,0.2l-1.3,0.3l-1.25,0.5l-0.6,0.35l-0.4,2.15l-0.5,2.35l-0.7,2.45l-0.45,1.25
	l-0.4,1.351l-0.3,0.6l-0.15,0.3l-0.1,0.351l-0.3,0.6l-0.15,0.3l-0.1,0.351l-0.6,1.149l-0.55,1.101l-0.2,0.199l-0.1,0.101
	l-0.05,0.149l-0.3,0.5l-0.65,0.9l-0.7,0.8l-0.2,0.15l-0.15,0.2l-0.3,0.399l-0.8,0.601l-0.4,0.25l-0.35,0.3l-0.8,0.45l-0.8,0.449
	l-0.9,0.25L72.9,150.7l-0.4,0.149L71.6,151l-0.9,0.05l-0.65-0.1H69.6h-0.4L68.95,151l-0.2-0.25l-0.05-0.15l0.6-0.3l0.3-0.149
	l0.35-0.101l1.2-0.5l1.1-0.55l1.1-0.55l1-0.65l0.95-0.6l0.9-0.7l0.4-0.35l0.45-0.301l0.7-0.75l0.7-0.75l0.6-0.8l0.6-0.75l0.5-0.899
	l0.2-0.45l0.25-0.4l0.4-0.899V140l0.05-0.1l0.1-0.2l0.2-0.4l0.2-0.7l-0.75,1l-0.5,1.051l-0.45,0.699l-0.5,0.7l-0.6,0.65l-0.6,0.649
	l-0.4,0.25L77.4,143.9l-0.4,0.25l-0.35,0.3l-0.85,0.5l-0.85,0.5l-1,0.399l-1.05,0.4l-1.1,0.3l-0.6,0.15l-0.55,0.2L70,147l-0.6,0.15
	l-1.3,0.25l-0.7,0.05l-0.65,0.1l-1.4,0.2l-1.5,0.05H62.5l-1.35-0.1l-1.2-0.15l-1.2-0.25l-1.1-0.3l-1.05-0.35l-0.9-0.45l-0.95-0.55
	l-0.8-0.601l-0.8-0.7l-0.65-0.75l-0.65-0.85l-0.55-0.9l-0.5-0.949l-0.35-1.051L49.9,138.4l-0.35-1.351l-0.35-1.3l-0.15-1.2
	l-0.15-1.2v-1.1l0.05-1.05l0.2-0.9l-0.7,0.05l-0.7,0.101l-0.8,0.05l-0.75,0.1l-0.55-0.55l0.05-0.3l0.2-0.2l0.3-0.2l0.45-0.199
	l0.55-0.2l0.7-0.15l0.85-0.149l1-0.101l0.4-0.85l0.55-0.65l0.05-0.05H51h0.25h0.45h0.45h0.55l1.35,0.1l1.65,0.051l2.05,0.1
	l2.35,0.15l2.75,0.199l2.55-0.199l2.5-0.2l2.35-0.2l2.25-0.2l2.1-0.2l2.05-0.199l1.9-0.2L80.4,126L80.4,126z M137.45,139.9
	l-0.149,0.8l-0.4,1.05L137.45,139.9L137.45,139.9z M137.45,139.75l-2.399,0.8l1.3-0.5l1.1-0.35V139.75L137.45,139.75z M103.1,145.3
	l-0.1,0.4L102.7,146.1l-0.5,0.301l-0.3,0.149l-0.3,0.2l-0.5,0.1l-0.5,0.15l-1.1,0.2l-0.7,0.05l-0.7,0.1h-0.75h-0.4H96.75H96.65H96.6
	v0.051l-0.65-0.051l-0.3-0.1l-0.2-0.05l-0.25-0.15l-0.149-0.1l-0.2-0.3l-0.1-0.551v-0.149v-0.05l0.1-0.551L95,144.95l0.25-0.3
	l0.35-0.25l0.5-0.15l0.55-0.15l0.65-0.05l0.75-0.05l0.899,0.05h0.7l0.65,0.05l1.1,0.15l0.8,0.2l0.601,0.3L103,145L103.1,145.3
	L103.1,145.3z"/>
<polygon fill-rule="evenodd" fill="#F8981D" points="93.6,96.85 93.6,97.75 93.6,98.05 93.65,98.65 93.7,99.5 93.85,100.65 94,102 
	94.2,103.65 94.4,105.55 94.7,107.75 94.9,109.85 95.2,111.9 95.4,113.75 95.5,114.65 95.65,115.55 95.85,117.15 96.05,118.65 
	96.05,118.95 96.05,119.1 96.1,119.3 96.2,120 96.4,121.25 96.8,120.85 96.8,119.05 96.85,117.5 96.85,116.05 96.95,114.85 
	96.95,113.75 96.95,112.85 96.95,112.1 97,111.55 96.95,111.15 96.95,110.8 96.9,110.1 96.8,109.3 96.75,108.9 96.75,108.55 
	96.65,108.1 96.6,107.7 96.5,106.85 96.3,105.95 96.15,105.05 95.5,102.65 95,100.55 94.55,98.55 94.2,96.85 93.6,96.85 "/>
<polygon fill-rule="evenodd" fill="#F8981D" points="55.75,101.6 55.85,101.6 56.1,101.5 56.45,101.3 56.45,101.25 55.75,101.6 "/>
<path fill-rule="evenodd" fill="#F8981D" d="M83.95,126H82.2h-1.8l-1.85,0.2l-1.9,0.2L74.6,126.6l-2.1,0.2l-2.25,0.2l-2.35,0.2
	l-2.5,0.2l-2.55,0.199L60.1,127.4l-2.35-0.15l-2.05-0.1l-1.65-0.051L52.7,127h-0.55H51.7h-0.45H51h-0.25l-0.05,0.05l-0.55,0.65
	l-0.4,0.85l-1,0.101L47.9,128.8l-0.7,0.15l-0.55,0.2l-0.45,0.199l-0.3,0.2l-0.2,0.2l-0.05,0.3l0.55,0.55l0.75-0.1l0.8-0.05
	l0.7-0.101l0.7-0.05l-0.2,0.9l-0.05,1.05v1.1l0.15,1.2l0.15,1.2l0.35,1.3l0.35,1.351l0.55,1.449l0.35,1.051l0.5,0.949l0.55,0.9
	l0.65,0.85l0.65,0.75l0.8,0.7l0.8,0.601l0.95,0.55l0.9,0.45l1.05,0.35l1.1,0.3l1.2,0.25l1.2,0.15l1.35,0.1h1.35l1.5-0.05l1.4-0.2
	l0.65-0.1l0.7-0.05l1.3-0.25L70,147l0.65-0.1l0.55-0.2l0.6-0.15l1.1-0.3l1.05-0.4l1-0.399l0.85-0.5l0.85-0.5l0.35-0.3l0.4-0.25
	l0.35-0.301l0.4-0.25l0.6-0.649l0.6-0.65l0.5-0.7l0.45-0.699l0.5-1.051l0.75-1l-0.2,0.7l-0.2,0.4l-0.1,0.2L81,140v0.15l-0.4,0.899
	l-0.25,0.4l-0.2,0.45l-0.5,0.899l-0.6,0.75l-0.6,0.8l-0.7,0.75l-0.7,0.75l-0.45,0.301l-0.4,0.35l-0.9,0.7l-0.95,0.6l-1,0.65
	l-1.1,0.55l-1.1,0.55l-1.2,0.5l-0.35,0.101l-0.3,0.149l-0.6,0.3l0.05,0.15l0.2,0.25l0.25-0.05h0.4h0.45l0.65,0.1l0.9-0.05l0.9-0.15
	l0.4-0.149l0.45-0.101l0.9-0.25l0.8-0.449l0.8-0.45l0.35-0.3l0.4-0.25l0.8-0.601l0.3-0.399l0.15-0.2l0.2-0.15l0.7-0.8l0.65-0.9
	l0.3-0.5l0.05-0.149l0.1-0.101l0.2-0.199l0.55-1.101l0.6-1.149l0.1-0.351l0.15-0.3l0.3-0.6l0.1-0.351l0.15-0.3l0.3-0.6l0.4-1.351
	l0.45-1.25l0.7-2.45l0.5-2.35l0.4-2.15l0.6-0.35l1.25-0.5l1.3-0.3l1.301-0.2l1.399-0.05h0.95l0.95,0.1l0.75,0.101L94,129.6L95.2,130
	l0.101,0.8l0.1,0.75l0.3,1.4l0.25,1.2l0.301,1l0.1,0.399l0.2,0.351l0.3,0.6l0.3,0.4L97.5,137.1l0.25,0.801l0.1,0.85l0.05,0.05
	L98,138.9L98.2,139.1l0.351,0.301l0.25,0.199l0.1,0.051l0.15,0.1h0.05l0.1,0.05v-0.05h0.051h0.1l0.05-0.1v-0.101v-0.05h0.05
	l-0.1-0.55l-0.05-0.3v-0.25l-0.15-0.601L99,137.2l-0.101-0.25l-0.05-0.2l-0.1-0.5l-0.101-0.35L98.6,135.6l-0.1-0.75l-0.2-0.949
	l-0.101-0.5l-0.05-0.101v-0.05v-0.1v-0.2l-0.2-1.15l-0.1-1.2l-0.1-0.5L98,129.95l0.399-0.25l0.4-0.101l0.3-0.1h0.3l0.4,0.05
	l0.1,0.45l0.25,0.65l0.3,0.8l0.45,1.05l0.101,0.35l0.149,0.4l0.3,0.75l0.101,0.3v0.05l0.05,0.101l0.1,0.2l0.301,0.6l0.199,0.5
	l0.101,0.2l0.05,0.1l0.1,0.15l0.2,0.35l0.2,0.3l0.7,0.95l1,1.101l1.2,1.1l1.449,1.25l0.75,0.6l0.15,0.101l0.2,0.149l0.399,0.301
	l0.7,0.449l0.3,0.2l0.15,0.101l0.2,0.149l0.25,0.101l0.3,0.149l0.5,0.25l0.2,0.05l0.25,0.101h0.2h0.1h0.05L112,144l0.149-0.05
	l0.351-0.101l0.35-0.199l0.5-0.2l-1.05-0.5l-0.95-0.5l-1.75-1.05l-0.85-0.601l-0.75-0.55L106.65,139l0.65,0.35l0.75,0.351l0.75,0.25
	l0.85,0.25l1.75,0.3l1.95,0.1l1-0.05l1-0.05l0.45-0.1l0.5-0.051l0.95-0.1l0.399-0.15l0.45-0.1l0.9-0.2l0.8-0.3l0.399-0.15l0.45-0.1
	l0.7-0.4l0.75-0.399l0.3-0.25l0.351-0.2l0.699-0.45l0.25-0.3L124,137l0.6-0.55l0.5-0.65l0.55-0.6l0.9-1.601l0.7-1.6l0.399-1.7
	l0.101-0.85l0.1-0.8v-0.2v-0.101l0.05-0.699l1.15-0.2l0.5-0.101l0.1-0.05h0.15h0.3l0.9-0.2l0.75-0.199l0.55-0.301l0.2-0.149
	l0.199-0.101l0.25-0.3v-0.1v-0.05H133l0.05-0.101l-0.05-0.25v-0.1l-0.101-0.101l-1.149,0.051l-1.301,0.1l-1.5,0.1l-1.6,0.101h-0.95
	l-0.899,0.05l-1.801,0.1L121.8,125.9l-1.851,0.1h-2h-1h-0.5h-0.25L116,126.05h-2.051h-1.05l-1,0.05l-0.3-0.1l-0.3-0.15l-0.351-0.199
	l-0.25-0.051H109.8h-0.05h-2.25l-2,0.051l-1.9,0.05l-1.6,0.149l-1.551,0.101l-1.3,0.149L98,126.3l-0.9,0.25l-0.25-0.1l-0.2-0.351
	l-0.2-0.149l-0.199-0.05L96.15,126l-0.25,0.05l-0.2,0.05l-0.199-0.05l-0.2-0.1l-0.2-0.25l-0.2-0.25l-0.2-0.351l-0.1-0.449l0.1,1.6
	l-0.949-0.1l-1-0.051l-1.2-0.05H90.3L88.85,126H87.4h-1.65h-1.7H83.95L83.95,126z M82.25,129h0.2l-0.1,0.55v0.7v0.1L82.25,129
	L82.25,129z"/>
<polygon fill-rule="evenodd" fill="#FFCD05" points="82.45,129 82.25,129 82.35,130.35 82.35,130.25 82.35,129.55 82.45,129 "/>
<polygon fill-rule="evenodd" fill="#F8981D" points="137.3,140.7 137.45,139.9 136.9,141.75 137.3,140.7 "/>
<polygon fill-rule="evenodd" fill="#F8981D" points="135.05,140.55 137.45,139.75 137.45,139.7 136.35,140.05 135.05,140.55 "/>
<polygon fill-rule="evenodd" fill="#F8981D" points="101.6,146.75 101.9,146.55 102.2,146.4 102.7,146.1 103,145.7 103.1,145.3 
	103,145 102.8,144.75 102.2,144.45 101.4,144.25 100.3,144.1 99.65,144.05 98.95,144.05 98.05,144 97.3,144.05 96.65,144.1 
	96.1,144.25 95.6,144.4 95.25,144.65 95,144.95 94.85,145.35 94.75,145.9 94.75,145.95 94.75,146.1 94.85,146.65 95.05,146.95 
	95.2,147.05 95.45,147.2 95.65,147.25 95.95,147.35 96.6,147.4 96.6,147.35 96.65,147.35 96.75,147.35 96.95,147.35 97.35,147.35 
	98.1,147.35 98.8,147.25 99.5,147.2 100.6,147 101.1,146.85 101.6,146.75 "/>
<polygon fill-rule="evenodd" fill="#FFCD05" points="28.25,102.75 28.4,99.7 27.8,102.1 27.55,103.3 27.4,104.55 27.1,106.95 
	27,109.45 27.05,111.15 27.3,112.9 27.3,113.95 27.3,115 27.45,116 27.45,117.55 27.6,119.25 27.75,121.05 28.1,123 28.45,125.05 
	28.95,127.2 29.5,129.5 30.2,131.95 29.75,128.15 29.8,127.55 29.5,124.75 29.1,121.05 28.85,117.6 28.6,114.25 28.5,111.1 
	28.25,103.75 28.25,102.75 "/>
<polygon fill-rule="evenodd" fill="#FFCD05" points="30.45,142.35 30.45,142.6 30.55,142.7 30.45,142.35 "/>
<path fill-rule="evenodd" fill="#CB6928" d="M59.65,2.65l0.7,1.199l0.8,1.351l0.8,1.35l0.9,1.55l0.9,1.551l1,1.649l1,1.7l1.1,1.85
	l-3.7-0.199l-3.6,0.1L56,15l-3.4,0.5l-3.45,0.7l-3.3,0.899L42.6,18.2l-3.15,1.3L36.3,21l-3.05,1.7l-3,1.899l-2.85,2.15l-2.9,2.3
	l-2.75,2.601l-2.7,2.699l-2.6,3L14.5,39.7l-1.85,2.5l-1.7,2.55L9.4,47.5l-1.45,2.75L6.6,53.2l-1.2,3.05L4.35,59.4l-0.5,1.449
	l-0.45,1.4l-0.45,1.3l-0.35,1.3L2.2,66l-0.35,1.1l-0.3,1.051l-0.25,1L1,70l-0.25,0.8l-0.2,0.75l-0.15,0.7l-0.25,1.1l-0.1,0.45
	L0,74.2L0.55,73.6L1.3,72.95l0.75-0.7L3,71.55l1.1-1l1.05-0.95l1-0.899l0.95-0.8L7.95,67.1L8.8,66.4l0.75-0.7L10.3,65.1l1.2-1.149
	l0.55-0.5l0.5-0.4l0.4-0.399l0.35-0.301l0.3-0.3l0.3-0.2l-0.85,0.95l-0.75,1.05l-1.45,2.301L9.9,67.7l-0.85,1.75L8.2,71.2
	l-0.75,1.95L6.7,75.1L6.05,77.15L5.45,79.3l-0.5,2.3L4.2,84.7L3.6,87.85L3.05,90.9L2.7,94l-0.35,3l-0.25,3.05L1.95,103v3L2,108.9
	l0.2,3l0.3,3.05l0.5,3.1l0.55,3.101l0.75,3.199l0.85,3.25L6.2,130.9l1.3,3.8l1.55,3.8l0.8,1.85l0.9,1.9l1.95,3.8l1.75,3.25
	l0.05-0.899l0.1-0.75l0.2-1.4l0.1-1.15l0.05-0.5l0.1-0.399l0.3-1.851l0.45-1.55l0.15,0.351l0.25,0.5l0.25,0.5l0.35,0.649l0.75,1.351
	L18,144.9l0.55,0.899l0.5,0.851l0.6,1L21,149.8l1.45,2.351l0.8,1.25l0.9,1.399l0.2,0.3l0.1,0.15l0.15,0.2l0.5,0.7l0.2,0.3l0.1,0.149
	l0.15,0.2l0.5,0.7l0.9,1.25l0.9,1.3l0.8,1.15l0.85,1.2l0.75,1.1l0.75,1.1l0.3,0.45l0.35,0.5l0.65,1l0.6,0.9l0.6,0.899l0.5,0.801
	l0.55,0.8l0.45,0.7l0.2,0.35l0.25,0.4l-0.3-2.4l-0.25-2.1l-0.2-2l-0.2-1.75l-0.2-1.601l-0.15-1.399l-0.1-1.25l-0.1-1l-0.3-2.051
	l-0.15-1.1l-0.1-1.05l-0.3-2.351L33,150.7l-0.05-0.601l-0.1-1.199l-0.1-0.95l-0.1-0.851L32.4,145.2l-0.25-1.2l-0.1-1L32,142.8
	l-0.1-0.8l-0.05-0.1v-0.051v-0.1v-0.2v-0.45l-0.15-1.25L31.6,139l-0.05-0.55v-0.15L31.4,136.9l-0.3-1.75l-0.25-1.801l-0.4-3.8
	L30.1,126.4l-0.25-3l-0.25-2.851l-0.15-2.7l-0.2-2.649l-0.1-2.5l-0.1-2.351v-2.25L29,105.95l0.05-2.05l0.05-1.9l0.1-1.75l0.1-1.7
	L29.5,97l0.2-1.45L30,94.3l0.2,0.65l0.1,0.25l0.15,0.3l0.3,0.85l0.35,0.9l0.7,1.8l0.6,1.75l0.65,1.8l0.6-1.149l0.6-1l0.55-1
	l0.5-0.851l0.4-0.85l0.4-0.7l0.35-0.649l0.3-0.5l0.4,0.649l0.4,0.601l0.05,0.1l0.1,0.15l0.2,0.3l0.4,0.55l0.3,0.45l0.3,0.399
	l0.1,0.15l0.15,0.2l0.3,0.3l0.75-1.25l0.75-1.05l0.65-1.05l0.7-0.851l0.55-0.85l0.6-0.7l0.5-0.65l0.55-0.5l0.3,1.101l0.3,1.1l0.25,1
	l0.2,1l1.8-2.149l1.85-2l1.85-1.9L53,89.25l0.15,0.45l0.3,0.55l0.3,0.65l0.45,0.8l0.25,0.5l0.3,0.5l0.2,0.45l0.25,0.5l0.4,0.75v0.05
	l0.05,0.1l0.1,0.2l0.2,0.35l0.2,0.5l0.05,0.2l0.1,0.2l0.1,0.25v0.1l0.05,0.101L56.4,96.4l0.1-0.101l0.1-0.2l0.25-0.25l0.2-0.35
	l0.35-0.45l0.35-0.55l0.45-0.55l0.45-0.75l0.55-0.75l0.55-0.851l0.7-0.949l0.7-1.051l0.8-1.1l0.8-1.2l0.95-1.25l0.2,2.101l0.2,2.25
	l0.1,2.35l0.1,2.5l9.4-9.05l2.7,8.35v-0.1l0.15-0.15l0.15-0.2L77,93.9l0.3-0.351l0.4-0.35l0.45-0.4L78.7,92.4l0.55-0.551l0.65-0.6
	l0.65-0.7l0.75-0.75l0.75-0.85l0.85-0.9l0.85-0.95l0.95-1.05l0.35,1.3l0.4,1.301l0.8,2.399l0.35,1.101L87,93.2l0.8,2l0.5-0.75
	l0.55-0.65l0.95-1.25l0.85-1.149l0.8-1l0.65-0.95L92.4,89l0.351-0.35l0.5-0.65l0.449-0.55l0.351,0.85l0.45,1l0.6,1.05l0.75,1.25
	l0.45,0.7l0.25,0.45l0.35,0.55l0.3,0.5l0.4,0.601l0.85,1.35l0.801-1l0.949-0.95l1-1l1.15-1l0.5-0.55l0.5-0.4l0.4-0.399l0.449-0.3
	l0.301-0.301l0.35-0.199l0.25-0.15l0.25-0.05l0.45,0.7l0.5,0.75l0.899,1.449L108,93.6l0.35,0.601l0.4,0.6l0.6,1l0.1,0.2l0.051,0.1
	l0.1,0.15l0.3,0.5l0.2,0.4l0.25,0.399l0.2,0.351l0.25,0.399l2.899-3.55L115.05,93l1.399-1.65l0.301,0.9l0.35,0.9l0.3,0.8l0.15,0.399
	l0.2,0.45l0.5,1.45l0.199,0.65l0.101,0.3v0.05l0.05,0.1l0.1,0.2l0.15-0.149l0.25-0.101l0.55-0.25l0.3-0.2l0.4-0.149l0.85-0.4
	l0.95-0.55l1.101-0.6l0.55-0.351l0.649-0.3l1.351-0.7l0.1,1.05l0.05,0.5l0.101,0.551l0.1,1l0.15,1l0.2,1.699l0.199,1.601l0.551-0.3
	l0.75-0.25l0.35-0.2l0.45-0.15l0.95-0.3l1-0.4l1.149-0.35l1.25-0.4l0.65-0.199l0.75-0.15l-0.101,0.35l-0.05,0.4l-0.1,0.75l-0.2,1.4
	l-0.3,1.25l-0.101,0.25l-0.05,0.3l-0.1,0.6l1.3-0.85l0.55-0.4l0.601-0.3l0.449-0.35l0.5-0.25l0.801-0.45l0.3-0.25l0.3-0.15
	l0.45-0.25l0.25-0.149l0.149-0.051v0.2l-0.1,0.5l-0.05,0.65l-0.15,0.75l-0.1,0.899l-0.05,0.95l0.05,0.9l1.399-0.4l1.7-0.399
	l0.9-0.25l1-0.2l2.2-0.4v0.25l0.1,0.351l0.1,0.449l0.101,0.551l0.05,0.649l0.1,0.75l0.101,0.851l0.1,0.949l0.101,1.851v0.85
	l0.05,0.9l-0.05,0.8v0.8H146.7v0.05v0.101v0.2v0.399v0.8l-0.149,0.75l-0.15,0.95l-0.2,1.05L146,119.1l-0.301,1.351l-0.3,1.55
	L145,123.7l-0.4,1.899l-0.4,1.45l-0.399,1.4l-0.4,1.3l-0.35,1.3l-0.4,1.2l-0.399,1.15l-0.801,2.1l4.25-2.3l-4.05,7.95l-1.55,3
	l0.15,0.05l-1.15,3.25l-1.05,3.25l-0.851,2.55l-0.75,2.5l-0.75,2.4l-0.6,2.399l-0.6,2.25L134,165l-0.5,2.15l-0.4,2.1l2.15-3.05
	l1.05-1.45l1.05-1.35l1.9-2.65l0.899-1.25l0.95-1.15l1.65-2.35l0.8-1.1l0.8-1l1.4-1.95l1.35-1.75l1.15-1.65l0.55-0.75l0.55-0.649
	l0.45-0.7l0.45-0.601l0.85-1.05l0.65-0.95l0.6-0.75l0.2-0.35l0.25-0.25l0.399-0.35l-0.699,3L152.2,146.6l-0.25,1.4l-0.55,2.6
	l-0.45,2.4l-0.449,2.1l-0.301,2l-0.3,1.7l-0.2,1.601l1.851-2.5l1.85-2.4l1.65-2.4l1.649-2.399l1.45-2.4l1.45-2.399l1.35-2.4
	l1.25-2.35l1.101-2.4l1.05-2.35l0.95-2.4l0.85-2.3l0.75-2.351l0.65-2.3l0.55-2.3l0.5-2.3l0.1-0.45v-0.15l0.051-0.1l0.1-0.2l0.1-0.5
	l0.15-0.5l0.2-1.149l0.1-0.65l0.15-0.6v-0.4v-0.2v-0.1l0.05-0.05l0.1-0.7v-0.4v-0.2V116l0.051-0.05l0.1-0.75l0.1-1.7l0.051-0.9
	l0.1-0.899v-1.95l-0.05-1.9l-0.15-1.899l-0.149-1.851l-0.301-1.899l-0.35-1.851l-0.45-1.85l-0.45-1.8l2.351,0.8l2.3,0.8l2.1,0.7
	l2,0.7v-2.3L176.9,95.1l-0.1-1.199l-0.05-0.601v-0.55l-0.2-2.3l-0.3-2.4L175.9,85.65l-0.1-0.351l-0.05-0.3l-0.101-0.6l-0.2-1.2
	L175,80.8l-0.601-2.55l-0.649-2.5l-0.4-1.3l-0.2-0.65L173,73.2l-0.801-2.55L171.3,68l-0.5-1.35l-0.45-1.301l-1.05-2.699L168.2,60
	l-1.25-2.75l-1.3-2.55l-1.35-2.55l-1.45-2.351l-1.55-2.35l-1.601-2.2l-1.649-2.15l-1.75-1.949l-1.9-1.95l-1.95-1.851l-2.05-1.75
	l-2.05-1.6l-2.2-1.6l-2.25-1.45l-2.35-1.351l-2.351-1.25l21.75,5.301L159.75,31.6l-1.301-1.85l-1.5-1.85l-1.649-1.7l-1.851-1.7
	l-2-1.55l-2.199-1.55L146.9,20.05l-2.85-1.55l-2.9-1.4l-2.95-1.25l-3-1.1l-3.1-1L129,12.9l-3.15-0.75l-3.2-0.551l-1.7-0.3
	l-1.649-0.2l-3.351-0.35l-3.399-0.25l-3.45-0.05l-3.55,0.05l-1.8,0.05L102,10.7l-1.851,0.1l-1.8,0.2l-3.65,0.45L94.15,11l-0.45-0.4
	l-0.75-0.8L92.3,8.95L92.05,8.5L91.9,8.1L91.55,7.15l-0.101-0.9L91.5,5.3l0.25-0.95l0.199-1L92.2,2.5l0.15-0.75l0.2-0.55l0.1-0.5
	L92.75,0.35L92.8,0.1L92.9,0l-2.05,0.45l-1.95,0.7L87.05,2.05L85.4,3.15l-1.65,1.3L82.3,6l-0.75,0.8L80.9,7.75l-1.25,2H79.6h-0.05
	l-0.1-0.05H79.4h-0.15L78.95,9.6l-0.3-0.1l-0.4-0.15L78,9.25L77.8,9.2l-0.3-0.15l-0.25-0.1l-0.6-0.25l-0.7-0.3l-0.7-0.25l-0.45-0.2
	L74.4,7.8l-0.45-0.2l-0.4-0.149l-0.95-0.4l-0.5-0.2l-0.25-0.1l-0.2-0.05L69.6,5.85L67.75,5.1L66,4.45L64.45,3.9L63,3.4L61.75,3.05
	L60.6,2.8L59.65,2.65L59.65,2.65z M52.9,17.75l0.1-0.1h0.4L54,17.55h0.85l1-0.1l1.3-0.101l1.5-0.1l1.75-0.1L62.1,17l1.65-0.1
	l1.5-0.051h1.45h1.25l1.2,0.101l1.05,0.1l1,0.15l-0.85-1.75L69.6,13.9l-0.7-1.4l-0.6-1.2l-0.6-1.1L67.25,9.35L66.8,8.65l-0.3-0.5
	L68.6,8.3l2.1,0.45l2.1,0.65l2.1,0.949l1.35,0.601l1.45,0.7l1.55,0.6l1.65,0.7l0.7-1.45l0.8-1.35l0.7-1.25l0.8-1.051l0.7-1L85.4,6
	l0.75-0.75l0.8-0.6l0.4-0.4l0.4-0.3l0.35-0.3l0.35-0.2l0.25-0.25l0.25-0.15L89.15,2.9L89.4,2.85l0.101-0.1h0.149L89.8,2.8
	l-0.05,0.05V3L89.65,3.35l-0.449,0.9l-0.25,1.1L88.8,6.65L88.75,8.2V9l0.201,0.85l0.35,0.9l0.5,1l0.6,1l0.8,1.1l0.95,1.101
	l1.101,1.2l0.899-0.65l1.25-0.55l1.5-0.5l1.8-0.351l2-0.35l2.351-0.25l2.6-0.2l2.95-0.05l2.95-0.05l3,0.1l1.45,0.05l1.5,0.15l3,0.4
	l2.899,0.449l1.45,0.25l1.5,0.351l2.9,0.75l3,0.899l2.899,1l2.95,1.2l2.95,1.4l3,1.649l3,1.75l3,2l3.05,2.2l3.1,2.4l-1.949-0.45
	l-1.801-0.35l-1.75-0.351l-1.649-0.3l-1.65-0.3l-1.45-0.25l-1.449-0.25L143.2,27.8l-1.35-0.2l-1.15-0.1l-2.149-0.15l-1-0.05
	l-0.851,0.05l-0.85,0.051l-0.65,0.1l0.75,0.45l1.75,1l1.65,1l1.5,0.899l1.45,0.9l1.25,0.8l1.25,0.8l1.05,0.7l1,0.7l1.5,1.1
	l1.55,1.25l1.45,1.301l1.45,1.399l1.35,1.4l1.4,1.55l1.3,1.6l1.3,1.75l1.15,1.7l1.2,1.851l1.1,1.85l1.15,2l1,2l1.05,2.15l0.95,2.199
	l0.949,2.301l0.65,1.85l0.7,1.95l0.6,2.05l0.65,2.2l0.55,2.2l0.6,2.35L171,77.2l0.55,2.55l0.25,1.5l0.3,1.7l0.3,1.8l0.4,2.05
	l0.35,2.101l0.4,2.35l0.399,2.45l0.5,2.7l-0.35-0.2l-0.4-0.2l-0.449-0.2l-0.5-0.1l-1.2-0.4l-0.65-0.2l-0.7-0.149L170,94.85
	l-0.15-0.1l-0.1-0.05H169.7l-0.25-0.101l-0.3-0.1l-0.2-0.1l-0.1-0.051h-0.05l-0.351-0.1l-1-0.4l-0.3-0.149L166.9,93.6l-0.55-0.199
	L165.7,93.1L165,92.85l-0.75-0.3l-0.4-0.149L163.5,92.3l0.75,2.7l0.3,1.3l0.05,0.3l0.1,0.351l0.2,0.7l0.55,2.6l0.551,2.6l0.149,1.2
	l0.2,1.25l0.15,1.2l0.199,1.25l0.25,2.4l0.15,2.399L167,114.9l-0.101,1.25l-0.1,1.35l-0.2,1.3l-0.25,1.4l-0.3,1.45l-0.3,1.55
	l-0.45,1.5l-0.45,1.6l-0.5,1.601l-0.5,1.699l-1.3,3.45l-0.7,1.8l-0.7,1.9l-0.8,1.75l-0.75,1.75l-0.7,1.55l-0.649,1.55l-0.65,1.351
	l-0.6,1.25l-0.551,1.149l-0.5,1.101l-0.5,0.85L155,149.9l-0.4,0.699l-0.35,0.65l-0.351,0.45l-0.3,0.399l-0.25,0.25l-0.2,0.2l1.05-13
	l-0.25-0.25l-0.399,0.351l-0.45,0.55l-0.55,0.649l-0.601,0.75l-0.75,0.851l-0.8,1l-0.899,1.05l-0.95,1.25L147.45,147l-1.149,1.45
	l-1.25,1.55l-1.3,1.65l-1.45,1.75l-1.5,1.899l-1.601,1.95l-1.649,2.15l0.05-0.351l0.15-0.399l0.149-0.5l0.2-0.551l-0.25,0.9l1.2-2.9
	l1.149-2.75l1.101-2.649l1.1-2.5l0.95-2.45l0.45-1.2l0.5-1.1l0.899-2.15l0.9-2.05l0.75-1.95l0.75-1.85l0.7-1.75l0.649-1.55
	l0.551-1.551l0.5-1.35l0.449-1.25l0.2-0.6l0.25-0.5l-1.649,1.25l-1.65,1.449l-1.7,1.551l-1.75,1.649l0.7-1.7l0.7-1.699l0.6-1.75
	l0.601-1.7l0.5-1.8l0.449-1.801l0.051-0.5l0.1-0.449l0.2-0.9l0.35-1.8l0.2-1.851l0.2-1.699l0.05-0.851l0.1-0.75l0.15-1.45l0.05-1.35
	v-0.65l0.05-0.55l-0.05-0.6v-0.5L149.1,107l-0.3-1.8l-0.2-1.601l-0.3-1.5l-0.2-1.3l-1.45,0.25l-1.6,0.3l-1.8,0.301l-2,0.399
	l0.449-1.649l0.2-0.75l0.25-0.65l0.101-0.65l0.149-0.55l0.101-0.55l0.149-0.45v-0.45L142.7,96l-0.05-0.35V95.4l-0.1-0.25L142.45,95
	l-0.149-0.15L142.2,94.8l-0.25-0.1h-0.199l-0.25,0.05l-0.25,0.15L140.9,95.05l-0.3,0.25l-0.4,0.25l-0.35,0.351l-0.45,0.35
	l-0.45,0.45l-0.5,0.45L138,97.7l-0.601,0.55l-0.55,0.65l-0.6,0.649l-0.551,0.75l1.75-5.399L136.5,95.35l-0.95,0.5l-1.05,0.5
	l-1.15,0.551l-1.3,0.5L130.7,98l-1.449,0.6L127.7,99.2v-0.45l0.051-0.4l0.1-0.8V96.65V95.8l-0.1-0.95L127.7,93.95l-0.3-1.9l-0.2-0.8
	L127,90.65l-1.4,0.649L124,92.15l-0.9,0.399l-0.9,0.5l-2,1.05l-0.8-1.75l-0.7-1.649l-0.649-1.55L117.5,87.8l-1.15,1.101l-1.05,1.05
	l-1,0.95l-0.851,0.85l-0.85,0.7l-0.7,0.649l-0.649,0.551L110.7,94.1L108.25,88.7L108,88.2l-0.2-0.5l-0.4-1.101l-0.1-0.199
	l-0.05-0.101v-0.05l-0.101-0.3l-0.2-0.65l-0.399-1.45l-1.45,1.25l-1.35,1.2l-0.65,0.5l-0.55,0.55l-1.05,1l-0.95,0.801L99.7,89.85
	L99.3,90.1L99,90.4l-0.551,0.5l-1.1-1.45l-0.55-0.8l-0.5-0.75L95.7,87.05l-0.55-0.8l-1.1-1.75L93.7,83.85l-0.55,0.601l-0.55,0.7
	L91.4,86.6l-1.35,1.551l-0.7,0.8l-0.7,0.899l-3.8-8.3l-0.75,0.7L83.45,83l-1.25,1.4L81.05,85.6l-0.95,1.15l-0.5,0.45l-0.4,0.5
	l-0.75,0.85l-0.35,0.3L77.85,89.2l-0.45,0.6l-0.45-1.5l-0.35-1.35l-0.3-1.2l-0.2-1.05l-0.2-0.95L75.8,83l-0.1-0.6v-0.45L75.25,82.1
	l-0.5,0.301l-0.55,0.35l-0.6,0.5l-0.7,0.5l-0.75,0.65l-0.8,0.699L70.5,85.95L69.25,87.1L68.1,88.2l-1.05,1l-0.85,1l-0.1-1.55
	L66.05,87.3l-0.1-1.25V85l-0.1-0.95l-0.1-0.75l-0.1-0.649V82.2l-0.95,0.95l-1,1.05l-1.05,1.1l-1.05,1.2l-1.15,1.2l-1.2,1.3L58,90.35
	l-1.3,1.45l-0.6-1.25l-0.55-1.05l-0.95-1.85L54.15,86.8l-0.35-0.7l-0.35-0.649l-0.25-0.5l-0.3,0.2l-0.25,0.3l-0.6,0.649l-0.4,0.351
	L51.3,86.9l-0.75,0.949l-0.5,0.45l-0.45,0.55L48.65,90l-1.05,1.25l-1.15,1.45l-0.15-0.4L46.2,91.9L46,91l-0.3-1.05l-0.3-1.2l-1,1
	l-0.85,0.95l-0.85,0.85l-0.65,0.8l-0.55,0.5l-0.45,0.5l-0.4,0.45l-0.3,0.45L40,94.6l-0.2,0.351l-0.2,0.25l-0.1,0.3l-0.25-0.45
	l-0.2-0.35l-0.2-0.351l-0.15-0.3l-0.1-0.25l-0.15-0.3l-0.1-0.25l-0.2-0.4l-0.1-0.199L38,92.55V92.5l-0.2-0.45l-0.15-0.399l-0.4-0.95
	l-0.4-1.05L33.2,98.5l-0.5-1.45l-0.45-1.2l-0.4-1.1l-0.3-0.85l-0.1-0.2L31.4,93.6v-0.05l-0.2-0.35l-0.1-0.15l-0.05-0.1l-0.1-0.2
	l-0.15-0.3l-0.1-0.25l-0.4-0.65l-0.4-0.75l-0.1-0.149l-0.05-0.101l-0.1-0.2l-0.2-0.399l-0.5-0.851l-0.8,2L27.5,93.15l-0.55,2
	L26.5,97.2L26.15,99.1l-0.25,1.95l-0.15,1.9l-0.05,1.95l-0.05,3.6v3.4v3.25l0.1,3.1v0.8l0.05,1l0.1,1.15l0.2,1.399l0.15,1.5
	l0.25,1.801l0.25,1.899l0.35,2.15l0.3,2.25l0.4,2.5l0.4,2.6l0.5,2.851l0.45,3l0.55,3.199l0.6,3.351l0.65,3.6l0.2,1.05l0.2,1.301
	l0.1,0.6l0.05,0.3l0.1,0.351l0.2,1.149l0.2,1.05l0.1,0.95l0.05,0.4l0.1,0.45l0.1,0.75l0.1,0.75l-0.95-1.65l-0.85-1.45l-0.85-1.35
	l-0.7-1.25l-0.7-1.25l-0.6-1.05l-0.6-0.95l-0.45-0.851l-0.5-0.85l-0.35-0.65l-0.35-0.55l-0.25-0.45l-0.25-0.449l-0.15-0.25
	l-0.1-0.15v-0.05l-2.35-3.851l-1.15-1.8l-1.05-1.649l-1.1-1.65l-1-1.5l-1-1.45l-0.95-1.35l-0.55,1.25l-0.4,1.25l-0.4,1.05l-0.3,1.05
	l-0.3,0.851l-0.2,0.85l-0.2,0.75l-0.1,0.65l-1.55-3.301l-1.35-3.5l-0.7-1.85l-0.6-1.9L8.4,129.2L7.55,126l-0.4-1.65l-0.3-1.6
	L6.3,119.3l-0.45-3.5l-0.35-3.7l-0.25-3.75l-0.1-1.949v-1.95l0.05-3.95l0.15-4.1l0.5-4l0.7-3.95L7.6,84.6L8.85,80.7l1.6-3.8
	l1.8-3.75l2.15-3.65l1.05-1.85l1.05-1.7l1-1.7l1-1.55l0.9-1.55l0.9-1.4l0.8-1.35l0.85-1.2l0.7-1.25l0.75-1.05l0.65-1.051l0.7-0.899
	l0.55-0.9l0.6-0.75l0.5-0.75L26.9,50l1.75-2.35l1.85-2.2l1.85-2.05l1.95-1.9l2.3-2.05V39.3l-0.05-0.05L36.4,39.2l-0.15,0.05
	l-0.3,0.05l-0.3,0.2l-0.4,0.2l-0.4,0.3l-0.55,0.3l-0.6,0.4L33.05,41.1l-0.7,0.5l-0.8,0.5L30.7,42.7l-0.95,0.649L28.8,44.1
	l-4.05,2.95L22.8,48.6l-1.85,1.65l-1.9,1.6l-1.8,1.7L13.8,57.15l-1.75,1.75l-1.6,1.649L8.9,62.1L7.5,63.65L6.1,65.05L4.8,66.4
	l-1.25,1.25l-1.1,1.199l0.2-0.55l0.3-0.649l0.35-0.7l0.45-0.75l0.45-0.9l0.5-0.95l0.55-1.05l0.65-1.1l0.6-1.25l0.7-1.3l0.75-1.4
	l0.8-1.45l0.8-1.6l0.9-1.65l0.95-1.75l1.05-1.75l2.05-3.7l2.2-3.449l1.1-1.7L19,39.6l1.2-1.55l1.3-1.45l1.25-1.5L24.1,33.7
	l2.75-2.65l2.85-2.5l3.05-2.2L34.7,25l2.1-1.25l2.25-1.2l2.4-1.05l2.5-1.05l2.65-0.9l2.75-0.899l2.95-0.75L52.9,17.75L52.9,17.75z"
	/>
<polygon fill-rule="evenodd" fill="#CB6928" points="73.85,17.45 73.6,17.8 72.6,18.05 72.25,18.5 71.95,19.05 71.25,20.4 
	70.45,21.95 69.65,23.85 69.1,24.9 68.7,25.95 68.35,26.85 68.1,27.7 67.85,28.4 67.7,29.05 67.6,29.6 67.6,30.05 67.6,30.75 
	67.6,31.3 67.6,31.7 67.65,31.9 67.85,32.5 67.9,32.35 68.1,32.2 68.3,31.95 68.65,31.6 69,31.15 69.45,30.65 69.95,30.1 
	70.55,29.45 71.05,29.1 71.7,28.7 72.4,28.25 73.25,27.75 74.1,27.1 75.1,26.4 76.15,25.65 77.35,24.85 78.4,24 79.4,23.25 
	80.25,22.55 81.1,21.95 81.35,21.95 81.85,22 82.35,22.15 82.85,22.4 83.45,22.8 83.95,23.25 84.5,23.85 85,24.55 85.6,25.4 
	86.15,26.3 86.85,27.35 87.55,28.5 88.35,29.75 89.55,27.55 90.75,25.5 90.85,25.1 91,24.7 91.2,23.75 91.3,22.65 91.3,22 
	91.3,21.65 91.35,21.35 91.3,20.65 91.2,20.1 91,19.55 90.8,19.15 90.35,18.5 90.1,18.05 89.9,17.7 89.85,17.55 88.35,17.55 
	88.35,17.7 88.35,18.05 88.45,19 88.5,19.55 88.6,20.3 88.701,21.15 88.85,22.1 88.85,22.7 88.9,23.3 88.9,23.85 88.951,24.45 
	88.85,24.9 88.8,25.4 88.701,25.85 88.6,26.3 88.1,26.3 86.55,24.15 85.85,23.2 85.2,22.45 84.55,21.7 84,21.1 83.05,20.15 
	83.25,19.75 83.35,19.5 83.3,19.1 83.3,18.8 83.25,18.55 83.25,18.4 83.15,18.1 83.1,18.05 83.1,18.1 82.85,18.5 79,20.25 
	75.25,22.3 73.6,23.3 72.25,24.3 71.15,25.2 70.7,25.65 70.35,26.15 70.45,25.8 70.65,25.45 71.1,24.65 71.65,23.7 72.4,22.65 
	72.75,21.95 73.1,21.35 73.4,20.8 73.65,20.35 73.8,19.85 73.95,19.45 74.05,19.1 74.1,18.8 74.05,18.15 74,17.9 74,17.75 
	73.9,17.45 73.85,17.4 73.85,17.45 "/>
<polygon fill-rule="evenodd" fill="#010101" points="145.45,52.1 145.6,52 145.1,51.55 144.65,51.15 143.7,50.35 143.1,49.95 
	144.25,50.9 145.45,52.1 "/>
<polygon fill-rule="evenodd" fill="#F26822" points="145.6,52 145.45,52.1 146.25,53.05 147.1,54.1 147.9,55.25 148.8,56.5 
	149.6,57.75 150.4,59.2 151.2,60.7 152.05,62.35 152.5,63.35 152.7,63.85 152.8,64.1 152.95,64.4 153.35,65.35 153.8,66.35 
	154.15,67.25 154.5,68.15 154.8,69 154.95,69.4 155.15,69.85 155.35,70.6 155.55,71.35 155.7,72.05 155.9,72.75 156,73.35 
	156.1,73.95 156.1,74.2 156.15,74.5 156.15,74.75 156.2,75.05 156.2,75.95 156.2,76.8 156.2,77.55 156.25,78.2 156.25,78.75 
	156.3,79.2 156.35,79.55 156.45,79.85 155.6,77.9 154.85,76.3 154.1,74.9 153.45,73.8 152.85,72.9 152.25,72.15 151.6,71.4 
	151,70.75 150.25,70.1 149.55,69.55 148.8,69 148.05,68.6 148.15,69.15 148.3,69.8 148.3,70.05 148.35,70.35 148.45,70.95 
	148.65,72.1 148.7,72.6 148.8,73.15 148.95,74.25 149,75.25 149.05,76.25 149.05,77.15 149.1,78.05 149,79.7 148.9,80.45 
	148.85,81.25 148.65,82.7 148.45,84.1 148.6,83.6 148.7,83.3 148.9,82.95 149.2,82.05 149.4,81.55 149.65,81 150,79.85 150.1,79.3 
	150.25,78.85 150.4,77.9 150.45,77.15 150.4,77.05 150.4,77 150.4,76.9 150.4,76.7 150.4,76.25 150.35,75.75 150.35,75.2 
	150.25,73.9 150.2,73.2 150.2,72.5 150.75,72.95 151.35,73.6 152.2,74.65 152.6,75.25 153.05,75.95 153.8,77.4 154.55,79.05 
	154.55,79.15 154.65,79.45 154.8,79.95 155.1,80.75 155.35,81.65 155.75,82.75 156.15,84.05 156.7,85.6 157.05,82.95 157.15,81.65 
	157.3,80.45 157.35,79.2 157.4,78.05 157.45,75.8 157.3,73.65 157.1,71.6 156.9,70.6 156.75,69.7 156.3,67.95 155.5,65.75 
	154.55,63.65 153.45,61.55 152.2,59.55 150.75,57.55 149.2,55.65 147.45,53.8 145.6,52 "/>
<polygon fill-rule="evenodd" fill="#F26822" points="50.25,41.15 50.3,40.7 50.4,40.35 50.45,40.05 50.5,39.9 50.45,39.75 
	50.45,39.7 50.4,39.7 50.35,39.85 50.4,39.75 49.55,40.75 48.75,42 47.95,43.5 47.15,45.2 46.35,47.1 45.6,49.2 44.85,51.5 
	44.15,54.1 43.5,56.4 42.95,58.5 42.45,60.4 42.25,61.3 42.1,62.15 41.75,63.65 41.6,64.95 41.45,66.05 41.45,66.55 41.45,67 
	41.35,68.1 41.2,69.2 41.55,68.6 41.6,68.6 41.6,68.5 41.7,68.35 42.05,67.7 42.5,67.05 43,66.35 43.6,65.6 45.2,63.25 46.8,61.05 
	48.3,59 49.8,57.1 51.2,55.3 52.6,53.7 53.9,52.2 55.2,50.9 55.2,52.55 55.2,54.1 55.2,55.55 55.2,56.9 55.2,58.1 55.25,59.25 
	55.25,60.3 55.35,61.25 55.45,64 55.7,66.7 56,69.2 56.45,71.6 65.45,55.75 64.65,56.1 63.9,56.65 63.1,57.25 62.4,58 61.6,58.85 
	60.9,59.8 60.1,60.85 59.4,62 58.85,62.75 58.45,63.5 58.1,64.1 57.85,64.65 57.65,62.7 57.5,60.75 57.4,58.7 57.35,56.55 
	57.3,54.3 57.3,52 57.35,49.65 57.45,47.2 57,47.35 56.6,47.6 56.1,47.85 55.65,48.2 55.1,48.55 54.6,49 54.05,49.45 53.55,50.05 
	52.9,50.6 52.3,51.25 51.65,51.9 51.05,52.7 49.65,54.3 48.9,55.2 48.2,56.2 46.95,57.7 46.4,58.35 45.95,59 45.45,59.55 
	45.05,60.1 44.7,60.6 44.45,61.1 45.95,55.5 46.3,53.55 46.8,51.55 47.4,49.45 48.15,47.3 48.45,46.2 48.8,45.25 49.1,44.3 
	49.4,43.55 49.6,42.8 49.85,42.15 50.05,41.6 50.25,41.15 "/>
<polygon fill-rule="evenodd" fill="#010101" points="153.95,139.3 154.2,139.55 154,139.25 153.95,139.3 "/>
<polygon fill-rule="evenodd" fill="#F8981D" points="32,142.8 32.05,143 32.15,144 32.4,145.2 32.65,147.1 35.5,149.7 38.45,152.15 
	41.45,154.45 44.6,156.6 47.7,158.55 50.95,160.35 54.25,161.95 57.7,163.45 61.1,164.7 64.65,165.8 68.25,166.75 71.95,167.55 
	75.65,168.15 79.5,168.6 83.35,168.85 87.35,168.95 87.75,168.9 88.2,168.9 89.1,168.9 90.9,168.85 92.65,168.75 94.45,168.65 
	97.95,168.25 99.65,168 101.4,167.8 102.2,167.6 102.6,167.5 103.05,167.45 104.75,167.1 108.05,166.35 109.65,165.85 110.45,165.6 
	111.3,165.4 112.9,164.85 114.55,164.35 117.65,163.1 120.75,161.75 123.75,160.25 126.75,158.65 129.65,156.85 131.05,155.9 
	131.75,155.4 132.1,155.15 132.5,154.95 135.3,152.85 136.65,151.75 138.05,150.7 139.1,147.45 140.25,144.2 140.1,144.15 
	141.65,141.15 141.15,141.55 140.75,142 140.35,142.35 140.05,142.75 137.25,145.35 136.5,145.95 135.8,146.6 134.4,147.85 
	132.9,149 132.5,149.25 132.15,149.55 131.45,150.15 129.95,151.2 128.5,152.3 125.4,154.25 122.3,156.05 119.1,157.65 
	118.65,157.8 118.25,158 117.45,158.4 115.85,159.15 114.15,159.75 113.3,160.05 112.5,160.4 109.1,161.5 105.6,162.45 
	103.8,162.85 102.05,163.25 100.2,163.55 98.4,163.85 96.55,164.05 94.75,164.3 92.85,164.4 92.35,164.4 91.9,164.45 91,164.55 
	87.2,164.65 83.4,164.55 79.7,164.3 76.05,163.85 72.45,163.25 68.85,162.45 65.3,161.5 61.8,160.4 58.35,159.15 54.9,157.65 
	51.5,156.05 48.15,154.25 44.85,152.3 41.55,150.15 38.3,147.85 35.1,145.4 32,142.8 "/>
<polygon fill-rule="evenodd" fill="#CB6928" points="80.7,125.2 80.65,125.2 79.6,125.2 78.5,125.25 77.35,125.25 76.1,125.35 
	74.75,125.35 73.35,125.45 71.85,125.45 70.3,125.55 63.95,125.75 60.9,125.9 58.05,126.1 55.3,126.25 52.95,126.55 50.9,126.85 
	49.25,127.3 46.25,128.15 43.4,129.2 44.15,129.05 44.75,129 45.15,128.95 45.45,128.95 45.6,128.9 45.95,128.9 46.4,128.85 
	46.95,128.85 47.6,128.75 48.35,128.7 49.2,128.6 50.15,128.55 51.3,128.4 53.1,128.2 55.1,128 57.05,127.9 58.95,127.75 
	60.8,127.65 62.55,127.55 64.25,127.45 65.9,127.35 67.5,127.3 68.4,127.2 69.5,127.2 70.75,127.1 72.15,127.1 72.55,127 73.2,127 
	74,126.9 75.05,126.9 76.15,126.8 76.8,126.75 77.55,126.75 79.05,126.65 80.8,126.65 80.8,126.85 82.7,126.85 85.05,126.75 
	87.6,126.75 90.25,126.7 93.1,126.7 94.4,126.65 94.55,128 94.65,129.1 94.8,130.35 95,131.7 95.2,133.15 95.4,134.7 95.65,136.35 
	95.9,138.1 96.2,140.05 97.05,140 98.15,139.85 99.05,139.8 99.65,139.75 99.9,139.75 100.1,139.75 100.6,139.8 101.1,140 
	101.6,140.3 102.1,140.75 102.5,141.25 102.85,141.8 103,142.3 103.1,142.9 103,143.5 102.9,143.75 102.85,144.05 102.65,144.25 
	102.55,144.35 102.5,144.35 102.5,144.4 102.5,144.5 102.3,144.7 102.2,144.8 102.15,144.8 102.15,144.85 102.15,144.95 
	101.85,145.05 101.75,145.05 101.7,145.05 101.7,145.1 101.6,145.2 101.3,145.3 101,145.45 100.6,145.5 100.25,145.6 99.85,145.6 
	99.45,145.65 98.7,145.6 98.05,145.6 97.5,145.6 97.05,145.6 97,145.65 97,145.95 97,146.2 97,146.4 97.1,146.55 97.2,146.65 
	97.4,146.8 97.95,147.05 98.25,147.1 98.65,147.2 99.6,147.25 100.2,147.2 100.8,147.15 101.3,147 101.85,146.9 102.05,146.75 
	102.3,146.65 102.75,146.45 103.1,146.15 103.5,145.85 103.9,145.25 103.95,145.05 104.05,144.9 104.25,144.6 104.3,144.2 
	104.4,143.85 104.45,143.45 104.45,143.25 104.45,143.15 104.45,143.1 104.5,143.1 104.4,142.25 104.25,141.5 103.9,140.8 
	103.5,140.25 102.9,139.7 102.25,139.3 101.4,138.95 100.5,138.75 99.8,138.6 99.15,138.55 98.55,138.6 98,138.75 97.9,138.4 
	97.85,138 97.75,137.1 97.65,136.55 97.55,135.95 97.45,135.3 97.35,134.6 97.05,133 96.8,131.6 96.55,130.35 96.35,129.3 
	96.15,128.35 96,127.65 95.9,127.05 95.85,126.7 101.55,126.45 101.55,126.4 101.6,126.4 101.9,126.4 102.2,126.4 102.9,126.35 
	105.25,126.3 107.7,126.15 110.05,126.05 112.25,125.95 114.35,125.9 116.25,125.85 118.05,125.85 119.65,125.9 121.15,126 
	124.6,125.95 126.3,125.9 127.6,125.85 128.9,125.8 130.15,125.7 131.35,125.6 132.45,125.4 133.5,125.2 134.5,124.95 135.5,124.75 
	134.65,124.75 134.2,124.75 133.8,124.8 132.75,124.8 131.7,124.9 130.45,124.9 129.2,124.9 127.8,124.9 126.35,125 125.75,124.95 
	125.15,124.95 123.8,124.95 122.25,124.95 120.6,124.95 118.75,124.95 116.75,124.95 114.55,124.95 112.2,124.95 107.35,124.85 
	102.75,124.85 98.35,124.75 96.25,124.7 94.25,124.7 91.85,124.7 89.75,124.8 88.701,124.8 87.75,124.85 86,124.95 84.35,124.95 
	82.95,125.05 81.7,125.1 80.7,125.2 "/>
<polygon fill-rule="evenodd" fill="#FFFFFF" points="81,129.1 80.9,129 80.9,129.1 81,129.1 "/>
<polygon fill-rule="evenodd" fill="#010101" points="81,129.1 81,129.25 81,129.85 80.9,130.85 80.75,131.85 80.65,132.05 
	80.6,132.15 80.6,132.3 80.5,132.8 80.4,133 80.35,133.1 80.35,133.25 80.25,133.75 80.05,134.15 79.95,134.35 79.9,134.45 
	79.9,134.6 79.5,135.5 79,136.3 78.5,137.15 77.85,137.85 77.15,138.55 76.4,139.15 76,139.45 75.8,139.6 75.65,139.8 74.8,140.3 
	73.9,140.85 73.4,141.05 73.15,141.15 72.95,141.3 71.95,141.75 70.85,142.05 70.25,142.2 69.7,142.4 68.5,142.65 67.3,142.9 
	66,143.05 65.3,143.1 64.65,143.2 63.25,143.25 62.5,143.25 61.8,143.3 60.85,143.25 59.95,143.15 59.1,143 58.35,142.8 
	57.55,142.5 56.85,142.15 55.6,141.35 54.45,140.25 53.5,138.95 53.05,138.15 52.7,137.35 52.35,136.5 52.1,135.6 51.95,135 
	51.65,133.8 51.5,132.55 51.35,131.25 51.3,129.9 51.3,129.05 51.3,128.4 50.15,128.55 50.1,131.15 50.25,133.15 50.4,134.2 
	50.75,135.3 51.25,136.95 52.05,138.7 52.9,140.2 53.35,140.9 53.85,141.55 54.9,142.65 55.45,143.15 56.1,143.65 57.35,144.35 
	58,144.65 58.75,144.9 60.2,145.2 61,145.3 61.85,145.35 62,145.3 62.2,145.3 62.6,145.3 63.4,145.3 64.95,145.2 65.65,145.1 
	65.8,145.05 66,145.05 66.4,145.05 67.1,144.95 67.25,144.9 67.45,144.9 67.85,144.9 69.15,144.65 70.45,144.4 71.65,144.05 
	72.85,143.7 73.9,143.2 74.95,142.7 75.4,142.4 75.9,142.15 76.35,141.85 76.85,141.6 77.25,141.25 77.7,140.95 78.5,140.3 
	78.85,139.9 79.25,139.55 79.95,138.8 80.25,138.25 80.6,137.75 81.15,136.75 81.6,135.65 81.8,135.1 82.05,134.6 82.15,134 
	82.2,133.7 82.3,133.45 82.4,132.85 82.45,132.55 82.55,132.3 82.6,131.1 82.65,129.9 82.55,128.8 82.5,127.8 82.5,127.25 
	82.7,126.85 80.8,126.85 80.8,127.25 80.85,127.65 80.95,128.35 80.95,128.6 80.95,128.8 80.95,128.95 80.95,129 81,129.1 "/>
<path fill-rule="evenodd" fill="#CDCCCC" d="M81,129.1l-0.05-0.1v-0.05v-0.15v-0.2v-0.25l-0.1-0.699l-0.05-0.4v-0.4v-0.199h-1.75
	l-1.5,0.1H76.8l-0.65,0.05l-1.1,0.101H74l-0.8,0.1h-0.65l-0.4,0.1h-1.4L69.5,127.2h-1.1l-0.9,0.1l-1.6,0.05l-1.65,0.101l-1.7,0.1
	l-1.75,0.101l-1.85,0.1l-1.9,0.15L55.1,128l-2,0.2l-1.8,0.2v0.649v0.851l0.05,1.35l0.15,1.3l0.15,1.25l0.3,1.2l0.85-0.7l1.05-0.55
	L55,133.2l1.25-0.4l1.35-0.399l1.45-0.301l1.55-0.25l1.75-0.1l3.3-0.3l3.1-0.2l2.8-0.15l1.3-0.1h1.25l1.1-0.1h1.05l0.85-0.101h0.8
	l0.6-0.1h0.55l0.35-0.101h0.35l0.35-0.149l0.3-0.05l0.2-0.051h0.15v-0.05l0.1-0.25l0.15-0.2v-0.6V129.1h-0.1V129L81,129.1L81,129.1z
	 M54.15,129.15l0.05-0.5l0.15-0.301l0.25-0.199l0.15-0.051L55,128.15l0.35,0.05l0.15,0.05l0.15,0.15l0.15,0.35l0.05,0.2l0.1,0.3
	l0.35-0.45l0.1-0.149l0.15-0.051l0.2-0.199l0.35-0.051l0.5,0.101l0.1,0.35l-0.05,0.2l-0.1,0.3l-0.15,0.3l-0.2,0.351l-0.35,0.3
	l-0.3,0.25l-0.4,0.15h-0.2h-0.1H55.8v0.05l-0.5-0.101l-0.35-0.149l-0.35-0.25l-0.2-0.351l-0.15-0.35l-0.05-0.25l-0.05-0.15V129.15
	L54.15,129.15z"/>
<polygon fill-rule="evenodd" fill="#010101" points="55,128.15 54.75,128.1 54.6,128.15 54.35,128.35 54.2,128.65 54.15,129.15 
	54.15,129.1 54.2,129.25 54.25,129.5 54.4,129.85 54.6,130.2 54.95,130.45 55.3,130.6 55.8,130.7 55.8,130.65 55.85,130.65 
	55.95,130.65 56.15,130.65 56.55,130.5 56.85,130.25 57.2,129.95 57.4,129.6 57.55,129.3 57.65,129 57.7,128.8 57.6,128.45 
	57.1,128.35 56.75,128.4 56.55,128.6 56.4,128.65 56.3,128.8 55.95,129.25 55.85,128.95 55.8,128.75 55.65,128.4 55.5,128.25 
	55.35,128.2 55,128.15 "/>
<polygon fill-rule="evenodd" fill="#FFFFFF" points="81,129.85 80.85,130.05 80.75,130.3 80.75,130.35 80.6,130.35 80.4,130.4 
	80.1,130.45 79.75,130.6 79.4,130.6 79.05,130.7 78.5,130.7 77.9,130.8 77.1,130.8 76.25,130.9 75.2,130.9 74.1,131 72.85,131 
	71.55,131.1 68.75,131.25 65.65,131.45 62.35,131.75 60.6,131.85 59.05,132.1 57.6,132.4 56.25,132.8 55,133.2 53.85,133.75 
	52.8,134.3 51.95,135 52.1,135.6 52.35,136.5 52.7,137.35 53.05,138.15 53.5,138.95 54.45,140.25 55.6,141.35 56.85,142.15 
	57.55,142.5 58.35,142.8 59.1,143 59.95,143.15 60.85,143.25 61.8,143.3 62.5,143.25 63.25,143.25 64.65,143.2 65.3,143.1 
	66,143.05 67.3,142.9 68.5,142.65 69.7,142.4 70.25,142.2 70.85,142.05 71.95,141.75 72.95,141.3 73.15,141.15 73.4,141.05 
	73.9,140.85 74.8,140.3 75.65,139.8 75.8,139.6 76,139.45 76.4,139.15 77.15,138.55 77.85,137.85 78.5,137.15 79,136.3 79.5,135.5 
	79.9,134.6 79.9,134.45 79.95,134.35 80.05,134.15 80.25,133.75 80.35,133.25 80.35,133.1 80.4,133 80.5,132.8 80.6,132.3 
	80.6,132.15 80.65,132.05 80.75,131.85 80.9,130.85 81,129.85 "/>
<path fill-rule="evenodd" fill="#CDCCCC" d="M125,128.35l-0.051-0.199v-0.2l-0.05-0.101v-0.05v-0.1v-0.25l-0.1-0.351l-0.05-0.199
	v-0.15l-0.101-0.4l-0.05-0.399l-3.45,0.05l-1.5-0.1l-1.6-0.051h-1.8l-1.9,0.051l-2.1,0.05l-2.2,0.1l-2.351,0.101l-2.449,0.149
	l-2.351,0.05l-0.1,0.9l-0.05,0.3v0.101v0.149l-0.051,0.851l0.2,0.949l3.15-0.399l3.1-0.25l2.95-0.25l2.85-0.101l2.65-0.149h2.6h2.45
	L125,128.6V128.35L125,128.35z M104.2,128.05l-0.1-0.7l0.05-0.35l0.15-0.2l0.25-0.1l0.399,0.05l0.301,0.05l0.199,0.2l0.051,0.25
	l-0.101,0.35l0.2-0.149l0.2-0.101l0.05-0.1l0.1-0.05l0.2-0.101l0.2-0.25l0.25-0.05h0.15l0.399,0.15v0.149l0.05,0.351l-0.05,0.2
	l-0.1,0.199l-0.2,0.2l-0.25,0.25l-0.6,0.3L105.7,128.7l-0.199,0.05l-0.5-0.05l-0.351-0.15l-0.3-0.25L104.2,128.05L104.2,128.05z"/>
<polygon fill-rule="evenodd" fill="#010101" points="104.1,127.35 104.2,128.05 104.35,128.3 104.65,128.55 105,128.7 105.5,128.75 
	105.7,128.7 106,128.6 106.6,128.3 106.85,128.05 107.05,127.85 107.15,127.65 107.2,127.45 107.15,127.1 107.15,126.95 
	106.75,126.8 106.6,126.8 106.35,126.85 106.15,127.1 105.95,127.2 105.85,127.25 105.8,127.35 105.6,127.45 105.4,127.6 
	105.5,127.25 105.45,127 105.25,126.8 104.95,126.75 104.55,126.7 104.3,126.8 104.15,127 104.1,127.35 "/>
<polygon fill-rule="evenodd" fill="#010101" points="124.6,125.95 124.65,126.35 124.75,126.75 124.75,126.9 124.8,127.1 
	124.9,127.45 124.9,127.7 124.9,127.8 124.9,127.85 124.95,127.95 124.95,128.15 125,128.35 125,128.6 124.75,129.5 124.55,130.4 
	124.25,131.25 123.95,132.1 123.55,132.85 123.15,133.6 122.9,133.9 122.7,134.25 122.45,134.55 122.25,134.9 121.95,135.15 
	121.7,135.45 121.4,135.7 121.15,136 120.8,136.2 120.5,136.45 119.9,136.95 119.5,137.1 119.15,137.3 118.45,137.7 117.65,138 
	116.9,138.3 115.15,138.6 114.35,138.7 113.6,138.75 112.1,138.65 110.75,138.45 109.4,137.95 108.8,137.65 108.25,137.3 
	107.1,136.4 106.15,135.4 104.9,133.75 103.95,132.3 103.25,130.85 102.9,129.6 102.7,128.65 102.75,127.8 102.75,127.65 
	102.75,127.55 102.8,127.25 102.9,126.35 102.2,126.4 101.9,126.4 101.6,126.4 101.75,127.9 102,129.45 102.85,132.45 103.25,133.6 
	103.75,134.65 104.25,135.6 104.9,136.55 105.55,137.3 106.3,137.95 107.05,138.5 107.9,139.05 108.75,139.4 109.7,139.65 
	110.65,139.8 111.75,139.95 112.85,139.9 114.05,139.8 115.25,139.55 116.55,139.3 117.75,138.85 118.9,138.45 119.95,137.95 
	120.95,137.45 121.8,136.85 122.65,136.25 123.4,135.55 124.1,134.85 124.65,134.05 125.15,133.25 125.6,132.35 125.6,132.2 
	125.65,132.1 125.75,131.9 125.95,131.5 126.2,130.5 126.4,129.5 126.5,128.45 126.5,127.9 126.55,127.4 126.5,127.2 126.5,127.05 
	126.5,126.75 126.35,126.05 126.3,126.05 126.3,125.9 124.6,125.95 "/>
<polygon fill-rule="evenodd" fill="#CB6928" points="126.35,126.05 126.3,125.9 126.3,126.05 126.35,126.05 "/>
<polygon fill-rule="evenodd" fill="#FFFFFF" points="116.9,138.3 117.65,138 118.45,137.7 119.15,137.3 119.5,137.1 119.9,136.95 
	120.5,136.45 120.8,136.2 121.15,136 121.4,135.7 121.7,135.45 121.95,135.15 122.25,134.9 122.45,134.55 122.7,134.25 122.9,133.9 
	123.15,133.6 123.55,132.85 123.95,132.1 124.25,131.25 124.55,130.4 124.75,129.5 125,128.6 122.65,128.45 120.2,128.45 
	117.6,128.45 114.95,128.6 112.1,128.7 109.15,128.95 106.05,129.2 102.9,129.6 103.25,130.85 103.95,132.3 104.9,133.75 
	106.15,135.4 107.1,136.4 108.25,137.3 108.8,137.65 109.4,137.95 110.75,138.45 112.1,138.65 113.6,138.75 114.35,138.7 
	115.15,138.6 116.9,138.3 "/>
<polygon fill-rule="evenodd" fill="#010101" points="91.35,147.65 91.45,147.35 91.6,147.15 91.8,146.8 91.95,146.55 91.95,146.45 
	92,146.45 91.95,146.2 91.95,146.05 91.85,145.95 91.2,146.15 90.7,146.45 90.25,146.8 89.9,147.2 89.451,148.05 89.3,149.1 
	89.55,150.45 89.7,150.7 89.95,151 90.2,151.2 90.55,151.45 91.3,151.7 91.75,151.75 92.3,151.8 92.5,151.75 92.75,151.75 
	93.25,151.75 93.65,151.7 94.1,151.7 94.45,151.6 94.85,151.55 95.5,151.45 94.5,151.25 93.7,151.15 93,151 92.45,150.9 
	91.95,150.7 91.6,150.45 91.3,150.1 91.1,149.7 90.95,149.2 90.95,148.7 90.95,148.4 91.05,148.15 91.35,147.65 "/>
</svg>
