<?xml version="1.0" encoding="utf-8"?>
<!-- Generator: Adobe Illustrator 13.0.0, SVG Export Plug-In . SVG Version: 6.00 Build 14948)  -->
<svg version="1.2" baseProfile="tiny" id="Layer_1" xmlns="http://www.w3.org/2000/svg" xmlns:xlink="http://www.w3.org/1999/xlink"
	 x="0px" y="0px" width="176.95px" height="171.399px" viewBox="0 0 176.95 171.399" xml:space="preserve">
<path fill-rule="evenodd" fill="#F8981D" d="M60.4,17.149l-1.75,0.101l-1.5,0.1l-1.3,0.1l-1,0.101H54l-0.6,0.1H53l-0.1,0.101
	L52.3,17.899l-2.949,0.75l-2.75,0.9l-2.65,0.899l-2.5,1.051l-2.4,1.05l-2.25,1.2L34.7,25l-1.95,1.35l-1.55,1l-1.4,1.05l-1.399,1
	l-1.25,1l-1.25,0.9l-1.15,0.95l-1.1,0.899l-0.95,0.9l-1,0.8l-0.85,0.8l-0.801,0.75l-0.699,0.8l-0.7,0.65l-0.55,0.7l-0.5,0.649
	l-0.4,0.65l-1.35,1.9l-1.25,1.949L12.3,47.5l-2.199,3.699l-1.9,3.7l-0.95,1.75l-0.85,1.8l-0.8,1.75L4.9,62l-0.75,1.699l-0.601,1.75
	l-1.1,3.4l1.05-1.15l1.05-1L5.5,65.75l0.9-0.851l0.8-0.85l0.75-0.75l0.65-0.7l0.649-0.55L9.7,61.5l0.65-0.601l0.75-0.75l0.449-0.399
	l0.551-0.4l0.5-0.5l0.6-0.5l0.6-0.55l0.7-0.5l0.65-0.601l0.75-0.6l0.75-0.65l0.85-0.6l0.8-0.75l0.9-0.7l0.9-0.8l1-0.75L22.05,51
	l1.051-0.801l2.25-1.75L27.7,46.5l2.55-1.95l2.65-2.15l2.85-2.149l-1.399,1.199L31.9,43.75l-2.3,2.399l-2.15,2.4L25.5,51.1
	l-0.35,0.45L24.8,52.1l-0.449,0.65l-0.45,0.8l-0.55,0.8L22.75,55.3l-0.649,1l-0.65,1.149l-0.8,1.15l-0.8,1.3l-0.9,1.351l-0.9,1.5
	l-1,1.5L16,65.899l-1.1,1.7l-1.101,1.85l-2.25,3.7L10.5,75l-0.85,1.899L8,80.699l-1.25,3.9L5.7,88.5l-0.65,3.949l-0.25,2l-0.149,2
	l-0.05,4.101l0.05,3.95l0.25,3.8l0.25,3.649l0.45,3.551l0.449,3.35l0.551,3.2l0.649,3.05l0.8,2.95l0.7,2.7l0.351,1.3l0.399,1.3
	l0.7,2.4l0.7,2.3l0.6,2.1l0.601,2l0.25,0.9l0.3,0.899l0.6,1.75l0.05-0.5l0.2-0.699l0.2-0.9l0.35-1.1l0.15-0.65l0.2-0.7l0.55-1.5
	l0.55-1.8l0.7-1.9l0.95,1.351l1,1.45l1,1.5l1.1,1.649l1.05,1.65l1.15,1.8l2.35,3.85v0.051l0.101,0.149l0.149,0.25l0.25,0.45
	l0.25,0.45l0.351,0.55l0.35,0.65l0.5,0.85l0.45,0.85l0.6,0.95l0.601,1.05l0.7,1.25l0.699,1.25l0.851,1.351l0.85,1.45l0.95,1.649
	V161.5v-0.95l-0.1-1.15l-0.051-0.6v-0.601l-0.1-0.699l-0.05-0.7l-0.101-0.75l-0.05-0.7l-0.1-0.45l-0.05-0.399l-0.101-0.801
	L31.55,152l-0.199-0.95l-0.15-1L31,149l-0.1-0.551l-0.05-0.5l-0.15-0.6l-0.1-0.55l-0.2-1.15L30.3,145.3l-0.05-0.3l-0.1-0.601
	l-0.2-1.25l-0.3-1.35l-0.25-1.4l-0.3-1.45L29,138.55l-0.05-0.2v-0.15l-0.1-0.699l-0.601-3.101l-0.6-3.3l-0.45-1.7l-0.25-1.6
	l-0.25-1.55l-0.1-1.45l-0.101-1.45l0.05-1.35l0.051-1.301l0.25-1.199L27,118.399l0.15-1.1v-0.601v-0.3v-0.149l0.05-0.101L27.3,115
	v-1.051v-1.05l-0.25-1.75l-0.05-1.7V109l-0.1-0.65l-0.05-0.6l-0.25-1.75l-0.051-1.551l-0.05-1.55l0.15-1.399l0.149-1.4l0.301-1.25
	l0.35-1.2l0.5-1.05l0.45-0.9l0.25,1l-0.15,0.4l-0.05,0.45l-0.05,2.149L28.3,101.8l-0.5,0.45l-0.699,0.85l-0.351,1.05l0.75-0.2
	l0.75-0.25l0.25,7.4l0.2,2.6L28.65,114v0.25l0.149,0.25l0.25,3.649l0.45,3.9l0.2,2.2l0.3,2.149l-0.149,0.55L29.8,127.55l-0.05,0.6
	l0.45,3.8l0.05,0.75l-0.1,1.7l0.05,1.5v0.65l0.05,0.6l0.2,1.101l0.1,0.35l0.2,0.6l0.351,0.45v0.3v0.15l0.05,0.2l0.1,0.7l0.2,1.199
	l0.2,1l0.2,0.9l0.05,0.3l0.1,0.3l0.2,0.5l0.2,0.301l0.2,0.1l0.3-0.05l0.25-0.101l0.2-0.199l0.149-0.2l1.4,1.05l0.5,0.5l0.8,0.6
	l0.55,0.301l0.05,0.55l0.15,0.55l0.25,0.45l0.45,0.35l0.45,0.15l0.649,0.149h0.3h0.4l0.85-0.05l-0.149,0.05v0.101h0.1h0.25
	l0.25-0.101l0.4-0.05l0.45-0.149l0.55-0.101l0.6-0.2l0.75-0.149l0.75-0.25l0.95-0.2l1.4-0.5L48,147.55l1.351-0.601l1.3-0.649
	l1.2-0.8L53,144.699l1.101-0.899l1.1-0.95l0.9-1.1l0.399-0.601l0.2-0.3l0.1-0.15l0.15-0.1l0.05-0.2l0.101-0.149l0.199-0.301
	l0.351-0.6l0.649-1.3l0.2-0.75l0.25-0.7l0.2-0.75l0.2-0.7l0.25-1.6l0.1-0.851l0.101-0.8v-1.8l-0.101-0.9l-0.05-0.149v-0.101v-0.199
	v-0.4l-0.35-1.8l-0.25-0.9l-0.2-0.85l-0.2-0.5l-0.1-0.25l-0.051-0.2l-0.3-0.9l-0.8-1.8l-1-1.899l-1.1-1.801l-0.7-0.949l-0.65-0.851
	l-0.7-0.85l-0.699-0.75l-0.801-0.75l-0.8-0.601l-0.85-0.6l-0.8-0.5l-0.95-0.55l-0.9-0.4l-1-0.399l-0.95-0.301l-1.05-0.3l-1.05-0.2
	l-1.1-0.149L41,109.25l-2.6,0.3l-2.3,0.45L34,110.449l-1.8,0.65l-1.1,0.5l-0.25-7.55l0.1,0.3v0.05L31,104.5l0.101,0.199l0.3,0.65
	l0.25,0.5l0.3,0.45l0.2,0.35l0.1,0.101l0.05,0.05l0.101,0.1l0.2,0.15h0.1h0.05l0.101,0.05l0.6-1.45l0.75-1.45l0.25-0.649l0.3-0.55
	l0.601-0.95L36,101.949l1.25-0.149l0.25,0.649l0.351,0.851l0.399,0.95l0.55,1.05l0.101-0.2l0.149-0.25l0.2-0.35l0.25-0.4l0.25-0.5
	l0.351-0.55l0.35-0.65l0.45-0.649l0.8,0.05l1,0.2l1.15,0.199l1.399,0.301v0.05l0.3,0.649l0.351-0.55l1.149,0.25L47.7,103l0.7,0.149
	l1.2,0.3l1,0.2l0.449,0.101l0.2,0.05l0.25,0.1h0.25l0.3,0.05l0.5,0.101h0.15h0.05l0.101,0.05h0.1l0.1,0.05l0.4-0.05l0.4-0.05
	l0.3-0.15l0.3-0.149l0.2-0.25v-0.101v-0.05h0.05l0.1-0.1l0.101-0.351v-0.2v-0.1v-0.05h0.05v-0.101l-0.15-0.5l-0.25-0.399l-0.399-0.4
	l-0.45-0.35l-0.65-0.351l-0.75-0.3l-0.899-0.3l-0.95-0.25l-1.05-0.25l-1-0.1L49.25,98l1.05-1.25L50.8,96l0.601-0.7l1.25-1.45
	l0.8,1.7l0.4,0.8l0.199,0.4l0.101,0.199l0.05,0.101l0.1,0.149v0.051l0.051,0.1l0.1,0.2l0.2,0.399l0.399,0.801l0.801,1.5l0.399-0.551
	l0.5-0.55L57.3,98.5l0.7-0.65l0.7-0.8l0.8-0.8l0.851-0.9l1-0.9l0.05,0.2l0.05,0.2l0.15,0.3l0.1,0.3l0.2,0.45l0.2,0.45l0.3,0.55
	l0.149,0.351l0.2,0.55l0.45,1.25L64,98.1l0.851-0.85l1.55-1.551L67.8,94.25L69.05,93l1.051-1.15l0.449-0.5l0.5-0.4L71.4,90.5
	l0.399-0.351l0.301-0.35l0.35-0.25l0.3,0.649l0.4,0.851l0.45,0.85l0.55,1.05L74.65,94l0.649,1.149l0.65,1.2l0.75,1.35l0.25-0.25
	l0.35-0.3l0.45-0.45l0.55-0.55l0.601-0.75l0.75-0.75l0.75-0.95l0.95-1l0.699-0.949l0.65-0.801l0.6-0.75l0.551-0.6l3.6,7.75
	l1.25-1.65l1.45-1.6l1.5-1.55l1.649-1.5l0.65,0.899l0.7,0.95l0.649,0.9l0.301,0.45l0.35,0.5l1.15,1.699l0.55,0.801l0.25,0.399
	l0.3,0.45l0.55-0.75l0.65-0.7l0.7-0.8l0.85-0.75l0.8-0.9l0.95-0.85l0.95-0.95l1.1-0.899l5.2,8.949l1.15-0.85l1.1-0.75l0.95-0.7
	l0.899-0.6l0.65-0.601l0.65-0.5L115.8,96l0.4-0.351l2.25,6.15l0.45-0.4l0.55-0.35l0.55-0.45l0.65-0.4L122,99.25l0.75-0.5l0.851-0.45
	l0.25,0.95l0.3,1.149l0.3,1.15l0.15,0.5l0.199,0.5l0.301,0.85v0.05l0.05,0.101l0.1,0.2l0.2,0.399l0.3,0.55l0.3,0.4l0.101,0.1
	l0.05,0.051l0.1,0.1l0.301,0.1l1.149-1.05l1.15-0.899l1-0.851l0.95-0.75l0.25-0.2v0.101v1v0.149v0.351v0.45l0.1,0.649v0.75l0.1,0.9
	l0.101,1.05l0.149,1.2l0.601-0.351l0.75-0.3l0.8-0.399l0.9-0.351l0.899-0.45l1.05-0.399l1.051-0.45l1.199-0.4l-0.5,0.9l-0.399,0.85
	l-0.4,0.75l-0.25,0.75L137,109.05l-0.149,0.55l-0.15,0.45v0.399l1.2-0.649l1.149-0.55l2.101-1.051l1.8-0.949l0.8-0.4l0.75-0.35
	l-0.25,3.05l-0.35,3.2l-0.45,3.25l-0.45,3.35l-0.649,3.4l-0.65,3.55l-0.85,3.55l-0.851,3.7l-0.5,1.649l-0.399,1.551l-0.351,1.35
	l-0.3,1.25l0.55-0.2l0.3-0.05l0.7-0.25l0.65-0.1l0.8-0.25l-0.6,1.149l-0.45,1.101l-0.351,0.699l-0.25,0.7l-0.25,0.65l-0.149,0.649
	l-0.2,0.601l-0.1,0.55L139,145.1v0.45v0.35l0.101,0.351l0.149,0.25l0.25,0.199l0.25,0.101l0.351,0.05l0.1-0.1l0.2-0.301l0.25-0.449
	l0.35-0.601l0.351-0.8l0.449-0.95l0.45-1.149l0.601-1.301l0.25-0.85l0.3-0.75l0.25-0.7l0.3-0.6l0.4-1.101l0.149-0.5l0.2-0.35
	l0.4-0.4l0.35-0.35l0.3-0.35l0.3-0.25l0.15-0.301l0.15-0.199l0.1-0.2l0.05-0.15l-0.05-0.3l-0.05-0.15l0.3-0.35l0.1-0.1l0.051-0.101
	l-0.101-0.45l-0.1-0.199l-0.101-0.101l-0.399-0.149l-0.45-0.051l-0.75,0.25l-0.6,0.2l-0.45,0.15l-0.351,0.149l0.2-0.75l0.25-0.8
	l0.25-0.85l0.3-0.95l0.25-1.05l0.301-1.15l0.3-1.25l0.3-1.25l0.2-1.35l0.25-1.2l0.2-1.15l0.199-1.05l0.15-1l0.2-0.85l0.1-0.851
	l0.2-0.649l0.1-0.65l0.101-0.55l0.2-0.85l0.1-0.551v-0.149h0.05l-0.05-1.55v-1.4l-0.1-1.35l-0.051-1.15l-0.1-1.15l-0.1-0.949
	l-0.101-0.5l-0.05-0.4l-0.1-0.75l0.199-0.2l0.15-0.149l0.1-0.15l0.051-0.1l-0.101-0.301l-0.1-0.149l-0.05-0.101l-0.2-0.199
	l-0.15-0.101l-0.149-0.35l-0.15-0.2l-0.25-0.15l-0.35-0.05l-0.5-0.3l-0.5,0.05l-0.051,0.25l-1.3,0.2l-1.25,0.5l-0.95,0.35
	l-0.85,0.351l-0.8,0.25l-0.7,0.149v-0.75l0.05-0.6v-0.6l0.05-0.5l0.15-0.351l0.2-0.25l0.35-0.45l0.15-0.35l0.05-0.15l0.05-0.05
	l-0.05-0.1v-0.05l-0.1-0.15l0.25-0.35l0.05-0.101h0.05l-0.1-0.649l-0.101-0.25l-0.1-0.15l-0.2-0.2l-0.15-0.1l-0.449-0.05h-0.2
	l-0.2,0.1l-0.3,0.1l-0.25,0.2l-0.351,0.2l-0.35,0.3l-0.45,0.351l-0.399,0.449l-0.65,0.5l-0.5,0.45l-0.5,0.4l-0.35,0.35l-0.351,0.25
	l-0.149,0.2l-0.15,0.1v0.101v-0.25l0.2-0.4l0.2-0.45l0.149-0.55l0.15-0.399l0.05-0.4L135,99.6v-0.25l0.05-0.25l0.051-0.15
	l-0.051-0.3l-0.1-0.25l-0.2-0.2l-0.25-0.1l-0.2-0.35l-0.25-0.25l-0.35-0.15h-0.35l-0.851,0.35l-0.149-0.3l1.449-0.7l1.351-0.6
	l1.2-0.6l1.1-0.601l-1.75,5.4l0.55-0.7l0.601-0.6l1.1-1.051l0.45-0.5l0.5-0.399l0.399-0.4l0.45-0.3l0.351-0.35l0.35-0.25l0.3-0.2
	l0.351-0.101l0.25-0.149l0.25-0.05l0.449,0.05l0.25,0.149l0.101,0.15l0.1,0.25l0.05,0.55v0.351v0.449l-0.1,0.4l-0.1,0.5l-0.25,1.15
	l-0.2,0.6l-0.2,0.7l-0.25,0.7l-0.2,0.8l2-0.4l1.8-0.3l1.601-0.3l1.45-0.25l0.199,1.3l0.301,1.5l0.199,1.6l0.301,1.801l0.05,0.949
	v0.5l0.05,0.601l-0.05,0.55v0.65l-0.05,1.35l-0.15,1.45l-0.1,0.75l-0.051,0.85l-0.199,1.7l-0.2,1.85L148.05,120l-0.199,0.899
	l-0.101,0.45l-0.05,0.5l-0.45,1.8l-0.5,1.8l-0.6,1.7l-0.601,1.75l-0.699,1.7l-0.7,1.7l1.75-1.65l1.7-1.55l1.649-1.45l1.65-1.25
	l-0.25,0.5l-0.2,0.601l-0.45,1.25l-0.5,1.35l-0.55,1.55l-0.65,1.55l-0.699,1.75l-0.75,1.851l-0.75,1.95l-0.9,2.05l-0.9,2.149
	l-0.5,1.101l-0.449,1.2l-0.95,2.449l-1.101,2.5l-1.1,2.65l-1.15,2.75l-1.199,2.9l0.25-0.9l-0.2,0.55l-0.15,0.5l-0.149,0.4
	l-0.051,0.35l1.65-2.149l1.6-2l1.5-1.9l1.45-1.75l1.3-1.65l1.25-1.55l1.15-1.45l1.1-1.25l0.95-1.25l0.9-1.1l0.8-0.95l0.75-0.85
	l0.65-0.75l0.55-0.65l0.45-0.55l0.399-0.35l0.2,0.3l-1.05,13l0.2-0.2l0.25-0.25l0.3-0.4l0.35-0.449l0.351-0.65l0.399-0.7l0.45-0.85
	l0.5-0.851l0.5-1.1l0.55-1.15l0.601-1.25l0.649-1.35l0.65-1.55l0.7-1.55l0.75-1.75l0.8-1.75l0.7-1.9l0.699-1.8l1.301-3.45l0.5-1.7
	l0.5-1.6l0.449-1.601l0.45-1.5l0.3-1.55l0.301-1.45l0.25-1.399l0.199-1.3l0.101-1.351l0.1-1.25l0.101-2.35l-0.15-2.4l-0.25-2.399
	l-0.2-1.25l-0.149-1.2l-0.2-1.25l-0.15-1.2l-0.55-2.6l-0.55-2.601l-0.2-0.7l-0.1-0.35l-0.051-0.3l-0.3-1.3l-0.75-2.7l0.351,0.1
	l0.399,0.15l0.75,0.3l0.7,0.25l0.65,0.3l0.55,0.2l0.25,0.1l0.3,0.15l1,0.4l0.35,0.1h0.051l0.1,0.05l0.2,0.101l0.3,0.1l0.25,0.1h0.05
	l0.101,0.051l0.149,0.1l0.2,0.1l0.7,0.15l0.649,0.2l1.2,0.399l0.5,0.101l0.45,0.2l0.4,0.199l0.35,0.2l-0.5-2.7l-0.4-2.449
	l-0.399-2.351l-0.351-2.1l-0.399-2.05l-0.3-1.801L171.8,81.25l-0.25-1.5L171,77.199l-0.55-2.449l-0.6-2.351l-0.551-2.2L168.65,68
	l-0.601-2.051L167.351,64l-0.65-1.851l-0.95-2.3l-0.95-2.2l-1.05-2.149l-1-2l-1.149-2l-1.101-1.851l-1.2-1.85l-1.149-1.7l-1.3-1.75
	l-1.301-1.6l-1.399-1.551L152.8,39.8l-1.449-1.4l-1.45-1.3l-1.55-1.25l-1.5-1.1l-1-0.7l-1.051-0.7l-1.25-0.8l-1.25-0.8l-1.449-0.9
	l-1.5-0.9l-1.65-1l-1.75-1L135.2,27.5l0.65-0.101l0.85-0.05l0.85-0.05l1,0.05l2.15,0.15l1.15,0.1l1.35,0.2l1.3,0.149l1.45,0.25
	l1.45,0.25l1.649,0.301l1.65,0.3l1.75,0.35l1.8,0.351l1.95,0.449l-2-2.25l-1.05-1.05l-1.101-1l-1.199-1L149.65,24l-2.601-1.75
	l-2.899-1.65l-1.5-0.75l-1.55-0.7l-1.65-0.7l-1.65-0.6l-1.699-0.6l-1.75-0.551l-3.65-1.05l-3.6-0.95l-3.601-0.8l-3.55-0.649
	l-3.6-0.551l-3.5-0.399l-3.5-0.3l-3.45-0.15l-2.8-0.1l-2.601-0.101l-2.35-0.1L97.05,11.5h-1l-1.899-0.101l-1.7-0.1l-1.5-0.101
	l-1.2-0.1l-0.3-0.4l-0.2-0.399l-0.2-0.45l-0.1-0.4l-0.15-0.55l-0.05-0.5L88.7,7.85l0.05-0.55l0.05-1.15l0.15-1.05l0.25-0.95
	l0.45-0.8L89.75,3V2.85L89.8,2.8L89.65,2.75H89.5l-0.1,0.1l-0.25,0.05l-0.2,0.15L88.7,3.199l-0.25,0.25l-0.35,0.2l-0.351,0.3
	L87.351,4.25l-0.4,0.399l-0.8,0.601L85.4,6l-0.8,0.85l-0.7,1l-0.8,1.05l-0.7,1.25l-0.8,1.351l-0.7,1.449l-1.65-0.699l-1.55-0.601
	l-1.45-0.7l-1.35-0.6L72.8,9.399L70.7,8.75l-2.1-0.45L66.5,8.149l0.3,0.5l0.45,0.7l0.45,0.85l0.6,1.101l0.601,1.2l0.7,1.399
	l0.75,1.55l0.85,1.75l-1-0.149l-1.05-0.101l-1.2-0.1H66.7h-1.45l-1.5,0.05L62.101,17L60.4,17.149L60.4,17.149z M143.3,50.1l0.4,0.25
	v0.05L143.3,50.1L143.3,50.1z M116,91.05L115.851,91l-0.301,0.05l-0.25,0.149l-0.199-0.1l-0.15,0.05l-0.1,0.15v0.3l-0.45,0.45
	l-0.4,0.649l-0.5,0.75l-0.25,0.4l-0.2,0.5l-0.449,0.45l-0.351,0.45l-0.55,0.699l-0.45,0.5l-0.149,0.2L111,96.8l-0.85-1.3l-0.75-1.15
	l-0.7-1.05l-0.65-0.95L107.4,91.5l-0.55-0.75l-0.5-0.65l-0.4-0.55l0.75-1.3l0.85-1.351l0.301,0.95l0.399,0.85l2.45,5.4l0.55-0.45
	l0.65-0.55l0.7-0.65l0.85-0.699l0.85-0.851l1-0.95l1.051-1.05l1.149-1.1l0.75,1.8l-0.55,0.45l-0.3,0.3l-0.25,0.4l-0.3-0.101h-0.25
	h-0.15l-0.1,0.101l-0.2,0.1L116,91.05L116,91.05z M127,90.649l0.2,0.601l0.2,0.8l0.3,1.899l0.05,0.9l0.101,0.95v0.85v0.9l-0.101,0.8
	l-0.05,0.4v0.449l1.9-0.75l1.85-0.649l-0.1,0.35l-4.25,1.7l-0.301-1.1l-0.25-0.95l0.101-0.101l0.149-0.1l0.101-0.2l0.05-0.1
	l0.1-0.05l0.051-0.301l0.1-0.25v-0.35l0.05-0.3l-0.1-0.7L127.05,95l-0.1-0.301l-0.2-0.399l-0.1-0.2l-0.05-0.1v-0.051l-0.45-0.699
	l-0.45-0.551l-0.35-0.199l-0.25,0.05l-0.051,0.35h-0.199l-0.351,0.05L124.3,93l-0.199,0.149L123.55,93.5l-0.6,0.55l-0.1-0.05v0.149
	l-0.301,0.25l-0.949,0.8l-0.4,0.351l-0.3,0.35l-0.351,0.25l-0.25,0.25l-0.35,0.351l-0.3-0.351l-0.15-0.2l-0.1-0.149l-0.5-0.75
	l-0.601-0.851l-0.5-0.949l0.351-0.601l0.399-0.5l0.301-0.45l0.3-0.35l1.05,2.5l2-1.05l0.9-0.5l0.899-0.4l1.601-0.85L127,90.649
	L127,90.649z M93.7,83.85l0.35,0.65l1.101,1.75l0.55,0.8l0.6,0.85l0.5,0.75l0.551,0.8l1.1,1.45l0.55-0.5l0.3-0.3l0.4-0.25l0.85-0.7
	l0.95-0.8l1.05-1l0.551-0.55l0.649-0.5l1.351-1.2l1.449-1.25l0.301,1.05l0.149,0.5l0.2,0.55l-1.5,0.75l-1.4,1.15l-0.35-0.2
	l-0.2,0.101l-0.149,0.3v0.5l-0.4,0.3l-0.35,0.4L102,90.199l-2.05,2.2l-1.85,2.3L97.25,93.05l-0.649-1.4L96.05,90.5l-0.449-0.851
	l-0.551-0.8l-0.35-0.8l0.1-0.3l0.101-0.2l0.05-0.15L95,87.35l-0.05-0.4l-0.1-0.25l-0.15-0.3l-0.2-0.149l-0.3-0.15h-0.35l-0.301,0.15
	l-0.399-0.301l-0.3-0.1l-0.351,0.05l-0.2,0.15l-0.1,0.149l-0.1,0.15l0.05,0.25L92,86.75L91.9,87l-0.05,0.75l0.1,0.199l-0.35,0.351
	L91.3,88.75l-0.35,0.5l-0.3,0.6L90,90.75l-0.649,1.05l-0.7,1.1l-0.7,1.2l-0.65-1.4l-0.5-1.25L86.3,90.3l-0.35-0.95l-0.25-1
	l-0.2-0.85l0.4-0.551l0.149-0.25l0.2-0.149l0.15-0.25l0.05-0.101h0.05l-0.05-0.3v-0.2l-0.1-0.35L86.2,85.1l-0.2-0.15l-0.3-0.05h-0.2
	L85.351,85l-0.4,0.149L84.5,85.5l-0.1-0.101l-0.351-0.45l-0.3-0.25l-0.25-0.1l-0.149,0.05l-0.2,0.15l-0.101,0.35L83,85.6v0.65
	l0.101,0.35l-0.45,0.35l-0.601,0.45L81.4,88.05l-0.7,0.649L79.95,89.5l-0.85,0.8l-0.851,0.95l-0.95,0.949L76.351,93.3l-0.101-0.101
	l-0.05-0.1l-0.1-0.25L76,92.649l-0.05-0.2L75.851,92l-0.101-0.2l-0.05-0.101v-0.05l-0.1-0.3l-0.2-0.7l-0.101-0.25l-0.05-0.2
	l-0.1-0.399l-0.101-0.25L75,89.35l-0.1-0.45l-0.25-0.649l-0.2-0.551l-0.4-0.85l0.5-0.65l0.4-0.449l0.2-0.351l0.05-0.1h0.05
	l-0.05-0.55l-0.15-0.351L74.9,84.25L74.8,84.199l-0.3-0.05l-0.45,0.05L73.8,84.25l-0.199,0.149L73,84.75l-0.649,0.55L72,85.6
	l-1,0.85l-0.7,0.7l-0.6,0.55l-0.25,0.2l-2.1,2.2l-1.801,2.3l-0.3,0.4l-0.649,0.95L64.5,93.6v-0.25l-0.1-0.4V92.5l-0.2-1.851
	l-0.2-1.5l-0.05-0.5l0.15-0.25h0.05l0.2-0.55l0.25-0.45L65,86.649L65.25,86l0.101-0.25l0.1-0.15l0.75,4.6l0.85-1l1.051-1l1.149-1.1
	l1.25-1.15l0.851-0.85l0.8-0.7l0.75-0.649l0.7-0.5l0.6-0.5l0.55-0.351l0.5-0.3l0.45-0.15v0.45L75.8,83l0.101,0.75l0.2,0.949
	L76.3,85.75l0.301,1.199l0.35,1.351l0.45,1.5l0.45-0.601l0.25-0.35l0.35-0.3l0.75-0.851l0.4-0.5l0.5-0.449l0.949-1.15l1.15-1.2
	L83.45,83l0.65-0.75l0.75-0.7l3.8,8.3l0.7-0.9l0.699-0.8L91.4,86.6l1.2-1.45l0.55-0.7L93.7,83.85L93.7,83.85z M148.75,83.399
	l-0.2,0.351l-0.1,0.35l0.05-0.4l0.101-0.35L148.75,83.399L148.75,83.399z M45.851,96.399l-0.2-0.55l-0.15-0.45l-0.3-0.8l-0.2-0.4
	l-0.149-0.25L44.75,93.55l-0.05-0.3l-0.1-0.25L44.5,92.85l-0.149-0.3l-0.101-0.15l-0.2-0.1L43.9,92.35l-0.25,0.05l-0.2,0.2
	l-0.3,0.25l-0.25,0.4l-0.25,0.05l-0.15,0.149l-0.1,0.45l-0.05,0.05l-0.5,0.45l-0.5,0.55l-0.75,0.851l-0.801,1.1l-0.35,0.5
	l-0.6,0.851l-0.25-0.75l-0.2-0.601l-0.2-0.45l0.05-0.1v-0.15l-0.1-0.649L38.05,95.3l-0.1-0.15l-0.2-0.2l-0.2-0.1l-0.449-0.05
	L36.8,94.949L36.101,94.8H35.75l-0.25,0.149l-0.149,0.101l-0.15,0.399v0.301l0.1,0.3v0.05l0.051,0.1l0.1,0.2l-0.6,0.851l-0.4,0.55
	l-0.4,0.649l-0.449,0.65l-0.4,0.75l-0.5,0.1l-0.75-1.55l-0.55-1.2v-0.5v-0.25l0.05-0.199l0.05-1V95l0.15-0.301L31.8,94.5l0.25,0.8
	l0.351,0.95l0.35,1.05l0.45,1.2l0.85-2l1-1.65l1-1.45l1.15-1.1l0.5,0.6l0.55,0.7l1,1.45l0.25,0.45l0.101-0.301l0.199-0.25L40,94.6
	l0.351-0.35l0.3-0.45l0.399-0.45l0.45-0.5l0.55-0.5l0.65-0.8l0.85-0.851L44.4,89.75l1-1l0.3,1.199L46,91l0.2,0.899l0.1,0.4
	l0.15,0.399l1.15-1.449L48.65,90l0.95-1.15l0.449-0.55l0.5-0.45l0.75-0.95l0.351-0.45l0.399-0.35l0.601-0.65l0.25-0.3l0.3-0.2
	l0.35,0.801l0.551,1.1l0.55,1.35l0.7,1.65l0.05-0.2l0.1-0.1V89.5l0.05,0.05H55.5v0.1L55.4,90l0.75,1.949l0.05,0.15l0.5,1.4l0.9-1.15
	l0.899-1l0.851-1l0.85-0.9l-0.6,1l-0.551,0.95L58.5,92.25l-0.5,0.8l-0.5,0.7l-0.45,0.649l-0.399,0.55L56.3,95.5l-0.1,0.149
	l-0.75-1.95l-0.35-0.899l-0.25-0.55l-0.301-0.7V91.5h-0.199l-0.2-0.101l-0.15-0.2l-0.1-0.149l-0.3-0.5l0.1,0.149l0.15,0.2L53.95,91
	L54,91.05l0.101,0.1l0.05,0.05l0.1,0.051v-0.051h0.05H54.4l-0.3-0.649l-0.25-0.45l-0.25-0.45l-0.2-0.25L53.55,89l0.15-0.301
	l0.1-0.25l0.051-0.1l-0.051-0.45v-0.35l-0.1-0.351l-0.05-0.25l-0.2-0.399l-0.15-0.101h-0.1h-0.4l-0.449,0.25l-0.5,0.4l-0.301,0.3
	l-0.25,0.4l-0.649,0.649L50.05,89.25l-0.35,0.399l-0.3,0.5l-0.601,1.05l-0.399,0.5L48.05,92.3l-0.699,1.25l-0.75,1.35l-0.4,0.7
	L45.851,96.399L45.851,96.399z M43.2,98.85h-0.7l0.3-0.55L43.2,98.85L43.2,98.85z M30.95,92.6l-0.4-0.15h-0.449h-0.15l0.1-0.3
	l0.15-0.2l0.2-0.3l0.1,0.2l0.05,0.1l0.101,0.15L30.95,92.6L30.95,92.6z M28.65,95.1l0.05,0.05l-0.1,0.101L28.65,95.1L28.65,95.1z
	 M65.25,84.649L65.101,84.5L65,84.449l-0.35-0.05l0.5-0.5L65.25,84.649L65.25,84.649z"/>
<polygon fill-rule="evenodd" fill="#FFCD05" points="63.95,88.649 64,89.149 64.2,90.649 64.4,92.5 64.4,92.949 64.5,93.35 
	64.5,93.6 64.601,93.75 65.25,92.8 64.601,90.55 64.15,88.399 64.101,88.399 63.95,88.649 "/>
<polygon fill-rule="evenodd" fill="#FFCD05" points="38.851,98.25 39.45,97.399 38.95,97.3 38.601,97.05 38.4,96.899 38.601,97.5 
	38.851,98.25 "/>
<polygon fill-rule="evenodd" fill="#FFCD05" points="55.4,90 55.5,89.649 55.5,89.55 55.55,89.55 55.5,89.5 55.5,89.55 55.4,89.649 
	55.351,89.85 55.15,90.05 54.95,90.35 54.65,90.699 54.4,91.199 54.3,91.199 54.25,91.199 54.25,91.25 54.15,91.199 54.101,91.149 
	54,91.05 53.95,91 53.851,90.899 53.7,90.699 53.601,90.55 53.9,91.05 54,91.199 54.15,91.399 54.351,91.5 54.55,91.5 54.75,90.949 
	55,90.55 55.2,90.199 55.4,90 "/>
<polygon fill-rule="evenodd" fill="#FFCD05" points="42.5,98.85 43.2,98.85 42.8,98.3 42.5,98.85 "/>
<path fill-rule="evenodd" fill="#FFCD05" d="M124.15,100.399l-0.3-1.149l-0.25-0.95l-0.851,0.45l-0.75,0.5l-1.35,0.949l-0.65,0.4
	l-0.55,0.45l-0.55,0.35l-0.45,0.4l-2.25-6.15L115.8,96l-0.449,0.449l-0.65,0.5l-0.65,0.601l-0.899,0.6l-0.95,0.7l-1.1,0.75
	l-1.15,0.85l-5.2-8.949l-1.1,0.899l-0.95,0.95l-0.95,0.85l-0.8,0.9l-0.85,0.75l-0.7,0.8l-0.65,0.7L98.2,98.1l-0.3-0.45l-0.25-0.399
	l-0.55-0.801l-1.15-1.699l-0.35-0.5L95.3,93.8l-0.649-0.9l-0.7-0.95L93.3,91.05l-1.649,1.5l-1.5,1.55l-1.45,1.6l-1.25,1.65
	l-3.6-7.75l-0.551,0.6l-0.6,0.75l-0.65,0.801l-0.699,0.949l-0.95,1l-0.75,0.95l-0.75,0.75l-0.601,0.75l-0.55,0.55l-0.45,0.45
	l-0.35,0.3l-0.25,0.25l-0.75-1.35l-0.65-1.2L74.65,94l-0.5-1.051l-0.55-1.05l-0.45-0.85l-0.4-0.851l-0.3-0.649l-0.35,0.25
	l-0.301,0.35L71.4,90.5l-0.351,0.449l-0.5,0.4l-0.449,0.5L69.05,93l-1.25,1.25L66.4,95.699l-1.55,1.551L64,98.1l-0.8,0.95
	l-0.45-1.25l-0.2-0.55L62.4,96.899l-0.3-0.55l-0.2-0.45l-0.2-0.45l-0.1-0.3l-0.15-0.3l-0.05-0.2l-0.05-0.2l-1,0.9l-0.851,0.9
	l-0.8,0.8l-0.7,0.8l-0.7,0.65l-0.55,0.649l-0.5,0.55l-0.399,0.551l-0.801-1.5l-0.399-0.801l-0.2-0.399l-0.1-0.2l-0.051-0.1v-0.051
	l-0.1-0.149l-0.05-0.101L54.05,96.75l-0.199-0.4l-0.4-0.8l-0.8-1.7L51.4,95.3L50.8,96l-0.5,0.75L49.25,98l-0.85,1.25l1,0.1
	l1.05,0.25l0.95,0.25l0.899,0.3l0.75,0.3l0.65,0.351l0.45,0.35l0.399,0.4l0.25,0.399l0.15,0.5v0.101H54.9v0.05v0.1v0.2L54.8,103.25
	l-0.1,0.1h-0.05v0.05v0.101l-0.2,0.25l-0.3,0.149l-0.3,0.15l-0.4,0.05l-0.4,0.05l-0.1-0.05h-0.1l-0.101-0.05H52.7h-0.15l-0.5-0.101
	l-0.3-0.05H51.5l-0.25-0.1l-0.2-0.05l-0.449-0.101l-1-0.2l-1.2-0.3L47.7,103l-0.65-0.101l-1.149-0.25l-0.351,0.55l-0.3-0.649v-0.05
	l-1.399-0.301L42.7,102l-1-0.2l-0.8-0.05l-0.45,0.649l-0.35,0.65l-0.351,0.55l-0.25,0.5l-0.25,0.4l-0.2,0.35L38.9,105.1l-0.101,0.2
	l-0.55-1.05l-0.399-0.95l-0.351-0.851l-0.25-0.649L36,101.949l-0.649,0.101L34.75,103l-0.3,0.55l-0.25,0.649l-0.75,1.45l-0.6,1.45
	l-0.101-0.05H32.7h-0.1l-0.2-0.15l-0.101-0.1l-0.05-0.05l-0.1-0.101l-0.2-0.35l-0.3-0.45l-0.25-0.5l-0.3-0.65L31,104.5l-0.05-0.101
	v-0.05l-0.1-0.3l0.25,7.55l1.1-0.5l1.8-0.65L36.101,110l2.3-0.45l2.6-0.3l1.101,0.05l1.1,0.149l1.05,0.2l1.05,0.3l0.95,0.301
	l1,0.399l0.9,0.4l0.95,0.55l0.8,0.5l0.85,0.6l0.8,0.601l0.801,0.75l0.699,0.75l0.7,0.85l0.65,0.851l0.7,0.949l1.1,1.801l1,1.899
	l0.8,1.8l0.3,0.9l0.051,0.2l0.1,0.25l0.2,0.5l0.2,0.85l0.25,0.9l0.35,1.8v0.4v0.199v0.101l0.05,0.149l0.101,0.9v1.8l-0.101,0.8
	l-0.1,0.851l-0.25,1.6l-0.2,0.7l-0.2,0.75l-0.25,0.7l-0.2,0.75l-0.649,1.3l-0.351,0.6l-0.199,0.301L57,140.399l-0.05,0.2l-0.15,0.1
	l-0.1,0.15l-0.2,0.3l-0.399,0.601l-0.9,1.1l-1.1,0.95L53,144.699l-1.149,0.801l-1.2,0.8l-1.3,0.649L48,147.55l-1.399,0.55l-1.4,0.5
	l-0.95,0.2l-0.75,0.25l-0.75,0.149l-0.6,0.2l-0.55,0.101l-0.45,0.149l-0.4,0.05L40.5,149.8l2.8,1.75l2.851,1.7l2.8,1.55l2.9,1.5
	l2.85,1.3l2.9,1.25l2.899,1.05l2.95,1.05l2.9,0.851l2.949,0.75l2.9,0.649l3,0.551l2.95,0.35l3,0.35l3,0.15l3.05,0.1l0.9-0.05h0.949
	l1.9-0.05l3.7-0.25l3.6-0.45l3.601-0.55l3.5-0.8l1.699-0.45l0.4-0.15l0.45-0.1l0.899-0.2l0.801-0.3l0.399-0.15l0.45-0.1l1.7-0.55
	l1.649-0.601l1.7-0.6l3.2-1.45l1.55-0.8l1.601-0.75l1.5-0.9l0.35-0.25l0.4-0.199l0.8-0.4l1.5-0.95l0.75-0.5l0.8-0.45l0.7-0.55
	l0.75-0.5l1.5-1.05l2.899-2.2l2.801-2.399l2.8-2.551l0.149-0.649l0.25-0.65l0.25-0.7l0.351-0.699l0.45-1.101l0.6-1.149l-0.8,0.25
	l-0.65,0.1l-0.7,0.25l-0.3,0.05l-0.55,0.2l0.3-1.25l0.351-1.35l0.399-1.551l0.5-1.649l0.851-3.7l0.85-3.55l0.65-3.55l0.649-3.4
	l0.45-3.35l0.45-3.25l0.35-3.2l0.25-3.05l-0.75,0.35l-0.8,0.4l-1.8,0.949l-2.101,1.051l-1.149,0.55l-1.2,0.649v-0.399l0.15-0.45
	l0.149-0.55l0.25-0.601l0.25-0.75l0.4-0.75l0.399-0.85l0.5-0.9l-1.199,0.4l-1.051,0.45l-1.05,0.399l-0.899,0.45l-0.9,0.351
	l-0.8,0.399l-0.75,0.3l-0.601,0.351l-0.149-1.2l-0.101-1.05l-0.1-0.9v-0.75l-0.1-0.649v-0.45v-0.351V102.8v-1l-0.25,0.1l-0.95,0.75
	l-1,0.851l-1.15,0.899l-1.149,1.05l-0.301-0.1l-0.1-0.1l-0.05-0.051l-0.101-0.1l-0.3-0.4l-0.3-0.55l-0.2-0.399l-0.1-0.2l-0.05-0.101
	v-0.05l-0.301-0.85l-0.199-0.5l-0.15-0.5L124.15,100.399L124.15,100.399z M96.65,111.6l0.35-0.3l0.45-0.25l0.95-0.55l1.1-0.601
	l1.25-0.55l1.55-0.75l1.5-0.6l0.7-0.301l0.75-0.199l1.351-0.351l1.25-0.25l1.199-0.1l0.551-0.05l0.6,0.05l1.05,0.149l0.75-0.1h0.65
	l0.55,0.05l0.5,0.15l0.35,0.149l0.25,0.25l0.15,0.25l0.15,0.351l-0.75-0.05l-0.801,0.05l-0.85,0.1l-0.9,0.2l-1,0.2l-1,0.3l-1.1,0.3
	l-1.15,0.4l-2.399,0.8l-2.2,0.85l-2,0.9l-1.8,0.95l-0.95,0.45l-0.75,0.449L96.3,114.3l-0.449,0.3l-0.15,0.35v0.301l0.05,2.699
	l0.3,2.851l0.4,2.95l0.3,1.5l0.4,1.6l0.3,1.45l0.3,1.45l0.2,1.25l0.1,0.6l0.15,0.6l0.05,0.5l0.101,0.5v0.2v0.101v0.05l0.05,0.1
	l0.1,0.5v0.4l0.05,0.399v0.351l0.051,0.399V136l0.05,0.199l0.1,0.25v0.051l0.05,0.1v0.05l0.051,0.101l-0.051,0.1V137v0.25
	l-0.1,0.199l-0.05,0.101v0.149L98.5,137.8l-0.1,0.149l-0.3,0.15l-0.2-0.15L97.8,137.75l-0.199-0.301L97.5,137.1l-0.2-0.1
	l-0.199-0.15l-0.2-0.25l-0.2-0.3l-0.2-0.4l-0.2-0.45l-0.199-0.55L96,134.3l-0.2-0.7l-0.149-0.75l-0.2-0.85l-0.1-0.9l-0.2-1
	l-0.101-1.05l-0.199-1.15l-0.101-1.2l-0.25-2.449l-0.2-2.15l-0.1-0.95l-0.05-0.85l-0.101-1.45l-0.1-1.15l-0.05-0.449v-0.351
	l-0.05-0.35v-0.15v-0.149v-0.95l0.05-0.8l0.1-0.7l0.2-0.55l0.35-0.801l0.551-0.55l0.649-0.399l0.851-0.15L96.65,111.6L96.65,111.6z
	 M53.55,97.85V97.8l0.051,0.05H53.55L53.55,97.85z M56.45,101.25v0.05l-0.35,0.2l-0.25,0.1H55.75L56.45,101.25L56.45,101.25z
	 M84.15,156.05l-1.3-0.101l-1.101-0.1l-1-0.1l-0.85-0.101l-0.75-0.149l-0.601-0.101l-0.449-0.1l-0.301-0.101l0.45-0.6l0.351-0.25
	l0.55-0.2l0.55-0.25l0.65-0.2l0.75-0.149l0.85-0.101l0.85-0.149l1.051-0.101l1.05-0.1l1.25-0.05l2.649-0.101L91.851,153H93.3h1.45
	l1.351,0.05l1.25,0.1l1.149,0.101l1.05,0.1l0.95,0.15l0.851,0.199l0.75,0.101l0.649,0.2l0.55,0.199l0.45,0.25l0.351,0.2l0.25,0.3
	l0.149,0.301l0.05,0.35l-0.05,0.2l-0.05,0.2l-0.1,0.05l-0.051,0.1l-0.1,0.2l-0.2,0.05l-0.2,0.101h-0.149l-0.101,0.05H103.4
	l-0.101,0.05l-2.949-0.05h-2.75l-2.65-0.101H92.5l-2.35-0.1l-2.15-0.1l-2-0.101L84.15,156.05L84.15,156.05z M137.45,139.899
	l-0.15,0.8l-0.399,1.051L137.45,139.899L137.45,139.899z M137.45,139.75l-2.4,0.8l1.301-0.5l1.1-0.351V139.75L137.45,139.75z
	 M117.65,117.149l1.3,0.2l1.3,0.35l1.25,0.4l1.25,0.55l1.101,0.55l1.1,0.7l1.05,0.75l1,0.9l0.95,1l0.85,1.1l0.7,1.101l0.65,1.25
	l0.45,1.25l0.35,1.35l0.2,1.35l0.1,1.5l-0.05,0.7h-0.05v0.05v0.101v0.2v0.399l-0.3,1.5l-0.25,0.7l-0.101,0.15l-0.05,0.199l-0.1,0.4
	l-0.351,0.7l-0.2,0.35l-0.149,0.4l-0.15,0.1l-0.1,0.15l-0.2,0.3l-0.4,0.6l-0.449,0.5l-0.4,0.5l-0.55,0.4l-0.5,0.45l-0.3,0.149
	l-0.25,0.2l-0.551,0.4l-0.35,0.1l-0.3,0.15l-0.351,0.1l-0.3,0.15l-0.7,0.2l-0.649,0.199l-0.75,0.101l-0.4,0.05l-0.35,0.1l-0.8,0.051
	h-0.4h-0.2h-0.1l-0.05,0.05l-1.4-0.05l-1.3-0.101L116.15,142l-1.15-0.15l-1.149-0.3l-1.051-0.3l-1-0.351L110.9,140.5l-0.95-0.5
	l-0.8-0.551l-0.8-0.6l-0.65-0.6l-0.7-0.7l-0.55-0.75l-0.55-0.8l-0.4-0.801l-0.399-0.8l-0.301-0.85l-0.449-1.9l-0.2-1.1l-0.101-1.101
	L104,128.25V127l0.05-1.351l0.2-1.25l0.3-1.149l0.5-1.051l0.551-1.05l0.75-0.85l0.85-0.851l1.05-0.649l0.95-0.601l1.05-0.449
	l1.05-0.351l1.2-0.25l1.15-0.149l1.3-0.051l1.3,0.051L117.65,117.149L117.65,117.149z M98.95,142.75h0.9l0.85,0.1l0.7,0.1
	l0.649,0.15l0.4,0.15l0.35,0.199l0.2,0.25l0.101,0.301L103,144.399l-0.3,0.4l-0.5,0.3l-0.3,0.15l-0.3,0.199l-0.5,0.101l-0.5,0.149
	l-1.101,0.2l-0.7,0.05l-0.699,0.101h-0.75h-0.4h-0.2h-0.1h-0.05v0.05l-0.65-0.05l-0.3-0.101l-0.2-0.05l-0.25-0.149l-0.15-0.101
	l-0.199-0.3l-0.101-0.55v-0.15v-0.05l0.05-0.5l0.2-0.4l0.3-0.35l0.5-0.25l0.551-0.25l0.75-0.1l0.85-0.051L98.95,142.75L98.95,142.75
	z"/>
<polygon fill-rule="evenodd" fill="#F8981D" points="100.75,109.35 99.5,109.899 98.4,110.5 97.45,111.05 97,111.3 96.65,111.6 
	96.601,111.35 95.75,111.5 95.101,111.899 94.55,112.449 94.2,113.25 94,113.8 93.9,114.5 93.851,115.3 93.851,116.25 
	93.851,116.399 93.851,116.55 93.9,116.899 93.9,117.25 93.95,117.699 94.05,118.85 94.15,120.3 94.2,121.149 94.3,122.1 
	94.5,124.25 94.75,126.699 94.851,127.899 95.05,129.05 95.15,130.1 95.351,131.1 95.45,132 95.65,132.85 95.8,133.6 96,134.3 
	96.101,134.899 96.3,135.449 96.5,135.899 96.7,136.3 96.9,136.6 97.101,136.85 97.3,137 97.5,137.1 97.601,137.449 97.8,137.75 
	97.9,137.949 98.101,138.1 98.4,137.949 98.5,137.8 98.65,137.699 98.65,137.55 98.7,137.449 98.8,137.25 98.8,137 98.8,136.85 
	98.851,136.75 98.8,136.649 98.8,136.6 98.75,136.5 98.75,136.449 98.65,136.199 98.601,136 98.601,135.699 98.55,135.3 
	98.55,134.949 98.5,134.55 98.5,134.149 98.4,133.649 98.351,133.55 98.351,133.5 98.351,133.399 98.351,133.199 98.25,132.699 
	98.2,132.199 98.05,131.6 97.95,131 97.75,129.75 97.45,128.3 97.15,126.85 96.75,125.25 96.45,123.75 96.05,120.8 95.75,117.949 
	95.7,115.25 95.7,114.949 95.851,114.6 96.3,114.3 96.95,113.949 97.7,113.5 98.65,113.05 100.45,112.1 102.45,111.199 
	104.65,110.35 107.05,109.55 108.2,109.149 109.3,108.85 110.3,108.55 111.3,108.35 112.2,108.149 113.05,108.05 113.851,108 
	114.601,108.05 114.45,107.699 114.3,107.449 114.05,107.199 113.7,107.05 113.2,106.899 112.65,106.85 112,106.85 111.25,106.949 
	110.2,106.8 109.601,106.75 109.05,106.8 107.851,106.899 106.601,107.149 105.25,107.5 104.5,107.699 103.8,108 102.3,108.6 
	100.75,109.35 "/>
<polygon fill-rule="evenodd" fill="#F8981D" points="56.45,101.3 56.45,101.25 55.75,101.6 55.851,101.6 56.101,101.5 56.45,101.3 
	"/>
<polygon fill-rule="evenodd" fill="#F8981D" points="77.8,155.199 78.101,155.3 78.55,155.399 79.15,155.5 79.9,155.649 
	80.75,155.75 81.75,155.85 82.851,155.949 84.15,156.05 86,156.149 88,156.25 90.15,156.35 92.5,156.449 94.95,156.449 
	97.601,156.55 100.351,156.55 103.3,156.6 103.4,156.55 103.55,156.55 103.65,156.5 103.8,156.5 104,156.399 104.2,156.35 
	104.3,156.149 104.351,156.05 104.45,156 104.5,155.8 104.55,155.6 104.5,155.25 104.351,154.949 104.101,154.649 103.75,154.449 
	103.3,154.199 102.75,154 102.101,153.8 101.351,153.699 100.5,153.5 99.55,153.35 98.5,153.25 97.351,153.149 96.101,153.05 
	94.75,153 93.3,153 91.851,153 88.8,152.949 86.15,153.05 84.9,153.1 83.851,153.199 82.8,153.3 81.95,153.449 81.101,153.55 
	80.351,153.699 79.7,153.899 79.15,154.149 78.601,154.35 78.25,154.6 77.8,155.199 "/>
<polygon fill-rule="evenodd" fill="#F8981D" points="137.3,140.699 137.45,139.899 136.9,141.75 137.3,140.699 "/>
<polygon fill-rule="evenodd" fill="#F8981D" points="135.05,140.55 137.45,139.75 137.45,139.699 136.351,140.05 135.05,140.55 "/>
<path fill-rule="evenodd" fill="#F8981D" d="M127,121.55l-1-0.9l-1.05-0.75l-1.1-0.7l-1.101-0.55l-1.25-0.55l-1.25-0.4l-1.3-0.35
	l-1.3-0.2l-1.4-0.149l-1.3-0.051l-1.3,0.051l-1.15,0.149l-1.2,0.25l-1.05,0.351l-1.05,0.449l-0.95,0.601l-1.05,0.649l-0.85,0.851
	l-0.75,0.85l-0.551,1.05l-0.5,1.051l-0.3,1.149l-0.2,1.25L104,127v1.25l0.05,1.199l0.101,1.101l0.2,1.1l0.449,1.9l0.301,0.85
	l0.399,0.8l0.4,0.801l0.55,0.8l0.55,0.75l0.7,0.7l0.65,0.6l0.8,0.6l0.8,0.551l0.95,0.5l0.899,0.399l1,0.351l1.051,0.3l1.149,0.3
	l1.15,0.15l1.25,0.149l1.3,0.101l1.4,0.05l0.05-0.05h0.1h0.2h0.4l0.8-0.051l0.35-0.1l0.4-0.05l0.75-0.101l0.649-0.199l0.7-0.2
	l0.3-0.15l0.351-0.1l0.3-0.15l0.35-0.1l0.551-0.4l0.25-0.2l0.3-0.149l0.5-0.45l0.55-0.4l0.4-0.5l0.449-0.5l0.4-0.6l0.2-0.3l0.1-0.15
	l0.15-0.1l0.149-0.4l0.2-0.35l0.351-0.7l0.1-0.4l0.05-0.199l0.101-0.15l0.25-0.7l0.3-1.5V132.5v-0.2v-0.101v-0.05h0.05l0.05-0.7
	l-0.1-1.5l-0.2-1.35l-0.35-1.35l-0.45-1.25l-0.65-1.25l-0.7-1.101l-0.85-1.1L127,121.55L127,121.55z M109.75,125.6l0.101-0.2
	l-0.051,0.2H109.75L109.75,125.6z"/>
<polygon fill-rule="evenodd" fill="#F8981D" points="103.101,144 103,143.699 102.8,143.449 102.45,143.25 102.05,143.1 
	101.4,142.949 100.7,142.85 99.851,142.75 98.95,142.75 97.95,142.699 97.101,142.75 96.351,142.85 95.8,143.1 95.3,143.35 
	95,143.699 94.8,144.1 94.75,144.6 94.75,144.649 94.75,144.8 94.851,145.35 95.05,145.649 95.2,145.75 95.45,145.899 
	95.65,145.949 95.95,146.05 96.601,146.1 96.601,146.05 96.65,146.05 96.75,146.05 96.95,146.05 97.351,146.05 98.101,146.05 
	98.8,145.949 99.5,145.899 100.601,145.699 101.101,145.55 101.601,145.449 101.9,145.25 102.2,145.1 102.7,144.8 103,144.399 
	103.101,144 "/>
<polygon fill-rule="evenodd" fill="#FFCD05" points="28.4,99.699 28.05,100.949 27.8,102.25 28.3,101.8 28.4,99.699 "/>
<polygon fill-rule="evenodd" fill="#FFCD05" points="28.25,103.699 27.5,103.949 27.101,106.649 27,109.449 27.05,111.149 
	27.3,112.899 27.3,113.949 27.3,115 27.45,116 27.45,117.55 27.601,119.25 27.75,121.05 28.101,123 28.45,125.05 28.95,127.199 
	29.5,129.5 30.2,131.949 29.75,128.149 29.8,127.55 29.5,124.75 29.101,121.05 28.851,117.6 28.601,114.25 28.5,111.1 
	28.25,103.699 "/>
<polygon fill-rule="evenodd" fill="#FFCD05" points="30.45,142.35 30.45,142.6 30.55,142.699 30.45,142.35 "/>
<path fill-rule="evenodd" fill="#CB6928" d="M59.65,2.649l0.7,1.2l0.8,1.35l0.8,1.351l0.9,1.55l0.899,1.55l1,1.65l1,1.7l1.101,1.85
	l-3.7-0.2L59.55,14.75L56,15l-3.399,0.5l-3.45,0.699l-3.3,0.9l-3.25,1.1L39.45,19.5L36.3,21l-3.05,1.699l-3,1.9l-2.85,2.15l-2.9,2.3
	l-2.75,2.6l-2.7,2.7l-2.6,3l-1.95,2.35l-1.85,2.5l-1.7,2.551L9.4,47.5l-1.45,2.75l-1.35,2.949L5.4,56.25l-1.05,3.149l-0.5,1.45
	l-0.45,1.4l-0.45,1.3l-0.35,1.3L2.2,66l-0.35,1.1l-0.301,1.05l-0.25,1L1,70l-0.25,0.8l-0.2,0.75L0.4,72.25l-0.25,1.1L0.05,73.8
	L0,74.199l0.55-0.6l0.75-0.65l0.75-0.699L3,71.55l1.101-1l1.05-0.95l1-0.9l0.95-0.8l0.85-0.8l0.85-0.7l0.75-0.7l0.75-0.6l1.2-1.15
	l0.55-0.5l0.5-0.399l0.4-0.4l0.35-0.3l0.301-0.3l0.3-0.2L13.05,62.8l-0.75,1.05l-1.449,2.3l-0.95,1.55l-0.851,1.75l-0.85,1.75
	l-0.75,1.95L6.7,75.1l-0.65,2.05l-0.6,2.15l-0.5,2.3l-0.75,3.1l-0.6,3.15l-0.551,3.05L2.7,94l-0.35,3l-0.25,3.05L1.95,103v3
	L2,108.899l0.2,3l0.3,3.05L3,118.05l0.55,3.1l0.75,3.2l0.851,3.25l1.05,3.3l1.3,3.8l1.55,3.801l0.801,1.85l0.899,1.9l1.95,3.8
	l1.75,3.25l0.05-0.9l0.101-0.75l0.199-1.399l0.101-1.15l0.05-0.5l0.1-0.4l0.301-1.85l0.449-1.55l0.15,0.35l0.25,0.5l0.25,0.5
	l0.35,0.65l0.75,1.35l0.45,0.75l0.55,0.9l0.5,0.85l0.601,1L21,149.8l1.45,2.35l0.8,1.25l0.9,1.4l0.2,0.3l0.1,0.15l0.15,0.199
	l0.5,0.7l0.199,0.3l0.101,0.15l0.149,0.2l0.5,0.7l0.9,1.25l0.9,1.3l0.8,1.149l0.85,1.2l0.75,1.101l0.75,1.1l0.3,0.45l0.351,0.5
	l0.649,1l0.601,0.899l0.6,0.9l0.5,0.8l0.55,0.8l0.45,0.7L35.2,171l0.25,0.399L35.15,169l-0.25-2.101l-0.2-2l-0.2-1.75l-0.2-1.6
	l-0.149-1.4l-0.101-1.25l-0.1-1l-0.3-2.05l-0.15-1.1l-0.1-1.051l-0.3-2.35L33,150.699l-0.05-0.6l-0.1-1.2l-0.101-0.95l-0.1-0.85
	l-0.25-1.9l-0.25-1.35L32,142.8l-0.2-0.95l0.2,0.2l-0.35-3.65l-0.101-0.1l-0.149-1.4l-0.3-1.75l-0.25-1.8l-0.4-3.8l-0.35-3.15
	l-0.25-3l-0.25-2.85l-0.15-2.7l-0.2-2.65l-0.1-2.5l-0.101-2.35v-2.25l-0.05-2.15l0.05-2.05L29.101,102l0.1-1.75l0.1-1.7L29.5,97
	l0.2-1.45L30,94.3l0.2,0.649l0.1,0.25l0.15,0.301l0.3,0.85l0.351,0.9l0.699,1.8l0.601,1.75l0.649,1.8l0.601-1.15l0.6-1l0.55-1
	l0.5-0.85l0.4-0.85l0.4-0.7l0.35-0.65l0.3-0.5l0.4,0.65l0.399,0.6l0.051,0.101l0.1,0.149l0.2,0.3L38.3,98.25l0.301,0.449l0.3,0.4
	l0.1,0.15l0.15,0.199l0.3,0.301l0.75-1.25l0.75-1.051l0.65-1.05l0.699-0.85l0.551-0.851L43.45,94l0.5-0.65l0.55-0.5l0.3,1.1
	l0.301,1.101l0.25,1l0.199,1l1.801-2.15l1.85-2L51.05,91L53,89.25l0.15,0.449l0.3,0.551l0.3,0.649l0.45,0.8l0.25,0.5l0.3,0.5
	l0.2,0.45l0.25,0.5l0.4,0.75v0.05l0.05,0.101l0.1,0.2l0.2,0.35l0.2,0.5l0.05,0.2l0.1,0.2l0.101,0.25v0.1l0.05,0.1l-0.05-0.05
	l0.1-0.1l0.101-0.2l0.25-0.25l0.199-0.35l0.351-0.45l0.35-0.55l0.45-0.551l0.45-0.75l0.55-0.75l0.55-0.85l0.7-0.95l0.7-1.05l0.8-1.1
	l0.8-1.2l0.95-1.25l0.2,2.1l0.2,2.25l0.1,2.351l0.1,2.5l9.4-9.051l2.7,8.351v-0.101L76.55,94.3l0.15-0.2l0.3-0.2l0.3-0.35l0.4-0.351
	l0.45-0.399l0.55-0.4l0.55-0.55l0.65-0.6l0.649-0.7l0.75-0.75l0.75-0.851L82.9,88.05l0.85-0.95l0.95-1.05l0.35,1.3l0.4,1.3l0.8,2.4
	l0.351,1.1L87,93.199l0.8,2l0.5-0.75l0.551-0.649l0.949-1.25l0.851-1.15l0.8-1l0.65-0.95L92.4,89l0.35-0.351L93.25,88l0.45-0.551
	l0.35,0.851l0.45,1l0.601,1.05l0.75,1.25l0.449,0.7l0.25,0.45L96.9,93.3l0.3,0.5l0.4,0.6l0.85,1.351l0.8-1l0.95-0.95l1-1l1.15-1
	l0.5-0.55l0.5-0.4l0.399-0.4l0.45-0.3l0.3-0.3l0.351-0.2l0.25-0.149l0.25-0.051l0.449,0.7l0.5,0.75l0.9,1.45l0.8,1.25l0.351,0.6
	l0.399,0.601l0.601,1l0.1,0.2l0.05,0.1l0.101,0.15l0.3,0.5l0.2,0.399l0.25,0.4l0.199,0.35l0.25,0.4l2.9-3.55l1.35-1.75l1.4-1.65
	l0.3,0.9l0.351,0.899l0.3,0.8l0.149,0.4l0.2,0.45l0.5,1.45l0.2,0.649l0.1,0.3v0.051l0.051,0.1l0.1,0.2l0.15-0.15l0.25-0.1l0.55-0.25
	l0.3-0.2l0.4-0.15l0.85-0.399l0.95-0.55l1.1-0.601l0.55-0.35l0.65-0.3l1.35-0.7l0.101,1.05l0.05,0.5l0.1,0.55l0.101,1l0.149,1
	l0.2,1.7l0.2,1.6l0.55-0.3l0.75-0.25l0.351-0.2l0.449-0.149l0.95-0.3l1-0.4l1.15-0.35l1.25-0.4l0.649-0.2l0.75-0.149l-0.1,0.35
	l-0.05,0.4L134.3,100l-0.199,1.399l-0.301,1.25l-0.1,0.25l-0.05,0.3l-0.101,0.601l1.301-0.851l0.55-0.399l0.6-0.3l0.45-0.351
	l0.5-0.25l0.8-0.45l0.3-0.25l0.301-0.149l0.449-0.25l0.25-0.15l0.15-0.05v0.2l-0.1,0.5l-0.051,0.649l-0.149,0.75l-0.101,0.9
	l-0.05,0.95l0.05,0.899l1.4-0.399l1.7-0.4l0.899-0.25l1-0.2l2.2-0.399v0.25l0.101,0.35l0.1,0.45l0.1,0.55l0.051,0.65l0.1,0.75
	l0.1,0.85l0.101,0.95l0.1,1.85v0.851l0.05,0.899l-0.05,0.801v0.8h-0.05v0.05v0.1v0.2v0.4v0.8l-0.15,0.75l-0.149,0.95l-0.2,1.05
	l-0.2,1.25l-0.3,1.35L145.4,122l-0.4,1.699l-0.399,1.9l-0.4,1.45l-0.4,1.399l-0.399,1.301l-0.351,1.3l-0.399,1.2l-0.4,1.149
	l-0.8,2.101l4.25-2.301l-4.05,7.95l-1.55,3l0.149,0.05l-1.149,3.25l-1.051,3.25l-0.85,2.551l-0.75,2.5l-0.75,2.399l-0.6,2.4
	l-0.601,2.25L134,165l-0.5,2.149l-0.399,2.101l2.149-3.051l1.05-1.449l1.051-1.351l1.899-2.649l0.9-1.25l0.95-1.15l1.649-2.35
	l0.8-1.101l0.801-1l1.399-1.95l1.351-1.75l1.149-1.649l0.55-0.75l0.551-0.65l0.449-0.7l0.45-0.6l0.851-1.05l0.649-0.95l0.601-0.75
	l0.199-0.35l0.25-0.25l0.4-0.351l-0.7,3l-0.3,1.45l-0.25,1.4l-0.55,2.6l-0.45,2.4l-0.45,2.1l-0.3,2l-0.3,1.7l-0.2,1.6l1.85-2.5
	l1.851-2.399l1.649-2.4l1.65-2.4l1.45-2.399l1.45-2.4l1.35-2.399l1.25-2.351l1.1-2.399l1.051-2.351L165.3,134l0.851-2.301l0.75-2.35
	l0.649-2.3l0.551-2.3l0.5-2.301l0.1-0.449v-0.15l0.05-0.1l0.101-0.2l0.1-0.5l0.15-0.5l0.199-1.15l0.101-0.649l0.149-0.601v-0.399
	v-0.2v-0.101l0.051-0.05l0.1-0.7V116.3v-0.2V116l0.05-0.051l0.101-0.75l0.1-1.699l0.05-0.9l0.101-0.9v-1.949l-0.051-1.9l-0.149-1.9
	l-0.15-1.85l-0.3-1.9l-0.35-1.85l-0.45-1.85l-0.45-1.801l2.35,0.801l2.301,0.8l2.1,0.7l2,0.699v-2.3l-0.05-2.3l-0.101-1.2l-0.05-0.6
	v-0.55l-0.2-2.301l-0.3-2.399l-0.35-2.4L175.8,85.3l-0.05-0.3l-0.1-0.601l-0.2-1.2L175,80.8l-0.6-2.55l-0.65-2.5l-0.399-1.301
	l-0.2-0.649L173,73.199l-0.8-2.55L171.3,68l-0.5-1.351l-0.449-1.3l-1.051-2.7L168.2,60l-1.25-2.75l-1.3-2.551l-1.351-2.55
	l-1.449-2.35l-1.551-2.351l-1.6-2.199l-1.65-2.15l-1.75-1.95l-1.899-1.95l-1.95-1.85l-2.05-1.75l-2.05-1.6l-2.2-1.601l-2.25-1.45
	l-2.351-1.35l-2.35-1.25l21.75,5.3l-1.2-2.05l-1.3-1.85l-1.5-1.851l-1.65-1.7l-1.85-1.699l-2-1.551l-2.2-1.55l-2.35-1.35
	l-2.851-1.55l-2.899-1.4l-2.95-1.25l-3-1.1l-3.1-1L129,12.899l-3.149-0.75l-3.2-0.55l-1.7-0.3l-1.65-0.2l-3.35-0.35l-3.4-0.25
	l-3.449-0.051L105.55,10.5l-1.8,0.05L102,10.699l-1.85,0.101l-1.8,0.2l-3.65,0.449L94.15,11l-0.45-0.4l-0.75-0.8L92.3,8.949
	L92.05,8.5L91.9,8.1l-0.351-0.95l-0.1-0.899L91.5,5.3l0.25-0.95l0.2-1L92.2,2.5l0.15-0.75l0.199-0.551l0.101-0.5l0.1-0.35L92.8,0.1
	L92.9,0l-2.05,0.449l-1.95,0.7l-1.851,0.9l-1.649,1.1l-1.65,1.3L82.3,6l-0.75,0.8L80.9,7.75l-1.25,2h-0.05H79.55l-0.1-0.051H79.4
	h-0.15l-0.3-0.1l-0.3-0.1l-0.4-0.15L78,9.25l-0.2-0.051L77.5,9.05l-0.25-0.101l-0.6-0.25l-0.7-0.3l-0.7-0.25l-0.45-0.2L74.4,7.8
	l-0.45-0.2l-0.4-0.15L72.601,7.05l-0.5-0.2l-0.25-0.1l-0.2-0.051l-2.05-0.85L67.75,5.1L66,4.449l-1.55-0.55L63,3.399l-1.25-0.35
	L60.601,2.8L59.65,2.649L59.65,2.649z M52.9,17.75l0.1-0.101h0.4l0.6-0.1h0.851l1-0.101l1.3-0.1l1.5-0.1l1.75-0.101l1.7-0.149
	l1.649-0.101l1.5-0.05h1.45h1.25l1.2,0.1l1.05,0.101l1,0.149l-0.85-1.75l-0.75-1.55L68.9,12.5L68.3,11.3l-0.6-1.101l-0.45-0.85
	l-0.45-0.7l-0.3-0.5l2.101,0.15l2.1,0.45l2.1,0.649l2.101,0.95l1.35,0.6l1.45,0.7l1.55,0.601l1.65,0.699l0.7-1.449l0.8-1.351
	l0.7-1.25l0.8-1.05l0.7-1L85.4,6l0.75-0.75l0.8-0.601l0.4-0.399l0.399-0.301l0.351-0.3l0.35-0.2l0.25-0.25l0.25-0.149l0.2-0.15
	l0.25-0.05l0.1-0.1h0.15L89.8,2.8l-0.05,0.05V3l-0.1,0.35l-0.45,0.9l-0.25,1.1l-0.15,1.3l-0.05,1.55V9l0.2,0.85l0.35,0.9l0.5,1
	l0.601,1l0.8,1.1l0.95,1.1l1.1,1.2l0.9-0.649l1.25-0.551l1.5-0.5l1.8-0.35l2-0.35l2.35-0.25l2.601-0.2l2.95-0.05l2.949-0.051
	l3,0.101l1.45,0.05l1.5,0.15l3,0.399l2.9,0.45l1.45,0.25l1.5,0.35l2.899,0.75l3,0.9l2.9,1l2.95,1.2l2.949,1.399l3,1.65l3,1.75l3,2
	l3.051,2.2l3.1,2.399l-1.95-0.449l-1.8-0.351l-1.75-0.35l-1.65-0.3l-1.649-0.301l-1.45-0.25l-1.45-0.25l-1.3-0.149l-1.35-0.2
	l-1.15-0.1l-2.15-0.15l-1-0.05l-0.85,0.05l-0.85,0.05L135.2,27.5l0.75,0.449l1.75,1l1.65,1l1.5,0.9l1.449,0.9l1.25,0.8l1.25,0.8
	l1.051,0.7l1,0.7l1.5,1.1l1.55,1.25l1.45,1.3l1.449,1.4l1.351,1.399l1.399,1.551l1.301,1.6l1.3,1.75l1.149,1.7l1.2,1.85l1.101,1.851
	l1.149,2l1,2l1.05,2.149l0.95,2.2l0.95,2.3l0.65,1.851l0.699,1.949L168.65,68l0.649,2.199l0.551,2.2l0.6,2.351l0.55,2.449
	l0.55,2.551l0.25,1.5l0.301,1.699l0.3,1.801l0.399,2.05l0.351,2.1l0.399,2.351l0.4,2.449l0.5,2.7l-0.35-0.2L173.7,96l-0.45-0.2
	l-0.5-0.101l-1.2-0.399l-0.649-0.2l-0.7-0.15l-0.2-0.1l-0.149-0.1l-0.101-0.051h-0.05l-0.25-0.1l-0.3-0.1l-0.2-0.101l-0.1-0.05
	H168.8l-0.35-0.1l-1-0.4l-0.3-0.15l-0.25-0.1l-0.55-0.2l-0.65-0.3l-0.7-0.25l-0.75-0.3l-0.399-0.15l-0.351-0.1l0.75,2.7l0.3,1.3
	l0.051,0.3l0.1,0.35l0.2,0.7l0.55,2.601l0.55,2.6l0.15,1.2l0.2,1.25l0.149,1.2l0.2,1.25l0.25,2.399l0.15,2.4l-0.101,2.35l-0.1,1.25
	L166.8,117.5l-0.199,1.3l-0.25,1.399l-0.301,1.45l-0.3,1.55l-0.45,1.5l-0.449,1.601l-0.5,1.6l-0.5,1.7l-1.301,3.45l-0.699,1.8
	l-0.7,1.9l-0.8,1.75l-0.75,1.75l-0.7,1.55l-0.65,1.55l-0.649,1.35l-0.601,1.25l-0.55,1.15l-0.5,1.1l-0.5,0.851l-0.45,0.85
	l-0.399,0.7l-0.351,0.65l-0.35,0.449l-0.3,0.4l-0.25,0.25l-0.2,0.2l1.05-13l-0.25-0.25l-0.4,0.35l-0.449,0.55l-0.551,0.65l-0.6,0.75
	l-0.75,0.85l-0.8,1l-0.9,1.051l-0.95,1.25l-1.1,1.25l-1.15,1.449L145.05,150l-1.3,1.649l-1.45,1.75l-1.5,1.9l-1.6,1.95l-1.65,2.149
	l0.051-0.35l0.149-0.4l0.15-0.5l0.2-0.55l-0.25,0.9l1.199-2.9l1.15-2.75l1.1-2.65l1.101-2.5l0.95-2.449l0.449-1.2l0.5-1.101
	l0.9-2.149l0.9-2.05l0.75-1.95l0.75-1.851l0.699-1.75l0.65-1.55l0.55-1.55l0.5-1.35l0.45-1.25l0.2-0.601l0.25-0.5l-1.65,1.25
	l-1.649,1.45l-1.7,1.55l-1.75,1.65l0.7-1.7l0.699-1.7l0.601-1.75l0.6-1.7l0.5-1.8l0.45-1.8l0.05-0.5l0.101-0.45L148.05,120
	l0.351-1.801l0.2-1.85l0.199-1.7l0.051-0.85l0.1-0.75l0.15-1.45l0.05-1.35v-0.65l0.05-0.55l-0.05-0.601v-0.5l-0.05-0.949
	l-0.301-1.801l-0.199-1.6l-0.301-1.5l-0.199-1.3l-1.45,0.25l-1.601,0.3l-1.8,0.3l-2,0.4l0.45-1.65l0.2-0.75L142.15,99l0.1-0.65
	l0.15-0.55l0.1-0.55l0.15-0.45v-0.45L142.7,96l-0.05-0.351v-0.25l-0.101-0.25L142.45,95l-0.15-0.15l-0.1-0.05l-0.25-0.101h-0.2
	l-0.25,0.051l-0.25,0.149l-0.35,0.15l-0.3,0.25l-0.4,0.25l-0.35,0.35l-0.45,0.351l-0.45,0.449l-0.5,0.45l-0.45,0.55l-0.6,0.551
	l-0.55,0.649l-0.601,0.65l-0.55,0.75l1.75-5.4l-0.95,0.45l-0.95,0.5l-1.05,0.5l-1.149,0.55l-1.301,0.5L130.7,98l-1.45,0.6l-1.55,0.6
	V98.75l0.05-0.4l0.101-0.8v-0.9V95.8l-0.101-0.95l-0.05-0.9l-0.3-1.899l-0.2-0.8l-0.2-0.601l-1.399,0.65L124,92.149l-0.899,0.4
	l-0.9,0.5l-2,1.05l-0.8-1.75l-0.7-1.65l-0.65-1.55l-0.55-1.35l-1.149,1.1l-1.051,1.05l-1,0.95l-0.85,0.851l-0.85,0.699l-0.7,0.65
	l-0.65,0.55l-0.55,0.45l-2.45-5.4l-0.25-0.5l-0.2-0.5l-0.399-1.1l-0.101-0.2l-0.05-0.1v-0.05l-0.1-0.301l-0.2-0.649l-0.4-1.45
	l-1.449,1.25l-1.351,1.2l-0.649,0.5l-0.551,0.55l-1.05,1l-0.95,0.8l-0.85,0.7l-0.4,0.25l-0.3,0.3l-0.55,0.5l-1.1-1.45l-0.551-0.8
	l-0.5-0.75l-0.6-0.85l-0.55-0.8L94.05,84.5l-0.35-0.65l-0.55,0.6l-0.55,0.7l-1.2,1.45l-1.351,1.55l-0.699,0.8l-0.7,0.9l-3.8-8.3
	l-0.75,0.7L83.45,83l-1.25,1.399l-1.15,1.2l-0.949,1.15l-0.5,0.449l-0.4,0.5l-0.75,0.851l-0.35,0.3l-0.25,0.35L77.4,89.8l-0.45-1.5
	l-0.35-1.351L76.3,85.75l-0.199-1.051l-0.2-0.949L75.8,83l-0.1-0.601v-0.45l-0.45,0.15l-0.5,0.3L74.2,82.75l-0.6,0.5l-0.7,0.5
	l-0.75,0.649l-0.8,0.7l-0.851,0.85l-1.25,1.15l-1.149,1.1l-1.051,1l-0.85,1l-0.1-1.55L66.05,87.3l-0.1-1.25V85l-0.1-0.95L65.75,83.3
	l-0.1-0.65v-0.45l-0.95,0.95l-1,1.05L62.65,85.3l-1.05,1.2l-1.15,1.199L59.25,89L58,90.35l-1.3,1.45l-0.6-1.25L55.55,89.5
	l-0.949-1.851l-0.45-0.85L53.8,86.1l-0.35-0.65l-0.25-0.5l-0.3,0.2l-0.25,0.3L52.05,86.1l-0.399,0.35l-0.351,0.45l-0.75,0.95
	l-0.5,0.45l-0.449,0.55L48.65,90l-1.05,1.25l-1.15,1.449L46.3,92.3l-0.1-0.4L46,91l-0.3-1.051l-0.3-1.199l-1,1l-0.851,0.949
	L42.7,91.55l-0.65,0.8l-0.55,0.5l-0.45,0.5L40.65,93.8l-0.3,0.45L40,94.6l-0.2,0.35l-0.199,0.25L39.5,95.5l-0.25-0.45l-0.2-0.351
	l-0.199-0.35l-0.15-0.3l-0.1-0.25l-0.15-0.3l-0.1-0.25l-0.2-0.4l-0.101-0.2L38,92.55V92.5l-0.2-0.45l-0.149-0.4l-0.4-0.95
	l-0.399-1.05L33.2,98.5l-0.5-1.45l-0.45-1.2l-0.399-1.1l-0.301-0.851l-0.1-0.2l-0.05-0.1v-0.05l-0.2-0.351l-0.1-0.149l-0.051-0.101
	l-0.1-0.199l-0.15-0.301l-0.1-0.25l-0.4-0.649L29.9,90.8l-0.101-0.15l-0.05-0.1l-0.1-0.2l-0.2-0.4l-0.5-0.85l-0.8,2l-0.65,2.05
	l-0.55,2l-0.45,2.05l-0.35,1.9l-0.25,1.95l-0.15,1.899l-0.05,1.95l-0.05,3.601v3.399v3.25l0.1,3.101v0.8l0.05,1l0.101,1.149l0.2,1.4
	l0.149,1.5l0.25,1.8l0.25,1.9l0.351,2.149l0.3,2.25l0.399,2.5l0.4,2.601l0.5,2.85l0.45,3l0.55,3.2l0.6,3.35l0.65,3.601l0.2,1.05
	l0.2,1.3l0.1,0.601l0.05,0.3l0.101,0.35l0.199,1.15l0.2,1.05l0.101,0.95l0.05,0.399l0.1,0.45l0.101,0.75l0.1,0.75l-0.95-1.649
	l-0.85-1.45l-0.851-1.351l-0.699-1.25l-0.7-1.25l-0.601-1.05l-0.6-0.95l-0.45-0.85l-0.5-0.85l-0.35-0.65l-0.351-0.55l-0.25-0.45
	l-0.25-0.45l-0.149-0.25L24.8,149.25v-0.051l-2.35-3.85l-1.15-1.8l-1.05-1.65l-1.1-1.649l-1-1.5l-1-1.45l-0.95-1.351l-0.55,1.25
	l-0.4,1.25l-0.399,1.051l-0.301,1.05l-0.3,0.85l-0.2,0.851L13.851,143l-0.101,0.649l-1.55-3.3l-1.35-3.5l-0.7-1.85l-0.601-1.9
	l-1.149-3.9L7.55,126l-0.399-1.65l-0.3-1.6L6.3,119.3l-0.449-3.5L5.5,112.1l-0.25-3.75l-0.1-1.95v-1.95L5.2,100.5l0.15-4.101l0.5-4
	l0.699-3.95l1.051-3.85l1.25-3.9l1.6-3.8l1.8-3.75L14.4,69.5l1.05-1.851l1.05-1.7l1-1.699l1-1.551l0.9-1.55L20.3,59.75l0.801-1.351
	l0.85-1.2l0.7-1.25l0.75-1.05l0.649-1.05l0.7-0.9l0.55-0.899L25.9,51.3l0.5-0.75L26.9,50l1.75-2.351l1.85-2.2l1.851-2.05L34.3,41.5
	l2.301-2.051V39.3l-0.051-0.05L36.4,39.199l-0.15,0.051l-0.3,0.05l-0.3,0.2l-0.4,0.199L34.851,40L34.3,40.3l-0.6,0.399l-0.65,0.4
	l-0.699,0.5l-0.801,0.5l-0.85,0.6l-0.95,0.65L28.8,44.1l-4.05,2.95L22.8,48.6l-1.85,1.65l-1.9,1.6l-1.8,1.7l-3.45,3.6l-1.75,1.75
	l-1.6,1.65L8.9,62.1l-1.4,1.55l-1.399,1.4L4.8,66.399l-1.25,1.25l-1.1,1.2l0.2-0.55l0.3-0.65l0.35-0.7l0.45-0.75L4.2,65.3l0.5-0.95
	l0.55-1.05l0.65-1.101l0.6-1.25l0.7-1.3l0.75-1.399l0.8-1.45l0.8-1.601l0.9-1.649l0.95-1.75l1.05-1.75l2.05-3.7l2.2-3.45l1.1-1.7
	l1.2-1.6l1.2-1.55l1.3-1.45l1.25-1.5l1.351-1.4l2.75-2.649l2.85-2.5l3.05-2.2L34.7,25l2.1-1.25l2.25-1.2l2.4-1.05l2.5-1.051
	l2.65-0.899l2.75-0.9l2.949-0.75L52.9,17.75L52.9,17.75z"/>
<polygon fill-rule="evenodd" fill="#CB6928" points="73.851,17.449 73.601,17.8 72.601,18.05 72.25,18.5 71.95,19.05 71.25,20.399 
	70.45,21.949 69.65,23.85 69.101,24.899 68.7,25.949 68.351,26.85 68.101,27.699 67.851,28.399 67.7,29.05 67.601,29.6 
	67.601,30.05 67.601,30.75 67.601,31.3 67.601,31.699 67.65,31.899 67.851,32.5 67.9,32.35 68.101,32.199 68.3,31.949 68.65,31.6 
	69,31.149 69.45,30.649 69.95,30.1 70.55,29.449 71.05,29.1 71.7,28.699 72.4,28.25 73.25,27.75 74.101,27.1 75.101,26.399 
	76.15,25.649 77.351,24.85 78.4,24 79.4,23.25 80.25,22.55 81.101,21.949 81.351,21.949 81.851,22 82.351,22.149 82.851,22.399 
	83.45,22.8 83.95,23.25 84.5,23.85 85,24.55 85.601,25.399 86.15,26.3 86.851,27.35 87.55,28.5 88.351,29.75 89.55,27.55 
	90.75,25.5 90.851,25.1 91,24.699 91.2,23.75 91.3,22.649 91.3,22 91.3,21.649 91.351,21.35 91.3,20.649 91.2,20.1 91,19.55 
	90.8,19.149 90.351,18.5 90.101,18.05 89.9,17.699 89.851,17.55 88.351,17.55 88.351,17.699 88.351,18.05 88.45,19 88.5,19.55 
	88.601,20.3 88.7,21.149 88.851,22.1 88.851,22.699 88.9,23.3 88.9,23.85 88.95,24.449 88.851,24.899 88.8,25.399 88.7,25.85 
	88.601,26.3 88.101,26.3 86.55,24.149 85.851,23.199 85.2,22.449 84.55,21.699 84,21.1 83.05,20.149 83.25,19.75 83.351,19.5 
	83.3,19.1 83.3,18.8 83.25,18.55 83.25,18.399 83.15,18.1 83.101,18.05 83.101,18.1 82.851,18.5 79,20.25 75.25,22.3 73.601,23.3 
	72.25,24.3 71.15,25.199 70.7,25.649 70.351,26.149 70.45,25.8 70.65,25.449 71.101,24.649 71.65,23.699 72.4,22.649 72.75,21.949 
	73.101,21.35 73.4,20.8 73.65,20.35 73.8,19.85 73.95,19.449 74.05,19.1 74.101,18.8 74.05,18.149 74,17.899 74,17.75 73.9,17.449 
	73.851,17.399 73.851,17.449 "/>
<polygon fill-rule="evenodd" fill="#010101" points="145.45,52.1 145.601,52 145.101,51.55 144.65,51.149 143.7,50.35 
	143.101,49.949 144.25,50.899 145.45,52.1 "/>
<polygon fill-rule="evenodd" fill="#F26822" points="145.601,52 145.45,52.1 146.25,53.05 147.101,54.1 147.9,55.25 148.8,56.5 
	149.601,57.75 150.4,59.199 151.2,60.699 152.05,62.35 152.5,63.35 152.7,63.85 152.8,64.1 152.95,64.399 153.351,65.35 
	153.8,66.35 154.15,67.25 154.5,68.149 154.8,69 154.95,69.399 155.15,69.85 155.351,70.6 155.55,71.35 155.7,72.05 155.9,72.75 
	156,73.35 156.101,73.949 156.101,74.199 156.15,74.5 156.15,74.75 156.2,75.05 156.2,75.949 156.2,76.8 156.2,77.55 156.25,78.199 
	156.25,78.75 156.3,79.199 156.351,79.55 156.45,79.85 155.601,77.899 154.851,76.3 154.101,74.899 153.45,73.8 152.851,72.899 
	152.25,72.149 151.601,71.399 151,70.75 150.25,70.1 149.55,69.55 148.8,69 148.05,68.6 148.15,69.149 148.3,69.8 148.3,70.05 
	148.351,70.35 148.45,70.949 148.65,72.1 148.7,72.6 148.8,73.149 148.95,74.25 149,75.25 149.05,76.25 149.05,77.149 
	149.101,78.05 149,79.699 148.9,80.449 148.851,81.25 148.65,82.699 148.45,84.1 148.601,83.6 148.7,83.3 148.9,82.949 149.2,82.05 
	149.4,81.55 149.65,81 150,79.85 150.101,79.3 150.25,78.85 150.4,77.899 150.45,77.149 150.4,77.05 150.4,77 150.4,76.899 
	150.4,76.699 150.4,76.25 150.351,75.75 150.351,75.199 150.25,73.899 150.2,73.199 150.2,72.5 150.75,72.949 151.351,73.6 
	152.2,74.649 152.601,75.25 153.05,75.949 153.8,77.399 154.55,79.05 154.55,79.149 154.65,79.449 154.8,79.949 155.101,80.75 
	155.351,81.649 155.75,82.75 156.15,84.05 156.7,85.6 157.05,82.949 157.15,81.649 157.3,80.449 157.351,79.199 157.4,78.05 
	157.45,75.8 157.3,73.649 157.101,71.6 156.9,70.6 156.75,69.699 156.3,67.949 155.5,65.75 154.55,63.649 153.45,61.55 152.2,59.55 
	150.75,57.55 149.2,55.649 147.45,53.8 145.601,52 "/>
<polygon fill-rule="evenodd" fill="#F26822" points="50.25,41.149 50.3,40.699 50.4,40.35 50.45,40.05 50.5,39.899 50.45,39.75 
	50.45,39.699 50.4,39.699 50.351,39.85 50.4,39.75 49.55,40.75 48.75,42 47.95,43.5 47.15,45.199 46.351,47.1 45.601,49.199 
	44.851,51.5 44.15,54.1 43.5,56.399 42.95,58.5 42.45,60.399 42.25,61.3 42.101,62.149 41.75,63.649 41.601,64.949 41.45,66.05 
	41.45,66.55 41.45,67 41.351,68.1 41.2,69.199 41.55,68.6 41.601,68.6 41.601,68.5 41.7,68.35 42.05,67.699 42.5,67.05 43,66.35 
	43.601,65.6 45.2,63.25 46.8,61.05 48.3,59 49.8,57.1 51.2,55.3 52.601,53.699 53.9,52.199 55.2,50.899 55.2,52.55 55.2,54.1 
	55.2,55.55 55.2,56.899 55.2,58.1 55.25,59.25 55.25,60.3 55.351,61.25 55.45,64 55.7,66.699 56,69.199 56.45,71.6 65.45,55.75 
	64.65,56.1 63.9,56.649 63.101,57.25 62.4,58 61.601,58.85 60.9,59.8 60.101,60.85 59.4,62 58.851,62.75 58.45,63.5 58.101,64.1 
	57.851,64.649 57.65,62.699 57.5,60.75 57.4,58.699 57.351,56.55 57.3,54.3 57.3,52 57.351,49.649 57.45,47.199 57,47.35 
	56.601,47.6 56.101,47.85 55.65,48.199 55.101,48.55 54.601,49 54.05,49.449 53.55,50.05 52.9,50.6 52.3,51.25 51.65,51.899 
	51.05,52.699 49.65,54.3 48.9,55.199 48.2,56.199 46.95,57.699 46.4,58.35 45.95,59 45.45,59.55 45.05,60.1 44.7,60.6 44.45,61.1 
	45.95,55.5 46.3,53.55 46.8,51.55 47.4,49.449 48.15,47.3 48.45,46.199 48.8,45.25 49.101,44.3 49.4,43.55 49.601,42.8 
	49.851,42.149 50.05,41.6 50.25,41.149 "/>
<polygon fill-rule="evenodd" fill="#010101" points="153.95,139.3 154.2,139.55 154,139.25 153.95,139.3 "/>
<polygon fill-rule="evenodd" fill="#F8981D" points="32,142.8 32.15,143.85 32.4,145.199 32.65,147.1 35.5,149.699 38.45,152.149 
	41.45,154.449 44.601,156.6 47.7,158.55 50.95,160.35 54.25,161.949 57.7,163.449 61.101,164.699 64.65,165.8 68.25,166.75 
	71.95,167.55 75.65,168.149 79.5,168.6 83.351,168.85 87.351,168.949 87.75,168.899 88.2,168.899 89.101,168.899 90.9,168.85 
	92.65,168.75 94.45,168.649 97.95,168.25 99.65,168 101.4,167.8 102.2,167.6 102.601,167.5 103.05,167.449 104.75,167.1 
	108.05,166.35 109.65,165.85 110.45,165.6 111.3,165.399 112.9,164.85 114.55,164.35 117.65,163.1 120.75,161.75 123.75,160.25 
	126.75,158.649 129.65,156.85 131.05,155.899 131.75,155.399 132.101,155.149 132.5,154.949 135.3,152.85 136.65,151.75 
	138.05,150.699 139.101,147.449 140.25,144.199 140.101,144.149 141.65,141.149 141.15,141.55 140.75,142 140.351,142.35 
	140.05,142.75 137.25,145.35 136.5,145.949 135.8,146.6 134.4,147.85 132.9,149 132.5,149.25 132.15,149.55 131.45,150.149 
	129.95,151.199 128.5,152.3 125.4,154.25 122.3,156.05 119.101,157.649 118.65,157.8 118.25,158 117.45,158.399 115.851,159.149 
	114.15,159.75 113.3,160.05 112.5,160.399 109.101,161.5 105.601,162.449 103.8,162.85 102.05,163.25 100.2,163.55 98.4,163.85 
	96.55,164.05 94.75,164.3 92.851,164.399 92.351,164.399 91.9,164.449 91,164.55 87.2,164.649 83.4,164.55 79.7,164.3 76.05,163.85 
	72.45,163.25 68.851,162.449 65.3,161.5 61.8,160.399 58.351,159.149 54.9,157.649 51.5,156.05 48.15,154.25 44.851,152.3 
	41.55,150.149 38.3,147.85 35.101,145.399 32,142.8 "/>
<polygon fill-rule="evenodd" fill="#ABDFE9" points="68,150.8 66.5,151.1 65.2,151.399 64.601,151.5 64.101,151.649 63.25,151.949 
	62.55,152.149 62.25,152.25 62.05,152.399 61.75,152.6 61.7,152.85 61.7,152.949 61.8,153.199 61.9,153.55 62.15,154 62.3,154.399 
	62.3,154.449 62.351,154.55 62.45,154.75 62.45,154.85 62.45,154.899 62.5,155 62.5,155.1 62.5,155.149 62.55,155.25 62.55,155.3 
	62.55,155.6 62.55,156.05 62.55,156.75 62.55,157.55 62.601,158.6 62.601,159.8 62.7,161.25 62.8,162.6 63,163.8 63.2,164.8 
	63.5,165.649 63.75,166.25 64.101,166.75 64.45,167.05 64.9,167.149 65,167.1 65.15,167.1 65.25,167.05 65.4,167.05 65.601,166.949 
	65.851,166.85 66,166.649 66.05,166.55 66.15,166.5 66.25,166.25 66.4,166.05 66.4,165.75 66.4,165.55 66.4,165.449 66.4,165.399 
	66.45,165.399 66.45,164.85 66.45,164.55 66.45,164.399 66.5,164.3 66.45,163.899 66.45,163.5 66.351,162.5 66.25,161.899 
	66.2,161.3 66,159.899 65.75,158.449 65.601,157.199 65.5,156.05 65.5,155.149 65.5,154.199 65.55,153.85 65.65,153.6 65.9,153.899 
	66.2,154.55 66.3,154.649 66.5,154.8 67,155 67.25,155.05 67.601,155.149 67.95,155.149 68.4,155.199 68.65,155.1 68.8,155 
	69.05,154.899 69.25,154.699 69.55,154.5 70.2,154.05 70.851,153.5 71.7,153.149 72.65,152.899 73.7,152.85 76,153.399 77,153.3 
	78,153.149 78.45,152.949 78.95,152.8 79.851,152.399 80.5,151.899 80.601,151.75 80.75,151.649 81,151.449 81.3,150.949 
	81.3,150.8 81.351,150.699 81.4,150.5 81.4,150.199 81.25,149.949 80.9,149.699 80.5,149.55 79.95,149.449 79.3,149.449 
	78.05,149.449 76.75,149.5 74.05,149.75 72.601,149.899 71.101,150.149 68,150.8 "/>
<polygon fill-rule="evenodd" fill="#ABDFE9" points="119.851,147.5 120.101,147.3 120.3,147.1 120.3,147 120.3,146.949 
	120.351,146.949 120.45,146.85 120.5,146.649 120.45,146.35 120.351,146.149 120.2,145.949 120,145.85 119.4,145.699 
	119.05,145.699 118.65,145.75 117.8,145.8 117.2,146.05 116.851,146.399 116.75,146.85 116.75,146.949 116.8,147.35 116.95,147.55 
	117.2,147.699 117.55,147.8 118.101,147.85 118.3,147.8 118.55,147.8 119.05,147.75 119.45,147.6 119.851,147.5 "/>
<polygon fill-rule="evenodd" fill="#ABDFE9" points="122.8,150.8 122.3,150.85 121.851,151.1 121.45,151.449 121.15,152.05 
	120.8,151.699 120.4,151.399 119.851,151.1 119.3,150.85 118.55,150.55 117.8,150.35 116.9,150.1 115.95,149.899 114.601,149.6 
	113.5,149.449 112.55,149.35 111.8,149.399 111.15,149.449 110.75,149.699 110.5,149.949 110.45,150.35 110.45,150.899 
	110.5,151.149 110.75,151.399 111,151.55 111.4,151.6 111.7,151.6 112.101,151.699 112.351,151.75 112.7,151.85 112.7,152.5 
	112.851,152.8 112.851,152.899 112.9,153.25 113.15,153.5 113.5,153.649 113.75,153.699 114.101,153.75 114.101,153.699 
	114.15,153.699 114.25,153.699 114.45,153.699 114.45,153.649 114.5,153.649 114.601,153.649 114.8,153.649 114.9,153.55 
	114.9,153.5 114.95,153.5 115.05,153.5 115.3,153.399 115.4,153.35 115.95,153.449 116.7,153.649 116.9,154.1 117.2,154.699 
	117.55,155.399 118.05,155.899 118.601,156.199 119.3,156.3 119.601,156.25 119.95,156.149 120.3,156 120.7,155.8 121.05,155.5 
	121.45,155.149 122.25,154.35 122.851,153.5 123.05,153.1 123.3,152.8 123.55,152.149 123.65,151.699 123.55,151.25 123.4,151 
	123.15,150.85 122.8,150.8 "/>
<polygon fill-rule="evenodd" fill="#CB6928" points="94.45,115.949 94.351,115.3 94.351,114.699 94.5,113.5 94.55,113.1 
	94.8,112.75 95.2,112.35 95.75,112 96.4,111.55 97.25,111.1 98.2,110.6 99.351,110.149 100.5,109.6 101.75,109.149 103,108.75 
	104.4,108.5 105.75,108.25 107.25,108.1 108.75,108 110.351,108 111.8,108 113.15,108 114.351,108 115.45,108 116.3,108 117.05,108 
	117.65,108 118.101,108.05 117.5,107.75 116.8,107.5 115.95,107.3 115,107.1 113.8,106.899 112.55,106.699 111.101,106.55 
	109.55,106.449 108.65,106.35 107.8,106.35 106.851,106.35 105.95,106.449 104,106.699 103,106.899 102.05,107.199 100.95,107.449 
	99.9,107.8 98.8,108.149 97.75,108.6 95.45,109.55 93.101,110.699 92.9,110.8 92.95,111.949 93.05,113.35 93.15,114.85 
	93.351,116.6 93.5,118.399 93.75,120.449 94,122.649 94.3,125.05 94.65,128.05 95.101,131.35 95.601,134.85 96.2,138.649 
	97.05,138.6 98.15,138.449 99.05,138.399 99.65,138.35 99.9,138.35 100.101,138.35 100.601,138.399 101.101,138.6 101.601,138.899 
	102.101,139.35 102.5,139.85 102.851,140.399 103,140.899 103.101,141.5 103,142.1 102.9,142.35 102.851,142.649 102.65,142.85 
	102.55,142.949 102.5,142.949 102.5,143 102.5,143.1 102.3,143.3 102.2,143.399 102.15,143.399 102.15,143.449 102.15,143.55 
	101.851,143.649 101.75,143.649 101.7,143.649 101.7,143.699 101.601,143.8 101.3,143.899 101,144.05 100.601,144.1 100.25,144.199 
	99.851,144.199 99.45,144.25 98.7,144.199 98.05,144.199 97.5,144.199 97.05,144.199 97,144.25 97,144.55 97,144.8 97,145 
	97.101,145.149 97.2,145.25 97.4,145.399 97.95,145.649 98.25,145.699 98.65,145.8 99.601,145.85 100.2,145.8 100.8,145.75 
	101.3,145.6 101.851,145.5 102.05,145.35 102.3,145.25 102.75,145.05 103.101,144.75 103.5,144.449 103.9,143.85 103.95,143.649 
	104.05,143.5 104.25,143.199 104.3,142.8 104.4,142.449 104.45,142.05 104.45,141.85 104.45,141.75 104.45,141.699 104.5,141.699 
	104.4,140.85 104.25,140.1 103.9,139.399 103.5,138.85 102.9,138.3 102.25,137.899 101.4,137.55 100.5,137.35 99.75,137.199 
	99.05,137.149 98.4,137.199 97.851,137.35 97.75,137.149 97.7,137.05 97.7,137 97.601,136.649 97.4,135.899 97.2,135.05 97,134.1 
	96.851,133.5 96.75,132.949 96.55,131.8 96.45,131.449 96.4,131.149 96.3,130.55 96.101,129.199 95.7,126.85 95.4,124.8 
	95.2,123.449 95.05,122.3 94.9,121.25 94.851,120.3 94.7,118.8 94.601,117.6 94.5,116.649 94.45,115.949 "/>
<polygon fill-rule="evenodd" fill="#CB6928" points="116.45,116.1 116.45,115.949 115.7,115.55 114.851,115.3 113.851,115.1 
	112.7,115 112,114.899 111.4,114.899 110.851,114.899 110.4,115 109.601,115.25 109.101,115.699 109.65,115.55 110.45,115.5 
	111.5,115.5 112.8,115.6 114,115.649 114.55,115.649 115.05,115.75 115.851,115.899 116.45,116.1 "/>
<polygon fill-rule="evenodd" fill="#CB6928" points="34.351,109.55 36.4,108.8 36.55,108.699 36.851,108.699 37.3,108.6 
	37.851,108.6 38.5,108.5 39.25,108.5 40.101,108.449 41.15,108.449 42.05,108.35 42.9,108.35 43.55,108.25 44.15,108.25 
	44.601,108.149 44.95,108.149 45.15,108.05 45.3,108.05 44.9,107.949 44.601,107.85 44.25,107.85 43.351,107.75 42.8,107.699 
	42.2,107.699 41.05,107.6 40.601,107.6 40.25,107.6 39.9,107.6 39.75,107.6 39.601,107.649 38.351,107.699 37.2,107.949 
	36.101,108.199 35.15,108.6 34.601,108.8 34.05,109.149 33.4,109.5 32.65,110 32.9,109.949 33.25,109.85 33.7,109.699 
	34.351,109.55 "/>
<path fill-rule="evenodd" fill="#010101" d="M41.3,110l-1.85,0.05l-1.75,0.25l-1.7,0.35l-1.6,0.55l-1.601,0.65l-1.449,0.85
	l-1.4,0.95l-1.3,1.2l-1.3,1.2l-1.051,1.3l-0.899,1.35l-0.7,1.45l-0.6,1.45l-0.4,1.55l-0.25,1.601l-0.05,1.75l0.05,1.649l0.25,1.601
	l0.15,0.75l0.25,0.8l0.6,1.5l0.7,1.399l0.899,1.4l1.051,1.3l1.3,1.3l1.3,1.101l1.4,1l1.449,0.8l1.601,0.7l1.6,0.5l1.7,0.399
	l1.75,0.2L41.3,143l1.801-0.101l0.85-0.1l0.9-0.101l0.8-0.199l0.85-0.2l0.8-0.25l0.4-0.15l0.45-0.1l1.5-0.7l1.5-0.8l1.399-1
	l1.4-1.101l1.3-1.399l1.2-1.4l-0.5,0.9l-0.55,0.899l-0.9,1.2l-0.5,0.55l-0.45,0.601l-0.55,0.5l-0.5,0.55l-1.1,1l-0.65,0.4
	l-0.6,0.449l-1.3,0.801l-1.4,0.649l-0.75,0.3L46,144.55l0.15,0.1l0.35,0.05l0.101-0.05h0.149h0.3l0.601-0.05l1.2-0.25l1.1-0.4
	l0.1-0.1l0.051-0.05h0.1l0.3-0.101l0.601-0.25l0.5-0.399l0.25-0.2l0.3-0.15l0.5-0.449l0.55-0.4l0.45-0.5l0.5-0.5l1-1.1l0.7-1.101
	l0.649-1.1l0.25-0.601l0.3-0.55l0.25-0.6l0.301-0.55L58,134l0.351-1.2l0.1-0.65l0.15-0.6l0.199-1.25l0.301-1.9l0.1-1.899l-0.1-1.75
	l-0.25-1.601l-0.45-1.55l-0.55-1.45l-0.75-1.45l-0.9-1.35l-1.05-1.3l-1.2-1.2l-1.4-1.2l-1.399-0.95l-1.5-0.85l-1.5-0.65l-1.65-0.55
	l-1.649-0.35l-1.75-0.25L41.3,110L41.3,110z M29.55,115.85l1.2-1.05l1.3-0.9l1.301-0.75l1.449-0.6l1.45-0.5l1.55-0.3l1.601-0.2
	l1.7-0.05l1.6,0.05l1.6,0.2l0.75,0.1l0.801,0.2l1.5,0.5l1.399,0.6l1.351,0.75l1.3,0.9l1.25,1.05l1.1,1.05l1,1.2l0.8,1.2l0.7,1.3
	l0.5,1.3l0.4,1.4l0.2,1.45l0.1,1.55L57.4,127l-0.05,0.05v0.1v0.2v0.4l-0.101,0.699l-0.1,0.75l-0.4,1.4l-0.149,0.3L56.5,131.25
	l-0.25,0.699l-0.35,0.601l-0.2,0.3l-0.1,0.15l-0.051,0.199L55.15,133.8l-0.4,0.649l-1,1.2l-0.3,0.25l-0.25,0.3l-0.55,0.601L52.3,137
	l-0.3,0.25l-0.6,0.5l-1.3,0.899L49.4,139l-0.2,0.05l-0.15,0.1l-0.3,0.2L47.351,140l-1.5,0.449l-0.801,0.15l-0.75,0.2l-1.6,0.2
	l-1.6,0.1l-1.7-0.1l-1.601-0.2l-1.55-0.351L34.8,140l-1.449-0.65l-1.301-0.7l-1.3-0.899l-1.2-0.95l-1.149-1.15l-0.95-1.2l-0.85-1.25
	l-0.65-1.25l-0.55-1.35l-0.351-1.4l-0.25-1.449l-0.05-1.45l0.05-1.55l0.25-1.45l0.351-1.4l0.55-1.3l0.65-1.3l0.85-1.2l0.95-1.2
	L29.55,115.85L29.55,115.85z"/>
<path fill-rule="evenodd" fill="#FFFFFF" d="M41.101,111.5l-1.7,0.05l-1.601,0.2l-1.55,0.3l-1.45,0.5l-1.449,0.6l-1.301,0.75
	l-1.3,0.9l-1.2,1.05l-1.149,1.05l-0.95,1.2l-0.85,1.2l-0.65,1.3l-0.55,1.3l-0.351,1.4l-0.25,1.45l-0.05,1.55l0.05,1.45l0.25,1.449
	l0.351,1.4l0.55,1.35l0.65,1.25l0.85,1.25l0.95,1.2l1.149,1.15l1.2,0.95l1.3,0.899l1.301,0.7L34.8,140l1.45,0.449l1.55,0.351
	L39.4,141l1.7,0.1l1.6-0.1l1.6-0.2l0.75-0.2l0.801-0.15l1.5-0.449l1.399-0.65l0.3-0.2l0.15-0.1l0.2-0.05l0.7-0.351l1.3-0.899
	l0.6-0.5l0.3-0.25l0.351-0.2l0.55-0.601l0.25-0.3l0.3-0.25l1-1.2l0.4-0.649l0.399-0.601L55.601,133l0.1-0.15l0.2-0.3l0.35-0.601
	l0.25-0.699l0.101-0.351l0.149-0.3l0.4-1.4l0.1-0.75l0.101-0.699v-0.4v-0.2v-0.1L57.4,127l0.05-0.7l-0.1-1.55l-0.2-1.45l-0.4-1.4
	l-0.5-1.3l-0.7-1.3l-0.8-1.2l-1-1.2l-1.1-1.05l-1.25-1.05l-1.3-0.9l-1.351-0.75l-1.399-0.6l-1.5-0.5l-0.801-0.2l-0.75-0.1l-1.6-0.2
	L41.101,111.5L41.101,111.5z M38.95,114.25l0.75,0.35l0.35,0.2l0.351,0.3l0.55,0.65l0.5,0.75l0.3,0.649l0.351,0.75l0.149,0.55
	l0.05,0.65l-0.05,0.65l-0.1,0.699l-0.101,0.101H42v0.05v0.1L41.9,121l-0.2,0.6l-0.3,0.55l-0.25,0.601l-0.351,0.5l-0.199,0.25
	l-0.15,0.3l-0.75,1l-0.7,0.6L38.3,126l-0.399,0.25l-0.351,0.3l-0.399,0.25l-0.351,0.3l-0.85,0.4l-0.85,0.399l-0.9,0.351h-0.15
	l-0.1,0.05l-0.2,0.1l-0.399,0.2l-0.95,0.3L31.351,129l-1-0.101l-0.95-0.3l-0.9-0.5l-0.45-0.45l-0.25-0.399l-0.5-1.101l-0.199-0.55
	l-0.051-0.5l0.45,0.05l0.3-0.05l0.4-0.1l0.3-0.2l0.4-0.25l0.3-0.351l0.3-0.399l0.25-0.55l0.2-0.45l0.15-0.45l0.05-0.35l-0.05-0.45
	l-0.051-0.351l-0.149-0.3l-0.15-0.2L29.5,120.5l-0.25-0.101l-0.35-0.1H28.55l-0.699,0.05l0.25-0.65L28.45,119l0.45-0.601l1-1.05
	l1.149-1.1l1.351-0.95l0.7-0.45l0.8-0.35l0.8-0.25l0.85-0.15l0.801-0.15L37.2,114L38.95,114.25L38.95,114.25z"/>
<polygon fill-rule="evenodd" fill="#98CA3C" points="33.3,115.8 34.3,115.35 34.75,115.199 35.25,115.149 36.101,115.1 36.9,115.3 
	37.25,115.399 37.601,115.6 37.851,115.85 38.101,116.199 38.25,116.5 38.4,116.949 38.45,117.399 38.5,117.949 38.45,118.3 
	38.351,118.699 38.05,119.649 37.45,120.699 37.101,121.3 36.75,122 36.55,122.149 36.4,122.35 36.101,122.75 35.9,122.899 
	35.75,123.1 35.45,123.5 34.75,124.1 34.55,124.199 34.45,124.25 34.4,124.35 34.101,124.649 33.7,124.8 33.351,125 32.95,125.149 
	32.75,125.199 32.601,125.3 31.8,125.449 31,125.55 30.351,125.449 29.8,125.3 29.3,124.949 28.9,124.55 28.5,124.8 28.2,125 
	27.8,125.1 27.5,125.149 27.05,125.1 27.101,125.6 27.3,126.149 27.8,127.25 28.05,127.649 28.5,128.1 29.4,128.6 30.351,128.899 
	31.351,129 32.4,128.899 33.351,128.6 33.75,128.399 33.95,128.3 34.05,128.25 34.2,128.25 35.101,127.899 35.95,127.5 36.8,127.1 
	37.15,126.8 37.55,126.55 37.9,126.25 38.3,126 39,125.399 39.7,124.8 40.45,123.8 40.601,123.5 40.8,123.25 41.15,122.75 
	41.4,122.149 41.7,121.6 41.9,121 42,120.699 42,120.6 42,120.55 42.05,120.55 42.15,120.449 42.25,119.75 42.3,119.1 
	42.25,118.449 42.101,117.899 41.75,117.149 41.45,116.5 40.95,115.75 40.4,115.1 40.05,114.8 39.7,114.6 38.95,114.25 37.2,114 
	36.351,113.949 35.55,114.1 34.7,114.25 33.9,114.5 33.101,114.85 32.4,115.3 31.05,116.25 29.9,117.35 28.9,118.399 28.45,119 
	28.101,119.699 27.851,120.35 28.55,120.3 29.2,118.949 29.65,118.3 30.25,117.75 31.601,116.699 32.351,116.199 33.3,115.8 "/>
<path fill-rule="evenodd" fill="#010101" d="M36.9,115.3l-0.8-0.2l-0.851,0.05l-0.5,0.05l-0.45,0.15l-1,0.45l-0.949,0.399l-0.75,0.5
	l-1.351,1.051l-0.6,0.55l-0.45,0.649l-0.65,1.351H28.9l0.35,0.1l0.25,0.101l0.25,0.199l0.15,0.2l0.149,0.3l0.051,0.351l0.05,0.45
	l-0.05,0.35l-0.15,0.45l-0.2,0.45l-0.25,0.55l-0.3,0.399l-0.3,0.351l0.399,0.399l0.5,0.351l0.551,0.149L31,125.55l0.8-0.101
	l0.801-0.149l0.149-0.101l0.2-0.05l0.4-0.149l0.35-0.2l0.4-0.15l0.3-0.3l0.05-0.1l0.1-0.051l0.2-0.1l0.7-0.6l0.3-0.4l0.15-0.2
	l0.2-0.149l0.3-0.4l0.149-0.2l0.2-0.149l0.351-0.7l0.35-0.601l0.6-1.05l0.301-0.95l0.1-0.399l0.05-0.351l-0.05-0.55l-0.05-0.45
	l-0.15-0.449l-0.149-0.301l-0.25-0.35l-0.25-0.25l-0.351-0.2L36.9,115.3L36.9,115.3z M36.55,118.199l-0.05,0.2l-0.149,0.2l-0.25,0.2
	l-0.25,0.2l-0.551,0.25l-0.199,0.05L35,119.35l-0.399-0.05l-0.25-0.101l-0.25-0.149L34,118.85l-0.1-0.4v-0.1l0.05-0.55l0.25-0.351
	l0.4-0.3L35.25,117l0.25-0.101h0.3l0.2,0.05l0.2,0.15l0.1,0.15l0.15,0.25l0.05,0.3L36.55,118.199L36.55,118.199z"/>
<polygon fill-rule="evenodd" fill="#FFFFFF" points="35.851,119 36.101,118.8 36.351,118.6 36.5,118.399 36.55,118.199 36.5,117.8 
	36.45,117.5 36.3,117.25 36.2,117.1 36,116.949 35.8,116.899 35.5,116.899 35.25,117 34.601,117.149 34.2,117.449 33.95,117.8 
	33.9,118.35 33.9,118.449 34,118.85 34.101,119.05 34.351,119.199 34.601,119.3 35,119.35 35.101,119.3 35.3,119.25 35.851,119 "/>
<polygon fill-rule="evenodd" fill="#CB6928" points="40.9,97.5 39.3,97.6 37.851,97.8 36.4,98.05 35.101,98.399 33.8,98.75 
	32.601,99.199 31.45,99.649 30.45,100.199 29.55,100.6 28.7,101.149 27.8,101.75 26.95,102.449 25.15,104 24.25,104.85 23.4,105.85 
	25.25,104.6 27.15,103.55 29.05,102.6 31,101.8 32.9,101.1 34.851,100.6 36.851,100.199 38.851,99.949 40.7,99.75 42.55,99.699 
	44.2,99.649 45.851,99.75 47.3,99.85 48.7,100.1 49.95,100.399 51.101,100.85 52.15,101.25 53.101,101.649 53.95,102.05 54.8,102.5 
	54.9,102.449 55.05,102.449 55.15,102.399 55.3,102.399 55.5,102.3 55.7,102.25 55.8,102.1 55.9,101.949 55.95,101.75 
	55.95,101.649 55.95,101.6 56,101.6 55.9,101 55.7,100.449 55.3,99.949 54.8,99.5 54.101,99.05 53.3,98.649 52.351,98.3 51.3,98 
	50.101,97.699 48.95,97.5 47.7,97.35 46.45,97.3 45.101,97.25 43.75,97.3 42.3,97.35 40.9,97.5 "/>
<polygon fill-rule="evenodd" fill="#010101" points="59.15,147.25 59.25,147.05 59.25,146.85 59.3,146.649 59.25,146.449 
	59.15,146.35 59.101,146.3 58.851,146.1 58.601,145.899 57.851,145.5 57.3,145.399 56.65,145.449 56.15,145.699 55.7,146.05 
	55.351,146.6 55.101,147 55,147.5 54.9,148.55 54.95,149.1 55.101,149.699 55.4,150.199 55.851,150.8 56.25,151.199 56.8,151.55 
	57.351,151.85 58.05,152.149 58.75,152.35 59.55,152.5 60.4,152.6 61.4,152.649 61.55,152.6 61.8,152.6 62.101,152.55 62.55,152.55 
	62.95,152.449 63.5,152.399 64.05,152.3 64.75,152.25 65.4,152.1 66.2,152 67,151.85 67.95,151.75 69.9,151.449 72.15,151.149 
	74.4,150.75 76.65,150.449 78.8,150.149 80.95,149.949 83,149.75 85,149.649 88.8,149.6 90.8,149.6 92.75,149.6 94.65,149.6 
	96.5,149.649 100,149.75 101.65,149.8 103.25,149.899 104.75,149.949 106.2,150.05 107.601,150.149 108.95,150.25 111.45,150.5 
	112.601,150.649 113.7,150.85 115.75,151.149 117.7,151.449 119.55,151.75 120.45,151.899 121.4,152.1 121.9,152.05 122.4,151.949 
	122.9,151.8 123.4,151.6 123.851,151.3 124.351,150.949 124.75,150.55 125.25,150.1 125.851,149.25 126.3,148.55 126.55,147.85 
	126.65,147.25 126.601,146.85 126.5,146.55 126.2,145.85 126,145.6 125.851,145.449 125.55,145.25 125.2,145.199 124.851,145.35 
	124.75,145.6 124.75,145.8 124.8,146.1 125,146.55 125.05,146.75 125.15,146.949 125.15,147 125.2,147.1 125.25,147.3 
	125.15,147.649 124.95,148.1 124.55,148.6 124.101,149.25 123.4,149.85 122.7,150.3 122,150.6 121.8,150.6 121.7,150.6 
	121.65,150.6 121.65,150.649 121.351,150.699 120.45,150.5 120,150.399 119.601,150.35 117.8,150.05 115.8,149.75 113.75,149.449 
	111.45,149.1 108.95,148.85 106.15,148.649 104.7,148.55 103.2,148.5 99.9,148.35 98.2,148.25 96.45,148.25 94.601,148.199 
	92.7,148.199 88.8,148.199 86.95,148.199 85.05,148.3 83.101,148.399 81.05,148.6 78.9,148.8 76.7,149.1 74.45,149.399 
	72.101,149.8 69.8,150.1 68.75,150.25 67.8,150.449 66.851,150.55 66.05,150.699 65.25,150.8 64.601,150.949 63.9,151 63.351,151.1 
	62.8,151.149 62.4,151.25 62,151.25 61.7,151.3 61.45,151.3 61.351,151.35 60,151.3 59.4,151.199 58.9,151.149 57.95,150.899 
	57.25,150.6 56.601,150.149 56.2,149.649 55.95,149.05 55.9,148.399 55.95,147.85 56.2,147.35 56.4,146.899 56.75,146.6 
	57.101,146.399 57.55,146.35 57.9,146.449 58.101,146.6 58.4,146.85 58.65,147.1 59,147.5 59.15,147.25 "/>
<polygon fill-rule="evenodd" fill="#010101" points="39.2,144.85 39.2,144.8 39.25,144.8 39.351,144.8 39.55,144.8 39.851,144.8 
	40.101,144.699 40.3,144.699 38.25,144.05 37.3,143.75 36.55,143.55 35.101,143.1 34.05,142.8 33.9,142.85 34.25,143.149 
	34.8,143.5 35.351,143.8 36.101,144.149 36.9,144.399 37.7,144.649 37.851,144.649 38.05,144.699 38.45,144.8 38.8,144.8 
	39.2,144.85 "/>
<polygon fill-rule="evenodd" fill="#010101" points="127.05,122.6 126.9,122.6 126.9,123.5 126.9,123.55 127,123.8 127.25,124.55 
	127.3,124.949 127.4,125.3 127.4,125.399 127.4,125.449 127.45,125.55 127.45,125.649 127.45,125.699 127.5,125.8 127.45,125.949 
	127.4,126.3 127.3,126.649 127.25,127.149 127.101,127.55 127,127.899 126.9,128.149 126.9,128.3 126.9,129.5 127.05,129.5 
	127.05,129.149 127.15,128.8 127.25,128.25 127.4,127.699 127.5,127.1 127.601,126.6 127.65,126.149 127.7,125.8 127.65,125.699 
	127.65,125.649 127.65,125.449 127.55,125.199 127.5,125 127.5,124.85 127.4,124.399 127.3,123.85 127.15,123.25 127.05,122.6 "/>
<polygon fill-rule="evenodd" fill="#010101" points="124.05,120.149 123.851,120.199 124.55,121.55 125.15,123.05 125.45,124.6 
	125.55,125.399 125.601,126.25 125.55,126.6 125.45,127.149 125.3,127.699 125.101,128.449 124.8,129.199 124.45,130.149 
	124.05,131.1 123.601,132.25 123.601,132.399 123.601,132.55 123.7,132.5 123.8,132.35 123.95,132.25 124.25,132.05 124.75,131.449 
	125.15,130.649 125.55,129.649 125.851,127.949 125.95,127.1 126,126.3 125.95,125.399 125.851,124.55 125.7,123.699 125.5,122.949 
	125.2,122.199 124.851,121.5 124.05,120.149 "/>
<path fill-rule="evenodd" fill="#010101" d="M124.5,126.899l-0.05-1.05l-0.15-0.95l-0.25-0.95l-0.35-0.85l-0.45-0.85l-0.55-0.801
	l-0.65-0.8l-0.699-0.7l-0.851-0.75l-0.8-0.55l-0.9-0.55l-0.899-0.35l-1-0.351l-1-0.2l-1.05-0.149H113.8l-2.149,0.149l-1.95,0.551
	l-0.95,0.35l-0.899,0.55l-0.851,0.55l-0.75,0.75l-0.75,0.7l-0.649,0.8l-0.551,0.801l-0.449,0.85l-0.351,0.85l-0.25,0.95l-0.149,0.95
	v1.05l0.1,1.4l0.1,0.649l0.2,0.7l0.2,0.601l0.3,0.649l0.3,0.601l0.4,0.649l0.5,1.2l0.7,1.5l0.85,1.3l0.851,1.101l1.05,1l1.05,0.699
	l1.2,0.5l1.25,0.301l0.649,0.1l0.7,0.05l0.601-0.05l-0.051-0.1l-0.8-0.351l-0.7-0.3l-1.35-0.65l-1.25-0.75l-0.6-0.399l-0.5-0.351
	L108.3,136.5l-0.449-0.4L107,135.25l-0.7-0.9l-0.55-0.95l0.5,0.5l0.75,0.65l0.851,0.6l0.899,0.45l0.95,0.45l0.95,0.3l1,0.25
	l1.05,0.15l1.1,0.05l0.5-0.05h0.551l0.5-0.101l0.1-0.05h0.15h0.3l1-0.25l1-0.3l0.899-0.45l0.9-0.45l0.8-0.6l0.4-0.351l0.45-0.3
	l0.699-0.8l0.301-0.4l0.149-0.199l0.2-0.15l0.1-0.25l0.15-0.2l0.3-0.399l0.45-0.801l0.15-0.5l0.199-0.449l0.25-0.9l0.15-1v-0.5
	v-0.25L124.5,126.899L124.5,126.899z M120.601,120.55l0.649,0.649l0.55,0.7l0.45,0.7l0.45,0.8l0.3,0.75l0.25,0.851l0.15,0.85
	l0.05,0.95l-0.05,0.399v0.45l-0.15,0.9l-0.25,0.8l-0.3,0.85l-0.1,0.051l-0.051,0.1l-0.1,0.2l-0.2,0.399l-0.1,0.051l-0.05,0.1
	L122,131.3l-0.2,0.399l-0.55,0.7l-0.649,0.7l-0.801,0.55l-0.75,0.5l-0.449,0.2l-0.4,0.25l-0.8,0.4l-0.9,0.25l-0.899,0.199
	l-0.5,0.051l-0.45,0.1h-0.5h-0.25l-0.2,0.05l-1.05-0.05l-0.95-0.15l-0.95-0.199L109.9,135l-0.851-0.4l-0.8-0.45l-0.75-0.5l-0.7-0.55
	l-0.75-0.7l-0.55-0.649L105,131l-0.35-0.7l-0.3-1.55L104.2,128l-0.1-0.65l-0.15-1.05l0.05-0.851l0.15-0.8l0.2-0.8l0.35-0.7
	l0.85-1.35l1.25-1.25l1.45-1.15l0.8-0.45l0.851-0.35l0.85-0.35l0.95-0.15l0.95-0.15h1.05h0.95l0.95,0.15l0.899,0.15l0.9,0.35
	l0.8,0.35l0.85,0.45l0.75,0.5L120.601,120.55L120.601,120.55z"/>
<path fill-rule="evenodd" fill="#FFFFFF" d="M123.45,126.8l-0.05-0.95l-0.15-0.85l-0.25-0.851l-0.3-0.75l-0.45-0.8l-0.45-0.7
	l-0.55-0.7l-0.649-0.649l-0.801-0.65l-0.75-0.5l-0.85-0.45l-0.8-0.35l-0.9-0.35l-0.899-0.15l-0.95-0.15h-0.95h-1.05l-0.95,0.15
	l-0.95,0.15l-0.85,0.35l-0.851,0.35l-0.8,0.45l-1.45,1.15l-1.25,1.25l-0.85,1.35l-0.35,0.7l-0.2,0.8l-0.15,0.8l-0.05,0.851
	l0.15,1.05l0.1,0.65l0.15,0.75l0.3,1.55L105,131l0.5,0.75l0.55,0.649l0.75,0.7l0.7,0.55l0.75,0.5l0.8,0.45l0.851,0.4l0.85,0.25
	l0.95,0.199l0.95,0.15l1.05,0.05l0.2-0.05h0.25h0.5l0.45-0.1l0.5-0.051l0.899-0.199l0.9-0.25l0.8-0.4l0.4-0.25l0.449-0.2l0.75-0.5
	l0.801-0.55l0.649-0.7l0.55-0.7l0.2-0.399l0.101-0.2l0.05-0.1l0.1-0.051l0.2-0.399l0.1-0.2l0.051-0.1l0.1-0.051l0.3-0.85l0.25-0.8
	l0.15-0.9v-0.45L123.45,126.8L123.45,126.8z M119.05,121.8l-0.1,0.3l-0.3,0.4l-0.351,0.25l-0.3,0.1l-0.35-0.1l-0.25-0.301L117.3,122
	l0.051-0.4l0.3-0.25l0.2-0.15h0.3l0.75,0.101l0.1,0.1v0.15L119.05,121.8L119.05,121.8z"/>
<polygon fill-rule="evenodd" fill="#010101" points="118.65,122.5 118.95,122.1 119.05,121.8 119,121.55 119,121.399 118.9,121.3 
	118.15,121.199 117.851,121.199 117.65,121.35 117.351,121.6 117.3,122 117.4,122.449 117.65,122.75 118,122.85 118.3,122.75 
	118.65,122.5 "/>
<polygon fill-rule="evenodd" fill="#CB6928" points="105.101,119.3 104.601,119.1 104.101,119.3 103.601,119.85 103.3,120.199 
	103.05,120.699 102.45,121.85 102.101,122.399 101.851,122.949 101.5,123.949 101.25,124.75 101.2,125.399 101.25,126.1 
	101.4,127.1 101.5,126.85 101.7,125.6 101.9,124.6 102.101,123.699 102.3,123 102.7,121.85 103.3,120.899 104.101,120.05 
	105.101,119.3 "/>
</svg>
