<?xml version="1.0" encoding="utf-8"?>
<!-- Generator: Adobe Illustrator 13.0.0, SVG Export Plug-In . SVG Version: 6.00 Build 14948)  -->
<svg version="1.2" baseProfile="tiny" id="Layer_1" xmlns="http://www.w3.org/2000/svg" xmlns:xlink="http://www.w3.org/1999/xlink"
	 x="0px" y="0px" width="172.115px" height="232.068px" viewBox="0 0 172.115 232.068" xml:space="preserve">
<g>
	<path fill="#F0CB74" d="M155.701,201.654c0,4.611-13.834,15.646-26.58,21.969c-12.072,4.611-31.554,5.233-48.6,5.233
		c-23.471,0-44.041-3.059-55.439-7.617c-5.958-2.383-22.694-18.03-22.694-21.035c0-8.757,41.865-10.881,77.667-10.881
		C115.856,189.323,155.701,192.95,155.701,201.654L155.701,201.654z"/>
	<path fill="#946D39" d="M135.08,218.494c0,7.46-24.87,13.574-55.543,13.574s-55.543-6.114-55.543-13.574
		c0-7.514,24.87-13.575,55.543-13.575S135.08,210.98,135.08,218.494L135.08,218.494z"/>
	<path fill="#F7EDC4" d="M149.535,145.334c-1.14,0-5.958,4.197-7.046,4.404c6.787,1.14,22.228,5.078,19.947,19.223
		c-1.813,10.881-27.149,15.544-40.621,28.237c1.192,1.606,4.302,6.166,8.084,6.166c12.953-15.077,40.207-15.958,41.968-31.968
		C173.835,153.106,163.888,145.334,149.535,145.334L149.535,145.334z"/>
	<path fill="#F7EDC4" d="M78.863,223.313h-0.155h-0.363H78.19c-10.57,0.052-14.197,0.568-22.176-2.178
		c-11.761-4.093-5.907-8.496-14.507-14.352C-1.29,186.058,0.005,139.583,0.005,139.583H78.19h0.673h78.859
		c0,0,1.295,46.477-41.865,67.201c-8.703,5.854-2.797,10.259-14.61,14.352C93.163,223.882,89.536,223.364,78.863,223.313
		L78.863,223.313z"/>
	<path fill="#F8F2CF" d="M158.706,139.583c0,10.727-35.543,19.378-79.376,19.378s-79.325-8.651-79.325-19.378
		c0-10.673,35.492-19.378,79.325-19.378S158.706,128.91,158.706,139.583L158.706,139.583z"/>
	<path fill="#D7C885" d="M150.364,139.583c0,9.586-31.762,17.357-71.035,17.357c-39.222,0-71.035-7.771-71.035-17.357
		c0-9.585,31.813-17.356,71.035-17.356C118.604,122.226,150.364,129.998,150.364,139.583L150.364,139.583z"/>
	<path fill="#422C2A" d="M142.385,142.226c0,6.942-28.29,12.538-63.16,12.538c-34.87,0-63.159-5.596-63.159-12.538
		c0-6.892,28.29-12.486,63.159-12.486C114.097,129.739,142.385,135.335,142.385,142.226L142.385,142.226z"/>
	<path fill="#CCD0DA" d="M97.567,22.228c0,0-22.176,7.461-6.943,40.259c10.518,22.59,1.398,62.745,1.398,62.745
		s12.436-33.73,1.399-66.477C82.334,25.958,97.567,22.228,97.567,22.228L97.567,22.228z"/>
	<path fill="#CCD0DA" d="M72.49,0c0,0,15.129,12.901,8.134,35.336c-4.715,15.026,0.726,35.182,7.15,45.077
		c-5.907-6.425-16.01-23.574-10.104-45.077C85.029,10.881,72.49,0,72.49,0L72.49,0z"/>
	<path fill="#F8F1CB" d="M28.864,159.79c3.42,24.715,23.368,40.673,50.362,43.16c-3.212,0.518,10.777,0.259-14.715,0.776
		c-25.492,0.569-55.128-21.762-56.372-53.781C14.616,153.572,23.579,159.79,28.864,159.79L28.864,159.79z"/>
	<path fill="#FFFFFF" d="M23.372,159.894c2.746,21.14,16.269,37.927,48.289,42.849c-31.917,0.726-54.455-20.932-59.17-48.755
		C15.755,155.438,19.123,158.702,23.372,159.894L23.372,159.894z"/>
	<path fill="#EBCD8A" d="M135.338,154.868c-3.212,24.662-21.657,46.113-47.252,48.6c25.388,4.249,62.228-24.093,64.61-55.49
		C146.53,151.552,140.364,154.868,135.338,154.868L135.338,154.868z"/>
	<path fill="#694236" d="M120.054,149.945c10.414-1.917,16.891-4.663,16.891-7.72c0-5.751-23.678-10.467-52.899-10.467
		c-18.808,0-35.336,1.97-44.714,4.87c9.43-1.71,22.124-2.798,36.01-2.798c29.223,0,52.9,4.715,52.9,10.466
		C128.24,146.371,125.235,148.287,120.054,149.945L120.054,149.945z"/>
	<path fill="#E1C482" d="M112.229,208.805c-13.16,13.627-48.547,15.439-66.216,0C65.444,215.592,92.696,213.52,112.229,208.805
		L112.229,208.805z"/>
	<path fill="#F7EDC4" d="M155.701,202.173c0,4.561-13.834,15.597-26.58,21.97c-12.072,4.609-31.554,5.231-48.6,5.231
		c-23.471,0-44.041-3.057-55.439-7.616c-5.958-2.384-22.694-18.083-22.694-21.088c0-0.673,0.259-1.347,0.726-1.969
		c8.497,12.487,43.833,16.58,78.496,16.58c32.228,1.036,61.398-6.063,73.729-14.611
		C155.597,201.136,155.701,201.654,155.701,202.173L155.701,202.173z"/>
	<path fill="#CCD0DA" d="M68.552,145.904c0,0,20-5.803,6.891-38.445c-8.756-21.916-3.834-50.517-0.363-52.484
		c-6.425,3.419-13.419,24.766-2.383,56.061C83.733,142.33,68.552,145.904,68.552,145.904L68.552,145.904z"/>
</g>
</svg>
