<?xml version="1.0" encoding="utf-8"?>
<!-- Generator: Adobe Illustrator 13.0.0, SVG Export Plug-In . SVG Version: 6.00 Build 14948)  -->
<svg version="1.2" baseProfile="tiny" xmlns="http://www.w3.org/2000/svg" xmlns:xlink="http://www.w3.org/1999/xlink" x="0px"
	 y="0px" width="51.688px" height="164.623px" viewBox="0 0 51.688 164.623" xml:space="preserve">
<g id="Layer_1">
	<g>
		<path fill="#7F7673" d="M19.549,160.085c0,0-1.211,4.805,9.002,4.224c0,0,7.212,0.016,7.221-4.493l-4.796-6.018l0.069-34.849
			c0,0,0.906-1.5-1.193-3.309l0.005-3.002c0,0,0.001-1.203-1.199-1.504l-0.442-80.215c0,0,1.47,4.175,5.675,3.583
			c0,0,6.937,0.047,6.957-11.67l-1.5-0.905c0,0,1.017,10.83-4.995,11.42c0,0-6.446,1.777-5.833-5.734c0,0,5.712-3.748,3.293-4.658
			c-0.472-0.177-1.085,0.26-1.386,1.463c0,0-1.562,2.087-2.463,2.386l-0.309-10.7l1.386-0.77l-2.591-3.346l-0.642-6.353
			l-0.559,6.349l-1.442,1.887l-0.969,1.714l1.507,0.441l-0.625,8.873c0,0-0.907,2.403-2.404,0.296c0,0-3.004-0.006-1.206,2.102
			c0,0,4.508-0.893,3.297,3.009c0,0-1.975,9.427-7.684,8.813c0,0-4.463-1.531-3.849-7.236l0.077-2.617l-1.46-0.188
			c0,0-0.772,10.271,5.309,10.656c3.175,0.201,7.29-1.317,8.208-9.726l0.742,80.816c0,0-1.501,1.196-1.205,3.603l-0.005,2.102
			c0,0-1.203,0.298-1.208,2.401c-0.003,2.103,0.233,34.849,0.233,34.849l-0.306,1.503L19.549,160.085z"/>
		<path fill="#FFEDE6" d="M51.688,11.138c-0.015,6.138-4.999,11.105-11.139,11.094c-6.141-0.013-11.107-5-11.095-11.138
			C29.464,4.954,34.454-0.014,40.595,0C46.732,0.01,51.699,4.998,51.688,11.138z"/>
		<circle fill="#FFE8DF" cx="11.115" cy="18.268" r="11.115"/>
		<path fill="#665E5C" d="M35.445,21.019c0,0,0.09,2.398,4.296,2.708c0,0,4.079,0.462,5.315-2.389
			C45.057,21.337,39.646,23.431,35.445,21.019z"/>
		<path fill="#665E5C" d="M6.289,28.174c0,0,0.765,2.555,4.971,2.865c0,0,3.134-0.148,4.642-2.548
			C15.901,28.491,10.491,30.583,6.289,28.174z"/>
		<path fill="#4C4745" d="M28.658,111.135c0,0,0.598,1.804-2.407,2.098c0,0,0.297,0.901,3.001,0.907
			C29.252,114.14,32.261,112.041,28.658,111.135z"/>
		<path fill="#4C4745" d="M29.853,115.641c0,0-0.007,2.405-3.911,2.696c0,0,5.406,0.912,5.41-1.791
			C31.352,116.546,30.751,115.943,29.853,115.641z"/>
		<path fill="#4C4745" d="M28.954,112.936l-0.738-82.016l-0.911,4.204l0.147,77.211C27.452,112.335,27.754,112.934,28.954,112.936z"
			/>
		<path fill="#4C4745" d="M31.349,117.747l-0.372,36.051l5.094,6.92c0,0-2.71,4.202-9.019,3.889c0,0,5.409-1.492,3.913-4.8
			l-1.492-3.907l0.072-37.254L31.349,117.747z"/>
		<path fill="#4C4745" d="M27.925,25.81l-0.903,0.899l-0.279-10.816l-0.901-0.002c0,0,1.805-1.497,0.306-3.001l-0.339-6.099
			l0.642,5.198l2.097,3.006l-0.903,0.601L27.925,25.81z"/>
	</g>
</g>
<g id="Layer_2">
	<path fill="#FFFFFF" d="M3.033,18.35c0.008-4.546,2.955-8.345,6.919-9.385c-0.013,0-0.025-0.002-0.038-0.002
		c-4.551-0.01-8.248,3.915-8.257,8.765c-0.006,3.313,1.712,6.198,4.251,7.699C4.138,23.654,3.028,21.142,3.033,18.35z"/>
	<path fill="#FFFFFF" d="M32.278,11.467c0.008-4.546,2.955-8.345,6.919-9.385c-0.013,0-0.024-0.002-0.038-0.002
		c-4.551-0.01-8.248,3.915-8.256,8.765c-0.006,3.313,1.711,6.198,4.25,7.699C33.384,16.771,32.272,14.259,32.278,11.467z"/>
	<path fill="#DBBCAF" d="M49.655,11.306c0.053,4.546-2.843,8.384-6.793,9.478c0.013,0,0.024,0.002,0.038,0.002
		c4.551-0.052,8.195-4.025,8.138-8.875C51,8.598,49.245,5.734,46.686,4.269C48.479,6.018,49.624,8.515,49.655,11.306z"/>
	<path fill="#DBBCAF" d="M20.316,18.458c0.053,4.546-2.843,8.384-6.793,9.478c0.013,0,0.024,0.002,0.038,0.002
		c4.551-0.052,8.195-4.025,8.138-8.875c-0.038-3.312-1.793-6.176-4.353-7.642C19.14,13.17,20.285,15.667,20.316,18.458z"/>
</g>
</svg>
