<?xml version="1.0" encoding="utf-8"?>
<!-- Generator: Adobe Illustrator 13.0.0, SVG Export Plug-In . SVG Version: 6.00 Build 14948)  -->
<svg version="1.2" baseProfile="tiny" id="Layer_1" xmlns="http://www.w3.org/2000/svg" xmlns:xlink="http://www.w3.org/1999/xlink"
	 x="0px" y="0px" width="97.493px" height="87.872px" viewBox="0 0 97.493 87.872" xml:space="preserve">
<g id="Layer_1_1_">
	<path fill="#F8F8F8" stroke="#9E9E9E" stroke-width="0.25" d="M0.419,6.989L26.05,2.591c0,0,0.788-0.717,3.943-0.614l17.646-1.841
		l9.906,40.714l-2.316,1.483l-0.542-1.739l-7.492,3.684l0.394,1.842l-17.201,8.746l-0.592-2.25L18.755,58.19l0.542,2.251
		l-4.14,1.942L0.419,6.989z"/>
	<polygon fill="#B6B6B6" points="0.666,7.246 1.307,7.961 15.822,61.948 15.255,62.204 	"/>
	<polygon fill="#797979" points="15.157,62.383 14.294,62.588 0,7.399 0.419,6.989 	"/>
	<polygon fill="#528E72" stroke="#FFFFFF" stroke-width="0.25" points="47.465,1.951 3.327,9.266 15.699,57.064 56.239,38.062 	"/>
	<path fill="#D8D8D8" d="M14.023,62.613l41.92,21.201l41.55-34.78c0,0,0-0.332-0.344-0.461c-0.348-0.128-22.796-4.399-39.652-6.956
		l-2.269,1.355l-0.642-2.123l-7.195,3.529l0.443,1.97l-17.572,9.334L29.549,53.1l-10.424,5.242l-0.247,0.308l0.419,1.791
		l-4.14,1.942l-0.863,0.205L14.023,62.613z"/>
	<path fill="#C5C5C5" d="M14.023,62.613l0.764,3.529c0,0,0.295,0.614,0.862,0.817c0.567,0.205,38.938,20.768,38.938,20.768
		s0.617,0.436,1.283-0.205c0.664-0.639,40.59-35.445,40.59-35.445s0.912-0.945,1.033-3.043l-41.55,34.78L14.023,62.613z"/>
	<path fill="#8D8D8D" d="M55.943,83.814c0,0,0.394,3.272-1.183,4.017c0,0,0.541,0.203,1.109-0.309
		c0.565-0.512,40.59-35.445,40.59-35.445s0.937-0.945,1.033-3.043L55.943,83.814z"/>
	<path fill="#4D4D4D" d="M79.084,67.243c0,0-0.147-1.023,0.467-1.688c0.617-0.665,3.574-3.248,3.574-3.248s0.345-0.179,0.396,0.052
		c0.048,0.229-0.321,1.277-0.321,1.277L79.084,67.243z"/>
	<polygon fill="#999999" points="53.676,86.09 36.646,77.038 36.622,77.165 53.651,86.245 	"/>
	<polygon fill="#999999" points="54.834,87.65 54.982,87.522 15.92,66.374 15.502,64.174 15.354,64.124 15.772,66.45 	"/>
	<polygon fill="#999999" points="15.354,64.124 54.079,83.747 54.079,83.678 15.337,64.071 	"/>
	<path fill="#999999" d="M54.54,83.917c0,0,0.443,0.289,0.36,0.888c-0.082,0.596-0.36,1.618-0.707,1.567
		c0,0,0.263,0.051,0.394-0.203C54.719,85.913,55.393,84.514,54.54,83.917z"/>
	<path fill="#D9D9D9" stroke="#8B8B8B" stroke-width="0.25" d="M77.77,45.299c0,0,1.544,0.172,0.427,0.955
		c-1.116,0.783-6.177,4.263-6.177,4.263l-2.104,0.375l-30.131,20.05c0,0-1.774,1.262-3.943,0.271
		c-2.168-0.987-17.153-8.284-17.153-8.284s-1.051-0.647,0.197-1.33c1.25-0.683,38.38-19.301,38.38-19.301s0.296-0.307,1.249-0.17
		C59.467,42.266,77.77,45.299,77.77,45.299z"/>
	<path fill="#CCCCCC" stroke="#7E7E7E" stroke-width="0.25" d="M77.409,45.334c0,0,1.25,0.103,0.459,0.647
		c-0.787,0.545-6.209,4.228-6.209,4.228l-2.136,0.443L38.766,70.942c0,0-1.38,0.374-2.76-0.205
		c-1.38-0.578-16.791-8.047-16.791-8.047s-1.052-0.479,0.066-1.057c1.118-0.58,38.216-19.368,38.216-19.368s0.426-0.137,1.248,0.033
		C59.565,42.47,77.409,45.334,77.409,45.334z"/>
	<path fill="#F9F9F9" d="M39.358,70.105c0,0-0.616,0.642-1.578,0.181c-0.961-0.461-14.047-6.445-14.047-6.445
		s-0.542-0.28,0.221-0.766c0.764-0.486,10.646-5.986,10.646-5.986l-1.749-1.148l17.547-9.438l1.873,1.074l7.64-4.554l17.769,3.019
		l-6.259,4.117l-1.973,0.332L39.358,70.105z"/>
	<polygon fill="#9E9E9E" points="32.852,55.939 33.064,55.922 34.741,56.997 34.601,57.088 	"/>
	<path fill="#8B8B8B" d="M38.717,71.413c0,0-1.282,0.639-2.934-0.129c-1.651-0.769-17.238-8.338-17.238-8.338
		S17.904,62.499,18.359,62c0,0-0.257,0.563,0.247,0.869l17.235,8.346C35.841,71.215,37.177,71.896,38.717,71.413z"/>
	<path fill="#FFFFFF" d="M97.493,49.034c0,0,0.01-0.324-0.344-0.461l-41.395,34.73L14.664,62.51l-0.641,0.104l41.92,21.201
		L97.493,49.034z"/>
	<path fill="#D2D2D2" d="M21.449,61.702l5.882-3.139c0,0,0.592-0.094,0.69,0.163c0.099,0.255,0,0.485-0.222,0.64
		c-0.222,0.153-5.446,2.838-5.446,2.838S20.989,62.452,21.449,61.702z"/>
	<path fill="#AAAAAA" d="M21.449,61.702c0,0,0.386,0.502,1.002,0.195c0.616-0.307,5.595-2.941,5.595-2.941s-0.025,0.256-0.247,0.41
		c-0.222,0.152-5.446,2.838-5.446,2.838S20.989,62.426,21.449,61.702z"/>
	<polygon fill="#CCCCCC" points="34.527,55.657 35.291,56.221 36.746,55.375 36.005,54.864 	"/>
	<polygon fill="#CCCCCC" points="40.442,52.383 40.861,52.64 42.881,51.54 42.364,51.258 	"/>
	<polygon fill="#CCCCCC" points="43.744,50.543 44.262,50.875 45.889,49.956 45.396,49.672 	"/>
	<polygon fill="#CCCCCC" points="45.949,49.417 46.467,49.75 48.094,48.829 47.601,48.547 	"/>
	<polygon fill="#FF801F" points="48.193,48.139 48.709,48.472 50.336,47.551 49.844,47.269 	"/>
	<path fill="#E1E1E1" stroke="#B9B9B9" stroke-width="0.25" d="M34.186,51.92c0,0-1.208,0.769-1.183,0
		c0.025-0.768-0.049-0.896,0.665-1.33c0.714-0.434,11.534-5.702,11.534-5.702s0.813-0.255,0.862,0.18s0.025,0.896-0.443,1.149
		C45.153,46.474,34.186,51.92,34.186,51.92z"/>
	<ellipse fill="#1FFF3A" cx="31.594" cy="51.937" rx="0.444" ry="0.55"/>
	<path fill="#989898" d="M31.594,51.387c-0.105,0-0.201,0.048-0.277,0.123c0.054-0.029,0.115-0.047,0.18-0.047
		c0.244,0,0.443,0.246,0.443,0.551c0,0.172-0.066,0.324-0.167,0.425c0.156-0.085,0.264-0.276,0.264-0.502
		C32.038,51.633,31.839,51.387,31.594,51.387z"/>
	<ellipse fill="#C9C9C9" cx="16.105" cy="59.442" rx="0.628" ry="0.768"/>
	<path fill="#A5A5A5" d="M16.093,58.663c-0.178,0-0.338,0.092-0.452,0.236c0.084-0.051,0.179-0.083,0.279-0.083
		c0.348,0,0.629,0.345,0.629,0.767c0,0.207-0.068,0.394-0.177,0.529c0.207-0.126,0.349-0.382,0.349-0.683
		C16.721,59.006,16.44,58.663,16.093,58.663z"/>
	<polygon fill="#989898" points="14.664,62.51 15.765,63.065 20.135,60.833 19.125,58.342 18.877,58.649 19.297,60.44 
		15.157,62.383 	"/>
	<polygon fill="#6D6D6D" points="57.545,40.885 57.118,41.498 55.146,42.759 54.586,40.85 47.392,44.379 47.835,46.349 
		30.263,55.683 29.549,53.1 19.125,58.342 18.877,58.649 18.754,58.189 29.795,52.614 30.387,54.864 47.588,46.118 47.194,44.277 
		54.687,40.594 55.228,42.333 	"/>
	<path fill="#B3B3B3" d="M26.526,3.017c0,0,1.626-0.529,2.464-0.375l-0.083,0.29c0,0-1.839,0.238-2.103,0.426l-0.246-0.29"/>
	<path fill="#9C9C9C" d="M12.975,5.667c0.167,0.351,0.06,0.758-0.237,0.909c-0.297,0.152-0.673-0.01-0.839-0.36
		c-0.166-0.351-0.06-0.758,0.237-0.91C12.434,5.154,12.809,5.315,12.975,5.667z"/>
	<path fill="#CDCDCD" d="M12.97,5.635c0.148,0.315,0.06,0.676-0.197,0.808c-0.258,0.131-0.587-0.018-0.736-0.332
		s-0.062-0.676,0.196-0.807C12.491,5.172,12.82,5.32,12.97,5.635z"/>
	<path fill="#9C9C9C" d="M41.499,1.376c0.136,0.288,0.049,0.623-0.194,0.747c-0.245,0.125-0.553-0.008-0.689-0.295
		c-0.136-0.289-0.05-0.624,0.195-0.748C41.053,0.956,41.362,1.088,41.499,1.376z"/>
	<path fill="#C9C9C9" d="M41.494,1.351c0.123,0.259,0.05,0.555-0.161,0.664C41.121,2.122,40.85,2,40.728,1.741
		c-0.122-0.258-0.05-0.555,0.161-0.663C41.101,0.97,41.371,1.092,41.494,1.351z"/>
	<polygon fill="#C4C4C4" points="15.477,57.857 2.958,9.036 3.327,9.266 15.699,57.064 	"/>
	<polygon fill="#D9D9D9" points="15.699,57.064 56.239,38.062 56.56,38.259 15.477,57.857 	"/>
	<polygon fill="#686868" points="56.239,38.062 47.465,1.951 47.539,1.551 56.56,38.259 	"/>
	<polygon fill="#767676" points="47.539,1.551 47.465,1.951 3.327,9.266 2.958,9.036 	"/>
	<path fill="#E9E9E9" d="M39.333,69.954c0,0-0.444,0.717-1.529,0.205c-1.083-0.513-13.949-6.369-13.949-6.369
		s-0.641-0.229,0.173-0.742c0.813-0.512,10.712-6.051,10.712-6.051l17.531-9.42l7.64-4.554l17.612,2.992l-6.095,4.075l-2.137,0.357
		L39.333,69.954z"/>
	<path fill="none" d="M35.316,69.084"/>
	<g>
		<polygon fill="#B8B8B8" points="73.465,45.351 35.316,69.084 35.168,68.932 73.12,45.249 		"/>
		<polygon fill="#B8B8B8" points="32.309,67.549 69.769,44.687 70.064,44.737 32.703,67.754 		"/>
		<polygon fill="#B8B8B8" points="30.025,66.476 62.081,47.346 62.424,47.448 30.288,66.73 		"/>
		<polygon fill="#B8B8B8" points="27.429,65.401 31.658,62.917 64.249,43.766 64.519,43.791 27.774,65.555 		"/>
		<polygon fill="#B8B8B8" points="25.039,64.225 61.858,43.356 62.104,43.408 25.334,64.377 		"/>
	</g>
	<polygon fill="#B8B8B8" points="34.174,64.191 31.808,62.997 31.512,63.237 33.911,64.361 	"/>
	<polygon fill="#B8B8B8" points="36.983,62.605 34.618,61.413 34.321,61.65 36.721,62.775 	"/>
	<polygon fill="#B8B8B8" points="39.579,61.07 37.213,59.875 36.917,60.116 39.316,61.241 	"/>
	<polygon fill="#B8B8B8" points="42.142,59.502 39.776,58.309 39.481,58.547 41.879,59.672 	"/>
	<polygon fill="#B8B8B8" points="44.542,58.206 42.175,57.013 41.879,57.252 44.278,58.377 	"/>
	<polygon fill="#B8B8B8" points="46.907,56.604 44.542,55.411 44.246,55.648 46.644,56.774 	"/>
	<polygon fill="#B8B8B8" points="49.404,55.138 47.038,53.944 46.742,54.183 49.142,55.308 	"/>
	<polygon fill="#B8B8B8" points="51.803,53.773 49.437,52.579 49.142,52.818 51.54,53.944 	"/>
	<polygon fill="#B8B8B8" points="54.104,52.478 51.737,51.284 51.441,51.523 53.84,52.647 	"/>
	<polygon fill="#B8B8B8" points="56.107,51.215 53.741,50.022 53.446,50.26 55.844,51.387 	"/>
	<polygon fill="#B8B8B8" points="58.245,49.956 55.877,48.76 55.583,49 57.98,50.125 	"/>
	<polygon fill="#B8B8B8" points="60.249,48.76 57.881,47.567 57.584,47.806 59.985,48.931 	"/>
	<polygon fill="#B8B8B8" points="62.483,47.431 60.116,46.237 59.821,46.476 62.219,47.602 	"/>
	<polygon fill="#B8B8B8" points="37.411,64.752 35.044,63.56 34.749,63.799 37.147,64.924 	"/>
	<polygon fill="#B8B8B8" points="40.171,63.151 37.804,61.958 37.509,62.196 39.908,63.323 	"/>
	<polygon fill="#B8B8B8" points="42.635,61.583 40.269,60.389 39.974,60.627 42.373,61.752 	"/>
	<polygon fill="#B8B8B8" points="45.33,60.013 42.964,58.82 42.668,59.059 45.066,60.184 	"/>
	<polygon fill="#B8B8B8" points="50.028,56.978 47.867,55.888 47.597,56.105 49.79,57.133 	"/>
	<polygon fill="#B8B8B8" points="52.426,55.602 50.353,54.556 50.094,54.765 52.196,55.75 	"/>
	<polygon fill="#B8B8B8" points="54.728,54.154 52.654,53.107 52.394,53.316 54.497,54.303 	"/>
	<polygon fill="#B8B8B8" points="57.028,52.79 54.954,51.743 54.695,51.952 56.797,52.939 	"/>
	<polygon fill="#B8B8B8" points="59.129,51.459 57.056,50.413 56.797,50.624 58.9,51.608 	"/>
	<polygon fill="#B8B8B8" points="61.168,50.267 59.094,49.219 58.834,49.43 60.938,50.417 	"/>
	<polygon fill="#B8B8B8" points="63.106,49.01 61.12,48.008 60.872,48.209 62.885,49.154 	"/>
	<polygon fill="#B8B8B8" points="41.715,64.979 39.173,63.696 38.857,63.954 41.432,65.161 	"/>
	<polygon fill="#B8B8B8" points="44.081,63.418 41.656,62.196 41.354,62.44 43.812,63.594 	"/>
	<polygon fill="#B8B8B8" points="46.75,61.745 44.246,60.545 43.941,60.804 46.479,61.93 	"/>
	<polygon fill="#B8B8B8" points="49.446,60.111 46.94,58.913 46.635,59.17 49.173,60.295 	"/>
	<polygon fill="#B8B8B8" points="51.745,58.713 49.241,57.515 48.936,57.772 51.474,58.897 	"/>
	<polygon fill="#B8B8B8" points="54.243,57.178 51.737,55.98 51.433,56.238 53.971,57.362 	"/>
	<polygon fill="#B8B8B8" points="56.642,55.678 54.137,54.48 53.833,54.737 56.37,55.862 	"/>
	<polygon fill="#B8B8B8" points="58.811,54.313 56.306,53.116 56,53.374 58.54,54.499 	"/>
	<polygon fill="#B8B8B8" points="60.847,53.086 58.342,51.889 58.038,52.146 60.577,53.271 	"/>
	<polygon fill="#B8B8B8" points="63.083,51.688 60.577,50.491 60.272,50.747 62.81,51.874 	"/>
	<polygon fill="#B8B8B8" points="65.572,50.086 63.081,49.016 62.772,49.241 65.299,50.249 	"/>
	<polygon fill="#B8B8B8" points="41.627,68.443 38.68,66.924 38.29,67.178 41.283,68.624 	"/>
	<polygon fill="#B8B8B8" points="44.418,66.752 41.471,65.233 41.082,65.489 44.075,66.933 	"/>
	<polygon fill="#B8B8B8" points="47.191,64.853 44.253,63.467 43.866,63.696 46.85,65.012 	"/>
	<polygon fill="#B8B8B8" points="49.704,63.215 46.764,61.833 46.378,62.061 49.362,63.377 	"/>
	<polygon fill="#B8B8B8" points="52.265,61.717 49.327,60.333 48.942,60.561 51.926,61.875 	"/>
	<polygon fill="#B8B8B8" points="61.795,55.613 58.856,54.229 58.47,54.458 61.454,55.773 	"/>
	<polygon fill="#B8B8B8" points="63.977,53.952 61.415,52.851 61.098,53.081 63.696,54.118 	"/>
	<polygon fill="#B8B8B8" points="66.106,52.569 63.543,51.469 63.227,51.702 65.827,52.736 	"/>
	<polygon fill="#B8B8B8" points="68.243,51.206 65.679,50.104 65.363,50.336 67.961,51.372 	"/>
	<polygon fill="#B8B8B8" points="73.65,48.584 73.845,48.439 70.208,47.316 70.008,47.499 	"/>
	<polygon fill="#B8B8B8" points="69.317,50.379 70.015,49.852 71.37,50.083 	"/>
	<polygon fill="#B8B8B8" points="71.182,46.665 71.342,46.547 68.359,45.625 68.195,45.773 	"/>
	<polygon fill="#B8B8B8" points="67.592,46.15 67.842,45.965 63.178,44.525 62.92,44.758 	"/>
	<polygon fill="#B8B8B8" points="30.444,63.799 28.079,62.604 27.783,62.844 30.181,63.969 	"/>
	<polygon fill="#B8B8B8" points="33.303,62.196 30.938,61.002 30.641,61.241 33.041,62.366 	"/>
	<polygon fill="#B8B8B8" points="35.931,60.695 33.566,59.502 33.271,59.741 35.668,60.866 	"/>
	<polygon fill="#B8B8B8" points="38.429,59.229 36.063,58.036 35.768,58.274 38.167,59.399 	"/>
	<polygon fill="#B8B8B8" points="38.611,56.661 38.288,56.881 40.532,57.934 40.795,57.763 	"/>
	<polygon fill="#B8B8B8" points="41.164,55.183 40.839,55.402 43.083,56.456 43.346,56.286 	"/>
	<polygon fill="#B8B8B8" points="43.389,53.922 43.074,54.135 45.258,55.159 45.514,54.993 	"/>
	<polygon fill="#B8B8B8" points="45.886,52.473 45.572,52.687 47.756,53.709 48.012,53.543 	"/>
	<polygon fill="#B8B8B8" points="48.137,51.176 47.839,51.379 49.903,52.347 50.145,52.189 	"/>
	<polygon fill="#B8B8B8" points="50.275,49.982 49.977,50.186 52.04,51.153 52.282,50.997 	"/>
	<polygon fill="#B8B8B8" points="52.508,48.722 52.211,48.922 54.274,49.892 54.518,49.734 	"/>
	<polygon fill="#B8B8B8" points="54.594,47.528 54.314,47.717 56.261,48.631 56.488,48.484 	"/>
	<polygon fill="#B8B8B8" points="56.631,46.334 56.351,46.524 58.297,47.437 58.526,47.29 	"/>
	<polygon fill="#B8B8B8" points="60.476,44.263 60.217,44.515 62.407,45.094 62.618,44.896 	"/>
	<polygon fill="#B8B8B8" points="26.739,61.488 26.739,62.051 28.079,62.604 27.848,62.793 25.876,61.993 	"/>
	<polygon fill="#B8B8B8" points="29.36,60.03 29.36,60.594 30.698,61.147 30.468,61.334 28.497,60.534 	"/>
	<polygon fill="#B8B8B8" points="31.701,58.727 31.701,59.288 33.041,59.842 32.81,60.03 30.838,59.229 	"/>
	<polygon fill="#B8B8B8" points="34.152,57.344 34.152,57.883 35.431,58.413 35.211,58.59 33.328,57.825 	"/>
	<polygon fill="#B8B8B8" points="36.493,56.071 36.493,56.607 37.772,57.137 37.552,57.315 35.668,56.551 	"/>
	<polygon fill="#B8B8B8" points="38.735,54.894 38.735,55.432 40.014,55.959 39.795,56.14 37.911,55.374 	"/>
	<polygon fill="#B8B8B8" points="40.984,53.663 40.934,54.148 41.994,54.788 41.797,54.891 40.319,54.045 	"/>
	<polygon fill="#B8B8B8" points="43.227,52.448 43.177,52.934 44.237,53.573 44.04,53.676 42.561,52.831 	"/>
	<polygon fill="#B8B8B8" points="45.519,51.219 45.47,51.706 46.529,52.346 46.332,52.448 44.853,51.604 	"/>
	<polygon fill="#B8B8B8" points="47.323,50.222 47.279,50.659 48.229,51.232 48.053,51.325 46.726,50.567 	"/>
	<polygon fill="#B8B8B8" points="49.333,49.186 49.288,49.622 50.238,50.195 50.061,50.288 48.734,49.53 	"/>
	<polygon fill="#B8B8B8" points="51.329,48.086 51.288,48.486 52.161,49.013 51.999,49.098 50.78,48.403 	"/>
	<polygon fill="#B8B8B8" points="53.411,46.93 53.37,47.331 54.243,47.856 54.081,47.941 52.863,47.245 	"/>
	<polygon fill="#B8B8B8" points="55.727,45.523 55.687,45.924 56.56,46.45 56.397,46.534 55.179,45.838 	"/>
	<polygon fill="#B8B8B8" points="57.674,44.397 57.633,44.797 58.506,45.325 58.342,45.409 57.125,44.713 	"/>
	<polygon fill="#B8B8B8" points="59.265,43.451 59.224,43.861 60.118,44.401 59.952,44.488 58.704,43.775 	"/>
	<polygon fill="#D2D2D2" points="27.034,70.592 27.034,72.125 36.375,76.987 36.375,75.502 	"/>
	<polygon fill="none" stroke="#FFFFFF" stroke-width="0.25" points="26.296,70.193 25.815,69.941 25.815,71.475 26.296,71.725 	"/>
	<polygon fill="#B5B5B5" points="26.296,70.193 26.115,70.277 26.131,71.506 25.819,71.316 25.815,71.475 26.296,71.725 	"/>
	<path fill="#B8B8B8" d="M71.379,50.176V50.04l-2.137,0.34L38.946,70.105c0,0-0.426,0.241-0.953,0.019
		c-0.525-0.223-14.097-6.479-14.097-6.479s-0.328-0.171-0.114-0.428c0,0-0.575,0.375,0.131,0.699
		c0.707,0.324,13.998,6.412,13.998,6.412s0.707,0.271,1.183-0.035c0.477-0.307,30.356-19.803,30.356-19.803L71.379,50.176z"/>
	<polygon fill="#B8B8B8" points="71.313,50.075 77.441,46.016 77.68,46.042 71.379,50.176 71.215,50.176 	"/>
	<polygon fill="#AFAFAF" points="36.256,75.459 36.256,76.825 27.014,72.017 27.014,72.135 36.354,76.995 36.354,75.512 	"/>
	<polygon fill="#F8F8F8" points="27.121,70.708 36.364,75.567 36.364,75.491 27.023,70.581 27.023,72.114 27.121,72.165 	"/>
	<polygon fill="#B8B8B8" points="47.781,58.491 45.461,57.319 45.166,57.559 47.507,58.657 	"/>
	<polygon fill="#FFFFFF" points="25.605,64.225 27.602,65.094 29.771,63.815 29.993,63.893 27.552,65.325 25.409,64.327 	"/>
	<polygon fill="#FFFFFF" points="28.514,62.563 30.239,63.432 32.506,62.153 32.777,62.282 30.313,63.739 28.292,62.717 	"/>
	<polygon fill="#FFFFFF" points="31.372,60.952 33.123,61.795 35.144,60.645 35.365,60.722 33.098,62.077 31.126,61.079 	"/>
	<polygon fill="#FFFFFF" points="33.985,59.469 35.709,60.312 37.632,59.188 37.829,59.264 35.685,60.542 33.763,59.596 	"/>
	<polygon fill="#FFFFFF" points="36.301,58.165 36.522,58.01 38.15,58.829 40.072,57.754 40.293,57.857 38.199,59.084 	"/>
	<polygon fill="#FFFFFF" points="39.013,56.604 40.615,57.396 42.585,56.247 42.832,56.323 40.59,57.652 38.766,56.706 	"/>
	<polygon fill="#FFFFFF" points="41.576,55.146 43.201,55.939 44.779,54.967 45.025,55.068 43.128,56.168 41.329,55.249 	"/>
	<polygon fill="#FFFFFF" points="43.77,53.868 45.296,54.609 47.269,53.458 47.491,53.586 45.296,54.917 43.547,53.995 	"/>
	<polygon fill="#FFFFFF" points="46.332,52.448 47.786,53.202 49.56,52.206 49.782,52.308 47.835,53.407 46.086,52.588 	"/>
	<polygon fill="#FFFFFF" points="48.574,51.105 50.077,51.821 51.556,50.978 51.829,51.054 50.004,52.103 48.303,51.284 	"/>
	<polygon fill="#FFFFFF" points="50.645,49.956 52.172,50.67 53.799,49.698 53.997,49.775 52.124,50.9 50.472,50.057 	"/>
	<polygon fill="#FFFFFF" points="52.863,48.702 54.292,49.366 55.87,48.472 56.09,48.547 54.292,49.597 52.641,48.829 	"/>
	<polygon fill="#FFFFFF" points="54.982,47.499 56.387,48.189 57.963,47.243 58.136,47.372 56.336,48.395 54.761,47.627 	"/>
	<polygon fill="#FFFFFF" points="57.028,46.297 58.409,46.987 61.786,44.942 62.104,45.043 58.383,47.217 56.831,46.45 	"/>
	<polygon fill="#FFFFFF" points="60.847,44.149 62.473,44.584 64.002,43.714 64.249,43.766 62.45,44.813 60.577,44.303 	"/>
	<polygon fill="#FFFFFF" points="28.185,65.315 30.091,66.065 33.377,64.124 33.739,64.293 30.025,66.51 27.89,65.486 	"/>
	<polyline fill="#FFFFFF" points="30.748,66.51 32.325,67.191 36.499,64.668 36.827,64.805 32.391,67.532 30.485,66.68 
		30.683,66.441 	"/>
	<polygon fill="#FFFFFF" points="33.082,67.532 35.283,68.521 41.066,65.008 41.296,65.111 35.25,68.827 32.818,67.737 	"/>
	<path fill="#FFFFFF" d="M35.808,68.827l2.268,1.024c0,0,0.427,0.237,0.854,0c0.428-0.239,2.07-1.33,2.07-1.33l0.23,0.138
		l-2.07,1.33c0,0-0.591,0.375-1.249,0.102C37.254,69.818,35.513,69,35.513,69"/>
	<path fill="#FFFFFF" d="M25.326,64.055l-1.149-0.512c0,0-0.198-0.272,0.098-0.444c0.295-0.169,1.709-1.022,1.709-1.022
		l-0.107-0.084l-1.848,1.057c0,0-0.707,0.289,0.017,0.699l1.051,0.478L25.326,64.055z"/>
	<polygon fill="#FFFFFF" points="32.292,62.895 33.968,63.815 36.071,62.521 36.466,62.657 34.002,64.124 31.997,63.099 	"/>
	<polygon fill="#FFFFFF" points="35.052,61.258 36.729,62.179 38.701,60.952 39.062,61.122 36.695,62.486 34.725,61.497 	"/>
	<polygon fill="#FFFFFF" points="37.615,59.758 39.358,60.61 41.296,59.383 41.657,59.554 39.358,60.986 37.32,59.894 	"/>
	<polygon fill="#FFFFFF" points="40.179,58.224 41.92,59.11 43.563,58.053 43.892,58.189 41.887,59.383 39.917,58.36 	"/>
	<polygon fill="#FFFFFF" points="42.544,56.827 44.221,57.644 46.061,56.553 46.422,56.655 44.155,58.02 42.175,57.013 	"/>
	<polygon fill="#FFFFFF" points="45.075,55.325 46.75,56.144 48.525,55.053 48.887,55.223 46.685,56.483 44.746,55.563 	"/>
	<polygon fill="#FFFFFF" points="47.539,53.859 49.282,54.747 50.891,53.654 51.252,53.79 49.149,55.086 47.21,54.029 	"/>
	<polyline fill="#FFFFFF" points="49.874,52.495 51.581,53.381 53.224,52.358 53.454,52.495 51.547,53.654 49.609,52.7 
		49.774,52.529 	"/>
	<polygon fill="#F9F9F9" points="52.04,51.153 53.784,52.051 55.261,51.165 55.557,51.232 53.715,52.325 51.844,51.334 	"/>
	<polyline fill="#F9F9F9" points="54.274,49.892 55.918,50.79 57.333,49.87 57.661,50.004 55.853,51.063 53.881,50.108 
		54.176,49.902 	"/>
	<polygon fill="#FFFFFF" points="56.261,48.631 57.963,49.545 59.37,48.65 59.616,48.804 57.963,49.801 56.017,48.855 	"/>
	<polygon fill="#FFFFFF" points="58.235,47.499 59.959,48.342 61.637,47.346 61.883,47.448 59.959,48.599 58.013,47.679 	"/>
	<polygon fill="#FFFFFF" points="60.502,46.168 62.695,47.269 62.483,47.431 60.256,46.323 	"/>
	<polygon fill="#FFFFFF" points="61.563,47.959 62.842,48.65 67.206,46.042 67.454,46.092 62.868,48.879 61.34,48.139 	"/>
	<polygon fill="#FFFFFF" points="59.493,49.188 60.872,49.877 62.375,48.931 62.622,49.034 60.92,50.133 59.32,49.34 	"/>
	<polygon fill="#FFFFFF" points="57.521,50.39 58.875,51.054 60.355,50.159 60.6,50.286 58.924,51.31 57.323,50.543 	"/>
	<polygon fill="#FFFFFF" points="55.375,51.668 56.756,52.358 58.334,51.361 58.605,51.463 56.732,52.665 55.179,51.847 	"/>
	<polygon fill="#FFFFFF" points="53.084,53.075 54.44,53.739 56.239,52.69 56.436,52.793 54.514,54.021 52.813,53.15 	"/>
	<polygon fill="#FFFFFF" points="50.743,54.456 52.147,55.17 53.922,54.071 54.217,54.174 52.124,55.479 50.497,54.635 	"/>
	<polygon fill="#FFFFFF" points="48.426,55.836 49.881,56.604 51.606,55.479 51.852,55.606 49.831,56.859 48.18,56.016 	"/>
	<polygon fill="#FFFFFF" points="45.987,57.319 47.491,58.086 49.338,56.937 49.536,57.013 47.417,58.292 45.79,57.474 	"/>
	<polygon fill="#FFFFFF" points="43.498,58.804 44.976,59.596 46.898,58.394 47.169,58.497 45.001,59.853 43.275,58.981 	"/>
	<polygon fill="#FFFFFF" points="40.811,60.415 42.364,61.157 44.434,59.928 44.68,60.004 42.34,61.438 40.615,60.567 	"/>
	<polygon fill="#FFFFFF" points="38.273,61.948 39.825,62.69 41.822,61.514 42.02,61.59 39.776,62.972 38.076,62.103 	"/>
	<polygon fill="#FFFFFF" points="35.538,63.584 37.09,64.377 39.284,63.047 39.505,63.124 37.115,64.633 35.39,63.739 	"/>
	<polygon fill="#FFFFFF" points="39.505,63.56 41.624,64.608 43.448,63.458 43.744,63.611 41.624,64.89 39.259,63.713 	"/>
	<polygon fill="#FFFFFF" points="41.97,62.051 44.089,63.075 46.184,61.795 46.381,61.922 44.081,63.418 41.749,62.229 	"/>
	<polygon fill="#FFFFFF" points="44.582,60.465 46.75,61.463 48.821,60.159 49.042,60.286 46.677,61.745 44.336,60.567 	"/>
	<polygon fill="#FFFFFF" points="47.244,58.804 49.363,59.799 51.063,58.7 51.286,58.829 49.363,60.107 47.07,58.956 	"/>
	<polygon fill="#FFFFFF" points="49.486,57.422 51.655,58.445 53.602,57.192 53.823,57.269 51.606,58.674 49.313,57.549 	"/>
	<polygon fill="#FFFFFF" points="52,55.888 54.144,56.859 55.943,55.734 56.188,55.786 54.144,57.141 51.803,55.989 	"/>
	<polygon fill="#FFFFFF" points="54.497,54.303 56.536,55.375 58.186,54.354 58.358,54.456 56.485,55.581 54.267,54.532 	"/>
	<polygon fill="#FFFFFF" points="56.633,52.999 58.679,54.021 60.157,53.1 60.404,53.202 58.679,54.276 56.387,53.15 	"/>
	<polygon fill="#FFFFFF" points="58.654,51.795 60.674,52.844 62.424,51.719 62.622,51.795 60.674,52.999 58.481,51.897 	"/>
	<polygon fill="#FFFFFF" points="60.872,50.39 62.991,51.387 64.988,50.133 65.161,50.209 62.967,51.59 60.7,50.567 	"/>
	<polygon fill="#FFFFFF" points="63.312,48.879 65.432,49.801 70.657,46.527 70.952,46.629 65.48,50.057 63.165,49.008 	"/>
	<polygon fill="#FFFFFF" points="68.758,45.53 71.223,46.272 72.825,45.223 73.12,45.249 71.198,46.476 68.561,45.709 	"/>
	<polygon fill="#FFFFFF" points="63.508,44.404 67.749,45.709 69.45,44.635 69.769,44.687 67.749,45.939 63.262,44.558 	"/>
	<polygon fill="#FFFFFF" points="38.988,66.833 41.576,68.215 43.719,66.782 43.917,66.859 41.55,68.444 38.791,66.986 	"/>
	<polygon fill="#FFFFFF" points="41.723,65.12 44.287,66.424 46.604,64.915 46.75,64.993 44.213,66.68 41.526,65.249 	"/>
	<polygon fill="#FFFFFF" points="44.582,63.354 47.121,64.532 49.092,63.252 49.29,63.354 47.121,64.788 44.36,63.508 	"/>
	<polygon fill="#FFFFFF" points="47.121,61.77 49.633,62.946 51.482,61.719 51.704,61.77 49.584,63.202 46.874,61.922 	"/>
	<polygon fill="#FFFFFF" points="49.609,60.235 52.049,61.438 60.97,55.556 61.143,55.683 52.049,61.59 49.327,60.333 49.512,60.26 
			"/>
	<polygon fill="#FFFFFF" points="59.27,54.2 61.488,55.223 63.336,53.995 63.583,54.045 61.488,55.452 59.047,54.329 	"/>
	<polygon fill="#FFFFFF" points="61.686,52.69 63.854,53.638 65.432,52.588 65.704,52.69 63.854,53.868 61.415,52.851 	"/>
	<polygon fill="#FFFFFF" points="63.831,51.361 66.047,52.282 67.551,51.232 67.797,51.31 65.999,52.538 63.631,51.54 	"/>
	<polygon fill="#FFFFFF" points="66.023,50.004 68.143,50.9 69.892,49.597 71.37,49.902 73.441,48.522 73.588,48.573 71.313,50.075 
		69.917,49.827 68.092,51.157 65.801,50.159 	"/>
	<polygon fill="#FFFFFF" points="70.483,47.192 73.811,48.165 77.187,45.939 77.441,46.016 73.834,48.445 70.288,47.372 	"/>
	<polygon fill="#FFFFFF" points="26.912,61.387 26.912,61.846 28.045,62.383 30.091,61.206 30.239,61.284 28.021,62.588 
		26.739,62.051 26.739,61.488 	"/>
	<polygon fill="#FFFFFF" points="29.36,60.03 29.36,60.594 30.584,61.071 32.556,59.945 32.391,59.86 30.617,60.899 29.5,60.542 
		29.467,59.961 	"/>
	<polygon fill="#FFFFFF" points="31.701,58.727 31.701,59.288 32.884,59.792 35.052,58.53 34.889,58.445 32.933,59.586 
		31.882,59.178 31.882,58.583 	"/>
	<polygon fill="#FFFFFF" points="34.152,57.344 34.152,57.883 35.365,58.377 37.353,57.234 37.172,57.167 35.349,58.239 
		34.28,57.813 34.297,57.217 	"/>
	<polygon fill="#FFFFFF" points="36.493,56.071 36.493,56.607 37.632,57.099 39.488,56.04 39.358,55.973 37.649,56.961 
		36.629,56.553 36.629,56.006 	"/>
	<polygon fill="#FFFFFF" points="38.735,54.894 38.701,55.411 39.785,55.854 41.641,54.797 41.542,54.728 39.769,55.75 
		38.783,55.342 38.865,54.797 	"/>
	<polygon fill="#FFFFFF" points="40.984,53.663 40.934,54.148 41.854,54.694 43.843,53.568 43.711,53.5 41.871,54.524 
		41.083,54.098 41.132,53.551 	"/>
	<polygon fill="#FFFFFF" points="43.227,52.448 43.177,52.934 44.04,53.45 46.044,52.29 45.913,52.188 44.04,53.313 43.382,52.904 
		43.415,52.34 	"/>
	<polygon fill="#FFFFFF" points="45.519,51.219 45.47,51.706 46.275,52.188 47.917,51.25 47.753,51.147 46.258,52.018 
		45.633,51.625 45.684,51.113 	"/>
	<polygon fill="#FFFFFF" points="47.325,50.26 47.261,50.62 48.114,51.147 49.84,50.159 49.692,50.075 48.098,51.01 47.424,50.567 
		47.491,50.159 	"/>
	<polygon fill="#FFFFFF" points="49.333,49.186 49.288,49.622 50.021,50.057 51.877,49.018 51.745,48.931 50.004,49.938 
		49.43,49.545 49.478,49.049 	"/>
	<polygon fill="#FFFFFF" points="51.329,48.086 51.288,48.486 51.991,48.948 53.915,47.857 53.799,47.788 52.024,48.812 
		51.433,48.42 51.465,47.995 	"/>
	<polygon fill="#FFFFFF" points="53.411,46.93 53.355,47.295 54.094,47.754 56.313,46.476 56.213,46.426 54.127,47.618 
		53.536,47.227 53.586,46.749 	"/>
	<polygon fill="#FFFFFF" points="55.727,45.523 55.687,45.924 56.459,46.374 58.284,45.385 58.168,45.317 56.459,46.237 
		55.836,45.844 55.87,45.418 	"/>
	<polygon fill="#FFFFFF" points="57.676,44.346 57.633,44.797 58.45,45.282 59.913,44.465 59.795,44.379 58.463,45.129 
		57.758,44.737 57.825,44.26 	"/>
	<polygon fill="#FFFFFF" points="59.27,43.356 59.224,43.861 60.042,44.396 61.858,43.356 61.686,43.322 60.075,44.243 59.37,43.8 
		59.417,43.305 	"/>
	<polygon fill="none" stroke="#FFFFFF" stroke-width="0.25" points="47.478,2.041 3.339,9.355 15.711,57.153 56.25,38.151 	"/>
	<path fill="#FFFFFF" d="M36.417,70.747c-1.381-0.58-16.792-8.049-16.792-8.049s-1.051-0.477,0.066-1.057
		c1.117-0.58,38.216-19.368,38.216-19.368s0.105-0.034,0.316-0.046c-0.402-0.018-0.613,0.046-0.613,0.046
		S20.513,61.062,19.396,61.642c-1.118,0.58-0.066,1.058-0.066,1.058s15.411,7.469,16.792,8.047c0.666,0.28,1.331,0.336,1.841,0.32
		C37.503,71.055,36.96,70.975,36.417,70.747z"/>
</g>
<g id="Layer_2">
	<g>
		<polygon fill="#797979" points="56.851,61.568 67.476,54.295 74.514,57.344 63.889,65.254 		"/>
		<path fill="#605D5C" d="M61.477,67.064l8.178-5.999l2.547,1.607c-2.615,2.045-5.531,3.889-8.849,5.563L61.477,67.064z"/>
		<path fill="#605D5C" d="M69.888,60.831l6.737-4.895l2.178,0.705c-1.911,2.211-4.021,4.223-6.368,5.863L69.888,60.831z"/>
		<path fill="#CACACA" d="M61.275,66.795l8.179-5.998L72,62.372c-2.615,2.045-5.53,3.922-8.849,5.563L61.275,66.795z"/>
		<path fill="#CACACA" d="M69.688,60.528l6.736-4.893l2.179,0.736c-1.911,2.18-4.022,4.188-6.335,5.832L69.688,60.528z"/>
	</g>
	<g>
		<path fill="#B36548" d="M38.557,23.844c0.1,1.428,0.714,2.261,1.81,2.799c1.311,0.281,3.019-0.762,3.557-1.489
			c0,0,1.894-0.714,2.309-1.347c-0.019-0.32-0.226-0.883-0.496-0.845c-0.592,0.139-1.993,0.676-2.166,0.835
			c-0.245,0.189,2.585-1.553,2.492-2.042c0.009-0.535-0.742-1.308-1.185-0.827c-0.597,0.591-1.202,1.35-1.739,1.71
			c-0.217-0.027,1.999-1.865,1.779-2.545c-0.102-0.324-0.924-1.351-1.382-0.536c-0.621,1.093-1.112,1.555-1.501,2.342
			c0.461-0.901,1.612-2.555,0.979-2.97c-0.456-0.29-1.011-0.249-1.526,1.083c-0.28,0.574-1.179,2.24-1.647,2.569
			c-0.066-1.075,0.121-1.485-0.234-2.105c-0.231-0.43-0.503-0.677-1.105-0.371c-0.532,0.277-0.127,2.675-0.127,2.675
			S38.524,23.122,38.557,23.844L38.557,23.844z"/>
		<path fill="#F5E2A7" d="M38.606,23.863c0.104,1.345,0.653,2.125,1.72,2.594c1.242,0.311,2.881-0.7,3.4-1.38
			c0,0,1.928-0.729,2.309-1.348c-0.003-0.284-0.185-0.695-0.405-0.639c-0.608,0.104-2.145,0.703-2.32,0.861
			c-0.244,0.189,2.614-1.769,2.536-2.226c0.023-0.501-0.552-1.065-0.994-0.583c-0.564,0.577-1.362,1.175-1.85,1.555
			c-0.217-0.027,1.889-2.022,1.685-2.668c-0.101-0.323-0.742-0.94-1.215-0.158c-0.584,0.994-1.583,2.254-1.558,2.121
			c0.442-0.851,1.588-2.421,0.97-2.802c-0.455-0.29-0.977-0.264-1.472,1.019c-0.26,0.524-1.141,2.141-1.541,2.439
			c-0.085-1.025,0.083-1.386-0.224-1.987c-0.266-0.415-0.489-0.644-1.09-0.337c-0.498,0.261-0.119,2.507-0.119,2.507
			S38.574,23.141,38.606,23.863L38.606,23.863z"/>
		<path fill="#C06218" d="M43.267,24.872c-0.043-1.208-1.522-2.887-2.195-2.835C41.361,21.949,42.836,23.343,43.267,24.872
			L43.267,24.872z"/>
		<path fill="#A3D56F" d="M39.043,19.947c0.346,0.134,0.478,0.524,0.344,0.87c-0.133,0.346-0.525,0.478-0.836,0.329L39.043,19.947z
			 M38.551,21.146l-0.132-0.023l0.492-1.199l0.133,0.023L38.551,21.146z M38.418,21.123c-0.559-0.244-0.821-0.374-0.923-0.329
			l-0.392-1.259c0.543-0.158,0.939-0.005,1.808,0.388L38.418,21.123z M37.495,20.794c-0.102,0.045-0.331,0.27-0.735,0.652
			l-0.895-0.914c0.53-0.561,0.812-0.85,1.237-0.997L37.495,20.794z M36.76,21.446c-0.14,0.145-0.3,0.337-0.53,0.562l-0.909-0.948
			c0.209-0.174,0.369-0.368,0.544-0.527L36.76,21.446z M36.23,22.007c-0.262,0.238-0.68,0.219-0.918-0.043
			c-0.239-0.263-0.254-0.665,0.01-0.905L36.23,22.007z"/>
		<path fill="#ABDC7D" d="M22.381,27.884c0,0.368-0.282,0.655-0.636,0.69c-0.369-0.002-0.656-0.283-0.69-0.637L22.381,27.884z
			 M21.054,27.938c0,0,0.016-0.334,0.405-1.121l1.162,0.593c-0.24,0.475-0.24,0.475-0.24,0.475L21.054,27.938z M21.459,26.816
			c0.649-1.31,2.337-0.173,2.337-0.173l-0.705,1.09c0,0-0.452-0.374-0.471-0.324L21.459,26.816z M23.797,26.644
			c0.292,0.199,0.39,0.604,0.192,0.896c-0.198,0.294-0.605,0.391-0.897,0.193L23.797,26.644z"/>
		<path fill="#ABDC7D" d="M40.166,17.486c0.239,0.262,0.253,0.666,0.006,0.939c-0.249,0.273-0.65,0.287-0.924,0.04L40.166,17.486z
			 M39.248,18.465c0,0-0.08-0.088-1.237-0.394l0.294-1.276c1.523,0.391,1.861,0.691,1.861,0.691L39.248,18.465z M38.011,18.071
			c-0.647-0.166-0.996,1.544-0.996,1.544l-1.296-0.247c0.035-0.015,0.6-3.087,2.585-2.574L38.011,18.071z M37.016,19.616
			c-0.051,0.349-0.397,0.583-0.747,0.534c-0.364-0.084-0.599-0.432-0.549-0.781L37.016,19.616z"/>
		<path fill="#90AE84" d="M20.68,27.366c-0.084,0.364-0.461,0.531-0.792,0.432c-0.364-0.084-0.531-0.46-0.446-0.824L20.68,27.366z
			 M19.442,26.974c0.723-2.162,1.065-2.313,2.426-2.75l0.412,1.209c-0.852,0.295-1.092,0.399-1.6,1.934L19.442,26.974z
			 M21.868,24.223c0.342-0.151,0.817-0.28,1.316-0.54l0.529,1.197c-0.616,0.272-1.076,0.436-1.433,0.552L21.868,24.223z
			 M23.184,23.683c0.341-0.152,0.702,0.016,0.888,0.343c0.136,0.308-0.017,0.703-0.359,0.854L23.184,23.683z"/>
		<path fill="#ABDC7D" d="M20.313,28.388c-0.183,0.327-0.589,0.425-0.881,0.227c-0.328-0.183-0.425-0.59-0.242-0.916L20.313,28.388z
			 M19.189,27.698c0,0,1.235-2.021,3.22-2.896L22.939,26c-1.609,0.711-2.627,2.388-2.627,2.388L19.189,27.698z M22.41,24.802
			c0.342-0.151,0.738,0.001,0.889,0.344c0.136,0.309-0.017,0.702-0.359,0.854L22.41,24.802z"/>
		<path fill="#B36548" d="M38.184,23.927c0.628-0.155,1.333-0.222,1.765,0.569c0.417,0.757-0.102,1.806-0.999,1.996
			c-0.862,0.177-1.507-0.355-1.712-1.002C37.069,24.828,37.572,24.115,38.184,23.927L38.184,23.927z"/>
		<path fill="#B36548" d="M23.653,30.021c0.626-0.153,1.334-0.222,1.766,0.57c0.417,0.757-0.137,1.818-1,1.996
			c-0.863,0.177-1.542-0.342-1.711-1.003C22.553,30.958,23.041,30.21,23.653,30.021L23.653,30.021z"/>
		<path fill="#B36548" d="M27.086,19.83c3.457-1.528,7.658-2.484,10.811,1.687c3.152,4.172,0.932,10.717-3.948,12.546
			c-4.844,1.814-9.167-0.652-10.786-4.316C21.545,26.083,23.629,21.358,27.086,19.83L27.086,19.83z"/>
		<path fill="#F5E2A7" d="M23.763,30.177c0.525-0.108,1.182-0.194,1.534,0.509c0.372,0.654-0.124,1.569-0.869,1.734
			c-0.745,0.167-1.326-0.313-1.484-0.858C22.804,30.97,23.219,30.336,23.763,30.177L23.763,30.177z"/>
		<path fill="#C06218" d="M24.314,31.979c-0.771,0.014-1.154-0.759-0.667-1.138C23.339,30.979,23.505,31.723,24.314,31.979
			L24.314,31.979z"/>
		<path fill="#D5A05D" d="M38.496,24.075c-0.544,0.158-1.095,0.484-1.048,1.241c0.098,0.775,0.978,1.286,1.697,0.968
			c0.7-0.269,0.918-0.979,0.759-1.522C39.696,24.2,39.024,23.882,38.496,24.075L38.496,24.075z"/>
		<path fill="#C06218" d="M39.031,25.844c0.64-0.406,0.512-1.25-0.122-1.297C39.247,24.479,39.531,25.214,39.031,25.844
			L39.031,25.844z"/>
		<path fill="#F5E2A7" d="M27.196,19.986c3.354-1.483,7.437-2.428,10.479,1.588c3.043,4.014,0.884,10.329-3.81,12.116
			c-4.707,1.754-8.901-0.607-10.459-4.132C21.849,26.031,23.876,21.453,27.196,19.986L27.196,19.986z"/>
		<path fill="#955942" d="M36.598,27.001c-1.946,1.801-7.122,3.884-9.509,4.406c-0.341-0.216-0.25-0.38,0.225-0.509
			c0.406,0.271,0.888,0.345,1.395,0.285c3.807,1.671,5.953,0.232,7.024-3.27c0.017-0.335,0.165-0.645,0.397-0.951
			C36.422,26.791,36.589,26.8,36.598,27.001L36.598,27.001z"/>
		<path fill="#955942" d="M34.308,31.448c-0.196,0.946-1.572,1.351-2.103,0.89C32.349,32.479,33.618,32.205,34.308,31.448
			L34.308,31.448z"/>
		<path fill="#24211D" d="M24.913,25.742c0.844-0.127,1.679-0.088,1.735,0.501c0.07,0.623-0.916,1.632-1.896,1.819
			c-0.981,0.188-1.669-0.162-1.606-0.762C23.192,26.666,24.083,25.903,24.913,25.742L24.913,25.742z"/>
		<path fill="#FFFFFF" d="M24.953,25.928c0.779-0.181,1.684-0.171,1.641,0.38c-0.008,0.536-1.025,1.477-1.805,1.656
			c-0.779,0.182-1.485-0.121-1.441-0.671C23.39,26.742,24.159,26.075,24.953,25.928L24.953,25.928z"/>
		<path fill="#8DBB65" d="M25,26.03c0.607-0.104,1.075-0.065,1.282,0.497c0.223,0.597-0.883,1.332-1.542,1.418
			c-0.676,0.135-1.025-0.283-1.036-0.77C23.694,26.689,24.39,26.135,25,26.03L25,26.03z"/>
		<path fill="#24211D" d="M25.659,26.229c0.346,0.134,0.703,0.386,0.287,1.019c-0.381,0.619-1.423,1.038-1.692,0.707
			c-0.284-0.364-0.436-0.707-0.096-1.143C24.496,26.376,25.314,26.096,25.659,26.229L25.659,26.229z"/>
		<path fill="#FFFFFF" d="M24.21,26.746c0.152-0.025,0.319-0.018,0.331,0.1c-0.004,0.085-0.213,0.259-0.365,0.284
			c-0.137,0.062-0.251-0.012-0.262-0.129C23.918,26.918,24.074,26.808,24.21,26.746L24.21,26.746z"/>
		<path fill="#C06218" d="M29.927,25.979c0.034-0.015,0.118-0.011,0.148,0.059c0.016,0.034-0.023,0.132-0.058,0.146
			c-0.069,0.031-0.118,0.012-0.148-0.057C29.855,26.094,29.859,26.012,29.927,25.979L29.927,25.979z"/>
		<path fill="#C06218" d="M31.49,25.167c0.035-0.016,0.103-0.046,0.133,0.023c0.029,0.067-0.008,0.166-0.042,0.181
			c-0.068,0.031-0.133-0.023-0.148-0.057C31.402,25.246,31.422,25.196,31.49,25.167L31.49,25.167z"/>
		<path fill="#C06218" d="M31.508,25.485c-0.335,0.354-0.574,0.459-0.985,0.641c-0.068,0.03-0.541,0.074-0.57,0.006l0.099,0.038
			c-0.03-0.067-0.094-0.121-0.01-0.118c0.451,0.006,1.003-0.32,1.426-0.753c0.034-0.015,0.068-0.029,0.083,0.005l0,0
			C31.581,25.371,31.563,25.422,31.508,25.485L31.508,25.485z"/>
		<path fill="#24211D" d="M33.85,21.71c-0.644,0.489-1.193,1.1-0.794,1.538c0.398,0.437,1.759,0.368,2.573-0.197
			c0.765-0.583,0.949-1.278,0.498-1.651C35.674,21.026,34.527,21.206,33.85,21.71L33.85,21.71z"/>
		<path fill="#FFFFFF" d="M33.944,21.832c-0.673,0.42-1.241,1.08-0.805,1.419c0.402,0.354,1.732,0.216,2.39-0.239
			c0.625-0.439,0.893-1.13,0.456-1.469C35.565,21.238,34.569,21.393,33.944,21.832L33.944,21.832z"/>
		<path fill="#8DBB65" d="M33.989,21.934c-0.467,0.331-0.753,0.702-0.477,1.234c0.276,0.533,1.516,0.189,2.037-0.205
			c0.522-0.394,0.462-0.899,0.125-1.199C35.32,21.428,34.477,21.556,33.989,21.934L33.989,21.934z"/>
		<path fill="#24211D" d="M33.658,22.572c-0.149,0.311-0.169,0.729,0.496,0.845c0.699,0.099,1.642-0.358,1.578-0.78
			c-0.048-0.388-0.2-0.729-0.701-0.754C34.48,21.841,33.757,22.242,33.658,22.572L33.658,22.572z"/>
		<path fill="#FFFFFF" d="M33.902,22.382c0.152-0.025,0.319-0.018,0.281,0.081c-0.005,0.084-0.179,0.244-0.316,0.304
			c-0.152,0.025-0.266-0.047-0.262-0.13C33.609,22.553,33.749,22.409,33.902,22.382L33.902,22.382z"/>
		<path fill="#D5A05D" d="M34.638,19.233c1.086,0.421,2.155,1.176,3.118,2.428c3.008,4.03,0.849,10.345-3.844,12.132
			c-2.677,0.979-5.157,0.644-7.131-0.49c1.792,0.723,3.932,0.841,6.182,0.009c4.693-1.786,6.853-8.102,3.809-12.116
			C36.094,20.309,35.404,19.673,34.638,19.233L34.638,19.233z"/>
		<path fill="#955942" d="M32.688,21.119c-0.159,0.193-0.255,0.44,0.315,0.434c0.521-0.025,1.375-0.404,1.388-0.655
			c-0.022-0.236-0.097-0.406-0.52-0.343C33.468,20.569,32.799,20.905,32.688,21.119L32.688,21.119z"/>
		<path fill="#F99E7E" d="M32.495,20.959c-0.16,0.193-0.222,0.425,0.314,0.434c0.555-0.042,1.41-0.42,1.388-0.655
			c0.012-0.25-0.097-0.407-0.486-0.358C33.274,20.409,32.64,20.73,32.495,20.959L32.495,20.959z"/>
		<path fill="#955942" d="M24.017,24.828c-0.111,0.213-0.157,0.478,0.31,0.517c0.502,0.024,1.187-0.278,1.149-0.548
			c-0.022-0.235-0.113-0.441-0.482-0.442C24.626,24.354,24.127,24.615,24.017,24.828L24.017,24.828z"/>
		<path fill="#F99E7E" d="M23.618,24.758c-0.145,0.228-0.225,0.509,0.345,0.502c0.535,0.009,1.356-0.354,1.32-0.624
			c0.012-0.251-0.114-0.44-0.516-0.427C24.364,24.225,23.729,24.546,23.618,24.758L23.618,24.758z"/>
		<path fill="#F99F61" d="M19.071,24.19c-0.1,0.33-0.495,0.547-0.826,0.446c-0.346-0.133-0.546-0.495-0.412-0.84L19.071,24.19z
			 M17.833,23.796c0,0,0.299-0.991,3.276-2.307l0.529,1.198c-2.464,1.089-2.568,1.503-2.568,1.503L17.833,23.796z M21.11,21.49
			c3.491-1.543,3.955,1.729,3.955,1.729l-1.284,0.241c0,0-0.225-1.619-2.142-0.772L21.11,21.49z M25.065,23.219
			c0.083,0.373-0.183,0.696-0.521,0.763c-0.354,0.033-0.695-0.184-0.763-0.522L25.065,23.219z"/>
		<path fill="#7FB948" d="M22.203,18.224c-0.239-0.262-0.253-0.666,0.01-0.904c0.248-0.273,0.666-0.253,0.938-0.005L22.203,18.224z
			 M23.151,17.315c0.99,1.035,1.16,1.327,1.497,1.997l-1.183,0.563c-0.261-0.498-0.382-0.771-1.262-1.651L23.151,17.315z
			 M24.648,19.312c0.23,0.43,0.537,1.03,1.382,2.294l-1.073,0.72c-0.91-1.317-1.246-1.986-1.492-2.451L24.648,19.312z M26.03,21.606
			c0.22,0.313,0.117,0.727-0.176,0.897c-0.312,0.219-0.71,0.151-0.896-0.177L26.03,21.606z"/>
		<path fill="#ABDC7D" d="M37.127,15.147c0.312,0.149,0.443,0.541,0.295,0.852c-0.168,0.36-0.575,0.459-0.886,0.31L37.127,15.147z
			 M36.536,16.308c0,0-0.113-0.071-1.174,0.397l-0.53-1.199c1.608-0.71,2.295-0.359,2.295-0.359L36.536,16.308z M35.361,16.706
			c-0.993,0.439-1.207,2.823-1.207,2.823l-1.285-0.127c0,0,0.284-3.153,1.962-3.895L35.361,16.706z M34.154,19.529
			c-0.016,0.334-0.347,0.604-0.715,0.604c-0.35-0.051-0.619-0.382-0.569-0.731L34.154,19.529z"/>
		<path fill="#98C571" d="M31.851,14.41c0.293-0.17,0.707-0.067,0.877,0.226c0.186,0.327,0.067,0.707-0.26,0.892L31.851,14.41z
			 M32.468,15.528c-2.207,1.303-0.948,4.43-0.948,4.43l-1.179,0.479c0,0-1.762-4.171,1.509-6.027L32.468,15.528z M31.521,19.958
			c0.151,0.341-0.017,0.702-0.359,0.853c-0.308,0.136-0.703-0.016-0.82-0.374L31.521,19.958z"/>
		<path fill="#F05B86" d="M21.92,21.008c-0.349-0.049-0.618-0.38-0.569-0.73c0.035-0.384,0.382-0.619,0.731-0.568L21.92,21.008z
			 M22.082,19.709l0.083,0.003l-0.162,1.3l-0.083-0.004L22.082,19.709z M22.165,19.713c0.651,0.082,0.951,0.113,1.418,0.521
			l-0.884,0.963c-0.129-0.106-0.312-0.148-0.695-0.184L22.165,19.713z M23.583,20.233c0.288,0.282,0.587,0.681,1.136,1.461
			l-1.059,0.753c-0.519-0.711-0.803-1.077-0.962-1.252L23.583,20.233z M24.719,21.695c0.109,0.155,0.234,0.346,0.564,0.814
			l-1.058,0.753c-0.11-0.155-0.345-0.502-0.565-0.814L24.719,21.695z M25.284,22.509c0.204,0.278,0.135,0.676-0.143,0.881
			c-0.312,0.22-0.711,0.151-0.915-0.127L25.284,22.509z"/>
		<path fill="#98C571" d="M24.162,15.436c0.084-0.365,0.432-0.6,0.795-0.515c0.35,0.05,0.55,0.412,0.5,0.761L24.162,15.436z
			 M25.458,15.681c-0.215,0.995,1.841,4.259,1.856,4.294l-1.103,0.651c0,0-2.337-3.713-2.049-5.19L25.458,15.681z M27.314,19.975
			c0.205,0.278,0.102,0.692-0.192,0.861c-0.312,0.22-0.726,0.118-0.911-0.21L27.314,19.975z"/>
		<path fill="#F99E7E" d="M23.002,17.625c-0.353,0.034-0.66-0.199-0.709-0.586c-0.034-0.354,0.233-0.677,0.586-0.71L23.002,17.625z
			 M22.879,16.329c1.6-0.175,1.959,0.73,2.5,2.046l-1.213,0.495c-0.299-0.768-0.541-1.316-1.165-1.245L22.879,16.329z
			 M25.379,18.375c0.313,0.802,0.703,1.775,1.647,2.709l-0.899,0.928c-1.138-1.092-1.602-2.236-1.961-3.142L25.379,18.375z
			 M27.027,21.084c0.272,0.248,0.253,0.666,0.025,0.889c-0.248,0.272-0.686,0.303-0.924,0.039L27.027,21.084z"/>
		<path fill="#FDFD72" d="M28.394,16.307c-0.292-0.198-0.356-0.621-0.158-0.912c0.248-0.274,0.634-0.322,0.927-0.124L28.394,16.307z
			 M29.163,15.271c1.538,1.162,1.299,1.921,0.992,3.08l-1.256-0.344c0.165-0.646,0.302-1.075-0.505-1.699L29.163,15.271z
			 M30.155,18.351c-0.142,0.513-0.321,1.124-0.227,1.983l-1.281,0.157c-0.165-1.114,0.072-1.873,0.252-2.484L30.155,18.351z
			 M29.928,20.333c0.033,0.354-0.199,0.661-0.553,0.694c-0.388,0.05-0.695-0.183-0.729-0.537L29.928,20.333z"/>
		<path fill="#FCC78C" d="M25.031,17.957c-0.312-0.149-0.409-0.556-0.227-0.882c0.149-0.311,0.556-0.409,0.883-0.226L25.031,17.957z
			 M25.687,16.848l0.099,0.038l-0.656,1.109l-0.099-0.039L25.687,16.848z M25.786,16.886c0.554,0.329,0.815,0.458,1.058,1.006
			l-1.182,0.564c-0.077-0.172-0.24-0.263-0.531-0.46L25.786,16.886z M26.843,17.892c0.167,0.377,0.295,0.852,0.536,1.768
			l-1.289,0.324c-0.211-0.848-0.291-1.304-0.43-1.528L26.843,17.892z M27.379,19.66c0.011,0.118,0.037,0.27,0.222,0.965
			l-1.289,0.325c0.019-0.05-0.109-0.526-0.222-0.966L27.379,19.66z M27.601,20.625c0.068,0.339-0.134,0.714-0.472,0.782
			c-0.373,0.083-0.714-0.135-0.816-0.457L27.601,20.625z"/>
		<path fill="#ABDC7D" d="M25.532,18.349c-0.263,0.239-0.681,0.219-0.919-0.043c-0.239-0.264-0.219-0.682,0.044-0.92L25.532,18.349z
			 M24.656,17.385c1.645-1.462,3.796,2.945,3.796,2.945l-1.167,0.598c0,0-1.389-2.864-1.754-2.579L24.656,17.385z M28.453,20.33
			c0.151,0.343,0.034,0.723-0.294,0.908c-0.342,0.151-0.737-0.001-0.873-0.31L28.453,20.33z"/>
		<path fill="#F99F61" d="M29.66,13.988c0.232-0.308,0.604-0.391,0.931-0.208c0.307,0.233,0.356,0.62,0.173,0.947L29.66,13.988z
			 M30.764,14.728c-0.542,0.812,0.115,4.612,0.13,4.647l-1.3,0.206c0,0-0.766-4.326,0.065-5.592L30.764,14.728z M30.895,19.375
			c0.068,0.337-0.15,0.679-0.537,0.728c-0.339,0.067-0.68-0.15-0.763-0.522L30.895,19.375z"/>
		<path fill="#7FB948" d="M26.582,15.634c-0.331-0.099-0.531-0.46-0.446-0.825c0.1-0.331,0.461-0.531,0.792-0.432L26.582,15.634z
			 M26.927,14.377c1.587,0.444,1.574,1.431,1.575,2.822l-1.308,0.005c0.006-0.821,0-1.391-0.612-1.571L26.927,14.377z M28.501,17.2
			c-0.025,0.871-0.042,1.941,0.487,3.14l-1.164,0.514c-0.67-1.423-0.645-2.661-0.631-3.649L28.501,17.2z M28.989,20.34
			c0.186,0.326,0.034,0.722-0.309,0.874c-0.342,0.151-0.704-0.018-0.854-0.359L28.989,20.34z"/>
		<path fill="#FEC7AF" d="M38.216,17.611c0.24,0.263,0.219,0.68-0.044,0.919c-0.263,0.238-0.681,0.219-0.919-0.044L38.216,17.611z
			 M37.253,18.487c0,0-0.08-0.087-1.067-0.47l0.478-1.233c1.283,0.497,1.553,0.828,1.553,0.828L37.253,18.487z M36.186,18.017
			c-0.295-0.113-0.413,1.288-0.413,1.288l-1.268-0.093c-0.016-0.035,0.234-3.173,2.159-2.428L36.186,18.017z M35.773,19.304
			c0,0.369-0.331,0.638-0.68,0.588c-0.369,0-0.639-0.332-0.588-0.681L35.773,19.304z"/>
		<path fill="#F05B86" d="M20.416,24.456c-0.297,0.253-0.681,0.219-0.954-0.029c-0.239-0.263-0.219-0.681,0.043-0.92L20.416,24.456z
			 M19.505,23.507l0.054-0.064l0.91,0.948l-0.053,0.065L19.505,23.507z M19.559,23.443c0.506-0.428,0.735-0.652,1.309-0.742
			l0.172,1.314c-0.168-0.008-0.308,0.136-0.571,0.375L19.559,23.443z M20.868,22.701c0.387-0.048,0.904,0.01,1.858,0.038
			l-0.113,1.318c-0.836-0.041-1.303-0.079-1.573-0.042L20.868,22.701z M22.726,22.739c0.3,0.031,0.634,0.046,0.984,0.097
			l-0.079,1.304c-0.418-0.02-0.718-0.051-1.018-0.082L22.726,22.739z M23.71,22.836c0.369,0.001,0.623,0.298,0.622,0.667
			c-0.035,0.383-0.333,0.638-0.701,0.637L23.71,22.836z"/>
		<path fill="#ABDC7D" d="M21.409,24.017c0,0.368-0.283,0.656-0.636,0.69c-0.369-0.001-0.657-0.283-0.691-0.636L21.409,24.017z
			 M20.082,24.071c0,0-0.018-0.319,0.405-1.121l1.161,0.592c-0.24,0.475-0.24,0.475-0.24,0.475L20.082,24.071z M20.487,22.95
			c0.648-1.308,2.337-0.172,2.337-0.172l-0.706,1.088c0,0-0.485-0.358-0.471-0.324L20.487,22.95z M22.825,22.778
			c0.292,0.198,0.39,0.604,0.192,0.896c-0.198,0.293-0.605,0.391-0.897,0.192L22.825,22.778z"/>
		<path fill="#FDFE9A" d="M36.898,17.499c0.136,0.308,0.032,0.722-0.259,0.892c-0.343,0.152-0.723,0.033-0.908-0.294L36.898,17.499z
			 M35.731,18.097c0,0-0.106-0.24-1.729-0.301l0.064-1.336c2.34,0.11,2.832,1.039,2.832,1.039L35.731,18.097z M34.001,17.796
			c-1.219-0.074-0.994,1.545-0.979,1.579l-1.281,0.157c-0.015-0.034-0.469-3.188,2.324-3.072L34.001,17.796z M33.022,19.375
			c0.034,0.354-0.199,0.661-0.586,0.709c-0.338,0.069-0.661-0.198-0.694-0.553L33.022,19.375z"/>
		<path fill="#F05B86" d="M32.881,15.632c0.313-0.219,0.712-0.15,0.897,0.177c0.205,0.277,0.136,0.676-0.176,0.896L32.881,15.632z
			 M33.602,16.705c-0.087,0.08-0.191,0.125-0.293,0.171l-0.686-1.088c0.088-0.08,0.19-0.125,0.258-0.156L33.602,16.705z
			 M33.309,16.876c-0.658,0.454-1.4,0.904-1.949,3.274l-1.26-0.26c0.66-2.951,1.626-3.542,2.524-4.102L33.309,16.876z M31.359,20.15
			c-0.048,0.35-0.395,0.584-0.759,0.501c-0.365-0.084-0.566-0.446-0.501-0.761L31.359,20.15z"/>
		<path fill="#ABDC7D" d="M37.887,18.903c0.118,0.358-0.101,0.698-0.423,0.801c-0.358,0.118-0.733-0.085-0.816-0.458L37.887,18.903z
			 M36.647,19.246c0,0-0.045-0.103-0.747-0.856l0.948-0.91c0.94,1.016,1.039,1.423,1.039,1.423L36.647,19.246z M35.9,18.39
			c-0.189-0.244-0.932,0.944-0.932,0.944l-1.109-0.656c0,0,1.621-2.721,2.989-1.198L35.9,18.39z M34.968,19.334
			c-0.184,0.326-0.591,0.423-0.917,0.241c-0.292-0.198-0.39-0.605-0.192-0.897L34.968,19.334z"/>
		<path fill="#FDFE9A" d="M39.181,17.758c0.171,0.293,0.033,0.722-0.275,0.858c-0.326,0.185-0.706,0.067-0.892-0.26L39.181,17.758z
			 M38.013,18.356c0,0-0.121-0.274-1.605-0.395l0.078-1.302c2.252,0.19,2.695,1.099,2.695,1.099L38.013,18.356z M36.408,17.961
			c-1.053-0.067-0.81,1.502-0.81,1.502l-1.266,0.192c-0.016-0.034-0.518-3.209,2.153-2.997L36.408,17.961z M35.598,19.463
			c0.068,0.339-0.184,0.696-0.537,0.729c-0.354,0.033-0.695-0.185-0.729-0.538L35.598,19.463z"/>
		<path fill="#ABDC7D" d="M39.209,18.932c0.083,0.373-0.134,0.714-0.492,0.832c-0.338,0.067-0.715-0.135-0.797-0.507L39.209,18.932z
			 M37.92,19.256c0,0,0.004-0.083-0.766-0.807l0.898-0.929c1.043,0.971,1.156,1.411,1.156,1.411L37.92,19.256z M37.155,18.45
			c-0.352-0.336-1.568,1.266-1.568,1.266l-1.05-0.805c0,0,2.071-2.716,3.517-1.39L37.155,18.45z M35.587,19.715
			c-0.233,0.308-0.621,0.355-0.928,0.123c-0.292-0.198-0.356-0.62-0.123-0.927L35.587,19.715z"/>
		<path fill="#7FB948" d="M35.743,19.236c0.25,0.012,0.474,0.24,0.478,0.526c-0.012,0.25-0.241,0.474-0.492,0.462L35.743,19.236z
			 M35.729,20.224l-0.034,0.015l0.048-1.003l0,0L35.729,20.224z M35.695,20.239c-0.668-0.031-1.391,0-2.117,0.117l-0.104-0.976
			c0.775-0.098,1.531-0.145,2.269-0.144L35.695,20.239z M33.579,20.356c-0.741,0.083-1.452,0.233-2.182,0.433l-0.256-0.95
			c0.765-0.215,1.558-0.361,2.334-0.458L33.579,20.356z M31.396,20.789c-3.768,1.011-7.374,3.219-8.397,5.716l-0.903-0.377
			c1.138-2.794,5.022-5.208,9.045-6.29L31.396,20.789z M22.999,26.505c-0.095,0.248-0.369,0.369-0.616,0.273
			c-0.262-0.132-0.383-0.404-0.288-0.65L22.999,26.505z"/>
		<path fill="#D5A05D" d="M19.505,29.521c0.407-0.465,0.194-0.208,0.602-0.674c6.407,3.019,11.411,7.396,15.622,12.571
			c-0.302,0.338-0.214,0.258-0.53,0.562C29.141,38.642,23.312,35.081,19.505,29.521L19.505,29.521z"/>
		<path fill="#A9A8A7" d="M19.187,29.173c0.274-0.49,0.13-0.263,0.405-0.752c0.619,0.013,1.2,0.124,1.738,0.417
			c0.539,0.295,0.952,0.767,1.332,1.254c-0.168,0.361-0.366,0.653-0.648,0.94c-0.247,0.273-0.415,0.634-0.697,0.921
			c-0.527-0.175-0.983-0.464-1.298-0.898C19.654,30.603,19.382,29.985,19.187,29.173L19.187,29.173z"/>
		<path fill="#C1C0BF" d="M19.221,28.788c0.038-0.099,0.111-0.213,0.148-0.312c0.219,0.681,0.667,1.138,1.153,1.496
			c0.5,0.393,1.088,0.705,1.559,1.029c-0.209,0.175-0.316,0.304-0.407,0.467c-0.107,0.128-0.18,0.242-0.252,0.357
			c-0.508-0.226-0.979-0.55-1.323-1.053C19.719,30.287,19.417,29.602,19.221,28.788L19.221,28.788z"/>
		<path fill="#FFFFFF" d="M19.278,29.009c0.019-0.049,0.039-0.099,0.077-0.197c0.272,0.616,0.632,1.152,1.015,1.558
			c0.383,0.402,0.854,0.727,1.313,0.934c-0.024,0.131-0.145,0.227-0.218,0.34c-0.474-0.24-0.876-0.594-1.225-1.014
			C19.875,30.177,19.584,29.609,19.278,29.009L19.278,29.009z"/>
		<path fill="#F06181" d="M15.703,25.27c0.943,1.304,2.959,0.494,3.444,0.852c0.827,0.574,0.563,1.552,1.176,2.754
			c-0.183,0.325-0.447,0.564-0.792,0.8C17.373,29.605,15.051,29.444,15.703,25.27L15.703,25.27z"/>
		<path fill="#ED93AB" d="M15.857,25.896c0.015,0.035,0.33,0.469,0.505,0.31c-0.359,2.614,1.749,3.032,3.136,3.115l-0.072,0.114
			C17.989,29.333,15.407,28.675,15.857,25.896L15.857,25.896z"/>
		<path fill="#F5E2A7" d="M23.877,34.137c1.457-1.055,2.025-0.691,2.371-0.188c0.751,0.036,1.029,0.199,1.122,1.059
			c0.653-0.003,1.265,0.178,1.343,1.002c0.276,0.164,0.588-0.057,0.8,0.424c0.049,0.388-0.339,0.805-1.836,2.325
			c-0.195,0.208-1.017,0.94-1.387-0.083c-0.924,0.04-0.926-0.614-1.369-1.154c-0.315-0.434-0.808-0.625-0.986-1.119
			c-0.786-0.389-0.636-1.067-0.651-1.104C22.922,34.846,23.861,34.104,23.877,34.137L23.877,34.137z"/>
		<path fill="#955942" d="M23.445,34.735c-0.213,0.628-0.032,1.038,0.648,1.188c-0.249,0.641,0.051,1.042,0.932,1.185
			c-0.059,0.885,0.461,1.228,1.282,1.233c-0.219,1.078,0.045,0.472,1.04,0.686l-0.171,0.075c0.03,0.068-0.142,0.145-0.176,0.16
			c-0.296,0.254-0.919,0.324-1.145-0.558c-0.317,0.303-0.961-0.229-1.177-0.994c-0.55-0.411-1.001-0.416-0.913-1.233
			c-0.691-0.267-1.101-0.821-0.72-1.44C23.129,35.039,23.66,34.109,23.445,34.735L23.445,34.735z"/>
		<path fill="#D5A05D" d="M23.586,34.592c-0.213,0.627-0.032,1.039,0.632,1.153c-0.233,0.676,0.066,1.075,0.948,1.217
			c-0.059,0.886,0.446,1.195,1.282,1.234c-0.234,1.045,0.029,0.437,1.04,0.686l-0.171,0.076c0.015,0.034-0.141,0.144-0.175,0.159
			c-0.312,0.22-0.92,0.325-1.146-0.557c-0.282,0.288-0.961-0.23-1.175-0.994c-0.55-0.412-1.003-0.417-0.914-1.233
			c-0.69-0.267-1.1-0.823-0.719-1.442C23.255,34.861,23.8,33.966,23.586,34.592L23.586,34.592z"/>
		<path fill="#955942" d="M23.945,34.106c1.123-1.068,2.341-0.627,2.098-0.067c0.843-0.128,1.294,0.245,1.24,1.047
			c0.825-0.078,1.295,0.247,1.309,1.017c0.185-0.041,0.421-0.063,0.584,0.029c0.163,0.091,0.318,0.35,0.296,0.481
			c-0.043,0.183-0.291,0.457-0.431,0.6c0.145-0.227,0.559-0.492,0.518-0.678c-0.083-0.373-0.455-0.658-0.9-0.462
			c0.06-0.886-0.449-1.11-1.323-1.052c0.134-0.714-0.351-1.072-1.153-1.128C26.067,33.169,24.847,33.094,23.945,34.106
			L23.945,34.106z"/>
		<path fill="#955942" d="M23.796,36.546c0.608-0.843,1.584-1.97,2.368-2.604c-0.837,0.33-1.983,1.901-2.513,2.463L23.796,36.546z"
			/>
		<path fill="#955942" d="M24.766,37.631c0.541-0.813,1.699-1.896,2.585-2.574c-0.784,0.265-2.177,1.739-2.73,2.433L24.766,37.631z"
			/>
		<path fill="#955942" d="M26.051,38.78c0.268-0.69,1.452-1.992,2.56-2.726c-0.734,0.282-2.36,1.697-2.704,2.585L26.051,38.78z"/>
		<path fill="#955942" d="M26.917,39.257c0.967-0.59,1.055-1.038,1.542-1.417c0.472-0.413,0.921-1.062,0.811-0.85
			c-0.099,0.33-0.696,0.921-1.047,1.24C28.069,38.626,27.187,39.22,26.917,39.257L26.917,39.257z"/>
		<path fill="#955942" d="M25.948,31.79c0.099,0.038,1.561,0.66,1.715,0.918c0.155,0.259-0.584,1.364-0.82,1.386
			c-0.235,0.021-1.048-0.151-1.063-0.554C25.732,33.153,25.85,31.751,25.948,31.79L25.948,31.79z"/>
		<path fill="#F5E2A7" d="M26.043,31.912c0.114,0.07,1.333,0.516,1.487,0.773c0.155,0.258-0.526,1.214-0.762,1.237
			c-0.22,0.056-0.851-0.073-0.866-0.478C25.888,33.043,25.944,31.872,26.043,31.912L26.043,31.912z"/>
		<path fill="#F06181" d="M14.781,24.573c0.59-0.423-7.331-1.22-5.66-2.531C10.236,21.141,13.707,23.903,14.781,24.573
			L14.781,24.573z"/>
		<path fill="#F06181" d="M36.735,23.053c0.452-0.364,0.485-0.011,0.941,0.28c0.276,0.163,0.069-0.398,0.71,0.218
			c0.432,0.422-0.126,0.178-0.348,0.603c-0.133,0.346,0.692-0.101,0.41,0.187c-0.495,0.546-0.095-0.122-0.251,0.357
			c-0.245,0.927-0.959,0.792-1.142,0.749c-0.183-0.042-0.032-0.722-0.117-0.357c-0.137,0.43-0.168,1.1-0.209,0.176
			c-0.003-0.286-0.153,0.394-0.228,0.223c-0.136-0.308-0.76-0.237-0.729-0.537c0.046-0.266,0.037-1.121,0.314-1.326
			C36.346,23.471,36.004,23.622,36.735,23.053L36.735,23.053z"/>
		<path fill="#7FB948" d="M25.262,29.311c0.383-0.334,0.176-0.527,0.532-0.277c0.228,0.146,0.066-0.314,0.627,0.216
			c0.352,0.335-0.142,0.144-0.309,0.503c-0.13,0.263,0.559-0.124,0.345,0.135c-0.407,0.467-0.08-0.088-0.198,0.292
			c-0.222,0.794-0.998,1.26-1.18,1.217c-0.133-0.023,0.316-0.672,0.093-0.899c-0.194-0.161-0.236,0.391-0.175,0.159
			c0.076-0.198-0.1,0.329-0.159,0.192c-0.122-0.273-0.661-0.199-0.615-0.465c0.042-0.182,0.029-0.953,0.253-1.094
			C24.665,29.164,24.653,29.783,25.262,29.311L25.262,29.311z"/>
		<path fill="#FDFE9A" d="M27.58,23.54c0.384-0.333,0.554,0.328,0.945,0.564c0.193,0.16,0.017-0.334,0.577,0.196
			c0.353,0.334-0.475,0.127-0.643,0.488c-0.164,0.278,0.908-0.074,0.68,0.149c-0.407,0.466-0.079-0.087-0.183,0.327
			c-0.238,0.761-0.763,1.237-0.896,1.214c-0.147-0.058,0.051-0.718-0.192-0.896c-0.208-0.195-0.251,0.356-0.174,0.159
			c0.095-0.247-0.115,0.295-0.176,0.159c-0.121-0.273-0.646-0.165-0.599-0.431c0.027-0.216,0.028-0.954,0.238-1.128
			C27.381,24.2,27.005,23.998,27.58,23.54L27.58,23.54z"/>
		<path fill="#ABDC7D" d="M31.429,24.007c0.455-0.079,0.084-0.365,0.138-0.797c0.026-0.218,0.243,0.179,0.26-0.524
			c-0.03-0.438-0.202,0.007-0.533-0.093c-0.28-0.08,0.419-0.348,0.1-0.33c-0.57,0.007,0.012,0.118-0.35-0.05
			c-0.637-0.332-0.961,0.139-1.018,0.287c-0.073,0.113,0.151-0.026,0.154,0.258c-0.012,0.252-0.398-0.069-0.201,0.008
			c0.198,0.076-0.296-0.115-0.25-0.012c0.121,0.274-0.279,0.573-0.085,0.733c0.163,0.092,0.695,0.552,0.915,0.497
			C30.779,23.927,30.736,24.108,31.429,24.007L31.429,24.007z"/>
		<path fill="#F99F61" d="M27.431,27.738c0.555-0.41,0.356,0.62,0.815,0.825c0.296,0.115,0.051-0.717,0.7-0.268
			c0.422,0.305-0.159,0.193-0.48,0.58c-0.183,0.326,0.779-0.181,0.463,0.122c-0.613,0.559-0.114-0.072-0.335,0.353
			c-0.408,0.835-1.154,1.37-1.336,1.328c-0.216-0.026,0.165-0.646-0.127-0.844c-0.227-0.146-0.339,0.436-0.209,0.175
			c0.11-0.213-0.203,0.375-0.262,0.238c-0.122-0.274-0.833-0.124-0.752-0.404c0.062-0.232,0.166-1.015,0.493-1.201
			C26.692,28.473,26.582,28.317,27.431,27.738L27.431,27.738z"/>
		<path fill="#F06181" d="M33.81,14.771c-0.509,0.145,2.733-4.276,1.298-4.01C34.146,10.9,33.934,13.939,33.81,14.771L33.81,14.771z
			"/>
		<path fill="#7FB948" d="M36.387,14.86c2.431-3.202,6.741-1.874,5.561-2.785C40.233,10.788,37.032,13.634,36.387,14.86
			L36.387,14.86z"/>
	</g>
</g>
</svg>
