<?xml version="1.0" encoding="utf-8"?>
<!-- Generator: Adobe Illustrator 13.0.0, SVG Export Plug-In . SVG Version: 6.00 Build 14948)  -->
<svg version="1.2" baseProfile="tiny" id="Layer_1" xmlns="http://www.w3.org/2000/svg" xmlns:xlink="http://www.w3.org/1999/xlink"
	 x="0px" y="0px" width="192.398px" height="305.07px" viewBox="0 0 192.398 305.07" xml:space="preserve">
<g>
	<path fill="#949393" d="M130.218,124.284c0.736,0.856,1.103,1.838,0.613,2.572c-0.49,0.858-2.574,0.858-4.167-0.244
		c-1.716-1.104-2.697-2.818-2.084-3.678c0.368-0.734,1.593-0.734,2.818-0.49c20.47-36.646,18.875-69.739,46.698-89.842
		c14.463-10.541,23.901,1.227,14.586,7.846C161.35,59.813,151.422,87.88,130.218,124.284L130.218,124.284z"/>
	<path fill="#F4D996" d="M92.1,305.071c31.99,0,56.994-6.985,56.994-18.876c0-12.011-44.125-19.854-57.975-19.978
		c-15.812-0.123-57.361,7.23-57.853,19.12C32.9,296.981,60.11,305.071,92.1,305.071L92.1,305.071z"/>
	<path fill="#DEB669" d="M61.213,293.917c-9.806-3.679-27.823-10.174,12.747-17.527c4.045,1.961,32.726,2.819,37.138-0.857
		c19.243,2.205,32.849,10.419,23.165,14.586C123.967,294.408,95.777,302.987,61.213,293.917L61.213,293.917z"/>
	<path fill="#AF7329" d="M93.203,279.944c4.412,0.368,12.502-0.243,19.365-1.471c1.472-0.245,15.198,1.839,16.057,4.29
		c0.734,2.574-2.329,4.413-7.967,5.761c-5.517,0.98-8.702-2.45-4.535-3.922c5.883-2.084-1.349-4.045-7.723-3.677
		C98.964,281.292,89.771,279.7,93.203,279.944L93.203,279.944z"/>
	<path fill="#F4D996" d="M1.89,134.948c33.216,1.226,175.148,0.734,175.639,1.961c1.228,2.084,0.246,17.648-1.838,21.694
		c-1.961,2.206-2.696,2.695-2.696,2.695c-12.012,33.462-42.775,52.46-69.373,57.484c0,2.205-0.858,4.168-3.801,5.147
		c-2.94,5.394-3.554,37.138,3.556,47.801c2.329,1.104,2.695,1.104,4.412,2.084c2.573,1.349,4.045,3.433,0.612,5.271
		c-7.477,4.534-29.048,4.412-37.138,0.734c-3.8-2.084-3.187-5.024,0.245-6.128c3.555-1.349,4.045-1.962,5.025-2.818
		c2.696-6.251,8.947-33.461,2.45-47.066c-2.94-0.979-4.534-2.696-5.146-5.271C20.397,204.933,9.979,163.75,5.813,159.46
		c-2.329-0.98-3.187-2.329-3.187-2.329C-1.419,149.288-0.071,136.05,1.89,134.948L1.89,134.948z"/>
	<path fill="#969A9D" d="M91.977,164.976c48.782,0.245,84.694-12.502,85.798-26.105c0.122-1.228-0.246-2.33-0.857-3.434
		c-6.006-12.134-42.898-21.571-87.392-21.693c-48.781-0.245-88.493,10.663-88.493,24.269
		C0.91,151.616,45.892,164.731,91.977,164.976L91.977,164.976z"/>
	<path fill="#858789" d="M49.937,159.215c14.096,2.696,28.682,3.677,41.551,3.31c44.247-1.349,82.488-10.051,82.488-23.165
		s-37.874-23.9-84.693-24.146C42.337,114.968-1.419,126,2.503,138.501C5.077,147.081,30.694,155.539,49.937,159.215L49.937,159.215z
		"/>
	<path fill="#DEB669" d="M99.577,224.421c-3.064,11.397-2.819,40.938,4.167,49.517c7.477,3.311,9.683,5.517,2.573,8.58
		c-5.024,1.716-11.521,2.329-16.915,2.329c-8.702-0.123-14.952-1.471-17.281-2.942c-1.838-1.348-4.29-3.677-0.245-5.76
		c3.922-1.594,5.146-2.329,5.883-4.168c0.735-1.716,3.31-12.992,3.31-12.992c0,12.259-0.367,12.87,3.188,14.586
		c3.677,1.84,12.992,2.574,12.992-1.349C97.248,268.3,89.648,235.33,99.577,224.421L99.577,224.421z"/>
	<path fill="#836340" d="M75.431,217.435c8.58,1.593,17.037,1.716,27.945,0.367c-0.245,1.594-1.349,4.535-6.986,5.271
		c-4.78,0.612-10.786,0-13.481-0.368C77.146,221.97,75.063,219.396,75.431,217.435L75.431,217.435z"/>
	<path fill="#725434" d="M160.493,133.354c3.31,1.227,9.929,1.104,13.604,11.521c-30.519,26.353-147.203,23.288-170.124-1.838
		c4.535-6.986,9.928-7.478,13.482-11.154C25.546,130.535,154.119,132.005,160.493,133.354L160.493,133.354z"/>
	<path fill="#56412B" d="M148.481,130.535c31.989,7.599,8.457,18.875,4.412,20.224c-4.044,1.348-20.591,2.206-33.583,5.393
		c-13.115,3.064-40.08,4.046-49.64,2.206c-6.251-1.103-7.6-3.554-24.269-4.412c-16.669-0.979-30.642-9.069-31.989-11.767
		c-1.839-3.677-6.986-8.947,19.364-14.34L148.481,130.535z"/>
	<path fill="#F8EBBE" d="M161.105,141.076c6.864-7.479-4.535-12.258-7.844-13.729c-4.903-2.206-12.501-1.838-13.36-6.741
		c-0.856-4.901-12.991-20.101-18.875-21.448c-5.761-1.349-3.432-1.839-5.393-5.147c-1.961-3.432-4.902-14.096-13.483-18.508
		c-2.329-2.329-5.023-6.863-7.721-6.863c-3.187,0.49-4.044,0-1.838,1.838c2.329,1.839,4.044,8.58-4.413,10.909
		c-8.58,2.206-15.811,9.438-17.527,13.114c-1.839,3.555-5.884,5.271-10.908,6.251c-4.902,0.856-15.321,5.883-18.875,13.973
		c-3.678,8.212-7.478,9.315-12.992,10.418c-2.819,0.49-18.508,5.762-14.953,12.135c4.044,7.108,15.565,9.192,26.842,10.541
		c17.159,1.961,25.739-0.489,38.978,2.451c13.359,3.063,28.189,2.819,36.893,1.349c8.457-1.349,23.778-3.188,29.661-4.289
		C151.667,146.223,156.203,145.243,161.105,141.076L161.105,141.076z"/>
	<path fill="#D7B57B" d="M99.086,132.496c7.845,0,34.441,2.084,39.958-6.129c1.716-2.573,1.471-6.618-1.838-10.663
		C137.94,122.935,134.263,129.799,99.086,132.496L99.086,132.496z"/>
	<path fill="#F6E09D" d="M3.729,143.037c7.478,4.044,20.591,7.844,36.648,10.418c42.408,6.496,104.427,6.006,132.985-8.702
		c1.349,3.554,0.367,17.159-6.986,20.469c-2.819,10.663-22.063,38.854-62.265,47.188c-8.702-1.227-12.379-1.595-17.036-1.472
		c-5.148,0.245-10.418,1.472-12.625,1.227c-9.684-1.716-48.659-15.936-61.774-48.659C3.729,158.235,4.341,150.635,3.729,143.037
		L3.729,143.037z"/>
	<path fill="#F6E9D2" d="M8.631,145.978c3.922,1.716,12.502,4.78,24.514,6.863c-0.368,2.697,0.122,9.193,2.451,13.36
		c-3.063-0.613-11.521-2.696-18.508-5.394C11.94,158.235,8.631,148.429,8.631,145.978L8.631,145.978z"/>
	<path fill="#FFFFFF" d="M26.894,159.46c-1.961-0.49-8.334-2.083-12.747-3.922c-2.452-2.329-4.045-6.986-4.045-8.702
		c4.29,1.593,6.864,2.696,14.463,4.289C24.32,152.964,25.423,156.641,26.894,159.46L26.894,159.46z"/>
	<path fill="#F1E3C0" d="M139.901,120.24c4.535,0.856,7.601,1.716,10.787,2.695c4.535,1.35,8.457,2.819,11.645,4.412
		c8.211,3.923,12.012,8.335,11.644,12.502c-0.734,7.109-18.876,15.321-39.467,18.998c-12.747,2.329-26.229,3.8-42.041,4.167
		c-19.365,0.368-43.511-3.309-50.252-4.779c-17.772-3.678-36.771-11.645-37.505-19.12c-0.613-6.252,11.031-14.341,33.46-18.631
		c0.491-0.734,0.245-1.594,0.735-2.328C15.373,122.445,1.89,129.554,0.91,138.87c-1.717,15.319,47.556,27.454,88.371,27.454
		c49.271-0.245,87.758-13.236,88.493-26.965c0.244-5.639-6.251-11.276-18.386-15.565c-2.94-1.227-6.25-2.206-9.805-3.188
		c-3.31-0.734-6.619-1.593-10.418-2.206C139.411,118.768,139.901,120.116,139.901,120.24L139.901,120.24z"/>
	<path fill="#D7B57B" d="M24.443,128.451c-16.792,1.104-18.999,18.018,26.598,19.61c14.217,0,19.854-0.245,28.681,1.716
		c5.883,1.472,17.282,3.801,34.809,1.717c0.491,0,6.987-1.104,7.601-1.227c5.393-0.612,13.481-1.839,24.513-3.678
		c5.639-0.735,10.541-2.696,13.36-5.147c4.044-3.31,5.516-8.701-6.006-13.359c2.696,5.024,1.594,9.684-15.443,13.115
		c-32.848,6.863-43.757,3.922-61.161-1.35c-17.405-5.146-28.804,0.98-39.222-1.348C31.919,137.276,22.236,136.54,24.443,128.451
		L24.443,128.451z"/>
	<path fill="#D7B57B" d="M90.016,106.388c11.645,1.227,31.01,0.613,24.27-12.624C113.182,99.403,117.594,104.06,90.016,106.388
		L90.016,106.388z"/>
	<path fill="#F8EBBE" d="M77.024,105.898c-3.432-0.489-5.024-2.572-8.946-4.044c-4.413-1.716-2.819-2.084,0.123-2.94
		c1.961-3.923,4.902-1.227,6.618,0.367c2.206,1.961,1.839,1.839,6.374,4.045C87.933,105.776,84.378,106.879,77.024,105.898
		L77.024,105.898z"/>
	<path fill="#F2E0AE" d="M76.779,105.163c-3.309-0.612-4.534-2.328-7.722-3.678c-4.167-1.839-2.696-2.083,0.123-2.205
		c0.858-3.433,3.432-1.35,5.025,0.244c2.084,1.961,1.716,1.595,6.251,3.923C86.584,105.408,83.52,106.388,76.779,105.163
		L76.779,105.163z"/>
	<path fill="#EBD39E" d="M76.656,104.55c-3.188-0.858-4.168-2.329-6.374-3.31c-4.29-2.084-2.941-2.328,0-1.595
		c-0.245-2.94,1.961-1.471,3.432,0.123c1.961,2.084,1.593,1.35,6.128,3.8C85.359,105.286,82.785,105.898,76.656,104.55
		L76.656,104.55z"/>
	<path fill="#E4C992" d="M76.534,103.937c-3.31-0.979-3.923-2.206-5.271-3.063c-4.045-2.206-2.819-2.328,0-0.857
		c-1.226-2.451,0.613-1.471,1.838,0c1.716,2.083,1.472,1.104,6.128,3.677C84.256,104.917,81.927,105.408,76.534,103.937
		L76.534,103.937z"/>
	<path fill="#F8EBBE" d="M45.646,128.819c-3.432-0.123-5.27-1.962-9.314-3.188c-4.412-1.226-2.942-1.716-0.123-2.818
		c1.471-4.168,4.658-1.717,6.619-0.245c2.451,1.717,2.083,1.717,6.618,3.433C56.433,127.838,53.123,129.186,45.646,128.819
		L45.646,128.819z"/>
	<path fill="#F2E0AE" d="M45.279,128.206c-3.31-0.367-4.779-1.961-7.844-2.941c-4.413-1.471-3.063-1.961-0.246-2.206
		c0.613-3.555,3.311-1.594,5.148-0.123c2.206,1.716,1.839,1.35,6.496,3.188C55.207,127.715,52.143,128.819,45.279,128.206
		L45.279,128.206z"/>
	<path fill="#EBD39E" d="M45.156,127.593c-3.311-0.49-4.413-1.839-6.618-2.697c-4.413-1.593-3.064-1.961-0.246-1.593
		c-0.49-2.941,1.961-1.594,3.432-0.123c2.083,1.839,1.838,1.104,6.496,3.188C53.859,127.47,51.407,128.451,45.156,127.593
		L45.156,127.593z"/>
	<path fill="#E4C992" d="M44.911,126.857c-3.188-0.489-4.044-1.716-5.394-2.328c-4.167-1.839-3.063-2.206,0-0.857
		c-1.593-2.451,0.368-1.716,1.716-0.245c1.84,1.839,1.472,0.98,6.374,3.064C52.633,127.347,50.549,128.083,44.911,126.857
		L44.911,126.857z"/>
	<path fill="#F8EBBE" d="M43.808,116.684c1.104-6.741,9.562-14.463,16.669-13.973c7.231,0.49,6.128,8.09,2.451,14.463
		C58.394,125.141,42.705,129.186,43.808,116.684L43.808,116.684z"/>
	<path fill="#F8EBBE" d="M88.668,90.578c-2.696,1.103-4.412,2.94-4.903,5.883c-0.49,2.941-7.23,2.941-8.089-2.696
		c-0.981-5.638,8.947-8.825,13.972-9.928C96.39,81.875,91.242,89.474,88.668,90.578L88.668,90.578z"/>
	<path fill="#F8EBBE" d="M109.382,86.533c2.206,1.961,4.903,8.823,0,11.644c-5.025,3.064-9.315,3.432-12.502,2.329
		c-3.188-1.104,1.348-4.902,4.535-5.394c3.187-0.49,4.779-4.045,4.779-5.639S105.827,84.327,109.382,86.533L109.382,86.533z"/>
	<path fill="#F8EBBE" d="M123.967,107.247c6.006-2.696,13.973,6.618,2.451,13.358c-2.696,1.962-20.224,4.045-10.295-1.593
		c5.393-2.819,7.354-6.006,6.863-6.864C122.006,110.556,121.639,108.472,123.967,107.247L123.967,107.247z"/>
	<path fill="#FBF1C9" d="M61.826,116.194c-4.044,7.109-18.019,10.663-17.037-0.366c0.979-6.007,8.457-12.87,14.831-12.38
		C65.993,103.815,65.013,110.556,61.826,116.194L61.826,116.194z"/>
	<path fill="#FBF1CE" d="M60.6,115.213c-3.555,6.251-15.688,9.438-14.831-0.245c0.858-5.271,7.354-11.398,12.992-10.908
		C64.277,104.428,63.419,110.311,60.6,115.213L60.6,115.213z"/>
	<path fill="#FFF6D6" d="M59.497,114.355c-3.064,5.271-13.729,7.968-12.87-0.366c0.734-4.535,6.251-9.684,11.154-9.438
		C62.561,104.917,61.948,110.065,59.497,114.355L59.497,114.355z"/>
	<path fill="#FFF9E2" d="M47.608,113.007c0.49-3.677,5.271-8.09,9.315-7.845s3.432,4.657,1.349,8.09
		C55.697,117.788,46.872,119.994,47.608,113.007L47.608,113.007z"/>
	<path fill="#FBF1C9" d="M102.028,95.357c2.819-0.366,4.29-3.799,4.29-5.27c0-1.472,0-4.658,3.064-2.574
		c1.839,1.716,3.922,7.844-0.49,10.418s-8.089,2.941-10.909,1.962C95.164,98.913,99.208,95.725,102.028,95.357L102.028,95.357z"/>
	<path fill="#FBF1CE" d="M102.641,95.603c2.329-0.246,4.044-3.678,4.044-5.024c0-1.227,0-4.045,2.697-2.206
		c1.716,1.471,2.819,7.107-0.98,9.314c-3.922,2.328-6.863,2.451-9.314,1.594C96.636,98.422,100.067,95.97,102.641,95.603
		L102.641,95.603z"/>
	<path fill="#FFF6D6" d="M103.131,95.97c2.206-0.367,3.922-3.677,3.922-4.78c0-0.979,0-3.554,2.329-1.961
		c1.349,1.35,1.839,6.251-1.471,8.09c-3.311,2.084-5.639,2.206-7.845,1.349C98.105,97.931,101.047,96.215,103.131,95.97
		L103.131,95.97z"/>
	<path fill="#FFF9E2" d="M109.382,90.087c1.226,1.103,0.858,5.393-1.838,7.107c-2.819,1.472-4.535,1.595-6.251,0.98
		c-1.838-0.612,0.734-1.716,2.451-1.961c1.839-0.245,3.555-3.554,3.555-4.535C107.298,90.823,107.421,88.862,109.382,90.087
		L109.382,90.087z"/>
	<path fill="#FBF1C9" d="M124.335,107.615c5.638-1.961,12.257,6.251,1.838,12.502c-2.451,1.839-17.896,3.678-9.192-1.227
		c5.148-2.696,6.864-5.27,6.619-6.495C122.864,110.678,122.129,108.717,124.335,107.615L124.335,107.615z"/>
	<path fill="#FBF1CE" d="M124.826,108.105c5.146-1.472,10.541,6.128,1.103,11.645c-2.084,1.471-15.688,3.31-7.844-1.104
		c4.657-2.451,6.128-4.29,6.128-6.128C123.722,110.801,122.497,109.085,124.826,108.105L124.826,108.105z"/>
	<path fill="#FFF6D6" d="M125.316,108.595c4.535-0.98,8.702,5.76,0.367,10.663c-1.716,1.348-13.237,3.063-6.496-0.735
		c4.167-2.45,5.516-3.555,5.516-5.884C124.58,111.046,122.864,109.453,125.316,108.595L125.316,108.595z"/>
	<path fill="#FFF9E2" d="M125.806,108.962c4.045-0.367,7.109,5.639-0.245,9.928c-1.471,1.104-11.031,2.697-5.393-0.49
		c3.922-2.45,4.902-2.695,5.147-5.638C125.438,111.168,123.354,109.821,125.806,108.962L125.806,108.962z"/>
	<path fill="#FBF1C9" d="M87.565,90.578c-2.329,0.979-3.922,2.572-4.413,5.146c-0.367,2.574-6.374,2.574-7.108-2.451
		c-0.858-4.901,7.967-7.722,12.502-8.824C94.551,82.611,89.894,89.597,87.565,90.578L87.565,90.578z"/>
	<path fill="#FBF1CE" d="M86.584,90.455c-2.084,0.857-3.555,2.329-3.922,4.657c-0.245,2.206-5.517,2.206-6.251-2.206
		c-0.735-4.412,6.985-6.741,11.03-7.723C92.59,83.591,88.668,89.597,86.584,90.455L86.584,90.455z"/>
	<path fill="#FFF6D6" d="M85.481,90.333c-1.716,0.734-2.941,2.083-3.31,3.922c-0.245,1.961-4.78,1.961-5.517-1.839
		c-0.489-3.677,6.129-5.883,9.561-6.495C90.629,84.449,87.32,89.719,85.481,90.333L85.481,90.333z"/>
	<path fill="#FFF9E2" d="M84.5,90.333c-1.593,0.611-2.574,1.593-2.819,3.309c-0.245,1.594-4.045,1.594-4.535-1.593
		c-0.489-3.064,5.025-4.902,7.967-5.516C88.791,85.307,85.972,89.719,84.5,90.333L84.5,90.333z"/>
	<path fill="#F6E9D2" d="M74.818,208.365c-22.797-6.986-28.681-10.174-35.913-14.83c-7.23-4.413-18.997-17.405-20.346-19.366
		c-3.187-4.535-2.207-5.639,3.188-4.29c3.554,0.857,11.521,2.207,13.481,3.433c3.677,2.451,6.496,9.314,12.625,15.565
		C53.736,194.637,55.575,197.333,74.818,208.365L74.818,208.365z"/>
	<path fill="#F7D086" d="M105.827,213.512c18.63-5.76,27.7-11.644,35.055-17.282c7.354-5.515,18.875-20.346,20.346-24.021
		c0.98-2.574,3.799-6.986-1.226-5.025c-4.29,1.839-10.663,2.696-14.953,3.8c-5.148,1.594-4.413,12.258-10.787,19.855
		C128.257,198.069,125.07,202.481,105.827,213.512L105.827,213.512z"/>
	<path fill="#F7D086" d="M171.891,147.081c0,5.639-1.349,8.947-4.044,14.586c-3.555,2.329-20.347,6.619-20.347,6.619
		c2.818-3.556,5.516-10.664,5.024-14.586C160.125,151.616,167.478,149.656,171.891,147.081L171.891,147.081z"/>
	<path fill="#FFFFFF" d="M35.841,179.562c4.78,7.108,12.502,17.896,16.669,21.693c-12.256-6.618-20.836-16.791-24.146-20.959
		c-2.695-3.31-5.147-4.779-5.516-8.211C22.849,167.672,30.448,173.188,35.841,179.562L35.841,179.562z"/>
	<path fill="#FEF3CE" d="M8.999,146.468c2.818,1.471,8.212,6.373,27.21,11.031c4.658,1.226,7.844,2.573,7.844,2.573
		c-7.354-0.98-9.192-1.594-15.566-3.433c-7.23-2.206-14.831-5.761-17.281-7.23C7.651,147.204,8.754,146.59,8.999,146.468
		L8.999,146.468z"/>
	<path fill="#F7FBFE" d="M90.874,215.106c4.29,0,9.438,0.49,10.786,0.613c1.961,0.122,1.226,1.348-6.986,1.471
		c-7.967,0.367-9.192,0-11.767,0c-4.413,0-9.192-0.979-3.923-1.594C83.397,215.229,88.178,215.229,90.874,215.106L90.874,215.106z"
		/>
	<path fill="#836340" d="M78.985,216.332c5.517-2.206,15.321-2.084,21.205,0.123C94.306,216.455,86.339,215.841,78.985,216.332
		L78.985,216.332z"/>
	<path fill="#F7FBFE" d="M81.682,225.157c3.554,9.069,1.716,34.563-2.574,47.064c-0.123,1.716,1.227,1.349,1.838,0
		c0.735-1.348,4.045-21.817,4.045-25.494c0-3.799,0.49-11.889-0.49-15.198C83.643,228.588,83.152,227.73,81.682,225.157
		L81.682,225.157z"/>
	<path fill="#F7FBFE" d="M76.902,218.783c0.245,1.594,1.717,2.084,4.902,3.678c1.104,0.367,0.735-0.123,0-0.49
		C77.146,220.009,77.515,217.435,76.902,218.783L76.902,218.783z"/>
	<path fill="#F7FBFE" d="M73.959,282.273c-1.716-0.734-7.6-4.167,2.33-7.354c0.734-0.491,1.716-1.472,1.716-1.472
		c0,1.104-0.368,1.716-0.368,1.716C74.328,276.39,67.954,278.228,73.959,282.273L73.959,282.273z"/>
	<path fill="#F7FBFE" d="M41.847,277.125c-4.29,2.451-9.683,6.495-6.618,10.908c1.838,2.695,4.535,6.374,19.733,10.908
		c6.618,2.083,18.875,3.555,22.553,4.044c3.554,0.49,5.883,0.49-1.104-0.611c-6.986-1.227-27.21-6.374-31.255-9.07
		c-4.046-2.696-8.09-5.638-8.09-8.58c0-2.94,1.838-4.78,3.555-6.251C42.46,276.879,45.892,275.042,41.847,277.125L41.847,277.125z"
		/>
	<path fill="#F5EABC" d="M88.178,232.388c0.368,8.824,0.613,30.642,0.123,34.932c-0.368,4.657,3.8,6.007,3.31-0.366
		c-0.49-6.374-1.471-21.817-1.104-26.844c0.491-4.901,0.368-9.069,0.613-10.907C91.61,226.627,85.236,223.686,88.178,232.388
		L88.178,232.388z"/>
	<path fill="#AF7329" d="M83.397,277.371c7.354,0.734,14.463,0,16.302-1.104c1.838-0.979,5.271-0.979,6.74,0.612
		c1.595,1.472,2.942,3.31-4.044,5.024c-6.863,1.84-17.648,1.595-21.694,0.736C76.656,281.783,77.269,277.248,83.397,277.371
		L83.397,277.371z"/>
	<path fill="#FFFFFF" d="M53,273.203c6.006-2.206,13.728-3.063,17.649-4.044c6.373-1.473,6.741-0.123,3.922,0
		c-3.432,0.244-4.779,1.226-6.74,1.348c-1.472,0.123-6.619,1.471-9.684,3.678c-2.451,1.716-5.024,2.573-6.985,4.657
		s-11.276,5.883-9.684,1.838C43.073,276.635,50.549,274.184,53,273.203L53,273.203z"/>
	<polygon fill="#56412B" points="87.565,107.001 93.693,110.188 94.551,116.684 91.977,116.929 87.197,112.762 	"/>
	<path fill="#56412B" d="M112.813,96.951c-0.489-1.227,3.8-2.451,5.025-1.839c2.941,1.227,5.761,4.412,6.741,7.354
		c0.489,1.104-2.819,1.716-3.555,1.226C118.084,102.098,113.794,100.26,112.813,96.951L112.813,96.951z"/>
	<path fill="#56412B" d="M98.718,99.647c-0.98-0.122-3.31,0.981-2.819,1.718c1.839,2.083,4.412,4.044,6.741,4.901
		c0.858,0.245,2.206-3.8,1.839-4.045C103.867,101.608,100.924,99.77,98.718,99.647L98.718,99.647z"/>
	<path fill="#B33814" d="M88.913,59.446c10.418-2.451,16.179-0.122,20.714,7.722c4.413,7.723,0.979,20.837-9.438,24.882
		c-10.296,4.045-17.895,0.49-22.43-6.864C73.102,77.708,73.47,64.838,88.913,59.446L88.913,59.446z"/>
	<path fill="#FBB194" d="M102.641,65.451l0.613,1.962l-1.104-0.123c0.736,4.29,0.368,10.173-0.122,13.236
		c1.84-1.716,4.535-4.779,5.025-6.74c0.491-1.839,0.123-4.535-0.735-6.864C105.459,66.064,104.111,65.574,102.641,65.451
		L102.641,65.451z"/>
	<path fill="#F89473" d="M95.532,65.941c-0.123-0.489-1.594-2.328-1.962-2.695c0.613,0.123,2.329-0.367,2.697,0
		c0.368,0.245,0.613,0.857,0.735,1.471C96.88,64.838,95.899,65.696,95.532,65.941L95.532,65.941z"/>
	<path fill="#F89473" d="M79.598,66.309c-4.044,3.677-5.146,14.218,1.349,22.186C77.515,81.139,77.515,72.928,79.598,66.309
		L79.598,66.309z"/>
	<path fill="#827067" d="M92.59,64.838c0.613,0.245,1.103,0.612,1.103,1.226c0,0.614-1.103,1.227-2.329,1.227
		c-1.226,0-2.205-0.612-2.205-1.227c0-0.613,0.612-0.979,1.348-1.226C89.158,38.976,86.952,19.611,94.919,0l3.432,1.471
		C90.384,20.591,91.732,38.854,92.59,64.838L92.59,64.838z"/>
	<path fill="#FAA583" d="M83.52,64.348c-0.49,0.367-1.103,0.613-1.593,0.98c0.735,2.817,4.658,3.31,8.702,3.187
		C86.584,67.781,83.152,66.921,83.52,64.348L83.52,64.348z"/>
	<path fill="#56412B" d="M77.637,97.441c0-1.103-0.858-0.734-1.103-1.961c-1.961-0.734-4.78-1.103-5.394-0.857
		c0,1.717,0.245,4.168,1.227,5.394C74.328,102.834,77.637,98.79,77.637,97.441L77.637,97.441z"/>
	<path fill="#56412B" d="M78.25,112.762c0-1.104-0.857-0.735-1.104-1.961c-1.961-0.613-4.779-0.98-5.393-0.736
		c0,1.595,0.245,4.046,1.103,5.395C74.94,118.156,78.25,114.111,78.25,112.762L78.25,112.762z"/>
	<path fill="#56412B" d="M68.812,99.157c0-0.98-0.857-0.735-1.104-1.962c-1.96-0.611-4.78-0.979-5.394-0.734
		c0,1.716,0.123,4.045,1.104,5.394C65.502,104.55,68.812,100.505,68.812,99.157L68.812,99.157z"/>
	<path fill="#FFFFFF" d="M171.524,42.409c-6.006,6.006-13.481,17.771-16.425,22.553c4.045-13.36,14.341-23.166,17.773-27.211
		c6.25-6.128,13.604-9.562,12.011-5.394C189.173,31.5,176.671,35.79,171.524,42.409L171.524,42.409z"/>
</g>
</svg>
