<?xml version="1.0" encoding="utf-8"?>
<!-- Generator: Adobe Illustrator 13.0.0, SVG Export Plug-In . SVG Version: 6.00 Build 14948)  -->
<svg version="1.2" baseProfile="tiny" id="Layer_1" xmlns="http://www.w3.org/2000/svg" xmlns:xlink="http://www.w3.org/1999/xlink"
	 x="0px" y="0px" width="349.672px" height="454.742px" viewBox="0 0 349.672 454.742" xml:space="preserve">
<g id="Layer_2">
	<path fill="#AA4F25" d="M197.448,175.018c0,0-0.853-14.944,16.657-23.501c17.759-8.557,27.514-10.068,27.514-10.068
		c-22.012,22.148,4.752,6.796,34.267,8.054c2.251,3.02-7.004,7.802-4.503,10.57c1.251,6.041,28.267,10.852,35.02,12.362
		c-5.003,7.299-30.133,6.326-19.877,23.943c-22.512-14.597-23.629-7.815-19.877,4.518c-33.018-18.121-29.772-4.015-23.028-2.063
		c18.06,5.225,61.636,13.654,64.138,15.164c-23.011-0.503,6.647,13.778,14.401,27.118c-13.757,7.047,12.006,19.127,22.011,24.411
		c-25.013-1.258-1,32.468,5.503,41.024c-18.759-8.809-47.522-24.161-43.271-10.822c-23.762-31.207-30.67-7.762-31.17-2.225
		c-12.008-23.912-30.006-43.873-11.746,11.746c0.75,5.035-29.87-10.023-1.855,20.68c-34.018-9.563,6.753,31.209,9.504,40.771
		c-5.752,3.523-38.018-20.134,2.002,26.68c0.75,3.02-39.02-17.617-9.005,19.379c-18.509-12.584-14.258,29.445-14.258,37.752
		c0.251,5.535-21.011-59.9-31.265-40.27c-10.006-13.591,7.004-37.752-2.252-20.137c0,0,0.75-24.663-0.5-30.2
		c-1.25-5.032-11.506,8.81-11.506,8.81s8.254-21.896,9.004-28.69c1.002-6.796-13.006,11.829-13.006,11.829
		c9.504-85.068-23.73-5.654-17.728,15.738c-3.503-14.346-11.537-42.922-13.537,8.423c-8.255-17.367-23.263,4.782-14.759,25.42
		c-0.499,2.265-15.757-12.082-15.757-12.082c-2.752,8.558,3.501,26.427,1.751,34.983c-2.001-1.258-12.756-12.332-14.507-13.842
		c0,0-1.75,15.604-2.501,18.625c-1,3.018-5.252-0.254-5.252-0.254s-2.501,13.088-3.251,16.107c-0.5,3.021-3.002-2.266-3.002-2.266
		s-1.25,7.805-3.751,11.578c-2.501,3.521-4.502-14.6-4.502-14.6c-1.25,1.008-2.501,2.016-3.752,3.021
		c1.75-21.646,13.506-27.433-12.256-17.869c0,0,13.256-9.563,19.009-18.373c11.255-15.855,2.751-11.073-9.755-6.041
		c8.754-13.338,34.768-36.995,7.004-20.387c6.502-10.567,33.266-40.771,2.75-26.928c3.252-13.088,27.013-29.951,25.763-35.992
		c-2.501-12.078-12.757,6.545-37.268,22.4c18.258-38.506-5.002-19.379-31.516,12.584c7.253-20.889-6.503-4.782-19.51,7.3
		c4.002-18.374-9.004-5.286-11.506-2.771c-2.501,2.518-3.251-2.014-3.251-2.014s-7.003,7.047-18.009,11.326
		C0,370.477,0,370.477,0,370.477s28.264-23.908,31.516-28.188c3.501-3.773-5.253-0.754-5.253-0.754
		c46.023-40.771,5.002-21.393,9.255-27.432c56.027-34.48,33.251-29.704,0.735-22.404c0,0,61.295-32.464,66.547-38.502
		c0,0-10.005,3.774-7.504,2.014c30.516-29.447,4.753-24.664,0.25-18.877c-13.256,2.769-35.017,25.168-39.769,24.16
		c-2.751-8.305,22.761-30.453-12.256-7.297c16.258-22.904-23.262-13.088-33.017-13.088c17.008-7.804,43.272-15.604,29.765-31.209
		c31.515-4.782,31.472-14.302,17.215-23.363c60.279,7.047,56.57,2.977,49.818,1.719c0,0-11.362-2.319-9.612-3.074
		c18.009-14.346,20.116-8.503,4.108-23.101c1.501-0.754-1.25,1.259,0,0c0,0-14.466-1.487-19.468-4.004
		c1.25-0.755,1.008-3.311,2.259-4.066c0,0-10.555-7.03-18.058-11.812c0,0,22.262-3.523,29.265-3.02
		c-1-1.258-1.751-2.517-2.501-3.775c0,0,4.502-0.252,15.757,2.517c11.006,2.517,11.006,2.517,11.006,2.517
		c-2.252-1.762-4.753-3.775-7.254-5.789c0,0,23.011,4.278,30.765,11.326c0,0-4.002-6.292-2-6.292
		C143.57,138.682,202.451,148.34,197.448,175.018z"/>
</g>
<g id="ѓЊѓCѓ_x201E_Ѓ_x5B__3">
	<g>
		<path fill="#F9B218" d="M198.136,176.808c0,0-0.827-14.427,16.181-22.688c17.252-8.261,26.728-9.719,26.728-9.719
			c-21.382,21.381,4.616,6.561,33.287,7.775c2.187,2.916-6.804,7.532-4.374,10.205c1.215,5.831,22.84,9.233,29.399,10.691
			c-4.859,7.046-26.483,2.43-16.521,19.438c-21.867-14.092-22.597-7.775-18.952,4.13c-32.072-17.494-27.697,2.672-20.896,3.159
			c12.393,8.261,56.127,14.092,58.557,15.55c-22.354-0.486,10.205,12.392,17.737,25.27c-13.363,6.803,11.662,18.465,21.381,23.567
			c-24.297-1.215-0.972,31.343,5.346,39.604c-18.223-8.504-46.164-23.326-42.034-10.449c-23.082-30.127-30.127-11.904-30.613-6.559
			c-11.662-23.084-31.828-38.634-14.092,15.063c0.729,4.859-25.998-8.989,1.215,20.652c-33.045-9.232,6.561,30.129,9.231,39.36
			c-5.588,3.401-36.931-19.438,1.944,25.755c0.729,2.916-37.903-17.008-8.747,18.709c-17.979-12.148-13.851,28.428-13.851,36.445
			c0.244,5.346-20.408-57.827-30.371-38.875c-9.719-13.121,6.805-36.445-2.187-19.438c0,0,0.729-23.812-0.485-29.156
			c-1.216-4.859-11.177,8.504-11.177,8.504s8.019-21.139,8.746-27.698c0.974-6.56-12.634,11.42-12.634,11.42
			c9.232-82.124-25.026-13.12-19.194,7.532c-3.401-13.85-9.233-33.773-11.177,15.793c-8.019-16.766-22.597,4.615-14.336,24.54
			c-0.485,2.187-15.307-11.663-15.307-11.663c-2.673,8.262,3.401,25.512,1.701,33.771c-1.944-1.215-12.392-11.904-14.093-13.362
			c0,0-1.7,15.063-2.43,17.979c-0.972,2.916-5.103-0.242-5.103-0.242s-2.43,12.635-3.158,15.549
			c-0.486,2.916-2.916-2.186-2.916-2.186s-1.215,7.531-3.645,11.176c-2.43,3.402-4.373-14.092-4.373-14.092
			c-1.215,0.971-2.43,1.943-3.645,2.916c1.7-20.896,13.12-26.484-11.905-17.252c0,0,12.877-9.232,18.465-17.736
			c10.934-15.308,2.673-10.69-9.476-5.832c8.504-12.877,33.773-35.715,6.804-19.681c6.316-10.204,32.314-39.36,2.672-25.997
			c3.159-12.635,26.241-28.914,25.026-34.744c-2.43-11.662-12.392,6.316-36.202,21.625c17.736-37.176-4.859-18.709-30.614,12.147
			c7.046-20.167-6.317-4.617-18.952,7.046c3.888-17.736-8.747-5.104-11.177-2.673c-2.43,2.43-3.158-1.942-3.158-1.942
			S27.959,357,17.268,361.13c-10.934,4.373-10.934,4.373-10.934,4.373s27.456-23.082,30.614-27.213
			c3.401-3.645-5.103-0.729-5.103-0.729c44.707-39.361,4.859-20.652,8.99-26.482c54.425-33.287,37.903-28.914,6.317-21.867
			c0,0,53.939-31.102,59.041-36.933c0,0-9.719,3.646-7.289,1.943c29.643-28.427,4.617-23.812,0.243-18.224
			c-12.877,2.674-34.016,24.297-38.632,23.326c-2.673-8.019,22.11-29.4-11.905-7.047c15.793-22.109-22.597-12.635-32.072-12.635
			c16.521-7.532,42.034-15.064,28.913-30.128c30.614-4.617,34.016-10.934,20.167-19.681c58.556,6.803,51.509,0,44.949-1.215
			c0,0-8.261-1.944-6.561-2.673c17.494-13.849,16.765-8.504,1.215-22.596c1.458-0.729,2.673-1.701,3.888-2.916
			c0,0-15.064-2.916-19.924-5.345c1.215-0.729,2.43-1.458,3.645-2.187c0,0-14.578-4.13-21.867-8.747c0,0,21.625-3.402,28.428-2.916
			c-0.972-1.215-1.701-2.43-2.43-3.646c0,0,4.373-0.243,15.307,2.43c10.691,2.43,10.691,2.43,10.691,2.43
			c-2.188-1.701-4.617-3.645-7.047-5.588c0,0,22.354,4.13,29.886,10.934c0,0-3.888-6.074-1.943-6.074
			C145.799,141.729,202.995,151.053,198.136,176.808z"/>
		<path fill="#925C5B" d="M195.122,181.09c1.7-1.458,3.401-2.916,5.103-4.616c0.485-3.888,2.672-30.614,4.131-39.118
			c0.972-4.859,1.701-13.606,1.701-22.596c0.241-8.99-0.729-18.223-1.216-23.325c-0.973-8.99-3.646-22.839-6.317-33.044
			c-4.615-12.634-9.961-24.297-13.362-29.885c-8.504-13.363-11.663-31.1-10.934-26.727c-3.401-0.486-6.804-0.729-10.448-1.215
			c-0.485-4.374,6.317,17.737,15.551,31.1c12.634,22.11,21.381,47.622,22.354,74.592
			C202.896,132.496,198.768,158.251,195.122,181.09L195.122,181.09z"/>
	</g>
</g>
<g id="Layer_4">
	<path fill="#FFCE6D" d="M198.632,180.409c0,0-0.587-9.719,11.479-15.284c12.236-5.565,18.959-6.547,18.959-6.547
		c-15.168,14.404,3.275,4.42,23.615,5.238c1.551,1.964-4.828,5.074-3.104,6.875c0.862,3.928,16.203,6.22,20.856,7.202
		c-3.447,4.747-18.789,1.637-11.722,13.095c-15.513-9.494-16.03-5.238-13.444,2.782c-22.752-11.785-19.648,1.8-14.823,2.128
		c8.791,5.565,39.815,9.494,41.54,10.475c-15.856-0.327,7.238,8.348,12.582,17.022c-9.479,4.584,8.273,12.44,15.169,15.877
		c-17.236-0.817-0.689,21.115,3.792,26.681c-12.928-5.729-32.749-15.713-29.819-7.039c-16.374-20.295-21.373-8.02-21.717-4.418
		c-8.274-15.551-22.58-26.025-9.998,10.147c0.517,3.272-18.442-6.056,0.862,13.912c-23.441-6.22,4.654,20.297,6.549,26.517
		c-3.965,2.291-26.198-13.095,1.38,17.35c0.517,1.966-26.89-11.457-6.205,12.604c-12.755-8.185-9.825,19.149-9.825,24.554
		c0.174,3.6-14.479-38.957-21.546-26.189c-6.894-8.84,4.827-24.553-1.551-13.096c0,0,0.517-16.039-0.345-19.642
		c-0.862-3.272-7.93,5.729-7.93,5.729s5.688-14.239,6.205-18.659c0.689-4.419-8.963,7.692-8.963,7.692
		c6.551-55.324-17.754-8.838-13.615,5.074c-2.414-9.33-6.552-22.752-7.93,10.641c-5.688-11.295-16.03,3.109-10.17,16.531
		c-0.345,1.473-10.858-7.857-10.858-7.857c-1.896,5.564,2.412,17.188,1.206,22.752c-1.379-0.818-8.79-8.021-9.997-9.003
		c0,0-1.206,10.147-1.724,12.112c-0.689,1.965-3.62-0.164-3.62-0.164s-1.724,8.513-2.24,10.477
		c-0.345,1.964-2.068-1.473-2.068-1.473s-0.862,5.074-2.586,7.529c-1.724,2.291-3.102-9.494-3.102-9.494
		c-0.862,0.654-1.725,1.31-2.586,1.965c1.206-14.077,9.308-17.842-8.446-11.622c0,0,9.135-6.22,13.099-11.948
		c7.757-10.313,1.896-7.202-6.722-3.93c6.032-8.674,23.959-24.061,4.826-13.258c4.48-6.873,22.924-26.516,1.896-17.514
		c2.241-8.512,18.616-19.479,17.754-23.406c-1.724-7.855-8.79,4.256-25.682,14.568c12.583-25.044-3.447-12.604-21.718,8.184
		c4.999-13.586-4.481-3.109-13.445,4.746c2.758-11.947-6.205-3.437-7.929-1.8c-1.724,1.638-2.24-1.31-2.24-1.31
		s-4.826,4.583-12.411,7.365c-7.756,2.945-7.756,2.945-7.756,2.945s19.478-15.55,21.718-18.332c2.413-2.455-3.62-0.49-3.62-0.49
		c31.715-26.518,3.447-13.914,6.378-17.842c38.609-22.424,26.889-19.479,4.481-14.73c0,0,38.265-20.951,41.884-24.879
		c0,0-6.895,2.455-5.171,1.309c21.029-19.15,3.275-16.04,0.172-12.275c-9.135,1.801-24.13,16.369-27.405,15.712
		c-1.896-5.399,15.685-19.804-8.446-4.746c11.204-14.896-16.03-8.511-22.752-8.511c11.72-5.074,29.819-10.148,20.511-20.296
		c21.718-3.11,24.131-7.366,14.307-13.258c41.54,4.583,36.541,0,31.887-0.818c0,0-5.86-1.31-4.654-1.801
		c12.411-9.33,11.894-5.729,0.862-15.222c1.034-0.491,1.896-1.146,2.758-1.964c0,0-10.687-1.964-14.134-3.601
		c0.862-0.491,1.724-0.982,2.585-1.473c0,0-10.342-2.783-15.513-5.893c0,0,15.341-2.292,20.167-1.964
		c-0.689-0.818-1.207-1.637-1.724-2.455c0,0,3.103-0.164,10.858,1.637c7.584,1.637,7.584,1.637,7.584,1.637
		c-1.551-1.146-3.275-2.455-4.998-3.765c0,0,15.857,2.782,21.201,7.366c0,0-2.759-4.092-1.379-4.092
		C161.504,156.777,202.079,163.059,198.632,180.409z"/>
</g>
<g id="Layer_5">
</g>
<g id="Layer_3">
	<path fill="#FEEDA3" d="M13.87,360.24c-0.729-0.242-0.972-0.484-0.972-1.215l1.944,0.243c0,0.729-1.215-1.215-0.729-0.972
		L13.87,360.24z M14.843,359.269L14.843,359.269H13.87H14.843z M12.898,359.025c0.243-0.972,6.804-6.561,17.494-15.55l1.458,1.458
		c-10.448,8.747-16.766,14.335-17.008,14.335L12.898,359.025z M30.393,343.476c40.818-34.744,141.895-120.756,163.275-164.733
		l1.701,0.729c-21.382,44.463-122.7,130.717-163.519,165.462L30.393,343.476z M193.911,178.256l1.458,1.215l-0.973-0.486
		L193.911,178.256z M195.126,179.957c-18.952,13.363-43.978,24.297-72.648,33.287l-0.729-1.944
		c28.67-8.99,53.453-19.681,72.162-33.044L195.126,179.957z M122.478,213.244c-28.913,9.233-61.714,16.521-95.973,22.839
		l-0.243-1.943c34.016-6.317,66.816-13.606,95.487-22.839L122.478,213.244z"/>
	<path fill="#FEEDA3" d="M196.584,180.686L196.584,180.686l-0.729-1.944l0,0L196.584,180.686z M195.854,178.742L195.854,178.742
		l0.244,0.972L195.854,178.742z M196.584,180.686c-1.701,0.729-10.934-2.672-24.54-7.532l0.729-1.701
		c13.12,4.617,22.11,7.775,23.083,7.289L196.584,180.686z M172.044,173.154c-24.297-8.504-63.415-22.597-98.646-28.671l0.242-1.943
		c35.474,6.317,74.592,20.167,99.132,28.913L172.044,173.154z"/>
	<path fill="#FEEDA3" d="M242.991,435.804c2.672-59.041-17.494-156.715-33.773-213.57l1.944-0.486
		c16.277,56.854,36.445,154.771,33.771,214.056H242.991z M209.218,222.234c-3.888-13.606-7.532-25.026-10.69-32.801l1.943-0.729
		c2.916,7.775,6.805,19.194,10.691,33.044L209.218,222.234z M198.527,189.433c-2.916-7.532-4.859-11.663-5.832-11.419l-0.242-1.944
		c1.943-0.243,4.615,4.374,8.018,12.634L198.527,189.433z M192.695,178.014C192.453,178.014,192.695,177.771,192.695,178.014
		l-1.215-1.701c0.244-0.243,0.485-0.243,0.973-0.243L192.695,178.014z M191.238,177.042v-0.486l0.242-0.243l0.729,0.729H191.238z
		 M193.182,177.042c0,36.445-4.858,70.217-18.223,111.523l-1.943-0.485c13.121-41.063,18.223-74.834,18.223-111.038H193.182z
		 M174.959,288.564c-13.363,41.305-34.987,89.898-68.518,155.986l-1.7-0.973c33.529-65.845,55.154-114.438,68.274-155.5
		L174.959,288.564z"/>
	<path fill="#FEEDA3" d="M334.348,299.255L334.348,299.255l1.7-0.973l0,0L334.348,299.255z M336.048,298.283L336.048,298.283
		l-0.729,0.486L336.048,298.283z M334.348,299.255c-3.401-6.074-7.774-12.635-12.878-18.951l1.701-1.215
		c4.859,6.561,9.232,12.877,12.877,19.193L334.348,299.255z M321.47,280.304c-4.858-6.317-10.446-12.879-16.521-19.194l1.215-1.458
		c6.317,6.561,11.905,12.877,17.008,19.438L321.47,280.304z M304.948,261.109c-31.587-33.044-75.808-64.387-112.495-82.367
		l0.972-1.701c36.933,17.98,81.396,49.566,112.738,82.61L304.948,261.109z M192.453,178.742l-1.943-0.972l1.943-0.972l0.486,0.972
		L192.453,178.742z M192.453,176.799c28.67-11.42,66.331-8.018,85.281-4.86l-0.484,1.944c-18.466-2.916-55.641-6.56-84.068,4.859
		L192.453,176.799z M277.734,171.939c3.646,0.729,6.562,1.215,8.748,1.701l-0.486,1.944c-1.943-0.486-5.102-0.972-8.746-1.701
		L277.734,171.939z M286.482,173.64c2.672,0.486,3.888,1.458,3.888,1.944l-1.944-0.486c0-0.486-0.972,0.729-2.43,0.486
		L286.482,173.64z M290.37,175.584L290.37,175.584l-0.972-0.243L290.37,175.584z M290.37,175.584
		c-0.243,0.486-0.486,0.486-0.729,0.729l-0.729-1.943c0.242,0-0.729,0.972-0.486,0.729L290.37,175.584z"/>
</g>
</svg>
