<?xml version="1.0" encoding="utf-8"?>
<!-- Generator: Adobe Illustrator 13.0.0, SVG Export Plug-In . SVG Version: 6.00 Build 14948)  -->
<svg version="1.2" baseProfile="tiny" id="Layer_9" xmlns="http://www.w3.org/2000/svg" xmlns:xlink="http://www.w3.org/1999/xlink"
	 x="0px" y="0px" width="339.166px" height="299.562px" viewBox="0 0 339.166 299.562" xml:space="preserve">
<g>
	<path fill-rule="evenodd" fill="#60BFF3" d="M58.817,263.396c-18.798,7.97-22.842,9.278-32.479,19.391
		c-29.028,3.568-42.233,17.012,3.926,16.772c46.159-0.118,246.261-1.545,277.311-3.21c51.275,0,29.623-4.761,8.21-16.3
		c1.308-10.825,10.468-19.512,2.497-20.938C229.535,258.635,101.168,261.132,58.817,263.396L58.817,263.396z"/>
	
		<polygon fill-rule="evenodd" fill="#FFFFFF" stroke="#FFFFFF" stroke-width="0" stroke-linecap="square" stroke-miterlimit="10" points="
		45.731,267.795 119.966,267.795 65.24,269.342 27.29,270.531 15.631,270.531 45.731,267.795 	"/>
	
		<polygon fill-rule="evenodd" fill="#FFFFFF" stroke="#FFFFFF" stroke-width="0" stroke-linecap="square" stroke-miterlimit="10" points="
		41.09,275.887 91.294,275.887 36.213,281.238 41.09,275.887 	"/>
	<polygon fill-rule="evenodd" fill="#FFFFFF" points="66.549,288.732 129.246,288.732 70.355,291.47 66.549,288.732 	"/>
	<polygon fill-rule="evenodd" fill="#ABDC7D" points="178.022,64.125 145.663,145.854 136.978,165.722 131.03,182.021 
		127.104,207.24 123.297,226.989 114.851,249.593 107.354,267.2 121.988,234.96 131.03,214.38 136.501,204.625 148.398,185.947 
		156.25,168.459 160.177,140.857 166.244,105.644 175.405,73.522 178.022,64.125 	"/>
	<polygon fill-rule="evenodd" fill="#FFFFFF" points="147.447,149.186 140.428,172.861 133.765,193.323 131.03,205.102 
		129.364,213.785 140.428,194.631 147.447,180.592 153.039,167.029 156.25,151.328 151.611,164.533 144.235,182.734 
		136.501,196.533 133.765,201.175 134.241,198.675 141.022,176.666 145.663,158.464 151.611,140.145 147.447,149.186 	"/>
	<polyline fill="none" stroke="#716F6E" stroke-width="0" stroke-linecap="square" stroke-miterlimit="10" points="133.29,222.469 
		155.061,232.939 178.735,241.98 265.462,273.744 	"/>
	<path fill-rule="evenodd" fill="#A9DA69" d="M178.498,7.376c18.082,86.253,35.927,144.902,50.68,220.565l6.544,7.971
		l-61.626,20.226l3.927-248.762H178.498L178.498,7.376z"/>
	
		<polygon fill-rule="evenodd" fill="#4E4B49" stroke="#4E4B49" stroke-width="0" stroke-linecap="square" stroke-miterlimit="10" points="
		172.073,263.99 178.022,1.311 178.735,0 179.449,0 180.282,0.834 176.118,271.244 172.073,263.99 	"/>
	
		<line fill="none" stroke="#716F6E" stroke-width="0" stroke-linecap="square" stroke-miterlimit="10" x1="179.449" y1="1.311" x2="234.173" y2="236.625"/>
	<polyline fill="none" stroke="#716F6E" stroke-width="0" stroke-linecap="square" stroke-miterlimit="10" points="178.022,1.311 
		166.838,58.771 158.154,65.552 	"/>
	
		<line fill="none" stroke="#716F6E" stroke-width="0" stroke-linecap="square" stroke-miterlimit="10" x1="166.838" y1="58.294" x2="176.118" y2="62.102"/>
	<path fill-rule="evenodd" fill="#F9AB46" d="M176.118,63.649l-16.656,0.476C67.144,77.33,53.82,143.594,73.212,215.806l3.807,7.853
		l3.45,3.926l1.904,1.429h3.332l3.806-2.023l7.376-1.902l30.932,3.331l9.755-1.189l9.28,2.021l5.234,0.595l-5.234-4.64
		c-8.329-48.182-5.592-122.061,25.22-159.653L176.118,63.649L176.118,63.649z"/>
	<path fill-rule="evenodd" fill="#F57E56" d="M82.016,104.691c-6.901,9.876-11.54,21.057-14.039,33.074
		c25.34-0.476,55.677,2.734,76.139,9.755c1.071-10.826,2.737-21.651,5.235-31.882C130.673,108.976,104.143,104.931,82.016,104.691
		L82.016,104.691z"/>
	<path fill-rule="evenodd" fill="#93CE5C" d="M68.333,136.1c-2.259,10.349-3.093,21.412-2.735,32.954
		c26.292-0.953,57.341,1.665,77.208,8.684c0-10.826,0.476-21.888,1.547-32.835C123.297,137.884,92.128,134.553,68.333,136.1
		L68.333,136.1z"/>
	<path fill-rule="evenodd" fill="#E8932A" d="M167.432,67.099c-48.181,24.506-42.232,84.466-47.823,129.792
		c-4.879,11.66-29.742,10.471-44.137,9.278l-0.477,1.071l5.83,13.326c13.324,1.308,41.28-1.784,58.292,2.497l-3.212-28.551
		C138.644,155.133,133.646,94.937,167.432,67.099L167.432,67.099z"/>
	
		<polygon fill-rule="evenodd" fill="#716F6E" stroke="#716F6E" stroke-width="0" stroke-linecap="square" stroke-miterlimit="10" points="
		79.517,261.966 104.5,262.798 146.138,263.514 210.024,265.416 274.861,263.99 295.204,263.514 254.874,273.981 87.369,266.724 
		79.517,261.966 	"/>
	<polygon fill-rule="evenodd" fill="#C1A25F" points="142.093,262.798 144.116,260.063 146.853,260.063 200.031,261.371 
		202.053,262.798 201.458,263.99 172.43,266.011 142.093,262.798 	"/>
	<polygon fill-rule="evenodd" fill="#C1A25F" points="79.517,261.966 85.347,267.2 94.03,272.792 103.31,276.359 123.772,280.407 
		182.899,284.57 235.006,283.263 281.879,274.576 289.255,269.937 292.706,266.011 293.182,264.463 294.014,263.514 273.91,266.011 
		233.102,267.2 180.995,268.629 140.189,267.913 105.214,266.011 82.729,263.514 79.517,261.966 	"/>
	<polygon fill-rule="evenodd" fill="#C8B65D" points="142.807,261.966 140.904,266.011 204.194,266.724 202.053,262.798 
		146.138,262.798 144.116,261.966 142.807,261.966 	"/>
	<polygon fill-rule="evenodd" fill="#6AC335" points="180.756,143.354 181.233,211.883 181.233,244.836 185.278,244.836 
		221.444,236.149 202.171,235.317 194.319,234.96 188.967,228.3 181.233,147.997 180.756,143.354 	"/>
	
		<polygon fill-rule="evenodd" fill="#4E4B49" stroke="#4E4B49" stroke-width="0" stroke-linecap="square" stroke-miterlimit="10" points="
		175.523,253.401 234.173,234.365 234.65,234.723 235.363,235.555 234.65,236.983 234.173,237.696 175.523,256.732 175.523,253.401 
			"/>
	<polygon fill-rule="evenodd" fill="#FFFFFF" points="283.902,273.744 293.657,273.031 303.413,273.387 300.915,274.1 
		288.898,274.457 281.641,275.289 277.597,275.528 285.33,274.1 293.182,273.744 301.627,273.744 283.902,273.744 	"/>
	<polygon fill-rule="evenodd" fill="#FFFFFF" points="284.973,277.313 294.49,276.005 304.125,275.528 294.847,276.836 
		283.069,278.741 276.526,279.097 282.712,277.313 283.902,277.671 284.973,277.313 	"/>
	<polygon fill-rule="evenodd" fill="#298FC0" points="92.723,278.741 99.504,276.718 102.121,275.528 103.667,274.457 
		135.431,279.097 163.388,281.833 188.014,282.191 210.856,281.833 231.794,280.286 249.283,278.384 275.456,274.457 283.069,274.1 
		292.111,275.171 246.308,286.473 129.246,287.783 92.723,278.741 	"/>
	<polygon fill-rule="evenodd" fill="#FFFFFF" points="175.046,292.777 249.402,292.777 186.707,296.703 169.693,296.703 
		175.046,292.777 	"/>
	<polygon fill-rule="evenodd" fill="#FFFFFF" points="100.932,275.528 102.478,273.744 103.667,272.197 103.787,271.244 
		104.143,270.89 104.5,272.079 104.62,273.626 105.571,273.387 107.236,272.197 107.949,272.197 107.475,273.744 121.155,276.718 
		126.271,276.836 128.174,277.313 128.531,278.025 132.457,278.025 136.025,278.384 139.951,278.384 138.286,279.097 
		125.558,279.573 123.534,279.097 116.158,279.097 116.158,278.025 114.851,278.025 113.303,277.671 112.59,276.836 
		110.686,276.836 109.615,276.718 108.069,276.359 103.787,276.005 102.834,275.528 101.764,276.005 100.932,275.528 	"/>
	<polygon fill-rule="evenodd" fill="#FFFFFF" points="101.764,274.815 101.764,273.744 101.764,272.197 100.932,271.484 
		101.406,272.792 100.932,274.1 100.335,275.171 100.335,275.528 100.574,275.528 101.764,274.815 	"/>
	<polygon fill-rule="evenodd" fill="#FFFFFF" points="97.838,278.741 99.504,278.741 101.764,278.384 104.5,277.313 
		103.667,278.384 103.667,279.097 105.214,279.097 108.069,279.097 109.021,279.573 111.042,279.931 113.303,279.931 
		110.686,280.286 108.069,280.286 105.214,280.286 105.571,279.931 104.143,279.573 102.478,279.573 99.86,279.573 97.838,279.097 
		95.935,279.097 97.838,278.741 	"/>
	<polygon fill-rule="evenodd" fill="#FFFFFF" points="112.708,280.644 116.873,281.002 122.701,281.356 124.01,281.356 
		118.182,281.833 114.969,281.356 112.708,280.644 	"/>
	<polygon fill-rule="evenodd" fill="#FFFFFF" points="136.383,277.076 138.644,277.671 143.759,279.097 147.327,279.454 
		151.015,280.286 157.202,280.286 159.105,280.763 150.659,281.356 146.02,280.763 142.807,280.286 136.978,279.454 
		133.646,279.097 136.383,277.076 	"/>
	<polygon fill-rule="evenodd" fill="#FFFFFF" points="224.418,281.356 228.345,281.002 232.984,280.644 239.17,279.573 
		244.404,279.097 246.308,278.741 243.453,279.931 240.48,280.286 235.006,280.644 229.891,281.002 224.418,281.356 	"/>
	<polygon fill-rule="evenodd" fill="#FFFFFF" points="245.357,279.573 249.283,278.741 254.041,278.025 269.983,275.528 
		268.317,276.718 259.871,278.384 253.684,278.741 246.308,279.931 245.357,279.573 	"/>
	<polygon fill-rule="evenodd" fill="#FFFFFF" points="259.514,279.097 267.959,278.741 275.812,278.025 278.072,278.384 
		272.6,279.097 271.411,280.286 274.861,280.286 270.339,280.644 263.44,281.002 257.966,281.833 248.569,283.499 253.684,282.191 
		257.848,281.002 257.966,279.931 259.514,279.097 	"/>
	<polygon fill-rule="evenodd" fill="#FFFFFF" points="270.339,275.528 272.6,275.171 278.072,274.457 285.568,273.387 
		288.898,273.031 282.712,274.457 276.169,276.359 271.767,277.313 270.339,276.836 270.339,275.528 	"/>
	<polygon fill-rule="evenodd" fill="#FFFFFF" points="272.124,279.81 299.369,278.62 316.855,278.266 281.879,281.597 
		272.124,279.81 	"/>
	<polygon fill-rule="evenodd" fill="#FFFFFF" points="248.569,282.31 235.363,285.401 228.702,286.473 239.883,284.094 
		249.996,282.31 252.495,282.191 248.569,282.31 	"/>
	<polygon fill-rule="evenodd" fill="#FFFFFF" points="100.335,273.744 99.504,272.792 97.838,271.484 100.574,273.387 
		100.932,274.457 99.86,273.744 100.335,273.744 	"/>
	<polygon fill-rule="evenodd" fill="#FFFFFF" points="158.867,280.763 164.935,280.286 167.076,280.286 175.046,280.286 
		183.97,281.715 193.368,281.715 183.255,281.951 179.925,282.31 175.641,282.668 169.457,281.951 163.15,281.715 156.489,281.12 
		158.867,280.763 	"/>
	<polygon fill-rule="evenodd" fill="#FFFFFF" points="154.585,279.931 160.057,279.573 167.791,279.573 174.095,279.573 
		173.5,280.286 165.411,281.951 172.549,281.951 181.471,282.31 188.252,282.31 191.822,283.263 178.14,283.499 169.693,283.499 
		154.585,279.931 	"/>
	<polygon fill-rule="evenodd" fill="#FFFFFF" points="155.774,280.763 149.826,280.763 152.681,281.951 162.793,282.31 
		169.457,282.31 171.359,282.31 167.791,281.715 160.057,281.12 155.774,280.763 	"/>
	<polygon fill-rule="evenodd" fill="#FFFFFF" points="178.14,281.12 181.115,281.715 187.896,281.951 193.368,281.951 
		197.294,281.951 185.16,282.668 182.066,283.263 178.14,281.12 	"/>
	<polygon fill-rule="evenodd" fill="#FFFFFF" points="109.615,273.269 112.59,272.197 114.969,270.89 112.59,272.91 112.232,274.1 
		113.779,273.269 116.04,273.269 120.799,272.91 120.322,273.744 117.585,274.457 118.895,274.815 121.87,274.457 124.249,274.457 
		125.082,275.289 124.01,275.646 123.534,276.005 115.683,277.313 112.59,276.359 110.568,274.815 108.664,274.815 106.522,274.1 
		104.976,274.1 109.615,273.269 	"/>
	<path fill-rule="evenodd" fill="#ABDC7D" d="M103.072,84.111c-10.231,7.018-18.083,15.346-23.912,24.982
		c0.713-0.118,1.546-0.118,2.26-0.118c24.506,0,47.229,5.47,66.145,14.751c2.022-10.471,4.877-20.583,8.447-29.861
		C140.189,87.797,122.106,84.348,103.072,84.111L103.072,84.111z"/>
	<path fill-rule="evenodd" fill="#DB6E46" d="M124.487,140.145c4.639,0.832,10.707,1.308,14.751,2.497
		c0.951-11.184,2.141-22.009,4.283-32.24c-3.211-0.95-7.732-1.666-11.302-2.497C129.007,117.898,126.152,129.198,124.487,140.145
		L124.487,140.145z"/>
	<path fill-rule="evenodd" fill="#81A95D" d="M124.725,139.905c-1.666,10.829-1.547,21.654-2.736,32.122
		c5.354,0.953,10.351,2.024,14.99,3.332c0.595-10.826,1.071-21.891,2.022-32.599C134.956,141.571,129.246,140.739,124.725,139.905
		L124.725,139.905z"/>
	<path fill-rule="evenodd" fill="#93CE5C" d="M129.72,116.47c3.57,1.189,8.447,2.497,11.897,4.044
		c1.666-10.468,4.164-20.462,7.734-29.503c-2.261-0.713-4.641-1.426-6.901-2.024C137.096,96.721,131.743,105.404,129.72,116.47
		L129.72,116.47z"/>
</g>
</svg>
