<?xml version="1.0" encoding="utf-8"?>
<!-- Generator: Adobe Illustrator 13.0.0, SVG Export Plug-In . SVG Version: 6.00 Build 14948)  -->
<svg version="1.2" baseProfile="tiny" xmlns="http://www.w3.org/2000/svg" xmlns:xlink="http://www.w3.org/1999/xlink" x="0px"
	 y="0px" width="304.191px" height="153.914px" viewBox="0 0 304.191 153.914" xml:space="preserve">
<g id="Layer_2">
	<path fill="#497DDB" d="M263.142,81.06c0.398,7.004,0.398,14.004-3.258,19.893c-1.295,3.068-2.854,5.984-4.639,8.756
		c-14.277,22.166-42.967,35.006-68.016,41.611c-2.857,0.549-5.764,1.004-8.713,1.369c-5.897,0.73-11.965,1.111-18.157,1.111
		c-13.549,0-27.493-4.203-40.922-11.166c-3.356-1.742-6.683-3.656-9.96-5.732c-2.656-1.807-5.259-3.672-7.809-5.596
		c-2.813-1.924-5.564-3.936-8.251-6.029s-5.309-4.271-7.862-6.523C60.541,99.064,36.541,71.063,36.643,35.67
		c0.566-2.818,1.526-5.517,2.869-8.04c1.343-2.522,3.072-4.871,5.131-6.955c32.897-23.612,75.897-10.612,112.36-1.461
		c3.199,0.706,6.401,1.416,9.601,2.145c2.8,0.638,5.599,1.291,8.394,1.964c16.543,3.74,33.543,8.74,49.053,15.905
		c2.61,1.178,5.199,2.413,7.761,3.715c2.707,1.896,5.324,3.921,7.854,6.057c7.589,6.417,14.393,13.83,20.104,22.091
		C261.573,74.269,262.726,77.582,263.142,81.06z"/>
</g>
<g id="Layer_3">
	<path fill="#3F6BBC" d="M245.897,56.176c-0.667,3-1.527,6-2.583,8.951c-1.058,2.95-2.311,5.851-3.759,8.652
		c-4.635,8.767-10.947,15.095-18.32,19.623c-2.458,1.51-5.033,2.819-7.703,3.952c-4.635,2.821-10.635,3.821-16.635,3.821
		c-18,0.75-36-0.188-54,0.141c-3,0.055-6,0.144-9,0.28c-4,1.289-8,1.185-11.75,0.132s-7.25-3.053-10.25-5.542
		c-2.375-2.251-4.984-4.253-7.754-6.079c-2.775-1.827-5.711-3.48-8.766-5.029c-27.48-7.902-52.48-22.902-52.728-54.102
		c-0.831-1.631-1.794-3.207-2.919-4.718c-0.299,0.489-0.594,0.98-0.862,1.484c-1.343,2.522-2.303,5.221-2.869,8.04
		c-0.103,35.394,23.897,63.394,48.913,83.083c2.554,2.253,5.176,4.43,7.862,6.523s5.438,4.106,8.251,6.03
		c2.55,1.923,5.152,3.789,7.809,5.596c3.277,2.075,6.604,3.99,9.96,5.731c13.429,6.964,27.373,11.167,40.922,11.167
		c6.192,0,12.26-0.381,18.157-1.112c2.949-0.365,5.855-0.82,8.713-1.368c25.049-6.605,53.738-19.446,68.016-41.612
		c1.784-2.771,3.344-5.688,4.639-8.756c3.656-5.889,3.656-12.889,3.258-19.892c-0.416-3.479-1.569-6.792-3.373-9.969
		c-3.412-4.936-7.223-9.562-11.35-13.86C246.727,57.05,246.04,56.674,245.897,56.176z"/>
</g>
<g id="Layer_1">
	<path fill="#1E3359" d="M206.524,53.087c-2.228-1.272-4.5-2.471-6.806-3.621c-14.558-7.01-29.558-13.01-44.274-19.527
		c-2.381-0.914-4.781-1.814-7.198-2.694c-12.085-4.4-24.585-8.289-37.085-10.789c-2.667-0.333-5.389-0.5-8.111-0.477
		c-7.889-0.523-15.889,1.477-22.889,5.477c-1.5,1-3.313,2.375-5.063,3.984s-3.438,3.453-4.688,5.391
		c-2.25,3.625-3.25,9.625,0.75,10.625c2,1,4-3,5.401-5.058c1.969-1.792,4.089-3.36,6.33-4.715c5.517-3.336,17.754-10.27,32.52-5.367
		c3.024,0.803,20.162,4.27,23.052,5.313c3.302,1.192,5.834,1.689,8.854,3.083c20.845,7.745,38.845,21.745,59.845,28.742
		c0,0,1-2.997,1.716-4.089C209.143,57.425,208.556,55.418,206.524,53.087z"/>
	<path fill="#FFF685" d="M155.15,40.155c10.011,6.3,21.011,11.3,32.011,13.3c-2-5,0-9,3.625-12.877
		c1.813-1.81,4.031-3.341,6.359-4.544s4.766-2.078,7.016-2.578c-9-4-18-8-27.502-10.527c-3.168-0.675-6.226-0.964-9.023-0.646
		s-5.337,1.243-7.469,2.996c-2.133,1.753-3.857,4.335-5.028,7.946C154.946,35.237,154.938,37.548,155.15,40.155z"/>
	<path fill="#FFF685" d="M72.553,41.082c2.165-0.66,4.531-1.715,6.761-3.082c2.23-1.367,4.329-3.047,5.954-4.956
		c3.251-3.816,4.61-8.544,1.328-13.5c-1.148-2.115-2.861-3.752-4.954-4.97c-8.37-4.874-22.813-3.051-31.478,1.083
		c-1.822,1.039-3.504,2.298-5.004,3.798c2.5,0.75,5.008,1.556,7.468,2.464c2.766,2.268,6.649,3.402,10.272,4.911
		c3.625,1.503,7.018,3.318,8.826,6.885C72.548,35.65,72.859,38.063,72.553,41.082z"/>
	<path fill="#FFF685" d="M114.396,62.658c-6.397-6.376-14.655-11.502-23.367-13.229c-2.908-0.576-5.869-0.773-8.853-0.505
		c-17.015,2.531-30.015,18.531-27.015,35.531c2,14,14,22,24.424,30.64c2.54,1.889,5.076,3.693,7.576,5.36
		c-1.25-2.375-2.207-4.859-2.905-7.398C80.161,97.456,86.161,80.456,98.1,69.613c1.99-1.748,4.143-3.296,6.44-4.602
		C109.981,63.113,114.396,62.658,114.396,62.658z"/>
	<path fill="#FFF685" d="M251.85,114.72c-0.086-2.783-0.381-5.641-0.884-8.504c-0.936-5.587-2.892-11.2-5.752-16.351
		c-1.431-2.574-3.088-5.034-4.965-7.319c-5.658-8.284-12.851-12.758-20.634-14.483c-2.594-0.575-5.254-0.844-7.944-0.847
		c-10.511,0.239-21.511,2.239-31.511,7.239c10,9,18,22,21.275,34.899c0.986,3.141,1.802,6.298,2.467,9.464
		c0.664,3.161,1.18,6.333,1.563,9.472c0.191,3.021,0.177,6.062-0.038,9.099c-0.221,3.035-0.643,6.066-1.268,9.066
		c15-6,30-14,41.855-25.5C248.121,118.96,250.07,116.881,251.85,114.72z"/>
	<path fill="#253F6F" d="M70.938,40.749c5.223,3.707,10.223,7.707,16.412,11.184c2.817,1.658,5.664,3.221,8.542,4.703
		c14.383,7.408,29.574,12.763,45.083,17.67c3.136,0.567,6.313,0.95,9.495,1.218c19.091,1.611,38.29-0.669,55.69-9.069
		c-20-16-45-25-67.698-34.827c-2.963-1.021-6.012-1.759-8.968-2.749c-23.334-7.813-37.923-5.071-52.959,3.941
		C72.777,35.493,70.939,38.242,70.938,40.749z"/>
	<path fill="#2C4C85" d="M106.909,24.539c-1.749-0.083-4.749-0.083-6.749-0.083c14,3,25,13,36.637,18.589
		c2.872,1.426,5.75,2.81,8.633,4.164c17.293,8.122,34.73,15.247,52.73,21.247c-15.75-9.75-33.188-16.125-50.054-23.09
		c-2.812-1.161-5.606-2.338-8.376-3.55c-9.57-2.36-18.57-8.36-26.855-14.86C109.159,25.351,106.909,24.539,106.909,24.539z"/>
	<path fill="#2C4C85" d="M83.23,29.23c20.93,4.225,37.93,20.225,57.8,28.387c2.86,1.229,5.72,2.426,8.572,3.654
		c8.558,3.684,17.058,7.684,25.558,13.184c2,1,5,1,7,0c-9.375-10-21.875-14.531-34.609-18.815c-2.547-0.857-5.103-1.709-7.64-2.612
		c-18.751-5.573-32.751-21.573-53.455-25.034C85.318,28.391,84.246,28.806,83.23,29.23z"/>
	<path fill="#2C4C85" d="M72.576,36.428c2.764,1.171,5.484,2.342,8.172,3.53c13.44,5.942,26.079,12.331,39.413,21.498
		c8,5,16,9,24.606,10.281c2.831,0.657,5.644,1.219,8.394,1.719c-2.75-1.25-5.5-2.5-8.244-3.747
		c-23.756-11.253-44.756-27.253-71.206-34.573C73.284,35.569,72.901,35.999,72.576,36.428z"/>
	<g>
		<path fill="#3F6BBC" d="M25.287,98.99c-4.82,3.633-18.332,12.6-22.497,10.838c-4.159-1.764-3.045-14.082-0.689-19.639
			c2.356-5.564,32.402-25.611,40.646-18.941C52.246,78.911,30.189,95.291,25.287,98.99z"/>
		<path d="M140.38,1.479c-0.23-0.699-0.824-1.208-1.526-1.404c-0.709-0.196-1.492,0-2.053,0.479
			c-1.944,1.664-61.073,46.887-93.353,71.16c0.067-0.048,0.101-0.068,0.155-0.102L17.537,92.414l29.011-19.295
			c0.129-0.068,0.217-0.122,0.217-0.122l44.91-32.704l32.981-24.952l10.87-8.237C140.893,3.016,140.893,3.016,140.38,1.479z"/>
	</g>
	<path fill="#DBD372" d="M250.466,106.716c-0.936-5.587-2.892-11.2-5.752-16.351c-1.431-2.574-3.088-5.034-4.965-7.319
		c-1.065-1.56-2.185-2.983-3.352-4.279c-4.28,6.491-9.614,11.421-15.663,15.136c-2.458,1.51-5.033,2.819-7.703,3.952
		c-4.166,2.536-9.438,3.593-14.818,3.782c1.101,2.718,2.024,5.469,2.723,8.218c0.986,3.141,1.802,6.298,2.467,9.464
		c0.664,3.161,1.18,6.333,1.563,9.472c0.191,3.021,0.177,6.062-0.038,9.099c-0.205,2.822-0.592,5.641-1.146,8.435
		c18.237-6.828,36.211-17.132,47.523-32.016C251.188,111.813,250.915,109.269,250.466,106.716z M57.575,66.59
		c-2.863,5.512-4.062,11.863-2.915,18.365c0.384,2.689,1.14,5.156,2.181,7.449c8.107,10.228,17.757,19.236,27.571,26.961
		c0.083,0.073,0.17,0.144,0.254,0.217c0.665,0.459,1.333,0.933,1.994,1.373c-1.25-2.375-2.207-4.859-2.905-7.398
		c-2.679-10.207-1.036-21.012,3.762-30.3C76.173,79.346,65.637,74.015,57.575,66.59z"/>
</g>
<g id="Layer_4">
	<path fill="#1F365E" d="M55.601,33.404c-0.335,3.666-5.325,4.394-7.24,2.406c0.048-1.883-4.908-5.103,3.193-6.186
		C53.812,29.777,55.627,31.42,55.601,33.404z"/>
	<path fill="#1F365E" d="M93.261,70.529c-0.808,3.671-2.808,10.671-8.808,8.671c-5-3-2-12,3.521-11.24
		C90.879,66.771,93.248,67.905,93.261,70.529z"/>
	<path fill="#1F365E" d="M206.641,98.265c2.651,3.23-2.349,9.501-8.349,6.018c-5-3.484-5-7.665-4-11.845
		c1-4.181,8-2.787,10.063,0.206C205.567,94.18,206.428,96.19,206.641,98.265z"/>
	<path fill="#1F365E" d="M249.508,81.216c-0.389,4.492-3.857,4.988-7.297,3.708c-3.432-1.312-6.84-4.538-7.123-7.069
		c-0.567-5.063,3.578-3.779,6.644-4.102C245.611,74.671,249.053,77.94,249.508,81.216z"/>
	<path fill="#A4BEED" d="M90.11,71.003c0.724,3.912-2.656,3.751-4.923,4.467c0.014-2.336-1.103-4.272,2.271-5.721
		C88.926,69.103,90.109,69.659,90.11,71.003z"/>
	<path fill="#A4BEED" d="M53.386,33.231c-1.055,2.802-3.039,2.692-3.963-0.146c0.014-0.911,1.012-0.813,1.937-1.779
		C52.498,31.363,53.402,32.213,53.386,33.231z"/>
	<path fill="#A4BEED" d="M203.638,97.341c1.135,3.696,0.587,5.301-1.512,5.467c-2.097,0.166-3.918-2.122-4.722-4.65
		s-0.591-5.255,1.356-6.071C200.467,92.136,202.655,94.487,203.638,97.341z"/>
	<path fill="#A4BEED" d="M246.286,79.123c0.843,2.543-2.288,3.668-5.895,0.962c-2.45-2.453-1.641-4.884,1.788-4.941
		C244.235,75.619,246.064,77.394,246.286,79.123z"/>
</g>
<g id="Layer_5">
	<g>
		<path fill="#3F6BBC" d="M283.498,16.648c6.031-0.244,13.178-1.254,15.599,2.565c2.416,3.817,8.145,12.278,3.045,15.506
			c-5.104,3.233-45.809,4.976-48.789-5.2C249.903,17.812,277.362,16.899,283.498,16.648z"/>
		<path d="M133.365,31.31c-0.209,0.706-0.01,1.463,0.456,2.023c0.471,0.565,1.227,0.849,1.961,0.774
			c2.545-0.261,76.901-3.788,117.258-5.372c-0.083,0.001-0.121,0-0.186-0.005l33.272-2.265l-34.836-0.648
			c-0.145-0.017-0.247-0.023-0.247-0.023l-55.54,1.327l-41.32,1.742l-13.626,0.585C133.818,29.755,133.818,29.755,133.365,31.31z"/>
	</g>
</g>
</svg>
