<?xml version="1.0" encoding="utf-8"?>
<!-- Generator: Adobe Illustrator 13.0.0, SVG Export Plug-In . SVG Version: 6.00 Build 14948)  -->
<svg version="1.2" baseProfile="tiny" id="Layer_9" xmlns="http://www.w3.org/2000/svg" xmlns:xlink="http://www.w3.org/1999/xlink"
	 x="0px" y="0px" width="160.629px" height="263.372px" viewBox="0 0 160.629 263.372" xml:space="preserve">
<g>
	<path fill-rule="evenodd" fill="#3B3734" d="M128.802,131.116c14.588-12.732,31.548-2.68,31.703,15.723
		c0.721,14.176-1.804,24.589-4.588,36.136c-4.021,16.237-11.341,32.476-25.001,42.424c-9.021,8.455-21.959,1.495-25.362-9.021
		c0.516-0.979,0.876-1.959,1.392-2.886c4.072,6.494,8.454,15.619,18.558,11.753c9.021-3.248,15.052-16.548,20.001-24.022
		l0.155-0.412c0.721-2.268,1.443-4.588,2.268-6.855c-1.082,1.186-2.01,2.474-2.99,3.608c8.351-15.052,24.073-83.922-13.506-59.333
		C130.813,136.735,129.266,132.56,128.802,131.116L128.802,131.116z"/>
	<path fill-rule="evenodd" fill="#3B3734" d="M18.899,79.413c-0.309-1.288-1.855-2.887-3.093-2.628
		c-2.526,0.361-4.743,14.434-4.64,15.98c0.052,1.803,0.155,6.289,0.155,6.289s2.217,0.103,2.32-0.979
		c3.196-5.207,1.752-10.929,3.815-17.578C17.611,80.032,18.745,79.877,18.899,79.413L18.899,79.413z"/>
	<path fill-rule="evenodd" fill="#4E4B49" d="M39.416,98.229c-1.237-0.361-2.835,1.34-3.505,3.814
		c-0.67,2.475-0.206,4.795,1.031,5.155c1.237,0.412,2.783-1.34,3.454-3.814C41.065,100.909,40.653,98.589,39.416,98.229
		L39.416,98.229z"/>
	<polygon fill-rule="evenodd" fill="#B09800" points="127.514,137.044 128.184,139.673 125.605,142.869 123.234,141.685 	"/>
	<polygon fill-rule="evenodd" fill="#24211D" points="128.184,138.591 128.699,140.447 125.76,143.746 124.729,142.509 	"/>
	<polygon fill-rule="evenodd" fill="#3B3734" points="123.08,142.199 128.029,136.632 126.225,133.436 121.482,140.034 	"/>
	<path fill-rule="evenodd" fill="#ABDC7D" d="M55.912,156.272c0,0-2.526,8.454-4.742,12.732c-2.217,4.279-9.537,13.145-9.537,13.145
		s1.289-3.505,3.815-10.104c2.423-6.547,7.938-15.98,7.938-15.98L55.912,156.272z"/>
	<path fill-rule="evenodd" fill="#FBAF87" d="M81.171,107.868c0.618,5.464,1.082,10.825,1.546,16.135
		c-0.155,9.743-0.464,19.537-0.67,29.383c0.979,10.774,1.958,21.548,2.835,32.424c-2.732,0.567-5.619,1.186-8.454,1.752
		c0,0-6.392-17.372-7.99-23.042c-1.443-5.516-9.279-35.156-9.279-35.156s-0.309-8.455-0.103-11.65
		c0.103-3.299,3.66-15.929,3.66-15.929C68.851,103.796,75.088,105.857,81.171,107.868L81.171,107.868z"/>
	<path fill-rule="evenodd" fill="#CF9E79" d="M86.068,184.573c-1.392,0.567-2.835,1.031-4.279,1.649c0,0-9.743-16.032-11.186-21.496
		c-1.443-5.258-3.093-18.919-3.093-18.919c-1.959-4.485-4.021-9.072-6.031-13.506c0,0,0.876-6.237,1.855-8.299
		c0.876-2.011,11.238-8.712,11.238-8.712c1.443,0,2.938,0,4.279,0c0.772,3.969,1.443,8.042,2.165,11.959
		c-2.836-0.515-3.351,3.557-3.351,5.516c-0.825,2.422-1.65,4.64-2.526,7.114c0.207,4.846,0.207,9.228-0.464,13.97
		c1.083,0.773,2.165,1.546,3.299,2.32C80.707,165.603,83.336,175.139,86.068,184.573L86.068,184.573z"/>
	<path fill-rule="evenodd" fill="#BACD00" d="M72.252,67.66c-1.443-0.31-2.835-0.67-4.175-0.979
		c-4.846,11.29-7.217,22.269-8.763,34.486c1.186-0.36,2.372-0.773,3.505-1.031C66.016,89.258,69.16,78.434,72.252,67.66
		L72.252,67.66z"/>
	<path fill-rule="evenodd" fill="#6AC335" d="M102.667,56.371c5.052-3.66,10-7.372,14.949-11.134c0,0,0.567-4.692-4.072-10.208
		c-4.588-5.67-8.248-8.248-17.372-12.372c-10.052-4.536-18.558-6.958-29.538-4.64c0,0-2.835,19.331-3.248,23.301
		c-1.134,9.176-12.32,11.753-20.001,10.979c-3.66-6.959-7.578-13.764-12.063-20.465c0,0-2.783,2.217-3.299,7.372
		c-0.876,7.887,0.207,15.619,0.876,23.403c3.918,3.402,8.661,5.619,13.918,3.917c0.773-2.268,1.546-4.381,2.319-6.65
		c13.197,3.505,26.445,6.908,39.539,10.31c0,0,11.289-1.959,13.196-3.196c1.958-1.186,5.052-5.052,5.052-5.052
		C102.924,60.185,102.77,58.227,102.667,56.371L102.667,56.371z"/>
	<path fill-rule="evenodd" fill="#949393" d="M146.483,187.666c0,0,0.464,3.609,0.361,3.763c-0.104,0.206-5.207,3.042-5.207,3.042
		l-3.35-0.464l-0.052-2.269l2.114,0.31l1.082,1.546c0,0-0.618-1.752-0.309-2.319C141.431,190.758,146.483,187.666,146.483,187.666
		L146.483,187.666z"/>
	<path fill-rule="evenodd" fill="#24211D" d="M142.978,180.191c0,0,0.103,0.876-0.464,0.979c-0.516,0.104-1.495,0-1.495,0.257
		c-0.103,0.207-0.464,1.856-1.134,2.527c-0.618,0.619-1.959,1.082-1.959,1.082l-2.526,2.938l-1.289-2.062l-0.154-1.237l5.155-3.351
		l2.422-1.443L142.978,180.191z"/>
	<path fill-rule="evenodd" fill="#A9A8A7" d="M109.677,180.191l-5.361,16.393l-1.289,2.062l-5.155-3.814
		c0,0,1.496-3.402,2.835-4.742c1.392-1.444,4.588-2.629,4.588-2.629l0.67-1.907c0,0-6.135,1.34-8.093,4.433
		c-1.907,3.145-4.433,9.073-4.742,12.063c-0.31,2.887,0.412,10.774,0.412,10.774s2.217,3.505,4.175,3.608
		c1.908,0.104,4.382-1.186,4.382-1.186v-2.01c0,0-3.711,1.753-4.897,0.773c-1.237-0.979-2.113-3.196-2.113-3.196l5.825-7.217
		c0,0-1.186,0.103-2.525,1.753c-1.34,1.649-3.506,3.402-3.506,3.402s-0.309-6.031,0.464-8.248c0.825-2.269,1.598-3.711,1.598-3.711
		l4.64,3.042c0,0-0.31,3.453,0.567,3.763c0.773,0.207,1.392,0.413,1.392,0.413l-0.619,10.361c0,0,2.371-1.753,3.145-3.196
		c0.772-1.34,3.402-7.011,3.608-9.125c0.051-2.165,0-3.299,0-3.299l-0.515,0.67c0,0-1.238,6.34-2.32,8.351
		c-0.979,2.063-2.526,3.815-2.526,3.815l0.567-8.969l6.031-21.445L109.677,180.191z"/>
	
		<line fill="none" stroke="#24211D" stroke-width="0" stroke-linecap="square" stroke-miterlimit="10" x1="31.065" y1="203.904" x2="21.322" y2="258.03"/>
	
		<line fill="none" stroke="#24211D" stroke-width="0" stroke-linecap="square" stroke-miterlimit="10" x1="41.736" y1="202.512" x2="9.569" y2="207.512"/>
	
		<line fill="none" stroke="#24211D" stroke-width="0" stroke-linecap="square" stroke-miterlimit="10" x1="68.748" y1="180.964" x2="43.591" y2="200.966"/>
	
		<line fill="none" stroke="#24211D" stroke-width="0" stroke-linecap="square" stroke-miterlimit="10" x1="49.313" y1="150.86" x2="39.107" y2="199.212"/>
	<path fill-rule="evenodd" fill="#A9A8A7" d="M50.19,205.45l-3.711-0.876c0,0,0.206-2.526-1.031-2.526
		c-1.186,0.104-1.753,1.237-1.753,1.237l-1.082-1.237l-6.805-2.423l-3.299,0.258l-0.207-3.093l-1.031-0.877l-1.392,2.063
		c0,0-0.567,3.608-0.103,4.846c0.619,1.186,2.629,0.979,2.629,0.979l2.062-1.753l6.959,1.959l1.959,2.783l3.402-0.876l2.423,0.413
		L50.19,205.45z"/>
	<path fill-rule="evenodd" fill="#F68D28" d="M85.346,197.873l-1.34,1.855l-4.949,14.176c0,0-7.99,8.814-10.67,8.557
		c-2.629-0.515-4.691-0.67-4.691-0.67s0.515-3.608,1.443-3.815c0.979-0.206,3.814,0.773,3.814,0.773s-0.206-1.546-0.876-1.752
		c-0.773-0.258-2.062-0.876-2.062-0.876l1.082-1.34l2.629-2.32l1.443-7.113l4.279-1.443l2.526,0.773l1.186-3.711l0.361-3.66
		l-2.217-1.083c0,0,1.443-1.082,3.299-0.206C82.563,196.996,85.346,197.873,85.346,197.873L85.346,197.873z"/>
	
		<line fill="none" stroke="#24211D" stroke-width="0" stroke-linecap="square" stroke-miterlimit="10" x1="136.638" y1="132.354" x2="131.122" y2="172.51"/>
	
		<line fill="none" stroke="#24211D" stroke-width="0" stroke-linecap="square" stroke-miterlimit="10" x1="156.38" y1="158.592" x2="135.967" y2="174.057"/>
	
		<line fill="none" stroke="#24211D" stroke-width="0" stroke-linecap="square" stroke-miterlimit="10" x1="151.123" y1="133.848" x2="133.854" y2="175.604"/>
	
		<line fill="none" stroke="#24211D" stroke-width="0" stroke-linecap="square" stroke-miterlimit="10" x1="154.937" y1="139.673" x2="131.225" y2="173.077"/>
	<polygon fill-rule="evenodd" fill="#949393" points="134.215,88.434 125.193,112.919 126.275,115.549 125.605,119.466 
		133.338,149.983 140.761,178.335 138.7,180.552 135.761,168.644 133.75,159.984 122.874,123.436 120.709,132.869 117.925,124.621 
		119.678,118.848 116.533,119.466 113.131,115.084 120.348,114.105 129.575,87.764 	"/>
	<path fill-rule="evenodd" fill="#F68D28" d="M127.152,143.437c0,0,0.979-0.567,1.907,0.516c1.083,0.979,2.371,2.732,2.269,3.763
		c0,1.083,0.257,4.588,0.257,4.588s2.268,3.505,2.063,5.257c-0.31,1.805-0.567,4.949-1.856,6.393
		c-1.237,1.34-4.176,5.929-4.176,5.929l-7.578-2.526l-2.628,4.484l6.701,1.546c0,0-2.32,4.846-4.279,6.032
		c-2.217,1.134-6.805,2.217-6.805,2.217l-2.99-0.877c0,0-0.103-1.082,0.207-1.082c0.257,0.103,3.093,0.979,3.093,0.309
		c0-0.567-2.216-1.443-2.216-1.443l1.546-6.702l3.299,0.464l0.412-0.67l-2.062-0.773l2.99-0.516l0.619-1.34l-2.372-0.67l2.938-0.207
		l0.31-0.876l-2.423-1.134l3.299-0.979l0.155-1.649l2.629-3.248c0,0,7.784-4.639,7.887-5.31c0-0.876-1.443-7.784-1.443-7.784
		L127.152,143.437z"/>
	<path fill-rule="evenodd" fill="#828180" d="M136.07,194.264c0,0,0.413-4.536,0.979-5.619c0.567-0.979,2.835,0.67,2.835,0.67
		l-1.649-4.64c0,0-1.186,0.876-2.062,2.423c-0.876,1.546-1.238,3.763-1.238,3.763L136.07,194.264z"/>
	<path fill-rule="evenodd" fill="#828180" d="M137.359,194.006c0,0,2.32,2.681,1.444,4.536c-0.877,1.753-3.042,2.423-3.042,2.423
		l0.104-4.434L137.359,194.006z"/>
	<path fill-rule="evenodd" fill="#A9A8A7" d="M124.317,143.643c0,0-1.546,3.042-2.887,4.382c-1.392,1.237-7.526,0.67-7.526,0.67
		l1.082,2.629v1.546c0,0,4.691,0.979,6.031,0.67c1.34-0.361,5.361-4.948,5.361-4.948s1.752,1.752,1.649,2.835
		c0,0.876-0.515,3.969-0.515,3.969s2.422-0.257,2.422-1.958c0.104-1.701-2.216-5.723-2.422-6.083
		c-0.104-0.206-1.444-1.495-1.444-1.495s-1.546,2.372-2.732,3.351c-1.238,0.928-2.732,1.134-2.732,1.134s2.371-2.319,3.144-3.608
		C124.523,145.499,124.317,143.643,124.317,143.643L124.317,143.643z"/>
	<path fill-rule="evenodd" fill="#C1C0BF" d="M151.226,182.047c-5.155,12.784-17.887,51.292-40.002,36.909
		c0,0,4.33,5.258,7.063,5.723c16.65,3.608,25.98-20.362,30.517-32.94C148.906,189.728,151.02,185.037,151.226,182.047
		L151.226,182.047z"/>
	<path fill-rule="evenodd" fill="#4E4B49" d="M143.545,85.599c0,0,4.072-3.299,2.784-6.083c-1.34-2.629-8.97-4.434-8.97-4.434
		c-7.114,3.867-16.753,8.042-22.578,10.052c-1.495,0.67-0.104,1.186-0.567,2.835C123.389,87.661,134.266,85.856,143.545,85.599
		L143.545,85.599z"/>
	<path fill-rule="evenodd" fill="#71A159" d="M117.616,44.617c-2.835,2.732-5.619,5.464-8.351,8.196
		c-2.423,1.546-5.052,3.196-7.475,4.743c-1.443-5.929-2.835-11.857-4.072-17.785c0,0,3.867,1.752,4.949-0.67
		c1.134-2.423,3.66-5.361,3.66-5.361c-0.257,3.402-0.67,6.804-1.031,10.103c-0.515,2.269-0.979,4.382-1.546,6.547
		c2.99-3.402,5.619-5.567,10.104-6.443c-3.248,3.145-6.546,6.237-9.64,9.227C109.162,51.834,113.44,47.555,117.616,44.617
		L117.616,44.617z"/>
	<path fill-rule="evenodd" fill="#71A159" d="M86.635,69.515c0,0-1.959-8.66-4.588-9.793c-6.29-2.836-7.733-14.331-8.455-20.311
		c-1.031,4.64-2.886,10.773-1.443,15.516c-3.866-2.32-3.402-8.248-3.763-12.218c0,0-2.732,7.475-4.124,9.022
		c-1.34,1.443-3.969,3.505-3.969,3.505c1.443,0.979,3.041,1.958,4.382,2.834c0,0-10.31-2.474-12.733-2.062
		c-2.423,0.361-6.495,0.98-6.495,0.98c-0.413-0.773-0.876-1.547-1.392-2.32c3.299-0.412,6.547-0.825,9.846-1.186
		c-3.402-0.464-6.701-1.082-10-1.649c-2.269-3.505-3.248-6.443-5.464-9.64c0.413,4.073,1.186,4.485,2.423,7.217
		c-2.423-1.753-4.743-3.505-7.063-5.361c2.114,2.732,4.33,5.464,6.495,8.144c0.31,0.979,0.464,1.855,0.773,2.732
		c-3.093-2.114-6.237-4.433-9.33-6.702c0.67,1.753,1.289,3.402,1.958,5.052c1.65,1.959,3.402,3.917,5.052,5.825
		c-2.062,0-4.073,0-6.135,0c0,0,2.99,1.958,4.949,2.062c1.958,0.104,3.608,1.65,3.608,1.65c0.103,1.082,0.206,2.01,0.257,2.989
		c0.825-0.154,1.598-0.36,2.475-0.67c0.154-1.237,0.464-2.423,0.773-3.712c0,0,13.97,4.021,15.052,4.279
		c0.979,0.31,16.032,3.814,16.032,3.814c2.114,1.083,4.279,2.114,6.29,3.094C83.593,71.577,85.191,70.598,86.635,69.515
		L86.635,69.515z"/>
	<path fill-rule="evenodd" fill="#5A7B53" d="M66.531,66.68c-3.402-0.876-17.888-2.99-23.352-8.815
		c-2.216-5.928-3.299-7.887-8.454-12.269c2.835,3.402,5,6.341,6.65,10.31c-2.732-2.319-5.464-4.639-8.196-7.011
		c2.371,2.526,4.588,4.949,6.907,7.578c-2.319-1.031-4.639-2.216-7.062-3.299c5.207,3.711,9.588,5.052,10,11.599
		c-3.711,1.907-7.681,1.031-11.599,0c3.299,2.577,8.764,3.093,12.629,1.907c0.31-1.443,0.619-2.99,0.876-4.433
		C53.025,65.443,58.18,66.01,66.531,66.68L66.531,66.68z"/>
	<path fill-rule="evenodd" fill="#F68D28" d="M55.757,26.266c0,0-5.928,12.475-8.197,17.011c-2.216,4.485-2.732,19.589-2.732,19.589
		s-1.546-4.743-2.938-7.217c-1.444-2.475-6.186-9.897-4.382-13.609c1.855-3.711,10.876-19.897,10.876-19.897L55.757,26.266z"/>
	<path fill-rule="evenodd" fill="#FBAF87" d="M67.871,25.699c-0.464,2.989-0.979,6.031-1.443,9.124c0,0-5.928,4.846-6.907,7.681
		c-1.083,2.835-7.939,9.64-10.671,9.897c-2.835,2.268-6.135-1.753-6.135-1.753c-2.113-4.536-5.051-8.557-7.113-12.887
		c-1.134-3.145-2.423-6.238-3.557-9.227c9.691-0.413,19.331-0.722,28.919-1.083C63.334,26.781,65.551,26.266,67.871,25.699
		L67.871,25.699z"/>
	<path fill-rule="evenodd" fill="#FBAF87" d="M37.561,85.856c-1.856,10.98-3.712,15.413-5.516,26.496
		c-1.289-2.474-2.629-4.021-4.021-4.897c-0.36-1.855-1.495-3.402-3.041-4.278L26.374,87.3c-0.67-5.567,0.413-10,5.825-12.372
		L37.561,85.856z"/>
	<path fill-rule="evenodd" fill="#FBAF87" d="M123.234,142.509c0,0-2.319-9.846-4.072-14.692
		c-1.752-4.845-2.629-10.516-5.619-12.732c-3.196-2.216-8.093-5.361-8.093-5.361c2.474-6.495,6.134-8.609,8.661-18.146
		c-2.114-7.216-4.64-7.99-10.774-10.979c0,0-3.763-12.733-5.825-13.146c-2.217-0.464-8.763,3.299-8.763,3.299
		s2.422,17.629-0.979,24.331c-4.124,7.835-2.578,15.259-0.619,22.991c3.454-0.722,6.856,1.598,7.835,4.949
		c1.031,1.443,2.474,3.196,3.145,4.897c0.619-1.65,1.238-3.248,1.804-4.846c5.155,8.145,10.31,16.29,15.362,24.383
		C118.957,147.354,121.327,146.066,123.234,142.509L123.234,142.509z"/>
	<path fill-rule="evenodd" fill="#F99F61" d="M85.088,159.107c0,0,0.258-2.32,1.649-3.093c1.34-0.876,2.732-1.495,4.021-0.876
		c1.134,0.67,2.217,3.247,2.217,3.247s2.165-0.154,2.835,1.392c0.67,1.649,4.021,13.248,4.021,13.248s-0.412,2.629-1.289,3.66
		c-0.876,1.186-0.361,1.34-3.093,1.856c-2.68,0.464-5.052-0.412-5.052-0.412l-7.062-15.62L85.088,159.107z"/>
	<path fill-rule="evenodd" fill="#A9A8A7" d="M90.759,127.611c0.722-0.928,1.289-1.805,1.289-2.526
		c0.104-2.32,0.979-5.052-0.258-6.702c-3.505-4.588-8.866-5.928-14.124-7.681c0.876-2.423,1.701-4.949,2.474-7.475
		c-2.835-0.103-5.773-0.31-8.66-0.31c-2.216-3.763-6.444-2.422-9.794-1.443c-0.877,1.341-1.753,2.629-2.629,3.867
		c0,0-23.094-7.475-26.806-7.269c-3.608,0.207-0.618,1.649-4.897,4.175c-1.546,0.877-3.145,2.165-4.536,3.402
		c-0.413-0.361,0.515-5.671,15.052-0.67c6.032,0.206,19.538,5.722,19.538,5.722s6.959,1.444,15.722,3.505
		c8.764,2.216,12.629,3.815,13.197,5.825c0.31,1.134,0.31,2.32,0,3.402C88.026,124.054,89.986,125.961,90.759,127.611
		L90.759,127.611z"/>
	<path fill-rule="evenodd" fill="#ABDC7D" d="M86.635,121.89l-13.918,2.731l-4.279,10.259l-2.422,8.866c0,0,0.721,5.361,0.309,7.165
		c-0.413,1.856-10.98,37.321-10.98,37.321l-3.969,9.073c0,0,7.784-28.662,8.608-32.476c0.876-3.763,3.248-15.929,3.248-15.929
		l-0.618-5.464l-2.887-2.319l7.063-21.083l2.629-6.908l5.361,2.062l-1.856,5.413l12.269-1.34L86.635,121.89z"/>
	<path fill-rule="evenodd" fill="#FCC795" d="M107.822,119.725c0,0,6.495,2.062,7.68,4.278c1.031,2.062,3.402,7.887,3.402,7.887
		s2.011,7.887,2.784,9.021c0.876,1.288,0.773,3.041,0.103,4.175c-0.567,1.186-5.051,3.247-5.825,2.268
		c-0.876-0.876-15.619-20.052-15.619-20.052l1.237-9.588c0,0,3.608,4.485,5.619,6.598c1.959,2.217,8.093,6.237,8.093,6.237
		s-2.269-4.794-3.609-6.649C110.245,122.095,107.822,119.725,107.822,119.725L107.822,119.725z"/>
	<path fill-rule="evenodd" fill="#CF9E79" d="M91.171,91.011c-2.577,5.825-7.165,13.97-3.66,20.362
		c0.876,1.546,4.278,5.671,4.278,5.671c-2.938-1.547-6.031-3.248-8.969-4.691c-1.649-10.464,0.516-16.237,4.588-25.929
		C88.646,87.97,89.934,89.517,91.171,91.011L91.171,91.011z"/>
	<path fill-rule="evenodd" fill="#FBBC88" d="M41.942,65.804c0,0-1.752,10.722-2.423,11.753c-0.618,1.186,1.753,7.114,1.083,8.969
		c-0.618,1.856-4.278,13.403-4.278,13.403c-1.289,0-2.475,0-3.712,0.103c4.279-11.599-1.752-9.742-1.443-16.237
		c0.103-2.063-0.98-6.238-0.98-6.238c-4.278,3.505-3.608,10.516-3.917,15.568c-0.361-6.908-1.031-12.526,2.371-18.661
		c0.361-3.867,0.773-7.939,1.134-11.959C33.488,66.319,36.581,66.319,41.942,65.804L41.942,65.804z"/>
	<path fill-rule="evenodd" fill="#FCC795" d="M54.159,39.102c0,0-2.216-0.567-2.68-0.309c-0.412,0.413-1.959,2.371-1.959,2.371
		l0.206,1.031c0,0,1.65-1.752,2.629-1.907c0.876-0.103,2.113,0.155,2.113,0.155L54.159,39.102z"/>
	<path fill-rule="evenodd" fill="#CF9E79" d="M58.747,38.534c0,0-0.206,4.279-0.876,5.619c-0.773,1.237-3.402,5.825-3.402,5.825
		c-1.753,1.186-3.402,2.319-5.155,3.505c-1.443-0.206-2.835-0.309-4.279-0.464c-0.257-0.412-0.67-0.876-0.979-1.288
		c1.392,0,2.835,0,4.176-0.104c0.206-1.855,0.206-2.32,1.186-3.763c-1.856-1.752-2.732-1.392-5.155-0.979
		c1.186-1.186,1.289-1.495,2.835-1.649c0-0.31,0-0.619,0-0.877c1.134,0.671,2.423,1.237,3.66,1.856c0,0,0.516,2.01,1.186,2.216
		c0.567,0.103,3.815-3.196,4.279-4.588C56.788,42.401,58.747,38.534,58.747,38.534L58.747,38.534z"/>
	<path fill-rule="evenodd" fill="#CF9E79" d="M43.385,38.226l2.268,1.186l-0.619,1.443c0,0,0.876,1.34,0.619,1.855
		c-0.309,0.464-1.289,1.444-1.289,1.444l-0.979,1.443l-1.083,0.773l-1.443-1.546l-1.546-0.979l1.546-1.134
		c0,0,2.629-0.103,2.938-0.67c0.258-0.721-0.309-1.598-0.309-1.598s-1.186-0.67-1.082-1.34
		C42.612,38.534,43.385,38.226,43.385,38.226L43.385,38.226z"/>
	<polygon fill-rule="evenodd" fill="#C49B3F" points="39.107,41.937 38.901,40.081 36.478,38.431 35.344,38.019 36.478,39.978 
		38.901,43.277 	"/>
	<path fill-rule="evenodd" fill="#C18C62" d="M49.468,46.783l-2.938,1.289c0,0-1.701,0.412-2.526,0.103
		c-0.825-0.257-2.938-1.031-2.938-1.031l2.526,2.114c0,0,2.32,0.412,2.835,0.206C46.891,49.463,49.468,46.783,49.468,46.783
		L49.468,46.783z"/>
	<path fill-rule="evenodd" fill="#CF9E79" d="M63.128,29.204c3.299,1.031,2.423,2.423,0.773,4.743
		c-0.516,0.206-0.876,0.413-1.392,0.67c-0.361-0.464-0.67-0.876-1.031-1.34c0.464-0.103,0.876-0.206,1.237-0.515
		c-0.207-0.567-0.567-1.031-0.979-1.65c1.186,0.207,1.649,0.207,2.526,1.083c0.722-1.547-0.67-1.856-1.907-2.32
		C62.613,29.565,62.922,29.358,63.128,29.204L63.128,29.204z"/>
	<path fill-rule="evenodd" fill="#C49B3F" d="M64.469,39.205c-0.67,4.846-2.113,10.773-7.011,13.299c-3.351,0.876-7.165,0-7.165,0
		c1.546-0.979,2.938-2.32,4.484-3.299c5.31-2.319,5.619-4.846,6.702-10.413c1.031-0.98,2.217-1.805,3.505-2.681
		C64.778,37.143,64.675,38.226,64.469,39.205L64.469,39.205z"/>
	<path fill-rule="evenodd" fill="#3B3734" d="M67.51,152.509c-0.619,2.216-1.546,5.104-2.165,7.32
		c7.062,26.444-3.299,65.106-35.775,95.004c1.392,0.619,16.702-7.577,18.042-6.907C64.211,228.596,85.243,176.686,67.51,152.509
		L67.51,152.509z"/>
	<path fill-rule="evenodd" fill="#3B3734" d="M61.479,149.262c0,0-1.083-3.196-3.042-3.763c-5.052-0.876-14.176,0-19.794,3.093
		c-14.691,8.248-25.156,23.042-31.188,40.465c-9.588,18.661-13.351,65.571,10.104,73.921c17.424,2.732,25.517-9.33,33.971-19.279
		c-1.443-0.773-3.557-1.908-5.052-2.578c-5.104,7.166-19.125,20.568-29.022,14.846c-7.681-4.484-10.465-18.197-9.588-31.187
		c2.423-19.176,7.372-39.899,18.815-55.724c7.887-7.836,18.867-16.908,32.167-18.403c0.103-0.31,0.206,0.877,0.206,0.567
		C59.933,151.066,60.706,149.468,61.479,149.262L61.479,149.262z"/>
	<path fill-rule="evenodd" fill="#949393" d="M59.211,151.685c-34.796-7.063-56.858,61.858-50.828,87.994
		c5.104,16.702,13.403,18.97,22.063,14.485c17.733-14.691,24.744-33.506,34.177-51.961c-2.681,4.073-1.959,7.423-4.382,15.928
		c-4.846,17.011-24.383,45.518-37.321,40.776c-11.495-1.031-13.042-15.052-14.176-24.692c-2.68-24.176,15.568-83.561,49.384-81.344
		C58.489,152.509,58.85,152.045,59.211,151.685L59.211,151.685z"/>
	<path fill-rule="evenodd" fill="#FFFFFF" d="M57.046,223.389l-5.361,11.032l-2.784,5l3.248-1.65c0,0,3.712-5.619,4.382-7.99
		C57.149,227.41,57.046,223.389,57.046,223.389L57.046,223.389z"/>
	<path fill-rule="evenodd" fill="#24211D" d="M50.19,204.471c0,0,0,1.959-0.979,1.959s-2.732-0.516-2.732-0.516
		s-1.134,1.959-2.423,1.752c-1.237-0.258-2.629-1.443-2.629-1.443l0.619-2.422c0,0,2.629,0.876,3.093,0.206
		c0.516-0.619,1.186-1.186,1.186-1.186l0.567,0.67l-0.309,1.392c0,0,1.186,0.67,2.165,0.67
		C49.726,205.656,50.19,204.471,50.19,204.471L50.19,204.471z"/>
	<path fill-rule="evenodd" fill="#24211D" d="M41.942,203.131l-0.516,1.133c0,0-4.948-1.546-5.722-1.546
		c-0.773-0.103-2.114,1.289-2.784,1.186c-0.619-0.207-0.979-2.835-0.979-2.835l3.299-0.567L41.942,203.131z"/>
	<path fill-rule="evenodd" fill="#24211D" d="M31.529,197.77c0,0-0.567,0.979-0.258,1.855c0.464,0.773,0.361,1.752,0.361,1.752
		l-1.546-1.289l-2.938-1.031v-1.701l2.526,0.825l1.186-1.082L31.529,197.77z"/>
	<path fill-rule="evenodd" fill="#24211D" d="M70.294,102.816c-1.546,3.505-7.166,2.268-9.897,0.876
		c-0.31,0.412-0.67,0.824-1.083,1.185c2.835,1.083,5.67,2.165,8.454,3.299c0.98-1.34,2.835-2.629,3.506-3.867
		C70.964,103.796,70.603,103.332,70.294,102.816L70.294,102.816z"/>
	<polygon fill-rule="evenodd" fill="#24211D" points="69.263,109.053 73.129,109.466 74.779,107.198 	"/>
	<path fill-rule="evenodd" fill="#605D5C" d="M77.769,104.672c0,0,0.773,1.289,0.722,2.371c0,1.134-1.65,4.33-1.65,4.33
		l-1.392-0.566l1.546-4.176L77.769,104.672z"/>
	<path fill-rule="evenodd" fill="#24211D" d="M61.479,143.333c0,0,2.526,1.495,2.629,4.124c0.155,2.681-1.186,5.825-1.186,5.825
		l-2.217-0.31l1.753-1.443c0,0,0.67-3.815-0.103-5.155C61.582,145.034,61.479,143.333,61.479,143.333L61.479,143.333z"/>
	<path fill-rule="evenodd" fill="#6AC335" d="M58.18,150.138c0,0.876,0,1.598-0.104,2.474c0,0-4.175,11.65-5.928,15.723
		c-1.855,3.969-11.289,19.537-13.248,22.423c-2.114,3.042-5.052,6.135-5.052,6.135c-0.67,0.103-1.237,0.207-1.907,0.207
		c-0.309-0.516-0.67-1.083-0.979-1.547c0,0,6.031-6.701,7.887-9.743c1.752-2.887,6.959-14.846,6.959-14.846
		c-0.67,2.732-1.546,5.413-2.32,8.145c0,0,7.269-10.207,8.557-13.506c1.237-3.609,3.093-10.208,0.31-7.166
		c-1.495,2.32-2.938,4.743-4.382,7.062c2.423-5.155,5.052-10.464,7.062-15.826C56.118,149.88,57.098,150.086,58.18,150.138
		L58.18,150.138z"/>
	<path fill-rule="evenodd" fill="#3B3734" d="M147.566,81.32c-1.031,3.66-4.021,8.3-9.846,8.815
		c-5.876,0.67-24.847,2.474-24.847,2.474c0.31-1.237,0.567-3.763,0.877-5c0,0,22.784-2.578,30.259-5.877
		c3.093-3.711-3.917-5-6.031-5.567c-1.289-0.052-11.083,3.505-15.826,6.237c0,0,9.537-4.639,10.825-5.928
		C136.895,72.918,148.958,76.423,147.566,81.32L147.566,81.32z"/>
	<polygon fill-rule="evenodd" fill="#24211D" points="134.936,89.413 125.4,114.208 124.111,113.745 133.75,88.949 	"/>
	<path fill-rule="evenodd" fill="#6AC335" d="M125.864,116.167c5.464,20.568,10.876,41.188,16.547,61.756l-1.855,3.145l-3.815,2.732
		l-25.826,11.031l-0.412-3.557l27.888-12.063l0.515-2.99l-15.052-54.229l-3.042,10.877l-2.113-4.588l2.32-8.608l-4.485,0.567
		l-0.257-1.856l4.433-0.464l1.186-3.248L125.864,116.167z"/>
	<path fill-rule="evenodd" fill="#24211D" d="M111.121,182.15c0,0-4.794,15.62-5.052,16.959c-0.31,1.392-0.774,3.608-2.166,3.814
		c-1.443,0.104-2.113-0.876-1.443-2.216c0.567-1.186,1.547-1.598,2.423-4.124c0.979-2.422,4.949-15.31,4.949-15.31L111.121,182.15z"
		/>
	<path fill-rule="evenodd" fill="#24211D" d="M111.327,191.377c0.257,0.67,0.464,1.237,0.876,1.907
		c-0.31,0.309-0.619,0.618-0.825,0.876c0.309,0.515,0.619,0.876,0.876,1.288c-0.464,1.238-0.464,1.753-0.154,2.991
		c-0.413,0.309-0.722,0.669-1.083,1.082c0.206,0.464,0.361,0.876,0.566,1.444c-0.463,0.309-0.772,0.618-1.082,1.082
		c0.103,0.361,0.206,0.876,0.412,1.237c-0.412,0.413-0.876,0.722-1.237,1.083c0.051,0.567,0.155,1.289,0.258,1.855
		c-0.258,0.207-0.67,0.464-0.979,0.67c0,0.619,0.103,1.083,0.103,1.546c-0.257,0.103-0.67,0.309-0.979,0.413
		c0.104,0.566,0.207,1.237,0.31,1.855c-0.412,0.104-0.772,0.257-1.185,0.464c0,0.515-0.155,1.082-0.155,1.546
		c-1.186,0.876-1.598,1.289-2.062,2.525c-0.464,0-0.774-0.154-1.238-0.154c-0.206,0.361-0.618,0.825-0.825,1.237
		c-1.546-0.413-1.546-0.103-2.577,0.979c-1.392-0.67-1.392-0.413-2.629,0.463c-1.083-0.979-1.289-0.979-2.629-1.031
		c0.464-0.619,0.876-1.288,1.237-1.855c2.938,2.216,8.557-1.856,9.949-4.176c3.196-5.464,4.072-13.248,3.557-19.537
		c-0.361-1.855-0.361-1.959,0.31-3.711c0.36,0.412,0.772,0.67,1.082,1.083c-0.206,0.36-0.412,0.773-0.516,1.186
		c0.206,0.155,0.619,0.155,0.876,0.361C111.584,190.501,111.378,190.965,111.327,191.377L111.327,191.377z"/>
	<path fill-rule="evenodd" fill="#24211D" d="M107.718,185.346c-0.103,0.258-0.206,0.67-0.31,0.979
		c-8.35-2.062-13.505,12.784-13.763,18.816c-0.103,4.072,0.361,7.113,2.784,10.103c-0.258,0.516-0.67,0.98-0.979,1.495
		c-0.155-0.31-0.258-0.619-0.361-0.876c-0.413,0-0.773,0-1.083,0.052c-0.103-0.567-0.103-1.031-0.206-1.701
		c-0.258-0.206-0.67-0.413-0.876-0.721c0-1.34,0.103-1.238-0.928-2.114c-0.103-1.546-0.31-3.093-0.413-4.691
		c0.31-2.216,0.464-4.33,0.773-6.495c0.774-2.525,1.65-5.051,2.423-7.475c0.979-1.34,1.959-2.732,2.938-3.969
		c1.134-1.083,2.32-2.062,3.557-3.042c1.185-0.36,2.371-0.876,3.608-1.237C105.76,184.727,106.739,185.037,107.718,185.346
		L107.718,185.346z"/>
	<path fill-rule="evenodd" fill="#24211D" d="M104.316,203.131l-1.958,11.237l-1.083,0.516c0,0,1.185-4.021,1.289-5.67
		c0.103-1.701,0.36-5.207,0.36-5.207s-1.34,0-2.423,1.237c-1.031,1.392-6.186,6.908-6.186,6.908l-0.31-1.34l6.908-7.527l0.67-1.34
		l0.515,1.187l1.341,0.154L104.316,203.131z"/>
	<polygon fill-rule="evenodd" fill="#24211D" points="102.254,199.058 101.275,200.501 95.759,196.223 95.862,194.78 	"/>
	<polygon fill-rule="evenodd" fill="#24211D" points="106.43,185.552 105.09,190.501 104.007,195.708 102.924,197.1 
		105.192,185.707 	"/>
	<polygon fill-rule="evenodd" fill="#24211D" points="110.347,197.46 105.398,201.172 105.553,199.625 110.502,195.811 	"/>
	<path fill-rule="evenodd" fill="#24211D" d="M108.698,199.625c-0.876,4.484-2.371,7.372-4.485,11.187
		c-0.206-0.516-0.31-0.979-0.412-1.495c1.649-2.681,2.526-5.722,3.402-8.712C107.718,200.295,108.079,199.883,108.698,199.625
		L108.698,199.625z"/>
	<path fill-rule="evenodd" fill="#24211D" d="M101.584,210.965c-1.856,1.393-3.3,0.619-4.743-0.876
		c-0.309,0.413-0.67,0.773-0.979,1.289c1.855,1.959,3.196,2.114,5.618,0.876C101.48,211.842,101.584,211.378,101.584,210.965
		L101.584,210.965z"/>
	<path fill-rule="evenodd" fill="#24211D" d="M97.718,198.542c-1.083,2.526-1.289,5.258-1.495,8.093
		c-0.258,0.258-0.567,0.67-0.928,1.031c0.052-3.505,0.155-6.598,1.34-9.897C97.048,197.976,97.305,198.233,97.718,198.542
		L97.718,198.542z"/>
	<polygon fill-rule="evenodd" fill="#6AC335" points="112.667,146.323 114.987,150.344 115.09,153.179 114.781,158.128 
		105.553,183.696 99.316,185.346 	"/>
	<polygon fill-rule="evenodd" fill="#24211D" points="70.294,132.354 75.139,143.952 75.243,148.592 73.696,151.994 68.077,138.797 
			"/>
	<polygon fill-rule="evenodd" fill="#24211D" points="77.975,152.406 94.883,189.728 92.46,195.141 74.572,154.52 	"/>
	<path fill-rule="evenodd" fill="#24211D" d="M90.811,194.006c-0.67,0.928-1.34,1.907-2.062,3.093
		c-0.67,0.206-1.237,0.463-1.907,0.773c-1.959,7.577-4.176,15.155-5.774,22.733c0.31,2.063,0.104,2.063-1.031,3.712
		c-0.413-0.207-0.773-0.516-1.185-0.722c0-0.773,0-1.546,0-2.216c-0.464,0.412-0.98,0.979-1.444,1.443
		c-1.392-0.258-2.629-0.567-3.969-0.876c0.154,0.515,0.258,0.979,0.361,1.495c2.732,0.773,5.464,1.444,8.093,2.217
		c0,0,1.134-1.444,1.237-2.939c0.309-8.042,3.608-16.186,6.34-23.661c0.67,0,1.237,0.051,1.907,0.154
		C91.893,196.893,91.48,196.223,90.811,194.006L90.811,194.006z"/>
	<path fill-rule="evenodd" fill="#24211D" d="M141.638,178.335c0,0,4.742-4.072,7.268-4.072c6.702,0.361,2.629,7.268,0.876,10.413
		c-0.979,1.031-1.958,2.216-2.938,3.299c-0.104-0.516-0.155-0.876-0.155-1.392c9.227-12.99,3.402-13.299-5.567-7.062
		C141.225,179.109,141.431,178.748,141.638,178.335L141.638,178.335z"/>
	<path fill-rule="evenodd" fill="#24211D" d="M145.968,188.645l0.722,3.299l-4.175,2.062c0,0-1.701-1.083-0.876-2.269
		C142.411,190.501,145.968,188.645,145.968,188.645L145.968,188.645z"/>
	<path fill-rule="evenodd" fill="#24211D" d="M144.215,182.923c0.515,0.361,0.876,0.67,1.391,1.032c0,0.876-0.103,1.752-0.103,2.628
		c-2.629,1.752-4.691,2.732-6.134,5.567c1.443,0.567,1.392,0.567,1.855,2.011c-1.649-0.155-2.629-0.104-3.866-0.98
		c0.155,0.98,0.361,1.959,0.67,3.042c0,0-1.443,2.217-2.629,1.134c-1.959-1.649-1.082-6.083,0-8.145
		c0.104,0.979,0.207,1.959,0.207,2.835c2.113-0.413,3.866-0.979,3.196-3.505c0.773-0.31,1.546-0.67,2.216-0.979
		c-0.258-0.979-0.67-2.01-0.876-2.887c0.412-0.206,0.876-0.412,1.495-0.619c0.567,2.32,1.907,3.402,3.196,0.773
		C144.627,184.264,144.421,183.593,144.215,182.923L144.215,182.923z"/>
	<path fill-rule="evenodd" fill="#24211D" d="M137.462,195.553c0,0,0.773,2.887-1.959,3.866
		c-11.186,6.702-25.568,13.3-35.156,17.681c0.928-1.083,3.299-2.526,4.278-3.608C116.172,207.873,127.049,203.131,137.462,195.553
		L137.462,195.553z"/>
	<path fill-rule="evenodd" fill="#24211D" d="M148.803,196.429c0,0-6.495,13.661-10.104,17.372
		c-8.557,11.29-21.959,17.991-30.981,1.65c5.516,15.464,17.785,12.938,24.693,6.804c-11.857,13.815-25.208,4.073-28.095-6.907
		c1.444-0.67,2.99-1.34,4.485-2.01c1.907,4.072,5.825,10.67,11.031,10.98c14.021,0.463,23.712-20.414,27.424-27.889H148.803z"/>
	<path fill-rule="evenodd" fill="#CF9E79" d="M106.327,87.506c0.876,2.629,1.752,5.31,2.731,7.938
		c-1.907,8.249-5.051,16.341-6.907,24.589c-0.567,2.32,0.103,7.887,1.495,9.897c1.444,1.958,8.145,7.681,9.485,10.103
		c1.495,2.475,2.938,5.825,2.938,5.825c3.299,1.392,4.072-0.154,6.289-2.113c-2.216,3.969-4.072,4.742-8.505,4.64
		c-4.485-7.063-8.093-13.558-14.382-19.383l-0.31,0.567c-0.412-0.619-0.979-1.186-1.649-1.598c2.835-8.608,6.959-17.269,7.371-26.29
		c0.413-2.269,1.289-4.175,1.289-4.175c-3.505,1.082-3.712,2.783-5.67,5.928c0.206-4.381,1.083-6.34,3.918-9.537
		c0.206,0.67,0.463,1.34,0.67,1.959C106.842,93.125,106.636,90.806,106.327,87.506L106.327,87.506z"/>
	<path fill-rule="evenodd" fill="#3B3734" d="M119.059,46.679c5.361,8.763,6.701,21.187,1.856,30.517
		c-2.114,4.072-6.702,14.743-6.702,14.743c-1.65-2.681-30.724-2.422-32.27-5.103c0.567-1.753,11.599-13.661,12.217-15.414
		c0.67,0.413,18.506,7.99,19.176,8.403c-0.361-1.753-0.876-3.505-1.34-5.361c1.031,0.463,2.217,0.876,3.299,1.34
		c-0.67-1.547-1.392-3.196-1.959-4.743c0.979-4.072,1.959-8.042,2.835-12.166c1.238-0.257,2.32-0.463,3.609-0.669
		c-1.392-0.567-2.733-1.031-4.125-1.753c1.392-1.031,2.629-2.114,4.021-3.299c-1.495,0-2.835,0.206-4.176,0.206
		c1.238-1.237,2.526-2.526,3.867-3.866c-1.753,0.567-3.402,1.134-4.949,1.752c-0.206-0.619-0.206-1.289-0.413-1.855
		C115.657,48.535,117.41,47.659,119.059,46.679L119.059,46.679z"/>
	<path fill-rule="evenodd" fill="#5A7B53" d="M111.121,50.494c-2.526,2.68-5.826,4.227-8.867,6.186
		c-0.36-4.948,1.392-9.227,1.546-14.073c-0.876,2.216-1.701,4.485-2.577,6.701c-1.186-3.196-2.475-6.495-3.712-9.742
		c0.309,3.041,0.567,5.825,0.877,8.866c0.979,4.587,5.464,7.99,6.701,12.372c0.412,3.196-2.63,7.629-2.216,10.773
		c3.763-4.691,4.072-10.155,4.33-15.98C108.492,53.845,109.729,52.195,111.121,50.494L111.121,50.494z"/>
	<path fill-rule="evenodd" fill="#5A7B53" d="M94.213,67.763c-3.402,0.464-6.702,1.083-10.207,1.649
		c-0.67-2.113-1.443-4.278-2.217-6.495c-4.949-4.588-8.351-8.557-8.093-15.774c-1.65,5-0.258,9.176,2.938,13.042
		c-1.855-1.34-3.814-2.835-5.67-4.176c1.856,2.526,3.815,5.052,5.67,7.681c-1.649,0.36-3.402,0.567-5.052,0.979
		c6.598,2.113,8.918,0.567,12.527,7.475C87.511,70.701,90.811,69.206,94.213,67.763L94.213,67.763z"/>
	<path fill-rule="evenodd" fill="#605D5C" d="M44.932,42.091c0.206,1.959-1.752,1.752-2.99,2.062
		c-0.206,0.413-0.516,0.877-0.773,1.186c-0.516-0.309-0.979-0.618-1.444-0.876c0.464-0.412,0.876-0.876,1.34-1.289
		C42.509,42.864,43.694,43.071,44.932,42.091L44.932,42.091z"/>
	<path fill-rule="evenodd" fill="#CF9E79" d="M38.849,41.318c0.258,2.165,0.258,2.268,1.546,3.918
		c0.979,1.907,1.546,2.886,2.99,4.536c0.412,4.072,4.846,3.247,7.681,2.165c-0.464,0.567-0.773,1.082-1.186,1.649
		c-4.227,1.134-6.186,0.103-7.629-3.608c-1.392-1.753-2.062-3.196-2.526-5.361c-1.392-1.804-2.732-3.66-4.021-5.516
		C36.684,39.875,37.767,40.648,38.849,41.318L38.849,41.318z"/>
	<path fill-rule="evenodd" fill="#5A7B53" d="M64.984,36.009c-0.309,6.289-1.186,20.465-11.753,16.908
		c1.031-0.722,4.227-1.186,5.413-1.856c2.217-0.876,3.97-5.154,4.743-9.124C63.696,40.339,64.984,36.009,64.984,36.009
		L64.984,36.009z"/>
	<path fill-rule="evenodd" fill="#D1A07A" d="M43.179,66.319c-0.052,5.619-0.361,9.485-2.423,14.64
		c0.876,7.217-1.134,11.959-3.093,18.764c-0.773,0.206-1.547,0.309-2.32,0.413c1.134-3.918,7.269-14.898,1.34-16.032
		c-0.309,0.464-0.67,0.979-0.979,1.443c0.309,0.361,0.619,0.773,0.773,1.083c-3.454-0.413-3.763-1.855-3.402-4.949
		c-0.464-1.752-0.876-3.609-1.34-5.361c8.248,4.072,8.866-2.939,9.124-9.434C41.736,66.68,42.406,66.525,43.179,66.319
		L43.179,66.319z"/>
	<polygon fill-rule="evenodd" fill="#24211D" points="64.675,136.271 58.334,141.323 62.149,143.076 60.396,141.323 63.231,138.797 
		63.231,141.426 	"/>
	<path fill-rule="evenodd" fill="#3B3734" d="M87.15,68.175c19.846-8.248,1.083,11.907,3.763,20.413
		c-0.876-0.103-2.165,0.722-3.042,0.67c0,0-3.763,9.691-4.072,11.548c-1.134,6.031-1.856,7.371,1.546,12.99
		c-2.887-0.928-5.825-1.804-8.712-2.783c0.773-2.269,1.546-4.588,2.217-6.908c-2.423,0-4.949,0-7.475,0
		c-0.67-3.093-8.145-2.732-10.671-2.938c2.011-12.32,3.763-22.527,9.588-33.507c0,0,6.804,0.103,9.073,1.855
		C81.686,71.165,87.15,68.175,87.15,68.175L87.15,68.175z"/>
	<path fill-rule="evenodd" fill="#C18557" d="M92.047,157.819c0.207,0.979,0.413,1.959,0.619,2.938
		c-1.752,2.835-3.608,2.628-6.547,1.546c-2.68-0.31-1.907,2.99-0.463,4.175c2.216,1.649,5.928,1.083,8.557,0.413
		c-1.083,1.031-2.166,2.113-3.196,3.298c1.134,3.505,0.464,4.949,4.278,5.825c-0.619,0.566-1.082,1.083-1.495,1.753
		c1.495-0.207,3.041-0.31,4.588-0.516c-2.063,2.165-5.258,3.299-7.888,2.165c-2.525-5.671-5.052-11.393-7.578-17.012
		c1.083-1.649,1.855-2.938,2.423-4.691C86.429,161.633,90.295,159.984,92.047,157.819L92.047,157.819z"/>
	<path fill-rule="evenodd" fill="#24211D" d="M125.605,143.54c2.578-1.031,3.97,0,5.052,2.268c-0.413-0.619-2.732-3.144-2.835-0.979
		c1.959,1.855,1.959,3.866,2.113,6.392c0.516-0.31,0.979-0.67,1.495-0.979c0.155,1.495,0.361,2.835,0.567,4.278
		c-1.443,4.485-6.031,7.114-10.516,7.578c1.598,0.309,3.145,0.67,4.691,0.98c-2.32,0.412-4.588,0.773-6.701,1.186
		c0.361-1.547,0.567-3.196,0.979-4.897c-1.649-0.258-3.196-0.567-4.794-0.824c-0.155-0.877-0.36-1.753-0.566-2.526
		c3.866,1.546,5.928,1.34,9.433-0.722c-3.093,0.619-5.258,0.876-8.248-0.361c0,0,5.515-0.103,6.289-0.67
		c0.876-0.619,4.794-2.166,4.794-2.166c-0.207,1.289-0.619,2.423-0.876,3.815c4.33-1.753,2.783-5.361,1.804-8.97
		C127.359,145.808,126.482,144.726,125.605,143.54L125.605,143.54z"/>
	<path fill-rule="evenodd" fill="#24211D" d="M126.275,148.024c0,0-1.185,3.763-2.525,4.588c-1.392,0.67-3.608,1.701-4.793,1.443
		c-1.238-0.206-2.526-0.773-2.526-0.773l3.814-1.186c0,0,1.237,0.67,2.835-0.566C124.626,150.344,126.275,148.024,126.275,148.024
		L126.275,148.024z"/>
	<path fill-rule="evenodd" fill="#24211D" d="M133.75,157.922c0,0-0.515,5.052-2.32,6.908c-1.958,1.855-3.402,6.031-3.814,7.114
		c-0.257,1.031-4.175,5.722-4.175,5.722c0,0.464-0.207,0.979-0.207,1.444c0.619,0.103,1.289,0.103,2.063,0.206
		c0.463-0.103,1.186-0.309,1.752-0.412c-0.515,0.619-0.979,1.186-1.546,1.753c-1.186-0.207-2.423-0.361-3.608-0.361
		c-2.319,0.876-5.516,2.784-8.145,2.731c-0.979-0.103-4.021-1.289-4.021-1.289c-0.051-0.567-0.051-1.186-0.051-1.752
		c0,0,5.104,1.546,6.289,0.567c1.082-0.876,5.258-3.866,5.258-3.866c0.464-1.082,1.083-2.114,1.65-3.196
		c-1.547-0.516-3.093-0.979-4.794-1.443c0.722-1.289,1.392-2.372,2.165-3.506c1.855,0.67,3.867,1.341,5.928,2.011
		c0,0,2.114-3.402,3.299-4.948c1.083-1.546,1.958-1.753,2.526-3.403C132.565,160.551,133.75,157.922,133.75,157.922L133.75,157.922z
		"/>
	<path fill-rule="evenodd" fill="#24211D" d="M114.729,162.097c1.34,0.207,2.681,0.516,4.175,0.773c0,0-0.876,2.268-1.494,2.268
		c-0.464,0-2.99-0.309-2.99,0.464c0,0.876,2.99,2.062,2.99,2.062c-1.134,0.104-2.32,0.155-3.558,0.258
		c0.928,0.721,1.908,1.288,2.888,1.959c0,0-2.99-0.361-3.609,0.412c-0.67,0.67,0,2.319,0.619,2.68
		c0.67,0.31,4.845,0.773,4.845,0.773c-1.546,1.753-3.093,3.402-4.69,5.052c-1.908-1.34-2.578-0.258-4.073,1.289
		c-1.031-1.959,1.289-5.464,1.649-7.475c0.206-1.083,2.938-12.063,2.938-12.063C114.522,161.066,114.626,161.53,114.729,162.097
		L114.729,162.097z"/>
	<path fill-rule="evenodd" fill="#24211D" d="M91.377,199.522c-0.103,2.32-0.206,4.485-0.257,6.805
		c-1.65,1.237-3.351,2.526-4.897,3.763c0,0,3.042-8.505,3.248-9.124C89.831,200.398,91.377,199.522,91.377,199.522L91.377,199.522z"
		/>
	<path fill-rule="evenodd" fill="#24211D" d="M75.346,196.326c3.917-1.289,6.34,0.67,8.97,3.299c0,0-0.979,6.908-2.268,11.187
		c-1.134,4.278-3.505,8.917-5.207,10.104c-1.701,1.031-5.258,2.113-5.258,2.113s-7.372,0.103-7.887-0.206
		c-0.361-0.361,0.567-2.681,0.567-2.681c1.598-1.082,4.588,0.155,6.701-0.825c-0.361-0.567-0.876-1.237-1.237-1.907
		c1.186,0,2.319,0,3.402,0c-0.412-0.67-0.979-1.495-1.443-2.165c1.237-0.154,2.423-0.36,3.66-0.567
		c-0.67-0.464-1.34-1.185-1.907-1.547c0,0,1.031-6.443,2.577-7.216c1.495-0.67,5.155,0.103,5.155,0.103
		c2.062-4.381-3.66-5.31-6.702-5.825c0.103-0.567,0.206-1.134,0.413-1.855c0,0,3.66,1.546,4.175,0.412
		C79.933,197.1,76.222,196.532,75.346,196.326L75.346,196.326z"/>
	<path fill-rule="evenodd" fill="#24211D" d="M74.779,204.264c0,0-3.299-0.103-3.815,0.516c-0.464,0.669-1.34,3.969-1.34,3.969
		s-0.31,2.99-0.98,3.711c-0.67,0.877-2.525,2.784-2.525,2.784l2.422-0.67l2.938-0.876l-1.392-0.979l2.372-0.567l-2.268-1.083
		l2.423-1.237l-1.65-0.67l2.835-1.186l-2.114-0.773l3.299-0.567l-2.732-1.083L74.779,204.264z"/>
	<path fill-rule="evenodd" fill="#24211D" d="M73.902,199.419c0,0-0.67-2.835,0.412-3.711c0.928-0.876,2.681-1.546,3.351-1.237
		c0.876,0.206,1.958,0.876,1.958,0.876s-2.629-0.309-3.505,0c-0.98,0.31-1.547,1.444-1.547,1.444L73.902,199.419z"/>
	<path fill-rule="evenodd" fill="#CF9E79" d="M101.12,96.063c-2.269,5.825-3.711,17.682-4.794,25.053
		c-0.464-0.67-0.773-1.443-1.134-2.062c0,0,3.66-18.352,3.299-20.207c-0.516-1.753-4.949-8.815-4.949-8.815
		c2.681,2.217,3.866,2.217,4.175-0.412C100.605,92.661,101.224,94.208,101.12,96.063L101.12,96.063z"/>
	
		<line fill="none" stroke="#24211D" stroke-width="0" stroke-linecap="square" stroke-miterlimit="10" x1="42.715" y1="209.162" x2="13.59" y2="253.648"/>
	
		<line fill="none" stroke="#24211D" stroke-width="0" stroke-linecap="square" stroke-miterlimit="10" x1="39.107" y1="206.121" x2="7.92" y2="240.348"/>
	
		<line fill="none" stroke="#24211D" stroke-width="0" stroke-linecap="square" stroke-miterlimit="10" x1="38.643" y1="205.914" x2="23.59" y2="258.7"/>
	
		<line fill="none" stroke="#24211D" stroke-width="0" stroke-linecap="square" stroke-miterlimit="10" x1="45.138" y1="152.097" x2="43.179" y2="200.966"/>
	
		<line fill="none" stroke="#24211D" stroke-width="0" stroke-linecap="square" stroke-miterlimit="10" x1="31.271" y1="162.097" x2="47.097" y2="199.625"/>
	
		<line fill="none" stroke="#24211D" stroke-width="0" stroke-linecap="square" stroke-miterlimit="10" x1="45.911" y1="208.079" x2="51.066" y2="237.05"/>
	
		<line fill="none" stroke="#24211D" stroke-width="0" stroke-linecap="square" stroke-miterlimit="10" x1="43.901" y1="209.419" x2="43.901" y2="245.452"/>
	
		<line fill="none" stroke="#24211D" stroke-width="0" stroke-linecap="square" stroke-miterlimit="10" x1="67.665" y1="198.542" x2="50.293" y2="203.285"/>
	
		<line fill="none" stroke="#24211D" stroke-width="0" stroke-linecap="square" stroke-miterlimit="10" x1="69.057" y1="195.141" x2="36.478" y2="197.667"/>
	<path fill-rule="evenodd" fill="#A9A8A7" d="M61.582,151.891c0.258-4.537,0.928-7.475-4.021-8.815
		c-2.784-0.309-3.66-0.207-4.742,2.113c5.619-0.36,7.372,1.495,7.578,6.547C60.809,151.788,61.273,151.891,61.582,151.891
		L61.582,151.891z"/>
	<path fill-rule="evenodd" fill="#FFFFFF" d="M73.49,112.147c4.279,0.876,17.991,3.144,16.341,9.948
		c-0.464,2.32-4.485,6.496-4.485,6.496c-0.567,0.206-1.134,0.464-1.753,0.67c9.228-10.413,2.629-12.732-7.578-15.465
		C75.139,113.332,74.366,112.765,73.49,112.147L73.49,112.147z"/>
	<path fill-rule="evenodd" fill="#FFFFFF" d="M66.016,108.28c-1.753,1.856-4.176,2.423-4.64-0.773
		C63.231,108.383,64.005,108.487,66.016,108.28L66.016,108.28z"/>
	<path fill-rule="evenodd" fill="#FFFFFF" d="M55.448,106.063c0,0-21.651-7.629-25.826-7.526
		c-35.105-2.165-4.073-0.876,12.681,4.124C44.932,102.919,55.448,106.063,55.448,106.063L55.448,106.063z"/>
	<polygon fill-rule="evenodd" fill="#FDBEB3" points="67.51,121.786 69.417,122.869 65.758,134.055 62.51,136.375 	"/>
	<polygon fill-rule="evenodd" fill="#FFFFFF" points="66.119,135.962 63.593,143.746 63.386,141.993 65.036,136.839 	"/>
	<path fill-rule="evenodd" fill="#F99F3D" d="M116.843,50.751c-1.289,0.516-2.526,0.98-3.815,1.393c0-0.722,0-1.393,0-2.165
		c0,0-4.175,3.196-4.227,5.155c-0.206,6.702-1.753,11.959-5.052,17.785c0.154,2.422,0.258,4.846,0.361,7.165
		c1.649,1.083,3.196,2.063,4.742,2.939c0.619-1.959,0.979-3.866,1.599-5.929c0.67,0.413,1.34,0.671,2.112,1.083
		c-0.67-1.495-1.237-3.042-1.855-4.485c0.876,0.206,1.65,0.31,2.526,0.413c-0.567-1.289-1.133-2.629-1.752-4.021
		c0,0,2.371-6.958,2.423-8.814c0-1.959,1.856-3.145,1.856-3.145c-0.67-0.258-1.238-0.464-1.856-0.773
		c0.979-0.979,1.958-1.907,2.938-2.99c-0.98,0.31-2.062,0.567-2.99,0.877C114.781,53.69,115.863,52.195,116.843,50.751
		L116.843,50.751z"/>
	<path fill-rule="evenodd" fill="#C1C0BF" d="M62.458,28.586c0,0-0.31,2.525-5.567,4.278c-5.155,1.65-20.31,1.083-20.98,1.083
		c-3.402-0.206-4.382-2.423-5.258-5.361c0.618,0,1.289-0.052,1.752-0.155c0,0,0.979,2.887,3.608,3.092
		c2.526,0.207,17.011,0.362,18.661-0.463c1.546-0.825,4.948-2.526,4.948-2.526C60.603,28.534,61.479,28.586,62.458,28.586
		L62.458,28.586z"/>
	<path fill-rule="evenodd" fill="#FFFFFF" d="M130.813,90.599c0,0-0.155,1.959-0.773,3.403c-0.567,1.237-7.062,18.918-7.062,18.918
		l-1.289,0.413c0,0,7.011-19.743,7.578-20.516C129.782,92.042,130.813,90.599,130.813,90.599L130.813,90.599z"/>
	<polygon fill-rule="evenodd" fill="#ABDC7D" points="124.008,117.611 122.358,116.838 119.369,128.694 120.348,130.911 	"/>
	<polygon fill-rule="evenodd" fill="#ABDC7D" points="114.007,150.138 102.667,183.8 104.78,183.387 114.214,156.839 
		114.42,151.427 	"/>
	<polygon fill-rule="evenodd" fill="#ABDC7D" points="125.297,119.466 139.267,171.634 124.884,121.683 	"/>
	<polygon fill-rule="evenodd" fill="#ED4E17" points="77.872,154.056 76.634,155.139 92.563,191.635 93.027,189.419 	"/>
	<polygon fill-rule="evenodd" fill="#ED4E17" points="69.727,134.982 74.985,147.354 74.005,149.107 69.417,137.612 	"/>
	<polygon fill-rule="evenodd" fill="#ABDC7D" points="120.709,118.023 120.142,115.394 114.214,116.167 116.276,118.59 	"/>
	<polygon fill-rule="evenodd" fill="#ABDC7D" points="85.449,120.136 75.139,121.322 72.717,122.972 72.562,124.415 86.223,122.766 
		86.738,121.58 	"/>
	<path fill-rule="evenodd" fill="#6AC335" d="M75.139,115.961l-1.031,4.485l1.443,1.34l-2.216,1.083l-6.702,21.444
		c0,0,1.134,3.711,0.876,5.825c-0.413,2.165-6.444,25.568-7.578,29.383c-1.289,3.866-6.341,17.579-7.423,19.537
		c-1.031,1.804-3.402,4.433-3.402,4.433l-2.011-0.567c0,0,2.784-1.855,3.66-4.587c0.876-2.784,8.764-23.094,10.516-32.527
		c1.752-9.434,4.743-14.588,4.175-17.423c-0.567-2.681-0.979-5.877-0.979-5.877l6.134-19.537l-4.175-2.268l-0.309-1.443l5.928,1.443
		l1.856-5.619L75.139,115.961z"/>
	<polygon fill-rule="evenodd" fill="#6AC335" points="86.635,121.89 71.686,123.848 71.583,125.961 86.068,124.105 	"/>
	<path fill-rule="evenodd" fill="#24211D" d="M83.439,117.044c-3.248-1.495-16.65-4.691-16.65-4.691
		c0.413-1.34,0.773-2.887,1.186-4.382c0,0-2.32,2.166-3.969,2.938c-1.649,0.67-4.072,0.206-4.279-0.876
		c-0.206-1.186,0.464-4.176,0.464-4.176c-1.907,1.083-2.217,2.217-2.629,4.176c-7.062-3.505-22.32-6.135-28.867-7.888
		c-21.444-3.608-4.176,0.928,7.165,3.506c8.403,2.681,20.208,4.433,29.022,7.99c0,0,17.681,4.073,19.589,5.516
		c1.958,1.444,1.752,4.176,1.752,4.176C87.718,120.704,86.635,118.59,83.439,117.044L83.439,117.044z"/>
	<path fill-rule="evenodd" fill="#B1B3B7" d="M131.019,137.096c30.723-19.898,28.249,21.702,21.496,43.301
		c4.897-19.176,12.681-62.374-21.032-42.012C131.379,137.921,131.019,137.663,131.019,137.096L131.019,137.096z"/>
	<path fill-rule="evenodd" fill="#949393" d="M85.656,183.593c0,0,1.34,5.155,2.422,6.702c1.083,1.649,0.67,3.299,0.67,3.299
		s-2.526,3.506-3.557,3.299c-0.979-0.206-6.031-1.856-6.031-1.856l-3.505-0.103c0,0,1.186-2.423,1.443-3.3
		c0.413-0.67-0.258-4.743-0.258-4.743l4.227-0.876l-2.319,2.629l4.845-1.289l-4.175,3.145l4.588-0.979l1.752-1.546l-1.649-2.423
		L85.656,183.593z"/>
	<path fill-rule="evenodd" fill="#828180" d="M136.586,173.747c0,0-2.062,3.042-2.062,4.124c-0.104,0.928-0.464,1.908-0.464,1.908
		l3.764-1.649L136.586,173.747z"/>
	<path fill-rule="evenodd" fill="#828180" d="M133.648,177.356c-1.083-0.207-2.217-0.361-3.3-0.67c0,0,0.207-4.484-1.185-3.969
		c-2.526,1.031-2.423,3.969-2.32,6.083c-0.206,0.515-0.464,1.083-0.773,1.495c1.444,1.855,3.969,0.257,4.485-1.289
		c0.876,0.104,1.752,0.309,2.629,0.516C133.338,178.799,133.544,178.129,133.648,177.356L133.648,177.356z"/>
	
		<line fill="none" stroke="#24211D" stroke-width="0" stroke-linecap="square" stroke-miterlimit="10" x1="140.555" y1="176.222" x2="156.793" y2="150.138"/>
	
		<line fill="none" stroke="#24211D" stroke-width="0" stroke-linecap="square" stroke-miterlimit="10" x1="127.152" y1="180.758" x2="124.008" y2="222.564"/>
	
		<line fill="none" stroke="#24211D" stroke-width="0" stroke-linecap="square" stroke-miterlimit="10" x1="130.452" y1="179.314" x2="116.378" y2="221.843"/>
	
		<line fill="none" stroke="#24211D" stroke-width="0" stroke-linecap="square" stroke-miterlimit="10" x1="124.008" y1="180.088" x2="108.801" y2="210.708"/>
	
		<line fill="none" stroke="#24211D" stroke-width="0" stroke-linecap="square" stroke-miterlimit="10" x1="134.73" y1="187.254" x2="118.286" y2="222.719"/>
	
		<line fill="none" stroke="#24211D" stroke-width="0" stroke-linecap="square" stroke-miterlimit="10" x1="132.462" y1="185.037" x2="135.967" y2="213.595"/>
	<polygon fill-rule="evenodd" fill="#ABDC7D" points="139.112,180.088 112.203,191.841 112.203,193.388 137.359,182.408 	"/>
	<path fill-rule="evenodd" fill="#C1A25F" d="M138.338,78.021c5.928,1.082,3.866,2.526,2.629,2.99
		c-3.145,0.413-19.95,4.227-19.95,4.227C125.4,84.207,133.286,80.186,138.338,78.021L138.338,78.021z"/>
	<path fill-rule="evenodd" fill="#24211D" d="M103.749,193.388c-0.515,0-0.875,0.206-1.289,0.309
		c0.464-1.959,0.98-3.814,1.547-5.722c-2.732,2.216-4.381,3.66-5.618,6.959c1.442,0.876,2.835,1.649,4.071,2.526
		c0.414-0.361,0.774-0.928,1.083-1.547C103.646,195.037,103.646,194.161,103.749,193.388L103.749,193.388z"/>
	<path fill-rule="evenodd" fill="#24211D" d="M100.914,201.172l-3.402-2.732l-1.186,1.958c0,0,2.423,2.113,3.042,2.525
		C99.831,203.285,100.914,201.172,100.914,201.172L100.914,201.172z"/>
	<polygon fill-rule="evenodd" fill="#24211D" points="108.801,192.253 108.801,195.037 107.151,196.532 	"/>
	<path fill-rule="evenodd" fill="#24211D" d="M106.172,202.254c-0.412,0.258-0.876,0.67-1.289,1.031
		c-0.257,1.392-0.463,2.836-0.67,4.279C105.09,205.914,105.966,204.162,106.172,202.254L106.172,202.254z"/>
	<path fill-rule="evenodd" fill="#24211D" d="M133.338,179.882v-1.083l-3.403-0.464c0,0-0.051,1.083-1.339,1.959
		c-1.341,0.876-2.423,0.257-2.423,0.257s0.567,0.876,1.186,0.876c0.67,0.104,1.237-0.257,1.804-0.772
		c0.619-0.567,0.979-1.341,0.979-1.341L133.338,179.882z"/>
	<path fill-rule="evenodd" fill="#ABDC7D" d="M68.954,20.441c0,0,16.29,7.578,18.918,10.877c2.526,3.196,5.567,5.825,5.567,5.825
		c-7.011,0.412-9.33,2.629-13.145,7.888c0,0-2.784-6.238-6.186-7.578c-3.196-1.34-7.011-4.072-7.011-4.072
		C69.727,28.431,70.191,25.905,68.954,20.441L68.954,20.441z"/>
	<path fill-rule="evenodd" fill="#ABDC7D" d="M93.8,40.339c-6.495,0.619-9.794,4.588-12.423,10.207
		c-0.206,7.577,7.578,7.011,7.217,17.423c3.299-0.876,16.444-2.732,16.238-7.372c0,0-8.97-10.31-9.073-13.609
		C95.759,43.689,93.8,40.339,93.8,40.339L93.8,40.339z"/>
	<path fill-rule="evenodd" fill="#ABDC7D" d="M30.962,34.514c0,4.897,2.629,6.701,5.619,10.052c-1.908-1.289-3.97-2.475-5.928-3.712
		c1.856,3.867,3.196,6.495,6.34,9.331c-2.165-1.186-4.175-2.32-6.34-3.608c0,0,0.618,5.052,0.618,5.928
		c-0.103,0.773,3.454,2.732,3.454,2.732c-1.031,0.206-2.114,0.36-3.196,0.567c1.289,0.67,2.526,1.289,3.918,1.855
		c-1.598,0.103-3.248,0.206-4.897,0.31C28.746,50.546,27.766,41.627,30.962,34.514L30.962,34.514z"/>
	<path fill-rule="evenodd" fill="#ABDC7D" d="M37.767,63.175c-0.876-0.567-1.753-1.237-2.732-1.907
		c-1.546-0.516-3.299-0.979-4.948-1.495C31.271,61.268,35.808,64.566,37.767,63.175L37.767,63.175z"/>
	<path fill-rule="evenodd" fill="#ABDC7D" d="M108.801,31.318c0,0,4.639,3.402,4.33,5.825c-0.258,2.526-6.186,8.66-6.186,8.66
		s3.196-6.392,3.299-8.557C110.347,35.235,108.801,31.318,108.801,31.318L108.801,31.318z"/>
	<path fill-rule="evenodd" fill="#ABDC7D" d="M116.946,42.968c0,0-4.279,2.269-4.691,3.041c-0.464,0.774-3.969,3.97-3.969,3.97
		c1.959-1.083,3.815-2.114,5.825-3.299C115.09,45.391,115.966,44.256,116.946,42.968L116.946,42.968z"/>
	<path fill-rule="evenodd" fill="#24211D" d="M83.696,118.178c-6.701,0.206-36.909,2.526-24.846,15.877
		c-0.207,0.36-0.413,0.772-0.516,1.031c-3.454-4.382-5.825-8.815-0.154-12.629c5.825-3.866,17.063-4.846,24.176-5.258
		C82.82,117.611,83.336,117.92,83.696,118.178L83.696,118.178z"/>
	<path fill-rule="evenodd" fill="#FFFFFF" d="M79.831,117.044c-9.021,1.34-16.444,3.092-18.97,4.175
		c-3.402,1.546-5.103,3.196-6.392,6.804c0.413-2.629,0.876-4.588,3.712-5.928c3.763-3.402,13.866-4.381,20.465-6.031
		C78.542,116.425,79.933,116.734,79.831,117.044L79.831,117.044z"/>
	<path fill-rule="evenodd" fill="#3B3734" d="M68.748,18.481c-3.454,7.218-15.826,8.3-22.939,9.073
		c-7.165,1.031-11.083-0.103-17.011-0.773c0.619,0.67,1.186,1.34,1.753,1.907c6.546,1.186,12.629,1.753,22.166,0.619
		c0.413,0.258,1.186,0.928,1.547,1.134c-2.114,0.412-4.278,0.876-6.289,1.289c0,0,5.413,0.464,7.165-0.207
		c1.753-0.67,4.588-2.216,4.588-2.216c0.258,0,0.567,0.051,0.876,0.051c-0.67,2.165-3.299,2.836-5.155,3.609
		c4.846,8.351,3.196,10.516-1.186,16.805c5.567,0.309,7.475-7.681,7.475-10.465c0.619-0.67,1.186-1.495,1.752-2.165
		c-3.196,0.103-3.557-1.031-4.536-3.763c1.546-1.495,2.99-2.938,4.536-4.485c0.876,0.309,2.423,0.463,3.248,0.67
		c0.825-0.773,1.031-1.546,1.804-2.423c-0.567-2.422-1.649-4.279-0.876-6.907C67.768,19.358,68.696,19.461,68.748,18.481
		L68.748,18.481z"/>
	<path fill-rule="evenodd" fill="#3B3734" d="M56.324,31.885c-5.567,1.391-11.547,1.185-17.32,1.185
		c-3.299-0.309-6.083,0.103-8.145-3.763c0,0,1.083,6.495,1.959,7.835c0.979,1.753,5.825,1.753,5.825,1.753
		c1.649-3.197,2.783-1.547,5.154,0c3.557,3.144,9.898-2.526,12.733-4.743C56.427,33.637,56.427,32.4,56.324,31.885L56.324,31.885z"
		/>
	<path fill-rule="evenodd" fill="#24211D" d="M44.365,37.813c-0.413,0.516-0.876,0.98-1.34,1.495
		c-1.289-1.186-3.145-2.32-3.917-0.206c-0.464-0.309-0.876-0.567-1.34-0.979C39.107,34.256,42.303,36.473,44.365,37.813
		L44.365,37.813z"/>
	<path fill-rule="evenodd" fill="#FBBC88" d="M115.812,81.217c1.186-2.216-12.166-20.311-12.371-22.166
		c-3.093,4.175-2.578,0.773-9.125,4.434c-6.598,2.01-8.197,4.794-8.197,4.794c1.547-2.526,1.959,8.867,14.795,19.279
		c-2.268,8.248-0.979,18.712-8.66,22.63c-0.979,1.34-0.979,5.567-1.908,7.011c6.083,2.732,8.609,1.031,8.97,7.526
		c1.959-5.929,3.918-11.856,5.774-17.785C109.317,103.641,120.091,81.835,115.812,81.217L115.812,81.217z"/>
	<path fill-rule="evenodd" fill="#24211D" d="M97.357,118.642c-1.546,3.506,1.598,6.083-1.134,4.743
		c-0.309,0.361-0.67,0.773-1.083,1.134c2.835,1.082,8.66,4.381,11.496,5.567c0.979-1.34,0.825-5.31,1.546-6.598
		C107.873,123.023,97.615,119.105,97.357,118.642L97.357,118.642z"/>
	<path fill-rule="evenodd" fill="#FBBC88" d="M86.583,129.725c0,0,1.393,2.422,1.701,2.681c0.31,0.257,1.702,1.031,2.32,0.618
		c0.67-0.618,0.051-3.247-0.413-3.969c-0.309-0.877-3.196-2.526-3.608-2.423C86.223,126.786,86.068,128.178,86.583,129.725
		L86.583,129.725z"/>
	<path fill-rule="evenodd" fill="#CFA27A" d="M86.326,128.23c0,0,0.721,0.361,0.876,0.825c0.207,0.515,0.876,1.907,1.701,2.165
		c0.825,0.206,1.495,0,1.495-0.361c0-0.361-0.516-1.959-0.516-1.959s-2.887-2.114-3.402-1.701
		C86.171,127.663,86.326,128.23,86.326,128.23L86.326,128.23z"/>
	<path fill-rule="evenodd" fill="#FBBC88" d="M100.965,125.859c0,0-1.34,2.01-1.495,2.216c-0.103,0.103-0.774-0.052-0.979,0.051
		c-0.207,0.051-1.752,0.206-2.526,0.928c-0.773,0.722-0.413,1.856,0.67,2.01c1.134,0.257,2.887,0.31,3.402,0.361
		c1.031,0.412,1.598,0,2.526-0.67c0.567-0.464,1.649-1.649,1.958-2.371C104.522,127.766,103.079,124.672,100.965,125.859
		L100.965,125.859z"/>
	<path fill-rule="evenodd" fill="#CFA27A" d="M100.244,130.498c0,0,0.309,0.877,0.928,0.928c0,0-0.619,0.104-0.876-0.051
		c-0.31-0.155-0.825-0.258-0.825-0.258L100.244,130.498z"/>
	<path fill-rule="evenodd" fill="#FBBC88" d="M98.079,126.425c0,0-1.238,1.959-1.393,2.166c-0.257,0.051-0.772,0-0.979,0.051
		c-0.309,0.103-1.907,0.258-2.681,0.876c-0.773,0.722-0.412,1.856,0.773,2.062c1.083,0.154,2.784,0.206,3.35,0.412
		c0.98,0.309,1.599,0,2.475-0.67c0.619-0.463,1.804-1.804,1.959-2.371C101.739,128.178,100.244,125.085,98.079,126.425
		L98.079,126.425z"/>
	<path fill-rule="evenodd" fill="#CFA27A" d="M97.099,130.652c-0.051,0.258,0.361,1.134,0.928,1.34c0,0-0.67-0.051-0.773-0.155
		c-0.206-0.154-0.515-0.051-0.67-0.154c-0.258-0.052-2.268-0.103-2.835-0.309C93.182,131.168,97.099,130.652,97.099,130.652
		L97.099,130.652z"/>
	<path fill-rule="evenodd" fill="#FBBC88" d="M94.883,125.704c0,0-0.773,2.216-0.928,2.422c-0.103,0.104-0.721,0.104-0.928,0.258
		c-0.309,0.103-1.752,0.567-2.32,1.495c-0.618,0.825,0.052,1.804,1.031,1.752c1.289,0.103,2.99-0.206,3.557-0.155
		c0.979,0.052,1.444-0.463,2.165-1.186c0.516-0.67,1.444-2.062,1.444-2.784C98.8,126.786,96.841,124.105,94.883,125.704
		L94.883,125.704z"/>
	<path fill-rule="evenodd" fill="#CFA27A" d="M91.532,129.364c0,0,1.599-0.258,2.114-0.206c0.464,0.257,1.031,0.051,1.186,0.515
		c0,0.464,0.567,1.547,1.134,1.598c0,0-0.516,0.051-0.773,0c-0.155-0.051-0.979,0.051-1.34,0.051
		c-0.207,0.104-2.114,0.31-2.269,0.155c-0.258-0.051-0.825-0.257-0.876-0.722C90.553,130.292,90.965,129.57,91.532,129.364
		L91.532,129.364z"/>
	<path fill-rule="evenodd" fill="#FBBC88" d="M90.707,123.848c0,0-0.103,2.372-0.154,2.629c-0.052,0.155-0.567,0.413-0.722,0.722
		c-0.206,0.206-1.547,0.618-1.855,1.855c-0.31,1.082,0.463,1.804,1.598,1.546c1.134-0.361,2.681-1.237,3.145-1.237
		c1.031-0.206,1.34-0.825,1.856-1.959c0.309-0.567,0.618-2.268,0.412-2.938C94.728,123.642,92.047,121.838,90.707,123.848
		L90.707,123.848z"/>
	<path fill-rule="evenodd" fill="#6AC335" d="M93.439,108.848c-0.258,0.825-3.454,2.732-4.537,3.557
		c-0.722,0.464-0.927,1.753-0.927,1.753s-0.877,3.814,1.134,5.412c1.752,1.289,1.495,3.557,1.495,3.557l0.051,1.701
		c0,0,1.134-1.804,2.68-1.237c1.444,0.67,2.165,0.928,1.65,2.422c0,0,2.216,0.773,2.835,1.444c0.568,0.67,0.876,1.237,0.876,1.237
		s0.929,1.031,2.527,1.031c0,0,0.67,0.979,1.546,0.979c0,0,1.598-1.289,2.268-2.99c0.619-1.804,2.32-4.64,2.526-5.464
		c0.155-0.67-1.701-4.536-2.474-5.516c-0.67-0.876-0.979-1.805-1.187-2.475c-0.257-0.773,0.258-1.959,0.619-3.196
		c0.206-1.186-1.443-2.114-2.011-2.681C101.894,107.971,94.625,104.517,93.439,108.848L93.439,108.848z"/>
	<path fill-rule="evenodd" fill="#71A159" d="M91.893,123.333c0,0-0.207-1.908,0-2.32c0.206-0.464,0.103-1.186,0.051-1.392
		c0-0.361,0.207-0.825,0.464-0.773c0.413,0,1.598-0.516,2.423,0.206c0.722,0.67,1.753,0.825,2.423,0.979
		c0.773,0.103,2.269-0.155,3.608,0.412c0.825,0.36,2.319,0.876,3.093,0.876c0.722,0,2.268,0.104,3.248,0.928
		c0,0-1.496,2.938-1.805,3.505c0,0-0.463,0.928-0.566,1.289c-0.31,1.34-1.238,2.732-2.166,3.299c0,0-0.876-0.362-1.134-0.877
		c0,0-1.288-0.052-1.598-0.361c-0.464-0.309-1.238-0.67-1.238-0.67s-0.618-1.186-1.082-1.495c-0.361-0.412-2.423-0.979-2.423-0.979
		s0.722-0.927-0.309-1.856C93.749,123.229,92.563,123.023,91.893,123.333L91.893,123.333z"/>
	<path fill-rule="evenodd" fill="#ABDC7D" d="M92.151,111.373c-0.464,0.155-3.042,2.835-3.145,3.711
		c0.052,0.825,0.876-0.413,2.371,0c1.495,0.464,0.928,2.114,1.856,1.959c0.825-0.155,2.422-2.011,3.299-1.289
		c0.773,0.567,2.423,1.907,3.608,1.753c1.134,0.051,2.319-0.825,3.196-0.413c0.928,0.464,2.99,2.732,2.475,1.186
		c-0.464-1.443-0.361-1.237-0.824-1.907c-0.619-0.67-1.65-2.732-1.496-3.351c0.155-0.67-1.856-1.289-3.247-1.702
		C98.852,110.807,93.646,110.754,92.151,111.373L92.151,111.373z"/>
	<path fill-rule="evenodd" fill="#CFA27A" d="M88.233,129.106c0.155-0.567,0.516-1.031,1.495-1.495
		c0.773-0.258,1.134-0.979,1.495-0.619c0.361,0.361,0.928,2.063,2.217,1.908c0,0-1.34,0.412-1.804,0.567
		c-0.413,0.258-1.701,0.773-2.165,0.928c-0.206,0.051-0.928,0.154-1.341-0.413C87.976,129.519,88.233,129.106,88.233,129.106
		L88.233,129.106z"/>
	<path fill-rule="evenodd" fill="#A8B5BE" d="M81.119,116.219c0,0,1.393,0,2.011,0.876c0.773,0.876,0.876,1.908,0.36,1.908
		C82.872,119.003,79.985,117.869,81.119,116.219L81.119,116.219z"/>
	<path fill-rule="evenodd" fill="#474848" d="M90.862,132.405l-0.516,0.618l-1.495-0.103l-0.928-1.392c0,0,0.515-0.877,0.773-1.032
		c0.155-0.103,0.515-0.876,0.773-0.979c0.258-0.154,0.258-1.031,0.773-1.392c0.464-0.257,0.464-0.927,0.722-1.186
		c0.412-0.104,0.928-0.876,0.928-0.876L90.862,132.405z"/>
	<polygon fill-rule="evenodd" fill="#2E2C2A" points="88.181,131.529 89.47,131.632 90.089,132.921 88.852,132.766 	"/>
	<path fill-rule="evenodd" fill="#605D5C" d="M79.728,117.456c-0.258,1.289,0.619,2.423,3.66,2.423c2.165,0,5.568,2.526,6.341,3.402
		c0.876,1.031,2.01,3.66,1.392,4.691c-0.877,1.134-1.805,2.165-1.392,2.939c0,0,0.876,2.268,1.237,2.371
		c0.515,0.412,0.928-0.619,1.649-1.495c0.876-0.876,2.268-2.938,2.268-2.938l-3.145-6.289c0,0-1.134-0.928-2.01-1.65
		c-0.773-0.67-3.66-2.681-6.341-2.938C82.511,117.869,80.346,115.188,79.728,117.456L79.728,117.456z"/>
	<path fill-rule="evenodd" fill="#DFE7ED" d="M82.098,118.332c0,0,1.805,0.671,2.681,0.773c0.877,0.155,4.691,2.01,6.598,4.691
		L82.098,118.332z"/>
	<polygon fill-rule="evenodd" fill="#474848" points="93.285,126.219 90.707,130.395 91.48,132.044 94.264,128.487 	"/>
	<path fill-rule="evenodd" fill="#24211D" d="M14.879,92.661c-3.815-0.258-4.124,5.567-2.784,7.011
		c2.784,1.031,21.805,6.186,24.641,7.371c-1.65-2.474,0.36-8.814,2.783-8.66C39.261,97.919,15.136,93.176,14.879,92.661
		L14.879,92.661z"/>
	<path fill-rule="evenodd" fill="#FBBC88" d="M32.354,110.807c0,0-2.114,1.752-2.526,1.855c-0.412,0.103-1.958,0.361-2.371-0.258
		c-0.412-0.773,1.083-3.042,1.804-3.505c0.567-0.722,3.866-1.238,4.227-0.979C33.746,108.177,33.437,109.518,32.354,110.807
		L32.354,110.807z"/>
	<path fill-rule="evenodd" fill="#CFA27A" d="M33.179,109.466c0,0-0.825,0.103-1.134,0.464c-0.361,0.464-1.495,1.495-2.371,1.392
		c-0.825-0.051-1.392-0.515-1.237-0.824c0.104-0.36,1.134-1.649,1.134-1.649s3.505-0.928,3.814-0.413
		C33.54,109.002,33.179,109.466,33.179,109.466L33.179,109.466z"/>
	<path fill-rule="evenodd" fill="#FBBC88" d="M20.343,101.992c0,0,0.516,2.371,0.619,2.577c0,0.206,0.722,0.258,0.876,0.413
		c0.206,0.154,1.598,0.824,2.01,1.804c0.464,0.928-0.309,1.856-1.289,1.65c-1.186-0.207-2.835-0.774-3.351-0.928
		c-1.083,0.051-1.495-0.567-2.113-1.495c-0.361-0.67-0.979-2.165-0.928-2.938C16.322,102.507,18.848,100.136,20.343,101.992
		L20.343,101.992z"/>
	<path fill-rule="evenodd" fill="#CFA27A" d="M19.364,106.579c0,0-0.619,0.722-1.237,0.567c0,0,0.567,0.258,0.876,0.206
		c0.361,0,0.825,0.103,0.825,0.103L19.364,106.579z"/>
	<path fill-rule="evenodd" fill="#FBBC88" d="M22.869,103.538c0,0,0.413,2.319,0.516,2.525c0.155,0.155,0.67,0.258,0.876,0.412
		c0.257,0.258,1.649,0.929,2.165,1.805c0.464,0.928-0.309,1.856-1.495,1.649c-1.031-0.257-2.629-0.825-3.247-0.825
		c-0.979-0.052-1.495-0.618-2.062-1.546c-0.413-0.619-0.98-2.32-0.98-2.886C18.796,103.898,21.322,101.527,22.869,103.538
		L22.869,103.538z"/>
	<path fill-rule="evenodd" fill="#CFA27A" d="M22.25,107.868c-0.052,0.257-0.773,0.927-1.34,0.876c0,0,0.619,0.206,0.773,0.206
		c0.206-0.103,0.515,0.103,0.669,0.052c0.258,0.103,2.165,0.721,2.732,0.721C25.704,109.775,22.25,107.868,22.25,107.868
		L22.25,107.868z"/>
	<path fill-rule="evenodd" fill="#FBBC88" d="M26.065,104.053c0,0-0.052,2.32,0.052,2.577c0,0.155,0.618,0.361,0.722,0.567
		c0.257,0.257,1.443,1.186,1.649,2.268c0.258,0.979-0.722,1.649-1.598,1.237c-1.237-0.361-2.732-1.289-3.248-1.392
		c-0.979-0.309-1.186-0.979-1.649-1.907c-0.207-0.825-0.567-2.475-0.309-3.145C22.044,103.641,24.828,101.837,26.065,104.053
		L26.065,104.053z"/>
	<path fill-rule="evenodd" fill="#CFA27A" d="M27.92,108.693c0,0-1.443-0.825-1.958-0.979c-0.464,0.051-0.928-0.309-1.237,0.051
		c-0.207,0.464-1.134,1.238-1.649,1.083c0,0,0.464,0.206,0.722,0.257c0.155,0,0.876,0.413,1.186,0.567
		c0.206,0.155,1.907,1.031,2.113,0.928c0.258,0.051,0.876,0.103,1.031-0.361C28.436,109.878,28.385,109.053,27.92,108.693
		L27.92,108.693z"/>
	<path fill-rule="evenodd" fill="#FBBC88" d="M30.653,103.796c0,0-0.773,2.268-0.825,2.526c0,0.154,0.413,0.618,0.413,0.979
		c0.103,0.207,1.237,1.083,1.083,2.372c-0.103,1.082-1.083,1.546-2.062,0.876c-0.928-0.721-2.062-2.113-2.474-2.32
		c-0.928-0.567-0.979-1.237-1.031-2.474c-0.051-0.67,0.258-2.371,0.722-2.887C26.993,102.197,30.137,101.476,30.653,103.796
		L30.653,103.796z"/>
	<path fill-rule="evenodd" fill="#6AC335" d="M36.271,90.908c-0.051,0.825,0.619,2.578,1.34,3.763
		c0.464,0.722,0.207,1.958,0.207,1.958s-1.702,3.042-4.125,3.764c-2.113,0.566-2.68,2.783-2.68,2.783l-0.67,1.598
		c0,0-0.412-2.113-2.062-2.113c-1.598,0.051-2.319,0.051-2.423,1.649c0,0-2.319-0.051-3.144,0.362
		c-0.773,0.412-1.237,0.772-1.237,0.772s-1.289,0.619-2.732,0.051c0,0-1.031,0.671-1.804,0.361c0,0-1.031-1.752-1.031-3.557
		c0.052-1.959-0.464-5.207-0.413-6.083c0.104-0.67,3.196-3.557,4.331-4.175c0.928-0.619,2.165-1.392,2.629-1.959
		c0.515-0.619,1.237-1.546,1.392-2.835c0.207-1.186,2.062-1.443,2.784-1.752C27.354,85.341,36.736,86.423,36.271,90.908
		L36.271,90.908z"/>
	<path fill-rule="evenodd" fill="#71A159" d="M29.725,102.919c0,0,0.876-1.701,0.825-2.165c-0.052-0.515,0.309-1.134,0.464-1.289
		c0.155-0.36,0.103-0.876-0.155-0.927c-0.361-0.104-1.289-1.031-2.319-0.67c-0.876,0.361-1.908,0.104-2.578,0
		c-0.773-0.154-2.114-0.928-3.557-0.876c-0.876,0.051-2.475-0.052-3.196-0.309c-0.67-0.258-2.165-0.67-3.351-0.31
		c0,0,0.36,3.299,0.412,3.969c0,0,0.103,0.979,0.052,1.392c-0.155,1.34,0.154,2.99,0.825,3.815c0,0,0.928,0,1.392-0.361
		c0,0,1.186,0.361,1.598,0.257c0.567-0.155,1.392-0.257,1.392-0.257s0.979-0.825,1.546-0.979c0.515-0.206,2.629-0.051,2.629-0.051
		s-0.31-1.134,0.979-1.598C28.075,102.197,29.261,102.404,29.725,102.919L29.725,102.919z"/>
	<path fill-rule="evenodd" fill="#ABDC7D" d="M35.138,91.733c0.36,0.31,1.804,3.763,1.546,4.64
		c-0.309,0.773-0.619-0.722-2.165-0.876c-1.598-0.103-1.65,1.65-2.475,1.186c-0.67-0.464-1.495-2.784-2.577-2.423
		c-0.979,0.258-2.99,0.928-4.021,0.361c-1.083-0.413-1.856-1.65-2.835-1.547c-0.979,0.103-3.764,1.495-2.732,0.206
		c0.928-1.186,0.825-1.031,1.495-1.495c0.773-0.412,2.474-1.907,2.578-2.628c0.103-0.67,2.216-0.464,3.608-0.361
		C29.055,88.795,33.952,90.651,35.138,91.733L35.138,91.733z"/>
	<path fill-rule="evenodd" fill="#CFA27A" d="M31.065,109.62c0.052-0.618-0.103-1.185-0.825-1.907
		c-0.67-0.516-0.722-1.34-1.237-1.134c-0.463,0.206-1.546,1.598-2.732,0.928c0,0,1.083,0.928,1.443,1.186
		c0.309,0.412,1.34,1.392,1.701,1.701c0.207,0.104,0.825,0.464,1.443,0.104C31.117,110.084,31.065,109.62,31.065,109.62
		L31.065,109.62z"/>
	<path fill-rule="evenodd" fill="#A8B5BE" d="M43.797,102.559c0,0-1.391-0.258-2.165,0.515c-0.928,0.722-1.237,1.701-0.773,1.753
		C41.529,104.981,44.571,104.414,43.797,102.559L43.797,102.559z"/>
	<path fill-rule="evenodd" fill="#474848" d="M31.117,116.631l0.412,0.722l1.495,0.155l1.134-1.186c0,0-0.31-0.979-0.567-1.134
		c-0.103-0.155-0.309-0.979-0.515-1.134c-0.258-0.206-0.103-1.083-0.516-1.546c-0.464-0.309-0.31-0.928-0.516-1.237
		c-0.361-0.206-0.722-1.031-0.722-1.031L31.117,116.631z"/>
	<polygon fill-rule="evenodd" fill="#2E2C2A" points="33.9,116.27 32.663,116.167 31.787,117.25 33.076,117.404 	"/>
	<path fill-rule="evenodd" fill="#605D5C" d="M44.88,104.053c0.052,1.289-1.083,2.269-4.021,1.701
		c-2.113-0.412-5.979,1.443-6.856,2.165c-1.083,0.825-2.732,3.196-2.268,4.33c0.619,1.289,1.34,2.422,0.825,3.093
		c0,0-1.34,2.062-1.701,2.113c-0.567,0.309-0.773-0.773-1.34-1.805c-0.722-1.031-1.701-3.247-1.701-3.247l4.331-5.619
		c0,0,1.289-0.67,2.268-1.237c0.876-0.464,4.124-1.908,6.805-1.65C42.097,103.898,44.726,101.733,44.88,104.053L44.88,104.053z"/>
	<path fill-rule="evenodd" fill="#DFE7ED" d="M42.354,104.465c0,0-1.856,0.31-2.732,0.258c-0.876-0.051-5,1.134-7.372,3.351
		L42.354,104.465z"/>
	<polygon fill-rule="evenodd" fill="#474848" points="29.931,110.084 31.632,114.672 30.601,116.116 28.54,112.147 	"/>
	<path fill-rule="evenodd" fill="#4E4B49" d="M40.55,105.188c10.31,6.392,51.188,36.754,20.516,44.28
		c-0.103,0.67-0.154,1.393-0.309,1.907c8.815-2.989,16.032-7.113,11.599-17.423c-4.691-10.619-20.311-22.012-29.847-28.919
		C41.478,105.136,41.375,105.136,40.55,105.188L40.55,105.188z"/>
	<path fill-rule="evenodd" fill="#FFFFFF" d="M43.334,104.878c11.392,9.949,23.764,21.135,26.341,24.898
		c3.351,5.206,4.279,9.072,2.835,15.207c1.804-4.021,2.887-7.165,0.155-11.547c-2.216-8.145-20.774-20.671-28.506-28.867
		C43.952,105.188,43.488,104.363,43.334,104.878L43.334,104.878z"/>
	<path fill-rule="evenodd" fill="#9A7465" d="M51.479,44.875c-1.237,0.207-3.093,1.237-4.743,1.701c-1.083,0.31-2.062,0-2.732,0.103
		c-0.361-0.051-1.495-0.051-2.217-0.257c-0.876-0.258-1.34-0.67-1.804-0.722c0.257,0.619,2.474,2.165,3.041,2.217
		c1.134,0.257,3.041,0.567,4.743-0.154C49.262,47.092,50.499,45.391,51.479,44.875L51.479,44.875z"/>
	<path fill-rule="evenodd" fill="#D1A07A" d="M90.243,68.742c0,0,7.114-2.474,11.753-1.546c4.743,0.928,12.578,13.712,12.578,13.712
		s-2.011-5.258-3.608-8.299c-1.546-3.042-6.186-11.032-7.269-12.424C102.615,58.793,90.243,68.742,90.243,68.742L90.243,68.742z"/>
	<path fill-rule="evenodd" fill="#716F6E" d="M108.543,123.642c-0.876-0.103-1.907,1.34-2.268,3.145
		c-0.413,1.805-0.052,3.351,0.825,3.403c0.876,0.103,1.908-1.289,2.32-3.093C109.781,125.291,109.42,123.745,108.543,123.642
		L108.543,123.642z"/>
	<path fill-rule="evenodd" fill="#3B3734" d="M115.708,106.683c-0.31-1.495-2.113-3.299-3.557-3.042
		c-2.938,0.464-5.515,16.702-5.412,18.455c0.154,2.165,0.206,7.32,0.206,7.32s2.629,0.104,2.732-1.134
		c3.66-6.031,2.01-12.63,4.382-20.362C114.214,107.404,115.606,107.25,115.708,106.683L115.708,106.683z"/>
	<path fill-rule="evenodd" fill="#F9A347" d="M106.327,34.565c1.597-1.032,6.34,4.742,7.938,3.66c0,0,4.382-1.908,2.835-7.939
		c-2.165-8.557-10.052-14.228-18.404-17.682c-6.855,2.526-27.063-2.216-35.311-0.206c-0.567,1.701,9.537,1.546,8.918,3.351
		C82.923,26.781,91.687,30.802,106.327,34.565L106.327,34.565z"/>
	<path fill-rule="evenodd" fill="#F68D28" d="M87.718,24.925c0,0-4.691,12.115-8.403,17.218c-3.66,5.104-1.237,19.382,0,18.867
		c1.289-0.516-3.299-3.917-4.691-6.34c-1.443-2.475-5.361-11.908-3.557-15.568c1.856-3.711,5.052-19.898,5.052-19.898L87.718,24.925
		z"/>
	<path fill-rule="evenodd" fill="#C47E35" d="M106.327,34.565c1.597-1.032,6.34,4.742,7.938,3.66c0,0,2.578-1.083,3.093-4.33
		c-0.567,0.515-1.031,0.721-1.031,0.721c-1.598,1.031-6.392-4.742-7.99-3.711c-10.568-2.681-21.6-7.423-30.93-14.227
		c-1.237-0.877-1.289-3.867-2.526-4.794c0,0.051-5.619,1.031-5.619,1.083C79.882,23.946,91.687,30.802,106.327,34.565
		L106.327,34.565z M67.665,11.935c-1.598,0-3.041,0.155-4.278,0.464c-0.412,1.288,9.846-0.928,12.475-0.206
		C74.727,11.316,68.696,12.863,67.665,11.935L67.665,11.935z"/>
	<path fill-rule="evenodd" fill="#F9A347" d="M67.252,22.194c0.619-1.804,7.629-5.98,8.196-7.784c0,0-5.773-5.155-10.722-8.97
		C57.768,0.079,49.88-1.261,41.169,1.161C31.065,3.894,28.642,14.41,26.941,23.019c0.619,1.701,1.34,3.505,1.908,5.36
		C44.004,30.493,53.438,28.276,67.252,22.194L67.252,22.194z"/>
	<path fill-rule="evenodd" fill="#F68D28" d="M65.345,21.884c0,0-5.979,2.629-9.382,1.134c-6.186-2.836-6.083-6.393-3.248-11.857
		c-0.412,0-0.927-0.206-1.34-0.36c0,0-2.732,4.227-3.608,6.237c-0.825,2.113-1.237,4.537-2.938,4.846
		c-1.804,0.31-2.422-0.516-2.422-1.598c0-1.134,3.144-9.331,3.144-9.331c0.31-0.154,7.372-6.031,6.444-6.65
		c-0.825-0.412-5.361,2.423-6.134,3.66c-0.825,1.289-2.269,2.423-2.938,4.434c-0.619,1.701-2.217,7.681-2.217,7.681
		c-1.546,1.186-3.969,1.701-4.691-0.515c0,0,2.732-9.279,3.248-9.898c0.619-0.516,4.949-6.186,4.949-6.186
		c-1.186-2.526-6.753,6.805-7.062,7.578c-0.619,1.752-2.526,9.433-2.526,9.433s-1.701,0.31-2.217-0.206
		c-2.835-3.145,3.454-13.042,5.67-15.568c0,0-3.969,2.114-4.743,3.815c-1.855,3.66-2.732,7.319-3.145,11.443
		c-2.319,1.495-3.454,1.289-2.628,4.64c0.618,2.526,1.907,3.351,1.907,3.351s17.578,1.908,22.939,0.876
		C57.664,27.864,65.345,21.884,65.345,21.884L65.345,21.884z"/>
	<path fill-rule="evenodd" fill="#24211D" d="M58.18,3.584c-3.867,2.835-7.887,6.083-9.898,10.517
		c-1.855,3.866-2.319,6.598-3.351,6.856c-5.67,1.752-0.309-9.279,0.103-10.464c0.516-1.237,3.402-3.557,3.402-3.557
		c0.413,0.206,0.928,0.206,1.34,0.206c-0.928,1.134-4.433,4.537-1.237,4.743c1.444-1.598,2.938-3.454,4.175-5.155
		c-2.731-0.206,0.98-4.021,2.835-3.815C57.149,3.12,58.18,3.584,58.18,3.584L58.18,3.584z"/>
	<path fill-rule="evenodd" fill="#24211D" d="M49.984,1.471c0,0-3.351,1.649-4.846,2.526c-1.546,1.031-3.66,4.948-4.846,6.598
		c-1.237,1.599-1.907,7.681-2.628,8.455c-3.66,3.969-1.237-6.031-0.825-6.959c0.413-1.031,1.598-3.248,1.598-3.248
		c0.31,0.31,0.516,0.722,0.825,1.032c1.34-1.702,2.629-3.454,3.866-5.052C43.127,1.471,47.664,1.677,49.984,1.471L49.984,1.471z"/>
	<path fill-rule="evenodd" fill="#24211D" d="M38.385,4.718c-4.588,4.743-5.052,8.763-6.186,14.847
		c-1.804-2.629,0.31-9.382,2.011-11.496C35.344,6.832,38.385,4.718,38.385,4.718L38.385,4.718z"/>
	<path fill-rule="evenodd" fill="#24211D" d="M48.437,19.565c-1.083,2.525-2.01,4.949-1.907,7.783
		c-1.907,0.207-3.917,0.309-5.928,0.619c0.103-0.515,0.207-1.031,0.31-1.546c-4.175,0.103-8.402-0.104-12.526-0.464
		c-0.413-1.237-0.825-2.371-1.237-3.454c0,0,3.041,1.598,5.67,1.805c2.629,0.309,9.073,0.309,9.279,0.207
		c0.722-0.31-0.413,2.525,2.01,1.907c1.031-0.207,1.907-3.918,2.732-5.053C47.767,20.286,48.437,19.565,48.437,19.565L48.437,19.565
		z"/>
	<path fill-rule="evenodd" fill="#FFFFFF" d="M51.685,2.605c0,0-3.711,1.083-5.155,2.423c-1.495,1.186-2.113,2.01-3.196,4.124
		c-0.928,2.01-1.753,4.33-1.753,4.33s2.113-3.814,4.072-6.031C47.561,5.234,51.685,2.605,51.685,2.605L51.685,2.605z"/>
	<path fill-rule="evenodd" fill="#FFFFFF" d="M43.334,2.295c0,0-2.938,1.186-4.691,3.351c-1.701,2.01-2.526,5.723-2.526,5.723
		s1.752-2.939,3.454-4.949C41.272,4.409,43.334,2.295,43.334,2.295L43.334,2.295z"/>
	<path fill-rule="evenodd" fill="#FFFFFF" d="M58.18,5.13c0,0-2.629,1.495-3.454,2.423c-0.722,0.876-2.011,2.732-2.011,2.732
		s2.732-1.546,3.402-2.732C56.84,6.419,58.18,5.13,58.18,5.13L58.18,5.13z"/>
	<path fill-rule="evenodd" fill="#24211D" d="M50.19,31.833c0,0-10.671,0.258-12.217,0.155c-3.505-0.103-4.794-0.464-6.237-3.557
		c0.464,0,1.083,0,1.443,0.103c0.309,3.093,5.052,2.784,7.217,2.989c3.866-0.103,7.681-0.206,11.444-0.309
		C51.272,31.421,50.705,31.627,50.19,31.833L50.19,31.833z"/>
	<path fill-rule="evenodd" fill="#3B3734" d="M88.336,155.654c-1.701,0.31-2.938,1.598-2.835,2.784
		c0.155,1.237,1.598,1.907,3.299,1.598c1.701-0.361,2.938-1.649,2.835-2.835C91.48,155.963,90.037,155.293,88.336,155.654
		L88.336,155.654z"/>
	<path fill-rule="evenodd" fill="#FFFFFF" d="M88.129,156.169c-1.598,0.36-2.732,1.391-2.577,2.319
		c0.206,0.928,1.598,1.444,3.196,1.134c1.598-0.361,2.732-1.392,2.577-2.32S89.728,155.86,88.129,156.169L88.129,156.169z"/>
	<path fill="#C47E35" d="M96.532,23.225c0,0,0.052,0,0.052-0.052c-0.052,0-0.155,0-0.206,0c0,0,0,0-0.052,0
		c0,0-1.186-0.103-0.876-0.825c-0.103-0.309-0.155-0.824-0.258-1.443c-0.103-0.722-0.155-1.598-0.361-2.578
		c-0.155-0.876-0.567-1.546-0.979-1.958c-0.413-0.413-0.825-0.67-1.031-0.825l0,0c-0.051-0.052-0.155-0.104-0.206-0.206
		c0,0,0.567-0.516,1.443-0.877c0,0,1.083-0.412,2.577-0.773c1.392-0.361,3.196-0.669,4.794-0.463c0,0,0.206,0,0.618,0.051
		c1.289-0.206,2.475-0.206,3.248-0.051c0.876,0.206,2.011,0.515,2.372,0.619c0,0,0.928,0.154,3.66,0.979
		c0,0,1.134,1.959,1.959,2.835c0,0,1.289,1.649,0.876,2.732c0,0-0.206,1.082,0.464,1.598c-0.259,0.155-0.516,0.309-0.774,0.464
		c0,0-0.927,0-2.269,0c-1.339,0-3.092,0.104-4.845,0.309c-0.979,0.103-2.062,0.207-3.145,0.258
		c-1.134,0.051-2.216,0.051-3.196,0.103C98.491,23.173,97.048,23.276,96.532,23.225L96.532,23.225z"/>
	<path fill="#F9A347" d="M95.192,23.276c0,0,0.309,0.31,0.258-0.361c0,0,0.051-0.619,0.31-0.309c0,0,0.257,0.051,0.412-0.31
		c0.207-0.361,0.361-1.134,0.155-2.99c0.67-1.289,1.289-2.526,1.34-3.557c0-0.825-0.309-1.546-0.361-2.423
		c0,0,0.67-0.257,1.701-0.567c1.031-0.309,2.269-0.566,3.093-0.619c0.619,0,1.186,0.104,1.701,0.258
		c0.619,0.206,1.186,0.464,1.34,0.515c0,0,0.774,0.31,3.712,1.289c0,0,0.928,0.206,1.752,0.928c0.773,0.721,1.186,1.907,1.753,2.474
		c0,0,0.258,0.464,0.619,1.031c0.309,0.516,0.721,1.134,0.619,1.599c0,0-0.052,1.082,0.722,1.598
		c-0.257,0.155-0.516,0.31-0.773,0.515c0,0-1.083,0-2.629,0c-0.772,0-1.649,0-2.577,0.104c-0.929,0.051-1.959,0.258-3.093,0.309
		c-1.237,0.103-2.475,0.155-3.712,0.207c-1.237,0.052-2.371,0.103-3.351,0.155C96.429,23.276,95.295,23.379,95.192,23.276
		L95.192,23.276z"/>
	<path fill="#C47E35" d="M99.368,13.688c0,0,0.515-0.669,3.556,0.207c0,0,1.134,0.979,1.237,3.093
		c0.052,2.063-0.567,4.124-3.969,5.258c0.052-0.67,0.103-1.392,0.155-2.114c0-0.825,0.051-1.65,0.154-2.628
		c0.051-0.979,0-1.804-0.206-2.423C100.089,14.564,99.729,14.101,99.368,13.688L99.368,13.688z"/>
	<path fill="#C47E35" d="M102.151,20.08c0,0,2.526-0.619,4.948-0.877c2.372-0.205,5.001,0.104,5.877,0.155
		c0,0-0.155,0.154-1.238,0.207c-1.082,0.103-3.041,0.206-6.546,0.772c0,0-7.32,1.443,1.804,0.567c0,0,1.907-0.206,3.711-0.155
		c1.908,0.052,3.66,0.207,3.197,0.618c-1.392,0-2.836,0-4.228,0.052c-1.392,0.103-2.732,0.36-4.175,0.567
		c-1.649,0.207-3.351,0.413-5.104,0.567c-1.752,0.154-3.402,0.36-4.845,0.618c0,0-0.412-0.67,0.155-0.413
		c0,0,0.464-0.258,0.412-0.515c0,0,1.495-0.361,3.042-0.773C100.708,21.008,102.254,20.492,102.151,20.08L102.151,20.08z"/>
	<path fill="#F9A347" d="M91.068,15.595c0,0,0.36,0.257,0.979,0.67c0.567,0.413,1.289,1.082,1.65,2.062
		c0.412,1.083,0.773,2.114,1.083,2.835c0.257,0.619,0.412,1.134,0.515,1.238c0,0,1.083-0.361,2.578-0.928
		c1.598-0.567,3.402-1.34,4.33-2.165c0,0,0.979-1.186,1.186-3.041c0.103-0.825-0.155-1.599-0.877-2.114
		c-0.772-0.412-2.062-0.721-4.072-1.03c0,0-1.391-0.207-2.938,0.051c-0.825,0.104-1.752,0.464-2.577,0.929
		C92.099,14.513,91.429,15.08,91.068,15.595L91.068,15.595z"/>
	<path fill="#FCC78C" d="M90.759,15.853c-0.103-0.103-0.206-0.154-0.309-0.257c0,0,0.257-0.619,0.876-1.134
		c0,0,0.876-0.67,2.32-1.289c1.443-0.67,3.248-1.031,4.639-0.515c0,0,0.774,0.155,1.856,0.67c0.619,0.258,1.392,0.516,2.114,1.032
		c0.773,0.567,1.289,1.701,1.443,3.453c0,0,0.103,0.567-0.257,1.238c-0.361,0.721-1.238,1.443-2.99,2.01
		c0,0-1.392,0.257-2.578,0.618c-1.083,0.361-1.958,0.773-1.546,0.979c0,0,0.258,0.206,0,0.361c0,0-1.237-0.155-0.876-1.031
		c0,0,0.464-0.412,2.475-0.979c0,0,1.34-0.309,2.628-0.979c1.289-0.722,2.269-1.908,1.907-3.763c0,0-0.515-1.186-1.752-1.907
		c-1.185-0.773-2.68-1.392-4.33-1.495c0,0-0.928,0.051-2.217,0.516C92.872,13.894,91.48,14.719,90.759,15.853L90.759,15.853z"/>
	<polyline fill="none" stroke="#FFFFFF" stroke-width="0" stroke-linecap="square" stroke-miterlimit="10" points="90.45,15.44 
		90.501,15.389 90.501,15.389 	"/>
	
		<line fill="none" stroke="#FFFFFF" stroke-width="0" stroke-linecap="square" stroke-miterlimit="10" x1="90.759" y1="15.234" x2="90.862" y2="15.183"/>
	
		<line fill="none" stroke="#FFFFFF" stroke-width="0" stroke-linecap="square" stroke-miterlimit="10" x1="91.068" y1="15.028" x2="91.171" y2="14.977"/>
	<polyline fill="none" stroke="#FFFFFF" stroke-width="0" stroke-linecap="square" stroke-miterlimit="10" points="91.429,14.822 
		91.48,14.771 91.532,14.771 	"/>
	
		<line fill="none" stroke="#FFFFFF" stroke-width="0" stroke-linecap="square" stroke-miterlimit="10" x1="91.79" y1="14.616" x2="91.841" y2="14.564"/>
	
		<line fill="none" stroke="#FFFFFF" stroke-width="0" stroke-linecap="square" stroke-miterlimit="10" x1="92.099" y1="14.41" x2="92.202" y2="14.358"/>
	
		<line fill="none" stroke="#FFFFFF" stroke-width="0" stroke-linecap="square" stroke-miterlimit="10" x1="92.46" y1="14.204" x2="92.563" y2="14.151"/>
	
		<line fill="none" stroke="#FFFFFF" stroke-width="0" stroke-linecap="square" stroke-miterlimit="10" x1="92.77" y1="14.049" x2="92.872" y2="13.997"/>
	
		<line fill="none" stroke="#FFFFFF" stroke-width="0" stroke-linecap="square" stroke-miterlimit="10" x1="93.13" y1="13.843" x2="93.233" y2="13.791"/>
	
		<line fill="none" stroke="#FFFFFF" stroke-width="0" stroke-linecap="square" stroke-miterlimit="10" x1="93.491" y1="13.688" x2="93.594" y2="13.636"/>
	
		<line fill="none" stroke="#FFFFFF" stroke-width="0" stroke-linecap="square" stroke-miterlimit="10" x1="93.852" y1="13.534" x2="94.006" y2="13.534"/>
	
		<line fill="none" stroke="#FFFFFF" stroke-width="0" stroke-linecap="square" stroke-miterlimit="10" x1="94.264" y1="13.43" x2="94.367" y2="13.379"/>
	<polyline fill="none" stroke="#FFFFFF" stroke-width="0" stroke-linecap="square" stroke-miterlimit="10" points="94.625,13.327 
		94.728,13.275 94.728,13.275 	"/>
	
		<line fill="none" stroke="#FFFFFF" stroke-width="0" stroke-linecap="square" stroke-miterlimit="10" x1="94.986" y1="13.224" x2="95.141" y2="13.172"/>
	<polyline fill="none" stroke="#FFFFFF" stroke-width="0" stroke-linecap="square" stroke-miterlimit="10" points="95.398,13.121 
		95.501,13.121 95.501,13.121 	"/>
	
		<line fill="none" stroke="#FFFFFF" stroke-width="0" stroke-linecap="square" stroke-miterlimit="10" x1="95.811" y1="13.121" x2="95.914" y2="13.069"/>
	<polyline fill="none" stroke="#FFFFFF" stroke-width="0" stroke-linecap="square" stroke-miterlimit="10" points="96.171,13.069 
		96.223,13.069 96.274,13.069 	"/>
	<polyline fill="none" stroke="#FFFFFF" stroke-width="0" stroke-linecap="square" stroke-miterlimit="10" points="96.584,13.121 
		96.635,13.121 96.687,13.121 	"/>
	<polyline fill="none" stroke="#FFFFFF" stroke-width="0" stroke-linecap="square" stroke-miterlimit="10" points="96.945,13.172 
		97.048,13.172 97.099,13.172 	"/>
	<polyline fill="none" stroke="#FFFFFF" stroke-width="0" stroke-linecap="square" stroke-miterlimit="10" points="97.357,13.275 
		97.409,13.275 97.46,13.275 	"/>
	<polyline fill="none" stroke="#FFFFFF" stroke-width="0" stroke-linecap="square" stroke-miterlimit="10" points="97.718,13.379 
		97.77,13.379 97.821,13.43 	"/>
	
		<line fill="none" stroke="#FFFFFF" stroke-width="0" stroke-linecap="square" stroke-miterlimit="10" x1="98.079" y1="13.534" x2="98.182" y2="13.585"/>
	
		<line fill="none" stroke="#FFFFFF" stroke-width="0" stroke-linecap="square" stroke-miterlimit="10" x1="98.439" y1="13.688" x2="98.542" y2="13.739"/>
	
		<line fill="none" stroke="#FFFFFF" stroke-width="0" stroke-linecap="square" stroke-miterlimit="10" x1="98.8" y1="13.843" x2="98.904" y2="13.894"/>
	
		<line fill="none" stroke="#FFFFFF" stroke-width="0" stroke-linecap="square" stroke-miterlimit="10" x1="99.161" y1="14.049" x2="99.264" y2="14.049"/>
	
		<line fill="none" stroke="#FFFFFF" stroke-width="0" stroke-linecap="square" stroke-miterlimit="10" x1="99.522" y1="14.204" x2="99.625" y2="14.255"/>
	<polyline fill="none" stroke="#FFFFFF" stroke-width="0" stroke-linecap="square" stroke-miterlimit="10" points="99.883,14.358 
		99.883,14.358 99.986,14.358 	"/>
	
		<line fill="none" stroke="#FFFFFF" stroke-width="0" stroke-linecap="square" stroke-miterlimit="10" x1="100.244" y1="14.461" x2="100.347" y2="14.513"/>
	
		<line fill="none" stroke="#FFFFFF" stroke-width="0" stroke-linecap="square" stroke-miterlimit="10" x1="100.605" y1="14.616" x2="100.708" y2="14.667"/>
	
		<line fill="none" stroke="#FFFFFF" stroke-width="0" stroke-linecap="square" stroke-miterlimit="10" x1="100.965" y1="14.822" x2="101.069" y2="14.874"/>
	
		<line fill="none" stroke="#FFFFFF" stroke-width="0" stroke-linecap="square" stroke-miterlimit="10" x1="101.327" y1="15.028" x2="101.378" y2="15.08"/>
	
		<line fill="none" stroke="#FFFFFF" stroke-width="0" stroke-linecap="square" stroke-miterlimit="10" x1="101.635" y1="15.234" x2="101.687" y2="15.338"/>
	<polyline fill="none" stroke="#FFFFFF" stroke-width="0" stroke-linecap="square" stroke-miterlimit="10" points="101.894,15.544 
		101.945,15.595 101.945,15.647 	"/>
	<polyline fill="none" stroke="#FFFFFF" stroke-width="0" stroke-linecap="square" stroke-miterlimit="10" points="101.997,15.904 
		101.997,15.956 101.997,16.008 101.997,16.008 	"/>
	<polyline fill="none" stroke="#FFFFFF" stroke-width="0" stroke-linecap="square" stroke-miterlimit="10" points="101.894,16.266 
		101.842,16.369 101.842,16.369 	"/>
	
		<line fill="none" stroke="#FFFFFF" stroke-width="0" stroke-linecap="square" stroke-miterlimit="10" x1="101.739" y1="16.626" x2="101.739" y2="16.729"/>
	
		<line fill="none" stroke="#FFFFFF" stroke-width="0" stroke-linecap="square" stroke-miterlimit="10" x1="101.635" y1="17.039" x2="101.584" y2="17.142"/>
	
		<line fill="none" stroke="#FFFFFF" stroke-width="0" stroke-linecap="square" stroke-miterlimit="10" x1="101.532" y1="17.399" x2="101.48" y2="17.503"/>
	
		<line fill="none" stroke="#FFFFFF" stroke-width="0" stroke-linecap="square" stroke-miterlimit="10" x1="101.43" y1="17.76" x2="101.378" y2="17.864"/>
	<polyline fill="none" stroke="#FFFFFF" stroke-width="0" stroke-linecap="square" stroke-miterlimit="10" points="101.327,18.172 
		101.275,18.276 101.275,18.276 	"/>
	
		<line fill="none" stroke="#FFFFFF" stroke-width="0" stroke-linecap="square" stroke-miterlimit="10" x1="101.224" y1="18.534" x2="101.172" y2="18.636"/>
	
		<line fill="none" stroke="#FFFFFF" stroke-width="0" stroke-linecap="square" stroke-miterlimit="10" x1="101.069" y1="18.895" x2="101.069" y2="19.049"/>
	<polyline fill="none" stroke="#FFFFFF" stroke-width="0" stroke-linecap="square" stroke-miterlimit="10" points="100.965,19.307 
		100.965,19.307 100.965,19.358 100.914,19.41 	"/>
	<polyline fill="none" stroke="#FFFFFF" stroke-width="0" stroke-linecap="square" stroke-miterlimit="10" points="100.708,19.616 
		100.708,19.616 100.656,19.668 	"/>
	
		<line fill="none" stroke="#FFFFFF" stroke-width="0" stroke-linecap="square" stroke-miterlimit="10" x1="100.398" y1="19.771" x2="100.295" y2="19.822"/>
	
		<line fill="none" stroke="#FFFFFF" stroke-width="0" stroke-linecap="square" stroke-miterlimit="10" x1="100.038" y1="19.925" x2="99.935" y2="19.977"/>
	
		<line fill="none" stroke="#FFFFFF" stroke-width="0" stroke-linecap="square" stroke-miterlimit="10" x1="99.625" y1="20.08" x2="99.522" y2="20.08"/>
	
		<line fill="none" stroke="#FFFFFF" stroke-width="0" stroke-linecap="square" stroke-miterlimit="10" x1="99.264" y1="20.183" x2="99.161" y2="20.235"/>
	<polyline fill="none" stroke="#FFFFFF" stroke-width="0" stroke-linecap="square" stroke-miterlimit="10" points="98.904,20.286 
		98.852,20.286 98.8,20.286 	"/>
	
		<line fill="none" stroke="#FFFFFF" stroke-width="0" stroke-linecap="square" stroke-miterlimit="10" x1="98.491" y1="20.39" x2="98.389" y2="20.39"/>
	
		<line fill="none" stroke="#FFFFFF" stroke-width="0" stroke-linecap="square" stroke-miterlimit="10" x1="98.13" y1="20.492" x2="98.027" y2="20.492"/>
	
		<line fill="none" stroke="#FFFFFF" stroke-width="0" stroke-linecap="square" stroke-miterlimit="10" x1="97.77" y1="20.595" x2="97.666" y2="20.647"/>
	<polyline fill="none" stroke="#FFFFFF" stroke-width="0" stroke-linecap="square" stroke-miterlimit="10" points="97.357,20.699 
		97.357,20.699 97.254,20.75 	"/>
	
		<line fill="none" stroke="#FFFFFF" stroke-width="0" stroke-linecap="square" stroke-miterlimit="10" x1="96.996" y1="20.854" x2="96.894" y2="20.854"/>
	
		<line fill="none" stroke="#FFFFFF" stroke-width="0" stroke-linecap="square" stroke-miterlimit="10" x1="96.635" y1="20.957" x2="96.532" y2="21.008"/>
	<polyline fill="none" stroke="#FFFFFF" stroke-width="0" stroke-linecap="square" stroke-miterlimit="10" points="96.274,21.111 
		96.171,21.162 96.171,21.162 	"/>
	
		<line fill="none" stroke="#FFFFFF" stroke-width="0" stroke-linecap="square" stroke-miterlimit="10" x1="95.914" y1="21.266" x2="95.811" y2="21.368"/>
	<polyline fill="none" stroke="#FFFFFF" stroke-width="0" stroke-linecap="square" stroke-miterlimit="10" points="95.553,21.472 
		95.553,21.472 95.45,21.523 	"/>
	<polyline fill="none" stroke="#FFFFFF" stroke-width="0" stroke-linecap="square" stroke-miterlimit="10" points="95.244,21.678 
		95.192,21.729 95.141,21.781 	"/>
	
		<line fill="none" stroke="#FFFFFF" stroke-width="0" stroke-linecap="square" stroke-miterlimit="10" x1="94.935" y1="21.936" x2="94.831" y2="22.039"/>
</g>
</svg>
