<?xml version="1.0" encoding="utf-8"?>
<!-- Generator: Adobe Illustrator 13.0.0, SVG Export Plug-In . SVG Version: 6.00 Build 14948)  -->
<svg version="1.2" baseProfile="tiny" id="Layer_1" xmlns="http://www.w3.org/2000/svg" xmlns:xlink="http://www.w3.org/1999/xlink"
	 x="0px" y="0px" width="119.298px" height="143.313px" viewBox="0 0 119.298 143.313" xml:space="preserve">
<g>
	<polygon fill-rule="evenodd" fill="#24211D" points="71.677,86.139 68.517,81.765 66.087,79.093 62.929,77.148 57.827,75.934 
		51.267,75.205 45.192,74.719 36.688,74.719 30.614,75.205 25.512,75.934 22.839,77.148 20.409,78.363 18.952,79.821 17.494,82.251 
		16.036,85.409 71.677,86.139 	"/>
	<polygon fill-rule="evenodd" fill="#FDC800" points="83.095,93.185 85.524,103.39 87.226,111.164 87.954,115.295 87.712,119.668 
		86.739,122.098 84.31,124.285 81.88,125.742 74.106,128.415 65.602,130.116 56.612,131.331 46.893,132.06 39.847,132.06 
		29.399,131.088 22.596,129.873 16.279,128.415 12.391,127.2 4.859,123.313 3.159,122.098 1.215,119.425 0.243,116.753 0,115.295 
		0.486,111.894 0.972,108.249 4.13,94.399 5.345,90.026 7.046,87.597 8.99,85.896 11.905,84.438 14.335,83.466 16.765,82.979 
		22.353,82.008 27.698,81.765 40.09,81.522 48.837,81.765 58.556,82.008 63.901,82.979 68.032,83.709 72.405,84.681 75.321,85.896 
		78.479,87.11 80.423,88.568 82.366,91.241 83.095,93.185 	"/>
	<polygon fill-rule="evenodd" fill="#60BFF3" points="80.909,106.305 56.855,127.93 10.448,118.453 17.494,87.354 21.867,86.624 
		31.1,85.896 39.604,85.896 48.108,85.896 52.967,85.896 58.313,86.382 67.06,87.597 71.19,88.325 80.909,106.305 	"/>
	<polygon fill-rule="evenodd" fill="#24211D" points="69.247,87.839 73.376,88.568 76.536,89.783 78.235,91.241 79.45,92.698 
		80.423,95.614 82.366,104.361 83.825,111.894 84.31,115.052 84.31,118.453 83.339,120.64 81.88,122.098 78.722,123.556 
		73.376,125.257 66.574,126.472 60.985,127.2 55.154,127.687 49.809,128.172 44.463,128.415 38.146,128.172 30.371,127.687 
		22.596,126.472 16.036,125.014 11.176,123.069 8.018,121.612 5.588,119.668 4.374,117.725 3.887,115.78 3.887,113.837 
		4.616,108.978 7.289,97.801 8.261,93.913 9.233,91.727 10.69,89.783 12.877,88.325 14.335,87.839 19.923,86.867 25.512,86.382 
		23.082,87.11 21.138,88.082 19.923,89.054 17.251,92.941 15.55,98.044 14.578,107.034 14.821,112.379 16.036,116.267 
		18.223,118.21 22.596,119.911 27.698,120.64 32.558,120.64 56.369,121.126 63.415,120.397 67.302,119.425 70.218,118.21 
		73.376,116.267 74.835,114.323 75.563,111.894 75.806,109.221 74.835,98.772 74.106,96.101 72.892,93.185 70.704,89.783 
		69.247,87.839 	"/>
	<polygon fill-rule="evenodd" fill="#FFFFFF" points="63.415,92.456 65.116,94.886 67.06,98.287 68.517,101.445 69.731,104.361 
		71.677,110.436 72.892,115.78 73.134,118.453 71.433,119.425 70.218,113.108 68.274,107.034 66.087,101.932 63.415,97.315 
		60.5,93.913 63.415,92.456 	"/>
	<polygon fill-rule="evenodd" fill="#FFFFFF" points="57.098,100.474 58.556,102.175 59.771,104.604 58.556,104.847 55.883,101.688 
		53.939,99.745 56.126,99.745 57.098,100.474 	"/>
	<polygon fill-rule="evenodd" fill="#FFFFFF" points="22.353,100.474 21.138,103.39 20.167,107.52 20.167,111.164 20.409,112.865 
		17.494,111.894 17.251,109.221 17.494,105.819 18.952,102.417 20.652,99.987 22.353,100.474 	"/>
	<polygon fill-rule="evenodd" fill="#FFFFFF" points="11.176,112.379 10.934,114.565 11.176,117.238 8.99,116.753 8.504,114.08 
		8.99,112.136 11.176,112.379 	"/>
	<polygon fill-rule="evenodd" fill="#4E4B49" points="62.686,127.2 59.285,125.5 57.827,124.042 57.098,122.584 54.182,117.725 
		52.238,114.323 51.267,112.865 49.809,111.894 46.893,110.921 44.22,110.679 41.548,111.164 39.118,112.622 37.903,114.08 
		36.931,115.538 35.959,117.725 34.501,120.64 33.044,123.069 31.829,124.527 30.614,125.257 29.156,126.472 26.483,127.2 
		30.128,127.687 38.389,128.415 44.707,128.415 50.538,128.172 54.668,127.93 57.583,127.687 60.5,127.2 62.686,127.2 	"/>
	<path fill-rule="evenodd" fill="#24211D" d="M51.996,119.425c0,3.888-2.916,7.047-6.803,7.047c-3.888,0-6.803-3.159-6.803-7.047
		c0-3.645,2.916-6.803,6.803-6.803C49.08,112.622,51.996,115.78,51.996,119.425L51.996,119.425z"/>
	<path fill-rule="evenodd" fill="#A9A8A7" d="M49.809,119.425c0,2.673-1.944,4.617-4.616,4.617c-2.673,0-4.617-1.944-4.617-4.617
		c0-2.43,1.944-4.616,4.617-4.616C47.865,114.809,49.809,116.995,49.809,119.425L49.809,119.425z"/>
	<path fill-rule="evenodd" fill="#0089E1" d="M36.445,126.715c0,0,14.092,0,21.138-0.243c0,0,4.859-0.729,4.617,4.373
		c0,3.159-0.729,7.532-2.673,9.233c-1.944,1.7-6.803,3.645-13.606,3.158c-7.046,0-11.177-0.972-13.364-4.859
		c-1.458-2.673-3.401-9.962,1.458-11.42L36.445,126.715z"/>
	<path fill-rule="evenodd" fill="#60BFF3" d="M39.118,128.658c0,0,10.448,0.243,15.55,0c0,0,3.645-0.486,3.402,3.158
		c0,2.43-0.486,5.589-1.944,7.047c-1.458,1.215-4.859,2.43-9.962,2.187c-5.102,0-8.504-0.729-9.961-3.645
		c-0.972-1.944-2.43-7.289,1.215-8.261L39.118,128.658z"/>
	<path fill-rule="evenodd" fill="#60BFF3" d="M50.052,130.602c0,0,24.783,2.188,33.773-3.887c6.559-4.617,7.289-8.99,9.961-24.055
		C96.702,87.354,111.28,0.613,111.28,0.613s5.588-2.187,8.018,1.7l-17.736,103.506c0,0-2.674,22.596-11.662,28.67
		c-9.234,6.074-33.044,8.747-44.464,4.859c0,0-4.616-1.7-3.158-6.074C43.734,129.145,47.622,129.873,50.052,130.602L50.052,130.602z
		"/>
	<path fill-rule="evenodd" fill="#0089E1" d="M110.794,4.986c0,0,3.645-1.7,7.047,1.701l-4.617,27.941c0,0-2.43-2.43-7.289-1.458
		L110.794,4.986z"/>
</g>
</svg>
