<?xml version="1.0" encoding="utf-8"?>
<!-- Generator: Adobe Illustrator 13.0.0, SVG Export Plug-In . SVG Version: 6.00 Build 14948)  -->
<svg version="1.2" baseProfile="tiny" id="Layer_9" xmlns="http://www.w3.org/2000/svg" xmlns:xlink="http://www.w3.org/1999/xlink"
	 x="0px" y="0px" width="379.287px" height="190.029px" viewBox="0 0 379.287 190.029" xml:space="preserve">
<g>
	<polygon fill-rule="evenodd" fill="#716F6E" points="43.37,165.012 39.943,165.184 40.114,173.579 42.685,173.408 42.342,165.012 
		43.37,165.012 43.713,172.723 48.339,172.723 48.339,164.67 	"/>
	<path fill-rule="evenodd" fill="#716F6E" d="M34.289,174.607c3.77-0.343,3.598,0.857,3.598,0c0-0.856-0.172,2.914-0.172,2.914
		s-4.112,0.514-4.112-0.344C33.603,176.149,33.089,175.636,34.289,174.607L34.289,174.607z"/>
	<path fill-rule="evenodd" fill="#4E4B49" d="M38.401,188.487l4.798-5.997c-0.857-1.372-2.057-4.627-6.682-3.6
		c-4.456,0.857-3.599,5.998-2.4,7.883C35.316,188.658,38.401,188.487,38.401,188.487L38.401,188.487z"/>
	<path fill-rule="evenodd" fill="#3B3734" d="M42,190.029c2.913,0,5.14-2.228,5.14-5.141c0-2.742-2.227-5.141-5.14-5.141
		c-2.742,0-4.969,2.398-4.969,5.141C37.03,187.802,39.258,190.029,42,190.029L42,190.029z"/>
	<path fill-rule="evenodd" fill="#605D5C" d="M43.199,188.145c1.371,0,2.399-1.2,2.399-2.742s-1.028-2.912-2.399-2.912
		s-2.57,1.37-2.57,2.912S41.828,188.145,43.199,188.145L43.199,188.145z"/>
	<path fill-rule="evenodd" fill="#3B3734" d="M43.199,187.288c0.857,0,1.714-0.857,1.714-1.886c0-1.199-0.857-2.056-1.714-2.056
		c-1.028,0-1.884,0.856-1.884,2.056C41.314,186.431,42.17,187.288,43.199,187.288L43.199,187.288z"/>
	<path fill-rule="evenodd" fill="#4E4B49" d="M40.114,178.891l2.228-3.255l-4.626,0.343l0.172-1.371l-1.885-0.171
		c0,0-1.542-1.714-0.342-1.714c1.028,0.172,1.028,0.172,1.028,0.172l3.255-0.172l0.171,0.856l2.571,1.2l-1.371,4.111H40.114z"/>
	<polygon fill-rule="evenodd" fill="#605D5C" points="26.749,164.67 26.92,170.667 39.943,170.495 39.771,165.184 	"/>
	<polygon fill-rule="evenodd" fill="#716F6E" points="28.292,165.869 28.292,169.639 39.943,169.467 39.943,165.184 	"/>
	<polygon fill-rule="evenodd" fill="#605D5C" points="36.859,170.495 40.458,170.667 40.8,179.748 37.03,179.063 	"/>
	<polygon fill-rule="evenodd" fill="#949393" points="31.89,176.835 33.603,176.664 33.432,178.206 31.89,178.206 	"/>
	<polygon fill-rule="evenodd" fill="#605D5C" points="37.715,177.521 36.517,178.891 38.059,178.72 38.916,177.692 	"/>
	<path fill-rule="evenodd" fill="#A9A8A7" d="M224.661,116.348l-5.313,6.168l-1.885,3.084l-3.769-0.171
		c-2.741-2.399-2.57-3.256-6.169-3.084c-3.426,0-11.137,1.2-11.137,1.2s7.197-6.34,8.567-5.998
		C206.497,118.062,224.832,115.148,224.661,116.348L224.661,116.348z"/>
	<path fill-rule="evenodd" fill="#A9A8A7" d="M379.219,96.3c0.171,1.028,0,1.885-0.343,2.399c-0.685,1.542-1.027,2.57-1.884,4.113
		c-0.516,0.342-0.344-1.372-0.516-2.057C377.506,99.213,378.363,97.842,379.219,96.3L379.219,96.3z"/>
	<path fill-rule="evenodd" fill="#C1C0BF" d="M33.774,67.684c-0.171,0.686,0,1.371,0,1.371l37.012,26.389l3.599-1.199
		c0,0-39.411-26.903-39.925-26.903C33.946,67.341,33.774,67.684,33.774,67.684L33.774,67.684z"/>
	<path fill-rule="evenodd" fill="#C1C0BF" d="M212.322,125.259l4.284,8.739c3.428-1.713,4.456-5.313,1.714-7.883
		C216.264,124.059,212.322,125.259,212.322,125.259L212.322,125.259z"/>
	<path fill-rule="evenodd" fill="#DDDDDC" d="M209.41,60.316c0,0-173.065,43.695-166.382,42.496
		c6.511-1.028-20.391,3.77-31.015,21.933C1.218,142.907-1.696,142.736,0.875,156.616c2.056,11.48,53.29,8.396,53.976,7.196
		l51.748-20.562c116.862-48.835,126.8-54.833,129.028-77.451C236.14,59.802,209.41,60.316,209.41,60.316L209.41,60.316z"/>
	<path fill-rule="evenodd" fill="#C1C0BF" d="M0.532,155.416c0.172,0.343,0.172,0.686,0.343,1.2
		c2.056,11.48,53.29,8.396,53.976,7.196l51.748-20.562c105.039-43.866,123.716-53.119,128-70.94
		c-28.102,10.281-166.383,60.316-168.782,61.172c-2.742,1.028-41.81,14.394-46.094,14.908
		C16.468,148.904,5.33,153.531,0.532,155.416L0.532,155.416z"/>
	<path fill-rule="evenodd" fill="#A9A8A7" d="M0.532,155.416c0.172,0.343,0.172,0.686,0.343,1.2
		c2.056,11.48,53.29,8.396,53.976,7.196l51.748-20.562c78.993-33.071,109.152-46.437,120.975-58.603
		c-33.414,18.335-171.01,73.511-174.951,74.196c-4.284,0.514-28.958,1.713-32.9,0.514c-3.255-1.028-15.25-3.428-18.848-4.112
		L0.532,155.416z"/>
	<path fill-rule="evenodd" fill="#EB3D00" d="M229.459,82.592c4.282-5.14,5.482-10.281,6.167-16.792
		c0.171-2.57-4.969-3.942-10.794-4.798c1.542,1.542,3.598,3.77,4.456,7.025C230.658,71.111,230.486,76.251,229.459,82.592
		L229.459,82.592z"/>
	<path fill-rule="evenodd" fill="#EB3D00" d="M225.175,87.046c1.027-1.027,1.884-1.884,2.741-2.741
		c0.685-2.913,1.372-6.511,1.372-8.396c0-3.77,0-5.826-1.029-8.396c-1.028-2.399-3.255-5.312-4.798-6.683
		c-1.885-0.171-3.598-0.171-5.312-0.342c1.37,0.686,6.339,3.427,7.71,8.396C227.402,72.482,226.716,78.822,225.175,87.046
		L225.175,87.046z"/>
	<path fill-rule="evenodd" fill="#EB3D00" d="M223.803,88.075l-4.284,3.256c0.344-1.371,1.2-3.427,1.885-4.969
		c1.029-2.57,1.2-10.452,0-16.278c-1.199-5.826-7.882-8.567-7.882-8.567l-0.686-0.514c0,0,4.455-0.172,6.34,0.856
		c1.714,1.028,4.113,4.284,5.312,6.854c1.2,2.57,1.2,4.455,1.2,8.225C225.688,79.507,224.488,84.991,223.803,88.075L223.803,88.075z
		"/>
	<path fill-rule="evenodd" fill="#DDDDDC" d="M73.528,94.758l-39.239-26.73c-2.571-1.714,7.196-2.914,9.081-2.571
		c1.885,0.857,57.402,22.447,56.375,22.618L73.528,94.758z"/>
	<path fill-rule="evenodd" fill="#A9A8A7" d="M192.789,64.257l-14.393-7.197c-0.857-0.514,4.112-1.542,4.969-1.028
		c1.029,0.343,20.392,5.655,20.392,5.655L192.789,64.257z"/>
	<path fill-rule="evenodd" fill="#949393" d="M208.039,60.487l13.366,2.057l7.197-1.028l10.967-61.344L234.599,0
		C234.599,0,213.522,63.229,208.039,60.487L208.039,60.487z"/>
	<polygon fill-rule="evenodd" fill="#EB3D00" points="224.661,62.029 228.087,61.687 229.288,57.575 233.741,32.9 	"/>
	<polygon fill-rule="evenodd" fill="#EB3D00" points="219.863,62.373 221.404,62.544 223.118,62.201 235.798,21.419 239.568,0.171 
		239.226,0.171 	"/>
	<path fill-rule="evenodd" fill="#EB3D00" d="M238.539,0.171L234.599,0c0,0-18.678,55.689-25.36,60.316l9.596,1.542L238.539,0.171z"
		/>
	<path fill-rule="evenodd" fill="#A9A8A7" d="M235.456,67.17c0,0,43.522-2.914,55.688-3.599c2.571-0.171,6.854,1.2-3.427,2.742
		C277.437,67.855,231,73.339,231,74.709C231,75.909,228.43,71.968,235.456,67.17L235.456,67.17z"/>
	<path fill-rule="evenodd" fill="#C1C0BF" d="M66.503,141.879c0.514,3.085,0.514-16.278-2.57-21.59
		c-1.028-1.885,5.141-2.227,7.71-2.056c2.228,0.171,4.112,13.536,3.599,22.447C75.242,142.05,67.017,144.279,66.503,141.879
		L66.503,141.879z"/>
	<path fill-rule="evenodd" fill="#3B3734" d="M11.842,124.916c0,0-0.171,0.514,0.171-0.171c0,0,1.713,4.969,3.941,4.969
		c2.228-0.171,10.453-0.514,10.453-0.514c3.085-0.171,6.168-0.515,9.424-0.686c1.713-0.171,3.599-0.342,5.312-0.514
		c1.028-0.857,3.256,4.626,3.085,6.854c-4.798,1.542-11.481,2.056-16.621,2.056c-4.798,0-9.596-0.171-14.394-0.171
		c0.171,0-5.483-3.598-5.655-4.283C7.558,132.112,11.327,125.259,11.842,124.916L11.842,124.916z"/>
	<path fill-rule="evenodd" fill="#DDDDDC" d="M13.041,124.573c-0.171-0.171-4.798,7.197-5.483,9.082
		c-0.514,1.885,0.857,0,1.028-0.171l4.284-7.197L13.041,124.573z"/>
	<polygon fill-rule="evenodd" fill="#DDDDDC" points="15.097,129.542 11.842,135.71 13.212,136.739 16.64,129.542 	"/>
	<polygon fill-rule="evenodd" fill="#DDDDDC" points="26.406,129.2 25.892,137.767 27.606,137.938 27.777,129.2 	"/>
	<polygon fill-rule="evenodd" fill="#DDDDDC" points="35.145,128.514 36.002,136.91 37.715,137.082 36.345,128.514 	"/>
	<path fill-rule="evenodd" fill="#3B3734" d="M84.495,125.087c0,0,0,0,0.171,0c0.171-0.171,0.514,0.343,0.514,0.857
		c0,0.686,0,1.371,0,2.056c0,0.685,0,1.371,0,1.884c0,0.686-0.342,1.372-0.514,1.372s-0.171,0-0.171,0.171
		c-0.343,0-0.514-0.343-0.514-1.028c0-0.686,0-1.371,0-2.056c0-0.514,0-1.2,0-1.885C83.98,125.772,84.151,125.259,84.495,125.087
		L84.495,125.087z"/>
	<path fill-rule="evenodd" fill="#3B3734" d="M86.551,124.402c0,0,0.171,0,0.171-0.171c0.343,0,0.514,0.342,0.514,1.028
		c0,0.685,0,1.371,0,1.884c0,0.686,0,1.371,0,2.057c0,0.685-0.171,1.199-0.514,1.371h-0.171c-0.343,0.171-0.515-0.343-0.515-0.857
		c0-0.685,0-1.371,0-2.056c0-0.686,0-1.372,0-2.057C86.037,125.087,86.208,124.402,86.551,124.402L86.551,124.402z"/>
	<path fill-rule="evenodd" fill="#3B3734" d="M88.778,123.545L88.778,123.545c0.343,0,0.514,0.342,0.514,1.028
		c0,0.514,0,1.2,0,1.885c0,0.685,0,1.371,0,1.885c0,0.686-0.171,1.371-0.514,1.371l0,0c-0.343,0.171-0.685-0.171-0.685-0.857
		c0-0.685,0-1.37,0-1.885c0-0.686,0-1.371,0-2.056C88.093,124.402,88.436,123.716,88.778,123.545L88.778,123.545z"/>
	<path fill-rule="evenodd" fill="#3B3734" d="M90.834,122.86L90.834,122.86c0.343-0.172,0.686,0.342,0.686,0.856
		c0,0.686,0,1.371,0,2.057c0,0.514,0,1.199,0,1.885c0,0.685-0.343,1.199-0.686,1.371l0,0c-0.342,0.171-0.514-0.343-0.514-0.857
		c0-0.685,0-1.371,0-2.057c0-0.685,0-1.199,0-1.884C90.321,123.545,90.492,123.031,90.834,122.86L90.834,122.86z"/>
	<path fill-rule="evenodd" fill="#3B3734" d="M92.891,122.174h0.171c0.343-0.171,0.514,0.171,0.514,0.857c0,0.685,0,1.2,0,1.885
		c0,0.686,0,1.371,0,2.056c0,0.515-0.171,1.2-0.514,1.2h-0.171c-0.343,0.171-0.515-0.171-0.515-0.857c0-0.685,0-1.2,0-1.885
		c0-0.686,0-1.371,0-2.056C92.376,122.86,92.548,122.174,92.891,122.174L92.891,122.174z"/>
	<path fill-rule="evenodd" fill="#3B3734" d="M95.119,121.317L95.119,121.317c0.342,0,0.514,0.343,0.514,1.028
		c0,0.515,0,1.2,0,1.885c0,0.685,0,1.199,0,1.884c0,0.686-0.171,1.2-0.514,1.372l0,0c-0.343,0.171-0.686-0.343-0.686-0.857
		c0-0.686,0-1.371,0-2.057c0-0.514,0-1.199,0-1.885C94.433,122.174,94.775,121.488,95.119,121.317L95.119,121.317z"/>
	<path fill-rule="evenodd" fill="#3B3734" d="M97.174,120.632L97.174,120.632c0.343-0.172,0.686,0.343,0.686,0.856
		c0,0.686,0,1.372,0,1.885c0,0.685,0,1.371,0,2.056c0,0.514-0.342,1.2-0.686,1.2l0,0c-0.342,0.171-0.514-0.171-0.514-0.857
		s0-1.2,0-1.885c0-0.685,0-1.2,0-1.884C96.661,121.317,96.832,120.803,97.174,120.632L97.174,120.632z"/>
	<path fill-rule="evenodd" fill="#3B3734" d="M99.231,119.946h0.171c0.343-0.171,0.515,0.171,0.515,0.857c0,0.685,0,1.2,0,1.884
		c0,0.686,0,1.2,0,1.885c0,0.686-0.171,1.2-0.515,1.371h-0.171c-0.343,0.171-0.514-0.343-0.514-0.857c0-0.685,0-1.371,0-1.885
		c0-0.686,0-1.371,0-2.056C98.717,120.632,98.888,120.118,99.231,119.946L99.231,119.946z"/>
	<path fill-rule="evenodd" fill="#3B3734" d="M101.287,119.261c0.171,0,0.171-0.171,0.171-0.171c0.342,0,0.514,0.343,0.514,1.028
		c0,0.514,0,1.199,0,1.885c0,0.514,0,1.199,0,1.884c0,0.515-0.171,1.028-0.514,1.2c0,0,0,0-0.171,0
		c-0.171,0.172-0.515-0.171-0.515-0.856c0-0.515,0-1.2,0-1.885c0-0.685,0-1.199,0-1.885
		C100.772,119.946,101.116,119.261,101.287,119.261L101.287,119.261z"/>
	<path fill-rule="evenodd" fill="#3B3734" d="M103.515,118.404L103.515,118.404c0.343-0.171,0.685,0.343,0.685,0.856
		c0,0.686,0,1.371,0,1.885c0,0.686,0,1.371,0,1.885c0,0.685-0.342,1.2-0.685,1.371l0,0c-0.343,0.171-0.686-0.343-0.686-0.857
		c0-0.685,0-1.371,0-1.885c0-0.686,0-1.371,0-1.885C102.829,119.089,103.171,118.576,103.515,118.404L103.515,118.404z"/>
	<path fill-rule="evenodd" fill="#3B3734" d="M105.571,117.719c0,0,0,0,0.171,0c0.342-0.171,0.514,0.171,0.514,0.857
		c0,0.685,0,1.199,0,1.884c0,0.515,0,1.2,0,1.885c0,0.515-0.343,1.028-0.514,1.2c-0.171,0-0.171,0-0.171,0
		c-0.343,0.171-0.515-0.171-0.515-0.857c0-0.514,0-1.199,0-1.884c0-0.514,0-1.199,0-1.885
		C105.057,118.404,105.228,117.89,105.571,117.719L105.571,117.719z"/>
	<path fill-rule="evenodd" fill="#3B3734" d="M107.627,117.034c0.171,0,0.171,0,0.171-0.171c0.343,0,0.514,0.343,0.514,1.028
		c0,0.514,0,1.199,0,1.714c0,0.685,0,1.371,0,1.884c0,0.686-0.171,1.199-0.514,1.372c0,0,0,0-0.171,0
		c-0.171,0.171-0.514-0.343-0.514-0.857c0-0.686,0-1.2,0-1.885c0-0.685,0-1.2,0-1.884
		C107.113,117.719,107.456,117.034,107.627,117.034L107.627,117.034z"/>
	<path fill-rule="evenodd" fill="#3B3734" d="M109.854,116.177L109.854,116.177c0.343,0,0.686,0.342,0.686,0.857
		c0,0.685,0,1.2,0,1.884c0,0.686,0,1.2,0,1.885c0,0.514-0.343,1.028-0.686,1.2l0,0c-0.342,0.171-0.686-0.171-0.686-0.857
		c0-0.514,0-1.2,0-1.713c0-0.686,0-1.371,0-1.885C109.169,116.862,109.512,116.348,109.854,116.177L109.854,116.177z"/>
	<path fill-rule="evenodd" fill="#3B3734" d="M111.911,115.491c0,0,0,0,0.171,0c0.171-0.171,0.514,0.343,0.514,0.857
		c0,0.514,0,1.199,0,1.885c0,0.514,0,1.199,0,1.713c0,0.686-0.343,1.2-0.514,1.371c-0.171,0-0.171,0-0.171,0
		c-0.343,0-0.515-0.342-0.515-0.857c0-0.685,0-1.199,0-1.884c0-0.514,0-1.2,0-1.885
		C111.396,116.177,111.568,115.662,111.911,115.491L111.911,115.491z"/>
	<path fill-rule="evenodd" fill="#3B3734" d="M113.967,114.806h0.171c0.342-0.172,0.514,0.171,0.514,0.856c0,0.515,0,1.2,0,1.714
		c0,0.686,0,1.2,0,1.885c0,0.514-0.171,1.028-0.514,1.199h-0.171c-0.172,0.172-0.514-0.171-0.514-0.856c0-0.515,0-1.2,0-1.714
		c0-0.685,0-1.2,0-1.885C113.453,115.491,113.795,114.806,113.967,114.806L113.967,114.806z"/>
	<path fill-rule="evenodd" fill="#3B3734" d="M116.194,114.12c0-0.171,0-0.171,0-0.171c0.343,0,0.686,0.342,0.686,0.857
		c0,0.685,0,1.199,0,1.884c0,0.515,0,1.2,0,1.714c0,0.685-0.342,1.2-0.686,1.371l0,0c-0.342,0-0.685-0.342-0.685-0.857
		c0-0.685,0-1.199,0-1.884c0-0.515,0-1.199,0-1.714C115.509,114.634,115.852,114.12,116.194,114.12L116.194,114.12z"/>
	<path fill-rule="evenodd" fill="#3B3734" d="M118.251,113.264c0,0,0,0,0.171,0c0.171-0.172,0.515,0.342,0.515,0.856
		c0,0.514,0,1.2,0,1.714c0,0.685,0,1.199,0,1.884c0,0.515-0.343,1.028-0.515,1.199c-0.171,0-0.171,0-0.171,0
		c-0.343,0.171-0.514-0.171-0.514-0.856c0-0.515,0-1.2,0-1.714c0-0.686,0-1.2,0-1.885
		C117.737,113.949,117.908,113.436,118.251,113.264L118.251,113.264z"/>
	<path fill-rule="evenodd" fill="#3B3734" d="M120.307,112.578h0.171c0.342-0.171,0.514,0.171,0.514,0.857c0,0.514,0,1.027,0,1.713
		c0,0.514,0,1.2,0,1.714c0,0.685-0.171,1.2-0.514,1.371h-0.171c-0.342,0-0.514-0.343-0.514-0.857c0-0.514,0-1.199,0-1.714
		c0-0.685,0-1.199,0-1.884C119.793,113.264,119.965,112.75,120.307,112.578L120.307,112.578z"/>
	<path fill-rule="evenodd" fill="#3B3734" d="M122.535,111.893v-0.171c0.343,0,0.514,0.343,0.514,0.857c0,0.686,0,1.2,0,1.885
		c0,0.515,0,1.028,0,1.714c0,0.514-0.171,1.028-0.514,1.199l0,0c-0.342,0.171-0.686-0.171-0.686-0.686c0-0.685,0-1.199,0-1.884
		c0-0.515,0-1.2,0-1.714C121.849,112.407,122.192,111.893,122.535,111.893L122.535,111.893z"/>
	<path fill-rule="evenodd" fill="#3B3734" d="M124.591,111.037c0,0,0,0,0.171,0c0.171-0.172,0.514,0.342,0.514,0.856
		c0,0.515,0,1.2,0,1.714c0,0.685,0,1.2,0,1.713c0,0.686-0.343,1.199-0.514,1.199c-0.171,0.171-0.171,0.171-0.171,0.171
		c-0.343,0-0.515-0.342-0.515-0.856c0-0.515,0-1.2,0-1.714c0-0.685,0-1.199,0-1.884
		C124.077,111.721,124.248,111.208,124.591,111.037L124.591,111.037z"/>
	<path fill-rule="evenodd" fill="#3B3734" d="M126.647,110.351h0.171c0.343-0.171,0.514,0.171,0.514,0.857c0,0.514,0,1.028,0,1.713
		c0,0.515,0,1.199,0,1.713s-0.171,1.028-0.514,1.2h-0.171c-0.342,0.171-0.514-0.172-0.514-0.686c0-0.686,0-1.199,0-1.884
		c0-0.515,0-1.2,0-1.714S126.305,110.522,126.647,110.351L126.647,110.351z"/>
	<path fill-rule="evenodd" fill="#3B3734" d="M128.875,109.666L128.875,109.666c0.343-0.172,0.515,0.171,0.515,0.685
		c0,0.686,0,1.2,0,1.713c0,0.686,0,1.2,0,1.714c0,0.685-0.172,1.2-0.515,1.2c0,0.171,0,0.171,0,0.171
		c-0.342,0-0.686-0.342-0.686-0.857c0-0.514,0-1.199,0-1.713s0-1.199,0-1.714C128.189,110.351,128.532,109.666,128.875,109.666
		L128.875,109.666z"/>
	<path fill-rule="evenodd" fill="#3B3734" d="M130.931,108.809c0,0,0,0,0.171,0c0.171,0,0.514,0.343,0.514,0.857s0,1.199,0,1.713
		c0,0.514,0,1.199,0,1.713s-0.343,1.028-0.514,1.199c-0.171,0-0.171,0-0.171,0c-0.343,0.171-0.515-0.171-0.515-0.685
		c0-0.686,0-1.199,0-1.714c0-0.685,0-1.199,0-1.884C130.417,109.494,130.588,108.98,130.931,108.809L130.931,108.809z"/>
	<path fill-rule="evenodd" fill="#3B3734" d="M132.987,108.123h0.171c0.342-0.171,0.514,0.171,0.514,0.857c0,0.514,0,1.028,0,1.713
		c0,0.514,0,1.028,0,1.714c0,0.514-0.171,1.028-0.514,1.028c0,0.171-0.171,0.171-0.171,0.171c-0.343,0-0.514-0.342-0.514-0.857
		c0-0.514,0-1.199,0-1.713c0-0.515,0-1.2,0-1.714C132.473,108.809,132.644,108.294,132.987,108.123L132.987,108.123z"/>
	<path fill-rule="evenodd" fill="#3B3734" d="M135.043,107.438c0.171,0,0.171,0,0.171,0c0.343-0.172,0.515,0.171,0.515,0.685
		c0,0.515,0,1.199,0,1.713s0,1.2,0,1.714s-0.171,1.028-0.515,1.199c0,0,0,0-0.171,0c-0.171,0.171-0.514-0.171-0.514-0.686
		c0-0.685,0-1.2,0-1.713c0-0.685,0-1.199,0-1.713C134.529,108.123,134.872,107.438,135.043,107.438L135.043,107.438z"/>
	<path fill-rule="evenodd" fill="#3B3734" d="M137.271,106.752v-0.171c0.342,0,0.686,0.343,0.686,0.857c0,0.514,0,1.028,0,1.713
		c0,0.514,0,1.028,0,1.713c0,0.515-0.343,1.028-0.686,1.028c0,0.171,0,0.171,0,0.171c-0.343,0-0.686-0.343-0.686-0.856
		c0-0.514,0-1.028,0-1.714c0-0.514,0-1.027,0-1.713C136.585,107.266,136.928,106.752,137.271,106.752L137.271,106.752z"/>
	<path fill-rule="evenodd" fill="#3B3734" d="M139.327,105.896h0.171c0.342-0.171,0.514,0.171,0.514,0.857c0,0.514,0,1.028,0,1.542
		c0,0.686,0,1.199,0,1.714c0,0.514-0.171,1.028-0.514,1.199h-0.171c-0.342,0.171-0.514-0.171-0.514-0.686c0-0.686,0-1.2,0-1.713
		c0-0.514,0-1.199,0-1.714C138.813,106.581,138.985,106.066,139.327,105.896L139.327,105.896z"/>
	<path fill-rule="evenodd" fill="#3B3734" d="M141.384,105.21c0.171,0,0.171,0,0.171,0c0.343-0.171,0.514,0.171,0.514,0.685
		c0,0.514,0,1.199,0,1.714c0,0.514,0,1.028,0,1.713c0,0.514-0.171,1.028-0.514,1.028c0,0,0,0.171-0.171,0.171
		c-0.171,0-0.515-0.342-0.515-0.856s0-1.028,0-1.714c0-0.514,0-1.028,0-1.542S141.212,105.382,141.384,105.21L141.384,105.21z"/>
	<path fill-rule="evenodd" fill="#3B3734" d="M143.611,104.524c0,0,0,0,0-0.171c0.343,0,0.686,0.342,0.686,0.857
		c0,0.514,0,1.027,0,1.713c0,0.514,0,1.028,0,1.542c0,0.514-0.343,1.027-0.686,1.199l0,0c-0.343,0.171-0.685-0.172-0.685-0.686
		s0-1.199,0-1.714c0-0.514,0-1.028,0-1.713C142.926,105.039,143.268,104.524,143.611,104.524L143.611,104.524z"/>
	<path fill-rule="evenodd" fill="#3B3734" d="M145.667,103.667c0,0,0,0,0.171,0c0.343-0.171,0.514,0.172,0.514,0.857
		c0,0.515,0,1.028,0,1.542c0,0.515,0,1.2,0,1.714c0,0.514-0.171,1.028-0.514,1.028c-0.171,0-0.171,0.171-0.171,0.171
		c-0.342,0-0.514-0.342-0.514-0.857c0-0.514,0-1.028,0-1.542c0-0.515,0-1.199,0-1.713S145.325,103.84,145.667,103.667
		L145.667,103.667z"/>
	<path fill-rule="evenodd" fill="#3B3734" d="M147.724,102.983c0.171,0,0.171,0,0.171,0c0.343-0.171,0.514,0.171,0.514,0.685
		c0,0.515,0,1.2,0,1.714c0,0.514,0,1.028,0,1.542s-0.171,1.028-0.514,1.199c0,0,0,0-0.171,0c-0.171,0.171-0.514-0.171-0.514-0.685
		c0-0.514,0-1.2,0-1.714s0-1.028,0-1.542C147.209,103.667,147.552,103.154,147.724,102.983L147.724,102.983z"/>
	<path fill-rule="evenodd" fill="#3B3734" d="M149.951,102.297L149.951,102.297c0.342-0.171,0.685,0.171,0.685,0.686
		c0,0.514,0,1.028,0,1.542c0,0.515,0,1.2,0,1.713c0,0.515-0.343,1.028-0.685,1.028v0.172c-0.343,0-0.686-0.343-0.686-0.857
		c0-0.515,0-1.028,0-1.542c0-0.515,0-1.028,0-1.714C149.265,102.812,149.608,102.297,149.951,102.297L149.951,102.297z"/>
	<path fill-rule="evenodd" fill="#3B3734" d="M152.007,101.44c0,0,0,0,0.172,0c0.171,0,0.514,0.343,0.514,0.857
		c0,0.515,0,1.028,0,1.543c0,0.514,0,1.028,0,1.542c0,0.514-0.342,1.028-0.514,1.199c-0.172,0-0.172,0-0.172,0
		c-0.343,0.171-0.514-0.171-0.514-0.686c0-0.514,0-1.028,0-1.713c0-0.515,0-1.028,0-1.542
		C151.493,102.126,151.664,101.612,152.007,101.44L152.007,101.44z"/>
	<path fill-rule="evenodd" fill="#3B3734" d="M154.063,100.755c0.171,0,0.171,0,0.171,0c0.343-0.171,0.515,0.171,0.515,0.685
		c0,0.515,0,1.028,0,1.543c0,0.685,0,1.199,0,1.713c0,0.515-0.171,1.028-0.515,1.028c0,0,0,0-0.171,0.171
		c-0.342,0-0.514-0.343-0.514-0.856c0-0.515,0-1.028,0-1.542c0-0.514,0-1.028,0-1.542
		C153.549,101.44,153.721,100.926,154.063,100.755L154.063,100.755z"/>
	<path fill-rule="evenodd" fill="#3B3734" d="M156.291,100.07L156.291,100.07c0.342-0.172,0.686,0.171,0.686,0.685s0,1.028,0,1.542
		c0,0.515,0,1.028,0,1.543c0,0.514-0.343,1.028-0.686,1.199l0,0c-0.343,0.171-0.685-0.171-0.685-0.686c0-0.514,0-1.028,0-1.542
		c0-0.515,0-1.2,0-1.714C155.606,100.584,155.948,100.241,156.291,100.07L156.291,100.07z"/>
	<path fill-rule="evenodd" fill="#3B3734" d="M158.347,99.384c0,0,0-0.171,0.171-0.171s0.514,0.343,0.514,0.685
		c0,0.686,0,1.2,0,1.714s0,1.028,0,1.542s-0.342,1.028-0.514,1.028s-0.171,0-0.171,0.171c-0.343,0-0.514-0.343-0.514-0.857
		c0-0.514,0-1.028,0-1.542c0-0.515,0-1.028,0-1.543C157.833,99.898,158.004,99.384,158.347,99.384L158.347,99.384z"/>
	<path fill-rule="evenodd" fill="#3B3734" d="M160.404,98.527h0.171c0.342-0.171,0.514,0.171,0.514,0.686s0,1.028,0,1.542
		s0,1.028,0,1.542c0,0.515-0.171,1.028-0.514,1.2h-0.171c-0.343,0.171-0.515-0.171-0.515-0.685c0-0.515,0-1.028,0-1.543
		c0-0.514,0-1.027,0-1.542S160.061,98.699,160.404,98.527L160.404,98.527z"/>
	<path fill-rule="evenodd" fill="#3B3734" d="M162.631,97.842L162.631,97.842c0.343-0.171,0.514,0.172,0.514,0.686
		c0,0.515,0,1.028,0,1.543c0,0.514,0,1.027,0,1.542s-0.171,1.028-0.514,1.028c0,0,0,0,0,0.171c-0.343,0-0.685-0.343-0.685-0.686
		c0-0.514,0-1.2,0-1.714c0-0.514,0-1.027,0-1.542S162.288,98.014,162.631,97.842L162.631,97.842z"/>
	<path fill-rule="evenodd" fill="#3B3734" d="M164.687,97.157c0,0,0,0,0.171-0.171c0.172,0,0.514,0.343,0.514,0.685
		c0,0.515,0,1.028,0,1.542s0,1.028,0,1.542s-0.342,1.028-0.514,1.2c-0.171,0-0.171,0-0.171,0c-0.342,0.171-0.514-0.171-0.514-0.686
		c0-0.514,0-1.027,0-1.542s0-1.028,0-1.542C164.173,97.67,164.345,97.157,164.687,97.157L164.687,97.157z"/>
	<path fill-rule="evenodd" fill="#3B3734" d="M166.744,96.3h0.171c0.343,0,0.514,0.171,0.514,0.686c0,0.514,0,1.028,0,1.542
		c0,0.515,0,1.028,0,1.543c0,0.514-0.171,1.027-0.514,1.027h-0.171c-0.343,0.171-0.515-0.171-0.515-0.514c0-0.514,0-1.028,0-1.542
		c0-0.515,0-1.028,0-1.543C166.229,96.985,166.4,96.471,166.744,96.3L166.744,96.3z"/>
	<path fill-rule="evenodd" fill="#3B3734" d="M168.8,95.615c0.171,0,0.171,0,0.171,0c0.342-0.171,0.514,0.171,0.514,0.685
		c0,0.514,0,1.028,0,1.542c0,0.514,0,1.028,0,1.371c0,0.514-0.171,1.028-0.514,1.199c0,0,0,0-0.171,0
		c-0.172,0.172-0.514-0.17-0.514-0.685s0-1.028,0-1.542c0-0.515,0-1.028,0-1.543C168.286,96.3,168.628,95.786,168.8,95.615
		L168.8,95.615z"/>
	<path fill-rule="evenodd" fill="#3B3734" d="M171.027,94.929L171.027,94.929c0.343-0.171,0.686,0.171,0.686,0.514
		c0,0.514,0,1.028,0,1.542c0,0.514,0,1.028,0,1.542c0,0.515-0.342,1.028-0.686,1.028l0,0c-0.342,0.171-0.514-0.171-0.514-0.514
		c0-0.515,0-1.028,0-1.543c0-0.514,0-1.028,0-1.542C170.513,95.443,170.685,94.929,171.027,94.929L171.027,94.929z"/>
	<path fill-rule="evenodd" fill="#3B3734" d="M173.083,94.072h0.171c0.343,0,0.515,0.172,0.515,0.686s0,1.028,0,1.542
		c0,0.514,0,1.028,0,1.542c0,0.343-0.171,0.857-0.515,1.028h-0.171c-0.343,0.172-0.514-0.171-0.514-0.685c0-0.515,0-1.028,0-1.543
		c0-0.514,0-0.856,0-1.371C172.569,94.758,172.741,94.244,173.083,94.072L173.083,94.072z"/>
	<path fill-rule="evenodd" fill="#3B3734" d="M175.14,93.387c0.171,0,0.171,0,0.171,0c0.342-0.171,0.514,0.171,0.514,0.685
		s0,1.028,0,1.371c0,0.514,0,1.028,0,1.542c0,0.514-0.171,1.028-0.514,1.028c0,0,0,0-0.171,0c-0.171,0.171-0.514-0.172-0.514-0.515
		c0-0.514,0-1.028,0-1.542c0-0.514,0-1.028,0-1.542C174.626,94.072,174.968,93.558,175.14,93.387L175.14,93.387z"/>
	<path fill-rule="evenodd" fill="#3B3734" d="M177.367,92.701L177.367,92.701c0.343-0.171,0.685,0.171,0.685,0.515
		c0,0.514,0,1.028,0,1.542s0,1.028,0,1.542c0,0.342-0.342,0.857-0.685,1.028l0,0c-0.343,0.171-0.686-0.171-0.686-0.686
		c0-0.514,0-1.027,0-1.371c0-0.514,0-1.027,0-1.542C176.682,93.216,177.024,92.873,177.367,92.701L177.367,92.701z"/>
	<path fill-rule="evenodd" fill="#3B3734" d="M179.424,92.016l0.171-0.171c0.342,0,0.514,0.171,0.514,0.686c0,0.514,0,1.028,0,1.542
		c0,0.343,0,0.857,0,1.371c0,0.514-0.171,0.856-0.514,1.028c-0.171,0-0.171,0-0.171,0c-0.343,0.171-0.515-0.171-0.515-0.514
		c0-0.514,0-1.028,0-1.542s0-1.028,0-1.371C178.909,92.53,179.081,92.016,179.424,92.016L179.424,92.016z"/>
	<path fill-rule="evenodd" fill="#3B3734" d="M181.479,91.159c0.171,0,0.171,0,0.171,0c0.344-0.171,0.515,0.171,0.515,0.685
		c0,0.515,0,0.857,0,1.372c0,0.514,0,1.028,0,1.542c0,0.342-0.171,0.857-0.515,1.028c0,0,0,0-0.171,0
		c-0.171,0.171-0.514-0.171-0.514-0.686c0-0.514,0-0.856,0-1.371c0-0.514,0-1.028,0-1.542
		C180.966,91.844,181.308,91.331,181.479,91.159L181.479,91.159z"/>
	<path fill-rule="evenodd" fill="#3B3734" d="M183.707,90.474L183.707,90.474c0.344-0.171,0.687,0.172,0.687,0.515
		c0,0.514,0,1.027,0,1.542c0,0.514,0,0.857,0,1.371c0,0.514-0.342,0.857-0.687,1.028l0,0c-0.342,0.171-0.685-0.171-0.685-0.514
		c0-0.514,0-1.028,0-1.542c0-0.342,0-0.857,0-1.371S183.364,90.646,183.707,90.474L183.707,90.474z"/>
	<path fill-rule="evenodd" fill="#3B3734" d="M185.763,89.789c0,0,0,0,0.171-0.171c0.171,0,0.514,0.171,0.514,0.685
		c0,0.515,0,1.028,0,1.371c0,0.514,0,1.028,0,1.542c0,0.342-0.343,0.856-0.514,1.028c-0.171,0-0.171,0-0.171,0
		c-0.342,0.171-0.514-0.172-0.514-0.686c0-0.342,0-0.857,0-1.371c0-0.514,0-1.028,0-1.371
		C185.25,90.302,185.421,89.789,185.763,89.789L185.763,89.789z"/>
	<path fill-rule="evenodd" fill="#3B3734" d="M187.82,88.932c0.171,0,0.171,0,0.171,0c0.343,0,0.514,0.171,0.514,0.686
		c0,0.514,0,0.856,0,1.371c0,0.514,0,0.856,0,1.371c0,0.514-0.171,0.857-0.514,1.028c0,0,0,0-0.171,0
		c-0.171,0.171-0.514-0.171-0.514-0.515c0-0.514,0-1.028,0-1.371c0-0.514,0-1.028,0-1.542
		C187.306,89.618,187.648,89.103,187.82,88.932L187.82,88.932z"/>
	<path fill-rule="evenodd" fill="#3B3734" d="M190.047,88.246L190.047,88.246c0.342-0.171,0.685,0.172,0.685,0.515
		c0,0.514,0,1.028,0,1.542c0,0.343,0,0.857,0,1.371c0,0.342-0.343,0.857-0.685,1.028l0,0c-0.343,0-0.685-0.171-0.685-0.686
		c0-0.342,0-0.856,0-1.37c0-0.514,0-0.857,0-1.371C189.362,88.761,189.705,88.418,190.047,88.246L190.047,88.246z"/>
	<path fill-rule="evenodd" fill="#3B3734" d="M192.104,87.561c0,0,0,0,0.171,0c0.171-0.171,0.514,0.171,0.514,0.514
		c0,0.515,0,1.028,0,1.371c0,0.515,0,1.028,0,1.372c0,0.514-0.342,0.856-0.514,1.027c-0.171,0-0.171,0-0.171,0
		c-0.342,0.171-0.514-0.171-0.514-0.514c0-0.514,0-1.028,0-1.371c0-0.515,0-1.028,0-1.371
		C191.59,88.075,191.761,87.561,192.104,87.561L192.104,87.561z"/>
	<path fill-rule="evenodd" fill="#3B3734" d="M194.16,86.875c0-0.171,0.171-0.171,0.171-0.171c0.342,0,0.514,0.171,0.514,0.686
		c0,0.343,0,0.856,0,1.371c0,0.342,0,0.857,0,1.371c0,0.342-0.171,0.857-0.514,1.028h-0.171c-0.343,0-0.514-0.171-0.514-0.686
		c0-0.342,0-0.856,0-1.371c0-0.342,0-0.857,0-1.371C193.646,87.39,193.817,86.875,194.16,86.875L194.16,86.875z"/>
	<path fill-rule="evenodd" fill="#3B3734" d="M196.388,86.019L196.388,86.019c0.343-0.171,0.685,0.171,0.685,0.514
		c0,0.514,0,1.028,0,1.371c0,0.515,0,1.028,0,1.371c0,0.514-0.342,0.857-0.685,1.028l0,0c-0.344,0.171-0.687-0.171-0.687-0.514
		c0-0.514,0-0.857,0-1.371c0-0.515,0-0.857,0-1.372C195.701,86.533,196.044,86.19,196.388,86.019L196.388,86.019z"/>
	<path fill-rule="evenodd" fill="#3B3734" d="M198.444,85.333c0,0,0,0,0.169,0c0.173-0.171,0.516,0.171,0.516,0.514
		c0,0.514,0,0.856,0,1.37c0,0.515,0,0.857,0,1.372c0,0.342-0.343,0.856-0.516,1.028c-0.169,0-0.169,0-0.169,0
		c-0.344,0-0.515-0.172-0.515-0.686c0-0.342,0-0.857,0-1.199c0-0.515,0-1.028,0-1.371C197.929,85.848,198.1,85.504,198.444,85.333
		L198.444,85.333z"/>
	<path fill-rule="evenodd" fill="#3B3734" d="M200.499,84.647l0.171-0.171c0.344,0,0.515,0.171,0.515,0.686c0,0.342,0,0.857,0,1.371
		c0,0.343,0,0.857,0,1.2c0,0.514-0.171,0.857-0.515,1.028h-0.171c-0.342,0.171-0.514-0.171-0.514-0.515c0-0.514,0-0.856,0-1.371
		c0-0.343,0-0.856,0-1.371C199.985,85.162,200.157,84.647,200.499,84.647L200.499,84.647z"/>
	<path fill-rule="evenodd" fill="#3B3734" d="M202.556,83.792c0.171,0,0.171,0,0.171,0c0.344-0.171,0.514,0.171,0.514,0.514
		c0,0.515,0,1.028,0,1.371c0,0.515,0,0.857,0,1.371c0,0.343-0.17,0.857-0.514,0.857c0,0.171,0,0.171-0.171,0.171
		s-0.514-0.171-0.514-0.514c0-0.515,0-1.028,0-1.371c0-0.515,0-0.857,0-1.371C202.042,84.305,202.384,83.963,202.556,83.792
		L202.556,83.792z"/>
	<path fill-rule="evenodd" fill="#3B3734" d="M204.783,83.105L204.783,83.105c0.342-0.171,0.685,0.171,0.685,0.515
		c0,0.514,0,0.856,0,1.371c0,0.343,0,0.857,0,1.2c0,0.514-0.343,0.856-0.685,1.027l0,0c-0.342,0.172-0.514-0.171-0.514-0.514
		c0-0.514,0-0.856,0-1.371c0-0.343,0-0.857,0-1.2C204.27,83.62,204.441,83.277,204.783,83.105L204.783,83.105z"/>
	<path fill-rule="evenodd" fill="#3B3734" d="M206.84,82.42h0.171c0.343-0.171,0.514,0,0.514,0.515c0,0.342,0,0.857,0,1.199
		c0,0.514,0,0.857,0,1.371c0,0.343-0.171,0.857-0.514,0.857c0,0.171-0.171,0.171-0.171,0.171c-0.343,0-0.514-0.171-0.514-0.514
		c0-0.515,0-1.028,0-1.372c0-0.514,0-0.856,0-1.371C206.326,82.935,206.497,82.42,206.84,82.42L206.84,82.42z"/>
	<path fill-rule="evenodd" fill="#3B3734" d="M208.896,81.564c0.171,0,0.171,0,0.171,0c0.342,0,0.514,0.171,0.514,0.514
		c0,0.514,0,0.857,0,1.371c0,0.343,0,0.857,0,1.199c0,0.515-0.171,0.857-0.514,1.028c0,0,0,0-0.171,0
		c-0.171,0.172-0.514-0.171-0.514-0.514s0-0.857,0-1.199c0-0.515,0-1.028,0-1.371C208.382,82.249,208.725,81.735,208.896,81.564
		L208.896,81.564z"/>
	<path fill-rule="evenodd" fill="#3B3734" d="M211.124,80.878L211.124,80.878c0.343-0.171,0.685,0.171,0.685,0.515
		c0,0.514,0,0.856,0,1.371c0,0.342,0,0.857,0,1.2c0,0.342-0.342,0.857-0.685,0.857c0,0.171,0,0.171,0,0.171
		c-0.342,0-0.514-0.171-0.514-0.514c0-0.514,0-0.856,0-1.371c0-0.342,0-0.857,0-1.199C210.61,81.393,210.781,81.049,211.124,80.878
		L211.124,80.878z"/>
	<path fill-rule="evenodd" fill="#3B3734" d="M213.18,80.193c0,0,0,0,0.171,0c0.342-0.171,0.514,0,0.514,0.514
		c0,0.342,0,0.857,0,1.199c0,0.514,0,0.857,0,1.371c0,0.343-0.171,0.686-0.514,0.857c-0.171,0-0.171,0-0.171,0
		c-0.344,0.171-0.515,0-0.515-0.514c0-0.343,0-0.857,0-1.2c0-0.514,0-0.856,0-1.371C212.665,80.707,212.836,80.193,213.18,80.193
		L213.18,80.193z"/>
	<path fill-rule="evenodd" fill="#3B3734" d="M215.237,79.507c0.171-0.171,0.171-0.171,0.171-0.171c0.343,0,0.514,0.171,0.514,0.514
		c0,0.515,0,0.857,0,1.372c0,0.343,0,0.856,0,1.199c0,0.343-0.171,0.857-0.514,0.857c0,0.171,0,0.171-0.171,0.171
		c-0.171,0-0.516-0.171-0.516-0.514c0-0.515,0-0.857,0-1.371c0-0.343,0-0.857,0-1.2C214.721,80.022,215.065,79.507,215.237,79.507
		L215.237,79.507z"/>
	<path fill-rule="evenodd" fill="#3B3734" d="M217.463,78.65L217.463,78.65c0.344-0.171,0.687,0.171,0.687,0.515
		c0,0.342,0,0.857,0,1.199c0,0.514,0,0.857,0,1.371c0,0.343-0.343,0.685-0.687,0.857l0,0c-0.343,0.171-0.685-0.172-0.685-0.514
		c0-0.343,0-0.856,0-1.2c0-0.514,0-0.856,0-1.199C216.778,79.165,217.12,78.822,217.463,78.65L217.463,78.65z"/>
	<path fill-rule="evenodd" fill="#C1C0BF" d="M144.639,119.604c0,0-1.713,3.598-0.856,4.969c0.856,1.371,5.654,2.057,5.654,2.057
		l227.383-23.818l0.173-2.741L144.639,119.604z"/>
	<path fill-rule="evenodd" fill="#DDDDDC" d="M144.639,119.604c0,0-0.342,0.685-0.685,1.542c1.371,1.028,5.483,1.542,5.483,1.542
		l227.383-20.219l0.173-2.398L144.639,119.604z"/>
	<path fill-rule="evenodd" fill="#C1C0BF" d="M144.81,119.775c3.427-5.312,9.253-8.396,17.478-9.595l216.931-13.708l-2.227,4.284
		L144.81,119.775z"/>
	<path fill-rule="evenodd" fill="#A9A8A7" d="M149.78,114.634c3.255-2.227,7.368-3.77,12.508-4.455l216.931-13.708l-1.027,2.056
		L149.78,114.634z"/>
	<path fill-rule="evenodd" fill="#A9A8A7" d="M193.989,151.818c6.682,0,12.166-5.484,12.166-12.338
		c0-6.682-5.484-12.166-12.166-12.166c-6.854,0-12.338,5.483-12.338,12.166C181.65,146.334,187.135,151.818,193.989,151.818
		L193.989,151.818z"/>
	<path fill-rule="evenodd" fill="#716F6E" d="M193.474,150.619c5.827,0,10.454-4.969,10.454-11.139
		c0-5.997-4.627-10.966-10.454-10.966c-5.654,0-10.452,4.969-10.452,10.966C183.022,145.649,187.82,150.619,193.474,150.619
		L193.474,150.619z"/>
	<path fill-rule="evenodd" fill="#3B3734" d="M194.502,147.876c4.969,0,9.082-4.284,9.082-9.596c0-5.14-4.113-9.424-9.082-9.424
		c-5.14,0-9.082,4.284-9.082,9.424C185.421,143.593,189.362,147.876,194.502,147.876L194.502,147.876z"/>
	<path fill-rule="evenodd" fill="#605D5C" d="M197.244,139.138c1.029,0,1.885-1.028,1.885-2.228c0-1.2-0.856-2.056-1.885-2.056
		c-1.028,0-1.885,0.856-1.885,2.056C195.359,138.109,196.216,139.138,197.244,139.138L197.244,139.138z"/>
	<path fill-rule="evenodd" fill="#3B3734" d="M197.244,137.767c0.514,0,0.856-0.343,0.856-0.857c0-0.343-0.342-0.856-0.856-0.856
		s-0.856,0.514-0.856,0.856C196.388,137.424,196.73,137.767,197.244,137.767L197.244,137.767z"/>
	<path fill-rule="evenodd" fill="#C1C0BF" d="M193.474,151.818c8.911-1.371,10.967-2.742,12.681-3.599
		c1.712-0.857,10.623-8.911,4.798-18.678c-5.998-9.596-18.335-6.511-14.394-7.197c4.111-0.514-0.515-0.857-5.141,2.742
		c-7.196,5.826-6.169,5.654-3.256,3.598c2.913-2.227,6.683-1.371,7.882-1.199c1.2,0.342,3.599,0.342,7.027,4.798
		c3.426,4.455,2.397,9.938,0.856,12.851C202.556,148.048,202.384,150.104,193.474,151.818L193.474,151.818z"/>
	<path fill-rule="evenodd" fill="#DDDDDC" d="M206.155,148.22c0,0,8.224-5.998,9.938-10.795c1.714-4.969,1.199-15.593-6.683-16.621
		c-4.969-0.686-12.851,1.542-12.851,1.542s10.623,1.2,13.88,8.567C213.18,138.281,211.466,143.593,206.155,148.22L206.155,148.22z"
		/>
	<path fill-rule="evenodd" fill="#C1C0BF" d="M230.829,74.538c0,0-1.027,1.2,0,1.542c0.856,0.515,61.345-8.91,62.372-9.424
		c1.028-0.685,1.028-1.884,1.028-1.884L230.829,74.538z"/>
	<path fill-rule="evenodd" fill="#EB3D00" d="M89.292,109.836c0,0-2.741,0.686-3.941,1.2c-1.371,0.342-1.371,2.056-1.542,2.57
		c0,0.514-0.514,7.882-0.856,11.138c-1.542,4.626-2.056,7.197-3.941,11.138c-1.028,1.542-1.713,3.255-1.713,3.255
		c2.056,2.056,4.455,7.368,4.112,12.337c0,0.344,5.997-2.398,5.997-2.398c0.171-4.626-1.199-8.568-3.598-11.995
		c1.885-3.084,3.77-8.226,4.113-10.453C89.121,124.402,89.292,109.836,89.292,109.836L89.292,109.836z"/>
	<path fill-rule="evenodd" fill="#C1C0BF" d="M79.526,93.044L38.401,66.999c-2.228-1.372,2.228-1.542,3.427-0.686
		c1.371,0.686,54.49,22.618,53.633,22.79L79.526,93.044z"/>
	<path fill-rule="evenodd" fill="#DDDDDC" d="M67.017,141.365c0.686,2.914,0.515-16.278-2.399-21.59
		c-1.199-1.885,4.969-2.228,7.54-2.056c2.399,0.171,4.112,13.365,3.77,22.276C75.755,141.365,67.702,143.593,67.017,141.365
		L67.017,141.365z"/>
</g>
</svg>
