<?xml version="1.0" encoding="utf-8"?>
<!-- Generator: Adobe Illustrator 13.0.0, SVG Export Plug-In . SVG Version: 6.00 Build 14948)  -->
<svg version="1.2" baseProfile="tiny" id="Layer_9" xmlns="http://www.w3.org/2000/svg" xmlns:xlink="http://www.w3.org/1999/xlink"
	 x="0px" y="0px" width="195.764px" height="224.282px" viewBox="0 0 195.764 224.282" xml:space="preserve">
<polygon fill="#71624E" points="48.05,205.271 47.901,205.196 47.753,205.122 47.604,204.974 47.456,204.974 47.233,204.974 
	47.084,204.974 46.936,205.047 46.787,205.122 46.416,204.527 46.045,203.859 45.673,203.19 45.376,202.448 45.005,201.78 
	44.782,201.111 44.56,200.741 44.485,200.37 44.411,199.997 44.262,199.7 44.188,199.329 44.114,198.958 44.04,198.586 
	43.965,198.215 43.891,197.844 43.891,197.473 43.891,197.174 43.891,196.729 43.891,196.433 43.965,196.062 44.04,195.69 
	44.114,195.318 44.188,195.021 44.336,194.65 44.485,194.279 44.634,193.981 44.782,193.758 44.856,193.536 45.005,193.313 
	45.153,193.165 45.302,193.017 45.451,192.793 45.599,192.646 45.748,192.497 46.119,192.2 46.49,191.902 46.862,191.68 
	47.233,191.383 47.679,191.234 48.124,191.01 48.57,190.862 49.015,190.64 49.461,190.491 49.981,190.342 50.426,190.194 
	50.872,190.045 51.169,189.972 51.466,189.897 51.837,189.823 52.134,189.749 52.803,189.674 53.471,189.601 54.808,189.526 
	56.07,189.377 56.739,189.377 57.407,189.303 58.076,189.229 58.744,189.081 59.041,189.081 59.338,188.932 59.635,188.857 
	60.007,188.784 60.304,188.635 60.601,188.486 60.898,188.413 61.195,188.189 62.903,187.372 62.977,187.372 63.052,187.372 
	63.052,187.297 63.126,187.297 63.2,187.224 63.274,187.224 63.274,187.149 63.349,187.075 64.537,184.997 64.537,184.476 
	64.537,183.956 64.537,183.51 64.462,182.991 64.388,182.545 64.314,182.1 64.24,181.653 64.091,181.133 63.943,180.688 
	63.794,180.243 63.571,179.797 63.423,179.352 63.2,178.907 63.052,178.534 62.829,178.088 62.532,177.717 62.309,177.272 
	62.086,176.827 61.789,176.456 61.492,176.084 60.898,175.267 60.229,174.524 59.635,173.782 58.967,173.04 58.298,172.295 
	57.63,171.627 56.442,170.514 55.253,169.325 53.991,168.286 52.729,167.172 51.392,166.131 49.981,165.167 48.644,164.202 
	47.233,163.235 44.411,161.23 41.589,159.374 40.178,158.409 38.767,157.443 37.43,156.478 36.093,155.438 34.682,154.473 
	33.419,153.433 32.157,152.394 30.969,151.354 29.78,150.239 28.592,149.125 27.553,147.938 26.513,146.674 25.547,145.413 
	24.582,144.075 23.765,142.665 23.022,141.252 22.354,139.768 21.76,138.208 21.314,136.575 20.869,134.94 21.017,134.495 
	21.091,134.049 21.314,133.678 21.463,133.232 21.686,132.861 21.908,132.564 22.131,132.192 22.428,131.896 22.651,131.599 
	23.022,131.301 23.319,131.079 23.691,130.782 23.988,130.559 24.359,130.336 24.73,130.114 25.102,129.965 25.473,129.743 
	25.844,129.594 26.29,129.445 26.736,129.223 27.479,128.924 28.37,128.627 30.003,128.108 31.563,127.515 31.34,127.885 
	31.489,127.885 31.637,127.885 31.786,127.812 31.86,127.812 32.008,127.663 32.083,127.515 32.157,127.366 32.231,127.292 
	32.677,125.657 32.528,124.396 32.306,123.133 32.008,121.87 31.637,120.682 31.34,119.493 30.895,118.306 30.449,117.118 
	30.003,116.002 29.483,114.814 28.963,113.7 28.37,112.587 27.775,111.473 27.181,110.433 26.513,109.319 25.919,108.279 
	25.25,107.165 24.582,106.126 23.839,105.086 23.171,104.046 22.428,103.007 21.017,100.853 19.606,98.773 18.863,97.733 
	18.121,96.694 17.453,95.58 16.784,94.54 16.042,93.501 15.447,92.387 14.779,91.347 14.11,90.232 12.997,88.302 11.882,86.297 
	11.289,85.331 10.694,84.366 10.472,83.846 10.249,83.326 9.952,82.807 9.729,82.286 9.506,81.767 9.283,81.247 9.061,80.727 
	8.912,80.207 8.689,79.688 8.541,79.093 8.466,78.573 8.318,78.054 8.244,77.533 8.169,76.939 8.169,76.419 8.169,75.899 
	8.169,75.306 8.244,74.711 8.244,74.117 8.392,73.598 8.392,73.374 8.392,73.226 8.318,73.077 8.244,72.929 8.095,72.78 
	7.946,72.706 7.798,72.632 7.649,72.558 7.427,72.558 7.278,72.558 7.129,72.632 6.981,72.706 6.833,72.854 6.758,72.929 
	6.684,73.077 6.61,73.077 6.61,73.226 6.61,73.3 6.535,73.598 6.461,73.969 6.461,74.34 6.387,74.637 6.313,75.009 6.313,75.38 
	6.313,75.751 6.313,76.048 6.313,76.419 6.387,76.717 6.387,77.088 6.461,77.459 6.535,77.83 6.535,78.128 6.684,78.425 
	6.758,78.796 7.204,80.43 7.798,82.063 8.392,83.549 9.061,85.108 9.803,86.668 10.62,88.079 11.437,89.564 12.254,91.05 
	13.145,92.461 14.11,93.872 15.001,95.283 15.967,96.62 17.898,99.441 19.903,102.189 20.794,103.601 21.76,105.012 22.725,106.349 
	23.616,107.76 24.508,109.171 25.325,110.582 26.142,112.067 26.884,113.551 27.553,114.963 28.221,116.522 28.815,118.083 
	29.335,119.642 29.706,121.202 30.078,122.834 30.375,124.543 30.598,126.178 29.706,126.4 28.815,126.624 27.924,126.846 
	26.958,127.068 26.513,127.217 26.142,127.439 25.622,127.588 25.25,127.737 24.73,127.959 24.359,128.183 23.914,128.331 
	23.542,128.627 23.171,128.851 22.799,129.073 22.428,129.372 22.057,129.594 21.686,129.965 21.389,130.262 21.091,130.633 
	20.794,130.931 20.572,131.301 20.349,131.672 20.126,132.118 19.903,132.564 19.755,132.936 19.606,133.456 19.458,133.901 
	19.383,134.42 19.383,134.792 19.309,135.088 19.309,135.385 19.309,135.758 19.309,136.055 19.309,136.426 19.309,136.797 
	19.309,137.094 19.383,137.465 19.458,137.763 19.532,138.06 19.606,138.432 19.755,139.025 19.903,139.693 20.2,140.288 
	20.423,140.956 20.72,141.625 21.017,142.219 21.314,142.813 21.686,143.333 22.057,143.926 22.428,144.521 23.319,145.635 
	24.136,146.749 25.027,147.79 25.993,148.829 26.884,149.793 27.85,150.758 28.889,151.725 29.929,152.616 30.895,153.506 
	31.934,154.325 33.048,155.215 34.088,156.106 35.202,156.922 36.316,157.741 37.43,158.558 38.544,159.299 40.772,160.934 
	43.074,162.493 45.376,164.127 47.604,165.76 48.718,166.579 49.907,167.469 51.021,168.36 52.134,169.176 53.249,170.143 
	54.288,171.108 55.328,171.999 56.368,173.04 57.036,173.559 57.63,174.228 58.224,174.896 58.818,175.489 59.413,176.159 
	59.932,176.827 60.155,177.198 60.378,177.569 60.601,177.94 60.898,178.312 61.046,178.684 61.269,179.055 61.492,179.426 
	61.641,179.797 61.863,180.168 62.012,180.54 62.16,180.985 62.234,181.356 62.383,181.801 62.458,182.174 62.606,182.62 
	62.606,183.064 62.68,183.51 62.754,183.881 62.754,184.327 62.754,184.848 62.012,185.813 61.492,186.036 61.343,186.184 
	61.121,186.333 60.898,186.407 60.675,186.556 60.452,186.704 60.304,186.778 60.007,186.853 59.858,186.926 59.264,187 
	58.67,187.149 58.15,187.297 57.556,187.372 56.368,187.521 55.105,187.668 53.991,187.817 52.803,187.965 52.134,188.042 
	51.541,188.116 50.946,188.264 50.426,188.338 49.832,188.486 49.313,188.635 48.718,188.857 48.198,189.006 47.679,189.229 
	47.159,189.452 46.639,189.749 46.119,190.045 45.673,190.342 45.228,190.64 44.782,191.084 44.411,191.458 43.965,191.902 
	43.594,192.422 43.297,192.942 42.925,193.536 42.703,193.981 42.628,194.354 42.406,194.799 42.332,195.245 42.183,195.69 
	42.108,196.135 42.108,196.581 42.034,196.952 42.034,197.398 42.034,197.844 42.034,198.29 42.108,198.734 42.183,199.181 
	42.257,199.625 42.406,200.071 42.48,200.443 42.628,200.889 42.777,201.334 42.925,201.78 43.074,202.226 43.223,202.597 
	43.445,203.042 43.668,203.413 43.891,203.859 44.336,204.602 44.782,205.418 45.228,206.161 45.748,206.904 45.748,206.904 
	45.822,206.979 45.896,206.979 46.045,206.979 46.268,206.904 46.564,206.904 46.862,206.831 47.233,206.682 47.53,206.607 
	47.901,206.534 47.976,206.534 47.976,206.458 48.05,206.383 48.124,206.31 48.198,206.161 48.198,205.938 48.198,205.79 
	48.198,205.642 48.124,205.418 "/>
<polygon fill="#71624E" points="107.611,182.545 108.354,182.991 109.096,183.288 109.765,183.733 110.433,184.104 111.844,184.922 
	113.181,185.739 115.929,187.446 118.676,189.154 119.345,189.601 120.014,189.972 120.756,190.342 121.424,190.713 
	122.093,191.084 122.836,191.458 123.504,191.754 124.246,192.125 124.989,192.422 125.731,192.719 126.475,193.017 
	127.217,193.239 128.034,193.461 128.776,193.685 129.594,193.907 130.41,194.056 131.228,194.129 131.971,194.279 132.861,194.279 
	133.604,194.279 134.421,194.279 135.164,194.206 135.98,194.056 136.797,193.907 137.466,193.758 138.209,193.61 139.025,193.313 
	139.693,193.09 140.436,192.793 141.179,192.497 141.922,192.125 142.59,191.754 143.258,191.383 144.001,190.937 144.596,190.491 
	145.264,190.045 145.932,189.526 146.525,189.081 147.194,188.486 147.789,187.965 148.383,187.446 148.902,186.853 
	149.496,186.258 150.017,185.665 150.462,185.07 150.982,184.476 151.428,183.808 151.947,183.213 152.318,182.62 152.689,182.025 
	153.062,181.356 153.358,180.763 153.73,180.168 153.953,179.5 154.176,178.907 154.398,178.237 154.621,177.569 154.77,176.9 
	154.918,176.232 154.992,175.489 155.141,174.821 155.215,174.079 155.215,173.336 155.215,172.594 155.215,171.627 
	155.141,170.663 155.066,169.698 155.066,168.731 154.992,167.84 154.844,166.875 154.695,165.909 154.547,165.019 154.473,164.053 
	154.25,163.161 154.102,162.271 153.953,161.379 153.73,160.489 153.507,159.522 153.21,158.631 152.987,157.814 152.764,156.922 
	152.467,156.032 152.17,155.141 151.873,154.325 151.576,153.433 151.205,152.542 150.908,151.725 150.536,150.834 150.165,150.017 
	149.794,149.2 149.422,148.309 149.051,147.491 148.605,146.674 148.16,145.784 147.789,144.967 147.343,144.149 147.12,143.778 
	146.972,143.481 146.749,143.185 146.525,142.813 146.08,142.219 145.561,141.625 144.521,140.51 143.556,139.471 143.035,138.877 
	142.516,138.356 142.293,138.06 142.07,137.688 141.848,137.465 141.625,137.168 141.402,136.797 141.179,136.5 141.03,136.204 
	140.808,135.833 140.659,135.536 140.51,135.163 140.361,134.792 140.287,134.42 140.213,134.272 140.213,134.049 140.139,133.827 
	140.213,133.604 140.213,133.381 140.287,133.159 140.436,133.01 140.51,132.788 140.51,132.639 140.436,132.491 140.361,132.268 
	140.287,132.192 140.139,132.043 140.064,131.969 139.842,131.896 139.693,131.821 139.545,131.821 139.471,131.821 
	139.396,131.821 139.322,131.821 139.174,131.896 139.025,132.043 138.951,132.043 138.877,132.118 138.877,132.192 
	138.803,132.268 138.803,132.342 138.729,132.417 138.729,132.491 138.729,132.639 138.58,132.936 138.506,133.232 138.432,133.529 
	138.357,133.827 138.432,134.198 138.432,134.495 138.432,134.792 138.506,135.088 138.58,135.385 138.654,135.684 138.803,135.98 
	138.951,136.277 139.1,136.575 139.248,136.797 139.471,137.021 139.619,137.243 140.51,138.208 141.328,139.1 142.07,140.065 
	142.813,141.03 143.556,141.997 144.298,143.036 144.967,144 145.635,145.042 146.229,146.081 146.823,147.045 147.343,148.161 
	147.938,149.2 148.457,150.313 148.902,151.354 149.422,152.542 149.794,153.581 150.239,154.695 150.61,155.883 150.982,156.999 
	151.279,158.186 151.576,159.374 151.873,160.489 152.17,161.676 152.393,162.938 152.541,164.127 152.764,165.315 152.913,166.579 
	153.062,167.767 153.136,169.028 153.21,170.292 153.284,171.554 153.284,172.816 153.284,173.931 153.136,174.969 152.987,176.084 
	152.838,177.124 152.541,178.163 152.17,179.129 151.799,180.094 151.354,181.06 150.834,181.952 150.313,182.917 149.72,183.733 
	149.051,184.549 148.383,185.368 147.715,186.184 146.972,186.926 146.154,187.594 145.338,188.264 144.446,188.857 143.63,189.377 
	142.738,189.897 141.773,190.417 140.808,190.862 139.842,191.234 138.877,191.532 137.911,191.829 136.871,192.051 135.832,192.2 
	134.792,192.273 133.752,192.348 132.713,192.348 131.673,192.273 130.633,192.125 129.816,191.977 129.074,191.829 
	128.331,191.605 127.588,191.458 126.846,191.161 126.104,190.937 125.36,190.64 124.691,190.342 123.949,190.045 123.281,189.749 
	122.612,189.377 121.944,189.006 121.275,188.635 120.533,188.264 119.939,187.892 119.271,187.446 116.597,185.813 
	113.998,184.104 112.661,183.288 111.25,182.545 110.582,182.174 109.839,181.728 109.17,181.431 108.428,181.06 107.462,180.614 
	106.422,180.094 105.903,179.945 105.309,179.648 104.714,179.5 104.121,179.277 103.601,179.055 102.932,178.833 102.338,178.684 
	101.744,178.534 101.15,178.385 100.556,178.237 99.961,178.163 99.367,178.088 98.773,178.015 98.179,178.015 97.585,177.94 
	96.991,178.015 96.397,178.015 95.877,178.163 95.357,178.237 94.837,178.459 94.317,178.608 93.872,178.833 93.352,179.129 
	92.906,179.5 92.535,179.872 92.089,180.243 91.792,180.688 91.421,181.208 91.421,181.653 91.421,182.1 91.421,182.471 
	91.495,182.917 91.495,183.733 91.718,184.624 91.792,185.516 91.941,186.333 92.089,187.224 92.164,188.116 92.164,188.486 
	92.164,188.857 92.164,189.303 92.164,189.749 92.089,190.12 92.015,190.491 92.015,190.937 91.867,191.309 91.718,191.68 
	91.569,192.051 91.347,192.422 91.124,192.793 90.901,193.09 90.604,193.461 90.233,193.758 89.861,194.129 89.342,194.428 
	88.822,194.799 88.302,195.096 87.782,195.393 87.262,195.616 86.668,195.765 86.148,195.913 85.554,196.062 85.034,196.135 
	84.44,196.209 83.846,196.209 83.252,196.284 82.658,196.209 82.063,196.135 81.543,196.062 80.95,195.987 80.355,195.838 
	79.761,195.765 79.167,195.542 78.647,195.393 78.053,195.17 77.533,194.948 76.939,194.65 76.345,194.428 75.825,194.129 
	75.305,193.907 74.786,193.536 74.266,193.239 73.746,192.942 73.226,192.57 72.78,192.273 72.26,191.902 71.295,191.458 
	71.146,191.458 70.998,191.383 70.85,191.383 70.701,191.458 70.552,191.458 70.478,191.532 70.33,191.68 70.255,191.829 
	69.587,193.09 69.587,194.129 69.587,195.17 69.587,196.209 69.513,197.249 69.364,198.215 69.215,199.254 68.993,200.293 
	68.77,201.26 68.473,202.226 68.176,203.19 67.805,204.157 67.433,205.047 66.987,206.013 66.542,206.904 66.022,207.795 
	65.502,208.612 64.908,209.429 64.314,210.247 63.72,210.988 63.052,211.806 62.309,212.547 61.641,213.217 60.824,213.885 
	60.081,214.554 59.264,215.147 58.447,215.741 57.556,216.262 56.665,216.782 55.773,217.227 54.808,217.747 53.843,218.118 
	52.877,218.489 52.803,218.563 52.729,218.563 52.654,218.638 52.58,218.711 52.506,218.86 52.432,219.008 52.432,219.159 
	52.432,219.307 52.432,219.381 52.432,219.529 52.506,219.604 52.506,219.678 52.506,219.752 52.58,219.827 52.654,219.9 
	52.729,219.975 52.877,220.049 53.025,220.124 53.174,220.124 53.397,220.124 53.545,220.124 53.694,220.049 54.734,219.678 
	55.625,219.232 56.59,218.786 57.556,218.34 58.447,217.821 59.338,217.301 60.155,216.708 60.972,216.113 61.789,215.444 
	62.606,214.776 63.349,214.034 64.091,213.292 64.76,212.547 65.428,211.806 66.022,210.988 66.616,210.172 67.21,209.354 
	67.73,208.463 68.25,207.573 68.77,206.607 69.141,205.715 69.587,204.75 69.884,203.786 70.255,202.819 70.478,201.854 
	70.701,200.814 70.924,199.774 71.072,198.734 71.221,197.695 71.221,196.655 71.295,195.616 71.221,194.577 71.518,193.61 
	71.815,193.907 72.409,194.206 72.929,194.577 73.523,194.948 74.043,195.245 74.637,195.542 75.231,195.838 75.825,196.135 
	76.494,196.433 77.088,196.655 77.756,196.877 78.35,197.101 78.944,197.323 79.613,197.473 80.281,197.622 80.95,197.77 
	81.543,197.844 82.212,197.918 82.88,197.993 83.475,197.993 84.143,197.993 84.812,197.918 85.405,197.918 86.074,197.77 
	86.668,197.622 87.262,197.473 87.856,197.249 88.524,197.026 89.119,196.729 89.713,196.433 90.233,196.062 90.752,195.69 
	91.347,195.245 91.718,194.874 92.015,194.577 92.312,194.206 92.535,193.833 92.832,193.536 92.98,193.165 93.203,192.793 
	93.352,192.422 93.5,191.977 93.649,191.605 93.723,191.161 93.797,190.788 93.797,190.342 93.872,189.972 93.946,189.526 
	93.946,189.081 93.946,188.635 93.946,188.264 93.872,187.817 93.872,187.372 93.723,186.481 93.649,185.59 93.352,183.881 
	93.055,182.1 93.055,181.877 93.055,181.728 93.129,181.504 93.203,181.282 93.277,181.133 93.352,180.985 93.426,180.911 
	93.5,180.836 93.5,180.763 93.649,180.763 94.095,180.614 94.54,180.392 94.986,180.243 95.431,180.168 95.877,180.02 
	96.322,179.945 96.768,179.872 97.214,179.872 97.659,179.797 98.105,179.797 98.625,179.797 98.996,179.797 99.516,179.872 
	99.887,179.945 100.407,180.02 100.778,180.094 101.224,180.168 101.669,180.243 102.115,180.392 102.561,180.54 103.006,180.614 
	103.452,180.763 103.823,180.911 104.269,181.133 105.16,181.431 105.977,181.801 106.794,182.174 "/>
<path fill="#DDCA65" d="M162.345,49.832l2.821,1.634l-0.521,2.229c13.071,10.694,25.324,26.81,27.256,36.984v0.668v0.892v0.445
	l-0.297,2.005l-0.297,1.857l-0.446,1.931l-0.444,1.856l-0.596,1.782l-0.668,1.856l-0.668,1.708l-0.816,1.782l-0.817,1.635
	l-0.891,1.708l-0.965,1.634l-1.04,1.561l-1.04,1.633l-1.113,1.486l-1.188,1.484l-1.188,1.411l-1.263,1.411l-1.264,1.41l-1.336,1.336
	l-1.338,1.264l-1.336,1.264l-1.411,1.188l-1.411,1.188l-1.41,1.188l-1.485,1.041l-1.411,1.039l-1.485,1.039l-1.484,0.967
	l-1.485,0.891l-1.485,0.893l-1.484,0.816l-1.41,0.742l-2.08,1.04l-2.08,0.965l-2.153,0.892l-2.228,0.816l-2.229,0.743l-2.303,0.668
	l-2.302,0.669l-2.377,0.594l-2.377,0.52l-2.45,0.373l-2.451,0.371l-2.523,0.297l-2.601,0.223l-2.524,0.225l-2.674,0.074h-2.674
	h-2.748l-2.673-0.074l-2.821-0.149l-2.822-0.298l-2.896-0.297l-2.896-0.371l-2.971-0.445l-2.972-0.445l-3.045-0.52l-3.045-0.669
	l-3.119-0.742l-3.119-0.743l-3.192-0.816l-3.193-0.892l-3.268-0.965l-3.269-1.04l-7.13-2.451l-6.609-2.673l-6.09-2.748l-5.719-2.971
	l-5.124-3.046l-4.753-3.192l-4.382-3.269l-3.862-3.342l-3.564-3.416l-3.193-3.491l-2.748-3.416l-2.525-3.49l-2.228-3.49
	l-1.857-3.417l-1.634-3.416L8.021,86.52l-1.113-3.268l-0.966-3.193L5.274,76.94L4.68,73.969l-0.371-2.822L4.01,68.473
	c0.074-14.556,4.01-23.616,13.071-31.859l1.56-1.263l1.634-1.188l1.783-1.188c8.615-3.639,17.602-5.198,27.775-8.614l2.153-0.074
	h2.451l2.674,0.074l2.896,0.223l3.119,0.223l3.342,0.371l3.49,0.446l3.639,0.445l3.788,0.52l3.862,0.669l4.084,0.668l4.085,0.669
	l4.159,0.816l4.232,0.817l4.233,0.891l4.307,0.892l4.233,0.965l4.232,1.04l4.233,1.04l4.159,1.039l4.084,1.114l4.011,1.114
	l3.862,1.04l3.787,1.188l3.563,1.114l3.416,1.188l3.342,1.114l3.045,1.188l2.822,1.188l2.674,1.188l2.377,1.114L162.345,49.832z"/>
<path fill="#E8E0A2" d="M50.055,24.211c-10.546,2.896-15.299,3.787-29.483,10.174l-2.079,2.6l-1.264,1.188l-1.113,1.188l-1.04,1.188
	c-3.046,3.862-6.091,7.946-6.981,12.923L8.02,54.214l-0.074,0.817l-0.147,0.891l1.337-1.485c3.342-3.564,7.129-6.609,11.288-9.135
	l1.188-0.668l1.04-0.52l1.114-0.521l1.04-0.445l1.04-0.371l0.966-0.372l0.965-0.223l0.892-0.297l0.891-0.148l0.743-0.223
	l0.817-0.148l0.668-0.074l0.668-0.074l0.594-0.074h0.52l0.446-0.074h0.371h0.372h0.446l0.147,0.074l13.962,38.172l-0.743,0.446
	l-0.742,0.52l-0.743,0.52l-0.668,0.595l-0.743,0.594l-0.817,0.668L44.114,83.4l-0.742,0.742l-0.743,0.817l-0.668,0.816l-0.743,0.892
	l-0.743,0.817l-0.743,0.891l-0.668,0.966l-0.816,0.965l-0.668,0.966l-0.743,0.966l-0.668,1.039l-0.668,1.04l-0.668,1.04
	l-0.668,1.039l-0.668,1.04l-0.668,1.114l-0.668,1.039l-0.595,1.04l-0.668,1.04l-0.594,1.039l-0.594,1.04l-1.114,2.08l-1.04,2.005
	l0.668,0.742l0.743,0.669l0.668,0.742l0.817,0.669l0.742,0.668l0.743,0.669l0.817,0.742l0.816,0.668l0.817,0.669l0.892,0.668
	l0.817,0.67l0.891,0.668l0.892,0.668l0.965,0.668l0.891,0.668l0.967,0.67l0.297-0.967l0.372-1.039l0.444-1.113l0.595-1.114
	l0.52-1.188l0.668-1.188l0.743-1.263l0.668-1.188l0.817-1.263l0.816-1.263l0.817-1.262l0.891-1.263l0.893-1.188l0.891-1.263
	L51.024,101l0.892-1.262l0.891-1.114l0.891-1.114l0.817-1.114l0.817-1.039l1.56-1.932l1.411-1.634l2.005-2.45l0.743-0.817
	l1.485-1.931l1.56-1.708l1.634-1.485l1.708-1.411l1.857-1.263l1.931-1.039l1.856-0.892l2.005-0.742l2.005-0.595l2.079-0.445
	l2.08-0.297l2.153-0.148h2.079l2.08,0.223l2.08,0.297l2.079,0.445l2.005,0.595l2.005,0.816l1.932,0.892l1.856,1.039l1.856,1.188
	l1.708,1.337l1.56,1.485l1.561,1.56l1.411,1.708l1.337,1.931l1.188,2.006l1.04,2.153l0.891,2.303l0.817,2.45l0.594,2.525
	l0.371,2.673l0.224,1.709l0.147,1.708l0.224,1.634l0.073,1.634l0.074,1.56l0.074,1.485l0.074,1.56l0.073,1.485v1.41v1.41v1.412
	v1.336l-0.073,1.338l-0.074,1.188l-0.074,1.264l-0.074,1.188l-0.147,1.188l-0.074,1.188l-0.148,1.04l-0.148,1.039l-0.148,1.039
	l-0.147,1.041l-0.148,0.965l-0.148,0.892l-0.148,0.892l-0.223,0.892l-0.148,0.817l-0.147,0.815l-0.372,1.411l-0.371,1.337
	l1.56,0.074l1.485,0.073l1.56,0.074h1.485h1.485h1.56l1.485-0.074l1.41-0.073l1.485-0.074l1.411-0.073l1.411-0.148l1.411-0.148
	l1.41-0.148l1.338-0.223l1.409-0.224l1.339-0.224l1.336-0.297l1.337-0.297l1.337-0.297l1.262-0.298l1.338-0.371l1.263-0.37
	l1.264-0.371l1.262-0.447l1.188-0.444l1.263-0.444l1.188-0.521l1.188-0.445l1.188-0.594l1.188-0.521l1.115-0.52l1.113-0.594
	l0.668-0.373l0.669-0.371l0.669-0.37l0.668-0.445l0.742-0.372l0.742-0.445l0.669-0.52l0.742-0.445l0.742-0.521l0.742-0.521
	l0.816-0.52l0.743-0.596l0.816-0.52l0.743-0.595l0.742-0.668l0.816-0.595l0.816-0.594l0.742-0.668l0.817-0.744l0.742-0.668
	l0.816-0.742l0.742-0.742l0.816-0.743l0.743-0.742l0.742-0.817l0.741-0.815l0.818-0.817l0.668-0.816l0.742-0.891l0.668-0.892
	l0.743-0.892l0.669-0.893l-0.372-0.668l-0.445-0.668l-0.371-0.669l-0.445-0.742l-0.521-0.669l-0.445-0.742l-0.52-0.669l-0.595-0.816
	l-0.596-0.743l-0.594-0.742l-0.594-0.742l-0.668-0.817l-0.669-0.743l-0.743-0.816l-0.668-0.743l-0.816-0.816l-0.816-0.817
	l-0.817-0.816l-0.891-0.743l-0.892-0.816l-0.966-0.817l-0.966-0.816l-0.965-0.743l-1.04-0.816l-1.04-0.817l-1.188-0.742
	l-1.113-0.817l-1.188-0.816l-1.188-0.743l-1.264-0.742l-1.262-0.743l-1.412-0.816l-2.078-1.263l-1.709-1.263l-1.56-1.337
	l-1.264-1.411l-1.038-1.411l-0.817-1.41l-0.594-1.485l-0.372-1.411l-0.224-1.485l-0.073-1.485l0.147-1.485l0.297-1.485l0.446-1.485
	l0.52-1.485l0.67-1.411l0.741-1.485l0.816-1.411l0.967-1.337l0.965-1.337l1.039-1.262l1.041-1.263l1.113-1.263l1.039-1.114
	l1.115-1.113l1.112-1.04l0.967-0.966l1.039-0.891l0.966-0.817l0.815-0.668l0.817-0.669l0.669-0.521l0.594-0.52h-0.074l-0.073-0.074
	h-0.074l-0.074-0.074l-0.074-0.075l-0.074-0.074h-0.073l-0.074-0.074l-2.08-1.113l-2.303-1.188l-2.6-1.188l-2.821-1.188
	l-3.044-1.188l-3.194-1.188l-3.416-1.114l-3.565-1.114l-3.713-1.188l-3.787-1.114l-3.936-1.188l-4.011-1.04l-4.085-1.113
	l-4.159-1.04l-4.159-0.966l-4.233-1.039l-4.158-0.892l-4.233-0.891l-4.084-0.817l-4.159-0.816l-4.01-0.743l-3.862-0.668
	l-3.862-0.595l-3.713-0.594l-3.563-0.445l-3.416-0.446l-3.194-0.371l-3.045-0.223l-2.822-0.223l-2.6-0.074h-2.376L50.055,24.211z"/>
<polygon fill="#F1EDB9" points="49.313,79.315 35.351,41.144 35.202,41.069 34.756,41.069 34.385,41.069 34.014,41.069 
	33.568,41.144 33.048,41.144 32.454,41.218 31.786,41.292 31.117,41.366 30.3,41.515 29.558,41.737 28.667,41.886 27.775,42.183 
	26.81,42.405 25.844,42.777 24.805,43.148 23.765,43.594 22.651,44.114 21.611,44.634 20.423,45.302 19.235,45.971 18.046,46.787 
	16.784,47.604 15.596,48.495 14.259,49.535 13.071,50.575 11.734,51.838 10.472,53.1 9.135,54.437 7.798,55.922 7.798,56.813 
	7.724,57.778 7.649,58.818 7.649,59.933 7.649,61.121 7.649,62.383 7.724,63.646 7.798,65.057 7.872,66.468 8.021,67.953 
	8.244,69.438 8.466,70.998 8.763,72.632 9.061,74.34 9.432,75.974 9.952,77.756 10.397,79.464 10.991,81.247 11.585,83.104 
	12.328,84.96 13.145,86.816 13.962,88.673 14.927,90.604 15.967,92.461 17.007,94.392 18.195,96.322 19.532,98.254 20.943,100.185 
	22.428,102.115 23.988,104.046 25.696,105.903 27.553,107.834 28.592,105.829 29.706,103.749 30.3,102.709 30.895,101.67 
	31.563,100.63 32.157,99.59 32.825,98.551 33.494,97.437 34.162,96.396 34.831,95.357 35.499,94.317 36.167,93.277 36.836,92.238 
	37.579,91.272 38.247,90.307 39.064,89.342 39.732,88.376 40.475,87.485 41.217,86.668 41.96,85.776 42.628,84.96 43.371,84.143 
	44.114,83.4 44.856,82.657 45.673,81.989 46.416,81.396 47.084,80.801 47.827,80.281 48.57,79.762 "/>
<path fill="#DFD599" d="M152.764,89.268l1.412,0.816l1.262,0.743l1.264,0.742l1.188,0.743l1.188,0.816l1.113,0.817l1.188,0.742
	l1.04,0.817l1.04,0.816l0.965,0.743l0.966,0.816l0.966,0.817l0.892,0.816l0.891,0.743l0.817,0.816l0.816,0.817l0.816,0.816
	l0.668,0.743l0.743,0.816l0.669,0.743l0.668,0.817l0.594,0.742l0.594,0.742l0.596,0.743l0.595,0.816l0.52,0.669l0.445,0.742
	l0.521,0.669l0.445,0.742l0.371,0.669l0.445,0.668l0.372,0.668l0.444-0.594l0.445-0.594l0.371-0.669l0.445-0.594l0.445-0.668
	l0.371-0.669l0.372-0.668l0.371-0.669l0.371-0.594l0.371-0.743l0.371-0.668l0.371-0.668l0.297-0.669l0.372-0.742l0.297-0.669
	l0.298-0.742l0.297-0.743l0.297-0.742l0.298-0.743l0.223-0.742l0.297-0.743l0.223-0.742l0.224-0.817l0.147-0.742l0.225-0.817
	l0.223-0.742l0.148-0.817l0.147-0.816l0.074-0.817l0.148-0.816l0.074-0.817l0.074-0.816l0.074-0.372V89.49
	c0.147-8.021-10.695-23.69-21.982-35.796l-2.451-1.708l-2.674-1.708l-0.594,0.52l-0.669,0.52l-0.817,0.669l-0.815,0.668
	l-0.965,0.817l-1.04,0.891l-0.967,0.966l-1.112,1.04l-1.115,1.113l-1.039,1.114l-1.113,1.263l-1.041,1.263l-1.039,1.262
	l-0.965,1.337l-0.967,1.337l-0.816,1.411l-0.741,1.485l-0.669,1.411l-0.521,1.485l-0.446,1.485l-0.297,1.485l-0.147,1.485
	l0.073,1.485l0.224,1.485l0.372,1.411l0.594,1.485l0.817,1.41l1.039,1.411l1.263,1.411l1.56,1.337l1.709,1.263L152.764,89.268z"/>
<polygon fill="#E7D574" points="61.046,88.524 60.304,89.342 58.298,91.792 56.888,93.426 55.328,95.357 54.511,96.396 
	53.694,97.511 52.803,98.625 51.912,99.739 51.021,101.001 50.129,102.189 49.238,103.452 48.347,104.641 47.456,105.903 
	46.639,107.165 45.822,108.428 45.005,109.69 44.336,110.879 43.594,112.142 42.925,113.329 42.406,114.518 41.812,115.631 
	41.366,116.747 40.995,117.786 40.698,118.75 41.515,119.271 42.257,119.79 43.074,120.311 43.891,120.831 44.782,121.351 
	45.599,121.87 46.416,122.315 47.307,122.834 48.198,123.355 49.089,123.875 49.981,124.396 50.872,124.84 51.837,125.36 
	52.803,125.806 53.768,126.327 54.734,126.771 55.699,127.217 56.665,127.737 57.705,128.183 58.744,128.627 59.709,129.073 
	60.824,129.52 61.863,129.965 62.977,130.411 64.017,130.856 65.131,131.301 66.319,131.747 67.433,132.118 68.547,132.564 
	69.735,132.936 70.924,133.307 72.112,133.752 73.449,134.198 74.786,134.644 76.122,135.015 77.459,135.461 78.722,135.833 
	80.058,136.204 81.395,136.575 82.732,136.946 83.994,137.317 85.257,137.688 86.594,137.985 87.856,138.282 89.119,138.581 
	90.381,138.877 91.644,139.174 92.906,139.396 94.095,139.693 95.357,139.917 96.62,140.14 97.808,140.362 99.07,140.584 
	100.258,140.808 101.447,140.956 102.635,141.104 103.823,141.252 105.012,141.476 106.2,141.549 107.388,141.7 108.502,141.773 
	109.69,141.922 110.878,141.997 111.993,142.07 112.364,140.733 112.735,139.323 112.884,138.506 113.032,137.688 113.255,136.797 
	113.403,135.907 113.552,135.015 113.701,134.049 113.849,133.01 113.998,131.969 114.146,130.931 114.295,129.891 114.369,128.702 
	114.518,127.515 114.592,126.327 114.666,125.063 114.74,123.875 114.814,122.538 114.814,121.202 114.814,119.79 114.814,118.379 
	114.814,116.969 114.74,115.483 114.666,113.924 114.592,112.438 114.518,110.879 114.443,109.245 114.22,107.611 114.072,105.903 
	113.849,104.194 113.478,101.521 112.884,98.996 112.067,96.546 111.176,94.243 110.136,92.09 108.948,90.084 107.611,88.153 
	106.2,86.445 104.64,84.886 103.081,83.4 101.373,82.063 99.516,80.875 97.659,79.836 95.729,78.944 93.723,78.128 91.718,77.533 
	89.639,77.088 87.559,76.791 85.479,76.568 83.4,76.568 81.247,76.717 79.167,77.014 77.088,77.459 75.083,78.054 73.077,78.796 
	71.221,79.688 69.29,80.727 67.433,81.989 65.725,83.4 64.091,84.886 62.532,86.594 "/>
<polygon fill="#E2C649" points="38.024,36.91 38.396,36.316 38.767,35.796 39.138,35.202 39.509,34.683 39.881,34.162 
	40.252,33.643 40.623,33.197 41.069,32.677 43.371,29.854 45.822,27.182 48.421,24.656 51.095,22.28 53.917,20.052 56.739,17.973 
	59.709,16.041 62.754,14.333 65.874,12.699 69.067,11.288 72.335,10.026 75.603,8.912 78.944,8.021 82.36,7.204 85.777,6.535 
	89.267,6.09 92.684,5.793 96.174,5.645 99.665,5.719 103.155,5.941 106.646,6.313 110.136,6.833 113.626,7.501 117.117,8.392 
	120.459,9.432 123.875,10.694 127.217,12.031 130.484,13.591 133.752,15.299 136.871,17.229 139.99,19.31 143.035,21.537 
	144.596,22.8 146.08,24.063 147.492,25.399 148.977,26.735 150.313,28.146 151.725,29.558 152.987,30.969 154.25,32.454 
	155.438,33.939 156.7,35.499 157.814,37.059 158.928,38.692 159.969,40.326 161.008,41.96 161.973,43.594 162.865,45.302 
	163.83,47.01 164.646,48.719 165.39,50.501 166.133,52.283 166.875,54.14 167.543,55.922 168.063,57.778 168.657,59.636 
	169.178,61.492 169.698,63.349 170.068,65.279 170.365,67.21 170.736,69.142 170.959,71.072 171.182,73.003 171.33,74.935 
	171.405,75.454 171.33,75.825 171.107,76.791 170.959,77.756 170.662,78.722 170.439,79.613 170.143,80.504 169.771,81.47 
	169.475,82.36 169.103,83.252 168.657,84.068 168.211,84.96 167.766,85.852 167.246,86.668 166.727,87.485 166.207,88.302 
	165.612,89.119 165.018,89.861 164.35,90.679 163.756,91.421 163.088,92.164 162.345,92.906 161.602,93.649 160.859,94.392 
	160.043,95.06 159.226,95.729 158.408,96.396 157.592,96.991 156.7,97.659 155.809,98.254 154.844,98.848 153.879,99.441 
	152.913,99.962 151.947,100.556 150.017,101.521 148.012,102.412 145.932,103.229 143.853,103.972 141.699,104.641 139.545,105.234 
	137.316,105.829 135.015,106.274 132.713,106.646 130.41,107.017 127.959,107.313 125.583,107.462 123.133,107.611 120.682,107.611 
	118.156,107.611 115.557,107.536 113.032,107.313 110.507,107.091 107.908,106.794 105.309,106.423 102.709,105.978 100.11,105.457 
	97.437,104.938 94.763,104.269 92.089,103.526 89.49,102.783 86.816,101.893 84.143,101.001 81.469,100.036 78.87,98.922 
	76.122,97.808 73.523,96.694 69.958,94.911 66.542,93.055 63.423,91.198 60.452,89.268 57.779,87.337 55.253,85.331 52.877,83.326 
	50.798,81.321 48.792,79.241 47.084,77.162 45.451,75.083 44.04,73.003 42.703,70.924 41.589,68.919 40.549,66.839 39.658,64.76 
	38.915,62.755 38.247,60.749 37.727,58.818 37.281,56.813 36.984,54.957 36.761,53.1 36.539,51.317 36.464,49.609 36.39,47.901 
	36.39,46.342 36.539,44.782 36.613,43.297 36.836,41.886 36.984,40.623 37.207,39.436 37.43,38.321 37.579,37.578 "/>
<polygon fill="#E7D578" points="118.974,23.319 118.305,17.898 116.895,17.601 114.963,17.155 112.735,16.636 110.433,16.116 
	108.354,15.596 106.571,15.15 105.309,14.928 104.863,14.779 103.378,21.018 102.932,21.166 101.669,21.611 100.778,21.982 
	99.739,22.429 98.476,22.948 97.065,23.542 95.58,24.285 93.946,25.102 92.164,26.067 90.381,27.107 88.45,28.295 86.445,29.558 
	84.366,30.969 82.286,32.454 80.058,34.088 77.905,35.87 75.677,37.727 73.523,39.807 71.295,41.96 69.141,44.263 66.987,46.787 
	64.908,49.313 62.829,52.135 60.824,55.031 58.967,58.076 57.11,61.344 55.477,64.76 53.843,68.324 52.357,72.112 51.021,75.974 
	51.689,76.643 52.283,77.236 52.877,77.83 53.545,78.425 54.14,79.019 54.882,79.613 55.625,80.207 56.293,80.875 57.036,81.396 
	57.779,81.989 58.596,82.583 59.338,83.178 60.155,83.771 61.046,84.366 61.863,84.886 62.754,85.479 64.24,81.47 65.799,77.607 
	67.507,73.895 69.141,70.33 70.924,66.839 72.706,63.646 74.563,60.452 76.419,57.407 78.276,54.511 80.207,51.764 82.063,49.164 
	83.994,46.713 85.925,44.337 87.782,42.183 89.564,40.029 91.347,38.099 93.129,36.316 94.837,34.533 96.471,32.974 98.031,31.563 
	99.516,30.227 100.927,29.038 102.189,27.924 103.378,26.959 104.492,26.142 105.457,25.399 106.348,24.73 107.017,24.285 
	107.982,23.616 108.354,23.394 113.849,23.097 115.186,25.993 116.449,28.89 117.488,31.86 118.453,34.831 119.271,37.876 
	119.939,40.846 120.459,43.891 120.979,46.861 121.275,49.906 121.572,52.877 121.721,55.848 121.795,58.818 121.721,61.715 
	121.721,64.611 121.498,67.434 121.275,70.181 120.979,72.929 120.682,75.528 120.385,78.128 119.939,80.578 119.567,83.029 
	119.048,85.331 118.602,87.56 118.156,89.639 117.637,91.569 117.191,93.501 116.746,95.209 116.3,96.843 115.854,98.328 
	115.409,99.59 115.038,100.778 114.74,101.818 116.374,101.818 118.082,101.818 119.717,101.818 121.35,101.818 122.984,101.744 
	124.543,101.596 126.104,101.521 127.662,101.299 129.223,101.149 130.707,100.853 132.193,100.63 133.678,100.333 135.089,100.036 
	136.5,99.664 137.911,99.293 139.248,98.848 140.659,98.477 141.922,98.03 143.258,97.511 144.446,96.991 145.709,96.471 
	146.897,95.877 148.012,95.357 149.199,94.763 150.313,94.095 151.354,93.426 152.393,92.758 153.433,92.016 154.398,91.272 
	155.363,90.53 156.181,89.713 157.073,88.971 157.073,88.302 156.998,87.411 156.998,86.371 156.85,85.183 156.7,83.771 
	156.552,82.212 156.329,80.504 156.032,78.573 155.734,76.643 155.363,74.563 154.844,72.335 154.324,70.032 153.73,67.73 
	152.987,65.279 152.244,62.755 151.279,60.229 150.313,57.63 149.199,55.105 148.012,52.506 146.6,49.906 145.115,47.308 
	143.556,44.782 141.773,42.257 139.916,39.807 137.911,37.43 135.684,35.054 133.307,32.899 130.781,30.746 128.107,28.667 
	125.286,26.81 122.241,25.027 "/>
<polygon fill="#DFD599" points="101.893,13.962 105.309,14.779 108.354,15.521 111.027,16.116 113.181,16.636 114.963,17.081 
	116.374,17.452 117.488,17.676 118.305,17.898 117.934,15.002 116.597,10.991 114.146,10.249 111.547,9.58 109.096,8.986 
	106.497,8.541 103.897,8.169 101.373,7.872 98.848,7.724 96.248,7.649 93.723,7.649 91.124,7.798 88.599,7.946 86.074,8.243 
	83.549,8.615 81.098,9.135 78.573,9.654 76.122,10.323 73.671,11.065 71.295,11.883 68.918,12.848 66.542,13.888 64.314,15.002 
	62.012,16.265 59.784,17.526 57.63,18.938 55.477,20.349 53.397,21.982 51.392,23.616 49.387,25.324 47.53,27.182 45.673,29.112 
	43.891,31.117 42.183,33.197 41.886,33.568 41.589,33.939 41.366,34.311 41.069,34.683 40.772,35.054 40.549,35.425 40.326,35.796 
	40.029,36.167 40.995,35.276 42.034,34.236 43.148,33.271 44.336,32.157 45.599,31.117 46.936,30.003 48.347,28.89 49.832,27.701 
	51.392,26.587 53.025,25.399 54.66,24.285 56.442,23.171 58.224,22.057 60.081,21.018 62.012,19.978 64.017,19.012 66.096,17.973 
	68.176,17.155 70.255,16.265 72.483,15.521 74.711,14.854 77.014,14.185 79.315,13.665 81.692,13.294 84.069,12.922 86.52,12.699 
	88.97,12.625 91.495,12.551 94.021,12.773 96.62,12.996 99.219,13.368 "/>
<polygon fill="#ECE3A6" points="51.021,75.974 52.357,72.112 53.843,68.324 55.477,64.76 57.11,61.344 58.967,58.076 60.824,55.031 
	62.829,52.135 64.908,49.313 66.987,46.787 69.141,44.263 71.295,41.96 73.523,39.807 75.677,37.727 77.905,35.87 80.058,34.088 
	82.286,32.454 84.366,30.969 86.445,29.558 88.45,28.295 90.381,27.107 92.164,26.067 93.946,25.102 95.58,24.285 97.065,23.542 
	98.476,22.948 99.739,22.429 100.778,21.982 101.669,21.611 102.932,21.166 103.378,21.018 104.863,14.779 105.309,14.928 
	106.571,15.15 108.354,15.596 110.433,16.116 112.735,16.636 114.963,17.155 116.895,17.601 118.305,17.898 118.305,17.898 
	117.488,17.676 116.374,17.452 114.963,17.081 113.181,16.636 111.027,16.116 108.354,15.521 105.309,14.779 101.893,13.962 
	99.219,13.368 96.62,12.996 94.021,12.773 91.495,12.551 88.97,12.625 86.52,12.699 84.069,12.922 81.692,13.294 79.315,13.665 
	77.014,14.185 74.711,14.854 72.483,15.521 70.255,16.265 68.176,17.155 66.096,17.973 64.017,19.012 62.012,19.978 60.081,21.018 
	58.224,22.057 56.442,23.171 54.66,24.285 53.025,25.399 51.392,26.587 49.832,27.701 48.347,28.89 46.936,30.003 45.599,31.117 
	44.336,32.157 43.148,33.271 42.034,34.236 40.995,35.276 40.029,36.167 39.955,36.316 39.881,36.465 39.732,36.539 39.658,36.688 
	39.583,36.836 39.509,36.91 39.361,37.059 39.287,37.207 39.138,37.95 38.989,38.767 38.915,39.658 38.767,40.549 38.618,41.44 
	38.544,42.405 38.47,43.445 38.47,44.485 38.396,45.6 38.396,46.713 38.47,47.827 38.47,49.016 38.618,50.204 38.767,51.392 
	38.989,52.654 39.212,53.991 39.509,55.254 39.806,56.591 40.178,57.928 40.623,59.264 41.069,60.601 41.663,62.012 42.257,63.423 
	42.925,64.76 43.668,66.171 44.485,67.582 45.451,68.993 46.342,70.404 47.456,71.815 48.57,73.226 49.758,74.637 "/>
<polygon fill="#D4C883" points="118.305,17.898 118.305,17.898 118.974,23.319 122.241,25.027 125.286,26.81 128.107,28.667 
	130.781,30.746 133.307,32.899 135.684,35.054 137.911,37.43 139.916,39.807 141.773,42.257 143.556,44.782 145.115,47.308 
	146.6,49.906 148.012,52.506 149.199,55.105 150.313,57.63 151.279,60.229 152.244,62.755 152.987,65.279 153.73,67.73 
	154.324,70.032 154.844,72.335 155.363,74.563 155.734,76.643 156.032,78.573 156.329,80.504 156.552,82.212 156.7,83.771 
	156.85,85.183 156.998,86.371 156.998,87.411 157.073,88.302 157.073,88.971 157.518,88.524 157.963,88.153 158.334,87.708 
	158.705,87.263 159.077,86.891 159.448,86.445 159.819,86 160.191,85.554 160.563,85.108 160.859,84.663 161.156,84.143 
	161.527,83.697 161.824,83.252 162.121,82.732 162.419,82.212 162.642,81.767 162.938,81.321 163.162,80.801 163.459,80.281 
	163.682,79.762 163.904,79.241 164.127,78.722 164.275,78.202 164.498,77.682 164.721,77.162 164.869,76.643 165.018,76.122 
	165.092,75.528 165.315,75.009 165.39,74.488 165.538,73.895 165.612,73.374 165.464,71.518 165.241,69.735 165.092,67.953 
	164.795,66.245 164.424,64.463 164.053,62.681 163.682,60.897 163.162,59.189 162.716,57.481 162.121,55.773 161.527,53.991 
	160.859,52.283 160.191,50.649 159.448,48.941 158.705,47.308 157.889,45.674 156.998,44.114 156.106,42.48 155.141,40.921 
	154.176,39.361 153.062,37.802 152.021,36.316 150.908,34.831 149.72,33.346 148.457,31.935 147.269,30.523 145.932,29.187 
	144.596,27.85 143.184,26.513 141.773,25.25 140.287,23.914 138.729,22.726 138.135,22.205 137.466,21.76 136.797,21.24 
	136.129,20.795 135.461,20.274 134.866,19.829 134.197,19.384 133.529,19.012 132.861,18.566 132.193,18.121 131.524,17.676 
	130.781,17.304 129.445,16.562 128.034,15.744 126.623,15.076 125.286,14.407 123.801,13.739 122.39,13.146 120.979,12.551 
	119.493,11.957 118.082,11.437 116.597,10.991 117.934,15.002 "/>
<polygon fill="#D9C663" points="113.849,23.097 108.354,23.394 107.982,23.616 107.017,24.285 106.348,24.73 105.457,25.399 
	104.492,26.142 103.378,26.959 102.189,27.924 100.927,29.038 99.516,30.227 98.031,31.563 96.471,32.974 94.837,34.533 
	93.129,36.316 91.347,38.099 89.564,40.029 87.782,42.183 85.925,44.337 83.994,46.713 82.063,49.164 80.207,51.764 78.276,54.511 
	76.419,57.407 74.563,60.452 72.706,63.646 70.924,66.839 69.141,70.33 67.507,73.895 65.799,77.607 64.24,81.47 62.754,85.479 
	63.943,86.223 65.131,86.965 66.468,87.708 67.73,88.45 69.067,89.119 70.404,89.861 71.815,90.604 73.3,91.272 74.637,91.866 
	75.974,92.461 77.311,93.055 78.647,93.649 80.058,94.169 81.395,94.688 82.732,95.209 84.069,95.654 85.405,96.1 86.742,96.62 
	88.079,97.065 89.416,97.437 90.678,97.808 92.015,98.18 93.352,98.551 94.614,98.848 95.951,99.145 97.214,99.441 98.476,99.739 
	99.813,99.962 101.075,100.185 102.338,100.481 103.601,100.704 104.863,100.853 106.125,101.075 107.388,101.224 108.576,101.373 
	109.839,101.447 111.102,101.596 112.29,101.67 113.552,101.744 114.74,101.818 115.038,100.778 115.409,99.59 115.854,98.328 
	116.3,96.843 116.746,95.209 117.191,93.501 117.637,91.569 118.156,89.639 118.602,87.56 119.048,85.331 119.567,83.029 
	119.939,80.578 120.385,78.128 120.682,75.528 120.979,72.929 121.275,70.181 121.498,67.434 121.721,64.611 121.721,61.715 
	121.795,58.818 121.721,55.848 121.572,52.877 121.275,49.906 120.979,46.861 120.459,43.891 119.939,40.846 119.271,37.876 
	118.453,34.831 117.488,31.86 116.449,28.89 115.186,25.993 "/>
<polygon fill="#CAB653" points="101.893,13.962 101.967,13.591 102.115,13.294 102.264,12.922 102.412,12.625 102.635,12.328 
	102.858,12.031 103.081,11.809 103.378,11.512 103.601,11.288 103.972,11.065 104.269,10.843 104.64,10.694 104.938,10.472 
	105.309,10.323 105.754,10.175 106.125,10.026 106.571,9.952 107.017,9.803 107.388,9.729 107.908,9.654 108.354,9.654 
	108.874,9.58 109.319,9.58 109.839,9.58 110.359,9.654 110.878,9.654 111.398,9.729 111.993,9.803 112.512,9.878 113.032,10.026 
	113.626,10.101 114.146,10.249 114.889,10.472 115.557,10.694 116.226,10.917 116.82,11.214 117.488,11.512 118.082,11.809 
	118.602,12.105 119.122,12.477 119.643,12.848 120.162,13.146 120.607,13.591 120.979,13.962 121.424,14.333 121.721,14.779 
	121.87,15.002 122.019,15.225 122.167,15.447 122.315,15.67 122.464,15.893 122.612,16.116 122.687,16.413 122.761,16.636 
	122.836,16.933 122.91,17.155 122.984,17.452 122.984,17.676 123.059,17.898 123.059,18.195 123.059,18.492 123.059,18.715 
	123.059,19.012 123.059,19.235 122.984,19.532 122.91,19.755 122.761,20.126 122.687,20.423 122.464,20.795 122.315,21.092 
	122.093,21.389 121.944,21.686 121.646,21.908 121.35,22.205 121.127,22.429 120.756,22.651 120.459,22.874 120.162,23.022 
	119.791,23.245 119.419,23.394 119.048,23.542 118.602,23.616 118.23,23.765 117.785,23.914 117.34,23.988 116.82,24.063 
	116.374,24.063 115.929,24.137 115.409,24.137 114.889,24.137 114.369,24.063 113.849,24.063 113.329,23.988 112.81,23.914 
	112.215,23.84 111.695,23.765 111.102,23.616 110.582,23.394 109.839,23.245 109.17,23.022 108.576,22.8 107.908,22.503 
	107.314,22.205 106.72,21.908 106.125,21.611 105.605,21.24 105.086,20.869 104.64,20.571 104.195,20.126 103.749,19.755 
	103.601,19.532 103.378,19.31 103.229,19.16 103.006,18.938 102.858,18.715 102.709,18.492 102.561,18.27 102.412,18.121 
	102.338,17.824 102.189,17.601 102.041,17.304 101.967,17.081 101.893,16.784 101.818,16.562 101.744,16.265 101.744,16.041 
	101.669,15.744 101.669,15.521 101.669,15.225 101.669,14.928 101.744,14.705 101.744,14.481 101.818,14.185 "/>
<polygon fill="#71624E" points="45.822,203.563 46.119,203.413 46.49,203.338 46.862,203.265 47.233,203.265 47.53,203.19 
	47.901,203.265 48.272,203.265 48.644,203.338 49.015,203.413 49.387,203.563 49.684,203.711 50.055,203.859 50.426,204.008 
	50.798,204.23 51.169,204.454 51.466,204.75 51.763,205.047 52.134,205.271 52.432,205.642 52.803,205.938 53.1,206.31 
	53.397,206.682 53.694,207.053 53.991,207.499 54.288,207.87 54.585,208.39 54.808,208.834 55.105,209.28 55.328,209.801 
	55.551,210.32 55.773,210.84 55.996,211.36 56.219,212.028 56.442,212.771 56.59,213.439 56.739,214.107 56.888,214.776 
	57.036,215.444 57.11,216.04 57.11,216.708 57.11,217.301 57.11,217.97 57.036,218.489 56.962,219.084 56.888,219.604 
	56.739,220.124 56.665,220.42 56.59,220.644 56.442,220.866 56.368,221.088 56.293,221.385 56.07,221.608 55.996,221.905 
	55.773,222.129 55.625,222.352 55.477,222.5 55.328,222.723 55.105,222.872 54.957,223.094 54.734,223.243 54.511,223.391 
	54.288,223.54 54.065,223.688 53.843,223.763 53.62,223.911 53.397,223.985 53.025,224.133 52.654,224.208 52.283,224.282 
	51.986,224.282 51.615,224.282 51.243,224.282 50.872,224.282 50.575,224.208 50.129,224.06 49.832,223.985 49.461,223.836 
	49.089,223.688 48.718,223.465 48.421,223.316 48.05,223.02 47.679,222.797 47.381,222.575 47.01,222.277 46.713,221.905 
	46.416,221.608 46.045,221.312 45.748,220.866 45.451,220.495 45.153,220.049 44.856,219.678 44.56,219.232 44.336,218.711 
	44.114,218.267 43.817,217.747 43.594,217.227 43.371,216.708 43.148,216.113 42.925,215.519 42.703,214.776 42.554,214.107 
	42.406,213.439 42.257,212.771 42.183,212.103 42.108,211.508 42.034,210.84 42.034,210.247 42.034,209.651 42.108,209.058 
	42.183,208.463 42.257,208.167 42.332,207.944 42.406,207.646 42.406,207.35 42.48,207.127 42.628,206.904 42.703,206.607 
	42.777,206.458 42.925,206.161 43,205.938 43.223,205.642 43.371,205.418 43.52,205.196 43.668,205.047 43.817,204.825 
	44.04,204.676 44.262,204.454 44.411,204.305 44.634,204.157 44.856,204.008 45.079,203.859 45.302,203.711 45.525,203.637 "/>
<polygon fill="#E7D574" points="46.045,215.073 46.193,215.444 46.416,215.815 46.564,216.188 46.713,216.559 46.862,216.855 
	47.01,217.227 47.233,217.524 47.456,217.821 47.604,218.118 47.827,218.415 47.976,218.711 48.198,218.935 48.421,219.159 
	48.644,219.456 48.792,219.604 49.015,219.9 49.238,220.049 49.461,220.271 49.684,220.42 49.907,220.569 50.055,220.717 
	50.278,220.866 50.5,220.94 50.724,221.015 50.946,221.088 51.095,221.163 51.317,221.163 51.541,221.237 51.689,221.237 
	51.912,221.163 52.134,221.163 52.357,221.088 52.432,221.015 52.654,220.94 52.803,220.792 52.951,220.717 53.1,220.569 
	53.249,220.42 53.323,220.198 53.471,220.049 53.545,219.827 53.62,219.604 53.694,219.381 53.768,219.084 53.843,218.86 
	53.917,218.563 53.991,218.34 53.991,218.043 53.991,217.747 53.991,217.45 53.991,217.152 53.991,216.782 53.991,216.484 
	53.917,216.113 53.917,215.815 53.843,215.444 53.768,215.073 53.694,214.702 53.694,214.331 53.545,213.959 53.471,213.588 
	53.323,213.217 53.174,212.846 53.1,212.474 52.951,212.103 52.803,211.731 52.654,211.36 52.432,210.988 52.283,210.691 
	52.134,210.395 51.912,210.023 51.763,209.727 51.541,209.429 51.392,209.131 51.169,208.834 50.946,208.612 50.798,208.39 
	50.575,208.092 50.352,207.87 50.129,207.721 49.981,207.499 49.758,207.275 49.461,207.127 49.313,206.979 49.089,206.831 
	48.867,206.756 48.644,206.607 48.421,206.534 48.198,206.458 48.05,206.383 47.827,206.383 47.604,206.31 47.456,206.383 
	47.233,206.383 47.084,206.383 46.862,206.458 46.713,206.534 46.564,206.607 46.342,206.756 46.268,206.831 46.119,206.979 
	45.97,207.127 45.822,207.35 45.748,207.499 45.599,207.721 45.525,207.944 45.451,208.167 45.376,208.39 45.302,208.687 
	45.228,208.983 45.228,209.206 45.228,209.502 45.153,209.801 45.153,210.098 45.153,210.469 45.153,210.766 45.228,211.063 
	45.228,211.435 45.228,211.731 45.302,212.103 45.376,212.474 45.451,212.846 45.525,213.217 45.599,213.588 45.748,213.959 
	45.822,214.331 45.97,214.702 "/>
<path fill="#DDCA65" d="M114.072,10.175c4.977,1.634,7.5,6.758,6.091,10.917c-4.383,2.376-5.349,3.193-10.323,1.485
	c-4.977-1.708-7.798-5.273-7.724-7.649C103.526,10.769,109.096,8.467,114.072,10.175L114.072,10.175z"/>
<path fill="#FFFFFF" d="M113.032,10.843c0.816,0.297,1.56,0.669,2.228,1.114c-0.297-0.148-0.594-0.223-0.965-0.371
	c-4.233-1.485-8.986,0.594-10.174,4.307c-0.075,1.114,0.594,2.525,1.855,3.862c-2.08-1.485-3.192-3.416-3.192-4.827
	C104.046,11.437,108.799,9.432,113.032,10.843L113.032,10.843z"/>
<path fill="#F2EFCE" d="M100.927,20.423C78.87,19.458,54.511,36.391,51.021,53.1c-0.297,6.388,3.49,14.557,10.77,22.058
	c-11.882-8.615-20.943-22.28-20.572-30.152C55.328,25.324,76.716,13.888,100.927,20.423L100.927,20.423z"/>
<path fill="#CAB653" d="M121.572,26.513c14.187,11.957,24.88,39.584,26.439,53.249c-2.303,5.94-9.061,11.882-18.715,15.893
	c14.333-3.119,31.043-14.333,33.865-21.76C158.111,50.204,146.377,30.227,121.572,26.513L121.572,26.513z"/>
</svg>
