<?xml version="1.0" encoding="utf-8"?>
<!-- Generator: Adobe Illustrator 13.0.0, SVG Export Plug-In . SVG Version: 6.00 Build 14948)  -->
<svg version="1.2" baseProfile="tiny" id="Layer_9" xmlns="http://www.w3.org/2000/svg" xmlns:xlink="http://www.w3.org/1999/xlink"
	 x="0px" y="0px" width="200.924px" height="180.738px" viewBox="0 0 200.924 180.738" xml:space="preserve">
<g>
	<path fill-rule="evenodd" fill="#C1C0BF" d="M101.241,0.053c3,0,38.824-2.192,72.744,21.632c0,0,23.074,14.999,26.939,40.843
		l-1.096,35.305c0,0-2.712,11.307-13.902,22.671c-6.865,6.922-44.131,29.997-45.804,36.688
		c-1.615,6.692-13.268,21.113-25.556,22.787c0,0-12.691,2.076-23.19-0.635c-5.307-1.27-12.807-2.77-24.459-21.633
		c-11.71-18.864-43.323-27.633-50.015-33.055C9.576,118.83,1.789,107.696,0,100.543V62.354c0.058-0.52,0.116-0.981,0.173-1.5
		c0,0,0-31.959,52.553-53.36C52.726,7.494,71.59-0.236,101.241,0.053L101.241,0.053z"/>
	<path fill-rule="evenodd" fill="#949393" d="M134.411,166.307c0,0-6.864,10.729-19.267,13.152c0,0-21.748,3.634-32.593-4.846
		c0,0-5.307-4.27-7.788-7.961L134.411,166.307z"/>
	<path fill-rule="evenodd" fill="#716F6E" d="M82.031,166.825c0,0,1.211,7.788,3,9.346c0,0-6.865-4.385-9.979-9.23
		C71.994,162.152,82.031,166.825,82.031,166.825L82.031,166.825z"/>
	<path fill-rule="evenodd" fill="#716F6E" d="M128.7,166.768c0,0-3.115,8.191-4.903,9.114c-1.615,0.981,8.191-4.614,10.441-9.287
		S128.7,166.768,128.7,166.768L128.7,166.768z"/>
	<path fill-rule="evenodd" fill="#605D5C" d="M20.71,126.329c0,0-17.075-12.403-20.421-27.171v-32.42
		c9.172-1.615,200.231-3.058,200.231-3.058l-1.153,32.939c0,0-3.749,13.096-16.498,25.268
		C170.177,138.501,94.087,178.479,20.71,126.329L20.71,126.329z"/>
	<path fill-rule="evenodd" fill="#A9A8A7" d="M114.105,132.732l1.039,18.345c0,0-24.979,2.826-35.478-0.75l1.211-17.825
		L114.105,132.732z"/>
	<path fill-rule="evenodd" fill="#C1C0BF" d="M107.933,133.252l0.231,18.344c0,0-11.307,1.385-21.575-0.346l0.289-18.229
		L107.933,133.252z"/>
	<path fill-rule="evenodd" fill="#EB3D00" d="M100.087,134.232c55.149,0,100.317-30.344,100.317-67.09
		c0-36.862-45.168-66.34-100.317-66.34c-55.033,0-99.798,29.708-99.798,66.57C0.289,104.234,45.054,134.232,100.087,134.232
		L100.087,134.232z"/>
	<path fill-rule="evenodd" fill="#ED8639" d="M29.767,33.857L19.152,28.78c17.306-16.498,48.342-29.421,81.05-28.036
		c46.035,1.962,83.531,20.825,94.722,47.073L184.08,50.24L29.767,33.857z"/>
	<path fill-rule="evenodd" fill="#F0703B" d="M33.17,32.299l-11.249-5.479C37.67,12.224,67.206-0.467,100.375,0.744
		c45.977,1.615,82.031,20.768,92.992,44.823l-11.711,2.885L33.17,32.299z"/>
	<path fill-rule="evenodd" fill="#A28A37" d="M50.361,24.627L35.824,17.07c8.019-5.135,30.459-16.787,65.071-16.499
		c46.034,0.231,75.166,20.421,84.916,33.689l-16.326,5.48L50.361,24.627z"/>
	<path fill-rule="evenodd" fill="#EB3D00" d="M38.593,15.166c6.461-3.346,27.517-14.595,62.36-14.595
		c46.092,0,73.897,20.306,83.299,31.439l-17.189,5.999L53.765,23.127L38.593,15.166z"/>
	<path fill-rule="evenodd" fill="#B9391A" d="M100.087,125.868c49.669,0,89.819-26.768,89.819-59.938
		c0-33.228-40.15-60.052-89.819-60.052c-49.495,0-89.646,26.824-89.646,60.052C10.441,99.101,50.592,125.868,100.087,125.868
		L100.087,125.868z"/>
	<path fill-rule="evenodd" fill="#A8913E" d="M127.027,16.724l-32.132-2.538l-0.346-8.134c0,0,15.633-1.615,34.728,3.288
		L127.027,16.724z"/>
	<path fill-rule="evenodd" fill="#B59D48" d="M124.546,16.089l-27.401-2.076L97.03,6.109c0,0,11.249-1.5,29.42,2.596L124.546,16.089
		z"/>
	<path fill-rule="evenodd" fill="#F0703B" d="M122.181,7.667l-1.385,7.499l-20.248-1.5l0.173-7.614
		C100.722,6.052,105.221,4.898,122.181,7.667L122.181,7.667z"/>
	<path fill-rule="evenodd" fill="#A9A8A7" d="M100.202,125.175c47.073,0,85.262-25.382,85.262-56.937s-38.189-57.11-85.262-57.11
		c-47.072,0-85.318,25.556-85.318,57.11S53.13,125.175,100.202,125.175L100.202,125.175z"/>
	<path fill-rule="evenodd" fill="#696665" d="M61.84,23.242l-3.577-4.441c0,0-1.269,0.288-3.922,1.558l2.077,4.788L61.84,23.242z"/>
	<path fill-rule="evenodd" fill="#DDDDDC" d="M99.279,81.737c46.208,0,84.685,5.999,84.454-9.922
		c-0.52-30.863-37.497-55.957-83.646-55.957c-45.976,0-82.838,25.094-83.473,55.957C16.383,85.025,53.245,81.737,99.279,81.737
		L99.279,81.737z"/>
	<path fill-rule="evenodd" fill="#D0D0CF" d="M61.148,22.435l1.788,2.365c0,0-4.73,3.288-5.365,2.423
		c-0.808-1.038-1.384-2.941-1.384-2.941S58.783,23.242,61.148,22.435L61.148,22.435z"/>
	<path fill-rule="evenodd" fill="#FFFFFF" d="M55.841,66.796c16.441-38.016,100.952-29.593,88.665,7.615
		C128.873,121.888,43.15,96.102,55.841,66.796L55.841,66.796z"/>
	<path fill-rule="evenodd" fill="#AEADAC" d="M140.18,73.314c0,0-5.25-17.998-24.287-22.324c0,0-22.959-5.77-41.65,3.519
		c0,0-11.018,4.615-13.902,16.383c0,0-1.442-27.862,36.285-27.17C134.18,44.529,141.622,58.201,140.18,73.314L140.18,73.314z"/>
	<polygon fill-rule="evenodd" fill="#AEADAC" points="118.432,47.817 90.511,103.196 85.666,102.446 113.47,46.605 	"/>
	<polygon fill-rule="evenodd" fill="#AEADAC" points="69.052,54.797 134.065,95.352 129.565,96.62 65.763,57.739 	"/>
	<polygon fill-rule="evenodd" fill="#AEADAC" points="54.86,84.448 145.025,67.2 146.237,70.431 56.072,87.621 	"/>
	<polygon fill-rule="evenodd" fill="#4E4B49" points="117.047,44.702 88.896,100.485 83.646,99.793 111.855,44.01 	"/>
	<polygon fill-rule="evenodd" fill="#949393" points="72.282,51.509 134.18,89.986 130.2,92.524 68.244,53.932 	"/>
	<polygon fill-rule="evenodd" fill="#949393" points="54.687,78.853 144.852,61.662 146.006,64.893 55.841,82.083 	"/>
	<path fill-rule="evenodd" fill="#A9A8A7" d="M105.452,64.604l-0.173,7.326c0,0-0.173,2.48-4.384,3.114c0,0-4.615-0.461-4.788-3.634
		v-6.519c0,0-0.115-2.885,4.673-3.173C100.779,61.72,105.105,61.72,105.452,64.604L105.452,64.604z"/>
	<path fill-rule="evenodd" fill="#DDDDDC" d="M100.779,67.893c2.423,0,4.442-1.27,4.442-2.942s-2.019-2.885-4.442-2.885
		c-2.365,0-4.327,1.212-4.327,2.885S98.414,67.893,100.779,67.893L100.779,67.893z"/>
	<path fill-rule="evenodd" fill="#DDDDDC" d="M101.76,104.581c-0.808,0-1.673,0.115-2.539,0.115
		c-28.324,0-51.399-15.287-51.399-34.323c0-19.037,23.075-32.882,51.399-32.882c28.44,0,51.457,13.845,51.457,32.882
		c0,18.401-21.056,33.458-48.746,34.208l-0.346-6.922c20.998-0.52,37.958-12.173,37.958-26.421
		c0-14.711-17.652-25.325-39.516-25.325c-21.748,0-39.516,10.614-39.516,25.325c0,14.595,17.768,26.421,39.516,26.421
		c0.577,0,1.096,0,1.615,0L101.76,104.581z"/>
	<path fill-rule="evenodd" fill="#272420" d="M139.718,72.334l28.208,11.076l-34.266,1.788
		C133.661,85.198,138.333,81.391,139.718,72.334L139.718,72.334z"/>
	<path fill-rule="evenodd" fill="#272420" d="M60.514,72.449l-24.401-12.69l29.824-1.327C65.936,58.432,59.995,62.7,60.514,72.449
		L60.514,72.449z"/>
	
		<line fill="none" stroke="#24211D" stroke-width="0" stroke-linecap="square" stroke-miterlimit="10" x1="82.954" y1="104.523" x2="73.32" y2="122.176"/>
	<path fill-rule="evenodd" fill="#FFFFFF" d="M152.236,77.757l-2.423,4.903l-2.769-0.577l0.058-0.173
		c2.134,0.173,2.827-0.346,3.346-1.5c0.231-0.52,0.231-0.692-0.289-0.75l-3.23-0.692c-0.404,0.865-0.346,1.385,1.327,1.788
		l-0.116,0.289l-4.672-1.038l0.173-0.174c1.73,0.231,2.365-0.115,2.769-0.98l-3.288-0.692c-0.577-0.173-0.865,0-1.154,0.52
		c-0.404,0.865-0.519,1.846,1.327,2.769l-0.173,0.289l-2.711-0.981l2.538-4.961h0.346c-0.173,0.635-0.23,0.924,0.635,1.097
		l6.691,1.384c0.923,0.174,1.096-0.173,1.385-0.519H152.236z"/>
	<path fill-rule="evenodd" fill="#FFFFFF" d="M52.899,59.585c-0.116,0.231,0.173,0.404,0.519,0.692l7.096,2.653l-0.058,0.174
		l-6.519,0.461l0,0l5.365,2.365l-0.058,0.23l-8.365,0.462c-0.692,0-0.865,0.058-1.038,0.404l-0.346-0.058l0.923-2.25l0.346,0.058
		c-0.058,0.288-0.173,0.461,0.289,0.519c0.173,0,0.346,0,0.519,0l4.846-0.173l0,0l-3.461-1.558l-1.269,0.115
		c-0.346,0.058-0.52,0.174-0.693,0.52h-0.288l0.981-2.48h0.346c-0.115,0.346-0.173,0.635,0.231,0.692c0.115,0,0.461,0,0.692,0
		l4.615-0.23l0,0l-3.98-1.5c-0.173-0.058-0.289-0.058-0.519-0.174c-0.519-0.058-0.635,0.174-0.692,0.462h-0.346l0.52-1.385H52.899z"
		/>
	<path fill-rule="evenodd" fill="#24211D" d="M58.033,33.799c0.808-0.288,1.096-0.576,0.519-1.211l-3.865-4.673
		c-1.211-0.52-1.442-0.403-1.557-0.403l-0.289-0.231l2.769-0.808l8.019,2.885l0,0L61.091,26.3c-0.52-0.635-0.923-0.923-1.961-0.635
		l-0.289-0.288l2.769-0.808l0.288,0.288c-0.923,0.404-0.807,0.52-0.403,1.038l4.788,5.885l-0.404,0.115l-10.095-3.577l0,0
		l3.173,3.98c0.519,0.692,0.923,0.808,2.019,0.577l0.231,0.23l-2.884,0.924L58.033,33.799z"/>
	<path fill-rule="evenodd" fill="#24211D" d="M74.936,20.704c-0.404,0.173-0.404,0.577-0.23,0.98l2.134,6.75l-0.404,0.173
		l-5.884-4.038h-0.115l1.442,5.48h-0.403l-7.557-5.077c-0.692-0.403-0.808-0.519-1.5-0.403l-0.115-0.23l3.865-1.212l0.116,0.288
		c-0.404,0.231-0.808,0.231-0.52,0.635c0.115,0.115,0.289,0.289,0.404,0.289l4.5,3.173l0,0l-0.923-3.462l-1.327-0.923
		c-0.231-0.115-0.519-0.115-1.211,0l-0.116-0.288l3.98-1.327l0.289,0.404c-0.519,0.115-0.923,0.288-0.692,0.692
		c0.173,0,0.404,0.23,0.692,0.403l3.98,2.884l0,0l-1.154-3.864c0-0.115-0.173-0.231-0.288-0.347
		c-0.289-0.403-0.808-0.288-1.327-0.173l-0.115-0.23l2.365-0.808L74.936,20.704z"/>
	<path fill-rule="evenodd" fill="#24211D" d="M155.178,40.837c0.693,0.52,0.924,0.808,1.73,0.404l5.77-2.423
		c0.346-0.924,0.23-1.039,0.115-1.327l0.23-0.115l1.904,2.134l-2.25,5.596l0,0l3.691-1.615c0.809-0.403,1.096-0.635,0.404-1.441
		l0.289-0.116l1.846,2.135l-0.289,0.115c-0.75-0.692-1.039-0.519-1.73-0.403l-7.038,3.057l-0.288-0.115l2.826-7.211l0,0l-4.787,2.02
		c-0.924,0.403-0.924,0.635-0.404,1.442l-0.404,0.115l-1.846-2.135L155.178,40.837z"/>
	<path fill-rule="evenodd" fill="#24211D" d="M169.312,44.413l4.788,5.596l-2.365,1.097l-0.289-0.289
		c1.615-0.923,1.212-1.846,0.116-3.057c-0.52-0.52-0.635-0.808-1.153-0.52l-2.828,1.212c0.809,0.923,1.615,1.326,3.174,0.807
		l0.173,0.231l-4.038,1.73l-0.23-0.115c1.441-0.808,1.441-1.442,0.52-2.423l-2.943,1.211c-0.519,0.288-0.519,0.52,0.174,1.212
		c0.75,0.923,1.961,1.73,4.384,1.615l0.116,0.23l-2.77,0.692l-5.076-5.711l0.403-0.173c0.52,0.519,0.808,0.808,1.558,0.519
		l5.769-2.48c0.808-0.403,0.52-0.808,0.116-1.211L169.312,44.413z"/>
	<path fill-rule="evenodd" fill="#24211D" d="M137.814,114.157c0.923,0.808,3.057,1.903,4.5,1.615
		c0.808-0.289,1.211-0.923,0.404-1.615c-0.519-0.808-1.039-0.923-2.653-1.038l-2.654-0.404c-0.52,0-2.134-0.403-3.346-1.903
		c-0.923-1.038-1.442-2.885,0.923-3.692c1.327-0.403,2.308-0.173,2.654-0.288c0.288-0.115,0.173-0.404,0.173-0.635h0.23l2.711,3.058
		l-0.404,0.115c-1.327-1.212-3.346-2.423-4.961-1.846c-1.615,0.519-0.635,1.846-0.52,1.961c0.808,0.98,1.616,0.98,2.77,1.096
		l1.211,0.116c3.23,0.288,4.153,1.326,4.557,2.019c0.807,0.808,1.73,2.538-0.808,3.346c-1.096,0.23-2.02,0-2.423,0.115
		c-0.231,0.115-0.115,0.404-0.115,0.635l-0.289,0.173l-2.365-2.653L137.814,114.157z"/>
	<path fill-rule="evenodd" fill="#24211D" d="M138.449,117.1l-7.557,2.538l-2.307-2.538l0.404-0.116
		c1.903,1.731,3.057,1.731,4.788,1.039c0.808-0.231,0.98-0.404,0.577-0.923l-2.538-2.77c-1.327,0.347-1.73,1.038-0.519,2.48
		l-0.404,0.173l-3.634-4.153l0.404-0.115c1.5,1.442,2.423,1.615,3.75,1.211l-2.538-3.114c-0.52-0.52-0.923-0.635-1.731-0.347
		c-1.327,0.52-2.423,1.154-1.615,3.461l-0.403,0.116l-1.731-2.827l7.73-2.48l0.404,0.23c-0.808,0.404-1.038,0.52-0.519,1.327
		l5.307,5.999c0.692,0.809,1.211,0.692,1.904,0.52L138.449,117.1z"/>
	<path fill-rule="evenodd" fill="#24211D" d="M38.766,100.14c-0.98,0.634-2.308,2.134-1.211,3.173
		c0.404,0.576,1.327,0.691,2.365,0.288c0.808-0.52,1.096-0.808,0.981-1.847l-0.173-2.019c0-0.404,0.289-1.615,1.904-2.423
		c1.442-0.808,3.98-1.038,5.596,0.692c0.75,0.808,0.634,1.442,0.923,1.73c0.116,0.289,0.519,0.115,0.808,0l0.231,0.289l-3.865,1.961
		l-0.404-0.231c1.5-1.096,2.827-2.423,1.615-3.634c-0.923-1.038-2.654-0.403-2.769-0.23c-1.096,0.519-1.096,1.153-0.98,1.961v0.808
		c0.289,2.25-1.154,2.942-1.846,3.346c-0.923,0.404-3.346,1.327-4.903-0.519c-0.808-0.692-0.692-1.385-0.808-1.615
		c-0.289-0.289-0.577-0.116-0.923-0.116l-0.289-0.288l3.461-1.615L38.766,100.14z"/>
	<path fill-rule="evenodd" fill="#24211D" d="M26.479,91.602c0.289,0.288,0.808,0.288,1.615,0.115l11.191-2.884l0.23,0.23
		l-5.826,5.191l0,0l8.941-1.961l0.231,0.115l-7.557,6.807c-0.692,0.52-0.692,0.635-0.577,1.154l-0.23,0.173l-2.711-2.653
		l0.404-0.288c0.404,0.403,0.692,0.519,1.384,0.288c0.116,0,0.231-0.173,0.346-0.288l4.673-3.98l0,0l-5.827,1.326l-1.211,1.038
		c-0.288,0.404-0.288,0.52,0,0.923l-0.404,0.289l-2.653-2.77l0.404-0.288c0.404,0.288,0.635,0.635,1.153,0.288
		c0.289,0,0.577-0.288,0.808-0.576l4.442-3.576h-0.173l-6.23,1.729c-0.289,0-0.404,0-0.808,0.289
		c-0.692,0.23-0.289,0.52-0.173,0.923l-0.23,0.115l-1.615-1.615L26.479,91.602z"/>
	
		<line fill="none" stroke="#24211D" stroke-width="0" stroke-linecap="square" stroke-miterlimit="10" x1="106.605" y1="124.31" x2="106.779" y2="125.002"/>
	
		<line fill="none" stroke="#24211D" stroke-width="0" stroke-linecap="square" stroke-miterlimit="10" x1="51.572" y1="111.388" x2="51.168" y2="111.619"/>
	<path fill="none" stroke="#828180" stroke-width="0" stroke-linecap="square" stroke-miterlimit="10" d="M62.879,24.512
		c0,0-5.307,1.788-5.711,1.961"/>
	<path fill="none" stroke="#FDD45A" stroke-width="0" stroke-linecap="square" stroke-miterlimit="10" d="M63.571,129.963
		c0,0,39.285,9.634,73.493-0.23"/>
	<path fill-rule="evenodd" fill="#716F6E" d="M199.539,87.794c0,0-16.094,59.014-112.432,55.207c0,0-66.686-4.442-86.415-53.245
		c0,0,11.48,41.592,74.82,53.764c0,0,32.42,4.73,56.072-1.903C131.584,141.616,187.887,131.117,199.539,87.794L199.539,87.794z"/>
	<path fill-rule="evenodd" fill="#716F6E" d="M102.625,166.479c2.135,0,3.923-1.039,3.923-2.423c0-1.212-1.788-2.365-3.923-2.365
		c-2.192,0-3.865,1.153-3.865,2.365C98.76,165.44,100.433,166.479,102.625,166.479L102.625,166.479z"/>
	<path fill-rule="evenodd" fill="#0089E1" d="M121.95,57.047l2.308-33.343L96.453,51.509
		C96.453,51.509,110.413,52.144,121.95,57.047L121.95,57.047z"/>
	<path fill-rule="evenodd" fill="#FFFFFF" d="M104.76,49.259c1.096,0,1.615,0,2.019-0.519l2.596-4.673
		c-0.635-0.865-0.866-0.865-1.096-0.98l0.115-0.231l3.75,0.635l3.923,5.25h0.115l1.615-3c0.404-0.52,0.289-0.865-1.096-1.153
		l0.115-0.347l3.922,0.75l-0.173,0.23c-1.384-0.115-1.615,0-1.846,0.52l-3.288,5.769l-0.52-0.115l-5.019-6.691l0,0l-2.25,3.923
		c-0.404,0.634-0.115,0.98,1.269,1.269l-0.173,0.231l-4.096-0.75L104.76,49.259z"/>
	<path fill-rule="evenodd" fill="#EB3D00" d="M101.76,95.985l-27.805,25.036l3.577-30.4C77.532,90.621,86.935,95.64,101.76,95.985
		L101.76,95.985z"/>
	<path fill-rule="evenodd" fill="#FFFFFF" d="M81.108,103.369c-0.347,1.039-0.347,2.885,1.903,3.404
		c1.038,0.115,2.307-0.115,2.884-1.097c0.461-0.808,0.346-1.153-0.808-2.076l-2.077-1.5c-0.461-0.347-1.327-1.5-0.346-3
		c0.808-1.269,3.115-2.884,6.576-2.192c1.731,0.347,2.308,1.039,2.885,1.154c0.346,0,0.634-0.23,0.865-0.461l0.577,0.115
		l-2.365,3.691l-0.577-0.115c0.577-1.615,0.577-3.461-1.731-3.923c-2.307-0.462-3.346,1.038-3.461,1.154
		c-0.577,1.038,0.115,1.615,1.038,2.191l0.923,0.808c2.423,1.73,1.615,2.885,1.154,3.462c-0.461,0.923-2.308,2.826-5.884,2.249
		c-1.557-0.346-2.019-1.096-2.596-1.211c-0.461,0-0.692,0.23-0.923,0.519l-0.577-0.173l1.961-3H81.108z"/>
</g>
</svg>
