<?xml version="1.0" encoding="utf-8"?>
<!-- Generator: Adobe Illustrator 13.0.0, SVG Export Plug-In . SVG Version: 6.00 Build 14948)  -->
<!DOCTYPE svg PUBLIC "-//W3C//DTD SVG 1.1//EN" "http://www.w3.org/Graphics/SVG/1.1/DTD/svg11.dtd">
<svg version="1.1" xmlns="http://www.w3.org/2000/svg" xmlns:xlink="http://www.w3.org/1999/xlink" x="0px" y="0px"
	 width="113.083px" height="65.281px" viewBox="0 0 113.083 65.281" enable-background="new 0 0 113.083 65.281"
	 xml:space="preserve">
<g id="Layer_3">
	<g>
		<path fill="#D9F0F6" d="M102.109,27.548c-1.459,0.028-2.237-0.186-3.525,0.393c-0.158-0.262-1.242,0.829-1.418,0.564
			c-0.819-10.903-9.323-19.452-19.617-19.32c-1.905,0.027-3.726,0.368-5.446,0.942c-3.444-6.142-9.729-10.232-16.85-10.126
			c-9.347,0.127-17.044,7.361-18.765,16.892c-0.586-0.107-1.188-0.163-1.801-0.149c-5.083,0.071-8.104,2.887-9.353,7.926
			c-2.581-1.663-6.447-1.999-9.662-1.96C6.492,22.832-0.141,31.1,0.002,41.01c0.108,9.926,6.652,18.033,15.835,17.917
			c3.83-0.055,7.322-1.52,10.108-3.9c2.836,5.755,8.46,9.646,14.908,9.553c4.391-0.053,8.342-1.948,11.266-4.974
			c3.089,3.534,7.464,5.739,12.303,5.674c4.146-0.06,7.889-1.743,10.75-4.469c2.124,0.815,4.396,1.264,6.774,1.24
			c7.057-0.088,13.178-4.26,16.476-10.403c1.187,0.435,2.431,0.659,3.727,0.64c6.129-0.073,11.027-5.496,10.933-12.114
			C112.986,33.558,108.235,27.475,102.109,27.548z"/>
	</g>
</g>
<g id="Layer_4">
	<g>
		<linearGradient id="SVGID_1_" gradientUnits="userSpaceOnUse" x1="50.4731" y1="6.8071" x2="59.9286" y2="60.3886">
			<stop  offset="0" style="stop-color:#FFFFFF"/>
			<stop  offset="0.4453" style="stop-color:#E5F5FD"/>
			<stop  offset="0.9607" style="stop-color:#C3E9FB"/>
		</linearGradient>
		<path fill="url(#SVGID_1_)" d="M101.194,28.523c-1.425,0.027-2.808,0.349-4.065,0.903c-0.155-0.251-0.323-0.484-0.495-0.738
			c-0.799-10.483-9.104-18.701-19.159-18.573c-1.862,0.026-3.641,0.355-5.322,0.908c-3.362-5.904-9.501-9.836-16.458-9.733
			C46.563,1.414,39.042,8.37,37.36,17.535c-0.573-0.104-1.161-0.156-1.76-0.143c-4.967,0.07-9.079,3.654-10.3,8.5
			c-2.52-1.599-5.445-2.535-8.587-2.498c-8.966,0.119-16.14,7.96-16.002,17.49c0.104,9.544,7.497,17.187,16.468,17.073
			c3.742-0.052,7.152-1.462,9.875-3.753c2.77,5.532,8.263,9.273,14.562,9.182c4.29-0.05,8.15-1.875,11.006-4.782
			c3.019,3.396,7.291,5.516,12.019,5.453c4.049-0.06,7.706-1.68,10.501-4.302c2.076,0.785,4.294,1.215,6.618,1.193
			c6.894-0.087,12.874-4.101,16.096-10.007c1.16,0.415,2.376,0.633,3.642,0.613c5.986-0.07,10.773-5.287,10.682-11.65
			C112.086,33.543,107.179,28.451,101.194,28.523z"/>
	</g>
	<g>
		
			<linearGradient id="SVGID_2_" gradientUnits="userSpaceOnUse" x1="49.9082" y1="13.1226" x2="49.9571" y2="55.7652" gradientTransform="matrix(1.0962 -0.0013 -0.0013 1 -0.1615 0.0305)">
			<stop  offset="0" style="stop-color:#FFFFFF"/>
			<stop  offset="0.4453" style="stop-color:#E5F5FD"/>
			<stop  offset="0.9607" style="stop-color:#C3E9FB"/>
		</linearGradient>
		<path fill="url(#SVGID_2_)" d="M95.247,32.013c-1.295,0.023-2.554,0.292-3.698,0.753c-0.141-0.209-0.293-0.401-0.448-0.612
			c-0.717-8.699-8.263-15.51-17.41-15.393c-1.693,0.023-3.312,0.297-4.841,0.758c-3.053-4.896-8.633-8.152-14.961-8.06
			c-8.306,0.113-15.155,5.894-16.694,13.501c-0.521-0.086-1.056-0.128-1.601-0.117c-4.517,0.063-8.262,3.041-9.377,7.064
			c-2.291-1.324-4.951-2.098-7.809-2.064c-8.157,0.108-14.689,6.623-14.574,14.53c0.084,7.921,6.801,14.255,14.961,14.15
			c3.404-0.046,6.507-1.22,8.987-3.123c2.513,4.588,7.506,7.686,13.236,7.604c3.902-0.046,7.416-1.564,10.017-3.98
			c2.742,2.815,6.626,4.57,10.926,4.514c3.684-0.055,7.012-1.402,9.557-3.58c1.889,0.647,3.904,1.001,6.02,0.982
			c6.271-0.08,11.714-3.416,14.651-8.321c1.056,0.344,2.16,0.521,3.312,0.505c5.444-0.063,9.805-4.398,9.727-9.679
			C105.15,36.167,100.692,31.946,95.247,32.013z"/>
		<g>
			<path fill="none" d="M95.247,32.013c-1.295,0.023-2.554,0.292-3.698,0.753c-0.141-0.209-0.293-0.401-0.448-0.612
				c-0.717-8.699-8.263-15.51-17.41-15.393c-1.693,0.023-3.312,0.297-4.841,0.758c-3.053-4.896-8.633-8.152-14.961-8.06
				c-8.306,0.113-15.155,5.894-16.694,13.501c-0.521-0.086-1.056-0.128-1.601-0.117c-4.517,0.063-8.262,3.041-9.377,7.064
				c-2.291-1.324-4.951-2.098-7.809-2.064c-8.157,0.108-14.689,6.623-14.574,14.53c0.084,7.921,6.801,14.255,14.961,14.15
				c3.404-0.046,6.507-1.22,8.987-3.123c2.513,4.588,7.506,7.686,13.236,7.604c3.902-0.046,7.416-1.564,10.017-3.98
				c2.742,2.815,6.626,4.57,10.926,4.514c3.684-0.055,7.012-1.402,9.557-3.58c1.889,0.647,3.904,1.001,6.02,0.982
				c6.271-0.08,11.714-3.416,14.651-8.321c1.056,0.344,2.16,0.521,3.312,0.505c5.444-0.063,9.805-4.398,9.727-9.679
				C105.15,36.167,100.692,31.946,95.247,32.013z"/>
			<g>
				<path fill="#9FDDF9" d="M94.636,32.216c0.938-0.122-0.512-0.007,0.612-0.097C95.122,32.163,94.942,32.206,94.636,32.216z"/>
				<path fill="#9FDDF9" d="M98.344,32.598c3.095,0.554,6.161,3.976,6.728,7.317c0.055,0.393-0.115-0.082,0.014,0.794
					c0.931,3.329-2.21,8.554-6.146,9.628l0.217-0.099c-0.727,0.159-1.544,0.676-2.36,0.669c-0.009-0.02,0.249-0.056,0.063-0.062
					c-0.191,0.05-1.426,0.251-1.766,0.192c-0.313-0.045-0.281-0.09-0.682-0.144l-0.462,0.035c-0.564,0.193-1.55-0.732-2.039,0.055
					c-0.49,0.676-0.973,1.426-1.562,2.071c0.044-0.073,0.15-0.21,0.047-0.117c-1.729,2.206-4.727,4.257-7.728,5.206
					c0.11-0.064,0.205-0.143,0.024-0.108c-0.114,0.15-1.041,0.434-1.873,0.588c-0.377,0.044-1.406,0.348-2.407,0.341l0.083-0.022
					c-0.726,0.146-1.081,0.045-1.674,0.065l-0.461-0.093c-0.328,0.077-1.05-0.136-1.656-0.131l0.016,0.022
					c-0.572-0.018-0.839-0.211-1.358-0.302l-0.046-0.024c-1.153-0.27-2.006-0.528-1.763-0.406c-0.443-0.138,0.987,0.215,0.42-0.009
					c-3.154,1.992-7.352,3.977-11.458,3.401c-0.46-0.074-0.753-0.11-0.852-0.149c-0.421,0.047-1.511-0.228-1.869-0.336
					c0.132,0.039-0.242-0.117-0.447-0.184c-0.693-0.257-0.815-0.133-1.565-0.453c0.3,0.123,0.429,0.098,0.332,0.048
					c-0.664-0.201-1.457-0.711-2.196-1.073c0.119,0.05,0.297,0.139,0.283,0.103c-0.863-0.322-1.369-0.89-1.992-1.37l0.254,0.153
					c-0.933-0.858-0.35-0.168-1.169-0.9c0.212,0.159,0.154,0.086,0.203,0.103c-0.751-0.849-2.04,1.332-2.914,1.517
					c0.051-0.034,0.03-0.037,0.03-0.037c-1,0.494-1.993,1.134-3.194,1.433c-0.434,0.109,0.105-0.149-1.015,0.207
					c0.084,0.178-1.957,0.376-1.253,0.383c-1.011,0.115-2.602,0.234-3.278,0.145c0.455-0.011-0.482-0.14,0.353-0.102l-0.626-0.091
					c0.096-0.033,0.646,0.048,0.448-0.011c-0.418,0.013-1.628-0.068-1.986-0.202c-0.776-0.059-1.496-0.128-2.688-0.563
					c0.574,0.158-0.282-0.204,0.104-0.089c-0.587-0.1-1.113-0.363-1.674-0.561c-0.379-0.185-0.047-0.105-0.603-0.356
					c0.01,0.044-0.22-0.087-0.382-0.177c-0.115-0.111-1.493-0.94-1.538-1.177c-0.123-0.145,0.532,0.429,0.195,0.105
					c-0.576-0.516-0.623-0.515-1.202-1.032l-0.003-0.02c-0.376-0.343-1.024-1.108-0.712-0.639c0.23,0.275-0.047-0.14,0.277,0.281
					c-0.257-0.251-0.913-0.895-1.346-1.546c0.156,0.217,0.158,0.175,0.237,0.249c-0.91-0.974-0.767-2.063-1.93-0.771
					c0.009,0.046,0.325-0.307,0.482-0.381c-1.245,0.837-2.667,1.609-3.875,1.955c0.196-0.06,0.126,0.03,0.108,0.022
					c-0.705,0.183-0.688,0.113-1.139,0.257c-0.055-0.023-0.571,0.165-1.041,0.301c-0.248,0.039-0.123,0.028,0.283-0.098
					c-0.645,0.21-3.372,0.511-4.929,0.176c0.034,0.004-0.985,0.065-1.323-0.104l0.147-0.017c-0.31-0.124-1.165-0.329-1.21-0.393
					c-0.77-0.07,2.881,0.654,1.864,0.449c-0.272,0.005-1.425-0.254-1.196-0.25c-0.694-0.197-1.394-0.329-2.039-0.574
					c0.188,0.066,0.59,0.09,0.03-0.068c-0.919-0.457-0.27-0.107-1.022-0.469l-0.477-0.217c-0.057,0.033-0.818-0.427-0.506-0.197
					c-0.125-0.041-1.296-0.753-1.136-0.8l0.155,0.028c-0.352-0.268-0.618-0.385-0.915-0.575c-0.042-0.042-0.125-0.125-0.1-0.12
					c-0.111,0.021-0.88-0.61-1.241-1c-0.559-0.754-1.639-1.748-1.718-2.23c-0.387-0.604-0.752-1.156-1.14-1.88
					c0.091,0.138,0.205,0.33,0.25,0.36c-0.242-0.454-0.313-0.56-0.468-1.005c0.048,0.093-0.266-1.001-0.407-1.551
					c-0.256-0.665-0.238-0.421-0.296-0.479c-0.04-0.653-0.324-1.999-0.333-2.82c0.043,0.247,0.172,1.032,0.132,0.44
					c-0.021-0.646-0.116-1.302,0.031-2.35l-0.114,0.249c0.097-0.462,0.087-1.559,0.169-1.436c0.012-0.356,0.374-1.187,0.241-1.1
					c0.435-1.682,1.575-3.936,2.351-4.678c0.146-0.2,0.551-0.666,0.435-0.598c-0.302,0.287-0.338,0.465-0.463,0.563
					c0.14-0.174,0.151-0.226,0.157-0.251c0.359-0.404,0.633-0.724,0.367-0.287c0.814-0.862,0.604-1.119,1.838-2.04
					c-0.03,0.072,0.069,0.009,0.409-0.279l0.616-0.588c0.814-0.553,0.521-0.224,0.563-0.204c0.454-0.26,1.017-0.563,1.205-0.718
					l0.594-0.234c-0.428,0.181,0.353-0.263,0.583-0.348l-0.22,0.108c0.084-0.044,0.667-0.213,0.955-0.322
					c-0.08-0.004-0.69,0.135-0.997,0.274c0.225-0.153,0.641-0.24,0.966-0.389c-0.092,0.093,0.832-0.218,1.232-0.337
					c0.46-0.131,0.504-0.216,0.639-0.256c0.013-0.001,0.778-0.091,0.414-0.012c-0.162,0.023-0.379,0.004-0.628,0.129
					c0.306-0.078,0.279-0.02,0.924-0.126c0.485-0.085-0.146-0.105,0.793-0.171c-0.243,0.042-0.285,0.072-0.472,0.115l0.875-0.065
					l0.033-0.06c0.119,0.001,0.038,0.015,0.092,0.017c0.256-0.09,1.331-0.18,1.532-0.178l1.355,0.124l-0.083,0
					c0.519,0.022,1.183,0.213,1.622,0.237l-0.024,0.008c0.274,0.066,0.939,0.157,1.278,0.273c0.664,0.272,0.161,0.277,0.927,0.467
					c0.689,0.208,1.078,0.347,0.837,0.174c0.306,0.248,1.811,0.736,1.216,0.771c0.243-0.648,0.429-1.317,0.813-1.807
					c0.075-0.176,0.002-0.078,0.186-0.427c1.001-1.667,2.689-3.143,4.127-3.72c-0.5,0.248-0.008,0.064,0.016,0.088
					c0.399-0.231,0.526-0.176,0.643-0.32c-0.062-0.028-0.028-0.07-0.536,0.133c1.016-0.567,2.763-0.982,3.409-0.932
					c-0.322,0.007-0.076-0.031,0.174-0.07c-0.071,0.104,0.765-0.035,1.414,0.038l0.093-0.042l0.417,0.081l0.317-0.027
					c-0.142,0.114,0.584-0.271-0.223,0.266l0.119-0.356c0.028-0.028,0.058-0.06,0.104-0.167c0.147-0.639,0.349-1.558,0.593-2.231
					l0.32-0.5c0.129-0.275,0.321-0.756,0.062-0.282c0.606-1.065,0.897-1.804,1.214-2.06c1.036-1.816,3.099-4.188,5.263-5.398
					l-0.041,0.072c0.561-0.344,0.249-0.249,0.642-0.487c-0.167,0.133,0.474-0.175,0.046,0.112c0.855-0.384,1.062-0.574,1.607-0.854
					c0.065-0.083-0.434,0.237-0.352,0.131c0.088-0.061,1.196-0.517,1.303-0.646c0.225-0.073,0.076,0.055-0.028,0.136l0.529-0.219
					c0.672-0.182-1.436,0.697-0.708,0.546l0.47-0.227c0.479-0.132-1.22,0.651-0.026,0.13c0.527-0.197,0.969-0.417,0.468-0.315
					c1.141-0.335,0.48-0.313,1.727-0.649c0.348-0.052-0.994,0.283-0.739,0.275c0.602-0.081,1.154-0.405,1.698-0.425
					c-0.601,0.033-0.111-0.09,0.276-0.142c0.658-0.031-0.415,0.11,0.512,0.025c0.146-0.057,0.997-0.172,0.255-0.128
					c0.328-0.128,0.969-0.069,1.471-0.192c0.302,0.037-0.947,0.248,0.07,0.182c-0.166-0.105,1.256-0.056,0.718-0.176
					c0.402,0.039,0.441,0.092,0.149,0.117c0.567,0.068,1.397-0.046,1.573,0.091l0.204-0.047c0.174,0.054,0.425,0.116,0.707,0.204
					c0.493,0.094,1.619,0.203,1.548,0.301c0.156,0.039,1.25,0.396,0.848,0.194c-0.675-0.252-0.792-0.228-1.167-0.378
					c0.486,0.152,0.995,0.286,1.405,0.372l0.053,0.058c0.24,0.062,0.78,0.245,0.943,0.254c-0.189-0.038-0.104,0.017,0.08,0.086
					l0.258,0.055c0.924,0.402,0.175,0.195,1.065,0.596l-0.69-0.274c0.152,0.061,0.428,0.251,0.857,0.433
					c0.185,0.034,0.532,0.108,0.683,0.16c0.479,0.276,0.179,0.185,0.667,0.43l-0.633-0.326c-0.099-0.042,0.36,0.333,0.977,0.724
					c0.404,0.235,1.066,0.566,0.457,0.143c0.327,0.18,0.69,0.557,0.444,0.397c0.655,0.519-0.051-0.117,0.526,0.318
					c0.193,0.232,0.912,0.813,1.238,1.267l-0.606-0.445l0.372,0.327c-0.511-0.39,0.197,0.264-0.115,0.068l0.755,0.759
					c-0.588-0.809,0.879,0.7,0.769,0.42c0.874,1.063,0.297,0.845,1.278,1.895c-0.112-0.206,0.351,0.296-0.179-0.389
					c0.122,0.175,0.209,0.288,0.281,0.373c-0.189-0.058,0.572,0.302-0.407-0.115l0.116-0.045c0.153-0.06,0.328-0.12,0.825-0.211
					c-0.713,0.211,0.803-0.07-0.225,0.234c0.234-0.006-0.981,0.005-0.354,0.257c-0.432-0.243-0.254,0.066,0.41-0.174
					c0.51-0.128,1.213-0.292,1.1-0.325c-0.033-0.057-0.784,0.188-0.468,0.049c1.023-0.278,1.214-0.182,1.636-0.324
					c-0.667,0.053-0.838,0.042-0.833-0.001c0.25-0.081,0.514-0.077,0.771-0.119l-0.145,0.055c1.251-0.079,0.361-0.108,1.575-0.202
					l0.571,0.042c-0.286,0.082-1.76,0.115-1.534,0.21c0.781-0.042,1.039-0.191,1.777-0.13l-0.551,0.023
					c0.283-0.046,0.558,0.168,1.669,0.157c0.576,0.011,0.155-0.029,0.172-0.071c1.251,0.125,1.656-0.011,2.435,0.246
					c-0.179,0.039,1.385,0.388,0.499,0.235c-0.368-0.251-2.176-0.49-2.635-0.389c0.447,0.137-0.982-0.094-1.252-0.013
					c0.999,0.083,0.941,0.178,1.096,0.255c0.274,0.027,0.544,0.021,0.709,0.024c0.124-0.051-0.236-0.08-0.251-0.144
					c1.125,0.026,2.155,0.342,2.77,0.446c0.354,0.128,0.222,0.155-0.205,0.044c1.317,0.249,2.619,0.812,3.723,1.437
					c-0.688-0.447,1.277,0.597,0.817,0.28c-0.599-0.317-1.095-0.637-0.734-0.512c0.381,0.193-0.033,0.032,0.117,0.129
					c0.505,0.211,0.743,0.397,1.199,0.668c-1.041-0.633-0.255-0.035-0.481-0.094c0.738,0.462-0.056,0.02,0.641,0.528
					c0.695,0.508,1.665,1.02,2.335,1.72c0.794,0.929,2.139,2.224,2.632,3.218c0.271,0.501-0.01,0.223,0.306,0.748
					c0.388,0.607-0.204-0.498,0.334,0.423l-0.071-0.079c0.274,0.225,0.702,1.822,0.967,2.055l-0.21-0.272l0.223,0.501
					c-0.025,0.019,0.032,0.243-0.105-0.05c0.199,0.624,0.525,1.271,0.606,1.988l-0.028-0.465c0.342,1.136,0.184,2.145,0.762,3.042
					l-0.066,0.003c0.137,0.279,0.188,0.241,0.49,0.113c-0.146,0.101,0.48-0.053,0.822-0.203c-0.49,0.167-1.292,0.707-1.596-0.05
					c-0.271-0.426,0.38,0.405,0.237,0.119c-0.277-0.185-0.318-1.261-0.452-1.433c0.069,0.411,0.085,0.429,0.163,0.746
					c-0.052,0.143-0.163-0.479-0.27-0.778c0.042,0.214,0.074,0.52,0.107,0.563c-0.114-0.415-0.197-0.835-0.327-1.532
					c0.116,0.466,0-0.268,0.054-0.094c-0.116-0.03-0.118-0.729-0.485-1.532c-0.174-0.601-0.615-1.531-1.041-2.441
					c0.287,0.312,0.477,0.808,0.748,1.367c-0.206-0.611-0.262-0.664-0.473-1.276c-0.214-0.24-0.401-0.389-0.874-1.074l0.019-0.065
					c-0.43-0.622-0.482-0.584-0.996-1.391c-1.101-1.214-2.211-2.501-3.297-3.159l-0.008-0.069c-0.581-0.399-1.925-1.297-2.836-1.593
					c-1.364-0.886-3.283-1.049-4.026-1.417c-2.78-0.349-5.298-0.489-8.108,0.37l0.46-0.182c-0.546,0.138-0.232,0.106-0.954,0.09
					c0.751,0.4-0.756-0.471-0.726-0.803c-0.671-1.111-1.886-2.298-2.815-2.957l-0.002-0.068c-0.923-0.694-2.034-1.528-3.318-2.191
					c-0.14-0.089-0.357-0.243-0.751-0.422c-0.73-0.291-1.143-0.359-2.243-0.678c-0.792-0.266-2.141-0.49-2.979-0.632
					c-3.139-0.201-6.438,0.271-9.334,1.792l-0.24,0.046c-2.812,1.472-5.689,4.225-6.947,6.63l0.028-0.285
					c-0.407,0.747-0.841,1.745-0.678,1.58c-0.493,0.714-0.665,1.995-0.926,2.477c-0.132,0.413-0.197,0.67-0.252,0.91
					c-0.937,0.717-0.662,0.202-1.167,0.344c-1.691-0.143-2.346,0.045-3.881,0.47l0.388-0.094c0.164-0.066,0.168-0.111-0.224-0.017
					c-0.563,0.211-2.048,0.854-1.447,0.707c-1.583,0.715-3.167,2.458-3.95,3.92c0.105-0.104-0.116,0.255-0.158,0.426l-0.398,1.054
					c-1.281,1.101-0.94,0.004-1.48,0.12c-0.649-0.367-1.299-0.64-1.894-0.782c-0.223-0.094,0.384,0.072-0.203-0.133
					c-0.352-0.107-0.02,0.039-0.454-0.091c-2.382-0.7-4.934-0.679-7.16-0.333c-3.917,0.86-7.513,3.516-9.381,6.839l0-0.05
					c-0.633,1.111-1.348,2.675-1.464,3.71c-0.163,0.272-0.241,1.118-0.251,0.892c-0.05,1.015-0.371,2.842,0.02,4.297l-0.055-0.365
					c0.01,1.507,0.641,2.717,1.142,4.187c-0.103-0.127-0.229-0.388-0.252-0.429c0.193,0.582,0.793,1.208,0.84,1.563
					c0.175,0.303,0.174,0.185,0.065,0.002c1.712,2.99,4.867,5.339,8.305,6.269c2.459,0.714,0.081,0.38,2.103,0.569
					c0.164,0.037,0.126-0.034,0.15-0.008c0.784,0.033,1.215,0.235,1.764,0.221c-0.224-0.098,0.363,0.006,0.378-0.072
					c1.556-0.163,1.924,0.06,3.107-0.373l-0.082,0.062c1.409-0.399,2.987-1.036,3.992-1.744l1.249-0.819l0.312-0.204
					c1.374,0.226,0.497,0.241,0.855,0.372l0.402,0.622c0.492,0.858,1.199,1.562,1.851,2.283c1.392,1.387,3.088,2.401,4.87,3.136
					c3.611,1.368,7.749,1.329,11.267-0.301c0.816-0.487,1.767-0.762,2.473-1.415l1.128-0.871l0.282-0.217l0.07-0.055
					c1.482,0.043,0.45,0.045,0.798,0.069l0.137,0.114l0.546,0.456c1.389,1.283,3.07,2.261,4.855,2.859
					c3.569,1.256,7.661,1.07,11.157-0.635c1.938-0.551,1.226-1.176,3.842-1.877c-0.085-0.005-0.208-0.032-0.082,0.016
					c0.122-0.055,1.383,0.341,1.587,0.313c2.809,0.614,5.563,0.687,8.431-0.149c-0.455,0.109-0.673,0.22-0.124,0.101l0.542-0.228
					l0.097-0.01c0.358-0.139,0.737-0.313,0.356-0.208c3.533-1.196,6.585-3.58,8.608-6.65c4.172-0.413,7.653,0.166,10.46-2.72
					c1.298-1.12,2.511-3.321,2.732-5.164c1.022-5.478-3.616-10.753-9.366-10.565C95.231,32.468,96.02,31.994,98.344,32.598z"/>
				<path fill="#9FDDF9" d="M93.509,32.35c-0.211-0.032-0.847,0.175-0.354-0.043C93.225,32.309,93.569,32.296,93.509,32.35z"/>
				<path fill="#9FDDF9" d="M83.702,19.438c-0.025-0.004-0.199-0.167-0.242-0.208l0.503,0.35
					C83.777,19.447,83.794,19.484,83.702,19.438z"/>
				<path fill="#9FDDF9" d="M79.547,17.41c0.088-0.04,1.05,0.221,1.563,0.528C80.611,17.697,80.098,17.5,79.547,17.41z"/>
				<path fill="#9FDDF9" d="M75.325,16.439c-0.374-0.061-0.27-0.07,0.237-0.027C75.597,16.434,75.429,16.43,75.325,16.439z"/>
				<path fill="#9FDDF9" d="M75.01,16.497c-0.359-0.028-0.538-0.063-0.713-0.099C74.309,16.431,75.134,16.446,75.01,16.497z"/>
				<path fill="#9FDDF9" d="M67.349,14.808c-0.158-0.166-0.516-0.505-0.633-0.688C66.858,14.313,67.509,14.901,67.349,14.808z"/>
				<path fill="#9FDDF9" d="M63.975,11.997c-0.118-0.079-0.164-0.115-0.308-0.195c-0.212-0.154,0.035-0.029,0.223,0.087
					L63.975,11.997z"/>
				<polygon fill="#9FDDF9" points="3.609,41.791 3.633,41.318 3.663,41.388 				"/>
				<path fill="#9FDDF9" d="M28.188,54.542c0.274,0.385,0.149,0.296,0.188,0.365C28.141,54.55,28.497,55.015,28.188,54.542z"/>
				<polygon fill="#9FDDF9" points="44.619,60.57 44.483,60.612 44.51,60.526 				"/>
			</g>
		</g>
	</g>
</g>
<g id="Layer_1">
	<g>
		<g>
			<path fill="none" d="M54.803,33.469c-7.365,2.754-8.511-8.629-4.255-11.199c9.851-5.949,19.986,15.91,7.855,20.561
				c-6.104,2.341-20.3,1.303-20.948-8.812c-0.818-12.761,7.62-19.827,17.02-19.827"/>
			<g>
				<path fill="#91D9F8" d="M54.603,33.664c0.373-0.119-0.224-0.005,0.237-0.095C54.8,33.611,54.733,33.652,54.603,33.664z"/>
				<path fill="#91D9F8" d="M53.195,14.221c-1.231,0.231-2.869,0.295-4.123,0.905c-0.15,0.053,0.007-0.111-0.33,0.016
					c-1.25,0.405-3.063,1.447-4.467,2.218l0.057-0.087c-0.248,0.183-0.475,0.503-0.73,0.703c-0.015-0.014,0.062-0.089-0.013-0.062
					c-0.025,0.099-0.432,0.403-0.507,0.525c-0.113,0.066-0.135,0.023-0.28,0.112l-0.096,0.17c-0.319,0.412-0.925,0.844-1.262,1.487
					c0.008-0.037,0.042-0.101-0.004-0.065c-0.589,0.974-1.564,2.017-1.946,3.245c0-0.056-0.02-0.118-0.075-0.063
					c0.038,0.089-0.108,0.45-0.235,0.762c-0.13,0.11-0.179,0.551-0.38,0.894l-0.001-0.037c-0.05,0.291-0.222,0.379-0.234,0.624
					l-0.097,0.163c0.07,0.156-0.142,0.397-0.145,0.648l0.022-0.001c-0.025,0.229-0.101,0.33-0.129,0.541l-0.016,0.017
					c-0.081,0.489-0.199,0.757-0.119,0.762c-0.1,0.156,0.076-0.474-0.075-0.229c-0.397,1.594-0.457,3.264-0.455,4.909
					c-0.037,0.187-0.049,0.305-0.081,0.348c0.012,0.163,0,0.617,0.037,0.765c0-0.056-0.043,0.107-0.05,0.195
					c-0.041,0.3,0.07,0.321,0.092,0.646c-0.041-0.127-0.073-0.169-0.096-0.123c0.104,0.271,0.151,0.641,0.221,0.963
					c-0.021-0.048-0.041-0.125-0.064-0.108c0.142,0.339,0.046,0.665,0.216,0.947l-0.084-0.099c0.117,0.498,0.144,0.115,0.258,0.539
					c-0.049-0.096-0.054-0.055-0.078-0.066c0.234,0.353,0.364,1.015,0.642,1.332l-0.026-0.007c0.246,0.369,0.419,0.813,0.751,1.175
					c0.1,0.146-0.128,0.023,0.195,0.372c0.061-0.072,0.552,0.582,0.448,0.301c0.22,0.341,0.712,0.747,0.933,0.898
					c-0.162-0.089,0.079,0.214-0.185,0.004l0.16,0.207c-0.053,0.005-0.194-0.179-0.163-0.09c0.134,0.106,0.536,0.395,0.644,0.503
					c0.301,0.119,0.603,0.18,1.035,0.432c-0.22-0.093,0.063,0.159-0.082,0.089l0.692,0.195c0.153,0.064,0,0.08,0.23,0.158
					c0-0.027,0.103,0.003,0.177,0.015c0.053,0.036,0.638,0.266,0.669,0.381c0.054,0.063-0.255-0.096-0.099,0.011
					c0.282,0.126,0.302,0.114,0.598,0.206l0.001,0.014c0.189,0.077,0.583,0.153,0.39,0.035c-0.134-0.047,0.033,0.069-0.158-0.022
					c0.154-0.005,0.497,0.094,0.789,0.19c-0.104-0.02-0.099,0.008-0.146,0.02l1.298,0.225c0.018-0.041-0.186,0.037-0.247,0
					c0.564,0.191,1.203,0.208,1.678,0.346c-0.081-0.004-0.033-0.066-0.029-0.054c0.281,0.047,0.258,0.107,0.445,0.111
					c0.014,0.039,0.233,0.022,0.423,0.039c0.101-0.012,0.047,0.025-0.118,0.005c0.265,0.036,1.333,0.034,1.943,0.138
					c-0.011-0.019,0.38-0.072,0.521-0.075l-0.057,0.058c0.128,0.034,0.474-0.005,0.497,0.045c0.303-0.069-1.166,0.057-0.756,0.004
					c0.105,0.048,0.572-0.09,0.482-0.013c0.284-0.002,0.559-0.065,0.831-0.012c-0.078-0.009-0.229,0.079,0,0.075
					c0.405-0.014,0.115-0.018,0.442-0.055l0.204-0.038c0.011-0.056,0.361-0.017,0.208-0.068c0.052,0.042,0.582-0.068,0.548,0.026
					l-0.051,0.076l0.413-0.137l0.063,0.028c0.018-0.104,0.414-0.046,0.608-0.158c0.366-0.018,0.919-0.115,1.099-0.093
					c0.268-0.094,0.507-0.188,0.823-0.234c-0.06,0.024-0.144,0.046-0.156,0.073c0.204-0.012,0.245-0.051,0.42-0.108
					c-0.033,0.035,0.402-0.041,0.626-0.078c0.255-0.117,0.145-0.145,0.16-0.188c0.286,0.041,0.715-0.31,1.017-0.391
					c-0.078,0.059-0.335,0.237-0.121,0.155c0.27-0.019,0.417-0.312,0.799-0.453l-0.131-0.034c0.187-0.034,0.498-0.32,0.51-0.223
					c0.102-0.09,0.44-0.196,0.351-0.249c0.557-0.355,1.149-1.101,1.575-1.26c0.069-0.065,0.188-0.274,0.133-0.257
					c-0.124,0.102-0.087,0.213-0.163,0.226c0.064-0.057,0.046-0.095,0.044-0.108c0.125-0.16,0.219-0.294,0.172-0.084
					c0.294-0.357,0.133-0.489,0.475-0.955c0.018,0.041,0.054,0.011,0.141-0.136l0.119-0.3c0.194-0.318,0.162-0.158,0.234-0.134
					c0.057-0.197,0.141-0.432,0.128-0.536l0.154-0.206c-0.112,0.151,0.02-0.172,0.037-0.267l-0.017,0.096
					c0.037-0.027,0.099-0.256,0.131-0.371c-0.047,0.018-0.141,0.238-0.194,0.357l0.081-0.394c0.043,0.06,0.15-0.299,0.209-0.449
					c0.039-0.181-0.026-0.219-0.017-0.271c0.032,0.002,0.043-0.298,0.069-0.146l-0.035,0.246c0.039-0.115,0.091-0.091,0.084-0.352
					c-0.005-0.194-0.125,0.028-0.041-0.323l0.037,0.194l0.075-0.333l-0.053-0.021l0.03-0.031c-0.045-0.107,0.049-0.516-0.006-0.597
					c0.014-0.169,0.097-0.353,0.082-0.518l0.006,0.032c0.023-0.2-0.01-0.467-0.056-0.634l0.013,0.009
					c0-0.109-0.021-0.367-0.06-0.502c0.03-0.277,0.206-0.107,0.122-0.409c-0.015-0.282-0.121-0.429-0.151-0.313
					c-0.048-0.501-0.26-1.043-0.263-1.52c-0.036-0.066-0.041-0.018-0.083-0.162c-0.11-0.736-0.545-1.459-0.61-2.062
					c0.092,0.194,0.056-0.007,0.084-0.023c-0.105-0.149-0.022-0.222-0.123-0.25c-0.041,0.036-0.069,0.029-0.02,0.233
					c-0.144-0.418-0.504-0.99-0.555-1.237c0.035,0.12-0.022,0.042-0.079-0.037c0.086-0.008-0.05-0.306-0.187-0.512l-0.058-0.007
					l-0.028-0.168c-0.061-0.074-0.125-0.048-0.215-0.277l0.003-0.086c-0.179-0.189-0.439-0.445-0.561-0.694l-0.07-0.227
					c-0.074-0.093-0.221-0.23-0.12-0.048c-0.228-0.417-0.4-0.667-0.468-0.804c-0.662-0.506-1.448-1.352-2.233-1.854l0.043-0.014
					c-0.181-0.178-0.14-0.024-0.264-0.149c0.084,0.019-0.112-0.178,0.069-0.096c-0.262-0.261-0.41-0.215-0.63-0.288
					c-0.055,0.027,0.184,0.049,0.113,0.084c-0.043,0-0.428-0.234-0.508-0.191c-0.068-0.062,0.017-0.082,0.074-0.089l-0.212-0.058
					c-0.211-0.189,0.619,0.115,0.41-0.095l-0.192-0.075c-0.149-0.152,0.537,0.15,0.073-0.09c-0.224-0.062-0.437-0.043-0.269,0.068
					c-0.428-0.173-0.259,0.072-0.7-0.137c-0.107-0.096,0.358,0.154,0.293,0.058c-0.189-0.161-0.431-0.167-0.632-0.198
					c0.216,0.064,0.007,0.103-0.137,0.092c-0.232-0.074,0.174-0.04-0.167-0.105c-0.066,0.031-0.383,0.009-0.119,0.084
					c-0.139,0.073-0.347-0.087-0.54-0.046c-0.105-0.086,0.37-0.092-0.004-0.191c0.052,0.075-0.47,0.004-0.278,0.135
					c-0.143-0.045-0.158-0.099-0.049-0.119c-0.211-0.085-0.508,0.162-0.581,0.026l-0.068,0.075l-0.274-0.041
					c-0.188,0.021-0.582,0.157-0.585,0.057c-0.06,0.008-0.481,0.075-0.303,0.108c0.271,0.012,0.292-0.083,0.456-0.008
					c-0.197-0.043-0.38,0.028-0.51,0.115l-0.034-0.027c-0.079,0.051-0.273,0.128-0.312,0.19c0.057-0.049,0.015-0.06-0.054-0.039
					l-0.068,0.094c-0.326,0.174-0.117-0.061-0.441,0.099l0.235-0.152c-0.052,0.033-0.187,0.032-0.341,0.119l-0.161,0.243
					c-0.174,0.1-0.112-0.017-0.269,0.109l0.21-0.16c0.029-0.031-0.204-0.008-0.458,0.102c-0.136,0.109-0.279,0.34-0.065,0.201
					c-0.098,0.081-0.259,0.166-0.202,0.071c-0.218,0.196,0.065,0.022-0.11,0.202c-0.114,0.019-0.385,0.202-0.536,0.345l0.106-0.276
					l-0.116,0.144c0.098-0.237-0.119,0.061-0.089-0.097l-0.233,0.343c0.333-0.212-0.136,0.415,0.041,0.399
					c-0.206,0.453-0.383,0.15-0.48,0.695c0.067-0.063,0.027,0.187,0.147-0.103c-0.162,0.268,0.007,0.232-0.161,0.56
					c0.048-0.277-0.203,0.242-0.133-0.16c0.027,0.039,0.097-0.204,0.113-0.264c-0.087,0.105-0.094-0.071-0.204,0.242
					c-0.057,0.195-0.146,0.458-0.078,0.437c0.063,0.012,0.094-0.291,0.113-0.149c-0.109,0.38-0.232,0.417-0.149,0.609
					c0.033-0.252,0.144-0.283,0.176-0.269l-0.05,0.283l-0.03-0.065c-0.121,0.448,0.047,0.152-0.052,0.586l-0.124,0.192
					c-0.048-0.118,0.162-0.636,0.032-0.583c-0.063,0.29-0.024,0.396-0.11,0.663l0.019-0.207c-0.022,0.102-0.216,0.183-0.148,0.622
					c0.019,0.222,0.037,0.062,0.08,0.071c-0.021,0.476-0.002,0.617,0.03,0.921c-0.087-0.062,0.017,0.54-0.085,0.206
					c0.021-0.159,0.027-0.841-0.02-1.016c-0.113,0.167,0.042-0.374-0.051-0.489c-0.031,0.386-0.128,0.358-0.198,0.417l0.012,0.283
					c0.058,0.049,0.068-0.093,0.131-0.097c-0.072,0.431,0.015,0.851,0.077,1.083c-0.024,0.146-0.086,0.105-0.1-0.066
					c0.01,0.519,0.142,1.055,0.196,1.544c0.015-0.327,0.179,0.514,0.202,0.285c-0.065-0.251-0.04-0.481,0.033-0.354
					c0.041,0.153-0.044,0.005-0.045,0.074c0.114,0.179,0.012,0.326,0.154,0.493c-0.169-0.429-0.144-0.05-0.244-0.108
					c0.144,0.312-0.058,0.002,0.044,0.326c0.117,0.323,0.374,0.661,0.542,0.991c0.172,0.438,0.654,0.996,0.996,1.22
					c0.138,0.171-0.029,0.144,0.144,0.313c0.217,0.181-0.105-0.207,0.193,0.085l-0.044-0.006c0.117,0.042,0.661,0.396,0.813,0.333
					l-0.148,0.032l0.2,0.073c-0.006,0.026,0.071,0.082-0.056,0.062c0.233,0.13,0.543,0.104,0.818,0.159l-0.169-0.092
					c0.469,0.095,0.793,0.051,1.257,0.029l-0.009,0.056l0.274-0.047c-0.059,0.071,0.199,0.045,0.333-0.041
					c-0.222,0.128-0.46,0.189-0.707,0.239c-0.208-0.022,0.22-0.078,0.085-0.126c-0.113-0.043-0.542-0.006-0.616,0.052
					c0.167-0.003,0.176-0.016,0.305-0.042c0.058,0.074-0.198,0.085-0.328,0.143c0.09-0.008,0.218,0.009,0.237-0.017
					c-0.175,0.025-0.358,0.11-0.65,0.028c0.201,0.009-0.101-0.069-0.023-0.076c-0.03,0.063-0.316,0.028-0.673-0.064
					c-0.234-0.11-0.647-0.236-1.034-0.435l0.651,0.155c-0.218-0.146-0.261-0.127-0.476-0.272c-0.146-0.002-0.255-0.001-0.54-0.205
					l0.018-0.052c-0.243-0.193-0.333-0.109-0.581-0.429c-0.439-0.545-0.75-1.175-0.962-1.654l0.039-0.037
					c-0.173-0.24-0.361-0.896-0.455-1.272c-0.098-0.655-0.229-1.424-0.147-1.767c-0.013-1.157,0.064-2.209,0.55-3.339l0.001,0.22
					c0.022-0.225,0.084-0.118,0.147-0.321c-0.156,0.199,0.061-0.294,0.102-0.448c0.275-0.471,0.674-1.055,0.994-1.442l0.05,0.025
					c0.314-0.431,0.875-0.677,1.455-0.857c0.073-0.009,0.192-0.008,0.354-0.085c0.277-0.188,0.42-0.313,0.88-0.469
					c0.356-0.044,0.939-0.093,1.299-0.103c1.353-0.195,2.694,0.32,3.948,0.907l0.061,0.094c1.215,0.623,2.338,1.848,3.104,2.688
					l-0.147-0.021c0.188,0.301,0.483,0.645,0.493,0.526c0.178,0.312,0.548,0.708,0.606,0.939c0.198,0.305,0.285,0.348,0.432,0.613
					c0.296,0.67,0.424,0.906,0.751,1.514l-0.071-0.155c-0.055-0.058-0.097-0.046-0.026,0.109c0.158,0.21,0.298,0.893,0.337,0.604
					c0.158,0.721,0.673,1.591,0.668,2.334c0.021-0.067,0.063,0.109,0.099,0.179c0.12,0.639,0.229,1.307,0.268,1.825
					c-0.012,0.104-0.064-0.159-0.055,0.104c0.02,0.155,0.043,0,0.071,0.192c0.181,1.056-0.092,2.13-0.22,3.078
					c-0.296,1.68-1.111,3.393-2.334,4.528l-0.003-0.03c-0.365,0.425-0.986,0.855-1.302,1.161c-0.128,0.043-0.447,0.226-0.386,0.14
					c-0.361,0.255-1.105,0.539-1.65,0.864l0.145-0.063c-0.622,0.133-1.123,0.428-1.789,0.501c0.063-0.025,0.181-0.06,0.194-0.088
					c-0.26,0.011-0.57,0.233-0.731,0.148c-0.143,0.033-0.091,0.081-0.003,0.058c-1.428,0.232-2.957,0.472-4.465,0.472
					c-1.077-0.075-0.063-0.19-0.913-0.119c-0.068-0.027-0.052,0.041-0.062,0.017c-0.33,0.01-0.502-0.168-0.732-0.123
					c0.088,0.079-0.154,0.029-0.165,0.073c-0.653-0.087-0.773-0.174-1.293-0.199l0.044-0.031c-0.618,0.021-1.306-0.135-1.831-0.152
					c-3.247-0.694-6.502-2.167-8.395-5.083c-1.968-2.955-1.516-6.421-1.258-9.617c0.266-0.744,0.275-0.796,0.42-1.637
					c0.008,0.038,0,0.09,0.027,0.038c-0.071-0.06,0.123-0.586,0.064-0.685c0.189-1.221,0.682-2.246,1.219-3.395
					c-0.076,0.186-0.057,0.305,0.037,0.087l0.057-0.248l0.037-0.027c0.057-0.153,0.095-0.333,0.001-0.192
					c1.314-2.927,3.704-5.199,6.37-6.76c0.672-0.31,1.569-0.871,2.294-1.213c2.298-0.724,4.376-1.001,6.785-1.177
					C54.475,13.839,54.163,14.08,53.195,14.221z"/>
				<path fill="#91D9F8" d="M54.149,33.795c-0.092-0.017-0.359,0.032-0.163-0.078C54.021,33.749,54.167,33.753,54.149,33.795z"/>
				<path fill="#91D9F8" d="M48.793,30.447l-0.014-0.123l0.085,0.217C48.835,30.46,48.821,30.479,48.793,30.447z"/>
				<path fill="#91D9F8" d="M48.433,28.715c0.032,0.024,0.131,0.392,0.171,0.609L48.433,28.715z"/>
				<path fill="#91D9F8" d="M48.582,27.073c0.041-0.138,0.055-0.097,0.04,0.09C48.602,27.176,48.597,27.113,48.582,27.073z"/>
				<path fill="#91D9F8" d="M48.508,26.949c0.009-0.136,0.035-0.202,0.061-0.265C48.538,26.686,48.565,27,48.508,26.949z"/>
				<path fill="#91D9F8" d="M49.725,23.718c0.048-0.063,0.135-0.219,0.213-0.251C49.863,23.515,49.729,23.798,49.725,23.718z"/>
				<path fill="#91D9F8" d="M50.798,22.618l0.124-0.054c0.097-0.023,0.017,0.04-0.056,0.074L50.798,22.618z"/>
				<polygon fill="#91D9F8" points="59.056,42.178 59.208,42.078 59.201,42.122 				"/>
				<path fill="#91D9F8" d="M45.755,42.766c-0.181-0.036-0.111-0.073-0.139-0.088C45.774,42.727,45.545,42.702,45.755,42.766z"/>
				<polygon fill="#91D9F8" points="39.518,39.128 39.555,39.17 39.485,39.204 				"/>
			</g>
		</g>
	</g>
	<g>
		<g>
			<path fill="none" d="M22.347,38.457c-7.365,2.769-8.348-3.488-4.092-6.072c9.851-5.98,22.258,16.969,8.019,21.795
				c-6.203,2.104-19.809-0.885-20.458-11.053C5,30.299,13.11,25.926,22.511,25.926"/>
			<g>
				<path fill="#91D9F8" d="M22.156,38.645c0.359-0.11-0.218-0.009,0.229-0.089C22.346,38.597,22.282,38.636,22.156,38.645z"/>
				<path fill="#91D9F8" d="M21.268,25.909c-1.193,0.221-2.789,0.174-4.049,0.638c-0.149,0.039,0.016-0.11-0.32-0.015
					c-1.236,0.306-3.113,1.054-4.538,1.677l0.064-0.079c-0.259,0.15-0.51,0.438-0.777,0.603c-0.013-0.016,0.068-0.08-0.007-0.062
					c-0.033,0.094-0.458,0.344-0.542,0.454c-0.117,0.052-0.135,0.008-0.285,0.078l-0.108,0.155c-0.36,0.348-0.887,0.824-1.299,1.378
					c0.01-0.036,0.046-0.094,0-0.064c-0.75,0.822-1.523,1.927-1.948,3.096c0-0.054-0.018-0.112-0.074-0.061
					c0.036,0.086-0.117,0.429-0.251,0.726c-0.108,0.114-0.247,0.502-0.342,0.87l-0.008-0.037c0.009,0.3-0.136,0.396-0.1,0.646
					l-0.095,0.159c0.071,0.148-0.143,0.385-0.145,0.627l0.022-0.003c-0.025,0.221-0.101,0.32-0.13,0.524l-0.016,0.017
					c-0.081,0.472-0.2,0.733-0.118,0.734c-0.101,0.153,0.075-0.457-0.076-0.216c-0.345,1.545-0.113,3.2-0.234,4.779
					c-0.036,0.182-0.048,0.298-0.08,0.34c-0.012,0.16,0.059,0.596,0.122,0.733c-0.01-0.053-0.026,0.105-0.018,0.189
					c0.012,0.292,0.133,0.3,0.144,0.619c-0.039-0.121-0.071-0.16-0.094-0.112c0.112,0.255,0.114,0.624,0.259,0.917
					c-0.028-0.044-0.06-0.115-0.081-0.098c0.177,0.314,0.185,0.612,0.323,0.891l-0.079-0.094c0.102,0.49,0.136,0.105,0.237,0.522
					c-0.045-0.092-0.051-0.051-0.074-0.062c0.19,0.353,0.516,0.907,0.709,1.252l-0.024-0.006c0.184,0.392,0.449,0.759,0.763,1.116
					c0.087,0.15-0.124,0.021,0.165,0.38c0.047-0.059,0.517,0.579,0.424,0.303c0.263,0.283,0.676,0.744,0.881,0.903
					c-0.148-0.098,0.059,0.219-0.178-0.006l0.138,0.217c-0.052,0.002-0.172-0.19-0.149-0.1c0.108,0.128,0.5,0.405,0.614,0.497
					c0.278,0.143,0.563,0.227,0.955,0.513c-0.203-0.11,0.045,0.163-0.087,0.081l0.668,0.223c0.141,0.079-0.009,0.08,0.205,0.18
					c0.003-0.027,0.098,0.012,0.169,0.031c0.047,0.041,0.586,0.324,0.604,0.441c0.045,0.068-0.235-0.119-0.097,0.002
					c0.259,0.151,0.295,0.111,0.564,0.243l0,0.014c0.174,0.096,0.545,0.212,0.372,0.075c-0.123-0.061,0.023,0.071-0.149-0.039
					c0.149,0.012,0.469,0.145,0.739,0.271c-0.098-0.029-0.097-0.002-0.144,0.004l1.23,0.348c0.021-0.039-0.184,0.018-0.238-0.026
					c0.52,0.257,1.138,0.326,1.579,0.517c-0.078-0.014-0.024-0.07-0.022-0.058c0.265,0.077,0.236,0.135,0.416,0.158
					c0.009,0.041,0.222,0.048,0.403,0.085c0.099-0.001,0.042,0.03-0.114-0.008c0.251,0.065,1.282,0.168,1.857,0.338
					c-0.009-0.019,0.374-0.034,0.509-0.021L19.25,54.36c0.12,0.047,0.457,0.043,0.474,0.095c0.299-0.039-1.129-0.061-0.729-0.072
					c0.096,0.059,0.56-0.032,0.466,0.036c0.274,0.027,0.545-0.009,0.801,0.072c-0.075-0.018-0.229,0.056-0.007,0.074
					c0.392,0.027,0.113-0.006,0.432-0.01l0.2-0.019c0.015-0.055,0.349,0.017,0.206-0.049c0.046,0.047,0.567-0.014,0.525,0.078
					l-0.056,0.071l0.41-0.098l0.059,0.034c0.026-0.101,0.403-0.006,0.6-0.103c0.354,0.015,0.895-0.04,1.066,0.004
					c0.265-0.075,0.501-0.151,0.81-0.174c-0.059,0.02-0.141,0.035-0.155,0.062c0.197,0.003,0.24-0.033,0.412-0.078
					c-0.034,0.032,0.394,0.001,0.609-0.031c0.252-0.102,0.147-0.136,0.164-0.178c0.268,0.042,0.711-0.245,1.009-0.313
					c-0.078,0.054-0.336,0.218-0.124,0.148c0.263-0.003,0.42-0.287,0.798-0.405l-0.125-0.042c0.183-0.023,0.5-0.293,0.506-0.192
					c0.104-0.085,0.437-0.171,0.354-0.229c0.682-0.128,1.224-0.946,1.66-1.033c0.062-0.07,0.252-0.206,0.184-0.209
					c-0.152,0.061-0.143,0.162-0.209,0.173c0.063-0.055,0.06-0.084,0.059-0.099c0.168-0.11,0.295-0.207,0.199-0.033
					c0.38-0.252,0.287-0.365,0.62-0.814c0.014,0.045,0.049,0.019,0.14-0.12l0.131-0.293c0.222-0.287,0.189-0.121,0.245-0.093
					c0.105-0.167,0.248-0.361,0.26-0.458l0.207-0.156c-0.16,0.111,0.082-0.139,0.076-0.246l-0.019,0.094
					c0.036-0.021,0.103-0.243,0.137-0.355c-0.045,0.011-0.141,0.221-0.195,0.333l0.089-0.387c0.04,0.067,0.152-0.28,0.213-0.423
					c0.076-0.162,0.021-0.208,0.041-0.255c0.032,0.007,0.108-0.27,0.101-0.125l-0.088,0.223c0.063-0.101,0.111-0.07,0.161-0.313
					c0.037-0.181-0.132,0.007,0.029-0.306l-0.005,0.186l0.147-0.298l-0.048-0.027l0.038-0.024c0.008-0.098,0.079-0.494,0.03-0.58
					l0.113-0.492l0,0.031c0.059-0.187,0.073-0.445,0.058-0.608l0.011,0.01c0.019-0.104,0.045-0.352,0.031-0.483
					c0.063-0.262,0.215-0.082,0.137-0.381c-0.017-0.273-0.125-0.426-0.155-0.316c0.011-0.488-0.108-1.031-0.045-1.491
					c-0.026-0.067-0.036-0.021-0.079-0.161c-0.133-0.705-0.388-1.458-0.404-2.045c0.067,0.196,0.057-0.003,0.086-0.016
					c-0.106-0.148-0.023-0.211-0.126-0.243c-0.042,0.03-0.071,0.022-0.02,0.217c-0.177-0.393-0.406-0.999-0.446-1.239
					c0.021,0.12-0.026,0.039-0.073-0.043c0.085,0-0.015-0.302-0.125-0.515l-0.056-0.012l-0.009-0.167
					c-0.045-0.08-0.128-0.052-0.2-0.279l0.014-0.084c-0.154-0.201-0.379-0.476-0.47-0.73l-0.042-0.228
					c-0.061-0.098-0.19-0.246-0.112-0.059c-0.186-0.42-0.301-0.696-0.35-0.838c-0.623-0.531-1.192-1.53-1.877-2.138l0.046-0.006
					c-0.147-0.198-0.136-0.047-0.236-0.187c0.081,0.033-0.077-0.187,0.089-0.078c-0.219-0.28-0.362-0.279-0.532-0.43
					c-0.057,0.01,0.149,0.108,0.077,0.121c-0.039-0.015-0.313-0.374-0.398-0.358c-0.052-0.072,0.042-0.078,0.093-0.064l-0.192-0.103
					c-0.141-0.242,0.558,0.268,0.415,0.015l-0.154-0.127c-0.09-0.191,0.446,0.298,0.095-0.069c-0.202-0.104-0.419-0.131-0.283,0.008
					c-0.377-0.251-0.277,0.012-0.661-0.275c-0.081-0.111,0.316,0.219,0.278,0.116c-0.148-0.181-0.387-0.242-0.538-0.378
					c0.165,0.155-0.03,0.104-0.153,0.03c-0.177-0.173,0.166,0.036-0.108-0.174c-0.069,0.001-0.34-0.159-0.136,0.027
					c-0.151,0.01-0.267-0.247-0.48-0.243c-0.069-0.104,0.397,0.012,0.071-0.174c0.021,0.081-0.463-0.116-0.327,0.052
					c-0.123-0.077-0.115-0.129,0-0.12c-0.175-0.124-0.51-0.105-0.521-0.251l-0.091,0.03l-0.214-0.18
					c-0.166-0.094-0.572-0.153-0.534-0.218c-0.061,0-0.471-0.082-0.33,0.015c0.242,0.087,0.307,0.006,0.42,0.121
					c-0.157-0.105-0.369-0.058-0.518-0.06l-0.015-0.042c-0.09-0.001-0.288-0.048-0.349-0.017c0.07-0.009,0.041-0.042-0.026-0.064
					l-0.101,0.041c-0.353-0.039-0.068-0.118-0.414-0.168l0.268,0.006c-0.059-0.001-0.17-0.079-0.339-0.093l-0.25,0.117
					c-0.193,0.044-0.085-0.051-0.276,0.024l0.251-0.091c0.04-0.021-0.167-0.07-0.432-0.042c-0.169,0.036-0.419,0.138-0.157,0.142
					c-0.129,0.014-0.314-0.001-0.214-0.05c-0.294,0.047,0.044,0.054-0.205,0.111c-0.107-0.025-0.44-0.045-0.652-0.078l0.253-0.112
					l-0.182,0.016c0.222-0.092-0.133-0.042-0.015-0.128c-0.134-0.016-0.273,0.062-0.378,0.138c0.37-0.028-0.331,0.321-0.195,0.382
					c-0.435,0.219-0.385-0.126-0.792,0.233c0.09-0.007-0.095,0.162,0.175,0.014c-0.287,0.108-0.14,0.18-0.49,0.275
					c0.224-0.142-0.322,0.014,0.004-0.193c-0.006,0.043,0.214-0.059,0.264-0.092c-0.137,0.012-0.025-0.109-0.321,0.016
					c-0.19,0.062-0.393,0.238-0.328,0.267c0.034,0.038,0.231-0.179,0.161-0.061c-0.279,0.261-0.385,0.226-0.438,0.416
					c0.179-0.16,0.261-0.146,0.282-0.106l-0.192,0.195l0.015-0.066c-0.355,0.256-0.052,0.143-0.382,0.4l-0.211,0.065
					c0.03-0.116,0.499-0.37,0.366-0.411c-0.22,0.176-0.251,0.278-0.476,0.423l0.136-0.142c-0.063,0.072-0.305-0.012-0.482,0.366
					c-0.083,0.197,0.003,0.072,0.034,0.104c-0.227,0.384-0.261,0.517-0.408,0.756c-0.042-0.09-0.284,0.416-0.188,0.114
					c0.127-0.101,0.465-0.634,0.486-0.82c-0.153,0.089,0.168-0.316,0.211-0.412c-0.268,0.25-0.285,0.215-0.385,0.213l-0.12,0.248
					c0.026,0.072,0.099-0.043,0.154-0.012c-0.235,0.337-0.423,0.689-0.491,0.899c-0.059,0.118-0.139,0.042-0.051-0.097l-0.36,1.415
					c0.049-0.282,0.111,0.493,0.159,0.293c-0.019-0.234,0.018-0.422,0.084-0.297c0.021,0.137-0.044-0.006-0.055,0.052
					c0.088,0.174-0.036,0.286,0.078,0.453c-0.1-0.401-0.134-0.066-0.224-0.131c0.095,0.308-0.058-0.007-0.006,0.309
					c0.033,0.337,0.252,0.648,0.509,0.894c0.122,0.491,0.813,0.703,1.172,0.845c0.173,0.125,0.017,0.148,0.223,0.262
					c0.249,0.105-0.162-0.158,0.2,0.013l-0.043,0.016c0.124-0.018,0.741,0.081,0.868-0.042l-0.131,0.092l0.21-0.018
					c0.001,0.031,0.09,0.063-0.036,0.079c0.253,0.074,0.536,0.006,0.809,0.012l-0.181-0.062c0.464,0.007,0.766-0.14,1.208-0.236
					l-0.002,0.058l0.256-0.101c-0.052,0.069,0.199,0.039,0.327-0.04l-0.659,0.312c-0.199,0.018,0.197-0.12,0.065-0.143
					c-0.112-0.021-0.517,0.101-0.576,0.171c0.159-0.035,0.164-0.049,0.283-0.101c0.066,0.063-0.174,0.122-0.286,0.204
					c0.083-0.025,0.206-0.032,0.219-0.062c-0.159,0.068-0.319,0.153-0.6,0.176c0.189-0.024-0.11-0.05-0.039-0.07
					c-0.015,0.067-0.289,0.081-0.644,0.052c-0.247-0.087-0.667,0.029-1.081-0.007l0.646-0.13c-0.248-0.042-0.281-0.007-0.526-0.049
					c-0.135,0.063-0.232,0.113-0.553-0.01v-0.056c-0.286-0.104-0.321-0.036-0.678-0.219c-0.602-0.284-0.973-1.021-1.167-1.444
					l0.044-0.035c-0.117-0.249-0.278-0.945-0.219-1.318c0.187-0.633,0.268-1.425,0.605-1.633c0.506-1.03,1.32-1.729,2.345-2.286
					l-0.147,0.143c0.167-0.13,0.146-0.017,0.33-0.106c-0.245,0.041,0.229-0.181,0.348-0.28c0.507-0.159,1.097-0.509,1.583-0.536
					l0.026,0.048c0.46-0.107,1.05-0.193,1.625-0.072c0.064,0.034,0.164,0.101,0.335,0.127c0.325-0.021,0.489,0.015,0.966,0.056
					c0.357,0.017,0.836,0.329,1.143,0.488c1.253,0.37,2.272,1.265,3.279,2.111l0.026,0.111c1.054,0.782,1.879,2.159,2.542,3.03
					l-0.137-0.039c0.136,0.317,0.394,0.673,0.416,0.561c0.137,0.318,0.453,0.735,0.482,0.966c0.143,0.321,0.266,0.351,0.373,0.625
					c0.215,0.677,0.314,0.917,0.567,1.536l-0.052-0.157c-0.047-0.062-0.09-0.053-0.038,0.104c0.131,0.219,0.269,0.87,0.312,0.6
					c0.077,0.715,0.436,1.616,0.448,2.318c0.03-0.063,0.045,0.111,0.072,0.183c0.036,0.634,0.003,1.296,0.084,1.799
					c-0.011,0.099-0.064-0.161-0.055,0.095c0.012,0.151,0.049,0.004,0.046,0.192c-0.105,1.025-0.252,2.079-0.666,2.934
					c-0.402,1.632-1.637,3.054-2.893,3.998l-0.001-0.03c-0.341,0.458-1.04,0.686-1.379,0.942c-0.125,0.033-0.44,0.194-0.377,0.112
					c-0.364,0.224-1.08,0.482-1.635,0.739l0.145-0.053c-0.613,0.097-1.116,0.359-1.77,0.381c0.063-0.021,0.18-0.046,0.194-0.073
					c-0.252-0.009-0.569,0.191-0.72,0.096c-0.141,0.022-0.094,0.073-0.007,0.057c-1.403,0.114-2.906,0.216-4.364,0.06
					c-1.033-0.184-0.04-0.196-0.869-0.211c-0.063-0.034-0.055,0.036-0.062,0.01c-0.319-0.025-0.466-0.22-0.693-0.199
					c0.076,0.088-0.152,0.013-0.167,0.055c-0.621-0.155-0.729-0.247-1.226-0.331l0.046-0.027c-0.596-0.052-1.246-0.265-1.75-0.339
					c-3.088-1.026-5.943-2.752-7.82-5.481c-1.925-2.745-1.93-6.125-1.7-9.249c0.095-0.742,0.141-0.79,0.285-1.604
					c0.008,0.035,0.001,0.087,0.028,0.035c-0.071-0.055,0.123-0.569,0.063-0.662c0.305-1.153,0.398-2.273,1.066-3.346
					c-0.08,0.179-0.063,0.293,0.036,0.084l0.062-0.238l0.038-0.025c0.061-0.147,0.103-0.321,0.005-0.186
					c1.179-2.951,3.883-4.913,6.563-6.16c0.683-0.22,1.604-0.679,2.344-0.911c2.27-0.468,4.298-0.599,6.613-0.738
					C22.511,25.572,22.208,25.802,21.268,25.909z"/>
				<path fill="#91D9F8" d="M21.718,38.768c-0.091-0.019-0.351,0.025-0.164-0.08C21.59,38.719,21.734,38.726,21.718,38.768z"/>
				<path fill="#91D9F8" d="M16.128,36.833l0.005-0.112l0.049,0.204C16.168,36.849,16.15,36.865,16.128,36.833z"/>
				<path fill="#91D9F8" d="M16.271,35.24c0.029,0.037-0.022,0.382-0.067,0.578L16.271,35.24z"/>
				<path fill="#91D9F8" d="M17.131,33.986c0.093-0.091,0.086-0.049-0.006,0.097L17.131,33.986z"/>
				<path fill="#91D9F8" d="M17.125,33.841c0.058-0.116,0.141-0.129,0.201-0.157C17.281,33.652,17.133,33.904,17.125,33.841z"/>
				<path fill="#91D9F8" d="M19.991,32.162c0.075-0.027,0.222-0.152,0.309-0.107C20.207,32.026,19.95,32.246,19.991,32.162z"/>
				<path fill="#91D9F8" d="M21.513,31.877l0.129-0.014c0.093,0.007-0.005,0.043-0.082,0.055L21.513,31.877z"/>
				<polygon fill="#91D9F8" points="26.842,53.611 26.995,53.519 26.986,53.563 				"/>
				<path fill="#91D9F8" d="M14.014,52.978c-0.17-0.055-0.099-0.084-0.124-0.102C14.038,52.941,13.819,52.893,14.014,52.978z"/>
				<polygon fill="#91D9F8" points="8.197,48.998 8.23,49.041 8.162,49.073 				"/>
			</g>
		</g>
	</g>
	<g>
		<g>
			<path fill="none" d="M81.01,47.715c-6.598,2.153-10.384-13.338,2.154-12.126c10.398,1.006,10.748,16.242-2.009,19.997
				c-5.557,1.637-18.034-0.969-16.421-14.29c1.204-9.949,14.955-17.32,25.469-5.81"/>
			<g>
				<path fill="#91D9F8" d="M80.785,47.89c0.403-0.087-0.236-0.023,0.259-0.073C80.998,47.854,80.923,47.89,80.785,47.89z"/>
				<path fill="#91D9F8" d="M89.307,34.489c-1.016-0.809-2.276-1.981-3.543-2.639c-0.151-0.072,0.091-0.069-0.253-0.227
					c-1.259-0.558-3.201-1.541-4.878-1.854l0.105-0.01l-1.048-0.112c-0.001-0.02,0.111-0.023,0.036-0.053
					c-0.092,0.055-0.619,0-0.766,0.039c-0.134-0.029-0.118-0.075-0.292-0.108l-0.197,0.059c-0.539,0.091-1.311,0.04-2.037,0.196
					c0.033-0.019,0.104-0.039,0.044-0.048c-1.159,0.227-2.59,0.622-3.771,1.202c0.038-0.042,0.065-0.1-0.017-0.095
					c-0.024,0.104-0.415,0.23-0.7,0.443c-0.172,0.017-0.488,0.363-0.863,0.537l0.022-0.031c-0.22,0.221-0.418,0.186-0.572,0.399
					l-0.185,0.073c-0.045,0.165-0.379,0.229-0.546,0.427l0.02,0.012c-0.171,0.166-0.301,0.202-0.463,0.352l-0.024,0.004
					c-0.404,0.321-0.608,0.543-0.558,0.577c-0.171,0.084,0.329-0.38,0.066-0.244c-1.184,1.231-2.245,2.639-2.994,4.182
					c-0.129,0.154-0.174,0.27-0.217,0.299c-0.044,0.167-0.209,0.613-0.224,0.772c0.019-0.055-0.077,0.09-0.111,0.175
					c-0.137,0.284-0.034,0.347-0.186,0.657c0.026-0.134,0.018-0.186-0.027-0.15c-0.041,0.292-0.096,0.681-0.154,1.021
					c-0.002-0.056,0.006-0.139-0.021-0.132c-0.005,0.385-0.151,0.675-0.172,1.006l-0.021-0.127c-0.146,0.52,0.07,0.167-0.003,0.621
					c-0.008-0.112-0.028-0.075-0.046-0.097c0.058,0.438-0.011,1.128-0.008,1.556l-0.018-0.019c-0.045,0.466-0.014,0.953,0.059,1.462
					c-0.006,0.188-0.117-0.054-0.063,0.439c0.091-0.026,0.1,0.833,0.182,0.529c0.018,0.419,0.172,1.069,0.25,1.337
					c-0.076-0.177-0.065,0.228-0.15-0.114l0.004,0.274c-0.045-0.03-0.048-0.272-0.076-0.178c0.043,0.173,0.191,0.667,0.211,0.825
					c0.175,0.29,0.386,0.532,0.589,1.014c-0.125-0.216-0.042,0.171-0.119,0.021l0.44,0.604c0.093,0.146-0.046,0.065,0.104,0.271
					c0.016-0.022,0.085,0.064,0.141,0.12c0.025,0.062,0.387,0.605,0.35,0.721c0.01,0.087-0.162-0.234-0.09-0.05
					c0.175,0.271,0.176,0.288,0.391,0.529l-0.005,0.013c0.125,0.172,0.431,0.458,0.323,0.249c-0.092-0.115-0.007,0.077-0.126-0.107
					c0.137,0.082,0.385,0.357,0.589,0.603c-0.08-0.074-0.09-0.048-0.137-0.064c0.308,0.304,0.68,0.57,1.053,0.868
					c0.035-0.027-0.185-0.06-0.223-0.124c0.402,0.479,1.007,0.762,1.396,1.096c-0.074-0.04-0.003-0.076-0.005-0.063
					c0.241,0.169,0.196,0.215,0.369,0.303c0,0.038,0.2,0.139,0.389,0.208c0.104,0.022,0.037,0.039-0.119-0.036
					c0.276,0.074,1.246,0.603,1.844,0.829c-0.002-0.027,0.399,0.053,0.534,0.106l-0.072,0.034c0.115,0.078,0.461,0.171,0.471,0.221
					c0.314,0.049-1.153-0.367-0.738-0.268c0.088,0.083,0.584,0.121,0.474,0.163c0.273,0.114,0.575,0.102,0.831,0.23
					c-0.075-0.029-0.253,0.016-0.021,0.072c0.411,0.097,0.123,0.004,0.459,0.072l0.212,0.031c0.024-0.046,0.363,0.095,0.224,0.002
					c0.042,0.053,0.606,0.068,0.548,0.153l-0.07,0.062l0.452-0.036l0.057,0.043c0.045-0.111,0.426,0.093,0.652,0.008
					c0.375,0.065,0.961,0.071,1.138,0.153c0.294-0.033,0.559-0.084,0.892-0.065c-0.066,0.013-0.156,0.018-0.175,0.041
					c0.21,0.028,0.261-0.002,0.451-0.023c-0.041,0.028,0.421,0.046,0.657,0.047c0.286-0.067,0.179-0.115,0.203-0.154
					c0.283,0.093,0.795-0.175,1.13-0.168c-0.093,0.037-0.399,0.147-0.158,0.12c0.281,0.033,0.509-0.166,0.922-0.272l-0.125-0.051
					c0.195-0.013,0.573-0.27,0.562-0.167c0.124-0.081,0.485-0.147,0.409-0.215c0.708-0.134,1.563-0.67,1.997-0.773
					c0.082-0.062,0.311-0.17,0.242-0.185c-0.171,0.037-0.188,0.144-0.259,0.145c0.078-0.047,0.083-0.077,0.086-0.093
					c0.201-0.087,0.355-0.165,0.211-0.001c0.448-0.202,0.384-0.341,0.901-0.668c-0.001,0.047,0.044,0.03,0.184-0.085l0.234-0.26
					c0.324-0.23,0.23-0.071,0.276-0.027c0.163-0.14,0.374-0.297,0.421-0.392l0.258-0.1c-0.193,0.068,0.126-0.124,0.175-0.22
					l-0.06,0.084c0.045-0.008,0.205-0.201,0.286-0.298c-0.048-0.006-0.23,0.167-0.334,0.256l0.255-0.344
					c0.009,0.079,0.27-0.221,0.391-0.339c0.144-0.132,0.111-0.196,0.151-0.235c0.026,0.018,0.222-0.226,0.15-0.087l-0.182,0.188
					c0.105-0.076,0.137-0.029,0.291-0.249c0.115-0.165-0.127-0.042,0.163-0.291l-0.088,0.181l0.263-0.244l-0.035-0.048l0.042-0.014
					c0.014-0.124,0.293-0.458,0.285-0.563l0.348-0.426l-0.015,0.03c0.14-0.158,0.301-0.388,0.339-0.566l0.007,0.015
					c0.053-0.101,0.16-0.349,0.192-0.492c0.161-0.239,0.23,0.006,0.306-0.314c0.126-0.267,0.104-0.455,0.021-0.363
					c0.293-0.447,0.294-1.073,0.54-1.505c0-0.077-0.028-0.035,0.004-0.187c0.174-0.743,0.219-1.598,0.312-2.198
					c0.031,0.223,0.057,0.016,0.088,0.012c-0.057-0.185,0.044-0.224-0.044-0.288c-0.05,0.019-0.075,0.001-0.087,0.216
					c-0.063-0.452-0.027-1.147-0.068-1.396c0.003,0.127-0.032,0.032-0.067-0.062c0.086,0.021,0.029-0.313-0.051-0.556l-0.055-0.023
					l0.016-0.174c-0.035-0.092-0.121-0.079-0.126-0.337l0.035-0.087c-0.122-0.238-0.335-0.549-0.397-0.826l-0.021-0.244
					c-0.053-0.109-0.167-0.28-0.106-0.073c-0.124-0.476-0.361-0.701-0.37-0.876c-0.543-0.639-1.347-1.539-2.158-2.046l0.045-0.014
					c-0.195-0.172-0.147-0.021-0.282-0.143c0.089,0.018-0.123-0.175,0.069-0.097c-0.296-0.232-0.419-0.235-0.648-0.312
					c-0.055,0.025,0.192,0.048,0.119,0.087c-0.039-0.012-0.457-0.228-0.539-0.186c-0.074-0.061,0.015-0.083,0.073-0.091
					l-0.225-0.053c-0.229-0.185,0.654,0.101,0.425-0.104l-0.204-0.07c-0.162-0.147,0.568,0.138,0.072-0.092
					c-0.236-0.057-0.459-0.033-0.278,0.075c-0.456-0.164-0.27,0.078-0.74-0.122c-0.117-0.093,0.382,0.146,0.311,0.052
					c-0.206-0.15-0.458-0.16-0.671-0.201c0.229,0.07,0.01,0.104-0.144,0.088c-0.248-0.081,0.184-0.034-0.179-0.11
					c-0.07,0.029-0.408-0.003-0.127,0.08c-0.149,0.068-0.37-0.098-0.578-0.063c-0.108-0.089,0.398-0.081,0.003-0.19
					c0.053,0.076-0.504-0.008-0.305,0.128c-0.152-0.049-0.164-0.103-0.046-0.12c-0.219-0.094-0.563,0.095-0.628-0.046L82.561,36
					l-0.288-0.078c-0.204-0.005-0.65,0.077-0.634-0.022c-0.065,0.009-0.527-0.005-0.346,0.068c0.287,0.048,0.328-0.044,0.488,0.052
					c-0.203-0.079-0.411,0.002-0.573,0.023l-0.029-0.039c-0.099-0.001-0.318,0.032-0.373,0.085c0.07-0.034,0.03-0.054-0.046-0.05
					l-0.094,0.075c-0.38,0.094-0.104-0.087-0.479-0.007l0.28-0.093c-0.062,0.021-0.199-0.013-0.379,0.036l-0.231,0.2
					c-0.206,0.057-0.108-0.044-0.304,0.044l0.258-0.107c0.039-0.024-0.204-0.056-0.491-0.007c-0.17,0.077-0.401,0.265-0.131,0.182
					c-0.13,0.055-0.324,0.099-0.233,0.02c-0.291,0.14,0.059,0.039-0.185,0.174c-0.116,0.01-0.464,0.095-0.688,0.129l0.233-0.19
					l-0.183,0.073c0.206-0.16-0.146,0-0.045-0.122l-0.372,0.223c0.375-0.129-0.268,0.403-0.111,0.425
					c-0.395,0.329-0.434-0.018-0.764,0.442c0.091-0.033-0.055,0.181,0.185-0.038c-0.267,0.186-0.073,0.234-0.354,0.481
					c0.143-0.249-0.275,0.164-0.067-0.199c0.011,0.046,0.165-0.161,0.198-0.219c-0.115,0.076-0.061-0.102-0.275,0.166
					c-0.124,0.17-0.304,0.394-0.23,0.396c0.056,0.031,0.192-0.248,0.16-0.106c-0.234,0.33-0.373,0.323-0.367,0.523
					c0.139-0.214,0.244-0.217,0.272-0.19l-0.158,0.24l-0.004-0.068c-0.238,0.402,0.004,0.163-0.199,0.563l-0.166,0.158
					c-0.018-0.129,0.31-0.588,0.174-0.57c-0.132,0.272-0.121,0.388-0.27,0.631L75.81,39.1c-0.037,0.098-0.264,0.128-0.317,0.573
					c-0.016,0.231,0.026,0.07,0.067,0.089c-0.094,0.479-0.082,0.629-0.146,0.933c-0.104-0.08-0.037,0.553-0.115,0.195
					c0.034-0.161,0.223-0.835,0.17-1.031c-0.13,0.15,0.078-0.381,0.065-0.497c-0.17,0.36-0.203,0.334-0.298,0.374l-0.032,0.294
					c0.049,0.062,0.08-0.083,0.144-0.075c-0.114,0.434-0.196,0.86-0.111,1.114c-0.034,0.146-0.094,0.097-0.095-0.083
					c-0.001,0.538-0.046,1.109,0.05,1.617c0.052-0.34,0.104,0.559,0.153,0.321c-0.016-0.272,0.021-0.508,0.087-0.369
					c0.018,0.165-0.044,0.001-0.056,0.073c0.084,0.201-0.038,0.345,0.075,0.535c-0.099-0.47-0.132-0.068-0.222-0.141
					c0.102,0.342-0.074,0,0.013,0.343l0.457,1.098c0.168,0.463,0.541,1.133,0.855,1.44c0.11,0.205-0.055,0.137,0.09,0.347
					c0.184,0.233-0.063-0.235,0.176,0.137l-0.039-0.022c0.067,0.115,0.568,0.572,0.733,0.563l-0.162-0.01l0.188,0.125
					c-0.016,0.027,0.042,0.112-0.073,0.043c0.156,0.258,0.491,0.296,0.757,0.421l-0.147-0.131c0.463,0.196,0.752,0.368,1.248,0.378
					l-0.021,0.053l0.291,0.008c-0.075,0.025,0.193,0.155,0.345,0.052c-0.248,0.092-0.507,0.042-0.773,0.068
					c-0.209-0.063,0.244-0.033,0.117-0.106c-0.104-0.07-0.557-0.095-0.64-0.086c0.163,0.062,0.183,0.029,0.319,0.035
					c0.043,0.074-0.231,0.064-0.368,0.051c0.082,0.053,0.218,0.065,0.241,0.054c-0.201,0.034-0.363-0.077-0.649-0.197
					c0.202,0.061-0.085-0.092-0.003-0.078c-0.043,0.042-0.346-0.035-0.656-0.259c-0.157-0.241-0.598-0.406-0.903-0.735
					c0.164,0.093,0.396,0.181,0.609,0.332c-0.187-0.199-0.234-0.191-0.419-0.39c-0.12-0.065-0.234-0.088-0.482-0.354l0.027-0.047
					c-0.212-0.244-0.301-0.187-0.51-0.548c-0.334-0.638-0.639-1.302-0.76-1.837l0.042-0.033c-0.234-0.25-0.258-0.968-0.36-1.365
					c-0.039-0.686-0.072-1.519,0.067-1.856c0.172-1.206,0.58-2.278,1.48-3.215l-0.082,0.218c0.104-0.214,0.125-0.087,0.257-0.267
					c-0.224,0.137,0.16-0.276,0.285-0.382c0.483-0.32,1.051-0.776,1.535-0.966l0.038,0.04c0.433-0.321,1.047-0.421,1.681-0.466
					c0.075,0.009,0.194,0.037,0.378,0.001c0.327-0.129,0.505-0.195,1.004-0.216c0.366,0.006,0.962,0.037,1.33,0.076
					c1.391-0.041,2.774,0.399,4.103,0.995l0.059,0.11c1.31,0.593,2.487,1.957,3.102,2.994l-0.15-0.047
					c0.202,0.316,0.43,0.736,0.454,0.621c0.114,0.362,0.402,0.863,0.412,1.114c0.113,0.367,0.157,0.445,0.249,0.756
					c0.129,0.769,0.204,1.044,0.224,1.776v-0.182c-0.025-0.079-0.069-0.083-0.069,0.098c0.038,0.271,0.007,0.996,0.119,0.729
					c-0.118,0.762-0.065,1.836-0.409,2.531c0.051-0.053,0.003,0.132,0.001,0.215c-0.159,0.674-0.484,1.313-0.698,1.814
					c-0.062,0.09,0.023-0.181-0.1,0.068c-0.06,0.153,0.038,0.021-0.033,0.214c-0.447,1.012-1.194,1.905-1.877,2.618
					c-1.1,1.426-2.738,2.396-4.224,3.19l0.006-0.031c-0.448,0.39-1.268,0.405-1.631,0.717c-0.134,0.025-0.484,0.168-0.406,0.089
					c-0.391,0.251-1.226,0.321-1.858,0.524l0.161-0.04c-0.665,0.025-1.238,0.209-1.938,0.151c0.07-0.013,0.198-0.022,0.218-0.048
					c-0.269-0.041-0.635,0.116-0.782,0.002c-0.153,0.004-0.11,0.062-0.016,0.056c-1.519-0.07-3.136-0.241-4.673-0.674
					c-1.046-0.46-0.001-0.21-0.869-0.439c-0.061-0.047-0.065,0.023-0.068-0.004c-0.335-0.096-0.458-0.297-0.692-0.358
					c0.059,0.11-0.159-0.035-0.185,0.001c-0.596-0.364-0.699-0.458-1.195-0.692l0.054-0.01c-0.574-0.288-1.209-0.685-1.67-0.988
					c-2.849-2.258-4.191-5.82-4.278-9.271c-0.146-3.402,0.914-6.929,3.212-9.589c0.623-0.545,0.676-0.571,1.271-1.249
					c-0.015,0.038-0.051,0.081,0.001,0.049c-0.038-0.106,0.452-0.439,0.479-0.539c0.999-0.825,1.996-1.486,3.19-2.08
					c-0.191,0.089-0.258,0.189-0.03,0.088l0.219-0.147l0.049,0.004c0.152-0.077,0.31-0.186,0.135-0.142
					c3.062-1.405,6.593-1.525,9.707-0.556c0.701,0.333,1.806,0.553,2.525,1.003c2.233,1.157,3.794,2.778,5.625,4.466
					C90.465,35.248,90.074,35.163,89.307,34.489z"/>
				<path fill="#91D9F8" d="M80.292,47.984c-0.096-0.026-0.378-0.001-0.158-0.094C80.166,47.924,80.317,47.942,80.292,47.984z"/>
				<path fill="#91D9F8" d="M75.387,43.282l-0.006-0.128l0.08,0.231C75.431,43.299,75.417,43.317,75.387,43.282z"/>
				<path fill="#91D9F8" d="M75.232,41.446c0.044,0.029,0.031,0.421,0.068,0.648L75.232,41.446z"/>
				<path fill="#91D9F8" d="M75.62,39.804c0.06-0.131,0.067-0.087,0.025,0.101C75.624,39.913,75.627,39.848,75.62,39.804z"/>
				<path fill="#91D9F8" d="M75.566,39.664c0.022-0.14,0.1-0.185,0.14-0.241C75.665,39.413,75.597,39.721,75.566,39.664z"/>
				<path fill="#91D9F8" d="M77.824,36.973c0.061-0.063,0.205-0.186,0.307-0.167C78.017,36.792,77.797,37.058,77.824,36.973z"/>
				<path fill="#91D9F8" d="M79.34,36.252l0.141-0.024c0.105,0,0.006,0.043-0.078,0.06L79.34,36.252z"/>
				<polygon fill="#91D9F8" points="80.91,55.361 81.089,55.299 81.073,55.342 				"/>
				<path fill="#91D9F8" d="M67.858,51.8c-0.138-0.131-0.059-0.125-0.076-0.153C67.895,51.776,67.709,51.628,67.858,51.8z"/>
				<polygon fill="#91D9F8" points="64.778,44.958 64.784,45.018 64.708,45.005 				"/>
			</g>
		</g>
	</g>
</g>
</svg>
