<?xml version="1.0" encoding="utf-8"?>
<!-- Generator: Adobe Illustrator 13.0.0, SVG Export Plug-In . SVG Version: 6.00 Build 14948)  -->
<svg version="1.2" baseProfile="tiny" id="Layer_1" xmlns="http://www.w3.org/2000/svg" xmlns:xlink="http://www.w3.org/1999/xlink"
	 x="0px" y="0px" width="390.304px" height="413.103px" viewBox="0 0 390.304 413.103" xml:space="preserve">
<g>
	<path fill="#010101" d="M0.004,24.715c0,0-0.5,14.5,9,20.5s12,2,12,2s1.5,6,6,7s6-1,6-1l13,15c0,0-29,38,9.5,95
		s93.982,119.482,112,137.5c27,27,37,8.5,42.5-15.5c5.31-23.169-1-46.5-1-46.5s19.5,33,18.5,64c-0.323,10.007-3.5,19.5-3.5,19.5
		s-37.5,53.5-13.5,81s83-9,107.5-29s69-64,63.5-86s-100,19-100,19l-95-115c0,0,35,67.5,21.5,88c-9.723,14.764-52-14.5-76-43
		s-79.5-101.5-75.5-127.5s15-36,15-36s-49.5-52-54-56S0.004,24.715,0.004,24.715z"/>
	<path fill="#010101" d="M65.504,96.715c0,0,18.5,16,23,29s2.5,23,2.5,23s4.5-17,10.5-11.5s38.723,87.722,44,80.5
		c9.5-13,28.5,8.5,32.5,23s10,28,10,28s-19.5-70.5-52-114.5s-67-67-67-67L65.504,96.715z"/>
	<path fill="#EEC61A" d="M6.504,32.715c0,0,2.5,3.5,6.5,4s5.5-0.5,5.5-0.5s5.5,9,8,10.5s5.5,0.5,5.5,0.5l24,30c0,0-11,19-8.5,42
		s33,73,71,117s66.5,74.5,79.5,63s10.5-34.5,10.5-34.5s-10,18.5-22.5,16.5s-41-55-41-55l11.5-25.5l-21-25l-36.5-45l-13.5,25
		c0,0-18.5-19.5-18.5-37s5-26,5-26s-3.5-8,0-10s12.5,0.5,12.5,0.5s3-3-1-7.5s-11.5-12.5-13.5-12.5s-26.5-29.5-26.5-29.5l-6-11
		c0,0,1.5-11-2-16.5s-13.5-7.5-25-1.5S2.004,26.715,6.504,32.715z"/>
	<path fill="#EEC61A" d="M76.004,61.715c0,0,7.5-5.5,16.5,1.5s27.5,27,27.5,27l3-1.5l3.5-7c0,0-7-6.5-2.5-12.5s8-1.5,18,2.5
		s13.5,8,13.5,10.5s-1.5,5.5-1.5,5.5s7,3.5,12.5,7.5s6.5,12,6.5,12s5.5,3,14.5,8.5s11.5,11,7.5,14.5s-11.5,2.5-11.5,2.5l-4.5,6.5
		c0,0,6,7.5,3.5,12.5s-2.5,5-2.5,5l25,31l5,1l12,15.5l3.5,4.5c0,0,25,30,56.5,38.5s36.5,1.5,49-1.5s38-7.5,52,4.5s7.5,58.5-44.5,101
		s-97.5,63.5-118.5,35s13.5-66,13.5-66s-1-43-11-62.5s-22.5-41.5-22.5-41.5s10,12.5,5,36s-15,25-15,25s13-21.5-9.5-53.5
		s-110-132.5-110-132.5s-1.5-8,5-8.5s11,3,11,3s-1-10.5-6.5-15S76.004,61.715,76.004,61.715z"/>
	<g>
		<path fill="none" d="M230.004,392.215c-18-51,49-97,89-111c16-6,55-17,40,9c-12,22-47,46-69,56"/>
		<g>
			<path fill="#F6E681" d="M290.798,347.961c-0.704,2.04,1.988,3.337,4.448,4.343l-1.263-6.24L290.798,347.961z"/>
			<path fill="#F6E681" d="M299.031,345.814c0.264-2.522,0.446-5.074,0.595-7.603l-1.105,4.155
				c-4.425-1.372-2.755-6.157-2.322-7.792C292.361,338.404,298.073,342.211,299.031,345.814z"/>
			<path fill="#F6E681" d="M303.748,337.484c2.498-0.944-0.277-4.156-1.864-4.746C302.645,334.358,302.149,336.913,303.748,337.484z
				"/>
			<path fill="#F6E681" d="M281.46,279.654c1.141,0.369,2.259,0.437,2.709,1.506C284.354,279.679,284.042,278.71,281.46,279.654z"/>
			<path fill="#F6E681" d="M284.169,281.16l-0.149,0.895c0.11-0.168,0.222-0.275,0.317-0.519
				C284.306,281.372,284.221,281.284,284.169,281.16z"/>
			<path fill="#F6E681" d="M347.686,310.276c1.202-3.4,2.456-1.572,3.237-2.974c0.359,1.686,0.496,3.427,0.623,5.14
				c-0.188-1.696,0.054-4.391-0.235-7.07c-0.43,1.48-1.626,1.95-6.543-0.462c-5.183-2.066-11.56-10.952-12.317-13.95
				c-4.277-3.488-0.569,7.056,0.595,9.764c-5.943-8.711-4.37-14.724-3.469-17.546c1.176-3.745,2.683-5.669,3.295-7.683l-1.341-0.435
				c2.269-1.104,3.549-0.166,2.851,2.652c0.141,1.676-0.547,3.628-1.391,5.596c-1.795,4.017-4.971,8.188-7.06,13.304
				c0.695-0.264,1.305,0.647,2.212,1.225c-6.757,8.903-17.091,16.81-18.559,32.208c4.681-4.482,18.88-4.584,18.357-16.051
				c4.252,1.269,3.661-5.237,7.852-1.987c8.668-4.863,5.018-14.178,9.743-20.549c1.42-0.379,3.145,1.584,5.318,2.742
				c-0.622,2.408-1.643,4.702-2.526,7.13l4.438-2.141c0.584,3.013-3.852,5.589-0.86,9.099c0.404-8.303,10.401-14.975,6.617-22.98
				c-1.918,1.689-2.488,5.134-4.381,7.46c-2.158,0.18-4.295,1.075-6.227-0.519c-0.639-5.047,0.422-9.011,1.089-11.109
				c0.272-0.895,0.169-1.696,0.087-0.081c-0.431,1.746,2.676,6.261,3.743,6.745c1.081,0.955-0.343,0.169-0.51-2.202
				c0.892-0.802,0.405-2.884,1.284-3.976c-2.362,1.949-0.573,8.774-3.345,7.854c-0.028-2.855-0.016-5.715,0.039-8.576
				c-0.764,9.036-5.049-1.16-7.361,4.658c-1.745-3.143-0.106-5.524,2.278-6.121c-2.991-1.045-2.352,3.927-4.457,4.227
				c0.16-2.516,0.369-5.062,0.639-7.58c-1.008,7.294-4.548-0.423-6.608-2.323c0.278,1.766,2.839,6.839-0.204,7.189
				c-1.507-0.56-1.342-2.513-1.915-3.431c0.297,1.781,0.108,5.237-1.741,5.989c-1.057-2.238,0.249-3.905-0.297-6.342
				c-1.476,0.571-2.545,1.398-4.243-0.185c-2.037,2.778,1.228,3.301,0.444,6.336c-4.515-0.333-3.062-7.911-6.213-12.313
				c2.092-4.413,6.115-6.736,7.446-9.095c-2.019,1.25-3.986,2.519-5.905,3.83c-0.45-2.887-5.92-3.245-3.322-7.022
				c-7.518-0.299-13.859,5.473-19.108,10.374c1.253,0.531,2.577,0.617,3.118,2.344c-2.357,2.86-3.45-0.508-4.954-2.117
				c-1.424,2.854,0.93,7.198,1.203,11.133c-6.236-1.585-5.664,0.999-12.249-2.321l2.582,4.225c-4.527-2.045-1.277,4.676-5.448,3.73
				c-0.687-0.828-0.271-2.55,0.033-4.033c-1.668,2.815-4.385-2.267-5.852,0.815l-0.865-5.888c-1.903,1.321-3.877,4.547-5.333-0.081
				c-0.48,6.897-7.539,8.911-9.718,14.497l-2.235-3.66c0.95,5.664-7.901,5.625-5.751,11.91l-1.394-1.103
				c-0.106,2.597-0.169,5.16-0.189,7.689c-2.043,1.122-5.739-4.196-4.692-2.743c-3.103,4.296-5.71,7.312-9.642,8.238
				c3.502,4.604,0.981,9.477-1.129,13.222c-7.868,6.697-13.687,16.668-15.826,27.616c-2.223,10.963-0.121,22.483,4.633,30.763
				c0.688,2.756,7.774,4.727,11.256,6.314c0.392-3.676-2.597-3.128-3.246-6.575c0.939-2.835,6.906-4.469,10.344-6.317
				c-1.632,0.373-3.163,0.78-4.747,1.231c-4.089-2.91,2.498-2.043-2.446-4.521l7.799,0.363c-3.901-0.903-0.548-2.738,1.568-3.124
				l-5.232-1.454c3.181-1.372,4.662-2.161,9.569-1.482l-4.848-0.992c3.03,0.143,1.419-6.533,8.747-1.836
				c-0.961-0.772-3.171-2.084-2.217-2.863l4.623,1.731c-0.731-1.726-0.746-3.714,1.893-2.826c0.717,1.229,2.562,2.379,4.419,3.505
				c3.33-4.51-13.932-8.455-10.914-14.377l2.65,1.8l-1.894-3.324l4.375,0.805c-7.393-8.656,6.797-7.164,5.611-14.108
				c0.615-1.97,6.837,1.027,8.759-1.709l-3.497-3.494c5.361,1.699,15.303-2.299,24.017,5.639c-0.353-4.51-0.812-0.691-3.098-3.854
				c0.897-6.998,5.712-0.902,9.341,0.187c1.06-3.66-2.899-0.328-3.675-4.281c5.823,0.632-0.2-7.192,6.481-7.431
				c1.911,2.099-0.288,2.402,0.183,4.285c0.792-6.413,8.966-7.52,13.809-10.891c3.797,0.134,8.034-0.402,12.177-0.53
				c5.397-0.594,8.938-0.261,13.226,0.815l-0.367-1.753c3.973,3.639,5.887-1.237,8.679,0.384
				C348.878,311.83,348.267,311.067,347.686,310.276z"/>
			<path fill="#F6E681" d="M354.417,313.696l3.602,2.27l1.117-5.482C355.307,309.668,356.832,312.323,354.417,313.696z"/>
			<path fill="#F6E681" d="M345.739,304.164c-0.021,0.986-0.025,2.009-0.097,2.985c0.783-0.926,1.488-1.922,2.233-2.875
				L345.739,304.164z"/>
			<path fill="#F6E681" d="M340.588,270.448l0.691,0.537c2.601-1.678,5.335-3.272,8.505-4.604
				C346.388,267.506,343.425,268.929,340.588,270.448z"/>
			<path fill="#F6E681" d="M279.621,275.782c-0.191-2.434,1.583-2.349,1.801-4.205l-2.667,3.933L279.621,275.782z"/>
			<path fill="#F6E681" d="M234.76,286.665c3.666,6.893-2.697,2.311,3.629,5.906C239.61,289.767,235.84,289.111,234.76,286.665z"/>
			<path fill="#F6E681" d="M234.596,301.93c1.29-0.923,1.127-2.345,0.978-3.771C231.73,297.175,234.369,300.058,234.596,301.93z"/>
		</g>
	</g>
	<path fill="#FFFFFF" d="M246.004,346.881c0,0-9.333,20.667,12.667,26s61.333-27.334,77.333-43.334s32-45.334,24-54
		s-24.666-4-24.666-4s19.334-14.666,34-2.666s-10,54-39.334,81.333c-29.333,27.333-54.666,43.333-79.333,35.333
		S246.004,346.881,246.004,346.881z"/>
	<path fill="#FFFFFF" d="M230.671,226.881c0,0,9.334,11.333,30.667,21.333s35.333,8,35.333,8s-8,12.666-34,3.333
		S230.671,226.881,230.671,226.881z"/>
	<polygon fill="#FFFFFF" points="170.671,130.882 165.338,143.882 169.671,146.215 175.004,133.882 	"/>
	<polygon fill="#FFFFFF" points="150.004,108.548 145.004,122.548 149.338,125.215 154.338,110.215 	"/>
	<polygon fill="#FFFFFF" points="131.338,86.215 127.004,99.215 132.671,101.548 136.004,89.215 	"/>
	<polygon fill="#FFFFFF" points="176.171,133.882 171.504,145.215 173.171,145.048 177.338,134.215 	"/>
	<polygon fill="#FFFFFF" points="155.338,111.548 151.838,123.215 153.671,123.882 157.004,111.548 	"/>
	<polygon fill="#FFFFFF" points="137.338,89.382 133.838,102.048 135.338,102.382 138.671,89.715 	"/>
	<path fill="#FFFFFF" d="M144.338,94.548c0,0.5,2.833,5.833,11,10.333c8.166,4.5,14.166,3,13.666,3s-10.833,1.333-18.166-3.333
		C143.504,99.882,144.338,94.548,144.338,94.548z"/>
	<path fill="#FFFFFF" d="M163.338,115.382c0,0,3.499,7.5,13.166,11s14.334,4,14.334,4s-13.001,1.333-20.334-4.167
		S163.338,115.382,163.338,115.382z"/>
	<path fill="#FFFFFF" d="M125.504,73.382c0,0-1.166,3.667,8.334,8.167s13.5,4.5,13.5,4.5s-9.834,1-17-4.333
		C123.171,76.382,125.504,73.382,125.504,73.382z"/>
	<polygon fill="#FFFFFF" points="104.671,138.882 88.671,176.548 95.004,180.882 108.671,143.215 	"/>
	<polygon fill="#FFFFFF" points="122.004,159.548 106.338,197.548 114.004,201.215 127.338,166.882 	"/>
	<polygon fill="#FFFFFF" points="140.004,182.882 125.671,221.549 135.671,225.549 148.004,191.882 	"/>
	<path fill="#FFFFFF" d="M150.004,194.215l-11.334,30.333c0,0,13.334-25.666,13-26.666
		C151.338,196.882,150.004,194.215,150.004,194.215z"/>
	<polygon fill="#FFFFFF" points="129.004,168.881 115.67,202.548 131.338,170.548 	"/>
	<polygon fill="#FFFFFF" points="110.004,144.881 96.67,180.215 112.004,146.548 	"/>
	<polygon fill="#FFFFFF" points="169.67,156.548 201.004,188.215 162.338,156.881 	"/>
	<polygon fill="#FFFFFF" points="156.338,150.548 150.67,161.215 158.67,152.215 	"/>
	<polygon fill="#FFFFFF" points="135.338,127.215 131.004,138.548 138.004,129.881 	"/>
	<path fill="#FFFFFF" d="M118.338,107.881c0,0-4.668,12.333-4.334,11.333s7.666-10.667,7.666-10.667L118.338,107.881z"/>
	<g>
		<path fill="none" d="M240.004,278.215c-11-38-34-75-62-103"/>
		<g>
			<path fill="#F6E681" d="M177.733,175.486c-0.639-0.199-0.414,0.676-0.238,1.432l1.296-0.438L177.733,175.486z"/>
			<path fill="#F6E681" d="M179.755,178.067l2.065,0.289l-1.274-0.421c-0.454-1.398,1.092-0.818,1.613-0.622
				C180.423,175.974,180.517,177.811,179.755,178.067z"/>
			<path fill="#F6E681" d="M182.728,179.692c0.667,0.82,1.071,0.037,0.952-0.464C183.372,179.423,182.608,179.194,182.728,179.692z"
				/>
			<path fill="#F6E681" d="M217.883,234.292c0.015-0.34-0.045-0.7,0.181-0.77C217.697,233.353,217.49,233.39,217.883,234.292z"/>
			<polygon fill="#F6E681" points="218.064,233.522 218.289,233.64 218.143,233.496 			"/>
			<path fill="#F6E681" d="M215.622,209.972c-1.196-0.666-1.249-1.453-2.109-2.259l0.494-1.118c-0.98-0.843-1.02,0.031-1.982-0.402
				c-0.121-1.3-2.009-2.903-2.282-3.367c0.171-0.583,0.807-0.005,1.15-0.025c-1.136-0.989-1.877-0.326-2.938-1.792l0.21-0.19
				c-3.752-2.606-6.761-7.175-10.529-10.283c0.161,0.287-0.058,0.36-0.14,0.589c-3.462-3.663-7.352-8.021-11.841-9.251
				c2.052,1.793,3.83,6.27,6.976,7.188c0.096,1.249,1.95,1.739,1.399,2.745c2.079,3.342,4.59,3.369,6.897,6.376
				c0.179,0.545-0.384,0.646-0.677,1.067l-2.202-2.063l0.781,1.69c-0.824-0.352-1.754-2.048-2.625-1.635
				c2.512,1.32,4.279,5.188,6.717,6.2c-0.457-0.99-1.485-1.887-2.184-2.942c-0.072-0.642-0.402-1.476,0.028-1.736
				c3.373,2,4.603,4.863,7.118,7.66c0.64,0.697,1.312,1.782,1.001,2.185c-0.499-0.401-0.561,0.206-1.047-0.069
				c1.107,0.84,1.552-0.917,2.464,0.788l-1.55,0.765c1.917-0.388,1.04,2.119,2.674,2.66c-0.299,0.786-1.131,0.256-1.752-0.583
				c0.411,1.15,1.3,0.685,1.807,1.488l-1.717,0.063c1.722,0.063,0.779,1.646,0.7,2.371c0.335-0.138,0.972-1.187,1.603-0.092
				c0.132,0.56-0.325,0.525-0.432,0.745c0.339-0.137,1.133-0.108,1.61,0.578c-0.331,0.392-0.913-0.073-1.362,0.151
				c0.357,0.515,0.71,0.896,0.609,1.496c0.933,0.721,0.558-0.438,1.366-0.146c0.612,1.629-1.344,1.044-1.888,2.124
				c-1.268-0.706-2.319-1.969-3.003-2.334l1.628,1.845c-0.563,0.184,0.038,1.913-1.111,1.127c0.849,2.309,2.918,4.442,4.463,6.223
				c0.005-0.383-0.105-0.81,0.239-0.934c0.9,0.864,0.216,1.111-0.018,1.532c0.791,0.563,1.595-0.018,2.508,0.087
				c0.208,2.003,0.793,1.971,0.485,3.935l0.816-0.567c-0.166,1.36,1.22,0.778,1.285,2.109c-0.155,0.159-0.596-0.121-0.975-0.331
				c0.792,0.771-0.265,1.253,0.565,1.973l-1.359-0.19c0.425,0.697,1.299,1.588,0.267,1.663c1.707,0.702,2.421,3.155,3.811,4.448
				l-0.817,0.281c1.335,0.359,1.498,3.03,2.945,3.216l-0.255,0.274l1.816,1.171c0.262,0.801-1.024,1.092-0.673,1.001
				c0.979,1.558,1.652,2.83,1.743,4.074c1.163-0.199,2.2,1.455,2.938,2.812c2.284,7.063,6.027,14.086,9.302,20.349
				c0.352,0.975,1.994,1.977,2.916,3.074c-0.205-1.61-0.801-1.593-1.268-3.095c-0.063-1.217,0.938-1.989,1.331-3.196l-0.768,0.794
				c-1.227-1.292,0.172-1.223-1.156-2.122l1.5-0.441c-0.907-0.172-0.655-1.44-0.428-2.011l-1.161-0.043
				c0.227-1.149,0.245-1.859,1.065-2.479l-0.899,0.424c0.459-0.569-1.394-3.657,0.588-3.097c-0.306-0.204-0.887-0.277-1.014-0.922
				l0.888-0.438c-0.578-0.787-1.135-1.691-0.717-2.144c0.405,0.389,0.873,0.394,1.339,0.396c-1.284-3.78-3.315,0.379-4.665-2.841
				l0.609-0.201l-0.951-0.57l0.386-1.161c-2.512-0.312-1.74-4.584-3.641-6.054c-0.514-0.672,0.207-2.195-0.592-3.565l-0.852,0.509
				c0.396-1.579-1.069-6.124,0.391-8.205c-1.229-0.734-0.128,0.207-0.838,0.532c-1.978-1.631-0.668-2.477-0.712-3.851
				c-1.094-1.067,0.169,1.163-0.845,0.81c-0.335-2.33-1.905-1.028-2.626-3.735c0.357-0.502,0.678,0.435,1.137,0.509
				c-1.829-1.199-2.937-4.674-4.6-7.02c-1.011-3.196-3.305-7.464-4.632-11.182l-0.338,0.133c-0.06-1.865-1.786-2.809-2.47-4.597
				L215.622,209.972z"/>
			<path fill="#F6E681" d="M194.822,197.285l-0.47,0.751l1.517,0.961C195.968,198.042,195.285,198.127,194.822,197.285z"/>
			<polygon fill="#F6E681" points="197.061,195.97 196.188,195.519 197.151,196.606 			"/>
			<polygon fill="#F6E681" points="208.763,214.273 208.75,214.017 206.344,211.718 			"/>
			<path fill="#F6E681" d="M217.077,234.6c-0.564-0.108-0.652-0.662-1.101-0.849l1.088,1.104L217.077,234.6z"/>
			<path fill="#F6E681" d="M220.558,248.942c1.607-0.14,0.456,1.018,1.391-0.245C221.344,248.003,221.125,248.955,220.558,248.942z"
				/>
			<path fill="#F6E681" d="M223.976,251.025c-0.174-0.483-0.501-0.646-0.824-0.806C222.823,251.112,223.542,250.807,223.976,251.025
				z"/>
		</g>
	</g>
	<polygon fill="#FFFFFF" points="198.338,190.882 207.004,204.215 203.67,206.215 194.004,193.548 	"/>
	<polygon fill="#FFFFFF" points="200.338,190.215 209.338,203.215 212.004,202.215 202.67,189.215 	"/>
	<polygon fill="#FFFFFF" points="207.67,206.548 221.337,224.215 224.337,222.548 209.67,204.882 	"/>
	<polygon fill="#FFFFFF" points="34.338,35.215 59.338,69.548 61.004,67.881 36.004,33.215 	"/>
	<polygon fill="#FFFFFF" points="22.671,19.215 30.671,32.881 34.671,29.548 27.004,18.881 	"/>
	<polygon fill="#FFFFFF" points="20.671,19.881 29.338,31.881 27.004,33.548 19.671,21.215 	"/>
	<path fill="#FFFFFF" d="M8.338,26.215c0,0-2.668-10.667,6.666-17.333s19.334-0.333,19.334-0.333s-13.001-1.667-18.334,4
		S8.338,26.215,8.338,26.215z"/>
	<g>
		<path fill="none" d="M82.004,83.215c8,22,23,38,38,56c20,23,32,47,45,76"/>
		<g>
			<path fill="#F6E681" d="M165.354,215.058c0.598,0.57,0.607-0.531,0.61-1.477l-1.45-0.203L165.354,215.058z"/>
			<path fill="#F6E681" d="M163.922,211.079l-2.045-1.4l1.2,1.136c0.115,1.815-1.326,0.354-1.807-0.13
				C162.708,213.084,163.078,210.974,163.922,211.079z"/>
			<path fill="#F6E681" d="M161.281,207.695c-0.48-1.276-1.082-0.581-1.084,0.049C160.558,207.676,161.28,208.324,161.281,207.695z"
				/>
			<path fill="#F6E681" d="M119.991,133.812c0.112,0.406,0.309,0.828,0.091,0.928C120.542,134.912,120.752,134.853,119.991,133.812z
				"/>
			<polygon fill="#F6E681" points="120.082,134.739 119.796,134.619 120.007,134.777 			"/>
			<path fill="#F6E681" d="M128.707,162.308c1.331,0.886,1.465,1.802,2.46,2.825l-0.432,1.22c1.121,1.077,1.102,0.079,2.163,0.709
				c0.248,1.486,2.286,3.664,2.569,4.272c-0.173,0.643-0.855-0.145-1.216-0.182c1.212,1.348,1.993,0.727,3.147,2.635l-0.223,0.176
				c4.069,3.775,6.937,9.987,10.527,14.862c-0.135-0.389,0.104-0.396,0.217-0.632c3.247,5.461,6.465,12.042,10.827,15.585
				c-1.748-2.986-2.71-9.042-5.984-11.352c0.07-1.491-1.787-2.801-1.1-3.756c-1.826-4.72-4.509-5.61-6.821-9.814
				c-0.167-0.696,0.438-0.65,0.769-1.062l2.266,3.122l-0.758-2.249c0.889,0.667,1.777,2.991,2.731,2.799
				c-2.592-2.412-4.359-7.578-7.059-9.388c0.486,1.305,1.655,2.605,2.345,4.083c0.055,0.79,0.373,1.876-0.099,2.057
				c-3.443-3.369-4.917-6.909-7.692-10.762c-0.73-0.939-1.561-2.311-1.254-2.742c0.575,0.556,0.59-0.153,1.142,0.254
				c-1.279-1.176-1.59,0.821-2.76-1.301l1.604-0.68c-2.042,0.19-1.379-2.659-3.21-3.512c0.222-0.907,1.182-0.173,1.959,0.914
				c-0.59-1.433-1.488-0.985-2.132-2.005l1.836,0.129c-1.854-0.29-1.053-2.083-1.123-2.938c-0.341,0.135-0.848,1.322-1.738-0.027
				c-0.26-0.667,0.25-0.595,0.322-0.848c-0.346,0.137-1.225,0.052-1.889-0.782c0.279-0.445,1.015,0.139,1.462-0.097
				c-0.503-0.634-0.971-1.107-0.993-1.819c-1.175-0.91-0.513,0.494-1.455,0.106c-1.02-1.97,1.227-1.189,1.575-2.463
				c1.547,0.924,3.004,2.532,3.851,3.031l-2.23-2.356c0.579-0.182-0.504-2.344,0.953-1.303c-1.438-2.958-4.393-5.619-6.74-7.679
				c0.125,0.463,0.388,0.973,0.051,1.13c-1.273-1.013-0.608-1.33-0.497-1.848c-1.057-0.658-1.73,0.077-2.749-0.005
				c-0.928-2.433-1.468-2.312-1.867-4.647l-0.677,0.73c-0.32-1.619-1.603-0.822-2.161-2.388c0.107-0.203,0.685,0.092,1.171,0.311
				c-1.139-0.848-0.182-1.511-1.343-2.296l1.532,0.11c-0.722-0.798-1.997-1.786-0.919-1.968c-2.079-0.714-3.832-3.495-5.833-4.865
				l0.756-0.431c-1.586-0.255-2.792-3.423-4.396-3.443l0.157-0.357l-2.401-1.124c-0.605-0.903,0.631-1.426,0.297-1.27
				c-1.699-1.681-2.848-3.125-3.425-4.592c-1.14,0.401-2.899-1.394-4.222-2.883c-5.084-8.083-11.172-16.149-15.82-23.919
				c-0.553-1.21-2.446-2.448-3.624-3.839c0.537,2.027,1.149,2.005,1.933,3.89c0.312,1.532-0.557,2.529-0.704,4.081l0.62-1.029
				c1.515,1.612,0.073,1.567,1.717,2.617l-1.438,0.618c0.99,0.173,1.075,1.767,0.999,2.496l1.212-0.01
				c0.083,1.45,0.262,2.343-0.407,3.177l0.807-0.591c-0.392,0.798,2.652,4.379,0.382,3.874c0.398,0.218,1.022,0.26,1.368,1.042
				l-0.777,0.621c0.863,0.921,1.742,1.986,1.461,2.587c-0.55-0.443-1.036-0.406-1.521-0.366c2.638,4.55,3.227-0.729,5.875,2.958
				l-0.56,0.317l1.219,0.559l0.027,1.451c2.671,0.112,3.529,5.293,6.151,6.722c0.8,0.721,0.604,2.676,2,4.149l0.688-0.719
				c0.244,1.873,3.581,7.019,2.813,9.617c1.567,0.677,0.057-0.256,0.677-0.73c2.701,1.617,1.644,2.769,2.203,4.339
				c1.557,1.085-0.615-1.314,0.589-1.039c1.233,2.629,2.399,0.964,4.106,4.011c-0.206,0.618-0.866-0.429-1.375-0.462
				c2.239,1.107,4.893,5.171,7.21,7.708c2.07,3.497,5.527,8.288,7.482,12.619l0.341-0.14c0.412,2.081,2.351,3.271,3.227,5.42
				L128.707,162.308z"/>
			<path fill="#F6E681" d="M151.338,181.895l0.554-0.733l-1.576-1.685C150.153,180.591,150.892,180.723,151.338,181.895z"/>
			<polygon fill="#F6E681" points="148.842,182.683 149.746,183.512 148.791,181.9 			"/>
			<polygon fill="#F6E681" points="135.538,157.972 135.589,158.286 138.523,161.419 			"/>
			<path fill="#F6E681" d="M120.747,133.381c0.651,0.086,0.955,0.739,1.511,0.929l-1.593-1.234L120.747,133.381z"/>
			<path fill="#F6E681" d="M111.294,116.691c-1.642,0.385-0.907-1.139-1.368,0.48C110.854,117.907,110.689,116.753,111.294,116.691z
				"/>
			<path fill="#F6E681" d="M106.866,114.691c0.364,0.553,0.766,0.704,1.163,0.849C108.03,114.431,107.399,114.893,106.866,114.691z"
				/>
		</g>
	</g>
	<g>
		<path fill="none" d="M71.004,70.215c-21,11-15,48-10,66c5,24,20,39,34,57c14,17,24,37,40,52c17,17,30,41,56,45"/>
		<g>
			<path fill="#F6E681" d="M191.062,289.836c1.385-0.092-0.316-0.822-1.662-1.536l-1.581,0.935L191.062,289.836z"/>
			<path fill="#F6E681" d="M183.984,287.748c-1.317,0.062-2.647,0.057-3.959-0.09c0.921,0.165,1.819,0.361,2.762,0.402
				c2.693,1.506-0.826,1.218-2.018,0.97C185.681,290.376,182.991,288.167,183.984,287.748z"/>
			<path fill="#F6E681" d="M176.801,285.892c-2.083-1.232-1.9-0.184-1.107,0.546C176.008,286.202,177.583,286.612,176.801,285.892z"
				/>
			<path fill="#F6E681" d="M82.028,171.303c0.257,0.638,0.648,1.331,0.395,1.384C83.072,173.131,83.318,173.135,82.028,171.303z"/>
			<polygon fill="#F6E681" points="82.423,172.687 82.017,172.392 82.338,172.711 			"/>
			<path fill="#F6E681" d="M103.568,217.139c2.057,1.892,2.6,3.379,4.279,5.353l-0.034,1.776c1.919,2.121,1.443,0.522,3.073,1.89
				c0.911,2.501,4.664,6.565,5.43,7.565c0.145,0.977-1.177-0.454-1.666-0.615c2.365,2.465,2.895,1.712,5.582,4.955l-0.172,0.232
				c7.756,7.248,16.284,15.116,23.591,22.942c-0.431-0.586-0.147-0.588-0.172-0.937c7.466,8.362,16.825,18.64,25.89,21.889
				c-5.398-3.361-11.635-11.878-17.082-15.387c-0.981-2.232-4.134-4.229-3.96-5.646c-5.458-7.037-9.192-8.735-15.015-14.644
				c-0.75-1.029,0.029-0.963,0.115-1.571l5.03,4.531l-2.552-3.282c1.605,0.944,4.316,4.398,5.331,4.158
				c-4.708-3.827-11.117-10.716-15.25-14.018c1.378,2.045,3.595,4.164,5.622,6.236c0.656,1.14,1.88,2.73,1.445,3
				c-7.075-4.842-10.941-10.843-16.438-17.397c-1.334-1.678-2.953-4.097-2.758-4.664c0.954,1.043,0.669-0.053,1.528,0.747
				c-2.086-2.22-1.635,0.785-3.998-2.903l1.724-0.518c-2.468-0.395-2.753-4.564-5.377-6.516c-0.065-1.302,1.424,0.16,2.812,2.095
				c-1.284-2.395-2.243-2.035-3.443-3.816l2.363,0.852c-2.451-1.096-2.112-3.533-2.467-4.872c-0.379,0.076-0.606,1.704-2.169-0.708
				c-0.548-1.122,0.112-0.813,0.117-1.171c-0.379,0.071-1.527-0.384-2.664-1.896c0.194-0.566,1.333,0.593,1.814,0.405
				c-0.862-1.146-1.622-2.035-1.903-3.116c-1.811-1.815-0.474,0.549-1.805-0.393c-1.993-3.354,1.134-1.322,1.123-3.104
				c2.288,1.973,4.694,4.937,5.938,6.001l-3.647-4.375c0.668-0.057-1.46-3.707,0.748-1.597c-3.064-4.983-7.761-9.86-11.481-13.768
				c0.326,0.721,0.847,1.564,0.466,1.665c-2.012-1.965-1.261-2.17-1.297-2.874c-1.603-1.35-2.227-0.551-3.592-1.071
				c-2.012-3.819-2.781-3.97-4.062-7.526l-0.64,0.784c-0.921-2.496-2.352-1.867-3.525-4.406c0.086-0.25,0.893,0.445,1.596,0.965
				c-1.715-1.73-0.657-2.277-2.363-3.927l1.991,0.838c-1.159-1.456-2.96-3.486-1.651-3.247c-2.82-1.964-5.505-6.921-7.905-10.12
				l0.879-0.177c-1.992-1.284-3.258-6.712-5.056-7.88l0.206-0.407l-2.486-3.455c-0.443-1.823,0.971-1.596,0.586-1.634
				c-1.44-3.597-2.086-7.174-2.429-9.801c-1.299-0.348-2.612-4.557-3.408-7.965c-2.091-16.335-4.946-35.42,4.15-48.845
				c1.503-1.75,3.175-4.837,5.756-6.922c-3.418,1.876-3.513,2.428-6.154,5.097c-2.098,1.86-3.668,2.076-5.66,3.903
				c0.495-0.218,0.928-0.454,1.479-0.616c-1.188,3.806-1.852,2.141-2.21,5.344l-1.399-0.717c0.399,1.341-1.279,3.659-1.876,4.679
				l0.803,1.26c-1.207,2.213-1.719,3.745-2.761,4.331l1.011-0.076c-0.93,0.819-0.872,9.275-2.297,6.287
				c0.197,0.725,0.585,1.404,0.467,2.929l-0.989,0.207c0.228,2.245,0.397,4.716-0.085,5.365c-0.301-1.189-0.731-1.592-1.156-1.994
				c0.229,9.462,3.16,1.902,3.935,9.987l-0.646-0.026l0.914,1.961l-0.518,2.238c2.495,2.553,1.674,11.213,4.096,15.669
				c0.715,1.828-0.152,4.167,1.015,7.953l0.88-0.5c-0.432,3.221,3.189,13.866,2.699,17.412c2.052,2.185,0.02-0.352,0.772-0.669
				c3.528,4.442,2.444,5.454,3.47,8.299c2.245,2.637-1.073-2.424,0.545-1.26c2.184,4.804,3.261,2.924,6.39,8.44
				c-0.079,0.834-1.28-1.079-1.948-1.418c3.379,3.088,7.94,9.912,12.139,14.729c4.06,6.232,10.644,14.599,14.571,21.866l0.382-0.082
				c1.271,3.362,4.104,6.013,6.134,9.67L103.568,217.139z"/>
			<path fill="#F6E681" d="M143.335,251.044l0.176-1.071l-3.097-2.557C140.992,249.067,142.001,249.276,143.335,251.044z"/>
			<polygon fill="#F6E681" points="140.856,252.111 142.501,253.392 140.251,250.955 			"/>
			<polygon fill="#F6E681" points="110.53,212.982 110.709,213.474 115.528,219.214 			"/>
			<path fill="#F6E681" d="M82.871,171.003c0.866,0.396,1.452,1.464,2.224,1.969l-2.412-2.446L82.871,171.003z"/>
			<path fill="#F6E681" d="M70.534,141.898c-1.785-0.678-0.67-2.286-1.527-0.344C69.796,143.299,69.894,141.534,70.534,141.898z"/>
			<path fill="#F6E681" d="M66.537,135.577c0.214,1.092,0.579,1.643,0.939,2.176C67.794,136.177,67.023,136.315,66.537,135.577z"/>
		</g>
	</g>
	<g>
		<path fill="none" d="M23.004,27.215c10,5,33,45,33,46"/>
		<g>
			<path fill="#F6E681" d="M56.388,73.215c0.333,0.497,0.809-0.291,0.89-1.002l-1.252,0.234
				C56.14,72.68,56.275,72.775,56.388,73.215z"/>
			<path fill="#F6E681" d="M55.999,71.491l-1.494-0.079l0.809,0.196c-0.284,0.845-1.237,0.558-1.55,0.472
				C54.506,72.806,55.283,71.689,55.999,71.491z"/>
			<path fill="#F6E681" d="M54.393,70.625c-0.157-0.478-0.821,0.05-0.953,0.356C53.767,70.838,54.263,70.933,54.393,70.625z"/>
			<path fill="#F6E681" d="M41.209,42.474c-0.063,0.216-0.068,0.421-0.271,0.534C41.226,42.999,41.409,42.913,41.209,42.474z"/>
			<polygon fill="#F6E681" points="40.939,43.007 40.765,43.005 40.868,43.049 			"/>
			<path fill="#F6E681" d="M38.01,56.876c0.818,0.121,0.654,0.59,1.154,0.883l-0.717,0.799c0.586,0.288,0.871-0.263,1.542-0.208
				c-0.278,0.78,0.805,1.368,0.894,1.6c-0.316,0.396-0.67,0.173-0.959,0.259c0.644,0.369,1.457-0.195,1.901,0.491l-0.231,0.161
				c2.282,0.88,3.25,3.199,5.163,4.59c-0.028-0.155,0.177-0.234,0.326-0.39c1.508,1.789,2.885,4.041,5.917,4.426
				c-0.846-0.953-0.506-3.619-2.735-3.795c0.393-0.782-0.899-0.864-0.102-1.566c-0.548-1.804-2.512-1.487-3.451-2.961
				c0.029-0.312,0.526-0.473,0.904-0.791l1.147,0.932l-0.091-0.94c0.585,0.074,0.768,1.013,1.615,0.62
				c-1.583-0.466-1.864-2.584-3.54-2.796c0.063,0.548,0.626,0.933,0.867,1.479c-0.144,0.393-0.142,0.864-0.582,1.102
				c-2.112-0.679-2.243-2.233-3.547-3.454c-0.328-0.304-0.574-0.842-0.2-1.165c0.298,0.147,0.523-0.25,0.849-0.18
				c-0.682-0.293-1.536,0.902-1.845,0.051l1.505-0.825c-1.712,0.676-0.316-1.086-1.549-1.045c0.453-0.562,1.013-0.425,1.318-0.043
				c-0.049-0.626-0.914-0.128-1.13-0.511l1.454-0.441c-1.426,0.362-0.23-0.854,0.018-1.334c-0.315,0.167-1.113,0.98-1.362,0.44
				c0.018-0.313,0.397-0.406,0.538-0.569c-0.319,0.169-0.986,0.351-1.232,0.048c0.37-0.327,0.756-0.186,1.189-0.438
				c-0.186-0.23-0.397-0.377-0.176-0.778c-0.625-0.212-0.571,0.415-1.188,0.441c-0.147-0.857,1.37-0.999,2.073-1.814
				c0.915,0.122,1.527,0.655,2.028,0.716L44.8,49.114c0.52-0.256,0.389-1.201,1.192-0.991c-0.197-1.266-1.52-2.087-2.525-2.754
				c-0.074,0.241-0.06,0.478-0.377,0.651c-0.605-0.287,0.022-0.634,0.299-0.965c-0.57-0.131-1.36,0.464-2.114,0.663
				c0.193-1.196-0.29-1.012,0.269-2.311l-0.786,0.601c0.351-0.89-0.92-0.101-0.771-0.901c0.156-0.148,0.488-0.113,0.779-0.101
				c-0.557-0.23,0.415-0.862-0.183-1.049l1.127-0.31c-0.257-0.305-0.874-0.583,0.015-0.959c-1.331,0.087-1.664-1.168-2.709-1.486
				l0.726-0.457c-1.104,0.249-0.937-1.369-2.169-0.94l0.239-0.261l-1.458-0.022c-0.162-0.383,0.947-1.053,0.643-0.863
				c-0.714-0.575-1.205-1.079-1.21-1.806c-0.994,0.594-1.801,0.046-2.388-0.436c-1.689-3.2-5.202-5.581-8.704-6.525
				c-0.433-0.29-1.719,0.447-2.379,0.704c0.394,0.584,0.737,0.042,1.291,0.459c0.242,0.556-0.339,1.565-0.498,2.406l0.449-0.889
				c1.01-0.169,0.012,0.687,1.057,0.287l-1.049,1.159c0.667-0.5,0.573,0.332,0.431,0.749l0.869-0.667
				c-0.098,0.725-0.078,1.084-0.681,1.875l0.67-0.729c-0.328,0.556,1.229,1.115-0.346,1.911c0.247-0.066,0.698-0.345,0.8-0.058
				l-0.697,0.701c0.448,0.117,0.887,0.317,0.549,0.77c-0.318,0.001-0.687,0.239-1.054,0.479c0.957,1.321,2.646-1.9,3.709-0.803
				l-0.499,0.402l0.771-0.144l-0.354,0.831c2.038-0.961,1.224,1.796,2.702,1.822c0.371,0.186-0.347,1.356,0.189,1.832l0.757-0.636
				c-0.448,1.065,0.317,3.142-1.226,4.918c0.93-0.024,0.135-0.167,0.772-0.619c1.446,0.231,0.231,1.206,0.073,1.985
				c0.772,0.233,0.021-0.616,0.826-0.771c-0.04,1.235,1.458-0.058,1.627,1.319c-0.385,0.419-0.496-0.038-0.87,0.074
				c1.316,0.123,1.733,1.786,2.616,2.735c0.252,1.6,1.221,3.559,1.414,5.478l0.316-0.169c-0.379,1.096,0.757,1.279,0.863,2.201
				L38.01,56.876z"/>
			<path fill="#F6E681" d="M51.431,60.751l0.644-0.554l-0.913-0.394C50.755,60.435,51.343,60.276,51.431,60.751z"/>
			<polygon fill="#F6E681" points="49.143,61.931 49.699,62.086 49.291,61.538 			"/>
			<polygon fill="#F6E681" points="44.867,52.579 44.813,52.738 46.248,53.645 			"/>
			<path fill="#F6E681" d="M41.944,42.031c0.466-0.107,0.458,0.211,0.814,0.191l-0.765-0.354L41.944,42.031z"/>
			<path fill="#F6E681" d="M40.518,34.234c-1.38,0.688-0.328-0.462-1.201,0.673C39.789,35.111,40.035,34.438,40.518,34.234z"/>
			<path fill="#F6E681" d="M37.735,34.242c0.121,0.232,0.389,0.206,0.655,0.179C38.716,33.74,38.089,34.208,37.735,34.242z"/>
		</g>
	</g>
	<g>
		<path fill="none" d="M119.004,96.215c8,22,31,38,45,57"/>
		<g>
			<path fill="#F6E681" d="M164.313,152.987c0.464,0.101,0.558-0.545,0.623-1.103l-1.213,0.449L164.313,152.987z"/>
			<path fill="#F6E681" d="M163.382,151.217l-1.618,0.001l0.926,0.182c-0.03,1.021-1.138,0.741-1.503,0.656
				C162.218,152.877,162.682,151.497,163.382,151.217z"/>
			<path fill="#F6E681" d="M161.4,150.291c-0.315-0.559-0.857,0.106-0.902,0.479C160.801,150.579,161.358,150.664,161.4,150.291z"/>
			<path fill="#F6E681" d="M137.616,118.851c-0.018,0.247,0.026,0.482-0.166,0.613C137.759,119.452,137.936,119.35,137.616,118.851z
				"/>
			<polygon fill="#F6E681" points="137.451,119.464 137.262,119.462 137.383,119.512 			"/>
			<path fill="#F6E681" d="M138.731,135.754c0.947,0.087,0.942,0.651,1.604,0.957l-0.481,0.991c0.755,0.295,0.855-0.373,1.609-0.364
				c-0.011,0.934,1.396,1.522,1.581,1.782c-0.193,0.489-0.665,0.261-0.948,0.386c0.844,0.373,1.515-0.356,2.259,0.4l-0.191,0.208
				c2.807,0.802,4.721,3.374,7.276,4.787c-0.088-0.175,0.104-0.287,0.208-0.481c2.273,1.918,4.514,4.384,7.878,4.63
				c-1.204-1.062-1.762-4.203-4.234-4.2c0.143-0.941-1.259-0.929-0.664-1.811c-1.265-2.023-3.242-1.478-4.813-3.077
				c-0.086-0.362,0.391-0.599,0.681-1.001l1.587,0.958l-0.448-1.075c0.664,0.022,1.202,1.094,1.97,0.557
				c-1.872-0.391-2.978-2.786-4.86-2.871c0.272,0.625,1.022,1.013,1.485,1.62c-0.01,0.469,0.17,1.008-0.216,1.328
				c-2.535-0.57-3.255-2.354-5.133-3.642c-0.47-0.322-0.936-0.924-0.648-1.329c0.378,0.144,0.477-0.335,0.856-0.283
				c-0.849-0.279-1.334,1.18-1.988,0.218l1.335-1.083c-1.618,0.926-0.742-1.229-2.068-1.084c0.292-0.686,0.952-0.57,1.42-0.153
				c-0.277-0.72-1.04-0.076-1.415-0.503l1.427-0.624c-1.424,0.53-0.555-0.967-0.453-1.537c-0.285,0.216-0.868,1.214-1.332,0.61
				c-0.091-0.363,0.291-0.498,0.388-0.696c-0.289,0.219-0.952,0.474-1.325,0.137c0.292-0.403,0.76-0.264,1.145-0.585
				c-0.279-0.254-0.56-0.411-0.454-0.888c-0.752-0.205-0.482,0.517-1.146,0.584c-0.451-0.984,1.161-1.237,1.655-2.222
				c1.034,0.079,1.868,0.643,2.428,0.674l-1.296-0.792c0.478-0.331,0.036-1.397,0.97-1.217c-0.618-1.42-2.294-2.259-3.563-2.977
				c-0.012,0.279,0.07,0.548-0.223,0.762c-0.737-0.303-0.156-0.728,0.051-1.116c-0.652-0.125-1.343,0.584-2.108,0.835
				c-0.124-1.379-0.622-1.147-0.338-2.652l-0.7,0.701c0.161-1.029-1.023-0.112-1.059-1.037c0.134-0.17,0.504-0.129,0.822-0.117
				c-0.66-0.263,0.245-0.987-0.447-1.199l1.15-0.356c-0.348-0.341-1.075-0.657-0.197-1.083c-1.43,0.104-2.039-1.327-3.2-1.736
				l0.706-0.489c-1.148,0.232-1.225-1.58-2.5-1.177l0.222-0.277l-1.562-0.165c-0.217-0.458,0.91-1.104,0.601-0.92
				c-0.827-0.722-1.395-1.362-1.453-2.173c-1.053,0.545-1.924-0.235-2.558-0.906c-1.911-3.992-5.077-7.424-7.849-10.797
				c-0.278-0.551-1.792-0.884-2.622-1.444c0.112,1.01,0.685,0.894,1.052,1.781c-0.002,0.78-0.991,1.491-1.414,2.386l0.762-0.69
				c1.105,0.598-0.225,0.862,1.006,1.16l-1.432,0.63c0.852-0.088,0.572,0.815,0.343,1.256l1.088-0.245
				c-0.247,0.826-0.283,1.312-1.063,1.938l0.85-0.511c-0.45,0.507,1.219,2.131-0.613,2.272c0.293,0.053,0.825-0.049,0.933,0.356
				l-0.827,0.54c0.525,0.387,1.025,0.855,0.636,1.285c-0.369-0.157-0.799-0.032-1.229,0.093c1.154,2.279,3.05-1.185,4.24,0.637
				l-0.555,0.32l0.867,0.1l-0.358,0.915c2.264-0.569,1.52,2.641,3.236,3.025c0.448,0.296-0.196,1.598,0.504,2.292l0.75-0.645
				c-0.359,1.246,0.938,3.917-0.345,5.916c1.063,0.094,0.111-0.192,0.728-0.671c1.707,0.466,0.572,1.527,0.612,2.496
				c0.944,0.375-0.146-0.771,0.728-0.878c0.3,1.53,1.641,0.044,2.229,1.728c-0.31,0.488-0.574-0.07-0.965,0.041
				c1.533,0.221,2.492,2.282,3.814,3.402c0.809,1.944,2.59,4.237,3.522,6.51l0.288-0.215c-0.012,1.325,1.316,1.459,1.781,2.541
				L138.731,135.754z"/>
			<path fill="#F6E681" d="M154.754,139.018l0.49-0.703l-1.128-0.37C153.909,138.717,154.483,138.477,154.754,139.018z"/>
			<polygon fill="#F6E681" points="152.724,140.605 153.379,140.731 152.738,140.137 			"/>
			<polygon fill="#F6E681" points="144.663,130.249 144.661,130.436 146.538,131.353 			"/>
			<path fill="#F6E681" d="M138.306,118.34c0.477-0.128,0.542,0.233,0.918,0.203l-0.903-0.389L138.306,118.34z"/>
			<path fill="#F6E681" d="M135.567,109.651c-1.397,0.663-0.372-0.525-1.212,0.657C134.864,110.563,135.075,109.842,135.567,109.651
				z"/>
			<path fill="#F6E681" d="M132.639,109.441c0.141,0.266,0.423,0.264,0.702,0.259C133.649,108.985,133.014,109.44,132.639,109.441z"
				/>
		</g>
	</g>
	<polygon fill="#EEC61A" points="169.504,219.215 163.004,264.715 168.504,265.215 175.504,227.715 	"/>
	<path fill="none" stroke="#010101" stroke-width="3" d="M20.254,37.715c0,0-11.96,0.076-15.5-10c-3.25-9.25,1.75-17,7.75-21.25
		c7.418-5.254,18-3.5,23.25,3.25c4.268,5.486,1.25,14,1.25,14"/>
	<path fill="none" stroke="#010101" d="M12.254,35.715c0,0-4.5,1-8.5-4.5c-5.265-7.239-3.75-19,4.75-25.75
		c8.749-6.948,18.82-5.525,23.5-2.25c5,3.5,5.25,8.25,5.25,8.25"/>
	<path fill="none" stroke="#010101" stroke-width="3" d="M26.754,45.465l-11.25-14.5c0,0-1.048-6.815,5-11.25
		c7.5-5.5,13.25-0.75,13.25-0.75l10.25,13"/>
	<path fill="none" stroke="#010101" d="M32.254,46.465c0,0-3.75,2.25-6.5-2.25s0.531-10.315,4.75-13c5.5-3.5,10.95-1.959,13,0.5
		c2.5,3,1.25,5.25,1.25,5.25"/>
	<path fill="none" stroke="#010101" stroke-width="3" d="M56.254,75.965l-27.5-33.75c0,0-0.107-4.908,4.25-7.75
		c5.75-3.75,9.25-0.25,9.25-0.25l25.584,30.167"/>
	<path fill="none" stroke="#010101" d="M64.254,92.965l-8.5-11.5c0,0-1.875-7.011,5.75-13.25c8.25-6.75,12.75-3.25,12.75-3.25
		l11.084,12.583"/>
	<path fill="none" stroke="#010101" d="M71.004,94.965c0,0-4.166,1.833-6.666-1.917s-0.5-10.833,5.916-15.083
		c6.301-4.174,12.697-2.453,14.5-0.5c3,3.25-0.25,8.25-0.25,8.25"/>
	<path fill="none" stroke="#010101" stroke-width="3" d="M159.671,204.882L68.504,91.715c0,0-1.309-6.131,3.667-9.667
		c6.333-4.5,10.333-0.5,10.333-0.5l92.334,109.5"/>
	<path fill="none" stroke="#010101" d="M170.504,222.048l-11.166-14.666c0,0-1.396-6.727,8.833-13.334
		c8-5.166,12.333-1.833,12.333-1.833l11.834,13"/>
	<path fill="none" stroke="#010101" d="M174.004,224.048c-0.5-0.166-2.667-0.499-4-3.166s2.16-11.178,9-15.167
		c6-3.5,11.639-2.452,13.334-0.333c1.333,1.666,0.166,3.333,0.166,3.333"/>
	<path fill="none" stroke="#010101" d="M169.171,221.049l-8.333,44.166c0,0,1,2.333,3.833,2.5s4-1.833,4-1.833l7.667-37.333"/>
	<path fill="none" stroke="#010101" stroke-width="3" d="M171.171,219.215c0,0,8.5,13.667,11.5,23.667s7.978,32.145,2.333,37.5
		c-6.5,6.167-17.666-7.5-17.666-7.5"/>
	<path fill="none" stroke="#010101" d="M186.171,279.049c0,0-3-0.5-5.167-2.334s-4.666-5.166-4.666-5.166s-6.311-2.157-12.334,3.5
		c-5.5,5.166-4.166,11-4.166,11s14.833,20.833,35,15.333c18.227-4.971,16.609-34.278,13.666-54c-3.333-22.333-18-42.167-18-42.167
		s-4.833-2-11.833,3.167c-7.179,5.299-7.333,11.333-7.333,11.333"/>
	<path fill="none" stroke="#010101" d="M177.838,273.382c0,0,1.332-2.333-0.5-3.5c-1.591-1.013-7.834-1-13.5,3
		c-5.667,4-7.168,10.334-6.334,12.167s2.334,1,2.334,1"/>
	<path fill="none" stroke="#010101" d="M157.504,285.049l-10.666-13.001c0,0,1.666-7.166,6.5-11.166c4.833-4,9.5-4,9.5-4"/>
	<line fill="none" stroke="#010101" x1="170.004" y1="260.882" x2="177.338" y2="270.048"/>
	<line fill="none" stroke="#010101" x1="143.004" y1="228.215" x2="162.838" y2="254.215"/>
	<path fill="none" stroke="#010101" stroke-width="3" d="M147.338,269.215L63.504,160.048c0,0-2.106-6.436,6.334-11.5
		c5.832-3.5,10.332,0,10.332,0l6.834,8.833"/>
	<path fill="none" stroke="#010101" d="M64.338,161.215c0,0-1.834,0.833-2.834-2s0.166-8.833,7.5-12.5
		c6.334-3.167,10.5-0.833,11.166,0c0.896,1.12,0.168,2.333,0.168,2.333"/>
	<path fill="none" stroke="#010101" d="M61.838,160.048l-8.5-12.333c0,0-0.667-5,7.166-9.5c8.379-4.814,12.167-1.333,12.167-1.333
		l7.667,9.667"/>
	<path fill="none" stroke="#010101" stroke-width="3" d="M53.171,146.381c0,0-9.751-16.177-6.833-39c2.832-22.167,9.332-30,9.332-30
		"/>
	<path fill="none" stroke="#010101" d="M71.17,135.882c0,0-5.836-9.228-5.5-22c0.334-12.667,4-18.333,4-18.333"/>
	<path fill="none" stroke="#010101" stroke-width="3" d="M69.17,64.215c0,0,16-9.5,29,3.333s20.668,21.667,20.668,21.667"/>
	<path fill="none" stroke="#010101" d="M201.754,225.215c0,0,16.25,19.25,26,46.25c8.611,23.847,6.25,48.75,6.25,48.75"/>
	<path fill="none" stroke="#010101" stroke-width="3" d="M152.004,163.715c0,0,4.25-7,13.25-8.5s12.75,2.25,12.75,2.25l27.75,31.25"
		/>
	<path fill="none" stroke="#010101" d="M187.504,199.59c0,0,2.396-4.94,9.75-8.25c7.5-3.375,11.375-2.375,11.375-2.375
		l12.625,13.625c0,0-5.75-3-15.5,2.375c-7.699,4.244-10,8.125-10,8.125"/>
	<path fill="none" stroke="#010101" d="M196.754,214.84c0,0,4.65-6.035,10.5-9.125c6.625-3.5,12.604-4.61,14-2.75
		c1.125,1.5,0.5,3.5,0.5,3.5"/>
	<path fill="none" stroke="#010101" d="M218.379,202.34l16.625,18.125c0,0-7.517-0.34-13.875,4.625c-9.125,7.125-9.5,13.5-9.5,13.5"
		/>
	<path fill="none" stroke="#010101" stroke-width="3" d="M234.754,220.715c0,0,18,17.75,38.375,25.875
		c21.199,8.454,37.375,7.5,37.375,7.5"/>
	<path fill="none" stroke="#010101" stroke-width="3" d="M382.338,251.882c-12.383-14.906-55.843-17.186-107.334,26.333
		c-51.667,43.667-74,89.999-54,111.333s62,8.167,108.5-29.333C380.139,319.381,400.338,273.549,382.338,251.882z"/>
	<path fill="none" stroke="#010101" d="M229.004,392.882c0,0-10.332-6.334-7.666-25.667s21.354-53.555,61.666-85.667
		c39.334-31.333,69.334-40.666,90-31.333c11.42,5.157,10.668,16.333,10.668,16.333"/>
	<path fill="none" stroke="#010101" d="M256.338,350.882c0,0,5-10,10-27s4.333-24,16.333-30.667
		c8.604-4.78,20.667,2.667,38.667,0.667c10.621-1.18,22.333-3.334,22.333-3.334"/>
	<path fill="none" stroke="#010101" d="M134.504,174.215l-17,36.833c0,0,0.876,10.059,11.334,14c11.5,4.334,17.666-2.5,17.666-2.5
		l10.334-21"/>
	<path fill="none" stroke="#010101" d="M117.671,210.215c0,0-1.333-0.167-2.333,1.5s-0.107,9.874,10.5,15
		c10,4.833,17.666,1.999,19.5,0.333c1.833-1.666,1.166-4.166,1.166-4.166"/>
	<path fill="none" stroke="#010101" d="M117.004,152.048l-16.666,36.5c0,0-1,6.5,7.333,12s13,3.667,13,3.667"/>
	<path fill="none" stroke="#010101" d="M100.504,188.048c0,0-0.834-0.333-2,0.667s-1.834,8,6.5,13.5s14.334,4.5,14.334,4.5"/>
	<path fill="none" stroke="#010101" d="M99.004,130.048l-15.5,36.333c0,0,0.631,8.582,7.834,13.5c6.833,4.666,11.5,3,11.5,3"/>
	<path fill="none" stroke="#010101" d="M83.504,166.381c0,0-0.834-0.333-2,1.167s-0.333,8.5,7.5,14.5
		c7.34,5.623,12.5,3.334,12.5,3.334"/>
	<line fill="none" stroke="#010101" x1="126.004" y1="133.215" x2="131.838" y2="119.548"/>
	<line fill="none" stroke="#010101" x1="108.17" y1="111.215" x2="108.004" y2="111.548"/>
	<line fill="none" stroke="#010101" x1="108.17" y1="111.215" x2="113.67" y2="99.215"/>
	<line fill="none" stroke="#010101" x1="144.17" y1="154.382" x2="150.67" y2="141.382"/>
	<path fill="none" stroke="#010101" d="M133.338,141.382c0,0,2.333-5,8-5.833c5.666-0.833,9.666,1.333,9.666,1.333"/>
	<path fill="none" stroke="#010101" d="M116.67,122.048c0,0,1.668-5.833,7.334-7.167s7.334,1,7.334,1"/>
	<path fill="none" stroke="#010101" stroke-width="3" d="M164.504,111.048c4.68-6.825,33.5,8.167,29.666,14.667
		C189.944,132.883,160.504,116.882,164.504,111.048z"/>
	<path fill="none" stroke="#010101" stroke-width="3" d="M144.004,89.215c4.68-6.825,33.5,8.167,29.666,14.667
		C169.444,111.05,140.004,95.049,144.004,89.215z"/>
	<path fill="none" stroke="#010101" stroke-width="3" d="M125.17,68.048c4.68-6.825,33.5,8.167,29.667,14.667
		C150.61,89.883,121.17,73.882,125.17,68.048z"/>
	<path fill="none" stroke="#010101" d="M155.338,81.215c0,0,1,2.5-0.334,4.667c-0.636,1.033-2.166,2.333-2.166,2.333"/>
	<path fill="none" stroke="#010101" d="M125.17,68.048c0,0-2.166,1.167-3,5c-0.832,3.833,3,8.5,9.334,12.5
		s12.166,4.333,12.166,4.333s-1.5,0.833-2.666,3.833s1.334,9.333,8.834,13.833s14,4.333,14,4.333s-1.501,0.667-2.668,4
		c-1.166,3.333,0.756,10.145,12.168,15.667c10.333,5,16.986,1.983,19.166,0.167c3-2.5,2.166-7.5,2.166-7.5"/>
	<path fill="none" stroke="#010101" d="M174.17,102.715c0,0,0.5,1.833,0,3.833s-1.832,3.167-1.832,3.167"/>
	<path fill="none" stroke="#010101" d="M164.504,125.548l-5.5,11.667c0,0,0.334,4,7.834,7.5c6.35,2.963,9.832,0.167,9.832,0.167
		l5.334-10.5"/>
	<path fill="none" stroke="#010101" d="M161.67,130.882c0,0-5.5-0.667-7.5,2.833s2.49,10.028,11.668,14.167
		c8.5,3.833,15,2.5,16.666-0.833c1.654-3.31-2.834-7.333-2.834-7.333"/>
	<path fill="none" stroke="#010101" d="M155.67,132.215c0,0-3.166,0.167-5,3.667c-1.833,3.5,0.501,9.667,7.168,14.667
		c6.666,5,9.166,4.333,9.166,4.333"/>
	<path fill="none" stroke="#010101" d="M182.838,145.382c0,0,1.666,3.667-0.668,7.333c-1.887,2.966-6.166,3.5-6.166,3.5"/>
	<path fill="none" stroke="#010101" d="M145.004,104.215c-0.5,0.5-4.834,12.167-4.834,12.167s-0.87,2.897,6.668,6.667
		c6.666,3.333,10.5,0.5,10.5,0.5l4.832-11.5"/>
	<path fill="none" stroke="#010101" d="M142.504,109.882c0,0-5.834-1.5-7.5,1.667s0.975,10.391,10.166,14.5
		c14.168,6.333,18.668-1.5,18.668-1.5"/>
	<path fill="none" stroke="#010101" d="M135.504,111.215c0,0-2.834,0.334-3.834,3.667s1,10.5,9.334,15
		c7.543,4.073,11.666,3.5,11.666,3.5"/>
	<path fill="none" stroke="#010101" d="M146.67,95.215c0,0,4.536-1.106,12.168,3.167c8.332,4.667,8.332,6.667,8.332,6.667"/>
	<path fill="none" stroke="#010101" d="M167.338,117.715c0,0,4.166-0.833,11.666,2.833s8.666,6.5,8.666,6.5"/>
	<path fill="none" stroke="#010101" d="M128.17,74.382c0,0,3.99-0.366,11.334,3c8,3.667,9,6.833,9,6.833"/>
	<path fill="none" stroke="#010101" d="M126.338,82.215l-4.834,12.333c0,0-0.834,3.5,7.5,7.333c6.326,2.911,9,1.167,9,1.167l3-5.833
		"/>
	<path fill="none" stroke="#010101" d="M123.17,89.382c0,0-3.666-1.167-5.666,1.333c-1.92,2.4,0.834,8.833,9.166,13.167
		c10.195,5.301,15.001,2.833,16.168,1.333c1.166-1.5,0.332-3.5,0.332-3.5"/>
	<path fill="none" stroke="#010101" d="M117.504,90.715c0,0-2.166,0.167-3.5,3.5c-1.202,3.005,0.166,9.167,8,14s11,4.167,11,4.167"
		/>
</g>
</svg>
