<?xml version="1.0" encoding="utf-8"?>
<!-- Generator: Adobe Illustrator 13.0.0, SVG Export Plug-In . SVG Version: 6.00 Build 14948)  -->
<svg version="1.2" baseProfile="tiny" id="Layer_1" xmlns="http://www.w3.org/2000/svg" xmlns:xlink="http://www.w3.org/1999/xlink"
	 x="0px" y="0px" width="450.903px" height="257.789px" viewBox="0 0 450.903 257.789" xml:space="preserve">
<g>
	<path fill="#010101" d="M1.525,115.146c5.729,10.312,21.196,6.302,87.648,63.016c17.587,15.009,16.442,33.312,49.839,52.703
		c53.273,30.934,117.773,5.775,155.581-24.3c38.542-30.658,59.288-48.117,79.051-51.555c19.764-3.437,38.737,5.179,54.992,3.438
		c24.059-2.577,11.171-24.06,11.171-24.06s-24.059-23.2-48.978-23.2c-24.918,0-64.443,42.103-116.858,82.488
		c-52.414,40.385-90.221,49.837-126.311,28.355C111.573,200.55,11.836,94.522,11.836,94.522S-4.204,104.834,1.525,115.146z"/>
	<path fill="#010101" d="M227.571,246.95c0,0,47.211-5.774,89.362-47.259c33.789-33.254,59.289-41.244,61.866-24.919
		c1.636,10.36-29.499,13.507-56.47,32.031C265.616,245.759,227.571,246.95,227.571,246.95z"/>
	<path fill="#010101" d="M384.199,57.859c0,0-1.146-65.307,17.186-56.141C419.716,10.885,384.199,57.859,384.199,57.859z"/>
	<path fill="#010101" d="M389.927,60.15c0,0,43.047-66.051,58.473-52.933C465.435,21.704,389.927,60.15,389.927,60.15z"/>
	<path fill="#010101" d="M394.51,64.733c0,0,49.571-24.274,50.412-7.447C445.496,68.744,394.51,64.733,394.51,64.733z"/>
	<circle fill="#010101" cx="338.37" cy="215.397" r="4.583"/>
	<circle fill="#010101" cx="368.731" cy="203.367" r="2.865"/>
	<circle fill="#010101" cx="321.184" cy="242.895" r="14.894"/>
	<circle fill="#010101" cx="427.164" cy="80.773" r="7.447"/>
	<circle fill="#010101" cx="372.168" cy="33.799" r="4.01"/>
	<circle fill="#010101" cx="321.756" cy="79.628" r="7.447"/>
	<circle fill="#010101" cx="309.727" cy="106.553" r="1.146"/>
	<circle fill="#010101" cx="422.008" cy="4.583" r="4.583"/>
	<circle fill="#010101" cx="367.013" cy="8.02" r="2.292"/>
	<circle fill="#010101" cx="379.616" cy="17.186" r="1.146"/>
	<circle fill="#010101" cx="355.556" cy="19.478" r="1.146"/>
	<circle fill="#010101" cx="303.425" cy="133.478" r="2.865"/>
	<circle fill="#010101" cx="113.807" cy="138.633" r="3.437"/>
	<circle fill="#010101" cx="59.958" cy="130.613" r="2.291"/>
	<circle fill="#010101" cx="66.259" cy="102.543" r="2.864"/>
	<circle fill="#010101" cx="61.676" cy="174.724" r="7.447"/>
	<circle fill="#010101" cx="83.445" cy="193.056" r="2.864"/>
	<circle fill="#010101" cx="69.123" cy="191.337" r="1.146"/>
	<circle fill="#010101" cx="407.686" cy="70.462" r="2.864"/>
	<circle fill="#010101" cx="392.219" cy="169.568" r="2.292"/>
	<path fill="#ECB327" d="M18.138,97.387l14.895,18.904l57.286,48.121c0,0,28.07,28.07,43.538,37.236s54.422,30.935,96.241-4.01
		c41.819-34.945,49.839-63.016,33.227-100.824c-16.613-37.81-46.975-55.568-84.211-50.985s-65.88,31.508-73.327,48.121
		c-7.447,16.612-6.302,46.401-3.438,60.15s-1.146,18.332-1.146,18.332s-24.633-25.206-14.895-62.442s44.684-69.316,76.764-76.191
		c32.08-6.874,75.618-1.146,97.96,31.508s30.362,72.181,10.885,103.115S236.4,209.096,236.4,209.096s37.236-12.03,67.025-54.995
		c29.788-42.965,30.935-95.096,30.935-95.096s-24.634-23.487-14.895-34.944c9.738-11.458,49.839,26.925,81.919,56.713
		c32.081,29.789,46.402,52.131,38.383,60.151c-8.021,8.02-31.508-9.739-31.508-9.739s-14.895-12.603-52.131,10.312
		c-37.236,22.915-104.262,93.377-150.663,95.669c-46.402,2.291-68.172-6.874-84.784-23.487
		c-16.613-16.613-18.905-28.644-18.905-28.644l-75.617-62.442L5.536,111.136c0,0-10.312-3.438,0.572-14.321
		C16.993,85.93,18.138,97.387,18.138,97.387z"/>
	<path fill="#ECB327" d="M122.973,150.663c6.887-5.356,42.391,36.091,34.943,39.528C150.47,193.628,117.817,154.674,122.973,150.663
		z"/>
	<ellipse fill="#ECB327" cx="144.455" cy="141.211" rx="11.744" ry="11.171"/>
	<ellipse fill="#ECB327" cx="159.636" cy="156.105" rx="10.312" ry="10.025"/>
	<ellipse fill="#ECB327" cx="175.389" cy="171.859" rx="10.025" ry="10.312"/>
	<polygon fill="#ECB327" points="216.35,75.618 191.716,101.97 220.932,76.191 	"/>
	<path fill="#ECB327" d="M219.213,130.04c0,0,8.021-8.593,18.332-8.02c10.312,0.572,11.457,10.312,9.738,17.186
		c-1.718,6.874-6.301,7.447-22.341,21.196c-16.04,13.748-24.634,21.769-18.905,30.935s10.885,8.593,16.613,6.302
		c5.729-2.292,15.468-5.156,15.468-5.156s-26.353,18.332-36.663,3.438c-10.312-14.895-1.146-18.332,10.311-31.508
		c11.458-13.176,35.518-24.061,31.508-32.08c-4.01-8.021-5.729-8.594-12.603-4.583c-6.875,4.01-9.739,6.874-9.739,6.874
		L219.213,130.04z"/>
	<path fill="#ECB327" d="M234.108,156.965c0,0,4.583,5.729,15.468,1.146s13.749-11.457,13.749-11.457s0,4.583-1.719,9.166
		s-2.864,7.447-2.864,7.447s-5.156,3.437-14.322,2.864C235.254,165.558,234.108,156.965,234.108,156.965z"/>
	<path fill="#ECB327" d="M231.817,157.538c0,0,5.155,2.291,8.02,12.03c2.864,9.738,0.573,10.884-2.291,15.467
		s-20.623,10.312-20.623,10.312s15.467-8.02,14.321-21.196c-1.146-13.176-6.301-13.748-6.301-13.748L231.817,157.538z"/>
	<polygon fill="#ECB327" points="217.495,140.925 227.807,149.518 220.36,153.527 212.913,146.08 	"/>
	<path fill="#ECB327" d="M180.258,179.88c0,0,2.865,6.874,14.895,12.029c12.031,5.156,20.623,10.312,20.623,10.312
		s-16.039-1.718-26.924-9.165s-13.463-10.885-13.463-10.885L180.258,179.88z"/>
	<path fill="#ECB327" d="M134.43,137.487c0,0-17.187-17.186-21.196-30.361c-4.011-13.176,2.864-22.342,14.321-30.935
		c11.457-8.594,26.925,0.572,35.518,6.874c8.594,6.302,13.749,14.321,13.749,14.321l-4.011,3.438c0,0-15.467-14.321-24.06-18.904
		s-9.739-3.438-22.342,6.301c-12.603,9.739-7.447,23.488-1.719,30.936c5.729,7.447,11.458,14.321,11.458,14.321L134.43,137.487z"/>
	<path fill="#ECB327" d="M141.304,130.04l40.101-36.09c0,0,14.895-18.332,12.604-23.488c-2.292-5.155-12.031-14.895-14.895-24.633
		c-2.865-9.738,3.437-19.478,10.884-21.769c7.447-2.292,22.915,4.01,34.945,9.738c12.029,5.729,13.176,13.749,8.02,26.925
		c-5.155,13.176-17.759,20.05-17.759,20.05s16.04-17.759,12.03-30.935s-9.166-17.186-24.634-18.331
		c-15.467-1.146-24.06,9.166-14.321,21.195c9.739,12.03,16.613,6.875,11.458,22.342c-5.156,15.468-16.041,23.487-16.041,23.487
		l10.885,10.885l24.633,23.487l-39.527,38.955L141.304,130.04z"/>
	<path fill="#ECB327" d="M270.772,117.438l-31.508-33.799l8.593-10.885l-1.719-3.438l-9.738,12.03c0,0-8.021-9.166-21.769-9.738
		c-13.75-0.573-21.77,11.457-21.77,11.457s16.613-14.321,30.362-4.583c13.748,9.738,21.195,23.487,21.195,23.487
		s-5.729-1.719-17.186,5.156c-11.458,6.874-17.187,19.478-17.187,19.478s18.905-26.925,36.664-20.051s16.613,13.176,17.186,28.644
		c0.573,15.467-6.874,38.382-6.874,38.382s14.895-22.915,15.467-37.81C273.063,120.874,270.772,117.438,270.772,117.438z"/>
	<path fill="#ECB327" d="M195.726,107.126c0,0,6.874-6.875,13.177-2.292c6.301,4.583-3.438,14.322-3.438,14.322
		s5.155-8.594-0.573-10.312c-5.729-1.718-7.447,2.865-7.447,2.865L195.726,107.126z"/>
	<g>
		<path fill="none" d="M290.249,190.764c4.011-21.195,35.518-43.537,52.131-53.849c16.613-10.885,40.674-24.634,61.297-21.77
			c8.593,1.146,21.769,6.875,19.478,17.187"/>
		<g>
			<path fill="#FDDE58" d="M419.808,117.058l-1.617-1.213c0.184,0.356,0.293,0.809,0.295,1.409
				C418.66,117.756,419.199,117.337,419.808,117.058z"/>
			<polygon fill="#FDDE58" points="416.654,114.816 416.359,114.621 415.977,114.716 			"/>
			<path fill="#FDDE58" d="M413.286,114.073c0.486,0.352,1.025,0.508,1.604,0.57C414.539,114.249,414.023,113.98,413.286,114.073z"
				/>
			<path fill="#FDDE58" d="M415.397,115.777c0.005-0.465,0.11-0.914,0.565-1.059l0.015-0.002l-1.088-0.073
				C415.147,114.945,415.313,115.334,415.397,115.777z"/>
			<path fill="#FDDE58" d="M415.397,115.777c-0.004,0.456,0.083,0.952,0.065,1.212C415.485,116.571,415.469,116.154,415.397,115.777
				z"/>
			<path fill="#FDDE58" d="M410.364,124.664c-0.336,0.201,0.902-2.399,0.189-2.022c-1.411,0.283-2.73,1.188-3.71,0.886
				c-0.607,0.495-0.519-2.788-1.186-2.296c-1.423,0.462-4.641,3.954-3.006,4.004c2.176-0.077,3.974-0.377,6.153-0.097
				c2.03-0.423,4.205-0.858,6.293-0.612c0.479,0.201,0.745,0.657,0.897,1.109c-0.066-0.735-0.376-1.45-0.707-2.267
				C414.818,122.11,411.89,124.622,410.364,124.664z"/>
			<path fill="#FDDE58" d="M425.587,131.052c-0.238-0.394-0.925-1.093-0.928-1.085c2.083-1.591,0.868-3.68-0.584-4.719l-1.06,1.187
				c0.464,0.688,1.268,0.631,1.576-0.373c-1.062,2.404-1.183,3.688-1.145,5.341C424.237,131.401,425.123,131.549,425.587,131.052z"
				/>
			<polygon fill="#FDDE58" points="423.55,132.388 423.448,131.403 423.193,131.405 423.477,132.404 			"/>
			<path fill="#FDDE58" d="M406.068,114.643c-4.03-0.682-7.847-0.917-11.604-0.936c-0.247,0.583-0.392,1.251-0.796,0.948
				c-0.334-0.477-0.655-0.767-0.971-0.948l-1.646,0.03l-0.542,0.315l-0.009,0.017c-0.256,0.376-0.103,0.802,0.14,1.191
				c0.25,0.269,0.484,0.589,0.693,0.944c-0.132-0.225-0.453-0.564-0.693-0.944c-0.297-0.32-0.625-0.562-0.979-0.668
				c-0.462,0.255-0.945,0.434-1.507,0.354c0.53-0.426,1.042-0.508,1.507-0.354l0.848-0.54l0.231-0.298l-3.776,0.214
				c-0.264,0.135-0.519,0.262-0.715,0.402c-0.799,0.581-1.567,1.149-2.451-0.083l-0.679,0.065l0.189,0.221l-0.309-0.203l-2.84,0.43
				c-0.439,0.7-0.851,1.496-1.311,2.097c0.001,0-0.692-0.772-1.045-1.162c-0.019,0.768-0.212,1.339-0.532,1.703
				c0.751,0.656,1.48,1.41,2.054,1.835c0.999,1.164,0.451-3.168,1.944-0.775c-1.493-2.393-0.945,1.938-1.944,0.775
				c-0.573-0.426-1.303-1.179-2.054-1.835c-0.666,0.788-1.918,0.627-3.268-0.328c0.644-1.575,2.017-0.753,3.268,0.328
				c0.32-0.363,0.514-0.935,0.532-1.703c0.353,0.39,1.046,1.162,1.045,1.162c0.46-0.602,0.871-1.397,1.311-2.097
				c-1.882,0.234-3.71,0.696-5.629,1.067c-12.352,2.634-22.238,8.646-33.595,14.318c-5.973,2.801-12.444,5.491-18.722,7.975
				c-12.862,5.34-19.438,15.461-34.559,22.06c-5.806,2.735-11.521,13.807-13.327,21.198c2.001,10.955,15.658,7.743,16.222,8.276
				c10.914-0.588,6.321-4.62,15.251-7.276c-5.6,2.062-3.613-7.076,5.097-5.829c12.095,2.724,12.596-9.607,21.319-12.778
				c2.061-0.737,3.583-2.439,5.736-3.764c12.644-4.265,21.479-15.643,33.351-20.711c3.079-1.518,4.719-5.228,6.919-7.618
				c1.818-1.287,4.403-0.624,5.957-1.135c2.465-0.771,4.294-2.243,6.132-3.893c-2.218,0.983-3.701,2.122-6.136,3.309
				c-1.678,0.66,0.102-3.87,1.156-5.025c0.368-0.801,1.938,2.167,2.268,1.413c1.077-0.241,1.811-1.778,2.869-2.737
				c0.406-0.717,0.81,2.14,1.001,1.783c1.428-0.94,2.31-4.668,3.472-3.984c0.846,0.334,1.575,0.747,2.253,1.209
				c0.432,0.158,0.85,0.291,1.295,0.173l0.885-0.731c-0.198-0.879-0.255-1.958-0.31-3.042c0.459,0.133,1.05,0.847,1.479,1.043
				c-0.429-0.196-1.02-0.91-1.479-1.043c0.055,1.083,0.111,2.163,0.31,3.042c2.135-1.523,4.877-2.892,7.572-3.388l0.03-0.259
				c-1.506-0.084-2.723-0.623-4.112-2.506c0.611,0.691,0.399,1.477-0.371,1.578l-0.436-1.476c1.424-0.715,3.056-1.309,3.877,1.024
				c-0.003,0.001,0.705-0.514,1.073-0.76c0.328,0.502,0.076,1.372-0.031,2.141l0.899,0.006
				C407.725,116.904,406.096,114.627,406.068,114.643z"/>
			<path fill="#FDDE58" d="M389.614,114.51c0.205-0.125,0.459-0.234,0.731-0.352l-3.157,0.129
				C387.997,115.542,388.786,115.047,389.614,114.51z"/>
		</g>
	</g>
	<g>
		<path fill="none" d="M330.922,121.447c3.438-9.166,8.021-17.759,9.166-27.497c1.719-14.895-2.864-28.644-6.875-42.393"/>
		<g>
			<path fill="#FDDE58" d="M333.615,57.638l0.153,0.706c0.031-0.135,0.102-0.28,0.229-0.444
				C334.059,57.719,333.831,57.7,333.615,57.638z"/>
			<polygon fill="#FDDE58" points="333.904,59.001 333.928,59.126 334.042,59.207 			"/>
			<path fill="#FDDE58" d="M334.486,60.139c-0.009-0.229-0.099-0.423-0.214-0.605C334.252,59.729,334.308,59.932,334.486,60.139z"/>
			<path fill="#FDDE58" d="M334.434,59.113c-0.114,0.114-0.249,0.19-0.388,0.097l-0.004-0.004l0.229,0.327
				C334.288,59.389,334.345,59.248,334.434,59.113z"/>
			<path fill="#FDDE58" d="M334.434,59.113c0.112-0.111,0.203-0.26,0.269-0.322L334.434,59.113z"/>
			<path fill="#FDDE58" d="M337.783,58.481c0.138,0.091-0.793,0.327-0.518,0.511c0.424,0.495,0.979,0.865,1.134,1.396
				c0.278,0.186-0.636,0.856-0.361,1.04c0.413,0.5,2.053,1.645,1.763,0.786c-0.479-1.284-0.982-2.046-1.486-3.161
				c-0.644-0.836-1.344-1.614-1.955-2.478c-0.121-0.257-0.123-0.529-0.136-0.8l-0.116,1.167
				C335.994,57.51,337.349,57.765,337.783,58.481z"/>
			<path fill="#FDDE58" d="M332.67,52.364c0.14,0.091,0.417,0.271,0.417,0.271c-0.505,0.732-0.078,1.224,0.346,1.714l0.387-0.386
				c-0.148-0.309-0.417-0.271-0.534,0.076c0.367-0.823,0.27-1.471-0.012-2.079C333.035,52.073,332.746,52.147,332.67,52.364z"/>
			<polygon fill="#FDDE58" points="333.088,51.607 333.274,51.96 333.35,51.922 333.108,51.588 			"/>
			<path fill="#FDDE58" d="M336.061,62.464c0.466,1.605,0.826,3.14,1.131,4.646c0.212,0.068,0.438,0.099,0.365,0.279
				c-0.136,0.159-0.212,0.3-0.252,0.435l0.099,0.664l0.126,0.214l0.006,0.003c0.136,0.097,0.272,0.029,0.392-0.08l0.286-0.31
				c-0.069,0.061-0.169,0.204-0.286,0.31c-0.095,0.129-0.162,0.269-0.184,0.415c0.104,0.186,0.183,0.385,0.179,0.615
				c-0.165-0.216-0.212-0.422-0.179-0.615l-0.214-0.338l-0.107-0.088l0.205,1.522l0.147,0.293c0.208,0.33,0.416,0.663,0.011,0.982
				l0.032,0.272l0.072-0.068l-0.065,0.116l0.116,1.151c0.22,0.21,0.486,0.419,0.665,0.647c0,0-0.283,0.231-0.427,0.345
				c0.254,0.058,0.437,0.177,0.546,0.334c0.247-0.255,0.525-0.502,0.688-0.714c0.426-0.352-1.046-0.389-0.211-0.869
				c-0.835,0.48,0.637,0.518,0.211,0.869c-0.162,0.211-0.44,0.459-0.688,0.714c0.231,0.33,0.145,0.828-0.251,1.277
				c-0.482-0.392-0.162-0.847,0.251-1.277c-0.109-0.157-0.292-0.276-0.546-0.334c0.144-0.114,0.427-0.345,0.427-0.345
				c-0.179-0.228-0.445-0.437-0.665-0.647l0.148,2.29c0.296,4.976,0.747,9.503,0.129,14.529c-0.387,2.729-1.049,5.245-2.127,7.531
				c-2.121,4.518-2.589,9.252-6.847,13.266c-1.545,1.54-2.625,5.296-3.271,7.291c0.482,3.144,4.867,3.244,5.124,3.226
				c3.875-0.262,2.489-2.129,5.674-4.42c-1.942,1.642-1.459-2.396,1.596-3.492c4.589-1.564,3.554-6.964,5.56-10.67
				c0.48-0.968,0.586-2.104,0.951-3.321c2.621-6.505,1.043-12.705,0.68-19.341c-0.192-1.776-1.24-3.206-2.007-4.542
				c-0.345-1.018-0.078-2.221-0.23-3.076c-0.238-1.343-0.874-2.383-1.516-3.373c0.432,1.17,0.928,1.976,1.316,3.322
				c0.207,0.908-1.296-0.41-1.719-0.925c-0.268-0.206,0.686-0.825,0.416-1.031c-0.128-0.551-0.661-0.963-1.061-1.489
				c-0.267-0.202,0.677-0.39,0.544-0.492c-0.396-0.758-1.731-1.081-1.595-1.65l0.142-1.168c-0.005-0.227-0.018-0.449-0.114-0.661
				l-0.347-0.368c-0.255,0.188-0.592,0.32-0.932,0.45c-0.003-0.219,0.125-0.564,0.12-0.787c0.005,0.223-0.123,0.568-0.12,0.787
				c0.34-0.13,0.677-0.262,0.932-0.45c-0.823-0.891-1.621-1.95-2.322-2.934l-0.078,0.039c0.273,0.612,0.35,1.27-0.035,2.085
				c0.128-0.343,0.396-0.377,0.537-0.062l-0.394,0.377c-0.415-0.503-0.828-0.999-0.304-1.726c0,0-0.272-0.188-0.41-0.279
				c0.075-0.216,0.369-0.288,0.605-0.396l-0.183-0.357C336.427,61.46,336.065,62.464,336.061,62.464z"/>
			<path fill="#FDDE58" d="M337.718,69.061l-0.146-0.294l0.159,1.28C338.136,69.724,337.928,69.392,337.718,69.061z"/>
		</g>
	</g>
	<g>
		<path fill="none" d="M270.199,193.056c-14.321,13.176-28.07,21.769-46.975,27.497c-16.04,4.01-32.653,13.176-49.267,13.176
			c-14.322,0-28.07-6.302-40.674-12.603"/>
		<g>
			<path fill="#FFFFFF" d="M143.837,227.581l1.365,0.637c-0.208-0.162-0.394-0.358-0.56-0.612
				C144.386,227.377,144.143,227.505,143.837,227.581z"/>
			<polygon fill="#FFFFFF" points="146.465,228.814 146.706,228.93 146.948,228.938 			"/>
			<path fill="#FFFFFF" d="M148.994,229.554c-0.415-0.215-0.84-0.341-1.267-0.438C148.056,229.318,148.469,229.477,148.994,229.554z
				"/>
			<path fill="#FFFFFF" d="M147.136,228.581c0.095,0.194,0.107,0.363-0.178,0.358l-0.01-0.001l0.778,0.178
				C147.481,228.97,147.29,228.779,147.136,228.581z"/>
			<path fill="#FFFFFF" d="M147.136,228.581c-0.092-0.19-0.268-0.405-0.316-0.514L147.136,228.581z"/>
			<path fill="#FFFFFF" d="M149.013,225.686c0.274-0.012-0.138,0.859,0.418,0.84c1.221,0.171,2.322,0.126,3.357,0.515
				c0.543-0.021,0.942,1.267,1.498,1.198c1.239,0.104,4.472-0.232,2.767-0.706c-2.575-0.613-4.293-0.981-6.608-1.684
				c-1.981-0.288-3.887-0.695-5.9-1.153c-0.542-0.182-1.004-0.456-1.463-0.749c0.571,0.442,1.177,0.842,1.851,1.29
				C145.793,225.89,147.437,225.266,149.013,225.686z"/>
			<path fill="#FFFFFF" d="M134.103,222.362c0.282,0.019,0.842,0.054,0.842,0.054c0.736,1.13,1.948,1.436,3.163,1.719l-0.28-0.665
				c-0.65-0.259-0.839-0.053-0.374,0.41c-1.019-1.151-2.178-1.821-3.448-2.337C133.965,221.813,133.814,222.072,134.103,222.362z"/>
			<polygon fill="#FFFFFF" points="133.248,221.258 134.005,221.543 134.015,221.454 133.234,221.225 			"/>
			<path fill="#FFFFFF" d="M154.511,230.589c3.293,1.064,6.457,1.876,9.569,2.579c0.275-0.146,0.484-0.335,0.787-0.176
				c0.22,0.203,0.449,0.345,0.688,0.451l1.371,0.259h0.5l0.01-0.004c0.273-0.07,0.216-0.229,0.075-0.393l-0.435-0.417
				c0.077,0.094,0.295,0.257,0.435,0.417c0.198,0.152,0.432,0.286,0.708,0.382c0.425,0.024,0.87-0.021,1.326,0.069
				c-0.523,0.078-0.967,0.08-1.326-0.069l-0.793,0.015l-0.239,0.051c1.046,0.239,2.102,0.352,3.169,0.44l0.672-0.042
				c0.776-0.089,1.541-0.177,2.011,0.314l0.573,0.059l-0.108-0.091l0.21,0.101c0.805,0.046,1.616-0.005,2.432-0.003
				c0.521-0.214,1.043-0.475,1.57-0.646c0,0,0.387,0.294,0.583,0.442c0.199-0.254,0.499-0.433,0.852-0.535
				c-0.458-0.259-0.881-0.549-1.257-0.722c-0.56-0.445-1.132,1.038-1.813,0.175c0.682,0.863,1.253-0.62,1.813-0.175
				c0.376,0.173,0.798,0.463,1.257,0.722c0.749-0.184,1.733-0.167,2.581,0.141c-0.912,0.598-1.805,0.321-2.581-0.141
				c-0.354,0.103-0.653,0.281-0.852,0.535c-0.196-0.148-0.583-0.442-0.583-0.442c-0.526,0.171-1.049,0.432-1.57,0.646
				c1.585-0.049,3.222,0.031,4.852-0.139c10.613-0.948,19.733-4.664,29.969-7.767c5.694-1.81,10.651-2.54,16.496-3.905
				c11.103-2.554,19.95-8.127,30.742-12.731c4.156-1.841,10.436-7.301,13.423-10.268c3.185-4.939-1.825-6.011-2.152-6.033
				c-4.851-0.396-5.494,2.866-12.06,5.417c4.351-1.919-1.339,3.956-6.299,4.309c-7.011,0.391-13.105,6.944-20.63,8.826
				c-1.81,0.521-3.649,1.31-5.824,1.941c-11.807,1.886-22.828,8.13-34.391,11.294c-3.097,0.846-5.618,2.421-8.189,3.274
				c-1.921,0.6-4.029,0.24-5.564,0.32c-2.428,0.284-4.532,0.394-6.617,0.721c2.303-0.08,3.968-0.106,6.469-0.523
				c1.683-0.168-1.096,1.306-2.269,1.657c-0.497,0.223-1.249-0.912-1.73-0.713c-1.054-0.056-2.048,0.322-3.227,0.535
				c-0.513,0.188-0.352-0.795-0.604-0.715c-1.556-0.02-2.961,1.016-3.931,0.603c-0.746-0.231-1.393-0.556-2.023-0.857
				c-0.409-0.152-0.812-0.295-1.259-0.362l-0.902,0.033c0.153,0.338,0.149,0.708,0.142,1.077c-0.403-0.151-0.936-0.495-1.341-0.646
				c0.405,0.15,0.938,0.494,1.341,0.646c0.007-0.369,0.011-0.739-0.142-1.077c-2.199,0.142-4.674-0.271-7.023-0.522l0.003,0.092
				c1.322,0.312,2.546,0.788,3.725,1.771c-0.523-0.387-0.371-0.619,0.306-0.465l0.378,0.618c-1.23-0.102-2.483-0.209-3.362-1.212
				c0,0-0.563,0.05-0.845,0.075c-0.325-0.241-0.207-0.521-0.201-0.787l-0.779-0.204
				C152.979,229.497,154.512,230.575,154.511,230.589z"/>
			<path fill="#FFFFFF" d="M168.246,233.721l-0.666-0.022c0.872,0.211,1.762,0.275,2.651,0.368
				C169.796,233.562,169.025,233.697,168.246,233.721z"/>
		</g>
	</g>
	<g>
		<path fill="none" d="M153.907,127.749c6.302-5.729,11.457-12.604,17.76-18.332"/>
		<g>
			<path fill="#FDDE58" d="M169.254,109.928l-0.218,0.147c0.078,0.018,0.183,0.066,0.33,0.157
				C169.481,110.271,169.354,110.096,169.254,109.928z"/>
			<polygon fill="#FDDE58" points="168.829,110.207 168.789,110.231 168.821,110.321 			"/>
			<path fill="#FDDE58" d="M168.677,110.698c0.095-0.017,0.126-0.093,0.138-0.189C168.718,110.503,168.662,110.555,168.677,110.698z
				"/>
			<path fill="#FDDE58" d="M169.096,110.615c-0.118-0.083-0.232-0.182-0.274-0.291l0-0.003l-0.006,0.188L169.096,110.615z"/>
			<path fill="#FDDE58" d="M169.096,110.615l0.301,0.191L169.096,110.615z"/>
			<path fill="#FDDE58" d="M171.374,113.133c0.044,0.107-0.616-0.59-0.529-0.375c0.042,0.337,0.22,0.767,0.087,0.9
				c0.09,0.214-0.755-0.449-0.666-0.235c0.043,0.337,0.589,1.609,0.764,1.355c0.223-0.419,0.252-0.812,0.421-1.227
				c-0.032-0.511-0.12-1.067-0.113-1.562c0.037-0.101,0.154-0.11,0.263-0.127l-0.57-0.054
				C170.719,111.742,171.418,112.784,171.374,113.133z"/>
			<path fill="#FDDE58" d="M171.005,109.019c0.041,0.111,0.123,0.333,0.123,0.333c-0.609-0.37-0.578-0.021-0.544,0.322l0.393,0.286
				c0.048-0.124-0.125-0.331-0.343-0.41c0.571,0.257,0.793,0.164,0.894-0.073C171.341,109.293,171.143,109.07,171.005,109.019z"/>
			<polygon fill="#FDDE58" points="171.573,109.321 171.527,109.476 171.588,109.534 171.592,109.335 			"/>
			<path fill="#FDDE58" d="M168.618,111.993c-0.396,0.442-0.827,0.801-1.283,1.119c0.104,0.159,0.24,0.331,0.119,0.292
				c-0.151-0.087-0.258-0.13-0.338-0.148l-0.206,0.132l-0.006,0.111l0.002,0.004c0.048,0.108,0.165,0.201,0.286,0.279l0.311,0.182
				l-0.311-0.182l-0.288-0.098c-0.006,0.094-0.033,0.172-0.127,0.192c-0.021-0.142,0.029-0.197,0.127-0.192v-0.186l-0.034-0.087
				l-0.475,0.299l-0.021,0.137c0.006,0.186,0.01,0.369-0.383,0.108l-0.087,0.051l0.075,0.045l-0.089-0.036l-0.369,0.217l0.211,0.573
				c0,0-0.274-0.173-0.412-0.261c0.149,0.192,0.229,0.34,0.246,0.44c0.26,0.144,0.536,0.311,0.721,0.4
				c0.412,0.262-0.562-0.811,0.171-0.27c-0.732-0.541,0.241,0.532-0.171,0.27c-0.185-0.089-0.461-0.256-0.721-0.4
				c0.037,0.213-0.202,0.219-0.634-0.001c-0.184-0.402,0.2-0.237,0.634,0.001c-0.017-0.1-0.096-0.249-0.246-0.44
				c0.138,0.088,0.412,0.261,0.412,0.261l-0.211-0.573l-0.735,0.43c-1.654,0.888-2.708,2.191-4.281,3.229
				c-0.877,0.539-1.823,0.959-2.865,1.257c-2.051,0.618-2.316,2.698-5.299,2.213c-1.078-0.131-1.648,1.078-2.05,1.615
				c0.45,1.793,3.541,4.528,3.737,4.661c2.791,2.178,1.794,0.424,4.081,1.069c-1.395-0.273-1.142-2.046,1.103-0.881
				c3.398,1.784,2.56-1.45,4.118-1.804c0.406-0.091,0.534-0.474,0.866-0.728c2.363-0.722,2.597-3.261,4.242-4.624
				c0.379-0.426,0.069-1.402,0.042-2.09c0.119-0.372,0.719-0.328,0.912-0.54c0.301-0.335,0.319-0.853,0.267-1.417
				c-0.156,0.427-0.174,0.828-0.384,1.268c-0.167,0.268-0.75-1.003-0.807-1.341c-0.096-0.213,0.771,0.419,0.673,0.206
				c0.129-0.142-0.063-0.566-0.121-0.906c-0.096-0.212,0.593,0.458,0.546,0.353c0.037-0.34-0.699-1.344-0.383-1.286l0.58,0.044
				c0.091-0.015,0.175-0.036,0.204-0.117l-0.065-0.274c-0.238-0.179-0.505-0.421-0.772-0.665c0.091-0.014,0.315,0.062,0.406,0.047
				c-0.09,0.015-0.315-0.061-0.406-0.047c0.267,0.244,0.535,0.486,0.772,0.665c-0.144-0.651-0.2-1.305-0.208-1.877l-0.064-0.057
				c-0.096,0.232-0.319,0.326-0.905,0.083c0.225,0.076,0.404,0.274,0.359,0.397l-0.404-0.272c-0.044-0.337-0.086-0.677,0.542-0.323
				c0,0-0.088-0.215-0.133-0.324c0.141,0.048,0.35,0.266,0.541,0.438l0.044-0.15C169.27,112.213,168.618,111.993,168.618,111.993z"
				/>
			<path fill="#FDDE58" d="M166.879,113.668l0.025-0.133l-0.407,0.241C166.89,114.04,166.885,113.855,166.879,113.668z"/>
		</g>
	</g>
	<g>
		<path fill="none" d="M157.344,138.061c9.166-10.312,17.759-20.051,28.644-28.644"/>
		<g>
			<path fill="#FDDE58" d="M182.604,110.563l-0.342,0.229c0.096,0.006,0.216,0.045,0.375,0.129
				C182.775,110.948,182.674,110.753,182.604,110.563z"/>
			<polygon fill="#FDDE58" points="181.94,111 181.878,111.038 181.887,111.145 			"/>
			<path fill="#FDDE58" d="M181.556,111.649c0.131-0.041,0.201-0.143,0.251-0.265C181.683,111.396,181.589,111.471,181.556,111.649z
				"/>
			<path fill="#FDDE58" d="M182.138,111.459c-0.125-0.08-0.237-0.181-0.251-0.311l0-0.004l-0.08,0.239L182.138,111.459z"/>
			<path fill="#FDDE58" d="M182.138,111.459c0.122,0.078,0.255,0.134,0.324,0.18L182.138,111.459z"/>
			<path fill="#FDDE58" d="M184.19,114.168c0.018,0.126-0.59-0.617-0.558-0.363c-0.074,0.419-0.005,0.927-0.233,1.125
				c0.036,0.253-0.826-0.412-0.791-0.159c-0.074,0.419,0.147,1.927,0.479,1.566c0.462-0.582,0.655-1.088,1.041-1.652
				c0.156-0.643,0.255-1.33,0.453-1.956c0.088-0.136,0.247-0.172,0.398-0.217l-0.737,0.053
				C183.856,112.546,184.384,113.716,184.19,114.168z"/>
			<path fill="#FDDE58" d="M185.258,109.058c0.012,0.13,0.04,0.391,0.04,0.391c-0.671-0.335-0.757,0.094-0.841,0.518l0.413,0.277
				c0.11-0.166-0.041-0.39-0.302-0.443c0.661,0.204,0.991,0.038,1.213-0.281C185.602,109.331,185.42,109.093,185.258,109.058z"/>
			<polygon fill="#FDDE58" points="185.899,109.317 185.781,109.521 185.84,109.581 185.919,109.331 			"/>
			<path fill="#FDDE58" d="M180.985,113.296c-0.69,0.639-1.394,1.18-2.115,1.673c0.075,0.182,0.185,0.374,0.042,0.348
				c-0.165-0.08-0.287-0.115-0.385-0.122l-0.321,0.208l-0.051,0.143l0.001,0.005c0.021,0.127,0.136,0.224,0.265,0.299l0.335,0.17
				c-0.073-0.044-0.209-0.097-0.335-0.17l-0.338-0.068c-0.05,0.116-0.108,0.229-0.237,0.274c0.024-0.179,0.106-0.266,0.237-0.274
				l0.072-0.236l-0.01-0.104l-0.729,0.485l-0.076,0.183c-0.06,0.24-0.121,0.479-0.531,0.229l-0.13,0.086l0.08,0.042l-0.102-0.026
				l-0.553,0.367l0.064,0.698c0,0-0.289-0.162-0.435-0.245c0.123,0.216,0.172,0.391,0.157,0.517
				c0.282,0.127,0.577,0.282,0.782,0.355c0.435,0.247-0.429-0.928,0.316-0.39c-0.745-0.538,0.118,0.637-0.316,0.39
				c-0.206-0.074-0.5-0.228-0.782-0.355c-0.029,0.269-0.338,0.331-0.814,0.143c-0.091-0.48,0.343-0.354,0.814-0.143
				c0.015-0.126-0.034-0.301-0.157-0.517c0.146,0.083,0.435,0.245,0.435,0.245l-0.064-0.698l-1.101,0.729
				c-2.432,1.567-4.32,3.417-6.646,5.268c-1.291,0.974-2.638,1.815-4.083,2.536c-2.906,1.438-3.779,4.336-7.585,4.975
				c-1.406,0.298-2.503,2.215-3.175,3.116c0.189,2.178,3.789,4.335,4.008,4.438c3.235,1.651,2.256-0.18,5.037-0.194
				c-1.721,0.165-1.057-2.208,1.531-1.494c3.88,1.17,3.337-2.669,5.48-3.556c0.534-0.225,0.793-0.746,1.277-1.157
				c3.137-1.523,4.046-4.857,6.71-6.978c0.633-0.634,0.577-1.823,0.785-2.708c0.284-0.509,1.035-0.585,1.355-0.901
				c0.502-0.501,0.71-1.176,0.844-1.897c-0.352,0.589-0.517,1.113-0.94,1.729c-0.309,0.384-0.604-1.133-0.555-1.56
				c-0.047-0.254,0.837,0.372,0.788,0.118c0.215-0.213,0.122-0.721,0.169-1.149c-0.046-0.255,0.597,0.469,0.575,0.343
				c0.187-0.444-0.383-1.577,0.01-1.566l0.747-0.063c0.126-0.038,0.246-0.082,0.315-0.191l0.022-0.336
				c-0.244-0.179-0.501-0.433-0.758-0.688c0.125-0.036,0.392,0.015,0.517-0.022c-0.125,0.038-0.392-0.014-0.517,0.022
				c0.257,0.256,0.514,0.51,0.758,0.688c0.067-0.8,0.249-1.621,0.458-2.344l-0.063-0.059c-0.217,0.313-0.548,0.48-1.225,0.29
				c0.266,0.051,0.426,0.267,0.319,0.431l-0.426-0.264c0.072-0.418,0.146-0.839,0.838-0.519c0,0-0.034-0.255-0.051-0.383
				c0.167,0.032,0.359,0.264,0.544,0.444l0.117-0.2C181.759,113.442,180.986,113.295,180.985,113.296z"/>
			<path fill="#FDDE58" d="M178.057,115.766l0.084-0.174l-0.618,0.397C177.934,116.245,177.988,116,178.057,115.766z"/>
		</g>
	</g>
	<g>
		<path fill="none" d="M167.083,147.799c11.458-10.884,23.488-21.769,34.945-32.653"/>
		<g>
			<path fill="#FDDE58" d="M198.241,116.866l-0.382,0.292c0.105-0.006,0.236,0.018,0.411,0.085
				C198.421,117.251,198.314,117.059,198.241,116.866z"/>
			<polygon fill="#FDDE58" points="197.5,117.422 197.431,117.473 197.438,117.585 			"/>
			<path fill="#FDDE58" d="M197.06,118.167c0.146-0.061,0.226-0.18,0.284-0.317C197.207,117.88,197.102,117.974,197.06,118.167z"/>
			<path fill="#FDDE58" d="M197.705,117.886c-0.135-0.068-0.255-0.161-0.268-0.297l0-0.004l-0.094,0.265L197.705,117.886z"/>
			<path fill="#FDDE58" d="M197.705,117.886c0.132,0.066,0.277,0.107,0.353,0.146L197.705,117.886z"/>
			<path fill="#FDDE58" d="M199.882,120.495c0.013,0.134-0.632-0.577-0.606-0.308c-0.1,0.463-0.048,1.004-0.313,1.254
				c0.026,0.271-0.897-0.325-0.87-0.056c-0.1,0.463,0.054,2.085,0.445,1.64c0.549-0.708,0.793-1.291,1.251-1.962
				c0.206-0.722,0.344-1.478,0.587-2.181c0.104-0.16,0.282-0.224,0.454-0.296l-0.826,0.172
				C199.574,118.798,200.121,119.974,199.882,120.495z"/>
			<path fill="#FDDE58" d="M201.212,114.884c0.013,0.135,0.04,0.405,0.04,0.405c-0.747-0.248-0.846,0.215-0.946,0.676l0.457,0.229
				c0.125-0.192-0.041-0.405-0.33-0.421c0.733,0.114,1.108-0.115,1.361-0.485C201.595,115.117,201.394,114.896,201.212,114.884z"/>
			<polygon fill="#FDDE58" points="201.93,115.054 201.794,115.287 201.86,115.341 201.952,115.065 			"/>
			<path fill="#FDDE58" d="M196.375,120.014c-0.783,0.782-1.576,1.461-2.384,2.087c0.071,0.189,0.18,0.386,0.026,0.375
				c-0.174-0.067-0.304-0.09-0.41-0.086l-0.359,0.266l-0.064,0.163l0.001,0.005c0.015,0.138,0.134,0.229,0.268,0.297l0.352,0.147
				c-0.076-0.04-0.22-0.082-0.352-0.147l-0.361-0.035c-0.058,0.136-0.138,0.256-0.284,0.316c0.043-0.194,0.146-0.29,0.284-0.316
				l0.092-0.268l-0.005-0.113l-0.836,0.593l-0.101,0.201c-0.089,0.261-0.18,0.522-0.609,0.285l-0.152,0.103l0.084,0.039l-0.11-0.02
				l-0.645,0.433l0,0.744c0,0-0.302-0.153-0.454-0.232c0.114,0.223,0.149,0.407,0.12,0.544c0.297,0.117,0.606,0.261,0.825,0.325
				c0.455,0.232-0.377-0.965,0.391-0.444c-0.768-0.521,0.064,0.676-0.391,0.444c-0.219-0.064-0.528-0.208-0.825-0.325
				c-0.06,0.292-0.407,0.38-0.909,0.211c-0.049-0.511,0.413-0.404,0.909-0.211c0.03-0.137-0.006-0.322-0.12-0.544
				c0.152,0.079,0.454,0.232,0.454,0.232l0-0.744l-1.283,0.859c-2.849,1.824-5.01,3.994-7.844,6.024
				c-1.557,1.073-3.151,2.002-4.826,2.796c-3.337,1.586-4.802,4.717-9.065,5.386c-1.581,0.314-3.12,2.381-4.014,3.354
				c-0.193,2.36,3.314,4.724,3.534,4.835c3.208,1.809,2.484-0.183,5.511-0.188c-1.902,0.172-0.743-2.398,1.942-1.615
				c4.008,1.27,4.131-2.856,6.619-3.897c0.623-0.258,0.999-0.837,1.6-1.3c3.708-1.759,5.299-5.368,8.521-7.991
				c0.793-0.756,0.891-2.064,1.231-3.05c0.379-0.581,1.228-0.729,1.626-1.104c0.624-0.592,0.936-1.345,1.166-2.137
				c-0.46,0.669-0.706,1.253-1.253,1.962c-0.391,0.445-0.542-1.18-0.442-1.644c-0.025-0.271,0.896,0.328,0.869,0.057
				c0.265-0.25,0.216-0.791,0.314-1.256c-0.026-0.271,0.619,0.444,0.605,0.309c0.241-0.521-0.304-1.699,0.125-1.739l0.824-0.171
				c0.142-0.06,0.276-0.125,0.36-0.255l0.046-0.373c-0.257-0.162-0.525-0.405-0.792-0.65c0.139-0.057,0.429-0.037,0.568-0.096
				c-0.14,0.059-0.43,0.039-0.568,0.096c0.267,0.245,0.534,0.488,0.792,0.65c0.125-0.889,0.368-1.809,0.631-2.622l-0.067-0.055
				c-0.253,0.37-0.627,0.598-1.359,0.482c0.289,0.02,0.454,0.232,0.328,0.426l-0.453-0.23c0.1-0.465,0.198-0.928,0.944-0.676
				c0,0-0.026-0.271-0.04-0.407c0.182,0.012,0.384,0.236,0.58,0.405l0.137-0.233C197.216,120.068,196.375,120.014,196.375,120.014z"
				/>
			<path fill="#FDDE58" d="M193.066,123.071l0.102-0.201l-0.71,0.486C192.885,123.595,192.976,123.334,193.066,123.071z"/>
		</g>
	</g>
	<g>
		<path fill="none" d="M178.541,152.955c7.447-9.739,17.186-18.904,26.352-26.925"/>
		<g>
			<path fill="#FDDE58" d="M201.699,127.11l-0.314,0.217c0.092,0.008,0.21,0.046,0.37,0.129
				C201.889,127.482,201.779,127.294,201.699,127.11z"/>
			<polygon fill="#FDDE58" points="201.089,127.523 201.032,127.56 201.047,127.663 			"/>
			<path fill="#FDDE58" d="M200.761,128.145c0.124-0.037,0.185-0.135,0.225-0.253C200.867,127.902,200.782,127.974,200.761,128.145z
				"/>
			<path fill="#FDDE58" d="M201.309,127.969c-0.125-0.078-0.239-0.178-0.261-0.302v-0.004l-0.061,0.229L201.309,127.969z"/>
			<path fill="#FDDE58" d="M201.309,127.969c0.122,0.077,0.253,0.132,0.323,0.178L201.309,127.969z"/>
			<path fill="#FDDE58" d="M203.448,130.607c0.024,0.122-0.605-0.603-0.56-0.356c-0.047,0.406,0.046,0.901-0.165,1.093
				c0.047,0.247-0.819-0.406-0.772-0.161c-0.047,0.406,0.238,1.883,0.542,1.532c0.418-0.566,0.58-1.06,0.924-1.606
				c0.117-0.624,0.173-1.29,0.328-1.896c0.077-0.131,0.229-0.165,0.373-0.208l-0.711,0.048
				C203.032,129.032,203.612,130.167,203.448,130.607z"/>
			<path fill="#FDDE58" d="M204.157,125.685c0.022,0.125,0.066,0.375,0.066,0.375c-0.674-0.324-0.727,0.086-0.778,0.493l0.419,0.268
				c0.095-0.159-0.067-0.374-0.323-0.427c0.653,0.199,0.963,0.04,1.157-0.265C204.511,125.947,204.318,125.719,204.157,125.685z"/>
			<polygon fill="#FDDE58" points="204.799,125.934 204.699,126.129 204.76,126.187 204.819,125.947 			"/>
			<path fill="#FDDE58" d="M200.312,129.731c-0.626,0.61-1.27,1.126-1.931,1.594c0.081,0.179,0.195,0.368,0.058,0.34
				c-0.161-0.081-0.279-0.117-0.373-0.126l-0.295,0.197l-0.042,0.139l0.001,0.005c0.025,0.125,0.14,0.222,0.266,0.298l0.327,0.174
				l-0.327-0.174l-0.322-0.07c-0.037,0.117-0.094,0.219-0.216,0.259c0.017-0.173,0.097-0.249,0.216-0.259l0.055-0.232l-0.015-0.103
				l-0.677,0.451l-0.068,0.173c-0.051,0.229-0.103,0.456-0.507,0.198l-0.124,0.078l0.079,0.044l-0.1-0.029l-0.523,0.33l0.083,0.674
				c0,0-0.284-0.168-0.428-0.254c0.125,0.213,0.178,0.383,0.167,0.504c0.276,0.135,0.565,0.296,0.767,0.375
				c0.428,0.256-0.441-0.911,0.295-0.363c-0.737-0.548,0.132,0.619-0.295,0.363c-0.201-0.079-0.491-0.24-0.767-0.375
				c-0.021,0.258-0.317,0.305-0.783,0.104c-0.102-0.466,0.321-0.326,0.783-0.104c0.011-0.121-0.041-0.291-0.167-0.504
				c0.144,0.086,0.428,0.254,0.428,0.254l-0.083-0.674l-1.042,0.655c-2.307,1.408-4.062,3.095-6.269,4.789
				c-1.227,0.889-2.512,1.648-3.9,2.294c-2.821,1.26-3.531,4.063-7.223,4.777c-1.374,0.324-2.36,2.234-2.972,3.13
				c0.335,2.091,4.094,4.008,4.313,4.108c3.32,1.495,2.204-0.21,4.899-0.225c-1.657,0.158-1.196-2.097,1.347-1.395
				c3.801,1.18,2.911-2.453,5.011-3.214c0.507-0.19,0.737-0.675,1.188-1.045c2.964-1.303,3.701-4.428,6.256-6.399
				c0.6-0.589,0.518-1.743,0.696-2.59c0.263-0.479,0.989-0.524,1.292-0.817c0.475-0.465,0.659-1.107,0.769-1.798
				c-0.325,0.554-0.472,1.053-0.866,1.632c-0.29,0.358-0.616-1.117-0.58-1.526c-0.053-0.247,0.823,0.391,0.768,0.144
				c0.203-0.197,0.098-0.69,0.132-1.101c-0.052-0.248,0.59,0.469,0.563,0.346c0.157-0.439-0.435-1.559-0.06-1.543l0.714-0.053
				c0.12-0.036,0.233-0.077,0.294-0.184l0.006-0.329c-0.243-0.178-0.502-0.429-0.761-0.683c0.118-0.033,0.376,0.02,0.495-0.016
				c-0.118,0.035-0.376-0.018-0.495,0.016c0.259,0.254,0.518,0.505,0.761,0.683c0.027-0.783,0.159-1.581,0.32-2.282l-0.063-0.058
				c-0.191,0.303-0.501,0.461-1.16,0.268c0.258,0.054,0.423,0.265,0.329,0.424l-0.422-0.263c0.047-0.406,0.094-0.813,0.776-0.494
				c0,0-0.046-0.248-0.07-0.372c0.162,0.033,0.36,0.261,0.548,0.438l0.101-0.193C201.062,129.884,200.312,129.731,200.312,129.731z"
				/>
			<path fill="#FDDE58" d="M197.648,132.091l0.07-0.171l-0.575,0.369C197.545,132.549,197.597,132.321,197.648,132.091z"/>
		</g>
	</g>
	<g>
		<path fill="none" d="M188.279,158.11c4.583-4.01,8.021-8.593,12.03-13.176"/>
		<g>
			<path fill="#FDDE58" d="M198.351,145.183l-0.153,0.105c0.071,0.021,0.171,0.069,0.318,0.155
				C198.624,145.485,198.476,145.33,198.351,145.183z"/>
			<polygon fill="#FDDE58" points="198.051,145.381 198.022,145.398 198.07,145.476 			"/>
			<path fill="#FDDE58" d="M198.033,145.778c0.078-0.007,0.087-0.067,0.075-0.146C198.023,145.619,197.987,145.657,198.033,145.778z
				"/>
			<path fill="#FDDE58" d="M198.372,145.741c-0.12-0.077-0.24-0.169-0.3-0.263l-0.001-0.003l0.037,0.156L198.372,145.741z"/>
			<path fill="#FDDE58" d="M198.372,145.741l0.301,0.183L198.372,145.741z"/>
			<path fill="#FDDE58" d="M200.892,148.015c0.062,0.094-0.661-0.538-0.539-0.352c0.111,0.286,0.358,0.66,0.272,0.764
				c0.124,0.188-0.748-0.432-0.625-0.246c0.111,0.287,0.854,1.404,0.95,1.201c0.103-0.341,0.044-0.67,0.099-1.009
				c-0.139-0.433-0.337-0.906-0.441-1.319c0.01-0.082,0.108-0.082,0.199-0.089l-0.504-0.084
				C200.02,146.803,200.854,147.724,200.892,148.015z"/>
			<path fill="#FDDE58" d="M199.646,144.56c0.061,0.094,0.183,0.283,0.183,0.283c-0.611-0.349-0.503-0.06-0.395,0.228l0.404,0.266
				c0.013-0.1-0.183-0.283-0.39-0.364c0.551,0.254,0.721,0.19,0.754,0.002C200,144.81,199.776,144.611,199.646,144.56z"/>
			<polygon fill="#FDDE58" points="200.207,144.849 200.203,144.974 200.268,145.026 200.226,144.862 			"/>
			<path fill="#FDDE58" d="M198.272,146.854c-0.24,0.339-0.528,0.604-0.847,0.834c0.124,0.143,0.276,0.299,0.165,0.256
				c-0.147-0.086-0.248-0.131-0.32-0.153l-0.146,0.094l0.019,0.094l0.003,0.004l0.303,0.26l0.304,0.18l-0.304-0.18l-0.266-0.107
				c0.013,0.077,0.004,0.139-0.074,0.145c-0.046-0.119-0.013-0.159,0.074-0.145l-0.041-0.156l-0.048-0.077l-0.351,0.2l0.008,0.11
				c0.041,0.153,0.079,0.305-0.313,0.047l-0.066,0.033l0.074,0.045l-0.085-0.039l-0.28,0.138l0.292,0.496
				c0,0-0.271-0.174-0.407-0.262c0.166,0.176,0.263,0.307,0.296,0.392c0.252,0.147,0.524,0.316,0.702,0.41
				c0.408,0.262-0.641-0.732,0.099-0.204c-0.74-0.528,0.31,0.466-0.099,0.204c-0.178-0.094-0.45-0.263-0.702-0.41
				c0.072,0.181-0.135,0.158-0.551-0.073c-0.234-0.353,0.129-0.173,0.551,0.073c-0.033-0.085-0.13-0.216-0.296-0.392
				c0.136,0.088,0.407,0.262,0.407,0.262l-0.292-0.496l-0.556,0.271c-1.272,0.533-1.912,1.507-3.102,2.135
				c-0.667,0.317-1.411,0.524-2.25,0.607c-1.636,0.182-1.545,1.881-4.104,0.956c-0.913-0.303-1.196,0.606-1.447,0.987
				c0.631,1.603,3.557,4.499,3.743,4.644c2.624,2.347,1.561,0.667,3.585,1.587c-1.219-0.458-1.241-1.939,0.829-0.591
				c3.148,2.044,2.019-0.873,3.318-0.956c0.341-0.023,0.401-0.334,0.657-0.508c1.974-0.315,1.834-2.438,3.026-3.434
				c0.262-0.324-0.176-1.183-0.321-1.764c0.04-0.301,0.575-0.204,0.708-0.362c0.206-0.253,0.131-0.685-0.018-1.161
				c-0.061,0.341-0.005,0.675-0.112,1.023c-0.1,0.208-0.839-0.916-0.951-1.202c-0.123-0.187,0.755,0.427,0.63,0.239
				c0.088-0.106-0.158-0.479-0.271-0.767c-0.124-0.186,0.607,0.44,0.544,0.348c-0.039-0.288-0.882-1.199-0.599-1.124l0.506,0.081
				c0.075-0.006,0.143-0.018,0.15-0.084l-0.114-0.237c-0.243-0.169-0.524-0.395-0.806-0.621c0.075-0.005,0.284,0.077,0.358,0.071
				c-0.074,0.006-0.283-0.076-0.358-0.071c0.282,0.227,0.563,0.452,0.806,0.621c-0.263-0.562-0.453-1.118-0.586-1.6l-0.068-0.053
				c-0.032,0.188-0.203,0.251-0.757,0c0.209,0.082,0.407,0.263,0.395,0.362l-0.405-0.261c-0.112-0.287-0.224-0.574,0.393-0.229
				c0,0-0.124-0.188-0.186-0.282c0.131,0.052,0.358,0.25,0.56,0.409l0.005-0.123C198.878,147.09,198.272,146.854,198.272,146.854z"
				/>
			<path fill="#FDDE58" d="M197.159,148.119l-0.008-0.11l-0.305,0.158C197.239,148.426,197.2,148.273,197.159,148.119z"/>
		</g>
	</g>
	<g>
		<path fill="none" d="M102.922,180.452c1.146-5.155,6.301-8.02,10.312-10.884"/>
		<g>
			<path fill="#FDDE58" d="M111.438,169.201l-0.152,0.047c0.06,0.041,0.142,0.115,0.258,0.238
				C111.634,169.558,111.526,169.372,111.438,169.201z"/>
			<polygon fill="#FDDE58" points="111.142,169.286 111.113,169.293 111.144,169.377 			"/>
			<path fill="#FDDE58" d="M111.063,169.639c0.069,0.018,0.088-0.034,0.089-0.109C111.08,169.492,111.042,169.516,111.063,169.639z"
				/>
			<polygon fill="#FDDE58" points="111.37,169.711 111.145,169.381 111.144,169.377 111.153,169.529 			"/>
			<path fill="#FDDE58" d="M111.37,169.711l0.239,0.257L111.37,169.711z"/>
			<path fill="#FDDE58" d="M113.243,172.54c0.039,0.104-0.501-0.689-0.424-0.482c0.048,0.297,0.206,0.711,0.112,0.778
				c0.08,0.207-0.594-0.622-0.515-0.415c0.051,0.293,0.528,1.532,0.647,1.378c0.148-0.275,0.147-0.59,0.256-0.882
				c-0.045-0.44-0.139-0.933-0.162-1.341c0.023-0.072,0.113-0.043,0.196-0.022l-0.443-0.226
				C112.669,171.173,113.263,172.261,113.243,172.54z"/>
			<path fill="#FDDE58" d="M112.691,169.034c0.041,0.104,0.122,0.31,0.122,0.31c-0.498-0.496-0.443-0.205-0.39,0.086l0.322,0.36
				c0.027-0.086-0.121-0.31-0.294-0.445c0.456,0.395,0.622,0.388,0.68,0.228C112.973,169.364,112.801,169.12,112.691,169.034z"/>
			<polygon fill="#FDDE58" points="113.154,169.461 113.131,169.572 113.183,169.639 113.17,169.479 			"/>
			<path fill="#FDDE58" d="M111.096,170.688c-0.271,0.233-0.573,0.387-0.896,0.497c0.086,0.167,0.197,0.355,0.105,0.282
				c-0.118-0.122-0.2-0.194-0.261-0.236l-0.146,0.04l0.001,0.091l0.002,0.004l0.228,0.328l0.241,0.256l-0.241-0.256l-0.22-0.178
				c-0.001,0.074-0.018,0.129-0.089,0.111c-0.022-0.123,0.015-0.149,0.089-0.111l-0.01-0.154l-0.03-0.084l-0.347,0.08l-0.01,0.104
				c0.012,0.152,0.023,0.303-0.29-0.046l-0.065,0.012l0.06,0.062l-0.07-0.06l-0.275,0.048l0.188,0.536c0,0-0.219-0.233-0.33-0.353
				c0.125,0.207,0.193,0.354,0.21,0.44c0.208,0.205,0.429,0.436,0.575,0.571c0.329,0.355-0.471-0.849,0.117-0.157
				c-0.588-0.691,0.211,0.513-0.117,0.157c-0.146-0.136-0.368-0.366-0.575-0.571c0.039,0.185-0.145,0.106-0.491-0.219
				c-0.162-0.386,0.145-0.123,0.491,0.219c-0.018-0.086-0.086-0.233-0.21-0.44c0.111,0.119,0.33,0.353,0.33,0.353l-0.188-0.536
				l-0.551,0.097c-1.251,0.172-2.004,0.901-3.194,1.414c-0.663,0.29-1.45,0.389-2.311,0.598c-1.839,0.419-1.447,2.155-4.379,2.606
				c-1.057,0.282-1.059,1.779-1.153,2.435c1.29,1.24,5.458,1.644,5.677,1.731c3.505,0.553,1.709-0.168,3.8,0.046
				c-1.189-0.048-2.048-1.162,0.323-0.411c3.474,1.365,0.994-0.393,2.194-0.329c0.261,0.053,0.208-0.148,0.35-0.217
				c1.412,0.281,0.894-1.369,1.967-1.862c0.196-0.185-0.141-1.051-0.205-1.601c0.061-0.249,0.512,0.004,0.638-0.091
				c0.198-0.153,0.173-0.554,0.099-1.021c-0.088,0.281-0.074,0.592-0.196,0.861c-0.105,0.149-0.633-1.064-0.694-1.355
				c-0.085-0.204,0.603,0.614,0.516,0.409c0.086-0.065-0.083-0.474-0.145-0.766c-0.083-0.205,0.467,0.583,0.425,0.481
				c0.012-0.272-0.59-1.354-0.351-1.2l0.438,0.229c0.067,0.017,0.13,0.028,0.147-0.03l-0.062-0.25
				c-0.188-0.227-0.402-0.518-0.616-0.809c0.067,0.019,0.24,0.156,0.308,0.174c-0.067-0.018-0.24-0.155-0.308-0.174
				c0.214,0.291,0.427,0.582,0.616,0.809c-0.142-0.589-0.219-1.15-0.258-1.627l-0.051-0.069c-0.06,0.16-0.222,0.165-0.675-0.231
				c0.173,0.138,0.319,0.362,0.292,0.448l-0.318-0.36c-0.052-0.294-0.103-0.589,0.389-0.086c0,0-0.079-0.208-0.119-0.312
				c0.108,0.086,0.278,0.336,0.431,0.542l0.025-0.109C111.598,171.087,111.096,170.688,111.096,170.688z"/>
			<path fill="#FDDE58" d="M109.89,171.494l0.012-0.103l-0.299,0.056C109.913,171.799,109.901,171.647,109.89,171.494z"/>
		</g>
	</g>
	<g>
		<path fill="none" d="M119.536,194.201c3.438-2.864,6.874-5.729,9.738-9.166"/>
		<g>
			<path fill="#FDDE58" d="M127.506,184.952l-0.127,0.062c0.066,0.028,0.162,0.084,0.304,0.179
				C127.785,185.245,127.635,185.093,127.506,184.952z"/>
			<polygon fill="#FDDE58" points="127.256,185.066 127.232,185.076 127.284,185.147 			"/>
			<path fill="#FDDE58" d="M127.281,185.391c0.069,0.008,0.072-0.041,0.052-0.108C127.257,185.258,127.228,185.283,127.281,185.391z
				"/>
			<polygon fill="#FDDE58" points="127.583,185.416 127.286,185.15 127.284,185.147 127.333,185.282 			"/>
			<path fill="#FDDE58" d="M127.583,185.416l0.291,0.199L127.583,185.416z"/>
			<path fill="#FDDE58" d="M130.083,187.706c0.063,0.089-0.651-0.552-0.524-0.376c0.124,0.262,0.376,0.619,0.304,0.697
				c0.126,0.18-0.719-0.479-0.592-0.3c0.124,0.261,0.869,1.345,0.948,1.18c0.078-0.287,0.005-0.583,0.035-0.87
				c-0.156-0.395-0.375-0.827-0.504-1.192c0.002-0.068,0.094-0.055,0.178-0.049l-0.475-0.139
				C129.185,186.552,130.03,187.448,130.083,187.706z"/>
			<path fill="#FDDE58" d="M128.62,184.638c0.066,0.085,0.2,0.257,0.2,0.257c-0.601-0.371-0.468-0.121-0.339,0.131l0.399,0.276
				c0.002-0.081-0.198-0.259-0.396-0.355c0.533,0.287,0.686,0.257,0.696,0.106C128.974,184.892,128.746,184.698,128.62,184.638z"/>
			<polygon fill="#FDDE58" points="129.169,184.951 129.179,185.053 129.246,185.104 129.189,184.965 			"/>
			<path fill="#FDDE58" d="M127.597,186.329c-0.187,0.246-0.423,0.424-0.688,0.562c0.121,0.144,0.269,0.305,0.167,0.248
				c-0.138-0.099-0.23-0.156-0.296-0.188l-0.122,0.054l0.024,0.083l0.003,0.004l0.288,0.277l0.282,0.208l-0.282-0.208l-0.243-0.14
				c0.017,0.068,0.014,0.119-0.055,0.11c-0.049-0.11-0.022-0.139,0.055-0.11l-0.047-0.142l-0.048-0.074l-0.295,0.106l0.016,0.097
				c0.046,0.138,0.091,0.276-0.272-0.019l-0.056,0.016l0.068,0.053l-0.077-0.049l-0.236,0.064l0.29,0.482
				c0,0-0.249-0.201-0.374-0.303c0.157,0.183,0.251,0.314,0.285,0.395c0.231,0.176,0.48,0.373,0.643,0.487
				c0.376,0.302-0.61-0.754,0.075-0.16c-0.685-0.594,0.302,0.462-0.075,0.16c-0.162-0.114-0.412-0.312-0.643-0.487
				c0.075,0.169-0.108,0.111-0.485-0.17c-0.228-0.351,0.1-0.123,0.485,0.17c-0.034-0.08-0.128-0.212-0.285-0.395
				c0.125,0.102,0.374,0.303,0.374,0.303l-0.29-0.482l-0.466,0.125c-1.082,0.204-1.515,0.914-2.553,1.195
				c-0.578,0.13-1.228,0.147-1.968,0.04c-1.465-0.217-1.29,1.329-3.594,0.115c-0.829-0.407-1.044,0.384-1.249,0.691
				c0.662,1.531,3.484,4.539,3.653,4.7c2.483,2.496,1.413,0.845,3.221,2.012c-1.081-0.618-1.226-1.927,0.645-0.362
				c2.836,2.395,1.571-0.383,2.739-0.15c0.295,0.057,0.333-0.194,0.548-0.284c1.696,0.177,1.468-1.613,2.55-2.373
				c0.232-0.252-0.181-1.103-0.33-1.648c0.025-0.263,0.511-0.087,0.626-0.208c0.178-0.193,0.095-0.592-0.062-1.037
				c-0.04,0.293,0.024,0.599-0.061,0.893c-0.082,0.169-0.791-0.954-0.906-1.225c-0.12-0.185,0.699,0.503,0.578,0.316
				c0.075-0.08-0.164-0.449-0.281-0.721c-0.121-0.184,0.57,0.485,0.51,0.394c-0.045-0.265-0.857-1.198-0.597-1.088l0.466,0.148
				c0.068,0.005,0.13,0.006,0.133-0.052l-0.118-0.226l-0.771-0.663c0.067,0.008,0.262,0.11,0.33,0.117
				c-0.067-0.007-0.262-0.109-0.33-0.117l0.771,0.663c-0.271-0.531-0.482-1.04-0.641-1.471l-0.066-0.056
				c-0.014,0.155-0.166,0.185-0.686-0.118c0.195,0.104,0.388,0.288,0.384,0.372l-0.386-0.288c-0.123-0.263-0.249-0.522,0.337-0.132
				c0,0-0.127-0.179-0.191-0.268c0.123,0.063,0.346,0.268,0.542,0.434l-0.005-0.104
				C128.164,186.627,127.597,186.329,127.597,186.329z"/>
			<path fill="#FDDE58" d="M126.706,187.211l-0.015-0.096l-0.258,0.08C126.798,187.489,126.753,187.351,126.706,187.211z"/>
		</g>
	</g>
	<g>
		<path fill="none" d="M133.857,207.377c4.583-5.156,8.021-11.457,12.03-17.186"/>
		<g>
			<path fill="#FDDE58" d="M143.831,190.878l-0.157,0.148c0.076,0.009,0.184,0.04,0.342,0.105
				C144.132,191.155,143.968,191.015,143.831,190.878z"/>
			<polygon fill="#FDDE58" points="143.521,191.161 143.492,191.186 143.546,191.262 			"/>
			<path fill="#FDDE58" d="M143.519,191.604c0.082-0.023,0.089-0.093,0.073-0.177C143.502,191.431,143.465,191.48,143.519,191.604z"
				/>
			<path fill="#FDDE58" d="M143.876,191.492c-0.13-0.061-0.26-0.137-0.329-0.229l-0.001-0.002l0.046,0.165L143.876,191.492z"/>
			<path fill="#FDDE58" d="M143.876,191.492l0.326,0.138L143.876,191.492z"/>
			<path fill="#FDDE58" d="M146.633,193.472c0.069,0.089-0.721-0.456-0.584-0.276c0.13,0.293,0.407,0.653,0.321,0.784
				c0.14,0.18-0.809-0.318-0.67-0.14c0.13,0.292,0.966,1.363,1.058,1.12c0.092-0.394,0.015-0.743,0.057-1.127
				c-0.166-0.447-0.396-0.928-0.524-1.361c0.006-0.093,0.11-0.112,0.206-0.139l-0.535,0.011
				C145.66,192.317,146.58,193.159,146.633,193.472z"/>
			<path fill="#FDDE58" d="M145.173,189.913c0.068,0.093,0.204,0.276,0.204,0.276c-0.658-0.259-0.533,0.039-0.407,0.335l0.437,0.21
				c0.01-0.113-0.205-0.276-0.426-0.322c0.591,0.166,0.769,0.061,0.795-0.155C145.556,190.117,145.312,189.944,145.173,189.913z"/>
			<polygon fill="#FDDE58" points="145.775,190.118 145.776,190.257 145.848,190.302 145.797,190.128 			"/>
			<path fill="#FDDE58" d="M143.817,192.742c-0.24,0.426-0.533,0.781-0.86,1.103c0.137,0.13,0.306,0.27,0.186,0.246
				c-0.16-0.062-0.268-0.091-0.346-0.1l-0.151,0.135l0.024,0.099l0.003,0.004c0.072,0.091,0.202,0.163,0.333,0.221l0.329,0.133
				l-0.329-0.133l-0.286-0.061c0.017,0.082,0.012,0.152-0.07,0.176c-0.055-0.121-0.022-0.173,0.07-0.176l-0.05-0.164l-0.054-0.073
				l-0.36,0.298l0.015,0.12c0.051,0.16,0.1,0.32-0.327,0.122l-0.068,0.051l0.081,0.034l-0.091-0.024l-0.287,0.215
				c0.112,0.16,0.261,0.346,0.335,0.483c0,0-0.294-0.131-0.443-0.198c0.185,0.157,0.294,0.28,0.334,0.367
				c0.274,0.106,0.569,0.232,0.762,0.297c0.444,0.198-0.715-0.667,0.092-0.249c-0.808-0.418,0.352,0.447-0.092,0.249
				c-0.192-0.064-0.488-0.19-0.762-0.297c0.086,0.183-0.133,0.205-0.584,0.042c-0.267-0.337,0.126-0.22,0.584-0.042
				c-0.04-0.087-0.149-0.21-0.334-0.367c0.149,0.067,0.443,0.198,0.443,0.198c-0.074-0.138-0.223-0.323-0.335-0.483l-0.571,0.425
				c-1.311,0.878-1.935,2.101-3.156,3.072c-0.688,0.507-1.464,0.909-2.35,1.202c-1.726,0.601-1.531,2.443-4.327,2.022
				c-0.996-0.116-1.249,0.939-1.497,1.412c0.765,1.596,4.062,4.061,4.269,4.175c2.941,1.939,1.709,0.362,3.927,0.895
				c-1.33-0.217-1.437-1.819,0.854-0.832c3.486,1.497,2.108-1.41,3.466-1.799c0.359-0.104,0.4-0.456,0.658-0.702
				c2.058-0.788,1.763-3.068,2.952-4.419c0.254-0.411-0.259-1.255-0.447-1.861c0.023-0.339,0.59-0.349,0.72-0.552
				c0.201-0.321,0.096-0.779-0.087-1.271c-0.044,0.389,0.035,0.743-0.056,1.148c-0.092,0.25-0.935-0.823-1.068-1.114
				c-0.14-0.179,0.817,0.305,0.675,0.125c0.085-0.135-0.194-0.492-0.33-0.784c-0.14-0.179,0.662,0.352,0.592,0.264
				c-0.056-0.307-0.989-1.127-0.687-1.104l0.538-0.018c0.079-0.023,0.15-0.049,0.154-0.124l-0.132-0.236l-0.879-0.513
				c0.079-0.021,0.303,0.024,0.381,0.003c-0.079,0.021-0.303-0.023-0.381-0.003l0.879,0.513c-0.303-0.562-0.53-1.134-0.692-1.636
				l-0.074-0.044c-0.025,0.213-0.203,0.318-0.799,0.16c0.224,0.046,0.441,0.203,0.433,0.315l-0.439-0.201
				c-0.131-0.292-0.262-0.586,0.405-0.335c0,0-0.139-0.181-0.208-0.271c0.141,0.028,0.39,0.199,0.61,0.332l0-0.137
				C144.468,192.874,143.817,192.742,143.817,192.742z"/>
			<path fill="#FDDE58" d="M142.694,194.376l-0.013-0.119l-0.313,0.242C142.795,194.698,142.745,194.538,142.694,194.376z"/>
		</g>
	</g>
	<g>
		<path fill="none" d="M100.058,154.101c-21.196-5.729,1.718-67.598,8.021-78.482c6.873-10.885,11.457-21.769,23.486-27.498
			c8.529-4.062,17.408-6.488,26.685-8.156c8.653-1.555,18.53-1.511,26.251-5.857c12.859-7.237,27.697-9.897,42.057-3.729
			c12.064,5.183,16.409,13.731,16.717,26.336"/>
		<g>
			<path fill="#FFFFFF" d="M237.75,36.481l-1.894-1.901c0.281,0.364,0.525,0.75,0.729,1.18
				C236.918,36.237,237.289,36.298,237.75,36.481z"/>
			<polygon fill="#FFFFFF" points="233.962,32.992 233.582,32.714 233.202,32.555 			"/>
			<path fill="#FFFFFF" d="M229.939,30.758c0.69,0.421,1.413,0.691,2.048,1.113C231.497,31.392,230.794,31.064,229.939,30.758z"/>
			<path fill="#FFFFFF" d="M232.916,32.847c-0.151-0.277-0.177-0.479,0.271-0.299l0.016,0.007l-1.214-0.684
				C232.365,32.2,232.673,32.529,232.916,32.847z"/>
			<path fill="#FFFFFF" d="M232.916,32.847c0.147,0.271,0.42,0.618,0.493,0.767C233.284,33.372,233.122,33.116,232.916,32.847z"/>
			<path fill="#FFFFFF" d="M230.148,35.052c-0.393-0.121,0.227-0.936-0.615-1.155c-1.939-0.578-3.466-1.162-5.23-1.657
				c-0.851-0.069-1.745-1.515-2.609-1.595c-1.997-0.442-7.085,0.034-4.226,0.504c4.223,0.679,7.072,1.499,10.565,3.104
				c2.993,1.078,5.635,2.604,8.067,4.801c0.567,0.708,1.011,1.445,1.462,2.167c-0.565-0.948-1.021-2.057-1.812-3.082
				C234.726,36.713,232.43,36.21,230.148,35.052z"/>
			<path fill="#FFFFFF" d="M243.871,54.485c-0.138-0.442-0.414-1.31-0.414-1.31c0.517-2.045-0.131-4.167-0.923-6.115l-0.195,1.008
				c0.259,1.157,0.548,1.249,0.566,0.146c-0.095,2.534,0.157,4.75,0.328,7.084C243.483,55.141,243.784,55.159,243.871,54.485z"/>
			<polygon fill="#FFFFFF" points="243.405,56.666 243.233,55.299 243.152,55.357 243.384,56.711 			"/>
			<path fill="#FFFFFF" d="M220.764,28.08c-5.741-1.491-11.382-1.634-16.788-1.107c-0.387,0.255-0.645,0.52-1.209,0.502
				c-0.448-0.094-0.883-0.126-1.319-0.122c-0.784,0.142-1.582,0.188-2.342,0.401l-0.794,0.305l-0.015,0.009
				c-0.402,0.229-0.241,0.338,0.056,0.399l0.877,0.111c-0.164-0.038-0.583-0.052-0.877-0.111c-0.381-0.017-0.813,0.005-1.295,0.087
				c-0.681,0.256-1.388,0.493-2.162,0.656c0.807-0.348,1.53-0.554,2.162-0.656l1.254-0.496l0.357-0.191
				c-1.747,0.496-3.542,0.826-5.25,1.451c-0.376,0.175-0.74,0.344-1.028,0.492c-1.17,0.604-2.324,1.2-3.272,1.077l-0.882,0.411
				l0.202-0.006l-0.358,0.081l-3.737,1.757c-0.702,0.553-1.376,1.115-2.132,1.634c-0.001,0.001-0.673-0.029-0.996-0.052
				c-0.243,0.348-0.683,0.661-1.227,0.937c0.768,0.021,1.545,0.149,2.177,0.024c1.059,0.021,1.426-1.744,2.818-1.426
				c-1.393-0.317-1.759,1.447-2.818,1.426c-0.632,0.125-1.409-0.003-2.177-0.024c-1.131,0.628-2.795,0.896-4.177,0.736
				c1.491-0.76,2.881-0.751,4.177-0.736c0.544-0.276,0.983-0.589,1.227-0.937c0.323,0.022,0.995,0.053,0.996,0.052
				c0.756-0.519,1.43-1.081,2.132-1.634c-2.346,1.12-4.732,2.062-7.355,2.624c-16.956,2.5-34.162,3.512-50.934,13.069
				c-9.009,5.908-14.092,15.033-19.317,22.478c-10.43,16.887-13.965,33.424-20.011,52.278c-1.808,7.103-3.825,22.442,4.117,31.535
				c6.194,4.615,8.588,2.24,8.576,1.358c0.154-1.271-0.77-2.784-0.892-2.953c-2.666-5.182-5.479-7.837-3.587-19.24
				c-1.33,7.631-2.439-5.868,1.702-12.724c5.474-9.503,7.043-24.83,13.02-36.581l2.146-4.445c0.665-1.469,1.265-2.441,2.574-4.502
				c6.044-8.899,10.357-16.948,17.458-21.23c7.528-4.395,17.333-7.708,27.591-9.383c5.266-0.905,10.438-2.174,15.442-3.664
				c3.677-0.913,7.951-1.629,10.995-3.329c4.086-2.155,6.981-3.875,10.253-5.424c-3.697,1.468-6.031,2.846-10.032,5.107
				c-3.068,1.564,1.606-2.148,2.971-3.18c0.66-0.602,2.292-0.206,2.981-0.667c1.695-0.621,3.04-1.805,4.872-2.517
				c0.743-0.435,0.917,0.515,1.282,0.299c2.429-1.042,4.275-2.405,6.016-2.487c1.304-0.154,2.492,0.092,3.624,0.133
				c0.72,0.016,1.427,0.023,2.173-0.056c0.469-0.124,0.95-0.109,1.443-0.169c-0.37-0.323-0.502-0.694-0.629-1.065
				c0.716,0.108,1.71,0.396,2.422,0.501c-0.712-0.105-1.707-0.393-2.422-0.501c0.127,0.372,0.259,0.743,0.629,1.065
				c3.498-0.396,7.714-0.302,11.501,0.651l-0.025-0.1c-2.143-0.801-4.317-1.127-6.546-2.243c0.98,0.421,0.796,0.656-0.352,0.472
				l-0.826-0.594c2.056,0.026,4.174,0.271,5.892,1.328c0,0,0.887,0.085,1.336,0.129c0.576,0.344,0.448,0.619,0.496,0.908
				l1.298,0.378C223.497,29.658,220.808,27.959,220.764,28.08z"/>
			<path fill="#FFFFFF" d="M197,28.542c0.304-0.118,0.673-0.247,1.068-0.385c-1.461,0.405-2.966,0.69-4.397,1.192
				C194.552,29.441,195.781,29.057,197,28.542z"/>
		</g>
	</g>
	<g>
		<path fill="none" d="M13.555,99.105c1.146,6.302,11.457,13.749,16.041,19.478"/>
		<g>
			<path fill="#FDDE58" d="M29.198,116.122l-0.14-0.231c-0.02,0.079-0.071,0.184-0.166,0.33
				C28.849,116.337,29.027,116.216,29.198,116.122z"/>
			<polygon fill="#FDDE58" points="28.934,115.672 28.911,115.629 28.821,115.659 			"/>
			<path fill="#FDDE58" d="M28.45,115.498c0.017,0.092,0.09,0.131,0.185,0.146C28.642,115.546,28.595,115.481,28.45,115.498z"/>
			<path fill="#FDDE58" d="M28.521,115.928c0.085-0.118,0.187-0.23,0.296-0.269l0.003,0l-0.187-0.015L28.521,115.928z"/>
			<path fill="#FDDE58" d="M28.521,115.928l-0.199,0.3L28.521,115.928z"/>
			<path fill="#FDDE58" d="M25.97,118.161c-0.105,0.043,0.601-0.607,0.39-0.523c-0.333,0.039-0.772,0.214-0.904,0.081
				c-0.216,0.088,0.457-0.747,0.241-0.66c-0.34,0.041-1.625,0.576-1.371,0.75c0.421,0.223,0.816,0.254,1.233,0.424
				c0.499-0.029,1.033-0.106,1.516-0.086c0.096,0.04,0.099,0.156,0.109,0.265l0.085-0.567
				C27.349,117.534,26.3,118.208,25.97,118.161z"/>
			<path fill="#FDDE58" d="M30.033,117.948c-0.114,0.033-0.34,0.102-0.34,0.103c0.403-0.588,0.05-0.581-0.294-0.564l-0.305,0.379
				c0.121,0.054,0.336-0.107,0.426-0.323c-0.285,0.56-0.206,0.785,0.025,0.899C29.739,118.267,29.974,118.082,30.033,117.948z"/>
			<polygon fill="#FDDE58" points="29.698,118.496 29.545,118.441 29.484,118.498 29.682,118.514 			"/>
			<path fill="#FDDE58" d="M27.147,115.432c-0.442-0.395-0.8-0.823-1.117-1.277c-0.161,0.102-0.335,0.235-0.295,0.116
				c0.088-0.149,0.133-0.254,0.151-0.334l-0.131-0.205l-0.112-0.006l-0.004,0.002c-0.109,0.047-0.204,0.162-0.284,0.282
				l-0.186,0.307l0.186-0.307l0.1-0.283c-0.094-0.008-0.17-0.036-0.188-0.131c0.142-0.019,0.195,0.033,0.188,0.131l0.188,0
				l0.088-0.033l-0.291-0.478l-0.136-0.023c-0.184,0.002-0.367,0.002-0.099-0.387l-0.049-0.088l-0.047,0.074l0.038-0.089
				l-0.207-0.375l-0.575,0.2c0,0,0.179-0.271,0.27-0.407c-0.194,0.146-0.344,0.223-0.444,0.237c-0.149,0.257-0.322,0.53-0.415,0.714
				c-0.271,0.407,0.82-0.545,0.265,0.177c0.556-0.722-0.535,0.23-0.265-0.177c0.093-0.184,0.266-0.457,0.415-0.714
				c-0.213,0.032-0.213-0.207,0.018-0.635c0.404-0.174,0.23,0.206-0.018,0.635c0.1-0.014,0.25-0.091,0.444-0.237
				c-0.091,0.137-0.27,0.407-0.27,0.407l0.575-0.2l-0.409-0.745c-0.847-1.682-2.072-2.734-3.009-4.34
				c-0.456-0.897-0.782-1.85-0.966-2.871c-0.176-1.964-2.292-2.544-0.802-4.888c0.329-0.918,0.054-1.012-0.246-1.257
				c-1.739,0.012-5.717,0.844-5.907,1.036c-3.213,1.379-1.199,1.396-2.569,3.614c0.701-1.388,2.261-0.331,0.683,1.516
				c-2.43,3.191,1.196,3.188,1.393,4.835c0.065,0.452,0.456,0.689,0.698,1.077c0.638,2.543,3.225,3.013,4.619,4.756
				c0.441,0.425,1.424,0.14,2.113,0.13c0.371,0.13,0.314,0.733,0.523,0.934c0.331,0.312,0.848,0.346,1.412,0.307
				c-0.423-0.168-0.824-0.197-1.26-0.42c-0.265-0.176,1.018-0.729,1.355-0.778c0.214-0.091-0.433,0.767-0.218,0.674
				c0.14,0.133,0.566-0.049,0.906-0.099c0.214-0.092-0.468,0.587-0.361,0.541c0.349,0.04,1.361-0.685,1.301-0.372l-0.048,0.574
				c0.015,0.09,0.035,0.174,0.116,0.203l0.276-0.063c0.182-0.235,0.428-0.499,0.675-0.762c0.014,0.09-0.065,0.312-0.05,0.402
				c-0.015-0.089,0.064-0.312,0.05-0.402c-0.247,0.264-0.493,0.527-0.675,0.762c0.656-0.139,1.316-0.191,1.892-0.196l0.058-0.064
				c-0.233-0.097-0.327-0.318-0.078-0.897c-0.079,0.223-0.28,0.399-0.403,0.354l0.277-0.398c0.34-0.042,0.682-0.083,0.321,0.539
				c0,0,0.217-0.087,0.327-0.13c-0.049,0.139-0.27,0.345-0.445,0.533l0.151,0.045C26.921,116.077,27.147,115.432,27.147,115.432z"/>
			<path fill="#FDDE58" d="M25.471,113.701l0.135,0.024l-0.234-0.41C25.102,113.704,25.286,113.703,25.471,113.701z"/>
		</g>
	</g>
	<g>
		<path fill="none" d="M243.274,56.141c10.885,4.583,22.342,28.07,25.206,38.955c2.292,8.02,0.573,16.613,3.438,24.061
			c4.583,12.029,6.302,17.759,4.583,32.08"/>
		<g>
			<path fill="#FDDE58" d="M278.452,142.677l0.069-1.069c-0.058,0.182-0.165,0.358-0.344,0.536
				C278.059,142.373,278.268,142.496,278.452,142.677z"/>
			<polygon fill="#FDDE58" points="278.538,140.609 278.542,140.418 278.449,140.259 			"/>
			<path fill="#FDDE58" d="M278.226,138.751c-0.042,0.333,0.001,0.645,0.072,0.949C278.361,139.428,278.353,139.111,278.226,138.751
				z"/>
			<path fill="#FDDE58" d="M278.045,140.243c0.138-0.119,0.286-0.179,0.4,0.009l0.003,0.007l-0.15-0.559L278.045,140.243z"/>
			<path fill="#FDDE58" d="M278.045,140.243c-0.135,0.116-0.257,0.292-0.335,0.354L278.045,140.243z"/>
			<path fill="#FDDE58" d="M274.639,139.908c-0.113-0.166,0.847-0.167,0.621-0.507c-0.288-0.812-0.749-1.469-0.865-2.205
				c-0.256-0.312,0.735-0.978,0.48-1.297c-0.314-0.804-2.014-2.56-1.715-1.396c0.389,1.739,0.84,2.853,1.093,4.476
				c0.401,1.306,1.011,2.581,1.253,4.002c0.031,0.395-0.059,0.763-0.138,1.131c0.167-0.477,0.335-0.971,0.498-1.521
				C276.191,141.859,274.886,140.991,274.639,139.908z"/>
			<path fill="#FDDE58" d="M277.331,150.423c-0.089-0.195-0.268-0.581-0.268-0.581c0.766-0.741,0.581-1.633,0.396-2.507l-0.515,0.34
				c0.008,0.491,0.27,0.573,0.521,0.155c-0.678,0.945-0.856,1.864-0.853,2.832C276.876,150.632,277.172,150.68,277.331,150.423z"/>
			<polygon fill="#FDDE58" points="276.635,151.233 276.612,150.662 276.527,150.674 276.61,151.249 			"/>
			<path fill="#FDDE58" d="M276.95,134.935c-0.416-2.4-0.898-4.646-1.465-6.814c-0.226-0.112-0.468-0.165-0.423-0.418
				c0.111-0.219,0.164-0.418,0.182-0.609l-0.267-0.938l-0.184-0.305l-0.007-0.005c-0.164-0.139-0.288-0.042-0.385,0.108
				l-0.221,0.432c0.058-0.084,0.126-0.283,0.221-0.432c0.066-0.181,0.102-0.376,0.088-0.582c-0.153-0.263-0.284-0.543-0.336-0.868
				c0.223,0.304,0.322,0.596,0.336,0.868l0.304,0.479l0.134,0.126l-0.592-2.16l-0.225-0.415c-0.299-0.462-0.613-0.917-0.29-1.389
				l-0.111-0.383l-0.055,0.101l0.033-0.168l-0.472-1.622c-0.298-0.279-0.64-0.549-0.898-0.852c-0.005,0,0.217-0.354,0.335-0.523
				c-0.268-0.056-0.48-0.207-0.63-0.419c-0.187,0.374-0.401,0.749-0.508,1.067c-0.327,0.528,1.191,0.447,0.498,1.187
				c0.693-0.739-0.825-0.659-0.498-1.187c0.106-0.318,0.321-0.693,0.508-1.067c-0.316-0.444-0.355-1.156-0.06-1.775
				c0.589,0.523,0.368,1.142,0.06,1.775c0.149,0.212,0.362,0.363,0.63,0.419c-0.118,0.168-0.34,0.523-0.335,0.523
				c0.259,0.303,0.601,0.572,0.898,0.852c-0.341-1.072-0.545-2.113-0.784-3.154c-1.271-6.843-0.165-13.531-1.725-21.563
				c-0.743-4.21-1.898-8.126-2.947-12.001c-2.271-7.786-6.734-13.392-9.821-21.525c-1.275-3.125-5.952-7.594-9.431-9.493
				c-5.479-1.108-4.458,4.1-4.639,4.255c0.306,4.035,2.625,3.356,4.33,8.066c-1.266-3.065,3.359,0.147,3.12,4.078
				c-0.517,5.424,5.019,8.973,6.523,14.263c0.378,1.282,1.104,2.479,1.679,3.946c2.412,8.342,5.084,13.251,5.033,22.913
				c0.171,2.517,1.353,4.827,2.306,6.963c0.505,1.521,0.739,3.707,1.115,4.731c0.636,1.722,1.56,3.113,2.414,4.379
				c-0.681-1.516-1.416-2.611-2.197-4.333c-0.498-1.167,1.461,0.39,2.011,1.09c0.328,0.265-0.475,1.163-0.146,1.423
				c0.288,0.738,0.895,1.254,1.429,1.954c0.317,0.266-0.606,0.536-0.448,0.667c0.573,0.99,2.03,1.446,1.958,2.216
				c0.013,0.565,0.005,1.074-0.006,1.568c0.032,0.304,0.07,0.601,0.193,0.893l0.371,0.525c0.253-0.224,0.592-0.367,0.931-0.509
				c0.009,0.304-0.112,0.76-0.104,1.062c-0.009-0.303,0.112-0.759,0.104-1.062c-0.339,0.142-0.678,0.285-0.931,0.509
				c0.834,1.284,1.745,2.852,2.287,4.402l0.083-0.034c-0.208-0.921-0.211-1.833,0.128-2.902c-0.12,0.459-0.396,0.451-0.549-0.009
				l0.392-0.459c0.437,0.773,0.91,1.576,0.29,2.479c0-0.001,0.258,0.328,0.388,0.495c-0.1,0.285-0.4,0.308-0.648,0.396l0.143,0.544
				C276.495,136.278,276.951,134.938,276.95,134.935z"/>
			<path fill="#FDDE58" d="M274.51,125.341l0.224,0.416l-0.482-1.813C273.917,124.411,274.211,124.872,274.51,125.341z"/>
		</g>
	</g>
	<g>
		<path fill="none" d="M6.108,104.262c5.156,2.291,9.166,5.155,13.176,9.165"/>
		<g>
			<path fill="#FFFFFF" d="M19.224,111.562l-0.088-0.147c-0.026,0.068-0.08,0.165-0.175,0.305
				C18.912,111.824,19.073,111.681,19.224,111.562z"/>
			<polygon fill="#FFFFFF" points="19.058,111.272 19.044,111.245 18.966,111.291 			"/>
			<path fill="#FFFFFF" d="M18.681,111.255c0,0.075,0.057,0.084,0.133,0.072C18.833,111.246,18.799,111.21,18.681,111.255z"/>
			<path fill="#FFFFFF" d="M18.688,111.582c0.083-0.115,0.18-0.231,0.275-0.289l0.003-0.001l-0.152,0.036L18.688,111.582z"/>
			<path fill="#FFFFFF" d="M18.688,111.582l-0.199,0.29L18.688,111.582z"/>
			<path fill="#FFFFFF" d="M16.32,114.013c-0.093,0.061,0.567-0.637,0.381-0.518c-0.278,0.111-0.648,0.355-0.735,0.277
				c-0.185,0.124,0.472-0.721,0.288-0.599c-0.278,0.111-1.372,0.855-1.196,0.939c0.3,0.083,0.608,0.017,0.915,0.058
				c0.414-0.144,0.875-0.341,1.272-0.447c0.076,0.008,0.065,0.101,0.062,0.186l0.13-0.477
				C17.538,113.164,16.593,113.968,16.32,114.013z"/>
			<path fill="#FFFFFF" d="M19.709,112.802c-0.097,0.057-0.291,0.171-0.291,0.171c0.394-0.577,0.104-0.478-0.181-0.375l-0.292,0.383
				c0.093,0.012,0.288-0.173,0.385-0.369c-0.295,0.522-0.252,0.683-0.075,0.714C19.434,113.135,19.647,112.925,19.709,112.802z"/>
			<polygon fill="#FFFFFF" points="19.376,113.33 19.257,113.326 19.2,113.388 19.362,113.349 			"/>
			<path fill="#FFFFFF" d="M17.642,111.493c-0.301-0.228-0.529-0.501-0.722-0.808c-0.142,0.123-0.298,0.274-0.25,0.166
				c0.09-0.146,0.139-0.244,0.165-0.314l-0.078-0.141l-0.088,0.021l-0.004,0.003l-0.262,0.301l-0.188,0.3l0.188-0.3l0.117-0.261
				c-0.072,0.014-0.127,0.006-0.132-0.066c0.118-0.053,0.151-0.019,0.132,0.066l0.149-0.043l0.074-0.048l-0.173-0.331l-0.108,0.016
				c-0.149,0.048-0.297,0.096-0.04-0.294l-0.031-0.061l-0.045,0.074l0.039-0.083l-0.13-0.257l-0.482,0.314
				c0,0,0.17-0.271,0.256-0.409c-0.17,0.172-0.297,0.275-0.379,0.313c-0.144,0.253-0.31,0.525-0.402,0.701
				c-0.258,0.407,0.711-0.667,0.192,0.076c0.519-0.743-0.45,0.332-0.192-0.076c0.093-0.176,0.258-0.448,0.402-0.701
				c-0.173,0.083-0.149-0.115,0.073-0.534c0.339-0.252,0.167,0.112-0.073,0.534c0.082-0.038,0.208-0.141,0.379-0.313
				c-0.086,0.137-0.255,0.409-0.256,0.409l0.482-0.314l-0.261-0.516c-0.553-1.168-1.421-1.815-2.207-2.831
				c-0.406-0.585-0.729-1.273-0.981-2.097c-0.522-1.695-2.167-1.087-2.261-3.825c-0.085-0.993-1.168-1.017-1.656-1.147
				c-1.255,1.155-2.607,5.08-2.69,5.298c-1.125,3.361-0.069,1.711-0.336,3.884c0.078-1.272,1.322-1.865,0.633,0.479
				c-1.144,3.543,1.023,1.272,1.186,2.532c0.036,0.302,0.285,0.264,0.434,0.443c0.282,1.657,2.041,0.863,2.823,1.895
				c0.257,0.186,1.024-0.345,1.549-0.555c0.265-0.004,0.143,0.497,0.274,0.595c0.209,0.152,0.601,0.029,1.047-0.16
				c-0.307-0.015-0.612,0.076-0.916,0.025c-0.179-0.064,0.878-0.879,1.151-1.01c0.179-0.133-0.438,0.737-0.259,0.601
				c0.09,0.068,0.45-0.199,0.722-0.328c0.178-0.127-0.451,0.6-0.362,0.536c0.262-0.052,1.165-0.895,1.073-0.62l-0.119,0.487
				c-0.001,0.071,0.002,0.136,0.063,0.14l0.228-0.118l0.642-0.79c-0.002,0.072-0.095,0.274-0.097,0.345
				c0.001-0.071,0.095-0.273,0.097-0.345l-0.642,0.79c0.539-0.27,1.071-0.466,1.532-0.604l0.055-0.066
				c-0.172-0.026-0.215-0.188,0.063-0.726c-0.093,0.203-0.278,0.396-0.37,0.386l0.276-0.395c0.277-0.114,0.557-0.225,0.182,0.373
				c0,0,0.186-0.122,0.28-0.183c-0.059,0.126-0.264,0.348-0.431,0.543l0.115,0.002C17.372,112.081,17.642,111.494,17.642,111.493z"
				/>
			<path fill="#FFFFFF" d="M16.535,110.435l0.103-0.01l-0.136-0.288C16.241,110.526,16.391,110.475,16.535,110.435z"/>
		</g>
	</g>
	<path fill="#FDDE58" d="M336.697,34.714c0,0,47.259,29.215,68.74,58.43s22.341,35.229,22.341,35.229s-18.904-34.37-61.866-55.851
		C322.949,51.04,336.697,34.714,336.697,34.714z"/>
	<path fill="none" stroke="#010101" d="M157.124,182.921c0,0-21.436-24.173-25.459-28.166c-4.021-3.994-6.984-5.876-9.489-3.948
		c-2.505,1.929,0.109,6.628,5.915,13.354c5.805,6.727,20.151,21.915,24.215,26.096c4.062,4.181,6.299,3.682,8.101,2.105
		C162.206,190.786,160.586,187.04,157.124,182.921z"/>
	<path fill="#ECB327" stroke="#010101" d="M131.517,151.461c0,0-27.4,36.344-32.499,31.905
		C93.918,178.928,131.517,151.461,131.517,151.461z"/>
	<path fill="#ECB327" stroke="#010101" d="M146.196,167.262c0,0-25.721,38.609-32.562,31.625
		C106.792,191.903,146.196,167.262,146.196,167.262z"/>
	<path fill="#ECB327" stroke="#010101" d="M162.611,180.326c0,0-25.533,39.448-33.089,33.211
		C121.967,207.299,162.611,180.326,162.611,180.326z"/>
	<circle fill="none" stroke="#010101" stroke-width="3" cx="143.282" cy="139.738" r="10.884"/>
	<circle fill="#010101" stroke="#010101" cx="143.686" cy="140.235" r="3.724"/>
	<circle fill="none" stroke="#010101" stroke-width="3" cx="159.45" cy="154.325" r="10.884"/>
	<circle fill="#010101" stroke="#010101" cx="159.512" cy="154.605" r="3.724"/>
	<circle fill="none" stroke="#010101" stroke-width="3" cx="174.47" cy="170.343" r="10.885"/>
	<circle fill="#010101" stroke="#010101" cx="174.533" cy="170.623" r="3.723"/>
	<line fill="none" stroke="#010101" stroke-width="2" x1="102.18" y1="176.497" x2="32.689" y2="116.288"/>
	<line fill="none" stroke="#010101" stroke-width="2" x1="28.438" y1="122.226" x2="113.134" y2="196.65"/>
	<path fill="none" stroke="#010101" stroke-width="3" d="M17.2,96.854l16.174,19.869l-5.152,5.845L6.432,110.408
		c0,0-2.427-2.979,1.545-8.855C11.948,95.678,17.2,96.854,17.2,96.854z"/>
	<path fill="none" stroke="#010101" stroke-width="3" d="M19.034,98.498c0,0,0.246-4.163-2.086-5.403
		c-2.331-1.241-7-0.964-12.328,6.566c-4.686,6.621-3.098,9.789-1.605,11.217s4.568,0.741,4.568,0.741"/>
	<path fill="none" stroke="#010101" stroke-width="2" d="M101.226,186.688c0,0,16.177,27.231,37.628,39.732
		c22.94,13.37,71.138,25.505,131.493-19.66c60.355-45.164,84.74-79.608,124.295-78.217c28.396,1,41.299,10.153,41.299,10.153
		s-12.17-27.534-46.286-62.746c-32.03-33.059-64.789-48.346-64.789-48.346s15.237,15.676,9,58.741
		c-7.169,49.503-46.919,96.167-93.777,121.592c-68.511,37.173-102.087,2.825-102.087,2.825"/>
	<path fill="none" stroke="#010101" stroke-width="3" d="M409.059,130.022c0,0,21.402,18.037,28.998,12.898
		c8.414-5.693-4.749-29.169-42.064-67.504c-37.316-38.335-67.036-58.409-77.252-52.901c-8.693,4.688,15.908,35.776,15.908,35.776"/>
	<path fill="none" stroke="#010101" stroke-width="2" d="M141.913,207.25c0,0,14.364,11.762,40.118,10.123
		c36.468-2.32,53.805-22.573,53.805-22.573"/>
	<path fill="none" stroke="#010101" stroke-width="2" d="M235.523,209.837c0.776-0.466,45.613-28.375,48.119-75.01
		c2.144-39.917-15.59-61.967-24.827-73.111c-9.237-11.146-24.872-19.396-24.872-19.396"/>
	<path fill="none" stroke="#010101" stroke-width="2" d="M227.97,56.762c0,0-8.714-5.294-20.678-7.613
		c-12.48-2.42-20.661-1.846-20.661-1.846"/>
	<path fill="none" stroke="#010101" stroke-width="2" d="M177.681,47.548c0,0-35.071,4.303-59.649,32.966
		c-34.232,39.923-10.141,90.014-10.141,90.014"/>
	<path fill="none" stroke="#010101" stroke-width="2" d="M182.266,30.375c0,0-45.205-1.357-81.451,44.003
		c-33.883,42.403-9.983,92.032-9.983,92.032"/>
	<path fill="none" stroke="#010101" d="M153.86,54.322c0,0-6.676,2.958-4.184,11.499c2.493,8.542,9.614,15.463,9.614,15.463"/>
	<path fill="none" stroke="#010101" d="M83.288,137.865c0,0,1.904,9.847-1.945,13.642c-3.85,3.793-10.783-2.29-10.783-2.29"/>
	<path fill="none" stroke="#010101" d="M181.297,93.102c0,0,6.539-6.645,10.635-12.841c3.279-4.962,2.828-11-4.263-18.223
		c-7.091-7.222-17.765-20.07-4.11-33.321c11.258-10.926,29.47-3.838,36.557-0.137c6.822,3.563,22.03,15.432,13.946,30.932
		c-8.085,15.499-42.346,45.426-42.346,45.426l-3.522-3.617c0,0,24.675-24.558,34.235-34.322c9.56-9.764,6.108-23.472-1.664-29.367
		c-7.772-5.896-16.554-6.675-23.658-6.068c-6.091,0.521-12.753,5.977-12.749,11.258c0.004,3.297,5.746,9.088,11.801,16.932
		c6.055,7.845,6.037,15.222-1.674,25.809c-7.489,10.28-9.945,11.22-9.945,11.22L181.297,93.102z"/>
	<polyline fill="none" stroke="#010101" points="149.87,131.127 185.278,97.789 180.821,92.72 142.329,128.896 	"/>
	<polyline fill="none" stroke="#010101" points="153.527,144.006 192.307,105.612 187.836,101.033 152.709,134.21 	"/>
	<polyline fill="none" stroke="#010101" points="165.313,145.093 199.48,113.207 194.152,107.744 156.303,144.169 	"/>
	<polyline fill="none" stroke="#010101" points="170.168,154.574 206.653,120.802 201.284,115.152 167.676,146.913 	"/>
	<polyline fill="none" stroke="#010101" points="179.639,161.07 214.715,128.003 209.202,122.581 168.89,161.121 	"/>
	<polyline fill="none" stroke="#010101" points="185.696,170.675 221.745,135.825 216.417,130.362 182.561,162.766 	"/>
	<polyline fill="none" stroke="#010101" points="139.883,150.377 137.503,152.864 131.409,146.594 133.312,144.604 	"/>
	<polyline fill="none" stroke="#010101" points="155.14,164.385 151.436,167.951 145.983,161.929 149.211,158.86 	"/>
	<polyline fill="none" stroke="#010101" points="169.466,180.361 166.901,182.891 161.22,176.725 164.014,174.34 	"/>
	<line fill="none" stroke="#010101" x1="163.327" y1="170.384" x2="159.055" y2="165.271"/>
	<line fill="none" stroke="#010101" x1="148.772" y1="154.263" x2="145.165" y2="150.372"/>
	<line fill="none" stroke="#010101" x1="117.301" y1="189.459" x2="106.523" y2="179.735"/>
	<path fill="none" stroke="#010101" d="M176.538,97.196c0,0-17.166-19.06-28.582-21.99c-10.348-2.657-19.68-1.388-30.664,10.756
		c-10.201,11.276-8.348,22.211-1.109,32.727c7.237,10.515,16.276,19.454,16.276,19.454"/>
	<path fill="none" stroke="#010101" d="M171.943,101.157c0,0-7.153-8.382-15.651-14.899c-8.498-6.516-19.572-9.263-32.681,2.599
		c-10.906,9.868-3.79,23.345,0.15,28.727c3.939,5.382,12.481,13.846,12.481,13.846"/>
	
		<ellipse transform="matrix(-0.976 0.2178 -0.2178 -0.976 449.3155 150.8947)" fill="none" stroke="#010101" stroke-width="3" cx="216.341" cy="100.212" rx="6.086" ry="6.336"/>
	<path fill="none" stroke="#010101" d="M206.627,120.466c0,0,11.447-8.865,3.658-16.151c-7.729-7.231-15.95,3.486-15.95,3.486"/>
	<path fill="none" stroke="#010101" d="M201.784,115.53c0,0,4.843-4.603,2.923-6.303c-1.638-1.448-5.815,3.206-5.815,3.206"/>
	<polygon fill="none" stroke="#010101" points="249.333,66.57 232.562,84.791 235.712,87.513 252.089,69.281 	"/>
	<path fill="none" stroke="#010101" stroke-width="2" d="M245.712,70.509c-0.249-0.237-2.623-3.425-5.732-5.96
		c-3.109-2.534-5.907-4.551-5.907-4.551"/>
	<path fill="none" stroke="#010101" stroke-width="2" d="M248.262,73.608c0,0,8.335,10.001,17.489,32.342
		c6.445,15.729,2.15,41.193,2.15,41.193"/>
	<path fill="none" stroke="#010101" d="M217.153,130.148l4.851,4.641c0,0,4.904-4.322,9.282-7.061c4.378-2.737,9.024-0.986,11,1.947
		c1.976,2.935,5.384,9.657-11.167,19.66c-16.55,10.004-25.056,17.918-29.987,27.383c-4.931,9.465-1.999,21.283,2.664,25.085
		c4.664,3.802,22.867,1.207,38.095-11.437c15.228-12.643,27.719-27.022,25.833-51.254s-6.084-28.577-14.182-33.96
		c-8.099-5.383-20.665-4.486-31.017,5.015c-10.354,9.5-12.137,12.687-12.137,12.687l4.462,3.553c0,0,4.421-7.149,12.71-13.402
		c8.29-6.251,17.204-8.388,24.339-3.376c7.135,5.011,12.101,17.402,11.557,33.372c-0.545,15.969-7.771,30.935-22.798,42.505
		c-15.026,11.571-26.72,15.062-33.296,8.605c-6.577-6.456-2.436-13.544,5.742-22.266c8.179-8.722,14.577-10.296,26.328-20.108
		c11.75-9.812,12.534-18.792,6.997-26.508s-14.561-5.408-19.638-2.515C221.715,125.609,217.153,130.148,217.153,130.148z"/>
	<path fill="none" stroke="#010101" d="M268.464,116.79c0,0-10.095-14.329-19.314-23.423c-6.994-6.9-10.013-9.358-10.013-9.358"/>
	<path fill="none" stroke="#010101" d="M235.811,80.937c0,0-2.7-2.358-5.69-4.453c-3.652-2.561-6.278-3.148-6.278-3.148"/>
	<path fill="none" stroke="#010101" d="M217.814,71.306c0,0-3.575-1.55-9.151-0.893c-5.575,0.657-8.385,3.191-8.385,3.191"/>
	<path fill="none" stroke="#010101" d="M244.28,101.791c0,0-11.103-12.931-16.202-17.368c-5.099-4.438-9.17-5.584-9.17-5.584"/>
	<path fill="none" stroke="#010101" d="M212.165,77.556c0,0-6.13-0.883-15.277,7.812c-9.686,9.205-7.428,14.718-7.428,14.718"/>
	<path fill="none" stroke="#010101" d="M262.87,148.268c0,0-4.574,9.091-14.654,10.606c-10.081,1.517-14.356-2.519-14.356-2.519"/>
	<path fill="none" stroke="#010101" d="M260.425,159.672c0,0-3.444,4.29-11.023,5.835c-7.579,1.544-12.057-1.419-12.057-1.419"/>
	<path fill="none" stroke="#010101" d="M232.695,157.056c0.373,0.356,6.961,8.199,8.125,17.996
		c1.002,8.435-2.894,12.679-2.894,12.679"/>
	<path fill="none" stroke="#010101" d="M227.075,160.805c0.265,0.527,9.656,10.025,2.676,21.854
		c-7.879,13.351-18.428,14.66-17.322,14.432"/>
	<line fill="none" stroke="#010101" x1="228.682" y1="150.907" x2="218.17" y2="139.312"/>
	<line fill="none" stroke="#010101" x1="222.068" y1="155.465" x2="212.397" y2="145.004"/>
	<path fill="none" stroke="#010101" d="M199.112,193.311c0,0-5.905-2.791-10.958-7.679c-5.053-4.89-6.81-6.845-6.81-6.845"/>
	<path fill="none" stroke="#010101" d="M231.287,197.43c0,0-8.862,8.287-20.965,7.319c-12.102-0.968-21.959-10.947-26.56-14.469
		c-4.602-3.522-10.293-9.296-10.293-9.296"/>
	<path fill="none" stroke="#010101" d="M134.25,202.503c0,0-2.088-1.074-5.362-3.646c-3.202-2.513-4.308-4.175-4.308-4.175"/>
	<path fill="none" stroke="#010101" d="M118.221,187.885c0,0-1.806-2.073-4.262-5.945c-2.037-3.214-3.36-5.854-3.36-5.854"/>
	<line fill="none" stroke="#010101" x1="206.838" y1="139.494" x2="204.911" y2="137.43"/>
	<line fill="none" stroke="#010101" x1="199.111" y1="131.828" x2="197.082" y2="129.639"/>
	<line fill="none" stroke="#010101" x1="192.067" y1="123.935" x2="190.224" y2="121.925"/>
	<line fill="none" stroke="#010101" x1="185.256" y1="116.431" x2="183.399" y2="114.351"/>
	<line fill="none" stroke="#010101" x1="178.61" y1="109.329" x2="176.129" y2="106.435"/>
	<line fill="none" stroke="#010101" x1="183.622" y1="104.836" x2="181.088" y2="102.026"/>
	<line fill="none" stroke="#010101" x1="188.311" y1="109.732" x2="189.827" y2="111.595"/>
	<line fill="none" stroke="#010101" x1="195.129" y1="117.602" x2="196.839" y2="119.348"/>
	<line fill="none" stroke="#010101" x1="202.297" y1="124.733" x2="204.442" y2="127.116"/>
	<line fill="none" stroke="#010101" x1="209.776" y1="132.603" x2="211.758" y2="134.581"/>
</g>
</svg>
