<?xml version="1.0" encoding="utf-8"?>
<!-- Generator: Adobe Illustrator 13.0.0, SVG Export Plug-In . SVG Version: 6.00 Build 14948)  -->
<svg version="1.2" baseProfile="tiny" id="Layer_1" xmlns="http://www.w3.org/2000/svg" xmlns:xlink="http://www.w3.org/1999/xlink"
	 x="0px" y="0px" width="437.682px" height="295.726px" viewBox="0 0 437.682 295.726" xml:space="preserve">
<g>
	<path fill="#CB82B7" d="M30.103,68.001c0,0,3.966-20.105,0.584-36.95S39.728-4.951,56.693,1.164
		C73.66,7.282,189.787,8.969,219.308,6.481C248.831,3.994,357.529,2.608,381.802,2.3c29.549-0.377,23.379,12.367,23.379,12.367
		c-5.17,8.511-2.521,50.697-2.521,50.697L376.25,63.59c0,0,3.899-25.382-3.542-29.51c-19.923-11.05-289.201,0.52-304.99,3.887
		c-15.789,3.368-9.107,30.727-9.107,30.727L30.103,68.001z"/>
	<path fill="#CB82B7" d="M28.953,60.627C13.123,60.828,9.198,84.099,4.014,91.554c-5.182,7.456-3.992,17.995-3.656,44.378
		c0.337,26.384,4.033,124.539,1.829,143.525c-3.803,32.769,81.341,5.297,134.162,8.845c46.963,3.156,149.815-5.075,207.846-6.87
		c21.124-0.654,34.834,0.666,64.428,3.4c20.08,1.856,14.682-7.575,14.413-28.682c-0.485-38.05,8.778-139.438,14.612-178.566
		c1.09-7.307-24.542-20.797-34.054-21.731C392.628,54.775,44.782,60.426,28.953,60.627z"/>
	<path fill="#ED137F" stroke="#010101" d="M26.381,65.937l354.044-6.095l5.871,5.203l5.743-4.822c0,0,11.608-0.148,13.186-0.697
		c1.575-0.547,18.169,17.712,18.169,17.712l-7.057,191.664L292.37,273.12l-0.982,5.817l-138.755,3.352l-0.067-5.276l-124.521,2.115
		L15.536,84.547L26.381,65.937z"/>
	<path fill="#E868A7" d="M15.536,84.547l10.846-18.61l352.474-5.019l7.996,6.23l1.508-5.824l18.462-0.763
		c0,0,17.101,16.669,16.573,16.676S15.536,84.547,15.536,84.547z"/>
	<polygon fill="#802986" stroke="#010101" points="42.833,73.116 40.031,18.793 46.822,13.429 388.777,11.182 394.641,15.857 
		393.717,67.59 387.913,67.663 384.152,62.434 384.242,28.129 51.232,28.149 51.203,67.204 46.521,72.541 	"/>
	<polygon fill="#010101" stroke="#010101" points="46.125,27.688 50.355,28.337 51.203,67.204 46.36,73.775 	"/>
	<polygon fill="#010101" stroke="#010101" points="383.523,26.906 384.152,62.434 388.976,68.354 387.406,27.912 	"/>
	<polygon fill="#010101" stroke="#010101" points="41.107,103.22 81.736,102.702 89.591,97.853 153.445,97.565 161.427,102.742 
		396.191,96.056 396.571,84.44 40.938,90.028 	"/>
	<polygon fill="#010101" stroke="#010101" points="79.287,117.51 94.948,104.117 147.695,101.862 164.748,114.838 155.784,115.48 
		143.005,106.671 99.23,108.812 90.36,116.842 	"/>
	<polygon fill="#010101" stroke="#010101" points="42.79,111.114 397.353,104.485 396.914,111.353 41.301,118.521 	"/>
	<path fill="#FFFFFF" d="M267.31,211.693c0.045,3.495-2.754,6.367-6.252,6.411l-62.264,0.794c-3.497,0.045-6.367-2.755-6.412-6.251
		l-0.303-23.746c-0.045-3.495,2.753-6.368,6.251-6.412l62.264-0.793c3.497-0.045,6.368,2.755,6.413,6.251L267.31,211.693z"/>
	<circle fill="#4E4E4E" cx="129.503" cy="144.578" r="10.818"/>
	<circle fill="#4E4E4E" cx="174.622" cy="144.267" r="12.137"/>
	<circle fill="#4E4E4E" cx="214.45" cy="142.967" r="11.346"/>
	<circle fill="#4E4E4E" cx="302.55" cy="140.26" r="11.873"/>
	<circle fill="#4E4E4E" cx="346.065" cy="138.387" r="16.359"/>
	<circle fill="#4E4E4E" cx="89.862" cy="139.804" r="6.069"/>
	
		<ellipse transform="matrix(0.9999 -0.0128 0.0128 0.9999 -1.8683 1.6652)" fill="#FFFFFF" cx="129.537" cy="147.216" rx="7.652" ry="8.179"/>
	
		<ellipse transform="matrix(0.9999 -0.0128 0.0128 0.9999 -1.8566 2.2372)" fill="#FFFFFF" cx="174.121" cy="146.383" rx="8.444" ry="7.916"/>
	
		<ellipse transform="matrix(0.9999 -0.0128 0.0128 0.9999 -1.8373 2.7608)" fill="#FFFFFF" cx="215.005" cy="145.07" rx="8.707" ry="8.181"/>
	
		<ellipse transform="matrix(0.9999 -0.0127 0.0127 0.9999 -1.7719 3.8683)" fill="#FFFFFF" cx="302.824" cy="141.049" rx="8.971" ry="7.917"/>
	
		<ellipse transform="matrix(0.9999 -0.0127 0.0127 0.9999 -1.7412 4.479)" fill="#FFFFFF" cx="350.559" cy="138.858" rx="13.984" ry="14.248"/>
	<path fill="#FFFFFF" d="M178.192,258.743l103.93-2.908c0,0,3.193,2.07,3.227,4.709c0.034,2.638-0.447,6.338-0.447,6.338
		l-108.678,2.969L178.192,258.743z"/>
	<path fill="#E868A7" d="M152.784,269.398c0.044,3.497-2.755,6.368-6.252,6.414l-117.136,1.492
		c-3.497,0.044-6.367-2.756-6.412-6.252l-1.32-103.681c-0.045-3.496,2.753-6.367,6.25-6.412l117.136-1.492
		c3.497-0.045,6.368,2.754,6.412,6.25L152.784,269.398z"/>
	<path fill="#E868A7" d="M416.277,261.292c0.046,3.497-2.754,6.368-6.25,6.413l-109.221,1.392c-3.497,0.045-6.368-2.754-6.412-6.252
		l-1.302-102.097c-0.044-3.497,2.755-6.368,6.251-6.413l109.221-1.392c3.497-0.045,6.367,2.755,6.412,6.251L416.277,261.292z"/>
	<path fill="#802986" d="M288.32,162.344c0.032,2.623-2.066,4.776-4.689,4.811l-117.669,1.499c-2.624,0.033-4.777-2.065-4.811-4.689
		l0,0c-0.033-2.622,2.065-4.775,4.689-4.81l117.669-1.498C286.132,157.622,288.286,159.722,288.32,162.344L288.32,162.344z"/>
	
		<ellipse transform="matrix(0.9999 -0.0127 0.0127 0.9999 -2.774 1.149)" fill="none" stroke="#010101" stroke-width="4" cx="88.75" cy="218.19" rx="58.839" ry="56.993"/>
	
		<ellipse transform="matrix(0.9999 -0.0127 0.0127 0.9999 -2.7876 1.1527)" fill="#010101" stroke="#010101" cx="89.026" cy="219.243" rx="54.353" ry="53.298"/>
	
		<ellipse transform="matrix(0.9999 -0.0127 0.0127 0.9999 -2.6873 4.5352)" fill="none" stroke="#010101" stroke-width="4" cx="354.672" cy="213.218" rx="58.839" ry="56.992"/>
	
		<ellipse transform="matrix(0.9999 -0.0127 0.0127 0.9999 -2.7007 4.5389)" fill="#010101" stroke="#010101" cx="354.95" cy="214.27" rx="54.354" ry="53.298"/>
	<polyline fill="none" stroke="#010101" stroke-width="3" points="290.787,273.14 416.317,267.318 423.908,76.177 15.508,82.436 
		27.529,280.189 152.923,277.536 	"/>
	<polygon fill="none" stroke="#010101" points="291.381,278.41 153.167,282.811 151.828,177.806 294.271,173.879 	"/>
	<path fill="none" stroke="#010101" d="M22.328,162.039c0,0,118.406-4.147,124.759-4.228c5.542-0.071,5.562,1.512,5.615,5.732
		c0.055,4.254,0.155,12.137,0.155,12.137"/>
	
		<ellipse transform="matrix(0.9999 -0.0128 0.0128 0.9999 -1.7271 4.4382)" fill="none" stroke="#010101" cx="346.98" cy="137.584" rx="16.227" ry="15.568"/>
	
		<ellipse transform="matrix(0.9999 -0.0127 0.0127 0.9999 -1.7471 4.4434)" fill="none" stroke="#010101" cx="348.059" cy="139.418" rx="14.38" ry="13.456"/>
	
		<ellipse transform="matrix(0.9999 -0.0128 0.0128 0.9999 -1.7609 3.8563)" fill="none" stroke="#010101" cx="301.227" cy="139.882" rx="10.29" ry="10.158"/>
	
		<ellipse transform="matrix(0.9999 -0.0128 0.0128 0.9999 -1.7883 3.8684)" fill="none" stroke="#010101" cx="301.779" cy="141.854" rx="8.444" ry="7.915"/>
	
		<ellipse transform="matrix(0.9999 -0.0128 0.0128 0.9999 -1.7991 2.7351)" fill="none" stroke="#010101" cx="213.386" cy="142.321" rx="10.291" ry="10.159"/>
	
		<ellipse transform="matrix(0.9999 -0.0127 0.0127 0.9999 -1.8185 2.7336)" fill="none" stroke="#010101" cx="213.94" cy="144.293" rx="8.443" ry="7.915"/>
	
		<ellipse transform="matrix(0.9999 -0.0127 0.0127 0.9999 -1.806 2.1984)" fill="none" stroke="#010101" cx="171.969" cy="143.112" rx="10.29" ry="10.159"/>
	
		<ellipse transform="matrix(0.9999 -0.0127 0.0127 0.9999 -1.832 2.2068)" fill="none" stroke="#010101" cx="172.521" cy="145.084" rx="8.443" ry="7.917"/>
	
		<ellipse transform="matrix(0.9999 -0.0127 0.0127 0.9999 -1.8266 1.6519)" fill="none" stroke="#010101" cx="128.974" cy="144.452" rx="10.29" ry="10.157"/>
	
		<ellipse transform="matrix(0.9999 -0.0127 0.0127 0.9999 -1.8526 1.6599)" fill="none" stroke="#010101" cx="129.527" cy="146.424" rx="8.443" ry="7.917"/>
	<circle fill="none" stroke="#010101" cx="89.985" cy="139.143" r="5.937"/>
	<circle fill="#010101" stroke="#010101" cx="90.512" cy="139.136" r="2.771"/>
	<polyline fill="#88171A" points="338.758,123.967 72.574,129.206 72.543,126.832 371.701,120.645 371.747,124.339 355.65,124.28 	
		"/>
	<polygon fill="#010101" stroke="#010101" points="384.747,150.561 386.281,126.001 418.725,125.06 417.192,149.618 	"/>
	<path fill="none" stroke="#010101" d="M378.413,150.377l1.686-33.27l9.766,0.139c0,0,1.619,2.899,10.069,3.303
		c8.713,0.417,8.666-3.277,8.666-3.277l8.971-0.113l3.22,4.18l-1.731,29.841c0,0-114.479,3.306-118.696,3.624
		c-4.219,0.316-5.535,0.598-5.488,4.291c0.048,3.694-0.38,11.615-0.38,11.615"/>
	<polygon fill="none" stroke="#010101" stroke-width="3" points="418.996,84.155 418.561,112.131 27.057,118.967 26.958,90.47 	"/>
	<line fill="none" stroke="#010101" x1="396.837" y1="84.701" x2="396.66" y2="112.146"/>
	<line fill="none" stroke="#010101" x1="415.042" y1="84.469" x2="414.877" y2="112.97"/>
	
		<rect x="351.9" y="85.264" transform="matrix(0.9999 -0.0125 0.0125 0.9999 -1.2148 4.4269)" fill="#ED2224" width="1.715" height="27.837"/>
	<line fill="none" stroke="#010101" x1="41.726" y1="89.753" x2="42.086" y2="117.984"/>
	<polygon fill="none" stroke="#010101" points="42.826,72.589 41.065,17.196 395.156,14.795 393.717,67.59 388.44,67.657 
		387.921,27.025 46.483,28.21 47.048,72.534 	"/>
	<polyline fill="none" stroke="#010101" points="41.065,17.196 47.352,13.599 389.659,11.348 395.156,14.795 	"/>
	<polyline fill="none" stroke="#010101" points="47.048,72.534 50.15,67.394 50,27.99 	"/>
	<polyline fill="none" stroke="#010101" points="384.935,27.239 384.693,63.481 388.44,67.657 	"/>
	<polyline fill="none" stroke="#010101" stroke-width="3" points="15.508,82.436 25.851,65.59 43.087,65.371 	"/>
	<polyline fill="none" stroke="#010101" stroke-width="3" points="50.826,65.272 380.784,60.365 385.037,62.773 	"/>
	<polyline fill="none" stroke="#010101" stroke-width="3" points="394.155,60.546 406.112,60.042 423.908,76.177 	"/>
	<path fill="none" stroke="#010101" d="M277.962,136.439c0.04,3.205-2.524,5.838-5.73,5.879l-30.253,0.386
		c-3.205,0.04-5.838-2.526-5.878-5.731l0,0c-0.042-3.205,2.524-5.837,5.73-5.878l30.252-0.386
		C275.29,130.668,277.921,133.234,277.962,136.439L277.962,136.439z"/>
	<path fill="#010101" stroke="#010101" d="M264.943,136.429c0.018,1.361-1.07,2.477-2.431,2.494l-11.607,0.148
		c-1.36,0.018-2.478-1.07-2.494-2.432l0,0c-0.018-1.359,1.071-2.477,2.432-2.493l11.606-0.148
		C263.81,133.981,264.925,135.07,264.943,136.429L264.943,136.429z"/>
	
		<rect x="159.069" y="187.672" transform="matrix(0.9999 -0.0128 0.0128 0.9999 -2.4595 2.1144)" fill="none" stroke="#010101" width="10.554" height="11.962"/>
	
		<rect x="159.329" y="208.425" transform="matrix(0.9999 -0.0127 0.0127 0.9999 -2.7084 2.1125)" fill="none" stroke="#010101" width="10.906" height="11.257"/>
	
		<rect x="154.928" y="224.617" transform="matrix(0.9999 -0.0128 0.0128 0.9999 -2.8906 2.1119)" fill="none" stroke="#010101" width="18.293" height="5.982"/>
	<polygon fill="none" stroke="#010101" stroke-width="3" points="286.814,251.2 177.424,253.65 176.474,179.073 287.618,176.249 	
		"/>
	<path fill="none" stroke="#010101" stroke-width="5" d="M265.908,212.062c0.045,3.496-2.753,6.367-6.251,6.412l-59.099,0.753
		c-3.497,0.045-6.367-2.754-6.412-6.251l-0.31-24.272c-0.044-3.497,2.755-6.368,6.25-6.412l59.1-0.753
		c3.497-0.045,6.368,2.754,6.412,6.251L265.908,212.062z"/>
	
		<ellipse transform="matrix(0.9999 -0.0128 0.0128 0.9999 -2.5027 2.7088)" fill="#010101" stroke="#010101" cx="211.19" cy="197.63" rx="5.629" ry="5.98"/>
	<circle fill="#010101" stroke="#010101" cx="247.588" cy="196.288" r="6.156"/>
	
		<ellipse transform="matrix(0.9999 -0.0127 0.0127 0.9999 -2.8448 2.3854)" fill="none" stroke="#010101" cx="186.563" cy="225.387" rx="4.926" ry="5.277"/>
	
		<ellipse transform="matrix(0.9999 -0.0128 0.0128 0.9999 -2.8153 3.5349)" fill="none" stroke="#010101" cx="274.65" cy="221.625" rx="5.453" ry="5.805"/>
	<path fill="#010101" stroke="#010101" d="M198.017,240.722c0,0-0.08-6.332-0.121-9.498c-0.039-3.165,0.646-4.581,6.625-4.657
		c5.981-0.077,48.902-0.271,53.476-0.33s5.304,2.042,5.34,4.856c0.035,2.814,0.459,8.438,0.459,8.438L198.017,240.722z"/>
	<polygon fill="#010101" stroke="#010101" points="208.65,246.743 211.434,244.422 248.014,243.603 251.208,245.673 	"/>
	
		<rect x="218.568" y="190.015" transform="matrix(0.9999 -0.0128 0.0128 0.9999 -2.4894 2.9352)" fill="#010101" stroke="#010101" width="20.756" height="13.37"/>
	<path fill="none" stroke="#010101" d="M177.134,258.58l105.512-2.927c0,0,1.961,1.909,2.538,5.772
		c0.378,2.531,0.581,4.215,0.581,4.215l-108.839,4.2L177.134,258.58z"/>
	<path fill="none" stroke="#010101" d="M191.557,258.396c0,0,0.369,1.402,0.764,4.74c0.396,3.336-0.1,5.982-0.1,5.982"/>
	<path fill="none" stroke="#010101" d="M207.033,258.022c0,0,1.605,1.74,1.648,5.082c0.043,3.341-0.282,5.456-0.282,5.456"/>
	<path fill="none" stroke="#010101" d="M222.508,257.649c0,0,1.791,2.44,2.005,5.429c0.214,2.986,0.061,4.748,0.061,4.748"/>
	<path fill="none" stroke="#010101" d="M237.804,256.927c0,0,1.244,1.04,1.809,3.847c0.563,2.808,0.787,6.5,0.787,6.5"/>
	<path fill="none" stroke="#010101" d="M253.284,256.73c0,0,1.42,1.037,1.989,4.373c0.57,3.335,0.606,6.148,0.606,6.148"/>
	<path fill="none" stroke="#010101" d="M268.053,256.189c0,0,1.622,2.014,2.34,4.192c1.098,3.329,0.429,5.976,0.429,5.976"/>
	<path fill="#010101" stroke="#010101" d="M176.082,258.771c0,0-1.231,0.015-1.191,3.182c0.04,3.165,0.4,17.586,0.4,17.586
		l110.609-3.345l-0.655-10.02l-108.661,4.376L176.082,258.771z"/>
	<polyline fill="none" stroke="#010101" points="119.685,278.312 137.98,264.532 152.75,263.993 	"/>
	<polyline fill="none" stroke="#010101" points="291.832,258.525 307.478,257.799 324.722,271.828 	"/>
	
		<rect x="160.093" y="157.096" transform="matrix(0.9997 -0.024 0.024 0.9997 -3.8588 5.4278)" fill="none" stroke="#010101" width="127.706" height="12.401"/>
	
		<rect x="222.1" y="158.822" transform="matrix(0.9997 -0.024 0.024 0.9997 -3.8512 5.5388)" fill="#88171A" stroke="#010101" width="13.721" height="8.971"/>
	
		<rect x="238.184" y="158.432" transform="matrix(0.9997 -0.024 0.024 0.9997 -3.8365 5.9366)" fill="#F57F20" stroke="#010101" width="13.985" height="8.443"/>
	
		<rect x="255.066" y="158.297" transform="matrix(0.9997 -0.024 0.024 0.9997 -3.8224 6.3361)" fill="#88171A" stroke="#010101" width="13.455" height="7.914"/>
	
		<rect x="270.359" y="157.376" transform="matrix(0.9997 -0.024 0.024 0.9997 -3.8024 6.7295)" fill="#F57F20" stroke="#010101" width="15.567" height="8.444"/>
	<g>
		<line fill="none" stroke="#FFFFFF" x1="41.275" y1="199.268" x2="78.342" y2="167.659"/>
		<line fill="none" stroke="#FFFFFF" x1="45.879" y1="205.146" x2="83.472" y2="173.354"/>
		<line fill="none" stroke="#FFFFFF" x1="50.484" y1="211.024" x2="88.603" y2="179.051"/>
		<line fill="none" stroke="#FFFFFF" x1="55.089" y1="216.903" x2="93.733" y2="184.746"/>
		<line fill="none" stroke="#FFFFFF" x1="59.694" y1="222.782" x2="98.863" y2="190.442"/>
		<line fill="none" stroke="#FFFFFF" x1="64.299" y1="228.66" x2="103.993" y2="196.139"/>
		<line fill="none" stroke="#FFFFFF" x1="68.904" y1="234.539" x2="109.123" y2="201.834"/>
		<line fill="none" stroke="#FFFFFF" x1="73.509" y1="240.418" x2="114.253" y2="207.53"/>
		<line fill="none" stroke="#FFFFFF" x1="78.113" y1="246.297" x2="119.383" y2="213.227"/>
		<line fill="none" stroke="#FFFFFF" x1="82.718" y1="252.175" x2="124.513" y2="218.922"/>
		<line fill="none" stroke="#FFFFFF" x1="87.323" y1="258.053" x2="129.644" y2="224.618"/>
		<line fill="none" stroke="#FFFFFF" x1="91.928" y1="263.932" x2="134.773" y2="230.313"/>
		<line fill="none" stroke="#FFFFFF" x1="96.533" y1="269.811" x2="139.904" y2="236.01"/>
	</g>
	<g>
		<line fill="none" stroke="#FFFFFF" x1="107.023" y1="170.214" x2="138.116" y2="207.716"/>
		<line fill="none" stroke="#FFFFFF" x1="101.081" y1="174.736" x2="132.35" y2="212.767"/>
		<line fill="none" stroke="#FFFFFF" x1="95.14" y1="179.26" x2="126.583" y2="217.817"/>
		<line fill="none" stroke="#FFFFFF" x1="89.198" y1="183.782" x2="120.817" y2="222.867"/>
		<line fill="none" stroke="#FFFFFF" x1="83.256" y1="188.306" x2="115.05" y2="227.919"/>
		<line fill="none" stroke="#FFFFFF" x1="77.314" y1="192.829" x2="109.285" y2="232.97"/>
		<line fill="none" stroke="#FFFFFF" x1="71.373" y1="197.352" x2="103.518" y2="238.021"/>
		<line fill="none" stroke="#FFFFFF" x1="65.431" y1="201.875" x2="97.751" y2="243.071"/>
		<line fill="none" stroke="#FFFFFF" x1="59.489" y1="206.398" x2="91.985" y2="248.122"/>
		<line fill="none" stroke="#FFFFFF" x1="53.547" y1="210.921" x2="86.218" y2="253.173"/>
		<line fill="none" stroke="#FFFFFF" x1="47.605" y1="215.444" x2="80.452" y2="258.224"/>
		<line fill="none" stroke="#FFFFFF" x1="41.664" y1="219.967" x2="74.686" y2="263.274"/>
		<line fill="none" stroke="#FFFFFF" x1="35.722" y1="224.49" x2="68.919" y2="268.325"/>
	</g>
	<g>
		<line fill="none" stroke="#FFFFFF" x1="307.732" y1="194.817" x2="344.799" y2="163.208"/>
		<line fill="none" stroke="#FFFFFF" x1="312.336" y1="200.695" x2="349.929" y2="168.903"/>
		<line fill="none" stroke="#FFFFFF" x1="316.941" y1="206.574" x2="355.06" y2="174.6"/>
		<line fill="none" stroke="#FFFFFF" x1="321.546" y1="212.452" x2="360.189" y2="180.295"/>
		<line fill="none" stroke="#FFFFFF" x1="326.151" y1="218.331" x2="365.32" y2="185.992"/>
		<line fill="none" stroke="#FFFFFF" x1="330.755" y1="224.21" x2="370.451" y2="191.688"/>
		<line fill="none" stroke="#FFFFFF" x1="335.361" y1="230.088" x2="375.581" y2="197.383"/>
		<line fill="none" stroke="#FFFFFF" x1="339.965" y1="235.967" x2="380.71" y2="203.079"/>
		<line fill="none" stroke="#FFFFFF" x1="344.57" y1="241.846" x2="385.841" y2="208.775"/>
		<line fill="none" stroke="#FFFFFF" x1="349.175" y1="247.724" x2="390.971" y2="214.471"/>
		<line fill="none" stroke="#FFFFFF" x1="353.779" y1="253.603" x2="396.101" y2="220.167"/>
		<line fill="none" stroke="#FFFFFF" x1="358.384" y1="259.48" x2="401.232" y2="225.862"/>
		<line fill="none" stroke="#FFFFFF" x1="362.989" y1="265.359" x2="406.362" y2="231.559"/>
	</g>
	<g>
		<line fill="none" stroke="#FFFFFF" x1="373.479" y1="165.763" x2="404.573" y2="203.264"/>
		<line fill="none" stroke="#FFFFFF" x1="367.538" y1="170.285" x2="398.806" y2="208.314"/>
		<line fill="none" stroke="#FFFFFF" x1="361.596" y1="174.809" x2="393.041" y2="213.365"/>
		<line fill="none" stroke="#FFFFFF" x1="355.654" y1="179.331" x2="387.273" y2="218.416"/>
		<line fill="none" stroke="#FFFFFF" x1="349.712" y1="183.854" x2="381.507" y2="223.468"/>
		<line fill="none" stroke="#FFFFFF" x1="343.771" y1="188.378" x2="375.742" y2="228.519"/>
		<line fill="none" stroke="#FFFFFF" x1="337.83" y1="192.9" x2="369.975" y2="233.569"/>
		<line fill="none" stroke="#FFFFFF" x1="331.888" y1="197.424" x2="364.208" y2="238.62"/>
		<line fill="none" stroke="#FFFFFF" x1="325.946" y1="201.946" x2="358.443" y2="243.672"/>
		<line fill="none" stroke="#FFFFFF" x1="320.004" y1="206.47" x2="352.676" y2="248.723"/>
		<line fill="none" stroke="#FFFFFF" x1="314.063" y1="210.992" x2="346.91" y2="253.773"/>
		<line fill="none" stroke="#FFFFFF" x1="308.121" y1="215.515" x2="341.144" y2="258.824"/>
		<line fill="none" stroke="#FFFFFF" x1="302.179" y1="220.038" x2="335.377" y2="263.875"/>
	</g>
</g>
</svg>
