<?xml version="1.0" encoding="utf-8"?>
<!-- Generator: Adobe Illustrator 13.0.0, SVG Export Plug-In . SVG Version: 6.00 Build 14948)  -->
<svg version="1.2" baseProfile="tiny" id="Layer_1" xmlns="http://www.w3.org/2000/svg" xmlns:xlink="http://www.w3.org/1999/xlink"
	 x="0px" y="0px" width="177.889px" height="255.177px" viewBox="0 0 177.889 255.177" xml:space="preserve">
<g>
	<path fill="#4E4E4E" d="M19.604,149.106l2.826-7.537l-9.891,1.413c0,0-10.833-8.949-7.536-19.783
		c3.297-10.832,10.832-9.419,10.832-9.419l-0.94-16.485c0,0-12.247-1.413-8.95-19.312c3.298-17.897,8.95-17.427,8.95-17.427
		s5.18-20.725,15.071-33.442c9.891-12.717,32.029-22.136,71.594-24.491c39.564-2.356,51.811,21.665,58.404,36.738
		c6.595,15.073,11.776,42.861,11.776,42.861s6.594,5.182,6.123,13.189c-0.471,8.006-1.885,18.369-5.652,21.666
		c-3.769,3.296-5.182,2.355-5.182,2.355l-1.413,8.478c0,0,6.595-1.885,5.652,9.42c-0.941,11.304-8.479,15.072-8.479,15.072
		l-6.593-0.471l2.826,3.768c0,0,12.245,8.95,15.071,25.906c2.826,16.957-3.297,25.905-3.297,25.905l-2.826,2.826
		c0,0-12.246,46.159-48.985,43.333c-36.738-2.826-28.73-9.421-28.73-9.421s25.028-8.938,25.434-47.1
		c0.471-44.276-20.253-53.225-20.253-53.225s8.007-4.239,17.897-4.71c9.892-0.472,15.073,1.884,15.073,1.884
		s-3.298-5.652,3.297-12.718c6.595-7.064,8.95-2.355,8.95-2.355l-0.473-4.709c0,0-9.891-10.363-10.361-19.312
		c-0.471-8.948,3.769-15.071,3.769-15.071s-10.363-36.268-16.486-43.333c-6.122-7.065-24.491-19.782-24.491-19.782
		s-16.016,8.007-24.494,20.725c-8.478,12.717-9.419,18.369-9.419,18.369s0.471,8.479-3.769,21.195
		c-4.239,12.718-13.188,16.957-13.188,16.957s-1.886,1.883-0.942,5.18c0.942,3.298,2.355,5.182,2.355,5.182s7.535-0.941,8.948,5.182
		s1.884,15.071,1.884,15.071s18.841-0.471,31.559,6.124c12.717,6.593,24.962,22.607,27.318,48.984
		c2.355,26.377-4.239,40.507-13.188,49.456c-8.95,8.95-22.609,20.725-47.102,16.485s-26.376-11.774-26.376-11.774
		s-16.015-17.427-20.725-31.087S1.235,188.67,1.235,188.67s-0.942-15.543,4.71-26.848C11.598,150.519,19.604,149.106,19.604,149.106
		z"/>
	
		<ellipse transform="matrix(0.9609 -0.2769 0.2769 0.9609 -53.8459 18.6622)" fill="#B4B3B4" cx="39.151" cy="199.975" rx="36.032" ry="45.216"/>
	
		<ellipse transform="matrix(0.9543 -0.2988 0.2988 0.9543 -58.9825 18.9028)" fill="#FFFFFF" cx="32.322" cy="202.329" rx="15.072" ry="20.253"/>
	<path fill="#010101" d="M110.039,161.823c0,0,7.535,4.239,6.122,30.145c-1.413,25.904-7.535,37.209-7.535,37.209
		s22.608-4.71,22.138-38.151C130.292,157.583,110.039,161.823,110.039,161.823z"/>
	<ellipse fill="#B4B3B4" cx="44.333" cy="126.025" rx="9.185" ry="16.016"/>
	<ellipse fill="#B4B3B4" cx="164.44" cy="139.214" rx="7.301" ry="14.13"/>
	<path fill="#010101" d="M52.104,60.084c0,0-0.471-17.898,22.608-34.854c23.079-16.957,36.269-8.008,36.269-8.008
		s-20.254-6.123-32.5,15.543C66.235,54.433,57.757,65.737,57.757,65.737L52.104,60.084z"/>
	<g>
		<path fill="#010101" d="M14.896,57.258c0,0,5.652-17.428,13.188-27.319c7.536-9.891,18.84-19.311,18.84-19.311
			S29.967,28.527,26.67,38.889S18.662,58.2,18.662,58.2L14.896,57.258z"/>
		<path fill="#010101" d="M18.402,57.363c0,0,5.391-16.852,12.926-27.005C38.864,20.206,50.115,10.89,50.115,10.89
			S33.421,28.422,30.071,38.994c-3.349,10.571-8.008,19.311-8.008,19.311L18.402,57.363z"/>
		<path fill="#010101" d="M21.908,57.467c0,0,5.129-16.276,12.664-26.691c7.537-10.414,18.735-19.625,18.735-19.625
			S36.875,28.317,33.473,39.098c-3.401,10.781-8.007,19.311-8.007,19.311L21.908,57.467z"/>
		<path fill="#010101" d="M25.415,57.572c0,0,4.868-15.7,12.403-26.377C45.354,20.519,56.5,11.414,56.5,11.414
			S40.329,28.212,36.875,39.203c-3.455,10.99-8.008,19.312-8.008,19.312L25.415,57.572z"/>
		<path fill="#010101" d="M28.921,57.677c0,0,4.605-15.125,12.142-26.063c7.536-10.938,18.63-19.939,18.63-19.939
			S43.783,28.108,40.277,39.308c-3.507,11.2-8.008,19.311-8.008,19.311L28.921,57.677z"/>
		<path fill="#010101" d="M32.427,57.781c0,0,4.344-14.548,11.879-25.749c7.537-11.199,18.579-20.097,18.579-20.097
			S47.237,28.003,43.679,39.412s-8.008,19.311-8.008,19.311L32.427,57.781z"/>
		<path fill="#010101" d="M35.934,57.886c0,0,4.083-13.973,11.618-25.435c7.536-11.461,18.526-20.253,18.526-20.253
			S50.691,27.899,47.081,39.517c-3.611,11.618-8.008,19.311-8.008,19.311L35.934,57.886z"/>
		<path fill="#010101" d="M39.439,57.99c0,0,3.821-13.397,11.357-25.12c7.536-11.723,18.474-20.411,18.474-20.411
			S54.146,27.794,50.482,39.621c-3.664,11.828-8.008,19.312-8.008,19.312L39.439,57.99z"/>
		<path fill="#010101" d="M42.946,58.095c0,0,3.559-12.821,11.095-24.806c7.536-11.985,18.422-20.567,18.422-20.567
			S57.6,27.689,53.884,39.726c-3.716,12.037-8.007,19.312-8.007,19.312L42.946,58.095z"/>
		<path fill="#010101" d="M46.452,58.2c0,0,3.298-12.245,10.834-24.492c7.536-12.246,18.369-20.725,18.369-20.725
			S61.054,27.584,57.286,39.831c-3.769,12.246-8.008,19.312-8.008,19.312L46.452,58.2z"/>
	</g>
	<g>
		<path fill="#010101" d="M7.594,121.08c0,0-1.648,4.71,0.942,11.775s5.417,9.185,5.417,9.185s-6.594-4.004-7.772-11.775
			C5.004,122.493,7.594,121.08,7.594,121.08z"/>
		<path fill="#010101" d="M10.786,120.792c-0.026,0.079-1.91,4.998,0.707,12.167c2.617,7.17,5.652,9.342,5.6,9.263
			c-0.052-0.078-6.699-3.951-7.929-11.748C7.934,122.676,10.786,120.792,10.786,120.792z"/>
		<path fill="#010101" d="M13.979,120.504c-0.052,0.157-2.172,5.286,0.471,12.56c2.643,7.275,5.888,9.499,5.784,9.342
			c-0.104-0.156-6.803-3.899-8.087-11.723C10.865,122.859,13.979,120.504,13.979,120.504z"/>
		<path fill="#010101" d="M17.171,120.216c-0.078,0.235-2.433,5.573,0.236,12.952c2.669,7.38,6.123,9.656,5.966,9.421
			c-0.156-0.235-6.908-3.848-8.243-11.697C13.796,123.042,17.171,120.216,17.171,120.216z"/>
		<path fill="#010101" d="M20.363,119.928c-0.104,0.314-2.695,5.862,0.001,13.345c2.695,7.484,6.359,9.812,6.149,9.499
			s-7.013-3.794-8.4-11.67C16.727,123.225,20.363,119.928,20.363,119.928z"/>
		<path fill="#010101" d="M23.557,119.641c-0.131,0.392-2.958,6.149-0.235,13.737c2.721,7.588,6.594,9.969,6.332,9.577
			c-0.261-0.393-7.117-3.742-8.558-11.644C19.657,123.409,23.557,119.641,23.557,119.641z"/>
		<path fill="#010101" d="M26.749,119.353c-0.157,0.471-3.219,6.438-0.471,14.129c2.748,7.694,6.83,10.127,6.516,9.656
			c-0.313-0.471-7.222-3.689-8.714-11.617C22.588,123.592,26.749,119.353,26.749,119.353z"/>
		<path fill="#010101" d="M29.941,119.065c-0.183,0.549-3.48,6.725-0.707,14.522c2.774,7.798,7.066,10.283,6.699,9.734
			c-0.366-0.549-7.327-3.638-8.871-11.592C25.519,123.775,29.941,119.065,29.941,119.065z"/>
		<path fill="#010101" d="M33.134,118.778c-0.209,0.627-3.742,7.013-0.942,14.914c2.8,7.903,7.302,10.44,6.882,9.813
			c-0.418-0.628-7.431-3.585-9.029-11.565C28.449,123.958,33.134,118.778,33.134,118.778z"/>
		<path fill="#010101" d="M36.326,118.49c-0.235,0.706-4.004,7.301-1.178,15.307c2.826,8.008,7.537,10.598,7.065,9.892
			c-0.471-0.706-7.536-3.532-9.186-11.539C31.38,124.141,36.326,118.49,36.326,118.49z"/>
	</g>
	<g>
		<path fill="#010101" d="M128.408,140.156c0,0-1.177-1.649,0.706-6.829c1.885-5.182,5.889-8.95,5.889-8.95s-4.357,5.3-4.711,9.773
			c-0.353,4.476-0.706,6.241-0.706,6.241L128.408,140.156z"/>
		<path fill="#010101" d="M131.812,141.459c0,0-1.49-1.872,0.301-7.471c1.794-5.601,5.64-9.278,5.601-9.199
			s-4.227,5.641-4.41,10.311c-0.182,4.672-0.183,6.607-0.183,6.607L131.812,141.459z"/>
		<path fill="#010101" d="M135.232,142.763c0,0-1.805-2.094-0.105-8.111c1.702-6.019,5.392-9.604,5.312-9.447
			c-0.078,0.157-4.096,5.98-4.108,10.846c-0.013,4.868,0.341,6.974,0.341,6.974L135.232,142.763z"/>
		<path fill="#010101" d="M138.665,144.07c0,0-2.119-2.316-0.511-8.752c1.61-6.438,5.143-9.932,5.024-9.696
			c-0.117,0.235-3.964,6.32-3.808,11.383c0.158,5.064,0.864,7.34,0.864,7.34L138.665,144.07z"/>
		<path fill="#010101" d="M142.107,145.377c0,0-2.433-2.538-0.916-9.394c1.519-6.857,4.895-10.259,4.737-9.945
			c-0.157,0.313-3.834,6.661-3.507,11.919c0.328,5.261,1.387,7.706,1.387,7.706L142.107,145.377z"/>
		<path fill="#010101" d="M145.56,146.685c0,0-2.747-2.761-1.321-10.035c1.427-7.274,4.645-10.585,4.448-10.192
			c-0.196,0.392-3.703,7-3.206,12.455c0.498,5.456,1.911,8.073,1.911,8.073L145.56,146.685z"/>
		<path fill="#010101" d="M149.018,147.995c0,0-3.061-2.982-1.727-10.676c1.335-7.693,4.396-10.912,4.16-10.441
			c-0.235,0.471-3.571,7.341-2.904,12.992c0.668,5.652,2.434,8.439,2.434,8.439L149.018,147.995z"/>
		<path fill="#010101" d="M152.313,149.305c0,0-3.374-3.205-2.132-11.317c1.244-8.111,4.147-11.239,3.873-10.688
			c-0.275,0.549-3.441,7.68-2.604,13.528c0.839,5.848,2.957,8.805,2.957,8.805L152.313,149.305z"/>
		<path fill="#010101" d="M155.372,150.618c0,0-3.688-3.428-2.537-11.958c1.152-8.53,3.899-11.566,3.585-10.938
			c-0.314,0.627-3.311,8.02-2.303,14.065c1.008,6.044,3.479,9.171,3.479,9.171L155.372,150.618z"/>
		<path fill="#010101" d="M158.435,151.931c0,0-4.003-3.65-2.943-12.6c1.061-8.949,3.65-11.894,3.297-11.187
			c-0.354,0.706-3.18,8.36-2.002,14.602c1.179,6.24,4.004,9.537,4.004,9.537L158.435,151.931z"/>
	</g>
	<g>
		<path fill="#010101" d="M122.756,53.725c0,0,4.003,5.182,6.595,15.072c2.59,9.892,4.239,18.605,4.239,18.605l1.884,0.706
			c0,0-0.942-11.304-4.475-21.195C127.466,57.023,122.756,53.725,122.756,53.725z"/>
		<path fill="#010101" d="M127.073,52.836c0,0,4.082,6.15,6.543,16.015c2.459,9.865,3.978,18.317,3.978,18.317l1.909,0.47
			c0,0-0.863-10.911-4.265-20.698C131.836,57.154,127.073,52.836,127.073,52.836z"/>
		<path fill="#010101" d="M131.392,51.946c0,0,4.16,7.118,6.488,16.956c2.33,9.84,3.717,18.03,3.717,18.03l1.936,0.235
			c0,0-0.785-10.519-4.055-20.201C136.206,57.285,131.392,51.946,131.392,51.946z"/>
		<path fill="#010101" d="M135.709,51.056c0,0,4.238,8.086,6.438,17.898c2.197,9.812,3.454,17.742,3.454,17.742l1.962-0.001
			c0,0-0.706-10.126-3.846-19.704C140.576,57.416,135.709,51.056,135.709,51.056z"/>
		<path fill="#010101" d="M140.026,50.049c0,0,4.317,9.054,6.386,18.84c2.066,9.787,3.192,17.454,3.192,17.454l1.988-0.236
			c0,0-0.629-9.734-3.637-19.207C144.946,57.428,140.026,50.049,140.026,50.049z"/>
		<path fill="#010101" d="M144.345,49.042c0,0,4.396,10.022,6.332,19.782c1.938,9.761,2.932,17.166,2.932,17.166l2.014-0.471
			c0,0-0.549-9.341-3.428-18.709C149.315,57.442,144.345,49.042,144.345,49.042z"/>
		<path fill="#010101" d="M148.662,48.034c0,0,4.476,10.99,6.281,20.724c1.805,9.735,2.669,16.878,2.669,16.878l2.04-0.707
			c0,0-0.471-8.949-3.218-18.212C153.687,57.455,148.662,48.034,148.662,48.034z"/>
		<path fill="#010101" d="M152.979,47.027c0,0,4.553,11.958,6.229,21.666c1.676,9.708,2.406,16.59,2.406,16.59l2.068-0.942
			c0,0-0.393-8.556-3.01-17.715C158.056,57.468,152.979,47.027,152.979,47.027z"/>
		<path fill="#010101" d="M157.297,45.98c0,0,4.632,12.927,6.176,22.608c1.544,9.683,2.146,16.303,2.146,16.303l2.093-1.177
			c0,0-0.313-8.164-2.799-17.218C162.426,57.441,157.297,45.98,157.297,45.98z"/>
		<path fill="#010101" d="M161.614,45.012c0,0,4.711,13.895,6.124,23.55c1.413,9.656,1.884,16.015,1.884,16.015l2.119-1.413
			c0,0-0.235-7.771-2.59-16.721C166.796,57.494,161.614,45.012,161.614,45.012z"/>
	</g>
	<path fill="#4E4E4E" d="M20.9,158.761c0,0-1.06,11.304,9.892,10.244s14.837-10.951,14.837-10.951s-3.533,6.358-14.131,6.006
		C20.9,163.707,20.9,158.761,20.9,158.761z"/>
	<path fill="#4E4E4E" d="M55.873,167.239c0,0-4.593,10.244,2.119,18.723s14.484,8.479,14.484,8.479s-14.131,2.473-20.136-7.419
		C46.335,177.13,55.873,167.239,55.873,167.239z"/>
	<path fill="#4E4E4E" d="M74.949,208.57c0,0-13.07-2.473-17.31,6.712s-3.18,12.011,0.353,15.544
		c3.533,3.532,9.538,2.473,9.538,2.473s-8.831-4.239-8.125-9.892c0.707-5.652,3.887-9.185,6.712-10.598
		C68.943,211.396,74.949,208.57,74.949,208.57z"/>
	<path fill="#4E4E4E" d="M31.146,238.244c0,0-6.006-4.945,2.473-6.006c8.478-1.06,16.603,8.832,16.603,8.832
		s-10.244-6.712-14.837-6.712C30.792,234.358,31.146,238.244,31.146,238.244z"/>
	<path fill="#4E4E4E" d="M5.711,206.451c0,0,4.592,1.06,6.712,8.478c2.119,7.419,2.119,11.305,2.119,11.305
		s-3.532-6.006-6.006-10.244C6.063,211.75,5.711,206.451,5.711,206.451z"/>
	<path fill="#4E4E4E" d="M2.531,191.614c0,0,7.065-0.354,9.185-10.598c2.12-10.244,0.707-15.544,0.354-14.483
		c-0.354,1.06,1.06,8.125-2.473,15.543C6.063,189.494,2.531,191.614,2.531,191.614z"/>
	<polygon fill="#B4B3B4" points="112.747,160.173 120.52,141.098 115.573,161.234 	"/>
	<polygon fill="#B4B3B4" points="108.861,230.472 107.802,252.727 111.688,230.826 	"/>
	<polygon fill="#B4B3B4" points="131.823,195.146 164.677,199.385 132.177,199.032 	"/>
	<polygon fill="#B4B3B4" points="119.812,162.293 137.829,146.75 122.639,164.413 	"/>
	<polygon fill="#B4B3B4" points="127.231,171.125 154.078,162.293 128.291,173.597 	"/>
	<polygon fill="#B4B3B4" points="131.823,181.722 162.91,182.783 132.53,184.548 	"/>
	<polygon fill="#B4B3B4" points="130.764,206.804 153.726,228 128.644,211.75 	"/>
	<polygon fill="#B4B3B4" points="121.226,223.407 138.535,244.602 123.698,220.581 	"/>
	<polygon fill="#B4B3B4" points="115.221,228 123.345,243.896 117.34,226.939 	"/>
	<polygon fill="#B4B3B4" points="125.465,217.048 140.655,229.059 126.878,214.222 	"/>
	<polygon fill="#B4B3B4" points="131.823,202.211 150.546,207.51 130.764,205.038 	"/>
	<polygon fill="#B4B3B4" points="130.057,175.717 149.84,171.478 130.41,178.19 	"/>
	<polygon fill="#B4B3B4" points="133.236,188.434 153.372,189.847 132.177,191.26 	"/>
	<polygon fill="#B4B3B4" points="124.758,166.179 142.774,156.288 125.465,168.652 	"/>
	<path fill="#B4B3B4" d="M108.861,159.821c0-1.06-1.766-14.483-1.766-14.483l-0.354,15.189L108.861,159.821z"/>
	<polygon fill="#B4B3B4" points="117.693,160.88 125.111,146.397 118.753,161.94 	"/>
	<polygon fill="#010101" points="44.569,241.776 45.629,254.494 51.987,254.847 52.341,242.129 	"/>
	<path fill="#B4B3B4" d="M45.275,154.168c0,0,20.489,4.945,29.674,28.967s8.125,23.669,13.424,21.902s2.473-3.18,2.473-3.18
		s-9.538-28.261-22.608-39.918S45.275,154.168,45.275,154.168z"/>
	<path fill="#B4B3B4" d="M66.471,138.272c0,0,26.848,9.891,33.913,42.744c7.064,32.853-2.826,51.222-2.826,51.222
		s10.598-38.857-4.593-64.646C77.775,141.804,66.471,138.272,66.471,138.272z"/>
	<path fill="#B4B3B4" d="M152.665,153.461c0,0,16.935,18.824,10.599,48.396c-7.065,32.971-26.848,45.688-26.848,45.688
		s18.685-7.771,28.967-40.035C175.627,175.364,152.665,153.461,152.665,153.461z"/>
	<ellipse fill="none" stroke="#010101" cx="46.558" cy="127.124" rx="6.435" ry="10.255"/>
	<ellipse fill="none" stroke="#010101" cx="43.943" cy="126.822" rx="9.651" ry="16.388"/>
	<path fill="none" stroke="#010101" d="M13.18,110.836c0,0-8.848,5.027-7.44,17.092c1.408,12.063,8.445,14.477,8.445,14.477
		l28.955,0.805"/>
	<path fill="none" stroke="#010101" d="M38.163,112.244c0,0-0.755-4.825-2.413-5.881c-1.659-1.056-22.621-0.452-22.621-0.452v7.992
		c0,0,20.057,0.754,21.716,0.452C36.503,114.054,38.163,112.244,38.163,112.244z"/>
	<polyline fill="none" stroke="#010101" points="38.313,109.53 42.536,108.625 42.837,109.982 	"/>
	<line fill="none" stroke="#010101" x1="13.279" y1="105.458" x2="14.335" y2="95.656"/>
	<line fill="none" stroke="#010101" x1="36.503" y1="107.569" x2="37.408" y2="95.806"/>
	<path fill="none" stroke="#010101" d="M42.536,108.625c0,0-1.056-1.658-1.658-5.579c-0.604-3.922,0.301-5.43,0.15-4.978"/>
	<path fill="none" stroke="#010101" d="M13.732,98.068c0,0-2.715-2.412,0.15-2.562c2.865-0.151,20.962-0.151,22.319-0.151
		c1.356,0,4.726,2.814,4.726,2.814"/>
	<path fill="none" stroke="#010101" d="M13.431,100.632c0,0-4.826-3.62-6.636-8.144c-1.809-4.524-2.412-15.985-0.603-21.565
		s0.603-10.255,13.421-11.461c12.819-1.206,25.336-0.754,29.407-0.604c4.072,0.15,8.747,5.429,8.596,10.557
		c-0.15,5.128-2.459,13.703-6.635,22.621c-5.58,11.913-9.652,9.802-9.652,9.802"/>
	<path fill="none" stroke="#010101" d="M44.496,98.973c0,0-3.921-1.658-3.921-5.278c0-3.619,3.167-6.484,5.58-14.929
		c2.412-8.445,3.317-18.098,3.317-18.098"/>
	<path fill="none" stroke="#010101" d="M56.561,64.891c0,0,7.541-17.946,21.112-30.312c15.932-14.514,30.463-12.366,30.463-12.366"
		/>
	<path fill="none" stroke="#010101" d="M91.698,25.532c0,0,16.851,6.054,27.899,23.677c11.914,19,13.421,38.605,13.421,38.605
		s9.357,0.971,22.32-0.151c15.684-1.356,15.984-4.674,15.984-4.674s-2.402-20.878-8.596-35.741
		c-6.031-14.478-12.358-26.727-31.368-38.455C110.097-4.329,84.309,7.435,69.982,23.269C55.667,39.09,50.378,59.161,50.378,59.161"
		/>
	<path fill="none" stroke="#010101" d="M132.718,86.909c0,0-2.111,0.302-2.264,3.167c-0.15,2.865-1.206,8.596,1.811,17.493
		c2.295,6.77,3.515,11.693,6.938,11.914c4.675,0.301,24.129,0.15,26.692-0.302c2.564-0.453,6.032-0.905,8.294-6.636
		c2.263-5.73,3.413-14.788,3.016-19.453c-0.603-7.089-3.166-9.048-4.221-9.953c-1.057-0.905-1.66-0.15-1.66-0.15"/>
	<ellipse fill="none" stroke="#010101" cx="132.189" cy="99.426" rx="1.735" ry="1.96"/>
	<ellipse fill="none" stroke="#010101" cx="165.744" cy="98.445" rx="2.112" ry="2.037"/>
	<path fill="none" stroke="#010101" d="M170.721,84.797c0,0,4.675,5.731,3.016,19.454c-1.087,8.994-5.277,14.326-5.277,14.326"/>
	<path fill="none" stroke="#010101" d="M167.401,87.814c0,0,2.97,4.09,1.51,15.382c-1.658,12.818-4.978,14.93-4.978,14.93"/>
	<path fill="none" stroke="#010101" d="M13.732,60.668c0,0,4.188-25.568,28.201-44.638C57.315,3.816,81.443,2.157,94.112,1.101
		c11.985-0.999,18.849-0.452,18.849-0.452"/>
	<path fill="none" stroke="#010101" d="M49.623,58.407c0,0,6.485-22.771,20.812-38.153C86.215,3.311,98.17,0.649,111.755,0.649
		c20.51,0,37.702,23.224,37.702,23.224"/>
	
		<ellipse transform="matrix(0.9997 0.0232 -0.0232 0.9997 3.2644 -3.8233)" fill="none" stroke="#010101" cx="166.553" cy="138.904" rx="5.161" ry="8.746"/>
	
		<ellipse transform="matrix(0.9997 0.0232 -0.0232 0.9997 3.2612 -3.7798)" fill="none" stroke="#010101" cx="164.462" cy="138.598" rx="7.742" ry="13.976"/>
	<path fill="none" stroke="#010101" d="M128.042,140.896c0,0,0-7.237,2.111-11.159c2.111-3.92,4.072-5.429,8.596-5.429
		c4.547,0,26.844,0.303,26.844,0.303"/>
	<path fill="none" stroke="#010101" d="M138.298,142.104c0,0-0.151-5.58,1.206-9.048c1.356-3.47,3.619-6.787,7.237-6.335
		c3.62,0.452,0.744,3.347,0.152,7.691c-0.905,6.636,0.753,12.366,0.753,12.366"/>
	<line fill="none" stroke="#010101" x1="163.632" y1="152.508" x2="154.584" y2="152.508"/>
	<path fill="none" stroke="#010101" d="M138.749,124.308l1.207-3.016l0.904,0.15v0.754l18.7,0.151l0.904-1.357h2.413l0.15,0.904
		c0,0,2.264,1.057,3.47,2.111c1.206,1.056,1.357,1.961,1.357,1.961"/>
	<line fill="none" stroke="#010101" x1="140.107" y1="121.443" x2="140.483" y2="119.558"/>
	<line fill="none" stroke="#010101" x1="166.799" y1="119.106" x2="166.799" y2="124.233"/>
	<line fill="none" stroke="#010101" x1="162.728" y1="120.991" x2="162.878" y2="119.483"/>
	<path fill="none" stroke="#010101" d="M75.913,192.875c0,0-11.661,5.429-21.715-5.43c-9.083-9.809,2.413-21.312,2.413-21.312
		s-0.805-1.206-5.027-4.021c-3.818-2.546-6.232-3.619-6.232-3.619s-4.826,11.46-14.88,11.059
		c-10.054-0.402-10.054-10.857-10.054-10.857s-1.81,0.804-4.425,2.813c-2.708,2.086-4.825,4.626-4.825,4.626
		s1.81,4.624,0.805,11.059s-0.805,10.455-4.624,13.07c-3.821,2.613-6.033,2.211-6.033,2.211s-0.603,2.613-0.401,6.435
		c0.201,3.82,2.011,7.239,2.011,7.239s5.026,1.809,8.847,7.44c3.82,5.628,4.222,18.297,4.222,18.297s1.811,2.612,6.436,5.629
		c3.739,2.439,8.444,1.811,8.444,1.811s-6.836-6.636,0.805-7.641c7.641-1.006,17.694,8.042,18.9,9.248
		c1.207,1.208,3.62,0.201,3.62,0.201s4.424-1.407,8.043-3.619c3.619-2.211,4.624-3.819,4.624-3.819s-7.238,0.401-10.053-4.022
		c-2.816-4.423-3.82-15.281,3.618-18.297c7.44-3.016,10.858-2.614,13.473-3.218c2.613-0.603,3.619-0.805,3.619-0.805l1.005-5.428"/>
	
		<ellipse transform="matrix(0.9859 -0.1675 0.1675 0.9859 -33.3204 7.9325)" fill="none" stroke="#010101" cx="30.371" cy="201.521" rx="14.779" ry="19.504"/>
	<path fill="none" stroke="#010101" d="M19.412,147.834c0,0-11.259,5.63-15.683,17.493c-4.425,11.863-3.017,26.743-3.017,26.743
		l1.407-0.202c0,0,0.402-33.176,27.948-36.795c27.548-3.619,36.596,18.298,42.227,28.954c5.63,10.656,5.429,16.89,6.635,19.303
		c1.206,2.412,2.815,3.418,8.244,2.815c5.429-0.604,5.63-6.837,3.217-15.483c-2.412-8.646-8.243-21.313-17.292-30.362
		c-9.048-9.048-19.303-14.276-19.303-14.276l-4.222-5.83"/>
	<path fill="none" stroke="#010101" d="M21.021,142.606l-1.809,6.636c0,0,3.016,4.424,15.684,2.815
		c12.667-1.609,16.086-4.424,16.086-4.424l-4.223-5.027"/>
	<path fill="none" stroke="#010101" d="M20.82,142.808c0,0,2.412,1.005,9.853,1.205c7.439,0.202,9.651-1.005,9.651-1.005"/>
	<path fill="none" stroke="#010101" d="M50.981,147.633c0,0,18.9,8.445,28.552,25.938c8.169,14.805,11.26,28.954,11.26,28.954"/>
	<path fill="none" stroke="#010101" d="M83.354,206.347c0,0-1.154,20.137-18.298,30.965c-15.282,9.651-33.981,2.412-33.981,2.412"/>
	<path fill="none" stroke="#010101" d="M50.378,138.787c0,0,31.166,5.429,42.627,39.812c10.075,30.223,1.609,54.691-11.461,65.55
		c-13.069,10.858-29.356,9.25-29.356,9.25"/>
	<path fill="none" stroke="#010101" d="M51.383,137.781c0,0,20.68,3.19,34.785,22.722c13.07,18.096,17.494,44.438,10.055,63.739
		c-7.44,19.304-21.113,24.33-21.113,24.33"/>
	<path fill="none" stroke="#010101" d="M53.193,134.161c0,0,19.993,0.854,35.388,21.516c15.282,20.509,20.286,53.468,10.054,74.195
		c-15.482,31.368-47.252,23.928-47.252,23.928"/>
	<path fill="none" stroke="#010101" d="M4.332,206.548c0,0,0.805,3.618,4.021,9.45c3.218,5.831,7.037,10.455,7.037,10.455"/>
	<path fill="none" stroke="#010101" d="M25.444,238.919c0,0,5.229,5.631,9.25,8.445c4.021,2.815,11.059,5.229,11.059,5.229"/>
	<polyline fill="none" stroke="#010101" points="45.149,242.138 45.753,253.799 51.986,253.599 52.188,242.138 	"/>
	<path fill="none" stroke="#010101" d="M53.192,132.151c0,0,7.037-1.608,19.705,0.603c12.668,2.212,40.617,21.516,42.628,52.279
		s-4.359,41.688-16.086,52.883c-8.848,8.444-14.88,9.249-14.88,9.249"/>
	<path fill="none" stroke="#010101" d="M108.086,161.507c0,0,5.228-1.005,12.265,3.419c9.403,5.909,16.329,26.157,8.044,44.839
		c-10.256,23.123-22.521,21.314-22.521,21.314"/>
	<path fill="none" stroke="#010101" d="M94.413,144.618c0,0,8.082-8.844,32.372-4.022c27.348,5.429,47.655,41.623,32.373,75.604
		c-15.281,33.98-34.588,37.726-46.85,37.399c-15.081-0.402-25.135-7.44-25.135-7.44"/>
	<path fill="none" stroke="#010101" d="M128.595,140.998c0,0,15.123,0.061,29.759,14.879c15.884,16.087,15.884,52.279,1.006,75.001
		c-20.874,31.875-48.659,22.521-48.659,22.521"/>
	<path fill="none" stroke="#010101" d="M157.349,154.67c0,0,10.053,4.626,13.271,19.705c3.217,15.081-0.804,25.136-0.804,25.136"/>
	<path fill="none" stroke="#010101" d="M156.343,153.867c0,0,11.963,4.319,16.087,16.688c6.032,18.098-0.402,36.193-0.402,36.193
		l-3.62,2.212"/>
</g>
</svg>
