<?xml version="1.0" encoding="utf-8"?>
<!-- Generator: Adobe Illustrator 13.0.0, SVG Export Plug-In . SVG Version: 6.00 Build 14948)  -->
<svg version="1.2" baseProfile="tiny" id="Layer_1" xmlns="http://www.w3.org/2000/svg" xmlns:xlink="http://www.w3.org/1999/xlink"
	 x="0px" y="0px" width="495.871px" height="355.634px" viewBox="0 0 495.871 355.634" xml:space="preserve">
<g>
	<path fill="#FBD116" d="M77.919,169.029c0,0,42.757,42.756,180.528,50.358c129.611,7.15,116.868,73.16,116.868,73.16
		s43.353-101.223-117.818-97.864C120.676,197.533,77.919,169.029,77.919,169.029z"/>
	<path fill="#05A0C6" d="M84.571,162.378c0,0,4.751,31.355,184.328,31.355c124.527,0,118.769,76.011,118.769,76.011
		s36.105-100.715-96.916-95.013C129.314,181.649,84.571,162.378,84.571,162.378z"/>
	<path fill="#ED137F" d="M203.339,171.88c0,0,152.702-27.422,183.378,35.155c23.754,48.458,1.9,73.162,1.9,73.162l-15.203,23.752
		c0,0,27.555-9.501,42.757-41.806c15.203-32.305,22.804-85.513-38.956-102.615C315.457,142.425,203.339,171.88,203.339,171.88z"/>
	<path fill="#D4D3D3" d="M224.242,152.877c0,0,128.27-50.358,202.382,31.355c46.492,51.26,18.053,112.116,19.003,109.266
		c0.95-2.85,59.243-80.401-12.352-143.471C353.461,79.715,224.242,152.877,224.242,152.877z"/>
	<g>
		<path fill="none" stroke="#010101" d="M36.662,56.735c0,0,34.567-23.979,100.109,11.734
			c65.543,35.712,114.924-10.968,114.924-10.968"/>
		<path fill="none" stroke="#010101" d="M36.662,58.458c0,0,31.756-20.912,100.222,19.833
			c64.605,38.448,117.169-11.287,117.169-11.287"/>
		<path fill="none" stroke="#010101" d="M36.662,60.18c0,0,29.016-17.985,100.334,27.932
			c63.743,41.04,119.413-11.606,119.413-11.606"/>
		<path fill="none" stroke="#010101" d="M36.662,61.901c0,0,26.359-15.186,100.446,36.03
			c62.954,43.519,121.657-11.924,121.657-11.924"/>
		<path fill="none" stroke="#010101" d="M36.662,63.624c0,0,23.793-12.5,100.559,44.129
			c62.234,45.912,123.902-12.244,123.902-12.244"/>
	</g>
	<g>
		<path fill="none" stroke="#010101" d="M56.448,101.66c0,0,8.335,75.849,92.519,65.848
			c84.184-10.002,125.096-54.843,209.209-46.676c85.852,8.335,125.026,61.679,111.69,132.525
			c-11.754,62.447-83.352,78.351-83.352,78.351"/>
		<path fill="none" stroke="#010101" d="M53.53,103.952c0,0,5.665,64.779,82.934,67.723c81.688,3.113,147.822-39.411,222.336-16.878
			c78.412,23.711,78.694,77.908,57.096,118.356c-19.804,37.086-66.473,39.176-66.473,39.176"/>
		<path fill="none" stroke="#010101" d="M50.613,106.245c0,0,3.256,54.583,73.348,69.598
			c79.497,17.03,170.614-23.333,235.464,12.919c71.066,39.727,37.508,97.103,2.502,104.187c-22.969,14.132-49.595,0-49.595,0"/>
		<path fill="none" stroke="#010101" d="M47.696,108.537c0,0,0.677,45.307,63.763,71.473
			c77.108,31.982,193.085-6.671,248.592,42.717c63.364,56.38-4.434,111.11-52.094,90.018
			c-27.693-12.256-32.716-39.175-32.716-39.175"/>
		<path fill="none" stroke="#010101" d="M44.779,110.829c0,0-2.501,36.674,54.178,73.349
			c73.951,47.852,215.007,10.229,261.72,72.515c55.011,73.348-50.011,132.527-106.688,75.849
			c-34.184-34.184-15.837-78.35-15.837-78.35"/>
	</g>
	<path fill="#010101" d="M47.222,188.848c0,0,2.977,2.977,6.284,0.33c3.308-2.646,2.646-6.283,0-9.59
		c-2.646-3.309-10.259-3.752-15.319-0.054c-6.535,4.776-7.49,17.57,1.43,26.182c9.59,9.26,20.451,8.03,27.728,3.73
		s9.3-18.601-0.938-44.08C57.037,142.055,29.693,63.501,22.749,48.947C15.802,34.396,2.574,0,2.574,0s42.995,123.032,53.248,155.774
		c10.252,32.743,10.879,39.973,2.314,42.995c-5.622,1.984-9.438-0.267-11.244-2.977C44.246,191.824,47.222,188.848,47.222,188.848z"
		/>
	<path fill="#010101" d="M2.904,1.653c0,0,29.577,7.162,36.381,36.38c5.623,24.144-8.268,40.682-16.205,55.233
		s-11.74,33.002-1.654,50.932c8.93,15.876,27.781,26.128,42.334,20.836c14.552-5.29,27.746-25.173,19.183-45.972
		c-4.631-11.244-17.198-18.52-29.436-12.567c-12.237,5.953-15.063,11.999-12.567,24.475c2.314,11.576,14.553,13.561,20.506,10.253
		c5.952-3.309,8.137-7.254,7.938-11.246c-0.332-6.613-6.285-10.252-10.254-9.26s-3.969,5.953-3.969,5.953s-2.314-6.615,4.301-8.268
		c6.613-1.654,12.567,2.314,14.221,9.922c1.777,8.176-1.322,17.198-11.906,21.496c-10.584,4.3-27.781,0.332-33.074-15.544
		c-5.291-15.874,2.479-31.718,18.191-39.025c14.42-6.707,37.545-1.178,43.326,20.174c7.334,27.093-7.276,48.949-27.782,53.91
		c-20.505,4.961-50.602,0.661-60.523-34.727c-12.224-43.596,38.378-62.412,32.081-89.959C26.056,9.922,2.904,1.653,2.904,1.653z"/>
	<path fill="#010101" d="M249.452,41.922l8.735,67.126c0,0-6.688-8.393-19.172-8.097c-12.482,0.297-15.56,10.929-13.822,16.95
		c1.217,4.217,6.984,10.692,19.035,9.549c12.05-1.144,18.008-6.08,16.744-27.812c-1.223-21.06-1.776-41.27-1.776-41.27
		s14.013,5.268,14.138,18.029c0.124,12.759-5.207,30.577-5.207,30.577s13.028-11.258,11.269-35.066
		c-1.324-17.928-19.091-23.035-19.091-23.035l-0.778-10.477L249.452,41.922z"/>
	<path fill="#010101" d="M222.05,226.469l104.958-47.606l-44.864,35.061c0,0,3.5,34.917,3.751,46.73
		c0.241,11.334-7.288,19.354-13.069,20.611s-14.579,0.251-15.082-7.037c-0.502-7.29,3.268-10.558,7.541-13.071
		s14.578-2.514,14.578-2.514l-7.793-36.698l-35.188,22.622c0,0,3.77,35.441,5.026,44.742c1.258,9.3-1.253,21.135-14.326,23.124
		c-11.563,1.76-20.863-2.01-21.869-10.557c-1.004-8.545,3.268-12.567,13.071-14.578c6.081-1.248,16.338,2.513,16.338,2.513
		L222.05,226.469z"/>
	<path fill="#010101" d="M330.055,247.273l-4.477,45.077c0,0-3.088-6.484-11.271-8.182c-8.181-1.698-11.797,4.766-11.577,8.953
		c0.155,2.934,2.933,8.028,10.96,9.108c8.028,1.08,12.659-1.235,15.13-15.593c2.394-13.911,5.094-27.168,5.094-27.168
		s8.337,5.557,6.484,13.894c-1.854,8.335-8.027,19.142-8.027,19.142s10.198-5.364,12.658-21.149
		c1.852-11.886-8.953-17.907-8.953-17.907l1.08-6.947L330.055,247.273z"/>
	<path fill="#010101" d="M401.575,145.391l94.297,9.361l-46.367,6.468c0,0-11.895,26.286-16.583,34.796
		c-4.496,8.164-13.159,10.771-17.792,9.283c-4.63-1.488-10.476-5.827-7.832-11.221c2.646-5.395,6.674-6.165,10.751-6.194
		c4.076-0.028,11.409,4.217,11.409,4.217l9.573-29.322l-34.358,1.6c0,0-11.918,26.771-14.855,33.907
		c-2.936,7.135-9.599,14.522-19.722,10.554c-8.95-3.513-14.016-10.024-11.211-16.521c2.806-6.495,7.504-7.597,15.307-4.989
		c4.842,1.618,10.591,8.519,10.591,8.519L401.575,145.391z"/>
	<circle fill="#010101" cx="352.459" cy="316.881" r="10.135"/>
	<circle fill="#010101" cx="391.734" cy="334.618" r="6.968"/>
	<circle fill="#010101" cx="113.011" cy="209.191" r="5.068"/>
	<circle fill="#010101" cx="152.916" cy="251.005" r="2.534"/>
	<circle fill="#010101" cx="146.901" cy="130.96" r="6.651"/>
	<circle fill="#010101" cx="113.328" cy="150.598" r="2.217"/>
	<circle fill="#010101" cx="168.122" cy="161.683" r="0.634"/>
	<circle fill="#010101" cx="193.777" cy="217.744" r="2.217"/>
	<circle fill="#010101" cx="320.153" cy="106.571" r="9.501"/>
	<circle fill="#010101" cx="329.338" cy="139.194" r="4.117"/>
	<circle fill="#010101" cx="366.079" cy="151.23" r="1.583"/>
	<circle fill="#010101" cx="96.541" cy="73.631" r="2.533"/>
	<path fill="#010101" d="M432.91,208.559c0,0,7.67,25.701-7.602,58.279c-9.502,20.271-25.339,29.772-29.14,36.107
		c-3.801,6.334-1.267,22.171,17.737,6.968c11.29-9.032,22.016-36.789,23.438-57.646C439.244,224.396,432.91,208.559,432.91,208.559z
		"/>
	<path fill="#010101" d="M286.582,341.118c0,0-12.27-0.044-22.902-13.162c-6.617-8.162-7.479-17.937-9.383-20.921
		c-1.903-2.985-9.032-4.16-6.407,8.17c1.56,7.323,11.067,17.306,19.521,21.338C278.705,341.933,286.582,341.118,286.582,341.118z"/>
	<path fill="#010101" d="M200.564,145.958c0,0-18.729,12.581-48.712,8.453c-18.656-2.568-30.245-12.915-36.282-14.386
		c-6.039-1.471-18.126,4.521-1.166,15.988c10.075,6.812,35.051,8.493,52.158,4.426C189.425,155.002,200.564,145.958,200.564,145.958
		z"/>
</g>
</svg>
