<?xml version="1.0" encoding="utf-8"?>
<!-- Generator: Adobe Illustrator 13.0.0, SVG Export Plug-In . SVG Version: 6.00 Build 14948)  -->
<svg version="1.2" baseProfile="tiny" id="Layer_1" xmlns="http://www.w3.org/2000/svg" xmlns:xlink="http://www.w3.org/1999/xlink"
	 x="0px" y="0px" width="54.812px" height="89.187px" viewBox="0 0 54.812 89.187" xml:space="preserve">
<path fill="#010101" d="M24.705,3.525l8.735,67.127c0,0-6.688-8.393-19.172-8.098C1.786,62.851-1.291,73.484,0.446,79.505
	c1.217,4.217,6.984,10.691,19.035,9.549c12.05-1.145,18.008-6.08,16.744-27.812c-1.223-21.061-1.776-41.27-1.776-41.27
	s14.013,5.268,14.138,18.029c0.124,12.758-5.207,30.576-5.207,30.576S56.408,57.32,54.648,33.511
	c-1.324-17.928-19.091-23.035-19.091-23.035L34.779,0L24.705,3.525z"/>
</svg>
