<?xml version="1.0" encoding="utf-8"?>
<!-- Generator: Adobe Illustrator 13.0.0, SVG Export Plug-In . SVG Version: 6.00 Build 14948)  -->
<svg version="1.2" baseProfile="tiny" id="Layer_1" xmlns="http://www.w3.org/2000/svg" xmlns:xlink="http://www.w3.org/1999/xlink"
	 x="0px" y="0px" width="121.439px" height="133.994px" viewBox="0 0 121.439 133.994" xml:space="preserve">
<path fill="#010101" d="M16.481,47.606L121.439,0L76.574,35.061c0,0,3.501,34.916,3.752,46.73
	c0.24,11.334-7.289,19.354-13.07,20.611c-5.781,1.256-14.578,0.25-15.082-7.037c-0.502-7.291,3.268-10.559,7.541-13.072
	s14.578-2.514,14.578-2.514L66.5,43.083L31.312,65.704c0,0,3.77,35.441,5.026,44.742s-1.253,21.135-14.327,23.125
	c-11.562,1.76-20.863-2.01-21.868-10.557c-1.005-8.545,3.268-12.568,13.071-14.578c6.081-1.248,16.338,2.512,16.338,2.512
	L16.481,47.606z"/>
</svg>
